<svg xmlns="http://www.w3.org/2000/svg" width="300" height="300" viewBox="0 0 300 300" version="1.1">
	<path d="M 102.027 77.471 C 100.751 78.830, 98.198 80.440, 96.355 81.048 C 94.037 81.813, 91.954 83.746, 89.593 87.327 C 85.075 94.175, 77.820 109.825, 78.212 111.875 C 78.384 112.769, 80.223 114.400, 82.300 115.500 L 86.077 117.500 87.857 115.165 C 88.836 113.881, 90.431 111.181, 91.402 109.165 C 97.011 97.521, 98.769 94.670, 101.250 93.199 C 102.763 92.303, 104 91.216, 104 90.784 C 104 90.353, 104.637 90, 105.415 90 C 106.194 90, 108.105 88.650, 109.662 87 C 113.554 82.876, 119.472 82.767, 123.199 86.750 C 128.213 92.110, 129.257 95.600, 129.489 107.794 C 129.737 120.828, 130.451 119.868, 118.889 122.051 C 108.361 124.038, 100.415 128.371, 92.359 136.518 C 88.431 140.489, 84.879 144.810, 84.464 146.119 C 84.050 147.429, 81.777 151.688, 79.414 155.584 C 73.108 165.979, 71.630 170.231, 72.315 176.009 C 73.054 182.252, 77.147 190.920, 81.281 194.999 C 84.350 198.028, 84.757 198.144, 90 197.493 C 93.025 197.117, 97.737 196.855, 100.472 196.911 C 103.206 196.967, 107.706 196.284, 110.472 195.393 C 115.249 193.853, 128.990 186.063, 131.828 183.286 C 134.427 180.743, 137.145 179.745, 138.307 180.907 C 138.908 181.508, 140.419 182, 141.665 182 C 142.944 182, 144.420 182.916, 145.057 184.107 C 145.964 185.801, 146.787 186.093, 149.263 185.597 C 151.906 185.069, 152.812 185.496, 155.670 188.616 C 158.532 191.740, 159.432 192.164, 162.087 191.633 C 167.112 190.628, 173.156 185.889, 175.649 181 C 178.359 175.685, 178.581 172.724, 176.429 170.571 C 174.284 168.427, 173.289 168.585, 170.588 171.500 C 169.313 172.875, 167.541 174, 166.649 174 C 165.734 174, 164.376 175.558, 163.534 177.572 C 162.125 180.944, 160 181.507, 160 178.508 C 160 177.753, 159.140 176.862, 158.089 176.528 C 155.379 175.668, 153.068 171.731, 150.974 164.410 C 149.978 160.927, 147.747 155.200, 146.016 151.684 C 142.653 144.852, 142.986 147.376, 140.093 106.872 C 139.072 92.581, 137.074 88.011, 128.503 80.364 L 122.500 75.009 113.424 75.004 C 105.062 75, 104.166 75.194, 102.027 77.471 M 193.368 92.484 C 192.330 95.189, 192.482 100.281, 193.613 100.681 C 195.488 101.345, 197.354 95.530, 196.049 93.091 C 194.723 90.614, 194.136 90.481, 193.368 92.484 M 91.602 97.158 C 89.827 99.693, 89.567 101, 90.839 101 C 91.810 101, 94.290 95.957, 93.639 95.306 C 93.400 95.067, 92.483 95.900, 91.602 97.158 M 119 128.866 C 107.689 133.120, 98.130 142.331, 88.750 158.015 C 82.624 168.258, 82 169.804, 82 174.749 C 82 180.819, 84.233 186.519, 87.242 188.129 C 88.424 188.762, 92.908 189.003, 98.361 188.727 C 106.956 188.292, 107.995 187.990, 115.823 183.659 C 120.401 181.126, 126.422 177.242, 129.204 175.027 C 131.985 172.812, 134.851 171, 135.572 171 C 136.292 171, 137.164 170.544, 137.509 169.986 C 138.287 168.727, 136.399 158.859, 134.361 153.534 C 133.526 151.353, 132.956 147.303, 133.093 144.534 C 133.316 140.041, 132.951 136.701, 131.423 129.250 C 131.040 127.380, 130.331 127.015, 127.231 127.087 C 125.179 127.135, 121.475 127.935, 119 128.866 M 92.357 141.488 C 92.671 142.306, 92.472 142.869, 91.914 142.738 C 91.356 142.607, 90.224 144.070, 89.398 145.988 L 87.896 149.476 90.948 146.058 C 94.058 142.575, 94.885 140, 92.893 140 C 92.284 140, 92.043 140.670, 92.357 141.488 M 85.615 152.465 C 83.631 155.492, 83.535 156.631, 85.392 155.090 C 86.606 154.082, 88.314 150, 87.521 150 C 87.361 150, 86.503 151.109, 85.615 152.465 M 78 165.059 C 78 165.641, 78.450 165.840, 79 165.500 C 79.550 165.160, 80 164.684, 80 164.441 C 80 164.198, 79.550 164, 79 164 C 78.450 164, 78 164.477, 78 165.059 M 196.617 195.810 C 195.888 196.990, 197.047 201, 198.117 201 C 199.295 201, 199.254 196.275, 198.069 195.543 C 197.557 195.226, 196.904 195.347, 196.617 195.810 M 188.469 222.050 C 187.519 223.588, 188.820 224.580, 190.104 223.296 C 190.822 222.578, 190.839 222.019, 190.156 221.597 C 189.596 221.251, 188.837 221.455, 188.469 222.050" stroke="none" fill="black" fill-rule="evenodd"/>
</svg>