<svg xmlns="http://www.w3.org/2000/svg" width="300" height="300" viewBox="0 0 300 300" version="1.1">
	<path d="M 107.489 189.014 C 105.627 189.702, 94.243 191.141, 87.500 191.541 C 81.433 191.901, 71.887 194.271, 69.846 195.924 C 68.322 197.158, 67.938 198.229, 68.446 199.829 C 69.347 202.668, 75.280 205.229, 78.284 204.076 C 81.454 202.859, 89.599 201.206, 96 200.479 C 99.025 200.136, 102.271 199.638, 103.213 199.372 C 104.446 199.024, 105.343 199.886, 106.412 202.444 C 107.575 205.227, 108.464 206, 110.500 206 C 112.526 206, 113.424 205.229, 114.557 202.518 C 115.497 200.267, 116.903 198.812, 118.529 198.403 C 119.913 198.056, 126.873 198.757, 133.996 199.962 C 141.118 201.166, 147.428 201.854, 148.017 201.490 C 148.606 201.126, 149.737 201.367, 150.531 202.026 C 151.325 202.684, 153.040 202.956, 154.343 202.629 C 156.418 202.108, 156.792 201.265, 157.360 195.829 C 158.062 189.115, 157.182 187.463, 153.500 188.581 C 151.639 189.146, 142.292 189.131, 118.989 188.526 C 113.757 188.390, 108.582 188.610, 107.489 189.014" stroke="none" fill="black" fill-rule="evenodd"/>
</svg>