<svg xmlns="http://www.w3.org/2000/svg" width="300" height="300" viewBox="0 0 300 300" version="1.1">
	<path d="M 86.500 147.453 C 78.420 149.354, 76.679 150.473, 72.995 156.131 C 69.292 161.816, 66.015 168.462, 65.978 170.359 C 65.966 170.987, 65.076 172.625, 64 174 C 61.253 177.512, 61.528 180.173, 64.980 183.481 L 67.960 186.336 71.480 184.441 C 73.611 183.293, 75 181.794, 75 180.641 C 75 179.593, 75.866 177.333, 76.923 175.618 C 77.981 173.903, 79.819 169.898, 81.007 166.718 C 83.633 159.690, 86.417 157.615, 93.219 157.615 C 97.908 157.615, 98.413 157.877, 101.798 162.058 C 103.776 164.501, 108.175 169.200, 111.574 172.500 C 114.972 175.800, 118.921 180.102, 120.350 182.059 C 121.778 184.017, 124.989 186.639, 127.486 187.886 C 131.607 189.944, 132.619 190.060, 138.492 189.146 C 149.330 187.458, 159.429 180.839, 167.942 169.842 C 170.415 166.648, 170.781 158.893, 168.546 157.039 C 166.617 155.437, 161.359 158.432, 160.569 161.582 C 159.428 166.127, 152.413 173.444, 145.880 176.904 C 136.114 182.076, 134.621 181.507, 121.880 167.756 C 100.561 144.748, 99.815 144.319, 86.500 147.453" stroke="none" fill="black" fill-rule="evenodd"/>
</svg>