<svg xmlns="http://www.w3.org/2000/svg" width="300" height="300" viewBox="0 0 300 300" version="1.1">
	<path d="M 49 98.500 C 49 99.325, 49.675 100, 50.500 100 C 51.325 100, 52 99.325, 52 98.500 C 52 97.675, 51.325 97, 50.500 97 C 49.675 97, 49 97.675, 49 98.500 M 150.328 120.750 C 148.357 122.494, 133 152.517, 133 154.626 C 133 155.237, 131.403 158.833, 129.450 162.618 C 127.498 166.403, 124.531 172.650, 122.857 176.500 C 119.841 183.438, 115.111 193.184, 112.424 198 C 111.657 199.375, 111.023 201.451, 111.015 202.612 C 111.007 203.774, 109.736 207.824, 108.191 211.612 C 106.646 215.401, 104.798 221.200, 104.083 224.500 C 103.368 227.800, 102.157 232.493, 101.391 234.928 C 100.626 237.364, 100 239.996, 100 240.777 C 100 241.558, 99.378 243.616, 98.617 245.349 C 95.526 252.394, 94.802 255.075, 95.375 257.358 C 96.188 260.597, 100.534 263.334, 103.630 262.557 C 106.344 261.876, 107.541 259.414, 108.912 251.701 C 111.767 235.628, 120.206 209.074, 126.041 197.799 C 127.664 194.663, 134.409 179.363, 141.029 163.799 C 147.650 148.234, 154.401 133.574, 156.033 131.221 C 159.688 125.949, 159.760 123.743, 156.365 121.073 C 153.166 118.556, 152.828 118.538, 150.328 120.750 M 129.667 173.667 C 129.300 174.033, 129.014 175.046, 129.030 175.917 C 129.055 177.217, 129.251 177.174, 130.122 175.675 C 131.199 173.823, 130.887 172.447, 129.667 173.667 M 113.079 213.583 C 113.127 214.748, 113.364 214.985, 113.683 214.188 C 113.972 213.466, 113.936 212.603, 113.604 212.271 C 113.272 211.939, 113.036 212.529, 113.079 213.583" stroke="none" fill="black" fill-rule="evenodd"/>
</svg>