<svg xmlns="http://www.w3.org/2000/svg" width="300" height="300" viewBox="0 0 300 300" version="1.1">
	<path d="M 108.878 121.286 C 103.049 126.209, 102.416 131.311, 107.378 133.385 C 109.236 134.161, 111.020 135.224, 111.343 135.746 C 111.666 136.269, 113.634 136.422, 115.715 136.086 C 119.500 135.475, 119.500 135.474, 119.807 130.102 C 120.076 125.385, 119.779 124.378, 117.370 121.864 C 114.098 118.449, 112.376 118.332, 108.878 121.286 M 104.627 185.422 C 102.404 188.336, 102.107 189.502, 102.624 193.272 C 103.302 198.221, 102.475 200.309, 97.339 206.610 C 94.743 209.795, 93.458 210.619, 91.635 210.271 C 88.648 209.699, 87.635 212.033, 89.632 214.885 C 90.807 216.563, 92.156 217, 96.156 217 C 102.393 217, 106.366 215.174, 111.382 209.999 C 114.134 207.161, 115.628 204.468, 116.515 200.748 C 117.203 197.861, 117.912 195.050, 118.091 194.500 C 118.269 193.950, 118.095 191.612, 117.704 189.305 C 116.391 181.550, 109.208 179.417, 104.627 185.422" stroke="none" fill="black" fill-rule="evenodd"/>
</svg>