<svg xmlns="http://www.w3.org/2000/svg" width="300" height="300" viewBox="0 0 300 300" version="1.1">
	<path d="M 128 89.377 C 123.306 90.943, 114.002 95.851, 113.993 96.767 C 113.989 97.170, 112.386 98.590, 110.430 99.922 C 108.474 101.255, 106.289 103.505, 105.574 104.922 C 103.435 109.168, 103.013 115.718, 104.664 119.029 C 107.156 124.024, 109.956 122.655, 111.881 115.500 C 112.668 112.573, 114.237 110.495, 117.728 107.757 C 123.467 103.255, 129.427 100.257, 133.500 99.821 C 136.139 99.539, 136.539 99.839, 136.823 102.315 C 137 103.863, 136.438 106.209, 135.573 107.529 C 134.708 108.850, 134 110.639, 134 111.505 C 134 113.017, 131.394 117.268, 127.872 121.500 C 124.421 125.647, 114.868 145.465, 113.477 151.362 C 112.681 154.738, 112.023 160.245, 112.015 163.600 C 112.001 169.281, 112.217 169.866, 115.158 172.100 C 116.895 173.420, 118.928 175.102, 119.675 175.838 C 122.242 178.367, 130.109 182, 133.018 182 C 136.068 182, 138 179.760, 138 176.224 C 138 174.875, 136.865 173.976, 134.125 173.156 C 131.736 172.440, 128.623 170.230, 126.008 167.392 C 122.009 163.055, 121.792 162.515, 122.227 157.989 C 122.749 152.562, 129.844 136.738, 134.542 130.524 C 139.436 124.051, 143.818 115.789, 146.553 107.875 C 150.215 97.278, 150.267 96.816, 148.170 93.448 C 146.549 90.844, 145.315 90.220, 139.770 89.198 C 132.342 87.829, 132.656 87.824, 128 89.377 M 119.798 209.093 C 117.761 211.289, 116.306 213.628, 116.563 214.292 C 117.238 216.034, 122.784 219, 125.365 219 C 128.039 219, 131 214.426, 131 210.297 C 131 207.926, 130.399 207.184, 127.679 206.201 C 125.852 205.540, 124.165 205.023, 123.929 205.051 C 123.693 205.079, 121.834 206.898, 119.798 209.093" stroke="none" fill="black" fill-rule="evenodd"/>
</svg>