<svg xmlns="http://www.w3.org/2000/svg" width="300" height="300" viewBox="0 0 300 300" version="1.1">
	<path d="M 138 80.906 C 136.625 81.379, 133.224 82.450, 130.442 83.284 C 123.792 85.280, 113.091 93.296, 109.146 99.238 C 107.416 101.844, 106 104.328, 106 104.756 C 106 105.185, 104.950 107.103, 103.667 109.018 C 102.384 110.933, 100.119 115.875, 98.633 120 C 94.233 132.219, 93.283 155.816, 97.002 160.500 C 97.439 161.050, 98.475 163.750, 99.306 166.500 C 102.638 177.534, 104.698 180.962, 113.566 190.223 C 118.194 195.056, 120.820 196.201, 130.431 197.576 C 133.144 197.964, 136.838 199.152, 138.640 200.215 C 143.196 202.903, 152.941 202.861, 159.257 200.125 C 166.721 196.892, 174.950 190.828, 181.750 183.547 C 187.149 177.766, 188 176.338, 188 173.050 C 188 168.934, 186.764 167.418, 183.260 167.240 C 181.643 167.158, 179.775 168.744, 176.541 172.947 C 174.077 176.149, 169.685 180.499, 166.781 182.614 C 161.686 186.324, 160.090 187.328, 154.335 190.442 C 151.705 191.865, 147.525 191.692, 143.500 189.994 C 142.400 189.530, 140.375 188.915, 139 188.627 C 137.625 188.338, 133.221 187.270, 129.213 186.253 C 122.204 184.473, 121.784 184.195, 118.209 178.951 C 114.048 172.849, 113.065 170.892, 110.195 163 C 109.095 159.975, 107.518 155.684, 106.691 153.465 C 105.490 150.241, 105.340 147.125, 105.942 137.965 C 106.611 127.777, 107.164 125.330, 110.906 116 C 114.387 107.321, 115.968 104.693, 120.025 100.845 C 127.156 94.081, 136.097 89.827, 143 89.913 C 150.365 90.004, 161.009 93.855, 165.041 97.887 C 169.056 101.902, 171.390 101.632, 171.824 97.103 C 172.298 92.149, 171.254 89, 169.136 89 C 168.132 89, 166.517 88.123, 165.547 87.052 C 161.918 83.042, 143.642 78.964, 138 80.906" stroke="none" fill="black" fill-rule="evenodd"/>
</svg>