<svg xmlns="http://www.w3.org/2000/svg" width="300" height="300" viewBox="0 0 300 300" version="1.1">
	<path d="M 95.507 120.812 C 94.918 123.956, 95.185 124.763, 97.468 126.726 C 98.922 127.977, 100.706 129, 101.433 129 C 102.160 129, 103.306 129.664, 103.980 130.476 C 104.654 131.288, 107.972 133.339, 111.353 135.034 C 114.734 136.729, 119.128 139.102, 121.117 140.308 C 129.113 145.155, 137.763 149.959, 142.488 152.177 C 145.232 153.465, 147.609 155.210, 147.772 156.055 C 147.939 156.923, 145.769 159.460, 142.784 161.887 C 135.362 167.923, 124.889 177.242, 115.906 185.805 C 109.829 191.598, 108.121 193.867, 107.650 196.772 C 106.977 200.915, 109.240 205.594, 111.294 204.310 C 111.957 203.895, 113.175 203.463, 114 203.348 C 114.825 203.234, 116.625 201.656, 118 199.842 C 123.090 193.126, 142.230 175.514, 149.097 171.227 C 151.519 169.716, 154.400 167.908, 155.500 167.211 C 156.600 166.513, 158.777 165.168, 160.338 164.221 C 163.001 162.606, 168 153.587, 168 150.399 C 168 148.383, 163.303 145.687, 160.890 146.318 C 159.732 146.621, 156.695 145.938, 154.142 144.799 C 142.277 139.509, 140.302 138.510, 137.406 136.329 C 135.704 135.048, 133.812 134, 133.201 134 C 132.234 134, 119.568 126.992, 113.321 123 C 112.123 122.234, 110.677 120.588, 110.109 119.341 C 109.187 117.317, 108.383 117.079, 102.633 117.123 L 96.190 117.172 95.507 120.812" stroke="none" fill="black" fill-rule="evenodd"/>
</svg>