<svg xmlns="http://www.w3.org/2000/svg" width="300" height="300" viewBox="0 0 300 300" version="1.1">
	<path d="M 138.107 63.900 C 131.910 70.492, 128 75.529, 128 76.922 C 128 77.554, 127.283 79.164, 126.408 80.501 C 124.423 83.529, 124.045 107.630, 125.419 143.500 C 125.925 156.700, 126.270 168.512, 126.187 169.750 C 125.711 176.831, 126.659 188.495, 127.900 190.814 C 128.504 191.942, 130.011 193.173, 131.249 193.549 C 132.487 193.926, 134.448 195.392, 135.607 196.807 C 137.658 199.311, 137.820 199.340, 141.607 197.903 C 144.220 196.911, 145.602 195.722, 145.810 194.285 C 145.981 193.108, 146.768 191.607, 147.560 190.950 C 148.352 190.293, 149 188.155, 149 186.199 C 149 184.242, 149.447 181.260, 149.994 179.571 C 151.928 173.596, 156.201 155.419, 157.063 149.500 C 157.543 146.200, 158.392 131.125, 158.950 116 C 159.508 100.875, 160.191 85.350, 160.468 81.500 C 160.861 76.027, 160.593 73.819, 159.236 71.381 C 158.281 69.666, 156.508 66.461, 155.295 64.260 C 153.064 60.209, 150.903 59.039, 145.607 59.014 C 143.428 59.003, 141.578 60.208, 138.107 63.900 M 135.213 228.459 C 130.098 231.283, 127.999 234.197, 128.035 238.424 C 128.077 243.169, 129.464 246.020, 133.132 248.896 C 136.980 251.913, 140.436 252.978, 143.618 252.127 C 148.943 250.703, 153.413 234.248, 149.384 230.904 C 147.464 229.311, 141.123 226.996, 139 227.113 C 138.175 227.159, 136.471 227.764, 135.213 228.459" stroke="none" fill="black" fill-rule="evenodd"/>
</svg>