<svg xmlns="http://www.w3.org/2000/svg" width="300" height="300" viewBox="0 0 300 300" version="1.1">
	<path d="M 112.782 109.950 C 107.691 111.765, 104 114.549, 104 116.574 C 104 117.269, 103.254 119.137, 102.343 120.725 C 99.616 125.476, 101.071 128.311, 108.245 132.219 C 111.888 134.203, 116.170 135.714, 118.500 135.837 C 123.047 136.076, 124.257 134.786, 126.509 127.305 C 127.655 123.494, 127.630 122.107, 126.330 117.676 C 124.674 112.029, 121.553 107.923, 119.076 108.134 C 118.209 108.207, 115.377 109.024, 112.782 109.950 M 123.647 150.376 C 122.077 150.971, 119.233 152.931, 117.325 154.729 C 114.601 157.299, 113.001 158, 109.863 158 C 105.504 158, 102 159.424, 102 161.196 C 102 161.815, 103.449 163.615, 105.219 165.195 C 107.541 167.268, 109.283 167.990, 111.469 167.785 L 114.500 167.500 115.374 187.500 C 115.854 198.500, 116.304 211.325, 116.374 216 L 116.500 224.500 109.665 224.315 L 102.830 224.129 100.842 228.624 C 98.509 233.899, 99.457 236, 104.172 236 C 105.782 236, 108.431 236.689, 110.059 237.530 C 112.351 238.716, 113.490 238.808, 115.111 237.940 C 116.263 237.324, 118.148 237.067, 119.302 237.369 C 120.455 237.670, 124.083 237.036, 127.364 235.958 C 130.646 234.881, 135.099 234, 137.261 234 C 144.326 234, 150.252 227.424, 148.156 221.911 C 147.273 219.587, 146.837 219.466, 140.009 219.665 C 134.851 219.815, 132.262 220.358, 130.919 221.573 C 128.475 223.785, 128.256 223.076, 127.659 211 C 127.400 205.775, 126.630 196.010, 125.946 189.300 C 124.595 176.033, 125.564 166.771, 128.530 164.602 C 129.563 163.846, 130.143 161.547, 130.286 157.638 C 130.465 152.748, 130.175 151.598, 128.500 150.547 C 126.999 149.606, 125.788 149.563, 123.647 150.376" stroke="none" fill="black" fill-rule="evenodd"/>
</svg>