<svg xmlns="http://www.w3.org/2000/svg" width="300" height="300" viewBox="0 0 300 300" version="1.1">
	<path d="M 118 90.433 C 116.075 91.144, 110.394 93.788, 105.376 96.309 C 95.857 101.092, 94.223 102.647, 85.266 115.449 C 80.709 121.961, 68 146.862, 68 149.278 C 68 150.085, 67.036 152.925, 65.858 155.588 C 64.278 159.160, 63.699 162.538, 63.649 168.465 C 63.480 188.646, 69.808 203.423, 79.942 206.512 C 81.285 206.922, 85.194 208.976, 88.627 211.078 C 93.283 213.928, 96.603 215.137, 101.685 215.833 C 109.545 216.910, 123.676 216.572, 129.500 215.169 C 137.596 213.217, 147.471 208.960, 149.572 206.514 C 150.760 205.132, 152.036 204, 152.407 204 C 152.778 204, 154.413 203.015, 156.040 201.812 C 160.436 198.562, 160.167 194.385, 155.434 192.408 C 152.132 191.028, 151.628 191.067, 148.618 192.927 C 146.831 194.032, 144.541 195.850, 143.529 196.968 C 142.518 198.085, 141.233 199, 140.674 199 C 140.115 199, 138.947 199.602, 138.079 200.339 C 134.986 202.962, 125.451 204.987, 114.500 205.347 C 104.127 205.687, 103.151 205.546, 97.383 202.866 C 94.018 201.303, 90.700 199.344, 90.010 198.512 C 89.320 197.680, 88.023 196.998, 87.128 196.996 C 83.952 196.989, 79.244 193.135, 77.172 188.848 C 75.447 185.279, 75.020 182.261, 74.785 172 C 74.475 158.404, 74.541 158.119, 81.125 144.463 C 83.256 140.042, 85 135.903, 85 135.266 C 85 134.628, 86.034 132.170, 87.298 129.803 C 95.415 114.606, 104.096 105.107, 112.319 102.425 C 115.169 101.496, 118.032 100.316, 118.681 99.802 C 119.721 98.981, 125.948 98.587, 132.771 98.911 C 134.020 98.970, 136.714 99.915, 138.756 101.009 C 140.799 102.104, 143.020 103, 143.692 103 C 144.909 103, 150.419 108.012, 154.974 113.261 C 158.175 116.950, 159.439 125.166, 159.398 142 C 159.360 157.414, 158.091 162.582, 152.465 170.250 C 148.371 175.831, 146.188 176.201, 142.589 171.923 C 139.541 168.301, 139.250 163.231, 141.500 153 C 143.707 142.965, 143.432 138.231, 140.386 133.835 C 137.044 129.012, 134.899 128.388, 129.152 130.565 C 119.406 134.256, 115.259 137.858, 111.915 145.537 C 110.726 148.266, 109.152 151.191, 108.416 152.036 C 106.821 153.866, 103.031 165.569, 103.013 168.719 C 102.993 172.099, 106.639 178.357, 110.132 180.940 C 112.766 182.887, 114.037 183.156, 118.254 182.656 C 121.003 182.331, 124.305 181.375, 125.591 180.532 C 128.566 178.583, 130.417 178.592, 132.055 180.566 C 134.285 183.254, 138.719 185.001, 144.962 185.654 C 150.312 186.213, 151.398 186.002, 154.809 183.745 C 158.722 181.156, 166 170.349, 166 167.128 C 166 166.178, 166.563 164.838, 167.250 164.151 C 168.177 163.224, 168.500 157.028, 168.500 140.201 L 168.500 117.500 165 111.097 C 163.075 107.575, 160.207 103.392, 158.627 101.801 C 155.953 99.108, 144.133 93, 141.597 93 C 140.977 93, 138.791 92.100, 136.739 91 C 132.395 88.672, 123.499 88.403, 118 90.433 M 122.465 146.028 C 116.305 150.923, 112.507 161.114, 114.317 167.893 C 115.223 171.286, 115.839 172, 117.862 172 C 119.209 172, 121.816 170.852, 123.656 169.449 C 126.698 167.129, 127 166.425, 127 161.659 C 127 158.778, 127.679 153.814, 128.509 150.628 C 130.732 142.092, 129.039 140.803, 122.465 146.028" stroke="none" fill="black" fill-rule="evenodd"/>
</svg>