<svg xmlns="http://www.w3.org/2000/svg" width="300" height="300" viewBox="0 0 300 300" version="1.1">
	<path d="M 103.019 113.477 C 102.324 114.315, 101.135 115, 100.378 115 C 97.794 115, 98.917 118.723, 101.870 119.946 C 103.449 120.600, 105.245 122.243, 105.862 123.596 C 106.479 124.950, 108.562 126.989, 110.492 128.128 C 112.421 129.266, 114 130.828, 114 131.599 C 114 132.369, 114.824 133, 115.832 133 C 116.840 133, 123.875 139.100, 131.465 146.556 C 140.349 155.282, 145.782 159.914, 146.715 159.556 C 147.512 159.250, 148.991 159, 150.002 159 C 155.229 159, 151.192 143.345, 145.307 140.791 C 143.763 140.121, 141.375 138.412, 140 136.994 C 137.102 134.004, 126.931 126.084, 119 120.642 C 115.975 118.566, 112.375 116.035, 111 115.016 C 107.279 112.261, 104.477 111.720, 103.019 113.477 M 117 128.429 C 117 128.664, 117.711 129.568, 118.581 130.438 C 120.515 132.373, 122.620 131.452, 120.926 129.411 C 119.858 128.124, 117 127.409, 117 128.429" stroke="none" fill="black" fill-rule="evenodd"/>
</svg>