<svg xmlns="http://www.w3.org/2000/svg" width="300" height="300" viewBox="0 0 300 300" version="1.1">
	<path d="M 63.605 114.941 C 58.330 117.950, 55.058 121.480, 55.022 124.203 C 54.978 127.612, 57.315 130.838, 61.049 132.522 C 64.766 134.198, 64.964 134.185, 68.435 132.040 C 73.566 128.869, 75 126.312, 75 120.334 C 75 116.073, 74.592 114.827, 72.777 113.557 C 69.907 111.546, 69.433 111.618, 63.605 114.941 M 109.032 148.690 C 106.294 150.608, 95.186 150.834, 79.500 149.291 C 69.997 148.357, 29.909 149.954, 26.798 151.391 C 24.677 152.371, 22.639 158.288, 23.494 160.982 C 24.342 163.653, 28.609 164.620, 32.426 163.006 C 35.797 161.582, 52.584 160.238, 69 160.078 C 79.848 159.972, 86.242 160.443, 94 161.917 C 98.624 162.795, 102.163 162.648, 110 161.251 L 114.500 160.450 115.111 155.475 C 115.565 151.780, 115.332 150.050, 114.206 148.750 C 112.336 146.591, 112.034 146.588, 109.032 148.690 M 64.957 180.637 C 60.392 184.907, 60.001 185.639, 60.015 189.887 C 60.033 195.069, 60.326 195.667, 64.385 198.784 C 68.799 202.175, 72.158 201.674, 76.384 196.997 C 80.879 192.021, 81.128 187.842, 77.341 180.885 C 73.865 174.498, 71.569 174.452, 64.957 180.637" stroke="none" fill="black" fill-rule="evenodd"/>
</svg>