<svg xmlns="http://www.w3.org/2000/svg" width="300" height="300" viewBox="0 0 300 300" version="1.1">
	<path d="M 166.546 127.787 C 166.167 128.166, 154.715 128.557, 141.097 128.654 C 114.631 128.844, 108 129.706, 108 132.957 C 108 133.991, 107.739 135.518, 107.419 136.351 C 106.371 139.081, 112.113 141.154, 117.700 140.063 C 120.340 139.548, 133.075 138.836, 146 138.482 C 167.082 137.904, 169.834 137.632, 172.750 135.838 C 176.097 133.777, 176.946 130.988, 174.750 129.263 C 173.071 127.944, 167.408 126.925, 166.546 127.787 M 150.500 178.043 C 144.450 178.474, 137.700 179.241, 135.500 179.747 C 133.300 180.253, 128.800 180.330, 125.500 179.918 C 114.398 178.531, 107.465 178.824, 105.773 180.750 C 103.155 183.731, 102.807 186.540, 104.756 188.947 C 106.860 191.545, 108.582 191.669, 127.500 190.584 C 134.650 190.174, 141.625 189.835, 143 189.831 C 144.375 189.827, 145.963 189.440, 146.529 188.972 C 149.356 186.636, 160.542 188.981, 161.538 192.119 C 162.026 193.658, 162.894 194.044, 165.335 193.807 L 168.500 193.500 168.792 186.907 C 169.217 177.324, 168.110 176.788, 150.500 178.043" stroke="none" fill="black" fill-rule="evenodd"/>
</svg>