<svg xmlns="http://www.w3.org/2000/svg" width="300" height="300" viewBox="0 0 300 300" version="1.1">
	<path d="M 118.853 100.789 C 115.252 102.974, 114.950 105.956, 114.529 143.500 C 114.468 149, 113.896 157.325, 113.258 162 C 111.550 174.526, 111.011 242.210, 112.569 248.419 C 113.316 251.396, 118.532 253.634, 120.641 251.883 C 122.326 250.484, 124.324 243.286, 123.571 241.324 C 122.803 239.322, 122.669 173.126, 123.427 170 C 124.806 164.314, 126.037 148.651, 126.101 136.001 C 126.138 128.577, 126.600 121.982, 127.128 121.345 C 127.656 120.709, 128.208 116.499, 128.355 111.989 C 128.576 105.206, 128.297 103.375, 126.738 101.395 C 124.583 98.655, 122.619 98.504, 118.853 100.789" stroke="none" fill="black" fill-rule="evenodd"/>
</svg>