<svg xmlns="http://www.w3.org/2000/svg" width="300" height="300" viewBox="0 0 300 300" version="1.1">
	<path d="M 86.916 111.331 C 85.495 111.974, 83.550 113.287, 82.595 114.250 C 81.639 115.213, 80.024 116, 79.006 116 C 77.221 116, 75.373 118.574, 67.500 132.033 C 62.565 140.469, 61.515 141.549, 59.310 140.458 C 58.246 139.931, 52.304 134.100, 46.107 127.500 C 39.910 120.900, 34.163 115.119, 33.337 114.654 C 31.369 113.546, 27 117.566, 27 120.484 C 27 122.996, 39.921 139, 41.949 139 C 42.377 139, 44.006 140.912, 45.567 143.250 C 47.129 145.588, 49.306 148.246, 50.406 149.157 C 52.384 150.796, 52.366 150.874, 48.784 156.157 C 46.792 159.096, 42.648 164.875, 39.574 169 C 36.501 173.125, 32.597 179.312, 30.899 182.749 C 29.202 186.186, 27.405 189.250, 26.906 189.558 C 25.569 190.384, 25.805 194.593, 27.256 195.797 C 27.946 196.370, 29.646 197.124, 31.032 197.472 C 34.245 198.278, 37.320 195.191, 39.499 188.972 C 41.229 184.034, 50.672 169.336, 55.383 164.250 C 57.038 162.463, 59.179 161, 60.141 161 C 61.103 161, 63.951 163.588, 66.469 166.750 C 68.987 169.912, 73.561 175.014, 76.634 178.087 C 79.706 181.160, 83.633 186.332, 85.360 189.582 C 88.475 195.444, 92.608 198.748, 95.457 197.655 C 96.192 197.373, 97.099 194.915, 97.473 192.193 C 98.120 187.495, 97.948 186.972, 94.081 181.872 C 91.841 178.917, 90.007 176.003, 90.004 175.395 C 90.002 174.788, 84.825 169.014, 78.500 162.564 C 72.175 156.115, 67.003 150.537, 67.007 150.169 C 67.011 149.801, 69.708 146.125, 73 142 C 76.292 137.875, 79.002 134.050, 79.022 133.500 C 79.043 132.950, 81.953 129.380, 85.490 125.567 C 92.100 118.442, 94.116 114.050, 91.966 111.459 C 90.567 109.773, 90.372 109.768, 86.916 111.331" stroke="none" fill="black" fill-rule="evenodd"/>
</svg>