<svg xmlns="http://www.w3.org/2000/svg" width="300" height="300" viewBox="0 0 300 300" version="1.1">
	<path d="M 133.848 84.166 C 131.840 85.214, 127.924 86.340, 125.147 86.669 C 119.583 87.328, 116.238 89.943, 115.776 93.995 C 115.559 95.900, 116.247 96.777, 119 98.106 C 121.497 99.310, 123.024 99.515, 124.328 98.820 C 128.781 96.447, 128.999 97.533, 129.020 122.219 C 129.031 135.023, 129.474 148.425, 130.004 152 C 130.534 155.575, 131.232 170.650, 131.554 185.500 C 131.877 200.350, 132.533 215.650, 133.012 219.500 C 133.492 223.350, 133.572 226.785, 133.192 227.133 C 132.272 227.974, 117.413 229.829, 113.070 229.645 C 110.172 229.523, 109.337 230.016, 107.680 232.832 C 105.722 236.162, 105.722 236.166, 107.821 238.266 C 110.728 241.173, 120.448 241.864, 126.408 239.588 C 128.933 238.624, 133.412 237.964, 137.123 238.010 C 140.631 238.053, 147.100 237.731, 151.500 237.294 L 159.500 236.500 159.805 233.358 C 160.249 228.787, 155.521 225.520, 149.631 226.327 C 146.183 226.800, 145.205 226.558, 144.228 224.993 C 143.444 223.738, 142.836 215.265, 142.457 200.291 C 142.139 187.756, 141.455 174.575, 140.937 171 C 140.419 167.425, 139.565 152.350, 139.039 137.500 C 138.262 115.532, 138.344 109.029, 139.483 102.609 C 140.253 98.269, 141.359 94.241, 141.941 93.659 C 142.524 93.076, 143 90.488, 143 87.907 C 143 81.485, 140.751 80.565, 133.848 84.166" stroke="none" fill="black" fill-rule="evenodd"/>
</svg>