<svg xmlns="http://www.w3.org/2000/svg" width="300" height="300" viewBox="0 0 300 300" version="1.1">
	<path d="M 96.703 126.524 C 95.164 127.878, 92.689 129.274, 91.203 129.627 C 87.968 130.395, 85 132.797, 85 134.648 C 85 135.570, 86.254 135.936, 89.035 135.828 C 91.254 135.741, 93.527 136.127, 94.085 136.685 C 95.218 137.818, 95.868 198.786, 94.766 200.569 C 94.404 201.155, 94.724 203.422, 95.477 205.608 C 96.739 209.271, 97.693 229.211, 97.100 239.534 L 96.869 243.569 90.184 244.807 C 81.205 246.470, 77.606 250.524, 81.767 254.289 C 83.857 256.180, 88.009 256.424, 105.573 255.683 C 116.610 255.217, 119.533 254.739, 124.336 252.615 C 130.680 249.809, 131.553 248.585, 130.042 244.611 C 129.049 241.998, 128.793 241.910, 124.251 242.612 C 121.638 243.016, 117.700 243.354, 115.500 243.362 C 111.686 243.375, 111.498 243.230, 111.466 240.232 C 111.446 238.426, 110.513 236.111, 109.274 234.791 C 107.357 232.751, 107.097 231.251, 106.939 221.345 C 106.841 215.213, 107.026 209.767, 107.349 209.244 C 107.720 208.644, 109.954 208.640, 113.393 209.233 C 117.809 209.994, 120.340 209.792, 126.675 208.177 C 130.979 207.080, 137.163 205.643, 140.418 204.985 C 145.739 203.909, 146.927 203.169, 152.194 197.644 C 160.410 189.026, 162.416 182.276, 161.744 165.513 C 161.126 150.097, 159.219 145.841, 149.337 137.819 C 141.375 131.357, 138.948 129.970, 133.500 128.766 C 125.881 127.083, 122.466 127.041, 115.189 128.538 C 111.168 129.366, 107.455 129.781, 106.939 129.462 C 106.423 129.143, 106 127.784, 106 126.441 C 106 124.347, 105.538 124.004, 102.750 124.032 C 100.756 124.051, 98.419 125.014, 96.703 126.524 M 119.165 139.185 C 114.397 139.999, 109 142.620, 109 144.121 C 109 144.710, 107.999 146.598, 106.775 148.317 C 104.613 151.352, 104.555 152.107, 104.748 174.465 C 104.972 200.319, 104.689 199.381, 112.600 200.567 C 117.130 201.247, 125.395 199.720, 129.895 197.372 C 131.328 196.624, 133.175 196.008, 134 196.002 C 136.232 195.988, 142.021 192.212, 146.092 188.115 C 150.054 184.129, 150.746 182.124, 151.992 171.037 C 153.424 158.289, 149.845 151.130, 137.980 143.014 C 132.062 138.966, 126.764 137.887, 119.165 139.185" stroke="none" fill="black" fill-rule="evenodd"/>
</svg>