<svg xmlns="http://www.w3.org/2000/svg" width="300" height="300" viewBox="0 0 300 300" version="1.1">
	<path d="M 151.721 87.182 C 142.965 89.528, 131.957 96.126, 127.284 101.829 C 122.838 107.255, 121.883 111.787, 121.717 128.243 C 121.583 141.569, 122.169 143.015, 129.937 148.500 C 133.552 151.053, 135.052 151.484, 140.001 151.392 C 143.263 151.332, 148.703 150.265, 152.394 148.962 C 156.013 147.685, 159.178 146.845, 159.428 147.095 C 160.248 147.914, 161.985 160.383, 161.993 165.500 C 161.997 168.250, 162.901 176.017, 164.001 182.760 C 165.977 194.871, 165.978 195.105, 164.097 201.893 C 162.368 208.133, 162.337 208.908, 163.760 210.332 C 165.023 211.595, 165.087 212.190, 164.090 213.392 C 163.097 214.588, 163.157 215.541, 164.390 218.192 C 165.236 220.011, 166.057 223.975, 166.214 227 L 166.500 232.500 170.808 233.075 C 176.137 233.786, 177.517 231.931, 176.534 225.379 C 176.027 221.996, 175.085 220.355, 172.438 218.243 C 168.561 215.149, 168.138 214, 170.878 214 C 171.911 214, 174.386 213.319, 176.378 212.487 C 179.390 211.228, 180 210.472, 180 207.997 C 180 206.361, 179.100 202.654, 178.001 199.761 C 176.901 196.867, 176.001 192.771, 176.001 190.657 C 176 188.543, 175.059 182.243, 173.909 176.657 C 172.077 167.760, 171.876 164.081, 172.291 147 C 172.589 134.726, 173.557 122.080, 174.903 112.872 C 176.348 102.997, 176.746 97.473, 176.128 95.872 C 175.155 93.348, 166.269 87.484, 161.414 86.160 C 159.478 85.632, 156.225 85.975, 151.721 87.182 M 158.676 89.402 C 157.913 91.390, 158.850 92, 162.667 92 C 166.637 92, 166.978 90.767, 163.453 89.161 C 160.151 87.656, 159.330 87.698, 158.676 89.402 M 147.500 94 C 146.181 94.567, 146.011 94.878, 147 94.914 C 147.825 94.945, 149.175 94.533, 150 94 C 151.828 92.819, 150.249 92.819, 147.500 94 M 206.700 93.750 C 206.470 94.162, 206.220 96.449, 206.145 98.832 C 205.953 104.899, 208.403 103.830, 208.805 97.672 C 209.073 93.568, 207.958 91.493, 206.700 93.750 M 153 94.652 C 149.798 95.707, 146.369 97.493, 143.330 99.689 C 141.586 100.949, 140.008 101.523, 139.822 100.965 C 139.636 100.407, 137.912 101.276, 135.992 102.896 C 132.877 105.524, 132.636 106.066, 133.758 107.921 C 134.559 109.243, 134.698 110.637, 134.140 111.750 C 130.644 118.727, 129.814 126.018, 131.538 134.593 C 132.131 137.539, 136.542 141.676, 139.774 142.317 C 143.298 143.015, 155.806 138.225, 157.597 135.492 C 158.329 134.374, 159.411 129.194, 160 123.980 C 160.590 118.766, 161.778 112.025, 162.640 109 C 164.971 100.825, 164.911 98.559, 162.354 98.194 C 161.174 98.026, 159.417 97.013, 158.449 95.944 C 156.671 93.979, 155.724 93.755, 153 94.652 M 203.197 116.899 C 201.557 121.557, 201.654 130.468, 203.361 131.885 C 204.476 132.810, 204.831 131.884, 205.325 126.757 C 205.657 123.316, 205.583 118.925, 205.162 117 L 204.395 113.500 203.197 116.899 M 124.500 122 C 124.160 122.550, 124.584 123, 125.441 123 C 126.298 123, 127 122.550, 127 122 C 127 121.450, 126.577 121, 126.059 121 C 125.541 121, 124.840 121.450, 124.500 122 M 124.574 128.862 C 124.029 130.513, 124.276 131.705, 125.397 132.826 C 127.211 134.639, 127.400 133.571, 126.077 129 L 125.353 126.500 124.574 128.862 M 230.639 140.694 C 229.444 141.889, 229.994 144, 231.500 144 C 232.325 144, 233 143.352, 233 142.559 C 233 140.888, 231.573 139.761, 230.639 140.694 M 173.390 200.427 C 172.597 202.493, 173.329 206.500, 174.500 206.500 C 175.050 206.500, 175.640 204.813, 175.810 202.750 C 176.117 199.045, 174.511 197.504, 173.390 200.427" stroke="none" fill="black" fill-rule="evenodd"/>
</svg>