<svg xmlns="http://www.w3.org/2000/svg" width="300" height="300" viewBox="0 0 300 300" version="1.1">
	<path d="M 147.415 150.985 C 146.873 151.527, 140.413 152.275, 133.059 152.647 C 122.078 153.203, 118.952 153.715, 115.568 155.515 C 113.302 156.720, 109.289 158.029, 106.652 158.425 C 101.232 159.238, 97.712 162.019, 98.676 164.727 C 100.124 168.795, 104.733 172.019, 110.643 173.098 C 113.864 173.687, 117.429 175.030, 118.564 176.084 C 121.247 178.574, 122.536 178.501, 124.463 175.750 C 125.815 173.820, 126.938 173.500, 132.368 173.500 C 135.882 173.500, 139.861 174.123, 141.315 174.901 C 143.250 175.937, 144.279 176.013, 145.266 175.195 C 145.999 174.586, 148.501 173.784, 150.825 173.412 C 154.082 172.891, 155.481 173.125, 156.926 174.433 C 158.913 176.231, 158.807 176.295, 161.710 171.500 C 165.056 165.972, 165.334 164.922, 164.421 161.227 C 163.839 158.872, 162.669 157.135, 161.241 156.509 C 159.998 155.964, 158.752 154.795, 158.472 153.911 C 157.492 150.825, 149.650 148.750, 147.415 150.985" stroke="none" fill="black" fill-rule="evenodd"/>
</svg>