<svg xmlns="http://www.w3.org/2000/svg" width="300" height="300" viewBox="0 0 300 300" version="1.1">
	<path d="M 100.440 108.066 C 99.030 109.624, 98.632 111.406, 98.822 115.316 C 98.960 118.167, 99.191 125.450, 99.335 131.500 C 99.621 143.490, 101.631 152.075, 104.922 155.366 C 106.695 157.140, 107.221 157.220, 109.412 156.047 C 110.777 155.316, 112.109 154.158, 112.373 153.472 C 112.636 152.786, 111.985 148.259, 110.926 143.413 C 109.587 137.288, 109 130.720, 109 121.872 C 109 111.633, 108.693 108.835, 107.429 107.571 C 105.275 105.417, 102.670 105.602, 100.440 108.066 M 62.302 114.250 C 59.678 117.135, 58.997 121.078, 60.217 126.328 C 60.751 128.623, 61.295 133.425, 61.427 137 C 62.219 158.485, 65.082 165.317, 71.368 160.720 C 72.894 159.604, 73.113 157.653, 73.075 145.470 C 73.052 137.787, 72.595 128.125, 72.060 124 C 71.525 119.875, 71.068 116.195, 71.044 115.821 C 70.954 114.439, 67.801 112, 66.103 112 C 65.138 112, 63.428 113.013, 62.302 114.250" stroke="none" fill="black" fill-rule="evenodd"/>
</svg>