<svg xmlns="http://www.w3.org/2000/svg" width="300" height="300" viewBox="0 0 300 300" version="1.1">
	<path d="M 54.500 60.672 C 49.651 61.739, 46.873 63.469, 44.912 66.643 C 43.753 68.517, 43.081 70.769, 43.418 71.647 C 43.755 72.525, 42.857 75.722, 41.424 78.753 C 38.934 84.016, 38.861 84.644, 39.802 92.716 C 40.636 99.870, 41.216 101.616, 43.581 104.084 C 45.117 105.688, 47.135 107, 48.065 107 C 48.994 107, 50.265 107.615, 50.888 108.366 C 51.512 109.117, 54.034 110.007, 56.494 110.344 C 60.046 110.831, 62.257 110.405, 67.233 108.276 C 75.989 104.530, 78.811 102.251, 81.818 96.500 C 86.931 86.719, 84.514 73.442, 75.854 63.744 L 72.500 59.987 64.500 60.110 C 60.100 60.177, 55.600 60.430, 54.500 60.672 M 53.175 72.942 C 48.570 80.150, 48 81.602, 48 86.122 C 48 90.873, 51.205 96.568, 54.500 97.674 C 55.600 98.043, 58.418 98.392, 60.761 98.449 C 64.526 98.541, 65.516 98.050, 69.261 94.234 C 73.421 89.996, 73.500 89.785, 73.500 83.006 C 73.500 76.366, 73.353 75.946, 69.735 72.240 C 66.370 68.794, 65.445 68.385, 61.029 68.385 C 56.256 68.385, 55.988 68.540, 53.175 72.942" stroke="none" fill="black" fill-rule="evenodd"/>
</svg>