<svg xmlns="http://www.w3.org/2000/svg" width="300" height="300" viewBox="0 0 300 300" version="1.1">
	<path d="M 138.249 147.048 C 131.669 151.888, 131.316 157.178, 137.327 160.893 C 140.340 162.755, 143 166.577, 143 169.044 C 143 170.613, 135.876 178, 134.362 178 C 133.589 178, 132.453 179.107, 131.837 180.459 C 130.939 182.428, 131.048 183.424, 132.381 185.459 C 135.672 190.481, 140.903 188.226, 149.856 177.927 L 156.161 170.673 155.658 165.086 C 155.053 158.366, 153.529 149.178, 152.931 148.644 C 152.533 148.288, 142.965 144, 142.570 144 C 142.473 144, 140.529 145.372, 138.249 147.048" stroke="none" fill="black" fill-rule="evenodd"/>
</svg>