<svg xmlns="http://www.w3.org/2000/svg" width="300" height="300" viewBox="0 0 300 300" version="1.1">
	<path d="M 92.619 117.034 C 86.118 118.981, 82.489 126.671, 86.500 130 C 87.325 130.685, 88 132.730, 88 134.546 C 88 139.424, 91.748 143.301, 98.018 144.908 C 103.076 146.204, 103.282 146.172, 105.748 143.706 C 107.879 141.576, 108.403 139.848, 109.045 132.837 C 109.686 125.847, 109.533 124.016, 108.100 121.502 C 105.229 116.468, 99.772 114.893, 92.619 117.034 M 85.009 209.638 C 82.010 212.817, 81.527 214.057, 81.183 219.470 C 80.790 225.642, 80.803 225.676, 84.662 228.732 C 88.256 231.579, 91.099 232.374, 96.730 232.106 C 98.268 232.033, 99.586 230.772, 100.980 228.040 C 103.400 223.296, 103.539 219.226, 101.452 214.232 C 97.613 205.043, 91.067 203.215, 85.009 209.638" stroke="none" fill="black" fill-rule="evenodd"/>
</svg>