<svg xmlns="http://www.w3.org/2000/svg" width="300" height="300" viewBox="0 0 300 300" version="1.1">
	<path d="M 122.644 84.850 L 119.913 87.700 119.917 121.600 C 119.922 153.920, 120.920 174.239, 122.948 183.263 C 123.458 185.534, 123.684 187.702, 123.451 188.080 C 123.217 188.458, 123.474 192.082, 124.022 196.134 C 126.949 217.782, 127.663 224.839, 127.259 228.115 C 126.870 231.267, 127.215 232.017, 129.948 233.963 C 132.004 235.427, 133.880 235.996, 135.398 235.615 C 137.402 235.112, 137.797 234.218, 138.349 228.938 C 138.741 225.183, 138.564 222.054, 137.888 220.791 C 137.284 219.663, 135.945 210.586, 134.911 200.620 C 133.877 190.654, 132.358 176.200, 131.536 168.500 C 129.831 152.523, 129.491 112.956, 130.992 105.042 C 132.792 95.549, 132.585 86.304, 130.522 84.024 C 128.018 81.258, 125.870 81.483, 122.644 84.850 M 123.446 128.087 C 123.077 128.685, 123.275 129.675, 123.887 130.287 C 124.704 131.104, 125 130.815, 125 129.200 C 125 126.785, 124.481 126.413, 123.446 128.087 M 125.192 179.075 C 125.389 179.666, 125.977 180.150, 126.500 180.150 C 127.023 180.150, 127.611 179.666, 127.808 179.075 C 128.005 178.484, 127.417 178, 126.500 178 C 125.583 178, 124.995 178.484, 125.192 179.075 M 127 193.809 C 127 195.354, 127.661 197.491, 128.468 198.559 C 129.859 200.398, 129.938 200.334, 129.968 197.332 C 130.006 193.613, 129.149 191, 127.893 191 C 127.402 191, 127 192.264, 127 193.809 M 129.564 205.707 C 129.022 207.132, 129.136 207.247, 130.124 206.267 C 130.808 205.588, 131.115 204.781, 130.807 204.474 C 130.499 204.166, 129.940 204.721, 129.564 205.707" stroke="none" fill="black" fill-rule="evenodd"/>
</svg>