<svg xmlns="http://www.w3.org/2000/svg" width="300" height="300" viewBox="0 0 300 300" version="1.1">
	<path d="M 75 78.658 C 73.075 78.868, 68.350 79.680, 64.500 80.462 C 60.650 81.244, 54.125 82.185, 50 82.553 C 45.875 82.921, 41.938 83.677, 41.250 84.233 C 39.489 85.658, 39.693 89, 41.540 89 C 42.388 89, 44.379 89.960, 45.966 91.133 C 48.587 93.071, 49.612 93.200, 57.175 92.551 C 61.754 92.158, 70.225 91.731, 75.999 91.602 C 86.375 91.371, 86.509 91.337, 87.432 88.712 C 88.011 87.067, 88.011 84.618, 87.433 82.278 C 86.555 78.722, 86.265 78.493, 82.500 78.388 C 80.300 78.326, 76.925 78.447, 75 78.658" stroke="none" fill="black" fill-rule="evenodd"/>
</svg>