<svg xmlns="http://www.w3.org/2000/svg" width="300" height="300" viewBox="0 0 300 300" version="1.1">
	<path d="M 113.766 84.750 C 112.917 85.713, 111.887 88.073, 111.478 89.996 C 111.068 91.919, 110.149 94.844, 109.436 96.496 C 108.723 98.148, 107.154 102.200, 105.949 105.500 C 101.995 116.334, 99.628 121.410, 95.457 128 C 89.627 137.212, 89.743 136.981, 88.930 140.923 C 86.364 153.361, 85.952 156.274, 86.511 158.033 C 86.854 159.115, 87.724 160, 88.445 160 C 89.166 160, 90.320 160.681, 91.010 161.512 C 92.815 163.686, 94.997 161.567, 95.011 157.628 C 95.032 151.635, 100.293 138.125, 105.790 129.950 C 108.940 125.266, 113.470 115.188, 115.399 108.576 C 116.029 106.418, 117.004 104.499, 117.566 104.311 C 118.128 104.124, 119.574 106.002, 120.781 108.485 C 121.987 110.968, 123.421 113, 123.967 113 C 124.903 113, 127.137 116.601, 131.336 124.881 C 132.345 126.871, 134.219 130.075, 135.499 132 C 136.779 133.925, 138.506 137.525, 139.336 140 C 142.503 149.438, 145.933 155.816, 149.023 158.016 C 151.845 160.026, 152.329 160.100, 153.697 158.732 C 154.536 157.893, 155.454 155.150, 155.737 152.637 C 156.175 148.752, 155.796 147.353, 153.198 143.284 C 151.518 140.653, 149.180 136.043, 148.003 133.039 C 146.826 130.036, 144.544 125.785, 142.932 123.592 C 141.319 121.400, 140 119.054, 140 118.380 C 140 117.705, 138.533 115.206, 136.741 112.827 C 134.949 110.447, 132.927 107.375, 132.248 106 C 131.570 104.625, 130.588 102.825, 130.067 102 C 129.546 101.175, 127.237 96.563, 124.935 91.750 C 121.191 83.919, 120.465 83, 118.031 83 C 116.534 83, 114.615 83.787, 113.766 84.750" stroke="none" fill="black" fill-rule="evenodd"/>
</svg>