<svg xmlns="http://www.w3.org/2000/svg" width="300" height="300" viewBox="0 0 300 300" version="1.1">
	<path d="M 119 83.992 C 115.540 84.312, 111.775 85.514, 108.849 87.234 C 104.025 90.070, 97.307 96.982, 95.354 101.119 C 94.736 102.429, 92.790 106.558, 91.030 110.295 C 86.328 120.281, 84.160 130.902, 82.019 154.455 C 79.653 180.489, 79.418 184.751, 80.301 185.634 C 80.685 186.019, 81 189.206, 81 192.716 C 81 196.326, 81.628 200.313, 82.445 201.893 C 83.239 203.430, 84.201 207.120, 84.581 210.094 C 85.488 217.191, 86.978 219.938, 92.186 224.114 C 101.345 231.457, 107.091 233.558, 120.864 234.597 C 128.925 235.206, 129.938 235.065, 134.640 232.682 C 141.701 229.104, 145.189 225.938, 150.605 218.192 C 157.989 207.632, 163.771 192.113, 166.025 176.806 C 167.355 167.772, 166.851 146.926, 165.038 136 C 164.536 132.975, 163.603 127.223, 162.966 123.217 C 161.766 115.680, 159.097 109.639, 153.658 102.152 C 149.023 95.770, 143.897 90, 142.864 90 C 142.367 90, 140.124 88.841, 137.879 87.424 C 133.142 84.433, 126.771 83.275, 119 83.992 M 118.138 92.344 C 110.860 97.012, 106.160 102.159, 102.603 109.357 C 98.843 116.967, 98.061 121, 100.345 121 C 101.085 121, 102.475 121.868, 103.435 122.928 C 105.495 125.205, 104.914 127.969, 101.385 132.682 C 98.082 137.092, 96.956 140.255, 95.394 149.500 C 92.196 168.434, 92.542 182.704, 96.661 201.734 C 97.522 205.713, 97.952 209.683, 97.617 210.557 C 96.898 212.431, 98.585 216, 100.191 216 C 100.807 216, 102.855 217.178, 104.743 218.617 C 107.401 220.645, 110.238 221.519, 117.328 222.493 C 127.388 223.877, 127.856 223.802, 133.181 219.968 C 141.720 213.819, 148.108 202.833, 154.674 183 C 156.464 177.594, 156.801 151.416, 155.190 142.975 C 154.615 139.964, 153.870 134.125, 153.534 130 C 152.722 120.025, 150.515 113.975, 144.500 105.235 C 139.892 98.538, 138.859 97.657, 131.310 93.985 C 126.805 91.793, 122.755 90.042, 122.310 90.094 C 121.864 90.146, 119.987 91.159, 118.138 92.344" stroke="none" fill="black" fill-rule="evenodd"/>
</svg>