<svg xmlns="http://www.w3.org/2000/svg" width="300" height="300" viewBox="0 0 300 300" version="1.1">
	<path d="M 103.739 265.594 C 103.436 265.897, 87.509 266.291, 68.344 266.471 C 49.180 266.650, 31.592 267.124, 29.260 267.524 C 22.788 268.636, 20 271.788, 20 277.992 C 20 282.903, 22.889 290.615, 25.310 292.167 C 25.882 292.534, 27.734 291.813, 29.425 290.565 C 31.116 289.317, 33.356 287.992, 34.403 287.621 C 39.066 285.966, 64.506 282.639, 74.500 282.377 C 80.550 282.218, 88.425 281.716, 92 281.261 C 101.498 280.052, 204.820 281.153, 206.978 282.486 C 207.579 282.858, 210.821 283.148, 214.184 283.132 C 217.624 283.116, 221.524 283.737, 223.099 284.551 C 224.640 285.348, 227.712 286, 229.926 286 C 232.189 286, 235.385 286.874, 237.226 287.996 C 242.082 290.957, 244.350 290.585, 246.294 286.510 C 247.541 283.896, 247.712 282.374, 246.979 280.445 C 246.441 279.029, 246 276.199, 246 274.157 C 246 269.411, 243.712 266.001, 241.002 266.710 C 239.895 266.999, 238.309 266.671, 237.477 265.981 C 236.415 265.100, 234.404 264.944, 230.732 265.457 C 223.198 266.510, 218.127 266.939, 213 266.957 C 210.525 266.966, 207.150 266.976, 205.500 266.980 C 203.850 266.984, 200.475 267.189, 198 267.436 C 183.043 268.931, 173.315 269.050, 155.500 267.954 C 144.500 267.278, 131.450 266.569, 126.500 266.377 C 121.550 266.186, 114.528 265.808, 110.895 265.537 C 107.262 265.266, 104.042 265.292, 103.739 265.594" stroke="none" fill="black" fill-rule="evenodd"/>
</svg>