<svg xmlns="http://www.w3.org/2000/svg" width="300" height="300" viewBox="0 0 300 300" version="1.1">
	<path d="M 152.167 54.690 C 151.434 54.983, 149.985 57.203, 148.947 59.624 C 147.778 62.350, 146.127 64.382, 144.610 64.958 C 143.068 65.545, 140.773 68.413, 138.419 72.695 C 136.361 76.438, 134.142 80.175, 133.488 81 C 132.833 81.825, 131.243 84.421, 129.954 86.769 C 127.917 90.480, 127.799 91.219, 129.055 92.419 C 129.850 93.178, 131.925 94.097, 133.666 94.461 C 136.306 95.012, 137.385 94.615, 140.166 92.069 L 143.500 89.015 141.121 87.156 L 138.742 85.297 141.457 80.898 C 142.950 78.479, 145.927 73.800, 148.072 70.500 C 157.142 56.547, 158.252 52.261, 152.167 54.690" stroke="none" fill="black" fill-rule="evenodd"/>
</svg>