<svg xmlns="http://www.w3.org/2000/svg" width="300" height="300" viewBox="0 0 300 300" version="1.1">
	<path d="M 170.500 36 C 170.149 36.567, 170.990 37, 172.441 37 C 173.848 37, 175 36.550, 175 36 C 175 35.450, 174.127 35, 173.059 35 C 171.991 35, 170.840 35.450, 170.500 36 M 161 43 C 160.411 44.100, 160.155 45, 160.430 45 C 160.705 45, 161.411 44.100, 162 43 C 162.589 41.900, 162.845 41, 162.570 41 C 162.295 41, 161.589 41.900, 161 43 M 164.600 43.600 C 164.244 44.527, 164.178 45.511, 164.453 45.786 C 164.728 46.061, 165.244 45.527, 165.600 44.600 C 165.956 43.673, 166.022 42.689, 165.747 42.414 C 165.472 42.139, 164.956 42.673, 164.600 43.600 M 125 51.729 C 120.816 53.322, 121.147 56.243, 126.058 61.057 C 128.291 63.245, 130.759 66.572, 131.543 68.449 C 132.328 70.327, 133.426 72.145, 133.983 72.489 C 134.540 72.834, 136.109 75.468, 137.469 78.343 C 138.829 81.218, 141.254 84.827, 142.858 86.364 L 145.775 89.158 147.766 87.020 C 149.811 84.826, 153.007 73.665, 153.003 68.736 C 153 65.945, 154.286 63.006, 156.960 59.689 C 158.231 58.113, 158.233 57.762, 156.978 56.986 C 154.957 55.738, 150.989 60.097, 147.637 67.250 C 144.786 73.332, 143.532 74.253, 142.506 71.020 C 141.529 67.940, 135.270 57.900, 133.021 55.805 C 131.910 54.769, 131 53.265, 131 52.461 C 131 50.988, 127.931 50.613, 125 51.729" stroke="none" fill="black" fill-rule="evenodd"/>
</svg>