<svg xmlns="http://www.w3.org/2000/svg" width="300" height="300" viewBox="0 0 300 300" version="1.1">
	<path d="M 124.388 127.688 C 119.249 128.698, 114.007 138.702, 111.909 151.500 C 111.459 154.250, 110.832 157.850, 110.518 159.500 C 110.201 161.160, 110.523 163.604, 111.237 164.970 C 113.553 169.398, 123.180 174.516, 121.638 170.500 C 121.322 169.675, 121.510 169, 122.056 169 C 122.602 169, 123.477 170.125, 124 171.500 C 125.271 174.844, 129.721 174.834, 135.454 171.474 C 145.361 165.668, 150.639 150.691, 146.415 140.372 C 144.366 135.367, 138.200 129.676, 133.204 128.179 C 129.231 126.989, 128.226 126.933, 124.388 127.688" stroke="none" fill="black" fill-rule="evenodd"/>
</svg>