<svg xmlns="http://www.w3.org/2000/svg" width="300" height="300" viewBox="0 0 300 300" version="1.1">
	<path d="M 149.966 53.105 C 147.510 54.008, 142.125 55.010, 138 55.331 C 133.875 55.653, 127.125 56.550, 123 57.326 C 118.875 58.101, 114.825 58.779, 114 58.832 C 104.981 59.409, 99.741 60.180, 96.096 61.466 C 90.158 63.561, 71.430 66.253, 68.014 65.503 C 65.946 65.049, 64.534 65.497, 62.490 67.255 C 59.308 69.992, 59.661 73.077, 63.440 75.553 C 65.767 77.078, 72.718 76.654, 87.500 74.085 C 90.250 73.607, 92.617 73.322, 92.759 73.451 C 92.902 73.580, 92.365 78.819, 91.565 85.093 C 88.245 111.134, 86.082 152, 85.432 200.965 C 85.053 229.506, 84.609 239.629, 83.711 240.200 C 83.045 240.623, 78.610 240.976, 73.856 240.985 C 65.707 240.999, 65.034 241.166, 62.106 243.901 C 58.573 247.202, 58.241 249.004, 60.750 251.273 C 62.284 252.660, 64.533 252.746, 78.981 251.971 C 90.225 251.368, 96.814 251.428, 99.718 252.159 C 102.059 252.749, 105.442 252.944, 107.237 252.594 C 109.032 252.244, 111.625 251.785, 113 251.574 C 119.182 250.623, 126.383 248.061, 128.321 246.124 C 130.213 244.232, 130.276 243.847, 128.918 242.489 C 127.758 241.330, 124.518 240.910, 115.206 240.714 C 99.917 240.392, 99.144 239.860, 98.923 229.500 C 98.804 223.887, 98.390 222.194, 96.837 220.958 C 95.120 219.591, 94.901 218.106, 94.915 207.958 C 94.924 201.656, 95.397 194.928, 95.966 193.007 C 97.303 188.489, 97.278 181.483, 95.890 171.500 C 94.996 165.077, 95.114 159.557, 96.487 143.500 C 97.427 132.500, 98.560 119, 99.003 113.500 C 100.214 98.467, 101.842 89.015, 103.508 87.350 C 104.328 86.529, 105.007 84.202, 105.015 82.179 C 105.033 78.026, 105.725 76.640, 108.250 75.708 C 109.248 75.340, 110 74.036, 110 72.674 C 110 70.496, 110.519 70.231, 115.884 69.670 C 119.121 69.332, 123.816 68.360, 126.319 67.510 C 128.822 66.660, 133.976 65.820, 137.771 65.643 C 141.567 65.465, 145.143 65.030, 145.718 64.674 C 146.292 64.319, 149.179 63.801, 152.131 63.524 C 155.084 63.246, 159.804 62.738, 162.620 62.395 C 168.470 61.681, 168.979 62.111, 169.615 68.303 C 170.344 75.393, 171.987 82.310, 173.939 86.500 C 175.781 90.457, 177.275 95.021, 178.402 100.140 C 179.088 103.257, 181.385 104.400, 184.072 102.961 C 186.632 101.591, 186.522 98.905, 183.401 86.681 C 181.893 80.776, 180.677 72.930, 180.506 68 C 180.344 63.325, 180.169 59.050, 180.118 58.500 C 180.066 57.950, 180.131 56.150, 180.262 54.500 L 180.500 51.500 167.466 51.481 C 157.820 51.468, 153.270 51.890, 149.966 53.105" stroke="none" fill="black" fill-rule="evenodd"/>
</svg>