<svg xmlns="http://www.w3.org/2000/svg" width="300" height="300" viewBox="0 0 300 300" version="1.1">
	<path d="M 124 159.968 C 114.925 160.343, 103.253 161.249, 98.062 161.980 C 89.500 163.186, 88.309 163.624, 85.241 166.692 C 83.380 168.553, 82.018 170.555, 82.214 171.143 C 82.410 171.730, 84.277 172.797, 86.363 173.514 C 89.503 174.593, 91.649 174.581, 98.828 173.440 C 110.762 171.543, 141.279 170.106, 146.376 171.200 C 154.625 172.972, 170.687 174.069, 173.382 173.045 C 175.716 172.157, 176 171.516, 176 167.132 C 176 163.404, 175.577 162.030, 174.250 161.455 C 173.287 161.037, 167.100 160.630, 160.500 160.549 C 153.900 160.468, 146.700 160.150, 144.500 159.843 C 142.300 159.536, 133.075 159.592, 124 159.968" stroke="none" fill="black" fill-rule="evenodd"/>
</svg>