<svg xmlns="http://www.w3.org/2000/svg" width="300" height="300" viewBox="0 0 300 300" version="1.1">
	<path d="M 167.914 41.956 C 165.247 42.764, 163.080 44.003, 154.500 49.624 C 148.714 53.416, 140.444 61.224, 130.500 72.288 C 126.650 76.571, 121.147 81.958, 118.272 84.259 C 115.396 86.561, 112.799 89.082, 112.499 89.863 C 111.850 91.555, 114.478 95.862, 116.673 96.705 C 118.044 97.231, 124.102 91.439, 138.329 76 C 139.090 75.175, 140.939 73.621, 142.439 72.547 C 143.939 71.473, 146.565 68.648, 148.274 66.269 C 149.982 63.889, 152.517 61.657, 153.907 61.309 C 155.296 60.960, 157.250 59.914, 158.248 58.984 C 159.246 58.054, 163.244 56.012, 167.132 54.447 C 172.172 52.418, 174.459 50.922, 175.101 49.235 C 176.369 45.898, 176.256 45.256, 174 43 C 171.823 40.823, 171.713 40.804, 167.914 41.956" stroke="none" fill="black" fill-rule="evenodd"/>
</svg>