<svg xmlns="http://www.w3.org/2000/svg" width="300" height="300" viewBox="0 0 300 300" version="1.1">
	<path d="M 187 107.393 C 187 107.609, 187.698 108.054, 188.552 108.382 C 189.442 108.723, 189.843 108.555, 189.493 107.989 C 188.906 107.038, 187 106.583, 187 107.393 M 125.145 141.969 C 121.590 146.393, 118 154.066, 118 157.242 C 118 160.274, 126.765 168, 130.204 168 C 136.302 168, 142.728 161.241, 141.615 156 C 141.322 154.625, 139.237 150.012, 136.981 145.750 C 132.056 136.445, 130.090 135.816, 125.145 141.969 M 186.491 139.015 C 186.146 139.573, 184.432 140.639, 182.682 141.383 C 175.468 144.451, 166 155.842, 166 161.453 C 166 163.064, 170.270 166.992, 172.064 167.032 C 172.854 167.049, 174.374 167.724, 175.441 168.532 C 177.959 170.437, 183.875 170.408, 187.755 168.472 C 192.222 166.244, 197.789 159.642, 198.529 155.695 C 199.417 150.962, 195.962 143.183, 191.669 140.250 C 187.960 137.715, 187.379 137.577, 186.491 139.015 M 77.250 142.124 C 75.463 142.637, 74 143.440, 74 143.907 C 74 144.375, 72.654 145.315, 71.009 145.996 C 69.364 146.678, 67.077 148.757, 65.927 150.618 C 64.778 152.478, 63.504 154, 63.097 154 C 62.690 154, 61.353 156.219, 60.127 158.932 C 57.236 165.329, 58.200 166.940, 66.914 170.278 C 78.278 174.631, 77.703 174.638, 82.020 170.100 C 85.969 165.949, 87.984 160.985, 87.994 155.388 C 88 152.250, 83.060 141.772, 81.397 141.394 C 80.904 141.282, 79.037 141.610, 77.250 142.124" stroke="none" fill="black" fill-rule="evenodd"/>
</svg>