<svg xmlns="http://www.w3.org/2000/svg" width="300" height="300" viewBox="0 0 300 300" version="1.1">
	<path d="M 252.232 21 C 251.488 22.191, 249.875 23.013, 248.242 23.032 C 244.865 23.071, 236.701 30.849, 233.388 37.183 C 226.499 50.354, 226.497 50.361, 226.658 56.796 C 226.837 63.945, 228.680 68.529, 233.875 74.750 C 236.257 77.604, 238.219 79, 239.846 79 C 242.765 79, 250.126 76.990, 251.450 75.831 C 251.973 75.374, 253.170 75, 254.111 75 C 255.052 75, 256.987 73.615, 258.411 71.923 C 260.594 69.329, 260.996 67.879, 260.972 62.673 C 260.947 57.156, 260.626 56.188, 257.951 53.562 C 255.484 51.141, 253.921 50.550, 249.061 50.198 C 245.026 49.906, 242.194 50.255, 240.091 51.305 C 238.401 52.148, 236.775 52.445, 236.478 51.965 C 235.465 50.325, 237.280 45.504, 240.796 40.500 C 245.399 33.948, 249.758 30.199, 253.663 29.431 C 257.551 28.668, 261.335 25.316, 260.568 23.316 C 260.256 22.502, 260 21.198, 260 20.418 C 260 18.128, 253.732 18.597, 252.232 21" stroke="none" fill="black" fill-rule="evenodd"/>
</svg>