<svg xmlns="http://www.w3.org/2000/svg" width="300" height="300" viewBox="0 0 300 300" version="1.1">
	<path d="M 57.145 18.440 C 51.334 24.584, 50.703 27.499, 54.115 32.438 C 55.279 34.122, 57.979 36.733, 60.115 38.240 C 63.597 40.696, 64 41.426, 64 45.263 C 64 48.595, 63.286 50.427, 60.781 53.522 C 59.010 55.710, 56.985 57.860, 56.281 58.300 C 53.207 60.219, 56.661 64, 61.488 64 C 64.194 64, 69.036 58.711, 71.982 52.537 C 76.152 43.800, 76.408 35.281, 72.741 27.240 C 71.302 24.083, 69.870 20.294, 69.560 18.820 C 68.872 15.547, 66.471 13, 64.074 13 C 63.093 13, 59.975 15.448, 57.145 18.440 M 18.500 23.945 C 15.369 25.227, 12.902 28.509, 11.937 32.677 C 10.899 37.160, 13.056 41.071, 17.090 42.018 C 19.296 42.535, 19.525 43.142, 19.793 49.185 C 20.102 56.134, 19.984 56.354, 13.702 60.500 C 10.799 62.416, 10.683 65.774, 13.425 68.516 C 15.856 70.947, 16.111 70.994, 18.940 69.531 C 22.034 67.931, 26.414 62.144, 29.354 55.770 C 31.604 50.893, 31.780 33.804, 29.634 28.666 C 27.507 23.577, 23.526 21.888, 18.500 23.945" stroke="none" fill="black" fill-rule="evenodd"/>
</svg>