<svg xmlns="http://www.w3.org/2000/svg" width="300" height="300" viewBox="0 0 300 300" version="1.1">
	<path d="M 90 15.033 C 85.462 18.602, 85 19.070, 85 20.090 C 85 20.647, 86.595 21.768, 88.544 22.583 C 90.492 23.397, 92.323 24.677, 92.611 25.428 C 92.899 26.179, 95.226 27.107, 97.782 27.490 C 100.337 27.873, 103.332 28.820, 104.437 29.593 C 105.541 30.367, 107.190 31, 108.100 31 C 109.010 31, 110.315 31.675, 111 32.500 C 111.685 33.325, 113.020 34, 113.967 34 C 114.915 34, 116.479 34.872, 117.444 35.938 C 118.409 37.004, 121.600 38.632, 124.537 39.555 C 127.474 40.479, 130.115 41.857, 130.407 42.617 C 131.226 44.754, 135.414 44.253, 137.778 41.736 C 140.041 39.327, 141.084 32.681, 139.454 31.059 C 138.929 30.536, 136.250 30.019, 133.500 29.908 C 128.390 29.702, 126.802 29.202, 116.728 24.623 C 113.553 23.180, 110.474 22, 109.886 22 C 109.297 22, 107.686 21.112, 106.306 20.026 C 104.926 18.941, 102.307 17.773, 100.485 17.431 C 98.663 17.089, 96.253 15.953, 95.128 14.905 C 92.680 12.624, 93.075 12.614, 90 15.033" stroke="none" fill="black" fill-rule="evenodd"/>
</svg>