<svg xmlns="http://www.w3.org/2000/svg" width="300" height="300" viewBox="0 0 300 300" version="1.1">
	<path d="M 161.736 144.868 C 157.180 145.910, 152.166 150.598, 151.434 154.501 C 150.399 160.019, 151.589 162.675, 156.348 165.464 C 162.131 168.853, 164.346 168.669, 169.598 164.366 C 174.018 160.744, 174.031 160.714, 173.425 155.616 C 172.941 151.536, 172.130 149.842, 169.423 147.250 C 167.557 145.463, 165.685 144.053, 165.265 144.118 C 164.844 144.183, 163.256 144.521, 161.736 144.868 M 98.451 149.265 C 97.325 149.944, 94.878 151.400, 93.014 152.500 C 85.687 156.825, 83.495 160.569, 86.282 164 C 88.349 166.546, 94.600 170.862, 97.145 171.500 C 100.310 172.295, 104.822 169.898, 106.595 166.480 C 108.535 162.740, 108.382 155.004, 106.308 151.973 C 103.401 147.725, 101.877 147.199, 98.451 149.265 M 204 176 C 204 176.550, 204.450 177, 205 177 C 205.550 177, 206 176.550, 206 176 C 206 175.450, 205.550 175, 205 175 C 204.450 175, 204 175.450, 204 176" stroke="none" fill="black" fill-rule="evenodd"/>
</svg>