<svg xmlns="http://www.w3.org/2000/svg" width="300" height="300" viewBox="0 0 300 300" version="1.1">
	<path d="M 30.113 19.286 C 26.230 20.773, 24.179 22.277, 22.765 24.674 C 21.685 26.503, 20.397 28, 19.901 28 C 19.406 28, 19 29.102, 19 30.449 C 19 33.099, 23.352 37.043, 28.390 38.958 C 31.269 40.053, 31.270 40.058, 30.594 46.656 C 29.748 54.916, 27.795 58.770, 23.557 60.540 C 18.953 62.464, 18.295 66.269, 21.705 71.250 C 23.117 73.313, 24.845 75, 25.546 75 C 27.633 75, 36.297 67.639, 39.176 63.421 C 41.763 59.630, 43.524 54.719, 45.877 44.736 C 47.628 37.306, 47.257 34.855, 43.599 29.710 C 41.729 27.080, 39.893 23.709, 39.519 22.219 C 38.802 19.364, 37.182 16.924, 36.128 17.112 C 35.782 17.173, 33.076 18.152, 30.113 19.286" stroke="none" fill="black" fill-rule="evenodd"/>
</svg>