<svg xmlns="http://www.w3.org/2000/svg" width="300" height="300" viewBox="0 0 300 300" version="1.1">
	<path d="M 146.544 152.929 C 146.228 153.440, 142.672 155.424, 138.641 157.337 C 131.408 160.770, 131.283 160.895, 129.012 166.968 C 126.894 172.630, 126.797 173.733, 127.788 180.810 C 128.774 187.853, 129.171 188.758, 132.506 191.562 C 134.508 193.245, 138.135 195.360, 140.564 196.260 C 144.532 197.731, 145.487 197.748, 149.937 196.426 C 159.736 193.516, 164.942 185.315, 164.978 172.732 C 164.996 166.277, 164.560 164.121, 162.395 159.982 C 160.762 156.859, 159.129 155, 158.018 155 C 157.043 155, 155.685 154.325, 155 153.500 C 153.637 151.858, 147.463 151.441, 146.544 152.929" stroke="none" fill="black" fill-rule="evenodd"/>
</svg>