<svg xmlns="http://www.w3.org/2000/svg" width="300" height="300" viewBox="0 0 300 300" version="1.1">
	<path d="M 164.750 57.014 C 161.990 58.511, 161 59.695, 161 61.498 C 161 64.716, 164.895 66.710, 173.588 67.941 C 181.467 69.057, 183.072 70.158, 180.676 72.805 C 179.754 73.824, 178.988 75.297, 178.972 76.079 C 178.957 76.860, 176.946 80.650, 174.504 84.500 C 172.061 88.350, 166.853 97.800, 162.931 105.500 C 159.009 113.200, 154.114 122.207, 152.054 125.517 C 149.995 128.826, 147.755 133.213, 147.077 135.267 C 145.752 139.282, 144.290 140.061, 143.355 137.250 C 138.368 122.255, 127.202 97.414, 121.841 89.389 C 119.065 85.232, 115.434 77.141, 116.125 76.651 C 116.331 76.504, 118.975 75.899, 122 75.306 C 126.372 74.448, 128.054 74.512, 130.200 75.614 C 133.567 77.342, 137.089 77.387, 139.354 75.730 C 140.965 74.552, 140.977 74.189, 139.513 70.686 C 138.646 68.610, 138.171 66.533, 138.457 66.069 C 139.576 64.258, 136.061 62.867, 131.812 63.440 C 129.441 63.759, 123 64.251, 117.500 64.532 C 112 64.813, 104.800 65.339, 101.500 65.701 C 98.200 66.063, 87.867 66.246, 78.537 66.108 C 57.020 65.790, 55.625 66.050, 52.528 70.956 C 50.960 73.440, 48.866 75.219, 46.651 75.950 C 44.508 76.657, 42.988 77.918, 42.619 79.293 C 41.729 82.613, 41.846 83, 43.750 83.004 C 44.712 83.006, 46.850 83.830, 48.500 84.836 C 53.015 87.589, 59.211 88.262, 64.203 86.542 C 66.550 85.733, 68.776 85.393, 69.148 85.786 C 69.521 86.179, 69.412 92.575, 68.906 100 C 65.666 147.596, 66.225 202.285, 70.125 219.304 C 70.730 221.946, 70.962 224.371, 70.641 224.693 C 70.319 225.014, 62.885 225.329, 54.120 225.393 L 38.185 225.509 35.537 228.365 C 33.020 231.081, 32.975 231.314, 34.604 233.115 C 37.281 236.073, 42.459 236.954, 57.019 236.930 C 75.478 236.899, 86.624 237.754, 89.910 239.453 C 91.837 240.450, 95.067 240.772, 100.589 240.519 C 104.943 240.319, 113.229 240.500, 119.002 240.922 C 127.869 241.569, 129.694 241.450, 130.750 240.153 C 132.853 237.570, 132.206 233.572, 129.223 230.714 C 126.907 228.495, 125.842 228.151, 122.802 228.645 L 119.159 229.236 119.705 224.868 C 120.006 222.466, 121.044 219.150, 122.012 217.500 C 122.980 215.850, 124.112 213.382, 124.528 212.014 C 124.944 210.647, 126.568 207.932, 128.136 205.980 C 129.997 203.664, 131.364 200.359, 132.071 196.466 C 132.666 193.185, 133.716 189.600, 134.404 188.500 C 135.092 187.400, 136.920 182.450, 138.466 177.500 C 140.012 172.550, 141.931 167.204, 142.731 165.620 C 144.152 162.807, 144.228 162.784, 146.027 164.620 C 148.150 166.786, 154.468 178.119, 159.619 189 C 161.572 193.125, 163.756 196.832, 164.473 197.237 C 165.190 197.643, 166.079 199.218, 166.449 200.737 C 166.819 202.257, 168.323 205.300, 169.790 207.500 C 176.136 217.012, 176.545 219.325, 171.750 218.598 C 162.321 217.167, 160.076 217.069, 159.463 218.060 C 159.102 218.645, 157.693 219.546, 156.334 220.063 C 154.567 220.735, 153.952 221.624, 154.181 223.178 C 154.940 228.352, 179.746 233.914, 195.030 232.336 C 198.887 231.938, 201.652 232.246, 204.348 233.372 C 207.214 234.569, 208.681 234.706, 210.161 233.914 C 211.559 233.166, 213.048 233.170, 215.220 233.927 C 223.376 236.770, 226.188 233.167, 221.917 225.349 C 219.752 221.386, 219.202 221, 215.705 221 C 213.595 221, 210.901 220.482, 209.719 219.849 C 208.536 219.217, 204.756 218.790, 201.318 218.901 C 190.401 219.255, 188.972 218.639, 184.543 211.684 C 182.377 208.283, 179.069 202.575, 177.191 199 C 175.314 195.425, 173.055 191.375, 172.171 190 C 171.287 188.625, 167.737 181.875, 164.282 175 C 160.828 168.125, 156.658 160.475, 155.016 158 C 153.375 155.525, 151.515 152.514, 150.882 151.309 C 149.658 148.976, 149.412 149.624, 156.858 135.567 C 158.586 132.304, 160 129.109, 160 128.467 C 160 127.825, 161.339 125.452, 162.976 123.192 C 164.612 120.933, 168.955 113.103, 172.627 105.792 C 177.627 95.835, 181.052 90.512, 186.275 84.575 C 190.110 80.217, 193.893 75.107, 194.681 73.220 C 196.075 69.884, 196.233 69.808, 200.449 70.440 C 204.121 70.991, 205.206 70.727, 207.547 68.713 L 210.311 66.336 208.426 63.145 C 206.249 59.459, 202.112 58.002, 194.500 58.240 C 191.750 58.326, 186.350 57.837, 182.500 57.154 C 169.669 54.876, 168.707 54.868, 164.750 57.014 M 106.431 71.112 C 105.677 72.332, 107.923 74.166, 109.202 73.375 C 109.641 73.104, 110 72.234, 110 71.441 C 110 69.744, 107.423 69.506, 106.431 71.112 M 102.166 81.221 C 101.295 82.083, 97.714 82.500, 91.187 82.500 L 81.500 82.500 80.793 88.500 C 76.977 120.876, 75.177 191.378, 77.895 202 C 78.529 204.475, 79.316 210.325, 79.645 215 C 79.974 219.675, 80.713 224.086, 81.287 224.801 C 82.034 225.734, 83.808 225.918, 87.544 225.451 C 91.672 224.935, 93.748 225.237, 97.506 226.900 C 103.327 229.475, 106.866 229.597, 107.640 227.250 C 107.958 226.287, 111.054 219.650, 114.522 212.500 C 117.989 205.350, 121.123 198.166, 121.486 196.535 C 121.849 194.904, 122.980 191.738, 124 189.500 C 125.020 187.262, 126.164 184.096, 126.544 182.465 C 127.131 179.945, 129.264 174.408, 133.080 165.500 C 135.486 159.884, 137.999 152.286, 137.999 150.627 C 138 149.597, 136.692 146.222, 135.093 143.127 C 133.494 140.032, 131.414 135.475, 130.471 133 C 129.529 130.525, 126.579 124, 123.917 118.500 C 121.255 113, 116.243 102.205, 112.778 94.512 C 106.591 80.771, 104.838 78.576, 102.166 81.221 M 135.022 136.250 C 135.034 136.938, 135.924 138.625, 137 140 L 138.956 142.500 138.978 139.950 C 138.999 137.468, 137.415 135, 135.800 135 C 135.360 135, 135.010 135.563, 135.022 136.250 M 70.446 186.087 C 70.077 186.685, 70.275 187.675, 70.887 188.287 C 71.704 189.104, 72 188.815, 72 187.200 C 72 184.785, 71.481 184.413, 70.446 186.087 M 71.554 199.278 C 71.249 200.225, 70.810 201.620, 70.578 202.378 C 70.148 203.783, 71.753 206, 73.200 206 C 74.301 206, 74.181 200.835, 73.038 199.028 C 72.242 197.769, 72.027 197.806, 71.554 199.278 M 111 228.583 C 111 229.454, 111.534 229.989, 112.188 229.771 C 114.042 229.153, 114.349 227, 112.583 227 C 111.713 227, 111 227.713, 111 228.583" stroke="none" fill="black" fill-rule="evenodd"/>
</svg>