<svg xmlns="http://www.w3.org/2000/svg" width="300" height="300" viewBox="0 0 300 300" version="1.1">
	<path d="M 126 77 C 125.175 77.533, 123.548 77.976, 122.385 77.985 C 119.673 78.004, 115.366 81.392, 113.524 84.954 C 111.280 89.294, 113.077 93.908, 118.934 98.848 C 125.086 104.035, 129.835 104.491, 134.195 100.313 C 136.684 97.929, 137 96.920, 137 91.360 C 137 79.861, 131.892 73.193, 126 77 M 77.909 182.255 C 76.485 183.490, 74.548 185.758, 73.607 187.296 C 72.665 188.833, 70.793 190.593, 69.447 191.206 C 65.399 193.050, 66.753 201.019, 71.480 203.173 C 72.866 203.804, 74 204.915, 74 205.641 C 74 207.426, 78.174 208.353, 83.502 207.753 C 89.312 207.098, 95.728 202.116, 96.457 197.693 C 96.747 195.937, 96.650 192.025, 96.242 189 C 95.569 184.014, 95.173 183.337, 92 181.752 C 87.039 179.273, 81.105 179.485, 77.909 182.255 M 166.500 185.403 C 161.597 187.567, 159.666 190.493, 159.412 196.145 C 159.232 200.161, 159.534 201.332, 160.842 201.693 C 161.754 201.945, 164.062 204.129, 165.972 206.546 C 170.802 212.660, 173.995 213.852, 177.968 211.023 C 182.934 207.486, 184.347 203.684, 183.675 195.666 C 182.921 186.666, 180.705 183.982, 174.076 184.039 C 171.559 184.061, 168.150 184.674, 166.500 185.403" stroke="none" fill="black" fill-rule="evenodd"/>
</svg>