<svg xmlns="http://www.w3.org/2000/svg" width="300" height="300" viewBox="0 0 300 300" version="1.1">
	<path d="M 149.500 162.078 C 144.879 163.058, 133.539 163.256, 120.151 162.590 C 114.835 162.326, 109.657 162.574, 108.151 163.166 C 105.786 164.094, 81.917 165.322, 71.500 165.052 C 44.474 164.350, 24.692 165.181, 22.362 167.114 C 21.613 167.736, 21 169.113, 21 170.173 C 21 175.411, 36.618 176.250, 73.805 173.011 C 80.573 172.422, 89.348 172.031, 93.305 172.142 C 97.262 172.254, 102.525 171.775, 105 171.078 C 109.850 169.712, 130.161 170.325, 136.057 172.016 C 138.464 172.707, 139.806 172.518, 141.808 171.208 C 144.081 169.721, 147.461 169.498, 167.959 169.483 C 187.939 169.469, 192.213 169.731, 196.214 171.215 C 199.080 172.279, 202.118 172.726, 203.964 172.357 C 206.497 171.851, 207 171.276, 207 168.888 C 207 166.529, 206.342 165.750, 203.250 164.449 C 201.188 163.580, 198.262 163.113, 196.748 163.410 C 195.235 163.708, 189.610 163.289, 184.248 162.481 C 173.779 160.903, 156.013 160.697, 149.500 162.078" stroke="none" fill="black" fill-rule="evenodd"/>
</svg>