<svg xmlns="http://www.w3.org/2000/svg" width="300" height="300" viewBox="0 0 300 300" version="1.1">
	<path d="M 146.667 36.667 C 146.300 37.033, 146 38.328, 146 39.544 C 146 40.760, 145.334 42.307, 144.521 42.983 C 143.449 43.872, 143.310 44.712, 144.017 46.033 C 145.223 48.285, 144.289 51.048, 142.549 50.380 C 140.515 49.600, 140.033 53.328, 139.950 70.500 C 139.907 79.300, 139.435 91.900, 138.901 98.500 C 138.367 105.100, 137.915 119.583, 137.897 130.684 C 137.870 146.949, 137.586 151.099, 136.432 152.057 C 135.456 152.866, 134.602 152.924, 133.750 152.238 C 132.519 151.246, 124.093 151.310, 101.500 152.482 C 81.376 153.527, 73.530 154.153, 70.373 154.966 C 68.654 155.408, 66.653 155.404, 65.927 154.955 C 65.202 154.507, 63.909 154.498, 63.054 154.936 C 62.199 155.374, 58.800 155.970, 55.500 156.260 C 44.660 157.214, 41.243 160.664, 46.039 165.811 C 48.318 168.258, 49.288 168.451, 52 167 C 53.158 166.380, 54.770 166.342, 56.237 166.900 C 57.540 167.395, 59.269 167.429, 60.080 166.975 C 60.892 166.521, 65.368 165.930, 70.028 165.662 C 74.687 165.394, 80.009 164.914, 81.854 164.595 C 83.698 164.276, 91.573 163.843, 99.354 163.632 C 107.134 163.422, 114.319 162.908, 115.320 162.491 C 116.321 162.074, 121.607 162.578, 127.070 163.612 L 137 165.492 137.076 175.496 C 137.150 185.288, 137.374 193.829, 138.476 228.781 C 138.776 238.286, 139.515 250.436, 140.119 255.781 C 140.723 261.127, 141.398 267.525, 141.619 270 C 142.636 281.386, 143.294 284.215, 145.470 286.562 C 146.713 287.903, 148.205 289, 148.787 289 C 152.093 289, 152.560 270.444, 149.731 251.545 C 147.459 236.372, 146.272 201.582, 147.957 199.552 C 148.774 198.567, 149.002 196.544, 148.610 193.769 C 148.277 191.421, 148.009 188.292, 148.014 186.816 C 148.018 185.339, 147.533 183.829, 146.935 183.460 C 145.519 182.585, 146.666 168.609, 148.491 164.500 C 149.703 161.771, 150.380 157.478, 150.106 154.250 C 150.048 153.563, 149.259 153, 148.353 153 C 146.885 153, 146.781 151.885, 147.404 142.750 C 147.788 137.113, 148.508 130.475, 149.004 128 C 149.499 125.525, 149.635 117.172, 149.306 109.439 C 148.709 95.435, 149.586 84.768, 150.914 89.876 C 151.399 91.742, 151.829 90.910, 152.920 85.996 C 154.001 81.121, 154.053 79.035, 153.154 76.549 C 151.614 72.291, 151.707 70.086, 153.576 66.502 C 155.477 62.855, 154.646 52.185, 152.393 51.321 C 151.392 50.936, 151 48.879, 151 44 C 151 38.735, 150.646 37.078, 149.418 36.607 C 147.460 35.855, 147.478 35.855, 146.667 36.667" stroke="none" fill="black" fill-rule="evenodd"/>
</svg>