<svg xmlns="http://www.w3.org/2000/svg" width="300" height="300" viewBox="0 0 300 300" version="1.1">
	<path d="M 135 46.121 C 133.075 47.153, 129.925 48.004, 128 48.014 C 123.211 48.037, 121.748 49.149, 122.510 52.185 C 123 54.138, 122.591 55.038, 120.631 56.322 C 119.253 57.225, 113.825 63.035, 108.569 69.232 C 86.488 95.269, 84.499 97.443, 73.570 107.500 C 69.983 110.800, 67.038 114.016, 67.024 114.646 C 66.992 116.185, 61.083 121.284, 54.155 125.753 C 46.648 130.596, 44 133.006, 44 134.997 C 44 136.611, 52.982 147, 54.377 147 C 54.766 147, 55.628 147.443, 56.292 147.985 C 61.957 152.605, 64.908 154.764, 71.223 158.912 C 75.225 161.540, 79.625 164.784, 81 166.120 C 82.375 167.455, 85.300 169.772, 87.500 171.267 C 89.700 172.763, 94.831 177.365, 98.902 181.493 C 102.973 185.622, 106.776 189, 107.353 189 C 107.930 189, 110.279 190.912, 112.572 193.250 C 114.865 195.588, 119.049 199.721, 121.871 202.435 C 126.430 206.822, 127 207.832, 127 211.530 C 127 214.420, 126.389 216.243, 125 217.500 C 120.441 221.626, 124.097 225.652, 131.325 224.465 C 134.470 223.948, 137.144 222.326, 142.165 217.889 C 145.831 214.650, 149.242 212, 149.746 212 C 150.250 212, 151.264 210.875, 152 209.500 C 152.736 208.125, 153.937 207, 154.669 207 C 155.401 207, 156 206.598, 156 206.107 C 156 205.616, 156.739 204.931, 157.641 204.584 C 159.032 204.051, 159.084 204.194, 157.984 205.519 C 157.019 206.683, 156.975 207.375, 157.814 208.214 C 159.262 209.662, 166.674 205.994, 170.615 201.880 C 172.133 200.296, 173.889 199, 174.518 199 C 175.146 199, 177.096 197.087, 178.850 194.750 C 180.605 192.412, 184.280 187.800, 187.017 184.500 C 194.612 175.343, 200.339 167.858, 202 164.918 C 202.825 163.457, 204.564 160.291, 205.864 157.881 C 207.165 155.472, 209.302 152.068, 210.614 150.317 C 211.926 148.566, 213 146.653, 213 146.067 C 213 145.480, 213.387 145, 213.859 145 C 214.332 145, 216.763 143.200, 219.263 141 C 221.762 138.800, 224.535 137, 225.425 137 C 226.315 137, 227.560 135.864, 228.193 134.475 C 228.826 133.087, 230.862 131.012, 232.718 129.865 C 235.971 127.855, 236.082 127.579, 235.797 122.242 L 235.500 116.705 231.656 116.315 C 229.177 116.063, 225.909 114.519, 222.449 111.962 C 219.499 109.783, 216.446 108, 215.665 108 C 214.884 108, 213.660 107.295, 212.945 106.434 C 212.230 105.573, 210.263 104.165, 208.573 103.305 C 206.883 102.445, 203.200 99.662, 200.388 97.121 C 193.121 90.553, 181.843 83.238, 174 80.006 C 166.907 77.084, 162.192 73.869, 154.934 67.006 C 150.845 63.140, 145.555 58.986, 143.177 57.775 C 140.799 56.564, 138.641 55.228, 138.381 54.808 C 138.121 54.387, 138.876 52.735, 140.058 51.136 C 141.490 49.199, 141.983 47.523, 141.536 46.114 C 140.742 43.613, 139.678 43.614, 135 46.121 M 58.750 133.781 C 57.237 133.974, 56 134.522, 56 134.998 C 56 135.914, 61.318 140, 62.510 140 C 62.896 140, 64.548 141.125, 66.182 142.500 C 69.569 145.350, 71 145.653, 71 143.520 C 71 142.707, 69.200 141.122, 67 140 C 64.430 138.689, 63 137.273, 63 136.039 C 63 133.698, 62.300 133.326, 58.750 133.781 M 175 135 C 175 136.289, 175.506 136.998, 176.250 136.750 C 176.938 136.521, 177.500 135.733, 177.500 135 C 177.500 134.267, 176.938 133.479, 176.250 133.250 C 175.506 133.002, 175 133.711, 175 135 M 205.345 134.543 C 205.019 135.392, 205.004 136.337, 205.310 136.643 C 206.186 137.519, 208 136.034, 208 134.441 C 208 132.522, 206.092 132.596, 205.345 134.543 M 91.639 137.694 C 90.513 138.820, 90.954 140, 92.500 140 C 93.325 140, 94 139.577, 94 139.059 C 94 137.798, 92.438 136.895, 91.639 137.694 M 138 147 C 138 147.550, 138.450 148, 139 148 C 139.550 148, 140 147.550, 140 147 C 140 146.450, 139.550 146, 139 146 C 138.450 146, 138 146.450, 138 147 M 64 149 C 64 149.550, 64.477 150, 65.059 150 C 65.641 150, 65.840 149.550, 65.500 149 C 65.160 148.450, 64.684 148, 64.441 148 C 64.198 148, 64 148.450, 64 149 M 77 148.977 C 77 150.120, 81.846 153.487, 82.521 152.813 C 83.141 152.193, 79.168 148, 77.961 148 C 77.432 148, 77 148.440, 77 148.977 M 74 155.376 C 74 156.304, 74.694 157.329, 75.543 157.655 C 77.970 158.586, 78.205 157.495, 76.006 155.506 C 74.175 153.849, 74 153.837, 74 155.376 M 92 169 C 92 169.550, 92.477 170, 93.059 170 C 93.641 170, 93.840 169.550, 93.500 169 C 93.160 168.450, 92.684 168, 92.441 168 C 92.198 168, 92 168.450, 92 169 M 141.750 180.577 C 141.338 180.993, 141 182.248, 141 183.367 C 141 184.838, 141.302 185.098, 142.094 184.306 C 142.695 183.705, 143.033 182.449, 142.844 181.517 C 142.655 180.584, 142.162 180.161, 141.750 180.577 M 162 182.559 C 162 183.416, 162.450 183.840, 163 183.500 C 163.550 183.160, 164 182.459, 164 181.941 C 164 181.423, 163.550 181, 163 181 C 162.450 181, 162 181.702, 162 182.559 M 137.723 194.611 C 137.325 195.008, 137 196.383, 137 197.667 C 137 199.333, 137.571 200, 139 200 C 140.100 200, 141 199.411, 141 198.691 C 141 196.789, 138.570 193.763, 137.723 194.611" stroke="none" fill="black" fill-rule="evenodd"/>
</svg>