<svg xmlns="http://www.w3.org/2000/svg" width="300" height="300" viewBox="0 0 300 300" version="1.1">
	<path d="M 209 205.669 C 184.677 209.358, 183.658 209.882, 182.480 219.317 C 181.379 228.127, 181.595 253.408, 182.858 263.500 C 183.477 268.450, 183.987 276.078, 183.992 280.451 C 183.997 285.036, 184.729 290.856, 185.722 294.201 C 187.205 299.199, 187.778 300, 189.868 300 L 192.294 300 191.463 288.250 C 191.007 281.788, 190.603 271.057, 190.567 264.405 C 190.522 256.377, 190.085 251.809, 189.267 250.823 C 187.934 249.215, 187.791 229.247, 189.107 228.434 C 189.502 228.189, 190.132 226.180, 190.505 223.968 C 191.085 220.537, 191.792 219.637, 195.320 217.837 C 197.594 216.677, 201.164 215.727, 203.253 215.727 C 205.342 215.727, 207.244 215.414, 207.481 215.031 C 207.717 214.648, 216.819 214.588, 227.705 214.896 C 247.320 215.453, 263.574 215.429, 282.096 214.817 C 288.875 214.593, 292.451 214.906, 294.279 215.883 C 298.262 218.012, 300.002 216.761, 299.985 211.781 C 299.976 209.427, 299.639 207.001, 299.235 206.391 C 298.702 205.587, 293.550 205.551, 280.500 206.259 C 268.241 206.925, 255.642 206.891, 241 206.154 C 219.314 205.063, 213.569 204.976, 209 205.669" stroke="none" fill="black" fill-rule="evenodd"/>
</svg>