<svg xmlns="http://www.w3.org/2000/svg" width="300" height="300" viewBox="0 0 300 300" version="1.1">
	<path d="M 66.179 16.453 C 64.903 17.815, 63.416 20.532, 62.875 22.492 C 62.334 24.451, 60.493 27.646, 58.785 29.592 C 53.581 35.519, 49.343 43.790, 45.764 55 C 44.623 58.575, 43.084 62, 42.344 62.610 C 40.445 64.179, 40.677 67.397, 42.829 69.345 C 45.346 71.623, 46.192 71.452, 49.500 68 C 51.081 66.350, 53.163 65, 54.128 65 C 55.093 65, 56.160 64.550, 56.500 64 C 56.840 63.450, 58.166 63, 59.448 63 C 61.285 63, 61.906 62.312, 62.389 59.742 C 62.725 57.951, 64.125 54.371, 65.500 51.788 C 66.875 49.205, 68 46.380, 68 45.511 C 68 44.641, 68.647 42.933, 69.438 41.715 C 73.142 36.008, 75.392 25.398, 74.255 19 C 73.580 15.204, 73.067 14.459, 70.978 14.239 C 69.393 14.072, 67.664 14.870, 66.179 16.453 M 103.362 25.500 C 103.045 26.325, 102.246 27, 101.585 27 C 100.925 27, 99.544 28.913, 98.516 31.250 C 93.477 42.710, 91.338 46.909, 86.859 54.131 C 84.186 58.440, 82 62.361, 82 62.845 C 82 63.329, 80.650 65.424, 79 67.500 C 76.726 70.362, 76 72.307, 76 75.539 C 76 79.255, 76.418 80.073, 79.250 81.895 L 82.500 83.987 84.500 81.628 C 85.600 80.331, 87.753 78.972, 89.284 78.607 C 91.040 78.190, 92.464 76.939, 93.140 75.222 C 95.820 68.412, 97.390 65.219, 99.886 61.500 C 101.362 59.300, 103.203 55.925, 103.978 54 C 104.752 52.075, 107.548 48.048, 110.192 45.050 C 115.412 39.133, 116.100 36.305, 113 33.500 C 111.900 32.505, 111 31.064, 111 30.300 C 111 28.662, 106.570 24, 105.014 24 C 104.422 24, 103.678 24.675, 103.362 25.500" stroke="none" fill="black" fill-rule="evenodd"/>
</svg>