<svg xmlns="http://www.w3.org/2000/svg" width="300" height="300" viewBox="0 0 300 300" version="1.1">
	<path d="M 183 8.870 L 179.500 10.530 179.773 22.515 C 179.923 29.107, 180.272 44.513, 180.548 56.750 C 180.824 68.988, 181.489 80.155, 182.025 81.565 C 182.561 82.976, 183 86.515, 183 89.430 C 183 95.573, 185.702 100, 189.450 100 C 192.984 100, 194.353 97.622, 193.627 92.742 C 193.280 90.409, 192.373 84.225, 191.611 79 C 189.936 67.500, 189.447 28.460, 190.967 27.520 C 191.535 27.169, 192 25.322, 192 23.416 C 192 18.535, 194.878 17.596, 207 18.521 C 220.587 19.559, 238.107 19.070, 242.627 17.527 C 245.225 16.641, 246.808 15.355, 247.436 13.622 C 249.031 9.221, 249.866 9.398, 223.500 8.552 C 215.250 8.288, 203.550 7.877, 197.500 7.641 C 188.669 7.295, 185.810 7.537, 183 8.870 M 184 73.941 C 184 74.459, 184.450 75.160, 185 75.500 C 185.550 75.840, 186 75.416, 186 74.559 C 186 73.702, 185.550 73, 185 73 C 184.450 73, 184 73.423, 184 73.941" stroke="none" fill="black" fill-rule="evenodd"/>
</svg>