<svg xmlns="http://www.w3.org/2000/svg" width="300" height="300" viewBox="0 0 300 300" version="1.1">
	<path d="M 104.923 132.923 C 103.315 134.531, 102 136.795, 102 137.954 C 102 139.114, 101.370 140.305, 100.599 140.600 C 99.829 140.896, 97.774 144.819, 96.034 149.319 C 90.792 162.871, 89.682 165.431, 88.346 167.042 C 87.643 167.889, 85.905 171.714, 84.484 175.542 C 83.063 179.369, 79.868 186.550, 77.384 191.500 C 72.794 200.647, 72.507 203.181, 75.868 204.881 C 81.255 207.606, 90.140 198.422, 89.864 190.414 C 89.761 187.453, 91.511 182.727, 97.051 171 C 101.078 162.475, 105.634 153.913, 107.174 151.974 C 112.551 145.204, 114.511 132.178, 110.391 130.597 C 108.128 129.728, 108.111 129.735, 104.923 132.923 M 147.223 137.233 C 145.740 137.947, 144.573 139.810, 143.877 142.573 C 143.216 145.201, 142.131 146.994, 141.029 147.282 C 140.050 147.538, 137.852 150.617, 136.143 154.124 C 131.831 162.976, 128.043 173.378, 119.809 198.976 C 118.664 202.537, 116.868 206.612, 115.820 208.030 C 113.440 211.249, 114.178 213.317, 118.646 215.954 C 120.554 217.079, 122.259 218, 122.435 218 C 122.612 218, 123.784 215.188, 125.041 211.750 C 126.298 208.313, 127.646 205.050, 128.038 204.500 C 128.430 203.950, 130.367 198.550, 132.342 192.500 C 137.127 177.840, 140.922 167.713, 142.065 166.550 C 142.579 166.027, 143 164.874, 143 163.987 C 143 163.100, 144.350 161.081, 146 159.500 C 147.650 157.919, 149 156.017, 149 155.273 C 149 154.529, 149.900 152.156, 151 150 C 153.228 145.633, 153.640 139.040, 151.800 137.200 C 150.392 135.792, 150.209 135.794, 147.223 137.233" stroke="none" fill="black" fill-rule="evenodd"/>
</svg>