<svg xmlns="http://www.w3.org/2000/svg" width="300" height="300" viewBox="0 0 300 300" version="1.1">
	<path d="M 240.455 26.455 C 239.105 27.805, 238 29.986, 238 31.301 C 238 33.519, 239.347 35.314, 248.283 45.009 C 250.062 46.938, 252.825 51.101, 254.422 54.259 C 256.020 57.416, 257.698 60, 258.151 60 C 258.604 60, 260.050 61.687, 261.364 63.750 C 262.678 65.813, 265.598 69.583, 267.854 72.128 C 271.591 76.345, 272.247 76.697, 275.228 76.087 C 278.381 75.442, 278.502 75.238, 278.547 70.504 C 278.591 65.772, 278.373 65.384, 272.657 60.045 C 269.393 56.995, 266.070 53.150, 265.274 51.500 C 261.838 44.379, 259.809 41.406, 254.564 35.810 C 251.504 32.545, 249 29.252, 249 28.493 C 249 27.131, 245.329 24, 243.732 24 C 243.279 24, 241.805 25.105, 240.455 26.455 M 190 34.729 C 186.131 36.202, 186.103 39.899, 189.903 47.610 C 191.499 50.849, 193.738 55.609, 194.878 58.186 C 196.018 60.764, 199.833 67.058, 203.355 72.173 C 209.561 81.185, 214.722 85.704, 217.562 84.615 C 218.272 84.342, 219.392 84.767, 220.049 85.559 C 220.707 86.352, 222.430 87, 223.879 87 C 226.081 87, 226.720 86.338, 227.773 82.964 C 228.994 79.050, 228.183 75, 226.178 75 C 224.886 75, 218.347 65.610, 215.608 59.820 C 212.910 54.116, 205.038 42.976, 199.660 37.250 C 196.699 34.097, 193.710 33.317, 190 34.729" stroke="none" fill="black" fill-rule="evenodd"/>
</svg>