<svg xmlns="http://www.w3.org/2000/svg" width="300" height="300" viewBox="0 0 300 300" version="1.1">
	<path d="M 122.247 79.750 C 120.658 81.157, 120.019 83.850, 118.979 93.500 C 116.658 115.057, 116.391 132.772, 117.962 161 C 118.559 171.725, 119.292 197.573, 119.590 218.439 C 119.888 239.306, 120.541 257.141, 121.040 258.074 C 122.195 260.233, 126.928 261.474, 128.395 260.002 C 129.764 258.629, 129.417 199.121, 127.922 178.898 C 127.369 171.417, 126.750 148.503, 126.546 127.979 C 126.119 84.929, 125.931 86, 133.919 86 C 137.965 86, 139.073 86.480, 142 89.500 C 143.866 91.425, 145.927 93, 146.580 93 C 147.698 93, 148.956 90.002, 148.986 87.263 C 149.004 85.674, 142.422 82.901, 140.438 83.662 C 139.606 83.981, 138.072 83.470, 137.029 82.526 C 135.008 80.697, 128.579 78.117, 125.861 78.044 C 124.959 78.020, 123.333 78.787, 122.247 79.750" stroke="none" fill="black" fill-rule="evenodd"/>
</svg>