<svg xmlns="http://www.w3.org/2000/svg" width="300" height="300" viewBox="0 0 300 300" version="1.1">
	<path d="M 139.500 150.400 C 129.919 152.021, 124.096 154.741, 123.323 157.957 C 122.987 159.356, 121.427 163.075, 119.856 166.221 C 115.388 175.172, 116.257 183.236, 122.670 192.334 C 125.385 196.186, 126.334 196.749, 132.586 198.223 C 137.971 199.492, 140.796 199.640, 145.360 198.895 C 153.381 197.585, 156.524 195.731, 160.078 190.214 C 163.024 185.642, 163.100 185.229, 162.596 176.500 C 162.105 167.981, 160.722 161.759, 158.019 155.906 C 156.975 153.646, 149.282 148.801, 147.223 149.108 C 146.825 149.167, 143.350 149.749, 139.500 150.400 M 136.627 158.229 C 136.184 159.857, 136.639 161.022, 138.234 162.346 C 140.384 164.130, 140.396 164.238, 138.591 165.557 C 137.223 166.557, 136.205 166.645, 134.784 165.884 C 131.920 164.352, 130.254 165.424, 127.867 170.337 C 125.134 175.962, 125.880 180.667, 130.168 184.860 C 133.879 188.489, 137.380 189.410, 143.993 188.501 C 148.221 187.919, 149.191 187.342, 150.953 184.355 C 154.046 179.113, 153.809 169.236, 150.452 163.508 C 148.268 159.781, 147.303 159.060, 143.702 158.467 C 141.391 158.086, 138.992 157.365, 138.372 156.866 C 137.617 156.258, 137.040 156.708, 136.627 158.229" stroke="none" fill="black" fill-rule="evenodd"/>
</svg>