<svg xmlns="http://www.w3.org/2000/svg" width="300" height="300" viewBox="0 0 300 300" version="1.1">
	<path d="M 103.242 151.034 C 100.318 152.209, 98.250 156.588, 99.606 158.737 C 100.154 159.606, 102.036 161.087, 103.788 162.026 C 105.540 162.966, 109.427 165.831, 112.426 168.393 C 115.426 170.955, 119.369 173.678, 121.190 174.444 C 123.010 175.210, 125.822 177.223, 127.437 178.918 C 129.052 180.613, 131.337 182, 132.513 182 C 134.956 182, 139 178.140, 139 175.808 C 139 172.658, 135.963 167, 134.272 167 C 133.336 167, 131.655 166.094, 130.535 164.986 C 129.416 163.878, 125.575 161.092, 122 158.795 C 118.425 156.498, 114.228 153.579, 112.673 152.309 C 109.706 149.885, 107.008 149.521, 103.242 151.034" stroke="none" fill="black" fill-rule="evenodd"/>
</svg>