<svg xmlns="http://www.w3.org/2000/svg" width="300" height="300" viewBox="0 0 300 300" version="1.1">
	<path d="M 51.192 223.295 C 49.987 224.579, 49 226.337, 49 227.203 C 49 228.069, 48.245 228.715, 47.323 228.639 C 44.113 228.373, 42.166 236.637, 42.591 248.727 C 42.800 254.652, 42.977 261.075, 42.986 263 C 43.004 266.930, 44.475 280.571, 46.140 292.250 L 47.244 300 53.157 300 C 58.738 300, 59.011 299.889, 58.012 298.023 C 56.330 294.879, 54.130 277.452, 53.971 266 C 53.836 256.340, 55.793 239.031, 57.870 231.507 C 58.496 229.242, 58.289 227.461, 57.116 225.015 C 55.061 220.730, 53.915 220.397, 51.192 223.295" stroke="none" fill="black" fill-rule="evenodd"/>
</svg>