<svg xmlns="http://www.w3.org/2000/svg" width="300" height="300" viewBox="0 0 300 300" version="1.1">
	<path d="M 146 88.702 C 142.425 89.372, 132.750 90.872, 124.500 92.036 C 103.281 95.031, 100.930 95.479, 97 97.277 C 95.075 98.157, 92.263 99.139, 90.750 99.458 C 88.741 99.882, 88 100.642, 88 102.279 C 88 106.239, 90.978 107.118, 98.677 105.430 C 120.927 100.552, 126.040 100.232, 121.500 104 C 120.675 104.685, 120 105.676, 120 106.202 C 120 107.324, 115.325 119.707, 113.946 122.236 C 113.426 123.191, 113 124.475, 113 125.090 C 113 126.509, 102.590 149.795, 98.837 156.773 C 95.341 163.270, 95.320 164.320, 98.631 166.924 C 103.813 171.001, 111.631 171.875, 129.500 170.379 C 140.458 169.461, 150.302 169.079, 170.500 168.788 L 190.500 168.500 190.818 170.739 C 190.993 171.971, 189.991 175.121, 188.592 177.739 C 187.192 180.358, 185.635 184.300, 185.131 186.500 C 184.628 188.700, 182.567 195, 180.553 200.500 C 174.163 217.944, 171.706 232.988, 174.117 239.906 C 175.042 242.560, 175.686 243.058, 177.867 242.805 C 180.382 242.514, 180.529 242.164, 181.149 235 C 182.130 223.665, 185.020 213.142, 196.554 178.898 C 197.962 174.717, 199.366 168.854, 199.674 165.868 C 200.373 159.094, 199.167 157.750, 193.467 158.950 C 184.667 160.803, 109.743 162.144, 108.078 160.478 C 107.115 159.515, 115.015 138.531, 119.363 130.500 C 120.257 128.850, 120.990 126.906, 120.994 126.180 C 120.999 124.997, 124.957 114.537, 128.463 106.437 C 129.284 104.541, 129.457 102.781, 128.917 101.816 C 127.958 100.103, 126.918 100.364, 145.966 97.540 C 161.135 95.291, 160.585 94.369, 158.539 118.595 C 156.776 139.480, 157.324 152.270, 160 152.736 C 164.665 153.549, 165.337 150.289, 167.086 118.402 C 168.160 98.811, 168.136 95.061, 166.921 92.558 C 164.623 87.821, 157.609 86.529, 146 88.702" stroke="none" fill="black" fill-rule="evenodd"/>
</svg>