<svg xmlns="http://www.w3.org/2000/svg" width="300" height="300" viewBox="0 0 300 300" version="1.1">
	<path d="M 150.732 164.558 C 145.799 167.275, 127.835 171.117, 113.868 172.442 C 106.371 173.154, 99.764 174.028, 99.187 174.384 C 98.610 174.741, 92.594 175.215, 85.819 175.437 C 78.872 175.665, 71.101 176.527, 68 177.414 C 64.975 178.279, 59.413 179.669, 55.639 180.503 C 51.865 181.337, 48.371 182.270, 47.875 182.577 C 46.429 183.471, 43 190.734, 43 192.901 C 43 195.403, 44.693 196.500, 46.386 195.095 C 47.100 194.502, 47.981 194.315, 48.345 194.678 C 48.708 195.042, 51.142 194.400, 53.753 193.252 C 60.900 190.110, 72.196 186.868, 77.121 186.545 C 79.530 186.387, 81.500 186.153, 81.500 186.025 C 81.500 185.897, 85.375 185.679, 90.110 185.541 C 94.846 185.404, 99.172 185.012, 99.724 184.671 C 100.675 184.083, 108.045 183.104, 128.500 180.846 C 138.703 179.720, 140.813 179.633, 146.674 180.092 C 148.970 180.272, 151.895 179.935, 153.174 179.343 C 159.981 176.195, 161 175.568, 161 174.531 C 161 173.909, 160.469 172.869, 159.821 172.221 C 159.172 171.572, 158.609 169.344, 158.571 167.271 C 158.509 163.999, 158.169 163.469, 156 163.267 C 154.625 163.138, 152.254 163.719, 150.732 164.558" stroke="none" fill="black" fill-rule="evenodd"/>
</svg>