<svg xmlns="http://www.w3.org/2000/svg" width="300" height="300" viewBox="0 0 300 300" version="1.1">
	<path d="M 162.587 71.860 C 161.713 73.274, 164.379 77.984, 166.059 77.992 C 166.916 77.996, 168.435 77.403, 169.433 76.672 C 171.119 75.440, 170.985 75.189, 167.567 73.172 C 163.390 70.708, 163.312 70.687, 162.587 71.860 M 181.317 104.424 C 180.541 105.308, 176.234 106.034, 168.817 106.530 C 152.904 107.594, 150.462 107.822, 142 109.027 C 132.443 110.389, 99.587 110.385, 97.041 109.022 C 93.111 106.919, 88.173 107.815, 84.341 111.326 L 80.711 114.653 83.044 116.826 C 84.365 118.057, 86.705 119.010, 88.439 119.024 C 90.122 119.037, 93.300 119.530, 95.500 120.120 C 101.776 121.803, 134.111 121.848, 136.178 120.176 C 138.040 118.671, 141.964 119.432, 142.060 121.317 C 142.139 122.860, 142.636 129.836, 143.666 143.846 C 144.189 150.963, 144.142 155.413, 143.540 155.785 C 143.011 156.111, 138.488 156.259, 133.489 156.114 C 125.668 155.886, 123.428 156.220, 117.449 158.504 C 99.635 165.310, 94.054 170.100, 90.133 181.944 C 86.980 191.470, 87.649 198.507, 92.233 204.024 C 93.748 205.847, 104.082 212.734, 106.671 213.647 C 107.677 214.001, 110.975 215.406, 114 216.769 C 128.537 223.317, 146.030 228.030, 148.455 226.052 C 149.030 225.583, 153.787 224.999, 159.028 224.754 C 164.268 224.509, 169.443 223.850, 170.528 223.289 C 171.612 222.729, 173.106 222.487, 173.848 222.751 C 174.589 223.015, 176.483 222.280, 178.057 221.116 C 179.631 219.952, 181.782 219, 182.837 219 C 183.892 219, 185.315 218.325, 186 217.500 C 186.685 216.675, 187.810 216, 188.500 216 C 189.190 216, 190.315 215.325, 191 214.500 C 191.685 213.675, 193.072 213, 194.083 213 C 196.119 213, 196.877 212.257, 200.531 206.681 C 201.907 204.581, 202.774 202.443, 202.458 201.931 C 201.578 200.509, 196.282 200.823, 195.703 202.332 C 195.422 203.065, 192.786 204.812, 189.846 206.215 C 184.888 208.581, 182.267 209.633, 173 212.981 C 164.421 216.079, 145.755 216.812, 136.500 214.414 C 133.200 213.559, 129.205 212.606, 127.622 212.297 C 126.033 211.987, 124.536 210.941, 124.280 209.962 C 123.999 208.890, 122.468 207.935, 120.408 207.549 C 118.534 207.197, 117 206.449, 117 205.887 C 117 205.300, 116.096 205.152, 114.875 205.540 C 113.706 205.911, 112.469 205.791, 112.125 205.274 C 111.146 203.801, 100.359 199, 98.031 199 C 95.601 199, 94.231 196.369, 95.828 194.772 C 96.621 193.979, 96.482 192.931, 95.325 190.974 C 93.807 188.402, 93.867 188.006, 96.559 182.885 C 101.852 172.818, 107.589 168.300, 118.783 165.384 C 125.256 163.698, 140.359 163.959, 142.188 165.788 C 142.855 166.455, 143.915 167, 144.545 167 C 145.175 167, 146.505 167.900, 147.500 169 C 149.931 171.686, 150.838 171.521, 151.615 168.250 C 151.975 166.738, 152.902 164.769, 153.676 163.875 C 154.814 162.561, 154.887 161.028, 154.057 155.875 C 152.154 144.068, 151.584 126.290, 152.974 122.080 L 154.250 118.212 161.875 117.445 C 166.069 117.023, 172.522 116.734, 176.215 116.801 C 179.908 116.868, 183.197 116.490, 183.524 115.961 C 183.851 115.433, 185.216 115, 186.559 115 C 188.243 115, 189 114.442, 189 113.200 C 189 112.210, 189.563 110.832, 190.250 110.138 C 191.252 109.126, 190.806 108.299, 188 105.965 C 184.089 102.712, 183.033 102.469, 181.317 104.424 M 129.500 116 C 129.160 116.550, 129.359 117, 129.941 117 C 130.523 117, 131 116.550, 131 116 C 131 115.450, 130.802 115, 130.559 115 C 130.316 115, 129.840 115.450, 129.500 116 M 181 131.941 C 181 132.459, 181.450 133.160, 182 133.500 C 182.550 133.840, 183 133.416, 183 132.559 C 183 131.702, 182.550 131, 182 131 C 181.450 131, 181 131.423, 181 131.941 M 172.207 183.193 C 170.818 184.582, 170.561 190, 171.885 190 C 172.372 190, 173.541 188.823, 174.484 187.384 C 175.948 185.150, 175.995 184.566, 174.806 183.377 C 173.719 182.290, 173.150 182.250, 172.207 183.193 M 164 191 C 164 192.100, 164.434 193, 164.965 193 C 165.495 193, 166.411 192.100, 167 191 C 167.907 189.305, 167.760 189, 166.035 189 C 164.667 189, 164 189.655, 164 191 M 154.218 198.154 C 154.464 198.895, 155.468 199.655, 156.448 199.846 C 157.588 200.066, 158.069 199.706, 157.782 198.846 C 157.536 198.105, 156.532 197.345, 155.552 197.154 C 154.412 196.934, 153.931 197.294, 154.218 198.154 M 159 198 C 159 198.550, 159.702 199, 160.559 199 C 161.416 199, 161.840 198.550, 161.500 198 C 161.160 197.450, 160.459 197, 159.941 197 C 159.423 197, 159 197.450, 159 198 M 150.079 203.583 C 150.127 204.748, 150.364 204.985, 150.683 204.188 C 150.972 203.466, 150.936 202.603, 150.604 202.271 C 150.272 201.939, 150.036 202.529, 150.079 203.583" stroke="none" fill="black" fill-rule="evenodd"/>
</svg>