<svg xmlns="http://www.w3.org/2000/svg" width="300" height="300" viewBox="0 0 300 300" version="1.1">
	<path d="M 68.841 115.250 C 65.903 118.138, 62.733 121.963, 61.797 123.750 C 60.860 125.537, 59.711 127, 59.245 127 C 58.779 127, 57.447 124.751, 56.285 122.002 C 53.802 116.123, 52.207 115.251, 47.885 117.408 C 46.129 118.283, 44.235 119, 43.675 119 C 43.115 119, 41.851 119.730, 40.866 120.621 C 38.664 122.614, 36 121.762, 36 119.067 C 36 117.969, 35.157 116.619, 34.126 116.067 C 32.675 115.291, 31.836 115.524, 30.409 117.101 C 28.766 118.916, 28.526 121.446, 28.207 140.319 C 28.010 151.968, 27.876 169.110, 27.909 178.411 C 27.964 193.916, 28.133 195.475, 29.943 197.161 C 31.028 198.173, 32.782 199, 33.840 199 C 35.416 199, 35.774 198.260, 35.821 194.905 C 35.853 192.599, 36.507 190.306, 37.320 189.655 C 38.467 188.737, 38.890 183.772, 39.386 165.417 C 40.031 141.514, 41.349 132.897, 44.768 130.250 C 49.999 126.199, 51.035 130.389, 50.446 153.234 C 49.756 180.024, 51.755 192, 56.918 192 C 58.985 192, 59.760 188.792, 60.542 177 C 61.594 161.132, 64.262 140.260, 65.571 137.669 C 66.357 136.112, 67 134.160, 67 133.332 C 67 131.189, 73.159 122.887, 74.435 123.309 C 76.153 123.878, 77.046 134.628, 76.392 146.888 C 75.811 157.794, 76.765 170.146, 79.197 183.220 C 80.005 187.565, 80.872 189.341, 82.803 190.606 C 86.233 192.854, 88.612 191.365, 88.185 187.240 C 88.012 185.567, 88.349 183.902, 88.935 183.540 C 90.640 182.486, 90.165 179.159, 88.155 178.083 C 86.609 177.256, 86.166 175.184, 85.420 165.298 C 84.930 158.809, 84.670 148.550, 84.841 142.500 C 85.277 127.103, 84.162 113.305, 82.333 111.476 C 81.521 110.664, 79.355 110, 77.520 110 C 74.838 110, 73.132 111.032, 68.841 115.250 M 108.500 119.180 C 107.400 119.793, 106.348 120.418, 106.163 120.568 C 103.892 122.407, 101.948 191.283, 103.992 197.476 C 105.054 200.694, 108.342 202.992, 109.799 201.535 C 111.887 199.447, 113.919 185.467, 113.958 172.928 C 113.984 164.411, 114.508 157.707, 115.364 154.928 C 116.115 152.493, 117.233 148.382, 117.849 145.794 C 119.169 140.245, 125.435 130, 127.508 130 C 128.303 130, 129.736 131.194, 130.693 132.654 C 132.240 135.015, 132.441 138.564, 132.516 164.912 C 132.595 192.316, 132.745 194.759, 134.539 197.796 C 137.195 202.293, 140.387 201.886, 140.786 197 C 140.943 195.075, 141.499 192.375, 142.021 191 C 142.544 189.625, 143.192 183.100, 143.462 176.500 C 143.732 169.900, 144.355 158.941, 144.847 152.147 L 145.740 139.794 149.353 136.180 C 154.161 131.373, 155.126 132.524, 156.092 144.212 C 156.515 149.321, 157.358 156.875, 157.967 161 C 158.576 165.125, 159.341 171.282, 159.668 174.682 C 160.392 182.206, 164.050 187.364, 169.794 188.960 C 175.083 190.429, 178.968 190.246, 179.639 188.498 C 180.651 185.860, 179.117 182.246, 176.731 181.647 C 175.473 181.332, 173.279 179.819, 171.855 178.287 C 169.482 175.732, 169.091 174, 167.168 157.500 C 166.014 147.600, 164.791 135.950, 164.450 131.611 C 163.810 123.463, 162.482 119.085, 160.589 118.885 C 158.016 118.613, 155.580 119.286, 152.641 121.081 C 150.913 122.136, 148.327 123.471, 146.893 124.047 C 145.460 124.624, 143.696 126.199, 142.974 127.548 C 140.702 131.795, 138 130.126, 138 124.475 C 138 123.168, 137.007 121.418, 135.777 120.557 C 130.502 116.861, 121.483 120.444, 116.500 128.213 C 114.850 130.786, 113.185 132.916, 112.800 132.946 C 112.414 132.976, 112.189 129.784, 112.300 125.854 C 112.509 118.386, 111.886 117.292, 108.500 119.180" stroke="none" fill="black" fill-rule="evenodd"/>
</svg>