<svg xmlns="http://www.w3.org/2000/svg" width="300" height="300" viewBox="0 0 300 300" version="1.1">
	<path d="M 118.228 24.039 C 115.184 25.262, 114.555 27.300, 116.178 30.685 C 117.348 33.127, 118.005 33.449, 121.242 33.171 C 123.287 32.994, 127.487 33.375, 130.575 34.016 C 133.663 34.657, 137.609 35.362, 139.344 35.584 C 141.080 35.805, 144.975 36.466, 148 37.052 C 158.597 39.105, 161.405 39.204, 163.500 37.601 C 165.467 36.095, 165.451 36.030, 162.500 33.571 C 160.811 32.164, 158.189 31.056, 156.500 31.035 C 154.850 31.015, 151.250 30.151, 148.500 29.113 C 145.750 28.076, 140.617 26.899, 137.094 26.498 C 133.570 26.096, 129.197 25.145, 127.376 24.384 C 123.613 22.812, 121.484 22.731, 118.228 24.039 M 188.500 55.023 C 183 56.063, 172.228 57.642, 164.561 58.533 C 156.895 59.423, 148.789 60.774, 146.548 61.535 C 141.729 63.171, 123.668 64.982, 105.500 65.652 C 98.350 65.915, 90.789 66.508, 88.699 66.970 C 86.438 67.470, 83.429 67.405, 81.275 66.810 C 78.032 65.915, 77.463 66.056, 75.848 68.155 C 73.184 71.619, 73.569 74.248, 77.029 76.217 C 79.307 77.513, 80.667 77.697, 82.586 76.967 C 83.983 76.436, 87.685 76.034, 90.813 76.073 C 93.941 76.113, 99.650 75.724, 103.500 75.209 C 107.350 74.694, 117.025 73.516, 125 72.591 C 132.975 71.666, 140.850 70.503, 142.500 70.008 C 144.150 69.513, 150.900 68.374, 157.500 67.478 C 164.100 66.582, 173.606 65.208, 178.624 64.425 C 183.642 63.641, 189.352 63, 191.312 63 C 193.272 63, 197.925 62.293, 201.651 61.429 C 209.621 59.580, 215 60.189, 215 62.938 C 215 64.977, 213.124 66, 209.387 66 C 206.448 66, 205.171 68.600, 207.142 70.571 C 208.329 71.758, 209.509 71.788, 214.435 70.754 C 219.893 69.610, 220.442 69.236, 222.134 65.511 C 224.287 60.772, 224.461 58.002, 222.750 55.700 C 220.738 52.993, 201.266 52.608, 188.500 55.023 M 140 96.719 C 132.025 97.416, 123.311 98.664, 120.635 99.493 C 117.960 100.322, 114.616 101, 113.206 101 C 111.796 101, 109.260 101.434, 107.571 101.965 C 105.882 102.496, 103.276 103.176, 101.780 103.477 C 100.283 103.777, 97.398 105.818, 95.369 108.012 C 93.339 110.205, 91.076 112, 90.339 112 C 88.649 112, 88.504 119.104, 90.160 120.760 C 90.972 121.572, 91.252 127.323, 91.094 139.916 C 90.888 156.222, 91.061 158.350, 92.934 162.583 C 94.070 165.152, 95 168.027, 95 168.972 C 95 169.917, 95.835 171.446, 96.857 172.370 C 98.335 173.708, 98.918 173.791, 99.719 172.775 C 101.539 170.467, 102.083 166.022, 100.826 163.729 C 99.610 161.512, 99.438 134.677, 100.614 130.742 C 100.903 129.775, 100.587 126.514, 99.912 123.496 C 98.793 118.497, 98.854 117.819, 100.592 115.890 C 102.575 113.690, 112.024 108.690, 112.776 109.443 C 113.012 109.679, 114.397 109.411, 115.853 108.846 C 119.279 107.518, 138.127 104.836, 139.725 105.448 C 140.400 105.707, 142.465 105.286, 144.316 104.512 C 146.595 103.560, 151.580 103.116, 159.750 103.137 C 166.870 103.155, 172.684 102.704, 173.930 102.038 C 175.091 101.416, 176.393 101.125, 176.822 101.390 C 177.251 101.655, 180.240 102.123, 183.464 102.428 C 192.669 103.302, 194.776 106.714, 191.625 115.644 C 190.869 117.787, 189.936 122.006, 189.551 125.020 C 188.557 132.798, 185.955 142.238, 184.321 144 C 183.234 145.172, 180.071 145.527, 169.851 145.625 C 160.078 145.719, 156.562 146.091, 155.940 147.096 C 155.483 147.836, 154.802 148.135, 154.427 147.761 C 154.053 147.386, 152.173 147.736, 150.251 148.540 C 148.329 149.343, 144.808 150, 142.427 150 C 140.046 150, 135.939 150.441, 133.299 150.979 C 130.660 151.518, 123.264 152.135, 116.864 152.350 C 101.767 152.857, 100.146 153.891, 105.865 159.371 L 108.730 162.116 116.615 160.623 C 120.952 159.802, 125.175 159.106, 126 159.076 C 130.055 158.929, 137.989 157.257, 139.169 156.301 C 139.901 155.708, 143.790 155.044, 147.811 154.825 C 154.794 154.446, 155.092 154.519, 154.466 156.464 C 151.632 165.272, 149.767 209.348, 150.995 238.500 C 152.177 266.557, 152.204 273, 151.140 273 C 150.667 273, 148.563 271.381, 146.465 269.402 C 144.366 267.423, 139.485 264.264, 135.617 262.381 C 131.750 260.499, 127.637 258.068, 126.478 256.980 C 121.381 252.191, 117.890 256.424, 122.865 261.361 C 124.606 263.087, 127.363 266.300, 128.992 268.500 C 133.560 274.668, 136.077 276.870, 141.501 279.447 C 144.252 280.754, 148.273 283.230, 150.436 284.949 C 155.295 288.810, 157.290 288.559, 158.050 283.989 C 158.369 282.070, 159.128 279.583, 159.736 278.462 C 160.511 277.036, 160.820 259.475, 160.767 219.962 C 160.699 169.288, 160.860 163.171, 162.345 160.299 C 163.255 158.539, 164 155.952, 164 154.550 C 164 152.188, 165.010 151.445, 167.500 151.977 C 168.050 152.094, 171.359 152.152, 174.853 152.105 C 180.238 152.034, 181.114 152.260, 180.603 153.592 C 180.271 154.456, 180 155.352, 180 155.582 C 180 155.812, 179.373 156, 178.607 156 C 176.682 156, 175.722 158.960, 177.105 160.627 C 178.597 162.424, 180.179 162.359, 184.440 160.327 C 186.467 159.360, 188.311 157.566, 188.808 156.077 C 189.584 153.748, 190.167 153.500, 194.870 153.500 C 198.407 153.500, 200.376 153.020, 201.020 152 C 202.443 149.747, 201.769 148.687, 197.601 146.622 C 193.218 144.451, 193.198 145.726, 197.893 127.500 C 200.131 118.814, 200.986 113.203, 200.992 107.184 C 201.005 94.028, 202.697 94.864, 176.691 95.181 C 164.486 95.330, 147.975 96.022, 140 96.719 M 104.609 166.423 C 105.356 168.371, 108 169.270, 108 167.576 C 108 166.827, 107.288 165.941, 106.418 165.607 C 104.173 164.745, 103.996 164.825, 104.609 166.423 M 124.264 185.750 C 122.336 187.813, 119.900 191.394, 118.851 193.709 C 117.802 196.023, 116.550 198.160, 116.070 198.457 C 114.835 199.220, 108.878 208.408, 105.020 215.500 C 103.225 218.800, 100.799 222.625, 99.628 224 C 96.866 227.244, 95 230.617, 95 232.364 C 95 233.129, 94.332 234.310, 93.515 234.988 C 91.516 236.647, 82 256.398, 82 258.888 C 82 261.683, 85.664 262.614, 88.076 260.431 C 89.139 259.469, 90.501 256.841, 91.102 254.591 C 91.703 252.341, 92.554 250.050, 92.991 249.500 C 93.938 248.310, 97.006 242.865, 101.653 234.127 C 103.517 230.623, 106.157 226.877, 107.521 225.805 C 108.884 224.732, 110 223.450, 110 222.956 C 110 222.462, 112.025 218.632, 114.500 214.446 C 116.975 210.260, 119 206.154, 119 205.322 C 119 202.493, 122.378 198.076, 124.977 197.505 C 131.075 196.166, 135.410 187.608, 132.044 183.553 C 130.034 181.131, 128.061 181.689, 124.264 185.750 M 187.034 204.459 C 185.272 206.582, 186.686 211.564, 189.592 213.468 C 190.947 214.356, 192.461 214.833, 192.956 214.527 C 193.451 214.221, 194.118 214.765, 194.438 215.735 C 195.335 218.453, 204.849 224.175, 209.416 224.743 C 211.708 225.029, 214.597 226.260, 216 227.549 C 217.375 228.812, 219.625 229.870, 221 229.900 C 228.161 230.057, 243.226 231.941, 248.500 233.338 C 254.483 234.924, 276.111 235.662, 279.418 234.393 C 280.288 234.059, 281 232.971, 281 231.975 C 281 230.207, 277.183 229.525, 264 228.936 C 257.693 228.654, 244.618 226.540, 235.500 224.327 C 217.838 220.041, 216.550 219.659, 213.500 217.818 C 211.850 216.822, 209.950 216.006, 209.278 216.004 C 208.606 216.002, 204.223 213.075, 199.537 209.500 C 190.626 202.701, 189.028 202.056, 187.034 204.459" stroke="none" fill="black" fill-rule="evenodd"/>
</svg>