<svg xmlns="http://www.w3.org/2000/svg" width="300" height="300" viewBox="0 0 300 300" version="1.1">
	<path d="M 92 65.066 C 92 65.652, 92.486 67.039, 93.080 68.149 C 93.910 69.701, 93.805 70.558, 92.624 71.862 C 90.831 73.844, 88.047 83.289, 87.088 90.646 C 86.719 93.476, 85.932 96.401, 85.339 97.146 C 84.746 97.891, 83.698 100.300, 83.011 102.500 C 82.324 104.700, 80.554 108.525, 79.077 111 C 77.601 113.475, 75.772 117.075, 75.012 119 C 74.253 120.925, 72.589 124.067, 71.316 125.982 C 70.042 127.897, 68.993 129.922, 68.984 130.482 C 68.968 131.472, 66.228 134.830, 59.586 142 C 53.715 148.338, 47.886 152.690, 41.388 155.588 C 37.864 157.160, 35.133 158.908, 35.318 159.473 C 35.503 160.038, 37.331 160.641, 39.380 160.814 C 43.725 161.179, 50.050 158.419, 55.005 153.996 C 56.850 152.348, 58.842 150.999, 59.430 150.997 C 60.019 150.996, 61.400 149.647, 62.500 148 C 63.600 146.353, 64.816 145.004, 65.202 145.003 C 65.588 145.001, 67.297 142.975, 69 140.500 C 74.949 131.853, 74.987 132.053, 74.909 172.250 C 74.868 193.011, 75.348 214.055, 76.031 221.500 C 76.963 231.662, 76.952 239.801, 75.981 258.777 C 74.809 281.678, 74.840 283.165, 76.524 285.027 C 78.756 287.493, 81.999 287.625, 82.004 285.250 C 82.006 284.288, 82.906 282.027, 84.004 280.226 C 86.333 276.406, 86.562 270.326, 84.480 267.575 C 83.342 266.071, 83.185 264.099, 83.761 258.575 C 84.168 254.684, 84.423 244.750, 84.329 236.500 C 84.236 228.250, 84.143 219.007, 84.125 215.959 C 84.106 212.912, 83.691 209.339, 83.203 208.021 C 82.667 206.570, 82.704 204.595, 83.298 203.021 C 83.984 201.204, 83.832 197.715, 82.794 191.459 C 81.731 185.050, 81.587 181.504, 82.289 179 C 83.215 175.694, 82.592 133.602, 81.536 128.167 C 80.795 124.352, 82.137 119.777, 84.152 119.250 C 85.512 118.894, 86 117.829, 86 115.212 C 86 113.257, 86.581 110.947, 87.290 110.079 C 90.586 106.045, 99.039 78.761, 99.010 72.250 C 99.005 71.013, 99.450 70, 100 70 C 100.550 70, 101 68.886, 101 67.525 C 101 65.308, 100.687 65.113, 98 65.650 C 96.089 66.032, 95 65.842, 95 65.125 C 95 64.506, 94.325 64, 93.500 64 C 92.675 64, 92 64.480, 92 65.066 M 227.583 64.750 C 227.171 65.162, 222.033 65.581, 216.167 65.679 C 210.300 65.777, 200.550 66.308, 194.500 66.857 C 176.992 68.448, 162.592 70.001, 161.405 70.426 C 160.802 70.642, 157.427 70.448, 153.905 69.995 C 147.147 69.127, 130.925 71.286, 128.088 73.432 C 127.312 74.019, 125.777 74.500, 124.677 74.500 C 120.074 74.500, 122.502 76.676, 129.468 78.795 C 134.608 80.358, 139.543 81.078, 145.268 81.099 C 149.846 81.116, 154.181 81.494, 154.900 81.938 C 156.589 82.982, 157.332 114.360, 155.992 128 C 155.478 133.225, 154.786 144.011, 154.453 151.968 C 154.121 159.925, 153.588 166.857, 153.270 167.372 C 152.952 167.886, 152.549 170.826, 152.375 173.904 C 151.502 189.273, 150.666 197, 149.875 197 C 149.394 197, 148.997 198.688, 148.993 200.750 C 148.990 202.813, 147.415 210.729, 145.493 218.341 C 143.572 225.954, 141.985 233.154, 141.966 234.341 C 141.947 235.529, 141.063 238.300, 140 240.500 C 138.937 242.700, 138.053 245.718, 138.034 247.206 C 138.015 248.694, 136.627 252.241, 134.949 255.087 C 133.271 257.933, 131.632 261.588, 131.308 263.210 C 130.984 264.832, 129.882 266.682, 128.859 267.320 C 126.891 268.549, 126.364 271.489, 127.938 272.462 C 128.454 272.780, 129.691 271.872, 130.688 270.444 C 131.685 269.015, 133.706 266.547, 135.181 264.960 C 138.258 261.646, 145 250.479, 145 248.696 C 144.999 246.781, 149.425 234.533, 150.250 234.167 C 150.662 233.983, 151.020 232.183, 151.044 230.167 C 151.068 228.150, 151.502 224.700, 152.008 222.500 C 160.133 187.220, 162.949 166.761, 163.706 137.500 C 164.552 104.808, 164.559 102.475, 163.831 99.001 C 163.428 97.076, 163.480 95.120, 163.946 94.654 C 164.412 94.188, 164.559 91.228, 164.273 88.076 C 163.768 82.502, 163.832 82.313, 166.627 81.196 C 168.207 80.564, 174.419 79.563, 180.430 78.971 C 186.442 78.380, 191.701 77.685, 192.117 77.428 C 192.533 77.171, 197.514 76.762, 203.187 76.520 C 210.307 76.216, 215.129 75.448, 218.761 74.040 C 224.999 71.621, 233.202 71.333, 234.976 73.471 C 236.766 75.628, 237.906 126.175, 237.114 168.297 C 236.920 178.635, 237.029 187.362, 237.356 187.690 C 237.684 188.017, 238.638 187.716, 239.476 187.020 C 240.314 186.324, 241 186.125, 241 186.578 C 241 187.030, 241.424 186.973, 241.942 186.450 C 243.620 184.758, 244.947 173.390, 243.906 169.621 C 243.258 167.275, 243.316 163.890, 244.084 159.314 C 245.418 151.358, 246.315 96.905, 245.396 79.632 C 244.613 64.913, 243.987 64, 234.667 64 C 231.183 64, 227.996 64.338, 227.583 64.750 M 239.851 168.325 C 239.658 170.704, 239.784 173.966, 240.132 175.575 C 240.540 177.466, 240.805 175.937, 240.882 171.250 C 241.012 163.264, 240.402 161.532, 239.851 168.325 M 108 166.066 C 108 168.547, 110.226 171, 112.476 171 C 113.799 171, 115.160 171.450, 115.500 172 C 115.840 172.550, 116.966 173, 118.002 173 C 119.039 173, 120.551 173.949, 121.363 175.108 C 122.661 176.961, 124.098 177.274, 133.207 177.691 C 142.533 178.119, 143.820 177.964, 146.037 176.148 C 148.393 174.217, 148.423 174.051, 146.735 172.336 C 145.459 171.038, 142.141 170.225, 134.735 169.395 C 125.669 168.379, 124.289 168.434, 122.651 169.869 C 120.922 171.384, 120.652 171.302, 118.498 168.600 C 117.028 166.756, 115.628 165.929, 114.629 166.312 C 113.768 166.642, 112.798 166.482, 112.473 165.956 C 111.667 164.652, 108 164.741, 108 166.066 M 236.816 195.191 C 236.304 207.175, 236.280 211.748, 236.712 214.313 C 237.146 216.887, 237.297 216.976, 238.480 215.358 C 239.593 213.837, 239.758 214.353, 239.659 219.045 C 239.596 222.045, 239.892 226.188, 240.317 228.250 C 240.946 231.299, 240.802 232, 239.545 232 C 238.433 232, 238 230.974, 238 228.333 C 238 226.317, 237.748 224.918, 237.441 225.226 C 237.134 225.533, 236.707 232.685, 236.493 241.118 C 236.052 258.453, 235.548 259.627, 229 258.561 C 222.699 257.535, 218.865 257.409, 218.369 258.212 C 218.101 258.645, 218.784 259, 219.886 259 C 221.088 259, 222.417 260.102, 223.205 261.750 C 224.020 263.456, 225.465 264.622, 227.009 264.821 C 228.379 264.997, 230.026 265.820, 230.668 266.650 C 231.587 267.836, 232.281 267.920, 233.918 267.044 C 235.590 266.149, 236 266.220, 236 267.406 C 236 271.042, 238.132 269.582, 240.553 264.290 C 243.506 257.834, 244.915 248.683, 243.126 247.578 C 242.507 247.195, 242 244.482, 242 241.548 C 242 237.525, 242.403 236.059, 243.641 235.584 C 245.043 235.046, 245.185 233.902, 244.613 227.749 C 244.245 223.786, 243.506 220.106, 242.972 219.572 C 242.437 219.037, 242 214.613, 242 209.741 C 242 204.090, 241.638 201.106, 241 201.500 C 240.450 201.840, 240 203.441, 240 205.059 C 240 206.677, 239.605 208, 239.121 208 C 238.638 208, 238.419 204.430, 238.634 200.067 C 238.867 195.351, 238.615 191.880, 238.013 191.508 C 237.398 191.128, 236.928 192.574, 236.816 195.191 M 190 251.757 C 190 252.564, 197.032 255, 199.362 255 C 200.128 255, 201.288 255.642, 201.939 256.426 C 202.590 257.211, 205.596 258.630, 208.620 259.582 C 213.470 261.107, 214.292 261.137, 215.596 259.833 C 218.550 256.879, 215.801 254.840, 205 251.976 C 200.774 250.855, 190 250.698, 190 251.757 M 219.020 261.524 C 219.716 262.362, 220.491 262.842, 220.743 262.591 C 221.436 261.897, 220.027 260, 218.819 260 C 218.155 260, 218.231 260.574, 219.020 261.524" stroke="none" fill="black" fill-rule="evenodd"/>
</svg>