<svg xmlns="http://www.w3.org/2000/svg" width="300" height="300" viewBox="0 0 300 300" version="1.1">
	<path d="M 133.043 51.250 C 124.974 69.015, 122.349 73.874, 116.130 82.559 C 113.858 85.731, 112 88.682, 112 89.118 C 112 90.213, 108.981 94.544, 98.534 108.439 C 87.520 123.087, 63.427 148.020, 56.378 152.062 C 49.901 155.778, 46.447 155.918, 45.589 152.500 C 45.244 151.125, 44.295 150, 43.481 150 C 42.375 150, 42 151.237, 42 154.881 L 42 159.763 46.500 160.896 C 52.443 162.392, 56.490 161.566, 60.862 157.962 C 62.839 156.333, 64.948 155, 65.550 155 C 66.847 155, 101 121.235, 101 119.952 C 101 119.467, 102.288 117.591, 103.861 115.785 C 105.435 113.978, 109.256 108.675, 112.353 104 C 115.450 99.325, 120.021 92.701, 122.512 89.280 C 125.002 85.859, 127.347 82.259, 127.723 81.280 C 128.098 80.301, 129.664 77.635, 131.203 75.355 C 132.741 73.075, 134 70.543, 134 69.727 C 134 68.912, 134.696 67.667, 135.546 66.962 C 137.589 65.266, 141.693 68.190, 144.500 73.340 C 146.538 77.080, 155.984 83.926, 159.173 83.974 C 160.094 83.988, 162.119 85.048, 163.673 86.329 C 165.228 87.611, 170.100 90.615, 174.500 93.007 C 178.900 95.398, 183.850 98.344, 185.500 99.554 C 190.199 102.999, 200.288 107.995, 202.550 107.998 C 203.678 107.999, 205.028 108.379, 205.550 108.843 C 208.070 111.079, 218.903 113.435, 225.904 113.269 C 233.600 113.086, 235.456 112.351, 234.501 109.864 C 233.576 107.454, 229.017 105.359, 219.807 103.112 C 209.365 100.566, 199.418 96.501, 196 93.385 C 194.625 92.132, 191.813 90.401, 189.750 89.540 C 187.688 88.678, 186 87.560, 186 87.054 C 186 86.548, 184.988 85.818, 183.750 85.431 C 182.512 85.043, 180.228 83.663, 178.673 82.363 C 177.119 81.063, 175.401 80, 174.857 80 C 174.312 80, 172.434 78.962, 170.683 77.694 C 168.932 76.426, 165.025 74.297, 162 72.965 C 156.018 70.329, 151.441 67.453, 149.035 64.820 C 148.191 63.896, 145.854 62.055, 143.843 60.728 C 141.167 58.963, 140.426 57.938, 141.078 56.908 C 142.575 54.544, 142.106 51.106, 140 49 C 136.979 45.979, 135.173 46.563, 133.043 51.250 M 161.813 80.683 C 162.534 80.972, 163.397 80.936, 163.729 80.604 C 164.061 80.272, 163.471 80.036, 162.417 80.079 C 161.252 80.127, 161.015 80.364, 161.813 80.683 M 167 83.531 C 167 84.339, 167.188 85, 167.418 85 C 167.648 85, 168.553 85.275, 169.430 85.611 C 170.572 86.050, 170.856 85.788, 170.434 84.689 C 169.624 82.578, 167 81.694, 167 83.531 M 136 84.393 C 136 85.159, 136.603 86.018, 137.341 86.300 C 139.171 87.003, 141.415 85.481, 140.569 84.112 C 139.584 82.517, 136 82.738, 136 84.393 M 175.500 89 C 175.840 89.550, 176.316 90, 176.559 90 C 176.802 90, 177 89.550, 177 89 C 177 88.450, 176.523 88, 175.941 88 C 175.359 88, 175.160 88.450, 175.500 89 M 138 89.893 C 138 90.384, 138.712 91.059, 139.582 91.393 C 142.028 92.332, 142.351 92.128, 141 90.500 C 139.620 88.838, 138 88.510, 138 89.893 M 165.853 133.481 C 164.943 134.391, 154.025 137.019, 151.165 137.016 C 130.164 136.998, 107.778 137.822, 106.956 138.644 C 100.813 144.787, 129.184 148.456, 152.500 144.534 C 162.800 142.801, 163.708 142.457, 166.763 139.132 C 168.558 137.178, 169.871 135.112, 169.680 134.540 C 169.289 133.364, 166.689 132.645, 165.853 133.481 M 172 177.062 C 167.875 177.545, 162.700 178.198, 160.500 178.512 C 158.300 178.827, 143.876 179.231, 128.446 179.411 C 98.619 179.759, 95.616 180.234, 96.218 184.500 C 96.512 186.584, 99.969 187.577, 110 188.461 C 112.475 188.679, 117.425 189.209, 121 189.640 C 133.599 191.156, 162.259 189.403, 172.500 186.488 C 177.966 184.933, 183.166 184.500, 192.750 184.803 L 199 185 199 188.437 C 199 191.278, 192.460 211.117, 189.090 218.500 C 188.588 219.600, 186.508 224.775, 184.468 230 C 182.428 235.225, 180.186 240.625, 179.486 242 C 178.786 243.375, 176.770 247.875, 175.006 252 C 173.242 256.125, 170.761 261.750, 169.491 264.500 C 165.433 273.291, 162 282.592, 162 284.793 C 162 287.485, 165.340 289.423, 167.754 288.132 C 168.718 287.616, 171.276 282.987, 173.438 277.847 C 175.599 272.706, 177.960 267.790, 178.684 266.921 C 179.408 266.053, 180 265.042, 180 264.675 C 180 264.309, 183.413 256.469, 187.584 247.254 C 191.755 238.039, 196.896 225.550, 199.007 219.500 C 201.119 213.450, 204.172 204.675, 205.793 200 C 209.020 190.693, 210.542 180.358, 209.034 178 C 208.263 176.794, 205.270 176.469, 193.787 176.341 C 185.929 176.254, 176.125 176.578, 172 177.062 M 171.079 270.583 C 171.127 271.748, 171.364 271.985, 171.683 271.188 C 171.972 270.466, 171.936 269.603, 171.604 269.271 C 171.272 268.939, 171.036 269.529, 171.079 270.583" stroke="none" fill="black" fill-rule="evenodd"/>
</svg>