<svg xmlns="http://www.w3.org/2000/svg" width="300" height="300" viewBox="0 0 300 300" version="1.1">
	<path d="M 97 30.449 C 97 32.515, 96.211 33.332, 92.962 34.632 C 89.030 36.205, 86 40.049, 86 43.464 C 86 44.324, 85.550 45.809, 85 46.764 C 84.451 47.719, 83.531 49.625, 82.957 51 C 81.604 54.243, 80.200 56.521, 76.240 61.900 C 74.458 64.320, 73 67.133, 73 68.150 C 73 69.168, 72.633 70, 72.184 70 C 71.252 70, 60 88.463, 60 89.994 C 60 90.547, 59.530 91, 58.956 91 C 57.653 91, 52.500 95.707, 52.500 96.898 C 52.500 97.382, 49.817 99.965, 46.537 102.639 C 34.589 112.379, 17.284 128.924, 14.531 133.240 C 12.865 135.851, 12.866 136.011, 14.549 136.657 C 15.868 137.163, 18.044 135.581, 23.133 130.418 C 31.102 122.333, 33.709 120, 34.777 120 C 35.205 120, 36.667 118.739, 38.027 117.199 C 39.387 115.658, 44.100 111.547, 48.500 108.063 C 58.048 100.501, 66.546 92.007, 67.468 89.101 C 67.835 87.946, 68.958 87, 69.965 87 C 71.429 87, 72.015 88.264, 72.897 93.332 C 73.504 96.814, 74 101.344, 74 103.398 C 74 105.451, 74.414 107.905, 74.920 108.850 C 76.982 112.703, 78.933 150.923, 78.909 187 C 78.884 225.650, 79.608 236.484, 82.631 242.673 C 84.268 246.024, 84.935 246.500, 88 246.500 C 91.469 246.500, 91.497 246.464, 91.177 242.514 C 91 240.322, 90.403 238.249, 89.850 237.907 C 88.263 236.927, 86.814 216.580, 87.471 204.500 C 87.800 198.450, 87.600 176.175, 87.026 155 C 86.005 117.297, 85.230 108.483, 81.050 87 C 79.649 79.801, 80.618 72.237, 83.562 67.395 C 84.864 65.253, 86.704 62.038, 87.650 60.250 C 88.596 58.462, 89.737 57, 90.185 57 C 90.633 57, 91 56.091, 91 54.980 C 91 53.869, 92.094 51.228, 93.430 49.111 C 94.767 46.993, 96.152 43.515, 96.508 41.380 C 96.864 39.246, 97.418 36.825, 97.739 36 C 98.728 33.453, 98.813 29.003, 97.884 28.428 C 97.398 28.128, 97 29.037, 97 30.449 M 193.500 35.118 C 190.750 35.515, 183.325 36.124, 177 36.472 C 170.255 36.843, 164.671 37.647, 163.496 38.415 C 161.707 39.583, 157.059 40.332, 144.619 41.455 C 142.485 41.647, 140.348 42.411, 139.871 43.152 C 138.678 45.004, 139.335 47.562, 140.915 47.215 C 141.627 47.058, 142.832 47.446, 143.593 48.077 C 144.353 48.708, 145.768 48.916, 146.737 48.540 C 148.311 47.929, 148.248 47.720, 146.152 46.590 L 143.803 45.324 147.016 43.993 C 149.474 42.975, 150.662 42.932, 152.068 43.811 C 153.237 44.540, 154.128 44.602, 154.513 43.980 C 155.447 42.468, 156.855 42.808, 158.732 45 C 159.674 46.100, 161.314 47, 162.377 47 C 164.197 47, 164.212 46.891, 162.630 45.143 C 161.202 43.566, 161.160 43.112, 162.348 42.126 C 164.378 40.441, 167.196 41.806, 166.462 44.118 C 165.984 45.627, 166.374 46, 168.433 46 C 169.845 46, 171 45.550, 171 45 C 171 44.450, 172.141 44, 173.535 44 C 175.760 44, 175.940 43.756, 175 42 C 174.190 40.487, 174.242 39.972, 175.215 39.885 C 178.139 39.623, 180.673 40.289, 183.622 42.094 C 186.604 43.919, 186.917 43.929, 190.622 42.305 L 194.500 40.606 191 40.024 L 187.500 39.442 191 38.688 C 193.922 38.060, 194.794 38.295, 196.279 40.115 C 197.812 41.992, 198.408 42.135, 200.576 41.147 C 201.961 40.516, 204.423 40, 206.047 40 C 209.150 40, 210.032 38.060, 207.750 36.257 C 205.933 34.823, 199.257 34.289, 193.500 35.118 M 151.269 47.693 C 152.242 47.947, 153.592 47.930, 154.269 47.656 C 154.946 47.382, 154.150 47.175, 152.500 47.195 C 150.850 47.215, 150.296 47.439, 151.269 47.693 M 162.603 58.500 C 161.559 59.290, 160.353 59.718, 159.922 59.452 C 158.315 58.459, 157.478 61.929, 155.327 78.500 C 153.911 89.406, 153.106 101.056, 153.079 111 C 153.012 135.729, 150.562 168.882, 148.018 179.500 C 147.490 181.700, 147.158 191.325, 147.279 200.889 C 147.465 215.516, 147.262 218.390, 146 218.981 C 145.175 219.368, 143.600 220.203, 142.500 220.837 C 134.878 225.226, 131.725 226.309, 129.894 225.166 C 127.472 223.653, 126.001 223.685, 125.995 225.250 C 125.993 225.938, 124.401 228.231, 122.458 230.346 C 119.898 233.133, 119.102 234.747, 119.567 236.210 C 120.092 237.867, 120.807 238.131, 123.559 237.684 C 128.210 236.929, 137 232.764, 137 231.315 C 137 229.564, 139.105 228.552, 139.939 229.902 C 140.851 231.377, 145.609 227.808, 146.508 224.974 C 147.387 222.205, 150.408 222.332, 149.682 225.107 C 149.085 227.393, 150.461 232, 151.741 232 C 152.176 232, 154.017 229.731, 155.833 226.958 C 159.138 221.910, 166.074 216, 168.694 216 C 169.460 216, 171.305 214.849, 172.794 213.443 C 174.282 212.037, 176.738 210.140, 178.250 209.228 C 184.017 205.749, 180.280 202.221, 174.154 205.360 C 167.918 208.556, 159.856 212, 158.612 212 C 155.961 212, 156.120 179.479, 158.841 165 C 160.519 156.071, 163.189 119.117, 162.930 108.402 C 162.574 93.641, 164.002 70.173, 165.597 64.568 C 166.369 61.856, 167 59.044, 167 58.318 C 167 56.605, 164.997 56.688, 162.603 58.500 M 226.792 91.542 C 226.494 91.840, 222.984 93.008, 218.992 94.137 C 215 95.267, 210.331 97.047, 208.617 98.092 C 206.903 99.137, 204.663 99.994, 203.640 99.996 C 202.617 99.998, 199.242 101.312, 196.140 102.915 C 189.632 106.279, 182.529 108.566, 175.750 109.481 C 171.937 109.996, 171 110.505, 171 112.061 C 171 113.128, 171.620 114, 172.378 114 C 173.135 114, 174.284 114.637, 174.930 115.415 C 175.814 116.481, 176.892 116.605, 179.296 115.915 C 181.051 115.412, 183.531 115, 184.806 115 C 186.082 115, 189.460 113.919, 192.313 112.597 C 195.166 111.276, 199.300 109.454, 201.500 108.550 C 207.705 105.999, 208.500 105.412, 208.501 103.388 C 208.502 102.349, 208.952 101.725, 209.501 102 C 210.051 102.275, 210.370 102.891, 210.211 103.368 C 209.753 104.740, 215.377 103.051, 216.610 101.445 C 217.221 100.650, 218.260 100, 218.919 100 C 219.579 100, 219.859 99.581, 219.543 99.069 C 219.226 98.557, 219.372 97.888, 219.866 97.583 C 220.360 97.278, 221.466 98.478, 222.324 100.249 C 223.696 103.083, 223.708 103.666, 222.417 105.091 C 221.611 105.983, 220.459 109.589, 219.859 113.106 C 219.258 116.623, 218.369 119.928, 217.883 120.450 C 216.778 121.639, 216.852 169.713, 217.970 176.500 C 220.170 189.859, 221.627 195.602, 226.214 209 C 228.944 216.975, 231.662 224.957, 232.253 226.737 C 232.844 228.518, 234.042 230.781, 234.914 231.767 C 237.227 234.381, 240 239.577, 240 241.297 C 240 242.116, 240.633 243.029, 241.406 243.325 C 242.179 243.622, 243.115 245.245, 243.485 246.932 C 243.865 248.662, 244.801 250, 245.631 250 C 246.441 250, 247.557 251.299, 248.110 252.887 C 249.023 255.504, 251.920 257, 256.078 257 C 257.140 257, 261 248.320, 261 245.932 C 261 244.934, 261.424 243.856, 261.942 243.536 C 262.460 243.215, 263.192 240.826, 263.568 238.227 C 263.945 235.627, 264.758 232.867, 265.376 232.093 C 267.124 229.906, 266.739 201.075, 264.947 199.967 C 262.710 198.585, 261.220 200.722, 260.534 206.300 C 257.876 227.892, 254.583 244, 252.825 244 C 251.277 244, 241.056 223.006, 238.463 214.500 C 237.457 211.200, 235.844 206.700, 234.879 204.500 C 233.914 202.300, 232.398 197.350, 231.510 193.500 C 230.622 189.650, 229.132 183.575, 228.198 180 C 225.972 171.477, 225.693 124.781, 227.832 118.736 C 228.565 116.665, 229.557 111.715, 230.036 107.736 C 230.516 103.756, 231.205 99.033, 231.569 97.241 C 231.982 95.202, 231.767 93.424, 230.992 92.491 C 229.743 90.986, 227.789 90.544, 226.792 91.542 M 190.813 109.683 C 191.534 109.972, 192.397 109.936, 192.729 109.604 C 193.061 109.272, 192.471 109.036, 191.417 109.079 C 190.252 109.127, 190.015 109.364, 190.813 109.683 M 175.250 155.149 C 173.685 156.716, 173.697 159.049, 175.282 161 C 176.189 162.117, 179.173 162.584, 186.967 162.827 C 192.723 163.007, 198.884 163.760, 200.657 164.501 C 203.262 165.589, 204.084 165.604, 204.937 164.576 C 207.147 161.913, 199.782 158.647, 186 156.177 C 182.975 155.635, 179.600 154.901, 178.500 154.545 C 177.386 154.185, 175.946 154.452, 175.250 155.149 M 225 191.441 C 225 192.234, 225.450 193.160, 226 193.500 C 226.550 193.840, 227 193.191, 227 192.059 C 227 190.927, 226.550 190, 226 190 C 225.450 190, 225 190.648, 225 191.441 M 230 214.031 C 230 216.407, 232.649 217.751, 234.225 216.175 C 235.012 215.388, 234.959 214.656, 234.035 213.542 C 232.224 211.360, 230 211.629, 230 214.031 M 157.571 217.571 C 155.411 219.732, 155.602 220.265, 158 218.768 C 159.100 218.081, 160 217.177, 160 216.759 C 160 215.606, 159.304 215.839, 157.571 217.571 M 246.150 246 C 247.194 248.995, 250 250.201, 250 247.655 C 250 246.333, 246.937 243, 245.723 243 C 245.383 243, 245.575 244.350, 246.150 246" stroke="none" fill="black" fill-rule="evenodd"/>
</svg>