<svg xmlns="http://www.w3.org/2000/svg" width="300" height="300" viewBox="0 0 300 300" version="1.1">
	<path d="M 182.202 19.107 C 180.417 20.852, 179 23.265, 179 24.560 C 179 25.837, 178.598 27.131, 178.106 27.435 C 177.614 27.739, 176.985 29.678, 176.709 31.744 C 175.893 37.847, 172.819 48.377, 171.356 50.079 C 170.610 50.947, 170 52.314, 170 53.117 C 170 53.920, 169.126 56.291, 168.058 58.386 C 166.990 60.481, 165.815 63.614, 165.447 65.348 C 165.079 67.081, 164.224 69.175, 163.548 70 C 162.872 70.825, 160.411 75.100, 158.079 79.500 C 155.748 83.900, 153.025 88.400, 152.029 89.500 C 151.032 90.600, 148.843 94.200, 147.163 97.500 C 145.484 100.800, 142.737 105.525, 141.059 108 C 139.381 110.475, 138.007 113.063, 138.004 113.750 C 138.002 114.438, 137.580 115, 137.067 115 C 136.554 115, 135.840 115.930, 135.479 117.066 C 134.737 119.403, 126.587 131.647, 124.120 134.131 C 123.229 135.027, 120.925 137.664, 119 139.989 C 113.674 146.423, 113.009 147, 110.929 147 C 108.702 147, 108.483 148.735, 110.392 151.250 C 112.452 153.963, 116.304 153.388, 119.583 149.878 C 126.068 142.937, 127.665 141.128, 131.466 136.416 C 133.647 133.712, 135.699 131.275, 136.025 131 C 136.545 130.561, 145.387 117.594, 150.235 110.160 C 151.189 108.697, 152.439 106.425, 153.013 105.112 C 153.586 103.799, 156.457 99.074, 159.392 94.612 C 164.376 87.036, 168.453 79.595, 171.505 72.500 C 174.912 64.583, 177.606 59.595, 178.656 59.262 C 179.291 59.061, 182.254 61.282, 185.240 64.198 C 188.226 67.114, 191.756 70.292, 193.085 71.260 C 194.413 72.229, 197.525 74.562, 200 76.445 C 202.475 78.328, 206.863 81.252, 209.750 82.943 C 212.637 84.634, 215 86.402, 215 86.872 C 215 87.892, 224.857 92.376, 230.500 93.923 C 235.821 95.382, 249.904 96.974, 251.629 96.312 C 254.090 95.368, 253.079 92.354, 249.750 90.709 C 247.963 89.826, 242.225 87.199, 237 84.870 C 231.775 82.541, 225.322 78.918, 222.660 76.818 C 219.998 74.718, 217.186 73, 216.410 73 C 215.635 73, 215 72.561, 215 72.023 C 215 71.486, 213.313 70.211, 211.250 69.189 C 209.188 68.167, 205.250 65.960, 202.500 64.285 C 199.750 62.609, 194.463 59.587, 190.750 57.570 C 186.087 55.036, 184 53.317, 184 52.010 C 184 50.969, 183.550 49.840, 183 49.500 C 181.420 48.523, 181.848 38.807, 183.617 35.500 C 184.500 33.850, 185.879 29.398, 186.682 25.607 C 187.918 19.773, 187.932 18.503, 186.773 17.345 C 185.615 16.186, 184.912 16.457, 182.202 19.107 M 101 29.500 C 100.315 30.325, 98.798 31.007, 97.628 31.015 C 96.457 31.024, 95.019 31.361, 94.431 31.765 C 92.788 32.894, 89.248 40.874, 87.650 47.047 C 86.861 50.098, 85.030 54.340, 83.582 56.474 C 82.134 58.608, 80.662 61.512, 80.311 62.927 C 79.326 66.901, 67.186 90.050, 63.915 94.191 C 62.312 96.222, 61 98.337, 61 98.892 C 61 99.447, 60.411 100.260, 59.691 100.700 C 58.971 101.140, 57.751 103.075, 56.980 105 C 56.209 106.925, 53.423 111.875, 50.789 116 C 48.155 120.125, 46 123.868, 46 124.317 C 46 124.766, 44.875 126.608, 43.500 128.411 C 42.125 130.214, 41 132.209, 41 132.844 C 41 133.480, 40.605 134, 40.121 134 C 39.638 134, 37.174 137.262, 34.645 141.250 C 32.117 145.238, 29.348 149.400, 28.492 150.500 C 27.637 151.600, 25.039 154.975, 22.718 158 C 20.398 161.025, 17.714 164.175, 16.753 165 C 15.792 165.825, 14.723 167.963, 14.378 169.750 C 13.835 172.561, 14.026 173, 15.793 173 C 18.579 173, 25.426 166.663, 28.668 161.084 C 31.590 156.057, 37.096 148.790, 40.697 145.210 C 41.963 143.950, 43 142.285, 43 141.509 C 43 140.734, 43.562 139.740, 44.250 139.300 C 45.501 138.499, 50 132.490, 50 131.619 C 50 131.365, 52.067 128.084, 54.594 124.328 C 57.121 120.573, 60.069 115.784, 61.147 113.687 C 63.982 108.167, 66.447 108.985, 66.669 115.519 C 66.762 118.259, 67.378 127.700, 68.038 136.500 C 68.698 145.300, 69.373 162.357, 69.539 174.405 C 69.704 186.453, 70.112 198.828, 70.445 201.905 C 70.778 204.982, 71.551 221.675, 72.162 239 C 72.773 256.325, 73.360 272.386, 73.466 274.692 C 73.733 280.504, 75.172 281.976, 79.609 280.975 C 81.561 280.535, 83.257 280.023, 83.377 279.837 C 85.154 277.090, 85.908 273.595, 84.969 272.462 C 84.369 271.740, 83.680 266.502, 83.439 260.824 C 83.197 255.146, 82.484 249.237, 81.855 247.694 C 80.997 245.588, 80.997 244.603, 81.856 243.744 C 83.261 242.339, 83.390 231, 82 231 C 80.543 231, 80.777 228.430, 82.352 227.122 C 84.407 225.417, 84.407 213.370, 82.352 212.582 C 81.171 212.128, 80.936 211.157, 81.403 208.668 C 81.744 206.847, 81.748 205.082, 81.412 204.745 C 81.075 204.408, 80.721 201.784, 80.626 198.914 C 80.484 194.668, 80.783 193.608, 82.226 193.231 C 84.638 192.600, 84.476 189.358, 82 188.710 C 80.172 188.232, 79.983 187.257, 79.798 177.344 C 79.687 171.380, 79.678 164.998, 79.778 163.162 C 79.879 161.326, 79.273 158.494, 78.432 156.868 C 77.147 154.383, 77.105 153.353, 78.167 150.415 C 79.163 147.662, 79.173 146.506, 78.215 144.973 C 77.497 143.823, 77 139.369, 77 134.085 C 77 127.470, 76.610 124.753, 75.500 123.643 C 74.675 122.818, 74 121.462, 74 120.630 C 74 119.799, 73.550 118.840, 73 118.500 C 71.268 117.430, 71.914 113.174, 74.033 111.689 C 75.741 110.493, 75.960 109.602, 75.402 106.111 C 74.571 100.914, 73.248 100.034, 70.885 103.106 C 69.047 105.497, 69.044 105.497, 69.022 103.302 C 69.010 102.092, 70.125 99.889, 71.500 98.405 C 72.875 96.922, 74 95.051, 74 94.248 C 74 93.445, 75.350 91.083, 77 89 C 78.650 86.917, 80 84.775, 80 84.241 C 80 82.363, 84.165 78, 85.958 78 C 86.954 78, 88.517 76.861, 89.429 75.468 C 90.341 74.076, 91.518 73.202, 92.044 73.527 C 92.581 73.859, 93 72.611, 93 70.678 C 93 67.934, 93.695 66.707, 96.433 64.619 C 98.322 63.178, 100.628 62, 101.558 62 C 102.900 62, 103.127 61.387, 102.658 59.038 C 102.217 56.835, 102.650 55.361, 104.348 53.288 C 111.899 44.065, 112.938 37.807, 107.927 31.728 C 104.603 27.695, 102.941 27.161, 101 29.500 M 97.172 69.750 C 97.358 70.162, 98.161 72.188, 98.956 74.250 C 100.448 78.119, 102.622 79.150, 103.648 76.474 C 104.118 75.251, 104.525 75.191, 105.707 76.172 C 106.846 77.117, 107.066 78.993, 106.676 84.447 C 106.399 88.326, 106.026 91.950, 105.848 92.500 C 104.727 95.963, 111.194 103.234, 113.905 101.559 C 115.446 100.606, 115.269 96.468, 113.628 95.106 C 111.633 93.451, 111.047 88.184, 112.001 80.490 C 112.974 72.644, 112.731 71.654, 109.464 70.166 C 107.412 69.230, 106.876 69.364, 105.984 71.030 C 104.623 73.573, 101.365 73.558, 99.768 71 C 98.605 69.137, 96.421 68.086, 97.172 69.750 M 198.750 71.194 C 201.118 73.563, 202.433 73.291, 201.417 70.643 C 201.070 69.739, 199.834 69, 198.671 69 L 196.556 69 198.750 71.194 M 211.711 122.102 C 210.640 122.725, 199.202 123.295, 183.234 123.521 C 159.283 123.859, 156.417 124.077, 155.274 125.640 C 153.375 128.237, 153.719 130.387, 156.442 132.945 C 158.688 135.055, 159.774 135.238, 169.963 135.222 C 187.509 135.194, 196.898 134.102, 199.178 131.822 C 200.786 130.214, 202.037 129.969, 206.314 130.423 C 213.035 131.137, 218.382 129.330, 218.827 126.195 C 219.440 121.873, 215.751 119.751, 211.711 122.102 M 184.500 162.110 C 179 162.445, 173.233 163.233, 171.685 163.860 C 170.137 164.487, 166.459 165, 163.512 165 C 159.206 165, 157.549 165.509, 155.077 167.589 C 151.392 170.689, 151.259 171.955, 154.314 174.826 C 156.652 177.022, 160.435 177.723, 161.413 176.141 C 162.119 174.999, 171.093 173.998, 190.500 172.897 C 210.223 171.778, 218.823 171.835, 221.185 173.099 C 223.456 174.314, 223.693 181.180, 221.526 182.978 C 220.716 183.651, 219.795 185.843, 219.479 187.850 C 218.553 193.732, 214.665 205.250, 212.500 208.525 C 211.400 210.189, 209.671 213.564, 208.657 216.025 C 207.644 218.486, 205.988 222.300, 204.978 224.500 C 203.968 226.700, 201.887 231.650, 200.354 235.500 C 198.821 239.350, 197.126 242.806, 196.587 243.180 C 195.464 243.960, 195.928 244.218, 183.160 235.737 C 180.872 234.218, 179 232.566, 179 232.067 C 179 231.568, 177.650 230.862, 176 230.500 C 174.350 230.138, 173 229.438, 173 228.946 C 173 228.454, 171.537 227.304, 169.750 226.390 C 167.963 225.477, 166.179 224.184, 165.786 223.518 C 165.346 222.772, 163.042 222.376, 159.786 222.488 C 155.166 222.646, 154.459 222.947, 154.175 224.877 C 153.951 226.397, 155.063 228.240, 157.747 230.793 C 173.936 246.194, 185.921 254.780, 196.103 258.274 C 196.984 258.577, 201.419 261.339, 205.959 264.412 C 210.498 267.485, 214.916 270, 215.777 270 C 216.638 270, 218.072 270.660, 218.964 271.468 C 221.136 273.433, 230.536 275.734, 241.321 276.940 C 250.983 278.020, 263.673 276.979, 270.500 274.546 C 272.700 273.762, 275.625 272.981, 277 272.810 C 278.412 272.635, 279.917 271.549, 280.459 270.315 C 280.986 269.114, 282.449 267.661, 283.709 267.087 C 286.381 265.869, 286.662 263.795, 284.409 261.924 C 283.084 260.825, 281.705 260.887, 276.159 262.297 C 266.048 264.867, 243.020 265.603, 235.500 263.596 C 225.325 260.880, 211.619 253.928, 207.162 249.221 L 203.824 245.697 206.503 240.598 C 209.862 234.207, 211.905 230.515, 214.709 225.766 C 215.921 223.712, 218.335 218.762, 220.072 214.766 C 221.810 210.770, 224.365 205.025, 225.750 202 C 227.135 198.975, 229.090 193.575, 230.093 190 C 231.097 186.425, 232.611 181.039, 233.459 178.032 C 235.620 170.363, 235.434 166.750, 232.750 164.272 C 230.679 162.360, 229.067 162.167, 212.500 161.847 C 202.600 161.656, 190 161.774, 184.500 162.110 M 73 191.441 C 73 192.298, 73.450 193, 74 193 C 74.550 193, 75 192.577, 75 192.059 C 75 191.541, 74.550 190.840, 74 190.500 C 73.450 190.160, 73 190.584, 73 191.441 M 74.500 213 C 73.771 214.180, 74.717 216, 76.059 216 C 76.577 216, 77 215.100, 77 214 C 77 211.891, 75.545 211.309, 74.500 213 M 75.105 220.373 C 74.120 221.561, 74.116 222.349, 75.089 224.166 L 76.316 226.459 77.265 224.332 C 77.854 223.012, 77.861 221.573, 77.282 220.539 C 76.459 219.068, 76.204 219.049, 75.105 220.373 M 165.007 233.250 C 165.013 234.427, 170.823 239, 172.312 239 C 173.726 239, 172.918 237.190, 170.364 234.636 C 167.567 231.839, 164.995 231.174, 165.007 233.250 M 181.017 245.687 C 181.048 247.142, 187.209 250.857, 188.665 250.298 C 191.129 249.353, 187.759 245.549, 184.137 245.187 C 182.411 245.014, 181.008 245.239, 181.017 245.687 M 206.500 260.538 C 210.512 264.011, 212.972 264.589, 213.753 262.242 C 214.005 261.486, 212.949 260.740, 211.108 260.372 C 209.423 260.035, 207.530 259.138, 206.900 258.379 C 206.270 257.621, 205.023 257.017, 204.128 257.038 C 203.059 257.062, 203.873 258.264, 206.500 260.538 M 219.500 266 C 219.840 266.550, 220.568 267, 221.118 267 C 221.668 267, 221.840 266.550, 221.500 266 C 221.160 265.450, 220.432 265, 219.882 265 C 219.332 265, 219.160 265.450, 219.500 266" stroke="none" fill="black" fill-rule="evenodd"/>
</svg>