<svg xmlns="http://www.w3.org/2000/svg" width="300" height="300" viewBox="0 0 300 300" version="1.1">
	<path d="M 120.313 34.656 C 118.558 36.957, 117.144 40.601, 116.352 44.867 C 114.880 52.783, 112.117 60.992, 110.307 62.821 C 109.588 63.548, 109 64.703, 109 65.388 C 109 66.837, 103.432 77.968, 101.982 79.418 C 101.442 79.958, 101 81.005, 101 81.744 C 101 82.483, 99.875 84.301, 98.500 85.783 C 97.125 87.266, 96 88.806, 96 89.204 C 96 89.603, 93.900 93.433, 91.333 97.715 C 86.995 104.950, 83.637 109.320, 74.592 119.500 C 72.638 121.700, 71.030 124.063, 71.019 124.750 C 71.009 125.438, 70.362 126, 69.582 126 C 68.801 126, 67.237 127.498, 66.106 129.328 C 64.975 131.159, 62.878 133.190, 61.446 133.843 C 58.260 135.294, 58.715 137.389, 62.309 137.815 C 66.489 138.310, 73.225 132.844, 80.274 123.236 C 85.601 115.977, 94.144 106.500, 95.360 106.500 C 96.010 106.500, 96.796 109.080, 97.188 112.500 C 98.943 127.794, 99.294 130, 99.974 130 C 101.108 130, 102.395 176.487, 102.465 220 C 102.532 261.171, 103.239 270.368, 106.966 278.500 C 109.403 283.820, 113.053 287.209, 115.015 285.973 C 116.307 285.159, 116.258 284.614, 114.639 281.769 C 111.884 276.932, 110.996 262.406, 111.105 224 C 111.158 205.575, 110.715 183.525, 110.121 175 C 109.527 166.475, 108.569 149.825, 107.991 138 C 107.414 126.175, 106.529 113.618, 106.025 110.096 C 105.290 104.962, 105.497 101.803, 107.071 94.157 C 108.150 88.913, 109.613 83.919, 110.323 83.061 C 111.033 82.202, 112.141 80.263, 112.785 78.750 C 113.430 77.237, 114.417 76, 114.979 76 C 115.540 76, 116 75.120, 116 74.044 C 116 72.969, 117.013 70.590, 118.250 68.759 C 119.487 66.928, 121.381 62.183, 122.459 58.215 C 123.536 54.247, 124.774 51, 125.209 51 C 125.644 51, 126 48.945, 126 46.434 C 126 43.923, 126.488 40.957, 127.084 39.844 C 127.873 38.370, 127.848 37.046, 126.992 34.981 C 125.225 30.716, 123.387 30.626, 120.313 34.656 M 189.166 39.300 C 187.593 41.195, 187.067 46.469, 186.555 65.500 C 186.303 74.850, 185.821 88.125, 185.484 95 C 184.926 106.399, 185.042 107.712, 186.808 109.906 C 190.395 114.364, 191.622 112.235, 192.321 100.342 C 192.672 94.379, 193.354 88.150, 193.837 86.500 C 195.148 82.017, 195.285 42.402, 193.998 39.996 C 192.772 37.706, 190.733 37.412, 189.166 39.300 M 216 67.017 C 212.425 67.360, 208.825 67.909, 208 68.237 C 207.175 68.565, 205.262 69.104, 203.750 69.436 C 201.500 69.929, 201 70.580, 201 73.019 C 201 75.532, 201.392 76, 203.500 76 C 204.875 76, 206 75.601, 206 75.114 C 206 74.626, 208.137 73.907, 210.750 73.516 C 213.363 73.124, 215.803 72.314, 216.174 71.716 C 216.643 70.958, 217.335 71.033, 218.456 71.963 C 219.733 73.023, 220.851 73.062, 223.898 72.149 C 226.007 71.517, 229.030 70.993, 230.616 70.985 C 234.280 70.965, 236.448 69.609, 235.744 67.776 C 235.140 66.201, 227.548 65.909, 216 67.017 M 251.500 113.993 C 248.200 114.371, 238.300 115.219, 229.500 115.876 C 220.700 116.533, 212.375 117.345, 211 117.680 C 209.625 118.015, 207.825 118.447, 207 118.641 C 206.175 118.834, 202.125 119.420, 198 119.942 C 193.875 120.464, 188.700 121.122, 186.500 121.404 C 184.300 121.686, 178.489 122.365, 173.587 122.914 C 168.684 123.462, 164.409 124.334, 164.087 124.851 C 163.764 125.368, 161.025 126.015, 158 126.290 C 145.919 127.385, 139 130.092, 139 133.722 C 139 135.071, 140.173 134.976, 144.750 133.256 C 145.438 132.997, 146 133.335, 146 134.007 C 146 134.852, 146.998 135.024, 149.250 134.566 C 151.037 134.203, 153.937 133.655, 155.694 133.350 C 157.978 132.953, 158.975 132.182, 159.194 130.647 C 159.423 129.039, 160.253 128.462, 162.500 128.349 C 164.150 128.265, 169.550 127.940, 174.500 127.625 C 182.716 127.103, 183.239 127.174, 180.500 128.445 L 177.500 129.838 180.216 129.919 C 181.960 129.971, 184.029 128.927, 186 127 C 189.027 124.041, 192 123.050, 192 125 C 192 126.612, 197.724 126.163, 198.362 124.500 C 199.096 122.586, 201 122.544, 201 124.441 C 201 125.234, 201.409 126.135, 201.910 126.444 C 203.219 127.253, 206 125.997, 206 124.597 C 206 123.943, 208.250 122.717, 211 121.873 C 213.750 121.030, 216 120.713, 216 121.170 C 216 121.626, 215.550 122, 215 122 C 214.450 122, 214 122.499, 214 123.108 C 214 124.437, 219.161 123.357, 220.104 121.831 C 220.448 121.275, 222.084 120.963, 223.739 121.137 C 225.395 121.310, 227.369 120.952, 228.125 120.340 C 229.696 119.068, 246 118.926, 246 120.183 C 246 121.764, 248.944 120.976, 250.905 118.872 C 252.058 117.634, 253.539 116.993, 254.444 117.340 C 256.708 118.209, 256.348 119.782, 253.750 120.373 C 252.512 120.654, 253.750 120.663, 256.500 120.392 C 259.250 120.122, 262.706 119.927, 264.179 119.961 C 267.061 120.026, 268.545 117.585, 267.416 114.641 C 266.732 112.858, 262.792 112.698, 251.500 113.993 M 229.500 122 C 229.151 122.565, 229.970 123, 231.382 123 C 232.757 123, 234.160 122.550, 234.500 122 C 234.849 121.435, 234.030 121, 232.618 121 C 231.243 121, 229.840 121.450, 229.500 122 M 186.616 134.292 C 185 135.473, 184.817 138.487, 184.478 169.542 C 184.274 188.219, 183.573 216.184, 182.921 231.687 C 182.269 247.190, 181.944 263.465, 182.198 267.853 C 182.693 276.404, 184.670 281, 187.853 281 C 189.539 281, 189.740 278.641, 190.850 245.750 C 191.505 226.363, 192.365 207.125, 192.763 203 C 193.160 198.875, 193.531 189.200, 193.586 181.500 C 193.642 173.800, 193.763 161.233, 193.856 153.572 C 194.065 136.238, 193.550 133, 190.580 133 C 189.371 133, 187.587 133.581, 186.616 134.292 M 188.682 144.652 C 187.319 146.015, 187.961 151, 189.500 151 C 190.393 151, 190.994 150.090, 190.985 148.750 C 190.966 146.063, 189.637 143.697, 188.682 144.652 M 198.667 163.667 C 197.253 165.080, 198.119 167.864, 200.984 171.114 C 202.625 172.977, 203.975 174.838, 203.984 175.250 C 204.015 176.716, 207 175.974, 207 174.500 C 207 172.068, 208.729 172.786, 209.411 175.500 C 209.756 176.875, 210.731 178, 211.578 178 C 212.425 178, 212.865 178.409, 212.556 178.910 C 211.541 180.552, 213.091 182.795, 216.104 184.043 C 219.255 185.348, 221.441 184.523, 218.971 182.961 C 216.563 181.438, 218.668 181.874, 222.466 183.685 C 224.410 184.612, 226 185.737, 226 186.185 C 226 186.633, 226.689 187, 227.531 187 C 228.374 187, 229.322 187.675, 229.638 188.500 C 229.955 189.325, 231.305 190, 232.639 190 C 236.278 190, 242 192.692, 242 194.404 C 242 195.370, 243.344 196.125, 245.750 196.512 C 252.967 197.673, 254 198.049, 254 199.519 C 254 200.661, 255.431 201.017, 260.250 201.076 C 272.110 201.220, 280.476 200.848, 280.987 200.155 C 281.269 199.772, 282.796 198.889, 284.379 198.192 C 285.963 197.495, 286.997 196.664, 286.677 196.344 C 286.358 196.024, 280.112 195.704, 272.798 195.631 C 261.231 195.517, 258.889 195.207, 254.805 193.250 C 252.223 192.012, 249.212 191, 248.114 191 C 247.016 191, 245.874 190.605, 245.576 190.123 C 245.278 189.641, 242.889 188.707, 240.267 188.048 C 237.645 187.389, 234.825 186.290, 234 185.606 C 230.971 183.094, 218.103 176, 216.575 176 C 215.709 176, 215 175.438, 215 174.750 C 215 173.505, 210.487 169.532, 204.210 165.250 C 200.719 162.869, 199.743 162.590, 198.667 163.667 M 188 188.441 C 188 190.398, 188.450 192, 189 192 C 189.550 192, 190 190.677, 190 189.059 C 190 187.441, 189.550 185.840, 189 185.500 C 188.405 185.132, 188 186.323, 188 188.441" stroke="none" fill="black" fill-rule="evenodd"/>
</svg>