<svg xmlns="http://www.w3.org/2000/svg" width="300" height="300" viewBox="0 0 300 300" version="1.1">
	<path d="M 197.231 29.434 C 195.361 31.811, 191.419 42.124, 189.037 50.872 C 188.382 53.277, 186.869 56.225, 185.673 57.424 C 184.200 58.903, 183.486 60.876, 183.458 63.552 C 183.428 66.328, 181.456 71.509, 176.817 81 C 173.188 88.425, 169.629 96.188, 168.909 98.250 L 167.598 102 160.799 102 C 157.060 102, 154 102.395, 154 102.878 C 154 104.283, 156.622 106.066, 158.123 105.681 C 158.880 105.487, 159.162 105.517, 158.750 105.747 C 157.106 106.666, 158.142 108, 160.500 108 C 162.199 108, 163.013 107.439, 163.040 106.250 C 163.069 105.002, 163.508 105.289, 164.572 107.250 C 165.913 109.722, 166.591 109.994, 171.282 109.944 C 177.709 109.874, 183.500 108.005, 183.500 106 C 183.500 103.976, 185.123 102.928, 187.240 103.587 C 188.196 103.885, 189.940 103.455, 191.114 102.633 C 193.199 101.172, 193.163 101.121, 189.561 100.445 C 187.533 100.065, 184.073 99.995, 181.872 100.290 C 177.122 100.927, 176.244 99.679, 178.458 95.434 C 179.299 93.820, 179.990 91.869, 179.994 91.098 C 179.997 90.327, 181.950 86.277, 184.334 82.098 C 186.718 77.919, 189.458 72.475, 190.423 70 C 192.444 64.819, 193.880 62.808, 195.044 63.527 C 195.494 63.805, 196.144 63.575, 196.490 63.016 C 196.835 62.457, 197.793 62, 198.618 62 C 199.464 62, 199.818 62.485, 199.431 63.111 C 198.941 63.905, 200.284 64.027, 204.122 63.539 C 211.332 62.622, 213.144 62.042, 212.425 60.879 C 212.045 60.263, 211.319 60.320, 210.459 61.034 C 209.709 61.656, 208.287 61.955, 207.298 61.699 C 205.836 61.319, 205.904 61.210, 207.667 61.116 C 208.858 61.052, 209.983 60.605, 210.167 60.122 C 210.350 59.639, 211.963 58.928, 213.750 58.542 C 216.255 58.002, 217 58.176, 217 59.304 C 217 60.108, 217.900 61.002, 219 61.290 C 221.772 62.015, 221.525 65.440, 218.605 66.770 C 216.234 67.851, 213.198 75.159, 211.447 84 C 211.065 85.925, 209.649 89.692, 208.298 92.372 C 206.618 95.705, 206.167 97.567, 206.870 98.270 C 208.883 100.283, 212.523 96.279, 217.356 86.734 C 221.116 79.307, 222.540 75.085, 223.818 67.577 C 226.232 53.384, 224.420 51.859, 210.636 56.486 C 206.399 57.908, 202.385 58.985, 201.716 58.878 C 201.047 58.772, 199.682 59.040, 198.683 59.475 C 197.617 59.939, 196.405 59.805, 195.751 59.151 C 194.679 58.079, 194.999 56.786, 201.081 37.601 C 201.586 36.006, 202 32.969, 202 30.851 C 202 26.296, 200.135 25.742, 197.231 29.434 M 163.465 52.112 C 162.656 54.660, 164.838 57.163, 168.168 57.505 C 171.927 57.891, 172 57.930, 172 59.525 C 172 60.363, 173.206 61.508, 174.679 62.068 C 176.875 62.903, 177.711 62.734, 179.313 61.132 C 181.252 59.192, 181.236 59.161, 177.202 57.103 C 174.965 55.962, 172.842 54.554, 172.484 53.974 C 172.125 53.393, 171.025 53.175, 170.040 53.487 C 168.798 53.881, 168.085 53.433, 167.718 52.028 C 167.023 49.370, 164.318 49.423, 163.465 52.112 M 121.826 55.750 C 121.010 56.712, 119.115 60.200, 117.614 63.500 C 112.167 75.475, 109.833 80, 109.105 80 C 108.697 80, 107.719 81.327, 106.931 82.948 C 106.144 84.569, 102.800 88.683, 99.500 92.089 C 93.337 98.451, 89.486 103.406, 81.414 115.366 C 78.865 119.142, 72.246 126.693, 66.705 132.145 C 57.525 141.179, 56.771 142.199, 58.210 143.638 C 60.179 145.607, 61.002 145.163, 69.608 137.492 C 81.012 127.326, 85.997 121.868, 91.264 113.782 C 94.052 109.502, 96.770 106, 97.304 106 C 97.921 106, 98.031 112.476, 97.606 123.750 C 96.490 153.361, 95.196 173.233, 91.857 212.025 C 90.609 226.531, 91.163 253.863, 92.790 258.021 C 94.085 261.331, 98.569 263.831, 100.230 262.170 C 101.149 261.251, 101.056 260.358, 99.819 258.240 C 97.682 254.582, 97.558 243.013, 99.419 220.914 C 104.012 166.354, 105.934 133.170, 105.696 112.533 L 105.500 95.566 111.723 87.949 C 121.142 76.420, 129.638 60.678, 128.623 56.635 C 127.836 53.496, 124.144 53.016, 121.826 55.750 M 174.441 59.532 C 176.915 61.403, 178 61.393, 178 59.500 C 178 58.523, 177.042 58.011, 175.250 58.032 C 172.616 58.062, 172.582 58.126, 174.441 59.532 M 194.342 102.800 C 194.042 103.948, 192.829 105.086, 191.648 105.329 C 190.454 105.574, 191.277 105.839, 193.500 105.926 C 195.700 106.012, 201.662 106.321, 206.750 106.612 C 212.988 106.969, 216 106.793, 216 106.071 C 216 105.482, 216.675 105, 217.500 105 C 218.325 105, 219 105.450, 219 106 C 219 106.550, 219.498 107, 220.107 107 C 220.716 107, 220.955 106.325, 220.638 105.500 C 220.254 104.498, 220.680 104, 221.924 104 C 222.948 104, 224.045 104.675, 224.362 105.500 C 224.678 106.325, 225.626 107, 226.469 107 C 227.311 107, 228 106.325, 228 105.500 C 228 104.675, 228.450 104, 229 104 C 229.550 104, 229.887 104.563, 229.750 105.250 C 229.444 106.780, 234.179 106.309, 235.174 104.711 C 235.645 103.954, 236.305 104.008, 237.369 104.891 C 239.646 106.781, 243.500 105.906, 243.500 103.500 C 243.500 101.617, 242.795 101.493, 231.500 101.385 C 219.663 101.272, 211 102.432, 211 104.130 C 211 104.608, 210.339 105, 209.531 105 C 208.637 105, 208.288 104.414, 208.638 103.500 C 209.054 102.416, 208.529 102, 206.747 102 C 205.389 102, 202.166 101.710, 199.584 101.356 C 195.384 100.781, 194.830 100.933, 194.342 102.800 M 142.200 103.200 C 141.540 103.860, 141 105.183, 141 106.141 C 141 107.099, 140.550 108.160, 140 108.500 C 138.225 109.597, 138.937 111.001, 141.250 110.965 C 142.488 110.945, 144.611 110.314, 145.968 109.563 C 147.347 108.799, 149.828 108.422, 151.591 108.708 C 153.375 108.998, 155.044 108.738, 155.432 108.110 C 155.888 107.372, 154.840 106.990, 152.309 106.970 C 149.236 106.945, 148.838 106.742, 150.250 105.920 C 151.213 105.359, 152 104.248, 152 103.450 C 152 101.625, 143.979 101.421, 142.200 103.200 M 199 105 C 199 105.550, 199.900 106, 201 106 C 202.100 106, 203 105.550, 203 105 C 203 104.450, 202.100 104, 201 104 C 199.900 104, 199 104.450, 199 105 M 177.500 128.867 C 173.650 129.886, 169.253 131.019, 167.728 131.385 C 165.334 131.958, 165.100 132.319, 166.013 134.025 C 166.895 135.673, 166.753 136, 165.150 136 C 163.155 136, 160.562 132.848, 159.768 129.458 C 159.317 127.531, 159.297 127.531, 158.503 129.500 C 158.059 130.600, 157.051 132.253, 156.263 133.173 C 154.471 135.264, 154.961 146.012, 157.213 154 C 158.065 157.025, 159.053 161.144, 159.409 163.153 C 160.043 166.740, 162.527 168.873, 164.165 167.235 C 164.622 166.778, 164.320 160.947, 163.494 154.277 C 162.493 146.190, 162.307 141.322, 162.936 139.667 C 163.876 137.195, 164.540 136.925, 173.500 135.377 C 175.700 134.997, 178.948 134.082, 180.718 133.343 C 182.488 132.604, 185.152 132, 186.639 132 C 188.126 132, 190.231 131.213, 191.317 130.250 C 192.765 128.967, 193.409 128.834, 193.729 129.750 C 194.247 131.230, 198 131.450, 198 130 C 198 128.203, 200.222 128.947, 202.635 131.552 C 205.629 134.782, 205.613 136.477, 202.563 139.528 C 201.223 140.868, 199.535 143.167, 198.813 144.636 C 197.914 146.465, 196.155 147.700, 193.233 148.553 C 190.886 149.238, 188.186 150.148, 187.233 150.574 C 186.280 151, 183.250 152.078, 180.500 152.971 C 176.244 154.351, 175.548 154.929, 175.823 156.856 C 176.001 158.101, 175.599 159.778, 174.930 160.584 C 174.262 161.389, 173.892 162.186, 174.107 162.353 C 174.323 162.521, 178.779 162.173, 184.008 161.579 C 190.481 160.845, 194.153 159.936, 195.508 158.733 C 196.604 157.761, 199.119 155.637, 201.098 154.013 C 207.371 148.864, 213.711 132.966, 211.072 129 C 209.453 126.566, 186.533 126.475, 177.500 128.867 M 188.228 154.039 C 186.023 154.925, 184.259 157.592, 185.233 158.567 C 186.144 159.477, 188.884 157.826, 190.463 155.416 C 192.158 152.829, 191.797 152.606, 188.228 154.039 M 184.928 169.959 C 183.608 176.670, 183.273 177.075, 178.673 177.520 C 176.928 177.688, 171 178.299, 165.500 178.878 C 160 179.456, 154.946 179.945, 154.269 179.964 C 153.397 179.990, 153.210 181.250, 153.626 184.289 C 154.071 187.533, 153.823 188.902, 152.607 189.911 C 151.627 190.725, 150.979 192.855, 150.947 195.372 C 150.892 199.715, 148.734 212.400, 147.597 215.063 C 146.363 217.954, 150.396 220.139, 158.993 221.237 C 164.841 221.983, 167.790 221.961, 169.553 221.158 C 171.976 220.054, 172 220.093, 172 225.190 C 172 231.317, 170.347 241.933, 168.525 247.500 C 167.805 249.700, 166.265 254.650, 165.101 258.500 C 163.938 262.350, 161.865 269.045, 160.493 273.378 C 159.122 277.710, 158 282.548, 158 284.128 C 158 286.732, 158.320 287, 161.429 287 C 164.756 287, 164.905 286.828, 166.420 281.250 C 167.279 278.087, 168.475 274.150, 169.077 272.500 C 169.680 270.850, 170.989 266.575, 171.986 263 C 172.983 259.425, 174.557 254.475, 175.483 252 C 176.409 249.525, 178.164 241.425, 179.384 234 L 181.602 220.500 187.551 218.830 C 193.072 217.280, 193.248 217.144, 190 216.944 C 187.264 216.775, 187.046 216.639, 189 216.322 C 191.369 215.938, 194.457 214.795, 198.159 212.931 C 199.072 212.472, 201.370 212.348, 203.265 212.656 C 207.363 213.321, 219.292 208.289, 220.388 205.432 C 221.496 202.543, 219.375 201.359, 216.240 203.116 C 214.733 203.960, 211.475 205.208, 209 205.887 C 206.525 206.567, 202.362 208.221, 199.749 209.562 C 197.137 210.903, 193.987 212.003, 192.749 212.006 C 191.512 212.010, 189.242 212.668, 187.705 213.470 C 183.781 215.517, 183.583 214.239, 186.082 202.993 C 187.242 197.772, 188.774 190.881, 189.486 187.681 C 190.936 181.163, 194.147 177, 197.724 177 C 200.743 177, 206 174.316, 206 172.774 C 206 171.889, 206.296 171.896, 207.200 172.800 C 208.818 174.418, 211.664 174.319, 212.315 172.622 C 213.903 168.483, 206.460 167.847, 199.187 171.500 C 196.449 172.875, 193.919 174, 193.564 174 C 193.209 174, 193.024 172.212, 193.153 170.027 C 193.427 165.393, 193.459 165.439, 189.313 164.551 L 186.126 163.869 184.928 169.959 M 160.161 182.547 C 159.522 183.948, 159 188.024, 159 191.606 C 159 195.187, 158.507 201.297, 157.903 205.184 C 156.902 211.637, 156.972 212.416, 158.705 214.149 C 159.834 215.278, 162.696 216.295, 165.770 216.659 C 172.917 217.506, 175.534 215.701, 176.428 209.307 C 176.798 206.663, 178.231 200.032, 179.613 194.570 C 182.066 184.882, 182.133 180, 179.814 180 C 179.183 180, 178.960 180.293, 179.318 180.651 C 180.447 181.780, 176.628 183.936, 173.500 183.936 C 170.022 183.936, 166.092 181.523, 168.197 180.680 C 168.914 180.393, 167.660 180.122, 165.411 180.079 C 161.960 180.012, 161.140 180.398, 160.161 182.547 M 196 215.500 C 194.525 216.343, 194.115 216.938, 195 216.951 C 197.790 216.991, 200.981 215.778, 200.430 214.886 C 199.699 213.704, 198.964 213.806, 196 215.500 M 93.583 222.866 C 93.152 223.563, 93.070 224.403, 93.400 224.733 C 94.295 225.628, 95.271 224.312, 94.787 222.862 C 94.449 221.846, 94.213 221.846, 93.583 222.866 M 175.500 225 C 175.160 225.550, 175.359 226, 175.941 226 C 176.523 226, 177 225.550, 177 225 C 177 224.450, 176.802 224, 176.559 224 C 176.316 224, 175.840 224.450, 175.500 225" stroke="none" fill="black" fill-rule="evenodd"/>
</svg>