<svg xmlns="http://www.w3.org/2000/svg" width="300" height="300" viewBox="0 0 300 300" version="1.1">
	<path d="M 185.500 46.965 C 179.450 47.318, 173.600 48.097, 172.500 48.696 C 168.434 50.913, 159.974 52.193, 153.984 51.498 C 149.062 50.927, 148 51.065, 148 52.279 C 148 53.091, 147.325 54.315, 146.500 55 C 143.660 57.357, 145.019 58.008, 152.250 57.754 C 157.027 57.587, 159.875 57.022, 160.598 56.097 C 163.591 52.275, 166.313 60.684, 166.069 73 C 165.958 78.614, 165.440 81.965, 164.545 82.869 C 163.136 84.293, 147.784 87.107, 140.060 87.356 C 136.144 87.483, 135.552 87.216, 135.038 85.095 C 134.717 83.772, 133.682 82.202, 132.738 81.607 C 131.371 80.744, 130.518 81.030, 128.545 83.012 L 126.068 85.500 128.065 94 C 129.163 98.675, 131.136 106.325, 132.451 111 C 133.765 115.675, 135.138 121.826, 135.503 124.670 C 136.571 132.997, 140.216 134.751, 150.087 131.687 C 153.159 130.733, 156.558 129.129, 157.640 128.121 C 158.997 126.856, 160.593 126.433, 162.792 126.756 C 165.028 127.084, 166.149 126.774, 166.556 125.716 C 166.991 124.581, 168.136 124.343, 171.194 124.753 C 174.338 125.175, 175.465 124.920, 176.191 123.623 C 176.948 122.271, 178.040 122.069, 181.858 122.575 C 185.526 123.062, 186.885 122.844, 187.916 121.601 C 189.503 119.688, 191.669 119.513, 192.254 121.250 C 192.562 122.166, 193.052 122.211, 194.087 121.418 C 194.864 120.823, 198.200 119.728, 201.500 118.984 C 204.800 118.241, 209.450 116.816, 211.833 115.817 C 214.216 114.817, 216.951 114, 217.911 114 C 218.872 114, 221.736 112.623, 224.276 110.940 C 232.669 105.381, 236.273 95.341, 234.099 83.578 C 232.424 74.517, 231.622 74.005, 219.096 73.994 C 213.268 73.990, 205.593 73.651, 202.039 73.243 L 195.579 72.500 195.534 67.795 C 195.449 58.885, 190.906 58.926, 188.428 67.858 C 186.140 76.108, 186.191 76, 184.565 76 C 183.742 76, 181.483 76.756, 179.546 77.679 C 177.610 78.603, 175.699 79.032, 175.301 78.634 C 174.902 78.235, 174.334 72.867, 174.038 66.705 C 173.526 56.035, 173.393 55.485, 171.250 55.180 C 170.012 55.005, 169 54.178, 169 53.343 C 169 52.151, 169.807 51.950, 172.750 52.407 C 179.533 53.460, 184.415 53.220, 190.500 51.533 C 193.800 50.618, 198.851 50.011, 201.723 50.185 C 204.679 50.363, 207.018 50.066, 207.111 49.500 C 207.362 47.974, 202.867 46.011, 199.500 46.177 C 197.850 46.258, 191.550 46.613, 185.500 46.965 M 104.270 57.750 C 104.547 58.712, 105.076 60.231, 105.445 61.124 C 105.885 62.186, 105.058 63.908, 103.059 66.097 C 101.376 67.939, 100 70.500, 100 71.787 C 100 76.528, 95.080 86.122, 80.149 110.500 C 74.698 119.399, 73.213 121.382, 64.143 131.869 C 61.590 134.822, 59.500 138.158, 59.500 139.281 C 59.500 140.404, 58.938 141.513, 58.250 141.745 C 57.563 141.977, 57 141.387, 57 140.435 C 57 139.275, 54.992 140.729, 50.924 144.836 C 44.849 150.968, 43.681 154.122, 47.231 154.806 C 49.165 155.178, 49.100 155.222, 58.163 147.314 C 69.564 137.367, 70.402 136.578, 74.177 132.232 C 76.199 129.904, 78.285 128, 78.813 128 C 80.069 128, 80.660 132.451, 82.599 156.500 C 83.961 173.400, 84.029 179.213, 83.033 194 C 80.034 238.520, 80.122 256.430, 83.431 275.500 C 84.723 282.947, 85.458 284.909, 87.693 286.872 L 90.394 289.243 92.697 286.566 C 95.265 283.581, 95.695 279.822, 93.663 278.135 C 92.299 277.003, 90.545 266.451, 89.485 253 C 89.160 248.875, 89.462 233.575, 90.157 219 C 91.514 190.509, 91.615 179.239, 90.784 149.253 C 90.432 136.557, 89.844 129.517, 89.058 128.570 C 88.221 127.562, 88.078 124.950, 88.577 119.817 C 89.278 112.617, 92.528 104.799, 97.025 99.500 C 100.480 95.428, 104.714 85.216, 106.975 75.500 C 108.255 70, 109.684 65.073, 110.151 64.550 C 111.401 63.151, 111.183 58.583, 109.800 57.200 C 109.140 56.540, 107.513 56, 106.183 56 C 104.357 56, 103.890 56.427, 104.270 57.750 M 214 77.438 C 214 78.205, 214.563 79.034, 215.250 79.280 C 217.555 80.103, 215.535 80.768, 212.250 80.268 C 210.384 79.984, 209 79.183, 209 78.387 C 209 77.624, 208.100 77, 207 77 C 205.889 77, 205 77.667, 205 78.500 C 205 80.172, 201.467 80.564, 200.500 79 C 200.160 78.450, 199.017 78, 197.960 78 C 195.667 78, 195.320 79.385, 194.573 91.500 C 193.734 105.115, 191.220 111.789, 187.471 110.351 C 186.343 109.918, 186 107.887, 186 101.636 C 186 97.154, 186.430 91.989, 186.955 90.157 C 188.405 85.100, 186.712 83.113, 181.263 83.480 C 178.859 83.642, 176.594 84.072, 176.231 84.436 C 173.733 86.934, 170.850 115.972, 172.815 118.844 C 173.580 119.963, 174.219 119.939, 176.617 118.705 C 178.203 117.889, 181.750 116.922, 184.500 116.557 C 191.687 115.604, 194.300 114.900, 196 113.463 C 196.844 112.749, 200.288 112.161, 203.876 112.118 C 208.785 112.060, 211.201 111.474, 214.376 109.573 C 222.048 104.978, 223.992 102.786, 225.522 97 C 228.248 86.693, 226.833 80.968, 221.772 81.825 C 220.539 82.034, 219.670 81.452, 219.341 80.197 C 218.700 77.745, 214 75.317, 214 77.438 M 159.574 88.880 C 158.532 90.566, 148.819 93.119, 145.892 92.476 C 144.096 92.082, 143 92.250, 143 92.921 C 143 93.514, 143.787 94.036, 144.750 94.080 C 145.713 94.125, 144.475 94.687, 142 95.330 C 137.018 96.625, 137.088 96.377, 139.007 106 C 139.611 109.025, 140.418 114.650, 140.802 118.500 L 141.500 125.500 146.158 125.346 C 149.147 125.247, 152.404 124.262, 155.246 122.596 C 157.682 121.168, 161.161 120, 162.977 120 L 166.279 120 165.561 114.750 C 165.166 111.862, 164.868 105.450, 164.898 100.500 C 164.929 95.550, 164.709 90.713, 164.409 89.750 C 163.845 87.935, 160.527 87.338, 159.574 88.880 M 167.695 93.639 C 166.611 94.723, 166.879 99, 168.031 99 C 168.599 99, 169.311 98.352, 169.615 97.561 C 170.270 95.853, 168.696 92.638, 167.695 93.639 M 80.736 119.598 C 79.934 120.399, 80.983 123, 82.107 123 C 82.598 123, 83 122.100, 83 121 C 83 119.051, 81.939 118.394, 80.736 119.598 M 195 133.401 C 193.625 134.152, 190.475 135.088, 188 135.480 C 185.525 135.872, 182.504 136.823, 181.287 137.595 C 178.318 139.477, 167.725 140.885, 161.266 140.258 C 157.421 139.884, 155.366 140.185, 153.521 141.394 C 151.951 142.423, 150.075 142.806, 148.519 142.416 C 145.111 141.560, 143.418 145.722, 144.752 151.675 C 145.267 153.971, 145.781 159.371, 145.895 163.675 C 146.008 167.979, 146.530 178.017, 147.055 185.981 C 147.931 199.287, 148.204 200.658, 150.416 202.871 L 152.824 205.278 165.162 199.282 C 172.506 195.713, 180.738 192.547, 185.500 191.460 C 195.549 189.166, 200.259 187.260, 199.714 185.708 C 199.442 184.934, 197.529 184.595, 194.395 184.765 C 187.716 185.126, 175.724 187.062, 174.500 187.977 C 173.950 188.388, 172.157 189.046, 170.516 189.440 C 165.784 190.575, 157 194.868, 157 196.045 C 157 196.635, 156.550 196.840, 156 196.500 C 155.437 196.152, 155 191.323, 155 185.441 C 155 177.380, 155.305 175, 156.340 175 C 157.077 175, 161.690 173.604, 166.590 171.897 C 180.116 167.187, 188.943 165.036, 194.823 165.017 C 199.351 165.003, 200.096 164.739, 199.806 163.250 C 199.514 161.745, 198.351 161.518, 191.483 161.629 C 183.530 161.757, 173.203 163.189, 167.500 164.954 C 165.850 165.465, 162.250 166.022, 159.500 166.191 L 154.500 166.500 154.209 158.241 C 153.921 150.040, 153.939 149.973, 156.709 148.795 C 158.244 148.143, 159.950 147.542, 160.500 147.459 C 161.050 147.377, 164.342 146.954, 167.815 146.518 C 171.288 146.083, 174.779 145.078, 175.572 144.285 C 176.553 143.305, 177.992 143.059, 180.075 143.517 C 182.587 144.068, 183.229 143.840, 183.645 142.249 C 184.085 140.569, 184.822 140.373, 189.135 140.787 C 193.620 141.218, 194.175 141.047, 194.690 139.076 C 195.054 137.684, 195.791 137.090, 196.713 137.443 C 197.511 137.750, 198.914 138.007, 199.832 138.015 C 202.850 138.043, 204.211 139.690, 205.714 145.130 C 207.488 151.554, 208.280 166.134, 207.033 169.414 C 206.543 170.701, 205.586 178.110, 204.906 185.877 L 203.668 200 199.353 200 C 196.669 200, 192.669 201.110, 188.769 202.937 C 179.641 207.213, 165.132 211.742, 158.163 212.490 C 156.327 212.687, 154.077 213.511, 153.163 214.321 C 152.248 215.131, 150.648 215.952, 149.607 216.147 C 148.566 216.341, 147.216 217.316, 146.607 218.313 C 145.706 219.788, 145.939 220.485, 147.861 222.063 C 151.161 224.771, 153.264 224.510, 160.434 220.500 C 163.876 218.575, 167.399 217, 168.263 217 C 169.127 217, 170.060 216.438, 170.338 215.750 C 170.739 214.756, 170.858 214.758, 170.921 215.759 C 170.964 216.451, 169.762 218.401, 168.250 220.092 C 166.738 221.783, 165.185 224.366, 164.799 225.833 C 162.205 235.711, 160.791 239.602, 159.135 241.423 C 158.097 242.565, 156.080 245.383, 154.653 247.683 C 153.226 249.984, 149.997 254.188, 147.477 257.026 C 142.724 262.378, 142.267 264.293, 145.625 264.793 C 146.901 264.983, 149.093 263.487, 151.852 260.543 C 154.194 258.044, 156.536 256, 157.057 256 C 158.842 256, 166.042 247.501, 168.070 243 C 169.185 240.525, 170.809 237.150, 171.679 235.500 C 174.055 230.990, 175.975 223.084, 175.988 217.750 C 175.999 213.245, 176.142 212.998, 178.750 212.968 C 180.262 212.951, 182.374 212.276, 183.441 211.468 C 184.509 210.661, 186.248 210, 187.306 210 C 188.364 210, 191.315 208.942, 193.865 207.648 C 196.414 206.355, 200.525 204.628, 203 203.811 C 207.576 202.299, 208.522 201.136, 210.974 194 C 214.330 184.232, 216.378 168.267, 215.798 156.385 C 215.369 147.582, 214.965 145.879, 212.108 140.831 C 210.344 137.714, 208.263 134.633, 207.482 133.985 C 205.324 132.194, 197.847 131.844, 195 133.401 M 63 136 C 62.099 136.582, 61.975 136.975, 62.691 136.985 C 63.346 136.993, 64.160 136.550, 64.500 136 C 65.267 134.758, 64.921 134.758, 63 136 M 87.079 187.583 C 87.127 188.748, 87.364 188.985, 87.683 188.188 C 87.972 187.466, 87.936 186.603, 87.604 186.271 C 87.272 185.939, 87.036 186.529, 87.079 187.583 M 85.079 204.583 C 85.127 205.748, 85.364 205.985, 85.683 205.188 C 85.972 204.466, 85.936 203.603, 85.604 203.271 C 85.272 202.939, 85.036 203.529, 85.079 204.583 M 178.778 232.750 C 178.575 233.713, 178.836 235.944, 179.359 237.708 C 180.633 242.007, 193.836 252.258, 201.687 255.043 C 204.884 256.178, 208.306 257.547, 209.291 258.087 C 211.370 259.226, 213 258.503, 213 256.441 C 213 255.648, 213.695 255, 214.544 255 C 215.393 255, 216.015 255.563, 215.925 256.250 C 215.470 259.757, 215.957 260.022, 221.750 259.415 C 228.058 258.754, 234 256.524, 234 254.816 C 234 254.087, 231.829 253.900, 227.438 254.253 C 223.829 254.543, 219.667 254.389, 218.188 253.912 C 216.710 253.434, 212.350 252.083, 208.500 250.908 C 204.650 249.734, 201.050 248.222, 200.500 247.550 C 199.950 246.877, 198.403 245.742, 197.063 245.028 C 195.723 244.314, 194.148 243.347, 193.563 242.880 C 192.978 242.412, 191.021 240.845, 189.214 239.396 C 187.407 237.947, 185.258 235.465, 184.438 233.881 C 182.782 230.679, 179.359 229.995, 178.778 232.750" stroke="none" fill="black" fill-rule="evenodd"/>
</svg>