<svg xmlns="http://www.w3.org/2000/svg" width="300" height="300" viewBox="0 0 300 300" version="1.1">
	<path d="M 179 43.025 C 173.225 44.030, 165.572 44.886, 161.993 44.926 C 158.415 44.967, 153.915 45.472, 151.993 46.050 C 150.072 46.627, 140.400 47.744, 130.500 48.531 C 108.411 50.288, 102.981 50.940, 100.816 52.099 C 98.142 53.529, 97.037 53.176, 95.818 50.500 C 95.076 48.870, 93.865 48, 92.339 48 C 89.778 48, 89.365 48.965, 91.158 50.758 C 92.034 51.634, 92.012 52.280, 91.067 53.419 C 89.757 54.998, 89.984 60.639, 91.855 73 C 92.396 76.575, 93.555 84.675, 94.430 91 C 96.562 106.405, 97.172 108.432, 99.785 108.815 C 101.862 109.120, 101.920 108.861, 101.480 101.315 C 100.881 91.049, 99.102 73.877, 97.936 67.099 C 96.979 61.541, 97.796 59, 100.539 59 C 101.251 59, 102.060 58.438, 102.338 57.750 C 102.741 56.750, 102.858 56.750, 102.921 57.750 C 102.964 58.438, 103.470 59, 104.044 59 C 104.618 59, 104.955 58.232, 104.794 57.293 C 104.583 56.067, 105.275 55.520, 107.250 55.353 C 108.763 55.225, 110 55.543, 110 56.060 C 110 56.577, 111.912 56.947, 114.250 56.882 C 118.100 56.774, 118.218 56.701, 115.500 56.102 C 112.744 55.494, 113.008 55.314, 118.750 53.893 C 122.292 53.016, 125 52.758, 125 53.298 C 125 53.830, 126.371 53.976, 128.105 53.629 C 130.558 53.138, 131.095 53.311, 130.657 54.451 C 130.203 55.636, 131.033 55.792, 135.302 55.327 C 138.161 55.015, 141 54.139, 141.610 53.380 C 142.221 52.621, 143.683 52, 144.860 52 C 146.037 52, 147 51.648, 147 51.217 C 147 50.787, 149.102 50.343, 151.672 50.232 C 155.955 50.045, 156.184 50.149, 154.422 51.482 C 152.557 52.893, 152.566 52.937, 154.750 52.968 C 156.097 52.987, 157 52.398, 157 51.500 C 157 49.802, 158.566 49.489, 159.500 51 C 160.582 52.750, 162.747 52.077, 163.340 49.806 C 163.880 47.742, 164.023 47.711, 165.757 49.280 C 167.338 50.711, 168.711 50.823, 175.432 50.069 C 179.739 49.586, 183.585 48.672, 183.977 48.038 C 184.409 47.338, 185.734 47.146, 187.345 47.550 C 189.394 48.065, 190 47.850, 190 46.608 C 190 44.578, 192.868 44.493, 193.638 46.500 C 194.352 48.359, 201.603 48.568, 202.341 46.750 C 202.733 45.783, 203.066 45.812, 203.812 46.878 C 204.342 47.636, 205.320 47.921, 205.984 47.510 C 206.647 47.100, 208.282 47.348, 209.616 48.062 C 211.478 49.059, 212.314 49.086, 213.220 48.180 C 214.653 46.747, 217.366 46.598, 216.500 48 C 216.160 48.550, 216.809 49, 217.941 49 C 219.073 49, 220 48.550, 220 48 C 220 46.095, 222.041 47.015, 224.890 50.203 L 227.753 53.407 225.455 55.214 C 223.614 56.662, 223.033 58.363, 222.534 63.761 C 222.191 67.467, 221.215 73.650, 220.365 77.500 C 218.610 85.447, 218.818 90.500, 220.899 90.500 C 222.846 90.500, 226.537 80.124, 228.012 70.500 C 228.687 66.100, 230.118 59.476, 231.193 55.781 C 232.268 52.086, 233.002 48.052, 232.824 46.818 C 232.394 43.841, 229.152 43.203, 211 42.526 C 203.025 42.229, 194.925 41.808, 193 41.591 C 191.075 41.374, 184.775 42.019, 179 43.025 M 179.035 70.934 C 178.466 71.998, 177.984 73.911, 177.965 75.184 C 177.884 80.476, 174.475 83.274, 165 85.826 C 161.293 86.825, 156 90.254, 156 91.657 C 156 93.555, 157.934 94.300, 159.496 93.003 C 160.270 92.361, 161.737 92.099, 162.754 92.422 C 163.772 92.745, 165.481 92.347, 166.552 91.536 C 167.624 90.726, 169.765 90.049, 171.311 90.032 C 174.038 90.001, 174.107 90.128, 173.597 94.250 C 172.244 105.183, 172.054 109.607, 172.880 110.878 C 175.031 114.185, 178.608 107.427, 181.419 94.748 C 183.104 87.146, 185.423 83.908, 188.030 85.518 C 188.573 85.854, 189.939 85.837, 191.066 85.479 C 194.331 84.443, 193.001 81.575, 188.989 81 C 186.076 80.583, 185.448 80.046, 185.184 77.750 C 185.010 76.237, 184.447 75, 183.934 75 C 183.420 75, 183 74.550, 183 74 C 183 73.450, 184.098 73, 185.441 73 C 188.077 73, 189.494 71.608, 188.498 69.997 C 188.084 69.327, 187.255 69.328, 186 70 C 184.745 70.672, 183.916 70.673, 183.502 70.003 C 182.491 68.368, 180.147 68.857, 179.035 70.934 M 128.384 73.188 C 127.980 73.842, 127.757 78.761, 127.890 84.118 C 128.162 95.155, 128.726 94.321, 118.568 97.892 C 114.611 99.282, 111.441 99.774, 108.976 99.380 C 104.757 98.706, 103.430 100.371, 104.966 104.412 C 106.207 107.674, 107.363 108.195, 109.603 106.500 C 110.646 105.710, 112.657 105.049, 114.072 105.032 C 115.486 105.014, 118.757 104.280, 121.340 103.400 C 126.601 101.607, 129.551 102.121, 128.577 104.661 C 128.230 105.565, 128.451 107.837, 129.069 109.710 C 129.945 112.364, 130.667 113.046, 132.346 112.807 C 134.260 112.534, 134.534 111.779, 134.803 106.038 C 134.970 102.484, 135.586 98.999, 136.172 98.293 C 136.758 97.587, 139.096 96.481, 141.369 95.836 C 149.205 93.611, 148.863 91.500, 140.666 91.500 L 135.500 91.500 134.800 83.777 C 134.415 79.530, 133.611 75.142, 133.015 74.027 C 131.810 71.776, 129.513 71.360, 128.384 73.188 M 163 115.066 C 151.894 115.672, 145.643 116.996, 134 121.206 C 130.975 122.300, 126.681 123.304, 124.459 123.437 C 119.658 123.726, 115.438 126.239, 114.618 129.297 C 113.243 134.426, 114.016 146.967, 116.041 152.379 C 118.363 158.586, 121.865 163.539, 123.071 162.321 C 123.518 161.870, 123.395 158.125, 122.798 154 C 121.565 145.483, 121.696 135.071, 123.057 133.431 C 123.560 132.825, 125.890 131.725, 128.236 130.987 C 130.581 130.249, 133.175 129.109, 134 128.455 C 134.825 127.801, 137.444 126.971, 139.820 126.610 C 142.197 126.249, 145.154 125.290, 146.393 124.478 C 148.614 123.023, 150.903 122.504, 160.250 121.338 C 163.322 120.955, 165 120.261, 165 119.373 C 165 118.618, 165.675 118, 166.500 118 C 167.325 118, 168 118.436, 168 118.969 C 168 119.501, 168.629 119.696, 169.397 119.401 C 170.165 119.106, 171.965 120.128, 173.397 121.672 C 176.384 124.894, 176.555 125.573, 174.570 126.335 C 173.744 126.652, 172.877 128.916, 172.517 131.692 C 171.219 141.710, 169.674 150.525, 169.098 151.197 C 168.769 151.580, 164.675 151.969, 160 152.062 C 152.172 152.217, 142.573 154.512, 139.512 156.959 C 138.955 157.405, 136.925 158.090, 135 158.483 C 130.180 159.466, 127 161.668, 127 164.023 C 127 165.686, 127.683 166, 131.300 166 C 133.665 166, 136.101 165.499, 136.713 164.887 C 139.777 161.823, 140.095 168.770, 137.058 172.430 C 135.878 173.852, 116.751 178.217, 106.295 179.449 C 104.532 179.657, 102.541 180.166, 101.872 180.579 C 100.327 181.534, 94.891 182.660, 83.500 184.385 C 71.616 186.184, 67 188.126, 67 191.327 C 67 196.046, 73.165 197.821, 73.813 193.289 C 74.069 191.499, 74.527 191.242, 76.313 191.885 C 77.516 192.318, 79.625 192.341, 81 191.936 C 82.375 191.531, 85.161 191.155, 87.191 191.100 C 90.582 191.008, 93.805 189.082, 90.809 188.937 C 90.089 188.902, 90.570 188.445, 91.879 187.921 C 93.711 187.188, 94.534 187.348, 95.463 188.619 C 96.529 190.077, 97.006 190.106, 99.584 188.870 C 101.188 188.102, 102.500 186.954, 102.500 186.320 C 102.500 184.308, 103.928 183.648, 104.583 185.357 C 104.930 186.261, 105.953 186.986, 106.857 186.968 C 108.862 186.929, 112 184.660, 112 183.249 C 112 181.931, 119.191 180.979, 120.450 182.131 C 121.010 182.643, 120.291 183, 118.700 183 C 117.215 183, 116 183.450, 116 184 C 116 185.279, 117.540 185.255, 122.411 183.903 C 125.302 183.100, 125.954 182.584, 124.911 181.924 C 123.601 181.095, 124.368 180.560, 126.355 180.917 C 126.826 181.001, 127.849 180.540, 128.629 179.893 C 130.957 177.961, 131.338 179.662, 129.083 181.917 C 127.938 183.062, 126.994 184.563, 126.987 185.250 C 126.954 188.378, 101.974 211.645, 97.308 212.893 C 95.461 213.387, 94.500 214.304, 94.500 215.572 C 94.500 218.906, 100.164 218.625, 106.543 214.975 C 111.540 212.116, 129.715 196.221, 132.627 192.163 C 136.351 186.974, 145.681 178.502, 147.321 178.820 C 148.500 179.049, 149.333 178.442, 149.685 177.098 C 150.009 175.858, 150.685 175.312, 151.364 175.743 C 153.741 177.250, 158.650 176.705, 162.500 174.508 C 167.650 171.568, 175.467 170.652, 177.231 172.782 C 178.349 174.132, 177.926 174.249, 173.663 173.770 C 170.569 173.422, 169.172 173.572, 169.787 174.187 C 171.219 175.619, 197.172 175.340, 198.072 173.884 C 198.519 173.161, 199.975 172.945, 201.860 173.322 C 203.706 173.691, 205.202 173.482, 205.626 172.796 C 206.076 172.068, 206.619 172.440, 207.132 173.829 C 208.015 176.214, 209.544 176.504, 213.435 175.025 C 215.263 174.330, 216 173.317, 216 171.500 C 216 168.060, 212.348 166.678, 206.701 167.982 C 201.799 169.113, 183.835 169.187, 176.252 168.106 C 172.689 167.599, 167.551 167.928, 160.252 169.133 C 145.894 171.501, 146.714 171.590, 147.539 167.750 C 148.988 161.004, 150.218 159.846, 158.101 157.814 C 163.508 156.420, 165.968 156.188, 167.236 156.953 C 171.249 159.372, 172.928 157.612, 176.117 147.641 C 178.684 139.615, 180.555 121.514, 179.139 118.407 C 177.517 114.845, 175.328 114.392, 163 115.066 M 140.500 124 C 140.160 124.550, 140.610 125, 141.500 125 C 142.390 125, 142.840 124.550, 142.500 124 C 142.160 123.450, 141.710 123, 141.500 123 C 141.290 123, 140.840 123.450, 140.500 124 M 132.500 126 C 132.160 126.550, 132.584 127, 133.441 127 C 134.298 127, 135 126.550, 135 126 C 135 125.450, 134.577 125, 134.059 125 C 133.541 125, 132.840 125.450, 132.500 126 M 148 133.925 C 145.525 134.933, 140.614 137.233, 137.087 139.038 C 133.559 140.843, 129.284 142.602, 127.587 142.947 C 125.407 143.390, 124.406 144.226, 124.180 145.791 C 123.355 151.508, 134.457 149.044, 153.181 139.356 C 154.655 138.593, 158.705 137.830, 162.181 137.661 C 168.620 137.347, 169.497 136.509, 166.795 133.253 C 165.202 131.333, 153.324 131.758, 148 133.925 M 117.031 143.500 C 117.031 144.050, 117.467 145.175, 118 146 C 118.533 146.825, 118.969 147.050, 118.969 146.500 C 118.969 145.950, 118.533 144.825, 118 144 C 117.467 143.175, 117.031 142.950, 117.031 143.500 M 191.750 172.662 C 192.438 172.940, 193.563 172.940, 194.250 172.662 C 194.938 172.385, 194.375 172.158, 193 172.158 C 191.625 172.158, 191.063 172.385, 191.750 172.662 M 185.269 173.693 C 186.242 173.947, 187.592 173.930, 188.269 173.656 C 188.946 173.382, 188.150 173.175, 186.500 173.195 C 184.850 173.215, 184.296 173.439, 185.269 173.693 M 171.750 184.572 C 168.592 186.285, 168.230 187.782, 170.750 188.702 C 171.713 189.053, 173.772 190.389, 175.327 191.670 C 176.881 192.952, 179.067 194, 180.183 194 C 181.299 194, 183.126 195.161, 184.242 196.581 C 185.672 198.398, 186.893 199, 188.370 198.614 C 189.864 198.223, 191.271 198.945, 193.264 201.128 C 194.918 202.938, 196.662 203.960, 197.531 203.627 C 198.339 203.317, 199 203.437, 199 203.894 C 199 204.778, 209.167 206.134, 217.500 206.363 C 221.323 206.468, 222.500 206.149, 222.500 205.011 C 222.500 203.978, 220.508 203.122, 216 202.220 C 203.954 199.807, 197.527 197.805, 192 194.741 C 188.975 193.065, 185.363 191.105, 183.974 190.385 C 182.585 189.666, 180.138 187.710, 178.537 186.038 C 175.200 182.556, 175.390 182.597, 171.750 184.572 M 154.259 186.659 C 151.786 187.659, 149.793 194.119, 149.153 203.214 L 148.500 212.500 142 213.365 C 138.425 213.841, 135.213 214.686, 134.862 215.243 C 133.911 216.752, 132 215.175, 132 212.882 C 132 211.751, 131.548 211.161, 130.959 211.525 C 130.387 211.879, 130.202 213.062, 130.549 214.154 C 131.012 215.613, 130.643 216.281, 129.159 216.669 C 128.048 216.959, 126.969 217.715, 126.762 218.349 C 126.097 220.383, 127.697 243.367, 128.779 247.329 C 130.036 251.931, 130.455 252.423, 132.457 251.655 C 133.753 251.157, 134 248.651, 134 235.972 C 134 226.284, 134.354 221.101, 134.988 221.493 C 135.532 221.829, 138.064 221.180, 140.616 220.052 C 143.167 218.923, 145.612 218, 146.050 218 C 146.487 218, 147.374 219.603, 148.021 221.562 C 148.872 224.142, 149.001 231.521, 148.488 248.312 C 147.743 272.687, 148.464 279.480, 152.441 285.551 C 154.735 289.052, 157.450 288.852, 156.534 285.250 C 155.665 281.833, 155.700 284.074, 155.987 249.534 C 156.120 233.603, 156.434 220.032, 156.685 219.377 C 156.937 218.722, 160.965 217.644, 165.637 216.981 C 171.989 216.079, 174.635 215.236, 176.128 213.637 C 177.803 211.843, 178.011 211.794, 177.423 213.333 C 176.819 214.912, 177.173 215.119, 179.982 214.833 C 182.584 214.567, 183.661 215.055, 185.318 217.253 L 187.395 220.007 185.198 224.530 C 183.989 227.018, 183 229.820, 183 230.756 C 183 232.878, 176.877 241.995, 175.450 241.998 C 174.873 241.999, 173.902 241.502, 173.293 240.893 C 171.302 238.902, 169.809 243.282, 171.604 245.845 C 174.200 249.551, 178.867 248.731, 183.804 243.699 C 186.126 241.334, 188.497 237.846, 189.074 235.949 C 193.919 220.011, 194.135 215.957, 190.328 212.428 C 188.858 211.066, 186.608 209.738, 185.328 209.476 C 184.048 209.214, 181.916 208.777, 180.591 208.504 C 178.571 208.088, 168.144 209.571, 159.250 211.540 C 157.076 212.021, 157.001 211.793, 157.024 204.769 C 157.038 200.771, 157.501 195.537, 158.054 193.139 C 159.328 187.615, 157.905 185.186, 154.259 186.659 M 87 188 C 85.718 188.828, 85.754 188.972, 87.250 188.985 C 88.213 188.993, 89 188.550, 89 188 C 89 186.780, 88.887 186.780, 87 188" stroke="none" fill="black" fill-rule="evenodd"/>
</svg>