<svg xmlns="http://www.w3.org/2000/svg" width="300" height="300" viewBox="0 0 300 300" version="1.1">
	<path d="M 168 33.727 C 167.175 34.040, 163.125 35.870, 159 37.793 C 154.875 39.717, 149.475 41.509, 147 41.776 C 144.525 42.043, 142.050 42.611, 141.500 43.037 C 140.950 43.464, 138.357 44.132, 135.738 44.522 C 133.118 44.912, 130.729 45.629, 130.429 46.115 C 130.128 46.602, 128.671 47.016, 127.191 47.035 C 125.711 47.055, 123.375 47.714, 122 48.500 C 120.625 49.286, 118.367 49.945, 116.982 49.965 C 115.597 49.984, 112.809 51.125, 110.785 52.500 C 108.762 53.875, 106.687 55, 106.174 55 C 105.662 55, 104.683 56.350, 104 58 C 103.317 59.650, 102.137 61, 101.379 61 C 100.620 61, 100 61.675, 100 62.500 C 100 63.325, 100.513 64, 101.140 64 C 101.767 64, 102.812 64.728, 103.463 65.618 C 105.258 68.073, 110.818 66.573, 111.609 63.420 C 112.318 60.597, 113.638 60.362, 116.128 62.616 C 118.067 64.371, 118.118 64.360, 134.500 58.777 C 137.800 57.653, 141.850 56.513, 143.500 56.245 C 145.150 55.976, 147.187 55.158, 148.026 54.426 C 148.865 53.694, 151.391 52.801, 153.639 52.442 L 157.726 51.788 158.885 61.144 C 159.522 66.290, 160.499 74.775, 161.057 80 C 161.615 85.225, 162.336 91.237, 162.658 93.359 C 163.158 96.649, 162.858 97.577, 160.622 99.650 C 159.180 100.987, 158 102.911, 158 103.926 C 158 106.206, 156.340 109.424, 152.750 114.104 C 151.238 116.076, 150 118.016, 150 118.416 C 150 118.816, 149.325 119.818, 148.500 120.643 C 147.675 121.468, 147 123.151, 147 124.384 C 147 125.617, 145.875 128.958, 144.500 131.808 C 143.125 134.658, 142 137.478, 142 138.073 C 142 139.041, 136.337 151.802, 133.939 156.236 C 133.423 157.191, 133 159.014, 133 160.286 C 133 161.559, 132.574 163.027, 132.054 163.550 C 130.901 164.707, 124.349 176.444, 122.731 180.250 C 122.088 181.763, 121.210 183, 120.781 183 C 120.351 183, 120 183.926, 120 185.058 C 120 186.976, 116.935 193.198, 113.131 199 C 112.229 200.375, 110.635 203.188, 109.588 205.250 C 108.542 207.313, 107.408 209, 107.070 209 C 106.732 209, 105.581 210.688, 104.514 212.750 C 102.350 216.932, 97.577 223.451, 94.447 226.500 C 93.318 227.600, 90.214 231.425, 87.549 235 C 77.856 248.006, 55.996 267.976, 49.750 269.532 C 48.237 269.909, 47 270.618, 47 271.108 C 47 271.599, 46.350 272, 45.557 272 C 44.763 272, 43.316 273.350, 42.341 275 C 41.366 276.650, 40.216 278, 39.784 278 C 39.353 278, 39 279.081, 39 280.402 C 39 282.195, 39.795 283.082, 42.136 283.898 C 44.901 284.861, 45.878 284.636, 50.386 281.997 C 56.275 278.550, 61 274.566, 61 273.048 C 61 272.472, 61.480 272, 62.067 272 C 63.278 272, 74.322 263.253, 74.833 261.889 C 75.017 261.400, 75.804 261, 76.583 261 C 77.362 261, 78 260.631, 78 260.179 C 78 259.727, 79.912 257.339, 82.250 254.871 C 91.120 245.505, 98.753 237.029, 101.574 233.411 C 103.184 231.348, 106.543 227.149, 109.039 224.080 C 116.910 214.405, 119.624 210.032, 127.715 194 C 129.797 189.875, 131.838 186.350, 132.250 186.167 C 132.662 185.983, 133 185.026, 133 184.039 C 133 183.052, 133.675 181.685, 134.500 181 C 135.325 180.315, 136 178.937, 136 177.937 C 136 176.936, 136.403 175.869, 136.896 175.564 C 137.389 175.259, 138.684 173.320, 139.774 171.255 C 140.864 169.190, 142.478 166.150, 143.361 164.500 C 146.125 159.337, 153 143.929, 153 142.899 C 153 142.359, 154.272 139.123, 155.827 135.708 C 157.381 132.294, 159.224 127.475, 159.923 125 C 161.944 117.834, 163.856 114, 165.406 114 C 167.025 114, 167.948 116.572, 170.967 129.500 C 174.855 146.150, 175.213 147.490, 176.609 150.651 C 177.374 152.384, 178 154.249, 178 154.794 C 178 155.340, 178.675 156.045, 179.500 156.362 C 180.325 156.678, 181 157.632, 181 158.482 C 181 159.332, 181.423 160.809, 181.940 161.764 C 182.456 162.719, 183.134 164.714, 183.445 166.197 C 183.757 167.681, 186.216 171.194, 188.911 174.004 C 193.102 178.375, 195.196 181.727, 201.847 194.705 C 202.353 195.692, 203.317 197.850, 203.989 199.500 C 204.661 201.150, 205.823 203.850, 206.571 205.500 C 207.319 207.150, 208.220 209.738, 208.574 211.250 C 208.927 212.762, 209.618 214, 210.108 214 C 210.599 214, 211 214.814, 211 215.809 C 211 216.804, 211.661 218.491, 212.468 219.559 C 213.276 220.626, 213.951 222.525, 213.968 223.779 C 213.986 225.032, 215.350 228.731, 217 232 C 218.650 235.269, 220 238.458, 220 239.088 C 220 239.717, 221.575 242.378, 223.500 245 C 225.425 247.622, 227 250.126, 227 250.564 C 227 252.271, 235.278 263.954, 236.843 264.456 C 237.754 264.749, 239.807 266.116, 241.406 267.494 C 244.823 270.441, 246.214 270.577, 250.011 268.335 C 252.964 266.590, 254.391 262.599, 252.994 259.990 C 252.544 259.147, 249.934 257.652, 247.195 256.667 C 240.920 254.411, 234.395 248.883, 232.418 244.147 C 231.580 242.141, 229.569 239.288, 227.947 237.806 C 226.326 236.325, 225 234.637, 225 234.056 C 225 233.475, 224.543 233, 223.984 233 C 223.425 233, 222.205 231.401, 221.273 229.446 C 219.990 226.756, 219.844 225.480, 220.673 224.196 C 221.502 222.912, 221.380 221.831, 220.169 219.750 C 219.289 218.238, 218.252 217, 217.864 217 C 217.476 217, 216.862 215.650, 216.500 214 C 216.138 212.350, 215.427 211, 214.921 211 C 214.414 211, 214 209.875, 214 208.500 C 214 207.125, 213.150 205.150, 212.110 204.110 C 210.630 202.630, 210.330 201.254, 210.724 197.761 C 211.172 193.783, 210.890 192.956, 208.113 190.116 C 206.106 188.062, 205 185.921, 205 184.088 C 205 179.905, 202.346 174.273, 199.495 172.405 C 197.856 171.331, 197 169.845, 197 168.073 C 197 164.594, 193.517 157.284, 190.142 153.678 C 188.209 151.614, 187.476 149.735, 187.409 146.678 C 187.359 144.380, 186.518 139.800, 185.539 136.500 C 184.560 133.200, 183.554 129.375, 183.304 128 C 183.054 126.625, 182.452 124.600, 181.966 123.500 C 181.481 122.400, 180.615 117.900, 180.043 113.500 C 178.557 102.078, 177.260 94.107, 176.137 89.500 C 171.730 71.415, 171.252 53.228, 174.826 39.629 C 175.386 37.499, 175.606 35.137, 175.315 34.379 C 174.787 33.002, 170.838 32.650, 168 33.727 M 138.667 155.667 C 138.300 156.033, 138.014 157.046, 138.030 157.917 C 138.055 159.217, 138.251 159.174, 139.122 157.675 C 140.199 155.823, 139.887 154.447, 138.667 155.667" stroke="none" fill="black" fill-rule="evenodd"/>
</svg>