<svg xmlns="http://www.w3.org/2000/svg" width="300" height="300" viewBox="0 0 300 300" version="1.1">
	<path d="M 118.717 19.976 C 118.432 21.063, 116.917 22.518, 115.350 23.211 C 113.782 23.903, 111.918 25.255, 111.207 26.216 C 108.656 29.660, 104 39.239, 104 41.043 C 104 42.054, 103.522 43.177, 102.938 43.538 C 102.354 43.899, 101.455 45.163, 100.940 46.347 C 98.730 51.424, 87.104 65.705, 75.250 77.902 C 72.362 80.873, 70 83.653, 70 84.080 C 70 84.506, 68.875 85.740, 67.500 86.821 C 66.125 87.903, 65 89.109, 65 89.502 C 65 89.895, 62.791 92.530, 60.091 95.358 C 53.959 101.782, 48 108.957, 48 109.918 C 48 110.318, 45.750 113.055, 43 116 C 40.250 118.945, 38 121.540, 38 121.767 C 38 121.994, 37.147 122.927, 36.106 123.840 C 35.064 124.753, 33.930 126.737, 33.586 128.250 C 33.033 130.688, 33.248 131, 35.481 131 C 36.866 131, 38 130.500, 38 129.890 C 38 128.651, 46.452 120.014, 47.703 119.975 C 48.141 119.962, 51.862 115.654, 55.970 110.402 C 60.079 105.150, 63.949 100.549, 64.570 100.177 C 65.192 99.804, 67.448 97.025, 69.583 94 C 71.718 90.975, 74.085 87.855, 74.843 87.068 C 76.018 85.847, 75.947 85.423, 74.361 84.199 C 72.637 82.869, 72.703 82.810, 75.250 83.400 C 76.868 83.776, 78 83.619, 78 83.019 C 78 81.574, 80.551 81.754, 81.824 83.288 C 82.412 83.997, 83.147 91.188, 83.456 99.268 C 83.765 107.348, 84.442 119.164, 84.961 125.526 C 85.479 131.888, 85.709 143.935, 85.471 152.297 C 83.891 207.807, 83.890 206.902, 85.536 209.414 C 86.588 211.020, 86.757 212.032, 86.047 212.471 C 85.464 212.832, 84.654 212.311, 84.247 211.313 C 83.394 209.218, 82.890 212.589, 80.481 236.500 C 79.594 245.300, 79.110 255.875, 79.405 260 C 79.701 264.125, 79.919 268.625, 79.890 270 C 79.544 286.459, 79.574 286.565, 84.760 287.602 C 87.595 288.169, 88.077 287.928, 89.008 285.480 C 90.730 280.950, 90.991 264.708, 89.377 262.502 C 87.066 259.341, 87.397 253.360, 92.447 207 C 94.374 189.313, 95.762 147.157, 94.867 133.500 C 94.507 128, 93.683 116.075, 93.036 107 C 91.502 85.494, 91.919 70.551, 94.101 68.791 C 96.861 66.566, 106.513 53.787, 110.560 47 C 112.692 43.425, 115.485 39.202, 116.766 37.616 C 122.315 30.748, 124.684 22.084, 121.800 19.200 C 120.104 17.504, 119.311 17.703, 118.717 19.976 M 180.077 20.589 C 177.083 23.108, 176.999 23.412, 176.968 31.839 C 176.946 37.865, 176.490 41.091, 175.468 42.441 C 174.603 43.585, 174 43.851, 174 43.090 C 174 41.783, 169.448 41.942, 162.500 43.492 C 158.614 44.360, 153 47.211, 153 48.317 C 153 48.791, 151.988 50.007, 150.750 51.019 C 148.965 52.478, 148.754 53.116, 149.730 54.109 C 150.646 55.041, 151.538 55.085, 153.230 54.283 C 157.174 52.413, 167.355 49.236, 171.188 48.681 C 176.751 47.874, 177.309 49.183, 175.865 59.654 C 174.254 71.341, 173.932 71.679, 161.789 74.409 C 159.343 74.959, 152 81.368, 152 82.953 C 152 83.308, 153.534 84.153, 155.408 84.831 C 158.518 85.955, 159.341 85.797, 164.802 83.021 C 168.095 81.348, 172.749 79.577, 175.144 79.085 C 180.187 78.051, 185.370 76.303, 189.160 74.358 C 190.623 73.608, 192.600 73.293, 193.554 73.659 C 196.058 74.620, 198.262 71.358, 196.869 68.755 C 195.922 66.985, 195.157 66.857, 189.275 67.487 C 181.430 68.327, 180.764 67.686, 182.740 61.193 C 187.012 47.152, 187.341 46.517, 190.506 46.207 C 192.153 46.046, 194.175 45.646, 195 45.319 C 195.825 44.991, 197.932 44.817, 199.683 44.932 C 203.718 45.198, 207 43.470, 207 41.081 C 207 38.720, 204.361 38.031, 195.250 38.014 L 188 38 187.877 33.750 C 187.809 31.413, 187.833 27.291, 187.931 24.592 C 188.185 17.511, 185.414 16.098, 180.077 20.589 M 111.500 35 C 111.160 35.550, 111.584 36, 112.441 36 C 113.298 36, 114 35.550, 114 35 C 114 34.450, 113.577 34, 113.059 34 C 112.541 34, 111.840 34.450, 111.500 35 M 141.568 51.585 C 140.679 55.125, 141.797 58.186, 143.835 57.794 C 144.958 57.578, 145.685 56.095, 146.067 53.237 C 146.586 49.362, 146.446 49, 144.426 49 C 142.884 49, 142.021 49.781, 141.568 51.585 M 179.250 69.662 C 176.964 70.585, 177.894 73, 180.535 73 C 182.760 73, 182.940 72.756, 182 71 C 181.411 69.900, 180.833 69.036, 180.715 69.079 C 180.597 69.122, 179.938 69.385, 179.250 69.662 M 195.500 88.990 C 186.700 90.005, 177.980 91.308, 176.121 91.885 C 174.263 92.462, 170.972 93.039, 168.807 93.166 C 164.503 93.420, 162.478 94.929, 166.191 95.116 C 167.885 95.201, 168.034 95.354, 166.750 95.689 C 165.787 95.941, 165 97.014, 165 98.073 C 165 99.133, 164.381 100, 163.625 100 C 162.869 100, 160.731 100.229, 158.875 100.510 C 155.649 100.997, 155.618 100.972, 158.164 99.955 C 161.714 98.537, 162.653 96.051, 159.719 95.842 C 158.498 95.756, 156.825 95.753, 156 95.836 C 155.175 95.919, 150.675 96.371, 146 96.839 C 130.918 98.349, 120.913 105.024, 127.166 109.403 C 129.976 111.372, 132.966 111.432, 136.669 109.596 C 139.947 107.971, 146.577 106.249, 156.500 104.445 C 160.350 103.745, 167.100 102.213, 171.500 101.041 C 175.900 99.868, 181.750 98.755, 184.500 98.566 C 195.757 97.793, 207.050 96.371, 217.892 94.360 C 221.071 93.771, 221.250 93.882, 220.745 96.116 C 219.484 101.683, 214.693 116.577, 213.882 117.450 C 212.489 118.950, 212.855 122, 214.427 122 C 215.213 122, 216.778 120.763, 217.906 119.250 C 219.034 117.737, 220.577 115.825, 221.336 115 C 222.094 114.175, 224.016 111.475, 225.606 109 C 227.196 106.525, 229.060 103.905, 229.748 103.179 C 230.437 102.452, 231 100.794, 231 99.494 C 231 98.194, 231.406 96.064, 231.901 94.760 C 232.573 92.993, 232.345 91.783, 231.006 90.008 C 229.380 87.852, 228.368 87.603, 220.355 87.385 C 215.485 87.252, 204.300 87.975, 195.500 88.990 M 196.500 93 C 196.160 93.550, 196.359 94, 196.941 94 C 197.523 94, 198 93.550, 198 93 C 198 92.450, 197.802 92, 197.559 92 C 197.316 92, 196.840 92.450, 196.500 93 M 179.269 95.693 C 180.242 95.947, 181.592 95.930, 182.269 95.656 C 182.946 95.382, 182.150 95.175, 180.500 95.195 C 178.850 95.215, 178.296 95.439, 179.269 95.693 M 170.750 96.662 C 171.438 96.940, 172.563 96.940, 173.250 96.662 C 173.938 96.385, 173.375 96.158, 172 96.158 C 170.625 96.158, 170.063 96.385, 170.750 96.662 M 58 101.059 C 58 101.641, 58.450 101.840, 59 101.500 C 59.550 101.160, 60 100.684, 60 100.441 C 60 100.198, 59.550 100, 59 100 C 58.450 100, 58 100.477, 58 101.059 M 171.250 114.220 C 170.012 114.817, 169 115.666, 169 116.106 C 169 116.547, 167.088 116.863, 164.750 116.810 C 159.240 116.684, 145.726 119.321, 145.298 120.606 C 145.116 121.152, 146.385 122.648, 148.118 123.929 C 151.072 126.113, 151.601 126.184, 156.619 125.061 C 159.562 124.402, 162.364 124.107, 162.845 124.404 C 164.131 125.199, 164.972 132.856, 164.311 137.750 C 163.824 141.350, 163.385 142, 161.440 142 C 160.176 142, 158.517 142.626, 157.752 143.391 C 156.864 144.279, 155.809 144.472, 154.834 143.927 C 151.345 141.974, 139 145.900, 139 148.963 C 139 149.321, 140.726 150.377, 142.836 151.308 C 148.738 153.911, 155.461 153.486, 164.500 149.938 C 167.867 148.616, 182.804 146, 186.985 146 C 189.763 146, 191.215 145.467, 191.895 144.196 C 193.902 140.446, 191.879 139.733, 180.365 140.127 C 169.620 140.496, 169.496 140.474, 169.170 138.168 C 168.988 136.885, 169.473 135.085, 170.247 134.168 C 171.816 132.309, 174 125.367, 174 122.239 C 174 120.589, 174.794 120.126, 178.250 119.762 C 180.703 119.504, 183.642 119.882, 185.200 120.657 C 189.538 122.814, 192 122.403, 192 119.523 C 192 114.559, 177.979 110.975, 171.250 114.220 M 201.500 164.110 C 197.650 164.623, 192.475 165.196, 190 165.382 C 187.525 165.568, 178.975 166.231, 171 166.854 C 163.025 167.478, 147.693 168.387, 136.928 168.874 C 126.163 169.362, 116.488 170.232, 115.428 170.807 C 114.368 171.383, 112.713 172.098, 111.750 172.396 C 109.118 173.210, 109.647 175.915, 112.662 177.062 C 114.127 177.618, 117.164 177.826, 119.412 177.524 C 121.661 177.221, 131.150 176.749, 140.500 176.474 C 161.463 175.857, 174.969 175.137, 176.977 174.530 C 178.342 174.117, 201.520 171.446, 206.500 171.128 C 207.600 171.058, 215.636 170.817, 224.357 170.593 C 241.665 170.149, 243.906 169.462, 240.185 165.739 C 238.088 163.640, 237.026 163.490, 223.224 163.338 C 215.126 163.249, 205.350 163.596, 201.500 164.110 M 208.546 179.644 C 205.466 183.677, 204.998 185.025, 204.985 189.894 C 204.976 192.977, 204.601 196.081, 204.151 196.790 C 203.700 197.500, 200.220 198.532, 196.416 199.082 C 187.152 200.424, 185 201.416, 185 204.343 C 185 206.410, 185.597 206.810, 189.483 207.343 C 194.298 208.003, 199.706 207.285, 200.580 205.871 C 200.876 205.392, 201.833 205, 202.708 205 C 204.127 205, 204.230 207.016, 203.670 223.750 C 203.325 234.063, 202.814 249.693, 202.535 258.485 C 202.079 272.837, 201.827 274.625, 200.068 275.985 C 198.434 277.248, 198.317 277.780, 199.365 279.182 C 201.154 281.578, 208.878 284.522, 210.119 283.281 C 210.697 282.703, 211.223 272.579, 211.386 258.896 C 211.689 233.457, 213.624 203.041, 215.033 201.592 C 215.560 201.050, 216.435 201.111, 217.208 201.745 C 219.447 203.582, 223.187 203.615, 224.338 201.809 C 225.956 199.270, 222.582 196, 218.345 196 L 215 196 215 188.986 C 215 185.129, 215.535 181.116, 216.190 180.068 C 217.123 178.573, 217.097 177.821, 216.067 176.581 C 213.957 174.038, 212.316 174.706, 208.546 179.644 M 145.473 185.351 C 144.388 186.094, 142.279 186.998, 140.786 187.361 C 137.215 188.228, 135.422 194.297, 136.608 201.500 C 137.061 204.250, 137.468 213.362, 137.514 221.749 C 137.598 237.172, 138.362 240.669, 141.023 237.820 C 141.776 237.014, 143.751 236.614, 145.942 236.823 C 149.097 237.124, 150.618 236.403, 156.961 231.597 C 163.989 226.273, 169.825 221.544, 174.051 217.750 C 176.705 215.367, 176.710 206.449, 174.062 200.636 C 171.337 194.654, 166.772 192.283, 160.869 193.785 C 151.904 196.067, 149.020 196.217, 148.337 194.436 C 147.987 193.524, 148.482 191.454, 149.437 189.837 C 152.282 185.022, 149.896 182.322, 145.473 185.351 M 158.450 201.945 C 157.928 202.464, 155.976 203.156, 154.112 203.483 C 150.349 204.143, 147.010 205.690, 146.982 206.785 C 146.972 207.178, 146.325 211.698, 145.544 216.830 C 143.732 228.730, 143.916 229.227, 149.336 227.130 C 158.168 223.713, 165.624 217.183, 166.481 212.114 C 167.343 207.008, 164.752 201, 161.687 201 C 160.429 201, 158.972 201.425, 158.450 201.945 M 174.250 226.662 C 173.563 226.940, 173 228.282, 173 229.646 C 173 231.438, 173.485 232.055, 174.750 231.871 C 177.771 231.432, 180.440 232.889, 182.155 235.914 C 183.577 238.419, 184.613 238.933, 189.481 239.541 C 195.541 240.298, 197.433 239.489, 196.838 236.396 C 196.617 235.250, 195.226 234.322, 193.069 233.880 C 191.188 233.496, 186.556 231.565, 182.776 229.590 C 178.995 227.616, 175.812 226.036, 175.701 226.079 C 175.590 226.122, 174.938 226.385, 174.250 226.662 M 151.742 228.125 C 150.784 228.661, 150 229.527, 150 230.050 C 150 231.657, 152.748 231.100, 153.417 229.357 C 154.239 227.212, 153.865 226.937, 151.742 228.125 M 192 274.532 C 192 275.375, 193.012 276.447, 194.250 276.916 C 197.109 277.997, 197.429 277.671, 196.046 275.086 C 194.749 272.663, 192 272.287, 192 274.532" stroke="none" fill="black" fill-rule="evenodd"/>
</svg>