<svg xmlns="http://www.w3.org/2000/svg" width="300" height="300" viewBox="0 0 300 300" version="1.1">
	<path d="M 124.298 48.810 C 121.041 49.125, 119.143 51.804, 120.556 54.091 C 121.057 54.901, 120.687 54.903, 119.181 54.097 C 117.685 53.296, 116.935 53.295, 116.442 54.093 C 114.946 56.514, 118.457 57.503, 126.500 56.926 C 132.193 56.517, 133.851 56.123, 132.250 55.559 C 131.012 55.123, 130 54.428, 130 54.014 C 130 52.790, 137.268 51.978, 138.568 53.056 C 139.225 53.602, 143.200 54.150, 147.402 54.274 C 153.572 54.456, 154.988 54.789, 154.762 56 C 154.609 56.825, 153.221 57.645, 151.679 57.822 C 149.461 58.078, 149.108 58.425, 149.990 59.488 C 150.816 60.483, 150.695 62.859, 149.522 68.665 C 148.652 72.974, 147.456 79.425, 146.865 83 C 146.273 86.575, 145.344 90.350, 144.800 91.389 C 144.255 92.427, 143.391 96.233, 142.880 99.845 C 142.368 103.458, 141.591 106.658, 141.152 106.957 C 139.713 107.937, 138.822 111.324, 136.483 124.704 C 135.214 131.965, 133.802 138.490, 133.344 139.204 C 132.035 141.245, 130.105 148.752, 128.510 158 C 127.703 162.675, 126.486 168.432, 125.804 170.793 C 124.911 173.885, 124.863 175.563, 125.634 176.793 C 126.858 178.746, 130.358 179.521, 132.823 178.385 C 133.745 177.959, 137.425 177.136, 141 176.556 C 145.642 175.802, 147.500 175.071, 147.500 174 C 147.500 172.131, 150.805 169, 152.778 169 C 153.866 169, 154.100 169.750, 153.676 171.871 C 153.129 174.607, 153.299 174.769, 157.301 175.314 C 159.610 175.628, 163.427 175.625, 165.782 175.307 C 169.957 174.742, 170.020 174.679, 168.295 172.774 C 166.603 170.904, 166.604 170.762, 168.332 169.499 C 170.037 168.252, 170.008 168.132, 167.819 167.339 C 166.544 166.878, 159.425 166.500, 152 166.500 L 138.500 166.500 138.856 160.500 C 139.052 157.200, 140.282 151.800, 141.589 148.500 C 144.536 141.057, 147 129.445, 147 122.994 C 147 120.312, 147.450 117.840, 148 117.500 C 148.550 117.160, 149 116.114, 149 115.176 C 149 114.238, 149.965 111.677, 151.145 109.485 C 152.506 106.956, 153.473 102.943, 153.792 98.500 C 154.069 94.650, 154.899 90.574, 155.637 89.441 C 156.969 87.399, 158.163 82.504, 160.382 70 L 161.536 63.500 166.018 62.993 C 170.257 62.514, 170.378 62.417, 168.239 61.202 C 166.995 60.496, 165.255 60.049, 164.371 60.209 C 162.811 60.492, 161.634 59.132, 160.678 55.944 C 160.375 54.932, 157.461 53.759, 152.356 52.591 C 148.035 51.604, 142.700 50.367, 140.500 49.843 C 136.035 48.780, 129.146 48.341, 124.298 48.810 M 164 55.926 C 164 57.452, 165.179 57.749, 174.298 58.520 C 180.687 59.060, 181.893 59.424, 180.975 60.530 C 180.359 61.272, 178.875 62.054, 177.677 62.267 C 176.017 62.563, 204.604 62.372, 208.250 62.063 C 208.662 62.029, 209 61.116, 209 60.035 C 209 57.365, 206.033 55.979, 199.757 55.718 C 195.054 55.523, 194.468 55.727, 194.193 57.656 C 194.004 58.981, 192.927 60.053, 191.397 60.437 C 188.348 61.202, 186.857 60.394, 187.223 58.175 C 187.458 56.752, 186.373 56.460, 180 56.235 C 175.875 56.088, 170.588 55.704, 168.250 55.379 C 165.397 54.984, 164 55.164, 164 55.926 M 138.500 57 C 138.160 57.550, 138.809 58, 139.941 58 C 141.073 58, 142 57.550, 142 57 C 142 56.450, 141.352 56, 140.559 56 C 139.766 56, 138.840 56.450, 138.500 57 M 143 57.031 C 143 58.320, 145.849 59.484, 146.764 58.569 C 147.137 58.196, 146.780 57.473, 145.971 56.961 C 144.035 55.737, 143 55.761, 143 57.031 M 190 57 C 190 57.550, 190.450 58, 191 58 C 191.550 58, 192 57.550, 192 57 C 192 56.450, 191.550 56, 191 56 C 190.450 56, 190 56.450, 190 57 M 147.965 87.934 C 148.534 88.998, 149.061 91.586, 149.136 93.684 C 149.228 96.255, 149.419 96.723, 149.723 95.119 C 150.327 91.927, 149.155 86, 147.920 86 C 147.282 86, 147.298 86.688, 147.965 87.934 M 146.158 95 C 146.158 96.375, 146.385 96.938, 146.662 96.250 C 146.940 95.563, 146.940 94.438, 146.662 93.750 C 146.385 93.063, 146.158 93.625, 146.158 95 M 31.250 98.662 C 28.855 99.629, 30.025 102.558, 33.567 104.466 C 36.595 106.097, 37.609 106.209, 40.266 105.206 C 42.992 104.177, 43.670 104.281, 45.513 106.012 C 47.873 108.229, 51.974 108.626, 53.787 106.813 C 54.702 105.898, 55.515 106.135, 57.345 107.854 C 59.028 109.436, 60.742 110.013, 63.255 109.843 C 65.201 109.712, 69.339 110.470, 72.449 111.527 C 77.279 113.169, 78.233 113.241, 78.987 112.020 C 79.473 111.234, 79.522 109.969, 79.097 109.208 C 77.808 106.906, 66.977 103.081, 59.006 102.114 C 54.878 101.613, 49.025 100.488, 46 99.613 C 40.670 98.073, 33.808 97.630, 31.250 98.662 M 144.135 109.090 C 142.200 110.658, 141.673 112.237, 141.241 117.754 C 140.950 121.464, 140.295 124.772, 139.784 125.104 C 138.566 125.895, 139.933 133.159, 141.157 132.403 C 141.674 132.084, 142.005 131.075, 141.894 130.161 C 141.783 129.248, 141.949 127.825, 142.263 127 C 142.576 126.175, 143.090 122.993, 143.404 119.928 C 143.719 116.864, 144.703 112.898, 145.592 111.116 C 147.583 107.125, 147.205 106.600, 144.135 109.090 M 158 112.920 C 157.175 113.434, 155.681 114.111, 154.680 114.423 C 153.477 114.799, 152.968 115.756, 153.180 117.246 C 153.451 119.155, 154.342 119.621, 159 120.290 C 168.229 121.615, 180.429 122.642, 181.744 122.204 C 184.824 121.180, 181.284 120, 175.132 120 C 167.792 120, 164.239 118.425, 165.306 115.645 C 166.005 113.824, 171.471 113.334, 172.500 115 C 172.840 115.550, 176.016 116, 179.559 116 C 184.618 116, 186 115.678, 186 114.500 C 186 113.303, 184.516 113, 178.647 113 C 174.602 113, 168.640 112.771, 165.397 112.492 C 162.154 112.212, 158.825 112.405, 158 112.920 M 190.688 113.812 C 184.932 114.289, 186.626 116.500, 192.747 116.500 C 195.534 116.500, 197.604 116.838, 197.348 117.250 C 197.092 117.662, 196.064 118, 195.063 118 C 194.063 118, 192.655 118.711, 191.934 119.579 C 190.753 121.003, 191.331 121.089, 197.812 120.450 C 204.915 119.750, 205 119.770, 204.994 122.121 C 204.991 123.429, 204.488 126.300, 203.876 128.500 C 202.263 134.299, 197.789 161.344, 197.033 169.867 C 197.015 170.068, 195.988 169.942, 194.750 169.586 C 190.166 168.267, 175.029 167.054, 172.915 167.836 C 170.820 168.611, 170.856 168.698, 173.795 169.915 C 175.482 170.614, 178.581 171.081, 180.681 170.953 C 188.081 170.502, 190.165 170.917, 190.696 172.944 C 190.975 174.013, 192.171 175.025, 193.352 175.194 C 195.198 175.457, 195.460 176.063, 195.216 179.500 C 195.060 181.700, 194.022 187.987, 192.909 193.471 C 191.225 201.764, 190.983 205.696, 191.471 216.842 C 191.794 224.212, 191.813 231.014, 191.513 231.958 C 191.048 233.425, 189.807 233.633, 182.984 233.385 C 178.505 233.223, 175 233.506, 175 234.029 C 175 235.590, 179.731 236.264, 185.571 235.534 C 189.560 235.036, 191.554 235.214, 192.710 236.171 C 193.785 237.061, 197.318 237.500, 203.407 237.500 C 210.532 237.500, 212.438 237.793, 212.215 238.855 C 212.058 239.601, 212.451 240.838, 213.087 241.605 C 214.659 243.499, 222.403 243.424, 224 241.500 C 225.054 240.230, 224.743 239.899, 221.978 239.346 L 218.710 238.692 222.366 236.817 C 226.621 234.634, 230.529 235.759, 229.538 238.882 C 229.061 240.384, 229.714 240.675, 233.989 240.870 C 237.946 241.051, 239 240.773, 239 239.549 C 239 238.697, 239.450 238, 240 238 C 240.550 238, 241 238.931, 241 240.070 C 241 243.329, 245.411 242.268, 245.801 238.914 C 246.334 234.324, 244.010 233.529, 229.098 233.202 C 221.619 233.038, 214.360 232.461, 212.966 231.920 C 211.122 231.204, 209.236 231.358, 206.037 232.487 C 201.088 234.233, 199.552 233.319, 200.520 229.206 C 201.830 223.643, 202.797 211.969, 202.443 206 C 202.231 202.425, 202.699 196.575, 203.482 193 C 206.311 180.084, 207.886 170.332, 208.567 161.500 C 208.949 156.550, 209.667 151.986, 210.163 151.358 C 210.659 150.730, 211.512 146.281, 212.059 141.470 C 212.606 136.659, 213.241 132.419, 213.472 132.046 C 214.977 129.611, 217.730 116.339, 217 115.035 C 216.310 113.803, 214.009 113.500, 205.321 113.498 C 199.369 113.497, 192.785 113.639, 190.688 113.812 M 185.510 121.016 C 185.856 121.575, 186.557 121.774, 187.069 121.457 C 188.456 120.600, 188.198 120, 186.441 120 C 185.584 120, 185.165 120.457, 185.510 121.016 M 137.655 136.989 C 136.177 139.953, 136.339 143, 137.975 143 C 138.729 143, 140.180 134.846, 139.540 134.207 C 139.358 134.025, 138.510 135.276, 137.655 136.989 M 205.554 136.250 C 204.959 138.188, 203.714 147.161, 203.576 150.500 C 203.508 152.150, 203.138 154, 202.753 154.612 C 202.368 155.223, 201.588 159.498, 201.019 164.112 C 200.450 168.725, 199.727 173.652, 199.412 175.061 C 199.037 176.739, 199.384 178.074, 200.420 178.933 C 201.810 180.087, 202 179.818, 202 176.703 C 202 174.755, 202.644 170.538, 203.431 167.331 C 204.218 164.124, 205.143 157.675, 205.486 153 C 205.830 148.325, 206.536 144.072, 207.056 143.550 C 208.335 142.263, 208.261 135, 206.969 135 C 206.401 135, 205.765 135.563, 205.554 136.250 M 74.010 145.488 C 73.320 146.319, 72.400 147, 71.967 147 C 71.533 147, 67.815 148.575, 63.704 150.500 C 59.594 152.425, 55.594 154, 54.815 154 C 54.037 154, 52.964 154.436, 52.431 154.969 C 51.899 155.501, 49.446 157.014, 46.981 158.330 C 44.517 159.645, 39.926 162.113, 36.780 163.814 C 33.634 165.515, 29.227 167.400, 26.986 168.004 C 24.159 168.765, 22.545 169.903, 21.717 171.721 C 20.781 173.776, 20.791 174.430, 21.762 174.754 C 23.941 175.480, 23.087 177, 20.500 177 C 18.500 177, 18 176.500, 18 174.500 C 18 171.973, 15.725 171.018, 14.485 173.024 C 13.383 174.807, 15.064 179.886, 16.955 180.486 C 18.878 181.096, 24 179.217, 24 177.901 C 24 177.473, 26.056 176.814, 28.569 176.437 C 31.406 176.012, 33.582 175.041, 34.309 173.876 C 34.954 172.844, 36.497 172, 37.738 172 C 38.980 172, 42.188 170.425, 44.867 168.500 C 47.547 166.575, 50.418 165, 51.247 165 C 52.076 165, 53.315 164.325, 54 163.500 C 54.685 162.675, 56.005 162, 56.934 162 C 57.863 162, 59.589 161.100, 60.770 160 C 61.950 158.900, 63.335 158, 63.846 158 C 64.357 158, 66.964 156.507, 69.638 154.682 C 72.312 152.857, 75.287 151.071, 76.250 150.713 C 78.334 149.939, 78.555 146.705, 76.633 145.110 C 75.593 144.247, 74.965 144.337, 74.010 145.488 M 134.665 147.107 C 134.454 147.873, 133.769 150.107, 133.141 152.071 C 131.760 156.392, 131.606 163.275, 132.941 160.998 C 134.110 159.004, 136.274 146.941, 135.586 146.253 C 135.290 145.956, 134.875 146.341, 134.665 147.107 M 178.500 174 C 178.127 174.603, 179.470 175, 181.882 175 C 184.082 175, 186.160 174.550, 186.500 174 C 186.873 173.397, 185.530 173, 183.118 173 C 180.918 173, 178.840 173.450, 178.500 174 M 198.336 182.567 C 198.005 183.429, 198.244 184.644, 198.867 185.267 C 199.711 186.111, 200 185.711, 200 183.700 C 200 180.691, 199.251 180.182, 198.336 182.567 M 197.611 189.054 C 196.299 193.477, 195.836 204, 196.953 204 C 197.529 204, 198 202.004, 198 199.565 C 198 197.126, 198.389 194.088, 198.865 192.815 C 199.341 191.542, 199.417 189.624, 199.033 188.554 C 198.390 186.758, 198.280 186.797, 197.611 189.054 M 195.710 209.663 C 195.427 210.123, 194.868 212.682, 194.469 215.348 C 193.810 219.750, 193.916 220.163, 195.622 219.839 C 197.057 219.567, 197.574 218.449, 197.814 215.106 C 198.108 211.007, 196.864 207.789, 195.710 209.663 M 111.095 231.956 C 107.371 232.868, 106.198 235.480, 108.040 238.759 L 109.579 241.500 127.540 241.343 C 137.418 241.257, 148.521 241.158, 152.213 241.125 C 155.905 241.091, 159.901 240.487, 161.094 239.782 C 162.726 238.817, 163.367 238.791, 163.690 239.677 C 164.008 240.552, 164.907 240.580, 167.183 239.786 C 169.804 238.873, 170.002 238.581, 168.551 237.769 C 167.618 237.247, 165.790 237.087, 164.489 237.413 C 163.187 237.740, 161.843 237.556, 161.502 237.004 C 161.161 236.452, 161.782 236, 162.882 236 C 163.982 236, 165.159 235.552, 165.498 235.004 C 165.836 234.456, 167.550 234.119, 169.307 234.254 C 171.588 234.430, 172.500 234.072, 172.500 233 C 172.500 231.326, 171.329 231.306, 139.404 232.438 C 129.452 232.791, 119.552 232.694, 117.404 232.223 C 115.257 231.753, 112.418 231.632, 111.095 231.956 M 154.750 234.748 C 153.787 234.967, 153 235.594, 153 236.141 C 153 236.687, 152.138 236.861, 151.085 236.527 C 148.720 235.776, 143.547 236.972, 144.677 238.008 C 145.130 238.423, 148.875 238.229, 153 237.577 C 159.158 236.604, 160.142 236.210, 158.500 235.371 C 157.400 234.809, 155.713 234.529, 154.750 234.748 M 130.550 235.919 C 130.183 236.514, 130.316 237, 130.847 237 C 131.378 237, 131.577 237.900, 131.290 239 C 130.682 241.323, 131.627 241.481, 135.759 239.744 C 138.153 238.737, 138.491 238.248, 137.459 237.284 C 135.558 235.509, 131.321 234.671, 130.550 235.919 M 121.750 237.392 C 119.109 239.397, 119.644 240.020, 123 238.850 C 124.650 238.275, 126 237.398, 126 236.902 C 126 235.596, 123.779 235.852, 121.750 237.392 M 191 241 C 191 241.550, 192.463 241.968, 194.250 241.930 C 196.974 241.871, 197.176 241.720, 195.500 241 C 192.737 239.813, 191 239.813, 191 241 M 183.269 241.693 C 184.242 241.947, 185.592 241.930, 186.269 241.656 C 186.946 241.382, 186.150 241.175, 184.500 241.195 C 182.850 241.215, 182.296 241.439, 183.269 241.693 M 199.250 241.689 C 200.213 241.941, 201.787 241.941, 202.750 241.689 C 203.713 241.438, 202.925 241.232, 201 241.232 C 199.075 241.232, 198.287 241.438, 199.250 241.689" stroke="none" fill="black" fill-rule="evenodd"/>
</svg>