<svg xmlns="http://www.w3.org/2000/svg" width="300" height="300" viewBox="0 0 300 300" version="1.1">
	<path d="M 208.549 21.250 C 206.089 24.688, 203.721 27.950, 203.288 28.500 C 202.854 29.050, 201.642 31.129, 200.593 33.120 C 198.764 36.591, 198.413 36.766, 192.093 37.363 C 188.467 37.706, 183.772 37.989, 181.660 37.993 C 176.432 38.003, 170.051 42.471, 170.021 46.143 C 169.986 50.517, 174.916 51.251, 182.500 48 C 185.066 46.900, 187.354 46, 187.583 46 C 189.094 46, 187.503 51.947, 185 55.655 C 183.350 58.100, 182 60.350, 182 60.656 C 182 60.962, 180.650 62.917, 179 65 C 177.350 67.083, 176 69.185, 176 69.671 C 176 70.156, 173.412 73.080, 170.250 76.168 C 167.088 79.257, 163.089 83.341, 161.364 85.245 C 159.030 87.821, 157.823 88.480, 156.646 87.822 C 154.340 86.531, 150.612 90.486, 151.441 93.342 C 151.786 94.529, 152.460 97.750, 152.941 100.500 C 153.741 105.079, 154.698 108.039, 157.145 113.500 C 157.638 114.600, 158.257 117.750, 158.521 120.500 C 158.785 123.250, 159.216 126.625, 159.480 128 C 159.743 129.375, 160.337 132.975, 160.800 136 C 161.263 139.025, 162.479 144.088, 163.503 147.250 C 165.132 152.281, 165.688 153, 167.942 153 C 171.932 153, 173.315 156.093, 172.110 162.325 C 171.560 165.171, 170.827 171.775, 170.482 177 C 169.896 185.860, 168.386 191.975, 165.295 198 C 164.589 199.375, 164.010 201.512, 164.006 202.750 C 164.003 203.988, 163.550 205, 163 205 C 162.450 205, 162 205.527, 162 206.172 C 162 207.847, 157.341 219.826, 154.989 224.198 C 153.895 226.232, 153 228.601, 153 229.462 C 153 230.323, 152.573 231.809, 152.050 232.764 C 149.437 237.540, 143 251.709, 143 252.685 C 143 253.704, 141.410 256.214, 133.688 267.390 C 129.169 273.928, 130.775 278.867, 136.976 277.505 C 140.855 276.653, 142.995 272.682, 143.015 266.300 C 143.033 260.787, 144.454 257.414, 145.553 260.278 C 146.542 262.855, 147.619 262.373, 148.967 258.750 C 149.633 256.962, 150.813 254.306, 151.589 252.846 C 152.365 251.386, 153 249.666, 153 249.023 C 153 248.381, 155.475 242.765, 158.500 236.544 C 161.525 230.322, 164 224.723, 164 224.101 C 164 223.479, 165.835 218.364, 168.077 212.735 C 173.173 199.944, 174.785 195.270, 175.986 189.812 C 176.507 187.440, 177.699 182.350, 178.634 178.500 C 180.110 172.421, 180.712 161.115, 180.062 151.706 C 179.760 147.344, 182.847 139.183, 185.065 138.479 C 186.129 138.142, 187 137.446, 187 136.933 C 187 135.583, 189.211 135.844, 191.319 137.442 C 192.948 138.677, 193.130 140.471, 193.068 154.661 C 193.030 163.372, 193.423 173.070, 193.941 176.211 C 194.857 181.767, 193.730 199.724, 190.878 225 C 190.289 230.225, 189.612 237.200, 189.375 240.500 C 189.138 243.800, 188.677 249.577, 188.350 253.338 C 187.628 261.642, 189.033 265.177, 192.940 264.888 C 197.456 264.554, 199 264.965, 199 266.500 C 199 267.325, 199.627 268, 200.393 268 C 201.159 268, 202.023 268.616, 202.312 269.370 C 202.959 271.056, 225 271.682, 225 270.014 C 225 269.456, 226.688 268.989, 228.750 268.976 C 230.813 268.963, 234.300 268.511, 236.500 267.971 C 238.700 267.432, 243.859 266.750, 247.965 266.456 C 252.071 266.162, 255.671 265.602, 255.965 265.211 C 256.259 264.820, 260.239 264.376, 264.810 264.225 C 271.617 264, 273.824 263.505, 277.017 261.489 C 282.499 258.029, 282.977 255.300, 282.622 229.500 C 282.377 211.665, 282.018 206.951, 280.726 204.601 C 279.850 203.007, 278.555 199.744, 277.848 197.351 C 276.818 193.863, 276.111 193, 274.282 193 C 271.612 193, 271.689 191.952, 273.129 208.699 C 273.984 218.647, 273.978 223.030, 273.106 226.495 C 272.469 229.024, 271.665 236.043, 271.318 242.094 C 270.598 254.684, 269.998 255.523, 262.001 255.113 C 257.038 254.858, 246.932 256.473, 240.072 258.616 C 237.636 259.377, 232.889 260, 229.522 260 C 226.155 260, 222.952 260.448, 222.405 260.995 C 221.857 261.543, 217.968 262.282, 213.763 262.637 C 206.391 263.260, 205.942 263.171, 201.233 260.149 L 196.349 257.015 196.657 250.758 C 196.826 247.316, 197.921 235.950, 199.091 225.500 C 202.965 190.874, 204.143 162.715, 202.488 144.335 C 201.544 133.857, 202.904 132.391, 216.183 129.566 C 218.910 128.986, 220.685 125.917, 219.450 123.919 C 218.607 122.554, 212.412 123.598, 209.579 125.583 C 206.445 127.778, 204 127.379, 204 124.674 C 204 122.304, 207.713 118, 209.758 118 C 210.379 118, 212.375 116.140, 214.194 113.866 C 216.012 111.593, 218.451 108.708, 219.614 107.457 C 222.763 104.067, 226.846 96.339, 227.594 92.353 C 228.707 86.417, 226.804 84.360, 218.356 82.368 C 211.439 80.738, 210.779 80.735, 207.463 82.316 C 205.521 83.242, 202.561 84, 200.884 84 C 197.620 84, 183.819 88.379, 180.485 90.473 C 179.377 91.168, 177.010 92.058, 175.225 92.451 C 170.463 93.496, 166 95.948, 166 97.517 C 166 98.272, 167.076 100.140, 168.392 101.669 L 170.784 104.450 177.202 101.225 C 180.732 99.451, 184.268 97.986, 185.060 97.968 C 185.852 97.951, 187.374 97.276, 188.441 96.468 C 189.509 95.661, 191.556 95, 192.991 95 C 194.426 95, 196.104 94.496, 196.721 93.879 C 197.337 93.263, 200.690 92.408, 204.171 91.980 C 207.652 91.553, 211.471 90.891, 212.658 90.509 C 214.176 90.021, 215.441 90.441, 216.929 91.929 L 219.043 94.043 216.247 99.353 C 214.360 102.935, 210.694 107.073, 204.975 112.072 C 200.314 116.147, 196.275 119.710, 196 119.991 C 195.373 120.630, 187.699 124.752, 178.250 129.526 C 174.262 131.540, 171 133.544, 171 133.978 C 171 135.317, 167.047 135.881, 166.251 134.656 C 165.838 134.020, 165.445 131.025, 165.378 128 C 165.139 117.175, 163.666 107.528, 161.352 101.622 C 158.898 95.361, 159.225 94.051, 163.250 94.015 C 164.213 94.007, 165 93.367, 165 92.593 C 165 91.819, 167.363 89.235, 170.250 86.851 C 173.137 84.467, 176.165 81.612, 176.977 80.508 C 177.789 79.404, 179.713 77.150, 181.252 75.500 C 186.351 70.034, 190.657 64.242, 191.958 61.100 C 192.665 59.395, 193.863 58, 194.621 58 C 195.380 58, 196 57.626, 196 57.170 C 196 56.713, 198.137 54.050, 200.750 51.253 C 204.786 46.932, 206.177 46.090, 210 45.656 C 223.351 44.141, 228 42.101, 228 37.759 C 228 35.547, 227.544 35, 225.700 35 C 224.435 35, 222.913 35.487, 222.317 36.083 C 220.784 37.616, 209.807 37.810, 209.287 36.313 C 209.060 35.659, 209.732 34.268, 210.779 33.221 C 211.825 32.175, 214.376 28.766, 216.446 25.647 C 221.024 18.751, 220.864 15, 215.992 15 C 213.494 15, 212.314 15.991, 208.549 21.250 M 102.716 19.904 C 101.772 21.502, 101 23.527, 101 24.404 C 101 25.282, 100.580 26, 100.067 26 C 99.554 26, 98.853 27.012, 98.509 28.250 C 96.819 34.334, 91.331 46.480, 89.639 47.885 C 88.915 48.485, 82.647 48.981, 74.939 49.048 C 61.904 49.161, 61.417 49.242, 58.750 51.769 C 55.898 54.471, 55.071 57.947, 57.250 58.071 C 62.076 58.343, 74.526 57.741, 76.101 57.159 C 79.098 56.050, 86 57.012, 86 58.539 C 86 59.721, 83.398 66.443, 79.376 75.651 C 78.619 77.384, 78 80.374, 78 82.294 C 78 85.800, 76.766 87, 73.163 87 C 72.242 87, 69.578 88.800, 67.243 91 C 64.907 93.200, 62.492 95, 61.876 95 C 61.112 95, 61.158 95.486, 62.021 96.525 C 63.153 97.889, 63.476 97.879, 65.072 96.435 C 66.227 95.389, 67.624 95.063, 69.033 95.511 C 70.230 95.890, 73.187 95.706, 75.605 95.101 C 78.022 94.495, 81.912 93.532, 84.250 92.960 C 91.993 91.066, 104.162 90.117, 106.580 91.218 C 109.392 92.500, 110.577 96.646, 108.767 98.868 C 108.035 99.765, 106.366 102.525, 105.058 105 C 101.254 112.195, 99.057 114.921, 95.671 116.643 C 93.927 117.529, 90.694 120.110, 88.486 122.377 C 84.502 126.470, 80.713 128.081, 71.500 129.601 C 69.300 129.964, 66.943 130.702, 66.263 131.242 C 62.986 133.842, 61.584 130.107, 59.606 113.500 C 58.734 106.181, 57.264 100.544, 55.121 96.298 C 53.954 93.987, 53 90.775, 53 89.160 C 53 86.573, 52.566 86.141, 49.358 85.539 C 42.270 84.210, 41.065 89.379, 46.963 95.812 C 48.633 97.633, 50 99.969, 50 101.003 C 50 102.036, 50.386 103.120, 50.857 103.412 C 52.283 104.293, 55.633 124.250, 57.073 140.443 C 57.651 146.947, 58.475 150.903, 59.454 151.883 C 61.727 154.156, 62.348 152.665, 62.427 144.739 L 62.500 137.500 69.500 137.836 C 73.350 138.021, 76.887 138.543, 77.360 138.996 C 77.835 139.451, 77.544 141.089, 76.707 142.660 C 74.905 146.044, 72 155.506, 72 157.993 C 72 159.824, 69.725 166.129, 67.898 169.359 C 67.320 170.381, 65.972 173.981, 64.903 177.359 C 63.834 180.736, 61.843 185.875, 60.479 188.777 C 59.116 191.680, 58 194.299, 58 194.597 C 58 194.896, 56.650 197.102, 55 199.500 C 53.350 201.898, 52 204.481, 52 205.239 C 52 205.997, 51.339 207.491, 50.532 208.559 C 49.724 209.626, 49.049 211.287, 49.032 212.250 C 49.014 213.213, 48.630 214, 48.177 214 C 47.344 214, 41.029 226.718, 40.966 228.522 C 40.947 229.060, 40.063 231.300, 39 233.500 C 37.937 235.700, 37.053 238.261, 37.034 239.191 C 37.015 240.121, 36.550 241.160, 36 241.500 C 35.450 241.840, 35 244.390, 35 247.167 C 35 252.106, 35.057 252.202, 37.600 251.564 C 41.427 250.604, 45.765 247.074, 46.444 244.368 C 46.771 243.065, 47.480 242, 48.019 242 C 48.559 242, 49 241.325, 49 240.500 C 49 239.675, 49.344 239, 49.764 239 C 50.184 239, 51.579 236.786, 52.863 234.081 C 54.148 231.376, 56.279 228.147, 57.599 226.907 C 58.920 225.666, 60 224.055, 60 223.326 C 60 221.496, 55.349 221.648, 54.638 223.500 C 54.322 224.325, 53.107 225, 51.939 225 L 49.816 225 51.873 221.750 C 55.418 216.149, 68.669 188.794, 71.017 182.229 C 72.250 178.780, 73.651 175.716, 74.130 175.420 C 74.608 175.124, 75 173.839, 75 172.563 C 75 171.288, 75.675 169.685, 76.500 169 C 77.325 168.315, 78.003 167.023, 78.006 166.128 C 78.010 165.232, 78.711 163.161, 79.564 161.524 C 81.353 158.094, 81.713 154.759, 80.754 150.500 C 80.383 148.850, 80.325 148.065, 80.625 148.756 C 81.328 150.373, 83 149.357, 83 147.314 C 83 146.451, 84.412 142.878, 86.137 139.373 C 88.534 134.505, 89.780 133, 91.415 133 C 92.592 133, 94.459 132.367, 95.563 131.593 C 96.668 130.820, 99.698 129.868, 102.298 129.478 C 104.898 129.088, 107.271 128.371, 107.571 127.885 C 107.872 127.398, 109.168 127, 110.452 127 C 113.215 127, 114.539 124.355, 112.816 122.278 C 111.972 121.261, 110.505 120.982, 108.048 121.373 C 102.411 122.269, 101.380 120.904, 104.671 116.902 C 106.209 115.031, 107.792 113.261, 108.188 112.969 C 108.584 112.677, 110.954 108.528, 113.454 103.749 C 118.040 94.983, 119.278 88.568, 117.059 85.061 C 115.900 83.230, 106.182 82.118, 100.102 83.121 C 97.571 83.539, 92.688 83.908, 89.250 83.940 C 83.406 83.996, 83 83.853, 83 81.735 C 83 79.071, 85.715 73.724, 91.111 65.761 C 93.250 62.605, 95 59.568, 95 59.011 C 95 58.017, 95.508 57.855, 99.500 57.578 C 103.123 57.326, 109.412 55.843, 115.067 53.906 C 118.128 52.858, 121.138 52, 121.755 52 C 122.372 52, 124.316 50.685, 126.075 49.078 C 129.269 46.162, 129.593 43, 126.700 43 C 125.215 43, 112.903 46.566, 109.203 48.068 C 106.159 49.303, 98 49.265, 98 48.015 C 98 47.473, 99.350 44.836, 101 42.154 C 102.650 39.473, 104 36.773, 104 36.154 C 104 35.536, 105.316 32.886, 106.924 30.265 C 110.870 23.836, 111.564 20.706, 109.501 18.644 C 107.054 16.197, 104.641 16.645, 102.716 19.904 M 190 43.969 C 190 44.501, 190.675 44.678, 191.500 44.362 C 192.325 44.045, 193 43.609, 193 43.393 C 193 43.177, 192.325 43, 191.500 43 C 190.675 43, 190 43.436, 190 43.969 M 197.638 47.500 C 197.322 48.325, 197.499 49, 198.031 49 C 198.564 49, 199 48.325, 199 47.500 C 199 46.675, 198.823 46, 198.607 46 C 198.391 46, 197.955 46.675, 197.638 47.500 M 168.035 143.934 C 166.535 146.737, 166.765 149.973, 168.513 150.643 C 171.955 151.964, 174.593 145.993, 171.800 143.200 C 170.123 141.523, 169.233 141.697, 168.035 143.934 M 88.200 151.200 C 86.767 152.633, 86.638 155.231, 87.934 156.550 C 89.244 157.882, 90.820 210.801, 89.774 218.332 C 89.303 221.725, 88.425 226.817, 87.823 229.650 C 87.221 232.482, 87.033 236.082, 87.404 237.650 C 87.776 239.217, 88.043 240.950, 87.998 241.500 C 87.953 242.050, 87.822 244.300, 87.708 246.500 L 87.500 250.500 93.090 250.795 C 98.491 251.080, 98.795 250.958, 102.090 247.169 C 109.110 239.097, 112.547 234.572, 119.609 224.103 C 121.611 221.134, 125.910 215.959, 129.161 212.603 C 132.413 209.246, 135.330 205.488, 135.645 204.250 C 135.959 203.012, 136.618 202, 137.108 202 C 137.599 202, 138 201.321, 138 200.491 C 138 199.662, 139.350 197.119, 141 194.841 C 144.713 189.715, 145.074 184.988, 141.750 185.026 C 140.199 185.043, 138.257 186.739, 135.500 190.484 C 133.300 193.471, 131.162 195.935, 130.750 195.958 C 130.338 195.981, 130 196.434, 130 196.966 C 130 197.497, 128.650 199.312, 127 201 C 125.350 202.688, 124 204.393, 124 204.789 C 124 205.184, 121.316 208.303, 118.035 211.719 C 114.754 215.135, 110.868 219.858, 109.400 222.215 C 107.932 224.572, 106.004 227.235, 105.115 228.134 C 104.227 229.033, 102.380 231.170, 101.011 232.884 C 99.642 234.598, 97.730 236, 96.761 236 C 94.543 236, 94.421 231.122, 96.423 222.500 C 97.854 216.337, 99.538 154.565, 98.358 151.491 C 97.654 149.655, 89.965 149.435, 88.200 151.200 M 196.015 162.750 C 196.007 163.988, 196.450 165, 197 165 C 198.253 165, 198.253 163.939, 197 162 C 196.216 160.787, 196.028 160.931, 196.015 162.750 M 196.079 203.583 C 196.127 204.748, 196.364 204.985, 196.683 204.188 C 196.972 203.466, 196.936 202.603, 196.604 202.271 C 196.272 201.939, 196.036 202.529, 196.079 203.583 M 196.229 211.188 C 196.847 213.042, 199 213.349, 199 211.583 C 199 210.713, 198.287 210, 197.417 210 C 196.546 210, 196.011 210.534, 196.229 211.188 M 89.500 233 C 89.160 233.550, 89.359 234, 89.941 234 C 90.523 234, 91 233.550, 91 233 C 91 232.450, 90.802 232, 90.559 232 C 90.316 232, 89.840 232.450, 89.500 233" stroke="none" fill="black" fill-rule="evenodd"/>
</svg>