<svg xmlns="http://www.w3.org/2000/svg" width="300" height="300" viewBox="0 0 300 300" version="1.1">
	<path d="M 264.602 17.250 C 263.387 19.142, 263.312 22.122, 264.134 36 C 264.671 45.075, 265.272 57.900, 265.470 64.500 C 265.668 71.100, 266.307 86.175, 266.891 98 C 267.476 109.825, 268.140 124, 268.368 129.500 C 268.596 135, 269.358 144.225, 270.063 150 C 271.363 160.661, 271.600 168.887, 270.969 181.500 C 270.777 185.350, 270.998 193.349, 271.462 199.275 C 272.028 206.513, 271.877 215.444, 271.001 226.483 L 269.699 242.915 266.448 244.458 C 264.660 245.306, 262.505 246, 261.658 246 C 260.811 246, 259.840 246.450, 259.500 247 C 259.160 247.550, 258.035 248, 257 248 C 254.500 248, 253.537 249.737, 255.036 251.544 C 256.580 253.404, 259.021 253.391, 262.636 251.506 C 264.211 250.685, 266.261 250.010, 267.191 250.006 C 268.121 250.003, 269.160 249.550, 269.500 249 C 270.455 247.455, 273 247.819, 273 249.500 C 273 250.486, 272.014 251, 270.122 251 C 268.540 251, 266.685 251.675, 266 252.500 C 265.315 253.325, 263.712 254, 262.437 254 C 261.161 254, 259.840 254.450, 259.500 255 C 259.160 255.550, 257.109 256, 254.941 256 C 252.069 256, 251 256.415, 251 257.531 C 251 260.036, 253.777 260.358, 258.788 258.434 C 261.379 257.438, 265.525 256.239, 268 255.767 C 270.475 255.296, 273.750 254.653, 275.278 254.338 C 280.471 253.267, 280.628 252.315, 282.545 210.500 C 282.985 200.899, 282.853 194.125, 282.178 191.681 C 281.432 188.980, 281.445 185.245, 282.223 178.928 C 283.319 170.022, 283.107 166.626, 279.916 142 C 279.381 137.875, 278.506 122.575, 277.972 108 C 275.882 51.002, 274.995 33.403, 274.091 31 C 273.574 29.625, 272.864 26.700, 272.514 24.500 C 271.089 15.563, 267.686 12.445, 264.602 17.250 M 116.500 23.058 C 113.750 23.480, 108.125 23.875, 104 23.936 C 99.875 23.998, 94.700 24.538, 92.500 25.138 C 90.300 25.737, 85.835 26.514, 82.579 26.864 C 79.322 27.214, 76.498 27.985, 76.303 28.578 C 75.325 31.549, 87.689 33.284, 90 30.500 C 90.709 29.646, 92.889 29, 95.063 29 C 97.164 29, 99.121 28.613, 99.414 28.140 C 100.153 26.943, 108.682 25.882, 111.625 26.621 C 113.543 27.102, 113.815 27.518, 112.919 28.598 C 111.967 29.745, 114.613 29.962, 129.392 29.948 C 142.909 29.934, 147 29.637, 147 28.666 C 147 26.880, 141.642 25.159, 132.446 23.993 C 128.104 23.443, 123.864 22.834, 123.025 22.642 C 122.186 22.449, 119.250 22.637, 116.500 23.058 M 100.299 30.106 C 96.845 31.105, 94.935 33, 97.382 33 C 98.207 33, 99.160 32.550, 99.500 32 C 99.840 31.450, 101.329 30.968, 102.809 30.930 C 104.289 30.891, 106.400 30.473, 107.500 30 C 109.200 29.269, 109.051 29.144, 106.500 29.160 C 104.850 29.171, 102.060 29.597, 100.299 30.106 M 107.460 36.455 C 106.382 37.270, 104.672 37.951, 103.660 37.968 C 101.322 38.009, 98.077 41.849, 98.033 44.628 C 98.015 45.798, 97.325 47.315, 96.500 48 C 95.675 48.685, 95 50.063, 95 51.063 C 95 52.064, 94.600 53.129, 94.111 53.432 C 93.622 53.734, 92.911 55.218, 92.531 56.731 C 92.152 58.243, 91.527 59.709, 91.142 59.990 C 90.757 60.270, 88.917 63.875, 87.053 68 C 85.188 72.125, 82.726 76.407, 81.581 77.516 C 80.437 78.625, 78.490 81.550, 77.255 84.016 C 76.021 86.482, 74.610 89.175, 74.121 90 C 73.632 90.825, 72.618 92.850, 71.868 94.500 C 71.117 96.150, 69.940 97.860, 69.252 98.300 C 68.563 98.740, 68 99.674, 68 100.375 C 68 101.077, 66.875 102.708, 65.500 104 C 64.125 105.292, 63 107.100, 63 108.019 C 63 108.937, 61.872 110.996, 60.494 112.594 C 59.116 114.193, 57.705 116.400, 57.359 117.500 C 57.013 118.600, 56.454 119.725, 56.115 120 C 55.777 120.275, 54.469 122.525, 53.208 125 C 49.985 131.327, 48.404 133.996, 47.116 135.284 C 45.552 136.848, 45.727 139.529, 47.489 140.991 C 48.803 142.081, 48.777 142.568, 47.274 145.114 C 45.311 148.436, 43.041 148.873, 42.308 146.069 C 41.298 142.209, 38.547 145.341, 35.340 154 C 33.209 159.754, 34.579 161.621, 40.500 161.031 C 43.021 160.780, 47.393 155.848, 50.279 150 C 51.501 147.525, 52.837 145.350, 53.250 145.167 C 53.663 144.983, 54 144.449, 54 143.978 C 54 143.508, 55.350 141.645, 57 139.839 C 58.650 138.032, 60 136.228, 60 135.829 C 60 135.430, 61.125 133.889, 62.500 132.405 C 63.875 130.922, 65 128.929, 65 127.976 C 65 127.024, 65.675 125.685, 66.500 125 C 67.325 124.315, 68 122.910, 68 121.878 C 68 120.845, 68.378 120, 68.839 120 C 69.301 120, 70.186 118.987, 70.806 117.750 C 71.425 116.513, 73.292 113.250, 74.953 110.500 C 76.614 107.750, 78.245 104.825, 78.578 104 C 80.406 99.457, 81.521 98, 83.169 98 C 84.392 98, 85.011 98.747, 85.032 100.250 C 85.049 101.487, 85.710 103.354, 86.500 104.397 C 87.290 105.441, 87.722 106.641, 87.460 107.064 C 87.199 107.487, 88.338 111.348, 89.992 115.644 C 91.647 119.940, 93 124.251, 93 125.224 C 93 126.197, 94.717 130.258, 96.817 134.247 C 100.163 140.606, 100.502 141.859, 99.567 144.416 C 98.756 146.633, 98.800 147.432, 99.750 147.749 C 101.560 148.353, 101.338 153, 99.500 153 C 98.633 153, 98 152.095, 98 150.854 C 98 148.806, 97.885 148.832, 95.500 151.405 C 94.125 152.889, 93 154.894, 93 155.860 C 93 156.827, 92.339 158.491, 91.532 159.559 C 90.724 160.626, 90.035 162.400, 90 163.500 C 89.965 164.600, 89.276 166.374, 88.468 167.441 C 87.661 168.509, 87 170.395, 87 171.632 C 87 172.870, 86.500 174.191, 85.888 174.569 C 85.277 174.947, 83.726 177.632, 82.442 180.536 C 79.952 186.164, 78.971 187.275, 77.452 186.184 C 75.931 185.091, 74 181.188, 74 179.205 C 74 178.202, 73.339 176.509, 72.532 175.441 C 70.513 172.772, 70.513 159.228, 72.532 156.559 C 73.339 155.491, 74 153.616, 74 152.392 C 74 151.168, 74.338 150.017, 74.750 149.833 C 75.993 149.281, 79 142.974, 79 140.919 C 79 139.864, 79.345 139, 79.766 139 C 80.187 139, 82.027 136.717, 83.854 133.926 C 87.036 129.064, 87.103 128.771, 85.433 126.926 C 80.879 121.894, 73.160 128.005, 74.571 135.526 C 74.997 137.798, 74.838 139, 74.111 139 C 73.500 139, 73 138.287, 73 137.417 C 73 134.653, 70.783 136.446, 69.112 140.561 C 66.420 147.187, 66.088 147.414, 63.494 144.395 C 61.328 141.874, 61.055 141.802, 59.509 143.348 C 58.566 144.291, 57.974 146.192, 58.138 147.754 C 58.297 149.265, 58.066 151.084, 57.626 151.797 C 57.185 152.509, 57.124 155.269, 57.490 157.930 C 58.011 161.716, 57.704 163.759, 56.078 167.329 C 54.935 169.838, 54 172.183, 54 172.541 C 54 172.899, 53.104 174.450, 52.008 175.989 C 49.656 179.291, 43.644 194.715, 41.020 204.175 C 39.477 209.741, 39.386 211.146, 40.475 212.635 C 41.586 214.155, 42.172 214.243, 44.405 213.225 C 45.849 212.568, 47.537 210.785, 48.158 209.265 C 48.779 207.744, 50.320 204.250, 51.583 201.500 C 52.845 198.750, 54.186 195.408, 54.563 194.073 C 54.939 192.738, 56.316 190.493, 57.624 189.083 C 58.931 187.674, 60 185.728, 60 184.760 C 60 181.830, 64.649 182.465, 65.411 185.500 C 65.756 186.875, 66.480 188, 67.019 188 C 67.559 188, 68 188.605, 68 189.345 C 68 190.085, 68.900 191.505, 70 192.500 C 72.353 194.630, 72.532 197.529, 70.524 201 C 69.729 202.375, 68.756 204.175, 68.363 205 C 67.969 205.825, 66.592 207.905, 65.303 209.622 C 61.844 214.228, 58.009 222.176, 58.004 224.750 C 58.001 226.285, 57.402 227, 56.117 227 C 53.960 227, 49 236.428, 49 240.527 C 49 242.600, 49.478 243, 51.955 243 C 54.652 243, 60 239.141, 60 237.194 C 60 236.801, 61.013 235.348, 62.250 233.964 C 63.487 232.581, 65.358 229.773, 66.407 227.724 C 67.457 225.676, 68.642 224, 69.041 224 C 69.441 224, 71.243 221.033, 73.047 217.406 C 74.850 213.780, 76.927 210.581, 77.663 210.299 C 78.398 210.017, 79 209.207, 79 208.500 C 79 206.040, 81.666 206.222, 87.498 209.082 C 94.476 212.504, 100.266 213.293, 100.761 210.890 C 100.976 209.849, 99.929 208.806, 97.796 207.935 C 94.389 206.543, 87 199.818, 87 198.109 C 87 197.576, 88.350 194.223, 90 190.658 C 91.650 187.093, 93 183.903, 93 183.568 C 93 183.234, 94.031 181.282, 95.291 179.230 C 96.550 177.179, 98.450 173.475, 99.513 171 C 100.575 168.525, 101.807 166.241, 102.249 165.925 C 102.691 165.608, 103.326 163.046, 103.659 160.231 C 104.635 151.989, 108.179 152.470, 109.332 161 C 109.667 163.475, 111.046 168.946, 112.397 173.157 C 114.542 179.847, 114.884 182.942, 115.102 197.657 C 115.304 211.253, 115.054 215.078, 113.806 217.500 C 112.955 219.150, 111.959 222.571, 111.591 225.102 C 111.085 228.580, 110.321 230.026, 108.461 231.021 C 106.927 231.842, 106 233.216, 106 234.669 C 106 235.951, 105.550 237, 105 237 C 104.450 237, 104 237.623, 104 238.385 C 104 239.147, 102.875 240.507, 101.500 241.408 C 98.356 243.468, 98.321 245.299, 101.394 246.943 C 106.236 249.535, 113.583 244.809, 118.250 236.103 C 119.213 234.307, 120 232.385, 120 231.832 C 120 231.279, 121.397 228.882, 123.104 226.505 L 126.207 222.183 126.372 201.998 C 126.510 184.943, 126.779 181.633, 128.106 180.656 C 128.969 180.020, 129.486 178.938, 129.254 178.250 C 129.023 177.562, 129.546 177, 130.417 177 C 131.544 177, 132 177.958, 132 180.325 C 132 182.205, 132.761 184.358, 133.750 185.279 C 138.120 189.346, 140.025 191, 140.337 191 C 140.523 191, 144.235 194.402, 148.587 198.560 C 152.939 202.718, 158.170 206.993, 160.210 208.060 C 164.208 210.151, 169 210.644, 169 208.966 C 169 208.397, 165.963 204.844, 162.250 201.071 C 158.537 197.299, 152.545 191.089, 148.933 187.273 C 145.321 183.456, 139.809 178.444, 136.683 176.135 C 133.557 173.826, 131 171.524, 131 171.020 C 131 170.516, 129.875 168.889, 128.500 167.405 C 127.125 165.922, 126.001 163.986, 126.002 163.104 C 126.005 161.115, 131.120 155, 132.780 155 C 133.451 155, 134.010 154.662, 134.022 154.250 C 134.035 153.838, 136.247 151.925, 138.939 150 C 141.631 148.075, 144.877 144.813, 146.153 142.750 C 147.428 140.688, 148.816 139, 149.236 139 C 149.656 139, 150 137.650, 150 136 C 150 134.350, 150.420 133, 150.933 133 C 151.446 133, 152.181 131.987, 152.567 130.750 C 152.954 129.512, 153.630 128.267, 154.070 127.981 C 155.459 127.080, 156.409 117, 155.104 117 C 154.470 117, 153.523 115.875, 153 114.500 C 151.983 111.826, 150 111.090, 150 113.386 C 150 115.227, 148.113 118.720, 144.750 123.104 C 143.238 125.076, 142 127.442, 142 128.363 C 142 129.284, 140.584 132.617, 138.852 135.769 C 137.121 138.921, 134.895 143.012, 133.904 144.860 C 132.135 148.162, 127.057 152.958, 121.865 156.233 L 119.231 157.895 118.049 153.198 C 116.650 147.640, 114.028 142, 112.843 142 C 112.379 142, 112 141.380, 112 140.622 C 112 139.865, 111.325 138.685, 110.500 138 C 109.675 137.315, 109 135.947, 109 134.959 C 109 133.971, 108.249 131.663, 107.331 129.831 C 104.210 123.604, 104 123.028, 104 120.705 C 104 119.427, 103.339 117.509, 102.532 116.441 C 101.724 115.374, 101.047 113.825, 101.026 113 C 101.005 112.175, 100.315 110.211, 99.494 108.636 C 98.672 107.060, 98 105.013, 98 104.086 C 98 103.159, 97.605 101.972, 97.123 101.450 C 96.641 100.927, 95.291 97.686, 94.123 94.246 C 90.940 84.870, 91.407 79.034, 95.703 74.500 C 97.779 72.310, 104 60.056, 104 58.157 C 104 57.506, 104.458 56.191, 105.017 55.236 C 106.581 52.567, 111.192 39.737, 111.355 37.601 C 111.546 35.101, 109.893 34.615, 107.460 36.455 M 210.587 79.459 C 207.850 85.225, 206.819 129.521, 209.189 139.500 C 210.588 145.394, 211.619 147, 214 147 C 217.833 147, 218.055 145.175, 218.244 112.175 C 218.415 82.140, 218.309 79.999, 216.558 78.064 C 213.919 75.148, 212.472 75.486, 210.587 79.459 M 84 92.063 C 84 94.857, 86.255 97.078, 87.663 95.670 C 88.664 94.669, 87.084 90.246, 85.509 89.642 C 84.370 89.205, 84 89.799, 84 92.063 M 69.695 102.768 C 68.702 102.988, 68.055 103.665, 68.257 104.271 C 68.871 106.114, 70.713 106.189, 71.400 104.399 C 72.174 102.384, 72.033 102.250, 69.695 102.768 M 271.574 135.667 C 271.222 136.584, 271.399 137.799, 271.967 138.367 C 272.678 139.078, 273 138.557, 273 136.700 C 273 133.615, 272.501 133.253, 271.574 135.667 M 107.486 147.198 C 107.076 148.254, 107.616 149.745, 108.913 151.137 C 110.061 152.369, 111 153.769, 111 154.248 C 111 154.726, 111.450 154.840, 112 154.500 C 113.650 153.480, 113.142 151.276, 110.573 148.306 C 108.474 145.878, 108.058 145.729, 107.486 147.198 M 66.688 149.646 C 65.314 151.020, 66.026 153.142, 67.750 152.810 C 68.713 152.624, 69.500 151.841, 69.500 151.070 C 69.500 149.491, 67.736 148.598, 66.688 149.646 M 60.158 153 C 60.158 154.375, 60.385 154.938, 60.662 154.250 C 60.940 153.563, 60.940 152.438, 60.662 151.750 C 60.385 151.063, 60.158 151.625, 60.158 153 M 65 177.531 C 65 179.059, 65.572 180, 66.500 180 C 67.325 180, 68 179.148, 68 178.107 C 68 177.066, 67.325 175.955, 66.500 175.638 C 65.416 175.223, 65 175.748, 65 177.531 M 119 179.559 C 119 180.416, 119.457 180.835, 120.016 180.490 C 120.575 180.144, 120.774 179.443, 120.457 178.931 C 119.600 177.544, 119 177.802, 119 179.559 M 119 189.418 C 119 190.198, 119.281 191.569, 119.624 192.463 C 120.171 193.888, 120.427 193.836, 121.682 192.043 C 122.471 190.918, 122.838 189.547, 122.499 188.998 C 121.568 187.493, 119 187.801, 119 189.418 M 119.810 199.500 C 119.585 201.425, 119.761 203, 120.201 203 C 120.640 203, 121 201.425, 121 199.500 C 121 197.575, 120.824 196, 120.609 196 C 120.395 196, 120.035 197.575, 119.810 199.500 M 79.667 212.667 C 78.550 213.783, 78.917 219.257, 80.529 225.540 C 81.702 230.110, 83.043 232.481, 86.279 235.705 C 90.469 239.878, 95 241.374, 95 238.583 C 95 237.804, 94.662 237.017, 94.250 236.833 C 92.415 236.018, 85.436 221.569, 84.596 216.847 C 84.238 214.837, 83.246 212.925, 82.391 212.597 C 80.462 211.857, 80.477 211.856, 79.667 212.667 M 119 217.882 C 119 218.982, 119.450 220.160, 120 220.500 C 120.550 220.840, 121 220.218, 121 219.118 C 121 218.018, 120.550 216.840, 120 216.500 C 119.450 216.160, 119 216.782, 119 217.882 M 220.144 225.327 C 219.397 226.227, 219.349 227.594, 219.993 229.577 C 220.516 231.184, 221.170 233.660, 221.447 235.078 C 222.586 240.899, 236.303 251, 243.070 251 C 245.445 251, 246.071 250.607, 245.814 249.275 C 245.632 248.326, 244.446 247.034, 243.180 246.403 C 241.914 245.771, 239.893 244.410, 238.689 243.377 C 237.484 242.345, 235.260 240.701, 233.746 239.725 C 230.823 237.840, 226 230.960, 226 228.675 C 226 227.378, 222.960 224, 221.794 224 C 221.492 224, 220.749 224.597, 220.144 225.327 M 111.079 232.583 C 111.127 233.748, 111.364 233.985, 111.683 233.188 C 111.972 232.466, 111.936 231.603, 111.604 231.271 C 111.272 230.939, 111.036 231.529, 111.079 232.583" stroke="none" fill="black" fill-rule="evenodd"/>
</svg>