<svg xmlns="http://www.w3.org/2000/svg" width="300" height="300" viewBox="0 0 300 300" version="1.1">
	<path d="M 242 26.190 C 242 26.924, 241.035 27.970, 239.856 28.513 C 235.823 30.369, 234.055 37.551, 234.136 51.755 C 234.185 60.585, 234.632 65.352, 235.569 67.043 L 236.929 69.500 236.965 66.809 C 237 64.134, 238.435 62.269, 239.330 63.734 C 239.588 64.155, 239.957 65.850, 240.149 67.500 C 240.456 70.126, 240.211 70.469, 238.181 70.250 C 235.878 70.001, 235.867 70.054, 236.506 78.250 C 236.861 82.787, 237.327 87.063, 237.544 87.750 C 238.096 89.506, 240 89.312, 240 87.500 C 240 85.692, 241.167 85.567, 242.800 87.200 C 243.543 87.943, 243.936 91.087, 243.832 95.450 C 243.728 99.812, 243.511 101.017, 243.263 98.610 C 243.043 96.470, 242.218 94.076, 241.431 93.288 C 240.190 92.047, 240 93.448, 240 103.870 C 240 110.476, 240.427 116.146, 240.950 116.469 C 242.142 117.206, 243.977 113.882, 244.070 110.816 C 244.221 105.841, 245.858 112.384, 245.930 118.250 C 246.005 124.395, 245.294 125.302, 243.126 121.830 C 241.889 119.850, 241.686 119.809, 240.814 121.368 C 240.288 122.308, 240.122 124.297, 240.444 125.788 C 240.766 127.280, 241.303 139.975, 241.637 154 C 242.447 188.037, 242.607 190.453, 244.556 198 C 245.572 201.934, 246.170 207.748, 246.071 212.729 C 245.901 221.258, 247.049 225.302, 249.386 224.405 C 250.132 224.119, 251.011 224.586, 251.340 225.443 C 251.752 226.517, 251.346 227, 250.028 227 C 248.977 227, 247.866 227.407, 247.558 227.905 C 247.251 228.403, 247.524 233.284, 248.165 238.752 C 248.807 244.220, 249.041 249.451, 248.686 250.377 C 248.095 251.916, 247.676 251.875, 243.798 249.897 C 240.038 247.979, 238.460 247.794, 229.867 248.268 C 219.683 248.829, 214.816 250.217, 218.310 251.563 C 219.306 251.946, 223.253 252.036, 227.083 251.762 C 234.356 251.242, 235.500 251.750, 235.500 255.500 C 235.500 257.325, 236.375 257.555, 245.500 258.124 C 251.228 258.481, 255.927 258.351, 256.500 257.819 C 257.903 256.516, 257.670 238.242, 256.195 233.948 C 254.542 229.133, 254.409 207.290, 256.012 203.828 C 256.976 201.749, 256.988 200.418, 256.069 197.828 C 254.014 192.034, 251.024 158.259, 250.995 140.500 C 250.959 118.043, 249.004 94.112, 246.341 83.500 C 244.344 75.545, 242.971 47.196, 244.157 38.392 C 245.719 26.790, 245.682 25.586, 243.750 25.202 C 242.783 25.009, 242 25.451, 242 26.190 M 90.750 27.162 C 87.414 28.381, 87.335 29.189, 90.250 32.292 C 92.812 35.020, 100.349 36.073, 99.388 33.569 C 98.520 31.306, 100.986 30.678, 103.128 32.616 C 105.013 34.322, 105.025 34.465, 103.338 35.057 C 101.737 35.618, 101.802 35.824, 103.943 36.970 C 105.983 38.061, 106.519 38.010, 107.531 36.627 C 108.185 35.732, 109.233 35, 109.860 35 C 111.403 35, 111.314 37.707, 109.750 38.338 C 108.796 38.723, 108.813 38.861, 109.821 38.921 C 110.548 38.964, 111.818 39.675, 112.643 40.500 C 113.468 41.325, 115.011 42, 116.071 42 C 120.055 42, 116.896 36.054, 112.105 34.533 C 110.954 34.168, 109.447 33.333, 108.756 32.679 C 106.982 30.997, 96.391 25.984, 94.813 26.079 C 94.091 26.122, 92.263 26.610, 90.750 27.162 M 105 53.116 C 92.900 53.691, 67.722 55.519, 66.250 55.930 C 66.112 55.969, 66 56.675, 66 57.500 C 66 58.536, 64.960 59, 62.636 59 C 55.304 59, 52.063 69.966, 52.017 94.927 C 52 104.159, 52.076 104.463, 55.666 109.677 C 57.683 112.605, 59.722 115, 60.198 115 C 62.003 115, 62.503 110.748, 61.636 102.764 C 60.463 91.961, 60.864 71.576, 62.338 67.059 C 63.315 64.068, 64.019 63.450, 66.750 63.187 C 68.741 62.995, 70 62.324, 70 61.456 C 70 60.676, 71.013 59.834, 72.250 59.584 C 79.337 58.153, 83.220 57.669, 89.500 57.433 C 93.350 57.289, 100.019 56.879, 104.321 56.522 C 112.447 55.847, 115.416 56.752, 114.334 59.573 C 113.949 60.574, 114.531 61, 116.285 61 C 118.116 61, 118.951 60.332, 119.411 58.500 C 119.997 56.163, 120.450 56, 126.364 56 C 132.689 56, 136 57.659, 136 60.829 C 136 61.473, 136.813 62, 137.806 62 C 140.918 62, 146.318 66.720, 146.655 69.734 C 147.228 74.868, 147.060 104.459, 146.427 109.629 C 145.708 115.510, 147.063 119, 150.067 119 C 152.674 119, 152.767 118.650, 154.078 104 C 155.094 92.647, 155.232 88.834, 154.991 78.750 C 154.948 76.963, 154.976 74.011, 155.054 72.192 C 155.131 70.373, 154.667 67.673, 154.021 66.192 C 152.578 62.880, 143.784 56, 140.994 56 C 139.870 56, 136.389 55.100, 133.260 54 C 130.130 52.900, 125.979 52.085, 124.035 52.190 C 122.091 52.294, 113.525 52.711, 105 53.116 M 34.075 66.410 C 32.619 68.164, 32.978 71.161, 34.713 71.738 C 35.380 71.960, 36.225 70.952, 36.590 69.498 C 37.409 66.233, 35.831 64.294, 34.075 66.410 M 92.053 81.436 C 91.143 82.533, 91.136 83.385, 92.023 85.043 C 92.864 86.614, 92.883 87.517, 92.093 88.307 C 91.492 88.908, 90.994 91.898, 90.986 94.950 C 90.967 102.659, 90.326 104.379, 86.679 106.508 C 83.555 108.332, 78.821 111.925, 72.677 117.137 C 69.993 119.415, 69.751 119.995, 70.907 121.387 C 71.643 122.274, 72.833 123, 73.551 123 C 75.217 123, 78.171 120.086, 77.540 119.065 C 77.277 118.639, 78.166 117.253, 79.515 115.986 C 81.559 114.066, 82.348 113.863, 84.234 114.773 C 85.481 115.373, 85.938 115.895, 85.250 115.932 C 84.563 115.970, 84 116.695, 84 117.545 C 84 118.760, 84.725 118.955, 87.391 118.454 L 90.783 117.818 91.476 123.795 C 92.008 128.380, 91.795 130.496, 90.559 132.885 C 89.655 134.634, 89.399 136, 89.974 136 C 90.538 136, 91 136.677, 91 137.504 C 91 138.331, 91.819 140.535, 92.819 142.402 C 94.412 145.372, 94.780 145.591, 95.768 144.148 C 96.761 142.698, 97.021 142.680, 97.933 144 C 98.503 144.825, 98.976 146.767, 98.985 148.316 C 98.993 149.864, 99.485 152.037, 100.077 153.144 C 100.669 154.251, 100.862 155.909, 100.506 156.828 C 99.919 158.340, 99.721 158.315, 98.429 156.559 C 97.643 155.491, 97 153.579, 97 152.309 C 97 151.039, 96.583 150, 96.073 150 C 95.564 150, 94.953 149.438, 94.717 148.750 C 94.480 148.063, 94.448 148.400, 94.645 149.500 C 95.798 155.953, 96.169 168.778, 95.218 169.365 C 94.502 169.808, 94.700 171.305, 95.829 173.979 C 98.855 181.145, 106.795 180.224, 105.325 172.877 C 104.949 170.996, 105.162 170, 105.941 170 C 108.083 170, 111 172.039, 111 173.535 C 111 174.341, 111.450 175, 112 175 C 112.550 175, 113 174.594, 113 174.099 C 113 173.603, 114.667 172.214, 116.705 171.011 C 120.201 168.949, 120.596 168.914, 123.705 170.396 C 125.517 171.261, 127 172.392, 127 172.911 C 127 173.670, 132.397 177, 133.628 177 C 133.804 177, 134.647 175.650, 135.500 174 C 137.309 170.502, 139.210 170.210, 142 173 C 143.100 174.100, 144.456 175, 145.014 175 C 145.571 175, 146.923 175.559, 148.017 176.243 C 152.285 178.908, 155.273 172.844, 151.534 169.105 C 150.361 167.932, 149.389 167.911, 145.590 168.975 C 143.093 169.674, 140.026 169.942, 138.775 169.571 C 132.818 167.804, 122.647 166.690, 114.341 166.895 L 105.182 167.122 104.522 159.311 C 104.159 155.015, 103.415 150.150, 102.868 148.500 C 102.321 146.850, 101.672 142.936, 101.424 139.802 L 100.975 134.105 104.737 134.228 C 106.807 134.296, 109.425 134.045, 110.555 133.670 C 111.948 133.209, 113.323 133.652, 114.818 135.045 C 117.118 137.188, 119 136.916, 119 134.441 C 119 132.522, 122.422 132.599, 124.045 134.555 C 127.192 138.347, 132 138.585, 132 134.950 C 132 131.336, 128.201 130, 117.927 130 C 112.631 130, 106.858 130.502, 105.098 131.116 C 103.338 131.729, 101.665 131.998, 101.381 131.714 C 101.096 131.429, 100.405 127.890, 99.844 123.848 C 98.518 114.292, 100.373 102.023, 103.038 102.720 C 104.002 102.972, 105.538 102.158, 106.614 100.826 C 107.651 99.541, 109.737 97.694, 111.250 96.722 C 114.133 94.868, 114.940 91.298, 112.672 90.428 C 110.661 89.656, 105.941 91.772, 103.289 94.634 C 100.077 98.099, 98 97.103, 98 92.096 C 98 89.915, 98.460 86.921, 99.021 85.443 C 99.747 83.535, 99.712 82.358, 98.899 81.378 C 97.406 79.580, 93.567 79.612, 92.053 81.436 M 150.195 91.500 C 150.215 93.150, 150.439 93.704, 150.693 92.731 C 150.947 91.758, 150.930 90.408, 150.656 89.731 C 150.382 89.054, 150.175 89.850, 150.195 91.500 M 53.591 93.853 C 53.301 94.322, 53.710 95.559, 54.500 96.603 C 55.861 98.400, 55.938 98.356, 55.968 95.750 C 55.999 93.111, 54.694 92.069, 53.591 93.853 M 92.636 96.506 C 92.288 97.413, 92.639 98, 93.531 98 C 95.149 98, 95.517 96.437, 94.105 95.565 C 93.612 95.260, 92.952 95.684, 92.636 96.506 M 189.667 98.667 C 189.300 99.033, 189 100.764, 189 102.512 C 189 104.365, 188.207 106.407, 187.099 107.411 C 186.053 108.357, 184.960 110.789, 184.669 112.816 C 184.378 114.842, 183.628 118.975, 183.002 122 C 182.376 125.025, 181.782 136.085, 181.682 146.578 C 181.517 163.823, 181.688 166.004, 183.459 169.293 C 186.600 175.126, 195.272 177.236, 193.510 171.738 C 190.353 161.884, 188.141 139.188, 189.826 133.925 C 190.429 132.041, 191.183 126.450, 191.502 121.500 C 191.822 116.550, 192.753 110.134, 193.572 107.241 C 194.668 103.369, 194.780 101.457, 193.995 99.991 C 192.934 98.009, 190.936 97.397, 189.667 98.667 M 56.079 103.583 C 56.127 104.748, 56.364 104.985, 56.683 104.188 C 56.972 103.466, 56.936 102.603, 56.604 102.271 C 56.272 101.939, 56.036 102.529, 56.079 103.583 M 87.667 110.667 C 86.629 111.704, 86.883 115, 88 115 C 88.550 115, 89 113.875, 89 112.500 C 89 109.882, 88.769 109.564, 87.667 110.667 M 93.643 112.768 C 93.295 113.332, 93.328 115.977, 93.716 118.647 L 94.423 123.500 95.088 119 C 95.752 114.506, 94.884 110.761, 93.643 112.768 M 186.602 117.836 C 186.317 118.295, 186.477 119.983, 186.957 121.586 C 187.823 124.481, 187.829 124.476, 187.914 120.750 C 187.999 117.053, 187.614 116.198, 186.602 117.836 M 244 133.500 C 244 138.339, 245.236 139.295, 247.068 135.874 C 247.894 134.330, 247.909 133.096, 247.124 131.374 C 245.418 127.628, 244 128.593, 244 133.500 M 185 138 C 185 143.171, 186.313 144.694, 187.370 140.750 C 188.485 136.587, 188.083 133, 186.500 133 C 185.367 133, 185 134.222, 185 138 M 67.211 136.598 C 58.309 140.961, 56.323 146.750, 63.236 148.187 C 67.350 149.041, 74.804 147.179, 73.987 145.500 C 73.719 144.950, 71.588 144.573, 69.250 144.662 C 64.976 144.825, 63.491 143.448, 66.750 142.345 C 67.713 142.019, 71.304 140.425, 74.730 138.803 C 78.157 137.180, 81.757 136.101, 82.730 136.404 C 83.704 136.706, 85.100 136.577, 85.834 136.116 C 87.786 134.890, 85.753 134.348, 78.500 134.161 C 73.854 134.041, 71.306 134.592, 67.211 136.598 M 245.224 153.258 C 244.411 156.683, 244.336 158.736, 245.001 159.401 C 245.551 159.951, 246 161.210, 246 162.200 C 246 163.190, 246.444 164, 246.987 164 C 247.754 164, 247.379 149.427, 246.584 148.307 C 246.508 148.200, 245.897 150.428, 245.224 153.258 M 184.856 158.863 C 184.604 162.497, 184.866 164.001, 185.750 164.001 C 187.200 164, 187.458 157.271, 186.090 155.112 C 185.502 154.182, 185.094 155.420, 184.856 158.863 M 75.009 169.900 C 71.662 170.347, 70.426 170.986, 70.156 172.405 C 69.817 174.190, 70.282 174.270, 77.468 173.662 C 81.689 173.305, 86.026 172.395, 87.106 171.639 C 88.972 170.331, 88.913 170.233, 85.909 169.632 C 82.538 168.958, 81.959 168.972, 75.009 169.900 M 37.806 173.439 C 35.346 176.079, 35.505 176.693, 39.133 178.569 C 41.284 179.681, 42.475 179.850, 42.934 179.106 C 43.987 177.403, 52.882 174.789, 59.922 174.115 C 63.879 173.736, 66.509 172.996, 66.776 172.187 C 67.123 171.135, 64.460 170.936, 53.411 171.187 C 41.286 171.462, 39.393 171.735, 37.806 173.439 M 26.336 178.567 C 26.005 179.429, 26.244 180.644, 26.867 181.267 C 27.711 182.111, 28 181.711, 28 179.700 C 28 176.691, 27.251 176.182, 26.336 178.567 M 246 182.726 C 246 183.766, 246.683 185.491, 247.518 186.559 C 248.950 188.391, 249.020 188.308, 248.768 185.077 C 248.489 181.508, 246 179.393, 246 182.726 M 86.863 189.991 C 84.313 190.308, 81.431 191.227, 80.458 192.033 C 79.486 192.840, 77.072 193.500, 75.095 193.500 C 71.767 193.500, 71.500 193.723, 71.500 196.500 C 71.500 199.317, 71.728 199.493, 75.228 199.388 C 77.702 199.313, 79.552 198.564, 80.728 197.159 C 83.962 193.296, 103.954 192.284, 110.736 195.639 C 114.051 197.280, 115.007 197.425, 115.419 196.350 C 116.204 194.305, 121.443 194.727, 123.500 197 C 124.495 198.100, 126.257 199, 127.414 199 C 130.028 199, 131.543 201.336, 132.464 206.788 C 133.010 210.021, 133.620 211, 135.088 211 C 137.621 211, 137.551 213.623, 135 214.290 C 133.164 214.770, 133 215.654, 133 225.078 C 133 232.545, 133.388 235.773, 134.422 236.921 C 135.204 237.790, 136.133 239.658, 136.486 241.073 C 137.062 243.382, 136.692 243.818, 132.883 245.314 C 129.259 246.737, 128.407 246.779, 127.069 245.601 C 126.206 244.842, 123.346 244.187, 120.712 244.146 C 118.079 244.105, 115.461 243.785, 114.895 243.435 C 114.329 243.085, 107.404 242.609, 99.506 242.376 C 87.286 242.016, 84.057 242.254, 77.843 243.976 C 73.826 245.089, 70.019 246, 69.383 246 C 68.275 246, 67.966 243.778, 66.378 224.401 C 66.054 220.444, 66.330 214.247, 67.001 210.401 C 68.861 199.739, 68.804 198.543, 66.419 198.203 C 62.647 197.664, 59.793 201.096, 59.242 206.834 C 58.967 209.698, 58.350 212.284, 57.871 212.580 C 56.705 213.300, 56.762 225.472, 57.960 231.790 C 58.711 235.748, 58.598 237.499, 57.443 239.815 C 55.123 244.464, 56.905 248, 61.568 248 C 63.693 248, 66.253 248.841, 67.777 250.039 C 70.585 252.248, 75.813 251.938, 77.244 249.477 C 79.032 246.404, 109 246.538, 109 249.619 C 109 250.442, 107.890 251.027, 106.250 251.068 C 103.543 251.134, 103.536 251.153, 105.759 252.224 C 107.408 253.019, 108.702 253.001, 110.556 252.157 C 111.952 251.520, 114.143 251, 115.425 251 C 116.732 251, 118.411 250.013, 119.247 248.754 L 120.738 246.508 123.770 249.754 C 127.155 253.377, 127.321 253.434, 130.133 251.929 C 131.667 251.108, 132.721 251.242, 134.648 252.505 C 138.349 254.930, 140.382 253.743, 139.703 249.555 C 139.259 246.822, 139.570 245.866, 141.264 244.740 C 143.356 243.352, 143.360 243.274, 141.638 237.799 C 140.323 233.618, 139.990 229.842, 140.281 222.381 C 141.083 201.816, 138.086 191.553, 131.945 193.825 C 130.228 194.460, 128.861 194.300, 127.309 193.283 C 125.757 192.266, 124.591 192.130, 123.356 192.820 C 122.210 193.462, 120.723 193.458, 119.053 192.808 C 112.221 190.153, 96.578 188.784, 86.863 189.991 M 13 213.441 C 13 214.234, 13.450 215.160, 14 215.500 C 14.550 215.840, 15 215.191, 15 214.059 C 15 212.927, 14.550 212, 14 212 C 13.450 212, 13 212.648, 13 213.441 M 198.565 247.896 C 198.266 248.378, 198.580 249.207, 199.261 249.737 C 201.192 251.238, 207.176 254, 208.499 254 C 209.154 254, 210.505 254.900, 211.500 256 C 212.495 257.100, 213.915 258, 214.655 258 C 217.103 258, 216.050 254.935, 213.006 253.203 C 211.360 252.267, 210.010 251.162, 210.006 250.750 C 210.003 250.338, 209.155 250, 208.122 250 C 207.089 250, 204.638 249.329, 202.676 248.509 C 200.713 247.689, 198.863 247.413, 198.565 247.896 M 219 256 C 219 256.550, 220.463 257.083, 222.250 257.185 C 224.037 257.286, 226.625 257.433, 228 257.511 C 231.090 257.686, 233 257.068, 233 255.893 C 233 255.402, 229.850 255, 226 255 C 222 255, 219 255.429, 219 256" stroke="none" fill="black" fill-rule="evenodd"/>
</svg>