<svg xmlns="http://www.w3.org/2000/svg" width="300" height="300" viewBox="0 0 300 300" version="1.1">
	<path d="M 128.889 6.691 C 128.828 7.136, 128.855 8.471, 128.949 9.657 C 129.078 11.299, 128.404 11.972, 126.133 12.471 C 122.731 13.218, 121.198 15.274, 115.671 26.500 C 113.504 30.900, 110.534 36.300, 109.069 38.500 C 107.604 40.700, 106.103 43.288, 105.734 44.250 C 105.025 46.098, 102 46.706, 102 45 C 102 44.450, 101.438 43.997, 100.750 43.994 C 100.063 43.991, 96.409 41.521, 92.631 38.505 C 87.002 34.013, 85.286 33.133, 83.131 33.635 C 77.319 34.990, 76.523 39, 82.066 39 C 83.963 39, 85.787 39.890, 87.187 41.500 C 88.382 42.875, 90.124 44, 91.058 44 C 91.991 44, 93.315 44.675, 94 45.500 C 94.685 46.325, 96.042 47, 97.015 47 C 100.442 47, 100.361 53.458, 96.895 56.595 C 95.853 57.538, 95 58.867, 95 59.548 C 95 60.229, 94.325 61.045, 93.500 61.362 C 92.675 61.678, 92 62.626, 92 63.469 C 92 64.311, 91.569 65, 91.043 65 C 89.981 65, 81.314 75.453, 73.300 86.398 C 70.439 90.304, 67.627 94.044, 67.050 94.708 C 66.472 95.372, 66 96.369, 66 96.923 C 66 97.477, 64.580 99.548, 62.845 101.524 C 59.916 104.860, 59.807 105.236, 61.335 106.763 C 62.761 108.190, 63.452 108.238, 66.520 107.129 C 69.681 105.986, 75 101.755, 75 100.385 C 75 100.096, 76.295 97.978, 77.878 95.678 C 80.266 92.207, 80.527 91.282, 79.412 90.240 C 77.383 88.345, 78.837 86, 82.040 86 C 84.092 86, 85.060 85.384, 85.577 83.750 C 85.969 82.513, 89.037 78.657, 92.395 75.181 C 95.753 71.706, 99.625 67.201, 101 65.171 C 107.467 55.619, 108.044 55.016, 109.801 55.963 C 110.736 56.467, 112.655 57.119, 114.066 57.412 C 116.416 57.901, 119.061 59.657, 123 63.343 C 123.825 64.115, 125.400 65.024, 126.500 65.362 C 127.600 65.701, 129.718 67.108, 131.206 68.489 C 132.695 69.870, 134.291 71, 134.753 71 C 135.216 71, 137.334 72.781, 139.460 74.959 C 143.591 79.190, 145.549 79.325, 144.541 75.309 C 143.774 72.253, 140.711 69.483, 130.750 62.842 C 126.487 59.999, 123 57.333, 123 56.917 C 123 56.501, 120.750 55.413, 118 54.500 C 111.856 52.459, 111.596 50.718, 116.272 42.941 C 118.071 39.949, 120.343 35.700, 121.319 33.500 C 122.296 31.300, 123.518 28.825, 124.035 28 C 127.147 23.032, 128.269 20.116, 129.450 13.914 C 130.197 9.996, 130.386 6.739, 129.886 6.430 C 129.399 6.128, 128.950 6.246, 128.889 6.691 M 259.667 20.667 C 259.300 21.033, 259 23.026, 259 25.095 C 259 27.171, 258.300 29.557, 257.439 30.418 C 256.123 31.734, 255.913 34.773, 256.099 49.733 C 256.221 59.497, 256.719 69.064, 257.207 70.993 C 257.694 72.922, 258.531 79.225, 259.066 85 C 259.601 90.775, 260.264 97.750, 260.540 100.500 C 260.816 103.250, 261.006 107.525, 260.963 110 C 260.670 126.921, 260.959 132.318, 262.516 139 C 264.333 146.797, 266.226 187.699, 266.412 223.201 C 266.514 242.592, 266.247 243.317, 260.027 240.512 C 257.806 239.511, 255.510 238.115, 254.926 237.411 C 252.956 235.037, 245.964 232, 242.469 232 C 238.510 232, 237.942 233.650, 241 236.268 C 242.100 237.210, 243 238.816, 243 239.836 C 243 241.606, 249.909 248.655, 254.389 251.456 C 257.843 253.615, 263.549 254.249, 264.898 252.623 C 266.256 250.986, 270 251.626, 270 253.494 C 270 254.188, 270.604 255.257, 271.343 255.870 C 272.388 256.737, 272.981 256.376, 274.018 254.242 C 275.890 250.388, 276.680 210.616, 275.031 203.248 C 274.371 200.301, 273.502 185.427, 273.099 170.195 C 272.578 150.538, 271.987 141.800, 271.061 140.088 C 270.161 138.424, 269.514 130.140, 268.977 113.403 C 268.549 100.052, 267.900 88.647, 267.535 88.057 C 266.774 86.825, 264.506 61.559, 263.460 42.668 C 262.923 32.972, 263.065 29.247, 264.039 27.426 C 266.143 23.495, 262.488 17.845, 259.667 20.667 M 210.247 63.202 C 209.459 64.152, 209.550 65.032, 210.583 66.444 C 212.543 69.125, 212.355 70.752, 210 71.500 C 208.120 72.097, 207.999 73.017, 207.991 86.817 C 207.986 94.893, 207.298 107.305, 206.463 114.401 C 205.255 124.659, 205.188 128.038, 206.136 130.901 C 206.792 132.880, 207.447 138.325, 207.592 143 C 207.737 147.675, 207.888 151.838, 207.928 152.250 C 207.968 152.662, 209.065 153, 210.367 153 C 212.022 153, 213.533 151.794, 215.386 148.993 C 217.919 145.165, 217.964 144.874, 216.389 142.471 C 215.214 140.677, 214.768 137.884, 214.835 132.728 C 215.097 112.442, 216.049 67.185, 216.259 65 C 216.454 62.979, 216.005 62.442, 213.914 62.199 C 212.492 62.034, 210.842 62.485, 210.247 63.202 M 105.461 76.063 C 104.680 77.326, 107.757 81, 109.596 81 C 111.582 81, 112.204 79.250, 111.011 77.021 C 109.859 74.868, 106.552 74.297, 105.461 76.063 M 103.250 86.031 C 100.605 87.094, 100.813 85.125, 100.558 111.500 C 100.314 136.655, 99.995 138.551, 95.866 139.377 C 94.202 139.710, 91.414 140.637, 89.670 141.437 C 87.927 142.238, 84.348 143.098, 81.718 143.350 C 79.088 143.602, 76.388 144.254, 75.718 144.799 C 74.579 145.726, 70.819 146.420, 52 149.175 C 43.983 150.349, 42.547 151.285, 44.157 154.293 C 44.996 155.861, 45.902 156.090, 49.337 155.602 C 51.627 155.277, 54.981 155.024, 56.790 155.040 C 58.600 155.055, 60.612 154.740, 61.262 154.338 C 61.911 153.937, 64.312 153.573, 66.597 153.530 C 68.881 153.487, 71.551 152.788, 72.530 151.976 C 73.552 151.129, 76.369 150.495, 79.144 150.488 C 83.008 150.478, 84.293 150.027, 85.546 148.238 C 87.490 145.463, 89 145.358, 89 148 C 89 150.331, 89.115 150.360, 92.376 148.875 C 93.735 148.256, 95.114 146.681, 95.442 145.375 C 95.770 144.069, 96.722 143, 97.558 143 C 98.897 143, 99.006 146.375, 98.475 171.250 C 97.794 203.151, 97.796 204.434, 98.551 237.622 C 99.096 261.605, 99.114 261.758, 101.550 264.047 L 104 266.349 106.615 263.924 L 109.230 261.500 108.531 247.500 C 108.147 239.800, 107.655 231.475, 107.439 229 C 106.488 218.104, 106.370 183.910, 107.223 166.500 C 108.247 145.602, 108.730 144.083, 114.405 143.900 C 117.400 143.804, 117.419 143.775, 115 143 C 113.625 142.560, 113.218 142.155, 114.095 142.100 C 114.972 142.045, 116.484 141.123, 117.454 140.051 C 119.201 138.120, 119.245 138.121, 122.014 140.168 C 124.575 142.062, 127.721 141.975, 126.527 140.044 C 125.841 138.933, 128.678 136.683, 129.851 137.408 C 130.368 137.727, 131.027 137.373, 131.315 136.621 C 131.604 135.868, 133.414 134.957, 135.337 134.597 C 138.223 134.055, 139.309 134.382, 141.563 136.470 C 143.064 137.862, 144.893 139, 145.627 139 C 147.336 139, 148.410 134.768, 147.559 131.380 C 146.946 128.937, 146.625 128.804, 142.796 129.417 C 140.538 129.778, 138.242 130.350, 137.694 130.689 C 137.145 131.028, 135.302 131.442, 133.598 131.609 C 127.312 132.225, 121.459 133.144, 120 133.743 C 118.437 134.384, 117.632 134.578, 112.250 135.606 L 109 136.227 109 110.613 C 109 82.578, 109.244 83.622, 103.250 86.031 M 114.638 100.500 C 114.955 101.325, 115.391 102, 115.607 102 C 115.823 102, 116 101.325, 116 100.500 C 116 99.675, 115.564 99, 115.031 99 C 114.499 99, 114.322 99.675, 114.638 100.500 M 136.630 106.635 C 134.023 108.047, 133.904 108.333, 135.330 109.759 C 136.621 111.049, 137.174 111.100, 138.445 110.046 C 139.714 108.992, 140.431 109.052, 142.460 110.382 C 143.818 111.272, 145.845 112, 146.965 112 C 149.535 112, 152.218 114.230, 159.997 122.832 C 163.497 126.702, 165.378 126.557, 165.797 122.386 C 166.048 119.889, 165.251 118.689, 160.708 114.726 C 157.744 112.141, 154.100 108.895, 152.609 107.513 C 150.418 105.483, 148.898 105.008, 144.698 105.040 C 141.839 105.062, 138.209 105.780, 136.630 106.635 M 134.300 153.820 C 131.279 155.700, 130.871 160.970, 129.496 215.772 L 128.988 236.045 131.645 237.055 C 133.849 237.893, 134.697 237.694, 136.622 235.886 C 138.598 234.029, 139.180 233.904, 140.552 235.043 C 141.786 236.068, 142.588 236.114, 143.986 235.241 C 145.355 234.386, 146.587 234.395, 148.926 235.278 C 151.344 236.191, 152.483 236.179, 154.008 235.227 C 155.089 234.552, 156.766 234.007, 157.736 234.015 C 159.145 234.028, 159.219 234.209, 158.105 234.914 C 155.984 236.257, 159.596 236.750, 164.759 235.823 C 167.101 235.402, 172.757 234.896, 177.327 234.700 C 181.898 234.503, 186.169 234.014, 186.818 233.612 C 188.398 232.636, 188.318 228.817, 186.671 226.565 C 185.392 224.815, 185.123 224.825, 179.421 226.830 C 172.745 229.178, 161.199 231.241, 159.749 230.345 C 159.223 230.020, 154.451 229.567, 149.146 229.339 C 136.873 228.813, 136.782 228.777, 137.437 224.763 C 137.730 222.968, 138.199 210.025, 138.480 196 C 138.761 181.975, 139.263 166.675, 139.596 162 C 139.928 157.325, 139.871 153.822, 139.469 154.215 C 139.066 154.608, 137.984 154.527, 137.065 154.035 C 136.145 153.542, 134.901 153.446, 134.300 153.820 M 36 154.849 C 36 157.221, 37.361 159, 39.177 159 C 42.081 159, 41.236 154.605, 38.250 154.180 C 37.013 154.005, 36 154.305, 36 154.849 M 77.945 163.341 C 75.772 164.991, 71.547 173.529, 69.645 180.112 C 68.754 183.199, 67.346 187.024, 66.518 188.612 C 65.690 190.201, 65.010 191.915, 65.006 192.421 C 65.003 192.928, 64.383 194.053, 63.629 194.921 C 62.875 195.790, 61.341 198.975, 60.220 202 C 59.099 205.025, 56.791 210.287, 55.091 213.694 C 51.396 221.099, 51.222 224.516, 54.345 228.418 C 57.315 232.130, 59.519 231.378, 60.464 226.330 C 60.859 224.223, 62.041 220.612, 63.091 218.305 C 64.141 215.998, 65 213.825, 65 213.477 C 65 213.129, 66.614 209.391, 68.586 205.172 C 75.485 190.412, 78 184.505, 78 183.057 C 78 182.430, 79.385 178.955, 81.077 175.335 C 84.342 168.353, 84.384 164.811, 81.224 163.120 C 80.068 162.501, 78.952 162.577, 77.945 163.341 M 103 171.059 C 103 171.641, 103.450 171.840, 104 171.500 C 104.550 171.160, 105 170.684, 105 170.441 C 105 170.198, 104.550 170, 104 170 C 103.450 170, 103 170.477, 103 171.059 M 101.529 234.953 C 101.234 235.430, 101.273 236.547, 101.614 237.435 C 102.094 238.686, 102.546 238.792, 103.617 237.903 C 104.378 237.272, 105 236.408, 105 235.985 C 105 234.815, 102.139 233.966, 101.529 234.953 M 250 243.893 C 250 244.907, 253.046 246.288, 253.743 245.590 C 253.995 245.339, 253.904 244.653, 253.541 244.067 C 252.743 242.776, 250 242.641, 250 243.893 M 258.250 250.250 C 258.880 252.142, 262 252.411, 262 250.573 C 262 249.646, 261.145 249, 259.917 249 C 258.695 249, 258.005 249.517, 258.250 250.250" stroke="none" fill="black" fill-rule="evenodd"/>
</svg>