<svg xmlns="http://www.w3.org/2000/svg" width="300" height="300" viewBox="0 0 300 300" version="1.1">
	<path d="M 143.331 38.579 C 142.998 39.447, 143.089 43.835, 143.533 48.329 C 143.977 52.823, 144.161 58.750, 143.943 61.500 C 143.305 69.535, 143.541 82.962, 144.448 90.250 L 145.289 97 138.888 97 C 135.367 97, 130.915 97.487, 128.993 98.083 C 127.072 98.679, 124.150 99.527, 122.500 99.968 C 120.850 100.409, 118.713 101.095, 117.750 101.492 C 116.545 101.989, 116 101.752, 116 100.729 C 116 98.201, 113.260 96.539, 111.500 98 C 110.302 98.994, 109.693 98.990, 108.476 97.980 C 105.784 95.746, 105.903 94.833, 104.522 128.282 C 104.255 134.762, 103.539 140.993, 102.931 142.129 C 102.265 143.373, 102.067 146.441, 102.431 149.847 C 102.764 152.956, 103.248 158.558, 103.508 162.296 C 103.909 168.083, 104.460 169.690, 107.221 173.125 C 109.975 176.553, 110.879 177.072, 113.231 176.580 C 121.808 174.784, 122 174.775, 122.030 176.137 C 122.051 177.081, 122.363 176.982, 123.045 175.813 C 124.293 173.674, 131.539 173.571, 134.798 175.646 C 136.062 176.451, 137.862 176.983, 138.798 176.830 C 139.734 176.676, 141.131 176.945, 141.902 177.428 C 142.842 178.017, 143.725 177.729, 144.585 176.553 C 146.369 174.113, 148.339 175.484, 146.737 178.050 C 145.771 179.596, 145.776 180.374, 146.760 181.753 C 149.532 185.642, 149.954 187.859, 148.467 190.712 C 147.447 192.667, 147.010 196.862, 147.006 204.750 C 147 215.710, 146.942 216.003, 144.750 216.129 C 143.512 216.200, 141.375 216.353, 140 216.469 C 138.625 216.586, 131.875 216.999, 125 217.388 C 108.413 218.327, 85.317 220.686, 75.056 222.490 C 67.015 223.904, 64 225.196, 64 227.227 C 64 228.148, 65.854 228.019, 76 226.393 C 83.463 225.196, 91 224.993, 91 225.987 C 91 226.544, 89.902 227, 88.559 227 C 87.216 227, 85.793 227.526, 85.395 228.170 C 84.902 228.968, 85.227 229.127, 86.418 228.670 C 87.378 228.301, 89.463 228, 91.050 228 C 92.996 228, 93.776 227.580, 93.442 226.710 C 92.843 225.148, 98.409 223.028, 102 223.450 C 103.375 223.612, 105.400 223.834, 106.500 223.943 C 108.449 224.135, 108.450 224.160, 106.566 224.898 C 103.837 225.967, 106.232 227.231, 109.454 226.422 C 111.059 226.019, 112 225.084, 112 223.892 C 112 221.420, 113.655 221.475, 115.232 224 C 116.828 226.556, 118 226.556, 118 224 C 118 222.900, 118.563 221.937, 119.250 221.860 C 122.352 221.513, 128.589 222.265, 129.450 223.090 C 131.068 224.640, 134.474 224.095, 136.268 222 C 137.273 220.826, 139.218 220, 140.977 220 C 145.219 220, 146.382 223.521, 147.914 241 C 149.571 259.913, 150.618 266.710, 153.124 274.823 C 156.679 286.332, 157.487 288.329, 158.761 288.754 C 160.610 289.370, 160.316 283.610, 158.083 275.480 C 154.174 261.247, 152.614 230.424, 155.587 226.180 C 156.857 224.366, 156.928 223.619, 155.944 222.433 C 154.289 220.438, 154.808 220.197, 159.500 220.786 C 162.720 221.189, 163.110 221.441, 161.500 222.073 C 160.009 222.659, 160.553 222.877, 163.633 222.930 C 167.017 222.987, 167.866 222.621, 168.313 220.910 C 168.711 219.390, 169.382 218.987, 170.778 219.430 C 171.834 219.765, 174.003 219.358, 175.598 218.525 C 177.450 217.560, 181.279 217.010, 186.177 217.006 C 193.179 217.001, 194.028 217.220, 195.821 219.500 C 198.023 222.299, 200 222.772, 200 220.500 C 200 218.559, 206.567 218.435, 207.700 220.354 C 208.889 222.366, 212.639 224.076, 214.389 223.404 C 216.383 222.639, 217.344 219.507, 216.552 216.352 C 215.942 213.921, 215.745 213.868, 209.705 214.515 C 205.419 214.974, 201.624 214.704, 197.493 213.645 C 190.015 211.730, 181.023 211.686, 174.500 213.534 C 167.982 215.380, 155.352 216.835, 153.858 215.912 C 152.394 215.007, 153.323 196.110, 155.074 191.164 C 155.777 189.178, 156.005 185.702, 155.637 182.571 C 155.057 177.638, 155.176 177.241, 157.557 176.156 C 160.745 174.703, 161 174.712, 161 176.273 C 161 177.580, 169.579 180.088, 170.591 179.076 C 170.901 178.765, 169.208 177.962, 166.828 177.289 L 162.500 176.067 167 176.647 C 169.475 176.965, 172.024 177.648, 172.664 178.164 C 173.304 178.680, 177.041 179.371, 180.968 179.701 C 187.681 180.263, 188.143 180.170, 188.671 178.150 C 189.040 176.741, 189.968 176.040, 191.367 176.116 C 193.057 176.208, 193.136 176.327, 191.750 176.689 C 188.378 177.571, 190.046 178.684, 195 178.860 C 199.859 179.032, 200 178.957, 200 176.218 C 200 172.986, 198.402 171, 195.800 171 C 194.810 171, 193.944 170.438, 193.876 169.750 C 193.555 166.517, 194.300 157.341, 195.042 155.389 C 197.199 149.717, 199.247 132.331, 199.368 118.671 C 199.533 100.110, 199.928 100.611, 184.329 99.621 C 178.373 99.243, 168.100 98.386, 161.500 97.717 L 149.500 96.500 149.470 81.673 C 149.453 73.519, 149.827 66.607, 150.301 66.314 C 152.034 65.243, 162.604 63.070, 166.250 63.036 C 168.313 63.016, 170 62.550, 170 62 C 170 61.450, 169.495 61, 168.878 61 C 168.098 61, 168.132 60.546, 168.989 59.513 C 169.815 58.517, 170.744 58.317, 171.798 58.907 C 172.746 59.438, 174.302 59.364, 175.713 58.721 C 178.637 57.389, 181.529 59.422, 178.992 61.026 C 177.179 62.172, 177.980 62.311, 184.781 62.030 C 188.339 61.882, 190.895 62.356, 192.612 63.482 C 195.358 65.281, 198 64.900, 198 62.706 C 198 60.640, 193.730 57.073, 189.910 55.947 C 184.258 54.281, 164.296 54.546, 157.356 56.378 C 153.976 57.270, 150.992 58, 150.723 58 C 150.455 58, 149.917 54.607, 149.528 50.460 C 149.029 45.136, 149.175 42.494, 150.023 41.473 C 150.683 40.677, 150.963 39.345, 150.643 38.513 C 149.855 36.459, 144.125 36.511, 143.331 38.579 M 158.813 61.683 C 159.534 61.972, 160.397 61.936, 160.729 61.604 C 161.061 61.272, 160.471 61.036, 159.417 61.079 C 158.252 61.127, 158.015 61.364, 158.813 61.683 M 145.158 78 C 145.158 79.375, 145.385 79.938, 145.662 79.250 C 145.940 78.563, 145.940 77.438, 145.662 76.750 C 145.385 76.063, 145.158 76.625, 145.158 78 M 130.303 104.687 C 130.457 106.892, 130.068 107.505, 128.500 107.525 C 125.623 107.561, 122 108.978, 122 110.067 C 122 111.322, 117.280 111.262, 116.498 109.997 C 116.098 109.350, 115.248 109.332, 114.099 109.947 C 112.627 110.735, 112.129 113.188, 111.210 124.171 C 109.993 138.717, 110.106 139.100, 115.414 138.434 C 119.917 137.869, 143.908 136.607, 148 136.720 C 154.476 136.898, 172.462 138.082, 176.832 138.617 C 180.639 139.083, 181.341 139.573, 182.632 142.661 C 183.776 145.400, 183.837 146.491, 182.909 147.610 C 181.880 148.850, 181.368 148.816, 179.147 147.361 C 176.656 145.729, 172.782 145.248, 160.750 145.080 C 157.588 145.036, 155 144.550, 155 144 C 155 143.450, 156.012 142.986, 157.250 142.970 C 159.119 142.944, 159.230 142.781, 157.906 142.007 C 156.120 140.963, 148.780 141.835, 149.504 143.006 C 150.222 144.168, 144.538 145, 135.875 145 C 131.292 145, 128 144.582, 128 144 C 128 143.450, 126.537 143.061, 124.750 143.136 C 122.400 143.235, 122.123 143.392, 123.750 143.706 C 127.669 144.461, 126.180 146, 121.531 146 C 118.114 146, 117.189 145.671, 117.600 144.601 C 118.460 142.360, 116.373 141.834, 112.805 143.393 L 109.500 144.837 113 144.949 C 115.890 145.041, 116.194 145.239, 114.742 146.085 C 113.775 146.648, 112.560 146.846, 112.042 146.526 C 110.079 145.313, 108.697 150.645, 108.764 159.179 C 108.802 163.987, 109.122 168.388, 109.475 168.960 C 110.447 170.532, 114.114 170.207, 116.146 168.368 C 117.606 167.046, 118.476 166.945, 120.724 167.835 C 122.251 168.440, 130.250 169.188, 138.500 169.498 C 146.750 169.808, 158.450 170.595, 164.500 171.248 C 175.384 172.421, 183.157 172.537, 185.691 171.565 C 186.411 171.289, 187 169.586, 187 167.781 C 187 165.976, 187.702 161.349, 188.560 157.500 C 189.419 153.650, 190.554 146.900, 191.084 142.500 C 191.613 138.100, 192.486 130.877, 193.023 126.448 C 194.338 115.609, 194.258 112.553, 192.551 108.468 C 191.489 105.925, 190.488 105.004, 188.801 105.015 C 187.159 105.026, 186.882 105.273, 187.834 105.876 C 188.946 106.581, 188.946 106.800, 187.834 107.193 C 185.735 107.935, 171.966 106.864, 172.499 106.001 C 173.414 104.522, 170.468 103.268, 164.764 102.709 C 159.482 102.192, 156.272 103.138, 159.244 104.336 C 159.935 104.614, 158.363 104.878, 155.750 104.921 C 153.137 104.964, 151 104.541, 151 103.981 C 151 103.393, 152.058 103.228, 153.500 103.589 C 155.040 103.976, 156 103.791, 156 103.108 C 156 101.505, 151.246 101.744, 150.300 103.394 C 148.998 105.665, 133.791 106.024, 134.250 103.774 C 134.387 103.099, 133.511 102.396, 132.303 102.211 C 130.447 101.927, 130.137 102.310, 130.303 104.687 M 163.500 105 C 163.129 105.601, 164.403 105.994, 166.691 105.985 C 169.519 105.973, 170.113 105.720, 169 105 C 167.044 103.736, 164.281 103.736, 163.500 105 M 174 105 C 174 105.550, 174.900 106, 176 106 C 177.100 106, 178 105.550, 178 105 C 178 104.450, 177.100 104, 176 104 C 174.900 104, 174 104.450, 174 105 M 134.500 142.021 L 130.500 142.542 134 143.131 C 137.044 143.643, 149.150 142.607, 146.500 142.061 C 144.075 141.562, 138.176 141.542, 134.500 142.021 M 98.813 226.683 C 99.534 226.972, 100.397 226.936, 100.729 226.604 C 101.061 226.272, 100.471 226.036, 99.417 226.079 C 98.252 226.127, 98.015 226.364, 98.813 226.683" stroke="none" fill="black" fill-rule="evenodd"/>
</svg>