<svg xmlns="http://www.w3.org/2000/svg" width="300" height="300" viewBox="0 0 300 300" version="1.1">
	<path d="M 200.250 23.706 C 199.012 23.944, 198 24.518, 198 24.981 C 198 25.444, 195.412 26.052, 192.250 26.332 C 189.088 26.613, 182.900 27.510, 178.500 28.327 C 174.100 29.144, 166.675 30.265, 162 30.818 C 157.325 31.371, 151.250 32.364, 148.500 33.024 C 145.750 33.684, 137.360 34.286, 129.855 34.362 C 111.439 34.548, 112.377 33.527, 112.158 53.618 C 112.040 64.502, 111.565 70.172, 110.589 72.361 C 109.186 75.510, 107.807 82.895, 107.576 88.500 C 107.508 90.150, 107.013 92.175, 106.476 93 C 105.939 93.825, 105.001 97.425, 104.391 101 C 102.238 113.628, 100.535 121, 99.772 121 C 99.347 121, 99 121.849, 99 122.886 C 99 123.923, 98.328 126.060, 97.506 127.636 C 96.685 129.211, 96.012 131.625, 96.011 133 C 96.010 134.375, 95.362 137.525, 94.569 140 C 91.420 149.838, 88.759 159.689, 88.286 163.259 C 87.868 166.412, 88.047 166.919, 89.394 166.402 C 91.456 165.611, 91.475 167.361, 89.424 169.063 C 88.155 170.116, 87.695 170.124, 87.063 169.102 C 85.981 167.351, 85.354 169.189, 84.509 176.593 C 83.673 183.914, 81.267 194.514, 79.537 198.500 C 78.820 200.150, 77.634 203.975, 76.900 207 C 76.166 210.025, 75.302 212.725, 74.981 213 C 73.981 213.854, 71 220.729, 71 222.179 C 71 222.936, 70.371 224.454, 69.601 225.552 C 68.832 226.650, 66.318 232.488, 64.013 238.524 C 61.709 244.561, 58.988 251.093, 57.966 253.039 C 55.555 257.633, 51 270.275, 51 272.371 C 51 273.267, 50.610 274, 50.133 274 C 49.657 274, 48.361 276.179, 47.255 278.841 C 44.870 284.580, 45.678 287, 49.979 287 C 52.587 287, 53.005 286.506, 54.423 281.750 C 55.283 278.863, 57.340 274.520, 58.993 272.100 C 60.647 269.679, 62 267.064, 62 266.288 C 62 265.010, 63.217 262.126, 69.112 249.434 C 70.150 247.198, 71 244.813, 71 244.135 C 71 242.717, 73.929 236.746, 74.991 236 C 75.382 235.725, 75.950 234.375, 76.253 233 C 76.555 231.625, 78.222 226.675, 79.955 222 C 86.920 203.219, 91.341 189.194, 92.090 183.500 C 93.363 173.826, 98.930 153.024, 100.250 153.009 C 100.662 153.004, 101 151.823, 101 150.384 C 101 148.946, 101.648 145.683, 102.441 143.134 C 103.233 140.585, 104.416 136.025, 105.070 133 C 105.723 129.975, 106.571 127.050, 106.954 126.500 C 107.988 125.015, 110.114 117.368, 111.541 110 C 114.471 94.880, 116.374 85.927, 118.617 76.710 C 119.928 71.325, 121 65.682, 121 64.170 C 121 60.314, 123.899 49.569, 125.047 49.167 C 125.571 48.983, 126 47.827, 126 46.597 C 126 44.498, 126.660 44.283, 136.699 43.116 C 142.584 42.432, 151.634 41.001, 156.810 39.936 C 161.985 38.871, 169.140 38, 172.709 38 C 176.278 38, 180.616 37.363, 182.349 36.584 C 184.082 35.805, 187.075 34.888, 189 34.546 C 190.925 34.204, 194.525 33.508, 197 33 C 199.475 32.492, 202.932 31.787, 204.683 31.434 C 206.850 30.998, 208.597 31.305, 210.155 32.396 C 212.937 34.345, 215.882 34.472, 216.572 32.672 C 217.254 30.896, 215.332 26, 213.953 26 C 213.350 26, 212.182 25.325, 211.357 24.500 C 209.927 23.069, 205.279 22.737, 200.250 23.706 M 170.500 33 C 171.600 33.473, 173.400 33.859, 174.500 33.859 L 176.500 33.859 174.500 33 C 173.400 32.527, 171.600 32.141, 170.500 32.141 L 168.500 32.141 170.500 33 M 177.813 33.683 C 178.534 33.972, 179.397 33.936, 179.729 33.604 C 180.061 33.272, 179.471 33.036, 178.417 33.079 C 177.252 33.127, 177.015 33.364, 177.813 33.683 M 133.176 38.891 C 132.171 39.512, 132.210 39.929, 133.364 40.887 C 134.982 42.230, 136.271 41.057, 135.158 39.255 C 134.761 38.613, 133.887 38.452, 133.176 38.891 M 179.703 59.792 C 176.692 62.876, 176 64.326, 176 67.552 C 176 72.381, 174.033 73.903, 167.902 73.818 C 165.525 73.785, 163.412 74.263, 163.207 74.879 C 162.698 76.406, 158.289 76.303, 157.662 74.750 C 157.259 73.750, 157.142 73.750, 157.079 74.750 C 157.036 75.438, 155.845 76, 154.433 76 C 152.280 76, 151.973 76.339, 152.531 78.099 C 153.088 79.854, 152.874 80.095, 151.221 79.570 C 149.666 79.077, 149.140 79.488, 148.756 81.495 C 148.488 82.899, 148.545 84.215, 148.884 84.420 C 149.223 84.625, 152.650 84.181, 156.500 83.433 C 160.350 82.685, 164.235 82.057, 165.133 82.037 C 167.703 81.979, 167.972 85.529, 165.673 89.173 C 164.518 91.003, 163.101 93.384, 162.524 94.465 C 161.948 95.546, 159.883 96.807, 157.937 97.268 C 155.267 97.899, 154.114 98.860, 153.236 101.186 C 152.491 103.160, 152.407 104.848, 153.003 105.884 C 155.505 110.232, 155.552 110.244, 159.492 107.570 C 161.575 106.157, 163.909 105, 164.679 105 C 165.450 105, 167.844 104.100, 170 103 C 175.153 100.371, 191.980 100.066, 194.053 102.564 C 196.421 105.417, 198.934 114.420, 198.967 120.167 C 198.988 123.694, 199.472 126.054, 200.250 126.417 C 201.250 126.883, 201.250 127.117, 200.250 127.583 C 198.764 128.277, 198.565 131, 200 131 C 201.298 131, 201.308 135.729, 200.011 136.167 C 199.422 136.365, 198.844 144.837, 198.579 157.130 C 198.335 168.476, 197.832 179.377, 197.461 181.354 C 197.090 183.332, 197.229 186.218, 197.770 187.769 C 198.534 189.962, 198.391 191.022, 197.126 192.544 C 195.773 194.171, 193.988 194.550, 186.500 194.795 C 181.550 194.957, 176.653 195.344, 175.618 195.654 C 172.471 196.598, 175.989 198.060, 179.750 197.372 C 183.033 196.771, 183.659 197.413, 182.135 199.816 C 181.103 201.444, 170.052 203.085, 168 201.916 C 166.709 201.180, 166.729 201.057, 168.143 201.030 C 169.618 201.003, 171 199.094, 171 197.084 C 171 196.122, 154.611 199.171, 154.167 200.216 C 153.983 200.647, 151.508 200.993, 148.667 200.984 C 143.949 200.969, 131.756 202.873, 113.500 206.477 C 109.650 207.237, 103.373 208.137, 99.550 208.478 C 93.607 209.007, 90.703 209.982, 84.169 213.643 C 83.987 213.745, 84.308 214.707, 84.883 215.781 C 86.305 218.438, 92.526 219.293, 100.802 217.969 C 116.277 215.493, 130.918 212.819, 137 211.359 C 140.575 210.501, 146.200 209.407, 149.500 208.928 C 152.800 208.450, 160 207.359, 165.500 206.505 C 171 205.650, 179.775 204.533, 185 204.022 C 190.225 203.511, 195.927 202.833, 197.672 202.516 C 199.423 202.197, 201.129 202.400, 201.481 202.969 C 202.471 204.571, 205.798 204.183, 206.827 202.346 C 207.650 200.875, 208.433 200.825, 213.885 201.898 C 217.258 202.561, 222.710 203.007, 225.999 202.888 C 230.573 202.723, 232.449 203.096, 233.972 204.474 C 235.546 205.899, 236.263 206.027, 237.398 205.084 C 238.188 204.429, 240.100 203.796, 241.647 203.677 C 244.981 203.420, 247.146 199.958, 246.760 195.500 C 246.473 192.185, 247.350 192.332, 233.500 193.282 C 230.200 193.508, 223.105 193.248, 217.733 192.703 C 208.487 191.767, 207.933 191.580, 207.334 189.194 C 206.986 187.808, 207.106 174.260, 207.601 159.087 C 208.863 120.376, 208.669 111.350, 206.437 104.864 C 205.422 101.914, 203.948 98.724, 203.163 97.775 C 200.980 95.137, 193.910 92.081, 190 92.086 C 188.075 92.088, 185.150 92.074, 183.500 92.055 C 181.850 92.036, 178.799 92.543, 176.720 93.180 C 173.749 94.092, 172.679 94.067, 171.720 93.066 C 170.754 92.058, 170.890 91.554, 172.374 90.646 C 173.405 90.016, 176.035 88.037, 178.219 86.250 C 180.403 84.463, 183.071 83, 184.149 83 C 186.957 83, 204.262 78.027, 205.750 76.792 C 207.328 75.483, 207.318 74.818, 205.690 72.590 C 204.430 70.868, 204.036 70.870, 195.591 72.625 C 187.289 74.350, 186.734 74.356, 185.545 72.731 C 184.500 71.301, 184.700 70.147, 186.728 65.910 C 191.312 56.331, 186.865 52.458, 179.703 59.792 M 140.950 80.093 C 139.414 82.963, 140.580 87.226, 142.786 86.808 C 145.129 86.364, 145.895 78, 143.593 78 C 142.755 78, 141.566 78.942, 140.950 80.093 M 183 78.969 C 183 79.501, 183.675 79.678, 184.500 79.362 C 185.325 79.045, 186 78.609, 186 78.393 C 186 78.177, 185.325 78, 184.500 78 C 183.675 78, 183 78.436, 183 78.969 M 184 95.531 C 184 97.143, 186.662 98.672, 187.686 97.648 C 188.398 96.935, 186.138 94, 184.878 94 C 184.395 94, 184 94.689, 184 95.531 M 163 100 C 163 100.550, 163.675 101, 164.500 101 C 165.325 101, 166 100.550, 166 100 C 166 99.450, 165.325 99, 164.500 99 C 163.675 99, 163 99.450, 163 100 M 143.122 109.353 C 142.505 110.097, 141.739 114.259, 141.422 118.603 C 141.104 122.946, 140.239 129.875, 139.501 134 C 138.142 141.583, 136.827 152.977, 137.683 149.750 C 138.402 147.037, 141 147.625, 141 150.500 C 141 152.767, 140.508 153.199, 138.262 152.903 C 136.982 152.734, 135.160 158.429, 135.991 159.999 C 136.428 160.825, 136.372 165.775, 135.866 171 C 134.927 180.697, 135.369 186.520, 137.212 188.750 C 138.979 190.888, 141.879 190.134, 143.431 187.134 C 144.735 184.612, 145.636 184.186, 150.938 183.587 C 154.252 183.212, 159.517 182.026, 162.638 180.952 C 165.759 179.879, 169.802 179, 171.622 179 C 173.441 179, 176.991 178.300, 179.511 177.445 C 182.030 176.590, 184.858 175.966, 185.796 176.060 C 189.155 176.396, 190.794 175.979, 191.300 174.659 C 192.789 170.781, 185.231 168.400, 176.825 170.100 C 173.896 170.693, 169.700 171.352, 167.500 171.566 C 161.387 172.159, 154 174.093, 154 175.100 C 154 175.595, 153.325 176, 152.500 176 C 151.675 176, 151 175.550, 151 175 C 151 174.450, 150.325 174, 149.500 174 C 148.675 174, 148 174.450, 148 175 C 148 175.550, 147.100 176, 146 176 C 143.798 176, 143.528 173.830, 144.820 166.500 L 145.526 162.500 153.013 161.902 C 160.404 161.311, 168.335 159.584, 178.928 156.258 C 181.913 155.321, 186.407 154.542, 188.914 154.527 C 192.447 154.506, 193.548 154.106, 193.810 152.750 C 194.009 151.716, 193.537 151, 192.657 151 C 191.837 151, 191.003 150.509, 190.803 149.909 C 190.311 148.434, 180.124 148.192, 179.215 149.634 C 178.822 150.257, 175.125 151.036, 171 151.365 C 166.875 151.693, 161.025 152.214, 158 152.523 C 154.975 152.833, 151.037 152.821, 149.250 152.497 C 146.184 151.943, 146.002 151.671, 146.035 147.705 C 146.074 143.105, 148.376 131.291, 149.442 130.225 C 150.572 129.094, 151.949 132.354, 151.350 134.742 C 150.693 137.360, 151.574 137.538, 155.596 135.603 C 157.193 134.834, 163.225 133.681, 169 133.039 C 174.775 132.397, 181.093 131.410, 183.041 130.845 C 184.988 130.280, 188.588 129.972, 191.041 130.159 C 195.026 130.464, 195.534 130.261, 195.820 128.250 C 196.034 126.737, 195.625 126, 194.570 126 C 193.706 126, 193 125.594, 193 125.098 C 193 124.602, 191.726 123.751, 190.168 123.208 C 187.070 122.128, 177 123.600, 177 125.133 C 177 125.610, 175.650 126, 174 126 C 172.275 126, 170.993 125.469, 170.985 124.750 C 170.973 123.832, 170.773 123.808, 170.232 124.658 C 169.827 125.295, 166.346 126.015, 162.498 126.258 C 158.649 126.501, 154.488 127.045, 153.250 127.466 C 151.046 128.217, 151 128.076, 151 120.617 C 151 116.427, 150.599 113, 150.108 113 C 149.618 113, 148.934 111.875, 148.589 110.500 C 147.897 107.740, 144.970 107.126, 143.122 109.353 M 179 126.927 C 179 127.436, 178.213 128.059, 177.250 128.311 C 176.287 128.562, 177.188 128.820, 179.250 128.884 C 181.968 128.968, 183 128.587, 183 127.500 C 183 126.667, 182.111 126, 181 126 C 179.900 126, 179 126.417, 179 126.927 M 226 196.500 C 226 197.325, 226.450 198, 227 198 C 227.550 198, 228 198.675, 228 199.500 C 228 200.325, 228.450 201, 229 201 C 230.533 201, 230.188 198.331, 228.429 196.571 C 226.470 194.613, 226 194.599, 226 196.500 M 216.107 197.293 C 213.713 199.687, 214.945 201, 219.583 201 C 224.819 201, 225.132 199.516, 220.324 197.494 C 218.050 196.538, 216.916 196.484, 216.107 197.293 M 185.736 197.598 C 185.407 197.927, 185.380 198.827, 185.676 199.598 C 185.972 200.369, 185.641 201, 184.940 201 C 184.240 201, 183.914 201.247, 184.215 201.549 C 184.517 201.850, 185.942 201.802, 187.382 201.440 C 190.286 200.711, 190.871 198.548, 188.418 197.607 C 186.477 196.862, 186.471 196.862, 185.736 197.598 M 144 204 C 145.958 205.266, 147.282 205.266, 146.500 204 C 146.160 203.450, 145.121 203.007, 144.191 203.015 C 142.734 203.029, 142.707 203.165, 144 204 M 126 207.729 C 122.588 209.028, 122.101 212, 125.300 212 C 128.095 212, 130.034 210.251, 129.315 208.378 C 128.751 206.908, 128.358 206.831, 126 207.729 M 157.004 210.724 C 152.615 211.275, 151 212.593, 151 215.622 C 151 216.930, 150.555 218, 150.012 218 C 149.468 218, 148.736 219.800, 148.384 222 C 148.032 224.200, 147.352 226, 146.872 226 C 146.392 226, 146 227.098, 146 228.441 C 146 229.784, 145.602 231.128, 145.116 231.428 C 144.630 231.729, 143.269 233.893, 142.093 236.237 C 140.916 238.582, 138.376 242.525, 136.448 245 C 134.520 247.475, 132.080 250.625, 131.025 252 C 129.971 253.375, 127.172 256.610, 124.804 259.189 C 116.715 268.001, 115 270.458, 115 273.235 C 115 275.518, 115.436 276, 117.500 276 C 119.116 276, 120 275.439, 120 274.413 C 120 273.540, 121.323 272.327, 122.941 271.716 C 124.559 271.106, 126.121 269.654, 126.413 268.491 C 126.866 266.684, 131.850 261.066, 136.219 257.436 C 138.873 255.232, 145.491 246.736, 146.589 244.127 C 147.216 242.634, 148.353 240.751, 149.115 239.941 C 149.877 239.132, 151.385 236.676, 152.468 234.485 C 153.550 232.293, 155.237 229.427, 156.218 228.115 C 157.198 226.803, 158 225.003, 158 224.113 C 158 223.223, 160.050 220.294, 162.556 217.604 C 165.062 214.913, 166.749 212.358, 166.306 211.927 C 165.111 210.763, 160.966 210.227, 157.004 210.724 M 104 213.969 C 104 214.501, 104.675 214.678, 105.500 214.362 C 106.325 214.045, 107 213.609, 107 213.393 C 107 213.177, 106.325 213, 105.500 213 C 104.675 213, 104 213.436, 104 213.969 M 94.813 215.683 C 95.534 215.972, 96.397 215.936, 96.729 215.604 C 97.061 215.272, 96.471 215.036, 95.417 215.079 C 94.252 215.127, 94.015 215.364, 94.813 215.683 M 180.247 231.153 C 178.383 233.017, 178.716 234.751, 181.640 238.415 C 184.027 241.407, 184.676 241.678, 188.430 241.255 C 192.751 240.768, 192.708 240.732, 195.827 247.326 C 196.347 248.427, 192.074 245.991, 189.254 243.579 C 188.019 242.523, 186.793 241.873, 186.531 242.136 C 186.013 242.654, 191.510 249, 192.477 249 C 192.802 249, 194.362 250.238, 195.945 251.750 C 200.565 256.164, 201.957 257.216, 210.448 262.703 C 214.877 265.564, 218.978 268.316, 219.563 268.817 C 221.756 270.699, 225.075 272.071, 226.021 271.487 C 228.287 270.086, 226.646 266.676, 221.250 261.578 C 215.374 256.026, 208.614 251, 207.023 251 C 206.534 251, 205.866 250.155, 205.539 249.122 C 204.745 246.620, 186.843 231.250, 183.848 230.498 C 182.528 230.167, 180.945 230.455, 180.247 231.153 M 139.476 244.075 C 138.727 246.436, 139.363 247.512, 140.933 246.541 C 142.245 245.731, 142.355 242, 141.067 242 C 140.554 242, 139.838 242.934, 139.476 244.075 M 204 255.433 C 204 256.221, 204.900 257.151, 206 257.500 C 207.100 257.849, 208 258.458, 208 258.853 C 208 259.248, 208.900 259.571, 210 259.571 C 212.788 259.571, 212.501 258.851, 208.681 256.250 C 204.822 253.623, 204 253.479, 204 255.433 M 58.079 259.583 C 58.127 260.748, 58.364 260.985, 58.683 260.188 C 58.972 259.466, 58.936 258.603, 58.604 258.271 C 58.272 257.939, 58.036 258.529, 58.079 259.583" stroke="none" fill="black" fill-rule="evenodd"/>
</svg>