<svg xmlns="http://www.w3.org/2000/svg" width="300" height="300" viewBox="0 0 300 300" version="1.1">
	<path d="M 137.386 50.014 C 136.829 50.571, 130.326 51.460, 122.936 51.989 C 100.328 53.607, 97.967 53.910, 95.723 55.481 C 94.531 56.317, 91.657 57, 89.337 57 C 87.016 57, 84.840 57.450, 84.500 58 C 84.160 58.550, 82.659 59, 81.163 59 C 79.668 59, 77.557 59.607, 76.473 60.348 C 75.136 61.262, 71.758 61.637, 66 61.512 C 52.564 61.219, 47.979 64.211, 52.998 69.998 C 54.760 72.029, 55.838 72.286, 62.124 72.170 C 66.045 72.097, 70.658 71.619, 72.376 71.106 C 78.657 69.231, 84.658 67.822, 91.560 66.601 C 95.443 65.914, 99.176 65.009, 99.854 64.590 C 100.533 64.171, 101.726 64.358, 102.506 65.005 C 103.713 66.007, 103.595 66.654, 101.712 69.341 C 100.496 71.079, 99.230 72.725, 98.899 73 C 97.571 74.106, 93 82.044, 93 83.245 C 93 85.015, 89.301 91.760, 86.943 94.292 C 85.874 95.439, 85 96.812, 85 97.344 C 85 97.876, 83.875 99.786, 82.500 101.589 C 81.125 103.392, 80 105.394, 80 106.039 C 80 106.684, 78.875 108.097, 77.500 109.179 C 76.125 110.260, 75 111.703, 75 112.385 C 75 113.068, 73.650 114.919, 72 116.500 C 70.350 118.081, 68.999 119.852, 68.999 120.437 C 68.998 121.022, 67.882 122.850, 66.518 124.500 C 63.673 127.943, 63.456 128.222, 59.750 133.184 C 58.237 135.209, 57 137.122, 57 137.433 C 57 137.745, 56.213 138.832, 55.250 139.850 C 52.146 143.130, 50.522 145.378, 46.652 151.750 C 44.564 155.188, 42.535 158, 42.143 158 C 40.965 158, 38 163.657, 38 165.904 C 38 167.166, 38.642 168, 39.614 168 C 41.674 168, 56.498 153.511, 58.524 149.517 C 60.962 144.712, 62.345 142.666, 64.750 140.305 C 65.988 139.090, 67 137.715, 67 137.249 C 67 136.784, 68.800 134.530, 71 132.240 C 73.200 129.951, 75 127.718, 75 127.278 C 75 126.839, 76.125 125.266, 77.500 123.783 C 78.875 122.301, 80 120.655, 80 120.127 C 80 119.599, 80.364 119.017, 80.808 118.833 C 81.253 118.650, 83.388 115.800, 85.554 112.500 C 89.472 106.528, 90.209 105.525, 95.032 99.607 C 96.425 97.898, 98.450 94.700, 99.532 92.500 C 100.614 90.300, 101.777 88.275, 102.115 88 C 102.454 87.725, 103.046 86.487, 103.433 85.250 C 103.819 84.013, 104.554 83, 105.067 83 C 105.580 83, 106 82.325, 106 81.500 C 106 80.675, 106.398 80, 106.883 80 C 107.369 80, 108.051 79.213, 108.399 78.250 C 109.559 75.041, 111.652 72.028, 116.221 66.992 C 120.702 62.053, 120.814 62, 126.794 62 C 130.720 62, 133.906 61.387, 135.885 60.251 C 138.764 58.599, 139.026 58.597, 140.648 60.220 C 142.183 61.754, 142.350 64.439, 142.219 85.424 C 142.139 98.342, 141.670 109.718, 141.177 110.705 C 140.685 111.692, 139.503 114.925, 138.550 117.889 C 137.598 120.853, 136.297 123.945, 135.659 124.761 C 133.004 128.156, 128.705 132, 127.563 132 C 126.889 132, 125.736 133.125, 125 134.500 C 124.160 136.069, 122.794 137, 121.331 137 C 119.511 137, 119 137.548, 119 139.500 C 119 141.729, 119.413 142, 122.809 142 C 125.388 142, 128.494 140.870, 132.430 138.500 C 135.627 136.575, 138.569 135, 138.968 135 C 141.577 135, 150 120.662, 150 116.221 C 150 115.219, 150.425 113.972, 150.944 113.450 C 151.903 112.484, 153.770 96.421, 154.714 81 C 155.012 76.147, 154.675 68.885, 153.929 64.074 C 152.808 56.841, 152.166 55.178, 149.395 52.324 C 146.830 49.683, 145.368 49, 142.283 49 C 140.148 49, 137.944 49.456, 137.386 50.014 M 254.823 56.039 C 253.879 56.590, 246.803 56.905, 238.632 56.759 C 228.062 56.570, 223.775 56.840, 222.859 57.750 C 222.166 58.438, 220.594 59, 219.365 59 C 218.136 59, 215.863 59.496, 214.315 60.103 C 211.691 61.131, 211.638 61.259, 213.528 61.989 C 215.531 62.762, 225.045 61.708, 227.006 60.496 C 228.497 59.575, 232.172 60.984, 231.731 62.307 C 231.522 62.933, 230.260 63.750, 228.926 64.123 C 227.592 64.496, 231.532 64.845, 237.683 64.900 C 248.333 64.995, 248.903 65.107, 249.664 67.250 C 250.506 69.624, 250.417 125.517, 249.568 126.889 C 249.296 127.330, 249.450 132.147, 249.909 137.595 C 250.369 143.043, 250.529 148.063, 250.266 148.750 C 249.520 150.694, 246.996 150.234, 243.411 147.500 C 241.608 146.125, 239.869 145, 239.547 145 C 239.224 145, 237.192 143.884, 235.032 142.520 C 232.871 141.156, 229.280 139.749, 227.052 139.392 C 223.429 138.813, 223 138.960, 223 140.783 C 223 142.945, 227.756 147.495, 231.973 149.369 C 233.363 149.986, 235.247 151.413, 236.160 152.539 C 237.792 154.552, 247.852 160, 249.937 160 C 250.522 160, 251 161.125, 251 162.500 C 251 164.679, 251.439 165, 254.418 165 C 257.287 165, 258.212 164.397, 260.168 161.250 C 262.388 157.680, 262.491 156.708, 262.316 141 C 262.215 131.925, 261.990 109.557, 261.816 91.293 C 261.513 59.452, 261.418 58.025, 259.500 56.575 C 257.136 54.788, 256.995 54.772, 254.823 56.039 M 100.667 57.667 C 99.210 59.123, 100.138 60.117, 102.673 59.816 C 106.117 59.409, 107.038 57, 103.750 57 C 102.421 57, 101.033 57.300, 100.667 57.667 M 204.559 59.905 C 204.251 60.402, 202.200 60.568, 200 60.273 C 197.374 59.921, 196 60.125, 196 60.868 C 196 61.491, 195.068 62, 193.929 62 C 191.383 62, 189 64.246, 189 66.647 C 189 67.631, 187.947 69.351, 186.660 70.468 C 184.326 72.495, 183.012 77.536, 182.481 86.500 C 182.351 88.700, 181.924 95.900, 181.532 102.500 C 181.140 109.100, 180.381 115.031, 179.845 115.680 C 179.309 116.329, 179.012 118.579, 179.185 120.680 C 179.446 123.840, 179.868 124.488, 181.633 124.433 C 183.709 124.368, 183.753 124.650, 183.291 134.933 C 183.030 140.745, 182.411 147.075, 181.914 149 C 180.644 153.922, 180.783 157.754, 182.250 158.292 C 183.250 158.658, 183.250 159.015, 182.250 160.075 C 179.453 163.040, 181.741 223.979, 185.041 234.439 C 185.738 236.646, 185.600 237.785, 184.484 239.017 C 182.241 241.496, 182.683 242.994, 186 244.150 C 187.650 244.725, 189 245.859, 189 246.669 C 189 248.384, 191.373 251, 192.929 251 C 193.518 251, 194 250.270, 194 249.378 C 194 248.049, 194.271 247.980, 195.500 249 C 197.709 250.834, 197.489 254.941, 195.214 254.346 C 193.595 253.922, 193.464 254.561, 193.815 261.189 C 194.028 265.210, 194.607 268.927, 195.101 269.450 C 195.596 269.972, 196.003 271.547, 196.007 272.950 C 196.014 275.929, 198.772 280.451, 201.928 282.662 C 203.982 284.101, 204.320 284.048, 206.572 281.933 C 209.237 279.429, 209.856 273.403, 208.048 267.571 C 207.524 265.882, 206.375 261.125, 205.494 257 C 203.448 247.416, 202.430 245.451, 198.229 242.973 C 195.584 241.412, 195.048 240.647, 195.891 239.631 C 196.682 238.678, 196.683 236.264, 195.893 230.907 C 193.774 216.519, 193.112 209.277, 191.977 188.009 C 190.783 165.650, 189.085 156.535, 189.030 172.191 C 189.014 176.971, 189.450 181.160, 190 181.500 C 191.254 182.275, 191.325 187, 190.083 187 C 189.579 187, 188.937 186.438, 188.657 185.750 C 188.377 185.063, 188.343 187.425, 188.583 191 C 188.822 194.575, 188.721 196.825, 188.359 196 C 187.997 195.175, 187.242 194.202, 186.683 193.838 C 186.095 193.455, 185.631 188.112, 185.583 181.171 C 185.537 174.568, 185.162 168.829, 184.750 168.416 C 183.624 167.291, 183.847 158, 185 158 C 185.612 158, 186 153.270, 186 145.809 C 186 134.875, 186.151 133.818, 187.468 135.559 C 188.313 136.676, 188.950 139.728, 188.968 142.750 C 189 148.029, 190.565 149.943, 191.421 145.750 C 192.383 141.033, 192.757 127.139, 192.029 123.158 C 191.611 120.871, 191.654 119, 192.126 119 C 192.597 119, 192.956 116.863, 192.922 114.250 C 192.889 111.638, 193.012 102.300, 193.194 93.500 L 193.527 77.500 197.479 73.690 C 199.824 71.429, 202.111 70.057, 203.105 70.317 C 204.025 70.558, 205.352 70.400, 206.054 69.967 C 206.895 69.447, 205.911 68.754, 203.164 67.931 C 200.874 67.245, 199 66.110, 199 65.409 C 199 63.770, 202.421 62.682, 205 63.500 C 206.100 63.849, 207.925 63.841, 209.055 63.483 C 211.102 62.833, 211.101 62.823, 208.902 60.915 C 206.459 58.796, 205.397 58.549, 204.559 59.905 M 80.750 61.724 C 76.585 62.343, 77.458 64.166, 81.750 63.810 C 83.813 63.640, 85.421 63.061, 85.325 62.525 C 85.112 61.336, 84.307 61.196, 80.750 61.724 M 59.507 64.989 C 59.157 65.555, 59.558 65.723, 60.448 65.382 C 62.180 64.717, 62.497 64, 61.059 64 C 60.541 64, 59.843 64.445, 59.507 64.989 M 215.638 68.500 C 215.955 69.325, 216.873 70, 217.678 70 C 218.484 70, 219.818 69.325, 220.643 68.500 C 221.976 67.167, 221.750 67, 218.603 67 C 215.867 67, 215.194 67.341, 215.638 68.500 M 254.851 70.500 C 254.377 73.142, 253.783 102.271, 253.914 116.500 C 253.944 119.800, 253.919 126.626, 253.859 131.669 C 253.724 142.912, 254.708 150.298, 256.218 149.365 C 256.987 148.890, 257.084 142.774, 256.549 128.596 C 256.132 117.543, 255.813 107.825, 255.841 107 C 256.517 86.594, 256.528 71.862, 255.868 70.821 C 255.408 70.095, 254.950 69.950, 254.851 70.500 M 99.183 80.217 C 98.532 80.868, 98.003 82.323, 98.006 83.450 C 98.011 85.146, 98.274 84.999, 99.524 82.601 C 101.182 79.423, 101.031 78.369, 99.183 80.217 M 143.625 110.798 C 143.354 111.237, 143.545 112.249, 144.051 113.048 C 144.768 114.182, 144.973 114.007, 144.985 112.250 C 145 109.937, 144.492 109.394, 143.625 110.798 M 188.408 154.378 C 188.118 155.136, 188.266 157.248, 188.739 159.071 L 189.598 162.386 190.913 159.211 C 192.276 155.920, 191.847 153, 190 153 C 189.415 153, 188.699 153.620, 188.408 154.378 M 109.500 171.751 C 106.750 172.713, 103.843 173.922, 103.040 174.439 C 102.237 174.955, 98.057 175.437, 93.750 175.509 C 86.237 175.636, 85.799 175.775, 82.902 178.946 C 79.760 182.386, 79.703 184.583, 82.727 185.700 C 83.702 186.060, 84.730 186.689, 85.010 187.098 C 86.190 188.818, 90.743 189.114, 92.286 187.571 C 93.761 186.096, 98.460 184.811, 107.250 183.478 C 109.313 183.165, 111 182.489, 111 181.976 C 111 181.463, 114.155 181.101, 118.010 181.172 C 124.861 181.299, 125.122 181.400, 129.490 185.646 C 131.948 188.035, 134.256 191.230, 134.618 192.745 C 134.980 194.260, 135.610 195.950, 136.019 196.500 C 136.428 197.050, 137.007 199.075, 137.304 201 C 137.917 204.958, 139.678 212.785, 141.131 218 C 141.667 219.925, 142.195 229.243, 142.303 238.708 C 142.548 260.128, 143.046 259.330, 129.612 259.079 C 124.355 258.981, 119.248 259.332, 118.264 259.859 C 117.280 260.386, 114.455 261.070, 111.987 261.379 C 109.519 261.689, 104.575 262.396, 101 262.951 C 97.425 263.506, 91.968 263.969, 88.872 263.980 C 82.981 264.001, 80.257 265.620, 81.344 268.455 C 81.657 269.270, 81.502 270.190, 81 270.500 C 80.498 270.810, 80.319 271.669, 80.603 272.408 C 82.054 276.188, 110.869 274.418, 120.500 269.957 C 121.600 269.448, 128.460 268.354, 135.745 267.527 C 151.220 265.770, 153.361 264.862, 152.654 260.357 C 152.382 258.628, 152.569 253.959, 153.069 249.980 C 154.095 241.807, 152.627 207.153, 151.133 204.290 C 150.619 203.305, 149.414 199.800, 148.454 196.500 C 145.308 185.689, 141.501 180.101, 132.906 173.684 C 128.063 170.068, 116.937 169.149, 109.500 171.751 M 72 180.531 C 72 182.439, 71.550 184, 71 184 C 70.450 184, 70 183.550, 70 183 C 70 182.450, 69.409 182, 68.688 182 C 67.143 182, 64.334 204.209, 65.361 208.302 C 66.285 211.984, 69.760 210.817, 70.284 206.648 C 70.674 203.543, 70.682 203.549, 70.840 207.095 C 70.950 209.567, 70.375 211.255, 69 212.500 C 67.588 213.777, 67 213.921, 67 212.988 C 67 212.261, 66.842 211.854, 66.648 212.083 C 66.454 212.313, 66.694 219.025, 67.181 227 C 67.667 234.975, 68.047 242.625, 68.024 244 C 67.959 247.934, 70.019 264.066, 71.176 268.686 C 72.318 273.247, 74.564 274.864, 76.738 272.691 C 77.849 271.580, 78.108 266.031, 78.060 244.404 C 77.986 211.404, 76.982 184, 75.847 184 C 75.381 184, 75 182.698, 75 181.107 C 75 179.458, 74.355 177.966, 73.500 177.638 C 72.344 177.195, 72 177.859, 72 180.531 M 83.813 183.683 C 84.534 183.972, 85.397 183.936, 85.729 183.604 C 86.061 183.272, 85.471 183.036, 84.417 183.079 C 83.252 183.127, 83.015 183.364, 83.813 183.683 M 134.575 184.879 C 134.265 185.380, 134.684 186.048, 135.506 186.364 C 136.328 186.679, 137 186.528, 137 186.028 C 137 184.672, 135.223 183.830, 134.575 184.879 M 187.607 201.582 C 186.671 204.020, 186.888 207, 188 207 C 188.550 207, 189 205.425, 189 203.500 C 189 199.705, 188.560 199.099, 187.607 201.582 M 70 216.802 C 70 219.949, 70.337 220.808, 71.409 220.396 C 72.478 219.986, 72.606 219.115, 71.940 216.792 C 70.622 212.195, 70 212.198, 70 216.802 M 187.842 220.128 C 187.756 221.982, 187.771 224.175, 187.877 225 C 187.982 225.825, 188.247 229.256, 188.466 232.625 C 188.781 237.480, 189.396 239.325, 191.432 241.521 C 193.797 244.073, 194 244.129, 194 242.229 C 194 241.095, 193.559 240.017, 193.019 239.833 C 192.480 239.650, 191.737 234.886, 191.369 229.248 C 190.933 222.573, 190.228 218.604, 189.350 217.875 C 188.266 216.976, 187.969 217.419, 187.842 220.128 M 144.232 233 C 144.232 234.925, 144.438 235.713, 144.689 234.750 C 144.941 233.787, 144.941 232.213, 144.689 231.250 C 144.438 230.287, 144.232 231.075, 144.232 233 M 101.828 266.505 C 101.432 266.901, 94.608 267.661, 88.750 267.962 C 88.338 267.983, 88 268.727, 88 269.617 C 88 270.849, 88.535 271.055, 90.250 270.483 C 92.555 269.715, 97.073 269.201, 102.643 269.072 C 106.383 268.986, 108.319 266, 104.635 266 C 103.369 266, 102.106 266.227, 101.828 266.505" stroke="none" fill="black" fill-rule="evenodd"/>
</svg>