<svg xmlns="http://www.w3.org/2000/svg" width="300" height="300" viewBox="0 0 300 300" version="1.1">
	<path d="M 206.824 33.078 C 206.062 33.505, 191.727 34.123, 174.969 34.453 C 158.211 34.782, 143.375 35.085, 142 35.127 C 140.625 35.169, 129.265 35.006, 116.757 34.766 C 95.633 34.359, 93.895 34.459, 92.350 36.166 C 90.797 37.882, 90.810 38.233, 92.560 41.482 C 95.162 46.313, 98.297 47.537, 107.598 47.352 C 111.944 47.265, 135.300 47.093, 159.500 46.969 C 183.700 46.845, 205.525 46.340, 208 45.847 C 210.475 45.354, 214.892 44.797, 217.815 44.610 C 220.738 44.423, 223.608 43.792, 224.191 43.209 C 225.374 42.026, 225.839 34.506, 224.794 33.461 C 223.823 32.490, 208.461 32.163, 206.824 33.078 M 74.750 39.661 C 73.237 40.457, 72 41.952, 72 42.983 C 72 44.014, 71.403 45.454, 70.674 46.183 C 68.498 48.359, 67.858 53.637, 69.595 55.079 C 70.833 56.106, 71.064 58.875, 70.875 70.416 C 70.748 78.162, 71.183 97.325, 71.841 113 C 72.499 128.675, 73.287 149.375, 73.592 159 C 73.897 168.625, 74.564 176.650, 75.073 176.833 C 75.595 177.021, 76 184.905, 76 194.860 C 76 204.591, 76.473 216.328, 77.052 220.942 C 77.969 228.255, 78.468 234.180, 78.889 242.759 C 79.064 246.313, 84.165 251, 87.858 251 C 89.719 251, 91 250.486, 91 249.740 C 91 249.047, 92.180 247.207, 93.622 245.652 C 95.868 243.230, 96.076 242.511, 95.074 240.638 C 94.430 239.435, 92.659 237.615, 91.137 236.592 C 88.418 234.765, 88.349 234.463, 87.117 219.116 C 85.006 192.795, 84.101 172.816, 83.578 141 C 83.050 108.928, 81.870 91.454, 79.390 79 C 77.311 68.559, 77.618 56.172, 80.076 51.351 C 82.406 46.782, 82.524 43.193, 80.443 40.223 C 78.675 37.697, 78.509 37.681, 74.750 39.661 M 124 40.933 C 124 42.008, 127.890 43.443, 128.675 42.658 C 128.964 42.369, 128.904 41.653, 128.541 41.067 C 127.731 39.755, 124 39.645, 124 40.933 M 161 40.474 C 161 40.735, 162.238 41.564, 163.750 42.315 C 166.723 43.793, 171.101 43.196, 171.759 41.222 C 172.048 40.357, 170.538 40, 166.583 40 C 163.512 40, 161 40.213, 161 40.474 M 114.716 61.926 C 112.692 63.976, 110.523 75.379, 111.569 78.474 C 111.945 79.588, 112.595 87.250, 113.012 95.500 C 114.534 125.563, 116.720 140.606, 120.568 147.500 C 121.182 148.600, 122.277 151.412, 123.002 153.750 C 123.727 156.088, 124.698 158, 125.160 158 C 126.665 158, 126.044 162.037, 124.250 163.915 C 123.287 164.922, 121.066 166.475, 119.313 167.366 C 115.732 169.186, 115.530 169.438, 114.637 173.178 C 113.400 178.363, 119.212 180.702, 125.364 177.494 C 126.940 176.672, 129.977 176, 132.114 176 C 134.251 176, 136 175.621, 136 175.158 C 136 173.372, 144.198 172, 154.866 172 C 165.943 172, 166 172.012, 166 174.393 C 166 175.709, 166.652 180.097, 167.450 184.143 C 168.247 188.189, 169.362 202.350, 169.928 215.612 C 170.494 228.873, 171.238 240.456, 171.581 241.351 C 171.925 242.246, 174.022 243.467, 176.241 244.065 C 182.142 245.654, 183.328 244.141, 181.964 236.761 C 181.388 233.649, 180.767 223.542, 180.583 214.301 C 180.399 205.061, 179.902 193.142, 179.478 187.815 L 178.707 178.131 181.600 175.065 C 184.394 172.105, 184.790 172, 193.121 172 C 198.234 172, 203.481 171.389, 206 170.500 C 208.338 169.675, 212.009 169, 214.158 169 C 222.266 169, 227.952 164.633, 226.119 159.813 C 225.634 158.538, 225.171 152.321, 225.090 145.997 C 225.008 139.674, 224.517 131.125, 223.999 127 C 223.481 122.875, 222.578 115.675, 221.993 111 C 221.408 106.325, 220.495 101.719, 219.965 100.764 C 219.434 99.809, 219 98.197, 219 97.182 C 219 94.060, 214.819 81.657, 212.786 78.750 C 210.877 76.020, 206 74.819, 206 77.079 C 206 77.794, 202.373 78.106, 195.250 78.002 C 189.338 77.916, 182.588 78.164, 180.250 78.554 C 176.151 79.238, 176 79.170, 176 76.643 C 176 73.459, 173.235 70, 170.691 70 C 169.537 70, 168.394 71.144, 167.694 73 C 167.071 74.650, 166.040 76, 165.403 76 C 164.766 76, 163.685 76.675, 163 77.500 C 162.261 78.391, 160.076 79, 157.621 79 C 155.347 79, 151.915 79.489, 149.993 80.086 C 148.072 80.684, 142.042 81.108, 136.594 81.030 C 129.821 80.932, 126.453 81.267, 125.945 82.089 C 125.536 82.750, 124.481 83.015, 123.601 82.677 C 122.291 82.174, 122 80.361, 122 72.686 C 122 64.873, 121.695 63.034, 120.171 61.655 C 117.896 59.596, 116.971 59.642, 114.716 61.926 M 180.311 89.999 C 177.458 90.299, 174.758 90.914, 174.311 91.365 C 173.865 91.817, 173.606 98.053, 173.737 105.223 C 173.938 116.315, 174.236 118.464, 175.737 119.627 C 176.706 120.379, 178.400 120.715, 179.500 120.374 C 180.600 120.033, 187.800 119.471, 195.500 119.127 L 209.500 118.500 209.792 108.500 C 210.123 97.176, 209.828 95.502, 206.882 92.003 C 204.912 89.663, 204.175 89.505, 195.140 89.480 C 189.838 89.466, 183.165 89.699, 180.311 89.999 M 151.455 92.072 C 151.091 92.662, 148.927 93.036, 146.646 92.902 C 138.825 92.446, 134.141 93.002, 132.571 94.571 C 131.320 95.823, 131.003 98.523, 131.015 107.821 C 131.024 114.245, 131.426 120.124, 131.909 120.887 C 132.519 121.850, 133.660 122.054, 135.644 121.554 C 137.215 121.158, 140.300 120.944, 142.500 121.077 C 150.977 121.594, 160.510 120.821, 161.825 119.511 C 162.196 119.141, 162.778 114.262, 163.117 108.669 C 163.604 100.653, 163.404 97.706, 162.175 94.750 C 160.719 91.250, 160.332 91, 156.367 91 C 154.030 91, 151.820 91.482, 151.455 92.072 M 156.667 126.667 C 155.298 128.036, 156.078 128.708, 158.500 128.245 C 159.875 127.982, 161 127.369, 161 126.883 C 161 125.854, 157.647 125.687, 156.667 126.667 M 202.500 129.204 C 200.300 129.764, 194.900 130.433, 190.500 130.690 C 179.055 131.361, 178.254 132.451, 177.326 148.623 C 176.893 156.174, 177.032 156.931, 179.295 159.373 C 181.877 162.159, 183.985 162.614, 186.954 161.025 C 187.957 160.488, 194.115 159.794, 200.638 159.482 C 208.442 159.110, 212.953 158.465, 213.823 157.599 C 214.891 156.536, 214.939 154.370, 214.073 146.391 C 213.483 140.951, 212.887 134.700, 212.750 132.500 C 212.520 128.818, 212.261 128.487, 209.500 128.343 C 207.850 128.256, 204.700 128.644, 202.500 129.204 M 135.486 133.268 C 133.545 134.354, 133.554 140.385, 135.500 142 C 136.615 142.925, 137 145.395, 137 151.617 L 137 159.989 149.015 159.495 C 155.624 159.223, 162.204 159, 163.639 159 L 166.247 159 165.822 147.092 C 165.535 139.042, 164.955 134.651, 164.032 133.538 C 162.871 132.139, 160.742 131.934, 149.819 132.165 C 142.753 132.314, 136.303 132.810, 135.486 133.268 M 169 134.834 C 169 135.908, 169.624 137.025, 170.387 137.318 C 171.362 137.693, 171.623 137.275, 171.266 135.910 C 170.560 133.210, 169 132.469, 169 134.834 M 217.478 140.099 C 217.075 141.937, 217.246 143.646, 217.899 144.299 C 218.700 145.100, 219 144.257, 219 141.200 C 219 136.227, 218.421 135.807, 217.478 140.099 M 152.694 165.639 C 151.484 166.850, 153.124 168, 156.059 168 C 159.529 168, 159.968 166.493, 156.750 165.630 C 153.879 164.861, 153.471 164.862, 152.694 165.639 M 153.813 169.683 C 154.534 169.972, 155.397 169.936, 155.729 169.604 C 156.061 169.272, 155.471 169.036, 154.417 169.079 C 153.252 169.127, 153.015 169.364, 153.813 169.683 M 154.785 257.548 C 154.405 257.928, 148.561 258.608, 141.797 259.059 C 135.034 259.510, 124.550 260.784, 118.500 261.889 C 102.254 264.857, 91.615 266, 80.233 266 C 71.094 266, 69.963 265.799, 69 264 C 67.804 261.765, 64.536 261.332, 63.336 263.250 C 62.905 263.938, 62.697 267.356, 62.873 270.846 C 63.108 275.530, 63.708 277.708, 65.163 279.163 C 67.463 281.463, 68.338 281.535, 77 280.137 C 96.037 277.063, 104.285 276.092, 111.750 276.048 C 116.287 276.022, 120 275.606, 120 275.125 C 120 271.498, 178.653 269.010, 199 271.775 C 204.775 272.559, 212.331 273.272, 215.791 273.358 C 219.707 273.456, 222.384 274.003, 222.881 274.808 C 223.897 276.451, 256.277 276.668, 256.822 275.035 C 257.011 274.466, 259.128 274, 261.524 274 C 263.921 274, 266.160 273.550, 266.500 273 C 266.840 272.450, 269.932 272, 273.372 272 C 278.919 272, 279.930 271.683, 282.313 269.195 C 286.465 264.861, 285.867 263.322, 279.514 262.003 C 276.497 261.377, 273.631 261.110, 273.144 261.411 C 272.657 261.712, 269.664 261.282, 266.493 260.456 C 261.305 259.105, 260.114 259.115, 254.613 260.556 C 251.251 261.437, 244.675 262.356, 240 262.598 C 235.325 262.840, 231.050 263.074, 230.500 263.119 C 229.950 263.163, 226.350 262.635, 222.500 261.946 C 218.650 261.256, 212.350 260.623, 208.500 260.539 C 204.650 260.455, 200.445 259.811, 199.155 259.108 C 197.097 257.985, 176.131 257.352, 163.500 258.032 C 161.850 258.121, 159.370 257.893, 157.988 257.526 C 156.606 257.158, 155.165 257.168, 154.785 257.548 M 171.607 263.160 C 169.904 264.149, 170.105 264.396, 173.607 265.615 C 175.748 266.360, 177.564 266.977, 177.643 266.985 C 177.722 266.993, 178.074 266.248, 178.427 265.330 C 179.557 262.386, 175.282 261.026, 171.607 263.160 M 164.250 263.662 C 162.509 264.365, 162.684 266, 164.500 266 C 165.325 266, 166 265.325, 166 264.500 C 166 263.675, 165.887 263.036, 165.750 263.079 C 165.613 263.122, 164.938 263.385, 164.250 263.662 M 142.250 264.718 C 140.579 265.318, 140.665 266.657, 142.417 267.330 C 143.197 267.629, 144.077 267.242, 144.374 266.469 C 144.996 264.847, 144.055 264.071, 142.250 264.718 M 188.750 265.662 C 189.438 265.940, 190.563 265.940, 191.250 265.662 C 191.938 265.385, 191.375 265.158, 190 265.158 C 188.625 265.158, 188.063 265.385, 188.750 265.662 M 203.813 268.683 C 204.534 268.972, 205.397 268.936, 205.729 268.604 C 206.061 268.272, 205.471 268.036, 204.417 268.079 C 203.252 268.127, 203.015 268.364, 203.813 268.683" stroke="none" fill="black" fill-rule="evenodd"/>
</svg>