<svg xmlns="http://www.w3.org/2000/svg" width="300" height="300" viewBox="0 0 300 300" version="1.1">
	<path d="M 150.566 15.407 C 151.415 18.789, 149.491 21.811, 146.250 22.184 C 143.793 22.466, 143.232 23.299, 140.982 30 C 137.730 39.690, 136.314 43.385, 133.511 49.500 C 132.251 52.250, 130.296 56.525, 129.168 59 C 126.263 65.376, 125.608 68.640, 127.056 69.535 C 128.523 70.441, 131.946 66.340, 131.978 63.636 C 131.990 62.611, 132.959 59.911, 134.131 57.636 C 135.303 55.361, 136.829 52.375, 137.522 51 C 138.216 49.625, 139.775 44.900, 140.989 40.500 C 142.202 36.100, 143.600 32.073, 144.097 31.550 C 144.594 31.028, 145 29.620, 145 28.422 C 145 25.553, 147.664 23.444, 150.775 23.852 C 153.640 24.227, 154.963 22.650, 154.985 18.832 C 155.007 14.863, 154.014 13, 151.874 13 C 150.354 13, 150.086 13.493, 150.566 15.407 M 172.636 31.072 C 171.691 35.795, 171.863 38.788, 173.102 39.201 C 173.708 39.403, 174.624 43.828, 175.139 49.034 C 175.653 54.240, 176.714 61.200, 177.496 64.500 C 178.278 67.800, 179.174 72.142, 179.486 74.150 C 180.203 78.766, 182.207 80.660, 184.039 78.453 C 185.122 77.148, 184.984 75.403, 183.227 68.190 C 179.916 54.600, 179.713 53.241, 179.088 40.500 L 178.500 28.500 175.886 28.197 C 173.655 27.938, 173.178 28.360, 172.636 31.072 M 168.554 49.913 C 168.243 50.415, 166.188 51.130, 163.986 51.502 C 158.765 52.384, 150.496 55.429, 147.151 57.700 C 145.693 58.690, 142.490 60.175, 140.034 61 C 136.267 62.265, 135.467 63.003, 134.917 65.716 C 134.559 67.486, 134.429 69.096, 134.628 69.294 C 135.249 69.916, 147.363 65.505, 150.202 63.624 C 151.688 62.639, 154.838 61.222, 157.202 60.475 C 170.793 56.180, 174.029 54.124, 172.691 50.636 C 172.013 48.871, 169.472 48.427, 168.554 49.913 M 172.236 78.164 C 171.674 78.726, 171.442 80.879, 171.720 82.950 C 171.998 85.021, 171.499 89.905, 170.613 93.805 C 168.574 102.767, 168.587 104.035, 170.685 101.039 C 172.420 98.562, 175.900 87.813, 176.687 82.500 C 177.184 79.143, 174.182 76.218, 172.236 78.164 M 167.190 87.750 C 166.706 88.713, 165.512 92.425, 164.538 96 C 163.563 99.575, 161.481 105.050, 159.910 108.167 C 156.381 115.172, 153.001 123.957, 153.001 126.128 C 153 128.914, 150.470 130.311, 148.103 128.832 C 144.804 126.772, 143.363 129.017, 145.385 133.069 C 147.376 137.061, 147.408 138, 145.551 138 C 144.027 138, 139.137 128.585, 136.062 119.729 C 135.064 116.853, 133.014 111.912, 131.506 108.750 C 129.288 104.094, 128.306 103, 126.352 103 C 125.024 103, 123.652 103.744, 123.302 104.654 C 122.266 107.356, 124.841 114.995, 127.779 117.933 C 130.480 120.634, 136 130.780, 136 133.043 C 136 133.686, 137.350 135.917, 139 138 C 140.650 140.083, 142 142.215, 142 142.736 C 142 143.650, 114.103 171.700, 109 175.917 C 103.700 180.296, 98.698 184, 98.083 184 C 97.730 184, 94.181 187.096, 90.196 190.881 C 86.211 194.665, 81.162 199.002, 78.976 200.517 C 74.775 203.428, 73.553 207.507, 76.538 208.653 C 79.525 209.799, 86.795 206.071, 89.155 202.183 C 90.385 200.157, 91.983 198.137, 92.707 197.694 C 93.431 197.250, 95.031 195.879, 96.262 194.647 C 97.493 193.414, 101.891 189.866, 106.035 186.762 C 110.179 183.657, 115.260 179.291, 117.325 177.059 C 119.391 174.826, 121.453 173, 121.908 173 C 122.362 173, 125.721 170.115, 129.371 166.588 C 134.315 161.812, 135.943 159.580, 135.754 157.838 C 135.540 155.868, 135.923 155.528, 138.188 155.680 C 140.266 155.819, 142.536 154.289, 148.188 148.939 C 152.210 145.133, 155.555 142.014, 155.623 142.009 C 155.804 141.996, 164.886 145.891, 169.500 147.961 C 174.662 150.277, 182 151.544, 182 150.119 C 182 149.538, 182.686 149.326, 183.526 149.648 C 184.742 150.115, 184.806 150.529, 183.840 151.693 C 182.880 152.850, 182.926 153.341, 184.064 154.061 C 186.017 155.296, 190.272 155.249, 189.500 154 C 189.160 153.450, 188.234 153, 187.441 153 C 186.648 153, 186 152.578, 186 152.063 C 186 150.937, 192.681 151.840, 195.500 153.348 C 197.364 154.344, 197.296 154.463, 194.500 155.090 L 191.500 155.763 194.816 155.882 C 196.639 155.947, 199.068 156.501, 200.212 157.113 C 202.077 158.112, 202.232 157.996, 201.711 156.001 C 201.194 154.026, 201.431 153.837, 203.814 154.317 C 205.291 154.615, 208.525 155.759, 211 156.859 C 214.512 158.420, 214.979 158.874, 213.128 158.929 C 211.135 158.989, 210.954 159.240, 212 160.500 C 212.685 161.325, 214.363 162, 215.729 162 C 217.527 162, 218.055 161.585, 217.638 160.500 C 217.322 159.675, 217.510 159, 218.056 159 C 218.602 159, 219.463 160.086, 219.967 161.414 C 220.943 163.981, 221.977 164.461, 228.832 165.529 C 231.214 165.900, 234.364 166.830, 235.832 167.596 C 239.223 169.365, 241.448 169.370, 242.907 167.612 C 244.946 165.155, 239.920 160.398, 234.499 159.655 C 231.992 159.311, 227.817 158.175, 225.220 157.129 C 217.777 154.132, 202.796 149.973, 199.492 149.987 C 196.693 149.999, 183.036 145.651, 178.500 143.305 C 172.172 140.031, 164.275 136.570, 162.828 136.436 C 160.745 136.242, 155.130 131.885, 155.055 130.405 C 155.025 129.803, 155.900 128.495, 157 127.500 C 158.269 126.351, 159 124.420, 159 122.213 C 159 120.301, 159.877 117.318, 160.948 115.584 C 162.020 113.850, 164.067 108.727, 165.497 104.198 C 169.137 92.677, 170.275 81.618, 167.190 87.750 M 202.200 94.200 C 200.538 95.862, 200.698 99.841, 202.500 101.643 C 205.054 104.197, 204.186 105.769, 199.250 107.524 C 196.637 108.453, 190.450 111.148, 185.500 113.512 C 175.100 118.481, 168.316 121, 165.339 121 C 162.771 121, 160.575 123.450, 161.344 125.455 C 161.657 126.270, 161.482 127.202, 160.956 127.527 C 160.430 127.852, 160 128.775, 160 129.578 C 160 130.661, 160.710 130.871, 162.750 130.390 C 164.262 130.033, 165.928 129.350, 166.450 128.871 C 166.972 128.392, 168.350 128, 169.510 128 C 172.592 128, 183.506 123.525, 188.957 120.027 C 191.552 118.362, 194.086 116.990, 194.588 116.978 C 195.089 116.966, 196.625 116.076, 198 115 C 199.375 113.924, 201.209 113.034, 202.076 113.022 C 204.963 112.981, 208.253 117.710, 209.110 123.134 C 210.098 129.381, 210.983 130.466, 213.554 128.580 C 215.477 127.169, 215.473 127.052, 213.246 118.826 C 212.006 114.247, 209.981 106.565, 208.746 101.755 C 206.477 92.922, 205.085 91.315, 202.200 94.200 M 95.333 97.574 C 95.001 98.440, 95.303 100.888, 96.004 103.013 C 96.722 105.188, 97.013 108.544, 96.670 110.689 C 96.335 112.785, 95.934 115.352, 95.780 116.392 C 95.220 120.177, 97.883 119.139, 98.545 115.314 C 98.909 113.216, 99.875 109.106, 100.694 106.181 C 102.595 99.385, 101.849 96, 98.450 96 C 97.068 96, 95.665 96.708, 95.333 97.574 M 92.191 107.871 C 91.471 108.322, 90.039 111.798, 89.010 115.595 C 87.980 119.393, 85.934 126.550, 84.464 131.500 C 80.670 144.278, 80.427 146, 82.418 146 C 83.323 146, 84.322 145.325, 84.638 144.500 C 85.484 142.297, 88 142.672, 88 145 C 88 147.555, 88.628 147.501, 93.500 144.521 C 95.700 143.176, 98.616 141.580, 99.980 140.975 C 101.343 140.370, 102.693 139.564, 102.980 139.185 C 103.266 138.805, 106.200 136.471, 109.500 133.997 C 112.800 131.524, 116.105 128.927, 116.845 128.227 C 117.584 127.526, 119.484 126.284, 121.065 125.466 C 122.647 124.648, 124.402 123.117, 124.967 122.062 C 126.022 120.091, 125.416 117, 123.975 117 C 122.267 117, 112.555 122.381, 109.751 124.881 C 104.874 129.228, 94.608 135.987, 92.872 135.994 C 91.977 135.997, 90.557 137.012, 89.717 138.250 C 88.527 140.004, 87.918 140.237, 86.954 139.308 C 85.973 138.364, 86.081 137.349, 87.473 134.417 C 88.438 132.382, 89.463 128.868, 89.749 126.608 C 90.036 124.349, 90.590 122.050, 90.980 121.500 C 92.247 119.714, 94.187 111.351, 93.839 109.173 C 93.605 107.710, 93.094 107.306, 92.191 107.871 M 166.459 125.067 C 166.096 125.653, 166.040 126.373, 166.333 126.667 C 167.050 127.383, 169 126.121, 169 124.941 C 169 123.663, 167.274 123.748, 166.459 125.067 M 163 142 C 163 142.550, 163.477 143, 164.059 143 C 164.641 143, 164.840 142.550, 164.500 142 C 164.160 141.450, 163.684 141, 163.441 141 C 163.198 141, 163 141.450, 163 142 M 173 147.500 C 173 148.513, 174.014 149, 176.122 149 C 178.785 149, 179.061 148.779, 178 147.500 C 177.315 146.675, 175.910 146, 174.878 146 C 173.845 146, 173 146.675, 173 147.500 M 169.667 156.667 C 169.300 157.033, 169 158.833, 169 160.667 C 169 163.980, 167.448 165.029, 165.450 163.067 C 163.769 161.417, 159.309 166.475, 151.478 178.912 C 148.371 183.846, 128.010 204.569, 120.314 210.630 C 117.272 213.027, 115.212 217.916, 116.421 219.871 C 118.364 223.016, 132 214.687, 132 210.356 C 132 209.039, 133.004 207.388, 134.337 206.515 C 137.853 204.211, 154.237 185.341, 155.660 181.957 C 156.344 180.330, 157.269 179, 157.716 179 C 158.162 179, 159.592 176.760, 160.892 174.021 C 163.102 169.366, 168.490 164, 170.955 164 C 172.475 164, 174.388 159.453, 173.663 157.564 C 173.049 155.964, 170.861 155.472, 169.667 156.667 M 169.574 185.192 C 169.350 185.911, 168.919 187.646, 168.615 189.048 C 168.306 190.477, 163.512 196.182, 157.692 202.048 C 151.988 207.796, 144.774 215.875, 141.662 220 C 138.549 224.125, 133.752 229.839, 131.001 232.699 C 127.150 236.702, 126 238.624, 126 241.060 C 126 244.165, 126.068 244.211, 129.750 243.561 C 133.673 242.870, 137.986 238.843, 137.995 235.863 C 138 234.383, 140.619 231.110, 149.500 221.486 C 151.150 219.698, 155.200 215.221, 158.500 211.537 C 161.800 207.852, 166.975 202.287, 170 199.169 C 178.940 189.954, 180.413 187.879, 179.287 186.082 C 178.016 184.052, 170.154 183.331, 169.574 185.192 M 197.984 193.292 C 194.749 196.244, 189.932 202.129, 187.500 206.102 C 185.503 209.364, 182.594 213.544, 180.960 215.500 C 180.040 216.600, 178.441 219.075, 177.406 221 C 175.513 224.518, 169.608 232.636, 167.585 234.500 C 166.988 235.050, 164.925 237.666, 163 240.312 C 161.075 242.959, 158.488 246.399, 157.250 247.957 C 156.012 249.514, 155 251.208, 155 251.720 C 155 252.232, 153.832 253.742, 152.405 255.076 C 150.977 256.409, 148.639 259.525, 147.208 262 C 145.778 264.475, 143.571 267.491, 142.304 268.702 C 140.641 270.292, 140 272.031, 140 274.952 C 140 281.242, 141.427 280.512, 149.095 270.304 C 157.133 259.601, 158.174 258.043, 160.787 252.800 C 162.102 250.160, 163.701 247.981, 164.339 247.958 C 165.463 247.917, 170.307 241.724, 175.646 233.500 C 177.075 231.300, 178.864 229.140, 179.622 228.700 C 180.380 228.260, 181 227.101, 181 226.125 C 181 225.148, 182.125 223.292, 183.500 222 C 184.875 220.708, 186 219.163, 186 218.566 C 186 217.969, 186.900 216.919, 188 216.232 C 189.100 215.545, 190 214.282, 190 213.424 C 190 211.446, 194.995 205.201, 201.750 198.732 C 207.521 193.207, 208.138 191.538, 204.750 190.630 C 201.664 189.803, 201.915 189.705, 197.984 193.292" stroke="none" fill="black" fill-rule="evenodd"/>
</svg>