<svg xmlns="http://www.w3.org/2000/svg" width="300" height="300" viewBox="0 0 300 300" version="1.1">
	<path d="M 171.300 27.324 C 170.860 28.052, 169.097 29.668, 167.382 30.914 C 165.667 32.161, 163.278 35.155, 162.073 37.568 C 160.868 39.981, 159.459 42.216, 158.941 42.536 C 158.424 42.856, 158 43.786, 158 44.602 C 158 45.418, 156.313 48.431, 154.250 51.298 C 152.188 54.165, 149.635 58.083, 148.577 60.005 C 147.519 61.927, 145.606 64.491, 144.327 65.702 C 143.047 66.913, 142 68.175, 142 68.505 C 142 69.478, 131.057 84.103, 126.601 89.085 C 124.345 91.607, 120.250 96.287, 117.500 99.484 C 114.750 102.682, 111.713 106.200, 110.750 107.302 C 109.787 108.404, 109 109.912, 109 110.653 C 109 111.394, 108.611 112, 108.136 112 C 107.660 112, 105.748 113.343, 103.886 114.984 C 99.809 118.577, 99.393 118.631, 97.920 115.750 C 97.287 114.513, 94.700 111.362, 92.172 108.750 L 87.575 104 78.038 104.073 C 64.046 104.180, 52.023 106.554, 42.010 111.186 C 39.529 112.333, 36.487 113.737, 35.250 114.305 C 34.013 114.873, 33 115.937, 33 116.669 C 33 118.180, 30.201 118.413, 28.092 117.078 C 27.242 116.540, 25.762 116.607, 24.359 117.246 C 21.283 118.648, 20.474 123.329, 22.323 129.016 C 23.155 131.574, 24.045 139.730, 24.394 148 C 24.731 155.975, 25.495 165.425, 26.091 169 C 26.686 172.575, 27.247 179.775, 27.337 185 C 27.537 196.641, 27.456 196.605, 42.180 191.642 C 47.856 189.729, 54.300 187.870, 56.500 187.510 C 58.700 187.150, 61.400 186.490, 62.500 186.044 C 63.600 185.597, 68.030 184.776, 72.345 184.221 C 76.660 183.665, 80.648 182.752, 81.208 182.192 C 83.188 180.212, 80.809 179, 74.941 179 C 69.741 179, 69 178.760, 69 177.072 C 69 175.788, 71.002 173.928, 75 171.500 C 78.300 169.495, 81.001 167.550, 81.002 167.178 C 81.003 166.805, 83.253 164.967, 86.002 163.093 C 88.751 161.220, 91.012 159.195, 91.028 158.593 C 91.043 157.992, 92.316 156.265, 93.856 154.755 C 95.396 153.245, 97.236 150.770, 97.945 149.255 C 98.654 147.740, 99.712 145.600, 100.297 144.500 C 100.883 143.400, 101.552 138.675, 101.786 134 C 102.261 124.475, 101.012 126.331, 115.437 113.699 C 123.476 106.660, 126 103.954, 126 102.377 C 126 100.473, 130.416 97.839, 132.359 98.584 C 133.778 99.129, 134.019 101.395, 134.139 115.357 C 134.476 154.703, 133.779 190.524, 132.649 191.906 C 130.980 193.946, 131.226 253.044, 132.926 258.500 C 135.645 267.224, 137.913 270.946, 140.534 270.985 C 141.221 270.995, 141.657 259.855, 141.831 237.846 C 141.976 219.611, 142.464 203.974, 142.916 203.096 C 144.315 200.377, 145.922 180.246, 146.037 164 C 146.159 146.546, 146.059 137.736, 145.389 107.093 C 144.861 82.939, 144.788 83.280, 152.474 74 C 154.979 70.975, 158.710 66.022, 160.764 62.993 C 162.819 59.965, 165.512 56.477, 166.750 55.243 C 167.988 54.009, 169 52.345, 169 51.544 C 169 50.744, 170.800 47.519, 173 44.379 C 175.344 41.032, 177 37.515, 177 35.881 C 177 34.348, 177.537 31.916, 178.193 30.475 C 179.166 28.340, 179.120 27.688, 177.943 26.944 C 175.818 25.599, 172.217 25.805, 171.300 27.324 M 195.689 52.114 C 194.693 52.693, 193.174 52.897, 192.312 52.566 C 188.573 51.131, 188.309 53.951, 188.161 96.902 C 188.059 126.328, 187.666 139.524, 186.816 142 C 185.816 144.916, 185.258 154.110, 183.968 189 C 183.917 190.375, 183.981 201.175, 184.110 213 C 184.265 227.211, 183.925 236.443, 183.105 240.232 C 182.002 245.331, 182.063 246.297, 183.649 248.983 C 186.029 253.011, 188.348 253.566, 192.383 251.072 C 194.619 249.690, 197.423 249, 200.798 249 C 205.287 249, 205.897 248.745, 206.180 246.750 C 206.450 244.855, 207.149 244.483, 210.618 244.391 C 212.882 244.331, 215.355 243.898, 216.113 243.430 C 216.871 242.962, 219.293 242.467, 221.495 242.330 C 223.698 242.194, 228.836 241.819, 232.914 241.498 C 238.285 241.075, 241.349 241.323, 244.035 242.397 C 247.705 243.866, 252 243.588, 252 241.883 C 252 240.561, 255.419 240.819, 256.850 242.250 C 257.537 242.938, 259.990 243.558, 262.300 243.628 C 264.610 243.698, 268.896 244.070, 271.824 244.454 C 276.709 245.095, 277.193 244.977, 277.704 243.022 C 278.261 240.895, 278.263 240.895, 279.406 243.187 C 280.821 246.026, 283.526 246.678, 284.403 244.392 C 285.255 242.171, 283.236 201.253, 281.896 193.611 C 281.328 190.371, 280.332 187.124, 279.682 186.395 C 279.032 185.666, 277.899 184.356, 277.163 183.484 C 276.190 182.330, 275.478 182.189, 274.544 182.964 C 273.562 183.779, 273.254 190.071, 273.231 209.764 C 273.215 223.919, 273.156 236.201, 273.101 237.058 C 273.015 238.382, 271.610 238.552, 263.750 238.192 C 258.663 237.959, 254.050 237.413, 253.500 236.979 C 252.452 236.151, 226.043 236.397, 220 237.291 C 218.075 237.575, 212.576 238.142, 207.779 238.551 C 196.471 239.513, 195.944 239.106, 196.231 229.634 C 196.350 225.710, 196.313 209, 196.148 192.500 C 195.962 173.758, 196.233 161.497, 196.871 159.828 C 197.432 158.358, 197.956 152.733, 198.035 147.328 C 198.198 136.140, 199.799 121.317, 201.115 118.814 C 201.603 117.887, 203.576 116.560, 205.501 115.864 C 207.425 115.168, 209 114.293, 209 113.920 C 209 112.797, 214.160 111.163, 220 110.436 C 223.025 110.060, 226.388 109.132, 227.473 108.376 C 228.557 107.619, 230.263 107, 231.263 107 C 232.264 107, 235.651 105.684, 238.791 104.075 C 241.931 102.466, 246.148 100.481, 248.162 99.663 C 250.177 98.845, 252.659 97.348, 253.679 96.338 C 254.699 95.327, 256.763 93.702, 258.267 92.727 C 261.498 90.631, 261.773 88.484, 259 87 C 257.900 86.411, 257 86.309, 257 86.772 C 257 87.236, 255.088 88.414, 252.750 89.391 C 245.738 92.322, 241.520 94.456, 241.167 95.250 C 240.983 95.662, 240.392 96, 239.853 96 C 239.313 96, 236.313 97.185, 233.186 98.633 C 226.138 101.898, 222.294 102.971, 214 103.989 C 210.425 104.428, 206.015 105.338, 204.199 106.009 C 202.383 106.681, 200.661 106.994, 200.370 106.704 C 200.080 106.414, 199.608 96.003, 199.320 83.570 C 198.875 64.325, 199.036 60.368, 200.399 56.961 C 201.279 54.760, 202 52.519, 202 51.980 C 202 50.692, 197.988 50.777, 195.689 52.114 M 70.504 110.582 C 69.001 111.362, 65.960 112, 63.746 112 C 61.024 112, 58.143 112.971, 54.846 115 C 52.164 116.650, 49.365 118, 48.625 118 C 47.885 118, 45.621 119.125, 43.595 120.500 C 39.150 123.517, 36.314 123.669, 34.011 121.013 C 32.349 119.096, 32.269 119.264, 31.744 125.763 C 31.444 129.468, 31.603 134.750, 32.095 137.500 C 34.470 150.755, 34.934 155.448, 35.058 167.500 C 35.131 174.650, 35.643 181.050, 36.195 181.722 C 36.980 182.678, 37.964 182.624, 40.721 181.472 C 42.659 180.662, 45.523 180, 47.085 180 C 51.152 180, 59.646 176.430, 65.092 172.433 C 67.664 170.545, 70.093 169, 70.490 169 C 71.258 169, 78.441 163.518, 80.982 160.992 C 83.788 158.203, 89 149.343, 89 147.362 C 89 146.283, 89.486 144.914, 90.079 144.321 C 90.709 143.691, 91.219 138.394, 91.305 131.588 L 91.451 119.935 88.559 117.629 C 86.623 116.085, 86.053 115.085, 86.834 114.603 C 88.690 113.455, 88.187 112, 85.934 112 C 84.798 112, 83.111 111.613, 82.184 111.139 C 78.820 109.420, 73.256 109.154, 70.504 110.582 M 47 115 C 45.718 115.828, 45.754 115.972, 47.250 115.985 C 48.212 115.993, 49 115.550, 49 115 C 49 113.780, 48.887 113.780, 47 115 M 193 118 C 193 119.867, 193.267 120.133, 194.200 119.200 C 195.133 118.267, 195.133 117.733, 194.200 116.800 C 193.267 115.867, 193 116.133, 193 118 M 139 125.286 C 139 128.047, 140.332 128.890, 141.559 126.904 C 141.932 126.301, 141.508 125.080, 140.618 124.190 C 139.127 122.699, 139 122.785, 139 125.286 M 191.648 245.474 C 191.195 246.655, 191.790 246.982, 194.281 246.921 C 196.052 246.878, 196.825 246.592, 196 246.287 C 195.175 245.981, 193.990 245.330, 193.367 244.840 C 192.646 244.273, 192.021 244.504, 191.648 245.474 M 199.667 244.667 C 198.516 245.817, 198.938 247, 200.500 247 C 201.325 247, 202 246.325, 202 245.500 C 202 243.938, 200.817 243.516, 199.667 244.667" stroke="none" fill="black" fill-rule="evenodd"/>
</svg>