<svg xmlns="http://www.w3.org/2000/svg" width="300" height="300" viewBox="0 0 300 300" version="1.1">
	<path d="M 196.606 13.829 C 196.286 14.346, 194.107 15.059, 191.762 15.413 C 186.696 16.177, 185.151 18.590, 184.343 27 C 183.821 32.424, 182.448 36.621, 179.269 42.500 C 178.377 44.150, 177.164 46.400, 176.574 47.500 C 175.983 48.600, 175.247 49.725, 174.938 50 C 172.803 51.900, 151 83.856, 151 85.085 C 151 85.588, 150.565 86, 150.032 86 C 149.500 86, 147.199 88.813, 144.919 92.250 C 140.847 98.390, 134.177 107.043, 128.750 113.227 C 127.238 114.950, 126 116.954, 126 117.680 C 126 118.406, 125.598 119, 125.107 119 C 123.246 119, 123.127 121.998, 124.949 122.973 C 126.540 123.824, 127.202 123.331, 129.325 119.709 C 131.579 115.863, 138.571 106.768, 143.316 101.512 C 144.315 100.405, 146.039 98.037, 147.148 96.250 C 148.256 94.463, 149.576 93, 150.082 93 C 150.587 93, 151 92.514, 151 91.920 C 151 90.697, 163.080 72.680, 164.245 72.167 C 164.660 71.983, 165 71.373, 165 70.811 C 165 70.249, 166.012 68.543, 167.250 67.020 C 168.488 65.497, 170.351 63.070, 171.390 61.626 C 172.430 60.182, 173.780 58.995, 174.390 58.990 C 175.001 58.984, 176.272 57.297, 177.217 55.240 C 178.161 53.183, 179.511 50.643, 180.217 49.595 C 184.660 43.001, 188 37.409, 188 36.562 C 188 36.022, 189.463 32.636, 191.250 29.040 C 193.037 25.443, 194.552 22.373, 194.615 22.219 C 194.678 22.064, 195.770 21.737, 197.041 21.492 C 200.315 20.862, 201.204 19.661, 200.828 16.380 C 200.504 13.551, 197.790 11.912, 196.606 13.829 M 204.650 21.758 C 203.588 23.476, 202.858 29.976, 203.499 31.998 C 204.038 33.697, 204.712 34.038, 206.594 33.566 C 209.161 32.921, 209.723 33.877, 207.867 35.733 C 206.687 36.913, 206.623 36.801, 213.500 45.576 C 219.409 53.115, 225.193 58.305, 226.083 56.865 C 226.741 55.801, 227.285 55.934, 228.734 57.513 C 229.737 58.606, 230.414 60.209, 230.239 61.075 C 229.814 63.179, 243.916 76.414, 249 78.682 C 249.825 79.050, 251.491 80.397, 252.702 81.675 C 253.913 82.954, 255.263 84.004, 255.702 84.008 C 256.141 84.013, 258.898 86.263, 261.828 89.008 C 264.759 91.754, 267.516 94, 267.956 94 C 269.701 94, 271.120 90.959, 270.818 87.864 C 270.564 85.257, 269.388 83.736, 265 80.339 C 261.975 77.997, 258.986 76.063, 258.357 76.041 C 257.728 76.018, 256.992 75.422, 256.721 74.715 C 256.450 74.008, 254.264 72.122, 251.864 70.523 C 245.999 66.616, 221.832 42.130, 217.463 35.669 C 207.425 20.822, 206.110 19.395, 204.650 21.758 M 213.229 42.188 C 213.847 44.042, 216 44.349, 216 42.583 C 216 41.712, 215.287 41, 214.417 41 C 213.546 41, 213.011 41.534, 213.229 42.188 M 223.580 52.870 C 223.273 53.367, 223.692 54.329, 224.511 55.009 C 225.722 56.014, 226 55.953, 226 54.681 C 226 52.815, 224.369 51.594, 223.580 52.870 M 247.158 74 C 247.158 75.375, 247.385 75.938, 247.662 75.250 C 247.940 74.563, 247.940 73.438, 247.662 72.750 C 247.385 72.063, 247.158 72.625, 247.158 74 M 45.750 90.082 C 44.788 90.642, 44 91.572, 44 92.149 C 44 92.726, 43.275 94.725, 42.390 96.591 C 41.349 98.784, 40.978 101.314, 41.341 103.742 C 41.650 105.809, 42.121 109.975, 42.388 113 C 42.655 116.025, 43.368 121.875, 43.972 126 C 44.577 130.125, 45.482 139.051, 45.985 145.836 C 46.487 152.621, 47.422 158.804, 48.064 159.577 C 48.776 160.435, 48.965 162.249, 48.550 164.241 C 46.423 174.447, 47.422 182.372, 51.819 190.155 C 53.270 192.723, 53.191 192.927, 49.409 196.400 C 47.259 198.375, 45.163 199.993, 44.750 199.995 C 44.337 199.998, 44 200.642, 44 201.427 C 44 203.478, 49.623 205.988, 54.404 206.070 C 56.657 206.109, 59.400 206.497, 60.500 206.932 C 63.377 208.070, 65 207.146, 65 204.368 C 65 202.646, 65.791 201.655, 67.750 200.924 C 69.263 200.359, 71.217 198.968, 72.093 197.831 C 73.234 196.351, 74.297 195.959, 75.843 196.450 C 77.983 197.129, 78.919 200, 77 200 C 76.450 200, 76 201.125, 76 202.500 C 76 203.875, 75.550 205, 75 205 C 74.450 205, 74 205.450, 74 206 C 74 207.797, 76.222 207.053, 78.635 204.448 C 79.936 203.045, 81 201.508, 81 201.033 C 81 200.557, 82.912 198.702, 85.250 196.911 C 87.588 195.119, 90.015 193.036, 90.644 192.281 C 91.273 191.526, 93.523 190.634, 95.644 190.298 C 97.786 189.959, 100.487 188.638, 101.720 187.325 C 102.941 186.025, 105.274 184.695, 106.906 184.369 C 109.946 183.761, 111.725 181.325, 110.225 179.825 C 109.763 179.363, 106.591 180.338, 103.177 181.993 C 99.762 183.647, 95.662 185, 94.065 185 L 91.161 185 92.774 180.895 C 93.661 178.636, 94.974 176.563, 95.693 176.288 C 96.412 176.012, 97 175.263, 97 174.625 C 97 173.986, 98.774 170.096, 100.941 165.982 C 106.060 156.265, 109 149.988, 109 148.774 C 109 148.240, 109.638 146.384, 110.419 144.651 C 112.652 139.692, 114.677 122.302, 113.714 116.356 C 113.030 112.132, 112.136 110.521, 108.716 107.356 L 104.550 103.500 92.525 103.557 C 80.479 103.614, 70.014 104.840, 58.600 107.532 C 55.245 108.323, 51.955 108.977, 51.289 108.985 C 49.315 109.009, 47.830 101.786, 49.074 98.217 C 50.300 94.702, 49.982 89.796, 48.500 89.359 C 47.950 89.197, 46.712 89.522, 45.750 90.082 M 201.500 105.996 C 193.505 106.968, 184.193 108.975, 180.500 110.523 C 171.817 114.162, 154.052 118.712, 144.720 119.687 C 135.707 120.629, 131.849 124.739, 135.450 129.559 C 136.849 131.430, 137.013 131.437, 140.031 129.750 C 141.753 128.787, 144.311 128, 145.716 128 C 149.070 128, 161.359 125.776, 162 125.053 C 162.781 124.172, 169.449 122, 171.373 122 C 172.325 122, 174.768 121.149, 176.802 120.109 C 182.369 117.262, 197.921 113.904, 208.449 113.276 L 217.803 112.718 219.459 115.921 C 222.546 121.890, 227.334 118.453, 225.594 111.517 C 224.454 106.976, 213.705 104.513, 201.500 105.996 M 79.677 111.132 C 79.030 111.480, 74.569 112.082, 69.764 112.471 C 61.694 113.123, 60.837 113.405, 58.514 116.165 C 57.131 117.809, 56 119.569, 56 120.077 C 56 120.585, 55.363 121, 54.583 121 C 52.382 121, 52.204 122.529, 52.664 137.500 C 53.477 163.960, 54.935 182.251, 56.409 184.501 C 57.182 185.681, 57.979 187.739, 58.181 189.073 C 58.383 190.408, 59.015 191.415, 59.587 191.312 C 60.159 191.209, 65.548 190.573, 71.563 189.900 C 77.579 189.226, 83.001 188.294, 83.612 187.829 C 84.224 187.364, 85.839 184.850, 87.200 182.242 C 88.562 179.634, 92.224 172.655, 95.338 166.734 C 98.452 160.813, 101 155.301, 101 154.484 C 101 153.668, 101.365 153, 101.811 153 C 103.386 153, 106.134 137.379, 106.226 127.900 C 106.303 119.931, 105.994 117.856, 104.410 115.692 C 103.359 114.258, 101.825 112.773, 101 112.391 C 98.893 111.415, 81.104 110.366, 79.677 111.132 M 145.250 123.662 C 143.509 124.365, 143.684 126, 145.500 126 C 146.325 126, 147 125.325, 147 124.500 C 147 123.675, 146.887 123.036, 146.750 123.079 C 146.613 123.122, 145.938 123.385, 145.250 123.662 M 224.958 155.358 C 224.659 155.666, 221.165 156.093, 217.192 156.308 C 213.219 156.522, 209.655 157.011, 209.272 157.394 C 208.889 157.778, 209.152 159.014, 209.857 160.143 C 211.334 162.508, 210.785 163.515, 208.496 162.637 C 207.622 162.301, 207.040 161.245, 207.203 160.290 C 207.467 158.749, 206.656 158.587, 200 158.842 C 195.875 159.001, 186.068 160.451, 178.206 162.065 C 162.730 165.243, 158.978 165.578, 157.332 163.932 C 156.744 163.344, 154.523 163.007, 152.395 163.182 L 148.526 163.500 148.853 175.500 C 149.033 182.100, 149.590 187.650, 150.090 187.833 C 150.591 188.017, 151 189.678, 151 191.524 C 151 193.371, 151.450 195.160, 152 195.500 C 152.550 195.840, 153 198.116, 153 200.559 C 153 203.002, 152.550 205, 152 205 C 151.450 205, 151 207.025, 151 209.500 C 151 211.975, 150.550 214, 150 214 C 148.487 214, 148.726 226.723, 150.250 227.338 C 151.250 227.741, 151.250 227.858, 150.250 227.921 C 148.777 228.014, 148.532 233, 150 233 C 150.578 233, 151 236.183, 151 240.550 C 151 245.548, 151.547 249.156, 152.617 251.227 C 154.107 254.108, 154.107 254.448, 152.617 255.538 C 151.728 256.188, 151 257.233, 151 257.860 C 151 258.487, 150.550 259, 150 259 C 148.146 259, 149.044 261.486, 151.559 263.317 C 155.218 265.981, 159.883 266.402, 166.623 264.675 C 169.908 263.834, 175.499 262.852, 179.048 262.494 C 182.596 262.137, 186.850 261.254, 188.500 260.533 C 197.607 256.553, 199.476 256, 203.834 256 C 206.455 256, 209.118 255.482, 209.751 254.849 C 210.384 254.216, 212.837 253.355, 215.201 252.936 C 225.943 251.033, 227.550 250.624, 228.326 249.595 C 228.912 248.819, 229.300 248.864, 229.659 249.750 C 230.381 251.528, 231.760 251.302, 234.230 249 C 235.613 247.712, 237.759 247, 240.262 247 C 243.428 247, 244.082 246.676, 243.797 245.250 C 243.499 243.763, 242.247 243.494, 235.473 243.458 C 231.088 243.436, 227.137 243.323, 226.692 243.208 C 226.248 243.094, 226.998 240.863, 228.358 238.250 C 232.195 230.880, 233.844 225.980, 234.500 220 C 235.201 213.612, 236.693 206.376, 238.624 200 C 243.153 185.046, 244.622 175.130, 243.562 166.653 C 242.955 161.788, 242.464 160.901, 239.095 158.566 C 235.565 156.120, 226.264 154.009, 224.958 155.358 M 217.750 159.662 C 218.438 159.940, 219.563 159.940, 220.250 159.662 C 220.938 159.385, 220.375 159.158, 219 159.158 C 217.625 159.158, 217.063 159.385, 217.750 159.662 M 223.286 163.582 C 222.277 164.347, 218.888 164.969, 215.500 165.012 C 212.200 165.053, 207.475 165.537, 205 166.086 C 202.525 166.636, 196.450 167.548, 191.500 168.113 C 182.167 169.178, 177.742 170.085, 169.866 172.550 C 167.317 173.347, 164.617 174.032, 163.866 174.072 C 163.115 174.112, 161.239 175.663, 159.697 177.520 C 156.676 181.158, 156.844 179.244, 157.291 205 C 157.315 206.375, 156.971 213.836, 156.527 221.580 C 155.629 237.221, 156.789 245.427, 160.242 247.869 C 161.770 248.949, 162.044 249.951, 161.544 252.619 L 160.909 256 165.745 256 C 168.404 256, 173.171 255.325, 176.339 254.500 C 183.982 252.509, 188.126 252.509, 187.362 254.500 C 186.381 257.056, 188.612 256.148, 189.818 253.500 C 190.486 252.033, 191.793 251, 192.979 251 C 194.090 251, 195 250.550, 195 250 C 195 247.899, 198.866 249.024, 199.294 251.250 C 199.698 253.347, 199.737 253.358, 199.864 251.410 C 200.025 248.940, 204.638 247.224, 212.902 246.559 C 215.874 246.321, 218.703 245.534, 219.189 244.813 C 223.026 239.117, 227.513 226.216, 228.976 216.673 C 230.156 208.978, 232.710 197.278, 233.482 196.028 C 234.439 194.481, 234.136 165.736, 233.154 164.754 C 231.300 162.900, 225.148 162.169, 223.286 163.582" stroke="none" fill="black" fill-rule="evenodd"/>
</svg>