<svg xmlns="http://www.w3.org/2000/svg" width="300" height="300" viewBox="0 0 300 300" version="1.1">
	<path d="M 122.607 59.827 C 122.326 60.282, 119.262 61.498, 115.798 62.530 C 112.334 63.561, 108.772 65.214, 107.883 66.203 C 106.993 67.191, 105.586 68, 104.755 68 C 103.925 68, 102.685 68.675, 102 69.500 C 101.315 70.325, 100.135 71, 99.378 71 C 98.620 71, 98 71.450, 98 72 C 98 72.550, 97.311 73, 96.469 73 C 95.626 73, 94.694 73.634, 94.396 74.410 C 94.099 75.185, 92.813 76.081, 91.539 76.401 C 90.265 76.721, 87.836 78.561, 86.142 80.491 C 84.447 82.421, 82.597 84, 82.031 84 C 81.464 84, 80.999 84.338, 80.999 84.750 C 80.998 85.162, 79.873 86.807, 78.499 88.406 C 77.124 90.004, 76 91.916, 76 92.656 C 76 93.395, 75.391 94, 74.646 94 C 73.048 94, 68 98.470, 68 99.885 C 68 100.424, 67.156 101.133, 66.125 101.460 C 65.093 101.788, 62.641 103.618, 60.674 105.528 C 58.708 107.438, 56.791 109, 56.414 109 C 54.983 109, 51 114.188, 51 116.052 C 51 117.123, 50.325 118, 49.500 118 C 48.675 118, 48 118.619, 48 119.375 C 48 120.131, 47.719 122.156, 47.375 123.875 C 46.830 126.600, 47.025 127, 48.900 127 C 50.232 127, 51.387 126.112, 51.937 124.666 C 52.425 123.382, 55.408 120.119, 58.566 117.416 C 61.723 114.712, 66.337 110.588, 68.818 108.250 C 71.299 105.912, 73.705 104, 74.165 104 C 75.298 104, 79 100.227, 79 99.071 C 79 98.561, 79.776 97.367, 80.724 96.419 C 81.672 95.471, 82.497 93.551, 82.559 92.153 C 82.664 89.751, 85 87.611, 85 89.917 C 85 92.100, 87.981 90.924, 88.589 88.500 C 89.373 85.379, 91.487 85.288, 93.455 88.290 C 94.556 89.971, 95.012 93.964, 95.168 103.290 C 95.286 110.280, 95.714 116.538, 96.121 117.196 C 96.528 117.854, 96.422 119.212, 95.886 120.214 C 95.188 121.517, 95.350 122.661, 96.455 124.240 C 97.305 125.453, 98 125.895, 98 125.223 C 98 124.550, 98.675 124, 99.500 124 C 100.325 124, 101 124.450, 101 125 C 101 125.946, 98.952 126.419, 96.300 126.086 C 94.240 125.827, 92.449 133.703, 93.771 137.205 C 95.476 141.721, 93.813 142.702, 83.428 143.310 C 78.517 143.597, 72.082 144.302, 69.127 144.875 C 64.225 145.827, 45.845 146.406, 35.160 145.945 C 30.446 145.742, 26 147.549, 26 149.669 C 26 150.401, 25.325 151, 24.500 151 C 23.675 151, 23 151.848, 23 152.883 C 23 155.421, 26.930 156.374, 29.141 154.372 C 30.353 153.276, 31.355 153.099, 32.557 153.772 C 33.718 154.422, 33.897 154.946, 33.121 155.425 C 32.306 155.929, 32.390 156.533, 33.421 157.564 C 35.343 159.486, 58.612 159.664, 59.246 157.762 C 59.574 156.777, 60.216 156.777, 62.376 157.762 C 65.549 159.207, 69.644 159.385, 70.432 158.110 C 70.734 157.621, 72.448 156.971, 74.241 156.665 C 76.033 156.359, 80.313 155.603, 83.752 154.985 C 89.023 154.037, 90.239 154.096, 91.502 155.359 C 93.654 157.511, 93.355 159.736, 90.535 162.556 C 88.150 164.941, 88.022 168, 90.307 168 C 91.038 168, 91.003 168.397, 90.200 169.200 C 88.562 170.838, 88.688 173, 90.421 173 C 91.202 173, 92.146 174.387, 92.518 176.082 C 93.039 178.452, 92.713 179.676, 91.109 181.384 C 89.261 183.351, 89.162 183.969, 90.239 186.822 C 90.958 188.726, 91.973 189.841, 92.727 189.551 C 94.376 188.919, 94.354 191.505, 92.663 197.124 C 91.727 200.235, 91.624 202.231, 92.320 203.791 C 93.004 205.324, 92.953 206.807, 92.157 208.556 C 90.887 211.341, 90.546 225.999, 91.750 226.001 C 92.162 226.001, 92.631 230.164, 92.791 235.251 C 93.168 247.205, 94.117 251.542, 96.315 251.361 C 97.573 251.257, 97.992 252.018, 97.968 254.361 C 97.940 257.185, 97.803 257.324, 96.608 255.750 C 94.939 253.551, 92.566 253.427, 93.393 255.582 C 93.727 256.452, 94 257.942, 94 258.893 C 94 259.845, 94.900 261.589, 96 262.770 C 98.115 265.040, 98.681 268, 97 268 C 96.450 268, 96 270.195, 96 272.878 C 96 280.795, 100.145 282.429, 103.310 275.760 C 104.674 272.884, 104.847 269.868, 104.389 256.918 C 104.090 248.438, 103.384 240.544, 102.820 239.375 C 102.113 237.909, 102.127 236.631, 102.865 235.253 C 103.586 233.906, 103.619 232.158, 102.967 229.884 C 102.435 228.030, 102 220.098, 102 212.257 C 102 197.791, 102.089 197.450, 105.750 197.925 C 106.438 198.015, 107 197.618, 107 197.044 C 107 196.470, 106.582 196, 106.071 196 C 104.645 196, 102 193.030, 102 191.429 C 102 189.439, 104.286 189.646, 106.847 191.867 C 108.264 193.096, 109 194.899, 109 197.140 C 109 200.038, 109.548 200.840, 112.676 202.523 C 114.699 203.610, 116.853 204.950, 117.465 205.500 C 119.441 207.276, 122.931 209, 124.553 209 C 126.098 209, 133.173 213.765, 133.833 215.250 C 134.017 215.662, 134.804 216, 135.583 216 C 136.363 216, 137 216.450, 137 217 C 137 217.550, 137.810 218, 138.800 218 C 139.790 218, 141.073 218.473, 141.651 219.051 C 142.741 220.141, 152.364 222.973, 155 222.980 C 155.825 222.983, 157.023 221.856, 157.663 220.477 C 159.130 217.315, 157.876 215.917, 150.579 212.579 C 147.683 211.254, 144.680 209.561, 143.907 208.816 C 140.541 205.574, 133.457 201, 131.803 201 C 130.811 201, 129.992 200.438, 129.982 199.750 C 129.973 199.063, 127.670 197.414, 124.865 196.087 C 122.061 194.761, 118.714 192.623, 117.428 191.337 C 116.143 190.052, 114.555 189, 113.900 189 C 112.341 189, 104.132 183.796, 103.651 182.503 C 103.445 181.951, 103.667 176.179, 104.142 169.675 C 104.773 161.055, 105.441 157.416, 106.606 156.251 C 108.716 154.141, 114.583 153.119, 131.408 151.932 C 142.604 151.142, 145.559 150.617, 146.564 149.243 C 147.569 147.870, 149.463 147.532, 156.252 147.518 C 161.912 147.506, 165.236 147.048, 166.346 146.128 C 168.362 144.455, 168.529 138.684, 166.607 137.089 C 164.989 135.746, 152.965 136.240, 146 137.936 C 141.339 139.071, 137.441 139.530, 120.500 140.940 C 115 141.398, 109.283 142.097, 107.796 142.494 C 105.472 143.114, 105.005 142.867, 104.470 140.738 C 104.128 139.375, 104.558 134.152, 105.424 129.130 C 106.291 124.108, 107 115.724, 107 110.500 C 107 104.833, 107.404 101, 108 101 C 108.572 101, 109 97.995, 109 93.986 C 109 90.118, 109.561 86.068, 110.250 84.956 C 111.263 83.321, 111.245 82.780, 110.152 82.100 C 107.455 80.421, 109.328 77.539, 113.752 76.558 C 116.088 76.040, 118 75.193, 118 74.675 C 118 73.408, 122.008 70, 123.499 70 C 125.686 70, 130.998 66.873, 132.003 64.993 C 133.290 62.590, 130.850 59.965, 128.018 60.706 C 126.884 61.002, 126 60.744, 126 60.117 C 126 58.825, 123.365 58.600, 122.607 59.827 M 196.629 75.120 C 194.898 77.142, 194.894 77.389, 196.548 80.459 C 198.534 84.148, 205.911 87.250, 212.250 87.063 C 214.313 87.002, 216 87.413, 216 87.976 C 216 88.539, 216.900 89, 218 89 C 219.100 89, 220 89.414, 220 89.921 C 220 90.906, 227.704 91.620, 248.500 92.561 C 255.650 92.884, 261.950 93.587, 262.500 94.122 C 263.050 94.657, 263.819 98.786, 264.209 103.297 C 264.599 107.809, 265.215 114.805, 265.577 118.845 C 266.050 124.109, 265.862 126.889, 264.916 128.657 C 263.877 130.599, 263.852 131.533, 264.798 133.048 C 265.459 134.107, 266 136.329, 266 137.986 C 266 139.644, 266.450 141, 267 141 C 267.550 141, 268 142.093, 268 143.429 C 268 144.764, 268.675 146.532, 269.500 147.357 C 270.325 148.182, 271 149.339, 271 149.929 C 271 150.518, 271.450 151, 272 151 C 272.550 151, 272.982 152.912, 272.960 155.250 L 272.920 159.500 271.428 156.750 C 269.011 152.294, 268 153.547, 268 161 C 268 165.529, 268.398 168, 269.128 168 C 269.880 168, 270.046 169.309, 269.626 171.935 C 269.020 175.728, 269.123 175.915, 272.499 177.136 C 275.980 178.394, 277.549 182, 274.617 182 C 273.173 182, 272.176 185.311, 272.765 188.147 C 273.368 191.053, 276.809 191.058, 279.096 188.157 C 280.958 185.794, 281.126 184.613, 280.616 177.500 C 280.300 173.100, 279.778 157.350, 279.455 142.500 C 278.861 115.150, 277.567 92.640, 276.416 89.643 C 276.070 88.739, 275.244 88, 274.582 88 C 273.919 88, 272.411 87.100, 271.230 86 C 270.050 84.900, 268.255 84, 267.242 84 C 266.229 84, 264.972 83.578, 264.450 83.063 C 263.927 82.547, 258.775 81.918, 253 81.664 C 242.813 81.215, 226.180 79.096, 217 77.077 C 214.525 76.533, 210.813 76.068, 208.750 76.044 C 206.103 76.013, 205 75.559, 205 74.500 C 205 72.111, 198.813 72.569, 196.629 75.120 M 211 82.259 C 211 82.952, 211.917 84.092, 213.039 84.792 C 214.743 85.856, 215.344 85.799, 216.701 84.442 C 218.077 83.066, 218.109 82.682, 216.912 81.925 C 214.816 80.598, 211 80.814, 211 82.259 M 98 83 C 98 83.550, 98.675 84, 99.500 84 C 100.325 84, 101 83.550, 101 83 C 101 82.450, 100.325 82, 99.500 82 C 98.675 82, 98 82.450, 98 83 M 204 83 C 204 83.550, 205.125 84, 206.500 84 C 207.875 84, 209 83.550, 209 83 C 209 82.450, 207.875 82, 206.500 82 C 205.125 82, 204 82.450, 204 83 M 226.245 85.250 C 226.471 85.938, 227.632 86.644, 228.823 86.819 C 230.445 87.058, 230.839 86.743, 230.388 85.569 C 229.676 83.713, 225.636 83.402, 226.245 85.250 M 175.250 88.461 C 173.214 90.497, 173 91.670, 173 100.806 C 173 108.764, 173.319 111.079, 174.508 111.745 C 175.703 112.413, 176.224 116.322, 177.014 130.544 C 179.188 169.705, 179.925 180.356, 180.564 181.895 C 180.931 182.778, 181.412 185.300, 181.632 187.500 C 181.896 190.132, 182.791 192.074, 184.250 193.180 L 186.467 194.861 184.233 196.798 C 183.005 197.863, 182 199.379, 182 200.167 C 182 203.574, 187.269 205.331, 189.825 202.775 C 190.791 201.809, 191.559 202.143, 193.464 204.360 C 195.807 207.086, 196.092 207.152, 203.189 206.581 C 207.210 206.257, 213.357 205.811, 216.850 205.589 C 220.342 205.367, 224.842 204.856, 226.850 204.454 C 242.118 201.393, 255.133 203, 260.886 208.655 C 263.219 210.947, 268 211.906, 268 210.082 C 268 209.577, 268.255 208.498, 268.567 207.685 C 268.898 206.825, 267.853 204.895, 266.067 203.069 C 264.380 201.343, 263 199.580, 263 199.151 C 263 197.971, 255.029 193.861, 250.500 192.706 C 245.376 191.399, 233.458 191.459, 224.500 192.836 C 220.650 193.428, 212.220 194.362, 205.766 194.912 C 199.312 195.462, 193.187 196.365, 192.154 196.917 C 190.784 197.651, 189.766 197.520, 188.388 196.434 C 186.552 194.987, 186.563 194.902, 188.750 193.351 C 191.046 191.724, 191.800 187.613, 190.006 186.504 C 189.419 186.141, 189.037 180.087, 189.072 171.695 C 189.105 163.888, 188.620 146.628, 187.994 133.341 C 187.183 116.131, 187.163 108.077, 187.922 105.341 C 188.509 103.228, 188.991 99.170, 188.994 96.321 C 189 91.306, 188.710 90.712, 184.577 87.250 C 182.312 85.353, 177.768 85.943, 175.250 88.461 M 246.638 87.500 C 247.035 88.533, 248.503 88.958, 251.357 88.864 C 253.645 88.789, 254.493 88.534, 253.250 88.294 C 252.012 88.056, 251 87.442, 251 86.930 C 251 86.419, 249.889 86, 248.531 86 C 246.748 86, 246.223 86.416, 246.638 87.500 M 269.111 97.932 C 268.137 98.533, 267.959 100.065, 268.448 103.627 C 268.815 106.307, 269.428 113.225, 269.808 119 C 270.431 128.459, 270.633 129.267, 271.840 127.148 C 272.748 125.554, 272.979 123.137, 272.558 119.648 C 272.217 116.817, 271.832 110.818, 271.702 106.317 C 271.450 97.545, 271.175 96.656, 269.111 97.932 M 72 100 C 72 100.550, 72.900 101, 74 101 C 75.100 101, 76 100.550, 76 100 C 76 99.450, 75.100 99, 74 99 C 72.900 99, 72 99.450, 72 100 M 99 108.393 C 99 109.159, 99.675 110.045, 100.500 110.362 C 101.520 110.753, 102 110.308, 102 108.969 C 102 107.885, 101.325 107, 100.500 107 C 99.675 107, 99 107.627, 99 108.393 M 180.638 127.500 C 180.955 128.325, 181.391 129, 181.607 129 C 181.823 129, 182 128.325, 182 127.500 C 182 126.675, 181.564 126, 181.031 126 C 180.499 126, 180.322 126.675, 180.638 127.500 M 271.250 136.662 C 269.509 137.365, 269.684 139, 271.500 139 C 272.325 139, 273 138.325, 273 137.500 C 273 136.675, 272.887 136.036, 272.750 136.079 C 272.613 136.122, 271.938 136.385, 271.250 136.662 M 107 149 C 107 150.100, 107.450 151, 108 151 C 108.550 151, 109 150.100, 109 149 C 109 147.900, 108.550 147, 108 147 C 107.450 147, 107 147.900, 107 149 M 61 152.361 C 61 153.287, 61.829 153.564, 63.592 153.227 C 65.485 152.865, 65.822 152.502, 64.842 151.881 C 62.824 150.602, 61 150.830, 61 152.361 M 71.250 151.689 C 72.213 151.941, 73.787 151.941, 74.750 151.689 C 75.713 151.438, 74.925 151.232, 73 151.232 C 71.075 151.232, 70.287 151.438, 71.250 151.689 M 180.635 153.781 C 180.358 154.229, 180.490 155.174, 180.927 155.882 C 181.548 156.886, 181.852 156.828, 182.317 155.616 C 182.946 153.976, 181.494 152.392, 180.635 153.781 M 84 167 C 84 167.550, 83.305 168, 82.456 168 C 81.607 168, 79.699 169.125, 78.217 170.500 C 76.734 171.875, 74.728 173, 73.760 173 C 72.792 173, 72 173.675, 72 174.500 C 72 175.325, 71.550 176, 71 176 C 70.450 176, 70 176.675, 70 177.500 C 70 178.325, 69.425 179, 68.722 179 C 68.019 179, 66.734 179.787, 65.865 180.750 C 64.996 181.713, 63.434 183.200, 62.393 184.056 C 61.352 184.912, 59.606 186.824, 58.513 188.306 C 57.420 189.788, 56.245 191, 55.903 191 C 55.560 191, 53.610 192.575, 51.569 194.500 C 49.528 196.425, 47.440 198, 46.929 198 C 46.418 198, 46 198.645, 46 199.433 C 46 200.221, 45.022 201.176, 43.827 201.555 C 41.755 202.212, 40.687 202.925, 37.537 205.750 C 36.770 206.438, 35.850 207, 35.492 207 C 33.808 207, 20.026 222.801, 20.010 224.750 C 20.005 225.438, 19.519 226, 18.930 226 C 17.563 226, 18.144 230.226, 19.576 230.697 C 20.169 230.892, 21.879 229.915, 23.378 228.525 C 24.877 227.136, 26.755 226, 27.552 226 C 28.348 226, 29 225.325, 29 224.500 C 29 223.675, 29.510 223, 30.134 223 C 31.480 223, 35.789 218.195, 36.539 215.858 C 36.829 214.954, 38.402 213.662, 40.033 212.986 C 42.146 212.111, 43 211.073, 43 209.379 C 43 207.436, 43.517 207, 45.822 207 C 47.404 207, 50.370 205.694, 52.572 204.028 C 54.732 202.393, 57.063 201.043, 57.750 201.028 C 58.438 201.013, 59.023 200.438, 59.051 199.750 C 59.110 198.320, 72.186 187.666, 74.483 187.177 C 75.317 186.999, 76 186.352, 76 185.738 C 76 185.125, 78.137 182.689, 80.749 180.325 C 85.083 176.402, 85.383 175.843, 84.188 173.930 C 83.089 172.169, 83.129 171.452, 84.440 169.452 C 86.261 166.673, 86.370 166, 85 166 C 84.450 166, 84 166.450, 84 167 M 95.882 171.250 C 95.816 171.938, 95.857 172.950, 95.971 173.500 C 96.085 174.050, 96.539 176.300, 96.980 178.500 C 97.738 182.285, 97.787 182.165, 97.890 176.250 C 97.953 172.677, 97.572 170, 97 170 C 96.450 170, 95.947 170.563, 95.882 171.250 M 70.607 180.582 C 69.647 183.084, 69.886 184, 71.500 184 C 72.325 184, 73 183.550, 73 183 C 73 182.450, 73.675 182, 74.500 182 C 75.325 182, 76 181.325, 76 180.500 C 76 178.469, 71.391 178.539, 70.607 180.582 M 225.750 198.363 C 223.004 200.493, 223.629 201, 229 201 C 232.778 201, 234 200.633, 234 199.500 C 234 198.675, 233.438 197.994, 232.750 197.986 C 232.063 197.979, 230.600 197.755, 229.500 197.489 C 228.400 197.223, 226.713 197.617, 225.750 198.363 M 238.807 197.728 C 240.626 197.952, 242.362 198.780, 242.664 199.568 C 243.545 201.862, 248 201.388, 248 199 C 248 197.196, 247.387 197.016, 241.750 197.160 C 238.170 197.252, 236.913 197.494, 238.807 197.728 M 209 200 C 209 201.467, 209.667 202, 211.500 202 C 213.333 202, 214 201.467, 214 200 C 214 198.533, 213.333 198, 211.500 198 C 209.667 198, 209 198.533, 209 200 M 122.500 203 C 122.840 203.550, 123.660 204, 124.322 204 C 124.984 204, 125.970 205.012, 126.513 206.250 C 127.416 208.308, 132 210.111, 132 208.409 C 132 206.974, 125.605 202, 123.761 202 C 122.727 202, 122.160 202.450, 122.500 203 M 32.571 214.571 C 31.707 215.436, 31.036 216.673, 31.079 217.321 C 31.134 218.151, 31.307 218.129, 31.662 217.250 C 31.940 216.563, 33.029 216, 34.083 216 C 35.138 216, 36 215.325, 36 214.500 C 36 212.559, 34.554 212.589, 32.571 214.571 M 93 223.500 C 93 225.056, 93.567 226, 94.500 226 C 96.114 226, 96.353 225.084, 95.393 222.582 C 94.459 220.147, 93 220.707, 93 223.500 M 94.597 242.844 C 94.251 243.404, 94.455 244.163, 95.050 244.531 C 96.588 245.481, 97.580 244.180, 96.296 242.896 C 95.578 242.178, 95.019 242.161, 94.597 242.844" stroke="none" fill="black" fill-rule="evenodd"/>
</svg>