<svg xmlns="http://www.w3.org/2000/svg" width="300" height="300" viewBox="0 0 300 300" version="1.1">
	<path d="M 73.616 64.527 C 72.727 65.416, 72 66.561, 72 67.071 C 72 67.582, 70.875 68, 69.500 68 C 67.320 68, 67 68.438, 67 71.423 C 67 73.526, 67.895 75.937, 69.321 77.673 C 70.598 79.228, 72.693 83.200, 73.977 86.500 C 75.261 89.800, 76.692 92.928, 77.156 93.450 C 77.620 93.973, 78 95.148, 78 96.062 C 78 96.976, 79.437 100.823, 81.193 104.612 C 82.948 108.400, 84.462 112.625, 84.556 114 C 84.650 115.375, 85.203 117.850, 85.786 119.500 C 87.507 124.373, 91.212 140.152, 91.732 144.822 C 92.269 149.651, 94.115 151.034, 97.337 149.022 C 98.833 148.087, 99.514 148.043, 99.788 148.864 C 100.448 150.845, 105.971 150.092, 109.785 147.500 C 111.809 146.125, 114.170 145, 115.032 145 C 119.154 145, 138 128.443, 138 124.821 C 138 122.150, 136.740 122.565, 132.390 126.672 C 127.849 130.958, 121.072 136, 119.850 136 C 118.056 136, 119.108 132.906, 121.250 131.884 C 124.324 130.417, 132.921 120.175, 136.137 114.147 C 138.027 110.605, 138.975 106.934, 139.483 101.193 C 140.283 92.154, 139.752 89.473, 136.853 87.921 C 133.788 86.281, 122.468 86.151, 108.284 87.594 C 101.253 88.309, 92.517 88.918, 88.872 88.947 L 82.244 89 79.872 82.750 C 78.272 78.534, 77.500 74.412, 77.500 70.085 C 77.500 63.290, 76.411 61.732, 73.616 64.527 M 160.836 71.682 C 158.298 74.366, 158.209 74.809, 158.971 81 C 159.680 86.764, 162.730 102.372, 166.163 117.797 C 166.811 120.710, 167.733 123.335, 168.212 123.631 C 168.690 123.926, 168.828 124.968, 168.518 125.945 C 167.704 128.509, 171.050 132.302, 173.348 131.420 C 175.497 130.595, 175.393 128.924, 172.042 110.500 C 168.534 91.216, 167.784 85.717, 168.153 82 C 168.497 78.530, 168.551 78.493, 174.500 77.719 C 182.316 76.701, 189.560 76.842, 194.326 78.104 C 199.731 79.536, 201.459 83.895, 200.625 94 C 199.623 106.157, 198.105 111.356, 194.368 115.435 C 190.809 119.319, 190.030 122, 192.460 122 C 194.306 122, 198.375 117.682, 201.412 112.500 C 202.701 110.300, 204.957 103.325, 206.424 97 C 208.852 86.531, 208.972 85.098, 207.758 81.021 C 206.746 77.623, 205.386 75.813, 202.123 73.521 C 197.836 70.510, 197.770 70.500, 183.161 70.377 C 175.097 70.309, 167.375 69.941, 166 69.559 C 164.032 69.012, 162.933 69.464, 160.836 71.682 M 111.048 94.092 C 105.876 95.106, 97.218 96.100, 91.515 96.336 C 86.510 96.542, 86.115 98.038, 89.029 105.747 C 90.224 108.911, 92.008 115.325, 92.992 120 C 94.752 128.360, 97.987 141.246, 98.456 141.764 C 98.588 141.910, 101.351 140.820, 104.598 139.343 C 114.645 134.771, 127.539 122.894, 129.853 116.080 C 131.741 110.520, 132.512 96.322, 131.023 94.528 C 129.592 92.803, 118.821 92.568, 111.048 94.092 M 202 123.011 C 201.175 123.503, 198.791 124.663, 196.702 125.589 C 193.015 127.224, 192.845 127.211, 190.913 125.137 C 188.845 122.918, 186 122.259, 186 124 C 186 124.550, 185.438 125.013, 184.750 125.029 C 182.602 125.080, 176.793 131.019, 177.385 132.561 C 178.024 134.226, 179.604 134.449, 180.500 133 C 180.840 132.450, 181.793 132, 182.618 132 C 183.443 132, 183.827 132.472, 183.470 133.048 C 183.114 133.624, 183.061 134.716, 183.352 135.474 C 183.785 136.603, 184.845 136.487, 189.190 134.836 C 197.057 131.847, 206.721 127.041, 208.027 125.468 C 210.373 122.640, 205.772 120.764, 202 123.011 M 149 153.021 C 149 153.583, 147.840 154.571, 146.423 155.217 L 143.845 156.392 144.521 171.446 C 145.254 187.787, 144.377 193.388, 141.463 190.969 C 140.261 189.972, 138.119 189.973, 130.795 190.974 C 125.754 191.663, 115.562 192.343, 108.145 192.485 C 96.444 192.709, 94.485 192.984, 93.330 194.563 C 91.360 197.258, 91.633 197.820, 95.748 199.539 C 98.996 200.896, 101.097 200.952, 111.498 199.958 C 118.099 199.327, 125.703 198.854, 128.396 198.907 C 131.089 198.960, 133.874 198.520, 134.585 197.929 C 135.297 197.339, 137.144 197.001, 138.690 197.178 C 141.253 197.472, 141.481 197.826, 141.285 201.205 C 141.117 204.101, 141.390 204.787, 142.535 204.348 C 144.313 203.666, 144.351 204.135, 142.796 207.548 C 141.726 209.898, 141.517 209.986, 140.904 208.345 C 140.098 206.186, 140.190 205.985, 136.943 217 C 135.727 221.125, 134.140 225.671, 133.417 227.101 C 132.472 228.970, 132.408 230.008, 133.187 230.787 C 133.966 231.566, 133.811 232.332, 132.636 233.507 C 131.736 234.407, 130.968 235.673, 130.930 236.321 C 130.891 236.970, 130.527 236.655, 130.122 235.622 C 129.555 234.179, 128.645 235.614, 126.192 241.821 C 124.436 246.264, 123 250.387, 123 250.983 C 123 252.653, 118.403 261.258, 116.313 263.500 C 113.211 266.828, 109.781 273.331, 109.576 276.273 C 109.364 279.303, 106.511 282.844, 105.275 281.609 C 104.851 281.184, 105.290 280.261, 106.252 279.558 C 108.204 278.130, 108.592 276, 106.900 276 C 106.295 276, 104.239 277.561, 102.331 279.469 C 99.730 282.070, 98.941 283.633, 99.181 285.711 C 99.530 288.747, 102.165 289.926, 103.862 287.806 C 104.436 287.088, 107.225 283.856, 110.058 280.624 C 118.016 271.546, 125.653 259.182, 130.517 247.500 C 131.433 245.300, 134.610 238.550, 137.577 232.500 C 140.544 226.450, 144.573 216.272, 146.531 209.882 C 150.392 197.281, 152.224 194.684, 158 193.630 C 162.191 192.865, 180.159 187.333, 184.784 185.384 C 186.590 184.623, 189.403 184, 191.034 184 C 194.667 184, 198 180.875, 198 177.469 C 198 174.047, 195.566 173.350, 191.159 175.509 C 189.147 176.495, 186.191 177.463, 184.592 177.660 C 180.989 178.103, 178.891 179.758, 179.237 181.883 C 179.546 183.783, 175.337 184.737, 173.731 183.131 C 173.124 182.524, 172.031 182.441, 171.097 182.931 C 170.219 183.391, 167.475 184.083, 165 184.469 C 162.525 184.855, 158.822 186.020, 156.771 187.058 C 153.265 188.833, 152.987 188.843, 152.134 187.223 C 151.387 185.806, 152.897 160.598, 153.974 156.500 C 154.739 153.591, 153.864 152, 151.500 152 C 150.125 152, 149 152.460, 149 153.021 M 200.200 153.200 C 197.556 155.844, 199.304 159.012, 206.500 164.618 C 208.700 166.332, 212.525 168.745, 215 169.980 C 217.475 171.215, 220.490 173.132, 221.699 174.239 C 224.088 176.426, 227 176.018, 227 173.496 C 227 170.624, 223.839 167.055, 218.643 164.060 C 215.814 162.430, 211.925 159.066, 210 156.586 C 206.381 151.922, 202.737 150.663, 200.200 153.200 M 103 195.907 C 99.944 196.469, 99.786 196.630, 101.750 197.182 C 104.370 197.916, 108 197.162, 108 195.883 C 108 195.398, 107.662 195.059, 107.250 195.132 C 106.838 195.204, 104.925 195.553, 103 195.907 M 158.180 210.914 C 157.302 213.432, 157.551 214.351, 160.006 217.664 C 161.569 219.774, 164.795 223.067, 167.174 224.983 C 169.553 226.898, 173.926 230.723, 176.890 233.483 C 179.855 236.242, 183.298 239.447, 184.540 240.605 C 187.642 243.493, 190 244.298, 190 242.469 C 190 240.670, 190.952 240.648, 193.250 242.392 C 195.409 244.031, 195.451 244.949, 193.437 246.422 C 192.096 247.403, 192.484 248.047, 196.187 250.980 C 198.559 252.859, 200.834 254.936, 201.242 255.596 C 202.342 257.372, 212.967 264.284, 217 265.846 C 224.434 268.725, 229.757 269.468, 232.488 268.006 C 235.821 266.223, 236.826 262.380, 234.540 260.165 C 232.933 258.608, 232.722 258.646, 231.289 260.750 C 229.704 263.076, 227.107 263.674, 225.450 262.094 C 224.928 261.596, 221.881 259.785, 218.681 258.069 C 211.882 254.425, 211.976 254.496, 202.665 245.836 C 198.724 242.171, 193.633 237.671, 191.352 235.836 C 183.965 229.894, 174.940 221.655, 168.256 214.750 C 164.663 211.037, 161.154 208, 160.459 208 C 159.764 208, 158.738 209.311, 158.180 210.914 M 199.500 250 C 199.840 250.550, 200.568 251, 201.118 251 C 201.668 251, 201.840 250.550, 201.500 250 C 201.160 249.450, 200.432 249, 199.882 249 C 199.332 249, 199.160 249.450, 199.500 250 M 113.459 270.067 C 113.096 270.653, 113.014 271.348, 113.276 271.610 C 113.538 271.872, 114.019 271.392, 114.345 270.543 C 115.021 268.781, 114.445 268.471, 113.459 270.067" stroke="none" fill="black" fill-rule="evenodd"/>
</svg>