<svg xmlns="http://www.w3.org/2000/svg" width="300" height="300" viewBox="0 0 300 300" version="1.1">
	<path d="M 166.500 58.668 C 164.850 58.870, 161.700 59.447, 159.500 59.951 C 157.300 60.454, 152.575 61.415, 149 62.085 C 142.497 63.305, 135.688 66.077, 134.509 67.986 C 134.164 68.544, 133.019 69, 131.964 69 C 127.908 69, 125.215 78.045, 129.053 78.775 C 129.908 78.938, 131.807 78.039, 133.274 76.778 C 134.742 75.517, 137.643 73.652, 139.721 72.632 C 141.800 71.612, 144.236 70.407, 145.135 69.953 C 146.034 69.499, 147.778 69.391, 149.011 69.713 C 150.510 70.105, 151.559 69.752, 152.176 68.650 C 152.851 67.443, 154.511 67, 158.350 67 C 161.237 67, 164.028 66.588, 164.550 66.084 C 165.590 65.082, 169.004 64.731, 176.144 64.894 C 179.803 64.978, 181.448 65.616, 183.894 67.901 C 189.304 72.955, 187.931 78.978, 179.432 87.477 C 178.094 88.815, 177 90.363, 177 90.918 C 177 92.519, 160.223 106.808, 152.170 112.066 C 140.776 119.505, 132.525 119.737, 133.140 112.602 C 133.326 110.438, 132.680 108.409, 131.210 106.540 C 129.994 104.995, 128.997 103.228, 128.994 102.615 C 128.990 102.002, 128.321 100.222, 127.507 98.660 C 126.394 96.527, 126.292 95.322, 127.098 93.816 C 127.950 92.224, 127.768 91.367, 126.215 89.656 C 123.429 86.586, 122.544 76.581, 124.731 72.879 C 126.118 70.530, 126.175 69.526, 125.119 66.002 C 123.349 60.095, 120.723 60.846, 119.838 67.511 C 118.798 75.341, 118.901 85.414, 120.079 91.201 C 121.381 97.595, 125.822 112.821, 127.089 115.236 C 127.590 116.191, 128 118.803, 128 121.040 C 128 123.974, 128.766 126.067, 130.750 128.553 C 133.801 132.377, 137 133.141, 137 130.047 C 137 126.951, 148.316 123.033, 152.558 124.661 C 154.144 125.269, 154.524 130.043, 153.107 131.550 C 151.788 132.952, 150 142.385, 150 147.938 C 150 156.141, 149.113 156.606, 129.986 158.427 C 120.903 159.292, 110.186 160, 106.170 160 C 102.154 160, 97.941 160.497, 96.807 161.103 C 94.941 162.102, 94.807 162.809, 95.393 168.528 C 95.983 174.287, 94.176 190.231, 90.139 214.875 C 89.502 218.769, 89.626 221.249, 90.590 223.875 C 91.323 225.869, 92.427 230.113, 93.043 233.306 C 93.959 238.047, 94.621 239.285, 96.648 240.056 C 100.029 241.342, 100.688 241.254, 101.389 239.428 C 101.731 238.537, 100.950 236.480, 99.585 234.678 C 96.546 230.666, 94.067 219.195, 95.983 218.011 C 97.689 216.956, 99.181 207.476, 98.404 202.626 C 98.014 200.196, 98.202 198.493, 98.907 198.057 C 100.164 197.281, 100.346 190.597, 99.448 178.250 C 99.070 173.053, 99.215 170, 99.841 170 C 100.387 170, 101.070 170.562, 101.359 171.250 C 101.742 172.163, 102.165 172.059, 102.929 170.862 C 104.027 169.141, 107.289 168.030, 112.781 167.506 C 114.586 167.334, 116.611 166.801, 117.281 166.323 C 117.951 165.844, 122.207 165.497, 126.738 165.552 C 133.918 165.640, 135.051 165.416, 135.561 163.807 C 136.002 162.418, 137.054 161.996, 139.823 162.097 C 141.846 162.171, 144.512 161.902, 145.750 161.499 C 147.895 160.801, 148 161.016, 147.992 166.133 C 147.988 169.085, 147.540 175.325, 146.996 180 C 146.452 184.675, 145.756 191.425, 145.448 195 C 145.141 198.575, 144.244 207.350, 143.454 214.500 C 141.855 228.987, 141.563 241.237, 142.866 239.183 C 143.325 238.458, 143.760 234.679, 143.832 230.785 C 143.956 224.053, 144.391 222.058, 145.493 223.160 C 146.359 224.026, 144.537 241.051, 143.590 240.934 C 141.524 240.677, 140.836 244.892, 140.431 260.288 C 140.196 269.205, 139.780 277.850, 139.506 279.500 C 138.528 285.404, 144.360 291.240, 147.800 287.800 C 149.743 285.857, 149.185 284.085, 146.413 283.389 C 144.077 282.803, 143.889 282.404, 144.475 279.282 C 144.832 277.381, 145.324 272.171, 145.569 267.705 C 145.814 263.239, 146.443 259.157, 146.966 258.634 C 147.490 258.110, 147.684 255.841, 147.398 253.591 C 147.112 251.341, 147.349 246.575, 147.925 243 C 149.212 235.008, 149.859 227.993, 149.884 221.759 C 149.894 219.152, 150.651 214.030, 151.568 210.377 C 152.989 204.708, 153.043 203.159, 151.931 199.791 C 150.788 196.326, 150.845 195.443, 152.403 192.550 C 153.699 190.144, 154.249 186.523, 154.443 179.117 C 154.646 171.386, 155.100 168.547, 156.355 167.161 C 157.260 166.161, 158 164.669, 158 163.846 C 158 161.562, 162.148 158.200, 165.423 157.830 C 167.030 157.649, 168.547 156.889, 168.792 156.142 C 169.144 155.071, 168.315 154.928, 164.869 155.465 C 162.466 155.840, 159.727 156.364, 158.783 156.630 C 157.561 156.974, 156.874 156.346, 156.398 154.449 C 156.019 152.941, 156.179 151.506, 156.767 151.143 C 157.337 150.789, 157.756 147.800, 157.698 144.500 C 157.639 141.200, 158.471 135.380, 159.546 131.568 C 161.962 122.996, 163.320 121.921, 176 118.550 C 179.575 117.600, 183.738 116.586, 185.250 116.297 C 188.628 115.653, 188.677 114.985, 185.561 112.058 C 182.800 109.463, 181.343 109.539, 169 112.915 C 155.894 116.499, 153.334 115.109, 162.759 109.527 C 174.923 102.323, 190.835 84.960, 194.032 75.404 C 195.892 69.846, 195.475 64, 193.219 64 C 192.360 64, 190.947 63.401, 190.079 62.669 C 185.660 58.946, 176.671 57.420, 166.500 58.668 M 217.641 149.492 C 217.268 150.464, 218.097 151.516, 220.020 152.510 C 223.723 154.425, 224.528 157.549, 223.185 164.798 C 222.604 167.934, 221.817 172.974, 221.436 175.998 C 220.805 181.013, 214.876 196.572, 209.814 206.500 C 205.848 214.277, 196.660 227.198, 194.346 228.252 C 191.793 229.415, 191.280 231.437, 193.232 232.644 C 194.877 233.660, 198 233.851, 198 232.935 C 198 232.533, 200.416 229.116, 203.370 225.342 C 206.323 221.567, 209.585 216.907, 210.620 214.985 C 211.654 213.064, 213.531 210.048, 214.791 208.284 C 216.050 206.521, 217.909 202.697, 218.921 199.789 C 219.933 196.880, 221.942 191.850, 223.387 188.611 C 225.523 183.822, 226.230 180.045, 227.179 168.380 C 228.270 154.956, 228.228 153.909, 226.517 152.019 C 225.512 150.909, 223.635 150, 222.345 150 C 221.055 150, 220 149.550, 220 149 C 220 147.459, 218.284 147.817, 217.641 149.492 M 187 153 C 187 153.550, 187.648 154, 188.441 154 C 189.234 154, 190.160 153.550, 190.500 153 C 190.840 152.450, 190.191 152, 189.059 152 C 187.927 152, 187 152.450, 187 153 M 170.610 218.791 C 175.716 223.400, 182.659 227.361, 183.433 226.108 C 183.752 225.593, 182.322 224.151, 180.256 222.905 C 178.190 221.659, 174.860 219.371, 172.856 217.820 C 167.533 213.701, 165.800 214.450, 170.610 218.791 M 188.088 228.925 C 186.885 229.686, 186.906 230.049, 188.230 231.373 C 189.635 232.778, 189.770 232.691, 189.642 230.464 C 189.564 229.110, 189.500 228.008, 189.500 228.016 C 189.500 228.024, 188.865 228.433, 188.088 228.925 M 142.310 253.500 C 142.315 256.800, 142.502 258.029, 142.725 256.232 C 142.947 254.435, 142.943 251.735, 142.715 250.232 C 142.486 248.729, 142.304 250.200, 142.310 253.500" stroke="none" fill="black" fill-rule="evenodd"/>
</svg>