<svg xmlns="http://www.w3.org/2000/svg" width="300" height="300" viewBox="0 0 300 300" version="1.1">
	<path d="M 169.374 23.946 C 166.692 25.079, 163.992 28.864, 159.232 38.164 C 153.112 50.121, 145.827 61, 143.940 61 C 142.900 61, 140.625 63.644, 138.132 67.750 C 135.879 71.463, 132.640 76.075, 130.936 78 C 129.231 79.925, 127.379 82.737, 126.820 84.250 C 126.262 85.763, 125.398 87, 124.902 87 C 124.406 87, 124 87.571, 124 88.268 C 124 88.966, 121.300 92.445, 118 96 C 109.801 104.833, 109.926 109.290, 118.202 103.217 C 127.852 96.136, 129.804 94.343, 133.030 89.595 C 134.935 86.793, 137.057 83.905, 137.746 83.179 C 138.436 82.452, 139 81.307, 139 80.634 C 139 79.962, 140.800 77.481, 143 75.122 C 145.200 72.763, 147 70.647, 147 70.420 C 147 70.193, 149.964 66.968, 153.587 63.253 C 157.211 59.539, 161.025 54.851, 162.065 52.835 C 164.053 48.978, 170 44.958, 170 47.470 C 170 48.194, 170.675 49.045, 171.500 49.362 C 172.325 49.678, 173.012 50.964, 173.026 52.219 C 173.045 53.875, 174.093 54.979, 176.853 56.250 C 178.944 57.213, 181.099 58, 181.640 58 C 182.182 58, 184.847 59.068, 187.563 60.373 C 190.278 61.678, 194.075 63.069, 196 63.464 C 197.925 63.859, 201.525 64.861, 204 65.689 C 206.475 66.518, 210.525 67.385, 213 67.615 C 215.475 67.845, 219.123 68.293, 221.107 68.610 C 223.972 69.067, 224.855 68.821, 225.394 67.415 C 225.777 66.418, 225.512 65.134, 224.787 64.473 C 223.211 63.039, 212.617 58.877, 204.500 56.504 C 201.200 55.539, 193.003 52.070, 186.283 48.795 C 179.426 45.453, 173.544 43.164, 172.876 43.577 C 172.024 44.103, 171.868 43.628, 172.329 41.906 C 172.683 40.583, 172.979 38.938, 172.986 38.250 C 172.994 37.563, 173.563 36.977, 174.250 36.948 C 174.938 36.920, 176.963 35.071, 178.750 32.840 C 181.852 28.968, 182.866 25.651, 181.250 24.656 C 179.540 23.604, 171.345 23.114, 169.374 23.946 M 165.750 35.087 C 163.462 39.107, 163.520 40.744, 165.875 38.613 C 166.906 37.680, 167.750 35.810, 167.750 34.458 C 167.750 33.106, 167.694 32.003, 167.625 32.006 C 167.556 32.010, 166.713 33.396, 165.750 35.087 M 176 50.393 C 176 51.949, 178.111 53, 181.237 53 C 183.247 53, 183.255 52.939, 181.500 51 C 179.423 48.705, 176 48.328, 176 50.393 M 203.686 77.017 C 202.138 77.481, 200.246 78.381, 199.480 79.017 C 198.714 79.652, 197.606 79.874, 197.016 79.510 C 196.427 79.146, 194.045 79.763, 191.723 80.880 C 189.400 81.998, 184.350 83.223, 180.500 83.602 C 176.650 83.981, 172.612 84.900, 171.527 85.645 C 170.429 86.400, 167.002 87, 163.792 87 C 158.275 87, 151.050 88.278, 146.250 90.102 C 144.505 90.765, 144 91.747, 144 94.479 C 144 96.415, 144.494 98, 145.099 98 C 145.703 98, 147.729 98.726, 149.600 99.614 C 152.723 101.097, 153.202 101.097, 155.450 99.625 C 156.796 98.743, 160.202 97.850, 163.018 97.642 C 165.834 97.433, 168.647 96.753, 169.269 96.131 C 169.891 95.509, 171.575 95, 173.010 95 C 174.446 95, 178.519 93.832, 182.060 92.404 C 185.602 90.976, 189.850 89.441, 191.500 88.992 C 196.856 87.535, 201.460 85.536, 203.319 83.861 C 204.320 82.960, 206.401 81.970, 207.943 81.661 C 210.724 81.105, 212.526 78.660, 211.444 76.910 C 210.769 75.817, 207.533 75.862, 203.686 77.017 M 178 107.106 C 173.875 107.590, 169.375 108.143, 168 108.336 C 166.625 108.529, 164.713 108.757, 163.750 108.843 C 161.776 109.020, 161.312 111.982, 163.250 112.032 C 163.954 112.050, 163.652 112.705, 162.559 113.532 C 161.491 114.339, 159.691 114.986, 158.559 114.968 C 156.618 114.938, 156.602 114.859, 158.279 113.586 C 161.508 111.137, 157.873 111.195, 149.500 113.726 C 145.100 115.056, 140.452 116.657, 139.170 117.284 C 137.889 117.910, 135.799 118.337, 134.526 118.231 C 130.412 117.891, 129.439 120.378, 131.334 126.390 C 132.423 129.845, 133 135.122, 133 141.628 C 133 147.248, 133.653 154.087, 134.500 157.339 C 135.325 160.506, 136 163.867, 136 164.808 C 136 167.040, 139.609 169.259, 142.003 168.499 C 143.221 168.113, 143.989 166.778, 144.190 164.702 C 144.478 161.727, 144.925 161.373, 150.500 159.704 C 153.800 158.717, 157.268 157.488, 158.206 156.973 C 159.145 156.459, 161.845 155.743, 164.206 155.382 C 166.568 155.022, 168.950 154.390, 169.500 153.979 C 170.050 153.568, 172.075 152.928, 174 152.557 C 175.925 152.187, 178.400 151.530, 179.500 151.098 C 184.961 148.953, 192.044 147, 194.364 147 C 195.792 147, 198.807 146.261, 201.064 145.358 C 204.936 143.808, 205.135 143.531, 204.560 140.467 C 204.050 137.747, 204.401 136.836, 206.727 134.860 C 211.969 130.404, 215.241 113.253, 211.250 111.147 C 204.768 107.724, 189.032 105.812, 178 107.106 M 176 110 C 176 110.550, 176.675 111, 177.500 111 C 178.325 111, 179 110.550, 179 110 C 179 109.450, 178.325 109, 177.500 109 C 176.675 109, 176 109.450, 176 110 M 180.558 109.775 C 180.251 110.082, 180 110.708, 180 111.167 C 180 112.282, 183.736 112.237, 184.430 111.114 C 185.037 110.131, 181.444 108.889, 180.558 109.775 M 50.662 116.991 C 48.220 119.136, 47.350 120.621, 47.715 122.019 C 48.132 123.615, 47.607 124.129, 45.031 124.644 C 43.023 125.045, 41.426 126.165, 40.753 127.642 C 40.162 128.939, 39.301 130, 38.839 130 C 37.526 130, 37.794 156.754, 39.115 157.571 C 39.896 158.054, 40.076 162.996, 39.714 174.029 C 39.248 188.265, 39.381 190.098, 41.084 192.898 C 42.510 195.242, 43.693 196, 45.926 196 C 47.552 196, 49.129 195.601, 49.430 195.113 C 49.731 194.626, 51.647 193.914, 53.688 193.531 C 55.728 193.148, 58.308 192.197, 59.421 191.417 C 60.534 190.638, 62.414 190, 63.598 190 C 64.782 190, 68.295 188.875, 71.404 187.500 C 74.513 186.125, 77.875 185, 78.876 185 C 79.876 185, 81.732 184.100, 83 183 C 84.268 181.900, 85.602 181, 85.964 181 C 86.327 181, 87.645 180.048, 88.895 178.883 C 92.340 175.674, 90.204 174.787, 83.452 176.623 C 80.178 177.513, 76.528 178.456, 75.341 178.720 C 74.153 178.983, 72.957 180.056, 72.683 181.103 C 72.098 183.343, 69 182.647, 69 180.276 C 69 179.168, 68.402 178.955, 66.750 179.475 C 65.513 179.864, 62.700 180.313, 60.500 180.473 C 58.300 180.632, 55.233 181.266, 53.685 181.881 C 52.137 182.497, 50.449 183, 49.935 183 C 49.384 183, 49 174.215, 49 161.622 C 49 144.882, 49.325 139.465, 50.500 136.654 C 51.325 134.680, 52 130.960, 52 128.389 L 52 123.713 59.095 124.372 C 62.998 124.735, 67.018 125.475, 68.030 126.016 C 69.041 126.557, 71.586 127.003, 73.684 127.007 C 77.633 127.013, 81.962 129.247, 84.484 132.580 C 85.471 133.885, 85.947 137.116, 85.968 142.667 C 86.003 151.588, 84.046 157.780, 79.473 163.214 C 77.028 166.121, 76.964 167.982, 79.309 168.019 C 79.964 168.029, 83.721 164.597, 87.657 160.391 L 94.814 152.745 95.506 144.935 C 96.291 136.066, 95.506 129.665, 93.422 127.935 C 92.640 127.286, 92 126.360, 92 125.878 C 92 124.909, 88.336 121, 87.429 121 C 87.114 121, 86.182 120.325, 85.357 119.500 C 84.532 118.675, 82.566 118, 80.988 118 C 79.409 118, 77.822 117.521, 77.460 116.935 C 77.098 116.349, 75.609 115.968, 74.151 116.088 C 72.693 116.208, 69.925 116.035, 68 115.703 C 56.118 113.654, 54.311 113.788, 50.662 116.991 M 180 115.927 C 179.175 116.418, 174.675 117.379, 170 118.064 C 165.325 118.749, 160.825 119.668, 160 120.106 C 159.175 120.544, 156.777 121.668, 154.672 122.603 C 152.567 123.537, 149.079 125.948, 146.922 127.959 C 143.283 131.352, 143.001 132.010, 143.011 137.058 C 143.026 144.711, 144.038 150.095, 145.311 149.308 C 145.892 148.949, 149.772 148.101, 153.934 147.425 C 158.095 146.748, 163.300 145.669, 165.500 145.028 C 167.700 144.386, 170.625 143.634, 172 143.358 C 173.375 143.081, 176.075 142.045, 178 141.056 C 179.925 140.067, 183.972 138.983, 186.994 138.647 C 190.038 138.309, 192.675 137.475, 192.907 136.778 C 193.138 136.086, 194.618 134.228, 196.196 132.651 C 199.405 129.441, 202 123.963, 202 120.397 C 202 117.838, 201.162 117.504, 192.500 116.615 C 189.750 116.333, 186.150 115.862, 184.500 115.568 C 182.850 115.275, 180.825 115.436, 180 115.927 M 81.878 125.101 C 83.118 126.256, 84.349 126.984, 84.614 126.720 C 85.283 126.050, 82.106 123, 80.740 123 C 80.126 123, 80.637 123.945, 81.878 125.101 M 42.658 134.675 C 42.296 135.037, 42 135.933, 42 136.667 C 42 138.156, 44.578 138.492, 45.430 137.113 C 46.111 136.012, 43.562 133.771, 42.658 134.675 M 164.750 147.662 C 165.438 147.940, 166.563 147.940, 167.250 147.662 C 167.938 147.385, 167.375 147.158, 166 147.158 C 164.625 147.158, 164.063 147.385, 164.750 147.662 M 159.813 149.683 C 160.534 149.972, 161.397 149.936, 161.729 149.604 C 162.061 149.272, 161.471 149.036, 160.417 149.079 C 159.252 149.127, 159.015 149.364, 159.813 149.683 M 153 153 C 153 153.550, 153.675 154, 154.500 154 C 155.325 154, 156 153.550, 156 153 C 156 152.450, 155.325 152, 154.500 152 C 153.675 152, 153 152.450, 153 153 M 42.574 155.667 C 42.222 156.584, 42.399 157.799, 42.967 158.367 C 43.678 159.078, 44 158.557, 44 156.700 C 44 153.615, 43.501 153.253, 42.574 155.667 M 144 156.462 C 144 158.786, 144.225 158.950, 146.061 157.967 C 148.389 156.721, 148.175 154.663, 145.667 154.177 C 144.454 153.941, 144 154.564, 144 156.462 M 196.011 156.979 C 194.734 159.365, 195.712 164, 197.492 164 C 198.193 164, 199.038 165.012, 199.370 166.250 C 200.373 169.993, 200.092 170.332, 198.033 167.861 C 195.698 165.058, 195.792 164.472, 195.989 180.605 L 196.137 192.710 183.819 192.605 L 171.500 192.500 171.859 179 C 172.202 166.119, 172.118 165.409, 170.014 163.509 L 167.809 161.517 165.950 163.813 C 164.519 165.581, 164.306 166.675, 165.026 168.569 C 165.891 170.843, 165.775 170.982, 163.481 170.406 L 161 169.783 161 178.424 C 161 183.707, 160.437 188.412, 159.551 190.532 L 158.102 194 144.001 194 C 133.318 194, 129.186 194.370, 126.950 195.526 C 125.328 196.365, 124 197.490, 124 198.026 C 124 198.562, 123.325 199, 122.500 199 C 120.706 199, 120.511 202.111, 122.200 203.800 C 122.860 204.460, 124.173 205, 125.117 205 C 126.061 205, 127.013 205.539, 127.233 206.198 C 127.541 207.123, 128.299 207.127, 130.566 206.216 C 132.180 205.567, 137.550 204.869, 142.500 204.665 C 147.450 204.461, 152.314 203.944, 153.310 203.517 C 154.686 202.926, 155.257 203.269, 155.696 204.944 C 156.149 206.679, 156.776 207.022, 158.636 206.555 C 160.488 206.090, 161 206.366, 161 207.826 C 161 209.581, 158.140 213, 156.671 213 C 156.302 213, 155.990 212.213, 155.977 211.250 C 155.930 207.615, 153.128 215.578, 148.499 232.500 C 147.596 235.800, 146.273 240.075, 145.558 242 C 142.688 249.730, 140.990 255.619, 140.995 257.829 C 140.998 259.111, 139.823 263.102, 138.384 266.699 C 136.349 271.786, 136.051 273.413, 137.043 274.027 C 139.290 275.415, 140.954 273.926, 145.267 266.668 C 149.474 259.586, 153.355 250.079, 155.132 242.500 C 155.648 240.300, 156.682 237.150, 157.430 235.500 C 159.998 229.831, 164 217.879, 164 215.876 C 164 214.773, 164.958 211.644, 166.129 208.922 C 168.706 202.931, 169.552 202.638, 184.500 202.559 L 195.500 202.500 196.266 216.500 C 197.922 246.783, 198.618 252.820, 201.809 264.606 C 202.868 268.514, 204.045 274.206, 204.426 277.254 C 204.869 280.798, 205.819 283.431, 207.059 284.554 C 208.911 286.230, 209.091 286.227, 211 284.500 C 212.526 283.119, 213 281.420, 213 277.331 C 213 274.384, 212.588 271.191, 212.085 270.236 C 209.746 265.795, 206.437 222.417, 207.469 209.721 C 208.235 200.288, 209.097 199.192, 215.404 199.631 C 218.207 199.827, 222.194 200.264, 224.264 200.604 C 226.625 200.992, 228.577 200.766, 229.503 199.998 C 230.440 199.220, 232.275 199.017, 234.533 199.440 C 239.729 200.415, 242 199.395, 242 196.088 C 242 191.621, 239.206 189.886, 232.901 190.434 C 229.931 190.693, 227.162 190.926, 226.750 190.952 C 225.367 191.040, 225.982 193, 227.393 193 C 228.159 193, 229.045 193.675, 229.362 194.500 C 229.805 195.656, 229.141 196, 226.469 196 C 222.843 196, 222.192 195.208, 224.183 193.217 C 226.114 191.286, 224.595 190.827, 216.159 190.790 L 208.159 190.755 207.576 182.128 C 207.255 177.382, 206.544 171.581, 205.996 169.236 C 205.448 166.890, 205 163.194, 205 161.021 C 205 158.139, 204.477 156.790, 203.066 156.035 C 200.055 154.424, 197.172 154.810, 196.011 156.979 M 199 174.969 C 199 176.308, 199.480 176.753, 200.500 176.362 C 201.325 176.045, 202 175.159, 202 174.393 C 202 173.627, 201.325 173, 200.500 173 C 199.675 173, 199 173.885, 199 174.969 M 52 189.059 C 52 189.641, 52.450 189.840, 53 189.500 C 53.550 189.160, 54 188.684, 54 188.441 C 54 188.198, 53.550 188, 53 188 C 52.450 188, 52 188.477, 52 189.059 M 179 195.393 C 179 196.342, 181.993 196.820, 182.527 195.956 C 182.852 195.430, 182.191 195, 181.059 195 C 179.927 195, 179 195.177, 179 195.393 M 153.638 197.500 C 153.288 198.414, 153.637 199, 154.531 199 C 155.339 199, 156 198.325, 156 197.500 C 156 196.675, 155.598 196, 155.107 196 C 154.616 196, 153.955 196.675, 153.638 197.500 M 173 197.622 C 173 199.011, 173.252 199.052, 174.750 197.905 C 175.713 197.169, 176.688 196.439, 176.917 196.283 C 177.146 196.127, 176.358 196, 175.167 196 C 173.835 196, 173 196.625, 173 197.622 M 186.500 198 C 186.160 198.550, 186.809 199, 187.941 199 C 189.073 199, 190 198.550, 190 198 C 190 197.450, 189.352 197, 188.559 197 C 187.766 197, 186.840 197.450, 186.500 198 M 144 199 C 144 199.550, 145.238 199.993, 146.750 199.985 C 148.893 199.973, 149.169 199.755, 148 199 C 146.043 197.736, 144 197.736, 144 199 M 199 217.186 C 199 218.049, 199.675 219.315, 200.500 220 C 202.408 221.584, 202.389 220.098, 200.468 217.559 C 199.293 216.005, 199 215.931, 199 217.186 M 200.409 248.376 C 199.562 250.584, 200.689 251.711, 202.217 250.183 C 203.119 249.281, 203.122 248.722, 202.233 247.833 C 201.343 246.943, 200.909 247.072, 200.409 248.376" stroke="none" fill="black" fill-rule="evenodd"/>
</svg>