<svg xmlns="http://www.w3.org/2000/svg" width="300" height="300" viewBox="0 0 300 300" version="1.1">
	<path d="M 167.011 37.979 C 165.525 40.757, 166.761 44.702, 169.335 45.392 C 170.526 45.711, 175.452 45.979, 180.282 45.986 C 185.797 45.995, 190.400 46.558, 192.654 47.500 C 199.762 50.470, 204.680 48.692, 200.250 44.755 C 198.131 42.871, 191.391 40, 189.089 40 C 188.173 40, 185.658 39.100, 183.500 38 C 178.028 35.210, 168.500 35.198, 167.011 37.979 M 180.898 64.084 C 180.129 64.571, 176.574 64.976, 172.997 64.985 C 163.521 65.007, 148.231 69.769, 143.977 74.023 C 142.890 75.110, 141.598 76, 141.107 76 C 139.843 76, 138.955 78.720, 139.638 80.500 C 140.377 82.426, 141.459 82.398, 143.456 80.401 C 144.649 79.208, 145.393 79.082, 146.383 79.903 C 147.382 80.732, 149.168 80.265, 153.605 78.015 C 156.847 76.371, 160.175 75.017, 161 75.007 C 161.825 74.997, 164.167 74.526, 166.205 73.960 C 168.828 73.231, 169.746 72.503, 169.348 71.465 C 169.039 70.659, 169.236 70, 169.786 70 C 170.336 70, 171.063 70.723, 171.402 71.606 C 172.141 73.530, 177.021 72.691, 178.300 70.420 C 179.357 68.542, 185.421 68.597, 187 70.500 C 188.372 72.153, 192.492 72.605, 191.496 70.993 C 191.153 70.439, 191.622 69.698, 192.538 69.347 C 193.453 68.996, 194.500 69.191, 194.864 69.780 C 195.832 71.346, 204.666 73.354, 206.732 72.478 C 207.704 72.065, 211.537 71.590, 215.250 71.422 C 220.846 71.169, 222 71.385, 222 72.686 C 222 73.942, 222.756 74.135, 225.775 73.652 C 230.234 72.939, 234.914 75.328, 237.626 79.702 C 238.580 81.241, 239.962 83.005, 240.697 83.623 C 242.353 85.013, 241.251 88.310, 239.371 87.589 C 238.450 87.235, 238 87.832, 238 89.406 C 238 90.694, 237.325 93.662, 236.500 96 C 235.675 98.338, 235 101.713, 235 103.499 C 235 107.240, 231.373 116.119, 229.362 117.300 C 228.613 117.740, 228 119.202, 228 120.550 C 228 122.589, 228.488 123, 230.911 123 C 236.578 123, 242.867 112.235, 244.944 98.979 C 247.868 80.319, 247.502 78.288, 240.241 72.885 C 234.600 68.688, 223.165 66.023, 210.500 65.956 C 206.100 65.932, 200.475 65.451, 198 64.886 C 191.729 63.456, 182.569 63.026, 180.898 64.084 M 131.349 70.590 C 130.005 72.641, 129.087 73.067, 126.938 72.638 C 120.589 71.368, 118.469 81.257, 120.694 101.762 C 121.395 108.218, 122.156 115.300, 122.387 117.500 C 124.254 135.334, 127.335 142.456, 131.639 138.885 C 132.761 137.953, 132.785 137.446, 131.762 136.217 C 130.605 134.825, 128.943 120.107, 128.858 110.500 C 128.640 85.661, 129.636 78.033, 133.644 73.850 C 135.207 72.219, 136.019 70.492, 135.661 69.560 C 134.788 67.285, 133.278 67.646, 131.349 70.590 M 187.500 109.577 C 183.650 110.338, 174.650 111.129, 167.500 111.334 C 159.846 111.554, 153.404 112.229, 151.835 112.975 C 148.017 114.792, 147.587 117.713, 150.711 120.608 C 153.764 123.438, 155.965 123.599, 160.300 121.310 C 162.290 120.259, 165.926 119.597, 169.916 119.560 C 174.115 119.521, 176.477 119.068, 176.750 118.250 C 176.997 117.509, 178.915 117, 181.461 117 C 184.058 117, 186.247 116.407, 187 115.500 C 188.495 113.698, 193.350 113.449, 192.765 115.204 C 192.545 115.866, 190.900 116.787, 189.111 117.251 C 183.310 118.754, 183.500 117.497, 179.959 178 C 178.875 196.511, 179.123 199.746, 182.334 209 C 184.267 214.572, 184.932 215.500, 186.993 215.500 L 189.397 215.500 189.117 196.479 C 188.857 178.815, 188.973 177.334, 190.750 175.726 C 191.803 174.774, 193.752 173.998, 195.082 174.002 C 201.289 174.021, 206.759 173.186, 209.500 171.800 C 211.150 170.966, 214.677 170.214, 217.337 170.130 C 219.997 170.046, 223.020 169.525, 224.053 168.971 C 225.087 168.418, 227.732 168.253, 229.932 168.605 C 233.596 169.191, 234.036 169.015, 235.176 166.513 C 236.244 164.169, 236.177 163.602, 234.704 162.525 C 232.245 160.727, 224.209 159.818, 221.865 161.072 C 220.780 161.653, 216.429 162.737, 212.196 163.482 C 201.982 165.279, 195.712 166.904, 194.550 168.057 C 194.027 168.576, 192.724 169, 191.652 169 C 189.817 169, 189.745 168.495, 190.407 160.250 C 190.793 155.438, 191.523 146.214, 192.029 139.753 C 192.567 132.894, 193.539 127.068, 194.364 125.753 C 195.141 124.514, 196.294 121.868, 196.925 119.874 C 197.997 116.488, 198.403 116.206, 203.037 115.624 C 205.767 115.281, 210.223 114.720, 212.940 114.379 C 217.895 113.755, 219.456 112.351, 218.362 109.500 C 217.893 108.278, 215.632 108.018, 206.143 108.096 C 199.739 108.149, 191.350 108.815, 187.500 109.577 M 165.500 117 C 165.160 117.550, 165.835 118, 167 118 C 168.165 118, 168.840 117.550, 168.500 117 C 168.160 116.450, 167.485 116, 167 116 C 166.515 116, 165.840 116.450, 165.500 117 M 44.250 125.662 C 43.563 125.940, 43 126.776, 43 127.520 C 43 128.493, 42.072 128.724, 39.704 128.339 C 34.040 127.420, 33.838 128.293, 33.706 154.208 C 33.560 182.895, 34.531 187.837, 41.872 195.750 C 45.321 199.467, 49 200.113, 49 197 C 49 195.900, 48.593 195, 48.095 195 C 47.597 195, 46.089 193.087, 44.743 190.750 C 42.373 186.633, 42.306 185.970, 42.584 169.500 C 42.742 160.150, 43.347 149.800, 43.930 146.500 C 44.512 143.200, 44.991 138.363, 44.994 135.750 C 44.999 131.669, 45.282 131, 47 131 C 48.550 131, 49 131.667, 49 133.965 C 49 137.974, 51.526 139.239, 55.879 137.409 C 57.722 136.634, 60.415 135.993, 61.865 135.985 C 64.997 135.966, 66.417 135.120, 67.292 132.750 C 68.081 130.610, 70 130.433, 70 132.500 C 70 134.382, 71.396 134.433, 72.913 132.605 C 73.549 131.838, 75.733 131.016, 77.766 130.779 C 80.629 130.445, 81.845 130.815, 83.166 132.424 C 84.793 134.405, 84.931 134.418, 86.207 132.702 C 87.386 131.115, 87.893 131.058, 90.522 132.214 C 92.160 132.934, 95.405 134.757, 97.734 136.264 L 101.969 139.005 101.338 145.044 C 100.899 149.240, 101.114 151.845, 102.044 153.581 C 103.890 157.032, 101.681 177.737, 98.916 182.896 C 97.862 184.862, 97 187.040, 97 187.735 C 97 188.431, 96.657 189, 96.237 189 C 95.818 189, 95.030 189.985, 94.487 191.188 C 93.944 192.391, 91.345 194.690, 88.711 196.297 C 84.231 199.029, 83.109 199.245, 71.329 199.644 C 57.968 200.097, 55 200.891, 55 204.012 C 55 207.593, 59.252 209.285, 66.747 208.687 C 73.742 208.128, 75.439 207.792, 90.500 203.982 C 107.495 199.683, 107.473 199.692, 107.836 197.123 C 108.151 194.899, 107.941 194.789, 104.586 195.418 C 100.211 196.239, 99.770 194.504, 103.471 191.027 C 104.830 189.751, 106.444 187.085, 107.057 185.103 C 107.671 183.121, 108.809 180.082, 109.586 178.349 C 111.232 174.680, 111.611 146.738, 110.070 142.685 C 109.559 141.339, 107.314 138.273, 105.083 135.869 C 102.851 133.466, 101.019 131.162, 101.012 130.750 C 101.006 130.338, 100.155 130, 99.122 130 C 98.090 130, 96.745 129.398, 96.135 128.663 C 94.317 126.472, 85.028 124.762, 78 125.323 C 67.461 126.165, 59.634 127.621, 56.258 129.366 C 52.027 131.555, 49 131.485, 49 129.200 C 49 127.462, 47.178 124.917, 46.050 125.079 C 45.748 125.122, 44.938 125.385, 44.250 125.662 M 103.385 147.177 C 104.156 151.028, 104.714 151.686, 106.065 150.335 C 106.773 149.627, 106.717 148.474, 105.887 146.652 C 104.208 142.965, 102.610 143.301, 103.385 147.177 M 147.103 146.119 C 145.633 147.488, 145.036 148.903, 145.414 150.119 C 145.736 151.153, 146.284 152.927, 146.632 154.059 C 147.104 155.596, 146.745 156.254, 145.214 156.654 C 142.904 157.258, 141.524 160.194, 140.116 167.500 C 138.634 175.190, 136.473 183.286, 135.312 185.500 C 134.735 186.600, 133.938 189.300, 133.540 191.500 C 133.142 193.700, 130.832 199.661, 128.408 204.746 C 125.984 209.832, 124 214.884, 124 215.974 C 124 217.064, 122.425 221.320, 120.500 225.432 C 116.705 233.537, 116.246 236.586, 118.379 239.503 C 119.651 241.244, 119.941 241.269, 122.138 239.829 C 123.447 238.972, 125.175 236.972, 125.978 235.385 C 126.782 233.798, 128.664 230.657, 130.162 228.404 C 131.659 226.150, 133.198 223, 133.580 221.404 C 133.963 219.807, 134.600 218.050, 134.996 217.500 C 135.392 216.950, 136.745 213.350, 138.002 209.500 C 141.888 197.600, 142.093 197.446, 147.319 202.522 C 150.476 205.587, 151.456 206.005, 154.259 205.479 C 156.948 204.975, 157.917 205.319, 159.755 207.433 C 160.983 208.845, 162.511 210, 163.153 210 C 164.556 210, 175.169 217.814, 176.300 219.680 C 176.740 220.406, 177.682 221, 178.395 221 C 179.107 221, 180.505 221.900, 181.500 223 C 182.495 224.100, 183.715 225, 184.210 225 C 185.657 225, 193.826 228.910, 194.434 229.894 C 195.173 231.089, 202.729 235, 204.299 235 C 204.979 235, 207.141 236.091, 209.103 237.424 C 211.065 238.758, 215.246 240.597, 218.394 241.512 C 222.716 242.769, 224.343 243.772, 225.042 245.611 C 225.801 247.607, 226.432 247.930, 228.539 247.401 C 230.431 246.926, 231.743 247.350, 233.504 249.004 C 235.006 250.415, 236.530 251.011, 237.594 250.602 C 238.584 250.222, 240.078 250.666, 241.187 251.669 C 242.434 252.798, 244.440 253.306, 247.042 253.153 C 249.219 253.024, 251 253.373, 251 253.928 C 251 254.483, 251.681 254.676, 252.513 254.357 C 253.345 254.037, 254.734 254.364, 255.600 255.083 C 257.630 256.768, 266.562 257.305, 269.188 255.900 C 270.487 255.204, 271.560 255.160, 272.177 255.777 C 273.467 257.067, 284.123 253.753, 285.450 251.649 C 287.253 248.790, 284.689 247.452, 280.229 248.925 C 278.122 249.620, 272.145 250.224, 266.949 250.268 C 254.812 250.369, 243.086 247.658, 231.394 242.050 C 217.604 235.435, 214.365 234, 213.224 234 C 212.642 234, 212.017 233.662, 211.833 233.250 C 211.650 232.838, 209.475 231.497, 207 230.271 C 204.525 229.044, 200.700 226.910, 198.500 225.527 C 196.300 224.145, 193.825 222.763, 193 222.457 C 192.175 222.151, 189.836 221.023, 187.802 219.950 C 185.768 218.878, 183.421 218, 182.587 218 C 181.753 218, 180.627 217.171, 180.084 216.157 C 179.097 214.313, 173.330 209.706, 163 202.508 C 155.431 197.233, 153.040 194.840, 153.004 192.500 C 152.941 188.441, 151.757 186, 149.852 186 C 147.068 186, 146.648 183.803, 148.429 178.558 C 149.293 176.013, 150 170.896, 150 167.188 C 150 162.987, 150.534 159.682, 151.417 158.421 C 153.271 155.775, 154.385 149.669, 153.591 146.507 C 152.813 143.406, 150.183 143.249, 147.103 146.119 M 185.158 172 C 185.158 173.375, 185.385 173.938, 185.662 173.250 C 185.940 172.563, 185.940 171.438, 185.662 170.750 C 185.385 170.063, 185.158 170.625, 185.158 172 M 143.170 172.885 C 142.410 173.360, 141.984 174.957, 142.177 176.609 L 142.514 179.500 143.820 177.198 C 145.437 174.347, 145.040 171.715, 143.170 172.885 M 147 198.965 C 147 199.495, 147.900 200.411, 149 201 C 151.203 202.179, 151.688 201.088, 149.800 199.200 C 148.354 197.754, 147 197.640, 147 198.965 M 124.571 226.571 C 123.119 228.024, 122.381 231, 123.474 231 C 123.735 231, 124.647 229.650, 125.500 228 C 127.225 224.663, 126.932 224.211, 124.571 226.571" stroke="none" fill="black" fill-rule="evenodd"/>
</svg>