<svg xmlns="http://www.w3.org/2000/svg" width="300" height="300" viewBox="0 0 300 300" version="1.1">
	<path d="M 147.065 54.422 C 146.155 55.518, 146.174 56.305, 147.145 57.860 C 148.100 59.389, 148.133 60.435, 147.281 62.188 C 146.663 63.460, 145.895 68.100, 145.574 72.500 C 145.252 76.900, 144.147 83.200, 143.117 86.500 C 142.087 89.800, 140.701 94.525, 140.037 97 C 139.373 99.475, 137.518 104.321, 135.915 107.769 C 132.169 115.825, 132.002 123.588, 135.627 121.184 C 137.096 120.210, 143.984 105.436, 145.738 99.500 C 147.206 94.529, 150.752 80.433, 151.554 76.376 C 152.291 72.652, 155.451 69.566, 157.594 70.477 C 160.402 71.670, 166.913 71.950, 167.559 70.905 C 168.439 69.480, 171.171 69.845, 173.171 71.655 C 174.875 73.197, 175.134 73.189, 176.963 71.534 C 178.925 69.758, 182 70.023, 182 71.969 C 182 73.734, 185.600 73.100, 187.500 71 C 189.602 68.677, 191 68.422, 191 70.361 C 191 72.362, 195.834 71.179, 197.065 68.878 C 198.278 66.612, 201.284 66.432, 203.017 68.521 C 203.940 69.632, 205.925 69.980, 210.396 69.811 C 213.760 69.684, 217.046 69.910, 217.698 70.313 C 219.595 71.486, 229.821 69.472, 232.005 67.496 C 234.129 65.573, 234.682 61.540, 232.967 60.480 C 232.399 60.129, 230.279 60.818, 228.256 62.011 C 224.765 64.071, 223.788 64.149, 209.032 63.555 C 195.404 63.005, 192.746 63.162, 187.493 64.828 C 182.455 66.426, 179.198 66.668, 167.051 66.351 C 157.037 66.089, 152.354 65.593, 151.797 64.737 C 151.354 64.056, 151.074 61.673, 151.173 59.441 C 151.436 53.531, 149.633 51.328, 147.065 54.422 M 91.155 91.604 C 88.125 93.726, 88.410 94.464, 93.383 97.378 C 95.793 98.791, 98.029 100.634, 98.351 101.473 C 98.674 102.313, 100.021 103, 101.346 103 C 102.671 103, 104.351 103.718, 105.078 104.595 C 106.560 106.379, 115.655 111, 117.687 111 C 118.409 111, 119 110.348, 119 109.551 C 119 107.797, 113.797 103.916, 105 99.108 C 103.075 98.056, 100.375 95.985, 99 94.505 C 95.256 90.478, 93.624 89.875, 91.155 91.604 M 155.357 92.513 C 155.037 93.345, 155.327 94.689, 156 95.500 C 156.673 96.311, 156.943 97.706, 156.600 98.600 C 156.087 99.938, 155.706 100.001, 154.446 98.955 C 151.772 96.736, 150.827 99.307, 149.938 111.227 C 149.469 117.507, 148.596 123.933, 147.997 125.509 C 147.398 127.084, 146.697 133.067, 146.440 138.805 C 146.182 144.542, 145.698 149.679, 145.364 150.219 C 144.987 150.830, 139.535 150.992, 130.962 150.649 C 119.630 150.194, 116.951 150.355, 115.961 151.548 C 113.909 154.020, 116.565 155.798, 123.312 156.470 C 135.700 157.703, 142.061 157.645, 144.008 156.282 C 145.872 154.976, 145.903 155.452, 145.375 177.223 C 145.079 189.475, 144.420 200.812, 143.912 202.416 C 141.967 208.556, 149.313 212.742, 154.227 208.294 C 155.766 206.902, 156.466 206.810, 158.042 207.794 C 160.445 209.295, 163.257 209.343, 164.693 207.907 C 165.483 207.117, 166.352 207.118, 167.832 207.910 C 169.182 208.633, 170.089 208.664, 170.498 208.003 C 171.294 206.716, 175.695 206.697, 176.486 207.977 C 176.838 208.547, 180.032 208.735, 184.151 208.429 C 188.160 208.131, 193.581 208.434, 196.688 209.130 C 201.292 210.160, 202.321 210.128, 203.158 208.927 C 203.922 207.831, 204.270 207.791, 204.662 208.756 C 204.942 209.447, 205.550 209.778, 206.013 209.492 C 206.477 209.205, 207.083 209.765, 207.361 210.735 C 208.266 213.894, 208.376 227.348, 207.549 233.750 C 206.822 239.376, 206.512 240, 204.436 240 C 197.108 240, 194.300 244.990, 200.250 247.440 C 205.518 249.609, 213.905 250.438, 214.450 248.843 C 214.703 248.104, 215.079 238.725, 215.287 228 C 215.632 210.204, 215.815 208.527, 217.389 208.807 C 218.338 208.976, 219.988 209.988, 221.057 211.057 C 223.371 213.371, 223.711 213.400, 227.199 211.580 C 229.424 210.419, 230.089 210.403, 230.989 211.487 C 232.461 213.261, 240.642 212.797, 244.623 210.714 C 247.926 208.986, 249.308 206.117, 247.920 203.870 C 247.233 202.760, 246.559 202.829, 244.138 204.259 C 240.026 206.689, 223.024 206.651, 218.029 204.202 L 214.559 202.500 214.302 181.500 L 214.045 160.500 217.143 158.727 C 219.393 157.440, 220.593 157.247, 221.528 158.023 C 223.071 159.304, 233 161.005, 233 159.989 C 233 159.598, 234.054 159.479, 235.342 159.725 C 236.706 159.986, 238.377 159.480, 239.342 158.515 C 241.455 156.402, 241.425 155.695, 239.135 153.623 C 237.523 152.163, 236.674 152.095, 232.852 153.117 C 229.057 154.132, 227.901 154.047, 224.666 152.512 C 221.711 151.110, 220.388 150.958, 218.526 151.806 C 215.265 153.292, 214.193 151.738, 213.810 144.970 C 213.536 140.129, 213.270 139.540, 211.500 139.850 C 208.637 140.351, 208.033 141.780, 208.015 148.091 L 208 153.682 189.788 153.330 C 179.772 153.136, 169.984 152.535, 168.038 151.994 C 162.987 150.591, 155.263 150.739, 154.707 152.250 C 154.454 152.938, 153.909 152.230, 153.497 150.677 C 152.676 147.587, 156.476 118.847, 158.109 115.795 C 159.141 113.868, 158.347 107.270, 156.857 105.383 C 154.977 103, 158.417 101.960, 164.475 103.080 C 167.655 103.668, 173.575 103.890, 177.629 103.574 C 181.683 103.259, 188.488 102.748, 192.750 102.440 C 198.339 102.036, 200.873 101.408, 201.837 100.190 C 203.073 98.627, 203.289 98.669, 204.709 100.750 C 205.553 101.987, 206.864 103, 207.622 103 C 209.227 103, 209.501 105.666, 207.948 106.184 C 207.301 106.400, 206.868 110.942, 206.821 118.017 C 206.705 135.490, 206.629 135, 209.450 135 C 210.798 135, 212.260 134.359, 212.700 133.576 C 213.543 132.074, 212.640 95.307, 211.738 94.404 C 211.449 94.116, 204.487 94.582, 196.266 95.440 C 171.621 98.013, 161.495 97.432, 159.945 93.356 C 158.938 90.707, 156.240 90.211, 155.357 92.513 M 168.180 122.172 C 168.652 125.373, 171 125.716, 171 122.583 C 171 120.903, 170.451 120, 169.430 120 C 168.388 120, 167.968 120.729, 168.180 122.172 M 172 121 C 172 121.550, 173.009 123.013, 174.242 124.250 C 178.367 128.388, 189 130.714, 189 127.479 C 189 126.642, 187.762 125.479, 186.250 124.896 C 184.738 124.312, 181.836 122.972, 179.802 121.917 C 175.801 119.843, 172 119.396, 172 121 M 27.003 134.703 C 23.474 136.516, 22.016 139.416, 23.758 141.158 C 24.352 141.752, 26.431 141.668, 29.352 140.933 C 32.821 140.059, 34 139.285, 34 137.881 C 34 135.427, 35.753 135.484, 37.840 138.008 C 39.368 139.855, 39.723 139.898, 42.295 138.543 C 44.748 137.252, 45.159 137.251, 45.652 138.536 C 45.961 139.341, 47.260 140, 48.538 140 C 51.404 140, 57.452 143.788, 58.980 146.540 C 60.410 149.115, 60.565 153.179, 59.663 164.500 C 58.233 182.470, 57.636 184.979, 54.961 184.280 C 53.878 183.996, 50.856 184.326, 48.246 185.012 C 45.636 185.698, 38.620 186.316, 32.654 186.385 C 19.933 186.533, 19.970 186.562, 20.120 176.570 C 20.175 172.940, 19.784 169.414, 19.253 168.735 C 18.641 167.953, 18.615 164.201, 19.183 158.516 C 19.974 150.590, 19.881 149.386, 18.393 148.298 C 17.465 147.619, 16.399 147.254, 16.024 147.485 C 14.271 148.568, 12.792 159.087, 13.407 166.092 C 13.764 170.166, 14.232 175.844, 14.445 178.710 C 14.658 181.575, 15.143 184.422, 15.523 185.037 C 15.902 185.651, 15.265 187.036, 14.106 188.116 C 12.948 189.195, 12 190.418, 12 190.833 C 12 191.248, 13.793 193.287, 15.984 195.363 C 20.030 199.197, 22.597 199.391, 21.656 195.791 C 20.569 191.636, 21.576 191.231, 31.808 191.708 C 38.580 192.025, 43.578 191.679, 48.399 190.560 C 52.193 189.680, 56.067 189.204, 57.008 189.502 C 57.954 189.803, 59.339 189.297, 60.109 188.370 C 61.391 186.825, 62.116 184.177, 64.971 170.614 C 66.516 163.276, 66.212 152.348, 64.293 146.261 C 62.897 141.831, 61.943 140.521, 59.043 139.054 C 57.094 138.068, 53.925 136.417, 52 135.386 C 46.892 132.650, 31.800 132.238, 27.003 134.703 M 85 134.500 C 85 135.454, 86.002 136.024, 87.750 136.066 C 91.501 136.156, 101.245 139.421, 100.372 140.295 C 99.984 140.683, 99.854 141.021, 100.083 141.046 C 100.313 141.071, 104.706 141.351, 109.847 141.669 C 118.559 142.206, 119.170 142.120, 118.839 140.400 C 118.562 138.962, 116.609 138.157, 109.992 136.755 C 90.241 132.569, 85 132.096, 85 134.500 M 79.229 136.188 C 79.847 138.042, 82 138.349, 82 136.583 C 82 135.713, 81.287 135, 80.417 135 C 79.546 135, 79.011 135.534, 79.229 136.188 M 16 142.570 C 16 144.662, 16.418 145.080, 18.250 144.820 C 19.696 144.614, 20.614 143.696, 20.820 142.250 C 21.080 140.418, 20.662 140, 18.570 140 C 16.477 140, 16 140.477, 16 142.570 M 134.813 155.683 C 135.534 155.972, 136.397 155.936, 136.729 155.604 C 137.061 155.272, 136.471 155.036, 135.417 155.079 C 134.252 155.127, 134.015 155.364, 134.813 155.683 M 190.386 157.750 C 189.126 159.748, 182.364 160.370, 177.500 158.934 C 175.850 158.447, 169.658 157.864, 163.740 157.639 C 153.396 157.245, 152.964 157.312, 152.551 159.365 C 151.369 165.237, 150.263 189.233, 151.020 192.587 C 151.490 194.672, 151.629 197.603, 151.330 199.101 C 150.482 203.338, 154.268 204.871, 162.531 203.636 C 167.276 202.927, 169.984 203.005, 172.786 203.929 C 175.784 204.919, 177.541 204.931, 181.042 203.989 C 184.077 203.171, 189.052 203.013, 196.699 203.491 L 207.907 204.192 207.916 184.346 C 207.921 173.431, 207.673 163.073, 207.366 161.329 C 206.830 158.290, 206.653 158.185, 203.153 158.811 C 201.144 159.171, 197.700 159.473, 195.500 159.483 C 192.240 159.497, 191.554 159.176, 191.794 157.750 C 191.955 156.787, 191.953 156, 191.789 156 C 191.624 156, 190.993 156.787, 190.386 157.750 M 170.598 174.736 C 169.473 175.861, 170.003 176.936, 173.299 180.217 C 175.113 182.023, 178.375 184.111, 180.549 184.857 C 182.722 185.604, 186.419 187.150, 188.765 188.292 C 191.790 189.766, 193.341 190.059, 194.099 189.301 C 195.671 187.729, 191.717 184.404, 184 180.808 C 180.425 179.142, 176.825 177.223, 176 176.542 C 173.995 174.887, 171.335 173.998, 170.598 174.736 M 113.316 196.427 C 110.464 197.118, 107.089 198.362, 105.816 199.190 C 104.542 200.019, 101.700 201.260, 99.500 201.948 C 97.300 202.636, 93.670 204.054, 91.434 205.099 C 89.198 206.145, 85.573 207, 83.379 207 C 78.278 207, 72.148 211.048, 74.408 212.924 C 75.521 213.847, 76.292 213.835, 77.840 212.868 C 79.290 211.962, 80.203 211.918, 81.169 212.706 C 84.538 215.454, 99.584 211.116, 112.500 203.672 C 126.353 195.689, 126.633 193.198, 113.316 196.427 M 107 203 C 107 203.550, 107.450 204, 108 204 C 108.550 204, 109 203.550, 109 203 C 109 202.450, 108.550 202, 108 202 C 107.450 202, 107 202.450, 107 203 M 87 211.059 C 87 211.641, 87.450 211.840, 88 211.500 C 88.550 211.160, 89 210.684, 89 210.441 C 89 210.198, 88.550 210, 88 210 C 87.450 210, 87 210.477, 87 211.059" stroke="none" fill="black" fill-rule="evenodd"/>
</svg>