<svg xmlns="http://www.w3.org/2000/svg" width="300" height="300" viewBox="0 0 300 300" version="1.1">
	<path d="M 189.591 17.853 C 189.265 18.381, 188.106 18.579, 187.015 18.294 C 181.778 16.924, 180.126 18.631, 176.003 29.678 C 175.351 31.425, 173.958 33.633, 172.909 34.583 C 171.859 35.533, 171 36.879, 171 37.574 C 171 38.269, 170.249 40.337, 169.331 42.169 C 168.413 44.001, 167.288 46.281, 166.831 47.236 C 166.374 48.191, 166 50.544, 166 52.463 C 166 55.473, 166.711 56.516, 171.166 60.037 C 174.007 62.283, 177.719 64.831, 179.416 65.700 C 181.112 66.568, 182.725 67.561, 183 67.905 C 183.275 68.249, 185.407 69.423, 187.739 70.515 C 190.070 71.607, 191.982 72.838, 191.989 73.250 C 192.005 74.321, 196.770 74.181, 197.444 73.090 C 198.496 71.388, 196.983 69.499, 191.760 65.997 C 188.891 64.074, 184.793 60.739, 182.652 58.587 C 178.970 54.885, 178.790 54.419, 179.321 49.940 C 179.629 47.335, 180.998 43.021, 182.363 40.352 C 183.728 37.684, 185.828 33.347, 187.028 30.716 C 188.229 28.084, 189.866 25.277, 190.666 24.477 C 192.462 22.681, 192.915 17.866, 191.342 17.306 C 190.705 17.080, 189.917 17.326, 189.591 17.853 M 142.735 19.403 C 141.059 20.675, 141.071 20.861, 142.972 23.121 L 144.973 25.500 146.916 23.018 C 149.952 19.140, 146.741 16.363, 142.735 19.403 M 133.750 23.470 C 132.787 24.793, 132 26.417, 132 27.078 C 132 27.738, 130.650 30.473, 129 33.154 C 127.350 35.836, 126 38.441, 126 38.944 C 126 39.446, 125.436 40.452, 124.748 41.179 C 124.059 41.905, 122.600 44.300, 121.506 46.500 C 120.412 48.700, 118.853 51.318, 118.042 52.318 C 115.892 54.967, 116.468 73.458, 118.815 77.155 C 120.739 80.187, 129.639 86.464, 133.148 87.264 C 134.442 87.559, 137.975 88.820, 141 90.066 C 148.028 92.962, 159 93.900, 159 91.604 C 159 90.716, 157.810 89.764, 156.250 89.404 C 151.731 88.361, 139.567 82.284, 137.559 80.065 C 136.531 78.929, 135.138 78, 134.464 78 C 132.976 78, 128.566 72.379, 127.562 69.203 C 126.644 66.300, 128.802 53.148, 130.627 50.527 C 131.382 49.443, 132 47.755, 132 46.777 C 132 45.800, 132.420 45, 132.933 45 C 133.446 45, 134.179 44.012, 134.562 42.805 C 134.945 41.597, 136.626 38.387, 138.298 35.670 C 140.938 31.379, 141.196 30.356, 140.259 27.876 C 139.667 26.306, 139.418 24.116, 139.707 23.011 C 140.484 20.042, 135.991 20.388, 133.750 23.470 M 228.244 29.737 C 223.274 30.085, 222.878 30.318, 220.994 34.013 C 219.897 36.162, 219 38.748, 219 39.760 C 219 40.772, 218.485 42.115, 217.855 42.745 C 216.300 44.300, 213 53.859, 213 56.807 C 213 60.590, 216.794 64.925, 222.363 67.505 C 228.294 70.252, 231 72.243, 231 73.860 C 231 74.487, 231.830 75, 232.845 75 C 233.860 75, 235.488 75.881, 236.463 76.959 C 238.492 79.201, 247.446 82.460, 248.978 81.514 C 250.808 80.382, 250.060 78.467, 247.106 76.722 C 245.515 75.782, 242.671 73.547, 240.787 71.756 C 238.903 69.965, 235.255 66.619, 232.681 64.320 C 230.106 62.021, 228 59.714, 228 59.193 C 228 58.671, 227.325 57.685, 226.500 57 C 225.675 56.315, 225 54.676, 225 53.357 C 225 50.779, 230.056 39.651, 233.744 34.110 C 236.292 30.282, 236.571 28.915, 234.750 29.185 C 234.063 29.287, 231.135 29.535, 228.244 29.737 M 170 53.500 C 170 54.325, 170.450 55, 171 55 C 171.550 55, 172 54.325, 172 53.500 C 172 52.675, 171.550 52, 171 52 C 170.450 52, 170 52.675, 170 53.500 M 199.500 97.093 C 196.750 97.598, 189.550 98.250, 183.500 98.541 C 167.716 99.302, 151.903 101.850, 149.155 104.076 C 146.048 106.592, 145.743 111.390, 148.664 111.807 C 150.135 112.017, 151.038 111.457, 151.481 110.058 C 151.841 108.926, 152.892 107.964, 153.817 107.921 C 154.858 107.872, 155.023 107.650, 154.250 107.338 C 151.413 106.193, 153.313 105.011, 157.750 105.160 C 161.401 105.283, 161.748 105.413, 159.250 105.723 C 154.404 106.325, 155.324 108, 160.500 108 C 164.333 108, 165 107.704, 165 106 C 165 104.727, 165.667 104, 166.833 104 C 169.374 104, 170.190 105.066, 168.869 106.658 C 167.971 107.740, 168.481 108, 171.500 108 C 174.643 108, 175.053 107.769, 174.052 106.562 C 173.079 105.390, 173.430 104.829, 175.959 103.521 C 179.702 101.585, 181.218 102.282, 180.395 105.561 C 179.724 108.235, 180.872 108.674, 184.066 106.965 C 185.130 106.395, 186 105.045, 186 103.965 C 186 102.469, 186.656 102.019, 188.750 102.079 C 190.262 102.122, 190.938 102.385, 190.250 102.662 C 188.491 103.372, 188.694 105.669, 190.579 106.392 C 192.929 107.294, 197.319 105.931, 198.807 103.838 C 200.407 101.586, 203.308 101.461, 205.057 103.569 C 206.058 104.775, 207.434 104.990, 211 104.500 C 214.288 104.048, 215.961 104.249, 216.742 105.189 C 218.323 107.094, 219.160 115.832, 217.975 118.047 C 217.423 119.079, 216.640 124.553, 216.235 130.212 L 215.500 140.500 202 141 C 194.575 141.275, 187.830 141.931, 187.010 142.457 C 186.191 142.983, 181.916 143.752, 177.510 144.164 C 167.331 145.117, 164.722 145.542, 158.170 147.310 C 154.351 148.341, 152.754 148.430, 152.535 147.624 C 152.366 147.006, 151.727 144.648, 151.114 142.384 C 150.501 140.120, 149.997 136.970, 149.994 135.384 C 149.990 133.798, 149.315 131.211, 148.494 129.636 C 147.672 128.060, 147 124.348, 147 121.386 C 147 116.917, 146.702 116.003, 145.250 116.015 C 139.770 116.063, 137.398 124.645, 140.173 134.384 C 140.817 136.648, 141.942 139.210, 142.673 140.079 C 143.403 140.947, 144 142.229, 144 142.928 C 144 144.204, 145.827 148.779, 148.684 154.662 C 150.808 159.034, 158.174 160.683, 161.357 157.500 C 162.182 156.675, 163.369 156, 163.995 156 C 164.621 156, 166.656 154.839, 168.517 153.419 C 170.565 151.857, 173.005 150.912, 174.700 151.025 C 178.966 151.310, 179.728 151.129, 181.429 149.429 C 182.857 148, 183 148.007, 183 149.508 C 183 150.781, 183.630 151.028, 185.750 150.589 C 196.241 148.412, 209.688 146.900, 216.337 147.148 C 222.857 147.391, 224.334 147.155, 225.121 145.748 C 225.882 144.388, 225.551 143.925, 223.436 143.395 C 221.119 142.813, 220.876 142.368, 221.413 139.683 C 221.749 138.004, 222.693 135.891, 223.512 134.987 C 224.330 134.082, 225 132.336, 225 131.106 C 225 129.875, 225.442 128.042, 225.983 127.032 C 227.625 123.963, 227.363 107.980, 225.603 103.838 C 224.323 100.826, 223.200 99.901, 219.273 98.625 C 212.870 96.543, 205.570 95.978, 199.500 97.093 M 27 100.500 C 27 101.875, 26.550 103.056, 26 103.125 C 21.577 103.678, 18.986 105.207, 18.380 107.622 C 18.037 108.991, 18.292 113.798, 18.949 118.305 C 21.536 136.067, 21.831 140.242, 21.861 159.523 C 21.884 173.899, 22.281 180.605, 23.277 183.442 C 24.855 187.936, 27.339 190.061, 29.034 188.366 C 30.719 186.681, 30.809 129.440, 29.141 120.270 C 27.988 113.932, 28.026 112.439, 29.444 108.168 C 30.647 104.545, 30.804 102.616, 30.056 100.648 C 28.784 97.301, 27 97.215, 27 100.500 M 43.250 104.066 C 40.913 105.161, 39 106.495, 39 107.029 C 39 107.563, 38.555 108, 38.011 108 C 35.881 108, 33 111.577, 33 114.222 C 33 116.317, 33.483 117, 34.966 117 C 37.256 117, 44 113.959, 44 112.926 C 44 112.539, 45.634 111.916, 47.630 111.542 C 50.329 111.035, 50.971 110.571, 50.130 109.730 C 48.254 107.854, 48.840 107, 52 107 C 53.650 107, 55 107.441, 55 107.981 C 55 108.520, 56.013 109.225, 57.250 109.546 C 58.662 109.913, 60.179 111.690, 61.323 114.315 C 62.326 116.617, 63.789 119.694, 64.573 121.154 C 65.358 122.614, 66.003 124.864, 66.006 126.154 C 66.010 127.444, 66.690 129.799, 67.518 131.387 C 68.573 133.410, 69.052 137.595, 69.120 145.387 C 69.188 153.252, 69.642 157.176, 70.673 158.814 C 71.808 160.616, 72.087 164.482, 71.936 176.314 C 71.829 184.666, 71.304 192.996, 70.769 194.825 L 69.795 198.150 56.148 197.469 C 43.322 196.830, 42.390 196.644, 40.667 194.394 C 38.856 192.030, 36 191.130, 36 192.924 C 36 193.432, 33.686 194.219, 30.857 194.674 C 24.226 195.739, 22.938 197.613, 25.530 202.425 C 27.358 205.821, 27.716 206, 32.662 206 C 35.526 206, 39.010 205.566, 40.404 205.036 C 41.798 204.506, 53.049 204.005, 65.406 203.922 C 82.471 203.807, 87.991 203.466, 88.359 202.507 C 89.098 200.580, 86.944 199.002, 83.550 198.985 C 77.436 198.954, 77.303 198.463, 79.885 185.500 C 81.205 178.875, 81.202 157.280, 79.881 148.500 C 79.302 144.650, 78.475 139.025, 78.043 136 C 77.612 132.975, 76.687 128.925, 75.988 127 C 70.651 112.308, 68.767 108.026, 67.632 108.011 C 67.155 108.005, 65.226 106.650, 63.347 105 C 60.320 102.342, 59.222 102.004, 53.715 102.037 C 49.662 102.060, 46.022 102.766, 43.250 104.066 M 196 144.393 C 196 145.342, 198.993 145.820, 199.527 144.956 C 199.852 144.430, 199.191 144, 198.059 144 C 196.927 144, 196 144.177, 196 144.393 M 207.813 144.683 C 208.534 144.972, 209.397 144.936, 209.729 144.604 C 210.061 144.272, 209.471 144.036, 208.417 144.079 C 207.252 144.127, 207.015 144.364, 207.813 144.683 M 73.500 148 C 73.840 148.550, 74.316 149, 74.559 149 C 74.802 149, 75 148.550, 75 148 C 75 147.450, 74.523 147, 73.941 147 C 73.359 147, 73.160 147.450, 73.500 148 M 74.079 154.583 C 74.127 155.748, 74.364 155.985, 74.683 155.188 C 74.972 154.466, 74.936 153.603, 74.604 153.271 C 74.272 152.939, 74.036 153.529, 74.079 154.583 M 219 157.500 C 217.075 158.241, 213.842 158.882, 211.815 158.924 C 209.788 158.966, 206.863 159.495, 205.315 160.099 C 203.767 160.704, 198.675 161.405, 194 161.656 C 189.325 161.908, 184.150 162.501, 182.500 162.975 C 180.850 163.449, 175.675 164.127, 171 164.482 C 161.188 165.226, 149.685 167.565, 145.846 169.596 C 144.386 170.368, 142.453 171, 141.550 171 C 140.204 171, 140.027 171.673, 140.566 174.750 C 140.927 176.813, 141.848 179, 142.611 179.610 C 144.438 181.071, 144.381 183.687, 142.499 184.741 C 140.146 186.057, 139.009 197.846, 138.425 227 C 138.132 241.575, 137.424 255.525, 136.850 258 C 135.138 265.385, 134.046 281.217, 135.111 283.207 C 136.343 285.509, 144.158 285.719, 146 283.500 C 146.903 282.413, 149.343 281.991, 154.872 281.968 C 161.797 281.939, 162.321 281.801, 160.559 280.468 C 158.657 279.029, 158.660 279, 160.750 279 C 161.923 279, 163.148 278.570, 163.473 278.044 C 163.798 277.518, 164.722 277.340, 165.526 277.648 C 166.331 277.957, 166.718 278.647, 166.387 279.182 C 165.668 280.347, 175.044 279.188, 176.387 277.946 C 176.874 277.496, 179.401 277.379, 182.001 277.687 C 184.995 278.041, 186.984 277.835, 187.424 277.123 C 187.859 276.419, 187.278 276, 185.868 276 C 183.675 276, 183.667 275.963, 185.559 274.532 C 187.763 272.864, 195.564 272.485, 196.500 274 C 197.559 275.714, 198.519 275.113, 199.694 272 C 200.615 269.559, 201.402 269, 203.913 269 C 206.943 269, 207.990 270.270, 205.984 271.510 C 204.331 272.532, 205.833 273.857, 208.001 273.289 C 210.254 272.700, 210.500 271.900, 208.913 270.313 C 208.130 269.530, 208.143 269.029, 208.961 268.524 C 210.770 267.406, 213 268.756, 213 270.969 C 213 272.108, 213.659 273, 214.500 273 C 215.333 273, 216 272.111, 216 271 C 216 269.889, 216.667 269, 217.500 269 C 218.325 269, 219 269.450, 219 270 C 219 270.550, 219.675 271, 220.500 271 C 222.308 271, 222.433 269.833, 220.800 268.200 C 219.867 267.267, 220.144 267.003, 222.050 267.015 C 223.398 267.024, 225.175 267.474, 226 268.015 C 227.333 268.891, 227.333 269.109, 226 269.985 C 224.782 270.784, 224.923 270.972, 226.750 270.985 C 228.022 270.993, 228.891 270.457, 228.750 269.750 C 228.594 268.972, 229.633 268.500, 231.500 268.500 C 233.535 268.500, 234.405 268.947, 234.204 269.888 C 233.975 270.964, 234.763 271.135, 237.704 270.649 C 239.792 270.304, 242.343 270.017, 243.372 270.011 C 244.853 270.002, 245.005 269.710, 244.097 268.617 C 242.829 267.090, 244.489 266, 248.082 266 C 250.208 266, 250.718 268.544, 248.750 269.338 C 248.063 269.615, 250.079 269.878, 253.231 269.921 C 258.541 269.994, 259.008 269.816, 259.590 267.497 C 259.936 266.121, 259.957 263.308, 259.638 261.247 C 259.319 259.186, 258.383 249.850, 257.559 240.500 C 255.467 216.763, 255.277 215.818, 252.673 216.193 C 250.424 216.517, 249.948 217.614, 247.926 227.153 C 246.704 232.913, 247.238 246.686, 248.981 254.416 C 249.456 256.521, 249.614 258.841, 249.333 259.573 C 248.757 261.075, 244.360 261.816, 232 262.497 C 219.712 263.174, 212.462 263.982, 204.292 265.585 C 200.328 266.363, 195.303 267, 193.125 267 C 190.948 267, 188.990 267.530, 188.774 268.178 C 188.542 268.874, 184.921 269.664, 179.941 270.107 C 175.298 270.519, 169.250 271.312, 166.500 271.868 C 159.656 273.254, 144 273.300, 144 271.934 C 144 271.348, 144.449 270.029, 144.998 269.003 C 146.079 266.985, 148.247 239.682, 148.612 223.500 C 149.805 170.632, 149.218 174, 157.241 174 C 161.318 174, 162 173.716, 162 172.019 C 162 170.752, 162.881 169.817, 164.443 169.425 C 167.162 168.743, 169.343 169.636, 168.457 171.069 C 168.141 171.581, 169.311 172, 171.058 172 C 173.668 172, 174.146 171.667, 173.744 170.129 C 173.318 168.500, 174.035 168.177, 179.292 167.627 C 186.076 166.918, 186.941 167.264, 185.233 169.999 C 184.480 171.205, 184.402 172.130, 185.020 172.513 C 185.559 172.846, 186 176.807, 186 181.316 C 186 185.824, 186.492 191.085, 187.093 193.007 C 187.694 194.928, 188.534 198.188, 188.959 200.250 L 189.731 204 184.767 204 C 182.036 204, 178.384 204.607, 176.651 205.348 C 171.154 207.700, 163.575 210.010, 161.372 210.005 C 160.202 210.002, 158.685 210.675, 158 211.500 C 157.315 212.325, 156.360 213, 155.878 213 C 154.546 213, 151.277 216.551, 150.576 218.760 C 149.690 221.552, 152.237 223.326, 155.959 222.509 C 157.632 222.142, 159 221.537, 159 221.165 C 159 220.382, 168.241 216, 169.892 216 C 170.501 216, 171 215.077, 171 213.949 C 171 211.411, 176.790 208.751, 181.351 209.194 L 184.500 209.500 182.148 211.852 L 179.796 214.204 183.148 213.409 C 184.992 212.971, 188.926 212.698, 191.891 212.801 C 195.780 212.936, 198.182 212.433, 200.509 210.994 C 204.412 208.582, 205.911 208.497, 207.447 210.597 C 208.491 212.024, 209.622 212.059, 218.058 210.921 C 223.251 210.221, 229.375 209.728, 231.666 209.827 C 235.403 209.988, 236.048 209.659, 237.916 206.635 C 239.820 203.555, 239.999 201.762, 239.989 185.882 C 239.976 165.391, 239.514 161.846, 236.418 158.506 C 234.432 156.363, 233.255 156.011, 228.298 156.076 C 225.109 156.118, 220.925 156.759, 219 157.500 M 209 164 C 208.051 164.613, 207.948 164.975, 208.719 164.985 C 209.389 164.993, 209.678 165.675, 209.362 166.500 C 209.006 167.426, 207.487 168, 205.393 168 C 202.057 168, 200.685 168.962, 196.652 174.131 C 195.014 176.230, 194.860 177.896, 195.297 188.771 C 195.574 195.663, 196.285 201.639, 196.919 202.402 C 197.929 203.619, 213.778 205.221, 227 205.442 L 230.500 205.500 231 186.053 C 231.475 167.565, 231.402 166.515, 229.505 164.751 C 228.236 163.570, 226.781 163.126, 225.505 163.532 C 224.402 163.882, 221.307 164.651, 218.627 165.241 C 214.418 166.168, 213.629 166.088, 212.828 164.657 C 211.765 162.758, 211.099 162.644, 209 164 M 253.697 262.393 C 253.288 263.434, 253.189 264.522, 253.476 264.810 C 254.389 265.722, 255.191 264.227, 254.809 262.328 C 254.459 260.588, 254.405 260.591, 253.697 262.393" stroke="none" fill="black" fill-rule="evenodd"/>
</svg>