<svg xmlns="http://www.w3.org/2000/svg" width="300" height="300" viewBox="0 0 300 300" version="1.1">
	<path d="M 111.846 17.488 C 111.565 17.768, 106.198 18.218, 99.918 18.488 C 85.188 19.121, 69.975 21.022, 67.761 22.506 C 66.140 23.594, 66.174 23.813, 68.261 25.744 C 70.731 28.030, 79.157 29.143, 97.500 29.605 C 108.329 29.877, 126 28.152, 126 26.822 C 126 26.370, 124.987 25.964, 123.750 25.921 C 122.513 25.878, 122.063 25.615, 122.750 25.338 C 125.276 24.319, 123.969 21.458, 120.250 19.866 C 115.007 17.620, 112.440 16.893, 111.846 17.488 M 61 22.441 C 61 23.298, 61.450 24, 62 24 C 62.550 24, 63 23.577, 63 23.059 C 63 22.541, 62.550 21.840, 62 21.500 C 61.450 21.160, 61 21.584, 61 22.441 M 145.245 22.250 C 145.861 24.120, 149.654 24.345, 150.341 22.553 C 150.800 21.358, 150.233 21, 147.885 21 C 145.891 21, 144.976 21.433, 145.245 22.250 M 166 22.059 C 166 22.641, 166.450 22.840, 167 22.500 C 167.550 22.160, 168 21.684, 168 21.441 C 168 21.198, 167.550 21, 167 21 C 166.450 21, 166 21.477, 166 22.059 M 243 21.956 C 242.175 22.514, 239.813 22.976, 237.750 22.985 C 235.090 22.996, 234 23.436, 234 24.500 C 234 25.716, 235.611 26, 242.500 26 C 247.500 26, 251 26.412, 251 27 C 251 27.550, 252.350 28, 254 28 C 256.511 28, 257 27.604, 257 25.567 C 257 24.112, 256.297 22.930, 255.250 22.624 C 251.018 21.390, 244.375 21.028, 243 21.956 M 182.813 23.683 C 183.534 23.972, 184.397 23.936, 184.729 23.604 C 185.061 23.272, 184.471 23.036, 183.417 23.079 C 182.252 23.127, 182.015 23.364, 182.813 23.683 M 217.865 24.554 C 219.715 25.349, 222.276 26, 223.556 26 C 224.835 26, 226.160 26.450, 226.500 27 C 227.279 28.261, 233 28.324, 233 27.071 C 233 24.490, 229.890 23.370, 222.366 23.242 C 214.669 23.111, 214.572 23.139, 217.865 24.554 M 61 27 C 61 27.550, 62.098 28, 63.441 28 C 64.784 28, 66.160 27.550, 66.500 27 C 66.861 26.417, 65.844 26, 64.059 26 C 62.377 26, 61 26.450, 61 27 M 95.500 27 C 95.160 27.550, 95.359 28, 95.941 28 C 96.523 28, 97 27.550, 97 27 C 97 26.450, 96.802 26, 96.559 26 C 96.316 26, 95.840 26.450, 95.500 27 M 32.250 36.220 C 28.623 37.970, 29.361 41.718, 34.215 46.199 C 37.198 48.952, 38.517 51.028, 38.725 53.295 C 39.393 60.562, 40.263 65.044, 41.106 65.565 C 41.598 65.869, 42 67.190, 42 68.500 C 42 69.810, 42.450 71.160, 43 71.500 C 43.550 71.840, 44 72.811, 44 73.658 C 44 75.100, 46.007 80.299, 48.084 84.236 C 48.588 85.191, 49 86.993, 49 88.240 C 49 89.486, 49.930 93.655, 51.066 97.503 C 53.518 105.806, 55.233 112.804, 57.314 123 C 58.156 127.125, 59.423 133.313, 60.129 136.750 C 60.835 140.188, 61.770 143, 62.206 143 C 62.643 143, 63 144.778, 63 146.950 C 63 149.162, 63.584 151.253, 64.325 151.700 C 66.302 152.893, 67.121 155.906, 66.024 157.954 C 65.383 159.153, 65.463 161.703, 66.262 165.511 C 67.204 170.003, 67.595 170.738, 68.053 168.879 C 68.394 167.493, 68.952 170.248, 69.390 175.476 C 69.902 181.597, 69.801 184.566, 69.071 184.810 C 68.482 185.006, 68 187.154, 68 189.583 C 68 192.843, 68.393 194, 69.500 194 C 70.325 194, 70.964 194.787, 70.921 195.750 C 70.874 196.795, 70.639 196.997, 70.338 196.250 C 68.941 192.788, 68 195.928, 68 204.050 C 68 210.353, 67.519 214.029, 66.415 216.164 C 64.067 220.705, 65.393 237.735, 68.290 240.250 C 69.399 241.213, 70.802 242, 71.409 242 C 73.711 242, 75.272 235.757, 75.188 226.882 C 75.142 221.997, 75.482 218, 75.943 218 C 78.346 218, 77.830 180.280, 75.115 157.500 C 74.590 153.100, 73.705 145.590, 73.148 140.811 C 72.591 136.032, 71.655 131.224, 71.068 130.127 C 70.481 129.029, 70 125.627, 70 122.566 C 70 119.505, 69.550 117, 69 117 C 68.414 117, 68 113.572, 68 108.715 C 68 102.579, 67.358 98.493, 65.526 92.965 C 64.165 88.859, 63.040 84.713, 63.026 83.750 C 63.012 82.787, 62.550 82, 62 82 C 61.450 82, 61 80.938, 61 79.640 C 61 78.341, 59.875 75.621, 58.500 73.595 C 57.125 71.569, 56 69.032, 56 67.958 C 56 66.884, 54.425 64.335, 52.500 62.294 C 50.575 60.253, 49 58.002, 49 57.292 C 49 56.581, 48.546 56, 47.992 56 C 47.437 56, 47.056 54.086, 47.145 51.746 C 47.315 47.249, 45.005 41.636, 41.852 38.883 C 40.833 37.993, 40 36.756, 40 36.133 C 40 34.718, 35.254 34.772, 32.250 36.220 M 256.459 39.808 C 253.895 41.637, 253 48.288, 253 65.511 C 253 85.453, 254.274 94.199, 257.730 97.990 C 258.979 99.359, 260 101.047, 260 101.740 C 260 103.374, 256.321 103.383, 255.662 101.750 C 255.311 100.880, 255.134 100.857, 255.079 101.673 C 255.036 102.319, 256.063 104.119, 257.362 105.673 C 259.501 108.234, 259.791 109.820, 260.441 122.500 C 260.835 130.200, 261.573 136.928, 262.079 137.450 C 262.586 137.973, 263 145.145, 263 153.390 C 263 167.075, 264.126 178.147, 265.910 182 C 266.292 182.825, 266.726 188.450, 266.874 194.500 C 267.023 200.550, 267.787 210.421, 268.572 216.436 C 269.358 222.451, 270 231.987, 270 237.627 C 270 244.050, 270.414 248.138, 271.108 248.567 C 271.788 248.987, 271.982 250.714, 271.609 253.046 C 270.970 257.041, 271.607 260, 273.107 260 C 274.213 260, 274.306 228.307, 273.202 227.625 C 272.763 227.354, 272.317 220.240, 272.211 211.816 C 272.104 203.392, 271.510 192.900, 270.890 188.500 C 270.271 184.100, 269.789 175.325, 269.819 169 C 269.850 162.675, 269.398 154.125, 268.815 150 C 267.330 139.482, 266.032 119.384, 265.103 92.500 C 264.666 79.850, 263.786 67.925, 263.148 66 C 262.510 64.075, 261.503 58.524, 260.910 53.664 C 259.745 44.121, 258.006 38.706, 256.459 39.808 M 106 88 C 106 88.550, 105.325 89, 104.500 89 C 103.456 89, 103 90.050, 103 92.453 C 103 96.064, 104.778 101, 106.079 101 C 106.495 101, 107.548 101.273, 108.418 101.607 C 109.604 102.062, 110 101.580, 110 99.680 C 110 98.108, 109.336 96.973, 108.250 96.689 C 106.583 96.254, 106.583 96.226, 108.250 96.116 C 109.640 96.024, 110 95.075, 110 91.500 C 110 87.667, 109.704 87, 108 87 C 106.900 87, 106 87.450, 106 88 M 146.750 97.740 C 144.203 98.332, 144.381 103, 146.950 103 C 148.023 103, 149.311 102.267, 149.812 101.371 C 150.314 100.475, 151.297 99.932, 151.996 100.165 C 152.969 100.490, 152.908 100.949, 151.738 102.119 C 150.365 103.492, 150.401 103.769, 152.091 104.824 C 153.126 105.471, 155.019 106, 156.298 106 C 157.577 106, 159.589 106.900, 160.770 108 C 161.950 109.100, 164.034 110, 165.399 110 C 166.765 110, 168.144 110.424, 168.464 110.942 C 168.785 111.460, 171.061 112.187, 173.523 112.556 C 175.985 112.925, 178 113.626, 178 114.114 C 178 114.601, 179.125 115, 180.500 115 C 181.875 115, 183 115.450, 183 116 C 183 116.550, 183.684 117, 184.520 117 C 186.151 117, 194.096 121.680, 195.117 123.243 C 196.077 124.712, 195.084 132.930, 193.213 139 C 191.606 144.213, 188.871 148, 186.714 148 C 186.175 148, 185.007 148.792, 184.117 149.761 C 181.155 152.987, 175.569 156.566, 169 159.448 C 165.425 161.017, 162.256 162.671, 161.958 163.123 C 161.659 163.576, 157.790 164.087, 153.359 164.259 C 148.157 164.461, 144.448 165.132, 142.889 166.153 C 139.771 168.196, 138 166.547, 138 161.601 C 138 159.685, 137.550 157.840, 137 157.500 C 136.450 157.160, 136 155.703, 136 154.262 C 136 151.256, 134.437 145.788, 132.400 141.669 C 131.630 140.112, 131 138.259, 131 137.551 C 131 136.843, 129.425 133.189, 127.500 129.430 C 125.575 125.671, 124 122.011, 124 121.298 C 124 120.584, 123.550 120, 123 120 C 122.450 120, 122 119.040, 122 117.867 C 122 116.694, 121.170 115.007, 120.157 114.117 C 119.143 113.228, 118.053 111.825, 117.735 111 C 117.358 110.019, 117.131 110.311, 117.079 111.844 C 117.030 113.305, 116.247 114.384, 115 114.710 C 113.900 114.998, 113 115.996, 113 116.928 C 113 117.860, 113.900 119.589, 115 120.770 C 116.100 121.950, 117 123.780, 117 124.836 C 117 125.891, 117.675 127.315, 118.500 128 C 119.410 128.755, 120 130.945, 120 133.563 C 120 135.939, 120.450 138.160, 121 138.500 C 121.550 138.840, 122 140.415, 122 142 C 122 143.585, 122.450 145.160, 123 145.500 C 123.550 145.840, 124 147.351, 124 148.859 C 124 150.367, 124.403 152.028, 124.895 152.550 C 125.702 153.407, 127.251 158.991, 128.674 166.168 C 129.076 168.195, 128.578 169.380, 126.602 171.099 C 124.843 172.628, 124 174.367, 124 176.469 C 124 179.206, 124.627 179.904, 129.250 182.304 C 134.427 184.993, 138 185.766, 138 184.196 C 138 183.016, 147.659 178, 149.934 178 C 151.005 178, 152.160 177.550, 152.500 177 C 152.840 176.450, 153.991 176, 155.059 176 C 156.374 176, 157 175.312, 157 173.867 C 157 171.576, 160.445 168, 162.653 168 C 164.461 168, 164.369 171.003, 162.519 172.390 C 161.599 173.079, 161.353 174, 161.871 174.820 C 162.556 175.905, 163.797 175.914, 168.854 174.869 C 173.681 173.872, 175.716 173.857, 178.322 174.800 C 180.148 175.460, 182.821 176, 184.262 176 C 185.703 176, 187.134 176.408, 187.442 176.906 C 187.750 177.405, 190.364 178.133, 193.251 178.524 C 196.138 178.915, 199.734 179.866, 201.241 180.638 C 205.375 182.755, 209 181.481, 209 177.911 C 209 175.734, 208.455 174.928, 206.750 174.582 C 205.512 174.331, 203.360 173.888, 201.967 173.598 C 199.961 173.180, 199.181 172.128, 198.221 168.535 C 197.035 164.102, 196.917 164, 192.962 164 C 190.331 164, 188.183 163.317, 186.820 162.047 L 184.724 160.094 189.112 156.074 C 191.525 153.863, 193.838 152.041, 194.250 152.027 C 194.662 152.012, 195.008 151.213, 195.017 150.250 C 195.026 149.287, 197.051 145.146, 199.517 141.046 C 201.983 136.946, 204 132.648, 204 131.496 C 204 130.343, 204.413 128.973, 204.918 128.450 C 205.422 127.928, 206.148 125.368, 206.530 122.762 C 207.095 118.901, 206.925 117.908, 205.612 117.405 C 204.725 117.064, 204 116.197, 204 115.477 C 204 114.757, 202.288 112.331, 200.195 110.087 C 197.100 106.768, 195.001 105.613, 188.945 103.899 C 184.850 102.740, 178.800 101.455, 175.500 101.043 C 172.200 100.632, 167.250 99.810, 164.500 99.218 C 158.594 97.944, 149.224 97.164, 146.750 97.740 M 132.278 99.122 C 130.232 101.168, 132.040 103, 136.107 103 C 140.496 103, 141.053 101.851, 137.777 99.557 C 135.141 97.710, 133.796 97.604, 132.278 99.122 M 117 118.500 C 117 119.325, 117.450 120, 118 120 C 118.550 120, 119 119.325, 119 118.500 C 119 117.675, 118.550 117, 118 117 C 117.450 117, 117 117.675, 117 118.500 M 63 135.417 C 63 136.838, 63.464 138, 64.031 138 C 64.599 138, 64.958 139.559, 64.829 141.465 C 64.701 143.370, 64.936 145.269, 65.351 145.685 C 65.767 146.100, 65.970 143.564, 65.803 140.049 C 65.614 136.056, 65.031 133.504, 64.250 133.246 C 63.466 132.987, 63 133.797, 63 135.417 M 258.667 135.667 C 257.625 136.708, 257.885 142.811, 259 143.500 C 259.611 143.878, 260 142.344, 260 139.559 C 260 134.923, 259.850 134.484, 258.667 135.667 M 70.079 205.583 C 70.127 206.748, 70.364 206.985, 70.683 206.188 C 70.972 205.466, 70.936 204.603, 70.604 204.271 C 70.272 203.939, 70.036 204.529, 70.079 205.583 M 69.250 217.496 C 67.425 219.569, 67.614 226, 69.500 226 C 70.633 226, 71 224.778, 71 221 C 71 215.466, 71.013 215.493, 69.250 217.496 M 254.639 228.499 C 254.322 229.323, 254.471 231.011, 254.968 232.249 C 255.754 234.203, 255.882 234.006, 255.937 230.750 C 256.004 226.774, 255.582 226.041, 254.639 228.499 M 212.840 235.493 C 212.569 235.764, 199.336 236.249, 183.435 236.570 C 167.533 236.892, 154.286 237.537, 153.996 238.006 C 153.386 238.993, 139.611 239.844, 115.500 240.382 C 97.889 240.775, 88.155 242.022, 84.578 244.345 C 83.435 245.086, 80.328 245.722, 77.673 245.757 C 75.017 245.793, 72.636 246.031, 72.380 246.287 C 71.393 247.274, 70.971 253.565, 71.809 254.808 C 72.908 256.440, 77.123 255.507, 79.667 253.068 C 81.419 251.389, 81.588 251.413, 83.500 253.610 C 85.363 255.751, 86.287 255.912, 97 255.966 C 112.667 256.046, 141.160 255.014, 143 254.300 C 143.825 253.980, 148.100 253.348, 152.500 252.896 C 165.999 251.508, 174.233 250.215, 180.500 248.500 C 186.192 246.941, 188.707 246.394, 200.531 244.146 C 203.718 243.540, 209.584 243.536, 216.531 244.135 C 222.564 244.655, 231.775 245.424, 237 245.844 C 242.225 246.265, 247.792 247.156, 249.372 247.826 C 252.479 249.143, 255 248.046, 255 245.378 C 255 243.658, 257.667 243.555, 258.300 245.250 C 258.613 246.086, 259.014 245.902, 259.512 244.694 C 260.026 243.447, 259.571 242.249, 258.041 240.824 C 256.004 238.926, 254.601 238.760, 240.663 238.760 C 232.323 238.760, 225.050 238.480, 224.500 238.138 C 221.106 236.027, 213.933 234.400, 212.840 235.493 M 129 249 C 129 249.550, 129.648 250, 130.441 250 C 131.234 250, 132.160 249.550, 132.500 249 C 132.840 248.450, 132.191 248, 131.059 248 C 129.927 248, 129 248.450, 129 249 M 261 252.566 C 261 255.303, 263.003 258, 265.035 258 C 267.291 258, 267.793 254.193, 265.800 252.200 C 264.083 250.483, 261 250.718, 261 252.566" stroke="none" fill="black" fill-rule="evenodd"/>
</svg>