<svg xmlns="http://www.w3.org/2000/svg" width="300" height="300" viewBox="0 0 300 300" version="1.1">
	<path d="M 152.756 19.209 C 145.878 25.688, 143.054 30.454, 144.963 32.363 C 145.533 32.933, 146 34.210, 146 35.200 C 146 39.496, 151.178 35.848, 158.971 26.061 C 163.028 20.966, 164.036 18.983, 163.799 16.561 C 163.294 11.392, 160.292 12.112, 152.756 19.209 M 149.250 26.707 C 146.856 31.861, 147.872 33.526, 151.107 29.750 C 154.922 25.295, 155.301 23.999, 152.785 24.008 C 151.285 24.013, 150.071 24.940, 149.250 26.707 M 129.763 39.525 C 127.158 41.436, 124.605 43, 124.090 43 C 122.490 43, 117 48.102, 117 49.589 C 117 52.529, 120.984 50.777, 128.855 44.376 C 133.335 40.733, 137 37.358, 137 36.876 C 137 35.160, 134.431 36.100, 129.763 39.525 M 123.918 54.356 C 120.969 56.588, 120.008 61.418, 120.010 74 C 120.012 87.767, 118.577 110.220, 117.470 113.755 C 117.059 115.068, 117.264 116.613, 117.959 117.451 C 118.770 118.428, 119.254 125.107, 119.462 138.196 C 119.833 161.487, 120.586 168, 122.906 168 C 123.813 168, 125.574 167.286, 126.820 166.413 C 128.428 165.287, 129.450 165.128, 130.339 165.867 C 131.166 166.553, 133.788 166.612, 138.046 166.040 C 144.132 165.222, 152.981 164.702, 155.750 164.999 C 163.646 165.847, 209.938 163.177, 216 161.524 C 225.104 159.041, 224.687 158.653, 225.380 170.250 C 225.716 175.887, 225.996 181.546, 226.001 182.825 C 226.015 186.519, 227.884 189.341, 229.453 188.039 C 231.034 186.727, 232 188.640, 232 193.082 C 232 196.673, 230.447 196.915, 229.579 193.459 C 228.737 190.103, 227.394 191.085, 226.530 195.691 C 226.009 198.468, 226.218 199.686, 227.358 200.520 C 228.315 201.220, 229.104 204.027, 229.479 208.067 C 229.807 211.605, 230.509 214.650, 231.038 214.833 C 231.567 215.017, 232 215.565, 232 216.052 C 232 216.539, 231.325 216.678, 230.500 216.362 C 229.260 215.886, 229 216.931, 229 222.393 C 229 228.760, 229.090 229, 231.481 229 C 233.383 229, 234.095 228.358, 234.530 226.250 C 234.843 224.738, 235.639 221.700, 236.299 219.500 C 237.664 214.953, 237.664 214.939, 236.524 178.801 C 236.061 164.117, 235.353 151.572, 234.952 150.923 C 234.398 150.025, 231.388 150.129, 222.362 151.356 C 215.838 152.242, 208.614 153.360, 206.310 153.839 C 204.005 154.318, 195.455 154.767, 187.310 154.838 C 179.164 154.909, 169.125 155.311, 165 155.733 C 160.875 156.155, 150.637 156.365, 142.250 156.200 L 127 155.900 127 150.450 L 127 145 146.750 144.809 C 157.613 144.705, 170.775 144.513, 176 144.383 C 181.225 144.253, 186.946 144.127, 188.713 144.103 C 190.480 144.078, 193.529 143.388, 195.488 142.570 C 197.446 141.751, 199.730 141.343, 200.562 141.662 C 202.627 142.455, 206 139.201, 206 136.416 C 206 132.030, 202.240 130.333, 198.500 133.032 C 195.881 134.923, 182.040 135.876, 155.880 135.968 L 127.261 136.069 126.770 127.785 C 126.501 123.228, 126.479 118.965, 126.723 118.312 C 127.043 117.454, 131.243 117.186, 141.833 117.350 C 159.400 117.621, 169.004 116.753, 183.960 113.541 C 188.063 112.660, 191.713 111.465, 192.071 110.885 C 192.460 110.256, 193.568 110.906, 194.819 112.497 C 196.028 114.034, 197.675 115.021, 198.708 114.828 C 201.442 114.316, 204.149 105.618, 203.478 99.500 C 203.177 96.750, 202.669 87.525, 202.349 79 C 201.391 53.414, 201.686 53.647, 171.830 54.880 C 148.496 55.843, 131.628 55.574, 127.965 54.178 C 126.223 53.515, 124.957 53.571, 123.918 54.356 M 184.052 57.947 C 182.919 58.663, 183.201 59.012, 185.349 59.551 C 188.345 60.303, 189.571 59.733, 188.541 58.067 C 187.738 56.767, 185.991 56.720, 184.052 57.947 M 170.995 59.003 C 169.393 59.993, 169.745 60.702, 172 61.023 C 174.915 61.438, 177 60.987, 177 59.941 C 177 59.359, 176.530 59.172, 175.956 59.527 C 175.382 59.882, 174.355 59.709, 173.673 59.143 C 172.922 58.520, 171.866 58.465, 170.995 59.003 M 146 60.500 C 146 61.362, 146.902 62, 148.122 62 C 149.896 62, 150.040 61.753, 149 60.500 C 148.315 59.675, 147.360 59, 146.878 59 C 146.395 59, 146 59.675, 146 60.500 M 132 60.383 C 132 60.594, 132.901 61.002, 134.001 61.290 C 135.102 61.578, 135.751 61.405, 135.442 60.907 C 134.904 60.036, 132 59.594, 132 60.383 M 183.187 62.126 C 180.677 63.055, 155.160 64.316, 144 64.063 C 139.875 63.970, 134.528 63.452, 132.117 62.913 C 129.707 62.373, 127.607 62.060, 127.450 62.216 C 126.795 62.872, 126.008 100.846, 126.571 104.616 L 127.187 108.732 152.843 108.493 C 172.580 108.309, 180 107.879, 185 106.626 C 188.575 105.731, 192.572 104.750, 193.883 104.447 C 196.165 103.919, 196.243 103.619, 195.739 97.331 C 194.943 87.416, 194.013 86.822, 181.043 87.949 C 174.469 88.520, 169.936 88.501, 168.808 87.897 C 167.649 87.277, 164.806 87.320, 160.758 88.018 C 157.316 88.612, 150.012 88.963, 144.527 88.799 C 135.148 88.518, 134.483 88.358, 133.363 86.107 C 131.876 83.118, 132.585 81.127, 135.360 80.497 C 139.236 79.617, 188.450 79.517, 190.750 80.384 C 192.965 81.220, 193 81.112, 193 73.308 C 193 68.435, 192.506 64.706, 191.716 63.627 C 190.248 61.619, 186.393 60.941, 183.187 62.126 M 146 83.640 C 146 83.992, 146.787 84.877, 147.750 85.608 C 149.853 87.204, 154 87.425, 154 85.941 C 154 85.359, 154.409 85.135, 154.910 85.444 C 155.410 85.753, 156.648 85.688, 157.660 85.299 C 159.283 84.675, 159.206 84.510, 157 83.896 C 153.758 82.993, 146 82.812, 146 83.640 M 163 83.941 C 163 85.487, 164.878 86.174, 167.141 85.455 C 168.810 84.926, 168.969 84.594, 167.882 83.906 C 166.042 82.740, 163 82.762, 163 83.941 M 170 84.383 C 170 85.232, 175.085 85.671, 175.583 84.866 C 175.877 84.390, 174.741 84, 173.059 84 C 171.377 84, 170 84.173, 170 84.383 M 121.079 93.583 C 121.127 94.748, 121.364 94.985, 121.683 94.188 C 121.972 93.466, 121.936 92.603, 121.604 92.271 C 121.272 91.939, 121.036 92.529, 121.079 93.583 M 197.079 100.583 C 197.127 101.748, 197.364 101.985, 197.683 101.188 C 197.972 100.466, 197.936 99.603, 197.604 99.271 C 197.272 98.939, 197.036 99.529, 197.079 100.583 M 171 110.500 C 170.315 111.325, 168.573 112.046, 167.128 112.102 C 164.850 112.191, 164.966 112.320, 168 113.068 C 172.403 114.155, 174 113.613, 174 111.031 C 174 108.631, 172.737 108.407, 171 110.500 M 34.268 114 C 33.326 115.100, 31.981 116, 31.278 116 C 30.575 116, 30 116.450, 30 117 C 30 117.550, 30.644 118, 31.432 118 C 32.415 118, 32.750 118.861, 32.501 120.750 C 32.301 122.263, 32.107 123.849, 32.069 124.275 C 32.031 124.701, 30.884 125.474, 29.519 125.993 C 27.870 126.620, 27.235 127.450, 27.626 128.468 C 27.949 129.311, 28.673 130, 29.234 130 C 29.855 130, 30.067 131.949, 29.776 134.982 C 29.512 137.722, 29.568 140.235, 29.899 140.566 C 30.229 140.897, 30.577 144.618, 30.672 148.834 C 31.215 173.039, 32.251 179.309, 35.791 179.820 C 38.904 180.269, 39.304 178.383, 38.010 169.353 C 37.016 162.414, 35.863 142.931, 35.594 128.500 L 35.500 123.500 39 123.762 C 40.925 123.907, 48.800 124.216, 56.500 124.449 C 71.084 124.892, 81.094 125.715, 83.605 126.679 C 85.851 127.541, 87.678 132.872, 89.378 143.523 C 90.227 148.846, 91.338 153.718, 91.846 154.350 C 93.213 156.051, 92.198 174.913, 90.509 179.207 C 88.778 183.606, 89.945 184.921, 93.509 182.586 C 97.620 179.892, 98.323 177.206, 98.730 162.631 C 99.294 142.436, 95.965 125.245, 90.549 120.379 C 87.382 117.534, 76.464 116.066, 58.102 116.018 C 45.514 115.984, 43.298 115.729, 40.484 113.990 C 36.513 111.536, 36.378 111.536, 34.268 114 M 129.543 112.931 C 128.598 114.459, 130.448 114.964, 134.551 114.298 C 137.670 113.792, 138.037 113.524, 136.457 112.906 C 133.687 111.822, 130.220 111.835, 129.543 112.931 M 140.500 114 C 140.840 114.550, 141.568 115, 142.118 115 C 142.668 115, 142.840 114.550, 142.500 114 C 142.160 113.450, 141.432 113, 140.882 113 C 140.332 113, 140.160 113.450, 140.500 114 M 158.250 113.689 C 159.213 113.941, 160.787 113.941, 161.750 113.689 C 162.713 113.438, 161.925 113.232, 160 113.232 C 158.075 113.232, 157.287 113.438, 158.250 113.689 M 42.047 118.500 C 42.023 119.986, 43.808 122.526, 44.435 121.898 C 44.735 121.599, 44.323 120.487, 43.521 119.427 C 42.720 118.367, 42.056 117.950, 42.047 118.500 M 57.500 120.954 L 50.500 121.555 57.752 122.027 C 63.140 122.378, 65.004 122.179, 65.002 121.250 C 65.001 120.563, 64.888 120.079, 64.750 120.177 C 64.612 120.274, 61.350 120.624, 57.500 120.954 M 196 136.969 C 196 137.501, 196.675 137.678, 197.500 137.362 C 198.325 137.045, 199 136.609, 199 136.393 C 199 136.177, 198.325 136, 197.500 136 C 196.675 136, 196 136.436, 196 136.969 M 179.527 138.956 C 179.202 139.482, 178.303 139.670, 177.529 139.373 C 176.755 139.076, 175.307 139.307, 174.311 139.886 C 172.751 140.793, 172.916 140.942, 175.500 140.956 C 179.431 140.978, 183 139.992, 183 138.883 C 183 137.696, 180.270 137.754, 179.527 138.956 M 92.079 140.583 C 92.127 141.748, 92.364 141.985, 92.683 141.188 C 92.972 140.466, 92.936 139.603, 92.604 139.271 C 92.272 138.939, 92.036 139.529, 92.079 140.583 M 127.500 141 C 127.160 141.550, 127.332 142, 127.882 142 C 128.432 142, 129.160 141.550, 129.500 141 C 129.840 140.450, 129.668 140, 129.118 140 C 128.568 140, 127.840 140.450, 127.500 141 M 141.813 141.683 C 142.534 141.972, 143.397 141.936, 143.729 141.604 C 144.061 141.272, 143.471 141.036, 142.417 141.079 C 141.252 141.127, 141.015 141.364, 141.813 141.683 M 174.442 158.099 C 173.129 158.613, 172.986 158.887, 174 158.945 C 175.226 159.015, 175.252 159.188, 174.143 159.890 C 171.692 161.443, 174.396 161.686, 180.500 160.461 C 183.800 159.798, 186.050 159.179, 185.500 159.085 C 184.950 158.990, 182.674 158.559, 180.442 158.126 C 178.211 157.693, 175.511 157.681, 174.442 158.099 M 229 159.559 C 229 161.010, 229.433 161.851, 230 161.500 C 230.550 161.160, 231 160.009, 231 158.941 C 231 157.873, 230.550 157, 230 157 C 229.450 157, 229 158.152, 229 159.559 M 143.250 159.662 C 142.563 159.940, 142 160.804, 142 161.583 C 142 162.363, 142.563 163.042, 143.250 163.094 C 150.205 163.614, 154.613 163.449, 155.157 162.648 C 155.984 161.433, 155.102 159, 153.834 159 C 153.310 159, 153.131 159.403, 153.435 159.895 C 154.460 161.554, 151.085 161.926, 148.281 160.463 C 145.309 158.913, 145.165 158.890, 143.250 159.662 M 159.268 160.607 C 157.783 161.745, 157.726 162.111, 158.917 162.893 C 159.758 163.446, 161.277 163.465, 162.658 162.940 C 163.936 162.454, 165.667 162.319, 166.504 162.640 C 168.228 163.301, 171.254 161.220, 170.453 159.924 C 169.629 158.591, 161.231 159.104, 159.268 160.607 M 206.558 159.907 C 206.249 160.405, 206.898 160.578, 207.999 160.290 C 210.334 159.679, 210.629 159, 208.559 159 C 207.766 159, 206.866 159.408, 206.558 159.907 M 130 162.583 C 130 163.454, 130.534 163.989, 131.188 163.771 C 133.042 163.153, 133.349 161, 131.583 161 C 130.713 161, 130 161.713, 130 162.583 M 136.510 162.016 C 136.856 162.575, 137.557 162.774, 138.069 162.457 C 139.456 161.600, 139.198 161, 137.441 161 C 136.584 161, 136.165 161.457, 136.510 162.016 M 160 169.965 C 160 171.045, 159.052 172.437, 157.894 173.057 C 155.925 174.110, 155.811 174.848, 156.144 184.330 L 156.500 194.475 153.500 195.119 C 151.850 195.474, 146.584 195.817, 141.797 195.882 C 133.078 196, 129.503 196.919, 125.191 200.151 L 122.881 201.881 124.941 203.941 C 126.983 205.983, 132.869 206.798, 134.415 205.252 C 135.556 204.111, 154.210 203.930, 155.556 205.046 C 156.390 205.738, 156.485 207.377, 155.878 210.623 C 155.163 214.451, 155.340 215.668, 156.936 217.910 C 159.201 221.091, 159.753 233.844, 158.812 261.305 L 158.236 278.110 160.856 277.805 C 164.165 277.420, 164.603 275.197, 165.648 253.500 C 166.550 234.764, 166.553 235.772, 165.564 221 C 164.744 208.762, 165.696 203.285, 168.457 204.345 C 169.242 204.647, 171.292 204.490, 173.012 203.997 C 174.732 203.503, 178.920 203.013, 182.319 202.906 C 190.932 202.636, 200.192 200.643, 201.348 198.811 C 201.881 197.964, 202.023 196.503, 201.663 195.564 C 201.114 194.132, 200.155 193.958, 195.754 194.492 C 192.864 194.842, 184.749 195.238, 177.721 195.372 C 165.116 195.612, 164.934 195.584, 164.362 193.308 C 164.044 192.039, 164.071 189.852, 164.424 188.448 C 164.776 187.045, 164.760 181.870, 164.389 176.948 C 163.799 169.140, 163.477 168, 161.857 168 C 160.678 168, 160 168.717, 160 169.965 M 37.285 184.883 C 30.514 185.555, 26.589 187.989, 28.765 190.165 C 29.671 191.071, 30.778 190.899, 33.536 189.422 C 36.935 187.603, 37.181 187.594, 38.114 189.250 C 39.186 191.153, 42 191.654, 42 189.941 C 42 189.359, 42.489 189.184, 43.087 189.554 C 44.389 190.359, 43.251 191.596, 40.500 192.366 C 37.765 193.131, 85.440 192.205, 90.750 191.389 C 93.906 190.905, 95 190.280, 95 188.965 C 95 187.033, 90.669 186.597, 61 185.537 C 53.575 185.272, 46.600 184.877, 45.500 184.660 C 44.400 184.443, 40.703 184.543, 37.285 184.883 M 51 191 C 51 191.550, 51.450 192, 52 192 C 52.550 192, 53 191.550, 53 191 C 53 190.450, 52.550 190, 52 190 C 51.450 190, 51 190.450, 51 191 M 156 201 C 156 201.550, 156.450 202, 157 202 C 157.550 202, 158 201.550, 158 201 C 158 200.450, 157.550 200, 157 200 C 156.450 200, 156 200.450, 156 201 M 204.518 204.971 C 203.493 206.630, 206.578 211.311, 212.206 216.634 C 218.381 222.473, 221.536 223.893, 223.646 221.782 C 224.878 220.551, 224.774 219.982, 222.875 217.568 C 220.903 215.062, 206.830 204, 205.612 204 C 205.340 204, 204.848 204.437, 204.518 204.971 M 158.697 208.393 C 158.288 209.434, 158.189 210.522, 158.476 210.810 C 159.389 211.722, 160.191 210.227, 159.809 208.328 C 159.459 206.588, 159.405 206.591, 158.697 208.393 M 148.500 210.765 C 146.928 211.920, 144.997 215.798, 145.029 217.736 C 145.052 219.096, 145.740 218.751, 148.029 216.234 C 151.740 212.155, 152.086 208.130, 148.500 210.765 M 174.679 226.594 C 173.956 231.046, 177.304 236.612, 182.953 240.350 C 185.040 241.731, 188.010 244.031, 189.554 245.462 C 191.098 246.893, 193.368 248.612, 194.599 249.282 C 195.829 249.952, 199.568 252.217, 202.907 254.316 C 206.246 256.414, 209.433 257.850, 209.989 257.507 C 212.581 255.905, 210.448 252.696, 201.750 245.114 C 196.662 240.679, 192.050 236.628, 191.500 236.111 C 190.950 235.595, 187.612 232.434, 184.082 229.086 C 180.552 225.739, 177.124 223, 176.463 223 C 175.802 223, 174.999 224.617, 174.679 226.594 M 137.832 235.236 C 136.564 237.017, 134.733 239.267, 133.764 240.236 C 131.605 242.395, 131.492 244, 133.500 244 C 134.325 244, 135 243.436, 135 242.747 C 135 242.057, 136.350 240.219, 138 238.662 C 139.650 237.105, 141 234.969, 141 233.915 C 141 231.282, 140.499 231.491, 137.832 235.236 M 122.194 243.345 C 119.276 246.730, 115.901 250.651, 114.694 252.058 C 113.487 253.464, 110.813 255.639, 108.750 256.889 C 104.698 259.346, 104.084 260.711, 106.599 261.676 C 107.709 262.102, 109.989 260.336, 114.061 255.895 C 117.286 252.378, 122.192 247.161, 124.962 244.301 C 127.733 241.442, 130 238.630, 130 238.051 C 130 235.647, 127.184 237.557, 122.194 243.345" stroke="none" fill="black" fill-rule="evenodd"/>
</svg>