<svg xmlns="http://www.w3.org/2000/svg" width="300" height="300" viewBox="0 0 300 300" version="1.1">
	<path d="M 189.607 47.581 C 189.201 48.640, 189.681 50.123, 190.844 51.405 C 191.890 52.557, 192.937 54.128, 193.171 54.896 C 193.405 55.663, 195.150 56.448, 197.049 56.640 C 210.638 58.012, 214.640 58.061, 224.451 56.973 C 230.528 56.299, 236.723 55.811, 238.218 55.888 C 241.665 56.064, 244.949 51.727, 243.321 49.149 C 242.402 47.694, 239.532 47.500, 218.890 47.500 C 206.025 47.500, 194.323 47.129, 192.886 46.676 C 190.838 46.030, 190.127 46.226, 189.607 47.581 M 200 52 C 200 52.550, 200.477 53, 201.059 53 C 201.641 53, 201.840 52.550, 201.500 52 C 201.160 51.450, 200.684 51, 200.441 51 C 200.198 51, 200 51.450, 200 52 M 189.084 59.063 C 186.880 60.911, 186.627 62.008, 186.203 71.535 C 185.903 78.297, 186.125 82.445, 186.833 83.299 C 187.543 84.155, 187.731 87.718, 187.368 93.440 C 186.580 105.857, 188.481 111.746, 194.156 114.475 C 196.416 115.561, 198.763 117.249, 199.373 118.225 C 199.982 119.201, 201.273 120, 202.241 120 C 203.246 120, 204.004 120.750, 204.010 121.750 C 204.019 123.275, 201.238 132.545, 198.985 138.500 C 198.568 139.600, 197.668 142.525, 196.984 145 C 196.300 147.475, 195.124 150.918, 194.370 152.651 C 193.617 154.384, 193 156.315, 193 156.941 C 193 157.567, 192.100 159.844, 191 162 C 188.012 167.858, 188.427 170.282, 191.644 165.760 C 194.698 161.468, 198.261 153.298, 201.134 144 C 203.987 134.764, 206.095 129.813, 208.185 127.436 C 209.183 126.300, 210 124.188, 210 122.742 C 210 119.454, 213.315 117, 217.758 117 C 219.580 117, 222.067 116.368, 223.285 115.596 C 224.503 114.824, 227.387 113.889, 229.692 113.518 C 231.998 113.147, 234.416 112.204, 235.065 111.422 C 235.714 110.640, 236.658 110, 237.163 110 C 237.668 110, 239.413 109.015, 241.040 107.812 C 244.726 105.087, 245.290 100, 241.908 100 C 240.757 100, 238.671 100.900, 237.273 102 C 235.874 103.100, 233.963 104, 233.025 104 C 231.566 104, 221.775 106.388, 214.250 108.578 C 212.195 109.176, 211.625 108.577, 211.796 106 C 212.657 93.079, 214.432 76.924, 215.487 72.414 C 216.262 69.099, 216.491 66.115, 216.008 65.623 C 214.399 63.986, 210.509 66.009, 208.053 69.761 C 205.380 73.846, 204.600 81.517, 206.724 82.830 C 208.326 83.820, 207.252 106.948, 205.597 107.101 C 201.337 107.495, 197.175 106.528, 195.189 104.683 C 193.020 102.669, 192.903 101.948, 193.290 93.018 C 193.517 87.783, 194.309 78.894, 195.050 73.265 C 196.935 58.936, 194.929 54.161, 189.084 59.063 M 142.801 64.532 C 142.508 64.825, 136.246 65.729, 128.884 66.540 C 118.716 67.662, 115.200 68.421, 114.250 69.699 C 113.563 70.625, 113 71.640, 113 71.954 C 113 72.268, 111.987 72.975, 110.750 73.524 C 109.345 74.147, 108.587 75.269, 108.731 76.511 C 108.859 77.605, 109.131 81.384, 109.337 84.908 C 109.608 89.537, 110.196 91.670, 111.455 92.591 C 112.858 93.617, 113.061 94.682, 112.492 98.045 C 112.104 100.344, 112.093 105.500, 112.468 109.503 C 113.109 116.347, 113.309 116.816, 115.825 117.378 C 119.384 118.173, 122.369 120.595, 121.508 121.988 C 121.019 122.778, 120.080 122.627, 118.321 121.474 C 114.521 118.985, 114.352 120.521, 118.054 123.902 C 120.520 126.155, 122.484 126.979, 125.920 127.202 C 129.952 127.464, 130.540 127.799, 130.835 130 C 131.281 133.336, 133 135.082, 133 132.200 C 133 130.845, 133.618 130, 134.608 130 C 135.846 130, 136.074 130.633, 135.598 132.750 C 134.273 138.640, 129.711 152.697, 127.890 156.500 C 126.836 158.700, 125.344 163.030, 124.575 166.123 C 123.805 169.216, 122.585 172.692, 121.863 173.848 C 120.827 175.507, 120.808 176.208, 121.775 177.175 C 123.616 179.016, 124.496 177.566, 128.352 166.321 C 130.273 160.722, 132.785 154.014, 133.935 151.414 C 135.086 148.813, 136.307 144.844, 136.650 142.593 C 137.892 134.432, 140.586 133.838, 141.545 141.514 C 141.933 144.621, 143.112 148.144, 144.245 149.585 C 145.918 151.712, 146.067 152.558, 145.128 154.618 C 143.687 157.782, 143.702 160.859, 145.189 166.418 C 147.291 174.277, 153.229 174.788, 155.921 167.342 C 156.613 165.428, 158.357 163.349, 159.972 162.515 C 161.531 161.708, 163.721 159.569, 164.839 157.761 C 165.956 155.953, 167.912 153.561, 169.185 152.446 C 170.458 151.330, 173.075 148.086, 175 145.235 C 176.925 142.384, 178.953 140.040, 179.506 140.026 C 180.970 139.988, 185.335 129.668, 184.317 128.650 C 183.606 127.940, 181 130.516, 181 131.929 C 181 132.518, 180.540 133, 179.979 133 C 177.745 133, 171 138.359, 171 140.133 C 171 141.160, 170.512 142, 169.915 142 C 168.840 142, 154.808 153.806, 154.167 155.250 C 153.570 156.592, 152.148 156.042, 151.584 154.250 C 150.345 150.312, 148.036 135.191, 148.018 130.905 C 148 126.361, 150.034 123, 152.802 123 C 153.432 123, 157.183 121.425, 161.139 119.500 C 165.094 117.575, 168.931 116, 169.665 116 C 170.399 116, 171 115.325, 171 114.500 C 171 113.675, 171.845 113, 172.878 113 C 175.680 113, 177.642 110.230, 176.302 108.166 C 175.017 106.188, 169.408 106.342, 167.044 108.421 C 166.195 109.167, 163.925 110.086, 162 110.463 C 158.021 111.243, 148.149 114.931, 146.208 116.362 C 143.876 118.082, 142.612 115.521, 144.426 112.753 C 145.391 111.281, 146.385 106.533, 146.902 100.935 C 147.388 95.668, 148.254 91.415, 148.883 91.206 C 150.493 90.669, 150.257 87.458, 148.500 86 C 146.724 84.526, 146.514 78.161, 148.124 74.626 C 149.146 72.385, 150.014 72.095, 157.598 71.463 C 166.434 70.727, 168.621 69.533, 167.515 66.048 C 166.909 64.137, 166.079 64, 155.099 64 C 148.628 64, 143.094 64.239, 142.801 64.532 M 123.500 72 C 123.160 72.550, 123.584 73, 124.441 73 C 125.298 73, 126 72.550, 126 72 C 126 71.450, 125.577 71, 125.059 71 C 124.541 71, 123.840 71.450, 123.500 72 M 128.211 75.605 C 127.501 76.372, 126.109 77, 125.116 77 C 121.806 77, 120.283 80.182, 119.611 88.500 C 119.256 92.900, 118.689 99.120, 118.353 102.323 C 117.638 109.116, 118.852 112.127, 123.448 114.968 C 128.024 117.796, 136.201 118.657, 138.323 116.534 C 140.429 114.429, 140.513 108.162, 138.500 103.346 C 136.712 99.067, 136.591 95.632, 138.127 92.763 C 139.266 90.635, 139.456 80.012, 138.414 76.728 C 138.005 75.439, 136.961 75.007, 134.636 75.164 C 132.870 75.283, 130.991 75.117, 130.462 74.795 C 129.933 74.473, 128.920 74.838, 128.211 75.605 M 113 82.559 C 113 84.010, 113.433 84.851, 114 84.500 C 114.550 84.160, 115 83.009, 115 81.941 C 115 80.873, 114.550 80, 114 80 C 113.450 80, 113 81.152, 113 82.559 M 194 110.729 C 194.825 111.043, 195.813 111.782, 196.196 112.371 C 197.094 113.755, 198.413 112.477, 197.541 111.067 C 197.179 110.480, 195.896 110.036, 194.691 110.079 C 193.200 110.133, 192.979 110.340, 194 110.729 M 36.967 124.913 C 35.894 126.520, 34.022 127.314, 30 127.867 C 19.556 129.301, 16.106 132.421, 16.809 139.798 C 17.087 142.713, 17.716 143.954, 19.096 144.315 C 20.143 144.589, 21 145.675, 21 146.730 C 21 147.784, 22.081 154.238, 23.401 161.073 C 27.077 180.096, 27.308 183.756, 24.958 185.768 C 22.123 188.195, 22.418 190.344, 25.506 189.754 C 27.076 189.454, 28.813 189.970, 30.159 191.138 C 32.346 193.035, 37 193.709, 37 192.129 C 37 190.730, 48.424 189.780, 63.332 189.941 C 75.898 190.077, 77.134 189.934, 76.832 188.378 C 76.437 186.339, 72.041 184.884, 58.924 182.451 C 51.046 180.989, 48.531 180.881, 44.732 181.837 C 42.192 182.477, 38.262 183, 35.998 183 L 31.883 183 32.202 166.559 C 32.490 151.719, 32.725 149.846, 34.615 147.314 C 35.766 145.772, 37.336 144.493, 38.104 144.472 C 38.872 144.450, 42.338 144.064, 45.806 143.612 C 51.864 142.823, 52.101 142.686, 51.806 140.145 C 51.554 137.970, 50.923 137.444, 48.250 137.187 C 44.850 136.859, 43.923 135.350, 46.512 134.357 C 48.852 133.459, 57.870 133.496, 64.428 134.430 C 72.100 135.523, 76.457 139.248, 78.470 146.434 C 80.912 155.152, 82.241 167.175, 81.545 174.243 C 80.714 182.672, 82.411 183.335, 86.341 176.115 C 88.639 171.892, 89 170.054, 89 162.562 C 89 153.170, 86.869 141.484, 84.185 136.155 C 82.472 132.755, 78.158 128.979, 72.199 125.663 C 69.559 124.194, 65.847 123.715, 53.666 123.270 C 38.786 122.727, 38.400 122.765, 36.967 124.913 M 212.414 127.552 C 211.597 129.506, 210.649 134.740, 210.306 139.182 C 209.747 146.439, 209.922 147.695, 212.025 151.546 C 213.386 154.037, 216.176 156.977, 218.684 158.562 C 221.058 160.062, 223 161.585, 223 161.945 C 223 162.305, 226.262 163.411, 230.250 164.403 C 237.096 166.105, 237.820 166.113, 243.249 164.532 C 247.828 163.199, 249.122 162.362, 249.610 160.417 C 250.274 157.772, 249.361 150.035, 247.983 146.620 C 247.512 145.454, 246.853 142.813, 246.518 140.750 C 245.952 137.263, 245.669 137, 242.474 137 C 239.638 137, 238.928 137.439, 238.407 139.513 C 237.428 143.415, 238.878 150.580, 241.044 152.540 C 246.949 157.884, 239.442 159.482, 231 154.678 C 229.075 153.583, 226.586 152.195, 225.468 151.593 C 217.722 147.425, 214.275 139.653, 215.571 129.280 C 216.357 122.985, 214.701 122.078, 212.414 127.552 M 141 131.500 C 141 132.325, 141.436 133, 141.969 133 C 142.501 133, 142.678 132.325, 142.362 131.500 C 142.045 130.675, 141.609 130, 141.393 130 C 141.177 130, 141 130.675, 141 131.500 M 216 151.444 C 216 151.822, 216.466 153.002, 217.035 154.066 C 218.137 156.124, 221.434 156.802, 220.779 154.836 C 220.329 153.488, 216 150.415, 216 151.444 M 158.200 155.200 C 156.567 156.833, 156.692 158, 158.500 158 C 159.333 158, 160 157.111, 160 156 C 160 153.669, 159.814 153.586, 158.200 155.200 M 226 158.810 C 226 159.336, 226.926 160.009, 228.057 160.305 C 229.366 160.647, 229.972 160.416, 229.724 159.671 C 229.245 158.233, 226 157.482, 226 158.810 M 150.079 164.583 C 150.127 165.748, 150.364 165.985, 150.683 165.188 C 150.972 164.466, 150.936 163.603, 150.604 163.271 C 150.272 162.939, 150.036 163.529, 150.079 164.583 M 195.757 200.392 C 191.871 201.207, 148.840 201.551, 143.022 200.814 C 140.815 200.534, 140.443 200.991, 139.616 205 C 138.485 210.478, 138.408 210.583, 136.613 209.094 C 135.739 208.368, 134.947 208.277, 134.586 208.861 C 133.864 210.029, 134.900 213, 136.029 213 C 137.526 213, 139.111 219.794, 138.989 225.681 C 138.922 228.882, 139.163 232.469, 139.525 233.654 C 140.025 235.290, 139.680 235.967, 138.091 236.471 C 135.417 237.320, 135.446 238.781, 138.194 241.706 C 140.153 243.792, 140.259 244.394, 139.188 247.356 C 138.279 249.869, 138.265 251.462, 139.129 253.941 C 139.817 255.912, 140.028 259.798, 139.662 263.722 C 139.327 267.302, 139.482 271.031, 140.005 272.009 C 140.709 273.325, 140.399 274.495, 138.810 276.515 C 136.248 279.772, 137.141 281.949, 141.577 283.263 C 145.779 284.507, 168.270 283.368, 178.265 281.404 C 185.325 280.017, 188.386 279.907, 196.142 280.763 C 206.137 281.867, 213.187 283.366, 216.619 285.117 C 219.903 286.792, 222.500 285.858, 222.500 283 C 222.500 281.336, 221.857 280.403, 220.532 280.148 C 219.450 279.940, 217.133 278.678, 215.383 277.343 C 208.414 272.027, 190.848 269.474, 178.326 271.957 C 160.244 275.542, 142.985 275.554, 143.864 271.980 C 144.065 271.166, 144.154 264.820, 144.063 257.878 C 143.837 240.653, 143.861 240.587, 150.817 239.172 C 153.943 238.537, 157.738 237.735, 159.250 237.392 C 161.581 236.862, 162 237.090, 162 238.883 C 162 240.851, 161.471 241, 154.500 241 C 150.375 241, 147 241.401, 147 241.892 C 147 243.405, 150.787 243.661, 171.986 243.579 C 190.303 243.508, 192.506 243.323, 192.794 241.827 C 193.004 240.739, 192.310 240, 190.808 239.713 C 188.990 239.366, 189.160 239.243, 191.611 239.136 C 194.376 239.015, 194.672 239.266, 194.268 241.380 C 193.817 243.740, 193.900 243.764, 204.156 244.220 C 214.298 244.671, 217 244.097, 217 241.493 C 217 236.869, 196.172 233.841, 164.750 233.896 C 153.887 233.915, 144.978 233.834, 144.950 233.715 C 144.923 233.597, 144.657 228.077, 144.359 221.448 C 143.937 212.060, 144.115 209.150, 145.162 208.281 C 146.161 207.452, 146.971 207.506, 148.319 208.492 C 149.317 209.221, 150.097 210.196, 150.054 210.659 C 150.010 211.122, 150.993 211.649, 152.237 211.832 C 155.354 212.289, 181.809 212.097, 185.500 211.590 C 187.150 211.364, 193.853 210.688, 200.396 210.088 C 213.432 208.893, 215 209.292, 215 213.801 C 215 216.369, 215.472 218.261, 218.416 227.500 C 219.293 230.250, 220.008 234.112, 220.005 236.083 C 220.002 238.054, 220.332 239.998, 220.737 240.404 C 221.143 240.810, 221.614 246.622, 221.784 253.321 C 221.953 260.019, 222.205 267.300, 222.344 269.500 C 222.482 271.700, 222.686 275.188, 222.798 277.250 C 222.956 280.180, 223.411 281, 224.878 281 C 227.886 281, 229.084 278.779, 228.040 275.138 C 227.534 273.375, 227.101 261.081, 227.078 247.819 C 227.054 234.557, 226.776 222.084, 226.458 220.103 C 225.429 213.682, 221.830 203.156, 220.143 201.634 C 218.162 199.845, 202.236 199.034, 195.757 200.392 M 202.494 203.839 C 201.170 205.163, 202.333 206, 205.500 206 C 207.425 206, 209 205.601, 209 205.113 C 209 204.149, 203.300 203.033, 202.494 203.839 M 171 207.500 C 171 208.417, 171.484 209.005, 172.075 208.808 C 172.666 208.611, 173.150 208.022, 173.150 207.500 C 173.150 206.978, 172.666 206.389, 172.075 206.192 C 171.484 205.995, 171 206.583, 171 207.500 M 200.813 207.683 C 201.534 207.972, 202.397 207.936, 202.729 207.604 C 203.061 207.272, 202.471 207.036, 201.417 207.079 C 200.252 207.127, 200.015 207.364, 200.813 207.683 M 183.750 239.662 C 184.438 239.940, 185.563 239.940, 186.250 239.662 C 186.938 239.385, 186.375 239.158, 185 239.158 C 183.625 239.158, 183.063 239.385, 183.750 239.662 M 193.560 275.903 C 192.835 277.076, 198.606 279.089, 200.554 278.341 C 201.707 277.899, 201.787 277.448, 200.903 276.383 C 199.622 274.840, 194.427 274.500, 193.560 275.903 M 176.500 277 C 176.126 277.605, 177.509 278, 180 278 C 182.491 278, 183.874 277.605, 183.500 277 C 183.160 276.450, 181.585 276, 180 276 C 178.415 276, 176.840 276.450, 176.500 277 M 148.559 279.517 C 146.738 280.909, 146.851 281, 150.392 281 C 152.967 281, 154.034 280.603, 153.750 279.750 C 153.143 277.924, 150.783 277.819, 148.559 279.517 M 160.500 278.916 L 156.500 279.549 160.754 280.180 C 165.813 280.930, 169.890 280.180, 167.835 278.877 C 167.101 278.411, 166.050 278.088, 165.500 278.157 C 164.950 278.227, 162.700 278.568, 160.500 278.916" stroke="none" fill="black" fill-rule="evenodd"/>
</svg>