<svg xmlns="http://www.w3.org/2000/svg" width="300" height="300" viewBox="0 0 300 300" version="1.1">
	<path d="M 180.512 14.252 C 179.418 14.865, 177.646 16.184, 176.573 17.183 C 175.501 18.182, 174.081 19, 173.418 19 C 171.463 19, 171 21.577, 171 32.459 C 171 39.485, 170.603 43.079, 169.750 43.775 C 169.063 44.336, 166.250 45.017, 163.500 45.290 C 160.750 45.562, 156.475 46.262, 154 46.845 C 151.525 47.428, 146.955 48.399, 143.844 49.004 C 138.396 50.062, 134 52.629, 134 54.752 C 134 55.312, 135.170 56.537, 136.600 57.474 C 138.917 58.992, 139.924 59.040, 145.850 57.914 C 149.508 57.220, 153.272 55.999, 154.215 55.202 C 155.182 54.386, 157.041 53.966, 158.477 54.240 C 159.877 54.508, 162.931 54.370, 165.262 53.934 C 172.601 52.559, 173.306 53.687, 173.586 67.254 C 173.718 73.640, 174.242 79.611, 174.752 80.522 C 175.615 82.063, 175.794 82.063, 177.340 80.518 C 178.253 79.604, 179 78.208, 179 77.415 C 179 76.622, 179.453 75.191, 180.007 74.236 C 180.562 73.281, 181.349 67.775, 181.757 62 L 182.500 51.500 189.500 50.870 C 193.350 50.524, 198.282 49.746, 200.460 49.143 C 203.931 48.181, 204.679 48.289, 206.524 50.023 C 209.041 52.387, 210.580 52.536, 211.365 50.491 C 212.260 48.159, 210.354 44.247, 207.952 43.485 C 206.763 43.107, 200.100 42.956, 193.145 43.149 L 180.500 43.500 180.158 40 C 179.832 36.669, 180.847 30.272, 183.095 21.500 C 183.664 19.281, 183.759 16.528, 183.310 15.318 C 182.628 13.483, 182.185 13.314, 180.512 14.252 M 163.762 49.372 C 160.213 50.475, 160.127 50.598, 162.074 51.814 C 164.145 53.108, 167.387 52.647, 169.797 50.716 C 170.860 49.864, 170.860 49.528, 169.797 48.854 C 168.291 47.898, 168.584 47.873, 163.762 49.372 M 187.500 49 C 187.160 49.550, 187.332 50, 187.882 50 C 188.432 50, 189.160 49.550, 189.500 49 C 189.840 48.450, 189.668 48, 189.118 48 C 188.568 48, 187.840 48.450, 187.500 49 M 153.500 51 C 153.160 51.550, 151.370 52, 149.523 52 C 145.254 52, 143 52.864, 143 54.500 C 143 56.732, 145.777 56.963, 148.344 54.944 C 149.703 53.875, 152.207 53, 153.908 53 C 155.990 53, 157 52.510, 157 51.500 C 157 49.819, 154.455 49.455, 153.500 51 M 27.820 82.250 C 27.644 83.487, 26.520 84.930, 25.323 85.456 C 22.590 86.655, 21.610 91.396, 22.898 97.180 C 23.427 99.556, 24.405 117.025, 25.070 136 C 25.741 155.120, 26.795 172.283, 27.434 174.500 C 28.445 178.004, 28.954 178.500, 31.544 178.500 L 34.500 178.500 34.442 162 C 34.410 152.925, 34.084 138.975, 33.717 131 C 33.350 123.025, 32.760 108.625, 32.406 99 C 31.803 82.616, 31.323 80.072, 28.820 80.015 C 28.445 80.007, 27.995 81.013, 27.820 82.250 M 182 82.660 C 180.625 82.886, 177.700 83.724, 175.499 84.523 C 171.740 85.887, 161.419 86.663, 137.176 87.404 C 125.067 87.773, 123.347 88.701, 124.747 94.103 C 125.479 96.930, 126.078 97.490, 128.314 97.438 C 129.791 97.403, 134.900 97.291, 139.667 97.188 C 149.978 96.964, 149.972 95.500, 139.660 95.500 C 135.722 95.500, 132.365 95.050, 132.200 94.501 C 132.035 93.951, 134.397 93.001, 137.449 92.390 C 141.780 91.522, 143.380 91.557, 144.735 92.548 C 145.836 93.354, 147.069 93.498, 148.104 92.944 C 150.054 91.901, 151.069 92.657, 150.324 94.598 C 149.946 95.582, 150.571 96, 152.418 96 C 154.310 96, 155.319 95.292, 156.007 93.482 C 157.131 90.525, 160.508 88.992, 164.301 89.717 C 166.809 90.197, 167.503 91.455, 167.075 94.750 C 166.842 96.542, 168.472 96.300, 172.754 93.905 C 176.003 92.088, 176.148 91.869, 173.841 92.249 C 171.911 92.568, 171.324 92.320, 171.698 91.344 C 171.982 90.605, 172.503 89.991, 172.857 89.980 C 173.211 89.969, 176.425 89.486, 180 88.908 C 190.552 87.199, 197 87.070, 197 88.565 C 197 89.280, 197.787 90.072, 198.750 90.326 C 199.713 90.579, 202.625 91.339, 205.222 92.015 C 211.677 93.695, 221.871 92.897, 223.566 90.579 C 225.723 87.629, 224.216 86.283, 217.964 85.575 C 214.710 85.207, 210.974 84.349, 209.662 83.668 C 207.360 82.474, 187.527 81.751, 182 82.660 M 43.389 88.980 C 40.682 90.074, 39.901 92.145, 41.416 94.215 C 42.398 95.559, 45.410 95.949, 58.501 96.425 C 73.815 96.982, 74.491 97.096, 77.065 99.562 C 78.836 101.259, 80.306 104.375, 81.428 108.811 C 82.358 112.490, 83.570 117.303, 84.121 119.506 C 84.800 122.220, 84.781 126.244, 84.062 131.980 C 82.640 143.322, 82.713 167.605, 84.189 173.998 C 85.641 180.289, 84.352 181.755, 79.559 179.264 C 77.877 178.389, 73.575 177.317, 70 176.881 C 60.484 175.721, 53.875 174.442, 50.685 173.145 C 46.626 171.494, 44.197 171.723, 40.904 174.068 C 37.534 176.468, 37.069 178.477, 40.066 177.693 C 42.626 177.024, 55.155 178.860, 56.450 180.094 C 57.775 181.357, 54.352 181.259, 51.934 179.965 C 50.582 179.241, 50 179.252, 50 180 C 50 180.741, 49.349 180.722, 47.884 179.938 C 46.203 179.038, 45.860 179.079, 46.213 180.139 C 46.651 181.453, 49.697 182.181, 59.500 183.311 C 63.013 183.716, 63.831 183.617, 62.250 182.976 C 61.013 182.475, 60 181.937, 60 181.782 C 60.001 181.126, 70.897 181.566, 71.582 182.250 C 71.995 182.662, 71.021 183.014, 69.417 183.030 C 67.280 183.053, 66.901 183.292, 68 183.925 C 69.508 184.793, 79.631 185.410, 88 185.143 L 92.500 184.999 92.431 149.250 C 92.357 111.011, 92.025 107.808, 87.194 98.725 C 83.513 91.803, 80.378 90.266, 67.445 89.040 C 54.554 87.817, 46.317 87.797, 43.389 88.980 M 179 91 C 179 91.550, 179.648 92, 180.441 92 C 181.234 92, 182.160 91.550, 182.500 91 C 182.840 90.450, 182.191 90, 181.059 90 C 179.927 90, 179 90.450, 179 91 M 185.813 90.683 C 186.534 90.972, 187.397 90.936, 187.729 90.604 C 188.061 90.272, 187.471 90.036, 186.417 90.079 C 185.252 90.127, 185.015 90.364, 185.813 90.683 M 60.510 93.016 C 60.856 93.575, 61.557 93.774, 62.069 93.457 C 63.456 92.600, 63.198 92, 61.441 92 C 60.584 92, 60.165 92.457, 60.510 93.016 M 159 94.427 C 159 95.354, 159.855 96, 161.083 96 C 163.520 96, 163.176 93.663, 160.667 93.177 C 159.680 92.985, 159 93.495, 159 94.427 M 234.085 112.397 C 233.409 113.213, 231.875 114.019, 230.677 114.190 C 228.869 114.447, 228.446 115.260, 228.181 118.984 C 227.845 123.714, 226.586 125.292, 223.830 124.435 C 222.911 124.149, 217.286 124.402, 211.330 124.997 C 203.672 125.762, 200.154 126.535, 199.319 127.636 C 197.219 130.405, 198.871 131.999, 203.857 132.015 C 207.112 132.026, 208.060 132.309, 207.029 132.961 C 203.227 135.365, 210.423 134.972, 221.220 132.184 C 223.846 131.507, 225.212 131.559, 225.862 132.362 C 226.368 132.988, 227.019 139.012, 227.307 145.750 L 227.832 158 217.539 158 C 206.062 158, 205.300 158.377, 204.298 164.553 L 203.692 168.284 209.096 167.642 C 212.068 167.289, 217.425 166.789, 221 166.531 C 224.575 166.272, 230.087 165.591, 233.249 165.017 C 248.992 162.157, 256.676 155.524, 242.702 156.857 C 239.478 157.164, 238.909 157.544, 239.319 159.113 C 239.910 161.373, 237.491 161.722, 236.638 159.500 C 236.322 158.675, 235.149 158, 234.031 158 C 231.575 158, 231.417 156.302, 233.644 153.841 C 234.805 152.558, 235.466 149.281, 235.894 142.690 C 236.567 132.323, 238.143 129.317, 242.350 130.373 C 245.733 131.222, 257.054 128.655, 258.090 126.804 C 259.825 123.703, 256.681 122.707, 247.555 123.467 L 239.100 124.171 238.800 117.846 C 238.571 113.012, 238.124 111.449, 236.908 111.217 C 236.032 111.051, 234.762 111.582, 234.085 112.397 M 140.499 116.173 C 138.267 118.537, 137.712 120.010, 137.838 123.230 C 138.045 128.503, 136.686 129.992, 131.628 130.035 C 126.318 130.081, 122.730 131.959, 124.028 134.012 C 125.365 136.126, 125.221 137, 123.535 137 C 122.730 137, 121.574 136.073, 120.968 134.939 C 119.605 132.393, 115.674 132.692, 115.162 135.381 C 114.964 136.416, 115.393 138.367, 116.116 139.716 C 117.561 142.418, 118.124 142.421, 129.601 139.796 C 132.956 139.028, 136.143 138.548, 136.684 138.728 C 137.266 138.922, 137.484 142.198, 137.220 146.778 C 136.911 152.121, 137.270 156.173, 138.386 159.932 C 140.852 168.230, 140.966 168.065, 132.923 167.765 C 127.024 167.544, 125.621 167.805, 124.503 169.331 C 123.520 170.672, 123.422 171.912, 124.136 173.961 L 125.112 176.759 138.806 176.378 C 146.338 176.168, 155.200 175.776, 158.500 175.506 C 168.503 174.687, 181 169.621, 181 166.385 C 181 164.598, 179.125 164.632, 174.654 166.500 C 170.563 168.210, 150.502 168.602, 148 167.022 C 146.825 166.279, 146.428 163.302, 146.167 153.287 C 145.973 145.834, 146.276 139.353, 146.892 137.750 C 147.915 135.092, 148.199 135, 155.368 135 C 161.035 135, 162.922 134.646, 163.361 133.502 C 164.271 131.131, 159.392 128.656, 152.878 128.185 L 147 127.760 147 124.005 C 147 118.579, 145.962 114.199, 144.547 113.656 C 143.872 113.397, 142.050 114.530, 140.499 116.173 M 210.626 130.533 C 209.684 132.987, 209.811 133.166, 212.250 132.820 C 213.488 132.644, 214.500 131.831, 214.500 131.014 C 214.500 128.937, 211.387 128.550, 210.626 130.533 M 215.559 162.532 C 213.662 163.967, 213.668 164, 215.809 164 C 217.090 164, 218 163.377, 218 162.500 C 218 160.690, 217.993 160.691, 215.559 162.532 M 131.469 172.050 C 130.519 173.588, 131.820 174.580, 133.104 173.296 C 133.822 172.578, 133.839 172.019, 133.156 171.597 C 132.596 171.251, 131.837 171.455, 131.469 172.050 M 149 171.900 L 144.500 172.500 148.823 173.812 C 152.146 174.821, 153.473 174.852, 154.562 173.949 C 155.912 172.828, 155.648 170.834, 154.191 171.150 C 153.811 171.233, 151.475 171.570, 149 171.900 M 137.441 173.572 C 135.607 175.057, 135.691 175.111, 138.969 174.553 C 143.338 173.809, 145.409 172, 141.891 172 C 140.511 172, 138.509 172.707, 137.441 173.572 M 178.962 196.339 C 178.397 196.938, 144.472 198.042, 130.182 197.926 C 121.098 197.853, 117 199.437, 117 203.023 C 117 205.042, 117.283 205.169, 122.500 205.482 C 124.150 205.582, 126.339 206.032, 127.365 206.483 C 128.921 207.166, 129.125 206.968, 128.593 205.292 C 127.701 202.481, 130.399 200.256, 132.542 202.035 C 133.612 202.923, 133.766 203.634, 133.042 204.358 C 130.604 206.796, 132.256 207.260, 140.750 206.521 C 145.563 206.103, 151.940 205.828, 154.922 205.910 C 158.372 206.006, 160.650 205.594, 161.183 204.780 C 162.486 202.788, 160.899 220.105, 159.450 223.679 C 158.742 225.427, 157.845 229.477, 157.457 232.679 C 157.070 235.880, 156.428 238.950, 156.030 239.500 C 155.632 240.050, 154.073 244.550, 152.566 249.500 C 151.059 254.450, 149.380 259.964, 148.834 261.753 C 147.545 265.982, 148.630 270.731, 151.198 272.106 C 154.150 273.686, 155.859 271.512, 156.953 264.789 C 157.454 261.710, 158.323 258.360, 158.884 257.345 C 162.392 250.996, 166.052 240.519, 167.213 233.500 C 167.759 230.200, 168.835 225.685, 169.603 223.467 C 170.371 221.248, 171 218.817, 171 218.063 C 171 217.310, 172.145 214.272, 173.545 211.312 C 175.593 206.983, 176.672 205.816, 179.066 205.337 C 182.838 204.582, 183.869 203.141, 180.220 203.723 C 178.267 204.034, 177.889 203.884, 178.878 203.190 C 179.636 202.659, 179.976 201.770, 179.634 201.217 C 178.713 199.727, 180.773 199.366, 187.750 199.794 C 192.283 200.072, 194 200.565, 194 201.589 C 194 202.450, 192.928 203.019, 191.250 203.048 C 188.929 203.088, 189.193 203.338, 192.941 204.650 C 196.697 205.964, 199.317 206.049, 209.939 205.196 C 216.845 204.642, 222.824 204.391, 223.225 204.639 C 224.470 205.409, 230.177 206.155, 238.250 206.604 L 246 207.034 246 203.517 C 246 200.350, 245.726 199.999, 243.250 199.985 C 241.738 199.977, 238.700 199.350, 236.500 198.591 C 234.300 197.833, 228.225 197.171, 223 197.121 C 217.775 197.071, 205.850 196.746, 196.500 196.399 C 187.150 196.052, 179.258 196.025, 178.962 196.339 M 218.500 202 C 218.160 202.550, 218.835 203, 220 203 C 221.165 203, 221.840 202.550, 221.500 202 C 221.160 201.450, 220.485 201, 220 201 C 219.515 201, 218.840 201.450, 218.500 202 M 151.762 203.707 C 153.006 203.946, 154.806 203.937, 155.762 203.687 C 156.718 203.437, 155.700 203.241, 153.500 203.252 C 151.300 203.263, 150.518 203.468, 151.762 203.707 M 206.813 203.683 C 207.534 203.972, 208.397 203.936, 208.729 203.604 C 209.061 203.272, 208.471 203.036, 207.417 203.079 C 206.252 203.127, 206.015 203.364, 206.813 203.683 M 194.810 210.086 C 193.490 210.825, 193.260 214.634, 193.192 236.859 C 193.132 256.422, 193.426 263.200, 194.391 264.520 C 195.405 265.907, 197.563 266.348, 204.835 266.654 C 209.979 266.871, 214 266.640, 214 266.127 C 214 264.954, 211.093 263.825, 209.927 264.545 C 208.305 265.548, 202 263.825, 202 262.380 C 202 261.275, 203.203 261.110, 207.750 261.591 C 217.133 262.584, 221 263.842, 221 265.899 C 221 267.351, 222.068 267.850, 226.250 268.352 C 232.373 269.087, 243.080 269.076, 241.244 268.336 C 239.318 267.559, 240.824 266, 243.500 266 C 246.150 266, 247.715 267.579, 245.756 268.276 C 245.065 268.522, 247.875 268.666, 251.999 268.595 L 259.498 268.466 260.324 263.983 C 260.778 261.517, 262.016 256.001, 263.075 251.724 C 265.975 240.009, 265.596 231.995, 262.143 232.005 C 260.174 232.011, 254.009 248.693, 253.985 254.080 C 253.956 260.410, 254.087 260.372, 234.346 259.684 C 215.832 259.039, 204.424 257.303, 202.943 254.907 C 202.470 254.142, 202.258 244.893, 202.473 234.353 C 202.687 223.813, 202.623 214.275, 202.331 213.158 C 201.703 210.756, 197.026 208.846, 194.810 210.086 M 227 265.371 C 227 267.052, 236.806 268.594, 238.259 267.141 C 240.142 265.258, 237.812 264, 232.441 264 C 228.498 264, 227 264.378, 227 265.371" stroke="none" fill="black" fill-rule="evenodd"/>
</svg>