<svg xmlns="http://www.w3.org/2000/svg" width="300" height="300" viewBox="0 0 300 300" version="1.1">
	<path d="M 182.433 22.191 C 176.575 26.718, 175 29.769, 175 36.590 C 175 38.296, 174.324 41.047, 173.499 42.702 C 172.301 45.103, 172.200 46.780, 172.999 50.993 C 173.549 53.897, 174 57.787, 174 59.636 C 174 61.486, 174.450 63, 175 63 C 175.550 63, 176 63.927, 176 65.059 C 176 66.258, 175.556 66.844, 174.938 66.462 C 174.234 66.027, 173.981 67.272, 174.188 70.153 C 174.390 72.973, 174.939 74.412, 175.750 74.250 C 176.528 74.094, 177 75.133, 177 77 C 177 79, 176.500 80, 175.500 80 C 174.675 80, 174.016 80.787, 174.035 81.750 C 174.083 84.079, 176.562 88.468, 177.919 88.625 C 178.514 88.694, 179.450 88.806, 180 88.875 C 180.550 88.944, 181 89.511, 181 90.135 C 181 92.489, 186.339 96.116, 191.145 97.028 C 197.837 98.297, 211.574 97.296, 215.944 95.222 C 217.900 94.293, 220.232 93.658, 221.127 93.809 C 223.008 94.127, 224.215 91.723, 223.330 89.418 C 222.824 88.099, 221.707 87.956, 216.612 88.561 C 205.189 89.917, 194.547 89.320, 190.150 87.077 C 187.942 85.950, 185.769 84.460, 185.322 83.764 C 183.606 81.099, 182.126 71.107, 182.064 61.769 C 181.991 50.613, 181.289 51.331, 193 50.572 C 202.537 49.955, 215.079 46.832, 216.389 44.750 C 218.055 42.102, 215.939 39.448, 212.376 39.717 C 205.304 40.250, 197.037 41.164, 191.603 42.014 C 188.360 42.521, 185.300 42.686, 184.805 42.379 C 183.469 41.554, 184.924 33.099, 187.210 28.400 C 190.693 21.240, 188.072 17.833, 182.433 22.191 M 124 38.691 C 118.814 40.662, 117.180 47.144, 119.008 58.500 C 122.371 79.386, 122.948 88.681, 121.412 97.223 C 119.344 108.724, 118.789 109.766, 114.296 110.580 C 112.208 110.958, 109.285 111.882, 107.800 112.634 C 102.412 115.360, 102.190 114.982, 102.075 102.882 C 102.017 96.767, 101.550 89.904, 101.037 87.632 C 100.525 85.359, 99.837 81.818, 99.510 79.762 C 98.674 74.520, 95.674 73.018, 92.325 76.164 C 89.257 79.046, 89.492 83.022, 93.369 93.846 C 95.528 99.874, 96 102.940, 96 110.941 C 96 119.116, 96.295 120.957, 97.829 122.345 C 100.110 124.410, 106.336 124.505, 108 122.500 C 108.685 121.675, 110.454 121, 111.931 121 C 113.409 121, 115.491 120.339, 116.559 119.532 C 117.626 118.724, 120.551 118.049, 123.059 118.032 C 125.566 118.014, 128.491 117.339, 129.559 116.532 C 130.626 115.724, 132.556 115.049, 133.846 115.032 C 135.136 115.014, 137.386 114.381, 138.846 113.626 C 141.615 112.191, 149.478 109.610, 154.315 108.548 C 156.511 108.065, 157.061 107.443, 156.815 105.715 C 156.551 103.858, 155.934 103.536, 153 103.722 C 144.547 104.260, 135.166 105.812, 131.124 107.343 C 125.178 109.595, 124 109.456, 124 106.503 C 124 104.315, 127.421 95.715, 131.383 87.942 C 132.111 86.513, 132.369 84.526, 131.966 83.438 C 131.570 82.367, 131.078 77.462, 130.873 72.538 L 130.500 63.585 138 62.221 C 142.125 61.472, 149.411 60.792, 154.190 60.711 C 161.524 60.588, 162.951 60.294, 163.334 58.829 C 163.584 57.874, 163.264 56.376, 162.623 55.499 C 161.660 54.183, 159.373 53.925, 149.479 54.016 C 142.890 54.077, 135.925 54.211, 134 54.313 L 130.500 54.500 130 46.500 C 129.557 39.418, 129.271 38.478, 127.500 38.310 C 126.400 38.206, 124.825 38.377, 124 38.691 M 183.496 91.007 C 183.153 91.561, 183.577 92.236, 184.437 92.507 C 185.296 92.778, 186.762 93.244, 187.694 93.543 C 189.192 94.023, 189.174 93.850, 187.539 92.043 C 185.486 89.774, 184.425 89.503, 183.496 91.007 M 160.500 107.713 C 157.540 108.426, 153.189 112.897, 152.032 116.415 C 151.474 118.112, 150.388 122.875, 149.618 127 C 147.791 136.797, 147.404 138.297, 145.693 142.213 C 144.367 145.248, 142.262 151.912, 138.652 164.500 C 137.362 168.998, 136.957 169.471, 134.609 169.212 C 132.605 168.991, 132 169.368, 132 170.840 C 132 173.671, 134.241 175.038, 138.615 174.875 C 146.777 174.570, 168.577 171.881, 170.210 170.978 C 171.151 170.458, 172.549 170.273, 173.317 170.568 C 174.084 170.863, 180.065 170.463, 186.606 169.679 C 201.778 167.863, 216.488 168.030, 218.394 170.042 C 220.977 172.767, 224.889 197.974, 225.332 214.750 L 225.656 227 213.578 227.053 C 206.935 227.082, 198.125 227.645, 194 228.303 C 189.875 228.961, 184.925 229.500, 183 229.500 L 179.500 229.500 179.205 221.567 C 178.798 210.645, 179.923 208.261, 185.852 207.479 C 188.409 207.142, 193.425 206.171, 197 205.321 C 200.575 204.471, 205.750 203.779, 208.500 203.783 C 211.250 203.788, 214.063 203.334, 214.750 202.773 C 216.575 201.287, 216.277 198.218, 214.250 197.611 C 209.350 196.144, 187.464 197.622, 183.500 199.688 C 179.780 201.626, 179 200.305, 179 192.072 C 179 185.237, 179.298 183.965, 181.499 181.406 C 184.390 178.043, 184.641 176.460, 182.418 175.607 C 179.047 174.313, 175.925 175.127, 172.407 178.216 L 168.744 181.432 169.412 191.132 C 169.887 198.033, 169.747 201.039, 168.924 201.547 C 168.289 201.939, 161.858 202.338, 154.634 202.431 L 141.500 202.601 141.500 205.551 C 141.500 208.076, 141.888 208.507, 144.196 208.546 C 145.679 208.572, 147.758 209.376, 148.816 210.334 C 150.459 211.821, 152.142 211.998, 160.354 211.551 L 169.969 211.027 170.545 213.763 C 170.862 215.269, 171.577 217.335, 172.135 218.356 C 172.835 219.636, 172.775 221.806, 171.943 225.356 C 170.484 231.584, 169.464 233, 166.437 233 C 165.161 233, 163.861 233.415, 163.548 233.923 C 163.234 234.431, 161.658 235.136, 160.046 235.490 C 158.435 235.844, 155.266 237.474, 153.004 239.112 C 150.743 240.750, 147.792 242.509, 146.446 243.020 C 142.907 244.366, 143.273 247, 147 247 C 148.650 247, 150 247.450, 150 248 C 150 249.668, 152.182 249.160, 161.018 245.433 C 167.328 242.772, 170.294 242.020, 172.702 242.472 C 174.934 242.891, 177.159 242.449, 179.924 241.039 C 182.122 239.917, 184.748 239, 185.760 239 C 186.772 239, 188.028 238.578, 188.550 238.062 C 190.384 236.251, 224.930 234.596, 226.574 236.241 C 226.952 236.619, 226.496 238.541, 225.561 240.513 C 224.085 243.623, 223.999 245.232, 224.908 252.668 C 225.485 257.381, 226.515 262.783, 227.198 264.672 C 228.306 267.736, 228.188 268.582, 226.100 272.518 C 223.459 277.496, 223.845 280, 227.253 280 C 228.798 280, 230.219 278.919, 231.522 276.750 C 233.263 273.852, 233.448 271.875, 233.223 258.500 C 233.084 250.250, 232.713 241.813, 232.398 239.752 C 231.930 236.690, 232.161 235.899, 233.662 235.430 C 239.351 233.652, 240.350 231.367, 236.090 229.882 L 233 228.804 232.980 209.152 C 232.959 187.903, 231.056 169.260, 228.510 165.375 C 227.654 164.069, 226.164 163, 225.199 163 C 224.235 163, 222.361 162.241, 221.036 161.313 C 219.037 159.912, 215.978 159.614, 203.063 159.563 C 194.504 159.528, 185.588 159.877, 183.250 160.338 C 179.683 161.041, 179 160.921, 179 159.588 C 179 157.890, 182.408 154, 183.895 154 C 184.387 154, 185.850 152.855, 187.145 151.455 C 188.440 150.056, 191.975 147.250, 195 145.221 C 203.370 139.605, 209 131.703, 209 125.572 C 209 122.755, 208.381 121.812, 205.250 119.860 C 201.699 117.647, 200.588 117.523, 184.344 117.522 C 168.907 117.520, 166.978 117.710, 165.094 119.415 C 162.374 121.877, 162.434 124.360, 165.250 125.864 C 167.474 127.052, 178.887 126.845, 190.569 125.405 C 194.585 124.910, 195.990 125.133, 197.334 126.477 C 198.929 128.072, 198.901 128.404, 196.853 132.048 C 195.655 134.179, 191.117 139.202, 186.767 143.211 C 179.148 150.233, 175.061 155.377, 174.599 158.525 C 174.200 161.242, 172.582 161.875, 164.500 162.474 C 160.100 162.800, 154.123 163.577, 151.218 164.201 C 143.220 165.918, 142.950 164.904, 148.389 153.572 C 150.925 148.288, 153.006 143.411, 153.013 142.733 C 153.047 139.452, 158.356 125.365, 160.534 122.777 C 161.891 121.165, 163 119.232, 163 118.480 C 163 117.729, 163.947 115.510, 165.104 113.549 C 168.311 108.112, 166.801 106.197, 160.500 107.713 M 42 110 C 41.175 110.533, 39.150 110.983, 37.500 111 C 33.623 111.040, 32.459 111.883, 31.635 115.250 C 31.101 117.431, 31.312 118, 32.652 118 C 33.582 118, 35.160 118.740, 36.160 119.645 C 37.832 121.158, 38.597 121.165, 45.753 119.730 C 64.356 115.998, 73.612 123.242, 76.128 143.500 C 78.004 158.608, 78.432 160.500, 79.972 160.500 C 80.921 160.500, 81.699 159.009, 82.160 156.310 C 82.553 154.006, 83.623 150.979, 84.536 149.585 C 85.922 147.470, 86.024 146.259, 85.150 142.275 C 84.574 139.649, 83.668 135.475, 83.137 133 C 79.374 115.460, 71.112 108.984, 52.538 109.015 C 47.567 109.024, 42.825 109.467, 42 110 M 48 115 C 48 115.550, 48.450 116, 49 116 C 49.550 116, 50 115.550, 50 115 C 50 114.450, 49.550 114, 49 114 C 48.450 114, 48 114.450, 48 115 M 115 115 C 115 116.253, 116.061 116.253, 118 115 C 119.213 114.216, 119.069 114.028, 117.250 114.015 C 116.013 114.007, 115 114.450, 115 115 M 103.345 118.543 C 103.019 119.392, 102.990 120.323, 103.279 120.612 C 103.930 121.263, 108 118.804, 108 117.759 C 108 116.319, 103.936 117.003, 103.345 118.543 M 171.250 122.250 C 171.479 122.938, 172.942 123.500, 174.500 123.500 C 176.058 123.500, 177.521 122.938, 177.750 122.250 C 178.033 121.402, 176.989 121, 174.500 121 C 172.011 121, 170.967 121.402, 171.250 122.250 M 21.189 130.471 C 17.597 132.452, 14 135.854, 14 137.271 C 14 137.977, 14.639 139.468, 15.421 140.583 C 17.711 143.853, 21.032 164.048, 19.947 168.105 C 19.359 170.305, 19.691 173.389, 21.639 183.816 C 22.273 187.212, 25.031 186.154, 26.371 182.001 C 27.495 178.517, 27.217 170.712, 25.196 149 C 24.492 141.437, 24.609 138.733, 25.769 135.739 C 26.932 132.736, 26.977 131.677, 25.991 130.489 C 24.559 128.764, 24.285 128.763, 21.189 130.471 M 72 168.002 C 71.175 168.537, 67.575 168.903, 64 168.817 C 60.425 168.731, 56.471 169.211, 55.212 169.885 C 53.954 170.559, 52.064 170.838, 51.012 170.504 C 49.960 170.170, 47.750 170.595, 46.100 171.448 C 44.449 172.302, 42.232 173, 41.172 173 C 40.112 173, 38.685 173.675, 38 174.500 C 37.315 175.325, 35.761 176, 34.547 176 C 32.142 176, 29.310 180.074, 30.441 181.905 C 31.744 184.012, 35.024 183.064, 36.165 180.250 L 37.281 177.500 37.959 180 C 38.566 182.238, 39.089 182.470, 42.946 182.218 C 45.316 182.062, 48.197 181.275, 49.350 180.468 C 50.502 179.660, 52.254 179, 53.244 179 C 54.233 179, 58.295 178.117, 62.271 177.037 C 66.247 175.958, 71.615 174.555, 74.200 173.921 C 79.111 172.716, 82.663 169.881, 81.539 168.063 C 80.719 166.737, 74.020 166.694, 72 168.002 M 141.500 170 C 141.160 170.550, 141.332 171, 141.882 171 C 142.432 171, 143.160 170.550, 143.500 170 C 143.840 169.450, 143.668 169, 143.118 169 C 142.568 169, 141.840 169.450, 141.500 170 M 120.074 175.411 C 119.273 176.376, 119.235 177.027, 119.951 177.470 C 120.528 177.826, 121 180.714, 121 183.887 C 121 188.115, 121.935 192.037, 124.500 198.571 C 128.407 208.523, 128.666 210, 126.500 210 C 125.312 210, 124.983 211.508, 124.919 217.250 C 124.874 221.238, 124.680 225.625, 124.487 227 C 123.219 236.062, 122.048 260.792, 122.580 267.302 C 123.093 273.577, 123.703 275.682, 125.698 278.052 C 128.644 281.554, 132.738 281.954, 135.278 278.989 C 137.590 276.288, 137.769 265, 135.500 265 C 134.675 265, 134 265.482, 134 266.071 C 134 267.230, 131.541 270, 130.512 270 C 129.512 270, 130.899 230.827, 132.035 226.973 C 133.128 223.265, 133.444 205.163, 132.489 201 C 132.173 199.625, 131.466 195.800, 130.917 192.500 C 128.380 177.256, 124.118 170.538, 120.074 175.411 M 197.500 232 C 197.160 232.550, 197.359 233, 197.941 233 C 198.523 233, 199 232.550, 199 232 C 199 231.450, 198.802 231, 198.559 231 C 198.316 231, 197.840 231.450, 197.500 232 M 185.500 233 C 185.160 233.550, 185.809 234, 186.941 234 C 188.073 234, 189 233.550, 189 233 C 189 232.450, 188.352 232, 187.559 232 C 186.766 232, 185.840 232.450, 185.500 233 M 214 276.433 C 214 278.133, 217.067 279.295, 219.296 278.440 C 221.804 277.477, 220.074 275, 216.893 275 C 215.049 275, 214 275.519, 214 276.433" stroke="none" fill="black" fill-rule="evenodd"/>
</svg>