<svg xmlns="http://www.w3.org/2000/svg" width="300" height="300" viewBox="0 0 300 300" version="1.1">
	<path d="M 219.500 30.028 C 214 30.402, 207.763 31.187, 205.641 31.773 C 203.518 32.359, 197.893 33.136, 193.141 33.500 C 180.363 34.478, 179.047 34.653, 171.977 36.320 C 168.414 37.160, 163.090 38.091, 160.144 38.389 C 157.198 38.687, 154.161 39.452, 153.394 40.088 C 151.382 41.758, 151.681 44, 153.917 44 C 154.971 44, 155.986 44.459, 156.173 45.020 C 156.611 46.334, 169.974 43.127, 171.874 41.252 C 172.771 40.366, 174.287 40.124, 176.242 40.553 C 177.982 40.935, 180.201 40.695, 181.538 39.980 C 183.498 38.930, 184.279 39.063, 186.823 40.874 C 190.620 43.577, 191 43.543, 191 40.500 C 191 37.559, 192.143 37.381, 196.079 39.706 C 198.869 41.354, 199.037 41.337, 201.023 39.206 C 203.162 36.910, 206 36.242, 206 38.035 C 206 38.741, 206.631 38.733, 207.979 38.011 C 209.068 37.428, 211.068 37.230, 212.423 37.570 C 213.778 37.910, 215.474 37.815, 216.193 37.359 C 216.912 36.904, 218.625 36.463, 220 36.381 C 221.375 36.298, 223.459 35.915, 224.631 35.530 C 227.836 34.476, 231.317 38.559, 230.573 42.500 C 229.537 47.989, 226.055 83.419, 226.027 88.750 C 226.002 93.590, 226.182 94, 228.331 94 C 230.718 94, 231.326 93.140, 234.338 85.500 C 237.094 78.507, 237.987 73.713, 238.061 65.500 C 238.101 61.100, 238.687 51.713, 239.364 44.640 C 240.972 27.819, 241.904 28.505, 219.500 30.028 M 74.378 53.750 C 73.825 55.480, 73.260 56.969, 71.184 62.168 C 70.598 63.635, 70.029 71.650, 69.920 79.979 C 69.675 98.626, 69.271 99.451, 61.213 97.723 C 57.288 96.882, 55.156 96.880, 52.941 97.716 C 51.131 98.399, 47.015 98.620, 42.478 98.277 C 37.201 97.878, 35 98.048, 35 98.856 C 35 99.485, 34.325 100, 33.500 100 C 32.675 100, 32 100.675, 32 101.500 C 32 102.550, 30.941 103, 28.469 103 C 24.562 103, 22.979 105.065, 25.011 107.513 C 26.986 109.893, 30.646 109.254, 36.265 105.546 C 40.356 102.846, 42.664 102.042, 46.828 101.864 C 50.313 101.714, 52.432 102.082, 52.953 102.925 C 53.443 103.717, 54.571 103.954, 55.878 103.539 C 57.256 103.101, 58.585 103.442, 59.648 104.506 C 60.935 105.792, 61.461 105.871, 62.079 104.872 C 62.513 104.170, 62.675 103.284, 62.440 102.903 C 61.824 101.906, 65.204 100.781, 65.999 101.717 C 66.364 102.148, 67.221 104.459, 67.903 106.854 C 68.895 110.339, 68.879 115.032, 67.821 130.354 C 65.855 158.843, 66.014 165.678, 68.750 170.307 C 72.386 176.460, 72.181 176.698, 60 180.475 C 56.975 181.413, 53.746 182.854, 52.825 183.677 C 51.869 184.532, 46.938 185.734, 41.325 186.481 C 35.921 187.200, 30.342 188.090, 28.926 188.458 C 27.176 188.914, 25.943 188.637, 25.076 187.592 C 23.983 186.275, 23.602 186.256, 22.401 187.456 C 21.630 188.227, 21 189.288, 21 189.815 C 21 190.341, 19.425 191.520, 17.500 192.433 C 14.039 194.076, 13.426 195.342, 14.607 198.418 C 15.056 199.588, 16.608 200, 20.560 200 C 25.015 200, 26.205 199.605, 27.694 197.631 C 29.233 195.591, 29.818 195.416, 31.911 196.369 C 33.761 197.212, 34.440 197.181, 34.754 196.238 C 34.981 195.557, 35.804 195, 36.583 195 C 37.363 195, 38 194.100, 38 193 C 38 190.572, 42.462 190.156, 43.362 192.500 C 43.678 193.325, 45.076 194, 46.469 194 C 49.247 194, 53.425 190.497, 52.477 188.964 C 52.150 188.434, 52.857 188, 54.048 188 C 55.562 188, 56.041 188.451, 55.638 189.500 C 55.227 190.572, 55.736 191, 57.424 191 C 59.864 191, 61.646 188.517, 59.956 187.473 C 58.572 186.617, 58.783 185.297, 60.404 184.675 C 62.537 183.857, 66 185.058, 66 186.617 C 66 187.377, 66.670 188, 67.489 188 C 69.447 188, 73 184.916, 73 183.216 C 73 182.196, 74.071 182.038, 77.500 182.552 C 81.675 183.178, 82 183.068, 82 181.026 C 82 179.019, 82.346 178.883, 85.921 179.487 C 88.669 179.951, 90.540 179.696, 92.171 178.634 C 93.452 177.801, 97.359 176.931, 100.853 176.702 C 104.346 176.473, 107.534 175.754, 107.935 175.104 C 108.337 174.454, 112 173.364, 116.075 172.682 C 121.663 171.746, 123.565 171.019, 123.815 169.724 C 124.511 166.109, 114.658 165.389, 105.957 168.419 C 103.505 169.273, 100.284 169.977, 98.799 169.985 C 97.313 169.993, 93.488 170.682, 90.299 171.516 C 87.109 172.349, 82.171 173.307, 79.325 173.645 L 74.149 174.258 74.223 163.879 C 74.267 157.568, 74.858 151.932, 75.731 149.500 C 76.580 147.134, 77.564 138.149, 78.141 127.500 C 79.252 106.963, 80.422 99.436, 82.634 98.587 C 84.812 97.751, 85 97.824, 85 99.500 C 85 100.689, 86.438 101, 91.941 101 C 95.759 101, 99.160 101.450, 99.500 102 C 100.392 103.444, 105.006 103.233, 104.968 101.750 C 104.927 100.147, 103.073 97.802, 100.385 95.954 C 98.764 94.839, 96.314 94.633, 89.885 95.069 C 85.273 95.382, 81.118 95.315, 80.652 94.921 C 80.186 94.527, 79.637 86.447, 79.433 76.965 C 79.143 63.471, 78.738 59.368, 77.569 58.076 C 76.695 57.110, 76.316 55.509, 76.655 54.213 C 77.345 51.572, 75.213 51.138, 74.378 53.750 M 209.500 98.340 C 201.074 99.281, 200.502 99.297, 181.500 99.104 C 174.900 99.037, 166.575 99.128, 163 99.305 C 155.951 99.656, 148 102.490, 148 104.652 C 148 105.393, 148.340 106, 148.756 106 C 149.172 106, 150.099 107.327, 150.817 108.949 C 151.803 111.176, 151.864 112.827, 151.067 115.699 C 150.486 117.789, 150.009 124.453, 150.006 130.507 C 150.003 136.560, 149.507 143.085, 148.904 145.007 C 147.502 149.473, 146.203 159.986, 144.960 176.913 C 144.418 184.290, 143.448 190.961, 142.803 191.737 C 142.159 192.514, 141.377 197.953, 141.066 203.825 C 140.755 209.696, 140.174 215.001, 139.775 215.614 C 138.525 217.535, 137.037 248.116, 137.786 256.500 L 138.500 264.500 141.784 264.816 C 145.314 265.155, 152.600 262.299, 153.431 260.250 C 153.741 259.484, 153.078 258.969, 151.719 258.921 C 150.222 258.868, 149.988 258.656, 151 258.271 C 151.825 257.957, 152.822 257.205, 153.217 256.600 C 154.277 254.973, 166.011 255.401, 167.065 257.104 C 167.775 258.254, 168.384 258.204, 170.753 256.805 C 172.574 255.729, 174.100 255.443, 175.012 256.007 C 176.561 256.965, 178.996 255.514, 179.006 253.628 C 179.010 252.954, 181.053 252.458, 184.083 252.395 C 187.782 252.319, 189.714 251.730, 191.226 250.218 L 193.298 248.146 194.960 250.199 C 196.480 252.076, 197.865 252.273, 211.061 252.493 C 219.003 252.626, 228.081 252.379, 231.235 251.945 C 234.898 251.441, 239.858 251.619, 244.965 252.436 C 251.468 253.478, 253.302 253.477, 254.792 252.433 C 255.968 251.610, 257.139 251.476, 258.062 252.060 C 258.853 252.560, 260.689 252.976, 262.143 252.985 C 263.597 252.993, 265.045 253.675, 265.362 254.500 C 266.001 256.167, 269.548 256.540, 270.477 255.038 C 270.848 254.438, 272.040 254.517, 273.645 255.248 C 277.193 256.865, 279.346 254.025, 278.478 248.875 C 278.142 246.881, 277.262 239.906, 276.524 233.375 C 274.549 215.912, 268.035 199.621, 263.693 201.287 C 261.709 202.049, 261.371 208.215, 263.069 212.682 C 263.657 214.229, 264.580 220.895, 265.121 227.497 C 265.661 234.099, 266.582 241.016, 267.168 242.869 C 268.611 247.432, 267.305 248.083, 258 247.438 C 253.875 247.152, 235.130 246.905, 216.344 246.888 C 187.865 246.862, 181.418 247.118, 177.559 248.429 C 174.891 249.334, 169.581 250, 165.024 250 C 160.676 250, 156.840 250.450, 156.500 251 C 155.764 252.192, 150.031 252.307, 148.234 251.166 C 147.224 250.524, 147.196 247.849, 148.098 237.931 C 149.360 224.043, 153.732 185.480, 155.005 177 C 155.460 173.975, 155.869 167.765, 155.916 163.200 C 155.965 158.340, 156.566 153.782, 157.365 152.200 C 158.116 150.715, 159.088 144.775, 159.526 139 C 160.603 124.809, 160.675 123.529, 160.849 115.673 C 160.984 109.561, 161.306 108.540, 163.923 105.923 C 167.124 102.722, 170 102.093, 170 104.594 C 170 105.940, 170.815 106.077, 175.250 105.477 C 178.137 105.085, 181.625 104.238, 183 103.594 C 185.638 102.357, 197.904 102.204, 199.813 103.384 C 200.430 103.766, 203.211 103.776, 205.992 103.407 C 209.929 102.884, 211.445 103.093, 212.830 104.346 C 214.359 105.730, 215.792 105.822, 222.994 105.001 C 227.605 104.475, 231.577 104.244, 231.820 104.487 C 232.655 105.321, 236 102.931, 236 101.500 C 236 100.714, 235.213 99.661, 234.250 99.161 C 231.583 97.776, 218.454 97.340, 209.500 98.340 M 45.286 104.714 C 46.905 106.333, 47.095 106.333, 48.714 104.714 C 50.333 103.095, 50.238 103, 47 103 C 43.762 103, 43.667 103.095, 45.286 104.714 M 32.813 105.683 C 33.534 105.972, 34.397 105.936, 34.729 105.604 C 35.061 105.272, 34.471 105.036, 33.417 105.079 C 32.252 105.127, 32.015 105.364, 32.813 105.683 M 197.813 106.683 C 198.534 106.972, 199.397 106.936, 199.729 106.604 C 200.061 106.272, 199.471 106.036, 198.417 106.079 C 197.252 106.127, 197.015 106.364, 197.813 106.683 M 70.079 183.583 C 70.127 184.748, 70.364 184.985, 70.683 184.188 C 70.972 183.466, 70.936 182.603, 70.604 182.271 C 70.272 181.939, 70.036 182.529, 70.079 183.583" stroke="none" fill="black" fill-rule="evenodd"/>
</svg>