<svg xmlns="http://www.w3.org/2000/svg" width="300" height="300" viewBox="0 0 300 300" version="1.1">
	<path d="M 192.820 28.213 C 192.590 29.801, 191.584 30.612, 189.256 31.085 C 183.784 32.198, 183.277 33.203, 182.600 44.279 C 181.531 61.773, 180.926 66, 179.491 66 C 178.763 66, 178.016 66.453, 177.831 67.006 C 177.643 67.572, 171.798 68.267, 164.498 68.592 C 151.638 69.164, 149.783 69.669, 147.949 73.095 C 146.492 75.817, 147.850 77.864, 151.849 78.975 C 156.726 80.329, 156.453 80.393, 159.712 77.134 C 163.146 73.700, 165.378 72.909, 172.580 72.573 C 177.658 72.336, 178.086 72.493, 178.666 74.803 C 179.977 80.029, 177.217 100.701, 173.031 117 C 172.536 118.925, 171.626 122.525, 171.009 125 C 170.391 127.475, 169.461 129.928, 168.943 130.450 C 168.424 130.973, 168 133.124, 168 135.232 C 168 137.340, 167.401 140.512, 166.669 142.282 C 165.936 144.052, 164.713 148.339, 163.949 151.810 C 163.186 155.280, 162.039 158.552, 161.402 159.082 C 160.509 159.822, 142.999 161.014, 133.202 161.002 C 132.488 161.001, 130.801 162.191, 129.452 163.646 C 127.630 165.612, 127 167.410, 127 170.646 C 127 174.892, 127.081 175, 130.250 174.999 C 132.275 174.998, 134.598 174.053, 136.414 172.492 C 139.033 170.239, 139.495 170.138, 140.992 171.493 C 143.083 173.385, 143.936 173.378, 147.834 171.433 C 149.561 170.571, 152.012 169.756, 153.279 169.621 C 154.547 169.485, 156.128 169.039, 156.792 168.628 C 158.597 167.513, 158.367 177.132, 156.532 179.559 C 155.724 180.626, 155.049 182.133, 155.032 182.906 C 155.014 183.679, 153.949 185.704, 152.664 187.406 C 151.380 189.108, 149.493 192.412, 148.472 194.750 C 147.451 197.088, 146.252 199, 145.808 199 C 145.363 199, 145 199.620, 145 200.378 C 145 201.135, 144.325 202.315, 143.500 203 C 142.675 203.685, 142 205.225, 142 206.422 C 142 207.620, 141.641 209.028, 141.202 209.550 C 140.763 210.073, 139.559 212.975, 138.526 216 C 137.493 219.025, 135.602 223.387, 134.324 225.692 C 133.046 227.998, 132 230.608, 132 231.492 C 132 232.376, 130.482 234.662, 128.627 236.572 C 126.772 238.482, 124.461 242.172, 123.490 244.772 C 122.520 247.373, 121.174 250.175, 120.499 251 C 119.824 251.825, 117.332 256.100, 114.961 260.500 C 112.590 264.900, 109.831 269.850, 108.829 271.500 C 107.827 273.150, 107.006 276.090, 107.004 278.034 C 107.001 280.904, 107.565 281.903, 110.002 283.342 C 113.549 285.437, 114.307 285.116, 116.059 280.771 C 116.785 278.972, 118.418 276.509, 119.689 275.298 C 120.960 274.087, 122 272.615, 122 272.028 C 122 271.441, 123.117 269.191, 124.482 267.029 C 125.847 264.867, 128.529 260.147, 130.443 256.539 C 133.364 251.032, 139.660 239.788, 143.063 234 C 145.038 230.640, 147.008 226.182, 149.027 220.500 C 154.753 204.390, 155.810 201.875, 158.552 197.840 C 160.173 195.453, 161.838 193.350, 162.250 193.167 C 162.662 192.983, 163 192.280, 163 191.604 C 163 190.929, 163.912 188.488, 165.026 186.182 C 166.141 183.875, 167.338 180.528, 167.687 178.744 C 168.873 172.677, 172.679 168, 176.429 168 C 178.307 168, 179 167.477, 179 166.059 C 179 163.450, 180.492 162.682, 182.009 164.511 C 183.813 166.684, 184.911 166.349, 186.144 163.250 L 187.238 160.500 188.203 163.250 C 189.095 165.796, 189.572 166, 194.617 166 C 199.199 166, 200.526 165.562, 202.945 163.250 C 208.260 158.171, 208.704 157.939, 210.035 159.542 C 211.010 160.717, 210.930 161, 209.622 161 C 208.730 161, 208 161.450, 208 162 C 208 164.096, 212.075 162.930, 213.173 160.519 C 213.795 159.155, 215.023 157.838, 215.902 157.594 C 220.494 156.317, 223.656 156.105, 225 156.986 C 226.204 157.775, 226.006 157.996, 224 158.103 C 222.625 158.177, 220.989 158.176, 220.364 158.101 C 219.739 158.026, 218.965 158.648, 218.645 159.482 C 218.264 160.475, 218.657 161.002, 219.781 161.007 C 222.822 161.018, 239.442 157.853, 241.216 156.924 C 244.253 155.334, 253.543 154.685, 255.820 155.904 C 257.450 156.776, 258.432 156.747, 259.977 155.782 C 262.188 154.401, 262.757 150.066, 260.750 149.891 C 255.096 149.398, 234.777 150.388, 227.500 151.511 C 213.963 153.601, 179.278 158, 176.341 158 C 174.506 158, 174.597 151.899, 176.500 147.346 C 177.325 145.371, 178.005 142.123, 178.011 140.128 C 178.017 138.133, 178.716 134.250, 179.564 131.500 C 180.412 128.750, 181.729 124.250, 182.490 121.500 C 183.251 118.750, 184.802 113.243, 185.937 109.263 C 187.072 105.282, 188 100.377, 188 98.362 C 188 92.846, 191.042 78.716, 192.616 76.921 C 193.377 76.053, 194 74.365, 194 73.171 C 194 70.634, 197.442 70.104, 198.362 72.500 C 198.678 73.325, 200.124 74, 201.576 74 C 203.510 74, 204.060 73.600, 203.638 72.500 C 203.288 71.586, 203.637 71, 204.531 71 C 205.339 71, 206 71.666, 206 72.481 C 206 74.785, 210.636 75.468, 213.507 73.587 C 214.878 72.689, 216 71.320, 216 70.544 C 216 68.087, 219.957 67.616, 222.335 69.791 C 223.526 70.879, 225.400 72.042, 226.500 72.375 C 228.195 72.888, 228.537 73.966, 228.744 79.435 C 228.879 82.985, 228.541 86.166, 227.994 86.504 C 227.447 86.842, 227 88.840, 227 90.944 C 227 93.049, 226.358 96.960, 225.573 99.635 C 224.788 102.311, 223.378 108.448, 222.440 113.273 C 221.503 118.098, 220.345 122.287, 219.868 122.582 C 219.390 122.877, 218.993 124.104, 218.985 125.309 C 218.968 127.823, 215.749 138.584, 214.701 139.633 C 214.315 140.018, 214 141.833, 214 143.667 C 214 146.187, 214.427 146.992, 215.750 146.968 C 218.572 146.917, 222.156 143.187, 223.646 138.750 C 223.969 137.787, 224.631 137, 225.117 137 C 225.602 137, 226 135.232, 226 133.071 C 226 130.911, 226.643 128.500, 227.429 127.713 C 229.572 125.570, 233.011 114.332, 233.690 107.250 C 234.019 103.813, 234.674 101, 235.145 101 C 235.615 101, 236.005 99.763, 236.011 98.250 C 236.017 96.737, 236.640 93.464, 237.395 90.975 C 239.270 84.800, 238.976 69.547, 236.943 67.515 C 235.702 66.273, 231.563 65.955, 213.964 65.750 L 192.500 65.500 192.842 49 C 193.096 36.780, 193.560 31.909, 194.634 30.222 C 196.049 27.997, 195.755 26, 194.011 26 C 193.531 26, 192.995 26.996, 192.820 28.213 M 186 41.441 C 186 43.055, 187.416 44.250, 188.292 43.375 C 189.072 42.595, 187.997 40, 186.893 40 C 186.402 40, 186 40.648, 186 41.441 M 78.487 75.202 C 77.925 76.455, 76.100 77.759, 74.250 78.230 C 71.278 78.986, 71 79.392, 71 82.970 C 71 85.121, 70.550 87.160, 70 87.500 C 69.406 87.867, 69 94.125, 69 102.904 C 69 115.967, 68.787 117.883, 67.168 119.348 C 66.161 120.259, 64.248 121.003, 62.918 121 C 57.503 120.988, 44.148 122.850, 42.208 123.889 C 41.066 124.500, 39.202 125, 38.066 125 C 36.930 125, 36 125.450, 36 126 C 36 126.550, 34.859 127, 33.465 127 C 31.201 127, 31.050 127.224, 32.051 129.095 C 32.997 130.862, 33.746 131.084, 36.836 130.511 C 38.851 130.137, 41.210 129.194, 42.079 128.415 C 44.137 126.570, 46.636 126.610, 47.362 128.500 C 47.678 129.325, 49.124 130, 50.576 130 C 52.510 130, 53.060 129.600, 52.638 128.500 C 52.225 127.422, 52.741 127, 54.472 127 C 55.798 127, 57.161 126.549, 57.502 125.997 C 57.916 125.327, 58.743 125.327, 59.995 125.997 C 61.025 126.549, 62.798 127, 63.934 127 C 65.376 127, 66.034 127.679, 66.113 129.250 C 66.275 132.498, 65.684 160.685, 65.343 166 C 65.183 168.475, 64.914 174.631, 64.744 179.681 C 64.499 186.955, 64.046 189.291, 62.563 190.931 C 61.533 192.069, 60.133 193, 59.452 193 C 58.771 193, 57.955 193.675, 57.638 194.500 C 57.305 195.368, 55.810 196, 54.090 196 C 52.456 196, 50.840 196.450, 50.500 197 C 50.160 197.550, 48.711 198, 47.279 198 C 44.219 198, 33.644 201.146, 33.181 202.194 C 33.005 202.591, 30.200 203.217, 26.947 203.585 C 23.695 203.953, 20.589 204.790, 20.045 205.445 C 18.831 206.909, 21.417 211, 23.557 211 C 24.430 211, 25 211.988, 25 213.500 C 25 215.525, 25.494 216, 27.596 216 C 29.023 216, 31.386 215.159, 32.846 214.131 C 34.306 213.103, 36.604 211.919, 37.953 211.499 C 39.303 211.080, 41.022 210.121, 41.775 209.368 C 42.527 208.616, 44.242 208, 45.585 208 C 46.928 208, 48.809 207.595, 49.764 207.101 C 50.719 206.606, 53.645 205.144, 56.267 203.851 C 59.760 202.128, 60.963 200.990, 60.767 199.593 C 60.389 196.897, 62.214 196.619, 64.753 198.985 C 67.314 201.371, 69.889 201.551, 72.559 199.532 C 73.626 198.724, 75.175 198.037, 76 198.005 C 76.825 197.973, 79.451 196.159, 81.836 193.973 C 84.220 191.788, 86.770 190, 87.502 190 C 88.234 190, 88.983 189.638, 89.167 189.196 C 89.350 188.753, 92.650 187.076, 96.500 185.468 C 100.350 183.861, 104.095 181.972, 104.821 181.273 C 105.548 180.573, 107.242 180, 108.585 180 C 109.928 180, 111.809 179.605, 112.764 179.122 C 113.719 178.639, 116.188 177.522, 118.250 176.638 C 121.842 175.100, 123.223 172.574, 120.896 171.799 C 118.524 171.008, 107.244 173.343, 102.486 175.611 C 99.728 176.925, 96.502 178, 95.317 178 C 93.078 178, 86.749 180.940, 86.167 182.250 C 85.983 182.662, 85.265 183, 84.570 183 C 83.876 183, 81.819 183.742, 80 184.650 C 76.907 186.193, 76.611 186.188, 75.436 184.582 C 74.249 182.958, 74.211 167.616, 75.386 163.912 C 76.081 161.723, 77.091 151.597, 77.829 139.426 C 78.304 131.580, 78.937 127.936, 80 126.926 C 80.846 126.122, 84.116 125.349, 87.500 125.153 C 90.800 124.962, 94.927 124.141, 96.671 123.327 C 98.415 122.513, 100.665 121.934, 101.671 122.039 C 102.677 122.144, 104.994 122.178, 106.820 122.115 C 109.664 122.016, 110.093 121.678, 109.820 119.750 C 109.519 117.633, 109.058 117.507, 102 117.618 C 97.875 117.683, 91.125 117.908, 87 118.118 L 79.500 118.500 79.721 103.201 C 79.843 94.787, 80.125 87.587, 80.348 87.201 C 80.571 86.816, 81.070 83.463, 81.457 79.750 C 82.011 74.420, 81.877 73, 80.817 73 C 80.078 73, 79.030 73.991, 78.487 75.202 M 134.657 78.250 C 134.332 81.138, 133.771 85.840, 133.411 88.701 C 133.050 91.561, 133.283 96.961, 133.928 100.701 C 134.574 104.440, 135.557 110.425, 136.114 114 C 136.670 117.575, 137.595 121.850, 138.170 123.500 C 138.744 125.150, 139.582 128.300, 140.032 130.500 C 141.901 139.649, 143.014 142.476, 145.872 145.334 C 148.416 147.878, 149.123 148.143, 150.441 147.049 C 152.170 145.614, 152.483 141.906, 151.101 139.236 C 150.606 138.281, 149.660 133.450, 148.999 128.500 C 147.731 119.011, 146.490 110.786, 145.075 102.500 C 144.606 99.750, 143.657 93.523, 142.966 88.663 C 142.177 83.106, 141.208 79.633, 140.355 79.306 C 139.610 79.020, 139 77.484, 139 75.893 C 139 73.730, 138.526 73, 137.124 73 C 135.602 73, 135.136 73.992, 134.657 78.250 M 218 75 C 218 75.550, 218.675 76, 219.500 76 C 220.325 76, 221 75.550, 221 75 C 221 74.450, 220.325 74, 219.500 74 C 218.675 74, 218 74.450, 218 75 M 223.079 75.583 C 223.127 76.748, 223.364 76.985, 223.683 76.188 C 223.972 75.466, 223.936 74.603, 223.604 74.271 C 223.272 73.939, 223.036 74.529, 223.079 75.583 M 99.813 119.683 C 100.534 119.972, 101.397 119.936, 101.729 119.604 C 102.061 119.272, 101.471 119.036, 100.417 119.079 C 99.252 119.127, 99.015 119.364, 99.813 119.683 M 90.269 121.693 C 91.242 121.947, 92.592 121.930, 93.269 121.656 C 93.946 121.382, 93.150 121.175, 91.500 121.195 C 89.850 121.215, 89.296 121.439, 90.269 121.693 M 193.015 161.750 C 193.025 162.874, 193.293 163.089, 193.765 162.351 C 194.169 161.719, 195.625 160.993, 197 160.737 C 199.117 160.344, 199.002 160.251, 196.250 160.136 C 193.764 160.032, 193.004 160.412, 193.015 161.750 M 194.500 164 C 194.160 164.550, 194.359 165, 194.941 165 C 195.523 165, 196 164.550, 196 164 C 196 163.450, 195.802 163, 195.559 163 C 195.316 163, 194.840 163.450, 194.500 164 M 146.559 166.532 C 144.697 167.940, 144.728 168, 147.309 168 C 149.034 168, 150 167.462, 150 166.500 C 150 164.634, 149.057 164.642, 146.559 166.532 M 193.750 178.368 C 192.238 179.668, 191 181.095, 191 181.538 C 191 181.980, 190.303 183.112, 189.452 184.053 C 188.600 184.994, 187.830 187.606, 187.740 189.857 C 187.612 193.078, 188.154 194.552, 190.289 196.779 C 191.780 198.336, 193 200.059, 193 200.609 C 193 201.159, 194.575 203.329, 196.500 205.430 C 198.425 207.532, 200 209.629, 200 210.091 C 200 210.553, 201.350 212.312, 203 214 C 204.650 215.688, 206 217.275, 206 217.527 C 206 219.548, 218.165 231.441, 224.434 235.549 C 226.769 237.078, 227 237.084, 227 235.615 C 227 234.727, 226.325 234, 225.500 234 C 224.675 234, 224 233.325, 224 232.500 C 224 230.212, 226.390 230.705, 229.567 233.649 L 232.425 236.299 230.109 237.155 L 227.793 238.012 230.131 239.905 C 231.745 241.212, 233.437 241.641, 235.594 241.291 C 237.754 240.941, 239.149 241.295, 240.110 242.440 C 240.874 243.351, 242.003 244.631, 242.617 245.285 C 243.446 246.169, 243.318 246.783, 242.117 247.674 C 240.691 248.733, 240.988 249.324, 244.640 252.687 C 251.488 258.995, 255.160 262, 256.019 262 C 256.467 262, 256.983 262.388, 257.167 262.861 C 257.686 264.203, 272.696 272, 274.759 272 C 275.772 272, 277.081 272.481, 277.668 273.068 C 278.949 274.349, 285.994 273.908, 286.156 272.536 C 286.282 271.468, 285.950 271.267, 277.792 267.466 C 274.653 266.003, 271.560 264.175, 270.920 263.403 C 270.279 262.631, 269.173 262, 268.461 262 C 267.749 262, 267.017 261.659, 266.833 261.243 C 266.650 260.826, 264.556 258.963, 262.180 257.103 C 259.804 255.243, 253.196 249.171, 247.495 243.610 C 241.795 238.050, 234.597 231.250, 231.499 228.500 C 222.808 220.783, 221 218.980, 221 218.031 C 221 217.549, 219.738 215.882, 218.196 214.327 C 215.316 211.423, 207.191 202.368, 203.326 197.754 C 201.655 195.760, 200.989 193.230, 200.449 186.829 C 199.809 179.237, 198.816 175.998, 197.128 176.001 C 196.782 176.002, 195.262 177.067, 193.750 178.368 M 189.553 187.915 C 189.231 188.436, 189.394 189.125, 189.915 189.447 C 190.436 189.769, 191.125 189.606, 191.447 189.085 C 191.769 188.564, 191.606 187.875, 191.085 187.553 C 190.564 187.231, 189.875 187.394, 189.553 187.915 M 31.500 210 C 31.160 210.550, 31.359 211, 31.941 211 C 32.523 211, 33 210.550, 33 210 C 33 209.450, 32.802 209, 32.559 209 C 32.316 209, 31.840 209.450, 31.500 210 M 209 214.918 C 209 216.983, 210.301 219, 211.632 219 C 212.412 219, 213.477 220.125, 214 221.500 C 214.523 222.875, 215.588 224, 216.368 224 C 217.920 224, 219 226.086, 219 229.082 C 219 230.461, 219.702 231, 221.500 231 C 225.508 231, 224.502 228.705, 217.157 221.092 C 210.472 214.164, 209 213.050, 209 214.918" stroke="none" fill="black" fill-rule="evenodd"/>
</svg>