<svg xmlns="http://www.w3.org/2000/svg" width="300" height="300" viewBox="0 0 300 300" version="1.1">
	<path d="M 191 16.027 C 181.532 17.109, 165.202 19.757, 164.208 20.371 C 163.738 20.662, 159.336 21.387, 154.426 21.983 C 149.517 22.579, 144.150 23.488, 142.500 24.003 C 140.850 24.518, 128.997 25.065, 116.161 25.219 C 92.996 25.498, 92.808 25.518, 90.911 27.861 C 89.860 29.159, 89 31.231, 89 32.464 C 89 34.564, 89.334 34.676, 94.250 34.225 C 99.651 33.730, 103.633 32.299, 102.569 31.236 C 101.760 30.427, 107.684 27.992, 110.365 28.032 C 112.848 28.069, 116 30.210, 116 31.860 C 116 33.658, 124.938 33.324, 125.638 31.500 C 125.955 30.675, 126.616 30, 127.107 30 C 127.598 30, 128 30.675, 128 31.500 C 128 32.333, 128.889 33, 130 33 C 131.100 33, 132 32.361, 132 31.579 C 132 30.798, 133.350 29.862, 135 29.500 C 136.650 29.138, 138 28.427, 138 27.921 C 138 27.414, 138.450 27, 139 27 C 139.550 27, 140 28.064, 140 29.365 C 140 31.561, 140.331 31.705, 144.625 31.384 C 149.362 31.029, 152.406 29.465, 151.430 27.887 C 151.129 27.399, 151.786 27, 152.891 27 C 153.996 27, 155.319 26.253, 155.830 25.340 C 156.660 23.856, 156.881 23.908, 157.914 25.840 C 158.866 27.617, 158.798 28, 157.535 28 C 156.691 28, 156 28.450, 156 29 C 156 30.889, 158.856 29.998, 160.825 27.496 C 163.353 24.281, 168.870 23.015, 170.176 25.350 C 171.290 27.341, 176.306 27.542, 177.869 25.658 C 178.481 24.920, 178.723 24.056, 178.406 23.739 C 178.088 23.422, 178.722 22.684, 179.814 22.099 C 181.352 21.276, 181.928 21.371, 182.369 22.518 C 183.453 25.344, 196 23.330, 196 20.330 C 196 18.421, 198.729 19.855, 199.308 22.069 C 199.993 24.688, 204.021 24.636, 204.710 22 C 205.257 19.910, 208.425 19.261, 209.510 21.016 C 209.856 21.575, 210.627 21.731, 211.224 21.362 C 211.847 20.977, 212.023 21.153, 211.638 21.776 C 210.688 23.314, 212.946 24.454, 214.287 23.113 C 215.628 21.772, 219 21.631, 219 22.917 C 219 23.421, 218.438 24.060, 217.750 24.338 C 217.063 24.615, 217.475 24.878, 218.667 24.921 C 219.858 24.964, 221.096 24.438, 221.417 23.750 C 221.882 22.752, 222.118 22.753, 222.585 23.756 C 222.907 24.447, 223.560 24.772, 224.035 24.478 C 224.511 24.184, 225.390 24.861, 225.990 25.981 C 226.808 27.510, 227.694 27.864, 229.540 27.401 C 231.390 26.936, 232 27.182, 232 28.392 C 232 29.276, 231.568 30, 231.041 30 C 230.434 30, 230.253 52.680, 230.548 91.750 C 231.034 156.016, 232.184 190.606, 233.944 193.896 C 235.220 196.279, 236.756 213.268, 237.642 234.769 C 238.231 249.072, 238.089 251.692, 236.473 256.447 C 234.981 260.838, 234.872 262.141, 235.893 263.372 C 236.893 264.576, 237.650 264.661, 239.576 263.783 C 240.909 263.176, 242 262.076, 242 261.339 C 242 260.603, 242.382 260, 242.848 260 C 243.315 260, 244.552 258.087, 245.598 255.750 C 247.283 251.984, 247.469 249.392, 247.228 233 C 247.068 222.088, 246.555 214.363, 245.978 214.167 C 245.440 213.983, 244.998 210.608, 244.996 206.667 C 244.994 202.725, 244.311 195.450, 243.478 190.500 C 242.004 181.742, 241.348 159.377, 240.530 90 C 240.137 56.640, 239.237 39.199, 237.435 30.068 C 236.629 25.980, 235.771 22.438, 235.529 22.196 C 234.804 21.470, 216.877 16.809, 211.500 15.947 C 205.559 14.995, 199.830 15.018, 191 16.027 M 66.561 28.933 C 65.341 30.280, 65.001 31.727, 65.437 33.711 C 65.899 35.817, 65.515 37.144, 63.959 38.813 C 61.905 41.018, 61.862 41.791, 62.068 72.785 C 62.184 90.228, 62.104 124.300, 61.889 148.500 C 61.201 226.282, 61.400 251.054, 62.762 257 C 63.917 262.044, 65.966 265, 68.306 265 C 69.473 265, 76 257.932, 76 256.669 C 76 256.152, 74.917 254.726, 73.594 253.500 C 71.704 251.748, 71.029 249.792, 70.449 244.385 C 69.543 235.942, 70.619 185.400, 72.011 171 C 72.570 165.225, 72.779 157.125, 72.477 153 C 72.174 148.875, 71.714 133.800, 71.455 119.500 C 70.127 46.371, 70.039 33, 70.883 33 C 72.754 33, 73.105 29.550, 71.363 28.276 C 69.061 26.593, 68.625 26.652, 66.561 28.933 M 136.500 32 C 136.840 32.550, 137.316 33, 137.559 33 C 137.802 33, 138 32.550, 138 32 C 138 31.450, 137.523 31, 136.941 31 C 136.359 31, 136.160 31.450, 136.500 32 M 146.010 50.488 C 145.320 51.319, 144.023 52.003, 143.128 52.006 C 142.232 52.010, 140.719 53.247, 139.765 54.756 C 138.810 56.265, 135.939 60.425, 133.385 64 C 130.830 67.575, 128.011 71.852, 127.120 73.505 C 125.044 77.355, 114.407 91.417, 110.500 95.477 C 108.850 97.192, 106.618 100.246, 105.540 102.264 C 104.463 104.282, 102.325 106.862, 100.790 107.997 C 99.256 109.132, 98 110.676, 98 111.429 C 98 113.017, 90.374 120.996, 84.232 125.834 C 80.241 128.979, 78.854 132.174, 80.925 133.454 C 82.029 134.136, 86.565 132.281, 89.885 129.790 C 91.197 128.805, 93.014 128, 93.923 128 C 95.915 128, 106.415 117.020, 114 107.005 C 117.025 103.011, 119.965 99.239, 120.533 98.622 C 121.101 98.005, 122.643 95.925, 123.961 94 C 125.278 92.075, 127.109 89.757, 128.030 88.849 C 132.170 84.766, 136.897 78.258, 137.517 75.786 C 137.891 74.299, 138.798 72.582, 139.534 71.972 C 140.270 71.361, 141.151 69.590, 141.492 68.035 C 141.834 66.480, 142.892 64.503, 143.844 63.641 C 145.444 62.194, 146.184 62.659, 153.617 69.787 C 161.944 77.774, 168.488 82, 172.527 82 C 173.973 82, 175.103 82.750, 175.489 83.965 C 175.895 85.243, 177.395 86.171, 179.781 86.619 C 181.799 86.997, 184.056 87.913, 184.796 88.653 C 185.537 89.394, 187.011 90, 188.071 90 C 189.132 90, 190 90.351, 190 90.781 C 190 91.971, 195.722 94.022, 203.500 95.618 C 213.950 97.763, 214.500 97.762, 214.500 95.601 C 214.500 94.277, 213.288 93.291, 210.500 92.349 C 206.052 90.845, 205.658 90.674, 194.877 85.593 C 190.685 83.617, 186.802 82, 186.250 82 C 185.697 82, 184.685 81.325, 184 80.500 C 183.315 79.675, 182.105 79, 181.311 79 C 180.516 79, 178.434 77.931, 176.683 76.625 C 174.932 75.318, 171.700 73.416, 169.500 72.398 C 167.300 71.380, 162.575 67.734, 159 64.296 C 155.425 60.857, 151.938 58.034, 151.250 58.022 C 150.501 58.009, 150 56.646, 150 54.622 C 150 50.474, 147.861 48.257, 146.010 50.488 M 64.150 79.950 C 64.370 80.610, 64.876 81.116, 65.275 81.075 C 66.471 80.951, 66.239 79.580, 64.950 79.150 C 64.290 78.930, 63.930 79.290, 64.150 79.950 M 104.667 106.667 C 104.300 107.033, 104 107.965, 104 108.738 C 104 109.902, 104.257 109.886, 105.500 108.643 C 106.325 107.818, 107 106.886, 107 106.571 C 107 105.789, 105.483 105.851, 104.667 106.667 M 153.500 114.152 C 151.850 114.690, 144.326 115.389, 136.779 115.704 C 125.126 116.191, 122.805 116.558, 121.374 118.139 C 120.448 119.162, 119.111 120, 118.404 120 C 116.481 120, 115.676 121.905, 116.951 123.441 C 118.295 125.060, 121.999 124.372, 123.754 122.176 C 124.727 120.959, 125.275 120.875, 126.204 121.804 C 127.624 123.224, 136.488 123.274, 143.500 121.902 C 146.250 121.364, 149.398 120.921, 150.495 120.918 C 151.593 120.915, 154.421 120.257, 156.780 119.456 C 159.140 118.655, 162.764 118, 164.835 118 C 169.253 118, 171.524 116.337, 169.854 114.324 C 168.560 112.765, 158.084 112.655, 153.500 114.152 M 175.373 138.116 C 171.453 138.559, 164.928 139.658, 160.873 140.557 C 156.818 141.456, 150.481 142.753, 146.791 143.439 C 143.102 144.125, 139.502 145.147, 138.791 145.709 C 138.081 146.272, 131.909 147.805, 125.076 149.116 C 113.736 151.292, 112.516 151.739, 111.076 154.244 C 110.209 155.753, 108.938 156.990, 108.250 156.994 C 106.627 157.002, 106.622 159.707, 108.245 160.248 C 110.563 161.021, 117.020 158.761, 119.266 156.392 C 121.981 153.527, 122.134 153.514, 124.910 155.922 C 126.887 157.637, 127.058 158.470, 126.497 163.672 C 126.152 166.877, 125.712 173.303, 125.521 177.950 C 125.133 187.353, 124.501 188.344, 118.198 189.440 C 116.164 189.793, 113.055 190.831, 111.289 191.747 C 109.524 192.663, 107.821 193.155, 107.506 192.840 C 105.592 190.926, 101.143 160.195, 102.470 158.049 C 102.779 157.548, 102.575 156.856, 102.016 156.510 C 101.457 156.165, 101 156.359, 101 156.941 C 101 157.523, 99.912 158, 98.582 158 C 91.814 158, 91.850 157.630, 96.042 183.500 C 96.666 187.350, 97.393 196.342, 97.658 203.481 C 97.923 210.621, 98.613 217.034, 99.192 217.731 C 100.609 219.439, 105.471 219.343, 106.936 217.578 C 107.833 216.496, 107.845 214.662, 106.987 209.929 C 105.633 202.460, 106.284 198.500, 108.650 199.824 C 111.053 201.169, 118.182 198.741, 119.097 196.266 C 120.241 193.173, 121.532 192.825, 123.556 195.062 C 124.930 196.580, 125.426 198.915, 125.572 204.541 C 125.726 210.486, 126.336 213.136, 128.570 217.552 C 130.991 222.337, 131.727 223.056, 133.938 222.798 C 136.271 222.527, 136.473 222.143, 136.195 218.500 C 136.027 216.300, 135.660 209.892, 135.381 204.261 C 134.774 192.062, 135.447 190.592, 141.762 190.309 C 146.001 190.120, 148.907 188.343, 149.102 185.821 C 149.159 185.095, 149.622 186.075, 150.132 188 C 151.140 191.806, 152.030 200.201, 152.086 206.426 C 152.135 212.029, 154.422 217, 156.949 217 C 158.385 217, 159.024 216.326, 159.081 214.750 C 159.613 200.086, 160.841 188.001, 162.046 185.578 C 163.913 181.826, 174.527 177.736, 180.175 178.593 C 183.229 179.056, 184.042 178.789, 184.994 177.011 C 185.861 175.391, 185.850 174.524, 184.947 173.436 C 183.343 171.504, 172.156 171.519, 168.417 173.459 C 166.675 174.363, 165.188 174.571, 164.507 174.006 C 163.858 173.467, 163.308 168.475, 163.162 161.782 C 162.938 151.511, 163.107 150.263, 164.996 148.234 C 166.141 147.005, 167.398 145.943, 167.789 145.872 C 168.180 145.802, 169.625 145.525, 171 145.256 C 174.740 144.524, 182.892 144.637, 188.218 145.494 C 196.168 146.773, 196.257 147.132, 195.691 175.850 C 195.170 202.293, 193.769 217.660, 191.689 219.740 C 190.686 220.743, 189.676 220.783, 187.197 219.919 C 185.439 219.306, 184 218.398, 184 217.902 C 184 217.406, 183.100 217, 182 217 C 179.402 217, 179.228 222.022, 181.750 224.204 C 185.418 227.378, 199.100 229.218, 200.684 226.750 C 204.463 220.863, 206.136 198.131, 204.787 171 C 203.840 151.970, 202.836 146.645, 199.596 143.478 C 198.271 142.183, 188.482 138.333, 185 137.737 C 183.625 137.502, 179.293 137.673, 175.373 138.116 M 151.091 146.923 C 150.316 147.413, 149.114 147.597, 148.420 147.331 C 147.672 147.044, 147.025 147.793, 146.830 149.174 C 146.598 150.806, 145.531 151.785, 143.250 152.457 C 141.463 152.983, 140 153.940, 140 154.584 C 140 156.990, 137.179 158.258, 134.165 157.207 C 130.147 155.807, 128.570 156.962, 130.054 160.219 C 130.866 162.002, 131.775 162.610, 133.105 162.262 C 134.881 161.798, 135 162.465, 135 172.883 C 135 183.588, 135.080 184, 137.147 184 C 139.807 184, 151.072 180.080, 152.687 178.593 C 153.462 177.881, 153.956 172.976, 154.109 164.500 C 154.334 151.989, 154.260 151.458, 152.141 150.392 L 149.938 149.285 152.219 147.695 C 154.587 146.044, 153.574 145.351, 151.091 146.923 M 170.939 262.394 C 170.661 262.673, 159.423 263.174, 145.967 263.508 C 132.510 263.842, 120.150 264.501, 118.500 264.971 C 116.850 265.441, 111.225 266.068, 106 266.365 C 100.775 266.663, 93.800 267.553, 90.500 268.344 C 87.200 269.136, 81.041 270.539, 76.814 271.462 C 68.835 273.204, 66.594 274.653, 67.179 277.690 C 67.679 280.289, 71 280.673, 71 278.132 C 71 275.061, 73.103 274.409, 75.090 276.862 C 76.061 278.062, 77.113 278.626, 77.428 278.117 C 77.743 277.607, 79.796 277.431, 81.991 277.726 C 85.867 278.246, 89.555 276.707, 88.505 275.008 C 87.710 273.721, 94.035 272.948, 96.141 274.075 C 98.878 275.540, 103.307 274.366, 106.049 271.448 C 108.918 268.394, 112.041 268.127, 111.290 271 C 110.865 272.624, 111.259 273, 113.383 273 C 115.333 273, 116 272.490, 116 271 C 116 269.148, 116.667 269, 125 269 C 132.394 269, 134 269.272, 134 270.523 C 134 271.849, 134.331 271.829, 136.549 270.376 C 138.613 269.023, 141.318 268.742, 150.752 268.898 C 157.393 269.008, 162.970 269.560, 163.718 270.181 C 164.708 271.002, 165.531 270.693, 167.065 268.925 C 168.788 266.939, 169.394 266.765, 171.036 267.790 C 173.741 269.480, 175.722 269.299, 176.950 267.250 C 177.940 265.597, 178.080 265.605, 179.458 267.384 C 180.597 268.856, 181.749 269.149, 184.709 268.720 C 186.794 268.419, 189.400 268.552, 190.500 269.016 C 192.222 269.742, 192.089 269.869, 189.550 269.930 C 187.450 269.980, 186.909 270.309, 187.673 271.073 C 189.143 272.543, 195.569 271.845, 195.250 270.250 C 195.113 269.563, 195.638 269, 196.417 269 C 197.196 269, 198.096 269.563, 198.417 270.250 C 198.883 271.250, 199.117 271.250, 199.583 270.250 C 200.552 268.173, 205 268.701, 205 270.893 C 205 271.934, 205.662 273.040, 206.471 273.351 C 208.415 274.096, 211.004 271.416, 210.985 268.679 C 210.953 264.148, 209.921 263.778, 196.367 263.431 C 189.290 263.250, 180.788 262.829, 177.472 262.495 C 174.157 262.161, 171.217 262.116, 170.939 262.394 M 154.250 266.689 C 155.213 266.941, 156.787 266.941, 157.750 266.689 C 158.713 266.438, 157.925 266.232, 156 266.232 C 154.075 266.232, 153.287 266.438, 154.250 266.689 M 120 271 C 120 271.550, 120.900 272, 122 272 C 123.100 272, 124 271.550, 124 271 C 124 270.450, 123.100 270, 122 270 C 120.900 270, 120 270.450, 120 271" stroke="none" fill="black" fill-rule="evenodd"/>
</svg>