<svg xmlns="http://www.w3.org/2000/svg" width="300" height="300" viewBox="0 0 300 300" version="1.1">
	<path d="M 196.057 51.600 C 186.309 53.529, 161.181 55.292, 153.436 54.590 C 145.144 53.839, 143.677 54.800, 145.847 59.564 C 147.078 62.265, 149 62.836, 149 60.500 C 149 58.600, 150.400 58.572, 151.951 60.441 C 152.608 61.233, 153.844 61.613, 154.697 61.286 C 155.608 60.937, 156.650 61.410, 157.223 62.434 C 158.106 64.012, 159.532 64.115, 172.349 63.528 C 188.285 62.798, 192 62.288, 192 60.829 C 192 60.235, 189.943 59.958, 187.031 60.158 C 184.066 60.362, 182.150 60.097, 182.281 59.500 C 182.513 58.442, 186.575 58.389, 194 59.347 C 197.433 59.790, 197.789 59.727, 195.500 59.082 L 192.500 58.237 195.191 58.118 C 196.671 58.053, 198.160 57.550, 198.500 57 C 199.426 55.501, 203 55.796, 203 57.371 C 203 58.267, 204.790 58.980, 208.168 59.428 C 211.010 59.805, 214.904 60.769, 216.821 61.570 C 220.527 63.118, 222.141 62.741, 220.183 60.783 C 219.532 60.133, 219 59.240, 219 58.800 C 219 57.294, 222.998 57.998, 224.826 59.826 C 225.831 60.831, 227.406 61.942, 228.326 62.295 C 229.247 62.648, 230.018 63.514, 230.041 64.219 C 230.127 66.896, 247.986 73.614, 249.908 71.692 C 251.109 70.491, 248.566 67, 246.489 67 C 245.828 67, 243.310 65.523, 240.894 63.718 C 238.477 61.914, 235.375 59.866, 234 59.169 C 232.625 58.472, 229.475 56.825, 227 55.510 C 224.525 54.194, 220.903 53.091, 218.950 53.059 C 216.997 53.027, 214.936 52.536, 214.369 51.969 C 212.907 50.507, 202.625 50.300, 196.057 51.600 M 207 56 C 205.793 56.780, 205.951 56.972, 207.809 56.985 C 209.097 56.993, 209.845 56.558, 209.500 56 C 208.757 54.798, 208.861 54.798, 207 56 M 165.543 59.931 C 165.226 60.443, 165.312 61.055, 165.734 61.291 C 167.029 62.018, 174 60.837, 174 59.891 C 174 58.704, 166.278 58.741, 165.543 59.931 M 223.820 65.250 C 223.558 67.094, 222.868 67.500, 220 67.500 L 216.500 67.500 216.844 91.433 C 217.034 104.596, 217.576 116.386, 218.050 117.633 C 218.524 118.879, 219.182 129.934, 219.512 142.200 C 219.856 154.993, 220.702 167.271, 221.498 171 C 225.292 188.790, 226.030 192.733, 226.083 195.500 C 226.125 197.689, 226.329 198.023, 226.839 196.733 C 227.224 195.762, 227.570 198.237, 227.609 202.233 C 227.718 213.367, 230.817 227, 233.238 227 C 233.785 227, 233.972 227.999, 233.653 229.220 C 233.333 230.441, 233.694 233.704, 234.453 236.470 C 235.213 239.237, 236.123 246.600, 236.476 252.832 C 236.829 259.065, 237.619 265.265, 238.232 266.609 C 239.063 268.434, 239.048 269.352, 238.173 270.227 C 237.276 271.124, 237 271.118, 237 270.200 C 237 269.540, 236.438 268.997, 235.750 268.994 C 235.063 268.990, 233.150 268.274, 231.500 267.401 C 227.636 265.358, 220.266 262.471, 216.750 261.624 C 214.754 261.143, 214 261.342, 214 262.348 C 214 264.242, 227.718 278.084, 231.742 280.250 C 235.823 282.447, 239.596 282.496, 240.414 280.364 C 240.995 278.849, 241.176 278.849, 242.850 280.364 C 245.071 282.374, 246.613 282.450, 247.329 280.586 C 248.292 278.075, 243.972 245.966, 240.455 229.500 C 238.576 220.700, 236.844 211.444, 236.606 208.931 C 236.369 206.419, 235.703 202.594, 235.125 200.431 C 234.088 196.545, 232.837 188.577, 230.975 174 C 230.449 169.875, 229.540 164.450, 228.956 161.945 C 228.372 159.439, 227.741 151.789, 227.555 144.945 C 227.368 138.100, 226.736 126.200, 226.150 118.500 C 224.306 94.287, 224.042 74.872, 225.527 72.550 C 226.737 70.657, 227.380 67.289, 227.111 64.250 C 226.917 62.066, 224.153 62.906, 223.820 65.250 M 61.068 92.418 C 59.813 93.930, 59.913 97.458, 61.414 104.717 C 61.666 105.936, 62.180 110.054, 62.556 113.868 C 63.163 120.030, 63.031 120.909, 61.369 121.766 C 60.341 122.296, 58.969 122.539, 58.320 122.305 C 57.671 122.071, 54.296 122.990, 50.820 124.346 C 43.658 127.141, 28.887 130.005, 21.654 130.002 C 18.356 130.001, 15.881 130.660, 13.904 132.068 C 10.757 134.309, 9.820 137.667, 12.645 136.583 C 13.564 136.230, 15.091 136.678, 16.107 137.597 C 18.066 139.370, 21 138.875, 21 136.772 C 21 134.427, 24.377 133.071, 26.448 134.586 C 27.975 135.702, 28.076 136.204, 27.026 137.469 C 25.990 138.717, 26.009 139.020, 27.128 139.111 C 29.849 139.330, 33.520 138.790, 34.500 138.026 C 35.050 137.598, 38.200 136.923, 41.500 136.527 C 44.800 136.131, 47.950 135.463, 48.500 135.042 C 49.050 134.620, 50.847 133.953, 52.494 133.557 C 56.639 132.563, 58.519 130.946, 56.797 129.854 C 55.883 129.274, 56.130 129.026, 57.633 129.015 C 60.552 128.994, 61.097 131.332, 61.475 145.500 C 61.832 158.867, 63.430 169.348, 65.579 172.417 C 66.361 173.532, 67 173.868, 67 173.163 C 67 172.459, 67.479 172.178, 68.065 172.540 C 68.764 172.972, 68.547 173.843, 67.436 175.071 C 65.842 176.832, 65.847 177.487, 67.507 186.035 C 68.697 192.163, 68.943 195.457, 68.262 196.138 C 67.706 196.694, 63.932 197.594, 59.875 198.137 C 55.819 198.681, 48.620 200.005, 43.879 201.081 C 39.137 202.156, 34.507 202.748, 33.591 202.397 C 31.424 201.565, 28 204.668, 28 207.464 C 28 211.191, 30.311 213.349, 33.587 212.680 C 35.189 212.353, 42.800 210.729, 50.500 209.071 C 58.200 207.412, 65.850 206.009, 67.500 205.952 C 69.150 205.894, 72.075 205.241, 74 204.500 C 77.136 203.292, 77.240 203.141, 75 203.046 C 72.717 202.948, 72.662 202.845, 74.359 201.859 C 75.697 201.082, 76.902 201.090, 78.656 201.889 C 81.509 203.189, 88.206 203.418, 86.203 202.146 C 85.170 201.491, 85.230 201.054, 86.495 200.004 C 87.731 198.978, 88.352 198.952, 89.284 199.884 C 90.216 200.816, 90.188 201.266, 89.157 201.903 C 88.177 202.509, 88.426 202.878, 90.113 203.319 C 91.369 203.648, 92.869 203.528, 93.448 203.052 C 94.043 202.564, 100.967 202.745, 109.395 203.469 C 125.589 204.861, 129.500 204.464, 129.500 201.428 C 129.500 199.718, 128.540 199.439, 121 198.958 C 116.325 198.660, 111.375 197.794, 110 197.035 C 108.290 196.091, 102.128 195.472, 90.500 195.077 L 73.500 194.500 73 183.898 C 72.688 177.273, 72.006 172.702, 71.183 171.714 C 70.276 170.626, 69.755 165.824, 69.510 156.317 C 69.087 139.852, 69.635 134.135, 71.931 131.092 C 73.588 128.895, 73.762 128.874, 77.427 130.405 C 79.509 131.275, 81.642 131.721, 82.167 131.397 C 83.424 130.620, 87.708 132.241, 97.733 137.289 C 103.721 140.303, 106.266 141.134, 107.066 140.334 C 108.303 139.097, 108.095 138.869, 101 133.678 C 96.953 130.717, 94.210 129.131, 84.601 124.194 C 83.006 123.375, 79.181 122.433, 76.101 122.102 L 70.500 121.500 70 112 C 69.586 104.142, 69.817 101.830, 71.336 98.622 C 73.571 93.900, 72.562 92.420, 66.452 91.451 C 63.379 90.964, 62.082 91.197, 61.068 92.418 M 145.378 122.546 C 143.957 124.714, 143.836 126.386, 144.561 133.796 C 145.030 138.583, 145.319 146.492, 145.204 151.371 C 145.076 156.772, 145.555 162.130, 146.429 165.072 C 147.553 168.856, 147.615 170.559, 146.718 172.937 C 145.853 175.229, 145.857 176.257, 146.734 177.134 C 148.753 179.153, 168.379 180.435, 175.892 179.039 C 179.527 178.363, 184.075 177.692, 186 177.548 C 187.925 177.403, 190.063 177.221, 190.750 177.142 C 191.438 177.064, 192 176.120, 192 175.045 C 192 173.595, 191.077 172.917, 188.420 172.419 C 184 171.590, 182.918 169.295, 185.833 166.934 C 187.811 165.332, 188 164.247, 188 154.491 C 188 142.724, 187.112 139.776, 181.673 133.484 C 178.054 129.299, 173.425 127.419, 164.338 126.446 C 158.566 125.828, 158 125.559, 158 123.443 C 158 120.419, 156.028 119.242, 154.488 121.347 C 152.988 123.398, 151.614 123.445, 150 121.500 C 148.257 119.399, 147.297 119.617, 145.378 122.546 M 43.813 132.683 C 44.534 132.972, 45.397 132.936, 45.729 132.604 C 46.061 132.272, 45.471 132.036, 44.417 132.079 C 43.252 132.127, 43.015 132.364, 43.813 132.683 M 154.371 133.209 C 154.010 133.792, 153.801 137.514, 153.906 141.480 C 154.022 145.860, 153.495 150.420, 152.563 153.095 C 150.764 158.262, 150.505 167.576, 152.133 168.582 C 152.757 168.968, 154.894 169.430, 156.883 169.610 C 158.873 169.789, 162.908 170.222, 165.851 170.571 C 172.320 171.339, 176.887 169.310, 179.284 164.602 C 180.866 161.496, 182.332 143.677, 180.934 144.541 C 180.548 144.779, 179.681 143.645, 179.008 142.020 C 177.246 137.765, 175.720 136.835, 168.209 135.443 C 164.519 134.759, 160.044 133.738, 158.263 133.173 C 156.011 132.459, 154.827 132.470, 154.371 133.209 M 36.250 133.718 C 34.532 134.334, 34.672 136, 36.441 136 C 38.097 136, 39.408 134.351, 38.266 133.704 C 37.845 133.465, 36.938 133.472, 36.250 133.718 M 222.079 134.583 C 222.127 135.748, 222.364 135.985, 222.683 135.188 C 222.972 134.466, 222.936 133.603, 222.604 133.271 C 222.272 132.939, 222.036 133.529, 222.079 134.583 M 66.079 158.583 C 66.127 159.748, 66.364 159.985, 66.683 159.188 C 66.972 158.466, 66.936 157.603, 66.604 157.271 C 66.272 156.939, 66.036 157.529, 66.079 158.583 M 223 162.500 C 223 163.325, 223.450 164, 224 164 C 224.550 164, 225 163.325, 225 162.500 C 225 161.675, 224.550 161, 224 161 C 223.450 161, 223 161.675, 223 162.500 M 69.079 203.583 C 69.127 204.748, 69.364 204.985, 69.683 204.188 C 69.972 203.466, 69.936 202.603, 69.604 202.271 C 69.272 201.939, 69.036 202.529, 69.079 203.583 M 229.667 203.667 C 229.300 204.033, 229 204.798, 229 205.367 C 229 205.993, 229.466 205.934, 230.183 205.217 C 230.834 204.566, 231.134 203.801, 230.850 203.517 C 230.566 203.232, 230.033 203.300, 229.667 203.667 M 50.029 204.961 C 47.952 206.275, 49.014 206.917, 52.238 206.297 C 53.744 206.008, 54.730 205.373, 54.429 204.886 C 53.726 203.748, 51.897 203.779, 50.029 204.961 M 230.195 210.500 C 230.215 212.150, 230.439 212.704, 230.693 211.731 C 230.947 210.758, 230.930 209.408, 230.656 208.731 C 230.382 208.054, 230.175 208.850, 230.195 210.500 M 237.195 249.500 C 237.215 251.150, 237.439 251.704, 237.693 250.731 C 237.947 249.758, 237.930 248.408, 237.656 247.731 C 237.382 247.054, 237.175 247.850, 237.195 249.500" stroke="none" fill="black" fill-rule="evenodd"/>
</svg>