<svg xmlns="http://www.w3.org/2000/svg" width="300" height="300" viewBox="0 0 300 300" version="1.1">
	<path d="M 169.356 20.750 C 167.785 22.262, 165.600 24.787, 164.500 26.361 C 163.400 27.934, 161.938 29.815, 161.250 30.539 C 160.563 31.264, 160 32.302, 160 32.845 C 160 33.389, 159.662 33.983, 159.250 34.167 C 158.838 34.350, 157.622 36.300, 156.548 38.500 C 155.475 40.700, 153.173 44.300, 151.433 46.500 C 146.785 52.376, 136.087 63, 134.818 63 C 134.214 63, 133.189 63.727, 132.540 64.615 C 131.891 65.503, 129.141 67.446, 126.430 68.934 C 122.247 71.230, 121.451 72.144, 121.176 74.965 C 120.998 76.794, 121.233 78.562, 121.699 78.895 C 124.029 80.559, 126 85.375, 126 89.406 C 126 91.868, 126.450 94.160, 127 94.500 C 128.275 95.288, 128.342 123.250, 127.071 124.550 C 126.561 125.072, 125.883 131.800, 125.565 139.500 C 125.247 147.200, 124.764 157.764, 124.490 162.975 C 124.193 168.642, 124.440 173.802, 125.105 175.817 C 125.918 178.280, 125.919 179.481, 125.108 180.292 C 123.570 181.830, 123.722 185.524, 125.378 186.899 C 127.538 188.692, 135 185.143, 135 182.322 C 135 181.523, 148.045 169, 148.879 169 C 149.109 169, 150.828 167.425, 152.697 165.500 C 154.567 163.575, 156.332 162, 156.620 162 C 157.363 162, 160 159.270, 160 158.500 C 160 157.243, 162.883 155, 164.500 155 C 167.955 155, 169.045 157.644, 169.245 166.510 C 169.365 171.869, 169.024 175.373, 168.341 175.806 C 167.216 176.517, 166.773 178.774, 165.116 192.239 C 163.710 203.668, 163.954 203.536, 144.571 203.324 C 128.499 203.147, 120.138 202.640, 114.500 201.500 C 112.091 201.013, 110.761 201.509, 107.750 204.020 C 103.150 207.854, 103.038 209.430, 107.250 211.068 C 113.476 213.489, 144.057 215.216, 153.589 213.685 C 157.218 213.102, 157.821 213.297, 158.959 215.423 C 160.094 217.545, 159.941 218.210, 157.620 221.253 C 156.179 223.143, 155 225.632, 155 226.785 C 155 227.938, 154.550 229.160, 154 229.500 C 153.450 229.840, 152.997 230.879, 152.994 231.809 C 152.990 232.739, 152.315 234.789, 151.494 236.364 C 150.672 237.940, 150 239.852, 150 240.614 C 150 241.376, 149.550 242, 149 242 C 148.450 242, 148 242.570, 148 243.266 C 148 243.962, 146.200 247.612, 144 251.377 C 141.800 255.142, 140 258.669, 140 259.217 C 140 259.764, 138.918 261.497, 137.596 263.069 C 136.273 264.640, 135.017 266.450, 134.803 267.090 C 134.590 267.730, 133.310 268.364, 131.958 268.499 C 130.606 268.634, 129.162 268.802, 128.750 268.872 C 127.704 269.050, 127.839 273.198, 128.948 274.950 C 129.779 276.264, 136.414 277.060, 137.288 275.950 C 144.001 267.431, 153 254.549, 153 253.457 C 153 252.656, 153.450 252, 154 252 C 154.550 252, 155 251.282, 155 250.404 C 155 249.527, 155.960 247.460, 157.133 245.813 C 158.307 244.165, 160.069 240.238, 161.050 237.087 C 162.031 233.936, 163.771 229.689, 164.917 227.649 C 166.062 225.608, 167 223.020, 167 221.896 C 167 219.306, 169.841 219.697, 171.393 222.500 C 172.002 223.600, 172.725 224.725, 173 225 C 173.275 225.275, 174.274 227.175, 175.220 229.221 C 176.166 231.268, 178.510 233.968, 180.430 235.221 C 182.349 236.475, 184.464 238.512, 185.129 239.750 C 185.794 240.987, 186.728 242, 187.205 242 C 187.681 242, 189.203 243.013, 190.586 244.250 C 192.967 246.380, 194.728 248.110, 202.287 255.745 C 204.054 257.530, 206.039 258.992, 206.697 258.995 C 207.355 258.998, 210.010 260.125, 212.596 261.500 C 215.182 262.875, 218.104 264, 219.090 264 C 220.076 264, 221.160 264.450, 221.500 265 C 221.840 265.550, 223.126 266, 224.359 266 C 225.592 266, 227.065 266.465, 227.634 267.034 C 228.861 268.261, 237.230 269.999, 245.209 270.684 C 250.695 271.154, 250.944 271.072, 251.571 268.574 C 252.576 264.570, 250.566 263, 244.437 263 C 241.511 263, 238.892 262.635, 238.616 262.188 C 238.340 261.741, 234.826 260.309, 230.807 259.004 C 226.788 257.700, 222.790 256.040, 221.921 255.316 C 221.053 254.592, 219.557 254, 218.596 254 C 215.088 254, 202.266 244.477, 193.160 235.109 C 181.667 223.284, 181 222.361, 181 218.277 C 181 215.186, 180.797 215, 177.430 215 C 174.301 215, 173.900 214.723, 174.180 212.750 C 174.530 210.290, 177.799 209.345, 189.500 208.323 C 192.800 208.035, 195.725 207.471, 196 207.068 C 196.275 206.666, 200.325 205.835, 205 205.223 C 213.257 204.140, 220.740 202.811, 226.140 201.466 C 227.860 201.038, 229.659 201.386, 231.307 202.465 C 235.739 205.369, 243.863 202.603, 243.968 198.154 C 243.986 197.414, 243.069 195.502, 241.932 193.904 C 239.997 191.187, 239.434 191.002, 233.182 191.036 C 229.507 191.055, 223.800 191.723, 220.500 192.520 C 217.200 193.317, 213.037 193.976, 211.250 193.984 C 209.463 193.993, 208 194.450, 208 195 C 208 195.563, 205.186 196, 201.559 196 C 198.016 196, 194.880 196.384, 194.590 196.854 C 194.300 197.324, 191.291 197.998, 187.904 198.352 C 184.517 198.706, 179.988 199.522, 177.841 200.166 C 175.470 200.876, 173.576 200.975, 173.019 200.418 C 172.106 199.503, 176.516 185.011, 178.015 184 C 178.423 183.725, 179.037 181.588, 179.378 179.250 C 179.720 176.913, 180.264 173.291, 180.586 171.203 L 181.171 167.405 187.836 169.677 C 191.501 170.926, 195.925 171.960, 197.667 171.974 C 199.408 171.988, 200.983 172.444, 201.167 172.986 C 201.350 173.529, 203.530 174.250, 206.012 174.590 C 209.592 175.079, 211.011 174.811, 212.888 173.292 C 215.009 171.575, 215.112 171.151, 213.886 169.189 C 213.134 167.985, 211.592 167, 210.459 167 C 209.327 167, 207.972 166.642, 207.450 166.205 C 206.927 165.768, 203.800 164.564, 200.500 163.529 C 197.200 162.494, 194.073 161.276, 193.550 160.823 C 193.028 160.370, 191.349 160, 189.820 160 C 186.361 160, 179.310 157.250, 178.701 155.663 C 177.944 153.691, 179.136 144.529, 180.357 142.937 C 181.481 141.470, 188.631 139.463, 196.500 138.405 C 198.700 138.109, 200.927 137.447, 201.450 136.933 C 201.972 136.420, 203.772 135.997, 205.450 135.994 C 207.127 135.990, 209.806 135.307, 211.402 134.475 C 214.724 132.742, 217.559 133.307, 218.993 135.987 C 219.699 137.306, 219.630 137.957, 218.754 138.249 C 217.781 138.573, 217.783 139.228, 218.762 141.376 C 219.443 142.871, 220 147.480, 220 151.618 C 220 156.806, 220.444 159.586, 221.429 160.571 C 223.124 162.267, 225.191 162.409, 226.667 160.933 C 228.059 159.541, 227.283 119.363, 225.806 116.331 C 225.187 115.062, 225.064 112.782, 225.509 110.831 C 226.788 105.220, 226.654 66.761, 225.348 64.549 C 224.283 62.746, 223.141 62.613, 210.348 62.805 C 196.868 63.007, 187.660 64.006, 179.500 66.150 C 177.300 66.728, 173.588 67.426, 171.250 67.701 C 168.912 67.976, 167 68.606, 167 69.101 C 167 69.595, 165.452 70, 163.559 70 C 161.666 70, 159.840 70.450, 159.500 71 C 159.160 71.550, 156.996 72.003, 154.691 72.006 C 152.386 72.010, 149.211 72.685, 147.636 73.506 C 146.060 74.328, 142.615 75, 139.979 75 C 135.615 75, 135.236 74.814, 135.732 72.915 C 136.032 71.769, 136.920 70.584, 137.704 70.283 C 138.489 69.982, 142.938 66.112, 147.591 61.683 C 152.244 57.255, 157.390 52.983, 159.026 52.191 C 160.662 51.398, 162 50.131, 162 49.375 C 162 48.619, 162.420 48, 162.933 48 C 163.446 48, 164.118 47.212, 164.428 46.250 C 164.737 45.288, 166.341 42.925, 167.993 41 C 169.644 39.075, 170.996 37.195, 170.998 36.821 C 170.999 36.448, 171.563 35.540, 172.250 34.803 C 177.019 29.692, 178.632 21.666, 175.370 19.281 C 172.969 17.526, 172.614 17.613, 169.356 20.750 M 204.500 74 C 203.400 74.473, 199.402 74.891, 195.616 74.930 C 188.928 74.998, 181.685 76.460, 179.353 78.212 C 177.008 79.974, 179.047 82.878, 182.852 83.196 C 185.995 83.458, 186.500 83.846, 186.500 86 C 186.500 87.960, 185.960 88.533, 184 88.651 C 182.625 88.735, 180.938 88.847, 180.250 88.901 C 179.412 88.967, 179 90.826, 179 94.535 C 179 97.851, 178.378 101.019, 177.450 102.436 C 175.593 105.270, 175.781 117.104, 177.693 117.735 C 178.349 117.952, 180.145 116.187, 181.684 113.814 C 183.222 111.441, 184.743 109.275, 185.064 109 C 185.384 108.725, 185.953 107.670, 186.328 106.655 C 186.703 105.640, 187.908 104.575, 189.005 104.288 C 190.102 104.001, 191 103.369, 191 102.883 C 191 102.398, 193.250 102, 196 102 C 200.519 102, 201 102.217, 200.999 104.250 C 200.999 105.561, 199.329 108.119, 196.999 110.379 C 194.800 112.513, 193 114.651, 193 115.129 C 193 115.608, 192.315 116, 191.479 116 C 190.642 116, 189.448 117.116, 188.827 118.481 C 188.205 119.845, 186.867 121.225, 185.854 121.546 C 182.826 122.507, 181 124.962, 181 128.071 C 181 130.829, 181.237 131, 185.066 131 C 187.302 131, 190.006 130.532, 191.074 129.960 C 192.844 129.013, 195.420 128.539, 211.716 126.163 C 214.584 125.744, 217.236 125.098, 217.608 124.726 C 219.644 122.689, 217.043 77.272, 214.717 74.250 C 213.634 72.843, 207.540 72.694, 204.500 74 M 163 80.885 C 160.859 82.061, 150.671 84.026, 142.596 84.821 L 135.692 85.500 135.770 99.750 C 135.813 107.588, 135.883 114.450, 135.924 115 C 136.137 117.805, 145 113.609, 145 110.703 C 145 110.188, 148.375 106.425, 152.500 102.339 C 156.625 98.254, 160 94.422, 160 93.823 C 160 92.669, 163.816 89, 165.017 89 C 165.808 89, 171 81.794, 171 80.696 C 171 79.732, 164.834 79.877, 163 80.885 M 70.124 101.704 C 69.367 102.005, 67.452 103.657, 65.868 105.375 C 63.028 108.456, 62.996 108.622, 63.618 117.187 C 64.417 128.201, 63.781 131, 60.481 131 C 59.116 131, 58 131.450, 58 132 C 58 132.550, 56.618 133, 54.929 133 C 53.239 133, 51.131 133.726, 50.243 134.614 C 48.883 135.974, 47.215 136.118, 39.668 135.528 L 30.708 134.827 27.856 138.164 C 26.288 139.999, 25.004 141.838, 25.002 142.250 C 24.997 144.024, 29.242 147.120, 30.827 146.499 C 31.747 146.138, 36.855 145.664, 42.177 145.445 C 49.285 145.153, 52.756 144.541, 55.253 143.139 C 58.418 141.361, 58.797 141.342, 60.748 142.865 C 62.613 144.320, 62.791 145.269, 62.373 151.500 C 62.115 155.350, 61.704 166.749, 61.461 176.831 C 61.101 191.763, 61.282 195.425, 62.438 196.581 C 63.219 197.361, 64.057 198, 64.301 198 C 65.148 198, 66.115 190.562, 68.460 166 C 68.696 163.525, 69.333 157.900, 69.874 153.500 C 70.415 149.100, 70.890 144.961, 70.929 144.302 C 71.045 142.339, 75.589 138, 77.527 138 C 80.202 138, 89.958 135.032, 94.345 132.883 C 96.459 131.847, 99.029 131, 100.056 131 C 102.353 131, 106 127.245, 106 124.879 C 106 123.920, 105.074 122.841, 103.942 122.482 C 100.924 121.524, 86.460 125.041, 85 127.087 C 84.725 127.473, 81.800 127.949, 78.500 128.144 L 72.500 128.500 72.191 123.049 C 72.008 119.834, 72.511 115.938, 73.416 113.549 C 76.832 104.537, 75.456 99.587, 70.124 101.704 M 161.293 104.788 C 159.685 106.279, 157.273 108.401, 155.934 109.503 C 148.371 115.726, 147.028 121, 153.008 121 C 154.589 121, 156.128 121.398, 156.429 121.885 C 157.387 123.435, 165.986 124.257, 167.562 122.948 C 169.192 121.596, 169.523 114.442, 168 113.500 C 167.450 113.160, 167 111.076, 167 108.870 C 167 106.663, 166.374 104.231, 165.609 103.466 C 164.421 102.278, 163.791 102.471, 161.293 104.788 M 135.607 127.582 C 135.273 128.452, 135 131.152, 135 133.582 C 135 136.012, 134.550 138, 134 138 C 133.450 138, 133 139.176, 133 140.613 C 133 142.936, 133.306 143.164, 135.750 142.657 C 137.262 142.343, 141.425 141.578, 145 140.956 C 148.575 140.334, 151.928 139.414, 152.450 138.912 C 152.972 138.411, 154.864 138, 156.653 138 C 162.699 138, 167.218 134.489, 163.851 132.408 C 163.220 132.018, 159.507 131.522, 155.601 131.307 C 149.324 130.961, 146.527 130.175, 139.764 126.853 C 137.259 125.623, 136.294 125.792, 135.607 127.582 M 134.275 149.780 C 132.967 150.642, 131.053 161.763, 131.020 168.691 C 130.999 173.167, 132.685 175.314, 134.156 172.685 C 134.648 171.807, 138.413 167.648, 142.525 163.442 C 146.636 159.236, 150 155.166, 150 154.398 C 150 153.629, 150.450 153, 151 153 C 151.550 153, 152 152.325, 152 151.500 C 152 150.328, 150.633 149.997, 145.750 149.986 C 142.313 149.979, 138.600 149.748, 137.500 149.473 C 136.400 149.199, 134.949 149.337, 134.275 149.780 M 99.973 182.692 C 98.613 183.623, 97.275 184.695, 97 185.075 C 96.131 186.275, 83.585 192.636, 80.620 193.381 C 79.058 193.773, 75.916 194.930, 73.640 195.952 C 71.363 196.974, 68.180 198.107, 66.567 198.470 C 64.954 198.833, 62.332 200.226, 60.740 201.565 C 59.149 202.904, 57.444 204, 56.953 204 C 56.461 204, 53.683 205.059, 50.780 206.354 C 47.876 207.649, 43.362 209.283, 40.750 209.984 C 38.138 210.686, 35.990 211.539, 35.978 211.880 C 35.966 212.221, 33.938 213.850, 31.471 215.500 C 29.005 217.150, 26.742 219.264, 26.442 220.199 C 26.143 221.133, 25.021 222.176, 23.949 222.516 C 22.877 222.856, 22 223.523, 22 223.998 C 22 224.473, 20.988 225.005, 19.750 225.180 C 15.185 225.829, 16.783 235, 21.461 235 C 24.687 235, 30.328 231.908, 34.242 227.994 C 36.449 225.786, 41.235 222.622, 44.877 220.962 C 53.987 216.809, 63.099 211.910, 66 209.605 C 66.825 208.950, 68.625 207.917, 70 207.309 C 78.302 203.640, 79.891 203, 80.702 203 C 82.154 203, 86.984 200.561, 86.992 199.824 C 86.996 199.452, 89.540 197.905, 92.644 196.386 C 95.748 194.867, 99.673 192.359, 101.367 190.812 C 103.060 189.266, 104.765 188, 105.155 188 C 106.547 188, 107.144 183.879, 105.960 182.452 C 104.393 180.564, 103.001 180.620, 99.973 182.692" stroke="none" fill="black" fill-rule="evenodd"/>
</svg>