<svg xmlns="http://www.w3.org/2000/svg" width="300" height="300" viewBox="0 0 300 300" version="1.1">
	<path d="M 171.250 68.662 C 167.922 69.840, 167 70.664, 167 72.461 C 167 73.723, 167.578 75.235, 168.285 75.821 C 169.675 76.975, 203.042 76.710, 204.952 75.530 C 206.790 74.394, 207.234 77.756, 205.633 80.689 C 204.788 82.235, 203.540 84.625, 202.858 86 C 200.805 90.141, 197.781 93, 195.456 93 C 194.248 93, 190.389 92.081, 186.880 90.958 C 180.180 88.813, 176 89.029, 176 91.519 C 176 93.009, 177.026 93.380, 180.242 93.054 C 181.301 92.946, 181.795 93.392, 181.503 94.188 C 181.238 94.910, 181.395 96.087, 181.853 96.804 C 182.831 98.337, 192.682 101.082, 196.705 100.941 C 202.058 100.754, 215.269 103.823, 218.090 105.908 C 221.899 108.725, 224 108.603, 224 105.567 C 224 104.013, 223.278 102.906, 222 102.500 C 220.900 102.151, 220 101.434, 220 100.908 C 220 100.381, 218.769 99.483, 217.265 98.911 C 212.204 96.987, 208 94.777, 208 94.042 C 208 93.641, 210.653 90.593, 213.896 87.269 C 219.817 81.199, 221.768 76.996, 220.508 73.025 C 220.155 71.914, 218.884 70.779, 217.683 70.503 C 212.679 69.352, 193.524 68.076, 192.758 68.842 C 192.301 69.299, 188.906 69.088, 185.214 68.373 C 176.989 66.781, 176.538 66.790, 171.250 68.662 M 84.116 80.884 C 79.244 85.756, 82.042 87.636, 94.500 87.860 C 99.450 87.949, 105.059 88.369, 106.964 88.794 C 110.346 89.549, 110.422 89.675, 110.153 94.057 C 110.001 96.526, 110.373 99.851, 110.980 101.446 C 111.860 103.762, 111.783 104.645, 110.599 105.829 C 109.289 107.139, 108.478 107.130, 103.625 105.750 C 98.586 104.316, 97.860 104.324, 94.817 105.844 C 90.469 108.015, 90.307 111.225, 94.500 112.122 C 96.150 112.475, 100.747 112.817, 104.715 112.882 C 113.419 113.024, 113.824 113.511, 113.824 123.835 C 113.824 129.053, 113.437 131.279, 112.467 131.651 C 111.721 131.937, 107.824 131.604, 103.806 130.910 C 99.788 130.217, 94.527 129.737, 92.117 129.844 L 87.733 130.038 88.198 111.501 C 88.698 91.532, 88.688 91.488, 83.379 90.426 C 80.490 89.848, 80.428 89.930, 79.060 96.095 C 77.952 101.091, 77.907 103.487, 78.836 107.986 C 79.476 111.085, 80.024 115.843, 80.053 118.560 C 80.113 124.223, 82.204 136.194, 83.841 140.250 C 85.119 143.417, 88 143.961, 88 141.035 C 88 137.915, 90.924 137.009, 97.569 138.071 C 100.831 138.592, 105.447 139.302, 107.828 139.648 C 111.220 140.142, 112.360 140.816, 113.103 142.771 C 114.440 146.286, 113.384 148.693, 110.242 149.294 C 106.681 149.975, 97.213 149.109, 93.711 147.782 C 91.333 146.881, 90.563 147.062, 88.492 149.008 C 85.615 151.710, 85.901 152.399, 90.975 154.987 C 94.189 156.627, 96.278 156.875, 103.814 156.509 C 110.122 156.203, 113.116 156.436, 113.820 157.286 C 114.372 157.954, 115.339 161.341, 115.968 164.812 C 116.596 168.284, 117.306 171.659, 117.545 172.312 C 118.796 175.735, 116.536 176.180, 95.454 176.654 C 74.826 177.118, 71 177.722, 71 180.516 C 71 183.312, 73.979 183.474, 119 183.122 C 129.725 183.038, 140.027 183.413, 141.892 183.956 C 143.758 184.498, 145.652 184.715, 146.101 184.437 C 146.868 183.963, 153.993 185.870, 160.316 188.241 C 162.520 189.068, 163.451 188.978, 164.602 187.826 C 166.188 186.240, 165.534 183, 163.628 183 C 162.991 183, 160.776 182.092, 158.705 180.982 C 154.779 178.878, 146.738 177.474, 131.500 176.233 L 122.500 175.500 122.500 165.500 L 122.500 155.500 125 155.710 C 132.344 156.327, 145.798 156.258, 147.808 155.592 C 149.436 155.053, 150.026 154.190, 149.808 152.664 C 149.518 150.630, 148.708 150.440, 136.290 149.500 C 129.025 148.950, 122.577 147.992, 121.962 147.372 C 121.347 146.751, 120.991 144.951, 121.172 143.372 L 121.500 140.500 131 140.490 C 136.225 140.484, 141.287 140.098, 142.250 139.633 C 144.252 138.664, 144.630 135.065, 142.750 134.872 C 140.441 134.635, 135.547 134.401, 128.714 134.200 L 121.928 134 122.214 124.250 C 122.535 113.310, 121.917 113.850, 131 116.574 C 134.025 117.481, 137.785 118.456, 139.355 118.740 C 141.417 119.114, 142.601 120.194, 143.618 122.629 C 145.271 126.585, 147.703 127.032, 148.579 123.542 C 149.350 120.470, 148.481 104.021, 147.230 98 C 146.716 95.525, 145.510 91.600, 144.550 89.277 C 143.049 85.647, 142.292 84.970, 139.152 84.456 C 137.143 84.127, 132.505 82.990, 128.845 81.929 C 121.409 79.774, 117.434 79.488, 116.475 81.041 C 116.121 81.613, 115.082 81.855, 114.166 81.579 C 113.250 81.302, 108.900 80.820, 104.500 80.507 C 100.100 80.194, 94.190 79.675, 91.366 79.353 C 87.004 78.856, 85.914 79.086, 84.116 80.884 M 121.068 87.958 C 119.342 89.025, 120.068 104.173, 121.954 106.444 C 122.664 107.300, 124.652 108.002, 126.372 108.005 C 128.093 108.008, 131.300 109.119, 133.500 110.474 C 141.363 115.317, 142.426 113.505, 139.349 100.500 C 137.446 92.451, 136.576 91.006, 133.628 90.985 C 131.492 90.970, 125.410 89.071, 123.452 87.808 C 122.876 87.436, 121.803 87.504, 121.068 87.958 M 82.079 104.583 C 82.127 105.748, 82.364 105.985, 82.683 105.188 C 82.972 104.466, 82.936 103.603, 82.604 103.271 C 82.272 102.939, 82.036 103.529, 82.079 104.583 M 161.400 109.360 C 157.250 111.257, 156.460 113.600, 159.335 115.484 C 161.511 116.910, 169.003 117.445, 182.783 117.161 C 187.459 117.064, 188.193 117.331, 189.173 119.481 C 190.004 121.305, 189.964 122.672, 189.012 124.970 C 187.449 128.745, 188.463 147.830, 190.612 155.067 C 191.397 157.709, 192.630 163.319, 193.351 167.533 C 194.512 174.311, 194.481 175.413, 193.082 177.099 C 191.747 178.706, 190.678 178.904, 186.241 178.362 C 183.334 178.007, 180.012 176.878, 178.813 175.838 C 177.436 174.643, 176.295 174.305, 175.689 174.911 C 174.240 176.360, 175.434 178.380, 178.629 179.883 C 180.208 180.626, 182.175 181.556, 183 181.951 C 183.825 182.346, 188.201 182.754, 192.725 182.859 L 200.950 183.048 201.558 180.274 C 201.893 178.748, 202.345 176.924, 202.564 176.220 C 202.951 174.969, 201.395 166.506, 198.569 154.500 C 196.712 146.609, 195.637 130.434, 196.485 123.131 L 197.160 117.313 207.578 117.249 C 213.308 117.214, 218.216 117.541, 218.485 117.976 C 218.754 118.411, 218.278 123.774, 217.427 129.893 C 214.836 148.533, 216.713 154.146, 221.643 142.500 C 227.608 128.408, 228 127.001, 228 119.658 C 228 113.077, 227.773 112.221, 225.750 111.178 C 224.333 110.448, 215.357 109.853, 201.500 109.571 C 189.400 109.325, 176.125 108.858, 172 108.534 C 166.586 108.107, 163.638 108.337, 161.400 109.360 M 165 113 C 165 114.253, 166.061 114.253, 168 113 C 169.213 112.216, 169.069 112.028, 167.250 112.015 C 166.012 112.007, 165 112.450, 165 113 M 149.500 207.921 C 146.330 209.797, 146.315 209.871, 147.087 219.826 L 147.500 225.153 132.239 225.431 C 119.196 225.669, 116.690 225.971, 114.989 227.510 C 112.351 229.897, 112.479 231, 115.393 231 C 116.709 231, 118.068 231.734, 118.412 232.630 C 118.947 234.026, 120.152 234.165, 126.769 233.599 C 131.021 233.235, 135.625 233.041, 137 233.167 C 138.375 233.293, 141.873 233.383, 144.773 233.366 C 151.164 233.330, 150.692 231.832, 151.469 254.644 C 151.865 266.248, 151.695 272.574, 150.946 274.220 C 149.857 276.608, 149.602 276.653, 136.169 276.820 C 128.651 276.913, 117.550 277.283, 111.500 277.643 C 105.450 278.002, 96 278.342, 90.500 278.398 L 80.500 278.500 80.500 281.990 C 80.500 285.064, 80.858 285.554, 83.500 286.099 C 88.948 287.222, 132 285.211, 132 283.834 C 132 283.303, 131.499 281.932, 130.887 280.788 C 129.877 278.902, 129.994 278.767, 132.137 279.340 C 133.436 279.688, 134.907 279.979, 135.405 279.986 C 135.903 279.994, 135.515 280.879, 134.543 281.953 C 132.835 283.840, 132.867 283.928, 135.478 284.584 C 136.965 284.957, 139.923 284.740, 142.052 284.102 C 144.181 283.465, 146.953 283.194, 148.212 283.502 C 149.470 283.810, 152.750 283.559, 155.500 282.944 C 161.912 281.511, 162.251 281.511, 176.500 282.956 C 189.535 284.278, 201.904 284.572, 223.234 284.068 C 237.769 283.725, 239.789 283.061, 238.515 279.047 C 237.500 275.850, 234.763 274.911, 229.334 275.900 C 224.557 276.770, 201.832 276.558, 188.750 275.521 C 184.531 275.187, 182 275.364, 182 275.993 C 182 276.547, 183.295 277, 184.878 277 C 187.981 277, 190.586 279.243, 189.508 280.987 C 189.102 281.644, 187.417 281.804, 185.172 281.399 C 180.026 280.471, 178 279.236, 178 277.026 C 178 275.533, 177.017 274.975, 173.436 274.438 C 170.926 274.062, 167.143 273.986, 165.029 274.269 C 162.870 274.559, 160.706 274.306, 160.092 273.692 C 158.918 272.518, 158.798 254.107, 159.881 241 L 160.500 233.500 177.210 233.500 C 191.857 233.500, 194.139 233.282, 195.693 231.731 C 197.072 230.356, 197.222 229.577, 196.369 228.231 C 195.442 226.768, 193.435 226.470, 183.386 226.309 C 156.774 225.881, 158.174 226.071, 157.456 222.798 C 157.104 221.198, 157.133 217.159, 157.521 213.823 C 158.456 205.767, 156.087 204.024, 149.500 207.921 M 151 224.441 C 151 225.298, 151.450 226, 152 226 C 152.550 226, 153 225.577, 153 225.059 C 153 224.541, 152.550 223.840, 152 223.500 C 151.450 223.160, 151 223.584, 151 224.441 M 125.625 228.798 C 125.354 229.237, 125.481 230.160, 125.907 230.849 C 126.527 231.853, 127.228 231.853, 129.435 230.847 C 131.878 229.735, 131.981 229.510, 130.345 228.867 C 127.819 227.872, 126.211 227.849, 125.625 228.798 M 165.813 228.683 C 166.534 228.972, 167.397 228.936, 167.729 228.604 C 168.061 228.272, 167.471 228.036, 166.417 228.079 C 165.252 228.127, 165.015 228.364, 165.813 228.683 M 163 279 C 163 279.550, 163.675 280, 164.500 280 C 165.325 280, 166 279.550, 166 279 C 166 278.450, 165.325 278, 164.500 278 C 163.675 278, 163 278.450, 163 279 M 145 279.941 C 145 280.459, 145.409 281.135, 145.910 281.444 C 147.202 282.243, 150.099 280.970, 149.435 279.895 C 148.699 278.704, 145 278.743, 145 279.941 M 138.750 280.662 C 139.438 280.940, 140.563 280.940, 141.250 280.662 C 141.938 280.385, 141.375 280.158, 140 280.158 C 138.625 280.158, 138.063 280.385, 138.750 280.662 M 117 282 C 117 282.550, 117.900 283, 119 283 C 120.100 283, 121 282.550, 121 282 C 121 281.450, 120.100 281, 119 281 C 117.900 281, 117 281.450, 117 282" stroke="none" fill="black" fill-rule="evenodd"/>
</svg>