<svg xmlns="http://www.w3.org/2000/svg" width="300" height="300" viewBox="0 0 300 300" version="1.1">
	<path d="M 176.913 30.250 C 175.277 32.038, 173.431 35.188, 172.811 37.250 C 172.191 39.313, 171.192 41.053, 170.592 41.118 C 169.991 41.183, 168.150 41.328, 166.500 41.440 C 144.099 42.965, 137.842 44.819, 139.604 49.410 C 140.105 50.715, 141.986 51, 150.107 51 C 155.548 51, 160 50.587, 160 50.083 C 160 49.579, 159.469 48.990, 158.820 48.773 C 158.161 48.554, 157.927 47.634, 158.289 46.690 C 158.731 45.538, 160.079 45, 162.525 45 C 166.033 45, 166.079 45.050, 164.557 47.223 C 162.323 50.412, 162.561 50.843, 166.750 51.190 C 170.342 51.487, 170.514 51.669, 170.825 55.493 C 171.004 57.690, 170.462 68.490, 169.621 79.493 C 168.780 90.497, 168.302 102.126, 168.558 105.336 C 168.980 110.625, 167.516 131.817, 166.670 132.663 C 166.478 132.856, 159.160 133.164, 150.410 133.348 C 141.659 133.532, 132.700 134.170, 130.500 134.766 C 128.300 135.362, 124.475 136.378, 122 137.024 C 115.483 138.723, 114 140.416, 114 146.155 L 114 151 118.393 151 C 121.375 151, 122.971 150.518, 123.362 149.500 C 123.678 148.675, 124.626 148, 125.469 148 C 126.311 148, 127 147.622, 127 147.160 C 127 145.951, 133.156 144.330, 143.500 142.817 C 151.723 141.614, 168.727 141.494, 223.064 142.258 C 233.431 142.403, 239.662 140.555, 241.630 136.749 C 243.293 133.532, 242.751 129, 240.703 129 C 240.011 129, 238.557 129.611, 237.473 130.358 C 233.421 133.147, 227.254 133.504, 201 132.466 C 196.875 132.303, 190.185 132.131, 186.133 132.085 C 178.970 132.002, 178.786 131.938, 179.464 129.750 C 181.337 123.708, 181.300 122.891, 179.128 122.323 C 177.088 121.790, 177 121.202, 177.006 108.133 C 177.009 100.635, 177.470 91.800, 178.031 88.500 C 178.592 85.200, 179.081 77.881, 179.118 72.236 C 179.155 66.590, 179.574 60.740, 180.050 59.236 C 180.526 57.731, 181.272 54.543, 181.708 52.151 C 182.418 48.254, 182.916 47.647, 186.500 46.309 C 188.851 45.431, 194.292 44.766, 199.696 44.694 C 208.179 44.582, 208.985 44.396, 210.110 42.295 C 211.794 39.148, 209.895 35, 206.771 35 C 204.506 35, 191.506 37.395, 187.262 38.595 C 184.503 39.374, 183.523 37.385, 184.892 33.784 C 185.696 31.669, 185.475 30.855, 183.618 29.111 C 180.696 26.366, 180.425 26.412, 176.913 30.250 M 151 47.531 C 151 49.149, 152.563 49.517, 153.435 48.105 C 153.740 47.612, 153.316 46.952, 152.494 46.636 C 151.587 46.288, 151 46.639, 151 47.531 M 141.403 56.935 C 138.151 59.326, 137.170 60.856, 136.113 65.185 C 132.843 78.566, 128.962 89.844, 125.854 95 C 125.357 95.825, 124.048 98.300, 122.944 100.500 C 121.841 102.700, 120.516 105.175, 119.998 106 C 115.551 113.093, 108.979 126.503, 109.406 127.615 C 110.150 129.554, 113.704 129.342, 115.517 127.250 C 123.526 118.012, 129.129 108.814, 127.915 106.897 C 126.692 104.965, 126.755 104.642, 128.791 102.439 C 129.777 101.372, 131.645 97.800, 132.943 94.500 C 135.217 88.719, 138.719 82.039, 140.021 81 C 140.738 80.428, 143.525 72.714, 145.504 65.827 C 146.243 63.257, 147.293 60.321, 147.839 59.302 C 148.832 57.445, 147.734 54, 146.147 54 C 145.733 54, 143.598 55.321, 141.403 56.935 M 208.736 64.215 C 204.643 67.735, 201 73.141, 201 75.694 C 201 76.962, 200.622 78, 200.161 78 C 199.699 78, 198.829 79.081, 198.227 80.402 C 196.740 83.665, 188.056 95, 187.042 95 C 186.191 95, 183 101.111, 183 102.741 C 183 103.257, 184.146 104.201, 185.548 104.840 C 187.781 105.857, 188.381 105.692, 190.412 103.500 C 191.687 102.125, 193.143 101, 193.649 101 C 194.155 101, 195.411 99.537, 196.441 97.750 C 197.470 95.963, 199.116 93.719, 200.098 92.765 C 201.080 91.811, 202.304 90.279, 202.818 89.361 C 204.053 87.153, 206.183 88.082, 208.016 91.629 C 208.832 93.208, 210.512 95.320, 211.750 96.323 C 212.988 97.325, 214 98.787, 214 99.573 C 214 100.358, 214.620 101, 215.379 101 C 216.137 101, 217.298 102.306, 217.959 103.901 C 218.620 105.497, 220.209 107.787, 221.491 108.991 L 223.820 111.180 225.910 109.090 C 227.060 107.940, 228 106.362, 228 105.582 C 228 103.238, 226.859 101.002, 225.643 100.963 C 224.450 100.925, 219.338 93.488, 217.349 88.897 C 216.716 87.436, 215.703 85.935, 215.099 85.561 C 214.494 85.188, 214 83.931, 214 82.770 C 214 81.608, 213.327 79.914, 212.505 79.006 C 211.173 77.534, 211.233 76.892, 213.063 73.105 C 215.387 68.297, 215.326 62.673, 212.947 62.223 C 212.092 62.061, 210.198 62.958, 208.736 64.215 M 142.400 86.765 C 139.714 88.559, 138.896 91.903, 140.449 94.741 C 142.605 98.679, 144.245 100.528, 146.250 101.281 C 147.213 101.642, 148 102.401, 148 102.969 C 148 103.536, 148.675 104, 149.500 104 C 150.325 104, 151 104.444, 151 104.987 C 151 105.529, 152.688 107.555, 154.750 109.489 C 157.767 112.317, 159.185 112.955, 162 112.752 C 164.990 112.537, 165.500 112.139, 165.500 110.024 C 165.500 108.161, 164.217 106.673, 160.325 104.024 C 157.479 102.086, 154.670 99.600, 154.082 98.500 C 152.339 95.236, 150.637 92.875, 148.250 90.412 C 147.012 89.135, 146 87.620, 146 87.045 C 146 85.842, 144.014 85.688, 142.400 86.765 M 48.342 88.933 L 45.183 90.859 45.741 106.930 C 46.272 122.230, 46.208 123.003, 44.399 123.064 C 31.054 123.514, 26.021 123.842, 23.500 124.428 C 21.850 124.812, 19.519 125.323, 18.320 125.564 C 14.726 126.288, 12.999 128.813, 13.015 133.321 C 13.024 135.620, 13.423 138.119, 13.902 138.875 C 15.082 140.738, 19.465 140.611, 22.235 138.632 C 23.481 137.742, 25.532 136.268, 26.794 135.356 C 28.055 134.444, 30.530 133.746, 32.294 133.805 C 34.057 133.864, 36.967 133.390, 38.760 132.752 C 41.414 131.807, 42.288 131.861, 43.465 133.046 C 44.689 134.278, 44.749 136.565, 43.857 148 C 42.985 159.189, 43.172 178.239, 44.258 188.869 C 44.391 190.172, 43.825 191.582, 43 192.003 C 38.464 194.317, 31.412 196.756, 25.652 198.003 C 22.986 198.580, 20.174 199.683, 19.402 200.455 C 17.447 202.410, 17.653 206.376, 19.811 208.329 C 21.969 210.282, 24.402 209.747, 34.398 205.120 C 38.098 203.408, 42.330 201.704, 43.803 201.335 C 45.275 200.965, 47.032 200.176, 47.705 199.581 C 51.062 196.619, 52.022 196, 53.264 196 C 54.005 196, 56.136 194.875, 58 193.500 C 59.864 192.125, 61.778 191, 62.254 191 C 62.730 191, 66.920 187.825, 71.565 183.945 C 78.942 177.784, 79.880 176.644, 78.971 174.945 C 77.789 172.737, 74.499 172.356, 73.300 174.288 C 72.351 175.816, 63.068 182, 61.723 182 C 61.209 182, 59.452 183.125, 57.818 184.500 C 56.184 185.875, 53.981 187, 52.923 187 C 51.130 187, 51 186.169, 51 174.663 C 51 167.877, 51.690 157.865, 52.533 152.413 C 53.376 146.961, 54.340 140.344, 54.677 137.708 C 55.391 132.116, 56.155 131.554, 65.185 129.981 C 72.403 128.725, 78.515 124.507, 77.386 121.563 C 76.647 119.638, 75.270 119.608, 69.785 121.399 C 67.428 122.169, 63.100 123.006, 60.166 123.260 L 54.832 123.723 55.486 107.267 C 56.072 92.522, 55.960 90.614, 54.415 88.906 C 52.293 86.561, 52.231 86.562, 48.342 88.933 M 187 156.743 C 183.425 156.877, 171.847 157.675, 161.272 158.518 C 150.697 159.360, 141.003 159.788, 139.730 159.468 C 138.077 159.053, 136.319 159.760, 133.571 161.944 C 131.456 163.625, 129.142 165, 128.430 165 C 126.763 165, 126.300 166.665, 125.090 177 C 123.952 186.720, 122.521 223.294, 122.899 233 C 123.103 238.252, 123.713 240.349, 126.076 243.921 C 127.684 246.353, 129 248.893, 129 249.564 C 129 250.236, 129.711 251.059, 130.579 251.392 C 132.257 252.036, 137.161 251.138, 138 250.034 C 138.275 249.671, 140.975 248.649, 144 247.761 C 149.605 246.117, 164.642 245.047, 191.500 244.381 C 199.750 244.176, 208.750 243.739, 211.500 243.408 C 221.041 242.261, 224.591 242.572, 227.765 244.833 C 232.075 247.902, 235.495 247.682, 236.815 244.250 C 239.102 238.301, 239.986 221.718, 239.013 203 C 237.741 178.540, 234.613 164.243, 229.626 160.105 C 226.870 157.817, 204.807 156.077, 187 156.743 M 197.825 164.508 C 197.487 164.847, 190.525 165.289, 182.355 165.493 C 174.185 165.696, 165.925 166.107, 164 166.406 C 150.682 168.477, 147.527 169.201, 144.023 170.988 C 141.854 172.095, 138.764 173, 137.156 173 C 134.995 173, 134.054 173.586, 133.547 175.250 C 133.169 176.488, 132.464 188.075, 131.980 201 C 131.496 213.925, 131.034 226.075, 130.953 228 C 130.694 234.188, 130.950 234.923, 133.899 236.448 C 136.081 237.576, 138.988 237.829, 145.649 237.468 C 150.517 237.204, 171.600 236.787, 192.500 236.541 L 230.500 236.094 230.799 220.503 C 231.276 195.695, 228.970 174.575, 225.208 169.292 C 223.115 166.353, 222.737 166.240, 212.775 165.559 C 207.124 165.173, 201.586 164.640, 200.470 164.375 C 199.353 164.110, 198.163 164.170, 197.825 164.508 M 153.283 179.918 C 152.616 180.986, 150.817 182.004, 149.285 182.180 C 146.776 182.468, 146.469 182.928, 146.190 186.811 C 145.854 191.474, 148.517 206.061, 149.867 206.953 C 150.322 207.254, 150.973 209.910, 151.313 212.856 C 152.034 219.108, 153.297 221, 156.746 221 C 159.169 221, 159.230 220.835, 158.680 215.750 C 158.368 212.863, 157.240 206.450, 156.173 201.500 C 155.107 196.550, 154.427 192.292, 154.662 192.038 C 154.898 191.784, 156.018 192.155, 157.152 192.863 C 158.912 193.962, 159.525 193.866, 161.356 192.205 C 164.084 189.731, 175.035 188.648, 182.291 190.135 C 185.156 190.722, 189.236 191.555, 191.358 191.986 C 197.202 193.175, 199.370 195.853, 198.526 200.843 C 197.702 205.723, 196.529 206.252, 186 206.489 C 181.875 206.581, 177.685 207.018, 176.689 207.459 C 175.693 207.900, 172.521 207.984, 169.641 207.646 L 164.405 207.030 163.327 211.068 C 162.458 214.323, 162.530 215.387, 163.696 216.553 C 165.305 218.163, 169.086 218.476, 170.550 217.121 C 171.073 216.638, 173.152 215.949, 175.172 215.591 C 178.223 215.049, 179.097 215.301, 180.343 217.079 C 181.731 219.061, 182.380 219.165, 189.127 218.487 C 193.297 218.068, 197.499 217.014, 198.956 216.021 C 200.355 215.067, 202.634 213.604, 204.021 212.770 C 206.447 211.311, 206.536 210.902, 206.399 201.877 C 206.217 189.937, 205.515 187.468, 201.646 185.150 C 197.316 182.557, 181.709 179.976, 168.500 179.669 C 162.450 179.528, 156.824 179.090, 155.998 178.695 C 155.036 178.235, 154.060 178.675, 153.283 179.918" stroke="none" fill="black" fill-rule="evenodd"/>
</svg>