<svg xmlns="http://www.w3.org/2000/svg" width="300" height="300" viewBox="0 0 300 300" version="1.1">
	<path d="M 160.046 15.444 C 159.387 16.238, 157.195 17.026, 155.174 17.194 L 151.500 17.500 151 25.484 L 150.500 33.467 137 33.720 C 124.502 33.953, 116.193 34.734, 105.112 36.715 C 99.962 37.636, 98.214 40.433, 100.632 43.885 C 102.436 46.461, 106.968 46.666, 113.452 44.465 C 116.075 43.574, 123.932 42.629, 132.157 42.215 C 142.083 41.714, 146.463 41.125, 146.753 40.250 C 146.995 39.517, 146.304 39, 145.083 39 C 142.049 39, 142.533 37.325, 145.750 36.694 C 148.651 36.124, 150.926 37.310, 149.098 38.439 C 148.365 38.893, 148.505 39.841, 149.539 41.419 C 150.499 42.885, 150.986 45.706, 150.867 49.116 C 150.689 54.213, 151.030 57.309, 152.516 64.072 C 153.022 66.377, 152.769 67.127, 151.330 67.592 C 150.323 67.916, 148.509 68.655, 147.298 69.234 C 145.956 69.876, 142.502 70.020, 138.447 69.605 C 134.619 69.213, 131.310 69.326, 130.649 69.873 C 130.017 70.396, 128.150 70.975, 126.500 71.162 C 124.114 71.431, 123.438 72.037, 123.196 74.122 C 123.023 75.616, 123.453 76.939, 124.196 77.197 C 126.116 77.864, 145.306 76.357, 150.780 75.109 C 153.376 74.518, 160.675 73.835, 167 73.591 C 173.325 73.348, 178.613 73.115, 178.750 73.074 C 178.887 73.033, 179 72.293, 179 71.429 C 179 68.646, 176.623 67.328, 171.989 67.540 C 163.396 67.933, 161.207 67.159, 159.925 63.272 C 158.259 58.224, 159.168 43.404, 161.273 41.299 C 162.298 40.273, 165.044 39.549, 168.700 39.341 C 171.890 39.159, 177.548 38.847, 181.272 38.649 C 184.997 38.451, 188.340 37.993, 188.701 37.632 C 189.062 37.272, 190.870 37.260, 192.718 37.607 C 198.533 38.698, 202.729 32.531, 197.922 29.958 C 196.779 29.346, 195.142 29.115, 194.284 29.444 C 193.427 29.773, 186.599 30.484, 179.113 31.024 C 171.626 31.563, 164.600 32.116, 163.500 32.252 C 161.747 32.469, 161.462 31.831, 161.192 27.075 C 160.951 22.836, 161.334 21.040, 162.942 18.865 C 164.074 17.334, 165 15.613, 165 15.040 C 165 13.491, 161.425 13.783, 160.046 15.444 M 186 34 L 183.500 34.801 186.191 34.900 C 187.671 34.955, 189.160 34.550, 189.500 34 C 190.203 32.863, 189.549 32.863, 186 34 M 136.028 36.467 C 135.328 37.310, 133.835 38, 132.711 38 C 131.587 38, 130.907 38.240, 131.200 38.533 C 132.155 39.488, 140.088 37.763, 139.726 36.679 C 139.146 34.937, 137.381 34.836, 136.028 36.467 M 166.475 36.040 C 166.054 36.722, 166.808 36.846, 168.666 36.399 C 172.498 35.479, 172.860 35, 169.726 35 C 168.291 35, 166.829 35.468, 166.475 36.040 M 123.500 37.727 C 118.208 38.480, 118.651 39.775, 124.164 39.671 C 127.099 39.615, 128.707 39.407, 127.738 39.209 C 126.769 39.011, 126.233 38.433, 126.547 37.924 C 126.861 37.416, 126.979 37.067, 126.809 37.150 C 126.639 37.232, 125.150 37.492, 123.500 37.727 M 164 83.986 C 160.425 84.415, 153.803 84.819, 149.285 84.883 C 144.767 84.947, 139.137 85.656, 136.775 86.458 C 134.413 87.260, 130.459 87.994, 127.990 88.089 C 120.256 88.387, 103.789 89.975, 96.735 91.104 C 91.836 91.888, 89.689 92.713, 88.950 94.093 C 87.698 96.433, 85.255 96.541, 82.847 94.362 C 80.389 92.137, 78.088 94.011, 78.788 97.670 C 79.188 99.764, 78.970 100.202, 77.758 99.737 C 74.771 98.591, 74.100 108.211, 76.603 116.312 C 80.010 127.340, 84.045 132.964, 87.578 131.608 C 89.581 130.840, 89.344 127.613, 87.004 123.774 C 83.881 118.652, 84.341 113.571, 88.250 110.015 C 90.037 108.389, 91.879 107.045, 92.342 107.029 C 92.806 107.013, 94.253 106.159, 95.560 105.132 C 97.202 103.840, 99.637 103.248, 103.455 103.214 C 110.278 103.153, 115 102.171, 115 100.814 C 115 100.248, 115.634 100.029, 116.410 100.327 C 118.008 100.940, 125.191 99.020, 126.091 97.739 C 126.415 97.276, 127.838 97.425, 129.251 98.068 C 131.347 99.024, 132.246 98.941, 134.133 97.620 C 135.470 96.683, 138.432 96, 141.157 96 C 143.749 96, 147.137 95.499, 148.685 94.886 C 150.233 94.273, 152.945 93.809, 154.711 93.854 C 156.477 93.899, 158.174 93.527, 158.483 93.028 C 158.812 92.495, 160.319 92.564, 162.129 93.195 C 164.278 93.944, 165.412 93.952, 165.863 93.221 C 166.235 92.620, 171.358 92.040, 177.856 91.862 C 187.579 91.597, 189.377 91.794, 190.435 93.242 C 191.195 94.281, 192.027 94.573, 192.598 94.002 C 193.766 92.834, 199.517 94.744, 203.429 97.599 L 206.306 99.698 205.029 115.538 C 204.326 124.251, 203.410 132.569, 202.993 134.023 C 202.220 136.719, 203.342 140, 205.037 140 C 209.764 140, 216.706 111.006, 215.259 97.306 C 214.660 91.635, 212.537 88.972, 206.123 85.852 C 202.008 83.850, 199.796 83.580, 186 83.404 C 177.475 83.295, 167.575 83.557, 164 83.986 M 156.500 89 C 160.944 90.131, 164 90.131, 164 89 C 164 88.445, 161.662 88.053, 158.750 88.118 C 154.262 88.219, 153.936 88.347, 156.500 89 M 185.813 88.683 C 186.534 88.972, 187.397 88.936, 187.729 88.604 C 188.061 88.272, 187.471 88.036, 186.417 88.079 C 185.252 88.127, 185.015 88.364, 185.813 88.683 M 152.269 91.693 C 153.242 91.947, 154.592 91.930, 155.269 91.656 C 155.946 91.382, 155.150 91.175, 153.500 91.195 C 151.850 91.215, 151.296 91.439, 152.269 91.693 M 126 94.441 C 126 95.298, 126.450 96, 127 96 C 127.550 96, 128 95.577, 128 95.059 C 128 94.541, 127.550 93.840, 127 93.500 C 126.450 93.160, 126 93.584, 126 94.441 M 172.813 93.683 C 173.534 93.972, 174.397 93.936, 174.729 93.604 C 175.061 93.272, 174.471 93.036, 173.417 93.079 C 172.252 93.127, 172.015 93.364, 172.813 93.683 M 89 97.500 C 89 98.325, 89.450 99, 90 99 C 90.550 99, 91 98.325, 91 97.500 C 91 96.675, 90.550 96, 90 96 C 89.450 96, 89 96.675, 89 97.500 M 170.445 117.284 C 170.056 118.296, 167.341 118.889, 161.064 119.335 C 156.206 119.680, 150.941 120.467, 149.365 121.085 C 147.789 121.703, 144.648 122.368, 142.384 122.563 C 140.121 122.758, 134.946 123.611, 130.884 124.458 C 126.823 125.305, 122.299 125.999, 120.832 125.999 C 115.907 126.001, 115 126.889, 115 131.712 L 115 136.210 118.750 135.643 C 120.813 135.332, 124.119 134.793, 126.097 134.447 L 129.694 133.817 130.340 140.658 C 131.518 153.131, 131.208 157.819, 129.131 158.930 C 128.104 159.480, 127.019 159.686, 126.721 159.387 C 126.179 158.846, 104.955 161.712, 104.244 162.422 C 104.038 162.628, 103.733 165.655, 103.566 169.149 C 103.047 180.031, 101.194 194.261, 99.550 200 C 98.684 203.025, 97.694 207.075, 97.352 209 C 97.010 210.925, 96.083 213.247, 95.292 214.159 C 94.039 215.605, 94.056 216.207, 95.420 218.846 C 97.547 222.959, 98.453 223.334, 101.921 221.541 C 103.560 220.693, 105.645 220, 106.555 220 C 107.465 220, 110.449 218.875, 113.187 217.500 C 115.924 216.125, 118.972 215, 119.960 215 C 120.947 215, 122.315 214.325, 123 213.500 C 123.685 212.675, 125.064 212, 126.066 212 C 127.067 212, 128.495 211.131, 129.238 210.070 C 129.982 209.008, 131.863 207.996, 133.419 207.820 L 136.248 207.500 136.086 217 C 135.997 222.225, 135.386 230.550, 134.728 235.500 C 132.389 253.100, 134.288 262.764, 139.210 258.310 C 140.434 257.202, 141.004 255.429, 140.894 253.068 C 140.803 251.106, 141.457 245.225, 142.348 240 C 146.103 217.959, 146.414 209.652, 143.748 202.631 C 142.701 199.873, 142.465 199.785, 137.656 200.354 C 134.904 200.680, 132.191 201.409, 131.627 201.973 C 131.062 202.538, 129.790 203, 128.800 203 C 127.810 203, 127 203.340, 127 203.756 C 127 204.172, 125.537 205.135, 123.750 205.896 C 121.963 206.657, 118.124 208.342, 115.220 209.640 C 108.732 212.540, 103.422 213.166, 103.675 211 C 103.771 210.175, 105.168 205.900, 106.779 201.500 C 108.569 196.609, 109.967 190.391, 110.374 185.500 C 111.660 170.073, 111.782 169.679, 115.840 167.853 C 117.853 166.947, 122.425 165.987, 126 165.720 C 132.973 165.199, 145.495 160.757, 146.362 158.498 C 147.062 156.676, 144.423 154.624, 142.386 155.405 C 139.185 156.634, 138.417 154.411, 138.500 144.157 C 138.591 132.935, 139.234 131.541, 144.786 130.539 C 149.382 129.710, 160.409 126.387, 162.788 125.114 C 165.118 123.866, 167.938 125.478, 167.396 127.748 C 167.166 128.711, 166.572 135.800, 166.077 143.500 C 165.317 155.312, 165.410 157.866, 166.673 159.844 C 167.804 161.616, 168.699 162.018, 170.335 161.489 C 171.526 161.104, 174.605 160.645, 177.177 160.469 C 179.749 160.293, 182.757 159.665, 183.861 159.074 C 184.965 158.483, 187.473 158, 189.434 158 L 193 158 193.167 174 C 193.258 182.800, 193.371 190.774, 193.417 191.719 C 193.510 193.647, 186.434 195.159, 171 196.508 C 159.766 197.490, 155.620 200.770, 160.796 204.584 C 161.605 205.180, 162.730 207.880, 163.297 210.584 C 164.470 216.184, 164.733 242.191, 163.717 252.144 C 163.204 257.169, 163.369 259.061, 164.393 259.911 C 167.377 262.388, 168.669 260.021, 170.995 247.809 C 173.020 237.185, 173.222 233.914, 172.659 220.919 C 172.112 208.261, 172.245 205.898, 173.581 204.562 C 174.440 203.703, 175.984 203, 177.012 203 C 178.041 203, 179.123 202.610, 179.418 202.133 C 180.083 201.056, 188.143 199.765, 193.500 199.876 C 195.700 199.922, 198.114 199.572, 198.865 199.099 C 202.136 197.040, 202.949 160.820, 199.869 154.428 L 198.458 151.500 186.479 151.500 L 174.500 151.500 174.534 140 C 174.552 133.675, 174.777 125.800, 175.034 122.500 C 175.471 116.871, 175.360 116.480, 173.246 116.180 C 171.973 115.999, 170.753 116.480, 170.445 117.284 M 140.543 126.931 C 139.541 128.552, 141.718 129.045, 143.009 127.489 C 144.014 126.278, 143.953 126, 142.681 126 C 141.822 126, 140.859 126.419, 140.543 126.931 M 123 129 C 123 129.550, 123.477 130, 124.059 130 C 124.641 130, 124.840 129.550, 124.500 129 C 124.160 128.450, 123.684 128, 123.441 128 C 123.198 128, 123 128.450, 123 129 M 165.583 205.866 C 165.152 206.563, 165.070 207.403, 165.400 207.733 C 166.295 208.628, 167.271 207.312, 166.787 205.862 C 166.449 204.846, 166.213 204.846, 165.583 205.866 M 217.966 260.363 C 217.672 260.659, 209.572 261.139, 199.966 261.428 C 190.360 261.718, 179.125 262.395, 175 262.933 C 170.875 263.472, 167.177 263.932, 166.781 263.956 C 165.351 264.044, 167.233 266.939, 169.107 267.534 C 170.164 267.869, 170.771 268.562, 170.456 269.072 C 169.442 270.711, 167.503 270.065, 166.487 267.750 C 165.584 265.692, 164.734 265.475, 156.501 265.207 C 151.425 265.042, 140.744 265.796, 132.001 266.937 C 123.286 268.074, 109.951 269.017, 101.541 269.091 C 93.313 269.164, 86.001 269.446, 85.291 269.719 C 83.537 270.392, 83.645 276.702, 85.428 277.700 C 86.726 278.427, 120.909 276.729, 130.500 275.462 C 132.700 275.171, 135.625 274.937, 137 274.942 C 138.375 274.947, 140.619 274.702, 141.986 274.398 C 144.201 273.904, 144.281 273.737, 142.715 272.860 C 140.591 271.672, 141.377 270, 144.059 270 C 145.729 270, 146.359 270.887, 146.198 273.011 C 146.149 273.665, 167.572 272.384, 180.220 270.975 C 185.566 270.380, 192.541 269.972, 195.720 270.068 C 198.899 270.164, 206.675 269.932, 213 269.552 C 219.325 269.172, 226.533 269.265, 229.018 269.758 C 234.504 270.847, 236 270.441, 236 267.861 C 236 266.444, 234.462 265.185, 230.535 263.388 C 224.975 260.842, 218.932 259.388, 217.966 260.363 M 153.199 268.596 C 151.337 270.641, 152.756 272.387, 154.699 270.443 C 155.602 269.541, 155.894 268.509, 155.386 268.019 C 154.892 267.544, 153.924 267.800, 153.199 268.596 M 100 274.622 C 100 275.951, 100.271 276.020, 101.500 275 C 102.325 274.315, 103 273.585, 103 273.378 C 103 273.170, 102.325 273, 101.500 273 C 100.675 273, 100 273.730, 100 274.622 M 105.704 274.104 C 106.495 274.895, 107.330 274.903, 108.654 274.134 C 110.272 273.193, 110.136 273.057, 107.550 273.030 C 105.399 273.008, 104.899 273.299, 105.704 274.104 M 116.250 273.689 C 117.213 273.941, 118.787 273.941, 119.750 273.689 C 120.713 273.438, 119.925 273.232, 118 273.232 C 116.075 273.232, 115.287 273.438, 116.250 273.689 M 88.079 275.583 C 88.127 276.748, 88.364 276.985, 88.683 276.188 C 88.972 275.466, 88.936 274.603, 88.604 274.271 C 88.272 273.939, 88.036 274.529, 88.079 275.583" stroke="none" fill="black" fill-rule="evenodd"/>
</svg>