<svg xmlns="http://www.w3.org/2000/svg" width="300" height="300" viewBox="0 0 300 300" version="1.1">
	<path d="M 115.019 27.450 C 114.479 28.871, 113.294 33.063, 112.386 36.766 C 109.991 46.532, 100.793 70.515, 98.873 72 C 98.517 72.275, 97.388 73.922, 96.363 75.659 C 89.928 86.572, 88.437 88.821, 85.737 91.684 C 83.814 93.724, 82.962 95.457, 83.365 96.508 C 84.522 99.523, 87.450 97.534, 92.229 90.487 C 94.835 86.644, 97.650 82.621, 98.484 81.547 C 99.318 80.472, 100 79.187, 100 78.691 C 100 78.194, 101.284 76.148, 102.854 74.144 C 105.369 70.933, 112.762 56.539, 114.355 51.750 C 114.705 50.698, 115.946 50, 117.469 50 C 120.286 50, 120.816 48.556, 118.478 47.248 C 117.133 46.495, 117.182 45.691, 118.897 40.323 C 119.964 36.982, 120.986 32.281, 121.169 29.875 C 121.481 25.751, 121.342 25.482, 118.750 25.184 C 116.568 24.932, 115.799 25.400, 115.019 27.450 M 170 44 C 169.175 44.533, 166.392 44.976, 163.815 44.985 C 161.238 44.993, 157.863 45.505, 156.315 46.123 C 154.698 46.768, 147.860 47.220, 140.243 47.185 L 126.987 47.125 125.468 50.063 C 124.632 51.678, 123.510 53, 122.974 53 C 122.438 53, 122 53.675, 122 54.500 C 122 55.654, 123.285 56, 127.566 56 C 130.627 56, 134.019 55.525, 135.105 54.944 C 136.190 54.363, 141.711 53.744, 147.375 53.567 C 153.038 53.390, 158.655 52.720, 159.857 52.077 C 163.622 50.062, 165.592 53.467, 162.660 56.921 C 161.923 57.790, 160.278 61.354, 159.004 64.841 C 157.730 68.329, 156.083 71.415, 155.344 71.698 C 154.605 71.982, 154 73.039, 154 74.048 C 154 75.057, 153.556 76.157, 153.013 76.492 C 151.702 77.302, 140.136 93.607, 138.927 96.349 C 138.109 98.204, 136.727 100.554, 132.100 107.955 C 131.494 108.925, 128.482 109.643, 123.064 110.109 C 118.594 110.493, 114.389 111.250, 113.719 111.791 C 113.048 112.331, 110.475 113.090, 108 113.476 C 100.748 114.606, 93 117.055, 93 118.217 C 93 118.808, 91.867 118.070, 90.483 116.576 C 87.212 113.047, 85.331 113.548, 82.429 118.722 C 79.454 124.028, 78.077 136.913, 77.645 163.500 C 77.297 184.949, 77.873 188.268, 81.867 187.805 C 84.497 187.500, 84.500 187.488, 84.601 178 C 84.882 151.708, 86.376 131.086, 88.283 127.176 C 89.698 124.277, 95.344 121.754, 100.137 121.881 C 102.241 121.936, 104.295 121.349, 105.010 120.488 C 105.689 119.670, 107.465 119, 108.956 119 C 110.447 119, 111.990 118.676, 112.386 118.281 C 113.044 117.623, 114.576 117.396, 123.500 116.638 C 125.150 116.498, 127.175 116.126, 128 115.811 C 132.545 114.079, 136.861 113.404, 138.802 114.122 C 141.651 115.176, 141.577 116.514, 138.500 119.591 C 137.125 120.966, 135.990 122.633, 135.978 123.295 C 135.966 123.958, 135.076 125.625, 134 127 C 132.924 128.375, 132.034 129.888, 132.022 130.361 C 132.010 130.835, 130.154 133.427, 127.899 136.121 C 123.285 141.632, 119.001 147.732, 118.999 148.794 C 118.998 149.182, 117.873 150.807, 116.499 152.406 C 115.124 154.004, 114 155.633, 114 156.026 C 114 156.419, 112.172 158.487, 109.937 160.621 C 103.551 166.718, 101.259 172, 105 172 C 106.100 172, 107 171.550, 107 171 C 107 169.159, 109.857 169.975, 110.500 172 C 111.984 176.676, 114.919 172.925, 121.455 158 C 123.998 152.191, 127.709 146.517, 129.155 146.223 C 129.905 146.071, 132.952 148.230, 135.925 151.022 C 140.973 155.761, 146.615 158.997, 155 161.964 C 156.925 162.645, 159.494 163.672, 160.708 164.248 C 163.934 165.775, 181.235 164.331, 182.290 162.446 C 182.735 161.651, 183.674 161, 184.375 161 C 185.917 161, 190 156.822, 190 155.245 C 190 153.173, 188.363 153.072, 184.416 154.899 C 182.262 155.896, 178.123 157.152, 175.217 157.689 C 170.604 158.543, 169.209 158.372, 164.217 156.338 C 161.073 155.057, 158.158 154.007, 157.739 154.005 C 155.891 153.993, 147.099 149.283, 142.884 146.045 C 140.345 144.095, 137.461 142.027, 136.475 141.449 C 133.951 139.968, 135.054 136.612, 140.103 130.415 C 143.051 126.798, 144.311 124.272, 144.469 121.664 C 144.822 115.853, 146.793 114.474, 155.099 114.223 C 159.052 114.104, 162.785 113.602, 163.393 113.106 C 164.002 112.611, 166.750 111.970, 169.500 111.682 C 177.538 110.841, 184.010 109.390, 185.249 108.151 C 185.882 107.518, 187.395 107, 188.611 107 C 191.578 107, 202.247 102.906, 203.500 101.287 C 204.050 100.576, 206.525 99.932, 209 99.856 C 211.475 99.780, 214.336 99.290, 215.357 98.767 C 218.824 96.990, 219.329 99.152, 217.993 110.056 C 217.305 115.673, 216.128 121.446, 215.377 122.884 C 214.627 124.323, 214.010 126.538, 214.006 127.807 C 214.003 129.075, 212.425 133.918, 210.500 138.568 C 208.575 143.219, 207 147.638, 207 148.389 C 207 149.140, 206.325 150.315, 205.500 151 C 204.675 151.685, 204 153.167, 204 154.294 C 204 155.421, 203.419 157.053, 202.708 157.921 C 201.998 158.790, 200.563 162.121, 199.520 165.325 C 197.892 170.326, 197.828 171.278, 199.062 172.060 C 199.853 172.560, 201.056 172.976, 201.737 172.985 C 203.161 173.002, 205.376 168.157, 206.370 162.850 C 206.745 160.843, 207.704 158.661, 208.500 158 C 209.296 157.339, 210.231 155.285, 210.578 153.435 C 210.925 151.585, 211.837 149.550, 212.605 148.913 C 213.372 148.276, 214 147.107, 214 146.316 C 214 145.524, 215.612 141.417, 217.582 137.188 C 219.552 132.960, 221.755 128.150, 222.479 126.500 C 224.724 121.383, 227.126 109.866, 227.695 101.500 C 228.181 94.336, 228.026 93.310, 226.209 91.677 C 224.319 89.978, 223.852 89.957, 219.340 91.375 C 216.678 92.212, 212.700 93.258, 210.500 93.698 C 208.300 94.139, 206.581 94.950, 206.679 95.500 C 206.949 97.009, 203.691 98.572, 203.220 97.160 C 202.697 95.592, 199.882 95.696, 197.473 97.372 C 196.388 98.127, 193.925 99.053, 192 99.430 C 190.075 99.808, 187.600 100.484, 186.500 100.933 C 181.104 103.138, 171.613 105.419, 163.500 106.462 C 156.144 107.408, 154.524 107.923, 154.634 109.279 C 154.707 110.192, 153.886 111.219, 152.808 111.561 C 150.677 112.237, 148.705 111.010, 150.750 110.280 C 152.533 109.643, 152.300 108.238, 150 105.770 L 148 103.623 145.961 105.811 C 143.922 108, 140.566 108.724, 139.612 107.182 C 138.652 105.628, 146.935 90.873, 152.750 83.777 C 154.537 81.595, 156 79.488, 156 79.094 C 156 78.700, 156.879 77.433, 157.954 76.279 C 160.049 74.031, 167 63.468, 167 62.533 C 167 62.223, 169.725 58.541, 173.055 54.350 C 176.602 49.886, 178.880 46.131, 178.555 45.283 C 178.250 44.487, 178 43.648, 178 43.418 C 178 42.581, 171.459 43.057, 170 44 M 131 51 C 131 51.550, 131.423 52, 131.941 52 C 132.459 52, 133.160 51.550, 133.500 51 C 133.840 50.450, 133.416 50, 132.559 50 C 131.702 50, 131 50.450, 131 51 M 175.658 106.235 C 175.021 106.639, 176.188 106.976, 178.250 106.985 C 180.313 106.993, 182 106.598, 182 106.106 C 182 105.064, 177.355 105.158, 175.658 106.235 M 166.750 108.299 C 163.638 109.529, 163.109 111, 165.778 111 C 166.756 111, 168.326 110.100, 169.268 109 C 171.158 106.793, 170.808 106.696, 166.750 108.299 M 113.813 114.683 C 114.534 114.972, 115.397 114.936, 115.729 114.604 C 116.061 114.272, 115.471 114.036, 114.417 114.079 C 113.252 114.127, 113.015 114.364, 113.813 114.683 M 148.575 175.059 C 147.516 176.127, 145.884 177, 144.947 177 C 142.381 177, 141.390 178.838, 139.940 186.286 C 139.213 190.018, 138 193.585, 137.243 194.213 C 136.486 194.841, 131.960 195.465, 127.184 195.599 C 122.408 195.734, 117.980 195.879, 117.344 195.922 C 116.690 195.966, 116.415 196.869, 116.710 198 C 117.156 199.706, 116.738 200.002, 113.867 200.014 C 112.015 200.021, 109.468 200.304, 108.207 200.641 C 106.656 201.057, 106.009 200.854, 106.207 200.014 C 106.582 198.426, 96.255 197.857, 90.186 199.131 C 86.745 199.854, 85.290 199.693, 82.996 198.339 C 80.569 196.905, 79.527 196.822, 76.310 197.809 C 74.215 198.453, 67.100 199.469, 60.500 200.068 C 49.047 201.107, 48.373 201.294, 45.713 204.181 C 43.515 206.566, 43.171 207.501, 44.085 208.603 C 45.622 210.455, 48.505 210.370, 51.537 208.384 C 52.894 207.495, 54.864 206.993, 55.916 207.268 C 56.967 207.543, 64.043 207.183, 71.639 206.469 C 79.235 205.755, 86.137 205.529, 86.975 205.967 C 87.814 206.405, 89.625 206.330, 91 205.799 C 92.375 205.269, 98.204 204.656, 103.952 204.438 C 109.701 204.219, 117.948 203.555, 122.280 202.962 C 131.829 201.654, 133.373 202.407, 132.393 207.888 C 132.037 209.875, 131.214 212.175, 130.562 213 C 129.911 213.825, 128.280 216.738, 126.939 219.474 C 125.597 222.210, 123.938 225.055, 123.250 225.796 C 122.563 226.537, 122 227.627, 122 228.218 C 122 228.809, 120.425 231.666, 118.500 234.566 C 116.575 237.466, 115 240.085, 115 240.385 C 115 242.383, 100.037 261.566, 95.068 265.940 C 89.692 270.672, 87.504 274, 89.768 274 C 90.798 274, 99.367 266.894, 105.270 261.146 C 110.153 256.389, 111.207 254.983, 119.624 242 C 126.491 231.407, 125.382 233.335, 135.449 214.500 C 142.198 201.873, 143.312 200.811, 149.486 201.123 C 156.973 201.500, 161 201.116, 161 200.025 C 161 199.469, 159.602 199.307, 157.750 199.647 C 154.640 200.218, 154.586 200.175, 156.500 198.654 C 157.729 197.677, 157.995 197.051, 157.191 197.032 C 156.471 197.014, 156.160 196.550, 156.500 196 C 157.340 194.640, 162.063 194.724, 161.750 196.093 C 161.366 197.773, 164.505 199.404, 166.586 198.605 C 168.007 198.060, 168.137 197.703, 167.138 197.085 C 165.452 196.043, 167.924 195, 172.082 195 C 175.388 195, 176.077 197.293, 173.250 198.888 C 171.995 199.596, 171.805 200.184, 172.579 200.967 C 173.358 201.755, 174.451 201.648, 176.508 200.580 C 178.075 199.767, 179.711 199.321, 180.143 199.589 C 180.576 199.856, 182.675 198.920, 184.808 197.508 C 187.782 195.540, 189.563 195.051, 192.447 195.409 C 197.075 195.983, 198.366 197, 194.467 197 C 192.442 197, 191.912 197.312, 192.663 198.063 C 193.829 199.229, 209.195 199.524, 218 198.550 C 231.556 197.050, 250.815 195.915, 254.105 196.422 C 257.908 197.008, 259.466 195.967, 261.941 191.186 C 262.868 189.395, 262.870 188.548, 261.947 187.436 C 260.493 185.684, 255.848 185.552, 254.184 187.216 C 253.515 187.885, 251.738 188.489, 250.234 188.560 C 243.837 188.859, 243 189.068, 243 190.369 C 243 191.174, 241.456 191.994, 239.250 192.358 C 233.467 193.314, 232 193.131, 232 191.454 C 232 190.184, 230.800 189.961, 225.250 190.204 C 218.921 190.482, 218.515 190.640, 218.738 192.750 C 218.869 193.988, 218.644 194.993, 218.238 194.985 C 216.839 194.956, 215.500 193.496, 215.500 192 C 215.500 191.067, 214.744 190.613, 213.500 190.799 C 212.400 190.963, 208.380 191.295, 204.566 191.537 C 200.753 191.778, 197.316 192.489, 196.928 193.116 C 196.504 193.803, 195.682 193.919, 194.862 193.408 C 192.805 192.126, 156.013 192.916, 152.750 194.312 C 151.238 194.959, 150 195.776, 150 196.127 C 150 196.479, 149.142 196.991, 148.094 197.265 C 146.689 197.633, 146.070 197.145, 145.738 195.410 C 145.174 192.457, 148.067 183.754, 150.875 179.955 C 154.776 174.679, 152.904 170.696, 148.575 175.059 M 236 190 C 236 190.550, 236.423 191, 236.941 191 C 237.459 191, 238.160 190.550, 238.500 190 C 238.840 189.450, 238.416 189, 237.559 189 C 236.702 189, 236 189.450, 236 190 M 109 196.393 C 109 197.364, 111.817 197.729, 113.091 196.923 C 114.116 196.273, 113.751 196.026, 111.750 196.015 C 110.237 196.007, 109 196.177, 109 196.393 M 122 198.506 C 122 199.520, 123.028 200, 125.200 200 C 127.669 200, 128.129 199.729, 127.214 198.814 C 125.378 196.978, 122 196.779, 122 198.506 M 147.813 199.683 C 148.534 199.972, 149.397 199.936, 149.729 199.604 C 150.061 199.272, 149.471 199.036, 148.417 199.079 C 147.252 199.127, 147.015 199.364, 147.813 199.683 M 72.446 201.425 C 70.591 202.790, 70.585 202.890, 72.317 203.561 C 74.533 204.420, 76.872 202.472, 75.396 200.996 C 74.725 200.325, 73.749 200.466, 72.446 201.425 M 78.441 201.532 C 80.889 203.384, 81.641 203.377, 82.362 201.500 C 82.801 200.355, 82.176 200.008, 79.719 200.032 C 76.672 200.062, 76.604 200.142, 78.441 201.532 M 61.751 202.392 C 60.985 203.158, 59.490 204.006, 58.429 204.276 C 56.678 204.723, 56.698 204.779, 58.635 204.884 C 61.358 205.032, 67.253 202.586, 66.350 201.683 C 65.251 200.584, 63.250 200.892, 61.751 202.392 M 162.010 223.981 L 159.912 228.093 163.411 233.853 C 166.803 239.437, 168.948 241.590, 179.500 250 C 187.363 256.267, 192.073 260.200, 196.565 264.250 C 198.852 266.313, 201.015 268, 201.372 268 C 201.729 268, 204.233 269.555, 206.938 271.456 C 209.642 273.357, 213.350 275.582, 215.178 276.399 C 217.005 277.216, 220.075 278.748, 222 279.802 C 223.925 280.857, 227.695 282.705, 230.378 283.909 L 235.255 286.098 239.111 282.299 C 241.231 280.210, 242.974 278, 242.983 277.389 C 242.993 276.759, 240.482 276.049, 237.182 275.750 C 231.387 275.225, 223.646 271.706, 216.406 266.307 C 214.704 265.038, 213.030 264, 212.687 264 C 211.497 264, 200.478 256.017, 196.024 251.927 C 193.562 249.667, 190.299 247.172, 188.774 246.383 C 187.248 245.594, 186 244.510, 186 243.974 C 186 243.438, 185.426 243, 184.725 243 C 182.468 243, 171.667 230.236, 167.429 222.560 C 165.632 219.306, 164.204 219.680, 162.010 223.981 M 163 226.555 C 163 228.608, 167.324 236, 168.525 236 C 170.676 236, 170.361 234.799, 166.994 230.150 C 164.195 226.286, 163 225.211, 163 226.555 M 184.512 249.981 C 184.039 250.746, 185.141 251.912, 187.750 253.403 C 188.566 253.870, 189 253.444, 189 252.176 C 189 250.219, 185.440 248.478, 184.512 249.981 M 197 260.409 C 197 260.599, 197.675 261.315, 198.500 262 C 199.365 262.718, 200 262.815, 200 262.229 C 200 261.671, 199.325 260.955, 198.500 260.638 C 197.675 260.322, 197 260.219, 197 260.409 M 207.396 268.458 C 212.483 272.602, 216.024 274.165, 215.985 272.250 C 215.934 269.768, 210.357 266.006, 204.660 264.612 C 202.255 264.023, 202.673 264.612, 207.396 268.458 M 218 275 C 218 275.550, 219.012 275.993, 220.250 275.985 C 222.069 275.972, 222.213 275.784, 221 275 C 219.061 273.747, 218 273.747, 218 275 M 223 276.893 C 223 277.913, 225.427 279, 227.704 279 C 228.960 279, 229.015 278.723, 228 277.500 C 226.654 275.878, 223 275.434, 223 276.893" stroke="none" fill="black" fill-rule="evenodd"/>
</svg>