<svg xmlns="http://www.w3.org/2000/svg" width="300" height="300" viewBox="0 0 300 300" version="1.1">
	<path d="M 172.783 48.507 C 170.739 49.258, 165.789 50.168, 161.783 50.529 C 157.777 50.891, 152.925 51.571, 151 52.040 C 149.075 52.510, 140.300 53.381, 131.500 53.976 C 122.700 54.571, 114.743 55.290, 113.818 55.574 C 112.710 55.915, 112.165 57.099, 112.220 59.046 C 112.298 61.792, 112.576 62, 116.152 62 C 118.825 62, 120 61.563, 120 60.567 C 120 59.091, 123.708 57.375, 124.718 58.385 C 125.030 58.696, 124.686 59.673, 123.954 60.555 C 122.747 62.010, 123.276 62.094, 129.681 61.463 C 133.928 61.044, 136.976 61.151, 137.334 61.732 C 137.662 62.262, 135.941 65.429, 133.510 68.770 C 129.217 74.671, 117.934 83.293, 113.367 84.164 C 110.483 84.714, 110.449 88.760, 113.305 91.407 C 116.130 94.025, 118.416 99.420, 115.770 97.224 C 114.429 96.111, 114.359 96.521, 115.175 100.732 C 116.282 106.448, 116.269 105.378, 115.429 121.500 C 115.057 128.650, 114.695 137.612, 114.626 141.416 C 114.549 145.631, 114.051 148.482, 113.351 148.716 C 112.530 148.990, 112.629 149.954, 113.697 152.094 L 115.191 155.089 123.845 154.439 C 128.605 154.081, 134.190 153.434, 136.256 152.999 C 138.322 152.565, 140.231 152.565, 140.499 152.998 C 141.428 154.502, 136.532 163.059, 134.500 163.482 C 133.400 163.711, 125.975 164.383, 118 164.975 C 99.148 166.376, 91.081 167.806, 88 170.294 C 86.625 171.404, 86.250 172.046, 87.167 171.719 C 88.176 171.361, 89.072 171.744, 89.435 172.691 C 89.940 174.006, 91.266 174.149, 97.768 173.590 C 102.020 173.224, 108.200 172.718, 111.500 172.466 C 114.800 172.215, 119.848 171.626, 122.718 171.159 C 129.293 170.088, 129.694 171.029, 125.282 177.171 C 119.136 185.726, 105.355 197.289, 94.628 202.891 C 89.199 205.726, 83.638 208.926, 82.271 210.001 C 80.369 211.497, 79.340 211.717, 77.884 210.938 C 76.299 210.090, 75.815 210.356, 74.991 212.525 C 73.705 215.906, 73.725 219, 75.032 219 C 77.616 219, 82.849 215.984, 84.795 213.373 C 85.973 211.793, 86.951 211.063, 86.968 211.750 C 86.986 212.438, 87.443 213, 87.985 213 C 88.936 213, 98.983 207.180, 100 206.040 C 100.275 205.731, 102.750 204.445, 105.500 203.182 C 110.468 200.899, 120.389 192.141, 129 182.436 C 136.112 174.421, 141.873 169.690, 144.803 169.461 C 146.286 169.346, 150.537 168.935, 154.250 168.548 C 159.047 168.049, 161 168.175, 161 168.986 C 161 169.613, 159.988 169.985, 158.750 169.813 C 157.062 169.578, 156.500 170, 156.500 171.500 C 156.500 172.875, 157.282 173.608, 159 173.845 C 160.375 174.035, 162.305 175.047, 163.289 176.095 C 164.273 177.143, 165.735 178, 166.539 178 C 167.343 178, 168 178.397, 168 178.883 C 168 179.369, 170.363 180.972, 173.250 182.445 C 182.566 187.200, 189.747 191.408, 195.524 195.500 C 206.020 202.933, 211.065 205, 218.710 205 C 225.208 205, 228.713 203.301, 227.694 200.645 C 227.259 199.513, 225.863 199, 223.213 199 C 217.205 199, 208.973 196.133, 203.526 192.143 C 200.791 190.139, 197.191 187.507, 195.526 186.294 C 193.862 185.080, 190.925 183.228, 189 182.178 C 187.075 181.128, 183.252 179.037, 180.504 177.531 C 177.756 176.026, 172.693 173.668, 169.254 172.291 C 165.814 170.914, 163 169.406, 163 168.939 C 163 166.972, 188.294 165.608, 191.253 167.415 C 193.998 169.091, 196.500 166.934, 196.500 162.891 L 196.500 159.500 183.500 159.504 C 176.350 159.507, 165.356 160.063, 159.070 160.741 C 152.783 161.419, 147.412 161.746, 147.134 161.468 C 146.856 161.189, 147.585 159.283, 148.754 157.231 C 150.637 153.925, 151.370 153.471, 155.190 153.244 C 157.560 153.103, 162.216 152.544, 165.535 152.002 C 169.196 151.404, 172.799 151.369, 174.693 151.912 C 176.908 152.547, 178.591 152.406, 180.478 151.427 C 181.942 150.668, 183.600 150.148, 184.163 150.273 C 184.726 150.398, 185.697 149.725, 186.321 148.778 C 188.484 145.493, 185.906 144.755, 172.328 144.775 C 160.837 144.791, 131.463 145.728, 125 146.285 C 123 146.457, 122.448 146, 122.241 144 C 122.099 142.625, 122.549 140.403, 123.241 139.063 C 124.424 136.774, 125.679 136.457, 144 133.831 C 156.614 132.023, 166.502 131.142, 172 131.336 L 180.500 131.637 180.807 135.265 C 181.034 137.944, 181.492 138.748, 182.557 138.340 C 184.286 137.676, 184.502 139.572, 182.816 140.613 C 182.005 141.115, 182.242 141.567, 183.566 142.049 C 187.832 143.602, 188.261 141.666, 187.443 124.541 C 187.022 115.718, 186.755 107.375, 186.849 106 C 187.153 101.573, 185.044 83.951, 183.970 81.944 C 183.030 80.188, 181.793 80, 171.148 80 C 164.669 80, 156.922 80.407, 153.934 80.904 C 150.945 81.401, 143.775 82.367, 138 83.050 C 132.225 83.733, 127.105 84.643, 126.623 85.073 C 126.141 85.502, 126.042 87.030, 126.403 88.469 C 127.040 91.007, 127.242 91.070, 133.280 90.610 C 140.393 90.068, 156.773 88.428, 168.482 87.084 C 172.872 86.581, 176.742 86.341, 177.082 86.551 C 177.947 87.085, 179.385 100.930, 179.569 110.500 C 179.703 117.456, 179.946 118.460, 181.434 118.190 C 182.773 117.947, 183.074 118.490, 182.822 120.690 L 182.500 123.500 170 123.676 C 163.125 123.772, 154.350 124.360, 150.500 124.982 C 146.650 125.605, 139 126.665, 133.500 127.340 C 128 128.014, 122.865 128.960, 122.089 129.441 C 120.892 130.184, 120.790 128.741, 121.416 119.908 C 122.371 106.443, 122.224 102.930, 120.361 94.710 C 118.534 86.650, 118.693 86.347, 127.137 81.846 C 131.107 79.730, 135.933 75.614, 142.032 69.140 C 150.341 60.322, 151.384 59.542, 155.203 59.286 C 161.283 58.879, 174.217 56.065, 175.713 54.823 C 176.431 54.228, 178.401 54.030, 180.146 54.379 C 185.217 55.393, 187.778 51.921, 184.429 48.571 C 182.534 46.677, 177.833 46.651, 172.783 48.507 M 174.500 52 C 174.160 52.550, 174.332 53, 174.882 53 C 175.432 53, 176.160 52.550, 176.500 52 C 176.840 51.450, 176.668 51, 176.118 51 C 175.568 51, 174.840 51.450, 174.500 52 M 155.345 55.543 C 154.462 57.844, 155.395 58.195, 158.336 56.669 C 161.132 55.219, 160.889 54, 157.802 54 C 156.776 54, 155.671 54.694, 155.345 55.543 M 164.813 54.683 C 165.534 54.972, 166.397 54.936, 166.729 54.604 C 167.061 54.272, 166.471 54.036, 165.417 54.079 C 164.252 54.127, 164.015 54.364, 164.813 54.683 M 141 58 C 141 58.550, 141.450 59, 142 59 C 142.550 59, 143 58.550, 143 58 C 143 57.450, 142.550 57, 142 57 C 141.450 57, 141 57.450, 141 58 M 105.476 61.039 C 104.468 62.669, 106.707 64.693, 108.042 63.358 C 108.766 62.634, 108.640 61.946, 107.631 61.109 C 106.557 60.218, 105.995 60.199, 105.476 61.039 M 150 86 C 150 86.550, 150.423 87, 150.941 87 C 151.459 87, 152.160 86.550, 152.500 86 C 152.840 85.450, 152.416 85, 151.559 85 C 150.702 85, 150 85.450, 150 86 M 155.805 103.517 C 155.256 104.046, 143.674 105.036, 135.301 105.271 C 126.292 105.523, 124.158 106.559, 125.910 109.832 C 126.659 111.231, 128.458 112.096, 131.599 112.567 C 135.694 113.181, 138.602 113.005, 149.500 111.483 C 159.490 110.088, 171.101 109.839, 172.487 110.990 C 175.899 113.821, 178.384 109.454, 175.949 104.905 C 175.011 103.151, 173.897 102.957, 165.504 103.083 C 160.338 103.160, 155.973 103.355, 155.805 103.517 M 155 108.500 C 155 109.325, 155.177 110, 155.393 110 C 155.609 110, 156.045 109.325, 156.362 108.500 C 156.678 107.675, 156.501 107, 155.969 107 C 155.436 107, 155 107.675, 155 108.500 M 146 109 C 146 109.550, 146.702 110, 147.559 110 C 148.416 110, 148.840 109.550, 148.500 109 C 148.160 108.450, 147.459 108, 146.941 108 C 146.423 108, 146 108.450, 146 109 M 159.459 128.067 C 158.539 129.556, 159.606 130.365, 161.520 129.631 C 162.404 129.292, 162.847 128.561, 162.504 128.007 C 161.694 126.696, 160.289 126.723, 159.459 128.067 M 145.667 129.667 C 144.452 130.881, 144.976 131.947, 146.500 131.362 C 147.325 131.045, 148 130.384, 148 129.893 C 148 128.845, 146.622 128.711, 145.667 129.667 M 134 132 C 134 132.550, 134.675 133, 135.500 133 C 136.325 133, 137 132.550, 137 132 C 137 131.450, 136.325 131, 135.500 131 C 134.675 131, 134 131.450, 134 132 M 156 149 C 153.783 149.710, 153.931 149.812, 157.309 149.900 C 159.615 149.961, 160.874 149.605, 160.500 149 C 159.805 147.876, 159.511 147.876, 156 149 M 142.750 149.662 C 143.438 149.940, 144.563 149.940, 145.250 149.662 C 145.938 149.385, 145.375 149.158, 144 149.158 C 142.625 149.158, 142.063 149.385, 142.750 149.662 M 122.694 150.639 C 121.629 151.704, 122.964 152.951, 124.526 152.352 C 125.331 152.043, 125.740 151.388, 125.435 150.895 C 124.787 149.846, 123.598 149.735, 122.694 150.639 M 108.180 154.240 C 108.591 157.116, 112 157.955, 112 155.180 C 112 154.099, 111.288 152.941, 110.418 152.607 C 108.019 151.686, 107.835 151.820, 108.180 154.240 M 153 166 C 153 166.550, 153.450 167, 154 167 C 154.550 167, 155 166.550, 155 166 C 155 165.450, 154.550 165, 154 165 C 153.450 165, 153 165.450, 153 166 M 172 178.858 C 172 179.886, 175.029 181.304, 175.729 180.605 C 175.972 180.361, 175.233 179.660, 174.086 179.046 C 172.938 178.432, 172 178.347, 172 178.858 M 178.441 182.532 C 180.645 184.199, 182 184.418, 182 183.107 C 182 182.145, 179.568 180.980, 177.668 181.032 C 177.026 181.049, 177.374 181.724, 178.441 182.532 M 189 188.500 C 190.359 190.137, 193 190.538, 193 189.107 C 193 188.186, 190.633 187, 188.796 187 C 188.166 187, 188.246 187.592, 189 188.500 M 128.531 200.354 C 126.863 201.573, 126.744 202.688, 127.331 211.641 C 127.723 217.621, 127.569 222.953, 126.944 225.038 C 126.091 227.884, 124.001 241.935, 122.624 254.077 C 122.464 255.494, 121.995 257.198, 121.584 257.864 C 121.172 258.531, 120.581 263.334, 120.271 268.538 C 119.724 277.700, 119.774 278, 121.834 278 C 123.237 278, 124.119 277.234, 124.424 275.750 C 124.678 274.512, 125.359 271.250, 125.937 268.500 C 126.516 265.750, 127.894 257.650, 129 250.500 C 130.106 243.350, 131.668 233.900, 132.471 229.500 C 133.944 221.427, 134.515 203.506, 133.393 200.582 C 132.649 198.643, 130.978 198.564, 128.531 200.354 M 174.688 204.646 C 174.309 205.024, 174 206.582, 174 208.108 C 174 209.634, 173.597 211.131, 173.105 211.435 C 171.976 212.133, 172.292 228.042, 173.433 227.919 C 174.869 227.766, 175.969 230.345, 175.985 233.905 C 176 237.271, 175.976 237.289, 173.957 235.461 C 171.923 233.621, 171.917 233.632, 172.541 238.056 C 172.885 240.500, 173.423 243.175, 173.737 244 C 174.050 244.825, 174.194 250.126, 174.056 255.781 C 173.889 262.685, 174.203 266.540, 175.015 267.518 C 175.686 268.327, 175.950 270.063, 175.608 271.426 C 175.261 272.806, 175.478 274.177, 176.103 274.564 C 176.900 275.056, 176.872 275.461, 176.004 275.998 C 175.154 276.523, 175.087 277.304, 175.781 278.623 C 176.324 279.655, 177.084 282.410, 177.471 284.745 C 177.858 287.079, 178.635 289.275, 179.199 289.623 C 180.747 290.580, 182.119 287.825, 181.500 285 C 181.199 283.625, 180.510 268.100, 179.969 250.500 C 178.677 208.457, 177.871 201.462, 174.688 204.646 M 127.079 232.583 C 127.127 233.748, 127.364 233.985, 127.683 233.188 C 127.972 232.466, 127.936 231.603, 127.604 231.271 C 127.272 230.939, 127.036 231.529, 127.079 232.583" stroke="none" fill="black" fill-rule="evenodd"/>
</svg>