<svg xmlns="http://www.w3.org/2000/svg" width="300" height="300" viewBox="0 0 300 300" version="1.1">
	<path d="M 163.631 13.702 C 163.284 14.049, 163 15.158, 163 16.167 C 163 17.450, 162.258 18, 160.526 18 C 157.576 18, 156.431 20.008, 152.544 32 C 149.144 42.491, 146.449 47.475, 143.430 48.850 C 142.155 49.431, 136.676 49.890, 131.253 49.871 C 121.846 49.837, 114.652 50.593, 112.510 51.838 C 111.966 52.155, 105.216 52.500, 97.510 52.606 C 89.805 52.711, 83.130 52.843, 82.678 52.899 C 82.227 52.954, 81.939 54.013, 82.039 55.250 C 82.139 56.487, 82.172 58.063, 82.111 58.750 C 81.978 60.246, 78.383 60.428, 77.490 58.984 C 76.817 57.895, 75 58.584, 75 59.929 C 75 62.186, 108.875 63.541, 111.803 61.402 C 114.715 59.274, 112.301 58.286, 106.678 59.305 C 101.281 60.283, 96 59.703, 96 58.131 C 96 57.169, 116.006 55.673, 116.902 56.568 C 117.231 56.897, 117.556 57.579, 117.625 58.083 C 117.694 58.587, 117.806 59.450, 117.875 60 C 117.944 60.550, 119.174 61, 120.608 61 C 122.858 61, 123.134 60.672, 122.618 58.614 C 121.779 55.271, 123.994 53.721, 128.424 54.552 C 130.783 54.994, 132 54.844, 132 54.111 C 132 52.354, 138.966 52.747, 139.655 54.543 C 140.541 56.852, 139.588 57.275, 133.785 57.144 C 130.878 57.078, 127.706 57.276, 126.735 57.584 C 123.991 58.455, 125.745 60, 129.477 60 C 136.948 60, 137.718 62.059, 132.596 68.332 C 130.724 70.624, 128.055 74.646, 126.665 77.269 C 125.276 79.891, 122.757 83.781, 121.069 85.912 C 119.381 88.044, 118 90.110, 118 90.503 C 118 90.896, 117.137 92.182, 116.082 93.359 C 106.987 103.512, 98.456 114.439, 91.908 124.325 C 90.217 126.878, 87.296 130.504, 85.417 132.383 C 83.538 134.262, 82 136.214, 82 136.720 C 82 137.836, 64.229 157.991, 63.216 158.023 C 62.822 158.035, 60.025 160.287, 57 163.026 C 53.975 165.766, 50.375 168.269, 49 168.587 C 44.408 169.652, 44 169.926, 44 171.950 C 44 174.742, 47.582 175.414, 52.746 173.591 C 56.805 172.158, 65.660 165.617, 74.728 157.353 C 77.053 155.234, 80.132 152.600, 81.570 151.500 C 83.008 150.400, 84.803 148.087, 85.560 146.359 C 86.317 144.632, 88.226 141.928, 89.802 140.352 C 91.379 138.775, 93.827 135.689, 95.243 133.493 C 96.659 131.297, 99.884 127.285, 102.409 124.577 C 104.934 121.869, 107 119.084, 107 118.388 C 107 117.142, 110.454 112.744, 119.777 102.117 C 122.375 99.157, 126.253 94.207, 128.396 91.117 C 130.538 88.028, 132.655 85.261, 133.099 84.970 C 134.549 84.018, 139.963 75.534, 139.982 74.185 C 139.992 73.462, 141.350 71.735, 143 70.347 C 144.650 68.958, 146 67.390, 146 66.862 C 146 64.954, 152.753 59, 154.917 59 C 156.135 59, 157.917 58.580, 158.877 58.066 C 159.838 57.552, 162.942 56.945, 165.775 56.718 C 168.609 56.491, 171.584 55.760, 172.386 55.094 C 173.506 54.166, 175.277 54.144, 180 55 C 184.665 55.846, 186.499 55.830, 187.578 54.936 C 190.172 52.782, 189.232 51, 185.500 51 C 182.969 51, 182 51.440, 182 52.588 C 182 53.900, 181.261 54.054, 177.750 53.473 C 172.859 52.663, 172 52.273, 172 50.862 C 172 50.239, 173.218 50.109, 175.125 50.527 C 177.082 50.957, 178.023 50.847, 177.643 50.232 C 177.057 49.283, 182.185 49.436, 189.750 50.593 C 193.176 51.118, 194.230 52.905, 191.250 53.136 C 190.287 53.210, 192.875 53.640, 197 54.090 C 203.474 54.797, 204.842 54.662, 207 53.104 C 210.105 50.862, 210.818 47.362, 208.308 46.681 C 206.237 46.120, 164.530 46.492, 161.500 47.099 C 159.173 47.565, 159.219 45.397, 161.640 40.500 C 164.526 34.662, 167.211 25.433, 167.531 20.247 C 167.793 16.003, 167.510 14.808, 166.059 14.032 C 165.071 13.503, 163.979 13.355, 163.631 13.702 M 190.525 47.960 C 189.677 49.332, 190.428 50.362, 191.905 49.854 C 192.511 49.646, 192.588 48.940, 192.093 48.143 C 191.468 47.137, 191.063 47.090, 190.525 47.960 M 164.500 51.738 C 162.850 51.980, 160.981 52.607, 160.346 53.132 C 159.711 53.657, 158.023 53.793, 156.596 53.435 C 154.693 52.957, 154 53.171, 154 54.238 C 154 56.166, 158.984 55.852, 168.250 53.340 C 169.213 53.079, 170 52.446, 170 51.933 C 170 50.982, 169.739 50.972, 164.500 51.738 M 88.500 58 C 88.143 58.577, 89.070 58.994, 90.691 58.985 C 92.872 58.973, 93.165 58.753, 92 58 C 90.079 56.758, 89.267 56.758, 88.500 58 M 173.386 69.437 C 173.054 70.301, 173.732 73.026, 174.892 75.493 C 176.051 77.960, 177 80.680, 177 81.539 C 177 83.720, 179.849 89, 181.026 89 C 181.562 89, 182 89.430, 182 89.956 C 182 90.983, 186.634 98.115, 187.863 98.978 C 188.271 99.265, 189.598 101.134, 190.811 103.132 C 193.698 107.885, 216.927 129.483, 221.321 131.500 C 224.359 132.894, 228.780 135.851, 233.603 139.714 C 235.860 141.521, 238.642 143, 239.786 143 C 240.987 143, 242.133 143.845, 242.500 145 C 242.849 146.100, 243.779 147, 244.567 147 C 245.355 147, 246 147.429, 246 147.953 C 246 148.998, 252.797 152.236, 257.421 153.393 C 259.028 153.795, 261.451 154.996, 262.806 156.062 C 265.623 158.278, 268.065 158.535, 269.800 156.800 C 271.876 154.724, 271.146 153.500, 266.020 150.457 C 263.281 148.831, 261.031 147.211, 261.020 146.859 C 261.009 146.506, 259.087 145.461, 256.750 144.536 C 254.412 143.611, 251.600 141.960, 250.500 140.868 C 249.400 139.775, 245.943 137.220, 242.817 135.191 C 239.691 133.161, 235.794 130.295, 234.156 128.822 C 232.519 127.349, 229.764 125.412, 228.035 124.518 C 223.747 122.301, 221.213 120.101, 209.576 108.500 C 197.489 96.448, 192.120 89.618, 183.430 75.236 C 180.233 69.946, 178.783 68.432, 176.674 68.183 C 174.938 67.978, 173.776 68.421, 173.386 69.437 M 133.314 72.750 C 132.972 73.713, 132.509 74.838, 132.287 75.250 C 132.064 75.662, 132.756 76, 133.824 76 C 135.102 76, 135.930 75.145, 136.245 73.500 C 136.804 70.575, 134.315 69.938, 133.314 72.750 M 178 78.059 C 178 78.641, 178.450 78.840, 179 78.500 C 179.550 78.160, 180 77.684, 180 77.441 C 180 77.198, 179.550 77, 179 77 C 178.450 77, 178 77.477, 178 78.059 M 191.710 99 C 191.998 100.100, 192.631 101, 193.117 101 C 194.162 101, 194.199 100.681, 193.393 98.582 C 192.512 96.286, 191.093 96.638, 191.710 99 M 148.273 104.521 C 146.156 106.004, 146.116 106.432, 146.704 121.484 C 147.322 137.296, 146.730 140.601, 143.505 139.364 C 142.763 139.079, 141.233 139.340, 140.105 139.944 C 136.105 142.085, 114.254 144.651, 104 144.184 C 100.234 144.013, 97 146.028, 97 148.547 C 97 152.202, 99.111 152.984, 108.783 152.908 L 117.885 152.837 118.193 149.669 L 118.500 146.500 124.930 146.304 C 129.554 146.164, 131.604 145.673, 132.229 144.554 C 133.367 142.522, 136.416 142.473, 135.638 144.500 C 135.214 145.606, 135.777 146.002, 137.781 146.007 L 140.500 146.013 137.500 148 L 134.500 149.987 138.643 149.993 C 141.595 149.998, 142.970 149.520, 143.427 148.330 C 143.779 147.411, 143.581 146.359, 142.987 145.992 C 142.266 145.547, 142.430 144.888, 143.477 144.019 C 144.341 143.302, 145.218 142.892, 145.425 143.107 C 146.473 144.199, 147.542 156.558, 147.274 164.500 C 146.571 185.366, 147.317 197.188, 149.446 198.955 C 150.161 199.549, 151.479 199.754, 152.373 199.410 C 153.975 198.796, 154.594 194.153, 154.095 186.493 C 153.987 184.839, 154.597 181.816, 155.450 179.775 C 156.632 176.945, 157 172.249, 157 159.997 C 157 147.232, 157.316 143.448, 158.536 141.586 C 159.917 139.478, 159.917 139.182, 158.536 138.652 C 157.250 138.159, 156.995 135.580, 156.967 122.781 C 156.937 109.329, 156.709 107.231, 155.056 105.250 C 152.854 102.609, 151.249 102.437, 148.273 104.521 M 196 103.882 C 196 104.432, 196.450 105.160, 197 105.500 C 197.550 105.840, 198 105.668, 198 105.118 C 198 104.568, 197.550 103.840, 197 103.500 C 196.450 103.160, 196 103.332, 196 103.882 M 199.543 106.930 C 198.589 108.474, 200.184 111.143, 201.711 110.557 C 202.510 110.251, 203.352 110, 203.582 110 C 203.812 110, 204 109.658, 204 109.241 C 204 107.979, 200.134 105.975, 199.543 106.930 M 105 110 C 103.718 110.828, 103.754 110.972, 105.250 110.985 C 106.213 110.993, 107 110.550, 107 110 C 107 108.780, 106.887 108.780, 105 110 M 218 125.393 C 218 125.609, 218.675 126.045, 219.500 126.362 C 220.325 126.678, 221 126.501, 221 125.969 C 221 125.436, 220.325 125, 219.500 125 C 218.675 125, 218 125.177, 218 125.393 M 222.813 128.683 C 223.534 128.972, 224.397 128.936, 224.729 128.604 C 225.061 128.272, 224.471 128.036, 223.417 128.079 C 222.252 128.127, 222.015 128.364, 222.813 128.683 M 161 138.887 C 161 139.964, 166.913 140.949, 167.517 139.973 C 167.753 139.591, 167.658 138.991, 167.306 138.639 C 166.334 137.667, 161 137.876, 161 138.887 M 170.015 138.619 C 170.046 140.405, 171.566 141.812, 174 142.307 C 175.375 142.587, 173.011 142.745, 168.748 142.658 C 164.484 142.571, 160.996 142.782, 160.998 143.128 C 161.004 144.837, 164.242 146.331, 165.831 145.359 C 167.012 144.636, 170.270 144.878, 176.979 146.188 C 187.297 148.201, 189 148.053, 189 145.140 C 189 142.651, 183.072 140.085, 173.250 138.322 C 171.463 138.001, 170.007 138.135, 170.015 138.619 M 112.500 147 C 112.160 147.550, 112.359 148, 112.941 148 C 113.523 148, 114 147.550, 114 147 C 114 146.450, 113.802 146, 113.559 146 C 113.316 146, 112.840 146.450, 112.500 147 M 125.655 148.829 C 124.745 149.835, 124 150.960, 124 151.329 C 124 152.709, 127.695 151.933, 129.607 150.151 C 130.698 149.135, 132.246 148.045, 133.046 147.730 C 133.846 147.416, 132.882 147.122, 130.905 147.079 C 128.614 147.029, 126.710 147.663, 125.655 148.829 M 111.667 163.667 C 110.481 164.853, 110.958 167.249, 112.623 168.466 C 114.816 170.070, 113.571 173.779, 110.703 174.187 C 108.092 174.558, 108.058 175.340, 109.913 191.882 C 111.356 204.744, 111.090 205.416, 105.191 203.787 C 103.232 203.246, 99.969 203.069, 97.940 203.394 C 95.911 203.718, 92.831 203.488, 91.095 202.883 C 88.727 202.058, 87.196 202.090, 84.969 203.013 C 81.277 204.542, 81.220 206.353, 84.747 210.090 C 87.439 212.942, 87.703 213, 97.997 213.015 C 103.774 213.024, 109.129 213.429, 109.897 213.915 C 111.579 214.980, 110.829 226.228, 108.490 235 C 107.684 238.025, 107.018 243.258, 107.012 246.628 C 107.005 249.998, 106.370 254.273, 105.601 256.128 C 104.563 258.629, 104.433 260.791, 105.095 264.500 C 106.948 274.874, 107.761 278.007, 108.985 279.482 C 110.508 281.317, 112.991 281.482, 113.023 279.750 C 113.246 267.579, 113.837 261.947, 115.201 259 C 116.219 256.803, 117.067 251.226, 117.479 244.020 C 117.841 237.706, 118.561 232.029, 119.080 231.404 C 119.598 230.779, 120.494 226.506, 121.071 221.908 C 121.647 217.310, 122.215 213.451, 122.333 213.334 C 123.239 212.427, 161.791 213.765, 169.227 214.961 C 175.811 216.019, 182 215.309, 182 213.495 C 182 212.649, 180.003 212.214, 175.750 212.134 C 169.612 212.019, 163.966 211.337, 161 210.354 C 159.762 209.944, 159.838 209.608, 161.441 208.429 C 163.888 206.628, 166.751 206.621, 170.177 208.409 C 171.649 209.177, 175.249 209.905, 178.177 210.027 C 185.419 210.328, 186 210.218, 186 208.545 C 186 206.646, 180.222 205.577, 173.965 206.318 C 171.296 206.634, 167.624 206.459, 165.806 205.930 C 162.315 204.913, 145.767 203.830, 130.575 203.623 L 121.500 203.500 120.286 192.500 C 119.618 186.450, 118.772 178.800, 118.406 175.500 C 118.040 172.200, 117.193 168.825, 116.523 168 C 115.852 167.175, 115.025 165.713, 114.683 164.750 C 114.042 162.941, 112.828 162.505, 111.667 163.667 M 187.676 174.806 C 186.317 176.308, 186.195 177.555, 186.954 182.217 C 188.667 192.741, 189.362 207, 188.162 207 C 187.389 207, 187.339 207.762, 188 209.500 C 188.523 210.875, 188.624 212.069, 188.225 212.152 C 187.826 212.236, 187.050 212.409, 186.500 212.537 C 185.950 212.665, 184.911 212.821, 184.191 212.885 C 182.195 213.061, 183.853 215, 186 215 C 188.831 215, 189.250 216.382, 189.753 227.390 C 190.007 232.950, 190.614 238.254, 191.103 239.176 C 191.592 240.098, 191.970 242.573, 191.944 244.676 C 191.918 246.779, 192.094 250.075, 192.336 252 C 192.577 253.925, 193.114 258.186, 193.530 261.469 C 194.823 271.686, 199.060 278.947, 203.750 278.983 C 206.404 279.003, 206.695 276.752, 204.602 272.404 C 203.669 270.464, 203 263.859, 202.588 252.500 C 202.249 243.150, 201.470 231.974, 200.858 227.663 C 199.878 220.763, 199.942 219.630, 201.393 218.179 C 202.924 216.648, 203.377 216.665, 207.770 218.415 C 210.372 219.451, 215.650 220.452, 219.500 220.639 C 227.308 221.018, 229 219.975, 229 214.784 C 229 211.317, 224.941 209.250, 221.348 210.887 C 219.692 211.642, 216.823 211.273, 209.869 209.412 C 204.770 208.047, 200.476 206.809, 200.327 206.660 C 200.178 206.511, 199.618 202.814, 199.083 198.444 C 196.603 178.181, 194.957 173, 191 173 C 190.070 173, 188.575 173.813, 187.676 174.806 M 126.250 207.674 C 125.013 208.538, 124 209.591, 124 210.015 C 124 210.439, 128.695 210.848, 134.433 210.923 C 143.472 211.043, 145.005 210.823, 145.903 209.280 C 146.868 207.622, 146.941 207.619, 146.970 209.232 C 146.995 210.669, 147.895 210.941, 152.250 210.827 L 157.500 210.690 154 209.109 C 151.800 208.115, 147.654 207.522, 142.835 207.514 C 138.619 207.506, 134.832 207.162, 134.418 206.750 C 133.163 205.497, 128.637 206.010, 126.250 207.674 M 94 208 C 92.667 208.862, 92.667 208.960, 94 208.885 C 94.825 208.839, 96.625 208.440, 98 208 L 100.500 207.199 98 207.115 C 96.625 207.069, 94.825 207.467, 94 208 M 101 207.941 C 101 208.459, 101.450 209.160, 102 209.500 C 102.550 209.840, 103 209.416, 103 208.559 C 103 207.702, 102.550 207, 102 207 C 101.450 207, 101 207.423, 101 207.941 M 104.569 207.888 C 104.267 208.376, 105.386 208.976, 107.054 209.221 C 110.028 209.658, 111.573 208.906, 110.306 207.639 C 109.353 206.687, 105.200 206.867, 104.569 207.888 M 205 213.933 C 205 215.233, 208.730 216.285, 210.175 215.392 C 211.001 214.881, 210.774 214.423, 209.434 213.898 C 206.706 212.830, 205 212.843, 205 213.933 M 217.543 214.931 C 216.673 216.338, 218.745 217.216, 221.141 216.455 C 222.810 215.926, 222.969 215.594, 221.882 214.906 C 220.072 213.760, 218.260 213.770, 217.543 214.931 M 193 223.375 C 193 224.681, 193.300 227.248, 193.666 229.078 C 194.229 231.896, 194.448 232.107, 195.095 230.453 C 196.507 226.844, 196.139 221, 194.500 221 C 193.588 221, 193 221.931, 193 223.375 M 195.015 242.191 C 195.007 243.671, 195.450 245.160, 196 245.500 C 197.277 246.289, 197.277 242.976, 196 241 C 195.242 239.827, 195.027 240.086, 195.015 242.191 M 107.158 263 C 107.158 264.375, 107.385 264.938, 107.662 264.250 C 107.940 263.563, 107.940 262.438, 107.662 261.750 C 107.385 261.063, 107.158 261.625, 107.158 263" stroke="none" fill="black" fill-rule="evenodd"/>
</svg>