<svg xmlns="http://www.w3.org/2000/svg" width="300" height="300" viewBox="0 0 300 300" version="1.1">
	<path d="M 161.638 15.500 C 161.322 16.325, 161.582 17, 162.217 17 C 162.852 17, 164.419 17.984, 165.699 19.187 C 168.771 22.073, 170.961 20.406, 169.194 16.527 C 168.346 14.666, 167.275 14, 165.128 14 C 163.460 14, 161.968 14.641, 161.638 15.500 M 158.171 24.500 C 157.303 25.825, 155.493 30.760, 152.301 40.500 C 150.859 44.900, 149.076 49.918, 148.339 51.651 C 147.603 53.384, 147 55.270, 147 55.842 C 147 57.989, 144.081 58.518, 128.500 59.199 C 88.610 60.943, 81.974 61.949, 77.533 66.930 C 75.729 68.955, 75.690 69.357, 77.068 71.811 C 79.281 75.754, 82 75.931, 82 72.132 C 82 68.285, 83.451 67.410, 86.509 69.414 C 89.558 71.412, 92 71.450, 92 69.500 C 92 68.675, 92.702 68, 93.559 68 C 94.416 68, 94.840 68.450, 94.500 69 C 93.541 70.551, 94.964 70.179, 96.725 68.418 C 97.834 67.309, 99.283 67.018, 101.567 67.447 C 103.846 67.874, 106.004 67.445, 108.739 66.019 C 113.143 63.723, 119.282 64.102, 118.319 66.610 C 117.948 67.578, 118.578 68, 120.393 68 C 122.286 68, 123 67.480, 123 66.104 C 123 64.461, 124.059 64.114, 130.936 63.506 C 135.301 63.119, 139.314 63.076, 139.853 63.409 C 141.854 64.646, 129.643 84.294, 121.462 93 C 118.620 96.025, 115.891 99.240, 115.397 100.144 C 113.527 103.570, 91.124 127.083, 80 137.296 C 74.187 142.633, 65.184 148.767, 57.609 152.551 C 53.058 154.824, 49.500 157.238, 49.500 158.051 C 49.500 160.216, 60.426 160.606, 63.560 158.553 C 64.863 157.699, 66.595 157, 67.408 157 C 69.107 157, 75.689 153.383, 78.202 151.068 C 81.171 148.333, 82.562 147.304, 85.063 145.994 C 87.769 144.576, 91.199 141.398, 106.648 126 C 112.442 120.225, 118.577 113.475, 120.281 111 C 123.463 106.380, 124.516 105.100, 132.208 96.500 C 134.669 93.750, 137.525 90.037, 138.556 88.250 C 139.587 86.463, 140.758 85, 141.158 85 C 141.558 85, 143.148 82.750, 144.692 80.001 C 146.237 77.252, 147.816 75.002, 148.203 75.001 C 148.590 75, 149.604 73.537, 150.458 71.750 C 151.311 69.963, 153.470 67.581, 155.255 66.458 C 158.211 64.598, 159.969 64.429, 175 64.560 C 184.075 64.639, 193.412 65.055, 195.750 65.484 C 198.706 66.026, 200 65.919, 200 65.132 C 200 63.661, 203.509 63.677, 205.881 65.158 C 208.920 67.056, 211.175 65.501, 210.814 61.757 L 210.500 58.500 197 58.666 C 189.575 58.758, 177.772 58.955, 170.772 59.105 C 163.772 59.255, 157.714 59.047, 157.310 58.643 C 156.906 58.239, 157.131 57.020, 157.810 55.933 C 158.489 54.846, 159.313 51.829, 159.642 49.228 C 159.970 46.628, 160.783 43.600, 161.447 42.500 C 162.934 40.038, 165.614 31.763, 166.516 26.844 L 167.187 23.188 163.006 23.344 C 160.707 23.430, 158.531 23.950, 158.171 24.500 M 146 66.500 C 146 67.325, 146.450 68, 147 68 C 147.550 68, 148 67.325, 148 66.500 C 148 65.675, 147.550 65, 147 65 C 146.450 65, 146 65.675, 146 66.500 M 181.070 76.869 C 180.520 77.896, 180.353 79.019, 180.697 79.364 C 181.042 79.709, 181.262 81.652, 181.186 83.682 C 181.087 86.310, 181.832 88.398, 183.773 90.933 C 188.486 97.085, 190.906 100.903, 192.983 105.462 C 194.089 107.891, 195.399 110.129, 195.894 110.434 C 196.388 110.740, 197.790 112.905, 199.009 115.245 C 200.227 117.585, 202.772 121.300, 204.662 123.500 C 206.553 125.700, 208.546 128.063, 209.090 128.750 C 209.634 129.438, 210.975 130, 212.071 130 C 213.166 130, 214.322 130.675, 214.638 131.500 C 214.955 132.325, 215.841 133, 216.607 133 C 217.373 133, 218 133.450, 218 134 C 218 134.550, 218.675 135, 219.500 135 C 220.325 135, 221 134.550, 221 134 C 221 132.448, 222.477 132.812, 224.976 134.979 C 226.231 136.068, 227.603 136.745, 228.024 136.485 C 228.446 136.225, 229.028 136.631, 229.318 137.387 C 229.797 138.635, 234.699 139.952, 239.304 140.070 C 240.296 140.095, 241.356 140.765, 241.661 141.558 C 241.997 142.434, 243.588 143, 245.713 143 C 247.986 143, 250.252 143.876, 252.182 145.500 C 256.873 149.447, 259.200 148.222, 256.592 143.178 C 254.406 138.952, 250.533 136.864, 244.147 136.472 C 236.868 136.024, 228.726 133.151, 226.081 130.097 C 224.937 128.775, 224 127.321, 224 126.866 C 224 126.411, 222.762 125.740, 221.250 125.376 C 218.082 124.614, 211.314 117.988, 208.742 113.129 C 207.774 111.303, 206.087 109.574, 204.992 109.288 C 203.824 108.982, 203 107.923, 203 106.728 C 203 105.606, 201.875 103.214, 200.500 101.411 C 199.125 99.608, 198 97.723, 198 97.222 C 198 96.720, 196.200 93.525, 194 90.121 C 191.800 86.717, 190 83.498, 190 82.966 C 190 82.435, 189.559 82, 189.019 82 C 188.480 82, 187.735 80.763, 187.365 79.250 C 186.281 74.820, 182.859 73.526, 181.070 76.869 M 136.564 81.707 C 136.022 83.132, 136.136 83.247, 137.124 82.267 C 137.808 81.588, 138.115 80.781, 137.807 80.474 C 137.499 80.166, 136.940 80.721, 136.564 81.707 M 190.036 93.250 C 190.079 94.747, 194.990 100.940, 194.991 99.500 C 194.993 98.289, 191.239 92, 190.515 92 C 190.232 92, 190.016 92.563, 190.036 93.250 M 197 102.627 C 197 102.937, 197.672 104.386, 198.493 105.846 C 199.314 107.306, 200.459 109.625, 201.036 111 C 202.899 115.437, 204.510 117.734, 208.864 122.160 C 211.212 124.547, 213.790 127.737, 214.592 129.250 C 216.013 131.927, 220 133.154, 220 130.914 C 220 129.794, 209.020 119.061, 207.833 119.022 C 207.467 119.010, 205.742 116.075, 204 112.500 C 202.258 108.925, 200.435 106, 199.948 106 C 199.461 106, 199.300 105.383, 199.589 104.629 C 199.878 103.875, 199.414 102.989, 198.557 102.660 C 197.701 102.332, 197 102.317, 197 102.627 M 115.829 104.036 C 114.058 105.069, 106 116.611, 106 118.114 C 106 120.043, 108.037 118.816, 110.699 115.283 C 112.240 113.239, 114.175 110.796, 115 109.855 C 119.397 104.839, 120.427 102.993, 118.809 103.030 C 118.089 103.047, 116.748 103.500, 115.829 104.036 M 100.029 121.961 C 99.220 122.473, 98.863 123.196, 99.236 123.569 C 100.151 124.484, 103 123.320, 103 122.031 C 103 120.761, 101.965 120.737, 100.029 121.961 M 176.935 133.370 C 175.520 134.856, 160.049 136.884, 148.846 137.053 C 136.858 137.234, 130.989 138.040, 128.095 139.905 C 126.940 140.648, 127.118 141.351, 129.095 143.849 C 131.330 146.674, 136 148.192, 136 146.094 C 136 145.595, 136.838 145.406, 137.862 145.674 C 138.979 145.966, 139.967 145.529, 140.331 144.581 C 141.048 142.712, 144.100 142.500, 145.800 144.200 C 146.706 145.106, 147.282 145.118, 148.153 144.247 C 148.930 143.470, 149.891 143.406, 151.100 144.053 C 153.359 145.263, 164.212 146.106, 165.692 145.187 C 166.300 144.809, 166.956 143.375, 167.149 142 C 167.443 139.910, 168.115 139.449, 171.250 139.190 C 174.470 138.923, 175 139.170, 175 140.940 C 175 143.824, 178.129 143.587, 180.813 140.500 C 182.963 138.028, 186.171 137.361, 189.595 138.675 C 191.227 139.301, 191.215 139.404, 189.427 140.105 C 187.987 140.669, 188.511 140.923, 191.500 141.109 C 193.700 141.247, 196.998 141.255, 198.828 141.127 C 200.658 140.999, 204.129 141.648, 206.540 142.568 C 211.152 144.330, 214 143.993, 214 141.686 C 214 139.754, 211.252 137.658, 206 135.585 C 201.545 133.827, 178.195 132.047, 176.935 133.370 M 223 139 C 223 139.550, 223.563 140.005, 224.250 140.011 C 224.938 140.017, 227.300 140.251, 229.500 140.530 C 233.272 141.009, 233.215 140.954, 228.500 139.563 C 225.750 138.752, 223.387 138.068, 223.250 138.044 C 223.113 138.020, 223 138.450, 223 139 M 80.459 141.067 C 79.286 142.964, 80.996 143.432, 82.738 141.690 C 84.297 140.132, 84.300 140, 82.773 140 C 81.863 140, 80.821 140.480, 80.459 141.067 M 121 144.977 C 121 147.284, 125.131 150.315, 127.618 149.833 C 130.358 149.302, 130.374 147.132, 127.643 146.447 C 126.269 146.102, 124.901 145.185, 124.604 144.410 C 123.784 142.274, 121 142.712, 121 144.977 M 64.232 152 C 62.897 154.138, 63.223 154.315, 66.750 153.370 C 67.987 153.038, 69 152.144, 69 151.383 C 69 149.293, 65.652 149.726, 64.232 152 M 217.040 155.954 C 216.238 156.462, 213.538 156.845, 211.040 156.807 C 208.543 156.768, 203.702 157.696, 200.282 158.868 C 196.861 160.041, 193.249 161, 192.254 161 C 191.259 161, 189.557 161.619, 188.473 162.376 C 187.388 163.133, 183.687 164.078, 180.248 164.475 C 176.810 164.872, 173.746 165.603, 173.439 166.098 C 173.133 166.594, 170.546 167, 167.691 167 C 164.835 167, 159.349 167.667, 155.500 168.483 C 151.063 169.422, 142.815 169.972, 132.973 169.983 C 116.762 170.001, 113 170.888, 113 174.692 C 113 175.789, 112.369 175.467, 110.927 173.635 C 109.788 172.186, 108.078 171, 107.127 171 C 103.004 171, 101.572 176.398, 104.897 179.406 C 107.445 181.713, 118.077 180.677, 120.613 177.876 C 121.546 176.844, 122.921 176, 123.669 176 C 124.416 176, 125.923 175.441, 127.017 174.757 C 129.206 173.390, 132.724 174.835, 132.250 176.907 C 131.847 178.667, 135.161 178.162, 136.559 176.250 C 137.639 174.773, 138.303 174.676, 140.821 175.626 C 143.377 176.591, 144.087 176.468, 145.789 174.767 C 147.466 173.089, 148.552 172.888, 152.786 173.471 C 157.166 174.073, 157.870 174.496, 158.372 176.830 C 159.713 183.056, 160.245 230.533, 159.041 236.500 C 158.056 241.385, 156.646 266.605, 156.781 276.945 C 156.798 278.290, 157.616 279.977, 158.597 280.695 C 164.091 284.712, 165.845 280.086, 167.118 258.216 C 169.415 218.764, 169.688 210.093, 168.918 201 C 168.476 195.775, 167.881 188.653, 167.596 185.174 C 167.311 181.695, 167.478 178.095, 167.966 177.174 C 168.454 176.253, 169.095 174.720, 169.389 173.767 C 169.732 172.657, 170.508 172.258, 171.546 172.656 C 172.846 173.155, 172.903 173.446, 171.834 174.124 C 171.100 174.589, 170.950 174.965, 171.500 174.960 C 173.261 174.944, 181.431 172.994, 183.500 172.096 C 184.600 171.619, 187.460 170.639, 189.856 169.919 C 192.252 169.199, 194.407 168.103, 194.645 167.484 C 194.887 166.853, 196.379 166.549, 198.038 166.792 C 199.667 167.031, 201 166.777, 201 166.227 C 201 165.677, 203.096 164.913, 205.659 164.528 C 208.221 164.144, 211.483 163.359, 212.909 162.784 C 214.334 162.209, 216.850 161.685, 218.500 161.619 C 220.859 161.525, 221.572 160.990, 221.837 159.113 C 222.023 157.800, 221.573 156.345, 220.837 155.878 C 219.156 154.813, 218.834 154.819, 217.040 155.954 M 138.284 193.640 C 137.616 193.917, 136.048 196.249, 134.801 198.822 C 133.554 201.395, 131.064 205.477, 129.267 207.894 C 127.470 210.310, 126 212.825, 126 213.481 C 126 214.137, 124.200 216.567, 122 218.879 C 119.800 221.192, 118 223.571, 118 224.167 C 118 225.236, 108.442 235, 107.396 235 C 106.882 235, 100.107 241.176, 93.812 247.382 C 89.398 251.735, 84.497 254.789, 79.969 256.008 C 75.457 257.223, 74.092 259.201, 76.097 261.616 C 77.674 263.517, 83.185 263.052, 88.094 260.603 C 89.861 259.721, 91.843 259, 92.498 259 C 93.152 259, 96.039 256.745, 98.913 253.990 C 101.788 251.234, 105.483 248.284, 107.127 247.435 C 108.770 246.585, 112.676 243.449, 115.807 240.466 C 118.938 237.483, 121.838 235.033, 122.250 235.021 C 122.662 235.009, 123 234.588, 123 234.085 C 123 233.582, 123.887 232.119, 124.972 230.835 C 126.057 229.551, 128.535 226.475, 130.479 224 C 132.423 221.525, 134.406 219.015, 134.885 218.423 C 135.364 217.831, 136.091 216.256, 136.502 214.923 C 136.912 213.590, 138.092 211.695, 139.123 210.712 C 140.155 209.728, 141.908 207.141, 143.019 204.962 C 144.131 202.783, 145.429 201, 145.904 201 C 147.371 201, 148.010 196.578, 146.720 195.356 C 145.279 193.992, 140.019 192.922, 138.284 193.640 M 189.250 216.662 C 187.130 217.518, 187.855 220.927, 191.197 225.820 C 194.930 231.286, 196.800 232.924, 199.357 232.968 C 200.637 232.990, 201.027 232.514, 200.613 231.435 C 200.137 230.195, 200.479 230.014, 202.256 230.566 C 204.731 231.334, 209.936 234.748, 211.500 236.629 C 212.050 237.290, 213.400 237.984, 214.500 238.171 C 215.600 238.359, 216.931 239.492, 217.458 240.689 C 218.218 242.414, 218.997 242.751, 221.208 242.308 C 222.915 241.967, 224 242.179, 224 242.854 C 224 243.461, 227.262 246.086, 231.250 248.689 C 239.340 253.968, 240.056 254.691, 239.256 256.775 C 238.831 257.883, 239.214 258.067, 240.857 257.545 C 242.525 257.016, 244.235 257.901, 248.366 261.430 C 251.308 263.943, 254.018 266, 254.388 266 C 254.758 266, 256.400 267.525, 258.037 269.389 C 260.918 272.671, 267.661 276.672, 268.647 275.686 C 269.215 275.118, 265.942 271.889, 261.006 268.148 C 259.084 266.692, 255.259 263.363, 252.506 260.751 C 249.753 258.139, 247.046 256.002, 246.491 256.001 C 245.935 256, 244.919 255.100, 244.232 254 C 243.545 252.900, 242.392 252, 241.670 252 C 240.948 252, 238.272 250.002, 235.723 247.559 C 233.174 245.117, 229.479 242.674, 227.513 242.131 C 225.546 241.588, 223.164 240.194, 222.219 239.033 C 221.273 237.872, 219.544 236.377, 218.375 235.711 C 211.565 231.831, 201.188 223.827, 200.739 222.109 C 199.798 218.510, 192.842 215.213, 189.250 216.662 M 194.688 224.646 C 193.272 226.061, 194.073 228, 196.073 228 C 197.471 228, 198.041 227.457, 197.823 226.333 C 197.466 224.492, 195.759 223.574, 194.688 224.646 M 201 235 C 201 235.550, 201.413 236, 201.918 236 C 202.423 236, 203.661 236.309, 204.668 236.687 C 206.281 237.292, 206.336 237.172, 205.128 235.687 C 203.627 233.843, 201 233.405, 201 235 M 161 249.559 C 161 250.416, 161.457 250.835, 162.016 250.490 C 162.575 250.144, 162.774 249.443, 162.457 248.931 C 161.600 247.544, 161 247.802, 161 249.559 M 271 278.489 C 271 279.554, 274.514 283, 275.600 283 C 276.235 283, 277.315 283.675, 278 284.500 C 279.604 286.433, 281 286.418, 281 284.469 C 281 283.626, 280.212 282.654, 279.250 282.309 C 278.288 281.963, 276.695 280.852, 275.711 279.840 C 274.090 278.172, 271 277.286, 271 278.489" stroke="none" fill="black" fill-rule="evenodd"/>
</svg>