<svg xmlns="http://www.w3.org/2000/svg" width="300" height="300" viewBox="0 0 300 300" version="1.1">
	<path d="M 221 55.529 C 211.375 56.240, 192.374 56.886, 178.775 56.966 C 164.513 57.050, 153.802 57.511, 153.466 58.056 C 153.145 58.575, 151.559 59, 149.941 59 C 147.667 59, 147 59.453, 147 61 C 147 62.161, 147.667 63, 148.590 63 C 149.464 63, 150.975 63.982, 151.947 65.183 C 153.310 66.866, 155.589 67.635, 161.911 68.544 C 170.889 69.836, 186.777 69.387, 188.737 67.787 C 189.417 67.231, 190.992 67.030, 192.237 67.339 C 193.482 67.648, 198.743 67.501, 203.930 67.012 C 209.599 66.477, 214.043 66.488, 215.073 67.039 C 216.284 67.687, 217.477 67.417, 219.143 66.117 C 220.753 64.861, 222.134 64.528, 223.500 65.069 C 224.600 65.504, 226.701 65.891, 228.169 65.930 C 230.517 65.992, 230.957 66.556, 231.824 70.622 C 232.654 74.513, 232.416 76.607, 230.318 83.872 C 228.947 88.617, 227.190 93.210, 226.413 94.079 C 225.636 94.947, 225 96.534, 225 97.606 C 225 98.678, 224.390 100.443, 223.645 101.527 C 222.899 102.612, 221.321 106.324, 220.137 109.775 C 218.954 113.227, 217.576 116.827, 217.077 117.775 C 215.255 121.234, 213.137 126.571, 212.424 129.500 C 212.023 131.150, 210.600 134.833, 209.261 137.684 C 205.891 144.865, 206.403 146.500, 212.025 146.500 C 215.707 146.500, 216.675 146.899, 217.487 148.750 C 218.030 149.988, 218.836 151, 219.278 151 C 219.719 151, 221.309 151.908, 222.810 153.018 C 225.154 154.751, 226.242 154.912, 230.520 154.160 C 233.259 153.679, 241.796 153.358, 249.491 153.447 L 263.482 153.609 266.653 157.768 C 269.616 161.653, 269.823 162.453, 269.790 169.946 C 269.771 174.357, 269.360 177.723, 268.877 177.424 C 268.395 177.126, 268 180.644, 268 185.241 C 268 189.838, 267.530 194.070, 266.955 194.645 C 265.519 196.081, 266.149 211.223, 267.666 211.725 C 268.307 211.937, 269.067 211.298, 269.354 210.305 C 269.641 209.312, 269.700 211.200, 269.484 214.500 C 269.268 217.800, 269.109 220.950, 269.129 221.500 C 269.150 222.050, 269.313 228.800, 269.492 236.500 C 269.672 244.200, 270.110 255.045, 270.466 260.600 C 270.822 266.154, 270.814 271.892, 270.448 273.350 C 269.595 276.749, 266.016 277.069, 265.967 273.750 L 265.933 271.500 264.056 273.750 C 262.610 275.484, 261.127 276, 257.590 276 C 255.065 276, 253 276.243, 253 276.540 C 253 277.420, 257.375 283.374, 259 284.707 C 261.249 286.550, 264.466 286.247, 266.500 284 C 267.495 282.900, 269.150 282, 270.176 282 C 271.203 282, 272.555 280.875, 273.182 279.500 C 273.808 278.125, 274.699 277, 275.161 277 C 275.622 277, 276 273.850, 276 270 C 276 264.638, 275.670 263, 274.588 263 C 273.722 263, 272.917 261.469, 272.508 259.046 C 271.764 254.646, 273.786 240, 275.137 240 C 275.612 240, 276 236.625, 276 232.500 C 276 227.175, 275.638 224.996, 274.750 224.985 C 273.818 224.973, 273.799 224.779, 274.673 224.223 C 275.354 223.790, 276.073 219.707, 276.387 214.489 C 276.684 209.545, 277.213 200.841, 277.561 195.147 C 277.988 188.166, 277.837 184.437, 277.097 183.697 C 275.637 182.237, 275.671 170.321, 277.138 169.415 C 277.944 168.916, 278.077 165.619, 277.592 158.106 C 276.579 142.397, 277.140 143.326, 268.683 143.338 C 264.732 143.343, 252.725 143.212, 242 143.047 C 231.275 142.882, 221.600 142.916, 220.500 143.123 C 218.696 143.463, 218.529 143.035, 218.800 138.750 C 219.185 132.657, 217.251 132.443, 214.529 138.276 C 213.134 141.267, 212.453 141.975, 212.197 140.701 C 211.998 139.712, 212.884 136.787, 214.167 134.201 C 215.859 130.791, 217.088 129.500, 218.640 129.500 C 220.325 129.500, 221.846 127.475, 225.805 119.959 C 228.569 114.711, 231.144 108.748, 231.527 106.709 C 231.910 104.669, 232.623 103, 233.111 103 C 233.600 103, 234 102.317, 234 101.483 C 234 100.648, 235.322 96.036, 236.937 91.233 C 241.351 78.110, 244.307 61.804, 243.096 57.251 C 242.200 53.877, 242.771 53.921, 221 55.529 M 82.419 66.351 C 82.134 67.094, 81.976 68.106, 82.069 68.601 C 82.570 71.283, 81.807 73, 80.113 73 C 76.734 73, 76.267 78.792, 76.076 123.075 L 76 140.650 68.250 140.840 C 63.987 140.945, 59.150 141.436, 57.500 141.931 C 55.850 142.426, 52.700 143.129, 50.500 143.493 C 42.754 144.774, 31 148.770, 31 150.121 C 31 150.605, 29.650 151, 28 151 C 26.350 151, 25 151.361, 25 151.803 C 25 153.162, 45.104 155.296, 46.333 154.067 C 46.920 153.480, 49.710 153, 52.533 153 C 55.357 153, 57.959 152.708, 58.316 152.351 C 58.673 151.993, 62.798 151.617, 67.483 151.513 L 76 151.325 76 160.163 C 76 165.141, 75.581 169, 75.040 169 C 73.399 169, 72.005 175.993, 71.051 189 C 69.953 203.983, 69.259 207.628, 65.153 220 C 61.578 230.772, 61.344 232.811, 63.584 233.671 C 64.754 234.119, 64.849 234.475, 63.948 235.032 C 62.369 236.008, 63.481 240.587, 65.484 241.356 C 66.310 241.672, 67.776 241.110, 68.743 240.105 C 70.179 238.612, 72.264 238.247, 80.170 238.105 C 86.151 237.998, 90.092 238.340, 90.502 239.002 C 90.866 239.592, 90.227 241.871, 89.082 244.068 C 87.817 246.494, 86.961 250.110, 86.900 253.281 C 86.766 260.323, 86.158 261.905, 81.500 267.336 C 78.540 270.788, 76.785 272, 74.750 272 C 72.667 272, 72 272.485, 72 274 C 72 276.428, 76.462 276.844, 77.362 274.500 C 77.678 273.675, 78.594 273, 79.397 273 C 80.200 273, 81.532 273.675, 82.357 274.500 C 83.182 275.325, 84.309 276, 84.861 276 C 85.983 276, 87.520 272.169, 87.158 270.274 C 87.029 269.600, 87.884 266.675, 89.059 263.774 C 90.233 260.873, 91.868 256.700, 92.693 254.500 C 93.517 252.300, 95.062 248.547, 96.126 246.160 L 98.061 241.821 103.281 242.535 C 106.151 242.927, 109.400 243.662, 110.500 244.167 C 114.540 246.023, 117.494 247.955, 118.597 249.463 C 119.219 250.314, 121.701 251.400, 124.114 251.876 C 129.514 252.943, 133.705 255.133, 135.643 257.901 C 136.452 259.056, 137.723 260, 138.467 260 C 140.210 260, 145 250.424, 145 246.940 C 145 244.695, 144.279 243.996, 140.459 242.538 C 137.962 241.584, 134.918 241.055, 133.695 241.362 C 132.472 241.669, 130.353 241.282, 128.986 240.502 C 124.869 238.154, 118.767 235.293, 114 233.476 C 101.650 228.768, 101.474 228.660, 101.650 225.873 C 101.733 224.568, 102.580 220.350, 103.532 216.500 C 104.484 212.650, 105.555 206.575, 105.912 203 C 106.269 199.425, 107.110 195.517, 107.781 194.316 C 108.451 193.114, 109 189.822, 109 187 C 109 184.178, 109.479 180.974, 110.064 179.881 C 110.649 178.787, 111.287 174.880, 111.482 171.196 C 111.677 167.513, 112.548 162.531, 113.418 160.124 C 114.288 157.718, 115.006 154.118, 115.014 152.124 C 115.021 150.131, 115.280 147.559, 115.589 146.409 C 116.182 144.199, 121.291 141.492, 127.038 140.342 C 135.319 138.686, 140.625 132.416, 136.397 129.282 C 135.354 128.509, 133.347 128.101, 131.937 128.375 C 130.528 128.650, 128.953 128.956, 128.437 129.056 C 127.922 129.155, 125.360 129.184, 122.745 129.118 L 117.990 129 118.541 119.250 C 120.103 91.641, 120.452 73.310, 119.493 69.250 C 118.765 66.165, 115.602 66.384, 114.127 69.622 C 113.470 71.063, 112.709 76.126, 112.435 80.872 C 112.162 85.617, 111.528 91.300, 111.026 93.500 C 110.147 97.354, 109.884 99.968, 108.054 123 C 107.083 135.219, 106.429 137.438, 104.121 136.352 C 103.229 135.933, 100.703 135.644, 98.506 135.710 C 96.310 135.776, 94.179 135.306, 93.772 134.665 C 93.364 134.024, 93.024 124.199, 93.015 112.831 C 93.004 97.252, 92.607 90.602, 91.403 85.831 C 90.525 82.349, 89.400 79.073, 88.903 78.550 C 88.406 78.028, 88 75.635, 88 73.234 C 88 70.833, 87.534 67.998, 86.965 66.934 C 85.771 64.704, 83.179 64.371, 82.419 66.351 M 182.745 77.396 C 179.980 79.494, 178.894 87.041, 178.415 107.480 C 178.170 117.919, 177.530 129.169, 176.992 132.480 C 176.455 135.791, 176.012 143.787, 176.008 150.250 C 176.003 156.713, 175.598 162, 175.106 162 C 174.614 162, 173.942 165.488, 173.612 169.750 C 173.282 174.012, 172.741 179.863, 172.410 182.750 C 171.852 187.606, 171.965 188, 173.903 188 C 175.722 188, 176 188.598, 176 192.500 C 176 194.975, 175.578 197, 175.061 197 C 174.545 197, 173.818 199.031, 173.446 201.512 C 172.215 209.723, 170.855 207.636, 171.383 198.346 C 171.659 193.481, 171.643 190.625, 171.347 192 C 171.051 193.375, 170.372 195.031, 169.839 195.681 C 169.306 196.330, 168.625 199.480, 168.326 202.681 C 168.028 205.881, 167.176 210.373, 166.433 212.662 C 165.484 215.588, 165.212 220.455, 165.516 229.053 C 165.754 235.779, 166.121 241.454, 166.331 241.665 C 166.542 241.875, 167.464 241.759, 168.380 241.408 C 169.670 240.913, 169.905 240.009, 169.418 237.412 C 168.722 233.704, 172.076 221.067, 174.362 218.781 C 175.100 218.043, 175.983 215.203, 176.326 212.470 C 176.668 209.736, 177.345 205.475, 177.830 203 C 178.807 198.016, 180.357 189.620, 182.539 177.500 C 183.331 173.100, 184.247 166.125, 184.575 162 C 184.902 157.875, 185.757 152.925, 186.473 151 C 187.403 148.499, 187.831 139.792, 187.972 120.500 C 188.080 105.650, 188.205 92.375, 188.248 91 C 188.292 89.625, 188.254 85.688, 188.164 82.250 C 188.027 77.013, 187.716 76.005, 186.250 76.032 C 185.287 76.049, 183.710 76.663, 182.745 77.396 M 178.229 142.188 C 178.847 144.042, 181 144.349, 181 142.583 C 181 141.713, 180.287 141, 179.417 141 C 178.546 141, 178.011 141.534, 178.229 142.188 M 101.258 145.011 C 100.293 146.139, 98.313 147, 96.684 147 C 94.654 147, 93.660 147.586, 93.290 149 C 93.002 150.100, 92.369 151, 91.883 151 C 91.398 151, 91 151.569, 91 152.265 C 91 152.960, 90.140 155.134, 89.089 157.095 C 86.553 161.827, 84 170.587, 84 174.559 C 84 176.317, 83.383 179.273, 82.629 181.128 C 81.875 182.983, 80.946 186.975, 80.564 190 C 80.182 193.025, 78.999 198.754, 77.935 202.732 C 76.871 206.709, 76 211.097, 76 212.482 C 76 213.867, 75.600 215, 75.111 215 C 73.617 215, 72.718 222.127, 74.055 223.380 C 74.940 224.210, 75.369 224.176, 75.708 223.250 C 76.316 221.592, 79.534 221.663, 82.285 223.394 C 85.179 225.216, 96 226.540, 96 225.072 C 96 224.482, 95.550 224, 95 224 C 93.494 224, 93.799 221.344, 95.500 219.643 C 96.325 218.818, 97 216.984, 97 215.568 C 97 214.152, 97.855 211.397, 98.901 209.447 C 100.394 206.660, 100.686 204.626, 100.262 199.950 C 99.805 194.910, 99.970 194, 101.342 194 C 103.020 194, 103.995 191.325, 103.892 187 C 103.717 179.661, 104.743 167.244, 105.669 165.500 C 106.252 164.400, 106.519 162.911, 106.262 162.192 C 106.005 161.473, 106.473 160.123, 107.303 159.192 C 108.141 158.252, 108.964 155.029, 109.156 151.942 C 109.490 146.540, 109.408 146.337, 106.231 144.703 C 103.101 143.094, 102.889 143.107, 101.258 145.011 M 169.158 211 C 169.158 212.375, 169.385 212.938, 169.662 212.250 C 169.940 211.563, 169.940 210.438, 169.662 209.750 C 169.385 209.063, 169.158 209.625, 169.158 211 M 161 242.518 C 161 243.268, 161.450 244.160, 162 244.500 C 163.186 245.233, 163.354 249, 162.200 249 C 161.760 249, 160.860 248.460, 160.200 247.800 C 159.267 246.867, 158.993 247.033, 158.968 248.550 C 158.951 249.623, 158.276 251.374, 157.468 252.441 C 155.603 254.907, 155.571 258.898, 157.410 259.604 C 158.185 259.901, 159.094 261.237, 159.429 262.572 C 159.764 263.908, 160.628 265, 161.350 265 C 163.106 265, 164.586 261.661, 165.783 255 C 167.482 245.547, 167.300 244.296, 163.983 242.642 C 161.524 241.415, 161 241.393, 161 242.518 M 267.079 245.583 C 267.127 246.748, 267.364 246.985, 267.683 246.188 C 267.972 245.466, 267.936 244.603, 267.604 244.271 C 267.272 243.939, 267.036 244.529, 267.079 245.583 M 160 253.559 C 160 254.416, 160.450 254.840, 161 254.500 C 161.550 254.160, 162 253.459, 162 252.941 C 162 252.423, 161.550 252, 161 252 C 160.450 252, 160 252.702, 160 253.559 M 228.379 253.454 C 228.037 254.345, 228.487 255.881, 229.379 256.866 C 230.270 257.851, 231.014 259.747, 231.031 261.079 C 231.086 265.315, 237.644 274.542, 242.315 276.954 C 247.801 279.787, 251.518 273.835, 246.444 270.340 C 238.771 265.054, 233.935 260.011, 232.564 255.868 C 231.358 252.222, 229.306 251.039, 228.379 253.454" stroke="none" fill="black" fill-rule="evenodd"/>
</svg>