<svg xmlns="http://www.w3.org/2000/svg" width="300" height="300" viewBox="0 0 300 300" version="1.1">
	<path d="M 210.700 27.442 C 209.844 28.299, 208.436 29, 207.571 29 C 206.339 29, 206 30.153, 206 34.345 C 206 41.997, 204.633 42.923, 191.858 43.936 C 186.161 44.388, 181.162 44.560, 180.750 44.320 C 180.338 44.079, 180 42.784, 180 41.441 C 180 39.538, 179.476 39, 177.625 39 C 172.665 39, 168.728 40.323, 168.250 42.152 C 167.984 43.168, 167.144 44, 166.383 44 C 164.792 44, 164.509 41.421, 166 40.500 C 167.104 39.818, 167.366 35.699, 166.369 34.702 C 166.021 34.355, 164.896 34.520, 163.869 35.070 C 162.340 35.889, 162 37.245, 162 42.535 L 162 49 155.691 49 C 147.156 49, 145.612 50.228, 146.521 56.290 C 147.097 60.132, 147.809 61.337, 150.480 62.987 C 152.271 64.094, 154.211 65, 154.791 65 C 156.792 65, 162 59.818, 162 57.828 C 162 54.031, 164.304 56.624, 166.195 62.549 C 167.240 65.822, 168.923 73.225, 169.936 79 C 172.285 92.390, 173.139 94.449, 178.278 99.098 C 182.215 102.660, 188 104.451, 188 102.107 C 188 101.616, 188.738 100.931, 189.641 100.584 C 191.966 99.692, 195.768 102.484, 195.933 105.206 C 196.009 106.467, 196.313 111.152, 196.608 115.615 C 197.084 122.827, 196.941 123.811, 195.322 124.451 C 194.320 124.847, 187.200 125.409, 179.500 125.699 C 170.106 126.053, 164.771 126.683, 163.285 127.613 C 162.067 128.376, 159.952 129, 158.585 129 C 154.053 129, 152.931 135.554, 157.352 136.203 C 159.940 136.582, 166.210 135.267, 171 133.339 C 173.220 132.445, 177.608 131.997, 183 132.113 C 187.675 132.214, 192.124 132.117, 192.887 131.898 C 193.703 131.664, 194.558 132.529, 194.965 134 C 195.734 136.779, 193.939 155.824, 192.733 157.682 C 192.311 158.332, 189.386 159.395, 186.233 160.043 C 173.697 162.622, 159.760 168.292, 159.233 171.027 C 158.683 173.884, 161.427 176.200, 165.361 176.200 C 169.447 176.200, 172.223 175.279, 181.879 170.720 C 188.109 167.778, 188.202 167.677, 185.879 166.389 L 183.500 165.071 186.250 165.035 C 188.804 165.003, 189 165.289, 189 169.057 C 189 173.534, 187.195 181.876, 185.853 183.606 C 185.355 184.247, 181.531 184.731, 176.747 184.758 C 172.211 184.783, 165.800 185.295, 162.500 185.895 C 156.837 186.925, 151.895 186.813, 140.685 185.401 C 136.718 184.901, 135.624 185.121, 134.467 186.647 C 131.671 190.338, 132.752 193.565, 136.629 193.102 C 137.250 193.028, 137.996 193.875, 138.286 194.984 C 138.837 197.093, 141.437 197.720, 142.500 196 C 142.840 195.450, 143.991 195, 145.059 195 C 146.127 195, 147 194.582, 147 194.071 C 147 192.878, 157.863 192.856, 160.084 194.045 C 161.366 194.731, 161.737 194.544, 161.634 193.260 C 161.532 191.975, 162.675 191.399, 166.436 190.843 C 169.152 190.441, 171.852 190.416, 172.436 190.788 C 174.056 191.816, 178.955 191.882, 179.572 190.884 C 179.872 190.398, 180.766 190, 181.559 190 C 183.621 190, 183.377 194.187, 180.862 201.996 C 179.147 207.320, 178.163 208.882, 175.886 209.890 C 171.198 211.965, 154.925 214.973, 148.309 214.987 C 144.904 214.994, 141.877 215.389, 141.583 215.865 C 141.289 216.341, 139.250 216.971, 137.052 217.266 C 131.349 218.031, 127.726 222.190, 131.500 223.638 C 133.474 224.396, 133.410 225.905, 131.372 226.687 C 130.333 227.086, 129.113 226.476, 128 225 C 125.863 222.166, 123 222.918, 123 226.314 C 123 231.763, 129.945 233.816, 133.951 229.552 C 135.216 228.205, 137.545 226.820, 139.126 226.472 C 141.281 225.999, 142 225.263, 142 223.528 C 142 221.394, 143.659 220, 146.198 220 C 146.768 220, 146.998 220.900, 146.710 222 C 146.275 223.665, 146.680 224, 149.126 224 C 150.742 224, 153.737 223.260, 155.782 222.356 C 157.827 221.451, 160.439 220.799, 161.586 220.906 C 162.733 221.013, 164.251 220.403, 164.958 219.550 C 165.666 218.698, 167.765 218, 169.622 218 C 172.896 218, 173 218.123, 173 222 C 173 224.200, 172.550 226, 172 226 C 171.450 226, 171 226.873, 171 227.941 C 171 229.009, 170.578 230.143, 170.063 230.461 C 169.548 230.779, 167.953 233.618, 166.518 236.770 C 165.084 239.921, 163.176 243.850, 162.279 245.500 C 161.381 247.150, 160.325 249.175, 159.932 250 C 152.196 266.213, 150 271.064, 150 271.943 C 150 273.037, 148.765 273.359, 145.750 273.052 C 144.444 272.919, 144 273.612, 144 275.782 C 144 279.038, 146.662 282, 149.589 282 C 152.313 282, 156.689 277.639, 159.090 272.533 C 160.212 270.146, 162.001 267.404, 163.065 266.441 C 164.129 265.478, 165 264.306, 165 263.836 C 165 263.366, 167.376 259.273, 170.279 254.741 C 175.664 246.335, 180 238.092, 180 236.263 C 180 235.703, 180.604 234.743, 181.343 234.130 C 182.384 233.266, 183.711 233.970, 187.240 237.258 C 204.911 253.721, 208.316 256.665, 211.227 258 C 213.027 258.825, 214.950 260.003, 215.500 260.617 C 217.541 262.896, 222.831 265.279, 224.462 264.653 C 226.836 263.742, 225.945 260.500, 223.322 260.500 C 222.144 260.500, 220.840 260.163, 220.424 259.750 C 220.007 259.337, 218.920 259, 218.008 259 C 217.095 259, 215.292 257.875, 214 256.500 C 212.708 255.125, 211.055 254, 210.326 254 C 209.597 254, 209 253.541, 209 252.981 C 209 251.598, 214.288 252.946, 215.258 254.576 C 216.102 255.996, 222.842 258.491, 223.650 257.683 C 224.498 256.835, 220.473 253.336, 217.895 252.680 C 216.578 252.344, 213.285 250.029, 210.577 247.535 C 207.869 245.041, 205.057 243, 204.327 243 C 203.597 243, 202.999 242.662, 202.997 242.250 C 202.996 241.838, 201.672 240.614, 200.056 239.531 C 198.338 238.381, 195.574 234.522, 193.403 230.244 C 191.360 226.219, 189.308 222.690, 188.844 222.404 C 187.128 221.343, 188.085 217.939, 190.992 214.766 L 193.985 211.500 196.005 214 C 197.940 216.395, 198.084 216.423, 199.442 214.655 C 200.514 213.260, 201.591 212.971, 203.863 213.470 C 206.627 214.077, 213.621 212.419, 219.652 209.727 C 220.836 209.199, 229.562 208.707, 239.043 208.633 C 254.286 208.515, 256.411 208.297, 257.386 206.750 C 258.181 205.489, 258.187 204.520, 257.405 203.281 C 256.454 201.773, 254.613 201.586, 242.410 201.763 C 225.186 202.012, 212.133 203.189, 209.500 204.729 C 206.108 206.713, 194.728 208.177, 193.842 206.744 C 192.921 205.254, 193.810 201.213, 195.649 198.527 C 196.392 197.443, 197 195.551, 197 194.323 C 197 192.562, 197.742 191.951, 200.511 191.432 C 202.442 191.070, 204.269 190.374, 204.570 189.887 C 205.413 188.523, 207.976 188.833, 209.643 190.500 C 210.468 191.325, 211.898 191.993, 212.821 191.985 C 214.226 191.972, 214.263 191.820, 213.052 191.053 C 211.917 190.335, 212.186 189.991, 214.300 189.461 C 217.345 188.697, 220.411 189.526, 219.570 190.886 C 219.264 191.381, 220.231 192.092, 221.718 192.465 C 223.622 192.943, 224.762 192.679, 225.571 191.572 C 226.992 189.629, 229.886 189.599, 232.397 191.500 C 233.441 192.290, 234.698 192.687, 235.191 192.382 C 235.684 192.077, 236.630 192.247, 237.294 192.759 C 239.998 194.846, 242.086 194.914, 244.023 192.977 C 248.631 188.369, 244.269 180.913, 238.705 183.890 C 236.938 184.836, 233.666 184.877, 224.455 184.069 C 217.880 183.493, 209.688 183.016, 206.250 183.010 C 200.436 183.001, 200 182.843, 200.006 180.750 C 200.010 179.512, 200.685 177.211, 201.506 175.636 C 202.328 174.060, 203 172.163, 203 171.420 C 203 169.272, 206.263 163.009, 207.435 162.908 C 208.021 162.858, 209.850 162.745, 211.500 162.658 C 213.758 162.539, 214.427 162.067, 214.206 160.750 C 213.972 159.357, 214.636 159, 217.456 159 C 219.405 159, 221 159.498, 221 160.107 C 221 160.773, 221.698 160.923, 222.750 160.484 C 225.758 159.229, 233.420 157.947, 234.784 158.470 C 235.794 158.858, 235.831 159.447, 234.950 161.093 C 234.142 162.603, 234.124 163.524, 234.888 164.288 C 236.241 165.641, 244.966 161.729, 248.150 158.341 C 249.359 157.053, 250.945 156, 251.674 156 C 252.403 156, 253 155.580, 253 155.067 C 253 154.554, 253.908 153.847, 255.017 153.495 C 258.616 152.352, 261 145.933, 261 137.384 C 261 130.764, 260.659 129.241, 258.556 126.485 C 254.781 121.536, 250.039 119.768, 240.891 119.902 C 236.570 119.965, 230.664 120.632, 227.767 121.385 C 224.870 122.138, 219.338 123.069, 215.474 123.456 L 208.448 124.158 207.201 117.829 C 206.515 114.348, 205.289 109.415, 204.477 106.866 C 202.679 101.225, 202.573 97, 204.229 97 C 205.795 97, 214.995 90.765, 214.998 89.702 C 214.999 89.263, 216.125 87.862, 217.500 86.588 C 218.875 85.313, 220 83.524, 220 82.611 C 220 81.698, 218.875 80.523, 217.500 80 C 215.371 79.191, 215 78.415, 215.001 74.775 C 215.002 67.226, 217.057 48.543, 217.988 47.612 C 218.522 47.078, 220.087 47.208, 221.836 47.932 C 225.784 49.567, 229.202 47.634, 228.786 44 C 228.529 41.757, 227.989 41.468, 223.525 41.186 C 216.589 40.748, 215.931 39.953, 216.668 32.899 C 217.074 29.021, 216.922 27, 216.224 27 C 215.641 27, 214.510 26.749, 213.711 26.442 C 212.912 26.136, 211.557 26.586, 210.700 27.442 M 59.675 49.658 C 59.313 50.020, 59.514 50.914, 60.121 51.645 C 61.883 53.769, 60.356 56, 57.138 56 C 52.956 56, 51.548 60.756, 54.390 65.285 C 57.365 70.029, 58.477 77.627, 57.142 84.094 C 56.455 87.419, 55.657 94.046, 55.369 98.820 C 54.767 108.788, 53.582 112, 50.509 112 C 47.781 112, 39.121 114.882, 36.527 116.653 C 35.443 117.394, 33.868 118.015, 33.027 118.033 C 28.831 118.125, 23.149 127.214, 26.115 129.092 C 28.034 130.307, 31.747 130.218, 32.538 128.938 C 32.899 128.354, 34.276 127.466, 35.597 126.963 C 36.919 126.461, 38 125.405, 38 124.618 C 38 123.703, 38.687 123.367, 39.905 123.685 C 42.493 124.362, 49.594 120.985, 47.849 119.907 C 45.514 118.463, 47.945 117.633, 50.502 119.001 C 52.880 120.274, 52.996 120.751, 52.916 128.919 C 52.869 133.639, 52.419 140.200, 51.915 143.500 C 51.411 146.800, 50.717 151.750, 50.373 154.500 C 50.029 157.250, 49.396 159.950, 48.967 160.500 C 48.538 161.050, 47.889 163.750, 47.525 166.500 C 47.161 169.250, 46.462 172.400, 45.973 173.500 C 45.484 174.600, 44.602 177.394, 44.015 179.708 C 43.427 182.022, 42.508 184.186, 41.973 184.517 C 41.438 184.847, 40.990 186.104, 40.978 187.309 C 40.966 188.514, 40.076 190.625, 39 192 C 37.924 193.375, 37.034 195.063, 37.022 195.750 C 37.010 196.438, 36.550 197, 36 197 C 35.450 197, 35 198.320, 35 199.933 C 35 203.731, 37.875 204.731, 42.257 202.456 C 47.067 199.960, 59.286 199.302, 62.442 201.370 C 63.810 202.266, 65.828 203, 66.925 203 C 68.023 203, 71.365 203.753, 74.352 204.672 C 79.544 206.271, 79.806 206.517, 80.308 210.262 C 80.913 214.773, 79.587 219.267, 76.591 222.854 C 67.649 233.561, 63.631 236.270, 54.819 237.535 C 50.738 238.120, 49.699 237.873, 46.724 235.603 C 42.952 232.726, 41 232.297, 41 234.344 C 41 237.078, 45.614 240.855, 50.808 242.374 C 57.095 244.213, 62.579 243.465, 72.054 239.477 C 83.076 234.838, 91 228.039, 91 223.222 C 91 222.170, 91.794 220.591, 92.765 219.713 C 94.412 218.222, 95.198 218.762, 104.515 227.791 C 110.007 233.113, 115.854 239.500, 117.509 241.984 C 120.649 246.696, 123.928 248.135, 126.555 245.954 C 129.124 243.823, 128.108 240.514, 123.250 235.191 C 120.638 232.328, 118.215 229.989, 117.867 229.993 C 117.518 229.997, 116.998 230.900, 116.710 232 C 115.763 235.621, 114 234.126, 114 229.703 C 114 224.907, 111.621 222.074, 100.973 214.189 L 95.446 210.097 96.576 198.759 C 97.197 192.523, 98.182 185.864, 98.763 183.960 C 101.286 175.701, 102.231 144.581, 100.515 126.250 C 100.080 121.598, 100.126 117.966, 100.622 117.923 C 101.105 117.880, 104.517 117.650, 108.205 117.410 C 117.788 116.787, 126.500 114.649, 126.500 112.921 C 126.500 111.429, 119.166 110.778, 104.736 110.990 C 100.036 111.059, 97.827 110.695, 97.497 109.795 C 97.236 109.083, 96.138 103.325, 95.058 97 C 91.081 73.712, 89.086 66, 87.040 66 C 86.489 66, 85.731 67.224, 85.355 68.720 C 84.980 70.216, 83.781 72.952, 82.691 74.799 C 80.857 77.907, 80.802 78.694, 81.956 85.329 C 82.642 89.273, 83.571 93.625, 84.021 95 C 85.190 98.578, 86.103 108.569, 85.422 110.342 C 84.951 111.570, 83.084 111.778, 75.173 111.485 L 65.500 111.126 65.563 105.313 C 65.598 102.116, 65.805 94.100, 66.022 87.500 C 66.424 75.310, 64.665 56.822, 62.620 51.750 C 61.490 48.947, 60.845 48.488, 59.675 49.658 M 185.490 52.032 C 185.135 53.150, 183.755 55.154, 182.422 56.487 C 180.302 58.608, 180 59.817, 180.001 66.205 C 180.004 81.495, 183.259 92.849, 187.674 92.968 C 190.421 93.043, 199.608 90.471, 200.821 89.288 C 201.548 88.580, 202.941 88, 203.916 88 C 204.892 88, 206.443 87.168, 207.363 86.151 C 208.884 84.471, 208.905 83.766, 207.593 78.401 C 206.800 75.156, 205.849 68.965, 205.480 64.644 C 204.606 54.404, 202.804 50, 199.487 50 C 197.995 50, 197 50.573, 197 51.433 C 197 53.073, 193.550 54.458, 191.941 53.463 C 191.348 53.097, 191.105 52.168, 191.400 51.399 C 191.784 50.398, 191.111 50, 189.036 50 C 186.998 50, 185.943 50.604, 185.490 52.032 M 143.235 113.713 C 140.934 114.556, 137.779 123.012, 138.316 126.895 C 140.210 140.583, 147.797 158, 151.865 158 C 153.428 158, 153.291 151.967, 151.610 146.785 C 150.845 144.428, 149.909 141.155, 149.530 139.510 C 149.151 137.866, 148.406 136.251, 147.873 135.922 C 147.341 135.593, 146.806 130.765, 146.684 125.193 C 146.465 115.223, 145.737 112.797, 143.235 113.713 M 64.567 120.250 C 64.279 122.037, 62.665 134.224, 60.980 147.331 C 59.294 160.438, 57.545 171.913, 57.093 172.831 C 56.641 173.749, 54.860 177.343, 53.135 180.818 C 48.880 189.393, 48.977 190.991, 53.750 191.032 C 55.813 191.049, 58.374 191.724, 59.441 192.532 C 60.509 193.339, 62.849 194, 64.641 194 C 66.619 194, 68.261 194.643, 68.816 195.636 C 69.319 196.535, 71.479 197.554, 73.616 197.901 C 76.883 198.430, 77.667 199.045, 78.553 201.773 L 79.606 205.016 81.727 203.040 C 83.223 201.646, 84.021 199.359, 84.434 195.282 C 84.756 192.102, 85.513 186.800, 86.117 183.500 C 86.721 180.200, 87.912 173.675, 88.764 169 C 90.370 160.187, 90.878 134.024, 89.588 126.500 C 88.047 117.507, 88.336 117.923, 84.104 118.599 C 81.721 118.980, 79.990 118.793, 79.567 118.108 C 78.665 116.648, 74.711 116.689, 73.227 118.173 C 72.330 119.070, 71.449 119.070, 69.480 118.173 C 65.686 116.444, 65.143 116.674, 64.567 120.250 M 234.305 128.499 C 232.667 129.647, 232.067 129.705, 231.746 128.749 C 231.414 127.762, 230.993 127.774, 229.746 128.804 C 228.877 129.521, 226.666 130.002, 224.833 129.874 C 223 129.746, 218.741 129.721, 215.369 129.820 L 209.237 130 208.057 134.689 C 207.407 137.268, 206.614 143.085, 206.295 147.616 L 205.713 155.854 209.607 154.899 C 226.722 150.700, 233.813 150.047, 238.597 152.226 C 241.026 153.333, 241.444 153.215, 242.894 151.016 C 243.777 149.676, 245.746 147.300, 247.268 145.737 C 250.932 141.974, 252.861 134.977, 251.127 131.737 C 248.986 127.737, 238.323 125.684, 234.305 128.499 M 173.500 134 C 173.840 134.550, 175.243 135, 176.618 135 C 178.030 135, 178.849 134.565, 178.500 134 C 178.160 133.450, 176.757 133, 175.382 133 C 173.970 133, 173.151 133.435, 173.500 134 M 52.667 161.667 C 52.300 162.033, 52.014 163.046, 52.030 163.917 C 52.055 165.217, 52.251 165.174, 53.122 163.675 C 54.199 161.823, 53.887 160.447, 52.667 161.667 M 193.705 173.320 C 193.432 175.069, 192.884 177.512, 192.488 178.750 C 191.164 182.881, 193.693 181.094, 195.364 176.717 C 197.350 171.517, 197.356 171.351, 195.601 170.677 C 194.634 170.306, 194.049 171.121, 193.705 173.320 M 89.392 182.422 C 89.092 183.204, 89.398 184.875, 90.072 186.135 L 91.298 188.426 92.185 186.028 C 93.174 183.355, 92.619 181, 91 181 C 90.415 181, 89.692 181.640, 89.392 182.422 M 89.667 191.667 C 88.697 192.637, 88.850 195, 89.883 195 C 90.369 195, 91.002 194.100, 91.290 193 C 91.804 191.034, 90.978 190.356, 89.667 191.667 M 185.607 201.582 C 185.273 202.452, 185 203.888, 185 204.773 C 185 206.101, 185.256 206.043, 186.468 204.441 C 188.125 202.251, 188.449 200, 187.107 200 C 186.616 200, 185.941 200.712, 185.607 201.582 M 150.750 220.662 C 151.438 220.940, 152.563 220.940, 153.250 220.662 C 153.938 220.385, 153.375 220.158, 152 220.158 C 150.625 220.158, 150.063 220.385, 150.750 220.662 M 81.761 224.470 C 81.501 225.828, 81.620 226.735, 82.024 226.485 C 83.099 225.821, 83.950 222, 83.023 222 C 82.589 222, 82.021 223.111, 81.761 224.470 M 171.480 234.250 C 170.447 237.078, 170.578 240.307, 171.744 240.721 C 173.168 241.227, 175.338 236.323, 174.572 234.328 C 173.929 232.650, 172.082 232.604, 171.480 234.250 M 197 241.559 C 197 243.010, 197.433 243.851, 198 243.500 C 198.550 243.160, 199 242.009, 199 240.941 C 199 239.873, 198.550 239, 198 239 C 197.450 239, 197 240.152, 197 241.559 M 201.208 243.871 C 200.325 244.417, 200.695 245.034, 202.479 245.989 C 205.586 247.652, 206.637 246.886, 204.233 244.711 C 203.219 243.793, 201.919 243.432, 201.208 243.871 M 207.500 250 C 207.840 250.550, 208.316 251, 208.559 251 C 208.802 251, 209 250.550, 209 250 C 209 249.450, 208.523 249, 207.941 249 C 207.359 249, 207.160 249.450, 207.500 250 M 227.595 260.138 C 229.892 262.716, 235 265, 238.468 265 C 240.869 265, 241.455 265.854, 241.067 268.785 C 240.947 269.689, 242.321 270.041, 245.698 269.970 C 251.370 269.852, 263.129 270.675, 267.812 271.518 C 271.130 272.115, 275.700 271.085, 281.708 268.387 C 285.909 266.500, 286.726 265.004, 284.462 263.348 C 283.083 262.340, 282.436 262.295, 281.896 263.168 C 279.297 267.374, 242.723 264.886, 234.193 259.924 C 232.374 258.866, 229.717 258, 228.288 258 C 225.707 258, 225.702 258.014, 227.595 260.138 M 235.500 268 C 235.840 268.550, 236.568 269, 237.118 269 C 237.668 269, 237.840 268.550, 237.500 268 C 237.160 267.450, 236.432 267, 235.882 267 C 235.332 267, 235.160 267.450, 235.500 268" stroke="none" fill="black" fill-rule="evenodd"/>
</svg>