<svg xmlns="http://www.w3.org/2000/svg" width="300" height="300" viewBox="0 0 300 300" version="1.1">
	<path d="M 120 29.986 C 117.392 31.647, 123.861 37.144, 129.415 37.987 C 131.937 38.370, 134 38.304, 134 37.841 C 134 36.387, 136.758 36.928, 137.362 38.500 C 137.989 40.135, 141.033 40.512, 142.550 39.143 C 143.072 38.671, 146.200 38.641, 149.500 39.076 C 160.962 40.585, 168.512 41.801, 170.570 42.468 C 173.502 43.418, 175.929 40.500, 173.896 38.468 C 172.391 36.963, 152.349 33.239, 145.500 33.191 C 137.579 33.136, 128.707 31.900, 125.931 30.464 C 122.624 28.754, 122.012 28.705, 120 29.986 M 84 51 C 84 52.111, 84.667 53, 85.500 53 C 86.333 53, 87 52.111, 87 51 C 87 49.889, 86.333 49, 85.500 49 C 84.667 49, 84 49.889, 84 51 M 73.409 53.040 C 70.101 54.270, 68.716 59.026, 69.276 67.224 C 70.664 87.551, 73.117 115.676, 73.616 117 C 73.928 117.825, 74.555 122.726, 75.010 127.891 C 75.534 133.838, 76.326 137.591, 77.169 138.125 C 79.366 139.516, 80.518 138.478, 80.191 135.402 C 80.021 133.806, 79.681 129.575, 79.436 126 C 79.191 122.425, 78.332 112.525, 77.526 104 C 75.190 79.276, 74.944 70.943, 76.466 68.045 C 81.444 58.569, 79.831 50.652, 73.409 53.040 M 120.689 63.645 C 120.551 63.782, 113.702 63.998, 105.469 64.124 C 93.569 64.306, 89.477 64.743, 85.509 66.257 C 79.967 68.371, 79.014 69.338, 79.739 72.111 C 80.333 74.381, 82.290 74.560, 84 72.500 C 84.685 71.675, 86.116 71, 87.181 71 C 88.247 71, 88.840 70.550, 88.500 70 C 87.813 68.889, 89.978 68.670, 92.412 69.605 C 93.279 69.937, 93.740 70.612, 93.435 71.105 C 93.131 71.597, 93.864 72, 95.063 72 C 96.970 72, 97.074 71.794, 95.886 70.363 C 94.658 68.883, 94.911 68.773, 98.514 69.215 C 100.706 69.484, 104.367 69.153, 106.649 68.480 C 108.930 67.807, 111.313 67.576, 111.944 67.965 C 113.378 68.852, 124.609 68.597, 128.106 67.599 C 129.955 67.071, 131.189 67.332, 132.353 68.496 C 133.395 69.538, 134.751 69.896, 136.069 69.478 C 137.389 69.059, 138.833 69.444, 140.040 70.536 C 141.673 72.014, 142.561 72.096, 146.411 71.127 C 154.611 69.062, 160 69.847, 160 73.107 C 160 75.327, 162.250 75.608, 163.919 73.597 C 164.813 72.520, 164.783 72.053, 163.792 71.587 C 163.081 71.254, 163.963 71.199, 165.750 71.465 C 167.537 71.732, 169 71.511, 169 70.975 C 169 70.439, 169.665 70, 170.479 70 C 171.693 70, 171.753 70.447, 170.818 72.500 C 170.192 73.875, 169.301 75, 168.839 75 C 168.378 75, 168 76.125, 168 77.500 C 168 78.970, 168.574 80, 169.393 80 C 170.996 80, 172 77.873, 172 74.477 C 172 73.180, 172.539 71.785, 173.197 71.378 C 175.311 70.072, 186.398 70.139, 189 71.474 C 194.860 74.480, 196.880 75.205, 198.151 74.760 C 198.893 74.500, 200.438 74.633, 201.583 75.056 C 203.789 75.869, 206.351 74.881, 205.907 73.388 C 205.761 72.900, 206.398 72.355, 207.321 72.177 C 208.319 71.985, 209 72.492, 209 73.427 C 209 74.292, 209.675 75, 210.500 75 C 211.325 75, 212 74.325, 212 73.500 C 212 72.675, 212.395 72, 212.878 72 C 213.360 72, 214.315 72.675, 215 73.500 C 215.685 74.325, 217.470 75, 218.967 75 C 222.080 75, 224.650 77.425, 225.974 81.612 C 228.145 88.475, 229.857 92.452, 230.772 92.757 C 232.465 93.322, 233.099 89.845, 231.986 86.097 C 228.826 75.465, 227.400 71.782, 225.547 69.471 C 223.763 67.247, 222.794 66.939, 218 67.075 C 198.516 67.627, 159.131 66.568, 140.500 64.992 C 122.351 63.456, 120.971 63.362, 120.689 63.645 M 157.695 82.224 C 156.153 83.955, 153.314 88.191, 151.386 91.637 C 149.459 95.083, 147.102 98.150, 146.149 98.453 C 143.357 99.339, 131.288 99.397, 120.468 98.576 C 110.490 97.820, 110.430 97.829, 109.120 100.276 C 107.144 103.968, 108.020 106.443, 111.441 106.834 C 113.580 107.078, 114.836 106.543, 116.120 104.841 C 117.699 102.748, 117.943 102.689, 118.545 104.257 C 119.323 106.285, 122.193 106.521, 124.973 104.785 C 126.501 103.831, 127.643 103.831, 130.281 104.785 C 134.309 106.241, 139 106.376, 139 105.035 C 139 104.505, 139.946 103.564, 141.103 102.945 C 143.130 101.860, 143.182 101.977, 142.525 106.160 C 141.715 111.317, 133.835 127.919, 130.039 132.464 C 129.236 133.426, 128.111 135.044, 127.539 136.060 C 121.890 146.098, 116.401 153.849, 106.758 165.403 C 100.913 172.407, 92.593 183.802, 88 191.097 C 83.182 198.748, 78.208 204.882, 66.724 217.332 C 58.871 225.845, 57.602 229.280, 62.116 229.803 C 64.285 230.055, 66.717 228.138, 76.366 218.569 C 82.765 212.224, 88 206.669, 88 206.226 C 88 205.783, 89.800 203.431, 92 201 C 94.200 198.569, 96 196.199, 96 195.733 C 96 193.972, 107.955 177.577, 114.003 171.043 C 115.930 168.961, 118.285 165.625, 119.237 163.629 C 122.352 157.096, 123.513 158.880, 124.844 172.250 C 125.515 178.988, 126.489 187.425, 127.009 191 C 128.940 204.291, 130.160 220.215, 129.598 224.785 C 129.280 227.378, 129.378 233.316, 129.816 237.981 C 130.254 242.645, 130.298 248.495, 129.912 250.981 C 129.263 255.165, 131.058 269.667, 132.517 272.028 C 133.730 273.990, 136.780 273.011, 137.422 270.454 C 137.774 269.054, 137.807 267.497, 137.497 266.995 C 137.186 266.493, 136.784 254.795, 136.602 240.999 C 136.278 216.482, 136.219 215.862, 133.989 213.488 C 132.029 211.402, 131.898 210.828, 133.059 209.429 C 134.623 207.545, 134.456 190.900, 132.864 189.916 C 131.982 189.371, 132.238 157.257, 133.202 147.500 C 133.655 142.913, 134.569 140.988, 140.557 132 C 142.939 128.425, 145.303 123.642, 145.810 121.370 C 146.318 119.099, 148.437 114.674, 150.519 111.538 C 154.131 106.095, 154.457 105.863, 157.652 106.463 C 159.715 106.850, 161 106.689, 161 106.045 C 161 104.612, 163.329 104.729, 164.837 106.237 C 165.517 106.917, 167.520 107.553, 169.287 107.650 C 173.475 107.878, 177.627 108.651, 178.902 109.440 C 179.461 109.785, 180.806 109.514, 181.890 108.837 C 183.570 107.787, 184.128 107.937, 185.680 109.852 C 187.321 111.877, 188.239 112.069, 195 111.799 C 201.734 111.531, 202.500 111.296, 202.500 109.500 C 202.500 107.825, 201.606 107.389, 197 106.818 C 187.880 105.687, 174.164 103.219, 173.001 102.500 C 172.400 102.129, 168.892 101.524, 165.205 101.155 L 158.500 100.484 158.650 97.217 C 158.733 95.421, 159.900 92.499, 161.244 90.725 C 165.419 85.215, 166.189 83.222, 165 81 C 163.479 78.158, 160.941 78.583, 157.695 82.224 M 223 84.941 C 223 86.380, 225.689 102.649, 227.588 112.699 C 228.521 117.633, 228.873 122.663, 228.473 125.331 C 227.712 130.403, 228.904 131.868, 231.478 129.024 C 233.070 127.265, 233.134 125.886, 232.202 113.298 C 231.419 102.714, 230.636 98.219, 228.840 94 C 227.553 90.975, 226.162 88.350, 225.750 88.167 C 225.338 87.983, 225 87.222, 225 86.476 C 225 85.729, 224.550 84.840, 224 84.500 C 223.450 84.160, 223 84.358, 223 84.941 M 150.874 144.459 C 150.543 144.790, 148.874 145.238, 147.165 145.454 C 143.270 145.947, 142 146.718, 142 148.590 C 142 150.753, 144.631 151.396, 147.915 150.035 C 150.290 149.051, 151.354 149.132, 153.986 150.493 C 157.331 152.223, 169.756 153.203, 170.620 151.805 C 171.500 150.382, 175.766 150.947, 176.388 152.569 C 176.794 153.627, 177.659 153.926, 179.043 153.486 C 180.172 153.128, 181.721 153.354, 182.485 153.988 C 184.315 155.506, 192.161 156.058, 193.738 154.779 C 194.612 154.070, 195.159 154.250, 195.595 155.387 C 196.369 157.404, 199.356 157.481, 200.978 155.526 C 202.038 154.249, 202.635 154.382, 205.445 156.526 C 207.229 157.887, 209.445 159, 210.369 159 C 212.382 159, 214.237 163.378, 213.736 166.941 L 213.376 169.500 212.352 167.079 C 210.897 163.636, 209.862 166.046, 211.051 170.108 C 212.293 174.349, 213.056 221.847, 211.894 222.566 C 211.425 222.855, 210.090 222.583, 208.927 221.961 C 207.763 221.338, 201.567 220.455, 195.156 219.998 C 188.745 219.541, 179.664 218.651, 174.975 218.020 C 165.218 216.706, 156.828 216.979, 156.286 218.627 C 156.082 219.247, 157.813 220.743, 160.133 221.952 C 163.714 223.819, 164.700 223.964, 166.665 222.911 C 168.612 221.870, 169.287 221.950, 170.907 223.416 C 172.491 224.850, 173.226 224.949, 175.042 223.978 C 176.761 223.058, 177.776 223.077, 179.625 224.067 C 181.557 225.101, 182.460 225.092, 184.466 224.018 C 186.469 222.946, 187.221 222.938, 188.470 223.975 C 189.353 224.708, 193.948 225.466, 199.254 225.755 C 204.339 226.032, 209.255 226.649, 210.178 227.126 C 211.601 227.862, 211.922 230.231, 212.292 242.747 C 212.682 255.933, 213.153 261.256, 214.469 267.361 C 214.730 268.569, 214.193 269.398, 212.935 269.727 C 211.871 270.006, 211 271.089, 211 272.136 C 211 274.388, 216.549 285.094, 218.290 286.200 C 221.350 288.145, 222 287.011, 221.985 279.750 C 221.969 272.314, 221.433 270.500, 219.250 270.500 C 218.563 270.500, 218.112 270.050, 218.250 269.500 C 218.387 268.950, 218.767 268.589, 219.093 268.698 C 219.419 268.806, 219.609 249.906, 219.514 226.698 C 219.378 193.478, 219.050 183.819, 217.970 181.300 C 216.741 178.431, 216.792 177.888, 218.458 176.046 C 220.016 174.325, 220.129 173.578, 219.154 171.439 C 218.514 170.034, 218.242 167.884, 218.549 166.661 C 218.856 165.437, 218.411 163.100, 217.560 161.468 C 216.709 159.836, 216 157.825, 215.984 157 C 215.968 156.175, 215.161 154.468, 214.190 153.206 C 212.550 151.074, 211.328 150.844, 196.962 149.952 C 188.458 149.424, 180.375 148.544, 179 147.996 C 177.625 147.448, 172 146.568, 166.500 146.041 C 161 145.513, 155.370 144.807, 153.988 144.470 C 152.606 144.133, 151.205 144.128, 150.874 144.459 M 116 161.655 C 114.075 163.631, 113.175 164.967, 114 164.624 C 114.825 164.282, 116.243 163.735, 117.151 163.410 C 118.059 163.085, 119.009 161.734, 119.262 160.409 C 119.515 159.084, 119.673 158.014, 119.611 158.032 C 119.550 158.049, 117.925 159.680, 116 161.655 M 163.213 190.893 C 149.419 191.380, 145.734 191.806, 144.978 193.001 C 143.762 194.926, 143.770 195.702, 145.035 198.066 C 146.358 200.537, 148.638 200.545, 149.955 198.083 C 150.850 196.411, 151.368 196.313, 154.012 197.311 C 156.333 198.187, 157.506 198.167, 159.021 197.227 C 165.349 193.303, 165.019 193.364, 166.975 195.750 C 168.851 198.037, 172 198.821, 172 197 C 172 195.786, 175.671 195.659, 176.405 196.847 C 176.693 197.312, 181.477 197.971, 187.036 198.309 C 192.934 198.669, 198.427 199.565, 200.225 200.463 C 204.256 202.473, 206 202.406, 206 200.241 C 206 198.066, 203.812 196.665, 195.572 193.563 C 187.251 190.431, 183.970 190.160, 163.213 190.893" stroke="none" fill="black" fill-rule="evenodd"/>
</svg>