<svg xmlns="http://www.w3.org/2000/svg" width="300" height="300" viewBox="0 0 300 300" version="1.1">
	<path d="M 120.500 14 C 118.741 14.756, 118.838 14.868, 121.309 14.930 C 123.065 14.974, 123.866 15.408, 123.446 16.087 C 123.077 16.685, 121.925 16.952, 120.887 16.681 C 119.849 16.409, 119 16.606, 119 17.118 C 119 18.435, 123.608 20.026, 126.805 19.813 C 132.252 19.451, 135.894 20.037, 137.371 21.513 C 138.203 22.346, 140.299 23.310, 142.028 23.656 C 143.757 24.001, 145.396 24.868, 145.669 25.581 C 145.943 26.294, 147.535 27.178, 149.207 27.545 C 150.879 27.913, 153.752 29.101, 155.591 30.186 C 158.968 32.178, 161 31.956, 161 29.595 C 161 28.227, 146.636 19, 144.506 19 C 143.812 19, 142.685 18.325, 142 17.500 C 141.315 16.675, 139.965 16, 139 16 C 138.034 16, 135.629 15.325, 133.654 14.500 C 129.749 12.868, 123.671 12.637, 120.500 14 M 175.557 39.777 C 175.305 40.028, 170.689 40.376, 165.299 40.549 C 150.394 41.026, 126.581 45.490, 119.764 49.085 C 118.809 49.588, 116.586 50, 114.824 50 C 110.715 50, 100.020 51.948, 97.764 53.108 C 96.809 53.598, 93.953 54, 91.418 54 C 86.575 54, 81 56.524, 81 58.716 C 81 60.496, 83.772 60.285, 88.500 58.147 C 91.777 56.664, 93.006 56.545, 95.298 57.488 C 99.285 59.129, 104 58.261, 104 55.887 C 104 53.647, 106.813 53.348, 107.638 55.500 C 108.375 57.418, 110 57.451, 110 55.547 C 110 54.134, 115.566 52.017, 119.309 52.006 C 122.178 51.997, 120.179 53.987, 117.191 54.115 C 115.155 54.202, 115.472 54.417, 118.492 54.997 C 121.680 55.609, 122.967 55.385, 124.877 53.882 C 126.193 52.847, 127.932 52, 128.742 52 C 129.709 52, 130.005 51.400, 129.605 50.250 C 129.024 48.583, 129.060 48.583, 130.358 50.250 C 132.299 52.743, 134.098 52.441, 139.100 48.780 C 143.127 45.833, 144.076 45.575, 150.295 45.743 C 155.328 45.880, 157.230 45.564, 157.628 44.527 C 157.924 43.757, 158.801 43.370, 159.577 43.668 C 160.353 43.966, 160.740 44.612, 160.435 45.105 C 159.474 46.660, 167.452 46.072, 169.820 44.413 C 171.320 43.363, 172.494 43.149, 173.293 43.780 C 173.957 44.305, 177.414 44.985, 180.975 45.293 C 184.537 45.600, 187.612 46.337, 187.811 46.932 C 188.009 47.526, 188.695 47.672, 189.335 47.256 C 189.976 46.840, 193.064 46.500, 196.198 46.500 C 200.784 46.500, 201.986 46.842, 202.355 48.250 C 202.870 50.219, 206.015 50.585, 207.725 48.875 C 208.559 48.041, 210.015 48.313, 213.344 49.925 C 219.910 53.103, 220.514 54.212, 220.405 62.905 C 220.312 70.434, 216.805 83.224, 212.496 91.750 C 210.728 95.249, 210.795 98.100, 212.661 98.721 C 214.525 99.341, 224.018 83.242, 228.122 72.500 C 229.700 68.370, 229.914 62.341, 228.650 57.627 C 227.610 53.748, 226.312 51.898, 222.288 48.556 C 217.657 44.710, 216.490 44.254, 208.367 43.117 C 203.490 42.433, 197.925 41.493, 196 41.026 C 194.075 40.560, 190.866 40.300, 188.868 40.448 C 186.871 40.597, 183.161 40.404, 180.625 40.019 C 178.089 39.634, 175.808 39.525, 175.557 39.777 M 147 49 C 147 49.550, 147.450 50, 148 50 C 148.550 50, 149 49.550, 149 49 C 149 48.450, 148.550 48, 148 48 C 147.450 48, 147 48.450, 147 49 M 71.471 59.345 C 68.964 62.924, 73.408 65.635, 77 62.718 C 78.653 61.376, 79.549 58.048, 78.294 57.917 C 77.857 57.871, 76.462 57.719, 75.193 57.580 C 73.798 57.426, 72.326 58.125, 71.471 59.345 M 55.750 61.689 C 53.299 62.330, 53.436 68.955, 56 73.739 C 57.100 75.791, 58 78.165, 58 79.013 C 58 83.893, 68.346 108.860, 71.065 110.540 C 73.334 111.942, 74.009 109.379, 72.934 103.444 C 72.342 100.175, 71.382 96.627, 70.801 95.560 C 70.221 94.493, 68.512 88.868, 67.003 83.060 C 61.365 61.346, 60.844 60.358, 55.750 61.689 M 139.626 66.861 C 138.732 67.849, 137.997 69.747, 137.994 71.079 C 137.985 75.327, 136.018 80.778, 134.230 81.510 C 133.279 81.900, 130.025 82.443, 127 82.716 C 123.975 82.990, 120.742 83.616, 119.816 84.107 C 118.889 84.598, 116.963 85, 115.534 85 C 114.106 85, 112.676 85.681, 112.357 86.513 C 111.543 88.632, 113.794 91, 116.622 91 C 118.387 91, 119.030 90.420, 119.116 88.750 C 119.203 87.057, 119.345 86.933, 119.689 88.250 C 119.941 89.213, 120.676 89.993, 121.323 89.985 C 122.820 89.966, 129.776 87.558, 130.539 86.794 C 131.575 85.759, 134.922 87.176, 135.412 88.858 C 135.675 89.761, 136.126 94.550, 136.414 99.500 C 137.072 110.833, 136.562 111.610, 127.963 112.377 C 113.689 113.650, 107.202 115.055, 105.904 117.155 C 105.010 118.601, 107.555 122, 109.533 122 C 110.205 122, 111.315 121.325, 112 120.500 C 112.685 119.675, 114.540 119, 116.122 119 C 118.014 119, 119 118.486, 119 117.500 C 119 116.675, 119.464 116, 120.031 116 C 120.599 116, 121.322 116.675, 121.638 117.500 C 122.354 119.364, 125.897 119.394, 128.322 117.555 C 130.084 116.219, 130.084 116.160, 128.322 115.731 C 127.320 115.487, 128.165 115.335, 130.200 115.394 C 133.239 115.481, 134.009 115.934, 134.513 117.928 C 135.392 121.401, 132.970 137.780, 131.384 139.096 C 130.650 139.705, 128.577 140.312, 126.775 140.446 C 123.025 140.724, 109.006 143.954, 98 147.076 C 93.875 148.246, 87.125 149.783, 83 150.492 C 75.940 151.705, 70.092 153.496, 67.250 155.317 C 66.563 155.758, 66 157.470, 66 159.122 C 66 161.910, 66.235 162.104, 69.250 161.813 C 71.958 161.552, 72.553 161.041, 72.816 158.750 C 73.136 155.969, 74.367 155.167, 75.500 157 C 76.579 158.746, 79.659 158.079, 80.637 155.887 C 81.471 154.019, 82.569 153.733, 90.058 153.432 C 94.721 153.245, 100.103 152.452, 102.018 151.669 C 103.933 150.886, 107.744 149.922, 110.487 149.526 C 115.933 148.740, 121.044 146.507, 122.300 144.365 C 122.740 143.614, 124.580 143, 126.389 143 C 128.944 143, 129.938 143.569, 130.839 145.547 C 132.542 149.284, 132.371 149.726, 128.148 152.521 C 125.760 154.101, 123.210 157.146, 121.437 160.535 C 119.864 163.541, 118.288 166, 117.934 166 C 116.748 166, 109.438 177.423, 106.096 184.500 C 104.278 188.350, 102.387 192.281, 101.895 193.236 C 101.403 194.191, 101 195.559, 101 196.275 C 101 198.303, 97.706 204.226, 94.973 207.112 C 93.613 208.549, 88.834 213.724, 84.352 218.612 C 79.871 223.501, 73.705 229.075, 70.650 231 C 65.250 234.403, 63.189 238, 66.640 238 C 68.881 238, 89.203 222.713, 93.001 218.171 C 96.010 214.571, 96.954 213.509, 98.927 211.500 C 101.826 208.548, 107 202.160, 107 201.533 C 107 201.135, 107.837 199.614, 108.859 198.154 C 109.882 196.694, 111.495 193.131, 112.444 190.237 C 113.393 187.342, 114.710 184.417, 115.370 183.737 C 116.031 183.056, 118.130 180.250, 120.036 177.500 C 121.941 174.750, 123.746 172.275, 124.047 172 C 124.347 171.725, 126.692 168.745, 129.257 165.377 C 134.950 157.903, 139 150.462, 139 147.474 C 139 143.452, 141.983 142.433, 154.775 142.088 C 157.305 142.020, 158.266 141.432, 159 139.500 C 159.679 137.713, 160.742 136.968, 162.725 136.888 C 166.524 136.735, 171.973 136.162, 175.104 135.587 C 176.536 135.324, 178.185 135.585, 178.767 136.167 C 179.391 136.791, 180.375 136.873, 181.163 136.367 C 181.898 135.894, 184.975 134.984, 188 134.345 C 192.169 133.464, 193.742 133.463, 194.500 134.341 C 195.733 135.770, 207.864 135.358, 209.712 133.824 C 211.506 132.335, 211.324 128.338, 209.428 127.611 C 208.563 127.279, 206.875 127.541, 205.678 128.194 C 204.480 128.847, 200.800 129.455, 197.500 129.545 C 194.200 129.635, 186.732 130.299, 180.905 131.021 C 175.077 131.742, 169.630 132.072, 168.798 131.753 C 166.232 130.768, 167.808 107.335, 170.631 104.512 C 171.980 103.163, 171.974 103, 170.571 103 C 168.745 103, 168.743 102.990, 168.953 92.500 C 169.166 81.799, 169.466 81.007, 173.317 80.968 C 175.068 80.951, 177.288 80.338, 178.251 79.607 C 179.214 78.876, 181.042 78.476, 182.312 78.719 C 183.702 78.985, 185.180 78.489, 186.023 77.472 C 187.244 76.002, 187.179 75.604, 185.521 74.392 C 183.038 72.576, 181.993 72.631, 176.043 74.892 C 169.943 77.209, 168.620 76.231, 169.595 70.128 C 170.350 65.407, 169.027 64.279, 164.672 65.934 C 162.496 66.762, 162 67.584, 162 70.364 C 162 74.945, 159.292 78.077, 154.977 78.488 C 153.065 78.670, 150.325 79.118, 148.890 79.483 C 146.557 80.076, 146.211 79.807, 145.640 76.948 C 145.288 75.189, 145 72.247, 145 70.410 C 145 66.113, 142.060 64.171, 139.626 66.861 M 147.315 82.250 C 146.212 83.968, 145.587 108.011, 146.647 107.956 C 148.463 107.862, 156.584 105.415, 158.176 104.482 C 159.521 103.693, 159.905 101.641, 160.123 94.066 C 160.316 87.348, 160.044 84.515, 159.179 84.226 C 158.511 84.004, 157.329 83.187, 156.554 82.411 C 154.807 80.665, 148.405 80.553, 147.315 82.250 M 150 83 C 150 83.550, 150.900 84, 152 84 C 153.100 84, 154 83.550, 154 83 C 154 82.450, 153.100 82, 152 82 C 150.900 82, 150 82.450, 150 83 M 173.431 102.112 C 173.053 102.723, 173.364 103.616, 174.122 104.096 C 175.120 104.729, 175.155 104.974, 174.250 104.985 C 173.563 104.993, 173 105.705, 173 106.567 C 173 107.747, 173.556 107.950, 175.250 107.388 C 176.488 106.978, 179.292 106.610, 181.483 106.571 C 184.552 106.516, 185.550 106.069, 185.831 104.620 C 186.032 103.586, 185.590 102.355, 184.848 101.885 C 182.881 100.639, 174.235 100.810, 173.431 102.112 M 150.001 112.642 C 150 113.269, 148.952 114.046, 147.671 114.368 C 144.457 115.174, 143.232 118.429, 142.432 128.281 C 141.712 137.160, 142.555 139.445, 145.613 136.906 C 146.452 136.210, 150.099 135.504, 153.717 135.339 C 157.335 135.173, 160.476 134.857, 160.697 134.637 C 160.917 134.416, 160.738 129.120, 160.299 122.868 L 159.500 111.500 154.751 111.500 C 151.859 111.500, 150.001 111.946, 150.001 112.642 M 182.565 136.895 C 182.260 137.388, 182.571 137.996, 183.256 138.248 C 185.009 138.892, 187.124 138.009, 186.447 136.915 C 185.723 135.743, 183.285 135.731, 182.565 136.895 M 178.514 150.618 C 176.871 153.126, 176.888 153.357, 178.899 156.078 C 180.055 157.640, 181 159.310, 181 159.788 C 181 160.961, 191.750 171, 193.006 171 C 193.553 171, 194 171.576, 194 172.281 C 194 173.743, 188.764 176.214, 184.908 176.573 C 183.482 176.705, 180.146 177.550, 177.493 178.451 C 170.368 180.870, 169.830 180.350, 170.094 171.309 C 170.255 165.799, 169.957 163.486, 169.046 163.182 C 168.047 162.849, 168.066 162.573, 169.137 161.894 C 170.155 161.249, 169.969 161.027, 168.405 161.015 C 164.922 160.990, 163.223 164.070, 162.069 172.500 C 160.890 181.111, 159.610 183, 154.958 183 C 153.495 183, 150.182 184.125, 147.596 185.500 C 145.010 186.875, 141.793 188, 140.447 188 C 139.101 188, 138 188.391, 138 188.870 C 138 189.348, 135.975 189.968, 133.501 190.247 C 128.491 190.812, 126 192.379, 126 194.967 C 126 195.915, 125.100 197.505, 124 198.500 C 120.791 201.404, 121.510 204.229, 124.911 202.076 C 125.767 201.534, 126.983 201.597, 128.006 202.236 C 129.304 203.046, 130.411 202.756, 132.826 200.970 C 135.089 199.297, 137.493 198.599, 141.467 198.460 C 147.155 198.260, 150 196.858, 150 194.255 C 150 192.996, 150.256 192.967, 151.594 194.078 C 152.953 195.206, 153.448 195.057, 154.945 193.072 L 156.702 190.743 157.275 195.017 C 157.873 199.473, 156.727 213.352, 154.942 223.276 C 153.600 230.733, 154.455 279.114, 155.979 281.961 C 157.227 284.293, 161.188 284.684, 162.882 282.642 C 164.182 281.076, 164.364 276.214, 164.183 248 C 163.982 216.738, 166.999 189.705, 170.855 188.225 C 171.694 187.904, 172.557 188.171, 172.773 188.820 C 173.454 190.862, 177.130 190.104, 179.179 187.500 C 180.260 186.125, 181.990 185, 183.023 185 C 184.056 185, 185.260 184.438, 185.700 183.750 C 186.509 182.485, 188.200 181.310, 193.322 178.450 C 195.596 177.180, 196.435 177.116, 197.645 178.120 C 199.612 179.753, 202.577 185.671, 203.446 189.700 C 203.826 191.460, 205.906 194.723, 208.068 196.951 C 210.231 199.179, 212.003 201.339, 212.006 201.751 C 212.016 203.170, 221.010 212, 222.445 212 C 223.235 212, 224.127 212.396, 224.426 212.880 C 225.106 213.980, 234.198 217, 236.831 217 C 239.006 217, 240.244 214.799, 239.362 212.500 C 238.999 211.556, 237.435 210.988, 235.143 210.967 C 233.139 210.948, 230.583 210.161, 229.462 209.217 C 225.458 205.844, 219 196.780, 219 194.533 C 219 193.274, 218.301 191.665, 217.447 190.956 C 216.593 190.247, 214.070 186.544, 211.841 182.727 C 209.612 178.911, 207.014 175.014, 206.068 174.068 C 205.121 173.121, 204.070 171.625, 203.731 170.743 C 203.393 169.860, 200.727 167.257, 197.808 164.958 C 194.889 162.659, 192.080 160.046, 191.567 159.151 C 189.330 155.249, 182.600 148, 181.215 148 C 180.673 148, 179.458 149.178, 178.514 150.618 M 154.459 186.067 C 154.096 186.653, 154.050 187.384, 154.357 187.690 C 155.179 188.513, 158 187.229, 158 186.031 C 158 184.674, 155.303 184.701, 154.459 186.067 M 208.695 188.943 C 208.991 190.074, 209.631 191, 210.117 191 C 211.465 191, 211.170 189.386, 209.579 188.065 C 208.412 187.097, 208.254 187.255, 208.695 188.943 M 141 191 C 139.793 191.780, 139.951 191.972, 141.809 191.985 C 143.097 191.993, 143.845 191.558, 143.500 191 C 142.757 189.798, 142.861 189.798, 141 191 M 134.500 194 C 134.160 194.550, 134.359 195, 134.941 195 C 135.523 195, 136 194.550, 136 194 C 136 193.450, 135.802 193, 135.559 193 C 135.316 193, 134.840 193.450, 134.500 194 M 209.543 193.931 C 209.226 194.443, 209.425 195.144, 209.984 195.490 C 210.543 195.835, 211 195.416, 211 194.559 C 211 192.802, 210.400 192.544, 209.543 193.931 M 131 219.433 C 131 220.854, 130.273 222.114, 129.250 222.465 C 127.533 223.053, 122.949 231.301, 122.983 233.742 C 122.992 234.424, 122.100 235.545, 121 236.232 C 119.900 236.919, 119 238.099, 119 238.855 C 119 240.739, 113.882 250, 112.841 250 C 112.378 250, 112 250.830, 112 251.845 C 112 252.860, 111.111 254.494, 110.025 255.477 C 108.939 256.460, 107.081 259.268, 105.895 261.716 C 104.066 265.496, 103.948 266.372, 105.120 267.517 C 107.711 270.050, 112.282 266.948, 116.402 259.860 C 120.289 253.175, 122.107 250.096, 127.627 240.849 C 129.482 237.741, 131 234.254, 131 233.099 C 131 231.945, 131.406 231, 131.902 231 C 132.398 231, 133.277 229.762, 133.854 228.250 C 134.431 226.738, 135.670 224.319, 136.607 222.876 C 138.885 219.366, 137.848 217, 134.031 217 C 131.487 217, 131 217.391, 131 219.433 M 180.088 224.836 C 178.546 227.716, 180.453 237.782, 183.812 244.500 C 186.765 250.404, 193.608 257.829, 199.500 261.523 C 201.150 262.557, 204.118 264.645, 206.095 266.163 C 210.479 269.528, 222.867 272.510, 223.678 270.396 C 224.515 268.216, 223.151 267.145, 218.685 266.476 C 215.133 265.943, 213.166 264.624, 206.959 258.609 C 197.498 249.442, 192 242.956, 192 240.961 C 192 240.102, 191.624 238.972, 191.165 238.450 C 190.706 237.928, 189.509 235.250, 188.504 232.500 C 185.186 223.418, 182.268 220.761, 180.088 224.836" stroke="none" fill="black" fill-rule="evenodd"/>
</svg>