<svg xmlns="http://www.w3.org/2000/svg" width="300" height="300" viewBox="0 0 300 300" version="1.1">
	<path d="M 177.305 14.644 C 176.444 14.994, 176.093 20.071, 176.051 32.759 C 176.010 44.825, 175.632 50.610, 174.851 51.092 C 174.223 51.480, 169.163 51.539, 163.605 51.224 C 144.417 50.134, 139.841 50.322, 138.619 52.250 C 137.215 54.466, 138.615 56.916, 142.478 59 C 144.571 60.129, 145.368 60.200, 145.700 59.289 C 145.983 58.510, 147.222 58.294, 149.172 58.684 C 151.104 59.071, 152.483 58.837, 152.976 58.038 C 153.460 57.256, 154.586 57.051, 155.976 57.492 C 158.399 58.262, 157.674 59.584, 154.500 60.184 C 153.400 60.391, 155.487 61.015, 159.138 61.570 C 164.205 62.340, 165.667 62.297, 165.319 61.388 C 165.067 60.733, 163.880 59.894, 162.681 59.524 C 160.546 58.865, 160.554 58.834, 163.044 58.067 C 164.443 57.636, 167.368 57.392, 169.544 57.524 L 173.500 57.765 173.500 75.298 C 173.500 92.355, 173.563 92.886, 175.803 94.829 C 177.864 96.617, 178.385 96.682, 180.764 95.447 C 182.226 94.689, 184.456 94.327, 185.719 94.644 C 187.047 94.978, 189.050 94.542, 190.472 93.610 C 191.824 92.725, 193.566 92, 194.344 92 C 195.123 92, 198.851 90.433, 202.630 88.519 C 210.079 84.744, 211.956 84.356, 213.807 86.207 C 214.750 87.150, 215.329 87.095, 216.453 85.957 C 217.522 84.875, 217.989 80.968, 218.271 70.758 C 218.480 63.200, 218.990 56.676, 219.406 56.261 C 219.821 55.845, 222.253 55.586, 224.810 55.685 C 229.831 55.879, 232 54.768, 232 52 C 232 49.357, 229.895 48.112, 223.987 47.262 C 217.625 46.347, 217.609 46.311, 216.051 29.582 C 215.250 20.978, 214.626 18.209, 213.260 17.200 C 211.744 16.081, 211.188 16.262, 209.250 18.506 C 207.028 21.079, 206.354 24.021, 207.683 25.350 C 208.059 25.725, 208.496 30.695, 208.655 36.392 L 208.945 46.752 203.222 48.306 C 200.075 49.160, 194.622 50.004, 191.104 50.180 L 184.709 50.500 184.392 39.346 C 184.012 26, 182.531 15.954, 180.778 14.841 C 179.371 13.949, 179.057 13.931, 177.305 14.644 M 45.250 52.746 C 43.579 53.308, 43.646 58.650, 45.332 59.297 C 46.818 59.867, 48.772 88.224, 49.239 116 L 49.500 131.500 40.250 131.139 L 31 130.777 31 133.560 C 31 135.090, 30.263 137.157, 29.362 138.153 C 28.027 139.628, 27.957 140.243, 28.984 141.481 C 31.481 144.490, 40.306 142.763, 41.270 139.077 C 41.666 137.562, 42.617 137, 44.784 137 C 46.418 137, 48.191 137.563, 48.724 138.250 C 50.320 140.308, 50.239 150.109, 48.518 163.184 C 44.181 196.133, 43.837 197.256, 37.224 200.019 C 34.017 201.359, 33.457 203.638, 35.357 207.622 C 37.318 211.734, 39.327 212.698, 42.451 211.026 C 44.307 210.033, 45.537 210.048, 48.634 211.100 C 50.760 211.823, 53.210 212.996, 54.079 213.707 C 54.947 214.418, 56.635 215, 57.829 215 C 59.221 215, 60.008 215.627, 60.022 216.750 C 60.050 218.946, 62.811 222.413, 65.713 223.898 C 66.930 224.521, 67.730 225.586, 67.491 226.265 C 66.917 227.897, 69.596 231.367, 70.838 230.600 C 72.658 229.475, 70.789 238.449, 68.732 240.713 C 66.496 243.174, 64.360 246.593, 63.399 249.250 C 63.051 250.213, 62.257 251.022, 61.633 251.049 C 61.010 251.076, 58.700 252.881, 56.500 255.060 C 53.829 257.706, 51.261 259.226, 48.769 259.636 C 41.818 260.779, 40.860 266, 47.601 266 C 50.820 266, 55.789 263.771, 59.780 260.537 C 67.838 254.008, 71.851 250.295, 71.919 249.307 C 71.963 248.650, 72.787 247.525, 73.750 246.807 C 74.713 246.088, 76.153 244.236, 76.950 242.692 C 78.930 238.858, 81.737 239.704, 88.030 246.030 C 90.749 248.763, 93.473 251, 94.083 251 C 94.692 251, 96.557 251.973, 98.227 253.162 C 100.437 254.735, 101.688 255.056, 102.822 254.340 C 104.748 253.125, 105.550 251, 104.082 251 C 103.486 251, 101.264 249.313, 99.145 247.250 C 97.026 245.188, 93.178 241.760, 90.594 239.634 C 82.907 233.311, 82.549 232.377, 84.525 223.804 C 86.151 216.748, 89.066 205.886, 91.092 199.330 C 91.631 197.586, 92.517 192.186, 93.062 187.330 C 93.607 182.473, 94.246 177.825, 94.483 177 C 95.126 174.758, 95.817 166.927, 96.573 153.304 L 97.251 141.108 100.274 140.054 C 101.938 139.474, 104.339 139, 105.610 139 C 108.853 139, 112 135.263, 112 131.412 L 112 128.200 105.124 128.486 C 101.342 128.643, 97.736 128.455, 97.110 128.068 C 96.484 127.681, 95.489 123.413, 94.898 118.583 C 94.307 113.752, 92.963 107.300, 91.912 104.244 C 90.860 101.187, 90 97.385, 90 95.794 C 90 94.203, 89.386 91.686, 88.636 90.200 C 87.886 88.715, 86.980 85.250, 86.622 82.500 C 85.710 75.475, 82.252 64.910, 80.082 62.517 C 79.077 61.407, 78.003 59.825, 77.695 59 C 77.274 57.872, 76.965 58.058, 76.451 59.750 C 76.075 60.987, 75.369 62, 74.883 62 C 74.398 62, 74 63.125, 74 64.500 C 74 65.875, 74.401 67, 74.891 67 C 75.380 67, 75.998 68.463, 76.263 70.250 C 76.528 72.037, 77.927 78.631, 79.372 84.901 C 80.818 91.172, 82 97.665, 82 99.330 C 82 100.996, 82.411 103.740, 82.913 105.429 C 84.729 111.532, 86.153 117.606, 87.035 123 C 88.484 131.864, 86.844 134.025, 81.724 129.997 C 79.054 127.897, 76 128.222, 76 130.607 C 76 132.237, 74.068 132.443, 62.276 132.070 C 60.837 132.025, 59.482 130.899, 58.440 128.884 C 56.877 125.862, 56.762 121.943, 57.327 91 C 57.471 83.144, 55.744 68.258, 54.462 66.301 C 53.658 65.074, 53 63.110, 53 61.936 C 53 56.597, 48.757 51.566, 45.250 52.746 M 187.510 57.016 C 187.856 57.575, 188.557 57.774, 189.069 57.457 C 190.456 56.600, 190.198 56, 188.441 56 C 187.584 56, 187.165 56.457, 187.510 57.016 M 202.543 57.930 C 202.227 58.442, 199.388 59.171, 196.234 59.551 C 193.080 59.931, 189.127 60.802, 187.450 61.486 C 184.456 62.708, 184.377 62.924, 183.188 73.050 C 182.375 79.984, 182.311 83.574, 182.993 83.996 C 184.784 85.102, 201.391 81.600, 208.364 78.644 C 212.499 76.892, 212.362 77.481, 210.602 69 C 210.317 67.625, 209.812 64.362, 209.481 61.750 C 208.918 57.323, 208.682 57, 205.998 57 C 204.414 57, 202.859 57.419, 202.543 57.930 M 184.345 90.543 C 184.019 91.392, 184.023 92.356, 184.352 92.686 C 185.065 93.398, 188 91.138, 188 89.878 C 188 88.368, 184.968 88.921, 184.345 90.543 M 229.655 114.829 C 227.598 117.102, 227.541 119.374, 229.500 121 C 231.384 122.563, 231.464 126, 229.617 126 C 227.317 126, 227.066 129.528, 228.061 147.901 C 229.730 178.704, 231.486 182.278, 247 186.462 C 250.575 187.426, 253.950 188.567, 254.500 188.996 C 255.922 190.107, 267.484 191.299, 269.777 190.571 C 271.992 189.868, 274 186.008, 274 182.453 C 274 181.104, 274.450 180, 275 180 C 275.560 180, 276 177.247, 276 173.741 C 276 168.606, 275.648 167.261, 274.040 166.257 C 270.342 163.948, 267.662 166.871, 266.628 174.339 C 266.336 176.451, 265.570 178.813, 264.926 179.589 C 263.746 181.011, 257.887 181.554, 256.686 180.353 C 255.765 179.431, 245.813 176.072, 243.889 176.033 C 242.787 176.010, 241.603 173.860, 240.139 169.222 C 237.514 160.903, 237.028 141.115, 239.391 138.752 C 240.299 137.844, 240.477 136.817, 239.904 135.792 C 238.714 133.667, 241.267 131.633, 244.025 132.508 C 245.971 133.126, 246.016 133.324, 244.573 134.919 C 243.708 135.875, 243 137.010, 243 137.440 C 243 138.523, 250.057 137.136, 252.500 135.573 C 253.600 134.869, 256.750 133.970, 259.500 133.575 C 268.612 132.266, 269.139 132.014, 268.805 129.128 C 268.504 126.532, 268.390 126.497, 259.487 126.216 C 254.440 126.056, 247.547 126.545, 243.821 127.326 C 240.161 128.093, 236.727 128.446, 236.189 128.110 C 235.553 127.713, 235.560 125.486, 236.208 121.736 C 236.755 118.566, 236.947 115.304, 236.633 114.486 C 235.840 112.421, 231.648 112.626, 229.655 114.829 M 144.539 116.937 C 143.407 118.769, 143.722 131.612, 144.955 133.916 C 146.018 135.903, 145.914 136.640, 144.256 138.875 C 141.789 142.198, 138.369 143.966, 134.372 143.985 C 132.652 143.993, 130.685 144.675, 130 145.500 C 129.315 146.325, 128.135 147, 127.378 147 C 126.620 147, 126 147.900, 126 149 C 126 150.100, 125.550 151, 125 151 C 124.450 151, 124 151.450, 124 152 C 124 152.577, 127.147 153, 131.441 153 C 135.534 153, 139.160 152.550, 139.500 152 C 139.840 151.450, 140.799 151, 141.630 151 C 142.462 151, 143.833 150.310, 144.676 149.467 C 146.054 148.089, 146.452 148.196, 148.605 150.518 C 149.924 151.942, 151 154.338, 151 155.852 C 151 157.363, 151.440 159.040, 151.978 159.578 C 153.529 161.129, 153.505 175.070, 151.950 176.031 C 151.230 176.476, 145.731 176.630, 139.729 176.374 C 128.356 175.888, 126 176.511, 126 180 C 126 183.057, 128.380 183.926, 138.104 184.420 C 149.187 184.982, 151 185.515, 151 188.214 C 151 189.627, 151.464 190.036, 152.582 189.607 C 153.452 189.273, 154.476 189, 154.859 189 C 156.089 189, 161.425 183.602, 164 179.752 C 165.375 177.696, 167.063 176.011, 167.750 176.007 C 169.267 175.999, 169.444 170.392, 167.956 169.473 C 167.382 169.118, 166.277 169.355, 165.500 170 C 164.723 170.645, 163.618 170.882, 163.044 170.527 C 161.484 169.563, 161.785 164.358, 163.500 162.643 C 165.113 161.030, 165.577 156, 164.114 156 C 163.626 156, 162.933 154.036, 162.573 151.635 C 162.213 149.234, 161.276 146.422, 160.491 145.385 C 159.706 144.348, 159.049 142.146, 159.032 140.491 C 159.013 138.697, 158.270 137.025, 157.192 136.352 C 155.422 135.246, 152.660 127.198, 151.496 119.750 C 150.974 116.415, 150.589 116, 148.014 116 C 146.421 116, 144.857 116.422, 144.539 116.937 M 74 127 C 74 127.550, 74.900 128, 76 128 C 77.100 128, 78 127.550, 78 127 C 78 126.450, 77.100 126, 76 126 C 74.900 126, 74 126.450, 74 127 M 178 128.895 C 178 129.387, 176.883 130.850, 175.517 132.145 C 172.753 134.767, 172.191 138, 174.500 138 C 175.424 138, 176 138.938, 176 140.441 C 176 141.784, 176.408 143.134, 176.906 143.442 C 177.404 143.750, 177.601 144.810, 177.343 145.797 C 177.085 146.784, 178.477 152.384, 180.437 158.242 C 182.397 164.100, 184.003 169.704, 184.006 170.696 C 184.010 171.688, 184.685 173.789, 185.506 175.364 C 186.328 176.940, 187 179.501, 187 181.055 C 187 182.610, 187.428 184.147, 187.951 184.470 C 189.562 185.466, 201.395 181.116, 204.232 178.486 C 205.706 177.119, 207.382 176, 207.956 176 C 208.530 176, 209 175.638, 209 175.195 C 209 174.753, 210.464 172.792, 212.254 170.839 C 215.491 167.304, 215.508 167.230, 215.774 155.676 C 216.237 135.538, 212.971 132.111, 193.115 131.899 C 186.611 131.829, 184.823 131.462, 183.416 129.907 C 181.654 127.960, 178 127.278, 178 128.895 M 147.384 132.442 C 146.477 134.805, 147.403 137.454, 149.261 137.812 C 150.651 138.079, 151 137.429, 151 134.573 C 151 132.031, 150.558 131, 149.469 131 C 148.626 131, 147.688 131.649, 147.384 132.442 M 42.057 139.893 C 41.147 141.593, 41.214 142, 42.406 142 C 44.387 142, 45.473 140.073, 44.206 138.806 C 43.512 138.112, 42.824 138.460, 42.057 139.893 M 62 139.871 C 62 140.416, 60.987 141.005, 59.750 141.180 C 57.648 141.479, 57.451 142.156, 56.749 151.500 C 55.346 170.188, 52.285 193.940, 50.984 196.236 C 49.309 199.193, 49.865 200.662, 53.750 203.552 C 55.813 205.085, 61.464 210.347, 66.309 215.244 C 73.541 222.553, 75.376 223.933, 76.559 222.951 C 77.359 222.287, 78 220.036, 78 217.893 C 78 215.768, 79.173 210.086, 80.607 205.265 C 82.041 200.444, 83.594 193.350, 84.057 189.500 C 85.432 178.069, 88.219 141.886, 87.760 141.427 C 87.526 141.193, 82.132 140.832, 75.773 140.625 C 69.413 140.418, 63.713 139.941, 63.105 139.565 C 62.497 139.189, 62 139.327, 62 139.871 M 185.640 141.503 C 184.728 142.415, 184.119 143.462, 184.288 143.831 C 187.914 151.754, 191 162.764, 191 167.778 C 191 172.539, 191.895 172.923, 196.068 169.951 C 203.833 164.422, 206.876 160.806, 207.941 155.840 C 210.498 143.915, 208.642 141.555, 195.899 140.534 C 188.610 139.950, 187.045 140.098, 185.640 141.503 M 90.158 171 C 90.158 172.375, 90.385 172.938, 90.662 172.250 C 90.940 171.563, 90.940 170.438, 90.662 169.750 C 90.385 169.063, 90.158 169.625, 90.158 171 M 139.923 207.144 C 139.169 208.552, 138.728 217.051, 138.638 231.894 C 138.513 252.440, 138.670 254.751, 140.365 257.250 C 141.391 258.762, 143.078 260, 144.115 260 C 145.152 260, 146.016 259.887, 146.035 259.750 C 146.055 259.613, 146.334 247.834, 146.657 233.575 C 147.205 209.313, 147.127 207.566, 145.430 206.325 C 142.852 204.440, 141.242 204.679, 139.923 207.144 M 164.565 210.691 C 163.320 213.935, 166.073 226.599, 168.619 229.345 C 169.929 230.757, 171.032 232.495, 171.070 233.206 C 171.109 233.918, 171.531 233.600, 172.007 232.500 C 172.575 231.189, 172.681 232.107, 172.313 235.164 C 171.830 239.178, 172.048 240.013, 173.876 241.155 C 175.044 241.884, 176 243.498, 176 244.741 C 176 245.983, 176.450 247, 177 247 C 177.550 247, 178 247.900, 178 249 C 178 250.100, 178.645 251, 179.433 251 C 180.221 251, 181.149 251.893, 181.495 252.984 C 182.459 256.020, 190.323 262, 193.353 262 C 196.838 262, 197.017 258.420, 193.610 256.868 C 192.295 256.269, 190.644 254.704, 189.941 253.390 C 189.238 252.075, 188.288 251, 187.831 251 C 187.374 251, 187 250.100, 187 249 C 187 247.900, 186.662 247, 186.250 247 C 184.679 246.999, 176 226.998, 176 223.378 C 176 222.070, 175.100 220.100, 174 219 C 172.900 217.900, 172 216.070, 172 214.934 C 172 211.555, 170.094 209, 167.572 209 C 166.275 209, 164.922 209.761, 164.565 210.691 M 200.697 209.750 C 198.950 212.864, 199.073 217.142, 201.120 224.446 C 202.362 228.876, 203.893 233.175, 204.524 234 C 205.155 234.825, 206.263 236.997, 206.988 238.826 C 208.338 242.233, 213.423 248, 215.077 248 C 215.585 248, 216.004 248.563, 216.008 249.250 C 216.012 249.938, 217.025 250.992, 218.258 251.593 C 219.491 252.194, 221.971 253.544, 223.769 254.593 C 226.628 256.261, 227.159 256.312, 228.004 255 C 229.451 252.752, 229.212 251.868, 227 251.290 C 225.900 251.002, 225 250.479, 225 250.127 C 225 249.775, 222.993 247.240, 220.541 244.493 C 215.611 238.974, 210.563 227.082, 209.506 218.500 C 208.351 209.113, 208.292 209, 204.540 209 C 202.658 209, 200.929 209.338, 200.697 209.750 M 251.120 220.896 C 248.934 222.792, 248.230 226, 250 226 C 250.550 226, 251.033 227.688, 251.073 229.750 C 251.113 231.813, 251.988 234.850, 253.016 236.500 C 254.045 238.150, 256.149 241.971, 257.693 244.990 C 259.237 248.010, 261.326 251.385, 262.335 252.490 C 263.344 253.596, 264.818 255.738, 265.611 257.250 C 266.403 258.762, 267.490 260, 268.026 260 C 268.562 260, 269 260.605, 269 261.345 C 269 263.155, 272.257 266, 274.329 266 C 276.720 266, 276.552 260.303, 274.098 258.160 C 273.052 257.247, 271.269 253.733, 270.135 250.352 C 269.001 246.971, 267.155 242.696, 266.032 240.852 C 264.909 239.008, 263.325 236.068, 262.511 234.318 C 261.696 232.568, 260.573 230.854, 260.015 230.509 C 259.457 230.164, 259 228.754, 259 227.375 C 259 221.542, 254.572 217.902, 251.120 220.896" stroke="none" fill="black" fill-rule="evenodd"/>
</svg>