<svg xmlns="http://www.w3.org/2000/svg" width="300" height="300" viewBox="0 0 300 300" version="1.1">
	<path d="M 111.733 21.742 C 109.577 24.125, 109.549 25.381, 111.615 27.095 C 112.996 28.242, 113.488 28.115, 115.025 26.218 C 117.238 23.484, 118 23.419, 118 25.961 C 118 28.181, 123.043 29.964, 129 29.850 C 130.925 29.813, 139.433 29.837, 147.906 29.902 C 156.380 29.967, 163.521 29.812, 163.776 29.557 C 164.031 29.302, 163.969 28.014, 163.638 26.695 C 163.090 24.509, 162.347 24.230, 155.268 23.552 C 150.996 23.143, 144.125 22.381, 140 21.860 C 135.875 21.339, 128.217 20.668, 122.983 20.370 C 114.472 19.885, 113.283 20.030, 111.733 21.742 M 127.269 26.693 C 128.242 26.947, 129.592 26.930, 130.269 26.656 C 130.946 26.382, 130.150 26.175, 128.500 26.195 C 126.850 26.215, 126.296 26.439, 127.269 26.693 M 196.750 56.728 C 193.522 57.066, 193 57.468, 193 59.619 C 193 61.031, 192.565 61.849, 192 61.500 C 191.450 61.160, 191 60.009, 191 58.941 C 191 57.396, 190.298 57, 187.559 57 C 185.666 57, 183.840 57.450, 183.500 58 C 182.638 59.395, 173 59.289, 173 57.885 C 173 57.114, 171.225 56.982, 167.250 57.459 C 158.408 58.519, 156.925 59.066, 155.952 61.627 C 155.375 63.143, 154.246 64, 152.825 64 C 151.094 64, 150.867 63.733, 151.800 62.800 C 153.867 60.733, 153.135 60, 149 60 C 146.800 60, 145 60.477, 145 61.059 C 145 61.641, 145.450 61.840, 146 61.500 C 146.550 61.160, 147 61.394, 147 62.020 C 147 62.797, 145.966 62.913, 143.750 62.386 C 141.963 61.961, 139.600 61.663, 138.500 61.724 C 133.421 62.007, 115.018 64.871, 113.920 65.549 C 112.133 66.654, 77.115 67.164, 75.237 66.113 C 73.236 64.993, 68.134 66.641, 65.656 69.208 C 63.861 71.067, 63.885 71.227, 66.535 75.233 C 69.893 80.306, 73.262 94.196, 76.034 114.385 C 77.090 122.078, 78.188 124, 81.528 124 C 83.758 124, 83.800 123.810, 83.347 115.750 C 83.092 111.213, 82.242 103, 81.458 97.500 C 78.958 79.970, 78.553 73.315, 80.074 74.750 C 81.704 76.287, 97.936 76.456, 103.007 74.989 C 104.928 74.433, 110.518 73.731, 115.429 73.428 C 120.340 73.126, 125.220 72.417, 126.273 71.854 C 127.326 71.290, 130.508 70.623, 133.344 70.371 C 136.180 70.119, 140.075 69.484, 142 68.962 C 143.925 68.439, 147.188 68.009, 149.250 68.006 C 152.254 68.001, 153 68.374, 153 69.878 C 153 70.910, 152.255 72.373, 151.345 73.128 C 149.079 75.006, 147.356 79.501, 146.524 85.701 C 145.886 90.453, 145.552 90.980, 142.663 91.803 C 140.923 92.298, 135 92.797, 129.500 92.912 C 118.924 93.131, 114.586 94.610, 115.197 97.785 C 115.671 100.245, 124.811 103.407, 127.675 102.102 C 131.884 100.184, 140.117 99.574, 141.088 101.108 C 142.193 102.852, 142.266 106.722, 141.202 107.167 C 140.763 107.350, 139.125 111.100, 137.561 115.500 C 135.997 119.900, 134.331 123.927, 133.859 124.450 C 133.387 124.973, 133 126.349, 133 127.509 C 133 128.669, 132.339 130.491, 131.532 131.559 C 130.724 132.626, 130.049 135.386, 130.032 137.691 C 130.002 141.642, 128.076 144.729, 127.228 142.185 C 126.705 140.615, 123 142.567, 123 144.413 C 123 145.151, 122.325 146.315, 121.500 147 C 120.675 147.685, 120 148.960, 120 149.835 C 120 150.709, 118.763 152.444, 117.250 153.689 C 115.045 155.504, 114.776 156.135, 115.896 156.875 C 116.663 157.383, 117.015 158.519, 116.677 159.399 C 115.961 161.266, 114 161.557, 114 159.797 C 114 159.135, 112.200 160.352, 110 162.500 C 105.569 166.827, 104.587 171, 108 171 C 110.048 171, 110.316 171.647, 110.071 176 C 109.993 177.375, 111.471 180.826, 113.354 183.668 C 115.237 186.511, 117.946 191.236, 119.375 194.168 C 122.658 200.907, 124.305 203, 126.325 203 C 129.608 203, 130.251 199.339, 128.053 193.150 C 126.924 189.969, 126 186.672, 126 185.823 C 126 184.975, 124.916 183.466, 123.592 182.472 C 118.511 178.656, 115.109 166.677, 119.596 168.399 C 121.547 169.147, 131.926 166.270, 134.079 164.383 C 134.947 163.623, 137.069 163, 138.795 163 C 140.520 163, 143.410 162.378, 145.216 161.618 C 153.083 158.308, 158.967 156.990, 165.867 156.995 L 173.233 157 172.536 159.750 C 172.153 161.262, 171.594 164.300, 171.296 166.500 C 170.666 171.133, 166.283 176, 162.741 176 C 161.336 176, 159.810 177.054, 158.758 178.750 C 157.820 180.262, 157.041 180.938, 157.027 180.250 C 156.994 178.700, 153.305 178.584, 152.794 180.117 C 152.545 180.865, 148.397 181.206, 140.251 181.149 C 128.954 181.069, 124.127 182.015, 129.141 183.327 C 130.590 183.706, 131.064 184.391, 130.640 185.496 C 130.186 186.680, 131.007 187.523, 133.720 188.656 C 138.448 190.632, 145.524 189.782, 152.104 186.447 C 157.021 183.956, 161.442 183.288, 162.430 184.887 C 162.731 185.374, 162.308 186.329, 161.489 187.009 C 159.634 188.549, 159.523 193, 161.339 193 C 162.076 193, 163.181 191.899, 163.794 190.553 C 164.407 189.207, 166.167 187.295, 167.704 186.305 C 172.066 183.495, 174.984 180.282, 176.527 176.590 C 177.306 174.725, 178.519 172.592, 179.222 171.850 C 180.612 170.382, 182.363 166.172, 184.673 158.750 C 185.485 156.137, 186.553 154, 187.045 154 C 188.996 154, 201.483 162.120, 204 165.026 C 204.275 165.343, 206.750 166.438, 209.500 167.460 C 212.250 168.481, 214.725 169.594, 215 169.934 C 215.939 171.093, 230.805 174.289, 232.405 173.675 C 236.734 172.014, 231.641 164.808, 224.833 162.962 C 222.816 162.415, 219.891 161.303, 218.333 160.490 C 216.775 159.677, 214.938 159.010, 214.250 159.006 C 213.563 159.003, 213 158.550, 213 158 C 213 157.450, 212.393 157, 211.650 157 C 210.908 157, 208.545 155.732, 206.400 154.182 C 204.255 152.633, 199.426 149.648, 195.668 147.550 C 191.910 145.453, 188.616 143.162, 188.347 142.461 C 187.782 140.990, 191.742 134.393, 194.870 131.595 C 196.042 130.547, 197 129.240, 197 128.689 C 197 126.844, 202.001 121.109, 204.765 119.784 C 207.854 118.303, 208.487 114.717, 205.752 114.191 C 204.790 114.005, 203.295 114.562, 202.430 115.427 C 200.280 117.577, 198.338 117.401, 197.710 115 C 197.409 113.847, 196.346 113, 195.202 113 C 193.147 113, 190.970 117.136, 189.542 123.750 C 189.157 125.538, 188.484 127, 188.048 127 C 187.612 127, 186.984 128.688, 186.652 130.750 C 186.321 132.813, 185.338 135.512, 184.468 136.750 C 182.859 139.039, 181 139.750, 181 138.077 C 181 137.569, 179.762 135.872, 178.250 134.305 C 176.738 132.739, 172.125 127.651, 168 123 C 156.449 109.976, 155.374 109, 152.577 109 C 149.533 109, 149.235 107.104, 151.638 103.035 C 153.184 100.418, 153.765 100.234, 161.932 99.768 C 171.885 99.201, 175.211 97.708, 174.786 94 C 174.536 91.811, 174.065 91.529, 171 91.734 C 167.649 91.958, 164.428 91.926, 159 91.614 C 156.744 91.484, 156.517 91.082, 156.674 87.485 C 156.770 85.293, 157.957 79.675, 159.311 75 L 161.773 66.500 176.637 65.813 C 184.811 65.436, 196.225 64.986, 202 64.813 L 212.500 64.500 212.395 69 C 212.217 76.686, 209.928 92.352, 208.523 95.500 C 204.957 103.491, 203.832 106.918, 204.446 107.913 C 205.503 109.623, 208.996 109.182, 209.702 107.250 C 210.053 106.287, 211.365 104.257, 212.617 102.737 C 214.773 100.119, 216.258 95.962, 220.971 79.345 C 223.548 70.256, 223.668 61.886, 221.250 59.801 C 217.957 56.961, 207.302 55.625, 196.750 56.728 M 164 61.500 C 164 62.325, 164.450 63, 165 63 C 165.550 63, 166 62.325, 166 61.500 C 166 60.675, 165.550 60, 165 60 C 164.450 60, 164 60.675, 164 61.500 M 181.813 60.683 C 182.534 60.972, 183.397 60.936, 183.729 60.604 C 184.061 60.272, 183.471 60.036, 182.417 60.079 C 181.252 60.127, 181.015 60.364, 181.813 60.683 M 134.063 64.424 C 133.399 65.225, 131.875 66.071, 130.677 66.304 C 129.392 66.554, 130.012 66.783, 132.191 66.864 C 134.221 66.939, 136.183 66.514, 136.550 65.919 C 136.918 65.324, 138.267 65.101, 139.548 65.423 C 140.829 65.744, 142.157 65.556, 142.498 65.004 C 142.839 64.452, 142.529 63.963, 141.809 63.918 C 141.089 63.873, 139.324 63.640, 137.886 63.402 C 136.350 63.147, 134.773 63.569, 134.063 64.424 M 119 67.035 C 119 68.397, 120.490 68.933, 121.882 68.073 C 122.821 67.493, 122.604 67.130, 121.085 66.732 C 119.938 66.433, 119 66.569, 119 67.035 M 155.543 93.931 C 155.226 94.443, 155.425 95.144, 155.984 95.490 C 156.543 95.835, 157 95.416, 157 94.559 C 157 92.802, 156.400 92.544, 155.543 93.931 M 146.250 116.250 C 142.788 123.408, 140 130.035, 140 131.109 C 140 131.788, 139.383 133.053, 138.630 133.921 C 137.876 134.790, 136.072 137.661, 134.620 140.302 C 133.169 142.943, 131.541 145.643, 131.004 146.302 C 126.867 151.370, 123 157.268, 123 158.509 C 123 160.424, 124.967 160.412, 127.726 158.479 C 129.771 157.047, 136.264 155.271, 142.112 154.543 C 143.548 154.365, 145.656 153.719, 146.796 153.109 C 147.936 152.499, 149.997 152, 151.375 152 C 152.754 152, 154.186 151.508, 154.558 150.906 C 154.930 150.304, 156.918 149.973, 158.977 150.169 C 161.280 150.389, 163.215 149.996, 164.007 149.147 C 164.913 148.178, 166.599 147.947, 169.684 148.370 C 174.990 149.097, 176.759 146.843, 173.167 143.934 C 171.975 142.969, 170.979 141.577, 170.954 140.840 C 170.928 140.103, 169.147 138.150, 166.995 136.500 C 164.843 134.850, 162.820 132.748, 162.499 131.829 C 162.178 130.909, 159.476 127.424, 156.495 124.083 C 153.514 120.742, 150.592 117.106, 150.002 116.004 C 148.611 113.405, 147.594 113.472, 146.250 116.250 M 103.345 121.829 C 104.255 122.835, 105 124.597, 105 125.745 C 105 130.257, 116.056 139, 121.762 139 C 123.937 139, 124.140 138.686, 123.543 136.250 C 122.132 130.488, 109.132 120, 103.400 120 C 101.807 120, 101.803 120.125, 103.345 121.829 M 168.500 135 C 168.840 135.550, 169.541 136, 170.059 136 C 170.577 136, 171 135.550, 171 135 C 171 134.450, 170.298 134, 169.441 134 C 168.584 134, 168.160 134.450, 168.500 135 M 184 147.845 C 184 149.046, 187.008 151.403, 190.379 152.844 C 193.746 154.283, 194.275 154.077, 192.668 151.953 C 190.038 148.475, 184 145.614, 184 147.845 M 207.500 163 C 207.160 163.550, 207.610 164, 208.500 164 C 209.390 164, 209.840 163.550, 209.500 163 C 209.160 162.450, 208.710 162, 208.500 162 C 208.290 162, 207.840 162.450, 207.500 163 M 218.500 167 C 218.840 167.550, 219.793 168, 220.618 168 C 221.443 168, 221.840 167.550, 221.500 167 C 221.160 166.450, 220.207 166, 219.382 166 C 218.557 166, 218.160 166.450, 218.500 167 M 103.150 171.750 C 103.067 172.438, 102.338 173, 101.529 173 C 100.720 173, 97.908 175.192, 95.279 177.872 C 92.651 180.551, 89.462 183.065, 88.193 183.457 C 86.143 184.091, 85.239 187.659, 87.250 187.179 C 87.662 187.080, 89.090 187, 90.423 187 C 91.782 187, 94.164 185.683, 95.846 184 C 97.496 182.350, 99.218 180.986, 99.673 180.969 C 101.481 180.900, 104.114 175.856, 103.714 173.227 C 103.486 171.727, 103.232 171.063, 103.150 171.750 M 78.250 187.319 C 77.013 189.136, 76 191.383, 76 192.312 C 76 194.550, 79.507 194.509, 81.193 192.250 C 81.912 191.287, 83.400 190.345, 84.500 190.155 C 87.342 189.665, 87.725 189, 85.167 189 C 83.522 189, 83 188.397, 83 186.500 C 83 183.031, 80.925 183.389, 78.250 187.319 M 162.500 197.084 C 158.709 198.593, 157.066 198.815, 155.705 198.001 C 154.302 197.161, 153.213 197.415, 150.705 199.165 C 148.942 200.396, 147.275 201.711, 147 202.086 C 146.725 202.461, 143.125 202.941, 139 203.152 C 132.830 203.469, 131.012 203.965, 128.750 205.949 C 127.237 207.275, 126 208.966, 126 209.705 C 126 213.092, 136.839 213.845, 143.736 210.936 C 145.890 210.028, 147.306 209.906, 147.970 210.570 C 149.835 212.435, 152.438 267.895, 150.741 269.593 C 150.516 269.818, 148.120 269.472, 145.416 268.824 C 140.536 267.654, 126.564 267.457, 122.250 268.496 C 120.678 268.875, 120 269.775, 120 271.484 C 120 275.287, 123.135 276.337, 132.416 275.645 C 136.862 275.313, 142.075 275.392, 144 275.820 C 147.110 276.512, 147.500 276.955, 147.500 279.805 C 147.500 282.251, 148.201 283.474, 150.454 284.959 C 153.471 286.949, 156 286.298, 156 283.531 C 156 282.858, 156.787 280.776, 157.750 278.904 C 159.303 275.883, 159.475 272.577, 159.277 249.500 C 159.154 235.200, 158.685 220.570, 158.234 216.989 C 157.311 209.649, 157.855 206.005, 160.023 205.013 C 160.835 204.641, 162.999 203.586, 164.831 202.669 C 166.663 201.751, 168.774 201, 169.522 201 C 171.424 201, 172.242 199.339, 171.497 196.991 C 170.714 194.523, 168.885 194.542, 162.500 197.084 M 174.514 230.977 C 173.266 232.997, 176.056 240.068, 178.551 241.205 C 179.898 241.819, 181 242.678, 181 243.114 C 181 243.550, 182.912 244.846, 185.250 245.994 C 187.588 247.142, 191.750 249.382, 194.500 250.972 C 208.684 259.175, 214 260.885, 214 257.247 C 214 254.565, 204.306 246.251, 195.965 241.778 C 189.121 238.108, 182.692 233.931, 180.711 231.865 C 178.787 229.859, 175.497 229.388, 174.514 230.977 M 108.853 237.721 C 107.947 237.934, 106.978 238.978, 106.699 240.042 C 106.421 241.105, 105.025 242.420, 103.597 242.963 C 102.169 243.506, 101 244.459, 101 245.080 C 101 247.072, 95.938 256.414, 93.428 259.055 C 92.093 260.460, 90.989 262.260, 90.976 263.055 C 90.963 263.850, 89.111 265.850, 86.859 267.500 C 81.502 271.426, 77.607 276.533, 78.398 278.594 C 78.795 279.630, 79.630 279.972, 80.731 279.550 C 83.044 278.662, 90.930 272.680, 90.969 271.783 C 90.986 271.389, 92.463 269.543, 94.250 267.681 C 101.126 260.518, 102.909 258.212, 103.552 255.650 C 103.918 254.192, 104.618 253, 105.108 253 C 105.599 253, 106 252.427, 106 251.727 C 106 251.027, 107.598 248.028, 109.550 245.063 C 112.416 240.713, 112.850 239.447, 111.800 238.504 C 111.085 237.861, 109.759 237.509, 108.853 237.721" stroke="none" fill="black" fill-rule="evenodd"/>
</svg>