<svg xmlns="http://www.w3.org/2000/svg" width="300" height="300" viewBox="0 0 300 300" version="1.1">
	<path d="M 187.655 14.829 C 186.745 15.835, 186 17.115, 186 17.674 C 186 18.233, 185.171 19.441, 184.157 20.358 C 183.143 21.275, 181.066 24.383, 179.541 27.263 C 175.665 34.581, 173.223 38.648, 167.750 46.900 C 165.137 50.840, 163 54.258, 163 54.496 C 163 55.158, 157.678 63.373, 156.173 65.035 C 153.046 68.486, 148.201 76.560, 148.853 77.231 C 149.243 77.633, 150.898 78.220, 152.531 78.535 C 156.910 79.378, 162.508 74.477, 163.378 69.037 C 163.733 66.817, 164.468 65, 165.012 65 C 165.555 65, 166 64.311, 166 63.469 C 166 62.626, 166.658 61.685, 167.462 61.376 C 168.266 61.068, 169.228 59.844, 169.599 58.658 C 169.970 57.471, 171.337 55.228, 172.637 53.673 C 173.937 52.119, 175 50.445, 175 49.955 C 175 49.464, 176.731 46.461, 178.846 43.281 C 180.962 40.102, 184.675 34.144, 187.096 30.043 C 189.518 25.941, 192.045 21.666, 192.711 20.543 C 194.990 16.697, 195.213 15.998, 194.638 14.500 C 193.841 12.423, 189.654 12.620, 187.655 14.829 M 194.403 51.494 C 186.558 58.518, 187.005 58.027, 179.627 67.728 C 177.082 71.074, 175 74.215, 175 74.709 C 175 75.202, 173.275 77.382, 171.166 79.553 C 169.057 81.724, 164.862 86.875, 161.842 91 C 158.822 95.125, 154.922 99.928, 153.176 101.673 C 151.171 103.676, 150 105.845, 150 107.554 L 150 110.262 160.250 109.744 C 165.964 109.456, 172.466 108.502, 174.941 107.590 C 178.737 106.192, 179.585 106.156, 180.775 107.347 C 181.965 108.537, 181.737 109.231, 179.202 112.120 C 177.570 113.979, 175.395 116.875, 174.368 118.555 C 168.083 128.833, 165.871 132.061, 160.250 139.154 C 156.813 143.492, 154 147.265, 154 147.537 C 154 148.036, 145.964 159.466, 144.033 161.712 C 143.460 162.379, 142.466 164.079, 141.823 165.490 C 140.367 168.685, 141.650 170.234, 145.650 170.112 C 147.217 170.065, 150.207 170.032, 152.294 170.040 C 156.576 170.057, 162.965 167.480, 170.435 162.724 C 173.221 160.951, 176.699 158.825, 178.164 158 C 188.258 152.316, 199.085 142.436, 202.363 135.919 C 204.204 132.257, 205.443 132.660, 208.939 138.056 C 210.757 140.861, 212.864 143.394, 213.622 143.685 C 214.380 143.976, 215 144.793, 215 145.500 C 215 146.207, 215.675 147.045, 216.500 147.362 C 217.325 147.678, 218 148.791, 218 149.834 C 218 150.877, 218.978 152.973, 220.173 154.492 C 223.919 159.256, 225.785 163.842, 226.507 170.062 C 227.099 175.165, 227.425 175.892, 228.657 174.870 C 231.999 172.096, 232.123 170.220, 229.487 162.367 C 228.073 158.155, 226.035 153.589, 224.958 152.220 C 223.881 150.851, 222.986 149.003, 222.968 148.115 C 222.951 147.227, 222.276 145.626, 221.468 144.559 C 220.661 143.491, 220 141.821, 220 140.848 C 220 139.874, 219.188 138.273, 218.196 137.289 C 216.504 135.612, 214.913 130.437, 213.428 121.786 C 212.538 116.597, 210.602 115.182, 207.174 117.213 C 205.703 118.084, 203.600 120.362, 202.500 122.273 C 198.096 129.927, 192.635 137.119, 189.163 139.839 C 180.674 146.488, 170.522 153.245, 164.118 156.509 C 155.870 160.712, 153.212 161.104, 155.987 157.708 C 156.530 157.044, 159.005 154.052, 161.487 151.060 C 163.969 148.068, 166 145.287, 166 144.881 C 166 144.475, 166.568 143.548, 167.263 142.821 C 167.958 142.095, 169.293 140.375, 170.230 139 C 171.168 137.625, 173.299 134.572, 174.967 132.215 C 176.635 129.858, 178 127.318, 178 126.572 C 178 125.825, 178.675 124.955, 179.500 124.638 C 180.325 124.322, 181.018 123.261, 181.041 122.281 C 181.063 121.302, 182.413 118.942, 184.041 117.038 C 185.668 115.134, 187 112.826, 187 111.910 C 187 110.994, 187.673 109.686, 188.495 109.004 C 190.946 106.970, 192.544 100.360, 191.026 98.532 C 189.518 96.714, 184.749 96.529, 181.685 98.169 C 178.648 99.794, 166.668 101.981, 165.722 101.083 C 165.295 100.677, 166.294 98.580, 167.942 96.422 C 171.448 91.835, 175.085 87.237, 176.500 85.601 C 178.249 83.581, 182 78.101, 182 77.566 C 182 77.283, 184.925 73.428, 188.500 69 C 192.075 64.572, 195 60.361, 195 59.642 C 195 58.923, 196.688 57.246, 198.750 55.915 C 203.443 52.887, 204.659 48, 200.720 48 C 199.374 48, 196.580 49.546, 194.403 51.494 M 77.428 79.328 C 77.091 80.206, 75.957 81.196, 74.908 81.529 C 72.654 82.244, 72.331 85, 74.500 85 C 75.325 85, 76 84.550, 76 84 C 76 82.463, 77.667 82.810, 79.607 84.750 C 80.953 86.096, 83.107 86.514, 88.928 86.559 C 96.004 86.615, 96.522 86.767, 96.828 88.877 C 97.205 91.467, 93.939 98.976, 91.586 100.929 C 90.714 101.653, 89.986 102.977, 89.968 103.872 C 89.951 104.768, 89.323 106.309, 88.572 107.299 C 86.845 109.577, 79.026 118.624, 75.614 122.292 C 74.185 123.828, 72.738 126.194, 72.398 127.549 C 71.565 130.869, 72.713 136.517, 74.526 138.022 C 75.337 138.695, 76 140.283, 76 141.551 C 76 142.819, 76.563 144.452, 77.250 145.179 C 77.938 145.905, 79.377 149.136, 80.449 152.358 C 81.521 155.580, 82.984 158.440, 83.699 158.715 C 84.415 158.989, 85.007 159.728, 85.015 160.357 C 85.045 162.555, 86.673 164.063, 88.330 163.427 C 90.708 162.514, 90.410 158.381, 87.621 153.588 C 86.313 151.340, 84.908 147.925, 84.499 146 C 84.090 144.075, 82.930 140.868, 81.921 138.874 C 79.722 134.528, 80.333 128.434, 83.144 126.678 C 84.165 126.040, 85 125.007, 85 124.382 C 85 123.757, 85.637 122.716, 86.416 122.070 C 88.273 120.529, 97.001 107.623, 96.996 106.427 C 96.993 105.917, 98.643 102.240, 100.663 98.255 C 104.287 91.104, 106.314 80.930, 104.355 79.719 C 103.876 79.423, 97.759 78.855, 90.762 78.456 C 79.606 77.821, 77.965 77.928, 77.428 79.328 M 81.500 84 C 81.160 84.550, 81.610 85, 82.500 85 C 83.390 85, 83.840 84.550, 83.500 84 C 83.160 83.450, 82.710 83, 82.500 83 C 82.290 83, 81.840 83.450, 81.500 84 M 174.683 123.650 C 174.308 124.026, 174 125.255, 174 126.381 C 174 128.311, 174.098 128.331, 175.707 126.721 C 176.872 125.557, 177.089 124.689, 176.390 123.990 C 175.827 123.427, 175.059 123.274, 174.683 123.650 M 127.139 140.033 C 125.841 141.115, 124.106 142, 123.284 142 C 122.461 142, 120.501 143.012, 118.927 144.250 C 117.353 145.488, 114.261 147.850, 112.057 149.500 C 109.852 151.150, 106.615 153.730, 104.862 155.234 C 103.109 156.738, 100.848 158.231, 99.838 158.552 C 98.827 158.872, 98 159.501, 98 159.948 C 98 160.396, 95.485 162.034, 92.410 163.590 C 89.336 165.145, 86.292 167.111, 85.645 167.959 C 84.999 168.806, 83.768 169.950, 82.911 170.500 C 74.982 175.586, 62.130 184.731, 61 186.090 C 60.465 186.733, 57.663 188.261, 49.180 192.532 C 43.802 195.241, 41.239 198.575, 42.337 201.436 C 42.667 202.296, 43.803 203, 44.862 203 C 45.920 203, 47.075 203.753, 47.428 204.673 C 47.989 206.134, 48.272 206.057, 49.673 204.057 C 50.555 202.798, 53.576 200.727, 56.388 199.456 C 59.200 198.184, 62.793 195.999, 64.372 194.600 C 65.952 193.202, 68.090 191.789, 69.122 191.461 C 70.155 191.133, 71 190.451, 71 189.945 C 71 189.117, 76.030 185.395, 81.278 182.340 C 84.871 180.249, 86.508 176.123, 83 178 C 81.900 178.589, 81 178.674, 81 178.190 C 81 176.753, 84.524 174, 86.364 174 C 87.745 174, 87.872 174.371, 87.029 175.947 C 86.221 177.456, 86.352 178.097, 87.612 178.803 C 89.045 179.605, 89.177 181.713, 88.729 196.606 C 88.003 220.696, 85.114 229.018, 74.269 238.250 C 68.951 242.777, 66.268 242.953, 62.417 239.028 C 59.094 235.642, 58 235.296, 58 237.632 C 58 240.352, 61.899 245.774, 65.418 247.950 C 68.924 250.116, 73 250.681, 73 249 C 73 248.450, 73.498 248, 74.106 248 C 77.276 248, 85.791 238.864, 90.065 230.878 C 94.926 221.796, 98.112 188.772, 95.119 178.500 C 93.969 174.554, 94.006 174.453, 97.865 170.963 C 100.016 169.018, 104.272 165.643, 107.322 163.463 C 117.880 155.918, 134 141.617, 134 139.796 C 134 137.362, 130.187 137.494, 127.139 140.033 M 159 164 C 157.775 166.290, 157.933 166.356, 161.435 165.025 C 164.465 163.873, 164.837 162, 162.035 162 C 160.955 162, 159.589 162.900, 159 164 M 176 163.966 C 174.846 164.726, 174.500 167.089, 174.500 174.227 L 174.500 183.500 171.743 183.601 C 168.327 183.726, 166.135 185.670, 161.290 192.869 C 159.205 195.966, 157.272 198.725, 156.994 199 C 156.506 199.482, 154.438 202.278, 145.954 213.931 C 143.779 216.917, 142 219.900, 142 220.558 C 142 221.216, 141.298 222.338, 140.440 223.050 C 138.720 224.477, 135 231.678, 135 233.581 C 135 235.464, 137.932 236.133, 142.917 235.385 C 147.759 234.659, 153 231.502, 153 229.312 C 153 227.506, 150.347 227.654, 149.638 229.500 C 149.312 230.350, 147.822 231, 146.198 231 C 142.382 231, 141.504 229.932, 144.210 228.583 C 145.419 227.980, 147.923 225.465, 149.774 222.993 C 151.625 220.522, 156.700 214.675, 161.052 210 C 165.403 205.325, 170.312 199.363, 171.960 196.750 C 175.468 191.188, 176.994 190.735, 177.016 195.250 C 177.025 197.037, 177.925 205.475, 179.016 214 C 180.970 229.266, 181.782 258.884, 180.288 260.378 C 179.897 260.770, 178.775 260.057, 177.796 258.795 C 176.277 256.838, 175.869 256.721, 175.023 258 C 172.666 261.563, 174.198 267.769, 178.569 272.364 C 180.933 274.850, 181.412 275.015, 182.196 273.614 C 183.335 271.579, 185.413 271.482, 184.638 273.500 C 183.819 275.635, 186.722 275.407, 187.822 273.250 C 189.589 269.786, 187.534 210.138, 185.108 194.500 C 184.256 189.007, 183.858 185.096, 183.887 182.500 C 183.912 180.269, 184.901 167.364, 185.190 165.500 C 185.451 163.815, 184.870 163.459, 181.500 163.239 C 179.300 163.096, 176.825 163.423, 176 163.966 M 178.446 171.087 C 178.077 171.685, 178.275 172.675, 178.887 173.287 C 179.704 174.104, 180 173.815, 180 172.200 C 180 169.785, 179.481 169.413, 178.446 171.087 M 168.459 191.067 C 168.096 191.653, 168.040 192.373, 168.333 192.667 C 169.050 193.383, 171 192.121, 171 190.941 C 171 189.663, 169.274 189.748, 168.459 191.067 M 55.015 194.954 C 53.648 196.004, 52.763 197.097, 53.048 197.382 C 53.815 198.149, 58.276 195.700, 58.754 194.250 C 59.342 192.468, 57.896 192.740, 55.015 194.954 M 199.750 197.579 C 197.566 199.777, 201.977 205.509, 207.663 207.862 C 209.572 208.652, 211.066 210.128, 211.432 211.585 C 211.818 213.122, 212.759 214, 214.019 214 C 215.109 214, 216 214.511, 216 215.135 C 216 216.322, 220.310 220.759, 223.148 222.493 C 229.271 226.235, 230.802 227.602, 232.843 231.149 C 234.682 234.344, 235.411 234.904, 236.524 233.980 C 237.909 232.830, 240.415 233.520, 239.606 234.828 C 239.372 235.208, 241.052 236.411, 243.340 237.502 C 245.628 238.593, 248.095 240.051, 248.821 240.743 C 250.615 242.450, 252.937 242.327, 253.643 240.487 C 254.482 238.302, 252.406 236.260, 246.310 233.275 C 243.359 231.831, 238.145 228.198, 234.723 225.203 C 231.300 222.207, 227.313 219.014, 225.862 218.107 C 224.411 217.200, 221.202 213.992, 218.732 210.979 C 216.261 207.965, 213.174 204.556, 211.870 203.402 C 210.567 202.248, 209.050 200.545, 208.500 199.617 C 207.433 197.817, 201.002 196.319, 199.750 197.579 M 183.195 236.500 C 183.215 238.150, 183.439 238.704, 183.693 237.731 C 183.947 236.758, 183.930 235.408, 183.656 234.731 C 183.382 234.054, 183.175 234.850, 183.195 236.500 M 186.079 256.583 C 186.127 257.748, 186.364 257.985, 186.683 257.188 C 186.972 256.466, 186.936 255.603, 186.604 255.271 C 186.272 254.939, 186.036 255.529, 186.079 256.583" stroke="none" fill="black" fill-rule="evenodd"/>
</svg>