<svg xmlns="http://www.w3.org/2000/svg" width="300" height="300" viewBox="0 0 300 300" version="1.1">
	<path d="M 133.544 19.242 C 131.930 23.103, 130.387 24.620, 127.534 25.150 C 125.649 25.499, 125.548 26.667, 125.077 53.507 C 124.319 96.688, 124.502 109.695, 125.891 111.368 C 126.558 112.173, 127.194 114.738, 127.302 117.069 L 127.500 121.307 116.500 121.621 C 110.450 121.794, 102.432 122.446, 98.681 123.070 C 94.931 123.693, 87.956 124.271, 83.181 124.352 L 74.500 124.500 74.430 107 C 74.354 88.183, 73.301 74.304, 71.881 73.427 C 71.397 73.127, 70.993 71.671, 70.985 70.191 C 70.962 66.257, 69.655 64.796, 66.492 65.170 C 62.515 65.640, 61.076 68.322, 63.415 70.906 C 64.666 72.289, 65.069 73.813, 64.687 75.715 C 64.379 77.247, 64.590 83, 65.156 88.500 C 65.721 94, 66.255 106.101, 66.342 115.391 C 66.489 131.158, 66.633 132.356, 68.500 133.391 C 69.600 134.001, 70.795 134.907, 71.155 135.406 C 71.986 136.554, 87.354 135.416, 89.978 134.012 C 91.057 133.434, 96.791 132.791, 102.720 132.581 C 108.649 132.371, 114.855 131.767, 116.512 131.238 C 118.168 130.709, 121.093 130.455, 123.012 130.673 C 130.260 131.497, 138 133.307, 138 134.178 C 138 134.676, 137.092 136.058, 135.982 137.250 C 134.129 139.238, 134.018 140.255, 134.625 149.642 C 135.222 158.870, 135.062 160.435, 132.987 165.684 C 131.723 168.883, 130.344 171.892, 129.924 172.370 C 129.166 173.233, 123.625 173.503, 88.075 174.404 C 77.940 174.661, 68.603 175.134, 67.325 175.455 C 64.511 176.161, 64.353 179.142, 66.899 183.500 C 68.906 186.937, 71.808 187.684, 76.946 186.085 C 79.379 185.328, 84.127 185.247, 92 185.828 C 100.259 186.437, 104.627 186.339, 107.500 185.478 C 112.614 183.946, 122.873 183.649, 124.484 184.986 C 125.454 185.792, 125.211 187.573, 123.361 193.222 C 122.062 197.186, 121 201.200, 121 202.141 C 121 203.083, 119.257 207.374, 117.127 211.677 C 114.997 215.979, 112.273 221.604, 111.074 224.176 C 109.874 226.748, 107.342 230.884, 105.446 233.366 C 103.551 235.849, 101.992 238.245, 101.983 238.690 C 101.973 239.136, 100.819 240.588, 99.417 241.918 C 96.816 244.386, 92.431 252, 93.611 252 C 93.969 252, 91.768 254.475, 88.718 257.500 C 83.348 262.827, 80.785 264.079, 79.500 262 C 78.359 260.153, 77 260.977, 77 263.516 C 77 265.404, 77.868 266.446, 80.478 267.691 C 83.722 269.238, 84.081 269.237, 85.807 267.675 C 86.825 266.754, 88.072 265.989, 88.579 265.975 C 89.085 265.961, 91.727 262.924, 94.450 259.225 C 97.172 255.526, 99.879 252.050, 100.465 251.500 C 101.051 250.950, 103.036 248.572, 104.876 246.217 C 106.716 243.861, 109.859 240.224, 111.860 238.135 C 116.572 233.218, 127.502 211.387, 130.702 200.500 C 133.430 191.220, 137.141 183.993, 139.394 183.573 C 140.552 183.358, 148.800 182.684, 157.721 182.077 C 166.643 181.469, 175.076 180.541, 176.461 180.015 C 177.845 179.489, 186.746 178.932, 196.239 178.779 L 213.500 178.500 213.556 185.032 C 213.587 188.625, 214.009 192.205, 214.492 192.987 C 214.976 193.770, 215.281 203.880, 215.171 215.455 C 214.981 235.458, 214.811 237.144, 211.747 249.500 C 209.974 256.650, 208.180 262.650, 207.762 262.833 C 207.343 263.017, 207 264.225, 207 265.518 C 207 270.042, 202.838 277, 200.133 277 C 199.510 277, 199 277.505, 199 278.122 C 199 278.903, 198.619 278.931, 197.750 278.215 C 197.063 277.648, 193.575 276.964, 190 276.695 C 182.068 276.098, 171.840 274.096, 170.550 272.889 C 169.179 271.606, 162.245 271.794, 161.415 273.137 C 161.023 273.771, 161.771 275.099, 163.106 276.138 C 166.786 279.002, 175.601 283, 178.238 283 C 179.537 283, 181.109 283.509, 181.732 284.132 C 182.559 284.959, 185.372 284.991, 192.182 284.251 C 197.307 283.694, 202.825 283.227, 204.445 283.213 C 206.158 283.198, 207.921 282.416, 208.661 281.344 C 209.360 280.330, 210.305 279.050, 210.762 278.500 C 212.938 275.879, 216.099 267.773, 217.400 261.477 C 218.193 257.640, 219.733 250.675, 220.822 246 C 223.363 235.096, 225.482 199.878, 224.522 184.515 C 223.827 173.388, 223.765 173.164, 220.466 169.967 C 217.473 167.066, 216.709 166.794, 213.308 167.419 C 211.213 167.803, 203.875 168.354, 197 168.641 C 190.125 168.929, 179.325 169.829, 173 170.641 C 166.675 171.453, 156.834 172.326, 151.132 172.582 L 140.764 173.047 141.477 167.339 C 141.869 164.199, 142.597 160.559, 143.095 159.250 C 143.593 157.941, 144 152.250, 144 146.604 C 144 136.642, 143.925 136.298, 141.467 134.982 L 138.934 133.627 141.717 132.452 C 143.248 131.806, 144.950 131.615, 145.500 132.028 C 147.342 133.410, 162.358 134.207, 165.307 133.080 C 166.851 132.489, 167.857 132.422, 167.543 132.931 C 166.016 135.401, 183.187 136.522, 189.376 134.356 C 191.507 133.610, 195.409 133, 198.046 133 L 202.841 133 203.553 139.750 C 203.945 143.463, 204.728 146.796, 205.292 147.157 C 206.989 148.244, 209 146.923, 209 144.721 C 209 143.586, 210.172 139.728, 211.604 136.148 C 214.500 128.909, 215.087 123.290, 213.076 122.047 C 212.044 121.409, 211.901 119.046, 212.430 111.364 C 212.802 105.939, 213.159 99.925, 213.221 98 C 213.578 87.015, 215.194 75.137, 216.723 72.259 C 218.333 69.229, 218.336 68.908, 216.773 67.344 C 214.663 65.234, 212.270 66.874, 211.809 70.746 C 211.352 74.586, 209 74.868, 209 71.083 C 209 69.388, 208.518 68, 207.929 68 C 204.913 68, 204.259 70.920, 203.553 87.542 C 202.971 101.236, 203.129 105.778, 204.375 111.137 C 206.812 121.616, 203.823 125.069, 192.429 124.935 C 190.268 124.909, 182.048 124.899, 174.163 124.912 C 165.036 124.927, 157.586 124.408, 153.663 123.483 C 150.273 122.684, 144.714 122.023, 141.309 122.015 C 137.904 122.007, 134.838 121.547, 134.496 120.994 C 134.154 120.441, 134.422 118.474, 135.091 116.624 C 136.032 114.024, 136.055 110.078, 135.193 99.243 C 134.358 88.732, 134.369 83.668, 135.238 78.995 C 136.268 73.455, 136.209 72.626, 134.698 71.521 C 132.863 70.180, 132.445 66.983, 133.904 65.450 C 134.402 64.927, 135.072 56.492, 135.394 46.704 C 135.716 36.916, 136.459 28.011, 137.045 26.916 C 138.435 24.319, 137.863 16.775, 136.236 16.240 C 135.527 16.006, 134.345 17.325, 133.544 19.242 M 127.667 41.667 C 126.833 42.500, 126.787 52.282, 127.607 54.418 C 128.992 58.028, 130 55.535, 130 48.500 C 130 41.603, 129.422 39.911, 127.667 41.667 M 68.195 91.500 C 68.215 93.150, 68.439 93.704, 68.693 92.731 C 68.947 91.758, 68.930 90.408, 68.656 89.731 C 68.382 89.054, 68.175 89.850, 68.195 91.500 M 206.015 96.250 C 206.007 97.763, 206.450 99, 207 99 C 208.264 99, 208.264 96.957, 207 95 C 206.245 93.831, 206.027 94.107, 206.015 96.250 M 68.079 122.583 C 68.127 123.748, 68.364 123.985, 68.683 123.188 C 68.972 122.466, 68.936 121.603, 68.604 121.271 C 68.272 120.939, 68.036 121.529, 68.079 122.583 M 146 129 C 144.900 129.711, 145.566 129.955, 148.500 129.914 C 151.643 129.871, 152.071 129.675, 150.500 129 C 147.869 127.869, 147.750 127.869, 146 129 M 83.166 129.876 C 82.054 130.581, 82.054 130.804, 83.166 131.214 C 84.859 131.838, 87 131.113, 87 129.917 C 87 128.775, 84.938 128.753, 83.166 129.876 M 71.667 130.667 C 70.307 132.026, 71.072 133, 73.500 133 C 75.056 133, 76 132.433, 76 131.500 C 76 130, 72.925 129.409, 71.667 130.667 M 158.813 130.683 C 159.534 130.972, 160.397 130.936, 160.729 130.604 C 161.061 130.272, 160.471 130.036, 159.417 130.079 C 158.252 130.127, 158.015 130.364, 158.813 130.683 M 198.813 172.683 C 199.534 172.972, 200.397 172.936, 200.729 172.604 C 201.061 172.272, 200.471 172.036, 199.417 172.079 C 198.252 172.127, 198.015 172.364, 198.813 172.683 M 158.813 175.683 C 159.534 175.972, 160.397 175.936, 160.729 175.604 C 161.061 175.272, 160.471 175.036, 159.417 175.079 C 158.252 175.127, 158.015 175.364, 158.813 175.683 M 143.750 178.662 C 144.438 178.940, 145.563 178.940, 146.250 178.662 C 146.938 178.385, 146.375 178.158, 145 178.158 C 143.625 178.158, 143.063 178.385, 143.750 178.662 M 158.813 178.683 C 159.534 178.972, 160.397 178.936, 160.729 178.604 C 161.061 178.272, 160.471 178.036, 159.417 178.079 C 158.252 178.127, 158.015 178.364, 158.813 178.683 M 97.052 179.947 C 95.919 180.663, 96.201 181.012, 98.349 181.551 C 101.345 182.303, 102.571 181.733, 101.541 180.067 C 100.738 178.767, 98.991 178.720, 97.052 179.947 M 110.773 180.161 C 110.010 180.646, 111.201 180.976, 113.750 180.985 C 116.088 180.993, 118 180.826, 118 180.613 C 118 179.778, 111.972 179.401, 110.773 180.161 M 81 181 C 81 182.194, 83.721 182.194, 86.500 181 C 88.104 180.311, 87.758 180.127, 84.750 180.070 C 82.688 180.032, 81 180.450, 81 181 M 74.813 181.683 C 75.534 181.972, 76.397 181.936, 76.729 181.604 C 77.061 181.272, 76.471 181.036, 75.417 181.079 C 74.252 181.127, 74.015 181.364, 74.813 181.683 M 126 194.500 C 125.293 195.352, 124.940 196.273, 125.215 196.548 C 125.490 196.823, 126.293 196.352, 127 195.500 C 127.707 194.648, 128.060 193.727, 127.785 193.452 C 127.510 193.177, 126.707 193.648, 126 194.500 M 217.232 222 C 217.232 223.925, 217.438 224.713, 217.689 223.750 C 217.941 222.787, 217.941 221.213, 217.689 220.250 C 217.438 219.287, 217.232 220.075, 217.232 222 M 106.149 237.667 C 105.406 238.472, 105.005 239.338, 105.257 239.590 C 105.509 239.842, 106.293 239.352, 107 238.500 C 108.669 236.489, 107.916 235.751, 106.149 237.667 M 102.079 242.583 C 102.127 243.748, 102.364 243.985, 102.683 243.188 C 102.972 242.466, 102.936 241.603, 102.604 241.271 C 102.272 240.939, 102.036 241.529, 102.079 242.583 M 208.250 268.720 C 207.563 268.966, 207 269.901, 207 270.798 C 207 272.282, 207.152 272.277, 208.690 270.738 C 210.498 268.930, 210.293 267.991, 208.250 268.720 M 190.269 280.693 C 191.242 280.947, 192.592 280.930, 193.269 280.656 C 193.946 280.382, 193.150 280.175, 191.500 280.195 C 189.850 280.215, 189.296 280.439, 190.269 280.693 M 196.500 281 C 199.263 282.187, 201 282.187, 201 281 C 201 280.450, 199.537 280.032, 197.750 280.070 C 195.026 280.129, 194.824 280.280, 196.500 281" stroke="none" fill="black" fill-rule="evenodd"/>
</svg>