<svg xmlns="http://www.w3.org/2000/svg" width="300" height="300" viewBox="0 0 300 300" version="1.1">
	<path d="M 134.518 16.250 C 132.697 21.674, 131.583 61.663, 132.909 74 C 133.601 80.438, 133.603 86.680, 132.917 93.368 C 132.031 101.996, 132.108 103.461, 133.525 105.028 C 136.186 107.968, 139.786 108.314, 144.137 106.046 C 146.295 104.921, 148.681 104, 149.437 104 C 150.731 104, 154.179 99.831, 161.753 89.106 C 165.162 84.279, 173.605 76, 175.118 76 C 175.603 76, 176 75.484, 176 74.853 C 176 73.614, 180.589 67.786, 186.352 61.707 C 188.329 59.621, 190.634 56.933, 191.473 55.734 C 193.183 53.294, 193.543 48, 192 48 C 190.427 48, 189.662 47.822, 187.185 46.880 C 184.556 45.881, 181 47.318, 181 49.380 C 181 50.100, 179.876 51.996, 178.501 53.594 C 177.127 55.193, 176.002 57.032, 176.001 57.683 C 176.001 58.333, 175.213 59.139, 174.250 59.473 C 172.669 60.022, 163.075 71.767, 162.099 74.347 C 161.496 75.941, 159.854 77.892, 156.250 81.297 C 154.463 82.986, 153 84.960, 153 85.684 C 153 86.408, 152.550 87, 152 87 C 151.450 87, 151 87.675, 151 88.500 C 151 89.325, 150.594 90, 150.099 90 C 149.603 90, 148.253 91.601, 147.098 93.559 C 143.439 99.759, 143.281 98.694, 144.123 73.500 C 144.178 71.850, 143.688 65.325, 143.034 59 C 140.974 39.075, 140.764 33.809, 141.943 31.599 C 143.132 29.368, 143.481 26.481, 143.183 21.323 C 143.040 18.848, 142.304 17.799, 139.846 16.573 C 136.037 14.673, 135.067 14.614, 134.518 16.250 M 75.088 55.932 C 73.889 56.684, 73.917 57.060, 75.272 58.415 C 76.150 59.293, 77.147 60.888, 77.487 61.958 C 77.826 63.029, 79.656 65.456, 81.552 67.352 C 83.449 69.249, 85 71.807, 85 73.037 C 85 74.487, 87.580 77.837, 92.336 82.562 C 96.371 86.571, 100.483 91.122, 101.474 92.676 C 104.013 96.654, 113.265 105.987, 114.677 105.994 C 116.143 106.001, 120 101.207, 120 99.379 C 120 98.635, 118.478 97.391, 116.618 96.614 C 113.739 95.411, 113.039 94.432, 111.911 90.030 C 110.535 84.660, 108.378 81.877, 102.483 77.863 C 100.575 76.563, 99.011 75.120, 99.007 74.655 C 98.997 73.467, 90.804 65, 89.663 65 C 89.147 65, 86.874 63.013, 84.612 60.584 C 80.238 55.887, 77.382 54.492, 75.088 55.932 M 137.079 79.583 C 137.127 80.748, 137.364 80.985, 137.683 80.188 C 137.972 79.466, 137.936 78.603, 137.604 78.271 C 137.272 77.939, 137.036 78.529, 137.079 79.583 M 98.787 84 C 99.029 85.650, 99.626 87, 100.113 87 C 101.148 87, 101.194 86.325, 100.370 83.250 C 99.482 79.939, 98.275 80.511, 98.787 84 M 220.500 106.046 C 217.750 106.474, 212.350 106.871, 208.500 106.927 C 202.149 107.020, 194.091 108.925, 191.508 110.945 C 189.661 112.389, 171.754 113.273, 148.325 113.077 C 133.294 112.951, 123.637 113.290, 120.846 114.041 C 118.480 114.679, 112.483 115.356, 107.521 115.545 C 102.560 115.735, 96.700 116.571, 94.500 117.401 C 92.300 118.232, 89.358 118.932, 87.961 118.956 C 86.565 118.980, 83.658 119.900, 81.500 121 C 79.342 122.100, 76.345 123, 74.838 123 C 73.332 123, 71.740 123.563, 71.300 124.250 C 70.860 124.938, 69.600 125.995, 68.500 126.601 C 67.400 127.206, 66.359 128.878, 66.187 130.316 C 65.933 132.434, 66.381 133.057, 68.544 133.600 C 70.205 134.017, 71.494 133.819, 71.953 133.075 C 72.360 132.418, 75.349 131.678, 78.596 131.432 C 81.843 131.185, 85.850 130.681, 87.500 130.312 C 91.363 129.448, 95.445 129.078, 106.341 128.603 C 111.203 128.392, 115.680 127.720, 116.291 127.109 C 117.049 126.351, 126.039 126, 144.700 126 C 162.233 126, 172 125.642, 172 125 C 172 124.443, 174.771 123.986, 178.250 123.968 C 182.153 123.948, 185.229 123.385, 186.441 122.468 C 187.509 121.661, 190.231 121, 192.491 121 C 194.751 121, 197.027 120.592, 197.550 120.094 C 200.744 117.048, 235.856 114.069, 236.756 116.768 C 236.982 117.446, 238.003 118, 239.024 118 C 240.046 118, 241.167 118.461, 241.515 119.024 C 242.526 120.660, 240.974 126, 239.488 126 C 237.725 126, 237.173 128.171, 237.072 135.500 C 237.026 138.800, 236.512 144.200, 235.928 147.500 C 235.344 150.800, 234.672 171.238, 234.434 192.917 C 234.196 214.597, 233.554 233.947, 233.006 235.917 C 232.459 237.888, 232.002 241.075, 231.992 243 C 231.952 250.181, 231.303 250.999, 225.633 251.007 C 215.717 251.021, 207 252.227, 207 253.586 C 207 255.757, 209.120 256.414, 218.500 257.150 C 229.755 258.033, 233.622 258.840, 235.090 260.609 C 235.725 261.374, 237.246 262, 238.471 262 C 242.613 262, 243.928 256.457, 243.826 239.416 C 243.766 229.426, 244.177 223.009, 245.044 220.416 C 245.977 217.622, 246.450 207.477, 246.693 185 C 247.156 142.354, 247.501 129.103, 248.426 118.500 C 249.160 110.091, 249.071 109.352, 247.067 107.250 C 245.110 105.197, 244.073 105.012, 235.211 105.134 C 229.870 105.207, 223.250 105.618, 220.500 106.046 M 33.969 114.059 C 33.363 115.191, 33.158 117.441, 33.513 119.059 C 34.011 121.326, 34.714 122, 36.579 122 C 38.614 122, 39 121.511, 39 118.934 C 39 115.566, 37.457 112, 36 112 C 35.489 112, 34.575 112.926, 33.969 114.059 M 136.638 120.500 C 136.322 121.325, 136.499 122, 137.031 122 C 137.564 122, 138 121.325, 138 120.500 C 138 119.675, 137.823 119, 137.607 119 C 137.391 119, 136.955 119.675, 136.638 120.500 M 39.761 124.471 C 39.490 125.888, 39.658 127.289, 40.134 127.583 C 40.610 127.877, 41.007 129.779, 41.015 131.809 C 41.023 133.839, 41.679 137.300, 42.471 139.500 C 43.264 141.700, 43.932 145.442, 43.956 147.816 C 43.980 150.189, 44.497 153.059, 45.104 154.194 C 45.711 155.328, 46.565 158.561, 47.002 161.378 C 47.439 164.195, 48.562 170.100, 49.496 174.500 C 50.883 181.037, 51.136 186.796, 50.874 206 C 50.266 250.748, 50.608 253.545, 56.595 252.817 C 61.170 252.260, 62.122 247.380, 62.408 223 C 62.573 208.976, 63.102 200.176, 63.928 197.691 C 64.837 194.954, 64.906 193.125, 64.169 191.191 C 63.606 189.711, 62.847 186.250, 62.484 183.500 C 62.120 180.750, 61.188 176.043, 60.411 173.040 C 59.635 170.037, 59 165.451, 59 162.849 C 59 160.247, 58.609 157.877, 58.132 157.581 C 57.389 157.122, 56.547 152.941, 55.498 144.500 C 55.362 143.400, 54.756 141.150, 54.153 139.500 C 53.550 137.850, 52.818 135.292, 52.526 133.817 C 52.234 132.341, 51.123 130.856, 50.057 130.518 C 48.991 130.180, 47.304 128.237, 46.309 126.201 C 44.045 121.568, 40.495 120.630, 39.761 124.471 M 81.500 127 C 81.160 127.550, 81.809 128, 82.941 128 C 84.073 128, 85 127.550, 85 127 C 85 126.450, 84.352 126, 83.559 126 C 82.766 126, 81.840 126.450, 81.500 127 M 239.015 154.250 C 239.024 154.938, 239.467 156.175, 240 157 C 240.755 158.169, 240.973 157.893, 240.985 155.750 C 240.993 154.238, 240.550 153, 240 153 C 239.450 153, 239.007 153.563, 239.015 154.250 M 160.832 164.202 C 159 164.588, 151.095 165.219, 143.266 165.603 C 129.384 166.285, 128.990 166.366, 127.333 168.901 C 126.398 170.330, 125.021 172.115, 124.272 172.866 C 122.418 174.727, 123.201 176.515, 125.833 176.429 C 138.453 176.013, 137.989 176.114, 137.738 173.815 C 137.438 171.062, 142.164 169.433, 147.532 170.440 C 150.940 171.079, 151.072 171.231, 149.353 172.533 C 148.334 173.305, 145.861 173.951, 143.857 173.968 C 141.660 173.987, 139.998 174.562, 139.670 175.417 C 138.851 177.551, 141.158 177.969, 148.165 176.956 C 151.649 176.452, 157.847 176.031, 161.938 176.020 C 168.027 176.004, 169.976 176.408, 172.681 178.250 C 175.639 180.264, 175.987 180.999, 175.993 185.250 C 175.997 187.863, 175.630 190, 175.178 190 C 174.160 190, 169.398 197.172, 168.467 200.105 C 168.090 201.291, 166.616 203.571, 165.191 205.170 C 163.765 206.770, 161.666 209.749, 160.524 211.789 C 158.976 214.559, 157.696 215.586, 155.475 215.838 C 153.839 216.025, 152.050 216.532, 151.500 216.965 C 150.950 217.399, 147.800 218.077, 144.500 218.473 C 141.200 218.869, 137.915 219.673, 137.200 220.260 C 135.478 221.674, 133.110 219.335, 132.422 215.541 C 132.140 213.990, 131.255 211.154, 130.455 209.238 C 128.774 205.216, 128.549 200.397, 130 199.500 C 131.679 198.462, 131.117 194.078, 128.925 191.113 C 127.784 189.570, 126.600 186.438, 126.294 184.154 C 125.816 180.594, 125.394 180, 123.344 180 C 119.431 180, 118.702 183.690, 119.397 200 C 119.736 207.975, 120.573 217.200, 121.257 220.500 L 122.500 226.500 126 226.303 C 127.925 226.195, 131.194 225.808, 133.264 225.442 C 135.334 225.077, 137.584 225.208, 138.264 225.735 C 139.687 226.836, 163.530 226.677, 169.500 225.527 C 173.513 224.754, 179.860 221.523, 181.235 219.553 C 182.624 217.562, 182.026 213.084, 180.242 212.130 C 178.968 211.448, 177.838 211.713, 176.132 213.095 C 174.837 214.143, 173.378 215, 172.889 215 C 171.290 215, 171.956 211.145, 173.786 209.807 C 174.769 209.088, 176.191 206.588, 176.946 204.250 C 177.702 201.912, 178.654 200, 179.063 200 C 179.471 200, 181.424 197.561, 183.403 194.581 C 186.523 189.880, 187 188.371, 187 183.208 C 187 176.497, 184.429 169.582, 180.547 165.854 C 178.452 163.842, 177.084 163.500, 171.130 163.500 C 167.299 163.500, 162.665 163.816, 160.832 164.202 M 112.159 171.109 C 110.989 172.989, 111.085 173.623, 112.909 176.091 C 114.059 177.646, 115 179.387, 115 179.960 C 115 180.532, 115.502 181, 116.117 181 C 116.768 181, 117.034 179.959, 116.755 178.500 C 116.492 177.125, 116.665 176, 117.139 176 C 117.612 176, 118.014 176.563, 118.030 177.250 C 118.047 177.938, 118.548 177.662, 119.142 176.639 C 119.989 175.182, 119.796 174.203, 118.256 172.139 C 115.719 168.737, 113.833 168.419, 112.159 171.109 M 168 170.583 C 168 172.349, 170.153 172.042, 170.771 170.188 C 170.989 169.534, 170.454 169, 169.583 169 C 168.713 169, 168 169.713, 168 170.583" stroke="none" fill="black" fill-rule="evenodd"/>
</svg>