<svg xmlns="http://www.w3.org/2000/svg" width="300" height="300" viewBox="0 0 300 300" version="1.1">
	<path d="M 137.090 16.726 C 135.066 18.365, 134.811 19.628, 134.408 30.018 C 134.162 36.333, 133.659 42.400, 133.288 43.500 C 132.918 44.600, 132.696 53.239, 132.795 62.699 C 132.922 74.851, 132.635 80.108, 131.814 80.615 C 130.769 81.261, 125.915 81.245, 101 80.512 C 93.559 80.293, 93.501 80.271, 93.688 77.646 C 93.913 74.492, 92.876 74.360, 84.661 76.500 C 81.494 77.325, 75.361 78, 71.033 78 C 62.404 78, 60 78.547, 60 80.508 C 60 81.220, 58.399 82.747, 56.441 83.902 C 52.574 86.184, 52.643 88.379, 56.552 87.398 C 58.357 86.944, 59.158 87.265, 59.668 88.644 C 60.045 89.665, 60.837 90.827, 61.427 91.227 C 62.017 91.626, 74.875 91.655, 90 91.291 C 105.125 90.927, 120.425 90.600, 124 90.565 L 130.500 90.500 130.331 95.500 C 130.070 103.184, 128.256 119.871, 127.014 126 C 125.699 132.491, 125.328 134.595, 123.406 146.500 C 122.607 151.450, 121.326 157.525, 120.560 160 C 119.793 162.475, 118.886 166.174, 118.543 168.221 C 118.201 170.267, 116.910 173.192, 115.676 174.721 C 114.441 176.249, 112.257 180.425, 110.823 184 C 105.127 198.191, 98.650 207.093, 86.196 217.847 C 72.954 229.283, 70.830 231.652, 71.176 234.604 C 71.420 236.689, 72.215 237.558, 74.412 238.141 C 76.913 238.805, 77.830 238.420, 80.912 235.414 C 83.132 233.249, 85.176 232.088, 86.273 232.369 C 87.537 232.694, 88.432 231.902, 89.387 229.616 C 90.678 226.527, 93.843 223.328, 99.041 219.859 C 102.151 217.784, 100.885 216.276, 97.375 217.875 C 95.927 218.535, 94.510 218.844, 94.228 218.561 C 93.945 218.278, 94.566 217.723, 95.607 217.327 C 97.627 216.558, 100.260 213.595, 103.500 208.445 C 110.306 197.624, 115.243 190.887, 117.403 189.472 C 118.883 188.502, 119.654 187.261, 119.318 186.387 C 118.476 184.193, 121.701 176.621, 124.521 174.169 C 127.011 172.004, 127.389 171.032, 127.043 167.695 C 126.940 166.702, 127.790 164.098, 128.931 161.908 C 131.386 157.197, 132.680 152.403, 134.484 141.328 C 135.217 136.834, 136.115 132.213, 136.481 131.059 C 136.847 129.906, 137.830 123.683, 138.666 117.231 C 139.502 110.779, 140.422 103.700, 140.710 101.500 C 140.999 99.300, 141.857 97.140, 142.618 96.700 C 143.378 96.260, 144 94.573, 144 92.950 C 144 91.328, 144.338 89.977, 144.750 89.950 C 145.162 89.922, 147.975 89.717, 151 89.494 C 154.025 89.272, 167.300 88.360, 180.500 87.469 C 204.775 85.829, 210.104 84.777, 211.414 81.364 C 212.501 78.530, 211.082 75.839, 208.871 76.541 C 207.789 76.884, 206.270 76.639, 205.496 75.997 C 204.721 75.354, 203.583 75.139, 202.967 75.520 C 201.023 76.722, 189.184 78.058, 168 79.467 C 156.725 80.217, 146.488 81.146, 145.250 81.532 L 143 82.233 142.957 60.867 C 142.875 20.065, 142.674 15.564, 140.913 15.223 C 140.040 15.054, 138.319 15.731, 137.090 16.726 M 137.195 50.500 C 137.215 52.150, 137.439 52.704, 137.693 51.731 C 137.947 50.758, 137.930 49.408, 137.656 48.731 C 137.382 48.054, 137.175 48.850, 137.195 50.500 M 109.157 75.604 C 109.627 78.084, 116 78.977, 116 76.563 C 116 75.689, 115.155 75, 114.082 75 C 113.027 75, 111.406 74.709, 110.480 74.354 C 109.212 73.867, 108.886 74.176, 109.157 75.604 M 146.551 105.344 C 143.762 109.001, 143.394 112.658, 145.079 119.969 C 147.103 128.754, 147.827 184.480, 146.113 199.500 C 143.260 224.486, 143.123 228.512, 144.933 234.065 C 147.058 240.585, 149.696 242.650, 153.987 241.154 C 155.656 240.573, 159.225 240.358, 161.919 240.677 C 164.613 240.996, 170.501 240.718, 175.004 240.060 C 182.384 238.981, 183.378 239.032, 185.095 240.586 C 186.900 242.219, 187.105 242.215, 188.984 240.515 C 190.606 239.047, 192.082 238.820, 197.078 239.273 C 202.799 239.792, 203.155 239.702, 202.672 237.853 C 202.357 236.651, 202.738 235.654, 203.645 235.306 C 205.512 234.590, 207.661 236.473, 206.087 237.446 C 203.868 238.818, 205.113 240, 208.777 240 C 210.855 240, 213.526 240.680, 214.712 241.511 C 216.077 242.467, 217.098 242.650, 217.493 242.011 C 217.837 241.455, 219.329 240.997, 220.809 240.994 C 222.289 240.990, 224.789 240.315, 226.364 239.494 C 229.878 237.661, 230 237.658, 230 239.408 C 230 240.497, 231.480 240.768, 236.521 240.604 C 242.925 240.395, 243.078 240.326, 245.004 236.732 C 246.838 233.310, 246.824 230, 244.975 230 C 244.529 230, 243.925 226.963, 243.634 223.250 C 243.342 219.537, 242.622 212.225, 242.035 207 C 241.447 201.775, 240.602 193.094, 240.157 187.709 C 239.578 180.711, 238.870 177.441, 237.674 176.245 C 236.205 174.776, 235.823 174.750, 234.549 176.036 C 233.426 177.169, 232.945 182.077, 232.426 197.738 C 231.843 215.290, 231.965 218.297, 233.340 220.396 C 234.721 222.504, 234.739 222.972, 233.476 224.020 C 232.678 224.682, 231.359 224.968, 230.545 224.656 C 228.143 223.734, 227.744 225.800, 229.957 227.696 C 235.271 232.245, 229.845 233.475, 222 229.500 C 216.334 226.629, 214.165 226.414, 211.441 228.453 C 209.914 229.596, 207.262 229.792, 199 229.371 C 193.225 229.077, 187.375 228.432, 186 227.937 C 184.625 227.443, 177.385 226.877, 169.912 226.679 C 162.439 226.480, 155.801 225.995, 155.162 225.600 C 153.125 224.341, 153.724 203.109, 156.149 190.592 C 158.250 179.749, 158.268 178.894, 156.957 152.500 C 156.220 137.650, 155.586 121.225, 155.549 116 C 155.477 105.832, 154.236 102, 151.016 102 C 149.963 102, 147.954 103.505, 146.551 105.344 M 134.252 109.500 C 134.263 111.700, 134.468 112.482, 134.707 111.238 C 134.946 109.994, 134.937 108.194, 134.687 107.238 C 134.437 106.282, 134.241 107.300, 134.252 109.500 M 148 117.941 C 148 119.073, 148.450 120, 149 120 C 149.550 120, 150 119.352, 150 118.559 C 150 117.766, 149.550 116.840, 149 116.500 C 148.450 116.160, 148 116.809, 148 117.941 M 150.079 129.583 C 150.127 130.748, 150.364 130.985, 150.683 130.188 C 150.972 129.466, 150.936 128.603, 150.604 128.271 C 150.272 127.939, 150.036 128.529, 150.079 129.583 M 130.079 136.583 C 130.127 137.748, 130.364 137.985, 130.683 137.188 C 130.972 136.466, 130.936 135.603, 130.604 135.271 C 130.272 134.939, 130.036 135.529, 130.079 136.583 M 84.155 227.335 C 82.887 228.685, 82.273 230.051, 82.791 230.371 C 83.985 231.109, 87.330 227.490, 86.833 225.998 C 86.622 225.365, 85.461 225.945, 84.155 227.335 M 277 232.893 C 277 233.384, 277.712 234.059, 278.582 234.393 C 280.817 235.251, 281 235.183, 281 233.500 C 281 232.667, 280.111 232, 279 232 C 277.900 232, 277 232.402, 277 232.893 M 284.015 246.250 C 284.007 248.313, 284.450 250, 285 250 C 286.274 250, 286.274 245.971, 285 244 C 284.279 242.884, 284.027 243.461, 284.015 246.250" stroke="none" fill="black" fill-rule="evenodd"/>
</svg>