<svg xmlns="http://www.w3.org/2000/svg" width="300" height="300" viewBox="0 0 300 300" version="1.1">
	<path d="M 147.750 17.068 C 145.670 18.166, 143.986 19.817, 143.968 20.774 C 143.951 21.723, 143.276 23.374, 142.468 24.441 C 141.661 25.509, 141 27.346, 141 28.524 C 141 29.703, 140.663 31.004, 140.251 31.416 C 139.839 31.828, 138.974 34.266, 138.330 36.833 C 135.374 48.607, 134.809 50.603, 133.994 52.136 C 133.516 53.036, 132.813 56.636, 132.432 60.136 C 132.051 63.636, 131.388 66.950, 130.959 67.500 C 130.530 68.050, 129.863 70.192, 129.476 72.259 C 128.962 75.012, 128.201 76.125, 126.637 76.414 C 114.993 78.568, 109.538 79.338, 100.751 80.065 C 95.113 80.532, 87.350 81.428, 83.500 82.056 C 79.650 82.684, 74.615 83.151, 72.312 83.094 C 70.009 83.037, 67.845 83.442, 67.503 83.995 C 67.161 84.548, 65.901 85, 64.701 85 C 61.822 85, 54.144 88.197, 53.593 89.626 C 52.941 91.314, 56.313 100, 57.620 100 C 58.244 100, 59.258 99.393, 59.874 98.652 C 60.809 97.525, 75.470 96.068, 88 95.857 C 88.825 95.844, 90.175 95.576, 91 95.263 C 91.825 94.950, 94.886 94.586, 97.803 94.454 C 101.143 94.303, 103.812 93.575, 105.013 92.488 C 106.445 91.192, 107.742 90.945, 110.211 91.496 C 112.020 91.900, 115.638 92.210, 118.250 92.185 C 122.511 92.144, 123 92.369, 123 94.370 C 123 95.596, 122.621 97.027, 122.158 97.550 C 121.695 98.072, 120.741 101.200, 120.038 104.500 C 119.334 107.800, 117.975 112.300, 117.016 114.500 C 116.058 116.700, 114.491 120.525, 113.534 123 C 110.838 129.971, 109.210 132.512, 107.537 132.361 C 106.390 132.257, 106 133.226, 106 136.178 C 106 138.857, 105.193 141.192, 103.498 143.413 C 101.005 146.682, 100.002 149.335, 95.524 164.500 C 92.500 174.739, 88.078 185.687, 85.422 189.509 C 84.279 191.154, 81.711 195.759, 79.716 199.742 C 75.655 207.850, 69.892 217, 68.845 217 C 68.468 217, 67.856 218.380, 67.485 220.067 C 66.700 223.641, 69.057 227, 72.350 227 C 74.443 227, 80 222.393, 80 220.657 C 80 220.125, 81.038 218.296, 82.307 216.594 C 83.576 214.892, 85.413 211.364, 86.388 208.754 C 87.364 206.144, 88.720 203.669, 89.402 203.254 C 90.085 202.839, 91.639 200.414, 92.856 197.864 C 94.073 195.313, 95.965 192.193, 97.061 190.929 C 98.158 189.665, 99.300 187.477, 99.601 186.066 C 99.902 184.655, 101.239 181.166, 102.574 178.313 C 103.908 175.460, 105 172.639, 105 172.044 C 105 170.933, 108.081 161.947, 111.973 151.708 C 113.184 148.522, 115.281 144.810, 116.633 143.458 C 119.021 141.069, 119.508 141, 133.845 141 C 143.400 141, 148.995 140.605, 149.720 139.880 C 150.490 139.110, 160.141 138.723, 180.670 138.640 C 206.608 138.535, 210.826 138.730, 213 140.139 C 214.649 141.208, 216.779 141.592, 219.259 141.269 C 223.254 140.748, 223.662 140.068, 224.223 133 L 224.500 129.500 218.500 129.280 C 215.200 129.159, 206.294 128.611, 198.708 128.061 C 182.260 126.870, 129.627 127.877, 127.113 129.430 C 126.625 129.732, 125.721 129.368, 125.102 128.623 C 124.243 127.587, 124.914 124.933, 127.948 117.370 C 130.132 111.926, 132.860 104.428, 134.009 100.707 C 136.736 91.876, 140.874 88.568, 150.477 87.539 C 154.053 87.156, 157.255 86.397, 157.592 85.851 C 157.934 85.298, 159.821 85.127, 161.853 85.465 C 163.859 85.798, 169.710 86.248, 174.855 86.464 C 182.654 86.793, 184.824 86.538, 187.900 84.935 C 193.325 82.108, 202.576 81.378, 207.408 83.397 C 210.920 84.865, 211.542 84.875, 213.639 83.501 C 217.728 80.821, 218.087 74, 214.138 74 C 213.080 74, 211.955 73.325, 211.638 72.500 C 210.846 70.435, 208.742 70.622, 206 73 C 203.519 75.152, 200.499 75.617, 199.500 74 C 198.443 72.290, 197 72.901, 197 75.059 C 197 76.256, 196.556 76.843, 195.939 76.463 C 194.722 75.710, 182.556 77.735, 179.365 79.221 C 178.099 79.810, 175.453 79.892, 172.865 79.421 C 170.464 78.985, 167.825 78.753, 167 78.907 C 166.175 79.060, 165.050 79.256, 164.500 79.343 C 163.950 79.429, 163.560 78.730, 163.632 77.789 C 163.888 74.487, 154.850 73.139, 147.500 75.384 C 146.400 75.719, 144.735 75.400, 143.800 74.674 C 142.234 73.457, 142.213 72.706, 143.534 65.141 C 144.323 60.624, 145.425 56.074, 145.984 55.030 C 146.543 53.986, 147 52.059, 147 50.747 C 147 46.429, 150.001 38, 151.539 38 C 152.342 38, 153.001 37.888, 153.001 37.750 C 153.010 36.155, 156.071 20.694, 156.523 19.963 C 156.856 19.424, 156.845 18.086, 156.497 16.991 C 155.693 14.459, 152.642 14.486, 147.750 17.068 M 73 90 C 73 90.550, 74.013 90.993, 75.250 90.985 C 77.069 90.972, 77.213 90.784, 76 90 C 74.061 88.747, 73 88.747, 73 90 M 191.534 142.945 C 191.175 143.525, 189.624 144, 188.087 144 C 183.900 144, 180.260 147.927, 179.626 153.129 C 177.356 171.741, 176.914 213.841, 178.864 225.500 C 180.627 236.034, 180.269 236.705, 172.443 237.543 C 168.392 237.977, 161.030 237.677, 153.192 236.760 C 140.670 235.294, 129.257 235.604, 119.500 237.677 C 112.430 239.179, 114.140 244.936, 122.727 248.536 C 125.137 249.546, 129.562 250.128, 134.972 250.146 C 139.740 250.162, 145.349 250.821, 147.798 251.653 C 151.687 252.973, 152.407 252.964, 154.541 251.565 C 157.542 249.599, 158.897 249.603, 162.882 251.591 C 165.585 252.939, 166.834 252.999, 171.063 251.985 C 173.983 251.284, 177.599 251.096, 179.777 251.531 C 181.825 251.940, 192.050 252.169, 202.500 252.041 C 212.950 251.912, 222.400 251.826, 223.500 251.848 C 233.872 252.063, 237.816 251.922, 243.224 251.145 C 246.676 250.649, 254.675 250.181, 261 250.105 C 270.473 249.991, 272.720 249.672, 273.747 248.296 C 274.751 246.951, 274.726 246.222, 273.619 244.562 C 272.341 242.648, 271.390 242.517, 260.371 242.734 C 253.842 242.862, 246.137 243.243, 243.250 243.580 C 238.972 244.080, 238 243.915, 238 242.689 C 238 241.603, 236.542 241.051, 232.750 240.702 C 229.863 240.436, 225.039 239.494, 222.032 238.609 C 218.258 237.498, 212.594 237, 203.749 237 L 190.933 237 191.152 229.750 C 191.273 225.762, 191.003 213.275, 190.553 202 C 189.473 174.983, 190.975 159.593, 195.718 149.071 C 196.795 146.681, 196.964 145.166, 196.275 144.071 C 195.061 142.143, 192.418 141.515, 191.534 142.945 M 144.565 242.895 C 144.260 243.388, 144.669 244.043, 145.474 244.352 C 147.036 244.951, 148.371 243.704, 147.306 242.639 C 146.402 241.735, 145.213 241.846, 144.565 242.895 M 222 246 C 222 246.550, 222.450 247, 223 247 C 223.550 247, 224 246.550, 224 246 C 224 245.450, 223.550 245, 223 245 C 222.450 245, 222 245.450, 222 246" stroke="none" fill="black" fill-rule="evenodd"/>
</svg>