<svg xmlns="http://www.w3.org/2000/svg" width="300" height="300" viewBox="0 0 300 300" version="1.1">
	<path d="M 182.485 60.796 C 180.635 62.119, 176.054 71.694, 174.599 77.280 C 173.800 80.348, 172.703 83.687, 172.160 84.701 C 171.618 85.714, 169.943 90.269, 168.438 94.822 C 166.507 100.665, 166.014 103.414, 166.764 104.164 C 168.254 105.654, 169.793 104.432, 171.464 100.432 C 172.253 98.544, 173.315 97, 173.826 97 C 174.336 97, 175.736 94.717, 176.936 91.927 C 178.748 87.716, 179.364 87.057, 180.562 88.051 C 182.553 89.704, 187.616 88.530, 191.600 85.492 C 193.397 84.121, 195.329 83, 195.894 83 C 196.460 83, 197.792 82.066, 198.856 80.925 C 200.167 79.517, 201.014 79.213, 201.489 79.982 C 202.645 81.853, 201.157 85.726, 199.071 86.271 C 197.688 86.633, 196.648 88.489, 195.500 92.641 C 194.610 95.863, 192.288 102.550, 190.341 107.500 C 188.394 112.450, 186.405 117.513, 185.922 118.750 C 184.828 121.550, 182.349 121.675, 181.492 118.973 C 180.686 116.436, 176.474 113.589, 174.934 114.541 C 173.307 115.546, 174.440 121.404, 176.939 124.914 C 178.072 126.506, 179 128.532, 179 129.415 C 179 131.110, 175.831 138.779, 173.387 143 C 170.139 148.609, 163 163.029, 163 163.980 C 163 168.136, 170.146 160.992, 174.983 152 C 176.315 149.525, 178.439 145.975, 179.702 144.110 C 180.966 142.246, 182 140.334, 182 139.860 C 182 137.640, 184.950 139.430, 188 143.500 C 189.854 145.975, 191.626 148, 191.936 148.001 C 192.246 148.001, 194.300 149.611, 196.500 151.578 C 202.240 156.711, 214.370 162.030, 216.188 160.212 C 217.759 158.641, 216.441 156.118, 213.457 154.984 C 210.674 153.926, 204.931 149.804, 201.525 146.421 C 200.374 145.277, 198.714 143.927, 197.836 143.421 C 196.958 142.914, 194.836 140.274, 193.120 137.554 C 189.700 132.133, 189.180 127.806, 191.412 123.331 C 196.078 113.971, 202 100.068, 202 98.472 C 202 97.772, 203.109 94.805, 204.464 91.880 C 206.887 86.650, 206.982 83.100, 204.774 80.291 C 204.095 79.427, 204.634 78.870, 206.662 78.338 C 208.223 77.929, 210.248 77.707, 211.161 77.845 C 213.414 78.185, 214.447 76.243, 212.964 74.456 C 211.002 72.092, 206.190 72.769, 198.433 76.500 C 194.431 78.425, 190.440 80, 189.565 80 C 188.689 80, 187.090 80.551, 186.011 81.225 C 184.604 82.104, 183.744 82.144, 182.968 81.368 C 182.191 80.591, 182.750 78.585, 184.943 74.269 C 186.624 70.960, 188 67.374, 188 66.301 C 188 63.939, 183.863 59.810, 182.485 60.796 M 127.881 69.750 C 127.293 71.263, 126.593 80.825, 126.326 91 C 125.965 104.743, 125.469 110.079, 124.397 111.750 C 122.428 114.821, 121.862 114.618, 119.151 109.872 C 115.604 103.662, 106.651 92.072, 105.372 92.034 C 104.752 92.015, 103.685 91.325, 103 90.500 C 101.376 88.543, 98.376 88.578, 97.614 90.563 C 96.832 92.601, 99.484 97.686, 101.739 98.472 C 102.708 98.809, 106.496 102.837, 110.158 107.422 L 116.817 115.759 113.949 117.880 C 112.372 119.046, 110.562 120, 109.927 120 C 109.292 120, 106.911 120.957, 104.636 122.126 C 102.361 123.295, 99.633 124.698, 98.573 125.244 C 97.103 126.003, 96.346 125.826, 95.375 124.498 C 93.789 122.329, 89.451 123.165, 88.770 125.772 C 88.217 127.886, 90.098 142.976, 92.408 154.963 C 94.280 164.678, 96.731 170.358, 99.250 170.823 C 100.697 171.091, 100.999 170.399, 100.994 166.823 C 100.991 164.445, 100.519 159.800, 99.944 156.500 C 99.370 153.200, 98.484 147.753, 97.975 144.396 C 97.466 141.039, 96.768 137.558, 96.423 136.660 C 95.986 135.520, 96.552 134.741, 98.301 134.076 C 99.679 133.552, 101.101 132.646, 101.462 132.062 C 101.823 131.478, 102.789 131, 103.609 131 C 104.428 131, 106.721 129.425, 108.703 127.500 C 112.284 124.022, 116.036 122.859, 115.961 125.250 C 115.924 126.436, 111.521 133.917, 107.765 139.175 C 105.253 142.691, 104.613 147.145, 106.293 149.412 C 108.477 152.359, 111 150.782, 111 146.471 C 111 143.975, 111.991 141.559, 114.250 138.547 C 116.037 136.164, 117.950 133.544, 118.500 132.724 C 119.050 131.905, 120.980 130.965, 122.790 130.634 L 126.079 130.034 125.832 134.267 C 125.697 136.595, 125.024 140.075, 124.337 142 C 123 145.746, 122.754 157.321, 123.838 165.500 C 124.391 169.681, 124.869 170.552, 126.750 170.820 C 128.955 171.133, 129 170.939, 129 161.090 C 129 154.099, 129.506 149.741, 130.663 146.770 C 131.577 144.422, 132.424 142.365, 132.546 142.200 C 132.667 142.036, 135.701 142.412, 139.288 143.036 C 144.112 143.876, 146.355 143.880, 147.905 143.051 C 151.441 141.159, 150.388 139.325, 145.370 138.637 C 138.145 137.647, 134.399 134.827, 133.565 129.750 C 132.639 124.119, 132.829 119.911, 134.075 118.409 C 135.576 116.601, 146.541 115.565, 149.794 116.924 C 154.245 118.784, 156.496 124.888, 156.498 135.104 C 156.500 142.428, 156.158 144.309, 154.400 146.675 C 151.831 150.129, 148.967 150.680, 145.474 148.391 C 143.286 146.957, 142.683 146.894, 141.984 148.025 C 140.065 151.131, 145.351 155.837, 151.712 156.685 C 158.764 157.626, 163.307 152.014, 164.496 140.895 C 165.813 128.575, 161.131 114.562, 154.806 111.895 C 151.200 110.374, 142.131 110.044, 137.728 111.275 C 135.648 111.856, 134.809 111.666, 134.366 110.512 C 133.237 107.569, 135.059 100.229, 137.599 97.487 C 140.080 94.811, 146 83.333, 146 81.200 C 146 80.592, 145.468 78.927, 144.819 77.501 C 142.907 73.306, 139.894 74.578, 137.711 80.500 C 134.626 88.870, 133.672 88.485, 134.349 79.141 C 134.708 74.179, 134.543 70.014, 133.942 68.891 C 132.424 66.056, 129.136 66.522, 127.881 69.750 M 122.512 115.980 C 122.106 116.637, 122.224 117.624, 122.774 118.174 C 124.077 119.477, 125.113 117.801, 124.059 116.095 C 123.444 115.101, 123.073 115.073, 122.512 115.980 M 116.607 119.582 C 115.754 121.804, 115.820 122, 117.417 122 C 118.196 122, 119.034 122.563, 119.280 123.250 C 120.073 125.472, 120.840 123.585, 120.295 120.750 C 119.718 117.746, 117.572 117.066, 116.607 119.582 M 180 126.794 C 180 127.323, 180.727 128.358, 181.615 129.096 C 183.013 130.256, 183.181 130.182, 182.865 128.551 C 182.489 126.607, 180 125.082, 180 126.794 M 159.886 172.221 C 159.020 172.924, 157.341 176.547, 156.156 180.271 C 153.587 188.340, 153.614 188, 155.531 188 C 157.312 188, 158.487 190.403, 157.493 192.012 C 157.030 192.760, 156.416 192.584, 155.601 191.470 C 154.500 189.964, 154.279 189.959, 153.075 191.410 C 152.349 192.284, 150.937 193, 149.937 193 C 148.936 193, 147.872 193.398, 147.571 193.885 C 147.271 194.371, 144.953 195.080, 142.420 195.460 C 136.758 196.309, 129.236 199.446, 126.324 202.172 C 124.129 204.227, 122 203.953, 122 201.615 C 122 200.919, 120.869 199.286, 119.487 197.988 C 115.600 194.336, 114.531 196.359, 114.855 206.759 C 115.624 231.421, 118.868 243.172, 124.026 239.984 C 125.128 239.303, 125.147 238.463, 124.129 235.326 C 123.362 232.966, 123.004 227.491, 123.193 221.034 L 123.500 210.569 126.175 210.534 C 128.088 210.510, 129.534 209.502, 131.249 207 C 133.310 203.993, 134.152 203.529, 137.229 203.709 C 140.416 203.895, 140.992 203.537, 142.452 200.459 C 143.608 198.023, 144.760 197, 146.347 197 C 147.586 197, 149.133 196.467, 149.783 195.817 C 150.434 195.166, 151.257 194.924, 151.613 195.279 C 151.968 195.634, 151.075 196.464, 149.629 197.123 C 146.315 198.633, 146.297 199.782, 149.567 201.026 C 151.364 201.709, 151.975 202.527, 151.602 203.751 C 147.604 216.901, 144.536 253.402, 145.841 272.300 C 146.529 282.277, 146.978 284.422, 148.744 286.189 C 150.028 287.473, 151.477 288.031, 152.505 287.637 C 153.990 287.067, 154.141 285.185, 153.865 270.748 C 153.375 245.075, 155.500 221.004, 159.539 206.500 C 160.305 203.750, 161.209 200.150, 161.549 198.500 C 161.889 196.850, 162.388 194.825, 162.657 194 C 162.927 193.175, 163.329 189.575, 163.552 186 C 163.774 182.425, 164.078 177.710, 164.228 175.523 C 164.525 171.180, 162.792 169.862, 159.886 172.221 M 185.500 188.528 C 183.850 189.278, 181.686 189.653, 180.692 189.361 C 178.276 188.649, 169 189.967, 169 191.022 C 169 191.480, 171.588 191.635, 174.750 191.365 C 179.329 190.974, 180.131 191.107, 178.689 192.021 C 177.693 192.651, 176.231 192.919, 175.439 192.615 C 174.590 192.289, 174 192.664, 174 193.531 C 174 194.625, 175.263 195, 178.941 195 C 181.659 195, 184.160 194.550, 184.500 194 C 185.567 192.273, 187.893 192.907, 189.502 195.362 C 191.444 198.326, 190.584 207.575, 188.055 210.927 C 185.850 213.851, 177.544 215.604, 174.230 213.845 C 172.588 212.974, 171.657 212.943, 170.867 213.733 C 169.258 215.342, 170.707 216.983, 175.678 219.182 C 179.753 220.984, 180.654 221.034, 187.209 219.822 L 194.321 218.507 196.651 213.503 C 201.121 203.904, 199.066 191.833, 192.423 188.665 C 190.503 187.749, 188.835 187.037, 188.716 187.081 C 188.597 187.126, 187.150 187.777, 185.500 188.528 M 166.250 194.651 C 163.925 195.610, 164.981 197.135, 167.750 196.816 C 169.262 196.642, 170.411 196.050, 170.303 195.500 C 170.073 194.335, 168.044 193.910, 166.250 194.651" stroke="none" fill="black" fill-rule="evenodd"/>
</svg>