<svg xmlns="http://www.w3.org/2000/svg" width="300" height="300" viewBox="0 0 300 300" version="1.1">
	<path d="M 120.600 22.459 C 120.120 27.754, 120.357 31.598, 121.416 35.709 C 122.236 38.894, 123.215 45.775, 123.590 51 C 123.965 56.225, 124.886 61.715, 125.636 63.200 C 126.386 64.686, 127 66.511, 127 67.258 C 127 68.999, 121.135 71.454, 113.553 72.888 C 110.283 73.506, 105.783 74.878, 103.553 75.936 C 101.324 76.993, 95.900 78.327, 91.500 78.900 C 78.512 80.590, 75.944 81.104, 69.054 83.397 C 63.212 85.341, 62.464 85.889, 62.170 88.431 C 61.988 89.999, 62.355 91.601, 62.985 91.990 C 64.819 93.124, 69.044 91.902, 70.314 89.869 C 71.709 87.636, 75 87.376, 75 89.500 C 75 90.361, 75.902 91, 77.117 91 C 78.702 91, 79.109 90.524, 78.738 89.105 C 78.091 86.633, 81.616 85, 87.597 85 C 90.073 85, 93.539 84.240, 95.300 83.312 C 97.211 82.304, 100.670 81.645, 103.886 81.676 C 107.857 81.714, 109.762 81.238, 111.136 79.864 C 113.443 77.557, 118.214 77.279, 117.362 79.500 C 116.260 82.371, 119.927 81.042, 121.500 78 C 123.128 74.852, 125.470 74.234, 128.014 76.282 C 130.592 78.357, 133.026 82.842, 133.973 87.265 C 134.472 89.594, 135.815 94.650, 136.958 98.500 C 138.101 102.350, 139.469 107.951, 139.998 110.947 C 140.527 113.943, 141.670 117.892, 142.539 119.723 C 143.408 121.554, 143.836 123.940, 143.492 125.026 C 143.052 126.411, 143.327 127, 144.414 127 C 145.277 127, 146.253 128.217, 146.619 129.750 C 146.980 131.262, 147.602 132.950, 148 133.500 C 149.284 135.272, 153 148.253, 152.987 150.918 C 152.976 153.103, 146.729 163.759, 141.569 170.395 C 139.001 173.697, 138.520 178.176, 140.573 179.677 C 141.568 180.405, 143.195 181, 144.189 181 C 146.648 181, 152.140 175.516, 155.457 169.750 C 159.207 163.232, 160.411 163.500, 163.315 171.500 C 166.215 179.488, 166.233 179.625, 164.578 181.279 C 163.710 182.147, 163 183.143, 163 183.493 C 163 183.842, 161.871 186.596, 160.491 189.613 C 158.548 193.862, 158.217 195.538, 159.026 197.049 C 160.692 200.162, 165.431 199.608, 168 196 C 170.211 192.895, 173 191.980, 173 194.359 C 173 195.107, 174.344 198.369, 175.987 201.609 C 179.713 208.956, 179.725 210.699, 176.087 215.722 C 174.484 217.934, 171.305 223.289, 169.022 227.622 C 165.276 234.731, 163.350 237.567, 157.750 244.225 C 155.424 246.991, 155.578 248.147, 158.565 250.322 C 161.691 252.599, 166.516 251.773, 168.173 248.678 C 168.808 247.490, 170.492 245.344, 171.914 243.909 C 173.336 242.474, 176.431 237.448, 178.792 232.741 C 181.152 228.034, 183.752 223.925, 184.569 223.612 C 186.642 222.816, 190.214 228.794, 189.482 231.834 C 189.151 233.206, 189.317 233.922, 189.883 233.572 C 191.012 232.875, 194.415 237.399, 195.470 241 C 195.873 242.375, 197.436 245.075, 198.944 247 C 200.451 248.925, 202.232 252.161, 202.901 254.192 C 205.115 260.915, 214.154 261.648, 215.580 255.221 C 215.913 253.725, 217.240 250.184, 218.530 247.353 C 219.821 244.522, 221.853 237.997, 223.048 232.853 C 224.242 227.709, 225.845 222.022, 226.609 220.216 C 227.374 218.410, 228.011 215.260, 228.024 213.216 C 228.038 211.172, 228.462 207.700, 228.967 205.500 C 229.472 203.300, 230.369 195.906, 230.959 189.069 C 231.812 179.195, 231.773 176.474, 230.767 175.838 C 228.706 174.535, 227.257 177.563, 225.013 187.865 C 223.859 193.164, 222.034 200.322, 220.957 203.771 C 219.881 207.220, 219 210.881, 219 211.906 C 219 214.087, 216.402 223.130, 214.483 227.628 C 213.749 229.349, 212.608 233.503, 211.948 236.861 C 210.341 245.025, 208.508 246.536, 206.476 241.372 C 205.637 239.243, 204.524 236.825, 204.001 236 C 201.627 232.256, 193 213.832, 193 212.508 C 193 211.695, 194.350 208.836, 196 206.154 C 197.650 203.473, 199 200.766, 199 200.139 C 199 199.513, 199.420 199, 199.933 199 C 200.446 199, 201.185 197.988, 201.576 196.750 C 201.968 195.513, 203.285 193.150, 204.503 191.500 C 208.309 186.345, 214.999 172.547, 215.001 169.849 C 215.001 169.107, 215.905 166.121, 217.010 163.213 C 219.245 157.333, 218.842 153.402, 215.910 152.471 C 213.107 151.582, 212 152.719, 212 156.489 C 212 159.192, 211.566 159.924, 209.815 160.180 C 208.137 160.426, 206.918 162.241, 204.565 168 C 202.880 172.125, 200.938 176.095, 200.250 176.821 C 199.563 177.548, 199 178.557, 199 179.063 C 199 179.569, 197.425 182.046, 195.500 184.568 C 193.575 187.090, 192 189.794, 192 190.577 C 192 191.359, 191.556 192, 191.013 192 C 190.471 192, 189.352 193.615, 188.528 195.588 C 186.787 199.754, 184.933 199.658, 183.499 195.327 C 182.948 193.664, 181.895 191.578, 181.159 190.691 C 180.423 189.804, 179.573 187.238, 179.272 184.988 C 178.815 181.587, 179.138 180.444, 181.191 178.199 C 183.319 175.872, 190 163.055, 190 161.299 C 190 160.964, 191.098 159.249, 192.440 157.489 C 195.095 154.008, 199 143.856, 199 140.434 C 199 139.259, 200.130 136.172, 201.512 133.573 C 202.894 130.975, 203.767 128.433, 203.453 127.924 C 202.658 126.638, 195 126.760, 195 128.059 C 195 128.641, 195.450 128.840, 196 128.500 C 196.550 128.160, 197 128.557, 197 129.382 C 197 130.207, 196.550 131.160, 196 131.500 C 195.450 131.840, 195 131.641, 195 131.059 C 195 130.477, 194.156 130, 193.125 130 C 191.822 130, 191.058 130.961, 190.620 133.151 C 190.038 136.059, 186.973 143.451, 184.877 147 C 183.807 148.813, 180.141 156.423, 176.567 164.250 C 175.123 167.412, 173.573 170, 173.123 170 C 172.672 170, 171.515 168.088, 170.551 165.750 C 169.587 163.412, 168.169 160.022, 167.399 158.216 C 165.390 153.500, 165.662 150.087, 168.454 144.985 C 177.878 127.758, 182.977 112.019, 181.567 104.503 C 180.395 98.257, 174.407 98.394, 171.728 104.729 C 169.841 109.190, 167.420 117.100, 166.443 122 C 166.059 123.925, 165.127 126.388, 164.372 127.473 C 163.618 128.557, 163 130.061, 163 130.815 C 163 131.568, 162.181 133.225, 161.181 134.497 C 159.428 136.726, 159.319 136.741, 158.181 134.918 C 157.531 133.878, 157 132.318, 157 131.452 C 157 130.585, 155.900 127.542, 154.555 124.688 C 153.210 121.835, 151.616 117.475, 151.013 115 C 149.031 106.866, 144.857 90.604, 143.313 85 C 141.114 77.017, 140.818 69, 142.722 69 C 143.637 69, 143.992 69.580, 143.638 70.500 C 143.226 71.574, 143.738 72, 145.438 72 C 147.256 72, 147.699 71.566, 147.329 70.152 C 146.940 68.661, 147.782 68.032, 151.673 66.904 C 154.328 66.134, 158.075 65.609, 160 65.738 C 162.440 65.900, 162.941 65.734, 161.653 65.188 C 160.015 64.494, 159.979 64.262, 161.334 63.138 C 162.174 62.441, 164.269 61.830, 165.990 61.781 C 167.960 61.725, 170.246 60.639, 172.165 58.846 C 175.252 55.962, 178.373 55.177, 179.500 57 C 180.522 58.654, 182.678 58.142, 185.818 55.500 C 189.653 52.273, 191.003 52.350, 194.500 56 C 197.650 59.288, 201.040 59.862, 203.044 57.447 C 204.135 56.133, 203.808 55.388, 200.916 52.600 C 196.041 47.899, 193.794 46.910, 190.384 47.964 C 188.798 48.453, 184.125 49.632, 180 50.582 C 175.875 51.532, 170.700 53.217, 168.500 54.326 C 161.429 57.891, 160.680 58.230, 158.068 59.055 C 156.656 59.501, 151.736 61.246, 147.136 62.933 C 142.535 64.620, 138.433 66, 138.018 66 C 137.293 66, 135.995 61.068, 133.939 50.500 C 133.404 47.750, 132.554 43.700, 132.050 41.500 C 131.546 39.300, 130.625 34.575, 130.004 31 C 129.382 27.425, 128.270 23.150, 127.533 21.500 C 126.796 19.850, 125.939 17.712, 125.628 16.750 C 125.317 15.787, 124.211 15, 123.169 15 C 121.541 15, 121.181 16.045, 120.600 22.459 M 189 16.729 C 188.175 17.043, 187.218 17.732, 186.873 18.261 C 186.057 19.509, 186.974 23, 188.117 23 C 188.602 23, 189 23.675, 189 24.500 C 189 25.325, 189.444 26, 189.987 26 C 190.529 26, 191.599 27.498, 192.364 29.328 C 193.129 31.159, 195.722 34.920, 198.127 37.686 C 200.532 40.452, 204.300 44.801, 206.500 47.350 C 211.875 53.577, 214.960 53.434, 214.017 47.001 C 213.897 46.176, 211.276 41.676, 208.193 37.001 C 205.110 32.325, 201.619 26.683, 200.435 24.462 C 196.407 16.909, 195.600 15.997, 193.009 16.079 C 191.629 16.122, 189.825 16.415, 189 16.729 M 130.032 63.250 C 130.011 65.042, 130.523 66, 131.500 66 C 133.393 66, 133.403 64.915, 131.532 62.441 C 130.126 60.582, 130.062 60.616, 130.032 63.250 M 61.200 125.200 C 59.747 126.653, 59.607 130, 61 130 C 61.550 130, 62 131.773, 62 133.941 C 62 136.109, 62.397 138.128, 62.883 138.428 C 63.369 138.728, 64.088 141.567, 64.481 144.737 C 64.874 147.907, 65.826 152.017, 66.598 153.872 C 67.369 155.727, 68.007 158.202, 68.015 159.372 C 68.030 161.586, 68.269 162.078, 73.972 171.664 C 75.891 174.890, 77.498 178.996, 77.564 180.844 C 77.698 184.564, 79.211 185.962, 83.128 185.985 C 84.990 185.996, 87.906 184.032, 93.128 179.250 C 97.183 175.537, 101.100 171.695, 101.834 170.710 C 102.568 169.726, 104.144 167.869, 105.336 166.583 C 106.528 165.297, 108.322 161.602, 109.322 158.372 C 110.323 155.143, 111.787 150.475, 112.576 148 C 113.365 145.525, 113.991 140.800, 113.969 137.500 C 113.915 129.607, 111.466 126.404, 105 125.771 C 100.576 125.338, 91.414 127.307, 89.550 129.091 C 89.027 129.591, 87.902 130, 87.050 130 C 86.197 130, 83.043 131.300, 80.040 132.888 C 77.038 134.477, 74 135.554, 73.290 135.281 C 72.581 135.009, 72 133.230, 72 131.327 C 72 125.878, 70.505 124, 66.165 124 C 64.094 124, 61.860 124.540, 61.200 125.200 M 93.500 134.637 C 91.300 135.848, 88.933 136.875, 88.240 136.919 C 86.818 137.010, 76.916 143.727, 75.726 145.407 C 75.301 146.008, 75.153 147.400, 75.397 148.500 C 76.913 155.319, 79.141 163.411, 79.767 164.373 C 80.170 164.993, 80.963 167.071, 81.530 168.992 C 82.141 171.064, 83.306 172.628, 84.395 172.837 C 86.994 173.338, 94.683 165.569, 97.594 159.500 C 100.700 153.025, 104.185 141.451, 104.361 137.026 C 104.490 133.794, 104.257 133.514, 101 132.994 C 98.479 132.591, 96.381 133.051, 93.500 134.637 M 165.583 134.866 C 165.152 135.563, 165.070 136.403, 165.400 136.733 C 166.295 137.628, 167.271 136.312, 166.787 134.862 C 166.449 133.846, 166.213 133.846, 165.583 134.866 M 192 139.500 C 192 141.425, 192.176 143, 192.391 143 C 192.605 143, 192.965 141.425, 193.190 139.500 C 193.415 137.575, 193.239 136, 192.799 136 C 192.360 136, 192 137.575, 192 139.500 M 183.571 156.571 C 182.707 157.436, 182 159.011, 182 160.071 C 182 163.708, 185.061 161.765, 186.445 157.250 C 187.250 154.623, 185.850 154.293, 183.571 156.571 M 163.158 164 C 163.158 165.375, 163.385 165.938, 163.662 165.250 C 163.940 164.563, 163.940 163.438, 163.662 162.750 C 163.385 162.063, 163.158 162.625, 163.158 164 M 197.943 188.107 C 196.116 191.521, 198.364 192.347, 200.347 188.990 C 201.864 186.421, 201.899 186, 200.592 186 C 199.755 186, 198.563 186.948, 197.943 188.107 M 110.325 193.940 C 105.522 195.664, 99.968 198.421, 97.530 200.290 C 85.224 209.724, 80.166 213.153, 76.473 214.564 C 74.013 215.503, 72 216.589, 72 216.977 C 72 217.365, 69.764 218.899, 67.031 220.387 C 64.298 221.874, 61.796 223.521, 61.472 224.046 C 61.147 224.571, 59.896 225.010, 58.691 225.022 C 55.988 225.049, 47.831 228.668, 46.793 230.301 C 45.482 232.362, 45.930 236.759, 47.512 237.366 C 48.343 237.685, 50.031 237.524, 51.262 237.007 C 52.493 236.491, 55.413 235.586, 57.750 234.996 C 60.088 234.406, 62 233.490, 62 232.961 C 62 232.433, 62.627 232, 63.393 232 C 64.159 232, 65.023 231.383, 65.312 230.629 C 65.602 229.874, 67.110 228.938, 68.664 228.548 C 72.504 227.585, 73.757 226.381, 74.515 222.931 C 75.212 219.756, 76.711 219.084, 77.648 221.526 C 78.141 222.809, 78.974 222.620, 82.867 220.342 C 85.415 218.851, 88.054 217.079, 88.732 216.405 C 89.410 215.730, 90.535 214.987, 91.232 214.752 C 92.236 214.414, 92.245 214.016, 91.274 212.839 C 90.334 211.699, 90.322 211.078, 91.224 210.176 C 92.929 208.471, 95.330 208.699, 94.638 210.500 C 94.316 211.339, 94.612 212, 95.309 212 C 97.173 212, 99.704 208.625, 100.476 205.109 C 100.956 202.923, 101.739 202, 103.115 202 C 104.760 202, 104.901 202.317, 104 204 C 103.164 205.561, 103.240 206, 104.342 206 C 105.119 206, 106.291 205.354, 106.947 204.564 C 107.602 203.775, 109.420 202.847, 110.986 202.503 C 112.552 202.159, 114.081 201.230, 114.385 200.439 C 114.689 199.648, 116.067 199, 117.448 199 C 121.332 199, 133 194.867, 133 193.491 C 133 191.401, 116.489 191.728, 110.325 193.940 M 180 219.500 C 179.315 220.325, 178.135 221, 177.378 221 C 176.620 221, 176 221.900, 176 223 C 176 224.100, 176.372 225, 176.826 225 C 177.692 225, 181.199 221.389, 182.410 219.250 C 183.406 217.491, 181.503 217.689, 180 219.500 M 193 229.500 C 193 230.325, 193.661 231, 194.469 231 C 195.363 231, 195.712 230.414, 195.362 229.500 C 195.045 228.675, 194.384 228, 193.893 228 C 193.402 228, 193 228.675, 193 229.500 M 170.750 232.823 C 168.340 236.934, 168.525 238.887, 171.066 236.160 C 172.202 234.940, 172.989 233.019, 172.816 231.890 C 172.534 230.058, 172.312 230.158, 170.750 232.823" stroke="none" fill="black" fill-rule="evenodd"/>
</svg>