<svg xmlns="http://www.w3.org/2000/svg" width="300" height="300" viewBox="0 0 300 300" version="1.1">
	<path d="M 108.721 40.750 C 106.680 43.913, 104.998 47.400, 104.983 48.500 C 104.968 49.600, 104.066 52.462, 102.978 54.859 C 101.890 57.257, 101 60.069, 101 61.109 C 101 62.149, 100.559 63, 100.020 63 C 99.482 63, 98.079 64.912, 96.904 67.250 C 95.729 69.588, 94.198 72.175, 93.502 73 C 92.806 73.825, 91.906 75.625, 91.503 77 C 91.100 78.375, 88.796 82.523, 86.385 86.218 C 83.973 89.912, 82 93.330, 82 93.813 C 82 94.295, 81.100 95.505, 80 96.500 C 78.900 97.495, 78 98.813, 78 99.427 C 78 100.042, 76.619 102.219, 74.932 104.267 C 73.244 106.314, 70.630 110.354, 69.123 113.245 C 64.386 122.331, 62.620 125.156, 58.250 130.639 C 55.913 133.572, 54 136.627, 54 137.427 C 54 140.491, 56.052 139.868, 61.116 135.268 C 69.102 128.014, 70 127.080, 70 126.019 C 70 125.480, 72.180 121.767, 74.845 117.769 C 77.510 113.771, 80.097 109.752, 80.595 108.839 C 81.093 107.925, 82.889 105.655, 84.588 103.794 C 87.561 100.536, 91.860 94.020, 95 88.014 C 95.825 86.435, 97.513 83.983, 98.750 82.565 C 99.987 81.146, 101 79.337, 101 78.546 C 101 77.755, 102.626 74.333, 104.613 70.942 C 106.601 67.551, 109.578 61.789, 111.230 58.138 C 112.881 54.487, 114.577 51.275, 114.999 51 C 115.992 50.351, 119 41.455, 119 39.165 C 119 36.798, 117.064 35, 114.516 35 C 113.076 35, 111.286 36.777, 108.721 40.750 M 222.500 58.147 C 220.300 58.553, 216.678 58.911, 214.450 58.942 C 207.440 59.042, 205.690 63.301, 211.397 66.375 C 215.155 68.398, 220.189 67.933, 223.194 65.285 C 224.697 63.960, 225.373 63.965, 229.194 65.332 C 231.562 66.179, 235.840 67.391, 238.700 68.024 C 244.997 69.418, 246.430 70.913, 245.620 75.241 C 245.285 77.033, 244.573 81.516, 244.039 85.202 C 242.663 94.690, 240.560 99.380, 237.984 98.706 C 236.874 98.416, 235.330 98.813, 234.554 99.589 C 233.719 100.424, 231.121 101, 228.194 101 C 225.015 101, 222.800 101.536, 222 102.500 C 221.315 103.325, 219.722 104, 218.459 104 C 217.197 104, 215.452 104.273, 214.582 104.607 C 212.586 105.373, 212.406 111, 214.378 111 C 215.135 111, 216.324 111.685, 217.019 112.523 C 218.566 114.387, 221.407 113.641, 225.371 110.326 C 226.950 109.006, 229.650 107.277, 231.371 106.483 C 233.092 105.690, 235.306 104.469, 236.292 103.770 C 237.828 102.681, 238.355 102.857, 239.986 105 L 241.887 107.500 245.241 104.250 C 247.086 102.463, 249.088 101, 249.691 101 C 251.173 101, 251.979 98.637, 251.337 96.179 C 251.047 95.072, 251.528 91.696, 252.405 88.679 C 254.124 82.765, 254.597 68, 253.067 68 C 252.554 68, 251.865 67.150, 251.535 66.110 C 251.205 65.071, 249.937 63.992, 248.718 63.713 C 247.498 63.434, 243.854 62.235, 240.620 61.048 C 232.660 58.128, 227.277 57.266, 222.500 58.147 M 153.750 59.093 C 151.612 60.323, 151.424 64, 153.500 64 C 154.325 64, 155 64.743, 155 65.650 C 155 67.116, 156.100 67.229, 164.818 66.657 C 171.967 66.189, 175.070 66.352, 176.232 67.257 C 177.564 68.295, 177.893 71.593, 178.225 87.246 C 178.444 97.556, 178.314 106.492, 177.936 107.103 C 177.523 107.771, 174.303 108.179, 169.874 108.123 C 160.587 108.008, 153.221 108.079, 150 108.316 L 147.500 108.500 146.892 91.500 C 146.092 69.105, 145.214 65.829, 140.500 67.638 C 138.674 68.339, 138.799 65.960, 139.170 93 C 139.340 105.375, 139.450 120.900, 139.414 127.500 C 139.378 134.100, 139.340 146.250, 139.329 154.500 C 139.289 186.022, 139.005 192.744, 137.571 196.175 C 136.670 198.333, 136.304 201.752, 136.569 205.537 C 136.799 208.817, 137.432 217.575, 137.975 225 C 138.518 232.425, 139.056 245.925, 139.171 255 C 139.285 264.075, 139.873 274.875, 140.478 279 C 141.429 285.488, 141.866 286.542, 143.721 286.811 C 148.073 287.441, 148.357 284.844, 147.638 251.028 C 147.269 233.687, 146.694 216.533, 146.359 212.906 C 145.858 207.466, 146.044 206.065, 147.424 204.906 C 148.344 204.133, 150.114 202.600, 151.357 201.500 C 154.097 199.075, 156.793 197.303, 159.607 196.077 C 163.579 194.345, 173 187.939, 173 186.969 C 173 185.055, 166.706 186.057, 159.859 189.062 C 150.797 193.039, 148.603 192.764, 148.180 187.595 C 147.707 181.807, 148.683 179.118, 151.515 178.407 C 152.882 178.064, 154 177.147, 154 176.370 C 154 175.593, 155.012 174.582, 156.250 174.123 C 161.736 172.091, 168.903 170, 170.384 170 C 171.273 170, 172 169.352, 172 168.560 C 172 166.584, 165.775 166.179, 159.532 167.750 C 156.800 168.438, 153.087 169, 151.282 169 L 148 169 148.003 159.250 C 148.005 153.887, 148.298 142.478, 148.654 133.896 L 149.301 118.293 152.447 117.155 C 154.178 116.529, 157.823 115.745, 160.547 115.413 C 165.614 114.794, 173.579 112.351, 175.664 110.777 C 176.305 110.293, 178.067 110.033, 179.581 110.199 C 181.785 110.440, 182.720 109.848, 184.270 107.232 C 185.953 104.389, 186.213 101.921, 186.272 88.232 C 186.351 69.521, 185.510 62.553, 182.875 60.098 C 181.252 58.586, 178.975 58.291, 168.227 58.197 C 161.227 58.137, 154.713 58.540, 153.750 59.093 M 171 62 C 171 62.550, 171.477 63, 172.059 63 C 172.641 63, 172.840 62.550, 172.500 62 C 172.160 61.450, 171.684 61, 171.441 61 C 171.198 61, 171 61.450, 171 62 M 159 64.031 C 159 64.564, 159.675 65, 160.500 65 C 161.325 65, 162 64.823, 162 64.607 C 162 64.391, 161.325 63.955, 160.500 63.638 C 159.675 63.322, 159 63.499, 159 64.031 M 122.492 69.389 C 120.315 70.338, 118.618 72.469, 116.351 77.100 C 111.481 87.051, 109 92.921, 109 94.496 C 109 95.290, 108.100 97.542, 107 99.500 C 105.900 101.458, 105 103.616, 105 104.295 C 105 104.974, 104.100 107.209, 103 109.261 C 101.900 111.314, 101 113.857, 101 114.913 C 101 115.969, 100.662 116.983, 100.250 117.167 C 99.344 117.569, 95 126.306, 95 127.725 C 95 128.278, 94.192 129.803, 93.204 131.115 C 92.216 132.427, 89.899 136.875, 88.055 141 C 86.211 145.125, 83.195 151.112, 81.351 154.304 C 79.508 157.496, 78 160.661, 78 161.337 C 78 162.014, 76.403 165.027, 74.451 168.034 C 72.500 171.040, 70.179 175.075, 69.293 177 C 68.408 178.925, 66.061 182.525, 64.078 185 C 62.095 187.475, 59.231 191.338, 57.715 193.584 C 56.199 195.830, 54.015 198.680, 52.863 199.917 C 51.351 201.539, 51.070 202.470, 51.856 203.256 C 53.403 204.803, 58.864 201.667, 62 197.432 C 63.375 195.574, 64.967 194.043, 65.538 194.028 C 66.892 193.992, 72.862 186.788, 76.574 180.711 C 84.389 167.921, 84.252 168.176, 91.287 153.245 C 93.426 148.705, 95.511 145.198, 95.920 145.450 C 96.329 145.703, 97.262 149.755, 97.993 154.455 C 98.724 159.155, 99.700 163, 100.161 163 C 100.623 163, 101 165.004, 101 167.453 C 101 169.902, 101.516 173.039, 102.147 174.423 C 103.037 176.376, 103.003 177.291, 101.999 178.502 C 100.918 179.804, 101.004 180.282, 102.516 181.388 C 104.478 182.823, 105.232 190.575, 106.372 221 C 106.671 228.975, 107.385 237.072, 107.958 238.993 C 108.531 240.915, 109 244.357, 109 246.642 C 109 251.644, 114.242 266.516, 117.402 270.479 C 121.965 276.203, 123.568 269.214, 119.607 260.866 C 117.936 257.344, 116.419 242.657, 115.440 220.500 C 115.148 213.900, 114.282 200.625, 113.517 191 C 110.872 157.765, 110.781 155.011, 112.104 148.353 C 113.234 142.668, 113.193 141.765, 111.739 140.310 C 110.393 138.964, 109.826 138.899, 108.563 139.948 C 106.070 142.017, 104.298 140.470, 103.565 135.588 C 102.979 131.678, 103.377 129.897, 106.322 123.259 C 108.215 118.991, 111.663 110.550, 113.984 104.500 C 116.305 98.450, 119.058 91.575, 120.102 89.223 C 121.146 86.871, 122 84.264, 122 83.430 C 122 82.597, 124.063 79.709, 126.585 77.013 C 130.061 73.296, 131.012 71.614, 130.518 70.055 C 129.763 67.677, 126.956 67.444, 122.492 69.389 M 156.500 112 C 156.160 112.550, 156.332 113, 156.882 113 C 157.432 113, 158.160 112.550, 158.500 112 C 158.840 111.450, 158.668 111, 158.118 111 C 157.568 111, 156.840 111.450, 156.500 112 M 233 146.141 C 231.075 146.669, 228.808 147.911, 227.962 148.900 C 227.116 149.889, 224.818 150.999, 222.854 151.368 C 220.890 151.736, 216.435 153.154, 212.952 154.519 C 209.470 155.883, 205.608 157, 204.369 157 C 203.131 157, 201.840 157.450, 201.500 158 C 201.160 158.550, 199.559 159, 197.941 159 C 195.267 159, 195 159.306, 195 162.378 C 195 164.235, 195.675 166.315, 196.500 167 C 197.325 167.685, 198 169.058, 198 170.051 C 198 171.044, 198.588 172.452, 199.306 173.179 C 200.024 173.905, 200.928 175.334, 201.314 176.354 C 201.737 177.469, 202.611 177.980, 203.508 177.635 C 204.329 177.320, 205 177.462, 205 177.950 C 205 178.437, 205.267 179.661, 205.594 180.668 C 206.089 182.192, 206.007 182.248, 205.110 181 C 204.244 179.797, 204.028 180.099, 204.015 182.527 C 204.007 184.193, 204.657 186.493, 205.460 187.640 C 206.264 188.787, 207.874 192.149, 209.039 195.112 C 210.205 198.076, 211.797 201.210, 212.579 202.079 C 214.621 204.347, 214.289 207.785, 211.478 213.500 C 210.125 216.250, 209.014 218.970, 209.009 219.545 C 209.004 220.120, 206.750 223.024, 204 226 C 201.250 228.976, 199 231.759, 199 232.186 C 199 232.613, 200.118 233.243, 201.485 233.586 C 203.590 234.114, 205.052 233.131, 211.066 227.141 C 217.693 220.540, 218.909 218, 215.441 218 C 214.648 218, 214 217.564, 214 217.030 C 214 216.497, 215.684 216.124, 217.741 216.202 C 220.981 216.323, 222.518 217.364, 229.207 223.963 C 234.276 228.965, 239.837 233.203, 245.386 236.292 C 254.180 241.189, 258.357 242.119, 259.396 239.410 C 260.206 237.300, 259.834 236.850, 255.340 234.500 C 250.817 232.135, 249.635 231.229, 241.652 224 C 230.237 213.663, 227.010 209.444, 227.004 204.846 C 227.002 203.386, 229.025 198.353, 231.500 193.661 C 233.975 188.969, 236 184.531, 236 183.800 C 236 183.069, 236.849 180.886, 237.887 178.949 C 241.314 172.556, 245.487 154.228, 244.365 150.500 C 242.810 145.333, 239.947 144.234, 233 146.141 M 228.094 155.258 C 223.005 158.116, 222.612 158.190, 221.389 156.518 C 220.200 154.892, 219.946 155.046, 218.372 158.346 C 216.958 161.312, 216.250 161.850, 214.380 161.381 C 212.706 160.960, 210.910 161.812, 207.554 164.617 C 202.429 168.901, 201.457 172.018, 205.488 171.247 C 207.298 170.901, 208.137 171.279, 208.569 172.636 C 209.267 174.828, 210.635 177.895, 211.854 180 C 212.331 180.825, 214.022 184.305, 215.611 187.734 C 217.200 191.162, 219.026 193.974, 219.668 193.984 C 220.311 193.993, 221.739 192.537, 222.842 190.750 C 224.873 187.459, 232 167.236, 232 164.765 C 232 164.027, 232.900 161.658, 234 159.500 C 236.274 155.039, 236.588 151.948, 234.750 152.111 C 234.063 152.172, 231.067 153.588, 228.094 155.258 M 228.079 189.250 C 228.036 190.213, 227.523 191, 226.941 191 C 226.359 191, 226.196 191.508, 226.579 192.128 C 227.469 193.568, 229.356 190.454, 228.650 188.712 C 228.374 188.033, 228.123 188.269, 228.079 189.250 M 212.233 193.500 C 214.789 199.565, 215.551 201, 216.219 201 C 217.746 201, 216.891 198.456, 214.370 195.500 C 212.963 193.850, 212.002 192.950, 212.233 193.500 M 220.740 209.593 C 220.353 209.980, 222.141 212.467, 224.714 215.119 C 227.287 217.771, 229.599 219.734, 229.853 219.481 C 230.106 219.227, 229.229 218.003, 227.903 216.760 C 226.577 215.517, 224.581 213.238, 223.468 211.695 C 222.355 210.152, 221.127 209.206, 220.740 209.593 M 140.187 214.173 C 140.532 217.666, 143 219.414, 143 216.165 C 143 213.423, 141.982 211, 140.830 211 C 140.304 211, 140.014 212.428, 140.187 214.173 M 231 220.882 C 231 221.432, 231.450 222.160, 232 222.500 C 232.550 222.840, 233 222.668, 233 222.118 C 233 221.568, 232.550 220.840, 232 220.500 C 231.450 220.160, 231 220.332, 231 220.882 M 234 224.378 C 234 224.585, 234.685 225.324, 235.523 226.019 C 236.796 227.076, 236.943 227.014, 236.416 225.641 C 235.878 224.240, 234 223.257, 234 224.378" stroke="none" fill="black" fill-rule="evenodd"/>
</svg>