<svg xmlns="http://www.w3.org/2000/svg" width="300" height="300" viewBox="0 0 300 300" version="1.1">
	<path d="M 212.500 15.193 C 209.200 15.687, 203.350 16.236, 199.500 16.413 C 195.650 16.589, 188 17.526, 182.500 18.494 C 172.054 20.332, 159.847 20.736, 151.731 19.514 C 148.092 18.966, 146.373 19.181, 144.481 20.421 C 141.744 22.214, 141.147 25, 143.500 25 C 144.325 25, 145 25.873, 145 26.941 C 145 28.009, 145.504 29.193, 146.119 29.574 C 147.391 30.360, 146.532 47.954, 144.919 54.169 C 144.395 56.187, 143.532 63.536, 143 70.500 C 142.468 77.464, 141.514 85.038, 140.878 87.331 C 140.168 89.892, 139.777 98.628, 139.863 109.982 C 139.941 120.147, 139.526 131.101, 138.941 134.323 C 137.421 142.705, 136.921 154.047, 135.953 202 C 135.388 230.021, 135.438 245.795, 136.101 248.301 C 137.209 252.497, 139.740 254.216, 141.136 251.722 C 141.900 250.356, 142.475 250.551, 145.262 253.120 C 147.771 255.434, 149.063 255.956, 151 255.440 C 152.375 255.074, 161.375 254.597, 171 254.379 C 180.625 254.161, 189.666 253.585, 191.091 253.099 C 192.648 252.568, 195.838 252.619, 199.091 253.227 C 206.651 254.641, 238.057 253.514, 239.151 251.789 C 240.205 250.129, 240.204 245.870, 239.151 244.209 C 238.483 243.157, 236.592 243.154, 228.916 244.191 C 223.737 244.891, 217.025 245.357, 214 245.228 C 210.975 245.099, 194.705 245.039, 177.844 245.095 L 147.188 245.198 145.522 241.688 C 144.172 238.843, 144.059 237.451, 144.923 234.339 C 146.063 230.233, 146.170 220.425, 145.129 215.500 C 144.746 213.689, 143.570 212.104, 142.161 211.500 L 139.827 210.500 140.124 192.500 C 140.287 182.600, 140.766 172.571, 141.187 170.213 C 141.609 167.854, 142.009 161.104, 142.078 155.213 C 142.146 149.321, 142.589 143.150, 143.063 141.500 C 144.236 137.412, 144.901 114.883, 143.906 112.914 C 143.466 112.042, 143.553 108.442, 144.099 104.914 C 144.646 101.386, 145.693 91.457, 146.426 82.850 C 147.159 74.242, 148.040 66.744, 148.384 66.188 C 148.727 65.632, 149.255 60.561, 149.557 54.919 C 149.986 46.895, 150.539 44.052, 152.092 41.870 C 153.185 40.336, 154.617 36.813, 155.276 34.040 L 156.473 29 167.845 29 L 179.217 29 178.589 26.500 C 178.049 24.346, 178.299 24, 180.399 24 C 181.740 24, 183.548 23.727, 184.418 23.393 C 185.288 23.059, 186 23.254, 186 23.827 C 186 24.399, 184.797 25.010, 183.327 25.184 C 181.857 25.358, 180.447 26.131, 180.193 26.902 C 179.843 27.965, 180.307 28.125, 182.116 27.565 C 183.427 27.160, 185.379 26.845, 186.454 26.867 C 187.529 26.889, 188.911 26.489, 189.526 25.978 C 190.141 25.468, 195.112 25.085, 200.572 25.126 C 207.499 25.179, 211.595 24.730, 214.123 23.640 C 216.116 22.782, 218.014 22.347, 218.341 22.674 C 218.668 23.001, 220.300 22.704, 221.968 22.013 C 227.367 19.777, 225.357 13.380, 219.500 14.161 C 218.950 14.234, 215.800 14.698, 212.500 15.193 M 197.698 21.636 C 196.140 23.193, 197.189 23.985, 200.498 23.749 C 203.805 23.514, 205.608 22, 202.582 22 C 201.802 22, 200.541 21.761, 199.780 21.469 C 199.018 21.177, 198.082 21.252, 197.698 21.636 M 157 26.378 C 157 27.375, 157.835 28, 159.167 28 C 160.358 28, 161.146 27.873, 160.917 27.717 C 160.688 27.561, 159.713 26.831, 158.750 26.095 C 157.252 24.948, 157 24.989, 157 26.378 M 166.694 25.639 C 165.673 26.660, 166.954 28, 168.952 28 C 169.961 28, 171.045 27.325, 171.362 26.500 C 171.771 25.434, 171.271 25, 169.635 25 C 168.369 25, 167.046 25.288, 166.694 25.639 M 149 32.441 C 149 33.234, 149.450 34.160, 150 34.500 C 150.550 34.840, 151 34.191, 151 33.059 C 151 31.927, 150.550 31, 150 31 C 149.450 31, 149 31.648, 149 32.441 M 79 37.550 C 73.775 38.865, 67.078 39.953, 64.118 39.970 C 60.452 39.990, 57.662 40.664, 55.368 42.082 C 51.723 44.334, 51.336 45.542, 53.392 48.250 C 55.016 50.389, 57.339 50.501, 58.983 48.521 C 59.885 47.434, 60.704 47.306, 62.073 48.039 C 64.488 49.332, 69.194 49.072, 75.763 47.284 C 82.190 45.534, 81.805 43.481, 75.219 44.383 C 72.735 44.724, 70.094 45.507, 69.351 46.124 C 68.292 47.003, 68 46.807, 68 45.216 C 68 43.720, 68.496 43.317, 69.887 43.681 C 70.925 43.952, 72.077 43.685, 72.446 43.087 C 72.816 42.489, 75.116 42, 77.559 42 C 81.235 42, 82 42.323, 82 43.875 C 82 45.173, 82.957 45.941, 85.108 46.372 C 87.612 46.872, 88.064 47.334, 87.434 48.747 C 87.003 49.711, 86.339 55, 85.957 60.500 C 85.434 68.043, 84.512 72.465, 82.204 78.500 C 80.522 82.900, 78.890 87.319, 78.577 88.319 C 78.176 89.606, 77.425 89.952, 76.009 89.503 C 73.737 88.782, 58.997 90.914, 57.550 92.174 C 57.027 92.628, 55.201 93, 53.491 93 C 49.272 93, 46.727 95.027, 47.155 98.046 C 47.531 100.698, 49.708 101.541, 53.636 100.555 C 55.545 100.076, 55.970 99.482, 55.489 97.967 C 54.958 96.292, 55.338 96, 58.049 96 C 60.742 96, 61.152 96.309, 60.710 98.001 C 60.422 99.102, 60.601 99.746, 61.108 99.433 C 61.615 99.120, 68.773 98.460, 77.015 97.967 C 91.740 97.086, 96.015 96.128, 95.985 93.715 C 95.953 91.180, 94.148 89.829, 90.058 89.281 C 85.349 88.649, 83.974 86.799, 86.294 84.213 C 87.139 83.271, 88.115 80.700, 88.461 78.500 C 90.581 65.061, 91.327 62, 92.483 62 C 94.737 62, 96.276 53.735, 95.495 45.825 C 94.295 33.672, 94.336 33.693, 79 37.550 M 89.173 56.564 C 89.353 58.094, 90.097 59.542, 90.827 59.782 C 91.762 60.089, 92.057 59.397, 91.827 57.436 C 91.647 55.906, 90.903 54.458, 90.173 54.218 C 89.238 53.911, 88.943 54.603, 89.173 56.564 M 191.046 57.730 C 185.436 59.938, 184.042 65.250, 185.051 80.563 C 185.484 87.128, 185.623 95.650, 185.362 99.500 C 184.800 107.758, 185.758 109.955, 189.185 108.267 C 193.063 106.355, 195.798 105.865, 196.475 106.959 C 196.829 107.532, 198.822 108, 200.905 108 C 202.988 108, 206.129 108.717, 207.885 109.592 C 211.861 111.576, 214 110.837, 214 107.480 C 214 105.474, 213.219 104.572, 210.500 103.436 C 208.575 102.631, 207 101.286, 207 100.446 C 207 98.369, 211.073 93, 212.650 93 C 214.802 93, 216.274 85.367, 215.131 80.130 C 214.575 77.583, 213.852 73.831, 213.523 71.791 C 212.718 66.800, 208.431 63.783, 201.302 63.192 C 196.596 62.802, 195.733 62.385, 194.434 59.873 C 193.617 58.293, 192.848 57.036, 192.724 57.079 C 192.601 57.122, 191.846 57.416, 191.046 57.730 M 194.195 68.859 C 193.245 69.461, 193.074 71.075, 193.567 74.790 C 194.464 81.555, 193.555 85, 190.874 85 C 189.381 85, 188.959 85.451, 189.393 86.582 C 189.727 87.452, 190 90.318, 190 92.952 L 190 97.740 194.398 98.972 C 198.416 100.096, 198.974 100.026, 200.845 98.155 C 205.826 93.174, 207.688 85.516, 205.844 77.588 C 204.713 72.722, 204.205 72.027, 200.547 70.353 C 198.322 69.334, 196.276 68.395, 196 68.266 C 195.725 68.138, 194.913 68.405, 194.195 68.859 M 189 78.059 C 189 79.844, 189.417 80.861, 190 80.500 C 190.550 80.160, 191 78.784, 191 77.441 C 191 76.098, 190.550 75, 190 75 C 189.450 75, 189 76.377, 189 78.059 M 72.655 94.458 C 72.240 95.539, 72.677 96, 74.115 96 C 75.254 96, 75.991 95.472, 75.771 94.813 C 75.154 92.961, 73.310 92.751, 72.655 94.458 M 49.250 106.220 C 46.642 107.478, 46.367 109.230, 48.500 111 C 50.409 112.584, 50.439 115.618, 48.552 116.342 C 45.214 117.623, 44.013 122.605, 43.766 136.193 C 43.632 143.512, 43.886 150.512, 44.329 151.750 C 45.251 154.324, 48.166 154.710, 50 152.500 C 51.621 150.547, 52.899 150.607, 55.317 152.750 C 56.765 154.033, 57.409 154.166, 57.729 153.250 C 57.970 152.563, 59.479 152, 61.083 152 C 64.063 152, 64.998 153.361, 62.750 154.425 C 61.545 154.995, 65.606 154.797, 84.195 153.377 L 92.890 152.713 93.622 155.607 C 94.622 159.561, 94.625 162.201, 93.656 187.835 C 93.191 200.119, 92.406 211.585, 91.910 213.313 C 91.414 215.042, 90.735 220.066, 90.400 224.478 C 89.684 233.904, 87.526 238.890, 81.793 244.368 C 77.995 247.997, 77.466 248.199, 73.245 247.620 C 69.456 247.101, 67.900 246.123, 63.393 241.433 C 59.780 237.673, 57.690 234.503, 56.964 231.681 C 56.372 229.381, 55.389 225.925, 54.779 224 C 54.169 222.075, 53.632 215.663, 53.585 209.750 C 53.538 203.838, 53.178 199, 52.785 199 C 50.482 199, 49.786 204.109, 50.207 217.907 C 50.625 231.617, 50.837 232.893, 53.703 239 C 55.381 242.575, 57.047 246.400, 57.405 247.500 C 59.172 252.926, 68.616 260, 74.093 260 C 77.665 260, 85 256.679, 85 255.062 C 85 254.654, 86.135 253.804, 87.523 253.172 C 89.112 252.448, 90.268 250.908, 90.648 249.011 C 90.979 247.355, 91.692 246, 92.232 246 C 92.772 246, 92.942 245.292, 92.611 244.428 C 92.279 243.563, 92.548 241.875, 93.208 240.678 C 95.026 237.383, 97.874 198.532, 97.567 181.216 C 97.376 170.426, 97.621 166.039, 98.398 166.294 C 99.004 166.493, 99.637 168.759, 99.805 171.328 C 100.021 174.644, 100.538 176, 101.586 176 C 102.398 176, 103.283 175.426, 103.552 174.725 C 104.391 172.538, 102.213 152.642, 100.822 149.792 C 98.905 145.864, 92.496 144.562, 79.659 145.495 C 55.713 147.235, 48.862 147.463, 47.949 146.550 C 46.659 145.259, 46.753 141.330, 48.136 138.746 C 48.771 137.558, 49.225 132.630, 49.166 127.561 C 49.075 119.817, 49.237 118.852, 50.280 120.921 C 52.285 124.900, 53.578 124.338, 54.823 118.948 C 57.477 107.450, 55.598 103.159, 49.250 106.220 M 220.713 150.709 C 218.396 151.402, 215.503 151.976, 214.285 151.985 C 211.409 152.005, 209.718 155.127, 210.900 158.236 C 211.437 159.650, 211.418 164.205, 210.853 169.552 C 209.514 182.210, 209.624 184.672, 211.691 188.210 C 214.983 193.847, 215.911 192.861, 215.272 184.410 C 214.806 178.249, 214.988 176.480, 216.178 175.600 C 217.539 174.596, 220.016 167.631, 221.461 160.750 C 222.012 158.123, 222.305 158, 227.980 158 C 236.508 158, 238.870 161.208, 239.024 173 C 239.093 178.321, 233.651 202.999, 232.409 203 C 231.809 203, 229.267 202.383, 226.760 201.628 C 224.074 200.820, 221.648 200.608, 220.851 201.113 C 220.108 201.584, 217.925 201.983, 216 202 C 211.763 202.037, 210.311 202.863, 209.850 205.500 C 209.535 207.298, 209.986 207.475, 214.317 207.251 C 216.967 207.114, 220.117 207.531, 221.317 208.177 C 223.796 209.512, 238.888 211.927, 240.673 211.274 C 242.754 210.513, 243.026 207.950, 241.366 204.741 C 240.010 202.119, 239.930 200.816, 240.873 196.728 C 241.493 194.044, 242 190.835, 242 189.598 C 242 188.361, 243.024 186.387, 244.275 185.211 C 246.371 183.243, 246.542 182.263, 246.451 172.787 C 246.344 161.573, 244.745 155.378, 241.500 153.598 C 240.400 152.994, 239.186 152.062, 238.803 151.527 C 237.629 149.888, 225.319 149.331, 220.713 150.709 M 177.500 154.218 C 174.750 154.759, 171.375 155.172, 170 155.137 C 164.473 154.995, 153.348 158.500, 149.040 161.741 C 148.787 161.931, 148.491 164.880, 148.383 168.293 C 148.078 177.958, 145.657 192.285, 144.250 192.752 C 142.485 193.338, 142.690 196, 144.500 196 C 145.663 196, 146 197.320, 146 201.878 C 146 206.008, 146.468 208.144, 147.576 209.063 C 149.893 210.986, 150.793 208.900, 150.220 202.938 C 149.803 198.602, 149.974 198.002, 151.623 198.015 C 152.655 198.024, 154.123 198.425, 154.885 198.908 C 155.740 199.450, 157.606 199.227, 159.761 198.326 C 163.105 196.929, 163.367 196.978, 165.969 199.470 C 168.383 201.783, 169.579 202.096, 176.750 202.286 C 181.185 202.404, 185.105 202.214, 185.459 201.865 C 185.814 201.516, 187.473 196.566, 189.148 190.865 C 193.300 176.725, 194.068 164.204, 191.183 157.681 C 189.295 153.413, 188.821 153.010, 185.806 153.118 C 183.988 153.182, 180.250 153.678, 177.500 154.218 M 177.500 162.489 C 176.324 163.303, 172.275 163.988, 167.670 164.151 C 158.956 164.461, 158.710 164.650, 157.600 171.909 C 157.229 174.333, 156.205 177.538, 155.324 179.030 C 153.890 181.456, 153.872 182.361, 155.157 187.621 L 156.592 193.500 163.546 193.721 C 167.371 193.842, 171.937 193.957, 173.694 193.976 C 175.451 193.995, 177.165 194.458, 177.503 195.005 C 178.458 196.550, 182.718 196.177, 183.365 194.491 C 183.683 193.662, 183.526 191.884, 183.016 190.542 C 182.097 188.126, 182.693 182.567, 184.917 172.798 C 185.670 169.488, 185.674 167.274, 184.931 165.318 C 183.252 160.902, 181.021 160.052, 177.500 162.489 M 151.500 184 C 151.160 184.550, 151.359 185, 151.941 185 C 152.523 185, 153 184.550, 153 184 C 153 183.450, 152.802 183, 152.559 183 C 152.316 183, 151.840 183.450, 151.500 184 M 139.272 232 C 139.272 234.475, 139.467 235.488, 139.706 234.250 C 139.944 233.012, 139.944 230.988, 139.706 229.750 C 139.467 228.512, 139.272 229.525, 139.272 232" stroke="none" fill="black" fill-rule="evenodd"/>
</svg>