<svg xmlns="http://www.w3.org/2000/svg" width="300" height="300" viewBox="0 0 300 300" version="1.1">
	<path d="M 111.383 49.728 C 107.468 54.003, 103.081 58.803, 101.633 60.396 C 100.185 61.989, 99 63.753, 99 64.317 C 99 64.881, 98.389 66.053, 97.641 66.921 C 96.894 67.790, 94.047 72.775, 91.314 78 C 85.150 89.787, 81.864 95.020, 77.633 99.787 C 73.504 104.438, 70.184 110.378, 59.788 131.715 C 56.387 138.696, 56.620 141.300, 60.602 140.817 C 62.709 140.561, 63.505 139.628, 64.711 136 C 65.533 133.525, 66.770 130.825, 67.459 130 C 68.148 129.175, 70.284 125.575, 72.206 122 C 78.808 109.715, 83.098 103.001, 86.421 99.754 C 90.024 96.232, 98 84.393, 98 82.567 C 98 80.196, 105.089 66.797, 107.969 63.724 C 109.631 61.951, 110.993 59.938, 110.995 59.250 C 110.998 58.563, 111.483 58, 112.074 58 C 112.665 58, 115.835 55.438, 119.118 52.306 C 125.903 45.834, 126.645 42.695, 121.500 42.228 C 118.895 41.992, 117.562 42.980, 111.383 49.728 M 188.938 53.795 C 181.898 59.901, 173.513 69.424, 169.500 75.871 C 168.950 76.754, 167.714 78.553, 166.753 79.869 C 165.793 81.185, 164.567 83.893, 164.030 85.888 C 163.422 88.148, 159.933 93.046, 154.777 98.879 C 142.668 112.577, 135 122.167, 135 123.612 C 135 125.526, 136.735 126.212, 138.793 125.111 C 141.281 123.779, 152.861 111.762, 158.171 105 C 160.547 101.975, 163.535 98.656, 164.811 97.625 C 167.238 95.665, 171.683 89.276, 173.594 85 C 174.208 83.625, 176.351 80.359, 178.356 77.741 C 180.360 75.124, 182 72.632, 182 72.204 C 182 71.775, 183.316 69.866, 184.923 67.962 C 187.465 64.952, 188.085 64.664, 189.673 65.756 C 190.678 66.447, 192.175 67.267, 193 67.579 C 196.515 68.904, 197.587 69.820, 199.110 72.798 C 199.996 74.529, 200.987 75.680, 201.312 75.355 C 201.637 75.030, 202.185 76.055, 202.529 77.632 C 203.519 82.163, 205.280 85.141, 207.991 86.868 C 209.371 87.746, 211.088 89.261, 211.807 90.233 C 212.525 91.205, 213.795 92, 214.628 92 C 216.079 92, 221.670 96.435, 232.173 105.917 C 235.976 109.351, 237.332 110.068, 238.264 109.136 C 239.196 108.204, 238.935 106.942, 237.093 103.468 C 235.789 101.011, 234.374 99, 233.949 99 C 233.524 99, 230.099 96.092, 226.338 92.538 C 216.296 83.048, 214.306 81.331, 212.568 80.665 C 211.706 80.334, 211 79.477, 211 78.760 C 211 78.044, 208.129 74.500, 204.619 70.886 C 201.110 67.271, 197.735 63.373, 197.119 62.223 C 195.745 59.655, 195.699 56.005, 197.015 54 C 197.828 52.762, 198.152 52.736, 198.870 53.848 C 200.259 56.002, 203.500 54.808, 203.500 52.141 C 203.500 50.092, 202.947 49.766, 198.931 49.450 C 194.702 49.117, 193.959 49.440, 188.938 53.795 M 127.179 78.750 C 125.461 80.813, 123.786 83.850, 123.455 85.500 C 123.124 87.150, 121.576 91.200, 120.013 94.500 C 118.451 97.800, 115.318 104.512, 113.053 109.416 C 110.787 114.320, 106.923 121.355, 104.466 125.051 C 102.010 128.746, 100 131.997, 100 132.277 C 100 133.009, 89.179 150.138, 87.563 151.964 C 86.815 152.809, 85.223 155.263, 84.025 157.417 C 82.827 159.571, 78.394 165.575, 74.173 170.758 C 63.040 184.432, 60.826 187.756, 61.183 190.258 C 61.733 194.109, 64.657 193.478, 67.694 188.852 C 69.237 186.502, 72.265 182.987, 74.422 181.040 C 81.185 174.935, 82.925 172.806, 90.805 161 C 98.949 148.797, 101.917 143.229, 101.283 141.342 C 101.069 140.705, 101.368 139.890, 101.947 139.533 C 102.577 139.143, 103 139.886, 103 141.382 C 103 142.757, 103.391 144.124, 103.869 144.419 C 104.347 144.714, 104.511 150.092, 104.234 156.369 C 103.957 162.646, 104.232 174.244, 104.845 182.141 C 106.369 201.766, 106.494 233.792, 105.085 243.500 C 103.364 255.363, 104.614 282.837, 107.021 286.028 C 108.607 288.130, 109.115 288.269, 111.407 287.224 C 114.406 285.858, 114.844 284, 112.167 284 C 109.528 284, 109.005 283.117, 110.038 280.400 C 112.102 274.972, 112.892 228.576, 112.043 162.769 C 111.720 137.815, 111.574 136, 109.849 135.452 C 107.095 134.578, 107.545 132.897, 112.452 125.730 C 114.901 122.154, 117.213 117.939, 117.590 116.364 C 117.967 114.789, 118.624 113.050, 119.049 112.500 C 119.474 111.950, 120.616 109.475, 121.586 107 C 122.557 104.525, 124.397 100.933, 125.676 99.018 C 126.954 97.103, 128 94.547, 128 93.339 C 128 92.131, 128.606 90.537, 129.346 89.797 C 131.027 88.116, 133.404 78.495, 132.634 76.488 C 131.752 74.190, 130.568 74.680, 127.179 78.750 M 166.859 131.896 C 160.931 132.754, 155 135.921, 155 138.227 C 155 140.130, 157.473 140.662, 158.510 138.984 C 158.856 138.425, 159.585 138.244, 160.132 138.582 C 160.679 138.919, 161.953 138.448, 162.964 137.533 C 164.181 136.431, 165.025 136.231, 165.464 136.942 C 165.829 137.532, 165.423 138.284, 164.563 138.614 C 161.781 139.682, 162.815 141.269, 165.750 140.436 C 167.262 140.006, 170.075 139.509, 172 139.331 C 179.745 138.615, 183 137.744, 183 136.391 C 183 134.221, 184.704 134.758, 185.322 137.123 C 185.829 139.061, 186.295 139.178, 190.688 138.466 C 193.335 138.037, 196.400 137.752, 197.500 137.834 C 198.600 137.915, 202.650 138.129, 206.500 138.308 C 210.350 138.488, 215.188 139, 217.250 139.448 C 220.655 140.187, 221 140.068, 221 138.154 C 221 135.154, 216.447 132.554, 210.542 132.182 C 199.004 131.454, 171.166 131.272, 166.859 131.896 M 90.500 155 C 90.160 155.550, 90.332 156, 90.882 156 C 91.432 156, 92.160 155.550, 92.500 155 C 92.840 154.450, 92.668 154, 92.118 154 C 91.568 154, 90.840 154.450, 90.500 155 M 194.500 163.963 C 192.850 164.403, 189.403 164.817, 186.839 164.882 C 184.276 164.947, 179.326 165.894, 175.839 166.987 C 172.353 168.080, 167.475 168.989, 165 169.006 C 157.810 169.058, 150.500 171.301, 150.500 173.456 C 150.500 176.564, 153.285 177.503, 157.002 175.649 C 161.026 173.641, 161 173.642, 161 175.500 C 161 177.538, 162.812 177.415, 177.669 174.371 C 187.693 172.317, 193.635 171.716, 204.830 171.621 C 217.790 171.512, 219.293 171.680, 220.538 173.383 C 221.685 174.952, 221.695 175.701, 220.597 177.883 C 219.873 179.322, 218.497 183.200, 217.539 186.500 C 214.268 197.773, 208.739 209.771, 202.100 220 C 200.137 223.025, 197.701 227.235, 196.688 229.355 C 195.674 231.476, 193.361 235.301, 191.546 237.855 C 189.732 240.410, 187.505 243.963, 186.598 245.750 C 185.691 247.537, 184.331 249, 183.577 249 C 181.846 249, 169.329 241.520, 166 238.495 C 164.625 237.247, 162.488 235.919, 161.250 235.545 C 159.559 235.034, 159 234.110, 159 231.824 C 159 229.008, 158.797 228.834, 156.256 229.472 C 152.488 230.418, 151 231.841, 151 234.500 C 151 237.055, 152.377 238.428, 156 239.484 C 157.375 239.885, 159.175 240.976, 160 241.908 C 162.479 244.709, 168.762 249, 170.384 249 C 171.218 249, 172.260 249.609, 172.700 250.354 C 173.739 252.112, 177.369 254, 179.712 254 C 181.645 254, 184.173 256.402, 185.283 259.294 C 186.091 261.400, 188 261.544, 188 259.500 C 188 258.675, 188.436 258, 188.969 258 C 189.501 258, 189.682 258.665, 189.371 259.477 C 188.773 261.035, 190.182 261.805, 197.746 264.055 C 201.533 265.181, 202.210 265.120, 204.013 263.488 C 205.976 261.712, 206.090 261.720, 208.013 263.784 C 209.102 264.952, 211.456 266.134, 213.246 266.410 C 215.036 266.686, 218.750 267.254, 221.500 267.671 C 226.430 268.419, 235.786 268.219, 237.253 267.333 C 237.667 267.083, 237.558 266.042, 237.011 265.020 C 236.255 263.608, 234.392 263.006, 229.258 262.516 C 225.541 262.161, 221.600 261.480, 220.500 261.003 C 219.400 260.526, 217.150 259.905, 215.500 259.622 C 206.029 257.997, 195.637 255.813, 193.481 254.993 C 189.860 253.616, 190.376 251.261, 196.123 242.928 C 198.940 238.843, 201.502 234.825, 201.815 234 C 202.128 233.175, 204.210 229.784, 206.442 226.464 C 209.875 221.359, 219.357 203.243, 222.126 196.500 C 225.080 189.305, 228.293 178.692, 228.914 174.072 C 230.083 165.388, 228.559 164.662, 207 163.621 C 201.775 163.368, 196.150 163.522, 194.500 163.963 M 79.500 169 C 79.160 169.550, 79.190 170.498, 79.566 171.107 C 80.238 172.194, 81.948 170.528, 81.985 168.750 C 82.007 167.654, 80.221 167.834, 79.500 169 M 197.269 169.693 C 198.242 169.947, 199.592 169.930, 200.269 169.656 C 200.946 169.382, 200.150 169.175, 198.500 169.195 C 196.850 169.215, 196.296 169.439, 197.269 169.693 M 107.195 174.500 C 107.215 176.150, 107.439 176.704, 107.693 175.731 C 107.947 174.758, 107.930 173.408, 107.656 172.731 C 107.382 172.054, 107.175 172.850, 107.195 174.500 M 222.607 179.582 C 221.749 181.817, 221.817 182, 223.500 182 C 224.333 182, 225 181.111, 225 180 C 225 177.616, 223.464 177.347, 222.607 179.582 M 107.079 202.583 C 107.127 203.748, 107.364 203.985, 107.683 203.188 C 107.972 202.466, 107.936 201.603, 107.604 201.271 C 107.272 200.939, 107.036 201.529, 107.079 202.583 M 107 216.441 C 107 217.784, 107.418 219.140, 107.928 219.456 C 109.056 220.153, 110.379 216.423, 109.506 215.009 C 108.372 213.175, 107 213.960, 107 216.441" stroke="none" fill="black" fill-rule="evenodd"/>
</svg>