<svg xmlns="http://www.w3.org/2000/svg" width="300" height="300" viewBox="0 0 300 300" version="1.1">
	<path d="M 179.320 15.488 C 177.359 16.862, 177.232 17.622, 177.734 24.943 C 178.046 29.507, 177.765 35.517, 177.074 39.029 C 175.335 47.866, 175.590 67.985, 177.486 71.621 C 178.312 73.204, 178.990 75.682, 178.994 77.128 C 179.001 80.214, 181.001 82.236, 182.891 81.067 C 183.921 80.431, 183.995 79.219, 183.226 75.610 C 182.595 72.651, 182.584 70.757, 183.197 70.378 C 183.747 70.038, 183.879 67.754, 183.505 65.037 C 182.673 58.989, 183.915 57.670, 191.927 56.094 C 195.267 55.437, 198 54.472, 198 53.950 C 198 53.427, 199.323 53, 200.941 53 C 202.559 53, 204.160 52.550, 204.500 52 C 204.840 51.450, 205.836 51, 206.713 51 C 208.120 51, 212.785 49.037, 222.404 44.400 C 224.001 43.630, 226.556 43, 228.082 43 C 232.101 43, 234.219 40.575, 232.841 37.550 C 232.244 36.241, 230.799 34.919, 229.628 34.613 C 227.237 33.987, 218.646 36.242, 212.292 39.164 C 209.977 40.228, 204.174 42.420, 199.396 44.035 C 194.339 45.745, 190.118 47.814, 189.297 48.986 C 188.521 50.094, 187.012 51, 185.943 51 C 184.353 51, 184 50.296, 184 47.126 C 184 44.995, 184.675 41.338, 185.500 39 C 186.325 36.662, 187 33.214, 187 31.339 C 187 29.464, 187.704 26.855, 188.565 25.542 C 190.308 22.881, 190.797 17.358, 189.404 16.075 C 187.500 14.322, 181.485 13.972, 179.320 15.488 M 79.750 72.758 C 78.237 73.696, 77 74.809, 77 75.232 C 77 75.654, 75.425 76, 73.500 76 C 70.801 76, 70 76.410, 70 77.794 C 70 79.342, 70.926 79.589, 76.750 79.591 C 80.463 79.593, 85.673 80.204, 88.329 80.949 C 94.584 82.704, 122.886 81.783, 124.155 79.783 C 125.188 78.155, 125.177 77.828, 124.022 76 C 123.254 74.783, 119.814 74.438, 105.788 74.173 C 92.603 73.924, 88.125 73.508, 86.921 72.423 C 84.875 70.579, 83.134 70.660, 79.750 72.758 M 143.526 79.950 C 141.801 83.286, 141.568 86.148, 142.908 87.550 C 143.407 88.073, 144.102 101.322, 144.451 116.993 C 144.805 132.859, 145.511 145.911, 146.043 146.443 C 146.570 146.970, 147 148.155, 147 149.078 C 147 150.891, 148.669 152.637, 150.908 153.168 C 152.067 153.442, 152.342 150.293, 152.494 135 C 152.768 107.394, 152.716 108, 154.809 108 C 155.804 108, 157.491 107.339, 158.559 106.532 C 159.626 105.724, 161.907 105.049, 163.628 105.032 C 165.348 105.014, 167.289 104.357, 167.942 103.570 C 168.594 102.784, 172.475 101.351, 176.564 100.387 C 183.434 98.768, 185.954 96.866, 182.750 95.719 C 181.752 95.362, 200.730 95.514, 205.750 95.903 C 206.438 95.956, 207 96.527, 207 97.171 C 207 97.815, 207.755 99.177, 208.678 100.197 C 210.186 101.863, 210.223 102.724, 209.043 108.660 C 208.321 112.294, 206.891 117.564, 205.865 120.370 C 204.839 123.176, 204 126.075, 204 126.812 C 204 128.025, 196.939 137.887, 192.937 142.266 C 191.990 143.301, 189.308 144.235, 186.453 144.524 C 183.775 144.795, 181.137 145.463, 180.592 146.008 C 180.046 146.554, 178.586 147, 177.347 147 C 174.631 147, 170 148.992, 170 150.161 C 170 150.622, 168.569 151, 166.821 151 C 163.127 151, 157.086 152.946, 155.179 154.750 C 154.452 155.438, 153.214 156, 152.429 156 C 151.429 156, 151 157.200, 151 160 C 151 163.437, 151.317 164.021, 153.250 164.151 C 157.873 164.461, 161.010 163.823, 168.652 161.019 C 172.968 159.436, 178.750 157.361, 181.500 156.408 C 184.250 155.456, 187.175 154.433, 188 154.135 C 188.825 153.837, 192.650 153.122, 196.500 152.547 C 202.476 151.653, 203.544 151.189, 203.803 149.375 C 203.970 148.206, 203.356 146.498, 202.438 145.581 C 200.628 143.771, 200.429 144.190, 206.222 137.632 C 208.381 135.189, 213.619 124.409, 214.565 120.464 C 214.956 118.834, 215.739 116.914, 216.305 116.197 C 217.751 114.364, 217.584 104.506, 215.984 97.297 C 214.021 88.447, 212.090 87.500, 196 87.500 C 186.667 87.500, 181.980 87.969, 177.500 89.350 C 165.715 92.984, 161.613 95.037, 161.149 97.534 C 160.575 100.628, 158.983 102, 155.966 102 C 153.294 102, 153.158 101.760, 152.696 96.250 C 152.431 93.088, 151.889 89.263, 151.491 87.750 C 150.845 85.299, 151.034 85, 153.228 85 C 155.614 85, 159.016 82.294, 158.985 80.421 C 158.936 77.494, 157.261 76.776, 153.583 78.106 C 150.685 79.154, 149.513 79.177, 147.973 78.215 C 145.331 76.565, 145.262 76.592, 143.526 79.950 M 92.473 79.956 C 92.798 80.482, 93.725 80.659, 94.532 80.349 C 96.599 79.556, 96.356 79, 93.941 79 C 92.809 79, 92.148 79.430, 92.473 79.956 M 107.500 100.492 C 105.667 101.764, 96.141 104.789, 86.661 107.110 C 84.550 107.627, 81.080 108.939, 78.951 110.025 C 76.822 111.111, 73.960 112, 72.591 112 C 69.789 112, 65 115.938, 65 118.242 C 65 120.818, 67.259 121.730, 73.715 121.761 C 77.974 121.781, 80.311 121.330, 81.142 120.329 C 82.984 118.109, 87.583 116, 90.582 116 C 92.057 116, 94.667 115.134, 96.382 114.075 C 98.097 113.017, 101.724 111.592, 104.442 110.908 C 107.160 110.225, 111.210 108.621, 113.442 107.345 C 116.369 105.671, 119.086 105.021, 123.191 105.012 C 129.602 104.998, 130.858 104.025, 128.308 101.047 C 126.789 99.272, 125.421 99.007, 118.028 99.052 C 112.461 99.087, 108.806 99.586, 107.500 100.492 M 123.500 128.677 C 121.850 129.570, 119.825 130.686, 119 131.157 C 118.175 131.628, 116.825 132.266, 116 132.575 C 115.175 132.884, 112.250 134.207, 109.500 135.515 C 102.231 138.971, 95.207 142, 94.463 142 C 94.107 142, 92.673 142.898, 91.277 143.997 C 89.881 145.095, 87.018 146.457, 84.914 147.023 C 82.811 147.589, 80.427 148.716, 79.616 149.526 C 78.806 150.337, 77.211 151, 76.071 151 C 74.932 151, 74 151.450, 74 152 C 74 152.550, 72.670 153, 71.045 153 C 68.471 153, 68.008 153.442, 67.446 156.435 C 67.092 158.324, 67.077 160.316, 67.414 160.861 C 68.427 162.501, 79.121 160.908, 84.217 158.359 C 86.811 157.062, 89.568 156, 90.344 156 C 91.120 156, 92.296 155.348, 92.958 154.551 C 93.619 153.754, 95.811 152.558, 97.830 151.894 C 99.848 151.229, 101.950 150.114, 102.500 149.416 C 103.050 148.718, 105.525 147.128, 108 145.883 C 110.475 144.638, 113.850 142.646, 115.500 141.457 C 117.150 140.268, 119.287 139.018, 120.250 138.679 C 121.213 138.340, 122 137.647, 122 137.140 C 122 136.632, 123.013 135.940, 124.250 135.601 C 127.664 134.667, 129.795 132.665, 130.542 129.688 C 131.133 127.336, 130.922 127.003, 128.858 127.027 C 127.561 127.041, 125.150 127.784, 123.500 128.677 M 90 150 C 90 150.550, 90.900 151, 92 151 C 93.100 151, 94 150.550, 94 150 C 94 149.450, 93.100 149, 92 149 C 90.900 149, 90 149.450, 90 150 M 101.158 185.310 C 100.560 186.030, 100.168 187.942, 100.286 189.560 C 100.433 191.582, 100.077 192.411, 99.146 192.215 C 97.035 191.772, 94.001 193.009, 93.994 194.317 C 93.990 194.968, 93.385 196.655, 92.648 198.067 C 91.912 199.478, 90.988 201.953, 90.597 203.567 C 89.672 207.376, 85.566 218.149, 82.618 224.500 C 79.657 230.880, 78.072 235.357, 76.780 241 C 76.213 243.475, 75.318 245.774, 74.792 246.110 C 74.266 246.445, 73.596 249.370, 73.303 252.610 C 72.859 257.517, 73.104 258.912, 74.770 260.968 C 76.489 263.087, 76.999 263.246, 78.385 262.095 C 79.273 261.358, 80.005 259.798, 80.011 258.628 C 80.026 255.724, 82.384 248.179, 84.912 242.947 C 86.060 240.569, 86.998 237.921, 86.996 237.062 C 86.993 236.203, 88.533 232.350, 90.417 228.500 C 92.301 224.650, 94.438 220.037, 95.165 218.250 C 95.893 216.463, 96.808 215, 97.199 215 C 97.590 215, 98.213 213.313, 98.585 211.250 C 98.957 209.188, 99.591 207.050, 99.995 206.500 C 100.399 205.950, 100.961 203.676, 101.243 201.446 C 101.635 198.359, 102.780 196.390, 106.044 193.190 C 110.068 189.245, 110.249 188.834, 108.997 186.494 C 107.513 183.722, 103.037 183.045, 101.158 185.310 M 171.968 189.077 C 171.040 191.317, 170.192 192.022, 168.848 191.670 C 167.833 191.405, 166.775 191.555, 166.498 192.004 C 165.701 193.293, 167.080 196, 168.534 196 C 169.261 196, 170.740 197.125, 171.821 198.500 C 174.070 201.358, 175 201.651, 175 199.500 C 175 196.900, 177.851 197.871, 178.184 200.584 C 178.445 202.718, 179.450 203.501, 183.962 205.084 C 191.592 207.761, 195 207.648, 195 204.719 C 195 202.938, 194.077 202.117, 190.783 200.969 C 188.007 200.002, 185.773 198.304, 184.249 196 C 182.975 194.075, 181.356 191.805, 180.652 190.956 C 179.948 190.106, 179.077 188.644, 178.717 187.706 C 177.581 184.746, 173.411 185.593, 171.968 189.077 M 223.250 189.175 C 221.463 189.660, 220.007 190.382, 220.015 190.779 C 220.049 192.372, 221.640 193.726, 224.220 194.358 C 227.931 195.266, 231.991 199.844, 231.742 202.841 C 231.614 204.396, 232.371 205.843, 233.858 206.882 C 235.132 207.772, 238.861 211.152, 242.143 214.394 C 248.527 220.698, 250.935 220.980, 248.915 215.187 C 248.304 213.434, 247.398 212, 246.902 212 C 246.406 212, 245.991 211.438, 245.979 210.750 C 245.967 210.063, 243.492 206.912, 240.479 203.749 C 237.466 200.586, 235 197.743, 235 197.432 C 235 196.330, 229.665 189.892, 228.095 189.099 C 227.218 188.656, 225.037 188.690, 223.250 189.175 M 125.750 200.112 C 122.065 202.014, 122 202.149, 122 207.898 C 122 211.116, 121.393 215.493, 120.651 217.624 C 118.898 222.659, 117.531 266.256, 119.038 269.071 C 120.304 271.437, 122.279 271.519, 125.602 269.341 C 126.995 268.429, 130.517 267.577, 133.430 267.448 C 138.922 267.204, 142.157 268.167, 140.107 269.434 C 137.827 270.843, 139.131 272, 143 272 C 146.895 272, 150.171 269.986, 151.176 266.973 C 151.446 266.161, 153.724 265.633, 157.440 265.522 C 162.338 265.376, 163.355 265.642, 163.756 267.174 C 164.103 268.503, 165.185 269, 167.733 269 C 170.741 269, 171.160 268.719, 170.710 267 C 170.265 265.297, 170.656 265.017, 173.344 265.116 C 175.080 265.180, 175.713 265.438, 174.750 265.689 C 171.678 266.492, 172.713 269, 176.117 269 C 178.741 269, 179.151 268.684, 178.710 267 C 177.991 264.250, 180.675 264.377, 182.963 267.202 C 184.587 269.208, 185.090 269.302, 188.623 268.251 C 190.755 267.617, 196.325 266.833, 201 266.509 C 205.675 266.185, 209.650 265.488, 209.833 264.960 C 210.017 264.432, 212.574 264, 215.516 264 C 220.071 264, 220.964 263.688, 221.531 261.901 C 222.688 258.256, 221.010 251.315, 217.951 247.091 C 216.328 244.851, 215 242.660, 215 242.223 C 215 241.786, 213.126 239.988, 210.836 238.228 C 205.271 233.951, 204 235.036, 204 244.063 C 204 247.814, 204.450 251.160, 205 251.500 C 206.897 252.672, 206.069 255.947, 203.750 256.447 C 202.512 256.714, 193.850 257.434, 184.500 258.047 C 148.653 260.397, 142.309 260.913, 136.202 261.969 C 132.739 262.569, 129.455 262.781, 128.905 262.441 C 127.341 261.475, 129.216 226.486, 131.889 206.755 C 132.522 202.085, 132.371 200.744, 131.084 199.593 C 129.710 198.364, 129.003 198.433, 125.750 200.112 M 123.649 223.233 C 123.328 224.461, 123.501 225.901, 124.033 226.433 C 124.656 227.056, 125 226.261, 125 224.200 C 125 220.460, 124.473 220.083, 123.649 223.233 M 209.583 260.866 C 209.152 261.563, 209.070 262.403, 209.400 262.733 C 210.295 263.628, 211.271 262.312, 210.787 260.862 C 210.449 259.846, 210.213 259.846, 209.583 260.866 M 193.615 264.560 C 193.129 265.828, 193.702 266.062, 196.681 265.810 C 198.894 265.623, 200.505 264.906, 200.749 264 C 201.075 262.789, 200.969 262.761, 200.203 263.853 C 199.476 264.891, 198.774 264.949, 197.193 264.103 C 194.528 262.677, 194.328 262.703, 193.615 264.560 M 144.500 268 C 142.834 268.716, 143.052 268.871, 145.809 268.930 C 147.775 268.971, 148.867 268.594, 148.500 268 C 147.780 266.834, 147.213 266.834, 144.500 268" stroke="none" fill="black" fill-rule="evenodd"/>
</svg>