<svg xmlns="http://www.w3.org/2000/svg" width="300" height="300" viewBox="0 0 300 300" version="1.1">
	<path d="M 126.596 33.137 C 125.061 38.020, 122.535 44.662, 121.877 45.543 C 121.448 46.117, 120.807 49.717, 120.451 53.543 C 119.716 61.440, 116.390 72.236, 111.530 82.500 C 109.707 86.350, 107.937 90.175, 107.597 91 C 107.256 91.825, 106.195 93.698, 105.239 95.162 C 104.283 96.626, 102.050 100.309, 100.278 103.346 C 98.507 106.384, 96.427 109.236, 95.658 109.684 C 93.239 111.094, 87.652 125.134, 87.573 130 C 87.506 134.153, 87.693 134.500, 90 134.500 C 92.082 134.500, 92.668 133.831, 93.507 130.500 C 94.649 125.967, 96.369 123.103, 103.201 114.358 C 105.841 110.980, 108 107.859, 108 107.423 C 108 106.986, 108.842 105.700, 109.871 104.564 C 112.638 101.511, 120 87.232, 120 84.919 C 120 83.819, 120.912 81.685, 122.028 80.176 C 123.143 78.668, 124.329 75.649, 124.663 73.467 C 124.997 71.285, 125.777 68.825, 126.396 68 C 128.623 65.033, 131 60.160, 131 58.561 C 131 57.664, 130.256 55.793, 129.346 54.405 C 127.851 52.123, 127.841 51.731, 129.243 50.329 C 130.645 48.926, 130.861 48.986, 131.483 50.945 C 132.412 53.873, 135.500 53.220, 135.500 50.095 C 135.500 48.754, 134.628 47.235, 133.500 46.609 C 132.400 45.999, 131.307 45.382, 131.071 45.238 C 130.835 45.093, 131.623 43.649, 132.821 42.028 C 135.532 38.361, 135.786 33.006, 133.250 32.986 C 132.287 32.979, 130.493 32.703, 129.262 32.373 C 127.825 31.988, 126.871 32.261, 126.596 33.137 M 226.333 61.524 C 223.491 62.290, 214.041 63.379, 205.333 63.944 C 196.625 64.509, 186.575 65.424, 183 65.976 C 165.663 68.655, 139.641 70.085, 135.201 68.602 C 132.119 67.573, 128 70.292, 128 73.356 C 128 74.627, 128.247 75.914, 128.549 76.216 C 128.851 76.518, 129.225 80.305, 129.379 84.633 C 129.566 89.854, 130.463 94.686, 132.048 99 C 134.356 105.283, 134.427 106.322, 134.178 130.091 C 134.021 145.091, 134.343 156.568, 135.003 159.516 C 135.599 162.174, 136.284 173.116, 136.526 183.832 C 136.965 203.322, 137.911 208.409, 140.766 206.645 C 141.879 205.956, 141.797 181.464, 140.677 180.344 C 140.404 180.071, 140.928 178.542, 141.840 176.947 C 143.208 174.557, 143.280 173.692, 142.250 172.037 C 140.204 168.747, 140.806 165.890, 144.250 162.551 C 148.371 158.555, 150.580 157.721, 153.015 159.241 C 154.531 160.188, 155.215 160.185, 156.175 159.225 C 157.974 157.426, 161 157.718, 161 159.691 C 161 161.204, 161.131 161.219, 162.250 159.831 C 163.973 157.694, 172.157 155.656, 175.804 156.457 C 177.561 156.843, 179.081 156.677, 179.464 156.059 C 180.458 154.450, 184 154.795, 184 156.500 C 184 158.427, 188.921 158.510, 191.496 156.627 C 193.295 155.311, 193.272 155.221, 190.953 154.485 L 188.533 153.717 190.859 152.857 C 193.523 151.871, 195 152.478, 195 154.559 C 195 156.909, 203.461 155.716, 206 153.007 C 206.275 152.714, 207.850 152.019, 209.500 151.463 C 211.935 150.642, 212.500 149.891, 212.500 147.476 C 212.500 144.805, 212.193 144.514, 209.500 144.639 C 205.862 144.808, 198.638 146.698, 194.349 148.601 C 192.616 149.371, 189.102 150, 186.540 150 C 181.264 150, 168.266 151.766, 166 152.790 C 165.175 153.163, 160.406 153.476, 155.402 153.484 L 146.304 153.500 145.127 147.819 C 144.405 144.335, 144.177 138.339, 144.538 132.319 C 145.338 118.941, 145.559 118.072, 147.996 118.709 C 149.424 119.083, 150 118.742, 150 117.523 C 150 116.582, 149.162 115.594, 148.137 115.326 C 146.585 114.920, 146.186 113.547, 145.743 107.077 C 145.450 102.809, 145.594 97.332, 146.062 94.908 C 146.530 92.484, 146.932 87.549, 146.956 83.941 C 147.010 75.881, 148.610 73.034, 152.136 74.728 C 153.560 75.413, 153.904 75.898, 153 75.948 C 151.771 76.016, 151.746 76.187, 152.861 76.893 C 154.835 78.144, 158.222 77.021, 157.573 75.331 C 156.847 73.437, 159.830 72.413, 162.044 73.795 C 163.424 74.657, 163.947 74.580, 164.380 73.453 C 165.143 71.465, 171.872 71.503, 172.638 73.500 C 172.989 74.414, 174.503 75, 176.513 75 C 179.295 75, 179.733 74.693, 179.302 73.045 C 178.705 70.763, 182.414 69.385, 186.439 70.395 C 187.780 70.732, 189.157 70.556, 189.498 70.004 C 190.274 68.747, 198 68.668, 198 69.917 C 198 70.421, 197.438 71.060, 196.750 71.338 C 196.063 71.615, 197.135 71.878, 199.133 71.921 C 201.999 71.983, 202.881 71.564, 203.306 69.939 C 203.763 68.191, 204.503 67.925, 208.172 68.189 C 211.648 68.439, 212.442 68.844, 212.206 70.250 C 212.002 71.469, 212.570 72, 214.079 72 C 215.906 72, 216.047 71.762, 214.980 70.476 C 213.342 68.502, 213.534 68.389, 219.734 67.689 C 223.394 67.276, 224.897 67.441, 224.734 68.240 C 224.211 70.795, 227.878 70.026, 229.177 67.308 C 230.858 63.791, 235.599 62.600, 234.733 65.912 C 234.294 67.591, 234.647 68, 236.535 68 C 237.826 68, 239.175 67.526, 239.534 66.946 C 239.967 66.244, 240.973 66.408, 242.540 67.434 C 243.835 68.283, 245.594 68.709, 246.448 68.382 C 248.740 67.502, 248.332 63.346, 245.777 61.557 C 242.996 59.609, 233.499 59.593, 226.333 61.524 M 133.620 88.547 C 132.932 90.340, 134.553 94, 136.035 94 C 137.509 94, 137.183 89.397, 135.617 88.097 C 134.547 87.209, 134.095 87.311, 133.620 88.547 M 187.500 110.610 C 184.200 111.421, 180.724 111.886, 179.776 111.643 C 178.828 111.400, 176.353 111.569, 174.276 112.020 C 172.199 112.470, 166.715 113.083, 162.088 113.381 C 157.462 113.680, 153.297 114.303, 152.833 114.767 C 151.503 116.097, 155.933 120.245, 157.852 119.469 C 158.758 119.103, 161.198 118.562, 163.274 118.267 C 165.350 117.972, 167.289 117.341, 167.583 116.865 C 168.327 115.661, 173 115.776, 173 116.998 C 173 117.590, 174.728 117.777, 177.250 117.456 C 179.588 117.159, 183.380 116.951, 185.678 116.993 C 188.800 117.051, 190.392 116.496, 191.973 114.799 C 193.718 112.925, 194.244 112.778, 194.973 113.957 C 195.658 115.064, 197.962 115.329, 205.179 115.127 C 215.102 114.850, 217.158 114.062, 215.371 111.222 C 213.896 108.879, 196.130 108.488, 187.500 110.610 M 107.250 191.723 C 103.886 192.141, 103.655 192.542, 103.985 197.396 C 104.093 198.989, 103.722 201.239, 103.161 202.396 C 101.597 205.619, 99.140 218.386, 97.945 229.500 C 97.353 235, 95.936 242.598, 94.796 246.385 C 92.949 252.521, 92.799 254.752, 93.416 266.885 C 94.005 278.454, 94.401 280.796, 96.054 282.472 C 97.124 283.557, 98.019 284.007, 98.042 283.472 C 98.065 282.938, 98.239 277.024, 98.429 270.331 C 98.619 263.638, 99.278 255.988, 99.894 253.331 C 101.108 248.096, 104.872 225.372, 105.332 220.500 C 105.487 218.850, 106.377 216.060, 107.307 214.300 C 108.238 212.539, 109 210.540, 109 209.856 C 109 209.173, 110.614 205.302, 112.587 201.255 C 117.452 191.276, 117.023 190.511, 107.250 191.723 M 145.556 200.910 C 144.708 202.282, 146.032 205, 147.548 205 C 149.343 205, 150.140 203.529, 149.396 201.590 C 148.732 199.858, 146.455 199.455, 145.556 200.910 M 194.200 218.200 C 192.742 219.658, 192.629 222.653, 194 223.500 C 194.550 223.840, 195 225.079, 195 226.254 C 195 227.428, 196.384 229.764, 198.076 231.445 C 199.768 233.125, 204.473 238.002, 208.532 242.282 C 216.525 250.713, 221.707 253.762, 225.023 251.988 C 228.078 250.353, 227.499 248, 224.042 248 C 221.011 248, 217.625 245.224, 210 236.491 C 202.418 227.807, 199 223.081, 199 221.282 C 199 219.481, 197.262 217, 196 217 C 195.670 217, 194.860 217.540, 194.200 218.200 M 250.212 224.763 C 248.707 225.264, 248.596 229, 250.087 229 C 250.684 229, 253.985 231.700, 257.421 235 C 260.858 238.300, 264.194 241, 264.835 241 C 265.476 241, 266 239.848, 266 238.440 C 266 236.737, 264.312 234.096, 260.958 230.549 C 256.218 225.538, 253.033 223.822, 250.212 224.763 M 130.223 237.557 C 127.021 239.799, 127.469 242.509, 131.448 244.968 C 133.345 246.140, 135.153 247.906, 135.466 248.893 C 137.199 254.354, 149.479 268.632, 153.647 270.031 C 155.620 270.693, 157.239 272.164, 157.989 273.974 C 159.082 276.612, 159.745 276.921, 165.672 277.555 C 169.915 278.010, 172.351 278.751, 172.715 279.700 C 173.157 280.851, 174.772 281.043, 180.561 280.633 C 185.863 280.257, 188.147 280.472, 188.935 281.422 C 190.117 282.846, 198.286 283.271, 197.416 281.864 C 197.122 281.389, 197.753 281, 198.819 281 C 199.884 281, 201.288 280.358, 201.939 279.573 C 203.235 278.012, 215.146 276.354, 216.969 277.481 C 217.799 277.994, 217.782 278.557, 216.906 279.613 C 215.152 281.726, 216.355 282.285, 220.979 281.504 C 224.448 280.917, 225.047 280.471, 224.797 278.654 C 224.580 277.084, 224.968 276.578, 226.227 276.788 C 227.176 276.947, 229.063 276.350, 230.419 275.461 C 231.775 274.573, 233.923 274.027, 235.192 274.249 C 237.319 274.621, 237.226 274.786, 234 276.355 L 230.500 278.058 236 277.418 C 246.127 276.240, 251.379 272.606, 248.549 268.736 C 247.095 266.748, 245.874 266.613, 241.571 267.964 C 231.476 271.132, 218.330 273.305, 201 274.670 C 197.975 274.908, 195.050 275.140, 194.500 275.186 C 191.155 275.463, 170.993 273.866, 168.500 273.126 C 164.277 271.874, 160 269.802, 160 269.008 C 160 268.639, 157.807 266.916, 155.127 265.179 C 150.191 261.981, 142.603 252.092, 139.643 245 C 138.068 241.228, 134.297 236, 133.150 236 C 132.762 236, 131.445 236.701, 130.223 237.557 M 132.171 254.060 C 133.331 257.388, 136.008 260.063, 135.986 257.872 C 135.955 254.740, 134.703 252.156, 133.001 251.710 C 131.407 251.294, 131.306 251.580, 132.171 254.060 M 104.467 281.053 C 103.655 282.367, 107.220 285.999, 109.307 285.985 C 112.383 285.963, 114.395 284.472, 113.720 282.713 C 113.152 281.232, 105.234 279.812, 104.467 281.053" stroke="none" fill="black" fill-rule="evenodd"/>
</svg>