<svg xmlns="http://www.w3.org/2000/svg" width="300" height="300" viewBox="0 0 300 300" version="1.1">
	<path d="M 227.841 27.952 C 226.379 28.407, 223.148 30.178, 220.661 31.889 C 218.174 33.600, 215.650 35, 215.051 35 C 213.321 35, 203.580 40.264, 202.718 41.666 C 202.221 42.473, 200.858 42.722, 198.983 42.347 C 195.097 41.569, 194.185 43.867, 196.417 48.815 C 197.336 50.854, 198.126 53.642, 198.173 55.011 C 198.336 59.842, 202.233 72.563, 205.099 77.622 C 208.558 83.729, 208.621 86.190, 205.451 91.500 C 204.137 93.700, 202.112 97.448, 200.950 99.828 C 198.685 104.469, 191.714 110.152, 187.247 111 C 183.088 111.790, 184.584 113.518, 189.265 113.331 C 199.408 112.925, 202.182 111.809, 206.250 106.500 C 208.356 103.750, 210.345 100.253, 210.669 98.729 C 210.993 97.205, 211.683 95.696, 212.201 95.376 C 213.135 94.798, 222 103.326, 222 104.802 C 222 105.223, 224.363 107.852, 227.250 110.642 C 232.993 116.193, 242.514 122, 245.872 122 C 249.189 122, 248.516 118.484, 244.750 116.142 C 237.501 111.634, 220 90.949, 220 86.889 C 220 85.415, 224.572 75.275, 230.159 64.355 C 235.747 53.435, 241.135 41.815, 242.133 38.534 C 243.759 33.186, 243.792 32.332, 242.451 30.284 C 241.408 28.693, 239.975 27.996, 237.727 27.986 C 235.952 27.979, 233.600 27.782, 232.500 27.550 C 231.400 27.317, 229.304 27.498, 227.841 27.952 M 225.250 33.584 C 223.463 34.366, 221.948 35.567, 221.885 36.253 C 221.821 36.939, 221.709 38.175, 221.635 39 C 221.561 39.825, 220.424 40.652, 219.109 40.838 C 217.267 41.098, 216.858 40.812, 217.328 39.588 C 217.714 38.582, 217.399 38, 216.469 38 C 215.661 38, 215 38.563, 215 39.250 C 215 39.938, 212.920 42.273, 210.378 44.441 L 205.755 48.382 206.339 53.971 C 207.009 60.382, 211.957 75.180, 213.608 75.714 C 214.217 75.911, 216.610 72.118, 218.924 67.286 C 221.239 62.454, 223.736 57.375, 224.472 56 C 225.209 54.625, 226.490 52.150, 227.318 50.500 C 228.147 48.850, 229.989 45.189, 231.412 42.365 C 234.439 36.359, 234.519 35.662, 232.429 33.571 C 230.560 31.703, 229.548 31.705, 225.250 33.584 M 70.625 34.518 C 69.727 35.416, 68.989 37.789, 68.975 39.821 C 68.962 41.845, 68.520 56.550, 67.993 72.500 C 67.067 100.523, 65.675 116.134, 62.509 134 C 61.681 138.675, 61.002 144.217, 61.001 146.316 C 61.001 148.414, 60.606 150.889, 60.124 151.816 C 59.642 152.742, 58.505 161.375, 57.597 171 C 56.689 180.625, 55.509 193, 54.974 198.500 C 53.686 211.753, 53.403 274.196, 54.613 278.251 C 54.900 279.214, 56.057 280.496, 57.184 281.099 C 61.589 283.456, 61.811 281.879, 62.457 243.500 C 63.061 207.606, 65.318 175.147, 68.551 155.857 C 69.348 151.103, 70 146.026, 70 144.575 C 70 140.299, 72.556 140.425, 78.612 144.997 C 84.576 149.500, 89.838 151.504, 93.034 150.489 C 95.832 149.601, 95.527 146.349, 92.577 145.609 C 91.244 145.274, 88.090 143.425, 85.568 141.500 C 83.046 139.575, 80.424 137.982, 79.741 137.959 C 79.059 137.937, 76.979 136.618, 75.120 135.028 L 71.740 132.137 72.909 123.819 C 73.551 119.243, 74.448 113.282, 74.902 110.570 C 75.356 107.859, 75.810 102.234, 75.911 98.070 C 76.012 93.907, 76.439 81.050, 76.859 69.500 C 77.279 57.950, 77.370 45.125, 77.062 41 C 76.562 34.326, 76.266 33.467, 74.375 33.197 C 73.206 33.030, 71.518 33.625, 70.625 34.518 M 207.362 41.500 C 207.045 42.325, 206.047 43.036, 205.143 43.079 C 204.239 43.122, 203.994 43.362, 204.599 43.612 C 206.126 44.243, 211 42.273, 211 41.025 C 211 39.429, 208.006 39.820, 207.362 41.500 M 153.500 47.446 C 151.850 48.811, 149.576 49.944, 148.446 49.964 C 147.316 49.984, 144.311 51.319, 141.769 52.932 C 138.340 55.106, 137.063 56.589, 136.823 58.673 C 136.610 60.524, 135.828 61.611, 134.532 61.857 C 132.755 62.194, 132.707 62.058, 134.032 60.459 C 135.422 58.782, 135.154 58.732, 129 59.530 C 125.425 59.994, 120.700 60.402, 118.500 60.437 C 115.093 60.491, 114.451 60.846, 114.170 62.832 C 113.784 65.558, 116.335 68.757, 119.242 69.194 C 120.361 69.362, 122.002 70.850, 122.889 72.500 C 123.777 74.150, 126.903 79.479, 129.836 84.343 C 133.517 90.445, 135 93.854, 134.622 95.343 C 133.312 100.492, 111.730 125, 108.505 125 C 107.812 125, 106.728 125.622, 106.097 126.383 C 105.208 127.454, 105.312 127.906, 106.556 128.383 C 109.729 129.601, 111.876 128.945, 116 125.500 C 118.304 123.575, 121.005 122, 122.001 122 C 123.935 122, 136.564 109.013, 138.289 105.250 C 139.671 102.236, 141.583 102.413, 143.691 105.750 C 144.647 107.263, 147.273 110.750, 149.527 113.500 C 151.781 116.250, 155.051 120.776, 156.794 123.558 C 158.536 126.339, 161.031 129.620, 162.337 130.847 C 165.352 133.679, 171.299 134.713, 174.555 132.971 C 177.855 131.205, 177.687 129.008, 174.250 128.967 C 170.735 128.924, 167.836 126.478, 164.863 121.045 C 161.341 114.611, 160.815 113.813, 156.906 108.961 C 151.192 101.868, 147 95.285, 147 93.405 C 147 92.451, 148.751 88.480, 150.891 84.581 C 154.289 78.390, 155.903 73.884, 161.212 55.775 C 162.620 50.970, 161.224 45.608, 158.467 45.232 C 157.385 45.085, 155.150 46.081, 153.500 47.446 M 148.268 53.352 C 147.040 53.961, 145.599 55.712, 145.065 57.243 C 144.532 58.774, 143.286 60.311, 142.297 60.658 C 141.309 61.006, 139.736 62.237, 138.802 63.395 C 137.806 64.630, 135.946 65.500, 134.302 65.500 C 129.833 65.500, 130.126 69.302, 135.206 77.233 C 137.568 80.920, 140.049 83.950, 140.721 83.968 C 141.392 83.986, 143.107 81.412, 144.533 78.250 C 145.958 75.088, 147.511 71.774, 147.985 70.887 C 148.458 70.001, 149.395 66.401, 150.066 62.887 C 150.737 59.374, 151.711 55.957, 152.229 55.294 C 153.182 54.076, 152.468 51.896, 151.191 52.123 C 150.811 52.190, 149.496 52.744, 148.268 53.352 M 227.607 56.582 C 227.273 57.452, 227 58.857, 227 59.704 C 227 60.960, 227.277 61.015, 228.500 60 C 230.122 58.654, 230.566 55, 229.107 55 C 228.616 55, 227.941 55.712, 227.607 56.582 M 72.252 63.500 C 72.263 65.700, 72.468 66.482, 72.707 65.238 C 72.946 63.994, 72.937 62.194, 72.687 61.238 C 72.437 60.282, 72.241 61.300, 72.252 63.500 M 220.079 72.583 C 220.127 73.748, 220.364 73.985, 220.683 73.188 C 220.972 72.466, 220.936 71.603, 220.604 71.271 C 220.272 70.939, 220.036 71.529, 220.079 72.583 M 134.627 86.470 C 134.968 87.358, 135.675 87.942, 136.198 87.767 C 137.697 87.268, 137.267 85.534, 135.556 85.177 C 134.487 84.955, 134.199 85.356, 134.627 86.470 M 140 96 C 140 96.550, 140.477 97, 141.059 97 C 141.641 97, 141.840 96.550, 141.500 96 C 141.160 95.450, 140.684 95, 140.441 95 C 140.198 95, 140 95.450, 140 96 M 205 97.559 C 205 99.010, 205.433 99.851, 206 99.500 C 206.550 99.160, 207 98.009, 207 96.941 C 207 95.873, 206.550 95, 206 95 C 205.450 95, 205 96.152, 205 97.559 M 218.959 96.924 C 220.102 99.058, 222 99.752, 222 98.035 C 222 97.505, 221.066 96.570, 219.924 95.959 C 218.025 94.943, 217.943 95.025, 218.959 96.924 M 37.543 97.931 C 37.226 98.443, 37.425 99.144, 37.984 99.490 C 39.513 100.435, 39.207 103.114, 37.333 105.184 C 35.866 106.806, 35.694 109.738, 35.897 129.763 C 36.139 153.671, 36.846 157.559, 40.813 156.799 C 43.161 156.350, 44.179 143.452, 43.639 121 C 43.208 103.089, 42.971 100.380, 41.644 98.232 C 40.746 96.780, 38.362 96.604, 37.543 97.931 M 149 107.382 C 149 108.207, 149.450 109.160, 150 109.500 C 150.550 109.840, 151 109.443, 151 108.618 C 151 107.793, 150.550 106.840, 150 106.500 C 149.450 106.160, 149 106.557, 149 107.382 M 68 116.059 C 68 116.641, 68.450 116.840, 69 116.500 C 69.550 116.160, 70 115.684, 70 115.441 C 70 115.198, 69.550 115, 69 115 C 68.450 115, 68 115.477, 68 116.059 M 249.751 140.713 C 248.857 141.696, 246.410 143.392, 244.313 144.482 C 242.216 145.571, 238.446 148.159, 235.936 150.232 C 233.425 152.304, 230.889 154, 230.300 154 C 229.711 154, 227.940 154.672, 226.364 155.494 C 224.789 156.315, 222.739 156.990, 221.809 156.994 C 218.855 157.005, 216.821 162.610, 219.411 163.604 C 221.653 164.465, 227 161.203, 227 158.974 C 227 156.805, 229.533 156.256, 230.338 158.250 C 230.639 158.997, 230.874 158.795, 230.921 157.750 C 230.970 156.669, 231.796 156, 233.082 156 C 234.227 156, 237.085 154.425, 239.435 152.500 C 241.784 150.575, 243.949 149, 244.247 149 C 245.299 149, 243.061 156.590, 240.051 163.228 C 238.373 166.928, 237 170.655, 237 171.509 C 237 172.364, 236.366 173.306, 235.590 173.604 C 234.815 173.901, 233.926 175.158, 233.615 176.397 C 232.841 179.483, 224.939 193, 223.909 193 C 223.452 193, 222.586 191.088, 221.986 188.750 C 221.385 186.412, 219.763 180.576, 218.381 175.779 C 217 170.982, 216.011 165.582, 216.184 163.779 C 216.416 161.377, 215.997 160.233, 214.618 159.500 C 213.583 158.950, 212.233 156.925, 211.618 155 C 210.290 150.843, 206.583 149.586, 205.521 152.933 C 205.164 154.060, 205.158 155.447, 205.510 156.015 C 206.843 158.174, 204.927 162.801, 202.441 163.425 C 199.470 164.171, 199.203 166, 202.066 166 C 203.202 166, 204.978 166.453, 206.012 167.007 C 207.463 167.783, 208.127 167.611, 208.916 166.257 C 209.837 164.676, 209.942 164.667, 209.970 166.167 C 209.986 167.083, 209.522 167.993, 208.938 168.187 C 207.595 168.635, 212.502 189.068, 215.132 193.982 C 219.321 201.806, 218.914 203.852, 210.591 216.792 C 208.218 220.482, 204.698 226.377, 202.769 229.893 C 198.303 238.033, 193.315 244.275, 189.540 246.446 C 186.741 248.055, 186.511 248.052, 185.290 246.383 C 183.481 243.908, 183.685 241.341, 185.811 239.807 C 188.245 238.051, 189.230 236.260, 188.134 235.583 C 187.640 235.277, 186.097 235.923, 184.705 237.017 C 178.972 241.527, 169.854 238.997, 162.089 230.740 C 155.089 223.296, 146 211.250, 146 209.415 C 146 208.560, 147.289 205.979, 148.865 203.680 C 150.441 201.381, 152.927 197.250, 154.390 194.500 C 155.852 191.750, 158.865 187.025, 161.084 184 C 163.304 180.975, 165.993 176.692, 167.061 174.481 C 168.129 172.271, 171.027 168.148, 173.501 165.320 C 178.454 159.658, 179.028 157.028, 175.977 153.977 C 174.396 152.396, 173.534 152.179, 172.033 152.982 C 170.976 153.548, 169.831 154.465, 169.488 155.020 C 168.288 156.962, 161.456 159.722, 156.450 160.288 C 152.309 160.756, 142.872 164.408, 133.878 169.024 C 132.010 169.983, 130 168.416, 130 166 C 130 163.883, 128.032 162, 125.819 162 C 123.999 162, 122.668 165.175, 123.034 168.642 C 123.446 172.543, 122.961 176, 122 176 C 121.450 176, 121 175.152, 121 174.117 C 121 171.396, 116.936 170.528, 116.262 173.105 C 115.769 174.992, 115.660 175.002, 113.814 173.332 C 110.148 170.014, 106.274 175.257, 109.317 179.419 C 110.574 181.138, 111.307 181.226, 116.872 180.330 C 123.979 179.186, 124.127 179.282, 126.305 186.500 C 127.135 189.250, 128.724 193.525, 129.836 196 C 130.948 198.475, 132.381 202.587, 133.019 205.137 L 134.181 209.775 128.784 217.137 C 125.815 221.187, 122.304 226.300, 120.981 228.500 C 119.658 230.700, 118.108 232.992, 117.537 233.594 C 116.967 234.196, 113.722 237.796, 110.326 241.594 C 103.127 249.647, 97.890 252.983, 95.526 251.021 C 94.687 250.325, 94 248.722, 94 247.459 C 94 244.194, 92.995 242, 91.500 242 C 87.958 242, 88.917 249.368, 93.047 253.890 C 97.155 258.388, 101.862 257.734, 108.235 251.781 C 109.872 250.251, 111.839 249, 112.606 249 C 113.820 249, 116.875 246.169, 123.936 238.500 C 124.949 237.400, 126.556 234.957, 127.507 233.071 C 128.458 231.185, 130.871 227.533, 132.868 224.955 C 134.866 222.377, 136.963 219.476, 137.530 218.509 C 138.437 216.961, 139.293 217.511, 144.713 223.126 C 148.098 226.632, 152.513 231.612, 154.524 234.194 C 156.535 236.776, 159.249 239.588, 160.555 240.444 C 164.261 242.872, 172.180 245.334, 175.641 245.134 C 178.036 244.995, 179.386 245.670, 181.327 247.976 C 185.322 252.725, 188.218 253.372, 194.315 250.882 C 200.636 248.299, 206.035 242.721, 210.078 234.596 C 211.746 231.243, 214.188 226.700, 215.505 224.500 C 216.823 222.300, 218.681 219.037, 219.635 217.250 C 221.725 213.335, 223.311 213.153, 225.703 216.553 C 232.868 226.736, 241.711 236.866, 253.430 248.318 C 268.603 263.144, 271.839 265.697, 277.316 267.162 C 281.434 268.263, 282.412 268.214, 284.778 266.783 C 288.880 264.302, 288.833 262.200, 284.675 262.200 C 279.891 262.200, 277.849 260.885, 269.070 252.150 C 264.841 247.943, 258.242 241.575, 254.407 238 C 250.571 234.425, 245.423 229.084, 242.966 226.131 C 237.457 219.508, 229.994 206.552, 230.017 203.651 C 230.026 202.468, 231.987 197.900, 234.374 193.500 C 239.632 183.809, 240.644 181.857, 246.036 171 C 248.359 166.325, 250.650 162.072, 251.129 161.550 C 251.608 161.027, 252 159.802, 252 158.827 C 252 157.851, 252.972 155.053, 254.159 152.609 C 255.961 148.901, 256.168 147.449, 255.408 143.845 C 254.396 139.047, 252.315 137.895, 249.751 140.713 M 248.543 147.931 C 248.226 148.443, 248.425 149.144, 248.984 149.490 C 250.177 150.227, 252 149.291, 252 147.941 C 252 146.724, 249.293 146.716, 248.543 147.931 M 63.606 149.584 C 63.233 150.557, 63.456 151.015, 64.187 150.771 C 65.682 150.273, 66.505 148, 65.190 148 C 64.653 148, 63.941 148.713, 63.606 149.584 M 194.750 158.080 C 193.048 159.071, 192.247 163.006, 193.750 162.994 C 194.162 162.991, 196.191 162.519, 198.259 161.945 C 201.572 161.025, 201.894 160.670, 200.974 158.951 C 199.833 156.819, 197.480 156.490, 194.750 158.080 M 155.232 163 C 154.545 164.100, 153.060 165, 151.933 165 C 150.634 165, 150.144 165.425, 150.597 166.158 C 151.091 166.955, 150.622 167.134, 149.090 166.734 C 146.317 166.009, 140.192 168.382, 141.982 169.489 C 143.887 170.666, 138.022 174.998, 135.386 174.362 C 132.228 173.599, 131.805 176.171, 134.010 182.735 C 138.541 196.225, 139.932 199.500, 141.129 199.500 C 141.825 199.500, 143.687 197.027, 145.266 194.004 C 146.845 190.982, 149.148 187.157, 150.384 185.504 C 155.518 178.636, 160.416 169.345, 161.029 165.311 C 161.658 161.167, 161.582 161, 159.082 161 C 157.564 161, 155.961 161.833, 155.232 163 M 145.750 167.689 C 144.787 167.941, 144 168.579, 144 169.109 C 144 169.688, 144.795 169.645, 146 169 C 147.100 168.411, 148 167.720, 148 167.465 C 148 167.209, 147.887 167.052, 147.750 167.116 C 147.613 167.180, 146.713 167.438, 145.750 167.689 M 60.079 185.583 C 60.127 186.748, 60.364 186.985, 60.683 186.188 C 60.972 185.466, 60.936 184.603, 60.604 184.271 C 60.272 183.939, 60.036 184.529, 60.079 185.583 M 219 194.941 C 219 195.459, 219.450 196.160, 220 196.500 C 220.550 196.840, 221 196.416, 221 195.559 C 221 194.702, 220.550 194, 220 194 C 219.450 194, 219 194.423, 219 194.941 M 222 200.950 C 222 202.653, 223.221 205, 224.107 205 C 225.616 205, 225.094 201.250, 223.500 200.638 C 222.675 200.322, 222 200.462, 222 200.950 M 224.725 208.635 C 224.047 209.734, 224.748 210.910, 227.250 212.872 C 229.551 214.677, 229.494 212.832, 227.159 209.948 C 226.147 208.698, 225.052 208.107, 224.725 208.635 M 141 214.845 C 141 215.310, 141.900 216.505, 143 217.500 C 144.588 218.937, 145 219.010, 145 217.855 C 145 216.286, 143.102 214, 141.800 214 C 141.360 214, 141 214.380, 141 214.845 M 132.667 215.667 C 132.300 216.033, 132 216.988, 132 217.789 C 132 218.970, 132.283 219.010, 133.500 218 C 134.325 217.315, 135 216.360, 135 215.878 C 135 214.842, 133.616 214.717, 132.667 215.667 M 237 226.882 C 237 227.432, 237.450 228.160, 238 228.500 C 238.550 228.840, 239 228.668, 239 228.118 C 239 227.568, 238.550 226.840, 238 226.500 C 237.450 226.160, 237 226.332, 237 226.882 M 192.506 230.994 C 191.507 232.097, 191.155 233, 191.723 233 C 192.981 233, 195.475 230.142, 194.803 229.470 C 194.538 229.205, 193.504 229.890, 192.506 230.994 M 120.500 233.195 C 117.949 234.642, 117.034 236.014, 117.015 238.424 C 117.001 240.193, 117.210 240.152, 119.592 237.924 C 124.405 233.423, 124.931 230.682, 120.500 233.195 M 257 248 C 257 248.550, 257.477 249, 258.059 249 C 258.641 249, 258.840 248.550, 258.500 248 C 258.160 247.450, 257.684 247, 257.441 247 C 257.198 247, 257 247.450, 257 248" stroke="none" fill="black" fill-rule="evenodd"/>
</svg>