<svg xmlns="http://www.w3.org/2000/svg" width="300" height="300" viewBox="0 0 300 300" version="1.1">
	<path d="M 81.731 46.603 C 81.349 46.984, 81.291 48.313, 81.603 49.555 C 81.915 50.797, 81.663 52.761, 81.044 53.918 C 80.389 55.141, 79.522 65.964, 78.972 79.761 C 78.452 92.818, 77.560 107.100, 76.990 111.500 C 76.062 118.667, 74.157 158.495, 73.435 185.817 C 73.285 191.492, 72.890 196.844, 72.557 197.712 C 72.224 198.579, 72.597 200.012, 73.386 200.895 C 75.817 203.616, 75.857 208, 73.452 208 C 72.084 208, 71.954 210.936, 72.339 233.250 C 72.579 247.138, 73.051 259.850, 73.390 261.500 C 73.728 263.150, 74.252 266.964, 74.556 269.976 C 75.230 276.682, 78.098 283.447, 80.901 284.947 C 82.728 285.925, 83.240 285.654, 84.991 282.782 C 86.092 280.977, 86.992 278.150, 86.991 276.500 C 86.988 272.301, 85.092 265.697, 83.538 264.476 C 82.822 263.913, 81.745 260.988, 81.145 257.976 C 79.591 250.176, 79.349 204.263, 80.769 186.500 C 81.428 178.250, 82.269 163.046, 82.638 152.714 C 83.006 142.381, 83.743 133.659, 84.274 133.330 C 84.806 133.002, 86.356 134.158, 87.719 135.900 C 93.537 143.334, 108.674 157.895, 111.248 158.534 C 117.333 160.044, 119.133 155.662, 113.456 153.158 C 111.782 152.420, 109.312 150.170, 107.967 148.158 C 104.092 142.361, 87.634 124, 86.314 124 C 84.113 124, 83.904 122.108, 84.963 111.773 C 85.542 106.123, 86.470 94.075, 87.025 85 C 87.580 75.925, 88.443 65.294, 88.943 61.376 C 90.082 52.442, 88.509 46.662, 84.813 46.204 C 83.499 46.041, 82.113 46.221, 81.731 46.603 M 200 55.263 C 194.775 55.709, 188.025 56.251, 185 56.466 C 172.884 57.327, 158.269 59.796, 152.685 61.926 C 151.137 62.517, 148.251 63, 146.273 63 C 144.218 63, 140.804 64.097, 138.310 65.559 C 135.577 67.160, 133.205 67.882, 131.967 67.490 C 128.989 66.544, 128.387 69.556, 130.487 74.894 C 133.357 82.191, 136.042 95.418, 137.513 109.500 C 139.773 131.139, 142.311 144.944, 144.256 146.179 C 146.221 147.427, 149.013 147.130, 149.596 145.611 C 150.017 144.514, 150.728 144.448, 152.985 145.300 C 155.792 146.360, 169.408 145.257, 173 143.680 C 176.511 142.138, 177.241 144.363, 177.085 156.132 C 176.915 168.910, 176.359 170, 170.009 170 C 168.024 170, 165.860 170.540, 165.200 171.200 C 164.267 172.133, 163.733 172.133, 162.800 171.200 C 162.140 170.540, 159.862 170, 157.737 170 C 154.305 170, 153.909 170.251, 154.187 172.250 C 154.425 173.963, 153.941 174.579, 152.157 174.832 C 150.194 175.110, 149.919 174.831, 150.463 173.115 C 150.975 171.504, 150.583 170.934, 148.629 170.443 C 147.263 170.100, 145.367 170.255, 144.417 170.786 C 143.345 171.386, 141.443 171.409, 139.402 170.845 C 137.361 170.282, 133.725 170.326, 129.808 170.961 C 126.338 171.524, 123.235 171.988, 122.911 171.992 C 122.586 171.997, 121.820 173.101, 121.207 174.446 C 120.302 176.431, 120.424 177.302, 121.853 179.067 C 123.553 181.167, 123.892 181.201, 131.557 180.059 C 135.926 179.408, 146.250 178.488, 154.500 178.016 C 162.750 177.544, 170.213 176.877, 171.085 176.535 C 171.963 176.190, 173.697 176.744, 174.973 177.777 C 177.067 179.473, 177.211 180.152, 176.568 185.303 C 176.054 189.417, 175.250 191.448, 173.627 192.732 C 172.399 193.705, 171.094 195.287, 170.728 196.250 C 170.362 197.212, 169.610 198, 169.056 198 C 168.389 198, 168.378 197.135, 169.025 195.435 C 170.318 192.035, 170.308 192, 168.023 192 C 165.773 192, 163.465 195.096, 162.431 199.500 C 161.534 203.322, 154.021 214.731, 150.248 218.001 C 148.660 219.377, 145.042 222.077, 142.206 224.001 C 136.406 227.938, 135.790 228.954, 139.649 228.216 C 141.427 227.876, 142.073 228.073, 141.614 228.816 C 141.238 229.425, 139.258 230.204, 137.215 230.549 C 131.457 231.519, 130.403 231.915, 127.966 234.030 C 125.252 236.383, 123.423 236.544, 122.638 234.500 C 122.322 233.675, 121.374 233, 120.531 233 C 118.456 233, 118.501 238.358, 120.595 240.452 C 122.054 241.911, 122.457 241.886, 125.345 240.152 C 127.080 239.110, 129.687 237.978, 131.137 237.638 C 132.588 237.297, 136.176 235.214, 139.110 233.009 C 142.045 230.804, 144.837 229, 145.315 229 C 147.538 229, 162 216.313, 162 214.363 C 162 213.613, 162.441 213, 162.980 213 C 163.518 213, 164.881 211.313, 166.008 209.250 C 170.686 200.687, 171.668 199.498, 174.325 199.183 L 177.002 198.867 176.512 211.125 C 176.243 217.867, 175.947 236.543, 175.855 252.628 C 175.706 278.511, 175.880 282.168, 177.367 284.437 C 179.462 287.635, 180.345 287.649, 182.396 284.518 C 183.801 282.373, 184.088 276.960, 184.501 244.768 C 185.049 202.108, 185.052 202, 185.977 202 C 186.356 202, 188.429 203.530, 190.583 205.400 C 194.569 208.860, 194.873 211.073, 191.086 209.046 C 188.363 207.589, 188.313 209.313, 191 212 C 193.031 214.031, 196.632 214.831, 195.500 213 C 194.491 211.367, 196.607 211.861, 199.031 213.824 C 200.270 214.827, 201.087 216.238, 200.847 216.958 C 200.515 217.954, 199.990 217.847, 198.658 216.515 C 197.694 215.551, 196.665 215.002, 196.371 215.295 C 195.512 216.155, 197.637 219.323, 200.681 221.721 C 212.337 230.901, 213 231.266, 213 228.500 C 213 227.675, 213.563 227.014, 214.250 227.032 C 216.001 227.076, 219 229.493, 219 230.860 C 219 232.266, 217.340 232.359, 216.500 231 C 216.160 230.450, 215.459 230, 214.941 230 C 213.358 230, 213.889 231.889, 216.092 234.092 C 217.334 235.334, 218.962 235.982, 220.094 235.686 C 221.144 235.411, 221.774 235.556, 221.495 236.008 C 220.931 236.921, 226.204 240.379, 229.849 241.485 C 231.141 241.877, 233.100 243.100, 234.203 244.203 C 237.037 247.037, 257.969 256.980, 261.124 256.991 C 262.568 256.996, 265.662 257.675, 268 258.500 C 273.155 260.319, 272.528 260.329, 274.463 258.394 C 276.543 256.314, 274.825 254, 271.202 254 C 268.389 254, 253 247.062, 253 245.794 C 253 245.357, 252.375 245, 251.612 245 C 250.849 245, 248.007 243.475, 245.297 241.610 C 242.587 239.746, 237.924 236.984, 234.935 235.472 C 229.187 232.565, 226.454 230.683, 219.684 224.968 C 217.383 223.025, 213.541 220.119, 211.146 218.510 C 208.752 216.901, 202.902 211.321, 198.146 206.109 C 193.391 200.898, 188.212 195.254, 186.637 193.567 C 183.925 190.661, 183.806 190.158, 184.372 184 C 184.758 179.801, 185.526 177.093, 186.540 176.349 C 188.222 175.117, 205.114 175.199, 217.168 176.497 C 222.092 177.028, 225.099 176.809, 228.668 175.662 C 231.325 174.808, 234.579 173.972, 235.898 173.805 C 239.518 173.345, 240.951 170.429, 238.478 168.555 C 237.390 167.731, 235.825 167.354, 235 167.719 C 234.175 168.083, 224.599 168.453, 213.719 168.541 C 196.371 168.682, 193.786 168.911, 192.695 170.402 C 191.713 171.746, 190.932 171.895, 188.976 171.115 C 187.596 170.564, 187.164 170.071, 188 170 C 188.861 169.927, 188.477 169.464, 187.099 168.913 L 184.698 167.953 185.295 155.319 C 185.692 146.919, 186.307 142.428, 187.131 141.919 C 188.596 141.013, 199.629 139.541, 202.500 139.868 C 203.600 139.993, 205.798 140.604, 207.384 141.225 C 209.831 142.183, 210.469 142.079, 211.595 140.540 C 212.754 138.954, 212.583 138.460, 210.238 136.613 C 207.981 134.835, 205.904 134.445, 197.141 134.155 L 186.727 133.810 187.413 123.859 C 187.789 118.386, 188.329 113.307, 188.611 112.572 C 189.331 110.695, 195.696 109.880, 204.231 110.573 C 215.578 111.494, 219.464 113.710, 215.500 117 C 214.675 117.685, 214 118.830, 214 119.546 C 214 120.261, 212.829 122.238, 211.399 123.938 C 209.967 125.639, 209.054 127.698, 209.367 128.515 C 210.291 130.923, 213.817 130.217, 215.684 127.250 C 216.636 125.737, 218.411 123.270, 219.629 121.766 C 220.848 120.262, 222.808 116.437, 223.985 113.266 C 225.163 110.095, 227.177 105.250, 228.460 102.500 C 229.744 99.750, 231.347 95.475, 232.023 93 C 232.698 90.525, 233.954 86.925, 234.812 85 C 235.672 83.072, 236.569 77.566, 236.809 72.740 C 237.240 64.088, 237.211 63.954, 234.405 61.740 C 230.167 58.398, 224.241 56.003, 220.141 55.976 C 218.138 55.963, 214.925 55.614, 213 55.201 C 211.075 54.788, 205.225 54.816, 200 55.263 M 204.253 57.258 C 204.765 58.795, 214.152 60.248, 215.415 58.985 C 216.536 57.864, 215.126 57.364, 208.669 56.593 C 205.070 56.163, 203.944 56.333, 204.253 57.258 M 194.142 64.633 C 192.296 66.724, 190.383 69.492, 189.892 70.783 C 189.402 72.074, 189 80.076, 189 88.565 L 189 104 194.750 104.001 C 200.647 104.002, 213.805 106.144, 215.910 107.444 C 217.342 108.329, 220 106.300, 220 104.323 C 220 103.535, 220.871 100.979, 221.935 98.643 C 222.999 96.307, 224.571 90.369, 225.428 85.448 C 226.284 80.526, 227.415 75.012, 227.939 73.193 C 228.464 71.374, 228.666 69.293, 228.388 68.570 C 227.402 65.999, 219.597 63.163, 212 62.616 C 207.875 62.318, 202.925 61.795, 201 61.452 C 197.854 60.892, 197.160 61.214, 194.142 64.633 M 169 64.989 C 168.175 65.516, 165.025 66.434, 162 67.030 C 154.664 68.475, 150.886 69.952, 148.631 72.259 C 147.604 73.311, 146.029 73.963, 145.131 73.707 C 139.679 72.158, 139.716 72.017, 142.439 84 C 143.377 88.125, 144.512 94.563, 144.962 98.307 C 145.413 102.051, 146.032 105.366, 146.339 105.673 C 146.647 105.980, 148.338 105.729, 150.098 105.116 C 154.277 103.659, 160.290 103.690, 161.776 105.176 C 162.678 106.078, 163.372 105.973, 164.749 104.727 C 165.958 103.633, 168.827 103.003, 173.523 102.801 L 180.500 102.500 181.049 96.500 C 181.737 88.975, 180.339 68.502, 178.961 65.928 C 177.830 63.814, 171.738 63.240, 169 64.989 M 182 71.059 C 182 71.641, 182.450 71.840, 183 71.500 C 183.550 71.160, 184 70.684, 184 70.441 C 184 70.198, 183.550 70, 183 70 C 182.450 70, 182 70.477, 182 71.059 M 133.079 74.583 C 133.127 75.748, 133.364 75.985, 133.683 75.188 C 133.972 74.466, 133.936 73.603, 133.604 73.271 C 133.272 72.939, 133.036 73.529, 133.079 74.583 M 168.500 110.329 C 165.750 110.818, 162.099 111.913, 160.386 112.763 C 158.129 113.883, 155.684 114.144, 151.498 113.712 L 145.723 113.116 146.430 124.288 C 147.167 135.948, 148.171 138.933, 150.659 136.868 C 151.651 136.045, 155.608 135.908, 164.371 136.395 C 177.450 137.122, 178.940 136.717, 178.878 132.454 C 178.862 131.379, 179.045 126.340, 179.284 121.256 C 179.830 109.665, 178.698 108.518, 168.500 110.329 M 54.750 114.080 C 53.788 114.641, 53 115.877, 53 116.827 C 53 117.777, 52.385 119.443, 51.634 120.527 C 49.657 123.383, 49.171 132.481, 50.115 149 C 51.176 167.557, 51.502 170.248, 53.146 173.994 C 54.653 177.426, 58.233 178.882, 60.513 176.989 C 62.410 175.415, 62.392 174.091, 60.447 171.942 C 57.788 169.003, 56.782 153.061, 57.981 132.870 C 58.568 122.979, 58.786 114.463, 58.465 113.944 C 57.735 112.763, 56.964 112.791, 54.750 114.080 M 168.583 139.866 C 168.152 140.563, 168.070 141.403, 168.400 141.733 C 169.295 142.628, 170.271 141.312, 169.787 139.862 C 169.449 138.846, 169.213 138.846, 168.583 139.866 M 216 171 C 216 171.550, 216.675 172, 217.500 172 C 218.325 172, 219 171.550, 219 171 C 219 170.450, 218.325 170, 217.500 170 C 216.675 170, 216 170.450, 216 171 M 166.813 173.683 C 167.534 173.972, 168.397 173.936, 168.729 173.604 C 169.061 173.272, 168.471 173.036, 167.417 173.079 C 166.252 173.127, 166.015 173.364, 166.813 173.683 M 140.565 174.895 C 140.260 175.388, 140.571 175.996, 141.256 176.248 C 143.009 176.892, 145.124 176.009, 144.447 174.915 C 143.723 173.743, 141.285 173.731, 140.565 174.895 M 205 221.443 C 205 222.801, 208.613 226, 210.146 226 C 210.531 226, 210.173 224.650, 209.350 223 C 207.804 219.901, 205 218.898, 205 221.443 M 232.502 240.003 C 232.841 240.551, 233.589 241, 234.165 241 C 234.740 241, 236.548 242.125, 238.182 243.500 C 239.816 244.875, 241.906 245.971, 242.827 245.937 C 243.943 245.894, 243.699 245.553, 242.091 244.910 C 240.766 244.380, 239.191 243.304, 238.591 242.518 C 237.311 240.843, 231.550 238.463, 232.502 240.003 M 74.079 245.583 C 74.127 246.748, 74.364 246.985, 74.683 246.188 C 74.972 245.466, 74.936 244.603, 74.604 244.271 C 74.272 243.939, 74.036 244.529, 74.079 245.583" stroke="none" fill="black" fill-rule="evenodd"/>
</svg>