<svg xmlns="http://www.w3.org/2000/svg" width="300" height="300" viewBox="0 0 300 300" version="1.1">
	<path d="M 92.223 28.557 C 89.435 30.509, 89.370 32, 92.073 32 C 93.420 32, 94.033 32.544, 93.823 33.553 C 93.645 34.407, 93.050 35.059, 92.500 35.002 C 90.496 34.794, 89.647 41.898, 89.451 60.500 C 89.342 70.950, 88.722 82.875, 88.075 87 C 87.427 91.125, 86.896 104.625, 86.894 117 C 86.892 131.570, 86.404 142.320, 85.512 147.500 C 84.753 151.900, 83.863 162.925, 83.533 172 C 83.204 181.075, 82.655 193, 82.315 198.500 C 81.285 215.143, 81.819 236.747, 83.310 238.747 C 83.848 239.469, 83.951 244.305, 83.554 250.247 C 82.912 259.841, 83.022 260.789, 85.259 265 C 88.030 270.216, 90.976 271.283, 92.864 267.755 C 94.535 264.631, 94.362 251.961, 92.403 234 C 91.651 227.111, 91.745 181.633, 92.531 171.500 C 94.290 148.838, 94.127 149.252, 100.067 152.352 C 101.478 153.088, 103.841 153.994, 105.317 154.365 C 106.792 154.735, 108 155.468, 108 155.993 C 108 156.519, 109.463 157.715, 111.250 158.652 C 118.436 162.419, 133.738 163.691, 136.665 160.764 C 138.784 158.645, 137.684 155.648, 135.089 156.472 C 134.033 156.807, 132.898 156.645, 132.568 156.111 C 132.238 155.577, 129.388 154.826, 126.234 154.443 C 119.964 153.680, 116.400 152.189, 112.613 148.745 C 104.978 141.802, 101 137.754, 101 136.930 C 101 136.419, 99.875 136, 98.500 136 L 96 136 95.881 124.750 C 95.685 106.122, 96.128 93.753, 97.163 89 C 97.701 86.525, 98.350 72.920, 98.605 58.767 C 99.001 36.781, 98.841 32.594, 97.509 30.017 C 95.718 26.554, 95.262 26.428, 92.223 28.557 M 220.500 52.650 C 218.300 53.480, 214.025 54.590, 211 55.118 C 207.975 55.646, 203.250 56.505, 200.500 57.027 C 192.503 58.545, 178.776 60.012, 160.500 61.301 C 151.150 61.960, 142.992 62.830, 142.371 63.234 C 140.253 64.611, 140.161 67.935, 142.170 70.489 C 143.709 72.445, 144.739 72.870, 146.823 72.408 C 152.937 71.052, 153.208 70.870, 152.743 68.435 C 152.332 66.286, 152.622 66.077, 155.895 66.169 C 162.482 66.354, 175.402 65.190, 183 63.728 C 187.125 62.934, 192.975 62.195, 196 62.087 C 199.025 61.978, 203.750 61.289, 206.500 60.557 C 209.250 59.824, 212.400 59.212, 213.500 59.197 C 219.613 59.112, 226.945 57.585, 227.441 56.293 C 228.030 54.758, 226.408 50.953, 225.215 51.070 C 224.822 51.109, 222.700 51.820, 220.500 52.650 M 173.604 68.590 C 172.924 70.363, 173.622 72, 175.059 72 C 175.577 72, 176 70.875, 176 69.500 C 176 66.703, 174.541 66.149, 173.604 68.590 M 178 74.339 C 178 75.719, 173.969 78, 171.530 78 C 169.374 78, 168.150 83.523, 167.507 96.156 C 167.111 103.955, 166.249 109.707, 164.903 113.536 C 163.796 116.684, 162.512 121.114, 162.048 123.380 C 160.478 131.057, 156.924 144.481, 155.458 148.270 C 154.656 150.344, 153.983 153.944, 153.963 156.270 C 153.943 158.597, 153.302 163.650, 152.540 167.500 C 151.305 173.731, 151.330 174.912, 152.769 178.250 C 153.669 180.339, 155.075 181.981, 155.942 181.958 C 158.688 181.883, 162 175.342, 162 169.994 C 162 167.317, 163.381 159.810, 165.070 153.313 C 166.758 146.816, 168.955 137.675, 169.951 133 C 172.329 121.845, 174.120 116, 175.158 116 C 175.621 116, 176 114.875, 176 113.500 C 176 110.541, 176.276 110.479, 179.642 112.685 C 181.872 114.146, 183.073 114.223, 188.696 113.259 C 192.261 112.649, 195.976 111.427, 196.951 110.545 C 198.835 108.839, 209.165 106.742, 211.419 107.607 C 212.157 107.891, 214.728 107.235, 217.131 106.150 C 222.510 103.722, 228.053 102.724, 231.440 103.574 C 234.618 104.372, 234.758 106.698, 231.711 108.086 C 229.862 108.928, 229.164 110.510, 228.079 116.314 C 227.340 120.266, 226.534 127.321, 226.287 131.991 C 226.041 136.660, 225.512 140.710, 225.113 140.991 C 224.371 141.511, 220.557 160.274, 218.809 172 C 216.827 185.304, 216.210 188.666, 214.501 195.500 C 213.538 199.350, 211.871 204.401, 210.798 206.724 C 209.725 209.048, 208.294 214.686, 207.618 219.254 C 206.943 223.822, 205.981 228.221, 205.480 229.030 C 204.980 229.838, 204.329 232.300, 204.035 234.500 L 203.500 238.500 177 238.800 C 159.668 238.996, 148.558 238.699, 144.886 237.942 C 140.669 237.073, 138.740 237.069, 137.136 237.927 C 133.860 239.680, 134.568 241.658, 138.750 242.434 C 145.752 243.734, 168.185 244.091, 169.590 242.925 C 170.317 242.322, 171.421 242.142, 172.043 242.526 C 172.664 242.910, 180.352 243.328, 189.127 243.453 C 199.603 243.604, 205.480 244.080, 206.241 244.841 C 208.126 246.726, 212.391 246.206, 213.820 243.916 C 214.694 242.517, 215.676 242.059, 216.811 242.522 C 218.231 243.101, 249.795 244.430, 255.250 244.141 C 256.212 244.089, 257.788 244.032, 258.750 244.013 C 259.712 243.994, 261.850 243.929, 263.500 243.869 C 270.086 243.629, 272.747 243.696, 278.500 244.248 C 281.800 244.565, 284.628 244.863, 284.785 244.912 C 284.942 244.960, 284.636 245.812, 284.105 246.804 C 283.540 247.859, 283.503 249.196, 284.015 250.025 C 285.025 251.658, 286.246 250.795, 286.528 248.250 C 286.635 247.287, 287.058 245.711, 287.469 244.748 C 287.880 243.784, 287.921 241.823, 287.562 240.390 C 286.993 238.124, 286.556 237.880, 284.204 238.517 C 282.717 238.919, 279.700 239.164, 277.500 239.061 C 269.058 238.666, 266.165 238.634, 255.500 238.819 C 228.383 239.289, 216.148 239.048, 215.519 238.032 C 213.835 235.306, 222.624 198.272, 225.218 197.167 C 225.648 196.983, 226 194.058, 225.999 190.667 C 225.999 184.981, 227.160 177.012, 230.033 163 C 230.653 159.975, 231.826 153.450, 232.639 148.500 C 233.452 143.550, 234.747 135.675, 235.517 131 C 236.287 126.325, 237.171 117.725, 237.481 111.889 C 237.985 102.406, 237.841 101.025, 236.122 98.902 C 234.348 96.712, 233.931 96.623, 230.778 97.763 C 228.897 98.443, 225.927 99, 224.179 99 C 222.431 99, 221 99.401, 221 99.891 C 221 100.380, 219.537 101.014, 217.750 101.298 C 215.963 101.582, 212.700 102.300, 210.500 102.894 C 204.914 104.403, 189.073 104.470, 185.874 102.999 C 183.679 101.990, 182.808 102.080, 180.572 103.545 C 176.741 106.055, 175.932 104.585, 176.966 96.991 C 178.348 86.841, 179.301 73, 178.618 73 C 178.278 73, 178 73.603, 178 74.339 M 56.586 86.137 C 55.369 89.927, 54.727 95.842, 54.050 109.500 C 53.641 117.750, 52.748 127.267, 52.064 130.649 C 50.964 136.094, 51.017 137.096, 52.526 139.399 C 53.463 140.830, 55.089 142, 56.140 142 C 59.845 142, 61.728 132.797, 62.094 112.897 C 62.245 104.721, 62.895 97.784, 63.762 95.098 C 65.428 89.935, 64.152 85.344, 61.350 86.419 C 60.468 86.758, 59.134 86.526, 58.385 85.905 C 57.355 85.050, 56.917 85.106, 56.586 86.137 M 57.638 102.500 C 57.322 103.325, 57.499 104, 58.031 104 C 58.564 104, 59 103.325, 59 102.500 C 59 101.675, 58.823 101, 58.607 101 C 58.391 101, 57.955 101.675, 57.638 102.500 M 231.480 120.223 C 230.424 124.431, 231.304 126.729, 232.624 123.208 C 233.242 121.559, 233.385 119.623, 232.942 118.907 C 232.372 117.984, 231.946 118.368, 231.480 120.223 M 90.459 120.067 C 90.096 120.653, 90.014 121.348, 90.276 121.610 C 90.538 121.872, 91.019 121.392, 91.345 120.543 C 92.021 118.781, 91.445 118.471, 90.459 120.067 M 89.671 145.622 C 89.019 152.601, 89.431 154.514, 91.039 151.971 C 92.195 150.143, 92.262 141.962, 91.135 140.185 C 90.617 139.368, 90.063 141.428, 89.671 145.622 M 177.565 144.928 C 176.450 146.160, 176.057 147.605, 176.477 148.928 C 177.265 151.412, 179.538 151.605, 181.765 149.377 C 183.262 147.881, 183.442 147.900, 184.092 149.627 C 184.547 150.839, 184.214 151.963, 183.148 152.812 C 181.631 154.020, 181.654 154.238, 183.441 155.562 C 184.509 156.353, 186.384 157, 187.609 157 C 188.834 157, 190.548 157.273, 191.418 157.607 C 192.300 157.945, 193 157.701, 193 157.055 C 193 156.418, 191.650 155.425, 190 154.850 C 186.667 153.688, 186.174 152.531, 188.613 151.595 C 190.805 150.754, 197 154.728, 197 156.975 C 197 157.971, 197.675 159.045, 198.500 159.362 C 200.414 160.096, 203.162 159.072, 202.435 157.895 C 202.131 157.403, 202.310 157, 202.834 157 C 203.358 157, 204.042 157.667, 204.355 158.483 C 204.697 159.375, 205.578 159.716, 206.563 159.337 C 207.464 158.992, 208.561 159.290, 209 160 C 209.860 161.392, 213 160.685, 213 159.099 C 213 156.564, 200.140 151, 194.279 151 C 192.813 151, 190.979 149.971, 189.821 148.500 C 188.740 147.125, 187.043 146, 186.050 146 C 185.057 146, 183.685 145.325, 183 144.500 C 181.324 142.481, 179.661 142.612, 177.565 144.928 M 104 150 C 104 150.550, 104.450 151, 105 151 C 105.550 151, 106 150.550, 106 150 C 106 149.450, 105.550 149, 105 149 C 104.450 149, 104 149.450, 104 150 M 123 158 C 124.939 159.253, 126 159.253, 126 158 C 126 157.450, 124.987 157.007, 123.750 157.015 C 121.931 157.028, 121.787 157.216, 123 158 M 88.158 168 C 88.158 169.375, 88.385 169.938, 88.662 169.250 C 88.940 168.563, 88.940 167.438, 88.662 166.750 C 88.385 166.063, 88.158 166.625, 88.158 168 M 155 175 C 155 175.550, 155.675 176, 156.500 176 C 157.325 176, 158 175.550, 158 175 C 158 174.450, 157.325 174, 156.500 174 C 155.675 174, 155 174.450, 155 175 M 176 178.493 C 176 179.872, 176.505 181, 177.122 181 C 177.948 181, 177.950 181.355, 177.131 182.342 C 176.519 183.080, 176.313 183.980, 176.675 184.342 C 177.976 185.643, 181.053 184.962, 182.732 183 C 184.743 180.652, 186.255 180.502, 189.285 182.352 C 191.059 183.435, 192.779 183.485, 197.925 182.602 C 205.239 181.348, 207.453 179.003, 201.333 178.994 C 199.225 178.991, 195.925 178.585, 194 178.091 C 192.075 177.597, 187.238 176.922, 183.250 176.590 C 176.017 175.987, 176 175.992, 176 178.493 M 215.250 206.953 C 213.761 209.359, 213.599 213, 214.981 213 C 216.134 213, 217.325 208.863, 216.839 206.545 C 216.554 205.190, 216.301 205.255, 215.250 206.953 M 86.158 210 C 86.158 211.375, 86.385 211.938, 86.662 211.250 C 86.940 210.563, 86.940 209.438, 86.662 208.750 C 86.385 208.063, 86.158 208.625, 86.158 210 M 85.500 220 C 85.101 220.646, 85.224 221.624, 85.774 222.174 C 86.441 222.841, 87.016 222.783, 87.500 222 C 87.899 221.354, 87.776 220.376, 87.226 219.826 C 86.559 219.159, 85.984 219.217, 85.500 220 M 141.040 247.548 C 142.504 249.313, 146.138 249.123, 146.755 247.250 C 147.035 246.401, 145.978 246, 143.461 246 C 140.229 246, 139.919 246.198, 141.040 247.548" stroke="none" fill="black" fill-rule="evenodd"/>
</svg>