<svg xmlns="http://www.w3.org/2000/svg" width="300" height="300" viewBox="0 0 300 300" version="1.1">
	<path d="M 70.441 25.765 C 68.310 27.245, 66.785 41.037, 66.332 62.939 C 66.058 76.197, 65.425 86.207, 64.785 87.402 C 64.126 88.632, 63.357 102.553, 62.819 122.962 C 62.333 141.408, 61.508 160.550, 60.986 165.500 C 59.450 180.057, 57.892 235.120, 58.509 253 C 59.243 274.236, 61.582 283.022, 66.491 282.985 C 71.374 282.947, 71.834 280.779, 69.136 270.500 C 68.413 267.744, 68.390 259.971, 69.063 245.500 C 69.599 233.950, 70.274 212.125, 70.561 197 C 70.849 181.875, 71.512 168.375, 72.036 167 C 72.559 165.625, 73.172 160.689, 73.399 156.032 C 73.636 151.139, 74.272 147.409, 74.905 147.198 C 75.507 146.998, 76.014 145.858, 76.030 144.667 C 76.058 142.708, 76.159 142.669, 77.085 144.258 C 77.648 145.225, 77.865 146.409, 77.568 146.890 C 76.874 148.012, 80.766 153, 82.335 153 C 82.990 153, 84.370 154.125, 85.403 155.500 C 86.435 156.875, 87.780 158.009, 88.390 158.019 C 89.001 158.030, 91.295 159.605, 93.489 161.519 C 95.683 163.434, 98.192 165, 99.065 165 C 99.937 165, 101.708 166.125, 103 167.500 C 104.292 168.875, 106.170 170, 107.174 170 C 110.543 170, 109.094 166.392, 104 162.097 C 101.250 159.778, 99 157.426, 99 156.869 C 99 155.318, 96.334 153, 94.550 153 C 93.674 153, 92.410 151.762, 91.740 150.250 C 90.449 147.333, 88.565 145, 87.500 145 C 86.435 145, 84.606 142.711, 82.546 138.798 C 81.040 135.937, 79.905 135.029, 77.549 134.798 L 74.500 134.500 74.586 119.500 C 74.633 111.250, 75.022 102.428, 75.450 99.896 C 75.956 96.900, 75.826 94.544, 75.078 93.146 C 74.447 91.966, 74.315 91, 74.786 91 C 77.304 91, 79.219 31.282, 76.846 26.750 C 75.915 24.973, 72.369 24.427, 70.441 25.765 M 144.608 32.579 C 144.275 33.448, 144.275 35.248, 144.609 36.579 C 145.249 39.127, 144.154 39.754, 142.301 37.901 C 140.355 35.955, 137.249 37.831, 136.698 41.284 C 135.865 46.507, 131.979 63.333, 131.105 65.500 C 129.165 70.313, 127.735 74.699, 127.270 77.262 C 126.995 78.781, 126.371 80.271, 125.885 80.571 C 125.398 80.872, 124.997 81.879, 124.994 82.809 C 124.990 83.739, 124.315 85.789, 123.494 87.364 C 122.672 88.940, 122 90.858, 122 91.628 C 122 92.397, 121.576 93.809, 121.059 94.764 C 120.541 95.719, 119.390 99.200, 118.501 102.500 C 117.613 105.800, 115.786 110.757, 114.443 113.516 C 111.495 119.570, 111.335 123.104, 113.938 124.729 C 117.433 126.912, 121.486 124.559, 124.356 118.683 C 128.475 110.248, 130 106.322, 130 104.158 C 130 103.036, 130.450 101.840, 131 101.500 C 131.550 101.160, 132 100.024, 132 98.975 C 132 97.252, 133.800 92.356, 136.122 87.764 C 136.605 86.809, 137.014 85.234, 137.032 84.264 C 137.049 83.294, 137.724 81.626, 138.532 80.559 C 139.339 79.491, 140 77.380, 140 75.868 C 140 74.355, 140.371 72.889, 140.825 72.608 C 141.279 72.327, 142.453 68.363, 143.434 63.799 C 144.415 59.235, 145.618 54.195, 146.109 52.601 C 146.599 51.006, 147 48.280, 147 46.542 C 147 44.804, 147.661 42.509, 148.468 41.441 C 150.255 39.079, 150.443 33.843, 148.800 32.200 C 147.137 30.537, 145.329 30.701, 144.608 32.579 M 154.420 55.314 C 152.997 56.944, 151.901 62.578, 152.634 64.489 C 152.953 65.320, 154.339 66, 155.714 66 C 157.393 66, 158.045 65.560, 157.700 64.659 C 157.417 63.922, 157.559 62.713, 158.016 61.974 C 158.702 60.864, 159.123 60.857, 160.424 61.937 C 161.291 62.656, 162 63.865, 162 64.622 C 162 65.393, 163.013 66, 164.300 66 C 165.565 66, 167.115 66.515, 167.744 67.144 C 168.604 68.004, 169.599 67.995, 171.737 67.109 C 174.043 66.154, 175.301 66.228, 178.337 67.496 C 180.400 68.358, 182.465 68.830, 182.926 68.545 C 183.388 68.260, 184.901 68.921, 186.290 70.014 C 189.558 72.584, 192.618 72.568, 193.296 69.975 C 193.805 68.031, 194.482 67.961, 210.081 68.225 C 221.412 68.417, 226.454 68.855, 226.725 69.673 C 226.940 70.318, 226.077 71.050, 224.808 71.299 C 223.538 71.548, 226.550 71.523, 231.500 71.244 C 236.450 70.965, 241.974 70.139, 243.775 69.409 C 245.575 68.679, 247.696 68.330, 248.486 68.633 C 250.267 69.317, 251.383 72.571, 250.389 74.180 C 249.982 74.839, 249.523 89.515, 249.371 106.795 C 249.149 131.813, 249.368 138.648, 250.442 140.356 C 251.460 141.972, 251.782 147.312, 251.753 162.049 C 251.728 174.870, 252.108 182.333, 252.857 183.733 C 253.657 185.228, 254 197.396, 254 224.327 C 254 257.217, 253.787 262.868, 252.532 263.349 C 251.725 263.659, 250.798 263.482, 250.473 262.956 C 250.148 262.430, 248.754 262, 247.375 262 C 245.997 262, 244.030 261.551, 243.006 261.003 C 241.981 260.455, 237.869 259.841, 233.867 259.638 C 229.636 259.424, 226.432 258.795, 226.212 258.135 C 226.004 257.511, 224.351 257, 222.539 257 C 220.727 257, 218.685 256.325, 218 255.500 C 216.218 253.353, 214 253.650, 214 256.036 C 214 257.501, 215.283 258.621, 218.583 260.036 C 221.104 261.116, 223.804 262, 224.583 262 C 225.362 262, 226 262.450, 226 263 C 226 263.550, 226.518 264, 227.150 264 C 229.526 264, 239 269.290, 239 270.617 C 239 271.504, 240.166 272.011, 242.250 272.032 C 244.037 272.049, 246.374 272.724, 247.441 273.532 C 250.471 275.824, 253.674 275.432, 253.579 272.781 C 253.534 271.520, 254.179 270.424, 255.072 270.242 C 256.845 269.881, 259 273.825, 259 277.434 C 259 279.264, 259.647 279.868, 261.977 280.210 C 267.514 281.023, 267.475 281.264, 265.987 255.331 C 265.235 242.224, 264.543 220.899, 264.448 207.942 C 264.346 193.905, 263.856 183.599, 263.237 182.442 C 261.386 178.983, 260.054 88.226, 261.540 66.840 C 262.117 58.539, 262.051 58.151, 259.939 57.481 C 258.560 57.043, 256.010 57.536, 253.118 58.799 C 246.854 61.535, 229.161 62.957, 206 62.587 C 185.487 62.259, 175.879 61.341, 172.049 59.343 C 170.647 58.611, 168.948 58.010, 168.274 58.006 C 167.600 58.003, 165.575 57.102, 163.774 56.004 C 160.092 53.759, 156.038 53.460, 154.420 55.314 M 28 91.981 C 28 92.520, 26.817 93.259, 25.370 93.622 L 22.741 94.282 23.494 108.391 C 23.908 116.151, 24.231 124.075, 24.211 126 C 24.125 134.603, 22.039 171.850, 21.464 175.056 C 20.997 177.659, 21.248 178.961, 22.401 179.917 C 26.639 183.435, 30.036 176.220, 32.485 158.500 C 33.329 152.392, 32.966 115.363, 32.023 111.500 C 30.688 106.026, 30.762 100.299, 32.221 96.266 C 33.240 93.446, 33.199 92.738, 31.971 91.961 C 30.038 90.739, 28 90.749, 28 91.981 M 153.500 126.010 C 152.400 126.482, 149.925 127.125, 148 127.438 C 142.570 128.322, 139.048 131.783, 137.223 138.026 C 135.304 144.592, 135.314 147.548, 137.339 174 C 139.274 199.260, 139.726 201.957, 142.380 204.107 C 144.358 205.708, 144.680 205.712, 147.320 204.160 C 149.863 202.666, 150.090 202.101, 149.594 198.500 C 147.763 185.191, 147.733 184.040, 149.201 183.476 C 150.001 183.169, 151.769 183.342, 153.130 183.859 C 155.874 184.903, 158.670 183.814, 160.765 180.887 C 161.756 179.502, 163.106 179.199, 166.996 179.489 C 169.728 179.692, 172.384 180.119, 172.898 180.437 C 173.413 180.755, 176.684 180.344, 180.167 179.523 C 187.430 177.810, 196 177.527, 196 179 C 196 179.550, 197.125 180, 198.500 180 C 200.977 180, 201.001 180.087, 201.138 189.250 C 201.377 205.216, 200.877 213.441, 199.586 214.789 C 197.753 216.701, 178.550 217.058, 161.748 215.493 C 147.954 214.207, 147.446 214.227, 145.800 216.131 C 143.944 218.279, 144.395 221, 146.607 221 C 147.373 221, 148 221.644, 148 222.430 C 148 224.236, 158.389 224.083, 161.685 222.229 C 164.266 220.776, 168.244 221.957, 171.711 225.204 C 173.689 227.057, 174.248 227.140, 177.028 225.988 C 180.391 224.595, 200.174 224.308, 210.284 225.504 C 216.742 226.269, 219 225.228, 219 221.485 C 219 219.080, 217.308 218, 213.541 218 C 210.135 218, 208.282 215.379, 209.879 212.821 C 211.401 210.385, 211.594 171.978, 210.099 169.184 C 209.577 168.210, 208.830 163.034, 208.437 157.680 C 208.044 152.326, 207.335 147.707, 206.861 147.414 C 206.387 147.121, 206 144.866, 206 142.401 C 206 137.723, 203.375 131.387, 200.421 128.933 C 199.162 127.887, 195.020 127.406, 185.098 127.153 C 177.619 126.962, 171.050 126.478, 170.500 126.077 C 169.075 125.037, 155.888 124.986, 153.500 126.010 M 160.945 132.824 C 158.480 134.017, 157.539 134.116, 157.237 133.212 C 156.329 130.487, 153.100 132.127, 150.613 136.576 C 147.928 141.381, 146.848 149.422, 146.610 166.377 C 146.486 175.277, 147.143 176.109, 152.345 173.641 C 156.620 171.612, 190.306 169.438, 195.452 170.859 C 199.804 172.061, 201.469 170.428, 200.646 165.764 C 200.329 163.969, 199.391 158.451, 198.560 153.502 C 195.514 135.353, 195.686 135.561, 183.031 134.663 C 177.852 134.295, 173.364 133.613, 173.057 133.147 C 171.909 131.401, 164.301 131.198, 160.945 132.824 M 66 143.893 C 66 144.384, 66.675 145.045, 67.500 145.362 C 68.414 145.712, 69 145.363, 69 144.469 C 69 143.661, 68.325 143, 67.500 143 C 66.675 143, 66 143.402, 66 143.893 M 81.733 150.124 C 82.412 150.808, 83.219 151.115, 83.526 150.807 C 83.834 150.499, 83.279 149.940, 82.293 149.564 C 80.868 149.022, 80.753 149.136, 81.733 150.124 M 256.070 173.250 C 256.032 175.313, 256.450 177, 257 177 C 258.194 177, 258.194 174.279, 257 171.500 C 256.311 169.896, 256.127 170.242, 256.070 173.250 M 141.666 223.427 C 140.947 225.302, 143.308 227.203, 145.373 226.410 C 147.310 225.667, 147.422 224.822, 145.800 223.200 C 144.184 221.584, 142.335 221.686, 141.666 223.427 M 259.232 244 C 259.232 245.925, 259.438 246.713, 259.689 245.750 C 259.941 244.787, 259.941 243.213, 259.689 242.250 C 259.438 241.287, 259.232 242.075, 259.232 244" stroke="none" fill="black" fill-rule="evenodd"/>
</svg>