<svg xmlns="http://www.w3.org/2000/svg" width="300" height="300" viewBox="0 0 300 300" version="1.1">
	<path d="M 136.937 60.576 C 135.063 62.834, 134.547 71.302, 136.112 74.104 C 139.053 79.368, 140.098 88.011, 140.666 111.762 C 141.233 135.483, 141.294 136.033, 143.373 136.450 C 145.546 136.885, 176.878 138.247, 180.500 138.063 C 181.600 138.008, 189.250 137.858, 197.500 137.731 C 210.786 137.526, 212.649 137.700, 213.807 139.250 C 215.500 141.518, 216.497 141.456, 218.842 138.939 C 220.605 137.047, 220.775 135.060, 220.921 114.593 C 221.053 96.006, 220.740 90.418, 219.031 80.927 C 217.283 71.223, 216.592 69.213, 214.335 67.274 C 212.880 66.023, 211.196 64.975, 210.594 64.945 C 203.476 64.591, 179.285 62.742, 171.500 61.959 C 166 61.405, 157.450 60.743, 152.500 60.488 C 147.550 60.233, 142.302 59.813, 140.837 59.554 C 139.207 59.267, 137.695 59.663, 136.937 60.576 M 85.667 63.667 C 84.704 64.629, 84.845 69, 85.839 69 C 86.952 69, 89.034 64.367, 88.266 63.600 C 87.481 62.814, 86.494 62.839, 85.667 63.667 M 92.688 63.646 C 92.309 64.024, 91.997 65.271, 91.994 66.417 C 91.990 67.563, 91.393 69.640, 90.665 71.034 C 89.437 73.388, 86.988 88.310, 86.897 94 C 86.875 95.375, 86.660 109.100, 86.419 124.500 C 86.179 139.900, 85.696 167.350, 85.346 185.500 C 84.508 229.011, 84.707 269.763, 85.776 273.500 C 86.354 275.521, 87.376 276.608, 88.905 276.831 L 91.175 277.162 90.338 262.331 C 89.447 246.558, 89.391 229.896, 90.075 183.833 C 90.309 168.066, 90.867 154.800, 91.315 154.352 C 91.763 153.904, 93.487 154.317, 95.146 155.269 C 96.805 156.221, 98.801 157, 99.581 157 C 100.361 157, 101 157.361, 101 157.802 C 101 158.244, 103.138 159.371, 105.750 160.307 C 110.526 162.019, 121.399 162.427, 127.500 161.122 C 134.875 159.545, 127.733 155.234, 117.485 155.077 C 114.513 155.031, 110.951 154.185, 108.739 153 C 106.686 151.900, 104.331 151, 103.504 151 C 102.677 151, 102 150.590, 102 150.089 C 102 149.588, 99.967 148.194, 97.483 146.992 C 94.999 145.789, 92.463 143.866, 91.849 142.718 C 90.188 139.614, 91.400 94.517, 93.549 79.500 C 94.493 72.900, 95.319 66.646, 95.383 65.601 C 95.505 63.627, 93.883 62.451, 92.688 63.646 M 142 66.500 C 142 67.325, 142.450 68, 143 68 C 143.550 68, 144 67.325, 144 66.500 C 144 65.675, 143.550 65, 143 65 C 142.450 65, 142 65.675, 142 66.500 M 152.500 67 C 152.160 67.550, 152.584 68, 153.441 68 C 154.298 68, 155 67.550, 155 67 C 155 66.450, 154.577 66, 154.059 66 C 153.541 66, 152.840 66.450, 152.500 67 M 191.597 67.844 C 191.251 68.404, 191.455 69.163, 192.050 69.531 C 193.588 70.481, 194.580 69.180, 193.296 67.896 C 192.578 67.178, 192.019 67.161, 191.597 67.844 M 173.500 69 C 173.840 69.550, 175.329 69.968, 176.809 69.930 C 179.212 69.867, 179.286 69.767, 177.500 69 C 174.722 67.806, 172.762 67.806, 173.500 69 M 144.863 71 C 144.554 74.404, 145.171 94.632, 145.634 96.248 C 145.908 97.209, 147.228 98.270, 148.567 98.606 C 151.649 99.380, 151.687 100.611, 148.651 101.373 C 146.380 101.943, 146.278 102.405, 145.606 115.136 C 145.223 122.382, 145.272 128.672, 145.714 129.114 C 146.156 129.556, 149.439 129.537, 153.009 129.071 C 161.805 127.924, 197.531 128.434, 202.500 129.777 C 204.700 130.372, 208.507 131.003, 210.959 131.179 L 215.418 131.500 215.160 127 C 215.019 124.525, 214.756 119.879, 214.578 116.676 C 214.399 113.473, 213.846 110.446, 213.349 109.949 C 212.853 109.453, 209.533 108.847, 205.973 108.603 C 202.413 108.360, 194.100 107.685, 187.500 107.104 C 180.900 106.523, 173.989 106.037, 172.143 106.024 C 169.637 106.006, 168.926 105.635, 169.339 104.560 C 169.715 103.578, 168.792 102.756, 166.442 101.981 C 162.197 100.580, 156.623 101.575, 157.398 103.595 C 158.337 106.041, 155.306 105.115, 153.537 102.415 C 151.940 99.979, 151.944 99.719, 153.607 97.882 C 155.202 96.120, 156.288 95.990, 164.935 96.529 C 182.578 97.630, 194.497 99.019, 194.833 100.013 C 195.017 100.556, 197.717 101.003, 200.833 101.006 C 203.950 101.009, 208.194 101.481, 210.263 102.056 C 212.333 102.631, 214.430 102.852, 214.922 102.548 C 215.948 101.914, 213.719 92.571, 212.067 90.581 C 211.471 89.862, 210.520 86.625, 209.953 83.387 C 208.100 72.786, 209.238 73.393, 189.889 72.697 C 180.574 72.363, 172.428 71.764, 171.785 71.367 C 170.539 70.597, 163.990 70.040, 152.249 69.706 C 146.430 69.541, 144.972 69.796, 144.863 71 M 182 104 C 182 104.550, 183.238 104.993, 184.750 104.985 C 186.893 104.973, 187.169 104.755, 186 104 C 184.043 102.736, 182 102.736, 182 104 M 163.500 105 C 164.600 105.473, 166.175 105.884, 167 105.914 C 168.333 105.963, 168.333 105.862, 167 105 C 166.175 104.467, 164.600 104.055, 163.500 104.086 L 161.500 104.141 163.500 105 M 197.750 105.662 C 198.438 105.940, 199.563 105.940, 200.250 105.662 C 200.938 105.385, 200.375 105.158, 199 105.158 C 197.625 105.158, 197.063 105.385, 197.750 105.662 M 51.633 111.913 C 52.096 114.228, 51.680 115.292, 49.608 117.093 C 46.506 119.790, 46.274 122.843, 48.952 125.718 C 52.034 129.026, 52.942 142.666, 51.619 165.750 C 51.061 175.474, 51.132 180, 51.842 180 C 53.645 180, 54.367 177.785, 55.089 170.032 C 55.475 165.889, 56.313 160.487, 56.951 158.027 C 58.322 152.738, 57.457 113.723, 55.904 110.821 C 55.368 109.820, 54.057 109, 52.990 109 C 51.381 109, 51.149 109.497, 51.633 111.913 M 182.667 133.667 C 181.172 135.161, 182.191 136, 185.500 136 C 189.122 136, 190.188 134.670, 187.418 133.607 C 185.350 132.813, 183.497 132.837, 182.667 133.667 M 82 146.583 C 82 147.454, 82.534 147.989, 83.188 147.771 C 85.042 147.153, 85.349 145, 83.583 145 C 82.713 145, 82 145.713, 82 146.583 M 144 160.069 C 136.983 161.152, 132 163.573, 132 165.902 C 132 168.373, 136.514 169.749, 143 169.255 C 145.475 169.066, 153.089 168.815, 159.920 168.696 C 168.750 168.543, 172.459 168.122, 172.753 167.241 C 173.334 165.498, 170.261 164.539, 168.576 165.937 C 167.695 166.668, 166.954 166.735, 166.573 166.118 C 165.582 164.514, 167.940 163.714, 173.659 163.714 C 179.780 163.714, 181.316 164.564, 178.679 166.492 C 176.955 167.753, 176.977 167.858, 179.105 168.533 C 180.648 169.023, 181.718 168.739, 182.534 167.623 C 183.945 165.693, 185.100 165.499, 184.750 167.250 C 184.556 168.221, 189.678 168.500, 207.721 168.500 C 230.113 168.500, 231.019 168.424, 233.083 166.361 C 234.752 164.692, 234.997 163.817, 234.195 162.384 C 233.296 160.777, 231.624 160.519, 220.834 160.323 C 179.415 159.572, 147.903 159.468, 144 160.069 M 151 166 C 151 166.550, 151.450 167, 152 167 C 152.550 167, 153 166.550, 153 166 C 153 165.450, 152.550 165, 152 165 C 151.450 165, 151 165.450, 151 166 M 201 166.031 C 201 166.564, 201.675 167, 202.500 167 C 203.325 167, 204 166.823, 204 166.607 C 204 166.391, 203.325 165.955, 202.500 165.638 C 201.675 165.322, 201 165.499, 201 166.031 M 208.500 167 C 208.131 167.596, 209.343 168, 211.500 168 C 213.657 168, 214.869 167.596, 214.500 167 C 214.160 166.450, 212.810 166, 211.500 166 C 210.190 166, 208.840 166.450, 208.500 167 M 186.893 172.880 C 186.168 174.516, 185.257 175.659, 184.868 175.418 C 183.693 174.692, 180 180.106, 180 182.553 C 180 185.865, 181.014 188, 182.588 188 C 184.432 188, 185.041 191.191, 184.687 199 L 184.392 205.500 179.946 205.412 C 177.501 205.363, 169.315 205.077, 161.756 204.777 C 154.196 204.476, 144.746 204.627, 140.756 205.112 C 136.765 205.597, 129.450 206.262, 124.500 206.590 C 114.944 207.224, 107 209.459, 107 211.513 C 107 214.624, 110.180 215.447, 121.694 215.317 C 132.142 215.200, 136.483 214.434, 133.250 213.280 C 130.825 212.414, 132.055 211.212, 137.033 209.584 C 139.979 208.620, 142.673 208.277, 143.529 208.756 C 145.008 209.584, 154.734 208.793, 158.601 207.531 C 161.271 206.659, 164.941 209.788, 162.824 211.130 C 162.096 211.592, 160.150 212.033, 158.500 212.110 C 152.922 212.371, 163.951 213.846, 172.076 213.926 C 178.667 213.990, 179.936 214.303, 181.844 216.334 C 183.889 218.511, 184.021 219.506, 183.799 231.084 C 183.642 239.220, 184.325 249.705, 185.779 261.500 C 187 271.400, 187.999 281.161, 187.999 283.191 C 188 287.639, 189.458 288.881, 191.093 285.827 C 192.313 283.546, 192.025 273.877, 190.011 249.500 C 188.668 233.252, 188.754 216.270, 190.182 215.387 C 190.833 214.985, 199.899 214.756, 210.330 214.877 C 224.225 215.039, 231.813 215.605, 238.713 216.993 C 243.892 218.035, 248.776 218.639, 249.565 218.337 C 250.354 218.034, 251 216.714, 251 215.404 C 251 211.908, 248.058 209, 244.521 209 C 242.852 209, 239.968 208.564, 238.111 208.032 C 236.254 207.499, 224.669 207.008, 212.367 206.941 L 190 206.818 189.919 199.659 C 189.828 191.523, 190.033 177.919, 190.312 173.598 C 190.567 169.655, 188.511 169.224, 186.893 172.880 M 123 210 C 123 210.550, 122.137 211, 121.082 211 C 118.449 211, 116 212.026, 116 213.129 C 116 214.096, 129.581 213.752, 130.572 212.761 C 130.890 212.443, 130.217 211.886, 129.075 211.524 C 127.934 211.162, 127 210.446, 127 209.933 C 127 209.420, 126.100 209, 125 209 C 123.900 209, 123 209.450, 123 210 M 176 209.393 C 176 210.342, 178.993 210.820, 179.527 209.956 C 179.852 209.430, 179.191 209, 178.059 209 C 176.927 209, 176 209.177, 176 209.393 M 209 211 C 210.306 213.439, 214.530 213.823, 213.607 211.418 C 213.273 210.548, 213 209.648, 213 209.418 C 213 209.188, 211.859 209, 210.465 209 C 208.240 209, 208.060 209.244, 209 211 M 147 211.049 C 144.525 211.488, 141.037 211.607, 139.250 211.313 C 136.707 210.894, 136 211.128, 136 212.389 C 136 213.680, 137.120 214, 141.634 214 C 147.855 214, 155.231 212.182, 154.408 210.852 C 153.822 209.902, 153.397 209.914, 147 211.049 M 201.192 211.091 C 201.741 212.757, 206 213.624, 206 212.070 C 206 211.481, 205.587 211, 205.082 211 C 204.577 211, 203.390 210.703, 202.445 210.341 C 201.239 209.878, 200.866 210.101, 201.192 211.091 M 216.639 211.694 C 215.513 212.820, 215.954 214, 217.500 214 C 218.325 214, 219 213.577, 219 213.059 C 219 211.798, 217.438 210.895, 216.639 211.694" stroke="none" fill="black" fill-rule="evenodd"/>
</svg>