<svg xmlns="http://www.w3.org/2000/svg" width="300" height="300" viewBox="0 0 300 300" version="1.1">
	<path d="M 76.750 23.392 C 75.253 24.528, 75 26.468, 75 36.798 C 75 43.441, 75.620 51.716, 76.378 55.188 C 77.282 59.326, 77.800 68.905, 77.883 83 C 77.953 94.825, 78.278 106.378, 78.607 108.673 C 79.042 111.712, 78.721 113.664, 77.426 115.856 C 75.830 118.558, 75.783 119.426, 76.964 124.348 C 77.687 127.364, 77.937 130.656, 77.519 131.665 C 75.619 136.250, 75.337 165.361, 76.993 186 C 77.544 192.875, 78.167 204.193, 78.377 211.150 C 78.587 218.108, 79.099 224.351, 79.515 225.025 C 79.931 225.698, 80.382 230.130, 80.516 234.875 C 80.650 239.619, 81.282 247.032, 81.920 251.349 C 82.720 256.757, 82.760 259.585, 82.049 260.441 C 81.482 261.125, 81.300 261.966, 81.645 262.312 C 82.206 262.873, 83.162 275.137, 83.074 280.644 C 83.030 283.407, 85.271 285.242, 88.186 284.827 C 90.103 284.554, 90.610 283.674, 91.254 279.500 C 91.679 276.750, 91.764 273.150, 91.442 271.500 C 91.121 269.850, 90.666 258.375, 90.431 246 C 89.786 212.044, 89.262 201.988, 87.852 196.500 C 86.854 192.615, 86.622 176.077, 86.812 122.360 C 86.963 80.103, 86.679 51.526, 86.082 48.860 C 85.546 46.462, 84.799 40.225, 84.423 35 C 83.571 23.147, 81.400 19.862, 76.750 23.392 M 168.838 26.495 C 168.598 26.735, 162.124 26.988, 154.451 27.057 C 146.543 27.128, 139.959 27.629, 139.250 28.214 C 138.563 28.781, 138 30.522, 138 32.084 C 138 34.562, 138.522 35.063, 142.101 36.027 C 146.813 37.296, 147.936 36.729, 146.204 33.955 C 145.532 32.880, 145.365 32, 145.831 32 C 146.297 32, 147.192 33.125, 147.818 34.500 C 149.225 37.589, 153 37.953, 153 35 C 153 33.900, 152.495 33, 151.878 33 C 151.106 33, 151.148 32.527, 152.010 31.488 C 152.949 30.356, 153.602 30.255, 154.601 31.084 C 155.335 31.693, 155.897 32.486, 155.850 32.846 C 155.528 35.277, 156.355 36, 159.455 36 L 162.909 36 160.205 33.250 L 157.500 30.500 162.521 29.994 C 165.282 29.715, 170.007 29.696, 173.021 29.951 L 178.500 30.415 174.078 30.957 C 171.645 31.256, 169.459 32.097, 169.218 32.828 C 168.881 33.853, 169.774 34.018, 173.141 33.554 C 177.005 33.021, 177.703 33.238, 179.286 35.463 C 180.826 37.626, 181.138 40.923, 181.550 59.353 C 181.960 77.747, 181.813 80.911, 180.492 82.007 C 179.155 83.117, 172.330 83.533, 165.500 82.922 C 164.400 82.823, 157.832 82.960, 150.903 83.224 C 140.953 83.605, 137.627 84.104, 135.072 85.603 C 132.064 87.367, 131.881 87.778, 132.462 91.450 C 133.108 95.531, 134.524 98, 136.218 98 C 136.753 98, 138.516 97.057, 140.135 95.904 C 143.192 93.727, 154.099 91, 159.750 91 C 161.537 91, 163 90.508, 163 89.906 C 163 89.169, 161.372 89.036, 158 89.500 C 153.804 90.077, 153 89.931, 153 88.594 C 153 87.403, 154.004 87, 156.969 87 C 160.085 87, 160.814 86.678, 160.362 85.500 C 159.997 84.550, 160.375 84, 161.393 84 C 162.277 84, 163 84.460, 163 85.021 C 163 85.583, 164.125 86.555, 165.500 87.182 C 167.075 87.900, 168 89.143, 168 90.544 C 168 92.776, 170.309 94.075, 172.792 93.240 C 174.521 92.658, 172.413 90.032, 170.128 89.921 C 169.091 89.871, 168.954 89.659, 169.750 89.338 C 170.438 89.060, 171 88.169, 171 87.358 C 171 86.427, 171.462 86.171, 172.250 86.663 C 173.595 87.503, 175.330 87.984, 178.500 88.395 C 179.910 88.578, 180.578 89.517, 180.764 91.577 C 180.909 93.185, 181.269 95.972, 181.563 97.772 C 182.068 100.856, 182.197 100.946, 183.799 99.335 C 185.403 97.724, 185.519 97.755, 185.829 99.886 C 186.233 102.662, 185.411 105, 184.031 105 C 183.464 105, 182.963 104.213, 182.919 103.250 C 182.866 102.118, 182.362 102.559, 181.490 104.500 C 179.758 108.354, 180.023 133.423, 181.814 135.214 C 183.381 136.781, 183.337 141.673, 181.750 142.206 C 181.063 142.437, 176.225 142.303, 171 141.907 C 165.775 141.512, 155.361 141.146, 147.857 141.094 C 136.282 141.014, 134.122 141.240, 133.607 142.582 C 132.490 145.492, 132.970 145.853, 138.750 146.452 C 141.912 146.780, 146.188 147.220, 148.250 147.429 C 150.313 147.638, 151.768 147.434, 151.484 146.974 C 150.549 145.462, 152.803 144.953, 155.332 146.105 C 157.309 147.006, 158.754 146.877, 162.429 145.474 C 164.968 144.504, 167.335 144.001, 167.689 144.356 C 168.043 144.710, 167.808 145, 167.167 145 C 164.751 145, 166.121 146.868, 169 147.500 C 173.511 148.491, 172.606 150, 167.500 150 C 163.241 150, 161.522 148.763, 164.250 147.662 C 164.997 147.361, 164.795 147.126, 163.750 147.079 C 162.787 147.036, 162 147.675, 162 148.500 C 162 149.678, 160.618 150, 155.559 150 C 151.900 150, 148.820 149.518, 148.429 148.885 C 148.002 148.194, 145.981 147.967, 143.126 148.289 C 140.588 148.575, 137.683 148.366, 136.670 147.824 C 134.416 146.617, 133.630 147.257, 134.397 149.675 C 134.936 151.373, 136.452 151.489, 156.238 151.337 C 182.917 151.132, 180.860 151.290, 178.473 149.620 C 177.388 148.861, 175.600 148.014, 174.500 147.736 C 173.111 147.386, 173.448 147.197, 175.601 147.116 C 177.306 147.052, 180.128 146.503, 181.872 145.895 C 185.715 144.555, 188.853 146.267, 186.890 148.633 C 185.979 149.730, 186.273 150, 188.378 150 C 190.066 150, 191 149.455, 191 148.468 C 191 146.502, 195.085 144.896, 196.724 146.216 C 197.548 146.880, 199.718 146.646, 203.355 145.502 C 207.539 144.186, 209.235 144.055, 210.857 144.924 C 212.431 145.766, 213.440 145.742, 214.903 144.829 C 217.842 142.993, 222 145.167, 222 148.539 L 222 151.121 229.250 150.419 C 235.916 149.774, 238.524 148.658, 237.445 146.911 C 237.212 146.535, 237.692 145.671, 238.511 144.991 C 239.557 144.123, 240.037 144.089, 240.125 144.878 C 240.194 145.495, 240.363 146.450, 240.500 147 C 240.637 147.550, 240.806 148.450, 240.875 149 C 240.944 149.550, 242.800 150, 245 150 C 248.246 150, 249 150.354, 249 151.878 C 249 154.264, 251.297 156.207, 253.238 155.462 C 256.026 154.392, 257.106 150.305, 255.883 145.449 C 254.921 141.629, 254.390 140.989, 252.131 140.924 C 250.684 140.882, 247.925 140.279, 246 139.585 C 241.674 138.024, 241.542 137.298, 240.539 109.500 C 239.919 92.307, 239.547 89.058, 237.889 86.349 C 236.828 84.616, 235.202 82.908, 234.276 82.553 C 233.351 82.197, 228.377 82.437, 223.225 83.086 C 212.317 84.459, 195.745 83.863, 193.522 82.018 C 190.263 79.313, 192.707 41.152, 196.293 38.759 C 196.957 38.317, 200.875 38.052, 205 38.172 C 216.470 38.504, 225 35.861, 225 31.974 C 225 30.158, 224.261 29.992, 215.750 29.903 C 210.662 29.850, 204.913 29.877, 202.974 29.963 C 201.034 30.050, 198.109 29.604, 196.474 28.973 C 194.838 28.341, 190.575 27.636, 187 27.405 C 183.425 27.175, 177.974 26.777, 174.887 26.523 C 171.800 26.268, 169.078 26.256, 168.838 26.495 M 201 34.059 C 201 34.641, 201.450 34.840, 202 34.500 C 202.550 34.160, 203 33.684, 203 33.441 C 203 33.198, 202.550 33, 202 33 C 201.450 33, 201 33.477, 201 34.059 M 207.813 33.683 C 208.534 33.972, 209.397 33.936, 209.729 33.604 C 210.061 33.272, 209.471 33.036, 208.417 33.079 C 207.252 33.127, 207.015 33.364, 207.813 33.683 M 41.968 80.750 C 41.951 82.263, 41.276 84.374, 40.468 85.441 C 38.611 87.896, 38.559 96.234, 40.377 99.800 C 41.373 101.751, 41.763 106.936, 41.785 118.500 C 41.848 151.633, 41.784 150.721, 44.189 152.961 C 47.235 155.799, 50.988 155.684, 51.038 152.750 C 51.060 151.512, 51.377 147.800, 51.744 144.500 C 52.507 137.638, 52.409 128.379, 51.291 101.500 C 50.420 80.571, 49.705 78, 44.759 78 C 42.424 78, 41.995 78.422, 41.968 80.750 M 219.750 86.794 C 218.238 86.981, 217 87.608, 217 88.189 C 217 88.893, 216.545 88.867, 215.635 88.112 C 214.885 87.490, 212.636 87.097, 210.637 87.240 C 207.474 87.466, 207.014 87.823, 207.081 90 C 207.123 91.375, 207.385 91.938, 207.662 91.250 C 207.991 90.436, 210.361 90, 214.461 90 C 218.880 90, 221.132 89.546, 222.020 88.476 C 223.574 86.603, 223.251 86.364, 219.750 86.794 M 193.200 88.200 C 192.446 88.954, 191.994 92.763, 191.985 98.450 C 191.977 103.428, 191.533 113.904, 190.998 121.732 C 189.981 136.639, 190.549 140.482, 193.872 141.165 C 194.767 141.349, 203.553 141.367, 213.397 141.204 L 231.293 140.908 230.446 126.704 C 229.980 118.892, 229.600 107.452, 229.602 101.281 C 229.604 92.477, 229.297 89.944, 228.176 89.514 C 227.390 89.212, 226.241 89.363, 225.623 89.848 C 224.543 90.698, 217.477 91.622, 204.250 92.645 L 198 93.128 198 90.064 C 198 87.780, 197.542 87, 196.200 87 C 195.210 87, 193.860 87.540, 193.200 88.200 M 144.500 89 C 143.684 90.320, 144.777 92, 146.452 92 C 147.567 92, 149 89.985, 149 88.418 C 149 87.542, 145.089 88.047, 144.500 89 M 234.079 106.583 C 234.127 107.748, 234.364 107.985, 234.683 107.188 C 234.972 106.466, 234.936 105.603, 234.604 105.271 C 234.272 104.939, 234.036 105.529, 234.079 106.583 M 90.561 123.901 C 90.255 124.396, 90.063 127.321, 90.134 130.402 C 90.259 135.825, 90.318 135.939, 91.999 134.001 C 92.954 132.901, 94.196 132, 94.759 132 C 96.276 132, 97.254 136.990, 96.026 138.469 C 94.356 140.481, 95.870 142.839, 100.617 145.622 C 103.028 147.034, 105 148.597, 105 149.095 C 105 149.593, 105.675 150, 106.500 150 C 107.325 150, 108 150.420, 108 150.933 C 108 151.446, 109.013 152.174, 110.250 152.551 C 111.487 152.928, 113.175 153.804, 114 154.496 C 116.494 156.591, 129.667 158.733, 131.119 157.281 C 132.654 155.746, 130.974 153, 128.500 153 C 127.243 153, 125.955 152.325, 125.638 151.500 C 125.322 150.675, 124.411 150, 123.615 150 C 122.818 150, 122.017 149.662, 121.833 149.250 C 121.650 148.838, 118.800 146.712, 115.500 144.527 C 112.200 142.342, 108.288 139.304, 106.806 137.777 C 105.325 136.250, 103.862 135, 103.556 135 C 102.599 135, 99 131.050, 99 130 C 99 129.450, 98.325 129, 97.500 129 C 96.675 129, 96 128.555, 96 128.011 C 96 126.808, 92.836 123, 91.837 123 C 91.441 123, 90.868 123.405, 90.561 123.901 M 44 130.345 C 44 132.964, 45.169 135, 46.673 135 C 48.832 135, 47.976 129.607, 45.750 129.185 C 44.717 128.989, 44 129.465, 44 130.345 M 189 179.142 C 179.815 179.984, 173.447 180.911, 162.104 183.054 C 157.132 183.993, 156.518 183.896, 154.309 181.820 C 152.322 179.954, 151.618 179.777, 150.205 180.791 C 149.267 181.464, 147.530 182.514, 146.344 183.125 C 142.086 185.318, 140.708 189.753, 141.398 199.042 C 141.744 203.694, 142.262 209.075, 142.549 211 C 142.836 212.925, 143.462 221.475, 143.941 230 C 144.796 245.227, 146.651 257.799, 148.851 263.268 C 150.198 266.617, 154.281 268.455, 157.065 266.965 C 158.129 266.396, 159.052 265.383, 159.115 264.715 C 159.378 261.940, 158.727 259.402, 157.358 257.867 C 155.304 255.564, 154.063 242.299, 153.430 215.901 L 152.889 193.303 160.618 192.650 C 165.261 192.257, 169.008 191.398, 170.002 190.498 C 170.913 189.674, 173.261 189, 175.222 189 C 177.468 189, 178.999 188.445, 179.362 187.500 C 179.819 186.308, 178.969 185.971, 175.219 185.859 L 170.500 185.718 175.614 185.094 C 178.427 184.751, 181.443 183.877, 182.316 183.152 C 184.153 181.628, 187.558 182.407, 188.376 184.538 C 188.793 185.624, 188.152 186, 185.885 186 C 181.929 186, 182.530 188.400, 186.577 188.761 C 190.244 189.087, 193.157 187.424, 191.166 186.139 C 190.100 185.451, 190.167 185.150, 191.498 184.639 C 194.532 183.475, 198.254 183.896, 197.700 185.341 C 197.417 186.078, 197.537 187.251, 197.968 187.948 C 199.136 189.837, 202.958 188.241, 204.033 185.414 C 204.756 183.512, 205.675 183, 208.368 183 C 210.484 183, 212.005 183.572, 212.362 184.500 C 212.735 185.472, 212.333 186.005, 211.219 186.015 C 210.273 186.024, 208.825 186.482, 208 187.034 C 205.212 188.900, 209.201 190.565, 216.136 190.431 C 228.440 190.193, 230.125 190.012, 229.496 188.993 C 228.551 187.465, 231.319 186.803, 234.065 187.901 C 236.466 188.860, 236.468 188.874, 234.250 188.937 C 230.463 189.043, 231.745 191.631, 236.482 193.440 C 240.297 194.897, 241.099 195.698, 241.875 198.826 C 243.798 206.584, 244.912 210.689, 246.536 216 C 247.460 219.025, 248.625 225.775, 249.125 231 C 249.624 236.225, 250.499 241.415, 251.070 242.534 C 251.640 243.653, 251.970 247.478, 251.803 251.034 L 251.500 257.500 248.165 257.820 C 246.330 257.996, 242.730 257.458, 240.165 256.625 C 237.599 255.793, 231.900 254.385, 227.500 253.496 C 223.100 252.608, 217.700 251.423, 215.500 250.862 C 208.066 248.966, 202.525 248.120, 196.500 247.960 C 193.200 247.872, 189.403 247.494, 188.063 247.120 C 185.603 246.433, 173.257 248.105, 171.143 249.412 C 169.352 250.519, 169.801 252.823, 172.041 254.022 C 174.070 255.108, 174.068 255.124, 171.791 256.983 C 169.857 258.560, 169.746 258.947, 171.078 259.467 C 171.945 259.805, 173.931 259.597, 175.490 259.004 C 177.626 258.192, 178.042 257.642, 177.176 256.776 C 175.220 254.820, 178.730 252, 183.124 252 C 186.103 252, 186.811 252.328, 186.362 253.500 C 186.045 254.325, 185.084 255, 184.226 255 C 180.946 255, 183.986 256.131, 188.141 256.455 C 190.538 256.643, 194.412 257.126, 196.750 257.530 C 200.313 258.145, 201 258, 201 256.632 C 201 255.387, 199.993 254.988, 196.750 254.950 L 192.500 254.900 196.637 252.892 L 200.775 250.884 205.490 253.100 L 210.204 255.316 207.476 256.431 C 205.227 257.351, 204.994 257.750, 206.146 258.707 C 206.915 259.345, 209.784 260.112, 212.522 260.411 C 215.260 260.710, 219.525 261.438, 222 262.028 C 231.204 264.223, 235.668 264.751, 242.095 264.406 C 251.487 263.902, 252.572 264.913, 252.238 273.856 C 252.084 277.983, 252.411 281.136, 253.032 281.520 C 255.528 283.063, 259.760 276.281, 260.844 269 C 261.462 264.850, 261.759 264.476, 264.672 264.193 C 266.437 264.021, 268.103 263.174, 268.449 262.273 C 269.134 260.486, 267.322 258.886, 265 259.229 C 261.418 259.757, 261.001 258.162, 260.940 243.691 C 260.908 235.886, 260.437 227.250, 259.896 224.500 C 259.354 221.750, 258.490 216.575, 257.976 213 C 257.461 209.425, 256.616 205.600, 256.098 204.500 C 255.580 203.400, 254.371 200.250, 253.413 197.500 C 251.197 191.139, 247.441 186, 245.008 186 C 243.969 186, 242.873 185.604, 242.574 185.120 C 241.430 183.268, 232.197 181.132, 225.263 181.114 C 221.282 181.104, 216.472 180.804, 214.573 180.448 C 212.674 180.091, 209.406 179.701, 207.310 179.579 C 205.215 179.458, 202.375 179.114, 201 178.815 C 199.625 178.516, 194.225 178.663, 189 179.142 M 214.483 186.048 C 214.290 186.349, 214.518 187.220, 214.990 187.983 C 215.672 189.088, 216.149 189.121, 217.322 188.148 C 218.644 187.051, 220.386 187.052, 224.941 188.152 C 225.733 188.343, 226.554 187.709, 226.765 186.742 C 227.104 185.193, 226.419 185.015, 220.991 185.242 C 217.604 185.384, 214.675 185.746, 214.483 186.048 M 161.750 188.662 C 162.438 188.940, 163.563 188.940, 164.250 188.662 C 164.938 188.385, 164.375 188.158, 163 188.158 C 161.625 188.158, 161.063 188.385, 161.750 188.662 M 239.564 190.293 C 239.940 191.279, 240.499 191.834, 240.807 191.526 C 241.115 191.219, 240.808 190.412, 240.124 189.733 C 239.136 188.753, 239.022 188.868, 239.564 190.293 M 246 203.592 C 246 206.539, 249.505 211.610, 250.467 210.054 C 251.435 208.487, 248.851 201, 247.342 201 C 246.564 201, 246 202.091, 246 203.592 M 251.015 214.191 C 251.007 215.121, 251.450 216.160, 252 216.500 C 253.266 217.282, 253.266 215.958, 252 214 C 251.165 212.707, 251.029 212.734, 251.015 214.191 M 146.079 239.583 C 146.127 240.748, 146.364 240.985, 146.683 240.188 C 146.972 239.466, 146.936 238.603, 146.604 238.271 C 146.272 237.939, 146.036 238.529, 146.079 239.583 M 161.688 252.646 C 160.383 253.950, 161.006 255, 163.083 255 C 164.247 255, 164.992 254.476, 164.771 253.813 C 164.284 252.351, 162.614 251.719, 161.688 252.646 M 221 256.023 C 221 256.595, 221.694 257.329, 222.543 257.655 C 224.889 258.555, 225.164 257.583, 222.955 256.204 C 221.717 255.431, 221 255.365, 221 256.023 M 228 259.500 C 228 260.452, 228.958 261, 230.622 261 C 232.840 261, 233.053 260.768, 232 259.500 C 231.315 258.675, 230.135 258, 229.378 258 C 228.620 258, 228 258.675, 228 259.500" stroke="none" fill="black" fill-rule="evenodd"/>
</svg>