<svg xmlns="http://www.w3.org/2000/svg" width="300" height="300" viewBox="0 0 300 300" version="1.1">
	<path d="M 184.146 21.492 C 180.799 23.335, 173.116 31.060, 172.406 33.295 C 172.078 34.331, 170.103 36.719, 168.017 38.603 C 163.710 42.495, 162.556 45.413, 164.541 47.399 C 166.089 48.946, 165.460 50, 162.988 50 C 160.543 50, 157.662 53.599, 158.264 55.903 C 158.566 57.055, 158.203 58.092, 157.389 58.404 C 155.476 59.138, 155.627 65.023, 157.633 67.886 C 159.001 69.839, 159.041 70.357, 157.883 71.075 C 156.507 71.928, 156.416 77.907, 157.549 93 C 157.776 96.025, 157.947 101.046, 157.929 104.159 C 157.911 107.271, 158.299 110.067, 158.792 110.372 C 159.319 110.697, 159.299 113.503, 158.743 117.179 C 158.091 121.483, 158.126 123.542, 158.853 123.784 C 159.559 124.020, 159.744 128.549, 159.411 137.410 C 158.986 148.717, 159.147 150.877, 160.499 151.999 C 162.873 153.969, 164.235 151.992, 165.136 145.269 C 166.066 138.323, 166.973 132.870, 167.432 131.469 C 167.919 129.980, 176.979 127.861, 184.148 127.559 C 188.224 127.387, 190.679 126.793, 191.404 125.801 C 192.731 123.986, 202 122.357, 202 123.939 C 202 124.522, 201.100 125, 200 125 C 198.900 125, 198 125.390, 198 125.866 C 198 126.345, 199.899 126.319, 202.250 125.809 C 204.588 125.302, 207.542 124.910, 208.816 124.938 C 210.634 124.978, 211.003 124.586, 210.536 123.113 C 210.164 121.942, 210.503 121.021, 211.438 120.662 C 213.320 119.940, 214.692 121.955, 213.021 122.987 C 210.936 124.275, 213.530 125.083, 218.316 124.636 C 220.750 124.409, 223.243 124.532, 223.856 124.911 C 225.203 125.743, 229 136.465, 229 139.434 C 229 140.601, 229.638 142.466, 230.417 143.579 C 231.197 144.692, 232.154 147.379, 232.544 149.551 C 232.934 151.723, 233.902 154.244, 234.695 155.154 C 235.898 156.534, 235.920 157.156, 234.828 158.904 C 233.397 161.195, 231.852 161.720, 232.250 159.781 C 232.655 157.805, 218.383 155.675, 213.717 157.014 C 211.001 157.794, 207.619 157.795, 201.717 157.019 C 197.198 156.424, 192.087 155.763, 190.359 155.550 C 188.632 155.336, 185.498 155.549, 183.394 156.024 C 181.004 156.563, 179.117 156.512, 178.365 155.888 C 176.672 154.483, 164.165 155.045, 160.177 156.705 C 155.946 158.466, 154.012 157.818, 150.558 153.486 C 147.990 150.265, 147.361 150, 142.284 150 L 136.790 150 137.280 146.250 C 137.549 144.188, 138.480 140.045, 139.348 137.045 C 140.639 132.585, 140.740 130.215, 139.899 124.045 C 139.333 119.895, 138.434 115.430, 137.899 114.123 C 137.022 111.978, 136.517 111.812, 132.714 112.416 C 127.791 113.199, 121.263 113.420, 111.500 113.136 C 107.650 113.024, 103.600 113.060, 102.500 113.216 C 100.700 113.472, 100.471 112.850, 100.214 107 C 99.862 98.974, 101.797 85.413, 103.497 84.003 C 104.298 83.338, 105.621 83.284, 107.128 83.855 C 108.535 84.388, 113.976 84.378, 120.500 83.831 C 126.550 83.324, 133.292 82.817, 135.483 82.705 C 138.421 82.554, 139.558 82.028, 139.816 80.702 C 140.501 77.178, 138.354 76.173, 131.212 76.673 C 103.599 78.605, 104.468 78.696, 104.919 73.920 C 105.001 73.051, 104.628 67.667, 104.091 61.954 C 103.466 55.312, 103.460 51.151, 104.074 50.411 C 104.886 49.432, 111.647 47.960, 116.984 47.600 C 117.800 47.545, 118.631 46.656, 118.831 45.624 C 119.174 43.856, 118.648 43.789, 109.762 44.455 C 104.573 44.844, 93.017 45.497, 84.081 45.907 C 71.761 46.471, 67.622 46.994, 66.958 48.067 C 65.664 50.161, 66.899 50.853, 73.263 51.601 C 77.279 52.073, 79 51.934, 79 51.138 C 79 50.512, 77.875 50, 76.500 50 C 75.125 50, 74 49.628, 74 49.173 C 74 47.583, 80.065 49.252, 81.063 51.118 C 81.857 52.601, 83.205 53, 87.428 53 C 90.998 53, 92.959 53.450, 93.303 54.347 C 94.209 56.707, 96.366 74.967, 95.806 75.528 C 95.509 75.824, 92.394 76.783, 88.884 77.660 C 85.373 78.536, 81.995 79.654, 81.377 80.144 C 80.759 80.634, 79.521 80.753, 78.625 80.409 C 77.729 80.066, 75.199 80.503, 73.004 81.382 C 70.808 82.260, 64.847 83.451, 59.756 84.027 C 49.925 85.140, 47.375 86.454, 48.454 89.854 C 49.703 93.789, 55.081 93.592, 69.993 89.061 C 71.915 88.478, 74.658 88, 76.088 88 C 77.519 88, 79.503 87.102, 80.497 86.004 C 81.708 84.665, 82.683 84.322, 83.454 84.962 C 85.004 86.248, 89 85.111, 89 83.383 C 89 82.623, 89.864 82, 90.921 82 C 92.251 82, 93.048 82.943, 93.515 85.068 C 93.885 86.755, 94.821 88.378, 95.594 88.675 C 97.477 89.397, 97.382 91.640, 95.437 92.386 C 94.577 92.716, 94.107 93.364, 94.393 93.827 C 95.196 95.127, 93.082 113.461, 92.090 113.798 C 91.607 113.962, 91.426 114.912, 91.687 115.910 C 92.213 117.922, 89.894 119.280, 87.500 118.362 C 85.331 117.529, 85.657 116.330, 88.250 115.600 C 90.299 115.024, 90.351 114.852, 88.833 113.684 C 87.547 112.694, 85.299 112.619, 78.972 113.356 L 70.778 114.310 71.305 118.238 C 71.595 120.398, 72.109 122.442, 72.448 122.781 C 72.787 123.120, 75.187 122.777, 77.782 122.019 C 84.028 120.194, 91.158 120.297, 93.950 122.252 C 96.039 123.715, 96.532 123.662, 100.762 121.518 C 104.905 119.418, 106.234 119.257, 115.315 119.757 C 122.728 120.166, 125.124 120.010, 124.595 119.154 C 124.140 118.418, 124.666 118, 126.048 118 C 127.685 118, 128.053 117.580, 127.554 116.280 C 127.191 115.335, 127.226 114.893, 127.632 115.299 C 128.861 116.528, 130.928 123.307, 130.356 124.233 C 130.062 124.709, 130.585 128.531, 131.518 132.727 C 133.276 140.627, 133.067 147.010, 130.967 149.539 C 130.177 150.492, 127.798 151.015, 124.128 151.044 C 121.032 151.068, 116.700 151.736, 114.500 152.529 C 112.300 153.321, 107.759 153.977, 104.408 153.985 C 101.058 153.993, 92.170 154.295, 84.658 154.655 L 71 155.310 71 159.301 L 71 163.292 83.750 162.485 C 90.763 162.041, 97.850 161.593, 99.500 161.490 C 105.069 161.141, 105.567 161.012, 104.361 160.235 C 103.535 159.702, 103.604 159.145, 104.611 158.211 C 105.445 157.436, 106.050 157.336, 106.125 157.961 C 106.194 158.532, 106.306 159.563, 106.375 160.250 C 106.568 162.184, 110.522 162.299, 114.051 160.474 C 115.804 159.567, 120.222 158.690, 123.869 158.525 C 127.516 158.359, 133.332 157.888, 136.793 157.478 C 141.995 156.861, 143.686 157.055, 146.543 158.593 C 148.445 159.617, 150.002 160.690, 150.005 160.977 C 150.008 161.265, 151.020 162.747, 152.255 164.270 L 154.500 167.041 161.788 165.006 C 165.796 163.888, 170.746 163.069, 172.788 163.187 C 174.829 163.305, 179.313 163.311, 182.750 163.201 C 188.266 163.024, 189 162.765, 189 161 C 189 159.732, 189.640 159.029, 190.750 159.079 C 191.795 159.126, 191.997 159.361, 191.250 159.662 C 189.191 160.493, 189.837 162.928, 192.250 163.429 C 195.145 164.030, 205.901 165.115, 208.500 165.068 C 235.634 164.582, 241.340 163.476, 242.599 158.461 C 243.351 155.464, 241.645 148.184, 238.952 142.905 C 237.878 140.801, 236.990 138.274, 236.978 137.290 C 236.966 136.305, 236.043 133.488, 234.928 131.028 C 233.232 127.290, 233.101 126.181, 234.127 124.262 C 235.137 122.376, 235.057 121.343, 233.678 118.450 C 232.755 116.515, 232 114.054, 232 112.980 C 232 111.907, 231.470 109.046, 230.821 106.622 C 229.802 102.809, 229.869 101.988, 231.321 100.536 C 233.421 98.436, 233.416 98.345, 231.056 95.344 C 229.987 93.985, 229.380 92.174, 229.707 91.321 C 230.603 88.985, 227.828 64.016, 226.583 63.214 C 223.190 61.028, 216.928 59.843, 204 58.942 C 196.025 58.386, 185.450 57.133, 180.500 56.157 C 172.661 54.612, 171.459 54.100, 171.180 52.191 C 171.005 50.986, 171.281 50, 171.794 50 C 172.307 50, 173.871 48.856, 175.270 47.457 C 177.065 45.663, 178.502 45.073, 180.156 45.451 C 183.129 46.132, 184.972 44.656, 188.323 38.912 C 191.449 33.555, 191.443 33.586, 189.528 31.671 C 188.232 30.375, 188.292 29.899, 190.028 27.692 C 194.384 22.154, 190.459 18.017, 184.146 21.492 M 154.529 45.355 C 153.394 46.185, 152.920 47.348, 153.306 48.355 C 154.297 50.939, 156.801 50.285, 158.500 47 C 159.952 44.193, 159.933 44, 158.217 44 C 157.208 44, 155.548 44.610, 154.529 45.355 M 85.473 49.956 C 85.798 50.482, 86.725 50.659, 87.532 50.349 C 89.599 49.556, 89.356 49, 86.941 49 C 85.809 49, 85.148 49.430, 85.473 49.956 M 164.427 56.118 C 163.238 58.041, 164.035 86.667, 165.468 93.517 C 166.404 97.993, 166.656 103.648, 166.268 111.522 C 165.653 124.003, 165.653 124.003, 171.216 121.554 C 174.191 120.244, 194.742 118.517, 216.500 117.747 L 223.500 117.500 224.082 111.500 C 224.402 108.200, 224.775 106.625, 224.911 108 C 225.047 109.375, 225.391 109.920, 225.675 109.211 C 225.960 108.501, 224.780 105.079, 223.052 101.605 L 219.911 95.289 216.616 98.584 C 213.857 101.343, 212.604 101.870, 208.910 101.824 C 206.485 101.793, 204.235 101.350, 203.912 100.838 C 203.578 100.309, 202.066 100.628, 200.412 101.577 C 197.885 103.026, 196.739 103.089, 191.750 102.053 C 187.990 101.272, 186 100.364, 186 99.429 C 186 98.643, 185.339 98, 184.531 98 C 183.637 98, 183.288 98.586, 183.638 99.500 C 184.337 101.322, 180.570 101.547, 176.335 99.937 C 172.017 98.296, 171.804 96.853, 175.581 94.828 C 179.469 92.745, 187.980 92.384, 191.302 94.162 C 193.909 95.557, 201.561 95.423, 212.750 93.787 C 220.556 92.645, 221.005 92.444, 221.101 90.040 C 221.294 85.198, 220.810 80.495, 220.015 79.500 C 219.575 78.950, 219.196 76.611, 219.171 74.303 C 219.086 66.219, 218.699 66.010, 203.715 65.927 C 196.447 65.887, 188.025 65.419, 185 64.888 C 181.975 64.356, 177.250 63.588, 174.500 63.181 C 168.534 62.297, 166.849 61.386, 167.067 59.161 C 167.462 55.139, 166.043 53.503, 164.427 56.118 M 176.813 61.683 C 177.534 61.972, 178.397 61.936, 178.729 61.604 C 179.061 61.272, 178.471 61.036, 177.417 61.079 C 176.252 61.127, 176.015 61.364, 176.813 61.683 M 205.428 62.429 C 203.821 63.604, 203.873 63.747, 206.092 64.254 C 209.052 64.931, 218.094 63.557, 216 62.749 C 212.468 61.386, 207.077 61.223, 205.428 62.429 M 191.316 62.649 C 192.233 63.566, 198.911 63.661, 198.346 62.750 C 198.091 62.337, 196.259 62, 194.274 62 C 192.290 62, 190.959 62.292, 191.316 62.649 M 62.813 87.683 C 63.534 87.972, 64.397 87.936, 64.729 87.604 C 65.061 87.272, 64.471 87.036, 63.417 87.079 C 62.252 87.127, 62.015 87.364, 62.813 87.683 M 224.158 92 C 224.158 93.375, 224.385 93.938, 224.662 93.250 C 224.940 92.563, 224.940 91.438, 224.662 90.750 C 224.385 90.063, 224.158 90.625, 224.158 92 M 62.751 109.250 C 59.403 115.635, 57.830 128.927, 59.968 132.764 C 60.990 134.598, 63.915 145.436, 64.754 150.500 C 65.350 154.095, 66.720 156, 68.711 156 C 70.279 156, 70.277 155.925, 68.174 135 C 67.649 129.775, 66.689 122.873, 66.042 119.662 C 65.199 115.475, 65.165 112.967, 65.921 110.797 C 67.801 105.404, 65.385 104.225, 62.751 109.250 M 106.166 115.876 C 105.102 116.551, 105.169 116.851, 106.498 117.361 C 109.258 118.420, 111 118.087, 111 116.500 C 111 114.870, 108.302 114.522, 106.166 115.876 M 80 118 C 81.970 119.273, 84.287 119.273, 83.500 118 C 83.160 117.450, 81.896 117.007, 80.691 117.015 C 78.910 117.028, 78.781 117.212, 80 118 M 100.500 118 C 100.160 118.550, 100.359 119, 100.941 119 C 101.523 119, 102 118.550, 102 118 C 102 117.450, 101.802 117, 101.559 117 C 101.316 117, 100.840 117.450, 100.500 118 M 132 119 C 132 120.100, 132.450 121, 133 121 C 133.550 121, 134 120.100, 134 119 C 134 117.900, 133.550 117, 133 117 C 132.450 117, 132 117.900, 132 119 M 192.500 122 C 192.138 122.585, 193.176 123, 195 123 C 196.824 123, 197.862 122.585, 197.500 122 C 197.160 121.450, 196.035 121, 195 121 C 193.965 121, 192.840 121.450, 192.500 122 M 120 155 C 120 156.264, 122.043 156.264, 124 155 C 125.169 154.245, 124.893 154.027, 122.750 154.015 C 121.237 154.007, 120 154.450, 120 155 M 114.750 156.662 C 115.438 156.940, 116.563 156.940, 117.250 156.662 C 117.938 156.385, 117.375 156.158, 116 156.158 C 114.625 156.158, 114.063 156.385, 114.750 156.662 M 77.559 158.532 C 75.695 159.941, 75.724 160, 78.277 160 C 80.231 160, 80.784 159.602, 80.362 158.500 C 80.045 157.675, 79.722 157.014, 79.643 157.032 C 79.564 157.049, 78.626 157.724, 77.559 158.532 M 84.500 159 C 84.840 159.550, 86.104 159.993, 87.309 159.985 C 89.090 159.972, 89.219 159.788, 88 159 C 86.030 157.727, 83.713 157.727, 84.500 159 M 179 159.906 C 179 160.405, 179.900 160.577, 181 160.290 C 182.100 160.002, 183 159.594, 183 159.383 C 183 159.173, 182.100 159, 181 159 C 179.900 159, 179 159.408, 179 159.906 M 85.685 199.648 C 85.328 200.005, 85.302 201.355, 85.627 202.648 C 86.063 204.387, 85.798 205, 84.608 205 C 83.645 205, 83 204.164, 83 202.917 C 83 201.760, 82.475 201.008, 81.820 201.227 C 81.139 201.454, 80.511 204.133, 80.335 207.560 C 80.167 210.827, 79.599 215.300, 79.071 217.500 C 78.544 219.700, 77.874 223.975, 77.583 227 C 77.291 230.025, 76.117 238.350, 74.973 245.500 C 71.700 265.968, 71.625 266.843, 72.993 268.492 C 74.858 270.739, 78.743 270.346, 80.327 267.750 C 81.082 266.512, 82.255 260.143, 82.933 253.595 C 83.612 247.047, 84.617 240.522, 85.167 239.095 C 85.717 237.668, 86.416 232.225, 86.720 227 C 87.024 221.775, 87.896 216.266, 88.657 214.759 C 89.419 213.251, 89.783 210.983, 89.466 209.720 C 89.149 208.456, 89.319 206.291, 89.845 204.908 C 91.302 201.075, 88.192 197.142, 85.685 199.648 M 162.599 201.604 C 162.221 202.587, 161.357 202.967, 160.365 202.587 C 158.843 202.003, 155.999 203.493, 156.001 204.872 C 156.002 205.218, 157.127 206.807, 158.501 208.406 C 159.876 210.004, 161 211.760, 161 212.308 C 161 215.286, 179.217 235.602, 180.936 234.540 C 182.618 233.500, 182.235 232.471, 178.500 228 C 176.575 225.696, 175 223.215, 175 222.488 C 175 221.323, 171.943 215.041, 168.265 208.647 C 167.585 207.466, 167.023 205.578, 167.015 204.450 C 167 202.448, 165.291 200, 163.907 200 C 163.526 200, 162.937 200.722, 162.599 201.604 M 114.649 217.494 C 113.254 218.889, 113.116 221.562, 113.576 238.297 C 113.867 248.859, 114.579 260.425, 115.159 264 C 116.316 271.129, 119.565 284.487, 120.517 286.027 C 121.434 287.511, 127.372 287.186, 129.559 285.532 C 130.626 284.724, 132.512 284.049, 133.750 284.032 C 134.988 284.014, 136.007 283.438, 136.015 282.750 C 136.026 281.837, 136.264 281.869, 136.896 282.867 C 137.606 283.987, 138.430 284.013, 141.458 283.014 C 145.235 281.767, 171.049 281.294, 172.900 282.438 C 173.440 282.772, 176.486 283.310, 179.670 283.634 C 182.854 283.959, 186.368 284.539, 187.479 284.924 C 191.233 286.226, 212.363 284.774, 214.411 283.074 C 215.244 282.382, 216.059 282.286, 216.400 282.838 C 217.352 284.379, 234.992 284.185, 235.589 282.628 C 236.180 281.088, 222.851 259.672, 221.448 259.906 C 220.906 259.996, 220.632 263.899, 220.810 269.032 L 221.119 278 212.310 278.015 C 207.464 278.024, 201.524 278.621, 199.109 279.343 C 196.195 280.215, 193.168 280.393, 190.109 279.874 C 169.611 276.394, 148.289 275.264, 136.195 277.019 C 131.627 277.681, 127.657 277.990, 127.371 277.705 C 127.086 277.419, 126.525 274.770, 126.124 271.818 C 125.724 268.865, 124.978 265.786, 124.468 264.975 C 123.958 264.164, 123.459 257.650, 123.359 250.500 C 123.259 243.350, 122.648 235.250, 122.003 232.500 C 121.357 229.750, 120.755 225.025, 120.664 222 C 120.521 217.216, 120.223 216.461, 118.375 216.197 C 117.206 216.030, 115.529 216.614, 114.649 217.494 M 222.073 218.740 C 220.164 220.286, 219.881 221.181, 220.463 223.832 C 221.400 228.097, 225.393 232.708, 228.798 233.456 C 231.656 234.083, 245.989 247.305, 246.015 249.338 C 246.041 251.315, 247.723 253.289, 248.809 252.618 C 249.972 251.899, 247.003 242.515, 244.230 238.145 C 240.377 232.072, 235.388 226.953, 232.345 225.949 C 230.558 225.359, 228.842 224.117, 228.531 223.188 C 228.221 222.260, 227.162 220.457, 226.178 219.182 C 224.414 216.897, 224.356 216.891, 222.073 218.740" stroke="none" fill="black" fill-rule="evenodd"/>
</svg>