<svg xmlns="http://www.w3.org/2000/svg" width="300" height="300" viewBox="0 0 300 300" version="1.1">
	<path d="M 187.115 12.632 C 184.874 14.202, 184.380 17.509, 186.015 20 C 186.805 21.203, 187.166 21.243, 187.840 20.200 C 188.484 19.203, 189.418 19.547, 191.840 21.673 C 193.578 23.198, 195 24.987, 195 25.650 C 195 26.312, 197.775 29.587, 201.167 32.927 C 204.559 36.266, 207.022 39.311, 206.640 39.693 C 206.259 40.075, 204.702 39.025, 203.181 37.360 C 201.661 35.695, 199.715 33.920, 198.858 33.416 C 198 32.912, 195.547 30.043, 193.405 27.041 C 190.543 23.027, 189.421 22.054, 189.168 23.365 C 188.979 24.346, 189.539 25.938, 190.412 26.903 C 191.286 27.868, 192 29.094, 192 29.628 C 192 30.162, 197.787 36.324, 204.859 43.322 C 214.137 52.502, 218.175 55.870, 219.359 55.416 C 221.502 54.594, 221.431 53.431, 219.099 51.099 C 218.053 50.053, 216.898 48.253, 216.531 47.099 C 216.165 45.944, 215.457 45, 214.958 45 C 214.459 45, 213.404 43.763, 212.612 42.250 C 211.821 40.737, 207.823 35.806, 203.729 31.292 C 199.264 26.369, 195.327 20.877, 193.892 17.570 C 191.178 11.315, 190.108 10.535, 187.115 12.632 M 145.969 34.059 C 144.890 36.073, 145.467 41.476, 146.977 43.500 C 147.387 44.050, 147.989 46.235, 148.316 48.356 C 148.642 50.477, 149.597 52.727, 150.439 53.356 C 151.389 54.067, 151.748 55.325, 151.387 56.676 C 150.904 58.483, 149.634 59.050, 143.906 60.016 C 140.112 60.656, 136.737 61.616, 136.408 62.149 C 135.793 63.144, 140.688 62.833, 146.629 61.500 C 148.636 61.050, 150.016 61.217, 150.479 61.966 C 151.583 63.752, 150.885 64.036, 140.327 66.111 C 128.591 68.416, 122 69.047, 122 67.865 C 122 67.389, 122.845 67, 123.878 67 C 124.910 67, 126.373 66.254, 127.128 65.343 C 128.380 63.831, 128.151 63.753, 124.500 64.451 C 122.300 64.871, 116.526 65.551, 111.669 65.961 C 104.045 66.605, 102.484 67.061, 100.249 69.296 C 98.119 71.427, 97.880 72.151, 98.903 73.383 C 99.587 74.207, 100.061 75.695, 99.958 76.690 C 99.573 80.390, 100.041 82, 101.500 82 C 102.325 82, 103 81.152, 103 80.117 C 103 79.009, 103.927 77.985, 105.250 77.630 C 108.866 76.661, 109.977 76.896, 109.362 78.500 C 108.945 79.585, 109.473 80, 111.267 80 C 112.632 80, 115.662 79.325, 118 78.500 C 120.338 77.675, 123.497 77, 125.019 77 C 127.787 77, 129.773 74.596, 127.940 73.463 C 126.072 72.308, 128.148 71, 131.849 71 C 133.901 71, 138.171 70.325, 141.339 69.500 C 148.187 67.716, 148 67.729, 148 69.032 C 148 69.600, 146.988 70.471, 145.750 70.969 C 143.587 71.838, 143.607 71.876, 146.250 71.937 C 148.304 71.984, 149 71.521, 149 70.107 C 149 69.066, 149.712 67.941, 150.582 67.607 C 152.902 66.717, 153.272 66.848, 152.694 68.354 C 152.408 69.099, 153.260 70.880, 154.587 72.311 C 155.914 73.742, 157.011 75.720, 157.024 76.706 C 157.037 77.693, 158.146 81.173, 159.489 84.439 C 162.186 91, 161.668 93, 157.271 93 C 155.480 93, 154.946 93.416, 155.358 94.490 C 155.741 95.489, 155.118 96.183, 153.465 96.598 C 152.109 96.938, 151 97.588, 151 98.041 C 151 99.044, 148.432 99.908, 143.614 100.525 C 138.476 101.183, 139.135 100.458, 145.493 98.458 C 148.514 97.508, 151.777 96.130, 152.743 95.397 C 154.336 94.188, 154.228 94.061, 151.588 94.032 C 149.986 94.014, 146.226 94.772, 143.232 95.716 C 138.057 97.347, 137.725 97.345, 136.499 95.668 C 135.532 94.346, 135.475 93.203, 136.268 91.100 C 137.389 88.130, 136.755 85, 135.031 85 C 134.464 85, 134 85.571, 134 86.268 C 134 86.965, 132.875 89.191, 131.500 91.215 C 128.340 95.865, 128.064 100.432, 131 99.500 C 132.714 98.956, 133 99.320, 133 102.043 L 133 105.222 131.091 102.865 L 129.183 100.508 128.480 104.254 C 128.094 106.314, 128.080 109.613, 128.450 111.584 C 129.777 118.661, 128.330 121.056, 122 122.259 C 116.983 123.212, 110.500 125.918, 110.500 127.060 C 110.500 128.822, 114.817 129.583, 116.315 128.085 C 116.912 127.488, 118.435 127, 119.700 127 C 121.078 127, 122 126.399, 122 125.500 C 122 123.277, 124.104 123.681, 124.716 126.022 C 125.168 127.751, 125.771 127.949, 128.872 127.382 C 134.027 126.441, 137 125.213, 137 124.025 C 137 123.461, 137.481 123, 138.069 123 C 139.120 123, 138.946 128.022, 137.287 145.500 C 136.113 157.867, 136.491 170.065, 138.080 171.071 C 142.325 173.757, 143.518 170.835, 144.906 154.351 C 145.594 146.183, 146.459 135.900, 146.828 131.500 L 147.500 123.500 155.500 121.110 C 170.682 116.575, 174.141 117.226, 175.360 124.847 C 175.690 126.912, 177.769 132.254, 179.980 136.718 C 182.191 141.182, 184 145.101, 184 145.428 C 184 145.755, 184.851 147.929, 185.892 150.261 C 188.843 156.873, 189.117 158.154, 187.895 159.627 C 187.015 160.687, 187.097 161, 188.254 161 C 190.428 161, 193.717 169.715, 193.350 174.500 C 192.815 181.478, 191.764 185.396, 189.463 188.998 C 188.227 190.932, 186.966 194.900, 186.646 197.861 C 186.140 202.557, 183.129 208.489, 179.978 211 C 179.633 211.275, 178.286 213.417, 176.986 215.760 C 175.127 219.107, 174.881 220.281, 175.838 221.238 C 177.453 222.853, 180.017 221.252, 181.977 217.401 C 184.578 212.292, 188.350 206.602, 191.615 202.862 C 195.245 198.706, 196.620 194.028, 195.067 191.124 C 193.770 188.702, 193.665 185, 194.893 185 C 195.384 185, 196.045 185.675, 196.362 186.500 C 196.678 187.325, 197.618 188, 198.450 188 C 199.281 188, 200.255 189.238, 200.613 190.750 C 200.971 192.262, 202.292 195.525, 203.550 198 C 204.808 200.475, 207.739 206.887, 210.064 212.248 C 212.388 217.609, 214.900 222.502, 215.645 223.121 C 216.390 223.739, 217 225.094, 217 226.132 C 217 227.170, 217.935 228.803, 219.079 229.760 C 220.222 230.717, 221.804 232.728, 222.593 234.229 C 223.383 235.729, 226.426 238.767, 229.356 240.979 C 235.591 245.687, 239.575 246.249, 240.956 242.615 C 242.302 239.075, 241.779 181.760, 240.396 181.299 C 239.104 180.868, 237.507 192.492, 235.873 214.219 C 234.818 228.249, 234.860 229.097, 236.777 232.347 L 238.788 235.755 235.689 235.599 C 233.047 235.467, 231.961 234.489, 228.327 228.972 C 225.983 225.412, 223.601 221.956, 223.033 221.292 C 222.465 220.628, 222 219.766, 222 219.376 C 222 218.987, 219.808 214.130, 217.129 208.584 C 214.450 203.038, 210.563 193.325, 208.492 187 C 206.421 180.675, 204.566 175.315, 204.370 175.089 C 204.173 174.864, 203.167 175.444, 202.133 176.379 C 200.355 177.989, 200.226 177.971, 199.722 176.044 C 199.429 174.924, 199.440 172.140, 199.746 169.858 C 200.293 165.776, 200.259 165.718, 197.651 166.373 C 196.016 166.783, 195 166.627, 195 165.964 C 195 164.871, 191.718 156.918, 189.965 153.764 C 189.434 152.809, 189 151.033, 189 149.818 C 189 148.602, 186.975 143.687, 184.500 138.895 C 182.025 134.103, 180 129.415, 180 128.477 C 180 127.540, 179.043 124.911, 177.874 122.636 C 176.705 120.361, 175.333 117.683, 174.825 116.685 C 174.317 115.686, 172.571 111.186, 170.945 106.685 C 169.320 102.183, 167.385 97.375, 166.646 96 C 165.908 94.625, 164.719 91.250, 164.004 88.500 C 163.290 85.750, 162.321 83.073, 161.853 82.550 C 161.384 82.028, 161 80.851, 161 79.935 C 161 79.019, 160.134 77.168, 159.075 75.822 C 157.738 74.123, 157.438 72.936, 158.094 71.938 C 158.887 70.729, 159.274 70.810, 160.519 72.441 C 161.334 73.509, 162 75.238, 162 76.283 C 162 77.329, 162.877 79.300, 163.950 80.663 C 165.022 82.026, 166.628 85.697, 167.518 88.821 C 168.408 91.944, 170.016 96.350, 171.090 98.611 C 172.227 101.003, 172.755 103.476, 172.352 104.525 C 171.876 105.765, 172.025 106.102, 172.830 105.605 C 173.564 105.152, 174 105.578, 174 106.750 C 174 107.777, 174.661 109.491, 175.468 110.559 C 176.276 111.626, 176.953 113.175, 176.974 114 C 176.995 114.825, 177.685 116.789, 178.506 118.364 C 179.328 119.940, 180 121.744, 180 122.375 C 180 123.005, 182.025 127.688, 184.500 132.782 C 186.975 137.875, 189 142.340, 189 142.705 C 189 143.070, 189.855 145.198, 190.899 147.434 C 191.943 149.670, 193.556 153.866, 194.482 156.758 C 195.408 159.650, 196.579 161.760, 197.083 161.449 C 199.378 160.030, 197.641 153.440, 191.393 139.860 C 187.759 131.962, 183.557 122.125, 182.055 118 C 175.804 100.834, 168.979 83.010, 166.579 77.582 C 163.882 71.485, 163.952 70, 166.933 70 C 167.932 70, 170.718 69.301, 173.124 68.448 C 175.531 67.594, 180.088 66.855, 183.250 66.806 C 188.836 66.719, 189 66.638, 189 63.963 C 189 61.519, 189.448 61.142, 193 60.605 C 195.200 60.272, 198.800 59.728, 201 59.395 C 203.935 58.951, 205 58.318, 205 57.017 C 205 53.361, 202.665 52.782, 194.621 54.443 C 190.476 55.299, 185.322 56, 183.167 56 C 177.752 56, 172.924 57.068, 173.575 58.122 C 173.874 58.605, 174.965 59, 176 59 C 180.112 59, 178.716 60.895, 173.834 61.942 C 169.963 62.772, 168.381 62.762, 167.577 61.902 C 166.803 61.074, 166.852 60.621, 167.750 60.292 C 168.438 60.040, 169 59.145, 169 58.303 C 169 57.065, 168.173 56.897, 164.668 57.423 C 160.390 58.064, 160.317 58.025, 158.772 54.286 C 157.912 52.204, 156.416 47.691, 155.448 44.258 C 152.380 33.375, 148.543 29.248, 145.969 34.059 M 152.800 51.200 C 153.460 51.860, 154 53.408, 154 54.641 C 154 55.874, 154.450 57.160, 155 57.500 C 155.550 57.840, 156 57.438, 156 56.606 C 156 54.302, 153.811 50, 152.639 50 C 152.009 50, 152.073 50.473, 152.800 51.200 M 161.813 61.683 C 162.534 61.972, 163.397 61.936, 163.729 61.604 C 164.061 61.272, 163.471 61.036, 162.417 61.079 C 161.252 61.127, 161.015 61.364, 161.813 61.683 M 120.500 74 C 120.160 74.550, 120.782 75, 121.882 75 C 122.982 75, 124.160 74.550, 124.500 74 C 124.840 73.450, 124.218 73, 123.118 73 C 122.018 73, 120.840 73.450, 120.500 74 M 131.543 73.931 C 130.541 75.552, 132.718 76.045, 134.009 74.489 C 135.014 73.278, 134.953 73, 133.681 73 C 132.822 73, 131.859 73.419, 131.543 73.931 M 92.153 85.007 C 90.220 87.622, 89.989 88.846, 90.502 93.773 C 91.304 101.475, 88.679 127.817, 85.696 142 C 84.366 148.325, 82.965 156.740, 82.583 160.701 C 82.201 164.661, 81.463 169.386, 80.942 171.201 C 80.421 173.015, 79.504 178.325, 78.905 183 C 75.516 209.414, 72.102 229.752, 70.093 235.500 C 69.516 237.150, 68.176 244.265, 67.115 251.311 C 65.651 261.032, 64.594 265.014, 62.735 267.824 C 59.282 273.042, 58.669 275.480, 60.440 276.950 C 62.375 278.556, 65.340 275.407, 69.500 267.327 C 71.150 264.122, 72.758 261.275, 73.073 261 C 74.172 260.040, 75.213 256.460, 75.980 251 C 76.404 247.975, 78.163 240.325, 79.887 234 C 82.729 223.572, 84.614 211.622, 85.447 198.750 C 85.616 196.138, 86.227 193.432, 86.804 192.737 C 87.381 192.041, 88.156 188.328, 88.525 184.486 C 88.895 180.644, 89.422 177.134, 89.697 176.687 C 90.430 175.493, 93.938 149.173, 93.987 144.500 C 94.010 142.300, 94.734 138.475, 95.596 136 C 98.058 128.929, 99.588 97.226, 97.861 89.077 C 97.112 85.545, 96.028 82.500, 95.450 82.311 C 94.873 82.122, 93.389 83.335, 92.153 85.007 M 157.500 98.528 C 155.300 99.882, 152.933 100.992, 152.239 100.995 C 151.546 100.998, 148.874 101.989, 146.301 103.198 C 143.729 104.408, 140.412 105.304, 138.931 105.192 C 135.936 104.963, 135.038 106.765, 135.014 113.050 C 134.989 119.351, 134.733 119.334, 156 114.470 C 159.575 113.652, 163.887 112.987, 165.583 112.992 C 167.279 112.996, 168.914 112.752, 169.217 112.450 C 169.975 111.692, 163.719 96.732, 162.491 96.363 C 161.946 96.200, 159.700 97.174, 157.500 98.528 M 199.079 103.583 C 199.127 104.748, 199.364 104.985, 199.683 104.188 C 199.972 103.466, 199.936 102.603, 199.604 102.271 C 199.272 101.939, 199.036 102.529, 199.079 103.583 M 93.435 104.309 C 93.098 105.186, 93.058 106.285, 93.345 106.749 C 93.632 107.214, 93.399 111.102, 92.826 115.389 C 92.165 120.339, 92.133 123.533, 92.739 124.139 C 93.345 124.745, 93.916 121.166, 94.303 114.336 C 94.899 103.809, 94.665 101.104, 93.435 104.309 M 131 111 C 131 112.100, 131.450 113, 132 113 C 132.550 113, 133 112.100, 133 111 C 133 109.900, 132.550 109, 132 109 C 131.450 109, 131 109.900, 131 111 M 213.348 124.592 C 209.522 130.431, 205 142.794, 205 147.415 C 205 149.025, 204.232 151.191, 203.294 152.228 C 202.191 153.447, 201.446 156.339, 201.187 160.412 C 200.825 166.090, 200.987 166.763, 202.828 167.245 C 204.385 167.652, 204.729 168.321, 204.275 170.058 C 203.786 171.925, 203.994 172.216, 205.421 171.669 C 206.379 171.301, 207.577 171, 208.082 171 C 208.587 171, 208.999 169.988, 208.997 168.750 C 208.996 167.512, 209.687 163.350, 210.533 159.500 C 211.380 155.650, 212.563 150.250, 213.164 147.500 C 213.764 144.750, 214.848 141.375, 215.573 140 C 218.668 134.129, 220.021 130.222, 220.253 126.484 C 220.479 122.831, 220.277 122.474, 217.813 122.190 C 215.798 121.957, 214.680 122.559, 213.348 124.592 M 90.549 128.669 C 90.170 130.776, 89.691 135.425, 89.484 139 C 89.143 144.890, 89.200 145.124, 90.083 141.500 C 92.855 130.133, 93.310 126.910, 92.286 125.886 C 91.555 125.155, 91.029 125.996, 90.549 128.669 M 214.212 130.434 C 212.464 134.270, 212.729 136.042, 214.534 132.583 C 215.370 130.978, 215.913 129.240, 215.740 128.719 C 215.566 128.199, 214.879 128.970, 214.212 130.434 M 141.015 132.750 C 141.007 135.088, 141.450 137, 142 137 C 143.276 137, 143.276 131.974, 142 130 C 141.290 128.901, 141.027 129.638, 141.015 132.750 M 150.750 132.670 C 148.723 133.222, 148.424 136.279, 150.250 137.788 C 150.938 138.356, 153.300 139.103, 155.500 139.448 L 159.500 140.076 156.500 138.619 C 154.460 137.628, 154.067 137.136, 155.271 137.081 C 156.245 137.037, 159.620 139.469, 162.771 142.487 C 165.922 145.504, 169.063 147.979, 169.750 147.987 C 171.953 148.010, 171.150 142.423, 168.582 139.854 C 164.133 135.406, 154.685 131.599, 150.750 132.670 M 117.515 136.336 C 116.673 137.621, 116.155 139.984, 116.363 141.586 C 116.571 143.189, 116.542 143.938, 116.298 143.250 C 115.165 140.062, 112.697 143.766, 111.420 150.572 C 110.816 153.797, 110.947 154.234, 112.358 153.693 C 114.159 153.002, 114.377 154.295, 113 157.500 C 112.210 159.338, 112.132 159.298, 112.040 157 C 111.947 154.685, 111.858 154.641, 110.835 156.402 C 110.228 157.448, 109.617 162.460, 109.478 167.541 C 109.339 172.622, 108.490 181.216, 107.591 186.639 C 106.693 192.063, 105.257 200.775, 104.400 206 C 103.543 211.225, 102.452 217.812, 101.977 220.637 C 100.989 226.506, 101.844 230.868, 104.283 232.407 C 107.504 234.438, 109.042 231.143, 109.885 220.411 C 110.352 214.463, 111.338 209.206, 112.349 207.265 C 113.277 205.486, 114.201 202.786, 114.402 201.265 C 114.604 199.744, 115.093 197.716, 115.488 196.758 C 115.966 195.602, 115.672 194.811, 114.613 194.405 C 113.205 193.865, 113.256 193.490, 115.041 191.221 C 116.902 188.855, 117.029 187.568, 116.617 175.200 C 116.143 160.914, 116.112 161.089, 121.933 145.048 C 123.620 140.399, 125 136.012, 125 135.298 C 125 132.956, 119.204 133.760, 117.515 136.336 M 140.750 140.572 C 140.338 140.991, 140.014 143.396, 140.030 145.917 C 140.054 149.545, 140.275 150.132, 141.090 148.733 C 142.237 146.762, 141.930 139.374, 140.750 140.572 M 207.032 145.250 C 207.061 148.250, 207.171 148.358, 208.463 146.653 C 209.233 145.637, 209.620 144.174, 209.324 143.403 C 208.347 140.857, 206.999 141.943, 207.032 145.250 M 87.691 149 C 86.912 152.492, 83.140 179.230, 83.048 181.917 C 83.022 182.696, 83.289 183.044, 83.643 182.691 C 85.008 181.326, 89.255 153.156, 88.786 148.572 L 88.473 145.500 87.691 149 M 114.082 148.327 C 113.302 149.795, 112.972 151.305, 113.348 151.682 C 114.520 152.853, 116.186 150.347, 115.835 147.944 C 115.504 145.682, 115.485 145.686, 114.082 148.327 M 205.095 152.147 C 204.024 154.566, 203.968 155.719, 204.851 157.133 C 205.483 158.145, 206 159.906, 206 161.045 C 206 162.185, 206.450 162.840, 207 162.500 C 208.595 161.514, 208.158 158.188, 206.297 157.146 C 205.025 156.435, 204.868 155.853, 205.675 154.847 C 207.193 152.955, 208.300 149, 207.311 149 C 206.859 149, 205.861 150.416, 205.095 152.147 M 139.232 160 C 139.232 161.925, 139.438 162.713, 139.689 161.750 C 139.941 160.787, 139.941 159.213, 139.689 158.250 C 139.438 157.287, 139.232 158.075, 139.232 160 M 111.079 161.583 C 111.127 162.748, 111.364 162.985, 111.683 162.188 C 111.972 161.466, 111.936 160.603, 111.604 160.271 C 111.272 159.939, 111.036 160.529, 111.079 161.583 M 111 178 C 111 178.550, 111.450 179, 112 179 C 112.550 179, 113 178.550, 113 178 C 113 177.450, 112.550 177, 112 177 C 111.450 177, 111 177.450, 111 178 M 143.190 180.625 C 142.577 181.721, 142.990 184.224, 144.458 188.303 C 146.565 194.158, 146.806 194.413, 151.859 196.131 C 157.901 198.184, 160 197.741, 160 194.412 C 160 192.733, 159.290 191.860, 157.575 191.429 C 156.034 191.043, 153.797 188.664, 151.444 184.910 C 147.653 178.864, 144.958 177.465, 143.190 180.625 M 110.622 182.825 C 110.179 184.104, 110.083 185.417, 110.409 185.742 C 111.445 186.779, 112.174 185.250, 111.794 182.836 L 111.426 180.500 110.622 182.825 M 161.571 183.571 C 159.549 185.594, 159.588 186.188, 162.024 190.316 C 163.407 192.659, 165.477 194.292, 168.555 195.468 C 172.761 197.074, 173.231 197.078, 175.593 195.531 C 178.593 193.565, 178.294 191.695, 174.870 191 C 173.514 190.725, 170.686 188.588, 168.586 186.250 C 164.335 181.519, 163.820 181.323, 161.571 183.571 M 125.338 184.002 C 122.729 185.050, 121.898 187.373, 121.849 193.760 C 121.774 203.403, 124.815 209.256, 133.013 215.250 C 137.653 218.642, 148.811 216.339, 154.750 210.764 C 159.236 206.552, 157.014 203.946, 151.922 207.446 C 150.040 208.739, 146.872 210.077, 144.883 210.419 C 141.793 210.950, 140.676 210.564, 137.223 207.770 C 131.927 203.486, 130.872 201.081, 130.124 191.580 C 129.781 187.224, 129.050 183.542, 128.500 183.397 C 127.950 183.252, 126.527 183.525, 125.338 184.002 M 200.623 184.540 C 199.722 186.888, 199.788 187, 202.073 187 C 203.471 187, 204.041 186.457, 203.823 185.333 C 203.381 183.050, 201.385 182.555, 200.623 184.540 M 82.079 188.583 C 82.127 189.748, 82.364 189.985, 82.683 189.188 C 82.972 188.466, 82.936 187.603, 82.604 187.271 C 82.272 186.939, 82.036 187.529, 82.079 188.583 M 169 193.059 C 169 193.641, 169.450 193.840, 170 193.500 C 170.550 193.160, 171 192.684, 171 192.441 C 171 192.198, 170.550 192, 170 192 C 169.450 192, 169 192.477, 169 193.059 M 192 195.059 C 192 195.641, 192.450 195.840, 193 195.500 C 193.550 195.160, 194 194.684, 194 194.441 C 194 194.198, 193.550 194, 193 194 C 192.450 194, 192 194.477, 192 195.059 M 125.031 197.500 C 125.031 198.600, 125.467 200.175, 126 201 C 126.803 202.242, 126.969 202.156, 126.969 200.500 C 126.969 199.400, 126.533 197.825, 126 197 C 125.197 195.758, 125.031 195.844, 125.031 197.500 M 78.555 209.822 C 78.145 211.648, 78.056 213.389, 78.356 213.690 C 79.109 214.442, 80.301 209.390, 79.748 207.793 C 79.502 207.082, 78.965 207.995, 78.555 209.822 M 133 211.500 C 133.685 212.325, 135.202 212.986, 136.372 212.968 C 138.458 212.937, 138.462 212.908, 136.559 211.468 C 133.864 209.430, 131.301 209.453, 133 211.500 M 105.079 215.583 C 105.127 216.748, 105.364 216.985, 105.683 216.188 C 105.972 215.466, 105.936 214.603, 105.604 214.271 C 105.272 213.939, 105.036 214.529, 105.079 215.583 M 76.161 221.750 C 76.250 222.162, 75.864 223.625, 75.304 225 C 73.914 228.407, 72.638 238.768, 73.764 237.500 C 75.910 235.083, 78.711 221, 77.045 221 C 76.470 221, 76.073 221.338, 76.161 221.750 M 71.433 241.607 C 71.095 242.648, 70.356 244.470, 69.791 245.655 C 68.725 247.891, 69.507 250.423, 70.982 249.511 C 72.027 248.865, 73.413 241.079, 72.623 240.289 C 72.306 239.973, 71.771 240.566, 71.433 241.607" stroke="none" fill="black" fill-rule="evenodd"/>
</svg>