<svg xmlns="http://www.w3.org/2000/svg" width="300" height="300" viewBox="0 0 300 300" version="1.1">
	<path d="M 64.384 35.443 C 64.048 36.318, 63.989 38.162, 64.253 39.541 C 64.516 40.919, 64.342 42.289, 63.866 42.583 C 63.390 42.877, 62.954 41.854, 62.898 40.309 L 62.795 37.500 62.070 40.500 C 61.670 42.150, 60.852 44.400, 60.250 45.500 C 58.587 48.540, 56.969 80.142, 57.986 89.723 C 58.606 95.558, 58.462 100.787, 57.493 107.723 C 56.342 115.970, 56.340 118.987, 57.485 127 C 59.019 137.734, 58.895 148.975, 57.120 160 C 55.557 169.715, 55.281 248.429, 56.804 250.264 C 57.376 250.953, 58.163 255.861, 58.552 261.171 C 59.204 270.052, 59.091 271.064, 57.131 273.817 C 54.545 277.447, 54.388 282.036, 56.750 284.901 C 58.494 287.016, 58.511 287.017, 61.646 285.090 L 64.792 283.156 65.049 271.828 C 65.190 265.598, 65.335 258.925, 65.370 257 C 65.406 255.075, 64.887 248.775, 64.217 243 C 63.548 237.225, 63.045 226.650, 63.100 219.500 C 63.156 212.350, 63.176 204.925, 63.145 203 C 62.798 181.386, 63.174 161.834, 63.991 159.007 C 64.546 157.085, 65 152.473, 65 148.757 C 65 145.040, 65.367 142, 65.816 142 C 66.265 142, 69.004 144.250, 71.902 147 C 74.801 149.750, 77.696 152.017, 78.336 152.039 C 78.976 152.060, 80.406 153.517, 81.513 155.277 C 82.621 157.038, 84.308 158.628, 85.263 158.812 C 89.293 159.588, 85.663 148.136, 81.227 146.077 C 79.869 145.446, 78.705 143.777, 78.335 141.927 C 77.891 139.704, 76.771 138.381, 74.358 137.231 C 71.846 136.033, 70.996 134.983, 70.985 133.065 C 70.976 131.654, 70.518 129.825, 69.966 129 C 69.093 127.696, 68.777 127.741, 67.548 129.350 C 64.066 133.904, 62.193 126.315, 63.908 114.602 C 64.561 110.146, 65.288 94.800, 65.526 80.500 C 65.763 66.200, 66.453 51.800, 67.060 48.500 C 68.867 38.672, 68.777 34.598, 66.747 34.198 C 65.783 34.008, 64.719 34.568, 64.384 35.443 M 135.710 40.768 C 133.191 43.551, 129.988 51.374, 131.088 52.055 C 131.985 52.608, 128.527 58.066, 126.800 58.823 C 126.395 59, 125.789 60.800, 125.454 62.823 C 124.633 67.780, 121.933 72.887, 119.769 73.573 C 118.796 73.882, 118 74.779, 118 75.567 C 118 76.355, 117.559 77, 117.019 77 C 116.480 77, 115.731 78.222, 115.356 79.717 C 114.414 83.469, 111.489 86.401, 109.462 85.624 C 108.377 85.207, 106.850 86.019, 105.004 87.995 C 103.461 89.648, 101.494 91, 100.634 91 C 98.935 91, 97 93.912, 97 96.469 C 97 97.781, 97.376 97.869, 99.078 96.958 C 101.663 95.575, 104.159 96.421, 103.392 98.420 C 103 99.441, 103.654 100.126, 105.449 100.577 C 108.959 101.458, 112.349 98.527, 111.541 95.309 C 111.151 93.755, 111.661 92.339, 113.145 90.855 L 115.321 88.679 117.166 90.957 C 118.680 92.827, 119.279 93.013, 120.506 91.995 C 121.328 91.313, 122 89.941, 122 88.946 C 122 87.950, 123.291 86.217, 124.869 85.094 C 126.696 83.792, 128.546 80.888, 129.965 77.093 C 131.191 73.816, 133.050 70.360, 134.097 69.412 C 135.144 68.465, 136 67.111, 136 66.404 C 136 64.522, 137.999 63.599, 139.287 64.887 C 139.899 65.499, 141.633 66, 143.141 66 C 144.649 66, 146.160 66.450, 146.500 67 C 147.453 68.543, 153.791 68.183, 156.459 66.435 C 158.621 65.018, 159.133 65.017, 161.853 66.424 C 165.736 68.432, 171 67.540, 171 64.875 C 171 63.323, 171.765 63, 175.441 63 C 177.884 63, 180.148 63.430, 180.473 63.956 C 180.798 64.482, 181.804 64.629, 182.709 64.281 C 184.154 63.727, 184.119 63.568, 182.427 62.973 C 181.355 62.596, 185.033 61.974, 190.719 61.570 C 196.340 61.171, 201.402 61.131, 201.969 61.481 C 204.299 62.921, 202.622 63.770, 195.750 64.632 C 188.839 65.500, 189.341 65.577, 206.495 66.283 C 223.182 66.971, 224.672 66.888, 226.995 65.154 C 228.373 64.126, 229.500 62.454, 229.500 61.439 C 229.500 59.690, 228.017 59.592, 201 59.547 C 176.407 59.506, 171.853 59.737, 167.781 61.228 C 164.094 62.577, 160.324 62.908, 150.539 62.740 C 138.493 62.533, 138.040 62.448, 138.652 60.512 C 139.001 59.405, 140.122 57.912, 141.143 57.193 C 142.165 56.475, 143 54.787, 143 53.443 C 143 51.395, 142.515 51, 140 51 C 136.671 51, 136.317 49.819, 138.500 46 C 141.540 40.683, 139.407 36.683, 135.710 40.768 M 207 63.036 C 209.048 63.522, 210.894 63.480, 211.450 62.933 C 212.040 62.353, 210.716 62.039, 207.950 62.102 L 203.500 62.205 207 63.036 M 218.966 77.750 C 218.947 78.162, 218.793 81.875, 218.623 86 C 218.453 90.125, 217.955 97.597, 217.517 102.605 C 216.949 109.109, 217.047 111.911, 217.861 112.414 C 218.568 112.851, 219 112.360, 219 111.118 C 219 110.018, 219.450 108.840, 220 108.500 C 220.619 108.117, 220.994 109.903, 220.985 113.191 C 220.974 117.028, 220.696 118.084, 219.985 117 C 219.109 115.667, 218.888 115.667, 217.989 117 C 216.630 119.018, 217.186 124.500, 218.750 124.500 C 219.438 124.500, 220 124.838, 220 125.250 C 220 125.662, 220 126.477, 220 127.059 C 220 127.641, 219.550 127.840, 219 127.500 C 218.004 126.884, 217.587 128.243, 217.958 130.894 C 218.222 132.773, 216.131 133.963, 212.500 134 C 208.826 134.038, 205.703 135.651, 208.028 136.310 C 216.571 138.732, 216.076 137.722, 216.663 153.925 C 216.979 162.644, 216.712 166.261, 215.538 169.195 C 214.692 171.310, 214 173.986, 214 175.143 C 214 176.898, 214.248 177.039, 215.500 176 C 216.729 174.980, 217 175.049, 217 176.378 C 217 177.270, 216.213 178.023, 215.250 178.050 C 214.287 178.078, 210.983 178.313, 207.906 178.571 L 202.313 179.042 201.736 164.271 C 201.338 154.096, 201.561 147.410, 202.451 142.784 C 203.285 138.453, 203.450 134.546, 202.915 131.784 C 202.460 129.428, 202.048 122.325, 202 116 C 201.952 109.675, 201.439 102.475, 200.860 100 C 200.281 97.525, 199.583 93.250, 199.309 90.500 C 198.996 87.365, 198.034 84.661, 196.731 83.250 C 194.390 80.718, 190.496 80.265, 189.666 82.429 C 189.080 83.954, 189.659 96.839, 190.500 101 C 191.861 107.735, 192.908 123.589, 192.346 128.962 L 191.715 135 186.108 135.163 L 180.500 135.326 186 135.913 L 191.500 136.500 191.770 157.674 L 192.039 178.849 184.270 178.357 L 176.500 177.866 180 179.617 C 184.803 182.020, 184.755 181.922, 182.122 183.908 L 179.775 185.679 185.269 186.782 C 188.466 187.424, 194.681 187.635, 200.132 187.286 C 207.902 186.789, 209.738 186.350, 210.898 184.713 C 212.275 182.770, 212.322 182.775, 214.055 185.073 C 215.561 187.069, 216.161 187.248, 218.221 186.309 C 219.545 185.706, 221.274 185.569, 222.064 186.005 C 222.854 186.441, 225.975 186.384, 229 185.879 C 232.025 185.374, 237.425 185.004, 241 185.056 C 255.650 185.271, 255.905 185.228, 256.609 182.423 C 257.354 179.453, 255.345 175, 253.260 175 C 252.488 175, 251.182 175.675, 250.357 176.500 C 249.349 177.508, 246.829 178.002, 242.679 178.007 C 239.280 178.011, 233.463 178.301, 229.750 178.652 L 223 179.289 223 176.563 C 223 175.064, 224.317 168.361, 225.927 161.668 C 227.537 154.976, 229.168 146.800, 229.551 143.500 C 229.934 140.200, 230.663 136.978, 231.172 136.339 C 231.750 135.614, 231.703 134.935, 231.049 134.530 C 230.379 134.116, 230 127.281, 230 115.622 C 230 102.863, 229.574 95.878, 228.584 92.432 C 227.805 89.719, 226.871 85.620, 226.508 83.321 C 225.954 79.812, 225.356 78.971, 222.775 78.071 C 219.118 76.796, 219.010 76.787, 218.966 77.750 M 161.642 83.250 C 160.870 84.487, 159.947 86.751, 159.592 88.280 C 159.113 90.343, 158.179 91.214, 155.973 91.655 C 153.452 92.160, 153 92.716, 153 95.315 C 153 98.457, 154.822 109.315, 155.799 112 C 156.369 113.564, 158.448 121.817, 159.886 128.223 C 160.345 130.270, 160.484 132.183, 160.194 132.473 C 159.904 132.763, 157.229 133, 154.250 133 C 150.355 133, 148.954 133.351, 149.261 134.250 C 149.549 135.091, 151.343 135.391, 154.746 135.167 L 159.802 134.834 161.439 142.032 C 162.340 145.991, 163.353 155.012, 163.691 162.079 C 164.358 176.027, 163.823 178, 159.378 178 C 157.931 178, 157 178.587, 157 179.500 C 157 180.542, 158.048 181, 160.430 181 C 163.227 181, 163.920 181.416, 164.180 183.250 C 164.627 186.397, 168.597 186.420, 168.266 183.274 C 168.083 181.531, 168.732 180.858, 171.266 180.169 C 173.264 179.625, 174.369 178.756, 174.156 177.894 C 173.967 177.127, 173.682 175.150, 173.521 173.500 C 173.361 171.850, 172.939 169.801, 172.584 168.947 C 172.228 168.093, 172.631 165.735, 173.478 163.707 C 174.931 160.229, 174.904 159.904, 172.997 157.997 C 171.210 156.210, 170.988 154.760, 171.079 145.488 C 171.174 135.870, 171.341 135, 173.091 135 C 175.764 135, 175.483 133.208, 172.750 132.820 C 170.940 132.562, 170.350 131.621, 169.734 128 C 168.130 118.570, 167.135 103.479, 167.509 94.263 C 167.724 88.992, 167.456 83.852, 166.914 82.840 C 165.581 80.349, 163.344 80.523, 161.642 83.250 M 128.424 91.973 C 127.880 96.780, 127.348 98.072, 125.700 98.595 C 124.346 99.025, 123.226 98.662, 122.393 97.522 C 121.700 96.575, 120.653 96.096, 120.067 96.459 C 118.627 97.348, 118.709 106.593, 120.180 109.316 C 122.057 112.790, 124.274 122.098, 124.392 127 C 124.497 131.385, 124.423 131.497, 121.500 131.368 C 119.850 131.295, 117.502 130.909, 116.281 130.510 C 114.576 129.951, 113.365 130.481, 111.045 132.801 C 108.995 134.851, 107.380 135.651, 106.013 135.293 C 104.493 134.896, 104 135.255, 104 136.761 C 104 139.921, 106.581 141.512, 109.530 140.168 C 110.888 139.549, 112 138.376, 112 137.560 C 112 136.197, 113.719 135.503, 122.118 133.480 C 124.201 132.978, 125.177 133.409, 126.890 135.587 C 128.074 137.093, 129.286 139.489, 129.583 140.912 C 129.879 142.336, 130.770 144.978, 131.561 146.784 C 132.352 148.590, 133 151.335, 133 152.885 C 133 154.434, 133.394 157.006, 133.875 158.601 C 136.731 168.059, 137.179 171.934, 135.748 174.802 C 134.385 177.535, 134.441 177.707, 137.076 178.873 C 139.637 180.007, 147.456 180.237, 149.323 179.234 C 149.776 178.990, 149.264 178.173, 148.185 177.417 C 147.107 176.662, 145.970 174.571, 145.661 172.772 C 143.132 158.086, 143.119 157.819, 144.713 154.475 C 146.201 151.356, 146.170 151.031, 144.143 148.454 C 141.560 145.171, 141.322 139.412, 143.633 136.114 C 145.002 134.160, 145.042 133.641, 143.883 132.906 C 143.122 132.425, 141.986 132.024, 141.357 132.015 C 139.823 131.995, 139 129.607, 138.999 125.168 C 138.998 123.151, 138.364 117.899, 137.589 113.498 C 136.814 109.097, 135.855 101.756, 135.456 97.185 C 134.740 88.977, 133.415 86, 130.478 86 C 129.536 86, 128.885 87.890, 128.424 91.973 M 162.634 92.822 C 162.181 94.648, 162.078 96.411, 162.405 96.738 C 163.535 97.868, 164.140 96.181, 163.800 92.846 L 163.459 89.500 162.634 92.822 M 29.250 92.662 C 28.563 92.940, 28 93.974, 28 94.961 C 28 95.948, 27.312 98.402, 26.471 100.415 C 25.630 102.428, 24.994 106.195, 25.057 108.787 C 25.120 111.379, 24.892 120.700, 24.550 129.500 C 23.776 149.437, 25.057 157.500, 29 157.500 C 30.743 157.500, 31.372 157.046, 31.079 156 C 30.378 153.503, 31.050 134.990, 32.149 126.484 C 32.717 122.093, 33.377 115.800, 33.616 112.500 C 33.855 109.200, 34.315 103.237, 34.638 99.250 C 35.216 92.114, 35.188 92.001, 32.863 92.079 C 31.563 92.122, 29.938 92.385, 29.250 92.662 M 105.500 94 C 103.870 94.701, 103.812 94.872, 105.191 94.930 C 106.121 94.968, 107.160 94.550, 107.500 94 C 108.211 92.850, 108.176 92.850, 105.500 94 M 192 94.441 C 192 95.234, 192.450 96.160, 193 96.500 C 193.550 96.840, 194 98.066, 194 99.226 C 194 100.385, 194.279 101.054, 194.620 100.713 C 195.536 99.797, 194.069 93, 192.955 93 C 192.430 93, 192 93.648, 192 94.441 M 155.684 96.750 C 155.446 97.162, 155.612 98.400, 156.055 99.500 C 156.757 101.246, 156.868 101.151, 156.930 98.750 C 156.999 96.037, 156.531 95.286, 155.684 96.750 M 157.158 105 C 157.158 106.375, 157.385 106.938, 157.662 106.250 C 157.940 105.563, 157.940 104.438, 157.662 103.750 C 157.385 103.063, 157.158 103.625, 157.158 105 M 125.079 106.583 C 125.127 107.748, 125.364 107.985, 125.683 107.188 C 125.972 106.466, 125.936 105.603, 125.604 105.271 C 125.272 104.939, 125.036 105.529, 125.079 106.583 M 130 106.924 C 130 110.232, 132.303 119, 133.172 119 C 134.295 119, 134.213 116.090, 132.917 110.049 C 131.857 105.105, 130 103.116, 130 106.924 M 124.115 110 C 124.161 110.825, 124.560 112.625, 125 114 L 125.801 116.500 125.885 114 C 125.931 112.625, 125.533 110.825, 125 110 C 124.138 108.667, 124.040 108.667, 124.115 110 M 226.079 112.583 C 226.127 113.748, 226.364 113.985, 226.683 113.188 C 226.972 112.466, 226.936 111.603, 226.604 111.271 C 226.272 110.939, 226.036 111.529, 226.079 112.583 M 128.015 123.191 C 128.007 124.121, 128.450 125.160, 129 125.500 C 130.266 126.282, 130.266 124.958, 129 123 C 128.165 121.707, 128.029 121.734, 128.015 123.191 M 195 134.500 C 195 135.991, 195.431 136.852, 196 136.500 C 196.550 136.160, 197 135.260, 197 134.500 C 197 133.740, 196.550 132.840, 196 132.500 C 195.431 132.148, 195 133.009, 195 134.500 M 234.187 138.250 L 234.500 141.500 242 142.186 C 250.398 142.954, 259.856 142.268, 261.750 140.754 C 262.438 140.205, 263 138.978, 263 138.028 C 263 136.555, 261.570 136.207, 253.250 135.656 C 247.887 135.301, 241.334 135.008, 238.687 135.005 L 233.873 135 234.187 138.250 M 122.813 139.683 C 123.534 139.972, 124.397 139.936, 124.729 139.604 C 125.061 139.272, 124.471 139.036, 123.417 139.079 C 122.252 139.127, 122.015 139.364, 122.813 139.683 M 178.229 141.188 C 178.847 143.042, 181 143.349, 181 141.583 C 181 140.713, 180.287 140, 179.417 140 C 178.546 140, 178.011 140.534, 178.229 141.188 M 136.015 153.715 C 136.024 155.247, 136.474 157.175, 137.015 158 C 137.891 159.333, 138.109 159.333, 138.985 158 C 140.560 155.601, 140.158 153.155, 138 152 C 136.221 151.048, 136.002 151.238, 136.015 153.715 M 194.507 163.989 C 194.157 164.555, 194.558 164.723, 195.448 164.382 C 197.180 163.717, 197.497 163, 196.059 163 C 195.541 163, 194.843 163.445, 194.507 163.989 M 109.388 173.979 C 107.023 174.936, 105.620 178.647, 107.244 179.651 C 109.822 181.244, 115.132 180.868, 117.044 178.956 C 118.120 177.880, 118.662 176.986, 118.250 176.968 C 117.838 176.951, 118.374 176.276, 119.441 175.468 C 121.263 174.090, 121.161 174, 117.773 174 C 115.788 174, 113.564 173.803, 112.832 173.563 C 112.099 173.322, 110.550 173.509, 109.388 173.979 M 122.500 176 C 122.840 176.550, 123.541 177, 124.059 177 C 124.577 177, 125 176.550, 125 176 C 125 175.450, 124.298 175, 123.441 175 C 122.584 175, 122.160 175.450, 122.500 176 M 126 176 C 126 176.550, 126.900 177, 128 177 C 129.100 177, 130 176.550, 130 176 C 130 175.450, 129.100 175, 128 175 C 126.900 175, 126 175.450, 126 176 M 151.229 179.188 C 151.847 181.042, 154 181.349, 154 179.583 C 154 178.713, 153.287 178, 152.417 178 C 151.546 178, 151.011 178.534, 151.229 179.188 M 131.232 183.195 C 131.710 184.629, 136.791 186.148, 137.464 185.058 C 137.944 184.282, 133.770 182, 131.870 182 C 131.300 182, 131.013 182.538, 131.232 183.195 M 151.269 185.693 C 152.242 185.947, 153.592 185.930, 154.269 185.656 C 154.946 185.382, 154.150 185.175, 152.500 185.195 C 150.850 185.215, 150.296 185.439, 151.269 185.693 M 153.420 206.482 C 151.236 209.815, 152.312 223.816, 154.605 221.913 C 155.747 220.965, 156 221.311, 156 223.819 C 156 225.503, 156.450 227.160, 157 227.500 C 157.550 227.840, 158 228.977, 158 230.028 C 158 231.426, 157.531 231.764, 156.250 231.292 C 155.287 230.936, 154.156 230.163, 153.736 229.573 C 152.163 227.365, 154.383 237.676, 156.407 241.985 C 157.918 245.199, 159.743 247.147, 162.850 248.861 L 167.185 251.252 169.843 249.268 C 173.358 246.644, 173.203 244.726, 169.413 243.951 C 163.494 242.740, 164.055 244.434, 161.403 219.750 C 159.754 204.402, 159.651 204, 157.379 204 C 155.999 204, 154.382 205.014, 153.420 206.482 M 230.027 209.430 C 228.981 212.180, 229.791 219, 231.163 219 C 231.659 219, 232.471 217.988, 232.969 216.750 C 233.731 214.855, 233.871 215.131, 233.858 218.500 C 233.849 220.700, 233.615 221.938, 233.338 221.250 C 232.355 218.814, 231 220.047, 231 223.378 C 231 225.235, 231.675 227.315, 232.500 228 C 233.536 228.860, 234 228.898, 234 228.122 C 234 227.505, 234.675 227, 235.500 227 C 236.325 227, 237.006 227.563, 237.014 228.250 C 237.021 228.938, 237.317 230.584, 237.672 231.908 C 238.232 234.003, 238.036 234.243, 236.158 233.752 C 233.618 233.087, 233.417 234.478, 235.186 240.500 C 235.832 242.700, 236.260 245.063, 236.136 245.750 C 236.013 246.438, 236.596 247, 237.432 247 C 238.268 247, 240.300 248.482, 241.947 250.292 C 243.607 252.116, 247.224 254.405, 250.055 255.423 C 254.651 257.075, 255.323 257.106, 256.702 255.727 C 258.647 253.781, 257.752 252.341, 253.492 250.561 C 251.547 249.748, 249.044 247.446, 247.573 245.116 C 243.183 238.161, 238 221.126, 238 213.651 C 238 208.862, 236.677 207, 233.275 207 C 231.734 207, 230.639 207.818, 230.027 209.430 M 107.598 209.736 C 107.269 210.064, 107 211.399, 107 212.702 C 107 214.005, 106.365 216.067, 105.588 217.285 C 104.453 219.066, 104.404 220.186, 105.338 223 C 105.978 224.928, 107.174 226.500, 108 226.500 C 108.825 226.500, 109.644 227.512, 109.820 228.750 C 109.995 229.988, 109.658 231, 109.070 231 C 108.481 231, 107.986 230.213, 107.970 229.250 C 107.941 227.620, 107.867 227.624, 106.886 229.311 C 106.307 230.307, 106.077 231.759, 106.376 232.538 C 106.675 233.317, 107.215 237.677, 107.575 242.227 C 108.376 252.333, 109.152 254, 113.057 254 C 117.168 254, 118.969 250.229, 117.031 245.680 C 116.286 243.931, 115.556 239.524, 115.409 235.887 C 115.261 232.249, 114.434 227.582, 113.571 225.515 C 112.707 223.447, 112 220.517, 112 219.003 C 112 212.449, 109.708 207.625, 107.598 209.736 M 190.524 210.358 C 188.839 211.591, 188.772 212.264, 189.795 217.608 C 190.416 220.849, 191.178 225.142, 191.489 227.149 C 191.956 230.174, 192.391 230.711, 194.026 230.283 C 195.431 229.916, 196 230.267, 196 231.500 C 196 232.741, 195.432 233.085, 194 232.710 C 192.252 232.253, 192 232.680, 192 236.091 C 192 241.380, 197.203 247.237, 203.458 248.988 C 208.982 250.535, 213 249.698, 213 247 C 213 245.129, 211.923 244.592, 206.554 243.786 C 205.484 243.625, 203.766 242.051, 202.736 240.287 C 200.924 237.185, 198.096 221.298, 198.032 213.857 C 197.990 209.086, 194.493 207.457, 190.524 210.358 M 154.813 219.683 C 155.534 219.972, 156.397 219.936, 156.729 219.604 C 157.061 219.272, 156.471 219.036, 155.417 219.079 C 154.252 219.127, 154.015 219.364, 154.813 219.683" stroke="none" fill="black" fill-rule="evenodd"/>
</svg>