<svg xmlns="http://www.w3.org/2000/svg" width="300" height="300" viewBox="0 0 300 300" version="1.1">
	<path d="M 94.479 57.250 C 94.227 57.938, 94.093 60.525, 94.182 63 C 94.270 65.475, 93.829 70.875, 93.202 75 C 92.575 79.125, 92.048 85.058, 92.031 88.185 C 91.994 94.970, 90.810 98.522, 88.327 99.296 C 87.322 99.609, 82.675 101.283, 78 103.016 C 73.325 104.749, 68.375 106.395, 67 106.674 C 65.625 106.954, 63.082 107.816, 61.349 108.591 C 59.616 109.366, 57.059 110, 55.666 110 C 53.090 110, 51.224 112.936, 52.494 114.991 C 53.584 116.753, 55 116.080, 55 113.800 C 55 112.089, 55.267 111.867, 56.200 112.800 C 57.844 114.444, 60.501 114.306, 62 112.500 C 62.758 111.587, 64.949 111, 67.602 111 C 69.999 111, 73.656 110.383, 75.730 109.628 C 80.322 107.956, 90.019 105.649, 90.380 106.142 C 91.110 107.142, 93.270 131.234, 93.733 143.539 L 94.261 157.578 90.381 159.261 C 88.246 160.187, 82.675 161.865, 78 162.990 C 62.473 166.729, 48.917 175.300, 45.631 183.457 C 44.603 186.008, 44.039 188.372, 44.376 188.710 C 45.082 189.415, 51.447 187.649, 58 184.930 C 60.475 183.903, 64.300 182.591, 66.500 182.015 C 68.700 181.439, 71.374 180.300, 72.441 179.484 C 73.509 178.668, 75.252 178, 76.316 178 C 77.380 178, 80.867 176.826, 84.065 175.390 C 88.548 173.379, 90.122 172.088, 90.933 169.762 C 91.833 167.181, 92.211 166.930, 93.537 168.031 C 94.525 168.850, 94.899 170.261, 94.566 171.909 C 94.278 173.334, 93.801 185.719, 93.507 199.431 C 93.212 213.143, 92.824 224.509, 92.644 224.689 C 92.464 224.869, 92.590 226.695, 92.924 228.747 C 93.367 231.472, 94.066 232.544, 95.515 232.722 C 96.607 232.855, 96.938 232.710, 96.250 232.399 C 94.560 231.634, 94.648 229.928, 96.343 230.578 C 97.419 230.991, 97.850 227.545, 98.506 213.297 C 98.956 203.509, 99.388 189.200, 99.465 181.500 C 99.613 166.872, 100.536 163, 103.875 163 C 104.867 163, 106.172 161.918, 106.775 160.595 C 107.534 158.929, 109.197 157.866, 112.185 157.138 C 114.558 156.560, 119.132 155.356, 122.349 154.463 C 127.102 153.144, 128.742 153.065, 131.100 154.041 C 134.962 155.641, 137.220 153.877, 136.801 149.585 C 136.536 146.864, 136.090 146.461, 133.024 146.170 C 129.524 145.837, 116.360 148.556, 114.500 149.995 C 113.950 150.421, 112.098 151.068, 110.385 151.434 C 108.672 151.800, 106.286 153.016, 105.083 154.137 C 101.253 157.706, 100.021 155.986, 99.814 146.781 C 99.276 122.891, 99.368 117.284, 100.338 115 C 100.921 113.625, 101.871 109.144, 102.449 105.042 L 103.500 97.585 108.500 95.747 C 111.250 94.736, 115.300 93.580, 117.500 93.177 C 120.024 92.715, 121.500 91.901, 121.500 90.972 C 121.500 89.015, 114.396 89.531, 107.296 92.004 C 102.984 93.506, 101.902 93.587, 100.983 92.479 C 100.373 91.744, 99.394 86.575, 98.807 80.992 C 97.791 71.322, 97.841 70.706, 99.870 67.962 C 102.393 64.550, 102.585 61.280, 100.443 58.223 C 98.755 55.813, 95.217 55.236, 94.479 57.250 M 219 75.634 C 211.842 78.421, 204.636 80.001, 198.500 80.131 C 196.300 80.178, 194.050 80.545, 193.500 80.948 C 192.950 81.351, 189.125 82.260, 185 82.968 C 173.995 84.857, 167.039 86.818, 165.349 88.508 C 164.529 89.329, 162.414 90, 160.651 90 C 156.263 90, 153.273 92.352, 152.056 96.761 C 151.244 99.698, 151.337 100.765, 152.503 101.931 C 153.795 103.224, 154.305 103.097, 156.736 100.875 C 158.256 99.486, 160.778 98.272, 162.339 98.178 C 165.952 97.961, 166.921 97.338, 167.979 94.555 C 168.713 92.626, 169.809 92.213, 175.667 91.659 C 179.425 91.305, 184.878 91.011, 187.785 91.007 C 190.949 91.003, 194.057 90.354, 195.527 89.390 C 196.879 88.505, 198.663 88.040, 199.492 88.359 C 201.643 89.184, 201.513 98.287, 199.303 101.661 C 197.676 104.143, 196.417 123.874, 195.547 160.500 C 195.443 164.900, 195.073 170.525, 194.726 173 C 194.378 175.475, 193.852 181.662, 193.558 186.750 C 193.111 194.453, 193.267 196, 194.488 196 C 196.265 196, 199.995 188.618, 200.014 185.062 C 200.036 180.955, 201.125 178, 202.617 178 C 203.377 178, 204.011 177.887, 204.024 177.750 C 204.038 177.613, 204.308 175.192, 204.624 172.371 C 204.989 169.121, 204.797 166.993, 204.100 166.562 C 202.706 165.701, 202.661 159.739, 204.037 158.363 C 204.714 157.686, 204.749 156.470, 204.137 154.860 C 203.596 153.438, 203.568 151.737, 204.070 150.840 C 204.548 149.985, 205.237 145.050, 205.601 139.874 C 206.168 131.806, 206.026 130.267, 204.606 129.088 C 203.074 127.817, 203.072 127.578, 204.580 125.912 C 205.884 124.471, 206.110 122.651, 205.713 116.805 C 205.440 112.787, 204.877 108.667, 204.463 107.649 C 203.982 106.470, 204.205 105.491, 205.077 104.952 C 206.999 103.765, 207.959 91.387, 206.312 89.035 C 204.306 86.171, 207.846 83.910, 216.735 82.378 C 225.602 80.850, 229 79.369, 229 77.031 C 229 75.441, 227.151 72.948, 226.050 73.052 C 225.748 73.081, 222.575 74.243, 219 75.634 M 94.500 107 C 94.160 107.550, 94.359 108, 94.941 108 C 95.523 108, 96 107.550, 96 107 C 96 106.450, 95.802 106, 95.559 106 C 95.316 106, 94.840 106.450, 94.500 107 M 63.500 172 C 62.400 172.473, 61.950 172.955, 62.500 173.072 C 63.050 173.188, 61.735 173.557, 59.578 173.892 C 55.282 174.558, 53.782 176.478, 56.807 177.439 C 58.813 178.075, 69 173.413, 69 171.858 C 69 170.788, 66.149 170.862, 63.500 172 M 205.425 182.443 C 205.088 183.787, 205.119 185.384, 205.495 185.992 C 206.556 187.708, 209 185.188, 209 182.378 C 209 179.213, 206.223 179.264, 205.425 182.443 M 272.668 191.665 C 272.216 192.117, 264.236 192.542, 239 193.458 C 230.475 193.767, 222.874 194.251, 222.109 194.533 C 218.982 195.685, 195.878 199.942, 187.267 200.953 C 182.188 201.549, 177.013 202.417, 175.767 202.882 C 174.520 203.347, 171.300 204.051, 168.612 204.446 C 165.924 204.841, 162.324 205.772, 160.612 206.516 C 158.900 207.260, 156.037 208.458, 154.250 209.178 C 151.438 210.312, 151 210.968, 151 214.044 C 151 220.531, 154.151 221.493, 162.486 217.550 C 165.334 216.203, 172.127 214.383, 177.582 213.505 C 183.037 212.628, 188.381 211.418, 189.458 210.817 C 190.536 210.215, 193.911 209.085, 196.958 208.307 C 200.006 207.528, 204.300 206.426, 206.500 205.858 C 208.700 205.289, 212.160 204.717, 214.189 204.585 C 216.218 204.454, 218.468 203.869, 219.189 203.285 C 221.772 201.195, 230.250 200.832, 236.845 202.531 C 245.512 204.762, 253 203.841, 253 200.544 C 253 199.058, 262.708 197.024, 270.082 196.964 C 276.789 196.910, 288.383 193.927, 286.917 192.632 C 286.279 192.070, 273.154 191.179, 272.668 191.665 M 66.535 211.250 C 67.903 215.849, 71.496 219.842, 76.059 221.834 C 78.621 222.953, 82.434 225.034, 84.534 226.459 C 87.452 228.438, 88.542 228.749, 89.160 227.775 C 90.565 225.561, 90.171 225.153, 82.218 220.565 C 77.937 218.096, 73.026 214.484, 71.303 212.538 C 67.693 208.460, 65.531 207.876, 66.535 211.250 M 106 214.441 C 106 215.848, 106.450 217, 107 217 C 107.550 217, 108 216.127, 108 215.059 C 108 213.991, 107.550 212.840, 107 212.500 C 106.433 212.149, 106 212.990, 106 214.441" stroke="none" fill="black" fill-rule="evenodd"/>
</svg>