<svg xmlns="http://www.w3.org/2000/svg" width="300" height="300" viewBox="0 0 300 300" version="1.1">
	<path d="M 111.565 53.868 C 109.056 54.408, 108.434 55.226, 107.277 59.500 C 106.533 62.250, 105.482 69.212, 104.942 74.970 C 104.402 80.729, 103.602 85.798, 103.164 86.236 C 102.727 86.673, 99.057 87.721, 95.008 88.565 C 90.959 89.410, 87.174 90.392, 86.597 90.749 C 86.019 91.106, 83.845 91.557, 81.765 91.751 C 76.674 92.225, 70.959 95.899, 71.265 98.500 C 71.394 99.600, 71.838 100.388, 72.250 100.250 C 72.662 100.112, 74.320 100, 75.933 100 C 77.913 100, 79.057 99.396, 79.455 98.142 C 79.928 96.651, 81.452 96.152, 87.148 95.623 C 95.259 94.869, 96 94.571, 96 92.058 C 96 90.288, 98.467 88.976, 100.500 89.664 C 101.298 89.934, 101.872 148.209, 101.142 154.775 C 101.064 155.476, 99.987 156.487, 98.750 157.022 C 97.513 157.557, 95.825 158.429, 95 158.960 C 92.523 160.552, 82.387 165, 81.235 165 C 80.645 165, 78.888 165.629, 77.331 166.397 C 70.111 169.961, 61.477 172.884, 50.750 175.394 C 47.530 176.148, 46.768 180, 49.839 180 C 50.851 180, 52.192 181.125, 52.818 182.500 C 54.243 185.626, 55.102 185.626, 58.818 182.500 C 60.452 181.125, 62.231 180, 62.772 180 C 63.313 180, 64.308 179.334, 64.983 178.521 C 66.650 176.512, 72.036 173.904, 73.126 174.578 C 73.611 174.878, 75.694 174.209, 77.754 173.092 C 79.814 171.975, 83.975 169.921, 87 168.527 C 90.025 167.133, 93.993 165.035, 95.818 163.864 C 100.432 160.906, 101.427 162.237, 100.074 169.558 C 99.483 172.753, 98.976 183.272, 98.947 192.934 C 98.918 202.595, 98.304 216.302, 97.583 223.393 C 96.427 234.769, 96.007 236.486, 94.018 237.987 C 92.131 239.410, 91.945 240.029, 92.880 241.776 C 93.495 242.925, 94.881 244.145, 95.961 244.488 C 99.882 245.732, 101.469 243.563, 103.755 233.832 C 106.272 223.119, 106.857 214.880, 107.473 181.500 C 107.717 168.300, 107.935 157.405, 107.958 157.290 C 107.981 157.174, 111.713 154.151, 116.250 150.572 C 125.926 142.940, 133 136.354, 133 134.977 C 133 132.964, 130.142 134.123, 125.891 137.858 C 121.342 141.855, 110.697 149.001, 109.298 148.998 C 107.952 148.995, 108.415 101.028, 109.805 96.500 C 111.240 91.822, 113.493 88.569, 114.756 89.349 C 115.245 89.651, 118.537 89.430, 122.072 88.857 C 125.608 88.284, 131.045 87.883, 134.156 87.965 C 139.228 88.099, 142.221 86.887, 140.663 85.330 C 140.368 85.035, 133.913 84.644, 126.319 84.462 C 113.763 84.162, 112.513 83.967, 112.521 82.316 C 112.555 75.465, 114.202 57.598, 114.992 55.522 C 115.519 54.135, 115.624 53.053, 115.225 53.118 C 114.826 53.183, 113.179 53.521, 111.565 53.868 M 203 53.630 C 201.625 53.848, 197.800 54.683, 194.500 55.485 C 184.293 57.967, 176.925 59, 169.439 59 C 161.691 59, 159.319 60.278, 160.451 63.844 C 161.213 66.245, 164.416 67.172, 167.672 65.934 C 169.024 65.421, 171.396 65, 172.943 65 C 174.490 65, 176.315 64.325, 177 63.500 C 177.685 62.675, 177.910 62, 177.500 62 C 177.090 62, 177.315 61.325, 178 60.500 C 179.924 58.182, 182.324 58.526, 181.035 60.934 C 179.600 63.617, 179.716 64, 181.965 64 C 183.045 64, 184.411 63.100, 185 62 C 185.601 60.877, 187.041 60.031, 188.285 60.070 C 190.412 60.138, 190.420 60.175, 188.500 61 C 186.625 61.806, 186.618 61.864, 188.385 61.930 C 189.421 61.968, 193.134 61.472, 196.635 60.827 C 201.705 59.893, 203 59.282, 203 57.827 C 203 56.822, 203.113 56.020, 203.250 56.044 C 203.387 56.068, 205.750 56.685, 208.500 57.414 C 213.301 58.688, 213.494 58.875, 213.357 62.120 C 212.957 71.614, 208.958 91.904, 206.976 94.500 C 206.556 95.050, 205.263 100.180, 204.104 105.900 C 202.944 111.620, 201.489 116.911, 200.869 117.658 C 200.063 118.629, 197.438 118.959, 191.621 118.818 C 183.697 118.627, 176.468 120.106, 168.216 123.607 C 166.410 124.373, 164.126 125, 163.140 125 C 162.155 125, 160.305 126.111, 159.029 127.469 C 157.753 128.827, 156.325 129.701, 155.855 129.410 C 154.859 128.795, 154.737 119.224, 155.655 113.672 C 156.154 110.647, 157.092 109.336, 160.124 107.422 C 162.234 106.090, 164.482 105, 165.120 105 C 165.758 105, 166.892 104.213, 167.640 103.250 C 168.928 101.593, 169.080 101.603, 170.501 103.443 C 171.733 105.036, 172.496 105.212, 174.751 104.419 C 176.263 103.887, 177.500 102.825, 177.500 102.059 C 177.500 101.293, 178.125 100.458, 178.889 100.204 C 179.732 99.923, 180.004 100.185, 179.580 100.870 C 178.365 102.836, 184.089 102.142, 191.500 99.425 C 195.350 98.014, 199.850 96.535, 201.500 96.139 C 203.150 95.742, 204.500 94.761, 204.500 93.959 C 204.500 91.839, 194.863 92.351, 187.394 94.867 C 184.120 95.970, 178.980 97.186, 175.971 97.569 C 172.962 97.953, 170.050 98.599, 169.500 99.007 C 167.340 100.607, 159.337 101.111, 158.182 99.720 C 157.486 98.881, 156.999 93.137, 156.907 84.681 C 156.745 69.706, 156.062 68.280, 152.250 74.956 C 150.322 78.332, 149.997 80.371, 149.980 89.198 C 149.969 94.864, 149.497 102.650, 148.931 106.500 C 148.365 110.350, 147.503 121.375, 147.016 131 C 146.211 146.900, 145.796 149.597, 142.470 160.500 C 140.456 167.100, 138.423 176.325, 137.952 181 C 137.480 185.675, 135.963 194.273, 134.579 200.106 C 131.581 212.750, 130.973 222.058, 132.988 224.485 C 134.613 226.444, 138.025 226.231, 148 223.548 C 154.665 221.755, 164.542 215.420, 165.739 212.171 C 166.077 211.252, 166.632 210.275, 166.972 210 C 168.244 208.970, 172 201.831, 172 200.443 C 172 198.293, 169.231 198.699, 167.983 201.032 C 167.385 202.149, 163.864 206.144, 160.158 209.909 C 153.605 216.567, 153.247 216.775, 147.149 217.483 C 143.699 217.883, 140.599 217.932, 140.259 217.592 C 139.919 217.252, 140.395 213.717, 141.317 209.737 C 143.054 202.239, 144.342 194.204, 145.998 180.529 C 146.529 176.145, 148.071 168.945, 149.426 164.529 C 152.772 153.619, 155 143.980, 155 140.409 C 155 136.380, 157.440 133.202, 161.295 132.208 C 163.499 131.640, 164.600 130.698, 164.819 129.193 C 165.131 127.056, 169.368 125.034, 170.713 126.380 C 171.054 126.721, 170.358 127, 169.167 127 C 167.975 127, 167 127.502, 167 128.117 C 167 128.766, 167.941 129.010, 169.250 128.699 C 175.725 127.162, 182.261 125.028, 183.409 124.075 C 184.122 123.484, 188.121 122.711, 192.296 122.358 L 199.886 121.716 200.193 127.005 C 200.566 133.432, 202.698 135.489, 205.941 132.553 C 207.074 131.528, 208 129.641, 208 128.359 C 208 125.778, 209.544 118.859, 211.636 112.072 C 212.386 109.636, 213.020 106.486, 213.044 105.072 C 213.068 103.657, 213.746 100.700, 214.551 98.500 C 217.701 89.886, 219.301 79.327, 219.400 66.500 L 219.500 53.500 212.500 53.367 C 208.650 53.293, 204.375 53.412, 203 53.630 M 194.507 58.989 C 194.157 59.555, 194.558 59.723, 195.448 59.382 C 197.180 58.717, 197.497 58, 196.059 58 C 195.541 58, 194.843 58.445, 194.507 58.989 M 108 67 C 108 67.550, 108.450 68, 109 68 C 109.550 68, 110 67.550, 110 67 C 110 66.450, 109.550 66, 109 66 C 108.450 66, 108 66.450, 108 67 M 128.813 85.683 C 129.534 85.972, 130.397 85.936, 130.729 85.604 C 131.061 85.272, 130.471 85.036, 129.417 85.079 C 128.252 85.127, 128.015 85.364, 128.813 85.683 M 134 133 C 134 133.550, 134.423 134, 134.941 134 C 135.459 134, 136.160 133.550, 136.500 133 C 136.840 132.450, 136.416 132, 135.559 132 C 134.702 132, 134 132.450, 134 133 M 221.776 151.320 C 220.279 152.519, 217.691 154.547, 216.026 155.826 C 214.362 157.105, 213 158.630, 213 159.214 C 213 159.798, 211.313 162.163, 209.250 164.470 C 204.570 169.704, 202.589 172.171, 200.457 175.425 C 199.535 176.832, 198.369 177.728, 197.866 177.417 C 196.062 176.302, 190 162.992, 190 160.147 C 190 155.258, 187.821 154.598, 184.678 158.537 L 181.937 161.972 183.969 166.431 C 185.086 168.884, 186 171.187, 186 171.550 C 186 171.913, 187.350 174.210, 189 176.655 C 190.650 179.100, 192 181.899, 192 182.876 C 192 184.783, 188.070 189, 186.293 189 C 184.980 189, 183.778 191.831, 184.556 193.090 C 185.429 194.504, 187.270 194.135, 190 192 C 191.375 190.924, 193.255 190.034, 194.177 190.022 C 195.865 190, 196.369 190.573, 204.211 201.448 C 208.582 207.511, 223.640 223, 225.162 223 C 225.623 223, 226 222.352, 226 221.559 C 226 220.766, 226.470 219.828, 227.044 219.473 C 228.518 218.562, 231.199 221.038, 230.556 222.715 C 229.707 224.928, 236.863 227.567, 239.406 225.978 C 241.079 224.934, 241.638 225.070, 243.099 226.874 C 244.046 228.043, 245.423 228.993, 246.160 228.985 C 247.189 228.973, 247.158 228.753, 246.029 228.039 C 245.220 227.527, 244.887 226.780, 245.290 226.377 C 245.692 225.975, 246.934 226.625, 248.050 227.823 C 250.077 229.999, 252.440 230.368, 262.500 230.079 C 271.839 229.810, 276.152 228.745, 280.784 225.561 C 285.603 222.247, 289.032 217.699, 287.708 216.375 C 287.302 215.969, 285.478 217.083, 283.655 218.850 C 276.320 225.959, 263.750 227.767, 248.500 223.907 C 244.100 222.793, 239.375 221.624, 238 221.310 C 236.625 220.996, 234.801 220.133, 233.948 219.393 C 233.094 218.653, 231.385 217.894, 230.151 217.705 C 228.917 217.517, 225.907 215.481, 223.464 213.181 C 221.020 210.882, 218.543 209, 217.959 209 C 217.375 209, 216.272 207.502, 215.507 205.670 C 214.742 203.839, 213.387 201.736, 212.496 200.997 C 209.355 198.390, 203.667 188.757, 203.667 186.044 C 203.667 183.277, 205.579 180.465, 215.794 168.218 C 224.806 157.412, 229.014 145.525, 221.776 151.320 M 83.500 167 C 82.181 167.567, 82.011 167.878, 83 167.914 C 83.825 167.945, 85.175 167.533, 86 167 C 87.828 165.819, 86.249 165.819, 83.500 167 M 56.459 178.067 C 56.096 178.653, 56.036 179.369, 56.325 179.658 C 57.110 180.443, 61 179.008, 61 177.933 C 61 176.645, 57.269 176.755, 56.459 178.067 M 71.325 209.614 C 71.995 213.746, 78.036 226.165, 80.998 229.500 C 81.975 230.600, 83.749 233.441, 84.940 235.813 C 86.431 238.783, 87.634 240.016, 88.803 239.772 C 91.515 239.206, 90.417 235.359, 85.348 227.664 C 82.808 223.809, 79.051 217.490, 76.999 213.622 C 72.601 205.331, 70.375 203.759, 71.325 209.614" stroke="none" fill="black" fill-rule="evenodd"/>
</svg>