<svg xmlns="http://www.w3.org/2000/svg" width="300" height="300" viewBox="0 0 300 300" version="1.1">
	<path d="M 201.500 59.992 C 198.200 60.411, 194.825 61.021, 194 61.348 C 193.175 61.676, 188 62.405, 182.500 62.968 C 177 63.531, 170.700 64.624, 168.500 65.396 C 165.085 66.595, 164.453 67.272, 164.177 70.025 L 163.855 73.249 171.512 72.531 L 179.170 71.813 177.912 74.157 C 176.162 77.416, 174.122 87.677, 174.699 90.315 C 175.723 94.991, 176.247 95.593, 177.038 93 C 177.627 91.071, 177.823 91.680, 177.900 95.668 C 177.955 98.511, 178.272 101.544, 178.604 102.410 C 178.989 103.413, 178.535 104.200, 177.354 104.582 C 176.334 104.912, 174.600 105.566, 173.500 106.036 C 172.400 106.506, 166.150 108.058, 159.611 109.485 C 147.784 112.065, 147.712 112.068, 145.882 110.104 C 142.260 106.216, 132.888 106.219, 119.861 110.113 C 112.274 112.381, 108.965 115.151, 110.669 117.809 C 112.030 119.931, 114.909 119.757, 122.405 117.096 C 125.840 115.877, 130.766 115, 134.180 115 C 139.659 115, 140.120 115.183, 141.112 117.750 C 142.933 122.461, 141.730 130.300, 138.680 133.589 C 137.206 135.179, 136 136.815, 136 137.226 C 136 139.762, 114.359 148.958, 111.927 147.455 C 111.417 147.140, 111 146.066, 111 145.069 C 111 144.071, 109.932 139.935, 108.626 135.878 C 104.584 123.314, 103.692 118.443, 104.990 116.019 C 105.850 114.413, 105.852 113.527, 105 112.500 C 103.664 110.890, 104.694 108.492, 108.010 105.491 C 109.217 104.399, 110.845 102.266, 111.628 100.752 C 112.411 99.239, 113.708 98, 114.511 98 C 115.315 98, 117.186 96.164, 118.671 93.921 C 120.506 91.148, 123.245 88.896, 127.223 86.888 C 130.759 85.102, 133.424 83.014, 133.958 81.610 C 134.870 79.213, 138.729 78.035, 145.750 78.011 C 148.540 78.002, 149 77.649, 149 75.519 C 149 71.544, 144.343 70.857, 130.500 72.791 C 113.278 75.197, 101.921 76.048, 95.621 75.402 C 90.051 74.832, 88.945 74.979, 88.414 76.364 C 88.069 77.264, 88.069 78.736, 88.414 79.636 C 88.981 81.115, 89.241 81.092, 91.120 79.391 C 93.168 77.538, 93.231 77.552, 95.505 80.404 L 97.812 83.297 108.413 82.756 C 114.244 82.458, 119.260 82.612, 119.561 83.098 C 119.861 83.584, 118.533 84.732, 116.609 85.650 C 113.960 86.913, 111.220 90.219, 105.324 99.270 C 100.179 107.168, 96.174 112.168, 93.519 114.011 C 91.308 115.545, 88.327 118.083, 86.893 119.650 C 83.224 123.661, 68 146.954, 68 148.556 C 68 150.656, 69.542 151.060, 71.603 149.500 C 72.646 148.710, 74.336 148.049, 75.358 148.032 C 76.808 148.007, 77.086 147.480, 76.623 145.636 C 76.227 144.058, 76.690 142.510, 78.015 140.983 C 79.107 139.724, 80 138.301, 80 137.822 C 80 137.342, 82.700 134.047, 86 130.500 C 89.300 126.953, 92 123.364, 92 122.525 C 92 120.429, 95.662 120.596, 96.932 122.750 C 97.834 124.280, 98.095 124.311, 99.012 123 C 99.819 121.845, 99.924 122.093, 99.466 124.074 C 99.074 125.770, 99.402 127.088, 100.426 127.939 C 101.385 128.735, 101.765 130.087, 101.418 131.471 C 101.084 132.802, 101.469 134.327, 102.368 135.225 C 103.240 136.098, 103.647 137.636, 103.327 138.857 C 102.961 140.256, 103.321 141.186, 104.387 141.595 C 105.405 141.986, 106 143.391, 106 145.407 C 106 147.163, 106.451 149.051, 107.003 149.603 C 107.554 150.154, 108.185 152.607, 108.403 155.053 C 108.622 157.499, 108.846 159.838, 108.901 160.250 C 108.955 160.662, 109.891 161, 110.981 161 C 112.312 161, 113.183 160.098, 113.635 158.250 C 114.429 155.004, 115.636 154.036, 118.914 154.015 C 122.383 153.993, 134.912 147.733, 138.857 144.050 C 141.547 141.540, 142.128 140.328, 141.781 137.958 C 141.444 135.663, 141.730 135, 143.059 135 C 145.157 135, 147.598 130.056, 148.490 124 L 149.153 119.500 159.300 117.274 C 165.273 115.964, 169.816 115.416, 170.343 115.943 C 170.870 116.470, 170.801 118.826, 170.176 121.669 C 169.592 124.326, 168.834 128.655, 168.490 131.288 C 168.147 133.922, 167.231 137.596, 166.455 139.453 C 165.679 141.310, 164.111 147.139, 162.970 152.407 C 161.828 157.674, 159.995 164.018, 158.895 166.504 C 157.796 168.989, 157.192 171.502, 157.554 172.087 C 158.556 173.708, 163 169.043, 163 166.370 C 163 165.115, 164.339 158.781, 165.976 152.294 C 167.613 145.807, 169.364 138.025, 169.868 135 C 171.291 126.462, 174.195 116, 175.144 116 C 176.242 116, 176.228 117.270, 175.097 120.245 C 174.600 121.551, 173.694 126.730, 173.084 131.752 C 172.473 136.774, 171.695 142.372, 171.354 144.192 C 170.948 146.366, 171.073 147.157, 171.719 146.500 C 172.951 145.248, 175.458 135.693, 176.968 126.500 C 178.755 115.615, 178.843 115.340, 181.564 112.106 C 185.168 107.823, 195.212 104.990, 200.144 106.865 C 202.662 107.822, 202.711 108.043, 203.410 121.510 C 203.800 129.030, 204.574 136.379, 205.130 137.841 C 205.686 139.304, 206.359 142.750, 206.626 145.500 C 207.682 156.385, 208.544 161.069, 209.500 161.109 C 211.652 161.199, 212.374 154.773, 211.129 146.614 C 210.448 142.151, 209.445 135.575, 208.901 132 C 207.002 119.515, 206.199 107.529, 207.142 105.750 C 207.809 104.493, 209.298 104, 212.424 104 C 217.508 104, 221.483 101.423, 220.471 98.785 C 219.966 97.469, 218.323 97.021, 213.160 96.794 L 206.500 96.500 206 85.829 C 205.725 79.959, 205.275 74.995, 205 74.796 C 204.725 74.597, 203.770 73.879, 202.877 73.200 C 200.421 71.332, 198 72.775, 198 76.107 C 198 79.427, 198.608 79.664, 201.171 77.345 C 202.886 75.793, 203 75.817, 203 77.720 C 203 81.208, 201.788 86, 200.906 86 C 200.442 86, 200.304 85.371, 200.600 84.601 C 200.895 83.832, 200.604 82.873, 199.952 82.471 C 199.068 81.924, 198.866 83.674, 199.155 89.393 L 199.541 97.046 195.521 98.049 C 193.309 98.600, 190.022 99.715, 188.216 100.526 C 181.205 103.673, 181.497 105.045, 183.205 77 C 183.288 75.625, 183.036 73.798, 182.644 72.940 C 181.905 71.322, 184.480 70.647, 202 67.870 C 205.575 67.304, 210.750 66.309, 213.500 65.661 C 217.846 64.636, 218.500 64.157, 218.500 61.991 C 218.500 59.655, 218.159 59.492, 213 59.366 C 209.975 59.292, 204.800 59.574, 201.500 59.992 M 178.250 66.706 C 177.012 66.944, 176 67.567, 176 68.089 C 176 69.028, 180.746 68.588, 181.781 67.553 C 182.075 67.258, 182.920 67.519, 183.658 68.131 C 184.502 68.831, 185 68.868, 185 68.229 C 185 67.236, 182.493 65.866, 181.168 66.136 C 180.801 66.211, 179.488 66.467, 178.250 66.706 M 114.211 78.538 C 113.151 79.739, 113.174 80, 114.338 80 C 115.117 80, 116.315 79.325, 117 78.500 C 118.710 76.440, 116.029 76.477, 114.211 78.538 M 99.813 80.683 C 100.534 80.972, 101.397 80.936, 101.729 80.604 C 102.061 80.272, 101.471 80.036, 100.417 80.079 C 99.252 80.127, 99.015 80.364, 99.813 80.683 M 104.500 81 C 103.718 82.266, 105.042 82.266, 107 81 C 108.293 80.165, 108.266 80.029, 106.809 80.015 C 105.879 80.007, 104.840 80.450, 104.500 81 M 201 94 C 201 94.550, 201.450 95, 202 95 C 202.550 95, 203 94.550, 203 94 C 203 93.450, 202.550 93, 202 93 C 201.450 93, 201 93.450, 201 94 M 168.158 158 C 168.158 159.375, 168.385 159.938, 168.662 159.250 C 168.940 158.563, 168.940 157.438, 168.662 156.750 C 168.385 156.063, 168.158 156.625, 168.158 158 M 175.864 169.250 C 175.522 169.882, 175.419 178, 175.753 178 C 175.961 178, 177.002 177.534, 178.066 176.965 C 180.228 175.808, 180.637 172.037, 178.800 170.200 C 177.709 169.109, 176.205 168.622, 175.864 169.250 M 165.500 172.581 C 163.300 173.884, 159.040 176.104, 156.034 177.515 C 153.028 178.926, 150.328 180.463, 150.034 180.931 C 149.740 181.398, 146.659 183.443, 143.186 185.476 C 139.713 187.508, 136.616 189.838, 136.303 190.653 C 134.707 194.812, 141.244 194.681, 147.511 190.428 C 152.776 186.855, 153.833 187.209, 153.833 192.547 C 153.833 195.048, 154.360 197.728, 155.003 198.503 C 157.759 201.824, 154.589 202.645, 133.534 204.061 C 117.542 205.137, 112.500 206.694, 112.500 210.556 C 112.500 212.213, 113.311 212.540, 118 212.768 C 125.942 213.155, 156.303 210.963, 157.592 209.910 C 159.384 208.445, 160 210.014, 160 216.045 C 160 221.348, 159.803 221.835, 157.250 222.838 C 155.738 223.433, 153.375 223.904, 152 223.886 C 148.573 223.841, 133.846 225.707, 132 226.420 C 131.175 226.738, 122.906 228.114, 113.624 229.477 C 99.144 231.604, 96.261 232.327, 93.321 234.569 C 88.579 238.185, 89.475 239.515, 96.589 239.424 C 102.682 239.346, 124.337 236.398, 127 235.284 C 127.825 234.939, 129.400 234.584, 130.500 234.494 C 131.600 234.405, 134.975 233.831, 138 233.220 C 141.025 232.609, 146.491 231.863, 150.147 231.564 C 157.360 230.972, 157.894 231.326, 158.100 236.832 C 158.195 239.385, 158.227 239.401, 158.850 237.191 C 159.207 235.921, 159.950 234.796, 160.500 234.691 C 162.987 234.216, 163.732 280.927, 161.250 281.752 C 160.345 282.052, 159.969 280.418, 159.888 275.833 L 159.776 269.500 158.571 275 C 157.713 278.922, 156.956 280.391, 155.934 280.122 C 155.145 279.914, 151.800 279.063, 148.500 278.232 C 141.045 276.355, 133.007 273.226, 130.921 271.390 C 128.743 269.472, 127 269.650, 127 271.792 C 127 273.594, 134.800 282, 136.472 282 C 136.965 282, 139.339 282.954, 141.747 284.119 C 144.154 285.285, 147.559 286.605, 149.312 287.052 C 151.066 287.499, 153.512 288.173, 154.750 288.549 C 156.438 289.062, 157 288.829, 157 287.617 C 157 285.173, 159.683 285.680, 160.355 288.250 L 160.944 290.500 163.031 288.413 C 166.295 285.150, 167.327 274.500, 166.638 251.191 L 166.038 230.882 169.470 229.448 C 171.357 228.659, 173.936 228.027, 175.201 228.043 C 178.291 228.081, 198.923 226.067, 201.750 225.452 C 203.347 225.104, 204 224.242, 204 222.481 C 204 221.116, 203.438 219.972, 202.750 219.938 C 202.063 219.904, 198.125 219.659, 194 219.394 C 189.866 219.128, 181.787 219.578, 176 220.397 C 170.225 221.214, 165.215 221.571, 164.867 221.191 C 164.519 220.811, 164.016 218.062, 163.748 215.081 C 163.321 210.326, 163.551 209.394, 165.626 207.471 C 168.165 205.118, 175.973 203.633, 190.483 202.744 C 193.513 202.558, 194.556 202.037, 194.842 200.566 C 195.869 195.278, 185.263 194.565, 165.250 198.576 L 162 199.227 162 192.112 L 162 184.997 166.887 181.486 C 171.490 178.179, 172.954 175.842, 172.986 171.750 C 173.005 169.390, 170.402 169.679, 165.500 172.581 M 180.244 223.664 C 179.553 223.943, 179.216 224.540, 179.495 224.992 C 180.134 226.025, 184 225.074, 184 223.883 C 184 222.938, 182.292 222.838, 180.244 223.664 M 159.079 228.583 C 159.127 229.748, 159.364 229.985, 159.683 229.188 C 159.972 228.466, 159.936 227.603, 159.604 227.271 C 159.272 226.939, 159.036 227.529, 159.079 228.583 M 143.813 229.683 C 144.534 229.972, 145.397 229.936, 145.729 229.604 C 146.061 229.272, 145.471 229.036, 144.417 229.079 C 143.252 229.127, 143.015 229.364, 143.813 229.683 M 150.813 229.683 C 151.534 229.972, 152.397 229.936, 152.729 229.604 C 153.061 229.272, 152.471 229.036, 151.417 229.079 C 150.252 229.127, 150.015 229.364, 150.813 229.683 M 127 232 C 127 232.550, 127.675 233, 128.500 233 C 129.325 233, 130 232.550, 130 232 C 130 231.450, 129.325 231, 128.500 231 C 127.675 231, 127 231.450, 127 232 M 158.766 257.750 C 158.527 260.363, 158.693 263.175, 159.135 264 C 159.617 264.899, 159.951 262.996, 159.970 259.250 C 160.006 251.846, 159.379 251.065, 158.766 257.750" stroke="none" fill="black" fill-rule="evenodd"/>
</svg>