<svg xmlns="http://www.w3.org/2000/svg" width="300" height="300" viewBox="0 0 300 300" version="1.1">
	<path d="M 165.500 52.530 C 162.200 53.259, 152.975 54.599, 145 55.509 C 126.823 57.581, 126 57.748, 126 59.359 C 126 60.085, 124.858 61.199, 123.462 61.835 C 121.316 62.813, 121.090 63.300, 121.998 64.996 C 123.273 67.379, 124.194 67.468, 127.876 65.564 C 132.070 63.396, 167.174 57.057, 175.191 57.021 C 180.745 56.996, 182.215 55.402, 179.048 52.838 C 176.445 50.730, 173.910 50.673, 165.500 52.530 M 83.343 61.250 C 82.917 61.938, 82.520 76.129, 82.461 92.788 C 82.344 125.710, 82.376 125.520, 76.682 126.553 C 75.207 126.820, 67.814 127.216, 60.251 127.432 C 52.688 127.649, 46.163 127.865, 45.750 127.913 C 44.383 128.072, 44.973 130.258, 46.750 131.623 C 48.384 132.878, 48.351 133.009, 46.250 133.600 C 45.013 133.948, 44 134.631, 44 135.117 C 44 136.305, 48.249 136.236, 51.516 134.994 C 54.716 133.777, 54.273 131.407, 50.907 131.734 C 48.705 131.947, 48.670 131.889, 50.500 131.054 C 53.178 129.831, 55.256 129.777, 54.531 130.950 C 53.909 131.957, 57.890 134.602, 59.377 134.170 C 59.860 134.030, 62.560 133.759, 65.377 133.569 C 68.195 133.379, 72.638 132.887, 75.250 132.476 C 80.825 131.598, 80.473 130.516, 80.043 147.237 C 79.808 156.367, 80.008 158.066, 81.383 158.594 C 82.272 158.935, 82.993 160.178, 82.985 161.357 C 82.972 163.107, 82.792 163.225, 82 162 C 81.148 160.682, 81.029 160.691, 81.015 162.068 C 81.007 162.931, 80.319 165.929, 79.487 168.731 C 78.053 173.561, 77.569 174.063, 70.149 178.412 C 65.846 180.936, 61.914 183.015, 61.412 183.033 C 59.834 183.091, 56 186.758, 56 188.210 C 56 189.960, 54.008 192, 52.300 192 C 51.585 192, 51 191.325, 51 190.500 C 51 188.605, 51.164 188.580, 45.914 191.250 C 32.450 198.095, 31.771 202.562, 44.142 202.900 C 47.118 202.982, 47.892 202.589, 48.381 200.750 C 48.766 199.300, 53.649 195.299, 62.109 189.500 C 76.737 179.474, 78.692 178.358, 79.759 179.426 C 80.166 179.833, 80.642 191.716, 80.816 205.833 C 80.989 219.950, 81.215 234.867, 81.316 238.982 C 81.556 248.750, 79.929 249.336, 72.617 242.115 C 66.582 236.155, 63.827 230.965, 57.567 213.760 C 55.998 209.448, 54.408 207.239, 53.529 208.150 C 53.016 208.683, 59.383 230.967, 61.308 235.372 C 62.239 237.502, 63 239.478, 63 239.764 C 63 240.050, 65.093 242.735, 67.652 245.730 C 71.540 250.281, 72.727 251.094, 74.881 250.682 C 76.489 250.375, 78.483 250.920, 80.184 252.131 C 82.453 253.746, 83.242 253.866, 84.884 252.840 C 89.329 250.065, 90.263 244.948, 88.874 231 C 88.354 225.775, 87.942 211.061, 87.958 198.302 L 87.988 175.103 90.524 172.567 C 91.919 171.172, 95.184 168.846, 97.780 167.398 C 100.376 165.950, 104.143 163.466, 106.150 161.878 C 108.158 160.289, 111.212 158.708, 112.936 158.363 C 114.826 157.985, 117.250 156.306, 119.036 154.140 C 121.755 150.842, 123.046 147.360, 121.250 148.172 C 118.280 149.515, 108.615 155.237, 103.133 158.898 C 98.866 161.748, 95.086 163.461, 92.397 163.765 L 88.246 164.232 87.748 160.366 C 86.961 154.263, 88.977 131.944, 90.598 128.810 C 91.431 127.200, 92.877 126, 93.985 126 C 95.048 126, 97.954 124.770, 100.443 123.267 C 104.865 120.596, 107 117.163, 107 112.723 C 107 111.078, 106.233 111.452, 102.440 114.949 C 98.069 118.978, 91.336 122.669, 90.282 121.615 C 90.006 121.339, 90.209 111.750, 90.734 100.306 C 92.046 71.686, 91.040 62.381, 86.446 60.618 C 84.301 59.795, 84.237 59.808, 83.343 61.250 M 149.362 65.500 C 149.009 66.418, 147.493 67, 145.452 67 C 143.618 67, 141.772 67.560, 141.348 68.246 C 140.925 68.931, 140.489 79.168, 140.379 90.996 C 140.270 102.823, 139.645 115.200, 138.990 118.500 C 135.607 135.549, 134.219 146.708, 133.579 162 C 133.291 168.875, 132.756 179.920, 132.390 186.545 L 131.725 198.590 134.939 201.295 C 136.707 202.783, 137.664 204, 137.066 204 C 136.468 204, 134.071 204.882, 131.739 205.960 C 126.858 208.218, 110.674 213, 107.915 213 C 106.891 213, 103.998 213.999, 101.486 215.219 C 98.013 216.907, 96.988 217.925, 97.209 219.469 C 97.625 222.376, 104.771 222.668, 110.017 219.992 C 112.164 218.896, 114.656 218, 115.556 218 C 116.455 218, 118.386 217.365, 119.846 216.590 C 125.231 213.728, 143.954 206.009, 145.523 206.003 C 146.085 206.002, 148.937 204.425, 151.860 202.500 C 154.783 200.575, 157.662 199, 158.259 199 C 158.855 199, 160.156 198.264, 161.150 197.364 C 162.827 195.847, 163.006 195.853, 163.621 197.454 C 163.985 198.404, 163.686 205.328, 162.956 212.840 C 161.368 229.181, 161.369 255.953, 162.958 258.921 C 164.175 261.196, 167.818 261.744, 168.474 259.750 C 168.700 259.063, 169.111 249.489, 169.388 238.477 C 169.664 227.464, 170.339 216.439, 170.887 213.977 C 171.435 211.514, 172.387 199.825, 173.002 188 C 175.212 145.489, 175.873 135.408, 176.836 129.500 C 177.373 126.200, 178.084 113.394, 178.415 101.041 C 178.754 88.402, 179.451 78.149, 180.009 77.591 C 181.634 75.966, 181.229 68.025, 179.487 67.357 C 177.140 66.456, 175.287 68.650, 173.614 74.311 C 170.230 85.763, 168.564 115.326, 171.250 116.275 C 173.443 117.050, 169.173 123.702, 165.631 125.029 C 163.909 125.674, 161.600 126.577, 160.500 127.035 C 159.400 127.493, 156.700 128.441, 154.500 129.142 C 152.300 129.844, 149.938 130.828, 149.250 131.331 C 147.788 132.400, 147.574 136.619, 148.939 137.463 C 149.912 138.064, 159.946 133.552, 164.088 130.651 C 165.384 129.743, 167.486 129, 168.758 129 C 170.649 129, 170.900 129.319, 170.139 130.750 C 169.626 131.713, 168.665 136.100, 168.004 140.500 C 167.342 144.900, 166.465 149.165, 166.055 149.979 C 165.153 151.766, 160.835 152.905, 151.510 153.817 C 145.772 154.378, 144.457 154.837, 144.162 156.380 C 143.653 159.049, 145.678 159.967, 152.115 159.985 C 156.233 159.996, 158.408 159.467, 160.273 158 C 163.399 155.541, 164.857 155.530, 167.750 157.944 C 170.296 160.068, 170.686 161.201, 168.595 160.398 C 166.779 159.701, 166.284 162.191, 165.012 178.398 C 164.058 190.547, 163.115 194, 160.750 194 C 159.768 194, 149.290 198.727, 143.681 201.700 C 142.130 202.522, 140.745 203.039, 140.603 202.847 C 139.257 201.035, 137.996 195.826, 138.438 193.904 C 138.743 192.582, 139.674 182.725, 140.509 172 C 141.343 161.275, 142.695 147.325, 143.513 141 C 146.720 116.203, 149 94.203, 149.006 88.001 C 149.011 81.226, 150.125 75.700, 152.564 70.349 C 153.354 68.616, 154 66.478, 154 65.599 C 154 63.554, 150.140 63.472, 149.362 65.500 M 245.504 88.737 C 244.407 89.014, 242.434 90.087, 241.120 91.121 C 239.805 92.154, 237.230 93, 235.396 93 C 231.869 93, 225.046 96.274, 223.700 98.611 C 223.260 99.375, 221.434 100, 219.641 100 C 217.849 100, 215.509 100.661, 214.441 101.468 C 213.374 102.276, 211.670 102.951, 210.656 102.968 C 209.642 102.986, 208.566 103.942, 208.265 105.093 C 207.833 106.747, 207.114 107.097, 204.840 106.763 C 198.816 105.879, 198.846 111.149, 204.880 113.577 C 208.038 114.848, 208.927 116.034, 211.843 122.878 C 213.682 127.192, 216.212 131.828, 217.467 133.181 C 218.721 134.533, 220.705 137.806, 221.876 140.453 C 223.637 144.433, 223.832 145.909, 223.007 148.976 C 222.457 151.016, 221.106 153.725, 220.004 154.996 C 218.902 156.266, 218 157.872, 218 158.563 C 218 159.255, 216.114 162.206, 213.809 165.122 C 208.931 171.293, 206.935 176.320, 207.740 180.405 C 208.148 182.479, 207.976 183.103, 207.140 182.586 C 206.495 182.188, 206.226 181.443, 206.543 180.931 C 207.408 179.531, 205.394 179.812, 204.255 181.250 C 203.710 181.938, 202.468 184.942, 201.493 187.927 C 200.519 190.911, 198.660 194.338, 197.361 195.541 C 196.062 196.745, 195 198.214, 195 198.806 C 195 201.207, 197.123 200.875, 201.597 197.772 C 205.730 194.905, 206.988 193.079, 211.763 183.010 C 214.761 176.691, 218.403 170.086, 219.857 168.333 C 223.169 164.338, 227 158.183, 227 156.857 C 227 156.305, 227.780 156.004, 228.733 156.187 C 229.686 156.371, 232.176 159.649, 234.266 163.471 C 236.355 167.294, 238.392 170.665, 238.792 170.961 C 239.192 171.257, 240.691 173.300, 242.124 175.500 C 243.557 177.700, 245.812 180.625, 247.136 182 C 248.459 183.375, 251.303 186.750, 253.455 189.500 C 255.606 192.250, 258.995 196.075, 260.985 198 C 262.975 199.925, 267.280 204.650, 270.551 208.500 C 273.823 212.350, 276.958 215.801, 277.517 216.169 C 278.076 216.537, 279.787 218, 281.318 219.419 C 287.720 225.353, 288.816 219.141, 282.567 212.339 C 281.980 211.701, 279.025 207.927, 276 203.954 C 272.975 199.981, 268.989 195.103, 267.141 193.115 C 265.294 191.127, 262.185 187.095, 260.231 184.156 C 258.278 181.216, 254.502 176.428, 251.840 173.516 C 249.178 170.603, 247 167.954, 247 167.629 C 247 167.305, 245.425 164.577, 243.500 161.567 C 241.575 158.558, 239.990 155.737, 239.978 155.298 C 239.966 154.859, 239.076 153.375, 238 152 C 234.852 147.976, 235.487 143.360, 240.485 133.948 C 249.407 117.142, 250.980 113.334, 253.131 103.317 C 255.197 93.696, 255.225 92.992, 253.636 90.567 C 251.987 88.051, 249.992 87.602, 245.504 88.737 M 238.627 97.794 C 238.318 98.294, 235.913 99.486, 233.283 100.443 C 230.652 101.400, 225.962 103.492, 222.860 105.091 C 219.758 106.691, 216.551 108, 215.732 108 C 214.914 108, 213.669 108.693, 212.966 109.541 C 211.891 110.836, 212.191 111.602, 214.844 114.339 C 216.580 116.130, 218 118.114, 218 118.748 C 218 119.382, 218.589 120.260, 219.309 120.700 C 220.029 121.140, 221.168 122.865, 221.840 124.532 C 222.907 127.179, 224.459 129.385, 229.070 134.804 C 230.531 136.521, 232.424 135.818, 232.802 133.417 C 233.186 130.973, 234.713 127.761, 238.443 121.551 C 240.302 118.457, 241.918 113.772, 242.754 109.051 C 244.826 97.360, 244.839 97.539, 241.844 97.193 C 240.384 97.024, 238.936 97.294, 238.627 97.794 M 139.583 123.866 C 139.152 124.563, 139.070 125.403, 139.400 125.733 C 140.295 126.628, 141.271 125.312, 140.787 123.862 C 140.449 122.846, 140.213 122.846, 139.583 123.866 M 66.813 130.683 C 67.534 130.972, 68.397 130.936, 68.729 130.604 C 69.061 130.272, 68.471 130.036, 67.417 130.079 C 66.252 130.127, 66.015 130.364, 66.813 130.683 M 135 151.441 C 135 152.298, 135.450 153, 136 153 C 136.550 153, 137 152.577, 137 152.059 C 137 151.541, 136.550 150.840, 136 150.500 C 135.450 150.160, 135 150.584, 135 151.441 M 230 152.452 C 230 153.764, 233.194 157.861, 234.655 158.421 C 235.916 158.905, 235.858 158.442, 234.336 155.835 C 232.663 152.971, 230 150.893, 230 152.452 M 222.624 155.539 C 221.659 158.053, 221.943 158.702, 223.122 156.675 C 223.706 155.671, 223.973 154.639, 223.715 154.382 C 223.458 154.124, 222.966 154.645, 222.624 155.539 M 246 175.697 C 246 177.379, 250.057 182, 251.533 182 C 252.408 182, 249.229 176.435, 247.566 175.055 C 246.236 173.951, 246 174.048, 246 175.697 M 254.076 184.727 C 254.823 185.702, 255.561 186.688, 255.717 186.917 C 255.873 187.146, 256 186.631, 256 185.774 C 256 184.916, 255.261 183.931, 254.359 183.584 C 252.930 183.036, 252.893 183.184, 254.076 184.727" stroke="none" fill="black" fill-rule="evenodd"/>
</svg>