<svg xmlns="http://www.w3.org/2000/svg" width="300" height="300" viewBox="0 0 300 300" version="1.1">
	<path d="M 188.250 58.723 C 186.463 58.945, 185 59.548, 185 60.063 C 185 60.579, 184.080 61, 182.955 61 C 181.830 61, 179.786 62.123, 178.413 63.496 C 176.044 65.865, 175.792 65.910, 173.466 64.386 C 170.729 62.593, 168 63.133, 168 65.469 C 168 66.311, 167.381 67, 166.625 67 C 165.129 67, 163.723 72.114, 164.594 74.385 C 164.891 75.158, 164.680 79.854, 164.126 84.818 C 162.802 96.680, 163.848 101, 168.047 101 L 171 101 171 90.443 C 171 78.829, 172.457 71, 174.619 71 C 175.378 71, 176 70.550, 176 70 C 176 69.450, 177.050 69, 178.333 69 C 179.617 69, 180.975 68.692, 181.352 68.315 C 182.226 67.440, 189.095 65.035, 190.775 65.015 C 193.353 64.985, 194.164 69.989, 192.428 75.217 C 191.177 78.984, 190.877 82.956, 191.148 92.152 L 191.503 104.167 194.751 107.069 C 198.379 110.310, 198.686 111, 196.500 111 C 195.675 111, 195 110.605, 195 110.121 C 195 109.638, 193.704 108.706, 192.121 108.050 C 188.991 106.753, 181 108.182, 181 110.039 C 181 110.567, 179.194 111, 176.986 111 C 171.638 111, 166.100 114.291, 166.047 117.500 C 166.016 119.406, 167.966 121.547, 168.750 120.467 C 169.162 119.899, 171.975 118.829, 175 118.088 C 178.025 117.348, 180.974 116.368, 181.554 115.911 C 182.134 115.454, 184.578 114.950, 186.986 114.790 C 190.883 114.532, 191.537 114.808, 192.932 117.301 C 194.379 119.887, 194.365 120.180, 192.750 121.101 C 191.787 121.650, 191 122.752, 191 123.550 C 191 124.347, 190.550 125, 190 125 C 189.450 125, 188.998 125.787, 188.996 126.750 C 188.991 129.389, 185.241 135, 183.483 135 C 182.633 135, 181.678 134.325, 181.362 133.500 C 181.045 132.675, 180.226 132, 179.541 132 C 178.857 132, 176.855 130.622, 175.092 128.938 C 171.593 125.594, 168.410 125.352, 166.602 128.294 C 165.671 129.808, 166.263 130.781, 170.402 134.544 C 175.299 138.995, 177 139.886, 177 138 C 177 137.450, 177.900 137, 179 137 C 180.360 137, 181.051 137.719, 181.158 139.250 C 181.466 143.617, 181.026 144.848, 177.973 148.157 C 176.278 149.996, 173.932 153.188, 172.761 155.250 C 171.590 157.313, 170.007 159, 169.243 159 C 168.460 159, 167.998 159.764, 168.185 160.750 C 168.687 163.401, 174.149 163.598, 176.456 161.049 C 177.476 159.922, 178.915 159, 179.655 159 C 180.395 159, 181 158.395, 181 157.655 C 181 156.915, 181.948 155.453, 183.106 154.405 C 184.265 153.357, 186.074 150.813, 187.127 148.750 C 188.179 146.688, 189.414 145, 189.871 145 C 190.887 145, 203.607 154.555, 204.487 155.979 C 205.410 157.472, 207 157.225, 207 155.589 C 207 154.813, 205.650 153.042, 204 151.653 C 202.350 150.265, 201 148.805, 201 148.409 C 201 148.012, 199.138 145.862, 196.861 143.631 C 192.897 139.745, 192.776 139.446, 193.986 136.537 C 194.681 134.867, 196.133 131.025, 197.212 128 C 198.291 124.975, 199.584 122.350, 200.087 122.167 C 201.334 121.712, 201.251 113, 200 113 C 199.450 113, 199 112.550, 199 112 C 199 110.484, 202.274 110.803, 204.788 112.564 C 206.016 113.424, 207.880 113.855, 208.930 113.522 C 210.642 112.979, 210.441 112.497, 206.990 108.868 C 204.177 105.912, 202.618 104.986, 201.205 105.435 C 199.597 105.945, 199.172 105.447, 198.691 102.486 C 197.887 97.527, 199.119 71, 200.154 71 C 200.619 71, 201 70.100, 201 69 C 201 67.900, 200.550 67, 200 67 C 199.450 67, 199 65.880, 199 64.511 C 199 63.143, 198.225 61.118, 197.278 60.011 C 195.585 58.035, 194.755 57.916, 188.250 58.723 M 123 64.500 C 121.708 65.875, 119.942 67.010, 119.076 67.023 C 118.209 67.036, 115.095 69.491, 112.156 72.479 C 109.216 75.468, 104.829 78.873, 102.406 80.046 C 99.983 81.219, 98 82.577, 98 83.064 C 98 83.550, 96.763 84.609, 95.250 85.416 C 93.737 86.223, 91.269 87.969, 89.764 89.296 C 87.088 91.655, 87.055 91.821, 88.251 96.854 C 88.923 99.684, 89.817 102, 90.237 102 C 90.656 102, 91 105.101, 91 108.892 C 91 116.996, 91.388 116.756, 76.351 117.936 C 67.142 118.659, 65.141 119.513, 63.691 123.340 C 62.825 125.626, 63.741 127.284, 65.319 126.285 C 65.969 125.874, 68.300 125.529, 70.500 125.519 C 73.105 125.507, 74.416 125.074, 74.260 124.280 C 74.128 123.609, 74.986 122.543, 76.166 121.911 C 77.993 120.934, 78.587 121.115, 80.156 123.131 L 82 125.500 83.818 123.166 C 85.143 121.464, 86.429 120.922, 88.568 121.166 L 91.500 121.500 92.061 133.500 C 92.817 149.686, 94.883 154.121, 99.278 148.989 C 101.126 146.830, 101.653 141, 100 141 C 98.278 141, 98.735 122.122, 100.500 120.357 C 101.771 119.086, 102 119.076, 102 120.290 C 102 121.279, 102.774 121.575, 104.500 121.245 C 105.875 120.982, 107 120.192, 107 119.490 C 107 118.041, 109.970 116.609, 110.893 117.613 C 111.227 117.977, 110.938 118.475, 110.250 118.720 C 107.454 119.719, 109.280 121, 113.500 121 C 116.372 121, 118.042 120.548, 118.115 119.750 C 118.179 119.063, 118.291 117.832, 118.365 117.016 C 118.439 116.200, 119.331 115.371, 120.347 115.174 C 121.818 114.889, 122.058 115.241, 121.529 116.908 C 121.081 118.320, 121.293 118.977, 122.183 118.930 C 125.106 118.774, 127.491 117.197, 127.495 115.417 C 127.501 113.018, 130.781 112.327, 132.326 114.401 C 133.861 116.461, 140.704 115.493, 141.334 113.127 C 141.707 111.727, 141.784 111.745, 141.884 113.250 C 141.966 114.483, 142.848 115, 144.871 115 C 147.698 115, 147.753 115.110, 148.502 122.250 C 149.660 133.292, 149.836 153.350, 148.786 154.691 C 148.273 155.345, 147.257 155.652, 146.528 155.372 C 145.799 155.093, 144.895 155.361, 144.520 155.968 C 143.788 157.152, 151.034 165, 152.859 165 C 153.461 165, 154.705 163.853, 155.623 162.452 C 157.083 160.224, 157.197 158.121, 156.531 145.702 C 154.884 114.990, 154.764 117.304, 158.128 114.909 C 162.074 112.099, 161.840 108.343, 157.750 108.822 C 155.022 109.141, 154.999 109.093, 154.822 102.822 C 154.724 99.345, 154.704 93.125, 154.777 89 C 154.925 80.657, 153.560 73.987, 151.711 74.024 C 151.045 74.037, 148.700 74.535, 146.500 75.130 C 144.300 75.725, 137.662 76.502, 131.749 76.856 C 121.981 77.441, 120.997 77.342, 120.999 75.773 C 120.999 74.823, 122.125 73.309, 123.500 72.408 C 124.875 71.507, 126 70.155, 126 69.404 C 126 68.653, 127.125 67.756, 128.500 67.411 C 132.771 66.339, 131.242 62, 126.593 62 C 125.908 62, 124.292 63.125, 123 64.500 M 169 69 C 169 70.100, 169.450 71, 170 71 C 170.550 71, 171 70.100, 171 69 C 171 67.900, 170.550 67, 170 67 C 169.450 67, 169 67.900, 169 69 M 135.587 80.211 C 134.336 80.912, 134.171 81.501, 134.959 82.451 C 135.794 83.456, 135.096 83.889, 131.786 84.418 C 128.537 84.938, 127.279 84.734, 126.412 83.548 C 124.969 81.575, 123 81.547, 123 83.500 C 123 85.229, 123.097 85.198, 116.500 85.546 C 109.476 85.916, 105.433 86.949, 103.319 88.912 C 102.319 89.841, 100.713 90.902, 99.750 91.269 C 98.252 91.841, 98 93.312, 98 101.469 C 98 109.472, 97.748 111, 96.427 111 C 95.465 111, 94.986 111.681, 95.194 112.750 C 95.484 114.243, 96.525 114.461, 102.287 114.232 C 106.002 114.085, 112.211 113.297, 116.086 112.482 C 119.960 111.667, 124.189 111, 125.482 111 C 126.775 111, 128.001 110.496, 128.206 109.881 C 128.438 109.185, 132.156 108.669, 138.040 108.516 L 147.500 108.271 148.048 95.885 C 148.350 89.073, 148.414 83.127, 148.190 82.671 C 147.967 82.215, 145.583 82.145, 142.892 82.515 C 139.792 82.941, 138 82.814, 138 82.167 C 138 81.606, 138.787 80.983, 139.750 80.783 C 141.231 80.475, 141.176 80.330, 139.392 79.840 C 138.233 79.522, 136.520 79.689, 135.587 80.211 M 116.500 83 C 116.840 83.550, 117.991 84, 119.059 84 C 120.127 84, 121 83.550, 121 83 C 121 82.450, 119.848 82, 118.441 82 C 116.990 82, 116.149 82.433, 116.500 83 M 113.018 93.740 C 110.574 94.699, 109 96.731, 109 98.929 C 109 100.918, 110.714 101.497, 115.866 101.249 C 119.290 101.085, 130.484 103.157, 131.722 104.184 C 132.779 105.061, 133.480 104.948, 134.728 103.701 C 136.231 102.198, 136.208 102.018, 134.428 101.349 C 133.367 100.950, 132.050 100.059, 131.500 99.368 C 130.448 98.046, 117.572 92.943, 115.631 93.079 C 115.009 93.122, 113.833 93.420, 113.018 93.740 M 91 95.882 C 91 96.982, 91.450 98.160, 92 98.500 C 92.550 98.840, 93 98.218, 93 97.118 C 93 96.018, 92.550 94.840, 92 94.500 C 91.450 94.160, 91 94.782, 91 95.882 M 112.250 127.173 C 108.474 128.200, 107.812 131, 111.345 131 C 112.635 131, 114.505 131.900, 115.500 133 C 116.495 134.100, 118.175 135, 119.232 135 C 120.289 135, 122.476 136.322, 124.091 137.937 C 127.995 141.841, 131 142.814, 131 140.173 C 131 137.771, 126.272 132.539, 123.230 131.573 C 122.003 131.184, 121 130.543, 121 130.148 C 121 129.754, 119.763 128.724, 118.250 127.860 C 116.210 126.694, 114.661 126.517, 112.250 127.173 M 182.500 148 C 182.160 148.550, 182.359 149, 182.941 149 C 183.523 149, 184 148.550, 184 148 C 184 147.450, 183.802 147, 183.559 147 C 183.316 147, 182.840 147.450, 182.500 148 M 175.750 168.770 C 174.787 168.977, 174 169.564, 174 170.073 C 174 170.583, 173.120 171, 172.044 171 C 170.968 171, 167.798 172.350, 165 174 C 162.202 175.650, 159.261 177, 158.464 177 C 157.668 177, 156.455 177.900, 155.768 179 C 155.081 180.100, 153.534 181, 152.331 181 C 151.127 181, 149.548 181.564, 148.821 182.252 C 148.095 182.941, 144.700 184.854, 141.277 186.502 C 132.535 190.714, 132.752 195.467, 141.547 192.406 C 143.721 191.649, 146.095 191.023, 146.821 191.015 C 147.548 191.007, 148.818 190.325, 149.643 189.500 C 150.468 188.675, 152.069 188, 153.200 188 C 155.144 188, 155.231 188.442, 154.792 196.037 C 154.536 200.457, 153.892 204.508, 153.361 205.039 C 152.830 205.570, 146.119 206.032, 138.448 206.066 C 123.244 206.133, 118.547 206.924, 114.979 210.018 C 111.281 213.226, 113.505 214.172, 122.904 213.388 C 127.929 212.969, 130.621 212.376, 129.817 211.866 C 128.885 211.275, 129.158 211.026, 130.750 211.015 C 131.988 211.007, 133 211.450, 133 212 C 133 212.550, 133.702 213, 134.559 213 C 135.416 213, 135.840 212.550, 135.500 212 C 135.160 211.450, 135.584 211, 136.441 211 C 137.298 211, 138 211.450, 138 212 C 138 213.253, 142.007 213.281, 143.966 212.042 C 144.902 211.450, 145.913 211.513, 146.759 212.215 C 147.727 213.018, 148.397 213.003, 149.242 212.158 C 150.119 211.281, 149.988 211, 148.700 211 C 147.765 211, 147 210.550, 147 210 C 147 208.402, 149.915 208.843, 151.959 210.750 C 153.625 212.305, 154.544 218.325, 154.085 224.681 C 154.029 225.462, 150.858 226.024, 144.750 226.336 C 139.662 226.597, 133.925 227.056, 132 227.357 C 130.075 227.658, 124.112 228.212, 118.750 228.588 C 113.388 228.965, 109 229.661, 109 230.136 C 109 230.611, 107.305 231, 105.234 231 C 100.447 231, 94.500 234.113, 94.500 236.619 C 94.500 238.290, 95.171 238.461, 100.500 238.155 C 103.800 237.966, 106.927 237.403, 107.450 236.905 C 107.973 236.407, 109.383 236, 110.583 236 C 111.926 236, 112.968 235.230, 113.290 234 C 113.895 231.685, 117 231.267, 117 233.500 C 117 234.333, 117.889 235, 119 235 C 120.100 235, 121 234.573, 121 234.052 C 121 233.487, 122.273 233.548, 124.153 234.203 C 126.776 235.118, 127.509 235.025, 128.513 233.651 C 129.844 231.831, 132 231.428, 132 233 C 132 234.572, 134.722 234.167, 135.362 232.500 C 136.076 230.639, 144.030 230.430, 145.825 232.225 C 146.792 233.192, 147.464 233.192, 149.011 232.225 C 152.371 230.127, 154 230.711, 154 234.014 C 154 235.671, 154.407 237.809, 154.904 238.764 C 157.386 243.534, 158.356 269.162, 156.417 278.750 C 155.998 280.824, 153 282.064, 153 280.164 C 153 279.328, 140.671 276, 137.574 276 C 136.672 276, 133.713 274.875, 131 273.500 C 125.429 270.677, 123 270.346, 123 272.411 C 123 273.602, 125.172 275.739, 130.500 279.791 C 131.050 280.209, 133.525 281.183, 136 281.956 C 138.475 282.728, 140.950 283.672, 141.500 284.054 C 143.649 285.544, 155.173 289.139, 158.066 289.221 C 164.065 289.392, 164.294 288.457, 164.081 264.627 C 163.975 252.787, 163.477 241.662, 162.973 239.906 C 162.272 237.462, 162.453 236.042, 163.744 233.856 C 164.672 232.285, 166.009 231, 166.716 231 C 167.422 231, 168 230.550, 168 230 C 168 229.450, 168.675 229, 169.500 229 C 170.325 229, 171 229.450, 171 230 C 171 231.487, 180.731 231.252, 181.341 229.750 C 181.723 228.806, 182.130 228.867, 183 230 C 183.870 231.133, 184.277 231.194, 184.659 230.250 C 185.236 228.830, 187.663 228.560, 188.167 229.861 C 188.619 231.029, 210.888 231.990, 211.579 230.872 C 211.882 230.382, 211.871 229.169, 211.556 228.176 C 210.659 225.351, 190.187 223.393, 178.316 224.998 C 173.467 225.653, 167.925 226.035, 166 225.845 L 162.500 225.500 162.467 220 C 162.416 211.539, 162.689 211, 167.033 211 C 169.123 211, 171.002 210.493, 171.209 209.873 C 171.559 208.823, 179.573 206.684, 188.250 205.324 C 191.036 204.888, 192 204.256, 192 202.868 C 192 201.212, 191.177 201.005, 184.750 201.040 C 180.762 201.062, 174.214 201.656, 170.198 202.360 C 166.182 203.065, 162.693 203.312, 162.444 202.910 C 162.196 202.507, 162.083 199.776, 162.194 196.839 C 162.521 188.176, 166.565 181.117, 171.250 181.032 C 172.213 181.014, 173 180.622, 173 180.161 C 173 179.699, 174.795 178.462, 176.989 177.411 C 180.910 175.532, 182.386 173, 179.559 173 C 178.766 173, 177.818 172.514, 177.451 171.920 C 177.002 171.194, 178.208 170.949, 181.142 171.170 C 184.496 171.424, 185.500 171.154, 185.500 170 C 185.500 168.522, 180.079 167.839, 175.750 168.770 M 158.524 239.189 C 158.144 240.118, 158.253 241.630, 158.767 242.549 C 160.033 244.811, 161.024 242.298, 159.969 239.500 C 159.296 237.715, 159.140 237.681, 158.524 239.189" stroke="none" fill="black" fill-rule="evenodd"/>
</svg>