<svg xmlns="http://www.w3.org/2000/svg" width="300" height="300" viewBox="0 0 300 300" version="1.1">
	<path d="M 206.500 13.882 L 203.500 14.500 205.552 16.500 C 208.351 19.227, 215.291 19.308, 215.824 16.620 C 216.471 13.354, 213.415 12.456, 206.500 13.882 M 179.503 14.787 C 177.855 15.003, 176.174 15.702, 175.769 16.340 C 174.347 18.574, 175.011 21.935, 177.093 23.050 C 179.556 24.368, 184.398 23.453, 183.411 21.856 C 182.938 21.091, 184.805 20.978, 189.749 21.475 L 196.757 22.179 196.285 19.708 C 195.639 16.331, 191.558 14.171, 188.927 15.814 C 187.380 16.780, 186.515 16.759, 184.739 15.712 C 183.507 14.987, 181.151 14.570, 179.503 14.787 M 233.500 44.536 C 231.622 45.396, 226.770 45.927, 220.527 45.955 C 211.750 45.995, 210.791 46.166, 212.528 47.382 C 214.515 48.774, 221.723 48.907, 223.852 47.591 C 224.520 47.179, 225 47.506, 225 48.375 C 225 49.259, 223.880 49.996, 222.250 50.184 C 220.693 50.363, 219.500 51.115, 219.500 51.917 C 219.500 53.909, 221.509 54.348, 223.144 52.714 C 223.900 51.957, 226.546 51.060, 229.024 50.720 C 237.032 49.623, 241.468 47.726, 241.820 45.249 C 242.088 43.359, 241.690 43.013, 239.320 43.081 C 237.769 43.126, 235.150 43.781, 233.500 44.536 M 172.439 45.925 C 158.669 46.853, 153.931 49.841, 150.190 59.955 C 149.290 62.389, 148.859 69.421, 148.816 82.393 C 148.776 94.523, 148.273 103.292, 147.412 106.893 C 145.677 114.148, 145.665 114, 148 114 C 149.216 114, 150 113.333, 150 112.300 C 150 111.096, 150.311 110.911, 151.066 111.666 C 151.801 112.401, 151.841 115.179, 151.195 120.616 C 150.147 129.441, 150.221 134.628, 151.434 137.298 C 152.441 139.513, 151.521 147.060, 150.141 147.913 C 149.585 148.256, 148.811 150.945, 148.421 153.886 C 147.894 157.853, 147.476 158.815, 146.801 157.610 C 146.301 156.716, 146.174 155.425, 146.520 154.742 C 146.866 154.059, 146.458 154.348, 145.615 155.385 C 144.002 157.369, 142.338 165.672, 143.352 166.685 C 143.677 167.011, 144.479 165.977, 145.134 164.389 L 146.324 161.500 147.264 165.560 C 147.958 168.558, 147.824 170.744, 146.749 173.922 L 145.295 178.225 144.563 174.862 C 143.920 171.910, 143.728 171.744, 142.986 173.500 C 142.521 174.600, 142.109 178.993, 142.070 183.263 C 142.030 187.738, 141.153 194.082, 140 198.243 C 137.817 206.119, 137.431 210.470, 139 209.500 C 139.625 209.114, 140 211.156, 140 214.941 C 140 221.311, 139.531 222.109, 137.456 219.271 C 136.355 217.765, 136.099 218.186, 135.475 222.521 C 135.080 225.259, 133.497 232.547, 131.956 238.716 C 128.820 251.271, 129.068 254.616, 133.313 257 C 137.681 259.454, 139.572 257.473, 139.184 250.850 C 139.002 247.737, 139.534 243.498, 140.443 240.821 C 142.569 234.558, 143.943 227.271, 145.029 216.500 C 145.528 211.550, 146.800 205.025, 147.855 202 C 148.911 198.975, 150.046 193.575, 150.378 190 C 150.710 186.425, 151.728 176.300, 152.641 167.500 C 153.554 158.700, 154.346 150.199, 154.401 148.610 C 154.455 147.020, 155.175 145.403, 156 145.015 C 156.825 144.628, 158.552 143.763, 159.837 143.092 C 161.983 141.974, 162.120 142.046, 161.508 143.976 C 160.908 145.864, 161.128 146.009, 163.670 145.401 C 167.860 144.398, 168.299 143.939, 166.400 142.551 C 164.794 141.376, 164.790 141.138, 166.340 138.924 C 168.589 135.714, 168.436 135, 165.500 135 C 164.125 135, 163 135.450, 163 136 C 163 136.550, 162.325 137, 161.500 137 C 160.675 137, 160 137.450, 160 138 C 160 138.550, 159.250 139, 158.333 139 C 157.058 139, 157.352 138.302, 159.583 136.028 C 161.188 134.393, 163.140 133.043, 163.921 133.028 C 164.703 133.012, 166.099 132.315, 167.024 131.478 C 169.991 128.793, 191.347 124.947, 193.169 126.769 C 193.807 127.407, 195.450 127.418, 197.827 126.802 C 205.332 124.855, 210.541 124.243, 212.192 125.115 C 213.197 125.646, 216.648 125.609, 220.692 125.024 C 230.642 123.585, 232.524 123.664, 231.036 125.456 C 228.933 127.990, 230.831 128.934, 237.208 128.527 C 242.523 128.187, 243.558 127.788, 244.912 125.556 C 246.112 123.579, 246.215 122.573, 245.357 121.239 C 244.141 119.349, 242.614 119.291, 236.500 120.900 C 234.300 121.479, 228.900 121.978, 224.500 122.009 C 220.100 122.040, 213.424 122.462, 209.665 122.946 C 204.367 123.629, 202.048 123.500, 199.349 122.373 C 196.103 121.016, 195.620 121.072, 192.184 123.195 C 190.158 124.447, 188.275 125.327, 188 125.150 C 187.725 124.972, 183.450 125.121, 178.500 125.481 C 168.793 126.186, 160.874 128.242, 158.955 130.555 C 158.295 131.350, 157.360 132, 156.878 132 C 155.496 132, 155.888 113.339, 157.455 104.483 C 158.236 100.074, 159.140 90.174, 159.465 82.483 C 160.137 66.614, 160.762 61.364, 162.321 58.500 C 162.920 57.400, 163.287 55.701, 163.138 54.724 C 162.671 51.681, 170.700 48.864, 179.262 49.066 C 183.470 49.165, 187.673 48.691, 189.303 47.934 C 191.672 46.832, 192.522 46.870, 194.803 48.178 C 198.923 50.542, 206.285 50.447, 208.498 48.002 C 210.300 46.011, 210.251 46, 199.280 46 C 193.213 46, 186.956 45.830, 185.375 45.623 C 183.794 45.416, 177.973 45.551, 172.439 45.925 M 87.611 52.572 C 87.279 53.437, 87.470 55.010, 88.037 56.068 C 88.833 57.557, 88.595 58.629, 86.981 60.812 C 85.411 62.936, 84.637 66.212, 83.851 74.067 C 83.277 79.805, 82.503 86.300, 82.130 88.500 L 81.453 92.500 74.477 93.749 C 70.640 94.435, 65.300 95.390, 62.611 95.871 C 59.871 96.361, 57.322 97.461, 56.811 98.373 C 56.310 99.268, 54.990 100, 53.877 100 C 52.480 100, 51.964 100.542, 52.211 101.750 C 52.502 103.171, 53.451 103.444, 57.262 103.202 C 59.844 103.039, 63.146 102.287, 64.602 101.531 C 66.058 100.776, 67.833 100.382, 68.546 100.656 C 69.260 100.930, 70.891 100.579, 72.172 99.876 C 75.405 98.101, 78.232 97.757, 79.026 99.043 C 80.140 100.844, 79.073 146.207, 77.884 147.639 C 77.299 148.345, 75.848 149.217, 74.660 149.576 C 73.472 149.936, 71.564 151.085, 70.420 152.130 C 69.276 153.174, 66.110 154.815, 63.385 155.774 C 60.660 156.734, 57.771 158.071, 56.965 158.744 C 53.209 161.886, 49.081 164.864, 44.410 167.802 C 39.058 171.168, 37.396 173.661, 36.421 179.783 C 35.918 182.939, 36.220 183.839, 38.422 185.750 C 39.848 186.987, 41.380 188, 41.825 188 C 42.270 188, 43.400 185.572, 44.336 182.604 C 45.865 177.753, 46.829 176.602, 53.881 171.212 C 58.196 167.915, 62.800 164.653, 64.113 163.964 C 65.426 163.275, 68.140 161.426, 70.144 159.855 C 74.158 156.710, 77.469 156.174, 78.371 158.523 C 79.179 160.630, 79.308 223.724, 78.514 228.571 C 78.160 230.732, 77.139 235.088, 76.246 238.250 C 74.845 243.207, 74.290 244, 72.215 244 C 70.892 244, 68.467 243.045, 66.827 241.877 C 64.660 240.334, 63.546 240.054, 62.747 240.853 C 61.343 242.257, 64.508 246, 67.098 246 C 68.082 246, 69.536 246.927, 70.329 248.059 C 71.503 249.735, 72.647 250.061, 76.468 249.809 L 81.164 249.500 83.137 244 C 85.614 237.094, 88.298 213.464, 87.511 205.500 C 87.184 202.200, 86.884 189.191, 86.844 176.591 L 86.770 153.682 89.135 151.863 C 90.436 150.863, 92.255 150.034, 93.179 150.022 C 94.102 150.010, 95.497 149.361, 96.278 148.579 C 97.060 147.798, 99.590 146.649, 101.901 146.027 C 104.212 145.404, 106.353 144.244, 106.658 143.448 C 106.964 142.651, 107.741 142, 108.385 142 C 109.919 142, 112.722 138.686, 113.168 136.346 C 113.362 135.331, 114.528 134.356, 115.760 134.180 C 116.992 134.005, 118 133.317, 118 132.651 C 118 131.384, 119.359 130.244, 124.750 126.991 C 128.202 124.907, 129.073 121.626, 126.442 120.616 C 124.598 119.908, 117 123.552, 117 125.144 C 117 125.751, 114.072 129.147, 110.494 132.690 C 105.451 137.683, 103.851 138.774, 103.377 137.541 C 102.501 135.256, 100 137.538, 100 140.622 C 100 141.930, 99.550 143, 99 143 C 97.502 143, 97.795 135.415, 99.342 134.131 C 100.080 133.519, 101.005 133.338, 101.396 133.730 C 102.189 134.522, 103.961 132.172, 103.985 130.297 C 103.995 129.489, 102.439 129.182, 99.250 129.363 C 95.313 129.586, 94.292 130.060, 93.285 132.129 C 92.616 133.503, 91.154 135.456, 90.035 136.468 C 87.641 138.635, 87.846 140.489, 87.954 117.662 C 88.027 101.972, 88.818 98.458, 92.083 99.311 C 94.426 99.924, 104.683 97.373, 107.715 95.424 C 108.933 94.641, 110.690 94, 111.620 94 C 113.918 94, 120 89.245, 120 87.449 C 120 85.527, 114.991 85.539, 112.441 87.468 C 111.374 88.276, 108.677 88.951, 106.450 88.968 C 104.222 88.986, 101.928 89.472, 101.351 90.049 C 100.667 90.733, 98.601 90.803, 95.401 90.251 C 90.585 89.419, 90.505 89.345, 90.779 86.018 C 90.932 84.156, 91.420 77.262, 91.862 70.699 C 92.505 61.164, 93.002 58.579, 94.333 57.833 C 96.134 56.826, 96.638 53.080, 95 52.875 C 94.450 52.806, 93.587 52.694, 93.083 52.625 C 92.579 52.556, 91.829 52.163, 91.417 51.750 C 90.162 50.496, 88.249 50.909, 87.611 52.572 M 204 54 C 204 55.264, 206.043 55.264, 208 54 C 209.169 53.245, 208.893 53.027, 206.750 53.015 C 205.238 53.007, 204 53.450, 204 54 M 153.149 63.134 C 152.079 64.846, 152.082 65.777, 153.163 68.359 L 154.479 71.500 155.124 67 C 155.869 61.797, 155.020 60.137, 153.149 63.134 M 193 68.966 C 193 69.497, 191.708 71.253, 190.128 72.869 C 188.166 74.876, 187.030 77.314, 186.543 80.562 C 186.151 83.177, 185.337 86.483, 184.735 87.909 C 183.316 91.266, 182.918 97.831, 184.089 98.555 C 184.590 98.865, 185.006 101.454, 185.014 104.309 C 185.035 112.370, 185.663 113.599, 190.750 115.542 C 195.372 117.308, 198.832 116.639, 198.250 114.093 C 198.112 113.492, 198.894 113, 199.986 113 C 202.567 113, 211.008 114.986, 213.236 116.118 C 216.006 117.525, 216.739 117.189, 217.850 114 C 218.425 112.350, 219.369 111, 219.948 111 C 220.595 111, 221 107.968, 221 103.125 C 221 98.794, 221.281 93.844, 221.625 92.125 C 222.172 89.390, 222.658 89, 225.518 89 C 227.646 89, 229.009 88.418, 229.426 87.333 C 230.278 85.112, 228.608 83.599, 225.245 83.545 C 222.326 83.497, 222.224 83.060, 223.565 76.368 C 223.951 74.440, 223.749 72.963, 223.038 72.524 C 221.255 71.422, 214 76.684, 214 79.080 C 214 83.378, 212.281 84.771, 206.091 85.489 C 202.412 85.916, 199.939 86.717, 199.604 87.590 C 198.856 89.539, 204.198 89.466, 208.050 87.474 C 210.616 86.147, 211 86.140, 211 87.415 C 211 88.904, 209.320 90.392, 207.500 90.515 C 206.950 90.552, 204.530 91.159, 202.123 91.864 C 196.240 93.586, 198.122 95.172, 204.440 93.817 C 208.150 93.021, 209.865 93.059, 211.324 93.971 C 212.874 94.939, 213.435 94.914, 214.092 93.851 C 214.632 92.978, 215.239 92.859, 215.849 93.508 C 216.852 94.575, 215.269 107.999, 214.140 108.002 C 213.788 108.003, 213.655 105.251, 213.845 101.887 C 214.114 97.103, 213.896 95.867, 212.845 96.214 C 211.995 96.494, 211.386 98.647, 211.190 102.057 C 210.856 107.864, 210.003 108.961, 205.797 108.985 C 204.310 108.993, 201.916 109.537, 200.475 110.193 C 196.333 112.081, 195.846 110.186, 196.318 94 C 196.638 83.016, 197.192 78.337, 198.603 74.703 C 200.230 70.514, 200.278 69.787, 198.983 68.968 C 197.035 67.737, 193 67.735, 193 68.966 M 153.553 75.250 C 153.341 75.938, 153.125 77.175, 153.073 78 C 153.021 78.825, 152.517 82.425, 151.952 86 C 149.606 100.860, 149.605 100.916, 151.820 100.337 C 154.346 99.676, 155.153 96.586, 154.061 91.757 C 153.595 89.698, 153.503 88.193, 153.857 88.411 C 154.211 88.629, 154.590 85.476, 154.699 81.404 C 154.884 74.511, 154.468 72.276, 153.553 75.250 M 190.044 82.250 C 189.341 86.237, 188.372 91.075, 187.889 93 C 186.043 100.359, 187.091 110, 189.736 110 C 191.013 110, 191.136 108.615, 190.555 100.750 C 190.040 93.770, 190.256 90.037, 191.436 85.540 C 193.169 78.937, 193.439 75, 192.160 75 C 191.699 75, 190.746 78.263, 190.044 82.250 M 216.491 81.181 C 216.135 82.599, 215.994 85.050, 216.177 86.629 C 216.490 89.317, 216.582 89.235, 217.624 85.347 C 218.237 83.063, 218.378 80.611, 217.938 79.899 C 217.373 78.985, 216.947 79.362, 216.491 81.181 M 174.038 91.602 C 171.584 92.369, 168.950 93.622, 168.185 94.386 C 166.600 95.972, 167.353 99.538, 169.442 100.339 C 171.852 101.264, 175.102 99.859, 174.791 98.026 C 174.400 95.717, 176.786 93, 179.206 93 C 180.284 93, 180.989 92.466, 180.771 91.813 C 180.194 90.083, 179.021 90.046, 174.038 91.602 M 145.721 128.512 C 145.407 132.660, 145.420 138.630, 145.749 141.777 L 146.349 147.500 147.554 140.396 C 149.154 130.969, 149.165 125.073, 147.585 122.818 C 146.463 121.215, 146.215 121.971, 145.721 128.512 M 108.929 126.585 C 107.774 127.977, 107.963 128.129, 110.480 127.835 C 112.056 127.651, 113.530 126.938, 113.756 126.250 C 114.352 124.434, 110.492 124.702, 108.929 126.585 M 242.079 126.583 C 242.127 127.748, 242.364 127.985, 242.683 127.188 C 242.972 126.466, 242.936 125.603, 242.604 125.271 C 242.272 124.939, 242.036 125.529, 242.079 126.583 M 221.500 129 C 221.160 129.550, 221.809 130, 222.941 130 C 224.073 130, 225 129.550, 225 129 C 225 128.450, 224.352 128, 223.559 128 C 222.766 128, 221.840 128.450, 221.500 129 M 191.196 134.113 C 189.627 135.647, 187.479 136.838, 186.422 136.760 C 183.585 136.550, 179 139.929, 179 142.228 C 179 144.020, 179.492 144.172, 183.750 143.698 C 189.263 143.085, 192 142.154, 192 140.893 C 192 140.402, 191.325 140, 190.500 140 C 187.652 140, 189.016 138.376, 193.657 136.241 C 196.789 134.800, 198.854 134.387, 199.961 134.979 C 201.739 135.930, 204.926 134.593, 203.731 133.397 C 203.339 133.006, 201.001 132.380, 198.534 132.005 C 194.507 131.394, 193.756 131.610, 191.196 134.113 M 239 132.059 C 239 132.641, 239.450 132.840, 240 132.500 C 240.550 132.160, 241 131.684, 241 131.441 C 241 131.198, 240.550 131, 240 131 C 239.450 131, 239 131.477, 239 132.059 M 171.813 134.683 C 172.534 134.972, 173.397 134.936, 173.729 134.604 C 174.061 134.272, 173.471 134.036, 172.417 134.079 C 171.252 134.127, 171.015 134.364, 171.813 134.683 M 176 135 C 176 135.550, 176.873 136, 177.941 136 C 179.009 136, 180.160 135.550, 180.500 135 C 180.851 134.433, 180.010 134, 178.559 134 C 177.152 134, 176 134.450, 176 135 M 204.269 139.693 C 205.242 139.947, 206.592 139.930, 207.269 139.656 C 207.946 139.382, 207.150 139.175, 205.500 139.195 C 203.850 139.215, 203.296 139.439, 204.269 139.693 M 189.500 149.664 C 174.974 150.855, 175 150.847, 175 154.489 C 175 156.931, 174.304 158.340, 172.422 159.711 L 169.843 161.589 171 171.045 C 171.636 176.245, 172.294 181.850, 172.461 183.500 C 173.393 192.674, 174.346 198.943, 174.962 199.939 C 175.801 201.296, 186 203.063, 186 201.851 C 186 201.383, 185.475 201, 184.833 201 C 184.192 201, 183.956 200.711, 184.309 200.357 C 184.663 200.004, 185.525 200.189, 186.226 200.769 C 188.723 202.836, 207.111 200.911, 213.610 197.902 C 215.870 196.856, 218.627 196, 219.737 196 C 220.847 196, 222.322 195.317, 223.016 194.481 C 224.044 193.242, 223.967 192.621, 222.595 191.105 C 221.072 189.422, 221.064 189.189, 222.507 188.636 C 223.383 188.300, 225.230 185.432, 226.611 182.262 C 227.992 179.093, 229.545 175.719, 230.061 174.764 C 231.523 172.059, 231.183 160.254, 229.551 157.099 C 228.754 155.558, 227.067 153.620, 225.801 152.792 C 221.124 149.734, 205.287 148.370, 189.500 149.664 M 199.500 152 C 199.160 152.550, 199.359 153, 199.941 153 C 200.523 153, 201 152.550, 201 152 C 201 151.450, 200.802 151, 200.559 151 C 200.316 151, 199.840 151.450, 199.500 152 M 183.722 155.011 C 181.812 157.243, 181.461 158.451, 183 157.500 C 184.275 156.712, 184.308 158.292, 183.043 159.557 C 181.935 160.665, 181.176 174.509, 182.169 175.502 C 182.534 175.868, 184.953 175.230, 187.544 174.084 C 190.135 172.938, 192.760 171.993, 193.377 171.985 C 193.995 171.976, 195.065 171.611, 195.756 171.172 C 197.301 170.191, 200.262 159.233, 199.371 157.792 C 198.974 157.149, 196.377 156.958, 192.613 157.295 C 186.662 157.829, 186.588 157.806, 189.821 156.440 C 191.647 155.669, 192.858 154.579, 192.512 154.019 C 191.394 152.210, 185.557 152.869, 183.722 155.011 M 218 155.512 C 218 157.868, 217.761 157.985, 214.129 157.405 L 210.257 156.786 209.559 162.375 C 209.175 165.450, 209.143 168.423, 209.489 168.983 C 209.835 169.542, 212.628 170, 215.696 170 L 221.274 170 220.761 163.609 C 220.479 160.093, 220.618 156.618, 221.071 155.885 C 221.559 155.095, 221.407 154.243, 220.697 153.792 C 218.653 152.492, 218 152.908, 218 155.512 M 201.408 164.379 C 201.023 165.382, 201.179 166.494, 201.753 166.851 C 202.328 167.208, 203.007 168.625, 203.263 170 C 203.628 171.963, 203.754 171.748, 203.849 169 C 204.001 164.577, 202.455 161.650, 201.408 164.379 M 174.574 177.297 C 174.126 178.835, 174.039 180.372, 174.380 180.713 C 175.499 181.833, 176.158 180.235, 175.770 177.341 L 175.389 174.500 174.574 177.297 M 192 176.500 C 191.315 177.325, 189.385 178, 187.711 178 C 186.037 178, 184.991 178.324, 185.387 178.720 C 185.783 179.116, 187.658 179.307, 189.554 179.144 C 192.080 178.926, 193 179.247, 193 180.344 C 193 182.291, 187.706 183.448, 185.124 182.067 C 184.028 181.480, 182.877 181, 182.566 181 C 182.255 181, 182 184.177, 182 188.061 L 182 195.121 189.250 194.419 C 196.896 193.679, 198.465 192.738, 196.907 189.827 C 196.265 188.627, 196.357 187.400, 197.191 186.065 C 198.240 184.386, 198.092 183.727, 196.221 181.735 C 194.609 180.019, 194.312 179.088, 195.120 178.280 C 196.245 177.155, 195.551 175, 194.063 175 C 193.613 175, 192.685 175.675, 192 176.500 M 200.286 179.500 C 200.294 182.250, 200.488 183.256, 200.718 181.736 C 200.947 180.216, 200.941 177.966, 200.704 176.736 C 200.467 175.506, 200.279 176.750, 200.286 179.500 M 211.250 177.341 C 208.912 177.915, 207 178.918, 207 179.570 C 207 180.222, 206.325 181.315, 205.500 182 C 204.532 182.803, 204 185.021, 204 188.252 L 204 193.258 210.201 192.557 C 217.999 191.674, 219.987 190.665, 219.276 187.947 C 218.977 186.804, 219.300 184.808, 219.994 183.511 C 220.699 182.194, 220.970 180.017, 220.609 178.577 C 219.894 175.729, 218.547 175.551, 211.250 177.341 M 143 184.500 C 143 185.991, 143.431 186.852, 144 186.500 C 144.550 186.160, 145 185.260, 145 184.500 C 145 183.740, 144.550 182.840, 144 182.500 C 143.431 182.148, 143 183.009, 143 184.500 M 175.015 185.191 C 175.007 186.671, 175.450 188.160, 176 188.500 C 177.277 189.289, 177.277 185.976, 176 184 C 175.242 182.827, 175.027 183.086, 175.015 185.191 M 143.195 191.500 C 143.215 193.150, 143.439 193.704, 143.693 192.731 C 143.947 191.758, 143.930 190.408, 143.656 189.731 C 143.382 189.054, 143.175 189.850, 143.195 191.500 M 184.416 197.864 C 184.709 198.339, 186.761 198.727, 188.975 198.727 C 191.189 198.727, 193 198.339, 193 197.864 C 193 197.389, 190.948 197, 188.441 197 C 185.934 197, 184.122 197.389, 184.416 197.864 M 180.500 206.724 C 176.927 207.602, 176.285 208.901, 175.580 216.679 C 175.198 220.893, 174.236 226.834, 173.443 229.881 C 171.536 237.200, 171.554 240.108, 173.500 239.362 C 174.597 238.941, 175 239.487, 175 241.393 C 175 242.827, 174.586 244, 174.079 244 C 173.573 244, 172.884 245.250, 172.549 246.779 C 171.975 249.391, 168 253.131, 168 251.058 C 168 250.531, 168.607 249.740, 169.349 249.300 C 170.712 248.492, 172.541 243, 171.448 243 C 170.422 243, 168 245.809, 168 246.998 C 168 247.626, 166.692 250.040, 165.094 252.363 C 162.917 255.527, 162.428 257.014, 163.144 258.293 C 164.347 260.443, 165.163 260.436, 167.828 258.250 C 169.001 257.288, 171.075 255.707, 172.436 254.737 C 177.345 251.240, 184.612 231.240, 187.040 214.546 C 188.196 206.598, 186.971 205.133, 180.500 206.724 M 205 220.778 C 205 223.794, 207.420 226.376, 212.869 229.175 C 215.814 230.688, 216.420 230.723, 217.690 229.453 C 219.552 227.591, 220.912 227.607, 221.638 229.500 C 221.955 230.325, 222.885 231, 223.706 231 C 226.819 231, 232.035 234.290, 232.620 236.622 C 233.291 239.294, 238.380 244, 240.599 244 C 241.394 244, 245.050 245.363, 248.725 247.029 C 252.399 248.695, 256.021 249.822, 256.773 249.534 C 258.701 248.794, 257.885 244.919, 255.523 243.602 C 254.436 242.996, 253.086 242.007, 252.523 241.405 C 250.623 239.372, 245.201 236, 243.831 236 C 242.089 236, 234.851 232.136, 233.518 230.494 C 232.958 229.804, 231.150 228.933, 229.500 228.557 C 227.850 228.182, 224.866 226.575, 222.870 224.986 C 220.873 223.398, 218.079 221.807, 216.661 221.451 C 215.242 221.095, 213.558 220.173, 212.919 219.402 C 212.279 218.631, 210.235 218, 208.378 218 C 205.351 218, 205 218.289, 205 220.778 M 139.079 223.583 C 139.127 224.748, 139.364 224.985, 139.683 224.188 C 139.972 223.466, 139.936 222.603, 139.604 222.271 C 139.272 221.939, 139.036 222.529, 139.079 223.583 M 213 226.941 C 213 228.334, 214.838 229.218, 216.107 228.434 C 216.878 227.957, 216.803 227.490, 215.857 226.890 C 214.072 225.759, 213 225.778, 213 226.941 M 136.015 229.250 C 136.028 231.069, 136.216 231.213, 137 230 C 138.253 228.061, 138.253 227, 137 227 C 136.450 227, 136.007 228.012, 136.015 229.250 M 177 230.559 C 177 231.416, 177.450 231.840, 178 231.500 C 178.550 231.160, 179 230.459, 179 229.941 C 179 229.423, 178.550 229, 178 229 C 177.450 229, 177 229.702, 177 230.559 M 216 232.393 C 216 232.609, 216.698 233.054, 217.552 233.382 C 218.442 233.723, 218.843 233.555, 218.493 232.989 C 217.906 232.038, 216 231.583, 216 232.393 M 132.639 242.694 C 131.678 243.655, 131.871 248.802, 132.892 249.433 C 133.382 249.736, 133.970 248.385, 134.198 246.431 C 134.601 242.978, 133.940 241.393, 132.639 242.694" stroke="none" fill="black" fill-rule="evenodd"/>
</svg>