<svg xmlns="http://www.w3.org/2000/svg" width="300" height="300" viewBox="0 0 300 300" version="1.1">
	<path d="M 203 20.506 C 199.975 21.192, 195.475 22.533, 193 23.486 C 190.525 24.440, 186.025 25.543, 183 25.939 C 179.975 26.334, 176.375 27.157, 175 27.768 C 173.625 28.379, 170.460 29.144, 167.967 29.468 C 162.833 30.136, 157 33.275, 157 35.370 C 157 36.745, 159.922 39.071, 163.126 40.246 C 164.020 40.573, 165.900 40.246, 167.304 39.517 C 168.708 38.789, 172.927 37.485, 176.678 36.620 C 180.430 35.756, 186.650 33.854, 190.500 32.395 C 200.745 28.512, 209.338 27.336, 212.471 29.389 C 216.130 31.787, 218.850 31.444, 219.591 28.493 C 220.720 23.997, 215.424 18.726, 210.185 19.130 C 209.258 19.202, 206.025 19.821, 203 20.506 M 197.528 40.955 C 196.375 42.821, 195.015 60.194, 195.637 65.110 C 196.291 70.280, 195.030 73.538, 192.001 74.500 C 190.900 74.849, 190 75.779, 190 76.567 C 190 77.355, 189.277 78, 188.393 78 C 187.375 78, 186.997 77.450, 187.362 76.500 C 187.836 75.265, 186.839 75.003, 181.719 75.015 C 175.561 75.030, 172.617 75.959, 172.375 77.964 C 172.306 78.534, 172.194 79.450, 172.125 80 C 171.860 82.123, 170.428 80.839, 169.060 77.250 C 167.548 73.281, 167.020 55.115, 168.311 51.500 C 168.704 50.400, 168.584 48.825, 168.044 48 C 167.234 46.764, 166.706 46.720, 165.044 47.750 C 163.935 48.438, 161.949 49, 160.630 49 C 159.074 49, 158.050 49.702, 157.710 51 C 156.893 54.126, 158.045 57, 160.117 57 C 161.459 57, 162 57.718, 162 59.500 C 162 62.164, 161.067 62.667, 159.337 60.938 C 157.966 59.566, 157.175 63.701, 157.510 70.500 C 157.645 73.250, 157.305 76.063, 156.755 76.750 C 156.130 77.532, 153.180 78, 148.878 78 C 144.737 78, 142 78.418, 142 79.051 C 142 79.629, 140.502 80.728, 138.670 81.493 C 133.501 83.653, 132.364 85.520, 133.899 89.330 C 135.784 94.010, 136.884 98.465, 138.634 108.500 C 140.285 117.971, 142.508 130.201, 143.608 135.868 C 144.252 139.187, 144.323 139.228, 148.536 138.650 C 151.768 138.207, 152.948 138.422, 153.374 139.532 C 154.006 141.179, 159.057 141.512, 161.764 140.084 C 164.613 138.582, 176.488 135, 178.620 135 C 179.709 135, 181.043 134.557, 181.584 134.016 C 182.766 132.834, 200.612 127, 203.045 127 C 203.985 127, 205.315 126.325, 206 125.500 C 206.685 124.675, 208.702 124, 210.483 124 C 212.288 124, 215.352 122.893, 217.407 121.498 L 221.093 118.997 223.351 121.621 L 225.608 124.246 229.804 119.234 C 232.112 116.478, 234 113.722, 234 113.111 C 234 112.500, 234.408 112, 234.906 112 C 235.405 112, 236.135 109.638, 236.530 106.750 C 236.925 103.862, 237.661 100.409, 238.166 99.075 C 239.451 95.678, 239.347 75.616, 238.042 75.181 C 237.469 74.990, 237 74.304, 237 73.657 C 237 69.571, 225.404 67.965, 214.482 70.537 C 207.928 72.080, 206.699 72.135, 205.929 70.920 C 204.697 68.973, 204.758 51.267, 206 50.500 C 207.629 49.494, 207.140 44.436, 205.250 42.733 C 202.872 40.590, 198.391 39.558, 197.528 40.955 M 72.258 59.807 L 69.016 61.354 69.645 69.927 C 69.991 74.642, 70.662 79.258, 71.137 80.184 C 71.612 81.111, 72 84.078, 72 86.779 C 72 94.302, 70.712 95, 56.827 95 C 46.279 95, 45.088 95.192, 42.656 97.282 C 38.542 100.816, 39.151 103.313, 44.513 104.896 C 46.995 105.629, 50.032 106.001, 51.263 105.723 C 71.134 101.234, 72.391 101.431, 71.452 108.886 C 71.132 111.424, 70.686 123.850, 70.460 136.500 C 69.887 168.623, 69.653 170.999, 66.859 173.106 C 65.597 174.058, 63.283 175.093, 61.717 175.407 C 59.459 175.858, 58.935 176.444, 59.185 178.238 C 59.472 180.299, 59.011 180.548, 54 181.041 C 48.071 181.624, 40.937 184.824, 38.816 187.852 C 38.092 188.886, 37.054 189.679, 36.510 189.616 C 35.965 189.552, 35.287 190.845, 35.002 192.488 C 34.455 195.649, 31 197.449, 31 194.573 C 31 192.005, 28.367 192.775, 25.501 196.182 C 22.600 199.629, 22.519 202.370, 25.125 209 C 27.463 214.951, 29.800 215.680, 29.800 210.457 C 29.800 207.927, 30.543 206.226, 32.400 204.505 C 33.830 203.180, 35 201.629, 35 201.059 C 35 199.582, 38.233 196, 39.567 196 C 40.184 196, 41.996 194.854, 43.594 193.454 C 45.193 192.054, 47.737 190.648, 49.250 190.329 C 50.763 190.011, 52 189.443, 52 189.067 C 52 188.692, 53.913 187.561, 56.250 186.554 C 58.587 185.547, 61.273 184.054, 62.217 183.237 C 63.895 181.783, 68.535 181.201, 69.639 182.306 C 69.945 182.611, 69.506 184.130, 68.665 185.681 C 67.277 188.239, 66.183 199.231, 64.404 228.500 C 62.616 257.922, 62.304 264.600, 62.686 265.257 C 62.928 265.673, 62.175 267.349, 61.013 268.982 C 59.392 271.258, 59.052 272.763, 59.555 275.440 C 59.915 277.359, 60.697 278.833, 61.292 278.715 C 61.887 278.597, 62.403 279.574, 62.437 280.886 C 62.516 283.884, 65.270 285.851, 67.175 284.270 C 69.524 282.320, 70.849 274.967, 71.998 257.500 C 72.613 248.150, 73.520 235.775, 74.014 230 C 74.508 224.225, 74.932 216.208, 74.956 212.184 C 74.980 208.161, 75.430 204.065, 75.955 203.083 C 76.481 202.102, 77.219 195.456, 77.596 188.315 L 78.282 175.332 82.496 172.666 C 84.813 171.200, 87.177 170, 87.748 170 C 88.319 170, 89.045 169.325, 89.362 168.500 C 89.678 167.675, 90.571 167, 91.346 167 C 92.121 167, 93.279 166.369, 93.919 165.598 C 94.558 164.827, 96.220 163.911, 97.611 163.562 C 101.709 162.533, 106.974 158.647, 106.988 156.642 C 106.998 155.113, 106.512 154.905, 104.250 155.469 C 102.737 155.846, 100.150 156.733, 98.500 157.441 C 96.850 158.149, 93.588 159.533, 91.250 160.516 C 88.912 161.499, 87 162.812, 87 163.433 C 87 164.604, 80.981 167.315, 80.174 166.507 C 79.922 166.255, 79.743 164.800, 79.776 163.274 C 80.708 120.437, 81.135 111.922, 82.512 108.627 C 83.330 106.667, 84 104.175, 84 103.089 C 84 100.415, 87.710 98, 91.818 98 C 95.509 98, 101 95.253, 101 93.407 C 101 91.056, 98.087 89.768, 94.264 90.427 C 83.221 92.333, 83.481 92.352, 82.200 89.539 C 80.559 85.937, 80.715 74.374, 82.471 69.500 C 84.695 63.326, 84.401 61.258, 81.050 59.526 C 77.566 57.724, 76.556 57.756, 72.258 59.807 M 181.500 79 C 181.840 79.550, 182.541 80, 183.059 80 C 183.577 80, 184 79.550, 184 79 C 184 78.450, 183.298 78, 182.441 78 C 181.584 78, 181.160 78.450, 181.500 79 M 219.500 79.137 C 217.850 79.668, 214.475 80.421, 212 80.810 C 208.201 81.408, 207.446 81.906, 207.154 84.009 C 206.964 85.379, 206.441 86.950, 205.993 87.500 C 205.544 88.050, 204.851 92.325, 204.452 97 C 204.053 101.675, 203.338 106.544, 202.862 107.819 C 202.386 109.095, 202.281 111.271, 202.628 112.654 C 203.219 115.010, 203.586 115.142, 208.380 114.737 C 215.252 114.157, 225.282 112.049, 226.423 110.946 C 227.718 109.695, 228.988 81.916, 227.850 79.750 C 226.845 77.839, 224.151 77.641, 219.500 79.137 M 149.607 82.582 C 148.730 84.868, 148.801 85, 150.918 85 C 154.072 85, 155.908 83.925, 155.330 82.417 C 154.592 80.495, 150.361 80.616, 149.607 82.582 M 180.655 84.005 C 171.689 84.471, 170.631 84.738, 168.799 87 C 166.968 89.262, 166.820 90.646, 167.144 102.476 C 167.459 113.957, 167.307 115.506, 165.841 115.790 C 162.413 116.454, 160.286 112.347, 159.578 103.695 C 158.332 88.487, 158.580 89, 152.497 89 C 147.797 89, 147.152 89.257, 146.630 91.337 C 146.308 92.623, 146.782 97.685, 147.685 102.587 C 148.588 107.489, 149.509 115.934, 149.732 121.353 L 150.137 131.207 152.819 130.599 C 154.293 130.264, 157.975 129.705, 161 129.357 C 164.025 129.009, 167.715 128.111, 169.200 127.362 C 170.686 126.613, 173.471 126, 175.391 126 C 177.311 126, 179.127 125.604, 179.426 125.119 C 179.726 124.635, 180.990 123.991, 182.235 123.688 C 191.481 121.441, 193.490 120.713, 194.594 119.206 C 195.514 117.952, 195.728 113.530, 195.401 102.500 C 195.156 94.250, 194.726 86.761, 194.445 85.858 C 193.752 83.633, 192.100 83.411, 180.655 84.005 M 198.195 90.500 C 198.215 92.150, 198.439 92.704, 198.693 91.731 C 198.947 90.758, 198.930 89.408, 198.656 88.731 C 198.382 88.054, 198.175 88.850, 198.195 90.500 M 233.232 91 C 233.232 92.925, 233.438 93.713, 233.689 92.750 C 233.941 91.787, 233.941 90.213, 233.689 89.250 C 233.438 88.287, 233.232 89.075, 233.232 91 M 42 101.500 C 42 103.183, 42.183 103.251, 44.418 102.393 C 46.653 101.536, 46.384 100, 44 100 C 42.889 100, 42 100.667, 42 101.500 M 190.813 124.683 C 191.534 124.972, 192.397 124.936, 192.729 124.604 C 193.061 124.272, 192.471 124.036, 191.417 124.079 C 190.252 124.127, 190.015 124.364, 190.813 124.683 M 163.250 132.662 C 161.509 133.365, 161.684 135, 163.500 135 C 164.325 135, 165 134.325, 165 133.500 C 165 132.675, 164.887 132.036, 164.750 132.079 C 164.613 132.122, 163.938 132.385, 163.250 132.662 M 206.275 147.889 C 202.549 149.203, 199.140 150.890, 198.700 151.639 C 198.260 152.388, 196.685 153.002, 195.200 153.004 C 191.662 153.009, 186 156.505, 186 158.685 C 186 159.955, 185.708 160.108, 184.876 159.276 C 184.043 158.443, 182.940 158.502, 180.626 159.503 C 178.906 160.246, 176.706 161.100, 175.735 161.401 C 174.764 161.702, 173.535 163.093, 173.003 164.492 C 172.261 166.443, 171.393 166.996, 169.268 166.868 C 167.746 166.777, 163.800 167.495, 160.500 168.464 C 148.899 171.869, 145.110 176.060, 150.462 179.567 C 152.795 181.096, 153.356 181.007, 161.212 177.862 C 165.770 176.037, 172.249 172.847, 175.608 170.772 C 178.967 168.698, 182.710 167, 183.925 167 C 185.140 167, 187.608 165.875, 189.411 164.500 C 191.214 163.125, 193.379 162, 194.222 162 C 195.065 162, 196.315 161.325, 197 160.500 C 197.685 159.675, 199.316 159, 200.626 159 C 201.936 159, 204.686 158.100, 206.739 157 C 208.791 155.900, 211.602 154.997, 212.985 154.994 C 217.123 154.985, 223.071 152.979, 223.682 151.387 C 223.996 150.568, 223.223 148.802, 221.965 147.462 C 219.142 144.458, 215.743 144.551, 206.275 147.889 M 72.158 165 C 72.158 166.375, 72.385 166.938, 72.662 166.250 C 72.940 165.563, 72.940 164.438, 72.662 163.750 C 72.385 163.063, 72.158 163.625, 72.158 165 M 231 174.127 C 229.625 174.677, 225.384 175.784, 221.575 176.587 C 217.766 177.389, 213.990 178.594, 213.184 179.262 C 212.378 179.931, 210.476 180.541, 208.957 180.617 C 207.438 180.694, 204.732 181.486, 202.944 182.378 C 201.156 183.270, 198.974 184.014, 198.096 184.032 C 197.218 184.049, 195.626 184.724, 194.559 185.532 C 193.491 186.339, 191.884 187, 190.987 187 C 190.090 187, 187.589 188.337, 185.428 189.972 C 183.268 191.607, 180.509 192.957, 179.297 192.972 C 178.085 192.987, 176.060 193.409, 174.797 193.908 C 169.477 196.012, 159.158 198.867, 154.620 199.491 C 146.130 200.658, 141 203.693, 141 207.548 C 141 212.659, 151.144 212.141, 164.896 206.328 C 169.641 204.323, 171.322 206.131, 167.648 209.289 C 165.926 210.768, 164.703 213.054, 164.298 215.551 C 163.947 217.713, 163.061 220.081, 162.330 220.813 C 161.598 221.544, 161 223.208, 161 224.510 C 161 226.589, 155.697 237.661, 154.060 239 C 152.049 240.645, 147 248.036, 147 249.335 C 147 250.186, 146.548 251.161, 145.995 251.503 C 145.442 251.845, 143.111 254.909, 140.815 258.312 C 138.518 261.715, 136.270 264.650, 135.819 264.833 C 135.369 265.017, 134.999 265.692, 134.998 266.333 C 134.997 266.975, 133.170 269.219, 130.938 271.319 C 126.327 275.657, 126.296 277.566, 130.841 277.354 C 133.296 277.240, 135.423 275.725, 140.734 270.307 C 148.559 262.326, 150.930 259.484, 154.114 254.272 C 155.381 252.197, 158.686 247.350, 161.459 243.500 C 166.627 236.324, 169.337 231.406, 170.552 227 C 172.063 221.521, 176.265 214.339, 179.051 212.472 C 182.171 210.382, 183.027 206.608, 180.594 205.674 C 179.821 205.378, 178.427 205.975, 177.498 207.002 C 176.109 208.537, 175.379 208.674, 173.404 207.774 C 172.082 207.172, 171.003 206.414, 171.006 206.089 C 171.014 205.329, 176.848 202, 178.173 202 C 178.729 202, 180.329 201.100, 181.727 200 C 187.109 195.767, 187.250 196.406, 188.570 231 C 188.874 238.975, 189.299 249.767, 189.514 254.983 C 190.153 270.514, 194.089 281.331, 198.485 279.644 C 201.089 278.645, 201.395 276.083, 200.041 266.590 C 199.185 260.589, 198.764 246.699, 198.801 225.718 L 198.858 193.936 201.179 192.001 C 202.455 190.937, 204.400 190.051, 205.500 190.032 C 207.679 189.995, 216.471 186.862, 217.621 185.713 C 218.013 185.321, 219.747 185, 221.476 185 C 223.204 185, 225.491 184.339, 226.559 183.532 C 227.626 182.724, 229.272 182.049, 230.216 182.032 C 233.861 181.964, 239 178.682, 239 176.422 C 239 173.136, 235.784 172.213, 231 174.127 M 172 197.441 C 172 198.298, 172.450 199, 173 199 C 173.550 199, 174 198.577, 174 198.059 C 174 197.541, 173.550 196.840, 173 196.500 C 172.450 196.160, 172 196.584, 172 197.441 M 216 219.404 C 216 220.316, 216.675 221.322, 217.500 221.638 C 218.372 221.973, 219 223.470, 219 225.213 C 219 228.833, 224.332 236, 227.025 236 C 228.046 236, 229.156 236.443, 229.491 236.985 C 229.825 237.527, 232.215 239.017, 234.800 240.297 C 237.385 241.577, 243.009 244.509, 247.298 246.812 C 251.586 249.116, 255.989 251, 257.083 251 C 258.176 251, 260.067 251.637, 261.285 252.416 C 264.185 254.271, 276.650 257.334, 277.972 256.517 C 280.479 254.968, 278.869 252.077, 274.250 249.830 C 271.637 248.559, 267.343 246.278, 264.706 244.760 C 262.069 243.242, 259.294 242, 258.539 242 C 257.784 242, 257.017 241.636, 256.833 241.190 C 256.650 240.745, 254.250 239.263, 251.500 237.897 C 247.290 235.806, 239.835 231.488, 230.500 225.733 C 228.231 224.334, 228.082 224.187, 225.935 221.235 C 223.855 218.374, 216 216.927, 216 219.404 M 166.158 221 C 166.158 222.375, 166.385 222.938, 166.662 222.250 C 166.940 221.563, 166.940 220.438, 166.662 219.750 C 166.385 219.063, 166.158 219.625, 166.158 221 M 222 228.344 C 222 228.534, 223.012 229.827, 224.250 231.219 C 226.267 233.487, 232.032 235.645, 231.979 234.111 C 231.922 232.494, 222 226.760, 222 228.344 M 35.314 235.250 C 35.616 236.488, 36.351 239.525, 36.949 242 C 38.344 247.780, 43.669 259.608, 46.670 263.594 C 47.952 265.296, 49 267.422, 49 268.319 C 49 269.215, 50.305 270.623, 51.899 271.448 C 58.257 274.736, 58.006 267.279, 51.541 260.814 C 50.152 259.424, 48.047 256.085, 46.865 253.394 C 45.683 250.702, 44.440 248.275, 44.103 248 C 43.765 247.725, 42.881 245.700, 42.139 243.500 C 39.721 236.341, 33.854 229.248, 35.314 235.250 M 234.561 234.902 C 233.870 236.020, 238.659 240, 240.694 240 C 242.568 240, 241.615 238.574, 238.040 236.028 C 236.445 234.893, 234.880 234.386, 234.561 234.902 M 248.250 243.250 C 248.478 243.938, 249.514 244.664, 250.551 244.865 C 252.182 245.181, 252.256 245.013, 251.096 243.615 C 249.510 241.704, 247.656 241.466, 248.250 243.250 M 191 246 C 191 247.100, 191.450 248, 192 248 C 192.550 248, 193 247.100, 193 246 C 193 244.900, 192.550 244, 192 244 C 191.450 244, 191 244.900, 191 246" stroke="none" fill="black" fill-rule="evenodd"/>
</svg>