<svg xmlns="http://www.w3.org/2000/svg" width="300" height="300" viewBox="0 0 300 300" version="1.1">
	<path d="M 151.250 13.662 C 149.417 14.402, 149.726 17.442, 151.829 19.345 C 152.835 20.255, 154.003 21, 154.424 21 C 154.846 21, 156.601 22.012, 158.325 23.250 C 160.048 24.488, 162.191 25.950, 163.086 26.500 C 163.981 27.050, 166.672 28.982, 169.065 30.792 C 173.661 34.269, 177.258 34.664, 177.813 31.753 C 178.024 30.645, 177.261 29.669, 175.725 29.086 C 174.394 28.580, 169.758 24.753, 165.422 20.583 C 157.721 13.176, 155.338 12.013, 151.250 13.662 M 207.500 30.673 C 205.410 31.180, 193.788 35.642, 191.071 36.981 C 188.050 38.469, 182.436 39.816, 174.500 40.956 C 166.647 42.085, 141.645 44.031, 135.250 44.011 C 132.334 44.002, 132 44.297, 132 46.878 C 132 51.397, 133.764 52.110, 144.149 51.789 C 152.341 51.536, 153.483 51.283, 153.361 49.750 C 153.281 48.743, 153.918 47.994, 154.861 47.986 C 155.762 47.979, 157.625 47.720, 159 47.412 C 161.294 46.898, 161.356 46.970, 159.750 48.286 C 157.250 50.335, 157.584 51.181, 160.750 50.816 C 162.930 50.566, 163.451 50.034, 163.262 48.250 C 162.957 45.371, 164.336 45.368, 166.245 48.243 C 167.654 50.364, 167.987 50.418, 172.382 49.243 C 174.938 48.559, 178.865 48, 181.110 48 C 183.355 48, 186.386 47.379, 187.846 46.619 C 192.761 44.062, 200.460 41.096, 206.500 39.435 C 214.798 37.152, 215.500 36.680, 215.500 33.391 C 215.500 30.880, 215.105 30.479, 212.500 30.344 C 210.850 30.258, 208.600 30.406, 207.500 30.673 M 189 42.059 C 189 42.641, 189.450 42.840, 190 42.500 C 190.550 42.160, 191 41.684, 191 41.441 C 191 41.198, 190.550 41, 190 41 C 189.450 41, 189 41.477, 189 42.059 M 180.667 43.667 C 180.300 44.033, 180 44.798, 180 45.367 C 180 45.993, 180.466 45.934, 181.183 45.217 C 181.834 44.566, 182.134 43.801, 181.850 43.517 C 181.566 43.233, 181.033 43.300, 180.667 43.667 M 83.748 45.250 C 83.492 45.938, 83.175 53.925, 83.045 63 C 82.915 72.075, 82.514 81.515, 82.154 83.978 C 81.416 89.031, 83.391 88.274, 64 90.937 C 52.951 92.455, 52 92.777, 52 95.005 C 52 96.533, 52.741 96.864, 56.048 96.819 C 58.275 96.788, 60.375 97.041, 60.715 97.381 C 61.055 97.722, 60.133 98, 58.667 98 C 57.200 98, 56 98.464, 56 99.031 C 56 100.708, 58.967 101.349, 61.317 100.181 C 62.518 99.585, 65.750 98.874, 68.500 98.602 C 71.250 98.329, 75.123 97.816, 77.107 97.461 C 79.789 96.980, 80.859 97.189, 81.275 98.275 C 81.583 99.078, 81.439 105.532, 80.955 112.618 C 80.471 119.703, 80.058 133.727, 80.037 143.781 C 80.004 160.280, 79.829 162.121, 78.250 162.656 C 73.735 164.186, 61.796 170.156, 56.588 173.487 C 45.439 180.619, 43.152 182.974, 43.468 186.997 C 43.951 193.134, 47.680 192.786, 54 186.014 C 55.925 183.951, 61.100 180.132, 65.500 177.528 C 69.900 174.923, 74.075 172.061, 74.777 171.168 C 75.761 169.917, 76.449 169.794, 77.777 170.632 C 79.374 171.641, 79.479 175.130, 79.213 218.515 C 79.056 244.252, 78.692 265.690, 78.404 266.155 C 77.462 267.679, 74.931 267.050, 67.725 263.500 C 63.817 261.575, 60.056 260, 59.367 260 C 58.677 260, 57.525 259.212, 56.807 258.250 C 56.088 257.288, 54.712 255.882, 53.750 255.128 C 52.181 253.897, 52 254.022, 52 256.344 C 52 257.978, 53.682 260.883, 56.556 264.217 C 59.063 267.122, 61.953 270.512, 62.981 271.750 C 64.313 273.354, 65.947 274.007, 68.674 274.024 C 70.778 274.038, 74.773 274.304, 77.551 274.616 C 81.270 275.034, 82.918 274.804, 83.796 273.745 C 84.679 272.681, 85.060 258.926, 85.257 220.903 C 85.446 184.491, 85.859 168.912, 86.672 167.483 C 87.304 166.374, 89.548 164.873, 91.660 164.148 C 98.238 161.890, 105.864 157.798, 106.478 156.197 C 107.638 153.174, 105.356 153.181, 96.246 156.229 C 91.156 157.932, 86.658 158.992, 86.251 158.584 C 85.382 157.715, 85.406 151.291, 86.316 141.500 C 86.674 137.650, 87.183 128.200, 87.447 120.500 C 88.122 100.819, 88.598 98.103, 91.569 96.974 C 92.906 96.465, 94 95.588, 94 95.023 C 94 94.459, 96.877 92.638, 100.393 90.977 C 108.426 87.182, 112 84.395, 112 81.927 C 112 79.593, 109.349 79.398, 105.331 81.436 C 95.008 86.673, 90.789 88.189, 89.665 87.065 C 88.281 85.681, 88.594 72.006, 90.043 70.557 C 90.569 70.031, 91 63.840, 91 56.800 L 91 44 87.607 44 C 85.741 44, 84.004 44.563, 83.748 45.250 M 145.750 48.662 C 146.438 48.940, 147.563 48.940, 148.250 48.662 C 148.938 48.385, 148.375 48.158, 147 48.158 C 145.625 48.158, 145.063 48.385, 145.750 48.662 M 86 62 C 86 62.550, 86.450 63, 87 63 C 87.550 63, 88 62.550, 88 62 C 88 61.450, 87.550 61, 87 61 C 86.450 61, 86 61.450, 86 62 M 143.715 68.763 C 142.718 69.864, 142.302 71.440, 142.655 72.787 C 142.973 74.004, 142.779 75, 142.224 75 C 141.037 75, 140 72.630, 140 69.918 C 140 67.633, 137.190 67.340, 136.347 69.537 C 136.023 70.383, 136.449 71.845, 137.294 72.787 C 138.139 73.729, 139.155 76.300, 139.551 78.500 C 139.946 80.700, 141.110 84.170, 142.135 86.210 C 143.161 88.251, 144 91.040, 144 92.409 C 144 95.949, 151.150 113.010, 153.062 114.033 C 154.064 114.569, 155.700 114.350, 157.445 113.444 C 160.686 111.763, 163 111.578, 163 113 C 163 113.550, 163.884 114, 164.965 114 C 166.045 114, 167.447 114.966, 168.078 116.147 C 169.012 117.891, 168.925 118.462, 167.614 119.196 C 166.726 119.693, 165.313 121.427, 164.474 123.050 C 163.408 125.111, 162.203 126, 160.474 126 C 159.113 126, 157.070 126.930, 155.933 128.067 C 153.244 130.756, 154.890 133, 159.550 133 C 162.788 133, 162.870 133.108, 163.511 138.250 C 163.871 141.137, 164.016 145.075, 163.833 147 C 163.517 150.322, 163.271 150.532, 159 151.125 C 143.660 153.254, 135.976 156.856, 139 160.500 C 140.547 162.364, 143.597 162.406, 148.624 160.633 C 150.756 159.881, 154.854 158.980, 157.730 158.630 C 163.933 157.875, 163.896 157.805, 164.264 170.962 L 164.500 179.424 151 179.797 C 139.822 180.105, 136.769 180.529, 133.250 182.262 C 130.912 183.413, 129 184.694, 129 185.110 C 129 186.623, 133.700 187.378, 142.750 187.321 C 152.979 187.256, 153.328 187.531, 150.345 193.300 C 148.191 197.465, 145.262 201.579, 141.328 205.964 C 135.587 212.362, 134 214.298, 133.999 214.903 C 133.999 215.231, 132.428 217.300, 130.509 219.500 C 128.589 221.700, 126.090 224.578, 124.956 225.895 C 122.099 229.212, 119 235.506, 119 237.992 C 119 242.820, 122.068 240.952, 134.410 228.609 C 146.264 216.756, 147.025 216.178, 148.109 218.203 C 149.532 220.862, 148.719 230.719, 146.427 238.605 C 143.374 249.105, 146.311 266.362, 150.824 264.445 C 151.746 264.054, 153.751 263.802, 155.281 263.885 C 158.917 264.083, 163.413 260.461, 171.530 250.794 C 177.694 243.453, 179.043 240.763, 177.149 239.592 C 175.975 238.866, 166.982 245.979, 159.883 253.250 C 158.406 254.762, 156.340 256, 155.292 256 C 153.499 256, 153.399 255.185, 153.608 242.250 C 153.978 219.334, 155.365 203.367, 157.165 201.310 C 158.035 200.314, 159.321 197.700, 160.021 195.500 C 162.477 187.792, 165.672 186.368, 181.855 185.771 L 189.210 185.500 190.355 188.988 C 191.033 191.053, 192.274 192.624, 193.397 192.840 C 195.056 193.158, 195.222 192.753, 194.713 189.620 C 194.393 187.649, 194.559 185.772, 195.082 185.449 C 196.241 184.733, 222.349 181, 226.198 181 C 229.295 181, 232.610 177.033, 231.636 174.494 C 231.154 173.237, 229.521 173.058, 222.276 173.463 C 217.449 173.733, 209.994 174.562, 205.708 175.306 C 196.611 176.886, 194.269 176.098, 195.795 171.970 C 196.298 170.612, 196.495 166.686, 196.234 163.248 C 195.929 159.234, 196.184 156.483, 196.945 155.566 C 198.760 153.380, 211.726 150.751, 223.633 150.157 C 225.827 150.047, 226.921 149.411, 227.280 148.037 C 228.374 143.855, 223.942 142.940, 210.473 144.567 C 203.029 145.466, 200.215 145.484, 199.376 144.636 C 197.838 143.081, 199.250 130.794, 201.332 127.616 C 202.743 125.462, 203.424 125.252, 207.214 125.801 C 215.801 127.044, 217.500 126.751, 217.500 124.030 C 217.500 120.588, 213.891 119.033, 205.867 119.015 C 199.804 119.001, 199.191 118.806, 198.745 116.750 C 198.477 115.513, 197.928 113.717, 197.526 112.760 C 196.927 111.338, 198.130 110.381, 204.119 107.510 C 208.147 105.580, 211.987 104, 212.650 104 C 214.580 104, 216.967 101.078, 216.351 99.471 C 216.040 98.662, 215.186 98, 214.452 98 C 211.950 98, 211.852 95.956, 214.039 89.382 C 215.598 84.698, 216.041 81.655, 215.581 78.781 C 214.412 71.470, 213.811 71, 205.624 71 C 201.606 71, 196.319 71.602, 193.876 72.337 C 191.023 73.195, 188.719 73.354, 187.432 72.780 C 186.192 72.226, 184.354 72.295, 182.603 72.961 C 180.288 73.841, 179.901 74.440, 180.468 76.268 C 182.445 82.648, 184.936 93.867, 184.966 96.527 C 185.001 99.605, 187.379 104, 189.010 104 C 191.449 104, 192.909 89.655, 191.108 83.377 C 190.618 81.667, 190.505 79.826, 190.858 79.286 C 191.211 78.746, 195.171 78.028, 199.658 77.690 C 206.471 77.178, 207.913 77.331, 208.408 78.620 C 209.348 81.071, 209.097 87.612, 207.944 90.685 C 206.507 94.517, 201.961 101, 200.710 101 C 200.151 101, 197.258 102.152, 194.282 103.560 L 188.871 106.120 189.571 111.810 C 189.956 114.939, 190.621 117.728, 191.050 118.006 C 191.479 118.285, 191.263 119.287, 190.571 120.233 C 189.440 121.781, 186.186 122.729, 176.293 124.393 L 173.086 124.933 172.793 117.716 L 172.500 110.500 168.750 110.190 C 166.688 110.019, 165 109.460, 165 108.948 C 165 108.436, 166.543 105.995, 168.430 103.524 C 170.316 101.053, 173.299 96.107, 175.059 92.533 C 177.764 87.037, 178.182 85.244, 177.765 80.910 C 177.223 75.267, 176.072 74.038, 171.309 74.015 C 169.554 74.007, 167.839 73.549, 167.498 72.997 C 167.118 72.382, 166.226 72.338, 165.189 72.883 C 164.260 73.372, 159.762 74.097, 155.193 74.495 L 146.886 75.218 147.193 71.464 C 147.542 67.199, 146.125 66.099, 143.715 68.763 M 158.591 80.743 C 158.182 81.151, 155.970 81.939, 153.674 82.493 L 149.500 83.500 149.855 89 C 150.051 92.025, 150.613 95.258, 151.105 96.184 C 151.597 97.111, 152 99.473, 152 101.434 C 152 103.395, 152.454 105, 153.009 105 C 155.164 105, 162.252 98.917, 166.557 93.372 C 174.154 83.588, 173.614 80, 164.544 80 C 161.678 80, 158.999 80.334, 158.591 80.743 M 173 129 C 173 129.550, 173.423 130, 173.941 130 C 174.459 130, 175.160 129.550, 175.500 129 C 175.840 128.450, 175.416 128, 174.559 128 C 173.702 128, 173 128.450, 173 129 M 187.979 129.954 C 185.851 131.090, 178.885 132.356, 176.246 132.086 C 173.411 131.796, 173.096 132.704, 172.684 142.351 L 172.348 150.202 179.924 149.497 C 191.007 148.465, 191 148.472, 191 138.524 C 191 129.891, 190.540 128.586, 187.979 129.954 M 182.677 155.400 C 182.381 156.171, 180.302 157.111, 178.057 157.490 C 175.811 157.870, 173.581 158.927, 173.100 159.840 C 172.619 160.753, 172.063 165.100, 171.863 169.500 L 171.500 177.500 180.384 177.341 C 185.271 177.254, 189.546 176.735, 189.884 176.187 C 190.223 175.639, 190.444 171.998, 190.375 168.095 C 190.162 155.984, 190.165 156, 188.059 156 C 186.991 156, 185.840 155.550, 185.500 155 C 184.620 153.577, 183.305 153.763, 182.677 155.400 M 65 173 C 65 173.550, 65.450 174, 66 174 C 66.550 174, 67 173.550, 67 173 C 67 172.450, 66.550 172, 66 172 C 65.450 172, 65 172.450, 65 173 M 39.543 187.931 C 39.226 188.443, 39.425 189.144, 39.984 189.490 C 40.543 189.835, 41 189.416, 41 188.559 C 41 186.802, 40.400 186.544, 39.543 187.931 M 213 202.500 C 211.708 203.875, 209.851 205, 208.874 205 C 206.629 205, 200.062 211.635, 198.808 215.170 C 197.034 220.168, 195.204 219.406, 191.996 212.332 C 190.348 208.697, 189 205.061, 189 204.250 C 189 203.090, 188.205 202.927, 185.258 203.479 C 180.158 204.436, 179.741 204.819, 180.481 207.859 C 181.256 211.041, 189.719 223.955, 191.471 224.627 C 192.155 224.890, 193.293 226.857, 194 229 C 195.258 232.810, 197.271 234.568, 199.090 233.444 C 199.591 233.135, 200.006 233.246, 200.013 233.691 C 200.037 235.203, 212.483 247.629, 216.250 249.901 C 218.313 251.145, 220 252.529, 220 252.977 C 220 253.424, 223.314 255.473, 227.364 257.529 C 233.831 260.813, 235.278 261.185, 239.249 260.590 C 244.123 259.859, 247.603 257.014, 246.653 254.537 C 245.994 252.820, 242.457 252.451, 241.500 254 C 241.160 254.550, 239.844 255, 238.574 255 C 235.997 255, 225.836 251.079, 224.894 249.721 C 224.561 249.241, 222.714 247.870, 220.791 246.674 C 216.394 243.940, 205.841 232.591, 203.559 228.142 C 201.572 224.267, 202.149 220.405, 204.843 219.550 C 205.854 219.229, 209.208 216.499, 212.297 213.483 C 215.386 210.467, 218.335 208, 218.850 208 C 220.045 208, 221 205.520, 221 202.418 C 221 200.431, 220.496 200, 218.174 200 C 216.453 200, 214.431 200.977, 213 202.500" stroke="none" fill="black" fill-rule="evenodd"/>
</svg>