<svg xmlns="http://www.w3.org/2000/svg" width="300" height="300" viewBox="0 0 300 300" version="1.1">
	<path d="M 203.451 65.412 C 201.885 66.557, 201.763 67.184, 202.701 69.244 C 203.639 71.301, 203.509 71.976, 201.912 73.344 C 200.860 74.244, 200 75.685, 200 76.546 C 200 78.758, 191.169 98.781, 189.163 101.117 C 186.782 103.890, 177.030 126.070, 177.014 128.750 C 176.982 133.966, 181.404 129.431, 187.045 118.462 C 198.749 95.706, 199.237 95, 203.273 94.999 C 207.018 94.998, 225.046 90.265, 226.450 88.914 C 226.972 88.411, 228.030 88, 228.801 88 C 229.863 88, 230.076 89.027, 229.684 92.250 C 228.658 100.679, 225.198 117.591, 223.634 121.823 C 222.756 124.201, 221.307 130.044, 220.414 134.808 C 218.606 144.457, 214.418 155.626, 212.304 156.437 C 210.726 157.042, 210.763 157.137, 208.415 146.657 C 207.444 142.322, 205.271 136.506, 203.558 133.657 C 201.853 130.820, 199.888 126.592, 199.192 124.260 C 197.689 119.228, 193.691 117.334, 191.344 120.544 C 189.227 123.440, 189.693 124.864, 194.511 130.224 C 196.992 132.983, 199.270 136.424, 199.572 137.871 C 199.874 139.317, 200.544 141.281, 201.060 142.236 C 201.577 143.191, 202 144.879, 202 145.986 C 202 147.094, 202.477 148, 203.059 148 C 203.641 148, 203.837 148.454, 203.494 149.009 C 202.388 150.800, 204.046 153.913, 206.809 155.233 C 209.747 156.637, 211.398 161.474, 208.569 160.388 C 206.679 159.663, 206.452 162.149, 208.159 164.883 C 209.092 166.377, 208.801 168.029, 206.659 173.380 C 205.196 177.032, 204 180.637, 204 181.390 C 204 183.021, 202.233 187.045, 188.500 216.678 C 186.897 220.137, 184.604 223.409, 183.291 224.112 C 180.709 225.494, 179.196 229.596, 180.710 231.110 C 183.248 233.648, 190.483 227.416, 194.189 219.500 C 195.219 217.300, 196.491 214.825, 197.016 214 C 199.817 209.599, 209.092 189.044, 209.432 186.483 C 210.420 179.047, 213.500 177.836, 217.004 183.506 C 218.196 185.435, 219.491 186.814, 219.883 186.572 C 221.312 185.689, 222.908 187.633, 223.538 191.026 C 223.893 192.937, 224.333 195.175, 224.515 196 C 224.698 196.825, 224.881 197.838, 224.923 198.250 C 224.966 198.662, 225.610 199, 226.355 199 C 227.101 199, 228.130 200.463, 228.643 202.250 C 229.155 204.037, 230.098 205.500, 230.737 205.500 C 232.444 205.500, 234.475 207.821, 234.488 209.786 C 234.495 210.726, 235.001 211.496, 235.613 211.497 C 237.484 211.502, 248.614 222.237, 247.250 222.722 C 244.898 223.559, 245.998 224.909, 249.580 225.581 C 251.549 225.950, 253.403 226.887, 253.701 227.664 C 253.999 228.440, 255.650 229.741, 257.371 230.555 C 259.092 231.369, 261.625 232.659, 263 233.421 C 268.757 236.613, 271.273 237.318, 277.227 237.407 C 285.167 237.525, 289.237 236.449, 288.816 234.344 C 288.565 233.086, 286.953 232.723, 281 232.585 C 275.457 232.456, 272.402 231.835, 269.290 230.205 C 266.974 228.992, 264.456 228, 263.695 228 C 262.933 228, 261.495 227.100, 260.500 226 C 259.505 224.900, 258.330 224, 257.890 224 C 257.451 224, 255.975 222.988, 254.612 221.750 C 253.248 220.512, 250.169 217.925, 247.769 216 C 240.904 210.495, 232.793 200.542, 229.293 193.329 C 227.530 189.695, 225.220 185.771, 224.160 184.611 C 220.659 180.774, 218.705 175.603, 218.225 168.904 C 217.803 162.996, 218.129 161.399, 221.297 153.896 C 224.834 145.517, 229 130.631, 229 126.369 C 229 125.131, 229.373 123.887, 229.829 123.606 C 230.555 123.157, 231.838 118.277, 233.407 110 C 234.872 102.270, 236.257 97.200, 237.546 94.846 C 239.283 91.675, 239.412 88.812, 237.886 87.286 C 236.780 86.180, 240.111 84.301, 251.750 79.463 C 254.088 78.491, 256 77.288, 256 76.789 C 256 76.290, 256.377 76.115, 256.837 76.399 C 257.842 77.021, 262 74.266, 262 72.978 C 262 70.721, 258.278 70.200, 252.467 71.646 C 241.598 74.349, 240.527 74.696, 237 76.652 C 235.075 77.719, 231.475 79.213, 229 79.971 C 226.525 80.728, 223.375 81.877, 222 82.523 C 217.527 84.625, 203.699 89.033, 203.186 88.520 C 202.912 88.245, 203.416 86.328, 204.306 84.260 C 205.196 82.192, 206.411 78.579, 207.006 76.231 C 207.601 73.883, 208.968 71.413, 210.044 70.741 C 211.978 69.532, 212.701 66.511, 211.250 65.697 C 208.825 64.337, 205.108 64.201, 203.451 65.412 M 147.832 83.596 C 142.514 85.403, 135.314 87.382, 131.832 87.993 C 121.736 89.764, 121.706 89.781, 122.401 93.253 C 122.866 95.581, 122.557 96.622, 121.097 97.645 C 118.963 99.139, 119.254 102.312, 121.796 105.250 C 122.629 106.213, 122.999 107, 122.620 107 C 122.240 107, 122.418 107.913, 123.015 109.028 C 123.612 110.143, 124.527 110.792, 125.048 110.470 C 125.570 110.148, 127.108 111.148, 128.467 112.692 C 131.429 116.059, 131.876 118.318, 128.961 115.189 C 125.955 111.961, 125.520 112.522, 127.901 116.557 C 129.056 118.514, 130 120.723, 130 121.467 C 130 123.294, 115.378 135.238, 111 136.988 C 109.075 137.757, 107.212 138.809, 106.860 139.325 C 106.507 139.841, 103.028 137.685, 99.127 134.533 C 91.304 128.213, 91.364 128.574, 96.966 121.536 C 98.702 119.355, 101.938 113.955, 104.157 109.536 C 106.376 105.116, 108.877 100.731, 109.714 99.791 C 110.551 98.850, 111.467 96.038, 111.748 93.541 C 112.346 88.236, 112.790 88.358, 98.974 90.018 C 82.101 92.046, 76.020 93.974, 72.675 98.359 C 67.437 105.227, 74.503 109.833, 80.459 103.432 C 83.920 99.713, 101.998 95.983, 100.728 99.250 C 96.881 109.146, 93.191 116.318, 90.094 119.923 L 86.294 124.346 83.124 122.088 C 81.380 120.846, 78.432 117.453, 76.574 114.548 C 73.336 109.486, 69.395 107.020, 66.954 108.528 C 64.468 110.065, 67.710 116.559, 71.725 118.085 C 73.031 118.582, 74.565 120.323, 75.134 121.953 C 75.702 123.584, 76.989 125.179, 77.993 125.498 C 78.998 125.817, 80.341 126.706, 80.979 127.475 C 82.503 129.311, 81.400 131.326, 73.794 140.592 C 67.964 147.696, 63.299 151, 59.099 151 C 56.299 151, 56.295 154.552, 59.093 156.050 C 62.007 157.609, 65.208 156.573, 70.902 152.229 C 77.153 147.460, 85.178 137.627, 84.423 135.661 C 83.465 133.164, 90.274 135.307, 95.710 139.213 C 105.399 146.174, 114.127 148.110, 114.794 143.447 C 114.977 142.168, 117.895 139.531, 122.540 136.447 C 126.639 133.726, 129.995 131.174, 129.997 130.776 C 129.998 130.377, 131.283 129.388, 132.851 128.577 C 135.068 127.431, 135.971 127.369, 136.910 128.301 C 137.852 129.236, 137.971 129.114, 137.452 127.750 C 137.080 126.773, 137.249 126, 137.834 126 C 139.009 126, 140.340 127.816, 140.646 129.838 C 140.938 131.764, 144.077 135, 145.655 135 C 146.395 135, 147 135.406, 147 135.903 C 147 137.436, 158.015 144.208, 159.551 143.619 C 162.091 142.644, 161.162 141.233, 154.026 135.227 C 147.950 130.112, 142 123.213, 142 121.283 C 142 120.938, 144.161 118.145, 146.802 115.078 C 157.607 102.528, 163 92.672, 163 85.472 C 163 80.046, 159.534 79.617, 147.832 83.596 M 150.259 90.141 C 149.632 90.768, 145.290 92.304, 140.610 93.553 C 133.368 95.487, 131.927 95.617, 130.937 94.424 C 129.729 92.969, 127.561 93.481, 128.500 95 C 128.793 95.474, 128.574 96.145, 128.013 96.492 C 126.720 97.291, 127.618 101.120, 130.595 107.500 C 133.043 112.746, 135.262 116, 136.391 116 C 138.732 116, 155.419 92.533, 154.598 90.395 C 153.950 88.707, 151.818 88.582, 150.259 90.141 M 158.500 157.497 C 155.200 158.164, 148.735 159.719, 144.133 160.952 C 137.964 162.605, 133.762 163.103, 128.133 162.847 C 121.024 162.524, 120.480 162.643, 120.202 164.588 C 119.665 168.346, 122.377 169.340, 133.402 169.423 C 139.514 169.469, 144.253 169.052, 145.091 168.394 C 146.263 167.475, 154.539 165, 156.443 165 C 157.919 165, 156.751 169.061, 154.903 170.355 C 153.750 171.163, 151.796 174.006, 150.560 176.674 C 149.324 179.342, 146.668 182.778, 144.659 184.311 C 142.650 185.843, 138.947 190.252, 136.430 194.108 C 133.913 197.963, 131.324 200.945, 130.677 200.734 C 130.030 200.523, 128.570 197.684, 127.434 194.425 C 126.297 191.166, 124.834 187.517, 124.184 186.316 C 123.533 185.114, 123 182.352, 123 180.177 C 123 176.446, 122.802 176.185, 119.483 175.563 C 113.476 174.436, 112.645 176.292, 116.018 183.305 C 117.127 185.612, 118.425 188.175, 118.902 189 C 121.490 193.480, 125 203.037, 125 205.602 C 125 207.116, 122.875 210.187, 119.061 214.182 C 112.261 221.306, 113.216 221.346, 101.510 213.442 C 98.204 211.210, 94.702 209.083, 93.727 208.715 C 91.014 207.690, 90.591 205.271, 92.595 202.242 C 95.400 198.006, 100 188.777, 100 187.388 C 100 186.703, 100.604 185.539, 101.342 184.801 C 103.259 182.883, 111 164.907, 111 162.371 C 111 159.840, 108.559 157.537, 106.938 158.538 C 105.895 159.183, 98.389 160.662, 77 164.440 C 63.022 166.908, 58 169.341, 58 173.643 C 58 175.947, 63.387 176.077, 69.500 173.921 C 72.800 172.757, 77.975 171.563, 81 171.267 C 84.025 170.971, 86.950 170.382, 87.500 169.958 C 88.982 168.817, 100.958 166.625, 101.694 167.361 C 102.042 167.709, 101.152 170.394, 99.716 173.327 C 98.280 176.260, 96.162 181.053, 95.009 183.978 C 93.856 186.903, 92.032 190.415, 90.956 191.783 C 89.880 193.151, 89 194.776, 89 195.395 C 89 196.014, 87.849 197.762, 86.442 199.279 L 83.883 202.038 79.550 198.487 C 77.167 196.534, 72.437 191.576, 69.039 187.468 C 65.641 183.361, 62.308 180, 61.631 180 C 59.917 180, 58 182.094, 58 183.966 C 58 185.867, 67.082 196, 68.786 196 C 69.454 196, 70 196.911, 70 198.025 C 70 199.475, 70.852 200.220, 73 200.650 C 74.650 200.980, 76 201.814, 76 202.503 C 76 203.191, 76.675 204.315, 77.500 205 C 80.139 207.190, 79.158 209.663, 71.755 219.483 C 65.570 227.686, 64.179 229.011, 62.255 228.528 C 60.304 228.038, 60 228.352, 60 230.859 C 60 235.070, 62.144 236.500, 65.678 234.645 C 69.781 232.493, 79.587 221.424, 82.892 215.215 C 83.943 213.239, 84.609 213.022, 87.804 213.608 C 89.837 213.981, 91.650 214.672, 91.833 215.143 C 92.017 215.615, 93.003 216, 94.024 216 C 95.046 216, 96.130 216.401, 96.432 216.891 C 96.735 217.381, 99.349 219.003, 102.241 220.496 C 105.134 221.989, 107.888 223.574, 108.363 224.018 C 108.838 224.462, 108.200 226.651, 106.946 228.882 C 105.168 232.046, 104.886 233.428, 105.662 235.169 C 106.634 237.348, 106.777 237.289, 111.746 232.641 C 116.519 228.176, 117.125 227.901, 121.562 228.191 C 127.240 228.562, 128.798 226.523, 124.090 224.882 C 120.202 223.526, 120.257 222.435, 124.453 217.686 C 127.505 214.232, 128.020 213.996, 129.922 215.184 C 131.077 215.905, 132.283 217.316, 132.602 218.320 C 132.931 219.358, 133.779 219.915, 134.569 219.612 C 135.383 219.299, 137.039 220.496, 138.568 222.500 C 140.003 224.382, 142.038 226.195, 143.089 226.528 C 144.140 226.862, 145 228.004, 145 229.067 C 145 230.293, 145.689 231, 146.883 231 C 147.926 231, 149 231.893, 149.290 233 C 149.607 234.212, 150.654 235, 151.948 235 C 153.123 235, 155.050 235.900, 156.230 237 C 157.411 238.100, 159.642 239, 161.189 239 C 162.735 239, 164 239.392, 164 239.871 C 164 240.350, 166.169 241.030, 168.820 241.382 C 174.525 242.139, 180.247 240.503, 179.801 238.242 C 179.575 237.096, 177.992 236.677, 173.456 236.562 C 162.984 236.295, 151.219 229.195, 139.633 216.150 C 137.085 213.281, 135 210.001, 135 208.861 C 135 206.630, 138.487 201.741, 146.312 193 C 149.020 189.975, 152.018 186.600, 152.975 185.500 C 156.446 181.508, 165.992 165.287, 166.551 162.430 C 166.892 160.686, 166.593 158.849, 165.812 157.892 C 164.662 156.482, 163.758 156.433, 158.500 157.497 M 72.500 170 C 72.160 170.550, 72.557 171, 73.382 171 C 74.207 171, 75.160 170.550, 75.500 170 C 75.840 169.450, 75.443 169, 74.618 169 C 73.793 169, 72.840 169.450, 72.500 170 M 78 203.819 C 78 205.027, 79.897 206.436, 80.591 205.743 C 80.842 205.491, 80.362 204.716, 79.524 204.020 C 78.574 203.231, 78 203.155, 78 203.819 M 88.813 212.683 C 89.534 212.972, 90.397 212.936, 90.729 212.604 C 91.061 212.272, 90.471 212.036, 89.417 212.079 C 88.252 212.127, 88.015 212.364, 88.813 212.683 M 236 214 C 236 214.550, 236.477 215, 237.059 215 C 237.641 215, 237.840 214.550, 237.500 214 C 237.160 213.450, 236.684 213, 236.441 213 C 236.198 213, 236 213.450, 236 214 M 114.213 225.188 C 112.323 227.077, 112.771 227.766, 115.542 227.237 C 116.940 226.970, 117.924 226.273, 117.729 225.688 C 117.189 224.068, 115.564 223.836, 114.213 225.188" stroke="none" fill="black" fill-rule="evenodd"/>
</svg>