<svg xmlns="http://www.w3.org/2000/svg" width="300" height="300" viewBox="0 0 300 300" version="1.1">
	<path d="M 131.500 26.867 C 128.750 27.221, 123.649 28.971, 120.164 30.755 C 116.679 32.540, 113.261 34, 112.569 34 C 111.876 34, 110.493 34.903, 109.494 36.007 C 108.495 37.111, 107.174 37.898, 106.559 37.757 C 105.944 37.616, 105.454 37.950, 105.470 38.500 C 105.487 39.050, 105.894 39.369, 106.375 39.208 C 106.856 39.048, 108.076 39.663, 109.084 40.576 C 110.808 42.136, 111.089 42.064, 113.776 39.368 C 115.348 37.791, 117.177 35.600, 117.841 34.500 C 119.035 32.522, 119.066 32.525, 120.646 34.750 C 122.504 37.367, 124.248 37.611, 126 35.500 C 126.685 34.675, 128.378 34, 129.762 34 C 131.147 34, 132.843 33.229, 133.532 32.288 C 134.549 30.897, 135.065 30.809, 136.280 31.818 C 137.365 32.718, 141.804 32.970, 152.393 32.734 C 160.762 32.547, 167.414 32.814, 167.958 33.358 C 168.480 33.880, 170.318 34.267, 172.043 34.218 C 178.508 34.034, 188 42.266, 188 48.057 L 188 50.306 185.874 47.903 L 183.748 45.500 184.281 48.500 C 184.575 50.150, 185.551 54.111, 186.452 57.301 C 187.855 62.273, 187.931 64.560, 186.980 73.301 C 185.737 84.723, 184.449 91.293, 182.875 94.234 C 181.550 96.710, 183.025 98.444, 185.727 97.587 C 186.906 97.212, 188.776 94.356, 190.538 90.237 C 193.213 83.986, 193.434 82.491, 193.602 69.500 C 193.763 57.085, 193.513 54.699, 191.392 48.425 C 190.076 44.533, 189 40.449, 189 39.349 C 189 35.399, 181.597 30.649, 172.749 28.925 C 169.862 28.362, 162.100 27.756, 155.500 27.578 C 148.900 27.400, 141.925 27.023, 140 26.739 C 138.075 26.455, 134.250 26.513, 131.500 26.867 M 105 44.775 C 102.379 45.692, 102.031 47.260, 102.015 58.236 C 102 69.296, 102.199 70.588, 106.534 87.500 C 113.276 113.800, 113.289 113.835, 115.504 111.996 C 116.479 111.187, 116.588 110.050, 115.915 107.704 C 115.412 105.949, 115 102.964, 115 101.071 C 115 99.074, 114.200 96.762, 113.094 95.564 C 111.080 93.383, 110.049 84.426, 109.460 64 C 109.167 53.857, 108.205 45.895, 107.148 44.875 C 106.791 44.531, 105.825 44.486, 105 44.775 M 120.190 57.625 C 119.541 58.785, 119.574 60.166, 120.289 61.735 C 121.294 63.940, 121.738 64.053, 126.933 63.424 C 129.995 63.053, 133.228 62.372, 134.119 61.910 C 135.009 61.448, 136.059 61.392, 136.452 61.785 C 136.845 62.178, 143.542 62.537, 151.333 62.583 C 159.125 62.629, 168.875 62.774, 173 62.906 C 183.779 63.251, 184 63.215, 184 61.114 C 184 58.551, 180.398 58.124, 153.500 57.496 C 141.400 57.214, 129.175 56.734, 126.334 56.430 C 122.088 55.975, 120.994 56.188, 120.190 57.625 M 155.500 83.638 C 148.443 85.199, 141.527 85.852, 130.500 86 C 122.073 86.113, 114.438 88.826, 115.303 91.400 C 115.530 92.078, 118.761 92.500, 123.733 92.500 C 128.166 92.500, 131.609 92.195, 131.382 91.821 C 130.595 90.524, 135.516 90.405, 138.123 91.658 C 140.774 92.933, 144.300 92.581, 156 89.871 C 164.825 87.827, 170.882 87.693, 173.612 89.482 C 178.602 92.751, 180.910 89.143, 176.486 84.987 C 173.274 81.969, 165.346 81.460, 155.500 83.638 M 139.084 98.316 C 137.315 100.085, 137.803 100.891, 141.610 102.481 C 144.797 103.813, 145.142 104.297, 144.559 106.621 C 144.008 108.818, 144.179 109.145, 145.594 108.602 C 147.435 107.896, 151 110.497, 151 112.546 C 151 114.203, 160.815 124, 162.475 124 C 163.931 124, 165.317 126.691, 164.206 127.363 C 163.818 127.598, 159.675 127.875, 155 127.980 C 133.830 128.453, 120.563 128.959, 108.776 129.741 C 97.921 130.462, 95.602 130.918, 92.988 132.851 C 90.811 134.460, 88.850 135.027, 86.216 134.808 C 82.971 134.538, 82.445 134.126, 81.995 131.500 C 81.626 129.352, 80.919 128.500, 79.504 128.500 C 77.612 128.500, 77.537 129.157, 77.742 144 C 77.987 161.771, 78.661 168.381, 80.617 172.200 C 81.378 173.686, 82 175.745, 82 176.776 C 82 179.309, 86.494 183.408, 88.449 182.658 C 90.094 182.027, 90.606 180, 89.121 180 C 86.526 180, 83.442 162.197, 84.288 152.099 C 84.654 147.736, 84.466 144.866, 83.768 144.168 C 82.976 143.376, 83.341 142.817, 85.087 142.144 C 86.414 141.633, 89.300 139.773, 91.500 138.010 C 94.991 135.214, 96.031 134.878, 99.676 135.374 C 102.471 135.754, 104.043 135.538, 104.426 134.721 C 104.874 133.769, 105.128 133.775, 105.583 134.750 C 106.280 136.243, 110.690 136.431, 111.170 134.989 C 111.573 133.782, 125.884 132.890, 150.500 132.539 C 160.400 132.398, 169.254 131.958, 170.177 131.562 C 171.099 131.166, 177.849 130.990, 185.177 131.171 C 195.333 131.422, 199.297 131.910, 201.851 133.224 C 203.694 134.172, 206.715 135.231, 208.565 135.578 C 210.415 135.925, 212.454 136.842, 213.096 137.616 C 213.739 138.390, 216.202 139.881, 218.571 140.928 C 222.244 142.553, 222.982 143.385, 223.580 146.577 C 223.967 148.636, 223.776 154.636, 223.156 159.910 C 222.135 168.600, 221.554 178.508, 221.876 181.750 C 222.100 184.004, 225.027 183.058, 226.036 180.406 C 227.224 177.281, 230.131 159.797, 229.558 159.224 C 229.335 159.001, 229.785 157.028, 230.557 154.838 C 231.867 151.125, 231.802 150.543, 229.585 146.179 C 227.424 141.924, 222.035 136, 220.324 136 C 219.628 136, 216.603 134.647, 205.500 129.369 C 199.651 126.589, 199.082 126.517, 182.840 126.508 L 166.179 126.500 163.159 122.500 C 161.497 120.300, 159.044 117.150, 157.706 115.500 C 156.368 113.850, 154.956 111.486, 154.568 110.246 C 153.628 107.241, 145.037 98.504, 142.324 97.795 C 141.139 97.485, 139.681 97.719, 139.084 98.316 M 84 127.393 C 84 128.901, 86.429 130.238, 87.402 129.264 C 88.719 127.948, 87.883 126, 86 126 C 84.900 126, 84 126.627, 84 127.393 M 96 136.962 C 93.889 137.606, 93.765 137.838, 95.204 138.452 C 96.215 138.883, 97.830 138.532, 99.176 137.589 C 101.597 135.893, 100.326 135.642, 96 136.962 M 173.471 153.093 C 173.035 154.465, 172.271 154.903, 171.011 154.503 C 169.341 153.973, 169.223 154.466, 169.654 160.212 C 169.914 163.670, 171.029 170.021, 172.132 174.325 C 173.451 179.467, 174.201 185.941, 174.319 193.207 L 174.500 204.264 167.532 206.188 C 160.327 208.178, 159.484 208.147, 143 205.282 L 138.500 204.500 138.661 197 C 138.750 192.875, 138.381 185.344, 137.841 180.266 C 137.101 173.301, 137.166 170.183, 138.107 167.581 C 139.693 163.195, 138.156 161, 133.499 161 C 130.847 161, 130.019 161.539, 129.038 163.908 C 128.024 166.357, 128.110 167.239, 129.588 169.494 C 131.034 171.702, 131.357 174.588, 131.421 185.928 C 131.478 195.793, 131.135 200.125, 130.209 201.244 C 129.280 202.366, 126.333 202.955, 119.709 203.340 C 96.421 204.696, 86.847 205.993, 82.130 208.433 C 78.453 210.334, 77.080 212.813, 79.034 214.021 C 81.327 215.438, 91.305 214.142, 94.127 212.060 C 95.782 210.839, 97.585 210.340, 99.003 210.711 C 100.510 211.105, 101.558 210.755, 102.176 209.650 C 103.265 207.704, 105.655 207.470, 106.253 209.250 C 106.582 210.231, 107.232 210.202, 109.269 209.117 C 110.697 208.357, 112.499 207.977, 113.273 208.275 C 114.048 208.572, 115.300 208.432, 116.057 207.965 C 116.868 207.464, 117.981 207.569, 118.767 208.221 C 119.764 209.049, 120.499 208.929, 121.683 207.746 C 122.931 206.498, 123.765 206.391, 125.632 207.242 C 128.523 208.559, 128.526 208.316, 125.500 220 C 124.147 225.225, 123.031 230.759, 123.020 232.298 C 123.009 233.837, 122.100 236.959, 121 239.236 C 118.525 244.360, 118.490 246.228, 120.829 248.345 C 123.304 250.585, 124.068 250.447, 126.573 247.306 L 128.721 244.612 139.111 247.972 C 144.825 249.820, 149.852 251.632, 150.283 251.999 C 152.787 254.132, 144.938 259.800, 134.233 263.587 C 127.773 265.873, 126.486 267.363, 129.330 269.262 C 130.589 270.102, 136.857 269.296, 138.500 268.083 C 139.050 267.677, 141.750 266.522, 144.500 265.517 C 149.068 263.847, 152.532 261.679, 157.250 257.537 C 159.994 255.127, 161.583 255.620, 170.319 261.595 C 178.120 266.930, 188.028 277.770, 189.584 282.673 C 190.132 284.403, 190.087 284.407, 188.721 282.750 C 186.764 280.374, 186 280.551, 186 283.378 C 186 286.819, 188.315 288.394, 191.716 287.266 C 195.730 285.936, 195.683 283.012, 191.567 277.894 C 189.623 275.477, 186.964 271.922, 185.658 269.994 C 182.851 265.850, 177.363 260.979, 169.446 255.604 L 163.707 251.707 168.274 247.604 C 170.787 245.347, 173.305 242.559, 173.871 241.409 C 177.283 234.477, 181.171 220.610, 180.323 218.400 C 180.026 217.624, 180.379 214.968, 181.109 212.497 C 182.191 208.834, 182.778 208.112, 184.291 208.592 C 185.429 208.953, 186.632 208.518, 187.400 207.468 C 188.264 206.287, 189.331 205.970, 190.841 206.449 C 192.044 206.831, 192.771 207.562, 192.456 208.072 C 192.140 208.582, 192.332 209, 192.882 209 C 193.432 209, 194.151 208.565, 194.480 208.033 C 194.809 207.501, 196.369 207.324, 197.947 207.639 C 200.188 208.088, 201.061 207.755, 201.938 206.117 C 202.893 204.331, 203.389 204.190, 205.280 205.166 C 206.501 205.797, 208.341 206.729, 209.370 207.239 C 212.457 208.770, 218.880 208.849, 220.106 207.372 C 221.970 205.126, 220.405 203.330, 215.836 202.475 C 208.866 201.170, 186.747 201.802, 184.195 203.380 C 181.559 205.008, 180.378 202.168, 180.231 193.850 C 180.151 189.330, 179.559 182.365, 178.915 178.371 C 178.270 174.377, 177.957 168.528, 178.219 165.372 C 178.758 158.878, 177.449 152.386, 175.447 151.618 C 174.685 151.325, 173.829 151.964, 173.471 153.093 M 130.694 206.639 C 129.549 207.784, 131.060 209, 133.626 209 C 135.546 209, 136.013 209.411, 135.617 210.750 C 132.900 219.930, 129.074 237.659, 129.513 239.041 C 129.888 240.222, 131.583 241.004, 134.783 241.471 C 137.377 241.849, 141.469 243.248, 143.876 244.579 C 146.283 245.911, 148.758 247.003, 149.376 247.006 C 149.994 247.010, 151.714 247.646, 153.197 248.420 C 155.675 249.712, 156.103 249.634, 158.447 247.461 C 159.851 246.160, 161.003 244.737, 161.006 244.298 C 161.010 243.859, 162.260 242.791, 163.785 241.924 C 165.758 240.801, 167.052 238.784, 168.276 234.924 C 170.924 226.566, 173 217.182, 173 213.566 L 173 210.293 167.782 211.646 C 160.868 213.440, 155.953 213.356, 153.155 211.396 C 151.800 210.447, 149.779 210, 148.201 210.302 C 146.719 210.585, 144.196 210.099, 142.518 209.207 C 140.858 208.325, 138.752 207.714, 137.839 207.849 C 136.925 207.985, 135.886 207.624, 135.530 207.048 C 134.816 205.894, 131.703 205.631, 130.694 206.639" stroke="none" fill="black" fill-rule="evenodd"/>
</svg>