<svg xmlns="http://www.w3.org/2000/svg" width="300" height="300" viewBox="0 0 300 300" version="1.1">
	<path d="M 151.479 15.392 C 149.819 16.605, 149.755 17, 150.980 18.476 C 152.695 20.542, 159.963 25.600, 165.449 28.545 C 167.677 29.740, 171.612 31.907, 174.192 33.359 C 176.773 34.812, 179.424 36, 180.082 36 C 180.740 36, 183.432 37.325, 186.063 38.944 C 190.275 41.535, 190.999 41.706, 192.110 40.367 C 194.099 37.970, 190.683 32.665, 185.399 29.948 C 182.980 28.704, 181 27.359, 181 26.959 C 181 26.560, 180.213 25.949, 179.250 25.601 C 177.444 24.948, 176.455 24.366, 169.270 19.730 C 166.943 18.228, 164.636 17, 164.142 17 C 163.649 17, 162.685 16.325, 162 15.500 C 160.432 13.610, 154.006 13.544, 151.479 15.392 M 211.500 42.759 C 210.400 42.926, 205.936 43.385, 201.581 43.781 C 196.223 44.267, 193.513 44.948, 193.203 45.885 C 192.838 46.984, 193.547 47.123, 196.622 46.558 C 199.465 46.035, 200.210 46.142, 199.414 46.958 C 198.816 47.571, 196.566 48.351, 194.414 48.691 C 192.261 49.031, 190.266 49.661, 189.981 50.090 C 189.695 50.520, 187.522 50.611, 185.151 50.293 C 181.527 49.807, 180.921 49.411, 181.341 47.804 C 181.781 46.120, 181.355 45.929, 177.748 46.196 C 175.343 46.375, 173.465 47.078, 173.194 47.902 C 172.867 48.893, 173.325 49.148, 174.755 48.774 C 175.868 48.483, 177.391 48.633, 178.139 49.107 C 179.222 49.793, 179.164 49.973, 177.857 49.985 C 176.953 49.993, 175.955 50.675, 175.638 51.500 C 174.991 53.188, 169.473 53.575, 168.500 52 C 168.160 51.450, 166.896 50.964, 165.691 50.921 C 163.762 50.852, 163.829 50.722, 166.250 49.838 C 170.757 48.192, 169.142 45.246, 164.386 46.439 C 162.529 46.905, 162.036 47.537, 162.468 48.898 C 162.953 50.428, 162.344 50.826, 158.775 51.309 C 156.424 51.628, 154.366 51.511, 154.202 51.050 C 154.038 50.589, 153.026 50.442, 151.952 50.723 C 150.877 51.004, 150 50.732, 150 50.117 C 150 49.443, 151.985 49, 155 49 C 158.570 49, 160 48.608, 160 47.628 C 160 46.616, 157.841 46.132, 151.750 45.779 C 143.814 45.319, 137 46.274, 137 47.846 C 137 48.259, 135.313 48.651, 133.250 48.717 C 125.258 48.971, 122.020 50.071, 121.345 52.761 C 120.994 54.159, 121.208 56.696, 121.820 58.401 C 122.431 60.105, 123.388 66, 123.946 71.500 C 125.494 86.756, 126.779 95.290, 128.019 98.545 C 128.637 100.170, 129.563 103.705, 130.075 106.401 C 131.129 111.951, 132.457 114, 135 114 C 138.669 114, 139.206 111.682, 137.554 102.972 C 136.699 98.466, 136 92.360, 136 89.404 C 136 86.448, 135.573 82.110, 135.052 79.764 C 133.291 71.851, 132.055 56.766, 133.019 54.965 C 134.546 52.111, 137.105 51.750, 139.546 54.043 C 141.691 56.059, 142.533 56.124, 160.640 55.687 C 180.114 55.216, 193.119 53.989, 205.862 51.420 C 213.893 49.801, 215.826 50.045, 218.515 53.017 C 220.433 55.136, 221.211 65.189, 221.468 91.214 C 221.538 98.207, 221.911 104.244, 222.297 104.631 C 222.684 105.017, 223 106.333, 223 107.556 C 223 108.778, 223.791 110.756, 224.759 111.950 C 227.420 115.237, 230.752 113.311, 230.147 108.836 C 230.097 108.470, 230.777 105.770, 231.658 102.836 C 232.967 98.472, 233.148 94.585, 232.649 81.500 C 231.665 55.714, 229.172 45.146, 223.661 43.390 C 221.278 42.631, 214.624 42.286, 211.500 42.759 M 211.557 45.418 C 212.624 46.198, 213.710 46.624, 213.969 46.364 C 214.520 45.814, 211.941 44.038, 210.559 44.015 C 210.041 44.007, 210.491 44.638, 211.557 45.418 M 127.079 65.583 C 127.127 66.748, 127.364 66.985, 127.683 66.188 C 127.972 65.466, 127.936 64.603, 127.604 64.271 C 127.272 63.939, 127.036 64.529, 127.079 65.583 M 224.328 68.587 C 223.993 69.460, 224.429 71.597, 225.296 73.337 L 226.872 76.500 226.936 71.750 C 226.998 67.122, 225.560 65.377, 224.328 68.587 M 45 86 C 45 86.550, 45.702 87, 46.559 87 C 47.416 87, 47.840 86.550, 47.500 86 C 47.160 85.450, 46.459 85, 45.941 85 C 45.423 85, 45 85.450, 45 86 M 47.981 89.782 C 47.036 92.369, 46.497 92.827, 45.435 91.946 C 42.895 89.838, 41.861 91.995, 43.982 94.975 C 45.092 96.533, 46 98.302, 46 98.904 C 46 99.507, 47.048 100, 48.330 100 L 50.660 100 50.340 125.079 C 50.165 138.872, 49.777 150.551, 49.480 151.033 C 49.182 151.514, 49.112 152.941, 49.324 154.204 C 49.535 155.467, 49.515 155.932, 49.279 155.238 C 48.393 152.637, 47 155.278, 47 159.559 C 47 163.718, 48.301 165.553, 49.262 162.750 C 49.497 162.063, 49.510 166, 49.290 171.500 C 49.070 177, 48.856 182.625, 48.815 184 C 48.774 185.375, 49.102 187.625, 49.544 189 C 50.262 191.235, 50.173 191.357, 48.704 190.153 C 47.404 189.087, 46.988 186.483, 46.708 177.653 C 46.382 167.398, 46.352 167.628, 46.333 180.500 C 46.321 188.200, 46.188 194.950, 46.038 195.500 C 45.887 196.050, 45.816 197.149, 45.882 197.941 C 45.969 199.003, 46.374 198.871, 47.418 197.443 C 49.389 194.748, 50.114 195.946, 48.996 200.051 C 48.480 201.948, 47.780 207.424, 47.441 212.221 C 47.031 218.033, 46.438 220.868, 45.663 220.721 C 45.022 220.599, 44.360 221.944, 44.189 223.716 C 43.923 226.465, 44.257 227.026, 46.490 227.587 C 50.920 228.699, 53 223.398, 53 210.997 C 53 208.399, 53.483 203.849, 54.074 200.886 C 54.727 197.617, 55.226 177.496, 55.345 149.682 L 55.541 103.864 65.072 103.560 C 71.404 103.358, 75.661 102.710, 77.752 101.628 C 81.928 99.469, 84.701 99.572, 85.965 101.934 C 86.534 102.998, 86.994 108.736, 86.986 114.684 C 86.967 130.561, 89.132 159.373, 90.410 160.235 C 91.184 160.757, 91.172 160.974, 90.367 160.985 C 89.743 160.993, 88.983 161.955, 88.678 163.123 C 88.191 164.987, 87.659 165.160, 84.311 164.544 C 82.215 164.158, 78.530 162.978, 76.123 161.921 C 71.127 159.728, 66.947 159.453, 65.200 161.200 C 63.228 163.172, 63.788 165.831, 66.250 166.180 C 67.487 166.356, 68.935 167.491, 69.467 168.702 C 70.619 171.327, 78.460 173.558, 83.201 172.610 C 87.186 171.813, 89 173.381, 89 177.622 C 89 179.480, 89.404 181, 89.897 181 C 90.391 181, 91.064 186.512, 91.394 193.250 C 91.723 199.988, 92.255 207.975, 92.575 211 L 93.156 216.500 84.328 216.205 C 79.473 216.042, 73.925 215.942, 72 215.981 C 70.075 216.020, 67.518 215.531, 66.317 214.893 C 63.314 213.298, 61.309 214.315, 60.539 217.824 C 60.051 220.045, 59.438 220.666, 58.082 220.311 C 55.758 219.703, 54.649 222.464, 56.575 224.062 C 58.933 226.020, 90.056 223.332, 90.798 221.107 C 91.525 218.924, 93.853 220.056, 94.477 222.896 C 95.371 226.965, 98.492 229.667, 100.435 228.054 C 102.204 226.586, 102.040 207.401, 100.082 186.643 C 99.414 179.571, 99.109 173.159, 99.403 172.393 C 99.697 171.626, 101.300 171, 102.969 171 C 105.494 171, 106 170.603, 106 168.622 C 106 165.733, 103.839 163.741, 101.627 164.590 C 100.307 165.096, 99.980 164.486, 99.896 161.357 C 99.838 159.236, 99.384 151.425, 98.885 144 C 98.387 136.575, 97.617 123.300, 97.176 114.500 C 96.232 95.676, 95.224 92.983, 89.135 93.024 C 87.136 93.038, 83.515 93.507, 81.088 94.066 C 69.843 96.658, 53 95.648, 53 92.381 C 53 91.622, 52.619 91, 52.153 91 C 51.687 91, 50.827 89.987, 50.243 88.750 C 49.203 86.549, 49.154 86.571, 47.981 89.782 M 130.158 93 C 130.158 94.375, 130.385 94.938, 130.662 94.250 C 130.940 93.563, 130.940 92.438, 130.662 91.750 C 130.385 91.063, 130.158 91.625, 130.158 93 M 193.697 98.180 C 191.084 99.133, 191.016 99.292, 192.697 100.534 C 195.520 102.619, 193.247 103.805, 186 104.029 C 175.521 104.353, 172.814 104.110, 173.554 102.913 C 173.958 102.259, 176.657 101.961, 180.336 102.163 C 185.532 102.450, 186.500 102.236, 186.799 100.738 C 187.121 99.126, 186.401 99.029, 178.326 99.592 C 173.472 99.931, 166.960 100.836, 163.856 101.604 C 160.751 102.372, 156.171 103, 153.677 103 C 149.435 103, 146 104.785, 146 106.990 C 146 110.568, 149.336 112.264, 151.707 109.893 C 152.517 109.083, 153.118 109.352, 153.943 110.893 C 155.302 113.433, 159.277 113.662, 164.730 111.516 C 166.803 110.700, 173 109.601, 178.500 109.075 C 191.195 107.859, 200.882 106.220, 203.705 104.811 C 205.433 103.949, 206.448 104.064, 208.402 105.344 C 209.773 106.242, 211.598 106.708, 212.456 106.378 C 214.934 105.428, 215.506 101.216, 213.464 98.960 C 210.785 96, 207.182 96.404, 200.107 100.457 C 198.790 101.210, 196.990 101.549, 196.107 101.210 C 194.854 100.728, 195.035 100.466, 196.926 100.018 C 199.825 99.333, 200.959 96.966, 198.333 97.079 C 197.325 97.122, 195.239 97.618, 193.697 98.180 M 166.500 104.335 C 165.400 105.095, 162.813 106.025, 160.750 106.403 C 158.450 106.825, 157 107.653, 157 108.545 C 157 110.244, 159.129 110.471, 160.663 108.937 C 161.248 108.352, 163.926 107.559, 166.613 107.174 C 169.936 106.699, 171.500 106.003, 171.500 105.001 C 171.500 102.996, 168.935 102.654, 166.500 104.335 M 46.676 124.402 C 46.051 126.031, 46.891 127.186, 48.139 126.414 C 49.275 125.712, 49.250 123, 48.107 123 C 47.616 123, 46.972 123.631, 46.676 124.402 M 92 137.941 C 92 139.073, 92.450 140, 93 140 C 93.550 140, 94 139.352, 94 138.559 C 94 137.766, 93.550 136.840, 93 136.500 C 92.450 136.160, 92 136.809, 92 137.941 M 221.127 138.387 C 218.779 139.688, 218.776 139.708, 220.877 140.258 C 224.037 141.084, 223.450 142.696, 219.516 143.995 C 215.243 145.405, 212 144.515, 212 141.933 C 212 139.585, 210.965 139.573, 200.485 141.798 C 193.871 143.203, 192.529 143.806, 192.808 145.250 C 192.994 146.213, 192.664 147, 192.073 147 C 191.483 147, 191 146.325, 191 145.500 C 191 144.675, 190.148 144, 189.107 144 C 188.066 144, 186.955 144.675, 186.638 145.500 C 186.291 146.405, 186.633 147, 187.500 147 C 188.367 147, 188.709 147.595, 188.362 148.500 C 187.624 150.422, 183 150.494, 183 148.583 C 183 147.804, 183.563 146.940, 184.250 146.662 C 184.938 146.385, 184.037 146.122, 182.250 146.079 C 180.463 146.036, 179 146.450, 179 147 C 179 147.550, 179.450 148, 180 148 C 180.550 148, 181 148.707, 181 149.572 C 181 150.621, 180.252 151.047, 178.750 150.852 C 177.512 150.693, 175.969 150.893, 175.319 151.297 C 174.670 151.702, 173.856 151.575, 173.510 151.016 C 173.165 150.457, 173.535 150, 174.334 150 C 175.133 150, 176.045 149.325, 176.362 148.500 C 177.050 146.707, 177.116 146.715, 173.128 148.105 C 170.974 148.856, 169.564 148.885, 168.729 148.195 C 168.053 147.636, 165.911 146.882, 163.969 146.519 C 161.137 145.990, 160.066 146.270, 158.564 147.930 C 157.533 149.068, 156.163 150, 155.518 150 C 154.803 150, 154.507 151.094, 154.758 152.807 C 155.338 156.756, 153.202 158.315, 149.148 156.902 C 145.173 155.516, 145.145 154.421, 149.066 153.637 C 153.661 152.718, 151.575 150.917, 146.175 151.141 C 143.604 151.248, 138.967 150.979, 135.871 150.544 C 130.352 149.769, 130.197 149.814, 127.933 152.877 C 126.663 154.594, 125.034 156, 124.312 156 C 121.239 156, 123.571 159.465, 127.250 160.365 C 128.762 160.735, 130 161.485, 130 162.031 C 130 162.612, 131.554 162.789, 133.750 162.457 C 135.813 162.145, 139.075 161.739, 141 161.554 C 142.925 161.369, 146.637 160.883, 149.250 160.473 L 154 159.728 153.936 166.114 C 153.870 172.694, 152.033 183.301, 150.734 184.599 C 150.330 185.003, 150 186.143, 150 187.132 C 150 189.493, 147.314 197.794, 145.463 201.154 C 144.658 202.614, 143.985 204.414, 143.966 205.154 C 143.947 205.894, 143.063 208.300, 142 210.500 C 140.937 212.700, 140.050 215.625, 140.028 217 C 140.006 218.375, 139.315 220.789, 138.494 222.364 C 137.672 223.940, 137 225.820, 137 226.543 C 137 227.266, 136.418 228.452, 135.708 229.179 C 132.975 231.973, 130.028 244.143, 130.008 252.715 C 129.999 256.414, 135.105 263, 137.981 263 C 140.849 263, 142.614 260.213, 141.190 257.932 C 140.535 256.884, 140 252.802, 140 248.860 C 140 243.055, 140.545 240.535, 142.867 235.597 C 144.444 232.244, 146.728 226.350, 147.942 222.500 C 149.156 218.650, 150.742 214.150, 151.465 212.500 C 154.236 206.183, 156.764 199.275, 158.417 193.500 C 159.362 190.200, 160.583 186.406, 161.129 185.068 C 161.676 183.730, 162.824 178.556, 163.680 173.571 C 164.537 168.585, 165.614 163.516, 166.074 162.305 C 167.324 159.018, 171.678 156.629, 177.925 155.803 C 180.991 155.398, 185.188 154.777, 187.250 154.424 C 191.405 153.712, 191.946 154.626, 189.542 158.296 C 187.622 161.226, 187.563 163.882, 188.742 194.500 C 189.661 218.344, 189.367 229.865, 187.450 245.141 C 186.863 249.820, 187.063 251.222, 188.621 253.360 C 190.843 256.408, 192.176 256.586, 195.665 254.300 C 197.648 253.001, 200.065 252.661, 205.916 252.861 C 210.559 253.019, 215.328 252.555, 218.036 251.680 C 224.492 249.596, 242.015 249.439, 245.868 251.432 C 248.182 252.628, 249.523 252.752, 251.607 251.959 C 253.481 251.247, 254.648 251.248, 255.363 251.963 C 257.320 253.920, 262.956 253.135, 265.545 250.545 C 268.356 247.735, 268.421 246.622, 266.448 235 C 264.023 220.711, 262.920 208.738, 263.569 203.754 C 264.060 199.977, 263.867 198.886, 262.619 198.407 C 257.770 196.547, 254.619 208.538, 255.590 225.150 L 256.289 237.094 259.644 238.496 C 261.764 239.382, 263 240.590, 263 241.777 C 263 243.383, 262.307 243.626, 258.250 243.445 C 255.637 243.329, 252.781 243.610, 251.903 244.070 C 250.972 244.558, 249.877 244.477, 249.275 243.875 C 247.479 242.079, 240.687 240.985, 235.261 241.617 C 229.809 242.252, 228.927 244, 234.059 244 C 236.072 244, 237 244.498, 237 245.580 C 237 246.929, 236.050 247.057, 230.494 246.462 C 226.112 245.993, 223.536 246.140, 222.605 246.913 C 220.635 248.548, 212.972 247.236, 213.683 245.384 C 214.248 243.911, 216.764 243.588, 219.502 244.639 C 220.831 245.149, 220.898 245.449, 219.834 246.124 C 218.724 246.827, 218.726 246.972, 219.842 246.985 C 220.581 246.993, 222.327 246.101, 223.723 245.003 L 226.262 243.006 213.531 243.070 C 206.529 243.105, 200.590 242.923, 200.334 242.667 C 200.077 242.411, 199.741 221.640, 199.586 196.511 C 199.385 163.961, 199.620 150.733, 200.402 150.516 C 202.869 149.832, 219.078 147.834, 227.390 147.190 C 235.020 146.598, 236.383 146.217, 237.010 144.500 C 238.788 139.628, 233.990 135.597, 229.361 138.075 C 227.516 139.062, 226.686 139.086, 225.780 138.180 C 224.333 136.733, 224.091 136.743, 221.127 138.387 M 198.500 144 C 198.160 144.550, 198.148 145.430, 198.473 145.956 C 199.296 147.287, 202 146.089, 202 144.393 C 202 142.794, 199.424 142.505, 198.500 144 M 93.195 157.500 C 93.215 159.150, 93.439 159.704, 93.693 158.731 C 93.947 157.758, 93.930 156.408, 93.656 155.731 C 93.382 155.054, 93.175 155.850, 93.195 157.500 M 192.015 173.750 C 192.024 176.363, 192.467 179.175, 193 180 C 193.683 181.057, 193.974 179.654, 193.985 175.250 C 193.993 171.740, 193.562 169, 193 169 C 192.450 169, 192.007 171.137, 192.015 173.750 M 156.079 182.583 C 156.127 183.748, 156.364 183.985, 156.683 183.188 C 156.972 182.466, 156.936 181.603, 156.604 181.271 C 156.272 180.939, 156.036 181.529, 156.079 182.583 M 193.195 190.500 C 193.215 192.150, 193.439 192.704, 193.693 191.731 C 193.947 190.758, 193.930 189.408, 193.656 188.731 C 193.382 188.054, 193.175 188.850, 193.195 190.500 M 45.195 206.500 C 45.215 208.150, 45.439 208.704, 45.693 207.731 C 45.947 206.758, 45.930 205.408, 45.656 204.731 C 45.382 204.054, 45.175 204.850, 45.195 206.500 M 146 207.559 C 146 208.416, 146.450 208.840, 147 208.500 C 147.550 208.160, 148 207.459, 148 206.941 C 148 206.423, 147.550 206, 147 206 C 146.450 206, 146 206.702, 146 207.559 M 45.158 216 C 45.158 217.375, 45.385 217.938, 45.662 217.250 C 45.940 216.563, 45.940 215.438, 45.662 214.750 C 45.385 214.063, 45.158 214.625, 45.158 216 M 69 218.904 C 69 219.788, 71.360 221, 73.082 221 C 75.244 221, 73.769 218.417, 71.500 218.229 C 70.125 218.116, 69 218.419, 69 218.904 M 138.750 229.083 C 136.446 231.606, 136.535 233, 139 233 C 140.556 233, 141 232.333, 141 230 C 141 226.541, 141.052 226.562, 138.750 229.083 M 192.175 242.750 C 192.079 246.188, 192 249.338, 192 249.750 C 192 250.162, 193.681 250.500, 195.736 250.500 C 198.500 250.500, 199.560 250.044, 199.810 248.750 C 200.052 247.492, 199.494 246.996, 197.823 246.985 C 194.158 246.961, 193.166 245.788, 192.744 240.984 C 192.407 237.155, 192.324 237.413, 192.175 242.750 M 203.813 247.683 C 204.534 247.972, 205.397 247.936, 205.729 247.604 C 206.061 247.272, 205.471 247.036, 204.417 247.079 C 203.252 247.127, 203.015 247.364, 203.813 247.683 M 229 248.059 C 229 248.641, 229.450 248.840, 230 248.500 C 230.550 248.160, 231 247.684, 231 247.441 C 231 247.198, 230.550 247, 230 247 C 229.450 247, 229 247.477, 229 248.059" stroke="none" fill="black" fill-rule="evenodd"/>
</svg>