<svg xmlns="http://www.w3.org/2000/svg" width="300" height="300" viewBox="0 0 300 300" version="1.1">
	<path d="M 187.035 13.815 C 185.331 14.391, 182.097 18.042, 181.999 19.500 C 181.962 20.050, 181.063 22.300, 180 24.500 C 178.937 26.700, 178.053 29.936, 178.034 31.691 C 178.015 33.446, 177.607 35.125, 177.127 35.422 C 176.647 35.718, 174.995 38.557, 173.457 41.731 C 171.918 44.904, 170.313 47.735, 169.890 48.022 C 169.043 48.596, 164 55.847, 164 56.491 C 164 57.696, 156.498 69.426, 153.937 72.224 C 149.590 76.974, 143 88.451, 143 91.270 C 143 94.242, 145.869 97, 148.963 97 C 152.568 97, 159.413 94.742, 160.327 93.251 C 161.082 92.021, 170.918 87, 172.576 87 C 172.963 87, 173.823 86.256, 174.488 85.347 C 175.842 83.495, 178 84.299, 178 86.655 C 178 87.500, 177.394 89.386, 176.653 90.846 C 174.977 94.148, 171.928 100.676, 168.415 108.480 C 166.935 111.770, 164.582 116.270, 163.187 118.480 C 156.175 129.592, 151.674 136, 150.880 136 C 150.396 136, 150 136.517, 150 137.149 C 150 137.781, 148.425 139.828, 146.500 141.697 C 141.304 146.744, 141.852 152, 147.575 152 C 149.025 152, 160.681 140.631, 166.547 133.495 C 168.357 131.293, 170.150 128.251, 170.530 126.736 C 170.910 125.221, 171.610 123.741, 172.085 123.448 C 173.056 122.848, 189.756 88.985, 192.552 81.947 C 194.110 78.026, 195.135 77.027, 199.931 74.751 C 208.204 70.826, 213 66.486, 213 62.927 C 213 59.332, 212.058 59.244, 208.951 62.552 C 206.409 65.258, 200.283 68.308, 193.981 70.005 C 191.883 70.570, 188.891 71.697, 187.333 72.510 C 185.775 73.323, 183.768 73.990, 182.872 73.994 C 181.977 73.997, 180.685 74.675, 180 75.500 C 179.315 76.325, 178.053 77, 177.194 77 C 176.336 77, 173.009 77.932, 169.802 79.070 C 161.451 82.035, 160.145 81.487, 163.678 76.500 C 166.529 72.476, 167.628 70.442, 170.436 64 C 171.756 60.970, 176.958 52.963, 179.972 49.319 C 181.895 46.996, 187.132 36.680, 188.632 32.264 C 189.471 29.791, 189.893 26.708, 189.568 25.414 C 189.117 23.618, 189.584 22.663, 191.541 21.381 C 196.394 18.201, 192.652 11.917, 187.035 13.815 M 214.750 39.080 C 212.294 40.510, 212.563 44.466, 215.236 46.241 C 216.963 47.387, 217.220 48.042, 216.363 49.113 C 215.016 50.797, 213.956 61, 215.128 61 C 215.587 61, 216.230 62.237, 216.559 63.750 C 216.887 65.263, 217.525 67.400, 217.977 68.500 C 218.429 69.600, 219.348 71.963, 220.020 73.750 C 220.693 75.537, 221.589 77, 222.013 77 C 222.437 77, 223.045 78.013, 223.365 79.250 C 224.257 82.701, 233.287 92.745, 237.546 95.025 C 242.193 97.512, 245.853 93.375, 242.099 89.878 C 240.912 88.772, 238.717 86.030, 237.221 83.784 C 235.724 81.538, 234.162 79.206, 233.750 78.600 C 231.212 74.880, 225.792 61.191, 224 53.980 C 219.780 36.991, 219.396 36.374, 214.750 39.080 M 200.528 83.954 C 200.204 84.479, 200.224 86.042, 200.572 87.429 C 201.089 89.489, 200.724 90.168, 198.578 91.146 C 195.215 92.679, 194.666 95.071, 195.349 105.230 C 196.195 117.807, 196.917 120.555, 200.352 124.271 C 207.877 132.414, 221.347 135.498, 229.739 131 C 231.791 129.900, 234.152 128.993, 234.985 128.985 C 236.328 128.971, 236.330 128.858, 235 127.985 C 233.667 127.109, 233.667 126.891, 235 126.015 C 237.154 124.601, 239 124.776, 239 126.395 C 239 127.511, 239.748 127.597, 242.750 126.825 C 244.813 126.295, 247.482 125.620, 248.683 125.327 C 251.293 124.688, 252.347 122.519, 250.691 121.196 C 248.405 119.371, 245.243 118.958, 242.382 120.111 C 240.797 120.750, 237.536 121.381, 235.135 121.514 C 232.734 121.647, 230.399 122.354, 229.947 123.085 C 228.947 124.705, 220.011 125.230, 218.239 123.773 C 217.545 123.203, 215.520 121.978, 213.739 121.051 C 211.626 119.951, 209.527 117.476, 207.702 113.932 C 205.044 108.773, 204.916 107.907, 205.152 96.683 C 205.350 87.249, 205.108 84.680, 203.950 83.948 C 202.087 82.769, 201.260 82.771, 200.528 83.954 M 102.776 86.558 C 102.249 87.084, 83.164 88.065, 74.500 88.010 C 68.605 87.973, 64.650 90.476, 63.184 95.174 C 60.967 102.279, 63.465 102.796, 72 97 C 78.113 92.849, 79.601 92.303, 80.169 94.007 C 80.360 94.580, 82.139 94.138, 84.302 92.978 C 88.273 90.850, 90 91.059, 90 93.667 C 90 94.821, 90.639 95.056, 92.501 94.589 C 98.709 93.031, 104.025 92.776, 105.460 93.966 C 106.278 94.645, 107.245 96.843, 107.608 98.850 C 107.972 100.858, 108.966 104.272, 109.819 106.439 C 110.965 109.351, 111.060 110.480, 110.184 110.772 C 108.744 111.252, 108.612 114.642, 110 115.500 C 110.550 115.840, 111 117.441, 111 119.059 C 111 120.677, 111.499 122, 112.108 122 C 112.802 122, 112.973 122.971, 112.565 124.596 C 112.188 126.099, 112.419 127.800, 113.114 128.637 C 115.679 131.728, 115.810 159.348, 113.394 187.694 C 112.772 194.984, 111.852 196.690, 107.075 199.411 C 102.042 202.278, 95.442 206.806, 92.093 209.691 C 90.055 211.446, 85.488 214.421, 81.944 216.302 C 78.400 218.183, 73.925 220.683, 72 221.857 C 67.241 224.761, 66.879 224.607, 67.616 220 C 68.133 216.769, 67.956 216, 66.695 216 C 65.837 216, 64.849 216.900, 64.500 218 C 63 222.725, 62.412 218.981, 62.182 203.250 C 62.048 194.037, 61.676 185.034, 61.356 183.241 C 61.036 181.449, 60.667 175.599, 60.535 170.241 C 60.258 158.923, 58.520 141.702, 57.107 136.269 C 56.568 134.196, 55.854 125.874, 55.520 117.776 C 54.887 102.420, 53.445 95.724, 50.651 95.177 C 49.743 94.999, 49 95.413, 49 96.098 C 49 96.782, 48.307 98.108, 47.461 99.043 C 46.196 100.441, 45.926 103.871, 45.947 118.271 C 45.963 128.844, 46.419 136.929, 47.099 138.649 C 48.812 142.989, 50.810 170.734, 51.615 201.382 C 52.106 220.070, 52.672 222.698, 57.291 227.750 C 59.752 230.441, 61.688 230.593, 64.230 228.292 C 65.755 226.912, 66.442 226.816, 67.809 227.794 C 73.302 231.725, 76.538 231.306, 83.096 225.811 C 85.518 223.782, 89.075 221.066, 91 219.776 C 92.925 218.487, 94.644 216.434, 94.820 215.216 C 95.060 213.552, 95.814 213, 97.849 213 C 99.789 213, 102.182 211.415, 106.269 207.425 C 113.606 200.262, 115.031 200.502, 115.601 209 C 115.879 213.153, 116.572 215.901, 117.518 216.610 C 118.333 217.221, 119 218.233, 119 218.860 C 119 220.637, 124.969 220.245, 125.668 218.423 C 126.001 217.555, 125.870 211.897, 125.377 205.849 C 124.884 199.801, 124.656 194.677, 124.870 194.463 C 125.767 193.566, 124.808 129.839, 123.851 126.785 C 123.285 124.978, 122.481 120.125, 122.064 116 C 121.476 110.187, 120.347 106.538, 117.040 99.773 C 114.694 94.974, 111.639 89.911, 110.251 88.523 C 107.934 86.207, 104.128 85.206, 102.776 86.558 M 47.109 91.369 C 45.662 93.112, 47.007 94.232, 49.039 92.976 C 50.077 92.335, 50.178 91.778, 49.399 90.999 C 48.621 90.221, 47.976 90.325, 47.109 91.369 M 200 115.294 C 200 116.098, 200.718 117.351, 201.596 118.080 C 202.990 119.236, 203.148 119.103, 202.846 117.030 C 202.468 114.436, 200 112.931, 200 115.294 M 166.261 119.954 C 165.567 121.065, 165.433 122.150, 165.951 122.470 C 166.908 123.061, 167.294 122.617, 168.314 119.750 C 169.155 117.389, 167.777 117.526, 166.261 119.954 M 163.200 126.200 C 161.567 127.833, 161.692 129, 163.500 129 C 164.333 129, 165 128.111, 165 127 C 165 124.669, 164.814 124.586, 163.200 126.200 M 220.250 126.723 C 218.463 126.945, 217 127.500, 217 127.956 C 217 129.203, 220.017 130.111, 221.340 129.264 C 221.978 128.855, 224.485 128.516, 226.912 128.510 C 229.541 128.504, 231.494 127.995, 231.745 127.250 C 232.170 125.991, 227.777 125.789, 220.250 126.723 M 214 128 C 214 128.550, 214.450 129, 215 129 C 215.550 129, 216 128.550, 216 128 C 216 127.450, 215.550 127, 215 127 C 214.450 127, 214 127.450, 214 128 M 182 150.583 C 182 152.349, 184.153 152.042, 184.771 150.188 C 184.989 149.534, 184.454 149, 183.583 149 C 182.713 149, 182 149.713, 182 150.583 M 173.613 155.468 C 172.724 156.825, 171.061 160.312, 169.918 163.218 C 166.940 170.786, 163.839 176, 162.316 176 C 161.592 176, 161 175.434, 161 174.742 C 161 172.713, 155.991 163.737, 153.184 160.736 C 150.900 158.294, 150.427 158.145, 149.116 159.455 C 147.806 160.765, 147.829 161.154, 149.317 162.798 C 150.502 164.108, 151 166.439, 151 170.683 C 151 175.643, 151.421 177.162, 153.380 179.276 C 155.383 181.437, 155.648 182.454, 155.056 185.695 C 154.668 187.814, 152.783 192.011, 150.865 195.023 C 148.947 198.036, 147.075 201.175, 146.703 202 C 146.332 202.825, 145.339 204.442, 144.497 205.593 C 143.096 207.506, 143.144 207.913, 145.055 210.343 C 147.154 213.011, 150 213.926, 150 211.933 C 150 211.347, 151.061 209.434, 152.358 207.683 C 153.656 205.932, 155.977 202.137, 157.517 199.250 C 161.181 192.381, 163.318 192.312, 165.689 198.986 C 166.663 201.728, 168.934 205.582, 170.737 207.549 C 172.539 209.517, 174.695 212.444, 175.528 214.054 C 176.360 215.664, 178.119 217.687, 179.437 218.551 C 184.224 221.687, 183.670 223.656, 175.495 232.561 C 173.023 235.253, 171 237.804, 171 238.228 C 171 238.653, 170.433 239, 169.740 239 C 169.048 239, 164.520 243.043, 159.680 247.985 C 150.969 256.878, 140.561 264, 136.276 264 C 135.159 264, 132.566 263.299, 130.514 262.441 C 125.527 260.358, 124.733 261.552, 128.823 264.981 C 134.202 269.491, 143.466 269.753, 151.433 265.619 C 154.587 263.983, 165.494 254.454, 171.831 247.798 C 177.447 241.899, 189.547 231, 190.479 231 C 191.893 231, 201.250 240.806, 204.732 245.937 C 206.029 247.848, 208.777 250.556, 210.840 251.956 C 216.512 255.804, 226.817 264.039, 231.225 268.246 C 236.625 273.399, 239.081 275, 241.588 275 C 242.766 275, 244.803 275.834, 246.115 276.853 C 248.998 279.093, 264.499 281.339, 267.178 279.905 C 270.121 278.330, 267.982 274.508, 264.135 274.466 C 262.411 274.447, 261 274.837, 261 275.333 C 261 275.828, 259.988 275.996, 258.750 275.705 C 257.512 275.415, 255.427 274.927, 254.116 274.620 C 252.805 274.314, 251.121 273.189, 250.372 272.121 C 249.624 271.053, 246.647 268.476, 243.756 266.394 C 238.571 262.660, 236.986 261.361, 225.588 251.500 C 222.409 248.750, 218.952 246.094, 217.904 245.597 C 216.857 245.101, 216 244.303, 216 243.825 C 216 243.346, 213.750 240.809, 211 238.186 C 208.250 235.563, 206 233.121, 206 232.760 C 206 232.399, 204.815 230.842, 203.367 229.302 C 201.919 227.761, 200.085 224.970, 199.291 223.099 C 197.941 219.920, 197.997 219.496, 200.151 216.599 C 213.406 198.768, 220.523 184.300, 222.753 170.651 C 224.356 160.844, 224.016 156.604, 221.549 155.657 C 220.208 155.142, 213.424 156.893, 208.500 159.025 C 207.400 159.501, 203.800 160.413, 200.500 161.052 C 197.200 161.690, 192.111 163.128, 189.190 164.246 C 182.630 166.760, 181.162 165.826, 183.609 160.694 C 185.033 157.707, 185.103 156.829, 184.019 155.523 C 182.832 154.093, 182.553 154.095, 180.947 155.548 C 179.317 157.023, 179.131 156.987, 178.523 155.073 C 177.640 152.291, 175.586 152.456, 173.613 155.468 M 89.924 161.312 C 88.508 162.076, 85.279 162.934, 82.749 163.219 C 80.219 163.504, 77.006 164.637, 75.608 165.736 C 72.795 167.949, 73.183 169.508, 76.152 167.919 C 78.492 166.667, 80 167.506, 80 170.059 C 80 171.127, 80.494 172, 81.099 172 C 83.246 172, 89.091 168.708, 90.490 166.710 C 91.592 165.138, 92.220 164.937, 93.282 165.819 C 94.307 166.670, 95.421 166.667, 97.695 165.809 C 100.259 164.841, 101.388 164.983, 104.883 166.712 C 107.294 167.905, 109.275 168.363, 109.619 167.808 C 110.619 166.190, 106.030 162.234, 102.420 161.600 C 100.539 161.270, 97.537 160.758, 95.750 160.462 C 93.868 160.150, 91.416 160.508, 89.924 161.312 M 207.648 164.472 C 206.080 165.305, 203.780 165.732, 202.539 165.420 C 201.029 165.041, 197.833 166.153, 192.890 168.777 C 188.826 170.934, 183.173 173.467, 180.329 174.404 C 176.208 175.762, 174.949 176.706, 174.131 179.054 C 173.566 180.674, 172.662 182, 172.122 182 C 168.499 182, 174.030 196.209, 181.139 205.167 C 182.988 207.496, 184.963 210.324, 185.530 211.451 C 187.577 215.526, 190.255 213.909, 195.248 205.581 C 197.859 201.226, 200.672 196.915, 201.498 196.002 C 202.324 195.089, 203 193.815, 203 193.171 C 203 192.527, 203.414 192, 203.921 192 C 204.427 192, 205.154 190.537, 205.536 188.750 C 205.918 186.963, 206.785 184.375, 207.462 183 C 208.140 181.625, 209.729 178.250, 210.995 175.500 C 212.260 172.750, 213.614 169.827, 214.003 169.005 C 214.393 168.183, 215.557 167.508, 216.589 167.505 C 217.622 167.502, 218.620 166.713, 218.807 165.750 C 219.051 164.491, 218.495 163.996, 216.823 163.986 C 215.545 163.979, 213.600 163.744, 212.500 163.465 C 211.400 163.186, 209.217 163.639, 207.648 164.472 M 54.446 166.087 C 54.077 166.685, 54.275 167.675, 54.887 168.287 C 55.704 169.104, 56 168.815, 56 167.200 C 56 164.785, 55.481 164.413, 54.446 166.087 M 119.232 170 C 119.232 171.925, 119.438 172.713, 119.689 171.750 C 119.941 170.787, 119.941 169.213, 119.689 168.250 C 119.438 167.287, 119.232 168.075, 119.232 170 M 70 170.031 C 70 170.564, 69.100 171, 68 171 C 65.332 171, 65.457 173.506, 68.223 175.443 C 72.598 178.508, 79.142 176.419, 77.617 172.444 C 77.212 171.389, 76.342 171.074, 75.005 171.498 C 73.902 171.848, 73 171.703, 73 171.174 C 73 170.646, 72.325 169.955, 71.500 169.638 C 70.675 169.322, 70 169.499, 70 170.031 M 54.700 180.341 C 54.417 181.078, 54.587 182.316, 55.077 183.091 C 55.727 184.116, 55.974 183.751, 55.985 181.750 C 56.001 178.764, 55.511 178.226, 54.700 180.341 M 157 180.845 C 157 181.310, 157.900 182.505, 159 183.500 C 161.201 185.492, 161.558 184.912, 159.965 181.934 C 158.921 179.984, 157 179.279, 157 180.845 M 55.731 190.080 C 56.085 191.432, 56.538 191.886, 56.788 191.137 C 57.028 190.415, 56.750 189.350, 56.168 188.768 C 55.426 188.026, 55.296 188.417, 55.731 190.080 M 164 190 C 164 190.550, 164.477 191, 165.059 191 C 165.641 191, 165.840 190.550, 165.500 190 C 165.160 189.450, 164.684 189, 164.441 189 C 164.198 189, 164 189.450, 164 190 M 205.750 195.377 C 202.963 197.605, 201.958 202.021, 204.250 201.974 C 205.434 201.950, 209.622 194.281, 208.860 193.533 C 208.662 193.338, 207.262 194.168, 205.750 195.377 M 170.748 200.464 C 171.235 203.010, 172.418 203.750, 173.417 202.134 C 173.712 201.657, 173.123 200.516, 172.108 199.598 C 170.357 198.013, 170.288 198.056, 170.748 200.464 M 56.015 216.750 C 56.026 218.751, 56.273 219.116, 56.923 218.091 C 57.413 217.316, 57.583 216.078, 57.300 215.341 C 56.489 213.226, 55.999 213.764, 56.015 216.750 M 192.230 227.189 C 192.797 228.891, 197.846 232.488, 198.604 231.730 C 198.954 231.380, 198.953 229.947, 198.601 228.547 C 198.090 226.511, 197.347 226, 194.898 226 C 192.974 226, 191.981 226.443, 192.230 227.189 M 198.610 234.427 C 199.320 236.276, 202.363 236.589, 201.750 234.750 C 201.522 234.063, 200.586 233.355, 199.671 233.177 C 198.511 232.952, 198.190 233.331, 198.610 234.427 M 208.015 243.688 C 208.043 245.180, 209.594 246.987, 213.006 249.504 C 216.667 252.205, 220.071 252.995, 218.168 250.702 C 216.449 248.632, 207.998 242.793, 208.015 243.688 M 223.079 256.583 C 223.127 257.748, 223.364 257.985, 223.683 257.188 C 223.972 256.466, 223.936 255.603, 223.604 255.271 C 223.272 254.939, 223.036 255.529, 223.079 256.583 M 153.500 257 C 153.160 257.550, 153.359 258, 153.941 258 C 154.523 258, 155 257.550, 155 257 C 155 256.450, 154.802 256, 154.559 256 C 154.316 256, 153.840 256.450, 153.500 257 M 233.500 265 C 233.840 265.550, 234.316 266, 234.559 266 C 234.802 266, 235 265.550, 235 265 C 235 264.450, 234.523 264, 233.941 264 C 233.359 264, 233.160 264.450, 233.500 265 M 246 272.354 C 247.375 273.082, 248.920 273.448, 249.434 273.166 C 250.454 272.607, 247.401 271.174, 245 271.085 C 244.175 271.054, 244.625 271.625, 246 272.354 M 275.813 272.683 C 276.534 272.972, 277.397 272.936, 277.729 272.604 C 278.061 272.272, 277.471 272.036, 276.417 272.079 C 275.252 272.127, 275.015 272.364, 275.813 272.683" stroke="none" fill="black" fill-rule="evenodd"/>
</svg>