<svg xmlns="http://www.w3.org/2000/svg" width="300" height="300" viewBox="0 0 300 300" version="1.1">
	<path d="M 161.200 21.200 C 159.259 23.141, 159.813 25.648, 162.585 27.463 C 165.018 29.058, 165.281 29.055, 167.085 27.423 C 168.138 26.470, 169 25.085, 169 24.345 C 169 23.605, 169.482 23, 170.071 23 C 170.661 23, 170.468 22.325, 169.643 21.500 C 167.844 19.702, 162.875 19.525, 161.200 21.200 M 182.245 28.155 C 180.902 29.498, 180.452 42.995, 181.750 43.007 C 182.162 43.011, 183.480 44.473, 184.678 46.257 C 189.077 52.809, 192.131 87.013, 189.967 105.500 C 189.259 111.550, 188.639 117.700, 188.590 119.167 C 188.540 120.633, 188.162 122.171, 187.750 122.583 C 187.338 122.996, 187 124.663, 187 126.289 C 187 128.671, 187.265 129.025, 188.363 128.114 C 189.204 127.416, 189.998 123.636, 190.434 118.258 C 190.824 113.460, 191.535 109.061, 192.015 108.483 C 194.975 104.915, 196.006 84.500, 193.958 70 C 193.453 66.425, 193.031 60.942, 193.020 57.815 C 193.009 54.688, 192.457 50.863, 191.793 49.315 C 191.129 47.767, 190.342 42.225, 190.043 37 L 189.500 27.500 186.495 27.205 C 184.842 27.043, 182.930 27.470, 182.245 28.155 M 43.142 44.250 C 43.320 49.051, 42.323 53, 40.933 53 C 40.420 53, 40 51.186, 40 48.969 C 40 46.195, 39.501 44.746, 38.399 44.323 C 36.392 43.553, 34.801 45.856, 35.513 48.500 C 35.809 49.600, 36.328 52.645, 36.667 55.266 C 37.176 59.205, 37.697 60.137, 39.668 60.631 C 42.490 61.340, 44 63.798, 44 67.685 C 44 69.233, 44.667 73.651, 45.483 77.500 C 46.573 82.646, 46.970 91.402, 46.983 110.559 C 46.997 131.904, 47.266 136.969, 48.468 138.559 C 49.282 139.635, 49.959 142.728, 49.988 145.500 C 50.047 151.167, 51.772 164.106, 52.577 164.910 C 52.870 165.203, 53.527 164.780, 54.039 163.971 C 55.241 162.071, 55.255 154.411, 54.068 148.299 C 50.515 130.002, 49.883 122.085, 50.367 101.973 C 50.759 85.657, 50.534 79.876, 49.256 73.500 C 48.374 69.100, 47.618 60.325, 47.576 54 C 47.498 42.264, 46.990 40, 44.433 40 C 43.370 40, 43.026 41.133, 43.142 44.250 M 77.500 51.712 C 74.200 52.504, 68.912 54.073, 65.750 55.198 C 59.848 57.298, 59.365 58.025, 60.658 62.855 C 61.223 64.967, 61.689 65.145, 65.181 64.587 C 67.322 64.245, 70.678 63.105, 72.640 62.053 C 74.601 61.002, 76.782 60.363, 77.486 60.633 C 78.190 60.903, 80.372 60.453, 82.335 59.633 C 86.682 57.817, 90.980 59.265, 90.992 62.550 C 90.996 63.678, 91.415 65.028, 91.921 65.550 C 93.824 67.513, 99.990 80.586, 99.995 82.669 C 99.998 83.862, 100.622 86.112, 101.382 87.669 C 105.278 95.649, 106.375 101.729, 107.126 119.500 C 107.885 137.463, 108.471 142.950, 111.346 159.004 C 112.321 164.449, 112.875 173.800, 112.886 185.004 C 112.910 208.310, 114.669 244, 115.963 247.402 C 116.533 248.902, 117 252.609, 117 255.638 C 117 260.345, 116.745 261.098, 115.250 260.813 C 114.287 260.630, 113.352 259.437, 113.170 258.163 C 112.943 256.566, 112.370 256.028, 111.322 256.430 C 110.470 256.757, 108.496 255.912, 106.825 254.506 C 101.371 249.917, 99.577 252.429, 103.105 259.716 C 106.911 267.579, 112.490 271.517, 113.180 266.828 C 113.644 263.681, 115.818 263.425, 116.572 266.429 C 116.926 267.843, 117.843 269, 118.608 269 C 119.627 269, 120.021 267.458, 120.079 263.250 C 120.220 252.936, 119.877 245.617, 118.943 239 C 117.787 230.812, 115.882 197.870, 116.009 188.250 C 116.068 183.782, 115.701 181, 115.053 181 C 113.713 181, 113.670 177.322, 115 176.500 C 116.257 175.723, 116.331 155.602, 115.086 153.236 C 113.610 150.433, 110.912 124.627, 110.563 109.969 C 110.243 96.571, 110.011 95.282, 104.795 78 C 100.594 64.078, 99.625 61.410, 97.844 58.846 C 96.830 57.386, 96 55.777, 96 55.270 C 96 54.763, 94.958 53.370, 93.686 52.174 C 90.979 49.632, 86.674 49.509, 77.500 51.712 M 52.115 58.362 C 50.325 60.518, 51.129 63.500, 53.500 63.500 C 55.915 63.500, 56.522 61.096, 54.726 58.640 C 53.536 57.013, 53.259 56.983, 52.115 58.362 M 63.500 60 C 63.160 60.550, 63.610 61, 64.500 61 C 65.390 61, 65.840 60.550, 65.500 60 C 65.160 59.450, 64.710 59, 64.500 59 C 64.290 59, 63.840 59.450, 63.500 60 M 209.200 62.200 C 207.911 63.489, 207.579 67.245, 208.658 68.325 C 209.020 68.687, 209.931 68.472, 210.682 67.849 C 211.434 67.225, 212.241 66.907, 212.475 67.142 C 212.710 67.377, 213.421 75.635, 214.056 85.494 C 214.690 95.352, 215.602 104.454, 216.084 105.720 C 216.565 106.986, 216.937 115.104, 216.910 123.761 C 216.882 132.417, 216.906 140.850, 216.962 142.500 C 217.061 145.415, 217.108 145.443, 218.644 143.500 C 220.039 141.733, 220.152 137.734, 219.608 109.170 C 218.999 77.112, 217.832 63.180, 215.639 61.765 C 213.891 60.637, 210.536 60.864, 209.200 62.200 M 210.079 78.583 C 210.127 79.748, 210.364 79.985, 210.683 79.188 C 210.972 78.466, 210.936 77.603, 210.604 77.271 C 210.272 76.939, 210.036 77.529, 210.079 78.583 M 184.868 102 C 183.806 103.627, 182.818 108.865, 182.041 117 C 181.383 123.875, 180.430 129.650, 179.923 129.833 C 179.415 130.017, 179 131.649, 179 133.461 C 179 137.113, 177.105 139.286, 174.333 138.811 C 173.260 138.627, 172.144 139.342, 171.603 140.562 C 171.099 141.696, 169.418 143.526, 167.865 144.629 C 164.594 146.953, 156.351 154.561, 155.845 155.724 C 155.293 156.991, 147.314 163, 146.183 163 C 144.632 163, 139 168.004, 139 169.382 C 139 170.045, 137.088 171.281, 134.750 172.130 C 130.917 173.522, 130.470 174.033, 130.190 177.337 C 129.904 180.705, 130.091 181, 132.511 181 C 133.959 181, 135.817 180.326, 136.641 179.502 C 137.466 178.677, 139.346 177.707, 140.820 177.345 C 142.294 176.983, 145.065 175.407, 146.978 173.844 C 148.891 172.280, 151.028 171, 151.728 171 C 152.428 171, 153 170.492, 153 169.871 C 153 169.250, 155.363 166.397, 158.250 163.532 C 165.323 156.512, 171.771 148.919, 174.501 144.395 C 176.691 140.768, 176.783 140.726, 177.911 142.834 C 179.566 145.926, 181 145.509, 181 141.934 C 181 140.248, 181.429 138.067, 181.953 137.088 C 182.477 136.109, 183.123 131.301, 183.389 126.404 C 183.654 121.507, 184.604 114.677, 185.500 111.226 C 186.395 107.775, 186.987 103.725, 186.814 102.226 L 186.500 99.500 184.868 102 M 41.299 104.709 C 40.252 108.557, 40.316 117.080, 41.410 119.500 C 42.235 121.324, 42.378 121.237, 43.039 118.500 C 44.136 113.957, 44.130 103.198, 43.029 102.518 C 42.495 102.188, 41.717 103.174, 41.299 104.709 M 248.575 109.250 C 247.766 110.487, 246.118 113.750, 244.913 116.500 C 242.405 122.225, 236.035 130.489, 226.565 140.302 C 222.954 144.044, 220 147.926, 220 148.930 C 220 151.801, 222.774 153.385, 227.385 153.147 C 230.567 152.982, 232.084 153.435, 233.467 154.964 C 234.481 156.084, 236.310 157, 237.533 157 C 238.755 157, 240.315 157.675, 241 158.500 C 241.860 159.536, 241.898 160, 241.122 160 C 238.909 160, 240.070 161.690, 244.090 164.322 C 250.578 168.570, 254.081 167.330, 247.942 162.959 C 243.364 159.699, 244.923 159.653, 251.580 162.852 C 254.836 164.417, 258.847 166.026, 260.494 166.429 C 265.741 167.711, 268.077 171, 263.741 171 C 262.498 171, 260.954 170.157, 260.311 169.126 C 259.667 168.095, 257.919 166.945, 256.426 166.571 C 253.127 165.743, 250.805 167.486, 253.899 168.468 C 255.055 168.835, 256 169.554, 256 170.067 C 256 170.580, 256.899 171, 257.997 171 C 259.096 171, 262.867 172.357, 266.378 174.016 C 274.077 177.653, 280.242 178.378, 280.792 175.710 C 281.061 174.409, 280.050 173.454, 277.091 172.210 C 274.852 171.270, 273.010 170.050, 272.998 169.500 C 272.967 168.134, 266.778 164.228, 263.320 163.391 C 261.769 163.015, 259.370 161.920, 257.989 160.956 C 254.721 158.676, 238.101 151, 236.432 151 C 234.595 151, 231.996 148.158, 232.022 146.179 C 232.034 145.255, 234.100 142.250, 236.612 139.500 C 239.124 136.750, 241.780 133.065, 242.514 131.311 C 243.247 129.557, 245.578 127.029, 247.693 125.694 C 251.190 123.486, 260 112.254, 260 110.004 C 260 108.547, 256.440 107, 253.089 107 C 251.036 107, 249.567 107.732, 248.575 109.250 M 140.060 111.166 C 137.610 113.795, 137.568 114.263, 139.444 117.893 C 140.377 119.696, 142.503 121.302, 145.444 122.426 C 147.950 123.383, 150 124.520, 150 124.953 C 150 125.386, 152.065 126.318, 154.588 127.025 C 157.112 127.731, 160.724 129.359, 162.614 130.642 C 167.607 134.030, 170.619 134.580, 171.827 132.324 C 172.830 130.449, 171.282 127, 169.437 127 C 168.974 127, 167.224 125.710, 165.548 124.133 C 163.871 122.557, 159.350 119.579, 155.500 117.517 C 151.650 115.455, 147.600 112.987, 146.500 112.032 C 143.022 109.015, 142.170 108.901, 140.060 111.166 M 64.012 124.266 C 60.027 125.676, 59.050 128.293, 61.498 130.998 C 62.966 132.620, 64.893 132.859, 77.156 132.940 C 87.050 133.005, 92.174 133.464, 94.676 134.509 C 98.793 136.229, 100 135.781, 100 132.530 C 100 130.753, 98.962 129.676, 95.749 128.120 C 88.183 124.458, 69.784 122.223, 64.012 124.266 M 97.827 148.250 C 95.267 151.137, 92.254 154.400, 91.132 155.500 C 81.309 165.131, 77.016 169.614, 77.009 170.250 C 77.004 170.662, 76.416 171, 75.701 171 C 74.183 171, 66 178.622, 66 180.037 C 66 180.567, 65.395 181, 64.655 181 C 62.669 181, 59.773 184.589, 60.162 186.568 C 61.540 193.577, 72.298 188.008, 81.543 175.500 C 83.170 173.300, 85.063 170.905, 85.750 170.179 C 86.438 169.452, 87 168.470, 87 167.996 C 87 167.522, 87.877 166.856, 88.949 166.516 C 90.021 166.176, 91.197 164.954, 91.563 163.801 C 91.929 162.648, 93.865 160.084, 95.864 158.102 C 100.087 153.918, 105 146.585, 105 144.465 C 105 141.682, 102.466 143.019, 97.827 148.250 M 184.695 143.639 C 184.313 144.021, 184 146.535, 184 149.226 C 184 154.699, 185.554 154.894, 186.557 149.547 C 187.194 146.151, 185.993 142.340, 184.695 143.639 M 176.903 155.750 C 174.005 163.362, 173.058 176, 175.386 176 C 176.749 176, 176.965 175.062, 178.541 162.250 C 178.901 159.332, 179.701 156.993, 180.344 156.985 C 180.994 156.976, 180.843 156.538, 180 155.985 C 178.667 155.109, 178.667 154.891, 180 154.015 C 181.280 153.175, 181.240 153.028, 179.725 153.015 C 178.702 153.006, 177.507 154.164, 176.903 155.750 M 215.996 154.500 C 215.959 155.600, 215.479 161, 214.930 166.500 C 213.679 179.031, 213.731 200.574, 215.023 205.081 C 215.560 206.954, 216.030 213.440, 216.068 219.493 C 216.109 226.224, 216.453 229.723, 216.953 228.500 C 218.785 224.019, 220.054 216.154, 219.465 212.931 C 219.120 211.044, 218.678 207.025, 218.483 204 C 218.287 200.975, 217.721 194.084, 217.224 188.687 C 216.567 181.551, 216.672 176.914, 217.608 171.687 C 219.329 162.077, 219.305 156.786, 217.532 154.441 C 216.083 152.526, 216.063 152.526, 215.996 154.500 M 210.158 157 C 210.158 158.375, 210.385 158.938, 210.662 158.250 C 210.940 157.563, 210.940 156.438, 210.662 155.750 C 210.385 155.063, 210.158 155.625, 210.158 157 M 182.638 162.500 C 182.322 163.325, 182.499 164, 183.031 164 C 183.564 164, 184 163.325, 184 162.500 C 184 161.675, 183.823 161, 183.607 161 C 183.391 161, 182.955 161.675, 182.638 162.500 M 44.679 170.649 C 43.755 173.939, 43 177.577, 43 178.732 C 43 179.888, 42.438 181.021, 41.750 181.249 C 40.878 181.539, 40.322 185.576, 39.912 194.583 C 39.588 201.687, 38.819 209.975, 38.202 213 C 34.847 229.448, 33.898 241.298, 35.785 243.185 C 37.027 244.427, 37.015 244.468, 39.605 230.500 C 40.523 225.550, 41.203 220.233, 41.116 218.684 C 41.029 217.136, 41.387 214.211, 41.911 212.184 C 42.436 210.158, 43.160 204.014, 43.520 198.531 C 43.881 193.048, 44.748 187.423, 45.448 186.031 C 46.970 183.005, 48.127 169.296, 47.090 166.583 C 46.529 165.117, 45.963 166.071, 44.679 170.649 M 209.543 165.931 C 209.226 166.443, 209.425 167.144, 209.984 167.490 C 210.543 167.835, 211 167.416, 211 166.559 C 211 164.802, 210.400 164.544, 209.543 165.931 M 51.633 168.515 C 50.689 170.973, 50.868 175.199, 51.889 174.568 C 52.378 174.266, 53.078 172.825, 53.445 171.365 C 54.199 168.360, 52.636 165.901, 51.633 168.515 M 106.623 174.540 C 105.812 176.652, 105.993 182.823, 106.959 186 L 107.719 188.500 108.907 185.561 C 109.560 183.945, 109.960 180.605, 109.797 178.139 C 109.495 173.575, 107.752 171.598, 106.623 174.540 M 208.700 174.339 C 208.418 175.075, 208.549 177.212, 208.991 179.089 C 209.775 182.412, 209.798 182.378, 209.898 177.750 C 210.001 172.943, 209.636 171.901, 208.700 174.339 M 206.545 185.859 C 205.825 188.127, 206.872 191.197, 208.105 190.435 C 209.294 189.700, 209.261 184, 208.067 184 C 207.554 184, 206.869 184.837, 206.545 185.859 M 172.183 189.498 C 171.532 190.926, 171 192.973, 171 194.047 C 171 195.121, 170.635 196, 170.189 196 C 169.743 196, 168.780 198.363, 168.049 201.250 C 167.319 204.137, 165.453 208.116, 163.903 210.091 C 160.709 214.159, 158.509 220.176, 157.537 227.500 C 157.172 230.250, 155.327 237.125, 153.437 242.777 C 151.547 248.430, 150 254.081, 150 255.336 C 150 256.591, 149.339 258.491, 148.532 259.559 C 146.807 261.839, 146.573 264.618, 148.030 265.518 C 148.596 265.868, 150.734 264.685, 152.780 262.888 C 156.423 259.689, 156.500 259.472, 156.500 252.465 C 156.500 248.390, 157.014 244.688, 157.693 243.870 C 158.350 243.079, 159.331 239.672, 159.874 236.300 C 161.017 229.206, 163.409 224, 165.526 224 C 167.207 224, 167.488 221.888, 166.004 220.404 C 165.032 219.432, 167.896 212.378, 169.793 211.068 C 170.246 210.756, 171.175 207.350, 171.858 203.500 C 172.540 199.650, 173.590 195.111, 174.191 193.414 C 174.903 191.401, 174.950 189.733, 174.324 188.615 C 173.474 187.096, 173.232 187.196, 172.183 189.498 M 107.079 191.583 C 107.127 192.748, 107.364 192.985, 107.683 192.188 C 107.972 191.466, 107.936 190.603, 107.604 190.271 C 107.272 189.939, 107.036 190.529, 107.079 191.583 M 208.573 227.169 C 206.382 234.185, 205.180 246.039, 206.313 249.439 L 207.215 252.146 209.409 250.085 C 211.740 247.896, 213.205 248.085, 221.651 251.665 C 223.384 252.399, 225.612 253, 226.601 253 C 227.902 253, 228.098 253.302, 227.307 254.093 C 226.517 254.883, 225.650 254.883, 224.173 254.093 C 221.482 252.652, 220 252.710, 220 254.256 C 220 254.947, 222.201 256.522, 224.892 257.756 C 229.143 259.706, 231.444 260, 242.458 260 C 249.428 260, 255.996 259.537, 257.053 258.971 C 258.110 258.406, 262.243 257.327, 266.238 256.574 C 270.232 255.822, 275.750 254.412, 278.500 253.441 C 281.250 252.470, 284.063 251.538, 284.750 251.370 C 287.198 250.769, 286.130 244.078, 282.766 238.940 C 280.987 236.223, 279.215 234, 278.828 234 C 278.441 234, 276.894 231.738, 275.389 228.974 C 273.885 226.210, 272.169 224.115, 271.577 224.319 C 269.927 224.886, 270.939 234.930, 273.100 239.424 C 274.137 241.582, 274.877 243.396, 274.743 243.457 C 274.609 243.517, 273.770 244.121, 272.879 244.799 C 268.749 247.938, 255.635 250.436, 243.449 250.404 C 232.651 250.375, 230.676 250.083, 224.449 247.595 C 220.627 246.067, 216.981 244.389, 216.346 243.865 C 215.711 243.342, 214.023 243.207, 212.596 243.565 C 209.510 244.340, 209.487 244.156, 211.156 232.207 C 211.958 226.473, 211.995 223.595, 211.276 222.876 C 210.558 222.158, 209.724 223.482, 208.573 227.169 M 257.029 253.961 C 254.361 255.648, 256.602 256.034, 260.587 254.574 C 264.417 253.171, 264.437 253.140, 261.500 253.086 C 259.850 253.055, 257.838 253.449, 257.029 253.961 M 233 256 C 233 256.550, 233.702 257, 234.559 257 C 235.416 257, 235.840 256.550, 235.500 256 C 235.160 255.450, 234.459 255, 233.941 255 C 233.423 255, 233 255.450, 233 256" stroke="none" fill="black" fill-rule="evenodd"/>
</svg>