<svg xmlns="http://www.w3.org/2000/svg" width="300" height="300" viewBox="0 0 300 300" version="1.1">
	<path d="M 107.500 46.902 C 105.673 47.638, 105.491 48.695, 105.397 59.104 C 105.286 71.419, 103.714 80.315, 99.613 91.846 C 98.176 95.886, 97 100.183, 97 101.396 C 97 102.608, 96.585 104.028, 96.079 104.550 C 94.384 106.298, 91.174 117.417, 90.081 125.322 C 88.606 135.995, 88.703 138.949, 90.551 139.658 C 92.442 140.384, 97 136.343, 97 133.941 C 97 131.067, 104.942 105.814, 106.103 104.998 C 106.968 104.389, 110 90.078, 110 86.601 C 110 85.235, 110.408 83.866, 110.906 83.558 C 112.358 82.661, 113.218 73.703, 112.128 70.836 C 110.913 67.641, 111.722 64, 113.648 64 C 114.426 64, 117.636 63.160, 120.782 62.133 C 125.223 60.683, 128.733 60.344, 136.500 60.612 C 145.845 60.935, 146.610 60.814, 148.174 58.754 L 149.848 56.550 154.966 58.391 C 159.571 60.046, 160.887 60.107, 168.073 58.989 C 175.374 57.853, 176.231 57.899, 178.031 59.528 C 181.214 62.408, 180.727 65.600, 174.221 84.500 C 172.989 88.080, 172.510 92.623, 172.534 100.500 C 172.564 110.043, 172.872 112.057, 174.863 115.708 L 177.158 119.917 193.551 119.945 C 208.675 119.971, 210.023 119.825, 210.965 118.065 C 213.072 114.129, 215.088 113, 220.012 113 C 225.427 113, 226.493 112.099, 225.544 108.321 C 224.940 105.914, 224.609 105.789, 220.200 106.305 C 209.676 107.537, 201.369 109.261, 199.157 110.673 C 197.868 111.495, 193.529 112.417, 189.515 112.720 C 182.732 113.233, 182.133 113.117, 181.039 111.072 C 180.115 109.347, 180.146 108.530, 181.181 107.284 C 181.906 106.411, 182.807 101.827, 183.183 97.098 C 183.558 92.369, 184.312 86.700, 184.857 84.500 C 188.680 69.071, 190.143 60.060, 189.642 55.022 C 188.899 47.546, 187.522 46.648, 178 47.430 C 173.875 47.769, 161.868 48.454, 151.317 48.952 C 140.767 49.450, 131.252 50.330, 130.173 50.908 C 129.093 51.485, 125.785 52.243, 122.821 52.591 C 117.100 53.264, 115.578 52.483, 114.849 48.500 C 114.447 46.306, 110.897 45.534, 107.500 46.902 M 143.327 113.250 C 144.600 123.311, 146.098 146.982, 145.812 152.494 L 145.500 158.488 132 159.768 C 119.213 160.980, 113.012 161.944, 105 163.967 C 103.075 164.453, 98.800 165.374, 95.500 166.013 C 87.199 167.621, 83.166 169.542, 81.801 172.538 C 80.776 174.788, 80.954 175.409, 83.303 177.757 C 85.904 180.359, 86.084 180.390, 90.734 179.072 C 93.355 178.328, 98.016 177.390, 101.090 176.988 C 104.165 176.585, 107.895 175.459, 109.381 174.486 C 111.585 173.042, 112.543 172.926, 114.588 173.858 C 118.434 175.610, 121.728 175.226, 123.406 172.831 C 124.796 170.846, 125.258 170.761, 128.816 171.827 C 131.734 172.701, 134.103 172.711, 138.300 171.869 C 145.699 170.383, 147 170.984, 147 175.887 C 147 181.126, 146.182 183, 143.893 183 C 142.531 183, 142 183.715, 142 185.547 C 142 187.391, 141.117 188.563, 138.797 189.797 C 137.035 190.733, 132.197 194.651, 128.047 198.503 C 123.896 202.355, 118.812 206.630, 116.748 208.003 C 114.685 209.376, 112.742 211.287, 112.431 212.250 C 112.120 213.212, 111.388 214, 110.804 214 C 110.221 214, 108.113 215.386, 106.122 217.079 C 97.376 224.515, 88.306 231.090, 86 231.664 C 84.625 232.007, 82.687 233.010, 81.694 233.893 C 76.790 238.256, 75 240.449, 75 242.096 C 75 246.331, 82.057 246.234, 86.360 241.941 C 87.537 240.766, 90.723 238.387, 93.439 236.653 C 101.949 231.221, 112.626 223.389, 116.726 219.572 C 119.501 216.988, 121.391 215.387, 126.776 211.060 C 129.117 209.179, 132.902 205.133, 135.187 202.070 C 140.103 195.481, 144.982 190.825, 146.449 191.323 C 147.785 191.777, 147.383 216.642, 145.815 230.500 C 144.176 244.991, 144.772 253.331, 147.197 249.857 C 147.802 248.991, 147.910 252.846, 147.497 260.500 C 147.141 267.100, 146.434 272.927, 145.925 273.450 C 145.352 274.038, 145 273.340, 145 271.617 C 145 266.945, 142.580 269.191, 141.622 274.751 C 139.948 284.469, 142.995 288.020, 149.537 283.977 C 152.979 281.850, 153.033 281.715, 152.441 276.655 C 152.110 273.820, 151.668 270.949, 151.460 270.275 C 151.252 269.600, 151.748 267.454, 152.563 265.504 C 153.877 262.358, 153.870 261.362, 152.503 256.659 C 151.122 251.908, 151.120 250.912, 152.481 247.053 C 153.317 244.686, 154.007 241.568, 154.015 240.124 C 154.023 238.681, 154.636 235.700, 155.377 233.500 C 156.169 231.150, 156.797 224.381, 156.900 217.094 C 156.996 210.270, 157.246 204.411, 157.455 204.073 C 157.664 203.735, 157.458 199.192, 156.996 193.979 C 156.216 185.162, 156.307 184.290, 158.296 181.500 C 159.769 179.433, 160.559 176.545, 160.836 172.214 C 161.229 166.070, 161.320 165.893, 164.869 164.389 C 166.866 163.542, 171.200 162.407, 174.500 161.865 C 177.800 161.323, 181.625 160.415, 183 159.847 C 186.423 158.433, 202.492 154.355, 208 153.504 C 210.475 153.121, 213.512 152.166, 214.750 151.381 C 217.181 149.839, 217.776 146.495, 215.750 145.761 C 214.100 145.163, 197.586 146.721, 192.500 147.955 C 190.300 148.489, 186.475 149.200, 184 149.535 C 181.525 149.870, 177.025 150.958, 174 151.953 C 170.975 152.949, 165.944 154.070, 162.819 154.445 C 155.707 155.298, 155.479 154.949, 154.046 140.979 C 153.434 135.022, 152.328 129.624, 151.441 128.270 C 150.593 126.976, 149.390 122.111, 148.768 117.458 C 147.701 109.486, 147.497 109, 145.213 109 C 142.945 109, 142.824 109.271, 143.327 113.250 M 165 187.994 C 165 188.680, 164.202 188.882, 163 188.500 C 159.956 187.534, 160.474 190.468, 164 194.157 C 165.650 195.884, 167 197.667, 167 198.119 C 167 199.812, 182.711 212.273, 188 214.774 C 191.025 216.204, 196.200 219.086, 199.500 221.178 C 202.800 223.270, 206.032 224.985, 206.682 224.990 C 207.332 224.996, 211.382 226.751, 215.682 228.891 C 230.339 236.187, 233.119 237.125, 246 239.129 C 250.060 239.761, 253.317 240.904, 254.676 242.175 C 255.873 243.294, 257.335 243.911, 257.926 243.546 C 259.770 242.406, 259.104 239.990, 256.694 239.074 C 255.425 238.591, 252.990 237.021, 251.283 235.585 C 249.576 234.148, 246.451 232.252, 244.339 231.372 C 242.228 230.492, 239.306 228.923, 237.846 227.886 C 236.386 226.849, 234.274 226, 233.152 226 C 232.031 226, 230.441 225.040, 229.618 223.866 C 228.796 222.692, 225.508 220.854, 222.312 219.783 C 219.115 218.711, 215.600 217.005, 214.500 215.991 C 213.400 214.978, 211.281 213.846, 209.791 213.476 C 208.301 213.106, 206.558 212.173, 205.919 211.402 C 205.279 210.631, 203.798 209.982, 202.628 209.959 C 201.457 209.937, 198.942 208.587, 197.038 206.959 C 195.134 205.332, 192.826 204, 191.910 204 C 190.994 204, 189.685 203.325, 189 202.500 C 188.315 201.675, 187.151 201, 186.412 201 C 185.674 201, 182.941 199.650, 180.339 198 C 177.737 196.350, 174.909 194.986, 174.054 194.968 C 171.519 194.916, 168.560 192.120, 168.529 189.746 C 168.512 188.453, 167.774 187.394, 166.750 187.195 C 165.787 187.007, 165 187.367, 165 187.994 M 180 206 C 180 206.550, 180.450 207, 181 207 C 181.550 207, 182 206.550, 182 206 C 182 205.450, 181.550 205, 181 205 C 180.450 205, 180 205.450, 180 206 M 190 212 C 192.135 214.135, 194 214.618, 194 213.035 C 194 211.983, 190.776 210, 189.066 210 C 188.480 210, 188.900 210.900, 190 212 M 199.593 216.849 C 198.949 217.891, 203.742 220.591, 204.641 219.692 C 205.517 218.816, 203.073 216, 201.437 216 C 200.711 216, 199.882 216.382, 199.593 216.849 M 219 227 C 220.375 228.076, 222.400 228.904, 223.500 228.842 C 225.220 228.744, 225.185 228.667, 223.250 228.294 C 222.012 228.056, 221 227.217, 221 226.430 C 221 225.607, 220.045 225.009, 218.750 225.022 L 216.500 225.044 219 227 M 150.079 228.583 C 150.127 229.748, 150.364 229.985, 150.683 229.188 C 150.972 228.466, 150.936 227.603, 150.604 227.271 C 150.272 226.939, 150.036 227.529, 150.079 228.583 M 149.164 237 C 149.062 237.825, 148.699 240.300, 148.359 242.500 C 147.883 245.575, 148.016 246.242, 148.934 245.386 C 149.641 244.726, 149.970 242.484, 149.739 239.886 C 149.525 237.474, 149.266 236.175, 149.164 237 M 143 264 C 143 265.100, 143.402 266, 143.893 266 C 145.017 266, 146.066 263.399, 145.264 262.598 C 144.061 261.394, 143 262.051, 143 264" stroke="none" fill="black" fill-rule="evenodd"/>
</svg>