<svg xmlns="http://www.w3.org/2000/svg" width="300" height="300" viewBox="0 0 300 300" version="1.1">
	<path d="M 198.249 52.444 C 196.578 53.850, 194.475 55, 193.574 55 C 192.674 55, 191.760 55.563, 191.544 56.250 C 191.254 57.173, 190.220 80.169, 190.015 90.250 C 189.989 91.537, 186.688 91.079, 181 89 C 177.991 87.900, 174.549 87, 173.353 87 C 172.157 87, 170.125 85.748, 168.837 84.219 C 166.704 81.683, 166.135 81.509, 162.399 82.248 C 158.823 82.955, 158.144 83.533, 157.071 86.785 C 155.867 90.434, 155.892 92.447, 157.489 119.500 C 158.426 135.376, 159.985 149.659, 161.143 152.980 C 162.490 156.844, 165.674 158.761, 167.567 156.848 C 168.666 155.737, 168.697 152.252, 167.741 137 C 166.398 115.549, 166.629 96.532, 168.269 93.567 C 169.324 91.659, 169.442 91.640, 169.794 93.323 C 170.021 94.411, 170.745 94.928, 171.587 94.605 C 172.364 94.307, 173.007 94.611, 173.015 95.281 C 173.027 96.177, 173.249 96.156, 173.854 95.202 C 174.504 94.178, 176.029 94.124, 181.089 94.945 C 184.615 95.517, 187.838 95.988, 188.250 95.992 C 189.226 96.002, 189.068 104.873, 187.957 112.500 C 187.476 115.800, 186.623 122.550, 186.062 127.500 C 184.962 137.185, 182.209 153.932, 181.048 158 C 180.143 161.166, 176.061 161.844, 156.089 162.144 C 142.099 162.354, 141.654 162.296, 140.871 160.180 C 139.877 157.493, 138.018 157.403, 135.324 159.913 C 134.195 160.965, 132.198 161.977, 130.886 162.163 C 129.337 162.382, 127.798 163.812, 126.500 166.237 C 124.920 169.190, 124.082 169.842, 122.508 169.343 C 120.836 168.813, 120.714 168.950, 121.745 170.193 C 122.421 171.008, 125.568 172.246, 128.737 172.944 C 131.907 173.643, 135.710 174.659, 137.190 175.203 C 138.669 175.747, 140.356 175.898, 140.940 175.537 C 142.495 174.576, 142.232 171.229, 140.526 170.274 C 139.284 169.580, 139.356 169.259, 140.976 168.247 C 142.533 167.275, 143.201 167.344, 144.468 168.611 C 145.884 170.026, 146.467 170.029, 150.557 168.635 C 153.045 167.787, 155.660 167.316, 156.368 167.588 C 157.076 167.859, 158.745 167.671, 160.078 167.168 C 161.544 166.616, 163.475 166.619, 164.972 167.178 C 166.635 167.798, 168.179 167.707, 169.688 166.899 C 171.478 165.942, 172.266 165.976, 173.584 167.070 C 174.973 168.223, 175.128 169.638, 174.557 175.970 C 172.839 195.011, 168.663 209.128, 159.995 225.198 C 158.898 227.232, 158 229.321, 158 229.840 C 158 230.359, 155.938 234.452, 153.417 238.934 C 149.657 245.620, 148.310 247.188, 145.917 247.667 C 143.677 248.115, 143 248.801, 143 250.625 C 143 254.171, 148.581 253.909, 153.321 250.142 C 159.766 245.021, 172.998 226.684, 172.999 222.872 C 173 221.977, 173.620 220.730, 174.378 220.101 C 176.657 218.210, 180.813 205.048, 181.915 196.233 C 182.825 188.948, 184.261 184, 185.464 184 C 185.681 184, 186.547 186.369, 187.388 189.264 C 188.230 192.159, 190.957 197.446, 193.448 201.014 C 195.940 204.581, 197.983 207.967, 197.989 208.539 C 198.001 209.684, 205.826 218.849, 218.172 232.175 C 225.110 239.664, 226.844 240.995, 230.854 241.910 C 233.409 242.492, 236.400 242.863, 237.500 242.734 C 238.749 242.588, 239.391 243.016, 239.209 243.873 C 239.026 244.736, 239.479 245.030, 240.429 244.666 C 241.778 244.148, 246.467 245.662, 255.500 249.532 C 260.647 251.738, 275.887 254.140, 280.421 253.460 C 290.514 251.946, 288.852 249.452, 277.278 248.743 C 266.573 248.087, 260.004 246.601, 253.749 243.418 C 251.137 242.088, 248.154 241, 247.122 241 C 246.090 241, 244.627 240.255, 243.872 239.345 C 242.073 237.175, 236.015 234.568, 233.574 234.913 C 232.246 235.101, 228.467 231.857, 221.393 224.459 C 214.354 217.098, 210.654 213.919, 209.596 214.325 C 208.451 214.764, 207.777 213.885, 206.975 210.905 C 206.381 208.699, 205.131 206.121, 204.197 205.177 C 202.558 203.517, 200.112 197.956, 196.425 187.500 C 194.110 180.938, 192.168 178.735, 189.199 179.302 C 185.923 179.929, 185.497 177.931, 187.937 173.379 C 189.072 171.262, 190 168.744, 190 167.784 C 190 165.612, 194.635 164.291, 197.023 165.782 C 197.969 166.373, 199.139 166.483, 199.622 166.025 C 200.521 165.174, 208.518 163.957, 213 163.989 C 214.375 163.999, 218.801 164.118, 222.835 164.254 C 227.749 164.419, 230.512 164.088, 231.207 163.250 C 232.451 161.752, 235.636 161.602, 236.500 163 C 236.840 163.550, 238.420 164, 240.012 164 C 244.403 164, 247.790 165.958, 248.898 169.138 C 250.953 175.031, 254.823 171.199, 253.569 164.514 C 252.452 158.560, 252.051 158.474, 226.549 158.753 C 210.469 158.929, 201.746 159.442, 197.955 160.433 C 194.793 161.259, 192.120 161.488, 191.596 160.976 C 191.060 160.452, 191.365 158.332, 192.346 155.763 C 193.256 153.382, 194 148.748, 194 145.466 C 194 142.184, 194.667 136.349, 195.483 132.500 C 196.298 128.650, 196.973 122.940, 196.983 119.812 C 196.993 116.470, 198.068 110.812, 199.589 106.095 L 202.179 98.067 207.339 98.125 C 212.333 98.181, 220.676 97.543, 230.015 96.392 C 233.936 95.909, 234.909 96.186, 237.398 98.493 C 238.975 99.955, 241.443 101.610, 242.883 102.171 L 245.500 103.192 243.250 104.718 C 241.035 106.220, 241 106.573, 241 127.557 C 241 139.368, 241.447 150.044, 242.002 151.504 C 243.535 155.538, 246.955 154.516, 248.705 149.500 C 250.664 143.883, 251.391 123.414, 250.092 110.498 C 248.888 98.541, 246.665 93.534, 242 92.274 C 238.962 91.454, 223.910 91.321, 211 92 L 201.500 92.500 201.225 81.500 C 201.073 75.450, 201.347 66.225, 201.834 61 C 202.320 55.775, 202.396 51.137, 202.003 50.694 C 201.609 50.250, 199.920 51.038, 198.249 52.444 M 104.413 55.932 C 102.715 56.344, 100.814 56.997, 100.189 57.383 C 97.950 58.767, 96.028 68.457, 95.363 81.713 L 94.686 95.194 78.093 94.852 C 68.967 94.663, 60.938 94.871, 60.250 95.313 C 58.216 96.623, 58.820 98, 61.429 98 C 62.764 98, 64.581 98.724, 65.466 99.609 C 66.838 100.981, 67.750 101.049, 71.638 100.070 C 75.169 99.180, 76.534 99.198, 77.677 100.147 C 79.910 102, 88.176 102.086, 90.213 100.278 C 93.632 97.242, 95 99.329, 95 107.578 L 95 115.219 89.250 120.860 C 86.088 123.962, 82.228 128.975, 80.672 132 C 77.585 138.005, 75.140 142.663, 73.847 145 C 73.391 145.825, 71.906 148.588, 70.548 151.139 C 69.190 153.691, 67.498 156.402, 66.789 157.164 C 63.798 160.379, 59 166.955, 59 167.841 C 59 168.368, 57.425 171.139, 55.500 174 C 53.575 176.861, 52 179.411, 52 179.667 C 52 180.307, 46.896 187.031, 44.750 189.217 C 43.788 190.198, 43 191.348, 43 191.773 C 43 192.199, 40.761 195.011, 38.025 198.023 C 32.498 204.107, 32.060 205.427, 35.037 207.020 C 36.732 207.927, 37.735 207.586, 41.018 204.986 C 43.187 203.268, 45.833 200.639, 46.897 199.145 C 47.961 197.651, 49.987 195.810, 51.399 195.054 C 52.811 194.298, 54.207 192.964, 54.501 192.090 C 54.794 191.215, 56.510 188.866, 58.313 186.869 C 60.116 184.872, 64.043 179.472, 67.039 174.869 C 70.036 170.266, 73.053 165.905, 73.744 165.179 C 74.435 164.452, 75 163.279, 75 162.572 C 75 161.866, 76.486 159.310, 78.303 156.894 C 82.662 151.094, 87 143.508, 87 141.683 C 87 139.822, 90.623 135.296, 91.452 136.121 C 92.037 136.704, 92.361 173.242, 92.089 207.905 C 92.023 216.379, 92.411 225.829, 92.951 228.905 C 93.492 231.982, 94.192 241.025, 94.506 249 C 95.253 267.940, 95.642 269.173, 100.575 268.230 C 103.883 267.598, 104.284 265.344, 103.589 251.331 C 103.266 244.824, 102.734 220.713, 102.408 197.750 C 101.872 159.980, 101.967 156, 103.408 156 C 104.283 156, 105 156.384, 105 156.853 C 105 157.322, 108 160.227, 111.667 163.309 C 118.138 168.748, 121.045 169.821, 119.011 166.020 C 118.320 164.729, 118.361 164.046, 119.144 163.785 C 119.940 163.520, 119.867 162.760, 118.896 161.205 C 117.493 158.958, 115 158.188, 115 160 C 115 160.550, 114.541 161, 113.981 161 C 113.385 161, 113.231 159.930, 113.609 158.423 C 114.125 156.365, 113.558 155.106, 110.792 152.173 C 107.207 148.371, 105 142.615, 105 137.068 C 105 135.308, 104.614 133.111, 104.143 132.184 C 103.138 130.209, 105.469 106.658, 107.018 103.141 C 107.837 101.280, 108.526 100.934, 110.278 101.505 C 111.500 101.903, 115.200 102.581, 118.500 103.012 C 121.800 103.443, 126.510 104.316, 128.967 104.952 C 135.361 106.606, 138 105.715, 138 101.901 C 138 99.046, 137.806 98.884, 135.104 99.477 C 133.368 99.858, 130.735 99.498, 128.536 98.579 C 125.456 97.292, 111.806 95, 107.223 95 C 105.066 95, 105.750 73.255, 108.167 65.044 C 111.221 54.666, 111.077 54.316, 104.413 55.932 M 99.476 79.075 C 98.727 81.436, 99.363 82.512, 100.933 81.541 C 102.245 80.731, 102.355 77, 101.067 77 C 100.554 77, 99.838 77.934, 99.476 79.075 M 159.168 101.722 C 158.061 103.834, 159.508 108.422, 160.992 107.505 C 162.269 106.715, 162.315 101.313, 161.050 100.531 C 160.528 100.208, 159.681 100.744, 159.168 101.722 M 245.068 123.050 C 245.131 126.290, 245.202 126.361, 246.235 124.217 C 247.048 122.530, 247.031 121.631, 246.167 120.767 C 245.278 119.878, 245.016 120.420, 245.068 123.050 M 98.079 123.583 C 98.127 124.748, 98.364 124.985, 98.683 124.188 C 98.972 123.466, 98.936 122.603, 98.604 122.271 C 98.272 121.939, 98.036 122.529, 98.079 123.583 M 103.079 151.583 C 103.127 152.748, 103.364 152.985, 103.683 152.188 C 103.972 151.466, 103.936 150.603, 103.604 150.271 C 103.272 149.939, 103.036 150.529, 103.079 151.583 M 67.500 162 C 67.160 162.550, 67.332 163, 67.882 163 C 68.432 163, 69.160 162.550, 69.500 162 C 69.840 161.450, 69.668 161, 69.118 161 C 68.568 161, 67.840 161.450, 67.500 162 M 94.731 198.922 C 94.093 201.360, 95.685 202.715, 97.294 201.106 C 98.121 200.279, 98.003 199.574, 96.844 198.415 C 95.417 196.988, 95.224 197.035, 94.731 198.922 M 174 201.500 C 174 203.189, 174.458 204.014, 175.250 203.750 C 175.938 203.521, 176.500 202.508, 176.500 201.500 C 176.500 200.492, 175.938 199.479, 175.250 199.250 C 174.458 198.986, 174 199.811, 174 201.500 M 215.500 224 C 215.840 224.550, 216.316 225, 216.559 225 C 216.802 225, 217 224.550, 217 224 C 217 223.450, 216.523 223, 215.941 223 C 215.359 223, 215.160 223.450, 215.500 224 M 96.500 226 C 96.840 226.550, 97.316 227, 97.559 227 C 97.802 227, 98 226.550, 98 226 C 98 225.450, 97.523 225, 96.941 225 C 96.359 225, 96.160 225.450, 96.500 226 M 224.015 233.682 C 224.045 235.270, 225.526 236.682, 227.750 237.244 C 230.737 237.999, 230.589 237.556, 227 235 C 225.350 233.825, 224.007 233.232, 224.015 233.682 M 242 246.393 C 242 246.609, 242.698 247.054, 243.552 247.382 C 244.442 247.723, 244.843 247.555, 244.493 246.989 C 243.906 246.038, 242 245.583, 242 246.393" stroke="none" fill="black" fill-rule="evenodd"/>
</svg>