<svg xmlns="http://www.w3.org/2000/svg" width="300" height="300" viewBox="0 0 300 300" version="1.1">
	<path d="M 146.299 20.250 C 144.299 22.894, 142.554 35.786, 142.801 46.105 C 142.999 54.415, 142.738 56.973, 141.593 57.922 C 140.570 58.772, 134.655 59.143, 121.817 59.163 C 111.742 59.179, 103.050 59.095, 102.500 58.977 C 101.950 58.860, 98.448 58.816, 94.719 58.882 C 89.606 58.971, 87.791 59.380, 87.345 60.543 C 86.486 62.781, 87.688 63.504, 89.613 61.906 C 91.059 60.707, 91.467 60.818, 92.759 62.764 C 94.574 65.498, 96 65.649, 96 63.107 C 96 61.029, 98.584 59.518, 99.527 61.044 C 99.852 61.570, 99.551 62, 98.859 62 C 96.114 62, 99.955 64.263, 104.170 65.128 C 116.611 67.683, 121.024 68.035, 130.804 67.251 C 137.686 66.700, 141.394 66.771, 141.967 67.463 C 142.700 68.348, 143.935 79.592, 144.372 89.361 L 144.500 92.221 130.398 92.657 C 122.642 92.897, 112.742 92.647, 108.398 92.102 C 102.159 91.320, 100.219 91.388, 99.162 92.429 C 98.049 93.526, 98.048 94.103, 99.153 95.873 C 100.228 97.594, 101.106 97.883, 103.752 97.387 C 105.550 97.049, 107.579 97.213, 108.261 97.750 C 110.176 99.260, 116.362 99.918, 130.020 100.065 C 142.324 100.197, 142.595 100.249, 145.770 103.085 C 148.912 105.893, 150.130 107.816, 147.888 106.431 C 146.049 105.294, 145.198 107.970, 146.165 111.852 C 147.542 117.384, 148.148 127.338, 147.195 128.776 C 146.572 129.716, 141.951 130.093, 129.675 130.204 C 114.752 130.340, 110.442 130.920, 114.250 132.280 C 114.938 132.525, 115.192 133.058, 114.817 133.463 C 113.801 134.558, 111.999 133.127, 110.963 130.403 C 110.461 129.081, 109.390 128, 108.584 128 C 106.718 128, 105.648 129.664, 106.984 130.490 C 107.543 130.835, 108 131.611, 108 132.214 C 108 132.817, 107.117 132.511, 106.037 131.534 C 103.666 129.388, 101 130.164, 101 133 C 101 135.400, 103.470 136.680, 105.263 135.209 C 107.150 133.661, 111.247 133.463, 113.684 134.801 C 114.886 135.460, 117.586 135.964, 119.684 135.921 C 121.783 135.878, 122.938 135.615, 122.250 135.338 C 119.920 134.397, 120.879 132.012, 123.500 132.229 C 124.875 132.343, 126 132.788, 126 133.218 C 126 133.648, 126.927 134, 128.059 134 C 129.191 134, 129.859 134.419, 129.543 134.931 C 128.506 136.608, 131.373 137.492, 139.500 138 L 147.500 138.500 148.765 146 C 149.461 150.125, 149.911 156.582, 149.765 160.350 L 149.500 167.199 133 167.652 C 120.360 167.998, 114.980 167.745, 110 166.567 C 106.425 165.721, 101.310 165.023, 98.633 165.015 C 94.061 165.001, 93.806 164.864, 94.423 162.750 C 94.784 161.512, 95.041 146.691, 94.992 129.813 C 94.930 107.750, 95.238 98.591, 96.091 97.227 C 97.582 94.838, 96.169 88.140, 93.868 86.688 C 92.670 85.933, 91.447 86.258, 89.038 87.973 C 86.061 90.093, 85.860 90.585, 86.424 94.385 C 86.760 96.648, 87.256 112.675, 87.526 130 C 87.981 159.243, 88.156 161.690, 89.971 164.159 C 91.668 166.468, 91.733 166.977, 90.462 168.031 C 88.909 169.320, 88.543 172.770, 89.765 174.601 C 90.924 176.337, 95.712 176.842, 102.742 175.970 C 106.507 175.503, 111.895 175.583, 115.608 176.161 C 120.215 176.879, 122.987 176.829, 125.546 175.985 C 130.282 174.422, 150 176.567, 150 178.645 C 150 179.390, 149.532 180, 148.960 180 C 148.389 180, 146.200 181.687, 144.096 183.750 C 126.090 201.405, 118.060 208.925, 115.500 210.529 C 113.850 211.563, 110.854 213.779, 108.842 215.454 C 98.849 223.775, 93.189 227, 82.182 230.643 C 75.756 232.770, 73.687 233.111, 73.087 232.140 C 72.201 230.707, 66.968 231.610, 65.765 233.404 C 64.382 235.467, 64.999 238.929, 66.934 239.965 C 71.336 242.321, 86.663 239.480, 90.557 235.586 C 91.277 234.866, 93.583 233.996, 95.683 233.652 C 98.195 233.241, 101.129 231.569, 104.264 228.764 C 106.885 226.419, 111.160 222.926, 113.764 221.001 C 116.369 219.077, 119.090 216.712, 119.811 215.745 C 120.532 214.779, 124.242 211.499, 128.055 208.456 C 131.868 205.414, 135.687 201.572, 136.542 199.919 C 138.079 196.947, 147.732 187, 149.079 187 C 150.241 187, 150.962 193.043, 150.811 201.500 C 150.619 212.192, 150.917 228.222, 151.433 235 C 151.663 238.025, 152.167 250.400, 152.551 262.500 C 152.936 274.600, 153.609 285.449, 154.047 286.609 C 154.540 287.915, 156.088 288.968, 158.109 289.372 C 162.920 290.334, 163.703 288.902, 161.730 282.745 C 159.605 276.115, 157.254 242.286, 157.137 216.650 C 157.054 198.682, 157.143 197.775, 159.025 197.283 C 161.670 196.592, 161.513 194.348, 158.519 190.027 C 156.355 186.905, 156.165 185.985, 157.036 182.832 C 158.769 176.555, 159.138 176.485, 177.256 179.007 C 186.190 180.251, 194.219 181.638, 195.097 182.088 C 197.435 183.287, 199 181.180, 199 176.831 C 199 173.983, 199.347 173.196, 200.423 173.609 C 201.257 173.929, 202.348 173.219, 203.057 171.894 C 204.236 169.690, 204.061 163.315, 202.355 146.293 L 201.733 140.087 204.565 140.293 C 206.852 140.460, 207.593 139.957, 208.416 137.682 C 209.793 133.870, 207.420 129.507, 203.956 129.484 L 201.500 129.467 201 115.280 C 200.465 100.100, 199.642 97.493, 196.086 99.714 C 193.728 101.187, 183.056 100.198, 181.192 98.335 C 180.452 97.594, 178.866 97.246, 177.639 97.555 C 176.419 97.861, 174.314 97.693, 172.961 97.183 C 171.593 96.668, 169.514 96.623, 168.282 97.084 C 166.988 97.567, 165.817 97.514, 165.473 96.956 C 165.148 96.430, 163.874 96, 162.641 96 C 161.408 96, 159.858 95.458, 159.196 94.796 C 158.534 94.134, 156.757 93.572, 155.246 93.546 C 152.763 93.504, 152.438 93.069, 151.857 89 C 150.118 76.824, 149.961 74.167, 150.731 70 L 151.563 65.500 159.031 65.835 C 163.139 66.020, 168.300 66.611, 170.500 67.149 C 182.161 70.001, 183.446 70.108, 184.750 68.326 C 186.569 65.841, 186.281 61.568, 184.115 58.893 C 182.509 56.910, 181.993 56.761, 180.634 57.889 C 179.340 58.963, 177.480 58.993, 170.770 58.047 C 166.221 57.407, 159.975 57.132, 156.889 57.436 L 151.279 57.990 150.738 52.745 C 150.440 49.860, 150.754 42.325, 151.436 36 C 152.775 23.574, 152.126 19, 149.025 19 C 148.046 19, 146.819 19.563, 146.299 20.250 M 146.079 36.583 C 146.127 37.748, 146.364 37.985, 146.683 37.188 C 146.972 36.466, 146.936 35.603, 146.604 35.271 C 146.272 34.939, 146.036 35.529, 146.079 36.583 M 144.543 69.931 C 143.860 71.036, 145.437 72.230, 146.361 71.306 C 147.311 70.355, 147.134 69, 146.059 69 C 145.541 69, 144.859 69.419, 144.543 69.931 M 122.813 97.683 C 123.534 97.972, 124.397 97.936, 124.729 97.604 C 125.061 97.272, 124.471 97.036, 123.417 97.079 C 122.252 97.127, 122.015 97.364, 122.813 97.683 M 157.500 100 C 157.840 100.550, 158.568 101, 159.118 101 C 159.668 101, 159.840 100.550, 159.500 100 C 159.160 99.450, 158.432 99, 157.882 99 C 157.332 99, 157.160 99.450, 157.500 100 M 153.707 103.750 C 152.816 105.375, 153.065 117.804, 154.094 123.051 L 155.182 128.602 166.341 128.551 C 172.478 128.523, 180.650 128.725, 184.500 129 L 191.500 129.500 191.449 119.500 L 191.399 109.501 186.449 108.734 C 169.363 106.088, 161.383 104.581, 160.550 103.842 C 159.372 102.798, 154.266 102.729, 153.707 103.750 M 177.813 103.683 C 178.534 103.972, 179.397 103.936, 179.729 103.604 C 180.061 103.272, 179.471 103.036, 178.417 103.079 C 177.252 103.127, 177.015 103.364, 177.813 103.683 M 160.285 138.434 C 158.229 139.355, 156.825 140.850, 156.390 142.581 C 155.764 145.075, 156.554 166.887, 157.297 167.630 C 157.720 168.053, 171.609 169.228, 175.473 169.168 C 177.107 169.142, 181.594 169.784, 185.444 170.593 C 192.366 172.049, 192.462 172.041, 194.272 169.783 C 195.823 167.848, 196 166.433, 195.434 160.500 C 195.066 156.650, 194.481 150.367, 194.133 146.538 L 193.500 139.575 190 138.803 C 188.075 138.379, 181.325 137.798, 175 137.513 C 166.245 137.118, 162.733 137.338, 160.285 138.434 M 90 157.882 C 90 158.432, 90.450 159.160, 91 159.500 C 91.550 159.840, 92 159.668, 92 159.118 C 92 158.568, 91.550 157.840, 91 157.500 C 90.450 157.160, 90 157.332, 90 157.882 M 135.659 171.447 C 135.200 172.642, 135.767 173, 138.115 173 C 140.109 173, 141.024 172.567, 140.755 171.750 C 140.139 169.880, 136.346 169.655, 135.659 171.447 M 125.500 172 C 125.148 172.569, 126.009 173, 127.500 173 C 128.991 173, 129.852 172.569, 129.500 172 C 129.160 171.450, 128.260 171, 127.500 171 C 126.740 171, 125.840 171.450, 125.500 172 M 160.501 203.250 C 160.970 205.564, 163.513 208.759, 169.330 214.345 C 180.135 224.719, 184.719 228.037, 183.362 224.500 C 182.997 223.550, 183.375 223, 184.393 223 C 185.277 223, 186 223.738, 186 224.640 C 186 225.542, 186.787 226.877, 187.750 227.608 C 188.819 228.419, 189.013 228.949, 188.250 228.968 C 186.385 229.016, 186.741 230.966, 188.750 231.714 C 189.713 232.072, 191.707 233.245, 193.183 234.321 C 195.156 235.759, 196.721 236.106, 199.097 235.631 C 203.119 234.826, 207.768 237.370, 206.052 239.437 C 204.910 240.813, 208.938 242.931, 219.285 246.397 C 225.489 248.475, 238.882 248.556, 241.559 246.532 C 242.626 245.724, 244.512 245.049, 245.750 245.032 C 248.383 244.995, 248.848 241.948, 246.516 240.013 C 245.389 239.078, 243.616 239.030, 239.161 239.815 C 233.024 240.896, 225 240.359, 225 238.868 C 225 238.391, 223.637 238, 221.972 238 C 220.306 238, 215.624 236.425, 211.568 234.500 C 207.511 232.575, 203.862 231, 203.459 231 C 203.056 231, 199.586 228.863, 195.749 226.250 C 191.912 223.637, 187.587 220.825, 186.136 220 C 184.686 219.175, 183.333 218.111, 183.129 217.636 C 182.925 217.162, 182.025 216.182, 181.129 215.459 C 180.233 214.736, 175.564 210.962, 170.753 207.072 C 165.942 203.183, 161.519 200, 160.924 200 C 160.234 200, 160.080 201.179, 160.501 203.250" stroke="none" fill="black" fill-rule="evenodd"/>
</svg>