<svg xmlns="http://www.w3.org/2000/svg" width="300" height="300" viewBox="0 0 300 300" version="1.1">
	<path d="M 100.314 32.226 C 96.155 35.270, 96.132 35.321, 96.702 40.394 C 97.018 43.202, 97.695 46.316, 98.207 47.313 C 98.719 48.311, 99.343 53.261, 99.595 58.313 C 99.846 63.366, 100.230 69.843, 100.449 72.707 C 100.926 78.954, 101.211 78.803, 87.610 79.505 C 82.209 79.784, 77.274 80.347, 76.645 80.756 C 76.015 81.165, 74.150 81.538, 72.500 81.585 C 64.911 81.802, 53.798 86.758, 52.331 90.580 C 51.646 92.365, 54.319 95, 56.814 95 C 57.891 95, 60.060 94.328, 61.636 93.506 C 63.211 92.685, 65.400 92.005, 66.500 91.995 C 67.600 91.986, 70.709 91.308, 73.409 90.489 C 76.109 89.670, 80.387 89, 82.916 89 C 85.444 89, 89.085 88.542, 91.007 87.983 C 93.524 87.250, 95.129 87.297, 96.750 88.152 C 98.929 89.300, 99 89.807, 99 104.169 C 99 112.326, 98.679 119, 98.288 119 C 97.896 119, 96.605 117.783, 95.418 116.295 L 93.262 113.590 90.171 116.974 C 88.471 118.835, 86.806 121.740, 86.471 123.429 C 85.768 126.975, 78.992 141, 77.982 141 C 77.609 141, 76.462 142.912, 75.434 145.250 C 74.406 147.588, 71.651 151.532, 69.311 154.016 C 66.972 156.500, 64.032 159.914, 62.779 161.602 C 61.526 163.290, 59.712 165.452, 58.750 166.407 C 57.788 167.362, 57 168.973, 57 169.988 C 57 171.003, 56.659 171.983, 56.243 172.167 C 55.826 172.350, 53.988 174.412, 52.159 176.750 C 50.329 179.087, 48.227 181, 47.487 181 C 45.697 181, 42.837 183.928, 43.531 185.050 C 43.833 185.539, 42.524 186.590, 40.621 187.385 C 35.730 189.429, 32.946 195, 36.816 195 C 37.815 195, 40.026 193.425, 41.731 191.500 C 45.020 187.785, 47 187.033, 47 189.500 C 47 190.325, 46.550 191, 46 191 C 45.450 191, 45 191.900, 45 193 C 45 195.610, 49.779 195.821, 50.667 193.250 C 51 192.287, 52.792 189.925, 54.649 188 C 61.244 181.164, 61.947 180.309, 66.619 173.442 C 69.216 169.624, 71.639 166.275, 72.001 166 C 72.797 165.397, 86 147.057, 86 146.554 C 86 146.360, 87.575 143.861, 89.500 141 C 91.425 138.139, 93 135.141, 93 134.337 C 93 132.009, 96.146 123.028, 97.187 122.385 C 99.064 121.224, 99.502 123.352, 99.648 134.334 C 99.729 140.476, 99.939 146.175, 100.113 147 C 100.288 147.825, 100.053 153.824, 99.591 160.332 C 98.942 169.462, 99.048 172.721, 100.055 174.602 C 101.057 176.475, 101.086 177.314, 100.180 178.220 C 98.811 179.589, 98.592 184.630, 99.868 185.418 C 100.346 185.714, 100.511 189.109, 100.235 192.964 C 99.875 197.989, 100.114 200.433, 101.079 201.595 C 102.220 202.970, 102.172 203.401, 100.762 204.432 C 99.564 205.308, 99.207 206.744, 99.481 209.574 C 100.108 216.034, 100.086 225.836, 99.419 237.595 C 98.884 247.014, 99.207 251.209, 101.553 265.371 C 103.073 274.545, 104.843 282.770, 105.485 283.648 C 106.268 284.720, 107.367 285.018, 108.826 284.555 C 110.634 283.982, 111 283.107, 111 279.367 C 111 276.893, 110.499 273.932, 109.886 272.788 C 109.274 271.643, 108.601 265.485, 108.390 259.104 C 107.737 239.310, 107.817 99.523, 108.484 95.400 C 108.831 93.255, 109.319 90.503, 109.568 89.285 C 110.066 86.846, 108.250 86.901, 131.139 88.629 C 139.161 89.235, 139.857 89.136, 140.868 87.246 C 142.289 84.592, 140.776 83.308, 135.178 82.413 C 132.856 82.041, 130.714 81.346, 130.419 80.869 C 130.124 80.391, 127.546 79.961, 124.691 79.912 C 121.836 79.864, 117.250 79.527, 114.500 79.162 L 109.500 78.500 109.430 68 C 109.222 36.865, 108.964 32.107, 107.401 30.544 C 105.417 28.560, 105.279 28.592, 100.314 32.226 M 234.509 49.215 C 233.414 49.850, 226.664 50.701, 219.509 51.106 C 212.354 51.512, 201.325 52.542, 195 53.396 C 188.675 54.250, 181.925 54.707, 180 54.411 L 176.500 53.873 178.659 55.773 C 179.847 56.818, 180.972 58.733, 181.159 60.029 C 181.488 62.304, 181.805 62.384, 190.500 62.369 C 195.450 62.360, 203.313 61.824, 207.974 61.177 C 212.634 60.529, 219.166 60, 222.488 60 C 226.099 60, 230.735 59.182, 234.014 57.965 C 237.375 56.719, 241.462 56.011, 244.564 56.139 C 250.422 56.380, 252.158 55.628, 251.304 53.218 C 249.867 49.159, 247.808 47.999, 242.095 48.030 C 239.018 48.047, 235.604 48.580, 234.509 49.215 M 188 59 C 188 59.550, 188.423 60, 188.941 60 C 189.459 60, 190.160 59.550, 190.500 59 C 190.840 58.450, 190.416 58, 189.559 58 C 188.702 58, 188 58.450, 188 59 M 111 82.378 C 111 83.669, 111.969 83.967, 115.750 83.840 C 119.815 83.703, 119.996 83.619, 117.004 83.258 C 115.081 83.026, 112.944 82.368, 112.254 81.796 C 111.336 81.034, 111 81.190, 111 82.378 M 89.264 83.718 C 90.784 83.947, 93.034 83.941, 94.264 83.704 C 95.494 83.467, 94.250 83.279, 91.500 83.286 C 88.750 83.294, 87.744 83.488, 89.264 83.718 M 61.571 87.571 C 60.707 88.436, 60 89.336, 60 89.571 C 60 90.424, 66.537 89.945, 68 88.985 C 69.333 88.109, 69.333 87.891, 68 87.015 C 65.803 85.573, 63.358 85.785, 61.571 87.571 M 264.834 93.499 C 264.537 93.796, 262.540 94.254, 260.397 94.515 C 258.254 94.776, 252.744 95.450, 248.153 96.012 C 243.562 96.574, 239.050 97.438, 238.126 97.932 C 235.668 99.248, 220.040 101.692, 199.238 104.014 C 163.614 107.990, 162.622 108.205, 163.237 111.812 C 163.430 112.944, 162.589 113.376, 160.088 113.429 C 158.212 113.468, 156.518 113.968, 156.325 114.540 C 155.693 116.410, 158.555 119.189, 161.055 119.132 C 165.159 119.039, 171.436 117.814, 172.607 116.878 C 173.216 116.391, 175.074 116.265, 176.736 116.597 C 178.502 116.950, 180.040 116.744, 180.438 116.101 C 180.812 115.495, 183.454 114.992, 186.309 114.983 C 189.164 114.973, 195.550 114.300, 200.500 113.486 C 211.687 111.648, 215.302 111.588, 214.755 113.250 C 214.529 113.938, 213.254 114.656, 211.922 114.846 C 208.362 115.354, 207.272 116.623, 206.601 121.038 C 206.271 123.217, 205.726 126.814, 205.392 129.032 C 205.054 131.275, 205.291 134.288, 205.926 135.822 C 207.180 138.849, 205.325 149.227, 202.556 154.678 C 200.475 158.774, 198 164.683, 198 165.554 C 198 165.968, 196.595 169.275, 194.878 172.903 C 189.337 184.609, 187 189.856, 187 190.589 C 187 191.244, 185.153 195.405, 179.910 206.566 C 178.860 208.802, 178 211.363, 178 212.257 C 178 213.151, 177.550 214.160, 177 214.500 C 176.450 214.840, 175.985 215.879, 175.966 216.809 C 175.947 217.739, 175.063 220.300, 174 222.500 C 172.937 224.700, 172.053 227.287, 172.034 228.250 C 172.015 229.213, 171.662 230.003, 171.250 230.006 C 169.886 230.018, 167.063 235.921, 168.111 236.569 C 168.657 236.906, 168.968 238.604, 168.802 240.341 C 168.505 243.451, 168.562 243.495, 172.500 243.209 C 174.700 243.049, 177.850 242.526, 179.500 242.049 C 181.150 241.571, 183.756 240.901, 185.291 240.560 C 189.015 239.734, 187.762 238, 183.441 238 C 179.405 238, 179.205 237.484, 182.250 234.944 C 186.614 231.303, 194.600 233, 190.833 236.767 C 188.893 238.707, 192.777 239.485, 196.876 237.978 C 200.267 236.732, 202.301 236.263, 213.314 234.187 C 215.687 233.739, 218.712 232.614, 220.037 231.687 C 221.526 230.644, 224.377 230, 227.507 230 C 230.291 230, 235.149 229.093, 238.302 227.985 C 241.455 226.877, 245.080 226.233, 246.359 226.554 C 248.929 227.199, 255 222.908, 255 220.446 C 255 217.710, 246.040 215.509, 244.571 217.885 C 244.271 218.371, 241.882 219.088, 239.262 219.478 C 236.643 219.868, 234.017 220.585, 233.426 221.070 C 232.835 221.556, 229.010 222.242, 224.926 222.595 C 220.842 222.947, 216.589 223.802, 215.475 224.494 C 214.361 225.185, 210.536 226.082, 206.975 226.485 C 198.466 227.450, 183.568 230.626, 180.932 232.037 C 176.429 234.446, 174.604 230.905, 177.494 225.364 C 178.315 223.789, 178.990 221.514, 178.994 220.309 C 178.997 219.104, 179.437 217.848, 179.972 217.518 C 181.151 216.789, 185 208.279, 185 206.400 C 185 204.978, 189.079 195.853, 190.096 195 C 190.424 194.725, 191.012 193.193, 191.404 191.596 C 191.795 189.999, 194.819 183.024, 198.124 176.096 C 210.724 149.680, 215.131 138.387, 216.673 128.571 C 217.025 126.332, 218.142 122.550, 219.156 120.167 C 220.170 117.784, 221 114.836, 221 113.617 C 221 110.240, 222.929 109, 228.180 109 C 230.809 109, 234.656 108.389, 236.730 107.643 C 244.706 104.773, 247.758 104, 251.071 104.013 C 258.113 104.040, 272.951 101.570, 273.443 100.289 C 274.289 98.084, 272.967 96.190, 269.670 94.885 C 267.926 94.195, 266.247 93.479, 265.938 93.294 C 265.628 93.109, 265.132 93.202, 264.834 93.499 M 252.458 98.068 C 252.095 98.656, 251.164 98.893, 250.390 98.596 C 248.600 97.909, 244 99.622, 244 100.975 C 244 102.253, 248.433 102.317, 250.764 101.073 C 251.719 100.563, 253.316 99.891, 254.313 99.580 C 255.311 99.269, 255.847 98.561, 255.504 98.007 C 254.693 96.695, 253.289 96.723, 252.458 98.068 M 232.074 102.877 C 230.740 103.250, 229.444 104.169, 229.194 104.919 C 228.634 106.597, 233.231 105.652, 236.391 103.439 C 238.391 102.038, 238.393 102.003, 236.473 102.100 C 235.388 102.155, 233.408 102.504, 232.074 102.877 M 207.638 106.500 C 207.302 107.376, 207.623 108, 208.409 108 C 209.149 108, 210.315 107.325, 211 106.500 C 212.037 105.251, 211.908 105, 210.229 105 C 209.121 105, 207.955 105.675, 207.638 106.500 M 214.750 105.662 C 215.438 105.940, 216.563 105.940, 217.250 105.662 C 217.938 105.385, 217.375 105.158, 216 105.158 C 214.625 105.158, 214.063 105.385, 214.750 105.662 M 199.909 108.077 C 198.884 108.727, 199.249 108.974, 201.250 108.985 C 204.236 109.001, 204.774 108.511, 202.659 107.700 C 201.922 107.417, 200.684 107.587, 199.909 108.077 M 178.570 109.886 C 178.269 110.374, 178.917 111.007, 180.011 111.293 C 181.300 111.630, 182 111.318, 182 110.406 C 182 108.861, 179.443 108.474, 178.570 109.886 M 116.035 113.934 C 114.505 116.794, 114.778 121.635, 116.571 123.429 C 117.557 124.415, 117.703 125, 116.963 125 C 114.768 125, 119.765 138.532, 122.596 140.253 C 123.277 140.668, 125.515 143.368, 127.569 146.253 C 131.914 152.358, 141.632 161.880, 147.800 166.075 C 156.789 172.189, 159.015 168.089, 151.097 160.003 C 148.400 157.249, 143.792 151.847, 140.857 147.998 C 137.922 144.149, 135.178 141, 134.760 141 C 134.342 141, 134 140.311, 134 139.469 C 134 138.626, 133.325 137.678, 132.500 137.362 C 131.675 137.045, 131 136.325, 131 135.762 C 131 135.199, 129.425 132.547, 127.500 129.867 C 125.575 127.188, 124 124.598, 124 124.112 C 124 123.626, 123.328 121.940, 122.506 120.364 C 121.685 118.789, 121.010 116.536, 121.006 115.357 C 121.003 114.178, 120.288 112.941, 119.418 112.607 C 117.216 111.762, 117.193 111.771, 116.035 113.934 M 172 114 C 172 114.550, 172.450 115, 173 115 C 173.550 115, 174 114.550, 174 114 C 174 113.450, 173.550 113, 173 113 C 172.450 113, 172 113.450, 172 114 M 82.079 141.583 C 82.127 142.748, 82.364 142.985, 82.683 142.188 C 82.972 141.466, 82.936 140.603, 82.604 140.271 C 82.272 139.939, 82.036 140.529, 82.079 141.583 M 68.945 160.746 C 66.718 165.189, 66.685 165.313, 67.932 164.542 C 69.184 163.768, 71.318 158.984, 70.690 158.357 C 70.489 158.156, 69.704 159.231, 68.945 160.746 M 256.655 173.829 C 255.745 174.835, 255 176.200, 255 176.864 C 255 177.527, 254.275 179.176, 253.390 180.528 C 251.462 183.470, 251.856 186.652, 255.405 196.821 C 256.811 200.847, 258.214 206.354, 258.523 209.057 C 259.044 213.612, 261.873 222.025, 261.961 219.281 C 262.015 217.607, 265 218.878, 265 220.576 C 265 221.375, 264.381 221.700, 263.500 221.362 C 261.478 220.586, 261.454 225.896, 263.468 228.559 C 264.276 229.626, 264.951 232.346, 264.968 234.603 C 264.986 236.860, 266.169 241.810, 267.598 245.603 C 269.027 249.396, 270.441 253.625, 270.740 255 C 272.169 261.567, 278.614 265.559, 280.830 261.250 C 281.779 259.405, 281.587 258.353, 279.414 253.500 C 278.675 251.850, 277.628 248.700, 277.089 246.500 C 276.549 244.300, 274.961 237.775, 273.561 232 C 272.160 226.225, 270.334 219.475, 269.502 217 C 268.671 214.525, 267.992 211.435, 267.995 210.134 C 267.998 208.833, 267.347 205.683, 266.548 203.134 C 263.510 193.439, 262 185.828, 262 180.215 C 262 172.651, 259.944 170.195, 256.655 173.829 M 56.564 177.707 C 56.022 179.132, 56.136 179.247, 57.124 178.267 C 57.808 177.588, 58.115 176.781, 57.807 176.474 C 57.499 176.166, 56.940 176.721, 56.564 177.707 M 223 224.896 C 223 225.262, 221.537 226.150, 219.750 226.869 C 217.766 227.667, 217.021 228.381, 217.838 228.701 C 218.573 228.989, 219.676 228.724, 220.288 228.113 C 220.899 227.501, 224.010 227, 227.200 227 C 231.313 227, 233 226.619, 233 225.691 C 233 224.797, 231.415 224.358, 228 224.307 C 225.250 224.265, 223 224.530, 223 224.896 M 204 230.937 C 204 231.452, 202.537 232.055, 200.750 232.277 C 198.522 232.553, 199.152 232.730, 202.750 232.840 C 206.821 232.964, 208 232.663, 208 231.500 C 208 230.667, 207.111 230, 206 230 C 204.900 230, 204 230.421, 204 230.937 M 100.607 234.582 C 99.592 237.227, 99.923 239, 101.433 239 C 102.221 239, 103.150 238.104, 103.497 237.009 C 104.579 233.601, 101.860 231.317, 100.607 234.582 M 268.079 238.583 C 268.127 239.748, 268.364 239.985, 268.683 239.188 C 268.972 238.466, 268.936 237.603, 268.604 237.271 C 268.272 236.939, 268.036 237.529, 268.079 238.583" stroke="none" fill="black" fill-rule="evenodd"/>
</svg>