<svg xmlns="http://www.w3.org/2000/svg" width="300" height="300" viewBox="0 0 300 300" version="1.1">
	<path d="M 103 56.241 C 101.075 57.455, 98.970 58.958, 98.322 59.581 C 96.175 61.644, 95.854 67.399, 97.455 75.139 C 98.607 80.708, 98.759 83.503, 98.018 85.454 C 97.458 86.926, 97 90.999, 97 94.506 C 97 98.013, 96.531 101.172, 95.957 101.527 C 95.383 101.881, 90.996 102.359, 86.207 102.588 C 77.522 103.004, 64.546 104.489, 58.098 105.805 C 56.227 106.187, 54.202 107.390, 53.598 108.477 C 52.994 109.564, 51.889 110.944, 51.141 111.543 C 48.993 113.265, 50.205 116.277, 53.388 117.129 C 55.471 117.686, 57.283 117.366, 59.888 115.983 C 61.875 114.929, 65.210 113.801, 67.300 113.478 C 70.475 112.987, 71 112.576, 70.493 110.979 C 70.023 109.497, 70.501 108.912, 72.613 108.382 C 77.183 107.235, 82.264 107.420, 82.730 108.750 C 83.014 109.563, 82.155 110, 80.274 110 C 78.684 110, 76.509 110.661, 75.441 111.468 C 73.642 112.829, 73.832 112.939, 78.050 112.968 C 80.552 112.986, 83.131 112.469, 83.780 111.820 C 84.686 110.914, 85.516 110.938, 87.361 111.925 C 88.681 112.632, 90.688 112.916, 91.820 112.557 C 95.235 111.473, 96.167 114.703, 94.600 122.192 C 93.861 125.726, 92.658 129.575, 91.927 130.745 C 90.085 133.695, 87.208 134.256, 85.952 131.910 C 84.673 129.521, 81.169 129.437, 79.326 131.750 C 78.559 132.713, 75.333 138.675, 72.156 145 C 68.979 151.325, 65.150 158.435, 63.646 160.801 C 62.142 163.166, 60.378 166.316, 59.726 167.801 C 59.074 169.285, 58.291 170.725, 57.986 171 C 57.681 171.275, 56.402 172.850, 55.144 174.500 C 53.886 176.150, 51.103 179.525, 48.959 182 C 41.175 190.984, 34.352 199.569, 32.520 202.684 C 30.962 205.332, 30.865 206.133, 31.946 207.434 C 34.571 210.598, 36.818 209.020, 45.500 197.915 C 48.250 194.397, 51.737 190.462, 53.250 189.170 C 54.763 187.879, 56 186.394, 56 185.872 C 56 185.349, 57.800 183.156, 60 181 C 62.200 178.844, 64 176.435, 64 175.647 C 64 174.859, 64.675 173.955, 65.500 173.638 C 66.325 173.322, 67 172.326, 67 171.425 C 67 170.525, 68.257 168.148, 69.794 166.144 C 71.331 164.140, 73.127 161.375, 73.787 160 C 74.446 158.625, 75.417 156.825, 75.945 156 C 76.473 155.175, 77.678 152.700, 78.622 150.500 C 82.481 141.514, 91.166 133.759, 93.234 137.454 C 94.382 139.504, 95.745 139.414, 96.311 137.250 C 96.655 135.933, 96.797 136.057, 96.884 137.750 C 96.955 139.135, 96.423 140, 95.500 140 C 93.648 140, 93.417 146.017, 95.200 147.800 C 96.133 148.733, 96.133 149.267, 95.200 150.200 C 93.894 151.506, 93.569 156.236, 94.708 157.374 C 95.097 157.764, 95.569 163.126, 95.757 169.291 C 96.009 177.581, 95.695 181.639, 94.549 184.876 C 93.697 187.282, 93 192.480, 93 196.426 C 93 200.372, 92.586 204.027, 92.080 204.550 C 91.573 205.072, 91.414 207.697, 91.725 210.382 C 92.144 214.004, 92.768 215.388, 94.145 215.748 C 95.165 216.015, 96 216.683, 96 217.233 C 96 217.783, 95.049 217.985, 93.886 217.680 C 91.782 217.130, 91.774 217.202, 92.295 233.814 C 92.891 252.852, 93.037 253.882, 95.325 255.162 C 97.406 256.326, 97.539 260, 95.500 260 C 93.725 260, 93.415 265.015, 95.087 266.687 C 95.870 267.470, 95.870 267.962, 95.087 268.446 C 92.350 270.138, 96.192 276.501, 99.552 275.841 C 102.324 275.296, 103.629 272.462, 102.007 270.509 C 100.187 268.316, 99.527 254.229, 99.711 221.530 C 99.800 205.598, 100.338 193.035, 101.102 189.030 C 101.787 185.438, 102.275 177.775, 102.186 172 C 101.898 153.213, 101.900 151.034, 102.202 148.500 C 102.590 145.249, 103.498 145.342, 105.567 148.844 C 106.491 150.408, 108.766 152.237, 110.623 152.908 C 114.105 154.167, 114.936 155.490, 112.750 156.292 C 111.750 156.658, 111.750 157.015, 112.750 158.075 C 113.653 159.032, 114 159.067, 114 158.200 C 114 155.690, 116.777 157.135, 117.337 159.937 C 117.821 162.353, 118.995 163.365, 123.962 165.645 C 127.283 167.169, 130 168.891, 130 169.471 C 130 170.052, 132.259 171.063, 135.020 171.719 C 140 172.902, 151 178.763, 151 180.234 C 151 180.655, 153.260 181, 156.021 181 C 160.377 181, 161.191 181.324, 162.157 183.445 C 162.770 184.790, 163.902 186.132, 164.673 186.428 C 166.597 187.166, 167.500 184.340, 166.190 181.683 C 165.598 180.482, 164.823 177.588, 164.469 175.250 C 163.851 171.179, 163.933 171, 166.412 171 C 167.957 171, 169 170.439, 169 169.607 C 169 168.841, 169.675 167.955, 170.500 167.638 C 172.557 166.849, 175 167.918, 175 169.607 C 175 170.373, 175.695 171, 176.544 171 C 177.449 171, 177.966 170.291, 177.794 169.286 C 177.625 168.300, 178.243 167.420, 179.250 167.213 C 180.452 166.966, 181 167.478, 181 168.847 C 181 171.279, 185.175 172.433, 190.416 171.450 C 194.273 170.726, 194.701 170.116, 192.750 168.123 C 191.741 167.092, 192.076 166.909, 194.491 167.173 C 197.589 167.512, 199.249 170.449, 196.807 171.272 C 196.088 171.515, 196.400 171.559, 197.500 171.370 C 198.600 171.182, 200.543 171.021, 201.817 171.014 C 203.677 171.003, 204.010 170.605, 203.500 169 C 203.005 167.440, 203.320 167, 204.933 167 C 206.070 167, 207 167.497, 207 168.105 C 207 169.274, 213.140 168.925, 216.177 167.583 C 217.517 166.991, 217.745 167.260, 217.310 168.921 C 216.791 170.908, 217.150 171, 225.383 171 C 230.123 171, 234 170.660, 234 170.245 C 234 169.829, 235.673 168.966, 237.717 168.326 C 241.450 167.157, 244.586 167.895, 246.159 170.312 C 247.161 171.850, 250 168.528, 249.997 165.821 C 249.995 164.357, 248.889 162.762, 247 161.500 C 243.517 159.174, 243.557 159.492, 245.489 149.396 C 247.752 137.567, 247.775 98.430, 245.523 90.710 C 243.413 83.474, 240.628 80.184, 235.500 78.870 C 231.742 77.908, 217.073 76.358, 189.675 74.028 C 182.858 73.448, 176.403 72.336, 174.433 71.401 C 172.352 70.413, 170.002 70.034, 168.424 70.430 C 166.362 70.947, 165.726 70.669, 165.307 69.065 C 164.962 67.746, 163.630 66.834, 161.455 66.426 C 157.054 65.600, 156 66.417, 156 70.653 C 156 73.346, 156.476 74.312, 158 74.710 C 160.383 75.334, 160.664 78.531, 158.411 79.396 C 157.093 79.901, 156.933 81.069, 157.472 86.253 C 157.829 89.689, 158.250 98.845, 158.408 106.599 C 158.566 114.354, 158.989 121.173, 159.348 121.754 C 159.707 122.334, 159.291 128.815, 158.425 136.155 C 157.559 143.495, 156.858 151.591, 156.867 154.148 C 156.879 157.494, 156.340 159.287, 154.942 160.553 C 152.163 163.068, 152.521 164.520, 156.500 166.867 C 159.450 168.608, 160 169.488, 160 172.466 C 160 176.781, 158.540 176.997, 153 173.500 C 150.822 172.125, 148.581 171, 148.020 171 C 147.459 171, 146.994 170.438, 146.987 169.750 C 146.976 168.672, 136.738 162.994, 134.812 162.999 C 134.433 162.999, 132.645 161.650, 130.839 160 C 129.032 158.350, 127.092 156.998, 126.527 156.995 C 125.962 156.993, 124.120 155.697, 122.433 154.116 C 120.746 152.534, 118.046 150.557, 116.433 149.721 C 113.153 148.022, 107 142.433, 107 141.152 C 107 140.695, 105.814 139.781, 104.364 139.120 C 101.837 137.969, 101.755 137.684, 102.381 132.210 C 102.739 129.069, 103.311 123.524, 103.650 119.887 C 104.517 110.592, 105.694 110, 123.297 110 C 134.641 110, 136.882 109.750, 137.389 108.428 C 138.618 105.226, 136.212 103, 131.524 103 C 129.101 103, 126.825 102.525, 126.466 101.945 C 126.066 101.298, 121.967 100.961, 115.869 101.074 C 110.400 101.176, 105.750 101.084, 105.536 100.869 C 105.322 100.655, 105.512 92.526, 105.958 82.806 C 106.676 67.183, 107.016 64.787, 108.885 62.161 C 111.287 58.788, 111.531 56.931, 109.800 55.200 C 108.133 53.533, 107.025 53.703, 103 56.241 M 165.591 78.899 C 163.976 80.684, 163.969 81.681, 165.475 95.421 C 166.815 107.649, 166.900 112.864, 165.995 127.272 C 164.942 144.051, 164.298 152.476, 163.762 156.450 C 163.488 158.491, 163.784 158.632, 173.500 161.083 C 183.721 163.661, 233.996 161.859, 237.750 158.780 C 238.438 158.216, 239 155.981, 239 153.812 C 239 151.643, 239.451 149.025, 240.003 147.995 C 240.690 146.710, 240.665 145.911, 239.922 145.452 C 239.185 144.997, 239.074 142.016, 239.574 136.141 C 240.564 124.510, 240.663 113.057, 239.776 112.750 C 239.378 112.613, 238.543 108, 237.921 102.500 C 236.502 89.967, 235.774 88, 232.553 88 C 230.883 88, 230.232 87.559, 230.577 86.660 C 231.204 85.025, 228.492 82.578, 227.044 83.473 C 226.470 83.828, 226 84.807, 226 85.650 C 226 86.957, 224.687 87.093, 217.065 86.578 C 212.151 86.245, 205.739 85.501, 202.815 84.924 C 199.892 84.346, 193.675 83.741, 189 83.578 C 184.325 83.415, 178.615 82.667, 176.310 81.916 L 172.121 80.551 174.810 79.395 C 177.218 78.361, 177.306 78.159, 175.649 77.474 C 174.462 76.983, 173.448 77.209, 172.823 78.104 C 172.072 79.179, 171.731 79.213, 171.341 78.250 C 170.587 76.393, 167.549 76.736, 165.591 78.899 M 205.500 83 C 205.840 83.550, 207.018 84, 208.118 84 C 209.218 84, 209.840 83.550, 209.500 83 C 209.160 82.450, 207.982 82, 206.882 82 C 205.782 82, 205.160 82.450, 205.500 83 M 242.158 111 C 242.158 112.375, 242.385 112.938, 242.662 112.250 C 242.940 111.563, 242.940 110.438, 242.662 109.750 C 242.385 109.063, 242.158 109.625, 242.158 111 M 121.639 160.694 C 120.513 161.820, 120.954 163, 122.500 163 C 123.325 163, 124 162.577, 124 162.059 C 124 160.798, 122.438 159.895, 121.639 160.694 M 222.071 194.868 C 221.383 196.152, 220.315 196.592, 218.653 196.274 C 213.696 195.326, 214.121 200.977, 219.204 203.605 C 221.482 204.784, 222.451 204.888, 222.992 204.013 C 223.442 203.285, 224.313 204.295, 225.283 206.669 C 226.143 208.776, 228.231 211.400, 229.921 212.500 C 231.611 213.600, 232.996 215.097, 232.997 215.827 C 233 217.176, 238.292 223, 239.515 223 C 240.305 223, 245.654 227.107, 245.168 227.341 C 244.986 227.428, 245.147 228.738, 245.527 230.250 C 245.975 232.038, 246.879 233, 248.108 233 C 249.149 233, 250 233.675, 250 234.500 C 250 235.325, 250.675 236, 251.500 236 C 252.325 236, 253 236.597, 253 237.326 C 253 238.935, 257.166 243, 258.814 243 C 259.467 243, 260 243.450, 260 244 C 260 244.550, 260.653 245, 261.450 245 C 262.248 245, 263.315 245.741, 263.822 246.646 C 265.017 248.782, 274.286 255.378, 279.848 258.050 C 286.770 261.376, 289.668 259.006, 283.750 254.859 C 281.962 253.607, 279.921 251.789, 279.214 250.820 C 278.507 249.852, 275.582 247.481, 272.714 245.553 C 269.846 243.624, 265.700 240.319, 263.500 238.207 C 258.587 233.492, 243.545 217.114, 238.513 211 C 236.475 208.525, 233.052 204.742, 230.904 202.594 C 228.196 199.885, 227 197.817, 227 195.844 C 227 193.684, 226.528 193, 225.035 193 C 223.955 193, 222.620 193.841, 222.071 194.868 M 183.237 196.943 C 181.184 199.283, 179.715 200, 176.977 200 C 172.672 200, 171 201.455, 171 205.200 C 171 206.740, 170.651 208, 170.225 208 C 169.799 208, 168.647 211.938, 167.664 216.750 C 164.579 231.856, 163.444 236.013, 158.999 248.500 C 156.223 256.301, 155.855 258.458, 156.244 264.690 C 156.737 272.596, 158.922 277.351, 161.592 276.326 C 162.763 275.877, 162.991 275.033, 162.464 273.109 C 161.151 268.322, 161.890 261.932, 164.538 255.184 C 168.690 244.601, 169.440 243, 170.244 243 C 170.660 243, 171.019 241.762, 171.042 240.250 C 171.113 235.602, 177.426 213.151, 179.265 211.003 C 180.219 209.889, 181 208.537, 181 207.998 C 181 207.460, 183.025 205.113, 185.500 202.784 C 190.498 198.081, 190.969 196.589, 187.960 194.978 C 186.232 194.054, 185.509 194.354, 183.237 196.943 M 159.079 262.583 C 159.127 263.748, 159.364 263.985, 159.683 263.188 C 159.972 262.466, 159.936 261.603, 159.604 261.271 C 159.272 260.939, 159.036 261.529, 159.079 262.583" stroke="none" fill="black" fill-rule="evenodd"/>
</svg>