<svg xmlns="http://www.w3.org/2000/svg" width="300" height="300" viewBox="0 0 300 300" version="1.1">
	<path d="M 201.247 29.500 C 201.721 33.703, 200.923 35.302, 199.500 33 C 199.160 32.450, 197.799 32, 196.476 32 C 193.784 32, 191.499 35.253, 192.450 37.731 C 193.754 41.129, 186.763 57.172, 180.941 64.142 C 178.808 66.695, 175.150 71.870, 172.811 75.642 C 170.473 79.414, 168.271 82.725, 167.919 83 C 167.567 83.275, 166.548 84.928, 165.654 86.673 C 164.760 88.418, 162.335 91.871, 160.264 94.347 C 158.194 96.822, 153.910 102.400, 150.744 106.741 C 147.579 111.083, 144.181 115.505, 143.194 116.567 C 142.208 117.630, 140.312 120.525, 138.982 123 C 137.652 125.475, 135.933 128.269, 135.163 129.210 C 133.595 131.125, 134.325 136, 136.180 136 C 137.973 136, 142.407 130.526, 145.392 124.626 C 146.891 121.662, 149.217 118.206, 150.559 116.944 C 151.902 115.683, 153 114.148, 153 113.532 C 153 112.916, 154.816 110.691, 157.035 108.588 C 159.254 106.485, 161.741 103.468, 162.561 101.882 C 163.381 100.297, 164.490 99, 165.026 99 C 165.562 99, 166 98.531, 166 97.958 C 166 97.385, 166.455 96.372, 167.012 95.708 C 167.568 95.044, 170.514 90.675, 173.558 86 C 176.601 81.325, 179.651 77.050, 180.334 76.500 C 181.017 75.950, 183.134 72.445, 185.038 68.712 C 187.846 63.206, 188.868 62.018, 190.448 62.420 C 193.057 63.085, 195 61.311, 195 58.267 L 195 55.778 193.033 58.139 L 191.067 60.500 191.033 58.309 C 191.015 57.104, 191.457 55.835, 192.016 55.490 C 192.575 55.144, 192.795 54.477, 192.504 54.006 C 191.706 52.715, 194.186 47.892, 195.422 48.332 C 196.015 48.543, 196.438 49.454, 196.361 50.358 C 196.188 52.410, 198.859 52.531, 199.636 50.506 C 200.489 48.283, 202.185 49.841, 201.446 52.169 C 200.816 54.155, 204.233 59, 206.264 59 C 208.102 59, 213 64.553, 213 66.636 C 213 69.377, 216.916 74.425, 216.967 71.750 C 217.017 69.125, 221.082 69.594, 223.885 72.549 C 225.197 73.932, 225.923 75.386, 225.498 75.781 C 225.074 76.177, 224.525 75.938, 224.280 75.250 C 223.746 73.755, 220 73.558, 220 75.025 C 220 75.589, 221.340 76.318, 222.978 76.646 C 224.615 76.973, 226.470 77.862, 227.100 78.621 C 228.596 80.423, 230 80.380, 230 78.531 C 230 77.606, 230.582 77.286, 231.574 77.667 C 232.618 78.067, 232.962 79.015, 232.595 80.478 C 232.176 82.149, 233.145 83.837, 236.583 87.425 C 241.100 92.139, 243.396 92.738, 244.630 89.523 C 245.218 87.989, 245.044 87.451, 242.563 83.139 C 240.333 79.263, 231.527 71.404, 226.730 69.008 C 221.681 66.486, 214 60.038, 214 58.320 C 214 57.698, 212.537 55.438, 210.750 53.298 C 206.445 48.144, 203.777 37.367, 206.342 35.492 C 207.254 34.825, 208 33.767, 208 33.140 C 208 32.513, 208.450 32, 209 32 C 209.550 32, 210 30.698, 210 29.107 C 210 25.937, 208.583 25, 203.788 25 C 200.767 25, 200.744 25.040, 201.247 29.500 M 90.744 61.083 C 89.497 61.810, 89.167 62.817, 89.604 64.560 C 89.988 66.089, 89.585 67.984, 88.536 69.586 C 87.267 71.523, 87.027 73.187, 87.565 76.329 C 88.122 79.587, 88.433 80.066, 88.984 78.518 C 89.811 76.193, 91.012 92.488, 90.291 96.259 C 89.847 98.582, 89.204 98.821, 80.158 100.021 C 68.953 101.508, 63.971 101.625, 58.733 100.524 C 55.497 99.844, 54.687 100.055, 52.983 102.019 C 50.738 104.609, 50.388 108.282, 52.250 109.720 C 54.043 111.104, 72.533 110.573, 78.813 108.957 C 84.993 107.366, 87.326 108.246, 87.816 112.351 C 87.994 113.837, 88.762 115, 89.566 115 C 90.660 115, 90.996 116.483, 90.985 121.250 C 90.966 128.761, 89.875 131.216, 88.195 127.528 C 87.561 126.138, 86.616 125, 86.094 125 C 84.675 125, 81.399 129.511, 78.975 134.806 C 77.793 137.388, 75.965 141.136, 74.913 143.136 C 73.861 145.136, 73 147.452, 73 148.283 C 73 149.493, 63.203 163.865, 59.165 168.578 C 58.657 169.172, 57.081 171.496, 55.661 173.744 C 54.242 175.992, 52.613 178.121, 52.041 178.475 C 51.468 178.829, 51 179.830, 51 180.701 C 51 181.572, 49.047 184.583, 46.660 187.392 C 44.273 190.201, 41.063 194.412, 39.527 196.750 C 37.991 199.088, 36.344 201, 35.867 201 C 35.390 201, 35 201.675, 35 202.500 C 35 203.325, 34.438 204.006, 33.750 204.012 C 33.063 204.019, 31.461 205.629, 30.191 207.589 C 25.951 214.133, 29.290 218.797, 34.278 213.298 C 42.684 204.032, 48 197.619, 48 196.745 C 48 196.194, 49.463 194.031, 51.250 191.940 C 53.038 189.848, 55.758 186.419, 57.295 184.319 C 58.833 182.218, 61.645 178.389, 63.545 175.810 C 65.445 173.230, 67 170.643, 67 170.060 C 67 169.477, 67.395 169, 67.879 169 C 68.362 169, 69.317 167.650, 70 166 C 70.683 164.350, 71.609 163, 72.057 163 C 72.504 163, 73.431 161.449, 74.117 159.553 C 74.802 157.658, 75.671 156.297, 76.048 156.530 C 77.076 157.165, 79.372 154.184, 83.004 147.500 C 84.798 144.200, 86.677 140.978, 87.181 140.339 C 87.748 139.621, 87.697 138.931, 87.049 138.530 C 85.448 137.541, 85.800 134, 87.500 134 C 88.325 134, 89 134.675, 89 135.500 C 89 136.325, 89.655 137, 90.455 137 C 91.340 137, 92.181 138.446, 92.602 140.694 C 93.174 143.744, 92.515 171.593, 91.554 185 C 90.361 201.626, 89.681 209.335, 88.376 221 C 86.871 234.457, 85.745 246.635, 84.079 267.500 C 83.325 276.942, 83.432 278.894, 84.833 281.279 C 85.730 282.807, 87.148 283.922, 87.982 283.758 C 89.272 283.504, 89.456 281.283, 89.206 268.979 C 89.045 261.016, 89.367 251.125, 89.922 247 C 90.478 242.875, 91.407 233.425, 91.987 226 C 92.568 218.575, 93.500 210.025, 94.058 207 C 96.725 192.555, 97.869 154.423, 96.491 125.908 C 95.607 107.622, 96.097 106.300, 104.697 103.750 C 107.943 102.787, 111.489 102, 112.577 102 C 114.728 102, 118 98.776, 118 96.658 C 118 95.932, 116.895 94.747, 115.545 94.024 C 113.452 92.904, 112.718 92.955, 110.559 94.369 C 109.167 95.281, 105.322 96.311, 102.014 96.656 L 96 97.285 96 84.268 C 96 75.705, 96.476 69.902, 97.391 67.308 C 99.564 61.149, 96.139 57.942, 90.744 61.083 M 209.164 102.076 C 205.679 102.528, 202.300 103.336, 201.654 103.872 C 200.083 105.176, 185.335 109, 181.877 109 C 180.366 109, 177.968 109.442, 176.547 109.982 C 175.126 110.523, 171.609 111.015, 168.731 111.076 C 161.309 111.233, 160 111.757, 160 114.567 C 160 117.173, 161.062 117.572, 163.924 116.041 C 165.361 115.272, 165.950 115.594, 166.894 117.668 C 168.188 120.506, 168.358 120.509, 181.500 117.948 C 190.894 116.118, 192.489 116.197, 192.576 118.500 C 192.700 121.787, 194.192 127.462, 195.081 128.032 C 195.874 128.539, 199.005 139.284, 198.995 141.460 C 198.992 142.032, 195.055 143.556, 190.245 144.846 C 185.435 146.136, 179.201 148.019, 176.392 149.029 C 170.441 151.169, 158.984 152.871, 147.142 153.376 C 141.425 153.619, 138.509 154.169, 137.915 155.116 C 137.027 156.530, 137.592 159.678, 139.067 161.536 C 141.585 164.707, 183.139 158.625, 188.079 154.362 C 188.947 153.613, 190.401 153, 191.310 153 C 193.343 153, 194.703 157.697, 193.127 159.273 C 191.758 160.642, 191.628 166.652, 192.949 167.469 C 193.819 168.006, 194.526 165.406, 195.230 159.078 C 195.379 157.746, 196.096 156.460, 196.824 156.220 C 199.599 155.306, 197.040 210.876, 193.081 237.500 C 192.508 241.350, 192.031 250.463, 192.020 257.750 C 192.001 270.327, 191.898 271, 190 271 C 188.128 271, 188.002 270.341, 188.024 260.750 C 188.038 255.113, 188.498 248.554, 189.046 246.176 C 189.594 243.798, 190.218 239.748, 190.433 237.176 C 190.647 234.604, 191.139 229.404, 191.525 225.620 C 192.032 220.665, 191.917 218.933, 191.114 219.429 C 190.501 219.808, 190 220.901, 190 221.859 C 190 222.817, 189.594 224.027, 189.098 224.550 C 188.055 225.648, 187.209 235.980, 186.641 254.563 C 186.421 261.747, 185.926 269.060, 185.541 270.813 C 184.869 273.873, 184.967 274, 188.014 274 C 190.308 274, 191.327 274.535, 191.692 275.931 C 191.970 276.993, 192.795 278.091, 193.525 278.371 C 196.786 279.623, 197.290 276.233, 197.491 251.721 C 197.624 235.381, 198.086 226.529, 198.909 224.514 C 200.245 221.246, 202.044 193.478, 202.150 174.500 C 202.224 161.054, 203.956 151.491, 206.682 149.476 C 207.682 148.737, 210.413 147.646, 212.751 147.051 C 221.125 144.923, 229.618 136.391, 228.837 130.892 C 228.329 127.319, 225.210 127.324, 221.940 130.904 C 220.385 132.607, 218.885 134, 218.607 134 C 218.328 134, 216.148 135.317, 213.762 136.928 C 211.376 138.538, 208.260 140.148, 206.837 140.505 C 204.387 141.120, 204.210 140.898, 203.492 136.327 C 202.663 131.049, 201.848 120.909, 201.945 117.075 C 202.063 112.435, 204.943 110.692, 215 109.178 C 219.030 108.571, 219.535 108.198, 219.830 105.609 C 220.146 102.843, 218.695 100.897, 216.500 101.142 C 215.950 101.203, 212.649 101.624, 209.164 102.076 M 90.032 109.250 C 90.061 112.250, 90.171 112.358, 91.463 110.653 C 92.233 109.637, 92.620 108.174, 92.324 107.403 C 91.347 104.857, 89.999 105.943, 90.032 109.250 M 102 122.934 C 102 124.293, 102.807 124.961, 104.718 125.184 C 106.979 125.447, 107.591 126.172, 108.357 129.500 C 108.864 131.700, 110.750 135.750, 112.549 138.500 C 114.348 141.250, 116.355 145.512, 117.008 147.971 C 117.661 150.430, 118.827 153.343, 119.598 154.443 C 120.369 155.544, 121 157.103, 121 157.908 C 121 158.713, 121.811 160.300, 122.803 161.436 C 123.794 162.571, 125.622 166.768, 126.864 170.761 C 130.034 180.951, 138.353 188.734, 140.393 183.418 C 141.387 180.828, 141.172 180.320, 137.076 175.588 C 134.918 173.094, 132.856 170.029, 132.494 168.777 C 132.133 167.525, 130.801 164.250, 129.535 161.500 C 128.270 158.750, 126.436 154.475, 125.460 152 C 122.580 144.694, 113.941 127.081, 112.931 126.458 C 112.419 126.141, 112 125.067, 112 124.072 C 112 122.757, 110.974 122.092, 108.250 121.642 C 102.603 120.709, 102 120.833, 102 122.934 M 213.446 140.087 C 213.077 140.685, 213.236 141.636, 213.800 142.200 C 215.062 143.462, 217 142.396, 217 140.441 C 217 138.757, 214.426 138.501, 213.446 140.087 M 174.813 153.683 C 175.534 153.972, 176.397 153.936, 176.729 153.604 C 177.061 153.272, 176.471 153.036, 175.417 153.079 C 174.252 153.127, 174.015 153.364, 174.813 153.683 M 182.006 176.150 C 180.353 178.433, 179 181.142, 179 182.172 C 179 184.910, 165.089 202.284, 157.145 209.467 C 155.300 211.135, 153.371 213.400, 152.858 214.500 C 150.726 219.071, 147.127 224.219, 142.919 228.717 C 135.859 236.265, 134 239.062, 134 242.135 C 134 244.445, 134.439 245, 136.265 245 C 138.900 245, 147 237.138, 147 234.580 C 147 232.651, 153.113 226, 154.887 226 C 156.305 226, 160.144 217.446, 159.766 215.129 C 159.585 214.019, 160.355 213.401, 162.182 213.190 C 164.803 212.887, 167.245 210.560, 175 200.977 C 176.925 198.598, 179.223 195.943, 180.106 195.076 C 183.205 192.034, 184.889 188.469, 184.790 185.155 C 184.700 182.153, 186.110 180.059, 188.250 180.015 C 188.662 180.007, 189 181.125, 189 182.500 C 189 186.384, 192.589 185.611, 194.897 181.229 C 196.276 178.610, 195.622 177, 193.178 177 C 192.241 177, 190.630 175.875, 189.597 174.500 C 186.989 171.026, 185.480 171.354, 182.006 176.150 M 224.140 189.331 C 222.780 190.971, 223.707 194.264, 225.373 193.709 C 226.862 193.214, 227.436 190.036, 226.251 188.851 C 225.670 188.270, 224.870 188.451, 224.140 189.331 M 230.667 190.667 C 229.148 192.185, 230.188 195.079, 233 197.158 C 234.756 198.456, 236 200.291, 236 201.581 C 236 202.794, 236.712 204.059, 237.582 204.393 C 239.931 205.295, 241.198 205.129, 240.507 204.011 C 240.157 203.445, 240.558 203.277, 241.448 203.618 C 242.302 203.946, 243 204.863, 243 205.657 C 243 207.861, 249.685 214.257, 252.125 214.386 C 254.221 214.497, 255.316 215.731, 256.363 219.164 C 256.754 220.445, 257.746 220.726, 260.685 220.386 C 263.533 220.057, 265.106 220.466, 266.892 221.998 C 268.207 223.127, 269.005 224.328, 268.666 224.668 C 268.326 225.007, 267.352 224.707, 266.500 224 C 265.648 223.293, 264.673 222.993, 264.333 223.333 C 263.215 224.452, 266.196 227, 268.622 227 C 269.930 227, 271 227.357, 271 227.794 C 271 228.230, 273.574 229.127, 276.721 229.787 C 281.444 230.778, 282.683 230.746, 283.824 229.605 C 285.677 227.752, 284.473 224.271, 281.699 223.459 C 275.219 221.565, 260.798 213.412, 256.064 208.968 C 253.154 206.236, 250.374 204, 249.886 204 C 249.399 204, 249 203.569, 249 203.042 C 249 202.515, 246.975 200.898, 244.500 199.447 C 242.025 197.997, 240 196.464, 240 196.041 C 240 195.281, 232.887 190, 231.863 190 C 231.572 190, 231.033 190.300, 230.667 190.667 M 85.026 205.390 C 84.228 208.719, 84.045 211.886, 84.549 213.645 C 85.217 215.973, 85.501 215.024, 86.089 208.500 C 86.485 204.100, 86.700 200.385, 86.566 200.244 C 86.432 200.104, 85.739 202.419, 85.026 205.390 M 82.553 237.602 C 82.198 241.946, 81.480 246.279, 80.958 247.231 C 79.871 249.210, 79.328 269.661, 80.335 270.669 C 80.701 271.034, 81.065 269.796, 81.145 267.917 C 81.225 266.038, 81.435 262.925, 81.611 261 C 81.788 259.075, 82.361 252.229, 82.885 245.786 C 83.408 239.344, 84.069 233.698, 84.352 233.239 C 84.636 232.780, 84.492 231.797, 84.033 231.054 C 83.519 230.221, 82.951 232.733, 82.553 237.602" stroke="none" fill="black" fill-rule="evenodd"/>
</svg>