<svg xmlns="http://www.w3.org/2000/svg" width="300" height="300" viewBox="0 0 300 300" version="1.1">
	<path d="M 211.911 34.422 C 211.679 34.654, 207.891 35.796, 203.494 36.959 C 195.052 39.192, 185.390 40.678, 173 41.648 C 165.073 42.269, 159 44.159, 159 46.006 C 159 46.681, 158.133 46.506, 156.777 45.557 C 153.355 43.160, 151 43.557, 151 46.531 C 151 47.983, 151.719 49.339, 152.685 49.709 C 156.943 51.343, 197.229 49.018, 201.165 46.912 C 202.261 46.325, 205.484 45.159, 208.329 44.321 C 211.173 43.482, 213.967 42.416, 214.539 41.951 C 215.110 41.486, 217.505 40.992, 219.860 40.853 C 228.874 40.321, 226.547 34, 217.338 34 C 214.585 34, 212.143 34.190, 211.911 34.422 M 184.500 57.053 C 183.400 57.494, 181.043 57.614, 179.261 57.318 C 176.199 56.811, 175.915 57.032, 174.057 61.366 C 172.976 63.888, 171.427 68.100, 170.614 70.726 C 168.372 77.966, 160.578 99.723, 157.777 106.561 C 156.411 109.895, 154.961 114.392, 154.556 116.554 C 154.150 118.716, 153.523 120.938, 153.163 121.492 C 151.992 123.293, 150.130 133.379, 150.064 138.281 C 150.016 141.888, 150.415 143.222, 151.690 143.711 C 152.622 144.069, 153.553 143.842, 153.765 143.206 C 154.034 142.399, 154.876 142.528, 156.566 143.635 C 157.895 144.506, 158.776 145.554, 158.522 145.964 C 156.936 148.531, 169.475 153.552, 176.808 153.288 C 179.699 153.183, 183 150.282, 183 147.845 C 183 146.296, 182.192 146, 177.958 146 C 172.875 146, 160.999 141.426, 159.411 138.856 C 157.830 136.299, 158.072 130.890, 159.985 126.039 C 161.093 123.227, 162.003 119.705, 162.006 118.213 C 162.010 116.721, 162.682 114.216, 163.501 112.646 C 164.320 111.076, 164.779 109.452, 164.523 109.036 C 164.266 108.621, 165.138 106.080, 166.460 103.391 C 168.851 98.529, 172.340 89.235, 173.928 83.500 C 174.385 81.850, 175.486 79.150, 176.373 77.500 C 177.261 75.850, 177.990 73.780, 177.994 72.899 C 178.008 69.115, 180.406 64.991, 184.066 62.454 C 189.143 58.936, 189.454 55.065, 184.500 57.053 M 96.146 61.001 C 94.758 63.282, 94.352 65.414, 94.656 68.819 C 95.640 79.846, 95.821 98.993, 94.946 99.533 C 93.651 100.334, 91.692 100.644, 82.804 101.457 C 78.503 101.850, 73.447 103.007, 71.343 104.080 C 69.272 105.136, 66.577 106, 65.354 106 C 64.131 106, 62.044 106.413, 60.717 106.918 C 59.389 107.422, 56.248 108.061, 53.735 108.338 C 48.144 108.952, 45.335 110.368, 44.503 112.990 C 43.473 116.237, 44.741 117.006, 48.522 115.426 C 51.801 114.056, 52 114.085, 52 115.924 C 52 117.612, 52.504 117.798, 55.750 117.307 C 57.813 116.995, 59.928 116.348, 60.450 115.870 C 60.973 115.391, 62.631 115, 64.135 115 C 65.639 115, 68.097 114.533, 69.598 113.963 C 71.671 113.175, 72.047 112.647, 71.163 111.763 C 69.599 110.199, 69.695 109, 71.383 109 C 72.144 109, 72.997 109.882, 73.279 110.960 C 73.734 112.699, 74.171 112.800, 77.146 111.859 C 84.536 109.522, 90.993 108.749, 92.523 110.019 C 94.622 111.761, 94.358 113.574, 91.622 116.210 C 90 117.772, 88.535 121.359, 87.011 127.500 C 84.716 136.750, 82.211 142.774, 77.030 151.500 C 75.397 154.250, 73.100 158.525, 71.925 161 C 64.702 176.215, 61.386 182.498, 58.985 185.519 C 57.494 187.396, 55.064 191.320, 53.587 194.241 C 52.109 197.161, 49.685 200.384, 48.200 201.403 C 43.700 204.490, 41.017 208.594, 40.359 213.398 C 39.846 217.139, 40.040 218.078, 41.434 218.613 C 44.013 219.603, 47.519 217.232, 49.442 213.199 C 50.390 211.211, 52.294 208.216, 53.673 206.542 C 58.123 201.145, 68.990 183.890, 69.663 181.155 C 70.023 179.695, 71.315 177.150, 72.535 175.500 C 73.755 173.850, 75.291 170.819, 75.949 168.764 C 76.607 166.709, 77.573 164.764, 78.095 164.441 C 78.618 164.118, 80.365 161.239, 81.979 158.042 C 83.592 154.846, 85.535 151.608, 86.296 150.847 C 87.056 150.087, 88.126 148.122, 88.673 146.482 C 89.219 144.842, 90.304 143.500, 91.083 143.500 C 92.944 143.500, 92.626 152.335, 90.502 159.643 C 89.425 163.345, 89.015 168.873, 89.115 178.337 C 89.193 185.728, 88.979 192.224, 88.640 192.774 C 87.979 193.844, 88.061 245.961, 88.771 276.281 C 89.021 286.973, 90.181 288.956, 94.108 285.403 C 95.738 283.927, 96.005 282.864, 95.458 280.031 C 94.682 276.013, 94.718 196.266, 95.497 195.006 C 96.152 193.945, 98.396 153.192, 98.191 146.082 C 98.105 143.102, 98.424 140.177, 98.900 139.582 C 99.376 138.987, 100.040 132.425, 100.375 125 C 100.933 112.635, 101.172 111.345, 103.219 109.656 C 105.986 107.373, 111.296 107.990, 114.458 110.960 C 118.936 115.168, 122.170 112.453, 118.963 107.179 C 116.734 103.514, 112.805 101.306, 106.855 100.377 C 101.678 99.568, 100.939 98.701, 102.067 94.765 C 102.562 93.040, 102.483 88.385, 101.879 83.649 C 101.307 79.167, 100.988 71.683, 101.169 67.018 C 101.457 59.630, 101.278 58.494, 99.777 58.200 C 98.701 57.990, 97.337 59.042, 96.146 61.001 M 202.427 72.739 C 200.524 74.089, 200.078 76.820, 201.559 78.049 C 203.484 79.647, 203.431 82.102, 201.487 81.357 C 199.142 80.457, 197.146 82.770, 195.506 88.290 C 194.681 91.068, 193.273 94.461, 192.377 95.829 C 190.878 98.116, 188.662 105.957, 187.346 113.632 C 186.761 117.042, 188.609 119.210, 190.112 116.878 C 191.443 114.813, 192.966 117.617, 192.985 122.166 C 192.997 125.019, 193.845 126.738, 196.808 129.916 C 200.706 134.096, 203.436 134.907, 207.066 132.965 C 210.023 131.382, 209.487 129, 206.174 129 C 201.537 129, 198.774 124.641, 196.545 113.807 C 196.240 112.326, 196.398 110.076, 196.896 108.807 C 197.394 107.538, 198.493 104.250, 199.339 101.500 C 203.116 89.211, 205.526 84.081, 208.833 81.293 C 209.620 80.629, 210.317 78.379, 210.382 76.293 C 210.495 72.649, 210.363 72.490, 207 72.239 C 205.075 72.095, 203.017 72.320, 202.427 72.739 M 232.602 74.302 C 231.623 75.018, 230.974 76.451, 231.161 77.485 C 231.398 78.803, 230.756 79.549, 229.019 79.974 C 226.773 80.524, 226.377 81.453, 224.832 89.792 C 223.894 94.857, 222.232 100.689, 221.138 102.751 C 219.186 106.430, 216.492 123.369, 217.579 125.127 C 217.875 125.607, 218.973 126, 220.017 126 C 221.210 126, 222.896 127.672, 224.553 130.500 C 226.829 134.384, 228.261 135.685, 229.250 134.768 C 229.387 134.641, 230.613 135.316, 231.973 136.268 C 234.981 138.376, 241.310 138.537, 242.960 136.548 C 245.386 133.626, 243.755 131.633, 237.994 130.478 C 231.246 129.125, 227.184 126.581, 226.328 123.171 C 225.618 120.342, 227.448 107.839, 229.499 101.500 C 230.211 99.300, 231.777 94.125, 232.980 90 C 234.183 85.875, 235.771 81.171, 236.510 79.547 C 237.426 77.532, 237.547 76.022, 236.891 74.797 C 235.747 72.658, 234.972 72.569, 232.602 74.302 M 97.232 90 C 97.232 91.925, 97.438 92.713, 97.689 91.750 C 97.941 90.787, 97.941 89.213, 97.689 88.250 C 97.438 87.287, 97.232 88.075, 97.232 90 M 105.250 138.116 C 103.463 139.260, 102 140.502, 102 140.876 C 102 142.846, 105.408 146, 107.538 146 C 109.297 146, 110.136 146.694, 110.597 148.531 C 111.078 150.446, 111.690 150.916, 113.116 150.463 C 114.414 150.051, 115 150.352, 115 151.433 C 115 152.295, 115.450 153, 116 153 C 116.550 153, 117 153.675, 117 154.500 C 117 155.325, 117.643 156, 118.429 156 C 120.030 156, 123 158.645, 123 160.071 C 123 160.582, 122.279 161, 121.397 161 C 120.294 161, 120.762 161.849, 122.897 163.723 C 124.604 165.220, 126 167.020, 126 167.723 C 126 168.425, 126.380 169, 126.844 169 C 127.309 169, 128.996 170.142, 130.594 171.538 C 138.545 178.481, 146.181 182.219, 148.231 180.169 C 149.458 178.942, 147.601 176, 145.600 176 C 144.337 176, 137.650 170.639, 135.100 167.582 C 134.220 166.527, 131.877 163.827, 129.893 161.582 C 127.909 159.337, 126.109 156.987, 125.893 156.359 C 125.677 155.731, 123.156 152.581, 120.292 149.359 C 117.428 146.137, 114.053 141.960, 112.792 140.077 C 109.892 135.747, 109.223 135.573, 105.250 138.116 M 88.459 139.067 C 88.096 139.653, 88.014 140.348, 88.276 140.610 C 88.538 140.872, 89.019 140.392, 89.345 139.543 C 90.021 137.781, 89.445 137.471, 88.459 139.067 M 93.079 159.583 C 93.127 160.748, 93.364 160.985, 93.683 160.188 C 93.972 159.466, 93.936 158.603, 93.604 158.271 C 93.272 157.939, 93.036 158.529, 93.079 159.583 M 213.624 171.800 C 212.962 172.870, 203.195 174.306, 197.668 174.145 C 195.560 174.084, 192.635 174.643, 191.168 175.387 C 189.701 176.131, 186.256 177.067, 183.513 177.467 C 180.770 177.867, 177.395 178.767, 176.013 179.467 C 174.631 180.168, 170.598 181.242, 167.051 181.855 C 163.503 182.469, 159.903 183.681, 159.051 184.550 C 157.648 185.978, 157.710 186.302, 159.707 187.940 C 160.922 188.937, 161.597 190.077, 161.207 190.474 C 160.183 191.521, 174.318 189.947, 175.450 188.888 C 176.860 187.570, 180.769 187.813, 181.263 189.250 C 181.499 189.938, 181.333 191.772, 180.894 193.326 C 179.798 197.208, 179.927 209.837, 181.070 210.543 C 181.581 210.859, 182 210.641, 182 210.059 C 182 209.477, 182.481 209, 183.070 209 C 183.658 209, 183.995 210.012, 183.820 211.250 C 183.610 212.727, 182.813 213.500, 181.500 213.500 C 179.765 213.500, 179.412 214.388, 178.837 220.205 C 178.472 223.892, 177.939 227.290, 177.652 227.755 C 177.364 228.220, 177.037 232.853, 176.925 238.050 C 176.602 253, 178.442 251.916, 153.778 251.691 C 132.858 251.500, 132.821 251.504, 130.912 253.861 C 128.170 257.247, 128.529 258.808, 132.487 260.695 C 135.462 262.114, 136.863 262.193, 142.027 261.232 C 145.356 260.613, 149.481 259.408, 151.194 258.553 C 154.772 256.768, 155.330 256.657, 154.575 257.878 C 154.277 258.361, 155.486 259.047, 157.262 259.402 C 159.604 259.871, 160.807 259.617, 161.639 258.478 C 162.437 257.387, 163.592 257.111, 165.426 257.571 C 167.899 258.191, 167.952 258.323, 166.282 259.675 C 164.684 260.968, 164.964 261.062, 169 260.588 C 171.475 260.297, 181.150 259.969, 190.500 259.860 C 210.193 259.629, 210.948 259.517, 210.267 256.914 C 209.886 255.455, 210.292 255, 211.977 255 C 213.332 255, 214.386 255.759, 214.700 256.962 C 215.144 258.660, 216.073 258.918, 221.601 258.875 C 225.115 258.848, 228.243 258.415, 228.554 257.913 C 228.864 257.411, 231.904 256.962, 235.309 256.916 C 238.714 256.869, 244.093 256.507, 247.263 256.111 C 250.433 255.716, 255.833 255.806, 259.263 256.313 C 267.639 257.550, 274.269 255.901, 273.812 252.695 C 273.537 250.760, 272.848 250.483, 268 250.355 C 264.975 250.276, 259.448 249.637, 255.717 248.935 C 249.968 247.854, 246.461 247.917, 232.717 249.346 C 215.083 251.180, 185.310 251.928, 183.147 250.591 C 182.223 250.019, 182.009 248.773, 182.468 246.629 C 184.500 237.127, 186.663 219.557, 187.900 202.500 C 188.299 197, 189.113 191.357, 189.709 189.959 C 190.836 187.315, 193.373 184.780, 195.351 184.322 C 207.433 181.524, 213.221 179.836, 217 178.008 C 217.825 177.609, 218.500 175.981, 218.500 174.391 C 218.500 172.192, 217.984 171.426, 216.344 171.193 C 215.159 171.024, 213.934 171.297, 213.624 171.800 M 198.446 179.087 C 198.077 179.685, 198.275 180.675, 198.887 181.287 C 199.704 182.104, 200 181.815, 200 180.200 C 200 177.785, 199.481 177.413, 198.446 179.087 M 175.500 186 C 175.160 186.550, 175.332 187, 175.882 187 C 176.432 187, 177.160 186.550, 177.500 186 C 177.840 185.450, 177.668 185, 177.118 185 C 176.568 185, 175.840 185.450, 175.500 186 M 165.565 186.895 C 165.260 187.388, 165.669 188.043, 166.474 188.352 C 168.036 188.951, 169.371 187.704, 168.306 186.639 C 167.402 185.735, 166.213 185.846, 165.565 186.895 M 233.938 254.038 C 231.814 255.351, 233.696 256.441, 236.175 255.335 C 237.925 254.554, 238.061 254.237, 236.844 253.770 C 236.005 253.448, 234.697 253.569, 233.938 254.038 M 223 256.059 C 223 256.641, 223.450 256.840, 224 256.500 C 224.550 256.160, 225 255.684, 225 255.441 C 225 255.198, 224.550 255, 224 255 C 223.450 255, 223 255.477, 223 256.059 M 176 258 C 176 258.550, 177.012 258.993, 178.250 258.985 C 180.069 258.972, 180.213 258.784, 179 258 C 177.061 256.747, 176 256.747, 176 258 M 186 258 C 186 258.550, 187.800 259, 190 259 C 192.200 259, 194 258.550, 194 258 C 194 257.450, 192.200 257, 190 257 C 187.800 257, 186 257.450, 186 258" stroke="none" fill="black" fill-rule="evenodd"/>
</svg>