<svg xmlns="http://www.w3.org/2000/svg" width="300" height="300" viewBox="0 0 300 300" version="1.1">
	<path d="M 174.750 29.763 C 173.637 30.007, 173 31.082, 173 32.714 C 173 35.223, 176.269 43.014, 178.574 46 C 179.211 46.825, 180.014 50.425, 180.358 54 C 180.847 59.073, 181.492 60.939, 183.299 62.500 C 186.962 65.664, 188.166 74.162, 187.045 88.933 C 186.441 96.894, 185.656 101.594, 184.849 102.094 C 183.051 103.204, 185.747 108, 188.169 108 C 189.176 108, 190 108.450, 190 109 C 190 110.980, 194.254 109.947, 196.179 107.500 C 197.260 106.125, 198.675 104.998, 199.323 104.995 C 199.970 104.993, 201.850 103.748, 203.500 102.228 C 205.150 100.709, 208.525 98.586, 211 97.510 C 216.529 95.108, 217.196 94.274, 216.524 90.607 C 216.081 88.196, 216.742 86.914, 220.496 82.900 C 222.973 80.252, 225 77.595, 225 76.995 C 225 76.395, 226.049 74.913, 227.331 73.702 C 230.152 71.038, 237 58.522, 237 56.030 C 237 55.048, 237.675 52.629, 238.500 50.654 C 240.493 45.883, 240.497 35.657, 238.505 34.004 C 236.501 32.341, 230.484 32.539, 225.124 34.444 C 222.718 35.300, 220.018 36.015, 219.124 36.033 C 217.507 36.066, 213 39.287, 213 40.410 C 213 40.735, 212.148 41.852, 211.107 42.893 C 209.459 44.541, 209.028 44.599, 207.773 43.345 C 206.519 42.090, 205.373 42.104, 198.916 43.451 C 190.003 45.311, 189 45.347, 189 43.816 C 189 43.164, 187.313 40.039, 185.250 36.871 C 181.564 31.209, 178.283 28.988, 174.750 29.763 M 176.609 37.423 C 177.516 39.788, 180 40.188, 180 37.969 C 180 36.677, 179.323 36, 178.031 36 C 176.740 36, 176.251 36.489, 176.609 37.423 M 227 40.917 C 227 41.513, 226.091 42, 224.981 42 C 223.871 42, 220.432 43.350, 217.340 45 C 214.248 46.650, 210.908 48, 209.918 48 C 208.928 48, 207.864 48.411, 207.554 48.913 C 207.243 49.415, 205.079 50.133, 202.745 50.509 C 195.921 51.607, 194.031 53.286, 194.612 57.734 C 194.882 59.805, 195.589 63.149, 196.183 65.164 C 196.940 67.732, 196.965 72.366, 196.267 80.664 C 195.689 87.531, 195.643 92.741, 196.159 93.073 C 197.676 94.053, 203.131 92.822, 203.686 91.375 C 203.977 90.619, 204.616 90, 205.107 90 C 206.006 90, 210 86.377, 210 85.562 C 210 85.321, 211.350 83.645, 213 81.839 C 214.650 80.032, 216 77.980, 216 77.277 C 216 76.575, 216.407 76, 216.904 76 C 218.113 76, 225 62.602, 225 60.252 C 225 59.233, 225.424 57.972, 225.943 57.450 C 228.529 54.844, 230.388 40.990, 228.250 40.260 C 227.563 40.025, 227 40.321, 227 40.917 M 90 67.500 C 90 68.485, 89.014 69, 87.126 69 L 84.251 69 84.369 87.902 C 84.473 104.578, 84.281 107.032, 82.743 108.731 C 81.785 109.791, 81 111.410, 81 112.329 C 81 113.248, 80.550 114, 80 114 C 79.450 114, 79 113.325, 79 112.500 C 79 110.808, 72.539 110.320, 71.539 111.936 C 71.221 112.451, 70.182 112.927, 69.230 112.994 C 68.279 113.061, 63.900 113.352, 59.500 113.642 C 54.088 113.999, 51.241 114.627, 50.700 115.585 C 50.167 116.528, 48.124 117, 44.573 117 C 38.426 117, 36.662 118.429, 36.326 123.678 C 36.077 127.571, 38.103 129.041, 41.119 127.158 C 42.139 126.521, 43.789 126, 44.786 126 C 45.784 126, 47.046 125.554, 47.591 125.009 C 48.645 123.955, 54.702 122.489, 64.466 120.925 C 67.747 120.399, 70.839 119.561, 71.337 119.063 C 71.836 118.564, 72.894 118.406, 73.689 118.711 C 74.484 119.016, 76.199 118.696, 77.500 118 C 82.657 115.240, 83.970 118.630, 83.989 134.750 C 83.997 141.428, 83.652 144.032, 82.750 144.115 C 82.063 144.179, 80.941 144.291, 80.258 144.365 C 79.575 144.439, 77.703 145.738, 76.098 147.250 C 74.493 148.762, 72.084 150, 70.745 150 C 67.896 150, 66.238 151.785, 63.202 158.121 C 61.985 160.663, 59.648 164.263, 58.010 166.121 C 56.372 167.980, 55.025 169.814, 55.016 170.198 C 55.007 170.583, 53.987 171.999, 52.750 173.346 C 48.536 177.933, 46 181.014, 46 181.549 C 46 181.843, 45.100 183.050, 44 184.230 C 42.900 185.411, 42 187.131, 42 188.053 C 42 188.975, 40.718 191.197, 39.151 192.992 C 37.584 194.787, 34.772 199.174, 32.901 202.741 C 31.030 206.309, 28.938 209.449, 28.250 209.721 C 27.563 209.992, 27 210.634, 27 211.147 C 27 212.431, 22.929 218.066, 20.532 220.101 C 18.857 221.523, 18.764 222.010, 19.905 223.385 C 20.642 224.273, 21.801 225, 22.482 225 C 24.317 225, 33 217.061, 33 215.384 C 33 214.588, 33.675 213.678, 34.500 213.362 C 35.325 213.045, 36 212.159, 36 211.393 C 36 210.627, 36.345 210, 36.766 210 C 37.187 210, 39.098 207.637, 41.011 204.750 C 45.920 197.343, 46.883 195.737, 47.601 193.750 C 47.949 192.787, 48.600 192, 49.049 192 C 49.498 192, 50.158 191.077, 50.516 189.949 C 50.874 188.821, 52.480 186.555, 54.084 184.914 C 55.688 183.274, 57 181.497, 57 180.966 C 57 180.434, 57.337 179.990, 57.750 179.978 C 58.163 179.966, 59.850 177.942, 61.500 175.480 C 63.150 173.018, 64.838 171.003, 65.250 171.002 C 65.662 171.001, 66 170.373, 66 169.607 C 66 168.841, 66.628 167.973, 67.396 167.678 C 68.164 167.384, 69.601 165.310, 70.589 163.071 C 71.577 160.832, 72.748 159, 73.192 159 C 73.637 159, 74 158.310, 74 157.467 C 74 156.623, 75.575 154.358, 77.500 152.433 C 79.425 150.508, 81 148.461, 81 147.883 C 81 147.306, 81.563 147.020, 82.250 147.249 C 83.957 147.816, 84.463 175.249, 82.908 182.876 C 80.399 195.174, 79.863 200.322, 78.935 221 C 78.404 232.825, 77.527 244.419, 76.985 246.764 C 76.443 249.110, 76 253.255, 76 255.975 C 76 258.696, 75.507 265.453, 74.905 270.991 C 73.946 279.802, 74.011 281.368, 75.428 283.530 C 77.181 286.206, 81 286.905, 81 284.550 C 81 283.752, 81.634 282.740, 82.409 282.300 C 83.382 281.747, 83.996 278.715, 84.394 272.500 C 85.460 255.828, 87.063 239.527, 88.031 235.500 C 88.561 233.300, 89.167 222.906, 89.380 212.403 C 89.596 201.724, 90.231 192.437, 90.821 191.335 C 92.221 188.719, 94.367 160.698, 93.598 155.083 C 93.174 151.994, 93.414 150.190, 94.393 149.083 C 95.163 148.212, 96.013 146.600, 96.281 145.500 C 96.660 143.943, 96.794 144.092, 96.884 146.174 C 96.959 147.893, 98.089 149.679, 100.049 151.174 C 101.726 152.453, 105.128 155.412, 107.608 157.750 C 110.088 160.088, 112.509 162, 112.986 162 C 113.464 162, 114.740 163.125, 115.821 164.500 C 116.903 165.875, 118.101 167, 118.484 167 C 119.324 167, 122.920 171.199, 122.967 172.235 C 122.985 172.639, 125.230 175.339, 127.956 178.235 C 130.682 181.131, 133.495 184.601, 134.206 185.946 C 134.918 187.291, 136.885 189.913, 138.577 191.772 C 141.119 194.565, 142.248 195.096, 145.069 194.826 C 149.845 194.370, 149.914 191.989, 145.317 186.263 C 140.836 180.683, 139.162 178.155, 138.354 175.750 C 138.031 174.787, 137.381 174, 136.909 174 C 136.437 174, 135.325 172.595, 134.437 170.878 C 133.549 169.161, 131.287 166.221, 129.411 164.344 C 127.535 162.468, 126 160.723, 126 160.467 C 126 159.874, 122.148 156, 121.559 156 C 121.316 156, 119.064 153.975, 116.553 151.500 C 114.042 149.025, 111.302 147, 110.463 147 C 109.624 147, 108.678 146.325, 108.362 145.500 C 108.045 144.675, 107.272 143.981, 106.643 143.958 C 106.014 143.934, 104.396 142.584, 103.047 140.958 C 101.441 139.022, 99.665 138, 97.904 138 C 94.383 138, 93.654 136.080, 93.917 127.500 C 94.171 119.208, 95.755 114, 98.023 114 C 100.403 114, 109.260 110.921, 111 109.489 C 111.825 108.810, 114.870 107.701, 117.766 107.024 C 125.492 105.218, 128.295 100.044, 122.356 98.553 C 120.700 98.138, 118.743 98.613, 116.560 99.963 C 114.747 101.083, 111.910 102, 110.254 102 C 108.599 102, 106.685 102.675, 106 103.500 C 105.315 104.325, 103.656 105, 102.312 105 C 100.968 105, 99.060 105.433, 98.072 105.961 C 96.825 106.629, 95.708 106.507, 94.415 105.562 C 92.858 104.423, 92.742 103.818, 93.705 101.851 C 94.364 100.504, 95.056 92.345, 95.325 82.750 L 95.794 66 92.897 66 C 90.989 66, 90 66.512, 90 67.500 M 214.750 109.750 C 213.582 110.015, 213 111.101, 213 113.014 C 213 116.505, 211.135 117.906, 209.488 115.653 C 207.734 113.254, 206.128 113.619, 204.729 116.736 C 204.053 118.241, 202.825 120.195, 202 121.078 C 201.175 121.961, 196.900 126.524, 192.500 131.219 C 181.601 142.848, 180.250 144.488, 176.905 150.160 C 173.721 155.561, 172.923 161.350, 175.500 160.362 C 176.325 160.045, 177 159.226, 177 158.543 C 177 157.859, 178.402 156.225, 180.115 154.912 C 181.829 153.599, 183.634 151.463, 184.127 150.165 C 184.620 148.868, 185.919 147.573, 187.012 147.287 C 188.105 147.001, 189 146.407, 189 145.968 C 189 145.007, 192.258 141.034, 196.940 136.286 C 200.364 132.814, 200.385 132.808, 201.226 135.083 C 201.692 136.341, 201.851 137.946, 201.581 138.650 C 201.311 139.354, 201.009 146.263, 200.911 154.002 C 200.736 167.886, 200.696 168.114, 197.965 171.037 C 196.443 172.667, 195.589 174, 196.067 174 C 196.546 174, 196.685 174.658, 196.376 175.462 C 195.590 177.512, 191.132 178.831, 187.429 178.111 C 187.114 178.050, 187.625 177.233, 188.563 176.295 C 190.999 173.859, 188.899 173.506, 183.306 175.411 C 180.600 176.333, 175.341 177, 170.772 177 C 163.546 177, 157 178.752, 157 180.686 C 157 181.036, 158.371 182.546, 160.047 184.042 C 162.859 186.553, 163.610 186.729, 169.797 186.328 C 176.487 185.896, 188.391 183.587, 192.862 181.856 C 196.722 180.361, 197.839 182.150, 196.851 188.249 C 195.021 199.553, 192.666 219.981, 192.097 229.490 C 191.562 238.443, 191.293 239.518, 189.500 239.847 C 188.400 240.050, 186.898 240.705, 186.162 241.303 C 185.083 242.181, 185.228 242.540, 186.912 243.163 C 189.799 244.231, 189.524 245.667, 186.313 246.280 C 182.978 246.918, 181 246.216, 181 244.393 C 181 243.472, 179.899 243.027, 177.750 243.079 C 175.963 243.122, 175.063 243.385, 175.750 243.662 C 177.665 244.435, 177.235 246, 175.107 246 C 174.066 246, 172.944 246.704, 172.614 247.563 C 171.865 249.514, 169.847 248.420, 170.223 246.267 C 170.525 244.543, 165.332 242.503, 164.789 244.132 C 164.619 244.644, 160.525 245.343, 155.693 245.684 C 146.587 246.326, 143.995 247.755, 146.013 251.020 C 146.518 251.839, 146.496 252.902, 145.960 253.549 C 145.376 254.252, 145.524 255.335, 146.361 256.479 C 147.620 258.200, 147.938 258.209, 152.522 256.647 C 155.181 255.741, 158.559 255, 160.029 255 C 161.499 255, 164.006 254.553, 165.601 254.006 C 167.195 253.459, 171.875 252.595, 176 252.085 C 180.125 251.576, 187.775 250.224, 193 249.080 C 198.225 247.936, 205.364 246.545, 208.865 245.988 C 212.366 245.431, 215.690 244.692, 216.252 244.345 C 217.577 243.525, 228.847 242, 236.500 241.604 C 239.800 241.433, 245.425 240.926, 249 240.476 C 252.575 240.027, 256.738 239.770, 258.250 239.905 C 259.762 240.040, 261 239.746, 261 239.251 C 261 238.529, 267.956 236.102, 277.750 233.407 C 279.754 232.855, 279.191 228.600, 276.926 227.186 C 275.198 226.107, 274.073 226.165, 270.176 227.534 C 267.604 228.438, 264.825 229.502, 264 229.898 C 263.175 230.295, 258.905 230.740, 254.512 230.886 C 250.118 231.033, 246.222 231.641, 245.854 232.236 C 245.376 233.009, 244.372 232.993, 242.342 232.180 C 240.159 231.304, 237.762 231.362, 232 232.430 C 227.875 233.194, 225.287 233.860, 226.250 233.910 C 230.792 234.144, 224.874 240, 220.096 240 C 217.425 240, 217.350 237.403, 220 236.710 C 221.100 236.423, 222 235.695, 222 235.094 C 222 233.388, 210.387 233.748, 206.879 235.563 C 200.944 238.632, 199.558 233.408, 202.427 218.778 C 203.692 212.332, 205.350 201.478, 206.671 191 C 206.914 189.075, 208.550 184.472, 210.306 180.771 C 212.997 175.101, 213.898 174.038, 216.027 174.021 C 217.418 174.009, 219.443 173.394, 220.527 172.653 C 223.310 170.753, 231.860 168, 234.978 168 C 239.916 168, 241.627 163.782, 238.015 160.513 C 236.144 158.820, 235.782 158.811, 231.731 160.358 C 229.367 161.261, 226.422 162, 225.185 162 C 223.949 162, 222.639 162.787, 222.275 163.750 C 221.910 164.713, 221.056 166.063, 220.377 166.750 C 219.059 168.085, 211.056 168.508, 210.917 167.250 C 210.872 166.838, 210.759 158.496, 210.667 148.713 C 210.543 135.460, 210.173 130.725, 209.216 130.133 C 207.732 129.217, 208.642 126, 210.385 126 C 211.029 126, 212.259 125.213, 213.118 124.250 C 213.978 123.287, 216.328 121.076, 218.341 119.335 C 220.353 117.595, 222 115.244, 222 114.111 C 222 111.797, 217.544 109.117, 214.750 109.750 M 204.079 145.583 C 204.127 146.748, 204.364 146.985, 204.683 146.188 C 204.972 145.466, 204.936 144.603, 204.604 144.271 C 204.272 143.939, 204.036 144.529, 204.079 145.583 M 101 148.941 C 101 149.459, 101.450 150.160, 102 150.500 C 102.550 150.840, 103 150.416, 103 149.559 C 103 148.702, 102.550 148, 102 148 C 101.450 148, 101 148.423, 101 148.941 M 85.710 152 C 85.998 153.100, 86.406 154, 86.617 154 C 86.827 154, 87 153.100, 87 152 C 87 150.900, 86.592 150, 86.094 150 C 85.595 150, 85.423 150.900, 85.710 152 M 108.189 153.742 C 108.373 154.696, 109.304 155.627, 110.258 155.811 C 111.453 156.041, 111.814 155.680, 111.419 154.650 C 110.552 152.391, 107.779 151.612, 108.189 153.742 M 116.015 160.250 C 116.024 160.938, 116.417 162.111, 116.890 162.857 C 118.001 164.609, 119.229 162.761, 118.396 160.590 C 117.672 158.704, 115.993 158.464, 116.015 160.250 M 120 164.500 C 120 165.325, 120.675 166, 121.500 166 C 122.325 166, 123 165.325, 123 164.500 C 123 163.675, 122.325 163, 121.500 163 C 120.675 163, 120 163.675, 120 164.500 M 83.158 232 C 83.158 233.375, 83.385 233.938, 83.662 233.250 C 83.940 232.563, 83.940 231.438, 83.662 230.750 C 83.385 230.063, 83.158 230.625, 83.158 232 M 242.638 235.500 C 242.955 236.325, 243.336 237, 243.485 237 C 243.633 237, 244.315 236.325, 245 235.500 C 246.039 234.248, 245.899 234, 244.154 234 C 242.706 234, 242.240 234.461, 242.638 235.500 M 211.500 240 C 214.249 241.181, 215.828 241.181, 214 240 C 213.175 239.467, 211.825 239.055, 211 239.086 C 210.011 239.122, 210.181 239.433, 211.500 240 M 162.710 248 C 162.370 249.300, 162.680 250, 163.594 250 C 164.367 250, 165 249.100, 165 248 C 165 246.900, 164.602 246, 164.117 246 C 163.631 246, 162.998 246.900, 162.710 248 M 152 249.847 C 152 250.313, 150.988 251.183, 149.750 251.780 C 147.540 252.845, 147.549 252.866, 150.250 252.932 C 152.356 252.984, 153 252.532, 153 251 C 153 249.900, 152.775 249, 152.500 249 C 152.225 249, 152 249.381, 152 249.847 M 154 249.393 C 154 250.364, 156.817 250.729, 158.091 249.923 C 159.116 249.273, 158.751 249.026, 156.750 249.015 C 155.238 249.007, 154 249.177, 154 249.393 M 76.419 273.131 C 75.567 274.510, 77.524 276.412, 78.913 275.554 C 79.511 275.184, 80 274.507, 80 274.048 C 80 272.718, 77.129 271.982, 76.419 273.131" stroke="none" fill="black" fill-rule="evenodd"/>
</svg>