<svg xmlns="http://www.w3.org/2000/svg" width="300" height="300" viewBox="0 0 300 300" version="1.1">
	<path d="M 216 17.526 C 211.325 18.276, 205.025 19.641, 202 20.560 C 198.975 21.479, 194.700 22.450, 192.500 22.718 C 190.300 22.986, 188.072 23.609, 187.550 24.102 C 187.027 24.596, 182.673 25, 177.872 25 C 169.237 25, 169.118 25.034, 166.633 28.210 C 164.238 31.270, 164.033 31.340, 162.232 29.710 C 161.193 28.769, 159.590 28, 158.671 28 C 156.069 28, 156.691 32.229, 159.606 34.353 C 161.765 35.926, 162.769 36.048, 166.264 35.161 C 168.527 34.586, 170.764 34.354, 171.233 34.644 C 171.703 34.935, 172.633 34.720, 173.299 34.166 C 173.966 33.613, 178.334 32.952, 183.006 32.697 C 192.657 32.169, 203.041 30.354, 204.450 28.948 C 204.972 28.427, 206.017 28, 206.771 28 C 208.349 28, 211 25.604, 211 24.178 C 211 23.648, 211.675 22.955, 212.500 22.638 C 213.396 22.294, 214 22.630, 214 23.472 C 214 25.796, 215.278 25.954, 223.571 24.649 C 227.932 23.963, 232.625 23.722, 234 24.113 C 242.405 26.500, 245.153 26.766, 245.736 25.246 C 248.215 18.786, 232.917 14.815, 216 17.526 M 184.767 29.167 C 185.631 30.031, 186.530 30.048, 188.217 29.235 C 190.361 28.202, 190.290 28.131, 187.050 28.068 C 184.420 28.016, 183.878 28.278, 184.767 29.167 M 169.500 32 C 169.160 32.550, 169.359 33, 169.941 33 C 170.523 33, 171 32.550, 171 32 C 171 31.450, 170.802 31, 170.559 31 C 170.316 31, 169.840 31.450, 169.500 32 M 170.818 40.500 C 169.607 43.157, 165.504 44.011, 164.754 41.762 C 163.548 38.144, 155 47.555, 155 52.501 C 155 53.119, 153.875 55.958, 152.500 58.808 C 151.125 61.658, 150 65.091, 150 66.436 C 150 67.781, 149.609 69.123, 149.132 69.419 C 148.654 69.714, 147.958 72.652, 147.585 75.947 C 147.213 79.243, 146.478 82.204, 145.954 82.529 C 145.429 82.853, 145 86.248, 145 90.073 C 145 93.898, 144.579 97.809, 144.063 98.764 C 143.548 99.719, 142.392 104.100, 141.494 108.500 C 140.009 115.779, 138.388 122.182, 135.908 130.571 C 135.409 132.260, 134.986 134.735, 134.968 136.071 C 134.951 137.407, 134.339 139.287, 133.608 140.250 C 132.163 142.154, 130 142.603, 130 141 C 130 140.450, 129.401 140, 128.669 140 C 127.938 140, 125.149 138.891, 122.472 137.536 C 119.795 136.181, 116.349 134.796, 114.814 134.459 C 113.279 134.122, 111.766 133.431, 111.452 132.923 C 111.139 132.415, 110.121 131.990, 109.191 131.979 C 107.316 131.955, 102 125.056, 102 122.647 C 102 120.309, 98 117.962, 95.209 118.662 C 92.132 119.435, 90.931 117.612, 91.479 113 C 91.708 111.075, 92.442 104.213, 93.110 97.750 C 93.778 91.287, 94.722 86, 95.208 86 C 95.693 86, 97.216 84.875, 98.591 83.500 C 100.577 81.514, 102.098 81, 105.986 81 C 108.679 81, 111.116 80.622, 111.401 80.160 C 112.021 79.157, 118.587 79.253, 119.614 80.281 C 120.010 80.676, 121.383 81, 122.667 81 C 124.471 81, 125 80.449, 125 78.571 C 125 73.363, 118.805 71.018, 110.021 72.902 C 107.206 73.506, 103.574 74, 101.951 74 C 100.328 74, 99 74.450, 99 75 C 99 76.951, 96.318 75.963, 95.018 73.533 C 94.024 71.676, 93.837 67.741, 94.262 57.606 C 94.688 47.448, 94.510 43.712, 93.535 42.379 C 92.344 40.750, 92.118 40.739, 90.622 42.235 C 89.730 43.127, 89 45.433, 89 47.359 C 89 50.229, 88.594 50.919, 86.750 51.180 C 84.573 51.490, 84.484 51.935, 84 65 C 83.501 78.485, 83.497 78.500, 81 78.846 C 79.625 79.036, 78.050 79.557, 77.500 80.003 C 76.950 80.450, 73.800 81.350, 70.500 82.004 C 67.200 82.657, 62.700 83.632, 60.500 84.168 C 58.300 84.705, 55.145 85.374, 53.488 85.654 C 49.507 86.327, 43.496 91.245, 44.251 93.212 C 44.701 94.384, 46.298 94.643, 51.576 94.402 C 55.442 94.224, 58.643 93.578, 59.069 92.888 C 59.488 92.211, 62.529 91.570, 66.025 91.423 C 69.442 91.280, 72.724 90.676, 73.319 90.081 C 73.913 89.487, 75.398 89, 76.617 89 C 77.836 89, 79.040 88.438, 79.292 87.750 C 79.642 86.794, 80.043 86.775, 80.995 87.670 C 81.882 88.503, 82.124 91.701, 81.839 98.803 C 81.372 110.433, 80.397 112.353, 75.435 111.422 C 72.803 110.928, 71.784 111.246, 70.324 113.014 C 69.321 114.229, 68.050 115.744, 67.500 116.380 C 66.343 117.718, 64.095 121.674, 60.232 129.171 C 58.729 132.086, 56.038 135.933, 54.250 137.718 C 52.462 139.504, 51 141.230, 51 141.554 C 51 141.878, 50.437 142.747, 49.750 143.485 C 49.062 144.223, 47.375 146.295, 46 148.090 C 44.625 149.884, 43.040 151.835, 42.479 152.426 C 41.917 153.017, 40.418 154.850, 39.147 156.500 C 37.876 158.150, 34.658 161.975, 31.996 165 C 18.392 180.460, 17.766 181.500, 19.979 185 C 20.595 185.975, 22.521 186.500, 25.484 186.500 C 29.914 186.500, 30.262 186.263, 37.973 178 C 42.335 173.325, 45.925 168.974, 45.952 168.332 C 45.978 167.689, 47.813 165.276, 50.030 162.969 C 52.246 160.662, 56.175 155.788, 58.761 152.137 C 61.347 148.487, 63.805 145.351, 64.223 145.170 C 64.640 144.988, 65.691 143.188, 66.556 141.170 C 67.422 139.151, 68.768 136.375, 69.547 135 C 70.327 133.625, 71.698 130.925, 72.595 129 C 73.491 127.075, 74.648 125.234, 75.165 124.908 C 75.682 124.583, 76.029 123.908, 75.934 123.408 C 75.433 120.747, 76.114 119.107, 77.500 119.638 C 79.324 120.338, 79.573 131.535, 77.959 140.266 C 76.641 147.392, 75.271 159.884, 73.985 176.500 C 73.431 183.650, 72.533 190.534, 71.989 191.797 C 71.445 193.060, 71.022 199.135, 71.049 205.297 C 71.095 216.093, 71.625 223.449, 73.980 246 C 74.583 251.775, 75.215 259.769, 75.386 263.765 C 75.557 267.760, 75.878 271.211, 76.100 271.434 C 76.322 271.656, 77.690 272.135, 79.139 272.499 C 81.149 273.003, 82.291 272.607, 83.958 270.830 C 85.807 268.859, 86.057 267.729, 85.580 263.500 C 82.007 231.809, 81.758 186.144, 85.068 169.500 C 85.961 165.011, 86.473 160.743, 88.833 138.103 C 89.665 130.125, 91.761 128.155, 95.015 132.292 C 97.546 135.509, 99.452 135.836, 98.690 132.921 C 98.281 131.360, 98.522 130.986, 99.655 131.421 C 100.485 131.739, 101.352 132, 101.582 132 C 101.812 132, 102 132.675, 102 133.500 C 102 134.325, 101.523 135, 100.941 135 C 100.359 135, 100.164 135.457, 100.509 136.015 C 101.333 137.348, 107.730 140, 110.122 140 C 111.155 140, 112 140.348, 112 140.773 C 112 141.700, 119.867 143.942, 125.665 144.667 C 129.042 145.089, 129.947 145.652, 130.446 147.640 C 130.784 148.989, 130.840 150.450, 130.569 150.888 C 130.109 151.632, 129.121 156.509, 127.001 168.500 C 124.838 180.732, 123.992 184.630, 123.091 186.500 C 121.389 190.034, 119 201.490, 119 206.114 C 119 208.581, 118.596 211.028, 118.102 211.550 C 117.609 212.073, 116.965 214.300, 116.671 216.500 C 115.773 223.234, 114.049 231.734, 112.360 237.761 C 110.100 245.819, 107.527 265.979, 108.343 269.229 C 108.717 270.721, 109.929 272.427, 111.035 273.019 C 113.887 274.545, 116.204 271.923, 117.126 266.126 C 117.530 263.582, 118.582 258.350, 119.463 254.500 C 120.344 250.650, 121.306 245.250, 121.602 242.500 C 121.897 239.750, 122.497 236.600, 122.936 235.500 C 124.376 231.890, 126.160 224.599, 126.973 219 C 128.323 209.710, 129.734 202.751, 132.427 192.098 C 133.848 186.476, 135.121 180.330, 135.255 178.440 C 135.390 176.550, 135.798 175.003, 136.162 175.002 C 136.526 175.001, 137.140 173.088, 137.525 170.750 C 137.911 168.412, 138.575 166.050, 139.001 165.500 C 139.427 164.950, 140.028 162.700, 140.337 160.500 C 141.605 151.466, 142.627 146.413, 143.455 145.073 C 143.937 144.292, 144.676 142.044, 145.097 140.077 C 145.834 136.631, 147.959 127.850, 150.078 119.500 C 150.637 117.300, 151.521 113.250, 152.043 110.500 C 152.566 107.750, 153.432 103.250, 153.969 100.500 C 154.505 97.750, 155.714 91.112, 156.655 85.750 C 157.597 80.388, 158.734 76, 159.183 76 C 159.633 76, 160 74.373, 160 72.384 C 160 69.114, 162.755 59.231, 164.010 58 C 164.290 57.725, 165.415 55.700, 166.510 53.500 C 167.604 51.300, 168.838 49.350, 169.250 49.167 C 169.662 48.983, 170 48.196, 170 47.417 C 170 46.638, 170.675 46, 171.500 46 C 172.325 46, 173 45.325, 173 44.500 C 173 43.675, 173.450 43, 174 43 C 174.550 43, 175 41.875, 175 40.500 C 175 38.929, 174.435 38, 173.479 38 C 172.642 38, 171.445 39.125, 170.818 40.500 M 202.420 47.314 C 201.826 47.995, 201.042 50.041, 200.678 51.860 C 200.314 53.680, 199.113 56.437, 198.008 57.989 C 196.904 59.540, 196 61.275, 196 61.844 C 196 63.387, 190.848 73.839, 187.464 79.161 C 185.834 81.725, 183.273 84.556, 181.773 85.454 C 180.274 86.351, 176.561 89.455, 173.523 92.350 L 168 97.615 168 108.942 C 168 115.171, 168.425 121.895, 168.945 123.884 C 169.465 125.873, 170.616 131.550, 171.502 136.500 C 173.406 147.133, 174.775 150.429, 179.203 155.036 C 181.017 156.922, 182.961 159.369, 183.525 160.474 C 184.089 161.578, 185.272 162.621, 186.154 162.791 C 187.629 163.075, 188.646 162.320, 191.576 158.763 C 193.246 156.736, 192.110 155, 189.114 155 C 186.776 155, 186.157 154.335, 184.693 150.250 C 183.756 147.637, 182.992 144.514, 182.995 143.309 C 182.998 142.104, 182.550 140.840, 182 140.500 C 181.450 140.160, 181 138.047, 181 135.803 C 181 133.560, 180.269 125.955, 179.375 118.903 C 177.852 106.888, 177.858 105.812, 179.463 101.791 C 181.210 97.416, 187.495 90.614, 192.642 87.527 C 196.124 85.438, 201 78.706, 201 75.987 C 201 74.894, 201.338 73.996, 201.750 73.991 C 202.162 73.987, 203.356 71.174, 204.403 67.741 C 205.449 64.309, 206.702 60.985, 207.187 60.356 C 208.789 58.277, 209.377 49.159, 208.015 47.518 C 206.506 45.700, 203.910 45.606, 202.420 47.314 M 233 80.087 C 225.222 82.337, 219.247 83.931, 214.500 85.023 C 211.750 85.656, 207.925 86.763, 206 87.483 C 204.075 88.203, 200.635 89.293, 198.356 89.905 C 195.243 90.740, 194.058 91.632, 193.591 93.493 C 193.201 95.045, 192.013 96.210, 190.405 96.613 C 187.307 97.391, 185.723 100.866, 187.608 102.751 C 188.677 103.820, 189.303 103.828, 190.961 102.792 C 192.083 102.092, 193 101.177, 193 100.759 C 193 100.342, 194.250 100, 195.777 100 C 197.305 100, 199.548 99.305, 200.761 98.455 C 201.974 97.605, 205.238 96.641, 208.013 96.312 C 210.788 95.983, 213.297 95.329, 213.588 94.857 C 213.880 94.386, 214.879 94.001, 215.809 94.003 C 218.338 94.007, 230.046 88.976, 233.683 86.322 C 236.996 83.905, 240 83.276, 240 85 C 240 85.550, 240.839 86, 241.865 86 C 244.399 86, 249 89.755, 248.999 91.823 C 248.998 93.725, 245.797 102.537, 244.713 103.621 C 244.321 104.013, 244 106.003, 244 108.044 C 244 112.693, 242.865 113.604, 236 114.468 C 232.975 114.848, 229.037 115.573, 227.250 116.080 C 217.243 118.914, 216.081 119.328, 206.216 123.583 C 204.410 124.363, 201.860 125, 200.549 125 C 199.239 125, 198.017 125.387, 197.833 125.859 C 197.650 126.332, 195.333 127.670, 192.685 128.832 C 188.194 130.803, 187.891 131.167, 188.185 134.223 C 188.474 137.235, 188.767 137.488, 191.790 137.348 C 193.599 137.265, 197.549 136.027, 200.567 134.598 C 203.585 133.169, 206.906 132, 207.946 132 C 210.093 132, 215.984 128.889, 215.994 127.750 C 215.997 127.338, 217.652 127, 219.671 127 C 221.690 127, 224.053 126.395, 224.921 125.655 C 226.965 123.914, 234.493 121, 236.947 121 C 239.318 121, 239.809 123.205, 238.728 129 C 238.267 131.475, 237.644 134.927, 237.344 136.670 C 236.781 139.947, 234.812 141.255, 228.500 142.543 C 225.543 143.147, 222.164 144.387, 218.764 146.117 C 217.809 146.603, 216.207 147, 215.205 147 C 214.202 147, 212.509 147.661, 211.441 148.468 C 210.374 149.276, 208.459 149.951, 207.187 149.968 C 203.486 150.019, 194.074 155.030, 194.686 156.624 C 194.976 157.381, 195.841 158, 196.607 158 C 197.373 158, 198 158.637, 198 159.417 C 198 161.708, 200.294 161.859, 203.285 159.764 C 204.818 158.691, 206.628 158.027, 207.308 158.288 C 208.866 158.886, 208.725 180.505, 206.896 221.750 C 205.448 254.405, 205.842 253.124, 198.500 249 C 196.542 247.900, 193.378 247, 191.470 247 C 188.501 247, 188 247.337, 188 249.335 C 188 253.101, 198.987 261, 204.226 261 C 205.507 261, 207.526 261.680, 208.713 262.512 C 210.693 263.899, 211.071 263.837, 213.285 261.762 C 216.656 258.602, 217.333 255.308, 217.554 241 C 218.390 186.778, 219.281 160.697, 220.365 158.698 C 223.585 152.761, 224.533 152.064, 232.959 149.444 C 237.657 147.982, 242.400 146.408, 243.500 145.945 C 244.600 145.482, 246.352 144.967, 247.393 144.802 C 250.431 144.317, 251.631 141.547, 250.067 138.625 C 248.328 135.375, 249.084 128.781, 251.852 123.062 C 253.033 120.621, 254 116.766, 254 114.494 C 254 112.222, 254.693 108.029, 255.540 105.176 C 256.528 101.849, 256.977 97.070, 256.790 91.848 C 256.526 84.433, 256.271 83.537, 253.926 81.790 C 250.866 79.510, 238.480 78.502, 233 80.087 M 208 92.500 C 208 93.325, 208.627 94, 209.393 94 C 210.159 94, 211.045 93.325, 211.362 92.500 C 211.753 91.480, 211.308 91, 209.969 91 C 208.885 91, 208 91.675, 208 92.500 M 142 125.450 C 142 126.762, 141.699 128.622, 141.330 129.582 C 140.873 130.773, 141.032 131.098, 141.830 130.605 C 142.474 130.207, 143 128.821, 143 127.524 C 143 126.228, 143.540 124.987, 144.199 124.767 C 144.950 124.517, 144.762 124.123, 143.699 123.715 C 142.393 123.213, 142 123.614, 142 125.450 M 64.583 131.866 C 64.152 132.563, 64.070 133.403, 64.400 133.733 C 65.295 134.628, 66.271 133.312, 65.787 131.862 C 65.449 130.846, 65.213 130.846, 64.583 131.866 M 133.916 153.284 C 133.268 154.708, 133.067 156.689, 133.471 157.686 C 134.099 159.240, 134.432 159.032, 135.790 156.237 C 136.976 153.796, 137.088 152.688, 136.235 151.835 C 135.383 150.983, 134.799 151.347, 133.916 153.284 M 40.079 161.583 C 40.127 162.748, 40.364 162.985, 40.683 162.188 C 40.972 161.466, 40.936 160.603, 40.604 160.271 C 40.272 159.939, 40.036 160.529, 40.079 161.583 M 130.688 172.646 C 130.309 173.024, 130 174.416, 130 175.740 C 130 177.494, 130.475 178.055, 131.750 177.810 C 132.838 177.600, 133.500 176.563, 133.500 175.070 C 133.500 172.664, 131.980 171.354, 130.688 172.646 M 187.320 187.684 C 181.834 191.780, 180.783 193.151, 177.956 199.899 C 176.205 204.080, 172.848 211.550, 170.497 216.500 C 168.146 221.450, 165.408 227.300, 164.413 229.500 C 163.418 231.700, 162.355 233.725, 162.051 234 C 160.756 235.171, 157.098 243.787, 156.494 247.089 C 155.791 250.932, 158.928 259.375, 161.414 260.329 C 164.041 261.337, 165.326 259.237, 165.148 254.225 C 165.029 250.846, 165.455 248.867, 166.486 248.011 C 167.319 247.320, 168 246.135, 168 245.378 C 168 244.620, 168.441 244, 168.981 244 C 169.520 244, 170.244 242.875, 170.589 241.500 C 170.934 240.125, 171.585 239, 172.036 239 C 172.486 239, 174.030 236.412, 175.466 233.250 C 176.903 230.088, 178.510 226.719, 179.039 225.764 C 179.568 224.809, 180 223.401, 180 222.636 C 180 221.871, 180.675 220.685, 181.500 220 C 182.325 219.315, 183 218.061, 183 217.214 C 183 215.060, 186.213 208, 187.192 208 C 187.637 208, 188 206.952, 188 205.671 C 188 203.429, 191.915 196.697, 195.685 192.459 C 200.475 187.074, 201.010 186.190, 200.417 184.645 C 199.215 181.512, 193.950 182.734, 187.320 187.684 M 240.250 198.734 C 237.071 199.834, 239.532 210.434, 244.106 215.344 C 245.148 216.462, 246 217.742, 246 218.189 C 246 218.635, 246.637 219, 247.417 219 C 248.196 219, 248.983 219.364, 249.167 219.809 C 249.350 220.254, 253.325 222.156, 258 224.035 C 268.242 228.152, 277.500 228.879, 277.500 225.566 C 277.500 224.184, 276.214 223.160, 273 221.982 C 265.442 219.213, 263.222 218.169, 262.538 217.062 C 262.177 216.478, 261.084 216, 260.108 216 C 257.754 216, 253.304 211.447, 250.459 206.129 C 248.172 201.853, 242.697 197.887, 240.250 198.734 M 76.068 205.050 C 76.131 208.290, 76.202 208.361, 77.235 206.217 C 78.048 204.530, 78.031 203.631, 77.167 202.767 C 76.278 201.878, 76.016 202.420, 76.068 205.050" stroke="none" fill="black" fill-rule="evenodd"/>
</svg>