<svg xmlns="http://www.w3.org/2000/svg" width="300" height="300" viewBox="0 0 300 300" version="1.1">
	<path d="M 170.690 16.154 C 168.336 17.471, 168.489 21, 170.900 21 C 171.945 21, 174.377 22.577, 176.305 24.505 C 178.645 26.845, 180.361 27.799, 181.469 27.374 C 182.535 26.964, 183.661 27.499, 184.620 28.869 C 185.442 30.041, 186.774 31, 187.582 31 C 188.389 31, 191.541 31.875, 194.585 32.945 C 200.359 34.975, 203 34.787, 203 32.347 C 203 30.999, 188.696 23.715, 183.478 22.405 C 182.232 22.092, 179.927 20.602, 178.356 19.093 C 174.809 15.685, 172.861 14.938, 170.690 16.154 M 70.286 43.698 C 69.595 45.499, 70.403 46.243, 73.205 46.385 C 76.162 46.535, 77.016 50, 74.096 50 C 69.967 50, 69.083 53.458, 68.592 71.534 L 68.130 88.500 55.815 89.214 C 33.972 90.480, 27.341 92.827, 30.180 98.285 C 31.267 100.376, 35.413 99.928, 43.273 96.869 C 47.156 95.357, 48.409 95.239, 49.998 96.231 C 51.487 97.161, 52.227 97.173, 53.119 96.281 C 54.011 95.389, 53.780 95.245, 52.144 95.673 C 50.965 95.981, 50 95.781, 50 95.228 C 50 93.961, 56.182 92.749, 58.366 93.587 C 60.309 94.333, 60.491 95.635, 58.750 96.338 C 58.063 96.615, 58.539 96.878, 59.809 96.921 C 61.079 96.964, 61.860 96.582, 61.544 96.072 C 60.894 95.019, 64.822 93.489, 65.762 94.429 C 66.732 95.398, 66.955 99.105, 66.356 104.283 C 65.938 107.903, 64.976 109.943, 62.402 112.673 C 60.531 114.657, 59 116.962, 59 117.795 C 59 118.629, 57.875 120.786, 56.500 122.589 C 55.125 124.392, 53.998 126.234, 53.996 126.683 C 53.993 127.132, 52.193 129.872, 49.996 132.770 C 47.798 135.669, 46 138.261, 46 138.531 C 46 138.801, 41.725 144.389, 36.500 150.949 C 31.275 157.509, 27 163.298, 27 163.815 C 27 164.332, 26.275 165.357, 25.389 166.092 C 24.503 166.828, 21.128 170.672, 17.890 174.635 C 11.232 182.783, 11.016 185, 16.881 185 C 20.174 185, 21.280 184.208, 27.702 177.250 C 38.605 165.438, 48.774 151.756, 57.061 137.750 C 59.908 132.938, 62.626 129, 63.100 129 C 65.337 129, 65.004 139.376, 62.041 162 C 60.660 172.538, 62.152 237.356, 64.070 250.162 C 65.279 258.236, 66.365 259.502, 71.035 258.281 C 73.008 257.765, 73.049 257.279, 72.400 242.124 C 72.032 233.531, 71.370 225.795, 70.929 224.933 C 69.573 222.287, 70.028 175.488, 71.561 160 C 72.350 152.025, 72.997 138.863, 72.998 130.750 C 73 118.307, 73.235 116, 74.500 116 C 75.325 116, 76 116.638, 76 117.417 C 76 118.196, 76.346 118.983, 76.768 119.167 C 77.760 119.597, 84 129.405, 84 130.534 C 84 132.019, 89.232 139.325, 93.450 143.730 C 97.926 148.405, 100.319 149.493, 97.086 145.382 C 95.954 143.943, 95.318 142.295, 95.673 141.720 C 96.644 140.149, 100.216 145.066, 99.657 147.204 C 99.157 149.116, 107.081 157.980, 109.329 158.022 C 109.973 158.034, 111.625 158.924, 113 160 C 114.375 161.076, 116.954 161.966, 118.731 161.978 C 122.753 162.005, 123.713 164.782, 122.104 171.732 C 121.497 174.355, 120.770 180.100, 120.488 184.500 C 120.205 188.900, 119.543 196.812, 119.015 202.082 C 117.634 215.886, 116.591 244.233, 117.353 247.270 C 119.191 254.595, 126.536 254.863, 129.283 247.706 C 129.643 246.768, 129.501 245.944, 128.969 245.875 C 128.436 245.806, 127.587 245.694, 127.083 245.625 C 126.579 245.556, 125.916 245.250, 125.610 244.944 C 124.728 244.061, 126.887 204.574, 128.452 193 C 129.232 187.225, 130.143 178.225, 130.475 173 C 131.287 160.222, 133.739 137.747, 135.657 125.500 C 136.519 120, 137.375 113.925, 137.560 112 C 137.745 110.075, 138.349 103.550, 138.902 97.500 C 139.454 91.450, 140.368 83.575, 140.933 80 C 141.498 76.425, 141.969 71.179, 141.980 68.342 C 141.994 64.748, 142.801 61.641, 144.642 58.092 C 146.863 53.811, 147.730 53, 150.083 53 C 151.622 53, 153.160 52.550, 153.500 52 C 153.840 51.450, 155.161 51, 156.437 51 C 157.712 51, 159.332 50.305, 160.038 49.454 C 160.743 48.604, 161.953 48.152, 162.726 48.448 C 165.945 49.684, 186.046 50.065, 190.119 48.968 C 194.023 47.917, 194.492 48.001, 196.023 50.030 C 197.158 51.536, 198.304 52.038, 199.636 51.616 C 200.708 51.275, 206.406 50.778, 212.297 50.510 C 224.233 49.968, 230.368 48.132, 229.808 45.269 C 229.516 43.777, 228.525 43.540, 223.481 43.757 C 208.028 44.421, 181.207 44.420, 169 43.756 C 154.975 42.992, 149.136 43.745, 145.754 46.751 C 144.429 47.929, 144.277 48.629, 145.126 49.652 C 146.001 50.706, 145.809 51, 144.245 51 C 143.145 51, 141.669 50.306, 140.964 49.457 C 139.015 47.109, 136.941 48.111, 135.589 52.055 C 134.049 56.546, 134.536 58, 137.583 58 C 139.333 58, 140 58.552, 140 60 C 140 61.459, 139.333 62, 137.535 62 C 133.725 62, 132.865 64.955, 131.894 81.383 C 131.402 89.697, 130.346 100.775, 129.547 106 C 128.122 115.316, 127.147 122.986, 124.970 142 C 122.834 160.656, 122.978 160.474, 115.168 154.324 C 110.161 150.382, 108.789 148.977, 103.141 142.008 C 101.138 139.537, 98.061 136.028, 96.302 134.210 C 94.543 132.392, 92.860 130.134, 92.561 129.193 C 92.263 128.252, 90.439 125.084, 88.509 122.154 C 86.579 119.223, 85 116.630, 85 116.391 C 85 114.922, 79.486 108, 78.315 108 C 77.535 108, 76.406 109.406, 75.807 111.124 C 73.888 116.629, 72.995 111.977, 74.757 105.649 C 77.030 97.480, 78.869 96.683, 95.667 96.580 C 102.909 96.536, 109.160 96.173, 109.559 95.774 C 110.974 94.359, 107.802 92.123, 102.885 91.069 C 100.144 90.481, 93.147 90, 87.336 90 L 76.770 90 77.135 70.250 C 77.456 52.868, 77.710 50.343, 79.250 49.193 C 81.525 47.494, 81.490 44.332, 79.181 43.097 C 76.554 41.691, 70.909 42.072, 70.286 43.698 M 162.750 50.662 C 163.438 50.940, 164.563 50.940, 165.250 50.662 C 165.938 50.385, 165.375 50.158, 164 50.158 C 162.625 50.158, 162.063 50.385, 162.750 50.662 M 179.510 52.016 C 179.856 52.575, 180.557 52.774, 181.069 52.457 C 182.456 51.600, 182.198 51, 180.441 51 C 179.584 51, 179.165 51.457, 179.510 52.016 M 187.750 61.082 C 186.787 61.642, 186 62.768, 186 63.585 C 186 64.402, 185.311 66.123, 184.468 67.409 C 183.625 68.695, 182.663 72.054, 182.329 74.874 C 181.995 77.693, 181.222 80.065, 180.611 80.144 C 180 80.223, 176.350 80.443, 172.500 80.632 C 168.650 80.821, 163.202 81.098, 160.392 81.247 C 157.583 81.397, 154.552 82.127, 153.657 82.870 C 152.164 84.109, 152.199 84.438, 154.084 86.834 C 156.370 89.741, 163 91.017, 163 88.550 C 163 85.952, 167.833 85.975, 168.335 88.575 C 168.504 89.445, 172.283 89.357, 177.317 88.366 C 178.924 88.050, 180.508 86.886, 181.004 85.656 C 181.849 83.559, 181.875 83.556, 181.937 85.550 C 181.971 86.677, 182.410 88.027, 182.912 88.550 C 183.413 89.072, 183.976 91.750, 184.162 94.500 L 184.500 99.500 178.500 100.146 C 159.056 102.241, 154.773 103.839, 157.074 108.138 C 158.709 111.194, 165.338 110.680, 167.796 107.306 C 169.707 104.682, 169.826 104.656, 172.344 106.306 C 175.787 108.562, 178.691 108.446, 180 106 C 182.430 101.459, 185.276 105.311, 188.350 117.303 L 189.838 123.106 179.169 122.995 C 163.103 122.827, 163.167 122.820, 162.018 124.966 C 161.126 126.634, 161.416 127.164, 163.934 128.466 C 167.874 130.503, 176.584 130.525, 177.362 128.500 C 178.198 126.320, 180 126.662, 180 129 C 180 131.094, 182.417 131.752, 183.525 129.959 C 184.265 128.762, 188.145 129.730, 189.235 131.385 C 190.239 132.909, 190.195 140.761, 189.179 141.390 C 188.727 141.669, 183.061 142.214, 176.588 142.601 C 165.534 143.262, 164.753 143.447, 163.749 145.652 C 162.649 148.065, 161 148.832, 161 146.930 C 161 146.342, 159.988 146.005, 158.750 146.180 C 156.851 146.450, 156.495 147.124, 156.471 150.500 C 156.454 152.700, 155.723 155.625, 154.844 157 C 152.183 161.167, 151.056 173.235, 150.828 200 C 150.624 224, 152.204 246.943, 154.417 252.109 C 155.418 254.448, 159.435 256.314, 161.830 255.554 C 164.839 254.599, 165.645 251.140, 163.249 249.462 C 160.643 247.637, 159.496 232.740, 159.788 204.500 C 160.237 160.969, 160.582 154.816, 162.641 153.638 C 163.663 153.053, 165.175 152.557, 166 152.537 C 166.825 152.517, 167.379 151.913, 167.232 151.196 C 167.085 150.479, 167.660 149.197, 168.510 148.347 C 169.738 147.119, 170.356 147.051, 171.517 148.014 C 172.672 148.972, 173.806 148.895, 176.931 147.644 C 180.711 146.132, 180.912 146.149, 181.510 148.031 C 182.141 150.019, 186 150.852, 186 149 C 186 148.450, 186.622 148, 187.381 148 C 190.347 148, 192.690 168.870, 189.750 169.096 C 189.063 169.148, 186.025 169.278, 183 169.384 C 169.373 169.862, 168.999 169.925, 169.022 171.750 C 169.034 172.713, 169.822 174.508, 170.772 175.740 C 172.380 177.825, 172.900 177.915, 178.289 177.036 C 181.472 176.517, 184.735 176.345, 185.539 176.653 C 186.536 177.036, 187 176.544, 187 175.107 C 187 172.312, 187.776 172.450, 190.356 175.702 C 192.810 178.795, 194.129 183.519, 194.348 190 L 194.500 194.500 184.736 194.139 C 174.402 193.758, 172 194.518, 172 198.173 C 172 200.647, 178.679 203.721, 180.373 202.027 C 181.187 201.213, 181.085 200.665, 179.992 199.974 C 178.899 199.283, 179.435 199.048, 182 199.094 C 183.925 199.129, 184.938 199.385, 184.250 199.662 C 181.891 200.614, 183.001 202, 186.122 202 C 188.785 202, 189.061 201.779, 188 200.500 C 186.963 199.250, 187.095 199, 188.796 199 C 191.721 199, 194.079 200.062, 193.442 201.093 C 193.142 201.579, 193.546 201.728, 194.339 201.423 C 195.916 200.818, 196.046 202.034, 198.506 240.500 C 199.288 252.727, 200.452 258.737, 202.472 260.969 C 206.710 265.652, 210.115 261.057, 208.220 253.210 C 207.595 250.619, 207.050 242.425, 207.011 235 C 206.971 227.575, 206.455 218.681, 205.864 215.236 C 205.273 211.792, 205.060 207.899, 205.389 206.586 C 206.130 203.634, 210.705 201.698, 217.500 201.462 C 226.260 201.159, 236.083 199.234, 238.074 197.433 C 241.661 194.187, 240.043 191.273, 235.594 192.964 C 234.179 193.502, 226.730 194.168, 219.041 194.443 L 205.062 194.943 204.111 191.221 C 203.588 189.175, 202.899 185.250, 202.580 182.500 C 202.085 178.236, 202.341 177.089, 204.322 174.707 C 206.320 172.304, 207.003 172.051, 209.218 172.893 C 210.633 173.431, 213.976 173.633, 216.646 173.342 C 224.112 172.529, 227.632 172.731, 230.173 174.117 C 231.453 174.815, 234.075 175.533, 236 175.711 C 237.925 175.889, 240.625 176.140, 242 176.267 C 243.898 176.444, 244.500 176.026, 244.500 174.534 C 244.500 172.539, 240.806 170.690, 231.500 168.024 C 226.902 166.708, 210.522 166.398, 204.250 167.510 C 200.188 168.230, 200 168.153, 200 165.778 C 200 164.412, 199.712 160.536, 199.360 157.166 C 198.761 151.438, 198.866 150.985, 200.974 150.205 C 203.049 149.438, 203.100 149.243, 201.614 147.757 C 200.726 146.869, 200 145.984, 200 145.789 C 200 145.594, 202.292 145.335, 205.093 145.213 C 209.440 145.024, 210.261 145.283, 210.706 146.985 C 210.993 148.081, 211.634 148.726, 212.130 148.420 C 212.626 148.113, 212.805 147.494, 212.527 147.044 C 212.249 146.595, 212.631 145.721, 213.376 145.103 C 214.392 144.260, 215.452 144.355, 217.615 145.483 C 220.249 146.857, 220.304 146.988, 218.250 146.994 C 214.922 147.003, 215.520 148.736, 219.125 149.527 C 221.284 150.002, 222.516 149.794, 223.110 148.857 C 223.676 147.963, 223.975 147.903, 223.985 148.683 C 224.012 150.799, 228.222 151.417, 229.617 149.510 C 230.686 148.047, 231.483 147.933, 234.693 148.784 C 237.809 149.610, 238.046 149.828, 236 149.983 C 233.599 150.164, 233.618 150.209, 236.500 151.106 C 238.484 151.724, 241.611 151.634, 245.736 150.840 C 249.166 150.179, 252.242 149.908, 252.571 150.238 C 252.901 150.567, 253.282 159.086, 253.419 169.168 C 253.556 179.251, 254.213 193.350, 254.881 200.500 C 256.939 222.550, 257.151 237.630, 255.423 239.064 C 254.288 240.006, 253.351 240.026, 251.423 239.147 C 247.847 237.517, 245.568 237.719, 242.869 239.905 C 240.590 241.750, 240.573 241.871, 242.324 243.806 C 243.318 244.904, 245.789 246.087, 247.815 246.435 C 255.840 247.814, 257 248.211, 257 249.579 C 257 250.361, 257.675 251.067, 258.500 251.150 C 259.325 251.233, 260.495 251.345, 261.101 251.400 C 261.706 251.455, 262.888 249.475, 263.728 247 C 265 243.248, 265.133 239.174, 264.532 222.500 C 263.435 192.119, 263.409 191.642, 262.723 189.500 C 262.371 188.400, 261.829 179.192, 261.518 169.038 C 260.969 151.105, 259.916 144.005, 257.508 142.007 C 256.744 141.373, 253.941 141.534, 249.420 142.472 C 241.538 144.108, 230.119 144.250, 228.228 142.736 C 227.528 142.176, 220.778 141.631, 213.228 141.524 L 199.500 141.329 199.187 137.046 C 198.949 133.798, 199.374 132.231, 200.946 130.558 C 202.086 129.344, 202.714 128.048, 202.342 127.676 C 201.971 127.304, 202.192 127, 202.833 127 C 203.475 127, 204 127.500, 204 128.111 C 204 128.860, 205.224 128.982, 207.750 128.486 C 209.813 128.080, 213.975 127.464, 217 127.116 L 222.500 126.483 222.191 120.992 C 222.021 117.971, 222.136 114.150, 222.446 112.500 C 222.966 109.739, 223.367 109.484, 227.481 109.298 C 232.951 109.051, 236.231 107.427, 235.790 105.183 C 235.514 103.777, 234.445 103.557, 229.293 103.846 L 223.127 104.193 222.607 100.846 C 222.320 99.006, 221.908 93.989, 221.690 89.697 C 221.472 85.405, 220.792 81.392, 220.179 80.779 C 216.890 77.490, 200.482 75.601, 196.007 77.996 C 192.722 79.754, 191.212 78.220, 190.775 72.678 C 190.551 69.830, 190.769 66.962, 191.260 66.305 C 192.370 64.820, 191.851 60.760, 190.500 60.361 C 189.950 60.198, 188.713 60.522, 187.750 61.082 M 204.707 83.595 C 203.170 84.428, 200.096 85.182, 197.876 85.270 C 192.768 85.474, 191.762 87.228, 192.762 94.186 L 193.526 99.500 202.513 100.618 C 207.456 101.233, 211.916 101.357, 212.425 100.894 C 213.805 99.635, 214.290 87.894, 213.092 84.743 C 211.892 81.586, 209.113 81.206, 204.707 83.595 M 174.143 84.890 C 172.196 86.124, 174.460 87.306, 177.141 86.455 C 178.810 85.926, 178.969 85.594, 177.882 84.906 C 176.168 83.820, 175.834 83.819, 174.143 84.890 M 181 107 C 181 107.550, 181.702 108, 182.559 108 C 183.416 108, 183.840 107.550, 183.500 107 C 183.160 106.450, 182.459 106, 181.941 106 C 181.423 106, 181 106.450, 181 107 M 205.837 108.287 C 204.499 110.066, 203.921 110.255, 202.887 109.250 C 201.106 107.520, 197.059 107.682, 196.357 109.512 C 196.038 110.344, 196.164 113.606, 196.638 116.762 L 197.500 122.500 206.247 122.500 C 215.977 122.500, 215.703 122.762, 213.946 115.139 C 213.271 112.214, 213.271 110.378, 213.946 109.565 C 215.346 107.878, 213.261 105.990, 210.050 106.037 C 208.619 106.058, 206.770 107.046, 205.837 108.287 M 131.500 118 C 131.160 118.550, 131.584 119, 132.441 119 C 133.298 119, 134 118.550, 134 118 C 134 117.450, 133.577 117, 133.059 117 C 132.541 117, 131.840 117.450, 131.500 118 M 88 132.255 C 88 133.080, 88.675 134.315, 89.500 135 C 90.720 136.012, 91 135.965, 91 134.745 C 91 133.920, 90.325 132.685, 89.500 132 C 88.280 130.988, 88 131.035, 88 132.255 M 164.655 198.458 C 163.839 200.583, 164.913 203, 166.673 203 C 167.668 203, 168.032 202.148, 167.816 200.327 C 167.456 197.283, 165.540 196.150, 164.655 198.458 M 259 207.941 C 259 208.459, 259.450 209.160, 260 209.500 C 260.550 209.840, 261 209.416, 261 208.559 C 261 207.702, 260.550 207, 260 207 C 259.450 207, 259 207.423, 259 207.941" stroke="none" fill="black" fill-rule="evenodd"/>
</svg>