<svg xmlns="http://www.w3.org/2000/svg" width="300" height="300" viewBox="0 0 300 300" version="1.1">
	<path d="M 124.666 46.816 C 123.401 48.214, 123.170 49.356, 123.797 51.110 C 124.903 54.206, 124.141 62.659, 122.653 63.802 C 122.019 64.289, 117.450 65.276, 112.500 65.996 C 107.550 66.717, 102.375 67.861, 101 68.540 C 99.625 69.219, 97.263 70.266, 95.750 70.866 C 93.806 71.637, 93 72.668, 93 74.383 C 93 76.631, 93.376 76.811, 98.158 76.848 C 100.995 76.870, 104.482 76.306, 105.908 75.595 C 109.510 73.798, 120.574 71.623, 122.450 72.343 C 123.646 72.801, 124 74.537, 124 79.933 C 124 88.325, 124.056 88.280, 111.500 89.968 C 103.222 91.081, 93.271 93.191, 89.532 94.626 C 88.576 94.993, 88 94.650, 88 93.714 C 88 92.889, 88.675 91.955, 89.500 91.638 C 91.189 90.990, 91.567 88, 89.960 88 C 89.387 88, 87.564 89.002, 85.908 90.226 C 83.466 92.032, 82.737 92.193, 82.050 91.080 C 81.583 90.326, 80.481 89.985, 79.601 90.323 C 77.449 91.148, 77.430 103.698, 79.562 116.049 C 81.375 126.554, 83.127 131.966, 86.043 136.060 C 87.190 137.671, 87.998 139.778, 87.839 140.744 C 87.680 141.710, 87.903 143.063, 88.334 143.750 C 89.268 145.239, 94.619 145.426, 95.500 144 C 95.840 143.450, 97.109 143, 98.321 143 C 99.532 143, 104.668 141.952, 109.733 140.672 C 118.937 138.345, 121 138.538, 121 141.725 C 121 143.294, 116.962 144.994, 113.185 145.015 C 109.427 145.035, 88.544 152.589, 85.500 155.028 C 84.950 155.469, 82.071 156.670, 79.101 157.696 C 76.132 158.722, 73.045 160.553, 72.241 161.764 C 70.877 163.818, 70.959 164.034, 73.455 164.983 C 74.926 165.542, 77.026 166, 78.122 166 C 80.210 166, 95.583 159.914, 99.325 157.606 C 100.521 156.869, 104.303 155.418, 107.729 154.383 C 112.047 153.077, 113.887 152.040, 113.729 151 C 113.603 150.175, 114.063 149.500, 114.750 149.500 C 115.438 149.500, 115.888 149.818, 115.750 150.207 C 115.612 150.596, 116.291 151.496, 117.257 152.207 C 118.465 153.096, 119.663 156.937, 121.089 164.500 C 123.278 176.101, 125.186 179.920, 127.737 177.803 C 128.719 176.988, 128.963 175.651, 128.512 173.557 C 128.150 171.876, 127.723 166.500, 127.563 161.612 L 127.273 152.723 130.136 151.642 C 133.201 150.486, 133.967 149, 131.500 149 C 130.675 149, 130 148.550, 130 148 C 130 146.312, 132.889 146.889, 135 149 C 137.527 151.527, 138.651 151.520, 140.015 148.972 C 141.217 146.726, 143.242 147.207, 142.351 149.527 C 141.889 150.731, 142.650 150.892, 146.645 150.437 C 158.694 149.063, 164 146.607, 164 142.404 C 164 139.266, 162.765 138.772, 159.273 140.513 C 157.255 141.520, 151.930 142.136, 142.652 142.436 L 129 142.878 129 140.458 C 129 137.900, 128.909 137.940, 138.500 136.336 C 142.539 135.661, 143.559 135.085, 143.807 133.342 C 144.051 131.633, 143.460 131.040, 140.965 130.492 C 139.233 130.112, 135.831 130.098, 133.406 130.462 C 129.373 131.067, 128.919 130.916, 128.075 128.698 C 127.082 126.085, 127.744 118.172, 129.101 116.439 C 129.558 115.855, 132.029 115.269, 134.593 115.136 C 139.666 114.873, 139.620 114.763, 137.438 121.851 C 136.345 125.399, 139.955 124.295, 142.487 120.306 C 143.594 118.562, 145.400 116.992, 146.500 116.817 C 148.077 116.567, 148.439 115.850, 148.209 113.423 C 148.049 111.730, 148.437 109.030, 149.070 107.423 C 149.704 105.815, 150.831 102.025, 151.575 99 C 154.526 87.011, 153.390 85.737, 140.102 86.129 L 130.500 86.411 130.242 79.956 C 130.100 76.405, 130.408 72.847, 130.925 72.049 C 132.233 70.033, 141.071 69.894, 145.062 71.827 C 148.022 73.260, 148.351 73.240, 149.588 71.548 C 151.171 69.384, 150.044 66.629, 146.886 64.939 C 145.748 64.330, 141.484 63.580, 137.409 63.272 L 130 62.711 130 58.921 C 130 56.836, 130.376 54.088, 130.836 52.815 C 132.888 47.132, 128.362 42.732, 124.666 46.816 M 207.311 54.352 C 206.107 55.533, 199.132 62.384, 191.811 69.576 C 184.490 76.767, 176.403 83.873, 173.841 85.367 C 168.066 88.734, 167.461 90.196, 170.389 93.723 C 173.982 98.051, 174.517 102.791, 174.259 128 C 174.032 150.211, 173.874 151.966, 171.383 160 C 169.933 164.675, 168.354 168.928, 167.874 169.450 C 167.393 169.973, 167 171.435, 167 172.700 C 167 177.400, 172.686 174.495, 175.986 168.108 C 179.996 160.348, 181.165 152.632, 181.722 130.250 L 182.275 108 184.578 108 C 185.845 108, 187.154 107.559, 187.487 107.020 C 187.871 106.399, 188.773 106.466, 189.953 107.203 C 191.408 108.111, 192.947 107.998, 197.021 106.682 C 206.350 103.669, 209.106 104.963, 207.080 111.403 C 204.649 119.128, 201.893 189.198, 203.969 190.481 C 204.632 190.891, 205.551 190.837, 206.011 190.363 C 208.411 187.889, 210.902 162.952, 212.862 121.778 C 213.274 113.131, 213.952 105.706, 214.370 105.278 C 214.788 104.850, 218.089 104.050, 221.707 103.500 C 229.142 102.370, 231.655 100.227, 228.844 97.415 C 227.389 95.961, 225.741 95.911, 212.861 96.936 C 198.863 98.049, 188.124 100.460, 183.285 103.574 C 182.067 104.358, 180.888 105, 180.664 105 C 180.441 105, 179.943 101.794, 179.556 97.876 L 178.854 90.752 183.137 86.876 C 185.493 84.744, 187.757 83, 188.170 83 C 189.697 83, 213.080 58.530, 213.624 56.363 C 214.786 51.734, 211.157 50.578, 207.311 54.352 M 111 70.969 C 111 71.501, 111.675 71.678, 112.500 71.362 C 113.325 71.045, 114 70.609, 114 70.393 C 114 70.177, 113.325 70, 112.500 70 C 111.675 70, 111 70.436, 111 70.969 M 139.704 92.330 C 139.401 93.119, 137.476 94.162, 135.427 94.646 C 132.065 95.441, 131.564 96, 130.287 100.377 C 129.510 103.045, 129.089 105.788, 129.352 106.474 C 129.615 107.160, 131.781 107.959, 134.165 108.250 C 136.549 108.541, 139.284 109.100, 140.242 109.493 C 142.045 110.233, 142.327 109.818, 143.418 104.820 C 143.740 103.346, 144.722 101.421, 145.601 100.542 C 146.709 99.434, 146.891 98.569, 146.195 97.722 C 145.643 97.050, 145.036 95.375, 144.846 94 C 144.456 91.182, 140.622 89.937, 139.704 92.330 M 119.702 96.632 C 119.354 96.979, 116.692 97.413, 113.785 97.596 C 107.947 97.964, 99.494 99.776, 90.844 102.515 C 85.967 104.059, 85.108 104.709, 84.603 107.235 C 84.281 108.846, 84.455 110.982, 84.990 111.981 C 85.525 112.981, 86.166 116.480, 86.414 119.757 C 86.663 123.033, 87.623 128.029, 88.548 130.857 C 90.163 135.796, 90.374 136, 93.865 135.999 C 95.864 135.999, 99.970 135.060, 102.989 133.913 C 106.008 132.765, 111.183 131.528, 114.489 131.163 L 120.500 130.500 120.139 124.500 C 119.941 121.200, 119.716 117.375, 119.639 116 C 119.505 113.585, 117.333 111.766, 115.709 112.709 C 115.274 112.962, 115.173 113.971, 115.485 114.952 C 115.961 116.454, 115.217 116.856, 110.775 117.497 C 100.779 118.939, 96.151 118.887, 94.848 117.317 C 91.818 113.666, 99.645 110.462, 113.761 109.574 C 117.321 109.350, 120.657 108.743, 121.174 108.226 C 121.692 107.708, 122.377 104.746, 122.697 101.642 C 123.169 97.076, 122.999 96, 121.807 96 C 120.996 96, 120.049 96.284, 119.702 96.632 M 95 98 C 95 98.550, 95.675 99, 96.500 99 C 97.325 99, 98 98.550, 98 98 C 98 97.450, 97.325 97, 96.500 97 C 95.675 97, 95 97.450, 95 98 M 208 124 C 208 125.100, 208.450 126, 209 126 C 209.550 126, 210 125.100, 210 124 C 210 122.900, 209.550 122, 209 122 C 208.450 122, 208 122.900, 208 124 M 86.750 159.662 C 87.438 159.940, 88.563 159.940, 89.250 159.662 C 89.938 159.385, 89.375 159.158, 88 159.158 C 86.625 159.158, 86.063 159.385, 86.750 159.662 M 167.250 181.708 C 166.563 181.960, 166 183.071, 166 184.177 C 166 185.350, 165.162 186.406, 163.989 186.713 C 161.671 187.319, 161.114 189.178, 160.757 197.500 L 160.500 203.500 156.500 203.774 C 152.474 204.049, 128.368 208.260, 120 210.150 C 117.525 210.709, 114.053 211.402, 112.285 211.689 C 107.815 212.414, 106.382 214.347, 107.878 217.632 C 108.824 219.709, 109.527 220.085, 111.526 219.583 C 112.887 219.241, 116.038 218.682, 118.528 218.341 C 121.018 218, 123.290 217.340, 123.577 216.875 C 123.864 216.410, 122.727 216.305, 121.050 216.640 C 119.096 217.031, 118 216.846, 118 216.125 C 118 215.506, 119.323 215, 120.941 215 C 122.559 215, 124.138 214.586, 124.450 214.081 C 124.763 213.575, 127.726 213.149, 131.036 213.133 C 134.580 213.116, 136.813 213.494, 136.468 214.052 C 136.146 214.573, 136.864 215, 138.063 215 C 139.842 215, 140.026 214.736, 139.058 213.570 C 138.109 212.426, 138.280 211.920, 139.912 211.047 C 142.451 209.688, 145.817 211.488, 146.616 214.632 C 147.507 218.140, 142.980 227.025, 136.288 234.903 C 132.830 238.974, 130 242.626, 130 243.018 C 130 243.840, 115.497 256, 114.516 256 C 112.941 256, 106.034 262.664, 106.018 264.200 C 105.973 268.447, 111.610 268.084, 117 263.493 C 118.375 262.322, 120.850 260.527, 122.500 259.504 C 126.542 256.996, 137 246.969, 137.002 245.598 C 137.003 244.994, 138.797 242.812, 140.990 240.749 C 143.182 238.686, 146.038 235.311, 147.336 233.249 C 152.188 225.541, 157.021 215.843, 156.461 214.937 C 155.409 213.235, 153.966 213.960, 152.856 216.750 C 152.254 218.262, 151.562 218.965, 151.318 218.311 C 151.074 217.657, 151.637 215.958, 152.569 214.535 C 153.813 212.636, 154.799 212.119, 156.278 212.588 C 157.954 213.120, 158.200 212.873, 157.740 211.114 C 157.413 209.862, 157.659 209, 158.344 209 C 159.509 209, 159.607 209.781, 160.023 222.500 C 160.231 228.819, 158.730 240.348, 154.492 265.008 C 151.900 280.092, 154.320 291.574, 159.278 287.711 C 160.450 286.798, 160.965 283.789, 161.371 275.500 C 161.887 264.957, 162.359 261.081, 165.030 245.500 C 165.689 241.650, 166.345 236.475, 166.487 234 C 167.035 224.408, 168.170 215.550, 169.065 213.879 C 169.579 212.918, 170 211.202, 170 210.066 C 170 208.667, 170.645 208, 172 208 C 173.100 208, 173.887 208.563, 173.750 209.250 C 173.612 209.938, 174.063 210.455, 174.750 210.400 C 175.438 210.345, 178.363 210.204, 181.250 210.087 C 185.620 209.909, 186.109 209.716, 184.166 208.938 C 182.883 208.423, 182.017 207.439, 182.243 206.751 C 182.768 205.152, 188.410 204.569, 190.728 205.873 C 192.364 206.794, 192.332 206.933, 190.310 207.685 C 188.975 208.182, 192.993 208.517, 200.593 208.543 C 212.891 208.585, 213.074 208.552, 213.660 206.220 C 214.480 202.951, 213.282 202.107, 206.962 201.502 C 203.958 201.215, 199.664 200.743, 197.421 200.454 C 195.178 200.165, 190.228 200.366, 186.421 200.899 C 182.614 201.433, 176.966 202.122, 173.870 202.430 L 168.240 202.989 167.790 196.767 C 167.491 192.640, 167.843 189.263, 168.835 186.738 C 170.345 182.894, 169.690 180.814, 167.250 181.708 M 131.490 215.016 C 131.144 215.575, 130.484 215.799, 130.023 215.514 C 129.562 215.229, 128.131 215.418, 126.842 215.935 C 124.608 216.830, 124.641 216.876, 127.559 216.937 C 129.241 216.971, 131.491 216.339, 132.559 215.532 C 133.626 214.724, 133.964 214.049, 133.309 214.032 C 132.654 214.014, 131.835 214.457, 131.490 215.016 M 174.127 219.791 C 171.804 220.565, 173.138 223.061, 177.250 225.637 C 179.588 227.101, 181.725 228.602, 182 228.972 C 182.275 229.343, 183.339 229.956, 184.363 230.335 C 185.573 230.782, 186.055 231.683, 185.736 232.901 C 185.161 235.100, 186.389 237.443, 188.217 237.635 C 188.923 237.709, 190.063 237.821, 190.750 237.885 C 191.438 237.948, 192 238.830, 192 239.845 C 192 240.860, 192.900 242.505, 194 243.500 C 195.100 244.495, 196 245.887, 196 246.592 C 196 247.307, 197.437 248.012, 199.250 248.187 C 201.975 248.449, 202.449 248.863, 202.187 250.750 C 201.941 252.522, 202.366 253.003, 204.187 253.015 C 207.042 253.034, 208.065 253.745, 210.304 257.261 C 211.703 259.461, 212.564 259.897, 214.531 259.403 C 215.978 259.040, 217 259.216, 217 259.829 C 217 260.726, 226.250 266.416, 227.917 266.545 C 228.238 266.570, 230.470 267.621, 232.877 268.881 C 238.135 271.631, 249.500 272.462, 249.500 270.095 C 249.500 269.295, 247.254 267.927, 244.280 266.917 C 238.778 265.046, 215.855 254.191, 215 253.051 C 214.725 252.684, 211.543 249.896, 207.929 246.855 C 204.315 243.815, 196.493 236.313, 190.546 230.186 C 179.948 219.266, 178.484 218.339, 174.127 219.791 M 127 252 C 127 252.550, 127.450 253, 128 253 C 128.550 253, 129 252.550, 129 252 C 129 251.450, 128.550 251, 128 251 C 127.450 251, 127 251.450, 127 252" stroke="none" fill="black" fill-rule="evenodd"/>
</svg>