<svg xmlns="http://www.w3.org/2000/svg" width="300" height="300" viewBox="0 0 300 300" version="1.1">
	<path d="M 209.441 39.468 C 208.374 40.276, 206.277 40.951, 204.781 40.968 C 202.928 40.990, 202.226 41.426, 202.577 42.340 C 202.860 43.077, 202.347 44.297, 201.437 45.052 C 200.013 46.234, 199.593 46.164, 198.408 44.543 C 197.140 42.809, 196.892 42.787, 195.259 44.266 C 194.272 45.159, 191.271 46.010, 188.493 46.185 C 184.120 46.461, 183.459 46.792, 183.167 48.854 C 182.839 51.172, 182.813 51.177, 181.424 49.195 C 180.186 47.428, 179.588 47.314, 176.507 48.259 C 174.578 48.851, 173 49.710, 173 50.168 C 173 50.626, 172.100 51, 171 51 C 169.900 51, 169 50.550, 169 50 C 169 49.450, 168.100 49, 167 49 C 165.900 49, 165 49.450, 165 50 C 165 50.550, 164.100 51, 163 51 C 161.900 51, 161 50.550, 161 50 C 161 48.279, 157.249 48.910, 156.540 50.750 C 156.169 51.712, 155.453 60.825, 154.949 71 C 153.920 91.738, 151.114 117, 149.838 117 C 149.377 117, 148.980 118.912, 148.956 121.250 C 148.932 123.588, 148.285 127.261, 147.518 129.414 C 146.751 131.566, 145.569 136.516, 144.892 140.414 C 144.215 144.311, 143.062 148.388, 142.331 149.473 C 141.599 150.557, 141 152.609, 141 154.031 C 141 155.454, 140.396 157.443, 139.659 158.452 C 138.366 160.220, 138.148 160.222, 133.673 158.513 C 131.118 157.537, 128.510 156.115, 127.876 155.351 C 127.243 154.588, 125.211 153.245, 123.362 152.368 C 121.513 151.490, 120 150.373, 120 149.886 C 120 149.399, 119.428 149, 118.730 149 C 118.031 149, 114.768 146.494, 111.480 143.431 C 108.191 140.368, 104.487 137.166, 103.250 136.316 C 102.013 135.466, 100.994 134.259, 100.988 133.635 C 100.981 133.011, 99.419 131.492, 97.517 130.260 C 92.457 126.983, 91.020 124.126, 90.282 115.882 C 89.039 101.988, 90.397 89.891, 93.018 91.511 C 94.319 92.315, 101 90.149, 101 88.922 C 101 88.415, 101.839 88, 102.865 88 C 103.891 88, 105.874 87.100, 107.273 86 C 108.671 84.900, 110.462 84, 111.253 84 C 112.043 84, 113.494 83.111, 114.477 82.026 C 115.460 80.940, 117.104 79.784, 118.132 79.458 C 120.130 78.824, 120.746 76, 118.886 76 C 118.274 76, 116.136 76.841, 114.136 77.868 C 112.136 78.896, 107.800 80.757, 104.500 82.005 C 101.200 83.252, 98.016 84.864, 97.425 85.588 C 96.833 86.312, 95.405 86.657, 94.251 86.355 C 92.229 85.827, 92.142 85.126, 91.827 66.866 C 91.559 51.362, 91.228 47.754, 90 46.988 C 88.837 46.263, 88.429 46.608, 88.184 48.526 C 87.810 51.449, 87.174 51.620, 85.450 49.263 C 84.322 47.719, 84.099 47.953, 83.461 51.355 C 83.066 53.461, 83.001 57.956, 83.316 61.342 C 83.631 64.729, 83.566 71.700, 83.171 76.833 C 82.610 84.137, 82.078 86.377, 80.727 87.133 C 79.777 87.664, 79 88.655, 79 89.334 C 79 91.068, 70.651 94.026, 68.895 92.914 C 68.128 92.428, 67.950 92.017, 68.500 92 C 69.050 91.983, 68.911 91.596, 68.190 91.139 C 66.019 89.762, 51.921 91.087, 49.846 92.864 C 42.847 98.857, 59.101 101.471, 72.692 96.538 C 76.808 95.044, 79.836 94.436, 80.393 94.993 C 80.898 95.498, 81.353 100.608, 81.405 106.350 C 81.483 114.862, 81.186 117.136, 79.801 118.668 C 78.629 119.962, 78.392 121.005, 79.035 122.023 C 80.496 124.333, 80.153 131.508, 77.990 143.871 C 76.822 150.543, 76 159.737, 76 166.121 C 76 172.104, 75.640 177, 75.199 177 C 73.048 177, 65.359 241.278, 65.603 257.220 C 65.750 266.854, 69.150 269.863, 73.820 264.492 C 76.151 261.812, 76.627 260, 75 260 C 74.436 260, 74 257.167, 74 253.500 C 74 249.925, 74.398 247, 74.884 247 C 75.370 247, 76.020 241.038, 76.328 233.750 C 77.011 217.569, 79.481 192.649, 80.578 190.874 C 81.849 188.817, 85.901 156.807, 85.284 153.694 C 84.560 150.043, 87.905 135.821, 89.821 134.403 C 90.885 133.615, 90.978 133.105, 90.151 132.594 C 88.664 131.674, 88.655 129, 90.140 129 C 92.311 129, 93.870 132.235, 92.644 134.198 C 91.685 135.733, 92.504 136.968, 98.261 142.669 C 101.967 146.339, 105 149.715, 105 150.171 C 105 150.627, 105.689 151, 106.531 151 C 107.374 151, 108.306 151.634, 108.603 152.408 C 108.900 153.183, 110.574 154.384, 112.322 155.076 C 114.070 155.769, 116.114 156.822, 116.864 157.418 C 117.615 158.013, 122.115 160.525, 126.864 163 C 135.272 167.381, 135.497 167.593, 135.405 171 C 135.277 175.741, 132.226 190.228, 131.207 190.933 C 130.126 191.681, 126 212.584, 126 217.310 C 126 219.340, 125.586 221, 125.081 221 C 124.576 221, 123.704 222.912, 123.143 225.250 C 122.583 227.588, 121.635 231.525, 121.037 234 C 118.902 242.836, 112.992 256.932, 110.586 258.929 C 107.308 261.649, 109.608 266.438, 113.681 265.373 C 115.075 265.009, 117.162 261.983, 120.032 256.165 C 122.383 251.399, 124.688 247.350, 125.153 247.167 C 125.619 246.983, 126 245.955, 126 244.881 C 126 243.808, 126.673 241.902, 127.496 240.646 C 128.966 238.403, 129.966 234.434, 132.069 222.500 C 132.651 219.200, 133.740 214.925, 134.489 213 C 135.239 211.075, 136.089 207.138, 136.379 204.251 C 136.669 201.363, 137.586 197.538, 138.417 195.751 C 139.248 193.963, 140.840 188.265, 141.955 183.088 C 143.952 173.817, 146.047 169, 148.084 169 C 148.742 169, 148.884 167.411, 148.472 164.661 C 148.011 161.589, 148.224 159.910, 149.202 158.911 C 149.962 158.133, 151.659 150.864, 152.981 142.715 C 154.311 134.514, 155.963 127.446, 156.690 126.843 C 157.670 126.029, 158 126.129, 158 127.243 C 158 128.061, 158.841 129.803, 159.870 131.115 C 160.898 132.427, 162.081 135.075, 162.498 137 C 162.915 138.925, 164.093 143.128, 165.115 146.340 C 166.440 150.503, 166.691 152.709, 165.987 154.024 C 163.464 158.739, 166.555 161.749, 171.863 159.746 C 174.515 158.744, 175.253 158.824, 176.699 160.270 C 178.211 161.783, 178.269 162.637, 177.203 167.798 C 176.541 171.001, 176 177.718, 176 182.727 C 176 188.068, 175.575 191.975, 174.973 192.176 C 173.638 192.621, 171.027 202.467, 171.012 207.115 C 170.997 211.711, 168.021 215.546, 163.817 216.387 C 160.146 217.121, 155 221.557, 155 223.987 C 155 225.903, 156.901 228, 158.638 228 C 159.319 228, 161.252 226.744, 162.932 225.209 C 164.613 223.674, 168.578 221.551, 171.744 220.492 C 174.910 219.432, 179.975 217.089, 183 215.285 C 186.025 213.481, 188.855 212.004, 189.290 212.003 C 190.408 211.999, 198 204.117, 198 202.960 C 198 201.644, 197.401 201.741, 193.700 203.656 C 189.354 205.904, 180.710 208.110, 179.803 207.203 C 179.397 206.797, 179.950 203.620, 181.032 200.143 C 182.115 196.667, 183 191.818, 183 189.369 C 183 186.920, 183.643 181.672, 184.430 177.708 C 185.216 173.744, 186.173 168.025, 186.556 165 C 186.940 161.975, 188.126 158.390, 189.192 157.032 C 191.236 154.431, 195.994 152, 199.043 152 C 201.259 152, 204 149.412, 204 147.320 C 204 145.840, 202.186 145.888, 197.843 147.485 C 197.104 147.757, 195.884 147.587, 195.132 147.108 C 194.027 146.404, 194.171 145.829, 195.882 144.118 C 197.047 142.953, 198.568 142, 199.263 142 C 199.957 142, 200.970 141.174, 201.513 140.164 C 207.469 129.084, 208.246 127.115, 207.628 124.653 C 206.712 121.004, 201.878 118.676, 196.946 119.509 C 193.617 120.072, 192.701 119.792, 190.432 117.522 C 188.273 115.364, 187.907 114.298, 188.430 111.691 C 188.782 109.936, 189.308 105.800, 189.597 102.500 C 190.345 93.986, 191.420 92.388, 198.158 89.775 C 201.371 88.530, 204 86.915, 204 86.188 C 204 85.407, 203.283 85.067, 202.250 85.358 C 197.960 86.566, 193.578 87.161, 186.688 87.471 C 175.524 87.974, 169.466 92.056, 170.690 98.250 C 171.091 100.281, 171.825 101, 173.500 101 C 174.768 101, 176.026 100.229, 176.354 99.250 C 176.678 98.287, 177.517 96.600, 178.221 95.500 C 178.924 94.400, 179.579 93.346, 179.675 93.159 C 179.771 92.971, 180.778 93.112, 181.913 93.472 L 183.976 94.127 181.988 98.024 C 180.568 100.807, 180 103.908, 180 108.878 C 180 116.719, 179.412 119, 177.393 119 C 176.627 119, 176 119.360, 176 119.799 C 176 120.239, 174.396 121.178, 172.435 121.887 C 170.474 122.597, 168.626 123.812, 168.328 124.588 C 167.631 126.405, 165.372 126.412, 164.677 124.601 C 164.382 123.831, 162.534 122.671, 160.570 122.023 C 156.629 120.722, 156.658 121.034, 159.517 110.500 C 160.946 105.234, 162.526 89.366, 163.568 69.804 L 164.191 58.107 170.845 56.098 C 174.505 54.993, 179.300 53.801, 181.500 53.450 C 186.796 52.603, 192 50.794, 192 49.799 C 192 49.360, 193.323 49, 194.941 49 C 196.559 49, 198.160 48.550, 198.500 48 C 198.840 47.450, 200.231 47, 201.591 47 C 202.951 47, 205.704 46.315, 207.709 45.477 C 209.754 44.623, 211.733 44.333, 212.217 44.817 C 212.702 45.302, 212.579 54.201, 211.939 65.090 C 211.310 75.766, 210.771 88.775, 210.739 94 C 210.646 109.469, 212.698 135.766, 214.835 146.500 C 215.931 152, 217.145 160.100, 217.533 164.500 C 217.922 168.900, 218.564 172.950, 218.959 173.500 C 219.614 174.411, 221.262 183.172, 222.439 192 C 223.284 198.343, 224.216 202, 224.986 202 C 225.403 202, 226.023 203.688, 226.363 205.750 C 227.282 211.316, 232.514 227.113, 235.450 233.187 C 237.877 238.208, 239.328 239.548, 248.783 245.500 C 249.656 246.050, 251.352 247.512, 252.550 248.750 C 254.903 251.179, 259.516 251.781, 260.219 249.750 C 260.457 249.063, 260.582 242.422, 260.496 234.992 C 260.336 221.014, 259.060 215.500, 255.987 215.500 C 254.927 215.500, 254.431 216.793, 254.260 220 C 254.127 222.475, 253.754 227.313, 253.430 230.750 C 252.712 238.364, 251.286 238.791, 245.890 233.004 C 242.407 229.269, 241.142 226.380, 238.005 215 C 237.323 212.525, 235.960 208.475, 234.977 206 C 233.993 203.525, 232.633 197.900, 231.954 193.500 C 231.275 189.100, 229.894 182.675, 228.884 179.222 C 227.766 175.400, 226.784 167.676, 226.372 159.472 C 226 152.063, 225.350 146, 224.928 146 C 222.821 146, 221.010 135.598, 220.488 120.500 C 220.184 111.700, 219.502 101.220, 218.972 97.211 C 218.368 92.633, 218.358 88.355, 218.947 85.711 C 219.463 83.395, 220.168 76.775, 220.515 71 C 220.861 65.225, 221.555 58.250, 222.057 55.500 C 224.242 43.535, 216.713 33.968, 209.441 39.468 M 84.500 89 C 83.684 90.320, 84.880 92.192, 86.069 91.457 C 87.284 90.707, 87.276 88, 86.059 88 C 85.541 88, 84.840 88.450, 84.500 89 M 212 91.500 C 212 93.425, 212.450 95, 213 95 C 213.550 95, 214 93.425, 214 91.500 C 214 89.575, 213.550 88, 213 88 C 212.450 88, 212 89.575, 212 91.500 M 61.218 93.154 C 61.737 94.712, 63.974 94.984, 64.053 93.500 C 64.082 92.950, 63.355 92.345, 62.438 92.154 C 61.395 91.939, 60.938 92.313, 61.218 93.154 M 65.457 112.083 C 64.274 114.371, 64.108 115.870, 64.812 117.892 C 65.588 120.117, 65.168 121.891, 62.524 127.558 C 60.744 131.376, 58.977 136.188, 58.598 138.250 C 58.219 140.313, 57.552 142, 57.115 142 C 56.143 142, 54 146.534, 54 148.589 C 54 149.412, 53.542 150.628, 52.981 151.292 C 48.983 156.033, 48 157.439, 48 158.412 C 48 159.021, 47.151 160.049, 46.112 160.698 C 43.610 162.260, 32.729 177.753, 33.387 178.817 C 33.669 179.274, 32.950 179.615, 31.788 179.574 C 30.270 179.521, 29.088 180.682, 27.588 183.703 C 26.439 186.015, 25.115 187.928, 24.644 187.953 C 24.174 187.979, 22.415 189.156, 20.736 190.569 C 18.588 192.376, 16.989 192.963, 15.342 192.550 C 13.345 192.048, 13 192.337, 13 194.512 C 13 195.915, 13.666 197.318, 14.480 197.631 C 15.846 198.155, 23.621 194.978, 26.919 192.546 C 30.580 189.848, 39.900 179.891, 40.482 178.056 C 40.841 176.925, 41.728 176, 42.453 176 C 43.179 176, 44.506 174.453, 45.404 172.562 C 46.301 170.671, 47.927 168.840, 49.018 168.494 C 50.108 168.148, 51 167.065, 51 166.088 C 51 165.110, 51.954 163.453, 53.120 162.405 C 56.788 159.109, 61.500 150.796, 64.404 142.500 C 65.945 138.100, 67.855 133.766, 68.650 132.868 C 69.445 131.971, 70.521 129.697, 71.041 127.815 C 71.560 125.932, 72.906 123.404, 74.032 122.196 C 75.157 120.988, 75.610 120, 75.039 120 C 74.468 120, 74 118.395, 74 116.434 C 74 111.583, 72.433 109, 69.490 109 C 67.777 109, 66.577 109.917, 65.457 112.083 M 214.079 111.583 C 214.127 112.748, 214.364 112.985, 214.683 112.188 C 214.972 111.466, 214.936 110.603, 214.604 110.271 C 214.272 109.939, 214.036 110.529, 214.079 111.583 M 83.622 122.825 C 83.179 124.104, 83.083 125.417, 83.409 125.742 C 84.445 126.779, 85.174 125.250, 84.794 122.836 L 84.426 120.500 83.622 122.825 M 188.667 126.667 C 188.300 127.033, 188 130.633, 188 134.667 C 188 140.312, 188.325 142, 189.411 142 C 190.813 142, 196 132.793, 196 130.304 C 196 129.587, 196.450 129, 197 129 C 197.550 129, 198 128.325, 198 127.500 C 198 126.397, 196.852 126, 193.667 126 C 191.283 126, 189.033 126.300, 188.667 126.667 M 175.166 129.470 C 170.843 131.874, 170.737 132.306, 172.094 141.897 C 173.278 150.263, 173.563 151, 175.614 151 C 178.538 151, 179.801 146.993, 180.181 136.511 C 180.495 127.812, 179.829 126.877, 175.166 129.470 M 217.033 146.633 C 217.007 149.941, 217.399 150.871, 219 151.290 C 221.705 151.997, 221.725 148.092, 219.033 144.861 L 217.067 142.500 217.033 146.633 M 144.694 149.750 C 144.397 151.262, 144.569 152.928, 145.077 153.450 C 145.646 154.036, 146 152.981, 146 150.700 C 146 146.321, 145.446 145.918, 144.694 149.750 M 182.697 150.393 C 182.288 151.434, 182.189 152.522, 182.476 152.810 C 183.389 153.722, 184.191 152.227, 183.809 150.328 C 183.459 148.588, 183.405 148.591, 182.697 150.393 M 178.070 178.750 C 178.133 181.187, 178.238 181.272, 179 179.500 C 180.174 176.769, 180.174 176, 179 176 C 178.450 176, 178.032 177.238, 178.070 178.750 M 203.569 193.250 C 204.614 210.928, 210.260 224.867, 215.933 223.774 C 218.436 223.292, 218.359 220.153, 215.684 213.626 C 214.205 210.016, 212.922 204.434, 212.560 200.036 C 212.132 194.829, 211.387 191.956, 210.098 190.536 C 209.082 189.416, 207.728 187.488, 207.090 186.250 C 206.452 185.012, 205.275 184, 204.476 184 C 203.269 184, 203.115 185.574, 203.569 193.250 M 124 230 C 124 230.550, 124.450 231, 125 231 C 125.550 231, 126 230.550, 126 230 C 126 229.450, 125.550 229, 125 229 C 124.450 229, 124 229.450, 124 230" stroke="none" fill="black" fill-rule="evenodd"/>
</svg>