<svg xmlns="http://www.w3.org/2000/svg" width="300" height="300" viewBox="0 0 300 300" version="1.1">
	<path d="M 177.500 25.177 C 169.863 29.238, 169.014 30.281, 169.007 35.613 L 169 40.727 162.750 41.935 C 159.313 42.600, 155.719 43.562, 154.764 44.072 C 153.809 44.582, 151.276 45, 149.136 45 C 146.897 45, 144.716 45.637, 144 46.500 C 143.315 47.325, 143.105 48, 143.533 48 C 143.960 48, 143.521 48.872, 142.557 49.937 C 140.315 52.414, 141.332 54.428, 144.081 52.956 C 145.159 52.380, 146.563 52.230, 147.201 52.624 C 149.066 53.777, 158.244 53.014, 161.404 51.443 C 166.726 48.797, 168.531 49.483, 170.931 55.062 C 172.320 58.290, 172.999 61.641, 172.804 64.312 L 172.500 68.500 166 69.313 C 156.431 70.509, 145.878 72.857, 144.343 74.130 C 143.604 74.743, 143 76.090, 143 77.122 C 143 78.534, 143.731 79, 145.941 79 C 147.559 79, 149.138 78.586, 149.450 78.081 C 149.778 77.551, 151.177 77.718, 152.759 78.476 C 154.761 79.435, 157.254 79.570, 162 78.977 C 165.575 78.530, 172.100 77.846, 176.500 77.458 C 180.900 77.069, 185.542 76.357, 186.815 75.876 C 188.088 75.394, 191.989 75, 195.483 75 C 203.007 75, 205 74.385, 205 72.062 C 205 68.607, 200.813 67.650, 188.562 68.307 C 182.032 68.657, 176.829 68.532, 176.511 68.017 C 176.203 67.519, 176.658 63.824, 177.522 59.806 C 178.385 55.788, 179.317 51.439, 179.592 50.142 C 180.084 47.823, 180.262 47.789, 190.184 48.142 C 198.766 48.446, 200.433 48.251, 201.330 46.834 C 202.084 45.641, 202.046 44.761, 201.196 43.736 C 199.832 42.092, 184.166 39.615, 181.531 40.627 C 177.984 41.988, 177.508 35.785, 180.688 29.637 C 181.934 27.226, 181.960 26.534, 180.840 25.432 C 179.844 24.452, 178.987 24.386, 177.500 25.177 M 152.250 50.250 C 152.479 50.938, 153.267 51.500, 154 51.500 C 154.733 51.500, 155.521 50.938, 155.750 50.250 C 155.998 49.506, 155.289 49, 154 49 C 152.711 49, 152.002 49.506, 152.250 50.250 M 73.606 62.890 C 70.101 66.548, 68.528 73.038, 70.037 77.611 C 70.645 79.454, 70.886 81.376, 70.572 81.884 C 70.258 82.391, 70.407 85.663, 70.902 89.153 C 72.265 98.768, 73.108 98.409, 44 100.610 C 38.733 101.008, 34.854 101.817, 33.801 102.735 C 32.210 104.123, 32.242 104.410, 34.301 107.220 C 36.482 110.196, 36.559 110.216, 43.500 109.548 C 47.350 109.178, 53.408 108.631, 56.963 108.332 C 60.518 108.033, 64.411 107.414, 65.614 106.957 C 67.252 106.334, 68.260 106.629, 69.619 108.131 C 71.127 109.798, 71.468 112.111, 71.627 121.766 C 71.790 131.638, 72.089 133.592, 73.606 134.701 C 74.992 135.715, 75.125 136.275, 74.196 137.204 C 72.754 138.646, 72.583 142.376, 74 141.500 C 74.550 141.160, 75 141.610, 75 142.500 C 75 143.390, 74.581 143.859, 74.069 143.543 C 73.557 143.226, 72.840 143.450, 72.475 144.041 C 71.543 145.548, 71.579 205.144, 72.519 218.719 C 73.045 226.306, 72.951 230.354, 72.229 231.224 C 70.771 232.980, 72.223 244.902, 74.030 246.019 C 75.199 246.741, 75.198 247.261, 74.022 249.458 C 72.934 251.491, 72.844 253.540, 73.600 259.013 C 74.181 263.219, 74.199 266.100, 73.645 266.285 C 73.140 266.453, 73.347 267.583, 74.104 268.795 C 75.101 270.392, 75.195 271.483, 74.443 272.750 C 73.872 273.712, 73.585 276.894, 73.804 279.820 C 74.259 285.891, 76.267 287.623, 78.975 284.279 C 80.767 282.066, 80.778 281.063, 79.392 247.500 C 79.028 238.700, 78.706 212.150, 78.676 188.500 C 78.631 152.860, 78.870 144.987, 80.074 142.500 C 81.886 138.759, 84.072 138.664, 85.792 142.252 C 86.996 144.765, 93.382 150, 95.242 150 C 95.670 150, 98.153 151.482, 100.760 153.294 C 106.171 157.054, 113.145 159.406, 116.101 158.468 C 119.216 157.479, 117.960 154.676, 114.043 153.875 C 112.148 153.487, 110.126 152.569, 109.549 151.835 C 108.972 151.101, 106.925 149.712, 105 148.748 C 103.075 147.785, 98.350 144.317, 94.500 141.042 C 87.564 135.143, 84.483 133.917, 82.237 136.163 C 80.134 138.266, 79 132.463, 79 119.604 C 79 107.608, 79.054 107.309, 81.452 106.026 C 83.818 104.759, 93.369 104.987, 97 106.397 C 99.481 107.360, 101.341 105.493, 100.648 102.734 C 99.798 99.348, 95.656 97.846, 86.645 97.657 C 79.247 97.502, 79.145 97.464, 78.578 94.637 C 77.800 90.753, 79.050 71.784, 80.178 70.347 C 80.676 69.713, 81.462 67.875, 81.925 66.263 C 83.734 59.953, 78.466 57.817, 73.606 62.890 M 154.813 75.683 C 155.534 75.972, 156.397 75.936, 156.729 75.604 C 157.061 75.272, 156.471 75.036, 155.417 75.079 C 154.252 75.127, 154.015 75.364, 154.813 75.683 M 168.500 92.019 C 153.801 92.834, 138.672 94.511, 132 96.066 C 127.212 97.182, 122 100.968, 122 103.330 C 122 106.459, 124.571 107.178, 130.166 105.611 C 133.100 104.790, 139.550 103.847, 144.500 103.515 C 149.450 103.184, 157.775 102.626, 163 102.275 C 168.225 101.924, 184.242 101.606, 198.593 101.568 C 219.315 101.514, 225.027 101.782, 226.343 102.872 C 227.708 104.003, 228 106.249, 228 115.622 C 228 126.333, 228.117 127, 230 127 C 231.679 127, 232 126.333, 232 122.846 C 232 120.444, 233.101 116.365, 234.612 113.172 C 236.728 108.699, 237.105 106.783, 236.598 103.084 C 235.649 96.157, 233.071 94.189, 223.478 93.070 C 211.946 91.725, 183.583 91.183, 168.500 92.019 M 171.500 98 C 171.840 98.550, 172.541 99, 173.059 99 C 173.577 99, 174 98.550, 174 98 C 174 97.450, 173.298 97, 172.441 97 C 171.584 97, 171.160 97.450, 171.500 98 M 180.500 98 C 180.840 98.550, 182.216 99, 183.559 99 C 184.902 99, 186 98.550, 186 98 C 186 97.450, 184.623 97, 182.941 97 C 181.156 97, 180.139 97.417, 180.500 98 M 139.667 99.667 C 138.172 101.162, 139.191 101.932, 142.500 101.808 C 146.466 101.658, 147.113 100.531, 143.750 99.630 C 140.864 98.857, 140.473 98.860, 139.667 99.667 M 72.667 106.667 C 72.300 107.033, 72 108.196, 72 109.250 C 72 111.843, 74.415 110.920, 74.820 108.172 C 75.129 106.069, 74.031 105.302, 72.667 106.667 M 29.419 108.131 C 28.339 109.878, 30.544 111.254, 31.868 109.659 C 32.797 108.540, 32.730 108.110, 31.558 107.660 C 30.736 107.345, 29.774 107.557, 29.419 108.131 M 161.217 111.147 C 152.240 112.203, 151 112.743, 151 115.599 C 151 118.655, 153.831 119.952, 155.505 117.662 C 157.102 115.478, 158.449 115.563, 160.128 117.955 C 160.883 119.030, 162.786 120.215, 164.358 120.590 C 166.994 121.218, 167.131 121.113, 166.129 119.240 C 165.291 117.675, 165.378 116.931, 166.509 115.992 C 168.098 114.674, 168.341 115.019, 169.338 120 C 169.613 121.375, 171.494 126.946, 173.518 132.380 C 176.476 140.323, 176.933 142.426, 175.849 143.107 C 175.107 143.573, 173.797 143.736, 172.939 143.470 C 172.080 143.203, 165.780 143.624, 158.939 144.404 C 145.345 145.955, 137.605 148.712, 138.199 151.792 C 138.653 154.151, 141.785 154.504, 144.054 152.452 C 145.858 150.818, 145.994 150.821, 146.641 152.506 C 147.334 154.312, 150.286 154.308, 172 152.471 C 183.496 151.499, 194.266 151.381, 199.500 152.172 C 202.800 152.670, 207.144 153.329, 209.152 153.635 C 212.288 154.113, 212.903 153.881, 213.502 151.995 C 213.885 150.787, 213.816 149.468, 213.349 149.065 C 210.613 146.700, 196.438 143.539, 185 142.743 C 181.890 142.527, 181.475 142.165, 181.274 139.500 C 181.149 137.850, 180.765 133.316, 180.421 129.424 C 179.897 123.509, 180.076 122.067, 181.516 120.627 C 182.974 119.168, 183.487 119.110, 184.869 120.247 C 185.776 120.993, 188.276 121.479, 190.500 121.342 C 192.700 121.206, 197.596 121.607, 201.379 122.231 C 207.547 123.249, 208.390 123.188, 209.524 121.637 C 211.573 118.834, 210.221 116, 206.834 116 C 205.221 116, 202.550 115.302, 200.900 114.448 C 198.899 113.413, 193.833 112.715, 185.699 112.352 C 178.990 112.053, 172.150 111.493, 170.500 111.108 C 168.850 110.723, 164.673 110.741, 161.217 111.147 M 63.430 129.798 C 62.292 130.750, 60.071 133.772, 58.494 136.514 C 56.917 139.256, 53.994 143.525, 51.996 146 C 47.597 151.452, 42 159.798, 42 160.906 C 42 161.350, 40.394 163.816, 38.430 166.387 C 36.467 168.959, 33.737 173.636, 32.364 176.781 C 30.990 179.927, 29.184 183.757, 28.351 185.294 C 26.168 189.317, 25.086 193.612, 25.681 195.887 C 26.535 199.155, 28.677 197.238, 32.070 190.168 C 33.830 186.501, 36.559 181.860, 38.135 179.856 C 39.711 177.852, 41 175.959, 41 175.651 C 41 175.130, 44.987 168.777, 46.743 166.500 C 47.167 165.950, 48.014 164.375, 48.624 163 C 49.235 161.625, 52.606 156.654, 56.117 151.954 C 69.653 133.832, 70.596 131.996, 67.800 129.200 C 66.264 127.664, 65.927 127.710, 63.430 129.798 M 162.813 149.683 C 163.534 149.972, 164.397 149.936, 164.729 149.604 C 165.061 149.272, 164.471 149.036, 163.417 149.079 C 162.252 149.127, 162.015 149.364, 162.813 149.683 M 203.917 168.392 C 203.314 168.960, 177.512 169.963, 147.516 170.586 C 123.385 171.086, 121.402 171.264, 119.707 173.085 C 118.702 174.162, 117.438 174.771, 116.897 174.436 C 115.325 173.465, 113.159 175.891, 113.711 178.004 C 113.989 179.065, 114.955 180.141, 115.858 180.394 C 118.148 181.035, 169.238 180.442, 188 179.556 C 196.525 179.153, 205.075 178.416, 207 177.918 C 212.315 176.541, 220.431 176.822, 223.636 178.494 C 227.743 180.636, 229.881 180.355, 231.180 177.504 C 232.127 175.426, 231.998 174.649, 230.409 172.866 C 227.222 169.290, 222.661 168, 213.199 168 C 208.323 168, 204.146 168.177, 203.917 168.392 M 229.750 186.264 C 226.329 188.169, 226 188.726, 226 192.617 C 226 197.413, 225.029 198.378, 220 198.575 C 197.362 199.463, 189.668 200.382, 187.217 202.489 C 185.193 204.231, 184.834 205.204, 185.394 207.435 L 186.092 210.213 197.296 209.712 C 209.108 209.183, 215.166 208.622, 221.116 207.506 C 224.446 206.881, 224.890 207.090, 226.760 210.164 C 228.293 212.685, 228.733 214.941, 228.559 219.401 C 228.377 224.077, 228.710 225.628, 230.165 226.873 C 232.543 228.909, 232.706 233.485, 230.369 232.588 C 228.961 232.048, 228.828 232.546, 229.391 236.231 C 229.756 238.612, 230.919 241.234, 232.022 242.160 C 234.070 243.879, 234.760 248, 233 248 C 232.450 248, 232 247.250, 232 246.333 C 232 245.417, 231.711 244.956, 231.358 245.309 C 231.005 245.662, 231.306 248.731, 232.027 252.129 C 233.299 258.123, 233.270 258.363, 231.058 260.154 C 229.804 261.169, 227.873 262, 226.767 262 C 225.092 262, 224.964 262.251, 226 263.500 C 227.776 265.640, 232.287 265.353, 236.566 262.828 L 240.247 260.657 239.568 252.292 C 239.195 247.692, 238.240 240.529, 237.445 236.376 C 235.544 226.441, 235.523 211.035, 237.406 208.459 C 238.702 206.687, 239.151 206.642, 243.156 207.885 C 245.545 208.626, 249.290 209.293, 251.478 209.366 C 257.287 209.562, 257.263 207.056, 251.412 202.589 C 247.370 199.502, 245.963 199, 241.356 199 L 236 199 236.006 195.250 C 236.010 193.188, 236.685 190.211, 237.506 188.636 C 238.328 187.060, 239 185.373, 239 184.886 C 239 183.313, 233.607 184.117, 229.750 186.264 M 126.370 204.245 C 124.791 205.204, 122.023 205.992, 120.219 205.995 C 118.282 205.998, 116.710 206.593, 116.382 207.447 C 115.693 209.241, 118.248 218.163, 120.967 223.461 C 122.085 225.640, 123 227.783, 123 228.222 C 123 228.662, 123.945 231.154, 125.100 233.761 C 126.254 236.367, 127.544 239.400, 127.966 240.500 C 129.894 245.530, 131.443 248, 132.669 248 C 133.401 248, 134 247.148, 134 246.107 C 134 244.029, 136.213 242.761, 138.386 243.594 C 139.148 243.887, 143.310 242.907, 147.636 241.416 C 151.961 239.926, 157.939 237.870, 160.920 236.848 C 167.545 234.577, 176 229.288, 176 227.415 C 176 226.658, 174.877 225.756, 173.505 225.412 C 171.253 224.847, 171.069 224.423, 171.607 221.053 C 172.036 218.376, 171.640 216.215, 170.209 213.410 C 165.920 205.007, 160.758 202.987, 142.869 202.711 C 131.417 202.534, 128.782 202.779, 126.370 204.245 M 136.136 212.707 L 126.772 213.078 127.470 220.789 C 127.854 225.030, 128.805 229.497, 129.584 230.715 C 130.363 231.933, 131 233.845, 131 234.965 C 131 236.084, 131.203 237, 131.451 237 C 132.729 237, 143.076 234.686, 147 233.523 C 149.475 232.789, 153.653 231.593, 156.285 230.866 C 161.731 229.360, 163.998 226.674, 164.193 221.495 C 164.479 213.871, 157.997 211.841, 136.136 212.707 M 200.299 235.106 C 193.939 236.945, 195.366 240.955, 202.329 240.808 C 204.623 240.760, 208.823 240.826, 211.662 240.955 C 217.784 241.234, 220.599 240.488, 221.411 238.372 C 222.425 235.730, 220.954 234.752, 216.935 235.394 C 214.771 235.740, 212.853 235.571, 212.501 235.002 C 211.746 233.780, 204.675 233.841, 200.299 235.106" stroke="none" fill="black" fill-rule="evenodd"/>
</svg>