<svg xmlns="http://www.w3.org/2000/svg" width="300" height="300" viewBox="0 0 300 300" version="1.1">
	<path d="M 188 20.704 C 185.652 21.559, 182 26.114, 182 28.187 C 182 30.823, 187.490 48.886, 189.385 52.486 C 190.790 55.153, 190.796 55.633, 189.441 56.986 C 188.217 58.209, 185.598 58.440, 175.817 58.189 C 163.087 57.862, 159.141 58.666, 155.581 62.313 C 154.398 63.525, 154.206 64.087, 155.081 63.777 C 155.861 63.501, 157.654 63.856, 159.064 64.566 C 162.349 66.222, 171.429 67.240, 184.219 67.385 C 195.280 67.511, 197.374 68.646, 191.601 71.385 C 187.384 73.386, 186.918 74.684, 187.107 83.898 C 187.297 93.132, 186.512 93.801, 176.126 93.252 C 162.763 92.545, 156.269 95.509, 162.391 99.521 C 164.304 100.774, 167.609 101.208, 176.203 101.334 L 187.500 101.500 187.794 108.169 C 188.052 114.038, 187.855 114.911, 186.144 115.454 C 183.321 116.350, 165.988 115.328, 162.685 114.071 C 159.271 112.772, 156 114.172, 156 116.932 C 156 117.955, 157.591 120.189, 159.535 121.896 L 163.070 125 177.976 125 C 193.415 125, 194.801 124.636, 194.162 120.750 C 193.966 119.556, 194.530 119, 195.937 119 C 198.287 119, 198.567 120.004, 196.750 121.914 C 195.721 122.996, 196.561 123.102, 201.500 122.518 C 204.800 122.127, 208.054 121.353, 208.731 120.797 C 209.426 120.226, 211.821 120.063, 214.231 120.422 C 223.645 121.822, 224.476 121.707, 224.796 118.960 C 225.037 116.893, 224.328 115.991, 220.987 114.113 C 217.307 112.044, 215.981 111.860, 208.191 112.337 C 203.411 112.629, 198.375 113.011, 197 113.184 C 194.585 113.489, 194.501 113.304, 194.524 107.776 C 194.555 100.256, 195.299 99.641, 202.046 101.552 C 209.903 103.777, 216.602 104.453, 217.435 103.106 C 218.464 101.440, 217.088 98, 215.393 98 C 214.583 98, 212.180 97.112, 210.052 96.026 C 207.924 94.941, 204.230 93.755, 201.842 93.390 C 194.560 92.278, 194.509 92.094, 197.762 78.696 C 199.063 73.334, 199.162 71.489, 198.227 69.992 C 197.306 68.517, 197.316 67.919, 198.270 67.314 C 200.389 65.972, 217.625 65.369, 228.500 66.255 C 230.980 66.458, 231.558 66.090, 231.835 64.135 C 232.019 62.834, 231.680 61.280, 231.081 60.681 C 229.608 59.208, 221.344 57.098, 216.832 57.044 C 210.211 56.964, 208.202 54.784, 211.335 51.079 C 212.070 50.210, 213.266 47.925, 213.995 46 C 214.723 44.075, 216.313 41.375, 217.528 40 C 221.088 35.970, 221.765 28, 218.548 28 C 215.900 28, 213.585 32.074, 213.542 36.808 C 213.507 40.752, 213.175 41.547, 211.459 41.792 C 209.923 42.012, 208.996 43.508, 207.709 47.842 C 206.769 51.008, 206 53.977, 206 54.439 C 206 55.830, 202.644 57.934, 200.372 57.968 C 197.188 58.016, 196.131 56.054, 195.508 48.941 C 194.917 42.196, 193.527 35.423, 191.767 30.711 C 190.876 28.326, 191.071 27.554, 193.112 25.380 C 195.453 22.889, 195.462 22.811, 193.559 21.419 C 191.526 19.933, 190.485 19.799, 188 20.704 M 162.813 63.683 C 163.534 63.972, 164.397 63.936, 164.729 63.604 C 165.061 63.272, 164.471 63.036, 163.417 63.079 C 162.252 63.127, 162.015 63.364, 162.813 63.683 M 84.459 71.614 L 81.149 75.228 81.324 96.864 C 81.491 117.388, 81.397 118.587, 79.500 120.183 C 77.736 121.667, 75.543 121.797, 60.916 121.283 C 51.795 120.962, 43.133 121.001, 41.666 121.369 C 38.460 122.174, 38.147 124.918, 40.970 127.473 C 42.599 128.947, 44.561 129.225, 52.309 129.081 C 59.814 128.941, 61.941 129.223, 63.001 130.501 C 64.011 131.719, 65.946 132.049, 71.177 131.896 C 74.946 131.786, 78.229 131.896, 78.474 132.141 C 78.983 132.650, 80.080 143.681, 80.173 149.218 C 80.207 151.263, 79.278 154.773, 78.108 157.017 C 76.744 159.635, 76.266 161.707, 76.775 162.798 C 77.212 163.734, 77.508 181.825, 77.433 203 C 77.356 224.797, 77.696 242.287, 78.218 243.314 C 78.832 244.524, 78.724 245.628, 77.892 246.630 C 76.899 247.827, 76.898 248.828, 77.886 251.560 C 78.567 253.446, 78.885 255.377, 78.591 255.852 C 78.298 256.327, 77.815 263.061, 77.519 270.817 C 77.014 284.043, 77.100 284.983, 78.918 285.956 C 83.110 288.199, 85.783 283.849, 84.524 276.834 C 84.194 275, 84.339 269.534, 84.845 264.687 C 85.503 258.373, 85.400 253.412, 84.480 247.187 C 83.773 242.409, 83.398 238.170, 83.647 237.766 C 83.895 237.362, 84.022 225.887, 83.928 212.266 C 83.664 173.844, 83.990 165.614, 86.163 155.750 C 87.144 151.297, 87.844 150, 89.267 150 C 90.397 150, 91.495 151.121, 92.119 152.911 C 92.677 154.513, 94.947 157.023, 97.163 158.489 C 100.132 160.454, 101.060 161.661, 100.691 163.074 C 99.955 165.888, 105.075 170.996, 108.651 171.015 C 110.937 171.028, 111.204 171.240, 110 172.091 C 108.871 172.890, 108.809 173.278, 109.750 173.659 C 110.438 173.938, 111 174.860, 111 175.708 C 111 176.892, 111.705 177.109, 114.032 176.644 C 116.643 176.121, 117.201 176.399, 118.055 178.644 C 118.981 181.080, 119.376 181.218, 124.097 180.765 C 130.061 180.192, 133.038 177.956, 131.042 175.550 C 130.298 174.654, 128.172 174, 126 174 C 123.882 174, 121.702 173.346, 121 172.500 C 120.315 171.675, 119.160 171, 118.433 171 C 117.706 171, 115.173 168.648, 112.805 165.773 C 106.216 157.774, 98.634 150.379, 95.202 148.604 C 93.500 147.724, 90.934 145.916, 89.499 144.586 C 87.213 142.469, 86.928 141.506, 87.195 136.834 L 87.500 131.500 93.141 131.500 C 97.219 131.500, 99.348 130.989, 100.824 129.656 C 103.118 127.584, 107.198 127.952, 112.619 130.721 C 119.455 134.212, 121.718 128.153, 115.250 123.677 C 110.354 120.289, 98.954 117.634, 92.777 118.443 C 88.286 119.031, 88.021 118.932, 87.388 116.410 C 86.456 112.698, 87.673 99.460, 89.485 93.591 C 90.318 90.891, 91.016 86.841, 91.035 84.591 C 91.055 82.341, 91.714 79.375, 92.500 78 C 94.456 74.578, 94.411 69.372, 92.418 68.607 C 89.347 67.429, 87.735 68.038, 84.459 71.614 M 84.393 80.582 C 84.727 81.452, 85 82.603, 85 83.141 C 85 83.678, 85.450 83.840, 86 83.500 C 87.630 82.493, 87.159 79, 85.393 79 C 84.338 79, 83.995 79.544, 84.393 80.582 M 48.813 126.683 C 49.534 126.972, 50.397 126.936, 50.729 126.604 C 51.061 126.272, 50.471 126.036, 49.417 126.079 C 48.252 126.127, 48.015 126.364, 48.813 126.683 M 168.241 134.777 C 164.536 137.873, 164.270 139.032, 166.750 141.267 C 169.201 143.476, 174 144.585, 174 142.942 C 174 142.240, 174.338 142.004, 174.750 142.417 C 175.162 142.829, 175.500 143.643, 175.500 144.224 C 175.500 145.453, 177.049 146.440, 182.250 148.524 C 184.313 149.351, 186 150.718, 186 151.563 C 186 152.869, 184.093 153.083, 173.250 152.997 C 166.238 152.941, 159.908 152.919, 159.184 152.948 C 158.346 152.981, 157.982 154, 158.184 155.750 C 158.421 157.813, 159.125 158.588, 161 158.851 C 162.375 159.044, 163.813 159.705, 164.195 160.321 C 164.659 161.068, 168.905 161.366, 176.945 161.217 L 189 160.993 189 164.131 C 189 165.856, 189.533 169.048, 190.185 171.223 C 191.106 174.298, 191.088 177.745, 190.105 186.709 C 189.199 194.965, 189.147 198.547, 189.920 199.320 C 191.442 200.842, 191.261 202, 189.500 202 C 188.356 202, 188 203.253, 188 207.276 C 188 210.178, 187.561 216.141, 187.024 220.526 C 185.131 235.985, 185.458 262.388, 187.579 265.416 C 189.488 268.141, 189.369 269, 187.083 269 C 186.029 269, 184.959 269.563, 184.706 270.250 C 184.166 271.716, 175.315 263.567, 174.435 260.794 C 173.773 258.710, 171.443 258.403, 170.714 260.302 C 169.913 262.390, 172.407 267.217, 176.422 271.352 C 179.261 274.275, 180.678 275.047, 182.412 274.611 C 184.100 274.188, 184.997 274.627, 185.902 276.318 C 187.704 279.685, 190.820 281.395, 192.544 279.963 C 193.660 279.037, 193.813 276.138, 193.327 265.156 C 192.457 245.473, 192.809 219.225, 193.973 217.050 C 194.523 216.023, 195.008 211.205, 195.052 206.342 C 195.144 196.189, 196.627 185.154, 198.145 183.325 C 198.797 182.539, 199.057 176.559, 198.842 167.286 C 198.548 154.583, 198.212 152.007, 196.453 149 C 194.469 145.607, 187.226 141.026, 181.619 139.619 C 180.292 139.286, 178.274 137.435, 177.136 135.507 C 174.656 131.302, 172.601 131.134, 168.241 134.777 M 82.500 147 C 82.840 147.550, 83.316 148, 83.559 148 C 83.802 148, 84 147.550, 84 147 C 84 146.450, 83.523 146, 82.941 146 C 82.359 146, 82.160 146.450, 82.500 147 M 65.061 160.752 C 63.170 161.713, 60.695 164.122, 59.561 166.103 C 58.428 168.085, 55.869 171.685, 53.875 174.103 C 51.881 176.522, 49.561 179.850, 48.720 181.500 C 47.878 183.150, 46.022 185.591, 44.595 186.924 C 43.168 188.258, 42 189.873, 42 190.514 C 42 191.154, 39.273 194.563, 35.939 198.089 C 29.769 204.615, 28 207.032, 28 208.934 C 28 210.697, 31.876 210.135, 33.750 208.101 C 34.712 207.056, 37.160 204.411, 39.188 202.223 C 41.844 199.359, 42.721 197.650, 42.322 196.122 C 42.016 194.955, 42.189 194, 42.706 194 C 43.223 194, 44.657 191.975, 45.893 189.500 C 47.129 187.025, 48.334 185, 48.570 185 C 49.840 185, 48.720 189.280, 47 191 C 45.900 192.100, 45 193.450, 45 194 C 45 194.550, 44.475 195, 43.833 195 C 43.192 195, 42.902 195.236, 43.190 195.524 C 44.392 196.725, 46.940 194.571, 50.085 189.694 C 51.926 186.837, 54.284 183.600, 55.324 182.500 C 56.364 181.400, 58.324 178.770, 59.680 176.655 C 61.036 174.540, 64.595 170.320, 67.590 167.277 C 71.895 162.902, 72.796 161.459, 71.894 160.373 C 70.403 158.576, 69.209 158.642, 65.061 160.752 M 192.079 177.583 C 192.127 178.748, 192.364 178.985, 192.683 178.188 C 192.972 177.466, 192.936 176.603, 192.604 176.271 C 192.272 175.939, 192.036 176.529, 192.079 177.583 M 220.396 181.201 C 219.486 182.962, 218.237 184.924, 217.620 185.562 C 217.004 186.199, 215.291 188.021, 213.813 189.611 C 210.306 193.381, 208.303 195, 207.146 195 C 205.296 195, 200.154 201.875, 200.642 203.695 C 201.479 206.814, 203.381 208.646, 207.033 209.848 C 209.551 210.678, 210.905 211.910, 211.746 214.138 C 212.792 216.910, 213.262 217.198, 215.889 216.672 C 217.745 216.301, 220.094 216.708, 222.176 217.763 C 224.041 218.707, 228.678 219.615, 232.740 219.832 C 238.727 220.151, 240.087 219.937, 240.602 218.596 C 241.602 215.988, 239.245 214.192, 233.173 212.937 C 230.053 212.293, 226.306 210.918, 224.846 209.882 C 223.386 208.847, 220.953 208, 219.440 208 C 216.813 208, 210 203.755, 210 202.119 C 210 201.690, 212.137 199.808, 214.750 197.937 C 223.552 191.631, 227.630 186, 223.393 186 C 222.338 186, 221.995 185.456, 222.393 184.418 C 222.727 183.548, 223 182.648, 223 182.418 C 223 181.021, 224.860 182.355, 225.309 184.075 C 225.769 185.831, 226.170 185.979, 227.926 185.040 C 230.486 183.670, 230.570 181.826, 228.171 179.655 C 225.239 177.001, 222.262 177.593, 220.396 181.201 M 158 192.132 C 156.579 192.703, 152.686 192.858, 148.984 192.491 C 143.416 191.938, 142.106 192.129, 139.980 193.801 C 138.611 194.878, 136.593 195.932, 135.496 196.143 C 134.140 196.404, 133.500 197.324, 133.500 199.014 C 133.500 201.102, 134.035 201.551, 136.840 201.820 C 139.817 202.105, 140.108 201.916, 139.524 200.076 C 139.016 198.476, 139.220 198.147, 140.435 198.613 C 141.296 198.944, 142 199.841, 142 200.607 C 142 202.076, 143.397 202.282, 151.500 202.009 C 154.250 201.917, 156.650 201.427, 156.833 200.921 C 157.784 198.296, 164.024 201.444, 164.226 204.650 C 164.403 207.471, 159.840 219.124, 158.331 219.703 C 157.599 219.984, 157 220.793, 157 221.500 C 157 222.207, 156.324 223.046, 155.497 223.363 C 154.671 223.680, 152.758 225.881, 151.247 228.255 C 148.169 233.091, 141.633 240.998, 135.250 247.610 C 132.912 250.031, 131 252.297, 131 252.646 C 131 252.994, 130.213 253.855, 129.252 254.558 C 128.260 255.283, 127.887 256.197, 128.388 256.668 C 128.875 257.126, 129.475 256.938, 129.720 256.250 C 129.966 255.563, 130.781 255, 131.532 255 C 132.283 255, 134.008 253.988, 135.365 252.750 C 136.722 251.512, 140.790 247.839, 144.404 244.587 C 149.418 240.076, 150.721 238.368, 149.901 237.381 C 149.311 236.670, 149.135 235.591, 149.510 234.984 C 149.967 234.245, 150.601 234.440, 151.431 235.575 C 152.548 237.102, 152.883 236.936, 154.833 233.885 C 156.022 232.023, 158.747 228.762, 160.889 226.638 C 163.030 224.513, 165.394 221.588, 166.141 220.138 C 166.889 218.687, 168.263 216.825, 169.195 216 C 170.128 215.175, 172.940 211.403, 175.445 207.618 C 179.975 200.774, 181.095 196.279, 179.070 193.079 C 178.304 191.868, 177.794 191.905, 175.621 193.329 C 172.259 195.532, 169.811 195.438, 167 193 C 164.490 190.823, 161.881 190.571, 158 192.132 M 160 221.500 C 160 222.325, 160.450 223, 161 223 C 161.550 223, 162 222.325, 162 221.500 C 162 220.675, 161.550 220, 161 220 C 160.450 220, 160 220.675, 160 221.500" stroke="none" fill="black" fill-rule="evenodd"/>
</svg>