<svg xmlns="http://www.w3.org/2000/svg" width="300" height="300" viewBox="0 0 300 300" version="1.1">
	<path d="M 113.625 38.484 C 111.204 40.317, 112.211 43, 115.320 43 C 116.630 43, 119.907 44.194, 122.601 45.653 C 127.043 48.059, 138.048 50.814, 143.750 50.947 C 146.444 51.010, 146.839 48.200, 144.250 47.390 C 143.287 47.089, 141.369 46.241, 139.987 45.505 C 138.605 44.769, 135.545 43.880, 133.187 43.528 C 130.828 43.176, 126.652 41.563, 123.905 39.944 C 118.355 36.671, 116.387 36.392, 113.625 38.484 M 187.855 40.330 C 186.443 42.276, 186.108 47.348, 185.494 76.049 C 185.101 94.447, 184.362 111.750, 183.853 114.500 C 182.102 123.956, 181.794 134.526, 182.897 147.318 C 184.068 160.893, 185.092 164.323, 187.817 163.795 C 189.262 163.515, 189.520 161.914, 189.641 152.485 C 189.810 139.352, 190.964 119.258, 191.652 117.463 C 191.923 116.758, 193.284 115.895, 194.677 115.545 C 198.634 114.552, 201.940 112.008, 201.333 110.425 C 201.032 109.641, 201.247 109, 201.810 109 C 202.373 109, 203.005 109.514, 203.214 110.142 C 203.585 111.256, 209.287 110.720, 222.919 108.288 C 227.963 107.388, 229.138 105.679, 225.903 103.948 C 222.878 102.329, 202.834 103.239, 197.227 105.250 C 193.199 106.694, 192.896 106.674, 191.942 104.891 C 191.247 103.593, 191.274 102.357, 192.027 100.949 C 193.591 98.027, 194.501 42.804, 193.031 40.057 C 191.611 37.404, 189.913 37.493, 187.855 40.330 M 213 39.523 C 206.966 40.748, 203 42.538, 203 44.035 C 203 44.566, 202.148 45, 201.107 45 C 198.806 45, 197.431 48.022, 199.216 49.155 C 200.928 50.241, 201.757 50.202, 202.500 49 C 202.840 48.450, 204.611 48, 206.437 48 C 208.262 48, 210.324 47.315, 211.019 46.477 C 211.735 45.615, 213.072 45.205, 214.103 45.533 C 215.105 45.851, 216.862 45.609, 218.007 44.996 C 219.751 44.063, 220.638 44.338, 223.460 46.691 C 225.691 48.551, 226.662 50.105, 226.334 51.291 C 226.062 52.275, 226.518 55.425, 227.348 58.291 C 231.366 72.170, 232.437 82.113, 232.488 106 C 232.555 137.800, 233.851 161.635, 235.738 165.750 C 237.545 169.691, 240.308 169.985, 242.605 166.480 C 244.113 164.179, 244.122 163.592, 242.712 159.730 C 241.862 157.403, 241.117 152.800, 241.055 149.500 C 240.575 123.757, 239.068 77.664, 238.587 74 C 237.307 64.254, 231.956 46.487, 228.960 42.035 C 226.966 39.072, 220.349 38.030, 213 39.523 M 70.015 41.680 C 70.039 44.539, 71.622 46.359, 73.469 45.650 C 75.958 44.695, 75.040 40.577, 72.250 40.180 C 70.620 39.949, 70.004 40.362, 70.015 41.680 M 68.798 49.923 C 66.849 52.199, 66.735 53.021, 66.885 63.679 C 66.974 70.020, 67.393 72.254, 68.750 73.623 C 70.417 75.304, 70.416 75.356, 68.738 74.721 C 67.278 74.168, 67.078 74.463, 67.574 76.440 C 68.524 80.225, 65.256 82.658, 58.109 83.487 C 54.747 83.878, 51.746 84.603, 51.439 85.098 C 51.133 85.594, 49.820 86, 48.523 86 C 44.636 86, 43 87.078, 43 89.638 C 43 92.367, 45.545 93.855, 47.267 92.133 C 47.890 91.510, 49.795 91, 51.500 91 C 53.205 91, 55.027 90.609, 55.550 90.130 C 57.223 88.599, 64 87.983, 64 89.363 C 64 90.043, 64.484 91.084, 65.076 91.676 C 65.685 92.285, 66.228 97.368, 66.326 103.376 C 66.497 113.827, 66.463 114, 64.215 114 C 62.455 114, 61.481 115.046, 59.979 118.548 C 58.907 121.050, 56.746 124.987, 55.178 127.298 C 53.609 129.609, 51.693 132.963, 50.919 134.750 C 50.145 136.537, 49.216 138, 48.854 138 C 48.492 138, 47.696 139.238, 47.085 140.750 C 46.474 142.262, 44.967 144.913, 43.737 146.640 C 41.717 149.474, 39.861 152.417, 36.286 158.451 C 35.619 159.578, 34.596 161.175, 34.013 162 C 30.010 167.663, 21.150 184.731, 19.515 189.931 C 19.095 191.267, 17.457 194.855, 15.875 197.903 C 12.471 204.465, 12.360 205.587, 14.977 206.988 C 16.547 207.828, 17.370 207.630, 18.977 206.023 C 20.090 204.910, 21 203.561, 21 203.024 C 21 202.487, 23.045 198.999, 25.543 195.274 C 28.042 191.548, 30.364 187.375, 30.703 186 C 31.260 183.744, 33.246 179.955, 36.752 174.462 C 37.441 173.383, 38.433 171.512, 38.957 170.304 C 39.481 169.097, 41.505 165.839, 43.455 163.065 C 45.405 160.290, 47.003 157.678, 47.006 157.260 C 47.009 156.842, 49.032 153.575, 51.500 150 C 53.968 146.425, 55.991 142.993, 55.994 142.372 C 55.997 141.752, 56.725 140.643, 57.612 139.907 C 58.499 139.171, 60.186 136.543, 61.362 134.066 C 62.538 131.589, 63.950 129.663, 64.500 129.785 C 65.050 129.908, 65.622 132.819, 65.770 136.254 C 65.919 139.689, 66.557 147.848, 67.189 154.385 C 68.024 163.027, 68.046 169.073, 67.272 176.542 C 66.153 187.328, 67.092 213.983, 69 225.582 C 69.550 228.927, 70.007 234.327, 70.015 237.582 C 70.034 244.878, 70.737 246.050, 75.480 246.689 L 79.228 247.194 78.574 237.847 C 78.214 232.706, 77.501 225.575, 76.987 222 C 75.263 209.986, 74.146 184.588, 74.964 176 C 75.885 166.334, 75.397 145.113, 74.149 140.547 C 73.245 137.240, 73.626 135, 75.094 135 C 75.603 135, 78.153 136.469, 80.760 138.264 C 87.209 142.704, 95.412 147, 97.442 147 C 100.028 147, 97.658 144.205, 89.500 137.634 C 85.650 134.533, 80.700 130.323, 78.500 128.277 L 74.500 124.558 74.184 109.017 C 74.005 100.194, 74.303 92.334, 74.872 90.836 C 75.553 89.045, 77.102 87.802, 79.688 86.972 C 81.785 86.298, 84.175 85.188, 85 84.505 C 85.825 83.822, 88.447 83.017, 90.828 82.716 C 94.821 82.212, 99 79.757, 99 77.916 C 99 77.491, 98.359 76.502, 97.576 75.718 C 95.951 74.094, 90.256 74.762, 83.500 77.369 C 77.750 79.588, 75.346 79.420, 74.630 76.750 C 74.299 75.513, 74.021 69.249, 74.014 62.832 C 74.006 56.414, 73.727 50.452, 73.393 49.582 C 72.577 47.456, 70.797 47.588, 68.798 49.923 M 151.500 62.042 C 145.523 63.058, 133.430 64.028, 126.500 64.048 C 119.463 64.068, 112.880 65.948, 110.298 68.675 C 109.087 69.954, 107.624 71, 107.048 71 C 105.400 71, 105.825 73.996, 107.567 74.664 C 109.289 75.325, 114.036 73.230, 115.300 71.252 C 116.380 69.560, 119 69.660, 119 71.393 C 119 72.159, 119.736 73.069, 120.636 73.414 C 122.126 73.985, 122.111 74.220, 120.471 76.032 C 118.854 77.819, 118.793 78.609, 119.877 83.761 C 120.542 86.918, 121.739 94, 122.537 99.500 C 123.336 105, 124.659 111.469, 125.477 113.875 C 126.295 116.281, 126.741 118.611, 126.468 119.052 C 126.195 119.493, 124.291 120.404, 122.236 121.075 C 117.237 122.709, 107 129.715, 107 131.502 C 107 132.287, 107.877 133.399, 108.949 133.973 C 110.515 134.811, 112.482 134.195, 118.973 130.832 C 123.936 128.261, 127.406 127.006, 127.976 127.576 C 128.860 128.460, 132 144.378, 132 147.977 C 132 149.237, 129.410 150.639, 122.250 153.254 C 116.888 155.212, 111.375 157.134, 110 157.525 C 106.540 158.510, 104 160.939, 104 163.263 C 104 164.900, 104.445 165.101, 106.750 164.504 C 111.231 163.344, 112.356 163.157, 115.344 163.077 C 117.318 163.023, 118.349 162.382, 118.716 160.979 C 119.115 159.450, 119.561 159.221, 120.546 160.038 C 121.478 160.812, 122.994 160.809, 125.890 160.030 C 128.993 159.194, 130.413 159.239, 131.997 160.221 C 133.712 161.284, 134.216 161.251, 134.976 160.029 C 135.479 159.220, 136.196 158.863, 136.569 159.236 C 137.587 160.254, 136.169 163.222, 135.007 162.504 C 134.401 162.130, 134 163.336, 134 165.532 C 134 168.258, 133.114 170.217, 130.500 173.271 C 128.575 175.520, 127 177.899, 127 178.558 C 127 179.216, 126.327 180.314, 125.503 180.997 C 124.680 181.680, 122.612 184.998, 120.908 188.370 C 119.204 191.741, 117.214 195.175, 116.486 196 C 115.257 197.392, 111.642 203.725, 105.515 215.217 C 102.658 220.574, 102.215 225.762, 104.537 226.653 C 106.082 227.245, 110 224.473, 110 222.787 C 110 222.291, 112.700 217.814, 116 212.838 C 119.300 207.863, 122.003 203.501, 122.007 203.146 C 122.010 202.791, 124.035 199.364, 126.507 195.530 C 128.978 191.697, 131 188.209, 131 187.780 C 131 186.090, 133.903 187.120, 134.508 189.025 C 134.861 190.139, 134.835 196.590, 134.449 203.362 C 133.901 212.982, 134.130 218.006, 135.496 226.335 C 136.942 235.148, 137.027 237.520, 135.990 240.023 C 134.905 242.644, 134.977 243.317, 136.523 245.026 C 137.506 246.111, 139.085 247, 140.033 247 C 143.127 247, 144.067 244.611, 143.422 238.379 C 142.311 227.642, 142.042 190.092, 143.071 189.456 C 144.709 188.444, 150 190.065, 150 191.579 C 150 192.361, 150.569 193, 151.265 193 C 151.960 193, 154.323 193.966, 156.515 195.147 C 161.586 197.879, 169.397 199.971, 171.994 199.291 C 173.097 199.003, 174 197.933, 174 196.915 C 174 195.715, 173.494 195.257, 172.562 195.615 C 171.771 195.918, 167.681 194.554, 163.473 192.583 C 159.265 190.612, 155.390 189, 154.863 189 C 153.710 189, 149 184.063, 149 182.854 C 149 182.384, 147.425 182, 145.500 182 L 142 182 141.775 175.750 C 141.423 165.938, 142.019 157.682, 143.181 156.282 C 143.766 155.577, 145.226 155, 146.426 155 C 152.137 155, 163.295 146.905, 161.527 144.044 C 160.581 142.512, 157.434 142.772, 156 144.500 C 155.315 145.325, 154 146, 153.078 146 C 152.155 146, 150.923 146.477, 150.340 147.060 C 149.756 147.644, 147.079 147.981, 144.390 147.810 L 139.500 147.500 138.713 141.500 C 138.116 136.956, 138.333 134.116, 139.607 129.797 C 141.181 124.458, 141.621 123.931, 146.494 121.547 C 149.357 120.146, 153.117 119, 154.850 119 C 156.950 119, 158 118.512, 158 117.535 C 158 115.160, 154.066 113.739, 148.872 114.238 C 146.212 114.494, 143.827 114.494, 143.572 114.238 C 143.316 113.983, 143.720 112.137, 144.470 110.137 C 146.291 105.278, 146.931 95.480, 146.145 84.500 C 145.563 76.382, 145.295 75.471, 143.412 75.202 C 139.301 74.614, 138.719 77.014, 138.545 95.278 C 138.379 112.706, 137.579 117, 134.500 117 C 132.167 117, 131.267 114.040, 130.546 104 C 130.171 98.775, 129.220 91.876, 128.432 88.669 C 126.464 80.657, 126.625 76.292, 129 73.273 C 130.100 71.874, 131 70.116, 131 69.365 C 131 67.314, 136.692 67.632, 137.895 69.750 C 138.711 71.187, 139.234 71.289, 140.816 70.322 C 142.070 69.555, 143.084 69.484, 143.720 70.120 C 144.356 70.756, 147.061 70.207, 151.468 68.548 C 155.191 67.147, 159.116 66, 160.189 66 C 161.639 66, 162.057 65.424, 161.820 63.750 C 161.448 61.130, 159.126 60.746, 151.500 62.042 M 134 133.917 C 134 135.145, 134.646 136, 135.573 136 C 136.505 136, 137.015 135.320, 136.823 134.333 C 136.337 131.824, 134 131.480, 134 133.917 M 210 135.176 C 207.525 135.726, 205.072 136.587, 204.550 137.088 C 204.028 137.590, 202.393 138, 200.919 138 C 199.029 138, 197.448 139.035, 195.563 141.506 C 194.093 143.434, 193.184 145.488, 193.543 146.070 C 194.504 147.625, 202.790 146.442, 207.702 144.048 C 210.013 142.921, 212.796 142, 213.887 142 C 214.977 142, 217.137 141.488, 218.685 140.862 C 220.233 140.237, 223.075 139.442, 225 139.095 C 227.612 138.626, 228.500 137.963, 228.500 136.483 C 228.500 134.710, 227.759 134.483, 221.500 134.337 C 217.650 134.248, 212.475 134.625, 210 135.176 M 201 171.146 C 187.927 175.357, 186.643 176.072, 185.540 179.750 C 184.910 181.851, 185.165 182, 189.386 182 C 191.872 182, 195.054 181.477, 196.457 180.838 C 197.860 180.198, 199.215 179.882, 199.468 180.134 C 200.278 180.945, 197.324 189.266, 193.247 197.654 C 191.067 202.139, 189.014 206.639, 188.684 207.654 C 188.355 208.669, 186.986 211.300, 185.643 213.500 C 184.299 215.700, 180.887 222, 178.060 227.500 C 175.232 233, 171.694 239.197, 170.196 241.272 C 165.852 247.290, 162.710 253.802, 163.348 255.465 C 164.275 257.881, 168.890 257.384, 169.985 254.750 C 170.499 253.512, 172.730 250.025, 174.942 247 C 181.386 238.187, 186 231.347, 186 230.605 C 186 230.226, 186.900 228.950, 188 227.770 C 189.100 226.589, 190 224.988, 190 224.212 C 190 223.436, 191.524 220.259, 193.387 217.151 C 196.313 212.267, 199.571 204.792, 201.406 198.750 C 201.698 197.787, 202.626 197, 203.469 197 C 204.768 197, 205.038 199.382, 205.250 212.750 C 205.604 235.079, 205.393 241.117, 203.999 248.507 C 202.401 256.976, 203.169 258, 211.122 258 C 214.374 258, 217 257.553, 217 257 C 217 256.450, 217.675 256, 218.500 256 C 219.325 256, 220 256.450, 220 257 C 220 258.610, 229.812 258.148, 233.238 256.377 C 235.657 255.126, 236.789 255.011, 238.175 255.877 C 240.741 257.480, 242.071 257.282, 244.580 254.925 C 246.484 253.136, 247.073 253.029, 248.863 254.147 C 250.669 255.274, 251.208 255.154, 253.008 253.221 C 255.192 250.878, 257 250.325, 257 252 C 257 253.795, 262.933 253.053, 269 250.500 C 272.267 249.125, 276.078 248, 277.470 248 C 279.701 248, 280 247.581, 280 244.456 C 280 242.506, 279.360 238.119, 278.577 234.706 C 277.794 231.292, 276.642 223.325, 276.017 217 C 274.595 202.620, 274.332 201.341, 272.668 200.703 C 268.889 199.253, 268.503 201.253, 268.416 222.715 L 268.332 243.499 257.416 245.820 C 251.412 247.096, 242 248.550, 236.500 249.051 C 231 249.551, 224.700 250.361, 222.500 250.851 C 220.300 251.340, 217.150 251.642, 215.500 251.522 C 212.750 251.322, 212.518 251.021, 212.713 247.902 C 212.830 246.031, 212.998 232.930, 213.085 218.789 L 213.243 193.077 210.622 189.962 C 207.735 186.532, 207.819 184.425, 211.104 177.864 C 213.067 173.944, 213.389 173.826, 226.750 172.156 C 228.552 171.931, 228.287 169.938, 226.250 168.392 C 223.005 165.929, 214.222 166.887, 201 171.146" stroke="none" fill="black" fill-rule="evenodd"/>
</svg>