<svg xmlns="http://www.w3.org/2000/svg" width="300" height="300" viewBox="0 0 300 300" version="1.1">
	<path d="M 62.500 48.818 C 60.850 49.743, 59.313 50.612, 59.085 50.748 C 58.857 50.884, 58.555 53.134, 58.413 55.748 C 58.272 58.362, 57.691 63.875, 57.122 68 C 56.553 72.125, 56.068 77.814, 56.044 80.642 C 55.989 87.100, 55.862 87.140, 36.368 86.849 C 24.672 86.674, 21.669 86.911, 20.939 88.066 C 19.537 90.284, 20.426 91.530, 23.173 91.200 C 24.548 91.035, 26.158 91.485, 26.751 92.200 C 27.817 93.484, 28 94.042, 28 96 C 28 96.550, 29.748 97, 31.883 97 C 34.840 97, 35.884 96.552, 36.257 95.124 C 36.590 93.854, 37.883 93.116, 40.265 92.838 C 45.515 92.225, 46.558 92.993, 43.348 95.109 C 41.556 96.291, 41.056 97.033, 42 97.112 C 45.072 97.368, 46.424 96.757, 49.079 93.915 C 52.048 90.738, 54 90.164, 54 92.469 C 54 93.415, 53.377 93.737, 52.250 93.376 C 50.939 92.955, 51.055 93.277, 52.709 94.657 C 54.829 96.426, 54.879 96.859, 53.971 105.500 C 52.668 117.877, 49.818 130.439, 46.821 137 C 45.440 140.025, 42.810 145.875, 40.977 150 C 39.144 154.125, 35.474 160.193, 32.822 163.486 C 30.170 166.778, 28 169.992, 28 170.629 C 28 171.265, 27.325 172.045, 26.500 172.362 C 25.675 172.678, 25 173.626, 25 174.469 C 25 175.311, 24.403 176, 23.674 176 C 22.945 176, 21.292 177.125, 20 178.500 C 18.708 179.875, 17.077 181, 16.375 181 C 13.992 181, 13.073 184.241, 14.613 187.219 C 15.404 188.749, 16.512 190, 17.075 190 C 18.228 190, 24.230 187.052, 25 186.108 C 25.275 185.770, 27.413 184.197, 29.750 182.611 C 32.087 181.025, 34 179.415, 34 179.033 C 34 178.651, 35.118 177.740, 36.483 177.009 C 37.849 176.278, 39.204 174.931, 39.495 174.016 C 39.785 173.101, 40.844 171.471, 41.847 170.395 C 45.619 166.346, 50 159.636, 50 157.907 C 50 156.920, 49 155.413, 47.777 154.557 L 45.555 153 48.077 153 C 49.465 153, 51.125 152.475, 51.767 151.833 C 53.596 150.004, 53.807 151.701, 54.648 175 C 55.610 201.668, 55.489 223.145, 54.273 242 C 53.758 249.975, 53.544 259.267, 53.797 262.650 C 54.189 267.876, 54.619 268.994, 56.664 270.088 C 58.778 271.219, 59.331 271.113, 61.230 269.215 C 63.286 267.159, 63.403 266.050, 63.658 246.277 C 63.805 234.850, 64.116 222.800, 64.350 219.500 C 64.584 216.200, 64.392 208.550, 63.923 202.500 C 63.454 196.450, 62.835 180.118, 62.547 166.206 C 62.242 151.442, 61.585 140.092, 60.969 138.942 C 59.244 135.719, 62.392 135.454, 67.416 138.398 C 69.858 139.829, 72.676 141.014, 73.678 141.031 C 75.813 141.068, 78.398 144.353, 79.360 148.250 C 79.793 150.004, 80.702 151, 81.873 151 C 82.882 151, 84.821 152.012, 86.181 153.250 C 89.804 156.547, 97.673 162, 98.806 162 C 99.345 162, 100.045 161.325, 100.362 160.500 C 100.992 158.858, 100.191 156, 99.101 156 C 98.085 156, 92.478 150.429, 83.675 140.673 C 79.371 135.903, 75.263 132, 74.547 132 C 73.831 132, 72.685 131.325, 72 130.500 C 70.517 128.713, 64.890 128.510, 63.217 130.183 C 61.121 132.279, 60.943 130.474, 62.464 122.526 C 63.433 117.461, 63.739 112.219, 63.342 107.514 C 62.926 102.595, 63.093 100.060, 63.865 99.583 C 64.489 99.198, 65 98.087, 65 97.115 C 65 94.946, 69.036 91, 71.255 91 C 72.150 91, 73.131 90.597, 73.435 90.104 C 73.740 89.612, 77.929 88.642, 82.744 87.949 C 92.106 86.602, 94 85.769, 94 83 C 94 79.522, 91.858 78.983, 82.423 80.089 C 77.516 80.665, 71.936 81.544, 70.025 82.043 C 67.888 82.601, 66.188 82.588, 65.607 82.007 C 63.600 80, 65.038 68.101, 68.120 61.233 C 71.852 52.915, 71.806 47.595, 68 47.318 C 66.625 47.218, 64.150 47.893, 62.500 48.818 M 130.250 49.408 C 125.703 54.206, 128.238 58.288, 136.500 59.471 C 139.250 59.865, 142.057 60.645, 142.737 61.205 C 143.418 61.766, 144.602 61.983, 145.370 61.688 C 146.137 61.394, 148.919 62.244, 151.552 63.576 C 154.185 64.909, 157.333 66, 158.547 66 C 163.193 66, 164.092 60.716, 159.658 59.469 C 157.547 58.876, 154.813 57.735, 147.250 54.293 C 145.188 53.355, 142.455 51.330, 141.178 49.793 C 138.184 46.193, 133.456 46.026, 130.250 49.408 M 224.211 55.538 C 223.501 56.342, 221.869 57, 220.583 57 C 216.685 57, 215.760 59.282, 215.714 69.013 C 215.685 75.273, 215.264 78.366, 214.335 79.137 C 213.022 80.226, 201.889 82.702, 195 83.437 C 189.999 83.970, 186.859 85.402, 184.033 88.439 C 182.071 90.548, 181.790 91.438, 182.660 92.795 C 183.970 94.838, 191.699 94.642, 196.500 92.444 C 198.150 91.688, 200.895 91.121, 202.600 91.183 C 204.305 91.245, 207.205 90.545, 209.044 89.628 C 213.776 87.267, 214.816 88.761, 215.608 99.056 C 216.382 109.136, 214.902 113.385, 210.286 114.336 C 208.754 114.652, 205.475 115.325, 203 115.831 C 200.525 116.338, 196.475 117.515, 194 118.447 C 191.525 119.379, 187.700 120.459, 185.500 120.848 C 182.471 121.384, 181.175 122.234, 180.161 124.350 C 178.989 126.796, 179.039 127.386, 180.566 129.073 C 182.643 131.367, 184.679 131.496, 188.596 129.579 C 191.214 128.298, 195.374 127.608, 198.750 127.894 C 201.129 128.096, 199.976 131.001, 194.472 138.672 C 191.431 142.910, 188.682 147.417, 188.363 148.689 C 188.044 149.960, 187.474 151, 187.095 151 C 186.444 151, 176 166.430, 176 167.392 C 176 167.642, 174.762 169.142, 173.250 170.726 C 171.738 172.310, 169.640 174.832, 168.590 176.330 C 167.539 177.828, 165.626 180.190, 164.340 181.579 C 163.053 182.967, 162 184.755, 162 185.552 C 162 186.348, 161.550 187, 161 187 C 160.450 187, 160 187.492, 160 188.092 C 160 188.693, 159.100 190.329, 158 191.727 C 156.900 193.126, 156 195.082, 156 196.076 C 156 198.402, 154.014 199.641, 152.977 197.963 C 152.537 197.251, 151.901 194.823, 151.562 192.567 C 150.765 187.249, 148.503 186.240, 135.469 185.385 C 126.007 184.765, 125.189 184.871, 120.329 187.333 C 115.825 189.616, 115.039 189.752, 113.949 188.439 C 112.994 187.288, 112.972 186.356, 113.853 184.423 C 115.628 180.527, 115.318 177, 113.200 177 C 112.210 177, 110.832 177.563, 110.138 178.250 C 109.444 178.938, 107.272 179.500, 105.311 179.500 C 100.443 179.500, 98.982 181.851, 101.126 186.235 C 102.884 189.831, 104.661 196.014, 105.983 203.136 C 106.456 205.686, 107.554 209.865, 108.422 212.421 C 109.290 214.978, 110 218.089, 110 219.335 C 110 221.853, 111.707 224, 113.710 224 C 114.720 224, 114.979 221.490, 114.846 213.010 C 114.698 203.632, 114.940 201.724, 116.491 200.010 C 117.492 198.904, 119.140 198, 120.155 198 C 121.170 198, 122 197.543, 122 196.984 C 122 196.425, 123.237 195.954, 124.750 195.936 C 126.263 195.919, 130.754 195.781, 134.731 195.631 C 138.708 195.481, 142.470 195.672, 143.090 196.056 C 143.710 196.439, 144.409 198.721, 144.644 201.126 C 145.048 205.275, 144.784 205.807, 139.535 211.458 C 136.491 214.735, 134 217.733, 134 218.120 C 134 218.508, 130.738 220.052, 126.750 221.552 C 115.901 225.633, 113.964 227.964, 118.038 232.038 C 119.836 233.836, 120.633 233.963, 124.788 233.117 C 130.644 231.923, 141.586 227.814, 143.198 226.202 C 143.859 225.541, 144.937 225, 145.593 225 C 146.249 225, 147.045 224.325, 147.362 223.500 C 147.678 222.675, 148.514 221.997, 149.219 221.993 C 150.853 221.984, 155.230 215.620, 154.823 213.843 C 154.654 213.104, 156.708 210.276, 159.389 207.558 C 162.069 204.840, 164.862 201.182, 165.594 199.429 C 166.327 197.676, 167.991 194.950, 169.293 193.371 C 170.595 191.792, 171.947 189.713, 172.298 188.750 C 172.650 187.787, 173.626 187, 174.469 187 C 175.311 187, 176 186.411, 176 185.690 C 176 184.970, 178.031 181.932, 180.513 178.940 C 182.995 175.948, 185.470 172.956, 186.013 172.292 C 186.556 171.628, 187 170.757, 187 170.358 C 187 168.332, 194.672 158.083, 196 158.335 C 196.825 158.491, 197.275 159.267, 197.001 160.059 C 196.727 160.852, 196.453 170.551, 196.394 181.614 C 196.334 192.677, 196.011 202.173, 195.676 202.715 C 195.341 203.258, 195.450 209.220, 195.918 215.963 C 196.701 227.233, 196.979 228.433, 199.347 230.802 C 201.865 233.319, 201.971 233.336, 203.962 231.534 C 205.980 229.708, 206.730 225.569, 205.213 224.632 C 204.781 224.365, 204.321 221.453, 204.191 218.161 L 203.954 212.176 209.026 211.088 C 211.816 210.489, 215.426 210, 217.049 210 C 218.672 210, 220 209.550, 220 209 C 220 208.450, 221.344 208, 222.986 208 C 225.907 208, 232.808 206.650, 238.212 205.020 C 239.976 204.488, 241.238 204.604, 241.825 205.351 C 242.951 206.785, 244.191 231.096, 243.215 232.610 C 241.902 234.650, 236.370 236.882, 230.906 237.578 C 227.933 237.956, 224.939 238.710, 224.253 239.253 C 223.567 239.796, 217.942 240.476, 211.753 240.764 C 201.482 241.242, 200.302 241.500, 198.234 243.713 C 195.346 246.803, 196.278 248.358, 200.536 247.559 C 203.139 247.071, 204.137 247.358, 205.221 248.905 C 206.581 250.848, 206.614 250.848, 207.808 248.936 C 209.438 246.326, 213 246.370, 213 249 C 213 250.673, 213.667 251, 217.071 251 C 219.357 251, 221.801 250.342, 222.643 249.500 C 223.468 248.675, 225.808 248, 227.844 248 C 230.395 248, 233.197 246.912, 236.860 244.500 C 239.783 242.575, 242.559 241, 243.028 241 C 244.569 241, 245.284 243.206, 244 244 C 241.707 245.417, 244.057 247, 248.452 247 C 253.825 247, 254.283 246.014, 253.008 237.198 C 252.476 233.514, 252.025 225.550, 252.006 219.500 C 251.967 206.606, 251.484 204.219, 248.829 203.806 C 246.896 203.505, 246.898 203.462, 248.931 201.292 C 250.812 199.284, 251 197.856, 251 185.542 C 251 178.094, 250.633 172, 250.183 172 C 249.734 172, 248.789 169.092, 248.083 165.539 C 247.376 161.985, 246.169 158.555, 245.399 157.916 C 244.630 157.278, 244 156.210, 244 155.543 C 244 154.141, 238.507 149, 237.009 149 C 236.454 149, 236 149.419, 236 149.931 C 236 150.444, 231.838 151.089, 226.750 151.366 C 221.662 151.643, 215.343 152.171, 212.708 152.539 C 208.514 153.124, 207.670 152.926, 205.958 150.951 C 204.881 149.710, 204 148.382, 204 148.001 C 204 146.356, 207.213 141.198, 210.540 137.500 C 212.520 135.300, 215.091 131.813, 216.254 129.750 C 217.417 127.687, 218.776 126, 219.274 126 C 219.772 126, 220.927 125.079, 221.840 123.954 C 222.966 122.566, 226.236 121.310, 232.011 120.050 C 245.041 117.205, 253.460 112.806, 257.409 106.780 C 260.939 101.392, 256.652 97.570, 252.499 102.403 C 251.363 103.725, 248.464 105.336, 246.057 105.985 C 243.650 106.633, 240.740 107.758, 239.590 108.485 C 236.973 110.141, 229.377 111.421, 228.701 110.321 C 228.423 109.869, 229.280 107.700, 230.604 105.500 C 231.929 103.300, 233.678 100.068, 234.492 98.317 C 235.305 96.566, 236.846 94.521, 237.915 93.772 C 238.984 93.023, 240.150 91.251, 240.506 89.833 C 241.216 87.004, 243.651 85.463, 249 84.460 C 255.911 83.164, 258.819 79.754, 255.419 76.933 C 254.179 75.903, 253.427 75.877, 251.932 76.810 C 249.610 78.260, 247 78.361, 247 77 C 247 76.450, 247.900 75.100, 249 74 C 250.100 72.900, 251 71.795, 251 71.544 C 251 71.294, 252.125 69.431, 253.500 67.405 C 258.204 60.473, 256.153 56.074, 249.102 57.973 C 245.570 58.924, 244.542 59.924, 241.076 65.782 C 235.446 75.296, 233.104 77.703, 228.750 78.448 L 225 79.091 225.004 72.795 C 225.007 68.074, 225.631 65.273, 227.497 61.594 C 229.381 57.880, 229.715 56.362, 228.871 55.344 C 227.443 53.624, 225.840 53.691, 224.211 55.538 M 160 86.170 C 156.425 86.637, 146.300 87.377, 137.500 87.814 C 120.952 88.636, 116 89.839, 116 93.038 C 116 96.732, 118.606 97.371, 133.827 97.412 C 145.121 97.442, 149.536 97.068, 153 95.786 C 155.475 94.871, 159.601 93.847, 162.168 93.512 C 167.379 92.831, 169.313 91.196, 168.827 87.883 C 168.428 85.167, 168.127 85.108, 160 86.170 M 223.446 104.087 C 223.077 104.685, 223.275 105.675, 223.887 106.287 C 224.704 107.104, 225 106.815, 225 105.200 C 225 102.785, 224.481 102.413, 223.446 104.087 M 123.750 121.538 C 121.036 123.044, 120.069 126.306, 121.986 127.491 C 122.528 127.826, 128.804 128.314, 135.933 128.574 C 152.320 129.174, 162 127.244, 162 123.378 C 162 122.070, 161.887 120.964, 161.750 120.921 C 161.613 120.878, 153.625 120.655, 144 120.427 C 129.618 120.086, 126.010 120.284, 123.750 121.538 M 195 125 C 195 125.550, 195.450 126, 196 126 C 196.550 126, 197 125.550, 197 125 C 197 124.450, 196.550 124, 196 124 C 195.450 124, 195 124.450, 195 125 M 140.347 146.705 C 138.781 147.368, 136.248 147.930, 134.719 147.955 C 133.189 147.980, 131.698 148.624, 131.405 149.386 C 131.033 150.357, 128.033 150.985, 121.379 151.483 C 113.730 152.057, 111.410 152.614, 109.443 154.348 C 107.836 155.764, 107.289 156.946, 107.843 157.803 C 109.027 159.637, 121.241 161.239, 124.525 159.990 C 125.958 159.446, 128.563 158.991, 130.315 158.979 C 132.067 158.967, 136.539 157.885, 140.253 156.574 C 144.771 154.980, 148.260 154.359, 150.794 154.699 C 155.222 155.293, 157.553 153.329, 156.651 149.763 C 155.571 145.493, 147.007 143.886, 140.347 146.705 M 193 152 C 193 152.550, 193.477 153, 194.059 153 C 194.641 153, 194.840 152.550, 194.500 152 C 194.160 151.450, 193.684 151, 193.441 151 C 193.198 151, 193 151.450, 193 152 M 223.500 160.007 C 220.750 160.406, 217.060 161.332, 215.300 162.066 C 212.470 163.247, 211.872 163.194, 210.122 161.611 C 208.201 159.872, 208.098 159.910, 206.546 162.910 C 205.668 164.610, 204.444 166, 203.826 166 C 202.361 166, 203.357 182.494, 205.046 186.201 C 205.955 188.197, 205.975 189.634, 205.125 192.071 C 204.506 193.846, 204 197.031, 204 199.149 C 204 202.692, 204.220 202.997, 206.750 202.965 C 208.262 202.945, 210.625 202.286, 212 201.500 C 213.375 200.714, 216.493 200.055, 218.929 200.035 C 221.365 200.016, 224.740 199.561, 226.429 199.025 C 228.118 198.489, 232.050 197.786, 235.167 197.463 C 238.283 197.141, 241.026 196.342, 241.262 195.688 C 241.498 195.035, 241.248 190.900, 240.708 186.500 C 240.167 182.100, 239.674 176.025, 239.613 173 C 239.516 168.283, 239.749 167.542, 241.250 167.794 C 242.329 167.975, 243 167.454, 243 166.437 C 243 165.362, 242.463 164.992, 241.462 165.376 C 240.527 165.735, 239.683 165.287, 239.310 164.233 C 237.469 159.037, 234.907 158.352, 223.500 160.007" stroke="none" fill="black" fill-rule="evenodd"/>
</svg>