<svg xmlns="http://www.w3.org/2000/svg" width="300" height="300" viewBox="0 0 300 300" version="1.1">
	<path d="M 195.536 26.350 C 194.063 27.427, 193.817 28.487, 194.321 31.592 C 194.669 33.733, 195.413 35.638, 195.976 35.825 C 196.539 36.013, 197 37.062, 197 38.157 C 197 39.515, 196.444 40.039, 195.250 39.807 C 194.020 39.568, 193.110 40.511, 192.186 42.983 C 190.210 48.269, 190.269 49.495, 192.500 49.547 C 193.732 49.575, 194.364 50.151, 194.145 51.047 C 193.949 51.846, 193.570 54.520, 193.301 56.990 C 193.033 59.459, 192.406 62.242, 191.907 63.174 C 190.537 65.734, 190.772 70.242, 192.250 69.753 C 194.680 68.949, 197.011 61.904, 199.505 47.823 C 200.254 43.601, 201.343 38.426, 201.927 36.323 C 203.485 30.714, 203.276 26.320, 201.418 25.607 C 199.014 24.685, 197.563 24.868, 195.536 26.350 M 75.691 45.028 C 74.211 46.192, 73 47.922, 73 48.873 C 73 49.823, 72.533 51.067, 71.963 51.637 C 71.392 52.208, 70.644 56.685, 70.300 61.587 C 69.723 69.820, 69.802 70.395, 71.337 69.128 C 72.856 67.874, 73 68.284, 73 73.852 C 73 79.716, 72.876 80.013, 69.750 81.643 C 67.963 82.575, 64.925 83.665, 63 84.066 C 54.312 85.875, 43.470 89.130, 43.167 90.021 C 42.983 90.559, 41.621 91, 40.139 91 C 37.562 91, 33.255 93.269, 31.823 95.383 C 31.032 96.550, 33.622 102, 34.967 102 C 35.470 102, 36.160 101.550, 36.500 101 C 36.840 100.450, 38.329 99.986, 39.809 99.968 C 41.289 99.951, 43.329 99.308, 44.342 98.541 C 45.355 97.773, 48.055 96.849, 50.342 96.488 C 52.629 96.127, 56.719 95.195, 59.432 94.416 C 65.594 92.646, 67 92.639, 67 94.378 C 67 95.135, 67.675 96.315, 68.500 97 C 69.425 97.768, 70 99.963, 70 102.731 C 70 106.934, 69.852 107.180, 67.662 106.630 C 63.722 105.641, 61.682 108.143, 60.310 115.646 C 59.621 119.416, 58.760 123.963, 58.397 125.750 C 57.397 130.681, 59.721 129.791, 61.008 124.750 C 62.671 118.240, 64.045 115.197, 65.592 114.603 C 67.455 113.888, 67.468 117.367, 65.608 118.910 C 63.335 120.797, 63.004 123.768, 65.008 124.292 C 67.425 124.924, 68.613 132.107, 66.959 136.099 C 66.137 138.083, 65.904 141.980, 66.263 147.735 C 66.566 152.598, 66.362 157.508, 65.796 158.944 C 65.242 160.350, 64.649 171.175, 64.478 183 C 64.157 205.121, 62.943 225.213, 61.185 237.500 C 59.971 245.983, 60.106 249.181, 61.734 250.500 C 63.058 251.573, 62.373 256, 60.883 256 C 60.398 256, 59.986 256.788, 59.968 257.750 C 59.924 260.171, 57.508 263.135, 55.862 262.787 C 54.162 262.429, 53.375 268.775, 54.927 270.327 C 55.691 271.091, 56 270.317, 56 267.641 C 56 262.265, 57.601 263.985, 58.331 270.144 C 59.026 276.015, 59.851 277.328, 62.008 275.995 C 63.202 275.257, 63.538 272.222, 63.691 260.786 C 63.797 252.929, 64.351 244.632, 64.924 242.350 C 65.497 240.067, 66.191 232.192, 66.467 224.850 C 66.743 217.507, 67.469 209.250, 68.081 206.500 C 68.694 203.750, 69.492 187.550, 69.854 170.500 C 70.217 153.450, 70.857 138.967, 71.276 138.315 C 71.695 137.663, 72.482 129.113, 73.025 119.315 C 73.992 101.860, 75.561 93.296, 78.291 90.566 C 79.043 89.814, 82.547 88.405, 86.079 87.433 C 89.610 86.461, 93.388 85.066, 94.473 84.333 C 95.557 83.600, 97.132 82.996, 97.973 82.992 C 98.813 82.988, 100.065 81.769, 100.755 80.283 C 101.779 78.078, 101.761 77.332, 100.657 76.229 C 99.521 75.092, 98.325 75.206, 93.165 76.944 C 89.789 78.082, 84.883 79.122, 82.263 79.256 L 77.500 79.500 77.815 73.500 C 78.313 64.014, 79.931 55.034, 81.601 52.486 C 82.446 51.196, 82.994 48.647, 82.819 46.821 C 82.422 42.687, 79.578 41.971, 75.691 45.028 M 135.171 44.750 C 134.677 45.712, 134.015 49.118, 133.701 52.318 C 133.208 57.342, 133.330 57.971, 134.589 56.926 C 135.392 56.260, 136.221 55.892, 136.431 56.107 C 137.337 57.037, 137.358 64.042, 136.458 64.942 C 135.901 65.499, 135.709 68.450, 136.017 71.715 C 136.336 75.091, 136.060 79.027, 135.355 81.167 C 133.693 86.212, 132.574 94.907, 133.817 93.122 C 134.345 92.364, 135.277 92.053, 135.888 92.431 C 136.619 92.883, 137 91.975, 137 89.782 C 137 87.946, 137.677 85.478, 138.504 84.297 C 139.456 82.938, 140.355 77.899, 140.952 70.579 C 141.471 64.215, 142.657 56.591, 143.589 53.636 C 144.572 50.516, 145.006 47.159, 144.622 45.631 C 144.049 43.346, 143.443 43, 140.016 43 C 137.267 43, 135.798 43.531, 135.171 44.750 M 194.079 45.583 C 194.127 46.748, 194.364 46.985, 194.683 46.188 C 194.972 45.466, 194.936 44.603, 194.604 44.271 C 194.272 43.939, 194.036 44.529, 194.079 45.583 M 223.500 46.966 C 212.426 48.029, 202.406 51.735, 201.100 55.249 C 199.402 59.815, 202.559 61.324, 208.685 58.874 C 212.850 57.209, 222.533 54.981, 230.685 53.812 C 235.738 53.087, 238.056 52.297, 238.496 51.150 C 239.284 49.096, 235.594 45.944, 232.639 46.147 C 231.463 46.227, 227.350 46.596, 223.500 46.966 M 167 58.536 C 163.975 59.274, 159.025 60.406, 156 61.050 C 146.826 63.003, 143.992 65.849, 147.615 69.473 C 148.855 70.712, 150.310 70.940, 153.865 70.452 C 159.821 69.636, 168.392 67.197, 173.566 64.847 C 175.802 63.831, 178.363 63, 179.257 63 C 181.406 63, 182.276 61.444, 181.497 58.991 C 180.736 56.594, 175.613 56.433, 167 58.536 M 188.083 60.589 C 187.478 62.740, 186.702 66.197, 186.360 68.272 C 186.017 70.347, 185.346 72.286, 184.869 72.581 C 184.391 72.876, 184 74.471, 184 76.125 C 184 77.778, 183.600 79.889, 183.112 80.816 C 181.767 83.368, 182.965 93, 184.627 93 C 186.358 93, 186.496 86.896, 184.804 85.204 C 183.875 84.275, 183.964 83.727, 185.198 82.754 C 186.887 81.422, 187.954 77.346, 188.536 70 C 188.732 67.525, 189.318 64.098, 189.838 62.384 C 190.358 60.670, 190.423 58.685, 189.983 57.973 C 189.445 57.102, 188.822 57.960, 188.083 60.589 M 72 64.059 C 72 65.191, 72.450 65.840, 73 65.500 C 73.550 65.160, 74 64.234, 74 63.441 C 74 62.648, 73.550 62, 73 62 C 72.450 62, 72 62.927, 72 64.059 M 205.831 71.750 C 203.753 74.210, 204.538 76.297, 208.307 78.326 C 210.090 79.286, 212.896 81.293, 214.543 82.786 C 216.191 84.279, 219.217 86.358, 221.269 87.407 C 223.321 88.457, 225 89.639, 225 90.036 C 225 90.433, 226.350 91.317, 228.001 92 C 230.393 92.991, 231.306 92.991, 232.501 91.999 C 233.325 91.315, 234 90.372, 234 89.904 C 234 88.032, 217.285 73, 215.204 73 C 214.677 73, 213.685 72.325, 213 71.500 C 211.320 69.476, 207.644 69.604, 205.831 71.750 M 152.651 83.070 C 148.755 87.177, 149.553 90.460, 154.744 91.685 C 157.274 92.282, 158.902 93.407, 159.730 95.130 C 161.319 98.436, 170.466 107, 172.407 107 C 173.229 107, 174.333 106.227, 174.861 105.283 C 176.488 102.377, 169.130 91.172, 165.500 91.026 C 164.584 90.990, 162.096 87.529, 159.370 82.500 C 157.766 79.542, 155.841 79.705, 152.651 83.070 M 135.311 96.499 C 133.471 98.489, 133.157 107.500, 134.928 107.500 C 136.825 107.500, 138.081 102.506, 137.203 98.458 C 136.645 95.883, 136.255 95.479, 135.311 96.499 M 204.660 108.482 C 203.747 109.396, 203 110.818, 203 111.643 C 203 112.468, 202.400 113.743, 201.667 114.476 C 200.934 115.209, 199.542 118.327, 198.574 121.405 C 196.826 126.963, 196.787 127, 192.846 127 L 188.877 127 189.561 122.250 C 189.937 119.638, 190.854 116.801, 191.599 115.947 C 192.344 115.092, 193.077 113.292, 193.227 111.947 C 193.637 108.271, 189.004 108.505, 187.209 112.250 C 185.610 115.585, 184.274 115.778, 183.748 112.750 C 183.375 110.603, 183.303 110.629, 182.179 113.315 C 181.530 114.863, 181 118.181, 181 120.688 C 181 124.625, 181.204 125.076, 182.500 124 C 183.753 122.960, 184 123.104, 184 124.878 C 184 126.045, 183.363 127, 182.583 127 C 181.804 127, 181.001 127.498, 180.798 128.106 C 180.594 128.717, 176.196 129.622, 170.965 130.130 C 165.759 130.635, 160.152 131.502, 158.505 132.057 C 156.857 132.613, 152.230 133.344, 148.221 133.683 C 144.213 134.022, 140.697 134.682, 140.408 135.150 C 140.118 135.617, 138.199 136, 136.141 136 C 134.083 136, 131.860 136.540, 131.200 137.200 C 127.625 140.775, 132.292 146.856, 136.020 143.482 C 137.129 142.478, 138.394 142.125, 139.167 142.603 C 142.830 144.867, 167.075 141.663, 169.326 138.617 C 169.923 137.810, 170.293 137.847, 170.659 138.750 C 170.938 139.438, 172.479 140, 174.083 140 C 176.528 140, 177 140.405, 177 142.500 C 177 143.875, 177.188 145, 177.418 145 C 179.015 145, 181 143.555, 181 142.393 C 181 141.627, 181.402 141, 181.893 141 C 183.352 141, 183.866 143.478, 183.050 146.589 C 181.565 152.257, 180.779 153.896, 179.404 154.196 C 178.638 154.363, 176.547 157.414, 174.756 160.975 C 171.782 166.890, 171.158 167.519, 167.542 168.253 C 165.365 168.694, 163.306 169.504, 162.967 170.053 C 162.588 170.667, 152.350 171.138, 136.425 171.276 L 110.500 171.500 110.195 176.250 L 109.890 181 121.445 181 L 133 181 133.116 178.250 C 133.187 176.558, 133.408 176.173, 133.689 177.250 C 134.264 179.448, 139 179.671, 139 177.500 C 139 175.863, 141.700 175.524, 143.857 176.890 C 144.803 177.490, 144.878 177.957, 144.107 178.434 C 143.498 178.810, 143 179.740, 143 180.501 C 143 181.602, 144.425 181.764, 150 181.297 C 158.321 180.599, 158.781 181.437, 153.409 187.500 C 146.757 195.007, 141.749 200, 140.874 200 C 140.393 200, 140 200.416, 140 200.924 C 140 202.133, 132.771 209.949, 121.122 221.334 C 102.402 239.631, 102 240.089, 102 243.129 C 102 245.393, 102.451 246, 104.132 246 C 106.469 246, 113 242.329, 113 241.015 C 113 240.564, 115.215 238.071, 117.922 235.477 C 120.629 232.883, 123.099 229.743, 123.411 228.499 C 123.734 227.213, 125.485 225.523, 127.474 224.580 C 129.396 223.667, 132.438 220.998, 134.234 218.647 C 136.030 216.297, 139.188 212.893, 141.250 211.083 C 143.313 209.274, 145 206.897, 145 205.803 C 145 204.654, 145.845 203.592, 147 203.290 C 148.100 203.002, 149 202.144, 149 201.383 C 149 200.623, 149.855 200, 150.900 200 C 152.359 200, 153.107 201.221, 154.119 205.250 C 155.031 208.882, 155.545 209.802, 155.790 208.235 C 156.250 205.284, 158 206.379, 158 209.618 C 158 210.993, 157.581 211.859, 157.069 211.543 C 155.325 210.465, 155.011 212.779, 156.376 216.647 C 158.072 221.455, 159.132 234.982, 159.340 254.482 C 159.480 267.583, 159.709 269.505, 161.165 269.789 C 163.280 270.202, 164.118 267.468, 163.197 263.158 C 162.804 261.320, 162.936 256.040, 163.491 251.425 C 164.336 244.400, 164.881 242.769, 166.840 241.398 C 168.652 240.130, 169.701 239.998, 171.489 240.813 C 174.446 242.160, 178.045 241.281, 177.319 239.389 C 176.751 237.909, 178.610 235, 180.122 235 C 180.605 235, 181 236.073, 181 237.383 C 181 240.521, 182.702 240.868, 193.548 239.946 C 198.472 239.527, 204.975 239.419, 208 239.705 C 212.662 240.146, 213.779 239.916, 215.334 238.191 C 217.124 236.205, 217.108 236.117, 214.655 234.509 C 213.272 233.604, 208.496 232.226, 204.041 231.448 C 196.975 230.215, 193.997 230.229, 180.737 231.559 C 166.691 232.967, 165.442 232.958, 164.328 231.433 C 163.494 230.294, 163.124 224.423, 163.132 212.464 C 163.141 197.344, 163.387 194.663, 165.071 191.361 C 166.132 189.280, 167 186.712, 167 185.655 C 167 184.598, 168.688 181.994, 170.750 179.867 C 173.587 176.943, 175.291 176.002, 177.750 176.001 C 179.537 176, 181 175.550, 181 175 C 181 174.450, 181.845 174, 182.878 174 C 185.607 174, 191.731 171.262, 192.329 169.775 C 192.729 168.782, 192.860 168.776, 192.921 169.750 C 193.016 171.254, 201 171.501, 201 170 C 201 169.450, 202.548 169, 204.441 169 C 206.334 169, 208.128 168.602, 208.429 168.115 C 208.729 167.629, 210.995 166.928, 213.464 166.558 C 215.933 166.187, 218.191 165.500, 218.482 165.029 C 219.134 163.974, 226.163 162.625, 231.387 162.553 C 235.899 162.491, 237.611 160.571, 236.632 156.670 C 235.741 153.120, 232.315 152.409, 225.777 154.418 C 222.875 155.310, 218.475 156.456, 216 156.966 C 193.264 161.644, 187.851 163.006, 186.460 164.397 C 184.558 166.299, 183.785 166.385, 182.262 164.862 C 181.412 164.012, 182.354 161.903, 185.991 156.514 C 188.667 152.548, 192.308 146.535, 194.081 143.151 C 196.653 138.244, 197.787 137, 199.684 137 C 200.992 137, 202.327 136.312, 202.649 135.471 C 203.169 134.118, 210.686 130, 212.637 130 C 213.048 130, 216.876 128.313, 221.144 126.250 C 229.659 122.135, 231.574 119.397, 228.394 115.882 C 226.445 113.729, 223.444 113.400, 222.730 115.261 C 221.589 118.234, 209 122.649, 209 120.077 C 209 118.231, 214.125 113.122, 216.284 112.815 C 217.897 112.586, 218.500 111.820, 218.500 110 C 218.500 108.017, 217.932 107.435, 215.754 107.184 C 213.692 106.947, 212.247 107.694, 209.955 110.184 C 208.275 112.008, 207.186 112.740, 207.534 111.811 C 207.883 110.882, 207.752 109.379, 207.244 108.472 C 206.387 106.940, 206.202 106.941, 204.660 108.482 M 80.355 120.518 C 79.397 123.014, 82.092 128.242, 86.533 132.500 C 91.191 136.967, 92.782 140, 90.469 140 C 87.335 140, 89.240 142.736, 94.250 145.431 C 97.138 146.984, 99.725 148.559, 100 148.930 C 101.157 150.493, 111.360 154.094, 113.823 153.809 C 118.269 153.296, 117.316 149.898, 112 147.308 C 105.793 144.284, 94.169 135.103, 92.160 131.636 C 91.247 130.061, 89.263 127.426, 87.750 125.781 C 86.237 124.135, 85 122.209, 85 121.501 C 85 120.793, 84.288 119.941, 83.418 119.607 C 81.199 118.755, 81.010 118.811, 80.355 120.518 M 76.639 120.694 C 75.444 121.889, 75.994 124, 77.500 124 C 78.325 124, 79 123.352, 79 122.559 C 79 120.888, 77.573 119.761, 76.639 120.694 M 55.642 133.105 C 54.629 134.289, 51.598 139.083, 48.907 143.759 C 46.216 148.435, 41.610 155.015, 38.671 158.381 C 35.732 161.746, 32.477 165.850, 31.437 167.500 C 30.397 169.150, 29.225 170.735, 28.833 171.022 C 27.997 171.634, 23 178.897, 23 179.501 C 23 179.728, 21.193 181.845, 18.985 184.207 C 13.619 189.945, 12.437 195, 16.461 195 C 17.626 195, 23.256 188.125, 28 180.910 C 28.825 179.655, 31.188 176.749, 33.250 174.453 C 35.313 172.156, 37 169.749, 37 169.104 C 37 168.460, 38.350 166.613, 40 165 C 41.650 163.387, 43 161.602, 43 161.034 C 43 160.465, 43.375 160, 43.834 160 C 45.027 160, 52 149.643, 52 147.871 C 52 147.056, 53.120 144.871, 54.488 143.016 C 58.409 137.701, 59.464 128.641, 55.642 133.105 M 168 135.895 C 165.504 136.346, 164.974 136.719, 166.154 137.195 C 168.133 137.995, 172 137.127, 172 135.883 C 172 135.398, 171.887 135.059, 171.750 135.132 C 171.613 135.204, 169.925 135.548, 168 135.895 M 147.762 140.707 C 149.006 140.946, 150.806 140.937, 151.762 140.687 C 152.718 140.437, 151.700 140.241, 149.500 140.252 C 147.300 140.263, 146.518 140.468, 147.762 140.707 M 186.606 141.584 C 186.233 142.557, 186.456 143.015, 187.187 142.771 C 188.682 142.273, 189.505 140, 188.190 140 C 187.653 140, 186.941 140.713, 186.606 141.584 M 60 148 C 60 148.550, 60.423 149, 60.941 149 C 61.459 149, 62.160 148.550, 62.500 148 C 62.840 147.450, 62.416 147, 61.559 147 C 60.702 147, 60 147.450, 60 148 M 137.813 181.683 C 138.534 181.972, 139.397 181.936, 139.729 181.604 C 140.061 181.272, 139.471 181.036, 138.417 181.079 C 137.252 181.127, 137.015 181.364, 137.813 181.683 M 199.500 189.999 C 195.100 190.954, 190.825 191.976, 190 192.270 C 189.175 192.563, 183.841 193.377, 178.146 194.077 C 168.857 195.220, 164.926 196.642, 165.033 198.821 C 165.096 200.091, 168.687 203.841, 170.096 204.107 C 170.868 204.253, 173.525 203.994, 176 203.533 C 178.475 203.071, 181.625 202.598, 183 202.481 C 187.105 202.131, 198.184 199.846, 202.955 198.365 C 208.550 196.628, 209.211 197.194, 213.246 207.180 C 217.829 218.523, 221.882 251, 218.714 251 C 217.924 251, 214.282 252.358, 210.622 254.018 C 206.961 255.677, 202.062 257.681, 199.733 258.470 C 193.841 260.468, 180.007 260.871, 176.766 259.139 C 174.477 257.917, 173.899 258.015, 171.077 260.101 C 169.349 261.379, 168.062 263.049, 168.218 263.813 C 168.373 264.578, 170.425 266.282, 172.777 267.601 C 176.211 269.527, 178.502 270, 184.401 270 C 194.190 270, 208.816 264.626, 213.532 259.296 C 214.649 258.033, 216.314 257, 217.232 257 C 218.150 257, 219.384 256.212, 219.974 255.250 C 220.805 253.895, 220.985 254.742, 220.774 259 C 220.560 263.297, 220.822 264.500, 221.970 264.500 C 226.105 264.500, 227.183 250.931, 224.512 232.500 C 223.715 227, 223.049 219.365, 223.032 215.533 C 223.014 211.702, 222.370 206.752, 221.600 204.533 C 220.830 202.315, 219.687 198.588, 219.060 196.252 C 217.620 190.881, 214.563 187.960, 210.561 188.132 C 208.878 188.204, 203.900 189.044, 199.500 189.999 M 156.079 201.583 C 156.127 202.748, 156.364 202.985, 156.683 202.188 C 156.972 201.466, 156.936 200.603, 156.604 200.271 C 156.272 199.939, 156.036 200.529, 156.079 201.583" stroke="none" fill="black" fill-rule="evenodd"/>
</svg>