<svg xmlns="http://www.w3.org/2000/svg" width="300" height="300" viewBox="0 0 300 300" version="1.1">
	<path d="M 87.350 15.766 C 87.034 17.012, 87.009 18.928, 87.296 20.023 C 87.582 21.118, 87.199 24.598, 86.445 27.757 C 85.691 30.916, 84.799 37.100, 84.464 41.500 C 84.128 45.900, 82.921 55.125, 81.781 62 C 80.642 68.875, 79.404 76.750, 79.030 79.500 C 78.656 82.250, 77.574 86.296, 76.626 88.491 C 74.757 92.814, 73.206 112.699, 74.374 117.354 C 74.855 119.271, 75.682 120, 77.375 120 C 79.635 120, 79.733 119.658, 80.304 109.750 C 80.629 104.112, 82.074 94.550, 83.515 88.500 C 84.956 82.450, 86.812 73.675, 87.639 69 C 88.467 64.325, 89.786 58.572, 90.572 56.215 C 91.545 53.296, 92 47.343, 92 37.538 C 92 24.673, 91.814 23.098, 90.250 22.689 C 88.965 22.354, 88.899 22.190, 90 22.074 C 91.459 21.920, 96 15.774, 96 13.954 C 96 13.454, 94.183 13.148, 91.962 13.273 C 88.699 13.456, 87.814 13.935, 87.350 15.766 M 178 46.047 C 171.675 46.531, 156.825 47.409, 145 48 C 116.487 49.423, 107.059 50.329, 103.750 51.963 C 100.649 53.494, 100.088 56.721, 102.750 57.719 C 103.713 58.081, 104.962 58.991, 105.526 59.742 C 106.358 60.850, 107.495 60.895, 111.526 59.980 C 114.262 59.359, 119.425 58.480, 123 58.026 C 126.575 57.571, 130.850 56.865, 132.500 56.455 C 134.150 56.046, 144.050 55.633, 154.500 55.536 C 164.950 55.440, 183.114 54.750, 194.864 54.004 C 209.974 53.045, 217.037 52.953, 218.991 53.691 C 221.086 54.481, 222.988 54.343, 226.863 53.117 C 232.149 51.444, 233.395 49.403, 230.565 47.054 C 228.704 45.509, 193.790 44.840, 178 46.047 M 163 89.377 C 160.525 90.082, 155.575 91.439, 152 92.393 C 148.425 93.346, 142.070 95.223, 137.879 96.563 C 133.687 97.903, 129.569 99, 128.728 99 C 127.886 99, 126.326 100.477, 125.262 102.281 C 123.716 104.901, 123.539 106.061, 124.385 108.031 C 125.892 111.543, 127.163 112.123, 129.705 110.458 C 130.929 109.656, 132.745 109, 133.742 109 C 134.739 109, 136.739 107.650, 138.187 106 C 139.830 104.128, 141.888 102.941, 143.660 102.844 C 145.222 102.758, 147.785 102.631, 149.355 102.561 C 150.925 102.491, 152.725 101.731, 153.355 100.872 C 155.188 98.371, 163.740 96.679, 169.500 97.678 C 174.073 98.471, 174.601 98.851, 175.680 102.138 C 178.350 110.266, 180.445 151.131, 178.250 152.272 C 177.838 152.486, 175.389 152.469, 172.808 152.235 C 168.586 151.851, 168.053 151.518, 167.481 148.915 C 166.715 145.426, 166.003 144.939, 159.536 143.484 C 155.106 142.486, 154.439 141.999, 153.992 139.437 C 153.665 137.560, 152.776 136.388, 151.492 136.142 C 150.397 135.932, 148.612 135.139, 147.527 134.380 C 142.681 130.990, 130 134.127, 130 138.717 C 130 140.007, 130.675 141.322, 131.500 141.638 C 132.325 141.955, 133 142.814, 133 143.548 C 133 145.691, 135.008 146.334, 137.514 144.993 C 141.038 143.107, 150.337 144.571, 153.905 147.573 C 155.491 148.908, 157.341 150, 158.017 150 C 158.946 150, 158.921 150.390, 157.916 151.601 C 156.815 152.928, 155.211 153.097, 148.544 152.590 C 144.120 152.253, 138.925 152.399, 137 152.915 C 124.181 156.348, 116.416 157.990, 115.202 157.524 C 114.041 157.079, 113.916 154.585, 114.481 143.242 C 115.095 130.931, 115.930 125.892, 119.096 115.379 C 121.057 108.869, 117.052 106.773, 112.649 112.005 C 111.122 113.820, 109.899 116.789, 109.561 119.505 C 109.252 121.977, 108.752 125.995, 108.449 128.434 C 108.145 130.873, 107.719 138.542, 107.502 145.477 C 107.285 152.412, 106.831 158.957, 106.493 160.021 C 106.110 161.230, 104.307 162.382, 101.690 163.092 C 99.385 163.717, 95.392 165.077, 92.815 166.114 C 90.238 167.151, 87.255 168, 86.187 168 C 85.119 168, 83.685 168.675, 83 169.500 C 82.315 170.325, 81.021 171, 80.123 171 C 77.380 171, 61.972 178.924, 58.638 182.049 C 56.912 183.667, 55.159 184.993, 54.741 184.995 C 52.730 185.008, 48.126 190.517, 47.546 193.606 C 46.994 196.551, 47.333 197.487, 49.873 200.027 C 51.508 201.662, 53.347 203, 53.959 203 C 54.570 203, 55.897 201.088, 56.905 198.750 C 58.636 194.742, 64.378 189.155, 68.250 187.714 C 69.213 187.356, 70 186.425, 70 185.646 C 70 183.971, 74.219 181, 76.599 181 C 77.517 181, 82.543 178.975, 87.768 176.500 C 94.557 173.284, 98.526 172, 101.676 172 L 106.083 172 105.340 179.750 C 103.994 193.784, 104.332 226.486, 105.841 228.307 C 107.040 229.753, 110.408 229.871, 137.645 229.417 C 154.399 229.138, 169.095 228.540, 170.303 228.089 C 171.512 227.637, 173.837 227.320, 175.472 227.384 C 179.473 227.540, 180.967 230.755, 180.985 239.250 C 180.993 242.963, 181.338 246.001, 181.750 246.001 C 182.162 246.002, 182.483 250.390, 182.463 255.751 L 182.426 265.500 178.979 265.155 C 177.083 264.965, 174.310 264.177, 172.816 263.405 C 169.098 261.482, 168 261.638, 168 264.090 C 168 266.696, 172.880 272, 175.279 272 C 178.210 272, 184.240 274.897, 185.727 277.020 C 186.489 278.109, 187.719 279, 188.459 279 C 190.425 279, 191.273 268.987, 190.067 260 C 189.514 255.875, 189.073 247.325, 189.086 241 C 189.110 229.715, 189.161 229.460, 191.805 227.383 C 193.972 225.681, 196.275 225.181, 203.558 224.834 C 210.424 224.507, 213.668 223.854, 216.969 222.133 C 219.599 220.763, 222.218 220.089, 223.584 220.432 C 225.486 220.909, 226.031 220.436, 227.014 217.458 C 228.713 212.308, 227.871 210.995, 223.302 211.675 C 221.211 211.986, 218.588 212.805, 217.474 213.496 C 215.918 214.461, 201.096 216.033, 189.500 216.463 C 187.549 216.535, 185.136 174.126, 186.738 167.914 C 187.725 164.085, 190.341 163.107, 194.845 164.883 C 196.327 165.467, 208.764 166.127, 223 166.377 C 246.855 166.796, 248.702 166.701, 251.636 164.901 C 258.226 160.859, 257.159 150, 250.171 150 C 248.977 150, 248 150.450, 248 151 C 248 151.550, 246.853 152, 245.450 152 C 244.048 152, 241.569 152.689, 239.941 153.530 C 237.825 154.625, 236.454 154.778, 235.129 154.069 C 233.997 153.463, 231.264 153.395, 228.107 153.894 C 225.265 154.343, 221.769 154.487, 220.338 154.214 C 218.582 153.878, 217.440 154.250, 216.819 155.358 C 215.638 157.468, 210.632 157.490, 208.536 155.393 C 207.199 154.056, 206.449 153.986, 204.067 154.972 C 201.730 155.940, 200.645 155.868, 198.152 154.579 C 196.473 153.710, 193.529 153, 191.609 153 C 189.689 153, 187.826 152.528, 187.470 151.951 C 186.825 150.908, 185.977 133.399, 185.462 110.500 C 185.265 101.744, 184.686 97.148, 183.318 93.500 L 181.444 88.500 174.472 88.298 C 170.637 88.186, 165.475 88.672, 163 89.377 M 136.345 163.250 C 136.090 163.662, 134.093 164, 131.906 164 C 129.719 164, 126.933 164.632, 125.715 165.404 C 124.497 166.176, 121.590 167.115, 119.255 167.491 C 114.454 168.264, 114.005 168.746, 112.809 174.423 C 111.568 180.312, 110.817 217.229, 111.904 218.910 C 112.972 220.562, 126.658 221.028, 139.500 219.849 C 143.900 219.445, 154.025 218.812, 162 218.443 C 169.975 218.074, 177.343 217.328, 178.373 216.785 C 180.140 215.854, 180.204 214.821, 179.486 198.649 C 179.067 189.217, 178.796 178.076, 178.883 173.890 C 178.992 168.689, 178.630 165.938, 177.739 165.198 C 175.614 163.435, 137.342 161.634, 136.345 163.250 M 126.241 181.777 C 124.449 183.275, 122.986 184.974, 122.991 185.554 C 123.008 187.565, 129.526 192.751, 134.236 194.501 C 136.841 195.469, 139.483 196.877, 140.108 197.630 C 140.733 198.384, 141.795 199, 142.467 199 C 143.140 199, 144.416 199.802, 145.304 200.783 C 148.363 204.163, 161.761 210.323, 166.252 210.414 C 170.610 210.502, 172.198 208.530, 169 207.001 C 168.175 206.607, 166.081 205.545, 164.346 204.642 C 162.611 203.739, 160.318 203, 159.251 203 C 156.747 203, 154 199.950, 154 197.171 C 154 195.977, 153.394 195, 152.653 195 C 151.912 195, 150.245 194.080, 148.948 192.955 C 147.651 191.830, 145.107 189.993, 143.295 188.873 C 141.483 187.753, 140 186.424, 140 185.918 C 140 185.413, 139.502 185, 138.894 185 C 138.286 185, 136.083 183.650, 134 182 C 131.917 180.350, 130.052 179.012, 129.856 179.027 C 129.660 179.042, 128.033 180.279, 126.241 181.777 M 174.250 222.662 C 172.290 223.453, 172.787 225, 175 225 C 176.111 225, 177 224.333, 177 223.500 C 177 221.959, 176.426 221.784, 174.250 222.662" stroke="none" fill="black" fill-rule="evenodd"/>
</svg>