<svg xmlns="http://www.w3.org/2000/svg" width="300" height="300" viewBox="0 0 300 300" version="1.1">
	<path d="M 227.769 27.194 C 227.480 28.059, 221.476 28.453, 205.935 28.625 C 142.186 29.332, 116.310 30.378, 87 33.433 C 72.668 34.927, 72.394 34.945, 64.230 34.984 C 61.331 34.997, 58.068 35.565, 56.980 36.245 C 54.946 37.515, 54.278 41.436, 55.923 42.452 C 56.431 42.766, 57.142 44.368, 57.503 46.011 C 58.025 48.392, 58.686 49, 60.751 49 C 62.176 49, 64.151 48.269, 65.138 47.375 C 66.690 45.971, 68.128 45.879, 75.717 46.702 C 80.581 47.229, 86.062 47.284, 88 46.826 C 89.925 46.370, 96.948 46.064, 103.607 46.146 C 110.266 46.228, 116.284 45.942, 116.980 45.512 C 117.677 45.082, 121.749 44.596, 126.030 44.432 C 130.311 44.268, 134.722 43.566, 135.833 42.872 C 137.416 41.883, 138.417 41.869, 140.473 42.806 C 144.614 44.692, 151.819 44.275, 155.616 41.928 C 157.460 40.789, 159.988 40.001, 161.234 40.178 C 163.134 40.448, 163.696 41.469, 164.714 46.500 C 165.533 50.549, 165.616 53.475, 164.972 55.500 C 163.485 60.167, 164.362 127.695, 165.963 131.831 C 166.935 134.342, 166.976 135.695, 166.133 137.331 C 165.004 139.518, 165.132 170.787, 166.277 172.639 C 166.579 173.128, 166.977 183.196, 167.163 195.014 L 167.500 216.500 161 216.765 C 157.425 216.911, 153.517 217.534, 152.316 218.149 C 151.114 218.764, 149.191 219.022, 148.042 218.721 C 146.080 218.208, 133.291 220.076, 130 221.356 C 129.175 221.677, 124.054 222.147, 118.619 222.400 C 113.185 222.654, 108.258 223.342, 107.669 223.931 C 106.063 225.537, 89.507 225.315, 88.140 223.669 C 87.333 222.696, 87.340 220.877, 88.168 216.919 C 89.044 212.724, 88.931 204.671, 87.666 181.266 C 86.166 153.504, 85.867 150.867, 84.016 149.016 C 81.786 146.786, 81.410 144.483, 83.106 143.435 C 84.072 142.838, 83.868 136.410, 82.553 126 C 82.245 123.560, 80.101 118.959, 78.551 117.408 C 77.295 116.153, 76.831 116.259, 74.959 118.233 C 70.611 122.815, 70.114 129.192, 73.680 134.634 C 74.600 136.038, 75.339 139.882, 75.527 144.237 C 75.700 148.232, 76.410 156.450, 77.106 162.500 C 78.592 175.414, 78.498 221.200, 76.980 224.037 C 76.101 225.680, 74.663 225.918, 65.239 225.985 C 53.665 226.067, 41.847 226.823, 35.750 227.871 C 34.055 228.163, 35.170 231.988, 37.480 233.805 C 39.362 235.286, 40.747 235.586, 43.230 235.053 C 46.572 234.334, 50.222 235.326, 53.132 237.742 C 54.966 239.264, 60.707 240.049, 69.246 239.946 C 76.215 239.862, 77.375 240.422, 75.730 243.077 C 74.167 245.599, 76.289 247.306, 80 246.512 C 81.375 246.218, 86.775 245.542, 92 245.009 C 101.904 244.001, 108.775 242.391, 115.426 239.520 C 118.124 238.356, 120.643 238.019, 123.475 238.444 C 127.164 238.997, 138.588 236.932, 141.478 235.190 C 142.791 234.398, 148.964 233.982, 164.251 233.653 C 174.867 233.424, 177.212 233.094, 178.251 231.684 C 179.408 230.116, 180.083 230.103, 187.385 231.504 C 195.217 233.008, 195.305 233.001, 200.573 230.509 C 205.874 228.001, 205.890 228, 236.373 228 C 255.480 228, 267.921 227.603, 269.685 226.937 C 273.362 225.548, 276.927 221.151, 276.931 218 C 276.934 214.753, 273.767 211, 271.024 211 C 269.838 211, 268.001 210.536, 266.940 209.968 C 265.284 209.082, 265.047 209.251, 265.256 211.174 C 265.604 214.362, 261.192 215.123, 239.500 215.616 C 229.600 215.841, 220.150 216.463, 218.500 216.998 C 215.635 217.926, 212.742 217.870, 189.250 216.434 L 179 215.808 179 208.298 C 179 204.168, 178.297 198.077, 177.438 194.762 C 176.256 190.198, 176.028 186.157, 176.501 178.117 C 176.844 172.278, 177.266 162.100, 177.439 155.500 C 177.611 148.900, 177.807 143.050, 177.874 142.500 C 178.015 141.341, 193 141.743, 193 142.906 C 193 143.317, 194.279 143.466, 195.843 143.236 C 197.406 143.007, 200.311 143.268, 202.297 143.816 C 205.488 144.697, 206.212 144.533, 208.509 142.404 C 210.651 140.419, 211.779 140.101, 214.902 140.600 C 217.913 141.082, 219.964 140.577, 224.848 138.154 C 228.231 136.475, 231 135.305, 231 135.553 C 231 135.801, 232.681 135.103, 234.735 134.002 C 236.790 132.901, 239.199 132, 240.089 132 C 242.244 132, 247 127.514, 247 125.482 C 247 123.517, 245.103 119.769, 243.600 118.765 C 241.567 117.407, 238.016 117.984, 236 120 C 234.900 121.100, 232.912 122, 231.583 122 C 230.254 122, 226.991 122.954, 224.333 124.121 C 218.756 126.568, 207.529 129.181, 201 129.552 C 198.525 129.692, 194.123 130.376, 191.218 131.071 C 187.191 132.035, 185.658 132.058, 184.768 131.168 C 182.900 129.300, 179.559 129.816, 178.487 132.137 C 176.428 136.593, 175.712 133.003, 175.607 117.714 C 175.524 105.383, 175.195 101.739, 174.106 101.066 C 172.958 100.356, 172.833 97.208, 173.398 83.224 C 174.005 68.192, 173.883 65.822, 172.329 62.563 C 170.927 59.624, 170.834 58.721, 171.866 58.083 C 172.694 57.571, 173.302 54.312, 173.561 48.993 C 173.783 44.433, 174.234 40.432, 174.564 40.102 C 174.894 39.773, 178.614 39.397, 182.832 39.268 C 187.049 39.138, 192.750 38.858, 195.500 38.645 C 198.250 38.432, 208.067 38.157, 217.315 38.034 C 233.912 37.813, 234.143 37.779, 235.204 35.452 C 236.117 33.447, 235.845 32.572, 233.389 29.619 C 230.377 25.996, 228.446 25.163, 227.769 27.194 M 229.625 113.798 C 228.744 115.223, 230.754 117.308, 232.399 116.677 C 234.659 115.810, 234.399 113, 232.059 113 C 230.991 113, 229.896 113.359, 229.625 113.798 M 97.178 130.086 C 96.530 131.124, 96 133.273, 96 134.861 C 96 136.450, 95.719 139.156, 95.375 140.875 C 94.804 143.730, 94.415 144, 90.875 144 C 88.097 144, 87 144.425, 87 145.500 C 87 146.558, 88.178 147.044, 91 147.150 C 93.200 147.233, 95.516 147.345, 96.148 147.400 C 97.633 147.529, 100.935 137.573, 100.972 132.857 C 101.004 128.706, 98.969 127.219, 97.178 130.086 M 104.607 136.582 C 103.687 138.978, 103.881 144, 104.893 144 C 106.111 144, 107 141.433, 107 137.918 C 107 134.780, 105.599 133.998, 104.607 136.582 M 170 150.622 C 170 152.850, 170.228 153.056, 171.512 151.990 C 172.663 151.035, 172.753 150.407, 171.890 149.367 C 170.293 147.443, 170 147.637, 170 150.622 M 171.500 172 C 171.160 172.550, 171.359 173, 171.941 173 C 172.523 173, 173 172.550, 173 172 C 173 171.450, 172.802 171, 172.559 171 C 172.316 171, 171.840 171.450, 171.500 172 M 280.965 215.542 C 280.041 216.656, 279.988 217.388, 280.775 218.175 C 282.351 219.751, 285 218.407, 285 216.031 C 285 213.629, 282.776 213.360, 280.965 215.542" stroke="none" fill="black" fill-rule="evenodd"/>
</svg>