<svg xmlns="http://www.w3.org/2000/svg" width="300" height="300" viewBox="0 0 300 300" version="1.1">
	<path d="M 157.725 40.001 C 155.699 41.595, 154.942 43.479, 154.009 49.251 C 153.364 53.238, 152.368 57.370, 151.796 58.433 C 150.197 61.402, 146.921 78.114, 147.483 80.438 C 147.757 81.572, 147.714 81.910, 147.387 81.189 C 146.611 79.477, 143 82.558, 143 84.932 C 143 85.825, 142.403 87.443, 141.673 88.527 C 140.944 89.612, 139.295 93.425, 138.011 97 C 136.726 100.575, 135.247 104.057, 134.725 104.737 C 134.204 105.417, 134.054 107.077, 134.392 108.426 C 135.051 111.049, 133.275 113.063, 132.050 111.081 C 131.048 109.460, 129.858 111.138, 126.973 118.240 C 125.690 121.396, 123.934 124.185, 123.070 124.437 C 119.847 125.375, 96.457 124.365, 94.316 123.194 C 93.114 122.537, 90.396 122, 88.276 122 C 86.155 122, 81.767 121.309, 78.524 120.464 C 75.282 119.620, 72.037 119.156, 71.314 119.433 C 69.298 120.206, 69.723 124.115, 71.884 124.680 C 73.153 125.012, 73.606 125.791, 73.272 127.068 C 72.588 129.685, 77.483 131.615, 80.589 129.952 C 82.304 129.034, 83.249 129.107, 85.127 130.303 C 87.398 131.747, 101.918 133.362, 113.500 133.458 L 118.500 133.500 118.210 137.947 C 117.824 143.852, 113.820 151.956, 106.259 162.136 C 104.476 164.536, 102.320 167.850, 101.467 169.500 C 96.991 178.161, 94.384 182.420, 93.366 182.737 C 92.064 183.142, 91.305 182.443, 84.582 174.650 C 76.601 165.398, 67.141 157.595, 63.597 157.337 C 61.894 157.213, 59.600 156.974, 58.500 156.806 C 57.065 156.586, 56.500 157.065, 56.500 158.500 C 56.500 160.054, 57.167 160.500, 59.492 160.500 C 61.922 160.500, 62.678 161.064, 63.514 163.500 C 65.258 168.587, 66.999 171.029, 70.314 173.040 C 75.288 176.057, 87 188.184, 87 190.317 C 87 191.372, 85.649 193.774, 83.998 195.655 C 82.347 197.535, 79.813 201.420, 78.368 204.287 C 76.922 207.154, 73.211 212.944, 70.120 217.153 C 67.029 221.363, 62.925 227.369, 61 230.501 C 59.075 233.632, 57.041 236.939, 56.480 237.847 C 55.918 238.756, 54.128 241.525, 52.500 244 C 50.872 246.475, 49.082 249.245, 48.520 250.155 C 47.959 251.065, 44.800 255.790, 41.500 260.655 C 38.201 265.520, 34.898 270.704, 34.162 272.176 C 33.425 273.647, 31.103 276.043, 29.001 277.499 C 23.450 281.346, 22.433 288.267, 27.662 286.607 C 30.359 285.751, 33.155 282.713, 41.279 271.806 C 54.325 254.292, 54.897 253.470, 68.217 233.123 C 69.162 231.681, 71.412 228.859, 73.217 226.853 C 75.023 224.847, 77.148 222.412, 77.940 221.442 C 79.780 219.187, 82.999 212.894, 83.004 211.539 C 83.007 210.967, 84.694 208.250, 86.754 205.500 C 88.814 202.750, 91.170 199.204, 91.989 197.620 C 92.807 196.036, 94.945 194.040, 96.739 193.185 C 99.308 191.960, 100 191.017, 100 188.744 C 100 186.893, 101.360 184.181, 103.793 181.179 C 105.879 178.606, 108.671 174.475, 109.997 172 C 111.323 169.525, 113.680 166.102, 115.234 164.394 C 116.788 162.685, 119.959 158.561, 122.280 155.229 C 128.491 146.311, 135.060 137.781, 137.502 135.461 C 139.165 133.881, 139.549 132.576, 139.209 129.663 C 138.835 126.463, 138.341 125.818, 135.885 125.327 C 134.298 125.010, 133 124.451, 133 124.086 C 133 122.973, 136.815 115.865, 138.343 114.131 C 141.494 110.554, 148 97.075, 148 94.122 C 148 92.405, 148.384 91, 148.854 91 C 150.221 91, 157.722 73.146, 159.518 65.615 C 161.112 58.935, 162.788 54.333, 165.627 48.846 C 167.658 44.920, 167.331 41.345, 164.777 39.557 C 161.875 37.523, 160.788 37.592, 157.725 40.001 M 157.158 51 C 157.158 52.375, 157.385 52.938, 157.662 52.250 C 157.940 51.563, 157.940 50.438, 157.662 49.750 C 157.385 49.063, 157.158 49.625, 157.158 51 M 154.459 57.067 C 154.096 57.653, 154.040 58.373, 154.333 58.667 C 155.050 59.383, 157 58.121, 157 56.941 C 157 55.663, 155.274 55.748, 154.459 57.067 M 36.315 64.967 C 32.065 66.757, 30.991 72.789, 34.857 73.156 C 35.761 73.242, 37.625 73.501, 39 73.731 C 40.375 73.961, 46.812 74.368, 53.305 74.636 C 65.990 75.159, 67.269 75.770, 64.902 80.172 C 64.214 81.452, 63.310 86.881, 62.892 92.235 C 62.414 98.371, 61.555 102.798, 60.567 104.208 C 59.705 105.438, 59 107.193, 59 108.108 C 59 109.023, 58.368 110.990, 57.595 112.480 C 56.822 113.970, 55.433 118.634, 54.508 122.845 C 53.583 127.055, 51.992 132.525, 50.972 135 C 49.951 137.475, 48.605 141.188, 47.981 143.250 C 47.356 145.313, 46.430 147, 45.922 147 C 45.415 147, 45 147.481, 45 148.070 C 45 148.658, 43.739 151.021, 42.198 153.320 C 38.926 158.201, 33.786 168.778, 31.905 174.500 C 31.182 176.700, 29.895 179.400, 29.045 180.500 C 25.168 185.519, 22.240 195.856, 23.653 199.539 C 25.235 203.660, 30.326 198.882, 29.383 194.163 C 28.972 192.112, 29.145 191, 29.875 191 C 30.494 191, 31 190.363, 31 189.583 C 31 188.804, 31.403 188.017, 31.894 187.833 C 33.008 187.418, 36.122 182.205, 39.558 175 C 41.001 171.975, 42.810 168.375, 43.577 167 C 44.345 165.625, 45.935 162.475, 47.110 160 C 48.285 157.525, 49.814 154.825, 50.509 154 C 54.168 149.650, 63 128.251, 63 123.733 C 63 123.221, 63.635 121.384, 64.412 119.651 C 66.701 114.543, 69.693 104.942, 71.004 98.500 C 72.426 91.514, 76.850 81.480, 79.931 78.250 C 81.993 76.089, 82.752 76, 99.039 76 C 116.710 76, 117.842 75.698, 114.750 71.810 C 113.886 70.724, 110.875 70.022, 105 69.536 C 100.325 69.149, 94.925 68.634, 93 68.391 C 91.075 68.147, 83.875 67.759, 77 67.528 C 65.812 67.152, 49.727 65.786, 41.500 64.512 C 39.850 64.256, 37.517 64.461, 36.315 64.967 M 153.158 67 C 153.158 68.375, 153.385 68.938, 153.662 68.250 C 153.940 67.563, 153.940 66.438, 153.662 65.750 C 153.385 65.063, 153.158 65.625, 153.158 67 M 59.680 70.070 C 61.134 71.536, 67.813 71.873, 68.211 70.500 C 68.370 69.950, 66.250 69.361, 63.500 69.190 C 59.640 68.951, 58.769 69.151, 59.680 70.070 M 159.250 73.672 C 157.766 74.259, 157.560 77, 159 77 C 159.550 77, 160 78.070, 160 79.378 C 160 83.085, 161.817 83.827, 172.725 84.578 C 183.325 85.308, 185.041 86.187, 183.068 89.873 C 182.559 90.824, 182.122 94.054, 182.097 97.051 C 182.065 100.760, 180.799 106.013, 178.131 113.500 C 172.314 129.824, 169.976 136.162, 168.541 139.500 C 167.832 141.150, 166.441 145.425, 165.450 149 C 164.459 152.575, 162.241 158.425, 160.522 162 C 158.803 165.575, 156.324 171.200, 155.014 174.500 C 153.703 177.800, 151.589 181.892, 150.315 183.594 C 149.042 185.296, 148 187.146, 148 187.705 C 148 188.264, 146.921 190.310, 145.603 192.253 C 144.285 194.196, 142.920 197.087, 142.571 198.678 C 141.782 202.270, 133.791 218.179, 130.982 221.750 C 129.798 223.255, 129.033 225.489, 129.202 226.945 C 129.457 229.129, 129.935 229.458, 132.500 229.210 C 135.872 228.884, 139 225.791, 139 222.784 C 139 221.686, 140.132 219.374, 141.515 217.644 C 145.114 213.145, 145.265 212.920, 147.750 208.358 C 148.988 206.086, 150 203.366, 150 202.314 C 150 201.261, 150.378 199.973, 150.840 199.450 C 151.302 198.928, 152.301 196.925, 153.060 195 C 153.819 193.075, 155.708 190.339, 157.258 188.919 C 158.895 187.420, 161.048 183.553, 162.398 179.690 C 163.676 176.032, 165.179 172.469, 165.738 171.770 C 166.298 171.072, 167.096 169.375, 167.512 168 C 167.929 166.625, 168.884 164.612, 169.635 163.527 C 170.386 162.443, 171.014 160.643, 171.032 159.527 C 171.049 158.412, 171.724 156.626, 172.532 155.559 C 173.339 154.491, 174 152.984, 174 152.210 C 174 151.436, 174.596 149.384, 175.325 147.651 C 177.275 143.013, 180.008 135.006, 181.031 130.935 C 181.524 128.973, 182.616 126.048, 183.457 124.435 C 184.299 122.821, 184.990 120.802, 184.994 119.950 C 184.997 119.097, 185.385 117.972, 185.856 117.450 C 187.200 115.958, 191.998 99.524, 192.015 96.354 C 192.023 94.784, 192.664 91.700, 193.439 89.500 C 194.597 86.212, 195.262 85.551, 197.174 85.788 C 198.453 85.946, 207.600 86.456, 217.500 86.922 C 227.400 87.387, 236.850 88.188, 238.500 88.702 L 241.500 89.637 242.118 101.068 C 242.459 107.356, 242.848 114.525, 242.984 117 C 243.121 119.475, 243.438 120.713, 243.689 119.750 C 244.386 117.086, 247 117.613, 247 120.418 C 247 125.342, 244.071 128.528, 243.937 123.750 C 243.877 121.629, 243.830 121.615, 243.122 123.500 C 242.709 124.600, 242.440 131.125, 242.525 138 C 242.610 144.875, 242.751 157.618, 242.840 166.317 C 242.995 181.645, 243.062 182.115, 245 181.500 C 246.307 181.085, 247.005 181.322, 247.014 182.183 C 247.021 182.907, 247.299 184.512, 247.630 185.750 C 247.962 186.988, 247.783 188, 247.233 188 C 246.683 188, 245.971 186.995, 245.649 185.767 C 245.273 184.328, 244.728 183.884, 244.115 184.517 C 243.516 185.137, 243.514 188.821, 244.110 194.500 C 244.630 199.450, 245.230 208.225, 245.442 214 C 246.236 235.541, 246.480 238.062, 247.857 238.912 C 248.891 239.551, 248.926 239.927, 248.007 240.496 C 247.150 241.025, 247.010 242.876, 247.523 246.871 C 247.920 249.967, 248.176 255.127, 248.090 258.338 C 248.004 261.549, 248.493 265.722, 249.177 267.613 C 250.176 270.376, 250.166 271.682, 249.126 274.275 C 247.872 277.401, 247.577 279.146, 247.863 281.750 C 247.952 282.560, 249.714 283, 252.872 283 L 257.744 283 258.412 278.828 C 259.091 274.576, 257.627 254.549, 255.974 245.500 C 255.472 242.750, 254.833 229.250, 254.554 215.500 C 254.275 201.750, 253.561 188.025, 252.967 185 C 252.288 181.539, 251.980 166.522, 252.137 144.500 C 252.499 93.544, 252.494 92.942, 251.642 87.697 C 251.058 84.104, 250.312 82.680, 248.681 82.045 C 243.221 79.921, 222.323 77.787, 198.500 76.922 C 184.200 76.403, 170.475 75.485, 168 74.882 C 161.169 73.218, 160.597 73.139, 159.250 73.672 M 178.939 79.038 C 177.805 79.739, 177.855 80.007, 179.220 80.531 C 180.135 80.882, 181.600 81.019, 182.475 80.835 C 183.836 80.549, 183.795 80.332, 182.194 79.342 C 181.085 78.656, 179.757 78.532, 178.939 79.038 M 164.500 80 C 164.840 80.550, 166.329 80.993, 167.809 80.985 C 169.914 80.973, 170.173 80.758, 169 80 C 167.024 78.723, 163.711 78.723, 164.500 80 M 204.502 79.997 C 203.577 81.494, 204.860 83, 207.059 83 C 209.555 83, 209.556 81.368, 207.061 80.032 C 205.771 79.342, 204.914 79.330, 204.502 79.997 M 197.500 81 C 197.840 81.550, 198.541 82, 199.059 82 C 199.577 82, 200 81.550, 200 81 C 200 80.450, 199.298 80, 198.441 80 C 197.584 80, 197.160 80.450, 197.500 81 M 230 82 C 230 82.550, 230.423 83, 230.941 83 C 231.459 83, 232.160 82.550, 232.500 82 C 232.840 81.450, 232.416 81, 231.559 81 C 230.702 81, 230 81.450, 230 82 M 216.142 92.613 C 214.427 93.814, 213.993 94.834, 214.439 96.613 C 214.871 98.334, 214.620 99, 213.538 99 C 211.663 99, 211.268 100.955, 210.559 113.741 C 210.247 119.373, 209.349 125.673, 208.563 127.741 C 207.778 129.808, 206.655 133.885, 206.068 136.800 C 205.480 139.715, 204.325 143.405, 203.500 145 C 202.675 146.596, 202 148.993, 202 150.328 C 202 151.663, 201.325 153.315, 200.500 154 C 199.675 154.685, 199 155.723, 199 156.307 C 199 156.891, 198.129 159.198, 197.065 161.434 C 196 163.670, 194.141 168.650, 192.933 172.500 C 191.726 176.350, 190.122 180.210, 189.369 181.079 C 188.616 181.947, 188 183.565, 188 184.673 C 188 185.782, 186.889 187.982, 185.531 189.562 C 184.173 191.142, 182.505 193.800, 181.823 195.468 C 181.142 197.135, 180.003 199.095, 179.292 199.821 C 178.582 200.548, 178 201.956, 178 202.949 C 178 203.942, 177.325 205.315, 176.500 206 C 175.675 206.685, 174.998 207.752, 174.996 208.372 C 174.992 209.373, 171.600 216.298, 165.138 228.500 C 158.829 240.411, 153.666 254.034, 154.962 255.349 C 156.751 257.165, 160.134 254.669, 162.652 249.676 C 164.088 246.829, 165.618 244.270, 166.052 243.990 C 166.486 243.709, 167.146 242.265, 167.519 240.781 C 167.891 239.297, 168.827 237.558, 169.598 236.919 C 170.369 236.279, 171 234.712, 171 233.437 C 171 232.161, 171.425 230.855, 171.944 230.534 C 172.464 230.214, 174.763 226.249, 177.053 221.725 C 179.344 217.201, 181.791 212.825, 182.491 212 C 183.191 211.175, 184.072 209.488, 184.449 208.250 C 184.826 207.012, 185.566 206, 186.092 206 C 186.619 206, 187.512 204.762, 188.077 203.250 C 190.137 197.732, 193.201 192, 194.089 192 C 194.590 192, 195 191.200, 195 190.223 C 195 189.245, 195.609 187.557, 196.353 186.473 C 197.098 185.388, 198.921 181.350, 200.406 177.500 C 201.891 173.650, 203.507 169.600, 203.998 168.500 C 205.181 165.850, 208.255 158.475, 210.251 153.500 C 211.133 151.300, 212.148 148.155, 212.507 146.510 C 212.865 144.866, 213.548 143.279, 214.024 142.985 C 214.500 142.691, 215.384 139.359, 215.987 135.580 C 216.591 131.802, 217.558 127.825, 218.137 126.744 C 218.716 125.662, 219.574 118.971, 220.045 111.873 C 220.516 104.776, 221.192 98.499, 221.547 97.924 C 222.240 96.802, 220.191 91, 219.101 91 C 218.740 91, 217.409 91.726, 216.142 92.613 M 245.580 92.870 C 245.273 93.367, 245.692 94.329, 246.511 95.009 C 247.722 96.014, 248 95.953, 248 94.681 C 248 92.815, 246.369 91.594, 245.580 92.870 M 212.232 113 C 212.232 114.925, 212.438 115.713, 212.689 114.750 C 212.941 113.787, 212.941 112.213, 212.689 111.250 C 212.438 110.287, 212.232 111.075, 212.232 113 M 80 126 C 80 126.550, 80.675 127, 81.500 127 C 82.325 127, 83 126.550, 83 126 C 83 125.450, 82.325 125, 81.500 125 C 80.675 125, 80 125.450, 80 126 M 87.813 125.683 C 88.534 125.972, 89.397 125.936, 89.729 125.604 C 90.061 125.272, 89.471 125.036, 88.417 125.079 C 87.252 125.127, 87.015 125.364, 87.813 125.683 M 98.247 127.250 C 98.532 128.108, 101.459 128.553, 107.581 128.669 C 114.098 128.793, 115.578 128.616, 113.077 128.010 C 111.194 127.555, 108.214 127.416, 106.454 127.701 C 104.631 127.997, 102.959 127.743, 102.568 127.110 C 101.614 125.566, 97.731 125.691, 98.247 127.250 M 40.506 158.994 C 38.849 160.825, 38.837 161, 40.376 161 C 41.304 161, 42.329 160.306, 42.655 159.457 C 43.586 157.030, 42.495 156.795, 40.506 158.994 M 155.025 181.445 C 152.509 186.968, 152.459 187.967, 154.851 184.885 C 156.461 182.812, 158.329 177, 157.386 177 C 157.201 177, 156.139 179, 155.025 181.445 M 87 196.059 C 87 196.641, 87.450 196.840, 88 196.500 C 88.550 196.160, 89 195.684, 89 195.441 C 89 195.198, 88.550 195, 88 195 C 87.450 195, 87 195.477, 87 196.059 M 143 204.500 C 143 205.325, 143.177 206, 143.393 206 C 143.609 206, 144.045 205.325, 144.362 204.500 C 144.678 203.675, 144.501 203, 143.969 203 C 143.436 203, 143 203.675, 143 204.500 M 75.035 214.934 C 73.532 217.742, 73.749 218.205, 76 217 C 77.100 216.411, 78 215.270, 78 214.465 C 78 212.377, 76.256 212.653, 75.035 214.934 M 248 224.500 C 248 225.325, 248.450 226, 249 226 C 249.550 226, 250 225.325, 250 224.500 C 250 223.675, 249.550 223, 249 223 C 248.450 223, 248 223.675, 248 224.500 M 206.371 261.475 C 205.168 264.610, 215.066 277.854, 220.561 280.462 C 225.895 282.993, 237.559 284.425, 241.054 282.978 C 244.109 281.712, 245.519 279.439, 243.877 278.424 C 243.307 278.072, 239.956 278.093, 236.429 278.471 C 230.827 279.071, 229.681 278.894, 227.373 277.079 C 225.920 275.935, 223.985 275, 223.073 275 C 221.118 275, 214.061 267.884, 211.421 263.250 C 209.453 259.798, 207.305 259.042, 206.371 261.475 M 251 270.059 C 251 270.641, 251.450 270.840, 252 270.500 C 252.550 270.160, 253 269.684, 253 269.441 C 253 269.198, 252.550 269, 252 269 C 251.450 269, 251 269.477, 251 270.059" stroke="none" fill="black" fill-rule="evenodd"/>
</svg>