<svg xmlns="http://www.w3.org/2000/svg" width="300" height="300" viewBox="0 0 300 300" version="1.1">
	<path d="M 192.174 17.314 C 190.978 18.587, 190 20.366, 190 21.267 C 190 22.169, 189.527 23.944, 188.949 25.214 C 188.255 26.736, 188.204 29.476, 188.798 33.264 C 189.322 36.609, 189.335 43.341, 188.829 49.385 C 187.919 60.242, 188.631 64.537, 191.522 65.647 C 194.905 66.945, 196.673 63.387, 197.345 53.927 C 197.697 48.960, 198.439 44.049, 198.993 43.013 C 200.318 40.538, 200.295 19.420, 198.965 16.934 C 197.576 14.339, 194.824 14.494, 192.174 17.314 M 166.543 21.366 C 162.840 25.069, 162.432 31.964, 164.576 54.614 C 165.414 63.474, 163.430 65.472, 160.219 59 C 159.537 57.625, 158.105 55.150, 157.036 53.500 C 155.968 51.850, 153.876 48.362, 152.388 45.750 C 149.412 40.525, 148 40, 145 43 C 141.833 46.167, 142.389 51.086, 146.489 56.172 C 148.408 58.553, 152.020 63.195, 154.517 66.489 C 160.209 73.998, 164.136 76.267, 168.365 74.489 C 170.222 73.708, 171.413 72.436, 171.509 71.130 C 171.594 69.975, 172.309 68.235, 173.099 67.265 C 174.241 65.861, 174.531 61.410, 174.517 45.500 C 174.502 28.250, 174.256 25.053, 172.724 22.250 C 170.607 18.375, 169.668 18.241, 166.543 21.366 M 219.728 26.073 C 217.678 27.763, 216 29.539, 216 30.020 C 216 30.501, 214.455 34.180, 212.567 38.197 C 210.678 42.214, 207.709 48.875, 205.968 53 C 204.227 57.125, 201.467 62.198, 199.835 64.274 C 196.633 68.346, 196.351 72.261, 199.220 72.807 C 200.166 72.988, 201.687 72.542, 202.600 71.818 C 206.037 69.090, 210.740 63.851, 212.095 61.241 C 212.868 59.753, 214.963 56.287, 216.750 53.540 C 218.537 50.793, 220 47.838, 220 46.973 C 220 46.108, 220.409 44.973, 220.908 44.450 C 221.407 43.928, 222.982 41.388, 224.408 38.808 C 227.205 33.744, 227.913 26.313, 225.800 24.200 C 224.141 22.541, 223.936 22.604, 219.728 26.073 M 71.500 46.765 C 67.475 49.722, 67.019 51.558, 65.971 69.012 C 65.397 78.566, 64.480 86.921, 63.934 87.580 C 62.389 89.441, 54.798 91.004, 44.914 91.495 C 39.957 91.742, 35.432 92.233, 34.860 92.587 C 34.288 92.940, 31.885 93.307, 29.520 93.401 C 23.338 93.647, 21.844 95.262, 22.203 101.308 C 22.593 107.859, 24.133 108.848, 31.187 107.076 C 34.109 106.343, 36.976 105.367, 37.557 104.909 C 38.139 104.450, 41.144 103.416, 44.236 102.611 C 47.328 101.805, 50.677 100.733, 51.679 100.229 C 52.680 99.724, 55.470 99.518, 57.877 99.772 L 62.255 100.234 61.581 107.673 C 61.210 111.764, 60.381 116.324, 59.739 117.806 C 58.376 120.949, 50.143 133.890, 48.277 135.821 C 47.575 136.548, 46.991 137.448, 46.981 137.821 C 46.970 138.195, 45.426 140.260, 43.549 142.410 C 41.672 144.561, 39.851 147.459, 39.501 148.851 C 39.152 150.242, 37.608 152.983, 36.070 154.941 C 34.532 156.898, 32.583 159.851, 31.739 161.502 C 30.895 163.154, 29.259 165.361, 28.102 166.407 C 26.946 167.454, 26 168.892, 26 169.603 C 26 170.314, 23.831 173.507, 21.180 176.698 C 13.956 185.393, 12.692 187.637, 13.409 190.493 C 13.755 191.872, 14.683 193, 15.472 193 C 18.078 193, 21.952 190.727, 22.548 188.848 C 22.871 187.832, 23.506 187, 23.959 187 C 24.412 187, 25.042 185.970, 25.358 184.711 C 25.674 183.453, 28.310 179.789, 31.216 176.571 C 37.289 169.845, 39.984 166.050, 39.993 164.211 C 39.997 163.503, 41.847 161.028, 44.104 158.711 C 46.361 156.395, 49.268 152.850, 50.563 150.834 C 51.859 148.818, 53.387 146.879, 53.959 146.525 C 54.532 146.171, 55 144.334, 55 142.441 C 55 140.185, 55.474 139, 56.378 139 C 59.411 139, 60.011 141.580, 59.427 152.105 C 59.110 157.822, 58.866 178.250, 58.886 197.500 C 58.905 216.750, 58.469 235.973, 57.917 240.218 C 56.897 248.062, 51.900 265.211, 49.949 267.561 C 49.360 268.271, 49.018 270.798, 49.189 273.176 C 49.467 277.039, 49.767 277.500, 52 277.500 C 54.035 277.500, 55.005 276.477, 57.212 272 C 61.066 264.186, 63.871 255.880, 66.164 245.500 C 67.941 237.455, 68.122 233.424, 67.865 207.500 C 67.707 191.550, 68.149 166.637, 68.847 152.137 C 70.057 127.021, 70.233 125.591, 72.559 121.907 C 73.901 119.780, 75 117.125, 75 116.006 C 75 114.888, 75.535 113.117, 76.188 112.071 C 77.115 110.586, 77.081 109.275, 76.031 106.094 C 73.906 99.655, 75.381 97.537, 82.100 97.375 C 91.170 97.156, 99.909 95.814, 101.026 94.468 C 101.609 93.766, 101.807 92.078, 101.465 90.717 C 100.714 87.723, 96.966 87.025, 86.618 87.951 C 82.833 88.290, 78.258 88.395, 76.451 88.184 L 73.165 87.800 73.648 82.150 C 73.913 79.043, 74.534 74.475, 75.027 72 C 75.520 69.525, 76.223 63.062, 76.589 57.638 C 77.118 49.801, 76.972 47.596, 75.877 46.903 C 74.195 45.838, 72.822 45.794, 71.500 46.765 M 217.058 73.738 C 215.165 73.967, 212.774 74.746, 211.743 75.467 C 210.713 76.189, 209.055 76.566, 208.059 76.305 C 205.727 75.695, 185.076 77.749, 181.347 78.962 C 178.989 79.729, 159.711 80.863, 140.163 81.384 C 135.083 81.520, 131.710 84.710, 132.200 88.915 C 132.659 92.852, 136.342 94.153, 142.500 92.553 C 145.250 91.839, 150.377 91.309, 153.894 91.377 L 160.288 91.500 160.672 103 C 161.018 113.387, 161.266 114.660, 163.228 116.156 C 165.075 117.563, 165.203 118.051, 164.078 119.406 C 163.323 120.316, 161.234 121, 159.209 121 C 153.116 121, 143.593 123.065, 141.397 124.862 C 138.421 127.297, 136.784 130.743, 137.512 133.038 C 138.019 134.634, 139.044 135, 143.008 135 C 145.689 135, 148.142 134.580, 148.459 134.066 C 149.570 132.268, 159.831 129.949, 163.839 130.590 C 166.320 130.987, 168.006 130.799, 168.452 130.077 C 168.885 129.377, 170.430 129.178, 172.463 129.559 C 174.434 129.929, 176.043 129.739, 176.444 129.090 C 177.440 127.479, 180.973 127.767, 181.643 129.513 C 181.963 130.345, 181.758 131.587, 181.189 132.273 C 180.619 132.959, 179.830 136.377, 179.435 139.870 C 178.769 145.760, 178.491 146.313, 175.608 147.500 C 173.627 148.315, 168.399 148.729, 161.189 148.640 C 150.888 148.512, 149.702 148.688, 147.904 150.602 C 146.318 152.290, 146.058 153.509, 146.582 156.790 C 146.942 159.038, 147.842 161.109, 148.583 161.393 C 149.324 161.678, 152.983 161.228, 156.715 160.393 C 164.117 158.738, 176.989 157.744, 177.019 158.825 C 177.029 159.196, 177.181 162.920, 177.356 167.100 L 177.674 174.701 157.587 175.365 C 131.760 176.218, 121.477 177.733, 118.919 181.062 C 116.625 184.046, 116.448 189.306, 118.571 191.429 C 120.315 193.172, 127.519 193.587, 128.500 192 C 128.840 191.450, 129.959 191, 130.988 191 C 132.016 191, 133.565 190.292, 134.430 189.427 C 136.764 187.094, 139.558 188.027, 139.231 191.031 C 137.782 204.324, 137.224 231.242, 138.217 240 L 138.500 242.500 127.826 242.331 C 116.164 242.146, 116.630 241.914, 115.001 248.700 C 114.068 252.589, 116.590 255.582, 119.911 254.528 C 122.433 253.728, 138.161 251.994, 147.062 251.536 C 150.670 251.350, 155.395 250.706, 157.562 250.105 C 159.728 249.503, 162.872 249.009, 164.550 249.006 C 166.227 249.003, 168.110 248.490, 168.733 247.867 C 169.356 247.244, 170.571 247.005, 171.433 247.336 C 172.657 247.805, 173.001 249.532, 173.004 255.219 C 173.008 263.313, 175.426 269, 178.863 269 C 182.600 269, 183.184 266.824, 181.946 257.519 C 181.312 252.756, 181.045 247.654, 181.353 246.180 C 181.660 244.706, 181.427 232.759, 180.835 219.632 C 179.972 200.507, 180.015 194.942, 181.053 191.632 C 183.121 185.034, 182.097 185.454, 198 184.678 C 208.330 184.174, 221.032 182.255, 226.192 180.420 C 231.833 178.413, 246.921 177.002, 249.376 178.251 C 252.480 179.830, 255.791 177.630, 256.571 173.471 C 256.996 171.210, 256.821 169.421, 256.107 168.707 C 254.217 166.817, 242.140 166.712, 234.500 168.518 C 230.650 169.428, 224.800 170.627, 221.500 171.183 C 218.200 171.740, 214.825 172.514, 214 172.905 C 213.175 173.296, 208 173.735, 202.500 173.881 C 197 174.027, 191.375 174.226, 190 174.323 C 187.681 174.487, 187.477 174.137, 187.179 169.500 C 186.726 162.436, 188.591 157.383, 192.139 156.064 C 193.713 155.479, 196.358 154.492, 198.019 153.871 C 199.679 153.250, 202.833 152.983, 205.028 153.277 C 208.022 153.678, 209.332 153.399, 210.274 152.156 C 210.965 151.245, 212.424 150.005, 213.515 149.399 C 215.648 148.216, 216.604 143.393, 215.148 141.164 C 214.426 140.059, 213.466 140.102, 209.603 141.414 C 207.033 142.286, 203.708 143.007, 202.215 143.015 C 200.722 143.023, 197.514 143.721, 195.087 144.566 C 188.599 146.825, 187.589 145.423, 189.838 137.272 C 190.782 133.847, 191.993 130.633, 192.528 130.129 C 193.842 128.891, 203.188 127, 207.990 127 C 210.131 127, 212.160 126.550, 212.500 126 C 212.840 125.450, 213.851 125, 214.747 125 C 219.103 125, 226.317 116.940, 224.537 114.060 C 223.517 112.410, 218.936 112.846, 214.063 115.057 C 209.365 117.188, 199.236 118.688, 196.538 117.653 C 194.653 116.930, 195.107 116.081, 203.584 104.500 C 206.402 100.650, 209.023 96.504, 209.409 95.288 C 210.198 92.802, 208.568 88.999, 206.715 89.001 C 203.839 89.005, 196.739 96.960, 190.500 107.169 C 185.214 115.819, 183.356 117.928, 181 117.950 C 173.400 118.019, 171 114.554, 170.243 102.417 C 169.570 91.629, 170.270 88.779, 173.400 89.564 C 174.695 89.889, 180.872 89.382, 187.127 88.436 C 193.382 87.491, 199.183 86.647, 200.018 86.561 C 200.852 86.476, 201.981 86.129, 202.527 85.792 C 203.072 85.455, 207.339 84.853, 212.009 84.453 C 222.088 83.591, 224.285 82.874, 227.511 79.394 C 229.425 77.329, 229.730 76.364, 228.938 74.883 C 227.914 72.970, 225.390 72.727, 217.058 73.738 M 78.655 120.829 C 77.745 121.835, 77 123.545, 77 124.629 C 77 126.945, 79.189 131.981, 80.200 131.992 C 81.185 132.003, 89.824 137.907, 90.533 139.053 C 90.855 139.574, 91.811 140, 92.659 140 C 93.507 140, 95.775 141.575, 97.700 143.500 C 99.625 145.425, 101.696 147, 102.302 147 C 102.909 147, 104.776 148.279, 106.452 149.842 C 110.139 153.281, 115.730 155.670, 117.036 154.364 C 118.646 152.754, 116.125 146.123, 113.200 144.273 C 111.715 143.334, 109.518 141.651, 108.317 140.533 C 107.117 139.415, 103.599 136.475, 100.501 134 C 97.402 131.525, 92.088 127.138, 88.691 124.250 C 85.294 121.362, 82.019 119, 81.412 119 C 80.806 119, 79.565 119.823, 78.655 120.829 M 151.164 185.248 C 147.170 186.236, 146.878 186.525, 147.463 188.910 C 147.813 190.335, 148.189 194.200, 148.299 197.500 L 148.500 203.500 158.835 203.500 C 166.052 203.500, 169.492 203.111, 170.240 202.210 C 170.829 201.501, 171.353 197.517, 171.405 193.358 L 171.500 185.795 166 185.530 C 162.975 185.384, 159.375 185.020, 158 184.720 C 156.625 184.421, 153.549 184.658, 151.164 185.248 M 244.648 193.685 C 244.272 194.062, 239.359 194.502, 233.732 194.663 C 207.298 195.420, 202.974 197.013, 204.550 205.417 C 205.183 208.791, 205.069 209, 202.590 209 C 197.351 209, 196.472 217.527, 201.476 219.807 C 202.864 220.440, 204 221.535, 204 222.242 C 204 223.576, 212.633 230.717, 217 232.995 C 219.517 234.308, 220.956 235.851, 220.985 237.264 C 221.012 238.628, 203.842 255, 202.385 255 C 201.609 255, 200.139 254.479, 199.119 253.842 C 196.579 252.256, 194 253.458, 194 256.228 C 194 259.861, 197.218 261.188, 204.134 260.405 C 208.415 259.921, 210.491 259.186, 211.318 257.862 C 211.958 256.838, 213.062 256, 213.772 256 C 214.482 256, 215.315 255.344, 215.622 254.542 C 215.930 253.740, 218.054 251.982, 220.341 250.637 C 222.628 249.291, 225.591 247.023, 226.924 245.595 C 229.699 242.625, 231.615 242.342, 234.049 244.544 C 235.827 246.154, 238.338 247.561, 252.599 254.939 C 261.790 259.693, 264.500 259.701, 264.500 254.973 C 264.500 253.069, 262.799 251.774, 254.792 247.582 C 243.960 241.912, 237 236.548, 237 233.869 C 237 231.725, 239.056 227, 239.990 227 C 240.357 227, 241.748 224.637, 243.079 221.750 C 244.411 218.863, 246.247 215.672, 247.159 214.659 C 248.072 213.646, 249.273 210.271, 249.829 207.159 C 250.385 204.047, 251.118 200.794, 251.457 199.932 C 252.647 196.910, 246.794 191.539, 244.648 193.685 M 224 206.671 C 219.875 207.471, 214.363 208.366, 211.750 208.660 C 208.748 208.997, 207 209.679, 207 210.515 C 207 212.084, 214.395 220, 215.861 220 C 216.420 220, 218.984 221.823, 221.558 224.050 C 226.316 228.169, 228.624 228.694, 230.117 226 C 236.268 214.907, 240 207.498, 240 206.378 C 240 204.602, 234.105 204.710, 224 206.671 M 165.500 212.655 C 164.400 212.906, 162.375 213.489, 161 213.949 C 159.625 214.409, 155.921 215.354, 152.768 216.048 C 148.681 216.949, 146.861 217.862, 146.427 219.231 C 145.454 222.296, 146.535 222.425, 153.843 220.119 C 161.965 217.555, 166 218.297, 166 222.353 C 166 225.328, 165.091 226.021, 157.193 229.067 C 153.724 230.405, 149.961 232.483, 148.830 233.685 C 146.969 235.662, 146.903 236.159, 148.131 238.935 C 149.675 242.422, 149.301 242.358, 159.709 240.935 C 172.860 239.138, 172.106 240.117, 171.780 225.258 C 171.477 211.437, 171.410 211.302, 165.500 212.655" stroke="none" fill="black" fill-rule="evenodd"/>
</svg>