<svg xmlns="http://www.w3.org/2000/svg" width="300" height="300" viewBox="0 0 300 300" version="1.1">
	<path d="M 184.713 23.764 C 183.771 24.806, 183 26.185, 183 26.829 C 183 27.473, 181.313 29.688, 179.250 31.750 C 177.188 33.813, 173.382 38.201, 170.792 41.500 C 165.880 47.761, 161.129 53.075, 150.676 64 C 147.256 67.575, 143.670 71.625, 142.709 73 C 141.325 74.979, 140.101 75.500, 136.843 75.500 C 134.011 75.500, 132.381 76.046, 131.618 77.250 C 129.731 80.231, 132.050 82.432, 137.687 83.012 C 140.426 83.294, 143.357 84.215, 144.201 85.058 C 145.045 85.902, 147.707 87.178, 150.118 87.893 C 152.528 88.608, 155.175 89.601, 156 90.099 C 156.825 90.597, 158.625 91.476, 160 92.052 C 161.375 92.627, 164.629 94.201, 167.232 95.549 C 172.479 98.267, 175.003 98.597, 176.800 96.800 C 178.699 94.901, 178.258 92, 176.071 92 C 175.011 92, 173.526 91.383, 172.773 90.630 C 172.019 89.876, 169.986 88.527, 168.255 87.632 C 166.524 86.737, 164.009 84.991, 162.666 83.752 C 161.324 82.513, 157.249 80.657, 153.612 79.626 C 148.536 78.187, 147 77.324, 147 75.911 C 147 74.870, 152.284 68.946, 159.153 62.285 C 165.838 55.803, 174.050 47.636, 177.403 44.135 C 188.067 33.003, 189.235 32.010, 192.981 30.888 C 197.459 29.546, 199.848 26.389, 197.838 24.470 C 197.102 23.768, 194.234 22.896, 191.463 22.533 C 187.260 21.980, 186.143 22.184, 184.713 23.764 M 237.887 54.468 C 236.761 56.375, 234.396 58.828, 232.630 59.920 C 230.864 61.011, 227.637 64.417, 225.460 67.489 C 223.282 70.561, 220.488 74.295, 219.251 75.787 C 218.014 77.279, 216.984 78.950, 216.961 79.500 C 216.938 80.050, 215.587 82.058, 213.959 83.962 C 212.332 85.866, 211 87.809, 211 88.279 C 211 88.749, 209.875 90.608, 208.500 92.411 C 205.496 96.349, 205.414 97, 207.918 97 C 209.053 97, 210.774 95.483, 212.132 93.286 C 214.952 88.724, 215.618 87.887, 221.913 81 C 224.678 77.975, 228.560 73.700, 230.538 71.500 C 237.766 63.463, 240.303 61, 241.359 61 C 242.960 61, 247 55.953, 247 53.951 C 247 52.996, 246.288 51.941, 245.418 51.607 C 241.971 50.284, 239.888 51.075, 237.887 54.468 M 194 57.966 C 194 59.047, 195.350 61.312, 197 63 C 198.650 64.688, 200 66.747, 200 67.575 C 200 68.403, 200.985 70.413, 202.188 72.040 C 203.847 74.284, 205.178 75, 207.688 75 C 210.462 75, 211 74.632, 211 72.737 C 211 71.364, 210.128 70.086, 208.783 69.487 C 207.286 68.821, 206.309 67.200, 205.778 64.500 C 204.373 57.355, 203.185 56, 198.331 56 C 194.692 56, 194 56.314, 194 57.966 M 112.335 95.055 C 109.281 96.209, 82.457 97.803, 63.553 97.954 C 54.783 98.024, 47.133 98.461, 46.553 98.925 C 45.974 99.389, 44.132 100.061, 42.460 100.418 C 37.975 101.375, 33 104.712, 33 106.763 C 33 109.123, 36.363 111.923, 40.096 112.669 C 42.349 113.120, 43.662 112.726, 45.420 111.075 C 47.780 108.858, 58.663 106.550, 61.545 107.655 C 62.301 107.946, 65.289 107.675, 68.184 107.054 C 76.108 105.355, 83.319 104.909, 85 106.014 C 86.333 106.890, 86.333 107.109, 85 107.985 C 84.175 108.526, 82.600 108.989, 81.500 109.014 C 79.336 109.062, 74.099 113.393, 71.609 117.193 C 70.198 119.347, 69.162 123.106, 66.013 137.500 C 65.411 140.250, 64.487 143.281, 63.960 144.236 C 63.432 145.191, 63 147.078, 63 148.429 C 63 149.780, 62.144 152.374, 61.097 154.193 C 60.050 156.012, 58.885 159.075, 58.508 161 C 57.624 165.507, 54.850 172, 53.808 172 C 53.363 172, 53 172.845, 53 173.878 C 53 174.910, 52.350 176.295, 51.555 176.955 C 50.760 177.614, 49.409 180.262, 48.554 182.838 C 47.698 185.415, 45.982 188.643, 44.740 190.011 C 41.103 194.019, 39.281 197.314, 37.634 202.861 C 35.903 208.688, 36.316 211, 39.088 211 C 40.325 211, 41.159 210.066, 41.541 208.250 C 41.860 206.738, 42.544 204.719, 43.060 203.764 C 43.577 202.809, 44 201.538, 44 200.941 C 44 200.343, 46.439 196.736, 49.421 192.926 C 52.402 189.116, 55.137 184.654, 55.498 183.011 C 55.859 181.367, 56.569 179.766, 57.077 179.452 C 57.585 179.139, 58 178.099, 58 177.141 C 58 172.508, 63.983 172.693, 68.979 177.480 C 70.426 178.866, 72.528 180, 73.652 180 C 74.775 180, 76.775 180.958, 78.097 182.128 C 79.419 183.299, 82.645 185.592, 85.266 187.224 C 91.216 190.928, 92.778 193.483, 90.580 195.912 C 89.711 196.872, 89 198.383, 89 199.270 C 89 200.156, 88.585 201.139, 88.077 201.452 C 87.569 201.766, 86.835 203.476, 86.445 205.251 C 86.055 207.027, 84.670 209.877, 83.368 211.584 C 82.066 213.292, 81 215.407, 81 216.285 C 81 217.163, 80.589 218.136, 80.087 218.447 C 78.968 219.138, 75.829 225.773, 73.438 232.500 C 72.461 235.250, 71.138 238.175, 70.498 239 C 69.318 240.523, 67.400 244.665, 64.942 251 C 64.195 252.925, 63.003 255.095, 62.292 255.821 C 61.582 256.548, 61 258.181, 61 259.449 C 61 260.717, 60.325 262.315, 59.500 263 C 58.675 263.685, 58 265.063, 58 266.063 C 58 267.064, 57.550 268.160, 57 268.500 C 56.450 268.840, 56 272.273, 56 276.129 C 56 282.827, 56.100 283.125, 58.250 282.820 C 60.193 282.544, 60.572 281.750, 61.029 277 C 61.492 272.190, 62.678 268.753, 65.859 263 C 68.216 258.740, 69 256.898, 69 255.623 C 69 253.768, 75.995 239.595, 77.122 239.167 C 77.605 238.983, 78 238.007, 78 236.998 C 78 235.007, 81.032 228.708, 82.250 228.167 C 82.663 227.983, 83 227.171, 83 226.361 C 83 224.604, 87.587 215.189, 91.327 209.270 C 92.797 206.943, 94 204.401, 94 203.621 C 94 202.841, 95.350 199.637, 97 196.500 C 98.650 193.363, 100 189.979, 100 188.979 C 100 187.980, 100.631 185.888, 101.402 184.331 C 104.736 177.596, 106 173.690, 106 170.120 C 106 166.718, 107.192 163.095, 110.064 157.764 C 110.579 156.809, 111 152.430, 111 148.033 C 111 140.216, 110.941 140.023, 108.347 139.372 C 106.869 139.001, 102.408 139.481, 98.274 140.456 C 94.193 141.418, 88.361 142.175, 85.313 142.139 C 80.461 142.081, 79.406 142.441, 76.810 145.036 C 71.392 150.454, 70.399 148.769, 72.538 137.785 C 74.571 127.338, 75.903 123, 77.078 123 C 77.585 123, 78 122.529, 78 121.952 C 78 120.816, 82.849 116, 83.993 116 C 84.816 116, 91.267 109.848, 93.178 107.240 C 94.420 105.546, 105.288 103, 111.279 103 C 113.832 103, 119.340 98.359, 118.466 96.945 C 117.345 95.131, 114.474 94.246, 112.335 95.055 M 185.843 111.490 C 185.535 111.798, 181.177 112.070, 176.158 112.094 C 171.139 112.118, 166.758 112.582, 166.423 113.125 C 166.087 113.669, 166.077 115.170, 166.401 116.460 C 166.897 118.437, 167.816 118.903, 172.245 119.422 C 175.135 119.761, 181.639 119.992, 186.698 119.935 C 198.918 119.798, 200.006 120.198, 199.978 124.817 C 199.966 126.843, 199.035 130.525, 197.910 133 C 194.845 139.738, 192 148.615, 192 151.438 C 192 152.813, 190.993 155.865, 189.762 158.219 C 187.674 162.212, 186.832 168.066, 186.631 180 C 186.559 184.223, 188.732 198.168, 190.204 202.938 C 191.173 206.075, 191.031 206.577, 188.577 208.688 C 187.098 209.959, 184.901 210.998, 183.694 210.995 C 182.487 210.992, 179.250 211.707, 176.500 212.584 C 167.403 215.483, 165.379 216, 163.129 216 C 161.904 216, 159.686 216.623, 158.200 217.384 C 156.715 218.146, 154.229 218.765, 152.675 218.759 C 148.689 218.746, 147.373 220.329, 148.788 223.433 C 149.617 225.255, 151.401 226.351, 155.442 227.526 C 158.479 228.409, 161.223 229.552, 161.541 230.066 C 162.526 231.660, 164 231.094, 164 229.122 C 164 227.121, 166.298 224.632, 167.259 225.593 C 167.831 226.165, 177.515 223.074, 183.780 220.320 C 185.584 219.527, 188.493 219.018, 190.245 219.189 C 193.253 219.483, 193.507 219.832, 194.823 225.500 C 195.590 228.800, 196.434 234.200, 196.699 237.500 C 196.964 240.800, 197.776 244.175, 198.502 245 C 200.538 247.312, 200.795 254.096, 198.893 255.296 C 196.688 256.687, 192.337 255.396, 191.757 253.179 C 191.095 250.646, 177.838 242, 174.616 242 C 172.740 242, 172 241.478, 172 240.155 C 172 238.194, 169.066 235, 167.265 235 C 165.615 235, 167.841 241.307, 170.640 244.564 C 171.938 246.075, 173 247.711, 173 248.199 C 173 249.615, 180.096 256.896, 183.567 259.041 C 185.310 260.119, 188.483 261.003, 190.618 261.006 C 192.753 261.009, 196.249 261.497, 198.387 262.090 C 201.791 263.036, 202.522 262.922, 204.266 261.179 C 205.925 259.520, 206.232 257.969, 206.107 251.885 C 206.014 247.357, 205.395 243.726, 204.478 242.327 C 203.566 240.935, 203 237.640, 203 233.726 C 203 229.696, 202.464 226.674, 201.532 225.441 C 199.749 223.084, 199.547 216.853, 201.200 215.200 C 201.860 214.540, 203.408 214, 204.641 214 C 205.874 214, 207.124 213.608, 207.420 213.129 C 207.716 212.650, 209.322 211.986, 210.989 211.652 C 212.655 211.319, 216.761 209.686, 220.112 208.023 C 223.463 206.360, 227.089 205, 228.169 205 C 229.250 205, 231.608 203.875, 233.411 202.500 C 235.214 201.125, 237.215 200, 237.858 200 C 238.501 200, 239.809 199.602, 240.764 199.115 C 247.225 195.820, 261.845 189.045, 263.500 188.577 C 264.600 188.266, 266.807 186.884, 268.406 185.506 C 270.004 184.128, 271.804 182.992, 272.406 182.983 C 273.007 182.973, 274.560 181.848, 275.855 180.483 C 277.150 179.117, 278.993 178, 279.950 178 C 282.308 178, 285.256 174.570, 284.827 172.324 C 284.298 169.545, 280.603 169.594, 276.095 172.440 C 273.864 173.848, 271.371 175, 270.554 175 C 268.731 175, 261.626 178.217, 261.167 179.250 C 260.983 179.662, 260.345 180, 259.747 180 C 259.150 180, 254.575 181.980, 249.581 184.401 C 237.990 190.018, 233.453 192, 232.182 192 C 231.624 192, 231.017 192.338, 230.833 192.750 C 230.383 193.762, 222.693 197.396, 216.250 199.640 C 213.363 200.646, 211 201.814, 211 202.235 C 211 202.656, 209.930 203, 208.622 203 C 207.314 203, 204.629 203.675, 202.654 204.500 C 196.827 206.935, 195.131 206.536, 195.209 202.750 C 195.246 200.963, 195.008 194.325, 194.681 188 C 194.354 181.675, 194.533 173.800, 195.080 170.500 C 195.626 167.200, 196.336 161.905, 196.658 158.734 C 196.980 155.563, 197.638 152.724, 198.121 152.425 C 198.605 152.126, 199 150.994, 199 149.908 C 199 148.822, 200.125 145.713, 201.500 143 C 202.875 140.287, 204 137.445, 204 136.686 C 204 135.927, 204.879 134.292, 205.954 133.053 C 208.210 130.452, 209.279 124.652, 208.820 117.500 L 208.500 112.500 200.500 112.492 C 196.100 112.488, 191.128 112.134, 189.452 111.707 C 187.775 111.279, 186.151 111.182, 185.843 111.490 M 66.079 148.583 C 66.127 149.748, 66.364 149.985, 66.683 149.188 C 66.972 148.466, 66.936 147.603, 66.604 147.271 C 66.272 146.939, 66.036 147.529, 66.079 148.583 M 91 149.973 C 87.425 150.357, 83.017 151.246, 81.204 151.949 C 78.376 153.046, 77.656 152.999, 76.126 151.614 C 75.145 150.726, 73.590 150, 72.671 150 C 70.348 150, 67 153.580, 67 156.066 C 67 157.202, 66.536 158.999, 65.968 160.060 C 65.225 161.447, 65.346 163.322, 66.398 166.744 C 67.261 169.550, 67.889 170.578, 67.930 169.250 C 68.029 166.070, 70.838 166.376, 75.027 170.023 C 80.274 174.591, 80.836 175, 81.874 175 C 82.402 175, 82.983 175.406, 83.167 175.903 C 83.350 176.399, 85.957 178.645, 88.960 180.893 C 92.577 183.601, 94.755 184.645, 95.414 183.986 C 96.655 182.745, 98.742 175.275, 99.922 167.854 C 100.415 164.748, 101.335 161.243, 101.965 160.065 C 102.595 158.887, 102.974 156.028, 102.806 153.712 C 102.455 148.879, 102.130 148.776, 91 149.973 M 169.510 231.016 C 169.856 231.575, 170.557 231.774, 171.069 231.457 C 172.456 230.600, 172.198 230, 170.441 230 C 169.584 230, 169.165 230.457, 169.510 231.016" stroke="none" fill="black" fill-rule="evenodd"/>
</svg>