<svg xmlns="http://www.w3.org/2000/svg" width="300" height="300" viewBox="0 0 300 300" version="1.1">
	<path d="M 120.654 15.991 C 119.808 17.688, 119.560 19.228, 120.081 19.550 C 121.842 20.638, 120.983 22, 118.535 22 C 115.610 22, 115.074 22.909, 111.461 34 C 109.938 38.675, 107.254 45.425, 105.496 49 C 103.738 52.575, 101.044 58.875, 99.510 63 C 97.976 67.125, 96.201 71.175, 95.565 72 C 94.930 72.825, 92.293 77.848, 89.705 83.162 C 84.568 93.711, 83.766 98, 86.929 98 C 89.350 98, 90.911 96.443, 94.607 90.342 C 96.220 87.679, 98.087 84.600, 98.755 83.500 C 100.623 80.426, 111 59.444, 111 58.741 C 111 58.398, 112.800 54.294, 115 49.620 C 117.200 44.946, 119 40.450, 119 39.628 C 119 38.807, 119.900 37.849, 121 37.500 C 122.159 37.132, 123 35.987, 123 34.778 C 123 32.815, 123.110 32.790, 124.837 34.353 C 126.965 36.278, 132.536 35.651, 133.405 33.388 C 133.698 32.625, 135.280 32, 136.922 32 C 138.563 32, 140.995 31.504, 142.326 30.897 C 144.117 30.082, 145.318 30.100, 146.939 30.968 C 148.814 31.971, 149.488 31.784, 151.593 29.680 C 154.227 27.046, 159.769 25.648, 161.638 27.147 C 163.192 28.392, 167.337 26.393, 168.541 23.817 C 169.801 21.121, 176 18.404, 176 20.548 C 176 22.477, 181.359 22.477, 182.960 20.548 C 184.505 18.687, 183.975 16.014, 181.789 14.637 C 179.873 13.430, 174.410 14.964, 160.381 20.649 C 154.329 23.101, 127.948 30, 124.624 30 C 123.624 30, 123.369 26.092, 124.264 24.492 C 124.816 23.507, 125.420 20.518, 125.607 17.850 C 125.902 13.632, 125.699 13, 124.047 13 C 122.936 13, 121.527 14.243, 120.654 15.991 M 118.102 26.378 C 117.345 27.289, 117.082 28.731, 117.488 29.737 C 118.113 31.285, 118.314 31.205, 119.129 29.086 C 120.352 25.904, 119.770 24.368, 118.102 26.378 M 165 44.844 C 161.278 47.496, 146.312 53.004, 141.076 53.651 C 138.559 53.961, 134.475 55.091, 132 56.160 C 120.839 60.985, 119.853 62.277, 125.939 64.100 C 130.857 65.573, 134.442 64.318, 136.175 60.515 C 137.008 58.688, 138.098 58, 140.161 58 C 142.018 58, 143 58.519, 143 59.500 C 143 61.389, 144.920 61.375, 147.441 59.468 C 148.841 58.410, 148.980 57.991, 147.941 57.968 C 146.902 57.945, 147.042 57.527, 148.441 56.468 C 150.990 54.540, 152.366 54.603, 151.596 56.611 C 150.472 59.541, 155.211 57.827, 166.442 51.241 C 170.827 48.671, 172 47.457, 172 45.491 C 172 42.435, 168.798 42.139, 165 44.844 M 199.500 66.217 C 195.184 68.588, 194.302 69.035, 188.500 71.790 C 177.121 77.193, 163.547 81.764, 150.500 84.584 C 147.200 85.297, 140.450 87.091, 135.500 88.570 C 130.550 90.049, 124.036 91.539, 121.025 91.880 C 116.549 92.387, 115.329 92.945, 114.340 94.937 C 111.871 99.907, 116.758 103.135, 120.497 99.004 C 121.905 97.448, 122.610 97.262, 123.694 98.161 C 124.745 99.033, 125.367 99.033, 126.242 98.158 C 126.879 97.521, 128.210 97, 129.200 97 C 130.190 97, 131 96.550, 131 96 C 131 95.450, 131.392 95, 131.872 95 C 132.771 95, 132.628 100.494, 131.487 109.832 C 130.821 115.283, 128.381 119, 125.469 119 C 123.628 119, 123.333 118.182, 122.501 110.750 C 121.987 106.170, 121.498 105, 120.095 105 C 117.486 105, 116.904 106.047, 118.582 107.724 C 120.366 109.509, 119.535 112.921, 116.857 114.807 C 115.835 115.525, 115 117.123, 115 118.357 C 115 121.212, 113.217 123, 110.371 123 C 107.647 123, 104.693 125.757, 105.411 127.629 C 105.700 128.383, 105.515 129, 105 129 C 104.485 129, 104.322 129.675, 104.638 130.500 C 105.319 132.274, 109.659 132.522, 110.227 130.820 C 110.446 130.161, 111.366 129.927, 112.310 130.289 C 113.636 130.797, 114 132.225, 114 136.912 C 114 141.952, 113.652 143.130, 111.777 144.443 C 110.555 145.299, 108.591 146, 107.412 146 C 104.578 146, 100 149.676, 100 151.951 C 100 152.944, 100.964 154.396, 102.142 155.178 C 103.972 156.394, 104.113 156.921, 103.107 158.800 C 102.459 160.010, 101.045 161, 99.965 161 C 98.328 161, 98 161.691, 98 165.135 C 98 170.911, 93.100 195.907, 91.300 199.312 C 89.494 202.728, 90.186 206.043, 93.079 207.831 C 95.008 209.024, 95.610 208.838, 98.866 206.049 C 100.865 204.338, 104.170 201.714, 106.212 200.218 C 108.254 198.723, 109.941 196.713, 109.962 195.750 C 109.983 194.787, 110.450 194, 111 194 C 111.550 194, 112.003 196.137, 112.007 198.750 C 112.029 214.651, 112.829 235.758, 113.467 237.250 C 114.330 239.271, 115.921 239.449, 119.313 237.903 L 121.720 236.806 121.219 215.932 L 120.718 195.059 123.460 191.464 C 124.968 189.486, 126.450 188.116, 126.752 188.419 C 127.055 188.721, 127.869 188.194, 128.561 187.247 C 129.678 185.720, 129.881 185.921, 130.358 189.013 C 131.592 197.022, 132.112 208.534, 131.993 225.209 C 131.857 244.327, 132.865 249.188, 137.254 250.581 C 140.080 251.478, 143.261 247.447, 142.447 244 C 141.618 240.489, 140.227 195.400, 140.790 190.277 C 141.119 187.285, 141.800 185.881, 143.127 185.460 C 144.157 185.133, 145 184.221, 145 183.433 C 145 181.774, 146.169 181.569, 147.580 182.980 C 148.946 184.346, 154.630 182.638, 162.679 178.443 C 166.312 176.549, 169.858 175, 170.559 175 C 171.260 175, 172.011 174.466, 172.229 173.813 C 172.482 173.054, 173.443 173.443, 174.888 174.888 C 176.798 176.798, 177.043 177.785, 176.461 181.233 C 176.081 183.478, 175.205 186.662, 174.513 188.308 C 173.761 190.095, 173.430 193.757, 173.690 197.400 C 174.307 206.037, 170.260 228.908, 167.056 234.896 C 166.221 236.456, 165.329 236.941, 164.173 236.464 C 163.253 236.083, 160.338 234.989, 157.695 234.031 C 155.053 233.074, 152.375 231.775, 151.745 231.145 C 150.211 229.611, 146.980 229.684, 147.081 231.250 C 147.125 231.938, 148.137 234.300, 149.331 236.500 C 151.069 239.706, 152.881 241.160, 158.456 243.823 C 171.899 250.244, 174.312 248.472, 178.434 229.150 C 179.919 222.192, 181.494 215.150, 181.934 213.500 C 182.604 210.986, 183.144 204.624, 183.249 198 C 183.262 197.175, 182.698 191.325, 181.996 185 C 180.320 169.909, 178.949 167.875, 171.027 168.734 C 168.017 169.061, 162.617 170.662, 159.027 172.293 C 150.814 176.023, 141.838 179.018, 140.796 178.374 C 140.358 178.103, 140 170.291, 140 161.012 C 140 147.010, 140.267 143.876, 141.571 142.571 C 142.436 141.707, 143.554 141, 144.057 141 C 144.560 141, 145.483 138.967, 146.109 136.483 C 146.734 133.999, 147.641 131.722, 148.123 131.424 C 148.605 131.126, 149 129.925, 149 128.755 C 149 127.586, 149.968 125.598, 151.152 124.339 C 152.971 122.402, 153.155 121.543, 152.346 118.774 C 151.400 115.538, 151.322 115.501, 145.556 115.625 L 139.724 115.750 140.364 107.430 L 141.003 99.111 138.280 97.805 C 135.471 96.459, 134.980 94.848, 137.223 94.331 C 137.925 94.169, 139.850 93.748, 141.500 93.397 C 143.150 93.045, 145.228 91.845, 146.117 90.730 C 148.028 88.332, 158.632 86.450, 160.675 88.145 C 161.369 88.721, 163.283 88.877, 165.007 88.498 C 167.685 87.910, 167.923 87.608, 166.798 86.223 C 165.677 84.843, 165.759 84.723, 167.405 85.341 C 168.700 85.827, 170.047 85.365, 171.605 83.902 C 173.189 82.413, 174.455 81.989, 175.699 82.528 C 177.392 83.263, 177.395 83.335, 175.750 83.728 C 174.787 83.958, 174 84.564, 174 85.073 C 174 87.561, 178.404 84.452, 179.422 81.246 C 180.345 78.338, 184.047 78.103, 183.290 81 C 182.674 83.354, 184.224 83.640, 186 81.500 C 186.685 80.675, 187.795 80, 188.467 80 C 189.803 80, 193.252 76.596, 192.603 75.919 C 192.382 75.688, 192.866 74.887, 193.679 74.138 C 194.972 72.945, 195.074 73.382, 194.497 77.638 C 194.135 80.312, 193.439 83.850, 192.952 85.500 C 189.728 96.419, 188.547 143.384, 191.329 150 C 192.139 151.925, 193.314 157.100, 193.940 161.500 C 194.945 168.555, 197.387 177.484, 204.023 198.356 C 205.483 202.950, 205.635 204.611, 204.728 206.064 C 203.791 207.564, 203.953 208.350, 205.580 210.208 C 206.685 211.468, 208.612 214.750, 209.863 217.500 C 211.114 220.250, 212.817 223.755, 213.648 225.288 C 214.479 226.822, 215.697 229.072, 216.355 230.288 C 217.013 231.505, 218.675 234.300, 220.048 236.500 C 221.422 238.700, 223.194 241.850, 223.987 243.500 C 227.077 249.932, 229.043 252, 232.068 252 C 234.740 252, 235 251.696, 235 248.577 C 235 246.454, 234.108 244.080, 232.652 242.327 C 230.023 239.161, 229.741 238.663, 221.863 223.295 C 218.763 217.247, 215.911 210.434, 215.526 208.154 C 215.141 205.875, 214.415 203.757, 213.913 203.446 C 213.411 203.136, 213.002 201.896, 213.005 200.691 C 213.010 198.434, 210.724 190.901, 208.348 185.349 C 207.607 183.616, 207 181.364, 207 180.346 C 207 179.327, 206.100 175.346, 205 171.500 C 203.900 167.654, 203 162.660, 203 160.402 C 203 158.145, 202.596 154.994, 202.103 153.399 C 199.163 143.901, 198.736 136.209, 199.933 114.389 C 201.227 90.790, 202.983 76.261, 204.672 75.178 C 206.444 74.042, 207.107 70.412, 206.050 67.632 C 204.986 64.834, 202.855 64.373, 199.500 66.217 M 194.079 111.583 C 194.127 112.748, 194.364 112.985, 194.683 112.188 C 194.972 111.466, 194.936 110.603, 194.604 110.271 C 194.272 109.939, 194.036 110.529, 194.079 111.583 M 139.607 122.582 C 138.102 126.504, 138.866 127.686, 142.750 127.443 C 148.102 127.108, 148 127.146, 148 125.500 C 148 124.675, 147.380 124, 146.622 124 C 145.865 124, 144.685 123.325, 144 122.500 C 142.381 120.550, 140.372 120.587, 139.607 122.582 M 126.268 124.414 C 123.377 125.767, 122.026 129.773, 122.718 134.935 C 123.416 140.138, 124.289 140.643, 128.007 137.995 C 130.610 136.141, 131 135.247, 131 131.123 C 131 125.205, 129.406 122.945, 126.268 124.414 M 124.758 145.782 C 123.604 147.110, 123.128 151.659, 122.664 165.807 L 122.063 184.115 124.281 183.455 C 130.201 181.695, 130.344 181.332, 130.595 167.424 C 130.723 160.316, 130.589 152.575, 130.296 150.222 C 129.665 145.146, 127.100 143.089, 124.758 145.782 M 108.011 152.487 C 107.332 153.305, 107.026 154.625, 107.331 155.420 C 107.636 156.215, 106.997 163.758, 105.910 172.183 C 104.824 180.607, 103.837 188.383, 103.717 189.462 C 103.417 192.171, 105.882 192.401, 109.750 190.025 L 113 188.029 113.050 179.265 C 113.077 174.444, 113.291 166.708, 113.526 162.073 C 113.949 153.699, 113.212 151, 110.500 151 C 109.810 151, 108.689 151.669, 108.011 152.487 M 198.079 166.583 C 198.127 167.748, 198.364 167.985, 198.683 167.188 C 198.972 166.466, 198.936 165.603, 198.604 165.271 C 198.272 164.939, 198.036 165.529, 198.079 166.583 M 134.636 178.494 C 134.952 179.316, 135.612 179.740, 136.105 179.435 C 137.517 178.563, 137.149 177, 135.531 177 C 134.639 177, 134.288 177.587, 134.636 178.494 M 244.630 196.250 C 244.299 197.488, 244.021 201.066, 244.014 204.203 C 244.006 207.340, 243.599 210.940, 243.110 212.203 C 242.620 213.466, 240.309 220.416, 237.974 227.647 C 234.669 237.883, 233.988 241.094, 234.899 242.147 C 235.542 242.891, 236.666 244.366, 237.397 245.423 C 238.683 247.284, 238.781 247.264, 240.394 244.803 C 243.549 239.986, 248.487 224.136, 249.989 214 C 251.450 204.140, 246.717 188.462, 244.630 196.250 M 134 200.500 C 134 201.325, 134.450 202, 135 202 C 135.550 202, 136 201.325, 136 200.500 C 136 199.675, 135.550 199, 135 199 C 134.450 199, 134 199.675, 134 200.500 M 176.015 216.750 C 176.027 218.893, 176.245 219.169, 177 218 C 178.264 216.043, 178.264 214, 177 214 C 176.450 214, 176.007 215.238, 176.015 216.750 M 174.600 223.600 C 174.244 224.527, 174.178 225.511, 174.453 225.786 C 174.728 226.061, 175.244 225.527, 175.600 224.600 C 175.956 223.673, 176.022 222.689, 175.747 222.414 C 175.472 222.139, 174.956 222.673, 174.600 223.600 M 224 238.378 C 224 238.585, 224.675 239.315, 225.500 240 C 226.729 241.020, 227 240.951, 227 239.622 C 227 238.730, 226.325 238, 225.500 238 C 224.675 238, 224 238.170, 224 238.378 M 136.079 240.583 C 136.127 241.748, 136.364 241.985, 136.683 241.188 C 136.972 240.466, 136.936 239.603, 136.604 239.271 C 136.272 238.939, 136.036 239.529, 136.079 240.583 M 164 243.500 C 164 244.333, 164.889 245, 166 245 C 167.111 245, 168 244.333, 168 243.500 C 168 242.667, 167.111 242, 166 242 C 164.889 242, 164 242.667, 164 243.500" stroke="none" fill="black" fill-rule="evenodd"/>
</svg>