<svg xmlns="http://www.w3.org/2000/svg" width="300" height="300" viewBox="0 0 300 300" version="1.1">
	<path d="M 182.547 26.924 C 182.200 27.486, 180.022 28.455, 177.708 29.076 C 174.948 29.818, 172.123 31.671, 169.500 34.461 C 165.469 38.746, 163.016 40.336, 155.276 43.677 C 152.952 44.680, 151.040 46.063, 151.026 46.750 C 151.012 47.438, 150.211 48, 149.246 48 C 148.281 48, 144.521 50.813, 140.891 54.250 C 137.261 57.688, 131.975 62.524, 129.145 64.997 C 123.625 69.820, 122.297 73.177, 123.802 78.500 C 124.364 80.491, 125.293 81.501, 126.561 81.502 C 129.283 81.504, 129.602 84.674, 126.964 85.511 C 125.088 86.107, 124.885 86.722, 125.369 90.347 C 127.162 103.766, 129.158 128.287, 129.003 135 C 128.737 146.559, 128.032 158.301, 127.577 158.757 C 127.259 159.074, 127 161.247, 127 163.586 C 127 167.938, 124.390 179.703, 123.025 181.500 C 122.608 182.050, 121.952 184.964, 121.569 187.975 C 121.185 190.986, 120.443 193.966, 119.920 194.596 C 119.397 195.226, 118.093 199.513, 117.021 204.121 C 113.423 219.593, 112.587 222.494, 111.363 223.749 C 110.010 225.136, 106 235.331, 106 237.382 C 106 238.101, 107.068 239.932, 108.374 241.452 C 111.852 245.499, 114.270 244.266, 116.876 237.119 C 118.044 233.916, 119 230.778, 119 230.147 C 119 229.516, 119.414 229, 119.921 229 C 120.427 229, 121.138 227.650, 121.500 226 C 121.862 224.350, 122.484 223, 122.882 223 C 123.619 223, 124.252 220.597, 127.823 204.252 C 128.934 199.165, 130.771 192.323, 131.904 189.047 C 136.259 176.465, 138.236 167.241, 138.668 157.500 C 138.912 152, 139.531 145.085, 140.043 142.134 C 140.556 139.183, 140.708 136.337, 140.383 135.810 C 140.057 135.283, 139.402 127.123, 138.926 117.676 C 138.451 108.229, 137.611 98.973, 137.060 97.107 C 135.559 92.027, 134.653 79.787, 135.412 74.851 C 135.984 71.128, 136.725 70.067, 140.547 67.500 C 143.003 65.850, 145.240 63.794, 145.516 62.931 C 146.404 60.165, 158.974 50.088, 163.067 48.862 C 165.243 48.210, 167.524 47.074, 168.134 46.338 C 168.745 45.602, 169.977 44.998, 170.872 44.995 C 171.768 44.992, 173.668 44.204, 175.095 43.245 C 176.523 42.285, 180.348 39.733, 183.595 37.572 C 190.695 32.850, 192.263 31.022, 190.764 29.216 C 190.176 28.507, 188.932 28.055, 188.001 28.213 C 187.069 28.371, 185.603 27.916, 184.743 27.201 C 183.723 26.355, 182.958 26.259, 182.547 26.924 M 224.500 81.727 C 223.400 81.934, 221.517 82.590, 220.316 83.185 C 219.114 83.781, 217.202 84.025, 216.067 83.728 C 214.931 83.431, 213.750 83.596, 213.442 84.094 C 213.134 84.592, 209.999 85, 206.475 85 C 202.951 85, 198.590 85.634, 196.784 86.409 C 191.772 88.559, 183.053 91, 180.385 91 C 177.956 91, 177.190 92.382, 179 93.500 C 180.721 94.563, 180.098 95.748, 177.565 96.232 C 174.561 96.807, 173.500 96.093, 173.500 93.500 C 173.500 91.634, 172.781 91.490, 162.751 91.344 C 156.839 91.258, 151.759 91.580, 151.462 92.061 C 151.165 92.541, 149.606 92.671, 147.998 92.350 C 144.310 91.612, 140 92.651, 140 94.279 C 140 94.961, 140.934 96.102, 142.076 96.815 C 143.795 97.889, 143.935 98.373, 142.890 99.632 C 141.237 101.625, 143.492 103.257, 146.817 102.474 C 153.369 100.931, 163.501 100.192, 164.131 101.212 C 164.566 101.916, 166.145 102.018, 168.650 101.503 C 170.767 101.067, 174.525 100.664, 177 100.606 L 181.500 100.500 182.232 113.500 C 182.635 120.650, 183.017 127.400, 183.081 128.500 C 183.145 129.600, 183.103 142.875, 182.988 158 C 182.751 189.146, 183.466 218.045, 185.052 241.500 C 185.647 250.300, 186.441 262.178, 186.817 267.896 C 187.460 277.680, 187.660 278.411, 190.221 280.320 C 192.527 282.038, 193.337 282.168, 195.526 281.170 L 198.109 279.993 197.501 266.247 C 197.166 258.686, 196.484 248.675, 195.985 244 C 195.193 236.589, 193.621 194.700, 193.601 180.500 C 193.595 175.779, 194.751 139.693, 194.921 139.330 C 195.178 138.779, 203 142.450, 203 143.122 C 203 143.573, 205.475 145.073, 208.500 146.457 C 211.525 147.841, 214 149.345, 214 149.800 C 214 150.255, 215.575 151.245, 217.500 152 C 219.425 152.755, 221 153.689, 221 154.075 C 221 154.461, 222.467 155.053, 224.261 155.389 C 226.054 155.726, 228.714 157.107, 230.173 158.459 C 231.631 159.811, 233.989 161.210, 235.412 161.567 C 236.835 161.925, 238 162.528, 238 162.908 C 238 163.287, 239.631 164.188, 241.623 164.908 C 244.646 166.001, 245.390 165.993, 246.108 164.859 C 247.429 162.775, 247.170 161.149, 245.250 159.465 C 244.287 158.621, 241.750 156.371, 239.610 154.465 C 237.471 152.559, 234.883 151, 233.860 151 C 232.837 151, 232 150.355, 232 149.567 C 232 148.779, 231.145 147.863, 230.100 147.532 C 229.055 147.200, 225.376 145.104, 221.925 142.873 C 218.474 140.642, 214.545 138.397, 213.194 137.884 C 211.844 137.370, 209.491 136.061, 207.965 134.975 C 206.439 133.889, 204.248 133, 203.096 133 C 201.943 133, 200.999 132.662, 200.997 132.250 C 200.996 131.838, 199.679 130.619, 198.071 129.542 C 195.688 127.945, 194.943 126.467, 194.037 121.542 C 192.008 110.500, 194.168 96.796, 198.008 96.352 C 203.541 95.711, 219.855 92.685, 221.500 91.993 C 222.600 91.531, 226.556 90.879, 230.291 90.544 C 235.769 90.054, 237.663 90.279, 240.084 91.708 C 242.615 93.204, 243.221 93.261, 243.954 92.074 C 244.455 91.263, 244.421 89.608, 243.874 88.168 C 242.240 83.872, 239.468 82.274, 233.407 82.134 C 230.333 82.063, 227.521 81.858, 227.159 81.679 C 226.796 81.499, 225.600 81.521, 224.500 81.727 M 40.603 83.731 C 39.615 84.719, 39.920 88, 41 88 C 41.550 88, 42 88.614, 42 89.365 C 42 92.020, 46.092 95.927, 49.554 96.576 C 51.462 96.934, 53.269 97.626, 53.570 98.113 C 53.871 98.601, 55.104 99.014, 56.309 99.032 C 57.514 99.049, 59.374 99.724, 60.441 100.532 C 61.509 101.339, 63.646 102, 65.191 102 C 66.736 102, 68 102.420, 68 102.933 C 68 103.446, 69.013 104.152, 70.250 104.501 C 71.487 104.851, 74.659 106.272, 77.298 107.657 C 82.462 110.369, 85 110.201, 85 107.146 C 85 105.210, 81.154 102.015, 78.785 101.983 C 78.078 101.973, 76.446 100.854, 75.157 99.495 C 73.868 98.136, 71.056 96.498, 68.907 95.854 C 66.758 95.210, 65 94.305, 65 93.842 C 65 93.379, 64.031 93, 62.846 93 C 60.489 93, 50.395 88.549, 47.998 86.453 C 45.977 84.685, 41.351 82.982, 40.603 83.731 M 207.813 87.683 C 208.534 87.972, 209.397 87.936, 209.729 87.604 C 210.061 87.272, 209.471 87.036, 208.417 87.079 C 207.252 87.127, 207.015 87.364, 207.813 87.683 M 198.005 89.957 C 195.334 90.632, 193.890 94, 196.272 94 C 197.698 94, 201.677 90.275, 200.911 89.657 C 200.685 89.475, 199.377 89.610, 198.005 89.957 M 130.158 94 C 130.158 95.375, 130.385 95.938, 130.662 95.250 C 130.940 94.563, 130.940 93.438, 130.662 92.750 C 130.385 92.063, 130.158 92.625, 130.158 94 M 50.750 93.662 C 51.438 93.940, 52.563 93.940, 53.250 93.662 C 53.938 93.385, 53.375 93.158, 52 93.158 C 50.625 93.158, 50.063 93.385, 50.750 93.662 M 158.500 95 C 158.160 95.550, 156.784 96, 155.441 96 C 152.901 96, 152.187 97.380, 154.112 98.569 C 154.723 98.947, 155.567 98.700, 155.987 98.021 C 156.444 97.281, 157.599 97.055, 158.866 97.458 C 161.510 98.297, 163.089 97.395, 162.349 95.468 C 161.706 93.791, 159.419 93.513, 158.500 95 M 130.590 98.627 C 130.246 99.521, 130.362 100.759, 130.846 101.377 C 131.331 101.995, 131.714 105.312, 131.697 108.750 C 131.669 114.561, 132.299 117.035, 133.501 115.832 C 134.277 115.056, 132.797 97, 131.957 97 C 131.548 97, 130.933 97.732, 130.590 98.627 M 188.649 131.473 C 188.062 133.001, 191.424 136, 193.723 136 C 194.425 136, 195 136.450, 195 137 C 195 137.550, 196.350 138, 198 138 C 199.650 138, 201 137.550, 201 137 C 201 136.450, 200.325 136, 199.500 136 C 198.675 136, 197.997 135.662, 197.993 135.250 C 197.984 134.280, 191.709 130, 190.295 130 C 189.700 130, 188.960 130.663, 188.649 131.473 M 133.169 147.050 C 133.076 149.002, 132.574 151.028, 132.053 151.550 C 131.532 152.072, 130.969 154.959, 130.803 157.964 C 130.559 162.355, 130.818 163.494, 132.121 163.762 C 134.322 164.217, 134.662 162.024, 133.946 152 C 133.612 147.325, 133.262 145.097, 133.169 147.050 M 187 150 C 187 151.824, 187.415 152.862, 188 152.500 C 188.550 152.160, 189 151.035, 189 150 C 189 148.965, 188.550 147.840, 188 147.500 C 187.415 147.138, 187 148.176, 187 150 M 21.660 161.439 C 17.399 165.389, 18.526 170.354, 23.644 170.178 C 37.108 169.713, 55.241 170.141, 57.436 170.976 C 60.912 172.297, 73 172.316, 73 171 C 73 170.450, 73.900 170, 75 170 C 76.170 170, 77 169.333, 77 168.393 C 77 167.498, 76.433 167.004, 75.719 167.277 C 74.571 167.718, 70.645 167.049, 56 163.913 C 50.648 162.768, 36.545 160.480, 29.410 159.601 C 24.912 159.047, 24.011 159.260, 21.660 161.439 M 27 165.622 C 27 167.011, 27.252 167.052, 28.750 165.905 C 29.712 165.169, 30.688 164.439, 30.917 164.283 C 31.146 164.127, 30.358 164, 29.167 164 C 27.835 164, 27 164.625, 27 165.622 M 37.813 164.683 C 38.534 164.972, 39.397 164.936, 39.729 164.604 C 40.061 164.272, 39.471 164.036, 38.417 164.079 C 37.252 164.127, 37.015 164.364, 37.813 164.683 M 186 186.441 C 186 187.234, 186.403 188.131, 186.895 188.435 C 187.925 189.071, 189.166 186.499, 188.264 185.598 C 187.191 184.525, 186 184.968, 186 186.441 M 49.500 215.656 C 31.408 217.905, 26.327 218.755, 24.216 219.884 C 23.069 220.498, 21.314 221.014, 20.316 221.032 C 15.946 221.108, 12.743 226.905, 15.209 230.273 C 17.771 233.773, 22.966 233.527, 31.577 229.499 C 35.935 227.460, 39.725 225.450, 40 225.031 C 40.275 224.612, 41.625 223.948, 43 223.554 C 44.375 223.161, 47.363 221.996, 49.640 220.966 C 51.916 219.936, 55.066 218.780, 56.640 218.398 C 58.213 218.015, 60.306 217.151, 61.291 216.478 C 63.012 215.302, 63.012 215.238, 61.291 214.834 C 60.306 214.602, 55 214.972, 49.500 215.656 M 40.500 220 C 40.160 220.550, 40.610 221, 41.500 221 C 42.390 221, 42.840 220.550, 42.500 220 C 42.160 219.450, 41.710 219, 41.500 219 C 41.290 219, 40.840 219.450, 40.500 220" stroke="none" fill="black" fill-rule="evenodd"/>
</svg>