<svg xmlns="http://www.w3.org/2000/svg" width="300" height="300" viewBox="0 0 300 300" version="1.1">
	<path d="M 159.019 19.455 C 156.133 26.188, 155.652 34.143, 157.430 45.743 C 159.630 60.098, 159.518 61.442, 155.698 66.444 C 153.882 68.822, 151.785 72.620, 151.038 74.884 C 149.804 78.623, 148 80.473, 148 78 C 148 76.148, 146.348 76.979, 142.217 80.909 C 139.957 83.059, 136.771 85.111, 135.137 85.470 C 133.504 85.829, 131.919 86.770, 131.615 87.561 C 131.311 88.352, 130.486 89.010, 129.781 89.022 C 129.077 89.034, 127.375 89.924, 126 91 C 124.625 92.076, 122.797 92.966, 121.939 92.978 C 119.534 93.012, 115.983 96.791, 116.671 98.584 C 117.002 99.447, 118.336 100.558, 119.636 101.052 C 121.260 101.669, 122 102.741, 122 104.475 C 122 107.110, 120.534 107.910, 119.662 105.750 C 118.993 104.092, 118.874 108.660, 118.964 132.500 C 119.006 143.500, 118.549 155.200, 117.950 158.500 C 115.548 171.718, 115.559 172.757, 118.123 175.459 C 121.010 178.503, 121.996 178.577, 125.273 176 C 126.671 174.900, 129.251 174, 131.007 174 C 132.762 174, 135.616 173.345, 137.349 172.545 C 144.779 169.116, 150.624 167.308, 152.313 167.917 C 154.049 168.543, 154.044 168.675, 152.204 171.035 C 149.384 174.654, 147 179.619, 147 181.878 C 147 182.965, 145.725 184.900, 144.166 186.178 C 142.607 187.455, 140.321 190.188, 139.084 192.250 C 137.848 194.312, 136.424 196, 135.918 196 C 135.413 196, 135 196.567, 135 197.259 C 135 197.952, 134.134 199.060, 133.075 199.721 C 132.016 200.383, 131.003 201.859, 130.825 203.002 C 130.646 204.144, 130.100 205.023, 129.612 204.954 C 129.123 204.885, 128.448 205.214, 128.112 205.685 C 127.775 206.156, 126.315 207.060, 124.867 207.696 C 123.419 208.331, 121.619 210.253, 120.867 211.967 C 120.115 213.681, 116.912 217.119, 113.750 219.608 C 110.588 222.096, 108 224.804, 108 225.625 C 108 226.446, 107.524 226.824, 106.941 226.464 C 105.470 225.554, 98.914 230.317, 96.500 234.049 C 95.400 235.750, 93.263 237.796, 91.750 238.597 C 88.616 240.255, 88.352 241.217, 90.534 243.028 C 92.461 244.628, 95.350 243.225, 101.914 237.500 C 104.436 235.300, 108.051 232.409, 109.946 231.076 C 114.387 227.950, 119.494 223.252, 134.488 208.500 C 147.429 195.767, 151.435 190.947, 154.434 184.500 C 157.710 177.459, 158.669 175.807, 159.429 175.904 C 160.024 175.979, 161.536 248.938, 161.182 260.500 C 160.968 267.509, 163.652 270.806, 168.568 269.572 L 170.950 268.974 170.263 237.237 C 169.502 202.090, 169.617 167.254, 170.510 162.250 C 171.004 159.486, 171.514 159, 173.920 159 C 175.476 159, 178.662 158.325, 181 157.500 C 183.338 156.675, 186.741 156, 188.561 156 C 190.381 156, 193.024 155.561, 194.435 155.025 C 196.001 154.429, 197.922 154.400, 199.368 154.950 C 201.020 155.578, 202.604 155.399, 204.609 154.359 C 206.253 153.506, 208.770 153.093, 210.491 153.394 C 213.784 153.969, 226.879 152.726, 234 151.162 C 236.475 150.618, 238.655 150.327, 238.845 150.515 C 239.439 151.103, 239.022 200.046, 238.400 202.845 C 237.067 208.841, 234.638 213.980, 232.871 214.541 C 231.838 214.869, 229.082 214.242, 226.747 213.148 C 217.364 208.754, 213.305 207.059, 209.176 205.809 C 206.448 204.983, 202.572 202.390, 198.676 198.784 C 191.915 192.527, 190 191.771, 190 195.360 C 190 199.855, 198.690 207.319, 211.686 213.987 C 218.109 217.282, 220.514 218.046, 222.852 217.532 C 224.967 217.068, 226.074 217.308, 226.666 218.360 C 227.520 219.878, 235.179 222.959, 238.161 222.985 C 240.403 223.005, 245 217.385, 245 214.623 C 245 213.400, 245.473 211.927, 246.051 211.349 C 247.233 210.167, 248.538 198.690, 250.012 176.500 C 250.560 168.250, 251.439 160.150, 251.964 158.500 C 252.489 156.850, 253.220 152.509, 253.587 148.853 C 254.196 142.797, 254.072 142.109, 252.193 141.103 C 249.382 139.599, 243.937 139.718, 238.785 141.395 C 232.925 143.303, 221.805 144.774, 200.500 146.458 C 190.600 147.241, 180.091 148.387, 177.147 149.005 C 174.203 149.622, 171.562 149.895, 171.277 149.610 C 169.727 148.060, 169.050 137.983, 169.724 126.500 C 170.529 112.785, 170.584 107.310, 170.094 89.500 C 169.928 83.450, 170.118 75.776, 170.517 72.447 C 171.227 66.521, 171.384 66.270, 178.017 60.447 C 181.743 57.176, 185.329 53.375, 185.987 52 C 186.644 50.625, 188.079 47.770, 189.175 45.655 C 191.820 40.555, 191.007 37, 187.197 37 C 185.205 37, 183.951 37.812, 182.716 39.904 C 181.772 41.502, 181 43.297, 181 43.893 C 181 46.950, 172.082 52.416, 170.187 50.521 C 169.506 49.839, 168.680 42.825, 167.416 27 C 166.645 17.334, 165.772 15, 162.929 15 C 161.514 15, 160.370 16.303, 159.019 19.455 M 152.978 82.522 C 151.124 84.435, 149.021 86, 148.304 86 C 147.587 86, 147 86.417, 147 86.927 C 147 88.166, 141.604 90.796, 137.469 91.572 C 135.637 91.915, 133.896 92.827, 133.601 93.598 C 133.305 94.369, 132.425 95, 131.646 95 C 130.867 95, 129.534 96.062, 128.684 97.360 C 127.349 99.397, 127.265 101.890, 128.068 115.610 C 128.710 126.560, 128.644 135.889, 127.858 145.617 C 127.230 153.381, 127.007 160.890, 127.361 162.303 C 127.946 164.634, 128.356 164.820, 131.753 164.306 C 133.814 163.995, 135.927 163.348, 136.450 162.870 C 136.972 162.391, 138.349 162, 139.509 162 C 140.669 162, 142.491 161.339, 143.559 160.532 C 146.129 158.588, 150 158.569, 150 160.500 C 150 161.325, 150.563 161.985, 151.250 161.967 C 153.004 161.920, 157.422 158.089, 156.633 157.299 C 156.275 156.941, 156.974 155.592, 158.187 154.301 C 159.642 152.752, 160.426 150.599, 160.492 147.972 C 160.547 145.782, 160.989 144.105, 161.474 144.245 C 162.647 144.584, 163.952 139.531, 163.317 137.106 C 163.041 136.049, 161.887 134.942, 160.752 134.645 C 158.764 134.125, 158.716 133.693, 159.433 122.803 C 160.309 109.522, 160.309 109.138, 159.447 93.282 C 158.662 78.834, 157.854 77.492, 152.978 82.522 M 33.068 106.904 C 30.436 110.601, 30.471 111, 33.427 111 C 34.788 111, 36.672 112.039, 37.715 113.364 C 40.216 116.545, 45.177 118.993, 49.200 119.033 C 51.015 119.051, 54.975 119.936, 58 121 C 61.025 122.064, 64.744 122.949, 66.264 122.967 C 67.784 122.985, 69.809 123.413, 70.764 123.917 C 71.719 124.421, 76.069 125.561, 80.431 126.451 C 87.566 127.905, 88.516 127.913, 89.899 126.530 C 91.282 125.146, 91.239 124.809, 89.468 123.171 C 88.386 122.169, 85.025 120.758, 82 120.034 C 78.975 119.311, 75.612 118.107, 74.527 117.359 C 73.443 116.612, 71.620 116, 70.477 116 C 69.335 116, 67.973 115.614, 67.450 115.143 C 66.928 114.672, 63.125 113.265, 59 112.017 C 54.875 110.769, 50.600 109.355, 49.500 108.875 C 47.505 108.004, 35.934 104, 35.412 104 C 35.260 104, 34.206 105.307, 33.068 106.904 M 48.357 114.500 C 49.182 115.325, 50.339 116, 50.929 116 C 52.567 116, 52.203 114.292, 50.418 113.607 C 47.686 112.559, 46.800 112.943, 48.357 114.500 M 162.079 117.583 C 162.127 118.748, 162.364 118.985, 162.683 118.188 C 162.972 117.466, 162.936 116.603, 162.604 116.271 C 162.272 115.939, 162.036 116.529, 162.079 117.583 M 163 149 C 163 149.550, 163.450 150, 164 150 C 164.550 150, 165 149.550, 165 149 C 165 148.450, 164.550 148, 164 148 C 163.450 148, 163 148.450, 163 149 M 244.015 155.250 C 244.024 156.488, 244.414 158.105, 244.883 158.845 C 245.511 159.836, 245.910 159.495, 246.398 157.549 C 246.763 156.096, 246.796 154.479, 246.472 153.954 C 245.401 152.222, 244 152.961, 244.015 155.250 M 37.500 160 C 35.342 161.100, 32.988 162, 32.267 162 C 31.547 162, 30.470 163.068, 29.876 164.374 C 28.424 167.560, 30.200 170.808, 33.779 171.511 C 35.275 171.806, 38.525 172.463, 41 172.972 C 43.475 173.480, 47.975 174.168, 51 174.501 C 54.025 174.833, 59.650 175.731, 63.500 176.496 C 83.998 180.572, 86 180.621, 86 177.056 C 86 175.120, 80.302 172.775, 72.500 171.502 C 70.300 171.143, 67.375 170.474, 66 170.016 C 64.625 169.558, 60.203 168.148, 56.174 166.884 C 52.133 165.616, 48.437 163.817, 47.931 162.871 C 46.580 160.347, 44.031 158, 42.640 158 C 41.971 158, 39.658 158.900, 37.500 160 M 144.813 162.683 C 145.534 162.972, 146.397 162.936, 146.729 162.604 C 147.061 162.272, 146.471 162.036, 145.417 162.079 C 144.252 162.127, 144.015 162.364, 144.813 162.683 M 241.481 189.600 C 241.470 193.120, 241.808 196, 242.231 196 C 243.211 196, 243.214 185.883, 242.235 184.350 C 241.831 183.717, 241.491 186.080, 241.481 189.600 M 31.899 214.435 C 31.660 214.674, 30.347 215.032, 28.982 215.230 C 22.566 216.162, 19.852 220.821, 23.750 224.212 C 26.154 226.304, 65.155 226.035, 72 223.880 C 78.387 221.870, 80.410 220.512, 79.716 218.703 C 79.182 217.310, 78.552 217.310, 73.312 218.707 C 67.974 220.131, 66.416 220.110, 54.224 218.450 C 46.480 217.395, 40.491 216.092, 39.851 215.321 C 38.839 214.101, 32.895 213.439, 31.899 214.435 M 103.890 231.250 C 102.715 233.488, 102.720 233.490, 104.854 231.595 C 107.238 229.479, 107.456 229, 106.035 229 C 105.505 229, 104.539 230.012, 103.890 231.250" stroke="none" fill="black" fill-rule="evenodd"/>
</svg>