<svg xmlns="http://www.w3.org/2000/svg" width="300" height="300" viewBox="0 0 300 300" version="1.1">
	<path d="M 108 47.950 C 108 49.023, 107.277 50.305, 106.393 50.800 C 105.089 51.530, 104.911 52.714, 105.446 57.099 C 106.161 62.959, 106.213 66.959, 105.782 83 C 105.334 99.682, 107.606 107.516, 112.364 105.691 C 114.268 104.960, 114.375 102.405, 113.037 89.688 C 111.967 79.510, 112.264 78.211, 115.860 77.353 C 117.312 77.007, 118.950 76.377, 119.500 75.952 C 120.050 75.528, 125.855 75.582, 132.399 76.072 C 145.657 77.065, 149 76.648, 149 74.001 C 149 72.767, 148 72.054, 145.750 71.682 C 143.963 71.386, 140.475 70.682, 138 70.116 C 131.774 68.693, 118.676 68.724, 117.235 70.165 C 116.348 71.052, 116.479 71.642, 117.785 72.633 C 119.626 74.032, 119.670 74.006, 114.750 74.400 C 113.823 74.474, 113.478 71.596, 113.413 63.259 C 113.344 54.266, 112.994 51.651, 111.663 50.181 C 110.749 49.170, 110 47.815, 110 47.171 C 110 46.527, 109.550 46, 109 46 C 108.450 46, 108 46.878, 108 47.950 M 226.041 76.434 C 224.873 78.323, 223.593 81.770, 223.197 84.095 L 222.475 88.322 213.988 88.643 C 209.319 88.819, 203.402 88.951, 200.837 88.936 C 198.273 88.921, 195.896 89.360, 195.555 89.911 C 195.215 90.462, 194.290 90.665, 193.500 90.362 C 191.586 89.627, 183.268 92.858, 182.602 94.594 C 182.313 95.349, 181.430 95.718, 180.640 95.415 C 179.701 95.055, 178.412 96.273, 176.918 98.932 C 175.661 101.169, 174.206 103, 173.685 103 C 173.139 103, 173.021 104.587, 173.406 106.750 C 173.773 108.813, 174.526 113.200, 175.080 116.500 C 176.310 123.838, 178.567 130.003, 183.912 140.626 C 186.160 145.095, 188 149.155, 188 149.649 C 188 150.142, 189.575 152.937, 191.500 155.860 C 195.451 161.859, 195.594 162.632, 193.506 166.636 C 192.685 168.211, 192.010 170.682, 192.006 172.128 C 192.003 173.573, 191.342 175.301, 190.538 175.969 C 189.733 176.636, 187.232 180.599, 184.980 184.775 C 180.236 193.570, 177.048 197.727, 169.300 205.223 C 168.090 206.394, 167.276 207.637, 167.492 207.986 C 168.203 209.138, 165.778 217, 164.712 217 C 164.137 217, 163.909 217.242, 164.204 217.537 C 165.038 218.371, 170 215.818, 170 214.555 C 170 213.937, 172.475 210.987, 175.500 208 C 178.525 205.013, 181.001 202.103, 181.001 201.534 C 181.002 200.965, 182.186 199.150, 183.633 197.500 C 185.080 195.850, 187.160 192.475, 188.255 190 C 189.350 187.525, 191.091 183.612, 192.123 181.305 C 193.155 178.998, 194 176.426, 194 175.590 C 194 173.842, 196.976 172, 199.798 172 C 200.950 172, 202.891 173.714, 204.611 176.250 C 206.197 178.588, 208.103 180.885, 208.848 181.356 C 209.592 181.827, 210.943 183.123, 211.850 184.237 C 212.758 185.351, 215.675 188.791, 218.333 191.881 C 220.991 194.972, 225.996 201.775, 229.455 207 C 236.618 217.822, 240.336 220.552, 249.353 221.612 C 254.037 222.162, 255.382 221.964, 257.017 220.485 C 258.108 219.498, 259 217.810, 259 216.734 C 259 215.048, 258.527 214.866, 255.578 215.419 C 253.696 215.772, 251.907 215.659, 251.604 215.168 C 251.300 214.676, 249.127 213.730, 246.776 213.065 C 242.251 211.785, 241.773 211.265, 233.045 198.119 C 230.350 194.060, 223.992 186.089, 218.918 180.408 C 206.493 166.497, 205.818 165.407, 206.588 160.500 C 206.933 158.300, 207.279 156.050, 207.358 155.500 C 207.436 154.950, 206.938 154.612, 206.250 154.750 C 204.133 155.173, 204.826 150.858, 206.965 150.299 C 208.045 150.016, 210.393 147.471, 212.182 144.643 C 213.971 141.814, 215.713 139.275, 216.053 139 C 216.393 138.725, 218.134 133.775, 219.922 128 C 221.711 122.225, 223.582 116.375, 224.082 115 C 224.581 113.625, 225.178 110.250, 225.409 107.500 C 226.518 94.299, 229.073 78.073, 230.147 77.409 C 231.559 76.536, 231.106 73, 229.582 73 C 228.801 73, 227.208 74.545, 226.041 76.434 M 212.500 91 C 212.160 91.550, 212.359 92, 212.941 92 C 213.523 92, 214 91.550, 214 91 C 214 90.450, 213.802 90, 213.559 90 C 213.316 90, 212.840 90.450, 212.500 91 M 191 93.039 C 188.557 93.783, 188.569 93.803, 191.500 93.922 C 194.421 94.041, 194.384 94.096, 190.098 96.041 C 187.677 97.140, 184.863 97.774, 183.845 97.451 C 182.827 97.128, 181.388 97.469, 180.647 98.210 C 179.519 99.338, 179.606 101.089, 181.187 109.028 C 182.225 114.238, 183.732 119.918, 184.537 121.651 C 185.342 123.384, 186 125.285, 186 125.876 C 186 126.467, 187.663 129.999, 189.696 133.725 C 191.728 137.451, 194.316 143.142, 195.446 146.371 C 196.576 149.600, 197.950 152.221, 198.500 152.195 C 199.050 152.169, 199.889 150.427, 200.364 148.324 C 200.840 146.221, 201.611 143.600, 202.079 142.500 C 202.547 141.400, 203.834 137.848, 204.939 134.607 C 206.045 131.365, 207.558 127.990, 208.302 127.107 C 210.708 124.250, 212.374 116.695, 212.438 108.357 C 212.486 102.068, 212.898 99.773, 214.250 98.278 C 215.213 97.214, 216 95.539, 216 94.558 C 216 93.078, 215.445 92.884, 212.750 93.422 C 204.422 95.084, 198.240 95.204, 195.884 93.749 C 194.323 92.785, 192.637 92.540, 191 93.039 M 200.750 92.662 C 201.438 92.940, 202.563 92.940, 203.250 92.662 C 203.938 92.385, 203.375 92.158, 202 92.158 C 200.625 92.158, 200.063 92.385, 200.750 92.662 M 169.336 94.567 C 168.497 96.753, 170.391 98.328, 172.899 97.532 C 176.010 96.545, 175.673 93, 172.469 93 C 171.076 93, 169.667 93.705, 169.336 94.567 M 18.336 95.567 C 17.374 98.074, 19.296 100.452, 22.598 100.840 C 24.190 101.027, 25.832 101.702, 26.247 102.340 C 26.799 103.191, 27.238 103.130, 27.893 102.115 C 28.900 100.552, 32.397 101.106, 35.404 103.306 C 37.151 104.583, 37.026 104.669, 33.904 104.337 C 30.582 103.983, 30.560 104.005, 33 105.220 C 34.375 105.904, 36.033 106.973, 36.684 107.595 C 37.335 108.216, 40.260 109.031, 43.184 109.404 C 46.108 109.778, 50.403 110.797, 52.730 111.670 C 56.628 113.132, 57.160 113.125, 59.512 111.584 C 62.755 109.459, 62.093 108.430, 56.952 107.608 C 54.701 107.248, 51.878 106.332, 50.680 105.572 C 49.481 104.812, 46.146 103.881, 43.269 103.504 C 40.392 103.126, 36.946 101.959, 35.611 100.909 C 34.277 99.859, 32.409 99, 31.460 99 C 30.512 99, 28.333 98.151, 26.618 97.114 C 21.599 94.078, 19.087 93.609, 18.336 95.567 M 39.218 106.154 C 39.464 106.895, 40.468 107.655, 41.448 107.846 C 42.588 108.066, 43.069 107.706, 42.782 106.846 C 42.536 106.105, 41.532 105.345, 40.552 105.154 C 39.412 104.934, 38.931 105.294, 39.218 106.154 M 119 109.120 C 112.125 109.601, 104.250 110.205, 101.500 110.461 C 98.750 110.717, 93.471 111.084, 89.770 111.276 C 86.068 111.469, 82.700 111.966, 82.285 112.382 C 81.099 113.568, 86.204 116.953, 89.215 116.978 C 90.880 116.991, 92.325 116.261, 92.952 115.090 C 94.199 112.759, 98.169 113.403, 97.766 115.871 C 97.371 118.289, 106.757 118.053, 108.551 115.600 C 109.480 114.330, 110.344 114.087, 111.668 114.726 C 112.676 115.212, 115.750 115.480, 118.500 115.321 C 121.250 115.162, 130.700 114.863, 139.500 114.656 C 155.854 114.271, 157.494 113.814, 155.207 110.279 C 154.133 108.618, 134.935 108.004, 119 109.120 M 117.813 112.683 C 118.534 112.972, 119.397 112.936, 119.729 112.604 C 120.061 112.272, 119.471 112.036, 118.417 112.079 C 117.252 112.127, 117.015 112.364, 117.813 112.683 M 120.271 121.758 C 116.525 125.103, 115.448 129.853, 117.041 136 C 118.389 141.200, 118.360 140.090, 117.645 159.250 C 117.306 168.318, 117.461 174, 118.047 174 C 118.571 174, 119 174.450, 119 175 C 119 175.550, 118.265 176, 117.366 176 C 115.928 176, 115.793 177.227, 116.236 186.250 C 116.512 191.887, 116.170 201.450, 115.474 207.500 C 114.709 214.163, 114.524 220.475, 115.007 223.510 C 116.206 231.051, 116.539 243.321, 115.586 244.862 C 114.729 246.247, 116.393 247.954, 118.629 247.985 C 120.952 248.016, 122.325 241.906, 121.961 233.155 C 121.399 219.664, 121.926 199.912, 124.521 137.250 C 124.996 125.758, 124.921 119, 124.318 119 C 123.791 119, 121.970 120.241, 120.271 121.758 M 210.035 132.683 C 208.874 134.159, 208.060 136.071, 208.226 136.933 C 208.723 139.516, 210.454 138.325, 211.150 134.922 C 211.508 133.173, 212.408 131.357, 213.150 130.886 C 214.037 130.324, 214.096 130.025, 213.323 130.015 C 212.675 130.007, 211.195 131.207, 210.035 132.683 M 106.430 145.135 C 103.894 150.039, 100.922 153.993, 97.376 157.179 C 93.880 160.320, 90.851 166.771, 89.009 175 C 88.331 178.025, 87.121 181.747, 86.320 183.271 C 85.518 184.795, 85.006 187.270, 85.181 188.771 C 85.439 190.977, 85.057 191.563, 83.189 191.828 C 80.116 192.263, 79.416 194.460, 81.390 197.473 C 83.574 200.805, 83.413 204.595, 80.918 208.632 C 79.341 211.184, 79.175 212, 80.231 212 C 82.538 212, 86.918 206.663, 87.647 202.964 C 88.023 201.059, 89.545 196.782, 91.030 193.459 C 92.514 190.136, 94.566 184.061, 95.589 179.959 C 96.613 175.857, 98.419 170.908, 99.603 168.963 C 106.462 157.695, 111.209 144.809, 109.230 142.830 C 108.483 142.083, 107.656 142.764, 106.430 145.135 M 142.393 152.135 C 139.771 155.568, 137.410 168.792, 138.881 171.809 C 140.281 174.679, 142.782 180.268, 145.009 185.500 C 146.306 188.548, 148.714 191.769, 151.177 193.750 C 155.837 197.499, 156.267 197.590, 158.552 195.305 C 160.146 193.711, 160.090 193.474, 157.624 191.353 C 156.181 190.112, 155 188.791, 155 188.419 C 155 188.047, 152.997 183.637, 150.549 178.621 C 147.052 171.455, 145.813 167.493, 144.767 160.135 C 143.787 153.242, 143.160 151.131, 142.393 152.135 M 30.250 153.723 C 27.003 154.126, 25.611 156, 28.559 156 C 29.416 156, 29.840 156.450, 29.500 157 C 28.414 158.757, 26 158.072, 26 156.007 C 26 154.194, 25.439 154.044, 19.809 154.351 C 14.542 154.639, 13.469 155.022, 12.622 156.920 C 11.897 158.547, 11.975 159.366, 12.911 159.945 C 14.770 161.094, 28.917 160.342, 40.473 158.481 C 50.260 156.904, 53.521 155.651, 52.430 153.887 C 51.897 153.024, 36.780 152.913, 30.250 153.723 M 60.370 198.440 C 58.649 199.190, 56.961 200.255, 56.619 200.808 C 56.277 201.360, 53.636 202.130, 50.749 202.518 C 47.862 202.906, 45.026 203.605, 44.448 204.070 C 43.066 205.182, 26.314 211.087, 25.291 210.823 C 21.342 209.804, 14.558 214.958, 16.843 217.243 C 18.116 218.516, 27 217.274, 27 215.822 C 27 215.242, 27.934 215.011, 29.077 215.310 C 31.280 215.886, 42.477 212.065, 47.500 209.023 C 49.150 208.024, 51.714 207.216, 53.199 207.228 C 56.011 207.251, 63.740 203.223, 65.916 200.601 C 67.280 198.957, 66.599 196.976, 64.691 197.039 C 64.036 197.061, 62.092 197.691, 60.370 198.440 M 51.211 204.601 C 50.501 205.370, 50.362 206, 50.902 206 C 51.940 206, 53.443 204.098, 52.850 203.534 C 52.658 203.351, 51.920 203.831, 51.211 204.601 M 161.667 205.667 C 160.516 206.817, 160.938 208, 162.500 208 C 163.325 208, 164 207.325, 164 206.500 C 164 204.938, 162.817 204.516, 161.667 205.667 M 27 213 C 27 213.550, 27.423 214, 27.941 214 C 28.459 214, 29.160 213.550, 29.500 213 C 29.840 212.450, 29.416 212, 28.559 212 C 27.702 212, 27 212.450, 27 213 M 244.500 217 C 244.840 217.550, 245.766 218, 246.559 218 C 247.352 218, 248 217.550, 248 217 C 248 216.450, 247.073 216, 245.941 216 C 244.809 216, 244.160 216.450, 244.500 217" stroke="none" fill="black" fill-rule="evenodd"/>
</svg>