<svg xmlns="http://www.w3.org/2000/svg" width="300" height="300" viewBox="0 0 300 300" version="1.1">
	<path d="M 143.808 39.892 C 140.570 40.425, 133 45.716, 133 47.446 C 133 47.785, 131.088 49.735, 128.750 51.781 C 120.866 58.679, 111 69.461, 111 71.180 C 111 72.119, 110.194 73.475, 109.209 74.193 C 107 75.805, 103 81.417, 103 82.904 C 103 83.507, 104.074 84, 105.387 84 C 107.149 84, 109.298 82.101, 113.592 76.750 C 123.638 64.229, 128.413 60.009, 137.500 55.624 C 139.150 54.828, 141.581 53.237, 142.903 52.088 C 146.335 49.106, 147.816 49.450, 152.476 54.313 C 155.714 57.693, 157.994 59.015, 163.004 60.421 C 166.521 61.408, 170.322 62.784, 171.450 63.479 C 172.577 64.173, 176.875 65.870, 181 67.248 C 200.152 73.649, 201.322 73.907, 202.506 71.991 C 203.950 69.654, 201.635 67.114, 195.722 64.548 C 192.300 63.063, 188.037 61.207, 186.250 60.424 C 184.463 59.641, 181.538 58.368, 179.750 57.596 C 177.963 56.824, 174.445 55.249, 171.934 54.096 C 169.423 52.943, 166.666 52, 165.807 52 C 164.948 52, 163.685 51.325, 163 50.500 C 162.315 49.675, 161.196 49, 160.512 49 C 158.424 49, 153.901 44.887, 154.071 43.142 C 154.498 38.746, 153.222 38.341, 143.808 39.892 M 163.813 56.683 C 164.534 56.972, 165.397 56.936, 165.729 56.604 C 166.061 56.272, 165.471 56.036, 164.417 56.079 C 163.252 56.127, 163.015 56.364, 163.813 56.683 M 115.630 96.856 C 114.645 97.944, 113.988 99.874, 114.170 101.144 C 114.617 104.267, 120.121 105.145, 134.464 104.381 C 155.950 103.237, 167.606 103.288, 176.500 104.565 C 194.620 107.167, 195 107.154, 195 103.895 C 195 102.804, 194.017 101.585, 192.750 101.106 C 188.503 99.501, 183.495 98.160, 179.255 97.493 C 176.921 97.126, 174.757 96.415, 174.446 95.913 C 174.136 95.411, 168.734 95, 162.441 95 C 152.938 95, 151 95.254, 151 96.500 C 151 97.325, 151.540 98, 152.200 98 C 154.197 98, 151.756 99.795, 148.750 100.538 C 145.419 101.360, 145.022 99.594, 148.160 97.914 C 150.129 96.861, 150.168 96.674, 148.608 95.800 C 147.507 95.184, 146.467 95.194, 145.698 95.828 C 144.377 96.915, 122.752 96.708, 119.461 95.578 C 118.054 95.094, 116.865 95.491, 115.630 96.856 M 26.483 101.402 L 24.651 104.804 27.798 107.952 C 32.424 112.578, 39.063 114.122, 56.749 114.684 C 70.400 115.118, 72.066 114.992, 72.645 113.483 C 73 112.557, 72.759 111.469, 72.108 111.066 C 70.394 110.007, 50.949 106.717, 50.291 107.375 C 49.987 107.680, 48.784 107.409, 47.619 106.772 C 45.645 105.694, 38.436 104.151, 33.250 103.697 C 31.510 103.545, 31 102.877, 31 100.750 C 31 96.933, 28.712 97.263, 26.483 101.402 M 113.146 121.373 C 110.904 122.446, 110.823 122.837, 111.424 129.594 C 111.771 133.495, 112.062 142.473, 112.071 149.544 C 112.088 162.379, 112.802 165.397, 115.573 164.334 C 116.531 163.966, 117 164.479, 117 165.893 C 117 167.052, 116.373 168, 115.607 168 C 113.782 168, 113.082 169.979, 113.722 173.328 C 114.297 176.332, 116 178, 116 175.559 C 116 171.870, 118.918 175.476, 118.986 179.250 C 119.009 180.507, 116.201 180.085, 115.662 178.750 C 115.385 178.063, 115.122 180.174, 115.079 183.441 C 115.007 188.888, 115.123 189.221, 116.481 187.441 C 117.763 185.761, 118.097 185.702, 118.966 187 C 120.544 189.359, 120.251 195, 118.550 195 C 117.752 195, 116.652 194.213, 116.105 193.250 C 115.435 192.070, 115.269 199.324, 115.597 215.500 C 115.940 232.413, 116.442 239.860, 117.298 240.720 C 118.837 242.268, 122.637 241.319, 123.580 239.151 C 123.975 238.243, 124.485 224.370, 124.712 208.322 C 125.067 183.265, 124.905 178.717, 123.563 176.121 C 122.623 174.305, 122 170.547, 122 166.699 C 122 163.179, 121.501 158.867, 120.891 157.118 C 120.069 154.760, 120.098 151.360, 121.004 143.969 C 122.066 135.296, 122.470 134, 124.112 134 C 125.151 134, 126 134.395, 126 134.879 C 126 137.170, 142.020 140.052, 144.303 138.171 C 144.961 137.629, 147.057 137.031, 148.960 136.843 L 152.420 136.500 152.715 144.500 C 152.877 148.900, 153.639 154.525, 154.409 157 C 155.179 159.475, 156.114 164.253, 156.487 167.617 L 157.166 173.734 147.855 173.617 C 140.212 173.521, 138.489 173.776, 138.239 175.038 C 137.722 177.652, 143.691 181.206, 148.859 181.361 L 153.500 181.500 153.815 185.905 C 153.988 188.328, 153.411 195.885, 152.533 202.699 C 151.654 209.512, 151.219 215.545, 151.565 216.104 C 151.911 216.664, 152.413 218.558, 152.681 220.311 C 153.445 225.313, 155.325 228.500, 157.513 228.500 C 159.361 228.500, 159.508 227.768, 159.622 218 C 159.690 212.225, 160.229 205.479, 160.821 203.009 C 161.412 200.539, 161.648 196.709, 161.345 194.499 C 161.042 192.288, 161.278 188.684, 161.869 186.490 L 162.944 182.500 172.898 182.226 C 178.915 182.060, 183.102 182.356, 183.485 182.976 C 183.833 183.539, 184.991 184, 186.059 184 C 188.374 184, 188.472 184.862, 186.573 188.521 L 185.147 191.271 184.651 187.885 C 184.378 186.023, 184.357 190.800, 184.604 198.500 C 185.328 221.007, 186.639 227.120, 190.433 225.664 C 191.774 225.150, 192 222.521, 192 207.474 C 192 197.800, 192.503 187.886, 193.119 185.443 C 194.233 181.018, 194.256 180.999, 198.869 180.861 C 206.996 180.617, 211.286 180.365, 220.485 179.595 C 225.427 179.182, 229.702 178.825, 229.985 178.803 C 232.719 178.591, 233 179.403, 233 187.500 C 233 192.500, 233.412 196, 234 196 C 234.550 196, 235 197.098, 235 198.441 C 235 199.784, 235.450 201.160, 236 201.500 C 237.931 202.693, 237.110 206, 234.883 206 C 233.176 206, 232.883 206.435, 233.370 208.250 C 233.701 209.488, 233.979 211.010, 233.986 211.633 C 233.994 212.257, 234.900 213.002, 236 213.290 C 237.100 213.577, 238 214.556, 238 215.465 C 238 216.374, 237.549 216.839, 236.998 216.499 C 234.513 214.963, 232.950 229.379, 235.408 231.157 C 236.454 231.913, 233.473 238.945, 231.404 240.599 C 229.378 242.220, 229.247 246.053, 231.176 247.307 C 232.535 248.190, 233.700 247.649, 237.334 244.448 C 239.798 242.277, 242.146 239.604, 242.552 238.508 C 243.629 235.595, 243.263 206.085, 242.113 203.070 C 241.573 201.657, 240.940 191.950, 240.706 181.500 C 240.360 166.053, 239.901 161.285, 238.249 156 C 237.133 152.425, 235.653 146.800, 234.962 143.500 C 233.399 136.034, 232.074 133.827, 227.434 130.959 L 223.766 128.692 174.624 129.304 C 147.596 129.641, 124.887 129.548, 124.160 129.099 C 123.432 128.649, 122.713 126.755, 122.561 124.891 C 122.409 123.026, 122.221 121.162, 122.142 120.750 C 121.933 119.648, 115.873 120.067, 113.146 121.373 M 115.667 128.667 C 114.516 129.817, 114.938 131, 116.500 131 C 117.325 131, 118 130.325, 118 129.500 C 118 127.938, 116.817 127.516, 115.667 128.667 M 182 134.995 C 181.175 135.531, 176.851 135.976, 172.391 135.985 L 164.282 136 163.784 144.250 C 163.074 155.992, 164.412 173.015, 166.128 174.092 C 167.309 174.834, 183.876 174.247, 184.848 173.429 C 185.040 173.268, 185.164 166.530, 185.124 158.455 C 185.084 150.331, 185.502 142.931, 186.061 141.887 C 186.616 140.849, 188.103 140, 189.366 140 C 193.448 140, 194.413 143.713, 194.459 159.584 C 194.494 172.023, 194.707 173.931, 196 173.381 C 200.346 171.531, 201.905 171.771, 202.562 174.392 C 203.313 177.384, 206 177.946, 206 175.111 C 206 172.677, 210.006 171.896, 221.489 172.091 C 226.259 172.173, 230.568 171.832, 231.065 171.335 C 232.174 170.226, 226.745 147.300, 223.933 141.209 C 222.843 138.849, 221.400 136.739, 220.726 136.520 C 220.052 136.300, 212.067 135.895, 202.982 135.618 C 193.898 135.342, 185.798 134.869, 184.982 134.568 C 184.167 134.267, 182.825 134.459, 182 134.995 M 230.079 149.583 C 230.127 150.748, 230.364 150.985, 230.683 150.188 C 230.972 149.466, 230.936 148.603, 230.604 148.271 C 230.272 147.939, 230.036 148.529, 230.079 149.583 M 22.655 152.829 C 20.332 155.396, 20.557 160.289, 23.105 162.595 C 24.803 164.133, 26.973 164.543, 34.355 164.724 C 39.385 164.848, 44.175 165.054, 45 165.183 C 45.825 165.312, 48.629 165.049, 51.230 164.598 C 55.193 163.912, 56.540 164.121, 59.537 165.889 C 65.244 169.257, 67.861 168.394, 66.087 163.730 C 64.366 159.203, 58.907 157.008, 49.193 156.936 C 38.869 156.860, 29.926 155.148, 27.265 152.740 C 24.876 150.578, 24.689 150.581, 22.655 152.829 M 188.079 156.583 C 188.127 157.748, 188.364 157.985, 188.683 157.188 C 188.972 156.466, 188.936 155.603, 188.604 155.271 C 188.272 154.939, 188.036 155.529, 188.079 156.583 M 233.507 165 C 233.769 168.025, 233.987 171.738, 233.991 173.250 C 233.996 174.762, 234.478 176, 235.061 176 C 236.161 176, 235.612 169.826, 233.906 163 C 233.184 160.113, 233.114 160.463, 233.507 165 M 129.666 179.427 C 128.964 181.258, 131.522 183.582, 132.500 182.001 C 133.324 180.667, 132.416 178, 131.138 178 C 130.630 178, 129.968 178.642, 129.666 179.427 M 67.537 200.199 C 64.876 201.742, 57.236 203.308, 53.206 203.135 C 51.394 203.058, 48.569 203.689, 46.928 204.537 C 45.064 205.501, 42.735 205.858, 40.722 205.489 C 38.950 205.164, 34.350 205.621, 30.500 206.505 C 26.650 207.389, 21.776 208.483, 19.670 208.936 C 15.206 209.897, 14.487 210.530, 13.605 214.272 C 13.124 216.311, 13.373 217.206, 14.548 217.657 C 16.519 218.413, 30.238 216.233, 30.972 215.046 C 31.265 214.571, 34.879 213.477, 39.002 212.613 C 48.314 210.663, 59.028 208.344, 60.945 207.863 C 64.397 206.997, 70.419 203.319, 71.772 201.250 C 73.118 199.193, 73.083 199.003, 71.372 199.030 C 70.342 199.047, 68.617 199.573, 67.537 200.199 M 233.079 200.583 C 233.127 201.748, 233.364 201.985, 233.683 201.188 C 233.972 200.466, 233.936 199.603, 233.604 199.271 C 233.272 198.939, 233.036 199.529, 233.079 200.583 M 236.158 209 C 236.158 210.375, 236.385 210.938, 236.662 210.250 C 236.940 209.563, 236.940 208.438, 236.662 207.750 C 236.385 207.063, 236.158 207.625, 236.158 209 M 117.531 210.293 C 117.103 211.279, 117.034 212.367, 117.376 212.710 C 118.392 213.725, 119.211 212.299, 118.743 210.328 C 118.329 208.581, 118.275 208.580, 117.531 210.293 M 118.500 220 C 118.125 221.183, 118.042 222.376, 118.317 222.651 C 118.592 222.926, 119.125 222.183, 119.500 221 C 119.875 219.817, 119.958 218.624, 119.683 218.349 C 119.408 218.074, 118.875 218.817, 118.500 220 M 236.336 227.567 C 236.005 228.429, 236.244 229.644, 236.867 230.267 C 237.711 231.111, 238 230.711, 238 228.700 C 238 225.691, 237.251 225.182, 236.336 227.567" stroke="none" fill="black" fill-rule="evenodd"/>
</svg>