<svg xmlns="http://www.w3.org/2000/svg" width="300" height="300" viewBox="0 0 300 300" version="1.1">
	<path d="M 189 21.622 C 181.317 22.832, 173.705 24.962, 172.400 26.267 C 171.997 26.670, 170.617 27, 169.333 27 C 168.050 27, 167 27.450, 167 28 C 167 28.550, 166.075 29, 164.944 29 C 163.813 29, 160.167 30.350, 156.841 32 C 153.516 33.650, 150.256 35, 149.597 35 C 148.938 35, 147.253 35.541, 145.853 36.201 C 142.292 37.882, 141.108 43.188, 140.342 60.892 C 139.988 69.074, 139.209 76.333, 138.601 77.131 C 137.995 77.924, 136.092 79.561, 134.371 80.768 C 129.774 83.994, 129.597 86.275, 133.663 89.875 C 136.935 92.771, 137.031 93.045, 135.707 95.707 C 134.944 97.243, 133.772 101.875, 133.105 106 C 131.404 116.503, 129.763 123, 128.811 123 C 128.365 123, 128 124.500, 128 126.333 C 128 128.167, 127.709 129.958, 127.353 130.314 C 125.878 131.789, 123.063 141.799, 123.033 145.679 C 123.015 147.977, 122.438 150.452, 121.750 151.179 C 119.981 153.049, 118.316 156.580, 115.943 163.500 C 112.475 173.607, 112.161 174.848, 108.078 194.500 C 107.621 196.700, 106.551 200.372, 105.700 202.660 C 104.849 204.947, 104.407 207.074, 104.719 207.385 C 105.030 207.697, 104.827 208.525, 104.268 209.226 C 103.709 209.927, 103.017 211.850, 102.730 213.500 C 101.959 217.943, 98.075 231.236, 96.964 233.236 C 96.434 234.191, 96 235.603, 96 236.372 C 96 237.142, 95.328 239.060, 94.506 240.636 C 93.685 242.211, 93.010 244.491, 93.006 245.703 C 93.003 246.915, 92.494 249.165, 91.875 250.703 C 91.257 252.241, 90.392 254.400, 89.953 255.500 C 89.515 256.600, 88.869 258.810, 88.519 260.410 C 88.168 262.011, 86.333 265.129, 84.441 267.340 C 80.835 271.553, 79.873 276.473, 82.200 278.800 C 83.754 280.354, 89.073 280.290, 91 278.695 C 95.130 275.278, 100.222 264.291, 101.055 257 C 102.278 246.291, 103.084 241.712, 104.067 239.874 C 104.580 238.916, 105 237.202, 105 236.066 C 105 234.930, 105.563 233.999, 106.250 233.999 C 107.021 233.998, 108.162 230.672, 109.228 225.321 C 110.178 220.550, 111.351 216.388, 111.834 216.073 C 112.819 215.430, 114.512 208.308, 114.228 206 C 113.977 203.962, 116.168 194.729, 117.183 193.550 C 117.632 193.028, 118 190.720, 118 188.422 C 118 185.929, 118.605 183.743, 119.500 183 C 120.325 182.315, 121 180.712, 121 179.437 C 121 178.161, 121.450 176.840, 122 176.500 C 122.550 176.160, 123 174.327, 123 172.427 C 123 170.527, 123.400 168.191, 123.889 167.236 C 124.378 166.281, 125.569 163.700, 126.536 161.500 C 127.503 159.300, 128.678 156.719, 129.147 155.764 C 129.616 154.809, 130 152.913, 130 151.551 C 130 150.188, 130.946 146.695, 132.103 143.787 C 134.394 138.026, 135.566 133.701, 138.957 118.500 C 141.103 108.878, 143.164 100.196, 144.968 93.177 C 145.918 89.483, 148.637 86, 150.572 86 C 151.266 86, 151.983 85.662, 152.167 85.250 C 152.700 84.050, 159.859 81.005, 162.284 80.947 C 163.503 80.918, 169 78.717, 174.500 76.056 C 181.871 72.489, 184.954 71.457, 186.227 72.131 C 187.483 72.796, 188.506 72.494, 189.977 71.023 C 191.090 69.910, 192.620 69, 193.378 69 C 195.784 69, 196.802 66.680, 197.325 60 C 197.606 56.425, 198.357 51.025, 198.995 48 C 200.894 38.994, 201.280 30.878, 200.011 26.642 C 198.186 20.551, 197.573 20.272, 189 21.622 M 183.250 28.662 C 181.216 29.483, 181.826 32, 184.059 32 C 187.198 32, 185.403 33.799, 180.926 35.140 C 177.883 36.052, 176.658 36.058, 175.768 35.168 C 174.877 34.277, 174.885 34, 175.800 34 C 176.460 34, 177 33.550, 177 33 C 177 31.504, 171.063 31.794, 169.490 33.367 C 168.333 34.524, 168.522 34.917, 170.713 35.915 C 173.727 37.289, 172.734 38.986, 168.655 39.434 C 167.226 39.590, 164.582 40.842, 162.779 42.215 C 160.975 43.589, 158.600 45.010, 157.500 45.373 C 154.832 46.254, 152 52.177, 152 56.874 C 152 58.960, 151.692 60.975, 151.315 61.352 C 150.332 62.334, 148.033 69.191, 148.015 71.191 C 147.994 73.612, 149.846 74.420, 151.813 72.848 C 154.920 70.366, 157.953 69, 160.361 69 C 163.048 69, 169.409 66.921, 175.739 63.974 C 178.071 62.888, 181.713 62, 183.834 62 C 190.543 62, 191.314 60.178, 190.824 45.471 C 190.591 38.463, 189.950 32.564, 189.379 32.184 C 188.816 31.808, 188.064 30.712, 187.708 29.750 C 187.070 28.020, 185.681 27.681, 183.250 28.662 M 42.952 77.752 C 39.899 80.480, 39.598 84, 42.418 84 C 43.081 84, 44.650 84.957, 45.905 86.127 C 48.321 88.377, 53.385 90.094, 58.716 90.472 C 60.485 90.597, 62.513 91.181, 63.222 91.769 C 63.931 92.358, 65.634 93.061, 67.006 93.332 C 68.378 93.603, 72.072 94.383, 75.215 95.064 C 81.480 96.422, 84 95.518, 84 91.913 C 84 89.625, 81.662 88.335, 74.880 86.881 C 71.980 86.259, 68.988 85.131, 68.232 84.375 C 67.476 83.619, 66.016 83, 64.988 83 C 63.959 83, 62.840 82.550, 62.500 82 C 62.160 81.450, 60.146 81, 58.024 81 C 55.903 81, 54.017 80.662, 53.833 80.250 C 53.455 79.399, 47.358 75, 46.556 75 C 46.268 75, 44.646 76.238, 42.952 77.752 M 225.951 101.750 C 224.099 130.363, 223.844 140.336, 224.909 142.446 C 225.480 143.576, 226.071 146.254, 226.223 148.399 C 226.497 152.255, 229.064 155.269, 230.690 153.643 C 231.122 153.211, 231.393 149.029, 231.292 144.351 C 231.191 139.672, 231.586 134.642, 232.170 133.172 C 233.143 130.720, 233.935 125.987, 235.626 112.500 C 235.971 109.750, 236.672 106.973, 237.184 106.328 C 237.776 105.584, 237.642 104.399, 236.817 103.078 C 235.306 100.659, 234.717 100.560, 231.856 102.250 C 230.162 103.250, 229.648 103.250, 229.286 102.250 C 228.802 100.913, 226.033 100.497, 225.951 101.750 M 199.208 103.780 C 197.948 103.984, 195.430 105.636, 193.614 107.453 C 190.816 110.250, 190.210 111.716, 189.655 117.025 C 189.295 120.473, 188.997 125.365, 188.994 127.897 C 188.991 130.429, 188.568 134.075, 188.053 136 C 187.539 137.925, 186.901 142.800, 186.635 146.834 C 186.043 155.849, 184.949 156.924, 176.317 156.968 C 170.998 156.996, 170.046 156.721, 169.500 155 C 169.151 153.900, 168.475 153, 167.999 153 C 167.523 153, 166.924 148.613, 166.670 143.250 C 166.065 130.524, 164.511 120.934, 162.891 119.933 C 161.333 118.970, 153.344 119.323, 152.265 120.402 C 150.774 121.892, 151.457 129.743, 153.250 131.724 C 154.213 132.787, 155 135.085, 155 136.829 C 155 139.093, 155.466 140, 156.629 140 C 158.024 140, 158.163 140.840, 157.596 145.850 C 157.073 150.473, 157.256 151.968, 158.467 152.973 C 159.347 153.703, 160 155.847, 160 158.009 C 160 161.456, 160.274 161.827, 163.250 162.420 C 165.037 162.776, 168.583 163.190, 171.129 163.339 C 174.942 163.563, 176.318 164.218, 178.939 167.056 L 182.121 170.500 181.651 181.500 C 181.392 187.550, 180.438 196.550, 179.530 201.500 C 177.776 211.069, 177.609 214.086, 178.323 223.301 C 178.736 228.638, 178.571 229.235, 176.254 230.753 C 174.868 231.661, 172.557 232.507, 171.117 232.633 C 168.812 232.835, 165.776 233.322, 152.295 235.654 C 148.544 236.303, 148.446 236.052, 147.558 223.478 C 147.246 219.066, 146.543 213.894, 145.996 211.985 C 145.448 210.075, 145 204.348, 145 199.257 C 145 191.719, 144.723 190, 143.508 190 C 142.688 190, 141.455 190.900, 140.768 192 C 140.081 193.100, 138.565 194, 137.400 194 C 135.404 194, 135.295 194.449, 135.512 201.750 C 135.640 206.012, 136.486 214.590, 137.393 220.810 C 138.301 227.031, 138.806 232.505, 138.515 232.975 C 138.225 233.445, 138.553 234.036, 139.244 234.290 C 140.249 234.658, 140.250 235.015, 139.250 236.075 C 137.506 237.923, 137.657 243.654, 139.468 244.349 C 140.275 244.659, 141.215 244.460, 141.557 243.908 C 142.339 242.642, 145 244.694, 145 246.563 C 145 248.640, 146.445 249.024, 150.108 247.920 C 151.973 247.357, 155.438 246.746, 157.808 246.561 C 160.454 246.354, 162.610 245.549, 163.397 244.472 C 164.596 242.832, 164.720 242.829, 165.332 244.422 C 165.875 245.839, 166.785 246.010, 170.743 245.440 C 175.080 244.816, 179.039 242.710, 178.842 241.131 C 178.620 239.349, 179.105 238, 179.969 238 C 180.501 238, 180.706 238.603, 180.423 239.340 C 179.764 241.057, 182.551 243.535, 183.470 242.049 C 183.826 241.472, 185.216 241, 186.559 241 C 187.902 241, 189 240.550, 189 240 C 189 239.450, 191.395 239, 194.322 239 C 197.249 239, 201.703 238.298, 204.219 237.441 C 206.736 236.584, 210.973 236.021, 213.635 236.191 C 218.312 236.490, 218.495 236.618, 219.054 240 C 219.973 245.549, 222.723 250.305, 226.500 252.876 C 229.359 254.821, 230.264 255.026, 231.496 254.004 C 233.055 252.710, 233.608 248, 232.201 248 C 229.026 248, 228.163 232.552, 230.170 211.672 C 231.798 194.748, 231.794 194.614, 229.659 194.187 C 227.738 193.802, 226.337 195.041, 221.750 201.184 C 219.203 204.595, 219 205.565, 219 214.337 L 219 223.807 214.250 224.304 C 211.637 224.577, 207.323 225.289, 204.663 225.886 C 199.770 226.985, 197.441 227.380, 188.620 228.609 L 183.739 229.289 184.397 220.395 C 185.169 209.949, 186.995 198.897, 188.171 197.550 C 188.627 197.027, 188.999 194.777, 188.998 192.550 C 188.996 187.702, 191.716 171.617, 193.193 167.750 C 193.770 166.238, 194.615 165, 195.070 165 C 195.525 165, 197.111 163.875, 198.595 162.500 C 200.078 161.125, 201.901 160, 202.646 160 C 203.391 160, 204 159.325, 204 158.500 C 204 157.586, 204.932 157, 206.386 157 C 207.698 157, 210.060 156.328, 211.636 155.506 C 213.211 154.685, 215.175 153.995, 216 153.974 C 218.717 153.906, 221 151.333, 221 148.340 C 221 142.733, 217.303 141.586, 210.236 145 C 207.959 146.100, 205.486 147, 204.739 147 C 203.993 147, 202.509 147.661, 201.441 148.468 C 200.374 149.276, 198.743 149.951, 197.817 149.968 C 195.840 150.006, 194.433 146.436, 195.742 144.702 C 197.667 142.153, 199.001 134.925, 199.031 126.884 C 199.057 120.041, 199.515 117.581, 201.522 113.500 C 205.376 105.666, 204.716 102.892, 199.208 103.780 M 132.195 125.500 C 132.215 127.150, 132.439 127.704, 132.693 126.731 C 132.947 125.758, 132.930 124.408, 132.656 123.731 C 132.382 123.054, 132.175 123.850, 132.195 125.500 M 48 145.605 C 44.425 146.883, 40.375 147.952, 39 147.980 C 34.763 148.065, 26.192 151.665, 23.271 154.587 C 22.572 155.285, 22 156.789, 22 157.929 C 22 159.624, 22.680 160.032, 25.750 160.175 C 31.467 160.442, 37.386 159.908, 38.500 159.024 C 39.050 158.588, 41.060 157.897, 42.967 157.488 C 44.874 157.080, 47.124 156.367, 47.967 155.904 C 51.580 153.922, 59.427 152, 63.913 152 C 69.718 152, 71.804 150.261, 69.817 147.078 C 69.103 145.935, 67.952 145, 67.259 145 C 66.567 145, 66 144.550, 66 144 C 66 142.206, 54.683 143.215, 48 145.605 M 189.015 147.250 C 189.026 149.460, 189.307 150.064, 189.893 149.139 C 190.679 147.898, 190.293 144, 189.383 144 C 189.173 144, 189.007 145.463, 189.015 147.250 M 167 167.393 C 167 168.364, 169.817 168.729, 171.091 167.923 C 172.116 167.273, 171.751 167.026, 169.750 167.015 C 168.238 167.007, 167 167.177, 167 167.393 M 113.572 179.750 C 114.069 180.162, 114.813 180.950, 115.223 181.500 C 115.649 182.071, 115.976 181.749, 115.985 180.750 C 115.993 179.777, 115.260 179, 114.333 179 C 113.417 179, 113.074 179.338, 113.572 179.750 M 72.038 199.634 C 69.584 200.935, 66.123 202, 64.347 202 C 62.571 202, 60.869 202.402, 60.565 202.894 C 60.261 203.386, 58.322 204.017, 56.256 204.296 C 49.593 205.195, 34.540 209.378, 33.179 210.709 C 32.452 211.419, 31.109 212, 30.194 212 C 28.291 212, 18.250 216.859, 16.173 218.785 C 14.181 220.632, 16.437 225.646, 19.757 226.752 C 22.367 227.622, 29 226.190, 29 224.755 C 29 224.340, 29.675 224, 30.500 224 C 31.325 224, 32 223.611, 32 223.136 C 32 222.220, 39.673 219, 41.855 219 C 42.563 219, 43.818 218.325, 44.643 217.500 C 45.468 216.675, 47.209 216, 48.512 216 C 49.816 216, 51.160 215.550, 51.500 215 C 51.840 214.450, 52.976 214, 54.025 214 C 55.748 214, 60.644 212.200, 65.236 209.878 C 66.191 209.395, 67.724 209, 68.642 209 C 69.560 209, 71.786 207.875, 73.589 206.500 C 75.392 205.125, 77.154 204, 77.505 204 C 78.335 204, 81 201.332, 81 200.500 C 81 199.506, 78.243 196.984, 77.321 197.134 C 76.870 197.208, 74.492 198.333, 72.038 199.634 M 109.241 200.986 C 107.587 203.634, 107.675 205, 109.500 205 C 110.500 205, 111 204, 111 202 C 111 198.456, 110.868 198.380, 109.241 200.986 M 108 208 C 108 208.550, 108.450 209, 109 209 C 109.550 209, 110 208.550, 110 208 C 110 207.450, 109.550 207, 109 207 C 108.450 207, 108 207.450, 108 208 M 106 214.059 C 106 214.641, 106.450 214.840, 107 214.500 C 107.550 214.160, 108 213.684, 108 213.441 C 108 213.198, 107.550 213, 107 213 C 106.450 213, 106 213.477, 106 214.059 M 140.195 230.500 C 140.215 232.150, 140.439 232.704, 140.693 231.731 C 140.947 230.758, 140.930 229.408, 140.656 228.731 C 140.382 228.054, 140.175 228.850, 140.195 230.500 M 152 244.059 C 152 244.641, 152.450 244.840, 153 244.500 C 153.550 244.160, 154 243.684, 154 243.441 C 154 243.198, 153.550 243, 153 243 C 152.450 243, 152 243.477, 152 244.059 M 96 247 C 96 247.550, 96.450 248, 97 248 C 97.550 248, 98 247.550, 98 247 C 98 246.450, 97.550 246, 97 246 C 96.450 246, 96 246.450, 96 247 M 95.500 253 C 95.125 254.183, 95.042 255.376, 95.317 255.651 C 95.592 255.926, 96.125 255.183, 96.500 254 C 96.875 252.817, 96.958 251.624, 96.683 251.349 C 96.408 251.074, 95.875 251.817, 95.500 253" stroke="none" fill="black" fill-rule="evenodd"/>
</svg>