<svg xmlns="http://www.w3.org/2000/svg" width="300" height="300" viewBox="0 0 300 300" version="1.1">
	<path d="M 192.307 57.880 C 188.563 61.115, 182.583 66.557, 179.019 69.974 C 175.454 73.392, 171.218 76.870, 169.606 77.704 C 165.666 79.741, 160 85.344, 160 87.203 C 160 88.028, 158.600 90.168, 156.889 91.959 C 153.784 95.208, 153.779 95.231, 154.284 104.129 C 154.563 109.031, 155.235 113.596, 155.777 114.271 C 157.503 116.420, 158.300 134.545, 158.125 167.677 C 158.003 190.670, 158.277 200.053, 159.084 200.552 C 159.892 201.052, 159.836 201.483, 158.885 202.071 C 157.935 202.659, 157.633 204.966, 157.825 210.196 C 158.195 220.326, 158.490 221, 162.548 221 C 166.775 221, 167.551 218.798, 166.306 210.347 C 165.828 207.100, 165.817 192.494, 166.283 177.500 C 166.744 162.650, 166.942 142.512, 166.723 132.750 L 166.325 115 169.113 115 C 170.647 115, 174.213 114.504, 177.038 113.898 C 181.292 112.986, 182.341 112.321, 183.140 110.028 C 183.993 107.583, 184.830 107.142, 190.303 106.255 C 198.179 104.980, 200.160 105.775, 202.500 111.150 C 203.541 113.543, 204.527 115.685, 204.690 115.911 C 204.854 116.136, 205.912 115.485, 207.042 114.462 C 209.534 112.207, 210.582 111.964, 219.500 111.575 C 223.350 111.407, 227.063 111.209, 227.750 111.135 C 229.520 110.944, 229.438 103, 227.667 103 C 226.933 103, 226.029 103.304, 225.657 103.677 C 224.837 104.496, 209.332 104.240, 206.562 103.361 C 203.213 102.298, 187.316 102.498, 185.868 103.620 C 185.116 104.204, 181.125 105.253, 177 105.953 C 172.875 106.652, 168.739 107.895, 167.808 108.715 C 166.255 110.082, 165.971 109.722, 164.359 104.353 C 161.563 95.039, 161.824 93.070, 166.454 88.550 C 170.737 84.369, 173.388 82.434, 176.250 81.399 C 177.213 81.051, 178 80.369, 178 79.883 C 178 79.398, 178.563 78.994, 179.250 78.987 C 179.938 78.979, 182.975 76.709, 186 73.941 C 189.025 71.174, 192.738 68.243, 194.250 67.429 C 195.762 66.615, 197 65.471, 197 64.888 C 197 64.304, 198.416 61.855, 200.148 59.444 C 202.770 55.792, 203.083 54.805, 202.025 53.530 C 201.327 52.689, 200.386 52, 199.935 52 C 199.483 52, 196.051 54.646, 192.307 57.880 M 120.500 70 C 120.160 70.550, 120.359 71, 120.941 71 C 121.523 71, 122 70.550, 122 70 C 122 69.450, 121.802 69, 121.559 69 C 121.316 69, 120.840 69.450, 120.500 70 M 119 73.985 C 119 74.713, 118.332 74.958, 117.359 74.584 C 115.124 73.727, 112.183 74.780, 111.122 76.818 C 110.603 77.816, 110.764 82.744, 111.520 88.943 C 112.627 98.018, 112.597 99.685, 111.290 101.679 C 109.919 103.772, 109.978 104.297, 111.957 107.651 C 113.852 110.863, 114.183 113.220, 114.572 126.274 C 114.817 134.494, 115.239 141.578, 115.510 142.016 C 115.780 142.454, 116.902 142.577, 118.001 142.289 C 119.535 141.888, 120 142.259, 120 143.883 C 120 145.371, 119.372 146, 117.889 146 C 116.034 146, 115.854 146.408, 116.408 149.362 C 117.206 153.616, 116.062 154.566, 109 155.516 C 105.975 155.923, 101.166 157.324, 98.314 158.628 C 95.462 159.933, 92.519 161, 91.776 161 C 91.032 161, 88.658 161.900, 86.500 163 C 84.342 164.100, 81.997 165, 81.289 165 C 79.365 165, 79.733 167.787, 81.803 168.895 C 83.189 169.636, 83.899 169.391, 84.870 167.836 C 86.034 165.973, 86.275 165.938, 87.896 167.406 C 90.122 169.420, 90.129 169.420, 95.539 166.877 C 99.113 165.197, 99.932 164.361, 99.461 162.877 C 99.061 161.617, 99.353 161, 100.349 161 C 101.166 161, 101.983 161.439, 102.167 161.974 C 102.643 163.366, 107 162.024, 107 160.486 C 107 159.677, 108.198 159.259, 110.250 159.353 C 112.375 159.449, 113.413 159.067, 113.250 158.250 C 112.792 155.960, 114.546 156.961, 116.354 160.022 C 117.602 162.134, 118.077 164.771, 117.933 168.772 C 117.820 171.923, 118.060 177.915, 118.466 182.090 C 118.872 186.264, 119.346 192.564, 119.517 196.090 C 119.871 203.346, 120.839 210.774, 121.721 213 C 122.048 213.825, 122.233 215.029, 122.131 215.675 C 121.802 217.775, 126.077 220.029, 128.218 218.884 C 129.986 217.937, 130.082 216.984, 129.533 205.910 C 129.207 199.336, 128.530 191.793, 128.028 189.147 C 127.526 186.501, 126.799 178.635, 126.412 171.667 L 125.708 158.998 130.340 159.633 C 133.434 160.057, 135.475 159.851, 136.486 159.012 C 138.915 156.995, 138.254 156, 134.486 156 C 131.557 156, 129.323 155.264, 126.056 153.222 C 125.811 153.070, 125.455 148.393, 125.264 142.829 C 125.074 137.266, 124.428 131.799, 123.829 130.681 C 122.423 128.053, 122.640 112.022, 124.132 108.336 L 125.281 105.500 125.914 107.907 C 126.348 109.559, 127.773 110.739, 130.454 111.668 C 135.110 113.280, 137.498 112.696, 139.645 109.419 C 140.939 107.444, 141.001 106.706, 139.975 105.470 C 138.846 104.110, 138.536 104.110, 137.028 105.475 C 134.889 107.410, 132.594 107.420, 131 105.500 C 130.315 104.675, 128.550 104, 127.078 104 C 122.449 104, 122 102.623, 122 88.422 C 122 77.929, 121.694 74.991, 120.500 74 C 119.322 73.022, 119 73.019, 119 73.985 M 156.250 81.708 C 154.520 82.343, 154.674 85, 156.441 85 C 158.260 85, 159.505 83.081, 158.363 82.038 C 157.888 81.605, 156.938 81.456, 156.250 81.708 M 103.687 100.646 C 102.645 101.689, 92.892 103.159, 87.870 103.030 C 83.307 102.914, 83.229 102.965, 82.557 106.549 C 81.959 109.737, 81.588 110.113, 79.552 109.602 C 78.091 109.236, 76.757 109.588, 75.957 110.552 C 73.584 113.411, 76.208 114.066, 83.541 112.444 C 87.369 111.597, 92.223 110.637, 94.329 110.310 C 97.127 109.876, 98.399 109.081, 99.054 107.358 C 99.547 106.061, 100.637 105, 101.475 105 C 102.314 105, 103 104.550, 103 104 C 103 103.450, 103.540 103, 104.200 103 C 105.133 103, 105.133 103.267, 104.200 104.200 C 102.489 105.911, 102.716 107, 104.784 107 C 106.663 107, 110.405 101.738, 109.307 100.640 C 108.475 99.808, 104.521 99.812, 103.687 100.646 M 15.709 104.744 C 15.420 106.254, 15.394 107.829, 15.651 108.244 C 16.488 109.598, 19 109.040, 19 107.500 C 19 105.128, 20.826 105.756, 21.180 108.250 C 21.460 110.221, 22.809 110.822, 32.053 113.098 C 37.857 114.526, 43.842 116.506, 45.354 117.496 C 48.732 119.710, 51.247 118.213, 48.908 115.381 C 47.322 113.463, 33.092 106.516, 28.500 105.418 C 26.850 105.024, 24.612 104.094, 23.527 103.351 C 22.443 102.608, 20.358 102, 18.894 102 C 16.787 102, 16.124 102.571, 15.709 104.744 M 84.325 106.658 C 84.687 107.020, 84.424 107.992, 83.741 108.819 C 82.668 110.119, 82.906 110.225, 85.500 109.601 C 87.150 109.204, 89.743 108.629, 91.262 108.324 C 96.276 107.317, 95.217 106, 89.392 106 C 86.243 106, 83.963 106.296, 84.325 106.658 M 201.672 120.829 C 198.981 122.418, 198.870 122.769, 199.395 128 C 199.699 131.025, 200.393 135.075, 200.938 137 C 201.518 139.049, 201.795 151.282, 201.607 166.500 C 201.259 194.655, 201.504 198.404, 203.636 197.586 C 205.846 196.738, 205.275 201.442, 202.907 203.584 C 199.500 206.668, 198.979 208.406, 200.556 211.445 C 202.188 214.592, 202.453 219.128, 201.087 220.550 C 199.564 222.136, 201.407 247.105, 203.333 250.966 C 205.430 255.168, 205.432 256.103, 203.343 255.301 C 201.870 254.736, 201.762 255.324, 202.376 260.583 C 203.311 268.602, 204.915 272, 207.766 272 C 211.434 272, 212.529 268.240, 211.187 260.250 C 209.835 252.197, 208.655 219.933, 209.148 204.500 C 209.717 186.701, 208.950 125.461, 208.120 122.355 C 207.213 118.966, 205.509 118.563, 201.672 120.829 M 20 145 C 20 145.550, 19.335 146, 18.523 146 C 17.711 146, 16.308 147.127, 15.405 148.505 C 13.256 151.785, 14.663 153.531, 20.165 154.410 C 22.436 154.773, 26.365 155.956, 28.897 157.038 C 33.743 159.109, 51.457 162.146, 53.691 161.288 C 56.586 160.177, 54.986 158, 51.250 157.966 C 49.188 157.947, 44.349 156.687, 40.498 155.167 C 33.425 152.375, 23 146.178, 23 144.766 C 23 144.345, 22.325 144, 21.500 144 C 20.675 144, 20 144.450, 20 145 M 48 192.060 C 46.075 193.074, 43.397 193.926, 42.048 193.952 C 39.766 193.997, 21.970 197.983, 21.115 198.640 C 20.903 198.803, 20.678 199.857, 20.615 200.981 C 20.552 202.106, 20.050 202.999, 19.500 202.967 C 18.950 202.935, 18.641 202.030, 18.813 200.955 C 19.244 198.262, 16.510 198.434, 14.557 201.223 C 11.255 205.936, 13.558 208.980, 18.490 206.421 C 19.996 205.639, 21.791 205, 22.479 205 C 23.167 205, 24.803 204.170, 26.115 203.155 C 27.427 202.140, 29.960 201.027, 31.744 200.681 C 33.528 200.335, 36.880 199.138, 39.192 198.021 C 41.504 196.905, 44.213 196.250, 45.213 196.568 C 47.687 197.353, 54.066 193.336, 53.342 191.450 C 52.670 189.698, 52.433 189.725, 48 192.060 M 121.015 192.750 C 121.024 193.713, 121.467 195.175, 122 196 C 122.736 197.138, 122.973 196.716, 122.985 194.250 C 122.993 192.463, 122.550 191, 122 191 C 121.450 191, 121.007 191.787, 121.015 192.750 M 33.269 197.693 C 34.242 197.947, 35.592 197.930, 36.269 197.656 C 36.946 197.382, 36.150 197.175, 34.500 197.195 C 32.850 197.215, 32.296 197.439, 33.269 197.693 M 114.229 206.188 C 114.847 208.042, 117 208.349, 117 206.583 C 117 205.713, 116.287 205, 115.417 205 C 114.546 205, 114.011 205.534, 114.229 206.188 M 202.694 234.639 C 201.895 235.438, 202.798 237, 204.059 237 C 204.577 237, 205 236.325, 205 235.500 C 205 233.954, 203.820 233.513, 202.694 234.639" stroke="none" fill="black" fill-rule="evenodd"/>
</svg>