<svg xmlns="http://www.w3.org/2000/svg" width="300" height="300" viewBox="0 0 300 300" version="1.1">
	<path d="M 205.250 54.858 C 204.287 55.880, 201.620 58.766, 199.322 61.271 C 197.025 63.776, 192.637 67.719, 189.572 70.033 C 186.508 72.347, 184 74.636, 184 75.120 C 184 75.604, 183.546 76, 182.991 76 C 181.725 76, 176 81.042, 176 82.157 C 176 82.611, 174.734 84.224, 173.187 85.741 C 167.167 91.646, 164.242 99.112, 167.465 100.348 C 169.365 101.077, 176.498 95.206, 180.671 89.477 C 183.859 85.100, 185.586 86.678, 186.340 94.660 C 187.355 105.406, 187.129 121.803, 185.956 122.527 C 185.271 122.951, 184.943 131.830, 185.003 148.336 C 185.053 162.176, 185.073 174.063, 185.047 174.750 C 185.019 175.502, 183.611 176, 181.514 176 C 179.597 176, 176 176.543, 173.520 177.206 C 170.591 177.989, 168.670 178.070, 168.037 177.437 C 166.674 176.074, 168.703 146.703, 170.549 141.072 C 172.018 136.588, 172.506 126.482, 171.393 123.582 C 171.059 122.712, 169.709 122, 168.393 122 C 166.196 122, 166 122.400, 166 126.873 C 166 129.661, 165.095 133.792, 163.885 136.528 C 162.677 139.257, 161.769 143.396, 161.769 146.167 C 161.769 148.839, 161.371 151.271, 160.885 151.571 C 160.398 151.872, 159.995 156.929, 159.989 162.809 C 159.975 176.802, 159.271 181, 156.941 181 C 155.952 181, 154.436 181.707, 153.571 182.571 C 149.845 186.298, 153.518 189.741, 157.365 186.127 C 160.031 183.622, 161.567 183.430, 162.362 185.500 C 163.201 187.687, 165.468 187.336, 167.436 184.714 C 168.866 182.811, 170.101 182.424, 174.826 182.403 C 177.947 182.389, 180.880 182.855, 181.344 183.439 C 181.850 184.074, 181.963 183.797, 181.626 182.750 C 180.667 179.771, 184.303 180.709, 186.500 184.009 C 189.195 188.056, 192.009 188.871, 193.828 186.133 C 194.868 184.566, 196.273 184, 199.122 184 C 201.654 184, 203 184.455, 203 185.311 C 203 186.559, 208 188.137, 216.134 189.457 C 218.875 189.902, 219.914 189.667, 220.361 188.501 C 220.865 187.188, 221.278 187.278, 223.094 189.094 C 225.133 191.133, 225.831 191.202, 237.867 190.567 C 244.815 190.200, 252.059 189.897, 253.965 189.894 C 261.306 189.881, 275.421 179.250, 270.570 177.388 C 269.716 177.061, 267.345 177.779, 265.301 178.985 C 261.811 181.044, 256.319 182.054, 240 183.638 C 234.125 184.209, 217.424 182.759, 210 181.034 C 207.525 180.459, 203.335 179.604, 200.690 179.134 C 198.044 178.664, 195.404 177.804, 194.823 177.223 C 193.379 175.779, 193.651 124.898, 195.129 119.964 C 195.784 117.776, 195.978 113.125, 195.611 108.402 C 194.007 87.788, 193.406 83.187, 192.112 81.631 C 190.915 80.192, 190.970 79.690, 192.517 77.981 C 193.503 76.892, 194.915 76, 195.655 76 C 196.395 76, 197.010 75.662, 197.022 75.250 C 197.034 74.838, 199.038 73.162, 201.475 71.526 C 205.133 69.071, 205.958 67.937, 206.203 65.026 C 206.471 61.842, 206.913 61.369, 210.750 60.155 C 214.127 59.086, 215 58.338, 215 56.512 C 215 52.693, 208.352 51.565, 205.250 54.858 M 132.750 73.689 C 131.787 73.941, 131 74.564, 131 75.073 C 131 75.583, 126.472 76, 120.938 76 C 105.607 76, 96.750 79.841, 96.750 86.489 C 96.750 90.267, 97.690 90.640, 100.517 87.984 C 102.453 86.165, 103.298 85.898, 104.213 86.813 C 105.795 88.395, 108.972 88.317, 110.921 86.649 C 112.901 84.956, 122.061 82, 125.331 82 C 127.677 82, 129 83.621, 129 86.496 C 129 87.229, 127.425 89.450, 125.500 91.432 C 123.575 93.415, 122 95.710, 122 96.534 C 122 99.212, 113.817 114.407, 110.440 118 C 105.651 123.095, 99.962 131.938, 99.281 135.346 C 98.851 137.494, 99.168 138.650, 100.444 139.583 C 101.909 140.654, 102.850 140.525, 106.168 138.795 C 109.770 136.918, 110.515 136.850, 114.190 138.063 C 119.974 139.972, 124.716 139.771, 126.341 137.549 C 127.155 136.435, 127.947 136.106, 128.329 136.723 C 129.421 138.490, 129.268 146.305, 128.049 151 C 127.406 153.475, 126.621 158.180, 126.305 161.457 C 125.989 164.733, 125.116 168.027, 124.366 168.776 C 123.617 169.526, 122.708 171.346, 122.348 172.820 C 121.988 174.294, 119.737 179.288, 117.346 183.918 C 114.956 188.548, 113 193.144, 113 194.133 C 113 195.121, 112.149 196.385, 111.108 196.942 C 109.544 197.779, 108.677 197.324, 106.108 194.316 C 104.399 192.315, 103 190.175, 103 189.561 C 103 188.947, 102.100 187.674, 101 186.732 C 99.900 185.790, 99 184.281, 99 183.378 C 99 182.475, 97.457 180.281, 95.571 178.502 C 93.685 176.724, 91.322 173.526, 90.319 171.398 C 88.249 167, 85.976 166.131, 82.500 168.408 C 80.368 169.805, 80.216 170.320, 81.147 172.991 C 81.724 174.646, 82.748 176, 83.423 176 C 85.610 176, 93.408 185.312, 94.311 189 C 95.029 191.935, 100.097 200, 101.223 200 C 101.651 200, 102 199.100, 102 198 C 102 194.208, 103.659 196.013, 104.828 201.076 C 106.274 207.341, 106.311 210.289, 104.960 211.640 C 104.388 212.212, 102.859 214.664, 101.562 217.090 C 100.265 219.515, 97.920 222.212, 96.352 223.081 C 94.783 223.951, 93.545 225.189, 93.600 225.831 C 93.655 226.474, 93.767 227.824, 93.850 228.831 C 94.046 231.221, 98.180 233.395, 100.893 232.534 C 102.710 231.957, 112 219.350, 112 217.461 C 112 217.106, 112.900 215.671, 114 214.273 C 115.100 212.874, 116 210.891, 116 209.865 C 116 208.839, 116.681 208, 117.514 208 C 120.035 208, 125.974 212.381, 125.988 214.250 C 125.997 215.608, 126.853 216, 129.809 216 C 131.904 216, 134.491 216.661, 135.559 217.468 C 136.626 218.276, 138.175 218.963, 139 218.996 C 139.825 219.029, 141.795 220.375, 143.377 221.988 C 146.075 224.738, 146.422 224.833, 148.969 223.516 C 151.352 222.284, 151.880 222.309, 153.293 223.722 C 154.482 224.911, 156.509 225.274, 161.045 225.110 C 165.516 224.949, 166.991 225.206, 166.465 226.056 C 166.068 226.698, 166.301 227.568, 166.983 227.989 C 168.468 228.907, 172 228.129, 172 226.883 C 172 225.316, 173.868 225.942, 175.992 228.221 C 177.742 230.100, 178.363 230.255, 180.017 229.221 C 182.619 227.597, 185.067 227.663, 184.423 229.340 C 183.786 231, 186.207 233.085, 190.476 234.553 C 193.171 235.479, 193.890 235.400, 194.728 234.084 C 195.601 232.712, 196.187 232.674, 199.118 233.803 C 204.413 235.842, 209.648 236.129, 211.036 234.457 C 212.763 232.376, 213.715 232.646, 214.667 235.488 C 215.473 237.896, 215.595 237.926, 218.467 236.435 C 220.880 235.181, 221.859 235.122, 223.717 236.116 C 225.395 237.014, 226.596 237.052, 228.250 236.260 C 232.867 234.047, 234.680 233.690, 242 233.548 C 246.897 233.453, 250.888 232.765, 253.500 231.564 C 263.893 226.785, 268 224.486, 268 223.444 C 268 222.820, 268.900 221.495, 270 220.500 C 271.425 219.211, 272 217.420, 272 214.275 C 272 210.283, 271.787 209.891, 269.775 210.180 C 268.551 210.356, 267.021 211.566, 266.374 212.869 C 264.731 216.177, 259.161 221.331, 255 223.393 C 249.424 226.157, 227.359 228.897, 210.770 228.885 C 196.789 228.876, 195.620 228.718, 187.770 225.796 C 183.222 224.102, 176.125 222.356, 172 221.916 C 160.913 220.733, 149.038 218.230, 144.500 216.120 C 142.300 215.098, 139.406 213.921, 138.069 213.506 C 136.733 213.090, 133.145 211.457, 130.097 209.875 C 127.049 208.294, 124.050 207, 123.433 207 C 122.815 207, 121.508 206.113, 120.527 205.030 C 118.858 203.185, 118.848 202.840, 120.372 199.629 C 121.267 197.742, 122 195.478, 122 194.599 C 122 193.719, 122.450 193, 123 193 C 123.550 193, 124 192.325, 124 191.500 C 124 190.675, 124.450 190, 125 190 C 125.550 190, 126 189.094, 126 187.986 C 126 185.968, 126.234 185.350, 129.331 179.169 C 130.249 177.337, 131 174.952, 131 173.869 C 131 172.787, 131.614 170.686, 132.365 169.200 C 133.115 167.715, 134.031 162.900, 134.400 158.500 C 134.768 154.100, 135.759 148.381, 136.601 145.792 C 137.444 143.202, 137.991 139.602, 137.816 137.792 C 137.506 134.558, 137.395 134.488, 131.500 133.826 C 123.762 132.957, 116.751 131.582, 115.213 130.632 C 113.415 129.521, 113.718 128.059, 116.500 124.411 C 117.875 122.608, 119 120.702, 119 120.174 C 119 119.646, 119.611 118.980, 120.358 118.693 C 121.105 118.406, 121.983 116.837, 122.309 115.206 C 122.635 113.576, 123.486 111.624, 124.201 110.871 C 124.915 110.117, 126.109 107.765, 126.853 105.645 C 128.220 101.747, 131.334 94.756, 132.930 92 C 135.450 87.647, 139 79.620, 139 78.275 C 139 77.101, 135.093 72.523, 134.597 73.116 C 134.544 73.180, 133.713 73.438, 132.750 73.689 M 48.493 99.011 C 47.901 99.969, 44.618 100.150, 34.969 99.759 C 27.961 99.475, 21.660 99.592, 20.967 100.020 C 19.223 101.098, 20.536 104, 22.769 104 C 23.776 104, 25.075 104.475, 25.656 105.056 C 27.373 106.773, 47.945 107.275, 52.550 105.711 C 55.127 104.836, 57.890 104.633, 60.500 105.127 C 66.545 106.272, 67.728 106.152, 68.430 104.322 C 69.267 102.142, 66.922 99.850, 63.336 99.343 C 53.122 97.901, 49.233 97.814, 48.493 99.011 M 225.546 118.713 C 223.921 118.966, 221.684 119.808, 220.574 120.586 C 219.463 121.364, 217.326 122, 215.825 122 C 212.849 122, 208 123.886, 208 125.044 C 208 125.441, 207.152 125.989, 206.115 126.260 C 204.691 126.632, 204.353 127.394, 204.732 129.376 C 205.134 131.480, 205.800 132, 208.096 132 C 211.412 132, 224.340 127.983, 224.833 126.799 C 225.017 126.360, 226.479 126, 228.083 126 C 229.688 126, 231 125.660, 231 125.244 C 231 124.828, 232.374 123.880, 234.053 123.137 C 238.486 121.175, 237.620 118.535, 232.491 118.377 C 230.296 118.310, 227.171 118.461, 225.546 118.713 M 55.635 138.626 C 53.508 139.368, 51.448 139.777, 51.055 139.534 C 50.663 139.291, 48.352 139.691, 45.921 140.422 C 42.222 141.533, 33.280 141.842, 29.500 140.989 C 27.326 140.498, 26 141.071, 26 142.500 C 26 143.333, 26.889 144, 28 144 C 29.100 144, 30.948 144.948, 32.107 146.107 C 34.023 148.023, 34.911 148.152, 41.857 147.530 C 53.177 146.516, 66.181 139.781, 60.750 137.745 C 60.063 137.488, 57.761 137.884, 55.635 138.626 M 205.813 184.683 C 206.534 184.972, 207.397 184.936, 207.729 184.604 C 208.061 184.272, 207.471 184.036, 206.417 184.079 C 205.252 184.127, 205.015 184.364, 205.813 184.683 M 240.750 187.662 C 241.438 187.940, 242.563 187.940, 243.250 187.662 C 243.938 187.385, 243.375 187.158, 242 187.158 C 240.625 187.158, 240.063 187.385, 240.750 187.662 M 41.625 195.102 C 37.844 196.179, 33.807 197.722, 32.653 198.531 C 31.499 199.339, 29.911 200, 29.124 200 C 27.242 200, 16.969 204.822, 14.806 206.721 C 11.995 209.190, 14.542 212, 19.592 212 C 23.497 212, 26.481 210.760, 36.500 204.975 C 38.700 203.705, 43.200 201.211, 46.500 199.434 C 52.852 196.012, 54.936 192.945, 50.823 193.071 C 49.545 193.110, 45.406 194.024, 41.625 195.102" stroke="none" fill="black" fill-rule="evenodd"/>
</svg>