<svg xmlns="http://www.w3.org/2000/svg" width="300" height="300" viewBox="0 0 300 300" version="1.1">
	<path d="M 146 22 C 145.411 23.100, 144.011 24, 142.888 24 C 141.099 24, 137.811 26.782, 134.450 31.139 C 132.263 33.973, 131.948 36.285, 133.515 38.016 C 134.941 39.593, 134.878 39.991, 132.789 42.589 C 129.412 46.788, 115.006 61.082, 110.997 64.212 C 108.276 66.336, 107.786 67.186, 108.736 68.136 C 109.685 69.085, 110.442 68.823, 112.226 66.924 C 113.479 65.591, 116.279 63.600, 118.449 62.500 C 120.618 61.400, 124.667 58.029, 127.446 55.008 C 130.226 51.988, 135.646 46.392, 139.490 42.572 C 147.693 34.423, 148.801 32.546, 149.644 25.374 C 150.176 20.848, 150.022 20, 148.673 20 C 147.791 20, 146.589 20.900, 146 22 M 186.750 58.392 C 185.787 59.123, 185 60.196, 185 60.777 C 185 61.358, 184.509 61.997, 183.908 62.197 C 183.285 62.405, 182.665 65.935, 182.464 70.425 C 182.270 74.750, 181.637 78.763, 181.056 79.344 C 180.475 79.925, 180 81.215, 180 82.211 C 180 83.207, 177.968 87.874, 175.485 92.582 C 171.141 100.819, 170.695 103, 173.355 103 C 175.445 103, 184.507 87.953, 187.456 79.586 C 188.990 75.233, 191.540 69.476, 193.123 66.792 C 194.705 64.108, 196 61.347, 196 60.656 C 196 57.216, 190.176 55.791, 186.750 58.392 M 146.465 67.284 C 145.877 69.627, 147.222 72.809, 152.897 82.500 C 155.872 87.580, 162.501 89.642, 165.671 86.472 C 166.890 85.253, 166.952 84.647, 165.977 83.472 C 165.305 82.662, 164.227 82, 163.582 82 C 162.937 82, 160.870 78.963, 158.989 75.250 C 155.287 67.942, 154.343 66.878, 151.904 67.254 C 151.026 67.389, 149.582 66.898, 148.695 66.162 C 147.297 65.001, 147 65.150, 146.465 67.284 M 101.998 71.502 C 101.264 72.386, 100.995 74.223, 101.343 75.964 C 101.668 77.591, 101.499 79.191, 100.967 79.520 C 100.435 79.849, 100 80.460, 100 80.879 C 100 82.082, 105.087 87.269, 109.969 91.044 C 112.427 92.945, 116.252 96.194, 118.469 98.265 C 120.686 100.335, 123.625 102.278, 125 102.581 C 126.375 102.884, 128.694 103.777, 130.154 104.566 C 133.675 106.468, 135.315 106.375, 138.107 104.115 C 140.019 102.566, 140.213 101.962, 139.195 100.735 C 138.513 99.913, 136.728 98.980, 135.228 98.660 C 131.929 97.958, 123.035 90.069, 110.318 76.565 C 106.918 72.954, 103.936 70, 103.690 70 C 103.445 70, 102.684 70.676, 101.998 71.502 M 34 113 C 33.175 113.533, 31.063 113.976, 29.307 113.985 C 27.315 113.994, 25.612 114.716, 24.782 115.901 C 24.050 116.946, 22.341 117.959, 20.985 118.151 C 18.136 118.554, 17.131 121.453, 19.523 122.371 C 20.415 122.713, 22.073 122.496, 23.207 121.889 C 24.342 121.282, 28.648 120.836, 32.776 120.898 C 36.904 120.960, 40.870 120.523, 41.588 119.927 C 42.347 119.297, 48.475 118.742, 56.197 118.603 C 68.594 118.380, 69.500 118.232, 69.500 116.432 C 69.500 114.952, 68.681 114.425, 66 114.179 C 64.075 114.002, 62.072 113.439, 61.550 112.929 C 60.277 111.684, 45.663 111.737, 44.410 112.990 C 43.756 113.644, 42.246 113.644, 39.966 112.990 C 35.792 111.793, 35.868 111.793, 34 113 M 29.074 116.411 C 27.488 118.322, 28.669 118.688, 34 117.936 C 36.475 117.586, 37.514 117.233, 36.309 117.150 C 35.104 117.068, 33.840 116.550, 33.500 116 C 32.614 114.566, 30.438 114.768, 29.074 116.411 M 44 116 C 44 116.550, 44.648 117, 45.441 117 C 46.234 117, 47.160 116.550, 47.500 116 C 47.840 115.450, 47.191 115, 46.059 115 C 44.927 115, 44 115.450, 44 116 M 53.500 116 C 53.840 116.550, 55.216 117, 56.559 117 C 57.902 117, 59 116.550, 59 116 C 59 115.450, 57.623 115, 55.941 115 C 54.156 115, 53.139 115.417, 53.500 116 M 158.250 120.790 C 153.713 120.950, 150 121.482, 150 121.973 C 150 123.020, 128.482 122.657, 122.149 121.502 C 117.329 120.624, 115.396 122.003, 117.068 125.127 C 117.712 126.330, 117.551 127.306, 116.542 128.315 C 114.060 130.797, 117.637 133.006, 124.079 132.970 C 128.249 132.946, 129.096 132.704, 127.750 131.920 C 124.616 130.095, 125.769 128.262, 130.497 127.553 C 136.240 126.692, 137.426 127.421, 135.374 130.552 L 133.770 133 138.951 133 C 145.624 133, 147.879 131.817, 147.270 128.634 C 146.914 126.770, 147.327 126.031, 149.027 125.491 C 150.463 125.036, 151.554 125.266, 152.110 126.143 C 152.742 127.141, 152.973 127.170, 152.985 126.250 C 152.993 125.563, 153.675 125, 154.500 125 C 155.335 125, 156 125.889, 156 127.005 C 156 128.801, 156.617 128.996, 161.917 128.876 C 167.032 128.760, 167.915 128.455, 168.433 126.621 C 169.020 124.546, 169.065 124.542, 170.500 126.418 C 171.679 127.961, 172.410 128.137, 174.233 127.320 C 176.896 126.126, 179 126.633, 179 128.468 C 179 129.184, 177.044 132.184, 174.654 135.135 C 169.643 141.321, 168.729 143.329, 170.236 144.836 C 171.613 146.213, 167.852 151.923, 163.799 154.607 C 162.227 155.648, 160.713 157.625, 160.435 159 C 160.158 160.375, 159.493 162.891, 158.958 164.590 C 157.895 167.969, 158.585 172.980, 160.660 176.956 C 161.390 178.355, 161.990 180.007, 161.994 180.626 C 161.997 181.245, 163.149 184.348, 164.553 187.523 C 166.386 191.669, 166.800 193.600, 166.021 194.379 C 165.425 194.975, 161.014 195.539, 156.218 195.632 C 142.904 195.890, 128.945 197.008, 124.500 198.172 C 122.300 198.748, 118.588 199.440, 116.250 199.710 C 112.421 200.153, 112 200.469, 112 202.901 C 112 204.385, 112.540 206.140, 113.200 206.800 C 114.674 208.274, 120.229 208.342, 125.250 206.947 C 128.125 206.149, 129.004 205.392, 129.015 203.703 C 129.028 201.886, 129.211 201.763, 130.059 203 C 130.939 204.283, 131.316 204.175, 132.666 202.250 C 133.534 201.012, 135.202 199.993, 136.372 199.985 C 137.542 199.976, 139.160 199.552, 139.966 199.042 C 141.678 197.960, 144 199.484, 144 201.690 C 144 202.680, 143.370 202.935, 142 202.500 C 140.815 202.124, 140 202.320, 140 202.982 C 140 204.540, 152.018 203.166, 154.079 201.373 C 156.221 199.510, 157.761 199.647, 158.311 201.750 C 158.746 203.417, 158.774 203.417, 158.884 201.750 C 159.020 199.702, 162 199.343, 162 201.375 C 162 202.131, 163.285 203.007, 164.856 203.321 C 168.427 204.035, 170.172 207.881, 169.976 214.601 C 169.898 217.295, 170.524 221.874, 171.367 224.774 C 172.210 227.675, 173.210 233.875, 173.590 238.552 C 173.969 243.228, 174.667 247.294, 175.140 247.586 C 176.632 248.509, 176.127 258.015, 174.500 259.643 C 172.259 261.884, 172.669 264.191, 175.944 267.777 C 180.303 272.551, 184.199 272.006, 185.273 266.473 C 185.964 262.914, 184.790 246.348, 182.404 226 C 180.154 206.812, 179.988 200.255, 181.716 198.821 C 182.739 197.972, 183.377 197.977, 184.242 198.842 C 185.569 200.169, 188 200.395, 188 199.191 C 188 198.746, 187.404 197.568, 186.677 196.572 C 185.518 194.988, 185.081 194.932, 183.169 196.126 C 181.186 197.365, 180.755 197.223, 178.493 194.590 C 177.122 192.994, 176 190.823, 176 189.765 C 176 188.707, 174.934 185.064, 173.632 181.671 C 169.380 170.592, 168.126 166.571, 167.468 161.903 C 166.836 157.426, 166.947 157.173, 171.760 152.153 C 174.477 149.319, 177.007 147, 177.381 147 C 178.269 147, 184.054 140.412, 186.085 137.089 C 188.380 133.332, 189.246 123.389, 187.435 121.578 C 186.009 120.151, 180.571 120.005, 158.250 120.790 M 173 124.417 C 173 125.287, 173.713 126, 174.583 126 C 175.454 126, 175.989 125.466, 175.771 124.813 C 175.153 122.958, 173 122.651, 173 124.417 M 160.500 125 C 160.160 125.550, 160.835 126, 162 126 C 163.165 126, 163.840 125.550, 163.500 125 C 163.160 124.450, 162.485 124, 162 124 C 161.515 124, 160.840 124.450, 160.500 125 M 34.513 159.320 C 28.460 160.214, 26.449 160.903, 26.206 162.165 C 25.615 165.243, 23.208 165.036, 22.084 161.811 C 21.187 159.238, 20.773 158.943, 19.518 159.985 C 18.695 160.668, 18.260 161.611, 18.550 162.081 C 18.840 162.550, 18.160 163.508, 17.039 164.208 C 14.602 165.729, 14.402 167.556, 16.579 168.392 C 18.681 169.198, 25.396 168.209, 31.197 166.239 C 35.357 164.825, 35.700 164.496, 34.197 163.353 C 32.680 162.201, 32.792 162.060, 35.250 162.032 C 37.042 162.011, 38 162.523, 38 163.500 C 38 165.845, 42.543 165.320, 44.230 162.780 C 45.655 160.634, 45.764 160.621, 47.523 162.380 C 49.281 164.138, 49.398 164.124, 51.038 161.950 C 52.600 159.878, 52.810 159.839, 53.708 161.442 C 54.971 163.700, 67.325 164.518, 69.035 162.457 C 69.863 161.460, 69.640 160.878, 68.120 160.064 C 65.108 158.452, 43.612 157.976, 34.513 159.320 M 188.667 194.667 C 185.952 197.381, 190.648 200.667, 195.049 199.133 C 196.698 198.558, 198.192 198.501, 198.501 199.002 C 198.801 199.487, 201.174 200.175, 203.773 200.530 C 206.373 200.886, 209.963 201.550, 211.750 202.008 C 213.698 202.506, 215 202.463, 215 201.900 C 215 201.384, 216.046 201.224, 217.324 201.545 C 219.914 202.195, 222.320 200.136, 221.161 198.261 C 219.838 196.120, 208.790 194, 198.957 194 C 193.664 194, 189.033 194.300, 188.667 194.667 M 203.083 197.352 C 203.313 197.545, 204.963 198.196, 206.750 198.800 C 209.425 199.702, 210 199.640, 210 198.448 C 210 197.447, 208.867 197, 206.333 197 C 204.317 197, 202.854 197.158, 203.083 197.352 M 165 201 C 166.939 202.253, 168 202.253, 168 201 C 168 200.450, 166.988 200.007, 165.750 200.015 C 163.931 200.028, 163.787 200.216, 165 201 M 186 202 C 186 202.550, 186.702 203, 187.559 203 C 188.416 203, 188.840 202.550, 188.500 202 C 188.160 201.450, 187.459 201, 186.941 201 C 186.423 201, 186 201.450, 186 202 M 58 204.387 C 58 206.143, 56.285 206.467, 54.149 205.113 C 53.350 204.607, 50.896 204.833, 48.149 205.664 C 45.592 206.439, 41.287 207.394, 38.583 207.788 C 32.227 208.713, 31.410 210.748, 37.187 211.265 L 41.500 211.651 36.809 211.825 C 34.229 211.921, 31.840 212.450, 31.500 213 C 30.484 214.644, 29.389 214.148, 28.182 211.500 C 27.555 210.125, 26.332 209, 25.464 209 C 24.225 209, 23.951 209.915, 24.193 213.250 C 24.450 216.814, 24.823 217.467, 26.500 217.297 C 30.494 216.890, 52.515 210.719, 53.072 209.850 C 53.387 209.359, 56.987 208.784, 61.072 208.571 C 75.482 207.822, 78.305 203.922, 64.982 203.169 C 59.062 202.834, 58 203.020, 58 204.387 M 66 205 C 64.787 205.784, 64.931 205.972, 66.750 205.985 C 67.987 205.993, 69 205.550, 69 205 C 69 203.747, 67.939 203.747, 66 205 M 45 210 C 45 210.550, 45.648 211, 46.441 211 C 47.234 211, 48.160 210.550, 48.500 210 C 48.840 209.450, 48.191 209, 47.059 209 C 45.927 209, 45 209.450, 45 210 M 172.104 211.306 C 170.951 213.460, 170.985 214.141, 172.345 216.082 C 173.655 217.953, 174.033 218.076, 174.525 216.795 C 174.853 215.942, 174.744 213.792, 174.285 212.018 L 173.449 208.793 172.104 211.306 M 139.250 238.662 C 138.563 238.940, 138 240.160, 138 241.373 C 138 246.945, 157.912 262, 165.281 262 C 172.848 262, 170.239 256.692, 160.076 251.408 C 158.109 250.386, 154.201 247.625, 151.392 245.274 C 148.583 242.924, 145.963 241, 145.571 241 C 145.178 241, 144.182 240.325, 143.357 239.500 C 141.788 237.931, 141.306 237.833, 139.250 238.662" stroke="none" fill="black" fill-rule="evenodd"/>
</svg>