<svg xmlns="http://www.w3.org/2000/svg" width="300" height="300" viewBox="0 0 300 300" version="1.1">
	<path d="M 122 19.186 C 122 19.838, 121.011 21.424, 119.802 22.711 C 117.933 24.700, 117.501 26.660, 116.925 35.776 C 116.551 41.674, 115.741 47.767, 115.123 49.315 C 114.505 50.863, 114 53.624, 114 55.451 C 114 57.277, 113.328 60.060, 112.506 61.636 C 111.685 63.211, 111.010 65.486, 111.006 66.691 C 111.003 67.896, 110.602 69.128, 110.115 69.429 C 109.629 69.729, 108.928 72.118, 108.557 74.738 C 107.554 81.828, 104.713 89.153, 100.575 95.315 C 98.721 98.077, 98.721 98.165, 100.593 100.032 C 101.642 101.078, 102.950 101.611, 103.500 101.217 C 105.897 99.498, 111 91.941, 111 90.110 C 111 89.006, 112.095 86.922, 113.433 85.478 C 115.973 82.737, 120 72.243, 120 68.365 C 120 67.129, 120.384 65.880, 120.854 65.590 C 121.324 65.300, 121.999 62.282, 122.354 58.883 C 122.710 55.485, 123.498 52.105, 124.107 51.371 C 124.716 50.638, 125.578 47.442, 126.023 44.269 C 126.468 41.096, 127.356 36.475, 127.996 34 C 129.593 27.826, 128.705 22.049, 125.819 19.829 C 123.096 17.733, 122 17.549, 122 19.186 M 210.191 34.209 C 209.511 34.889, 204.279 35.759, 198.241 36.195 C 192.333 36.623, 187.050 37.026, 186.500 37.092 C 185.950 37.157, 177.122 36.871, 166.882 36.456 C 150.414 35.788, 147.993 35.892, 145.910 37.351 L 143.555 39 145.809 39 C 147.049 39, 148.329 39.694, 148.655 40.543 C 149.184 41.923, 149.435 41.916, 151.024 40.478 C 152.203 39.411, 153.024 39.230, 153.462 39.939 C 153.825 40.526, 155.141 40.752, 156.385 40.439 C 157.795 40.086, 159.138 40.461, 159.947 41.436 C 161.627 43.461, 162.222 43.410, 165 41 C 167.696 38.662, 171.259 38.402, 172.936 40.423 C 173.891 41.574, 173.676 41.930, 171.808 42.287 C 170.273 42.580, 170.727 42.773, 173.167 42.864 C 175.183 42.939, 177.060 43.562, 177.338 44.250 C 177.639 44.997, 177.874 44.795, 177.921 43.750 C 178.022 41.511, 183 41.266, 183 43.500 C 183 45.395, 185.383 45.449, 186.926 43.589 C 187.727 42.624, 187.765 41.973, 187.049 41.530 C 185.671 40.679, 185.701 39, 187.094 39 C 187.695 39, 188.423 39.900, 188.710 41 C 189.314 43.310, 189.885 43.410, 193.703 41.875 C 195.241 41.257, 197.400 40.392, 198.500 39.952 C 199.600 39.513, 202.464 38.930, 204.864 38.656 C 208.599 38.231, 209.304 38.445, 209.745 40.133 C 210.140 41.645, 210.968 42.036, 213.280 41.804 C 217.337 41.395, 218.829 38.917, 217.035 35.565 C 215.564 32.816, 212.242 32.158, 210.191 34.209 M 131.450 38.288 C 128.380 41.829, 129.416 45, 133.641 45 C 136.384 45, 137.760 43.095, 135.878 41.904 C 134.799 41.220, 134.894 41.027, 136.316 41.015 C 137.314 41.007, 139.063 40.502, 140.201 39.893 C 141.861 39.004, 141.996 38.611, 140.885 37.908 C 138.865 36.628, 132.672 36.878, 131.450 38.288 M 190.591 73.853 C 190.301 74.322, 187.462 75.509, 184.282 76.491 C 181.102 77.472, 178.050 78.604, 177.500 79.005 C 176.622 79.646, 166.266 80.898, 157.500 81.423 C 155.850 81.521, 153.517 82.142, 152.316 82.801 C 151.114 83.460, 146.938 84, 143.034 84 C 137.648 84, 135.798 84.362, 135.362 85.500 C 135.045 86.325, 133.911 87, 132.842 87 C 130.145 87, 128.386 91.802, 127.529 101.500 C 127.140 105.900, 126.162 112.650, 125.357 116.500 C 124.552 120.350, 123.516 125.525, 123.056 128 C 122.596 130.475, 121.761 133.929, 121.201 135.675 C 120.641 137.421, 120.408 139.074, 120.683 139.349 C 121.781 140.448, 119.801 143.821, 117.717 144.401 C 116.498 144.741, 110.325 145.247, 104 145.526 C 88.674 146.203, 84.397 146.817, 82.959 148.549 C 82.297 149.347, 81.135 150, 80.378 150 C 79.620 150, 79 150.675, 79 151.500 C 79 152.603, 80.125 152.992, 83.250 152.968 C 87.204 152.939, 87.365 152.834, 85.559 151.468 C 83.699 150.061, 83.732 150, 86.341 150 C 87.839 150, 90.671 150.671, 92.635 151.492 C 95.949 152.877, 96.386 152.842, 98.722 151.004 L 101.239 149.024 98.870 148.075 C 96.920 147.295, 97.456 147.116, 101.890 147.063 C 105.891 147.016, 107.630 147.451, 108.640 148.750 C 109.937 150.417, 110.051 150.417, 111.050 148.750 C 111.627 147.787, 112.642 147, 113.306 147 C 115.282 147, 117.251 152.752, 116.656 156.789 C 115.740 163.005, 113.036 176.407, 112.376 178 C 112.034 178.825, 111.293 183.550, 110.729 188.500 C 108.409 208.853, 109.644 216.909, 115.513 219.708 C 119.830 221.766, 124.029 220.826, 123.281 217.968 C 122.791 216.094, 122.962 216.025, 125.374 217.125 C 126.818 217.783, 128 218.699, 128 219.161 C 128 219.622, 128.400 220, 128.889 220 C 129.378 220, 129.715 219.212, 129.639 218.250 C 129.536 216.957, 130.382 216.416, 132.877 216.177 C 134.735 216, 136.737 216.337, 137.327 216.927 C 138.738 218.338, 143.890 218.289, 149.406 216.814 C 152.965 215.862, 154.664 215.899, 158.005 217.002 C 161.261 218.076, 162.583 218.117, 164.071 217.188 C 166.638 215.585, 168 215.693, 168 217.500 C 168 218.325, 168.661 219, 169.469 219 C 170.418 219, 170.715 218.421, 170.309 217.364 C 169.250 214.603, 172.353 216.345, 173.806 219.327 C 174.819 221.406, 174.954 226.150, 174.407 240.503 C 174.002 251.114, 173.294 259, 172.745 259 C 171.187 259, 165.944 254.196, 163.383 250.423 C 162.075 248.495, 159.878 245.703, 158.502 244.219 C 157.126 242.735, 156 240.551, 156 239.367 C 156 237.122, 153.564 235.534, 151.795 236.626 C 149.714 237.913, 151.947 246.334, 156.004 252.500 C 157.090 254.150, 158.256 256.063, 158.596 256.750 C 158.936 257.438, 159.616 258, 160.107 258 C 161.321 258, 165 261.759, 165 263 C 165 263.550, 166.240 264, 167.756 264 C 169.826 264, 170.827 264.711, 171.778 266.861 C 172.474 268.434, 172.775 270.424, 172.445 271.282 C 171.813 272.929, 173.540 276.993, 175.400 278.235 C 177.415 279.580, 180.917 279.023, 181.893 277.201 C 183.315 274.542, 184.830 257.987, 185.592 236.762 C 186.314 216.671, 186.836 214.772, 191.027 217.014 C 192.666 217.892, 193.881 217.878, 196.103 216.957 C 199.741 215.450, 200.667 212.135, 198.775 207.392 L 197.334 203.779 196.046 206.890 C 195.328 208.623, 194.014 210, 193.079 210 C 192.155 210, 190.890 210.510, 190.267 211.133 C 189.644 211.756, 188.402 211.984, 187.507 211.641 C 186.102 211.102, 185.933 209.470, 186.275 199.758 C 186.852 183.360, 189.882 157.128, 191.578 153.848 C 192.430 152.202, 192.778 149.962, 192.410 148.496 C 192.042 147.032, 192.303 145.339, 193.032 144.461 C 193.895 143.421, 194.546 136.003, 195.114 120.724 C 195.569 108.501, 196.170 93.575, 196.449 87.555 C 196.877 78.348, 196.698 76.324, 195.324 74.805 C 193.582 72.880, 191.456 72.453, 190.591 73.853 M 176.546 83.146 C 177.268 85.419, 177.561 85.406, 171 83.383 C 169.436 82.901, 169 83.228, 169 84.883 C 169 86.757, 168.425 87, 164 87 C 161.250 87, 159 86.586, 159 86.080 C 159 85.141, 150.906 87.867, 150 89.112 C 149.246 90.149, 143.674 90.535, 142.242 89.649 C 139.486 87.946, 138.056 91.702, 137.099 103.155 C 136.578 109.395, 134.963 119.675, 133.511 126 C 131.541 134.580, 131.023 138.928, 131.471 143.124 C 131.999 148.073, 131.845 148.807, 130.189 149.240 C 128.740 149.619, 128.177 150.970, 127.741 155.116 C 127.429 158.077, 126.280 163.425, 125.186 167 C 122.266 176.550, 120.789 186.089, 120.282 198.689 L 119.831 209.878 123.665 210.523 C 125.774 210.878, 128.850 211.556, 130.500 212.030 C 133.812 212.981, 142.015 213.269, 161.215 213.107 C 172.406 213.013, 174.046 212.783, 174.900 211.186 C 175.434 210.188, 176.164 203.101, 176.522 195.436 C 176.880 187.771, 177.809 178.256, 178.586 174.292 C 180.670 163.671, 180.476 153.740, 178.143 151.630 C 176.486 150.130, 176.151 150.113, 175.021 151.475 C 173.385 153.446, 171 153.439, 171 151.463 C 171 150.228, 170.116 150.032, 166.500 150.466 C 163.798 150.790, 162 150.605, 162 150.003 C 162 148.492, 160.059 148.798, 158.265 150.592 C 156.264 152.593, 151.816 151.838, 148.744 148.976 C 145.625 146.071, 147.878 144.913, 155.170 145.676 C 162.558 146.448, 164.499 145.771, 162.782 143.023 C 162.087 141.910, 161 141, 160.366 141 C 159.733 141, 158.955 140.325, 158.638 139.500 C 158.322 138.675, 157.402 138, 156.594 138 C 155.785 138, 153.676 135.983, 151.905 133.518 C 150.135 131.052, 147.969 128.790, 147.093 128.491 C 142.065 126.773, 138.851 120.292, 141.642 117.501 C 144.937 114.206, 147.790 115.841, 155.473 125.426 C 161.976 133.538, 176.911 148.001, 178.768 147.985 C 182.989 147.947, 183.404 146.438, 184.943 125.500 C 185.469 118.350, 186.004 107.100, 186.133 100.500 C 186.321 90.809, 186.716 87.989, 188.183 85.846 C 191.656 80.773, 190.066 79.789, 182.979 82.625 C 180.745 83.519, 178.636 83.969, 178.292 83.625 C 177.948 83.281, 178.192 83, 178.833 83 C 179.475 83, 180 82.550, 180 82 C 180 81.450, 179.070 81, 177.933 81 C 176.273 81, 176 81.424, 176.546 83.146 M 47.538 96.250 C 48.483 100.655, 48.766 101, 51.433 101 C 52.707 101, 55.662 101.675, 58 102.500 C 63.101 104.300, 72.129 104.471, 73.800 102.800 C 75.765 100.835, 75.170 99.741, 72.500 100.411 C 71.058 100.772, 70 100.607, 70 100.019 C 70 99.459, 68.763 98.998, 67.250 98.996 C 65.737 98.994, 61.800 97.646, 58.500 96 C 55.200 94.354, 51.227 93.006, 49.671 93.004 C 47.002 93, 46.881 93.184, 47.538 96.250 M 46.671 135.654 C 46.215 136.119, 42.200 136.725, 37.750 137 C 32.257 137.339, 29.516 137.928, 29.218 138.832 C 28.946 139.658, 29.485 140.089, 30.639 139.966 C 33.769 139.635, 35.145 139.957, 34.571 140.886 C 33.649 142.378, 38.262 142.701, 46.321 141.710 C 51.736 141.044, 54 140.358, 54 139.383 C 54 137.547, 56.438 137.618, 58 139.500 C 58.685 140.325, 59.865 141, 60.622 141 C 61.380 141, 62.890 141.890, 63.977 142.977 C 65.920 144.920, 69 144.783, 69 142.753 C 69 140.781, 63.241 137.319, 58.500 136.441 C 51.881 135.215, 47.394 134.916, 46.671 135.654 M 21 144.500 C 21 147.096, 23.409 148.024, 24.246 145.750 C 24.934 143.878, 24.018 142, 22.417 142 C 21.572 142, 21 143.010, 21 144.500 M 134.380 145.356 C 131.657 148.470, 138.810 151.790, 141.800 148.800 C 143.533 147.067, 143.309 146.462, 140.453 145.161 C 137.238 143.696, 135.792 143.742, 134.380 145.356 M 196 149.873 C 196 151.535, 198.588 153.012, 199.647 151.953 C 200.808 150.792, 208 153.426, 208 155.013 C 208 156.329, 213.320 156.280, 214.648 154.952 C 215.884 153.716, 223.752 159.824, 225.769 163.584 C 227.572 166.946, 230.478 168.334, 231.964 166.543 C 233.291 164.944, 232.429 162.797, 228.237 157.266 C 223.863 151.493, 220.718 150.320, 207.750 149.623 C 201.154 149.268, 196 149.378, 196 149.873 M 202.473 155.044 C 202.148 155.570, 202.809 156, 203.941 156 C 206.356 156, 206.599 155.444, 204.532 154.651 C 203.725 154.341, 202.798 154.518, 202.473 155.044 M 136.600 167.233 C 134.559 169.454, 135.112 171.418, 138.345 173.433 C 139.589 174.209, 140.261 174.173, 140.805 173.303 C 141.298 172.513, 142.054 172.423, 143.026 173.037 C 144.254 173.814, 144.198 173.972, 142.692 173.985 C 141.250 173.997, 141.790 175.168, 145.348 179.750 C 149.571 185.187, 153.368 189, 154.559 189 C 154.854 189, 156.087 190.012, 157.298 191.250 C 160.860 194.890, 168.397 199.744, 169.750 199.271 C 172.990 198.137, 170.168 193.418, 159.750 182.550 C 156.037 178.677, 153 175.169, 153 174.754 C 153 174.339, 152.325 174, 151.500 174 C 150.675 174, 150 173.527, 150 172.949 C 150 171.133, 142.595 165.006, 140.500 165.088 C 139.400 165.131, 137.645 166.097, 136.600 167.233 M 54.536 169.607 C 53.595 170.547, 52.061 170.988, 50.838 170.668 C 49.649 170.357, 45.888 171.359, 42.123 172.989 C 38.481 174.567, 33.410 176.135, 30.856 176.474 C 25.629 177.168, 15.740 183.399, 15.170 186.356 C 14.820 188.174, 17.560 192, 19.211 192 C 19.707 192, 21.325 190.698, 22.806 189.107 C 24.288 187.516, 26.907 185.918, 28.627 185.555 C 30.346 185.192, 33.246 183.794, 35.071 182.448 C 36.896 181.101, 39.089 179.986, 39.944 179.968 C 40.800 179.951, 42.374 179.276, 43.441 178.468 C 44.509 177.661, 46.366 177, 47.569 177 C 48.771 177, 50.315 176.325, 51 175.500 C 51.685 174.675, 53.296 174, 54.581 174 C 57.675 174, 63.944 170.830, 63.975 169.250 C 64.012 167.381, 56.477 167.666, 54.536 169.607 M 180.030 183.550 C 180.057 186.136, 180.193 186.272, 181.134 184.654 C 181.903 183.330, 181.895 182.495, 181.104 181.704 C 180.299 180.899, 180.008 181.399, 180.030 183.550 M 179 207 C 179 207.550, 179.450 208, 180 208 C 180.550 208, 181 207.550, 181 207 C 181 206.450, 180.550 206, 180 206 C 179.450 206, 179 206.450, 179 207 M 115.583 213.866 C 115.152 214.563, 115.070 215.403, 115.400 215.733 C 116.295 216.628, 117.271 215.312, 116.787 213.862 C 116.449 212.846, 116.213 212.846, 115.583 213.866 M 178.500 244 C 178.840 244.550, 179.316 245, 179.559 245 C 179.802 245, 180 244.550, 180 244 C 180 243.450, 179.523 243, 178.941 243 C 178.359 243, 178.160 243.450, 178.500 244" stroke="none" fill="black" fill-rule="evenodd"/>
</svg>