<svg xmlns="http://www.w3.org/2000/svg" width="300" height="300" viewBox="0 0 300 300" version="1.1">
	<path d="M 201.454 47.750 C 198.979 50.445, 198.008 52.433, 198.005 54.816 C 198.002 56.639, 197.535 59, 196.967 60.062 C 196.398 61.124, 195.478 64.582, 194.921 67.746 C 193.621 75.135, 190.836 84.364, 186.846 94.500 C 185.160 98.784, 183.639 105.814, 182.735 113.500 C 182.570 114.908, 183.088 115.500, 184.486 115.500 C 185.695 115.500, 186.602 114.717, 186.805 113.500 C 187.330 110.334, 192.976 95.795, 195.154 92 C 196.144 90.275, 197.096 88.159, 199.476 82.398 C 200.837 79.103, 201.695 78.276, 203.835 78.197 C 215.881 77.752, 222.356 77.038, 227.500 75.585 C 230.800 74.653, 235.075 73.717, 237 73.506 C 238.925 73.295, 243.537 72.595, 247.250 71.951 C 253.254 70.909, 254 70.529, 254 68.512 C 254 64.322, 251.849 63.657, 240.727 64.408 C 235.102 64.788, 228.925 65.496, 227 65.981 C 225.075 66.466, 219.730 67.376, 215.121 68.003 C 205.207 69.352, 203.864 68.732, 205.874 63.736 C 206.590 61.956, 207.556 59.150, 208.020 57.500 C 208.484 55.850, 209.521 52.721, 210.323 50.547 C 212.159 45.571, 211.564 44, 207.842 44 C 205.719 44, 203.938 45.046, 201.454 47.750 M 128.206 49.048 C 125.400 50.174, 123.035 55.484, 123.542 59.518 C 123.749 61.158, 125.014 67.450, 126.354 73.500 C 127.694 79.550, 128.571 84.862, 128.303 85.304 C 127.439 86.728, 127.941 101.341, 128.886 102.286 C 131.048 104.448, 133.550 99.419, 134.923 90.151 C 136.042 82.599, 136.078 78.834, 135.114 70.173 C 134.460 64.303, 133.935 57.770, 133.947 55.655 C 133.968 51.822, 132.572 47.943, 131.215 48.063 C 130.822 48.098, 129.468 48.541, 128.206 49.048 M 127.746 66.250 C 127.167 67.971, 128.041 71, 129.117 71 C 129.602 71, 130 69.650, 130 68 C 130 65.008, 128.544 63.878, 127.746 66.250 M 216.250 72.250 C 216.880 74.142, 220 74.411, 220 72.573 C 220 71.646, 219.145 71, 217.917 71 C 216.695 71, 216.005 71.517, 216.250 72.250 M 96.667 72.667 C 95.822 73.512, 95.796 77.463, 96.630 78.297 C 96.977 78.644, 97.338 83.556, 97.433 89.214 C 97.528 94.871, 98.246 102.787, 99.030 106.805 C 100.281 113.221, 100.882 114.435, 103.973 116.793 C 107.261 119.301, 108.117 119.468, 116.996 119.336 C 126.921 119.189, 142.045 116.106, 144.934 113.640 C 145.795 112.905, 147.287 112.025, 148.250 111.683 C 149.213 111.342, 150 110.157, 150 109.050 C 150 106.160, 145.825 105.413, 140.673 107.381 C 138.143 108.347, 133.423 109.002, 128.967 109.006 C 124.860 109.009, 119.923 109.449, 117.996 109.985 C 109.092 112.458, 106.366 108.467, 105.428 91.581 C 105.120 86.037, 104.403 79.362, 103.834 76.750 C 102.908 72.494, 102.516 72, 100.067 72 C 98.563 72, 97.033 72.300, 96.667 72.667 M 204.141 73.330 C 203.189 74.477, 203.371 74.864, 205.075 75.309 C 207.735 76.005, 210.202 75.110, 209.714 73.627 C 209.151 71.914, 205.479 71.718, 204.141 73.330 M 158.460 78.026 C 152.554 80.210, 149.390 91.351, 151.934 101 C 152.442 102.925, 153.053 107.341, 153.292 110.814 C 153.791 118.049, 155.157 120.272, 157.602 117.827 C 158.772 116.656, 159.295 113.644, 159.590 106.369 C 160.062 94.743, 160.284 93.624, 163.526 86.537 C 164.887 83.562, 166 80.693, 166 80.162 C 166 78.674, 160.737 77.183, 158.460 78.026 M 224.909 83.796 C 221.083 85.506, 219.820 88.325, 218.544 98 C 217.621 104.991, 214.016 120.097, 212.287 124.216 C 211.323 126.512, 210.948 129.290, 211.304 131.488 C 211.622 133.444, 211.524 134.824, 211.087 134.554 C 210.202 134.007, 208 138.282, 208 140.547 C 208 141.346, 208.675 142, 209.500 142 C 210.372 142, 211 141.093, 211 139.833 C 211 138.642, 211.254 137.921, 211.564 138.231 C 211.875 138.542, 211.831 140.385, 211.466 142.328 C 210.882 145.441, 210.457 145.851, 207.883 145.778 C 205.662 145.714, 204.816 145.115, 204.354 143.276 C 204.021 141.946, 202.462 138.527, 200.892 135.679 C 199.321 132.831, 198.028 129.768, 198.018 128.872 C 197.988 126.151, 195.614 124.831, 193.513 126.367 C 190.934 128.252, 190.038 138.694, 192.377 139.591 C 193.270 139.934, 194 141.011, 194 141.985 C 194 142.958, 194.646 144.291, 195.436 144.947 C 196.225 145.602, 197.154 147.426, 197.500 149 C 197.846 150.574, 198.724 152.356, 199.453 152.961 C 200.181 153.565, 201.080 156.487, 201.451 159.453 C 202.001 163.853, 201.678 166.013, 199.698 171.173 C 198.364 174.653, 196.489 180.425, 195.532 184 C 194.575 187.575, 193.217 192.075, 192.515 194 C 190.153 200.472, 186.971 211.486, 186.986 213.136 C 186.993 214.035, 186.337 216.048, 185.528 217.609 C 184.718 219.170, 183.780 222.484, 183.443 224.973 C 183.107 227.463, 182.163 230.983, 181.347 232.795 C 179.449 237.009, 180.683 241.357, 183.911 241.830 C 187.954 242.423, 189.669 239.624, 190.414 231.217 C 190.805 226.807, 192.178 220.782, 193.617 217.158 C 195.003 213.671, 196.951 207.821, 197.947 204.158 C 198.942 200.496, 200.711 194.351, 201.878 190.503 C 203.045 186.655, 204 182.042, 204 180.253 C 204 177.943, 204.462 177, 205.594 177 C 206.470 177, 207.427 176.082, 207.721 174.959 C 208.514 171.928, 210.302 173.129, 211.616 177.576 C 212.253 179.734, 213.945 183.525, 215.375 186 C 218.036 190.604, 218.814 195, 216.968 195 C 216.400 195, 215.529 193.987, 215.031 192.750 C 214.280 190.882, 214.116 190.813, 214.063 192.349 C 213.969 195.099, 217.031 201, 218.553 201 C 219.354 201, 220.141 202.760, 220.546 205.455 C 221.256 210.195, 223.906 215.114, 223.968 211.809 C 223.986 210.879, 223.550 209.840, 223 209.500 C 221.538 208.596, 221.779 207, 223.379 207 C 224.137 207, 225.338 208.402, 226.048 210.116 C 227.168 212.819, 227.123 213.352, 225.711 214.142 C 223.721 215.255, 224.572 218, 226.907 218 C 230.167 218, 232.728 223.257, 229.923 224.192 C 229.331 224.390, 229.857 225.440, 231.093 226.526 C 233.060 228.255, 233.260 228.283, 232.701 226.750 C 231.677 223.941, 234.526 224.665, 235.839 227.547 C 237.322 230.800, 237.323 230.791, 235.261 231.188 C 233.699 231.489, 233.742 231.742, 235.687 233.687 C 237.080 235.080, 238.591 235.658, 239.926 235.309 C 241.067 235.011, 242 235.184, 242 235.695 C 242 236.205, 242.905 237.594, 244.010 238.781 C 245.116 239.967, 245.903 241.504, 245.760 242.195 C 245.617 242.887, 246.524 243.608, 247.775 243.799 C 249.026 243.990, 250.765 245.238, 251.640 246.573 C 252.514 247.908, 253.901 249, 254.722 249 C 255.637 249, 255.992 249.580, 255.638 250.500 C 254.830 252.608, 255.933 255, 257.714 255 C 258.636 255, 258.992 254.422, 258.638 253.500 C 257.895 251.563, 259.392 251.563, 261 253.500 C 262.020 254.729, 261.951 255, 260.622 255 C 253.584 255, 271.313 263.946, 279.893 264.724 C 285.348 265.219, 285.836 265.092, 286.496 263.012 C 287.529 259.758, 284.384 257.098, 278.382 256.149 C 272.468 255.215, 263.492 249.620, 257.286 243 C 254.965 240.525, 250.236 235.506, 246.777 231.847 C 243.317 228.188, 238.995 222.415, 237.172 219.019 C 235.349 215.623, 232.539 210.766, 230.929 208.226 C 229.318 205.686, 228 203.032, 228 202.327 C 228 201.622, 226.650 198.550, 225 195.500 C 223.350 192.450, 222 189.285, 222 188.467 C 222 187.648, 221.129 185.071, 220.064 182.739 C 215.716 173.220, 214.698 170.177, 213.556 163.273 C 212.592 157.441, 212.616 155.441, 213.681 152.908 C 214.406 151.182, 215 148.937, 215 147.919 C 215 146.901, 215.620 144.590, 216.377 142.784 C 217.689 139.655, 223.314 117.981, 225.014 109.500 C 227.161 98.793, 229.869 89.993, 231.891 87.153 C 235.544 82.023, 232.333 80.480, 224.909 83.796 M 24.667 93.667 C 23.464 94.870, 23.969 98.051, 25.454 98.621 C 26.254 98.928, 27.813 100.713, 28.920 102.589 C 30.052 104.508, 31.739 106, 32.775 106 C 33.789 106, 35.491 106.661, 36.559 107.468 C 37.626 108.276, 39.067 108.951, 39.761 108.968 C 41.724 109.018, 50.046 113.055, 54.805 116.267 C 57.173 117.864, 59.760 118.922, 60.555 118.617 C 62.077 118.033, 62.481 114.304, 61.234 112.344 C 59.868 110.198, 49.535 103.633, 44.521 101.727 C 41.783 100.686, 37.447 98.296, 34.887 96.417 C 30.567 93.246, 26.249 92.084, 24.667 93.667 M 29.500 102 C 29.840 102.550, 31.329 102.993, 32.809 102.985 C 34.914 102.973, 35.173 102.758, 34 102 C 32.024 100.723, 28.711 100.723, 29.500 102 M 187 127.583 C 187 128.454, 187.534 128.989, 188.188 128.771 C 190.042 128.153, 190.349 126, 188.583 126 C 187.713 126, 187 126.712, 187 127.583 M 151.479 137.921 C 149.767 139.633, 112.277 144.995, 101.948 145.006 C 98.952 145.009, 94.818 145.478, 92.762 146.049 C 89.104 147.065, 86.350 150.139, 87.471 151.953 C 88.364 153.397, 98.889 155.248, 101.832 154.478 C 103.299 154.094, 108.162 153.622, 112.637 153.430 C 117.113 153.237, 123.413 152.631, 126.637 152.082 C 129.862 151.533, 135.135 150.631, 138.355 150.077 C 141.575 149.524, 144.725 148.667, 145.355 148.173 C 145.985 147.680, 147.625 146.998, 149 146.659 C 150.375 146.320, 152.850 144.938, 154.500 143.589 C 156.991 141.551, 157.312 140.826, 156.393 139.317 C 155.089 137.177, 152.857 136.543, 151.479 137.921 M 125.459 147.067 C 125.096 147.653, 125.040 148.373, 125.333 148.667 C 126.050 149.383, 128 148.121, 128 146.941 C 128 145.663, 126.274 145.748, 125.459 147.067 M 21.250 153.077 C 18.031 154.591, 17 155.643, 17 157.415 C 17 160.792, 19.309 162.440, 22.014 160.992 C 23.192 160.362, 24.684 160.045, 25.328 160.289 C 25.973 160.532, 31.167 160.367, 36.871 159.922 C 45.308 159.264, 47.965 159.402, 51.119 160.664 C 53.251 161.517, 55.672 161.956, 56.498 161.639 C 58.879 160.725, 58.249 157.560, 55.242 155.337 C 51.669 152.696, 47.723 151.920, 35.500 151.457 C 27.064 151.137, 24.835 151.390, 21.250 153.077 M 111.310 166.850 C 110.106 167.207, 107.453 168.982, 105.415 170.793 L 101.709 174.087 102.284 182.293 C 102.665 187.730, 102.367 192.863, 101.401 197.500 C 98.008 213.794, 96.877 230.277, 99.006 232.406 C 99.553 232.953, 100 234.449, 100 235.731 C 100 238.447, 101.977 239.473, 105.502 238.589 C 108.454 237.848, 108.782 235.123, 106.365 231.434 C 104.930 229.244, 104.865 227.747, 105.831 219.219 C 106.869 210.054, 108.570 200.234, 110.892 190 C 111.453 187.525, 111.932 183.918, 111.956 181.985 C 111.980 180.052, 112.900 176.791, 114 174.739 C 116.248 170.544, 116.647 165.948, 114.750 166.100 C 114.063 166.155, 112.515 166.492, 111.310 166.850 M 201.086 174 C 201.024 174.825, 200.701 176.512, 200.370 177.750 C 200.036 178.996, 200.217 180, 200.776 180 C 202.265 180, 202.764 177.841, 201.932 175 C 201.529 173.625, 201.148 173.175, 201.086 174 M 128.835 177.673 C 126.424 178.312, 126.180 179.698, 127.119 187.409 C 127.582 191.208, 128.181 204.125, 128.450 216.113 C 128.719 228.101, 129.218 239.022, 129.560 240.382 C 130.314 243.387, 133 244.756, 133 242.136 C 133 240.922, 134.222 239.969, 136.750 239.209 L 140.500 238.083 137.250 241.027 C 133.355 244.556, 133.265 245, 136.444 245 C 137.845 245, 140.514 243.507, 142.694 241.505 C 144.787 239.582, 146.988 238.007, 147.585 238.005 C 148.911 237.999, 167.652 219.483, 169.858 216 C 170.729 214.625, 172.733 211.855, 174.312 209.844 C 177.133 206.252, 177.589 203.028, 175.379 202.292 C 174.762 202.087, 170.712 205.446, 166.379 209.756 C 151.457 224.598, 139.027 234.360, 137.279 232.612 C 136.984 232.317, 136.348 220.289, 135.865 205.882 C 135.310 189.352, 134.574 179.192, 133.870 178.344 C 132.744 176.987, 131.867 176.870, 128.835 177.673 M 60 202.500 C 58.625 203.286, 56.375 203.961, 55 203.999 C 53.625 204.037, 49.125 205.402, 45 207.031 C 40.875 208.660, 37.125 209.994, 36.668 209.996 C 34.098 210.008, 21.471 216.572, 18.955 219.204 C 15.508 222.812, 15.510 222.801, 17.612 225.124 C 19.951 227.709, 23.464 226.765, 38.500 219.509 C 45.650 216.058, 52.625 212.904, 54 212.498 C 59.162 210.977, 67.044 206.786, 67.958 205.078 C 69.931 201.391, 64.831 199.739, 60 202.500" stroke="none" fill="black" fill-rule="evenodd"/>
</svg>