<svg xmlns="http://www.w3.org/2000/svg" width="300" height="300" viewBox="0 0 300 300" version="1.1">
	<path d="M 144.258 13.250 C 143.202 14.586, 140.578 34.534, 140.811 39.449 C 141.008 43.610, 138.506 45.864, 132.859 46.613 C 130.187 46.968, 128.001 47.762, 128.001 48.379 C 128.003 50.104, 135.899 49.775, 136.995 48.005 C 137.788 46.724, 138.139 46.796, 139.444 48.505 C 140.693 50.140, 140.859 52.575, 140.369 62 C 139.650 75.806, 138.653 78, 133.099 78 C 130.954 78, 128.712 78.642, 128.042 79.449 C 127.381 80.246, 125.189 81.426, 123.170 82.072 C 119.055 83.389, 115 86.666, 115 88.674 C 115 90.668, 118.039 90.278, 123.554 87.578 C 131.322 83.773, 136.255 81.922, 136.904 82.566 C 137.232 82.892, 137.853 89.086, 138.283 96.329 C 139.503 116.826, 139.500 117.073, 138.061 117.962 C 137.002 118.617, 137.169 119.265, 138.862 121.083 C 140.038 122.345, 141 123.919, 141 124.582 C 141 126.314, 143.682 127.096, 144.804 125.691 C 145.327 125.036, 146.066 123.487, 146.445 122.250 C 146.824 121.013, 147.554 120, 148.067 120 C 148.580 120, 149 119.325, 149 118.500 C 149 117.675, 149.450 117, 150 117 C 151.867 117, 151.011 115.236, 148.872 114.677 C 147.109 114.216, 146.860 113.638, 147.423 111.310 C 147.796 109.765, 148.359 106.138, 148.675 103.250 C 148.990 100.362, 149.642 98, 150.124 98 C 150.606 98, 151 95.075, 151 91.500 C 151 85.233, 150.910 85, 148.500 85 C 145.538 85, 145.414 84.191, 147.750 80.087 C 149.511 76.993, 151 76.075, 151 78.083 C 151 80.076, 153.437 78.383, 154 76 C 154.730 72.906, 156.986 72.229, 157.683 74.895 C 158.563 78.261, 162.463 77.571, 165.568 73.500 C 169.449 68.411, 171 68.896, 171 75.198 C 171 84.116, 168.758 108.443, 167.827 109.639 C 166.958 110.754, 164.984 111.396, 158.082 112.808 C 153.751 113.694, 153.161 115.404, 156.444 117.555 C 158.678 119.019, 159.429 119.065, 162.225 117.907 C 165.422 116.582, 165.426 116.572, 162.969 115.931 C 160.511 115.290, 160.513 115.284, 163.500 114.506 C 165.150 114.076, 167.082 113.265, 167.792 112.704 C 168.686 112, 169.455 112.055, 170.284 112.884 C 171.216 113.816, 171.151 114.293, 169.992 115.026 C 168.672 115.861, 168.673 115.967, 170 115.953 C 170.825 115.944, 172.374 115.276, 173.441 114.468 C 174.509 113.661, 176.395 113, 177.632 113 C 180 113, 181.733 111.411, 179.996 110.832 C 179.438 110.646, 179.885 109.929, 180.990 109.238 C 182.670 108.189, 183 108.231, 183 109.492 C 183 111.859, 185.785 111.257, 187.592 108.500 C 189.190 106.062, 193 105.005, 193 107 C 193 107.550, 192.475 108, 191.833 108 C 191.192 108, 190.923 108.256, 191.236 108.569 C 191.904 109.237, 204.035 107.047, 205.500 105.994 C 206.050 105.599, 207.769 104.972, 209.321 104.601 C 210.911 104.221, 211.956 103.397, 211.717 102.713 C 210.815 100.141, 193.360 102.229, 179.500 106.567 C 177.172 107.295, 175.358 107.430, 175.160 106.890 C 174.974 106.380, 175.493 100.908, 176.315 94.731 C 177.137 88.554, 177.832 81.505, 177.859 79.067 C 177.886 76.630, 178.434 73.367, 179.076 71.817 C 180.154 69.215, 180.672 68.994, 185.871 68.923 C 195.270 68.796, 197.869 67.706, 196.608 64.421 C 196.034 62.926, 194.932 62.786, 187.975 63.322 L 180 63.937 180 52.403 C 180 38.048, 180.553 36.814, 186.809 37.206 C 190.917 37.463, 191.537 37.240, 191.798 35.412 C 192.311 31.827, 189.594 30.484, 184.938 32.021 C 182.481 32.831, 180.582 32.982, 180.012 32.412 C 179.502 31.902, 178.953 27.438, 178.792 22.492 C 178.500 13.508, 178.498 13.500, 175.750 13.184 C 174.238 13.010, 172.943 13.235, 172.873 13.684 C 172.803 14.133, 172.465 19.450, 172.123 25.500 L 171.500 36.500 165.500 38.414 C 162.200 39.466, 158.150 40.925, 156.500 41.655 C 153.612 42.934, 153.584 43.006, 155.750 43.608 C 156.988 43.952, 158 44.856, 158 45.617 C 158 47.481, 163.073 47.416, 165.559 45.519 C 167.244 44.233, 167.302 43.900, 166 42.987 C 164.851 42.181, 165.318 42.002, 168 42.218 L 171.500 42.500 171.784 53.278 C 171.940 59.206, 171.642 64.818, 171.121 65.749 C 170.263 67.281, 165.909 68.747, 152.179 72.128 C 149.803 72.713, 147.624 72.957, 147.337 72.671 C 146.470 71.804, 149.281 49.550, 150.348 48.836 C 152.128 47.644, 151.703 43.156, 149.762 42.648 C 148.112 42.217, 148.013 41.183, 148.571 30.213 C 149.075 20.307, 148.902 17.712, 147.564 15.125 C 145.737 11.592, 145.620 11.525, 144.258 13.250 M 122.345 50.543 C 121.535 52.653, 122.887 53.793, 124.039 51.971 C 125.263 50.035, 125.239 49, 123.969 49 C 123.401 49, 122.671 49.694, 122.345 50.543 M 119 86.059 C 119 86.641, 119.450 86.840, 120 86.500 C 120.550 86.160, 121 85.684, 121 85.441 C 121 85.198, 120.550 85, 120 85 C 119.450 85, 119 85.477, 119 86.059 M 38 109 C 37.411 110.100, 37.058 111.026, 37.215 111.058 C 39.721 111.564, 45 111.771, 45 111.362 C 45 110.646, 40.700 107.076, 39.785 107.033 C 39.392 107.015, 38.589 107.900, 38 109 M 51.429 113.894 C 51.429 115.380, 52.406 115.927, 55.964 116.431 C 62.204 117.315, 61.642 117.329, 69.940 116.077 C 78.027 114.856, 78.525 114.658, 77.541 113.067 C 76.599 111.542, 67.267 111.701, 66.746 113.250 C 66.411 114.246, 66.013 114.243, 64.789 113.233 C 63.137 111.869, 60 112.544, 60 114.262 C 60 114.838, 59.177 114.565, 58.171 113.655 C 55.590 111.319, 51.429 111.467, 51.429 113.894 M 122.500 120.564 C 119.750 121.311, 116.271 122.635, 114.770 123.506 C 113.268 124.377, 109.668 125.355, 106.770 125.679 C 101.419 126.277, 98 128.217, 98 130.655 C 98 132.679, 95.650 132.271, 94.232 130 C 92.185 126.722, 90 127.496, 90 131.500 C 90 135.223, 90.498 135.499, 96.500 135.105 C 101.439 134.780, 117.534 128.953, 119 126.958 C 119.275 126.584, 121.638 125.963, 124.250 125.578 C 128.811 124.905, 130.381 123.622, 127.750 122.717 C 127.063 122.480, 127.175 122.396, 128 122.530 C 128.825 122.664, 130.327 123.112, 131.338 123.527 C 132.860 124.152, 133.118 123.871, 132.838 121.891 C 132.425 118.969, 129.673 118.616, 122.500 120.564 M 119.813 123.683 C 120.534 123.972, 121.397 123.936, 121.729 123.604 C 122.061 123.272, 121.471 123.036, 120.417 123.079 C 119.252 123.127, 119.015 123.364, 119.813 123.683 M 163.694 124.639 C 162.895 125.438, 163.798 127, 165.059 127 C 165.577 127, 166 126.325, 166 125.500 C 166 123.954, 164.820 123.513, 163.694 124.639 M 105 129 C 105 129.550, 105.423 130, 105.941 130 C 106.459 130, 107.160 129.550, 107.500 129 C 107.840 128.450, 107.416 128, 106.559 128 C 105.702 128, 105 128.450, 105 129 M 161.174 131.314 C 159.697 132.887, 159 134.899, 159 137.592 C 159 142.108, 156.505 146.408, 154.361 145.585 C 153.574 145.283, 150.809 145.467, 148.215 145.994 C 145.622 146.521, 141.513 147.128, 139.084 147.343 C 135.012 147.703, 132 149.778, 132 152.223 C 132 155.258, 145.270 153.233, 147.039 149.927 C 148.259 147.647, 151 147.352, 151 149.500 C 151 150.325, 151.450 151, 152 151 C 153.447 151, 153.231 147.260, 151.750 146.662 C 151.003 146.361, 151.205 146.126, 152.250 146.079 C 153.213 146.036, 154 146.576, 154 147.279 C 154 147.983, 154.902 149.209, 156.005 150.003 C 157.814 151.307, 157.955 152.232, 157.454 159.474 C 156.506 173.170, 155.013 179.945, 152.595 181.529 C 150.708 182.766, 131.305 185.651, 130.490 184.816 C 129.825 184.134, 129.600 148.432, 130.255 147.384 C 131.092 146.044, 127.530 142.555, 126.178 143.390 C 124.596 144.368, 123.901 149.707, 122.979 168 C 122.493 177.625, 121.624 190.476, 121.048 196.559 C 120.472 202.641, 120 209.927, 120 212.750 C 120 215.767, 119.485 218.208, 118.750 218.672 C 116.583 220.042, 104.658 222.882, 100.821 222.942 C 96.555 223.009, 94 225.118, 94 228.571 C 94 230.504, 94.518 231, 96.535 231 C 97.930 231, 100.067 230.374, 101.285 229.608 C 102.503 228.843, 105.586 227.923, 108.135 227.564 C 110.794 227.190, 113.524 226.078, 114.540 224.956 C 117.964 221.173, 117.991 221.475, 116.159 242.967 C 114.630 260.897, 115.836 274, 119.015 274 C 120.471 274, 120.969 270.885, 122.498 252.213 C 124.665 225.763, 124.750 225.315, 127.997 223.002 C 130.246 221.401, 131.794 221.138, 136.274 221.594 C 139.402 221.913, 142.045 221.737, 142.384 221.187 C 142.714 220.654, 145.927 220.393, 149.524 220.605 C 154.450 220.896, 156.197 220.650, 156.598 219.606 C 156.890 218.843, 158.113 218.195, 159.315 218.164 C 160.517 218.134, 164.893 217.439, 169.040 216.621 C 180.468 214.366, 188.564 215.660, 186.268 219.375 C 185.938 219.909, 185.729 230.055, 185.804 241.923 C 185.878 253.790, 185.713 264.239, 185.436 265.142 C 185.160 266.045, 184.049 267.016, 182.967 267.298 C 180.148 268.036, 180.539 271.184, 183.842 274.348 C 186.251 276.657, 187.077 276.921, 189.273 276.086 C 192.744 274.767, 193.051 272.184, 193.390 241.460 C 193.557 226.298, 194.082 215.676, 194.720 214.536 C 195.346 213.418, 195.446 211.604, 194.966 210.076 C 194.522 208.659, 193.923 198.725, 193.636 188 C 193.115 168.512, 192.106 162.062, 187.827 150.866 C 185.537 144.876, 184.655 144.342, 175.842 143.607 C 171.360 143.233, 167.311 142.692, 166.846 142.405 C 166.381 142.117, 166 138.984, 166 135.441 C 166 128.280, 164.905 127.344, 161.174 131.314 M 173.269 145.693 C 174.242 145.947, 175.592 145.930, 176.269 145.656 C 176.946 145.382, 176.150 145.175, 174.500 145.195 C 172.850 145.215, 172.296 145.439, 173.269 145.693 M 166.958 147.550 C 165.828 148.912, 164.109 162.629, 163.643 174 C 163.478 178.029, 163.296 178.009, 173.500 175.105 C 180.078 173.233, 183.045 173.500, 181.603 175.834 C 180.982 176.838, 176.361 178.645, 168.236 181.061 C 165.890 181.759, 163.462 182.943, 162.840 183.693 C 162.218 184.442, 161.356 190.106, 160.924 196.278 C 160.492 202.450, 159.836 209.113, 159.465 211.085 L 158.792 214.670 168.146 213.407 C 173.291 212.711, 178.963 211.692, 180.750 211.141 C 182.537 210.590, 184 210.388, 184 210.692 C 184 210.996, 184.681 210.680, 185.513 209.989 C 186.786 208.932, 186.957 206.102, 186.588 192.117 C 186.347 182.978, 185.658 172.164, 185.056 168.087 C 183.909 160.322, 181.266 150.030, 180.090 148.751 C 179.711 148.339, 177.399 147.938, 174.951 147.860 C 172.503 147.782, 169.997 147.326, 169.383 146.847 C 168.697 146.312, 167.761 146.583, 166.958 147.550 M 64.546 157.122 C 61.271 158.179, 58.283 159.541, 57.907 160.150 C 57.531 160.758, 56.739 160.957, 56.146 160.590 C 55.553 160.224, 53.271 160.841, 51.074 161.962 C 48.877 163.083, 46.373 164, 45.508 164 C 44.644 164, 43.678 164.675, 43.362 165.500 C 43.045 166.325, 41.934 167, 40.893 167 C 39.816 167, 39 167.697, 39 168.617 C 39 169.801, 38.333 170.106, 36.506 169.756 C 33.147 169.114, 31.400 171.257, 33.538 173.395 C 35.646 175.504, 39.109 174.690, 45.500 170.583 C 48.250 168.816, 51.702 166.780, 53.170 166.059 C 54.639 165.338, 55.625 164.187, 55.362 163.501 C 55.038 162.656, 55.642 162.400, 57.241 162.706 C 58.544 162.955, 62.161 161.984, 65.327 160.536 C 68.478 159.095, 71.402 158.130, 71.825 158.392 C 73.084 159.170, 75.314 157.317, 74.569 156.112 C 73.652 154.628, 71.643 154.831, 64.546 157.122 M 151.032 186.139 C 151.011 187.227, 149.757 188.011, 147.297 188.472 C 145.260 188.854, 141.803 190.080, 139.615 191.196 C 135.798 193.143, 135.585 193.153, 134.319 191.422 C 133.594 190.429, 133 189.254, 133 188.809 C 133 188.364, 132.162 188, 131.138 188 C 129.544 188, 129.184 189.080, 128.638 195.500 C 128.287 199.625, 127.707 206.445, 127.348 210.656 L 126.696 218.313 129.098 217.510 C 130.419 217.069, 136.563 216.510, 142.750 216.268 L 154 215.828 154 202.105 C 154 191.587, 153.657 187.929, 152.532 186.441 C 151.289 184.798, 151.059 184.752, 151.032 186.139 M 72.305 210.046 C 69.453 212.220, 66.838 214, 66.493 214 C 66.148 214, 64.392 215.125, 62.589 216.500 C 60.786 217.875, 58.679 219.010, 57.906 219.022 C 57.133 219.034, 55.375 219.924, 54 221 C 52.625 222.076, 50.817 222.966, 49.982 222.978 C 49.147 222.990, 46.897 224.065, 44.982 225.366 C 43.067 226.667, 40.038 228.053, 38.250 228.445 C 34.426 229.285, 33.786 231.465, 37.576 230.741 C 38.993 230.470, 39.779 230.621, 39.324 231.076 C 38.477 231.923, 33.474 232.260, 29 231.772 C 25.809 231.425, 24.866 235.323, 27.765 236.874 C 29.580 237.846, 35.884 236.449, 37.648 234.685 C 38.025 234.308, 39.328 234, 40.544 234 C 41.760 234, 43.305 233.338, 43.977 232.528 C 44.649 231.718, 47.517 229.904, 50.349 228.497 C 64.179 221.627, 80.564 209.164, 78.492 207.092 C 77.824 206.424, 75.765 207.407, 72.305 210.046 M 236.500 207.524 C 234.850 208.286, 231.925 208.933, 230 208.960 C 225.534 209.025, 219 210.823, 219 211.988 C 219 212.480, 219.498 213.190, 220.107 213.566 C 220.878 214.043, 220.803 214.510, 219.857 215.110 C 217.761 216.437, 223.621 216.142, 230 214.598 C 233.025 213.865, 237.206 212.251, 239.292 211.010 C 245.114 207.545, 242.776 204.626, 236.500 207.524 M 201 211.708 C 201 212.250, 202.012 213.183, 203.250 213.780 C 205.120 214.681, 205.194 214.876, 203.691 214.932 C 202.696 214.970, 202.160 215.450, 202.500 216 C 203.291 217.280, 214.020 217.280, 216 216 C 216.949 215.387, 217.052 215.025, 216.281 215.015 C 215.611 215.007, 215.322 214.325, 215.638 213.500 C 216.049 212.429, 215.539 211.998, 213.857 211.991 C 212.561 211.987, 209.137 211.699, 206.250 211.352 C 203.038 210.966, 201 211.104, 201 211.708 M 147.500 218 C 145.728 218.762, 145.813 218.867, 148.250 218.930 C 149.762 218.968, 151 218.550, 151 218 C 151 216.826, 150.231 216.826, 147.500 218 M 167.250 218.689 C 168.213 218.941, 169.787 218.941, 170.750 218.689 C 171.713 218.438, 170.925 218.232, 169 218.232 C 167.075 218.232, 166.287 218.438, 167.250 218.689 M 104.667 224.667 C 103.302 226.031, 104.069 227.129, 106.172 226.820 C 108.920 226.415, 109.843 224, 107.250 224 C 106.196 224, 105.033 224.300, 104.667 224.667 M 164.667 251.667 C 163.249 253.085, 164.170 255.484, 168.750 262.298 C 171.363 266.185, 173.725 269.672, 174 270.047 C 174.275 270.423, 175.454 271.028, 176.620 271.391 C 178.413 271.950, 178.841 271.548, 179.400 268.776 C 179.995 265.828, 179.627 265.100, 175.727 261.500 C 173.344 259.300, 170.374 256.038, 169.129 254.250 C 166.853 250.984, 165.900 250.433, 164.667 251.667" stroke="none" fill="black" fill-rule="evenodd"/>
</svg>