<svg xmlns="http://www.w3.org/2000/svg" width="300" height="300" viewBox="0 0 300 300" version="1.1">
	<path d="M 166.773 42.318 C 165.439 43.652, 163.295 45.307, 162.009 45.995 C 160.723 46.684, 156.932 49.280, 153.585 51.766 C 150.238 54.252, 143.450 58.265, 138.500 60.685 C 125.575 67.004, 124.179 67.856, 123.587 69.776 C 122.338 73.836, 127.146 104.907, 129.164 105.809 C 129.544 105.979, 129.592 107.737, 129.271 109.715 C 128.907 111.963, 129.057 113.082, 129.674 112.702 C 130.292 112.320, 130.533 114.209, 130.320 117.763 C 130.132 120.883, 130.493 125.924, 131.121 128.967 C 131.749 132.010, 132.476 136.188, 132.736 138.250 C 133.234 142.192, 134.364 143.099, 135.404 140.391 C 135.872 139.169, 136.818 138.931, 139.329 139.402 C 142.355 139.970, 148.796 138.550, 150 137.049 C 150.495 136.432, 163.669 134, 166.519 134 C 169.381 134, 168.230 139.385, 164.620 142.883 C 162.762 144.685, 159.583 149.692, 157.556 154.010 C 155.530 158.328, 153.158 162.455, 152.285 163.181 C 151.146 164.127, 146.157 164.570, 134.636 164.748 C 121.837 164.946, 118.267 165.305, 117.055 166.517 C 115.900 167.672, 115.795 168.454, 116.619 169.769 C 117.758 171.586, 122 172.768, 122 171.267 C 122 170.788, 125.871 170.275, 130.603 170.126 C 136.266 169.949, 138.991 170.206, 138.575 170.878 C 138.200 171.485, 135.930 171.661, 132.972 171.310 C 129.867 170.942, 128 171.105, 128 171.744 C 128 173.226, 132.404 173.840, 137.002 173 C 143.417 171.827, 144.105 173.879, 139.525 180.529 C 137.452 183.538, 135.474 186.019, 135.128 186.042 C 134.783 186.065, 132.475 188.929, 130 192.406 C 127.525 195.883, 124.329 199.577, 122.899 200.614 C 119.541 203.048, 110.087 213.824, 108.709 216.787 C 107.863 218.605, 108 219.425, 109.374 220.787 C 111.009 222.406, 111.360 222.227, 115.802 217.500 C 118.386 214.750, 122.249 211.022, 124.387 209.215 C 126.524 207.408, 129.879 203.808, 131.841 201.215 C 133.803 198.622, 135.804 196.338, 136.286 196.139 C 136.769 195.941, 137.915 194.546, 138.832 193.038 C 139.749 191.531, 142.525 187.916, 145 185.005 C 155.355 172.824, 157.307 171.033, 160.928 170.382 C 162.893 170.028, 164.950 169.409, 165.500 169.006 C 166.050 168.603, 168.525 167.968, 171 167.596 C 179.649 166.295, 183.244 164.998, 182.083 163.600 C 181.095 162.410, 181.551 161, 182.923 161 C 183.247 161, 184.136 162.463, 184.898 164.250 C 186.601 168.241, 189.990 172.124, 191.147 171.409 C 191.618 171.118, 192.442 172.032, 192.977 173.440 C 193.512 174.848, 194.442 176, 195.043 176 C 195.654 176, 195.874 176.822, 195.542 177.868 C 195.121 179.193, 195.756 180.261, 197.724 181.541 C 199.251 182.533, 203.538 186.465, 207.251 190.279 C 211.792 194.943, 214.510 197.018, 215.553 196.618 C 216.415 196.287, 216.841 196.448, 216.512 196.980 C 216.187 197.507, 218.301 199.322, 221.210 201.014 C 224.120 202.706, 227.226 204.591, 228.114 205.204 C 231.447 207.505, 234.809 203.626, 231.750 201.009 C 230.246 199.723, 220.499 192.580, 217 190.200 C 212.715 187.286, 196 170.136, 196 168.653 C 196 167.879, 195.319 166.680, 194.488 165.990 C 192.091 164.001, 194.384 162.315, 200.268 161.740 C 203.801 161.395, 206.433 161.708, 208.374 162.704 C 210.918 164.010, 211.422 164.006, 212.761 162.668 C 216.302 159.127, 210.191 155.155, 200.851 154.926 C 197.908 154.854, 190.325 155.807, 184 157.044 C 165.088 160.743, 160.004 160.731, 164.500 157 C 165.325 156.315, 166 155.223, 166 154.572 C 166 153.921, 167.125 151.864, 168.500 150 C 169.875 148.136, 171 145.644, 171 144.461 C 171 143.278, 171.925 141.472, 173.057 140.449 C 174.523 139.122, 174.937 137.884, 174.499 136.139 C 173.691 132.921, 175.250 132.034, 181.750 132.015 C 186.616 132.001, 187 131.825, 187 129.607 C 187 128.291, 186.288 126.941, 185.418 126.607 C 182.600 125.525, 169.728 125.998, 160.500 127.523 C 143.904 130.264, 142.113 130.661, 140.566 131.945 C 139.719 132.648, 138.310 132.949, 137.436 132.614 C 136.152 132.121, 135.877 130.513, 136.007 124.252 C 136.095 119.988, 135.849 115.247, 135.460 113.715 C 134.789 111.070, 134.873 110.985, 137.137 112.017 C 138.743 112.748, 141.404 112.808, 145.292 112.198 C 148.466 111.700, 151.300 111.677, 151.591 112.146 C 152.394 113.446, 155.448 113.169, 158.636 111.506 C 160.211 110.685, 162.870 110.010, 164.545 110.006 C 166.220 110.003, 171.845 109.122, 177.045 108.050 C 182.245 106.977, 187.625 105.964, 189 105.800 C 192.960 105.325, 192.315 101.838, 188.063 100.737 C 182.831 99.381, 177.104 99.984, 146 105.170 C 142.425 105.766, 138.710 106.943, 137.744 107.787 C 135.431 109.808, 134.611 108.805, 134.406 103.704 C 134.313 101.392, 133.902 97.379, 133.492 94.786 C 132.678 89.627, 132.047 90.333, 140.500 86.951 C 141.600 86.511, 143.625 85.909, 145 85.614 C 146.375 85.319, 150.200 84.421, 153.500 83.618 C 164.715 80.890, 172.847 79.810, 181.468 79.903 C 192.402 80.021, 196.621 81.948, 199.776 88.265 C 201.780 92.278, 202.003 94.242, 202.033 108.110 C 202.066 123.209, 202.101 123.458, 203.913 121.287 C 204.929 120.070, 206.076 116.551, 206.461 113.466 C 206.846 110.381, 207.838 106.238, 208.665 104.259 C 210.043 100.961, 209.991 99.896, 208.047 91.482 C 205.698 81.314, 203.620 78.424, 196.500 75.417 C 187.524 71.625, 164.675 72.594, 145.500 77.579 C 131.543 81.207, 131.559 81.208, 131.201 76.947 C 130.823 72.440, 133.823 68.410, 138.262 67.462 C 140.043 67.081, 144.324 65.134, 147.776 63.135 C 151.228 61.136, 155.378 58.776, 156.997 57.891 C 158.617 57.005, 161.500 55.093, 163.405 53.641 C 165.309 52.188, 167.502 51, 168.278 51 C 169.055 51, 170.494 50.111, 171.477 49.026 C 172.460 47.940, 174.131 46.776, 175.190 46.440 C 176.577 45.999, 177.030 45.083, 176.808 43.164 C 176.545 40.889, 175.966 40.456, 172.850 40.196 C 170.062 39.963, 168.626 40.465, 166.773 42.318 M 35.427 114.765 C 33.407 116.148, 33.114 118.794, 34.817 120.254 C 37.828 122.834, 38.814 123.044, 40.412 121.445 C 42.119 119.738, 44 120.290, 44 122.498 C 44 123.385, 45.697 124.113, 48.750 124.536 C 51.362 124.899, 56.650 125.800, 60.500 126.540 C 72.324 128.811, 78.684 129.320, 79.465 128.056 C 80.584 126.247, 78.125 124.108, 74.150 123.433 C 72.142 123.092, 68.121 121.955, 65.212 120.907 C 62.304 119.858, 58.929 118.988, 57.712 118.974 C 56.496 118.960, 52.141 117.835, 48.035 116.474 C 40.316 113.916, 37.270 113.503, 35.427 114.765 M 48.750 149.015 C 47.788 149.611, 47 150.929, 47 151.943 C 47 154.621, 49.527 155.343, 58.291 155.166 C 62.576 155.079, 67.818 155.398, 69.940 155.875 C 74.388 156.875, 76.349 156.052, 75.839 153.401 C 75.580 152.058, 73.958 151.200, 69.990 150.306 C 61.633 148.425, 50.768 147.764, 48.750 149.015 M 165.500 165 C 165.160 165.550, 165.809 166, 166.941 166 C 168.073 166, 169 165.550, 169 165 C 169 164.450, 168.352 164, 167.559 164 C 166.766 164, 165.840 164.450, 165.500 165 M 171.878 182.193 C 171.811 182.362, 171.609 186.765, 171.429 191.978 C 171.035 203.403, 170.529 205.699, 168.248 206.417 C 166.350 207.015, 160.278 208.043, 144 210.523 C 132.641 212.253, 130.901 213.059, 132.659 215.778 C 133.448 216.999, 134.831 217.414, 137.411 217.204 C 139.706 217.017, 141.625 217.482, 142.606 218.463 C 143.461 219.318, 144.660 219.710, 145.269 219.334 C 145.878 218.957, 147.979 218.538, 149.938 218.401 C 154.476 218.085, 163.687 216.311, 164.997 215.502 C 165.549 215.161, 166 214.009, 166 212.941 C 166 211.873, 166.643 211, 167.428 211 C 169.320 211, 169.815 216.286, 170.424 243 C 170.694 254.825, 171.420 267.425, 172.039 271 C 172.657 274.575, 173.171 279.075, 173.181 281 C 173.202 285.218, 174.789 288.611, 176.118 287.282 C 176.637 286.763, 177.295 271.066, 177.602 251.925 C 178.028 225.279, 178.461 217.019, 179.518 215.373 C 180.721 213.502, 182.179 213.165, 191.692 212.562 C 204.224 211.767, 208.587 210.640, 210.105 207.803 C 211.667 204.885, 209.106 202.338, 206.182 203.902 C 205.054 204.506, 201.289 205.038, 197.816 205.084 C 194.342 205.131, 188.909 205.492, 185.741 205.888 C 182.574 206.284, 179.502 206.310, 178.914 205.947 C 178.158 205.480, 178.178 202.978, 178.983 197.393 C 179.608 193.052, 180.205 187.925, 180.310 186 C 180.497 182.563, 180.424 182.495, 176.250 182.193 C 173.912 182.023, 171.945 182.023, 171.878 182.193 M 80.500 199.878 C 77.200 200.776, 73.150 202.048, 71.500 202.704 C 69.850 203.360, 65.125 204.866, 61 206.052 C 56.875 207.238, 53.050 208.570, 52.500 209.012 C 51.950 209.454, 48.890 210.496, 45.699 211.326 C 36.238 213.790, 32.862 216.981, 36.512 220.010 C 37.733 221.023, 39.416 220.929, 45.262 219.521 C 49.243 218.562, 53.625 217.169, 55 216.426 C 56.375 215.683, 62.225 213.228, 68 210.970 C 89.616 202.520, 91.110 201.809, 90.788 200.117 C 90.378 197.968, 87.736 197.907, 80.500 199.878 M 171.702 245.673 C 171.386 246.185, 171.724 249.055, 172.453 252.052 C 173.342 255.704, 173.852 256.676, 174 255 C 174.487 249.501, 173.019 243.543, 171.702 245.673" stroke="none" fill="black" fill-rule="evenodd"/>
</svg>