<svg xmlns="http://www.w3.org/2000/svg" width="300" height="300" viewBox="0 0 300 300" version="1.1">
	<path d="M 156.250 33.396 C 152.813 33.921, 150 34.722, 150 35.176 C 150 35.629, 147.511 36, 144.468 36 C 141.425 36, 137.384 36.648, 135.488 37.440 C 133.566 38.244, 130.589 38.645, 128.759 38.348 C 122.777 37.378, 122.046 39.352, 121.641 57.582 C 121.272 74.157, 119.714 91.064, 118.063 96.396 C 117.535 98.103, 116.651 104, 116.101 109.500 C 114.720 123.285, 113.183 133.836, 110.947 144.885 C 109.035 154.333, 109.095 156, 111.343 156 C 113.003 156, 116.001 150.744, 115.995 147.846 C 115.992 146.556, 116.630 143.475, 117.412 141 C 119.241 135.213, 121.157 125.798, 121.738 119.739 C 122.302 113.855, 124.421 112.055, 129.748 112.932 C 133.450 113.542, 133.499 113.609, 133.412 118.025 C 133.363 120.486, 133.667 126.663, 134.086 131.751 L 134.849 141.001 142.276 148.501 C 150.413 156.717, 153 157.803, 153 153 C 153 151.350, 152.580 150, 152.067 150 C 151.554 150, 150.881 149.213, 150.570 148.250 C 150.259 147.287, 148.632 145.039, 146.954 143.252 C 144.200 140.320, 143.846 139.190, 143.312 131.627 C 142.588 121.365, 143.054 119.347, 147.113 115.196 C 149.327 112.931, 150.277 111.026, 150.218 108.967 C 150.172 107.335, 150.517 106, 150.985 106 C 152.982 106, 155 107.317, 155 108.619 C 155 109.707, 155.959 109.877, 159.250 109.375 C 161.588 109.018, 164.287 108.322, 165.250 107.828 C 167.139 106.859, 167.631 105, 166 105 C 165.450 105, 165 104.100, 165 103 C 165 101.667, 165.667 101, 167 101 C 168.790 101, 169.468 102.039, 169.118 104.250 C 168.953 105.296, 172.762 105.193, 173.417 104.134 C 173.711 103.658, 175.030 103.474, 176.348 103.726 C 177.665 103.978, 180.129 103.468, 181.822 102.592 C 183.515 101.716, 185.958 101, 187.250 101 C 188.543 101, 190.123 100.477, 190.763 99.837 C 191.403 99.197, 195.567 98.463, 200.017 98.205 C 207.973 97.745, 208.102 97.695, 207.804 95.217 C 207.637 93.832, 206.265 91.779, 204.755 90.657 C 202.037 88.637, 201.915 88.635, 192.755 90.402 C 179.771 92.906, 166.683 96.078, 165.500 97.007 C 163.392 98.661, 156.184 100.170, 148.500 100.564 C 144.100 100.790, 137.435 101.750, 133.688 102.696 C 126.066 104.622, 124.436 103.888, 125.480 99 C 125.774 97.625, 126.582 93.848, 127.277 90.606 L 128.540 84.711 133.260 83.513 C 135.856 82.853, 138.188 82.522, 138.442 82.775 C 139.015 83.349, 151.669 81.117, 154.815 79.888 C 156.538 79.215, 156.968 78.475, 156.497 76.992 C 155.973 75.340, 156.324 75, 158.555 75 C 160.692 75, 161.016 75.276, 160.131 76.342 C 159.519 77.080, 159.313 77.980, 159.675 78.342 C 161.100 79.767, 162 78.861, 162 76 C 162 73.697, 162.451 73, 163.941 73 C 166.637 73, 167.400 74.668, 165.271 75.908 C 162.169 77.714, 168.944 77.212, 176.082 75.107 C 185.263 72.399, 195.780 70.277, 201 70.079 C 206.599 69.866, 209.557 67.357, 208.619 63.616 C 207.731 60.080, 203.148 58.986, 196.548 60.736 C 193.772 61.472, 186.775 62.917, 181 63.947 C 175.225 64.977, 169.233 66.310, 167.685 66.910 C 166.137 67.509, 163.570 68, 161.982 68 C 160.394 68, 158.060 68.408, 156.797 68.908 C 154.428 69.844, 138.623 73.539, 133.750 74.296 C 132.169 74.541, 130.965 74.250, 130.919 73.611 C 130.874 73, 130.907 67.188, 130.993 60.695 C 131.161 47.885, 132.541 42.615, 135.959 41.721 C 138.400 41.083, 139.597 42.576, 138.095 44.386 C 136.546 46.251, 137.749 46.966, 140.835 46.015 C 149.954 43.201, 163.496 41.557, 177.212 41.598 C 192.247 41.643, 193.798 41.243, 192.429 37.675 C 190.873 33.621, 170.524 31.214, 156.250 33.396 M 138 108.500 C 138 109.325, 138.177 110, 138.393 110 C 138.609 110, 139.045 109.325, 139.362 108.500 C 139.678 107.675, 139.501 107, 138.969 107 C 138.436 107, 138 107.675, 138 108.500 M 31.137 110.263 C 29.213 112.187, 29.864 115.681, 32.465 117.385 C 35.647 119.470, 37.626 119.429, 39.019 117.250 C 40.004 115.708, 40.081 115.768, 39.662 117.750 C 39.241 119.745, 39.602 120.013, 42.844 120.118 C 44.855 120.184, 46.890 120.166, 47.367 120.079 C 47.844 119.993, 49.800 120.439, 51.714 121.071 C 53.628 121.702, 59.312 122.649, 64.347 123.175 C 69.381 123.700, 75.349 124.366, 77.609 124.655 C 80.748 125.055, 81.859 124.811, 82.316 123.618 C 83.044 121.721, 80.531 119, 78.051 119 C 77.058 119, 75.685 118.325, 75 117.500 C 74.315 116.675, 72.262 116, 70.437 116 C 68.611 116, 66.876 115.609, 66.581 115.131 C 66.286 114.654, 62.772 113.958, 58.772 113.586 C 54.772 113.213, 49.475 112.294, 47 111.544 C 40.435 109.553, 32.488 108.912, 31.137 110.263 M 195.500 115.190 C 194.400 115.826, 192.912 117.168, 192.193 118.173 C 191.475 119.178, 189.781 120, 188.430 120 C 187.078 120, 185.191 120.414, 184.236 120.920 C 178.153 124.141, 172.981 126.456, 169.533 127.500 C 165.753 128.645, 160.958 133.292, 162.238 134.571 C 162.941 135.275, 169.118 136.964, 173.636 137.689 C 175.361 137.966, 177.696 137.698, 178.825 137.093 C 180.020 136.454, 181.114 136.375, 181.441 136.905 C 181.751 137.405, 184.365 138.512, 187.252 139.364 C 204.088 144.334, 207.516 144.886, 208.282 142.750 C 208.939 140.917, 207.168 138, 205.399 138 C 204.557 138, 202.886 137.452, 201.684 136.783 C 200.483 136.113, 196.800 134.611, 193.500 133.444 C 186.579 130.998, 185.437 128.853, 189.993 126.857 C 191.914 126.016, 192.943 124.926, 192.702 123.988 C 192.393 122.792, 193.108 122.553, 196.131 122.841 C 199.469 123.159, 200.103 122.868, 201.171 120.525 C 203.253 115.954, 199.799 112.705, 195.500 115.190 M 206.500 158.006 C 205.400 158.475, 199.325 158.918, 193 158.989 C 186.675 159.061, 179.250 159.566, 176.500 160.112 C 164.778 162.441, 158.097 163.246, 151.814 163.088 C 144.065 162.893, 138.516 164.800, 137.497 168.009 C 136.586 170.878, 137.370 171.442, 144.355 172.937 C 148.597 173.845, 150.511 173.889, 151.305 173.095 C 152.098 172.302, 152.001 171.972, 150.950 171.898 C 150.152 171.841, 151.073 171.425, 152.996 170.974 C 155.842 170.305, 156.827 170.510, 158.285 172.076 C 160.226 174.159, 162 174.601, 162 173 C 162 172.450, 164.025 172, 166.500 172 C 169.833 172, 171 171.611, 171 170.500 C 171 169.675, 171.900 168.100, 173 167 C 175.636 164.364, 178 164.434, 178 167.149 C 178 169.245, 178.212 169.277, 186.750 168.483 C 191.563 168.035, 197.637 167.712, 200.250 167.765 C 203.748 167.836, 205 167.484, 205 166.430 C 205 164.245, 207.342 164.727, 208.977 167.250 C 209.926 168.715, 210.510 172.639, 210.651 178.500 C 210.862 187.242, 213.447 199, 215.158 199 C 216.698 199, 216.026 202.776, 214.373 203.410 C 213.011 203.933, 212.875 204.884, 213.536 209.267 C 213.970 212.145, 214.241 216.075, 214.139 218 C 214.036 219.925, 214.617 229.150, 215.430 238.500 C 216.243 247.850, 216.982 258.200, 217.073 261.500 C 217.418 273.982, 217.194 274.393, 211.636 271.494 C 210.060 270.672, 208.029 270, 207.121 270 C 206.213 270, 203.791 269.100, 201.739 268 C 197.404 265.676, 196 265.500, 196 267.279 C 196 269.287, 208.039 280.466, 212.750 282.833 L 217 284.968 217 282.484 C 217 279.283, 218.720 279.292, 220.182 282.500 C 221.651 285.725, 224.771 285.732, 225.995 282.514 C 227.052 279.733, 226.451 266.149, 224.933 258.500 C 223.952 253.558, 223.686 248.757, 222.663 217.500 C 222.375 208.700, 221.640 198.125, 221.030 194 C 220.419 189.875, 219.929 180.357, 219.940 172.849 C 219.958 160.837, 219.753 159.113, 218.230 158.486 C 215.477 157.353, 208.684 157.075, 206.500 158.006 M 62 166.151 C 57.292 168.078, 47.500 169.416, 39.110 169.277 C 29.893 169.124, 28 170.007, 28 174.460 C 28 177.360, 27.695 177.300, 42.176 177.238 C 48.063 177.213, 52.188 176.444, 59.881 173.941 C 69.842 170.698, 72.081 169.007, 69.895 166.373 C 68.572 164.779, 65.556 164.694, 62 166.151 M 124.750 177.080 C 122.618 178.322, 122.287 185.512, 124.326 186.295 C 126.079 186.967, 126.627 225.743, 124.959 231 C 124.348 232.925, 123.252 236.750, 122.523 239.500 C 121.794 242.250, 120.028 247.604, 118.599 251.397 C 116.728 256.363, 116 260.205, 116 265.121 C 116 271.670, 116.120 272.011, 118.950 273.474 C 120.573 274.313, 122.116 275, 122.379 275 C 122.642 275, 122.857 272.506, 122.857 269.458 C 122.857 265.984, 123.795 261.413, 125.371 257.208 C 126.754 253.519, 128.826 247.125, 129.976 243 C 131.127 238.875, 132.582 233.925, 133.210 232 C 134.659 227.563, 134.735 196.614, 133.302 194.802 C 132.736 194.086, 131.976 190.158, 131.613 186.074 C 130.767 176.553, 129.194 174.491, 124.750 177.080 M 147.342 199.801 C 146.517 200.625, 144.465 201.345, 142.780 201.400 C 138.621 201.536, 137.082 204.082, 139.624 206.624 C 141.413 208.413, 142.674 208.510, 157.524 207.993 C 166.311 207.687, 175.300 207.796, 177.500 208.235 C 179.700 208.674, 183.753 209.385, 186.506 209.816 C 189.260 210.247, 192.972 211.461, 194.756 212.515 C 197.797 214.311, 198.103 214.325, 199.684 212.745 C 201.089 211.339, 201.166 210.679, 200.146 208.772 C 198.560 205.810, 192.978 202, 190.223 202 C 189.039 202, 186.076 201.323, 183.640 200.496 C 177.100 198.276, 149.398 197.745, 147.342 199.801 M 64 218.920 C 63.175 219.392, 57.502 220.034, 51.393 220.345 C 40.499 220.901, 36.246 221.929, 32.750 224.848 C 28.853 228.103, 31.652 232.608, 36.577 231.007 C 38.184 230.484, 40.737 229.811, 42.250 229.509 C 43.766 229.208, 45 228.297, 45 227.481 C 45 226.666, 45.886 226, 46.969 226 C 48.211 226, 48.746 226.498, 48.419 227.351 C 48.017 228.398, 49.204 228.672, 53.700 228.569 C 56.890 228.497, 60.099 228.065, 60.831 227.610 C 62.773 226.402, 73.002 224.077, 76.559 224.036 C 80.550 223.989, 83.309 221.969, 82.447 219.724 C 81.895 218.284, 80.446 218.005, 73.643 218.030 C 69.164 218.047, 64.825 218.447, 64 218.920 M 128.158 221 C 128.158 222.375, 128.385 222.938, 128.662 222.250 C 128.940 221.563, 128.940 220.438, 128.662 219.750 C 128.385 219.063, 128.158 219.625, 128.158 221 M 189.150 227.558 C 186.757 228.267, 181.357 229.141, 177.150 229.499 C 172.942 229.857, 166.800 230.985, 163.500 232.007 C 160.200 233.029, 155.126 234.164, 152.224 234.530 C 146.028 235.311, 143.512 237.220, 145.005 240.009 C 145.633 241.184, 147.601 242.118, 150.301 242.522 C 155.020 243.230, 162.345 241.671, 182.703 235.624 C 189.414 233.631, 195.151 232, 195.453 232 C 196.588 232, 195.945 227.193, 194.750 226.741 C 194.063 226.480, 191.542 226.848, 189.150 227.558" stroke="none" fill="black" fill-rule="evenodd"/>
</svg>