<svg xmlns="http://www.w3.org/2000/svg" width="300" height="300" viewBox="0 0 300 300" version="1.1">
	<path d="M 111.500 52.792 C 108.130 53.225, 106 54.646, 106 56.462 C 106 57.725, 110.934 59.505, 117 60.430 C 124.720 61.608, 135.414 64.015, 136.129 64.735 C 137.682 66.303, 130.654 87.977, 126.175 95.431 C 123.709 99.535, 122.668 99.564, 119.654 95.613 C 115.500 90.167, 105.463 83, 101.989 83 C 100.345 83, 99 83.450, 99 84 C 99 84.550, 99.460 85, 100.021 85 C 100.583 85, 101.575 86.237, 102.226 87.750 C 103.408 90.499, 106.377 94, 107.525 94 C 108.181 94, 114.656 98.701, 116.821 100.750 C 117.548 101.438, 119.059 102, 120.178 102 C 121.624 102, 122.038 102.459, 121.607 103.582 C 121.273 104.452, 121 106.503, 121 108.141 C 121 109.778, 120.581 110.859, 120.068 110.542 C 118.941 109.846, 116 113.815, 116 116.032 C 116 116.906, 113.741 122.083, 110.981 127.538 C 108.220 132.993, 106.181 138.029, 106.449 138.728 C 107.450 141.336, 109.924 139.844, 113.045 134.750 C 114.815 131.863, 116.572 129.275, 116.952 129 C 118.191 128.101, 132 100.924, 132 99.383 C 132 98.558, 133.370 96.178, 135.044 94.095 C 138.628 89.635, 143.673 77.117, 145.501 68.147 C 146.700 62.261, 146.656 61.656, 144.897 59.897 C 143.854 58.854, 141.723 58, 140.161 58 C 138.600 58, 133.762 56.917, 129.411 55.593 C 120.682 52.938, 116.028 52.210, 111.500 52.792 M 188.521 56.561 C 187.027 58.520, 185.403 61.578, 184.912 63.357 C 184.421 65.137, 183.371 67.472, 182.579 68.546 C 181.161 70.472, 181.111 70.468, 179.063 68.284 C 176.114 65.138, 174 66.333, 174 71.147 C 174 76.377, 176.769 81.526, 182.527 87 C 185.130 89.475, 189.113 93.460, 191.380 95.856 C 193.646 98.251, 197.461 101.569, 199.857 103.228 C 202.254 104.886, 205.798 107.782, 207.734 109.662 C 209.670 111.542, 212.659 113.788, 214.377 114.654 C 216.095 115.520, 218.693 117.344, 220.151 118.707 C 222.965 121.337, 226.286 121.472, 226.767 118.974 C 227.140 117.032, 209.729 99.295, 205.250 97.055 C 201.341 95.100, 202.203 93.112, 210.373 85.234 C 214.435 81.317, 219.022 72.505, 218.968 68.721 C 218.892 63.372, 213.494 60.916, 212.436 65.750 C 211.018 72.232, 201.535 90.988, 199.301 91.733 C 198.752 91.916, 197.258 90.540, 195.980 88.676 C 194.703 86.811, 192.393 84.436, 190.849 83.398 C 185.623 79.886, 184.986 73.378, 189.407 68.663 C 193.116 64.707, 198 57.954, 198 56.782 C 198 54.737, 195.896 53, 193.419 53 C 192.094 53, 190.171 54.398, 188.521 56.561 M 169.446 66.087 C 168.416 67.755, 170.733 69.667, 172.113 68.287 C 173.267 67.133, 172.545 65, 171 65 C 170.515 65, 169.816 65.489, 169.446 66.087 M 179.500 78 C 179.840 78.550, 180.316 79, 180.559 79 C 180.802 79, 181 78.550, 181 78 C 181 77.450, 180.523 77, 179.941 77 C 179.359 77, 179.160 77.450, 179.500 78 M 182 82 C 182 82.550, 182.477 83, 183.059 83 C 183.641 83, 183.840 82.550, 183.500 82 C 183.160 81.450, 182.684 81, 182.441 81 C 182.198 81, 182 81.450, 182 82 M 33.468 98.399 C 31.723 99.676, 31.682 100.038, 33.011 102.521 C 33.812 104.017, 35.150 105.467, 35.984 105.742 C 36.818 106.016, 39.410 107.126, 41.745 108.207 C 46.581 110.447, 58.874 113.248, 60.750 112.537 C 61.438 112.276, 62 111.220, 62 110.190 C 62 108.851, 60.787 107.956, 57.750 107.051 C 53.564 105.806, 51.547 104.895, 41.355 99.648 C 35.322 96.543, 35.885 96.632, 33.468 98.399 M 130 125.901 C 128.486 126.318, 127.500 127.318, 127.500 128.435 C 127.500 130.847, 134.089 132.843, 140.238 132.293 L 144.780 131.887 144.640 141.165 C 144.515 149.465, 144.696 150.482, 146.356 150.815 C 149.058 151.357, 149.768 150.237, 151.970 141.956 C 154.374 132.916, 154.508 128.667, 152.443 126.953 C 150.720 125.523, 134.182 124.747, 130 125.901 M 168.609 128.421 C 167.691 132.078, 168.728 133.775, 171.550 133.235 C 173.533 132.856, 174 133.175, 174 134.908 C 174 136.250, 173.101 137.391, 171.592 137.965 C 169.464 138.774, 169.139 139.615, 168.802 145.190 C 168.592 148.661, 168.767 152.815, 169.190 154.422 C 169.645 156.149, 169.536 157.854, 168.924 158.591 C 167.665 160.109, 168.117 169.932, 169.462 170.263 C 169.991 170.393, 170.964 169.375, 171.625 168 C 173.198 164.728, 178.042 141.432, 178.018 137.250 L 178 134 183.977 134 C 190.835 134, 192.300 135.345, 193.489 142.736 C 194.018 146.020, 193.794 147.349, 192.491 148.652 C 191.109 150.034, 190.947 151.323, 191.579 155.916 C 192.002 158.987, 192.382 164.329, 192.424 167.786 C 192.508 174.763, 193.904 176.689, 197.446 174.717 C 198.576 174.088, 202.703 173.544, 206.619 173.507 C 212.635 173.450, 214.378 173.016, 217.869 170.706 C 223.861 166.740, 223.192 162.298, 217.079 165.459 C 215.440 166.307, 212.266 167, 210.025 167 C 204.808 167, 204.371 165.904, 203.037 149.475 C 201.918 135.701, 200.773 132.454, 195.657 128.552 C 192.916 126.461, 191.210 126, 186.215 126 C 182.862 126, 179.873 126.396, 179.574 126.881 C 178.590 128.472, 173.878 128.846, 173.314 127.376 C 172.434 125.083, 169.271 125.785, 168.609 128.421 M 27.307 142.263 C 21.847 143.314, 20.354 144.924, 21.995 147.991 C 22.915 149.710, 24.279 149.808, 41.742 149.408 C 57.237 149.052, 60.556 148.720, 60.821 147.500 C 61.260 145.483, 58.295 144.501, 46 142.590 C 34.550 140.810, 34.826 140.815, 27.307 142.263 M 120.470 156.048 C 120.114 156.624, 118.892 156.962, 117.754 156.798 C 116.617 156.634, 115.494 157.063, 115.260 157.750 C 115.017 158.461, 115.653 159, 116.736 159 C 117.783 159, 119.596 160.101, 120.766 161.446 C 122.424 163.353, 123.621 163.799, 126.196 163.470 C 145.450 161.016, 147.185 160.681, 147.708 159.319 C 148.592 157.014, 146.631 155.871, 141.462 155.679 C 138.382 155.564, 136.518 155.946, 136.251 156.749 C 135.932 157.705, 135.333 157.646, 133.695 156.499 C 131.241 154.780, 121.460 154.447, 120.470 156.048 M 108.740 166.176 C 106.194 169.034, 106.018 169.765, 106.465 175.626 C 106.936 181.811, 109.501 188.568, 112.177 190.676 C 114.119 192.206, 119.827 193.089, 120.520 191.967 C 121.844 189.826, 131.495 191.609, 133.214 194.313 C 134.263 195.962, 134.181 212.741, 133.103 217 C 132.616 218.925, 131.395 225.338, 130.391 231.250 C 129.386 237.162, 128.212 242, 127.782 242 C 127.352 242, 127 241.598, 127 241.107 C 127 239.586, 123.783 238.654, 116.500 238.065 L 109.500 237.500 108.074 232.750 C 106.506 227.529, 104.400 226.559, 103.388 230.591 C 102.333 234.793, 104.683 240.928, 107.804 242.119 C 112.525 243.920, 118.570 244.703, 120.951 243.822 C 122.389 243.290, 123.748 243.376, 124.559 244.049 C 125.275 244.643, 127.574 244.988, 129.667 244.815 C 135.636 244.321, 137.474 239.950, 140.575 218.878 C 142.702 204.427, 142.956 200.540, 142.095 195.650 C 140.463 186.387, 138.754 185.236, 126.067 184.860 C 121.632 184.728, 117.528 184.326, 116.945 183.966 C 115.675 183.181, 115.175 171.389, 116.284 168.355 C 116.821 166.886, 116.562 165.705, 115.463 164.605 C 113.193 162.336, 111.890 162.641, 108.740 166.176 M 108 175.941 C 108 176.459, 108.450 177.160, 109 177.500 C 109.550 177.840, 110 177.416, 110 176.559 C 110 175.702, 109.550 175, 109 175 C 108.450 175, 108 175.423, 108 175.941 M 165.022 186.474 C 164.325 187.313, 163.121 188, 162.346 188 C 160.074 188, 159.609 190.911, 161.540 193.044 C 163.489 195.198, 165.322 198.177, 166.993 201.908 C 167.586 203.233, 169.292 205.772, 170.785 207.550 C 176.057 213.828, 177 215.434, 177 218.132 C 177 219.631, 176.325 221.532, 175.500 222.357 C 174.675 223.182, 174 224.154, 174 224.516 C 174 224.878, 171.759 228.588, 169.021 232.760 C 163.132 241.729, 161.224 246.630, 162.954 248.342 C 163.843 249.222, 164.823 248.659, 167.035 246 C 168.636 244.075, 169.958 241.960, 169.973 241.300 C 169.988 240.640, 170.593 239.740, 171.319 239.300 C 172.470 238.601, 177.588 230.577, 180.487 224.925 C 182.033 221.910, 183.808 222.628, 186.911 227.521 C 188.488 230.008, 191.516 233.406, 193.639 235.072 C 195.763 236.738, 197.955 238.641, 198.511 239.300 C 200.261 241.376, 205.288 244.551, 211.308 247.382 C 218.467 250.749, 224.326 250.720, 224.811 247.314 C 225.065 245.534, 224.414 244.931, 221.311 244.069 C 219.215 243.487, 217.166 243.009, 216.759 243.006 C 215.452 242.996, 205.748 235.610, 202.788 232.373 C 201.846 231.343, 199.672 229.150, 197.956 227.500 C 194.495 224.173, 190.422 218.239, 188.962 214.401 C 188.189 212.368, 188.432 211.464, 190.255 209.582 C 193.121 206.626, 194.282 204.833, 197.984 197.647 C 201.211 191.385, 201.760 187.844, 199.750 186.260 C 199.063 185.718, 191.252 185.201, 182.394 185.111 C 169.034 184.975, 166.073 185.207, 165.022 186.474 M 177.750 192.779 C 174.103 192.983, 172 193.541, 172 194.307 C 172 194.971, 174.025 197.983, 176.500 201 C 178.975 204.017, 181 206.827, 181 207.243 C 181 207.659, 181.620 208, 182.377 208 C 183.938 208, 188.066 199.106, 188.328 195.180 C 188.520 192.295, 188.108 192.201, 177.750 192.779 M 36.500 198.104 C 34.850 198.616, 30.745 198.756, 27.377 198.415 C 22.417 197.912, 20.361 198.189, 16.554 199.873 C 12.696 201.580, 11.912 202.359, 12.177 204.226 C 12.437 206.053, 13.226 206.560, 16.190 206.807 C 18.219 206.976, 21.144 206.470, 22.690 205.682 C 24.235 204.895, 28.494 203.939, 32.154 203.556 C 39.541 202.785, 42.665 201.176, 41.694 198.645 C 40.990 196.810, 40.747 196.785, 36.500 198.104 M 168 199.566 C 168 201.196, 170.265 204, 171.582 204 C 172.854 204, 172.808 203.608, 171.297 201.531 C 169.622 199.230, 168 198.263, 168 199.566 M 192 229.882 C 192 230.432, 192.450 231.160, 193 231.500 C 193.550 231.840, 194 231.668, 194 231.118 C 194 230.568, 193.550 229.840, 193 229.500 C 192.450 229.160, 192 229.332, 192 229.882 M 195.250 233.250 C 195.478 233.938, 196.514 234.664, 197.551 234.865 C 199.182 235.181, 199.256 235.013, 198.096 233.615 C 196.510 231.704, 194.656 231.466, 195.250 233.250" stroke="none" fill="black" fill-rule="evenodd"/>
</svg>