<svg xmlns="http://www.w3.org/2000/svg" width="300" height="300" viewBox="0 0 300 300" version="1.1">
	<path d="M 154.333 14.574 C 153.920 15.652, 154.340 16.775, 155.463 17.597 C 157.266 18.915, 156.900 22.675, 155.079 21.549 C 154.565 21.231, 153.851 21.893, 153.493 23.021 C 152.660 25.645, 153.891 51.396, 155.067 55.970 C 155.626 58.142, 155.594 59.806, 154.980 60.420 C 153.305 62.095, 153.873 62.754, 157.597 63.452 C 161.157 64.120, 161.175 64.149, 159.347 66.209 C 157.514 68.275, 157.523 68.285, 160.500 67.583 C 162.150 67.193, 165.975 66.415, 169 65.852 C 172.025 65.290, 175.463 64.647, 176.640 64.423 C 179.092 63.958, 179.328 60.901, 177 59.774 C 176.175 59.374, 177.136 59.302, 179.135 59.613 C 181.135 59.925, 183.045 59.736, 183.380 59.195 C 183.777 58.551, 185.412 58.571, 188.094 59.252 C 191.098 60.014, 192.391 59.986, 192.909 59.147 C 193.299 58.516, 195.566 58.076, 197.947 58.169 C 201.214 58.297, 202.393 58.788, 202.755 60.169 C 203.234 62.003, 205.508 62.510, 208.355 61.417 C 209.190 61.097, 209.646 60.242, 209.369 59.518 C 208.675 57.709, 210.909 56.509, 212.329 57.929 C 213.201 58.801, 213.119 59.310, 211.992 60.011 C 210.773 60.769, 210.725 61.302, 211.730 62.923 C 212.503 64.171, 212.596 65.132, 211.980 65.513 C 211.441 65.846, 211 67.595, 211 69.400 C 211 71.205, 210.361 74.806, 209.579 77.403 C 208.313 81.610, 208.329 82.189, 209.724 82.724 C 210.649 83.079, 211.851 82.543, 212.664 81.412 C 213.420 80.361, 214.659 78.761, 215.418 77.857 C 216.177 76.953, 217.115 75.153, 217.503 73.857 C 217.891 72.561, 218.860 70.467, 219.657 69.205 C 221.999 65.493, 222.548 57.700, 220.583 56.069 C 218.377 54.238, 176.267 55.236, 167.779 57.320 C 164.632 58.092, 161.820 58.486, 161.529 58.195 C 160.803 57.470, 160.998 45.503, 161.824 40 L 162.500 35.500 170 34.260 C 174.125 33.578, 178.839 32.553, 180.477 31.983 C 182.114 31.413, 187.401 30.666, 192.227 30.323 C 198.156 29.902, 201 29.302, 201 28.473 C 201 24.802, 193.168 23.297, 182.268 24.873 C 177.995 25.491, 171.823 26.110, 168.551 26.248 L 162.602 26.500 160.945 20 C 159.609 14.760, 158.872 13.438, 157.140 13.180 C 155.820 12.983, 154.737 13.521, 154.333 14.574 M 137.500 61.093 C 126.032 62.438, 115.078 64.691, 113.456 66.036 C 112.209 67.071, 111.703 66.975, 110.624 65.500 C 109.361 63.773, 109.189 63.775, 106.186 65.549 C 104.468 66.564, 102.827 68.008, 102.539 68.758 C 101.756 70.799, 104.804 88.396, 106.506 91.660 C 107.321 93.222, 107.989 94.950, 107.991 95.500 C 107.998 97.419, 112.493 104.975, 113.964 105.540 C 115.822 106.253, 118.256 103.078, 117.422 101.029 C 114.717 94.379, 110.250 72.416, 111.374 71.292 C 111.692 70.975, 112.525 71.173, 113.226 71.734 C 114.525 72.773, 121.111 72.076, 128 70.172 C 130.934 69.361, 131.096 69.187, 129 69.097 L 126.500 68.990 129.500 66.531 C 133.122 63.562, 140.935 63.012, 143.063 65.576 C 144.147 66.883, 144.126 67.308, 142.936 68.061 C 141.982 68.664, 143.516 68.969, 147.500 68.969 C 154.479 68.969, 158.006 67.542, 153.698 66.460 C 150.945 65.769, 150.114 63.666, 152.107 62.434 C 153.802 61.386, 151.024 60.010, 147.500 60.151 C 145.850 60.217, 141.350 60.641, 137.500 61.093 M 186 60.995 C 184.801 61.774, 185.001 61.993, 187 62.089 C 193.414 62.396, 199.149 62.184, 199.713 61.621 C 200.054 61.279, 198.045 61, 195.248 61 C 192.452 61, 189.564 60.780, 188.832 60.511 C 188.099 60.241, 186.825 60.459, 186 60.995 M 164 63 C 162.865 63.734, 163.305 63.973, 165.809 63.985 C 167.764 63.994, 168.865 63.591, 168.500 63 C 167.724 61.744, 165.944 61.744, 164 63 M 137.813 69.683 C 138.534 69.972, 139.397 69.936, 139.729 69.604 C 140.061 69.272, 139.471 69.036, 138.417 69.079 C 137.252 69.127, 137.015 69.364, 137.813 69.683 M 158.500 77.720 C 151.480 78.750, 148.406 86.202, 154.750 86.813 C 156.537 86.986, 158 86.715, 158 86.211 C 158 85.707, 160.942 85.245, 164.537 85.184 C 168.132 85.122, 171.583 84.758, 172.205 84.374 C 172.827 83.989, 176.964 83.509, 181.398 83.307 C 190.360 82.898, 192.349 81.921, 189.673 79.243 C 188.205 77.774, 185.853 77.483, 174.716 77.390 C 167.447 77.330, 160.150 77.478, 158.500 77.720 M 163.859 96.086 C 162.632 97.933, 162.162 98.031, 159.766 96.939 C 156.232 95.329, 154.006 97.036, 153.985 101.372 C 153.974 103.807, 152.644 105.914, 147.985 110.879 C 144.693 114.387, 142 117.618, 142 118.058 C 142 118.497, 139.916 121.027, 137.369 123.679 C 134.822 126.330, 131.586 130.075, 130.178 132 C 126.279 137.330, 121.740 142, 120.459 142 C 118.812 142, 116 145.361, 116 147.329 C 116 150.028, 117.918 149.254, 120.009 145.710 C 121.242 143.619, 123.325 141.940, 125.725 141.103 C 129.660 139.730, 134.400 135.158, 143.714 123.750 C 146.745 120.037, 149.625 117, 150.113 117 C 150.601 117, 151 116.416, 151 115.702 C 151 114.121, 160.264 104.321, 164.750 101.156 C 166.897 99.642, 168 98.039, 168 96.432 C 168 93.431, 165.746 93.243, 163.859 96.086 M 29.721 105.250 C 29.212 106.674, 31.719 112.129, 33.390 113.235 C 34.758 114.140, 40 114.240, 40 113.360 C 40 113.008, 39.212 112.123, 38.250 111.392 C 35.758 109.500, 38.259 109.643, 42.782 111.651 C 45.494 112.854, 46.026 113.416, 44.750 113.724 C 43.788 113.956, 43 114.536, 43 115.012 C 43 117.146, 70.992 118.419, 71.715 116.318 C 72.380 114.384, 68.778 113.119, 58 111.500 C 52.397 110.658, 46.984 109.527, 45.972 108.985 C 44.960 108.443, 42.847 108, 41.277 108 C 39.707 108, 36.658 107.100, 34.500 106 C 29.858 103.633, 30.274 103.699, 29.721 105.250 M 178 110.345 C 178 111.635, 178.787 113.359, 179.750 114.177 C 182.085 116.161, 191.371 120, 193.836 120 C 194.917 120, 198.152 121.089, 201.026 122.421 C 209.636 126.410, 212.049 123.529, 204.587 118.170 C 202.159 116.426, 199.897 115, 199.559 115 C 199.221 115, 195.758 113.425, 191.863 111.500 C 187.967 109.575, 183.255 108, 181.390 108 C 178.500 108, 178 108.346, 178 110.345 M 165.880 121.879 C 164.566 122.913, 162.593 123.932, 161.496 124.143 C 160.057 124.420, 158.703 126.618, 156.645 132.013 C 153.202 141.039, 150.790 146, 149.844 146 C 148.305 146, 140 154.874, 140 156.519 C 140 158.516, 129.494 170.900, 127.081 171.748 C 124.651 172.603, 121.987 175.170, 122.563 176.102 C 123.333 177.348, 134.619 170.773, 139.260 166.375 C 141.488 164.264, 144.088 161.260, 145.037 159.700 C 145.985 158.139, 148.378 154.981, 150.353 152.681 C 155.985 146.124, 166.216 132.577, 169.346 127.532 C 173.444 120.929, 171.376 117.556, 165.880 121.879 M 181.345 138.596 C 179.653 141.179, 179.669 141.215, 184.572 146.054 C 187.559 149.001, 190.421 150.932, 191.838 150.958 C 193.123 150.981, 196.948 152.549, 200.338 154.442 C 208.236 158.854, 214.875 160.489, 215.740 158.235 C 216.442 156.406, 210.580 151, 207.895 151 C 206.970 151, 205.977 150.383, 205.688 149.628 C 205.398 148.874, 203.136 147.276, 200.662 146.078 C 198.187 144.880, 195.637 143.268, 194.996 142.495 C 193.574 140.782, 185.548 136, 184.095 136 C 183.518 136, 182.281 137.168, 181.345 138.596 M 37.504 151.994 C 37.239 152.423, 35.475 153.064, 33.584 153.418 C 31.693 153.773, 29.969 154.594, 29.752 155.243 C 29.536 155.892, 28.041 156.440, 26.430 156.461 C 23.850 156.495, 23.500 156.858, 23.500 159.500 C 23.500 162.167, 23.868 162.535, 26.821 162.819 C 28.720 163.001, 31.218 162.432, 32.655 161.490 C 37.616 158.240, 44.940 156.981, 51.374 158.272 C 56.529 159.307, 57.439 159.852, 58.809 162.726 C 60.553 166.384, 61.204 166.664, 62.979 164.525 C 63.961 163.342, 63.794 162.206, 62.131 158.770 C 60.406 155.208, 59.245 154.201, 55.203 152.766 C 50.315 151.030, 38.420 150.511, 37.504 151.994 M 37 155 C 37 155.550, 37.450 156, 38 156 C 38.550 156, 39 155.550, 39 155 C 39 154.450, 38.550 154, 38 154 C 37.450 154, 37 154.450, 37 155 M 171 168.052 C 166.875 168.475, 160.800 169.664, 157.500 170.695 C 151.866 172.456, 151.480 172.775, 151.176 175.928 C 150.857 179.235, 150.902 179.276, 154.176 178.656 C 156.004 178.309, 159.975 177.282, 163 176.373 C 170.921 173.995, 176.644 173.595, 182.543 175.010 L 187.717 176.252 188.925 184.876 C 189.589 189.619, 190.291 194.625, 190.485 196 C 190.805 198.271, 190.325 204.005, 187.057 237 C 186.484 242.775, 185.900 249.722, 185.758 252.438 L 185.500 257.376 178 258.650 C 173.746 259.373, 164.227 259.833, 156.003 259.712 L 141.507 259.500 140.690 253.500 C 139.558 245.191, 140.465 231.972, 142.819 222.479 C 143.907 218.091, 145.079 212.862, 145.424 210.860 C 146.138 206.703, 146.598 206.530, 161 205.001 C 165.675 204.504, 170.738 203.862, 172.250 203.574 C 173.763 203.286, 176.087 203.463, 177.415 203.968 C 179.292 204.681, 179.968 204.525, 180.452 203.265 C 181.521 200.480, 178.440 198.590, 172.757 198.543 C 168.349 198.507, 167.522 198.783, 167.639 200.250 C 167.715 201.213, 167.126 202, 166.330 202 C 165.534 202, 165.146 201.573, 165.469 201.050 C 166.522 199.347, 162.055 197.891, 156.720 198.199 C 152.177 198.461, 151.459 198.792, 151.180 200.750 C 150.802 203.413, 148.372 203.751, 147.581 201.250 C 146.958 199.278, 147.731 178.922, 148.554 175.635 C 148.849 174.461, 148.474 172.660, 147.722 171.633 C 146.457 169.904, 146.135 169.879, 143.392 171.297 C 141.763 172.140, 139.918 173.880, 139.293 175.165 C 138.666 176.452, 137.912 184.902, 137.613 194 C 137.289 203.874, 136.505 212.307, 135.661 215 C 131.727 227.558, 130.551 251.597, 133.523 258.709 C 134.561 261.194, 134.720 262.680, 134.023 263.377 C 132.150 265.250, 132.860 267.993, 135.250 268.118 C 136.488 268.184, 137.930 268.153, 138.455 268.050 C 138.981 267.947, 145.056 267.718, 151.955 267.542 C 165.080 267.205, 171.804 266.056, 178.500 263.007 C 184.870 260.106, 185.708 260.019, 187.561 262.067 C 189.906 264.659, 192.856 264.511, 193.902 261.750 C 194.371 260.512, 195.057 252.276, 195.426 243.446 C 196.071 227.998, 196.868 220.646, 198.944 211 C 200.537 203.599, 200.155 190.777, 198.084 182.103 C 197.030 177.690, 195.896 173.640, 195.564 173.103 C 194.517 171.409, 184.630 167.336, 181.500 167.309 C 179.850 167.295, 175.125 167.629, 171 168.052 M 68 186.118 C 64.425 187.783, 58.125 190.284, 54 191.676 C 49.875 193.069, 45.600 194.710, 44.500 195.324 C 40.110 197.774, 35.214 198.971, 29.500 198.990 C 24.712 199.006, 22.903 199.487, 20.548 201.372 C 17.618 203.716, 17.609 203.755, 19.375 206.450 C 21.044 208.997, 21.479 209.126, 26.328 208.522 C 32.129 207.799, 41.142 204.595, 45.154 201.829 C 46.614 200.823, 48.140 200, 48.545 200 C 49.711 200, 64.982 192.944, 68.500 190.780 C 75.248 186.629, 78 184.625, 78 183.864 C 78 182.285, 74.573 183.058, 68 186.118 M 47.507 196.989 C 47.157 197.555, 47.558 197.723, 48.448 197.382 C 50.180 196.717, 50.497 196, 49.059 196 C 48.541 196, 47.843 196.445, 47.507 196.989 M 159 223.728 C 155.160 223.931, 152.089 224.611, 151.496 225.390 C 150.944 226.115, 149.482 227.030, 148.246 227.422 C 146.729 227.903, 146 228.924, 146 230.567 C 146 231.905, 146.338 232.988, 146.750 232.974 C 153.605 232.738, 168.666 230.628, 172.500 229.367 C 175.250 228.462, 178.063 227.573, 178.750 227.392 C 179.438 227.211, 180 226.149, 180 225.031 C 180 222.860, 177.920 222.730, 159 223.728 M 160.262 226.692 C 161.231 226.945, 161.731 227.626, 161.373 228.205 C 161.008 228.796, 161.305 229.065, 162.048 228.817 C 164.712 227.929, 164.201 225.999, 161.333 226.116 C 159.620 226.186, 159.197 226.414, 160.262 226.692 M 162.250 261.689 C 163.213 261.941, 164.787 261.941, 165.750 261.689 C 166.713 261.438, 165.925 261.232, 164 261.232 C 162.075 261.232, 161.287 261.438, 162.250 261.689 M 158.250 264.119 C 156.463 264.635, 155 265.290, 155 265.574 C 155 266.359, 162.366 264.882, 163.450 263.879 C 164.645 262.773, 162.580 262.869, 158.250 264.119 M 138.500 265 C 138.840 265.550, 139.793 266, 140.618 266 C 141.443 266, 141.840 265.550, 141.500 265 C 141.160 264.450, 140.207 264, 139.382 264 C 138.557 264, 138.160 264.450, 138.500 265" stroke="none" fill="black" fill-rule="evenodd"/>
</svg>