<svg xmlns="http://www.w3.org/2000/svg" width="300" height="300" viewBox="0 0 300 300" version="1.1">
	<path d="M 105.185 52.684 C 104.461 52.973, 100.186 53.731, 95.685 54.368 C 87.959 55.462, 87.483 55.673, 87.196 58.133 C 86.769 61.794, 93.025 65.626, 96.904 64.081 C 105.432 60.683, 123.814 60.935, 130.734 64.545 C 132.255 65.338, 134.769 65.990, 136.320 65.994 C 140.782 66.004, 139.553 62.110, 134.155 59.138 C 126.222 54.770, 109.360 51.014, 105.185 52.684 M 220.549 57.250 C 219.371 61.041, 219.103 74.835, 220.032 83.867 C 221.278 95.985, 220.431 98, 214.092 98 C 212.113 98, 207.346 98.900, 203.500 100 C 194.270 102.640, 194 102.602, 194 98.691 C 194 96.871, 193.351 94.509, 192.559 93.441 C 189.500 89.322, 185.341 96.031, 187.941 100.890 C 188.673 102.258, 188.682 103.079, 187.968 103.520 C 186.596 104.368, 187.698 118.369, 189.503 123 C 190.253 124.925, 191.417 128.971, 192.091 131.991 C 192.764 135.010, 194.365 139.735, 195.648 142.491 C 196.931 145.246, 197.985 148.302, 197.990 149.281 C 198.006 152.123, 200.678 152.401, 206.511 150.169 C 212.164 148.005, 214.674 148.755, 211.708 151.721 C 210.336 153.093, 210.445 153.479, 212.773 155.481 C 214.960 157.362, 215.381 158.588, 215.457 163.297 C 215.507 166.369, 215.875 169.208, 216.274 169.608 C 217.515 170.848, 217.071 172.241, 215.613 171.682 C 214.454 171.237, 214.321 173.479, 214.805 185.325 C 215.451 201.097, 215.388 208.546, 214.594 210.616 C 214.226 211.575, 212.278 212, 208.254 212 C 203.621 212, 202.086 211.582, 200.677 209.935 C 199.704 208.800, 198.147 208.018, 197.216 208.197 C 194.951 208.633, 194.388 212.078, 196.397 213.202 C 197.279 213.696, 198 214.961, 198 216.015 C 198 218.447, 201.480 220.347, 204.532 219.581 C 205.822 219.258, 207.157 219.445, 207.499 219.998 C 209.492 223.223, 231.603 215.191, 238.917 208.586 C 244.704 203.361, 248.079 199.620, 249.597 196.750 C 250.959 194.175, 252.896 193.064, 253.083 194.750 C 253.520 198.677, 253.836 199.828, 255.074 202 C 255.858 203.375, 257.175 204.500, 258 204.500 C 259.130 204.500, 259.506 205.733, 259.524 209.500 C 259.555 215.770, 262.850 222.543, 269.120 229.224 C 273.136 233.503, 274.180 234.104, 277.111 233.823 C 281.471 233.405, 281.946 230.990, 278.115 228.727 C 275.083 226.936, 273.751 224.544, 267.689 210 C 264.559 202.490, 263.188 197.488, 261.247 186.500 C 260.694 183.373, 256.829 179, 254.617 179 C 253.914 179, 252.089 181.813, 250.564 185.250 C 247.226 192.771, 237.091 203.056, 229.500 206.628 C 220.952 210.650, 221.467 212.072, 221.755 185.251 C 221.894 172.188, 222.259 159.590, 222.565 157.255 C 223.139 152.870, 227.113 147, 229.507 147 C 231.345 147, 239.969 142.457, 243 139.891 C 244.835 138.338, 245.550 136.673, 245.689 133.637 C 245.793 131.362, 246.260 126.800, 246.727 123.500 C 247.657 116.933, 246.113 108.294, 243.689 106.506 C 242.940 105.953, 241.834 104.575, 241.232 103.445 C 240.157 101.425, 236.459 99.225, 230.470 97.043 L 227.440 95.939 227.833 79.629 C 228.214 63.844, 228.151 63.201, 225.864 59.672 C 223.469 55.978, 221.257 54.970, 220.549 57.250 M 92.443 59.418 C 91.376 60.198, 90.727 61.060, 91.002 61.332 C 91.276 61.605, 92.562 60.967, 93.861 59.914 C 96.576 57.712, 95.358 57.286, 92.443 59.418 M 102 59 C 100.821 59.762, 101.034 59.951, 103 59.885 C 104.375 59.839, 106.625 59.440, 108 59 C 110.291 58.266, 110.207 58.192, 107 58.115 C 105.075 58.069, 102.825 58.467, 102 59 M 23.625 75.798 C 23.354 76.237, 23.545 77.249, 24.051 78.048 C 25.386 80.158, 25.208 81, 23.427 81 C 21.364 81, 21.964 84.023, 24.250 85.143 C 25.212 85.614, 26.788 86.442, 27.750 86.982 C 32.839 89.836, 39.853 92.947, 42.500 93.523 C 44.150 93.883, 48.328 95.079, 51.785 96.182 C 56.735 97.760, 58.377 97.932, 59.514 96.988 C 60.581 96.103, 60.693 95.295, 59.944 93.895 C 59.386 92.853, 58.467 92, 57.902 92 C 57.337 92, 54.315 90.815, 51.187 89.366 C 48.059 87.917, 43.925 86.012, 42 85.133 C 40.075 84.253, 35.514 81.613, 31.866 79.267 C 24.811 74.730, 24.394 74.554, 23.625 75.798 M 114 87.951 C 109.325 88.300, 104.600 89.072, 103.500 89.667 C 102.400 90.262, 99.174 91.651, 96.330 92.754 C 90.898 94.862, 89 94.371, 89 90.859 C 89 87.985, 87.040 87.671, 84.640 90.159 C 83.398 91.447, 81.180 93.502, 79.711 94.726 C 76.568 97.345, 76.667 98.601, 81.118 112.500 C 82.703 117.450, 84 122.069, 84 122.764 C 84 123.459, 84.402 124.809, 84.892 125.764 C 85.383 126.719, 86.274 128.738, 86.871 130.250 C 88.214 133.651, 90.447 133.774, 92.551 130.563 C 93.792 128.668, 95.360 127.974, 99.587 127.446 C 102.579 127.072, 105.272 126.369, 105.572 125.883 C 105.872 125.397, 107.029 125, 108.142 125 C 110.877 125, 109.978 127.280, 106.926 128.085 C 104.949 128.606, 104.802 128.854, 106.133 129.424 C 108.045 130.244, 116.583 127.856, 123 124.708 C 126.139 123.168, 127.601 121.789, 127.833 120.148 C 128.149 117.918, 127.955 117.832, 124.083 118.486 C 118.554 119.420, 118.858 117.874, 124.940 114.132 C 127.657 112.460, 130.413 110.096, 131.065 108.878 C 132.596 106.017, 131.533 95.247, 129.497 92.997 C 128.674 92.087, 128 90.831, 128 90.206 C 128 89.018, 124.723 86.885, 123.316 87.158 C 122.867 87.246, 118.675 87.602, 114 87.951 M 112.500 96.027 C 109.750 96.436, 104.442 97.948, 100.705 99.386 C 96.967 100.824, 93.029 102, 91.955 102 C 90.368 102, 90 102.695, 90 105.698 C 90 110.775, 92.260 126, 93.013 126 C 93.350 126, 95.958 124.875, 98.808 123.500 C 101.658 122.125, 104.373 121, 104.840 121 C 105.308 121, 106.497 120.109, 107.482 119.020 C 108.468 117.930, 110.808 116.751, 112.683 116.400 C 119.237 115.170, 125.934 100.334, 121.800 96.200 C 120.507 94.907, 120.067 94.899, 112.500 96.027 M 230 103.427 C 230 104.354, 230.855 105, 232.083 105 C 234.520 105, 234.176 102.663, 231.667 102.177 C 230.680 101.985, 230 102.495, 230 103.427 M 207.316 108.427 C 204.464 109.118, 200.935 110.468, 199.472 111.426 C 196.876 113.127, 196.831 113.336, 197.523 120.334 C 197.914 124.275, 198.792 128.625, 199.476 130 C 200.160 131.375, 201.001 134.656, 201.346 137.290 C 202.529 146.334, 204.717 147.716, 211.982 144.009 C 214.128 142.914, 216.527 142.265, 217.313 142.567 C 219.843 143.538, 220.083 139.932, 217.888 133.914 C 215.858 128.346, 215.831 127.814, 217.331 123.226 C 219.665 116.090, 219.735 111.470, 217.546 109.051 C 215.443 106.727, 214.550 106.673, 207.316 108.427 M 227.699 108.325 C 226.663 109.149, 226.026 112.490, 225.571 119.500 C 225.214 125, 224.657 131.637, 224.332 134.250 C 223.811 138.445, 223.962 138.997, 225.621 138.978 C 228.587 138.944, 238.466 133.453, 238.823 131.640 C 239.020 130.642, 238.488 130, 237.466 130 C 236.243 130, 235.993 129.524, 236.547 128.250 C 236.965 127.287, 237.509 123.541, 237.757 119.925 C 238.155 114.096, 237.939 113.045, 235.853 110.651 C 233.159 107.559, 229.850 106.615, 227.699 108.325 M 16.329 147.087 C 14.003 150.475, 14.176 152.608, 16.842 153.443 C 19.731 154.347, 43.401 152.296, 43.797 151.108 C 44 150.499, 45.704 150, 47.583 150 C 50.544 150, 51 149.672, 51 147.546 L 51 145.093 37.750 145.235 C 30.462 145.314, 23.150 145.051, 21.500 144.651 C 18.875 144.015, 18.229 144.320, 16.329 147.087 M 122.706 147.627 C 122.137 148.197, 118.874 148.757, 112.500 149.378 C 104.617 150.146, 98.966 151.246, 98.429 152.115 C 98.128 152.602, 97.032 153, 95.994 153 C 94.955 153, 92.119 154.056, 89.691 155.347 C 87.264 156.638, 84.335 157.941, 83.184 158.242 C 80.838 158.855, 79.177 163.577, 80.753 165.153 C 81.429 165.829, 83.033 165.807, 85.630 165.086 C 87.759 164.495, 90.925 164.009, 92.667 164.006 C 95.641 164, 95.897 164.293, 96.861 168.787 C 98.379 175.864, 99.464 178.155, 102.985 181.713 C 106.497 185.261, 106.349 186.750, 102.485 186.750 C 101.082 186.750, 99.045 187.554, 97.959 188.537 C 96.086 190.232, 96.073 190.423, 97.703 192.224 C 99.036 193.698, 100.667 194.092, 104.961 193.980 C 108.008 193.901, 111.012 193.873, 111.639 193.918 C 112.265 193.963, 113.093 195.688, 113.478 197.750 C 113.864 199.813, 114.625 202.040, 115.171 202.700 C 115.716 203.360, 116.133 206.735, 116.098 210.200 C 116.022 217.668, 117.715 231.372, 119.194 235.250 C 120.314 238.188, 122.127 238.784, 123.757 236.750 C 124.419 235.924, 124.452 228.548, 123.855 215 C 123.359 203.725, 123.196 193.490, 123.494 192.255 C 123.885 190.636, 126.471 188.801, 132.768 185.677 C 139.262 182.456, 141.582 180.789, 141.820 179.173 C 142.065 177.503, 141.629 177, 139.936 177 C 137.635 177, 130.939 178.634, 127.500 180.035 C 122.381 182.120, 113 183.462, 113 182.109 C 113 181.499, 112.311 181, 111.469 181 C 110.626 181, 109.641 180.213, 109.279 179.250 C 108.917 178.287, 107.381 175.384, 105.865 172.798 C 103.491 168.748, 101.055 161.026, 102.139 160.987 C 103.486 160.938, 120.839 157.060, 122.242 156.495 C 124.785 155.469, 125.517 158.388, 123.687 162.258 C 121.256 167.399, 120.688 170.689, 122.083 171.551 C 122.866 172.035, 124.206 171.240, 125.693 169.410 C 132.025 161.622, 136.638 157, 138.081 157 C 138.957 157, 141.737 160.037, 144.258 163.750 C 149.263 171.118, 150.148 174.340, 152.012 192 C 152.622 197.775, 153.544 204.127, 154.061 206.116 C 155.361 211.123, 155.235 213.696, 153.660 214.300 C 152.804 214.629, 152.477 215.892, 152.757 217.795 C 153.017 219.567, 152.513 221.813, 151.514 223.338 C 150.512 224.868, 150.096 226.728, 150.484 227.949 C 151.155 230.062, 155.109 231.669, 156.906 230.558 C 159.015 229.255, 160.039 221.948, 160.629 204 C 161.332 182.617, 160.320 173.218, 156.467 165.343 C 153.217 158.700, 145.522 151.121, 140.332 149.453 C 136.099 148.092, 123.542 146.791, 122.706 147.627 M 110 152.666 C 104.544 153.526, 103.197 154.043, 102.640 155.497 C 102.146 156.783, 102.918 156.914, 107.779 156.369 C 114.136 155.656, 116.974 154.234, 114.797 152.854 C 114.084 152.401, 113.275 152.085, 113 152.151 C 112.725 152.218, 111.375 152.450, 110 152.666 M 72.443 157.792 C 71.872 158.181, 70.366 159.985, 69.098 161.800 C 67.301 164.372, 66.924 165.915, 67.386 168.800 C 67.713 170.835, 68.268 174.412, 68.620 176.750 C 69.085 179.836, 69.727 181, 70.963 181 C 71.900 181, 72.936 181.269, 73.264 181.598 C 74.226 182.559, 72.910 185, 71.430 185 C 69.635 185, 69.759 196.997, 71.608 202.278 C 72.594 205.093, 72.655 206.664, 71.846 208.438 C 70.121 212.225, 72.314 234.025, 74.588 235.688 C 78.578 238.606, 78.861 235.574, 77.914 200.126 C 76.967 164.676, 75.783 155.517, 72.443 157.792 M 69.446 165.087 C 69.077 165.685, 69.275 166.675, 69.887 167.287 C 70.704 168.104, 71 167.815, 71 166.200 C 71 163.785, 70.481 163.413, 69.446 165.087 M 111.638 188.500 C 111.288 189.414, 111.637 190, 112.531 190 C 113.339 190, 114 189.325, 114 188.500 C 114 187.675, 113.598 187, 113.107 187 C 112.616 187, 111.955 187.675, 111.638 188.500 M 42.735 199.512 C 38.465 202.461, 33.965 205.178, 32.735 205.549 C 31.506 205.920, 28.356 207.523, 25.735 209.112 C 23.114 210.700, 20.342 212, 19.574 212 C 18.146 212, 13 217.476, 13 218.995 C 13 223.543, 17.481 224.260, 22.411 220.500 C 24.214 219.125, 26.068 218, 26.532 218 C 27.621 218, 38.468 209.535, 43 205.149 C 44.925 203.286, 47.962 200.637, 49.750 199.262 C 53.007 196.758, 54.095 193.935, 51.750 194.074 C 51.063 194.115, 47.006 196.562, 42.735 199.512 M 200.500 216 C 200.840 216.550, 201.316 217, 201.559 217 C 201.802 217, 202 216.550, 202 216 C 202 215.450, 201.523 215, 200.941 215 C 200.359 215, 200.160 215.450, 200.500 216 M 208.750 216.662 C 209.438 216.940, 210.563 216.940, 211.250 216.662 C 211.938 216.385, 211.375 216.158, 210 216.158 C 208.625 216.158, 208.063 216.385, 208.750 216.662 M 139 219.096 C 139 221.365, 142.501 226, 144.216 226 C 146.970 226, 146.496 221.555, 143.535 219.615 C 140.668 217.736, 139 217.545, 139 219.096 M 265.500 220 C 265.840 220.550, 266.316 221, 266.559 221 C 266.802 221, 267 220.550, 267 220 C 267 219.450, 266.523 219, 265.941 219 C 265.359 219, 265.160 219.450, 265.500 220" stroke="none" fill="black" fill-rule="evenodd"/>
</svg>