<svg xmlns="http://www.w3.org/2000/svg" width="300" height="300" viewBox="0 0 300 300" version="1.1">
	<path d="M 185.384 33.442 C 183.855 37.427, 186.611 40.007, 194 41.504 L 197.500 42.213 195.292 40.107 C 194.077 38.948, 192.390 38, 191.542 38 C 190.694 38, 190 37.190, 190 36.200 C 190 32.829, 186.436 30.700, 185.384 33.442 M 193 35.525 C 193 36.363, 194.055 37.451, 195.345 37.941 C 199.836 39.649, 203.048 44.348, 199 43.290 C 196.769 42.706, 196.367 43.967, 198.200 45.800 C 199.889 47.489, 203 47.294, 203 45.500 C 203 43.285, 206.103 43.676, 206.702 45.967 C 207.293 48.227, 210.138 49.408, 212.889 48.535 C 213.974 48.191, 216.299 48.834, 218.356 50.047 C 220.324 51.209, 222.399 51.871, 222.967 51.520 C 224.802 50.386, 224.065 47.975, 221.597 47.037 C 220.276 46.534, 218.899 45.646, 218.538 45.062 C 218.177 44.478, 217.104 44, 216.152 44 C 214.046 44, 206.896 40.449, 205.963 38.939 C 205.592 38.339, 203.423 37.598, 201.144 37.293 C 198.575 36.948, 197 36.217, 197 35.368 C 197 34.616, 196.100 34, 195 34 C 193.874 34, 193 34.667, 193 35.525 M 92.728 53.415 C 91.667 54.476, 91.267 58.233, 91.128 68.429 C 90.955 81.138, 89.885 90.759, 88.373 93.205 C 88.016 93.782, 87.780 102.635, 87.848 112.878 C 87.919 123.670, 87.511 133.182, 86.877 135.500 C 86.276 137.700, 85.240 143.100, 84.577 147.500 C 83.913 151.900, 82.837 156.767, 82.185 158.315 C 81.533 159.863, 81 162.341, 81 163.822 C 81 165.302, 80.517 168.085, 79.928 170.007 C 78.057 176.100, 76 186.386, 76 189.643 C 76 191.415, 75.389 193.020, 74.600 193.323 C 73.829 193.619, 72.879 195.805, 72.488 198.180 C 72.098 200.556, 70.928 204.388, 69.889 206.695 C 68.850 209.002, 68 211.371, 68 211.959 C 68 212.546, 67.586 213.809, 67.080 214.764 C 64.081 220.427, 62.161 224.999, 61.504 228.040 C 61.092 229.943, 59.911 233.170, 58.878 235.210 C 56.386 240.134, 56.509 242.190, 59.463 244.965 C 61.803 247.164, 62.050 247.197, 64.424 245.642 C 65.956 244.638, 67.352 242.361, 68.036 239.753 C 72.439 222.958, 73.790 219, 75.121 219 C 75.605 219, 76 218.320, 76 217.489 C 76 216.658, 76.892 214.071, 77.982 211.739 C 81.792 203.590, 83.694 195.832, 87.561 172.666 C 88.372 167.807, 89.771 162.410, 90.670 160.672 L 92.303 157.513 93.272 160.006 C 95.354 165.370, 96.537 167.608, 98.725 170.327 C 99.976 171.881, 101 173.794, 101 174.577 C 101 175.428, 102.004 176, 103.500 176 C 105.333 176, 106 175.467, 106 174 C 106 172.900, 106.633 172, 107.406 172 C 109.324 172, 108.429 169.008, 105.489 165.585 C 104.187 164.070, 102.835 161.524, 102.484 159.927 C 102.133 158.330, 101.431 156.766, 100.923 156.452 C 100.415 156.139, 100 154.322, 100 152.416 C 100 149.695, 100.507 148.758, 102.359 148.054 C 105.674 146.793, 111.144 141.382, 115.051 135.500 C 116.877 132.750, 119.975 128.910, 121.935 126.966 C 126.534 122.406, 127.337 120.626, 130.485 108 C 131.925 102.225, 133.779 96.467, 134.605 95.204 C 135.430 93.942, 135.849 92.099, 135.535 91.109 C 134.570 88.070, 128.533 90.594, 126.917 94.712 C 126.207 96.521, 125.261 98, 124.813 98 C 124.366 98, 124 98.413, 124 98.917 C 124 99.421, 123.024 102.009, 121.832 104.667 C 119.253 110.415, 119.284 110.314, 119.125 113.550 C 119.055 114.987, 117.474 117.671, 115.500 119.703 C 113.575 121.685, 112 123.913, 112 124.653 C 112 125.394, 111.636 126, 111.191 126 C 110.746 126, 109.284 128.470, 107.941 131.490 C 106.598 134.509, 104.938 136.984, 104.250 136.990 C 103.563 136.995, 103 137.689, 103 138.531 C 103 139.374, 102.352 140.311, 101.561 140.615 C 100.770 140.919, 99.842 142.442, 99.500 144 C 98.826 147.068, 96.277 148.677, 94.657 147.057 C 93.980 146.380, 94.056 144.811, 94.890 142.275 C 95.573 140.199, 96.331 132.425, 96.575 125 C 97.204 105.859, 97.760 97.972, 99.329 85.989 C 100.913 73.883, 100.592 65.893, 98.193 57.759 C 96.463 51.893, 95.230 50.913, 92.728 53.415 M 240.500 78.097 C 235.968 79.287, 229.622 79.977, 222.500 80.053 C 201.072 80.283, 179.603 81.801, 175.500 83.376 C 173.300 84.221, 170.059 84.932, 168.297 84.956 C 163.851 85.017, 160 86.968, 160 89.161 C 160 90.172, 160.450 91, 161 91 C 161.550 91, 162 91.450, 162 92 C 162 92.550, 161.325 93, 160.500 93 C 159.675 93, 159 92.602, 159 92.115 C 159 91.628, 157.845 90.473, 156.433 89.548 C 153.388 87.553, 151 88.850, 151 92.500 C 151 95.504, 153.471 97.400, 157.385 97.400 C 160.743 97.400, 174 92.116, 174 90.777 C 174 90.350, 175.822 90, 178.050 90 C 180.277 90, 183.370 89.343, 184.923 88.540 C 186.476 87.737, 187.985 87.318, 188.276 87.609 C 188.567 87.900, 189.763 87.545, 190.933 86.819 C 192.672 85.741, 193.208 85.737, 193.868 86.796 C 194.824 88.331, 210.264 87.841, 212.273 86.212 C 212.948 85.664, 215.412 85.272, 217.750 85.341 L 222 85.466 222 97.033 C 222 103.395, 221.576 109.027, 221.057 109.550 C 220.539 110.073, 219.678 112.300, 219.144 114.500 C 218.610 116.700, 217.204 120.975, 216.018 124 C 214.833 127.025, 213.470 132.430, 212.989 136.010 C 212.255 141.481, 209.818 148.656, 205.012 159.500 C 204.525 160.600, 203.819 162.625, 203.445 164 C 203.070 165.375, 202.200 167.175, 201.512 168 C 200.824 168.825, 200.055 170.166, 199.804 170.980 C 199.471 172.057, 198.842 171.689, 197.489 169.624 C 195.685 166.870, 192.803 154.916, 189.505 136.500 C 188.618 131.550, 187.473 125.605, 186.960 123.288 C 186.447 120.971, 186.308 117.034, 186.650 114.538 C 187.295 109.834, 187.022 109.513, 182.750 109.948 C 181.754 110.049, 181 109.452, 181 108.563 C 181 107.703, 180.380 107, 179.622 107 C 176.947 107, 176.196 109.344, 177.060 115 C 177.522 118.025, 178.391 125, 178.992 130.500 C 181.748 155.748, 182.256 158.089, 187.548 170 C 191.581 179.075, 192.485 183.748, 190.770 186.647 C 189.618 188.595, 188.086 191.398, 182.383 202 C 181.347 203.925, 179.997 205.827, 179.381 206.226 C 178.766 206.626, 177.675 208.372, 176.956 210.106 C 176.238 211.840, 174.604 214.305, 173.325 215.584 C 172.046 216.863, 171 218.519, 171 219.265 C 171 220.010, 169.730 221.943, 168.179 223.560 C 165.333 226.526, 158.453 235.801, 156.357 239.500 C 155.712 240.637, 154.420 241.364, 153.362 241.185 C 148.607 240.380, 147.547 240.577, 147.193 242.329 C 146.601 245.254, 147.908 249, 149.519 249 C 150.334 249, 151 249.675, 151 250.500 C 151 251.325, 151.787 251.994, 152.750 251.986 C 155.615 251.964, 159 250.830, 159 249.892 C 159 248.481, 174.133 228.150, 175.250 228.060 C 175.662 228.027, 176 227.325, 176 226.500 C 176 225.675, 176.450 225, 177 225 C 177.550 225, 178 224.507, 178 223.903 C 178 223.300, 179.743 220.826, 181.874 218.406 C 184.005 215.985, 186.367 212.766, 187.124 211.252 C 189.666 206.168, 197.381 196, 198.697 196 C 199.414 196, 200 196.862, 200 197.917 C 200 198.971, 200.338 199.983, 200.750 200.167 C 201.162 200.350, 202.813 202.975, 204.418 206 C 206.023 209.025, 207.935 211.860, 208.668 212.300 C 209.401 212.740, 210 213.714, 210 214.465 C 210 215.216, 211.385 217.106, 213.078 218.665 C 216.269 221.603, 226.599 236.517, 228.640 241.130 C 231.122 246.744, 240 253.675, 240 250 C 240 249.450, 239.622 249, 239.161 249 C 238.699 249, 237.808 247.875, 237.182 246.500 C 236.142 244.217, 236.248 244, 238.406 244 C 239.824 244, 241.426 245.001, 242.408 246.500 C 243.309 247.875, 244.680 249, 245.456 249 C 246.231 249, 247.151 249.900, 247.500 251 C 248.152 253.055, 250.450 253.699, 251.437 252.103 C 251.742 251.609, 251.723 249.866, 251.396 248.230 C 250.792 245.208, 247.487 243.464, 241.041 242.766 C 239.537 242.603, 238.372 241.700, 238.041 240.441 C 237.743 239.308, 236.518 237.058, 235.317 235.441 C 233.566 233.081, 232.884 232.747, 231.867 233.750 C 229.090 236.490, 227.715 235.224, 228.256 230.425 C 228.614 227.246, 228.383 225.700, 227.498 225.361 C 226.797 225.092, 225.972 223.609, 225.663 222.066 C 225.331 220.406, 224.292 219.048, 223.118 218.741 C 221.345 218.277, 221.239 218.502, 222.126 220.861 C 222.948 223.049, 222.256 222.655, 218.078 218.557 C 213.548 214.113, 213.189 213.449, 214.520 211.978 C 216.535 209.751, 216.378 208.255, 214.051 207.516 C 212.903 207.152, 212.324 206.319, 212.642 205.491 C 213.144 204.182, 209.353 195.143, 207.813 193.980 C 207.435 193.693, 206.617 192.123, 205.996 190.490 C 204.742 187.191, 205.324 182.656, 207.709 177.149 C 208.578 175.142, 209.851 172.150, 210.537 170.500 C 211.223 168.850, 212.733 165.426, 213.892 162.890 C 215.051 160.355, 216 157.768, 216 157.140 C 216 156.513, 216.398 156, 216.883 156 C 217.369 156, 218.031 155.213, 218.354 154.250 C 218.678 153.287, 219.362 151.825, 219.874 151 C 220.387 150.175, 221.255 146.800, 221.803 143.500 C 223.099 135.689, 225.013 128.856, 226.396 127.097 C 229.165 123.577, 233.553 93.016, 231.776 89.623 C 230.657 87.485, 232.359 85.817, 234.732 86.727 C 235.509 87.025, 237.506 86.263, 239.170 85.032 C 241.089 83.614, 242.544 83.144, 243.149 83.749 C 243.754 84.354, 246.553 84.183, 250.801 83.283 C 254.486 82.502, 259.075 81.557, 261 81.182 C 263.603 80.675, 264.582 79.926, 264.818 78.261 C 265.128 76.080, 264.907 76.025, 256.318 76.140 C 251.352 76.207, 244.442 77.061, 240.500 78.097 M 90.723 103.141 C 90.406 106.638, 90.507 111.525, 90.948 114 C 91.876 119.210, 91.889 119.163, 92.555 108.214 C 93.173 98.058, 91.582 93.653, 90.723 103.141 M 55 99.729 C 54.175 100.043, 53.211 100.743, 52.857 101.286 C 52.059 102.509, 52.996 114.134, 54.003 115.500 C 54.408 116.050, 55.278 118.300, 55.937 120.500 C 57.063 124.258, 58.673 128.046, 63.845 139.110 C 65.030 141.645, 66 144.163, 66 144.706 C 66 146.419, 69.301 152.448, 70.934 153.718 C 73.401 155.637, 76 155.269, 76 153 C 76 151.900, 75.603 151, 75.119 151 C 74.634 151, 73.710 148.904, 73.064 146.342 C 72.419 143.779, 71.241 140.754, 70.446 139.619 C 69.651 138.484, 69 136.395, 69 134.977 C 69 133.560, 68.503 131.903, 67.896 131.296 C 66.891 130.291, 64.948 122.352, 63.358 112.750 C 63.016 110.688, 62.346 109, 61.868 109 C 61.391 109, 61 107.023, 61 104.607 C 61 99.510, 59.270 98.103, 55 99.729 M 178 113.500 C 178 114.325, 178.450 115, 179 115 C 179.550 115, 180 114.325, 180 113.500 C 180 112.675, 179.550 112, 179 112 C 178.450 112, 178 112.675, 178 113.500 M 91 123.044 C 91 124.853, 91.127 126.146, 91.283 125.917 C 91.439 125.688, 92.119 124.772, 92.795 123.883 C 93.786 122.579, 93.731 122.022, 92.512 121.010 C 91.215 119.933, 91 120.222, 91 123.044 M 90.015 135.750 C 90.007 137.537, 90.450 139, 91 139 C 92.270 139, 92.270 135.965, 91 134 C 90.264 132.862, 90.027 133.284, 90.015 135.750 M 211.430 153.321 C 210.630 155.408, 211.630 156.770, 212.975 155.425 C 213.543 154.857, 213.558 153.903, 213.012 153.020 C 212.245 151.778, 212.005 151.824, 211.430 153.321 M 190.638 169.500 C 190.955 170.325, 191.391 171, 191.607 171 C 191.823 171, 192 170.325, 192 169.500 C 192 168.675, 191.564 168, 191.031 168 C 190.499 168, 190.322 168.675, 190.638 169.500 M 106.880 177.007 C 105.612 177.748, 105.418 178.773, 105.986 181.727 C 107.495 189.574, 112.231 201.715, 116.038 207.500 C 117.845 210.245, 120.706 216.072, 123.034 221.750 C 123.542 222.988, 124.417 224, 124.979 224 C 125.540 224, 126 225.125, 126 226.500 C 126 228.905, 126.784 229.955, 132.079 234.644 C 133.410 235.824, 136.026 238.411, 137.890 240.394 C 141.371 244.096, 144 245.057, 144 242.627 C 144 239.481, 139.749 231.855, 137.523 231.009 C 136.063 230.454, 134.934 228.975, 134.516 227.071 C 134.147 225.395, 133.477 223.795, 133.027 223.516 C 131.495 222.570, 128.308 215.515, 127.600 211.500 C 126.492 205.227, 125.970 204, 124.408 204 C 123.606 204, 122.500 202.762, 121.949 201.250 C 120.924 198.437, 118.830 193.708, 116.378 188.669 C 115.620 187.112, 115 184.952, 115 183.869 C 115 180.740, 112.111 175.997, 110.224 176.030 C 109.276 176.047, 107.771 176.487, 106.880 177.007 M 117.638 204.500 C 117.955 205.325, 118.602 206, 119.076 206 C 119.549 206, 119.678 205.325, 119.362 204.500 C 119.045 203.675, 118.398 203, 117.924 203 C 117.451 203, 117.322 203.675, 117.638 204.500 M 281.866 248.666 C 278.571 253.090, 272.744 254.258, 263.750 252.295 C 259.248 251.312, 259 251.369, 259 253.384 C 259 257.579, 271.744 260.092, 278.218 257.175 C 282.472 255.258, 286.130 249.730, 284.334 247.934 C 283.531 247.131, 282.861 247.330, 281.866 248.666" stroke="none" fill="black" fill-rule="evenodd"/>
</svg>