<svg xmlns="http://www.w3.org/2000/svg" width="300" height="300" viewBox="0 0 300 300" version="1.1">
	<path d="M 140.750 15.572 C 135.475 18.434, 138.285 22.541, 146.615 24.147 C 149.852 24.771, 152.928 25.668, 153.450 26.141 C 153.972 26.613, 155.451 27, 156.735 27 C 158.020 27, 160.176 27.724, 161.527 28.610 C 164.488 30.550, 167 29.818, 167 27.015 C 167 25.624, 165.798 24.412, 163.250 23.234 C 161.188 22.280, 159.275 21.275, 159 21 C 158.320 20.320, 144.294 13.933, 143.716 14.040 C 143.597 14.062, 142.262 14.751, 140.750 15.572 M 197.500 36.685 C 195.850 36.897, 193.600 37.447, 192.500 37.907 C 190.710 38.656, 186.457 39.905, 166.881 45.433 C 163.790 46.306, 158.191 47.066, 154.437 47.122 C 150.684 47.178, 146.913 47.590, 146.057 48.038 C 143.576 49.333, 131.087 51.872, 124 52.521 C 113.785 53.457, 113 53.738, 113 56.460 C 113 59.464, 113.900 60.030, 120.909 61.435 C 125.135 62.282, 127.598 62.264, 131 61.358 C 133.475 60.700, 136.956 60.125, 138.736 60.080 C 140.515 60.036, 143.890 59.557, 146.236 59.016 C 148.581 58.475, 151.844 57.764, 153.486 57.438 C 156.095 56.919, 156.246 56.717, 154.684 55.843 C 153.587 55.229, 152.432 55.197, 151.698 55.760 C 149.710 57.285, 143 57.008, 143 55.401 C 143 54.630, 143.900 53.944, 145 53.875 C 146.100 53.806, 148.238 53.620, 149.750 53.462 C 151.262 53.303, 156.325 52.913, 161 52.595 C 167.394 52.159, 168.721 52.262, 166.357 53.009 C 164.628 53.555, 162.967 54.644, 162.666 55.428 C 162.233 56.556, 162.892 56.749, 165.809 56.348 C 167.839 56.069, 170.400 55.459, 171.500 54.992 C 172.600 54.526, 175.188 53.866, 177.250 53.527 C 179.313 53.187, 181 52.480, 181 51.955 C 181 51.430, 181.703 51, 182.562 51 C 184.890 51, 193.948 47.893, 194.574 46.880 C 194.873 46.396, 196.779 45.993, 198.809 45.985 C 204.151 45.963, 211.446 43.556, 211.813 41.694 C 211.986 40.820, 211.632 39.181, 211.028 38.052 C 209.916 35.975, 206.062 35.585, 197.500 36.685 M 194.750 42.735 C 192.137 42.941, 190 43.480, 190 43.932 C 190 44.977, 199.180 44.052, 200.450 42.878 C 201.050 42.324, 201.050 42.066, 200.450 42.180 C 199.928 42.279, 197.363 42.529, 194.750 42.735 M 181 47.500 C 181 48.325, 181.257 49, 181.571 49 C 181.886 49, 182.818 48.325, 183.643 47.500 C 184.976 46.167, 184.913 46, 183.071 46 C 181.897 46, 181 46.649, 181 47.500 M 172.813 50.683 C 173.534 50.972, 174.397 50.936, 174.729 50.604 C 175.061 50.272, 174.471 50.036, 173.417 50.079 C 172.252 50.127, 172.015 50.364, 172.813 50.683 M 134.500 57 C 134.143 57.577, 135.070 57.994, 136.691 57.985 C 138.872 57.973, 139.165 57.753, 138 57 C 136.079 55.758, 135.267 55.758, 134.500 57 M 118.500 59 C 116.978 59.654, 117.575 59.873, 121 59.914 C 124.256 59.954, 125.085 59.701, 124 59 C 122.220 57.850, 121.177 57.850, 118.500 59 M 130.813 59.683 C 131.534 59.972, 132.397 59.936, 132.729 59.604 C 133.061 59.272, 132.471 59.036, 131.417 59.079 C 130.252 59.127, 130.015 59.364, 130.813 59.683 M 193.729 65.967 C 191.104 66.902, 187.640 68.929, 186.029 70.472 C 183.478 72.916, 182.555 73.204, 178.856 72.708 C 172.049 71.794, 169.198 74.764, 171.948 79.903 C 172.470 80.878, 172.949 86.360, 173.014 92.087 C 173.175 106.339, 173.691 108.884, 176.565 109.606 C 180.304 110.544, 194.357 105.183, 199.433 100.882 C 206.944 94.518, 208.925 91, 205 91 C 203.568 91, 203 90.333, 203 88.653 C 203 87.362, 203.900 85.268, 205 84 C 206.577 82.182, 207 80.259, 207 74.915 C 207 68.574, 206.812 68.003, 204.096 66.068 C 200.745 63.682, 200.158 63.677, 193.729 65.967 M 136.500 72.952 C 131.844 74.112, 121.343 80.709, 119.069 83.903 C 117.653 85.892, 115.953 86.903, 113.556 87.183 L 110.090 87.588 109.795 82.544 L 109.500 77.500 103.781 77.201 C 98.354 76.917, 98.030 77.034, 97.411 79.498 C 96.556 82.906, 97.407 83.591, 100.655 82.111 C 102.785 81.141, 103.484 81.158, 104.144 82.199 C 105.320 84.053, 105.190 88.832, 103.864 92.500 C 103.032 94.800, 103.016 97.364, 103.802 102.071 C 105.511 112.295, 106.029 114.242, 108.235 118.750 L 110.314 123 116.407 122.997 C 123.591 122.993, 131.711 119.362, 142.105 111.506 C 152.139 103.922, 153.142 102.877, 151.865 101.337 C 151.255 100.602, 149.910 100, 148.878 100 C 146.652 100, 146.513 99.225, 148.354 97.079 C 150.761 94.271, 152.331 83.942, 151.065 79.240 C 149.299 72.683, 145.011 70.832, 136.500 72.952 M 197.196 73.204 C 196.534 73.866, 193.977 74.919, 191.513 75.545 C 187.404 76.588, 186.915 76.509, 185.609 74.591 C 184.199 72.520, 184.179 72.519, 183.520 74.500 C 183.154 75.600, 182.437 77.281, 181.927 78.236 C 181.417 79.191, 181 83.804, 181 88.486 C 181 94.622, 180.651 97.004, 179.750 97.015 C 178.888 97.026, 178.948 97.314, 179.945 97.945 C 181.432 98.885, 184.188 97.357, 188.708 93.086 C 189.923 91.939, 191.385 91, 191.958 91 C 192.531 91, 193 90.523, 193 89.940 C 193 89.357, 194.575 86.817, 196.500 84.296 C 199.102 80.888, 200 78.724, 200 75.856 C 200 71.855, 199.252 71.148, 197.196 73.204 M 134.883 78.640 C 133.953 79.762, 134.078 80.336, 135.473 81.357 C 137.083 82.534, 136.804 82.935, 132.371 85.799 C 129.692 87.531, 126.956 89.409, 126.292 89.974 C 124.427 91.559, 119.858 91.188, 118.508 89.342 C 117.430 87.867, 117.223 87.977, 116.629 90.342 C 116.084 92.512, 115.386 93, 112.828 93 L 109.694 93 110.334 104.183 C 110.993 115.703, 112.006 118.182, 114.977 115.550 C 115.815 114.808, 119.977 112.514, 124.228 110.451 C 132.063 106.649, 135.806 103.302, 141.811 94.729 C 144.779 90.493, 145.053 89.535, 144.448 85.501 C 143.914 81.940, 143.367 81, 141.827 81 C 140.757 81, 140.095 80.655, 140.356 80.234 C 140.616 79.812, 139.757 78.961, 138.447 78.343 C 136.570 77.457, 135.813 77.520, 134.883 78.640 M 28.174 98.965 C 25.792 100.991, 25.984 103, 28.559 103 C 29.352 103, 30 102.325, 30 101.500 C 30 99.707, 31.664 99.492, 32.237 101.211 C 32.459 101.878, 33.959 102.440, 35.570 102.461 C 37.746 102.490, 38.429 102.932, 38.222 104.180 C 37.973 105.685, 39.312 105.853, 51.056 105.793 C 61.505 105.740, 64.280 105.434, 64.721 104.286 C 65.025 103.493, 64.649 102.266, 63.887 101.559 C 62.088 99.890, 49.787 97.809, 39 97.348 C 31.657 97.034, 30.183 97.254, 28.174 98.965 M 175.111 115.289 C 174.534 115.866, 174.493 117.168, 175.009 118.523 C 176.421 122.238, 174.188 123.769, 164.213 125.922 C 159.106 127.025, 154.534 128.170, 154.054 128.467 C 153.573 128.764, 152.402 128.708, 151.450 128.342 C 149.876 127.739, 149.864 127.572, 151.320 126.508 C 152.966 125.305, 155 120.900, 155 118.542 C 155 116.993, 152.555 115.847, 150.750 116.549 C 148.917 117.263, 147.017 121.880, 146.882 125.949 C 146.766 129.419, 146.749 129.433, 146.132 126.582 C 144.939 121.074, 142.206 122.798, 142.896 128.623 C 143.053 129.946, 139.987 131.192, 130.694 133.579 C 123.946 135.312, 120 138.303, 120 141.683 C 120 143.505, 126.160 146.188, 127.450 144.928 C 127.972 144.418, 129.322 143.997, 130.450 143.994 C 131.577 143.990, 133.789 143.315, 135.364 142.494 C 138.736 140.736, 139.099 140.707, 142.356 141.945 C 147.776 144.006, 141.717 150, 134.212 150 C 129.753 150, 124.023 151.720, 121.075 153.943 C 119.311 155.274, 118.938 156.229, 119.495 157.984 C 120.202 160.213, 120.489 160.264, 129.049 159.710 C 133.902 159.395, 138.839 158.621, 140.020 157.989 C 141.732 157.073, 142.515 157.156, 143.890 158.401 C 145.296 159.673, 145.603 161.672, 145.552 169.230 L 145.489 178.500 142.745 178.816 C 141.235 178.990, 140 179.506, 140 179.961 C 140 180.417, 138.313 181.013, 136.250 181.285 C 130.364 182.063, 111.933 187.083, 107.360 189.155 C 101.829 191.661, 100.331 193.489, 102.082 195.599 C 103.152 196.888, 104.775 197.097, 110.455 196.679 C 114.330 196.393, 119.525 195.641, 122 195.008 C 124.475 194.374, 127.967 193.613, 129.759 193.317 C 131.552 193.021, 133.266 192.379, 133.568 191.890 C 134.274 190.748, 137 190.727, 137 191.862 C 137 192.337, 135.762 194.343, 134.250 196.321 C 132.738 198.299, 130.375 201.536, 129 203.514 C 125.777 208.150, 121.357 213.489, 117.195 217.774 C 113.389 221.692, 109.021 227.805, 103.572 236.838 C 100.233 242.372, 99.932 243.360, 101.196 244.625 C 103.202 246.630, 104.881 245.679, 109.381 239.989 C 111.515 237.290, 116.240 231.957, 119.881 228.138 C 128.969 218.604, 136 210.334, 136 209.178 C 136 208.648, 136.696 207.947, 137.547 207.620 C 138.399 207.294, 139.568 205.670, 140.145 204.013 C 140.723 202.356, 141.792 201, 142.520 201 C 144.345 201, 146.317 207.456, 145.672 211.321 C 145.381 213.070, 144.637 218.325, 144.020 223 C 142.966 230.975, 141.227 238.540, 138.847 245.500 C 133.465 261.242, 132.339 271.148, 135.750 272.753 C 138.375 273.987, 148.338 273.671, 150.024 272.300 C 156.444 267.081, 160 263.564, 160 262.433 C 160 261.700, 160.618 260.740, 161.373 260.300 C 162.982 259.363, 168 249.741, 168 247.592 C 168 243.780, 165.094 245.623, 155.514 255.509 C 149.366 261.854, 144.686 265.924, 144.015 265.509 C 142.489 264.566, 143.701 258.614, 148.598 243 C 149.375 240.525, 150.024 237.150, 150.041 235.500 C 150.057 233.850, 150.723 229.800, 151.520 226.500 C 153.238 219.384, 153.537 200, 151.929 200 C 151.339 200, 150.183 199.326, 149.359 198.502 C 148.028 197.171, 148.088 196.685, 149.896 194.147 C 151.015 192.575, 152.228 189.424, 152.593 187.145 C 153.056 184.251, 153.745 183.005, 154.878 183.015 C 156.267 183.028, 156.289 183.164, 155.028 183.962 C 153.767 184.759, 153.803 184.987, 155.278 185.553 C 156.225 185.917, 157.787 185.870, 158.750 185.449 C 159.713 185.029, 161.096 184.783, 161.824 184.903 C 164.043 185.269, 166 182.915, 166 179.878 C 166 177.509, 166.423 177, 168.393 177 C 170.774 177, 172.520 179.349, 171.439 181.098 C 170.820 182.100, 173.299 185, 174.774 185 C 176.677 185, 178.925 181.306, 178.717 178.521 C 178.524 175.941, 178.910 175.526, 182.262 174.711 C 186.331 173.721, 189.505 174.373, 188.504 175.993 C 188.162 176.547, 186.874 177, 185.641 177 C 183.416 177, 181 178.666, 181 180.200 C 181 180.640, 182.350 181, 184 181 C 185.650 181, 187 180.648, 187 180.218 C 187 179.454, 192.515 177.645, 198.500 176.445 C 200.150 176.115, 202.400 175.470, 203.500 175.012 C 207.598 173.306, 215.948 171, 218.028 171 C 221.135 171, 224.096 167.048, 222.801 164.629 C 221.885 162.917, 220.990 162.805, 213.146 163.422 C 208.391 163.796, 202.250 164.749, 199.500 165.539 C 196.750 166.329, 191.912 167.463, 188.750 168.058 C 185.588 168.654, 183 169.560, 183 170.071 C 183 170.582, 181.854 171, 180.453 171 C 177.991 171, 177.922 170.827, 178.364 165.780 C 178.615 162.909, 179.311 160.396, 179.911 160.196 C 180.510 159.997, 181 157.676, 181 155.040 L 181 150.246 186.250 148.039 C 194.510 144.565, 199.845 141.944, 200.186 141.192 C 200.359 140.811, 202.668 139.479, 205.317 138.230 C 209.218 136.392, 210.074 135.537, 209.817 133.730 C 209.563 131.946, 208.900 131.531, 206.500 131.655 C 202.491 131.862, 192.386 134.530, 187.804 136.592 C 185.771 137.507, 183.450 138.003, 182.646 137.694 C 181.376 137.207, 181.393 136.671, 182.775 133.622 C 184.046 130.819, 185.326 129.797, 189.121 128.555 C 191.736 127.700, 195.238 127, 196.903 127 C 200.665 127, 202.570 124.162, 200.608 121.479 C 199.358 119.770, 195.053 119.408, 186.500 120.293 C 184.897 120.459, 184.537 119.955, 184.688 117.750 C 184.792 116.237, 184.567 114.953, 184.188 114.896 C 180.363 114.316, 175.890 114.510, 175.111 115.289 M 156.500 132.536 L 153.500 133.910 156.500 133.941 C 160.410 133.982, 164 132.997, 164 131.883 C 164 130.597, 159.968 130.948, 156.500 132.536 M 166 135.563 C 164.075 136.291, 161.070 136.913, 159.323 136.944 C 155.836 137.005, 151.666 141.127, 152.250 143.933 C 152.612 145.671, 153.287 145.679, 160.500 144.020 C 163.250 143.388, 166.763 142.620, 168.307 142.313 C 172.002 141.580, 174.741 137.597, 172.996 135.495 C 171.555 133.759, 170.746 133.767, 166 135.563 M 138 137 C 138 137.550, 137.352 138, 136.559 138 C 135.766 138, 134.840 138.450, 134.500 139 C 134.139 139.583, 135.156 140, 136.941 140 C 139.333 140, 140 139.564, 140 138 C 140 136.900, 139.550 136, 139 136 C 138.450 136, 138 136.450, 138 137 M 147.079 142.583 C 147.127 143.748, 147.364 143.985, 147.683 143.188 C 147.972 142.466, 147.936 141.603, 147.604 141.271 C 147.272 140.939, 147.036 141.529, 147.079 142.583 M 26.514 147.956 C 26.098 149.266, 24.698 150.310, 22.866 150.677 C 20.367 151.177, 19.942 151.688, 20.197 153.886 C 20.472 156.256, 20.865 156.478, 24.411 156.261 C 26.562 156.130, 28.868 156.475, 29.534 157.028 C 30.201 157.582, 31.366 157.808, 32.123 157.530 C 34.316 156.727, 52.923 154.748, 59.500 154.618 C 64.822 154.513, 65.534 154.259, 65.805 152.363 C 66.063 150.555, 65.370 150.054, 61.305 149.107 C 58.662 148.492, 51.079 147.798, 44.452 147.564 C 37.826 147.331, 31.231 146.845, 29.797 146.485 C 27.700 145.959, 27.056 146.247, 26.514 147.956 M 160 150.818 C 160 151.924, 160.316 152.084, 161.051 151.349 C 162.173 150.227, 167 150.733, 167 151.972 C 167 152.378, 164.683 153.338, 161.851 154.105 C 155.396 155.854, 153.060 158.836, 152.051 166.613 C 151.630 169.851, 150.949 173.287, 150.536 174.250 C 149.920 175.687, 150.305 176, 152.693 176 C 154.292 176, 156.098 175.502, 156.708 174.892 C 157.317 174.283, 160.757 173.548, 164.352 173.260 C 167.946 172.971, 171.048 172.232, 171.243 171.618 C 171.439 171.003, 171.421 166.113, 171.203 160.750 C 170.898 153.236, 170.485 151, 169.403 151 C 168.632 151, 168 150.578, 168 150.063 C 168 149.547, 166.200 149.150, 164 149.181 C 161.042 149.221, 160 149.648, 160 150.818 M 137.406 153.369 C 133.081 154.950, 133.714 156.567, 138.500 156.160 C 142.895 155.786, 144.586 154.758, 143.554 153.087 C 142.757 151.798, 141.556 151.853, 137.406 153.369 M 32 154.059 C 32 154.641, 32.450 154.840, 33 154.500 C 33.550 154.160, 34 153.684, 34 153.441 C 34 153.198, 33.550 153, 33 153 C 32.450 153, 32 153.477, 32 154.059 M 127.500 157 C 127.840 157.550, 128.541 158, 129.059 158 C 129.577 158, 130 157.550, 130 157 C 130 156.450, 129.298 156, 128.441 156 C 127.584 156, 127.160 156.450, 127.500 157 M 203 170 C 203 170.550, 202.100 171, 201 171 C 199.900 171, 199 171.450, 199 172 C 199 173.400, 204.068 173.247, 207.293 171.750 C 210.979 170.038, 210.680 169, 206.500 169 C 204.575 169, 203 169.450, 203 170 M 213 182.727 C 210.027 183.268, 207 185.766, 207 187.677 C 207 188.429, 202.204 193.852, 196.342 199.728 C 186.088 210.007, 185.529 210.406, 181.600 210.250 C 179.354 210.160, 176.477 210.768, 175.206 211.601 C 173.248 212.884, 172.941 213.826, 173.198 217.771 C 173.480 222.112, 173.715 222.471, 176.676 223.072 C 178.422 223.427, 181.766 225.356, 184.106 227.359 C 186.446 229.361, 188.841 230.993, 189.430 230.985 C 190.127 230.975, 190.151 230.713, 189.500 230.234 C 188.260 229.322, 184.888 223, 185.642 223 C 186.618 223, 192.475 227.360, 193.300 228.700 C 193.740 229.415, 194.667 230, 195.361 230 C 196.055 230, 197.659 230.966, 198.926 232.146 C 200.979 234.058, 201.051 234.392, 199.594 235.207 C 197.552 236.350, 198.452 238, 201.118 238 C 202.218 238, 202.840 237.550, 202.500 237 C 202.160 236.450, 202.246 236.014, 202.691 236.032 C 204.062 236.086, 206.590 238.409, 207.281 240.250 C 208.038 242.269, 210.626 242.593, 211.271 240.750 C 211.888 238.986, 216 242.765, 216 245.096 C 216 247.348, 217.847 248.553, 219.209 247.191 C 220.479 245.921, 223 246.759, 223 248.452 C 223 250.355, 226.676 253.333, 227.460 252.065 C 228.440 250.478, 231.309 250.753, 230.687 252.374 C 230.091 253.928, 234.259 256.576, 235.801 255.623 C 236.346 255.286, 238.076 255.680, 239.646 256.499 C 241.216 257.318, 244.863 257.990, 247.750 257.994 C 252.319 257.999, 253 257.743, 253 256.019 C 253 254.669, 252.124 253.848, 250.250 253.441 C 248.738 253.113, 246.600 252.456, 245.500 251.980 C 244.400 251.505, 241.925 250.807, 240 250.428 C 238.075 250.049, 235.427 248.898, 234.115 247.870 C 232.803 246.841, 231.296 246, 230.766 246 C 229.789 246, 217.921 239.028, 217 237.913 C 216.725 237.580, 215.375 237.029, 214 236.689 C 210.514 235.826, 192 219.429, 192 217.204 C 192 216.621, 198.300 209.874, 206 202.210 C 220.270 188.007, 222.055 185.170, 218.066 183.035 C 217.002 182.466, 215.989 182.061, 215.816 182.136 C 215.642 182.211, 214.375 182.477, 213 182.727 M 141.804 184.339 C 141.067 185.076, 139.797 185.961, 138.982 186.307 C 138.167 186.652, 139.300 186.665, 141.500 186.336 C 146.090 185.649, 147 185.253, 147 183.941 C 147 182.528, 143.334 182.809, 141.804 184.339 M 131.570 187.887 C 131.269 188.374, 129.384 189.081, 127.381 189.456 C 125.093 189.886, 124.091 190.491, 124.685 191.085 C 125.279 191.679, 126.807 191.444, 128.796 190.452 C 131.646 189.030, 133.894 187, 132.618 187 C 132.343 187, 131.871 187.399, 131.570 187.887 M 117.500 191 C 117.840 191.550, 118.766 192, 119.559 192 C 120.352 192, 121 191.550, 121 191 C 121 190.450, 120.073 190, 118.941 190 C 117.809 190, 117.160 190.450, 117.500 191 M 110.500 195 C 110.160 195.550, 110.584 196, 111.441 196 C 112.298 196, 113 195.550, 113 195 C 113 194.450, 112.577 194, 112.059 194 C 111.541 194, 110.840 194.450, 110.500 195 M 136.459 201.067 C 136.096 201.653, 136.040 202.373, 136.333 202.667 C 137.050 203.383, 139 202.121, 139 200.941 C 139 199.663, 137.274 199.748, 136.459 201.067 M 195.032 206.122 C 193.315 207.839, 192.134 209.468, 192.408 209.741 C 193.306 210.639, 199.486 206.432, 199.820 204.696 C 200.317 202.116, 198.495 202.659, 195.032 206.122 M 60 210.911 C 60 211.740, 55.434 214.245, 49 216.946 C 47.625 217.523, 45.600 218.517, 44.500 219.155 C 39.364 222.134, 39.649 221.996, 30 226.178 C 22.069 229.614, 20.511 230.765, 20.184 233.428 C 19.962 235.231, 20.336 236, 21.434 236 C 22.295 236, 23 235.571, 23 235.047 C 23 234.522, 24.340 234.860, 25.977 235.797 C 28.435 237.203, 29.304 237.282, 30.963 236.250 C 32.069 235.563, 33.472 235, 34.082 235 C 34.692 235, 36.386 234.157, 37.846 233.126 C 39.306 232.096, 42.975 229.981, 46 228.426 C 57.933 222.294, 64.899 215.507, 63.365 211.509 C 62.743 209.888, 60 209.401, 60 210.911 M 29.732 232 C 27.994 234.030, 28.554 234.492, 31.418 233.393 C 33.011 232.782, 33.670 230, 32.222 230 C 31.794 230, 30.674 230.900, 29.732 232 M 191 232 C 191 232.550, 191.450 233, 192 233 C 192.550 233, 193 232.550, 193 232 C 193 231.450, 192.550 231, 192 231 C 191.450 231, 191 231.450, 191 232" stroke="none" fill="black" fill-rule="evenodd"/>
</svg>