<svg xmlns="http://www.w3.org/2000/svg" width="300" height="300" viewBox="0 0 300 300" version="1.1">
	<path d="M 200.231 47.434 C 199.130 48.833, 196.764 53.020, 194.973 56.739 C 193.181 60.457, 191.126 64.625, 190.405 66 C 183.302 79.554, 177.086 93.054, 176.823 95.500 C 176.541 98.119, 176.817 98.500, 179 98.500 C 181.066 98.500, 182.194 97.248, 185.500 91.281 C 187.700 87.310, 189.964 84.047, 190.532 84.031 C 191.741 83.995, 191.486 128.156, 190.112 157 C 189.278 174.483, 189.340 197.670, 190.280 220.810 C 190.618 229.112, 191.088 231.644, 192.696 233.810 C 195.395 237.447, 198.888 239.138, 202.500 238.560 C 204.150 238.296, 209.325 238.010, 214 237.924 C 223.286 237.755, 236.812 235.670, 243.348 233.401 C 249.781 231.167, 256 227.638, 256 226.220 C 256 223.888, 252.933 223.699, 243.606 225.454 C 232.182 227.605, 229.617 227.346, 229.154 224 C 228.964 222.625, 228.401 221.003, 227.903 220.397 C 226.273 218.409, 225.912 208.782, 227.083 198.546 C 227.715 193.021, 228.586 188.050, 229.018 187.500 C 229.451 186.950, 230.311 184.604, 230.931 182.288 C 231.955 178.455, 232.618 177.807, 238.278 175.107 C 241.700 173.474, 245.625 171.702, 247 171.169 C 248.375 170.635, 251.441 168.781, 253.813 167.048 C 258.651 163.513, 259.342 159.762, 255.262 159.182 C 253.172 158.885, 240.821 164.450, 234.770 168.415 C 230.678 171.097, 229.770 169.763, 230.502 162.149 C 231.207 154.814, 233.722 143.068, 235.045 140.927 C 235.548 140.113, 237.845 139.496, 240.696 139.408 C 243.338 139.327, 245.838 139.202, 246.250 139.130 C 246.662 139.059, 247 137.662, 247 136.026 C 247 132.314, 242.225 129.274, 239.057 130.970 C 237.998 131.536, 236.202 132, 235.066 132 C 233.237 132, 233.003 131.397, 233.024 126.750 C 233.037 123.862, 233.452 119.758, 233.946 117.629 C 234.969 113.220, 234.502 111.339, 232.058 110.031 C 228.975 108.381, 225.369 112.962, 224.466 119.675 C 223.487 126.959, 223.382 127.887, 223.171 131.118 C 223.006 133.646, 222.743 133.754, 215.560 134.214 C 205.811 134.840, 202.769 136.708, 203.193 141.810 L 203.500 145.500 208.500 145.189 C 211.250 145.019, 214.954 144.424, 216.730 143.868 C 218.507 143.313, 220.358 143.103, 220.843 143.403 C 221.328 143.703, 221.674 150.147, 221.612 157.724 L 221.500 171.500 212.664 172.500 C 205.821 173.275, 203.510 173.938, 202.414 175.441 C 200.665 177.843, 200.569 182.612, 202.250 183.666 C 203.687 184.567, 207.022 184.196, 208.525 182.967 C 209.089 182.506, 211.946 181.811, 214.873 181.422 L 220.197 180.716 219.348 194.108 C 218.511 207.329, 218.407 222.610, 219.129 226.500 C 219.407 228, 218.876 228.589, 217 228.858 C 213.445 229.369, 201.288 227.063, 200.190 225.669 C 199.683 225.026, 198.972 221.475, 198.609 217.777 C 197.967 211.228, 197.870 162.518, 198.468 146.500 C 198.632 142.100, 199.046 127.475, 199.389 114 C 199.731 100.525, 200.365 86.311, 200.797 82.414 C 201.229 78.517, 201.203 73.862, 200.738 72.070 C 200.093 69.578, 200.311 68.186, 201.667 66.155 C 207.294 57.731, 209.153 53.273, 208.799 49.056 C 208.532 45.879, 208.166 45.468, 205.366 45.195 C 202.982 44.964, 201.752 45.500, 200.231 47.434 M 106.751 48.689 C 104.693 49.227, 103.533 53.004, 104.385 56.396 C 104.905 58.468, 105.900 58.947, 111.743 59.936 C 115.459 60.565, 120.011 61.563, 121.859 62.154 C 124.749 63.077, 125.496 62.948, 127.218 61.227 C 129.018 59.427, 129.081 58.941, 127.852 56.363 C 126.750 54.055, 125.736 53.438, 122.615 53.182 C 120.487 53.007, 117.011 51.770, 114.892 50.432 C 111.066 48.017, 110.109 47.812, 106.751 48.689 M 141 67.443 C 138.726 68.708, 129.634 70.792, 116.500 73.059 C 113.750 73.533, 109.250 74.338, 106.500 74.847 C 103.750 75.357, 99.350 76.112, 96.721 76.527 C 90.907 77.443, 86.711 81.620, 87.459 85.746 C 88.122 89.404, 89.407 90.388, 91.827 89.093 C 92.950 88.492, 94.618 88, 95.533 88 C 96.449 88, 98.616 87.372, 100.349 86.604 C 102.082 85.836, 106.200 84.667, 109.500 84.005 C 115.709 82.761, 119.813 81.822, 126.255 80.171 C 128.321 79.641, 130.203 79.520, 130.438 79.900 C 130.674 80.281, 129.489 83.047, 127.806 86.046 C 123.406 93.888, 122.253 96.155, 121.086 99.250 C 120.516 100.763, 119.637 102, 119.134 102 C 118.630 102, 116.040 100.200, 113.377 98 C 108.251 93.764, 106.381 93.229, 103.764 95.250 C 101.255 97.188, 101.024 103, 103.456 103 C 105.204 103, 112.202 107.617, 113.229 109.447 C 114.045 110.903, 106.040 127.892, 103.573 129.939 C 101.610 131.568, 89.504 132.625, 88.650 131.242 C 87.115 128.759, 86.037 116.012, 87.155 113.559 C 88.031 111.636, 88.001 110.706, 87.025 109.530 C 84.994 107.083, 82.435 107.741, 79.619 111.433 C 76.664 115.307, 76.336 119.180, 78.052 129.918 C 79.723 140.378, 79.884 140.826, 82.252 141.620 C 87.259 143.297, 97.080 142.319, 100.601 139.793 C 101.206 139.358, 103.785 138.717, 106.331 138.368 C 112.231 137.559, 112.748 138.690, 111.148 148.910 C 108.407 166.425, 107.864 168.030, 104.154 169.580 C 99.938 171.342, 95.001 171.433, 94.997 169.750 C 94.995 169.063, 95.953 165.263, 97.126 161.307 C 99.494 153.317, 99.184 151, 95.745 151 C 91.722 151, 87.641 157.605, 86.074 166.650 C 84.512 175.671, 83.753 176.994, 80.128 177.015 C 76.368 177.037, 75.254 178.029, 73.542 182.880 C 72.449 185.978, 72.311 187.713, 73.048 189.090 C 74.379 191.577, 74.859 191.509, 78.142 188.364 L 80.894 185.728 81.522 188.231 C 81.868 189.608, 81.638 193.382, 81.011 196.618 C 79.145 206.256, 78.546 229.796, 79.975 237.366 C 81.008 242.842, 81.752 244.399, 84.151 246.108 C 89.493 249.911, 91.545 246.633, 88.454 239.236 C 85.839 232.976, 86.097 212.057, 88.975 197 C 90.289 190.125, 91.987 183.757, 92.747 182.849 C 93.508 181.941, 95.742 180.896, 97.712 180.526 C 99.681 180.157, 102.310 179.188, 103.554 178.373 C 106.789 176.253, 107.183 177.606, 106.428 188.225 C 106.065 193.326, 105.805 199.121, 105.850 201.102 C 105.926 204.438, 105.648 204.789, 102.085 205.856 C 99.969 206.490, 97.694 207.664, 97.030 208.464 C 95.347 210.492, 96.665 216.004, 98.829 215.985 C 100.949 215.967, 108.062 213.500, 113.321 210.959 C 115.551 209.882, 118.024 209, 118.816 209 C 120.743 209, 131.199 203.009, 132.660 201.068 C 133.694 199.693, 134.035 199.722, 135.818 201.336 C 136.918 202.331, 138.397 204.575, 139.105 206.322 C 139.813 208.070, 141.693 211.637, 143.282 214.250 C 149.381 224.277, 153.172 217.140, 148.551 204.330 C 146.912 199.786, 145.764 193.983, 145.350 188.144 C 144.836 180.908, 144.302 178.679, 142.744 177.271 C 140.850 175.559, 140.691 175.612, 137.992 178.843 C 136.374 180.780, 134.931 183.976, 134.561 186.443 C 134.149 189.192, 132.960 191.622, 131.206 193.303 C 127.862 196.507, 115.104 201.504, 113.744 200.144 C 112.558 198.958, 115.122 182.011, 117.258 176.913 C 118.541 173.854, 119.477 173.142, 123.631 172.068 C 130.483 170.296, 134.259 168.873, 136 167.407 C 138.320 165.453, 154.283 164.416, 155.644 166.130 C 158.085 169.204, 159.771 180.284, 160.583 198.579 C 161.348 215.833, 160.553 220.421, 155.613 227.250 C 152.954 230.927, 150.791 230.715, 146.568 226.367 C 143.439 223.146, 142.960 222.941, 142.337 224.563 C 140.912 228.278, 149.919 240, 154.199 240 C 155.631 240, 161.412 233.275, 164.815 227.649 C 169.529 219.858, 170.644 208.198, 168.610 187.981 C 166.690 168.908, 165.132 162.659, 161.367 158.942 C 158.943 156.549, 157.573 156.075, 152.500 155.876 C 145.941 155.619, 140.609 156.521, 137.500 158.415 C 136.400 159.085, 132.973 160.184, 129.884 160.858 C 126.795 161.532, 123.420 162.725, 122.384 163.510 C 119.756 165.500, 116.998 165.366, 117.008 163.250 C 117.037 156.384, 121.673 138.352, 124.119 135.587 C 125 134.591, 138.480 130, 140.524 130 C 142.087 130, 142.646 131.410, 143.546 137.622 C 144.347 143.155, 145.464 145, 148.014 145 C 150.470 145, 150.923 142.240, 150.559 129.500 C 150.260 119.055, 151.632 106.719, 153.950 99.007 C 155.424 94.103, 155.256 90.035, 153.553 89.382 C 151.638 88.647, 147.356 91.863, 146.072 95 C 144.744 98.247, 143.017 109.342, 143.008 114.693 C 143.002 117.888, 142.471 119.257, 140.777 120.443 C 138.175 122.266, 136 122.467, 136 120.884 C 136 120.271, 133.952 116.689, 131.450 112.924 L 126.899 106.079 130.296 99.790 C 133.483 93.887, 137.772 86.939, 144.293 77.113 C 145.829 74.798, 147.706 72.666, 148.465 72.375 C 150.222 71.701, 151.104 69.434, 150.362 67.500 C 149.634 65.603, 144.366 65.572, 141 67.443 M 221.655 68.829 C 219.925 70.740, 219.467 75.613, 220.817 77.739 C 221.308 78.511, 223.211 78.841, 225.872 78.615 C 228.220 78.416, 233.821 78.892, 238.319 79.673 C 247.765 81.312, 251 80.866, 251 77.926 C 251 75.270, 242.223 71.162, 234.095 70.013 C 230.857 69.556, 227.290 68.690, 226.169 68.091 C 223.547 66.687, 223.601 66.679, 221.655 68.829 M 240.500 97.142 C 234.628 99.041, 224.378 100.271, 216.194 100.059 C 205.361 99.778, 203 101.120, 203 107.554 C 203 112.715, 204.569 113.962, 208.169 111.664 C 210.330 110.284, 217.265 108.921, 229.500 107.470 C 232.250 107.144, 234.928 106.455, 235.450 105.939 C 235.972 105.422, 237.945 105, 239.834 105 C 241.723 105, 245.008 104.479, 247.134 103.842 C 250.393 102.865, 251 102.255, 251 99.958 C 251 96.154, 246.930 95.063, 240.500 97.142 M 30.658 100.995 C 27.554 104.684, 26.635 107.409, 27.429 110.572 C 27.949 112.646, 28.632 113, 32.118 113 C 34.362 113, 37.616 113.630, 39.349 114.401 C 42.390 115.752, 43.781 116.187, 50.714 117.954 C 54.778 118.990, 57.322 117.326, 56.845 113.944 C 56.587 112.117, 55.743 111.374, 53.500 111 C 50.553 110.509, 43.765 106.176, 37.441 100.750 C 35.678 99.237, 33.998 98, 33.707 98 C 33.416 98, 32.044 99.348, 30.658 100.995 M 118.975 117.565 C 117.606 121.167, 117.680 121.297, 120.664 120.548 C 122.812 120.009, 123.751 120.408, 125.504 122.608 C 127.124 124.639, 128.168 125.143, 129.590 124.580 C 131.277 123.912, 130.919 123.308, 126.527 119.412 C 123.792 116.985, 121.194 115, 120.753 115 C 120.311 115, 119.512 116.154, 118.975 117.565 M 29.500 151.882 C 24.258 152.962, 21 155.849, 21 159.415 C 21 165.004, 24.163 166.444, 28.951 163.035 C 32.124 160.775, 36.604 159.917, 46.500 159.673 C 52.912 159.515, 53.527 159.313, 53.816 157.276 C 54.366 153.409, 48.908 150.983, 40 151.135 C 35.875 151.206, 31.150 151.542, 29.500 151.882 M 53.042 208.449 C 52.334 209.302, 51.161 210, 50.434 210 C 49.708 210, 48.525 210.830, 47.807 211.843 C 47.088 212.857, 44.824 214.478, 42.775 215.446 C 40.726 216.413, 37.057 218.959, 34.621 221.102 C 32.186 223.246, 29.769 225, 29.252 225 C 28.734 225, 27.536 225.855, 26.590 226.901 C 25.643 227.947, 23.337 229.089, 21.464 229.441 C 16.265 230.416, 12 234.491, 12 238.482 C 12 240.505, 12.585 242.011, 13.509 242.365 C 15.544 243.146, 19.949 241.382, 23 238.563 C 24.375 237.293, 26.648 235.634, 28.051 234.877 C 33.891 231.725, 36.996 229.377, 38.132 227.253 C 38.795 226.014, 40.058 225, 40.937 225 C 41.817 225, 44.571 223.313, 47.058 221.250 C 49.544 219.188, 52.391 216.825, 53.385 216 C 58.272 211.941, 60.112 209.835, 59.747 208.722 C 59.141 206.876, 54.504 206.687, 53.042 208.449" stroke="none" fill="black" fill-rule="evenodd"/>
</svg>