<svg xmlns="http://www.w3.org/2000/svg" width="300" height="300" viewBox="0 0 300 300" version="1.1">
	<path d="M 206.583 19.866 C 206.250 20.405, 204.647 21.138, 203.022 21.495 C 201.220 21.891, 198.981 23.620, 197.283 25.926 C 192.915 31.862, 181.863 44, 180.827 44 C 180.312 44, 177.327 45.727, 174.195 47.837 C 171.063 49.948, 165.238 53.568, 161.250 55.882 L 154 60.088 154 64.929 C 154 67.592, 154.640 71.960, 155.422 74.635 C 156.917 79.749, 158.429 88.820, 160.151 103 C 161.786 116.471, 164.962 131.771, 166.779 134.938 C 168.364 137.700, 168.349 137.956, 166.488 140.014 C 164.575 142.127, 164.573 142.214, 166.401 143.552 C 167.679 144.485, 168.833 144.624, 170.024 143.987 C 170.985 143.473, 173.298 143.110, 175.164 143.180 C 177.030 143.250, 179.566 142.767, 180.799 142.108 C 182.032 141.448, 186.519 140.036, 190.770 138.970 C 195.022 137.904, 201.425 135.927, 205 134.577 C 208.575 133.227, 212.738 131.862, 214.250 131.542 C 217.703 130.813, 217.833 128.247, 214.459 127.400 C 211.543 126.668, 204.926 128.220, 183.812 134.586 C 178.647 136.144, 174.376 136.417, 173.646 135.236 C 173.192 134.502, 169.856 116.094, 169.616 113 C 169.547 112.108, 170.513 111.376, 172 111.192 C 173.375 111.023, 175.918 110.235, 177.651 109.442 C 179.384 108.649, 181.882 108, 183.201 108 C 184.521 108, 186.028 107.576, 186.550 107.058 C 187.073 106.539, 191.775 105.678, 197 105.144 C 206.447 104.177, 216.077 101.269, 216.776 99.172 C 217.352 97.444, 212.614 96.736, 208.366 97.915 C 206.240 98.506, 202.247 98.991, 199.493 98.994 C 196.740 98.997, 192.915 99.466, 190.993 100.035 C 189.072 100.605, 185.700 101.103, 183.500 101.143 C 178.455 101.234, 173.392 103.296, 171.011 106.230 L 169.169 108.500 168.640 106 C 168.349 104.625, 167.898 101.250, 167.637 98.500 C 167.377 95.750, 166.895 92.375, 166.567 91 C 164.046 80.443, 163.113 63.487, 164.953 61.647 C 165.436 61.164, 166.732 60.258, 167.833 59.634 C 168.934 59.010, 173.134 56.250, 177.166 53.500 C 181.199 50.750, 186.127 47.600, 188.117 46.500 C 194.171 43.155, 209.365 28.393, 208.656 26.545 C 208.236 25.453, 208.845 24.572, 210.559 23.791 C 211.988 23.140, 212.949 21.964, 212.780 21.072 C 212.446 19.307, 207.521 18.348, 206.583 19.866 M 94.325 58.596 C 93.988 59.474, 93.977 65.436, 94.300 71.846 C 94.941 84.558, 94.027 97.414, 91.057 117.500 C 89.999 124.650, 88.610 134.054, 87.970 138.398 C 87.330 142.742, 86.190 148.044, 85.436 150.180 C 84.683 152.317, 83.556 157.988, 82.933 162.782 C 81.677 172.443, 79.266 182.183, 74.956 195 C 73.384 199.675, 71.792 205.300, 71.418 207.500 C 71.045 209.700, 70.388 211.950, 69.959 212.500 C 69.530 213.050, 68.893 215.300, 68.543 217.500 C 68.192 219.700, 67.088 223.300, 66.089 225.500 C 61.854 234.819, 61.122 236.742, 60.037 241.401 C 59.409 244.097, 58.244 247.562, 57.448 249.101 C 55.300 253.255, 55.530 259.644, 57.850 260.251 C 61.339 261.163, 66.995 254.390, 67.007 249.285 C 67.010 247.753, 67.907 245.150, 69 243.500 C 70.093 241.850, 70.990 239.860, 70.993 239.078 C 71.001 237.508, 75.780 225.086, 76.987 223.500 C 77.405 222.950, 78.055 220.373, 78.432 217.773 C 78.808 215.174, 79.488 212.817, 79.942 212.536 C 80.397 212.255, 81.085 209.882, 81.471 207.262 C 81.857 204.643, 82.755 201.150, 83.467 199.500 C 86.014 193.597, 89.047 182.750, 90.126 175.686 C 90.729 171.734, 91.613 167.488, 92.090 166.250 C 93.118 163.583, 94.999 163.260, 95.003 165.750 C 95.008 168.501, 106.542 203.097, 109.806 210.149 C 111.423 213.642, 113.343 218.300, 114.073 220.500 C 115.334 224.301, 119.020 230.338, 121.399 232.500 C 122.005 233.050, 123.554 235.750, 124.843 238.500 C 127.826 244.867, 135.055 255.847, 138.132 258.683 C 141.954 262.207, 146.038 263.390, 147.912 261.516 C 149.334 260.095, 149.181 259.652, 146.253 256.725 C 140.911 251.384, 138.438 247.858, 134.654 240.187 C 132.670 236.165, 130.136 231.717, 129.023 230.302 C 127.910 228.888, 127 227.278, 127 226.726 C 127 226.173, 125.708 223.622, 124.129 221.056 C 122.550 218.490, 120.939 215.290, 120.549 213.945 C 120.159 212.600, 118.247 207.533, 116.300 202.685 C 114.353 197.836, 112.396 192.436, 111.952 190.685 C 111.508 188.933, 109.449 183, 107.376 177.500 C 104.584 170.093, 103.506 165.555, 103.217 160 C 102.751 151.047, 101.750 149.278, 98.394 151.477 C 97.116 152.315, 95.830 153, 95.535 153 C 94.643 153, 94.937 148.467, 95.895 147.450 C 96.826 146.463, 99.783 126.411, 101.050 112.500 C 101.451 108.100, 102.315 100.900, 102.969 96.500 C 104.613 85.457, 102.968 68.839, 99.604 62.500 C 98.729 60.850, 98.010 58.938, 98.006 58.250 C 97.997 56.437, 95.047 56.714, 94.325 58.596 M 205.342 58.058 C 204.761 58.639, 201.633 59.385, 198.392 59.716 C 194.087 60.155, 189.942 61.633, 183 65.205 C 171.656 71.043, 169.049 73.267, 170.621 75.764 C 172.332 78.480, 174.795 78.394, 178.609 75.485 C 180.541 74.011, 183.756 72.354, 185.753 71.802 C 187.751 71.251, 190.569 69.532, 192.017 67.982 C 193.695 66.186, 195.113 65.452, 195.929 65.956 C 197.149 66.710, 200.978 65.835, 205.655 63.733 C 206.840 63.200, 208.293 63.063, 208.884 63.428 C 209.475 63.794, 210.871 63.604, 211.985 63.008 C 213.461 62.218, 215.165 62.250, 218.256 63.125 C 223.681 64.661, 225.730 66.416, 224.222 68.233 C 223.460 69.151, 223.407 70.866, 224.054 73.743 C 225.152 78.631, 223.810 93.130, 221.609 100.159 C 220.807 102.721, 220.375 105.042, 220.649 105.316 C 220.923 105.590, 220.489 107.093, 219.685 108.657 C 218.881 110.221, 218.060 114.200, 217.861 117.500 C 217.534 122.931, 217.687 123.500, 219.476 123.500 C 220.811 123.500, 221.735 122.526, 222.326 120.500 C 222.806 118.850, 224.301 115.371, 225.647 112.769 C 231.900 100.681, 234.294 86.095, 232.005 74.028 C 230.771 67.521, 225.237 59.627, 220.833 58.092 C 216.832 56.697, 206.725 56.675, 205.342 58.058 M 161.710 88 C 161.998 89.100, 162.406 90, 162.617 90 C 162.827 90, 163 89.100, 163 88 C 163 86.900, 162.592 86, 162.094 86 C 161.595 86, 161.423 86.900, 161.710 88 M 131.426 89.765 C 130.389 90.475, 128.796 95.727, 127.411 103 C 127.044 104.925, 126.127 107.388, 125.372 108.473 C 124.618 109.557, 123.997 111.132, 123.994 111.973 C 123.990 112.813, 123.374 114.625, 122.625 116 C 115.604 128.877, 111.474 135.850, 109.772 137.699 C 107.481 140.187, 108.009 143, 110.766 143 C 113 143, 118.418 137.380, 123.300 130 C 125.300 126.975, 127.841 123.375, 128.946 122 C 130.051 120.625, 130.981 118.825, 131.012 118 C 131.043 117.175, 131.937 114.700, 133 112.500 C 134.063 110.300, 134.953 107.150, 134.978 105.500 C 135.003 103.850, 135.676 100.050, 136.473 97.055 C 137.522 93.111, 137.623 91.251, 136.838 90.305 C 135.649 88.872, 133.103 88.618, 131.426 89.765 M 57.200 92.200 C 55.557 93.843, 55.695 98.978, 57.535 104.715 C 64.697 127.044, 65.964 129.789, 71.821 135.667 C 75.275 139.133, 77.781 139.819, 79.758 137.842 C 80.636 136.964, 80.261 135.813, 78.208 133.092 C 73.209 126.462, 70.063 118.724, 66.028 103.128 C 65.548 101.273, 64.670 99.270, 64.078 98.678 C 63.485 98.085, 63 96.860, 63 95.955 C 63 94.490, 60.092 91, 58.871 91 C 58.612 91, 57.860 91.540, 57.200 92.200 M 212.865 154.469 C 212.557 154.776, 206.275 155.715, 198.903 156.555 C 191.531 157.396, 184.150 158.700, 182.500 159.455 C 180.850 160.210, 177.250 161.149, 174.500 161.543 C 171.750 161.937, 168.285 162.876, 166.800 163.630 C 165.314 164.383, 162.727 165, 161.050 165 C 159.261 165, 157.110 165.890, 155.848 167.152 C 153.874 169.126, 153.833 169.405, 155.354 170.517 C 156.440 171.311, 158.378 171.479, 160.970 171.006 C 163.571 170.530, 165.067 170.662, 165.335 171.391 C 165.624 172.176, 166.291 172.134, 167.621 171.244 C 170.231 169.499, 170.696 169.345, 177.774 167.877 C 182.308 166.937, 184.463 165.943, 185.547 164.288 C 187.070 161.964, 190.397 161.216, 191.473 162.956 C 191.798 163.482, 192.636 163.693, 193.335 163.425 C 194.728 162.891, 202 165.626, 202 166.685 C 202 167.046, 201.222 168.202, 200.271 169.254 C 199.022 170.634, 198.397 173.572, 198.021 179.832 L 197.500 188.499 193.933 189.664 C 191.971 190.304, 188.314 191.054, 185.804 191.330 C 183.295 191.606, 180.305 192.417, 179.159 193.133 C 177.599 194.107, 176.125 194.180, 173.288 193.424 C 167.336 191.838, 161.086 193.786, 161.015 197.250 C 161.007 197.662, 161.900 198.900, 163 200 C 165.510 202.510, 172.366 202.678, 177.716 200.361 C 185.824 196.850, 195.295 194.446, 196.962 195.476 C 198.375 196.350, 198.187 219.379, 196.685 229.417 C 195.523 237.183, 195.433 237.358, 192 238.591 C 190.075 239.282, 186.839 239.882, 184.809 239.924 C 182.779 239.966, 180.840 240.450, 180.500 241 C 180.160 241.550, 178.613 242, 177.063 242 C 173.930 242, 167.473 244.425, 166.526 245.957 C 166.191 246.500, 164.022 247.486, 161.708 248.148 C 156.303 249.692, 155.095 250.648, 155.687 252.909 C 156.010 254.148, 155.163 255.460, 153.083 256.941 C 151.387 258.148, 150 259.556, 150 260.068 C 150 261.174, 153.685 261.335, 154.167 260.250 C 154.841 258.733, 160.866 256.011, 162.317 256.568 C 164.567 257.432, 172 252.362, 172 249.963 C 172 248.723, 172.985 247.576, 174.565 246.975 C 177.795 245.747, 179.285 245.731, 178.543 246.931 C 177.397 248.784, 179.622 248.793, 183.519 246.950 C 185.708 245.915, 188.700 245.053, 190.167 245.034 C 191.633 245.015, 193.005 244.485, 193.215 243.856 C 193.497 243.008, 194.574 243.034, 197.374 243.959 C 200.834 245.100, 201.353 245.017, 203.528 242.974 C 204.950 241.637, 206.673 240.943, 207.819 241.242 C 208.873 241.518, 212.157 241.337, 215.117 240.840 C 218.078 240.343, 224.550 239.774, 229.500 239.574 C 238.663 239.206, 241.934 238.490, 243.219 236.573 C 243.722 235.823, 244.549 235.878, 245.964 236.755 C 247.421 237.658, 249.186 237.754, 252.245 237.099 C 254.585 236.597, 258.750 235.915, 261.500 235.582 C 264.250 235.249, 268.300 234.554, 270.500 234.037 C 272.700 233.521, 274.613 233.076, 274.750 233.049 C 274.887 233.022, 277.475 233, 280.500 233 C 283.525 233, 286 232.622, 286 232.160 C 286 229.001, 267.288 228.198, 253.500 230.767 C 244.708 232.404, 224.606 234.960, 216.160 235.513 C 212.122 235.777, 208.501 236.190, 208.112 236.431 C 207.723 236.671, 206.848 236.524, 206.168 236.104 C 205.201 235.506, 205.135 230.884, 205.868 214.920 C 206.383 203.689, 207.085 193.825, 207.427 193 C 208.011 191.593, 214.142 189.066, 221.896 187.034 C 225.564 186.073, 227.455 184.055, 226.026 182.626 C 224.681 181.281, 217.804 180.917, 216.361 182.115 C 215.664 182.694, 213.047 183.783, 210.546 184.536 L 206 185.904 206 178.175 C 206 172.669, 205.534 169.780, 204.380 168.133 C 203.136 166.356, 203.002 165.291, 203.802 163.535 C 204.723 161.513, 205.811 161.169, 213.232 160.551 C 222.641 159.767, 224.355 159.093, 223.839 156.380 C 223.555 154.887, 222.446 154.439, 218.452 154.205 C 215.686 154.043, 213.172 154.162, 212.865 154.469 M 85.682 163.652 C 84.736 164.598, 84.856 168.224, 85.887 169.851 C 86.495 170.811, 86.874 170.310, 87.195 168.125 C 87.668 164.904, 86.849 162.484, 85.682 163.652 M 172 167 C 172 167.550, 172.477 168, 173.059 168 C 173.641 168, 173.840 167.550, 173.500 167 C 173.160 166.450, 172.684 166, 172.441 166 C 172.198 166, 172 166.450, 172 167" stroke="none" fill="black" fill-rule="evenodd"/>
</svg>