<svg xmlns="http://www.w3.org/2000/svg" width="300" height="300" viewBox="0 0 300 300" version="1.1">
	<path d="M 183.822 18.732 L 179.143 19.104 178.072 24.101 C 177.482 26.850, 177 31.496, 177 34.427 C 177 40.791, 175.501 42.515, 170.759 41.604 C 163.966 40.299, 152.365 38.773, 149 38.742 C 140.318 38.663, 137.121 43.495, 142.986 47.832 C 145.662 49.810, 147.270 50.053, 158.493 50.176 C 172.678 50.331, 173.828 50.840, 172.104 56.202 C 171.521 58.016, 170.341 62.526, 169.482 66.224 C 168.060 72.343, 166.480 77.037, 164.004 82.500 C 163.505 83.600, 161.892 87.987, 160.419 92.250 C 158.548 97.664, 157.252 99.992, 156.120 99.974 C 155.229 99.960, 151.800 96.767, 148.500 92.880 C 145.200 88.992, 142.025 85.291, 141.444 84.656 C 140.863 84.020, 139.513 81.932, 138.444 80.015 C 136.248 76.078, 131.622 71, 130.232 71 C 129.725 71, 128.464 71.934, 127.431 73.077 C 125.636 75.060, 125.629 75.288, 127.276 78.158 C 128.224 79.810, 129 81.608, 129 82.152 C 129 82.697, 129.563 83.707, 130.250 84.395 C 130.938 85.084, 132.625 87.101, 134 88.876 C 137.674 93.621, 140.156 96.237, 143.322 98.703 C 144.874 99.912, 147.687 102.922, 149.572 105.391 C 153.288 110.258, 153.949 114.362, 151.532 117.559 C 150.724 118.626, 150.049 120.315, 150.032 121.312 C 150.014 122.308, 148.903 125.458, 147.563 128.312 C 146.223 131.165, 144.814 136.323, 144.432 139.772 C 144.049 143.222, 143.346 146.286, 142.868 146.581 C 142.391 146.877, 142 148.190, 142 149.500 C 142 150.810, 141.550 152.160, 141 152.500 C 140.450 152.840, 140 154.891, 140 157.059 C 140 160.197, 140.369 161, 141.812 161 C 145.540 161, 149.195 153.893, 152.099 141 C 152.657 138.525, 154.158 134.250, 155.435 131.500 C 160.246 121.142, 161 119.131, 161 116.658 C 161 115.261, 161.450 113.840, 162 113.500 C 162.550 113.160, 163.014 111.896, 163.032 110.691 C 163.049 109.486, 163.724 107.626, 164.532 106.559 C 165.339 105.491, 166 103.579, 166 102.309 C 166 101.039, 166.344 100, 166.765 100 C 167.654 100, 171 91.004, 171 88.616 C 171 87.727, 171.430 87, 171.955 87 C 172.480 87, 173.206 85.420, 173.568 83.489 C 173.930 81.558, 174.626 79.731, 175.113 79.430 C 175.601 79.129, 176 77.784, 176 76.441 C 176 75.063, 176.586 74, 177.345 74 C 178.906 74, 182 77.153, 182 78.744 C 182 80.011, 184.177 82.661, 192.747 91.822 C 196.183 95.495, 198.996 98.760, 198.997 99.077 C 198.999 99.394, 201.025 101.859, 203.500 104.555 C 205.975 107.251, 208 109.728, 208 110.059 C 208 110.391, 209.125 111.264, 210.500 112 C 211.875 112.736, 213 113.937, 213 114.669 C 213 115.401, 213.675 116, 214.500 116 C 215.325 116, 216 116.348, 216 116.773 C 216 117.198, 217.688 118.415, 219.750 119.477 C 224.986 122.175, 233.896 129.247, 233.953 130.750 C 233.979 131.438, 234.675 132, 235.500 132 C 236.325 132, 237 132.420, 237 132.933 C 237 133.446, 238.007 134.185, 239.237 134.575 C 241.687 135.353, 248.659 139.696, 250.937 141.864 C 254.016 144.793, 261.546 147.133, 268.485 147.315 C 275.446 147.499, 275.502 147.479, 275.816 144.750 C 276.042 142.786, 275.685 142, 274.566 142 C 273.705 142, 273 141.570, 273 141.045 C 273 140.520, 271.313 139.775, 269.250 139.388 C 264.405 138.481, 256.803 135.027, 255 132.914 C 254.725 132.592, 252.025 130.753, 249 128.829 C 245.975 126.904, 241.609 123.568, 239.298 121.415 C 236.987 119.262, 234.175 116.717, 233.048 115.760 C 230.634 113.709, 230.431 111.135, 232.468 108.441 C 233.276 107.374, 233.951 105.915, 233.968 105.200 C 234.003 103.782, 240.219 97, 241.485 97 C 241.915 97, 243.248 95.859, 244.447 94.463 C 245.646 93.068, 247.914 91.583, 249.487 91.162 C 252.884 90.254, 254.578 87.949, 253.643 85.511 C 253.107 84.115, 252.191 83.862, 249.233 84.289 C 247.180 84.585, 244.600 84.473, 243.500 84.040 C 239.199 82.344, 233.334 88.649, 231.517 96.921 C 231.148 98.602, 230.431 100.234, 229.923 100.548 C 229.415 100.861, 229 102.007, 229 103.094 C 229 105.365, 226.216 110, 224.852 110 C 223.799 110, 208.823 95.158, 204.848 90.176 C 203.390 88.348, 199.903 84.448, 197.098 81.510 C 194.294 78.572, 192 75.680, 192 75.084 C 192 74.488, 191.550 74, 191 74 C 190.450 74, 190 73.169, 190 72.153 C 190 68.856, 186.581 66, 182.633 66 C 180.070 66, 179 65.558, 179 64.500 C 179 63.675, 179.414 63, 179.921 63 C 180.427 63, 181.136 61.655, 181.497 60.011 C 181.858 58.368, 182.569 56.766, 183.077 56.452 C 183.585 56.139, 184 55.201, 184 54.370 C 184 51.998, 186.414 50.092, 188.172 51.076 C 189.015 51.548, 194.609 52.653, 200.602 53.531 C 206.596 54.410, 212.694 55.774, 214.154 56.564 C 217.816 58.545, 220.293 58.361, 221.768 56 C 222.745 54.435, 222.756 53.582, 221.815 52.075 C 219.931 49.058, 213.024 45.658, 207 44.781 C 197.012 43.327, 188.175 41.509, 187.419 40.752 C 186.451 39.784, 189.925 29.201, 192.224 26.115 C 193.201 24.803, 194 23.186, 194 22.520 C 194 21.053, 190.705 17.929, 189.421 18.180 C 188.915 18.279, 186.395 18.528, 183.822 18.732 M 197 47 C 197 47.550, 197.675 48, 198.500 48 C 199.325 48, 200 47.550, 200 47 C 200 46.450, 199.325 46, 198.500 46 C 197.675 46, 197 46.450, 197 47 M 203.813 49.683 C 204.534 49.972, 205.397 49.936, 205.729 49.604 C 206.061 49.272, 205.471 49.036, 204.417 49.079 C 203.252 49.127, 203.015 49.364, 203.813 49.683 M 60.855 58.250 C 60.775 58.388, 60.360 65.250, 59.933 73.500 C 58.905 93.384, 57.323 112.108, 56.047 119.500 C 55.478 122.800, 55.009 129.411, 55.006 134.191 C 55.003 138.971, 54.550 143.160, 54 143.500 C 52.761 144.266, 52.660 158, 53.893 158 C 54.384 158, 55.045 157.325, 55.362 156.500 C 56.276 154.118, 58 154.759, 58 157.481 C 58 159.293, 57.326 160.131, 55.500 160.589 C 53.430 161.109, 53 161.818, 53 164.714 C 53 168.224, 50.396 179.602, 49.160 181.491 C 48.797 182.046, 47.965 186.775, 47.312 192 C 45.719 204.744, 45.086 207.934, 43.416 211.651 C 42.637 213.384, 42 216.145, 42 217.787 C 42 219.428, 41.328 222.060, 40.506 223.636 C 38.535 227.416, 38.531 232, 40.500 232 C 41.433 232, 42 232.944, 42 234.500 C 42 237.111, 39.579 238.016, 38.659 235.750 C 37.774 233.569, 36.032 237.154, 36.015 241.191 C 36.007 243.221, 35.550 245.160, 35 245.500 C 34.450 245.840, 34 248.765, 34 252 C 34 255.235, 33.550 258.160, 33 258.500 C 29.931 260.397, 33.573 268, 37.550 268 C 39.261 268, 39.876 267.048, 40.828 262.924 C 41.473 260.132, 42 256.322, 42 254.458 C 42 252.593, 42.621 249.590, 43.380 247.784 C 45.543 242.636, 47 237.558, 47 235.164 C 47 231.408, 52.702 210.348, 54.205 208.550 C 54.642 208.027, 55 205.890, 55 203.800 C 55 200.407, 55.269 200, 57.516 200 C 59.447 200, 60.435 200.870, 61.766 203.743 C 62.720 205.801, 64.513 208.440, 65.750 209.607 C 66.987 210.774, 68 212.185, 68 212.742 C 68 213.299, 68.744 214.372, 69.652 215.126 C 70.561 215.881, 72.977 218.748, 75.020 221.499 C 77.064 224.249, 81.709 229.650, 85.343 233.500 C 88.977 237.350, 91.961 240.838, 91.975 241.250 C 91.989 241.662, 92.479 242, 93.065 242 C 93.650 242, 95.279 243.366, 96.684 245.036 C 98.089 246.706, 100.422 248.704, 101.869 249.476 C 103.316 250.249, 106.269 252.482, 108.432 254.440 C 110.594 256.398, 112.776 258, 113.281 258 C 113.785 258, 115.725 258.725, 117.591 259.610 C 121.379 261.408, 124 260.912, 124 258.399 C 124 256.634, 122.297 254.895, 108.927 243.007 C 95.458 231.030, 87 221.936, 87 219.431 C 87 219.045, 85.936 217.743, 84.635 216.537 C 83.334 215.332, 79.660 210.780, 76.471 206.423 C 73.282 202.065, 69.907 197.752, 68.972 196.837 C 65.588 193.529, 62.791 187.969, 63.363 185.689 C 64.135 182.615, 63.065 179, 61.383 179 C 59.625 179, 59.652 176.883, 61.500 170 C 62.366 166.772, 62.981 160.032, 62.988 153.684 C 62.995 147.736, 63.470 141.991, 64.044 140.918 C 64.618 139.845, 65.544 133.012, 66.101 125.733 C 68.565 93.556, 68.951 89.059, 69.894 81.500 C 70.443 77.100, 70.916 70.013, 70.946 65.750 L 71 58 66 58 C 63.250 58, 60.935 58.112, 60.855 58.250 M 60.079 98.583 C 60.127 99.748, 60.364 99.985, 60.683 99.188 C 60.972 98.466, 60.936 97.603, 60.604 97.271 C 60.272 96.939, 60.036 97.529, 60.079 98.583 M 20.211 99.600 C 14.996 101.879, 14.992 102.740, 20.147 113.236 C 20.616 114.191, 21 116.285, 21 117.888 C 21 121.146, 28.819 141.313, 32.480 147.500 C 37.376 155.772, 44.478 160.122, 47.749 156.851 C 49.172 155.428, 47.206 151.231, 44.085 149.029 C 42.938 148.220, 42 147.189, 42 146.738 C 42 146.286, 40.608 142.939, 38.906 139.300 C 35.567 132.157, 29 112.909, 29 110.264 C 29 109.372, 29.552 107.114, 30.228 105.247 C 31.366 102.099, 31.275 101.713, 28.978 99.948 C 26.071 97.715, 24.654 97.659, 20.211 99.600 M 101.200 110.200 C 100.540 110.860, 100 112.738, 100 114.374 C 100 116.009, 98.239 120.982, 96.087 125.424 C 93.935 129.866, 91.375 136.650, 90.398 140.500 C 89.422 144.350, 88.317 147.725, 87.944 148 C 87.027 148.676, 84 159.300, 84 161.845 C 84 162.965, 84.470 164.172, 85.044 164.527 C 86.405 165.369, 89 163.191, 89 161.206 C 89 160.354, 89.590 158.947, 90.310 158.079 C 91.031 157.210, 92.404 153.912, 93.361 150.750 C 94.319 147.588, 95.529 145, 96.051 145 C 96.573 145, 97 143.861, 97 142.469 C 97 141.076, 97.675 139.678, 98.500 139.362 C 99.325 139.045, 100 138.226, 100 137.542 C 100 136.858, 101.021 134.318, 102.270 131.899 C 105.778 125.100, 107 120.807, 107 115.286 C 107 111.583, 106.573 110.050, 105.418 109.607 C 103.186 108.750, 102.562 108.838, 101.200 110.200 M 215.500 111 C 215.840 111.550, 216.316 112, 216.559 112 C 216.802 112, 217 111.550, 217 111 C 217 110.450, 216.523 110, 215.941 110 C 215.359 110, 215.160 110.450, 215.500 111 M 58 114.500 C 58 115.325, 58.627 116, 59.393 116 C 60.159 116, 61.045 115.325, 61.362 114.500 C 61.753 113.480, 61.308 113, 59.969 113 C 58.885 113, 58 113.675, 58 114.500 M 223.015 115.750 C 223.044 117.165, 224.503 118.542, 227.250 119.749 C 230.370 121.120, 230.694 120.435, 228.443 117.223 C 226.995 115.155, 222.981 114.066, 223.015 115.750 M 235 127.500 C 235 128.325, 235.675 129, 236.500 129 C 237.325 129, 238 128.325, 238 127.500 C 238 126.675, 237.325 126, 236.500 126 C 235.675 126, 235 126.675, 235 127.500 M 171.884 129.306 C 164.974 135.100, 165.222 134.972, 163.934 133.421 C 163.019 132.317, 162.408 132.246, 161.355 133.120 C 160.317 133.981, 160.254 134.602, 161.101 135.622 C 161.720 136.368, 162.567 136.768, 162.983 136.510 C 163.399 136.253, 163.760 138.396, 163.784 141.271 C 163.809 144.147, 163.605 145.938, 163.331 145.250 C 163.057 144.563, 162.131 144, 161.272 144 C 159.895 144, 159.795 145.739, 160.426 158.717 C 160.820 166.811, 161.506 175.383, 161.951 177.766 C 162.860 182.634, 162.122 183.879, 157.085 185.965 C 154.005 187.240, 153.378 188.501, 154.765 190.624 C 155.698 192.051, 159.171 192.770, 170.835 193.951 C 175.969 194.471, 180.806 195.424, 181.584 196.070 C 182.669 196.970, 183.705 196.951, 186.038 195.984 C 191.745 193.620, 192.488 197.014, 193.484 230 C 194.857 275.501, 194.698 274.411, 199.879 273.801 C 203.130 273.417, 204.021 269.825, 203.922 257.500 C 203.688 228.274, 204.651 198.949, 205.886 197.714 C 207.322 196.278, 225.291 196.880, 230.788 198.549 C 233.380 199.335, 235.838 199.983, 236.250 199.989 C 237.944 200.014, 236.814 194.357, 234.733 192.400 C 232.559 190.355, 229.518 189.793, 214 188.573 C 188.188 186.542, 175.581 184.577, 172.645 182.128 C 170.354 180.216, 170.231 164.509, 172.500 163.638 C 174.693 162.797, 174.331 158.607, 171.875 156.405 C 169.900 154.635, 169.793 153.834, 170.360 145.065 C 170.696 139.875, 171.415 135.185, 171.958 134.642 C 172.608 133.992, 173.846 134.065, 175.580 134.855 C 177.029 135.515, 181.204 136.317, 184.858 136.638 C 188.666 136.972, 193.674 138.240, 196.596 139.610 C 199.855 141.138, 203.508 142, 206.724 142 C 209.976 142, 212.195 142.530, 213 143.500 C 213.685 144.325, 215.283 145, 216.551 145 C 219.558 145, 221.690 147.219, 222.902 151.608 C 224.712 158.162, 224.357 158.314, 209.112 157.497 C 201.639 157.097, 194.424 156.351, 193.078 155.840 C 191.471 155.228, 189.698 155.297, 187.907 156.039 C 185.936 156.855, 184.621 156.867, 183.156 156.084 C 182.043 155.488, 180.724 155, 180.226 155 C 178.965 155, 176.696 159.990, 176.589 163 C 176.501 165.484, 176.559 165.501, 186 165.695 C 200.108 165.984, 203.580 166.013, 213.897 165.931 C 220.323 165.880, 223.533 166.245, 224.053 167.086 C 224.471 167.763, 225.390 171.868, 226.095 176.210 C 227.062 182.160, 227.980 184.707, 229.825 186.552 C 232.397 189.124, 234 189.680, 234 188 C 234 187.450, 234.660 187, 235.467 187 C 236.711 187, 236.851 184.980, 236.385 173.750 C 236.082 166.463, 235.422 159.195, 234.917 157.601 C 234.413 156.006, 234 153.321, 234 151.634 C 234 149.947, 233.287 146.700, 232.416 144.419 C 230.708 139.947, 226.957 137.519, 218 135.086 C 215.525 134.414, 212.126 133.448, 210.448 132.939 C 208.769 132.430, 205.394 131.603, 202.948 131.101 C 200.501 130.599, 196.025 129.509, 193 128.678 C 189.975 127.847, 184.575 127.155, 181 127.140 C 175.745 127.118, 173.999 127.533, 171.884 129.306 M 213 139 C 213 139.550, 213.477 140, 214.059 140 C 214.641 140, 214.840 139.550, 214.500 139 C 214.160 138.450, 213.684 138, 213.441 138 C 213.198 138, 213 138.450, 213 139 M 162.745 152.250 C 162.488 152.938, 162.633 154.400, 163.068 155.500 C 163.713 157.129, 163.872 156.897, 163.930 154.250 C 164.003 150.870, 163.550 150.105, 162.745 152.250 M 185.638 159.500 C 185.978 160.385, 187.479 161, 189.298 161 C 192.225 161, 192.283 160.925, 190.441 159.532 C 187.837 157.562, 184.887 157.542, 185.638 159.500 M 186.500 191 C 186.160 191.550, 186.610 192, 187.500 192 C 188.390 192, 188.840 191.550, 188.500 191 C 188.160 190.450, 187.710 190, 187.500 190 C 187.290 190, 186.840 190.450, 186.500 191 M 61 199 C 61 199.550, 61.450 200, 62 200 C 62.550 200, 63 200.469, 63 201.042 C 63 201.615, 63.455 202.628, 64.011 203.292 C 64.567 203.956, 65.950 205.738, 67.083 207.250 C 69.509 210.485, 71 210.782, 71 208.030 C 71 206.946, 69.655 205.065, 68.010 203.849 C 66.366 202.634, 64.760 200.820, 64.443 199.819 C 63.842 197.926, 61 197.250, 61 199 M 196.805 202.872 C 196.574 204.451, 196.716 206.589, 197.122 207.622 C 197.608 208.859, 197.883 207.879, 197.930 204.750 C 198.008 199.439, 197.447 198.501, 196.805 202.872 M 173.607 211.582 C 173.273 212.452, 173 214.204, 173 215.475 C 173 217.386, 171.360 219, 169.418 219 C 169.188 219, 169 217.487, 169 215.639 C 169 212.582, 168.771 212.321, 166.470 212.761 C 163.526 213.324, 162.477 215.002, 159.177 224.425 C 157.844 228.233, 155.966 232.193, 155.006 233.224 C 154.045 234.255, 152.466 236.989, 151.496 239.300 C 150.526 241.610, 148.030 247.100, 145.949 251.500 C 143.868 255.900, 142.016 260.464, 141.833 261.642 C 141.400 264.430, 144.669 268, 147.655 268 C 149.856 268, 150 267.630, 150 261.956 C 150 256.837, 150.393 255.499, 152.568 253.206 C 153.980 251.718, 156.046 248.749, 157.160 246.609 C 158.273 244.470, 160.043 241.797, 161.092 240.671 C 162.141 239.544, 163 238.210, 163 237.706 C 163 237.202, 164.350 234.790, 166 232.345 C 167.650 229.900, 169 227.644, 169 227.332 C 169 227.020, 170.862 224.905, 173.137 222.632 C 178.767 217.009, 180.289 214.485, 179.516 212.049 C 178.732 209.581, 174.503 209.247, 173.607 211.582 M 80.500 222 C 80.840 222.550, 81.316 223, 81.559 223 C 81.802 223, 82 222.550, 82 222 C 82 221.450, 81.523 221, 80.941 221 C 80.359 221, 80.160 221.450, 80.500 222 M 214.385 228.765 C 213.771 229.169, 212.987 230.407, 212.642 231.516 C 212.180 232.997, 212.609 233.793, 214.257 234.516 C 215.734 235.164, 216.500 236.367, 216.500 238.040 C 216.500 239.725, 217.801 241.746, 220.363 244.040 C 222.488 245.943, 225.940 249.188, 228.035 251.250 C 230.129 253.313, 232.067 255, 232.340 255 C 232.613 255, 234.608 256.590, 236.773 258.534 C 238.939 260.478, 242.238 262.862, 244.105 263.832 C 245.972 264.803, 248.466 266.216, 249.646 266.974 C 251.513 268.172, 252.014 268.128, 253.503 266.640 C 254.957 265.186, 255.032 264.491, 253.999 261.998 C 253.331 260.386, 251.838 258.766, 250.681 258.399 C 249.524 258.031, 246.961 256.104, 244.985 254.115 C 243.010 252.127, 238.508 248.025, 234.980 245 C 227.770 238.818, 224.705 235.824, 220.840 231.189 C 218.188 228.009, 216.497 227.374, 214.385 228.765 M 195.639 240.694 C 194.403 241.930, 195.017 245, 196.500 245 C 197.325 245, 198 244.127, 198 243.059 C 198 240.972, 196.682 239.651, 195.639 240.694" stroke="none" fill="black" fill-rule="evenodd"/>
</svg>