<svg xmlns="http://www.w3.org/2000/svg" width="300" height="300" viewBox="0 0 300 300" version="1.1">
	<path d="M 144.667 12.667 C 144.300 13.033, 144 14.293, 144 15.467 C 144 16.640, 143.503 18.097, 142.895 18.705 C 142.287 19.313, 141.396 25.083, 140.915 31.528 C 140.434 37.973, 139.621 43.753, 139.109 44.373 C 138.596 44.993, 138.025 46.850, 137.838 48.500 C 137.275 53.497, 134.181 52.428, 132.046 46.500 C 131.056 43.750, 128.841 38.867, 127.123 35.648 C 125.405 32.430, 124 28.718, 124 27.398 C 124 25.308, 123.534 25, 120.372 25 L 116.744 25 117.408 29.148 C 117.772 31.429, 119.168 34.599, 120.508 36.192 C 123.011 39.166, 127 47.315, 127 49.453 C 127 50.888, 130.799 54.455, 133.250 55.320 C 134.213 55.659, 135 56.861, 135 57.991 C 135 60.622, 129.479 72.836, 127.095 75.480 C 126.093 76.591, 123.442 80.650, 121.204 84.500 C 118.967 88.350, 116.238 92.625, 115.139 94 C 114.041 95.375, 111.278 98.891, 108.999 101.812 C 105.636 106.123, 104.588 106.903, 103.439 105.950 C 101.666 104.478, 100.698 106.495, 101.175 110.666 C 101.410 112.718, 102.120 113.588, 103.747 113.819 C 106.463 114.205, 115.520 105.392, 117.652 100.292 C 118.408 98.481, 119.747 97, 120.627 97 C 122.703 97, 122.180 99.889, 118.122 110.816 C 116.424 115.390, 114.390 121.015, 113.602 123.316 C 110.446 132.531, 108.066 137, 106.313 137 C 100.698 137, 80.666 123.029, 78.711 117.750 C 77.842 115.404, 76.594 115.545, 73.589 118.330 C 71.260 120.489, 71.186 120.821, 72.594 122.830 C 73.430 124.024, 74.523 125, 75.024 125 C 75.525 125, 78.692 127.656, 82.060 130.901 C 85.429 134.147, 89.156 137.040, 90.343 137.331 C 92.789 137.931, 102.319 141.176, 102.847 141.589 C 103.349 141.981, 98.548 153.517, 95.022 160.391 C 93.360 163.631, 92 166.838, 92 167.518 C 92 168.199, 91.325 169.315, 90.500 170 C 88.507 171.654, 88.584 175.903, 90.621 176.685 C 92.362 177.353, 98.368 171.207, 99.599 167.500 C 99.964 166.400, 101.106 164.301, 102.138 162.836 C 103.169 161.372, 105.740 156.872, 107.850 152.836 C 109.961 148.801, 112.430 144.150, 113.338 142.500 C 114.245 140.850, 114.990 138.715, 114.994 137.756 C 115.001 135.869, 116.539 135.891, 121.315 137.847 C 125.006 139.359, 127.327 139.339, 126.378 137.803 C 125.972 137.145, 127.050 137.611, 128.774 138.839 C 130.606 140.144, 131.688 141.649, 131.377 142.459 C 131.073 143.251, 131.816 144.367, 133.108 145.058 C 134.353 145.724, 139 149.782, 143.436 154.075 C 153.712 164.021, 156.587 166.226, 158.739 165.812 C 160.884 165.399, 161.734 162, 159.692 162 C 158.892 162, 157.095 160.537, 155.699 158.750 C 152.073 154.109, 141.361 143.233, 135.500 138.244 L 130.500 133.987 133.816 131.370 C 135.639 129.930, 138.243 126.992, 139.601 124.840 C 140.960 122.688, 143.641 119.189, 145.560 117.065 C 147.946 114.424, 149.174 111.987, 149.445 109.352 C 149.663 107.233, 150.149 104.716, 150.524 103.758 C 150.972 102.618, 150.650 101.803, 149.591 101.397 C 147.441 100.572, 145.371 102.416, 144.679 105.772 C 144.369 107.273, 142.991 109.850, 141.616 111.500 C 140.240 113.150, 137.150 116.975, 134.748 120 C 129.960 126.029, 124.794 130, 121.739 130 C 119.296 130, 119.619 127.684, 123.557 117 C 125.078 112.875, 126.719 107.475, 127.205 105 C 127.692 102.525, 128.346 99.256, 128.660 97.736 C 128.974 96.216, 128.713 93.722, 128.080 92.193 C 127.162 89.976, 127.242 88.665, 128.478 85.707 C 129.330 83.668, 130.471 82, 131.013 82 C 131.556 82, 132 81.357, 132 80.571 C 132 79.786, 132.592 78.548, 133.317 77.821 C 136.142 74.986, 138.016 71.206, 137.397 69.593 C 137.027 68.628, 137.372 67.388, 138.201 66.702 C 139 66.041, 140.518 62.688, 141.576 59.250 C 143.596 52.687, 144.765 51.838, 147.711 54.796 C 148.695 55.783, 150.625 57.151, 152 57.835 C 157.069 60.357, 159.284 61.859, 162.046 64.647 C 170.036 72.709, 181.195 80.616, 183.004 79.497 C 185.799 77.770, 182.575 72.881, 175.938 68.782 C 174.528 67.912, 170.226 64.342, 166.377 60.850 C 162.529 57.357, 157.229 53.019, 154.602 51.209 C 150.650 48.486, 150.033 47.665, 151.034 46.459 C 151.700 45.656, 152.797 45, 153.472 45 C 155.094 45, 161.526 40.578, 168.017 35 C 170.897 32.525, 174.206 30.255, 175.371 29.956 C 179.598 28.871, 178.073 23, 173.565 23 C 172.360 23, 170.052 24.401, 168.437 26.113 C 166.822 27.826, 163.925 30.303, 162 31.618 C 160.075 32.934, 156.475 35.572, 154 37.481 C 148.404 41.797, 146.545 42.013, 147.370 38.250 C 147.701 36.737, 148.438 30.582, 149.006 24.571 C 149.824 15.928, 149.775 13.474, 148.770 12.837 C 147.212 11.848, 145.554 11.779, 144.667 12.667 M 195.026 94.856 C 192.547 97.506, 188.080 112.395, 188.025 118.191 C 187.988 122.110, 186.236 122.575, 183.720 119.334 C 182.509 117.775, 180.535 115.600, 179.332 114.500 C 175.396 110.900, 175.046 110.533, 172.510 107.356 C 171.129 105.626, 170 103.280, 170 102.141 C 170 99.602, 166.291 97.309, 164.723 98.877 C 163.973 99.627, 164.035 101.198, 164.934 104.220 C 167.205 111.847, 167.846 112.996, 169.483 112.368 C 170.548 111.960, 171.350 112.663, 172.073 114.638 C 172.649 116.212, 175.568 119.505, 178.560 121.956 C 181.552 124.406, 183.987 127.106, 183.972 127.956 C 183.957 128.805, 182.580 133.325, 180.914 138 C 179.247 142.675, 177.237 148.476, 176.447 150.891 C 175.657 153.306, 174.634 155.781, 174.174 156.391 C 172.669 158.387, 169.082 169.421, 168.788 172.961 C 168.279 179.084, 174.230 177.519, 175.559 171.180 C 175.868 169.706, 176.544 167.713, 177.060 166.750 C 182.323 156.948, 191 134.376, 191 130.487 C 191 128.420, 193.831 126.741, 196.280 127.355 C 197.738 127.721, 199.240 129.417, 200.365 131.967 C 201.344 134.185, 202.582 136, 203.116 136 C 203.650 136, 206.655 138.528, 209.793 141.617 C 212.932 144.707, 217.154 148.345, 219.175 149.701 C 221.196 151.057, 223.095 152.804, 223.394 153.583 C 224.397 156.197, 227 155.191, 227 152.189 C 227 148.998, 227.030 149.033, 212.625 135.568 C 206.381 129.731, 202 124.858, 202 123.748 C 202 121.530, 209.746 112, 211.548 112 C 212.971 112, 214.374 107.414, 213.421 105.873 C 212.255 103.986, 207.762 106.052, 202.146 111.058 C 199.096 113.776, 196.241 116, 195.800 116 C 194.701 116, 194.795 114.605, 195.973 113.427 C 196.997 112.403, 200 98.104, 200 94.250 C 200 91.323, 198.116 91.552, 195.026 94.856 M 194.079 105.583 C 194.127 106.748, 194.364 106.985, 194.683 106.188 C 194.972 105.466, 194.936 104.603, 194.604 104.271 C 194.272 103.939, 194.036 104.529, 194.079 105.583 M 156.976 176.529 C 155.923 177.798, 156.100 178.477, 158.013 180.514 C 159.934 182.559, 160.137 183.348, 159.227 185.234 C 158.468 186.809, 158.060 187.043, 157.888 186 C 157.751 185.175, 157.383 187.848, 157.070 191.941 L 156.500 199.382 152.500 199.597 C 150.300 199.715, 144 200.123, 138.500 200.503 C 125.252 201.420, 112.715 201.414, 100.486 200.486 C 91.935 199.838, 90.279 199.959, 89.153 201.315 C 87.505 203.301, 88.126 206.617, 90.059 206.158 C 98.660 204.117, 104.086 204.434, 102.569 206.888 C 102.113 207.626, 103.102 208, 105.507 208 C 107.500 208, 110.002 208.466, 111.066 209.035 C 113.214 210.185, 113.663 209.063, 111.800 207.200 C 110.867 206.267, 111.449 206, 114.422 206 C 117.600 206, 118.047 206.238, 117.074 207.411 C 116.243 208.412, 116.218 209.017, 116.988 209.493 C 118.432 210.385, 126.148 209.048, 125.510 208.016 C 125.236 207.573, 125.721 206.937, 126.588 206.605 C 129.157 205.619, 137 205.917, 137 207 C 137 207.550, 137.648 208, 138.441 208 C 139.234 208, 140.101 208.355, 140.369 208.789 C 141.208 210.146, 131.673 231.455, 128 236.433 C 119.518 247.929, 112.394 255.442, 106.711 258.888 C 103.435 260.875, 98.672 264.392, 96.127 266.704 C 92.210 270.262, 91.672 271.183, 92.620 272.704 C 93.715 274.459, 97.900 274.687, 99 273.050 C 99.275 272.641, 103.495 269.782, 108.378 266.696 C 118.294 260.429, 124.963 254.591, 128.425 249.144 C 129.698 247.140, 131.699 244.643, 132.870 243.595 C 134.042 242.547, 135 241.319, 135 240.864 C 135 240.410, 136.571 237.583, 138.491 234.582 C 140.410 231.581, 142.905 226.656, 144.034 223.638 C 145.164 220.620, 147.193 216.521, 148.544 214.531 C 149.895 212.540, 151 210.031, 151 208.956 C 151 207.511, 151.687 207, 153.627 207 L 156.255 207 155.394 227.250 C 154.375 251.220, 154.614 265.103, 156.197 274 C 157.551 281.608, 158.395 283, 161.654 283 C 164.960 283, 165.325 281.346, 163.536 274.476 C 161.903 268.207, 161.428 245.068, 162.638 230.751 L 163.277 223.200 166.388 224.239 C 170.212 225.515, 174 228.821, 174 230.883 C 174 232.829, 183.791 242.247, 185.023 241.486 C 185.528 241.174, 186.224 242.043, 186.569 243.418 C 187.358 246.562, 190.124 249.099, 190.746 247.250 C 190.977 246.563, 191.627 246, 192.190 246 C 192.753 246, 192.960 246.661, 192.651 247.468 C 191.963 249.259, 193.622 250.525, 194.338 248.756 C 194.726 247.801, 195.093 247.853, 195.871 248.974 C 196.589 250.007, 196.537 250.705, 195.697 251.310 C 194.948 251.851, 195.367 251.982, 196.820 251.662 C 199.484 251.075, 206.321 254.671, 205.394 256.172 C 205.062 256.709, 205.821 258.245, 207.080 259.585 C 208.917 261.541, 210.003 261.902, 212.587 261.418 C 215.213 260.925, 215.921 261.176, 216.430 262.779 C 217.389 265.802, 234.028 274.044, 240.525 274.715 C 243.462 275.018, 246.563 274.998, 247.416 274.671 C 249.609 273.829, 248.249 271.003, 245.643 270.985 C 242.141 270.960, 237.042 268.799, 227.381 263.244 C 222.366 260.360, 217.912 258, 217.484 258 C 217.056 258, 214.784 256.425, 212.435 254.500 C 210.085 252.575, 207.789 250.982, 207.332 250.959 C 206.874 250.937, 204.942 249.587, 203.038 247.959 C 201.134 246.332, 199.189 245, 198.717 245 C 197.280 245, 187.150 236.030, 177.442 226.162 C 168.960 217.541, 168.095 216.924, 166.173 218.124 C 165.028 218.839, 163.801 219.134, 163.446 218.780 C 162.526 217.859, 163.912 210.503, 165.386 208.487 C 166.779 206.581, 174.689 205.579, 196.500 204.545 C 203.650 204.205, 210.239 203.704, 211.142 203.431 C 213.070 202.847, 214.039 199.866, 213.264 196.903 C 212.797 195.116, 212.257 194.918, 209.608 195.560 C 207.899 195.974, 201.100 196.440, 194.500 196.596 C 187.900 196.751, 178.675 197.313, 174 197.844 C 169.325 198.376, 165.296 198.612, 165.046 198.368 C 164.797 198.125, 164.479 193.780, 164.341 188.713 C 164.012 176.679, 163.554 175, 160.603 175 C 159.306 175, 157.674 175.688, 156.976 176.529 M 172.139 201.893 C 171.391 202.367, 169.928 202.533, 168.889 202.261 C 167.850 201.989, 167 202.269, 167 202.883 C 167 203.519, 168.721 204, 171 204 C 173.889 204, 175 203.583, 175 202.500 C 175 200.810, 174.137 200.627, 172.139 201.893 M 184.500 203 C 184.840 203.550, 185.316 204, 185.559 204 C 185.802 204, 186 203.550, 186 203 C 186 202.450, 185.523 202, 184.941 202 C 184.359 202, 184.160 202.450, 184.500 203 M 152 205 C 152 205.550, 152.450 206, 153 206 C 153.550 206, 154 205.550, 154 205 C 154 204.450, 153.550 204, 153 204 C 152.450 204, 152 204.450, 152 205 M 129 208 C 126.876 208.680, 127.140 208.816, 130.750 208.900 C 133.088 208.955, 135 208.550, 135 208 C 135 206.847, 132.599 206.847, 129 208 M 145 210.500 C 145 211.942, 145.576 213, 146.361 213 C 147.274 213, 147.565 212.176, 147.245 210.500 C 146.982 209.125, 146.369 208, 145.883 208 C 145.398 208, 145 209.125, 145 210.500 M 183 239 C 183 239.550, 183.450 240, 184 240 C 184.550 240, 185 239.550, 185 239 C 185 238.450, 184.550 238, 184 238 C 183.450 238, 183 238.450, 183 239 M 123.506 248.994 C 122.507 250.097, 122.155 251, 122.723 251 C 123.981 251, 126.475 248.142, 125.803 247.470 C 125.538 247.205, 124.504 247.890, 123.506 248.994 M 157 249.382 C 157 250.207, 157.450 251.160, 158 251.500 C 158.550 251.840, 159 251.443, 159 250.618 C 159 249.793, 158.550 248.840, 158 248.500 C 157.450 248.160, 157 248.557, 157 249.382 M 207 257 C 207 257.550, 207.477 258, 208.059 258 C 208.641 258, 208.840 257.550, 208.500 257 C 208.160 256.450, 207.684 256, 207.441 256 C 207.198 256, 207 256.450, 207 257 M 227.500 269 C 227.840 269.550, 228.793 270, 229.618 270 C 230.443 270, 230.840 269.550, 230.500 269 C 230.160 268.450, 229.207 268, 228.382 268 C 227.557 268, 227.160 268.450, 227.500 269" stroke="none" fill="black" fill-rule="evenodd"/>
</svg>