<svg xmlns="http://www.w3.org/2000/svg" width="300" height="300" viewBox="0 0 300 300" version="1.1">
	<path d="M 111.828 26.036 C 110.909 26.573, 109.860 28.359, 109.499 30.006 C 108.991 32.318, 108.294 33, 106.440 33 C 102.128 33, 102.209 36.169, 106.998 54.941 C 107.599 57.298, 107.423 60.119, 106.438 63.901 C 105.647 66.936, 105 73.089, 105 77.574 L 105 85.727 98.750 88.451 C 95.313 89.949, 91.082 91.810, 89.349 92.587 C 87.616 93.364, 85.504 94, 84.656 94 C 82.701 94, 79.856 97.970, 80.776 99.413 C 81.158 100.011, 81.486 100.950, 81.507 101.500 C 81.555 102.792, 92.035 102.365, 93.384 101.016 C 95.078 99.322, 102 99.746, 102 101.543 C 102 105.909, 98.778 131.453, 97.955 133.620 C 97.430 135, 97 138.766, 97 141.988 C 97 147.196, 96.659 148.188, 93.923 150.923 C 92.231 152.615, 89.842 154, 88.614 154 C 87.387 154, 85.509 154.661, 84.441 155.468 C 83.374 156.276, 81.860 156.951, 81.079 156.968 C 80.297 156.986, 78.947 157.630, 78.079 158.400 C 77.210 159.170, 73.575 160.727, 70 161.860 C 58.616 165.467, 54.539 167.091, 53 168.629 C 51.667 169.962, 51.762 170.344, 53.861 172.065 C 58.063 175.509, 65.981 174.006, 78.737 167.343 C 85.747 163.680, 87.366 163.189, 89.609 164.041 C 92.146 165.006, 92.221 165.256, 91.618 170.772 C 91.273 173.922, 90.585 183.475, 90.089 192 C 89.593 200.525, 88.690 209.652, 88.082 212.281 C 87.475 214.911, 87.258 218.179, 87.600 219.544 C 87.943 220.909, 87.731 222.620, 87.129 223.345 C 86.407 224.214, 86.215 228.387, 86.566 235.582 C 87.221 249.005, 87.118 264.393, 86.345 268.777 C 86.027 270.580, 85.007 272.461, 84.078 272.958 C 81.409 274.386, 78.341 280.741, 79.675 282.075 C 80.490 282.890, 81.463 282.743, 83.325 281.523 C 85.856 279.864, 85.864 279.869, 86.181 283.172 C 86.537 286.873, 89.443 288.331, 90.407 285.293 C 91.592 281.560, 92.914 245.575, 92.322 233.193 C 91.952 225.452, 92.173 216.615, 92.880 210.928 C 93.525 205.743, 94.472 195.200, 94.984 187.500 C 95.888 173.903, 98.060 161.837, 100.031 159.463 C 101.608 157.562, 116.725 150, 118.946 150 C 120.073 150, 122.738 148.425, 124.868 146.500 C 126.999 144.575, 129.235 143, 129.836 143 C 132.778 143, 134.062 135.126, 131.470 132.975 C 129.468 131.314, 126.417 132.683, 120.752 137.784 C 118.413 139.890, 113.688 142.705, 110.250 144.039 C 106.813 145.374, 104 146.811, 104 147.233 C 104 147.655, 103.325 148, 102.500 148 C 100.517 148, 100.543 142.559, 102.566 134 C 103.411 130.425, 104.495 122.100, 104.975 115.500 C 105.947 102.139, 107.516 96.216, 110.500 94.638 C 111.600 94.056, 113.643 92.831, 115.040 91.916 C 116.436 91, 119.136 89.912, 121.040 89.498 C 122.943 89.084, 125.388 88.127, 126.473 87.372 C 127.557 86.618, 129.679 86, 131.187 86 C 135.631 86, 137.785 80.026, 134.060 78.032 C 131.885 76.868, 123.703 78.637, 118.500 81.397 C 116.850 82.272, 114.049 82.990, 112.275 82.994 C 109.187 83, 109.074 82.862, 109.612 79.750 C 109.920 77.963, 110.383 75.838, 110.640 75.029 C 110.897 74.220, 111.504 65.670, 111.989 56.029 C 112.558 44.741, 113.429 36.942, 114.436 34.124 C 117.194 26.408, 116.243 23.460, 111.828 26.036 M 202.867 45.031 C 193.391 45.439, 182.850 46.502, 178.367 47.501 C 172.600 48.788, 168.165 49.106, 161.750 48.693 L 153 48.130 153.015 51.315 C 153.034 55.214, 153.687 56.183, 157.398 57.816 C 160.431 59.152, 171.617 58.675, 177.500 56.959 C 179.150 56.478, 183.650 55.963, 187.500 55.814 C 191.350 55.665, 196.525 55.028, 199 54.400 C 201.475 53.771, 206.040 53.482, 209.145 53.757 C 212.249 54.033, 216.865 53.947, 219.401 53.567 C 223.180 53, 224.294 52.332, 225.569 49.866 C 227.474 46.183, 226.109 43.919, 222.128 44.157 C 220.682 44.244, 212.015 44.637, 202.867 45.031 M 145.604 48.590 C 144.861 50.525, 145.656 52, 147.442 52 C 148.816 52, 150.205 48.538, 149.225 47.558 C 148.138 46.471, 146.206 47.022, 145.604 48.590 M 210.949 48.562 C 210.063 49.629, 210.362 50.053, 212.355 50.553 C 215.049 51.229, 217.363 50.397, 216.532 49.052 C 215.584 47.517, 212.071 47.209, 210.949 48.562 M 198.750 49.796 C 194.248 50.186, 193.850 51.520, 197.989 52.348 C 201.171 52.984, 204 52.327, 204 50.952 C 204 49.689, 202.864 49.439, 198.750 49.796 M 71.825 51.750 C 69.724 54.228, 69.484 66.865, 71.524 67.647 C 72.345 67.963, 73 69.472, 73 71.048 C 73 72.607, 73.450 74.160, 74 74.500 C 75.419 75.377, 75.242 78.753, 73.750 79.251 C 73.015 79.497, 72.475 81.490, 72.438 84.084 C 72.331 91.769, 70.865 102.391, 69.483 105.500 C 67.522 109.910, 67.209 114.500, 68.868 114.500 C 69.681 114.500, 71.040 111.864, 72.220 108 C 73.311 104.425, 74.603 101.010, 75.091 100.411 C 75.579 99.812, 75.918 97.562, 75.845 95.411 C 75.772 93.260, 76.447 89.025, 77.344 86 C 79.373 79.162, 79.714 53.114, 77.800 51.200 C 76.085 49.485, 73.549 49.718, 71.825 51.750 M 181.500 52 C 179.741 52.756, 179.838 52.868, 182.309 52.930 C 183.941 52.971, 184.859 52.581, 184.500 52 C 184.160 51.450, 183.796 51.032, 183.691 51.070 C 183.586 51.109, 182.600 51.527, 181.500 52 M 165.554 53.536 C 162.932 55.518, 164.859 57.503, 168.515 56.586 C 170.558 56.073, 170.925 55.615, 170.097 54.617 C 169.503 53.901, 169.313 53.020, 169.675 52.658 C 170.985 51.348, 167.451 52.101, 165.554 53.536 M 166.500 55 C 166.160 55.550, 166.584 56, 167.441 56 C 168.298 56, 169 55.550, 169 55 C 169 54.450, 168.577 54, 168.059 54 C 167.541 54, 166.840 54.450, 166.500 55 M 174.627 69.529 C 174.282 70.428, 174 72.027, 174 73.082 C 174 74.137, 173.341 75, 172.535 75 C 169.437 75, 167.571 84.171, 170.145 86.745 C 170.992 87.592, 171.006 89.014, 170.202 92.195 C 167.805 101.669, 167.735 102.465, 169.413 101.072 C 171.699 99.175, 175.836 89.885, 176.624 84.881 C 177.003 82.472, 177.947 79.522, 178.721 78.326 C 179.503 77.121, 179.990 74.449, 179.815 72.326 C 179.567 69.311, 179.050 68.436, 177.377 68.197 C 176.125 68.018, 174.997 68.565, 174.627 69.529 M 193.200 85.200 C 192.540 85.860, 192 87.104, 192 87.965 C 192 89.267, 188.562 96.783, 185.123 103 C 182.300 108.102, 180.865 111.973, 181.447 112.915 C 182.595 114.772, 183.435 114.094, 185.399 109.724 C 186.444 107.401, 187.846 104.825, 188.515 104 C 189.184 103.175, 190.025 101.263, 190.385 99.750 C 191.055 96.928, 193 95.908, 193 98.378 C 193 99.136, 192.376 101.273, 191.614 103.128 C 189.453 108.385, 188.673 113, 189.945 113 C 190.553 113, 191.506 111.987, 192.065 110.750 C 192.623 109.513, 194.404 106.025, 196.023 103 C 197.642 99.975, 198.988 96.825, 199.015 96 C 199.042 95.175, 199.724 93.626, 200.532 92.559 C 202.790 89.573, 202.290 87.201, 199.050 85.526 C 195.492 83.686, 194.755 83.645, 193.200 85.200 M 111.500 88 C 109.872 89.799, 109.857 90, 111.345 90 C 112.255 90, 113 89.358, 113 88.573 C 113 87.789, 113.787 86.941, 114.750 86.689 C 116.172 86.318, 116.201 86.210, 114.905 86.116 C 114.028 86.052, 112.495 86.900, 111.500 88 M 226.200 92.200 C 225.540 92.860, 225 93.830, 225 94.356 C 225 94.881, 223.886 96.772, 222.524 98.557 C 218.837 103.391, 215 111.002, 215 113.482 C 215 117.104, 216.319 117.273, 217.956 113.862 C 218.805 112.093, 220.126 110.441, 220.892 110.192 C 222.626 109.627, 222.173 111.910, 218.650 121.500 C 214.178 133.670, 213.870 136.444, 216.448 141.281 L 218.696 145.500 225.098 145.404 C 228.619 145.352, 233.525 144.610, 236 143.755 C 239.617 142.507, 240.500 141.740, 240.500 139.851 C 240.500 137.573, 240.189 137.484, 230.500 137 L 220.500 136.500 220.737 131.038 C 220.867 128.033, 221.659 124.132, 222.496 122.367 C 223.333 120.603, 224.316 117.668, 224.681 115.846 C 225.358 112.461, 227.957 107.378, 231.191 103.115 C 233.760 99.729, 233.555 94.502, 230.777 92.557 C 228.106 90.685, 227.743 90.657, 226.200 92.200 M 163.035 94.934 C 162.466 95.998, 162 97.628, 162 98.557 C 162 101.095, 164.658 98.571, 165.251 95.469 C 165.813 92.529, 164.493 92.210, 163.035 94.934 M 87 98.393 C 87 98.609, 87.675 99.045, 88.500 99.362 C 89.325 99.678, 90 99.501, 90 98.969 C 90 98.436, 89.325 98, 88.500 98 C 87.675 98, 87 98.177, 87 98.393 M 164.387 108.750 C 164.085 109.713, 163.424 111.534, 162.919 112.797 C 162.413 114.060, 162 116.171, 162 117.488 C 162 118.805, 161.550 120.160, 161 120.500 C 160.450 120.840, 160 122.018, 160 123.118 C 160 125.815, 161.635 124.634, 163.337 120.708 C 167.445 111.236, 168.166 109.077, 167.554 108.087 C 166.545 106.455, 165.007 106.777, 164.387 108.750 M 186.134 117.750 C 185.619 118.713, 184.906 121.750, 184.550 124.500 C 184.194 127.250, 183.414 131.422, 182.816 133.771 C 181.887 137.419, 181.982 138.323, 183.469 139.965 C 184.426 141.023, 186.080 142.026, 187.144 142.194 C 189.821 142.617, 189.731 144.268, 186.953 145.684 L 184.630 146.869 187.199 147.514 C 188.881 147.936, 191.104 147.464, 193.634 146.147 C 205.092 140.185, 206.606 131.226, 195.210 136.822 C 193.170 137.824, 190.668 138.457, 189.651 138.230 C 187.985 137.856, 187.853 137.010, 188.312 129.658 C 188.592 125.171, 189.139 120.263, 189.527 118.750 C 190.076 116.612, 189.881 116, 188.652 116 C 187.782 116, 186.649 116.787, 186.134 117.750 M 153.242 120.750 C 152.718 122.263, 152.642 124.400, 153.074 125.500 L 153.859 127.500 153.962 125.500 C 154.018 124.400, 154.724 122.626, 155.532 121.559 C 157.375 119.121, 157.396 118, 155.598 118 C 154.827 118, 153.767 119.237, 153.242 120.750 M 64.650 119.758 C 63.454 121.693, 62.844 128, 63.854 128 C 65.352 128, 67 124.631, 67 121.566 C 67 119.137, 65.667 118.111, 64.650 119.758 M 156.075 131.565 C 154.053 135.376, 153.667 137.475, 153.741 144.266 C 153.807 150.431, 154.209 152.680, 155.399 153.550 C 156.262 154.181, 156.706 154.961, 156.384 155.283 C 154.451 157.216, 167.421 164.926, 172.849 165.070 C 174.307 165.109, 176.379 165.484, 177.453 165.905 C 180.025 166.911, 186.963 164.817, 188.163 162.673 C 189.646 160.024, 188.265 159.001, 183.191 158.990 C 180.309 158.984, 176.438 158.020, 173.151 156.490 C 170.209 155.121, 167.274 154, 166.629 154 C 165.983 154, 163.746 152.591, 161.656 150.868 L 157.856 147.736 158.303 140.118 C 158.549 135.928, 159.084 131.262, 159.492 129.750 C 160.637 125.501, 158.764 126.496, 156.075 131.565 M 210 135.500 C 210 136.325, 210.177 137, 210.393 137 C 210.609 137, 211.045 136.325, 211.362 135.500 C 211.678 134.675, 211.501 134, 210.969 134 C 210.436 134, 210 134.675, 210 135.500 M 206.500 183 C 206.160 183.550, 204.575 184, 202.978 184 C 201.382 184, 197.696 184.840, 194.788 185.866 C 187.874 188.307, 182.538 189.843, 177 190.988 C 171.191 192.189, 156.315 196.395, 152.685 197.862 C 151.137 198.488, 148.549 199, 146.935 199 C 143.610 199, 142.998 201.252, 145.424 204.559 C 146.620 206.188, 147.922 206.466, 153.526 206.288 C 157.199 206.171, 160.721 205.703, 161.352 205.247 C 161.983 204.792, 165.200 203.605, 168.500 202.610 C 171.800 201.615, 175.281 200.396, 176.236 199.900 C 180.559 197.659, 180.970 198.460, 180.791 208.789 C 180.698 214.173, 181.026 219.232, 181.520 220.032 C 182.014 220.832, 182.529 225.539, 182.665 230.493 C 182.959 241.235, 183.543 244, 185.519 244 C 187.715 244, 187.450 250.550, 185.161 252.839 C 183.750 254.250, 181.137 254.822, 173.911 255.299 C 168.735 255.641, 163.150 256.389, 161.500 256.961 C 159.586 257.625, 156.009 257.698, 151.619 257.164 C 142.718 256.080, 132.680 257.707, 132.178 260.314 C 131.987 261.306, 132.168 262.878, 132.579 263.808 C 132.991 264.739, 133.370 265.950, 133.422 266.500 C 133.525 267.599, 134.965 267.577, 159 266.106 C 168.075 265.551, 177.750 264.651, 180.500 264.108 C 183.250 263.564, 187.537 263.092, 190.027 263.060 C 192.518 263.027, 195.443 262.389, 196.527 261.642 C 197.612 260.895, 201.425 259.983, 205 259.615 C 212.578 258.837, 220.761 257.167, 223.236 255.893 C 224.191 255.402, 225.852 255, 226.927 255 C 228.002 255, 229.160 254.550, 229.500 254 C 229.840 253.450, 232.143 253, 234.619 253 C 239.985 253, 260.734 248.466, 262.652 246.873 C 264.418 245.408, 264.374 240.891, 262.571 238.441 C 261.218 236.604, 260.963 236.587, 257.821 238.111 C 253.800 240.062, 247.543 241.812, 239.500 243.236 C 236.200 243.820, 229.450 245.391, 224.500 246.725 C 219.550 248.060, 213.831 249.101, 211.791 249.038 C 209.751 248.975, 205.405 249.618, 202.133 250.466 C 195.234 252.253, 193.267 251.791, 192.241 248.140 C 191.221 244.506, 191.506 207.730, 192.606 201.152 C 193.451 196.096, 193.714 195.731, 197.424 194.460 C 199.582 193.721, 201.607 193.182, 201.924 193.262 C 202.241 193.342, 204.894 192.813, 207.819 192.087 C 211.952 191.062, 213.351 190.207, 214.094 188.252 C 215.636 184.197, 214.370 182, 210.492 182 C 208.636 182, 206.840 182.450, 206.500 183 M 169 198 C 170.958 199.266, 172.282 199.266, 171.500 198 C 171.160 197.450, 170.121 197.007, 169.191 197.015 C 167.734 197.029, 167.707 197.165, 169 198 M 161.800 199.200 C 162.733 200.133, 163.267 200.133, 164.200 199.200 C 165.133 198.267, 164.867 198, 163 198 C 161.133 198, 160.867 198.267, 161.800 199.200 M 152 203 C 152 204.187, 153.737 204.187, 156.500 203 C 158.176 202.280, 157.974 202.129, 155.250 202.070 C 153.463 202.032, 152 202.450, 152 203 M 250.543 244.931 C 249.466 246.672, 252.185 247.244, 253.810 245.618 C 255.301 244.127, 255.259 244, 253.273 244 C 252.088 244, 250.859 244.419, 250.543 244.931 M 223.500 251 C 221.850 251.420, 218.813 251.817, 216.750 251.882 C 214.688 251.947, 213 252.450, 213 253 C 213 253.550, 212.213 254.039, 211.250 254.086 C 210.232 254.136, 210.642 254.516, 212.228 254.994 C 217.194 256.489, 225.932 254.350, 221.750 252.662 C 221.063 252.385, 223.088 252.122, 226.250 252.079 C 229.412 252.036, 232 251.550, 232 251 C 232 249.866, 227.958 249.866, 223.500 251 M 196.651 256.468 C 195.703 258.937, 197.709 259.160, 201.686 257.028 L 205.470 255 201.342 255 C 198.635 255, 197.020 255.505, 196.651 256.468 M 182.500 259 C 182.840 259.550, 183.316 260, 183.559 260 C 183.802 260, 184 259.550, 184 259 C 184 258.450, 183.523 258, 182.941 258 C 182.359 258, 182.160 258.450, 182.500 259 M 168.030 260.381 C 167.999 262.323, 165.857 262.319, 159 260.366 C 156.850 259.753, 156.674 259.865, 157.741 261.169 C 158.424 262.002, 158.687 262.980, 158.325 263.342 C 157.406 264.260, 167.953 263.976, 171 263 C 172.574 262.496, 172.870 262.162, 171.800 262.100 C 170.865 262.045, 169.641 261.212, 169.080 260.250 C 168.128 258.616, 168.059 258.624, 168.030 260.381 M 189.500 260 C 189.840 260.550, 190.316 261, 190.559 261 C 190.802 261, 191 260.550, 191 260 C 191 259.450, 190.523 259, 189.941 259 C 189.359 259, 189.160 259.450, 189.500 260 M 140.797 262.138 C 140.218 262.489, 140.021 263.225, 140.360 263.773 C 141.082 264.942, 147 265.985, 147 264.943 C 147 264.553, 147.945 263.986, 149.101 263.684 C 152.556 262.780, 150.223 261.035, 145.882 261.276 C 143.664 261.399, 141.376 261.787, 140.797 262.138 M 135.229 264.187 C 135.727 265.682, 138 266.505, 138 265.190 C 138 264.653, 137.287 263.941, 136.416 263.606 C 135.443 263.233, 134.985 263.456, 135.229 264.187" stroke="none" fill="black" fill-rule="evenodd"/>
</svg>