<svg xmlns="http://www.w3.org/2000/svg" width="300" height="300" viewBox="0 0 300 300" version="1.1">
	<path d="M 187.890 42.640 C 187.004 42.889, 185.098 45.505, 183.654 48.454 C 180.426 55.045, 169.239 65.545, 164.495 66.435 C 158.812 67.501, 157.712 69.743, 158.538 78.566 C 158.935 82.804, 159.371 93.972, 159.507 103.385 C 159.642 112.798, 160.065 123.650, 160.446 127.500 C 160.828 131.350, 161.446 138.315, 161.820 142.978 C 162.472 151.111, 162.614 151.496, 165.299 152.438 C 167.279 153.133, 168.664 153.067, 170.035 152.210 C 171.101 151.545, 172.626 151, 173.425 151 C 174.223 151, 178.507 149.829, 182.945 148.398 C 189.662 146.231, 191.117 145.381, 191.633 143.324 C 192.590 139.515, 190.805 138.582, 186.833 140.813 C 184.937 141.878, 180.365 143.438, 176.671 144.280 C 167.886 146.284, 166.906 145.475, 167.509 136.719 C 167.745 133.298, 167.952 130.227, 167.969 129.893 C 167.986 129.560, 172.013 128.984, 176.919 128.614 C 181.824 128.243, 188.180 127.245, 191.043 126.395 C 193.906 125.544, 196.625 125.225, 197.085 125.685 C 197.545 126.145, 198.205 129.182, 198.551 132.434 C 198.898 135.686, 199.590 139.423, 200.091 140.738 C 200.591 142.054, 201 144.484, 201 146.138 C 201 148.465, 201.397 149.070, 202.750 148.810 C 204.337 148.505, 204.525 146.590, 204.771 128.237 C 204.920 117.107, 205.308 108, 205.635 108 C 205.961 108, 207.957 108.972, 210.071 110.160 C 213.868 112.294, 213.993 112.299, 220.376 110.571 C 230.642 107.792, 230.792 108.053, 225.213 119 C 222.550 124.225, 218.907 131.081, 217.118 134.236 C 215.329 137.391, 214.151 140.435, 214.501 141.001 C 214.851 141.567, 216.725 142.694, 218.666 143.505 C 222.873 145.263, 229.525 144.023, 232.934 140.846 C 234.091 139.769, 236.491 138.268, 238.268 137.510 C 241.414 136.168, 241.586 136.227, 244.735 139.730 C 246.514 141.710, 248.219 144.114, 248.523 145.072 C 249.295 147.504, 252.081 148.348, 253.768 146.661 C 254.984 145.444, 254.959 144.822, 253.590 142.174 C 252.715 140.483, 252 138.252, 252 137.216 C 252 136.180, 250.220 133.404, 248.043 131.047 C 242.986 125.569, 242.141 125.717, 229.709 134.268 C 225.227 137.351, 223.539 133.869, 227.463 129.635 C 228.858 128.129, 230 126.493, 230 125.998 C 230 125.504, 230.612 124.740, 231.361 124.300 C 232.955 123.363, 244.882 101.799, 246.077 97.693 C 247.629 92.355, 245.149 90.586, 240 93.359 C 229.645 98.937, 227.560 100.120, 226.424 101.063 C 225.096 102.165, 214 103.683, 214 102.762 C 214 101.293, 217.179 95.020, 219.707 91.500 C 221.287 89.300, 223.760 85.475, 225.204 83 C 226.647 80.525, 229.126 77.150, 230.712 75.500 C 233.277 72.831, 237.727 64.100, 239.401 58.448 C 240.378 55.151, 237.889 52.646, 234.398 53.413 C 232.088 53.920, 230.986 55.092, 229.350 58.781 C 225.501 67.460, 224.989 68.485, 222.987 71.500 C 221.892 73.150, 220.302 75.850, 219.455 77.500 C 218.607 79.150, 216.108 83.425, 213.903 87 C 211.697 90.575, 208.990 95.510, 207.889 97.966 C 206.336 101.427, 205.677 102.103, 204.958 100.966 C 204.448 100.160, 204.024 98.240, 204.015 96.700 C 203.999 93.737, 201.780 88.665, 199.224 85.750 C 198.093 84.460, 196.220 84.014, 192.095 84.053 C 186.727 84.104, 173.875 86.050, 169.326 87.500 C 167.368 88.125, 167.084 87.746, 166.477 83.696 C 166.106 81.222, 166.098 78.267, 166.459 77.130 C 167.199 74.799, 175.940 66.030, 177.542 66.012 C 178.676 65.999, 185.352 59.257, 188.865 54.577 C 190.072 52.970, 192.014 51.170, 193.182 50.577 C 200.386 46.920, 196.010 40.357, 187.890 42.640 M 140.750 58.689 C 139.463 59.026, 139 60.172, 139 63.024 C 139 65.179, 138.410 67.256, 137.672 67.700 C 136.324 68.512, 135.150 70.503, 130.689 79.538 C 129.322 82.309, 126.138 87.484, 123.613 91.038 C 121.089 94.592, 117.881 99.117, 116.483 101.093 C 115.086 103.069, 114.186 105.319, 114.484 106.093 C 114.991 107.411, 123.364 112.202, 127.250 113.399 C 129.723 114.160, 129.445 117.865, 126.500 123.404 C 125.125 125.990, 124 128.788, 124 129.623 C 124 131.536, 119.127 138.643, 115.363 142.220 C 108.293 148.938, 106.816 150.807, 107.158 152.606 C 107.782 155.896, 115.297 155.728, 120.887 152.300 C 123.424 150.744, 127.544 148.403, 130.042 147.098 L 134.583 144.724 142.147 148.362 C 150.329 152.298, 152.651 152.707, 155.399 150.697 C 156.863 149.627, 156.942 149.198, 155.840 148.293 C 155.103 147.687, 153.394 147.036, 152.042 146.846 C 150.402 146.615, 148.410 144.775, 146.060 141.322 C 144.048 138.366, 141.594 135.964, 140.339 135.724 C 139.131 135.493, 135.522 136.530, 132.321 138.027 C 129.119 139.525, 126.336 140.604, 126.135 140.427 C 125.935 140.249, 126.947 137.999, 128.385 135.426 C 129.823 132.853, 131 130.312, 131 129.778 C 131 129.245, 132 127.405, 133.221 125.689 C 135.065 123.100, 135.448 121.205, 135.471 114.535 L 135.500 106.500 130 106 C 124.626 105.511, 124.507 105.434, 124.810 102.609 C 125.166 99.287, 127.911 95.078, 129.750 95.031 C 130.438 95.014, 131 94.542, 131 93.982 C 131 91.744, 142.919 68.386, 144.890 66.760 C 147.545 64.570, 147.639 60.412, 145.066 59.035 C 144.002 58.466, 142.989 58.052, 142.816 58.116 C 142.642 58.180, 141.713 58.438, 140.750 58.689 M 64.142 78.082 C 62.269 79.827, 61.944 80.888, 62.452 83.595 C 62.862 85.779, 62.573 87.740, 61.624 89.224 C 60.823 90.476, 59.860 94.910, 59.483 99.077 C 58.907 105.439, 59.066 106.923, 60.470 108.327 C 62.034 109.891, 62.008 110, 60.071 110 C 58.919 110, 58 110.650, 58 111.465 C 58 112.271, 57.392 114.858, 56.649 117.215 C 55.906 119.572, 54.298 126, 53.075 131.500 C 51.853 137, 50.433 142.175, 49.920 143 C 49.407 143.825, 48.730 145.175, 48.415 146 C 48.101 146.825, 47.127 148.823, 46.253 150.440 C 45.378 152.058, 44.050 157.233, 43.303 161.940 C 42.555 166.648, 40.772 174.325, 39.339 179 C 37.907 183.675, 36.371 190.200, 35.927 193.500 C 34.496 204.117, 32.323 212.333, 29.048 219.500 C 24.995 228.371, 22.002 236.843, 21.994 239.465 C 21.990 240.584, 20.193 245.100, 17.999 249.500 C 13.670 258.184, 12.448 262.728, 13.864 264.874 C 15.193 266.887, 20.922 263.288, 21.608 260.010 C 21.896 258.630, 23.019 255.475, 24.102 253 C 25.186 250.525, 26.308 247.150, 26.596 245.500 C 26.884 243.850, 27.543 242.073, 28.060 241.550 C 28.577 241.028, 29.005 239.903, 29.012 239.050 C 29.019 238.198, 30.630 233.900, 32.593 229.500 C 36.030 221.794, 36.858 219.216, 40.460 205 C 41.366 201.425, 43.028 195.125, 44.153 191 C 45.278 186.875, 46.557 181.195, 46.996 178.378 C 47.434 175.561, 48.229 172.411, 48.761 171.378 C 49.294 170.345, 49.542 168.980, 49.313 168.344 C 48.677 166.580, 51.841 155.141, 54.587 149.278 C 55.932 146.406, 57.958 139.439, 59.089 133.795 C 60.220 128.152, 62.009 121.078, 63.065 118.075 C 64.120 115.073, 65.264 109.665, 65.606 106.058 C 66.239 99.387, 68.714 89.148, 71.125 83.225 C 73.517 77.347, 68.722 73.816, 64.142 78.082 M 178.500 93.523 C 175.750 94.230, 172.064 94.851, 170.309 94.904 C 168.554 94.957, 166.839 95.451, 166.498 96.002 C 166.158 96.554, 165.678 102.642, 165.433 109.531 C 164.952 123.021, 165.461 124.429, 169.951 122.026 C 171.110 121.406, 177.447 120.627, 184.034 120.296 C 190.768 119.958, 196.401 119.214, 196.904 118.597 C 198.040 117.207, 196.306 98.496, 194.694 94.750 C 193.618 92.246, 193.064 92.011, 188.506 92.119 C 185.753 92.184, 181.250 92.816, 178.500 93.523 M 90.500 108.877 C 87.626 109.490, 87.473 109.793, 86.850 116.081 C 86.492 119.692, 85.521 124.638, 84.693 127.073 C 82.189 134.428, 76.293 146.750, 73.566 150.325 C 72.155 152.175, 71 154.143, 71 154.698 C 71 155.254, 69.879 156.918, 68.508 158.396 C 67.138 159.875, 65.721 162.265, 65.359 163.707 C 64.805 165.911, 64.976 166.223, 66.432 165.664 C 67.384 165.299, 68.577 165, 69.082 165 C 69.587 165, 70 164.325, 70 163.500 C 70 162.675, 70.425 162, 70.945 162 C 71.465 162, 72.478 160.932, 73.195 159.626 C 77.100 152.519, 78.437 150.442, 80.609 148.099 C 81.924 146.681, 83 145.135, 83 144.665 C 83 144.194, 84.013 142.399, 85.250 140.675 C 89.868 134.244, 93.574 126.862, 94.506 122.240 C 94.868 120.447, 95.855 117.593, 96.701 115.899 C 97.892 113.510, 97.991 112.276, 97.140 110.409 C 96.004 107.915, 95.526 107.804, 90.500 108.877 M 20.250 115.031 C 16.993 116.340, 17.161 120.751, 20.500 121.589 C 21.875 121.934, 23 122.579, 23 123.021 C 23 123.463, 24.818 126.978, 27.040 130.832 C 33.011 141.188, 41.186 147.744, 43.487 144.021 C 44.344 142.635, 42.205 139, 40.532 139 C 39.764 139, 38.849 138.100, 38.500 137 C 38.151 135.900, 37.486 135, 37.022 135 C 36.558 135, 35.216 133.011, 34.039 130.581 C 32.863 128.150, 31.247 125.620, 30.450 124.958 C 29.652 124.297, 29 122.305, 29 120.533 C 29 117.190, 26.456 113.950, 23.921 114.063 C 23.140 114.098, 21.488 114.534, 20.250 115.031 M 187.521 150.966 C 187.128 151.602, 185.783 152.512, 184.534 152.987 C 181.519 154.133, 181.265 156.104, 182.081 172 C 182.519 180.514, 182.408 185.954, 181.782 186.730 C 181.236 187.406, 178.699 187.939, 176.144 187.914 C 173.590 187.889, 169.928 188.348, 168.007 188.934 C 165.985 189.551, 155.215 190, 142.448 190 C 117.622 190, 115.716 190.433, 117.541 195.653 C 118.821 199.315, 123.681 200.115, 126.400 197.111 C 127.808 195.554, 128.715 195.321, 130.590 196.034 C 131.906 196.535, 133.549 196.819, 134.241 196.666 C 134.934 196.513, 134.037 197.037, 132.250 197.830 C 128.556 199.468, 127.847 201.491, 131.250 200.682 C 132.488 200.389, 139.125 199.867, 146 199.522 C 152.875 199.178, 159.512 198.686, 160.750 198.429 C 164.179 197.717, 163.653 200.750, 158.519 211.296 C 153.414 221.782, 148.295 229.870, 143.529 234.981 C 141.724 236.916, 138.279 240.750, 135.874 243.500 C 133.468 246.250, 130.938 248.860, 130.250 249.300 C 129.563 249.740, 129 251.427, 129 253.050 C 129 255.635, 129.357 256, 131.883 256 C 134.199 256, 135.870 254.706, 140.383 249.420 C 143.472 245.801, 146 242.426, 146 241.920 C 146 241.414, 146.610 241, 147.356 241 C 148.103 241, 150.690 238.246, 153.106 234.881 C 155.523 231.515, 157.987 228.248, 158.581 227.621 C 159.176 226.994, 159.949 225.360, 160.300 223.990 C 160.650 222.621, 162.579 219.025, 164.587 216 C 166.594 212.975, 169.277 208.236, 170.547 205.469 C 173.054 200.011, 175.319 197.568, 178.608 196.772 C 182.767 195.765, 186.795 200.529, 184.879 204.189 C 184.338 205.223, 184.384 206.119, 184.997 206.498 C 186.583 207.479, 186.163 210, 184.414 210 C 182.993 210, 182.863 213.259, 183.164 241.396 C 183.477 270.601, 183.633 272.939, 185.405 274.896 C 187.943 277.699, 189.793 277.549, 191.216 274.426 C 192.133 272.412, 192.106 271.399, 191.089 269.772 C 189.428 267.111, 189.239 203.034, 190.880 198.778 C 192.107 195.595, 192.404 195.512, 209.500 193.574 C 230.629 191.178, 235.803 190.873, 236.487 191.979 C 237.423 193.493, 241.576 193.216, 242.960 191.548 C 244.354 189.869, 243.611 186.752, 241.374 184.896 C 239.048 182.965, 219.275 182.707, 208.500 184.466 C 203.550 185.275, 197.250 186.218, 194.500 186.562 L 189.500 187.189 189.231 174.845 C 189.072 167.529, 189.457 160.557, 190.176 157.730 C 191.217 153.633, 191.166 152.738, 189.813 151.384 C 188.676 150.247, 188.037 150.131, 187.521 150.966 M 53.330 168.296 C 50.558 171.112, 50.445 177.412, 53.100 181.140 C 54.145 182.608, 55 184.277, 55 184.849 C 55 185.421, 56.545 187.575, 58.434 189.637 C 60.323 191.699, 63.067 195.756, 64.533 198.652 C 65.998 201.549, 67.866 204.474, 68.683 205.152 C 69.500 205.830, 71.656 209.336, 73.474 212.942 C 75.292 216.549, 77.729 220.357, 78.890 221.405 C 80.050 222.453, 81 223.841, 81 224.491 C 81 225.140, 82.688 227.255, 84.750 229.190 C 86.813 231.125, 90.917 235.474, 93.872 238.854 C 96.826 242.234, 99.680 245, 100.214 245 C 100.748 245, 102.329 245.900, 103.727 247 C 106.334 249.050, 112 249.762, 112 248.039 C 112 246.976, 108.015 243, 106.949 243 C 105.216 243, 98.261 236.384, 94.366 231.032 C 91.990 227.767, 89.223 224.655, 88.218 224.117 C 87.212 223.578, 85.514 221.419, 84.445 219.319 C 82.727 215.946, 81.525 213.906, 76.297 205.500 C 75.613 204.400, 74.360 202.037, 73.513 200.250 C 72.666 198.463, 71.565 197, 71.066 197 C 70.567 197, 69.867 195.669, 69.509 194.042 C 69.152 192.415, 67.387 189.791, 65.586 188.210 C 62.341 185.360, 59.438 177.411, 58.758 169.509 C 58.440 165.815, 56.253 165.327, 53.330 168.296 M 197.029 190.961 C 196.220 191.473, 195.861 192.194, 196.231 192.565 C 196.602 192.935, 197.633 192.510, 198.524 191.619 C 200.283 189.860, 199.391 189.467, 197.029 190.961 M 143 196.378 C 143 197.500, 143.848 197.976, 145.750 197.921 C 147.317 197.876, 147.855 197.603, 147 197.287 C 146.175 196.981, 144.938 196.287, 144.250 195.743 C 143.358 195.038, 143 195.219, 143 196.378 M 198.571 213.571 C 196.081 216.062, 196.723 217.725, 200.444 218.423 C 202.458 218.801, 204.120 219.802, 204.447 220.833 C 204.755 221.803, 207.975 225.500, 211.602 229.049 C 215.229 232.597, 219.390 236.782, 220.848 238.350 C 224.584 242.364, 239.739 252.279, 240.974 251.516 C 243.032 250.244, 241.833 247.417, 237.714 243.826 C 224.497 232.302, 218.199 226.216, 207.627 214.750 C 204.783 211.666, 200.973 211.170, 198.571 213.571" stroke="none" fill="black" fill-rule="evenodd"/>
</svg>