<svg xmlns="http://www.w3.org/2000/svg" width="300" height="300" viewBox="0 0 300 300" version="1.1">
	<path d="M 237.997 33.850 C 236.336 35.510, 234.858 38.327, 234.454 40.600 C 234.073 42.745, 232.539 45.850, 231.046 47.500 C 229.552 49.150, 226.168 53.425, 223.525 57 C 220.882 60.575, 217.208 64.770, 215.360 66.323 C 213.512 67.875, 212 69.788, 212 70.573 C 212 71.358, 211.635 72, 211.189 72 C 210.742 72, 209.491 72.787, 208.409 73.750 C 207.326 74.713, 204.879 76.350, 202.970 77.389 C 201.062 78.429, 198.089 80.605, 196.364 82.226 C 193.446 84.966, 192.852 85.127, 187.864 84.521 C 183.794 84.027, 180.855 84.383, 175.683 85.996 C 164.841 89.377, 164.851 89.385, 164.840 77 C 164.834 71.225, 165.358 63.203, 166.004 59.173 C 167.346 50.800, 166.839 47.453, 164.122 46.742 C 160.918 45.904, 159.813 47.419, 160.110 52.241 C 160.300 55.338, 159.802 57.653, 158.526 59.601 C 157.001 61.928, 156.621 64.709, 156.426 74.971 C 156.295 81.862, 156.145 87.997, 156.094 88.605 C 156.042 89.213, 153.188 89.985, 149.750 90.319 C 146.313 90.654, 142.150 91.354, 140.500 91.874 C 138.850 92.395, 134.125 93.850, 130 95.109 C 125.270 96.552, 121.466 98.431, 119.699 100.198 C 118.159 101.739, 116.246 103, 115.449 103 C 113.611 103, 113.568 105.396, 115.378 106.899 C 116.358 107.712, 117.535 107.747, 119.443 107.021 C 120.921 106.460, 124.099 106, 126.506 106 C 128.913 106, 131.129 105.601, 131.430 105.113 C 131.731 104.626, 133.669 103.909, 135.737 103.522 C 137.804 103.134, 139.746 102.411, 140.053 101.914 C 140.360 101.418, 142.611 100.619, 145.055 100.137 C 147.500 99.656, 150.150 99.091, 150.944 98.881 C 151.875 98.636, 152.633 99.568, 153.076 101.500 C 154.148 106.178, 154.070 129.781, 152.960 137 C 152.410 140.575, 151.725 146.343, 151.438 149.817 C 150.966 155.532, 150.571 156.438, 147.295 159.317 C 142.686 163.368, 130.111 172.796, 128.681 173.273 C 128.083 173.472, 127.640 175.293, 127.698 177.318 C 127.798 180.845, 127.662 181, 124.468 181 C 120.177 181, 118.783 184.227, 121.780 187.224 C 123.600 189.044, 124.087 189.098, 127.519 187.857 C 129.582 187.111, 132.896 184.660, 134.885 182.410 C 136.873 180.160, 139.503 177.787, 140.728 177.136 C 141.953 176.486, 144.070 174.839, 145.432 173.477 C 146.795 172.114, 148.717 171, 149.705 171.001 C 151.357 171.001, 151.507 172.337, 151.588 187.751 C 151.664 202.048, 151.991 205.452, 153.825 211 C 155.007 214.575, 155.980 219.753, 155.987 222.507 C 155.994 225.260, 156.447 229.072, 156.994 230.977 C 157.770 233.685, 157.668 234.761, 156.525 235.904 C 155.241 237.187, 154.844 237.175, 153.281 235.806 C 152.302 234.948, 149.808 233.649, 147.740 232.919 C 144.429 231.749, 143.781 231.791, 142.307 233.264 C 140.792 234.779, 140.781 235.107, 142.183 236.719 C 143.034 237.698, 144.012 239.685, 144.355 241.133 C 144.699 242.582, 146.334 245.217, 147.990 246.989 C 150.251 249.409, 151 251.164, 151 254.038 C 151 258.899, 155.310 262.530, 159.887 261.525 C 162.438 260.965, 162.873 260.278, 163.893 255.198 C 164.523 252.064, 165.004 248.600, 164.962 247.500 C 164.921 246.400, 165.204 240.870, 165.591 235.210 C 166.050 228.509, 165.922 224.149, 165.224 222.710 C 164.635 221.495, 163.908 218.700, 163.608 216.500 C 163.307 214.300, 162.374 209.125, 161.532 205 C 160.529 200.082, 160.002 191.891, 160.001 181.210 C 160 161.362, 160.729 159.337, 169.784 154.049 C 175.840 150.512, 180.563 144.911, 179.602 142.406 C 179.029 140.911, 176 140.428, 176 141.832 C 176 142.289, 174.088 143.141, 171.750 143.726 C 169.412 144.311, 166.055 145.379, 164.288 146.099 C 162.522 146.820, 160.803 147.137, 160.470 146.803 C 160.136 146.469, 160.330 141.765, 160.900 136.348 C 161.471 130.932, 162.142 121.325, 162.392 115 C 162.642 108.675, 163.133 102.769, 163.482 101.876 C 164.584 99.060, 174.978 95.066, 186.500 93.032 C 194.125 91.685, 194.629 92.294, 195.452 103.827 C 195.792 108.597, 197.002 118.090, 198.141 124.921 C 199.993 136.021, 200.145 139.850, 199.576 160.921 C 198.764 190.994, 197.248 208.156, 194.863 214.287 C 193.838 216.920, 193 220.345, 193 221.897 C 193 223.450, 191.875 226.379, 190.500 228.405 C 186.274 234.632, 187.514 240, 193.177 240 C 196.759 240, 198.408 237.329, 199.970 229 C 200.640 225.425, 201.591 222.009, 202.084 221.409 C 203.647 219.508, 206.145 200.947, 206.514 188.500 C 206.710 181.900, 207.169 173.125, 207.534 169 C 208.333 159.983, 208.102 138.104, 207.110 128.740 C 206.716 125.022, 206.730 121.436, 207.142 120.771 C 207.801 119.705, 211.315 119.203, 229.363 117.596 C 231.488 117.407, 233.524 116.770, 233.888 116.182 C 234.437 115.293, 241.600 113.111, 244.250 113.024 C 244.662 113.011, 245 114.392, 245 116.094 C 245 118.346, 244.456 119.329, 243 119.710 C 240.976 120.239, 240.636 121.509, 240.780 128 C 240.823 129.925, 240.003 143.875, 238.958 159 C 237.531 179.659, 237.272 189.485, 237.917 198.500 C 238.390 205.100, 238.590 220.790, 238.363 233.367 C 238.069 249.653, 238.280 256.632, 239.097 257.617 C 240.623 259.455, 246.436 259.385, 247.992 257.509 C 248.840 256.488, 249.003 254.519, 248.511 251.259 C 246.940 240.858, 246.487 161.681, 247.955 154.114 C 248.530 151.151, 249 144.063, 249 138.364 C 249 132.121, 249.398 128, 250 128 C 250.581 128, 251 124.730, 251 120.191 C 251 115.405, 251.484 111.805, 252.250 110.892 C 252.938 110.073, 255.975 108.598, 259 107.616 C 262.025 106.634, 265.400 105.486, 266.500 105.065 C 271.959 102.975, 275.381 102.117, 276.211 102.631 C 276.717 102.943, 278.646 102.914, 280.498 102.566 C 283.189 102.062, 284.087 101.266, 284.963 98.611 C 286.333 94.461, 284.890 90, 282.178 90 C 281.148 90, 279.268 90.900, 278 92 C 276.707 93.121, 274.259 94, 272.428 94 C 270.632 94, 267.888 94.618, 266.331 95.373 C 262.053 97.448, 248.087 102.009, 243 102.993 C 240.525 103.472, 236.577 104.810, 234.226 105.967 C 231.589 107.265, 227.207 108.252, 222.787 108.544 C 218.846 108.805, 214.598 109.689, 213.346 110.509 C 212.094 111.329, 209.655 112, 207.926 112 C 204.881 112, 204.795 111.881, 205.219 108.254 C 205.459 106.193, 205.058 102.522, 204.328 100.095 C 201.466 90.586, 203.046 86.707, 212.500 80.023 C 219.045 75.397, 234 60.276, 234 58.286 C 234 57.901, 235.800 55.021, 238 51.884 C 240.200 48.748, 242.010 45.804, 242.022 45.341 C 242.034 44.878, 242.924 43.375, 244 42 C 246.425 38.900, 246.683 32.476, 244.418 31.607 C 241.784 30.596, 240.964 30.882, 237.997 33.850 M 92.680 43.233 C 91.396 44.832, 91.016 46.500, 91.390 48.891 C 91.876 52.003, 90.754 55.774, 88.976 57 C 87.682 57.892, 84 65.422, 84 67.176 C 84 68.114, 83.585 69.139, 83.077 69.452 C 82.569 69.766, 81.858 71.368, 81.497 73.011 C 81.136 74.655, 80.539 75.997, 80.171 75.994 C 79.086 75.983, 76 70.008, 76 67.919 C 76 66.864, 75.633 66, 75.184 66 C 74.736 66, 72.247 63.879, 69.655 61.286 C 64.975 56.607, 64.921 56.584, 62.220 58.215 C 57.889 60.830, 58.243 63.380, 63.645 68.484 C 67.015 71.667, 68.974 72.826, 70.283 72.410 C 71.609 71.989, 72.297 72.418, 72.687 73.910 C 72.987 75.060, 73.856 76, 74.617 76 C 75.377 76, 76 76.900, 76 78 C 76 80.267, 74.963 80.563, 73.200 78.800 C 72.267 77.867, 72 77.959, 72 79.217 C 72 80.106, 72.521 81.007, 73.158 81.219 C 74.775 81.758, 73.429 86.571, 70.975 89.025 C 69.889 90.111, 69 91.352, 69 91.783 C 69 93.005, 61.771 106.344, 60.309 107.821 C 59.589 108.548, 59 109.480, 59 109.891 C 59 110.302, 56.302 113.533, 53.004 117.070 C 49.707 120.606, 47.007 123.953, 47.004 124.506 C 47.002 125.059, 45.650 126.109, 44 126.840 C 42.350 127.570, 41 128.805, 41 129.584 C 41 130.363, 40.578 131, 40.062 131 C 39.547 131, 37.913 133.226, 36.433 135.946 C 34.405 139.673, 33.095 140.967, 31.120 141.196 C 28.282 141.525, 27.324 144.169, 28.436 148.602 C 29.391 152.407, 32.417 151.494, 37.884 145.750 C 40.632 142.863, 45.993 137.238, 49.798 133.250 C 53.603 129.262, 57.199 126, 57.790 126 C 58.382 126, 59.184 124.987, 59.574 123.750 C 59.964 122.513, 62.132 119.016, 64.391 115.981 C 69.296 109.392, 70.683 107.245, 71.987 104.224 C 72.528 102.973, 73.652 101.687, 74.485 101.367 C 75.479 100.986, 76 99.448, 76 96.893 C 76 94.752, 76.350 93, 76.777 93 C 78.637 93, 81.871 96.171, 81.363 97.496 C 80.840 98.859, 83.052 106.373, 85.136 110.313 C 85.664 111.309, 85.818 112.997, 85.480 114.063 C 85.142 115.128, 85.259 116, 85.740 116 C 87.750 116, 92.763 131.957, 91.430 134.114 C 91.038 134.747, 90.365 134.718, 89.538 134.031 C 88.831 133.445, 87.603 133.215, 86.808 133.520 C 84.972 134.225, 76 151.167, 76 153.929 C 76 155.068, 75.603 156, 75.117 156 C 74.631 156, 73.022 158.561, 71.540 161.690 C 70.058 164.820, 67.980 168.481, 66.923 169.825 C 65.865 171.170, 65 173.072, 65 174.052 C 65 175.032, 64.662 175.983, 64.250 176.167 C 63.837 176.350, 61.992 179.531, 60.148 183.236 C 55.522 192.532, 42.960 205.235, 29.725 214 C 26.804 215.934, 26.012 217.066, 26.225 219 C 26.650 222.863, 30.131 222.668, 37.254 218.381 C 40.689 216.314, 43.725 214.369, 44 214.059 C 44.275 213.750, 45.733 212.862, 47.239 212.085 C 53.564 208.826, 67.010 192.899, 71.564 183.272 C 72.936 180.373, 74.495 178, 75.029 178 C 75.563 178, 76 177.072, 76 175.938 C 76 173.254, 81.263 161.526, 88.826 147.357 C 91.951 141.503, 95 141.297, 95 146.941 C 95 149.109, 95.386 151.120, 95.857 151.412 C 96.764 151.972, 98.333 182.624, 98.318 199.500 C 98.310 209.460, 97.154 221.931, 94.759 237.896 C 93.098 248.970, 91.768 249.885, 85.598 244.197 C 83.094 241.889, 80.247 240.006, 79.272 240.014 C 73.060 240.062, 70.054 244.006, 73.873 247.098 C 75.043 248.046, 76 249.208, 76 249.682 C 76 250.156, 77.355 252.189, 79.012 254.199 C 83.140 259.207, 90.479 261.582, 96.137 259.741 C 100.773 258.233, 102.950 249.715, 107.186 216.500 C 108.563 205.706, 108.540 207.106, 107.648 188.500 C 106.258 159.480, 104.228 142.990, 101.001 134.501 C 100.450 133.054, 100 130.339, 100 128.469 C 100 126.598, 99.373 123.590, 98.606 121.784 C 97.839 119.978, 96.640 117.150, 95.941 115.500 C 91.852 105.841, 87.715 92.792, 87.297 88.231 C 86.842 83.279, 88.964 74.213, 91.202 71.550 C 91.641 71.027, 92 69.720, 92 68.644 C 92 67.569, 93.125 65.214, 94.500 63.411 C 95.875 61.608, 97 59.518, 97 58.767 C 97 58.015, 97.526 56.874, 98.169 56.231 C 98.812 55.588, 99.374 52.012, 99.419 48.281 C 99.497 41.761, 99.404 41.490, 97 41.233 C 95.379 41.060, 93.860 41.763, 92.680 43.233 M 63.947 219.564 C 63.050 220.644, 62.968 221.368, 63.689 221.826 C 64.272 222.197, 65.059 223.931, 65.439 225.681 C 65.818 227.430, 66.775 229.398, 67.564 230.053 C 68.354 230.709, 69 231.635, 69 232.111 C 69 232.587, 69.742 233.844, 70.650 234.904 C 71.928 236.397, 72.682 236.591, 74.001 235.767 C 75.833 234.623, 75.884 234.731, 70.925 229.175 C 69.784 227.896, 68.601 225.316, 68.297 223.441 C 67.585 219.058, 65.735 217.409, 63.947 219.564" stroke="none" fill="black" fill-rule="evenodd"/>
</svg>