<svg xmlns="http://www.w3.org/2000/svg" width="300" height="300" viewBox="0 0 300 300" version="1.1">
	<path d="M 194.219 53.337 C 192.964 54.034, 192.275 54.942, 192.688 55.355 C 193.101 55.768, 192.664 55.808, 191.717 55.445 C 188.908 54.367, 185 55.816, 185 57.936 C 185 60.780, 186.955 60.909, 192.553 58.434 C 196.175 56.832, 198.092 56.472, 199.324 57.161 C 200.269 57.690, 200.848 58.437, 200.611 58.820 C 200.374 59.204, 200.621 61.538, 201.159 64.009 C 202.435 69.859, 203.868 135.315, 202.738 136.098 C 201.321 137.079, 179.698 140.233, 176.997 139.852 L 174.500 139.500 174.832 129.500 C 175.223 117.722, 171.490 88.762, 167.306 71.113 C 165.091 61.769, 164.044 59.129, 161.474 56.404 C 158.462 53.210, 158.098 53.097, 151.921 53.445 C 142.438 53.980, 135.972 56.318, 132.203 60.575 C 130.441 62.565, 129 64.648, 129 65.205 C 129 66.665, 134.107 65.204, 136.500 63.060 C 138.921 60.890, 145.964 58.349, 151.746 57.558 C 157.720 56.741, 160 58.391, 160 63.530 C 160 65.758, 160.640 70.037, 161.421 73.040 C 162.203 76.043, 162.991 81.114, 163.171 84.309 L 163.500 90.118 156.500 92.607 C 152.404 94.063, 146.072 95.345, 141.237 95.697 C 136.692 96.028, 132.192 96.892, 131.237 97.618 C 129.589 98.869, 129.590 98.938, 131.250 98.968 C 132.213 98.986, 133 99.705, 133 100.567 C 133 102.418, 136.448 101.687, 139.229 99.246 C 140.780 97.884, 141.023 97.896, 141.586 99.364 C 141.931 100.264, 143.103 101, 144.190 101 C 145.277 101, 145.993 101.338, 145.781 101.750 C 141.345 110.366, 140.039 122.446, 143.200 125.621 C 145.706 128.138, 148.327 125.767, 147.451 121.775 C 147.100 120.177, 147.386 115.016, 148.086 110.306 C 149.440 101.209, 151.373 98, 155.500 98 C 156.668 98, 158.589 97.100, 159.770 96 C 163.212 92.793, 165 93.408, 165 97.800 C 165 99.890, 165.468 102.068, 166.040 102.640 C 167.432 104.032, 168.456 137.045, 167.164 138.906 C 165.549 141.235, 158.007 138.512, 153.230 133.876 C 150.844 131.559, 148.896 130.360, 148.517 130.973 C 147.524 132.579, 148.915 135.884, 151.068 137.036 C 152.130 137.605, 153 138.700, 153 139.470 C 153 140.621, 149.668 140.864, 134.250 140.839 C 103.767 140.788, 98.901 141.234, 86.466 145.221 C 68.226 151.069, 65.155 152.654, 64.414 156.606 C 64.065 158.466, 64.059 161.099, 64.400 162.459 C 65.311 166.087, 70.913 174, 72.571 174 C 75.008 174, 74.590 172.526, 68.808 160.709 C 67.617 158.274, 68.528 157.118, 73.373 154.918 C 75.643 153.887, 76.825 153.027, 76 153.007 C 74.667 152.974, 74.667 152.862, 76 152 C 78.046 150.678, 80.274 150.747, 79.434 152.107 C 78.001 154.425, 85.536 151.801, 87.864 149.171 C 89.366 147.473, 90.015 147.138, 89.645 148.250 C 89.001 150.185, 90.609 150.545, 93 149 C 94.333 148.138, 94.333 148.025, 93 147.984 C 91.853 147.947, 91.957 147.591, 93.441 146.468 C 95.626 144.815, 99.451 144.461, 98.500 146 C 97.520 147.585, 99.982 147.161, 101.693 145.450 C 103.427 143.715, 106.637 143.969, 106.250 145.809 C 105.885 147.547, 108.683 147.269, 109.362 145.500 C 109.678 144.675, 110.401 144, 110.969 144 C 111.536 144, 112 144.675, 112 145.500 C 112 146.325, 112.470 147, 113.044 147 C 113.618 147, 113.955 146.213, 113.794 145.250 C 113.632 144.287, 114.063 143.545, 114.750 143.600 C 115.438 143.655, 117.912 143.799, 120.250 143.920 C 123.612 144.095, 124.082 144.320, 122.500 145 C 120.834 145.716, 121.052 145.871, 123.809 145.930 C 125.775 145.971, 126.867 145.594, 126.500 145 C 125.840 143.932, 130.524 143.483, 137.793 143.917 C 140.154 144.058, 142.736 143.634, 143.530 142.975 C 144.367 142.280, 145.716 142.098, 146.737 142.542 C 147.707 142.963, 149.230 143.220, 150.123 143.112 C 151.015 143.005, 151.956 143.724, 152.213 144.709 C 152.631 146.308, 153.745 146.464, 162.591 146.168 C 179.494 145.600, 184.153 144.947, 187.167 142.718 C 188.712 141.576, 190.305 140.972, 190.709 141.375 C 191.112 141.779, 190.780 142.554, 189.971 143.098 C 188.841 143.858, 189.080 144.013, 191 143.770 C 192.375 143.595, 193.388 142.901, 193.250 142.226 C 193.113 141.552, 193.702 141, 194.559 141 C 195.416 141, 195.840 141.450, 195.500 142 C 194.114 144.243, 200.694 141.940, 202.174 139.665 C 202.631 138.962, 203.291 138.996, 204.226 139.772 C 205.644 140.950, 210 140.367, 210 139 C 210 137.745, 214.374 136.987, 215.075 138.121 C 215.430 138.696, 218.275 139.242, 221.395 139.333 C 226.193 139.474, 227.150 139.815, 227.590 141.538 C 228.271 144.203, 223.982 156.389, 218.736 166.699 C 216.441 171.208, 214.912 175.246, 215.339 175.672 C 215.765 176.098, 217.314 175.773, 218.782 174.949 C 221.672 173.327, 230.160 158.407, 232.123 151.500 C 233.479 146.728, 233.381 139.164, 231.941 137.428 C 231.322 136.683, 226.787 135.905, 220.596 135.483 L 210.283 134.780 210.162 124.140 C 209.443 61.116, 206.195 46.689, 194.219 53.337 M 151 56 C 151 56.550, 151.477 57, 152.059 57 C 152.641 57, 152.840 56.550, 152.500 56 C 152.160 55.450, 151.684 55, 151.441 55 C 151.198 55, 151 55.450, 151 56 M 105.750 59.470 C 104.787 60.793, 104 62.551, 104 63.375 C 104 64.200, 102.843 66.140, 101.429 67.687 C 100.015 69.234, 96.604 73.335, 93.850 76.801 C 91.096 80.266, 87.057 84.395, 84.873 85.977 C 82.690 87.558, 79.975 90.034, 78.838 91.479 C 76.916 93.923, 76.847 94.641, 77.846 101.803 C 78.437 106.036, 79.439 114.675, 80.073 121 C 80.706 127.325, 81.752 134.525, 82.396 137 C 83.385 140.801, 83.950 141.500, 86.033 141.500 C 88.225 141.500, 88.477 141.110, 88.293 138 C 87.879 130.981, 85.899 114.299, 84.541 106.388 C 83.238 98.795, 83.547 93.159, 85.436 90.104 C 85.821 89.481, 87.843 88.100, 89.930 87.036 C 94.314 84.799, 102.308 76.278, 105.033 70.936 C 106.062 68.918, 108.084 65.865, 109.525 64.152 C 111.314 62.026, 111.943 60.396, 111.506 59.019 C 110.644 56.304, 107.895 56.520, 105.750 59.470 M 124.356 70.750 C 124.277 72.263, 123.459 77.325, 122.538 82 C 120.214 93.805, 119.853 126.247, 122 130.408 C 125.633 137.451, 130.365 136.150, 127.920 128.780 C 126.107 123.317, 126.069 106.269, 127.826 86.826 C 128.806 75.971, 128.862 71.611, 128.041 70.076 C 126.471 67.144, 124.526 67.500, 124.356 70.750 M 144.121 75.948 C 139.536 77.104, 137.169 81.083, 140.341 82.300 C 142.007 82.940, 144.500 81.483, 144.500 79.870 C 144.500 79.208, 145.063 78.479, 145.750 78.250 C 146.438 78.021, 147 78.261, 147 78.783 C 147 79.776, 158.495 79.838, 159.482 78.851 C 161.775 76.558, 150.299 74.389, 144.121 75.948 M 186.275 92.971 C 182.021 93.982, 178 96.680, 178 98.523 C 178 100.473, 179.934 100.389, 184.096 98.258 C 186.009 97.279, 189.580 96.544, 192.250 96.581 C 197.046 96.647, 198.173 95.573, 195.800 93.200 C 194.477 91.877, 191.209 91.799, 186.275 92.971 M 100 97.201 C 95.356 98.214, 91 101.347, 91 103.674 C 91 104.403, 90.325 105, 89.500 105 C 88.675 105, 88 105.499, 88 106.108 C 88 107.660, 92.754 106.338, 95.806 103.938 C 97.161 102.872, 99.109 102, 100.135 102 C 101.161 102, 102 101.578, 102 101.063 C 102 100.547, 103.575 100.381, 105.500 100.694 C 108.583 101.194, 109 101.008, 109 99.131 C 109 97.959, 108.587 97, 108.082 97 C 107.577 97, 106.564 96.824, 105.832 96.609 C 105.099 96.394, 102.475 96.661, 100 97.201 M 186.909 110.820 C 183.916 112.099, 178.869 116.979, 179.494 117.990 C 180.446 119.530, 181.481 119.254, 187.041 115.976 C 189.862 114.312, 192.903 113.075, 193.799 113.226 C 194.695 113.377, 195.589 112.713, 195.787 111.750 C 196.082 110.317, 195.454 110.013, 192.323 110.070 C 190.220 110.109, 187.784 110.446, 186.909 110.820 M 104.500 114.034 C 103.400 114.529, 99.880 115.665, 96.678 116.559 C 92.546 117.712, 91.010 118.583, 91.385 119.560 C 91.675 120.317, 91.482 121.202, 90.956 121.527 C 90.430 121.852, 90 122.845, 90 123.733 C 90 125.090, 90.360 125.020, 92.250 123.293 C 93.487 122.163, 97.537 119.849, 101.250 118.151 C 104.963 116.454, 108 114.600, 108 114.032 C 108 112.814, 107.214 112.814, 104.500 114.034 M 183 143.059 C 183 143.641, 183.450 143.840, 184 143.500 C 184.550 143.160, 185 142.684, 185 142.441 C 185 142.198, 184.550 142, 184 142 C 183.450 142, 183 142.477, 183 143.059 M 179 151.059 C 179 151.641, 179.450 151.840, 180 151.500 C 180.550 151.160, 181 150.684, 181 150.441 C 181 150.198, 180.550 150, 180 150 C 179.450 150, 179 150.477, 179 151.059 M 128.001 154.250 C 127.863 154.662, 127.694 155.431, 127.625 155.957 C 127.556 156.483, 126.640 157.543, 125.589 158.311 C 124.155 159.360, 123.697 160.880, 123.750 164.413 C 123.812 168.530, 123.512 169.235, 121.345 170.059 C 119.984 170.576, 117.350 171, 115.492 171 C 113.134 171, 111.643 171.672, 110.557 173.223 C 108.604 176.010, 108.589 177, 110.500 177 C 111.325 177, 112.003 176.662, 112.007 176.250 C 112.011 175.838, 114.112 175.403, 116.676 175.285 C 119.241 175.167, 121.750 174.492, 122.254 173.785 C 122.839 172.963, 122.951 173.751, 122.565 175.971 C 122.233 177.880, 121.252 179.839, 120.384 180.325 C 119.516 180.811, 117.837 182.386, 116.653 183.825 C 115.469 185.264, 111.858 189.250, 108.628 192.682 C 104.847 196.701, 102.965 199.467, 103.343 200.450 C 103.795 201.628, 104.494 201.763, 106.397 201.039 C 109.029 200.038, 116.288 192.667, 119.348 187.887 C 120.365 186.299, 121.602 185, 122.098 185 C 122.594 185, 123 189.725, 123 195.500 C 123 204.242, 123.255 206, 124.525 206 C 126.998 206, 128.169 201.295, 129.099 187.617 C 129.581 180.532, 130.486 174.119, 131.110 173.367 C 131.810 172.525, 134.285 172, 137.563 172 C 142.891 172, 145.458 170.519, 142.885 168.929 C 142.131 168.463, 139.120 168.110, 136.194 168.145 C 133.269 168.180, 130.685 168.018, 130.453 167.786 C 130.221 167.554, 129.631 164.245, 129.142 160.432 C 128.653 156.619, 128.140 153.838, 128.001 154.250 M 174.750 155.080 C 173.787 155.641, 173 156.907, 173 157.895 C 173 160.384, 170.070 162.769, 166.523 163.166 C 164.609 163.381, 163.132 164.335, 162.387 165.838 C 161.749 167.125, 160.951 167.729, 160.613 167.182 C 159.921 166.063, 156.273 166.750, 155.398 168.165 C 154.575 169.496, 156.938 172, 159.017 172 C 159.991 172, 162.234 170.650, 164 169 C 167.760 165.488, 167.431 165.574, 169.429 167.571 C 170.416 168.559, 171 170.908, 171 173.891 C 171 178.264, 170.748 178.752, 167.809 180.070 C 164.571 181.522, 162.386 184.557, 165.416 183.394 C 168.212 182.321, 167.109 183.738, 163.483 185.877 C 161.549 187.018, 159.412 188.402, 158.733 188.951 C 152.645 193.883, 151.639 194.940, 153.007 194.968 C 156.830 195.049, 161.756 192.675, 165.606 188.896 C 167.920 186.625, 170.238 185.029, 170.757 185.350 C 171.275 185.670, 171.992 189.735, 172.349 194.383 C 173.092 204.046, 173.644 206, 175.632 206 C 178.201 206, 179.235 200.915, 178.631 191.250 C 178.112 182.935, 178.228 182.002, 179.777 182.015 C 180.725 182.024, 182.175 182.467, 183 183 C 184.333 183.862, 184.333 183.973, 183 184.002 C 182.175 184.019, 182.981 184.982, 184.792 186.142 C 186.602 187.301, 188.358 187.975, 188.693 187.640 C 189.028 187.305, 189.797 187.696, 190.401 188.508 C 191.722 190.284, 200.315 192.041, 202.145 190.910 C 203.148 190.291, 203.051 189.957, 201.722 189.447 C 200.775 189.083, 199.362 189.031, 198.583 189.330 C 197.803 189.629, 196.927 189.252, 196.635 188.491 C 196.343 187.731, 192.783 185.286, 188.723 183.058 C 183.950 180.438, 180.881 178.034, 180.037 176.253 C 176.695 169.199, 176.631 168.969, 177.713 167.887 C 178.304 167.296, 182.097 166.518, 186.143 166.157 C 191.724 165.659, 193.500 165.138, 193.500 164 C 193.500 162.795, 191.969 162.500, 185.725 162.500 L 177.951 162.500 178.589 158.250 C 179.268 153.731, 178.357 152.979, 174.750 155.080 M 131.839 177.494 C 130.568 178.765, 132.532 184.171, 135.876 188.605 C 138.977 192.717, 140.162 193.550, 143.284 193.810 C 145.328 193.981, 147 193.949, 147 193.739 C 147 193.529, 144.928 191.196, 142.397 188.553 C 139.865 185.911, 137.159 182.230, 136.383 180.374 C 135.119 177.348, 133.201 176.133, 131.839 177.494 M 143.934 208.750 C 143.897 209.713, 142.617 212.750, 141.089 215.500 L 138.312 220.500 128.906 221.167 C 112.725 222.314, 108.751 222.995, 109.934 224.421 C 110.511 225.116, 110.687 225.980, 110.325 226.342 C 109.151 227.516, 111.011 227.038, 113.285 225.582 C 115.595 224.102, 120.599 223.967, 122.748 225.326 C 123.459 225.776, 124.954 225.445, 126.221 224.558 C 129.116 222.530, 130.065 222.588, 129.393 224.750 C 128.875 226.417, 128.903 226.417, 129.974 224.750 C 131.823 221.874, 133 222.750, 133 227 C 133 229.200, 132.662 230.904, 132.250 230.787 C 131.838 230.670, 129.475 232.714, 127 235.331 C 124.525 237.947, 120.925 241.721, 119 243.718 C 117.075 245.715, 112.406 248.784, 108.624 250.537 C 101.251 253.957, 100.816 255.863, 107.971 253.398 C 117.701 250.046, 126.224 243.888, 137.784 231.858 C 145.099 224.245, 146.443 223.262, 149.284 223.449 C 151.053 223.566, 152.950 223.352, 153.500 222.975 C 155.866 221.351, 159.043 221.348, 161.705 222.967 C 163.675 224.165, 165.254 224.450, 166.783 223.885 C 168.004 223.433, 169.619 223.300, 170.372 223.589 C 171.126 223.878, 172.443 223.414, 173.300 222.558 C 175.151 220.707, 176.685 220.555, 177.223 222.170 C 177.502 223.006, 178.568 222.863, 180.960 221.670 C 184.908 219.700, 186.687 219.561, 187.227 221.180 C 187.476 221.928, 188.330 222.072, 189.560 221.573 C 191.466 220.799, 191.465 220.769, 189.500 219.872 C 187.818 219.104, 187.898 219.050, 190 219.532 C 197.972 221.358, 199.774 221.288, 200.460 219.127 C 201.824 214.829, 199.603 214.485, 187 217.045 C 178.425 218.788, 148.311 220.312, 147.527 219.044 C 147.241 218.581, 147.896 216.244, 148.982 213.851 C 151.739 207.774, 151.572 207, 147.500 207 C 144.859 207, 143.984 207.429, 143.934 208.750 M 157.813 223.683 C 158.534 223.972, 159.397 223.936, 159.729 223.604 C 160.061 223.272, 159.471 223.036, 158.417 223.079 C 157.252 223.127, 157.015 223.364, 157.813 223.683 M 104 225 C 102.172 226.181, 103.751 226.181, 106.500 225 C 107.819 224.433, 107.989 224.122, 107 224.086 C 106.175 224.055, 104.825 224.467, 104 225 M 173.159 228.999 C 171.972 230.605, 171 232.297, 171 232.760 C 171 233.222, 173.236 236.109, 175.968 239.175 C 179.652 243.308, 182.187 245.158, 185.776 246.332 C 192.675 248.588, 198.349 249.345, 202.517 248.563 C 206.534 247.809, 206.821 245.550, 202.917 245.419 C 192.731 245.078, 182.610 240.210, 179.099 233.963 C 177.945 231.908, 177 229.528, 177 228.673 C 177 225.881, 175.361 226.020, 173.159 228.999 M 156.285 244.803 C 155.617 245.227, 154.563 248.033, 153.942 251.037 C 152.718 256.965, 147.286 270.009, 140.978 282.168 C 138.790 286.386, 137 290.098, 137 290.418 C 137 291.670, 140.993 290.913, 142.211 289.430 C 142.920 288.566, 144.320 287.103, 145.322 286.180 C 147.436 284.230, 154.493 270.490, 158.342 260.829 C 161.567 252.736, 162.039 243.991, 159.250 244.015 C 158.287 244.024, 156.953 244.378, 156.285 244.803 M 130.755 251.207 C 129.932 253.370, 131.603 256.445, 135.430 259.805 C 138.770 262.737, 144 264.170, 144 262.152 C 144 261.686, 141.277 258.873, 137.948 255.902 C 134.619 252.931, 131.750 250.368, 131.571 250.207 C 131.393 250.046, 131.026 250.496, 130.755 251.207 M 176 253.065 C 174.075 254.081, 171.375 256.485, 170 258.407 C 168.625 260.330, 166.037 262.702, 164.250 263.679 C 161.137 265.380, 159.993 267, 161.904 267 C 166.341 267, 181 255.584, 181 252.129 C 181 250.677, 180.265 250.814, 176 253.065 M 154.968 274.584 C 154.436 275.984, 154 277.545, 154 278.052 C 154 279.245, 161.189 285.938, 162.509 285.973 C 163.065 285.988, 164.044 286.840, 164.685 287.867 C 165.597 289.328, 167.116 289.747, 171.675 289.797 L 177.500 289.860 173.500 288.036 C 169.653 286.281, 159 276.080, 159 274.150 C 159 273.635, 158.311 272.949, 157.468 272.626 C 156.444 272.233, 155.615 272.883, 154.968 274.584" stroke="none" fill="black" fill-rule="evenodd"/>
</svg>