<svg xmlns="http://www.w3.org/2000/svg" width="300" height="300" viewBox="0 0 300 300" version="1.1">
	<path d="M 187.191 20.889 C 183.927 24.363, 183.890 24.512, 184.374 31.955 C 184.644 36.105, 185.372 43.472, 185.991 48.327 C 186.819 54.818, 186.822 57.509, 186.003 58.497 C 185.344 59.291, 181.742 60.087, 177.194 60.444 C 172.962 60.776, 167.475 61.705, 165 62.508 C 162.525 63.312, 156.034 64.630, 150.576 65.437 C 141.779 66.738, 140.398 67.223, 138.421 69.702 C 137.194 71.240, 136.373 72.794, 136.595 73.154 C 137.256 74.224, 145.369 72.850, 147.064 71.382 C 148.004 70.567, 149.001 70.389, 149.564 70.934 C 150.126 71.477, 151.700 71.304, 153.500 70.501 C 155.803 69.473, 156.042 69.144, 154.527 69.081 C 152.564 69, 152.564 68.994, 154.527 67.648 C 156.397 66.366, 165 64.511, 165 65.390 C 165 65.617, 163.537 66.740, 161.750 67.885 C 159.149 69.551, 158.899 69.967, 160.500 69.968 C 163.451 69.972, 167.500 67.659, 167.500 65.970 C 167.500 64.878, 168.837 64.474, 172.700 64.399 C 175.561 64.343, 177.811 64.568, 177.700 64.899 C 177.491 65.526, 178.409 66, 179.829 66 C 180.286 66, 180.623 65.033, 180.579 63.851 C 180.460 60.631, 182.503 60.551, 185.387 63.662 C 187.889 66.360, 187.941 66.699, 187.426 76.965 C 186.843 88.576, 185.398 106.141, 184.008 118.500 C 183.513 122.900, 183.084 129.286, 183.054 132.691 C 182.978 141.438, 180.493 142.270, 176.027 135.044 C 174.697 132.892, 172.806 130.921, 171.824 130.664 C 170.748 130.383, 168.407 126.683, 165.932 121.349 C 163.673 116.482, 161.354 111.518, 160.779 110.317 C 160.205 109.117, 160.036 107.348, 160.405 106.387 C 160.774 105.426, 161.971 100.619, 163.066 95.706 C 165.438 85.054, 164.936 83.721, 159.109 85.200 L 155.274 86.174 154.588 94.337 C 153.524 106.995, 153.397 107.814, 152.283 109.200 C 150.994 110.804, 146.002 125.617, 145.994 127.864 C 145.990 128.764, 145.281 130.850, 144.418 132.500 C 142.247 136.649, 138 148.969, 138 151.117 C 138 152.090, 137.094 154.421, 135.987 156.298 C 134.880 158.174, 133.867 161.462, 133.737 163.605 C 133.521 167.156, 133.721 167.500, 136 167.500 C 138.035 167.500, 139.004 166.477, 141.211 162 C 142.703 158.975, 145.329 152, 147.048 146.500 C 148.767 141, 150.832 135.267, 151.637 133.760 C 152.442 132.254, 153.427 129.108, 153.827 126.769 C 154.314 123.913, 155.118 122.408, 156.276 122.185 C 157.398 121.969, 158.001 122.490, 158.004 123.677 C 158.011 127.315, 163.488 134.466, 174.892 145.730 L 180.284 151.056 179.025 161.778 C 178.332 167.675, 177.110 173.779, 176.309 175.343 C 175.508 176.907, 175.049 178.382, 175.288 178.622 C 176.084 179.417, 171.084 197.188, 168.926 201.236 C 168.417 202.191, 168 203.607, 168 204.383 C 168 205.158, 166.689 209.015, 165.086 212.953 C 163.484 216.891, 161.644 222.450, 160.998 225.306 C 160.353 228.163, 159.189 231.918, 158.412 233.651 C 157.635 235.384, 157 237.470, 157 238.287 C 157 239.103, 156.328 241.060, 155.506 242.636 C 154.685 244.211, 154.010 246.445, 154.006 247.601 C 153.998 250.270, 152.303 255.682, 150.337 259.312 C 148.215 263.230, 149.292 267, 152.534 267 C 155.983 267, 158.019 263.278, 161.976 249.739 C 165.333 238.249, 169.974 223.973, 174.407 211.500 C 175.775 207.650, 178.061 199.775, 179.486 194 C 180.911 188.225, 182.914 181.025, 183.936 178 C 185.971 171.979, 189 159.170, 189 156.585 C 189 155.690, 190.012 154.481, 191.250 153.898 C 195.298 151.993, 201.958 142.647, 207.388 131.250 C 208.933 128.008, 210.529 126, 211.562 126 C 212.838 126, 213.111 126.638, 212.717 128.700 C 212.313 130.811, 212.921 132.121, 215.500 134.700 C 217.315 136.515, 219.563 138, 220.496 138 C 221.428 138, 223.537 138.958, 225.182 140.129 C 226.826 141.301, 230.271 143.369, 232.836 144.726 C 235.401 146.082, 238.625 147.788, 240 148.515 C 244.418 150.853, 247.460 150.780, 247.809 148.327 C 248.047 146.662, 247.074 145.542, 243.650 143.535 C 241.193 142.095, 238.930 140.260, 238.622 139.458 C 238.315 138.656, 237.209 138, 236.166 138 C 235.123 138, 233.105 137.084, 231.682 135.964 C 230.258 134.845, 227.835 133.458, 226.297 132.882 C 224.759 132.306, 221.354 129.179, 218.731 125.933 L 213.961 120.032 216.481 114.046 C 217.866 110.754, 219 106.992, 219 105.687 C 219 104.381, 219.900 100.697, 221 97.500 C 222.100 94.303, 223 90.455, 223 88.950 C 223 85.562, 220.425 84.337, 218.980 87.037 C 218.402 88.117, 217.383 89.005, 216.715 89.011 C 214.292 89.034, 212.021 96.334, 211.658 105.266 C 211.462 110.087, 211.008 114.325, 210.651 114.683 C 210.293 115.041, 209.997 114.696, 209.994 113.917 C 209.990 113.138, 209.315 113.789, 208.494 115.364 C 207.672 116.940, 207 118.866, 207 119.646 C 207 120.425, 206.337 121.317, 205.527 121.628 C 204.717 121.939, 203.755 123.837, 203.389 125.847 C 203.023 127.856, 201.882 130.700, 200.853 132.166 C 199.825 133.632, 198.711 136.197, 198.377 137.865 C 198.043 139.533, 196.922 141.666, 195.885 142.604 C 194.848 143.542, 194 144.867, 194 145.548 C 194 147.119, 191.257 148.225, 190.480 146.968 C 190.159 146.448, 190.356 141.630, 190.919 136.261 C 194.358 103.468, 195.108 95.789, 195.487 89.500 C 196.113 79.098, 197.783 61.884, 198.206 61.461 C 198.409 61.258, 200.583 60.853, 203.038 60.562 C 206.223 60.183, 206.785 60.274, 205 60.878 C 202.723 61.649, 202.668 61.796, 204.376 62.518 C 205.432 62.964, 207.649 62.806, 209.447 62.155 C 211.204 61.520, 214.312 61, 216.352 61 C 220.517 61, 222.204 58.776, 219.836 56.407 C 218.677 55.248, 216.875 55.132, 210.556 55.810 C 206.242 56.272, 201.094 56.616, 199.115 56.575 L 195.517 56.500 194.834 51 C 194.458 47.975, 193.718 39.499, 193.189 32.164 C 192.660 24.829, 191.839 18.499, 191.364 18.098 C 190.889 17.696, 189.011 18.953, 187.191 20.889 M 101 58.500 C 101 59.417, 101.484 60.005, 102.075 59.808 C 102.666 59.611, 103.150 59.023, 103.150 58.500 C 103.150 57.977, 102.666 57.389, 102.075 57.192 C 101.484 56.995, 101 57.583, 101 58.500 M 66.161 67.547 C 63.990 72.311, 64.782 74.364, 71.500 81.386 C 76.470 86.582, 78 87.703, 78 86.149 C 78 83.377, 79.868 82.439, 81.714 84.286 C 83.378 85.949, 82.700 88, 80.487 88 C 79.427 88, 79.679 89.260, 81.536 93.250 C 84.710 100.067, 84.634 101.412, 80.804 106.248 C 79.046 108.467, 76.909 111.531, 76.054 113.056 C 75.199 114.581, 73.485 117.654, 72.244 119.886 C 71.003 122.118, 68.716 125.419, 67.163 127.222 C 65.609 129.025, 64.019 131.175, 63.629 132 C 62.228 134.970, 60.164 138.282, 59.340 138.885 C 57.137 140.498, 54.097 145.942, 55.066 146.541 C 56.375 147.350, 61 146.253, 61 145.134 C 61 144.679, 61.788 143.379, 62.750 142.246 C 63.712 141.113, 65.175 139.192, 66 137.976 C 66.825 136.759, 69.638 132.872, 72.250 129.337 C 74.862 125.801, 77 122.739, 77 122.533 C 77 122.134, 85.036 109.715, 87.214 106.748 C 87.921 105.784, 88.968 105.334, 89.540 105.748 C 90.909 106.738, 98 121.463, 98 123.316 C 98 124.107, 98.675 125.315, 99.500 126 C 101.520 127.676, 101.394 129.267, 98.804 134.805 C 97.300 138.020, 96.591 141.495, 96.554 145.831 C 96.517 150.208, 96.037 152.530, 95 153.356 C 92.978 154.966, 90 160.723, 90 163.022 C 90 164.045, 89.600 165.129, 89.111 165.432 C 88.622 165.734, 87.927 167.155, 87.567 168.591 C 87.018 170.778, 83.824 176.176, 82 178 C 81.725 178.275, 79.948 180.750, 78.052 183.500 C 72.711 191.245, 63.097 201.759, 57.799 205.648 C 53.277 208.967, 51.550 212, 54.181 212 C 58.280 212, 80.438 190.826, 86 181.594 C 87.375 179.312, 90.320 174.757, 92.545 171.472 C 94.770 168.188, 97.873 161.675, 99.441 157 C 103.847 143.858, 105.020 143.788, 107.501 156.523 C 109.318 165.852, 109.791 200.916, 108.156 205.138 C 107.594 206.588, 106.655 211.988, 106.069 217.138 C 105.482 222.287, 104.378 228.540, 103.615 231.032 C 102.851 233.525, 101.635 239.743, 100.913 244.849 C 99.821 252.560, 99.824 254.273, 100.927 254.955 C 101.658 255.407, 101.934 256.299, 101.539 256.937 C 101.016 257.783, 100.464 257.800, 99.500 257 C 97.477 255.321, 96.634 257.346, 94.301 269.500 C 93.984 271.150, 92.063 274.525, 90.031 277 C 85.512 282.504, 84.713 284.517, 86.470 285.975 C 87.513 286.841, 88.646 286.372, 91.447 283.912 C 96.927 279.101, 101.493 271.444, 104.515 262 C 106.011 257.325, 107.610 252.600, 108.069 251.500 C 109.978 246.919, 112.143 236.790, 113.521 226 C 114.328 219.675, 115.427 212.475, 115.963 210 C 117.604 202.415, 118.368 170.403, 117.144 160.500 C 115.946 150.806, 113.306 137.738, 111.893 134.500 C 111.413 133.400, 110.370 129.643, 109.575 126.151 C 108.781 122.660, 107.427 119.024, 106.566 118.073 C 105.705 117.121, 105 115.919, 105 115.401 C 105 114.884, 103.656 111.994, 102.013 108.980 C 100.370 105.966, 98.772 102.825, 98.462 102 C 98.152 101.175, 97.246 99.226, 96.449 97.669 C 94.403 93.672, 94.670 90.386, 97.601 83.500 C 100.111 77.599, 102.965 68.548, 102.988 66.411 C 102.998 65.529, 98.707 65.256, 94.875 65.896 C 94.531 65.953, 93.574 67.394, 92.749 69.099 C 91.563 71.548, 91.483 72.819, 92.367 75.160 C 93.311 77.663, 93.152 78.697, 91.346 81.812 C 88.785 86.228, 86.997 86.480, 85.177 82.682 C 84.434 81.133, 82.566 79.098, 81.025 78.161 C 79.484 77.224, 76.123 73.880, 73.557 70.729 C 70.990 67.578, 68.537 65, 68.106 65 C 67.674 65, 66.799 66.146, 66.161 67.547 M 67.610 74.427 C 68.320 76.276, 71.363 76.589, 70.750 74.750 C 70.522 74.063, 69.586 73.355, 68.671 73.177 C 67.511 72.952, 67.190 73.331, 67.610 74.427 M 190.711 74.999 C 190.079 77.414, 191.540 78.640, 192.395 76.412 C 193.245 74.197, 193.148 73, 192.117 73 C 191.631 73, 190.998 73.900, 190.711 74.999 M 91 102 C 91 103.100, 91.450 104, 92 104 C 92.550 104, 93 103.100, 93 102 C 93 100.900, 92.550 100, 92 100 C 91.450 100, 91 100.900, 91 102 M 185.564 139.707 C 185.022 141.132, 185.136 141.247, 186.124 140.267 C 186.808 139.588, 187.115 138.781, 186.807 138.474 C 186.499 138.166, 185.940 138.721, 185.564 139.707 M 185.629 181.523 C 185.287 182.415, 185.502 184.070, 186.107 185.200 C 186.915 186.710, 186.904 187.441, 186.064 187.960 C 184.296 189.053, 186.323 193.320, 192.698 201.921 C 198.875 210.255, 199.954 211.311, 208.016 216.919 C 211.050 219.030, 214.159 221.929, 214.926 223.362 C 215.693 224.795, 217.261 226.251, 218.410 226.598 C 219.560 226.946, 221.400 228.026, 222.500 229 C 223.600 229.974, 225.517 231.079, 226.761 231.456 C 228.004 231.833, 229.704 233.460, 230.537 235.071 C 231.370 236.682, 232.645 238, 233.371 238 C 234.096 238, 235.473 238.865, 236.430 239.923 C 238.397 242.096, 251.862 249, 254.133 249 C 254.950 249, 256.491 249.661, 257.559 250.468 C 259.947 252.275, 266.637 252.407, 269.983 250.714 C 273.054 249.160, 274.925 244.525, 273.184 242.784 C 272.242 241.842, 271.520 242.035, 269.893 243.663 C 267.818 245.737, 267.776 245.738, 261.654 243.898 C 258.269 242.880, 253.925 241.240, 252 240.252 C 246.506 237.432, 237.082 230.951, 235.729 229.061 C 235.053 228.117, 231.125 224.788, 227 221.662 C 208.512 207.652, 197.945 196.990, 192.648 187 C 189.164 180.429, 186.767 178.559, 185.629 181.523 M 174.079 193.583 C 174.127 194.748, 174.364 194.985, 174.683 194.188 C 174.972 193.466, 174.936 192.603, 174.604 192.271 C 174.272 191.939, 174.036 192.529, 174.079 193.583 M 214 218.271 C 214 219.104, 214.675 220.045, 215.500 220.362 C 216.325 220.678, 217 220.556, 217 220.091 C 217 219.626, 216.325 218.685, 215.500 218 C 214.279 216.987, 214 217.037, 214 218.271 M 220.015 224.028 C 220.612 225.143, 221.550 225.778, 222.099 225.439 C 222.743 225.041, 222.681 224.321, 221.926 223.411 C 220.155 221.277, 218.780 221.721, 220.015 224.028 M 237 236.882 C 237 237.432, 237.450 238.160, 238 238.500 C 238.550 238.840, 239 238.668, 239 238.118 C 239 237.568, 238.550 236.840, 238 236.500 C 237.450 236.160, 237 236.332, 237 236.882 M 158 241.059 C 158 242.191, 158.450 242.840, 159 242.500 C 159.550 242.160, 160 241.234, 160 240.441 C 160 239.648, 159.550 239, 159 239 C 158.450 239, 158 239.927, 158 241.059 M 243.813 242.683 C 244.534 242.972, 245.397 242.936, 245.729 242.604 C 246.061 242.272, 245.471 242.036, 244.417 242.079 C 243.252 242.127, 243.015 242.364, 243.813 242.683 M 254 246.500 C 254.685 247.325, 256.145 248, 257.245 248 C 258.909 248, 259.036 247.748, 258 246.500 C 257.315 245.675, 255.855 245, 254.755 245 C 253.091 245, 252.964 245.252, 254 246.500 M 77.388 259.589 C 76.411 263.482, 77.638 274.066, 79.253 275.682 C 80.478 276.907, 80.856 276.878, 82.023 275.473 C 83.116 274.155, 83.147 272.999, 82.187 269.408 C 81.534 266.968, 81 263.178, 81 260.986 C 81 256.335, 78.452 255.350, 77.388 259.589" stroke="none" fill="black" fill-rule="evenodd"/>
</svg>