<svg xmlns="http://www.w3.org/2000/svg" width="300" height="300" viewBox="0 0 300 300" version="1.1">
	<path d="M 184.040 14.452 C 183.378 15.250, 179.900 21.652, 176.312 28.678 C 170.506 40.048, 169.838 41.950, 170.232 45.976 C 170.743 51.203, 177.195 61.600, 183.195 66.867 L 186.890 70.110 189.011 67.989 L 191.133 65.867 187.177 61.576 C 185.001 59.216, 182.912 55.876, 182.534 54.154 C 182.156 52.432, 181.431 50.766, 180.923 50.452 C 179.467 49.552, 179.846 42.622, 181.583 38.372 C 182.454 36.242, 184.479 31.841, 186.083 28.590 C 189.122 22.433, 189.859 16.259, 187.800 14.200 C 186.238 12.638, 185.505 12.687, 184.040 14.452 M 145.719 16.615 C 145.381 16.953, 145.810 18.307, 146.674 19.625 C 148.191 21.940, 148.091 22.172, 143.674 26.589 C 141.093 29.170, 138.356 33.191, 137.383 35.829 C 136.436 38.398, 135.109 41.175, 134.435 42 C 130.131 47.265, 128.301 62.400, 131.698 64.638 C 132.689 65.291, 134.625 66.757, 136 67.897 C 147.958 77.806, 155.274 80.262, 161.027 76.296 C 165.655 73.106, 168.250 69.016, 166.958 66.946 C 166.238 65.791, 165.433 66.254, 162.955 69.250 C 157.790 75.497, 155.375 74.639, 141.838 61.750 C 139.564 59.585, 139.457 53.167, 141.601 47.500 C 142.433 45.300, 143.807 41.475, 144.654 39 C 145.501 36.525, 147.030 32.637, 148.050 30.360 C 150.788 24.254, 151.228 21.730, 150.080 18.711 C 149.115 16.172, 147.120 15.213, 145.719 16.615 M 207.980 29.195 C 206.221 32.663, 203.055 37.975, 200.945 41 C 197.771 45.550, 197.099 47.369, 197.054 51.527 C 196.972 59.172, 197.793 59.971, 212.500 66.560 C 215.379 67.849, 218.510 68.347, 222.250 68.111 C 226.051 67.870, 223.700 64.874, 217.104 61.552 C 210.108 58.029, 206 54.130, 206 51.013 C 206 50.069, 207.103 47.767, 208.452 45.898 C 214.673 37.278, 219.116 28.839, 218.813 26.217 C 218.544 23.881, 217.987 23.457, 214.840 23.195 C 211.264 22.897, 211.106 23.035, 207.980 29.195 M 135.965 46.591 C 134.414 50.672, 135.440 51.957, 137.335 48.307 C 138.372 46.309, 138.619 44.883, 137.994 44.497 C 137.445 44.157, 136.532 45.100, 135.965 46.591 M 47 56 C 47 56.550, 47.423 57, 47.941 57 C 48.459 57, 49.160 56.550, 49.500 56 C 49.840 55.450, 49.416 55, 48.559 55 C 47.702 55, 47 55.450, 47 56 M 85.500 55.724 C 82.194 56.536, 81.077 57.958, 76.950 66.605 C 72.523 75.880, 71.284 77.156, 69.382 74.403 C 68.660 73.356, 67.651 72.008, 67.141 71.406 C 66.630 70.804, 65.522 69.004, 64.678 67.406 C 63.834 65.808, 61.761 63.010, 60.071 61.188 C 58.382 59.367, 57 57.454, 57 56.938 C 57 56.422, 55.911 56, 54.579 56 C 52.736 56, 52.011 56.674, 51.538 58.826 C 50.717 62.563, 52.043 65.558, 56.929 71 C 59.151 73.475, 60.976 75.993, 60.984 76.595 C 60.993 77.197, 61.900 78.505, 63 79.500 C 65.900 82.125, 65.495 84.507, 61 91.238 C 58.800 94.532, 57 97.421, 57 97.657 C 57 98.448, 48.620 109.451, 44.538 114.019 C 42.317 116.505, 39.427 119.983, 38.115 121.750 C 36.804 123.516, 34.216 125.855, 32.365 126.947 C 30.514 128.039, 29 129.675, 29 130.581 C 29 133.174, 39.865 131.635, 42.347 128.691 C 43.362 127.486, 46.436 123.943, 49.177 120.818 C 54.673 114.553, 64.003 102.315, 67.146 97.250 C 68.256 95.463, 69.801 94, 70.582 94 C 71.362 94, 72 94.128, 72 94.285 C 72 94.443, 74.250 101.064, 77 109 C 79.750 116.936, 82 123.557, 82 123.715 C 82 123.872, 80.683 124, 79.073 124 C 75.688 124, 72 127.938, 72 131.552 C 72 132.807, 71.633 133.983, 71.184 134.167 C 70.735 134.350, 68.202 137.875, 65.555 142 C 62.909 146.125, 60.415 149.725, 60.013 150 C 59.612 150.275, 58.345 152.637, 57.198 155.250 C 56.051 157.863, 54.750 160.003, 54.306 160.007 C 53.863 160.011, 52.402 161.698, 51.059 163.757 C 49.717 165.816, 47.302 168.926, 45.692 170.668 C 44.083 172.411, 42.256 174.714, 41.633 175.786 C 41.010 176.858, 39.674 178.900, 38.664 180.324 C 37.654 181.747, 37.118 183.382, 37.473 183.956 C 38.656 185.870, 43.790 185.048, 46.877 182.450 C 50.670 179.259, 58.574 169.235, 63.004 162 C 73.260 145.250, 77.147 138.568, 78.995 134.512 C 81.942 128.042, 83.712 128.610, 84.418 136.250 C 85.310 145.916, 84.354 194.010, 83.181 198.500 C 78.216 217.492, 76.470 222.196, 72.324 227.750 C 70.181 230.621, 69.344 231, 65.140 231 C 62.523 231, 59.679 230.438, 58.819 229.750 C 56.822 228.153, 55 222.680, 55 218.277 C 55 215.550, 54.644 214.924, 53.250 215.203 C 51.760 215.501, 51.552 216.485, 51.850 221.826 C 52.042 225.276, 52.521 229.314, 52.914 230.799 C 53.897 234.512, 60.261 237.849, 67.875 238.645 C 73.510 239.234, 74.192 239.089, 76.141 236.893 C 82.850 229.336, 87.295 219.240, 90.404 204.500 C 93.611 189.291, 94.233 180.531, 93.776 157 C 93.361 135.592, 93.080 132.565, 90.621 123 C 89.136 117.225, 87.492 111.600, 86.968 110.500 C 86.445 109.400, 85.065 105.350, 83.903 101.500 C 82.741 97.650, 81.411 94.032, 80.948 93.461 C 80.484 92.889, 79.651 90.414, 79.096 87.961 C 78.134 83.704, 78.274 83.203, 82.141 77 C 84.370 73.425, 87.725 68.255, 89.597 65.511 C 93.228 60.189, 93.718 58.118, 91.800 56.200 C 90.572 54.972, 89.030 54.856, 85.500 55.724 M 199.500 95.939 C 192.900 96.248, 186.926 96.871, 186.225 97.325 C 185.523 97.778, 179.898 98.356, 173.725 98.607 C 163.360 99.030, 150.666 100.402, 145.250 101.684 C 143.656 102.062, 143 101.765, 143 100.667 C 143 98.337, 141.359 97.764, 136.865 98.523 L 132.804 99.209 133.494 103.807 C 133.873 106.336, 134.143 112.476, 134.093 117.452 C 133.955 131.226, 135.888 143.078, 139.449 150.308 C 142.453 156.405, 142.561 156.498, 146.475 156.366 C 149.047 156.279, 150.852 156.783, 151.591 157.793 C 152.622 159.204, 153.073 159.193, 156.267 157.677 C 158.212 156.755, 161.395 156, 163.342 156 C 165.289 156, 167.124 155.609, 167.419 155.132 C 167.973 154.234, 177.599 153.796, 196.250 153.819 C 212.384 153.839, 210.009 150.426, 192.500 148.430 C 189.200 148.054, 185.825 147.788, 185 147.840 C 184.175 147.891, 177.425 148.134, 170 148.378 C 161.659 148.653, 154.831 149.401, 152.132 150.335 C 147.550 151.921, 145.407 151.727, 145.224 149.707 C 145.163 149.043, 144.585 143.775, 143.939 138 C 142.740 127.282, 142.375 109.292, 143.337 108.329 C 143.631 108.036, 144.805 108.450, 145.947 109.250 C 148.370 110.948, 157.301 110.458, 160.500 108.452 C 163.556 106.536, 171.988 105.806, 172.602 107.404 C 172.878 108.125, 169.906 114.826, 165.997 122.297 C 160.788 132.253, 158.838 137.030, 158.695 140.190 C 158.526 143.919, 158.791 144.542, 160.662 144.808 C 162.269 145.037, 163.617 143.964, 165.912 140.628 C 167.610 138.159, 169.013 135.546, 169.028 134.820 C 169.092 131.829, 182.490 110.792, 186.292 107.712 C 187.507 106.729, 190.188 105.217, 192.250 104.354 C 196.292 102.660, 197.520 100.296, 193.750 101.464 C 188.647 103.046, 187 103.197, 187 102.085 C 187 100.665, 188.117 100.310, 194.729 99.634 C 199.661 99.130, 199.946 99.225, 199.729 101.300 C 199.517 103.340, 199.938 103.506, 205.500 103.587 C 213.945 103.708, 213.711 103.607, 215.120 107.750 C 216.867 112.888, 216.328 136.963, 214.336 142.833 C 212.566 148.044, 213.112 150, 216.333 150 C 218.008 150, 219.581 148.769, 221.565 145.906 C 224.376 141.849, 224.407 141.643, 224.828 123.812 L 225.253 105.813 219.535 100.406 C 216.391 97.433, 213.296 95.085, 212.659 95.189 C 212.022 95.294, 206.100 95.631, 199.500 95.939 M 168 102.721 C 163.515 103.526, 163.990 104.503, 168.800 104.365 C 174.923 104.188, 175 104.171, 175 103 C 175 101.991, 172.599 101.896, 168 102.721 M 180.570 121.204 C 177.544 125.523, 182.064 128.569, 197.331 132.499 C 205.226 134.531, 207 134.440, 207 132.002 C 207 130.620, 205.537 129.272, 202.250 127.626 C 182.200 117.583, 182.950 117.805, 180.570 121.204 M 187 124.883 C 187 125.369, 188.012 126.038, 189.250 126.370 C 192.751 127.308, 193.264 127.121, 191.643 125.500 C 190.008 123.865, 187 123.466, 187 124.883 M 191 151 C 191 151.550, 191.900 152, 193 152 C 194.100 152, 195 151.550, 195 151 C 195 150.450, 194.100 150, 193 150 C 191.900 150, 191 150.450, 191 151 M 211.571 169.571 C 209.746 171.397, 209.576 176.684, 210.958 188.699 C 211.774 195.796, 213.131 200.411, 217.074 209.500 C 217.551 210.600, 218.912 214.425, 220.099 218 C 222.075 223.954, 224.265 229.466, 227.252 236 C 227.880 237.375, 230.034 240.750, 232.037 243.500 C 234.041 246.250, 236.315 249.628, 237.090 251.007 C 244.502 264.185, 252.846 268.451, 254.339 259.826 C 254.656 257.997, 255.808 251.100, 256.899 244.500 C 257.990 237.900, 259.624 230.731, 260.530 228.570 C 262.477 223.926, 264.006 216.669, 264.679 208.888 C 265.064 204.434, 264.844 203.154, 263.614 202.682 C 261.646 201.927, 261.597 202.015, 256.838 214.799 C 251.053 230.343, 249.352 236.024, 248.540 242.524 C 247.349 252.060, 246.022 253.402, 243.377 247.750 C 240.296 241.168, 237.759 236.461, 236.506 235 C 235.043 233.295, 226.428 211.811, 224.476 205 C 223.767 202.525, 222.465 198.570, 221.585 196.211 C 220.704 193.852, 219.487 187.327, 218.881 181.711 C 218.275 176.095, 217.363 170.713, 216.855 169.750 C 215.707 167.579, 213.634 167.509, 211.571 169.571 M 177.627 170.529 C 177.282 171.428, 176.961 177.414, 176.912 183.832 C 176.864 190.249, 176.527 197.739, 176.162 200.475 C 175.506 205.408, 175.464 205.456, 171.236 206.175 C 168.891 206.574, 164.616 208.122, 161.736 209.616 C 158.856 211.109, 155.150 212.997, 153.500 213.810 C 151.850 214.623, 149.600 216.046, 148.500 216.972 C 147.400 217.898, 145.375 218.621, 144 218.578 C 141.943 218.514, 141.549 218.057, 141.776 216 C 141.927 214.625, 142.282 208.325, 142.563 202 C 142.844 195.675, 143.328 187.330, 143.638 183.456 C 144.099 177.709, 143.904 176.165, 142.582 175.068 C 141.218 173.936, 140.690 173.963, 139.231 175.244 C 138.279 176.080, 136.600 177.036, 135.500 177.370 C 133.621 177.939, 133.489 178.928, 133.316 193.738 C 133.214 202.407, 132.989 213.775, 132.816 219 C 132.505 228.348, 133.559 245.683, 134.663 249.396 C 135.506 252.227, 140.166 255.932, 142.930 255.968 C 146.056 256.009, 156.923 248.934, 161.475 243.896 C 164.675 240.354, 166.312 235, 164.194 235 C 163.019 235, 157.372 239.307, 154.540 242.362 C 153.195 243.813, 151.168 245, 150.034 245 C 148.900 245, 147.099 245.545, 146.032 246.212 C 144.964 246.879, 143.778 247.112, 143.396 246.729 C 143.014 246.347, 142.540 242.539, 142.344 238.267 C 142.148 233.995, 141.787 229.316, 141.542 227.868 C 140.955 224.396, 141.426 224.081, 145.746 225.056 C 149.046 225.800, 149.755 225.551, 153.199 222.439 C 155.293 220.548, 157.599 219, 158.325 219 C 159.050 219, 162.762 216.302, 166.572 213.003 C 170.382 209.705, 174.063 207.005, 174.750 207.003 C 175.687 207.001, 176 210.314, 175.999 220.250 C 175.998 227.537, 176.522 237.252, 177.162 241.837 C 178.136 248.803, 178.793 250.639, 181.160 253.007 C 187.441 259.287, 195.531 257.191, 202.259 247.538 C 206.019 242.145, 207.965 234.957, 206.616 231.443 C 205.741 229.161, 203.339 231.179, 202.526 234.879 C 201.624 238.988, 193.351 248, 190.481 248 C 187.477 248, 187.247 247.580, 185.731 239.336 C 184.888 234.752, 184.605 225.911, 184.872 212.500 C 185.091 201.500, 185.321 187.325, 185.385 181 L 185.500 169.500 181.877 169.197 C 179.253 168.978, 178.082 169.345, 177.627 170.529 M 43 177.441 C 43 178.298, 43.450 179, 44 179 C 44.550 179, 45 178.577, 45 178.059 C 45 177.541, 44.550 176.840, 44 176.500 C 43.450 176.160, 43 176.584, 43 177.441 M 193.750 189.610 C 187.870 192.348, 186.557 194.557, 189.404 196.921 C 191.203 198.413, 195.334 197.392, 199.823 194.346 C 203.651 191.748, 204.589 191.525, 205.500 193 C 206.466 194.563, 208.719 194.174, 209.430 192.322 C 210.350 189.925, 207.894 187.919, 203.388 187.389 C 200.561 187.057, 197.930 187.663, 193.750 189.610 M 147.557 190.223 C 145.308 193.433, 145.618 194.671, 148.966 195.838 C 151.300 196.652, 153.107 196.460, 157.441 194.936 C 160.471 193.871, 164.461 193, 166.308 193 C 170.417 193, 171.230 192.297, 169.930 189.869 C 169.056 188.237, 167.674 188, 159.022 188 C 149.916 188, 148.987 188.180, 147.557 190.223 M 204.152 209.060 C 200.724 211.227, 197.704 213, 197.440 213 C 197.176 213, 195.169 214.131, 192.980 215.513 C 189.843 217.493, 189 218.635, 189 220.906 C 189 225.091, 191.715 225.705, 195.095 222.285 C 196.608 220.753, 200.551 217.475, 203.857 215 C 209.619 210.686, 212.786 206.604, 211.154 205.595 C 210.730 205.333, 207.579 206.892, 204.152 209.060" stroke="none" fill="black" fill-rule="evenodd"/>
</svg>