<svg xmlns="http://www.w3.org/2000/svg" width="300" height="300" viewBox="0 0 300 300" version="1.1">
	<path d="M 194.838 30.456 C 194.652 30.619, 188.650 31.057, 181.500 31.427 C 174.350 31.798, 168.072 32.528, 167.550 33.050 C 167.027 33.573, 164.552 34.020, 162.050 34.044 C 159.547 34.068, 155.475 34.523, 153 35.056 C 150.525 35.588, 144.675 36.647, 140 37.409 C 135.325 38.171, 130.229 39.378, 128.675 40.092 C 126.124 41.264, 125.914 41.733, 126.503 44.945 C 127.416 49.918, 128.085 50.271, 132.513 48.117 C 134.658 47.074, 136.998 46.446, 137.714 46.720 C 138.430 46.995, 140.024 46.587, 141.258 45.813 C 142.491 45.039, 145.300 44.277, 147.500 44.121 C 149.700 43.964, 151.927 43.423, 152.450 42.918 C 153.870 41.546, 160.766 41.805, 161.268 43.250 C 161.507 43.938, 161.494 49.225, 161.238 55 C 160.748 66.051, 162.148 76.827, 164.252 78.198 C 164.938 78.645, 166.400 78.896, 167.500 78.756 C 169.211 78.537, 169.463 77.850, 169.242 74 C 169.100 71.525, 168.719 65.060, 168.395 59.634 C 167.704 48.062, 169.119 41, 172.130 41 C 173.158 41, 174 40.550, 174 40 C 174 39.450, 173.512 39, 172.917 39 C 172.321 39, 172.021 38.438, 172.250 37.750 C 172.735 36.294, 184 35.808, 184 37.243 C 184 37.744, 182.449 38.020, 180.554 37.856 C 178.658 37.693, 176.805 37.862, 176.436 38.231 C 175.216 39.451, 180.773 40.192, 182.841 39.085 C 186.162 37.308, 190.378 37.774, 191.817 40.078 C 192.861 41.750, 192.869 42.453, 191.857 43.672 C 190.987 44.721, 190.498 50.461, 190.269 62.325 C 190.086 71.751, 189.614 79.775, 189.219 80.156 C 188.823 80.538, 184.900 81.077, 180.500 81.355 C 167.298 82.188, 153.078 84.189, 136.476 87.549 C 133.594 88.132, 133.375 87.935, 131.791 83.330 C 130.877 80.674, 129.833 77.007, 129.470 75.183 C 129.108 73.358, 128.182 70.658, 127.412 69.183 C 126.642 67.707, 126.010 65.920, 126.006 65.210 C 126.003 64.501, 125.100 62.156, 124 60 C 122.869 57.784, 122 54.106, 122 51.540 C 122 45.450, 118.909 45.553, 114.781 51.780 C 113.431 53.817, 113.434 54.564, 114.810 58.780 C 115.657 61.376, 116.908 64.850, 117.591 66.500 C 122.971 79.508, 126 88.932, 126 92.666 C 126 94.342, 126.828 96.439, 127.857 97.370 C 129.489 98.847, 129.862 98.871, 130.944 97.568 C 131.772 96.570, 133.147 96.279, 135.147 96.679 C 136.782 97.006, 139.105 96.812, 140.310 96.247 C 144.561 94.254, 150.798 93, 156.462 93 C 159.614 93, 164.511 92.380, 167.346 91.622 C 176.907 89.067, 187.419 88.009, 204.500 87.884 C 213.850 87.815, 222.287 87.347, 223.250 86.844 C 224.213 86.341, 225 85.095, 225 84.076 C 225 82.643, 223.537 81.826, 218.558 80.478 C 212.408 78.814, 209.594 78.810, 199.213 80.450 C 195.601 81.021, 194.170 79.369, 195.574 76.250 C 196.007 75.287, 196.446 68.872, 196.549 61.993 C 196.702 51.683, 197.125 48.522, 198.954 43.993 C 201.731 37.119, 203.708 33.426, 204.437 33.750 C 204.747 33.888, 205.900 34, 207 34 C 210.028 34, 209.394 36.803, 206.250 37.316 C 204.738 37.563, 205.750 37.706, 208.500 37.633 C 212.603 37.524, 213.475 37.186, 213.361 35.750 C 213.267 34.565, 213.942 34, 215.451 34 C 219.420 34, 220.097 37.556, 218.884 52.042 C 217.326 70.655, 218.914 74.603, 224.183 65.220 C 227.273 59.720, 229.604 45.510, 228.559 38.546 C 227.453 31.167, 225.964 30.526, 209.484 30.329 C 201.615 30.235, 195.024 30.292, 194.838 30.456 M 189.813 34.683 C 190.534 34.972, 191.397 34.936, 191.729 34.604 C 192.061 34.272, 191.471 34.036, 190.417 34.079 C 189.252 34.127, 189.015 34.364, 189.813 34.683 M 151.443 38.418 C 148.387 40.652, 150.246 41.136, 153.541 38.964 C 155.322 37.790, 155.879 37.011, 154.941 37.007 C 154.084 37.003, 152.509 37.638, 151.443 38.418 M 89 40.093 C 89 41.325, 87.763 43.572, 86.250 45.086 C 84.280 47.058, 83.467 48.924, 83.383 51.669 C 83.319 53.776, 82.276 58.875, 81.066 63 C 79.856 67.125, 77.949 73.875, 76.829 78 C 75.708 82.125, 74.469 86.148, 74.074 86.940 C 72.927 89.246, 71.225 89.283, 70.506 87.020 C 70.141 85.870, 67.516 82.576, 64.671 79.699 C 61.827 76.823, 58.683 73.209, 57.684 71.669 C 52.398 63.518, 49.976 63.695, 50.790 72.170 C 51.215 76.584, 51.896 77.948, 55.451 81.504 C 61.321 87.374, 65.299 94.548, 65.409 99.465 C 65.485 102.871, 64.920 104.099, 61.934 107.016 C 59.973 108.932, 56.830 112.525, 54.949 115 C 49.680 121.932, 40.753 132.462, 39.829 132.833 C 38.628 133.316, 38.810 136, 40.043 136 C 40.617 136, 43.205 133.688, 45.793 130.862 C 48.382 128.037, 51.794 124.324, 53.375 122.612 C 54.956 120.901, 57.257 117.918, 58.489 115.985 C 59.720 114.052, 61.511 111.821, 62.468 111.026 C 63.425 110.232, 64.600 108.551, 65.079 107.291 C 66.115 104.567, 68.554 104.297, 69.872 106.761 C 72.671 111.991, 75.060 121.430, 75.627 129.501 C 76.182 137.388, 75.994 139.226, 74.220 143.236 C 72.819 146.403, 72.335 149.082, 72.689 151.718 C 73.350 156.646, 71.413 161.205, 66.132 167.153 C 63.859 169.713, 62 172.148, 62 172.564 C 62 173.598, 50.610 189.323, 45.308 195.608 C 41.034 200.675, 39.830 204, 42.268 204 C 42.966 204, 44.203 202.932, 45.018 201.626 C 47.160 198.194, 51.016 193.350, 54.750 189.401 C 56.538 187.510, 58 185.570, 58 185.089 C 58 184.608, 58.563 183.990, 59.250 183.716 C 59.938 183.442, 61.625 181.038, 63 178.373 C 64.375 175.709, 66.959 171.948, 68.741 170.015 C 70.524 168.082, 71.987 166.201, 71.991 165.835 C 71.996 165.469, 72.891 164.119, 73.980 162.835 C 75.069 161.551, 76.796 159.416, 77.818 158.091 C 80.737 154.306, 82 156.242, 82 164.500 C 82 168.560, 82.390 172.123, 82.866 172.417 C 83.342 172.711, 83.543 173.976, 83.312 175.226 C 83.081 176.477, 83.491 184.700, 84.222 193.500 C 85.715 211.462, 85.313 222.076, 82.158 248.089 C 80 265.886, 78.589 271.693, 75.021 277.466 C 73.039 280.673, 73.672 283, 76.526 283 C 78.117 283, 82 278.663, 82 276.886 C 82 276.068, 82.473 274.927, 83.051 274.349 C 86.123 271.277, 89.022 252.394, 91.165 221.500 C 92.371 204.106, 91.456 175.390, 88.982 153 C 87.586 140.364, 87.665 137.767, 89.475 136.754 C 91.703 135.507, 91.342 134.081, 88.528 133.011 C 86.981 132.422, 85.848 131.028, 85.500 129.285 C 85.194 127.753, 84.307 124.250, 83.529 121.500 C 82.751 118.750, 81.679 114.700, 81.148 112.500 C 79.946 107.518, 78.168 102.489, 76.094 98.207 C 74.575 95.068, 74.611 94.717, 76.871 90.707 C 83.915 78.207, 87.995 68.054, 88.012 62.981 C 88.026 58.694, 90.103 50.693, 92.525 45.588 C 94.475 41.479, 93.794 38.797, 90.643 38.177 C 89.512 37.954, 89 38.551, 89 40.093 M 175.250 85.716 C 176.762 85.945, 179.238 85.945, 180.750 85.716 C 182.262 85.487, 181.025 85.300, 178 85.300 C 174.975 85.300, 173.738 85.487, 175.250 85.716 M 198.813 85.683 C 199.534 85.972, 200.397 85.936, 200.729 85.604 C 201.061 85.272, 200.471 85.036, 199.417 85.079 C 198.252 85.127, 198.015 85.364, 198.813 85.683 M 166 87.906 C 166 88.405, 166.900 88.577, 168 88.290 C 169.100 88.002, 170 87.594, 170 87.383 C 170 87.173, 169.100 87, 168 87 C 166.900 87, 166 87.408, 166 87.906 M 158.442 88.906 C 158.750 89.404, 159.902 89.577, 161.001 89.289 C 163.753 88.570, 163.505 88, 160.441 88 C 159.034 88, 158.134 88.408, 158.442 88.906 M 132.667 91.667 C 132.300 92.033, 132.007 92.821, 132.015 93.417 C 132.025 94.121, 132.291 94.091, 132.774 93.331 C 133.183 92.689, 135.089 91.973, 137.009 91.741 L 140.500 91.320 136.917 91.160 C 134.946 91.072, 133.033 91.300, 132.667 91.667 M 240 96.898 C 239.175 97.358, 233.100 98.001, 226.500 98.327 C 219.450 98.675, 211.406 99.751, 207 100.936 C 202.875 102.045, 196.800 102.973, 193.500 102.998 C 190.200 103.023, 183.450 103.738, 178.500 104.588 C 173.550 105.438, 168.267 106.122, 166.760 106.108 C 165.252 106.094, 162.158 106.739, 159.884 107.541 C 157.609 108.343, 152.993 109.007, 149.624 109.015 C 142.597 109.033, 140.500 109.999, 140.500 113.219 C 140.500 115.061, 139.875 115.560, 137.250 115.813 C 133.683 116.157, 133.189 117.082, 135.532 119.026 C 136.777 120.060, 138.133 120.007, 142.782 118.743 C 145.927 117.888, 153.900 116.429, 160.500 115.501 C 167.100 114.574, 174.975 113.373, 178 112.833 C 183.498 111.852, 189.649 111.224, 200 110.589 C 206.508 110.190, 212 109.029, 212 108.053 C 212 107.228, 219.797 102, 221.028 102 C 221.494 102, 221.808 102.900, 221.725 104 C 221.642 105.100, 221.220 106, 220.787 106 C 220.354 106, 220 106.402, 220 106.893 C 220 108.653, 223.180 108.958, 226.052 107.473 C 227.810 106.564, 232.273 105.863, 237.239 105.716 L 245.500 105.472 245.818 102.171 C 246.299 97.186, 243.702 94.832, 240 96.898 M 201 107 C 201 107.550, 201.423 108, 201.941 108 C 202.459 108, 203.160 107.550, 203.500 107 C 203.840 106.450, 203.416 106, 202.559 106 C 201.702 106, 201 106.450, 201 107 M 175.443 109.418 C 174.376 110.198, 173.841 111.174, 174.253 111.586 C 175.108 112.441, 180 110.095, 180 108.831 C 180 107.540, 177.587 107.851, 175.443 109.418 M 184.762 108.707 C 186.006 108.946, 187.806 108.937, 188.762 108.687 C 189.718 108.437, 188.700 108.241, 186.500 108.252 C 184.300 108.263, 183.518 108.468, 184.762 108.707 M 166.500 111 C 166.160 111.550, 166.359 112, 166.941 112 C 167.523 112, 168 111.550, 168 111 C 168 110.450, 167.802 110, 167.559 110 C 167.316 110, 166.840 110.450, 166.500 111 M 134.750 112.689 C 133.787 112.941, 133 113.594, 133 114.140 C 133 115.562, 138.264 114.748, 138.756 113.250 C 139.168 111.997, 138.016 111.836, 134.750 112.689 M 150.079 112.882 C 145.019 113.796, 144.882 116, 149.885 116 C 152.983 116, 153.808 115.664, 153.390 114.574 C 153.014 113.593, 153.726 113.016, 155.671 112.724 C 158.135 112.354, 158.178 112.297, 156 112.281 C 154.625 112.271, 151.961 112.542, 150.079 112.882 M 198 121.660 C 192.775 122.412, 186.700 123.679, 184.500 124.476 C 182.300 125.272, 178.700 126.352, 176.500 126.875 C 166.882 129.162, 160.957 131.058, 157.676 132.901 L 154.154 134.880 153.129 131.940 C 151.891 128.390, 150.733 128.233, 148.698 131.339 C 147.515 133.144, 146.489 133.579, 144.201 133.243 C 140.458 132.693, 139.481 134.226, 141.328 137.748 C 142.121 139.262, 143.765 143.875, 144.981 148 C 146.196 152.125, 147.823 157.197, 148.595 159.270 C 149.368 161.344, 150 163.894, 150 164.936 C 150 167.214, 156.376 172.430, 160.337 173.392 C 163.020 174.044, 163.155 174.336, 162.837 178.791 C 162.506 183.413, 162.088 184.377, 158.928 187.798 C 158.063 188.734, 156.288 191.075, 154.985 193 C 153.681 194.925, 150.677 198.525, 148.308 201 C 145.940 203.475, 144.482 205.660, 145.069 205.856 C 145.655 206.051, 149.280 203.003, 153.124 199.082 C 156.969 195.161, 160.538 192.215, 161.057 192.535 C 162.292 193.298, 162.259 200.234, 160.987 207.110 C 160.431 210.122, 159.805 217.068, 159.598 222.544 C 159.199 233.045, 157.340 249.993, 156.493 250.840 C 156.218 251.115, 156.630 252.313, 157.409 253.502 C 158.318 254.889, 158.504 256.172, 157.928 257.082 C 157.435 257.862, 157.024 258.107, 157.015 257.628 C 157.007 257.148, 156.325 257.315, 155.500 258 C 154.337 258.965, 154.003 261.632, 154.015 269.872 C 154.030 280.977, 155.163 285.215, 158.275 285.814 C 160.643 286.271, 177.418 269.042, 183.622 259.782 C 186.305 255.777, 188.725 252.275, 189 252 C 191.070 249.930, 197.441 237.108, 196.746 236.412 C 195.959 235.625, 184.342 247.965, 178.724 255.556 C 173.939 262.023, 166.793 269.482, 164.565 270.337 C 163.795 270.632, 162.973 270.340, 162.737 269.687 C 162.098 267.917, 163.879 250.883, 165.004 248 C 165.541 246.625, 166.421 237.850, 166.960 228.500 C 168.617 199.731, 170.728 178.579, 172.305 174.947 C 175.083 168.550, 183.237 161.652, 189.303 160.569 C 191.394 160.195, 193.348 159.257, 193.645 158.483 C 193.942 157.709, 195.058 156.799, 196.125 156.460 C 198.168 155.812, 203 151.718, 203 150.635 C 203 149.430, 197.221 150.004, 194.364 151.494 C 192.789 152.315, 190.550 152.990, 189.389 152.994 C 188.228 152.997, 183.728 154.142, 179.389 155.538 C 160.533 161.603, 156 161.725, 156 156.165 C 156 154.644, 155.566 152.966, 155.037 152.437 C 154.507 151.907, 153.783 149.004, 153.429 145.987 L 152.784 140.500 157.267 140.407 C 160.137 140.348, 162.840 139.538, 164.779 138.157 C 166.446 136.971, 169.230 136, 170.966 136 C 173.878 136, 180.098 134.451, 187.500 131.882 C 193.811 129.691, 201.906 128.368, 203.507 129.264 C 205.779 130.536, 208 129.432, 208 127.031 C 208 124.382, 211.019 124.356, 211.710 127 C 212.286 129.200, 214.003 129.597, 215.682 127.918 C 216.458 127.142, 217.363 127.210, 218.882 128.158 C 221.659 129.893, 221.556 130.946, 218.250 134.568 C 213.720 139.531, 212.329 142.255, 211.774 147.250 C 211.310 151.417, 211.476 152, 213.123 152 C 214.155 152, 215 151.550, 215 151 C 215 150.450, 215.587 150, 216.304 150 C 219.417 150, 227.466 139.007, 229.098 132.527 C 230.493 126.985, 229.232 123.697, 225.116 122.146 C 220.644 120.460, 207.927 120.232, 198 121.660 M 160.500 166 C 160.160 166.550, 160.809 167, 161.941 167 C 163.073 167, 164 166.550, 164 166 C 164 165.450, 163.352 165, 162.559 165 C 161.766 165, 160.840 165.450, 160.500 166 M 236.200 173.200 C 235.540 173.860, 235 175.106, 235 175.968 C 235 176.830, 233.844 179.236, 232.432 181.315 C 231.019 183.394, 229.812 186.086, 229.749 187.297 C 229.499 192.077, 230.047 196, 230.965 196 C 232.842 196, 238.798 189.943, 239.441 187.379 C 239.800 185.949, 241.021 182.806, 242.155 180.393 C 243.306 177.944, 243.924 175.245, 243.555 174.282 C 243.055 172.979, 242.700 172.867, 242.108 173.825 C 241.494 174.820, 241.045 174.759, 240.039 173.547 C 238.494 171.686, 237.779 171.621, 236.200 173.200 M 205 182 C 205 182.550, 205.675 183, 206.500 183 C 207.325 183, 208 182.550, 208 182 C 208 181.450, 207.325 181, 206.500 181 C 205.675 181, 205 181.450, 205 182 M 201.975 191.565 C 201.439 192.976, 201 196.181, 201 198.688 C 201 202.564, 201.217 203.064, 202.456 202.036 C 205.379 199.611, 207.386 204.382, 204.966 208 C 204.099 209.296, 203.744 209.228, 202.363 207.500 C 198.761 202.994, 202.149 214.641, 207.744 226 C 213.360 237.402, 218.128 244.720, 223.707 250.500 C 233.365 260.507, 247.903 269.021, 248.040 264.750 C 248.062 264.063, 248.751 264.738, 249.572 266.250 C 250.393 267.762, 251.723 269, 252.528 269 C 253.333 269, 256.726 269.946, 260.068 271.103 C 264.626 272.680, 267.313 273.037, 270.822 272.532 C 276.367 271.734, 282.706 269.040, 283.465 267.160 C 284.337 265.002, 283.073 263.891, 281.005 264.997 C 278.200 266.499, 268.895 266.194, 265.636 264.494 C 264.060 263.672, 262.035 263.012, 261.136 263.026 C 258.631 263.065, 245.372 255.913, 241.206 252.275 C 239.168 250.495, 237.189 249.030, 236.808 249.019 C 236.428 249.009, 233.417 246.412, 230.117 243.250 C 224.001 237.389, 222.164 234.724, 217.538 225 C 216.098 221.975, 213.996 217.761, 212.865 215.637 C 211.564 213.191, 210.824 209.961, 210.848 206.833 C 210.874 203.424, 210.439 201.722, 209.443 201.340 C 208.494 200.976, 208 199.309, 208 196.475 C 208 194.104, 207.727 191.452, 207.393 190.582 C 206.432 188.078, 203.069 188.688, 201.975 191.565 M 218 196.583 C 218 198.349, 220.153 198.042, 220.771 196.188 C 220.989 195.534, 220.454 195, 219.583 195 C 218.713 195, 218 195.713, 218 196.583 M 44.667 241.667 C 44.300 242.033, 44 246.684, 44 252.002 C 44 259.118, 44.554 263.363, 46.099 268.085 C 49.278 277.798, 50.700 279.672, 56.279 281.497 C 60.831 282.985, 61.381 282.980, 63.752 281.427 L 66.312 279.749 62.906 278.572 C 57.680 276.765, 56.350 275.797, 53.675 271.855 C 50.052 266.513, 48 258.285, 48 249.096 C 48 243.016, 47.668 241, 46.667 241 C 45.933 241, 45.033 241.300, 44.667 241.667 M 228.020 249.524 C 228.716 250.362, 229.491 250.842, 229.743 250.591 C 230.436 249.897, 229.027 248, 227.819 248 C 227.155 248, 227.231 248.574, 228.020 249.524 M 230.813 252.683 C 231.534 252.972, 232.397 252.936, 232.729 252.604 C 233.061 252.272, 232.471 252.036, 231.417 252.079 C 230.252 252.127, 230.015 252.364, 230.813 252.683 M 241 259.882 C 241 260.432, 241.450 261.160, 242 261.500 C 242.550 261.840, 243 261.668, 243 261.118 C 243 260.568, 242.550 259.840, 242 259.500 C 241.450 259.160, 241 259.332, 241 259.882" stroke="none" fill="black" fill-rule="evenodd"/>
</svg>