<svg xmlns="http://www.w3.org/2000/svg" width="300" height="300" viewBox="0 0 300 300" version="1.1">
	<path d="M 198 31.869 C 191.205 35.314, 185.687 38.809, 180.612 42.881 C 178.474 44.596, 176.145 46, 175.435 46 C 174.726 46, 173.260 47.125, 172.179 48.500 C 171.097 49.875, 169.446 51, 168.510 51 C 167.574 51, 165.614 51.638, 164.154 52.417 C 157.883 55.766, 142.276 62.778, 139.750 63.381 C 137.512 63.916, 137 64.593, 137 67.019 C 137 69.378, 137.437 70, 139.094 70 C 140.346 70, 141.397 69.197, 141.710 68 C 142.333 65.618, 144.540 65.359, 145.388 67.569 C 146.074 69.357, 147.698 69.027, 155.500 65.514 C 158.250 64.276, 162.975 62.233, 166 60.974 C 169.025 59.714, 171.969 58.122, 172.542 57.436 C 173.115 56.749, 176.377 54.912, 179.792 53.352 C 183.206 51.793, 186.008 50.063, 186.018 49.509 C 186.036 48.523, 192.871 43.480, 199.569 39.512 C 202.110 38.007, 203.205 37.805, 204.082 38.682 C 204.871 39.471, 205.484 49.480, 206.008 70.169 C 206.628 94.584, 207.116 101.573, 208.512 106 C 209.466 109.025, 210.309 113.075, 210.386 115 C 210.462 116.925, 211.067 120.975, 211.730 124 C 212.392 127.025, 213.628 134, 214.476 139.500 C 216.430 152.179, 219.304 165.677, 220.824 169.315 C 221.471 170.863, 222 172.493, 222 172.937 C 222 173.381, 223.125 177.191, 224.500 181.403 C 225.875 185.615, 227 190.489, 227 192.233 C 227 198.310, 236.521 235.314, 239.934 242.500 C 240.456 243.600, 241.170 245.963, 241.521 247.750 C 241.872 249.538, 242.573 251, 243.079 251 C 243.586 251, 244 251.873, 244 252.941 C 244 254.009, 244.520 255.203, 245.156 255.596 C 246.612 256.496, 245.669 251.248, 243.553 246.670 C 242.747 244.927, 241.582 241.250, 240.966 238.500 C 240.349 235.750, 239.228 231.925, 238.475 230 C 237.723 228.075, 235.460 218.850, 233.447 209.500 C 231.434 200.150, 229.160 190.390, 228.394 187.812 C 227.627 185.234, 227 182.490, 227 181.716 C 227 180.941, 226.308 178.920, 225.462 177.225 C 224.617 175.530, 223.235 170.191, 222.392 165.362 C 221.549 160.533, 220.678 156.288, 220.456 155.929 C 220.235 155.571, 219.346 151.052, 218.481 145.889 C 216.488 133.993, 215.822 130.453, 212.572 114.500 C 210.213 102.925, 209.857 98.403, 209.319 73.250 C 208.987 57.712, 208.973 45, 209.287 45 C 210.365 45, 213.094 56.129, 212.486 58.045 C 211.680 60.583, 213.377 63.817, 214.533 61.946 C 214.979 61.225, 215.454 59.255, 215.589 57.568 C 215.971 52.799, 213.101 31.827, 211.863 30.334 C 210.078 28.184, 203.923 28.866, 198 31.869 M 132.768 34 C 132.081 35.100, 130.736 36, 129.779 36 C 128.778 36, 127.841 36.956, 127.574 38.250 C 125.260 49.467, 123.981 64.105, 123.526 84.586 C 123.154 101.266, 122.545 110.183, 121.542 113.586 C 120.746 116.289, 119.413 125.250, 118.579 133.500 C 117.746 141.750, 115.982 152.775, 114.659 158 C 113.337 163.225, 111.695 170.650, 111.011 174.500 C 110.326 178.350, 108.899 184.875, 107.839 189 C 106.778 193.125, 105.281 200.425, 104.511 205.223 C 103.741 210.020, 102.636 216.515, 102.056 219.656 C 101.475 222.797, 101 228.210, 101 231.684 C 101 235.158, 100.622 238, 100.160 238 C 99.308 238, 98.027 242.821, 95.509 255.500 C 94.744 259.350, 93.256 265.650, 92.201 269.500 C 91.147 273.350, 90.013 278.891, 89.682 281.813 C 89.079 287.124, 89.080 287.125, 91.790 286.813 C 93.996 286.558, 94.546 285.943, 94.748 283.500 C 95.223 277.771, 99.309 260, 100.152 260 C 100.618 260, 101.011 258.538, 101.024 256.750 C 101.037 254.963, 101.490 251.700, 102.030 249.500 C 103.128 245.027, 104.491 235.940, 106.081 222.500 C 106.666 217.550, 108.018 210.350, 109.083 206.500 C 110.149 202.650, 111.947 194.550, 113.079 188.500 C 114.210 182.450, 115.801 174.800, 116.615 171.500 C 120.087 157.410, 121.010 152.041, 122.092 139.625 C 122.722 132.406, 123.651 125.710, 124.157 124.744 C 124.663 123.779, 125.348 120.074, 125.681 116.511 C 126.252 110.396, 126.413 110.066, 128.554 110.603 C 130.504 111.092, 141.143 108.472, 147.500 105.936 C 148.600 105.498, 151.780 104.956, 154.567 104.734 C 157.354 104.511, 161.136 103.580, 162.971 102.664 C 164.806 101.749, 168.001 101, 170.070 101 C 172.140 101, 173.983 100.654, 174.167 100.232 C 174.350 99.809, 177.537 97.981, 181.250 96.169 C 187.304 93.215, 188 92.572, 188 89.937 C 188 87.511, 187.586 87, 185.622 87 C 184.315 87, 182.714 87.640, 182.065 88.422 C 181.416 89.204, 178.998 90.161, 176.692 90.548 C 174.387 90.935, 169.800 92.121, 166.500 93.184 C 160.109 95.242, 155.003 96.477, 145.750 98.203 C 142.588 98.793, 140 99.664, 140 100.138 C 140 100.612, 139.170 101, 138.155 101 C 135.442 101, 132.972 104.177, 133.655 106.787 C 133.980 108.030, 133.775 109, 133.186 109 C 132.610 109, 131.995 107.987, 131.820 106.750 C 131.614 105.304, 130.696 104.386, 129.250 104.180 C 127.036 103.866, 127 103.631, 127.018 89.680 C 127.046 67.035, 129.300 51, 132.454 51 C 133.169 51, 134.743 48.862, 135.952 46.250 C 137.162 43.638, 138.812 40.271, 139.621 38.769 C 140.730 36.709, 140.826 35.542, 140.010 34.019 C 138.607 31.397, 134.400 31.386, 132.768 34 M 213 67 C 213 68.650, 213.450 70, 214 70 C 214.550 70, 215 68.650, 215 67 C 215 65.350, 214.550 64, 214 64 C 213.450 64, 213 65.350, 213 67 M 82 85.688 C 72.346 89.393, 66.854 91.543, 63.500 92.930 C 59.507 94.582, 48.400 93.887, 44.096 91.717 C 39.233 89.264, 38.740 89.499, 39.485 93.910 C 40.021 97.082, 39.803 98.011, 38.331 98.835 C 37.333 99.393, 36.738 100.066, 37.008 100.330 C 37.279 100.593, 42.675 100.948, 49 101.117 C 60.459 101.424, 60.499 101.417, 60.249 99.143 C 60.046 97.292, 60.425 96.921, 62.249 97.180 C 63.752 97.394, 64.402 98.082, 64.206 99.250 C 64.006 100.442, 64.564 101, 65.956 101 C 68.181 101, 68.477 103.649, 68.020 119.500 C 67.782 127.792, 67.049 128.828, 59.268 131.878 C 56.096 133.121, 52.719 134.558, 51.764 135.069 C 49.055 136.521, 47.127 136.177, 45.768 134 C 43.998 131.165, 42.363 131.519, 41.150 135 C 40.375 137.223, 39.475 138, 37.674 138 C 34.268 138, 32.549 140.288, 33.966 142.936 C 35.433 145.677, 38.421 145.551, 40.702 142.652 C 42.612 140.224, 49.635 137.301, 50.788 138.455 C 51.675 139.342, 48.955 140.966, 46.550 140.985 C 45.124 140.996, 44.898 141.298, 45.707 142.107 C 46.931 143.331, 60.655 141.367, 61.604 139.832 C 61.887 139.374, 63.043 139, 64.173 139 C 65.953 139, 66.143 139.434, 65.597 142.250 C 65.251 144.037, 64.690 156.774, 64.351 170.553 C 63.764 194.420, 63.631 195.727, 61.548 198.150 C 60.344 199.548, 58.258 200.969, 56.910 201.308 C 55.563 201.646, 53.569 202.735, 52.480 203.729 C 51.391 204.722, 47.013 207.317, 42.750 209.496 C 38.488 211.675, 35 213.993, 35 214.647 C 35 215.301, 34.780 216.436, 34.511 217.168 C 34.241 217.901, 34.432 219.146, 34.934 219.935 C 35.717 221.166, 36.462 221.177, 40.174 220.011 C 44.262 218.726, 49.185 216.428, 51.470 214.738 C 52.037 214.319, 54.249 212.631, 56.388 210.988 C 58.526 209.345, 60.776 207.996, 61.388 207.990 C 61.999 207.985, 64.476 206.410, 66.891 204.490 C 69.306 202.571, 71.731 201, 72.280 201 C 72.830 201, 73.807 200.278, 74.452 199.396 C 75.097 198.514, 79.872 195.467, 85.063 192.625 C 92.079 188.784, 94.582 186.886, 94.820 185.229 C 95.071 183.473, 94.647 182.999, 92.820 182.997 C 90.695 182.994, 78.167 187.722, 77 188.967 C 76.433 189.572, 69.179 193, 68.466 193 C 67.589 193, 68.006 164.513, 69.045 153.418 C 70.397 138.983, 71.069 136.583, 73.871 136.173 C 75.132 135.989, 76.510 134.790, 77.029 133.423 C 77.536 132.091, 78.377 131, 78.897 131 C 79.418 131, 83.666 128.117, 88.338 124.594 C 93.009 121.071, 97.720 117.906, 98.807 117.561 C 99.895 117.216, 101.052 115.936, 101.378 114.717 C 103 108.669, 101.023 107.217, 97 111.500 C 95.708 112.875, 93.942 114.030, 93.076 114.066 C 92.209 114.103, 89.475 115.670, 87 117.549 C 84.525 119.428, 80.843 121.866, 78.818 122.968 C 76.793 124.070, 74.854 125.428, 74.509 125.986 C 72.880 128.622, 72 126.351, 72 119.508 C 72 113.100, 72.289 111.836, 74 110.768 C 75.100 110.081, 76 108.526, 76 107.313 C 76 106.100, 77.565 102.437, 79.477 99.174 C 82.198 94.531, 83.937 92.780, 87.477 91.116 C 91.892 89.041, 92.631 87.807, 91.393 84.582 C 90.622 82.573, 89.897 82.658, 82 85.688 M 214 86.500 C 214 90.117, 215.330 91.189, 216.389 88.428 C 216.946 86.977, 215.535 83, 214.465 83 C 214.209 83, 214 84.575, 214 86.500 M 214.639 92.694 C 214.288 93.046, 214 95.058, 214 97.167 C 214 99.907, 214.428 101, 215.500 101 C 216.580 101, 217 99.895, 217 97.059 C 217 93.261, 215.972 91.361, 214.639 92.694 M 71.100 102.750 C 71.155 103.713, 71.560 105.625, 72 107 C 72.680 109.124, 72.816 108.860, 72.900 105.250 C 72.955 102.912, 72.550 101, 72 101 C 71.450 101, 71.045 101.787, 71.100 102.750 M 216.873 109.502 C 216.342 113.229, 216.854 116, 218.073 116 C 219.177 116, 219.181 111.323, 218.080 108.502 C 217.399 106.759, 217.245 106.887, 216.873 109.502 M 168.315 114.464 C 163.571 116.527, 161.672 121.041, 161.360 131 C 161.213 135.675, 161.072 139.838, 161.046 140.250 C 161.021 140.662, 159.705 141, 158.122 141 C 154.345 141, 153.174 142.672, 153.749 147.250 C 154.252 151.264, 155.272 151.871, 157.600 149.542 C 158.402 148.741, 159.680 148.324, 160.441 148.616 C 164.204 150.060, 164.544 211.423, 160.988 247.500 C 159.692 260.658, 160.529 283.862, 162.366 285.699 C 163.975 287.308, 164.506 283.827, 164.586 271.165 C 164.735 247.314, 166.054 216.643, 167.109 212.485 C 167.815 209.705, 167.749 200.634, 166.896 182.985 C 165.190 147.713, 165.194 146.500, 166.988 146.500 C 168.113 146.500, 168.779 148.816, 169.721 156 C 172.323 175.842, 172.667 176.329, 172.581 160.053 L 172.500 144.605 178.500 142.764 C 181.800 141.751, 187.078 140.652, 190.229 140.321 C 196.434 139.670, 199 140.782, 199 144.122 C 199 145.155, 199.450 146, 200 146 C 200.550 146, 201 147.125, 201 148.500 C 201 149.962, 201.574 151, 202.383 151 C 204.006 151, 204.967 154.025, 204.986 159.191 C 205.001 163.091, 206.334 164.887, 207.642 162.770 C 209.776 159.318, 206.321 137.501, 203.008 133.510 C 202.415 132.795, 200.258 131.984, 198.215 131.708 C 194.367 131.187, 169.335 135.579, 167.408 137.113 C 166.807 137.591, 166.088 137.754, 165.809 137.475 C 164.832 136.498, 167.981 126.696, 170.977 121.388 C 175.591 113.211, 174.961 111.573, 168.315 114.464 M 218.531 120.078 C 217.786 121.997, 219.553 127, 220.975 127 C 222.486 127, 222.221 122.682, 220.571 120.441 C 219.332 118.757, 219.062 118.709, 218.531 120.078 M 139.594 128.896 C 137.088 131.665, 135.747 142.954, 136.612 154 C 137.021 159.225, 137.305 163.748, 137.244 164.052 C 136.551 167.475, 136.070 211.925, 136.721 212.328 C 139.212 213.867, 139.794 210.758, 140.059 194.500 C 140.212 185.150, 140.223 169.700, 140.085 160.167 C 139.946 150.634, 140.084 142.582, 140.392 142.275 C 141.659 141.008, 144 144.478, 144 147.622 C 144 150.816, 144.191 151, 147.500 151 C 150.742 151, 151 150.773, 151 147.921 C 151 144.987, 150.851 144.874, 147.852 145.532 L 144.704 146.224 145.236 137.696 C 145.759 129.311, 145.158 127, 142.455 127 C 141.825 127, 140.538 127.853, 139.594 128.896 M 221 131 C 221 131.550, 221.450 132, 222 132 C 222.550 132, 223 131.550, 223 131 C 223 130.450, 222.550 130, 222 130 C 221.450 130, 221 130.450, 221 131 M 59.139 136.033 C 56.923 137.880, 56.901 138, 58.778 138 C 59.878 138, 61.841 137.115, 63.139 136.033 C 65.356 134.187, 65.378 134.067, 63.500 134.067 C 62.400 134.067, 60.438 134.952, 59.139 136.033 M 222.166 139.139 C 222.350 140.437, 222.950 141.387, 223.500 141.250 C 224.976 140.881, 224.716 137.739, 223.166 137.222 C 222.251 136.917, 221.937 137.520, 222.166 139.139 M 223 147.917 C 223 150.049, 223.483 151, 224.566 151 C 225.677 151, 226.041 150.221, 225.816 148.327 C 225.356 144.434, 223 144.091, 223 147.917 M 224.671 153.750 C 224.425 154.162, 225.085 157.650, 226.138 161.500 C 227.191 165.350, 228.339 170.053, 228.689 171.951 C 229.040 173.849, 229.926 176.549, 230.657 177.951 C 231.389 179.353, 231.990 181.573, 231.994 182.884 C 232 185.337, 233.596 191.961, 235.032 195.500 C 235.479 196.600, 236.112 200.200, 236.439 203.500 C 237.045 209.619, 239.520 219.744, 243.038 230.500 C 244.117 233.800, 245 237.203, 245 238.062 C 245 238.921, 245.900 241.487, 247 243.764 C 248.100 246.041, 249 248.600, 249 249.452 C 249 250.303, 249.394 251, 249.875 251 C 250.356 251, 251.011 252.306, 251.331 253.903 C 252.076 257.631, 260.994 276, 262.058 276 C 262.502 276, 263.151 276.900, 263.500 278 C 264.157 280.070, 268 280.842, 268 278.904 C 268 278.302, 268.829 276.614, 269.843 275.154 C 272.006 272.039, 276.621 259.440, 277.958 253 C 278.472 250.525, 279.541 245.350, 280.334 241.500 C 282.744 229.796, 283.191 221.087, 282.050 208.034 C 280.881 194.654, 279.516 188, 277.939 188 C 277.313 188, 277.158 193.284, 277.513 202.514 C 278.090 217.531, 276.800 232.421, 274.524 237 C 273.841 238.375, 273.020 241.197, 272.700 243.272 C 272.203 246.497, 270.307 251.395, 266.955 258.118 C 266.511 259.007, 265.640 261.623, 265.019 263.930 C 264.246 266.801, 263.411 268.027, 262.376 267.813 C 261.539 267.640, 259.060 263.252, 256.832 258 C 254.616 252.775, 252.397 247.719, 251.901 246.764 C 251.406 245.809, 251 243.896, 251 242.514 C 251 241.131, 250.587 240, 250.083 240 C 249.579 240, 248.204 236.738, 247.027 232.750 C 245.851 228.762, 244.013 222.768, 242.944 219.430 C 241.875 216.091, 241 212.478, 241 211.402 C 241 210.326, 240.216 208.332, 239.259 206.973 C 238.053 205.260, 237.449 202.235, 237.295 197.130 C 237.159 192.623, 236.493 188.876, 235.580 187.482 C 234.759 186.229, 233.579 182.120, 232.959 178.352 C 232.339 174.583, 231.215 169.250, 230.462 166.500 C 229.709 163.750, 228.605 159.588, 228.008 157.250 C 226.998 153.296, 225.733 151.969, 224.671 153.750 M 201.115 156.750 C 201.052 158.537, 200.597 160, 200.105 160 C 199.613 160, 198.996 161.688, 198.735 163.750 C 195.903 186.096, 193.927 197.927, 192.924 198.547 C 192.431 198.852, 190.131 197.278, 187.812 195.050 C 182.748 190.184, 181.546 189.979, 182.375 194.125 C 182.719 195.844, 183 197.991, 183 198.896 C 183 200.524, 184.863 202.727, 190.302 207.527 C 193.800 210.615, 194.811 210.628, 195.963 207.597 C 196.466 206.276, 197.336 204.910, 197.898 204.563 C 198.459 204.216, 198.825 201.623, 198.709 198.800 C 198.572 195.425, 198.928 193.525, 199.750 193.251 C 200.564 192.979, 201.012 190.684, 201.036 186.667 C 201.055 183.275, 201.453 176.225, 201.920 171 C 202.387 165.775, 202.423 159.700, 201.999 157.500 C 201.257 153.639, 201.226 153.613, 201.115 156.750 M 248 260.500 C 248 261.325, 248.675 262, 249.500 262 C 250.325 262, 251 261.325, 251 260.500 C 251 259.675, 250.325 259, 249.500 259 C 248.675 259, 248 259.675, 248 260.500 M 268.079 264.583 C 268.127 265.748, 268.364 265.985, 268.683 265.188 C 268.972 264.466, 268.936 263.603, 268.604 263.271 C 268.272 262.939, 268.036 263.529, 268.079 264.583 M 266.048 270.442 C 265.368 271.262, 265.003 272.509, 265.238 273.214 C 265.508 274.024, 266.123 273.638, 266.913 272.162 C 268.384 269.415, 267.824 268.303, 266.048 270.442 M 168.542 276.868 C 167.767 279.311, 168.684 283, 170.067 283 C 171.243 283, 171.262 277.963, 170.094 276.118 C 169.406 275.032, 169.074 275.193, 168.542 276.868" stroke="none" fill="black" fill-rule="evenodd"/>
</svg>