<svg xmlns="http://www.w3.org/2000/svg" width="300" height="300" viewBox="0 0 300 300" version="1.1">
	<path d="M 268 42.081 C 264.975 42.518, 259.125 43.361, 255 43.955 C 250.875 44.548, 246.375 44.944, 245 44.834 C 241.514 44.556, 227.282 44.853, 209 45.586 C 196.608 46.083, 192.134 45.886, 186.688 44.604 C 178.539 42.685, 179.433 42.717, 177.821 44.288 C 177.095 44.996, 174.813 46.367, 172.750 47.335 C 168.975 49.105, 168.146 51.097, 169.976 54 C 170.701 55.149, 174.030 55.659, 184.211 56.179 C 191.520 56.553, 200.029 57.166, 203.121 57.542 C 206.862 57.998, 208.972 57.854, 209.430 57.113 C 209.843 56.445, 213.590 55.968, 218.809 55.919 C 226.998 55.842, 227.327 55.758, 224.500 54.464 C 222.850 53.708, 222.179 53.070, 223.009 53.045 C 223.840 53.020, 225.081 52.100, 225.768 51 C 226.455 49.900, 228.091 49, 229.403 49 C 231.435 49, 231.893 49.631, 232.485 53.250 C 232.868 55.587, 233.265 60.425, 233.368 64 C 233.602 72.093, 234.982 80.871, 236.132 81.581 C 236.609 81.877, 237 81.379, 237 80.476 C 237 79.572, 237.563 79.019, 238.250 79.247 C 239.607 79.696, 240.332 89.101, 241.966 127.500 C 242.481 139.600, 242.959 150.400, 243.028 151.500 C 243.123 153.024, 242.490 173.977, 242.055 183.719 C 242.025 184.389, 241.404 184.709, 240.676 184.429 C 239.647 184.034, 239.367 180.262, 239.421 167.539 C 239.484 152.738, 239.025 148.642, 237.478 150.189 C 237.029 150.637, 236.020 186.396, 235.986 203 C 235.947 222.834, 237.258 259.605, 238.038 260.546 C 238.660 261.296, 238.143 262.456, 236.497 264.002 C 234.352 266.018, 233.677 266.174, 231.463 265.165 C 230.057 264.524, 226.452 264, 223.453 264 C 220.248 264, 218 263.559, 218 262.930 C 218 261.201, 213.551 262.341, 213.204 264.159 C 213.022 265.119, 215.040 267.882, 217.994 270.714 C 222.155 274.704, 224.185 275.850, 228.971 276.912 C 235.920 278.454, 237.352 277.880, 236.479 273.905 C 235.858 271.075, 235.945 271, 239.853 271 C 242.987 271, 244.004 271.438, 244.500 273 C 245.260 275.394, 246.311 275.535, 248.023 273.473 C 249.017 272.274, 249.123 266.832, 248.512 248.223 C 246.717 193.550, 246.778 197.560, 246.973 147 C 247.055 125.825, 246.712 106.475, 246.211 104 C 245.711 101.525, 245.359 90.950, 245.429 80.500 C 245.537 64.501, 245.838 60.927, 247.334 57.874 C 249.067 54.337, 249.286 54.230, 256.274 53.542 C 260.215 53.153, 264.281 52.385, 265.310 51.834 C 266.339 51.283, 269.278 50.750, 271.841 50.650 C 277.467 50.429, 279.005 49.577, 278.985 46.691 C 278.952 41.978, 276.330 40.877, 268 42.081 M 183.736 52.597 C 182.551 53.782, 184.024 55, 186.642 55 C 188.215 55, 189.011 54.529, 188.755 53.750 C 188.294 52.350, 184.788 51.545, 183.736 52.597 M 193.757 54.157 C 194.602 55.002, 195.803 55.029, 198.207 54.259 L 201.500 53.204 197.050 53.102 C 193.681 53.025, 192.881 53.281, 193.757 54.157 M 47.912 66.774 C 46.861 67.511, 46 69.008, 46 70.102 C 46 71.812, 45.535 72.003, 42.686 71.469 C 40.280 71.018, 39.003 71.292, 38.025 72.470 C 36.879 73.851, 36.977 74.494, 38.690 76.796 C 40.368 79.051, 41.592 79.551, 46.056 79.809 C 49.001 79.980, 52.330 79.663, 53.455 79.107 C 55.529 78.081, 66.357 76.607, 84.500 74.881 C 90 74.358, 95.850 73.799, 97.500 73.639 C 99.150 73.479, 101.689 73.270, 103.143 73.174 C 106.703 72.940, 107.623 70.178, 105.011 67.567 C 103.027 65.583, 101.873 65.499, 76.384 65.467 C 55.766 65.442, 49.397 65.734, 47.912 66.774 M 239.232 72 C 239.232 73.925, 239.438 74.713, 239.689 73.750 C 239.941 72.787, 239.941 71.213, 239.689 70.250 C 239.438 69.287, 239.232 70.075, 239.232 72 M 43 73.941 C 43 75.401, 44.648 76.072, 46.494 75.364 C 47.828 74.852, 47.897 74.550, 46.834 73.876 C 45.047 72.743, 43 72.778, 43 73.941 M 86.547 80.923 C 86.234 81.431, 83.941 81.768, 81.452 81.673 C 76.062 81.467, 74.670 82.958, 75.546 88 C 76.746 94.903, 77.484 114.068, 76.673 117.252 C 74.901 124.209, 73.801 131.872, 73.334 140.500 C 72.794 150.488, 72.700 150.627, 65.057 152.626 C 59.868 153.984, 58.803 153.727, 57.479 150.796 C 56.103 147.750, 54.294 147.479, 53.470 150.195 C 52.057 154.848, 49.007 157, 43.826 157 L 39 157 39 160.500 C 39 162.425, 39.450 164, 40 164 C 40.550 164, 41 164.675, 41 165.500 C 41 166.678, 42.382 167, 47.441 167 C 50.984 167, 54.134 166.592, 54.442 166.094 C 54.750 165.595, 57.161 164.890, 59.799 164.528 C 62.437 164.165, 65.208 163.489, 65.957 163.026 C 69.392 160.904, 69.999 162.883, 70.044 176.357 C 70.068 183.616, 70.693 192.186, 71.441 195.500 C 72.897 201.951, 73.229 201.561, 73.569 193 C 74.250 175.904, 75.370 162, 76.068 162 C 77.255 162, 78.239 165.798, 78.178 170.152 C 78.149 172.269, 78.547 174, 79.063 174 C 79.578 174, 80 172.425, 80 170.500 C 80 168.575, 80.450 167, 81 167 C 81.550 167, 82 165.893, 82 164.540 C 82 161.306, 86.314 157.403, 90.870 156.516 C 101.191 154.508, 104.927 153.839, 109.397 153.200 C 119.150 151.806, 117.454 146.094, 107.269 146.032 C 101.479 145.997, 88.344 147.797, 86 148.947 C 82.813 150.512, 82.027 149.065, 82.593 142.674 L 83.140 136.500 81.405 139.832 C 80.057 142.422, 79.488 142.836, 78.847 141.691 C 77.885 139.973, 79.866 129, 81.138 129 C 81.612 129, 82 129.436, 82 129.969 C 82 130.501, 82.634 130.694, 83.408 130.397 C 84.216 130.087, 85.050 127.860, 85.364 125.178 C 85.666 122.605, 86.397 117.575, 86.989 114 C 87.582 110.425, 88.322 103.900, 88.634 99.500 C 88.946 95.100, 89.738 90.825, 90.394 90 C 91.050 89.175, 92.190 87.291, 92.928 85.814 C 94.082 83.503, 94.051 82.908, 92.706 81.564 C 90.985 79.842, 87.443 79.474, 86.547 80.923 M 235.802 100.500 C 234.946 108.089, 234.994 111.878, 235.954 112.472 C 237.327 113.320, 238.078 105.992, 237.182 100.500 L 236.366 95.500 235.802 100.500 M 80.599 109.840 C 79.769 111.183, 79.431 124.765, 80.209 125.542 C 80.596 125.930, 81.663 125.960, 82.579 125.608 C 83.845 125.122, 84.095 124.224, 83.622 121.860 C 83.280 120.149, 83 116.556, 83 113.875 C 83 109.449, 81.941 107.669, 80.599 109.840 M 235.667 118.667 C 234.340 119.993, 234.954 126, 236.417 126 C 238.197 126, 238.723 124.470, 238.190 120.840 C 237.780 118.045, 236.979 117.355, 235.667 118.667 M 235.336 130.567 C 235.005 131.429, 235.244 132.644, 235.867 133.267 C 236.490 133.890, 237.030 135.322, 237.068 136.450 C 237.133 138.439, 237.167 138.435, 238.192 136.314 C 239.364 133.890, 238.533 129, 236.950 129 C 236.393 129, 235.667 129.705, 235.336 130.567 M 148.035 133.688 C 146.710 134.616, 144.022 135.634, 142.063 135.950 C 138.694 136.493, 138.483 136.755, 138.193 140.762 C 138.011 143.268, 138.317 145, 138.943 145 C 139.524 145, 140 146.493, 140 148.318 C 140 152.963, 142.765 161.763, 145.302 165.194 C 147.503 168.171, 148.724 174.543, 149.654 187.906 C 150.195 195.692, 152.439 200.355, 153.448 195.792 C 155.081 188.406, 155.999 180.807, 155.379 179.805 C 154.573 178.501, 154.202 174.474, 153.387 158.202 L 152.820 146.903 167.160 147.576 C 175.047 147.946, 181.928 148.642, 182.450 149.124 C 182.973 149.606, 184.548 150.012, 185.950 150.026 C 187.659 150.043, 190.067 151.650, 193.250 154.897 C 197.517 159.249, 198 160.207, 198 164.312 C 198 166.826, 197.550 169.160, 197 169.500 C 196.450 169.840, 196 170.774, 196 171.577 C 196 172.379, 193.015 175.840, 189.367 179.268 C 185.719 182.695, 181.556 186.625, 180.117 188 C 176.927 191.048, 167.437 196, 164.788 196 C 160.152 196, 158.096 203.330, 162.041 205.793 C 163.163 206.494, 164.401 206.870, 164.791 206.629 C 165.181 206.388, 170.450 205.906, 176.500 205.558 C 182.550 205.210, 191.100 204.057, 195.500 202.996 C 199.900 201.935, 204.579 200.940, 205.898 200.784 C 209.304 200.381, 210.802 197.659, 208.749 195.606 C 206.975 193.832, 201.472 193.427, 200.500 195 C 199.693 196.305, 187 196.311, 187 195.006 C 187 194.459, 189.025 191.958, 191.500 189.447 C 193.975 186.936, 196 184.275, 196 183.533 C 196 182.791, 198.060 180.064, 200.577 177.474 C 204.448 173.492, 205.372 171.742, 206.567 166.133 C 207.855 160.093, 207.826 159.189, 206.241 156.024 C 204.242 152.032, 195.832 143, 194.114 143 C 193.479 143, 191.137 141.849, 188.909 140.442 C 185.038 137.999, 184.337 137.903, 173.179 138.296 C 166.755 138.523, 160.320 139.040, 158.879 139.446 C 156.476 140.122, 156.202 139.891, 155.601 136.689 C 155.028 133.631, 153.476 132, 151.141 132 C 150.758 132, 149.361 132.760, 148.035 133.688 M 237 144 C 237 147.660, 237.207 148.073, 238.500 147 C 239.325 146.315, 240 144.965, 240 144 C 240 143.035, 239.325 141.685, 238.500 141 C 237.207 139.927, 237 140.340, 237 144 M 76.875 189.750 C 76.806 192.912, 76.693 198.650, 76.625 202.500 C 76.510 208.954, 76.324 209.525, 74.250 209.820 C 71.586 210.198, 71.190 213, 73.800 213 C 74.790 213, 76.115 213.515, 76.745 214.145 C 77.604 215.004, 78.043 214.677, 78.506 212.830 C 78.846 211.478, 79.024 209.950, 78.903 209.436 C 78.782 208.921, 78.941 207.825, 79.257 207 C 80.247 204.416, 80.903 192.693, 80.307 188.250 C 79.416 181.612, 77.029 182.655, 76.875 189.750 M 241.015 190.482 C 240.066 191.626, 239.866 195.618, 240.224 206.257 C 240.488 214.090, 240.346 225.124, 239.907 230.775 C 239.294 238.684, 239.441 242.138, 240.544 245.775 C 242.214 251.275, 242.386 255.856, 241.054 259.357 C 240.341 261.234, 240.483 262.156, 241.630 263.108 C 243.767 264.882, 245.203 262.437, 244.336 258.500 C 243.973 256.850, 243.626 240.790, 243.566 222.811 C 243.505 204.832, 243.192 189.859, 242.870 189.537 C 242.548 189.215, 241.713 189.641, 241.015 190.482 M 78.113 217.920 C 77.159 218.516, 76.942 219.680, 77.418 221.644 C 78.628 226.639, 78.539 228.218, 77 229.003 C 73.349 230.865, 70.253 231.912, 67 232.382 C 65.075 232.661, 61.250 233.337, 58.500 233.885 C 55.750 234.433, 50.939 234.908, 47.809 234.940 C 44.679 234.973, 41.840 235.450, 41.500 236 C 41.160 236.550, 37.318 237, 32.961 237 C 28.016 237, 23.530 237.604, 21.020 238.609 C 17.320 240.089, 17 240.518, 17 243.994 C 17 248.852, 20.433 251.441, 25.859 250.675 C 31.587 249.866, 35.448 248.781, 36.091 247.799 C 36.417 247.302, 42.492 246.237, 49.591 245.433 C 56.691 244.628, 63.400 243.592, 64.500 243.130 C 67.560 241.844, 83.709 238.090, 91 236.969 C 119.025 232.660, 119.580 232.537, 120.371 230.475 C 121.637 227.176, 118.337 226.675, 99.493 227.302 C 81.262 227.908, 78.128 227.472, 80.887 224.713 C 82.234 223.366, 82.367 220, 81.073 220 C 80.564 220, 80.001 219.337, 79.823 218.526 C 79.607 217.541, 79.041 217.340, 78.113 217.920 M 41 242.969 C 41 243.501, 41.675 243.678, 42.500 243.362 C 43.325 243.045, 44 242.609, 44 242.393 C 44 242.177, 43.325 242, 42.500 242 C 41.675 242, 41 242.436, 41 242.969" stroke="none" fill="black" fill-rule="evenodd"/>
</svg>