<svg xmlns="http://www.w3.org/2000/svg" width="300" height="300" viewBox="0 0 300 300" version="1.1">
	<path d="M 194 12.351 C 194 14.804, 196.177 20, 197.205 20 C 197.760 20, 197.955 20.675, 197.638 21.500 C 197.278 22.439, 197.647 23, 198.626 23 C 199.486 23, 202.189 24.906, 204.633 27.236 C 207.078 29.565, 209.898 31.928, 210.901 32.486 C 212.511 33.381, 215.679 36.894, 226.354 49.616 C 227.923 51.486, 228.980 53.576, 228.701 54.258 C 228.422 54.941, 225.563 56.842, 222.347 58.482 C 219.131 60.123, 215.600 62.186, 214.500 63.067 C 211.563 65.421, 203.318 68.628, 196.767 69.965 C 193.615 70.608, 190.775 71.554, 190.458 72.067 C 189.834 73.078, 186 73.375, 186 72.413 C 186 72.090, 185.348 66.353, 184.551 59.663 C 183.754 52.973, 182.886 43.520, 182.623 38.655 C 182.360 33.791, 181.917 29.583, 181.639 29.305 C 180.626 28.293, 178.880 30.245, 179.456 31.746 C 179.782 32.595, 179.298 34.119, 178.380 35.132 C 176.980 36.679, 176.819 38.302, 177.373 45.238 C 177.737 49.782, 178.235 56.650, 178.479 60.500 C 178.724 64.350, 179.193 69.410, 179.522 71.744 C 180.253 76.924, 180.213 76.945, 164 79.921 C 151.344 82.245, 142.999 82.599, 141.287 80.887 C 139.989 79.589, 138 80.527, 138 82.437 C 138 85.038, 140.664 85.852, 149.512 85.952 C 158.871 86.058, 167.487 84.977, 172.333 83.090 C 174.830 82.117, 175.498 82.301, 177.971 84.634 L 180.776 87.282 181.459 108.891 C 182.760 150.056, 182.799 152.707, 182.134 153.784 C 181.492 154.822, 176.176 158.570, 160.053 169.352 C 154.080 173.347, 137 188.953, 137 190.416 C 137 190.609, 138.238 191.011, 139.750 191.310 C 143.013 191.955, 150 187.938, 150 185.417 C 150 184.511, 156.262 179.124, 163.776 173.567 C 166.924 171.238, 172.200 167.012, 175.500 164.175 C 178.800 161.339, 181.821 159.014, 182.213 159.009 C 182.605 159.004, 182.938 165.412, 182.953 173.250 C 182.968 181.088, 183.057 199.991, 183.150 215.257 C 183.243 230.523, 183.111 243.222, 182.857 243.477 C 182.365 243.968, 180.817 242.461, 173.731 234.594 C 167.146 227.283, 166.257 228.520, 168.410 242 C 169.151 246.636, 170.741 249.480, 175.189 254.122 C 179.981 259.123, 182.837 260.509, 186.472 259.596 C 188.843 259.001, 191.533 253.671, 190.393 251.827 C 189.464 250.324, 189.233 241.896, 189.039 202.500 C 188.878 169.858, 187.849 127.294, 186.473 96.315 C 186.027 86.273, 186.058 86.100, 188.645 84.065 C 190.089 82.929, 191.693 82, 192.210 82 C 193.697 82, 207 73.863, 207 72.953 C 207 72.503, 208.012 71.819, 209.250 71.432 C 210.488 71.046, 212.917 69.553, 214.650 68.115 C 216.382 66.677, 221.445 63.297, 225.900 60.604 C 230.355 57.911, 234 55.530, 234 55.312 C 234 53.329, 216.632 31.984, 211.370 27.500 C 208.788 25.300, 204.911 21.846, 202.754 19.825 C 200.596 17.803, 198.194 15.905, 197.416 15.606 C 196.637 15.307, 196 14.149, 196 13.031 C 196 11.914, 195.550 11, 195 11 C 194.450 11, 194 11.608, 194 12.351 M 188 79.559 C 188 80.416, 188.450 80.840, 189 80.500 C 189.550 80.160, 190 79.459, 190 78.941 C 190 78.423, 189.550 78, 189 78 C 188.450 78, 188 78.702, 188 79.559 M 148.813 84.683 C 149.534 84.972, 150.397 84.936, 150.729 84.604 C 151.061 84.272, 150.471 84.036, 149.417 84.079 C 148.252 84.127, 148.015 84.364, 148.813 84.683 M 86.500 94.969 C 84.300 95.416, 79.800 96.339, 76.500 97.020 C 69.664 98.430, 62.813 101.444, 60.412 104.098 C 58.879 105.791, 58.933 105.945, 61.272 106.532 C 62.876 106.935, 65.225 106.415, 67.844 105.079 C 70.086 103.936, 72.833 103, 73.949 103 C 75.065 103, 78.346 102.100, 81.239 101.001 C 84.728 99.675, 88.922 99.001, 93.691 99.001 C 100.874 99, 102.489 98.410, 101.165 96.267 C 100.220 94.738, 91.456 93.963, 86.500 94.969 M 79.485 107.750 C 80.342 112.288, 80.327 119.744, 79.442 130.653 L 78.780 138.806 74 141.903 C 71.371 143.606, 68.716 145, 68.099 145 C 67.483 145, 65.071 145.864, 62.739 146.919 C 60.408 147.975, 57.529 149.117, 56.342 149.457 C 53.815 150.182, 52.838 152.119, 54.029 154.046 C 55.133 155.833, 63.403 153.883, 70.255 150.219 C 72.870 148.821, 75.197 147.863, 75.425 148.092 C 76.009 148.675, 74.131 183.979, 73.459 185.067 C 72.265 186.998, 69.909 206.110, 69.522 217 L 69.114 228.500 65.307 229.354 C 63.213 229.824, 59.700 230.812, 57.500 231.549 C 50.526 233.889, 46.118 234.343, 44.381 232.901 C 43.029 231.779, 42.572 231.865, 41.408 233.457 C 40.084 235.267, 39.957 235.271, 38.053 233.548 C 35.912 231.610, 33 232.070, 33 234.346 C 33 236.507, 35.164 237.842, 40.761 239.134 C 45.055 240.125, 46.243 240.071, 48.191 238.794 C 49.529 237.918, 51.803 237.464, 53.562 237.722 C 55.567 238.017, 57.065 237.627, 57.929 236.585 C 58.769 235.574, 60.852 235, 63.688 235 C 66.132 235, 69.114 234.469, 70.316 233.820 C 73.009 232.365, 81.517 230.157, 89.500 228.841 C 92.843 228.290, 96.053 227.136, 96.750 226.235 C 97.479 225.292, 98 225.115, 98 225.809 C 98 227.553, 101.961 227.265, 102.650 225.470 C 103.012 224.527, 103.935 224.162, 105.057 224.518 C 108.036 225.464, 122.548 217.225, 120.871 215.541 C 120.174 214.840, 108.522 217.856, 100 220.943 C 96.975 222.038, 93.375 222.980, 92 223.035 C 90.625 223.090, 86.350 224.166, 82.500 225.427 C 75.070 227.860, 73.467 227.805, 74.513 225.149 C 74.870 224.242, 75.324 220.125, 75.521 216 C 75.964 206.729, 77.777 191.519, 78.918 187.500 C 81.145 179.660, 82.207 173, 81.496 171.335 C 80.856 169.836, 80.496 170.222, 79.533 173.440 C 78.850 175.720, 78.055 176.898, 77.646 176.236 C 76.667 174.652, 78.022 169.728, 79.799 168.416 C 80.781 167.690, 81.367 165.048, 81.572 160.416 C 82.164 147.023, 84.288 143.050, 96.635 132.240 C 104.337 125.497, 106.248 124, 107.153 124 C 107.619 124, 108 123.373, 108 122.607 C 108 120.342, 105.098 119.902, 103.131 121.869 C 102.128 122.872, 99.264 125.098, 96.766 126.817 C 94.269 128.535, 90.938 131.305, 89.366 132.971 C 85.538 137.027, 83.625 136.983, 84.531 132.860 C 85.589 128.044, 85.855 108.784, 84.898 106.250 C 84.314 104.700, 83.229 104, 81.413 104 C 78.908 104, 78.813 104.186, 79.485 107.750 M 222.903 107.750 C 221.660 109.813, 219.175 112.748, 217.382 114.273 C 210.935 119.755, 198.747 135.377, 195.804 141.930 C 188.958 157.176, 191.772 158.161, 201 143.749 C 204.586 138.149, 211.589 129.293, 216.620 123.997 C 221.636 118.716, 226.054 113.407, 226.437 112.198 C 226.821 110.989, 227.506 110, 227.960 110 C 229.422 110, 230.071 106.790, 228.895 105.373 C 227.015 103.108, 225.288 103.793, 222.903 107.750 M 51 112 C 51 112.550, 51.423 113, 51.941 113 C 52.459 113, 53.160 112.550, 53.500 112 C 53.840 111.450, 53.416 111, 52.559 111 C 51.702 111, 51 111.450, 51 112 M 144.703 140.112 C 143.165 141.872, 142.127 143.889, 142.397 144.593 C 144.157 149.178, 176 143.118, 176 138.198 C 176 137.190, 175.335 136.957, 173.750 137.410 C 164.428 140.076, 158.701 140.092, 149.500 137.478 C 148.073 137.073, 146.699 137.827, 144.703 140.112 M 49 153.882 C 49 154.432, 49.450 155.160, 50 155.500 C 50.550 155.840, 51 155.668, 51 155.118 C 51 154.568, 50.550 153.840, 50 153.500 C 49.450 153.160, 49 153.332, 49 153.882 M 199.562 154.581 C 198.121 156.022, 198.181 156.408, 200.241 158.951 C 201.483 160.485, 202.802 161.569, 203.172 161.359 C 203.541 161.150, 206.639 164.358, 210.056 168.489 C 213.473 172.620, 216.674 176, 217.168 176 C 217.662 176, 219.642 177.575, 221.567 179.500 C 223.994 181.927, 225.976 183, 228.033 183 C 231.340 183, 232.220 180.405, 229.294 179.283 C 225.231 177.724, 213.867 166.360, 206.137 156.128 C 203.496 152.631, 201.890 152.253, 199.562 154.581 M 241.500 178.280 C 240.400 178.951, 237.925 179.964, 236 180.532 C 231.845 181.757, 232.211 183.542, 236.587 183.400 C 239.561 183.304, 246 179.482, 246 177.812 C 246 176.640, 243.817 176.867, 241.500 178.280" stroke="none" fill="black" fill-rule="evenodd"/>
</svg>