<svg xmlns="http://www.w3.org/2000/svg" width="300" height="300" viewBox="0 0 300 300" version="1.1">
	<path d="M 195.783 14.750 C 192.884 18.075, 191.981 20.930, 191.372 28.700 C 190.651 37.902, 189.718 38.994, 182.559 39.015 C 173.831 39.040, 168.542 43.735, 174.632 46.050 C 177.096 46.987, 186.886 47.558, 189.511 46.918 C 191.803 46.359, 196 49.022, 196 51.034 C 196 52.180, 195.581 52.859, 195.069 52.543 C 193.360 51.487, 192.946 53.831, 193.836 59.511 C 194.659 64.756, 194.564 65.240, 192.437 66.634 C 191.181 67.456, 187.082 68.541, 183.327 69.044 C 176.382 69.974, 169.134 71.814, 167.717 73.007 C 165.257 75.077, 171.096 79, 176.637 79 C 178.467 79, 178.925 78.510, 178.738 76.750 C 178.534 74.820, 179.034 74.456, 182.250 74.190 C 185.785 73.897, 187.472 75.308, 184.750 76.280 C 182.591 77.051, 184.739 78.218, 186.997 77.501 C 188.430 77.046, 188.943 76.294, 188.538 75.240 C 187.859 73.470, 189.555 72.038, 192.357 72.015 C 193.627 72.005, 194.026 72.490, 193.618 73.552 C 193.291 74.406, 193.659 76.094, 194.438 77.302 C 195.346 78.713, 196.105 84.029, 196.556 92.139 L 197.258 104.779 191.879 105.946 C 188.921 106.588, 181.775 107.788, 176 108.612 C 161.677 110.655, 159.814 111.455, 160.197 115.393 C 160.540 118.911, 160.780 118.945, 174.895 117.462 C 181.010 116.820, 182.006 116.477, 180.645 115.483 C 178.107 113.627, 178.662 112.993, 182.750 113.079 C 184.813 113.122, 185.935 113.386, 185.244 113.664 C 183.263 114.463, 184.857 116, 187.666 116 C 189.543 116, 190.059 115.597, 189.627 114.470 C 188.821 112.371, 193.543 110.143, 195.227 111.827 C 196.124 112.724, 196.059 113.003, 194.950 113.015 C 194.152 113.023, 194.583 113.585, 195.906 114.265 C 198.186 115.436, 198.307 115.968, 198.237 124.500 C 198.196 129.450, 198.379 132.740, 198.643 131.811 C 199.080 130.275, 199.297 130.297, 201.061 132.061 C 202.128 133.128, 202.971 135.012, 202.937 136.250 L 202.873 138.500 201.969 136.250 C 200.560 132.744, 199 133.600, 199 137.878 C 199 142.475, 197.190 144.337, 193.595 143.435 C 192.063 143.050, 189.353 143.442, 186.979 144.392 C 184.769 145.276, 181.904 146, 180.615 146 C 179.325 146, 177.126 146.900, 175.727 148 C 174.329 149.100, 172.018 150, 170.592 150 C 167.894 150, 167.151 152.112, 168.886 154.850 C 170.233 156.975, 185.980 155.081, 189.023 152.429 C 190.014 151.565, 191.059 151.418, 192.015 152.009 C 192.822 152.508, 194.471 152.669, 195.678 152.366 C 197.547 151.897, 198.028 152.390, 198.914 155.681 C 199.487 157.807, 199.924 160.886, 199.886 162.523 C 199.847 164.161, 199.884 171.913, 199.966 179.752 C 200.049 187.590, 199.793 194.526, 199.398 195.166 C 198.509 196.603, 196.679 220.490, 196.576 232 L 196.500 240.500 193.679 240.302 C 190.412 240.073, 183.209 234.297, 183.085 231.807 C 183.038 230.875, 182.213 229.525, 181.250 228.807 C 179.736 227.676, 179.466 225.411, 179.245 212 C 178.730 180.703, 178.635 180.274, 173.392 185.517 C 170.730 188.179, 170.728 188.196, 171.422 199.161 C 172.205 211.549, 172.578 213.099, 174.583 212.330 C 176.081 211.755, 176.381 212.842, 175.417 215.355 C 175.097 216.190, 174.255 216.651, 173.546 216.379 C 172.278 215.893, 170.619 218.552, 171.387 219.840 C 171.603 220.203, 171.192 226.415, 170.473 233.644 C 169.506 243.365, 168.479 248.442, 166.531 253.144 C 165.081 256.640, 163.493 262.159, 163.001 265.408 C 162.510 268.657, 161.713 271.582, 161.231 271.908 C 159.784 272.885, 159.018 275.893, 160.053 276.533 C 162.024 277.751, 165.092 275.739, 167.017 271.967 C 168.108 269.829, 169 267.529, 169 266.856 C 169 266.182, 169.839 263.802, 170.865 261.566 C 174.562 253.505, 176.213 247.817, 175.660 245.051 C 175.328 243.391, 175.667 241.482, 176.491 240.373 C 177.662 238.798, 178.170 238.702, 179.691 239.769 C 180.686 240.467, 182.768 241.631, 184.318 242.357 C 185.868 243.083, 187.071 244.087, 186.991 244.588 C 186.823 245.643, 187.548 246.046, 195 249.041 C 198.025 250.256, 200.725 251.600, 201 252.027 C 201.275 252.454, 202.850 253.028, 204.500 253.304 C 208.982 254.053, 211.222 255.137, 213.607 257.710 C 214.873 259.076, 216.392 259.787, 217.301 259.438 C 218.149 259.112, 219.891 259.425, 221.172 260.133 C 222.452 260.841, 224.063 261.305, 224.750 261.166 C 225.438 261.026, 226 261.331, 226 261.843 C 226 262.354, 227.238 263.007, 228.750 263.293 C 230.262 263.579, 232.519 264.134, 233.765 264.527 C 235.527 265.083, 235.903 264.911, 235.458 263.752 C 234.972 262.486, 235.411 262.427, 238.386 263.358 C 240.497 264.019, 241.423 264.738, 240.721 265.172 C 239.180 266.125, 239.842 266.625, 243.750 267.463 C 246.387 268.027, 247 267.847, 247 266.506 C 247 265.469, 247.652 264.980, 248.750 265.193 C 249.713 265.380, 250.501 266.419, 250.502 267.503 C 250.504 269.968, 253.955 270.782, 255.491 268.681 C 256.703 267.024, 258.306 267.593, 259.207 270 C 259.558 270.937, 263.431 272.379, 269.519 273.842 C 277.516 275.762, 279.421 275.942, 280.118 274.842 C 281.487 272.679, 280.640 271.639, 275.512 269.182 C 269.305 266.209, 253.263 261, 250.313 261 C 249.066 261, 245.057 259.875, 241.404 258.500 C 237.751 257.125, 233.947 256, 232.950 256 C 230.172 256, 215 250.795, 215 249.841 C 215 249.379, 214.213 248.992, 213.250 248.983 C 212.287 248.973, 210.440 247.848, 209.145 246.483 C 207.850 245.117, 206.219 244, 205.520 244 C 203.535 244, 203.038 228.130, 204.676 217 C 206.036 207.753, 206.185 207.401, 210.287 203.793 C 212.604 201.754, 215 200.066, 215.610 200.043 C 216.221 200.019, 218.284 198.939, 220.195 197.642 C 222.106 196.346, 225.206 194.993, 227.085 194.637 C 228.963 194.281, 231.789 193.317, 233.364 192.495 C 235.281 191.494, 239.178 191, 245.146 191 C 252.391 191, 254.178 190.701, 254.676 189.403 C 255.545 187.137, 250.397 183.317, 245.611 182.675 C 237.967 181.649, 223.179 185.590, 212.687 191.448 C 210.084 192.901, 207.627 193.888, 207.227 193.641 C 206.827 193.393, 206.538 184.544, 206.584 173.975 C 206.685 151.073, 206.362 151.674, 219.125 150.610 C 223.427 150.251, 227.634 149.694, 228.473 149.372 C 230.205 148.707, 230.531 145.446, 228.963 144.477 C 227.509 143.579, 211.967 143.507, 209.283 144.387 C 207.492 144.974, 206.963 144.671, 206.526 142.807 C 205.812 139.758, 205.191 116.860, 205.778 115.221 C 206.030 114.518, 208.208 113.044, 210.618 111.946 C 213.028 110.848, 215 109.527, 215 109.010 C 215 107.567, 218.966 105.773, 220.691 106.435 C 221.883 106.892, 221.967 107.335, 221.064 108.423 C 219.505 110.301, 220.689 110.775, 225.632 110.250 C 228.986 109.895, 229.677 109.479, 229.301 108.044 C 229.047 107.072, 229.478 106.030, 230.260 105.730 C 232.229 104.975, 234.420 106.511, 233.499 108.002 C 231.389 111.416, 233.501 139.879, 236.056 142.450 C 238.285 144.693, 239.185 140.654, 239.616 126.490 C 239.863 118.382, 240.534 110.870, 241.109 109.796 C 241.684 108.722, 241.908 107.204, 241.608 106.422 C 241.293 105.599, 241.668 105, 242.500 105 C 243.430 105, 243.712 105.588, 243.299 106.664 C 242.882 107.749, 243.050 108.087, 243.780 107.636 C 244.398 107.254, 245.386 107.852, 245.985 108.972 C 248.678 114.004, 254.378 109.166, 253.815 102.326 L 253.500 98.500 247.723 98.761 C 243.770 98.940, 241.811 98.625, 241.520 97.761 C 241.285 97.068, 240.848 91.775, 240.549 86 C 240.249 80.225, 239.804 73.386, 239.559 70.802 C 239.098 65.929, 236.913 61.564, 234.466 60.625 C 232.947 60.042, 219.538 61.394, 209.089 63.183 C 203.258 64.182, 202.556 64.113, 201.317 62.419 C 200.568 61.395, 200.191 59.945, 200.478 59.197 C 200.765 58.449, 201 54.790, 201 51.066 L 201 44.296 210.250 43.565 C 221.876 42.646, 220.872 42.650, 231.246 43.483 C 238.772 44.087, 240.078 43.961, 240.608 42.580 C 241.376 40.577, 239.636 38.388, 236.719 37.690 C 235.499 37.397, 231.637 36.441, 228.138 35.565 C 221.340 33.862, 214.444 33.509, 202.500 34.251 L 198.500 34.500 198.857 30 C 199.054 27.525, 199.841 24.285, 200.607 22.800 C 203.968 16.284, 200.090 9.813, 195.783 14.750 M 82.724 39.134 C 81.404 39.873, 81 41.446, 81 45.850 C 81 49.012, 80.616 52.028, 80.147 52.550 C 79.679 53.073, 78.717 55.649, 78.010 58.276 C 77.304 60.902, 76.412 63.245, 76.029 63.482 C 75.645 63.719, 73.473 67.645, 71.202 72.207 C 68.931 76.768, 64.953 82.750, 62.362 85.500 C 59.770 88.250, 53.942 94.361, 49.409 99.080 C 35.987 113.056, 35.807 118.860, 48.442 130.348 C 58.717 139.691, 60.059 140.671, 65.097 142.518 C 72.595 145.267, 72.943 145.312, 73.600 143.601 C 74.458 141.363, 72.471 139.262, 68.716 138.438 C 66.857 138.029, 63.371 135.565, 60.192 132.411 C 57.234 129.477, 53.996 126.816, 52.996 126.499 C 50.801 125.802, 48.572 122.537, 47.601 118.596 C 46.277 113.227, 48.075 110.644, 68.853 88.058 C 70.147 86.651, 72.064 83.925, 73.113 82 C 74.163 80.075, 75.396 77.825, 75.855 77 C 76.314 76.175, 77.299 74.375, 78.044 73 C 78.789 71.625, 80.745 68.041, 82.390 65.036 C 85.450 59.448, 86.786 54.464, 87.674 45.332 C 88.094 41.001, 87.874 40.003, 86.312 39.167 C 85.106 38.521, 83.840 38.510, 82.724 39.134 M 204.029 39.961 C 203.220 40.473, 202.850 41.184, 203.207 41.541 C 204.184 42.518, 210.105 40.979, 209.450 39.919 C 208.722 38.741, 205.923 38.763, 204.029 39.961 M 89.467 64.424 C 88.660 66.355, 88 68.213, 88 68.553 C 88 68.892, 85.239 74.807, 81.865 81.696 C 78.490 88.586, 75.516 96.115, 75.255 98.427 C 74.670 103.623, 76.612 113.433, 78.544 115.036 C 79.333 115.691, 79.763 116.575, 79.500 117 C 79.237 117.425, 79.700 118.336, 80.529 119.024 C 81.359 119.713, 82.755 121.789, 83.632 123.638 C 84.598 125.672, 85.960 127, 87.083 127 C 88.320 127, 88.746 127.499, 88.362 128.500 C 88.009 129.418, 88.362 130, 89.271 130 C 90.087 130, 91.343 130.708, 92.061 131.573 C 95.904 136.204, 108.703 139.677, 117.034 138.351 C 121.959 137.567, 122.500 137.235, 122.500 134.991 C 122.500 132.586, 122.302 132.512, 116.755 132.842 C 105.524 133.511, 93.121 127.063, 87.734 117.757 C 82.223 108.234, 82.048 94.803, 87.325 86.161 C 91.370 79.534, 91.919 78.542, 93.911 74.255 C 95.170 71.544, 96.898 69.609, 98.691 68.898 C 103.116 67.147, 104.359 66.425, 104.674 65.429 C 105.386 63.175, 102.924 61.862, 97.125 61.403 L 90.935 60.912 89.467 64.424 M 135.871 66.040 C 134.567 67.772, 132.272 70.521, 130.772 72.150 C 129.271 73.778, 126.346 77.218, 124.272 79.795 C 114.641 91.756, 112.925 95.040, 111.871 103.532 C 111.248 108.555, 111.287 112.352, 111.990 114.963 C 113.169 119.339, 120.822 127.871, 125.297 129.796 C 129.202 131.477, 137.217 131.310, 139.559 129.500 C 141.480 128.015, 141.480 127.985, 139.559 126.500 C 138.491 125.675, 135.881 125, 133.759 125 C 129.343 125, 125.435 123.229, 122.388 119.845 C 120.305 117.532, 118 110.210, 118 105.904 C 118 103.153, 122.367 93.770, 124.453 92.039 C 125.304 91.333, 126 90.323, 126 89.796 C 126 88.199, 132.990 79.843, 139.271 73.931 C 143.874 69.599, 145.110 67.823, 144.843 65.931 C 144.575 64.031, 143.817 63.434, 141.371 63.196 C 138.845 62.950, 137.785 63.498, 135.871 66.040 M 213.774 69.861 C 213.206 71.941, 212.645 72.176, 209.068 71.835 C 205.198 71.466, 204.954 71.610, 203.862 74.917 C 202.379 79.412, 203.489 100.917, 205.297 102.725 C 206.231 103.659, 207.455 103.730, 210.008 102.998 C 211.906 102.453, 217.743 101.719, 222.979 101.366 C 230.106 100.885, 232.921 100.287, 234.174 98.986 C 235.372 97.741, 235.541 96.941, 234.767 96.167 C 234.173 95.573, 233.556 90.547, 233.397 84.999 C 233.237 79.450, 232.827 74.030, 232.485 72.954 C 231.594 70.144, 228.459 68.684, 226.066 69.965 C 225.002 70.534, 222.110 71, 219.639 71 C 216.166 71, 215.064 70.603, 214.783 69.250 C 214.496 67.867, 214.284 67.996, 213.774 69.861 M 235 106.622 C 235 107.951, 235.271 108.020, 236.500 107 C 237.325 106.315, 238 105.585, 238 105.378 C 238 105.170, 237.325 105, 236.500 105 C 235.675 105, 235 105.730, 235 106.622 M 169 115.500 C 169 116.417, 169.484 117.005, 170.075 116.808 C 170.666 116.611, 171.150 116.023, 171.150 115.500 C 171.150 114.977, 170.666 114.389, 170.075 114.192 C 169.484 113.995, 169 114.583, 169 115.500 M 191.750 149.662 C 192.438 149.940, 193.563 149.940, 194.250 149.662 C 194.938 149.385, 194.375 149.158, 193 149.158 C 191.625 149.158, 191.063 149.385, 191.750 149.662 M 182.500 151 C 182.160 151.550, 182.359 152, 182.941 152 C 183.523 152, 184 151.550, 184 151 C 184 150.450, 183.802 150, 183.559 150 C 183.316 150, 182.840 150.450, 182.500 151 M 118 157.010 C 113.875 158.094, 108.700 159.627, 106.500 160.417 C 94.407 164.762, 86.992 166, 73.060 166 C 61.741 166, 58.849 166.293, 57.571 167.571 C 55.685 169.458, 55.521 172.575, 57.250 173.684 C 57.938 174.126, 65.090 174.329, 73.144 174.137 L 87.788 173.788 88.353 177.644 C 89.490 185.411, 90.175 197.872, 89.570 199.780 C 89.051 201.414, 87.662 201.859, 81.224 202.453 C 76.976 202.844, 71.250 203.240, 68.500 203.332 C 64.100 203.480, 63.461 203.777, 63.173 205.805 C 62.606 209.805, 64.319 210.643, 72.719 210.475 C 76.999 210.390, 81.850 210.024, 83.500 209.662 C 88.836 208.491, 89.340 209.600, 90.110 224.185 C 90.496 231.508, 91.292 238.734, 91.878 240.241 C 93.211 243.669, 92.413 245.886, 89.640 246.461 C 88.463 246.705, 82.695 247.192, 76.822 247.543 C 68.298 248.054, 65.812 248.551, 64.493 250.008 C 63.184 251.454, 63.072 252.267, 63.955 253.917 C 64.934 255.744, 65.994 256, 72.594 256 C 77.355 256, 79.891 255.633, 79.500 255 C 78.350 253.140, 79.996 251.928, 82.125 253.067 C 83.592 253.852, 84.520 253.813, 85.595 252.921 C 86.776 251.941, 87.320 252.055, 88.380 253.505 C 89.517 255.060, 90.609 255.214, 96.336 254.627 C 103.713 253.871, 106.219 253.164, 105.522 252.035 C 105.265 251.619, 108.305 251.418, 112.277 251.587 C 116.250 251.756, 122.728 251.272, 126.673 250.512 C 130.618 249.751, 135.237 249.169, 136.937 249.217 C 138.637 249.266, 140.325 249.008, 140.689 248.645 C 141.052 248.281, 141.463 242.475, 141.602 235.742 C 141.859 223.275, 142.340 216.019, 143.895 201.158 C 144.499 195.379, 144.348 188.805, 143.401 179.762 C 141.601 162.547, 141.054 159.807, 139.035 157.868 C 136.197 155.141, 126.604 154.750, 118 157.010 M 127 163.890 C 126.175 164.347, 122.592 165.275, 119.038 165.952 C 115.483 166.630, 111.671 167.818, 110.565 168.592 C 107.772 170.549, 106.675 170.350, 107.290 168 C 108.051 165.090, 105.552 165.492, 104.182 168.500 C 103.160 170.742, 100.439 171.701, 96.750 171.118 C 95.055 170.851, 96.171 173.066, 98.500 174.592 C 101.522 176.572, 101.651 178.100, 99 180.500 C 97.287 182.050, 97 183.580, 97 191.155 C 97 196.020, 97.338 199.989, 97.750 199.976 C 98.162 199.962, 100.525 199.482, 103 198.909 C 108.961 197.529, 119.829 197.429, 121.142 198.742 C 121.717 199.317, 122.027 200.623, 121.831 201.644 C 121.463 203.555, 120.827 203.740, 107 205.958 C 97.466 207.486, 97.500 207.408, 97.500 228.056 L 97.500 245.500 101.500 245.369 C 121.495 244.716, 133.555 243.845, 134.407 242.993 C 135.595 241.805, 135.826 237.264, 136.214 207.500 C 136.686 171.225, 134.285 159.861, 127 163.890 M 45.908 168.873 C 43.611 170.734, 43.577 170.960, 44.896 175.649 C 45.647 178.317, 46.182 181.850, 46.086 183.500 C 45.989 185.150, 46.375 191.225, 46.942 197 C 47.509 202.775, 48.181 213.008, 48.435 219.740 C 48.823 230.010, 49.338 233.108, 51.636 238.991 C 54.865 247.261, 58.127 250.970, 60.462 249.031 C 61.802 247.920, 61.686 247.415, 59.492 244.808 C 58.121 243.179, 57 240.785, 57 239.488 C 57 238.191, 56.507 235.863, 55.904 234.315 C 55.302 232.767, 54.616 222.725, 54.381 212 C 53.711 181.475, 52.663 170.910, 50.073 168.566 C 48.421 167.071, 48.105 167.094, 45.908 168.873 M 92.079 216.583 C 92.127 217.748, 92.364 217.985, 92.683 217.188 C 92.972 216.466, 92.936 215.603, 92.604 215.271 C 92.272 214.939, 92.036 215.529, 92.079 216.583 M 82.813 255.683 C 83.534 255.972, 84.397 255.936, 84.729 255.604 C 85.061 255.272, 84.471 255.036, 83.417 255.079 C 82.252 255.127, 82.015 255.364, 82.813 255.683" stroke="none" fill="black" fill-rule="evenodd"/>
</svg>