<svg xmlns="http://www.w3.org/2000/svg" width="300" height="300" viewBox="0 0 300 300" version="1.1">
	<path d="M 101.250 15.662 C 100.563 15.940, 100 16.974, 100 17.961 C 100 19.982, 102.335 22.332, 103.342 21.325 C 103.704 20.963, 104 21.615, 104 22.774 C 104 23.934, 103.494 25.195, 102.874 25.578 C 102.109 26.050, 101.955 28.552, 102.394 33.387 C 102.908 39.061, 102.713 40.965, 101.432 42.793 C 100.021 44.808, 100.001 45.354, 101.265 47.293 C 102.069 48.526, 103.001 53.471, 103.378 58.500 C 103.748 63.450, 104.152 68.850, 104.275 70.500 L 104.500 73.500 97 74.143 C 92.875 74.496, 88.375 75.224, 87 75.759 C 85.625 76.294, 81.800 77.061, 78.500 77.462 C 75.200 77.864, 71.938 78.654, 71.250 79.219 C 69.509 80.648, 69.690 84.598, 71.633 87.563 C 73.112 89.820, 73.152 92.006, 72.054 110.778 C 71.388 122.175, 69.965 137.350, 68.892 144.500 C 67.819 151.650, 66.491 160.642, 65.941 164.482 C 65.391 168.321, 64.511 173.046, 63.984 174.982 C 63.457 176.917, 61.888 183.900, 60.498 190.500 C 59.107 197.100, 57.065 206.550, 55.960 211.500 C 54.194 219.411, 53.355 224.394, 51.320 239.056 C 50.719 243.392, 53.183 246.334, 55.390 243.914 C 57.383 241.729, 59.851 234.083, 60.528 228 C 61.163 222.296, 63.931 208.271, 66.648 197 C 69.151 186.615, 70.960 177.987, 72.101 171 C 72.684 167.425, 73.583 162.025, 74.098 159 C 76.779 143.244, 79.246 120.676, 79.890 106 C 80.288 96.925, 81.118 88.600, 81.734 87.500 C 82.350 86.400, 83.091 84.729, 83.382 83.787 C 83.702 82.745, 85.005 82.030, 86.705 81.963 C 88.242 81.902, 92.553 81.773, 96.284 81.676 C 101.020 81.553, 103.343 81.057, 103.978 80.032 C 104.737 78.806, 105.227 78.956, 106.944 80.935 C 108.075 82.239, 109.074 84.700, 109.164 86.403 C 109.464 92.068, 108.791 99.493, 107.929 100.035 C 107.460 100.329, 104.360 101.173, 101.039 101.910 C 95.111 103.225, 95 103.312, 95 106.625 C 95 108.481, 95.480 110, 96.067 110 C 96.680 110, 96.864 109.147, 96.500 108 C 95.734 105.588, 97.776 105.253, 98.692 107.640 C 99.261 109.122, 99.451 109.104, 100.661 107.449 C 101.920 105.728, 102 105.759, 102 107.964 C 102 110.166, 102.111 110.209, 103.814 108.669 C 106.120 106.582, 108 108.173, 108 112.211 C 108 116.255, 111.722 123.588, 115.305 126.603 C 117.917 128.801, 118.999 129.097, 122.442 128.552 C 127.415 127.765, 133.240 124.984, 133.823 123.118 C 134.264 121.707, 134.316 121.704, 125.032 123.609 C 122.595 124.109, 121.500 123.654, 118.915 121.068 C 115.948 118.102, 115.790 117.573, 116.198 111.945 C 116.435 108.659, 117.141 105.459, 117.766 104.834 C 118.834 103.766, 122.305 102.930, 133.004 101.165 C 135.482 100.756, 138.069 100.075, 138.754 99.652 C 140.566 98.532, 140.279 96.222, 138.250 95.585 C 135.840 94.828, 125.231 95.645, 121.108 96.905 C 119.242 97.475, 117.384 97.737, 116.979 97.487 C 116.021 96.895, 116.989 87.845, 118.170 86.351 C 118.669 85.719, 119.224 83.567, 119.403 81.569 C 119.782 77.351, 120.750 75.978, 121.962 77.938 C 123.211 79.960, 129.458 80.358, 130.988 78.514 C 131.679 77.681, 131.852 76.982, 131.372 76.961 C 130.214 76.909, 136.945 74, 138.223 74 C 138.784 74, 138.943 75.090, 138.589 76.500 C 137.804 79.630, 140.370 79.982, 142.232 77 C 142.919 75.900, 143.786 75, 144.159 75 C 145.570 75, 149.123 81.991, 148.343 83.232 C 147.905 83.929, 147.232 86.975, 146.848 90 C 146.464 93.025, 145.637 97.909, 145.011 100.853 C 143.768 106.697, 144.190 107.999, 146.798 106.359 C 149.889 104.416, 152.367 98.770, 154.165 89.573 C 156.405 78.121, 156.520 70.677, 154.485 68.987 C 152.628 67.447, 134.087 68.325, 120.714 70.588 C 115.882 71.405, 111.495 71.806, 110.964 71.478 C 110.434 71.150, 110 67.381, 110 63.101 C 110 55.773, 110.145 55.255, 112.500 54.182 C 115.513 52.809, 115.726 49.967, 113 47.500 C 110.139 44.911, 110.468 44.421, 115.250 44.153 C 117.588 44.022, 121.075 43.524, 123 43.047 C 127.888 41.834, 138.082 40.538, 140.614 40.808 C 141.776 40.932, 143.268 40.382, 143.928 39.586 C 147.158 35.694, 134.815 35.102, 121.931 38.531 C 118.944 39.326, 115.098 39.982, 113.384 39.988 L 110.269 40 109.651 33.250 C 108.154 16.893, 106.545 13.526, 101.250 15.662 M 246.500 54.108 C 243.200 54.604, 236.225 55.752, 231 56.659 C 220.644 58.457, 196.760 58.678, 186.894 57.067 C 174.781 55.089, 168.276 58.602, 174.622 63.693 C 176.205 64.963, 178.099 65.777, 178.832 65.501 C 179.564 65.225, 183.389 64.955, 187.332 64.900 C 191.410 64.844, 193.505 64.520, 192.191 64.150 C 190.083 63.557, 188.978 61.940, 190.750 62.044 C 193.097 62.180, 196.597 63.456, 197.211 64.399 C 197.677 65.116, 198.397 64.839, 199.309 63.592 C 201.305 60.862, 203.401 62.435, 201.586 65.302 C 199.903 67.962, 198.280 78.162, 197.498 91 C 197.180 96.225, 196.485 106.125, 195.953 113 C 195.422 119.875, 194.539 137.582, 193.991 152.349 C 193.444 167.115, 192.790 179.531, 192.538 179.939 C 192.046 180.735, 193.490 200.415, 194.569 207.610 L 195.224 211.979 188.862 214.989 C 185.363 216.644, 181.767 217.999, 180.872 217.999 C 178.748 218, 172.301 220.704, 171.559 221.904 C 170.499 223.619, 174.176 226.208, 176.911 225.673 C 181.360 224.803, 192.385 220.575, 194.973 218.747 C 196.332 217.786, 198.132 216.980, 198.973 216.955 C 200.926 216.898, 218.008 205.052, 219.388 202.798 C 221.270 199.722, 218.966 199.500, 213.689 202.249 C 205.199 206.672, 200.739 208.196, 199.963 206.940 C 199.587 206.331, 199.427 202.833, 199.608 199.167 C 199.788 195.500, 200.392 183.275, 200.950 172 C 201.507 160.725, 202.449 140.925, 203.043 128 C 205.038 84.578, 206.017 76.723, 210.176 70.794 C 211.220 69.306, 212.170 66.724, 212.287 65.057 C 212.535 61.533, 214.599 60.336, 216.895 62.384 C 218.131 63.487, 219.996 63.653, 225 63.108 C 228.575 62.718, 232.400 61.911, 233.500 61.315 C 234.600 60.718, 240.352 59.410, 246.283 58.407 C 254.857 56.957, 257.006 56.268, 256.773 55.042 C 256.412 53.145, 254.232 52.946, 246.500 54.108 M 204 63 C 204 63.550, 204.702 64, 205.559 64 C 206.416 64, 206.840 63.550, 206.500 63 C 206.160 62.450, 205.459 62, 204.941 62 C 204.423 62, 204 62.450, 204 63 M 94 83.500 C 94 84.325, 94.450 85, 95 85 C 95.550 85, 96 84.325, 96 83.500 C 96 82.675, 95.550 82, 95 82 C 94.450 82, 94 82.675, 94 83.500 M 112.469 84.050 C 111.519 85.588, 112.820 86.580, 114.104 85.296 C 114.822 84.578, 114.839 84.019, 114.156 83.597 C 113.596 83.251, 112.837 83.455, 112.469 84.050 M 250.981 90.777 C 243.836 95.657, 235.037 100, 232.295 100 C 231.098 100, 229.873 100.396, 229.574 100.880 C 228.976 101.847, 219.935 105, 217.759 105 C 217.008 105, 214.549 106.357, 212.294 108.015 C 209.137 110.337, 208.321 111.512, 208.744 113.128 C 209.227 114.975, 209.839 115.166, 213.836 114.715 C 216.334 114.433, 218.856 113.577, 219.439 112.812 C 220.023 112.047, 221.400 111.361, 222.500 111.287 C 225.690 111.072, 230 109.149, 230 107.941 C 230 107.332, 230.563 107.036, 231.250 107.283 C 233.145 107.965, 241.963 104.384, 244.685 101.826 C 247.808 98.892, 250.649 100.335, 250.198 104.627 C 248.099 124.567, 253.043 184.787, 257.161 189.450 C 257.622 189.973, 258 191.338, 258 192.485 C 258 195.329, 261.073 203.783, 265.854 214.094 C 268.801 220.450, 271.076 223.777, 274.586 226.867 C 280.709 232.256, 283.369 232.941, 286.555 229.948 C 288.806 227.833, 289 226.919, 289 218.407 C 289 208.399, 288.509 206, 286.460 206 C 284.526 206, 283.900 208.911, 284.103 216.967 C 284.330 225.940, 282.957 227.831, 279.358 223.500 C 274.337 217.457, 264.278 192.861, 262.590 182.500 C 261.869 178.072, 261.719 176.896, 260.043 162.500 C 259.402 157, 258.456 149.219, 257.939 145.209 C 256.663 135.299, 256.747 118.127, 258.148 102.691 C 259.134 91.831, 259.094 89.666, 257.886 88.458 C 256.653 87.225, 255.724 87.537, 250.981 90.777 M 89 106.500 C 89 107.452, 89.958 108, 91.622 108 C 93.840 108, 94.053 107.768, 93 106.500 C 92.315 105.675, 91.135 105, 90.378 105 C 89.620 105, 89 105.675, 89 106.500 M 128.691 137.642 C 128.448 137.886, 122.963 139.180, 116.504 140.520 C 110.044 141.860, 104.205 143.415, 103.528 143.977 C 102.852 144.538, 100.172 145.289, 97.574 145.645 C 94.976 146.001, 92.282 146.861, 91.588 147.555 C 90.893 148.250, 89.239 148.972, 87.912 149.159 C 86.403 149.372, 85.392 150.255, 85.211 151.516 C 84.962 153.253, 85.512 153.547, 89.190 153.644 C 92.001 153.717, 93.847 153.224, 94.596 152.200 C 95.254 151.300, 97.478 150.559, 99.868 150.443 C 102.142 150.333, 104.644 149.710, 105.428 149.060 C 106.212 148.409, 108.799 147.863, 111.177 147.847 C 113.555 147.830, 116.543 147.153, 117.817 146.342 C 119.322 145.383, 120.548 145.197, 121.317 145.810 C 121.972 146.332, 123.392 146.393, 124.500 145.947 C 125.600 145.503, 128.525 145.064, 131 144.971 C 139.532 144.648, 142.448 142.756, 140.082 139.076 C 139.233 137.755, 129.769 136.564, 128.691 137.642 M 196.667 144.667 C 195.629 145.704, 195.883 149, 197 149 C 197.550 149, 198 147.875, 198 146.500 C 198 143.882, 197.769 143.564, 196.667 144.667 M 213.309 157.636 C 212.356 160.121, 214.379 162.482, 217.609 162.654 C 219.199 162.738, 223.650 164.424, 227.500 166.401 C 234.232 169.856, 238 170.868, 238 169.220 C 238 168.790, 234.672 165.640, 230.605 162.220 C 223.865 156.551, 222.799 156, 218.573 156 C 215.204 156, 213.766 156.447, 213.309 157.636 M 197 158.441 C 197 159.298, 197.450 160, 198 160 C 198.550 160, 199 159.577, 199 159.059 C 199 158.541, 198.550 157.840, 198 157.500 C 197.450 157.160, 197 157.584, 197 158.441 M 92.476 161.039 C 92.090 161.663, 90.898 161.945, 89.826 161.665 C 87.258 160.993, 86.397 163.391, 87.977 166.814 C 88.660 168.291, 90.230 173.561, 91.467 178.525 C 94.703 191.509, 98.474 197.926, 101.243 195.157 C 102.109 194.291, 102.119 193.180, 101.280 190.749 C 100.664 188.962, 99.870 185.234, 99.515 182.465 C 98.952 178.058, 99.166 177.113, 101.237 174.878 C 103.728 172.191, 109.144 170.614, 115 170.873 C 116.925 170.958, 120.188 171.066, 122.250 171.113 C 125.480 171.188, 126 171.521, 126 173.518 C 126 175.090, 124.872 176.534, 122.499 178 C 120.574 179.190, 118.409 181.006, 117.688 182.035 C 116.182 184.185, 111.963 186, 108.470 186 C 107.108 186, 105.616 186.850, 105.018 187.966 C 104.125 189.636, 104.419 190.165, 106.978 191.488 C 109.409 192.746, 111.128 192.862, 115.910 192.092 C 119.167 191.567, 123.198 190.432, 124.866 189.569 C 126.535 188.706, 128.612 188, 129.482 188 C 131.627 188, 132.510 185.319, 130.974 183.469 C 129.963 182.250, 130.020 181.632, 131.277 180.231 C 133.222 178.064, 134.429 171.844, 133.569 168.418 C 132.969 166.028, 132.544 165.844, 128.209 166.101 C 125.619 166.254, 121.588 165.773, 119.250 165.032 C 115.905 163.971, 114.176 163.930, 111.134 164.842 C 109.008 165.479, 106.224 166, 104.948 166 C 103.673 166, 101.551 167.012, 100.234 168.250 C 97.852 170.488, 97.831 170.489, 96.361 168.500 C 95.548 167.400, 95.072 165.490, 95.302 164.256 C 95.782 161.681, 93.609 159.206, 92.476 161.039 M 90 165.059 C 90 166.191, 90.450 166.840, 91 166.500 C 91.550 166.160, 92 165.234, 92 164.441 C 92 163.648, 91.550 163, 91 163 C 90.450 163, 90 163.927, 90 165.059 M 132 196.920 C 128.975 197.875, 125.600 199.170, 124.500 199.797 C 121.671 201.410, 113.307 204, 110.930 204 C 109.830 204, 107.818 203.272, 106.460 202.382 C 103.326 200.328, 101 201.921, 101 206.122 C 101 207.945, 100.478 209, 99.577 209 C 98.794 209, 96.816 210.125, 95.182 211.500 C 93.548 212.875, 91.730 214, 91.141 214 C 89.298 214, 87.759 209.870, 88.318 206.425 C 89.084 201.709, 86.700 199.856, 83.712 202.844 C 81.826 204.730, 81.707 205.300, 82.824 207.090 C 83.633 208.386, 83.773 209.594, 83.197 210.328 C 82.693 210.973, 82.399 218.700, 82.544 227.500 C 82.791 242.464, 82.978 243.842, 85.426 248.790 C 88.153 254.301, 90.360 256.040, 92.240 254.160 C 93.048 253.352, 93.042 252.388, 92.220 250.583 C 91.600 249.223, 90.786 241.894, 90.410 234.296 L 89.726 220.480 95.113 218.059 C 98.076 216.727, 100.970 215.008, 101.545 214.239 C 102.393 213.103, 103.490 213.667, 107.374 217.232 C 112.741 222.161, 112.820 221.926, 104.250 226.510 C 100.835 228.337, 99 229.961, 99 231.159 C 99 233.793, 105.857 233.687, 109.273 231 C 110.671 229.900, 112.384 229, 113.079 229 C 113.774 229, 115.176 228.246, 116.195 227.324 C 119.059 224.732, 119.896 226.763, 118.894 233.870 C 117.013 247.205, 121.584 264.835, 126.658 263.810 C 128.685 263.400, 128.693 262.853, 126.827 253.224 C 125.904 248.464, 125.873 244.296, 126.696 235.966 C 127.967 223.097, 129.300 220.367, 134.742 219.483 C 140.624 218.528, 143.181 217.183, 142.813 215.239 C 142.408 213.098, 137.147 212.404, 132.804 213.919 C 128.107 215.556, 127.763 214.328, 131.535 209.386 C 133.441 206.889, 135 204.206, 135 203.423 C 135 202.641, 135.580 202, 136.289 202 C 136.997 202, 139.204 201.170, 141.193 200.157 C 143.832 198.811, 145.290 198.583, 146.592 199.312 C 147.574 199.861, 149.942 200.451, 151.855 200.622 C 156.163 201.009, 156.930 201.755, 158.029 206.628 C 158.680 209.513, 158.532 211.065, 157.451 212.715 C 156.653 213.933, 156 216.806, 156 219.099 C 156 221.392, 155.567 224.895, 155.038 226.884 C 154.508 228.873, 153.820 232.544, 153.507 235.043 C 153.144 237.948, 152.024 240.573, 150.400 242.325 C 148.251 244.642, 147.331 244.965, 144.430 244.421 C 142.543 244.067, 141.007 244.165, 141.015 244.639 C 141.053 246.777, 143.071 248.281, 146.819 248.967 C 150.053 249.558, 151.658 249.275, 154.691 247.577 C 158.285 245.565, 158.626 244.941, 160.723 236.532 C 163.249 226.407, 165 214.919, 165 208.475 C 165 198.464, 160.085 194.948, 146.290 195.091 C 140.965 195.146, 135.332 195.867, 132 196.920 M 116.666 208.667 C 116.299 209.034, 115.212 209.392, 114.250 209.463 C 113.287 209.534, 112.296 209.796, 112.046 210.046 C 111.284 210.808, 115.375 217.042, 116.410 216.697 C 118.311 216.063, 121.263 211.128, 120.668 209.578 C 120.050 207.966, 117.865 207.468, 116.666 208.667 M 55 228.500 C 55 229.325, 55.450 230, 56 230 C 56.550 230, 57 229.325, 57 228.500 C 57 227.675, 56.550 227, 56 227 C 55.450 227, 55 227.675, 55 228.500" stroke="none" fill="black" fill-rule="evenodd"/>
</svg>