<svg xmlns="http://www.w3.org/2000/svg" width="300" height="300" viewBox="0 0 300 300" version="1.1">
	<path d="M 172.500 22.236 C 167 22.739, 160.925 23.759, 159 24.502 C 155.554 25.833, 140.644 27.418, 134.206 27.138 C 132.394 27.059, 129.604 27.671, 128.006 28.497 C 126.407 29.324, 122.714 30.020, 119.800 30.044 C 112.638 30.103, 102.436 32.371, 102.750 33.834 C 102.888 34.475, 102.325 35, 101.500 35 C 100.675 35, 100 35.723, 100 36.607 C 100 37.662, 100.544 38.005, 101.582 37.607 C 102.452 37.273, 106.917 37, 111.505 37 C 119.014 37, 120.153 36.742, 122.914 34.419 C 125.338 32.379, 126.616 31.976, 129 32.500 C 130.693 32.872, 131.739 33.613, 131.383 34.189 C 130.974 34.852, 131.579 34.951, 133.097 34.469 C 134.388 34.059, 138.495 33.743, 142.222 33.766 C 145.972 33.790, 149 33.375, 149 32.837 C 149 32.303, 149.837 32.131, 150.859 32.455 C 153.558 33.312, 156 32.080, 156 29.862 C 156 27.346, 157.965 26.673, 162.128 27.761 C 164.182 28.298, 166.767 28.258, 168.739 27.657 C 171.391 26.850, 172.344 27.001, 173.989 28.490 C 175.935 30.252, 176 30.250, 176 28.441 C 176 26.710, 176.121 26.692, 177.637 28.209 C 178.945 29.516, 179.649 29.611, 181.137 28.682 C 182.571 27.787, 183.470 27.812, 185.041 28.793 C 186.163 29.494, 187.477 29.823, 187.960 29.525 C 188.443 29.226, 189.449 29.592, 190.195 30.338 C 191.227 31.370, 191.513 35.155, 191.394 46.193 C 191.267 57.914, 190.814 62.112, 189.032 68.097 C 187.819 72.168, 185.914 78.650, 184.798 82.500 C 180.567 97.099, 177.419 104.337, 172.863 109.938 C 170.013 113.440, 170.344 116, 173.645 116 C 177.036 116, 183.806 107.899, 187.394 99.547 C 189.377 94.930, 191 90.744, 191 90.244 C 191 89.743, 192.309 85.262, 193.908 80.286 C 198.933 64.653, 199.909 52.871, 197.626 35.415 C 197.139 31.694, 194.750 26.867, 192.450 24.958 C 190.820 23.606, 184.013 20.881, 183 21.176 C 182.725 21.256, 178 21.733, 172.500 22.236 M 163 30.393 C 163 31.364, 165.817 31.729, 167.091 30.923 C 168.116 30.273, 167.751 30.026, 165.750 30.015 C 164.238 30.007, 163 30.177, 163 30.393 M 95 36.833 C 95 38.241, 96.126 38.889, 97.592 38.326 C 98.360 38.032, 98.740 37.388, 98.435 36.895 C 97.737 35.766, 95 35.717, 95 36.833 M 148.513 39.979 C 148.180 40.518, 148.422 41.920, 149.051 43.096 C 150.081 45.020, 150.349 45.080, 151.734 43.694 C 152.581 42.848, 153.001 41.445, 152.668 40.578 C 151.996 38.825, 149.452 38.459, 148.513 39.979 M 146.073 49.635 C 144.933 51.084, 144 52.997, 143.999 53.885 C 143.999 54.773, 143.531 60.450, 142.961 66.500 C 142.200 74.559, 141.465 77.944, 140.211 79.161 C 139.211 80.132, 134.760 81.450, 129.500 82.334 C 119.284 84.050, 112.959 85.616, 108.263 87.593 C 104.646 89.115, 104.758 89.284, 103.594 80.500 C 103.132 77.008, 101.280 65.309, 99.162 52.500 C 98.203 46.702, 96.018 47.377, 94.307 54 C 92.683 60.291, 93.123 67.122, 95.984 80 C 97.023 84.675, 98.328 92.100, 98.884 96.500 C 100.925 112.641, 102.393 118.250, 104.868 119.354 C 106.605 120.129, 107.375 120.029, 108.086 118.937 C 109.082 117.406, 108.311 110.171, 106.973 108.500 C 106.286 107.641, 105.635 100.133, 105.911 96.250 C 105.960 95.563, 107.147 95, 108.550 95 C 109.952 95, 112.461 94.296, 114.124 93.436 C 116.854 92.024, 128.854 89.059, 133.250 88.710 C 134.213 88.634, 135 88.250, 135 87.857 C 135 87.464, 135.778 86.365, 136.728 85.415 C 138.366 83.777, 138.489 83.846, 139.078 86.725 C 139.419 88.397, 139.058 93.980, 138.275 99.132 C 137.492 104.284, 136.772 110.975, 136.675 114 C 136.509 119.214, 136.633 119.516, 139.067 119.799 C 142.389 120.185, 143.451 117.873, 145.502 105.783 C 147.991 91.117, 149.672 86.103, 152.274 85.574 C 153.498 85.325, 155.850 84.841, 157.500 84.499 C 159.150 84.157, 162.525 83.538, 165 83.125 C 167.475 82.711, 170.940 81.614, 172.700 80.686 C 174.461 79.759, 176.573 79, 177.395 79 C 179.656 79, 184.432 74.508, 183.601 73.164 C 182.750 71.786, 175.718 71.611, 173.236 72.906 C 171.674 73.722, 164.624 75.704, 156.500 77.613 C 153.992 78.202, 149.959 78.224, 149.333 77.651 C 149.240 77.567, 149.564 75.361, 150.052 72.749 C 151.270 66.232, 152.153 51.059, 151.445 48.828 C 150.624 46.241, 148.490 46.561, 146.073 49.635 M 178.777 115.890 C 178.026 116.952, 175.648 117.949, 173 118.312 C 165.348 119.361, 159.629 120.785, 156.500 122.420 C 154.850 123.282, 152.415 123.990, 151.088 123.994 C 149.761 123.997, 146.386 124.644, 143.588 125.430 C 140.790 126.217, 135.575 127.344, 132 127.936 C 128.425 128.527, 124.375 129.287, 123 129.625 C 121.625 129.963, 117.881 130.453, 114.681 130.712 C 110.070 131.087, 108.458 130.819, 106.918 129.426 C 105.046 127.731, 104.867 127.789, 101.988 131.014 C 100.344 132.854, 99 135.404, 99 136.680 C 99 138.797, 99.437 139, 104 139 C 108.798 139, 112.004 137.317, 113.125 134.211 C 113.350 133.586, 115.363 133.385, 118.172 133.707 C 121.596 134.100, 122.703 134.611, 122.315 135.621 C 121.649 137.356, 122.926 137.355, 128.812 135.613 C 131.390 134.851, 136.200 133.726, 139.500 133.114 C 149.773 131.209, 153.066 129.996, 153.870 127.823 C 154.571 125.929, 154.753 125.896, 156.255 127.398 C 157.757 128.900, 158.173 128.889, 161.691 127.262 C 163.786 126.293, 166.088 124.713, 166.807 123.750 C 168.576 121.380, 170.457 121.550, 172.244 124.241 C 173.633 126.333, 173.923 126.386, 176.616 125.034 C 181.367 122.649, 183 120.838, 183 117.952 C 183 114.621, 180.529 113.414, 178.777 115.890 M 137 131 C 135.718 131.828, 135.754 131.972, 137.250 131.985 C 138.213 131.993, 139 131.550, 139 131 C 139 129.780, 138.887 129.780, 137 131 M 227.117 135.632 C 224.707 136.357, 217.957 137.443, 212.117 138.045 C 206.278 138.648, 198.575 139.746, 195 140.486 C 191.425 141.226, 186.372 142.085, 183.772 142.394 C 181.171 142.703, 178.246 143.381, 177.272 143.901 C 176.297 144.421, 170.775 145.403, 165 146.083 C 159.225 146.763, 153.449 147.701, 152.164 148.167 C 150.880 148.634, 146.830 149.287, 143.164 149.618 C 139.499 149.949, 135.981 150.640, 135.346 151.153 C 134.711 151.666, 133.090 151.810, 131.744 151.472 C 130.398 151.134, 126.792 151.586, 123.729 152.476 C 113.894 155.335, 107.992 156.034, 82.279 157.383 C 56.542 158.733, 53.531 159.326, 54.221 162.908 C 54.389 163.784, 54.971 164.516, 55.514 164.535 C 56.056 164.555, 57.400 165.059, 58.500 165.655 C 60.973 166.994, 72.011 165.498, 76.683 163.190 C 79.267 161.913, 80.357 161.842, 82.480 162.809 C 85.794 164.319, 89.267 164.333, 90.758 162.842 C 91.634 161.966, 92.277 161.985, 93.405 162.921 C 94.460 163.797, 96.586 163.937, 100.697 163.403 C 105.574 162.770, 106.101 162.521, 104 161.840 C 102.332 161.301, 103.389 161.166, 107.174 161.435 C 111.433 161.739, 112.983 161.486, 113.392 160.420 C 114.009 158.813, 117 158.465, 117 160 C 117 161.227, 120.990 161.292, 122.878 160.096 C 124.630 158.987, 123.427 156.899, 121.468 157.651 C 120.661 157.960, 120 157.663, 120 156.990 C 120 156.168, 120.902 155.976, 122.750 156.403 C 130.286 158.147, 133.093 158.283, 132.796 156.888 C 132.621 156.068, 133.319 155.500, 134.500 155.500 C 135.685 155.500, 136.379 156.068, 136.203 156.892 C 135.966 157.998, 136.884 158.151, 140.662 157.633 C 143.279 157.274, 145.830 156.570, 146.331 156.069 C 146.833 155.567, 147.860 155.393, 148.613 155.682 C 149.367 155.971, 150.260 155.486, 150.599 154.604 C 151.280 152.829, 158 152.281, 158 154 C 158 155.430, 162.699 155.238, 164.088 153.750 C 164.794 152.995, 166.996 152.640, 169.652 152.853 C 172.070 153.047, 174.673 152.686, 175.438 152.052 C 176.202 151.417, 180.129 150.643, 184.164 150.331 C 188.199 150.020, 192.497 149.143, 193.715 148.382 C 194.933 147.622, 196.518 147, 197.237 147 C 197.956 147, 200.155 145.673, 202.123 144.050 C 204.818 141.828, 205.984 141.384, 206.850 142.250 C 207.716 143.116, 207.322 143.721, 205.250 144.703 C 202.760 145.883, 203.155 145.968, 209.440 145.603 C 213.648 145.358, 216.798 144.668, 217.440 143.850 C 218.171 142.919, 220.673 142.544, 225.500 142.641 C 233.149 142.795, 235 141.971, 235 138.413 C 235 135.032, 232.290 134.076, 227.117 135.632 M 221.500 141 C 221.160 141.550, 221.584 142, 222.441 142 C 223.298 142, 224 141.550, 224 141 C 224 140.450, 223.577 140, 223.059 140 C 222.541 140, 221.840 140.450, 221.500 141 M 174.029 147.963 C 173.220 148.473, 172.861 149.195, 173.232 149.566 C 174.082 150.415, 181 149.170, 181 148.167 C 181 147.054, 175.715 146.899, 174.029 147.963 M 209.815 175.102 C 209.220 176.808, 207.609 180.295, 206.235 182.852 C 204.860 185.408, 202.331 190.200, 200.614 193.500 C 196.375 201.648, 190.851 208.914, 188.860 208.961 C 186.640 209.014, 183 201.039, 183 196.122 C 183 193.736, 182.245 191.305, 181.057 189.861 L 179.114 187.500 175.896 190.680 C 172.767 193.773, 172.724 193.930, 174.339 196.395 C 175.253 197.789, 176 199.838, 176 200.949 C 176 202.059, 177.318 205.688, 178.928 209.012 L 181.856 215.057 179.678 217.102 L 177.500 219.147 179.853 221.067 C 181.408 222.336, 183.018 222.783, 184.603 222.385 C 186.388 221.937, 187 222.194, 187 223.392 C 187 224.333, 187.829 225, 189 225 C 190.100 225, 191 225.413, 191 225.918 C 191 226.423, 191.267 227.661, 191.594 228.668 C 192.089 230.192, 192.007 230.248, 191.110 229 C 190.516 228.175, 190.024 227.998, 190.015 228.606 C 189.994 230.116, 196.858 239, 198.046 239 C 198.571 239, 199 239.690, 199 240.534 C 199 241.377, 200.583 243.002, 202.519 244.143 C 204.454 245.285, 205.976 246.733, 205.900 247.360 C 205.500 250.686, 206.339 251.918, 210 253.383 C 212.646 254.442, 214 255.609, 214 256.831 C 214 258.767, 218.481 261.439, 220.075 260.454 C 220.584 260.139, 221 260.381, 221 260.992 C 221 261.603, 222.564 262.756, 224.476 263.554 C 226.408 264.362, 228.634 266.325, 229.486 267.974 C 230.330 269.606, 232.029 271.475, 233.260 272.129 C 234.492 272.783, 236.088 274.146, 236.807 275.159 C 237.525 276.171, 238.547 277, 239.077 277 C 239.606 277, 241.822 278.125, 244 279.500 C 246.178 280.875, 248.544 282, 249.258 282 C 249.971 282, 251.646 282.764, 252.980 283.699 C 254.731 284.925, 257.138 285.341, 261.642 285.196 C 265.072 285.086, 268.158 285.446, 268.499 285.998 C 269.887 288.243, 274.024 287.008, 276.027 283.750 C 277.947 280.625, 278.047 280.586, 278.629 282.750 C 279.929 287.590, 285.629 283.638, 285.118 278.250 C 284.947 276.438, 281.210 276.711, 274.058 279.059 C 265.015 282.028, 259.579 281.892, 252.448 278.520 C 249.176 276.973, 244.523 274.198, 242.106 272.354 C 239.690 270.509, 237.414 269, 237.050 269 C 236.685 269, 234.298 267.055, 231.746 264.678 C 229.193 262.301, 225.169 259.106, 222.803 257.578 C 218.812 255, 215.693 251.647, 206.448 240 C 204.484 237.525, 202.242 234.722, 201.466 233.770 C 199.238 231.040, 195.314 222.813, 194.547 219.263 C 193.952 216.512, 194.281 215.613, 196.745 213.263 C 204.487 205.881, 213.269 190.298, 214.647 181.500 C 214.991 179.300, 215.717 176.938, 216.259 176.250 C 217.548 174.616, 215.434 172, 212.826 172 C 211.567 172, 210.520 173.078, 209.815 175.102 M 107.311 175.774 C 106.106 176.723, 104.893 178.625, 104.614 180 C 104.335 181.375, 103.825 194.183, 103.481 208.463 C 103.136 222.743, 102.713 234.668, 102.539 234.963 C 102.366 235.258, 101.934 242.643, 101.581 251.374 C 101.227 260.104, 100.502 268.062, 99.969 269.058 C 98.639 271.544, 98.750 279.358, 100.161 282.453 C 101.251 284.847, 105 286.098, 105 284.067 C 105 283.554, 105.787 282.865, 106.750 282.535 C 107.713 282.205, 110.075 279.873, 112 277.352 C 113.925 274.831, 118.079 270.008, 121.232 266.634 C 124.384 263.260, 126.972 260.167, 126.982 259.761 C 126.992 259.354, 129.137 256.611, 131.750 253.665 C 146.171 237.403, 147.764 235, 144.125 235 C 141.582 235, 131.769 243.113, 126.500 249.571 C 124.300 252.268, 120.138 256.823, 117.250 259.694 C 114.363 262.564, 112 265.334, 112 265.849 C 112 266.365, 111.264 267.069, 110.364 267.414 C 108.906 267.973, 108.798 267.247, 109.377 260.771 C 109.734 256.772, 110.325 251.700, 110.690 249.500 C 111.798 242.825, 111.626 174.714, 110.500 174.361 C 109.950 174.188, 108.515 174.824, 107.311 175.774 M 104.606 250.583 C 104.237 251.546, 104.339 252.739, 104.834 253.234 C 106.020 254.420, 107.058 251.713, 106.047 250.075 C 105.480 249.158, 105.102 249.292, 104.606 250.583" stroke="none" fill="black" fill-rule="evenodd"/>
</svg>