<svg xmlns="http://www.w3.org/2000/svg" width="300" height="300" viewBox="0 0 300 300" version="1.1">
	<path d="M 126.721 13.613 C 126.499 13.834, 126.586 15.670, 126.915 17.692 C 127.416 20.778, 128.296 21.828, 132.397 24.237 C 138.809 28.005, 143.808 29.801, 153.358 31.770 C 160.327 33.207, 161.514 33.223, 163.858 31.911 C 167.186 30.050, 168.056 26, 165.129 26 C 164.023 26, 162.888 26.373, 162.606 26.828 C 161.698 28.297, 151.729 25.598, 143.250 21.587 C 138.713 19.441, 135 17.374, 135 16.994 C 135 16.173, 127.304 13.030, 126.721 13.613 M 151 28 C 149.707 28.835, 149.734 28.971, 151.191 28.985 C 152.121 28.993, 153.160 28.550, 153.500 28 C 154.282 26.734, 152.958 26.734, 151 28 M 216.250 48.031 C 214.951 48.553, 214 49.795, 214 50.968 C 214 52.481, 213.347 53, 211.441 53 C 209.978 53, 209.148 52.569, 209.504 51.993 C 210.669 50.108, 206.679 49.647, 203.751 51.328 C 202.149 52.248, 199.579 53, 198.041 53 C 196.503 53, 194.685 53.675, 194 54.500 C 192.412 56.414, 193.256 56.359, 200 54.110 C 206.662 51.888, 209.358 52.403, 205.872 55.233 L 203.500 57.158 206.500 56.505 C 208.150 56.146, 209.650 55.435, 209.833 54.926 C 210.017 54.417, 211.198 54, 212.458 54 C 217.166 54, 221.104 52.674, 222.139 50.741 C 223.838 47.565, 220.840 46.186, 216.250 48.031 M 185 57 C 185 58.253, 186.061 58.253, 188 57 C 189.213 56.216, 189.069 56.028, 187.250 56.015 C 186.012 56.007, 185 56.450, 185 57 M 195 57.937 C 195 58.452, 193.537 59.055, 191.750 59.277 L 188.500 59.680 191.559 59.840 C 193.241 59.928, 195.491 59.339, 196.559 58.532 C 198.315 57.203, 198.333 57.061, 196.750 57.032 C 195.787 57.014, 195 57.421, 195 57.937 M 167 59.900 C 163.933 60.309, 162.500 60.978, 162.500 62 C 162.500 62.825, 160.700 64.527, 158.500 65.781 L 154.500 68.063 158 67.660 C 159.925 67.438, 164.650 66.488, 168.500 65.548 C 172.350 64.609, 176.512 63.642, 177.750 63.401 C 178.988 63.159, 180 62.462, 180 61.850 C 180 60.449, 172.665 61.504, 172.175 62.976 C 171.987 63.539, 170.858 63.990, 169.667 63.978 C 167.557 63.956, 167.566 63.905, 170 62.028 C 171.375 60.967, 174.300 59.931, 176.500 59.725 C 180.490 59.350, 180.489 59.349, 176 59.325 C 173.525 59.311, 169.475 59.570, 167 59.900 M 149.500 63 C 146.937 63.652, 147.228 63.766, 151.500 63.782 C 154.250 63.792, 157.625 63.440, 159 63 C 161.030 62.350, 160.653 62.203, 157 62.218 C 154.525 62.228, 151.150 62.580, 149.500 63 M 138.656 64.750 C 138.403 65.162, 139.726 65.612, 141.597 65.749 C 143.469 65.887, 145 65.549, 145 64.999 C 145 63.847, 139.349 63.625, 138.656 64.750 M 133 66 C 131.718 66.828, 131.754 66.972, 133.250 66.985 C 134.213 66.993, 135 66.550, 135 66 C 135 64.780, 134.887 64.780, 133 66 M 103.042 67.449 C 101.167 69.708, 104.191 72.889, 108.106 72.778 C 111.987 72.668, 112.694 73.576, 110.562 75.931 C 109.118 77.527, 108.986 78.467, 109.822 81.187 C 111.284 85.943, 112.094 102.621, 111.003 105.493 C 110.407 107.058, 110.464 109.032, 111.161 111.032 C 111.940 113.267, 111.937 115.733, 111.149 119.819 C 110.546 122.944, 109.547 128.875, 108.929 133 C 108.310 137.125, 107.453 141.400, 107.024 142.500 C 106.594 143.600, 105.766 146.750, 105.182 149.500 C 104.265 153.821, 100.290 168.782, 94.619 189.250 C 93.742 192.412, 91.924 197.618, 90.577 200.817 C 89.230 204.017, 87.433 209.635, 86.582 213.302 C 85.732 216.969, 84.629 220.764, 84.131 221.735 C 83.634 222.706, 82.224 226.542, 81 230.261 C 79.206 235.707, 79.013 237.311, 80.009 238.511 C 81.768 240.630, 83.722 240.355, 85.424 237.750 C 86.798 235.647, 94.185 214.081, 96.985 204 C 98.825 197.375, 101.029 189.911, 102.155 186.500 C 104.525 179.312, 108.205 167.199, 109.065 163.750 C 110.621 157.511, 111.873 152.844, 113.964 145.500 C 115.060 141.650, 116.398 135.800, 116.936 132.500 C 117.475 129.200, 118.382 123.800, 118.952 120.500 C 120.263 112.911, 120.271 90.646, 118.966 81.620 C 117.813 73.644, 118.567 72.003, 123.364 72.050 C 126.926 72.085, 142.328 70.330, 145.791 69.494 C 147.051 69.190, 147.801 68.486, 147.457 67.930 C 147.113 67.374, 146.070 67.160, 145.139 67.456 C 144.208 67.751, 139.435 68.216, 134.531 68.489 C 129.627 68.762, 125.162 69.438, 124.608 69.992 C 124.053 70.547, 123.015 71, 122.300 71 C 120.182 71, 120.819 69.008, 123.250 68.031 C 124.870 67.380, 123.120 67.105, 117 67.050 C 112.325 67.007, 107.569 66.723, 106.430 66.417 C 105.188 66.083, 103.833 66.496, 103.042 67.449 M 181.200 81.200 C 180.463 81.937, 180.005 85.507, 180.012 90.450 C 180.019 94.877, 179.353 103.675, 178.533 110 C 177.712 116.325, 176.774 124.088, 176.448 127.251 C 176.123 130.413, 175.213 133.644, 174.428 134.429 C 173.643 135.215, 172.993 136.452, 172.985 137.179 C 172.972 138.232, 172.792 138.220, 172.096 137.122 C 171.589 136.321, 170.694 136.071, 169.960 136.525 C 168.999 137.119, 169.127 137.620, 170.497 138.621 C 171.940 139.677, 172.274 141.252, 172.183 146.591 C 172.118 150.370, 171.473 154.164, 170.688 155.373 C 169.928 156.543, 168.043 161.325, 166.499 166 C 164.955 170.675, 163.368 175.190, 162.973 176.033 C 162.578 176.876, 161.936 179.013, 161.548 180.783 C 161.159 182.552, 160.460 184, 159.994 184 C 158.527 184, 150 202.657, 150 205.867 C 150 207.906, 149.332 209.287, 148 210 C 146.841 210.620, 146 212.094, 146 213.505 C 146 214.844, 145.100 217.542, 144 219.500 C 142.900 221.458, 142 223.961, 142 225.062 C 142 226.162, 141.272 227.342, 140.383 227.683 C 138.398 228.445, 134.981 235.787, 135.718 237.708 C 136.013 238.477, 137.207 238.969, 138.370 238.803 C 139.833 238.594, 141.921 235.995, 145.132 230.387 C 147.688 225.925, 150.113 221.200, 150.523 219.887 C 150.932 218.574, 152.525 214.800, 154.062 211.500 C 155.599 208.200, 157.781 202.725, 158.911 199.333 C 160.041 195.942, 162.492 190.542, 164.357 187.333 C 166.223 184.125, 168.084 180.375, 168.493 179 C 168.902 177.625, 169.812 175.825, 170.515 175 C 171.218 174.175, 172.956 169.900, 174.376 165.500 C 181.659 142.942, 182.858 140.036, 184.942 139.894 C 185.799 139.835, 187.175 139.687, 188 139.565 C 188.825 139.442, 190.738 139.265, 192.250 139.171 C 196.350 138.916, 195.695 136.416, 191.498 136.297 C 189.572 136.243, 187.745 136.603, 187.439 137.099 C 187.133 137.595, 186.198 138, 185.362 138 C 183.450 138, 183.826 128.941, 186.442 112 C 189.713 90.818, 187.076 75.324, 181.200 81.200 M 214.975 89.565 C 214.439 90.976, 214 92.711, 214 93.421 C 214 94.597, 219.699 102.731, 222.634 105.745 C 223.301 106.429, 224.718 108.097, 225.783 109.451 C 228.325 112.683, 235.785 115.358, 237.493 113.650 C 239.136 112.007, 237.688 108.353, 235.065 107.521 C 233.929 107.160, 233 106.542, 233 106.146 C 233 105.751, 231.187 103.419, 228.970 100.964 C 226.754 98.509, 224.052 94.828, 222.967 92.783 C 221.247 89.545, 218.420 87, 216.541 87 C 216.216 87, 215.512 88.154, 214.975 89.565 M 204.500 131.438 C 205.050 131.651, 206.756 132.103, 208.291 132.442 C 212.601 133.394, 210.461 135, 204.882 135 C 201.803 135, 200.119 134.616, 200.500 134 C 200.840 133.450, 200.191 133, 199.059 133 C 197.068 133, 197.060 133.060, 198.819 134.819 C 200.189 136.189, 202.103 136.621, 206.569 136.569 C 209.831 136.531, 215.056 136.866, 218.181 137.313 C 223.191 138.031, 223.980 137.906, 224.861 136.259 C 226.889 132.470, 224.768 131.515, 213.788 131.276 C 208.129 131.152, 203.950 131.225, 204.500 131.438 M 191 134 C 189.787 134.784, 189.931 134.972, 191.750 134.985 C 192.988 134.993, 194 134.550, 194 134 C 194 132.747, 192.939 132.747, 191 134 M 69.665 137.174 C 68.889 140.141, 69.234 140.503, 75.640 143.435 C 82.483 146.568, 90 146.972, 90 144.207 C 90 142.943, 88.745 142.079, 85.740 141.275 C 83.396 140.649, 79.776 138.980, 77.695 137.568 C 73.052 134.417, 70.420 134.288, 69.665 137.174 M 156 137.913 C 152.975 138.236, 151.175 138.749, 152 139.052 C 154.271 139.889, 165 138.944, 165 137.907 C 165 137.408, 164.213 137.073, 163.250 137.163 C 162.287 137.253, 159.025 137.590, 156 137.913 M 143.964 140.456 C 144.628 141.257, 144.901 142.351, 144.570 142.887 C 143.739 144.231, 145.475 145.139, 147.435 144.386 C 148.636 143.926, 148.773 143.432, 147.970 142.464 C 147.165 141.494, 147.350 140.894, 148.695 140.111 C 150.183 139.245, 149.819 139.055, 146.628 139.030 C 143.349 139.005, 142.940 139.223, 143.964 140.456 M 162.613 140.720 C 162.217 141.116, 161.130 141.489, 160.197 141.549 C 159.264 141.609, 157.236 141.735, 155.691 141.829 C 151.748 142.069, 153.357 144, 157.500 144 C 159.360 144, 161.160 143.550, 161.500 143 C 161.840 142.450, 163.666 142, 165.559 142 C 167.452 142, 169 141.550, 169 141 C 169 139.859, 163.706 139.627, 162.613 140.720 M 138.697 142.948 C 138.993 144.083, 139.768 144.643, 140.599 144.324 C 142.446 143.615, 142.370 143.268, 140.098 142.053 C 138.493 141.193, 138.274 141.333, 138.697 142.948 M 86 159.424 C 80.225 162.359, 73.475 165.573, 71 166.565 C 68.525 167.558, 65.600 169.130, 64.500 170.060 C 63.400 170.989, 60.138 172.517, 57.250 173.455 C 49.962 175.823, 50.082 180, 57.438 180 C 58.689 180, 61.775 178.425, 64.296 176.500 C 66.817 174.575, 69.216 173, 69.626 173 C 70.036 173, 71.300 172.153, 72.436 171.118 C 73.571 170.083, 78.550 167.111, 83.500 164.513 C 88.450 161.915, 93.210 159.162, 94.079 158.395 C 94.947 157.628, 96.185 157, 96.829 157 C 97.473 157, 98 156.325, 98 155.500 C 98 154.675, 97.662 154.020, 97.250 154.044 C 96.838 154.068, 91.775 156.489, 86 159.424 M 193.291 159.226 C 192.744 159.927, 191.267 162.604, 190.008 165.176 C 187.923 169.435, 187.777 170.726, 188.362 179.676 C 189.380 195.247, 189.281 211.594, 188.096 223.500 C 186.527 239.267, 186.561 239.673, 189.500 240.411 C 190.875 240.756, 193.146 240.751, 194.546 240.399 C 196.850 239.821, 196.949 239.601, 195.586 238.095 C 194.235 236.603, 194.282 236.305, 196.040 235.207 C 198.833 233.463, 202.289 235.591, 200.895 238.197 C 200.025 239.822, 200.420 240, 204.900 240 C 207.633 240, 210.978 239.579, 212.332 239.064 C 213.686 238.549, 214.981 238.314, 215.208 238.541 C 215.436 238.769, 226.169 239.078, 239.061 239.228 C 262.309 239.498, 262.502 239.483, 262.804 237.371 C 263.315 233.790, 258.385 233.275, 221.324 233.038 C 201.565 232.912, 196.929 232.619, 195.945 231.434 C 195.003 230.299, 195.096 227.525, 196.371 218.660 C 198.239 205.673, 198.409 196.105, 196.985 184 C 196.436 179.325, 195.708 171.675, 195.369 167 C 195.029 162.325, 194.646 158.377, 194.518 158.226 C 194.390 158.075, 193.838 158.525, 193.291 159.226 M 216 235.874 C 216 236.660, 233.057 236.331, 235.500 235.499 C 236.050 235.311, 231.887 235.122, 226.250 235.079 C 220.613 235.036, 216 235.394, 216 235.874 M 241 235.973 C 243.475 236.361, 245.950 236.804, 246.500 236.957 C 248.466 237.507, 250.107 236.983, 249.500 236 C 249.160 235.450, 246.096 235.060, 242.691 235.134 C 236.538 235.266, 236.528 235.272, 241 235.973 M 205 236.861 C 205 237.335, 206.125 237.508, 207.500 237.245 C 208.875 236.982, 210 236.594, 210 236.383 C 210 236.173, 208.875 236, 207.500 236 C 206.125 236, 205 236.388, 205 236.861" stroke="none" fill="black" fill-rule="evenodd"/>
</svg>