<svg xmlns="http://www.w3.org/2000/svg" width="300" height="300" viewBox="0 0 300 300" version="1.1">
	<path d="M 97.164 42.303 C 96.378 43.250, 96.481 44.373, 97.541 46.417 C 98.414 48.100, 99 52.049, 99 56.254 C 99 61.766, 99.373 63.553, 100.734 64.548 C 102.217 65.632, 102.302 66.300, 101.324 69.158 C 100.058 72.851, 100.159 75.445, 101.931 84.860 C 102.589 88.357, 103.051 92.407, 102.958 93.860 C 102.865 95.312, 102.836 99.939, 102.894 104.143 C 103.008 112.347, 104.145 114.063, 108.072 111.961 C 109.816 111.028, 110 109.752, 110 98.608 C 110 84.397, 108.300 60.790, 106.983 56.722 C 105.932 53.473, 106.634 51, 108.607 51 C 109.862 51, 110.434 52.218, 110.124 54.232 C 109.955 55.335, 114.710 56.297, 116.096 55.441 C 116.762 55.029, 129.869 54.557, 145.225 54.391 C 160.580 54.225, 173.947 53.834, 174.930 53.522 C 176.029 53.173, 178.599 54.255, 181.608 56.333 L 186.500 59.711 186.309 65.606 C 186.015 74.714, 184.917 81, 183.622 81 C 182.975 81, 181.369 80.247, 180.055 79.326 C 177.648 77.640, 168.862 77.242, 162.835 78.545 C 159.420 79.284, 158.943 77.413, 160.656 70 C 161.849 64.833, 161.801 64.394, 159.852 62.750 C 156.410 59.845, 154.540 60.585, 152.263 65.750 C 151.112 68.362, 149.871 72.387, 149.507 74.692 C 149.142 76.998, 148.316 79.306, 147.672 79.821 C 147.027 80.336, 143.575 81.074, 140 81.460 C 136.425 81.847, 130.350 82.945, 126.500 83.901 L 119.500 85.637 119.500 89.569 L 119.500 93.500 125 93.188 C 128.025 93.017, 133.200 92.177, 136.500 91.322 C 150.452 87.708, 149.964 87.230, 149.568 104.138 C 149.377 112.283, 148.830 117.570, 148.103 118.297 C 147.400 119, 141.522 119.696, 133.221 120.059 C 125.674 120.389, 118.600 121.125, 117.500 121.694 C 116.400 122.264, 114.962 122.536, 114.305 122.300 C 113.648 122.064, 112.186 122.365, 111.055 122.970 C 109.508 123.799, 109 125.058, 109 128.067 C 109 132.811, 110.851 133.983, 114.532 131.571 C 115.916 130.664, 118.725 129.918, 120.774 129.914 C 130.686 129.894, 145.625 128.706, 146.661 127.856 C 147.414 127.237, 148.075 127.312, 148.542 128.068 C 149.333 129.347, 159.326 128.758, 168.880 126.868 C 173.190 126.016, 174.428 126.072, 175.100 127.152 C 175.780 128.245, 176.321 128.263, 177.956 127.250 C 179.065 126.563, 180.909 126, 182.052 126 C 187.864 126, 190.482 119.894, 185.485 117.994 C 183.188 117.121, 183.023 116.668, 183.580 112.769 C 183.915 110.421, 184.788 106.700, 185.520 104.500 C 186.782 100.707, 193.043 78.647, 195.060 70.884 C 196.507 65.317, 196.182 59.809, 194.187 56.089 C 191.976 51.965, 185.522 47.133, 180.806 46.069 C 178.887 45.636, 164.983 45.427, 149.908 45.603 C 121.843 45.933, 113.558 46.320, 108.744 47.528 C 106.428 48.109, 106 47.901, 106 46.190 C 106 42.296, 104.880 41, 101.515 41 C 99.717 41, 97.758 41.586, 97.164 42.303 M 170 86 C 168.625 86.440, 165.885 86.845, 163.911 86.900 C 159.179 87.032, 157.953 89.567, 156.367 102.500 C 155.692 108, 154.824 114.020, 154.438 115.879 L 153.735 119.258 163.475 118.528 C 174.904 117.671, 177 116.470, 177 110.778 C 177 108.700, 177.439 107, 177.975 107 C 178.514 107, 178.695 105.724, 178.380 104.149 C 177.812 101.312, 179.604 96.523, 183.365 90.827 C 185.086 88.219, 185.080 88.166, 183.105 88.683 C 181.964 88.981, 179.592 88.293, 177.672 87.106 C 173.994 84.833, 173.752 84.798, 170 86 M 181.510 97.016 C 181.856 97.575, 182.557 97.774, 183.069 97.457 C 184.456 96.600, 184.198 96, 182.441 96 C 181.584 96, 181.165 96.457, 181.510 97.016 M 157.688 123.646 C 156.383 124.950, 157.006 126, 159.083 126 C 160.247 126, 160.992 125.476, 160.771 124.813 C 160.284 123.351, 158.614 122.719, 157.688 123.646 M 119.813 125.683 C 120.534 125.972, 121.397 125.936, 121.729 125.604 C 122.061 125.272, 121.471 125.036, 120.417 125.079 C 119.252 125.127, 119.015 125.364, 119.813 125.683 M 165.885 135.190 C 165.486 139.733, 166.392 150.074, 167.463 153.199 C 168.707 156.829, 168.677 156.917, 165.828 157.910 C 163.868 158.594, 162.058 158.592, 160.254 157.906 C 158.682 157.309, 152.933 157.114, 146.291 157.433 L 135 157.975 135 150.487 C 135 143.196, 134.935 143, 132.535 143 C 129.959 143, 127.469 146.174, 128.316 148.380 C 128.574 149.053, 127.709 150.640, 126.393 151.907 C 125.077 153.174, 123.993 154.725, 123.985 155.355 C 123.948 158.069, 121.844 159.284, 115.869 160.040 C 112.366 160.484, 107.925 161.235, 106 161.709 C 102.742 162.512, 102.478 162.872, 102.186 166.922 L 101.872 171.272 108.848 170.718 C 112.684 170.414, 116.734 169.678, 117.846 169.082 C 120.943 167.425, 123.737 167.786, 125.322 170.050 C 126.741 172.075, 126.766 172.069, 127.398 169.550 C 128.473 165.268, 130 166.706, 130 172 C 130 175.652, 129.617 177, 128.580 177 C 127.496 177, 127.233 178.239, 127.466 182.250 C 127.633 185.137, 127.822 188.758, 127.885 190.295 C 127.948 191.833, 129.060 194.151, 130.355 195.446 C 134.011 199.102, 134.255 200.791, 131.478 203.206 C 130.007 204.485, 129 206.437, 129 208.009 L 129 210.657 106.709 210.579 C 87.818 210.512, 84.043 210.745, 81.959 212.109 C 80.070 213.345, 79.088 213.461, 77.722 212.609 C 75.623 211.300, 73.825 213.271, 74.244 216.422 C 74.590 219.018, 76.408 219.449, 78.440 217.417 C 80.004 215.853, 80.235 215.876, 81.988 217.757 C 83.783 219.683, 84.893 219.757, 107.682 219.466 C 128.509 219.199, 131.726 219.364, 133.300 220.781 C 134.855 222.180, 135.536 222.222, 138.300 221.091 C 144.945 218.372, 158.177 217.025, 168.750 217.992 C 169.713 218.080, 172.300 217.867, 174.500 217.519 C 176.700 217.171, 187.725 216.514, 199 216.060 C 210.275 215.605, 221.172 214.909, 223.216 214.512 C 228.048 213.574, 229.071 210.774, 225.844 207.319 C 223.707 205.030, 223.014 204.866, 218 205.460 C 214.975 205.819, 208.450 206.282, 203.500 206.490 C 198.550 206.698, 190.167 207.140, 184.871 207.471 C 176.563 207.992, 175.158 207.853, 174.621 206.456 C 173.535 203.625, 173.937 193.851, 175.606 182.500 C 177.481 169.747, 178.933 167.522, 184.675 168.599 C 188.548 169.325, 196.640 167.435, 199.250 165.193 C 200.213 164.366, 201 162.418, 201 160.864 C 201 158.662, 200.432 157.895, 198.426 157.392 C 197.011 157.037, 194.740 157.253, 193.379 157.873 C 190.436 159.214, 180 159.389, 180 158.098 C 180 157.602, 178.666 156.731, 177.036 156.162 L 174.071 155.129 173.786 144.814 L 173.500 134.500 169.750 134.190 C 167.207 133.979, 165.963 134.301, 165.885 135.190 M 92.428 164.328 C 91.549 166.618, 93.808 171, 95.868 171 C 98.531 171, 99.347 168.179, 97.500 165.359 C 95.803 162.770, 93.227 162.246, 92.428 164.328 M 119 164 C 119 164.550, 119.450 165, 120 165 C 120.550 165, 121 164.550, 121 164 C 121 163.450, 120.550 163, 120 163 C 119.450 163, 119 163.450, 119 164 M 180 164.500 C 180 165.325, 180.675 166, 181.500 166 C 182.325 166, 183 165.325, 183 164.500 C 183 163.675, 182.325 163, 181.500 163 C 180.675 163, 180 163.675, 180 164.500 M 137.650 169.175 C 137.307 170.454, 137.021 175.965, 137.014 181.421 C 137.003 189.269, 137.346 191.725, 138.657 193.174 C 140.064 194.729, 140.140 195.590, 139.157 198.869 C 137.847 203.242, 137.675 207.969, 138.765 209.596 C 139.294 210.384, 141.183 210.332, 145.500 209.410 C 148.800 208.705, 154.468 208.100, 158.096 208.064 C 167.168 207.976, 173.686 204.537, 171.496 200.994 C 171.020 200.223, 170.118 200.348, 168.499 201.409 C 166.445 202.754, 166.043 202.757, 164.943 201.431 C 163.955 200.241, 163.962 199.079, 164.979 195.718 C 165.682 193.398, 166.393 188.055, 166.561 183.843 C 166.729 179.632, 167.418 175.303, 168.093 174.223 C 169.128 172.565, 168.974 171.888, 167.105 169.880 C 165.022 167.641, 164.102 167.481, 151.582 167.175 C 138.375 166.853, 138.268 166.868, 137.650 169.175 M 189 210.993 C 186.525 211.312, 183.600 212.148, 182.500 212.850 C 180.788 213.942, 181.350 214.053, 186.392 213.621 C 189.633 213.343, 192.753 212.647, 193.326 212.074 C 194.848 210.552, 194.023 210.346, 189 210.993 M 156.826 212.107 C 156.231 212.475, 156.027 213.234, 156.372 213.793 C 157.195 215.125, 165.267 214.699, 165.734 213.299 C 166.140 212.079, 158.522 211.059, 156.826 212.107 M 147.250 214.689 C 148.213 214.941, 149.787 214.941, 150.750 214.689 C 151.713 214.438, 150.925 214.232, 149 214.232 C 147.075 214.232, 146.287 214.438, 147.250 214.689 M 127.361 227.502 C 127.044 228.328, 127.067 230.130, 127.412 231.507 C 127.784 232.987, 127.456 234.926, 126.611 236.254 C 125.110 238.612, 122 249.880, 122 252.960 C 122 253.949, 120.425 257.373, 118.500 260.570 C 116.575 263.767, 115 266.889, 115 267.507 C 115 268.126, 113.537 270.014, 111.750 271.703 C 107.042 276.151, 103 282.612, 103 285.688 C 103 286.750, 103.532 286.994, 104.750 286.492 C 105.713 286.094, 107.815 285.596, 109.422 285.384 C 112.696 284.953, 116 282.404, 116 280.310 C 116 278.726, 118.565 274.584, 121.535 271.373 C 122.654 270.162, 124.210 267.896, 124.992 266.336 C 125.774 264.776, 126.945 262.825, 127.595 262 C 128.245 261.175, 129.984 258.166, 131.460 255.313 C 132.936 252.460, 134.787 249.592, 135.572 248.940 C 137.218 247.574, 137.467 244.407, 136 243.500 C 135.450 243.160, 135 239.828, 135 236.096 C 135 230.792, 134.601 228.949, 133.171 227.655 C 130.892 225.592, 128.122 225.520, 127.361 227.502 M 169.696 240.350 C 169.411 241.092, 169.630 243.819, 170.183 246.410 C 170.907 249.803, 171.803 251.355, 173.385 251.956 C 174.593 252.416, 176.181 253.514, 176.914 254.396 C 177.646 255.278, 178.649 256, 179.144 256 C 179.638 256, 182.846 258.187, 186.271 260.859 C 189.697 263.532, 195.056 267.128, 198.179 268.850 C 203.054 271.538, 204.541 271.900, 208.679 271.411 C 214.814 270.686, 218 269.140, 218 266.890 C 218 264.444, 216.304 263.618, 211.022 263.491 C 207.528 263.408, 205.309 262.544, 201.260 259.692 C 198.378 257.661, 195.747 256, 195.414 256 C 195.080 256, 192.870 254.295, 190.502 252.210 C 188.134 250.126, 184.465 247.539, 182.348 246.460 C 180.232 245.382, 177.177 243.262, 175.560 241.750 C 172.326 238.725, 170.488 238.286, 169.696 240.350 M 165.500 241 C 165.160 241.550, 165.359 242, 165.941 242 C 166.523 242, 167 241.550, 167 241 C 167 240.450, 166.802 240, 166.559 240 C 166.316 240, 165.840 240.450, 165.500 241" stroke="none" fill="black" fill-rule="evenodd"/>
</svg>