<svg xmlns="http://www.w3.org/2000/svg" width="300" height="300" viewBox="0 0 300 300" version="1.1">
	<path d="M 142.578 15.147 C 137.846 16.225, 135.932 17.658, 136.666 19.573 C 137.373 21.415, 146.639 21.570, 147.260 19.750 C 147.589 18.789, 148.380 18.755, 150.684 19.603 C 152.971 20.444, 154.094 20.404, 155.422 19.433 C 156.716 18.487, 157.927 18.427, 160.140 19.199 C 161.778 19.770, 164.826 19.964, 166.913 19.630 C 169 19.296, 175.611 19.530, 181.604 20.149 C 196.112 21.647, 196.450 21.655, 196.824 20.500 C 197.234 19.236, 190.436 17.116, 182 15.875 C 175.599 14.935, 173.952 14.807, 169 14.872 C 167.625 14.890, 162 14.759, 156.500 14.580 C 151 14.401, 144.735 14.656, 142.578 15.147 M 183 45.127 C 180.525 45.609, 174.501 46.473, 169.613 47.046 C 164.726 47.619, 159.101 48.768, 157.113 49.601 C 153.330 51.185, 133.311 54.139, 129 53.749 C 125.234 53.408, 110.644 55.125, 109.487 56.046 C 108.930 56.489, 106.680 56.997, 104.487 57.175 L 100.500 57.500 100.741 62.500 C 101.472 77.630, 99.923 106.916, 98.073 112.973 C 97.489 114.883, 96.535 123.658, 95.951 132.473 C 95.368 141.288, 94.485 149.850, 93.989 151.500 C 93.493 153.150, 92.628 160.350, 92.066 167.500 C 91.505 174.650, 90.611 181.850, 90.079 183.500 C 89.044 186.714, 86.539 206.844, 85.039 224.006 C 84.534 229.784, 82.968 238.946, 81.560 244.365 C 79.885 250.813, 79 256.888, 79 261.940 C 79 269.177, 79.159 269.747, 81.530 271.016 C 85.833 273.319, 87.295 270.679, 88.614 258.225 C 89.239 252.326, 90.687 243, 91.832 237.500 C 92.977 232, 94.347 223.225, 94.876 218 C 95.406 212.775, 96.278 207.358, 96.814 205.961 C 97.351 204.565, 98.085 199.840, 98.446 195.461 C 98.808 191.083, 99.762 184.800, 100.566 181.500 C 101.371 178.200, 102.450 170.100, 102.964 163.500 C 104.607 142.403, 106.128 128.799, 108.163 117 C 109.255 110.675, 110.553 97.850, 111.050 88.500 C 112.325 64.474, 111.984 65.623, 118.785 62.422 C 121.928 60.942, 124.725 59.448, 125 59.102 C 125.448 58.538, 132.883 58.079, 147.500 57.714 C 150.250 57.645, 152.821 57.119, 153.213 56.544 C 153.605 55.970, 155.630 55.448, 157.713 55.384 C 159.796 55.321, 162.850 54.694, 164.500 53.993 C 168.326 52.366, 168.653 52.302, 180 50.963 C 191.164 49.645, 194.738 49.929, 212.607 53.555 C 214.965 54.033, 215.868 53.788, 216.347 52.537 C 216.813 51.324, 216.069 50.509, 213.522 49.445 C 211.620 48.650, 209.178 48, 208.095 48 C 207.013 48, 202.386 47.103, 197.813 46.007 C 193.241 44.911, 189.050 44.067, 188.500 44.132 C 187.950 44.197, 185.475 44.645, 183 45.127 M 105.030 73.764 C 105.014 76.659, 104.449 79.910, 103.775 80.989 C 102.808 82.536, 102.808 83.208, 103.775 84.175 C 104.592 84.992, 105.333 85.067, 106 84.400 C 107.383 83.017, 107.500 72.700, 106.159 70.390 C 105.259 68.842, 105.055 69.452, 105.030 73.764 M 170 80.930 C 170 81.442, 168.988 82.005, 167.750 82.180 C 165.523 82.497, 165.504 82.634, 165.882 95.883 L 166.263 109.266 163.382 108.660 C 149.994 105.844, 147.315 105.704, 138.952 107.390 C 129.425 109.309, 127.780 110.306, 128.199 113.906 C 128.557 116.969, 131.850 118.020, 133.250 115.519 C 133.889 114.376, 134.936 114.018, 136.492 114.409 C 137.756 114.726, 140.398 114.314, 142.363 113.493 C 147.249 111.451, 163.278 111.425, 164.963 113.455 C 165.911 114.597, 165.824 117.269, 164.563 125.872 C 163.679 131.901, 162.558 143.185, 162.072 150.949 C 160.951 168.854, 160.558 169.562, 151.303 170.341 C 147.561 170.656, 142.025 171.396, 139 171.986 C 135.975 172.576, 130.923 173.324, 127.774 173.648 C 124.625 173.972, 121.532 174.859, 120.902 175.618 C 120.271 176.378, 118.941 177, 117.945 177 C 115.285 177, 114.309 181.022, 116.569 182.674 C 118.772 184.285, 124.185 184.415, 125.707 182.893 C 126.316 182.284, 128.319 181.468, 130.157 181.080 C 132.666 180.551, 133.418 179.919, 133.173 178.544 C 132.890 176.956, 133.339 176.793, 136.559 177.316 C 138.817 177.682, 143.619 177.138, 148.808 175.928 C 154.484 174.605, 157.558 174.285, 157.983 174.973 C 158.581 175.941, 157.681 182.142, 155.094 194.886 C 154.492 197.849, 154 205.634, 154 212.186 C 154 220.710, 153.582 224.908, 152.530 226.941 C 150.399 231.064, 150.537 249.962, 152.733 254.566 C 154.711 258.714, 157.284 259.699, 160.549 257.560 C 163.468 255.648, 163.994 250.319, 161.364 249.309 C 159.940 248.763, 159.814 247.445, 160.397 239.153 C 160.765 233.912, 161.500 229.103, 162.029 228.465 C 162.558 227.828, 163.450 220.375, 164.012 211.903 C 164.573 203.431, 165.724 193.575, 166.570 190 C 168.714 180.933, 170.814 164.247, 171.363 151.915 C 171.618 146.187, 172.579 137.450, 173.498 132.500 C 175.361 122.470, 176.161 94.178, 174.707 89.750 C 174.156 88.071, 173.086 87, 171.961 87 C 170.947 87, 169.840 86.550, 169.500 86 C 169.149 85.433, 169.990 85, 171.441 85 C 173.504 85, 174 84.515, 174 82.500 C 174 80.667, 173.467 80, 172 80 C 170.900 80, 170 80.419, 170 80.930 M 206.688 87.792 C 204.778 89.903, 204.484 93.084, 206.054 94.654 C 207.773 96.373, 205.218 156.281, 202.990 166.500 C 201.379 173.891, 200.608 216.695, 201.873 228.500 C 203.300 241.808, 204.767 249.854, 206.432 253.500 C 207.186 255.150, 207.963 257.400, 208.160 258.500 C 208.677 261.393, 213.603 261.828, 214.482 259.058 C 214.841 257.926, 214.884 256.209, 214.577 255.243 C 212.586 248.968, 210.893 229.307, 210.876 212.263 C 210.856 191.674, 211.194 188.997, 213.817 189.005 C 215.920 189.011, 225 185.801, 224.999 185.052 C 224.998 184.333, 238.971 184.619, 244.521 185.451 C 246.887 185.806, 249.058 185.715, 249.345 185.250 C 250.470 183.430, 247.929 181.578, 243.816 181.219 C 237.427 180.663, 214.792 180.966, 212.621 181.636 C 210.967 182.147, 210.813 181.814, 211.343 178.858 C 211.674 177.011, 212.438 170.100, 213.040 163.500 C 215.172 140.139, 215.084 140.511, 218.500 140.424 C 220.150 140.382, 222.175 140.071, 223 139.733 C 224.347 139.181, 232.131 138.109, 236 137.943 C 236.825 137.907, 239.570 138.182, 242.100 138.552 C 245.695 139.079, 246.824 138.901, 247.270 137.738 C 248.366 134.882, 243.195 133.740, 229.892 133.898 C 214.821 134.077, 214.246 133.750, 215.612 125.793 C 216.498 120.631, 216.509 120.619, 221.500 119.279 C 227.128 117.767, 240.931 117.221, 242.890 118.432 C 244.545 119.455, 246.436 117.578, 245.695 115.647 C 245.066 114.007, 239.274 113.070, 226.773 112.584 C 218.274 112.253, 216.011 111.109, 215.979 107.128 C 215.967 105.682, 214.900 100.450, 213.607 95.500 C 211.137 86.050, 209.707 84.456, 206.688 87.792 M 103.032 106.250 C 103.061 109.250, 103.171 109.358, 104.463 107.653 C 105.233 106.637, 105.620 105.174, 105.324 104.403 C 104.347 101.857, 102.999 102.943, 103.032 106.250 M 59.074 120.862 C 58.291 122.325, 58.594 123.209, 60.486 124.987 C 62.675 127.044, 63.861 127.250, 73.489 127.250 C 84.409 127.250, 86.228 126.828, 84.169 124.769 C 83.240 123.840, 82.257 123.842, 79.772 124.780 C 77.098 125.789, 76.435 125.742, 75.737 124.494 C 75.277 123.672, 73.756 123, 72.358 123 C 70.960 123, 68.671 122.100, 67.273 121 C 64.083 118.491, 60.376 118.429, 59.074 120.862 M 136.247 133.966 C 132.607 134.391, 129.193 135.420, 128.080 136.428 C 126.638 137.733, 125.701 137.911, 124.279 137.149 C 121.725 135.783, 119.751 137.204, 120.163 140.113 C 120.421 141.945, 121.394 142.721, 124.343 143.449 C 127.518 144.233, 128.908 144.032, 132.343 142.292 C 139.614 138.608, 145.831 136.985, 148.615 138.044 C 151.777 139.246, 158 139.293, 158 138.115 C 158 134.781, 147.088 132.699, 136.247 133.966 M 98.158 151 C 98.158 152.375, 98.385 152.938, 98.662 152.250 C 98.940 151.563, 98.940 150.438, 98.662 149.750 C 98.385 149.063, 98.158 149.625, 98.158 151 M 70 159.627 C 65.225 160.827, 57.486 160.900, 50.526 159.809 C 49.038 159.576, 48.264 160.364, 47.389 163 C 46.428 165.896, 45.735 166.506, 43.371 166.536 C 39.677 166.583, 38.917 169.550, 42.215 171.052 C 44.050 171.888, 46.224 171.647, 52.036 169.965 C 56.141 168.777, 60.625 167.579, 62 167.302 C 72.310 165.232, 81.678 161.199, 79.893 159.600 C 78.568 158.413, 74.784 158.424, 70 159.627 M 211 186.500 C 211 187.325, 211.436 188, 211.969 188 C 212.501 188, 212.678 187.325, 212.362 186.500 C 212.045 185.675, 211.609 185, 211.393 185 C 211.177 185, 211 185.675, 211 186.500 M 92 191.500 C 92 194.158, 92.324 196.009, 92.720 195.613 C 93.438 194.895, 93.180 187.875, 92.407 187.083 C 92.183 186.854, 92 188.842, 92 191.500 M 204.688 187.646 C 204.309 188.024, 204 190.608, 204 193.389 C 204 198.021, 204.118 198.276, 205.408 196.436 C 208.120 192.563, 207.488 184.845, 204.688 187.646 M 159.160 191.240 C 157.756 192.644, 157.667 196.937, 159 199 C 159.788 200.219, 159.972 200.090, 159.985 198.309 C 159.993 197.104, 160.450 195.840, 161 195.500 C 162.214 194.750, 162.326 191.320, 161.160 190.599 C 160.698 190.313, 159.798 190.602, 159.160 191.240" stroke="none" fill="black" fill-rule="evenodd"/>
</svg>