<svg xmlns="http://www.w3.org/2000/svg" width="300" height="300" viewBox="0 0 300 300" version="1.1">
	<path d="M 108.888 54.635 C 106.710 56.966, 106.015 57.137, 101 56.573 C 85.465 54.824, 85.729 54.808, 83.279 57.659 C 80.389 61.023, 80.038 67.947, 82.750 68.097 C 87.492 68.359, 92.752 67.684, 95 66.523 C 96.375 65.813, 100.083 64.755, 103.241 64.171 C 107.859 63.317, 109.522 63.391, 111.741 64.548 C 114.407 65.938, 114.517 65.894, 115.008 63.243 L 115.517 60.500 128.232 60.220 C 140.758 59.945, 140.954 59.975, 141.444 62.220 C 142.253 65.925, 143.623 112.588, 144.448 164.500 C 145.155 208.980, 145.613 221.525, 146.763 227.859 C 148.172 235.622, 150.919 236.739, 154.250 230.903 C 156.444 227.061, 156.583 218.726, 154.489 216.632 C 152.359 214.502, 151.471 206.692, 152.951 203.117 C 153.850 200.948, 153.880 199.645, 153.068 198.126 C 152.463 196.996, 151.751 191.282, 151.485 185.428 C 151.082 176.555, 151.307 174.094, 152.838 170.634 C 154.421 167.054, 154.500 166.005, 153.413 162.992 C 151.823 158.587, 151.702 154.749, 153.059 151.769 C 153.891 149.944, 153.676 148.409, 152.059 144.639 C 150.286 140.502, 150 137.756, 150 124.882 C 150 112.802, 150.310 109.456, 151.615 107.465 C 153.073 105.240, 153.081 104.772, 151.695 102.657 C 149.889 99.900, 148 90.478, 148 84.224 C 148 81.330, 148.687 78.942, 150 77.273 C 151.695 75.118, 152 73.216, 152 64.794 C 152 52.282, 151.156 51.011, 144.525 53.543 C 141.855 54.563, 138.951 54.993, 137.284 54.616 C 135.007 54.101, 129.139 53.442, 123.500 53.069 C 122.950 53.032, 120.864 53.270, 118.864 53.597 C 116.864 53.925, 114.339 53.716, 113.252 53.135 C 111.637 52.270, 110.840 52.544, 108.888 54.635 M 71.500 59.361 C 70.400 60.001, 68.637 61.030, 67.582 61.647 C 65.967 62.591, 65.700 63.769, 65.892 69.104 C 66.018 72.589, 66.504 75.904, 66.972 76.470 C 67.931 77.630, 70.292 123.719, 69.461 125.063 C 69.167 125.538, 68.483 134.381, 67.940 144.714 C 66.621 169.800, 65.457 184.930, 64.146 194 C 62.160 207.748, 60.688 222.393, 60.251 232.750 C 59.738 244.895, 61.059 246.190, 65.336 237.736 C 67.723 233.018, 68 231.368, 68 221.858 C 68 213.657, 68.340 210.963, 69.496 210.003 C 70.662 209.036, 70.869 207.300, 70.436 202.131 C 70.069 197.748, 70.439 192.958, 71.528 188 C 73.167 180.540, 73.800 170.231, 74.259 143.500 C 74.392 135.800, 74.947 128.825, 75.494 128 C 76.062 127.143, 76.338 121.668, 76.137 115.232 C 75.900 107.637, 76.166 103.505, 76.952 102.558 C 77.859 101.465, 77.661 100.256, 76.059 97.116 C 74.491 94.042, 74 91.182, 74 85.123 C 74 80.284, 74.426 77.025, 75.087 76.804 C 76.632 76.289, 77.335 61.109, 75.895 59.373 C 74.577 57.786, 74.207 57.785, 71.500 59.361 M 247.681 58.652 C 247.323 59.011, 243.678 59.460, 239.582 59.651 C 235.487 59.842, 230.868 60.516, 229.318 61.149 C 225.014 62.907, 197.441 63.082, 193.361 61.378 C 188.854 59.494, 179.603 59.568, 178 61.500 C 177.315 62.325, 176.135 63, 175.378 63 C 174.575 63, 174 64.043, 174 65.500 C 174 66.875, 174.460 68, 175.021 68 C 175.583 68, 176.530 69.069, 177.125 70.376 C 178.147 72.617, 178.614 72.729, 185.354 72.343 C 196.514 71.704, 201.229 71.945, 202.782 73.234 C 203.923 74.181, 204.501 74.035, 205.608 72.521 C 206.374 71.474, 207 70.029, 207 69.309 C 207 68.468, 208.314 68, 210.679 68 C 212.702 68, 215.862 67.456, 217.699 66.792 C 220.457 65.794, 221.795 65.863, 225.365 67.186 C 229.828 68.841, 238.366 68.635, 240.664 66.818 C 241.304 66.312, 246.324 65.711, 251.820 65.483 C 259.752 65.154, 262.063 65.371, 263.028 66.534 C 263.697 67.340, 265.540 68, 267.122 68 C 269.602 68, 270 67.616, 270 65.223 C 270 63.695, 269.299 61.445, 268.443 60.223 C 267.025 58.197, 266.063 58, 257.610 58 C 252.508 58, 248.040 58.293, 247.681 58.652 M 239 75.001 C 238.175 75.534, 235.750 75.976, 233.610 75.985 C 229.458 76.001, 228.324 76.937, 225.065 83.039 C 223.294 86.355, 223.231 87.928, 224.070 108.039 C 224.563 119.843, 225.668 136.475, 226.527 145 C 227.603 155.681, 228.243 175.812, 228.588 209.750 C 229.065 256.734, 229.005 259, 227.284 259 C 226.291 259, 224.359 257.963, 222.990 256.695 C 220.174 254.089, 214.385 251, 212.315 251 C 211.557 251, 210.678 250.325, 210.362 249.500 C 210.045 248.675, 209.159 248, 208.393 248 C 207.627 248, 207 247.550, 207 247 C 207 246.450, 205.875 246, 204.500 246 C 202.267 246, 202 246.410, 202 249.846 C 202 253.139, 202.656 254.290, 206.564 257.846 C 209.075 260.131, 211.512 262, 211.981 262 C 212.450 262, 212.983 262.437, 213.167 262.970 C 213.621 264.292, 220.691 272.556, 225.108 276.929 C 227.093 278.893, 228.992 281.288, 229.327 282.250 C 229.663 283.212, 230.851 284, 231.969 284 C 233.607 284, 234 283.351, 234 280.646 C 234 277.221, 232.023 274.407, 226.871 270.496 C 224.729 268.870, 221.960 263, 223.335 263 C 224.456 263, 229 268.129, 229 269.393 C 229 271.451, 231.052 272.533, 232.011 270.982 C 232.603 270.025, 233.408 270.317, 235.246 272.155 C 236.592 273.501, 238.212 274.429, 238.847 274.218 C 240.464 273.679, 240.283 271.140, 238.500 269.357 C 237.675 268.532, 237 266.854, 237 265.629 C 237 264.403, 236.554 262.954, 236.008 262.408 C 234.916 261.316, 236.241 231.037, 237.468 229.052 C 237.855 228.425, 237.405 226.741, 236.467 225.309 C 234.960 223.010, 234.761 219.405, 234.766 194.501 C 234.769 174.595, 235.121 165.642, 235.962 164.071 C 236.920 162.281, 236.844 161.192, 235.577 158.521 C 234.635 156.536, 234 152.535, 234 148.585 C 234 144.948, 233.582 141.191, 233.072 140.236 C 232.562 139.281, 231.697 133.100, 231.150 126.500 C 230.604 119.900, 229.848 113.057, 229.471 111.294 C 228.952 108.867, 229.274 107.467, 230.797 105.531 C 232.469 103.405, 232.718 101.986, 232.276 97.112 C 231.593 89.579, 233.890 84.041, 239.232 80.339 C 241.350 78.871, 242.952 76.994, 242.792 76.168 C 242.417 74.239, 240.902 73.773, 239 75.001 M 106 140.926 C 106 141.599, 101.914 141.913, 94.474 141.811 C 87.849 141.720, 82.519 142.081, 81.941 142.659 C 80.829 143.771, 81.696 147, 83.107 147 C 83.598 147, 84 147.659, 84 148.465 C 84 150.573, 87.571 152.241, 89.727 151.140 C 93.939 148.990, 97.784 148.466, 103.304 149.289 C 107.471 149.911, 109.516 149.816, 110.554 148.955 C 112.509 147.332, 112.376 144.633, 110.250 142.807 C 107.516 140.459, 106 139.788, 106 140.926 M 107.473 181.363 C 106.388 182.112, 104.150 182.975, 102.500 183.281 C 96.418 184.407, 90.474 186.141, 89.550 187.057 C 89.028 187.576, 87.826 188, 86.879 188 C 85.933 188, 83.296 189.844, 81.020 192.097 C 77.147 195.932, 76.998 196.281, 78.691 197.565 C 80.750 199.126, 84.142 199.412, 85.550 198.145 C 87.010 196.829, 96.434 194.036, 101.744 193.344 C 107.174 192.636, 109.121 191.479, 108.334 189.427 C 107.941 188.404, 108.565 188, 110.533 188 C 112.043 188, 113.840 187.234, 114.525 186.297 C 115.586 184.846, 116.307 184.759, 119.402 185.709 C 122.333 186.608, 123.312 186.545, 124.474 185.383 C 125.267 184.590, 125.648 183.246, 125.322 182.396 C 124.849 181.165, 123.758 180.983, 119.972 181.504 C 116.960 181.918, 114.971 181.762, 114.549 181.079 C 113.622 179.579, 109.835 179.731, 107.473 181.363 M 137.596 233.206 C 136.619 233.753, 134.444 233.999, 132.762 233.752 C 129.561 233.282, 111.081 235.256, 102.500 236.984 C 92.667 238.964, 85.425 239.960, 80.710 239.980 C 77.893 239.992, 74.268 240.843, 71.907 242.047 L 67.894 244.094 71.347 247.547 C 74.617 250.817, 78.263 252.002, 79.399 250.164 C 79.683 249.705, 82.348 249.530, 85.322 249.777 C 89.948 250.160, 90.938 249.927, 92.177 248.158 C 93.299 246.556, 94.590 246.129, 97.917 246.262 C 101.117 246.390, 102.564 245.949, 103.602 244.530 C 104.669 243.070, 106.046 242.680, 109.499 242.859 C 111.976 242.987, 115.465 242.401, 117.252 241.557 C 119.213 240.630, 124.289 239.872, 130.066 239.644 C 139.709 239.264, 144 238.026, 144 235.625 C 144 233.636, 139.718 232.019, 137.596 233.206" stroke="none" fill="black" fill-rule="evenodd"/>
</svg>