<svg xmlns="http://www.w3.org/2000/svg" width="300" height="300" viewBox="0 0 300 300" version="1.1">
	<path d="M 127.077 12.923 C 124.454 15.546, 124.390 17.328, 126.948 16.517 C 128.435 16.045, 129.282 16.644, 130.524 19.046 C 132.030 21.959, 132.426 22.143, 135.824 21.505 C 137.843 21.126, 139.842 20.295, 140.266 19.658 C 140.813 18.835, 141.323 18.985, 142.026 20.174 C 142.721 21.351, 144.051 21.752, 146.507 21.524 C 148.428 21.345, 150 21.597, 150 22.084 C 150 23.215, 159.266 22.557, 169.274 20.716 C 177.906 19.128, 178.800 18.669, 177.146 16.675 C 176.294 15.649, 173.794 15.391, 167.253 15.652 C 162.439 15.844, 157.463 16.241, 156.195 16.534 C 154.927 16.826, 151.102 16.375, 147.695 15.531 C 144.288 14.687, 139.475 13.602, 137 13.121 C 134.525 12.640, 131.747 11.931, 130.827 11.546 C 129.757 11.098, 128.407 11.593, 127.077 12.923 M 181.500 32.597 C 178.750 33.401, 173.575 34.763, 170 35.624 C 166.425 36.484, 161.025 38.087, 158 39.186 C 154.975 40.286, 150.700 41.549, 148.500 41.993 C 146.300 42.438, 141.350 43.570, 137.500 44.510 C 133.650 45.449, 127.800 46.584, 124.500 47.032 C 108.468 49.206, 109.165 48.971, 107.964 52.610 C 106.508 57.020, 106.403 67.890, 107.684 81.470 C 108.863 93.962, 107.899 106.137, 104.991 115.500 C 103.966 118.800, 102.846 124.425, 102.503 128 C 101.435 139.121, 93.191 165.296, 87.881 174.429 C 86.365 177.036, 81.297 190.797, 78.464 200 C 71.461 222.745, 60.623 242.398, 53.908 244.529 C 51.790 245.201, 51.286 247.939, 53.250 248.106 C 53.938 248.164, 55.850 248.147, 57.500 248.067 C 63.156 247.793, 71.372 236.659, 80.235 217.258 C 82.306 212.725, 84 208.518, 84 207.909 C 84 207.300, 84.661 205.384, 85.469 203.651 C 86.277 201.918, 88.471 196.225, 90.344 191 C 93.582 181.966, 95.141 177.952, 99.860 166.500 C 102.625 159.791, 107.241 143.755, 109.935 131.500 C 113.942 113.271, 115.240 99.821, 114.469 84.500 C 114.081 76.800, 113.705 67.125, 113.632 63 L 113.500 55.500 116.500 55.374 C 122.656 55.116, 135.842 53.215, 137.147 52.397 C 137.891 51.931, 139.355 51.691, 140.401 51.863 C 141.446 52.036, 143.246 51.719, 144.401 51.158 C 145.555 50.598, 149.979 49.405, 154.230 48.506 C 162.097 46.844, 164.351 45.482, 161.878 43.888 C 160.722 43.143, 160.742 42.843, 162 42.026 C 163.103 41.310, 163.927 41.612, 165.113 43.170 C 166.134 44.511, 167.199 44.995, 168.017 44.489 C 168.728 44.050, 170.252 43.542, 171.404 43.359 C 176.204 42.599, 179.618 41.799, 181.500 40.994 C 190.260 37.249, 196.943 36.923, 201.213 40.031 L 203.927 42.006 205.065 39.878 C 206.563 37.079, 203.509 32.766, 199.394 31.868 C 194.364 30.770, 186.676 31.083, 181.500 32.597 M 177 39.559 C 177 40.416, 177.450 40.840, 178 40.500 C 178.550 40.160, 179 39.459, 179 38.941 C 179 38.423, 178.550 38, 178 38 C 177.450 38, 177 38.702, 177 39.559 M 124.500 52 C 124.160 52.550, 124.557 53, 125.382 53 C 126.207 53, 127.160 52.550, 127.500 52 C 127.840 51.450, 127.443 51, 126.618 51 C 125.793 51, 124.840 51.450, 124.500 52 M 165.250 65.730 C 164.563 65.970, 164 67.604, 164 69.361 C 164 72.131, 161.998 76.426, 159.973 78 C 159.619 78.275, 158.132 80.975, 156.669 84 C 153.056 91.468, 148.785 98.171, 143.522 104.632 C 141.100 107.605, 137.022 113.401, 134.460 117.512 C 131.837 121.720, 128.643 125.541, 127.151 126.256 C 123.631 127.943, 123.301 133.329, 126.689 133.811 C 127.892 133.983, 129.752 133.248, 130.820 132.180 C 131.889 131.111, 133.155 130.520, 133.632 130.868 C 134.109 131.216, 134.589 137.544, 134.698 144.931 C 134.807 152.318, 135.620 163.301, 136.505 169.337 C 137.465 175.878, 137.742 180.551, 137.192 180.906 C 135.400 182.060, 134.922 185.690, 136.400 186.917 C 138.383 188.563, 149.753 187.264, 150.872 185.265 C 151.556 184.041, 152.041 184.009, 153.743 185.072 C 155.443 186.133, 156.359 186.076, 159.124 184.737 C 161.366 183.651, 162.672 183.469, 163.112 184.181 C 163.570 184.923, 165.520 184.903, 169.633 184.114 C 172.860 183.495, 176.625 182.804, 178 182.578 C 191.871 180.295, 195.098 179.656, 199 178.418 C 201.475 177.633, 204.925 176.992, 206.667 176.995 C 209.663 177, 209.893 176.727, 210.917 171.951 C 211.513 169.174, 212.006 165.686, 212.013 164.201 C 212.020 162.715, 212.914 157.225, 214 152 C 216.460 140.160, 216.762 121.905, 214.534 119.677 C 213.728 118.871, 210.982 117.201, 208.430 115.966 C 204.317 113.975, 202.841 113.794, 195.393 114.367 C 190.773 114.722, 185.082 115.708, 182.747 116.559 C 180.411 117.410, 174.225 118.982, 169 120.052 C 157.061 122.498, 152.371 123.810, 148.197 125.870 C 144.971 127.462, 144.849 127.441, 142.969 125 C 141.911 123.625, 141.034 122.096, 141.022 121.601 C 141.010 121.107, 143.025 118.243, 145.500 115.236 C 147.975 112.230, 150 109.408, 150 108.965 C 150 107.149, 155.896 106.886, 158.490 108.586 C 160.670 110.014, 161.715 110.116, 164.720 109.194 C 166.705 108.585, 168.712 108.322, 169.179 108.611 C 170.169 109.222, 181.026 107.132, 182.500 106.047 C 183.050 105.642, 185.629 104.734, 188.231 104.031 C 193.641 102.567, 195.944 100.544, 194.194 98.794 C 193.365 97.965, 190.647 98.093, 183.786 99.284 C 170.109 101.658, 156.861 103.194, 156.156 102.489 C 155.816 102.149, 156.393 100.437, 157.438 98.685 C 160.413 93.696, 168.375 77.749, 169.671 74.181 L 170.842 70.957 174.411 72.659 C 176.374 73.595, 178.240 75.180, 178.557 76.180 C 179.156 78.066, 179.943 78.348, 183.750 78.039 C 185.418 77.904, 186 78.393, 186 79.928 C 186 81.068, 186.450 82, 187 82 C 187.550 82, 188 81.523, 188 80.941 C 188 80.359, 188.430 80.148, 188.956 80.473 C 189.482 80.798, 189.696 81.629, 189.431 82.320 C 189.145 83.064, 190.794 84.473, 193.474 85.775 C 195.963 86.985, 198 88.430, 198 88.987 C 198 89.544, 199.200 90, 200.667 90 C 202.133 90, 203.039 90.294, 202.680 90.653 C 201.940 91.393, 207.802 96, 209.483 96 C 210.085 96, 212.286 96.871, 214.374 97.936 C 218.237 99.905, 221 99.757, 221 97.580 C 221 95.944, 216.159 91.658, 212.596 90.140 C 210.999 89.459, 207.399 87.421, 204.596 85.611 C 201.793 83.800, 196.350 80.369, 192.500 77.986 C 188.650 75.603, 183.925 72.148, 182 70.308 C 180.075 68.468, 177.600 66.774, 176.500 66.543 C 172.682 65.743, 166.493 65.296, 165.250 65.730 M 68.350 98.765 C 67.206 99.496, 66.655 101.365, 66.882 103.750 C 66.947 104.438, 68.147 105, 69.550 105 C 70.952 105, 73.314 105.600, 74.800 106.333 C 76.285 107.066, 80.200 108.234, 83.500 108.928 C 86.800 109.623, 90.546 110.604, 91.825 111.108 C 94.621 112.211, 96 111.527, 96 109.035 C 96 107.729, 94.629 106.721, 91.322 105.594 C 88.749 104.717, 86.056 104, 85.337 104 C 84.618 104, 81.836 102.650, 79.154 101 C 74.385 98.065, 70.654 97.294, 68.350 98.765 M 182 121 C 182 121.550, 182.873 122, 183.941 122 C 185.009 122, 186.160 121.550, 186.500 121 C 186.851 120.433, 186.010 120, 184.559 120 C 183.152 120, 182 120.450, 182 121 M 191 121.738 C 189.075 121.968, 186.825 122.713, 186 123.392 C 184.468 124.654, 177.884 126.385, 170.216 127.541 C 167.860 127.897, 164.568 128.867, 162.902 129.699 C 161.236 130.530, 156.189 131.409, 151.686 131.652 C 147.184 131.894, 142.938 132.283, 142.250 132.515 C 140.693 133.041, 140.522 146.238, 142.035 149.066 C 142.605 150.130, 144.038 151, 145.221 151 C 146.403 151, 148.419 151.984, 149.699 153.187 C 151.433 154.816, 153.618 155.482, 158.264 155.796 C 165.270 156.270, 166.934 157.170, 165.035 159.458 C 163.335 161.506, 152.210 161.532, 147.346 159.500 C 145.371 158.675, 143.361 158, 142.878 158 C 141.854 158, 141.870 173.323, 142.898 177 C 143.550 179.333, 143.961 179.478, 149.048 179.168 C 152.047 178.986, 156.449 178.413, 158.831 177.896 C 163.150 176.958, 171.555 175.916, 190.500 173.972 C 203.989 172.587, 204 172.582, 203.999 168.183 C 203.997 163.125, 206.886 141.196, 208.050 137.431 C 208.571 135.744, 209.244 132.276, 209.544 129.726 C 210.497 121.616, 206.487 119.888, 191 121.738 M 92.500 126.461 C 90.300 127.178, 83.775 129.185, 78 130.921 C 72.225 132.658, 66.600 134.594, 65.500 135.223 C 64.400 135.853, 62.262 136.993, 60.750 137.757 C 59.237 138.521, 57.932 139.789, 57.850 140.573 C 57.767 141.358, 57.655 142.563, 57.600 143.250 C 57.424 145.448, 63.635 144.047, 74.821 139.365 C 80.695 136.907, 86.175 134.466, 87 133.941 C 87.825 133.417, 89.175 132.736, 90 132.429 C 101.494 128.154, 103.736 122.801, 92.500 126.461 M 156.904 127.615 C 155.744 129.013, 155.818 129.181, 157.449 128.865 C 158.486 128.664, 159.522 127.938, 159.750 127.250 C 160.344 125.466, 158.490 125.704, 156.904 127.615 M 175.614 129.529 C 173.779 131.363, 173.986 135.433, 176.588 148.708 C 177.364 152.672, 178.007 158.522, 178.015 161.708 C 178.024 164.894, 178.428 168.128, 178.914 168.896 C 180.363 171.183, 183 169.377, 183 166.099 C 183 164.063, 183.596 162.946, 184.904 162.531 C 186.880 161.903, 188.855 158.352, 191.038 151.500 C 191.739 149.300, 193.407 145.843, 194.745 143.817 C 197.279 139.980, 197.176 136.665, 194.491 135.635 C 192.755 134.969, 190.014 137.503, 189.962 139.821 C 189.942 140.745, 188.326 143.300, 186.373 145.500 L 182.821 149.500 183.296 141 C 183.833 131.412, 183.553 130, 181.117 130 C 180.173 130, 178.921 129.521, 178.336 128.936 C 177.583 128.183, 176.786 128.357, 175.614 129.529 M 136.543 129.931 C 136.226 130.443, 136.425 131.144, 136.984 131.490 C 137.543 131.835, 138 131.416, 138 130.559 C 138 128.802, 137.400 128.544, 136.543 129.931 M 208 164.559 C 208 166.677, 208.405 167.868, 209 167.500 C 209.550 167.160, 210 165.559, 210 163.941 C 210 162.323, 209.550 161, 209 161 C 208.450 161, 208 162.602, 208 164.559 M 197.500 198.663 C 194.200 198.819, 188.575 199.405, 185 199.964 C 181.425 200.524, 174.450 201.172, 169.500 201.403 C 158.674 201.910, 140.386 204.647, 137.212 206.234 C 135.315 207.183, 135.034 207.901, 135.567 210.439 C 136.547 215.102, 137.382 215.460, 143.202 213.717 C 149.568 211.810, 161.738 210.238, 176 209.479 C 181.775 209.172, 187.850 208.506, 189.500 207.999 C 191.150 207.492, 194.962 206.875, 197.970 206.628 C 200.979 206.381, 203.588 205.736, 203.768 205.196 C 204.259 203.724, 207.927 204.995, 209.005 207.009 C 209.523 207.977, 209.665 211.780, 209.321 215.461 C 208.745 221.635, 208.534 222.111, 206.598 221.603 C 204.670 221.097, 178.069 223.732, 146.722 227.533 C 139.694 228.386, 133.506 228.813, 132.972 228.482 C 131.342 227.475, 131.820 216.701, 133.609 214.148 C 135.116 211.997, 135.084 211.727, 133.109 209.887 C 131.949 208.806, 131 207.088, 131 206.068 C 131 203.681, 128.189 202.599, 126.224 204.229 C 123.832 206.214, 125.150 239.429, 128.001 249.002 C 129.660 254.573, 130.484 256, 132.042 256 C 133.119 256, 134 256.648, 134 257.441 C 134 259.420, 135.944 260.456, 137.236 259.164 C 137.985 258.415, 139.138 258.537, 141.149 259.577 C 143.709 260.901, 144 260.888, 144 259.454 C 144 258.003, 144.148 258.005, 145.624 259.482 C 147.591 261.448, 154.125 261.170, 154.809 259.091 C 155.112 258.170, 154.761 257.878, 153.796 258.248 C 152.983 258.560, 151.684 258.413, 150.909 257.923 C 149.939 257.308, 150.686 257.026, 153.309 257.015 C 155.671 257.006, 156.876 257.391, 156.482 258.030 C 155.649 259.377, 171.722 258.148, 174.500 256.652 C 175.600 256.060, 176.808 255.661, 177.185 255.766 C 177.562 255.871, 179.765 255.289, 182.079 254.472 C 184.394 253.655, 189.485 252.732, 193.394 252.420 C 197.302 252.108, 201.738 251.700, 203.250 251.513 C 205.771 251.203, 206 251.454, 206 254.528 C 206 261.223, 209.930 260.086, 212.252 252.718 C 214.141 246.722, 214.898 241.176, 215.558 228.500 C 215.815 223.550, 216.241 217.872, 216.503 215.883 C 217.051 211.733, 215.315 201.106, 213.785 199.250 C 212.788 198.040, 211.563 197.996, 197.500 198.663 M 196.813 204.683 C 197.534 204.972, 198.397 204.936, 198.729 204.604 C 199.061 204.272, 198.471 204.036, 197.417 204.079 C 196.252 204.127, 196.015 204.364, 196.813 204.683 M 164.543 206.931 C 164.226 207.443, 164.425 208.144, 164.984 208.490 C 166.177 209.227, 168 208.291, 168 206.941 C 168 205.724, 165.293 205.716, 164.543 206.931 M 204.847 227.487 C 204.556 227.777, 201.209 228.442, 197.409 228.963 C 193.609 229.485, 186 230.565, 180.500 231.363 C 175 232.161, 167.125 233.149, 163 233.559 C 144.860 235.363, 135.785 236.882, 134.305 238.362 C 132.058 240.608, 133.170 255.562, 135.576 255.461 C 136.084 255.440, 138.300 254.896, 140.500 254.253 C 142.700 253.609, 149.675 252.575, 156 251.955 C 162.325 251.334, 170.200 249.950, 173.500 248.878 C 177.115 247.704, 183.687 246.719, 190.032 246.399 C 199.640 245.915, 200.796 246.052, 203.210 247.950 L 205.855 250.031 206.534 247.894 C 207.683 244.273, 207.605 227.712, 206.438 227.317 C 205.853 227.120, 205.137 227.196, 204.847 227.487 M 165.667 229.667 C 164.516 230.817, 164.938 232, 166.500 232 C 167.325 232, 168 231.325, 168 230.500 C 168 228.938, 166.817 228.516, 165.667 229.667 M 170 254.577 L 167.500 256.083 170 255.429 C 171.375 255.070, 172.928 254.376, 173.450 253.888 C 174.977 252.460, 172.786 252.898, 170 254.577" stroke="none" fill="black" fill-rule="evenodd"/>
</svg>