<svg xmlns="http://www.w3.org/2000/svg" width="300" height="300" viewBox="0 0 300 300" version="1.1">
	<path d="M 137.296 14.148 C 135.358 16.086, 135.289 16.511, 136.589 18.495 C 137.875 20.459, 137.821 20.958, 136.077 23.176 C 135.003 24.541, 133.795 26.970, 133.392 28.573 C 132.990 30.176, 130.937 33.669, 128.830 36.334 C 126.724 38.999, 125 41.599, 125 42.111 C 125 44.006, 88.293 79.731, 79 86.880 C 76.525 88.784, 73.150 91.560, 71.500 93.049 C 51.780 110.844, 52.334 110.248, 55.043 110.770 C 56.607 111.071, 63.984 106.532, 74 99.106 C 77.025 96.863, 81.237 93.859, 83.361 92.431 C 85.484 91.004, 89.309 87.723, 91.861 85.141 C 94.412 82.559, 98.516 78.884, 100.980 76.973 C 103.443 75.063, 107.043 71.759, 108.980 69.631 C 110.916 67.502, 115.714 62.474, 119.642 58.457 C 127.997 49.913, 138 34.445, 138 30.070 C 138 28.446, 138.450 26.840, 139 26.500 C 139.550 26.160, 140 25.009, 140 23.941 C 140 22.873, 140.563 21.931, 141.250 21.848 C 141.938 21.764, 142.950 21.640, 143.500 21.571 C 144.050 21.503, 145.063 21.095, 145.750 20.665 C 146.586 20.141, 147 20.511, 147 21.781 C 147 23.100, 148.186 24.071, 150.884 24.962 C 153.021 25.667, 155.362 26.046, 156.086 25.805 C 156.811 25.563, 158.218 26.063, 159.214 26.915 C 160.934 28.388, 160.936 28.500, 159.262 29.162 C 157.949 29.682, 158.264 29.901, 160.500 30.022 C 162.150 30.111, 164.850 30.255, 166.500 30.342 C 168.691 30.457, 169.463 30.972, 169.361 32.250 C 169.273 33.365, 169.929 34, 171.170 34 C 172.241 34, 172.869 33.597, 172.565 33.105 C 171.393 31.209, 175.081 31.171, 176.842 33.061 C 177.897 34.193, 179.366 34.797, 180.245 34.459 C 181.153 34.111, 182.352 34.659, 183.146 35.784 C 185.880 39.658, 190.076 40.831, 202.120 41.090 C 216.104 41.390, 218.201 40.486, 214.582 35.714 C 213.072 33.723, 212.430 33.554, 202.500 32.522 C 193.580 31.595, 173.188 27.392, 171.663 26.165 C 171.023 25.651, 168.940 24.897, 167.033 24.488 C 165.126 24.080, 162.876 23.429, 162.033 23.042 C 159.057 21.676, 153.429 18.744, 147.349 15.391 C 143.966 13.526, 140.803 12, 140.321 12 C 139.839 12, 138.478 12.967, 137.296 14.148 M 192 38 C 195.687 39.181, 201.230 39.181, 200.500 38 C 200.160 37.450, 197.546 37.045, 194.691 37.100 C 190.591 37.178, 190.025 37.368, 192 38 M 140.997 68.013 C 133.860 68.820, 131.019 69.569, 124.750 72.293 C 121.519 73.697, 120.803 78, 123.800 78 C 124.790 78, 126.119 78.519, 126.754 79.154 C 127.625 80.025, 128.958 79.926, 132.204 78.748 C 137.616 76.784, 142.832 75.972, 155.779 75.079 C 163.564 74.542, 166.476 73.947, 167.779 72.624 C 169.408 70.972, 169.396 70.800, 167.557 69.438 C 166.489 68.646, 164.464 68.004, 163.057 68.012 C 161.651 68.019, 157.800 67.832, 154.500 67.595 C 151.200 67.358, 145.124 67.546, 140.997 68.013 M 159.500 85.944 C 155.650 86.319, 151.600 87.139, 150.500 87.767 C 149.400 88.395, 145.800 89.398, 142.500 89.997 C 128.521 92.534, 125.417 93.306, 123.921 94.617 C 121.461 96.773, 120.003 96.264, 119.354 93.022 C 118.581 89.157, 116.640 87.623, 113.513 88.407 C 110.462 89.173, 110.431 89.737, 113.100 95.761 C 114.254 98.367, 115.575 101.400, 116.035 102.500 C 116.494 103.600, 117.349 109.225, 117.935 115 C 118.521 120.775, 119.337 127.750, 119.750 130.500 L 120.500 135.500 126 135.395 C 129.025 135.338, 133.300 134.738, 135.500 134.062 C 137.700 133.386, 141.525 132.466, 144 132.017 C 146.475 131.568, 151.150 130.719, 154.388 130.130 C 157.627 129.542, 161.035 128.374, 161.961 127.535 C 162.888 126.696, 165.763 125.720, 168.350 125.365 C 173.589 124.647, 174.486 123.798, 174.185 119.843 C 174.060 118.204, 174.687 116.608, 175.767 115.814 C 177.488 114.550, 183.363 106.080, 185.971 101.104 C 187.522 98.144, 186.822 89.362, 184.890 87.542 C 183.157 85.910, 168.999 85.019, 159.500 85.944 M 170 94.042 C 167.525 94.477, 164.790 94.640, 163.922 94.404 C 162.187 93.932, 147.701 96.835, 136.068 99.987 C 126.954 102.455, 124.418 102.507, 123 100.250 C 122.188 98.956, 122.067 102.282, 122.538 113 C 122.888 120.975, 123.539 127.881, 123.983 128.346 C 124.428 128.812, 126.302 128.513, 128.146 127.682 C 133.042 125.478, 139.070 123.693, 142.500 123.433 C 147.676 123.039, 155.417 121.403, 157.500 120.262 C 158.600 119.660, 160.935 118.636, 162.690 117.987 C 166.196 116.690, 173.653 109.669, 174.560 106.810 C 174.876 105.814, 175.506 105, 175.959 105 C 177.316 105, 180.115 96.937, 179.467 94.895 C 178.821 92.861, 177.429 92.735, 170 94.042 M 125 99.059 C 125 99.641, 125.450 99.840, 126 99.500 C 126.550 99.160, 127 98.684, 127 98.441 C 127 98.198, 126.550 98, 126 98 C 125.450 98, 125 98.477, 125 99.059 M 152 161.470 C 142.126 162.978, 127.044 166.542, 122 168.560 C 120.075 169.330, 115.125 170.869, 111 171.979 C 106.875 173.090, 103 174.674, 102.390 175.499 C 100.486 178.073, 100.073 177.180, 100.704 171.851 C 101.208 167.600, 101.001 166.474, 99.519 165.390 C 98.198 164.424, 97.202 164.357, 95.747 165.136 C 94.150 165.990, 93.880 166.875, 94.345 169.737 C 94.661 171.686, 94.488 174.089, 93.959 175.076 C 93.311 176.288, 93.492 178.996, 94.516 183.411 C 95.414 187.283, 96.250 197.368, 96.567 208.133 C 96.882 218.837, 97.722 228.988, 98.609 232.813 C 99.842 238.132, 99.878 239.461, 98.808 240.140 C 97.729 240.824, 82.086 241.560, 74.500 241.284 C 73.400 241.244, 66.551 240.957, 59.281 240.648 C 47.479 240.146, 45.576 240.300, 41.531 242.089 C 37.910 243.691, 37 244.593, 37 246.578 C 37 249.671, 39.367 250.677, 42.588 248.953 C 44.472 247.945, 45.314 247.914, 46.220 248.820 C 48.051 250.651, 49.289 250.214, 48.696 247.946 C 48.210 246.086, 48.551 245.921, 52.330 246.196 C 55.725 246.444, 56.503 246.872, 56.518 248.500 C 56.533 250.057, 57.087 250.420, 59.018 250.138 C 60.383 249.939, 63.844 249.812, 66.710 249.857 C 69.575 249.902, 72.189 249.503, 72.519 248.970 C 72.848 248.436, 72.615 248, 72 248 C 71.385 248, 71.160 247.550, 71.500 247 C 72.601 245.219, 76.116 245.832, 75.794 247.750 C 75.579 249.028, 76.174 249.500, 78 249.500 C 79.661 249.500, 80.421 248.996, 80.264 248 C 80.071 246.779, 81.374 246.510, 87.264 246.554 C 91.244 246.584, 95.310 246.218, 96.300 245.742 C 98.450 244.708, 104 246.872, 104 248.744 C 104 249.435, 104.502 250, 105.117 250 C 105.741 250, 106.003 249.118, 105.710 248 C 105.278 246.349, 105.680 246, 108.012 246 C 109.565 246, 111.548 245.727, 112.418 245.393 C 113.548 244.959, 114 245.380, 114 246.868 C 114 248.673, 114.432 248.870, 117.250 248.351 C 119.037 248.022, 121 247.133, 121.610 246.376 C 122.962 244.701, 124.697 244.591, 125.216 246.149 C 125.752 247.755, 132.947 246.303, 133.660 244.445 C 134.501 242.252, 137.776 242.718, 138.544 245.140 C 139.183 247.153, 139.676 247.244, 146.907 246.687 C 155.826 245.999, 158.309 245.247, 157.617 243.444 C 156.864 241.483, 159.047 240.203, 163.500 239.994 C 169.541 239.710, 170.261 239.876, 169.670 241.417 C 168.926 243.356, 170.956 243.950, 176.010 243.272 C 178.947 242.878, 180.410 242.147, 180.733 240.913 C 181.221 239.048, 186.579 236.622, 188.115 237.571 C 188.602 237.872, 189 238.729, 189 239.476 C 189 241.365, 190.899 241.808, 195 240.877 C 196.925 240.440, 205.925 239.580, 215 238.966 C 224.075 238.352, 232.281 237.434, 233.236 236.925 C 234.191 236.416, 236.329 236, 237.986 236 C 239.644 236, 241 235.550, 241 235 C 241 234.450, 240.550 234, 240 234 C 239.450 234, 239 233.472, 239 232.826 C 239 232.180, 240.073 232.660, 241.386 233.892 C 243.319 235.709, 244.447 236.007, 247.342 235.464 C 251.363 234.709, 261.905 234.033, 269.683 234.030 C 273.915 234.028, 275.155 233.617, 276.433 231.792 C 278.325 229.091, 278.421 226.950, 276.750 224.696 C 275.580 223.118, 274.663 223.135, 262.409 224.968 C 255.209 226.045, 243.734 227.226, 236.909 227.592 C 230.084 227.959, 222.700 228.869, 220.500 229.615 C 218.300 230.361, 212.900 231.010, 208.500 231.058 C 204.100 231.107, 198.025 231.559, 195 232.063 C 187.377 233.335, 176.679 234.720, 169.214 235.402 C 163.989 235.880, 162.823 235.703, 162.305 234.352 C 161.962 233.459, 162.214 232.002, 162.865 231.114 C 165.718 227.223, 168.786 219.032, 169.462 213.500 C 169.865 210.200, 170.826 205.983, 171.598 204.128 C 172.369 202.273, 173.009 197.998, 173.020 194.628 C 173.031 191.258, 173.490 185.382, 174.041 181.571 C 174.646 177.387, 174.680 174.280, 174.129 173.729 C 172.777 172.377, 169 174.733, 169 176.928 C 169 177.950, 168.393 179.019, 167.650 179.304 C 166.735 179.655, 166.049 182.827, 165.518 189.161 C 165.087 194.297, 164.574 199.625, 164.377 201 C 164.180 202.375, 163.572 207.425, 163.026 212.222 C 162.436 217.407, 161.208 222.476, 159.998 224.722 C 158.878 226.800, 157.685 230.204, 157.347 232.286 C 156.965 234.642, 155.960 236.486, 154.689 237.166 C 153.537 237.783, 144.977 238.452, 135.073 238.700 C 125.408 238.943, 115.085 239.554, 112.134 240.058 C 109.183 240.562, 106.431 240.767, 106.019 240.512 C 104.329 239.467, 102.977 227.397, 102.515 209.244 C 102.246 198.653, 101.509 187.936, 100.878 185.429 C 100.016 182.006, 100.015 180.585, 100.874 179.726 C 101.733 178.867, 102.396 179.120, 103.532 180.742 L 105.045 182.903 110.773 181.019 C 113.923 179.984, 118.525 178.628, 121 178.007 C 123.475 177.385, 126.850 176.415, 128.500 175.851 C 137.590 172.741, 146.379 171.176, 161.500 169.973 C 170.192 169.281, 173.806 168.602, 174.610 167.509 C 175.836 165.843, 178 165.471, 178 166.927 C 178 168.572, 181.446 168.693, 183.311 167.113 C 185.131 165.572, 186.136 166.140, 187.268 169.352 C 187.433 169.820, 191.302 170.270, 195.865 170.352 C 205.389 170.522, 206.088 171.028, 208.041 179.171 C 208.884 182.687, 208.936 184.822, 208.213 186.339 C 207.066 188.746, 204.453 196.392, 202.690 202.500 C 202.055 204.700, 200.965 206.860, 200.268 207.300 C 199.571 207.740, 199 208.673, 199 209.375 C 199 211.177, 190.232 222.321, 187.984 223.377 C 185.657 224.470, 184.609 227.009, 185.937 228.337 C 187.579 229.979, 195.008 226.933, 198.424 223.220 C 202.169 219.147, 210.454 203.812, 211.501 199.015 C 211.920 197.098, 212.922 194.522, 213.729 193.291 C 214.828 191.613, 215.108 188.691, 214.847 181.606 C 214.537 173.164, 214.234 171.872, 212 169.481 C 207.473 164.636, 203.198 163.218, 189.430 161.995 C 169.091 160.187, 161.134 160.076, 152 161.470 M 162.500 166 C 162.160 166.550, 162.809 167, 163.941 167 C 165.073 167, 166 166.550, 166 166 C 166 165.450, 165.352 165, 164.559 165 C 163.766 165, 162.840 165.450, 162.500 166 M 154 166.969 C 154 167.501, 154.675 167.678, 155.500 167.362 C 156.325 167.045, 157 166.609, 157 166.393 C 157 166.177, 156.325 166, 155.500 166 C 154.675 166, 154 166.436, 154 166.969 M 141.500 169 C 141.160 169.550, 141.610 170, 142.500 170 C 143.390 170, 143.840 169.550, 143.500 169 C 143.160 168.450, 142.710 168, 142.500 168 C 142.290 168, 141.840 168.450, 141.500 169 M 141.204 177.750 C 140.013 180.902, 138.722 190.951, 138.473 199 C 138.380 202.025, 137.986 207.024, 137.597 210.109 C 136.727 217.027, 137.598 221, 139.986 221 C 142.779 221, 144.199 218.445, 144.563 212.761 C 145.710 194.865, 147.061 184.590, 148.473 183.029 C 150.616 180.662, 150.391 179.452, 147.365 177.073 C 143.848 174.306, 142.447 174.460, 141.204 177.750 M 264 230 C 262.835 230.753, 263.128 230.973, 265.309 230.985 C 266.930 230.994, 267.857 230.577, 267.500 230 C 266.733 228.758, 265.921 228.758, 264 230 M 227.500 233.713 C 223.104 234.770, 223.493 236.260, 228 235.631 C 234.905 234.666, 235.888 234.446, 236.638 233.696 C 237.401 232.932, 230.692 232.945, 227.500 233.713 M 207 236 C 207 236.550, 207.675 237, 208.500 237 C 209.325 237, 210 236.550, 210 236 C 210 235.450, 209.325 235, 208.500 235 C 207.675 235, 207 235.450, 207 236 M 199 237.406 C 199 238.320, 199.700 238.630, 201 238.290 C 202.100 238.002, 203 237.369, 203 236.883 C 203 236.398, 202.100 236, 201 236 C 199.900 236, 199 236.633, 199 237.406 M 142.750 243.662 C 143.438 243.940, 144.563 243.940, 145.250 243.662 C 145.938 243.385, 145.375 243.158, 144 243.158 C 142.625 243.158, 142.063 243.385, 142.750 243.662 M 64.750 247.662 C 65.438 247.940, 66.563 247.940, 67.250 247.662 C 67.938 247.385, 67.375 247.158, 66 247.158 C 64.625 247.158, 64.063 247.385, 64.750 247.662" stroke="none" fill="black" fill-rule="evenodd"/>
</svg>