<svg xmlns="http://www.w3.org/2000/svg" width="300" height="300" viewBox="0 0 300 300" version="1.1">
	<path d="M 184.750 36.572 C 179.589 39.372, 181.879 42.220, 192.903 46.710 C 195.981 47.965, 199.063 48.993, 199.750 48.995 C 200.438 48.998, 201 49.399, 201 49.886 C 201 50.374, 203.015 51.075, 205.477 51.444 C 207.939 51.813, 210.215 52.540, 210.536 53.058 C 210.856 53.576, 212.441 54, 214.059 54 C 217.227 54, 217.832 52.475, 215.750 49.740 C 214.622 48.258, 189.593 34.944, 188.116 35.040 C 187.777 35.062, 186.262 35.751, 184.750 36.572 M 212.512 64.679 C 210.382 65.417, 207.881 65.780, 206.954 65.485 C 206.027 65.191, 197.998 65.433, 189.112 66.023 C 177.442 66.798, 170.168 66.789, 162.916 65.991 C 151.625 64.748, 146 65.734, 146 68.955 C 146 71.772, 147.977 72.748, 155.250 73.518 C 158.963 73.911, 162 74.631, 162 75.116 C 162 75.602, 167.625 76, 174.500 76 C 181.375 76, 187 75.602, 187 75.117 C 187 73.714, 190.826 73.003, 200.500 72.608 C 217.995 71.893, 236.473 69.880, 237.853 68.539 C 238.657 67.756, 238.937 66.377, 238.544 65.137 C 237.923 63.181, 237.215 63.060, 227.133 63.195 C 221.131 63.275, 214.674 63.931, 212.512 64.679 M 187.800 70.200 C 188.733 71.133, 189.267 71.133, 190.200 70.200 C 191.133 69.267, 190.867 69, 189 69 C 187.133 69, 186.867 69.267, 187.800 70.200 M 165.269 70.693 C 166.242 70.947, 167.592 70.930, 168.269 70.656 C 168.946 70.382, 168.150 70.175, 166.500 70.195 C 164.850 70.215, 164.296 70.439, 165.269 70.693 M 76.738 71.596 C 76.332 72.001, 76 73.158, 76 74.167 C 76 75.175, 75.550 76, 75 76 C 73.040 76, 74.040 78.878, 76.250 79.597 C 78.807 80.429, 95.741 80.416, 107.131 79.573 C 113.018 79.138, 115.030 79.332, 115.936 80.423 C 116.746 81.398, 117.119 88.059, 117.139 101.912 C 117.167 120.185, 117.716 124.886, 119.490 122.016 C 120.729 120.011, 122.127 121.053, 121.816 123.750 C 121.561 125.970, 121.048 126.451, 119.152 126.244 C 116.896 125.999, 116.818 126.214, 117.152 131.744 L 117.500 137.500 114.500 137.325 C 112.850 137.228, 109.025 136.599, 106 135.926 C 102.975 135.254, 97.484 134.762, 93.798 134.834 C 90.112 134.906, 86.823 134.522, 86.489 133.982 C 85.523 132.420, 80.005 132.822, 79.361 134.502 C 78.322 137.208, 79.925 140.943, 82.391 141.562 C 83.689 141.888, 88.520 142.269, 93.125 142.409 C 102.214 142.686, 111.705 144.236, 114.954 145.975 C 116.845 146.987, 117.014 148.090, 117.179 160.535 C 117.277 167.941, 117.389 175.012, 117.429 176.250 C 117.498 178.441, 117.196 178.508, 106 178.795 C 99.675 178.958, 91.462 178.548, 87.750 177.885 C 79.737 176.454, 76 177.533, 76 181.278 C 76 183.003, 76.861 183.909, 79.357 184.812 C 82.440 185.927, 96.754 186.322, 112.455 185.726 L 118.409 185.500 118.563 206.116 C 118.647 217.455, 118.995 227.182, 119.335 227.733 C 119.675 228.283, 119.072 229.530, 117.994 230.505 C 116.338 232.004, 114.146 232.271, 103.768 232.236 C 97.021 232.213, 87.706 231.668, 83.068 231.024 C 75.483 229.972, 74.254 230.038, 70.821 231.677 C 66.902 233.549, 65.068 236.468, 66.753 238.153 C 68.027 239.427, 111.614 239.277, 114.020 237.989 C 117.158 236.310, 120.803 236.803, 121.500 239 C 121.849 240.100, 122.948 241, 123.942 241 C 126.593 241, 127.116 236.895, 126.938 217.500 C 126.852 208.150, 126.570 172.604, 126.310 138.509 C 126.051 104.414, 125.537 76.289, 125.169 76.009 C 124.801 75.729, 123.999 74.600, 123.386 73.500 C 122.155 71.290, 120.135 71.182, 95 71.991 C 88.125 72.213, 81.370 72.048, 79.988 71.626 C 78.606 71.203, 77.144 71.190, 76.738 71.596 M 67 74.326 C 67 75.055, 65.911 76.674, 64.580 77.925 L 62.160 80.198 61.611 113.849 C 61.083 146.248, 60.865 152.809, 59.662 172.500 C 59.359 177.450, 58.828 187.575, 58.480 195 C 58.132 202.425, 57.207 213.058, 56.424 218.628 C 54.792 230.235, 54.587 238.627, 55.915 239.447 C 56.418 239.758, 57.080 239.447, 57.386 238.756 C 57.693 238.065, 57.761 239.023, 57.538 240.884 C 57.315 242.745, 56.653 244.747, 56.066 245.334 C 55.480 245.920, 55.014 247.997, 55.031 249.950 C 55.085 255.979, 62.814 259.641, 63.118 253.781 C 63.184 252.527, 63.336 244.525, 63.456 236 C 63.577 227.475, 64.202 217.800, 64.845 214.500 C 68.330 196.627, 71.422 73, 68.384 73 C 67.623 73, 67 73.597, 67 74.326 M 167.014 82.394 C 162.577 83.576, 162.509 83.659, 160.786 90.044 C 159.828 93.595, 158.167 100.678, 157.095 105.784 C 156.023 110.890, 154.213 116.994, 153.073 119.349 C 151.933 121.704, 151 125.289, 151 127.316 C 151 129.342, 150.550 131, 150 131 C 149.450 131, 149 131.928, 149 133.062 C 149 135.425, 146.568 143.740, 144.269 149.240 C 143.093 152.052, 142.945 153.790, 143.671 156.240 C 144.385 158.652, 144.282 160.058, 143.273 161.644 C 141.702 164.113, 142.512 168.876, 144.641 169.693 C 147.139 170.651, 149 167.954, 149 163.378 C 149 160.970, 149.450 159, 150 159 C 150.550 159, 150.998 157.762, 150.995 156.250 C 150.990 153.936, 155.373 138.486, 159.151 127.500 C 159.719 125.850, 160.652 122.700, 161.225 120.500 C 161.798 118.300, 162.910 115.825, 163.696 115 C 164.959 113.675, 165.410 113.827, 167.563 116.306 C 168.903 117.849, 170 119.950, 170 120.974 C 170 123.598, 171.041 126, 172.178 126 C 173.214 126, 176 128.492, 176 129.418 C 176 130.581, 184.134 141.651, 187.663 145.291 C 194.886 152.741, 197.323 147.638, 191.050 138.195 C 188.823 134.841, 187 131.832, 187 131.508 C 187 130.712, 183.218 125.375, 179.250 120.573 C 177.463 118.410, 176 115.821, 176 114.820 C 176 113.819, 175.599 113, 175.108 113 C 174.618 113, 173.934 111.875, 173.589 110.500 C 173.094 108.525, 172.329 108, 169.950 108 C 168.196 108, 166.697 107.374, 166.362 106.502 C 165.725 104.842, 173.684 88, 175.105 88 C 175.597 88, 176 86.650, 176 85 C 176 83.350, 175.587 82, 175.082 82 C 174.577 82, 173.564 81.820, 172.832 81.600 C 172.099 81.380, 169.481 81.737, 167.014 82.394 M 222.806 86.706 C 221.935 87.693, 220.913 89.957, 220.534 91.739 C 220.156 93.520, 219.431 95.234, 218.923 95.548 C 218.415 95.861, 218 97.502, 218 99.193 C 218 103.162, 216.877 107.478, 209.984 130 C 205.549 144.491, 204.825 145.879, 201.525 146.205 L 198.537 146.500 198.865 155 C 199.045 159.675, 199.555 163.725, 199.999 164 C 200.443 164.275, 200.951 170.107, 201.127 176.961 L 201.449 189.422 198.974 190.111 C 197.613 190.490, 194.763 190.845, 192.639 190.900 L 188.778 191 191.139 192.926 C 194.233 195.449, 193.192 195.793, 180.659 196.384 C 175.247 196.639, 170.590 197.076, 170.312 197.355 C 169.538 198.128, 167 196.920, 167 195.779 C 167 195.153, 168.700 195.028, 171.500 195.448 C 174.471 195.893, 176 195.756, 176 195.043 C 176 194.390, 177.980 194.033, 181.008 194.141 C 186.248 194.326, 187.626 193.822, 186.567 192.108 C 185.791 190.853, 172.465 191.318, 162 192.964 C 157.875 193.612, 151.878 194.532, 148.674 195.006 C 141.899 196.010, 138 198.216, 138 201.044 C 138 204.845, 142.086 205.548, 152.283 203.500 C 157.422 202.468, 167.462 201.481, 174.976 201.268 C 182.388 201.058, 188.688 200.530, 188.976 200.094 C 189.264 199.659, 192.039 199.011, 195.143 198.655 C 200.418 198.050, 200.821 198.154, 201.329 200.254 C 203.111 207.607, 204.945 231.044, 205.493 253.476 C 205.851 268.081, 207.125 283.237, 208.166 285.250 C 209.873 288.553, 211.845 287.216, 212.590 282.250 C 212.982 279.637, 213.046 260.625, 212.733 240 C 212.420 219.375, 212.397 201.301, 212.682 199.836 C 213.187 197.240, 213.435 197.156, 222.350 196.552 C 227.383 196.212, 238.250 195.836, 246.500 195.717 L 261.500 195.500 261.810 192.817 C 262.349 188.147, 259.729 187.601, 238.500 187.959 C 228.050 188.136, 217.700 188.329, 215.500 188.390 L 211.500 188.500 211.546 180.836 C 211.580 175.242, 212.112 172.206, 213.519 169.595 C 215.349 166.196, 215.359 165.930, 213.707 164.278 C 212.228 162.799, 211.656 162.734, 209.886 163.839 C 208.742 164.554, 207.668 164.995, 207.501 164.819 C 207.334 164.644, 207.081 161.800, 206.938 158.500 C 206.652 151.858, 207.427 149.410, 212.249 141.727 C 215.572 136.432, 219.365 127.773, 220.562 122.750 C 221.487 118.866, 225.257 118.982, 227.180 122.953 C 229.072 126.858, 232.067 129.103, 242.124 134.151 C 246.731 136.464, 250.860 138.951, 251.300 139.678 C 252.402 141.501, 255.932 141.341, 256.664 139.434 C 257.518 137.207, 251.804 131.650, 245.204 128.290 C 242.189 126.756, 238.608 124.539, 237.247 123.364 C 235.886 122.189, 233.910 120.487, 232.855 119.583 C 231.801 118.678, 229.397 117.203, 227.513 116.305 C 223.544 114.412, 222.537 112.606, 224.409 110.734 C 225.137 110.005, 225.972 107.855, 226.263 105.955 C 226.554 104.055, 227.599 99.422, 228.585 95.661 C 229.880 90.720, 230.088 88.361, 229.337 87.161 C 227.866 84.815, 224.672 84.592, 222.806 86.706 M 163.583 95.866 C 163.152 96.563, 163.070 97.403, 163.400 97.733 C 164.295 98.628, 165.271 97.312, 164.787 95.862 C 164.449 94.846, 164.213 94.846, 163.583 95.866 M 91.500 182 C 91.840 182.550, 92.541 183, 93.059 183 C 93.577 183, 94 182.550, 94 182 C 94 181.450, 93.298 181, 92.441 181 C 91.584 181, 91.160 181.450, 91.500 182 M 216.570 191.886 C 215.626 193.415, 219.818 193.856, 221.704 192.426 C 223.341 191.185, 223.217 191.061, 220.309 191.032 C 218.554 191.014, 216.872 191.399, 216.570 191.886 M 161.002 195.999 C 159.787 196.750, 159.838 197.001, 161.321 197.570 C 163.434 198.380, 164.157 197.873, 163.169 196.274 C 162.710 195.531, 161.921 195.431, 161.002 195.999 M 153.250 198.662 C 151.820 199.239, 151.551 201, 152.893 201 C 153.384 201, 154.045 200.325, 154.362 199.500 C 154.678 198.675, 154.839 198.036, 154.719 198.079 C 154.598 198.122, 153.938 198.385, 153.250 198.662 M 204.607 203.826 C 203.907 204.959, 205.040 209, 206.058 209 C 207.466 209, 208.158 207.073, 207.497 204.991 C 206.843 202.930, 205.497 202.387, 204.607 203.826" stroke="none" fill="black" fill-rule="evenodd"/>
</svg>