<svg xmlns="http://www.w3.org/2000/svg" width="300" height="300" viewBox="0 0 300 300" version="1.1">
	<path d="M 209.106 27.372 C 208.193 28.472, 208.145 29.403, 208.927 30.864 C 209.513 31.959, 209.721 33.563, 209.389 34.428 C 208.604 36.475, 206 36.466, 206 34.417 C 206 32.184, 203.734 33.195, 202.274 36.079 C 201.256 38.090, 201.298 38.555, 202.524 38.823 C 203.336 39.001, 204 39.836, 204 40.679 C 204 42.167, 198.293 50.159, 196.746 50.837 C 196.323 51.023, 195.540 51.991, 195.006 52.989 C 193.056 56.633, 197.937 53.890, 202.279 48.902 C 204.600 46.235, 209.086 41.229, 212.246 37.777 C 215.406 34.324, 217.993 30.993, 217.996 30.372 C 218.007 27.382, 211.048 25.033, 209.106 27.372 M 18.714 51.619 C 18.321 52.012, 18 53.335, 18 54.560 C 18 55.784, 17.325 57.045, 16.500 57.362 C 14.546 58.111, 14.608 59.804, 16.884 67.845 C 19.486 77.039, 21 87.632, 21 96.641 C 21 103.287, 21.189 104.088, 22.500 103 C 23.729 101.980, 24 102.049, 24 103.378 C 24 104.270, 23.306 105, 22.458 105 C 21.102 105, 20.985 107.322, 21.493 124.250 C 21.810 134.838, 22.073 144.512, 22.076 145.750 C 22.113 157.656, 21.945 163.785, 21.401 170.500 C 20.711 179.001, 20.733 177.879, 20.969 192.232 C 21.076 198.685, 21.959 207.910, 22.932 212.732 C 24.589 220.947, 24.868 221.520, 27.356 221.817 C 31.059 222.259, 31.345 220.699, 29.443 210.411 C 28.537 205.510, 27.581 197.988, 27.320 193.696 C 26.802 185.190, 27.657 183, 31.500 183 C 32.740 183, 34.276 182.372, 34.913 181.605 C 35.549 180.838, 37.517 179.976, 39.285 179.689 C 54.153 177.275, 62.368 176.394, 67.391 176.673 C 70.630 176.854, 75.018 176.534, 77.141 175.962 C 80.235 175.129, 81 174.456, 81 172.564 C 81 170.236, 80.821 170.195, 67.250 169.461 C 58.030 168.963, 51.668 169.094, 47.940 169.859 C 44.882 170.487, 40.369 171, 37.912 171 C 35.455 171, 32.529 171.641, 31.410 172.425 C 27.539 175.136, 27.059 173.347, 28.205 160.484 C 29.683 143.900, 30.253 90.790, 29.020 84.545 C 25.913 68.801, 25.094 62.869, 25.286 57.487 L 25.500 51.500 22.464 51.203 C 20.794 51.039, 19.107 51.227, 18.714 51.619 M 192 57.059 C 192 57.641, 192.450 57.840, 193 57.500 C 193.550 57.160, 194 56.684, 194 56.441 C 194 56.198, 193.550 56, 193 56 C 192.450 56, 192 56.477, 192 57.059 M 76.100 58.717 C 75.220 59.388, 71.658 59.951, 68.184 59.968 C 64.711 59.986, 60.906 60.515, 59.729 61.145 C 58.552 61.775, 55.094 62.478, 52.045 62.707 C 48.995 62.936, 45.008 63.591, 43.185 64.161 C 41.361 64.731, 38.290 64.902, 36.359 64.540 C 30.023 63.351, 27.701 68.492, 32.527 73.026 C 34.939 75.291, 35.272 75.339, 39.777 74.069 C 42.375 73.337, 46.300 72.380, 48.500 71.944 C 50.700 71.508, 54.300 70.678, 56.500 70.099 C 58.700 69.521, 62.442 69.037, 64.816 69.024 C 67.189 69.011, 69.999 68.536, 71.059 67.968 C 72.119 67.401, 75.352 66.839, 78.243 66.718 L 83.500 66.500 84.123 72.500 C 84.858 79.574, 85.913 88.215, 86.590 92.705 C 86.937 95.001, 87.488 95.750, 88.537 95.348 C 89.550 94.959, 90 95.468, 90 97 C 90 98.459, 89.535 99.035, 88.637 98.691 C 87.534 98.267, 87.290 100.252, 87.360 109.084 C 87.408 115.088, 87.834 120, 88.307 120 C 88.780 120, 88.981 120.563, 88.753 121.250 C 88.465 122.120, 84.261 122.707, 74.920 123.182 C 67.539 123.557, 59.925 124.091, 58 124.369 C 56.075 124.647, 51.800 124.971, 48.500 125.089 C 40.922 125.360, 40.028 125.706, 40.085 128.350 C 40.110 129.532, 39.989 131.400, 39.815 132.500 C 39.426 134.972, 42.129 134.986, 56 132.586 C 68.840 130.365, 84.651 128.384, 85.987 128.829 C 86.744 129.081, 87.066 138.720, 87.040 160.346 C 86.990 201.295, 88.712 218.086, 93.549 223.830 C 93.701 224.011, 94.972 223.409, 96.373 222.492 C 98.066 221.382, 99.891 221.037, 101.820 221.461 C 104.601 222.071, 104.719 222.324, 104.643 227.530 C 104.588 231.358, 105.033 233.336, 106.149 234.231 C 107.021 234.929, 108.581 237.050, 109.617 238.944 C 110.653 240.838, 113.736 244.551, 116.469 247.194 C 120.588 251.179, 122.071 252, 125.147 252 C 129.210 252, 132 249.935, 132 246.929 C 132 245.346, 131.284 245, 128.014 245 C 124.472 245, 123.734 244.555, 121.381 241 C 119.925 238.800, 118.344 237, 117.867 237 C 117.390 237, 117 236.127, 117 235.059 C 117 233.991, 116.543 232.836, 115.985 232.491 C 114.145 231.354, 112 224.833, 112 220.378 C 112 216.920, 111.632 215.975, 110.250 215.882 C 107.234 215.677, 105.749 216.108, 104.229 217.628 C 99.611 222.247, 96.784 213.120, 95.037 187.950 C 94.078 174.136, 94.080 165.858, 95.044 149.056 C 95.784 136.151, 96.053 116.798, 95.725 100.106 C 95.240 75.493, 94.959 71.917, 93.130 67.123 C 92.002 64.165, 90.354 60.944, 89.468 59.964 C 87.485 57.773, 78.447 56.930, 76.100 58.717 M 158.500 58.536 C 156.850 59.292, 154.611 59.930, 153.525 59.955 C 151.020 60.012, 145.393 66.279, 143.967 70.601 C 143.176 72.996, 143.181 74.470, 143.984 75.970 C 144.816 77.524, 144.769 78.635, 143.795 80.440 C 143.083 81.762, 141.375 85.015, 140 87.671 C 138.625 90.327, 136.488 93.620, 135.250 94.990 C 134.012 96.359, 133 97.785, 133 98.158 C 133 98.531, 131.056 101.114, 128.680 103.898 C 126.304 106.681, 123.737 110.205, 122.976 111.729 C 122.214 113.253, 120.701 115.516, 119.614 116.758 C 117.451 119.228, 114.942 125.608, 115.797 126.464 C 116.872 127.539, 119.608 126.929, 124.500 124.522 C 127.250 123.169, 130.032 122.048, 130.683 122.031 C 132.596 121.981, 133.137 125.426, 132.007 130.468 C 131.428 133.054, 131.248 137.388, 131.608 140.099 C 132.200 144.563, 132.013 145.259, 129.631 147.466 C 128.184 148.807, 127 150.870, 127 152.050 C 127 153.230, 125.256 157.864, 123.125 162.348 C 120.994 166.831, 118.514 172.075, 117.613 174 C 116.712 175.925, 114.855 179.518, 113.487 181.985 C 110.795 186.838, 110.134 193, 112.306 193 C 115.101 193, 128.959 180.334, 128.991 177.750 C 128.996 177.338, 129.675 177, 130.500 177 C 131.325 177, 132 176.613, 132 176.140 C 132 175.667, 133.531 173.657, 135.401 171.673 C 137.272 169.690, 139.407 166.702, 140.146 165.033 C 140.884 163.365, 141.941 161.999, 142.494 161.998 C 143.047 161.997, 144.850 159.982, 146.500 157.520 C 148.505 154.529, 150.224 153.037, 151.683 153.022 C 153.953 152.999, 154.369 153.802, 155.477 160.351 C 156.114 164.116, 157.872 168.829, 160.627 174.154 C 161.382 175.614, 162 177.472, 162 178.282 C 162 179.092, 162.650 180.294, 163.444 180.954 C 164.238 181.613, 165.026 183.760, 165.194 185.725 C 165.557 189.966, 168.086 192.078, 170.750 190.364 C 171.713 189.745, 172.414 188.397, 172.309 187.369 C 171.868 183.051, 169.910 175.510, 168.991 174.591 C 168.446 174.046, 168 172.297, 168 170.704 C 168 169.112, 167.387 166.614, 166.639 165.154 C 164.934 161.830, 163.100 156.630, 161.899 151.716 C 160.514 146.045, 158.886 144, 155.759 144 C 154.242 144, 153 144.431, 153 144.958 C 153 145.485, 150.975 147.102, 148.500 148.553 C 146.025 150.003, 144 151.597, 144 152.095 C 144 152.593, 143.325 153, 142.500 153 C 141.675 153, 141 153.675, 141 154.500 C 141 155.325, 140.325 156, 139.500 156 C 138.675 156, 138 156.471, 138 157.048 C 138 157.624, 136.875 159.138, 135.500 160.412 C 134.125 161.687, 133 163.234, 133 163.850 C 133 164.466, 130.863 167.053, 128.250 169.598 C 124.095 173.645, 123.461 173.970, 123.190 172.187 C 123.020 171.065, 124.257 168.247, 125.940 165.924 C 127.623 163.601, 129 161.092, 129 160.350 C 129 159.607, 129.441 159, 129.981 159 C 130.520 159, 131.265 157.762, 131.635 156.250 C 132.005 154.738, 132.669 153.261, 133.110 152.968 C 133.877 152.459, 134.711 149.672, 139.058 133.090 C 140.126 129.015, 141 123.052, 141 119.840 L 141 114 135.559 114 C 132.566 114, 129.840 114.450, 129.500 115 C 129.160 115.550, 128.234 116, 127.441 116 C 125.588 116, 125.555 112.108, 127.401 111.399 C 128.172 111.104, 129.059 110.105, 129.372 109.181 C 130.269 106.534, 132.269 103.826, 135.250 101.223 C 136.762 99.903, 138 98.187, 138 97.411 C 138 96.635, 138.354 96, 138.787 96 C 139.799 96, 147 86.379, 147 85.026 C 147 84.462, 147.414 84, 147.921 84 C 148.427 84, 149.159 82.552, 149.548 80.783 C 150.012 78.667, 152.776 75.028, 157.627 70.146 C 165.046 62.678, 166.791 58.901, 163.418 57.607 C 162.548 57.273, 161.761 57.037, 161.668 57.081 C 161.576 57.126, 160.150 57.781, 158.500 58.536 M 252.402 58.078 C 244.805 59.071, 234 62.692, 234 64.244 C 234 64.660, 232.441 65, 230.535 65 C 228.629 65, 225.010 65.699, 222.492 66.554 C 219.975 67.409, 212.871 69.001, 206.707 70.092 C 190.429 72.972, 190.276 73.015, 187.688 75.413 C 184.499 78.369, 183 77.605, 183 73.024 C 183 66.742, 179.184 66.727, 177.162 73 C 175.676 77.611, 175.630 82.416, 176.892 101 C 178.498 124.633, 181.044 135.676, 186.151 141.155 C 189.063 144.279, 193.361 144.919, 196.418 142.684 C 198.898 140.870, 198.085 137.531, 195.127 137.381 C 192.180 137.232, 191.495 136.150, 188.891 127.532 C 186.717 120.336, 187.054 117.827, 190.280 117.192 C 191.255 117, 191.969 117.716, 192.173 119.089 C 192.732 122.859, 195.322 123.648, 199.913 121.447 C 203.656 119.654, 205.455 117, 202.929 117 C 202.339 117, 202.532 116.325, 203.357 115.500 C 205.364 113.494, 211.150 113.447, 210.383 115.443 C 210.079 116.237, 209.081 117.121, 208.165 117.409 C 207.249 117.696, 209.346 117.761, 212.824 117.554 C 216.668 117.324, 219.819 116.568, 220.861 115.626 C 221.803 114.773, 223.486 114.314, 224.602 114.606 C 228.143 115.532, 250.236 109.285, 252.010 106.857 C 252.291 106.473, 253.690 105.865, 255.120 105.506 C 257.718 104.854, 257.720 104.858, 257.229 110.177 C 256.958 113.104, 255.882 117.196, 254.838 119.270 C 253.133 122.654, 253.102 123.102, 254.533 123.651 C 257.866 124.930, 260.447 122.456, 262.117 116.382 C 265.015 105.837, 267.043 89.776, 267.243 75.779 C 267.428 62.807, 267.319 61.946, 265.243 60.012 C 262.690 57.633, 259.490 57.151, 252.402 58.078 M 177 59.694 C 175.094 60.375, 173 62.991, 173 64.691 C 173 65.416, 174.101 66, 175.465 66 C 177.949 66, 180 63.542, 180 60.566 C 180 58.936, 179.514 58.795, 177 59.694 M 241.840 64.588 C 240.967 65.462, 238.494 66.267, 236.346 66.377 C 234.198 66.488, 231.329 67.392, 229.970 68.387 L 227.500 70.195 232.500 69.562 C 235.250 69.214, 239.075 68.309, 241 67.551 C 242.925 66.792, 246.300 65.482, 248.500 64.638 L 252.500 63.103 247.964 63.052 C 245.096 63.019, 242.845 63.584, 241.840 64.588 M 57.813 65.683 C 58.534 65.972, 59.397 65.936, 59.729 65.604 C 60.061 65.272, 59.471 65.036, 58.417 65.079 C 57.252 65.127, 57.015 65.364, 57.813 65.683 M 250.473 67.337 C 248.006 69.008, 238.798 72, 236.121 72 C 235.019 72, 233.856 72.424, 233.536 72.942 C 233.215 73.460, 230.826 74.161, 228.227 74.499 C 225.627 74.837, 222.340 75.742, 220.923 76.511 C 219.505 77.280, 215.330 78.218, 211.645 78.595 C 207.959 78.973, 204.705 79.669, 204.413 80.141 C 204.121 80.613, 202.163 81, 200.063 81 C 197.963 81, 194.633 81.673, 192.664 82.496 C 190.696 83.318, 188.053 83.881, 186.792 83.746 C 184.889 83.542, 184.547 83.924, 184.775 86 C 184.927 87.375, 185.377 94.125, 185.775 101 L 186.500 113.500 189.500 113.288 C 196.807 112.772, 207.884 110.624, 212.185 108.889 C 214.762 107.850, 219.179 107, 222.001 107 C 224.823 107, 227.889 106.611, 228.816 106.136 C 231.642 104.687, 242.486 103.914, 241.142 105.258 C 239.420 106.980, 239.763 108, 242.063 108 C 243.470 108, 244.034 107.444, 243.838 106.250 C 243.460 103.956, 244.740 102, 246.619 102 C 247.445 102, 250.300 100.573, 252.964 98.829 L 257.808 95.657 257.627 82.079 C 257.527 74.610, 257.093 67.938, 256.664 67.250 C 255.645 65.621, 252.949 65.659, 250.473 67.337 M 49.500 68 C 49.160 68.550, 49.835 69, 51 69 C 52.165 69, 52.840 68.550, 52.500 68 C 52.160 67.450, 51.485 67, 51 67 C 50.515 67, 49.840 67.450, 49.500 68 M 33 70.500 C 33 71.325, 33.675 72, 34.500 72 C 35.325 72, 36 71.325, 36 70.500 C 36 69.675, 35.325 69, 34.500 69 C 33.675 69, 33 69.675, 33 70.500 M 194.417 77.134 C 193.665 78.351, 195.337 78.681, 198.500 77.940 C 200.150 77.553, 201.275 77.125, 201 76.989 C 199.751 76.372, 194.821 76.480, 194.417 77.134 M 88 103.500 C 88 104.325, 88.450 105, 89 105 C 89.550 105, 90 104.325, 90 103.500 C 90 102.675, 89.550 102, 89 102 C 88.450 102, 88 102.675, 88 103.500 M 223.543 110.931 C 222.541 112.552, 224.718 113.045, 226.009 111.489 C 227.014 110.278, 226.953 110, 225.681 110 C 224.822 110, 223.859 110.419, 223.543 110.931 M 213.813 113.683 C 214.534 113.972, 215.397 113.936, 215.729 113.604 C 216.061 113.272, 215.471 113.036, 214.417 113.079 C 213.252 113.127, 213.015 113.364, 213.813 113.683 M 89.079 124.583 C 89.127 125.748, 89.364 125.985, 89.683 125.188 C 89.972 124.466, 89.936 123.603, 89.604 123.271 C 89.272 122.939, 89.036 123.529, 89.079 124.583 M 250.584 127.173 C 249.529 127.785, 247.279 128.641, 245.584 129.075 C 240.890 130.276, 235.391 132.434, 233.866 133.672 C 232.170 135.049, 215.174 141, 212.937 141 C 212.035 141, 209.093 142.185, 206.399 143.634 C 203.178 145.366, 199.081 146.513, 194.438 146.983 C 185.010 147.937, 180.455 151.643, 184.542 155.035 C 186.379 156.559, 195.769 156.437, 197.664 154.863 C 198.385 154.266, 199.573 154.006, 200.304 154.286 C 201.035 154.567, 203.853 153.721, 206.566 152.407 C 209.280 151.093, 212.115 150.014, 212.866 150.009 C 215.397 149.992, 224.493 146.511, 225.300 145.250 C 225.740 144.563, 226.662 144, 227.350 144 C 228.038 144, 229.851 144.563, 231.378 145.250 C 233.985 146.423, 234.116 146.777, 233.510 151 C 231.654 163.941, 231.299 166.034, 230.893 166.441 C 230.650 166.684, 225.737 167.857, 219.975 169.047 C 214.214 170.238, 208.742 171.614, 207.816 172.106 C 206.889 172.598, 204.512 173, 202.534 173 C 198.112 173, 192.179 175.371, 191.378 177.457 C 190.574 179.553, 194.780 182.925, 198.250 182.967 C 199.762 182.985, 201 182.564, 201 182.031 C 201 181.499, 201.653 181.314, 202.452 181.620 C 204.498 182.405, 221.184 178.959, 222.706 177.437 C 223.398 176.745, 224.811 176.399, 225.845 176.670 C 228.489 177.361, 229.665 173.960, 227.363 172.276 C 225.789 171.125, 225.881 171, 228.309 171 C 229.789 171, 231 171.493, 231 172.096 C 231 172.698, 231.957 174.536, 233.128 176.179 C 234.765 178.479, 235.713 182.663, 237.242 194.334 C 238.335 202.675, 239.229 210.625, 239.228 212 C 239.223 221.997, 241.258 249.330, 242.281 253 C 244.020 259.240, 249.264 269.889, 250.628 269.950 C 251.248 269.977, 252.300 269.343, 252.967 268.540 C 253.922 267.389, 253.832 265.558, 252.542 259.887 C 251.643 255.931, 250.428 251.801, 249.844 250.709 C 249.260 249.618, 248.581 241.024, 248.335 231.612 C 247.773 210.137, 247.526 205.559, 246.074 189.615 C 244.654 174.024, 245.002 171.907, 249.279 170.107 C 251.050 169.361, 253.733 168.169, 255.240 167.457 C 256.747 166.746, 259.447 165.850, 261.240 165.466 C 263.033 165.083, 264.950 164.433, 265.500 164.023 C 266.050 163.612, 268.637 162.998, 271.250 162.657 C 275.301 162.129, 276.017 162.293, 276.115 163.769 C 276.328 166.974, 275.934 169.479, 274.584 173.500 C 271.876 181.563, 270.644 188.867, 271.764 190.216 C 272.560 191.175, 272.089 192.244, 269.916 194.418 C 266.141 198.193, 266.050 200.276, 269.701 199.360 C 273.189 198.485, 279 193.197, 279 190.898 C 279 189.919, 279.406 188.867, 279.902 188.560 C 281.917 187.315, 285 174.030, 285 166.595 C 285 157.834, 283.797 155.918, 277.018 153.887 C 273.569 152.854, 272.083 152.924, 267.623 154.330 C 264.708 155.248, 261.441 156, 260.362 156 C 259.283 156, 257.896 156.504, 257.280 157.120 C 256.665 157.735, 254.437 158.591, 252.330 159.021 C 250.224 159.452, 247.044 160.394, 245.264 161.116 C 240.639 162.991, 239.902 161.696, 239.686 151.318 L 239.500 142.363 242.915 139.235 C 244.793 137.514, 247.605 135.578, 249.165 134.932 C 250.724 134.286, 252 133.362, 252 132.879 C 252 132.395, 252.675 132, 253.500 132 C 254.500 132, 255 131, 255 129 C 255 125.811, 253.791 125.311, 250.584 127.173 M 47.750 129.662 C 48.438 129.940, 49.563 129.940, 50.250 129.662 C 50.938 129.385, 50.375 129.158, 49 129.158 C 47.625 129.158, 47.063 129.385, 47.750 129.662 M 205.800 148.200 C 206.733 149.133, 207.267 149.133, 208.200 148.200 C 209.133 147.267, 208.867 147, 207 147 C 205.133 147, 204.867 147.267, 205.800 148.200 M 189 151.500 C 189 152.325, 189.675 153, 190.500 153 C 191.325 153, 192 152.325, 192 151.500 C 192 150.675, 191.325 150, 190.500 150 C 189.675 150, 189 150.675, 189 151.500 M 265.516 158.975 C 264.708 160.282, 267.009 161.391, 268.154 160.246 C 268.794 159.606, 268.602 159.061, 267.599 158.676 C 266.755 158.352, 265.817 158.487, 265.516 158.975 M 250.443 163.418 C 247.846 165.317, 248.663 165.766, 253.750 165.234 C 256.507 164.946, 258 164.300, 258 163.395 C 258 161.550, 252.977 161.565, 250.443 163.418 M 182.182 171.500 C 178.805 174.342, 175.907 175.021, 178.020 172.476 C 178.716 171.638, 178.934 170.625, 178.506 170.226 C 178.077 169.827, 177.525 170.063, 177.280 170.750 C 177.034 171.438, 176.196 172, 175.417 172 C 173.499 172, 173.583 178.865, 175.532 181.441 C 176.339 182.509, 177 184.366, 177 185.569 C 177 186.771, 177.675 188.315, 178.500 189 C 179.325 189.685, 180.014 191.202, 180.032 192.372 C 180.049 193.543, 180.724 195.374, 181.532 196.441 C 182.339 197.509, 183 199.126, 183 200.036 C 183 200.945, 184.133 202.996, 185.517 204.594 C 186.902 206.193, 189.021 209.525, 190.227 212 C 192.559 216.786, 199.555 225, 201.299 225 C 201.873 225, 203.117 224.299, 204.063 223.443 C 205.494 222.148, 205.597 221.391, 204.672 218.943 C 204.061 217.324, 203.098 215.988, 202.531 215.974 C 201.964 215.960, 200.655 214.048, 199.623 211.724 C 198.590 209.401, 197.128 206.193, 196.373 204.596 C 195.618 202.999, 195 201.264, 195 200.740 C 195 200.216, 193.650 198.083, 192 196 C 190.350 193.917, 189 191.489, 189 190.606 C 189 189.723, 188.567 189, 188.039 189 C 187.510 189, 186.598 187.219, 186.011 185.042 C 185.425 182.865, 184.525 180.824, 184.011 180.507 C 182.801 179.759, 184.747 175.037, 187.169 172.840 C 191.689 168.740, 186.969 167.472, 182.182 171.500 M 219.904 173.615 C 218.744 175.013, 218.818 175.181, 220.449 174.865 C 221.486 174.664, 222.522 173.938, 222.750 173.250 C 223.344 171.466, 221.490 171.704, 219.904 173.615 M 203.571 176.724 C 202.510 176.994, 201.015 177.842, 200.249 178.608 C 199.060 179.797, 199.150 180, 200.870 180 C 201.976 180, 203.160 179.550, 203.500 179 C 203.840 178.450, 205.554 177.968, 207.309 177.930 C 209.999 177.870, 210.186 177.724, 208.500 177 C 206.265 176.040, 206.256 176.039, 203.571 176.724 M 195.813 179.683 C 196.534 179.972, 197.397 179.936, 197.729 179.604 C 198.061 179.272, 197.471 179.036, 196.417 179.079 C 195.252 179.127, 195.015 179.364, 195.813 179.683 M 252.736 197.598 C 252.407 197.927, 252.380 198.827, 252.676 199.598 C 253.380 201.432, 258 201.440, 258 199.607 C 258 197.686, 254.126 196.207, 252.736 197.598 M 159.750 206.392 C 157.164 208.355, 157.602 210.510, 161.335 214.202 C 163.170 216.016, 165.532 219.075, 166.585 221 C 167.638 222.925, 168.774 224.725, 169.108 225 C 169.443 225.275, 171.335 228.511, 173.312 232.190 C 175.290 235.870, 177.467 239.775, 178.150 240.869 C 179.325 242.750, 183.045 245, 184.980 245 C 186.723 245, 187.099 240.973, 185.609 238.262 C 184.773 236.743, 182.913 232.914, 181.474 229.753 C 175.648 216.955, 166.767 204.963, 163.166 205.032 C 162.250 205.049, 160.713 205.661, 159.750 206.392 M 128.188 209.960 C 125.511 213.580, 125.453 215.356, 127.879 219.382 C 128.912 221.097, 130.326 224.300, 131.020 226.500 C 131.715 228.700, 133.569 232.140, 135.141 234.144 C 136.714 236.148, 138 238.234, 138 238.779 C 138 241.264, 143.131 243.091, 149.286 242.797 C 155.185 242.515, 155.516 242.365, 155.808 239.836 C 156.035 237.870, 155.579 237.001, 154.067 236.521 C 152.940 236.164, 151.565 236.151, 151.011 236.493 C 149.165 237.634, 144.524 233.876, 142.575 229.663 C 141.516 227.373, 140.371 225.275, 140.030 225 C 137.588 223.030, 135 216.312, 135 211.943 C 135 207.444, 134.792 207, 132.688 207 C 131.286 207, 129.515 208.165, 128.188 209.960 M 79.719 224.077 C 78.154 225.006, 36.327 225.646, 33.170 224.789 C 31.507 224.338, 26.058 228.282, 25.367 230.438 C 24.583 232.885, 28.577 236.431, 30.915 235.363 C 31.787 234.964, 33.850 234.681, 35.500 234.734 C 37.150 234.786, 44.575 234.187, 52 233.403 C 76.570 230.806, 85.500 228.688, 85.500 225.456 C 85.500 223.196, 82.435 222.465, 79.719 224.077 M 41.131 229.623 C 39.937 230.973, 40.055 231.127, 42.053 230.835 C 43.313 230.651, 44.529 229.938, 44.755 229.250 C 45.332 227.497, 42.780 227.760, 41.131 229.623" stroke="none" fill="black" fill-rule="evenodd"/>
</svg>