<svg xmlns="http://www.w3.org/2000/svg" width="300" height="300" viewBox="0 0 300 300" version="1.1">
	<path d="M 181.744 18.095 C 178.310 21.624, 173.534 27.130, 171.132 30.332 C 168.730 33.533, 162.655 39.558, 157.632 43.722 C 152.609 47.886, 148.146 51.892, 147.713 52.624 C 147.269 53.375, 147.585 55.231, 148.439 56.882 C 149.271 58.491, 150.441 63.114, 151.039 67.154 C 151.636 71.194, 152.641 76.075, 153.272 78 C 154.032 80.317, 154.328 88.938, 154.148 103.500 C 153.852 127.481, 154.325 129.984, 158.883 128.537 C 161.712 127.639, 162.996 124.267, 163.015 117.685 C 163.024 114.833, 163.361 111.982, 163.765 111.348 C 164.169 110.714, 166.750 109.872, 169.500 109.475 C 174.830 108.706, 181 106.538, 181 105.434 C 181 105.067, 180.100 105.002, 179 105.290 C 177.900 105.577, 177 105.438, 177 104.980 C 177 103.645, 180.273 103.337, 183.169 104.399 C 185.984 105.431, 187.328 105.009, 200.795 98.870 C 204.257 97.291, 207.520 96, 208.045 96 C 208.570 96, 209.005 98.362, 209.011 101.250 C 209.017 104.138, 209.301 108.188, 209.642 110.250 L 210.262 114 202.381 114.034 C 196.694 114.058, 193.387 114.606, 190.500 116 C 188.300 117.063, 185.466 117.947, 184.202 117.966 C 182.938 117.985, 180.106 118.868, 177.909 119.930 C 175.712 120.991, 172.573 122.155, 170.933 122.515 C 166.313 123.529, 162 127.669, 162 131.089 C 162 133.644, 162.360 134, 164.941 134 C 166.559 134, 168.188 133.504, 168.563 132.898 C 168.938 132.292, 170.725 131.177, 172.535 130.421 C 175.092 129.353, 175.707 128.596, 175.296 127.023 C 174.884 125.450, 175.251 125, 176.942 125 C 178.139 125, 178.840 125.450, 178.500 126 C 178.160 126.550, 178.782 127, 179.882 127 C 180.982 127, 182.160 126.550, 182.500 126 C 182.840 125.450, 184.463 125, 186.107 125 C 187.751 125, 190.964 124.098, 193.247 122.995 C 195.530 121.892, 200.233 120.495, 203.699 119.892 C 209.320 118.913, 210 118.543, 210 116.461 C 210 114.565, 210.603 114.068, 213.211 113.813 C 215.652 113.575, 216.587 112.901, 217.111 111 C 218.196 107.067, 218.026 68.001, 216.902 63 C 216.346 60.525, 215.548 56.700, 215.128 54.500 C 213.124 43.984, 208.782 42.771, 189.500 47.343 C 172.055 51.480, 167.235 53.326, 163.641 57.245 C 160.574 60.589, 159.930 60.283, 158.644 54.863 C 158.108 52.602, 158.689 51.675, 162.720 48.363 C 165.306 46.238, 168.142 44.050, 169.022 43.500 C 169.903 42.950, 172.197 41.494, 174.120 40.264 C 176.044 39.034, 180.066 34.814, 183.059 30.886 C 192.806 18.091, 193.407 16.584, 189.994 13.494 C 188.029 11.716, 187.859 11.811, 181.744 18.095 M 200 51.678 C 198.625 51.901, 196.600 52.481, 195.500 52.966 C 194.400 53.452, 192.375 54.082, 191 54.367 C 185.278 55.552, 177.286 57.789, 175.458 58.719 C 174.381 59.266, 172.081 60.454, 170.346 61.357 C 166.672 63.270, 163.856 63.456, 162.287 61.887 C 160.207 59.807, 158.828 61.997, 159.476 66.353 C 160.564 73.667, 162.233 80.464, 163.260 81.758 C 164.030 82.728, 164.851 82.422, 166.858 80.415 C 170.196 77.077, 173.577 75.351, 178.535 74.454 C 180.716 74.060, 183.400 73.255, 184.500 72.667 C 185.600 72.079, 190.100 71.074, 194.500 70.435 C 198.900 69.796, 203.175 68.991, 204 68.647 C 204.825 68.303, 206.163 68.443, 206.974 68.958 C 208.219 69.749, 208.083 70.283, 206.098 72.395 C 204.806 73.771, 202.343 75.176, 200.624 75.518 C 198.906 75.860, 194.597 77.075, 191.049 78.218 C 186.519 79.678, 184.485 79.955, 184.216 79.148 C 183.701 77.604, 182.002 77.682, 181.994 79.250 C 181.982 81.498, 169.376 88.252, 166.250 87.685 C 165.012 87.461, 163.951 87.777, 163.891 88.389 C 163.591 91.458, 163.478 102.589, 163.741 103.190 C 163.908 103.569, 165.594 103.232, 167.490 102.440 C 169.385 101.648, 171.886 101, 173.047 101 C 174.209 101, 177.936 99.949, 181.329 98.664 C 184.723 97.380, 190.200 95.497, 193.500 94.481 C 196.800 93.466, 199.985 92.276, 200.578 91.837 C 201.171 91.399, 203.389 90.680, 205.507 90.240 L 209.358 89.440 209.100 72.596 C 208.758 50.266, 208.754 50.258, 200 51.678 M 96 78.223 C 93.525 78.711, 86.667 78.940, 80.759 78.731 C 70.630 78.373, 69.897 78.481, 67.883 80.625 C 65.205 83.475, 66.047 85.975, 69.719 86.080 C 71.248 86.123, 74.966 86.320, 77.980 86.516 C 80.994 86.712, 86.169 86.319, 89.480 85.642 C 98.183 83.863, 98.983 84.216, 98.924 89.821 C 98.897 92.394, 98.905 101.700, 98.942 110.500 C 99.013 127.633, 98.614 135.720, 97.649 136.684 C 97.319 137.015, 96.425 136.768, 95.664 136.136 C 93.592 134.416, 80.252 134.583, 74.500 136.399 C 71.750 137.268, 68.293 137.983, 66.818 137.989 L 64.137 138 64.042 120.250 C 63.925 98.230, 63.631 93.475, 62.287 91.812 C 61.704 91.091, 60.911 88.588, 60.525 86.250 C 59.709 81.300, 57.154 80.475, 55.015 84.472 C 53.976 86.413, 53.882 89.689, 54.574 99.722 C 55.059 106.750, 55.376 127.699, 55.279 146.275 C 55.129 175.056, 54.800 181.858, 53.061 192.275 C 51.599 201.028, 50.978 209.613, 50.876 222.500 C 50.692 245.480, 50.736 246.257, 52.345 248.457 C 53.649 250.241, 53.793 250.239, 57.092 248.398 C 58.964 247.354, 60.990 245.869, 61.596 245.097 C 62.228 244.291, 63.232 244.025, 63.955 244.472 C 64.952 245.088, 64.931 245.429, 63.857 246.110 C 62.860 246.742, 63.081 246.973, 64.691 246.985 C 65.896 246.993, 67.148 246.570, 67.473 246.044 C 67.798 245.518, 68.690 245.328, 69.455 245.621 C 70.233 245.920, 71.337 245.239, 71.958 244.078 C 73.227 241.707, 75.235 241.224, 74.362 243.500 C 74.045 244.325, 74.002 245, 74.266 245 C 74.803 245, 86.426 242.007, 95.299 239.584 C 98.488 238.713, 101.265 238, 101.469 238 C 101.674 238, 102.131 239.319, 102.485 240.931 C 103.317 244.719, 105.331 246.347, 108.100 245.468 C 110.292 244.773, 110.294 244.742, 109.573 226.136 C 109.176 215.886, 108.451 200.300, 107.963 191.500 C 106.751 169.656, 106.485 137.107, 107.396 122 C 108.515 103.434, 105.708 79.907, 102.165 78.157 C 101.249 77.705, 98.475 77.734, 96 78.223 M 172.500 81 C 172.160 81.550, 172.584 82, 173.441 82 C 174.298 82, 175 81.550, 175 81 C 175 80.450, 174.577 80, 174.059 80 C 173.541 80, 172.840 80.450, 172.500 81 M 158 103.941 C 158 104.459, 158.450 105.160, 159 105.500 C 159.550 105.840, 160 105.416, 160 104.559 C 160 103.702, 159.550 103, 159 103 C 158.450 103, 158 103.423, 158 103.941 M 181.210 130.248 C 177.754 131.898, 178.851 134.444, 183.173 134.805 C 189.852 135.363, 188.805 139.068, 181.461 140.863 C 166.392 144.545, 152.795 148.478, 148.738 150.328 C 141.274 153.731, 141.016 158.521, 148.361 157.329 C 151.047 156.893, 152.493 156.012, 153.251 154.348 C 154.249 152.159, 154.457 152.103, 156.101 153.591 C 157.610 154.957, 158.426 155.015, 161.562 153.980 C 163.590 153.310, 165.460 151.958, 165.717 150.974 C 166.201 149.123, 169.652 147.627, 170.452 148.922 C 171.436 150.514, 170.057 158.971, 168.217 162.630 C 163.843 171.326, 162.969 179, 166.352 179 C 168.885 179, 173.705 171.420, 176.481 163.071 C 178.075 158.278, 180.301 153.699, 181.642 152.456 C 182.939 151.254, 184 149.521, 184 148.604 C 184 147.687, 184.787 146.650, 185.750 146.298 C 186.713 145.947, 188.573 144.836, 189.885 143.830 C 192.457 141.856, 196 141.376, 196 143 C 196 143.550, 195.659 144, 195.242 144 C 194.113 144, 190.865 161.997, 191.326 165.694 C 191.738 168.998, 196.533 175, 198.760 175 C 199.457 175, 200.809 174.596, 201.764 174.103 C 202.719 173.609, 205.525 172.435, 208 171.493 C 210.475 170.552, 213.512 169.390, 214.750 168.912 C 217.143 167.988, 217.662 166.062, 215.975 164.375 C 215.274 163.674, 213.022 163.746, 208.868 164.603 C 200.665 166.293, 200 165.904, 200 159.407 C 200 151.166, 201.984 144.959, 204.988 143.801 C 209.303 142.137, 222.143 139.916, 230.743 139.346 C 237.952 138.869, 239.070 139.018, 239.652 140.536 C 240.019 141.491, 239.805 142.998, 239.178 143.886 C 231.599 154.614, 228.446 163.996, 232.161 164.768 C 233.675 165.082, 237.862 161.500, 242.200 156.179 C 247.636 149.511, 248.810 139.216, 244.683 134.417 L 242.365 131.723 228.433 133 C 220.770 133.702, 212.250 134.480, 209.500 134.730 C 206.750 134.980, 204.072 135.593, 203.550 136.092 C 203.027 136.591, 200.796 137, 198.592 137 C 195.399 137, 193.864 136.310, 191.042 133.609 C 186.871 129.615, 184.345 128.752, 181.210 130.248 M 95 139 C 94.175 139.533, 91.911 139.976, 89.968 139.985 C 88.025 139.993, 83.975 140.699, 80.968 141.554 C 70.609 144.499, 70.325 144.534, 71.872 142.661 C 73.054 141.232, 73.019 141, 71.622 141 C 70.730 141, 70 141.663, 70 142.474 C 70 143.285, 68.657 144.643, 67.014 145.493 C 65.372 146.342, 63.780 148.041, 63.475 149.268 C 63.170 150.496, 63.058 157.350, 63.226 164.500 C 63.516 176.829, 63.634 177.483, 65.516 177.165 C 66.607 176.981, 70.200 176.396, 73.500 175.866 C 76.800 175.336, 82.200 174.024, 85.500 172.951 C 88.800 171.878, 92.914 171, 94.643 171 C 96.372 171, 97.947 170.438, 98.143 169.750 C 98.791 167.481, 97.915 138, 97.200 138.015 C 96.815 138.024, 95.825 138.467, 95 139 M 205 140.513 C 202.534 141.936, 202.547 141.947, 206 141.345 C 209.976 140.653, 212.474 138.980, 209.450 139.035 C 208.377 139.055, 206.375 139.720, 205 140.513 M 130.253 152.987 L 127.007 154.966 130.253 160.864 C 135.426 170.260, 139.225 174.919, 141.750 174.962 C 144.392 175.007, 144.922 171.422, 142.541 169.610 C 141.738 169, 140.545 166.250, 139.889 163.500 C 139.233 160.750, 138.298 156.813, 137.810 154.750 C 136.782 150.403, 135.125 150.017, 130.253 152.987 M 92.896 175.331 C 91.463 175.974, 89.663 177.005, 88.896 177.621 C 88.128 178.238, 85.025 179.293, 82 179.965 C 78.975 180.638, 74.250 182.015, 71.500 183.026 C 68.750 184.037, 65.616 185.010, 64.536 185.189 C 62.383 185.545, 61.899 187.209, 60.081 200.500 C 58.630 211.110, 58.639 238.659, 60.094 239.558 C 60.696 239.930, 65.308 239.485, 70.344 238.570 C 87.102 235.525, 90.594 235, 94.088 235 C 98.708 235, 102.318 232.442, 101.655 229.637 C 101.377 228.462, 100.637 216.475, 100.012 203 C 99.386 189.525, 98.669 177.488, 98.418 176.250 C 97.915 173.769, 96.793 173.582, 92.896 175.331 M 175.637 180.276 C 173.450 181.876, 174.307 184.363, 177.555 185.843 C 178.900 186.456, 180 187.411, 180 187.966 C 180 188.521, 181.791 190.106, 183.980 191.487 C 188.651 194.436, 197.887 195.046, 199.964 192.544 C 201.691 190.462, 200.608 189.353, 196.154 188.641 C 191.059 187.826, 187.802 186.070, 184.168 182.179 C 180.997 178.785, 178.452 178.218, 175.637 180.276 M 216.500 192.029 C 212.100 193.598, 207.254 194.909, 205.731 194.941 C 204.208 194.974, 199.708 196.153, 195.731 197.561 C 191.754 198.970, 186.025 200.590, 183 201.162 C 179.975 201.733, 175.250 202.648, 172.500 203.196 C 169.750 203.743, 165.025 204.123, 162 204.040 C 151.991 203.766, 144 207.988, 144 213.552 C 144 216.200, 145.671 216.682, 149.014 215 C 150.106 214.450, 151.894 213.550, 152.986 213 C 154.079 212.450, 156.072 212, 157.415 212 C 158.758 212, 160.532 211.325, 161.357 210.500 C 163.350 208.507, 165.095 208.588, 164.309 210.636 C 163.874 211.771, 164.114 212.116, 165.091 211.761 C 165.866 211.480, 166.387 210.744, 166.250 210.125 C 166.109 209.491, 167.278 209, 168.929 209 C 170.539 209, 172.564 208.293, 173.429 207.429 C 174.857 206, 175 206.086, 175 208.370 C 175 209.751, 174.616 211.119, 174.147 211.409 C 173.678 211.699, 172.481 214.538, 171.487 217.718 C 170.493 220.898, 168.627 225.179, 167.340 227.230 C 166.053 229.282, 165 231.438, 165 232.021 C 165 232.605, 163.537 235.785, 161.750 239.089 C 159.963 242.393, 157.734 246.537, 156.798 248.298 C 154.625 252.386, 154.482 257.864, 156.527 258.649 C 157.443 259, 159.053 258.155, 160.556 256.534 C 164.425 252.359, 170 243.712, 170 241.886 C 170 240.983, 170.745 239.627, 171.655 238.872 C 172.565 238.118, 173.921 236.037, 174.668 234.250 C 175.874 231.366, 176.469 231, 179.954 231 C 182.115 231, 184.131 230.597, 184.435 230.104 C 184.740 229.612, 188.929 228.642, 193.744 227.949 C 198.560 227.256, 203.041 226.272, 203.702 225.762 C 204.363 225.252, 205.729 225.097, 206.737 225.417 C 207.745 225.737, 210.913 225.391, 213.775 224.648 C 218.257 223.486, 219.272 223.502, 221.076 224.766 C 222.587 225.824, 222.983 226.830, 222.496 228.367 C 222.124 229.540, 221.482 237.025, 221.070 245 C 220.448 257.019, 219.942 260.236, 218.115 263.799 C 216.902 266.163, 215.221 268.362, 214.380 268.685 C 212.707 269.326, 203.596 265.422, 201.846 263.314 C 200.351 261.514, 199 261.664, 199 263.632 C 199 266.755, 207.175 273.646, 213.086 275.505 C 218.282 277.139, 218.846 277.147, 221.178 275.619 C 222.557 274.716, 224.927 271.521, 226.445 268.521 C 231.329 258.868, 232.401 229.315, 228.174 220.855 C 226.717 217.937, 225.863 217.414, 221.578 216.810 C 218.229 216.338, 215.597 216.559, 213.341 217.502 C 211.517 218.264, 205.857 219.357, 200.763 219.931 C 195.668 220.504, 189.928 221.430, 188.007 221.987 C 181.667 223.825, 181 223.497, 181 218.535 C 181 215.094, 181.458 213.825, 183 213 C 184.100 212.411, 185 211.103, 185 210.093 C 185 208.719, 186.022 208.092, 189.055 207.607 C 191.285 207.251, 195.222 206.023, 197.805 204.880 C 205.538 201.456, 206.240 201.227, 213 199.940 C 216.575 199.259, 219.950 198.431, 220.500 198.101 C 221.050 197.770, 223.071 197.037, 224.992 196.470 C 228.998 195.289, 230.166 192.325, 227.418 190.316 C 225.238 188.722, 226.187 188.573, 216.500 192.029 M 198.500 201 C 198.160 201.550, 198.557 202, 199.382 202 C 200.207 202, 201.160 201.550, 201.500 201 C 201.840 200.450, 201.443 200, 200.618 200 C 199.793 200, 198.840 200.450, 198.500 201 M 183.250 204.662 C 181.586 205.334, 181.664 206.657, 183.406 207.326 C 184.179 207.622, 185.599 206.995, 186.561 205.933 C 188.232 204.087, 188.225 204.004, 186.405 204.079 C 185.357 204.122, 183.938 204.385, 183.250 204.662 M 177.446 208.087 C 177.077 208.685, 177.233 209.633, 177.794 210.194 C 178.488 210.888, 179.176 210.540, 179.943 209.107 C 180.853 207.407, 180.786 207, 179.594 207 C 178.782 207, 177.816 207.489, 177.446 208.087" stroke="none" fill="black" fill-rule="evenodd"/>
</svg>