<svg xmlns="http://www.w3.org/2000/svg" width="300" height="300" viewBox="0 0 300 300" version="1.1">
	<path d="M 180.483 27.660 C 176.379 31.764, 173.746 37.594, 172.476 45.391 C 171.749 49.851, 170.688 55.075, 170.118 57 C 167.130 67.095, 165.884 71.035, 163.951 76.500 C 162.784 79.800, 161.750 84.300, 161.653 86.500 C 161.550 88.839, 160.658 91.440, 159.505 92.763 C 158.420 94.008, 157.042 97.206, 156.442 99.869 C 155.010 106.229, 155.763 116.972, 157.693 117.713 C 160.378 118.743, 161.776 115.840, 162.729 107.250 C 163.172 103.268, 164.585 101.929, 166.424 103.750 C 166.840 104.162, 168.150 104.500, 169.336 104.500 C 171.065 104.500, 171.491 105.096, 171.495 107.520 C 171.498 109.326, 172.972 112.742, 175.162 116.020 C 179.277 122.179, 193.126 137, 194.766 137 C 195.353 137, 195.983 137.338, 196.167 137.750 C 196.772 139.112, 204.433 143.769, 208.260 145.100 C 211.551 146.246, 212.226 146.203, 213.674 144.755 C 215.727 142.702, 214.701 141.240, 208.058 136.753 C 205.551 135.059, 202.734 132.960, 201.798 132.087 C 200.862 131.214, 199.512 130.002, 198.798 129.393 C 196.697 127.601, 193 123.047, 192.995 122.242 C 192.992 121.834, 189.809 118.125, 185.920 114 C 182.031 109.875, 178.111 105.263, 177.209 103.750 C 176.307 102.237, 175.039 101, 174.391 101 C 173.744 101, 172.968 100.360, 172.668 99.578 C 172.368 98.795, 171.082 97.997, 169.811 97.804 C 168.354 97.582, 167.646 96.907, 167.896 95.976 C 168.113 95.164, 168.728 92.700, 169.262 90.500 C 170.689 84.620, 174.259 72.578, 174.746 72 C 174.977 71.725, 181.317 71.463, 188.833 71.417 C 196.350 71.371, 208.575 70.594, 216 69.691 C 223.425 68.788, 234 67.830, 239.500 67.563 C 245 67.295, 250.738 66.782, 252.250 66.422 C 254.658 65.848, 255.001 66.061, 255.008 68.133 C 255.016 70.228, 253.618 77.174, 251.010 88 C 250.546 89.925, 248.976 94.650, 247.522 98.500 C 246.067 102.350, 243.972 108.425, 242.867 112 C 241.762 115.575, 240.248 120.075, 239.501 122 C 238.755 123.925, 237.865 126.792, 237.523 128.371 C 237.181 129.950, 236.248 131.894, 235.451 132.692 C 234.653 133.490, 234 135.245, 234 136.593 C 234 137.940, 232.916 140.721, 231.591 142.771 C 230.267 144.822, 228.881 147.963, 228.512 149.750 C 228.143 151.537, 227.483 153, 227.046 153 C 226.608 153, 225.969 154.406, 225.625 156.123 C 225.282 157.841, 223.425 162.735, 221.500 166.999 C 219.575 171.263, 217.986 175.595, 217.968 176.626 C 217.951 177.657, 217.276 179.374, 216.468 180.441 C 215.661 181.509, 215 183.145, 215 184.077 C 215 185.009, 214.328 187.060, 213.506 188.636 C 212.685 190.211, 212.010 192.426, 212.006 193.559 C 212.003 194.691, 211.339 196.491, 210.532 197.559 C 209.724 198.626, 209.049 200.637, 209.032 202.027 C 209.014 203.418, 208.389 205.443, 207.642 206.527 C 206.896 207.612, 205.739 210.300, 205.073 212.500 C 203.716 216.977, 202.208 220.757, 200.882 223 C 200.394 223.825, 199.534 225.625, 198.971 227 C 197.942 229.513, 195.440 235.005, 193.853 238.236 C 193.384 239.191, 193 240.676, 193 241.536 C 193 242.396, 192.254 244.539, 191.341 246.300 C 189.651 249.561, 188.137 254.507, 187.452 259 C 186.954 262.273, 185.554 267.213, 183.202 274 C 182.105 277.163, 181.626 280.137, 182.075 281 C 182.503 281.825, 183.110 283.319, 183.423 284.320 C 183.792 285.501, 184.752 286.028, 186.158 285.820 C 187.901 285.563, 188.949 283.737, 191.510 276.500 C 193.262 271.550, 195.688 263.900, 196.901 259.500 C 199.248 250.989, 205.342 233.680, 207.031 230.728 C 207.588 229.753, 208.980 226.378, 210.124 223.228 C 212.059 217.895, 213.132 215.321, 217.367 205.849 C 218.265 203.841, 219 201.516, 219 200.682 C 219 199.849, 219.338 199.017, 219.750 198.833 C 220.162 198.650, 221.569 195.125, 222.876 191 C 224.182 186.875, 225.870 182.022, 226.626 180.216 C 227.381 178.410, 228 176.133, 228 175.157 C 228 174.181, 228.661 172.509, 229.468 171.441 C 230.276 170.374, 230.951 168.636, 230.968 167.579 C 230.986 166.522, 232.307 162.922, 233.904 159.579 C 235.502 156.236, 237.126 152.375, 237.514 151 C 237.902 149.625, 239.520 145.736, 241.110 142.357 C 242.699 138.978, 244 135.597, 244 134.842 C 244 134.088, 244.813 131.902, 245.806 129.985 C 246.800 128.068, 248.426 123.800, 249.420 120.500 C 250.414 117.200, 251.794 113.150, 252.488 111.500 C 253.181 109.850, 254.480 106.588, 255.374 104.250 C 256.268 101.912, 257.649 98.313, 258.442 96.250 C 259.235 94.188, 260.161 91.375, 260.500 90 C 261.092 87.598, 262.849 82.858, 265.505 76.500 C 267.457 71.828, 270.066 59.915, 269.380 58.806 C 268.640 57.608, 263.742 58.236, 259.205 60.111 C 256.363 61.285, 255.776 61.268, 254.936 59.986 C 254.093 58.700, 253.777 58.742, 252.582 60.303 C 251.761 61.376, 251.052 61.656, 250.831 60.993 C 250.577 60.232, 249.518 60.371, 247.480 61.434 C 244.126 63.182, 238.395 63.683, 241 62 C 242.237 61.201, 242.140 61.028, 240.450 61.015 C 239.322 61.007, 237.849 61.551, 237.175 62.225 C 236.208 63.192, 235.536 63.192, 233.989 62.225 C 231.680 60.783, 230.664 60.648, 231.428 61.884 C 232.042 62.877, 227.562 64.771, 224.500 64.812 C 223.400 64.827, 219.575 65.123, 216 65.470 C 212.425 65.817, 206.483 65.665, 202.795 65.132 C 194.897 63.991, 192 64.524, 192 67.117 C 192 68.447, 191.283 69, 189.559 69 C 186.289 69, 185.545 67.484, 187.473 64.752 C 189.038 62.534, 188.990 62.484, 184.281 61.422 C 179.622 60.371, 179.505 60.254, 179.703 56.823 C 179.814 54.887, 181.277 50.659, 182.953 47.429 C 184.629 44.198, 186 41.032, 186 40.392 C 186 39.752, 186.672 37.940, 187.494 36.364 C 189.601 32.324, 189.360 29.366, 186.777 27.557 C 183.943 25.571, 182.549 25.594, 180.483 27.660 M 116.227 67.810 C 115.526 68.271, 114.765 69.625, 114.535 70.819 C 113.974 73.730, 116.578 75, 123.106 75 C 126.489 75, 128.964 75.563, 130.100 76.590 C 132.101 78.401, 135.498 77.751, 136.406 75.384 C 136.764 74.450, 135.846 72.693, 134.076 70.922 C 131.660 68.506, 130.318 67.998, 126.327 67.986 C 123.672 67.979, 120.600 67.748, 119.500 67.473 C 118.400 67.199, 116.927 67.350, 116.227 67.810 M 106.240 71.160 C 105.602 71.798, 102.308 72.437, 98.921 72.579 C 95.534 72.721, 92.276 73.324, 91.681 73.919 C 91.087 74.513, 88.354 75, 85.609 75 C 80.959 75, 80.751 75.104, 82.559 76.519 C 84.343 77.915, 84.025 78.002, 78.626 77.595 C 75.395 77.351, 72.267 76.667, 71.676 76.076 C 71.084 75.484, 69.677 75.007, 68.550 75.015 C 66.994 75.027, 66.832 75.241, 67.878 75.904 C 68.636 76.384, 68.947 77.277, 68.569 77.888 C 68.082 78.676, 70.815 79, 77.941 79 C 84.474 79, 88 78.622, 88 77.921 C 88 77.247, 89.102 77.083, 90.927 77.484 C 92.773 77.889, 94.970 77.550, 96.877 76.563 C 98.540 75.704, 102.343 75, 105.328 75 C 111.814 75, 114.482 72.996, 110.445 71.157 C 107.359 69.751, 107.649 69.751, 106.240 71.160 M 58.338 73.562 C 57.979 74.498, 56.690 75.056, 55.119 74.956 C 49.224 74.578, 48.739 74.818, 49.457 77.750 C 50.581 82.334, 52.427 83.594, 55.713 82.019 C 57.246 81.285, 59.739 80.789, 61.252 80.917 C 64.272 81.174, 66.051 78.651, 64.175 76.775 C 63.388 75.988, 62.649 76.046, 61.518 76.985 C 59.808 78.404, 58.402 77.777, 59.459 76.067 C 59.821 75.480, 61.302 75, 62.750 75 C 65.279 75, 65.306 74.943, 63.441 73.532 C 60.905 71.613, 59.082 71.624, 58.338 73.562 M 74.750 74.662 C 75.438 74.940, 76.563 74.940, 77.250 74.662 C 77.938 74.385, 77.375 74.158, 76 74.158 C 74.625 74.158, 74.063 74.385, 74.750 74.662 M 91.500 83 C 90.505 84.100, 89.082 85, 88.338 85 C 84.767 85, 77.341 98.899, 79.128 102.238 C 79.646 103.207, 80.505 104, 81.035 104 C 81.566 104, 82 104.499, 82 105.108 C 82 105.788, 81.044 105.977, 79.531 105.597 C 77.565 105.104, 76.701 105.540, 75.293 107.739 C 74.321 109.257, 72.958 111.095, 72.263 111.821 C 71.568 112.548, 71 114.020, 71 115.091 C 71 116.163, 69.941 118.718, 68.646 120.770 C 67.351 122.821, 65.971 125.625, 65.577 127 C 64.841 129.575, 64.056 131.438, 59.600 141.187 C 56.776 147.364, 56.496 149.189, 57.952 151.911 C 58.624 153.165, 58.446 154.346, 57.351 155.909 C 55.906 157.972, 55.672 158.013, 53.998 156.498 C 52.304 154.965, 52.128 155.093, 50.995 158.685 C 49.958 161.974, 47.997 166.598, 40.403 183.651 C 39.631 185.384, 39 187.321, 39 187.955 C 39 188.589, 37.650 191.534, 36 194.500 C 34.350 197.466, 33 200.536, 33 201.324 C 33 202.111, 32.354 203.291, 31.564 203.947 C 30.775 204.602, 29.846 206.426, 29.500 208 C 29.154 209.574, 28.225 211.398, 27.436 212.053 C 26.646 212.709, 26 214.104, 26 215.154 C 26 216.204, 25.325 217.322, 24.500 217.638 C 22.387 218.449, 22.588 221.993, 24.750 222.030 C 26.417 222.059, 26.417 222.109, 24.750 223.080 C 22.279 224.519, 22.301 231, 24.777 231 C 28.148 231, 31 228.085, 31 224.640 C 31 221.461, 33.632 214.990, 38.581 206 C 43.700 196.702, 51.349 180.271, 53.478 174 C 55.115 169.180, 56.157 167.500, 57.510 167.500 C 59.038 167.500, 59.359 168.396, 59.481 173 C 59.722 182.118, 62.015 205.195, 63.156 210 C 63.744 212.475, 64.610 219.450, 65.081 225.500 C 65.551 231.550, 66.238 240.420, 66.606 245.210 C 67.312 254.372, 69.091 258, 72.879 258 C 74.608 258, 75.423 255.629, 77.606 244.250 C 77.923 242.598, 78.764 241.979, 80.769 241.920 C 86.302 241.759, 99.645 240.142, 104.500 239.045 C 107.280 238.416, 118.447 237.896, 129.654 237.873 L 149.808 237.832 157.409 241.489 C 165.640 245.447, 168.332 245.654, 168.803 242.366 C 169.015 240.890, 167.958 239.384, 165.303 237.376 C 158.113 231.939, 153.764 230.519, 152.662 233.250 C 152.319 234.100, 152.133 234.017, 152.079 232.991 C 152.036 232.160, 151.100 230.919, 150 230.232 C 147.790 228.852, 147.220 223.600, 149.150 222.407 C 149.992 221.887, 150.149 215.074, 149.736 197 C 149.169 172.180, 148.281 165.437, 145.077 161.620 C 142.291 158.300, 136.013 154.861, 133.939 155.519 C 132.117 156.098, 132.100 156.243, 133.676 157.818 C 135.251 159.394, 135.247 159.521, 133.603 159.838 C 131.347 160.272, 128.652 156.870, 130.335 155.712 C 131.067 155.208, 130.757 155.003, 129.500 155.160 C 128.400 155.297, 126.423 154.817, 125.106 154.092 C 123.129 153.005, 121.996 153.003, 118.606 154.086 C 116.348 154.806, 113.491 156.032, 112.257 156.808 C 110.990 157.606, 108.974 157.959, 107.622 157.620 C 106.174 157.257, 104.787 157.552, 104.110 158.368 C 103.494 159.109, 100.282 159.999, 96.970 160.345 C 93.659 160.691, 89.724 161.576, 88.225 162.311 C 86.726 163.046, 84.713 163.468, 83.750 163.250 C 81.736 162.793, 81.396 160.388, 83.250 159.708 C 84.244 159.344, 84.239 158.974, 83.225 157.900 C 82.237 156.854, 81.535 156.809, 80.103 157.703 C 79.067 158.350, 77.871 158.478, 77.378 157.995 C 76.895 157.521, 74.705 156.991, 72.512 156.817 C 68.821 156.524, 68.477 156.239, 67.905 153 C 67.564 151.075, 67.149 149.050, 66.981 148.500 C 66.814 147.950, 67.200 146.233, 67.839 144.685 C 68.477 143.137, 69.014 141.337, 69.032 140.685 C 69.049 140.033, 69.710 138.646, 70.501 137.601 C 71.291 136.557, 72.667 133.407, 73.557 130.601 C 75.209 125.397, 76.723 121.653, 80.099 114.434 C 81.145 112.198, 82 109.905, 82 109.339 C 82 108.773, 82.921 107.476, 84.047 106.458 C 89.557 101.471, 98.432 85.937, 97.482 82.943 C 96.684 80.430, 93.801 80.458, 91.500 83 M 195 131.941 C 195 132.459, 195.445 133.157, 195.989 133.493 C 196.555 133.843, 196.723 133.442, 196.382 132.552 C 195.717 130.820, 195 130.503, 195 131.941 M 76.638 161.500 C 76.223 162.584, 76.748 163, 78.531 163 C 80.059 163, 81 162.428, 81 161.500 C 81 160.675, 80.148 160, 79.107 160 C 78.066 160, 76.955 160.675, 76.638 161.500 M 116.692 160.641 C 116.306 161.028, 114.304 161.466, 112.245 161.615 C 110.185 161.764, 106.250 162.348, 103.500 162.914 C 89.695 165.754, 78.791 167.183, 75.563 166.578 C 71.817 165.875, 70.703 163.486, 73.750 162.689 C 74.713 162.438, 74.023 162.180, 72.219 162.116 C 70.007 162.038, 68.729 162.542, 68.300 163.661 C 67.949 164.574, 68.229 170.312, 68.922 176.411 C 69.615 182.510, 70.778 193.125, 71.508 200 C 73.434 218.156, 75.165 229.323, 76.274 230.750 C 76.808 231.438, 78.079 232, 79.098 232 C 80.118 232, 82.302 232.821, 83.952 233.824 C 86.226 235.207, 86.671 235.929, 85.792 236.808 C 83.905 238.695, 85.773 239.432, 88.746 237.974 C 90.261 237.230, 93.830 236.590, 96.677 236.550 C 99.525 236.511, 102.187 236.146, 102.594 235.739 C 103.001 235.333, 105.733 235, 108.667 235 C 112.741 235, 114 234.646, 114 233.500 C 114 231.622, 115.330 231.602, 118.859 233.427 C 121.747 234.921, 124.782 234.074, 123.569 232.112 C 123.090 231.336, 125.032 231, 130 231 C 133.915 231, 136.872 231.399, 136.571 231.886 C 135.849 233.053, 140.512 233.920, 142.131 232.919 C 142.825 232.490, 144.204 232.574, 145.196 233.105 C 146.395 233.746, 147 233.723, 147 233.035 C 147 232.466, 146.325 232, 145.500 232 C 144.675 232, 144 231.206, 144 230.236 C 144 229.266, 143.100 226.009, 142 223 C 140.614 219.209, 139.982 214.913, 139.940 209.014 C 139.908 204.331, 139.394 198.250, 138.798 195.500 C 138.203 192.750, 137.600 185.775, 137.460 180 C 137.319 174.225, 137.158 168.821, 137.102 167.991 C 136.953 165.779, 133.591 164.024, 126.645 162.530 C 123.265 161.803, 119.801 160.922, 118.948 160.573 C 118.094 160.224, 117.079 160.254, 116.692 160.641 M 51.731 164.920 C 51.296 166.583, 51.426 166.974, 52.168 166.232 C 52.750 165.650, 53.028 164.585, 52.788 163.863 C 52.538 163.114, 52.085 163.568, 51.731 164.920 M 47.182 172.268 C 45.432 174.394, 45.979 180.272, 47.819 179.121 C 48.642 178.607, 49.018 176.860, 48.819 174.481 C 48.542 171.162, 48.329 170.874, 47.182 172.268 M 64 195.500 C 64 196.875, 64.450 198, 65 198 C 65.550 198, 66 196.875, 66 195.500 C 66 194.125, 65.550 193, 65 193 C 64.450 193, 64 194.125, 64 195.500 M 142.200 198.259 C 141.220 199.440, 141.283 199.990, 142.512 201.010 C 144.544 202.696, 145.552 201.552, 144.369 198.901 C 143.554 197.073, 143.257 196.986, 142.200 198.259 M 208 209 C 208 209.550, 208.450 210, 209 210 C 209.550 210, 210 209.550, 210 209 C 210 208.450, 209.550 208, 209 208 C 208.450 208, 208 208.450, 208 209 M 91.813 234.683 C 92.534 234.972, 93.397 234.936, 93.729 234.604 C 94.061 234.272, 93.471 234.036, 92.417 234.079 C 91.252 234.127, 91.015 234.364, 91.813 234.683 M 78 238.906 C 78 239.405, 78.900 239.577, 80 239.290 C 81.100 239.002, 82 238.594, 82 238.383 C 82 238.173, 81.100 238, 80 238 C 78.900 238, 78 238.408, 78 238.906 M 69.500 251 C 69.160 251.550, 69.584 252, 70.441 252 C 71.298 252, 72 251.550, 72 251 C 72 250.450, 71.577 250, 71.059 250 C 70.541 250, 69.840 250.450, 69.500 251 M 189.158 263 C 189.158 264.375, 189.385 264.938, 189.662 264.250 C 189.940 263.563, 189.940 262.438, 189.662 261.750 C 189.385 261.063, 189.158 261.625, 189.158 263 M 172.494 268.009 C 171.600 269.456, 172.826 272.719, 174.506 273.364 C 176.444 274.108, 177.193 272.617, 176.422 269.546 C 175.778 266.978, 173.647 266.144, 172.494 268.009" stroke="none" fill="black" fill-rule="evenodd"/>
</svg>