<svg xmlns="http://www.w3.org/2000/svg" width="300" height="300" viewBox="0 0 300 300" version="1.1">
	<path d="M 227 36.765 C 224.525 36.922, 219.785 37.711, 216.468 38.518 C 213.150 39.324, 206.625 40.428, 201.968 40.971 C 182.707 43.216, 178.702 44.596, 179.190 48.817 C 179.453 51.095, 180.029 51.541, 183 51.770 C 192.618 52.512, 193.238 53.966, 185.500 57.630 C 180.590 59.955, 179.572 60.944, 179.840 63.126 C 179.882 63.470, 180.171 72.695, 180.482 83.626 C 181.029 102.886, 179.561 123.665, 177.407 127.151 C 176.970 127.858, 176.272 131.826, 175.857 135.968 C 174.919 145.327, 172.758 156.594, 171.188 160.315 C 170.535 161.863, 170.006 164.788, 170.013 166.815 C 170.025 170.215, 169.288 174.247, 165.413 192 C 163.505 200.744, 163.603 204.978, 165.750 206.608 C 167.350 207.822, 167.279 207.939, 164.923 207.968 C 162.554 207.997, 162.254 208.506, 161.217 214.250 C 160.597 217.688, 159.792 222.975, 159.430 226 C 159.067 229.025, 158.213 232.400, 157.532 233.500 C 156.851 234.600, 155.963 237.718, 155.559 240.429 C 154.896 244.871, 155.055 245.536, 157.162 247.151 L 159.500 248.943 156.594 251.472 C 154.996 252.862, 153.511 254, 153.293 254 C 153.075 254, 151.232 253.138, 149.198 252.084 C 147.164 251.029, 143.025 249.641, 140 248.998 C 134.571 247.843, 128.922 245.808, 126 243.953 C 125.175 243.429, 122.250 241.669, 119.500 240.042 C 113.092 236.249, 100.968 223.854, 95.007 215 C 93.712 213.075, 90.792 209.250, 88.519 206.500 C 86.246 203.750, 83.563 199.250, 82.557 196.500 C 81.550 193.750, 80.181 190.825, 79.515 190 C 78.849 189.175, 78.025 187.713, 77.683 186.750 C 77.314 185.708, 76.039 185, 74.531 185 C 73.139 185, 72 184.491, 72 183.868 C 72 182.208, 76.009 176, 77.082 176 C 77.587 176, 78 175.480, 78 174.844 C 78 172.873, 85.582 166.141, 88.618 165.416 C 90.203 165.037, 94.425 162.818, 98 160.485 C 101.575 158.153, 105.625 155.909, 107 155.500 C 108.375 155.090, 109.950 154.412, 110.500 153.993 C 111.050 153.574, 112.882 152.936, 114.571 152.575 C 118.484 151.740, 124 146.744, 124 144.035 C 124 142.790, 123 141.501, 121.505 140.820 C 119.392 139.858, 118.740 139.992, 117.255 141.699 C 116.290 142.807, 114.375 144.039, 113 144.436 C 105.833 146.505, 96.129 150.548, 93.317 152.636 C 91.566 153.936, 89.428 155, 88.567 155 C 86.088 155, 86.688 150.629, 89.598 147.489 C 93.073 143.739, 95.615 138.660, 97.347 132 C 98.134 128.975, 100.375 123.350, 102.327 119.500 C 104.278 115.650, 106.811 110.594, 107.956 108.264 C 109.444 105.236, 110.816 103.865, 112.768 103.454 C 114.271 103.138, 116.281 102.456, 117.236 101.940 C 118.191 101.423, 120.689 101, 122.786 101 C 128.490 101, 130.827 97.684, 127.480 94.337 C 126.373 93.230, 124.540 92.938, 120.730 93.262 C 115.154 93.736, 104.806 95.756, 101.500 97.017 C 100.400 97.436, 96.575 98.546, 93 99.482 C 89.425 100.419, 85.022 101.819, 83.216 102.593 C 81.410 103.367, 79.160 104.020, 78.216 104.044 C 77.272 104.068, 74.807 104.692, 72.739 105.430 C 67.946 107.140, 67.309 106.059, 69.924 100.657 C 71.066 98.298, 72.016 95.273, 72.035 93.934 C 72.055 92.595, 72.714 90.375, 73.500 89 C 74.286 87.625, 74.945 85.263, 74.965 83.750 C 74.984 82.237, 75.414 81, 75.920 81 C 76.427 81, 77.164 77.980, 77.559 74.289 C 77.955 70.598, 78.891 66.113, 79.639 64.321 C 81.657 59.492, 81.327 57.481, 77.967 54.121 C 74.438 50.591, 71.792 50.931, 72.044 54.881 C 72.305 58.950, 72.167 59.340, 69.433 62.289 C 67.054 64.855, 66.877 65.697, 67.015 73.779 C 67.208 85.031, 66.419 88.917, 62.317 96.927 C 59.231 102.955, 59.093 103.595, 60.640 104.726 C 61.998 105.719, 62.112 106.398, 61.230 108.229 C 60.405 109.941, 60.119 110.084, 60.068 108.809 C 59.871 103.906, 55.047 109.199, 54.968 114.404 C 54.951 115.557, 54.276 117.374, 53.468 118.441 C 52.661 119.509, 52 121.141, 52 122.069 C 52 122.996, 51.325 124.315, 50.500 125 C 48.818 126.396, 48.457 130, 50 130 C 51.614 130, 51.146 132.730, 49.418 133.393 C 47.182 134.251, 47 134.183, 47 132.492 C 47 130.029, 43.488 132.787, 41.011 137.193 C 39.835 139.287, 38.548 141, 38.152 141 C 36.940 141, 33.844 146.938, 34.501 148.002 C 35.691 149.927, 37.183 148.936, 44.668 141.250 C 53.128 132.564, 56.744 127.602, 59.425 121 C 63.370 111.283, 64.150 110.238, 67.922 109.614 C 69.890 109.288, 72.337 109.017, 73.361 109.011 C 75.023 109.001, 74.978 109.197, 72.944 110.844 C 71.500 112.014, 70.897 113.288, 71.295 114.327 C 71.915 115.942, 72.902 115.889, 77.500 113.995 C 78.600 113.541, 81.300 112.714, 83.500 112.156 C 85.700 111.598, 88.512 110.832, 89.750 110.454 C 91.685 109.863, 92 110.133, 92 112.383 C 92 113.823, 91.601 115, 91.114 115 C 90.626 115, 89.930 117.138, 89.566 119.750 C 87.956 131.316, 84.852 141.296, 82.023 144 C 80.444 145.510, 79 149.355, 79 152.052 C 79 153.746, 78.552 155.969, 78.004 156.992 C 76.617 159.584, 68.344 165, 65.771 165 C 63.204 165, 57.545 166.684, 53.669 168.600 C 50.279 170.276, 47.786 170.386, 46.323 168.923 C 45.553 168.153, 44.544 168.547, 42.788 170.303 C 41.436 171.654, 39.397 173.057, 38.256 173.419 C 35.129 174.411, 33.699 176.665, 34.407 179.487 C 34.977 181.758, 35.526 182, 40.118 182 C 42.912 182, 46.616 181.368, 48.349 180.596 C 57.332 176.594, 65.276 175.020, 66.500 177 C 67.420 178.488, 69 178.209, 69 176.559 C 69 174.784, 70.648 173.664, 72.016 174.510 C 73.445 175.393, 70.016 180.943, 68.420 180.331 C 66.086 179.435, 62.352 182.975, 60.063 188.254 C 58.811 191.139, 56.935 195.425, 55.894 197.777 C 54.852 200.129, 54 202.716, 54 203.527 C 54 204.337, 53.640 205, 53.199 205 C 52.759 205, 51.405 206.913, 50.191 209.250 C 45.298 218.669, 36.555 231, 34.770 231 C 34.346 231, 34 231.518, 34 232.152 C 34 233.444, 28.938 240.612, 24.750 245.251 C 23.238 246.926, 22 248.868, 22 249.567 C 22 250.266, 20.409 252.337, 18.465 254.169 C 14.272 258.120, 14.132 261.342, 18.134 261.805 C 21.963 262.249, 27.340 254.958, 24.014 253.833 C 23.472 253.650, 23.966 252.150, 25.111 250.500 C 26.870 247.967, 27.116 247.850, 26.691 249.750 C 25.422 255.419, 32.404 248.603, 34.441 242.185 C 34.841 240.926, 36.751 238.457, 38.686 236.698 C 40.620 234.939, 42.872 232.208, 43.690 230.628 C 44.508 229.048, 46.713 226.221, 48.589 224.344 C 50.465 222.468, 52 220.498, 52 219.967 C 52 219.435, 52.420 219, 52.933 219 C 53.446 219, 54.180 218.008, 54.565 216.797 C 54.949 215.585, 55.879 213.978, 56.632 213.225 C 57.384 212.473, 58 211.044, 58 210.051 C 58 209.058, 58.663 207.695, 59.474 207.022 C 60.284 206.349, 61.235 204.264, 61.587 202.388 C 61.939 200.513, 62.587 198.756, 63.026 198.484 C 63.466 198.212, 64.135 196.161, 64.513 193.926 C 64.996 191.062, 65.834 189.622, 67.350 189.049 C 70.877 187.716, 72.745 189.509, 73.493 194.946 C 73.869 197.685, 75.037 201.612, 76.089 203.674 C 77.140 205.736, 78 207.778, 78 208.211 C 78 209.149, 81.725 213, 82.632 213 C 83.556 213, 90 219.992, 90 220.994 C 90 221.463, 91.237 223.321, 92.750 225.123 C 94.523 227.235, 94.919 228.177, 93.863 227.774 C 92.623 227.301, 92.347 227.609, 92.723 229.048 C 93.816 233.229, 101.172 238.248, 103.814 236.615 C 105.107 235.816, 108.563 239.023, 109.456 241.849 C 110.507 245.177, 112.986 247.380, 118.610 249.984 C 121.299 251.229, 124.850 252.966, 126.500 253.844 C 128.150 254.722, 131.525 255.678, 134 255.970 C 138.388 256.487, 138.512 256.600, 139 260.500 L 139.500 264.500 145.823 264.536 C 152.465 264.574, 154.232 263.792, 151.271 262.126 C 149.614 261.194, 149.642 260.997, 151.701 259.071 C 153.416 257.468, 154.430 257.213, 156.285 257.918 C 157.692 258.453, 159.247 258.457, 160.083 257.927 C 161.922 256.764, 166 256.740, 166 257.893 C 166 259.096, 163.444 260, 160.041 260 C 158.503 260, 156.725 260.626, 156.090 261.391 C 155.114 262.568, 156.291 262.704, 163.718 262.270 C 168.548 261.989, 172.928 261.363, 173.450 260.879 C 173.973 260.396, 178.473 259.993, 183.450 259.985 C 195.180 259.965, 198.804 258.139, 190 256.685 C 188.625 256.458, 190.200 256.225, 193.500 256.167 C 198.017 256.087, 199.068 256.313, 197.750 257.080 C 193.716 259.430, 195.997 260.258, 204.750 259.622 C 209.563 259.272, 218 258.927, 223.500 258.856 C 229 258.784, 234.288 258.321, 235.252 257.827 C 236.215 257.332, 240.490 256.702, 244.752 256.425 C 252.591 255.916, 259.436 255.248, 264 254.547 C 265.375 254.335, 266.817 254.126, 267.205 254.081 C 267.592 254.037, 268.212 252.386, 268.582 250.413 C 269.628 244.839, 267.813 243.664, 260.081 244.910 C 256.643 245.463, 252.608 245.672, 251.113 245.373 C 249.619 245.074, 245.944 245.509, 242.948 246.340 C 238.071 247.693, 228.368 248.318, 195.500 249.397 C 191.100 249.542, 183.113 250.023, 177.750 250.467 C 169.059 251.186, 168 251.096, 168 249.637 C 168 248.737, 168.410 248, 168.912 248 C 170.410 248, 171.373 239.970, 170.033 238.654 C 169.142 237.779, 168.414 238.043, 167.019 239.750 C 164.053 243.377, 162.643 242.632, 163.409 237.841 C 163.775 235.554, 164.690 232.517, 165.443 231.091 C 166.688 228.735, 168.194 222.251, 171.040 207 C 171.605 203.975, 172.753 198.125, 173.592 194 C 174.431 189.875, 175.499 183.800, 175.966 180.500 C 176.433 177.200, 177.553 171.575, 178.455 168 C 179.358 164.425, 180.738 157.450, 181.523 152.500 C 182.308 147.550, 183.392 141.475, 183.931 139 C 184.471 136.525, 184.932 131.717, 184.956 128.315 C 184.980 124.913, 185.513 120.863, 186.141 119.315 C 186.768 117.767, 187.635 111.550, 188.068 105.500 C 188.500 99.450, 189.303 88.267, 189.852 80.648 C 190.585 70.476, 191.433 65.362, 193.043 61.393 C 194.818 57.022, 194.999 55.704, 193.996 54.495 C 191.537 51.532, 194.421 50.295, 204.974 49.787 C 210.992 49.497, 215.542 48.795, 216.487 48.010 C 217.347 47.297, 220.852 46.527, 224.275 46.300 C 227.699 46.072, 232.300 45.675, 234.500 45.416 C 239.213 44.862, 251.227 44.728, 255.500 45.181 C 257.989 45.446, 258.556 45.106, 258.828 43.185 C 259.255 40.175, 255.659 37.038, 251.597 36.877 C 243.682 36.562, 231.074 36.505, 227 36.765 M 200 46 C 198.875 46.727, 199.375 46.969, 202 46.969 C 204.625 46.969, 205.125 46.727, 204 46 C 203.175 45.467, 202.275 45.031, 202 45.031 C 201.725 45.031, 200.825 45.467, 200 46 M 233.500 106.099 C 221.788 107.318, 211.026 110.248, 203 114.403 C 201.625 115.114, 198.404 116.262, 195.842 116.952 C 191.266 118.186, 191.179 118.286, 190.828 122.695 C 190.434 127.645, 192.365 129.811, 195.727 128.192 C 196.702 127.723, 198.999 126.587, 200.831 125.669 C 202.663 124.751, 204.878 124, 205.752 124 C 206.627 124, 208.053 123.409, 208.921 122.686 C 209.790 121.963, 212.975 120.788, 216 120.075 C 219.025 119.362, 222.400 118.222, 223.500 117.540 C 224.600 116.859, 229.438 115.985, 234.250 115.599 C 243.236 114.877, 243.574 115, 243.060 118.815 C 242.962 119.538, 243.556 124.488, 244.379 129.815 C 245.998 140.293, 245.768 161.696, 244.002 164.997 C 243.451 166.026, 243 168.220, 243 169.872 L 243 172.875 232.250 173.304 C 226.338 173.540, 218.125 174.502, 214 175.440 C 209.875 176.379, 203.350 177.612, 199.500 178.180 C 189.766 179.617, 188 180.603, 188 184.602 C 188 188.736, 189.956 189.442, 197.703 188.103 C 200.891 187.552, 204.850 186.885, 206.500 186.620 C 214.337 185.364, 221.595 183.742, 222.500 183.044 C 223.050 182.620, 226.709 181.988, 230.631 181.640 C 236.305 181.137, 238.016 181.314, 239.003 182.504 C 240.390 184.175, 243 184.524, 243 183.039 C 243 182.510, 244.823 181.586, 247.051 180.986 C 251.900 179.680, 252.818 177.898, 250.479 174.328 C 248.927 171.958, 248.868 170.906, 249.941 164.586 C 250.602 160.689, 251.845 155.293, 252.703 152.596 C 253.863 148.950, 254.294 142.908, 254.382 129.058 C 254.485 112.780, 254.276 110.083, 252.727 107.713 C 250.740 104.672, 248.780 104.508, 233.500 106.099 M 204.458 118.068 C 204.095 118.656, 203.191 118.904, 202.450 118.619 C 201.582 118.286, 201.300 118.619, 201.658 119.551 C 202.264 121.131, 205 121.567, 205 120.083 C 205 119.579, 206.238 118.715, 207.750 118.162 L 210.500 117.158 207.809 117.079 C 206.329 117.036, 204.821 117.481, 204.458 118.068 M 248.195 120.500 C 248.215 122.150, 248.439 122.704, 248.693 121.731 C 248.947 120.758, 248.930 119.408, 248.656 118.731 C 248.382 118.054, 248.175 118.850, 248.195 120.500 M 196 122.500 C 195.140 123.536, 195.102 124, 195.878 124 C 196.495 124, 197 123.581, 197 123.070 C 197 122.558, 198.012 121.944, 199.250 121.706 C 201.405 121.291, 201.410 121.267, 199.372 121.136 C 198.202 121.061, 196.685 121.675, 196 122.500 M 181.052 183.437 C 179.500 185.307, 180.355 188, 182.500 188 C 184.729 188, 185.541 185.112, 183.801 183.372 C 182.504 182.075, 182.176 182.083, 181.052 183.437 M 64.557 186.223 C 63.701 187.445, 63 189.120, 63 189.945 C 63 191.624, 65.173 188.864, 66.302 185.750 C 67.172 183.353, 66.425 183.555, 64.557 186.223 M 54 209 C 53.409 210.105, 53.341 211, 53.848 211 C 54.353 211, 55.002 210.100, 55.290 209 C 55.577 207.900, 55.646 207, 55.442 207 C 55.237 207, 54.589 207.900, 54 209 M 46 221 C 46 221.550, 46.477 222, 47.059 222 C 47.641 222, 47.840 221.550, 47.500 221 C 47.160 220.450, 46.684 220, 46.441 220 C 46.198 220, 46 220.450, 46 221 M 37.639 231.694 C 36.513 232.820, 36.954 234, 38.500 234 C 39.325 234, 40 233.577, 40 233.059 C 40 231.798, 38.438 230.895, 37.639 231.694 M 225 254.005 C 222.605 254.619, 222.635 254.667, 225.727 255.146 C 227.501 255.422, 229.452 255.339, 230.061 254.962 C 231.703 253.948, 227.974 253.243, 225 254.005 M 176.691 255.810 C 171.986 256.370, 174.278 258.452, 179.818 258.652 C 182.658 258.754, 185.194 258.495, 185.453 258.075 C 186.125 256.989, 180.030 255.414, 176.691 255.810 M 167 258.573 C 167 259.505, 167.680 260.015, 168.667 259.823 C 171.176 259.337, 171.520 257, 169.083 257 C 167.855 257, 167 257.646, 167 258.573" stroke="none" fill="black" fill-rule="evenodd"/>
</svg>