<svg xmlns="http://www.w3.org/2000/svg" width="300" height="300" viewBox="0 0 300 300" version="1.1">
	<path d="M 171 15.290 C 169.625 15.983, 168.360 17.525, 168.188 18.717 C 167.821 21.266, 171.391 23.469, 177.535 24.484 C 179.716 24.844, 183.975 25.959, 187 26.960 C 190.025 27.962, 194.525 29.356, 197 30.058 C 199.475 30.760, 202.975 32.203, 204.778 33.266 C 207.406 34.815, 208.348 34.956, 209.528 33.977 C 210.338 33.305, 211 31.977, 211 31.027 C 211 29.048, 203.113 23.814, 197.340 21.963 C 195.228 21.286, 190.236 19.217, 186.247 17.366 C 178.485 13.764, 174.975 13.286, 171 15.290 M 191.599 44.733 C 191.472 44.861, 184.198 45.371, 175.434 45.867 C 159.450 46.772, 153.407 47.991, 143.706 52.269 C 140.052 53.880, 138.981 54.849, 139.206 56.340 C 139.753 59.977, 142.364 60.588, 149.374 58.720 C 152.924 57.774, 156.992 57, 158.414 57 C 159.836 57, 161 56.580, 161 56.067 C 161 55.554, 162.238 55.123, 163.750 55.109 C 165.262 55.095, 171 54.676, 176.500 54.177 C 182 53.679, 195.862 53.352, 207.305 53.451 C 218.747 53.551, 228.339 53.261, 228.619 52.807 C 229.454 51.457, 228.044 48.231, 226.332 47.574 C 223.114 46.339, 192.493 43.834, 191.599 44.733 M 166.659 65 C 165.684 66.650, 164.112 68, 163.166 68 C 162.219 68, 160.392 68.737, 159.106 69.639 C 157.094 71.047, 156.846 71.859, 157.335 75.426 C 157.648 77.708, 159.094 81.706, 160.550 84.311 C 162.006 86.915, 162.968 89.642, 162.688 90.371 C 162.384 91.163, 159.717 91.954, 156.065 92.335 C 152.701 92.687, 148.724 93.602, 147.225 94.369 C 145.726 95.136, 142.590 96.081, 140.255 96.469 C 137.921 96.857, 135.778 97.550, 135.493 98.011 C 135.209 98.471, 132.732 99.593, 129.988 100.504 C 125.835 101.883, 125 102.566, 125 104.580 C 125 106.064, 125.580 107, 126.500 107 C 127.325 107, 128 106.325, 128 105.500 C 128 104.675, 128.395 104, 128.878 104 C 129.360 104, 130.315 104.675, 131 105.500 C 132.565 107.386, 137.241 107.428, 141.349 105.592 C 145.164 103.887, 159.158 100.826, 164 100.637 C 167.131 100.514, 167.601 100.842, 168.457 103.750 C 169.176 106.194, 169.983 107, 171.707 107 C 173.661 107, 174 106.483, 174 103.500 C 174 101.575, 174.338 99.949, 174.750 99.887 C 175.162 99.825, 181.575 99.645, 189 99.487 C 196.425 99.329, 207.450 98.652, 213.500 97.982 C 219.550 97.313, 229.641 96.606, 235.924 96.411 C 247.582 96.049, 248.951 95.564, 248.985 91.785 C 249.015 88.404, 245.136 87.520, 231 87.686 C 223.575 87.774, 214.350 88.278, 210.500 88.807 C 206.217 89.396, 203.116 89.411, 202.511 88.845 C 201.868 88.245, 202.440 86.097, 204.144 82.711 C 210.249 70.576, 210.999 67.573, 208.803 64.057 C 207.891 62.596, 207.177 62.370, 205.803 63.105 C 204.426 63.842, 203.993 65.302, 203.972 69.285 C 203.950 73.495, 203.372 75.257, 200.972 78.428 C 199.337 80.589, 198 83.076, 198 83.956 C 198 84.835, 197.299 86.555, 196.443 87.777 C 194.989 89.854, 194.136 90, 183.419 90 C 171.969 90, 171.949 89.996, 170.955 87.382 C 170.408 85.943, 169.051 83.610, 167.941 82.198 C 165.573 79.188, 165.979 75.893, 169.551 69.144 C 173.026 62.576, 170.353 58.746, 166.659 65 M 200 69.441 C 200 72.505, 200.570 72.753, 201.289 70.001 C 201.577 68.902, 201.404 67.750, 200.906 67.442 C 200.408 67.134, 200 68.034, 200 69.441 M 69.667 81.991 C 61.871 85.242, 59.436 87.126, 58.571 90.574 C 58.204 92.034, 57.235 93, 56.136 93 C 52.178 93, 51.168 95.884, 51.759 105.500 C 52.698 120.776, 52.298 133.365, 50.447 146.750 C 49.826 151.243, 49.958 152, 51.361 152 C 52.262 152, 53 152.675, 53 153.500 C 53 154.325, 52.380 155, 51.622 155 C 48.498 155, 47.740 158.076, 47.121 173.258 C 46.779 181.641, 46.534 192.775, 46.575 198 C 46.617 203.225, 46.365 206.375, 46.015 205 C 45.403 202.593, 45.355 202.622, 44.707 205.787 C 44.285 207.853, 44.611 210.639, 45.584 213.287 C 48.284 220.633, 48.295 220.772, 46.197 221.437 C 44.449 221.992, 44.249 222.811, 44.523 228.284 C 45.011 238.024, 45.978 251.023, 46.622 256.500 C 47.392 263.053, 50.386 268, 53.582 268 C 56.729 268, 56.726 265.652, 53.573 261.905 C 50.873 258.696, 49.050 248.888, 50.755 246.742 C 51.303 246.052, 52.012 234.609, 52.349 221 C 53.219 185.923, 54.136 170.951, 55.636 167.345 C 57.027 163.999, 58.346 163.610, 75.500 161.484 C 78.250 161.143, 82.719 160.219, 85.432 159.432 C 93.700 157.031, 96.391 157.455, 98.570 161.500 C 99.607 163.425, 100.802 165, 101.227 165 C 102.507 165, 102.099 167.044, 100.500 168.643 C 99.530 169.613, 99.025 171.972, 99.070 175.321 C 99.122 179.137, 99.367 179.974, 100 178.500 C 100.653 176.980, 100.876 177.598, 100.930 181.071 L 101 185.643 95.750 185.839 C 91.157 186.010, 80.491 188.633, 74.500 191.063 C 73.400 191.509, 71.489 192.158, 70.252 192.504 C 67.963 193.145, 66.282 197.029, 67.465 198.943 C 68.267 200.241, 75.386 200.338, 77.764 199.084 C 81.293 197.223, 86.837 195, 87.951 195 C 88.582 195, 90.489 194.281, 92.188 193.403 C 94.636 192.137, 95.791 192.039, 97.752 192.933 C 100.130 194.016, 100.199 194.313, 99.534 200.530 C 99.114 204.453, 99.216 207, 99.795 207 C 100.368 207, 100.544 210.597, 100.236 216 C 99.873 222.365, 100.056 225, 100.861 225 C 101.488 225, 102 225.900, 102 227 C 102 229.220, 100.477 229.697, 99.610 227.750 C 99.303 227.063, 99.153 228.061, 99.276 229.969 C 99.458 232.783, 99.028 233.677, 97 234.704 C 95.625 235.401, 92.993 235.977, 91.151 235.985 C 89.309 235.993, 86.384 236.626, 84.651 237.391 C 81.456 238.802, 76.945 239.989, 67 242.033 C 58.863 243.705, 54.567 246.216, 54.170 249.530 C 53.620 254.113, 54.448 254.190, 70.500 251.036 C 73.800 250.387, 77.386 249.374, 78.468 248.784 C 82.024 246.845, 95.215 243, 98.310 243 C 99.978 243, 102.205 242.213, 103.259 241.250 C 104.312 240.287, 107.273 238.786, 109.837 237.914 C 113.211 236.766, 114.500 235.798, 114.500 234.414 C 114.500 232.859, 113.750 232.488, 110.500 232.434 L 106.500 232.369 106.807 195.997 C 106.975 175.993, 107.266 159.372, 107.453 159.063 C 108.263 157.723, 106.040 113.699, 104.991 110.279 C 100.822 96.693, 98.449 91.343, 94.592 86.837 C 87.123 78.110, 81.563 77.029, 69.667 81.991 M 74.447 88.853 C 68.954 91.086, 67.953 91.848, 64.230 96.635 L 61.015 100.769 59.454 122.350 C 58.595 134.219, 58.030 146.308, 58.197 149.214 L 58.500 154.499 66 154.173 C 70.125 153.993, 75.300 153.342, 77.500 152.725 C 82.833 151.230, 100.080 151.005, 102 152.406 C 103.333 153.378, 103.333 153.289, 102 151.597 C 100.852 150.139, 100.467 146.507, 100.360 136.097 C 100.283 128.618, 99.720 121.233, 99.110 119.685 C 98.499 118.137, 98 115.760, 98 114.403 C 98 112.241, 95.223 105.926, 89.622 95.351 C 87.793 91.897, 81.900 86.940, 79.817 87.103 C 79.093 87.159, 76.676 87.947, 74.447 88.853 M 175 95.500 C 175 96.325, 175.436 97, 175.969 97 C 176.501 97, 176.678 96.325, 176.362 95.500 C 176.045 94.675, 175.609 94, 175.393 94 C 175.177 94, 175 94.675, 175 95.500 M 154 97 C 154 97.550, 154.477 98, 155.059 98 C 155.641 98, 155.840 97.550, 155.500 97 C 155.160 96.450, 154.684 96, 154.441 96 C 154.198 96, 154 96.450, 154 97 M 206.500 107.997 C 192.674 109.685, 183.286 111.306, 180 112.574 C 178.075 113.316, 173.800 114.210, 170.500 114.559 C 160.651 115.602, 154 117.824, 154 120.071 C 154 121.213, 154.687 122, 155.686 122 C 156.613 122, 158.315 122.887, 159.469 123.971 C 161.620 125.992, 163.625 125.882, 180.322 122.833 C 181.995 122.527, 182.164 123.510, 182.378 134.750 L 182.611 147 179.005 147 C 177.022 147, 174.973 147.425, 174.450 147.944 C 173.928 148.463, 170.518 149.363, 166.873 149.943 C 163.229 150.524, 158.564 151.702, 156.507 152.562 C 154.450 153.421, 152.194 153.905, 151.494 153.636 C 150.696 153.330, 149.949 150.074, 149.491 144.901 C 149.090 140.365, 148.378 135.318, 147.910 133.685 C 147.248 131.379, 147.599 129.586, 149.481 125.653 C 151.193 122.076, 151.603 120.227, 150.879 119.354 C 149.660 117.885, 147 118.671, 147 120.500 C 147 121.929, 144.833 123, 141.941 123 C 140.899 123, 139.378 124.019, 138.562 125.265 C 137.238 127.286, 137.276 128.279, 138.920 134.515 C 139.933 138.357, 141.249 142.723, 141.844 144.217 C 142.439 145.711, 143.634 152.364, 144.500 159 C 146.604 175.120, 148.290 179.138, 151.575 175.854 C 152.751 174.677, 152.730 174.033, 151.430 171.527 C 150.124 169.011, 150.091 167.941, 151.201 164.168 C 152.626 159.326, 155.151 157.656, 158.642 159.247 C 160.177 159.946, 163.636 159.602, 170.858 158.031 C 176.398 156.826, 181.435 156.151, 182.051 156.531 C 182.793 156.990, 182.951 159.123, 182.520 162.862 C 182.162 165.963, 182.305 170.431, 182.838 172.791 C 183.722 176.708, 183.606 177.212, 181.513 178.584 C 180.252 179.410, 174.558 180.654, 168.860 181.349 C 157.292 182.760, 153 184.734, 153 188.646 C 153 191.516, 155.408 192.736, 157.555 190.954 C 158.620 190.070, 159.403 190.003, 160.131 190.731 C 160.860 191.460, 162.897 191.367, 166.839 190.425 C 178.388 187.664, 180.490 188.695, 181.343 197.543 L 181.926 203.585 177.713 204.766 C 175.396 205.416, 167.875 206.445, 161 207.055 C 154.125 207.664, 147.216 208.650, 145.646 209.246 C 143.081 210.219, 142.849 210.680, 143.353 213.788 C 143.662 215.691, 144.164 217.497, 144.469 217.803 C 145.307 218.640, 157.822 218.118, 161.910 217.075 C 168.604 215.367, 177.723 214.781, 179.856 215.923 C 181.775 216.950, 181.817 217.267, 180.520 220.943 C 179.460 223.948, 179.412 225.098, 180.318 225.851 C 181.031 226.444, 181.500 229.747, 181.500 234.167 L 181.500 241.500 175.500 241.747 C 152.583 242.690, 135.126 245.491, 127.270 249.485 C 123.097 251.606, 122.729 252.311, 124.160 255.451 C 125.328 258.015, 125.452 258.043, 132.922 257.379 C 137.090 257.008, 142.300 256.041, 144.500 255.230 C 148.985 253.575, 163.237 252.041, 179 251.515 C 184.775 251.323, 192.200 250.905, 195.500 250.586 C 198.800 250.267, 205.896 249.621, 211.270 249.150 C 216.643 248.679, 221.335 247.998, 221.697 247.636 C 222.059 247.275, 221.345 246.038, 220.111 244.889 C 217.454 242.414, 217.938 241.517, 221.453 242.399 C 223.110 242.815, 224 243.730, 224 245.019 C 224 247.214, 226.567 247.572, 239 247.115 C 250.259 246.702, 267 243.035, 267 240.984 C 267 240.551, 268.579 239.266, 270.508 238.128 C 274.334 235.870, 276.945 231.545, 275.409 230.009 C 274.827 229.427, 272.158 230.175, 268.356 231.986 C 261.385 235.306, 258.309 235.810, 237.500 237.043 C 229.250 237.532, 217.775 238.438, 212 239.056 C 206.225 239.675, 198.376 240.253, 194.558 240.340 C 186.153 240.534, 186.276 240.779, 187 225.244 C 187.487 214.801, 187.571 214.485, 190.186 213.236 C 192.326 212.213, 205.355 211.281, 221.250 211.013 C 221.662 211.006, 222 210.110, 222 209.023 C 222 204.627, 213.950 202.624, 197.640 202.962 L 187.780 203.167 188.515 195.852 C 189.011 190.911, 189.777 188.152, 190.875 187.347 C 191.769 186.692, 195.609 185.843, 199.409 185.461 C 203.209 185.078, 207.807 184.143, 209.627 183.383 C 211.447 182.622, 214.027 182, 215.361 182 C 217.672 182, 219 180.370, 219 177.535 C 219 175.497, 214.800 174.901, 212.244 176.576 C 210.979 177.405, 209.425 177.763, 208.791 177.371 C 207.319 176.461, 199.100 176.824, 195.083 177.976 C 190.772 179.212, 190.123 177.385, 191.100 166.774 C 192.294 153.817, 192.568 153.511, 202.500 154.012 C 214.659 154.627, 214.478 154.653, 214.820 152.246 C 215.028 150.780, 214.503 149.756, 213.320 149.318 C 212.319 148.949, 211.200 148.197, 210.833 147.648 C 210.466 147.099, 206.298 146.447, 201.570 146.199 C 193.466 145.774, 192.940 145.609, 192.364 143.314 C 191.653 140.480, 192.683 128.155, 194.078 122.819 C 195.015 119.234, 195.188 119.122, 200.770 118.488 C 203.921 118.129, 207.400 117.559, 208.500 117.220 C 209.600 116.881, 210.950 116.733, 211.500 116.891 C 212.050 117.049, 214.282 117.485, 216.460 117.860 C 220.984 118.639, 221.737 120.149, 221.900 128.764 C 221.955 131.659, 222.558 134.921, 223.241 136.014 C 224.168 137.499, 224.199 138.451, 223.363 139.790 C 222.748 140.774, 221.908 144.033, 221.496 147.031 C 220.777 152.259, 216.698 162.450, 214.874 163.578 C 213.472 164.445, 213.868 168, 215.367 168 C 216.517 168, 222 161.033, 222 159.572 C 222 159.312, 223.288 157.165, 224.861 154.800 C 226.435 152.435, 228.029 148.497, 228.405 146.050 C 228.780 143.602, 229.630 140.944, 230.294 140.142 C 231.957 138.134, 231.668 120.592, 229.889 115.598 C 229.125 113.451, 227.825 111.366, 227 110.963 C 220.154 107.624, 215.302 106.922, 206.500 107.997 M 186 116.500 C 186 117.325, 186.675 118, 187.500 118 C 188.325 118, 189 117.325, 189 116.500 C 189 115.675, 188.325 115, 187.500 115 C 186.675 115, 186 115.675, 186 116.500 M 163.500 122 C 163.840 122.550, 164.316 123, 164.559 123 C 164.802 123, 165 122.550, 165 122 C 165 121.450, 164.523 121, 163.941 121 C 163.359 121, 163.160 121.450, 163.500 122 M 185.195 165.500 C 185.215 167.150, 185.439 167.704, 185.693 166.731 C 185.947 165.758, 185.930 164.408, 185.656 163.731 C 185.382 163.054, 185.175 163.850, 185.195 165.500 M 50.158 169 C 50.158 170.375, 50.385 170.938, 50.662 170.250 C 50.940 169.563, 50.940 168.438, 50.662 167.750 C 50.385 167.063, 50.158 167.625, 50.158 169 M 137.170 212.750 C 136.675 213.713, 136.472 215.063, 136.718 215.750 C 137.414 217.690, 139.794 217.223, 140.497 215.009 C 141.655 211.362, 138.860 209.464, 137.170 212.750 M 227 243.941 C 227 244.459, 227.450 245.160, 228 245.500 C 228.550 245.840, 229 245.416, 229 244.559 C 229 243.702, 228.550 243, 228 243 C 227.450 243, 227 243.423, 227 243.941 M 234.250 243.689 C 235.213 243.941, 236.787 243.941, 237.750 243.689 C 238.713 243.438, 237.925 243.232, 236 243.232 C 234.075 243.232, 233.287 243.438, 234.250 243.689 M 213.605 244.717 C 212.232 245.069, 212.056 245.417, 212.966 245.979 C 214.551 246.958, 218.164 246.074, 217.430 244.886 C 216.853 243.952, 216.630 243.943, 213.605 244.717 M 186.023 247.454 L 188.500 249.907 193.797 248.168 C 199.074 246.434, 199.770 245, 195.333 245 C 194.050 245, 193 245.450, 193 246 C 193 246.550, 191.677 247, 190.059 247 C 188.441 247, 186.840 246.550, 186.500 246 C 186.160 245.450, 185.356 245, 184.714 245 C 184.071 245, 184.660 246.104, 186.023 247.454 M 207.750 245.662 C 208.438 245.940, 209.563 245.940, 210.250 245.662 C 210.938 245.385, 210.375 245.158, 209 245.158 C 207.625 245.158, 207.063 245.385, 207.750 245.662 M 63.459 247.067 C 63.096 247.653, 63.040 248.373, 63.333 248.667 C 64.050 249.383, 66 248.121, 66 246.941 C 66 245.663, 64.274 245.748, 63.459 247.067 M 164.872 247.673 C 163.650 249.164, 163.746 249.284, 165.749 248.767 C 166.986 248.449, 168.250 248.596, 168.558 249.094 C 169.512 250.637, 174.740 250.120, 175.393 248.418 C 175.727 247.548, 176 246.648, 176 246.418 C 176 246.188, 173.805 246, 171.122 246 C 167.776 246, 165.814 246.525, 164.872 247.673" stroke="none" fill="black" fill-rule="evenodd"/>
</svg>