<svg xmlns="http://www.w3.org/2000/svg" width="300" height="300" viewBox="0 0 300 300" version="1.1">
	<path d="M 151.188 14.739 C 151.690 17.345, 155 17.636, 155 15.073 C 155 13.642, 154.358 13, 152.927 13 C 151.496 13, 150.957 13.539, 151.188 14.739 M 111.343 47.550 C 111.015 48.402, 111.237 51.665, 111.835 54.800 C 112.811 59.924, 113.566 68.058, 114.529 83.840 C 114.708 86.776, 115.209 91.051, 115.642 93.340 C 116.402 97.359, 116.533 98.335, 116.852 102.375 C 116.973 103.907, 117.548 104.140, 120 103.650 C 122.164 103.217, 123 103.431, 123 104.418 C 123 106.840, 125.729 106.961, 137.732 105.067 C 148.517 103.365, 178.358 101.664, 200.500 101.489 C 208.963 101.422, 209.519 101.287, 209.816 99.234 C 210.390 95.270, 204.921 93.008, 194.750 93.004 C 189.938 93.002, 185.960 92.662, 185.910 92.250 C 185.861 91.838, 185.700 85.425, 185.553 78 C 185.405 70.575, 184.946 62.813, 184.531 60.750 L 183.777 57 187.639 56.993 C 196.866 56.976, 205 55.711, 205 54.293 C 205 53.512, 204.213 52.972, 203.250 53.091 C 202.287 53.210, 200.825 53.049, 200 52.733 C 199.175 52.417, 197.825 51.926, 197 51.641 C 196.175 51.356, 198.537 51.208, 202.250 51.312 C 205.962 51.415, 209 51.837, 209 52.250 C 209 52.663, 208.325 53, 207.500 53 C 205.698 53, 205.463 55.945, 207.250 56.128 C 207.938 56.198, 209.562 56.364, 210.860 56.496 C 214.093 56.827, 214.955 58.573, 215.057 65 C 215.238 76.403, 216.143 86.533, 217.062 87.457 C 219.872 90.281, 223.955 78.623, 223.984 67.693 C 224.006 59.634, 222.296 53.658, 219.090 50.586 C 216.529 48.132, 215.725 47.967, 205.434 47.784 C 199.420 47.676, 189.325 47.918, 183 48.320 C 144.365 50.781, 134.831 51.291, 129.024 51.207 C 125.318 51.154, 122.259 51.582, 121.872 52.207 C 121.501 52.808, 121.940 54.772, 122.848 56.572 C 125.301 61.431, 127.783 61.668, 147.907 58.966 C 156.304 57.839, 158.556 59.178, 158.133 65.044 C 157.972 67.276, 158.376 69.748, 159.032 70.538 C 160.504 72.312, 159.600 75, 157.531 75 C 155.355 75, 155.397 86.150, 157.586 89.491 C 158.459 90.823, 158.915 92.328, 158.601 92.837 C 158.287 93.345, 154.154 94.084, 149.417 94.478 C 144.680 94.873, 139.476 95.577, 137.853 96.042 C 136.230 96.508, 131.774 97.197, 127.951 97.574 L 121 98.258 120.996 89.379 C 120.990 76.787, 118.295 49.060, 116.915 47.397 C 115.365 45.530, 112.083 45.620, 111.343 47.550 M 176 53.154 C 176 54.899, 176.248 55.039, 177.500 54 C 178.325 53.315, 179 52.633, 179 52.485 C 179 52.336, 178.325 51.955, 177.500 51.638 C 176.461 51.240, 176 51.706, 176 53.154 M 187.750 53.662 C 188.438 53.940, 189.563 53.940, 190.250 53.662 C 190.938 53.385, 190.375 53.158, 189 53.158 C 187.625 53.158, 187.063 53.385, 187.750 53.662 M 166 55 C 166 55.550, 166.423 56, 166.941 56 C 167.459 56, 168.160 55.550, 168.500 55 C 168.840 54.450, 168.416 54, 167.559 54 C 166.702 54, 166 54.450, 166 55 M 129 57 C 129 57.550, 129.675 58, 130.500 58 C 131.325 58, 132 57.550, 132 57 C 132 56.450, 131.325 56, 130.500 56 C 129.675 56, 129 56.450, 129 57 M 170.755 57.929 C 168.145 58.293, 165.445 59.155, 164.755 59.845 C 163.062 61.538, 162.437 83.195, 163.922 88.710 C 165.167 93.335, 166.132 93.745, 174.350 93.147 L 179.201 92.793 178.491 82.881 C 177.971 75.603, 178.109 72.573, 179.013 71.484 C 179.990 70.307, 179.985 69.686, 178.988 68.486 C 178.168 67.497, 177.941 65.449, 178.334 62.581 C 178.804 59.151, 178.597 58.059, 177.386 57.595 C 176.534 57.268, 175.761 57.060, 175.668 57.134 C 175.576 57.207, 173.365 57.565, 170.755 57.929 M 40.514 88.977 C 40.208 89.473, 40.249 91.704, 40.605 93.934 C 40.974 96.237, 40.813 98.532, 40.234 99.245 C 39.147 100.583, 38.026 107.483, 37.640 115.215 C 37.510 117.808, 37.088 120.245, 36.702 120.631 C 36.316 121.017, 35.999 123.171, 35.999 125.417 C 35.997 130.964, 33.449 143.951, 32.096 145.304 C 31.493 145.907, 31 148.030, 31 150.022 C 31 153.540, 28.926 161.252, 26.788 165.683 C 25.664 168.011, 26.298 171, 27.916 171 C 29.326 171, 33.510 162.260, 34.876 156.458 C 37.566 145.039, 39 137.728, 39 135.438 C 39 132.630, 42.384 131.952, 43.384 134.560 C 43.894 135.889, 45.573 136.036, 54.741 135.555 C 66.480 134.939, 74.820 133.702, 77.733 132.143 C 78.933 131.501, 82.082 131.464, 86.550 132.039 C 95.812 133.232, 95.694 133.241, 96.421 131.345 C 96.807 130.340, 96.215 128.794, 94.918 127.412 C 91.233 123.491, 82.850 123.319, 59 126.675 C 49.085 128.070, 42.742 128.200, 42.014 127.023 C 41.598 126.350, 41.656 124.027, 42.143 121.860 C 42.936 118.331, 46 94.146, 46 91.417 C 46 89.945, 41.228 87.822, 40.514 88.977 M 185.516 96.975 C 184.708 98.282, 187.009 99.391, 188.154 98.246 C 188.794 97.606, 188.602 97.061, 187.599 96.676 C 186.755 96.352, 185.817 96.487, 185.516 96.975 M 177.500 98 C 177.840 98.550, 179.018 99, 180.118 99 C 181.218 99, 181.840 98.550, 181.500 98 C 181.160 97.450, 179.982 97, 178.882 97 C 177.782 97, 177.160 97.450, 177.500 98 M 155.599 98.840 C 154.962 99.870, 164.560 99.773, 165.594 98.739 C 166.001 98.333, 164.035 98, 161.226 98 C 158.416 98, 155.884 98.378, 155.599 98.840 M 136.714 100.090 C 133.532 100.556, 129.932 101.667, 128.714 102.559 C 126.564 104.134, 126.615 104.164, 130.500 103.611 C 132.700 103.298, 136.537 102.896, 139.027 102.718 C 143.801 102.376, 146 101.500, 146 99.941 C 146 98.877, 144.883 98.895, 136.714 100.090 M 149 100 C 149 100.550, 149.423 101, 149.941 101 C 150.459 101, 151.160 100.550, 151.500 100 C 151.840 99.450, 151.416 99, 150.559 99 C 149.702 99, 149 99.450, 149 100 M 199.349 111.180 C 198.166 111.751, 196.404 113.691, 195.434 115.492 C 193.771 118.581, 193.765 119.102, 195.335 124.699 C 196.251 127.962, 197 131.916, 197 133.487 C 197 135.057, 197.745 137.165, 198.655 138.171 C 200.203 139.882, 200.187 140, 198.405 140.001 C 196.866 140.002, 196.505 140.722, 196.528 143.751 C 196.567 148.974, 197.805 151.980, 200.338 153.001 C 202.053 153.693, 202.138 153.886, 200.750 153.937 C 198.275 154.026, 198.580 155.495, 201.465 157.385 C 204.596 159.436, 215.612 159.538, 223.669 157.590 C 226.876 156.815, 231.208 155.940, 233.296 155.646 C 236.729 155.162, 237.183 155.369, 238.046 157.805 C 238.571 159.287, 239.533 161.400, 240.184 162.500 C 240.835 163.600, 241.993 165.738, 242.757 167.250 C 244.263 170.230, 246.725 170.881, 247.624 168.537 C 247.933 167.733, 247.482 164.920, 246.623 162.287 C 245.763 159.654, 244.760 153.377, 244.393 148.338 C 243.576 137.111, 243.075 136.066, 239.601 138.342 C 236.776 140.193, 235.513 143.671, 236.255 147.554 C 236.922 151.042, 234.304 152.288, 228.791 151.109 C 226.431 150.604, 220.255 150.123, 215.067 150.041 C 209.878 149.959, 205.266 149.664, 204.817 149.387 C 203.803 148.760, 203.757 132.872, 204.765 131.500 C 205.169 130.950, 208.322 130.421, 211.772 130.325 C 222.042 130.039, 238.037 125.706, 237.985 123.224 C 237.976 122.826, 237.583 121.890, 237.110 121.144 C 236.403 120.028, 234.453 119.984, 226.086 120.894 C 212.063 122.420, 205.510 122.320, 204.048 120.558 C 203.390 119.765, 202.998 117.224, 203.176 114.910 C 203.526 110.367, 202.702 109.564, 199.349 111.180 M 144.953 114.908 C 141.159 117.421, 140.171 118.781, 138.722 123.488 C 137.774 126.565, 136.055 130.360, 134.900 131.921 C 133.173 134.257, 133.004 135.140, 133.947 136.901 C 135.231 139.300, 134.606 141, 132.441 141 C 131.571 141, 131 141.990, 131 143.500 C 131 144.875, 130.550 146, 130 146 C 129.450 146, 129 146.949, 129 148.109 C 129 149.998, 129.393 150.149, 132.750 149.557 C 134.813 149.193, 138.750 148.750, 141.500 148.573 C 144.250 148.396, 147.657 147.786, 149.071 147.218 C 150.485 146.650, 156.138 145.867, 161.634 145.477 C 173.119 144.663, 174.550 145.331, 175.617 152.009 C 176.235 155.874, 178.509 157.891, 180.266 156.134 C 181.257 155.143, 181.048 151.322, 179.003 133 C 177.605 120.474, 176.834 118.483, 173.975 120.013 C 171.616 121.276, 169.804 126.876, 170.017 132.245 C 170.291 139.154, 170.444 138.958, 165.250 138.346 C 162.637 138.038, 156.279 138.301, 151.120 138.929 C 145.960 139.558, 141.545 139.879, 141.308 139.641 C 141.071 139.404, 142.270 137.624, 143.972 135.685 C 145.674 133.746, 147.794 129.986, 148.683 127.330 C 149.572 124.673, 151.163 121.262, 152.219 119.748 C 154.598 116.338, 154.232 112.605, 151.481 112.211 C 150.370 112.052, 147.433 113.265, 144.953 114.908 M 73 128.124 C 69.702 129.801, 69.647 129.907, 72.059 129.952 C 74.812 130.004, 78.889 127.617, 77.401 126.825 C 76.906 126.561, 74.925 127.146, 73 128.124 M 79.813 129.683 C 80.534 129.972, 81.397 129.936, 81.729 129.604 C 82.061 129.272, 81.471 129.036, 80.417 129.079 C 79.252 129.127, 79.015 129.364, 79.813 129.683 M 128.956 135.553 C 128.057 136.637, 127.996 137.396, 128.750 138.150 C 129.503 138.903, 130.135 138.616, 130.910 137.168 C 132.248 134.668, 130.731 133.414, 128.956 135.553 M 59.725 140.488 C 57.373 143.322, 56.855 145.063, 56.327 151.916 C 55.881 157.696, 56.031 160, 56.852 160 C 58.457 160, 58.282 164.818, 56.486 170.072 C 54.976 174.492, 54.963 174.501, 49.736 174.773 C 37.247 175.423, 30.388 177.771, 27.577 182.359 C 26.732 183.739, 26.905 184.418, 28.383 185.516 C 29.998 186.716, 30.750 186.714, 33.651 185.501 C 35.513 184.723, 37.257 184.094, 37.527 184.103 C 37.797 184.112, 40.057 183.814, 42.548 183.440 C 46.144 182.901, 47.483 183.127, 49.039 184.536 C 51.512 186.773, 51.500 188.699, 48.952 198 C 43.522 217.824, 41.657 223.258, 39.312 226.079 C 38.591 226.947, 38 228.185, 38 228.829 C 38 230.904, 39.954 230.082, 42.943 226.750 C 45.771 223.596, 47.494 219.018, 53.484 198.739 C 54.907 193.920, 57.301 187.884, 58.805 185.326 C 61.283 181.107, 62.234 180.424, 69.019 177.984 C 81.010 173.672, 87 170.298, 87 167.855 C 87 165.932, 86.621 165.805, 82.750 166.421 C 80.412 166.793, 76.700 167.699, 74.500 168.435 C 72.300 169.170, 68.525 170.098, 66.112 170.497 L 61.724 171.222 62.389 168.361 C 62.754 166.788, 64.010 159.779, 65.179 152.786 C 66.915 142.406, 67.071 139.791, 66.030 138.536 C 64.183 136.311, 62.849 136.724, 59.725 140.488 M 146 144 C 146 144.550, 146.423 145, 146.941 145 C 147.459 145, 148.160 144.550, 148.500 144 C 148.840 143.450, 148.416 143, 147.559 143 C 146.702 143, 146 143.450, 146 144 M 216 155 C 216 156.253, 217.061 156.253, 219 155 C 220.213 154.216, 220.069 154.028, 218.250 154.015 C 217.012 154.007, 216 154.450, 216 155 M 127.485 157.024 C 127.137 157.588, 127.162 159.460, 127.540 161.184 C 128.094 163.703, 127.811 164.634, 126.100 165.924 C 124.211 167.349, 123.945 168.652, 123.736 177.515 C 123.606 183.007, 123.168 187.748, 122.762 188.052 C 121.404 189.066, 119.911 199.311, 120.966 200.366 C 121.615 201.015, 121.569 201.815, 120.833 202.701 C 118.384 205.652, 119.039 221, 121.614 221 C 122.376 221, 123 221.498, 123 222.107 C 123 222.716, 122.383 222.977, 121.628 222.688 C 119.796 221.985, 118.970 229.998, 119.845 239.990 C 120.348 245.738, 120.874 247.551, 122.110 247.786 C 123.108 247.976, 124.124 247.030, 124.785 245.296 C 126.593 240.551, 127.947 224.269, 127.952 207.189 C 127.955 198.218, 128.206 190.475, 128.511 189.983 C 128.815 189.490, 129.725 189.341, 130.532 189.651 C 131.440 189.999, 132 189.613, 132 188.638 C 132 187.649, 131.442 187.277, 130.500 187.638 C 129.270 188.111, 129 187.138, 129 182.229 C 129 178.440, 129.493 175.836, 130.343 175.130 C 132.015 173.742, 148.666 169.989, 155.818 169.387 C 160.576 168.987, 161.539 169.259, 164.959 171.968 C 167.062 173.633, 169.072 176.234, 169.425 177.748 C 170.855 183.860, 173.390 191.580, 174.397 192.883 C 175.260 193.999, 175.594 193.807, 176.133 191.883 C 176.721 189.784, 176.813 189.888, 176.900 192.750 C 176.973 195.112, 176.560 196, 175.391 196 C 174.087 196, 173.899 196.713, 174.403 199.750 C 174.745 201.813, 175.452 209.800, 175.975 217.500 C 176.995 232.530, 177.657 236.729, 179.337 238.847 C 180.183 239.913, 179.899 240.122, 177.978 239.847 C 176.396 239.621, 175.442 240.035, 175.243 241.035 C 174.849 243.004, 182.346 245.254, 183.952 243.648 C 185.428 242.172, 185.199 229.314, 183.488 217.500 C 182.691 212, 182.030 204.287, 182.019 200.360 C 181.994 191.169, 179.595 178.595, 176.555 171.720 C 174.683 167.487, 173.438 166.035, 170.831 165.048 C 168.999 164.354, 166.128 163.105, 164.451 162.274 C 160.852 160.489, 150.263 160.929, 140 163.289 C 136.425 164.111, 133.120 164.554, 132.656 164.274 C 132.192 163.995, 132.033 162.609, 132.303 161.196 C 132.573 159.783, 132.567 158.036, 132.290 157.313 C 131.693 155.758, 128.390 155.560, 127.485 157.024 M 199.026 168.963 C 197.246 171.463, 196.942 173.220, 197.081 180.213 C 197.171 184.771, 197.162 190.031, 197.060 191.902 C 196.958 193.774, 197.286 195.574, 197.788 195.902 C 199.298 196.891, 201.133 200.975, 200.516 201.973 C 199.528 203.572, 201.848 227.449, 203.030 227.843 C 203.634 228.045, 204.539 229.288, 205.040 230.605 C 205.866 232.778, 206.532 233.001, 212.225 233.015 C 215.676 233.023, 221.350 233.701, 224.833 234.523 C 228.316 235.344, 231.555 235.775, 232.031 235.481 C 233.943 234.299, 252.959 234.721, 254.474 235.979 C 255.693 236.990, 256.302 236.994, 257.500 236 C 259.609 234.250, 259.400 233.022, 256.112 227.838 C 254.524 225.334, 252.501 220.795, 251.616 217.751 C 250.047 212.354, 247.650 209.950, 245.740 211.860 C 245.173 212.427, 245.267 213.631, 245.984 214.971 C 246.644 216.203, 246.811 217.886, 246.368 218.828 C 245.935 219.748, 245.563 221.850, 245.541 223.500 L 245.500 226.500 237.538 226.796 C 232.320 226.990, 227.948 226.559, 224.850 225.546 C 222.251 224.696, 218.126 224, 215.685 224 C 213.111 224, 210.759 223.415, 210.090 222.608 C 208.606 220.820, 206.896 201.403, 207.973 198.571 C 209.569 194.374, 212.357 193.465, 226 192.691 C 234.094 192.231, 240.923 190.364, 241.675 188.404 C 241.990 187.585, 242.014 186.681, 241.729 186.396 C 241.444 186.111, 233.401 185.792, 223.855 185.689 L 206.500 185.500 206.206 177.050 C 205.812 165.699, 203.336 162.911, 199.026 168.963 M 61.813 175.683 C 62.534 175.972, 63.397 175.936, 63.729 175.604 C 64.061 175.272, 63.471 175.036, 62.417 175.079 C 61.252 175.127, 61.015 175.364, 61.813 175.683 M 135.335 187.570 C 135.006 188.427, 135.237 190.224, 135.847 191.564 C 137.079 194.267, 135.801 194.092, 156.379 194.363 C 170.138 194.544, 173.629 193.668, 171.132 190.659 C 169.020 188.114, 164.268 187.213, 149.716 186.596 C 137.804 186.091, 135.851 186.223, 135.335 187.570 M 59.667 193.667 C 58.542 194.791, 58.927 199.527, 60.250 200.854 C 60.938 201.543, 61.500 203.546, 61.500 205.304 C 61.500 208.098, 61.835 208.500, 64.161 208.500 C 67.662 208.500, 68.767 209.717, 66.669 211.260 C 65.132 212.392, 65.287 212.925, 68.448 217.363 C 76.551 228.743, 86.837 237, 92.908 237 C 96.937 237, 95.866 234.893, 88.032 227.408 C 83.613 223.187, 79.013 218.105, 77.810 216.116 C 76.607 214.127, 73.683 209.947, 71.311 206.826 C 68.940 203.705, 67 200.808, 67 200.388 C 67 199.968, 65.987 198.136, 64.750 196.319 C 62.561 193.103, 61.029 192.304, 59.667 193.667 M 166.500 200 C 166.160 200.550, 164.221 201.020, 162.191 201.044 C 160.161 201.068, 156.700 201.764, 154.500 202.590 C 152.300 203.416, 146.924 204.314, 142.554 204.586 C 138.183 204.858, 134.021 205.568, 133.304 206.163 C 131.760 207.444, 131.552 212.684, 133.025 213.175 C 133.588 213.363, 137.301 213.181, 141.275 212.772 C 145.249 212.362, 149.397 212.002, 150.492 211.970 C 151.588 211.938, 153.388 211.346, 154.492 210.654 C 155.597 209.962, 158.419 208.783, 160.764 208.033 C 163.110 207.284, 165.527 206.070, 166.137 205.335 C 166.746 204.601, 167.827 204, 168.539 204 C 170.034 204, 170.914 202.067, 170.246 200.250 C 169.695 198.753, 167.367 198.598, 166.500 200 M 226 231 C 226 231.550, 226.702 232, 227.559 232 C 228.416 232, 228.840 231.550, 228.500 231 C 228.160 230.450, 227.459 230, 226.941 230 C 226.423 230, 226 230.450, 226 231" stroke="none" fill="black" fill-rule="evenodd"/>
</svg>