<svg xmlns="http://www.w3.org/2000/svg" width="300" height="300" viewBox="0 0 300 300" version="1.1">
	<path d="M 135.607 15.582 C 134.609 18.183, 134.878 18.874, 137.577 20.643 C 140.114 22.305, 147.442 23.128, 162 23.385 C 167.872 23.489, 168.500 23.307, 168.500 21.500 C 168.500 19.863, 167.410 19.270, 162.500 18.231 C 159.200 17.533, 154.415 16.296, 151.866 15.481 C 145.485 13.442, 136.407 13.498, 135.607 15.582 M 219.872 32.649 C 219.090 33.589, 218.218 37.998, 217.844 42.899 C 217.483 47.630, 216.700 57.220, 216.104 64.212 C 214.938 77.892, 215.563 82, 218.809 82 C 220.465 82, 220.803 80.553, 221.906 68.750 C 222.587 61.462, 223.122 54.168, 223.096 52.539 C 223.069 50.911, 223.879 48.661, 224.896 47.539 C 226.861 45.372, 227.859 42.138, 228.689 35.250 L 229.201 31 225.223 31 C 222.748 31, 220.726 31.623, 219.872 32.649 M 239.574 43.550 C 231.751 45.252, 229.451 46.382, 227.382 49.540 C 225.916 51.778, 225.870 52.307, 227.079 53.085 C 228.090 53.735, 229.159 53.250, 230.783 51.405 C 232.991 48.897, 236 48.691, 236 51.048 C 236 52.307, 241.123 51.563, 244.740 49.778 C 246.421 48.949, 247.983 49.004, 251.008 50.003 C 254.692 51.219, 255.158 51.168, 256.457 49.416 C 258.261 46.983, 256.805 45.270, 251.304 43.355 C 246.968 41.845, 247.445 41.837, 239.574 43.550 M 176.714 45.620 C 176.373 45.961, 173.768 46.403, 170.925 46.602 C 168.082 46.801, 162.549 47.829, 158.628 48.886 C 154.708 49.944, 148.800 51.074, 145.500 51.398 C 142.200 51.722, 137.700 52.645, 135.500 53.449 C 133.300 54.254, 130.070 54.932, 128.321 54.956 C 126.573 54.980, 124.468 55.675, 123.643 56.500 C 122.814 57.329, 120.369 58, 118.178 58 C 113.499 58, 112.155 60.062, 114.500 63.641 C 116.126 66.121, 118.920 66.648, 121.924 65.041 C 122.909 64.513, 125.467 63.987, 127.608 63.870 C 129.749 63.754, 132.082 63.215, 132.792 62.672 C 133.649 62.018, 134.436 62.036, 135.124 62.724 C 136.673 64.273, 133.984 68, 131.318 68 C 130.108 68, 128.880 68.385, 128.589 68.856 C 127.516 70.592, 133.391 102.562, 135.179 104.716 C 137.015 106.928, 133.672 109, 128.269 109 C 119.825 109, 113.259 114.480, 117.494 117.995 C 119.249 119.451, 133.888 117.309, 145.197 113.941 C 148.889 112.842, 153.617 111.892, 155.704 111.829 C 157.792 111.767, 161.075 111.163, 163 110.488 C 164.925 109.812, 170.325 108.249, 175 107.013 C 180.922 105.449, 184.209 103.996, 185.840 102.224 C 187.823 100.067, 187.950 99.552, 186.675 98.838 C 184.820 97.800, 171.189 99.605, 166.689 101.485 C 161.659 103.587, 160.494 102.256, 162.414 96.603 C 163.286 94.033, 164.003 91.383, 164.006 90.715 C 164.010 90.047, 164.668 88.243, 165.469 86.708 C 166.270 85.172, 167.234 82.247, 167.611 80.208 C 167.988 78.168, 169.355 74.933, 170.648 73.018 C 173.217 69.214, 173.716 65.475, 171.750 64.758 C 169.232 63.839, 162.936 65.251, 162.034 66.937 C 161.530 67.878, 161.172 70.190, 161.238 72.074 C 161.303 73.958, 160.574 78.200, 159.616 81.500 C 158.658 84.800, 157.614 90.987, 157.295 95.250 L 156.714 103 153.041 103.989 C 151.020 104.533, 147.147 105.096, 144.434 105.239 L 139.500 105.500 139.761 94.010 C 139.998 83.583, 139.823 82.252, 137.867 79.606 C 136.193 77.342, 135.952 76.307, 136.787 74.969 C 137.379 74.021, 138.211 71.503, 138.636 69.373 C 139.062 67.243, 139.486 65.162, 139.580 64.750 C 139.673 64.338, 139.806 63.376, 139.875 62.614 C 139.961 61.660, 143.558 60.565, 151.410 59.102 C 157.685 57.932, 164.097 56.309, 165.660 55.494 C 167.222 54.679, 169.331 54.010, 170.346 54.006 C 174.521 53.992, 183 50.832, 183 49.289 C 183 46.661, 178.373 43.960, 176.714 45.620 M 147.500 57 C 147.160 57.550, 147.584 58, 148.441 58 C 149.298 58, 150 57.550, 150 57 C 150 56.450, 149.577 56, 149.059 56 C 148.541 56, 147.840 56.450, 147.500 57 M 234.815 76.969 C 226.131 79.699, 219 84.816, 219 88.319 C 219 89.852, 228.260 88.339, 235.500 85.624 C 239.350 84.180, 243.063 83.210, 243.750 83.468 C 245.442 84.103, 245.332 90.183, 243.565 93.669 C 241.355 98.028, 238 109.695, 238 113.021 C 238 115.507, 237.599 116, 235.576 116 C 232.014 116, 215.092 119.940, 210.790 121.771 C 206.292 123.685, 205.864 124.627, 207.165 129.752 C 207.862 132.496, 207.822 137.909, 207.038 147.120 C 206.412 154.479, 205.755 162.975, 205.580 166 C 204.727 180.669, 203.663 191.596, 202.999 192.500 C 202.384 193.336, 200.671 214.902, 200.695 221.500 C 200.717 227.728, 202.400 245, 202.984 245 C 203.363 245, 204.870 247.366, 206.333 250.257 C 209.581 256.677, 211.150 257.706, 221.417 260.159 C 228.613 261.877, 230.476 261.959, 238.497 260.911 C 243.449 260.264, 248.625 259.682, 250 259.617 C 251.375 259.553, 255.636 258.600, 259.468 257.500 C 264.845 255.957, 267.326 254.589, 270.334 251.510 C 272.478 249.315, 274.630 246.473, 275.116 245.195 C 276.787 240.800, 275.979 233.279, 273.508 230.226 C 272.663 229.183, 270 231.636, 270 233.458 C 270 236.515, 268.011 242, 266.902 242 C 266.406 242, 265.992 242.563, 265.983 243.250 C 265.953 245.418, 261.329 249, 258.559 249 C 257.097 249, 254.686 249.626, 253.200 250.392 C 250.508 251.779, 233.197 253.713, 227.500 253.263 C 219.360 252.620, 218.245 252.057, 214.956 246.931 C 211.711 241.874, 209.299 240.917, 209.738 244.860 C 209.869 246.037, 209.532 247, 208.988 247 C 208.445 247, 208 245.266, 208 243.147 C 208 241.027, 207.719 236.603, 207.375 233.314 C 206.765 227.482, 206.833 227.257, 210.125 224.167 C 213.302 221.185, 213.519 221.122, 213.832 223.095 C 214.123 224.933, 214.617 225.109, 217.832 224.519 C 223.168 223.539, 231.195 220.880, 233.473 219.337 C 234.557 218.601, 236.190 218, 237.100 218 C 238.010 218, 239.354 217.278, 240.086 216.396 C 240.819 215.514, 242.449 214.400, 243.709 213.921 C 246.265 212.949, 246.852 209.264, 244.590 208.396 C 243.815 208.099, 241.887 208.524, 240.306 209.342 C 238.725 210.160, 235.646 211.151, 233.465 211.545 C 231.284 211.939, 229.050 212.611, 228.500 213.038 C 227.124 214.108, 216.465 216, 211.816 216 L 208 216 208.011 211.750 C 208.030 204.378, 209.164 199.937, 211.392 198.504 C 213.672 197.037, 227.022 194.063, 233.500 193.579 C 240.422 193.062, 246.250 190.532, 245.805 188.239 C 245.506 186.700, 244.261 186.528, 234.983 186.744 C 229.218 186.878, 221.800 187.438, 218.500 187.988 C 215.200 188.538, 212.096 188.991, 211.602 188.994 C 210.363 189.002, 211.793 169.954, 213.156 168.312 C 213.755 167.591, 214.977 166.997, 215.872 166.994 C 216.768 166.990, 218.789 166.315, 220.364 165.494 C 221.940 164.672, 224.037 164, 225.025 164 C 226.014 164, 229.225 163.154, 232.161 162.121 C 238.780 159.791, 246.270 158, 249.392 158 C 252.016 158, 254.516 155.644, 253.550 154.081 C 252.054 151.661, 245.922 151.132, 237.203 152.672 C 232.416 153.517, 227.703 154.622, 226.728 155.127 C 225.754 155.631, 222.829 156.320, 220.228 156.657 C 217.628 156.994, 214.757 157.913, 213.849 158.700 C 211.639 160.615, 210.705 158.905, 212.042 155.389 C 212.623 153.861, 213.514 149.333, 214.022 145.327 C 214.530 141.320, 215.678 135.803, 216.573 133.065 C 218.290 127.816, 219.257 127.172, 228 125.456 C 229.925 125.078, 231.950 124.428, 232.500 124.010 C 233.050 123.593, 234.850 123.002, 236.500 122.698 C 245.529 121.034, 249 119.774, 249 118.160 C 249 117.236, 248.082 115.908, 246.961 115.208 C 245.272 114.153, 245.039 113.311, 245.602 110.310 C 245.976 108.317, 246.890 105.519, 247.635 104.093 C 248.379 102.667, 248.993 100.825, 249 100 C 249.007 99.175, 249.751 97.150, 250.655 95.500 C 253.014 91.192, 254.013 83.199, 252.749 78.750 L 251.683 75 246.092 75.091 C 243.016 75.141, 237.942 75.986, 234.815 76.969 M 56.500 85.233 C 53.750 85.721, 51.073 86.543, 50.550 87.060 C 50.028 87.577, 48.453 88.007, 47.050 88.015 C 45.648 88.023, 43.375 88.679, 42 89.472 C 40.625 90.265, 38.487 91.372, 37.250 91.932 C 34.422 93.212, 34.190 98.190, 36.834 100.834 C 38.613 102.613, 38.606 102.696, 36.584 103.584 C 34.608 104.453, 34.474 105.455, 34 123 C 33.725 133.175, 33.193 141.971, 32.817 142.546 C 32.441 143.122, 31.624 153.670, 31.001 165.986 C 30.378 178.302, 29.434 189.189, 28.904 190.180 C 28.373 191.171, 27.660 200.650, 27.319 211.244 C 26.759 228.659, 26.864 230.642, 28.410 231.925 C 29.665 232.967, 30.832 233.094, 32.800 232.401 C 36.112 231.237, 37.074 228, 34.108 228 C 32.209 228, 32.096 227.506, 32.459 220.750 C 33.058 209.561, 34.090 199.804, 35.023 196.500 C 35.489 194.850, 36.126 187.200, 36.440 179.500 C 36.753 171.800, 37.504 161.450, 38.110 156.500 C 39.797 142.700, 39.869 141.659, 40.397 123.639 C 40.768 110.969, 41.248 106.370, 42.327 105.139 C 43.117 104.237, 44.097 102.375, 44.504 101 C 45.566 97.416, 46.942 96.001, 49.372 95.994 C 50.543 95.990, 52.819 95.300, 54.430 94.460 C 56.042 93.619, 59.893 92.667, 62.987 92.344 L 68.615 91.755 72.747 96.450 C 77.342 101.670, 77.965 103.763, 76.555 109.241 C 75.838 112.026, 75.962 113.942, 77.041 116.741 C 78.165 119.658, 78.442 125.073, 78.274 140.923 C 78.062 161.042, 77.551 164.077, 74.680 162.302 C 70.934 159.987, 66.002 160.189, 53.696 163.164 L 40.893 166.258 41.196 169.278 C 41.632 173.612, 43.955 174.724, 48.283 172.670 C 50.218 171.752, 53.215 171, 54.941 171 C 56.667 171, 59.812 170.116, 61.929 169.036 C 65.645 167.141, 76.480 166.312, 77.392 167.853 C 77.603 168.209, 77.938 179.750, 78.138 193.500 L 78.500 218.500 70 219.295 C 54.915 220.705, 55.536 220.752, 55.172 218.189 C 54.672 214.657, 52.583 214.571, 49.210 217.944 C 47.529 219.625, 45.235 221, 44.112 221 C 41.586 221, 39.636 224.412, 40.406 227.483 C 41.187 230.595, 43.040 231.104, 47.631 229.467 C 49.759 228.708, 54.875 228.061, 59 228.029 C 63.125 227.997, 68.525 227.259, 71 226.389 C 73.824 225.397, 77.191 225.003, 80.038 225.332 C 84.083 225.799, 84.998 225.501, 88.459 222.595 C 93.234 218.587, 92.870 216, 87.532 216 L 84 216 84.494 188.750 C 85.234 147.847, 85.582 138.085, 86.325 137.342 C 87.613 136.053, 86.992 133, 85.441 133 C 84.511 133, 84.172 132.531, 84.600 131.838 C 85.844 129.825, 86.190 116.621, 85.189 109.394 C 83.816 99.486, 78.542 88.582, 74.070 86.405 C 70.027 84.437, 63.460 83.999, 56.500 85.233 M 78.500 109 C 78.840 109.550, 79.316 110, 79.559 110 C 79.802 110, 80 109.550, 80 109 C 80 108.450, 79.523 108, 78.941 108 C 78.359 108, 78.160 108.450, 78.500 109 M 147 110.500 C 147 111.325, 147.620 112, 148.378 112 C 149.135 112, 150.315 111.325, 151 110.500 C 152.053 109.232, 151.840 109, 149.622 109 C 147.958 109, 147 109.548, 147 110.500 M 143.813 111.683 C 144.534 111.972, 145.397 111.936, 145.729 111.604 C 146.061 111.272, 145.471 111.036, 144.417 111.079 C 143.252 111.127, 143.015 111.364, 143.813 111.683 M 135.250 112.689 C 136.213 112.941, 137.787 112.941, 138.750 112.689 C 139.713 112.438, 138.925 112.232, 137 112.232 C 135.075 112.232, 134.287 112.438, 135.250 112.689 M 81.195 116.500 C 81.215 118.150, 81.439 118.704, 81.693 117.731 C 81.947 116.758, 81.930 115.408, 81.656 114.731 C 81.382 114.054, 81.175 114.850, 81.195 116.500 M 82.079 121.583 C 82.127 122.748, 82.364 122.985, 82.683 122.188 C 82.972 121.466, 82.936 120.603, 82.604 120.271 C 82.272 119.939, 82.036 120.529, 82.079 121.583 M 130.691 124.389 C 129.483 125.692, 127.596 126.934, 126.497 127.150 C 124.668 127.509, 124.530 128.193, 124.859 135.271 C 125.108 140.636, 124.867 143, 124.069 143 C 123.372 143, 122.996 144.477, 123.115 146.750 C 123.341 151.068, 122.128 159.030, 121.020 160.500 C 120.605 161.050, 119.962 163.975, 119.590 167 C 119.218 170.025, 117.612 178.350, 116.022 185.500 C 112.359 201.971, 109.987 222.980, 109.994 238.884 C 110.001 253.267, 111.262 259, 114.421 259 C 116.454 259, 116.530 258.522, 116.672 244.750 C 116.858 226.630, 117.650 218.542, 120.592 204.728 C 121.385 201.004, 122.439 195.379, 122.935 192.228 C 125.829 173.831, 127.068 166.951, 127.862 164.853 C 128.352 163.559, 129.079 159.241, 129.477 155.257 C 130.312 146.913, 132.634 143, 136.752 143 C 139.740 143, 146.202 140.920, 147.115 139.665 C 148.161 138.227, 159.896 151.238, 161.643 155.772 C 163.427 160.403, 162.700 162.678, 160.429 159.571 C 158.391 156.784, 157.689 158.219, 158.922 162.656 C 159.509 164.770, 159.991 167.682, 159.994 169.128 C 159.997 170.573, 160.670 172.312, 161.490 172.992 C 162.723 174.015, 163.133 173.821, 163.865 171.864 C 164.695 169.645, 164.827 169.756, 166.009 173.667 C 166.905 176.634, 167.687 177.673, 168.726 177.275 C 170.278 176.679, 170.127 174.022, 168.117 166.500 C 167.529 164.300, 167.037 160.824, 167.024 158.776 C 167.002 155.347, 163.342 146.642, 158.422 138.318 C 156.262 134.664, 153.540 133.855, 142 133.439 C 137.875 133.291, 134.111 133.131, 133.635 133.085 C 133.159 133.038, 133.497 131.891, 134.385 130.535 C 138.036 124.964, 134.936 119.807, 130.691 124.389 M 133.694 138.639 C 132.761 139.573, 133.888 141, 135.559 141 C 136.352 141, 137 140.325, 137 139.500 C 137 137.994, 134.889 137.444, 133.694 138.639 M 134.250 172.341 C 130.924 173.157, 130 173.842, 130 175.492 C 130 179.005, 131.669 179.871, 136.211 178.718 C 139.066 177.994, 142.090 178.020, 146.387 178.808 C 149.749 179.424, 154.394 180.205, 156.708 180.545 C 161.415 181.235, 161.716 181.751, 162.187 189.968 L 162.500 195.436 158.394 196.968 C 156.136 197.811, 153.661 199.007, 152.894 199.628 C 152.127 200.248, 150.375 201.101, 149 201.524 C 147.625 201.946, 144.850 203.333, 142.833 204.606 C 140.816 205.879, 137.891 207.230, 136.333 207.609 C 134.775 207.988, 132.612 208.906, 131.527 209.649 C 130.443 210.392, 128.803 211, 127.884 211 C 124.006 211, 124.721 216.563, 128.799 218.114 C 130.819 218.882, 132.447 218.515, 136.913 216.287 C 139.986 214.754, 142.650 213.162, 142.833 212.750 C 143.017 212.338, 143.734 212, 144.428 212 C 145.122 212, 146.505 211.100, 147.500 210 C 148.495 208.900, 149.803 207.990, 150.405 207.977 C 151.007 207.964, 153.237 206.389, 155.360 204.477 C 157.484 202.565, 159.621 201, 160.110 201 C 160.600 201, 161.295 200.887, 161.655 200.750 C 162.450 200.447, 162.117 226.095, 161.168 238.292 C 160.724 243.995, 160.006 247.378, 159.125 247.923 C 157.115 249.165, 159.408 255.345, 162.492 256.996 C 164.503 258.072, 165.211 258.070, 166.521 256.983 C 169.449 254.553, 169.968 252.493, 168.410 249.488 C 167.203 247.163, 167.102 244.965, 167.858 237.569 C 168.560 230.706, 168.546 203.751, 167.834 190.500 C 167.804 189.950, 168.113 187.579, 168.521 185.231 C 169.147 181.626, 169.024 181.054, 167.731 181.550 C 166.642 181.968, 165.878 181.159, 165.081 178.745 C 164.095 175.758, 163.616 175.403, 161.074 175.776 C 159.100 176.066, 156.978 175.378, 154.362 173.600 C 151.194 171.447, 149.500 171.026, 144.518 171.149 C 141.208 171.231, 136.588 171.768, 134.250 172.341 M 62.269 224.693 C 63.242 224.947, 64.592 224.930, 65.269 224.656 C 65.946 224.382, 65.150 224.175, 63.500 224.195 C 61.850 224.215, 61.296 224.439, 62.269 224.693 M 236.500 258 C 236.160 258.550, 236.610 259, 237.500 259 C 238.390 259, 238.840 258.550, 238.500 258 C 238.160 257.450, 237.710 257, 237.500 257 C 237.290 257, 236.840 257.450, 236.500 258" stroke="none" fill="black" fill-rule="evenodd"/>
</svg>