<svg xmlns="http://www.w3.org/2000/svg" width="300" height="300" viewBox="0 0 300 300" version="1.1">
	<path d="M 104 80.162 C 101.525 80.670, 97.475 81.541, 95 82.099 C 92.525 82.657, 88.250 83.557, 85.500 84.099 C 80.468 85.091, 52.679 91.410, 45.810 93.124 C 41.646 94.163, 40.446 96.414, 41.950 100.368 C 43.094 103.378, 45.393 103.719, 49.636 101.506 C 51.211 100.685, 53.711 100.010, 55.191 100.006 C 56.671 100.003, 58.160 99.550, 58.500 99 C 58.840 98.450, 60.049 98, 61.187 98 C 63.018 98, 63.186 98.431, 62.652 101.750 C 62.320 103.813, 61.172 107.215, 60.101 109.312 C 59.029 111.408, 57.663 114.333, 57.064 115.812 C 56.466 117.290, 54.880 120.300, 53.540 122.500 C 52.199 124.700, 50.616 127.625, 50.022 129 C 48.485 132.553, 48.231 133.041, 45.597 137.500 C 44.297 139.700, 40.870 146, 37.982 151.500 C 35.093 157, 32.341 161.650, 31.865 161.833 C 31.389 162.017, 31 162.570, 31 163.063 C 31 163.556, 29.202 166.331, 27.004 169.230 C 24.807 172.128, 23.007 175.203, 23.004 176.062 C 23.002 176.922, 20.926 180.415, 18.392 183.826 C 12.778 191.380, 11.414 196.054, 14.142 198.389 C 17.062 200.890, 18.684 200.332, 19.287 196.621 C 19.588 194.762, 22.146 189.554, 24.970 185.048 C 27.794 180.542, 30.482 175.875, 30.943 174.677 C 31.405 173.480, 33.332 170.250, 35.227 167.500 C 39.929 160.676, 44 153.234, 44 151.465 C 44 150.659, 44.337 149.997, 44.750 149.994 C 45.569 149.987, 47.912 146.261, 51.980 138.500 C 53.421 135.750, 55.599 131.925, 56.820 130 C 58.041 128.075, 60.217 124.025, 61.657 121 C 64.407 115.221, 69.182 107.818, 71.939 105.061 C 72.837 104.163, 74.846 101.757, 76.404 99.714 C 77.962 97.672, 79.863 96, 80.628 96 C 81.394 96, 82.790 95.100, 83.732 94 C 84.756 92.804, 86.682 92, 88.522 92 C 90.215 92, 92.028 91.585, 92.550 91.077 C 93.073 90.569, 96.425 89.622, 100 88.971 C 111.676 86.847, 116.650 83.411, 112.471 80.355 C 110.421 78.856, 110.380 78.855, 104 80.162 M 254 80.683 C 228.005 84.951, 220.055 86.385, 212.500 88.169 C 204.835 89.979, 203.018 90.816, 200.250 93.814 C 196.905 97.436, 196.244 99.415, 198.014 100.509 C 199.183 101.231, 209.996 99.190, 211.521 97.959 C 212.694 97.013, 228.291 93.631, 241.500 91.459 C 246.450 90.645, 251.666 89.739, 253.092 89.445 C 255.658 88.916, 255.697 89, 256.912 97.687 C 258.121 106.325, 259.366 109.510, 261.113 108.430 C 261.601 108.129, 262 108.584, 262 109.441 C 262 110.298, 261.550 111, 261 111 C 259.471 111, 259.710 126.698, 261.250 127.417 C 262.250 127.883, 262.250 128.117, 261.250 128.583 C 259.769 129.274, 259.551 134, 261 134 C 262.440 134, 262.219 137.056, 260.549 140.259 C 259.310 142.632, 259.304 143.484, 260.505 146.358 C 261.484 148.700, 261.586 150.014, 260.847 150.753 C 260.108 151.492, 260.128 153.370, 260.913 157.031 C 261.747 160.920, 261.742 162.606, 260.894 163.627 C 260.040 164.657, 260.050 165.356, 260.936 166.422 C 261.843 167.515, 261.843 169.311, 260.937 174.172 C 259.436 182.231, 259.103 188.945, 260.172 189.606 C 261.162 190.218, 260.123 198.087, 258.872 199.450 C 257.533 200.909, 257.836 202, 259.413 201.395 C 260.510 200.974, 260.968 202.375, 261.465 207.677 C 262.557 219.316, 262.553 219.490, 261.214 219.495 C 259.960 219.500, 258.046 221.747, 258.015 223.250 C 258.007 223.662, 258.900 224, 260 224 C 261.296 224, 262 224.667, 262 225.893 C 262 228.921, 264.793 229.246, 266.636 226.433 C 268.048 224.278, 268.163 222.299, 267.468 212.215 C 267.024 205.772, 266.789 196.225, 266.946 191 C 267.102 185.775, 267.221 175.200, 267.210 167.500 C 267.199 159.800, 267.213 147.650, 267.242 140.500 C 267.271 133.350, 267.232 124.800, 267.155 121.500 C 267.079 118.200, 267.005 113.250, 266.992 110.500 C 266.948 101.219, 264.694 81.506, 263.593 80.765 C 262.462 80.005, 258.346 79.969, 254 80.683 M 147.750 94.106 C 146.787 94.652, 146 95.763, 146 96.574 C 146 97.386, 144.888 98.472, 143.528 98.989 C 140.327 100.206, 139.601 103.344, 140.267 113.066 C 140.631 118.378, 140.432 121.226, 139.653 121.872 C 138.371 122.933, 122.742 127, 119.944 127 C 118.964 127, 116.763 127.787, 115.054 128.750 C 112.686 130.083, 112.011 131.096, 112.223 133 C 112.439 134.953, 113.156 135.577, 115.500 135.852 C 119 136.262, 131.692 134.263, 134.273 132.894 C 135.415 132.289, 136.757 132.335, 138.044 133.023 C 139.142 133.611, 140.482 133.820, 141.021 133.487 C 142.345 132.669, 142.282 138.318, 140.952 139.648 C 140.375 140.225, 139.716 143.851, 139.488 147.707 C 139.259 151.564, 138.386 156.739, 137.548 159.208 C 136.709 161.677, 136.030 165.453, 136.038 167.599 C 136.045 169.744, 135.671 178.475, 135.206 187 C 134.681 196.638, 134.725 203.587, 135.322 205.375 C 136.055 207.567, 135.892 208.913, 134.638 211.035 C 132.730 214.266, 133.135 215.805, 136.555 218.306 C 138.973 220.074, 139.133 220.053, 144.241 217.306 C 154.506 211.784, 177.409 186.020, 178.224 179.076 C 178.645 175.484, 176.288 175.458, 173.237 179.020 C 171.732 180.777, 166.349 186.329, 161.276 191.358 C 144.367 208.118, 141.740 210.028, 140.796 206.250 C 139.924 202.759, 141.968 172.301, 143.598 164.500 C 144.517 160.100, 145.376 154.700, 145.506 152.500 C 146.148 141.643, 147.370 133.284, 148.605 131.305 C 149.454 129.943, 152.160 128.464, 155.737 127.407 C 158.907 126.470, 164.200 124.676, 167.500 123.420 C 172.542 121.501, 173.552 120.712, 173.826 118.472 C 174.149 115.826, 174.113 115.810, 168.826 116.300 C 165.897 116.572, 161.700 117.245, 159.500 117.795 C 157.300 118.345, 154.049 119.120, 152.276 119.517 L 149.053 120.239 149.564 113.370 C 149.845 109.591, 150.584 104.118, 151.208 101.206 C 152.139 96.853, 152.088 95.663, 150.920 94.513 C 149.904 93.511, 149.002 93.396, 147.750 94.106 M 226.810 103.742 C 226.593 106.357, 225.973 107.583, 224.750 107.815 C 223.348 108.081, 223 107.436, 223 104.573 C 223 102.138, 222.544 101, 221.567 101 C 219.508 101, 219.165 103.015, 218.837 117 C 218.616 126.471, 218.843 129.439, 219.773 129.250 C 220.448 129.113, 221 129.675, 221 130.500 C 221 131.325, 220.608 132, 220.130 132 C 219.651 132, 218.725 134.137, 218.071 136.750 C 217.417 139.363, 216.445 143.174, 215.910 145.219 C 215.375 147.265, 215.239 151.878, 215.607 155.469 C 216.039 159.685, 215.914 162, 215.255 162 C 214.693 162, 213.914 160.988, 213.525 159.750 C 212.876 157.690, 212.733 157.796, 211.831 161 C 211.289 162.925, 210.492 166.750, 210.060 169.500 C 207.966 182.812, 203.728 195.987, 200.027 200.693 C 197.892 203.407, 197.307 207, 199 207 C 199.550 207, 200 206.425, 200 205.722 C 200 205.019, 200.900 203.674, 202 202.732 C 203.100 201.790, 204 201.258, 204 201.550 C 204 201.841, 203.100 203.844, 202 206 C 200.900 208.156, 200 210.565, 200 211.353 C 200 212.141, 199.325 213.045, 198.500 213.362 C 197.365 213.797, 196.985 213.155, 196.937 210.719 C 196.876 207.655, 196.827 207.615, 195.917 209.890 C 195.391 211.205, 194.360 213.680, 193.627 215.390 C 192.894 217.101, 191.277 220.975, 190.035 224 C 188.793 227.025, 187.152 230.978, 186.388 232.784 C 185.625 234.590, 185 236.486, 185 236.998 C 185 237.509, 183.088 239.720, 180.750 241.910 C 176.865 245.549, 176.636 246.029, 178.084 247.494 C 179.537 248.965, 179.930 248.948, 182.828 247.299 C 184.566 246.309, 185.990 245.208, 185.994 244.850 C 186.002 244.036, 192.409 234.067, 194.345 231.858 C 195.136 230.956, 197.240 226.006, 199.021 220.858 C 202.554 210.646, 204.234 206.837, 208.226 200 C 209.671 197.525, 211.280 193.250, 211.803 190.500 C 213.049 183.939, 214.536 177.866, 218.166 164.500 C 223.045 146.540, 225.917 133.065, 226.906 123.500 C 227.417 118.550, 228.461 112.025, 229.225 109 C 230.772 102.876, 230.536 100, 228.487 100 C 227.631 100, 227.005 101.397, 226.810 103.742 M 58.079 119.583 C 58.127 120.748, 58.364 120.985, 58.683 120.188 C 58.972 119.466, 58.936 118.603, 58.604 118.271 C 58.272 117.939, 58.036 118.529, 58.079 119.583 M 56.369 123.607 C 55.997 124.648, 55.509 125.838, 55.287 126.250 C 55.064 126.662, 55.328 127, 55.874 127 C 57.025 127, 58.456 123.122, 57.615 122.282 C 57.303 121.969, 56.742 122.566, 56.369 123.607 M 47.059 139.524 C 45.716 142.536, 43.991 145, 43.226 145 C 42.460 145, 41.995 145.484, 42.192 146.075 C 42.757 147.772, 44.332 147.442, 45.464 145.389 C 46.034 144.355, 47.319 142.268, 48.319 140.753 C 49.320 139.237, 49.995 137.108, 49.819 136.022 C 49.597 134.645, 48.762 135.703, 47.059 139.524 M 55.120 149.355 C 54.512 150.088, 53.913 153.008, 53.789 155.844 C 53.666 158.680, 53.213 161, 52.783 161 C 51.594 161, 51.847 166.788, 53.068 167.542 C 53.656 167.905, 53.944 168.719, 53.710 169.351 C 52.827 171.729, 54.828 183.155, 56.331 184.316 C 57.683 185.360, 58.435 189.509, 58.086 194 C 57.991 195.227, 57.813 195.253, 57.110 194.143 C 55.575 191.722, 54.778 194.796, 55.988 198.465 C 56.610 200.349, 57.279 203.828, 57.474 206.195 C 57.670 208.563, 58.145 212.579, 58.530 215.120 C 58.990 218.151, 58.847 219.976, 58.115 220.429 C 57.502 220.808, 57.007 222.104, 57.015 223.309 C 57.028 225.126, 57.210 225.244, 58.081 224 C 58.935 222.780, 59.034 222.873, 58.613 224.500 C 57.068 230.465, 56.878 232.041, 57.477 233.929 C 57.839 235.069, 59.062 236.498, 60.195 237.104 C 62.749 238.471, 63.962 236.936, 63.985 232.309 C 64.003 228.521, 65.893 226.877, 66.697 229.950 C 67.175 231.776, 67.733 231.999, 70.380 231.427 C 72.096 231.055, 74.694 229.907, 76.154 228.876 C 77.614 227.844, 79.223 227, 79.730 227 C 80.668 227, 92.257 218.436, 97.250 214.053 C 100.460 211.236, 100.998 207, 98.146 207 C 97.126 207, 95.010 208.188, 93.444 209.640 C 90.527 212.343, 81.545 216.973, 79.183 216.990 C 78.319 216.997, 78.084 216.311, 78.500 215 C 78.864 213.853, 78.680 213, 78.067 213 C 77.480 213, 77 213.450, 77 214 C 77 214.550, 76.404 215, 75.676 215 C 74.947 215, 72.585 216.792, 70.426 218.983 C 68.267 221.174, 65.938 222.974, 65.250 222.983 C 64.313 222.996, 63.995 219.682, 63.980 209.750 C 63.969 202.463, 63.552 193.575, 63.053 190 C 61.366 177.908, 61.347 170.801, 63 169.923 C 69.407 166.521, 72.334 165.805, 81.558 165.381 C 95.306 164.749, 95.253 164.684, 93.564 180.157 C 92.568 189.277, 91.824 192.408, 90.146 194.542 C 88.966 196.042, 88 198.129, 88 199.178 C 88 200.228, 85.412 203.525, 82.250 206.504 L 76.500 211.921 80.745 211.711 C 83.079 211.595, 84.992 211.162, 84.995 210.750 C 84.998 210.338, 85.787 209.205, 86.750 208.232 C 90.608 204.336, 94.902 198.238, 95.519 195.780 C 96.025 193.765, 95.759 193.073, 94.336 192.706 C 92.693 192.282, 92.712 192.220, 94.514 192.116 C 96.555 191.998, 99.444 186.852, 100.386 181.654 C 100.634 180.291, 101.342 178.230, 101.960 177.075 C 102.600 175.880, 102.958 171.642, 102.792 167.238 L 102.500 159.500 99.503 159.160 C 97.855 158.973, 96.222 158.360, 95.875 157.797 C 94.895 156.212, 76.407 156.591, 68.114 158.368 C 64.051 159.238, 60.381 159.735, 59.957 159.474 C 59.534 159.212, 58.878 156.749, 58.500 154 C 57.751 148.556, 56.832 147.293, 55.120 149.355 M 41.667 149.667 C 41.300 150.033, 41.014 151.046, 41.030 151.917 C 41.055 153.217, 41.251 153.174, 42.122 151.675 C 43.199 149.823, 42.887 148.447, 41.667 149.667 M 37.695 157.513 C 36.781 159.431, 36.365 161, 36.772 161 C 37.664 161, 40.399 155.066, 39.788 154.455 C 39.552 154.219, 38.610 155.594, 37.695 157.513 M 27 174.500 C 27 175.325, 27.177 176, 27.393 176 C 27.609 176, 28.045 175.325, 28.362 174.500 C 28.678 173.675, 28.501 173, 27.969 173 C 27.436 173, 27 173.675, 27 174.500 M 22.133 181.500 C 19.619 185.760, 20.784 186.136, 23.812 182.040 C 26.208 178.799, 26.463 178, 25.099 178 C 24.603 178, 23.268 179.575, 22.133 181.500 M 206.729 191.604 C 206.328 192.005, 206 193.023, 206 193.867 C 206 194.992, 206.296 195.104, 207.113 194.288 C 207.724 193.676, 208.053 192.657, 207.842 192.025 C 207.631 191.393, 207.130 191.203, 206.729 191.604 M 15 194.500 C 15 195.325, 15.177 196, 15.393 196 C 15.609 196, 16.045 195.325, 16.362 194.500 C 16.678 193.675, 16.501 193, 15.969 193 C 15.436 193, 15 193.675, 15 194.500 M 85 204.918 C 85 205.423, 84.691 206.661, 84.313 207.668 C 83.708 209.281, 83.828 209.336, 85.313 208.128 C 87.157 206.627, 87.595 204, 86 204 C 85.450 204, 85 204.413, 85 204.918 M 230 210.040 C 230 212.107, 232.845 218.099, 235.295 221.192 C 238.761 225.567, 252.686 228.109, 255.592 224.898 C 257.078 223.256, 256.910 222.995, 253.133 221.068 C 250.904 219.931, 247.824 218.998, 246.290 218.995 C 243.712 218.991, 239.879 216.329, 233.395 210.041 C 230.744 207.471, 230 207.470, 230 210.040 M 191.469 226.804 C 189.706 228.066, 187.795 232.703, 188.250 234.619 C 188.582 236.017, 189.270 235.259, 190.932 231.667 C 193.161 226.847, 193.312 225.487, 191.469 226.804" stroke="none" fill="black" fill-rule="evenodd"/>
</svg>