<svg xmlns="http://www.w3.org/2000/svg" width="300" height="300" viewBox="0 0 300 300" version="1.1">
	<path d="M 201.500 35.719 C 197.887 36.599, 196 39.126, 196 43.084 C 196 45.159, 195.325 47.532, 194.500 48.357 C 193.675 49.182, 193 50.357, 193 50.968 C 193 51.580, 192.100 53.844, 191 56 C 189.900 58.156, 189 61.011, 189 62.345 C 189 65.364, 183.194 74.572, 180.500 75.826 C 179.400 76.338, 176.250 77.201, 173.500 77.743 C 165.602 79.302, 155.785 82.005, 152.349 83.567 C 150.616 84.355, 148.672 85, 148.029 85 C 146.326 85, 137.959 90.944, 137.320 92.607 C 135.746 96.710, 143.695 98.701, 146.375 94.875 C 147.492 93.280, 148.492 92.907, 150.379 93.380 C 152.146 93.824, 153.166 93.526, 153.807 92.381 C 154.342 91.425, 155.916 90.781, 157.610 90.824 C 160.391 90.896, 167.968 88.273, 169 86.881 C 169.275 86.510, 173.207 85.901, 177.737 85.528 C 185.918 84.854, 185.982 84.867, 187.160 87.452 C 188.067 89.443, 188.070 90.330, 187.173 91.227 C 186.414 91.986, 186 96.385, 186 103.681 C 186 114.892, 185.984 114.966, 183.490 115.592 C 181.698 116.042, 180.052 115.530, 177.740 113.804 C 175.958 112.474, 172.025 109.890, 169 108.062 C 165.975 106.234, 163.275 104.414, 163 104.019 C 162.011 102.596, 158.081 101, 155.566 101 C 152.451 101, 152.126 103.712, 154.716 108.096 C 157.174 112.257, 174.758 121, 180.670 121 C 184.934 121, 185 121.052, 185 124.427 C 185 129.435, 182.450 131.224, 169.500 135.298 C 166.750 136.163, 162.940 137.182, 161.033 137.563 C 156.091 138.549, 154.146 140.026, 152.927 143.722 C 151.703 147.430, 152.421 149.280, 154.834 148.639 C 163.168 146.428, 166 145.449, 166 144.782 C 166 144.352, 167.012 143.990, 168.250 143.978 C 169.488 143.966, 172.462 143.066, 174.859 141.978 C 177.257 140.890, 180.258 140, 181.528 140 C 182.799 140, 185.112 139.361, 186.669 138.580 C 194.732 134.534, 207.105 131.453, 219.500 130.404 C 222.250 130.171, 225.400 129.872, 226.500 129.740 C 228.303 129.524, 228.470 130.001, 228.195 134.582 C 227.836 140.556, 229.796 143.347, 232.472 140.671 C 233.312 139.830, 234 138.767, 234 138.307 C 234 137.847, 234.825 135.902, 235.833 133.985 C 237.510 130.796, 239.919 121.768, 241.433 113 C 241.765 111.075, 243.459 105.225, 245.197 100 C 248.026 91.498, 248.365 89.216, 248.429 78.278 C 248.494 67.085, 248.320 65.876, 246.368 63.924 L 244.236 61.792 230.368 65.390 C 222.741 67.369, 214.039 69.666, 211.032 70.494 C 208.025 71.322, 204.200 72.020, 202.532 72.044 C 200.864 72.068, 197.807 72.692, 195.739 73.430 C 193.351 74.282, 191.755 74.413, 191.370 73.789 C 191.036 73.249, 193.016 68.238, 195.770 62.653 C 206.994 39.894, 208.212 37.151, 207.561 36.098 C 206.865 34.973, 205.033 34.859, 201.500 35.719 M 149.666 43.684 C 150.421 52.754, 152.096 56.469, 159.119 64.651 C 166.167 72.861, 168.744 75, 171.587 75 C 176.831 75, 175.836 72.318, 166.673 61.758 C 163.830 58.481, 156.960 45.083, 155.259 39.500 C 154.586 37.289, 153.645 36.417, 151.680 36.184 L 149.014 35.869 149.666 43.684 M 231.614 72.816 C 231.301 73.323, 229.135 74.043, 226.802 74.416 C 224.469 74.789, 222.275 75.555, 221.926 76.119 C 220.988 77.637, 214.099 79.278, 209.312 79.125 C 207.009 79.051, 204.845 79.442, 204.503 79.995 C 203.592 81.470, 198.855 81.251, 199.199 79.750 C 199.493 78.472, 198.866 78, 196.878 78 C 196.087 78, 196.113 78.431, 196.964 79.457 C 197.922 80.611, 197.844 81.385, 196.587 83.180 C 195.531 84.687, 195 87.631, 195 91.979 C 195 95.573, 194.603 99.898, 194.117 101.590 C 192.406 107.559, 191.716 117, 192.992 117 C 194.541 117, 197.923 112.925, 197.970 111 C 197.991 110.175, 198.906 108.027, 200.004 106.226 C 201.102 104.425, 202 101.863, 202 100.533 C 202 98.043, 205.634 91, 206.919 91 C 207.315 91, 209.152 89.650, 211 88 C 214.580 84.804, 214.958 84.663, 217.418 85.607 C 219.763 86.507, 219.538 93.183, 217.113 94.698 C 216.074 95.346, 213.911 97.817, 212.305 100.188 C 210.700 102.560, 207.724 106.858, 205.693 109.740 C 203.662 112.622, 202 115.189, 202 115.445 C 202 116.462, 196.894 123.357, 195.251 124.558 C 192.022 126.920, 194.842 127.247, 203.544 125.520 C 208.462 124.544, 215.700 123.903, 220.343 124.032 C 224.829 124.157, 229.020 124.201, 229.656 124.130 C 230.292 124.058, 231.119 121.638, 231.494 118.750 C 231.869 115.862, 233.285 110.372, 234.639 106.548 C 235.994 102.724, 237.795 94.399, 238.642 88.048 C 240.909 71.046, 241.127 72.546, 236.342 72.197 C 234.055 72.030, 231.927 72.309, 231.614 72.816 M 125.966 74.541 C 125.263 75.388, 123.691 78.232, 122.473 80.861 C 120.012 86.173, 120.024 94, 122.501 99.500 C 123.244 101.150, 124.525 104.975, 125.347 108 C 126.168 111.025, 127.726 116.650, 128.808 120.500 C 129.890 124.350, 131.568 131.100, 132.537 135.500 C 134.165 142.890, 137.240 149.981, 138.832 150.014 C 139.199 150.021, 140.570 150.314, 141.877 150.663 C 144.099 151.258, 144.221 151.078, 143.755 147.900 C 143.481 146.030, 142.556 141.575, 141.699 138 C 140.842 134.425, 139.157 126.573, 137.954 120.550 C 136.752 114.528, 135.436 108.903, 135.031 108.050 C 131.950 101.566, 131.003 98.646, 130.011 92.571 C 129.375 88.678, 129.176 82.873, 129.556 79.321 C 130.118 74.078, 129.978 73, 128.739 73 C 127.917 73, 126.669 73.693, 125.966 74.541 M 182.500 81 C 182.160 81.550, 182.835 82, 184 82 C 185.165 82, 185.840 81.550, 185.500 81 C 185.160 80.450, 184.485 80, 184 80 C 183.515 80, 182.840 80.450, 182.500 81 M 166 83 C 166 83.550, 165.213 84.036, 164.250 84.079 C 163.088 84.131, 163.373 84.478, 165.099 85.112 C 167.929 86.151, 173 84.812, 173 83.025 C 173 82.461, 171.425 82, 169.500 82 C 167.575 82, 166 82.450, 166 83 M 101.500 86.040 C 94.291 87.464, 88.837 89.033, 86 90.500 C 84.466 91.293, 81.475 92.388, 79.355 92.932 C 77.235 93.476, 72.575 94.872, 69 96.033 C 65.425 97.195, 60.138 98.788, 57.250 99.573 C 54.362 100.358, 49.638 101.670, 46.750 102.489 C 43.862 103.308, 40.150 104.141, 38.500 104.339 C 36.850 104.538, 38.125 104.768, 41.333 104.850 C 45.503 104.957, 47.049 105.356, 46.755 106.250 C 46.529 106.938, 45.366 107.644, 44.172 107.820 C 42.977 107.995, 42 108.605, 42 109.175 C 42 109.827, 43.572 109.972, 46.250 109.566 C 48.588 109.212, 52.706 108.667, 55.401 108.355 C 58.097 108.042, 61.673 106.953, 63.348 105.934 C 66.559 103.982, 69 104.738, 69 107.684 C 69 109.534, 64.168 119.778, 62.937 120.539 C 62.422 120.857, 62 122.161, 62 123.437 C 62 124.712, 61.342 126.301, 60.539 126.968 C 59.735 127.635, 58.783 129.152, 58.423 130.340 C 58.063 131.528, 56.760 133.850, 55.528 135.500 C 54.296 137.150, 52.940 139.625, 52.515 141 C 51.666 143.747, 48.560 149.569, 44.575 155.881 C 43.159 158.124, 42 160.589, 42 161.358 C 42 162.126, 41.379 163.270, 40.621 163.900 C 39.862 164.530, 38.966 166.422, 38.629 168.104 C 38.293 169.787, 35.988 175.180, 33.509 180.089 C 31.029 184.999, 29 189.687, 29 190.508 C 29 191.328, 28.597 192, 28.105 192 C 26.439 192, 14.992 214.715, 14.712 218.577 C 14.530 221.083, 14.891 221.545, 17.242 221.816 C 19.343 222.058, 20.192 221.591, 20.878 219.816 C 22.465 215.707, 23.988 212.587, 26.403 208.500 C 27.702 206.300, 30.467 201.125, 32.548 197 C 34.628 192.875, 37.863 187.154, 39.738 184.287 C 41.612 181.420, 43.971 176.920, 44.980 174.287 C 48.714 164.543, 49.447 163.043, 50.709 162.558 C 51.507 162.252, 52 162.852, 52 164.130 C 52 165.267, 52.602 167.616, 53.338 169.349 C 58.881 182.405, 63.194 199.369, 64.699 214.037 C 65.084 217.791, 65.734 218.964, 68.465 220.835 C 72.131 223.347, 75.549 223.066, 80 219.884 C 83.241 217.568, 90.746 213.383, 94.250 211.938 C 95.763 211.315, 97 210.459, 97 210.038 C 97 209.616, 99.475 206.654, 102.500 203.455 C 105.963 199.793, 108 196.767, 108 195.284 C 108 193.240, 107.737 193.070, 106 194 C 104.900 194.589, 104 195.486, 104 195.993 C 104 197.053, 95.904 202, 94.170 202 C 93.148 202, 98.476 190.300, 100.091 189 C 100.432 188.725, 101.042 186.703, 101.447 184.508 C 101.851 182.312, 102.470 180.062, 102.822 179.508 C 104.040 177.591, 106.885 165.487, 106.937 162 C 107.002 157.620, 105.292 151.299, 103.792 150.371 C 103.168 149.986, 98.937 149.757, 94.390 149.863 C 81.702 150.159, 74.701 153.873, 66.051 164.895 L 62.602 169.290 60.879 164.395 C 59.931 161.703, 59.120 158.635, 59.078 157.579 C 59.035 156.522, 58.267 154.848, 57.372 153.858 C 55.891 152.222, 55.884 151.763, 57.290 148.780 C 58.140 146.976, 59.618 143.475, 60.573 141 C 61.528 138.525, 62.915 135.790, 63.655 134.921 C 64.395 134.053, 65 133.063, 65 132.721 C 65 132.380, 66.293 130.165, 67.874 127.800 C 69.455 125.435, 71.065 122.474, 71.451 121.221 C 72.836 116.727, 85.606 99, 87.459 99 C 88.158 99, 89.931 98.056, 91.398 96.902 C 94.149 94.738, 102.226 91.335, 107.500 90.118 C 109.560 89.643, 110.600 88.733, 110.820 87.213 C 111.088 85.354, 110.688 85.020, 108.320 85.125 C 106.769 85.194, 103.700 85.606, 101.500 86.040 M 71.667 107.667 C 71.300 108.033, 71.014 109.046, 71.030 109.917 C 71.055 111.217, 71.251 111.174, 72.122 109.675 C 73.199 107.823, 72.887 106.447, 71.667 107.667 M 27.583 108.866 C 27.152 109.563, 27.070 110.403, 27.400 110.733 C 28.295 111.628, 29.271 110.312, 28.787 108.862 C 28.449 107.846, 28.213 107.846, 27.583 108.866 M 34 109.500 C 34.685 110.325, 35.626 111, 36.091 111 C 36.556 111, 36.678 110.325, 36.362 109.500 C 36.045 108.675, 35.104 108, 34.271 108 C 33.037 108, 32.987 108.279, 34 109.500 M 160.500 109 C 160.840 109.550, 161.316 110, 161.559 110 C 161.802 110, 162 109.550, 162 109 C 162 108.450, 161.523 108, 160.941 108 C 160.359 108, 160.160 108.450, 160.500 109 M 183.868 134.275 C 183.019 135.124, 181.464 136.028, 180.412 136.283 C 179.361 136.539, 180.018 136.599, 181.874 136.417 C 185.710 136.040, 186.374 135.621, 185.810 133.929 C 185.525 133.075, 184.969 133.174, 183.868 134.275 M 167.500 140 C 166.713 141.273, 169.030 141.273, 171 140 C 172.219 139.212, 172.090 139.028, 170.309 139.015 C 169.104 139.007, 167.840 139.450, 167.500 140 M 211.500 158.102 C 209.300 158.434, 206.233 159.222, 204.685 159.853 C 203.137 160.484, 199.901 161, 197.494 161 C 195.087 161, 192.884 161.378, 192.598 161.841 C 192.312 162.303, 189.023 163.460, 185.289 164.411 C 177.460 166.405, 169 169.940, 169 171.219 C 169 171.701, 167.822 173.187, 166.383 174.521 C 164.821 175.969, 164.002 177.562, 164.351 178.473 C 164.980 180.112, 168.987 180.549, 170.550 179.149 C 171.939 177.905, 184.749 173, 186.609 173 C 187.483 173, 189.616 172.368, 191.349 171.596 C 194.228 170.312, 207.684 167.622, 215.832 166.699 C 220.306 166.193, 221.432 168.232, 222.903 179.500 C 223.549 184.450, 224.294 189.900, 224.558 191.612 C 225.236 195.999, 223.339 197.246, 217.220 196.435 C 213.241 195.907, 210.300 196.380, 202.379 198.821 C 196.946 200.495, 190.497 202.140, 188.050 202.476 C 185.602 202.812, 183.064 203.532, 182.409 204.076 C 181.754 204.619, 179.503 205.283, 177.406 205.552 C 173.241 206.085, 171.748 207.542, 172.590 210.250 C 172.890 211.213, 172.654 212, 172.067 212 C 171.480 212, 171 211.325, 171 210.500 C 171 208.815, 168.454 208.457, 167.496 210.007 C 167.153 210.561, 167.577 211.284, 168.437 211.614 C 169.296 211.944, 170 213.011, 170 213.985 C 170 217.723, 172.511 218.258, 177.662 215.618 C 180.323 214.254, 186.100 212.150, 190.500 210.942 C 194.900 209.734, 199.963 208.128, 201.750 207.373 C 210.212 203.798, 211.888 203.377, 217.423 203.436 C 223.129 203.498, 223.377 203.610, 224.189 206.500 C 224.653 208.150, 225.311 216.250, 225.652 224.500 C 225.993 232.750, 226.715 240.063, 227.258 240.750 C 227.922 241.591, 227.838 242.491, 227 243.500 C 226.059 244.634, 223.517 245, 216.588 245 C 211.546 245, 204.829 245.675, 201.661 246.500 C 198.494 247.325, 194.790 248, 193.430 248 C 190.668 248, 178.402 251.268, 170 254.242 C 159.299 258.029, 160.006 258.408, 159.956 248.867 C 159.743 208.723, 159.212 191.707, 157.970 185.204 C 156.870 179.444, 156.832 177.498, 157.788 175.967 C 158.455 174.900, 159 173.530, 159 172.921 C 159 172.313, 159.856 170.727, 160.903 169.396 C 162.867 166.899, 162.723 163.845, 160.555 162.045 C 159.673 161.314, 158.663 161.730, 156.988 163.512 C 155.703 164.881, 153.621 166, 152.361 166 C 150.200 166, 147.452 169.119, 148.601 170.268 C 149.238 170.905, 149.625 181.684, 150.441 221.500 C 151.189 258.005, 152.049 262.964, 158.172 266.088 C 162.091 268.087, 162.107 268.087, 166.299 266.109 C 171.499 263.656, 185.803 258.674, 192.500 256.984 C 197.609 255.695, 199.484 255.350, 206.500 254.411 C 208.700 254.117, 211.400 253.517, 212.500 253.078 C 220.531 249.874, 226.248 248.674, 228.067 249.810 C 229.115 250.465, 231.104 251, 232.486 251 L 235 251 234.916 222.750 C 234.869 207.213, 234.461 192.025, 234.009 189 C 230.914 168.312, 229.060 161.436, 226.053 159.500 C 223.895 158.110, 216.288 157.379, 211.500 158.102 M 90 159 C 88.625 159.440, 85.813 159.845, 83.750 159.900 C 81.343 159.964, 80 160.477, 80 161.332 C 80 162.065, 78.313 164.203, 76.250 166.082 C 74.188 167.962, 71.517 171.338, 70.315 173.585 C 67.948 178.011, 67.916 176.654, 70.967 201.500 C 72.213 211.650, 72.553 213, 73.860 213 C 75.197 213, 85 204.007, 85 202.781 C 85 202.213, 86.371 199.049, 88.047 195.751 C 91.967 188.038, 93.880 182.726, 94.980 176.500 C 95.466 173.750, 96.415 169.673, 97.088 167.440 C 98.717 162.035, 97.691 157.967, 94.731 158.100 C 93.504 158.155, 91.375 158.560, 90 159 M 206.813 201.683 C 207.534 201.972, 208.397 201.936, 208.729 201.604 C 209.061 201.272, 208.471 201.036, 207.417 201.079 C 206.252 201.127, 206.015 201.364, 206.813 201.683 M 92.500 207 C 92.160 207.550, 92.359 208, 92.941 208 C 93.523 208, 94 207.550, 94 207 C 94 206.450, 93.802 206, 93.559 206 C 93.316 206, 92.840 206.450, 92.500 207 M 206.813 250.683 C 207.534 250.972, 208.397 250.936, 208.729 250.604 C 209.061 250.272, 208.471 250.036, 207.417 250.079 C 206.252 250.127, 206.015 250.364, 206.813 250.683 M 189.813 253.683 C 190.534 253.972, 191.397 253.936, 191.729 253.604 C 192.061 253.272, 191.471 253.036, 190.417 253.079 C 189.252 253.127, 189.015 253.364, 189.813 253.683" stroke="none" fill="black" fill-rule="evenodd"/>
</svg>