<svg xmlns="http://www.w3.org/2000/svg" width="300" height="300" viewBox="0 0 300 300" version="1.1">
	<path d="M 250.084 17.411 C 246.969 20.727, 247.667 23.418, 251.745 23.812 C 253.521 23.984, 255.542 24.906, 256.237 25.861 C 257.450 27.529, 263.988 30.960, 268.798 32.452 C 271.572 33.313, 273.974 31.597, 273.332 29.213 C 272.802 27.251, 264.097 21, 261.892 21 C 261.085 21, 258.866 19.668, 256.962 18.041 C 255.058 16.413, 253.241 15.063, 252.924 15.041 C 252.608 15.018, 251.329 16.085, 250.084 17.411 M 197.309 48.993 C 196.330 51.585, 195.799 51.911, 193.340 51.424 C 190.095 50.783, 187.391 52.838, 183.615 58.816 C 182.335 60.842, 178.681 64.750, 175.496 67.500 C 172.311 70.250, 168.984 73.231, 168.102 74.124 C 167.221 75.017, 164.250 77.653, 161.500 79.982 C 144.840 94.090, 143.436 95.387, 135.750 103.784 C 133.137 106.639, 131 109.430, 131 109.987 C 131 112.547, 134.289 110.290, 143.370 101.500 C 151.922 93.221, 156.749 90.145, 157.101 92.750 C 157.157 93.162, 157.364 95.300, 157.560 97.500 C 157.757 99.700, 158.618 106.282, 159.475 112.126 C 160.332 117.970, 160.779 123.413, 160.468 124.223 C 160.158 125.032, 157.788 126.739, 155.202 128.016 C 152.616 129.294, 150.275 130.624, 150 130.972 C 149.725 131.321, 147.715 132.932, 145.533 134.553 C 143.351 136.174, 140.857 138.175, 139.990 139 C 139.123 139.825, 137.195 141.394, 135.707 142.487 C 132.851 144.584, 132.210 146.570, 134.177 147.226 C 134.824 147.441, 135.023 148.154, 134.618 148.809 C 133.567 150.509, 132 150.281, 132 148.427 C 132 145.922, 128.543 147.216, 128.167 149.862 C 127.553 154.184, 128.843 157, 131.437 157 C 134.818 157, 137 156.009, 137 154.473 C 137 152.813, 146.692 144.054, 154.306 138.831 C 161.685 133.770, 163.039 134.483, 162.265 143.020 C 161.820 147.920, 162.012 149.067, 163.363 149.586 C 165.452 150.388, 165.500 154.871, 163.427 155.666 C 162.106 156.173, 161.964 157.434, 162.538 163.558 L 163.221 170.846 159.644 174.423 C 157.676 176.390, 155.377 178, 154.533 178 C 153.690 178, 153 178.450, 153 179 C 153 179.550, 152.438 180.021, 151.750 180.046 C 151.063 180.072, 149.600 181.245, 148.500 182.654 C 146.590 185.101, 143.863 187.760, 130.809 199.901 C 123.006 207.159, 116.980 220, 121.378 220 C 122.135 220, 123.315 220.675, 124 221.500 C 126.399 224.391, 128.842 223.285, 130.076 218.750 C 132.400 210.208, 134.222 206.421, 137.776 202.750 C 139.772 200.687, 141.990 199, 142.703 199 C 143.416 199, 144 198.529, 144 197.952 C 144 197.376, 145.238 195.777, 146.750 194.399 C 148.262 193.021, 151.408 190.117, 153.740 187.946 C 156.072 185.776, 158.908 184, 160.042 184 C 162.081 184, 162.101 184.305, 161.855 212.250 C 161.719 227.787, 161.808 241.175, 162.054 242 C 162.339 242.960, 161.870 243.450, 160.750 243.361 C 159.338 243.249, 159 244.037, 159 247.442 C 159 250.959, 158.568 251.893, 156.411 253.048 C 154.119 254.274, 153.712 254.236, 152.861 252.717 C 152.333 251.772, 151.365 251, 150.711 251 C 150.057 251, 148.392 249.906, 147.011 248.568 C 139.759 241.544, 136.851 239, 136.074 239 C 134.550 239, 134.139 241.654, 135.336 243.762 C 141.875 255.275, 144.187 257.290, 150.709 257.159 C 153.438 257.104, 155.789 257.646, 156.677 258.534 C 158.843 260.700, 160.553 260.331, 162.562 257.265 C 166.155 251.781, 167.863 236.415, 168.037 208 C 168.197 181.796, 168.479 180.324, 174.620 173.661 C 179.134 168.762, 188.511 162, 190.791 162 C 191.329 162, 194.061 160.537, 196.862 158.750 C 201.713 155.655, 203.409 152.636, 200.789 151.763 C 199.255 151.252, 176.852 162.269, 175.077 164.407 C 174.350 165.283, 173.190 166, 172.500 166 C 170.002 166, 169.224 163.545, 169.968 158 C 170.373 154.975, 170.430 148.545, 170.094 143.712 C 169.759 138.879, 169.787 134.104, 170.158 133.101 C 170.966 130.918, 182.192 123.233, 185.887 122.333 C 187.324 121.983, 190.381 120.415, 192.680 118.849 C 194.979 117.282, 197.287 116, 197.808 116 C 198.329 116, 199.245 115.409, 199.845 114.687 C 201.610 112.560, 213.903 106.749, 215.412 107.328 C 216.213 107.635, 217.015 109.892, 217.314 112.680 C 218.201 120.970, 219.887 128.312, 221.070 129.043 C 221.902 129.558, 221.913 130.293, 221.111 131.792 C 219.912 134.034, 220.342 150.508, 222.024 166.729 C 223.015 176.288, 223.014 176.292, 220.272 179.896 C 215.960 185.560, 195.516 205.630, 191.042 208.591 C 188.718 210.129, 187 212.059, 187 213.133 C 187 218.012, 193.447 213.153, 210.500 195.423 C 216.550 189.133, 222.122 183.989, 222.882 183.993 C 223.922 183.998, 224.127 185.016, 223.711 188.114 C 223.245 191.593, 223.456 192.307, 225.080 192.731 C 226.965 193.224, 227.562 195.578, 227.117 200.754 C 227.010 201.993, 227.667 205.143, 228.577 207.754 C 229.486 210.364, 230.190 214.025, 230.140 215.889 C 230.004 221.019, 232.954 229.231, 234.693 228.564 C 235.849 228.121, 235.998 228.831, 235.476 232.309 C 234.688 237.566, 237.476 245, 240.236 245 C 241.206 245, 242 245.675, 242 246.500 C 242 247.325, 241.581 248, 241.070 248 C 240.019 248, 241.098 252.446, 243.022 256.041 C 244.213 258.266, 244.319 258.285, 245.621 256.503 C 247.100 254.481, 247.221 254.521, 248.795 257.554 C 249.457 258.831, 249.514 260.155, 248.946 261.054 C 248.210 262.217, 248.028 262.118, 248.015 260.550 C 248.003 259.035, 247.733 258.867, 246.802 259.798 C 244.907 261.693, 252.468 275, 255.439 275 C 258.138 275, 259.914 269.354, 260.025 260.418 C 260.132 251.860, 261.418 237.526, 262.597 231.750 C 263.021 229.674, 262.772 229, 261.579 229 C 260.663 229, 260 229.845, 260 231.014 C 260 232.121, 259.573 233.809, 259.051 234.764 C 258.529 235.719, 257.067 239.995, 255.801 244.266 C 252.737 254.606, 251.509 254.434, 246.713 243 C 244.297 237.239, 242.969 232.947, 240.833 224 C 239.717 219.325, 238.223 213.475, 237.513 211 C 236.804 208.525, 235.927 203.696, 235.564 200.268 C 235.201 196.841, 234.001 191.441, 232.896 188.268 C 231.540 184.375, 230.978 180.550, 231.167 176.500 C 231.321 173.200, 231.116 169.972, 230.712 169.327 C 230.308 168.682, 229.542 161.032, 229.011 152.327 C 227.350 125.139, 226.066 110.649, 224.950 106.487 C 223.239 100.110, 226.550 95.492, 235.661 91.546 C 237.399 90.793, 242.187 86.711, 246.301 82.476 C 252.279 76.320, 253.907 73.982, 254.412 70.827 C 255.435 64.429, 252.759 62.752, 249.724 67.890 C 247.012 72.481, 234.838 84.062, 231 85.703 C 229.075 86.526, 226.702 87.909, 225.726 88.776 C 222.539 91.610, 221.501 88.897, 221.487 77.695 C 221.481 72.088, 221.141 66.977, 220.732 66.337 C 219.736 64.777, 213.777 65.158, 213.226 66.816 C 212.986 67.541, 213.735 68.379, 214.895 68.683 C 217.775 69.436, 217.554 71, 214.567 71 C 211.280 71, 210.658 73.552, 212.480 79.564 C 213.303 82.279, 214.263 87.258, 214.614 90.628 L 215.251 96.757 209.072 100.378 C 205.673 102.370, 202.223 104, 201.405 104 C 200.586 104, 198.950 104.900, 197.770 106 C 196.589 107.100, 194.990 108, 194.216 108 C 193.442 108, 191.413 108.994, 189.708 110.208 C 183.067 114.937, 170.990 120.233, 169.279 119.167 C 168.690 118.800, 167.985 116.025, 167.710 113 C 166.720 102.077, 163.265 89, 161.370 89 C 158.566 89, 160.267 86.702, 170.821 76.233 C 176.773 70.330, 182.929 63.813, 184.501 61.750 C 189.017 55.825, 190.956 57.744, 187.004 64.226 C 184.768 67.893, 184.535 69, 186 69 C 186.550 69, 187 68.614, 187 68.143 C 187 67.671, 189.137 65.081, 191.750 62.387 C 203.096 50.685, 205.660 46, 200.719 46 C 199.105 46, 198.109 46.874, 197.309 48.993 M 124 66.500 C 122.625 67.286, 119.806 67.945, 117.736 67.965 C 115.666 67.984, 113.191 68.429, 112.236 68.954 C 105.747 72.521, 94.103 76.966, 91.198 76.985 C 89.933 76.993, 84.334 78.800, 78.756 81 C 73.179 83.200, 67.819 85, 66.845 85 C 64.158 85, 54.337 88.889, 53.022 90.473 C 52.384 91.242, 50.604 92.148, 49.066 92.485 C 47.528 92.823, 45.288 94.015, 44.087 95.133 C 41.560 97.488, 36.922 99, 32.225 99 C 28.750 99, 26.880 101.280, 28.789 103.189 C 29.369 103.769, 29.633 104.792, 29.376 105.462 C 29.119 106.132, 29.634 107.281, 30.520 108.017 C 31.873 109.140, 32.561 109.102, 34.816 107.780 C 36.292 106.915, 39.750 105.530, 42.500 104.704 C 45.250 103.878, 52.720 100.707, 59.100 97.657 C 72.003 91.491, 75.472 90.337, 76.432 91.891 C 76.790 92.470, 76.348 94.066, 75.449 95.437 C 74.346 97.121, 73.713 100.695, 73.500 106.440 C 73.162 115.582, 72.109 117.921, 66.750 121.430 C 65.237 122.420, 64 123.853, 64 124.615 C 64 125.377, 62.988 127.009, 61.750 128.242 C 59.449 130.534, 55 136.692, 55 137.584 C 55 137.857, 53.313 139.767, 51.250 141.830 C 47.028 146.051, 44.182 149.544, 34.349 162.576 C 26.144 173.450, 22.577 177.887, 18.250 182.601 C 16.462 184.549, 14.993 187.123, 14.985 188.321 C 14.976 189.520, 14.568 191.134, 14.077 191.909 C 12.636 194.186, 13.994 196, 17.138 196 C 18.810 196, 20.308 196.640, 20.636 197.494 C 21.517 199.790, 22.874 198.341, 25.586 192.209 C 26.950 189.126, 29.288 185.005, 30.783 183.051 C 32.277 181.098, 34.433 177.764, 35.573 175.641 C 38.007 171.111, 43.599 164.460, 50.250 158.184 C 52.862 155.719, 55 153.332, 55 152.880 C 55 151.365, 61.371 143, 62.526 143 C 63.297 143, 63.710 146.317, 63.799 153.250 C 63.873 158.887, 64.375 171.375, 64.916 181 C 65.457 190.625, 65.891 198.950, 65.879 199.500 C 65.868 200.050, 65.629 204.030, 65.347 208.344 C 64.667 218.774, 67.204 225.010, 71.463 223.376 C 73.213 222.704, 73.217 219.618, 71.479 211.443 C 71.004 209.205, 71.286 208.008, 72.533 206.973 C 74.040 205.722, 74.483 205.868, 76.368 208.231 C 78.257 210.598, 78.899 210.808, 82 210.070 C 90.903 207.949, 105 198.904, 105 195.312 C 105 193.229, 102.938 192.746, 101.108 194.402 C 100.137 195.281, 99.015 196, 98.615 196 C 98.215 196, 95.167 197.350, 91.841 199 C 85.179 202.306, 82 202.790, 82 200.500 C 82 199.675, 82.581 199, 83.292 199 C 84.622 199, 93 190.984, 93 189.712 C 93 188.097, 90.023 189.202, 85.894 192.349 C 80.305 196.610, 75.673 199, 73.004 199 C 71.204 199, 70.980 198.543, 71.413 195.750 C 72.456 189.014, 73.048 181.238, 73.115 173.410 C 73.154 168.960, 73.481 164.867, 73.842 164.314 C 74.676 163.039, 79.835 161.626, 82.644 161.904 C 83.823 162.020, 86.466 161.414, 88.516 160.558 C 93.262 158.575, 100.362 158.526, 101.972 160.466 C 103.828 162.702, 101.545 182.312, 98.796 187.750 C 97.642 190.034, 97.510 191, 98.354 191 C 100.882 191, 103.615 187.990, 106.652 181.861 C 116.339 162.309, 112.366 148.999, 97.239 150.327 C 89.575 151, 75.167 153.499, 74.373 154.294 C 74.023 154.644, 72.896 154.480, 71.869 153.930 C 70.544 153.221, 70 151.816, 70 149.104 C 70 146.674, 69.089 143.937, 67.503 141.600 C 65.083 138.034, 65.059 137.836, 66.730 135.210 C 67.678 133.720, 68.689 132.275, 68.977 132 C 69.689 131.320, 72.456 126.441, 75.217 121 C 76.473 118.525, 77.725 116.275, 78 116 C 78.858 115.142, 81.771 108.663, 82.946 105 C 84.465 100.263, 88.713 94, 90.407 94 C 92.269 94, 93.068 91.591, 92.368 88.091 C 91.846 85.479, 92.097 85.138, 95.013 84.497 C 100.056 83.390, 112.231 78.125, 114.473 76.083 C 115.588 75.068, 118.075 73.961, 120 73.622 C 121.925 73.284, 125.205 72.719, 127.288 72.367 C 131.263 71.695, 133.416 69.249, 132.389 66.572 C 131.640 64.618, 127.357 64.581, 124 66.500 M 49 96 C 49 96.550, 47.650 97, 46 97 C 44.078 97, 43 97.509, 43 98.417 C 43 99.196, 42.438 100.060, 41.750 100.338 C 41.063 100.615, 41.513 100.878, 42.750 100.921 C 43.987 100.964, 45.827 100.213, 46.838 99.250 C 47.849 98.287, 49.536 96.964, 50.588 96.309 C 52.318 95.231, 52.333 95.112, 50.750 95.059 C 49.788 95.026, 49 95.450, 49 96 M 35.442 101.906 C 35.750 102.404, 36.902 102.577, 38.001 102.289 C 40.753 101.570, 40.505 101, 37.441 101 C 36.034 101, 35.134 101.408, 35.442 101.906 M 170.564 124.707 C 170.022 126.132, 170.136 126.247, 171.124 125.267 C 171.808 124.588, 172.115 123.781, 171.807 123.474 C 171.499 123.166, 170.940 123.721, 170.564 124.707 M 259.616 130.250 C 255.173 134.277, 253.358 136.709, 251.105 141.653 C 250.565 142.837, 249.646 144.101, 249.062 144.462 C 247.861 145.204, 247.597 149.020, 248.750 148.962 C 249.162 148.941, 250.733 147.141, 252.240 144.962 C 253.748 142.783, 255.435 141, 255.990 141 C 257.382 141, 257.259 144.613, 255.788 146.968 C 253.976 149.869, 255.778 150.766, 257.738 147.940 C 260.872 143.420, 268.416 135.836, 271.219 134.387 C 274.701 132.586, 274.744 130.731, 271.365 128.073 C 267.484 125.020, 264.847 125.509, 259.616 130.250 M 52.667 142.667 C 52.300 143.033, 52 144.158, 52 145.167 C 52 146.175, 51.401 147, 50.669 147 C 49.117 147, 46.350 151.683, 47.326 152.659 C 48.146 153.479, 52 150.105, 52 148.567 C 52 147.950, 52.900 146.674, 54 145.732 C 55.100 144.790, 56 143.565, 56 143.010 C 56 141.877, 53.693 141.640, 52.667 142.667 M 238.111 159.490 C 231.283 169.608, 231.900 170.861, 239.377 162.060 C 244.285 156.285, 244.866 155, 242.571 155 C 241.785 155, 239.778 157.021, 238.111 159.490 M 24 181.559 C 24 182.416, 24.450 182.840, 25 182.500 C 25.550 182.160, 26 181.459, 26 180.941 C 26 180.423, 25.550 180, 25 180 C 24.450 180, 24 180.702, 24 181.559 M 232 220 C 232 220.550, 232.477 221, 233.059 221 C 233.641 221, 233.840 220.550, 233.500 220 C 233.160 219.450, 232.684 219, 232.441 219 C 232.198 219, 232 219.450, 232 220" stroke="none" fill="black" fill-rule="evenodd"/>
</svg>