<svg xmlns="http://www.w3.org/2000/svg" width="300" height="300" viewBox="0 0 300 300" version="1.1">
	<path d="M 177.655 30.829 C 176.745 31.835, 176 33.819, 176 35.238 L 176 37.819 180 35.886 C 184.090 33.910, 184.452 33.343, 183.393 30.582 C 182.577 28.456, 179.690 28.581, 177.655 30.829 M 171.432 40.414 C 169.299 41.343, 167.498 43.464, 165.519 47.375 C 163.954 50.469, 162.297 53, 161.836 53 C 161.376 53, 161 53.447, 161 53.993 C 161 54.539, 157.400 58.619, 153 63.061 C 148.600 67.502, 145 71.595, 145 72.156 C 145 72.717, 141.512 76.659, 137.250 80.916 C 124.793 93.356, 118.010 101.111, 117.375 103.641 C 116.701 106.328, 115.499 106.476, 108.500 104.728 C 105.215 103.907, 100.412 103.696, 94.500 104.112 C 89.550 104.461, 83.025 104.532, 80 104.270 C 76.626 103.979, 70.247 104.607, 63.500 105.896 C 57.450 107.051, 49.945 107.998, 46.821 107.998 C 39.068 108.001, 36.270 110.900, 39.035 116.066 C 39.896 117.675, 41.168 118, 46.601 118 C 50.193 118, 53.995 117.538, 55.051 116.972 C 59.203 114.750, 80.726 111.488, 82.172 112.862 C 82.542 113.213, 83.143 115.129, 83.509 117.120 C 84.100 120.338, 83.914 120.809, 81.837 121.361 C 80.552 121.703, 77.925 124.227, 76 126.969 C 74.075 129.711, 72.162 131.965, 71.750 131.978 C 71.338 131.990, 71 132.675, 71 133.500 C 71 134.325, 70.527 135, 69.949 135 C 69.371 135, 68.236 136.585, 67.426 138.522 C 66.617 140.460, 64.390 143.776, 62.479 145.892 C 60.567 148.008, 58.081 151.823, 56.955 154.370 C 55.828 156.916, 54.560 159, 54.137 159 C 53.714 159, 52.321 160.912, 51.042 163.250 C 48.870 167.217, 41.403 177.881, 40.013 179 C 39.366 179.521, 36.781 184.319, 31.665 194.500 C 30.006 197.800, 28.389 200.725, 28.072 201 C 26.293 202.540, 21.870 210.103, 20.541 213.876 C 18.620 219.329, 18.600 221.423, 20.452 222.960 C 22.895 224.988, 25.863 223.222, 26.979 219.077 C 27.542 216.985, 29.127 213.618, 30.502 211.593 C 31.876 209.568, 33 207.560, 33 207.130 C 33 206.700, 34.125 205.292, 35.500 204 C 36.875 202.708, 38 200.890, 38 199.961 C 38 199.031, 38.802 197.197, 39.782 195.885 C 40.763 194.573, 42.440 191.813, 43.510 189.750 C 44.580 187.688, 45.802 186, 46.227 186 C 46.652 186, 47 185.589, 47 185.087 C 47 183.052, 53.668 174.177, 54.712 174.822 C 55.361 175.223, 56.053 180.444, 56.392 187.502 C 57.199 204.323, 57.534 208.410, 58.838 217.377 C 59.468 221.709, 59.711 226.954, 59.379 229.031 C 58.869 232.219, 59.111 232.989, 60.926 233.960 C 63.337 235.251, 71.658 234.421, 73.847 232.671 C 74.853 231.867, 75.441 232.036, 76.170 233.339 C 76.924 234.686, 78.327 235.048, 82.323 234.925 C 85.170 234.837, 91.488 235.009, 96.362 235.308 C 105.408 235.862, 108 235.531, 108 233.822 C 108 231.744, 104.963 229.999, 101.321 229.985 C 99.220 229.977, 94.575 229.263, 91 228.399 C 87.425 227.535, 80.624 226.794, 75.887 226.751 L 67.275 226.674 66.537 217.587 C 66.130 212.589, 65.788 207.375, 65.776 206 C 65.717 199.268, 63.751 180.609, 62.344 173.430 C 60.942 166.276, 60.931 165.027, 62.241 162.430 C 63.054 160.818, 64.002 158.318, 64.348 156.873 C 64.694 155.428, 66.103 153.507, 67.481 152.605 C 68.858 151.702, 71.127 148.835, 72.524 146.232 C 73.920 143.629, 76.846 139.250, 79.026 136.500 C 81.206 133.750, 82.992 130.938, 82.995 130.250 C 82.998 129.563, 83.432 129, 83.960 129 C 84.488 129, 85.459 127.200, 86.118 125 C 86.777 122.800, 87.942 121, 88.707 121 C 90.315 121, 94.051 113.297, 93.341 111.446 C 93.078 110.762, 93.297 109.934, 93.827 109.607 C 94.357 109.279, 95.053 109.696, 95.374 110.532 C 95.861 111.801, 97.879 111.992, 107.621 111.689 L 119.285 111.326 124.727 105.663 C 127.720 102.548, 130.356 100, 130.586 100 C 131.104 100, 138.787 92.117, 140.350 89.982 C 140.982 89.117, 143.152 87.167, 145.170 85.647 C 147.189 84.128, 150.740 79.969, 153.061 76.406 C 155.383 72.843, 157.781 70.095, 158.391 70.299 C 159.812 70.775, 160.010 79.679, 158.771 87.457 C 158.242 90.781, 157.736 102.050, 157.647 112.500 C 157.558 122.950, 156.861 143.425, 156.097 158 C 155.334 172.575, 154.720 185.400, 154.734 186.500 C 154.841 194.863, 157.126 215.194, 160.607 238.738 C 161.271 243.226, 164.278 244.722, 167.054 241.946 C 168.379 240.621, 168.905 239.228, 168.479 238.173 C 168.107 237.253, 167.589 234.700, 167.327 232.500 C 167.066 230.300, 166.207 225.759, 165.419 222.408 C 164.096 216.785, 163.018 200.485, 162.845 183.500 C 162.708 170.041, 164.951 130.680, 166.043 127.370 C 166.649 125.534, 166.902 123.237, 166.606 122.266 C 165.781 119.563, 165.445 95.222, 166.221 94.446 C 166.597 94.070, 167.633 94.490, 168.524 95.381 C 170.634 97.492, 174.459 97.444, 176.991 95.275 C 178.586 93.910, 180.529 93.614, 186.314 93.856 C 191.873 94.088, 193.920 93.801, 194.868 92.659 C 195.973 91.327, 196.430 91.340, 198.921 92.770 C 201.504 94.252, 201.996 94.252, 205.061 92.767 C 208.274 91.211, 208.430 91.231, 209.464 93.327 C 210.053 94.522, 211.483 95.920, 212.641 96.433 C 216.598 98.185, 217.172 100.522, 214.387 103.528 C 212.011 106.091, 211.886 106.787, 212.116 116.107 C 212.250 121.534, 212.132 126.201, 211.854 126.480 C 211.089 127.245, 202.418 128.713, 194 129.504 C 187.108 130.151, 186.222 130.499, 183.072 133.795 C 181.058 135.903, 180.130 137.543, 180.822 137.774 C 181.470 137.990, 182 138.804, 182 139.583 C 182 141.331, 182.030 141.331, 185.611 139.544 C 187.217 138.743, 190.773 137.879, 193.515 137.623 C 199.400 137.073, 201.528 136.344, 205.317 133.580 L 208.133 131.525 209.988 133.984 C 211.497 135.985, 211.909 138.682, 212.200 148.471 C 212.396 155.087, 212.376 161.080, 212.156 161.789 C 211.865 162.727, 209.401 163.038, 203.128 162.931 C 189.491 162.696, 177.697 163.505, 175.250 164.841 C 172.832 166.162, 172.294 168.446, 174.134 169.583 C 175.248 170.272, 190.511 170.333, 204.750 169.705 L 212 169.386 212 172.993 C 212 174.977, 212.437 177.037, 212.972 177.572 C 214.423 179.023, 215.958 191.553, 215.335 196.859 C 215.003 199.680, 215.402 203.656, 216.353 207 C 217.213 210.025, 218.111 217.302, 218.350 223.170 C 218.588 229.039, 219.046 234.266, 219.367 234.785 C 220.094 235.961, 224.895 235.505, 226.270 234.130 C 226.961 233.439, 226.703 228.996, 225.469 220.306 C 224.469 213.263, 223.295 202.100, 222.861 195.500 C 222.426 188.900, 221.783 181.083, 221.431 178.130 C 220.662 171.677, 222.277 167.636, 225.248 168.579 C 227.580 169.319, 247.743 167.186, 250.500 165.907 C 251.600 165.397, 253.998 164.814, 255.828 164.612 C 260.165 164.133, 261.824 162.527, 260.362 160.222 C 259.462 158.804, 258.053 158.560, 252.385 158.842 C 248.598 159.030, 242.125 159.818, 238 160.592 C 233.875 161.366, 228.195 162, 225.379 162 L 220.258 162 219.555 152.085 C 218.073 131.183, 219.440 129.543, 238.441 129.428 C 246.846 129.377, 250.501 128.997, 250.785 128.144 C 251.485 126.044, 249.034 124.179, 244.692 123.508 C 242.387 123.152, 239.020 122.401, 237.211 121.840 C 235.044 121.167, 233.510 121.156, 232.711 121.806 C 232.045 122.349, 229.025 122.953, 226 123.147 L 220.500 123.500 220.662 114.500 C 220.853 103.946, 221.824 93.897, 222.806 92.325 C 223.481 91.244, 248.454 90.281, 253.969 91.123 C 257.550 91.670, 257.819 88.583, 254.386 86.333 C 250.802 83.985, 241.250 83.016, 232.500 84.112 C 224.153 85.158, 208.026 85.856, 191.429 85.890 C 180.025 85.913, 179.224 86.048, 176.929 88.327 C 175.481 89.765, 172.930 90.920, 170.614 91.185 L 166.729 91.630 167.410 80.233 C 168.063 69.304, 168.007 68.815, 166.046 68.302 C 164.921 68.007, 164 67.406, 164 66.966 C 164 65.459, 168.863 56.504, 170.811 54.423 C 171.880 53.281, 173.096 51.256, 173.512 49.923 C 173.929 48.590, 174.594 47.275, 174.991 47 C 175.387 46.725, 176.022 44.813, 176.401 42.750 C 177.176 38.534, 176.491 38.211, 171.432 40.414 M 202.362 45.500 C 201.289 48.295, 202.822 50.169, 205.914 49.845 C 207.650 49.663, 209.611 50.243, 210.753 51.277 C 212.148 52.539, 214.100 52.952, 217.892 52.787 C 220.958 52.654, 223.401 53.031, 223.815 53.701 C 224.203 54.328, 225.866 55.133, 227.510 55.489 C 229.155 55.845, 233.274 57.519, 236.665 59.208 C 242.271 62.001, 246 62.407, 246 60.224 C 246 59.412, 237.486 53, 236.408 53 C 236.114 53, 233.070 51.648, 229.642 49.994 C 224.524 47.526, 222.033 46.963, 215.702 46.842 C 210.610 46.746, 207.613 46.238, 206.874 45.348 C 205.388 43.557, 203.077 43.635, 202.362 45.500 M 47 114.500 C 47 116.056, 47.567 117, 48.500 117 C 49.433 117, 50 116.056, 50 114.500 C 50 112.944, 49.433 112, 48.500 112 C 47.567 112, 47 112.944, 47 114.500 M 74 155.025 C 74 156.264, 74.969 157.418, 76.500 158 C 77.875 158.523, 79 159.593, 79 160.379 C 79 161.346, 80.533 161.968, 83.750 162.305 C 86.362 162.579, 92.012 163.391, 96.304 164.109 C 102.498 165.145, 104.514 165.160, 106.077 164.184 C 108.588 162.616, 111.011 163.837, 114.519 168.436 C 117.057 171.763, 117.109 172.133, 116.647 183.673 C 115.756 205.952, 114.348 212.739, 109.163 219.752 C 107.103 222.540, 106.952 223.237, 108.110 224.632 C 109.321 226.092, 109.890 225.771, 113.631 221.520 C 116.225 218.571, 118.244 215.027, 118.973 212.140 C 119.618 209.588, 121.004 204.702, 122.055 201.283 C 123.442 196.768, 123.993 191.799, 124.069 183.132 C 124.163 172.401, 123.937 170.764, 121.837 166.910 C 116.966 157.974, 113.493 156.194, 100.740 156.100 C 95.345 156.061, 90.638 155.458, 88.389 154.518 C 86.391 153.683, 82.336 153, 79.378 153 C 74.645 153, 74 153.243, 74 155.025 M 70 157.059 C 70 157.641, 70.450 157.840, 71 157.500 C 71.550 157.160, 72 156.684, 72 156.441 C 72 156.198, 71.550 156, 71 156 C 70.450 156, 70 156.477, 70 157.059 M 264.500 235.297 C 259.124 237.563, 250.230 238.021, 240 236.559 C 235.968 235.983, 233.073 236.197, 229.155 237.361 C 224.967 238.605, 221.070 238.828, 211.155 238.391 C 204.195 238.085, 197.375 237.507, 196 237.109 C 194.625 236.710, 192.150 236.661, 190.500 237 C 188.850 237.339, 186.515 237.193, 185.311 236.675 C 183.668 235.969, 182.699 236.158, 181.426 237.431 C 179.951 238.906, 179.906 239.455, 181.079 241.648 C 182.283 243.898, 182.863 244.102, 186.464 243.548 C 193.358 242.487, 200 242.210, 200 242.983 C 200 243.390, 201.128 243.507, 202.506 243.244 C 203.884 242.980, 205.671 243.312, 206.478 243.982 C 207.644 244.950, 208.253 244.890, 209.455 243.688 C 210.319 242.824, 211.864 242.413, 213.067 242.728 C 214.663 243.145, 214.848 243.481, 213.835 244.123 C 212.966 244.674, 213.789 244.975, 216.191 244.985 C 218.221 244.993, 220.160 244.550, 220.500 244 C 220.840 243.450, 222.921 243, 225.125 243 C 227.328 243, 229.970 242.551, 230.995 242.003 C 232.302 241.303, 234.680 241.472, 238.957 242.568 C 243.726 243.789, 246.413 243.919, 251.278 243.163 C 254.975 242.589, 257.885 242.563, 258.450 243.098 C 259.876 244.452, 262.602 244.185, 263.951 242.559 C 264.608 241.767, 265.714 241.337, 266.409 241.603 C 267.103 241.870, 269.756 241.380, 272.303 240.515 C 276.112 239.222, 277.297 239.169, 278.971 240.214 C 280.448 241.137, 281.470 241.193, 282.694 240.421 C 285.166 238.862, 285.275 237.623, 283.156 235.180 C 280.619 232.254, 271.586 232.311, 264.500 235.297" stroke="none" fill="black" fill-rule="evenodd"/>
</svg>