<svg xmlns="http://www.w3.org/2000/svg" width="300" height="300" viewBox="0 0 300 300" version="1.1">
	<path d="M 211.651 29.250 C 210.895 31.038, 209.317 33.354, 208.145 34.399 C 206.224 36.110, 206.077 36.973, 206.650 43.149 C 207.275 49.870, 207.242 50.002, 204.894 50.085 C 198.362 50.318, 191.399 49.756, 190.550 48.927 C 190.028 48.417, 185.939 48, 181.465 48 C 173.652 48, 173.223 48.121, 170.604 51.061 C 166.448 55.724, 167.394 57.478, 174.135 57.610 C 177.216 57.670, 180.252 58.038, 180.882 58.427 C 181.511 58.816, 183.483 59.175, 185.263 59.225 C 187.044 59.274, 189.986 59.935, 191.803 60.693 C 193.819 61.534, 196.452 61.818, 198.564 61.422 C 201.912 60.794, 204.377 59, 201.892 59 C 201.218 59, 200.956 58.711, 201.309 58.357 C 203.310 56.356, 207.850 64.278, 207.490 69.142 C 207.353 70.989, 206.923 76.836, 206.535 82.137 C 206.148 87.437, 205.194 93.001, 204.415 94.501 C 203.637 96.001, 203 99.835, 203 103.021 C 203 108.462, 203.131 108.779, 205.158 108.248 L 207.316 107.684 205.283 109.717 C 204.165 110.835, 203.044 112.369, 202.792 113.125 C 202.433 114.202, 199.386 114.500, 188.750 114.500 C 181.279 114.500, 174.960 114.725, 174.708 115 C 174.455 115.275, 173.945 116.487, 173.574 117.694 C 172.656 120.686, 176.337 122.999, 183.003 123.618 C 187.711 124.055, 188.115 123.928, 187.821 122.093 C 187.644 120.992, 187.838 120.070, 188.250 120.045 C 190.818 119.890, 191.183 120.191, 190.694 122.061 C 190.059 124.490, 192.018 125.565, 194.672 124.245 C 196.463 123.354, 201.152 123.659, 219.702 125.875 C 229.332 127.025, 231.487 126.778, 232.391 124.423 C 233.392 121.816, 231.835 120.032, 227.647 118.985 C 225.366 118.415, 222.022 117.285, 220.216 116.474 C 218.410 115.663, 215.687 115, 214.166 115 C 211.130 115, 208.932 113.393, 209.553 111.628 C 210.694 108.388, 213.303 89.005, 214.012 78.500 C 214.739 67.726, 216.738 59.071, 218.168 60.502 C 219.331 61.665, 234.921 61.958, 242 60.950 C 258.578 58.589, 263 56.868, 263 52.779 C 263 47.509, 258.514 45.385, 253.715 48.384 C 251.461 49.792, 235.111 51.337, 223 51.287 C 217.180 51.263, 216.371 51.011, 215.265 48.880 C 213.506 45.492, 213.711 36.674, 215.642 32.625 C 216.545 30.731, 217.009 28.466, 216.673 27.591 C 215.661 24.953, 213.114 25.795, 211.651 29.250 M 246.250 55.731 C 244.881 56.208, 244.505 59, 245.809 59 C 246.254 59, 247.442 58.397, 248.449 57.661 C 249.892 56.606, 249.985 56.213, 248.890 55.808 C 248.126 55.526, 246.938 55.491, 246.250 55.731 M 123.500 61.646 C 122.400 61.907, 119.803 62.768, 117.730 63.560 C 115.606 64.371, 110.529 65, 106.105 65 C 101.478 65, 96.454 65.647, 93.876 66.575 C 89.592 68.116, 74.426 68.647, 69.560 67.426 C 64.975 66.275, 59.330 75.210, 63.750 76.622 C 64.712 76.930, 66.529 77.675, 67.786 78.279 C 69.484 79.094, 70.965 79.053, 73.554 78.117 C 76.183 77.166, 77.856 77.127, 80.374 77.959 C 82.548 78.676, 84.569 78.734, 86.171 78.125 C 87.524 77.611, 91.188 76.870, 94.315 76.480 C 97.442 76.089, 100 75.371, 100 74.885 C 100 73.598, 105.399 73.799, 106.736 75.136 C 107.583 75.983, 107.525 76.618, 106.507 77.636 C 105.757 78.386, 104.687 79, 104.130 79 C 102.557 79, 94.208 90.422, 89.876 98.500 C 88.696 100.700, 87.454 102.725, 87.115 103 C 85.154 104.589, 73.727 118.337, 70.489 123 C 66.564 128.654, 63.347 132, 61.834 132 C 61.361 132, 59.782 134.517, 58.326 137.593 C 56.869 140.670, 55.075 143.418, 54.339 143.700 C 53.602 143.983, 53 144.704, 53 145.302 C 53 145.901, 51.913 147.540, 50.584 148.945 C 49.255 150.350, 46.997 153.718, 45.567 156.430 C 44.137 159.141, 41.668 162.966, 40.079 164.930 C 27.061 181.024, 20.915 189.609, 17.635 196.281 C 15.531 200.561, 14.064 204.723, 14.374 205.531 C 15.290 207.919, 18.679 207.220, 22.516 203.852 C 26.847 200.049, 29 196.137, 29 192.071 C 29 189.709, 30.257 187.806, 34.704 183.429 C 37.841 180.341, 40.878 177.020, 41.454 176.048 C 42.029 175.076, 44.169 172.080, 46.210 169.390 C 48.250 166.701, 50.199 163.262, 50.539 161.750 C 50.880 160.238, 51.573 159, 52.079 159 C 52.586 159, 53 158.395, 53 157.655 C 53 156.054, 56.168 153, 57.829 153 C 58.649 153, 59 156.143, 59 163.500 C 59 172.167, 59.262 174, 60.500 174 C 62.322 174, 62.361 174.941, 60.631 177.218 C 59.734 178.399, 59.517 180.588, 59.936 184.218 C 60.530 189.360, 60.390 199.118, 59.346 225.250 C 58.881 236.890, 58.673 238, 56.954 238 C 55.151 238, 53 240.685, 53 242.934 C 53 243.531, 54.982 244, 57.500 244 C 61.833 244, 62 244.111, 62 247 C 62 251.049, 65.246 251.049, 68.653 247 C 71.010 244.200, 71.638 244, 78.089 244 C 83.565 244, 85 243.689, 85 242.500 C 85 241.458, 85.993 241.024, 88.250 241.079 C 90.037 241.122, 90.938 241.385, 90.250 241.662 C 89.563 241.940, 89 242.804, 89 243.583 C 89 245.398, 88.494 245.426, 108.359 242.519 C 110.481 242.208, 113.054 241.506, 114.077 240.959 C 115.100 240.411, 117.189 240.049, 118.718 240.153 C 120.248 240.257, 122.539 240.002, 123.808 239.585 C 126.946 238.556, 126.405 234.802, 123 233.975 C 120.694 233.415, 120.525 232.986, 120.825 228.446 C 121.004 225.740, 121.577 223.261, 122.099 222.939 C 123.230 222.240, 125.046 213.042, 125.839 204 C 127.261 187.777, 125.395 156, 123.019 156 C 122.635 156, 121.839 154.941, 121.249 153.647 C 119.549 149.917, 113.177 147.167, 106.152 147.134 C 102.798 147.118, 99.797 147.520, 99.483 148.027 C 99.170 148.535, 96.975 148.684, 94.606 148.359 C 92.236 148.035, 87.051 148.317, 83.081 148.986 C 77.050 150.004, 75.685 150.597, 74.772 152.602 C 74.171 153.921, 73.315 155, 72.871 155 C 71.822 155, 73.032 158.283, 74.427 159.223 C 76.006 160.286, 86.256 158.944, 88 157.445 C 88.825 156.736, 90.850 155.889, 92.500 155.563 C 94.775 155.113, 95.017 155.187, 93.500 155.870 C 88.600 158.077, 100.982 158.484, 109.506 156.397 C 113.114 155.513, 115 160.497, 115 170.918 C 115 176.293, 115.494 180.819, 116.206 181.958 C 117.242 183.617, 117.020 184.196, 114.634 186.074 C 111.949 188.185, 111.870 188.513, 112.281 195.879 C 112.515 200.071, 113.212 205.300, 113.830 207.500 C 114.447 209.700, 114.963 216.255, 114.976 222.067 L 115 232.633 108.735 233.878 C 105.289 234.563, 94.018 235.208, 83.689 235.312 L 64.909 235.500 65.457 232 C 67.296 220.270, 67.985 207.586, 67.992 185.309 C 67.997 170.495, 68.391 159.876, 68.950 159.531 C 69.473 159.208, 69.639 156.750, 69.320 154.057 C 68.055 143.373, 72.800 129.614, 79.200 125.410 C 80.799 124.359, 82.364 122.263, 82.679 120.750 C 82.993 119.237, 83.873 118, 84.634 118 C 85.396 118, 87.403 115.750, 89.095 113 C 90.787 110.250, 92.481 108, 92.858 108 C 93.236 108, 94.435 106.327, 95.523 104.283 C 96.610 102.238, 99.405 98.526, 101.733 96.033 C 104.061 93.540, 105.974 91.088, 105.983 90.584 C 105.992 90.080, 106.663 88.955, 107.474 88.084 C 111.952 83.272, 115 79.050, 115 77.657 C 115 75.243, 118.379 72.620, 123.398 71.138 C 127.604 69.896, 128.122 69.951, 130.606 71.905 C 132.653 73.515, 133.602 73.745, 134.641 72.883 C 136.574 71.279, 136.331 65.607, 134.250 63.740 C 132.325 62.012, 126.632 60.903, 123.500 61.646 M 57.211 148.538 C 56.145 149.746, 56.189 150, 57.461 150 C 58.307 150, 59 149.325, 59 148.500 C 59 146.676, 58.850 146.680, 57.211 148.538 M 190.730 148.517 C 188.420 149.370, 182.406 149.968, 175.207 150.061 C 162.189 150.230, 159.712 151.197, 158.414 156.618 C 158.035 158.203, 157.402 159.950, 157.007 160.500 C 156.613 161.050, 156.227 167.350, 156.150 174.500 C 156.072 181.650, 155.553 189.975, 154.995 193 C 152.176 208.302, 151.744 213.223, 153.138 214.122 C 154.047 214.708, 154.151 215.250, 153.451 215.750 C 151.606 217.070, 150 224.519, 150 231.759 C 150 239.337, 149.408 240.183, 144.733 239.289 C 142.526 238.867, 141.984 239.215, 141.434 241.405 C 140.537 244.981, 142.482 247.156, 145.864 246.361 C 147.314 246.021, 148.927 245.350, 149.450 244.871 C 151.040 243.413, 155 243.862, 155 245.500 C 155 246.333, 155.889 247, 157 247 C 158.111 247, 159 246.333, 159 245.500 C 159 244.409, 160.125 244, 163.122 244 C 166.673 244, 167.072 244.208, 166 245.500 C 164.933 246.786, 165.267 247, 168.346 247 C 171.127 247, 171.807 246.662, 171.362 245.500 C 170.928 244.371, 171.532 244, 173.799 244 C 176.320 244, 176.727 244.327, 176.290 246 C 175.874 247.589, 176.259 248, 178.161 248 C 179.478 248, 181.559 247.297, 182.786 246.437 C 184.809 245.020, 185.163 245.020, 186.580 246.437 C 188.613 248.470, 191.433 248.424, 193.533 246.324 C 194.882 244.975, 195.575 244.878, 197.091 245.824 C 198.129 246.473, 202.596 247, 207.054 247 C 214.844 247, 215.110 246.923, 214.459 244.870 C 213.816 242.846, 214.012 242.775, 218.391 243.431 C 222.197 244.002, 223 243.850, 223 242.561 C 223 241.703, 223.675 241, 224.500 241 C 225.325 241, 226 241.873, 226 242.941 C 226 245.687, 226.589 245.873, 237.357 246.528 L 247 247.113 247 244.057 C 247 242.086, 246.497 241, 245.583 241 C 244.804 241, 244.017 240.597, 243.833 240.105 C 243.561 239.373, 224.012 236.621, 220.500 236.820 C 219.950 236.852, 207.721 237.193, 193.324 237.580 L 167.148 238.283 166.824 234.891 C 166.488 231.379, 166.246 231.283, 160.891 232.558 C 157.356 233.400, 157.023 232.039, 158.490 222.728 C 159.163 218.453, 159.727 214.853, 159.742 214.728 C 159.757 214.602, 160.260 212.700, 160.859 210.500 C 161.457 208.300, 162.408 201.100, 162.972 194.500 C 164.025 182.170, 165.820 166.389, 166.662 162.052 C 166.995 160.338, 167.376 159.990, 167.933 160.892 C 168.567 161.918, 170.025 161.950, 175.114 161.049 C 178.627 160.427, 183.058 159.723, 184.962 159.485 C 190.444 158.798, 191.276 158.223, 190.753 155.488 C 190.384 153.558, 190.695 153, 192.139 153 C 193.322 153, 194 153.715, 194 154.965 C 194 157.781, 196.966 158.962, 200 157.354 L 202.500 156.029 199.500 155.879 C 196.797 155.743, 196.745 155.682, 198.972 155.265 C 200.331 155.011, 202.344 154.172, 203.444 153.401 C 205.699 151.822, 208.421 151.510, 207.543 152.931 C 207.226 153.443, 207.473 154.174, 208.090 154.556 C 208.886 155.048, 208.818 155.501, 207.857 156.110 C 206.975 156.668, 207.989 156.975, 210.750 156.985 C 213.088 156.993, 215 156.550, 215 156 C 215 155.450, 216.463 155.032, 218.250 155.070 C 220.828 155.126, 221.095 155.299, 219.542 155.906 C 217.002 156.900, 226.693 158.155, 230.074 157.270 C 232.268 156.697, 232.288 156.618, 230.446 155.817 C 229.151 155.252, 229.503 155.196, 231.500 155.648 C 233.150 156.022, 236.433 156.427, 238.795 156.549 C 245.062 156.873, 246.743 158.892, 247.361 166.834 C 247.646 170.500, 248.433 177.470, 249.109 182.322 C 250.190 190.079, 250.560 191.087, 252.169 190.666 C 253.621 190.286, 254 190.766, 254 192.977 C 254 194.966, 253.400 195.924, 251.910 196.313 C 250.360 196.719, 249.984 197.373, 250.452 198.850 C 252.377 204.914, 253.620 213.865, 253.320 219.500 C 253.174 222.250, 252.776 229.450, 252.436 235.500 C 251.703 248.541, 251.718 250.988, 252.561 257.250 C 253.313 262.826, 256 264.043, 256 258.808 C 256 257.052, 256.668 251.539, 257.485 246.558 C 262.293 217.233, 262.480 215.013, 260.668 208.759 C 259.830 205.867, 258.449 193.746, 257.600 181.824 C 255.827 156.930, 254.213 151.040, 248.579 148.915 C 243.707 147.077, 195.528 146.746, 190.730 148.517 M 79 157 C 79 157.550, 79.900 158, 81 158 C 82.100 158, 83 157.550, 83 157 C 83 156.450, 82.100 156, 81 156 C 79.900 156, 79 156.450, 79 157 M 118 184.378 C 118 185.685, 118.675 187.315, 119.500 188 C 120.786 189.068, 121 188.729, 121 185.622 C 121 183.069, 120.557 182, 119.500 182 C 118.587 182, 118 182.931, 118 184.378 M 155.195 208.500 C 155.215 210.150, 155.439 210.704, 155.693 209.731 C 155.947 208.758, 155.930 207.408, 155.656 206.731 C 155.382 206.054, 155.175 206.850, 155.195 208.500 M 62.079 225.583 C 62.127 226.748, 62.364 226.985, 62.683 226.188 C 62.972 225.466, 62.936 224.603, 62.604 224.271 C 62.272 223.939, 62.036 224.529, 62.079 225.583" stroke="none" fill="black" fill-rule="evenodd"/>
</svg>