<svg xmlns="http://www.w3.org/2000/svg" width="300" height="300" viewBox="0 0 300 300" version="1.1">
	<path d="M 155.906 42.830 C 152.732 44.115, 141.765 46.422, 131.551 47.951 C 128.829 48.359, 126.429 49.212, 126.218 49.846 C 125.971 50.588, 123.019 51, 117.957 51 C 106.764 51, 90.304 53.648, 85.250 56.261 C 80.719 58.603, 79.388 62, 83 62 C 84.158 62, 85 61.333, 85 60.417 C 85 57.598, 87.423 59.548, 88.304 63.075 C 88.774 64.959, 89.206 72.304, 89.264 79.397 C 89.369 92.209, 89.352 92.307, 86.716 94.409 C 84.762 95.968, 84.217 97.114, 84.648 98.762 C 84.970 99.993, 85.688 101, 86.244 101 C 87.649 101, 86.299 135.249, 84.489 145.500 C 82.729 155.472, 82.345 165.745, 83.684 167.084 C 85.288 168.688, 96.980 168.877, 98.533 167.324 C 99.261 166.596, 100.564 166, 101.429 166 C 102.293 166, 103 165.550, 103 165 C 103 164.450, 103.900 164, 105 164 C 106.367 164, 107 164.667, 107 166.107 C 107 167.729, 107.403 168.043, 108.750 167.473 C 109.713 167.065, 112.417 166.413, 114.760 166.023 C 119.669 165.206, 121.460 164.026, 117.917 163.944 C 115.899 163.896, 116.078 163.684, 119 162.658 C 122.534 161.418, 124.264 162.148, 123.362 164.499 C 123.113 165.148, 123.618 166.268, 124.484 166.987 C 125.812 168.089, 126.446 167.930, 128.529 165.972 C 129.888 164.696, 131 162.605, 131 161.326 C 131 158.426, 132.577 158.274, 133.317 161.103 C 133.815 163.009, 134.332 163.142, 138.850 162.521 C 152.284 160.673, 158.152 157.295, 154.416 153.559 C 153.465 152.608, 152.042 152.159, 151.121 152.519 C 150.229 152.868, 145.900 153.530, 141.500 153.991 C 137.100 154.452, 132.825 154.980, 132 155.165 C 130.720 155.451, 130.542 153.764, 130.785 143.672 C 131.025 133.726, 131.479 130.823, 133.642 125.422 C 135.949 119.658, 136.501 119, 139.025 119 C 143.355 119, 145 118.007, 145 115.393 C 145 114.077, 145.365 113, 145.810 113 C 146.256 113, 147.989 111.662, 149.661 110.027 C 154.744 105.057, 160.414 85.079, 157.552 82.220 C 156.592 81.260, 147.225 81.717, 141.479 83.005 C 138.944 83.573, 136.436 83.769, 135.905 83.441 C 134.644 82.662, 135.840 57.935, 137.221 56.250 C 137.784 55.563, 139.877 54.971, 141.872 54.937 C 145.052 54.881, 145.222 54.762, 143.250 53.969 C 140.241 52.759, 140.389 51, 143.500 51 C 144.875 51, 146 51.450, 146 52 C 146 52.550, 147.119 53, 148.486 53 C 151.550 53, 160.312 50.787, 161.016 49.835 C 161.300 49.452, 163.505 48.994, 165.915 48.819 C 170.958 48.452, 173.218 46.150, 171.382 43.250 C 170.007 41.077, 160.850 40.828, 155.906 42.830 M 122.667 54.667 C 122.300 55.033, 122 56.158, 122 57.167 C 122 59.438, 118.760 59.621, 116.960 57.452 C 115.228 55.365, 111.408 55.955, 111.794 58.250 C 111.968 59.288, 111.459 60, 110.544 60 C 109.695 60, 109.112 59.449, 109.250 58.775 C 109.521 57.446, 103.090 56.616, 99.327 57.493 C 97.267 57.973, 97.150 58.562, 97.087 68.750 C 97.051 74.662, 96.772 81.750, 96.466 84.500 C 95.606 92.251, 95.890 92.348, 109.476 88.964 C 116.022 87.334, 122.392 86, 123.630 86 C 124.869 86, 126.184 85.511, 126.554 84.913 C 127.085 84.053, 127.163 64.487, 126.670 55.750 C 126.574 54.040, 123.992 53.341, 122.667 54.667 M 103.813 59.683 C 104.534 59.972, 105.397 59.936, 105.729 59.604 C 106.061 59.272, 105.471 59.036, 104.417 59.079 C 103.252 59.127, 103.015 59.364, 103.813 59.683 M 228.500 59.637 C 223.138 60.724, 202.662 65.444, 196.122 67.100 C 179.930 71.200, 177.623 73.684, 180.969 83.410 C 182.080 86.640, 183.456 89.844, 184.026 90.531 C 184.596 91.218, 186.172 94.612, 187.529 98.073 C 190.686 106.130, 193.351 109, 197.674 109 C 199.707 109, 201 109.497, 201 110.278 C 201 110.981, 201.900 112.326, 203 113.268 C 205.449 115.365, 205.803 120.246, 203.440 119.339 C 202.399 118.939, 201.696 119.447, 201.324 120.870 C 201.017 122.042, 200.144 123, 199.383 123 C 198.623 123, 198 123.478, 198 124.063 C 198 124.647, 193.494 129.597, 187.986 135.063 C 180.697 142.295, 177.295 145, 175.486 145 C 172.982 145, 172.419 146.323, 173.607 149.418 C 174.459 151.640, 180.444 151.452, 183.242 149.115 C 200.538 134.677, 203.907 131.457, 203.967 129.307 C 203.985 128.650, 204.943 127.453, 206.096 126.646 C 207.587 125.601, 208 124.576, 207.528 123.089 C 206.618 120.220, 208.199 120.471, 211.438 123.711 C 213.594 125.867, 213.842 126.532, 212.649 126.961 C 211.385 127.415, 211.358 127.784, 212.473 129.303 C 213.450 130.632, 213.918 130.763, 214.256 129.803 C 214.508 129.086, 215.430 130.188, 216.306 132.250 C 217.182 134.313, 218.339 136, 218.878 136 C 219.416 136, 220.452 136.569, 221.179 137.264 C 221.905 137.960, 225.705 140.885, 229.622 143.764 C 236.672 148.946, 240 150.211, 240 147.707 C 240 146.322, 232.546 138.936, 227.109 134.933 C 225.292 133.595, 223.193 131.375, 222.444 130 C 221.696 128.625, 219.715 125.977, 218.042 124.114 C 216.369 122.252, 215.008 119.777, 215.017 118.614 C 215.027 117.452, 217.738 113.350, 221.042 109.500 C 229.164 100.035, 228.868 100.435, 230.102 97.288 C 230.703 95.754, 232.040 92.700, 233.072 90.500 C 239.400 77.011, 242.226 65.160, 240.075 61.140 C 239.164 59.438, 238.068 59.024, 234.715 59.116 C 232.397 59.180, 229.600 59.414, 228.500 59.637 M 228.500 66.793 C 226.850 66.993, 222.350 68.047, 218.500 69.135 C 214.650 70.223, 210.375 71.278, 209 71.480 C 205.683 71.968, 192.300 75.697, 191.014 76.491 C 187.921 78.403, 193.367 95.367, 198.826 100.826 C 199.913 101.913, 201.088 103.634, 201.437 104.651 C 201.786 105.668, 203.345 107.985, 204.901 109.800 L 207.730 113.101 212.048 107.800 C 214.423 104.885, 216.846 102.050, 217.433 101.500 C 219.229 99.817, 233 71.111, 233 69.050 C 233 66.671, 232.319 66.329, 228.500 66.793 M 142.231 90.250 C 141.652 92.434, 139.213 92.503, 136.892 90.402 C 135.115 88.794, 132.467 89.328, 133.547 91.076 C 134.242 92.201, 130.298 98, 128.838 98 C 128.274 98, 127.572 97.081, 127.279 95.958 C 126.805 94.146, 126.235 93.992, 122.230 94.593 C 118.652 95.129, 117.883 94.999, 118.522 93.965 C 119.110 93.013, 118.856 92.841, 117.582 93.330 C 116.622 93.699, 115.198 94, 114.418 94 C 113.638 94, 113.113 94.563, 113.250 95.250 C 113.405 96.024, 112.167 96.598, 110 96.756 C 105.668 97.073, 98.867 99.087, 97.417 100.481 C 96.821 101.055, 96.034 105.069, 95.668 109.401 L 95.002 117.280 100.251 116.658 C 119.070 114.429, 124.164 113.359, 130.690 110.263 C 132.445 109.430, 135.980 108.693, 138.545 108.624 C 143.171 108.499, 143.233 108.451, 146.208 102.749 C 147.858 99.587, 149.611 97, 150.104 97 C 150.597 97, 151 94.985, 151 92.523 L 151 88.046 146.847 88.273 C 143.860 88.436, 142.565 88.991, 142.231 90.250 M 105 95 C 103.718 95.828, 103.754 95.972, 105.250 95.985 C 106.213 95.993, 107 95.550, 107 95 C 107 93.780, 106.887 93.780, 105 95 M 190 98.866 C 190 100.935, 193.313 104.354, 194.331 103.336 C 195.794 101.872, 194.866 99.260, 192.500 98.182 C 190.331 97.194, 190 97.284, 190 98.866 M 101 122.893 C 101 124.907, 98.782 126.337, 95.500 126.438 C 93.773 126.492, 93.529 127.114, 93.711 131 C 93.827 133.475, 93.267 140.640, 92.466 146.922 C 91.665 153.203, 91.194 158.527, 91.419 158.753 C 92.247 159.580, 108.609 158.991, 111.993 158.011 C 113.915 157.455, 116.862 157, 118.543 157 C 120.225 157, 122.140 156.460, 122.800 155.800 C 124.249 154.351, 124.330 148.588, 123.014 140.551 C 122.478 137.279, 122.314 132.891, 122.648 130.801 C 123.214 127.263, 123.491 127, 126.659 127 C 128.804 127, 130.282 126.429, 130.655 125.457 C 131.547 123.133, 130.283 122.511, 127.594 123.950 C 126.272 124.657, 124.731 124.951, 124.168 124.604 C 123.202 124.007, 114.528 126.856, 110.764 129.008 C 107.447 130.903, 105.066 130.147, 103.661 126.750 C 102.922 124.963, 102.695 123.350, 103.158 123.167 C 104.579 122.604, 104.091 121, 102.500 121 C 101.675 121, 101 121.852, 101 122.893 M 92.475 166.040 C 92.054 166.722, 92.808 166.846, 94.666 166.399 C 98.498 165.479, 98.860 165, 95.726 165 C 94.291 165, 92.829 165.468, 92.475 166.040 M 202.500 174.101 C 197.550 175.173, 189.450 176.962, 184.500 178.076 C 171.929 180.906, 168.685 181.599, 159 183.531 C 154.325 184.463, 146.046 186.300, 140.602 187.613 C 135.158 188.926, 129.471 190, 127.964 190 C 126.457 190, 119.437 191.090, 112.362 192.423 C 105.288 193.755, 97.925 195.112, 96 195.438 C 92.574 196.018, 86 200.813, 86 202.732 C 86 203.976, 100.782 204.162, 101.544 202.928 C 101.860 202.418, 103.666 202, 105.559 202 C 107.834 202, 109 201.528, 109 200.607 C 109 198.758, 112.052 197.652, 113.409 199.009 C 114.175 199.775, 114.055 200.383, 112.992 201.128 C 111.840 201.935, 112.070 202.043, 114 201.600 C 115.375 201.285, 117.737 201.021, 119.250 201.014 C 120.763 201.006, 122 200.550, 122 200 C 122 199.450, 121.352 199, 120.559 199 C 118.956 199, 117.483 197.183, 118.369 196.298 C 118.682 195.985, 120.061 196.465, 121.434 197.365 C 124.783 199.559, 127.076 199.426, 127.710 197 C 128.316 194.682, 131 194.274, 131 196.500 C 131 198.181, 133.545 198.545, 134.500 197 C 134.840 196.450, 134.326 196, 133.359 196 C 132.087 196, 131.902 195.698, 132.693 194.907 C 133.483 194.117, 134.384 194.135, 135.947 194.972 C 137.136 195.608, 139.322 195.987, 140.805 195.814 C 142.955 195.564, 143.565 195.955, 143.819 197.748 C 143.995 198.985, 143.298 201.235, 142.271 202.748 C 141.243 204.262, 139.844 206.625, 139.162 208 C 136.576 213.209, 135.175 215.138, 129.909 220.738 C 126.928 223.907, 122.917 228.655, 120.995 231.289 C 111.531 244.259, 102.107 255.952, 99.500 257.960 C 95.521 261.024, 87.752 269.522, 86.914 271.727 C 85.717 274.874, 86.789 277, 89.572 277 C 92.559 277, 118.819 251.235, 121.813 245.366 C 122.936 243.166, 124.537 240.799, 125.372 240.106 C 126.207 239.413, 128.312 236.631, 130.049 233.923 C 134.973 226.251, 136.567 227.118, 137.331 237.885 C 137.678 242.771, 138.431 248.003, 139.004 249.512 C 139.578 251.020, 140.323 255.684, 140.660 259.877 C 140.998 264.070, 141.677 268.014, 142.169 268.642 C 142.715 269.337, 142.472 271.487, 141.547 274.142 C 140.712 276.539, 140.023 278.750, 140.015 279.055 C 139.993 279.881, 146.660 287, 147.456 287 C 150.239 287, 152.220 280.662, 149.750 279.659 C 148.809 279.278, 148.871 278.890, 150 278.091 C 151.586 276.969, 156.295 276.486, 161.843 276.875 C 163.980 277.025, 164.951 276.729, 164.534 276.055 C 164.157 275.446, 164.752 275, 165.941 275 C 167.073 275, 168 275.499, 168 276.108 C 168 277.501, 172.893 276.384, 175 274.511 C 175.825 273.778, 178.750 272.851, 181.500 272.453 C 184.250 272.054, 187.580 271.324, 188.901 270.831 C 190.773 270.132, 191.791 270.394, 193.520 272.019 C 196.759 275.062, 200.084 273.820, 203.594 268.257 C 205.192 265.724, 207.010 263.140, 207.634 262.513 C 208.258 261.887, 209.806 259.378, 211.075 256.937 C 213.158 252.932, 213.388 251.116, 213.441 238.293 C 213.518 219.747, 214.112 220.411, 197.810 220.835 C 191.135 221.009, 182.034 221.818, 177.586 222.633 C 173.139 223.448, 166.373 224.575, 162.551 225.137 C 158.730 225.699, 153.330 227.023, 150.551 228.079 C 144.002 230.568, 144 230.568, 144 226.700 C 144 224.885, 143.471 222.871, 142.824 222.224 C 141.922 221.322, 141.990 220.633, 143.117 219.274 C 143.925 218.298, 145.201 216.270, 145.953 214.767 C 146.705 213.264, 148.148 211.145, 149.160 210.059 C 150.172 208.972, 151 207.605, 151 207.020 C 151 206.436, 152.149 204.221, 153.553 202.099 C 154.957 199.977, 156.176 197.317, 156.261 196.187 C 156.388 194.497, 156.907 194.231, 159.187 194.687 C 161.536 195.157, 162.137 194.805, 163.139 192.371 C 163.789 190.792, 164.229 188.938, 164.117 188.250 C 163.856 186.653, 168.695 186.584, 169.226 188.177 C 169.456 188.867, 170.155 189.022, 170.916 188.552 C 171.971 187.900, 171.960 187.589, 170.857 186.890 C 169.800 186.221, 169.887 186.027, 171.250 186.015 C 172.213 186.007, 173 186.388, 173 186.861 C 173 188.548, 177.828 186.767, 178.316 184.901 C 178.902 182.658, 182 182.321, 182 184.500 C 182 186.518, 184.246 186.389, 188.249 184.141 C 190.349 182.961, 192.737 182.454, 194.780 182.754 C 196.762 183.045, 198 182.799, 198 182.113 C 198 181.501, 197.523 181, 196.941 181 C 196.359 181, 196.160 180.550, 196.500 180 C 196.840 179.450, 198.216 179, 199.559 179 C 200.902 179, 202 179.450, 202 180 C 202 180.550, 202.498 181, 203.107 181 C 203.716 181, 203.972 180.369, 203.676 179.598 C 202.866 177.487, 209.338 176.538, 212.224 178.345 C 215.340 180.298, 229.725 181.473, 231.588 179.927 C 233.336 178.476, 233.430 174.593, 231.750 173.232 C 229.596 171.487, 212.182 172.005, 202.500 174.101 M 198 227 C 198 227.550, 198.675 228, 199.500 228 C 200.325 228, 201 227.550, 201 227 C 201 226.450, 200.325 226, 199.500 226 C 198.675 226, 198 226.450, 198 227 M 184.500 229.520 C 181.750 230.133, 178.825 230.908, 178 231.242 C 175.054 232.435, 166.072 232.715, 165.708 231.625 C 165.292 230.377, 156.958 230.716, 155.592 232.037 C 155.052 232.560, 155.202 233.539, 155.965 234.458 C 157.071 235.790, 156.831 236, 154.206 236 C 152.534 236, 150.994 235.481, 150.782 234.847 C 150.307 233.422, 144.994 236.662, 145.012 238.365 C 145.018 238.989, 145.707 241.975, 146.543 245 C 147.378 248.025, 148.339 255.315, 148.678 261.199 C 149.145 269.308, 149.653 272.036, 150.774 272.467 C 151.588 272.779, 152.759 272.617, 153.377 272.107 C 154.628 271.073, 168.630 268.008, 172.208 267.985 C 173.469 267.977, 176.300 267.321, 178.500 266.529 C 180.700 265.736, 185.516 265.068, 189.203 265.044 C 200.517 264.970, 200.874 264.535, 204.407 246.500 C 205.161 242.650, 206.330 238.307, 207.005 236.848 C 207.854 235.012, 207.940 233.320, 207.283 231.350 C 206.343 228.530, 206.262 228.505, 197.918 228.456 C 193.288 228.428, 187.250 228.908, 184.500 229.520 M 161 233 C 159.793 233.780, 159.951 233.972, 161.809 233.985 C 163.097 233.993, 163.845 233.558, 163.500 233 C 162.757 231.798, 162.861 231.798, 161 233 M 154 279 C 152.707 279.835, 152.734 279.971, 154.191 279.985 C 155.121 279.993, 156.160 279.550, 156.500 279 C 157.282 277.734, 155.958 277.734, 154 279" stroke="none" fill="black" fill-rule="evenodd"/>
</svg>