<svg xmlns="http://www.w3.org/2000/svg" width="300" height="300" viewBox="0 0 300 300" version="1.1">
	<path d="M 162.138 54.894 C 160.386 56.004, 159.065 63.242, 159.606 68.770 C 160.267 75.520, 159.095 76.741, 151.258 77.457 C 125.839 79.780, 124.044 80.130, 121.868 83.186 C 120.738 84.773, 120.066 86.730, 120.375 87.535 C 121.034 89.252, 122.604 89.450, 123.540 87.935 C 123.981 87.222, 124.744 87.355, 125.849 88.339 C 128.315 90.533, 144 88.378, 144 85.844 C 144 83.529, 145.770 82.564, 147.455 83.962 C 148.395 84.742, 149.025 84.769, 149.470 84.049 C 150.493 82.393, 154.826 82.826, 156.780 84.780 C 158.230 86.230, 158.461 87.666, 158.030 92.530 L 157.500 98.500 152.500 99.120 C 145.979 99.927, 136.376 101.907, 133.298 103.077 C 131.538 103.746, 130.950 104.628, 131.181 106.252 C 131.622 109.360, 138.831 110.739, 147.309 109.337 C 154.586 108.134, 157.382 108.599, 156.635 110.888 C 154.982 115.947, 152.642 122.551, 152.387 122.870 C 151.911 123.468, 142.844 125.168, 138.500 125.473 C 128.784 126.155, 120 131.551, 120 136.837 C 120 139.200, 120.094 139.223, 126.750 138.514 C 130.463 138.118, 134.400 137.312, 135.500 136.722 C 137.325 135.744, 140.764 134.828, 148.250 133.325 C 149.762 133.021, 151.032 133.162, 151.072 133.637 C 151.111 134.111, 151.239 139.225, 151.355 145 C 151.508 152.567, 152.077 156.687, 153.392 159.750 C 156.177 166.234, 157.747 165.266, 157.824 157.019 C 157.911 147.860, 160.800 133.537, 163.094 130.891 C 165.591 128.012, 170.953 125.273, 176.692 123.945 C 179.337 123.334, 182.512 122.344, 183.750 121.747 C 186.172 120.579, 186.794 117.489, 184.750 116.782 C 183.006 116.178, 167.912 117.557, 165.596 118.532 C 163.836 119.272, 163.745 118.998, 164.396 114.916 C 164.784 112.487, 165.752 109.505, 166.548 108.290 C 167.991 106.084, 176.185 103, 180.600 103 C 184.614 103, 186 101.915, 186 98.770 L 186 95.753 176.500 96.311 L 167 96.868 167 92.589 C 167 87.233, 169.221 85.005, 174.579 84.986 C 180.868 84.964, 183 84.061, 183 81.419 C 183 78.818, 179.728 76.507, 177.342 77.422 C 176.517 77.739, 174.077 77.716, 171.921 77.371 L 168 76.744 168.044 71.122 C 168.068 68.030, 168.736 63.700, 169.529 61.500 C 170.321 59.300, 170.977 57.420, 170.985 57.321 C 170.993 57.223, 170.293 56.436, 169.429 55.571 C 167.711 53.854, 164.282 53.535, 162.138 54.894 M 228.500 61.218 C 218.535 64.006, 209.858 65.955, 207.303 65.979 C 204.403 66.007, 195.500 70.777, 195.500 72.304 C 195.500 73.102, 197.164 73.427, 200.500 73.281 C 204.031 73.126, 204.912 73.314, 203.500 73.923 C 201.662 74.715, 201.642 74.843, 203.250 75.500 C 204.213 75.893, 205.787 75.889, 206.750 75.492 C 208.514 74.764, 213.384 73.974, 218 73.667 C 220.476 73.502, 220.497 73.568, 220.142 80.500 C 219.945 84.350, 219.189 89.300, 218.461 91.500 C 217.734 93.700, 216.815 97.285, 216.418 99.466 C 216.021 101.648, 214.900 105.248, 213.927 107.466 C 212.954 109.685, 211.839 113.300, 211.449 115.500 C 211.058 117.700, 210.341 120.005, 209.853 120.622 C 206.818 124.467, 194.659 156.669, 195.457 158.749 C 196.434 161.294, 199.816 160.115, 200.502 156.990 C 201.284 153.430, 203.744 148.140, 205.653 145.914 C 208.586 142.493, 220 116.184, 220 112.842 C 220 112.049, 220.392 110.972, 220.872 110.450 C 222.042 109.176, 227.429 93.138, 229.485 84.811 C 231.346 77.273, 230.518 74, 226.751 74 C 223.155 74, 226.657 71.417, 232.605 69.683 C 237.522 68.249, 237.814 68.276, 240.513 70.428 L 243.315 72.663 243.312 89.081 C 243.309 103.316, 242.956 107.014, 240.654 116.884 C 239.194 123.146, 238 129.503, 238 131.012 C 238 132.521, 237.388 134.263, 236.640 134.884 C 235.568 135.773, 234.693 135.164, 232.504 132.006 C 230.977 129.803, 229.145 128, 228.431 128 C 226.669 128, 225.776 131.221, 226.585 134.665 C 227.420 138.220, 233.784 145.020, 235.617 144.317 C 236.368 144.028, 237.260 144.514, 237.599 145.396 C 239.259 149.725, 245 145.168, 245 139.521 C 245 137.852, 245.462 134.915, 246.027 132.993 C 250.653 117.248, 252.265 106.233, 252.245 90.500 C 252.214 66.807, 249.948 61.740, 238.500 59.775 C 236.850 59.492, 232.350 60.141, 228.500 61.218 M 223.813 68.683 C 224.534 68.972, 225.397 68.936, 225.729 68.604 C 226.061 68.272, 225.471 68.036, 224.417 68.079 C 223.252 68.127, 223.015 68.364, 223.813 68.683 M 40.950 85.094 C 40.030 86.812, 40.204 87.588, 41.914 89.409 C 43.061 90.630, 44 92.387, 44 93.314 C 44 94.242, 44.638 95, 45.417 95 C 46.196 95, 47.060 95.563, 47.338 96.250 C 47.627 96.967, 47.876 96.718, 47.921 95.667 C 48.022 93.316, 50.212 93.992, 51.464 96.760 C 51.993 97.932, 53.568 99.175, 54.964 99.522 C 56.359 99.870, 58.850 100.725, 60.500 101.423 C 65.654 103.604, 70.420 104.959, 75.277 105.625 C 79.192 106.161, 80.071 105.977, 80.636 104.505 C 81.363 102.611, 77.743 99.063, 75.041 99.022 C 73.302 98.996, 57.563 92.535, 54 90.385 C 52.625 89.555, 50.712 88.627, 49.750 88.322 C 48.788 88.016, 48 87.401, 48 86.955 C 48 85.638, 44.974 83, 43.464 83 C 42.697 83, 41.566 83.942, 40.950 85.094 M 149.500 85 C 149.160 85.550, 148.009 86, 146.941 86 C 145.873 86, 145 86.450, 145 87 C 145 87.550, 146.155 88, 147.566 88 C 150.537 88, 154 86.366, 154 84.965 C 154 83.690, 150.292 83.719, 149.500 85 M 35.129 86.920 C 34.400 87.371, 33.964 88.586, 34.160 89.620 C 34.596 91.918, 40 92.937, 40 90.721 C 40 88.567, 36.669 85.968, 35.129 86.920 M 86 121.142 C 84.625 121.701, 80.800 122.577, 77.500 123.089 C 74.200 123.602, 68.350 124.935, 64.500 126.053 C 60.650 127.171, 55.025 128.785, 52 129.641 C 48.975 130.496, 45.031 131.823, 43.236 132.589 C 41.441 133.354, 38.218 134.261, 36.073 134.604 C 33.232 135.059, 32.018 135.808, 31.600 137.364 C 30.521 141.387, 30.943 141.797, 36.871 142.485 C 41.552 143.028, 43.732 142.763, 47.621 141.179 C 55.457 137.988, 62.172 135.885, 67 135.109 C 69.475 134.711, 72.483 133.849, 73.684 133.193 C 74.886 132.537, 77.023 132, 78.434 132 C 83.015 132, 82.121 134.492, 70.721 153.500 C 66.509 160.522, 63.765 164.404, 58 171.496 C 54.425 175.893, 50.263 180.686, 48.750 182.147 C 47.238 183.607, 46 185.456, 46 186.255 C 46 187.054, 44.987 188.807, 43.750 190.150 C 38.241 196.130, 32.918 203.059, 28.499 210 C 25.873 214.125, 21.537 220.036, 18.862 223.136 C 13.522 229.326, 12.516 233.394, 16.049 234.516 C 18.695 235.355, 23 232.566, 23 230.012 C 23 228.944, 23.949 227.042, 25.109 225.785 C 29.169 221.386, 44 200.502, 44 199.184 C 44 198.452, 44.746 197.999, 45.657 198.177 C 48.511 198.734, 50.896 213.220, 50.952 230.344 C 50.996 244.084, 51.142 245.224, 52.908 245.686 C 55.100 246.259, 56.154 249.144, 54.900 251.139 C 53.853 252.806, 54.613 255.425, 57.389 259.714 C 60.965 265.238, 65.783 263.061, 62.983 257.186 C 60.751 252.504, 59.859 245.979, 58.991 228 C 58.526 218.375, 57.885 208.925, 57.566 207 C 56.216 198.864, 55.983 190.581, 57.016 187.453 C 57.955 184.607, 61.628 179.282, 71.815 166 C 72.870 164.625, 74.596 161.886, 75.652 159.914 C 76.708 157.942, 78.956 154.567, 80.648 152.414 C 86.395 145.103, 91.364 134.112, 91.829 127.685 C 92.359 120.354, 91.185 119.036, 86 121.142 M 139 132 C 139 132.550, 139.648 133, 140.441 133 C 141.234 133, 142.160 132.550, 142.500 132 C 142.840 131.450, 142.191 131, 141.059 131 C 139.927 131, 139 131.450, 139 132 M 53 134 C 52.207 134.490, 51.783 135.116, 52.058 135.391 C 52.333 135.666, 53.207 135.490, 54 135 C 54.793 134.510, 55.217 133.884, 54.942 133.609 C 54.667 133.334, 53.793 133.510, 53 134 M 182.744 159.197 C 182.493 159.914, 182.661 161.512, 183.119 162.750 C 183.970 165.054, 183.692 165.344, 180.893 165.076 C 179.742 164.966, 178.818 166.586, 177.643 170.777 C 176.739 173.997, 176 177.789, 176 179.204 C 176 182.470, 174.772 182.702, 152.665 183.606 C 134.312 184.356, 128.687 185.570, 128.182 188.891 C 127.742 191.775, 132.210 193.901, 134.579 191.935 C 135.977 190.775, 136.400 190.826, 137.468 192.288 C 138.157 193.229, 139.458 194, 140.360 194 C 142.244 194, 142.602 191.367, 140.799 190.766 C 139.932 190.477, 139.910 190.174, 140.719 189.674 C 141.761 189.030, 142.599 189.652, 145.706 193.376 C 146.551 194.389, 148.197 194.674, 151.206 194.328 C 158.070 193.540, 158.871 193.062, 156 191.463 C 153.744 190.207, 153.695 190.056, 155.500 189.920 C 156.600 189.837, 158.337 189.858, 159.359 189.966 C 160.476 190.084, 160.950 189.728, 160.546 189.074 C 159.583 187.516, 162.902 186.501, 164.317 187.921 C 165.228 188.835, 164.929 189.539, 163.015 190.986 C 159.680 193.505, 161.096 194.587, 165.860 193.160 C 167.989 192.522, 170.242 192, 170.866 192 C 172.653 192, 172.192 196.649, 170 200.739 C 168.900 202.791, 167.998 204.927, 167.995 205.485 C 167.987 207.288, 163.563 217.344, 160.237 223.122 C 158.457 226.214, 157 229.063, 157 229.453 C 157 230.191, 150.424 238.748, 148.510 240.500 C 147.909 241.050, 144.919 244.650, 141.865 248.500 C 135.056 257.083, 133.390 258.500, 130.112 258.500 C 127.291 258.500, 126.407 260.503, 127.430 264.579 C 127.926 266.552, 128.673 267, 131.472 267 C 134.178 267, 135.998 265.994, 140.051 262.261 C 142.881 259.654, 145.796 256.392, 146.528 255.011 C 147.261 253.630, 150.161 250.025, 152.972 247 C 159.775 239.679, 166.692 229.153, 170.609 220.162 C 175.422 209.113, 178.981 207.600, 182.084 215.283 C 182.798 217.052, 184.014 218.883, 184.785 219.352 C 185.556 219.821, 186.826 221.733, 187.607 223.602 C 188.388 225.471, 189.471 227, 190.013 227 C 190.556 227, 191 227.675, 191 228.500 C 191 229.325, 191.723 230, 192.606 230 C 193.489 230, 195.453 231.012, 196.972 232.250 C 198.490 233.488, 200.580 235.020, 201.616 235.656 C 203.443 236.776, 203.444 236.854, 201.660 238.208 C 199.996 239.472, 199.970 239.731, 201.397 240.914 C 202.265 241.635, 203.562 241.998, 204.279 241.723 C 204.997 241.448, 206.438 241.847, 207.483 242.611 C 208.528 243.375, 210.084 244.001, 210.941 244.002 C 213.125 244.006, 219 249.228, 219 251.165 C 219 253.459, 223.893 256.507, 225.307 255.093 C 226.675 253.725, 230.675 253.665, 231.500 255 C 231.840 255.550, 233.372 256, 234.904 256 C 238.354 256, 241.523 259.077, 239.824 260.776 C 238.240 262.360, 242.657 264.006, 251.097 264.976 C 259.135 265.900, 264.920 265.075, 266.356 262.798 C 267.915 260.325, 266.748 259.698, 259.064 258.877 C 252.238 258.147, 243.578 255.725, 241.433 253.944 C 240.819 253.435, 237.658 252.167, 234.408 251.127 C 227.425 248.892, 222.035 245.846, 217.160 241.380 C 215.210 239.593, 212.463 237.548, 211.057 236.834 C 209.651 236.121, 205.902 232.942, 202.726 229.769 C 199.550 226.596, 196.502 224, 195.951 224 C 195.401 224, 194.558 222.988, 194.078 221.750 C 193.598 220.512, 190.910 216.442, 188.103 212.704 C 185.296 208.967, 183 205.509, 183 205.022 C 183 204.534, 182.100 203.849, 181 203.500 C 178.807 202.804, 178.526 201.345, 179.904 197.815 C 181.390 194.008, 184.750 191.149, 189.254 189.857 C 194.495 188.354, 217.024 187.913, 218.766 189.279 C 220.753 190.837, 239.115 189.195, 241.250 187.269 C 243.235 185.478, 243.580 181.477, 241.842 180.402 C 240.066 179.305, 196.128 178.808, 190.803 179.825 C 186.220 180.700, 186.098 180.658, 185.781 178.111 C 185.338 174.560, 186.832 169.056, 189.107 165.855 C 190.140 164.401, 191.102 162.151, 191.243 160.855 C 191.472 158.759, 191.044 158.467, 187.351 158.197 C 184.616 157.998, 183.046 158.339, 182.744 159.197 M 180 177 C 180 178.867, 180.267 179.133, 181.200 178.200 C 182.133 177.267, 182.133 176.733, 181.200 175.800 C 180.267 174.867, 180 175.133, 180 177 M 69.500 182 C 69.160 182.550, 67.334 183, 65.441 183 C 61.893 183, 61.106 184.506, 62.607 188.418 C 63.477 190.684, 66 190.373, 66 188 C 66 185.296, 68.002 185.509, 70.855 188.517 C 72.150 189.883, 74.175 191.007, 75.355 191.015 C 78.421 191.037, 79.748 192.140, 80.149 195 C 80.439 197.064, 80.980 197.450, 83.250 197.212 C 85.109 197.018, 86 197.390, 86 198.363 C 86 200.145, 91.638 203.556, 96.943 204.985 C 99.128 205.573, 101.186 206.492, 101.517 207.027 C 102.494 208.608, 106.733 208.137, 107.410 206.373 C 108.289 204.083, 106.366 202.159, 102.465 201.427 C 100.631 201.083, 98.357 199.947, 97.410 198.901 C 96.464 197.855, 95.140 197, 94.467 197 C 93.795 197, 92.679 196.318, 91.987 195.485 C 91.296 194.651, 87.715 192.321, 84.030 190.306 C 80.197 188.209, 76.639 185.435, 75.712 183.821 C 74.107 181.024, 70.717 180.030, 69.500 182 M 205.861 184.967 L 203.500 186.933 207.309 186.967 C 209.435 186.985, 210.862 186.585, 210.538 186.061 C 210.219 185.545, 210.755 184.659, 211.729 184.092 C 213.269 183.195, 213.156 183.057, 210.861 183.030 C 209.409 183.014, 207.159 183.885, 205.861 184.967 M 214 185.999 C 214 186.549, 215.463 186.961, 217.250 186.914 C 219.037 186.868, 221.850 187.165, 223.500 187.576 C 226.216 188.252, 226.370 188.165, 225.128 186.661 C 223.603 184.816, 214 184.245, 214 185.999 M 170.500 189 C 170.160 189.550, 170.359 190, 170.941 190 C 171.523 190, 172 189.550, 172 189 C 172 188.450, 171.802 188, 171.559 188 C 171.316 188, 170.840 188.450, 170.500 189 M 146 191 C 147.957 192.264, 150 192.264, 150 191 C 150 190.450, 148.762 190.007, 147.250 190.015 C 145.107 190.027, 144.831 190.245, 146 191 M 51 193.059 C 51 194.191, 51.430 194.852, 51.956 194.527 C 52.482 194.202, 52.659 193.275, 52.349 192.468 C 51.556 190.401, 51 190.644, 51 193.059 M 52.630 225.250 C 51.599 229.099, 51.940 233.705, 53.342 234.869 C 55.207 236.417, 56.002 235.278, 55.986 231.083 C 55.970 226.755, 55.047 223, 54 223 C 53.578 223, 52.962 224.012, 52.630 225.250" stroke="none" fill="black" fill-rule="evenodd"/>
</svg>