<svg xmlns="http://www.w3.org/2000/svg" width="300" height="300" viewBox="0 0 300 300" version="1.1">
	<path d="M 173 13.805 C 169.914 15.311, 169.182 16.463, 166.813 23.540 C 165.335 27.955, 163.959 32.677, 163.755 34.033 C 163.551 35.390, 162.400 38.075, 161.196 40 C 159.992 41.925, 159.006 43.841, 159.004 44.259 C 159.002 44.676, 157.650 46.881, 156 49.159 C 154.350 51.436, 153 53.838, 153 54.495 C 153 55.152, 152.100 56.505, 151 57.500 C 149.900 58.495, 149 59.760, 149 60.311 C 149 60.861, 147.875 62.786, 146.500 64.589 C 145.125 66.392, 144 68.282, 144 68.790 C 144 69.298, 141.754 72.719, 139.008 76.391 C 135.027 81.717, 134.331 83.190, 135.568 83.664 C 137.348 84.347, 142.020 80.301, 145.572 75 C 146.862 73.075, 149.736 68.867, 151.959 65.649 C 154.181 62.431, 156 59.463, 156 59.054 C 156 58.645, 156.895 57.500, 157.989 56.510 C 159.082 55.521, 161.401 52.413, 163.142 49.605 C 168.751 40.558, 171.474 36.515, 172.412 35.839 C 172.916 35.476, 174.942 36.243, 176.914 37.544 C 178.886 38.844, 183.425 41.371, 187 43.159 C 191.369 45.344, 196.069 48.989, 201.337 54.278 C 209.272 62.244, 212 63.376, 212 58.703 C 212 55.669, 206.682 47.625, 201.287 42.501 C 198.971 40.301, 193.571 36.718, 189.287 34.541 C 185.004 32.363, 180.305 29.507, 178.845 28.195 L 176.190 25.808 178.595 22.265 C 181.500 17.984, 181.681 14.435, 179.066 13.035 C 176.738 11.789, 177.265 11.722, 173 13.805 M 172 31.965 C 172 33.278, 175.815 35.232, 176.977 34.514 C 177.492 34.196, 177.659 33.275, 177.349 32.468 C 176.731 30.857, 172 30.412, 172 31.965 M 180.500 36 C 180.840 36.550, 181.316 37, 181.559 37 C 181.802 37, 182 36.550, 182 36 C 182 35.450, 181.523 35, 180.941 35 C 180.359 35, 180.160 35.450, 180.500 36 M 185 37.965 C 185 39.188, 188.972 41.361, 189.763 40.571 C 190.088 40.245, 189.487 39.323, 188.427 38.521 C 186.165 36.810, 185 36.621, 185 37.965 M 183 72.195 C 181.625 72.822, 175.471 73.373, 169.324 73.418 C 159.777 73.488, 157.761 73.792, 155.497 75.500 C 152.032 78.115, 152.988 80.581, 157.818 81.488 C 165.398 82.912, 171.745 82.709, 179.013 80.811 C 183.131 79.736, 189.360 78.706, 192.856 78.522 C 200.397 78.126, 202.312 76.838, 199.461 74.083 C 197.018 71.721, 186.645 70.532, 183 72.195 M 44.500 77.845 C 42.372 78.319, 41.404 79.189, 41.170 80.839 C 40.796 83.471, 43.503 86.997, 45.905 87.006 C 47.555 87.013, 49.340 87.847, 57 92.191 C 64.924 96.685, 76.198 102.155, 87.676 107.075 C 92.918 109.322, 97 109.576, 97 107.655 C 97 106.111, 93.854 103, 92.294 103 C 91.717 103, 90.654 102.288, 89.932 101.418 C 89.210 100.548, 87.158 99.086, 85.371 98.168 C 73.818 92.235, 60.120 84.020, 57.201 81.274 C 53.571 77.860, 49.440 76.745, 44.500 77.845 M 53 85 C 53 85.550, 53.477 86, 54.059 86 C 54.641 86, 54.840 85.550, 54.500 85 C 54.160 84.450, 53.684 84, 53.441 84 C 53.198 84, 53 84.450, 53 85 M 135.040 98.724 C 129.027 101.790, 128.486 103.067, 130.322 109.848 C 132.571 118.155, 133.407 134.546, 132.075 144.229 C 130.168 158.091, 133.098 171.913, 138.660 175.300 C 140.439 176.383, 143 175.002, 143 172.960 C 143 171.956, 143.787 170.905, 144.750 170.623 C 151.219 168.732, 159.822 167.534, 168 167.385 C 173.225 167.290, 179.975 166.963, 183 166.658 C 186.025 166.353, 192.604 165.826, 197.619 165.487 C 202.634 165.148, 209.986 164.063, 213.955 163.077 C 219.915 161.596, 221.262 161.520, 221.693 162.642 C 222.511 164.775, 226.568 164.234, 229.735 161.570 C 233.627 158.295, 235.240 149.375, 235.721 128.479 C 236.155 109.615, 235.358 106.591, 228.817 102.257 C 224.986 99.719, 223.737 99.472, 213.078 99.146 C 206.710 98.952, 192.275 99.355, 181 100.041 C 169.725 100.728, 157.800 101.390, 154.500 101.513 C 146.461 101.813, 143 103.274, 143 106.367 C 143 109.554, 144.288 109.760, 162.338 109.462 C 177.112 109.219, 177.173 109.227, 176.443 111.359 C 175.124 115.205, 174.708 126.298, 175.910 125.556 C 176.562 125.153, 177 125.709, 177 126.941 C 177 128.073, 176.581 129, 176.070 129 C 175.513 129, 175.483 130.196, 175.993 131.975 C 177.281 136.466, 177.555 144.315, 176.437 144.688 C 175.894 144.869, 170.964 140.738, 165.483 135.508 C 160.001 130.279, 155.185 126, 154.781 126 C 154.377 126, 153.271 127.183, 152.323 128.629 C 150.655 131.176, 150.673 131.317, 152.911 133.129 C 154.182 134.158, 155.847 135, 156.611 135 C 157.375 135, 158.002 135.787, 158.005 136.750 C 158.010 138.778, 162.387 143.694, 167.761 147.707 C 169.817 149.243, 172.079 151.047, 172.786 151.715 C 173.494 152.383, 175.406 153.718, 177.036 154.681 C 179.827 156.329, 180.921 157.979, 179.250 158.017 C 160.549 158.451, 154.058 159.036, 150.500 160.610 C 146.359 162.441, 140.881 163.093, 139.989 161.862 C 139.709 161.474, 139.525 148.467, 139.582 132.957 C 139.673 107.803, 139.863 104.656, 141.342 103.828 C 143.614 102.557, 143.545 97.355, 141.250 96.841 C 140.287 96.626, 137.493 97.473, 135.040 98.724 M 200.577 101.876 C 199.957 102.879, 204.730 104.015, 209.375 103.970 C 211.589 103.948, 212.063 103.695, 211 103.103 C 208.629 101.782, 201.177 100.905, 200.577 101.876 M 184.183 103.280 C 183.364 104.266, 184.003 104.457, 187.125 104.159 C 191.575 103.735, 191.661 103.559, 187.864 102.650 C 186.253 102.264, 184.823 102.509, 184.183 103.280 M 173.493 104.476 C 171.606 105.944, 171.714 106.013, 175.500 105.764 C 177.700 105.619, 179.500 105.050, 179.500 104.500 C 179.500 102.837, 175.618 102.821, 173.493 104.476 M 194.720 107.613 C 194.397 107.936, 192.505 108.200, 190.514 108.200 C 185.873 108.200, 181.887 112.088, 182.596 115.925 C 183.978 123.409, 184.469 141.526, 183.406 145.838 C 182.775 148.402, 181.998 152.215, 181.682 154.311 C 181.130 157.960, 181.218 158.109, 183.737 157.811 C 185.562 157.595, 186.573 156.734, 187.038 155 C 187.406 153.625, 189.124 150.274, 190.854 147.554 C 192.584 144.834, 194 142, 194 141.256 C 194 140.512, 194.900 138.041, 196 135.764 C 197.100 133.487, 198 131.049, 198 130.346 C 198 127.335, 201.522 121.907, 203.856 121.321 C 206.430 120.675, 209 122.925, 209 125.825 C 209 129.505, 195.193 153.605, 192.490 154.642 C 191.670 154.957, 191 156.082, 191 157.142 C 191 158.700, 191.351 158.883, 192.829 158.092 C 193.835 157.553, 201.329 156.536, 209.482 155.832 C 218.069 155.090, 224.815 154.042, 225.516 153.342 C 226.181 152.677, 227.016 149.939, 227.371 147.259 C 228.244 140.683, 226.332 110.105, 224.944 108.433 C 224.118 107.437, 220.212 107.089, 209.571 107.062 C 201.726 107.043, 195.043 107.291, 194.720 107.613 M 47 113.900 C 42.844 114.454, 42.477 114.739, 42.196 117.625 C 42.022 119.415, 42.522 121.380, 43.368 122.225 C 45.242 124.099, 60.092 125.569, 73.265 125.185 C 78.636 125.029, 83.415 125.138, 83.885 125.429 C 84.870 126.038, 82.461 134.015, 79.894 138.647 C 73.151 150.815, 71.805 154.061, 72.939 155.427 C 73.732 156.382, 73.767 157.026, 73.049 157.470 C 72.472 157.826, 72 157.379, 72 156.476 C 72 153.522, 69.611 155.544, 67.030 160.683 C 63.527 167.656, 57.458 176.891, 51.320 184.587 C 46.022 191.232, 43.965 196.365, 45.847 198.247 C 47.118 199.518, 52 196.662, 52 194.648 C 52 193.930, 54.475 190.157, 57.500 186.264 C 60.525 182.371, 63 178.716, 63 178.142 C 63 177.569, 63.708 176.703, 64.573 176.219 C 65.439 175.735, 66.676 174.414, 67.323 173.285 C 71.900 165.298, 74.689 161.165, 76.975 158.984 C 78.425 157.600, 80.936 153.842, 82.556 150.632 C 84.175 147.422, 86.963 143.083, 88.750 140.989 C 90.538 138.895, 92 136.759, 92 136.241 C 92 135.724, 93.303 133.502, 94.895 131.304 C 104.040 118.680, 102.809 112.927, 91.603 115.917 C 89.346 116.519, 82.100 117.182, 75.500 117.390 C 64.451 117.738, 63.117 117.579, 58.668 115.384 C 56.010 114.073, 53.310 113.068, 52.668 113.150 C 52.026 113.233, 49.475 113.570, 47 113.900 M 55.500 120 C 53.572 120.829, 53.579 120.862, 55.691 120.930 C 56.896 120.968, 58.160 120.550, 58.500 120 C 59.231 118.817, 58.252 118.817, 55.500 120 M 82.107 155.914 C 81.310 156.418, 80.941 157.668, 81.246 158.833 C 81.539 159.954, 81.115 161.819, 80.303 162.978 C 78.683 165.291, 78.822 170.619, 80.865 184.500 C 81.513 188.900, 82.370 205.364, 82.771 221.087 L 83.500 249.673 86.415 253.878 C 89.422 258.217, 91.483 258.775, 93.378 255.765 C 94.211 254.442, 94.054 253.254, 92.715 250.765 C 91.222 247.988, 90.874 243.685, 90.390 222 C 90.077 207.975, 89.730 193.431, 89.619 189.680 C 89.509 185.929, 89.708 182.680, 90.063 182.461 C 90.418 182.241, 92.912 183.164, 95.604 184.511 C 98.297 185.858, 104.325 188.395, 109 190.149 C 113.675 191.903, 118.057 193.762, 118.737 194.281 C 120.530 195.647, 123 194.384, 123 192.099 C 123 191.020, 121.763 189.259, 120.250 188.186 C 116.113 185.253, 91.974 174, 89.818 174 C 87.414 174, 87.093 173.067, 86.221 163.533 C 85.501 155.673, 84.734 154.252, 82.107 155.914 M 156 163.573 C 156 164.505, 156.680 165.015, 157.667 164.823 C 160.176 164.337, 160.520 162, 158.083 162 C 156.855 162, 156 162.646, 156 163.573 M 174 163 C 172.781 163.788, 172.910 163.972, 174.691 163.985 C 175.896 163.993, 177.160 163.550, 177.500 163 C 178.287 161.727, 175.970 161.727, 174 163 M 173 176.073 C 169.425 176.596, 163.800 177.499, 160.500 178.079 C 157.200 178.660, 152.475 179.356, 150 179.625 C 144.023 180.276, 139.055 182.938, 138.315 185.884 C 137.604 188.715, 138.653 213.933, 140.566 240 C 141.385 251.161, 143.850 261.028, 145.809 260.985 C 148.958 260.915, 149.044 259.542, 148.018 225.615 C 146.996 191.801, 147.279 187.206, 150.318 188.307 C 150.968 188.542, 152.625 188.161, 154 187.460 C 156.435 186.218, 171.929 184.070, 183 183.439 C 189.913 183.045, 200.795 185.586, 203.741 188.281 C 207.055 191.313, 209.776 197.658, 210.912 205 C 212.130 212.869, 212.562 224.771, 211.663 225.670 C 211.305 226.029, 208.421 225.697, 205.256 224.933 C 201.378 223.998, 193.136 223.538, 180 223.522 C 162.553 223.502, 160.053 223.711, 156.255 225.500 C 151.568 227.709, 150.980 230.258, 155.013 230.888 C 156.381 231.102, 163.575 231.413, 171 231.580 C 178.425 231.747, 190.575 232.022, 198 232.192 L 211.500 232.500 212.085 236.886 C 212.407 239.299, 212.407 244.024, 212.085 247.386 L 211.500 253.500 201.500 254 C 187.293 254.710, 173.241 253.643, 168.893 251.524 C 165.470 249.855, 165.152 249.854, 162.643 251.498 C 159.633 253.470, 159.146 256.799, 161.750 257.604 C 162.713 257.902, 165.040 258.818, 166.922 259.639 C 172.301 261.985, 199.442 262.678, 204.427 260.595 C 206.526 259.718, 209.709 259, 211.500 259 C 215.308 259, 216.506 257.785, 217.411 253 C 220.909 234.520, 221.463 209.607, 218.643 197.577 C 216.998 190.556, 216.213 189.048, 211.743 184.321 C 207.968 180.330, 205.415 178.599, 201.599 177.442 C 195.163 175.491, 181.465 174.835, 173 176.073 M 189 179.019 C 186.937 179.601, 186.791 179.849, 188.166 180.437 C 189.082 180.829, 191.107 181, 192.666 180.818 C 195.307 180.509, 195.364 180.412, 193.500 179.400 C 192.400 178.803, 190.375 178.631, 189 179.019 M 168.235 179.708 C 166.990 179.947, 166.229 180.561, 166.544 181.071 C 167.353 182.381, 175.739 182.231, 176.566 180.893 C 177.043 180.122, 176.227 179.988, 173.875 180.454 C 171.381 180.947, 170.892 180.848, 172 180.076 C 173.333 179.147, 173.333 179.044, 172 179.151 C 171.175 179.218, 169.481 179.468, 168.235 179.708 M 101.500 184 C 101.840 184.550, 102.568 185, 103.118 185 C 103.668 185, 103.840 184.550, 103.500 184 C 103.160 183.450, 102.432 183, 101.882 183 C 101.332 183, 101.160 183.450, 101.500 184 M 187.500 227 C 187.160 227.550, 187.835 228, 189 228 C 190.165 228, 190.840 227.550, 190.500 227 C 190.160 226.450, 189.485 226, 189 226 C 188.515 226, 187.840 226.450, 187.500 227 M 159.500 228 C 159.160 228.550, 159.359 229, 159.941 229 C 160.523 229, 161 228.550, 161 228 C 161 227.450, 160.802 227, 160.559 227 C 160.316 227, 159.840 227.450, 159.500 228" stroke="none" fill="black" fill-rule="evenodd"/>
</svg>