<svg xmlns="http://www.w3.org/2000/svg" width="300" height="300" viewBox="0 0 300 300" version="1.1">
	<path d="M 203.750 21.080 C 202.787 21.641, 202 22.941, 202 23.969 C 202 25.968, 199.309 31.524, 197.250 33.776 C 196.563 34.528, 196 36.925, 196 39.104 C 196 41.282, 195.375 44.560, 194.611 46.388 C 193.847 48.216, 193.463 50.972, 193.758 52.512 C 194.097 54.289, 193.775 55.713, 192.875 56.406 C 191.044 57.819, 185 66.135, 185 67.242 C 185 67.709, 183.875 69.216, 182.500 70.591 C 181.125 71.966, 179.992 73.633, 179.983 74.295 C 179.973 74.958, 178.848 76.560, 177.483 77.855 C 176.117 79.150, 174.982 80.725, 174.959 81.355 C 174.937 81.985, 172.923 84.975, 170.483 88 C 168.043 91.025, 164.155 96.200, 161.843 99.500 C 159.531 102.800, 157.270 105.650, 156.819 105.833 C 156.369 106.017, 156 107.254, 156 108.583 C 156 112.598, 159.301 111.505, 163.049 106.250 C 166.209 101.819, 172.764 93.421, 177.084 88.268 C 178.114 87.040, 180.654 83.440, 182.728 80.268 C 184.803 77.095, 186.838 74.350, 187.250 74.167 C 187.662 73.983, 188 73.233, 188 72.500 C 188 71.767, 188.359 71.017, 188.798 70.833 C 189.237 70.650, 190.518 68.700, 191.645 66.500 C 194.183 61.546, 196.989 60.594, 197.025 64.677 C 197.141 78.037, 197.978 102.898, 198.514 108.887 C 199.219 116.766, 198.682 117.953, 194.404 117.985 C 193.251 117.993, 190.809 118.747, 188.979 119.660 C 184.233 122.028, 174.643 124.180, 166.500 124.705 C 162.650 124.953, 159.106 125.538, 158.624 126.004 C 158.141 126.471, 157.599 128.596, 157.419 130.727 L 157.090 134.601 165.295 133.796 C 169.808 133.354, 175.300 132.565, 177.500 132.044 C 179.700 131.523, 183.637 130.822, 186.250 130.487 C 188.863 130.152, 191 129.455, 191 128.939 C 191 127.203, 196.749 127.914, 197.552 129.750 C 197.973 130.713, 198.284 131.725, 198.244 132 C 198.203 132.275, 197.732 135.650, 197.197 139.500 C 196.661 143.350, 195.099 148.975, 193.726 152 C 192.352 155.025, 190.444 160.200, 189.486 163.500 C 188.527 166.800, 187.351 169.928, 186.871 170.450 C 186.392 170.973, 186 172.142, 186 173.050 C 186 173.957, 184.650 176.564, 183 178.841 C 181.055 181.526, 180 184.189, 180 186.412 C 180 189.073, 179.104 190.747, 176 193.882 C 173.800 196.104, 172 198.629, 172 199.492 C 172 200.356, 171.325 201.322, 170.500 201.638 C 169.675 201.955, 169 202.654, 169 203.191 C 169 205.334, 145.507 229, 143.380 229 C 142.621 229, 142 229.675, 142 230.500 C 142 232.334, 143.609 232.466, 144.700 230.721 C 145.140 230.018, 147.403 228.604, 149.730 227.579 C 152.056 226.553, 155.431 224.412, 157.230 222.820 C 163.117 217.611, 169 211.989, 169 211.574 C 169 211.351, 170.833 209.217, 173.073 206.834 C 176.925 202.735, 183 194.504, 183 193.383 C 183 193.099, 184.014 191.434, 185.253 189.683 C 190.029 182.933, 192.344 178.260, 194.631 170.750 C 196.111 165.891, 198.185 164.626, 199.552 167.750 C 200.400 169.689, 200.300 187.705, 199.433 189.108 C 199.132 189.595, 198.900 202.937, 198.918 218.756 C 198.944 241.503, 199.267 248.561, 200.464 252.509 C 201.297 255.254, 201.983 260.695, 201.989 264.601 C 202.004 274.334, 203.374 278, 206.997 278 C 209.609 278, 209.829 277.679, 210.251 273.250 C 210.499 270.637, 210.288 254.325, 209.781 237 C 208.894 206.655, 209.347 182.089, 210.901 176.278 C 212.130 171.681, 216.811 172.679, 218.466 177.892 C 219.152 180.054, 218.979 180.229, 216.611 179.776 C 215.175 179.502, 214 179.717, 214 180.253 C 214 181.392, 228.101 194.931, 229.329 194.972 C 229.786 194.987, 229.862 193.650, 229.500 192 C 228.769 188.670, 230.183 188.064, 233.250 190.392 C 235.395 192.020, 235.530 194.859, 233.500 195.638 C 231.259 196.498, 231.685 197.930, 234.500 199 C 235.875 199.523, 237 200.360, 237 200.861 C 237 201.362, 238.556 202.510, 240.458 203.413 C 242.359 204.315, 244.186 205.491, 244.517 206.027 C 244.847 206.562, 245.879 207.012, 246.809 207.026 C 247.739 207.040, 250.974 208.627, 253.999 210.554 C 257.023 212.481, 261.186 214.511, 263.249 215.067 C 265.312 215.623, 267 216.510, 267 217.039 C 267 217.567, 268.070 218, 269.378 218 C 270.685 218, 272.315 218.675, 273 219.500 C 273.685 220.325, 274.942 221, 275.794 221 C 276.646 221, 278.157 221.737, 279.153 222.638 C 280.628 223.973, 281.243 224.043, 282.481 223.016 C 285.425 220.573, 284.147 218.272, 277.525 214.090 C 273.963 211.840, 270.789 210, 270.471 210 C 270.154 210, 266.547 207.525, 262.456 204.500 C 258.366 201.475, 254.435 199, 253.722 199 C 253.008 199, 250.866 197.668, 248.962 196.041 C 247.058 194.413, 245.045 193.063, 244.489 193.041 C 243.933 193.018, 241.683 191.434, 239.489 189.519 C 237.295 187.605, 235.157 186.030, 234.737 186.019 C 233.032 185.976, 216.124 167.629, 215.515 165.161 C 215.153 163.697, 213.709 161.292, 212.305 159.816 C 209.813 157.196, 209.750 156.779, 209.667 142.316 C 209.568 125.150, 210.027 123.013, 213.817 122.968 C 215.293 122.951, 217.374 122.276, 218.441 121.468 C 219.509 120.661, 221.414 120, 222.676 120 C 223.938 120, 227.164 118.650, 229.846 117 C 232.527 115.350, 235.605 114, 236.686 114 C 240.962 114, 245.204 105.783, 241.635 104.413 C 240.884 104.125, 238.210 105.039, 235.692 106.445 C 233.175 107.850, 230.362 109, 229.442 109 C 228.521 109, 225.458 109.723, 222.634 110.607 C 210.972 114.257, 210.796 114.288, 209.918 112.868 C 208.277 110.212, 207.526 100.198, 207.513 80.801 C 207.503 66.360, 207.834 60.767, 208.750 59.851 C 210.239 58.361, 210.426 54, 209 54 C 208.450 54, 207.947 52.763, 207.882 51.250 L 207.763 48.500 207.127 51.500 C 206.625 53.864, 205.888 54.569, 203.649 54.826 C 200.916 55.139, 200.835 55.025, 201.515 51.826 C 201.904 49.997, 202.778 47.825, 203.456 47 C 204.135 46.175, 205.475 43.475, 206.434 41 C 207.393 38.525, 208.545 36.050, 208.993 35.500 C 209.441 34.950, 210.120 31.969, 210.503 28.876 C 211.141 23.723, 211.005 23.117, 208.877 21.626 C 206.186 19.741, 206.070 19.729, 203.750 21.080 M 95.494 33.009 C 95.152 33.564, 95.131 34.839, 95.450 35.842 C 95.862 37.141, 95.297 37.999, 93.486 38.824 C 92.088 39.461, 90.644 40.774, 90.278 41.741 C 89.912 42.709, 88.980 44.139, 88.207 44.921 C 86.998 46.143, 87.111 46.575, 89.015 48.011 L 91.228 49.681 88.708 52.090 C 87.321 53.416, 85.357 55.175, 84.343 56 C 82.305 57.659, 79 63.179, 79 64.925 C 79 65.539, 75.850 69.173, 72 73 C 64.904 80.054, 63.731 82, 66.577 82 C 68.587 82, 74 76.636, 74 74.644 C 74 73.089, 77.687 71.354, 78.744 72.411 C 79.071 72.737, 79.763 80.925, 80.283 90.605 C 81.310 109.736, 80.809 113, 76.842 113 C 75.632 113, 73.260 113.420, 71.571 113.932 C 69.882 114.445, 66.700 115.324, 64.500 115.885 C 55.329 118.223, 49 120.320, 49 121.020 C 49 121.431, 48.044 122.017, 46.876 122.322 C 45.244 122.749, 44.883 123.413, 45.317 125.189 C 45.634 126.486, 45.250 128.352, 44.441 129.441 C 42.490 132.069, 42.626 133.221, 44.750 132.062 C 45.713 131.536, 49.425 130.144, 53 128.968 C 56.575 127.792, 59.950 126.475, 60.500 126.041 C 61.050 125.606, 62.850 124.986, 64.500 124.662 C 66.150 124.338, 68.932 123.785, 70.683 123.433 C 74.426 122.680, 76.080 120, 72.802 120 C 70.002 120, 71.262 118.765, 74.218 118.612 C 77.700 118.431, 79 122.064, 79 131.975 C 79 139.655, 78.695 141.170, 76.500 144.405 C 73.832 148.336, 73.386 150, 75 150 C 77.310 150, 75.678 152.856, 71 157 C 68.176 159.502, 65.981 162.315, 65.957 163.465 C 65.933 164.584, 64.826 167.300, 63.497 169.500 C 62.168 171.700, 60.380 174.871, 59.523 176.546 C 58.667 178.221, 56.624 181.061, 54.983 182.858 C 53.342 184.654, 52 186.367, 52 186.665 C 52 188.017, 43.364 198.893, 42.250 198.943 C 41.563 198.975, 41 199.457, 41 200.015 C 41 201.366, 32.567 210, 31.248 210 C 29.971 210, 28.791 212.852, 29.556 214.090 C 30.869 216.215, 34.104 214.799, 36.619 211 C 38.075 208.800, 39.768 206.997, 40.383 206.993 C 41.958 206.984, 57 191.089, 57 189.434 C 57 188.857, 63.038 180.867, 64.129 180 C 65.307 179.064, 73.726 164.517, 75.559 160.250 C 77.511 155.707, 78.145 155.265, 79.820 157.283 C 80.525 158.132, 80.581 159.917, 79.987 162.560 C 79.494 164.757, 78.876 176.892, 78.614 189.527 C 78.353 202.162, 77.819 217.922, 77.427 224.549 C 76.905 233.383, 77.045 237.215, 77.950 238.907 C 78.843 240.576, 78.883 241.517, 78.093 242.307 C 76.614 243.786, 76.689 260.809, 78.200 266.458 C 79.114 269.874, 80.033 271.165, 82.056 271.870 C 83.517 272.379, 85.240 272.470, 85.884 272.071 C 86.732 271.548, 87.196 260.857, 87.562 233.424 C 88.265 180.673, 89.089 165.822, 91.618 160.250 C 93.379 156.373, 94.102 156.263, 97.448 159.365 C 100.641 162.324, 100.651 163, 97.500 163 C 94.206 163, 94.322 164.588, 97.750 166.412 C 99.263 167.217, 102.677 169.929, 105.337 172.440 C 107.998 174.951, 111.260 177.278, 112.587 177.611 C 113.914 177.944, 115.005 178.506, 115.011 178.858 C 115.018 179.211, 116.930 180.337, 119.261 181.360 C 121.593 182.383, 124.281 183.620, 125.236 184.110 C 127.806 185.427, 133.598 185.189, 134.820 183.716 C 136.152 182.112, 135.262 180.794, 131.834 179.289 C 127.332 177.314, 116.860 169.483, 109.500 162.590 C 95.447 149.427, 92.617 147, 91.321 147 C 90.298 147, 90 144.222, 90 134.674 C 90 123.165, 90.149 122.213, 92.250 120.302 C 93.487 119.176, 95.625 118.017, 97 117.726 C 100.269 117.033, 112.273 112.499, 115.764 110.638 C 120.062 108.346, 125.696 106, 126.901 106 C 127.506 106, 128 105.649, 128 105.219 C 128 104.790, 129.350 103.929, 131 103.306 C 132.942 102.573, 134 101.475, 134 100.194 C 134 97.686, 131.935 96.879, 128.323 97.975 C 126.770 98.446, 123.893 99.319, 121.929 99.916 C 119.965 100.512, 117.410 101, 116.250 101 C 115.091 101, 113.540 101.603, 112.804 102.339 C 111.538 103.604, 109.679 104.234, 103.250 105.573 C 101.737 105.888, 98.910 106.987, 96.966 108.015 C 90.922 111.213, 90.823 110.867, 90.292 84.870 C 89.797 60.605, 90.265 56.877, 94.315 52.827 C 95.070 52.073, 96.883 49.562, 98.344 47.248 C 101.503 42.244, 102.133 33.649, 99.418 32.607 C 97.184 31.750, 96.211 31.849, 95.494 33.009 M 83.250 102.141 C 81.638 103.765, 81.703 107.025, 83.392 109.250 C 85.504 112.032, 87 111.306, 87 107.500 C 87 105.575, 86.583 104, 86.073 104 C 85.564 104, 85.001 103.299, 84.823 102.441 C 84.564 101.190, 84.254 101.131, 83.250 102.141 M 103.459 110.067 C 102.433 111.727, 103.354 111.957, 104.789 110.399 C 105.499 109.630, 105.638 109, 105.098 109 C 104.559 109, 103.821 109.480, 103.459 110.067 M 217.500 117 C 217.160 117.550, 217.359 118, 217.941 118 C 218.523 118, 219 117.550, 219 117 C 219 116.450, 218.802 116, 218.559 116 C 218.316 116, 217.840 116.450, 217.500 117 M 191 124 C 191 124.550, 191.675 125, 192.500 125 C 193.325 125, 194 124.550, 194 124 C 194 123.450, 193.325 123, 192.500 123 C 191.675 123, 191 123.450, 191 124 M 185.835 124.708 C 183.496 125.066, 180.820 128, 182.832 128 C 184.258 128, 188.984 125.507, 188.992 124.750 C 188.996 124.338, 188.887 124.067, 188.750 124.150 C 188.613 124.232, 187.301 124.483, 185.835 124.708 M 48.008 125.974 C 46.820 126.725, 46.770 127.170, 47.758 128.158 C 48.747 129.147, 49 129.071, 49 127.783 C 49 126.894, 49.563 125.940, 50.250 125.662 C 50.938 125.385, 51.050 125.129, 50.500 125.094 C 49.950 125.059, 48.829 125.455, 48.008 125.974 M 173.269 128.693 C 174.242 128.947, 175.592 128.930, 176.269 128.656 C 176.946 128.382, 176.150 128.175, 174.500 128.195 C 172.850 128.215, 172.296 128.439, 173.269 128.693 M 83.015 153.750 C 83.024 154.162, 83.467 155.175, 84 156 C 84.784 157.213, 84.972 157.069, 84.985 155.250 C 84.993 154.012, 84.550 153, 84 153 C 83.450 153, 83.007 153.338, 83.015 153.750 M 220.500 183 C 220.840 183.550, 221.316 184, 221.559 184 C 221.802 184, 222 183.550, 222 183 C 222 182.450, 221.523 182, 220.941 182 C 220.359 182, 220.160 182.450, 220.500 183 M 247.020 202.524 C 247.716 203.362, 248.491 203.842, 248.743 203.591 C 249.436 202.897, 248.027 201, 246.819 201 C 246.155 201, 246.231 201.574, 247.020 202.524 M 257.559 208.468 C 260.263 210.514, 262.690 210.536, 261 208.500 C 260.315 207.675, 258.824 207, 257.686 207 C 255.653 207, 255.651 207.025, 257.559 208.468 M 129.500 228 C 129.160 228.550, 129.359 229, 129.941 229 C 130.523 229, 131 228.550, 131 228 C 131 227.450, 130.802 227, 130.559 227 C 130.316 227, 129.840 227.450, 129.500 228" stroke="none" fill="black" fill-rule="evenodd"/>
</svg>