<svg xmlns="http://www.w3.org/2000/svg" width="300" height="300" viewBox="0 0 300 300" version="1.1">
	<path d="M 171.616 20.305 C 171.292 21.512, 171.021 24.407, 171.014 26.739 C 170.993 33.255, 164.315 55.191, 161.041 59.500 C 160.623 60.050, 159.441 62.743, 158.415 65.484 C 157.389 68.226, 155.141 72.561, 153.420 75.119 C 151.699 77.676, 147.726 84.883, 144.590 91.134 C 141.455 97.385, 137.565 104.966, 135.945 107.980 C 132.328 114.711, 131.739 123, 134.879 123 C 136.068 123, 137.229 121.807, 138.043 119.750 C 138.751 117.963, 139.884 115.825, 140.561 115 C 142.488 112.653, 150 97.888, 150 96.447 C 150 95.735, 151.125 93.817, 152.499 92.184 C 155.115 89.074, 162.615 75.593, 168.595 63.250 C 171.169 57.937, 172.628 56, 174.054 56 C 175.124 56, 176 55.325, 176 54.500 C 176 52.099, 183.621 52.444, 184.257 54.873 C 184.676 56.476, 185.523 56.691, 190.123 56.359 C 193.382 56.125, 195.946 55.375, 196.632 54.457 C 197.637 53.110, 197.832 53.119, 198.376 54.538 C 199.093 56.405, 204.635 56.201, 204.274 54.321 C 204.125 53.545, 205.664 53.157, 208.774 53.186 C 213.830 53.233, 219.254 52.382, 222.500 51.032 C 223.600 50.574, 227.200 49.444, 230.500 48.520 C 233.800 47.596, 237.625 46.463, 239 46.001 C 240.375 45.540, 242.767 44.885, 244.315 44.546 C 246.512 44.065, 247.061 43.443, 246.815 41.715 C 246.584 40.089, 245.702 39.408, 243.500 39.153 C 239.915 38.739, 231.173 40.568, 227.151 42.574 C 225.565 43.366, 221.619 44.536, 218.383 45.174 C 215.148 45.813, 212.262 46.688, 211.970 47.120 C 211.244 48.197, 194.914 50.101, 184.529 50.320 L 175.999 50.500 175.999 47.799 C 176 46.313, 176.675 42.506, 177.500 39.339 C 178.325 36.171, 179 30.735, 179 27.259 C 179 22.111, 178.675 20.837, 177.250 20.396 C 176.287 20.098, 174.758 19.462, 173.852 18.982 C 172.602 18.321, 172.062 18.640, 171.616 20.305 M 89.823 48.337 C 83.995 50.509, 86.263 58.898, 93.519 62.008 C 96.740 63.389, 97.806 64.342, 97.378 65.458 C 97.035 66.352, 97.323 67, 98.064 67 C 98.767 67, 100.053 67.595, 100.921 68.322 C 104.038 70.933, 110.727 72.313, 117.053 71.652 C 124.837 70.839, 132.280 67.678, 131.828 65.379 C 131.154 61.953, 128.519 61.530, 122.903 63.946 C 119.974 65.206, 115.498 66.269, 112.958 66.307 C 108.929 66.368, 107.549 65.770, 102.172 61.632 C 96.945 57.611, 95.910 56.289, 95.378 52.963 C 94.606 48.132, 93.297 47.042, 89.823 48.337 M 157.500 75 C 157.160 75.550, 157.359 76, 157.941 76 C 158.523 76, 159 75.550, 159 75 C 159 74.450, 158.802 74, 158.559 74 C 158.316 74, 157.840 74.450, 157.500 75 M 208 77 C 208 78.333, 208.667 79, 210 79 C 211.333 79, 212 78.333, 212 77 C 212 75.667, 211.333 75, 210 75 C 208.667 75, 208 75.667, 208 77 M 198 81.950 C 198 85.279, 176.034 109.103, 166.407 116.215 C 164.706 117.472, 161.709 119.913, 159.748 121.640 L 156.182 124.779 157.083 149.140 C 157.639 164.177, 157.616 182.329, 157.022 196.567 C 156.340 212.935, 156.378 220.777, 157.153 223.567 C 158.507 228.438, 157.549 243.902, 155.352 252.650 C 153.534 259.888, 153.972 262, 157.294 262 C 160.331 262, 163.026 258.874, 165.913 252 C 167.184 248.975, 168.881 244.925, 169.685 243 C 170.489 241.075, 172.165 237.925, 173.409 236 C 174.654 234.075, 177.837 229.125, 180.483 225 C 183.129 220.875, 186.128 216.281, 187.147 214.790 C 189.361 211.553, 189.467 210.393, 187.615 209.682 C 186.107 209.104, 182.647 212.440, 178.890 218.098 C 175.238 223.596, 166.007 233.341, 165.209 232.541 C 164.190 231.521, 164.609 127.511, 165.640 125.727 C 166.113 124.907, 169.446 121.821, 173.047 118.868 C 181.315 112.088, 182.812 110.803, 184.298 109.214 C 184.959 108.506, 189.243 104.231, 193.817 99.714 C 198.392 95.196, 203.056 90.234, 204.181 88.686 L 206.228 85.871 203.940 83.436 C 201.679 81.029, 198 80.109, 198 81.950 M 200 86.500 C 200 87.325, 200.450 88, 201 88 C 201.550 88, 202 87.325, 202 86.500 C 202 85.675, 201.550 85, 201 85 C 200.450 85, 200 85.675, 200 86.500 M 107.500 89.122 C 105.300 89.629, 102.082 90.709, 100.349 91.522 C 98.616 92.335, 96.484 93, 95.612 93 C 94.740 93, 90.870 94.890, 87.013 97.201 C 80.267 101.241, 78.396 103.891, 81.107 105.566 C 82.616 106.499, 89.636 104.146, 94.500 101.078 C 99.197 98.114, 104.612 96.036, 107.691 96.015 C 108.896 96.007, 110.160 95.550, 110.500 95 C 111.561 93.284, 120.698 93.772, 121.393 95.582 C 122.298 97.941, 122.241 98, 119.047 98 C 116.537 98, 115.809 98.638, 114.195 102.250 C 113.151 104.588, 105.930 114.721, 98.148 124.770 C 90.367 134.818, 84 143.330, 84 143.686 C 84 144.041, 83.310 145.045, 82.466 145.916 C 80.597 147.845, 66.964 166.142, 61.628 173.883 C 59.498 176.972, 56.686 180.772, 55.378 182.327 C 52.048 186.285, 52.221 189, 55.804 189 C 58.001 189, 59.898 187.557, 64.554 182.341 C 67.825 178.679, 70.725 175.192, 71 174.591 C 72.021 172.363, 75.581 167.400, 78.462 164.188 C 81.682 160.600, 90 148.049, 90 146.780 C 90 146.351, 90.675 146, 91.500 146 C 92.765 146, 93.010 148.389, 93.062 161.250 C 93.241 205.320, 94.135 247.526, 95.058 255.500 C 96.224 265.573, 97.969 269.287, 101.313 268.811 C 103.079 268.560, 103.450 267.923, 103.240 265.500 C 101.475 245.131, 100.441 180.430, 101.845 178.216 C 102.294 177.508, 103.409 177.220, 104.330 177.573 C 105.270 177.934, 106 177.730, 106 177.107 C 106 176.498, 106.450 176, 107 176 C 107.550 176, 108 176.599, 108 177.331 C 108 178.693, 110.728 180.377, 114.770 181.511 C 116.019 181.861, 119.077 183.703, 121.568 185.603 C 125.933 188.935, 128 189.265, 128 186.628 C 128 183.873, 115.878 175.204, 106.500 171.254 C 102.174 169.431, 101.433 168.699, 101 165.824 C 100.333 161.393, 100.888 138.956, 101.829 132.289 C 101.923 131.623, 102.811 130.273, 103.803 129.289 C 107.616 125.506, 114.818 116.189, 119.484 109 C 122.162 104.875, 125.183 100.269, 126.196 98.764 C 131.893 90.307, 130.344 87.954, 119.179 88.100 C 114.955 88.156, 109.700 88.615, 107.500 89.122 M 227.896 136.288 C 227.013 136.959, 225.962 138.545, 225.560 139.812 C 225.157 141.080, 222.456 144.776, 219.557 148.025 C 216.658 151.274, 212.759 155.942, 210.893 158.399 C 205.452 165.561, 200 166.614, 200 160.502 C 200 159.263, 198.906 155.776, 197.569 152.753 C 196.233 149.730, 194.832 145.624, 194.458 143.628 C 193.645 139.295, 190.888 138.715, 188.492 142.372 C 187.084 144.521, 187.087 145.206, 188.525 149.622 C 189.398 152.305, 190.709 155.850, 191.438 157.500 C 192.167 159.150, 193.725 162.667, 194.900 165.315 C 196.076 167.964, 196.746 170.601, 196.391 171.177 C 196.035 171.753, 196.180 172.511, 196.713 172.862 C 197.247 173.213, 199.578 177.162, 201.894 181.637 C 204.211 186.113, 207.657 191.186, 209.553 192.912 C 211.449 194.637, 213.002 196.825, 213.005 197.774 C 213.019 203.248, 224.235 223.507, 226.723 222.553 C 227.785 222.145, 228.045 222.440, 227.614 223.563 C 227.259 224.489, 228.268 226.982, 230.041 229.559 C 233.450 234.514, 236.559 236.733, 237.303 234.742 C 237.595 233.961, 238.054 234.242, 238.540 235.500 C 238.965 236.600, 240.930 240.078, 242.906 243.229 C 245.443 247.273, 247.130 248.965, 248.643 248.979 C 249.822 248.991, 251.063 249.722, 251.401 250.604 C 251.753 251.519, 252.657 251.962, 253.508 251.635 C 254.329 251.320, 255 251.499, 255 252.031 C 255 252.564, 255.878 253, 256.950 253 C 258.023 253, 259.337 253.780, 259.871 254.734 C 260.531 255.914, 263.343 256.920, 268.671 257.883 C 280.026 259.936, 284.908 259.846, 286.585 257.553 C 288.604 254.792, 286.687 252.730, 283.466 254.198 C 281.747 254.981, 279.887 254.975, 276.792 254.179 C 274.431 253.572, 270.587 252.793, 268.250 252.449 C 265.913 252.106, 264 251.445, 264 250.982 C 264 250.519, 261.637 249.268, 258.750 248.202 C 255.256 246.913, 252.764 245.192, 251.299 243.057 C 250.088 241.292, 245.501 235.945, 241.105 231.174 C 236.709 226.404, 232.474 221.775, 231.694 220.888 C 230.291 219.294, 227.341 213.383, 221.893 201.255 C 220.350 197.820, 218.612 194.445, 218.030 193.755 C 210.706 185.069, 205.228 170.424, 208.852 169.216 C 210.367 168.711, 222.713 158.403, 225.273 155.506 C 227.690 152.771, 231 146.424, 231 144.526 C 231 143.672, 231.559 142.077, 232.243 140.983 C 234.386 137.551, 231.018 133.913, 227.896 136.288 M 224.500 149 C 224.160 149.550, 224.359 150, 224.941 150 C 225.523 150, 226 149.550, 226 149 C 226 148.450, 225.802 148, 225.559 148 C 225.316 148, 224.840 148.450, 224.500 149 M 159 154.059 C 159 154.641, 159.450 154.840, 160 154.500 C 160.550 154.160, 161 153.684, 161 153.441 C 161 153.198, 160.550 153, 160 153 C 159.450 153, 159 153.477, 159 154.059 M 262.750 255.662 C 263.438 255.940, 264.563 255.940, 265.250 255.662 C 265.938 255.385, 265.375 255.158, 264 255.158 C 262.625 255.158, 262.063 255.385, 262.750 255.662" stroke="none" fill="black" fill-rule="evenodd"/>
</svg>