<svg xmlns="http://www.w3.org/2000/svg" width="300" height="300" viewBox="0 0 300 300" version="1.1">
	<path d="M 77.050 12.969 C 75.066 14.195, 76.452 16.668, 80.199 18.583 C 82.014 19.511, 83.860 20.885, 84.300 21.635 C 84.740 22.386, 85.767 23, 86.583 23 C 87.399 23, 90.264 24.114, 92.951 25.475 C 98.446 28.260, 105.443 29.711, 106.344 28.253 C 107.162 26.929, 102.455 22.674, 100.821 23.261 C 100.095 23.522, 96.757 22.221, 93.404 20.368 C 90.051 18.516, 86.619 17, 85.776 17 C 84.934 17, 83.664 16.300, 82.955 15.445 C 80.987 13.074, 78.540 12.048, 77.050 12.969 M 233.691 44.098 C 231.596 45.204, 227.546 46.348, 224.691 46.640 C 221.836 46.933, 217.700 47.868, 215.500 48.718 C 210.631 50.599, 188.103 50.786, 179.580 49.017 C 170.738 47.181, 167.221 49.427, 172.691 53.417 C 174.510 54.744, 176.833 55.299, 180.239 55.222 C 182.945 55.160, 186.211 55.510, 187.497 55.999 C 188.996 56.569, 190.960 56.464, 192.963 55.708 C 195.445 54.771, 196.255 54.795, 196.890 55.822 C 197.393 56.635, 198.625 56.881, 200.209 56.484 C 201.998 56.035, 202.904 56.308, 203.333 57.426 C 203.760 58.539, 205.270 59, 208.493 59 C 212.507 59, 213.170 58.683, 214.062 56.337 C 214.831 54.313, 215.353 53.953, 216.237 54.837 C 217.868 56.468, 223.516 56.288, 224.951 54.559 C 225.608 53.767, 226.742 53.348, 227.471 53.627 C 228.200 53.907, 229.742 53.120, 230.898 51.879 C 232.971 49.653, 233 49.651, 233 51.704 C 233 52.849, 233.675 54.045, 234.500 54.362 C 236.381 55.084, 236.450 57.640, 234.617 58.700 C 233.857 59.140, 232.282 62.993, 231.117 67.261 C 227.738 79.649, 228.611 101.529, 232.663 105.964 C 233.822 107.234, 234.001 107.167, 234.006 105.464 C 234.010 104.384, 234.744 102.150, 235.639 100.500 C 236.852 98.262, 237.227 95.102, 237.116 88.061 C 237.026 82.325, 237.540 76.638, 238.427 73.561 C 239.230 70.778, 240.204 66.025, 240.591 63 C 240.979 59.975, 241.904 55.756, 242.648 53.624 C 246.225 43.370, 242.526 39.436, 233.691 44.098 M 122 50.683 C 120.075 51.538, 117.825 52.638, 117 53.125 C 116.175 53.613, 115.050 54.167, 114.500 54.355 C 113.950 54.543, 111.925 55.267, 110 55.964 C 106.299 57.304, 87.368 61.398, 77.837 62.919 C 74.723 63.417, 70.602 64.569, 68.681 65.481 C 66.759 66.393, 63.008 67.449, 60.344 67.827 C 56.053 68.436, 55.465 68.818, 55.192 71.171 C 54.827 74.317, 57.380 75.566, 61.201 74.114 C 62.667 73.556, 64.242 73.540, 65.083 74.073 C 67.003 75.288, 71 75.238, 71 74 C 71 73.450, 71.900 73, 73 73 C 74.100 73, 75.862 72.138, 76.916 71.084 C 78.410 69.590, 79.731 69.288, 82.916 69.716 C 86.530 70.200, 87 70.030, 87 68.239 C 87 67.125, 87.675 65.955, 88.500 65.638 C 90.782 64.763, 92.953 65.959, 92.277 67.720 C 91.782 69.012, 92.256 69.158, 95.090 68.589 C 96.966 68.213, 100.073 67.639, 101.996 67.314 C 106.261 66.594, 110.210 64.149, 109.352 62.761 C 109.005 62.200, 109.315 61.938, 110.039 62.180 C 112.853 63.118, 113.535 65.824, 111.730 68.880 C 110.778 70.491, 110 72.329, 110 72.964 C 110 73.600, 108.537 76.081, 106.750 78.478 C 99.841 87.741, 91.577 99.202, 90.562 100.925 C 89.978 101.917, 88.516 104.517, 87.313 106.702 C 86.110 108.887, 79.518 119.062, 72.665 129.313 C 61.124 146.576, 55.241 156.567, 46.073 174.480 C 44.108 178.319, 41.913 182.088, 41.196 182.856 C 40.478 183.623, 40.028 185.432, 40.196 186.876 C 40.889 192.856, 49.776 189.089, 51.505 182.082 C 51.855 180.662, 53.400 177.475, 54.939 175 C 56.477 172.525, 59.538 167.125, 61.741 163 C 67.190 152.798, 68.538 150.592, 75.731 140.095 C 79.157 135.094, 82.249 129.854, 82.602 128.451 C 83.013 126.810, 83.823 126.011, 84.871 126.211 C 86.824 126.585, 87.456 130.204, 89.461 152.500 C 90.253 161.300, 90.923 168.661, 90.950 168.857 C 90.978 169.053, 91.675 168.955, 92.500 168.638 C 93.442 168.277, 94 168.649, 94 169.638 C 94 170.557, 93.432 170.996, 92.638 170.691 C 90.943 170.041, 89.820 182.266, 90.704 191.736 C 91.183 196.860, 91.537 197.799, 92.645 196.880 C 93.390 196.261, 94 195.135, 94 194.378 C 94 193.620, 94.574 193, 95.276 193 C 96.162 193, 96.436 194.223, 96.171 197 C 95.840 200.477, 95.469 201, 93.335 201 L 90.879 201 91.510 210.250 C 91.857 215.338, 92.295 224, 92.483 229.500 C 92.671 235, 93.297 243.100, 93.874 247.500 C 96.443 267.106, 96.897 272.474, 96.331 276.598 L 95.728 281 100.864 281 L 106 281 106 273.688 C 106 269.667, 105.153 263.029, 104.118 258.938 C 102.379 252.062, 101.788 244.978, 99.411 202.500 C 99.072 196.450, 98.842 185.425, 98.900 178 C 98.996 165.563, 97.793 147.239, 96.522 141.779 C 96.205 140.418, 96.706 138.586, 97.766 137.229 C 99.191 135.405, 100.158 135.082, 102.682 135.586 C 104.673 135.985, 106.017 136.956, 106.352 138.239 C 106.717 139.634, 107.469 140.111, 108.770 139.770 C 109.808 139.499, 111.496 139.889, 112.520 140.638 C 113.544 141.387, 114.949 142, 115.641 142 C 117.932 142, 125.609 147.846, 126.826 150.517 C 127.578 152.167, 128.664 153.019, 129.750 152.810 C 133.172 152.151, 131.972 149.204, 125.619 142.660 C 120.533 137.422, 118.525 136, 116.211 136 C 114.593 136, 112.197 135.182, 110.885 134.183 C 109.573 133.183, 106.925 131.754, 105 131.008 C 102.188 129.917, 98.690 127.926, 95.175 125.415 C 94.996 125.288, 94.748 124.489, 94.623 123.640 C 94.499 122.791, 93.620 121.237, 92.670 120.188 C 90.584 117.882, 91.518 114.672, 95.896 109.106 C 97.457 107.123, 99.048 104.490, 99.432 103.256 C 99.816 102.022, 100.673 100.447, 101.336 99.756 C 104.171 96.801, 110 89.229, 110 88.501 C 110 87.496, 116.121 78.278, 118.900 75.097 C 120.055 73.775, 121 71.840, 121 70.797 C 121 68.349, 123.762 63, 125.026 63 C 125.562 63, 126 62.433, 126 61.741 C 126 61.048, 126.900 59.919, 128 59.232 C 130.543 57.644, 130.638 52.887, 128.171 50.655 C 126.028 48.715, 126.433 48.713, 122 50.683 M 114 59.559 C 114 60.416, 114.450 60.840, 115 60.500 C 115.550 60.160, 116 59.459, 116 58.941 C 116 58.423, 115.550 58, 115 58 C 114.450 58, 114 58.702, 114 59.559 M 98 65 C 98 65.550, 98.477 66, 99.059 66 C 99.641 66, 99.840 65.550, 99.500 65 C 99.160 64.450, 98.684 64, 98.441 64 C 98.198 64, 98 64.450, 98 65 M 118 66.559 C 118 68.010, 118.433 68.851, 119 68.500 C 119.550 68.160, 120 67.009, 120 65.941 C 120 64.873, 119.550 64, 119 64 C 118.450 64, 118 65.152, 118 66.559 M 158.621 68.521 C 156.776 70.367, 156.680 70.947, 157.905 72.880 C 158.628 74.021, 159.228 73.935, 161.375 72.380 C 164.195 70.338, 164.442 67.709, 161.860 67.212 C 160.970 67.040, 159.513 67.630, 158.621 68.521 M 48.750 72.080 C 47.788 72.641, 47 73.752, 47 74.550 C 47 77.201, 50.489 76.195, 50.644 73.499 C 50.724 72.125, 50.724 71.014, 50.644 71.030 C 50.565 71.047, 49.712 71.519, 48.750 72.080 M 156.364 78.760 C 153.947 79.155, 153 82.338, 153 90.066 C 153 92.715, 152.526 95.175, 151.946 95.534 C 151.252 95.962, 151.100 99.661, 151.501 106.343 C 151.836 111.929, 152.143 117.175, 152.184 118 C 152.225 118.825, 151.949 122.875, 151.572 127 C 150.110 142.968, 149.804 153.004, 150.695 155.695 C 151.206 157.238, 151.359 160.075, 151.036 162 C 150.712 163.925, 150.684 168.650, 150.974 172.500 C 151.520 179.760, 150.961 185.877, 148.510 199.500 C 147.495 205.139, 147.206 212.074, 147.528 223 C 148.539 257.271, 150.173 266, 155.574 266 C 156.230 266, 156.985 265.165, 157.252 264.144 C 157.652 262.614, 159.035 262.193, 165.119 261.748 C 169.178 261.451, 172.973 261.593, 173.552 262.062 C 174.131 262.532, 175.542 262.671, 176.689 262.371 C 177.836 262.071, 179.077 262.315, 179.446 262.913 C 180.383 264.429, 183.872 264.271, 185.505 262.638 C 187.366 260.777, 196.164 259.732, 199.450 260.981 C 201.056 261.592, 202.806 261.646, 203.815 261.116 C 206.759 259.572, 214 258.715, 214 259.912 C 214 260.510, 215.575 261, 217.500 261 C 220.322 261, 221 260.616, 221 259.019 C 221 257.238, 221.479 257.099, 225.750 257.640 C 228.363 257.971, 231.029 258.902, 231.674 259.709 C 233.195 261.608, 236.585 260.930, 236.226 258.799 C 236.041 257.704, 236.862 257.009, 238.726 256.680 C 242.239 256.059, 257.292 256.063, 254.235 256.683 C 250.612 257.419, 252.726 259.001, 257.309 258.985 C 260.841 258.972, 266.490 257.139, 263.500 256.976 C 262.642 256.929, 268.622 254, 269.576 254 C 269.766 254, 270.727 254.838, 271.711 255.862 C 273.865 258.105, 281.491 259.318, 282.884 257.639 C 283.783 256.556, 285.573 245.135, 286.685 233.383 C 287.444 225.363, 281.562 205, 278.487 205 C 277.669 205, 277 205.421, 277 205.936 C 277 230.978, 275.487 245.846, 272.650 248.683 C 272.254 249.080, 269.808 249.498, 267.215 249.613 C 264.622 249.727, 259.686 250.141, 256.248 250.531 C 251.821 251.033, 249.558 250.878, 248.498 249.999 C 247.396 249.084, 246.277 249.030, 244.251 249.796 C 240.325 251.279, 231.908 252.297, 221.500 252.547 C 207.962 252.873, 191.998 254.028, 187.500 255.007 C 185.300 255.486, 178.388 256.001, 172.141 256.150 C 161.945 256.394, 160.639 256.227, 159.390 254.518 C 158.624 253.471, 158.020 251.464, 158.046 250.057 C 158.073 248.651, 157.595 243.450, 156.984 238.500 C 155.520 226.639, 155.518 225.141, 156.934 207 C 157.600 198.475, 158.088 178.838, 158.018 163.363 C 157.899 136.806, 158.005 135.040, 159.905 131.916 C 161.515 129.269, 161.676 128.307, 160.709 127.116 C 159.699 125.871, 159.809 125.742, 161.377 126.330 C 162.409 126.717, 163.871 126.522, 164.627 125.895 C 165.496 125.173, 166 125.133, 166 125.784 C 166 126.471, 167.221 126.438, 169.676 125.685 C 172.510 124.815, 173.445 124.836, 173.759 125.778 C 173.983 126.450, 175.592 126.993, 177.333 126.985 C 179.527 126.974, 180.076 126.701, 179.122 126.096 C 178.364 125.616, 178.053 124.723, 178.431 124.112 C 179.286 122.728, 182 122.643, 182 124 C 182 125.514, 184.946 125.197, 186.643 123.500 C 187.468 122.675, 189.348 122.007, 190.821 122.015 C 192.918 122.027, 193.174 122.241, 192 123 C 190.895 123.714, 191.567 123.973, 194.550 123.985 C 196.777 123.993, 199.151 123.449, 199.825 122.775 C 200.792 121.808, 201.489 121.824, 203.131 122.850 C 204.926 123.970, 205.511 123.869, 207.383 122.110 C 208.739 120.836, 210.331 120.274, 211.625 120.612 C 212.764 120.910, 215.303 120.482, 217.267 119.662 C 219.230 118.842, 221.081 118.414, 221.378 118.712 C 221.676 119.009, 225.051 119.399, 228.877 119.578 C 236.895 119.953, 238.573 118.883, 237.515 114.070 L 236.854 111.059 228.177 111.464 C 223.405 111.687, 216.800 112.387, 213.500 113.021 C 210.200 113.654, 202.325 114.785, 196 115.534 C 183.800 116.977, 176.752 118.303, 168.293 120.744 C 165.429 121.571, 162.423 121.993, 161.613 121.682 C 159.606 120.912, 158.642 113.558, 159.393 104.753 C 161.659 78.198, 161.624 77.900, 156.364 78.760 M 105.583 86.866 C 105.152 87.563, 105.070 88.403, 105.400 88.733 C 106.295 89.628, 107.271 88.312, 106.787 86.862 C 106.449 85.846, 106.213 85.846, 105.583 86.866 M 232.543 88.931 C 231.860 90.036, 233.437 91.230, 234.361 90.306 C 235.311 89.355, 235.134 88, 234.059 88 C 233.541 88, 232.859 88.419, 232.543 88.931 M 233.079 96.583 C 233.127 97.748, 233.364 97.985, 233.683 97.188 C 233.972 96.466, 233.936 95.603, 233.604 95.271 C 233.272 94.939, 233.036 95.529, 233.079 96.583 M 154.079 215.583 C 154.127 216.748, 154.364 216.985, 154.683 216.188 C 154.972 215.466, 154.936 214.603, 154.604 214.271 C 154.272 213.939, 154.036 214.529, 154.079 215.583 M 281.195 234.500 C 281.215 236.150, 281.439 236.704, 281.693 235.731 C 281.947 234.758, 281.930 233.408, 281.656 232.731 C 281.382 232.054, 281.175 232.850, 281.195 234.500 M 280.079 239.583 C 280.127 240.748, 280.364 240.985, 280.683 240.188 C 280.972 239.466, 280.936 238.603, 280.604 238.271 C 280.272 237.939, 280.036 238.529, 280.079 239.583 M 99.079 246.583 C 99.127 247.748, 99.364 247.985, 99.683 247.188 C 99.972 246.466, 99.936 245.603, 99.604 245.271 C 99.272 244.939, 99.036 245.529, 99.079 246.583 M 97.079 251.583 C 97.127 252.748, 97.364 252.985, 97.683 252.188 C 97.972 251.466, 97.936 250.603, 97.604 250.271 C 97.272 249.939, 97.036 250.529, 97.079 251.583 M 153 254.500 C 153 256.056, 153.567 257, 154.500 257 C 155.433 257, 156 256.056, 156 254.500 C 156 252.944, 155.433 252, 154.500 252 C 153.567 252, 153 252.944, 153 254.500" stroke="none" fill="black" fill-rule="evenodd"/>
</svg>