<svg xmlns="http://www.w3.org/2000/svg" width="300" height="300" viewBox="0 0 300 300" version="1.1">
	<path d="M 52.750 41.621 C 48.378 44.429, 47.562 47.578, 51.460 46.599 C 53.261 46.147, 54.189 46.485, 54.925 47.861 C 55.935 49.747, 60.340 52.193, 65 53.454 C 67.015 54, 67.209 53.908, 66 52.979 C 64.781 52.043, 64.969 51.934, 67 52.400 C 68.375 52.715, 70.063 52.979, 70.750 52.986 C 71.438 52.994, 72 53.675, 72 54.500 C 72 55.325, 71.270 56, 70.378 56 C 69.028 56, 68.970 56.260, 70.038 57.546 C 70.743 58.396, 71.972 58.841, 72.767 58.536 C 73.563 58.230, 75.853 58.421, 77.857 58.960 C 83.762 60.547, 96.747 61.218, 97.515 59.975 C 97.885 59.376, 97.912 57.787, 97.575 56.443 C 97.045 54.331, 96.385 54, 92.703 54 C 90.361 54, 87.557 53.389, 86.473 52.642 C 85.388 51.895, 82.721 50.957, 80.547 50.558 C 77.101 49.926, 73.754 48.470, 68 45.101 C 67.175 44.618, 64.250 43.095, 61.500 41.717 L 56.500 39.212 52.750 41.621 M 241.500 54.719 C 237.136 55.330, 218.674 60.103, 217.500 60.924 C 214.695 62.886, 204.233 63.994, 182.750 64.604 L 159 65.279 155 68.354 C 150.218 72.029, 149.796 74.123, 153.900 73.811 C 155.496 73.689, 157.527 74.193, 158.416 74.930 C 160.080 76.311, 175.120 75.897, 188.311 74.107 L 194 73.335 194 77.608 C 194 79.959, 193.550 82.160, 193 82.500 C 192.450 82.840, 191.998 84.104, 191.996 85.309 C 191.989 88.549, 187.708 100.197, 185.260 103.634 C 184.090 105.278, 182.829 107.832, 182.458 109.311 C 182.087 110.790, 181.382 112, 180.892 112 C 180.401 112, 179.994 112.563, 179.987 113.250 C 179.980 113.938, 178.630 117.151, 176.987 120.391 C 175.344 123.631, 174 126.613, 174 127.017 C 174 128.126, 161.675 150.247, 158.912 154.097 C 156.457 157.518, 154.623 160.427, 153.396 162.846 C 153.020 163.586, 151.435 165.590, 149.873 167.300 C 148.312 169.010, 146.330 172.004, 145.470 173.954 C 144.609 175.904, 143.475 178.175, 142.950 179 C 142.425 179.825, 141.591 181.424, 141.097 182.553 C 140.604 183.682, 138.668 185.655, 136.796 186.938 C 131.786 190.371, 129.626 201, 133.938 201 C 135.971 201, 141 197.357, 141 195.884 C 141 195.350, 142.650 193.129, 144.667 190.949 C 148.795 186.488, 152.922 180.154, 152.969 178.208 C 152.986 177.498, 153.953 175.923, 155.118 174.708 C 156.282 173.494, 157.908 170.925, 158.730 169 C 159.552 167.075, 160.535 165.275, 160.914 165 C 162.002 164.211, 168 154.988, 168 154.104 C 168 153.666, 168.708 151.888, 169.573 150.154 C 172.560 144.167, 173.518 146.176, 174.675 160.854 C 175.390 169.920, 176.365 175.966, 177.494 178.347 C 178.505 180.476, 178.968 182.990, 178.612 184.410 C 178.265 185.794, 178.470 186.990, 179.089 187.196 C 179.687 187.396, 179.996 188.895, 179.776 190.529 L 179.377 193.500 177.727 190 L 176.078 186.500 175.928 190.500 C 175.845 192.700, 175.612 199.189, 175.410 204.920 C 175.208 210.651, 174.566 216.784, 173.984 218.550 C 172.394 223.367, 172.851 250.967, 174.566 253.671 C 176.483 256.694, 180.790 255.417, 183.810 250.931 C 186.616 246.764, 187.746 246.270, 189.375 248.498 C 190.816 250.469, 202.849 251.650, 219.500 251.454 C 231.916 251.307, 238.286 250.351, 243.723 247.816 C 248.092 245.780, 250 246.026, 250 248.625 C 250 249.680, 250.826 250.038, 252.750 249.816 C 255.164 249.539, 255.539 249.019, 255.821 245.567 C 255.998 243.404, 256.785 240.717, 257.571 239.595 C 259.603 236.694, 259.341 234.253, 256.853 232.921 C 254.792 231.818, 254.732 231.329, 255.345 220.636 C 255.696 214.511, 256.471 203.875, 257.067 197 C 258.919 175.622, 258.744 151.434, 256.689 144.868 L 254.926 139.235 248.760 138.789 C 245.368 138.544, 240.772 138.718, 238.547 139.175 C 229.870 140.961, 223.254 141.976, 217.500 142.407 C 208.899 143.051, 188.878 145.670, 186.379 146.479 C 184.665 147.034, 184.134 146.670, 183.610 144.583 C 182.866 141.616, 179.078 140.996, 177 143.500 C 175.270 145.584, 174 145.372, 174 143 C 174 141.900, 174.604 141, 175.343 141 C 176.611 141, 177.672 139.263, 181.454 131 C 182.335 129.075, 183.471 126.825, 183.980 126 C 184.489 125.175, 185.637 122.700, 186.531 120.500 C 188.254 116.260, 191.418 109.499, 192.848 107 C 193.321 106.175, 194.500 103.700, 195.470 101.500 C 196.439 99.300, 197.855 96.306, 198.616 94.846 C 199.377 93.386, 200 91.568, 200 90.807 C 200 88.945, 202.920 83.333, 206.537 78.242 C 209.518 74.048, 213.785 71.406, 216.199 72.260 C 216.915 72.513, 219.525 71.710, 222 70.477 C 228.570 67.201, 240.847 64, 246.839 64 C 251.585 64, 252.141 63.758, 253.080 61.289 C 253.647 59.798, 253.852 57.548, 253.536 56.289 C 253.043 54.322, 252.367 54.021, 248.731 54.150 C 246.404 54.232, 243.150 54.489, 241.500 54.719 M 238.813 61.683 C 239.534 61.972, 240.397 61.936, 240.729 61.604 C 241.061 61.272, 240.471 61.036, 239.417 61.079 C 238.252 61.127, 238.015 61.364, 238.813 61.683 M 230 63 C 230 63.550, 230.423 64, 230.941 64 C 231.459 64, 232.160 63.550, 232.500 63 C 232.840 62.450, 232.416 62, 231.559 62 C 230.702 62, 230 62.450, 230 63 M 173 71.427 C 173 72.354, 173.855 73, 175.083 73 C 177.520 73, 177.176 70.663, 174.667 70.177 C 173.680 69.985, 173 70.495, 173 71.427 M 185.244 70.664 C 183.473 71.378, 184.733 73, 187.059 73 C 188.127 73, 189 72.325, 189 71.500 C 189 70.006, 187.632 69.701, 185.244 70.664 M 103 81.160 C 99.425 82.283, 95.600 83.580, 94.500 84.042 C 90.191 85.850, 77.317 88.102, 68.630 88.568 C 63.608 88.837, 56.800 89.491, 53.500 90.021 C 50.200 90.551, 45.868 90.988, 43.872 90.992 C 37.066 91.007, 36.291 96.249, 42.853 97.891 C 49.485 99.550, 59.988 100.078, 65.787 99.044 C 68.929 98.483, 75.550 97.631, 80.500 97.149 C 89.256 96.296, 95.639 94.533, 97.333 92.500 C 97.791 91.950, 97.936 93.162, 97.655 95.193 C 97.356 97.353, 94.837 102.389, 91.585 107.327 C 88.528 111.970, 85.720 116.608, 85.347 117.634 C 84.607 119.668, 79.401 127.400, 77 130.033 C 76.175 130.937, 73.523 134.450, 71.106 137.839 C 68.690 141.227, 66.328 144, 65.856 144 C 65.385 144, 65 144.447, 65 144.992 C 65 146.172, 62.369 149.426, 55.250 157.055 C 52.363 160.149, 50 163.002, 50 163.395 C 50 163.787, 48.652 165.547, 47.005 167.304 C 45.357 169.062, 44.007 170.844, 44.005 171.264 C 44.002 171.684, 42.087 174.481, 39.750 177.478 C 30.784 188.975, 27.465 193.332, 26.500 194.873 C 25.950 195.751, 23.910 198.068, 21.967 200.023 C 18.177 203.835, 15 210.826, 15 215.353 C 15 217.670, 15.379 218.085, 17.250 217.820 C 18.796 217.600, 20.298 215.935, 22.049 212.500 C 23.450 209.750, 25.509 207.090, 26.623 206.588 C 29.673 205.216, 31.910 200.805, 30.606 198.737 C 29.825 197.499, 29.902 196.718, 30.897 195.778 C 31.973 194.762, 32.344 194.756, 32.708 195.750 C 33.481 197.857, 35.861 197.144, 37.719 194.250 C 40.083 190.567, 40.448 190.077, 43.965 185.868 C 45.634 183.870, 47 181.895, 47 181.478 C 47 181.061, 47.625 180.221, 48.389 179.610 C 51.652 177.002, 62 161.646, 62 159.413 C 62 155.811, 63.581 156.496, 65.325 160.853 C 66.312 163.320, 66.966 168.757, 67.144 175.969 C 67.297 182.164, 67.590 186.730, 67.795 186.116 C 68.438 184.185, 70.741 184.903, 71.348 187.223 C 71.735 188.704, 71.226 190.195, 69.821 191.690 C 67.951 193.681, 67.803 194.585, 68.505 199.717 C 68.941 202.898, 69.406 212.475, 69.539 221 C 69.672 229.525, 70.279 240.100, 70.887 244.500 C 73.797 265.569, 74.487 268, 77.555 268 C 79.195 268, 80.331 264.618, 79.534 262.107 C 79.204 261.066, 78.748 247.004, 78.522 230.857 C 78.296 214.711, 77.618 196.550, 77.016 190.500 C 76.413 184.450, 75.719 174.325, 75.473 168 C 75.079 157.884, 74.783 156.335, 73.013 155.128 C 70.254 153.248, 70.439 152.391, 74.728 147.156 C 76.779 144.653, 79.536 141.007, 80.855 139.053 C 82.174 137.099, 83.584 135.275, 83.988 135 C 85.051 134.277, 97 115.455, 97 114.505 C 97 114.066, 98.487 111.860, 100.305 109.603 C 102.122 107.346, 104.897 103.250, 106.471 100.500 C 108.045 97.750, 110.349 94.150, 111.592 92.500 C 113.059 90.551, 113.964 87.749, 114.175 84.500 C 114.481 79.788, 114.356 79.489, 112 79.309 C 110.625 79.204, 106.575 80.037, 103 81.160 M 183.469 149.500 C 182.353 152.030, 182.348 155.985, 183.448 168.500 C 184.800 183.878, 184.628 195.622, 182.715 218.498 C 181.057 238.314, 181.055 239.567, 182.670 240.748 C 184.864 242.352, 186.288 242.324, 190.427 240.595 C 192.277 239.822, 194.175 239.553, 194.645 239.997 C 195.115 240.441, 198.875 241.044, 203 241.337 C 207.125 241.630, 212.750 242.169, 215.500 242.534 C 221.502 243.331, 220.641 243.361, 230.387 242.006 C 238.119 240.931, 242.824 239.227, 246.187 236.281 C 247.115 235.469, 248.305 235.071, 248.832 235.396 C 251.118 236.809, 250.801 232.710, 248.442 230.351 C 247.047 228.956, 245.852 226.618, 245.788 225.157 C 245.565 220.081, 247.267 204.493, 248.168 203.352 C 248.667 202.721, 249.171 191.207, 249.287 177.766 C 249.457 158.267, 249.213 152.789, 248.081 150.664 C 246.757 148.178, 244 146.950, 244 148.846 C 244 149.311, 241.412 149.775, 238.250 149.877 C 235.088 149.979, 230.846 150.507, 228.823 151.050 C 223.356 152.519, 206.318 154.338, 199.750 154.154 C 196.464 154.062, 194 154.423, 194 154.997 C 194 158.481, 185.421 153.600, 184.743 149.730 C 184.364 147.569, 184.324 147.562, 183.469 149.500 M 78.250 164.641 C 77.563 164.930, 77 165.639, 77 166.216 C 77 167.861, 81.099 171, 83.247 171 C 84.346 171, 85.414 171.867, 85.710 173 C 85.998 174.100, 86.743 175.052, 87.367 175.115 C 87.990 175.179, 88.950 175.335, 89.500 175.463 C 90.050 175.591, 91.115 175.764, 91.867 175.848 C 92.677 175.938, 93.037 176.751, 92.751 177.843 C 92.174 180.052, 94.890 182, 98.549 182 C 101.702 182, 110.070 184.491, 115.610 187.080 C 117.870 188.136, 120.050 189, 120.455 189 C 120.860 189, 122.514 189.942, 124.131 191.093 C 125.748 192.245, 127.730 192.934, 128.535 192.625 C 130.924 191.708, 130.207 188.178, 127.250 186.296 C 125.737 185.334, 124.275 184.289, 124 183.975 C 121.619 181.256, 106.736 174.142, 103.246 174.056 C 102.007 174.025, 99.314 173.100, 97.261 172 C 95.209 170.900, 92.930 170, 92.198 170 C 91.466 170, 89.434 168.910, 87.683 167.578 C 84.311 165.012, 80.323 163.771, 78.250 164.641 M 252.252 194.500 C 252.263 196.700, 252.468 197.482, 252.707 196.238 C 252.946 194.994, 252.937 193.194, 252.687 192.238 C 252.437 191.282, 252.241 192.300, 252.252 194.500 M 72.015 219.250 C 72.024 219.938, 72.467 221.175, 73 222 C 73.755 223.169, 73.973 222.893, 73.985 220.750 C 73.993 219.238, 73.550 218, 73 218 C 72.450 218, 72.007 218.563, 72.015 219.250 M 176.079 245.583 C 176.127 246.748, 176.364 246.985, 176.683 246.188 C 176.972 245.466, 176.936 244.603, 176.604 244.271 C 176.272 243.939, 176.036 244.529, 176.079 245.583" stroke="none" fill="black" fill-rule="evenodd"/>
</svg>