<svg xmlns="http://www.w3.org/2000/svg" width="300" height="300" viewBox="0 0 300 300" version="1.1">
	<path d="M 138 16.533 C 138 17.493, 137.239 18.836, 136.310 19.516 C 134.793 20.625, 134.961 20.929, 137.948 22.473 C 139.841 23.452, 142.403 23.970, 143.888 23.675 C 145.360 23.381, 147.347 23.775, 148.441 24.577 C 149.509 25.360, 151.534 26.005, 152.941 26.011 C 154.349 26.017, 157.750 26.723, 160.500 27.580 C 170.775 30.783, 188.045 31.384, 190.794 28.634 C 192.797 26.631, 191.593 23.508, 189.242 24.606 C 185.332 26.433, 170.180 24.448, 157 20.382 C 152.875 19.110, 147.700 17.655, 145.500 17.150 C 143.300 16.645, 140.713 15.906, 139.750 15.509 C 138.475 14.982, 138 15.261, 138 16.533 M 156.500 39.025 C 142.678 40.267, 124.802 43.165, 121.821 44.647 C 118.893 46.102, 117.237 49.637, 118.767 51.167 C 119.740 52.140, 124.709 51.470, 139.500 48.369 C 148.167 46.552, 156.779 45.914, 178.202 45.500 C 187.388 45.323, 195.375 44.886, 195.952 44.530 C 197.610 43.505, 197.172 40.159, 195.250 39.165 C 193.061 38.033, 168.518 37.944, 156.500 39.025 M 131.557 55.223 C 129.517 58.135, 129.592 60.202, 131.843 63.115 C 132.880 64.456, 134.235 68.957, 134.940 73.398 C 135.629 77.742, 136.785 82.975, 137.509 85.027 C 138.233 87.079, 139.151 91.400, 139.549 94.629 C 139.946 97.858, 140.401 101.175, 140.559 102 C 140.718 102.825, 140.881 103.838, 140.923 104.250 C 140.966 104.662, 141.675 105, 142.500 105 C 143.921 105, 144.710 101.003, 144.079 97 C 143.050 90.474, 141.976 84.851, 141.070 81.250 C 138.595 71.419, 138.085 68.164, 138.044 61.950 C 137.986 53.313, 135.037 50.254, 131.557 55.223 M 168.480 58.928 C 167.368 59.243, 165.351 60.291, 163.996 61.258 C 161.803 62.823, 161.450 64.028, 160.768 72.258 C 158.477 99.914, 158.319 103.515, 159.372 104.197 C 160.968 105.232, 161.731 103.357, 161.849 98.105 C 162.037 89.776, 164.826 77.859, 167.485 74.021 C 168.868 72.025, 170 69.433, 170 68.261 C 170 67.089, 170.452 64.940, 171.005 63.486 C 172.258 60.192, 171.140 58.175, 168.480 58.928 M 140 109.313 C 134.225 109.894, 119.058 110.399, 106.296 110.435 L 83.092 110.500 82.042 112.807 C 81.375 114.271, 81.331 115.750, 81.921 116.853 C 82.770 118.439, 84.876 118.569, 105.960 118.334 C 118.669 118.192, 129.544 117.782, 130.127 117.422 C 130.709 117.062, 133.282 116.608, 135.843 116.415 C 138.404 116.221, 144.523 115.646, 149.440 115.136 C 159.776 114.065, 170.179 114.314, 185 115.986 C 190.775 116.637, 201.350 117.037, 208.500 116.874 C 215.650 116.711, 224.599 116.956, 228.386 117.420 C 234.722 118.195, 235.359 118.491, 236.356 121.131 C 237.639 124.530, 238.339 124.661, 241 122 C 245.117 117.883, 243.336 114.588, 235.663 112.133 C 230.511 110.484, 225.401 110.053, 204.500 109.508 C 157.422 108.279, 150.485 108.259, 140 109.313 M 120.200 133.200 C 118.188 135.212, 118.710 139, 121 139 C 124.729 139, 122.834 143.404, 119.075 143.474 C 117.501 143.503, 115.712 148.701, 116.525 150.885 C 116.809 151.646, 117.480 159.932, 118.017 169.298 C 118.554 178.664, 119.245 186.578, 119.551 186.885 C 119.858 187.191, 120.463 186.869, 120.896 186.168 C 121.329 185.468, 122.317 185.031, 123.092 185.197 C 124.222 185.440, 124.462 183.941, 124.309 177.614 L 124.117 169.727 129.809 170.285 C 132.939 170.592, 140.675 170.429, 147 169.922 C 171.777 167.940, 170.642 167.930, 173.458 170.146 C 174.888 171.271, 176.721 171.937, 177.529 171.627 C 180.043 170.662, 179.149 167.243, 175.750 164.818 C 172.560 162.543, 172.103 162.505, 151 162.783 C 139.175 162.938, 128.541 162.831, 127.369 162.544 C 126.198 162.257, 125.002 161.117, 124.713 160.011 C 123.999 157.282, 122.004 157.457, 121.985 160.250 C 121.967 162.876, 120.394 165.728, 119.473 164.806 C 119.123 164.456, 119.159 160.045, 119.554 155.004 C 120.201 146.727, 120.452 145.885, 122.135 146.325 C 123.302 146.630, 124 146.286, 124 145.406 C 124 143.748, 125.597 143.539, 126.545 145.073 C 126.966 145.754, 127.693 145.455, 128.534 144.254 C 129.671 142.632, 131.046 142.384, 138.180 142.515 C 142.756 142.599, 152.655 142.743, 160.177 142.834 L 173.855 143 176.610 148.750 C 178.125 151.912, 179.709 156.525, 180.130 159 C 180.551 161.475, 181.413 166.086, 182.047 169.247 C 182.847 173.245, 182.888 175.881, 182.181 177.909 C 181.262 180.548, 181.395 180.882, 183.583 181.431 C 185.659 181.953, 186.002 182.635, 186.015 186.269 C 186.034 191.301, 187.205 193.519, 189.399 192.677 C 191.435 191.896, 191.387 190.138, 189.097 181.500 C 188.076 177.650, 186.926 171.125, 186.541 167 C 185.866 159.773, 182.173 144.715, 179.550 138.500 L 178.284 135.500 162.892 135.366 C 134.006 135.114, 128.179 134.806, 125.442 133.386 C 122.184 131.695, 121.721 131.679, 120.200 133.200 M 119.552 170.916 C 119.240 171.420, 119.471 173.107, 120.063 174.666 C 121.011 177.159, 121.257 177.291, 122.113 175.763 C 122.756 174.614, 122.720 173.346, 122.007 172.013 C 120.806 169.769, 120.379 169.578, 119.552 170.916 M 123.624 193.726 C 122.989 198.362, 124.030 201, 126.495 201 C 127.183 201, 129.818 200.083, 132.351 198.963 C 134.884 197.842, 138.167 197.088, 139.647 197.286 C 142.259 197.636, 142.343 197.851, 142.479 204.573 C 142.557 208.383, 142.992 215.148, 143.447 219.606 C 144.110 226.103, 143.999 227.890, 142.887 228.606 C 140.292 230.278, 83.442 233.945, 71.750 233.195 C 66.724 232.873, 65.957 231.810, 68.621 228.866 C 70.388 226.913, 69.761 223.580, 67.753 224.249 C 67.068 224.477, 65.806 226.652, 64.948 229.082 C 63.904 232.041, 62.874 233.413, 61.828 233.237 C 59.733 232.884, 57.624 235.577, 58.404 237.609 C 58.878 238.845, 59.793 239.091, 62.153 238.619 C 64.453 238.159, 65.602 238.442, 66.516 239.691 C 67.607 241.183, 69.729 241.361, 84.128 241.169 C 93.133 241.049, 104.775 240.313, 110 239.534 C 125.570 237.212, 141.417 236.592, 142.794 238.252 C 143.659 239.294, 143.711 244.834, 142.999 260.074 C 141.788 285.983, 141.764 284.295, 143.379 286.503 C 144.685 288.290, 144.893 288.300, 147.329 286.704 C 150.228 284.804, 152.674 278.034, 150.865 276.916 C 150.174 276.490, 149.912 273.280, 150.146 268.122 C 150.474 260.900, 150.320 260, 148.757 260 C 147.263 260, 147 259.037, 147 253.559 C 147 247.070, 148.283 244.150, 149.347 248.218 C 150.195 251.463, 151.371 249.582, 152.500 243.175 L 153.500 237.500 167.500 237.345 C 175.200 237.259, 183.525 236.669, 186 236.034 C 188.475 235.398, 195.450 234.626, 201.500 234.318 C 214.422 233.659, 216.720 232.966, 217.599 229.462 C 218.558 225.640, 216.780 224.316, 212.678 225.799 C 210.852 226.460, 206.690 227.014, 203.429 227.031 C 200.168 227.048, 194.125 227.555, 190 228.159 C 185.875 228.762, 176.650 229.398, 169.500 229.572 C 162.350 229.746, 155.600 230.026, 154.500 230.194 C 152.872 230.443, 152.437 229.849, 152.159 227 C 151.796 223.266, 153.765 213.131, 155.161 211.550 C 156.978 209.493, 156.046 206.050, 153.500 205.411 C 150.591 204.681, 150.059 201.026, 152.559 198.951 C 154.396 197.426, 166.831 197.726, 177.056 199.542 C 179.579 199.990, 180.966 199.746, 181.833 198.702 C 185.364 194.447, 164.875 190.586, 141.500 191.102 C 135.450 191.235, 129.713 191.042, 128.750 190.672 C 124.407 189.004, 124.259 189.092, 123.624 193.726 M 145.500 198 C 144.771 199.180, 145.717 201, 147.059 201 C 147.577 201, 148 200.100, 148 199 C 148 196.891, 146.545 196.309, 145.500 198" stroke="none" fill="black" fill-rule="evenodd"/>
</svg>