<svg xmlns="http://www.w3.org/2000/svg" width="300" height="300" viewBox="0 0 300 300" version="1.1">
	<path d="M 138.750 15.893 C 136.467 18.208, 136.493 24.152, 138.798 26.999 C 141.103 29.846, 147.459 32.141, 148.939 30.661 C 149.522 30.078, 150 28.842, 150 27.917 C 150 25.163, 154.497 24.114, 167.916 23.737 C 173.329 23.584, 176.473 23.077, 176.728 22.314 C 177.278 20.666, 170.703 19.012, 163.571 19.006 C 157.539 19, 152.755 17.915, 147.669 15.400 C 143.929 13.550, 140.895 13.718, 138.750 15.893 M 146 21.406 C 146 23.387, 147.927 24.473, 149.194 23.206 C 149.888 22.512, 149.540 21.824, 148.107 21.057 C 146.407 20.147, 146 20.214, 146 21.406 M 188.943 39.935 C 186.987 40.988, 181.625 42.563, 177.027 43.435 C 172.430 44.307, 166.532 45.655, 163.921 46.431 C 161.310 47.206, 158.991 47.658, 158.768 47.435 C 158.545 47.211, 155.243 47.689, 151.431 48.497 C 146.947 49.447, 138.607 49.971, 127.809 49.983 C 116.861 49.994, 110.886 50.375, 110.444 51.090 C 110.047 51.734, 108.440 51.930, 106.520 51.570 C 101.948 50.712, 100 51.723, 100 54.952 C 100 59.798, 102.976 61.381, 110.612 60.599 C 117.728 59.870, 123 57.762, 123 55.648 C 123 54.797, 123.952 54.486, 125.750 54.750 L 128.500 55.153 128.382 81.458 C 128.317 95.926, 127.997 108.196, 127.670 108.725 C 127.343 109.255, 121.546 109.975, 114.788 110.325 C 108.029 110.676, 100.960 111.412, 99.078 111.961 C 97.196 112.510, 90.896 113.224, 85.078 113.548 C 73.921 114.169, 66.566 116.084, 65.592 118.621 C 64.970 120.243, 66.571 124.013, 68.400 125.235 C 70.184 126.426, 73.471 126.110, 76.854 124.423 C 78.592 123.556, 82.562 122.786, 85.674 122.714 C 90.770 122.594, 91.491 122.302, 92.917 119.772 C 94.331 117.264, 95.034 116.969, 99.500 117.021 C 102.250 117.053, 107.650 116.818, 111.500 116.500 C 115.350 116.182, 119.758 115.923, 121.295 115.924 C 122.833 115.926, 124.344 115.268, 124.652 114.463 C 125.533 112.169, 127.166 112.727, 131.800 116.907 C 134.166 119.041, 136.866 120.634, 137.800 120.448 C 138.735 120.262, 141.159 119.845, 143.187 119.522 C 146.276 119.028, 146.924 118.493, 147.187 116.217 C 147.413 114.250, 148.143 113.409, 149.828 113.170 C 151.868 112.881, 152.025 113.085, 151.096 114.820 C 149.607 117.602, 152.618 118.656, 155.250 116.274 C 156.328 115.298, 157.489 114.646, 157.830 114.825 C 158.171 115.004, 158.632 114.603, 158.855 113.934 C 159.140 113.081, 158.400 112.897, 156.380 113.318 L 153.500 113.918 156.500 112.536 C 159.480 111.164, 166.606 111.189, 175.740 112.604 C 178.526 113.035, 180.492 112.837, 181.470 112.025 C 182.596 111.090, 183.723 111.057, 186.105 111.887 C 187.835 112.490, 190.938 112.714, 193 112.384 C 195.292 112.018, 197.015 112.215, 197.433 112.892 C 198.482 114.588, 201.499 114.212, 203.362 112.152 C 204.790 110.574, 205.794 110.424, 210.231 111.126 C 214.815 111.850, 215.696 111.695, 217.706 109.807 C 219.896 107.749, 220.191 107.724, 225.328 109.154 C 232.248 111.080, 234.406 110.448, 232.687 106.999 C 230.544 102.699, 227.185 101.787, 220.398 103.662 C 211.766 106.047, 206.637 106.455, 185.014 106.479 C 163.159 106.503, 163.661 106.696, 165.793 99.084 C 166.345 97.113, 167.318 93.261, 167.955 90.524 C 168.592 87.787, 169.483 85.312, 169.935 85.024 C 170.387 84.736, 170.981 82.700, 171.254 80.500 C 171.528 78.300, 172.960 73.204, 174.437 69.175 C 177.619 60.493, 177.112 59.255, 170.492 59.531 C 167.992 59.635, 165.757 59.910, 165.524 60.142 C 164.752 60.915, 160.937 78.393, 159.931 85.763 C 159.387 89.757, 158.504 94.174, 157.970 95.578 C 157.437 96.982, 156.993 99.113, 156.985 100.315 C 156.961 103.887, 154.673 107.286, 152 107.720 C 150.625 107.944, 146.800 108.211, 143.500 108.313 L 137.500 108.500 137.214 101.500 C 137.057 97.650, 137.436 89.325, 138.058 83 C 140.637 56.739, 140.613 56.379, 136.325 56.908 C 135.679 56.988, 134.865 56.590, 134.515 56.025 C 133.449 54.299, 138.482 53.018, 142.245 54.057 C 144.124 54.576, 147.200 54.772, 149.081 54.492 C 150.961 54.213, 155.200 53.701, 158.500 53.356 C 161.800 53.011, 165.625 52.176, 167 51.500 C 168.375 50.825, 171.964 49.957, 174.975 49.572 C 177.986 49.187, 180.985 48.427, 181.639 47.884 C 182.293 47.342, 184.330 46.788, 186.164 46.655 C 187.999 46.522, 190.548 45.835, 191.828 45.129 C 194.799 43.492, 196.770 44.264, 198.021 47.556 C 198.566 48.989, 199.572 49.979, 200.256 49.754 C 201.990 49.184, 202.424 41.595, 200.800 40.253 C 198.179 38.088, 192.649 37.939, 188.943 39.935 M 114.500 56 C 114.840 56.550, 115.541 57, 116.059 57 C 116.577 57, 117 56.550, 117 56 C 117 55.450, 116.298 55, 115.441 55 C 114.584 55, 114.160 55.450, 114.500 56 M 185 115.500 C 185 116.486, 185.986 117, 187.878 117 C 189.460 117, 191.315 116.325, 192 115.500 C 193.072 114.208, 192.673 114, 189.122 114 C 186.125 114, 185 114.409, 185 115.500 M 84 119.393 C 84 120.342, 86.993 120.820, 87.527 119.956 C 87.852 119.430, 87.191 119, 86.059 119 C 84.927 119, 84 119.177, 84 119.393 M 185.840 123.493 C 184.367 124.967, 172.278 126.490, 138.500 129.460 C 129.700 130.233, 120.342 131.556, 117.705 132.399 C 113.260 133.819, 112.872 133.806, 112.383 132.216 C 111.149 128.202, 110.196 127.493, 105.626 127.194 L 100.957 126.889 101.434 133.694 C 101.696 137.437, 102.571 143.875, 103.377 148 C 107.480 168.991, 109.847 177, 111.949 177 C 112.527 177, 113 178.548, 113 180.441 C 113 184.273, 114.396 185.747, 116.427 184.061 C 117.438 183.222, 117.910 183.323, 118.352 184.474 C 119.087 186.391, 120.717 186.396, 124.364 184.494 C 125.940 183.672, 128.501 183, 130.055 183 C 131.610 183, 133.183 182.514, 133.550 181.919 C 133.918 181.324, 135.262 181.100, 136.537 181.420 C 137.946 181.774, 139.444 181.413, 140.356 180.501 C 141.182 179.675, 143.438 179, 145.370 179 C 147.301 179, 149.160 178.550, 149.500 178 C 149.840 177.450, 150.766 177, 151.559 177 C 152.753 177, 153 179.711, 153 192.809 C 153 203.910, 152.628 209.109, 151.750 210.267 C 150.531 211.876, 149.359 212.001, 135.750 211.983 C 133.688 211.980, 130.762 212.015, 129.250 212.060 C 127.737 212.105, 123.057 211.856, 118.849 211.506 C 113.850 211.090, 110.970 211.239, 110.540 211.935 C 110.178 212.521, 108.611 213, 107.058 213 C 105.031 213, 104.078 213.592, 103.685 215.096 C 102.796 218.498, 103.886 219.763, 108.319 220.471 C 117.070 221.869, 123.539 221.109, 130.500 217.866 C 132.897 216.750, 149.611 216.142, 151.184 217.114 C 151.879 217.544, 152.027 219.043, 151.582 221.149 C 151.192 222.992, 150.652 233.937, 150.381 245.472 C 150.111 257.006, 149.653 266.681, 149.363 266.972 C 148.031 268.309, 103.490 266.528, 98.441 264.936 C 96.525 264.332, 94.283 264.319, 92.441 264.903 C 90.823 265.415, 88.271 266.103, 86.768 266.432 C 85.083 266.800, 83.430 268.202, 82.453 270.091 C 81.004 272.892, 81.008 273.363, 82.493 275.630 C 84.803 279.156, 86.170 279.415, 94.580 277.920 C 101.007 276.778, 102.146 276.266, 102.641 274.295 C 103.044 272.690, 103.947 272, 105.644 272 C 107.735 272, 107.927 272.268, 107.032 273.939 C 106.299 275.309, 106.322 276.081, 107.109 276.567 C 108.265 277.282, 109.958 275.375, 109.985 273.329 C 110.004 271.849, 114.193 271.078, 120 271.486 C 122.475 271.660, 124.500 271.890, 124.500 271.997 C 124.500 272.613, 203.025 272.603, 204.022 271.986 C 206.251 270.609, 210.500 273.726, 210.500 276.740 C 210.500 279.429, 210.661 279.508, 216.797 279.799 C 222.328 280.061, 223.464 279.787, 226.124 277.549 C 227.790 276.147, 230.239 275, 231.566 275 C 233.674 275, 243.829 267.089, 246.235 263.574 C 248.437 260.355, 246.100 256.418, 243.450 258.884 C 242.927 259.371, 239.486 261.377, 235.802 263.343 C 230.461 266.193, 227.928 266.936, 223.302 267.011 C 197.247 267.431, 177.277 267.435, 167.343 267.021 L 160.186 266.722 159.773 263.185 C 159.546 261.239, 159.684 252.189, 160.079 243.073 C 160.793 226.615, 162.123 220, 164.719 220 C 165.424 220, 166.014 219.213, 166.032 218.250 C 166.062 216.583, 166.127 216.583, 167.392 218.250 C 168.971 220.330, 174.275 220.579, 175.878 218.648 C 177.483 216.713, 189.785 216.629, 192.691 218.533 C 198.177 222.127, 198.734 217.560, 193.314 213.426 C 189.465 210.490, 183.846 209.754, 181.696 211.904 C 181.068 212.532, 176.853 213, 171.819 213 C 163.207 213, 163.026 212.950, 162.389 210.412 C 161.642 207.437, 162.784 184.453, 163.883 180.344 C 164.548 177.858, 165.279 177.477, 171.559 176.347 C 183.738 174.156, 186 173.234, 186 170.460 C 186 167.720, 183.316 167.012, 182.362 169.500 C 181.964 170.536, 180.347 171, 177.136 171 C 174.579 171, 170.928 171.447, 169.023 171.994 C 163.787 173.495, 162.739 171.834, 162.609 161.823 C 162.518 154.878, 162.748 153.567, 164 153.904 C 164.825 154.126, 168.650 154.673, 172.500 155.119 C 176.350 155.566, 180.512 156.472, 181.748 157.134 C 182.985 157.795, 184.287 158.047, 184.641 157.692 C 185.545 156.789, 183.050 154, 181.338 154 C 180.558 154, 178.156 153.100, 176 152 C 173.844 150.900, 170.272 150, 168.063 150 C 162.947 150, 160.545 146.943, 161.531 141.687 C 161.983 139.277, 161.693 137.462, 160.588 135.775 C 158.768 132.997, 159.320 132, 162.680 132 C 163.971 132, 165.923 131.441, 167.017 130.757 C 168.604 129.766, 169.361 129.768, 170.753 130.764 C 174.293 133.295, 175.344 133.367, 176.800 131.175 C 178.300 128.915, 180.654 128.552, 187 129.600 L 190.500 130.178 190.157 135.034 C 189.969 137.704, 190.531 143.040, 191.407 146.892 C 193.639 156.703, 193.487 164.744, 191 168.500 C 189.907 170.150, 189.010 172.063, 189.007 172.750 C 188.997 174.570, 197.485 174.372, 199.348 172.509 C 201.664 170.193, 202.437 158.859, 201.015 148.060 C 200.323 142.802, 199.535 135.942, 199.263 132.815 C 198.623 125.448, 196.469 123, 190.628 123 C 188.266 123, 186.112 123.222, 185.840 123.493 M 148.830 132.732 C 146.261 132.936, 143.618 133.755, 142.957 134.552 C 141.526 136.276, 138.400 136.457, 137.421 134.872 C 136.946 134.104, 136.425 134.277, 135.789 135.413 C 135.023 136.781, 133.739 136.996, 128.677 136.600 C 125.280 136.334, 123.539 136.350, 124.808 136.635 C 128.222 137.403, 125.669 140, 121.500 140 C 119.710 140, 117.685 140.675, 117 141.500 C 116.315 142.325, 115.135 143, 114.378 143 C 113.360 143, 113.016 144.504, 113.060 148.750 C 113.145 157.028, 116.106 171.829, 117.897 172.936 C 118.514 173.318, 126.664 173.732, 136.009 173.857 L 153 174.084 153 165.649 C 153 156.386, 152.741 156, 146.525 156 C 144.686 156, 142.986 156.594, 142.702 157.335 C 142.406 158.106, 138.437 159.395, 133.308 160.386 C 125.381 161.918, 124.118 161.943, 121.563 160.617 C 119.988 159.800, 118.348 158.564, 117.919 157.870 C 116.781 156.027, 118.515 153.432, 121.712 152.195 C 123.980 151.318, 138.372 150.159, 148.641 150.027 C 150.846 149.999, 151.584 147.845, 152.420 139 C 152.602 137.075, 153.080 134.713, 153.483 133.750 C 153.885 132.787, 154.053 132.081, 153.857 132.180 C 153.661 132.279, 151.398 132.528, 148.830 132.732 M 98.500 272 C 96.592 272.820, 96.603 272.863, 98.750 272.930 C 99.987 272.968, 101 272.550, 101 272 C 101 271.450, 100.888 271.032, 100.750 271.070 C 100.612 271.109, 99.600 271.527, 98.500 272 M 217.500 275 C 217.840 275.550, 218.766 276, 219.559 276 C 220.352 276, 221 275.550, 221 275 C 221 274.450, 220.073 274, 218.941 274 C 217.809 274, 217.160 274.450, 217.500 275" stroke="none" fill="black" fill-rule="evenodd"/>
</svg>