<svg xmlns="http://www.w3.org/2000/svg" width="300" height="300" viewBox="0 0 300 300" version="1.1">
	<path d="M 207.750 26.080 C 206.685 26.700, 206 28.300, 206 30.165 C 206 33.098, 203.672 41.573, 201.859 45.236 C 201.387 46.191, 201 47.828, 201 48.872 C 201 49.917, 200.328 52.060, 199.506 53.636 C 198.685 55.211, 198.010 57.936, 198.006 59.691 C 198.003 61.446, 197.550 63.160, 197 63.500 C 196.450 63.840, 195.994 65.554, 195.986 67.309 C 195.953 75.192, 194.230 76.453, 182.155 77.434 C 178.115 77.763, 173.982 78.475, 172.970 79.016 C 171.959 79.557, 169.067 80, 166.544 80 C 162.578 80, 161.797 80.351, 160.776 82.593 C 159.107 86.255, 161.580 90.635, 165.060 90.183 C 166.402 90.009, 169.637 89.628, 172.250 89.337 C 176.704 88.840, 177 88.626, 177 85.903 C 177 83.658, 177.457 83, 179.019 83 C 180.704 83, 180.928 83.439, 180.373 85.651 C 179.719 88.255, 179.780 88.293, 183.814 87.752 C 189.459 86.995, 190.409 88.412, 188.185 94.273 C 187.217 96.822, 186.105 99.229, 185.713 99.621 C 185.321 100.013, 185 101.161, 185 102.172 C 185 103.183, 183.875 106.342, 182.500 109.192 C 181.125 112.042, 180 114.785, 180 115.286 C 180 115.787, 179.287 117.841, 178.417 119.849 C 177.546 121.857, 176.196 124.978, 175.417 126.784 C 174.637 128.590, 174 130.915, 174 131.951 C 174 132.986, 173.662 133.983, 173.250 134.167 C 172.838 134.350, 171.755 136.075, 170.843 138 C 168.941 142.020, 164.100 152.637, 161.495 158.500 C 160.518 160.700, 158.941 163.625, 157.991 165 C 157.040 166.375, 155.950 168.625, 155.568 170 C 155.187 171.375, 154.485 173.400, 154.009 174.500 C 153.532 175.600, 152.366 178.965, 151.416 181.977 C 150.466 184.990, 149.083 188.059, 148.344 188.799 C 147.605 189.538, 147 191.146, 147 192.371 C 147 193.597, 146.605 195.028, 146.123 195.550 C 145.641 196.073, 144.486 198.844, 143.556 201.709 C 142.627 204.573, 140.705 208.623, 139.285 210.709 C 137.865 212.794, 136.114 215.902, 135.394 217.615 C 133.891 221.195, 133.572 221.265, 111 222.962 C 103.575 223.520, 94.237 224.226, 90.250 224.530 C 85.022 224.929, 83 224.753, 83 223.900 C 83 223.249, 84.706 219.967, 86.792 216.608 C 90.843 210.082, 92.313 206.816, 96.515 195 C 97.982 190.875, 99.778 186.150, 100.505 184.500 C 101.232 182.850, 102.073 180.071, 102.374 178.324 C 102.674 176.577, 103.825 173.202, 104.930 170.824 C 107.523 165.246, 110.069 150.568, 110.104 141 C 110.128 134.182, 110.264 133.680, 111.592 135.478 C 113.717 138.354, 116.280 136.340, 117.423 130.896 C 117.930 128.478, 118.669 126.275, 119.065 126 C 119.738 125.533, 120.453 119.048, 120.140 116.250 C 119.830 113.478, 110.634 115.947, 108.849 119.282 C 107.765 121.308, 107.351 123.571, 104.510 143 C 102.753 155.017, 102.039 158.020, 100.354 160.473 C 99.610 161.557, 99 163.605, 99 165.023 C 99 166.440, 98.624 168.028, 98.165 168.550 C 97.147 169.709, 94.860 176.298, 92.457 185 C 91.470 188.575, 90.288 191.927, 89.831 192.450 C 89.374 192.972, 88.997 194.097, 88.994 194.950 C 88.990 195.802, 88.315 197.789, 87.494 199.364 C 86.672 200.940, 86 202.704, 86 203.286 C 86 203.867, 85.417 205.053, 84.705 205.921 C 82.530 208.572, 79.833 217.656, 80.176 221.176 L 80.500 224.500 71 224.450 C 65.775 224.423, 57.900 224.246, 53.500 224.057 C 44.530 223.672, 38.753 224.397, 31.716 226.792 C 26.433 228.589, 25.202 230.771, 26.920 235.289 C 28.087 238.359, 31.268 238.869, 34.412 236.490 C 35.523 235.649, 37.311 235.291, 38.681 235.635 C 42.140 236.503, 46.886 234.281, 46.307 232.065 C 45.918 230.580, 46.737 230.145, 51.170 229.485 C 54.101 229.048, 56.950 228.820, 57.500 228.979 C 61.639 230.172, 66.668 230.687, 67.500 230.004 C 68.050 229.552, 70.655 229.427, 73.289 229.725 C 78.564 230.324, 79.181 232.145, 74.418 233.061 C 71.629 233.597, 71.677 233.647, 75.500 234.193 C 80.800 234.949, 114.022 233.216, 115.412 232.111 C 116.011 231.635, 119.650 230.716, 123.500 230.069 C 127.350 229.421, 132.300 228.086, 134.500 227.100 C 136.700 226.115, 139.695 224.818, 141.156 224.218 C 142.996 223.464, 144.024 222.109, 144.498 219.814 C 144.875 217.991, 146.267 214.822, 147.591 212.771 C 148.916 210.721, 150 208.358, 150 207.521 C 150 206.685, 150.414 206, 150.921 206 C 151.427 206, 152.154 204.538, 152.536 202.750 C 152.918 200.963, 153.574 199.050, 153.993 198.500 C 154.412 197.950, 155.088 196.375, 155.494 195 C 155.900 193.625, 157.305 191.068, 158.616 189.317 C 159.927 187.566, 161 185.024, 161 183.669 C 161 182.313, 162.120 179.246, 163.488 176.852 C 164.856 174.458, 165.981 171.318, 165.988 169.872 C 165.995 168.427, 166.675 166.685, 167.500 166 C 168.325 165.315, 169 163.235, 169 161.378 C 169 159.520, 169.438 158, 169.974 158 C 171.372 158, 174 152.539, 174 149.633 C 174 148.277, 174.497 147.001, 175.105 146.798 C 176.094 146.469, 178.081 142.039, 179.725 136.500 C 180.051 135.400, 181.754 132.234, 183.510 129.464 C 185.265 126.695, 187.704 121.187, 188.931 117.224 C 190.157 113.261, 191.575 109.763, 192.080 109.450 C 192.586 109.138, 193 107.976, 193 106.870 C 193 105.763, 193.675 104.182, 194.500 103.357 C 195.414 102.443, 196 99.993, 196 97.084 C 196 92.612, 197.978 89, 200.428 89 C 200.851 89, 202.616 88.358, 204.349 87.574 C 206.082 86.790, 213.575 85.476, 221 84.655 C 241.439 82.393, 249.730 78.950, 247.668 73.577 C 247.170 72.280, 245.771 72.116, 239.285 72.600 C 235.003 72.919, 230.150 73.567, 228.500 74.040 C 226.850 74.513, 221.450 74.966, 216.500 75.047 C 201.670 75.289, 201 75.209, 201 73.200 C 201 72.210, 201.409 70.972, 201.910 70.450 C 202.410 69.927, 202.973 67.025, 203.160 64 C 203.347 60.975, 204.063 57.905, 204.750 57.179 C 205.438 56.452, 206 54.821, 206 53.554 C 206 48.472, 207.236 44.877, 208.781 45.469 C 210.590 46.163, 213.987 43.333, 214.032 41.095 C 214.049 40.218, 214.724 38.626, 215.532 37.559 C 216.339 36.491, 217 34.804, 217 33.809 C 217 32.814, 217.398 32, 217.883 32 C 219.683 32, 220.002 27.525, 218.293 26.250 C 216.288 24.754, 210.196 24.656, 207.750 26.080 M 69.109 35.709 C 66.790 36.628, 64 39.366, 64 40.722 C 64 42.877, 67.858 46, 70.520 46 C 71.906 46, 74.822 47.125, 77 48.500 C 79.831 50.287, 82.356 51, 85.858 51 C 88.917 51, 91.207 51.544, 91.959 52.451 C 92.622 53.249, 95.264 54.207, 97.832 54.579 C 100.399 54.951, 103.175 55.597, 104 56.013 C 106.489 57.270, 117.404 58.112, 118.842 57.158 C 121.447 55.430, 118.023 52.147, 112.397 50.979 C 109.563 50.390, 105.519 49.029, 103.411 47.954 C 101.302 46.880, 98.953 46, 98.190 46 C 97.427 46, 95.159 45.287, 93.151 44.417 C 91.143 43.546, 88.022 42.196, 86.216 41.417 C 84.410 40.637, 82.272 40, 81.466 40 C 80.660 40, 79.997 39.663, 79.994 39.250 C 79.984 38.131, 74.089 34.988, 72.169 35.079 C 71.251 35.122, 69.874 35.406, 69.109 35.709 M 128.361 86.972 C 127.185 87.457, 122.910 88.320, 118.861 88.892 C 103.540 91.053, 93.722 93.211, 88.349 95.599 C 86.616 96.370, 84.366 97, 83.348 97 C 82.331 97, 78.349 97.688, 74.500 98.529 C 61.853 101.292, 56.606 101.988, 48.372 101.994 C 38.906 102.001, 36.743 103.282, 39.018 107.534 C 40.317 109.961, 42.825 110.627, 48.750 110.118 C 50.863 109.936, 51 110.303, 51 116.141 C 51 119.560, 51.430 123.740, 51.955 125.429 C 53.375 129.994, 55.423 149.963, 55.014 155.250 C 54.961 155.938, 55.410 158.525, 56.012 161 C 56.614 163.475, 57.583 167.975, 58.164 171 C 59.200 176.384, 62.960 182, 65.530 182 C 66.165 182, 67.543 183.665, 68.593 185.701 C 71.071 190.509, 74.983 194.045, 77.490 193.741 C 80.425 193.385, 80.453 190.580, 77.537 189.020 C 76.142 188.273, 75 186.838, 75 185.831 C 75 184.824, 74.611 184, 74.136 184 C 72.643 184, 68.138 178.939, 68.066 177.181 C 67.639 166.715, 67.030 161.510, 66.200 161.233 C 65.614 161.038, 65.503 159.783, 65.933 158.200 C 66.366 156.603, 66.150 154.254, 65.403 152.450 C 64.634 150.593, 64.021 143.487, 63.836 134.287 C 63.570 121.079, 63.750 118.934, 65.266 117.259 C 66.220 116.205, 67 114.351, 67 113.140 C 67 111.928, 67.688 110.673, 68.530 110.350 C 69.495 109.980, 69.839 109.069, 69.462 107.882 C 69.051 106.586, 69.353 106, 70.433 106 C 71.342 106, 72 106.854, 72 108.035 C 72 109.653, 72.359 109.884, 73.750 109.161 C 74.713 108.660, 78.161 107.928, 81.414 107.533 C 84.666 107.138, 87.961 106.182, 88.735 105.408 C 89.509 104.633, 90.953 104, 91.943 104 C 92.933 104, 98.178 102.875, 103.599 101.500 C 109.019 100.125, 114.900 99, 116.668 99 C 118.436 99, 120.160 98.550, 120.500 98 C 120.840 97.450, 122.089 97, 123.277 97 C 126.336 97, 141.862 93.092, 145.809 91.329 C 147.969 90.364, 149.007 89.269, 148.797 88.175 C 148.530 86.775, 147.001 86.466, 139.489 86.295 C 134.545 86.183, 129.538 86.487, 128.361 86.972 M 120 93.941 C 120 95.382, 122.141 96.382, 122.862 95.278 C 123.213 94.740, 124.175 94.043, 125 93.729 C 125.825 93.415, 125.037 93.122, 123.250 93.079 C 121.463 93.036, 120 93.423, 120 93.941 M 77.269 104.693 C 78.242 104.947, 79.592 104.930, 80.269 104.656 C 80.946 104.382, 80.150 104.175, 78.500 104.195 C 76.850 104.215, 76.296 104.439, 77.269 104.693 M 60.500 108 C 60.840 108.550, 61.740 109, 62.500 109 C 63.260 109, 64.160 108.550, 64.500 108 C 64.852 107.431, 63.991 107, 62.500 107 C 61.009 107, 60.148 107.431, 60.500 108 M 56.018 131.750 C 56.028 132.162, 56.695 136.775, 57.500 142 C 58.305 147.225, 58.972 154.762, 58.982 158.750 C 58.992 162.905, 59.427 166, 60 166 C 60.550 166, 61 167.589, 61 169.532 C 61 172.929, 63.322 180, 64.438 180 C 65.261 180, 63.964 161.780, 62.978 159.500 C 62.503 158.400, 61.896 155.700, 61.630 153.500 C 59.362 134.750, 58.651 131, 57.365 131 C 56.614 131, 56.008 131.338, 56.018 131.750 M 206.174 139.314 C 204.978 140.587, 204 142.828, 204 144.294 C 204 145.760, 203.389 148.656, 202.643 150.730 C 200.152 157.653, 199.134 161.460, 198.425 166.500 C 198.039 169.250, 197.435 171.725, 197.083 172 C 196.732 172.275, 195.910 175.127, 195.257 178.337 C 194.604 181.547, 192.704 186.907, 191.035 190.247 C 189.366 193.587, 188 197.067, 188 197.982 C 188 200.210, 185.215 208.853, 183.433 212.154 C 182.645 213.614, 182 215.442, 182 216.217 C 182 216.992, 180.875 219.958, 179.500 222.808 C 178.125 225.658, 177 228.469, 177 229.055 C 177 229.640, 175.200 233.891, 173 238.500 C 169.119 246.631, 167.748 254.108, 169.894 255.434 C 170.385 255.738, 172.692 255.314, 175.019 254.493 C 177.347 253.672, 180.657 252.994, 182.376 252.986 C 187.893 252.962, 190 251.967, 190 249.383 C 190 247.508, 190.533 247, 192.500 247 C 194.500 247, 195 247.500, 195 249.500 C 195 252.669, 196.840 252.710, 202.308 249.665 C 204.786 248.284, 209.140 247.055, 212.956 246.658 C 216.507 246.289, 219.860 245.540, 220.406 244.994 C 220.953 244.447, 222.097 243.986, 222.950 243.969 C 223.802 243.951, 227.189 242.601, 230.475 240.969 C 233.761 239.336, 236.916 238, 237.487 238 C 238.058 238, 239.370 236.875, 240.403 235.500 C 241.435 234.125, 243.005 232.990, 243.890 232.978 C 244.776 232.966, 246.485 232.178, 247.688 231.228 C 249.774 229.581, 249.831 229.124, 248.905 221.500 C 246.424 201.080, 246.357 200, 247.569 200 C 249.289 200, 250.671 202.039, 251.464 205.750 C 251.846 207.537, 252.573 209, 253.079 209 C 254.342 209, 254.237 211.648, 252.890 213.805 C 252.048 215.152, 252.170 216.733, 253.390 220.327 C 254.275 222.935, 255 225.939, 255 227.001 C 255 229.389, 258.074 236, 259.185 236 C 259.633 236, 260 236.395, 260 236.878 C 260 238.242, 262.767 243.998, 266.068 249.500 C 267.718 252.250, 269.613 255.598, 270.280 256.939 C 272.236 260.873, 280.281 269, 282.218 269 C 284.750 269, 284.494 265.329, 281.750 262.290 C 280.512 260.919, 278.753 258.983, 277.839 257.988 C 276.926 256.993, 275.412 254.563, 274.475 252.589 C 273.539 250.615, 272.373 249, 271.886 249 C 271.399 249, 271 248.180, 271 247.178 C 271 246.176, 269.663 243.589, 268.028 241.428 C 266.393 239.268, 265.043 236.803, 265.028 235.950 C 265.013 235.098, 264.606 233.973, 264.124 233.450 C 262.059 231.213, 257.620 222.184, 256.773 218.500 C 256.268 216.300, 255.440 210.675, 254.934 206 C 254.173 198.955, 254.299 196.703, 255.672 192.843 C 257.187 188.582, 257.193 188.050, 255.736 186.593 C 253.299 184.156, 249.632 184.662, 246.816 187.822 C 243.556 191.481, 242.752 195.604, 244.878 197.750 C 246.375 199.262, 246.365 199.337, 244.750 198.725 C 242.635 197.924, 242.612 198.393, 244.043 213.483 C 244.990 223.471, 244.928 224.580, 243.351 225.733 C 242.398 226.430, 240.454 227, 239.031 227 C 237.609 227, 233.843 228.350, 230.663 230 C 227.482 231.650, 224.264 233, 223.512 233 C 222.759 233, 221.523 233.619, 220.766 234.376 C 220.009 235.133, 217.615 236.005, 215.445 236.313 C 210.832 236.969, 200.166 239.367, 198 240.236 C 197.175 240.567, 195.375 241.073, 194 241.360 C 192.625 241.647, 189.563 242.458, 187.196 243.162 C 181.284 244.920, 180.319 243.265, 183.600 236.991 C 184.939 234.430, 186.955 228.997, 188.080 224.917 C 189.205 220.838, 190.772 216.503, 191.562 215.285 C 192.353 214.067, 193 212.327, 193 211.419 C 193 209.751, 194.726 204.062, 198.286 194 C 199.356 190.975, 200.535 186.184, 200.907 183.354 C 201.278 180.524, 202.074 177.599, 202.676 176.854 C 203.814 175.445, 205.538 169.104, 205.169 167.686 C 204.660 165.729, 207.178 159.257, 209.483 156.594 C 210.868 154.996, 212.002 152.971, 212.005 152.094 C 212.008 151.218, 213.119 148.700, 214.474 146.500 C 217.946 140.862, 217.719 139.294, 213.250 138.053 C 208.370 136.697, 208.686 136.641, 206.174 139.314 M 115.229 228.188 C 115.847 230.042, 118 230.349, 118 228.583 C 118 227.713, 117.287 227, 116.417 227 C 115.546 227, 115.011 227.534, 115.229 228.188 M 97.036 229.456 C 95.559 231.236, 96.489 233, 98.904 233 C 100.945 233, 104.344 229.677, 103.336 228.669 C 102.144 227.477, 98.278 227.960, 97.036 229.456 M 82 230 C 80.781 230.788, 80.910 230.972, 82.691 230.985 C 83.896 230.993, 85.160 231.450, 85.500 232 C 85.840 232.550, 86.610 233, 87.212 233 C 87.814 233, 87.268 232.100, 86 231 C 84.732 229.900, 83.650 229.007, 83.597 229.015 C 83.544 229.024, 82.825 229.467, 82 230 M 51.750 233.662 C 52.438 233.940, 53.563 233.940, 54.250 233.662 C 54.938 233.385, 54.375 233.158, 53 233.158 C 51.625 233.158, 51.063 233.385, 51.750 233.662 M 62.762 233.707 C 64.006 233.946, 65.806 233.937, 66.762 233.687 C 67.718 233.437, 66.700 233.241, 64.500 233.252 C 62.300 233.263, 61.518 233.468, 62.762 233.707" stroke="none" fill="black" fill-rule="evenodd"/>
</svg>