<svg xmlns="http://www.w3.org/2000/svg" width="300" height="300" viewBox="0 0 300 300" version="1.1">
	<path d="M 82.617 20.870 C 80.503 23.207, 78.032 53.177, 79.902 53.801 C 81.751 54.417, 81.177 57.792, 79.250 57.639 C 77.791 57.523, 77.481 58.415, 77.384 63 C 77.321 66.025, 76.959 70.320, 76.581 72.545 C 76.203 74.770, 76.354 77.802, 76.918 79.283 C 77.757 81.490, 77.599 82.296, 76.046 83.743 C 74.698 84.998, 73.541 88.979, 72.044 97.504 C 70.886 104.102, 69.474 110.960, 68.906 112.744 C 67.787 116.265, 68.320 118, 70.520 118 C 72.893 118, 75.829 113.974, 76.544 109.737 C 76.919 107.519, 77.918 104.083, 78.764 102.102 C 80.291 98.524, 80.575 97.482, 83.418 85 C 84.781 79.016, 87.514 57.572, 90.148 32.190 C 91.143 22.602, 91.088 21.781, 89.359 20.472 C 86.798 18.532, 84.617 18.661, 82.617 20.870 M 152.610 31.878 C 151.156 33.485, 150.736 36.189, 150.361 46.364 C 150.107 53.244, 149.455 61.265, 148.912 64.187 C 145.801 80.921, 145.191 83.754, 144.147 86.315 C 143.496 87.913, 143 94.521, 143 101.596 C 143 111.802, 143.274 114.168, 144.513 114.643 C 147.399 115.751, 148.825 113.053, 149.509 105.194 C 149.876 100.962, 150.973 94.575, 151.945 91 C 155.707 77.164, 159.288 57.805, 158.825 53.797 C 158.680 52.534, 159.135 48.942, 159.838 45.815 C 160.540 42.688, 160.977 37.963, 160.807 35.315 C 160.516 30.758, 160.337 30.484, 157.449 30.201 C 155.401 30.001, 153.810 30.552, 152.610 31.878 M 191.500 43.115 C 187.650 43.588, 181.167 44.395, 177.094 44.909 C 165.569 46.362, 161.295 50.891, 167.253 55.339 C 169.390 56.935, 170.273 57.127, 171.203 56.197 C 171.861 55.539, 173.560 55, 174.977 55 C 176.395 55, 178.530 54.317, 179.722 53.482 C 180.941 52.629, 184.210 51.924, 187.194 51.873 C 190.112 51.823, 196.166 51.718, 200.647 51.641 C 207.140 51.529, 209.186 51.855, 210.726 53.250 C 213.124 55.422, 216.862 55.523, 217.663 53.436 C 218.747 50.610, 216.158 47.114, 211.071 44.536 C 205.765 41.847, 203.288 41.668, 191.500 43.115 M 119.709 56.624 C 119.130 57.203, 110.261 57.746, 98.750 57.906 C 92.067 57.999, 92 58.028, 92 60.764 C 92 63.038, 92.717 63.839, 96.041 65.279 C 99.639 66.838, 101.311 66.912, 111.291 65.955 C 117.456 65.364, 124.975 65.010, 128 65.168 C 136.015 65.589, 137.942 63.888, 133.811 60.039 C 132.389 58.714, 130.265 58, 127.746 58 C 125.613 58, 123.057 57.566, 122.066 57.035 C 121.074 56.505, 120.014 56.320, 119.709 56.624 M 185.740 73.540 C 182.981 76.099, 182.018 80, 184.146 80 C 185.266 80, 190.702 84.634, 200.235 93.715 C 205.313 98.553, 208 98.855, 208 94.589 C 208 91.077, 204.774 86.063, 199.949 82.077 C 197.671 80.194, 194.719 76.931, 193.390 74.827 C 190.548 70.323, 189.415 70.133, 185.740 73.540 M 108.285 84.365 C 107.261 85.666, 105.375 87.063, 104.094 87.470 C 102.022 88.128, 101.817 88.682, 102.243 92.464 C 102.580 95.450, 103.602 97.579, 105.674 99.609 C 107.297 101.199, 109.658 104.206, 110.919 106.291 C 113.360 110.323, 121.938 115.974, 125.643 115.991 C 129.838 116.009, 129.658 110.633, 125.428 109.571 C 124.092 109.236, 123 108.333, 123 107.564 C 123 106.796, 122.599 106.017, 122.109 105.833 C 121.619 105.650, 119.369 103.151, 117.110 100.281 L 113.003 95.062 114.572 90.438 C 116.028 86.152, 116.016 85.676, 114.416 83.907 C 112.131 81.383, 110.537 81.502, 108.285 84.365 M 139.005 132.494 C 137.325 134.519, 138.149 137.341, 140.756 138.487 C 141.990 139.030, 143 139.816, 143 140.235 C 143 141.038, 152.721 146, 154.294 146 C 154.800 146, 158.115 147.385, 161.662 149.077 C 166.811 151.535, 168.400 151.913, 169.555 150.955 C 170.350 150.295, 171 149.221, 171 148.567 C 171 146.452, 164.974 141.146, 161.187 139.926 C 159.159 139.274, 157.003 138.347, 156.395 137.868 C 153.862 135.869, 146.278 132.294, 143.337 131.711 C 141.198 131.288, 139.796 131.541, 139.005 132.494 M 193 157.539 C 187.225 158.252, 177.349 159.251, 171.053 159.759 C 164.272 160.306, 159.454 161.139, 159.233 161.802 C 159.011 162.467, 157.705 162.691, 156.019 162.354 C 154.457 162.041, 151.543 162.326, 149.543 162.986 C 147.543 163.646, 139.740 164.548, 132.203 164.991 C 124.666 165.433, 114.735 166.527, 110.134 167.421 C 105.533 168.315, 96.019 169.684, 88.994 170.464 C 75.771 171.931, 70.549 173.425, 68.032 176.460 C 66.718 178.044, 66.801 178.421, 68.826 180.060 C 71.855 182.513, 79.109 183.547, 82.091 181.952 C 83.366 181.269, 86.680 180.535, 89.455 180.320 C 92.230 180.106, 96.300 179.797, 98.500 179.635 C 100.700 179.472, 105.425 178.613, 109 177.725 C 116.869 175.771, 122.029 175.170, 136.841 174.485 C 143.366 174.184, 151.348 173.113, 155.638 171.963 C 163.622 169.823, 165.767 169.538, 182 168.454 C 187.775 168.068, 192.999 167.356, 193.608 166.872 C 194.217 166.387, 199.738 165.850, 205.877 165.677 C 218.134 165.332, 220.033 164.564, 218.258 160.667 C 217.501 159.005, 215.795 157.934, 212.642 157.140 C 207.379 155.815, 206.876 155.825, 193 157.539 M 203.269 160.693 C 204.242 160.947, 205.592 160.930, 206.269 160.656 C 206.946 160.382, 206.150 160.175, 204.500 160.195 C 202.850 160.215, 202.296 160.439, 203.269 160.693 M 158 165.143 C 156.075 165.657, 153.600 166.228, 152.500 166.411 C 151.400 166.595, 150.275 166.852, 150 166.983 C 149.725 167.114, 148.375 167.210, 147 167.196 C 144.668 167.172, 144.653 167.203, 146.765 167.657 C 148.010 167.924, 148.741 168.610, 148.388 169.181 C 147.655 170.368, 155.407 169.342, 158.184 167.884 C 159.111 167.398, 160.997 167, 162.375 167 C 163.754 167, 165.160 166.550, 165.500 166 C 165.840 165.450, 165.678 165, 165.141 165 C 164.603 165, 163.564 164.822, 162.832 164.604 C 162.099 164.387, 159.925 164.629, 158 165.143 M 115.239 168.712 C 114.545 168.966, 113.522 170.025, 112.965 171.065 C 111.993 172.881, 112.397 172.935, 123.227 172.414 C 136.154 171.793, 139 171.354, 139 169.981 C 139 168.607, 134.363 168.756, 132.042 170.206 C 130.448 171.201, 129.744 171.078, 128 169.500 C 126.256 167.922, 125.552 167.799, 123.958 168.794 C 121.689 170.211, 118.789 170.359, 117.450 169.125 C 116.927 168.644, 115.932 168.458, 115.239 168.712 M 104.861 172.133 C 104.112 172.622, 101.813 172.752, 99.750 172.423 C 95.728 171.781, 95.162 172.305, 97.429 174.571 C 99.436 176.579, 105.347 176.349, 108.052 174.159 C 110.295 172.343, 110.298 172.311, 108.273 171.782 C 107.145 171.487, 105.609 171.645, 104.861 172.133 M 82.443 175.418 C 80.069 177.154, 81.223 178.661, 83.965 177.407 C 85.219 176.834, 85.661 176.040, 85.166 175.250 C 84.548 174.265, 83.971 174.301, 82.443 175.418 M 188.414 187.558 C 186.811 188.313, 184.304 189.369, 182.843 189.905 C 181.044 190.565, 179.968 191.869, 179.513 193.940 C 179.053 196.036, 178.246 197, 176.952 197 C 174.570 197, 175.461 194.015, 177.857 193.968 C 179.312 193.940, 179.295 193.781, 177.709 192.578 C 176.200 191.433, 175.195 191.438, 171.300 192.610 C 166.309 194.112, 152.435 194.363, 144.703 193.092 C 138.186 192.020, 132.507 193.703, 128.158 197.995 C 124.643 201.465, 124.600 201.610, 123.871 212.500 C 123.467 218.550, 122.722 225.075, 122.217 227 C 120.551 233.351, 115.917 245.426, 113.438 249.876 C 112.097 252.283, 110.994 254.758, 110.987 255.376 C 110.951 258.572, 102.522 272.674, 98.161 276.835 C 94.798 280.043, 94.498 286.357, 97.687 286.811 C 99.197 287.026, 100.422 286.253, 101.646 284.311 C 102.621 282.765, 104.610 280.375, 106.066 279 C 107.522 277.625, 109.968 274.475, 111.502 272 C 113.036 269.525, 114.901 267.140, 115.646 266.700 C 116.390 266.260, 117 264.821, 117 263.500 C 117 262.180, 118.257 259.165, 119.793 256.800 C 122.694 252.335, 125 246.545, 125 243.729 C 125 242.833, 125.676 241.721, 126.502 241.259 C 128.113 240.357, 132 230.336, 132 227.084 C 132 226.003, 132.412 224.863, 132.915 224.552 C 133.419 224.241, 134.132 220.502, 134.499 216.243 C 135.457 205.159, 135.715 203.972, 137.632 201.854 C 138.951 200.396, 139.078 199.678, 138.176 198.776 C 135.132 195.732, 139.061 194.405, 144.959 196.486 C 147.320 197.318, 150.395 198, 151.792 198 C 155.883 198, 153.708 199.003, 148.826 199.369 C 146.365 199.553, 143.498 200.181, 142.455 200.765 C 138.897 202.756, 147.587 203.353, 162.911 202.170 C 170.906 201.553, 177.750 201.375, 178.119 201.774 C 179.941 203.745, 176.420 226.380, 173.772 229.720 C 173.240 230.391, 172.580 233.991, 172.304 237.719 C 172.029 241.448, 171.398 245.257, 170.902 246.184 C 169.731 248.371, 169.740 252, 170.917 252 C 171.421 252, 172.060 251.438, 172.338 250.750 C 172.717 249.810, 172.862 249.833, 172.921 250.844 C 172.964 251.583, 172.100 252.423, 171 252.710 C 169.215 253.177, 169 254.074, 169 261.058 C 169 265.361, 169.450 269.160, 170 269.500 C 170.550 269.840, 171 271.381, 171 272.924 C 171 278.292, 176.703 282.897, 179.673 279.927 C 180.437 279.163, 181.947 279.178, 184.914 279.977 C 187.207 280.594, 191.427 281.045, 194.291 280.979 C 197.156 280.912, 206.149 280.909, 214.276 280.972 C 222.402 281.035, 229.600 280.747, 230.271 280.332 C 231.552 279.541, 239.162 278.128, 244.838 277.628 C 246.673 277.466, 248.602 276.696, 249.123 275.917 C 250.367 274.055, 249.445 268.063, 247.095 262.754 C 241.516 250.146, 239.508 243.837, 238.459 235.612 C 237.832 230.695, 235.225 224, 233.937 224 C 231.576 224, 230.894 227.441, 231.325 237.182 C 232.074 254.109, 232.910 257.164, 238.170 262.170 C 242.350 266.149, 242.588 266.630, 241.109 268.109 C 236.799 272.418, 187.192 272.786, 181.401 268.552 C 178.538 266.458, 178.378 256.151, 180.992 242.282 C 182.214 235.802, 183.675 229.631, 184.239 228.568 C 185.443 226.301, 187.625 218.149, 189.476 209 C 190.200 205.425, 191.989 200.088, 193.451 197.140 C 194.914 194.193, 195.973 190.867, 195.805 189.749 C 195.379 186.910, 191.948 185.893, 188.414 187.558 M 128 210.500 C 128 211.875, 128.450 213, 129 213 C 129.550 213, 130 211.875, 130 210.500 C 130 209.125, 129.550 208, 129 208 C 128.450 208, 128 209.125, 128 210.500 M 117.079 246.583 C 117.127 247.748, 117.364 247.985, 117.683 247.188 C 117.972 246.466, 117.936 245.603, 117.604 245.271 C 117.272 244.939, 117.036 245.529, 117.079 246.583 M 172.583 267.866 C 172.152 268.563, 172.070 269.403, 172.400 269.733 C 173.295 270.628, 174.271 269.312, 173.787 267.862 C 173.449 266.846, 173.213 266.846, 172.583 267.866 M 189.658 275.675 C 188.227 277.106, 190.495 278, 195.559 278 C 199.406 278, 201 277.612, 201 276.677 C 201 275.761, 199.347 275.310, 195.631 275.212 C 192.678 275.134, 189.991 275.343, 189.658 275.675 M 227.750 275.662 C 228.438 275.940, 229.563 275.940, 230.250 275.662 C 230.938 275.385, 230.375 275.158, 229 275.158 C 227.625 275.158, 227.063 275.385, 227.750 275.662 M 216.143 276.890 C 215.145 277.523, 215.094 277.940, 215.950 278.469 C 217.537 279.450, 222.229 278.179, 221.482 276.971 C 220.744 275.776, 217.968 275.734, 216.143 276.890" stroke="none" fill="black" fill-rule="evenodd"/>
</svg>