<svg xmlns="http://www.w3.org/2000/svg" width="300" height="300" viewBox="0 0 300 300" version="1.1">
	<path d="M 174.554 46.337 C 173.180 47.342, 172.855 48.523, 173.247 51.087 C 174.158 57.040, 169.576 71.755, 162.058 87.024 C 158.209 94.841, 154.778 102.125, 154.433 103.212 C 154.088 104.299, 152.483 107.147, 150.867 109.542 L 147.928 113.897 142.714 113.320 C 137.079 112.697, 132.859 110.607, 129.053 106.557 L 126.641 103.989 124.359 106.132 C 121.406 108.907, 122.540 111.218, 128.283 114.134 C 130.603 115.312, 133.604 117.137, 134.953 118.191 C 136.833 119.660, 138.293 119.957, 141.203 119.466 C 144.274 118.947, 145 119.128, 145 120.412 C 145 121.285, 144.550 122, 144 122 C 143.450 122, 143 123.125, 143 124.500 C 143 127.033, 144.316 127.583, 147.478 126.370 C 150.330 125.276, 163.361 103.981, 168.816 91.500 C 171.701 84.900, 174.835 77.925, 175.780 76 L 177.500 72.500 186.500 71.901 C 191.565 71.564, 197.249 70.541, 199.500 69.562 C 205.112 67.119, 212.104 65.024, 214.683 65.011 C 217.543 64.997, 218.776 61.348, 216.642 59.214 C 215.224 57.796, 214.518 57.806, 209.054 59.325 C 205.741 60.246, 202.117 61, 201.002 61 C 199.886 61, 198.191 61.435, 197.236 61.968 C 195.078 63.170, 183.552 66, 180.812 66 C 179.259 66, 178.964 65.592, 179.548 64.250 C 179.967 63.288, 180.643 59.350, 181.050 55.500 C 181.648 49.841, 181.493 48.165, 180.240 46.750 C 178.382 44.652, 176.996 44.551, 174.554 46.337 M 96.835 55.673 C 93.825 56.470, 93.941 58.932, 97.123 61.765 C 101.852 65.976, 102.006 66.799, 99.980 77.044 C 97.735 88.392, 96.511 91.970, 91.189 102.743 C 84.659 115.959, 78.594 124.541, 74.076 126.959 C 71.395 128.394, 71.401 131.675, 74.087 132.528 C 77.281 133.541, 82.857 132.137, 83.981 130.035 C 84.534 129.001, 85.574 127.558, 86.291 126.828 C 92.538 120.467, 102.976 97.963, 103.011 90.782 C 103.021 88.642, 103.178 88.697, 105.526 91.676 C 107.922 94.716, 108.275 94.832, 113.765 94.382 C 122.988 93.626, 131.190 91.952, 135.695 89.905 C 138.002 88.857, 140.477 87.979, 141.195 87.952 C 141.913 87.926, 145.200 86.382, 148.500 84.521 C 153.136 81.907, 154.500 80.611, 154.500 78.819 C 154.500 76.222, 150.856 75.045, 148.603 76.914 C 147.400 77.913, 141.629 80.029, 126 85.202 C 122.425 86.386, 116.800 87.387, 113.500 87.427 C 107.635 87.498, 107.493 87.436, 107.176 84.667 C 106.997 83.109, 107.519 80.409, 108.336 78.667 C 110.006 75.104, 110.280 73.342, 110.115 67.251 C 110.020 63.749, 109.317 62.299, 106.117 59.001 C 102.454 55.227, 100.783 54.627, 96.835 55.673 M 191.122 68.278 C 188.574 70.826, 190.384 71.902, 193.449 69.661 C 195.011 68.519, 195.057 68.236, 193.762 67.739 C 192.927 67.418, 191.739 67.661, 191.122 68.278 M 104.324 71.217 C 104.319 71.922, 103.988 73.513, 103.590 74.750 C 103.180 76.023, 103.282 77, 103.824 77 C 105.157 77, 106.309 71.909, 105.222 70.822 C 104.704 70.304, 104.329 70.468, 104.324 71.217 M 184.671 86.060 C 183.835 87.253, 183.410 88.904, 183.726 89.729 C 184.042 90.553, 184.346 92.414, 184.401 93.864 C 184.471 95.728, 185.013 96.459, 186.250 96.361 C 187.213 96.285, 188 96.759, 188 97.415 C 188 98.753, 197.157 104, 199.493 104 C 200.322 104, 201 104.399, 201 104.886 C 201 105.969, 207.191 109, 209.401 109 C 211.730 109, 211.376 105.428, 208.811 103.038 C 207.606 101.916, 204.547 100.211, 202.011 99.249 C 195.319 96.710, 191.986 93.666, 190.544 88.780 C 189.109 83.912, 186.894 82.886, 184.671 86.060 M 162.200 128.200 C 161.540 128.860, 161 129.985, 161 130.700 C 161 131.415, 160.349 132, 159.554 132 C 158.759 132, 154.596 135.405, 150.304 139.567 C 138.227 151.277, 119.374 166.285, 114.184 168.319 C 111.608 169.329, 108.825 170.727, 108 171.426 C 107.175 172.124, 105.702 172.979, 104.727 173.325 C 102.451 174.133, 101.620 176.350, 102.411 179.502 C 103.120 182.327, 105.483 182.706, 108.441 180.468 C 109.509 179.661, 111.090 179, 111.956 179 C 112.821 179, 115.197 178.106, 117.236 177.014 C 119.274 175.921, 124.205 174.521, 128.192 173.902 C 132.180 173.284, 135.905 172.190, 136.471 171.473 C 137.037 170.756, 139.750 169.914, 142.500 169.603 C 145.250 169.292, 148.400 168.841, 149.500 168.602 C 150.600 168.363, 153.905 168.129, 156.844 168.083 C 161.308 168.014, 162.273 167.671, 162.710 166 C 163.238 163.983, 166 163.143, 166 165 C 166 165.550, 168.508 166, 171.574 166 C 176.876 166, 177.398 165.762, 182.237 161.146 C 185.773 157.773, 187.133 155.789, 186.694 154.646 C 185.807 152.334, 183.200 152.597, 179.054 155.416 C 175.483 157.845, 165.163 160.014, 157.308 159.987 C 155.214 159.980, 150.243 160.736, 146.263 161.667 C 139.164 163.327, 135.672 162.882, 139.406 160.793 C 140.445 160.211, 142.543 158.558, 144.068 157.118 C 145.594 155.678, 149.832 151.800, 153.487 148.500 C 160.844 141.857, 168 133.446, 168 131.441 C 168 130.053, 165.338 127, 164.129 127 C 163.728 127, 162.860 127.540, 162.200 128.200 M 185.350 137.765 C 184.717 138.169, 184.042 139.206, 183.850 140.069 C 183.332 142.391, 187.027 148.676, 189.774 150.147 C 191.658 151.155, 192.051 151.996, 191.627 154.116 C 191.202 156.239, 191.790 157.491, 194.411 160.054 C 196.604 162.199, 197.565 163.946, 197.239 165.194 C 196.967 166.234, 197.139 167.013, 197.622 166.924 C 199.869 166.512, 200.952 167.254, 202.882 170.524 C 205.393 174.781, 207.618 175.811, 209.733 173.696 C 211.367 172.062, 210.854 171.164, 203.430 162.662 C 202.547 161.652, 201.230 159.402, 200.503 157.662 C 199.776 155.923, 198.291 153.367, 197.202 151.983 C 196.113 150.599, 194.475 147.680, 193.563 145.497 C 192.001 141.759, 188.347 136.981, 187.076 137.015 C 186.759 137.024, 185.982 137.361, 185.350 137.765 M 188.575 152.879 C 188.265 153.380, 188.684 154.048, 189.506 154.364 C 190.328 154.679, 191 154.528, 191 154.028 C 191 152.672, 189.223 151.830, 188.575 152.879 M 132.459 159.067 C 132.096 159.653, 132.050 160.384, 132.357 160.690 C 133.179 161.513, 136 160.229, 136 159.031 C 136 157.674, 133.303 157.701, 132.459 159.067 M 175.500 171.964 C 172.500 172.555, 172.500 172.556, 172.770 179.028 C 172.919 182.587, 173.549 188.237, 174.170 191.583 C 174.792 194.929, 175.021 198.781, 174.679 200.144 C 174.079 202.532, 173.603 202.664, 161.459 203.808 C 152.223 204.679, 148.309 204.701, 146.795 203.890 C 145.320 203.101, 145.079 202.569, 145.952 202.029 C 146.625 201.614, 147.340 198.889, 147.541 195.974 C 147.743 193.060, 148.309 190.411, 148.800 190.088 C 150.015 189.287, 151.130 180.368, 150.386 177.402 C 149.864 175.322, 149.194 175, 145.392 175 C 140.270 175, 139.722 176.450, 143.500 180 C 145.905 182.259, 145.937 182.447, 144.335 184.892 C 143.374 186.359, 142.205 191.464, 141.571 196.967 L 140.471 206.500 135.486 207.171 C 132.744 207.539, 128.250 208.276, 125.500 208.807 C 122.750 209.337, 116.225 210.321, 111 210.991 C 105.775 211.662, 101.050 212.552, 100.500 212.968 C 99.950 213.384, 98.375 213.997, 97 214.331 C 95.625 214.665, 93.282 216.077, 91.794 217.469 C 90.305 218.861, 88.618 220, 88.044 220 C 86.376 220, 86.839 223.724, 88.590 224.396 C 90.838 225.259, 92.260 224.104, 91.681 221.887 C 91.097 219.654, 92.703 219.423, 94.921 221.422 C 96.272 222.639, 97.256 222.648, 101.727 221.485 C 104.602 220.737, 107.752 219.654, 108.727 219.078 C 110.345 218.124, 110.292 217.974, 108.126 217.367 L 105.751 216.702 108.626 215.490 C 112.151 214.004, 113.286 214.524, 112.427 217.231 C 111.854 219.034, 112.069 219.198, 114.136 218.535 C 115.436 218.118, 119.650 217.413, 123.500 216.969 C 131.676 216.026, 135.229 215.088, 136.196 213.616 C 137.665 211.380, 138.173 216.184, 137.108 222.242 C 135.811 229.621, 131.741 240.215, 127.118 248.250 C 123.298 254.889, 122.094 255.919, 120.819 253.640 C 119.478 251.246, 117.535 251.632, 115.941 254.610 C 114.072 258.102, 114.646 263.099, 117.163 265.245 C 119.103 266.900, 119.360 266.901, 122.134 265.262 C 123.743 264.311, 126.358 262.176, 127.944 260.517 C 132.443 255.811, 140.354 239.332, 142.381 230.441 C 145.342 217.460, 146.315 214.730, 148.153 214.250 C 149.107 214, 150.025 212.829, 150.194 211.648 C 150.390 210.269, 151.216 209.500, 152.500 209.500 C 153.600 209.500, 154.387 210.063, 154.250 210.750 C 153.970 212.149, 156.587 212.477, 157.409 211.147 C 157.699 210.677, 160.467 210.434, 163.559 210.605 C 168.156 210.860, 169.080 210.651, 168.622 209.459 C 167.857 207.464, 170.452 207.595, 172.512 209.655 C 175.140 212.283, 176.135 215.995, 175.946 222.475 C 175.850 225.789, 176.036 229.175, 176.359 230 C 177.596 233.158, 178.952 240.666, 178.978 244.500 C 178.993 246.700, 180.129 252.695, 181.503 257.822 C 182.876 262.949, 184 268.639, 184 270.467 C 184 275.628, 187.830 287, 189.568 287 C 190.800 287, 190.948 285.838, 190.431 280.250 C 190.087 276.538, 188.950 271.121, 187.903 268.212 C 186.856 265.304, 186.047 261.479, 186.105 259.712 L 186.210 256.500 187.444 260.500 C 188.139 262.750, 189.406 264.641, 190.340 264.823 C 192.378 265.220, 192.440 263.166, 190.468 260.559 C 189.661 259.491, 189 257.579, 189 256.309 C 189 255.039, 188.647 254, 188.216 254 C 186.728 254, 184.215 248.483, 182.976 242.500 C 181.514 235.434, 180.997 221.120, 182.177 220.390 C 182.630 220.111, 183 218.798, 183 217.472 C 183 215.741, 182.578 215.225, 181.500 215.638 C 178.780 216.682, 179.871 213.034, 183.351 209.450 C 186.906 205.790, 192 204.641, 192 207.500 C 192 209.285, 196.256 209.430, 203 207.876 C 205.475 207.305, 209.703 206.538, 212.397 206.169 C 218.602 205.321, 220.433 202.988, 217.328 199.884 C 215.185 197.741, 215.180 197.740, 207.842 199.547 C 199.517 201.596, 185.580 201.980, 183.810 200.210 C 183.120 199.520, 182.500 194.495, 182.277 187.776 C 181.725 171.184, 181.548 170.773, 175.500 171.964 M 117 173 C 116.099 173.582, 115.975 173.975, 116.691 173.985 C 117.346 173.993, 118.160 173.550, 118.500 173 C 119.267 171.758, 118.921 171.758, 117 173 M 185.386 236.437 C 184.598 238.490, 185.708 241.299, 186.993 240.504 C 187.547 240.162, 188 239.035, 188 238 C 188 235.536, 186.155 234.433, 185.386 236.437" stroke="none" fill="black" fill-rule="evenodd"/>
</svg>