<svg xmlns="http://www.w3.org/2000/svg" width="300" height="300" viewBox="0 0 300 300" version="1.1">
	<path d="M 107.556 38.910 C 107.247 39.410, 107.270 40.541, 107.609 41.422 C 107.947 42.304, 107.668 43.696, 106.988 44.515 C 106.195 45.470, 105.607 50.757, 105.349 59.252 C 105.128 66.538, 104.508 74.945, 103.973 77.934 C 102.712 84.976, 102.737 91.178, 104.041 94.608 C 104.962 97.031, 105.254 97.175, 106.568 95.860 C 107.396 95.033, 108.217 91.964, 108.421 88.937 C 109.013 80.173, 111.026 66.821, 112.041 64.923 C 113.073 62.995, 120.705 61, 127.049 61 C 129.222 61, 131 60.550, 131 60 C 131 59.422, 134.167 59, 138.500 59 C 143.825 59, 146.004 59.362, 146.015 60.250 C 146.025 61.080, 146.350 60.996, 146.979 60 C 149.887 55.401, 135.778 53.486, 121.077 56.484 C 116.542 57.409, 112.605 57.938, 112.327 57.661 C 112.049 57.383, 111.680 53.322, 111.507 48.637 C 111.334 43.952, 110.897 39.642, 110.537 39.060 C 109.733 37.760, 108.311 37.688, 107.556 38.910 M 153.752 39.905 L 151.004 41.500 151.002 56.167 C 151.001 65.950, 150.633 70.956, 149.899 71.200 C 149.248 71.417, 148.737 74.608, 148.649 79.003 C 148.531 84.894, 148.812 86.502, 150 86.741 C 151.138 86.971, 152.094 84.562, 153.959 76.772 C 155.311 71.122, 156.661 64.318, 156.959 61.651 L 157.500 56.802 164.915 54.456 C 168.993 53.166, 172.593 52.164, 172.915 52.229 C 173.237 52.295, 176.036 51.578, 179.136 50.636 C 182.236 49.695, 185.376 49.054, 186.113 49.212 C 188.045 49.627, 188.493 45.126, 186.592 44.397 C 184.872 43.737, 166.136 48.368, 161.629 50.567 C 157.452 52.605, 156.657 51.554, 157.352 44.908 C 157.686 41.710, 157.631 38.917, 157.230 38.702 C 156.828 38.486, 155.263 39.028, 153.752 39.905 M 169.473 65.044 C 169.118 65.618, 169.654 67.269, 170.664 68.714 C 171.674 70.158, 173.785 73.625, 175.356 76.420 C 178.600 82.192, 181.620 85.424, 182.475 84.041 C 183.257 82.775, 180.991 74, 179.881 74 C 179.397 74, 178.999 73.438, 178.998 72.750 C 178.997 71.620, 171.659 64, 170.572 64 C 170.322 64, 169.828 64.470, 169.473 65.044 M 124.750 79.083 C 123.787 80.138, 123 81.449, 123 81.997 C 123 83.713, 133.289 93, 135.191 93 C 137.901 93, 137.443 91.767, 132.500 85.764 C 130.025 82.757, 128 79.556, 128 78.649 C 128 76.534, 126.950 76.674, 124.750 79.083 M 189 89.772 C 189 90.197, 186.061 91.101, 182.469 91.783 C 178.877 92.464, 175.165 93.440, 174.219 93.951 C 173.274 94.463, 169.704 95.912, 166.286 97.171 C 162.868 98.431, 158.645 100.708, 156.901 102.231 C 155.156 103.754, 153.340 105, 152.864 105 C 152.389 105, 152 106.125, 152 107.500 C 152 109.229, 152.548 110, 153.777 110 C 155.724 110, 159.866 107.428, 161.597 105.144 C 163.710 102.358, 164.241 105.970, 162.949 114.327 C 161.413 124.249, 160.207 126.021, 156.595 123.654 C 153.274 121.478, 151 121.556, 151 123.845 C 151 126.265, 154.093 129, 156.829 129 C 159.816 129, 159.638 130.496, 154.985 144.469 C 150.633 157.540, 150.095 161.715, 152.636 162.691 C 154.801 163.521, 157.469 161.756, 157.622 159.392 C 157.689 158.351, 158.286 155.475, 158.948 153 C 159.962 149.209, 161.152 145.618, 165.493 133.261 C 165.794 132.406, 166.637 132.290, 168.214 132.887 C 169.471 133.362, 172.863 134.075, 175.750 134.470 C 180.104 135.065, 181 134.927, 181 133.661 C 181 132.822, 179.988 131.864, 178.750 131.532 C 172.008 129.727, 168.420 128.586, 167.759 128.035 C 166.939 127.352, 168.430 118.502, 170.797 110 C 171.639 106.975, 172.222 103.487, 172.092 102.250 C 171.923 100.634, 172.384 100, 173.728 100 C 174.758 100, 176.028 99.582, 176.550 99.070 C 177.072 98.559, 179.519 97.450, 181.986 96.606 C 187.509 94.717, 189.140 95.801, 186.781 99.793 C 184.866 103.035, 182.008 118.341, 182.003 125.379 C 181.999 131.029, 185.743 142.143, 189.625 148.010 C 193.488 153.846, 200.455 158.325, 204.493 157.567 C 209.544 156.620, 212 153.641, 212 148.461 C 212 142.946, 209.435 142.162, 208.457 147.378 C 207.639 151.738, 204.293 153.755, 200.875 151.950 C 195.530 149.128, 192.424 144.136, 189.430 133.561 C 187.384 126.335, 187.920 118.552, 191.513 103.349 C 194.438 90.971, 194.435 91, 192.500 91 C 191.675 91, 191 90.550, 191 90 C 191 89.450, 190.550 89, 190 89 C 189.450 89, 189 89.347, 189 89.772 M 126.500 114.643 C 111.638 117.715, 105 119.431, 105 120.200 C 105 120.640, 103.687 121, 102.082 121 C 96.467 121, 94.239 123.293, 97.347 125.873 C 98.356 126.711, 100.177 126.515, 104.597 125.093 C 107.844 124.049, 111.876 122.909, 113.558 122.560 L 116.617 121.925 116.723 136.713 C 116.782 144.846, 116.981 152.386, 117.165 153.468 C 117.438 155.070, 116.664 155.628, 113 156.468 C 110.525 157.036, 107.825 157.950, 107 158.500 C 106.175 159.050, 104.600 159.963, 103.500 160.529 C 102.400 161.096, 101.500 162.221, 101.500 163.030 C 101.500 165.117, 107.320 165.524, 108.958 163.551 C 109.666 162.698, 110.945 162, 111.801 162 C 112.658 162, 114.740 161.574, 116.429 161.054 C 118.118 160.533, 124 158.957, 129.500 157.550 C 135 156.143, 142.200 154.081, 145.500 152.966 L 151.500 150.941 141.500 151.509 C 136 151.821, 129.725 152.482, 127.555 152.977 C 125.386 153.472, 123.181 153.612, 122.657 153.288 C 122.075 152.928, 121.951 147.229, 122.340 138.691 C 122.842 127.660, 123.331 124.291, 124.644 122.841 C 125.560 121.829, 126.915 121, 127.655 121 C 128.395 121, 129 120.598, 129 120.107 C 129 118.795, 140.347 117.020, 144.462 117.688 C 147.319 118.151, 148 117.943, 148 116.606 C 148 112.910, 138.901 112.079, 126.500 114.643 M 162.500 166 C 161.596 167.462, 162.845 169, 164.937 169 C 166.977 169, 169.338 166.671, 168.325 165.658 C 167.306 164.640, 163.191 164.881, 162.500 166 M 153.200 168.200 C 152.540 168.860, 152 169.915, 152 170.544 C 152 172.409, 147.573 177, 145.775 177 C 144.861 177, 143.525 177.840, 142.807 178.866 C 142.088 179.892, 140.084 181.042, 138.354 181.422 C 134.808 182.201, 131.467 185.328, 132.461 186.937 C 133.992 189.414, 141.025 187.425, 146.885 182.859 C 150.783 179.820, 152 180.449, 152 185.500 C 152 189.242, 151.682 190, 150.115 190 C 148.135 190, 143.905 191.193, 127.575 196.360 C 118.791 199.139, 117.544 199.823, 116.721 202.313 C 115.477 206.079, 116.436 206.740, 120.289 204.775 C 124.263 202.748, 128.125 201.537, 129.675 201.830 C 130.321 201.953, 131.135 201.591, 131.484 201.027 C 131.833 200.462, 133.180 200, 134.477 200 C 137.916 200, 140 198.991, 140 197.326 C 140 196.303, 140.622 196.063, 142.072 196.523 C 143.212 196.885, 145.326 196.884, 146.770 196.522 C 148.836 196.003, 149.087 195.667, 147.948 194.947 C 146.813 194.229, 146.972 194.027, 148.683 194.015 C 151.391 193.996, 151.774 195.310, 152.178 206 L 152.500 214.500 144.500 215.121 C 130.910 216.175, 100.660 223.838, 99.645 226.484 C 98.798 228.690, 101.489 230.321, 102.990 228.512 C 104.626 226.541, 107.117 226.532, 106.362 228.500 C 105.643 230.372, 106.863 230.400, 110.596 228.598 C 112.193 227.828, 117.325 226.411, 122 225.451 C 126.675 224.491, 130.872 223.377, 131.326 222.977 C 131.780 222.576, 130.993 222.470, 129.576 222.741 C 128.074 223.028, 127 222.776, 127 222.136 C 127 220.535, 131.941 219.541, 133.273 220.873 C 135.028 222.628, 137.821 222.202, 139 220 C 139.825 218.458, 141.094 218, 144.535 218 C 146.991 218, 149 218.419, 149 218.930 C 149 219.442, 150.012 220.005, 151.250 220.180 C 153.196 220.457, 153.601 221.310, 154.248 226.500 C 155.184 234.019, 154.039 282, 152.923 282 C 152.470 282, 151.740 281.393, 151.300 280.651 C 150.860 279.910, 147.800 277.252, 144.500 274.746 C 139.265 270.771, 127.110 258.240, 126.167 255.846 C 125.589 254.379, 123 254.930, 123 256.520 C 123 259.238, 127.596 265.410, 134.113 271.444 C 137.804 274.861, 140.376 278.039, 140.216 278.983 C 140.064 279.881, 141.959 282.606, 144.427 285.038 C 148.516 289.068, 149.396 289.480, 154.332 289.680 L 159.749 289.899 160.415 277.200 C 161.333 259.714, 161.448 225.533, 160.593 224.151 C 158.887 221.390, 165.562 217.058, 171.590 217.015 C 172.740 217.007, 177.240 216.050, 181.590 214.890 C 185.941 213.729, 191.412 212.304, 193.750 211.722 C 197.159 210.872, 198 210.223, 198 208.439 C 198 205.985, 195.385 204.451, 193.623 205.871 C 193.005 206.370, 189.912 207.349, 186.750 208.048 C 183.588 208.747, 181 209.632, 181 210.016 C 181 210.399, 177.878 211.003, 174.062 211.358 C 170.246 211.712, 165.898 212.469, 164.399 213.038 C 162.900 213.608, 161.340 213.720, 160.932 213.287 C 160.524 212.854, 160.035 208.688, 159.845 204.030 C 159.506 195.699, 159.544 195.538, 162.167 194.265 C 163.633 193.553, 166.783 192.568, 169.167 192.075 C 175.775 190.708, 186.329 186.514, 186.813 185.062 C 187.695 182.415, 184.711 182.462, 173.422 185.269 C 167.049 186.854, 161.197 187.906, 160.418 187.607 C 158.380 186.825, 158.525 177.123, 160.620 174.133 C 162.936 170.825, 161.114 167, 157.221 167 C 155.670 167, 153.860 167.540, 153.200 168.200" stroke="none" fill="black" fill-rule="evenodd"/>
</svg>