<svg xmlns="http://www.w3.org/2000/svg" width="300" height="300" viewBox="0 0 300 300" version="1.1">
	<path d="M 164.451 23.079 C 164.084 23.673, 163.389 28.060, 162.906 32.829 C 162.423 37.598, 161.630 43.750, 161.144 46.500 C 160.658 49.250, 159.702 54.859, 159.019 58.965 C 158.337 63.071, 156.921 69.118, 155.872 72.402 C 152.906 81.685, 152.417 86, 154.332 86 C 156.329 86, 160.636 81.423, 161.810 78.053 C 162.300 76.649, 163.271 73.925, 163.969 72 C 164.667 70.075, 165.808 66.025, 166.503 63 C 167.199 59.975, 168.777 53.675, 170.010 49 C 172.503 39.543, 173.057 27.694, 171.165 24.250 C 169.863 21.879, 165.647 21.144, 164.451 23.079 M 206.450 39.915 C 205.928 40.419, 204.380 40.981, 203.010 41.165 C 201.460 41.374, 200.386 42.255, 200.163 43.500 C 199.631 46.481, 198.293 47.488, 196.664 46.136 C 195.002 44.757, 191.154 45.905, 189.086 48.396 C 188.354 49.278, 186.523 50, 185.017 50 C 178.151 50, 173.045 51.284, 172.449 53.160 C 171.602 55.830, 175.713 59.180, 179 58.498 C 185.405 57.169, 186.563 56.818, 187.450 55.940 C 187.972 55.423, 189.210 55, 190.200 55 C 191.190 55, 192 54.602, 192 54.115 C 192 53.628, 194.363 52.463, 197.250 51.525 C 200.137 50.587, 203.334 49.073, 204.354 48.160 C 205.374 47.248, 208.070 46.051, 210.345 45.501 C 216.810 43.937, 216.513 39.055, 209.950 39.015 C 208.548 39.007, 206.972 39.412, 206.450 39.915 M 87.328 43.588 C 86.993 44.461, 87.190 46.711, 87.766 48.588 C 89.163 53.142, 86.618 73.108, 84.021 77.961 C 83.459 79.010, 83 80.822, 83 81.987 C 83 83.153, 81.875 85.762, 80.500 87.785 C 79.125 89.809, 78 92.199, 78 93.097 C 78 93.995, 77.100 95.874, 76 97.273 C 74.900 98.671, 74 100.532, 74 101.408 C 74 103.887, 77.757 103.301, 79.566 100.539 C 80.453 99.185, 81.974 97.826, 82.946 97.517 C 83.919 97.208, 85.424 95.278, 86.293 93.228 C 87.161 91.178, 89.027 86.800, 90.439 83.500 C 94.337 74.392, 98 61.680, 98 57.264 C 98 52.379, 95.547 43.963, 93.800 42.855 C 91.638 41.484, 87.976 41.899, 87.328 43.588 M 133.200 52.200 C 132.540 52.860, 132 53.976, 132 54.681 C 132 55.385, 130.893 56.240, 129.541 56.579 C 128.189 56.919, 126.558 57.827, 125.919 58.598 C 125.279 59.369, 123.701 60, 122.413 60 C 121.124 60, 119.617 60.847, 119.063 61.882 C 118.278 63.350, 116.628 63.854, 111.560 64.177 C 106.485 64.500, 104.519 65.103, 102.571 66.933 C 100.536 68.845, 100.272 69.640, 101.137 71.256 C 102.026 72.916, 102.962 73.162, 106.944 72.779 C 112.199 72.274, 128.582 64.840, 131 61.862 C 131.825 60.846, 134.075 59.174, 136 58.146 C 138.420 56.854, 139.598 55.463, 139.816 53.639 C 140.094 51.327, 139.777 51, 137.266 51 C 135.690 51, 133.860 51.540, 133.200 52.200 M 190.816 68.729 C 189.890 68.945, 188.848 70.416, 188.500 71.998 C 187.995 74.299, 188.693 76.137, 191.993 81.187 C 202.109 96.670, 204.942 101.241, 205.491 102.970 C 206.376 105.759, 208.661 107.242, 210.952 106.515 C 215.172 105.176, 213.160 99.592, 202.208 82.250 C 200.385 79.362, 198.511 77, 198.044 77 C 197.578 77, 196.746 75.763, 196.196 74.250 C 194.774 70.334, 192.767 68.275, 190.816 68.729 M 112.591 85.074 C 111.166 86.768, 110 88.477, 110 88.873 C 110 90.493, 120.821 100.871, 125.088 103.343 C 130.543 106.503, 132.572 106.668, 133.965 104.066 C 135.593 101.023, 135.229 100.127, 131.750 98.611 C 127.745 96.867, 120.637 90.133, 118.559 86.114 C 116.320 81.785, 115.482 81.639, 112.591 85.074 M 212.021 125.116 C 208.478 126.530, 206 129.015, 206 131.155 C 206 132.333, 205.277 133, 204 133 C 202.900 133, 202 132.550, 202 132 C 202 131.450, 201.309 131, 200.465 131 C 198.215 131, 194 134.009, 194 135.615 C 194 136.377, 193.235 137, 192.300 137 C 190.978 137, 190.867 136.733, 191.800 135.800 C 193.717 133.883, 193.192 132.708, 190.750 133.451 C 184.013 135.499, 180.947 136.133, 175.615 136.580 C 168.923 137.141, 164.947 138.731, 167.024 140.015 C 167.736 140.455, 169.034 140.601, 169.909 140.338 C 170.784 140.076, 170.375 140.552, 169 141.395 C 167.625 142.239, 165.600 142.959, 164.500 142.996 C 163.400 143.033, 161.626 143.724, 160.559 144.532 C 159.491 145.339, 157.579 146, 156.309 146 C 155.039 146, 154 146.398, 154 146.883 C 154 148.018, 149.958 149.092, 148.675 148.299 C 147.264 147.427, 150.955 145, 153.691 145 C 154.961 145, 156 144.550, 156 144 C 156 142.745, 153.522 142.707, 151.236 143.927 C 150.281 144.437, 148.713 145.098, 147.750 145.396 C 146.687 145.725, 146 146.931, 146 148.469 C 146 150.615, 145.543 151, 143 151 C 141.350 151, 140 150.550, 140 150 C 140 149.450, 140.675 149, 141.500 149 C 142.325 149, 143 148.550, 143 148 C 143 146.690, 141.806 146.739, 136.984 148.243 C 132.511 149.639, 131.442 152.021, 135.649 151.216 C 137.477 150.867, 138.078 151.065, 137.590 151.855 C 137.200 152.485, 136.035 153, 135 153 C 133.965 153, 132.840 153.450, 132.500 154 C 132.160 154.550, 131.178 155, 130.319 155 C 129.031 155, 128.978 154.731, 130.020 153.476 C 132.251 150.787, 130.140 150.550, 120.212 152.374 C 114.870 153.355, 105.100 154.399, 98.500 154.694 C 91.258 155.017, 85.429 155.778, 83.800 156.614 C 82.314 157.376, 79.989 158, 78.631 158 C 74.654 158, 73 159.054, 73 161.588 C 73 163.352, 73.707 164.131, 75.750 164.619 C 77.263 164.980, 79.047 165.706, 79.715 166.232 C 81.106 167.325, 88.699 166.296, 89.564 164.897 C 89.880 164.386, 90.613 164.261, 91.194 164.620 C 91.775 164.979, 95.456 164.554, 99.375 163.676 C 103.294 162.798, 110.100 161.647, 114.500 161.119 C 123.737 160.009, 134.533 157.791, 141 155.673 C 143.475 154.863, 148.425 153.389, 152 152.398 C 155.575 151.407, 158.725 150.350, 159 150.048 C 160.808 148.066, 181.335 142.808, 183.709 143.719 C 185.615 144.450, 185.278 145.777, 183.002 146.499 C 181.904 146.848, 180.713 148.297, 180.356 149.720 C 179.620 152.651, 180.725 268.879, 181.533 273.500 C 181.821 275.150, 181.633 277.139, 181.114 277.921 C 180.311 279.131, 179.779 279.085, 177.534 277.614 C 176.083 276.664, 170.757 275.233, 165.698 274.434 C 160.639 273.635, 155.488 272.460, 154.252 271.823 C 153.015 271.185, 151.722 270.945, 151.378 271.289 C 149.856 272.811, 152.409 274.954, 160.652 279.076 C 168.112 282.806, 170.324 283.470, 174.750 283.308 C 177.637 283.202, 180 283.528, 180 284.032 C 180 284.536, 181.251 285.596, 182.781 286.387 C 186.437 288.277, 188.626 287.006, 189.955 282.222 C 191.357 277.173, 191.343 249, 189.938 249 C 189.196 249, 189.027 233.855, 189.377 198.750 C 189.652 171.113, 190.057 146.925, 190.276 145 C 190.647 141.746, 191.091 141.346, 196.588 139.309 C 199.839 138.105, 203.734 137.092, 205.242 137.059 C 206.853 137.025, 208.498 136.175, 209.232 135 C 209.919 133.900, 211.252 133, 212.193 133 C 217.015 133, 221.467 128.183, 219.535 125.057 C 218.735 123.762, 215.346 123.789, 212.021 125.116 M 178.694 138.639 C 177.895 139.438, 178.798 141, 180.059 141 C 180.577 141, 181 140.325, 181 139.500 C 181 137.954, 179.820 137.513, 178.694 138.639 M 160.250 140.220 C 157.979 141.316, 157.193 143, 158.953 143 C 160.621 143, 165 140.711, 165 139.839 C 165 138.725, 163.021 138.884, 160.250 140.220 M 112 157 C 112 157.550, 112.900 158, 114 158 C 115.100 158, 116 157.550, 116 157 C 116 156.450, 115.100 156, 114 156 C 112.900 156, 112 156.450, 112 157 M 99.750 157.662 C 100.438 157.940, 101.563 157.940, 102.250 157.662 C 102.938 157.385, 102.375 157.158, 101 157.158 C 99.625 157.158, 99.063 157.385, 99.750 157.662 M 181.500 197 C 181.840 197.550, 182.541 198, 183.059 198 C 183.577 198, 184 197.550, 184 197 C 184 196.450, 183.298 196, 182.441 196 C 181.584 196, 181.160 196.450, 181.500 197 M 101 198.559 C 101 199.416, 101.450 199.840, 102 199.500 C 102.550 199.160, 103 198.459, 103 197.941 C 103 197.423, 102.550 197, 102 197 C 101.450 197, 101 197.702, 101 198.559 M 127.853 198.704 C 126.029 199.471, 120.986 200.372, 116.646 200.707 C 109.930 201.225, 108.618 201.069, 107.828 199.658 C 106.511 197.304, 104.100 197.606, 103.096 200.250 C 101.692 203.945, 102.007 210.826, 103.994 219.924 C 107.721 236.985, 109.037 240.330, 111.817 239.800 C 114.175 239.351, 114.605 228.776, 112.547 221.846 C 111.696 218.981, 111 215.144, 111 213.318 C 111 210.578, 111.392 209.980, 113.250 209.885 C 116.476 209.719, 117.154 209.547, 120.500 208.039 C 122.150 207.296, 126.524 206.483, 130.221 206.233 C 136.616 205.800, 136.997 205.899, 138.078 208.272 C 138.893 210.061, 138.946 213.575, 138.266 220.705 C 136.917 234.848, 132.490 243.023, 126.664 242.128 C 125.655 241.972, 124.080 242.498, 123.164 243.295 C 122.249 244.093, 119.160 245.292, 116.300 245.961 C 110.378 247.344, 109.129 248.461, 109.542 252 C 109.702 253.375, 109.871 254.838, 109.917 255.250 C 110.115 257.037, 116.016 255.725, 122.311 252.495 C 126.342 250.426, 130.627 248.984, 132.811 248.960 C 137.676 248.907, 147.399 244.684, 147.855 242.425 C 148.053 241.449, 147.188 239.896, 145.912 238.934 C 143.800 237.341, 143.707 236.888, 144.759 233.350 C 148.987 219.141, 149.245 217.808, 148.638 213.373 C 147.620 205.950, 145.848 201.130, 143.596 199.661 C 140.438 197.601, 131.734 197.072, 127.853 198.704 M 141.622 208.750 C 142.563 212.676, 143 212.808, 143 209.167 C 143 207.425, 142.541 206, 141.981 206 C 141.376 206, 141.230 207.117, 141.622 208.750 M 125.500 245 C 123.728 245.762, 123.813 245.867, 126.250 245.930 C 127.763 245.968, 129 245.550, 129 245 C 129 243.826, 128.231 243.826, 125.500 245 M 106.500 252 C 106.160 252.550, 106.359 253, 106.941 253 C 107.523 253, 108 252.550, 108 252 C 108 251.450, 107.802 251, 107.559 251 C 107.316 251, 106.840 251.450, 106.500 252" stroke="none" fill="black" fill-rule="evenodd"/>
</svg>