<svg xmlns="http://www.w3.org/2000/svg" width="300" height="300" viewBox="0 0 300 300" version="1.1">
	<path d="M 165.010 13.488 C 164.320 14.319, 162.469 15, 160.897 15 C 157.543 15, 157.357 15.571, 156.625 28.068 C 156.155 36.098, 154.603 42, 152.962 42 C 152.568 42, 151.648 41.280, 150.918 40.401 C 149.781 39.032, 147.856 38.889, 137.545 39.406 C 130.920 39.739, 124.226 40.024, 122.669 40.039 C 121.112 40.055, 117.304 40.728, 114.209 41.534 C 111.113 42.340, 107.194 43, 105.501 43 C 103.808 43, 100.686 43.885, 98.564 44.968 C 96.441 46.050, 94.297 46.684, 93.799 46.376 C 92.544 45.600, 93.760 32.932, 95.585 27.761 C 96.413 25.418, 96.822 22.432, 96.495 21.127 C 95.967 19.022, 95.489 18.821, 92.260 19.345 C 85.590 20.428, 84.824 22.116, 83.950 37.664 C 83.163 51.664, 80.729 70.086, 78.963 75.399 C 77.738 79.086, 77.701 96.290, 78.915 97.550 C 79.419 98.072, 79.981 99.625, 80.165 101 C 80.438 103.037, 81.056 103.500, 83.500 103.500 L 86.500 103.500 87.203 92 C 87.589 85.675, 88.402 77.575, 89.009 74 C 89.616 70.425, 90.615 64.208, 91.228 60.185 C 92.301 53.145, 92.434 52.892, 94.767 53.478 C 96.143 53.823, 97.857 53.534, 98.731 52.808 C 99.578 52.105, 100.773 51.479, 101.386 51.417 C 101.998 51.355, 103.287 51.236, 104.250 51.152 C 105.213 51.069, 106 50.352, 106 49.559 C 106 47.283, 108.183 46.530, 109.512 48.347 C 111.013 50.399, 114.349 50.489, 115.983 48.521 C 116.894 47.423, 117.698 47.303, 119.105 48.056 C 120.307 48.699, 121.640 48.728, 122.750 48.134 C 123.713 47.619, 126.750 46.897, 129.500 46.530 C 132.250 46.163, 136.752 45.396, 139.505 44.827 C 143.123 44.078, 145.715 44.116, 148.855 44.961 C 152.641 45.980, 153.119 46.411, 152.578 48.315 C 152.237 49.517, 151.690 55.137, 151.364 60.804 C 150.881 69.174, 151.092 71.953, 152.488 75.608 C 154.715 81.439, 157.148 81.237, 158.190 75.135 C 158.598 72.743, 159.344 70.272, 159.847 69.643 C 160.351 69.015, 160.999 64.675, 161.287 60 C 161.964 49.032, 163.441 44.212, 166.561 42.790 C 167.902 42.179, 169 40.851, 169 39.839 C 169 38.647, 169.727 38, 171.067 38 C 172.680 38, 172.995 38.440, 172.500 40 C 171.960 41.702, 172.320 42, 174.924 42 C 176.900 42, 178.425 41.292, 179.232 40 C 180.691 37.663, 184 37.316, 184 39.500 C 184 41.316, 185.326 41.331, 190.261 39.570 C 192.699 38.700, 194.240 38.580, 194.641 39.228 C 194.981 39.778, 196.980 39.998, 199.084 39.716 C 201.212 39.430, 204.771 39.844, 207.107 40.649 C 211.927 42.310, 214.258 41.238, 212.385 38.222 C 210.095 34.534, 206.407 33.850, 186.807 33.479 C 176.308 33.280, 167.342 32.742, 166.884 32.284 C 166.425 31.825, 166.516 28.986, 167.086 25.975 C 169.186 14.882, 169.208 14.418, 167.719 13.182 C 166.568 12.226, 166.004 12.290, 165.010 13.488 M 161.079 25.583 C 161.127 26.748, 161.364 26.985, 161.683 26.188 C 161.972 25.466, 161.936 24.603, 161.604 24.271 C 161.272 23.939, 161.036 24.529, 161.079 25.583 M 89 27 C 89 27.550, 89.450 28, 90 28 C 90.550 28, 91 27.550, 91 27 C 91 26.450, 90.550 26, 90 26 C 89.450 26, 89 26.450, 89 27 M 182.637 61.045 C 179.417 64.360, 178.982 65.274, 180.025 66.530 C 181.292 68.057, 187.657 71.412, 189.497 71.522 C 192.691 71.714, 199.075 74.332, 201.564 76.470 C 204.787 79.240, 207.447 78.334, 205.225 75.222 C 204.549 74.275, 203.562 72.500, 203.033 71.278 C 202.504 70.056, 200.817 68.759, 199.285 68.396 C 196.521 67.741, 192.306 63.922, 189.323 59.371 C 188.469 58.067, 187.484 57.015, 187.135 57.034 C 186.786 57.052, 184.762 58.857, 182.637 61.045 M 115.470 71.048 C 115.114 71.624, 114.075 71.973, 113.161 71.823 C 109.223 71.176, 107.184 76.289, 110.908 77.471 C 111.958 77.804, 115.220 80.446, 118.158 83.343 C 123.571 88.680, 126.709 90.984, 132.961 94.213 C 137.278 96.442, 138.021 96.447, 137.919 94.250 C 137.874 93.287, 135.435 90.475, 132.500 88 C 129.565 85.525, 127.126 82.938, 127.081 82.250 C 127.037 81.563, 126.662 80.996, 126.250 80.992 C 125.459 80.984, 123 76.231, 123 74.711 C 123 73.520, 118.808 70.075, 117.309 70.033 C 116.654 70.015, 115.827 70.472, 115.470 71.048 M 183 102.127 C 168.794 104.310, 149.546 106.352, 132 107.539 C 127.325 107.855, 121.700 108.537, 119.500 109.053 C 117.300 109.570, 114.375 110.178, 113 110.404 C 106.742 111.435, 104 113.589, 104 117.475 C 104 120.053, 107.028 120.058, 108.007 117.481 C 109.146 114.485, 110.637 114.280, 111.500 117 C 111.849 118.100, 112.446 119, 112.827 119 C 113.207 119, 114.081 118.100, 114.768 117 C 115.487 115.849, 117.100 115, 118.567 115 C 120.040 115, 120.853 115.429, 120.490 116.016 C 120.088 116.667, 121.595 116.912, 124.681 116.698 C 128.544 116.430, 129.442 116.030, 129.206 114.682 C 128.879 112.811, 130.614 112.343, 131.213 114.140 C 131.704 115.613, 148.907 115.322, 150.728 113.811 C 151.442 113.218, 154.534 112.645, 157.598 112.538 C 161.095 112.416, 163.539 111.813, 164.161 110.921 C 164.920 109.834, 165.271 109.793, 165.659 110.750 C 165.957 111.484, 167.985 112, 170.575 112 C 173.900 112, 175.290 111.509, 176.232 110 C 177.919 107.299, 181 107.377, 181 110.121 C 181 112.270, 160.594 134.624, 158.403 134.875 C 157.800 134.944, 156.268 135.900, 155 137 C 152.249 139.386, 152.479 139.364, 149.154 137.559 C 140.026 132.601, 123.193 129.260, 121.462 132.062 C 121.101 132.646, 119.692 133.547, 118.330 134.065 C 114.786 135.412, 115.775 137.937, 120.500 139.604 C 124.634 141.063, 130.620 140.619, 128.070 139.043 C 127.340 138.592, 127.053 137.723, 127.431 137.112 C 128.555 135.293, 130.816 135.846, 131.536 138.114 C 132.098 139.885, 132.762 140.138, 135.624 139.674 C 139.104 139.109, 145.281 141.028, 146.541 143.066 C 146.913 143.669, 148.287 143.894, 149.594 143.566 C 151.220 143.158, 152.598 143.598, 153.962 144.962 C 155.100 146.100, 156.629 146.696, 157.525 146.352 C 158.389 146.020, 159.637 146.430, 160.298 147.263 C 161.332 148.565, 170.559 150.638, 184.607 152.724 C 188.058 153.237, 189.714 151.098, 188.099 148.213 C 187.253 146.700, 184.374 145.857, 169.750 142.835 C 166.588 142.182, 164.012 141.164, 164.027 140.573 C 164.043 139.983, 166.537 137.475, 169.571 135 C 172.605 132.525, 175.843 129.713, 176.766 128.750 C 177.689 127.787, 178.907 126.994, 179.472 126.986 C 180.038 126.978, 182.489 125.178, 184.920 122.986 C 187.351 120.794, 189.841 119, 190.454 119 C 191.067 119, 192.364 117.653, 193.337 116.007 C 194.309 114.361, 195.981 112.545, 197.052 111.972 C 199.246 110.798, 199.560 107.933, 197.850 104.684 C 195.764 100.720, 194.062 100.427, 183 102.127 M 164.500 157.694 C 161.200 157.868, 152.200 158.888, 144.500 159.961 C 136.800 161.033, 124.506 162.017, 117.180 162.147 C 108.245 162.305, 103.306 162.803, 102.180 163.659 C 99.963 165.345, 99 165.317, 99 163.567 C 99 161.268, 95.182 160.651, 92.367 162.495 C 89.940 164.085, 89.906 164.239, 91.571 166.078 C 92.527 167.135, 93.970 168, 94.777 168 C 95.964 168, 96.008 168.285, 95.008 169.490 C 94.194 170.471, 92.904 170.763, 91.232 170.343 L 88.694 169.706 89.524 176.603 C 89.981 180.396, 90.235 198.800, 90.089 217.500 C 89.792 255.636, 91.035 269.279, 95.212 273.726 C 99.559 278.353, 104.170 275.148, 101.248 269.531 C 99.892 266.923, 99.636 260.102, 99.414 220.662 C 99.273 195.451, 98.900 174.567, 98.587 174.254 C 97.331 172.998, 100.448 171, 103.664 171 C 105.647 171, 107.945 170.198, 109.133 169.091 C 111.151 167.211, 111.213 167.213, 113.191 169.191 C 114.652 170.652, 115.500 170.900, 116.300 170.100 C 116.905 169.495, 118.772 169.007, 120.450 169.015 C 122.868 169.027, 123.189 169.248, 122 170.081 C 120.857 170.881, 121.090 170.963, 122.981 170.425 C 124.345 170.037, 126.638 168.849, 128.077 167.785 C 130.099 166.290, 131.535 166.010, 134.406 166.548 C 136.983 167.032, 137.958 167.667, 137.591 168.623 C 136.975 170.228, 137.880 170.370, 140 169 C 141 168.354, 141.083 168.026, 140.250 168.015 C 139.563 168.007, 139 167.612, 139 167.138 C 139 166.206, 151.175 163.924, 152 164.701 C 152.275 164.960, 151.565 165.930, 150.423 166.856 C 148.537 168.385, 148.387 169.344, 148.790 177.276 C 149.099 183.338, 148.855 186.470, 147.995 187.506 C 147.024 188.676, 144.209 189, 135.014 189 C 119.420 189, 113.150 190.203, 110.255 193.749 C 109.020 195.262, 108.022 197.175, 108.037 198 C 108.058 199.213, 108.318 199.165, 109.392 197.750 C 111.243 195.311, 113.388 195.406, 112.070 197.869 C 110.228 201.311, 113.519 202.069, 118.500 199.349 C 120.150 198.448, 123.525 197.663, 126 197.605 C 128.864 197.538, 130.418 197.073, 130.275 196.324 C 129.936 194.556, 135.369 193.732, 139.624 194.907 C 141.689 195.477, 144.369 195.695, 145.580 195.391 C 148.508 194.656, 148.873 195.455, 150.162 205.442 C 150.982 211.793, 150.972 214.329, 150.122 215.353 C 148.991 216.716, 147.054 216.996, 125.225 218.960 C 119.023 219.518, 112.633 220.655, 111.024 221.487 C 109.416 222.319, 107.472 223, 106.705 223 C 105.938 223, 104.572 223.815, 103.671 224.811 C 102.276 226.352, 102.213 227.137, 103.246 230.061 C 103.913 231.953, 104.579 233.685, 104.724 233.911 C 104.869 234.137, 106.551 233.480, 108.461 232.451 C 111.281 230.932, 111.825 230.151, 111.358 228.291 C 110.869 226.342, 111.172 226, 113.392 226 C 114.826 226, 116 226.450, 116 227 C 116 227.550, 117.013 227.948, 118.250 227.884 C 119.943 227.797, 120.067 227.655, 118.750 227.311 C 116.604 226.750, 116.521 225.643, 118.500 224 C 119.592 223.094, 120.357 223.051, 121.313 223.845 C 122.061 224.466, 124.206 224.679, 126.296 224.339 C 129.134 223.879, 130.106 224.112, 130.589 225.372 C 130.933 226.267, 132.066 227, 133.107 227 C 135.185 227, 135.640 225.514, 133.893 224.434 C 133.122 223.957, 133.197 223.490, 134.143 222.890 C 136.591 221.340, 139 221.890, 139 224 C 139 226.785, 141.627 226.499, 143.592 223.500 C 144.520 222.083, 146.186 221, 147.437 221 C 149.588 221, 149.648 221.319, 149.805 233.668 C 149.893 240.635, 150.487 248.986, 151.124 252.226 C 151.993 256.640, 151.997 258.403, 151.142 259.258 C 149.519 260.881, 149.729 263.530, 151.604 265.086 C 152.486 265.819, 153.596 267.436, 154.069 268.681 C 155.216 271.697, 159.874 272.893, 161.550 270.601 C 162.231 269.669, 162.640 268.140, 162.459 267.204 C 162.277 266.267, 161.584 257.339, 160.918 247.365 C 159.776 230.271, 159.816 228.966, 161.603 224.619 C 163.491 220.028, 165 218.643, 165 221.500 C 165 222.330, 165.888 223, 166.988 223 C 168.454 223, 168.914 222.409, 168.738 220.750 C 168.526 218.746, 168.882 218.537, 172 218.838 C 173.925 219.025, 175.647 219.579, 175.827 220.070 C 176.007 220.561, 177.756 220.293, 179.715 219.475 C 182.121 218.469, 185.975 218.070, 191.602 218.244 C 198.883 218.468, 200.189 218.241, 202.003 216.433 C 203.372 215.070, 203.841 213.749, 203.381 212.551 C 202.740 210.880, 201.719 210.791, 190.592 211.431 C 183.941 211.814, 176.475 212.584, 174 213.143 C 171.525 213.702, 168.150 214.302, 166.500 214.476 C 164.850 214.650, 162.833 214.951, 162.018 215.146 C 160.842 215.427, 160.397 213.846, 159.867 207.500 C 159.499 203.100, 159.466 199.063, 159.795 198.529 C 160.123 197.994, 160.296 196.307, 160.180 194.779 L 159.968 192 167.331 192 C 173.979 192, 174.800 192.219, 175.780 194.250 C 176.561 195.871, 176.884 196.043, 176.932 194.867 C 177.021 192.732, 182.205 191.653, 183.276 193.545 C 183.703 194.300, 184.713 194.663, 185.521 194.354 C 186.328 194.044, 186.759 193.419, 186.478 192.964 C 186.197 192.510, 186.425 191.856, 186.984 191.510 C 187.543 191.165, 188 191.359, 188 191.941 C 188 193.571, 191.711 193.195, 192.362 191.500 C 192.942 189.987, 195.993 189.359, 196.008 190.750 C 196.012 191.162, 197.105 192.005, 198.436 192.622 C 203.076 194.773, 204.655 189.970, 200.750 185.584 C 198.614 183.185, 198.246 183.112, 193.500 184.144 C 190.750 184.742, 188.050 185.585, 187.500 186.017 C 186.464 186.832, 180.567 187.209, 166 187.393 L 157.500 187.500 157.147 184 C 156.953 182.075, 157.338 176.783, 158.002 172.241 C 159.344 163.067, 160.531 161.592, 165.250 163.237 C 167.299 163.951, 168.482 163.918, 169.276 163.124 C 170.881 161.519, 173.961 161.735, 174.638 163.500 C 175.363 165.389, 177 165.463, 177 163.607 C 177 161.961, 179.722 160.710, 181.250 161.654 C 181.838 162.018, 183.994 162.250, 186.040 162.170 C 188.463 162.075, 190.679 162.747, 192.396 164.097 C 194.480 165.736, 195.841 166.034, 198.893 165.518 C 202.487 164.911, 202.892 165.095, 204.747 168.183 C 206.179 170.566, 206.600 172.603, 206.241 175.417 C 205.728 179.442, 207.249 189.909, 209.547 198.172 C 210.261 200.742, 211.107 207.942, 211.427 214.172 C 211.746 220.402, 212.313 230.450, 212.687 236.500 C 213.060 242.550, 213.396 249.525, 213.433 252 C 213.470 254.475, 214.030 257.423, 214.678 258.550 C 216.054 260.944, 216.785 271.943, 215.685 273.709 C 214.527 275.570, 202.132 274.242, 198.790 271.900 C 193.417 268.132, 192.316 270.484, 196.750 276.261 C 201.307 282.198, 206.073 283.990, 215.500 283.309 C 219.900 282.992, 224.116 282.242, 224.870 281.644 C 225.949 280.787, 226.121 278.108, 225.679 269.028 C 225.371 262.688, 224.676 254.973, 224.134 251.883 C 223.592 248.794, 222.867 239.794, 222.522 231.883 C 222.178 223.973, 221.697 216.816, 221.454 215.980 C 221.211 215.145, 220.114 208.170, 219.018 200.480 C 215.288 174.327, 212.339 161.131, 209.955 159.927 C 205.917 157.887, 182.593 156.742, 164.500 157.694 M 150 169.566 C 150 171.137, 152.222 173.981, 153.050 173.469 C 154.876 172.341, 154.091 169, 152 169 C 150.900 169, 150 169.255, 150 169.566 M 169 194.500 C 169 195.325, 169.450 196, 170 196 C 170.550 196, 171 195.325, 171 194.500 C 171 193.675, 170.550 193, 170 193 C 169.450 193, 169 193.675, 169 194.500 M 117.543 195.931 C 116.803 197.128, 118.684 198.313, 120.016 197.490 C 121.135 196.799, 120.400 195, 119 195 C 118.515 195, 117.859 195.419, 117.543 195.931 M 123.813 227.683 C 124.534 227.972, 125.397 227.936, 125.729 227.604 C 126.061 227.272, 125.471 227.036, 124.417 227.079 C 123.252 227.127, 123.015 227.364, 123.813 227.683 M 154.634 231.079 C 153.928 234.610, 154.284 235.560, 155.933 234.541 C 157.205 233.756, 157.302 231.025, 156.126 229.169 C 155.533 228.234, 155.090 228.802, 154.634 231.079 M 215.987 237.552 C 214.619 238.310, 213.958 238.945, 214.518 238.965 C 215.078 238.984, 216.259 240.190, 217.142 241.646 L 218.747 244.291 219.180 240.585 C 219.696 236.160, 219.257 235.742, 215.987 237.552 M 152.568 242.083 C 150.795 243.854, 150.771 244.116, 152.273 245.257 C 153.173 245.941, 154.379 247.765, 154.953 249.310 C 155.527 250.856, 156.447 251.842, 156.998 251.501 C 158.631 250.492, 158.140 244.384, 156.250 242.188 C 154.521 240.178, 154.477 240.177, 152.568 242.083" stroke="none" fill="black" fill-rule="evenodd"/>
</svg>