<svg xmlns="http://www.w3.org/2000/svg" width="300" height="300" viewBox="0 0 300 300" version="1.1">
	<path d="M 100.096 12.384 C 99.474 13.133, 99.246 14.479, 99.590 15.373 C 100.007 16.460, 99.680 17, 98.607 17 C 96.791 17, 96.805 16.918, 96.989 26.641 C 97.063 30.569, 96.638 38.444, 96.043 44.141 C 95.449 49.839, 94.740 56.736, 94.468 59.469 C 93.958 64.595, 96.042 75.946, 98.558 81.750 C 99.508 83.940, 100.654 85, 102.072 85 C 104.012 85, 104.111 84.669, 103.338 80.750 C 102.877 78.412, 102.500 71.325, 102.500 65 C 102.500 47.742, 104.435 38.456, 107.500 41 C 108.554 41.874, 109.110 41.663, 109.965 40.065 C 111.305 37.561, 113.231 37.450, 116.635 39.681 C 118.774 41.082, 119.890 41.181, 123.350 40.277 C 127.248 39.258, 129.005 39.388, 139.750 41.486 C 143.341 42.187, 143.934 41.121, 141.250 38.789 C 137.978 35.946, 132.185 34.970, 117 34.703 L 105.500 34.500 104.837 26.500 C 103.729 13.137, 102.503 9.485, 100.096 12.384 M 154.765 23.564 C 152.059 25.032, 152.037 25.130, 152.665 32.560 C 153.104 37.762, 152.915 40.791, 152.048 42.411 C 151.151 44.087, 151.090 45.300, 151.833 46.689 C 152.404 47.755, 153.190 54.775, 153.580 62.289 C 154.165 73.565, 154.601 76.234, 156.081 77.573 C 157.067 78.466, 158.283 78.943, 158.783 78.634 C 159.282 78.326, 160.005 67.144, 160.389 53.786 C 160.772 40.429, 161.349 27.813, 161.671 25.750 C 162.209 22.297, 162.067 22.003, 159.878 22.040 C 158.570 22.062, 156.269 22.748, 154.765 23.564 M 180.589 31.245 C 170.241 32.415, 167.545 33.309, 167.196 35.688 C 166.939 37.441, 167.581 37.860, 171.410 38.434 C 174.241 38.859, 178.274 38.559, 182.214 37.630 C 192.824 35.129, 196.568 35.028, 202.009 37.095 C 204.766 38.143, 207.467 39, 208.011 39 C 210.273 39, 208.714 37.022, 204.507 34.557 C 199.073 31.372, 190.258 30.152, 180.589 31.245 M 155.079 37.583 C 155.127 38.748, 155.364 38.985, 155.683 38.188 C 155.972 37.466, 155.936 36.603, 155.604 36.271 C 155.272 35.939, 155.036 36.529, 155.079 37.583 M 173.750 37.662 C 174.438 37.940, 175.563 37.940, 176.250 37.662 C 176.938 37.385, 176.375 37.158, 175 37.158 C 173.625 37.158, 173.063 37.385, 173.750 37.662 M 144 41.383 C 144 42.144, 145.125 42.982, 146.500 43.245 C 149.226 43.766, 149.669 43.069, 147.800 41.200 C 146.177 39.577, 144 39.682, 144 41.383 M 121.500 55.013 C 120.400 55.426, 118.677 56.680, 117.670 57.799 C 116.120 59.523, 116.030 60.190, 117.084 62.167 C 118.321 64.489, 120.887 66.908, 122.177 66.968 C 122.549 66.986, 123.059 66.213, 123.311 65.250 C 123.592 64.173, 123.813 64.558, 123.884 66.250 C 123.948 67.763, 124.338 69.002, 124.750 69.005 C 125.162 69.007, 126.850 70.250, 128.500 71.766 C 132.484 75.427, 137.089 77.474, 138.005 75.992 C 138.439 75.290, 139.310 75.824, 140.369 77.440 C 141.456 79.100, 142.960 80, 144.645 80 C 146.904 80, 147.073 79.792, 145.930 78.416 C 145.207 77.544, 142.564 75.428, 140.058 73.713 C 131.656 67.966, 127.196 63.122, 126.497 58.983 C 125.793 54.818, 124.583 53.856, 121.500 55.013 M 181.223 56.557 C 178.560 58.422, 178.291 62.563, 180.750 63.833 C 181.713 64.330, 184.221 65.048, 186.325 65.428 C 188.429 65.808, 192.704 67.891, 195.825 70.058 C 202.277 74.537, 203 74.743, 203 72.108 C 203 70.341, 191.835 59, 190.096 59 C 189.662 59, 188.268 58.100, 187 57 C 184.227 54.595, 184.044 54.581, 181.223 56.557 M 116 91.725 C 109.064 93.827, 104 97.363, 104 100.104 C 104 101.091, 102.489 103.051, 100.642 104.459 L 97.284 107.021 97.648 132.116 C 97.848 145.918, 98.203 157.519, 98.436 157.897 C 98.669 158.274, 98.934 163.739, 99.024 170.041 C 99.210 183.135, 100.911 189.999, 104.711 192.987 C 107.464 195.152, 110.976 195.569, 113.764 194.060 C 114.719 193.544, 116.705 192.868, 118.177 192.560 C 119.649 192.251, 121.007 191.211, 121.195 190.249 C 121.485 188.766, 122.826 188.472, 130.018 188.317 C 144.220 188.010, 145.432 187.918, 145.975 187.096 C 146.264 186.660, 148.365 186.013, 150.645 185.657 C 153.829 185.160, 154.923 185.356, 155.364 186.505 C 155.679 187.327, 156.937 188, 158.160 188 C 160.329 188, 160.335 187.965, 158.441 186.532 C 155.679 184.442, 158.804 184.474, 161.790 186.565 C 164.566 188.510, 169.372 188.085, 169.794 185.858 C 170.023 184.647, 168.316 183.537, 163.303 181.638 C 157.788 179.548, 155.221 179.134, 149.744 179.453 C 141.198 179.949, 141 179.622, 141 165.066 C 141 154.779, 141.137 154, 142.941 154 C 144.009 154, 145.161 153.549, 145.502 152.997 C 145.896 152.359, 146.756 152.334, 147.865 152.928 C 148.923 153.494, 150.176 153.501, 151.054 152.946 C 151.849 152.442, 153.476 152.024, 154.668 152.015 C 157.715 151.994, 164.452 145.190, 165.965 140.607 C 167.932 134.646, 166.826 127.107, 163.573 124.309 C 161.222 122.287, 159.827 122, 152.355 122 L 143.822 122 144.027 112.250 C 144.140 106.888, 143.902 101.263, 143.500 99.750 C 142.814 97.179, 142.971 97, 145.905 97 C 148.282 97, 149.319 97.606, 150.182 99.500 C 151.450 102.284, 153.755 102.801, 154.638 100.500 C 155.278 98.833, 158 98.428, 158 100 C 158 101.595, 160.164 101.158, 161.532 99.288 C 162.590 97.840, 163.032 97.782, 164.392 98.910 C 165.276 99.644, 166 100.812, 166 101.506 C 166 103.138, 169.272 103.987, 171.265 102.872 C 173.421 101.665, 172.348 98.384, 169.022 96.016 C 166.977 94.559, 164.676 94.079, 159.894 94.111 C 156.377 94.134, 150.800 93.889, 147.500 93.567 C 144.200 93.245, 136.395 92.761, 130.157 92.492 C 123.918 92.223, 118.518 91.838, 118.157 91.636 C 117.795 91.435, 116.825 91.475, 116 91.725 M 119 96.933 C 119 97.446, 119.900 98.151, 121 98.500 C 122.100 98.849, 123 99.505, 123 99.958 C 123 100.736, 121.472 101.082, 111.213 102.624 C 108.817 102.984, 106.544 103.983, 106.060 104.889 C 105.256 106.391, 105.396 119.214, 106.427 138.500 C 106.662 142.900, 106.934 154.215, 107.033 163.645 C 107.221 181.808, 108.035 185.694, 111.558 185.262 C 118.843 184.368, 133.622 181.682, 134.197 181.147 C 134.796 180.590, 134.173 175.229, 131.363 156.788 C 130.769 152.892, 128 149.260, 128 152.378 C 128 154.749, 117.220 154.737, 116.309 152.364 C 114.440 147.491, 120.782 145.619, 132.962 147.448 C 143.670 149.056, 145.565 149.116, 148.648 147.944 C 150.292 147.319, 151.821 147.369, 153.173 148.092 C 156.120 149.670, 156.932 148.353, 158.470 139.493 C 160.122 129.982, 159.750 128.655, 155.607 129.294 C 153.664 129.594, 151.858 129.209, 150.787 128.266 C 148.718 126.444, 145.789 127.286, 146.624 129.462 C 147.052 130.579, 146.568 130.998, 144.857 130.994 C 141.512 130.987, 135 129.062, 135 128.081 C 135 126.646, 121.927 127.930, 120.334 129.523 C 118.503 131.355, 118.092 131.354, 113.691 129.515 C 109.295 127.679, 108.331 126.241, 110.224 124.347 C 111.285 123.287, 114.809 122.787, 123.092 122.523 L 134.500 122.159 134.185 113.330 C 134.012 108.473, 134.321 103.375, 134.872 102 C 135.423 100.625, 135.902 100.063, 135.937 100.750 C 136.050 102.989, 137.754 102.066, 138.245 99.500 C 138.807 96.557, 138.967 96.617, 135.436 98.449 C 132.407 100.020, 131 99.701, 131 97.441 C 131 96.346, 129.557 96, 125 96 C 121.700 96, 119 96.420, 119 96.933 M 111.446 98.087 C 111.077 98.685, 111.236 99.636, 111.800 100.200 C 113.062 101.462, 115 100.396, 115 98.441 C 115 96.757, 112.426 96.501, 111.446 98.087 M 175.611 97.820 C 175.332 98.271, 174.893 99.807, 174.634 101.232 C 174.376 102.658, 173.565 104.877, 172.832 106.162 C 171.855 107.877, 171.500 113.428, 171.500 127 C 171.500 144.685, 171.604 145.665, 173.849 149.250 C 177.347 154.836, 179.325 153.880, 179.505 146.516 C 179.560 144.307, 179.693 139.977, 179.802 136.892 L 180 131.285 186.250 130.633 C 189.688 130.274, 192.650 129.535, 192.833 128.990 C 193.017 128.446, 194.254 128, 195.583 128 C 197.333 128, 198 128.552, 198 130 C 198 132.663, 201.030 132.603, 201.730 129.926 C 202.170 128.242, 202.764 127.982, 204.886 128.545 C 210.484 130.032, 216 130.075, 216 128.632 C 216 126.535, 214.015 125.369, 208.500 124.225 C 200.609 122.588, 191.419 122.732, 187.908 124.547 C 186.207 125.427, 184.560 125.893, 184.249 125.582 C 183.938 125.272, 183.120 125.485, 182.431 126.057 C 180.258 127.860, 179.879 125.468, 180.964 116.814 C 182.490 104.648, 182.309 101.309, 180 99 C 177.871 96.871, 176.436 96.485, 175.611 97.820 M 174 125.559 C 174 126.416, 174.457 126.835, 175.016 126.490 C 175.575 126.144, 175.774 125.443, 175.457 124.931 C 174.600 123.544, 174 123.802, 174 125.559 M 187.813 128.683 C 188.534 128.972, 189.397 128.936, 189.729 128.604 C 190.061 128.272, 189.471 128.036, 188.417 128.079 C 187.252 128.127, 187.015 128.364, 187.813 128.683 M 189.500 160.364 C 181.354 161.750, 180 162.419, 180 165.059 C 180 166.333, 179.313 167, 178 167 C 176.667 167, 176 167.667, 176 169 C 176 171.607, 180.739 171.738, 184.115 169.224 C 185.427 168.247, 187.625 166.930, 189 166.299 C 192.586 164.651, 202.184 163.680, 202.931 164.889 C 203.341 165.552, 205.025 165.557, 207.930 164.904 C 211.427 164.119, 213.008 164.250, 215.760 165.556 C 218.152 166.691, 219.527 166.873, 220.250 166.150 C 220.974 165.426, 220.177 164.575, 217.646 163.368 C 215.641 162.412, 214 161.263, 214 160.815 C 214 160.367, 211.863 160.076, 209.250 160.169 C 206.637 160.262, 202.700 160.076, 200.500 159.755 C 198.300 159.435, 193.350 159.709, 189.500 160.364 M 137 177.059 C 137 177.641, 137.450 177.840, 138 177.500 C 138.550 177.160, 139 176.684, 139 176.441 C 139 176.198, 138.550 176, 138 176 C 137.450 176, 137 176.477, 137 177.059 M 110.920 190.596 C 109.764 191.990, 109.897 192.148, 111.970 191.846 C 113.275 191.656, 114.529 190.938, 114.755 190.250 C 115.348 188.451, 112.486 188.709, 110.920 190.596 M 137.619 199.799 C 132.054 200.040, 130.095 200.588, 127.369 202.667 C 123.601 205.542, 122.970 208, 126 208 C 127.111 208, 128 207.333, 128 206.500 C 128 205.567, 128.944 205, 130.500 205 C 132.056 205, 133 205.567, 133 206.500 C 133 207.433, 133.944 208, 135.500 208 C 136.875 208, 138 207.598, 138 207.107 C 138 205.352, 141.319 204.979, 143.044 206.540 C 144.654 207.997, 144.787 207.984, 144.650 206.379 C 144.447 204.005, 150.688 202.611, 153.500 204.402 C 154.841 205.256, 156.488 205.403, 158.500 204.847 C 167.759 202.290, 176 203.557, 176 207.537 C 176 208.356, 176.414 209.809, 176.921 210.764 C 177.427 211.719, 178.361 216.550, 178.995 221.500 C 179.630 226.450, 180.566 232.387, 181.075 234.693 C 181.584 236.999, 182 240.050, 182 241.474 C 182 244.826, 184.798 245.969, 186.747 243.412 C 187.921 241.872, 188.092 239.108, 187.622 229.220 C 187.301 222.466, 186.624 216.166, 186.117 215.219 C 185.611 214.273, 185.041 211.698, 184.852 209.499 C 184.510 205.530, 184.534 205.500, 188.004 205.500 C 190.720 205.500, 191.469 205.891, 191.361 207.250 C 191.188 209.435, 191.928 209.481, 193.463 207.381 C 194.694 205.697, 194.363 205.665, 206.982 208.721 C 208.348 209.051, 210.067 209.925, 210.804 210.661 C 211.540 211.397, 212.753 212, 213.499 212 C 214.548 212, 214.725 213.268, 214.278 217.593 C 213.617 224.004, 215.453 241.185, 217.567 248.365 C 218.355 251.040, 219 253.621, 219 254.100 C 219 254.578, 216.412 254.710, 213.250 254.393 C 195.704 252.635, 173.555 251.590, 167 252.211 C 162.875 252.602, 154.786 253.152, 149.025 253.433 C 143.264 253.715, 136.694 254.223, 134.424 254.564 C 130.388 255.169, 130.250 255.092, 128.148 251.059 C 125.731 246.422, 124.513 234.011, 124.928 218.250 L 125.172 209 122.540 209 C 121.081 209, 118.818 210.091, 117.459 211.450 C 115.148 213.761, 115.035 214.398, 115.457 222.700 C 115.935 232.082, 117.514 244.483, 118.628 247.605 C 119 248.647, 119.990 250.298, 120.828 251.274 C 123.487 254.367, 120.963 255.139, 107.931 255.222 C 97.540 255.288, 95.079 255.611, 92.254 257.278 C 88.386 259.560, 88.264 262.331, 92.010 262.835 C 93.380 263.019, 94.906 263.560, 95.403 264.038 C 96.756 265.339, 100.024 263.227, 99.356 261.485 C 98.755 259.919, 98.723 259.927, 107.500 259.369 C 116.950 258.769, 119.506 258.690, 122 258.922 C 123.375 259.050, 128.550 258.860, 133.500 258.500 C 141.543 257.915, 156.219 257.180, 163 257.022 C 164.375 256.990, 167.407 256.465, 169.738 255.856 C 172.866 255.037, 174.698 255.044, 176.738 255.882 C 178.257 256.506, 183.438 257.097, 188.250 257.196 C 194.712 257.329, 197 257.719, 197 258.688 C 197 260.215, 199.597 260.460, 200.489 259.018 C 200.834 258.459, 205.014 258.152, 210.200 258.305 C 218.329 258.545, 219.463 258.811, 220.774 260.787 C 222.633 263.587, 223.542 263.563, 227.034 260.625 C 230.071 258.070, 234.707 258.074, 235.689 260.632 C 236.319 262.274, 240.108 262.490, 239.750 260.863 C 239.173 258.242, 249.674 256.952, 253.767 259.143 C 255.687 260.171, 256.282 260.162, 256.940 259.097 C 257.471 258.237, 258.747 258.005, 260.645 258.422 C 264.415 259.250, 268.170 256.814, 266.200 254.817 C 264.699 253.297, 252.695 252.849, 246.500 254.082 C 244.300 254.519, 238.735 254.973, 234.133 255.090 L 225.766 255.302 225.473 245.401 C 225.153 234.598, 222.816 218.784, 220.620 212.565 C 219.856 210.400, 218.341 208.300, 217.254 207.898 C 216.167 207.496, 215 206.443, 214.661 205.558 C 214.226 204.424, 212.928 203.999, 210.272 204.120 C 205.029 204.357, 194.753 202.927, 193.263 201.752 C 192.582 201.215, 191.347 201.037, 190.517 201.355 C 189.688 201.673, 186.644 201.525, 183.755 201.026 C 178.196 200.066, 149.219 199.295, 137.619 199.799 M 154.174 212.314 C 152.272 214.339, 152.003 215.747, 152.024 223.564 C 152.062 237.998, 154.739 245.147, 160.355 245.817 C 163.703 246.216, 164.693 243.987, 162.591 240.779 C 161.400 238.961, 160.968 235.038, 160.765 224.199 C 160.511 210.580, 160.415 210, 158.424 210 C 157.283 210, 155.370 211.042, 154.174 212.314" stroke="none" fill="black" fill-rule="evenodd"/>
</svg>