<svg xmlns="http://www.w3.org/2000/svg" width="300" height="300" viewBox="0 0 300 300" version="1.1">
	<path d="M 188.500 34.471 C 187.950 34.643, 184.816 35.579, 181.536 36.552 C 178.256 37.525, 174.665 39.166, 173.556 40.199 C 172.447 41.232, 170.406 42.312, 169.020 42.598 C 164.512 43.530, 163.508 44.593, 163.197 48.768 C 162.789 54.229, 165.065 54.938, 172.106 51.542 C 175.004 50.144, 177.817 49, 178.358 49 C 178.900 49, 180.053 48.399, 180.921 47.665 C 183.318 45.639, 192.403 43.985, 203.222 43.607 C 212.327 43.288, 213.036 43.406, 214.386 45.466 C 215.179 46.676, 216.143 49.772, 216.529 52.345 C 216.915 54.919, 217.629 57.271, 218.115 57.571 C 218.602 57.872, 219 58.955, 219 59.978 C 219 61.001, 219.620 63.112, 220.378 64.669 C 224.587 73.318, 224.938 74.871, 225.433 87 C 225.714 93.875, 226.137 101.948, 226.374 104.940 C 226.612 107.933, 226.443 111.334, 226 112.500 C 225.522 113.757, 225.759 116.795, 226.582 119.968 C 228.429 127.091, 228.339 145.944, 226.436 150.500 C 224.773 154.479, 224.522 161, 226.031 161 C 226.599 161, 227.317 160.212, 227.628 159.250 C 228.611 156.207, 231.467 150.524, 232.332 149.891 C 233.199 149.255, 233.387 112.975, 232.550 107.589 C 232.286 105.890, 231.813 97.525, 231.499 89 C 231.135 79.133, 230.181 70.048, 228.872 64 C 227.742 58.775, 226.203 51.447, 225.452 47.715 C 223.697 38.993, 221.219 35.463, 216.278 34.646 C 212.497 34.021, 190.384 33.881, 188.500 34.471 M 174 45 C 173.207 45.490, 172.783 46.116, 173.058 46.391 C 173.333 46.666, 174.207 46.490, 175 46 C 175.793 45.510, 176.217 44.884, 175.942 44.609 C 175.667 44.334, 174.793 44.510, 174 45 M 155.520 47.936 C 154.740 50.395, 155.572 52, 157.625 52 C 158.672 52, 159.036 51.182, 158.816 49.327 C 158.426 46.026, 156.398 45.170, 155.520 47.936 M 146.106 54.302 C 144.417 57.457, 145.033 66.500, 146.936 66.500 C 147.726 66.500, 148.756 65.023, 149.223 63.218 C 149.947 60.424, 150.472 59.978, 152.751 60.218 C 156.653 60.629, 156.987 57.379, 153.349 54.402 C 149.720 51.434, 147.656 51.405, 146.106 54.302 M 151.750 63.120 C 150.569 63.781, 150 65.318, 150 67.850 C 150 69.912, 149.575 72.028, 149.056 72.550 C 148.537 73.073, 147.672 79.350, 147.134 86.500 C 146.015 101.368, 145.589 105.779, 143.990 119 C 142.525 131.114, 140.986 146.060, 141.004 148 C 141.011 148.825, 140.984 153.406, 140.943 158.180 C 140.876 165.886, 141.093 166.979, 142.873 167.932 C 144.356 168.726, 145.076 168.685, 145.638 167.777 C 146.055 167.101, 146.714 157.088, 147.101 145.524 C 147.752 126.060, 148.384 119.708, 151.130 105 C 151.695 101.975, 152.549 95, 153.028 89.500 C 153.507 84, 154.206 76.304, 154.582 72.398 C 155.352 64.397, 154.493 61.585, 151.750 63.120 M 83.753 66.980 C 79.625 70.227, 78.798 83, 82.715 83 C 84.025 83, 84.139 85.914, 83.609 105.750 C 82.634 142.287, 82.549 143.850, 81.500 144.899 C 79.815 146.582, 72.661 147.175, 70.981 145.770 C 69.319 144.381, 67.197 139.510, 64.544 131 C 63.602 127.975, 62.434 124.600, 61.950 123.500 C 60.734 120.739, 58.896 111.548, 58.309 105.298 C 57.706 98.874, 56.185 97.325, 52.302 99.178 C 48.998 100.754, 48.018 105.160, 50.433 107.576 C 52.404 109.546, 52.426 110.899, 50.500 111.638 C 47.534 112.776, 49.614 120.273, 54.250 125.157 C 55.212 126.170, 56 127.605, 56 128.345 C 56 129.085, 56.937 130.538, 58.083 131.575 C 59.654 132.997, 60.061 134.323, 59.739 136.980 C 59.504 138.916, 59.746 141.766, 60.276 143.314 C 61.656 147.341, 58.982 149.416, 50.455 150.937 C 39.400 152.908, 39.854 152.625, 40.197 157.334 C 40.490 161.360, 40.626 161.510, 44.235 161.809 C 46.289 161.980, 51.797 161.142, 56.476 159.949 C 68.650 156.844, 70.051 157.845, 65.500 166.404 C 64.125 168.990, 63 171.757, 63 172.553 C 63 173.349, 62.640 174, 62.201 174 C 61.762 174, 60.299 175.788, 58.951 177.973 C 57.603 180.158, 56.163 181.958, 55.750 181.973 C 55.337 181.988, 54.998 182.563, 54.995 183.250 C 54.993 183.938, 53.643 185.938, 51.995 187.696 C 50.348 189.453, 49 191.125, 49 191.411 C 49 191.697, 47.762 193.251, 46.250 194.864 C 44.737 196.478, 42.825 198.687, 42 199.773 C 40.339 201.961, 33.345 210.296, 31 212.881 C 26.862 217.444, 23 222.950, 23 224.287 C 23 227.584, 25.831 226.556, 30.062 221.724 C 32.503 218.936, 36.683 214.146, 39.351 211.078 C 42.019 208.010, 45.844 203.719, 47.851 201.542 C 49.858 199.365, 54.705 192.615, 58.621 186.542 C 67.145 173.326, 68.305 172, 71.345 172 C 73.945 172, 76.402 169.685, 77.449 166.250 C 77.852 164.929, 78.933 164, 80.067 164 C 81.651 164, 82 164.713, 82 167.945 C 82 171.263, 81.563 172.101, 79.250 173.209 C 75.293 175.105, 75.538 178.407, 79.665 178.807 C 83.325 179.162, 84.748 181.529, 82.140 182.925 C 80.429 183.841, 80.427 184.373, 82.093 195.577 C 83.050 202.009, 83.620 207.827, 83.360 208.505 C 83.100 209.183, 83.349 217.496, 83.913 226.979 C 84.870 243.071, 85.700 247, 88.139 247 C 89.780 247, 92.338 240.300, 91.443 238.341 C 90.102 235.402, 87.182 196.715, 88.157 194.795 C 88.917 193.298, 89.445 193.512, 92.478 196.545 C 94.378 198.445, 96.337 200, 96.830 200 C 97.324 200, 98.801 201.041, 100.114 202.313 C 103.531 205.626, 111.843 211, 113.550 211 C 114.348 211, 115 211.400, 115 211.889 C 115 212.377, 116.630 213.083, 118.623 213.457 C 120.616 213.831, 123.054 214.641, 124.042 215.258 C 125.402 216.108, 126.221 216.061, 127.419 215.067 C 130.631 212.401, 129.276 210.155, 122.446 206.825 C 118.841 205.067, 114.768 202.588, 113.395 201.315 C 112.021 200.042, 110.470 199, 109.948 199 C 109.427 199, 109 198.647, 109 198.216 C 109 197.784, 107.690 196.657, 106.088 195.711 C 104.486 194.765, 100.027 190.955, 96.179 187.245 C 86.277 177.700, 83.776 169.496, 87.957 160.285 C 89.374 157.165, 90.602 155.916, 92.685 155.475 C 94.233 155.147, 96.400 154.344, 97.500 153.690 C 98.611 153.029, 103.725 152.433, 109 152.350 C 114.225 152.268, 119.063 152.155, 119.750 152.100 C 120.438 152.045, 121 150.898, 121 149.551 C 121 147.439, 120.210 146.863, 115.250 145.359 C 107.609 143.043, 106.744 142.347, 108.175 139.674 C 108.798 138.510, 109.631 130.119, 110.027 121.029 C 110.828 102.646, 111.914 97.079, 115.539 92.771 C 118.516 89.233, 118.608 87.860, 116.026 85.523 C 114.322 83.982, 113.639 83.907, 111.051 84.979 C 107.514 86.444, 104 89.318, 104 90.745 C 104 91.300, 103.383 92.267, 102.630 92.892 C 100.615 94.565, 99.972 101.526, 101.087 109.609 C 101.698 114.042, 101.726 119.501, 101.161 124.109 C 100.168 132.210, 100.588 134.283, 102.653 131.460 C 103.853 129.819, 104 130.130, 104 134.309 C 104 136.889, 103.583 139, 103.073 139 C 102.564 139, 101.941 139.787, 101.689 140.750 C 101.438 141.713, 101.170 140.475, 101.094 138 L 100.956 133.500 99.059 135.968 C 98.016 137.325, 96.930 139.602, 96.644 141.029 C 95.931 144.595, 89.758 147.509, 88.763 144.750 C 88.092 142.889, 90.636 73.851, 91.469 71.342 C 91.977 69.812, 91.577 68.577, 90.092 67.092 C 87.509 64.509, 86.908 64.498, 83.753 66.980 M 211.744 96.566 C 211.259 97.004, 187.222 97.924, 175.273 97.961 C 163.419 97.999, 162.997 98.075, 161.440 100.451 C 160.489 101.903, 160.101 103.743, 160.489 104.965 C 161.124 106.965, 161.233 106.975, 164.072 105.298 C 165.682 104.347, 167 103.216, 167 102.784 C 167 102.353, 167.675 102, 168.500 102 C 169.423 102, 170 102.938, 170 104.439 C 170 106.566, 170.580 106.964, 174.545 107.559 C 178.475 108.148, 198.291 106.906, 209 105.400 C 210.925 105.129, 214.444 104.655, 216.820 104.347 C 220.120 103.920, 221.400 103.216, 222.243 101.367 C 223.737 98.088, 222.373 96.932, 216.629 96.607 C 214.076 96.463, 211.878 96.445, 211.744 96.566 M 52.116 116.643 C 52.052 117.822, 52.675 119.045, 53.500 119.362 C 54.325 119.678, 55 119.501, 55 118.969 C 55 118.436, 54.583 118, 54.073 118 C 53.564 118, 52.941 117.213, 52.689 116.250 C 52.329 114.870, 52.208 114.953, 52.116 116.643 M 195.452 129.282 C 192.179 129.712, 182.951 130.061, 174.946 130.057 L 160.391 130.050 157.099 133.056 C 154.401 135.521, 154.027 136.328, 155.026 137.532 C 155.696 138.339, 157.170 139, 158.301 139 C 159.433 139, 161.828 139.531, 163.624 140.181 C 166.216 141.118, 170.668 141, 185.195 139.605 C 195.263 138.639, 205.387 137.432, 207.693 136.924 C 209.999 136.416, 214.300 136, 217.252 136 C 223.564 136, 226.226 134.463, 225.383 131.307 C 224.828 129.232, 224.169 129.098, 213.101 128.807 C 206.668 128.638, 198.726 128.852, 195.452 129.282 M 29.411 155.498 C 28.041 160.957, 32.185 163.019, 34.639 158.098 C 36.203 154.959, 35.348 153, 32.412 153 C 30.714 153, 29.860 153.712, 29.411 155.498 M 51 156 C 51 156.550, 51.450 157, 52 157 C 52.550 157, 53 156.550, 53 156 C 53 155.450, 52.550 155, 52 155 C 51.450 155, 51 155.450, 51 156 M 45 156.833 C 45 157.475, 43.987 158.052, 42.750 158.116 C 40.898 158.211, 40.828 158.317, 42.356 158.710 C 44.351 159.223, 46.811 157.478, 45.683 156.350 C 45.307 155.974, 45 156.192, 45 156.833 M 209 169.930 C 202.125 170.243, 195.851 170.917, 195.058 171.428 C 194.265 171.938, 189.990 172.720, 185.558 173.166 C 181.126 173.611, 173.450 174.693, 168.500 175.570 C 163.550 176.447, 157.640 177.306, 155.367 177.479 C 150.501 177.851, 144.394 180.530, 143.581 182.650 C 143.265 183.472, 143.501 185.068, 144.105 186.196 C 145.142 188.135, 145.918 188.226, 158.351 187.873 C 173.863 187.433, 173.295 186.539, 166.437 200.590 C 163.996 205.590, 162 209.952, 162 210.285 C 162 211.360, 155.076 225.409, 153.023 228.500 C 151.927 230.150, 150.616 232.400, 150.111 233.500 C 149.606 234.600, 148.348 236.400, 147.316 237.500 C 146.284 238.600, 144.106 241.300, 142.475 243.500 C 140.845 245.700, 139.198 247.735, 138.814 248.023 C 138.431 248.310, 137.451 249.829, 136.638 251.397 C 135.037 254.482, 135.433 257, 137.518 257 C 139.154 257, 144 251.335, 144 249.423 C 144 248.640, 144.675 248, 145.500 248 C 146.325 248, 147 247.502, 147 246.894 C 147 246.286, 148.304 244.141, 149.898 242.128 C 151.493 240.115, 153.935 236.226, 155.326 233.484 C 161.002 222.294, 166.008 211.745, 169.977 202.609 C 170.959 200.349, 172.771 197.375, 174.003 196 L 176.245 193.500 175.797 199.162 C 175.372 204.543, 175.430 204.717, 176.951 202.662 C 177.832 201.473, 179.151 199.150, 179.882 197.500 C 183.215 189.974, 184.404 188.293, 188.573 185.210 C 191.921 182.734, 194.690 181.674, 199.761 180.928 C 203.467 180.382, 209.006 179.559, 212.068 179.098 C 220.464 177.836, 224.982 175.918, 225.629 173.343 C 226.329 170.553, 225.388 168.946, 223.191 169.180 C 222.261 169.278, 215.875 169.616, 209 169.930 M 195.200 188.200 C 193.449 189.951, 193.728 193, 195.640 193 C 196.542 193, 197.877 192.213, 198.608 191.250 C 199.825 189.647, 199.937 189.710, 199.938 192 C 199.939 193.375, 199.282 202.150, 198.478 211.500 C 197.674 220.850, 196.528 235.020, 195.932 242.989 C 194.868 257.224, 194.124 260, 191.378 260 C 190.620 260, 190 260.675, 190 261.500 C 190 263.250, 192.116 263.484, 193.693 261.907 C 194.462 261.138, 195.363 261.124, 196.739 261.861 C 197.873 262.467, 199.073 262.535, 199.597 262.023 C 200.853 260.793, 211.433 260.288, 211.798 261.441 C 212.155 262.564, 203.839 264.894, 199.250 264.956 C 197.463 264.980, 196 265.413, 196 265.917 C 196 267.239, 198.251 267.850, 200 267.002 C 200.825 266.602, 205.207 266.002, 209.737 265.670 C 214.268 265.337, 219.379 264.338, 221.095 263.451 C 222.811 262.563, 225.197 262.084, 226.396 262.385 C 227.596 262.686, 229.849 262.272, 231.403 261.466 C 233.574 260.340, 238.328 260, 251.914 260 C 261.641 260, 270.028 260.393, 270.550 260.872 C 271.072 261.352, 274.014 262.022, 277.087 262.362 C 282.325 262.941, 282.757 262.822, 284.019 260.464 C 285.149 258.353, 285.145 257.111, 283.991 252.725 C 282.995 248.941, 282.690 242.053, 282.884 227.750 C 283.113 210.869, 282.937 208, 281.674 208 C 278.741 208, 275.123 223.527, 274.102 240.500 L 273.500 250.500 270.500 250.395 C 268.850 250.338, 266.150 250.206, 264.500 250.104 C 255.154 249.521, 225.496 251.185, 221.711 252.504 C 219.395 253.311, 216.128 253.977, 214.450 253.985 C 212.773 253.993, 210.921 254.479, 210.336 255.064 C 209.751 255.649, 207.298 255.987, 204.886 255.814 L 200.500 255.500 200.728 250 C 200.948 244.709, 201.638 235.082, 204.017 204.097 C 204.908 192.507, 204.873 189.539, 203.838 188.900 C 203.107 188.448, 202.241 188.610, 201.830 189.275 C 201.329 190.085, 200.905 189.916, 200.447 188.722 C 199.682 186.730, 196.943 186.457, 195.200 188.200 M 192.803 213.889 C 192.176 218.163, 193.361 219.562, 195.006 216.490 C 196.183 214.290, 196.156 213.728, 194.811 212.383 C 193.400 210.971, 193.210 211.114, 192.803 213.889 M 191.697 232.393 C 191.288 233.434, 191.189 234.522, 191.476 234.810 C 192.389 235.722, 193.191 234.227, 192.809 232.328 C 192.459 230.588, 192.405 230.591, 191.697 232.393 M 235.008 254.792 C 232.978 256.436, 232.931 256.698, 234.440 257.950 C 235.686 258.984, 236.366 259.034, 237.242 258.158 C 237.879 257.521, 240.673 256.933, 243.450 256.850 C 246.480 256.760, 247.300 256.551, 245.500 256.326 C 243.850 256.120, 241.375 255.654, 240 255.290 C 237.758 254.696, 237.913 254.558, 241.500 253.956 L 245.500 253.284 241.361 253.142 C 238.698 253.051, 236.432 253.639, 235.008 254.792 M 223.750 255.392 C 221.043 257.447, 221.536 260, 224.640 260 C 228.219 260, 230.426 257.051, 228.145 255.315 C 226.097 253.757, 225.900 253.760, 223.750 255.392 M 261.500 256 C 261.160 256.550, 261.610 257, 262.500 257 C 263.390 257, 263.840 256.550, 263.500 256 C 263.160 255.450, 262.710 255, 262.500 255 C 262.290 255, 261.840 255.450, 261.500 256" stroke="none" fill="black" fill-rule="evenodd"/>
</svg>