<svg xmlns="http://www.w3.org/2000/svg" width="300" height="300" viewBox="0 0 300 300" version="1.1">
	<path d="M 158.335 24.250 C 157.905 24.938, 157.500 29.550, 157.434 34.500 C 157.352 40.732, 156.806 44.484, 155.658 46.700 C 154.746 48.461, 154 50.786, 154 51.867 C 154 52.949, 153.100 55.934, 152 58.500 C 150.693 61.550, 150 65.388, 150 69.583 C 150 75.244, 150.226 76, 151.920 76 C 153.337 76, 154.277 74.683, 155.511 70.968 C 158.061 63.291, 164.105 53, 166.064 53 C 166.994 53, 168.315 52.325, 169 51.500 C 169.685 50.675, 170.990 50, 171.900 50 C 172.810 50, 174.596 49.271, 175.868 48.380 C 177.844 46.996, 178.543 46.952, 180.656 48.083 C 182.609 49.129, 183.291 49.147, 183.895 48.170 C 184.316 47.489, 185.415 47.222, 186.338 47.576 C 187.260 47.930, 189.050 47.542, 190.315 46.713 C 191.579 45.885, 196.070 44.883, 200.294 44.487 C 206.683 43.888, 208.071 44.022, 208.554 45.281 C 209.249 47.091, 203.039 65.676, 198.458 75.500 C 194.361 84.283, 193.828 86.153, 194.922 87.896 C 195.892 89.442, 197.828 87.796, 203.500 80.602 C 205.150 78.510, 207.004 76.259, 207.620 75.600 C 211.210 71.762, 217 54.402, 217 47.477 C 217 39.705, 211.320 36.568, 199.965 38.070 C 175.161 41.352, 169.541 42.166, 168.887 42.570 C 167.464 43.449, 166.599 40.520, 166.457 34.335 C 166.366 30.416, 165.694 27.182, 164.634 25.564 C 162.850 22.842, 159.637 22.172, 158.335 24.250 M 175.589 63.744 C 175.265 64.068, 175 65.086, 175 66.007 C 175 66.927, 173.708 70.340, 172.128 73.590 C 170.549 76.841, 168.974 80.175, 168.628 81 C 168.283 81.825, 166.431 84.525, 164.514 87 C 162.597 89.475, 159.402 93.975, 157.414 97 C 155.427 100.025, 152.936 103.184, 151.879 104.021 C 150.821 104.857, 148.882 108.716, 147.570 112.596 C 146.257 116.476, 144.243 121.192, 143.095 123.075 C 141 126.513, 140.350 130.499, 141.750 131.324 C 143.288 132.229, 146.583 130.142, 147.997 127.368 C 148.802 125.791, 150.481 123.108, 151.730 121.406 C 152.978 119.704, 154 117.950, 154 117.509 C 154 116.717, 158.507 110.984, 163.132 105.893 C 164.434 104.459, 166.726 101.196, 168.225 98.643 C 169.724 96.089, 171.368 94, 171.877 94 C 172.387 94, 173.635 95.299, 174.652 96.886 C 178.720 103.239, 187.973 109.172, 199.676 112.930 C 207.648 115.490, 209.698 111.748, 202.750 107.320 C 189.387 98.805, 184.238 95.319, 182.010 93.280 C 180.641 92.026, 178.728 91, 177.760 91 C 175.102 91, 175.584 87.836, 179.318 80.775 C 183.470 72.922, 185.650 66.223, 184.420 65.100 C 183.241 64.024, 176.365 62.968, 175.589 63.744 M 106.566 66.201 C 105.416 66.858, 99.824 67.255, 92.774 67.180 C 82.580 67.073, 80.827 67.289, 80.279 68.714 C 79.878 69.761, 80.322 70.764, 81.484 71.436 C 82.496 72.021, 84.204 73.340, 85.279 74.367 C 87.692 76.671, 95.054 76.166, 98.008 73.493 C 99.135 72.473, 100.788 71.973, 101.991 72.287 C 103.123 72.583, 105.500 72.441, 107.274 71.971 C 109.048 71.501, 114.123 70.889, 118.550 70.610 C 127.006 70.077, 132 68.746, 132 67.025 C 132 66.461, 129.863 65.957, 127.250 65.904 C 124.638 65.851, 119.350 65.648, 115.500 65.453 C 111.538 65.252, 107.661 65.577, 106.566 66.201 M 131.212 90.291 C 128.853 91.506, 122.011 95.282, 116.008 98.682 C 109.063 102.615, 103.366 105.123, 100.346 105.575 C 97.736 105.967, 93.279 107.561, 90.441 109.118 C 87.604 110.675, 85.033 111.699, 84.727 111.394 C 83.547 110.213, 80 113.171, 80 115.335 C 80 118.552, 81.855 120.002, 85.950 119.986 C 91.342 119.966, 93.625 119.069, 95.045 116.416 C 95.756 115.087, 97.095 114, 98.020 114 C 98.945 114, 101.818 112.875, 104.404 111.500 C 106.990 110.125, 109.711 109, 110.451 109 C 112.356 109, 124.652 101.474, 130.009 97.029 C 132.488 94.972, 135.526 92.968, 136.759 92.577 C 139.458 91.720, 139.863 87.980, 137.250 88.041 C 136.287 88.064, 133.570 89.076, 131.212 90.291 M 146.262 142.138 C 145.378 143.022, 145.445 144.130, 146.543 146.757 C 148.206 150.738, 147.653 152.342, 144.916 151.473 C 143.133 150.907, 143 151.442, 143 159.209 C 143 163.798, 142.472 171.366, 141.827 176.026 C 141.182 180.687, 140.754 187.014, 140.875 190.088 C 141.019 193.718, 140.641 196.025, 139.798 196.673 C 138.129 197.956, 122.680 201.662, 113 203.101 C 108.875 203.714, 104.805 204.584, 103.955 205.033 C 103.106 205.483, 99.506 206.115, 95.955 206.437 C 86.962 207.255, 83 208.072, 83 209.111 C 83 209.600, 82.373 210, 81.607 210 C 80.044 210, 78.693 212.694, 79.556 214.090 C 79.865 214.591, 80.965 215, 82 215 C 83.035 215, 84.190 215.498, 84.567 216.108 C 85.409 217.471, 92.633 216.466, 95.505 214.587 C 96.608 213.865, 98.893 213.477, 100.583 213.725 C 103.079 214.092, 103.985 213.673, 105.416 211.488 C 107.013 209.050, 107.577 208.859, 111.461 209.442 C 115.219 210.005, 115.810 209.834, 116.279 208.042 C 116.572 206.919, 117.305 206, 117.906 206 C 119.549 206, 119.222 208.701, 117.500 209.362 C 116.675 209.678, 116 211.072, 116 212.460 C 116 214.924, 111.757 221.399, 106.089 227.585 C 104.534 229.282, 102.420 231.982, 101.390 233.585 C 100.361 235.188, 98.482 237.625, 97.215 239 C 95.948 240.375, 93.595 243.780, 91.987 246.566 C 90.379 249.353, 88.149 252.460, 87.032 253.471 C 84.590 255.681, 84.421 258.275, 86.601 260.084 C 87.991 261.237, 88.880 260.681, 93.351 255.858 C 96.183 252.802, 99.850 248.549, 101.500 246.405 C 103.150 244.262, 105.560 241.606, 106.855 240.504 C 109.441 238.304, 110.271 237.453, 115.770 231.380 C 121.249 225.329, 123 223.082, 123 222.102 C 123 221.621, 125.651 218.477, 128.890 215.114 C 135.997 207.738, 139.027 207.026, 138.949 212.750 C 138.879 217.826, 137.669 227.039, 135.105 242 C 128.871 278.387, 128.772 284.493, 134.386 286.467 C 138.128 287.783, 139.983 285.292, 139.881 279.088 C 139.809 274.729, 143.323 252.192, 146.600 236 C 147.435 231.875, 148.515 223.012, 149 216.305 C 149.953 203.127, 151.478 199, 155.393 199 C 156.582 199, 158.458 198.368, 159.561 197.595 C 161.056 196.548, 162.706 196.405, 166.034 197.034 C 169.495 197.689, 170.750 197.556, 171.610 196.440 C 172.405 195.409, 174.892 195, 180.360 195 C 186.285 195, 188 194.682, 188 193.583 C 188 191.715, 190.096 191.067, 192.111 192.312 C 193.263 193.024, 194.371 192.854, 195.994 191.717 C 197.640 190.564, 199.568 190.280, 202.998 190.686 C 205.987 191.040, 207.984 190.834, 208.422 190.127 C 208.917 189.326, 209.937 189.433, 212.007 190.504 C 217.695 193.445, 220.593 191.361, 217.461 186.581 C 215.968 184.303, 215.109 184.004, 210.135 184.035 C 204.649 184.069, 196.794 185.352, 182.500 188.547 C 173.499 190.560, 160.741 191.909, 159.663 190.962 C 159.203 190.557, 162.302 186.688, 166.550 182.363 C 170.798 178.038, 175.433 172.700, 176.849 170.500 C 179.308 166.681, 180.082 165.384, 184.375 157.890 C 185.406 156.090, 186.613 153.349, 187.058 151.799 C 187.770 149.316, 187.513 148.800, 184.897 147.447 C 182.139 146.020, 181.747 146.054, 179.373 147.921 C 177.967 149.027, 174.738 153.209, 172.198 157.216 C 169.657 161.222, 165.672 167.200, 163.343 170.500 C 161.014 173.800, 157.885 178.863, 156.391 181.750 C 152.136 189.969, 150.642 188.864, 151.660 178.250 C 152.744 166.958, 152.170 147.194, 150.668 144.074 C 149.276 141.182, 147.846 140.554, 146.262 142.138 M 103.011 167.487 C 99.678 171.503, 105.640 178.215, 117.020 183.258 C 123.892 186.304, 126.685 187.015, 131.750 187.008 C 136.635 187.002, 138 186.672, 138 185.500 C 138 184.675, 137.487 184, 136.860 184 C 135.097 184, 127 179.749, 127 178.823 C 127 178.370, 126.353 178, 125.563 178 C 123.830 178, 110.829 169.280, 109.700 167.360 C 108.635 165.549, 104.555 165.626, 103.011 167.487 M 142.606 201.585 C 142.253 202.504, 142.265 205.518, 142.632 208.283 C 143.243 212.890, 143.416 213.152, 144.693 211.406 C 145.526 210.268, 145.970 207.719, 145.794 205.078 C 145.492 200.535, 143.744 198.620, 142.606 201.585 M 126 210 C 125.099 210.582, 124.975 210.975, 125.691 210.985 C 126.346 210.993, 127.160 210.550, 127.500 210 C 128.267 208.758, 127.921 208.758, 126 210 M 161.250 210.662 C 158.528 211.761, 159.936 216.625, 164.197 220.844 C 166.506 223.130, 168.920 225, 169.562 225 C 170.205 225, 171.874 225.900, 173.273 227 C 176.913 229.864, 178.627 229.605, 176.592 226.500 C 175.311 224.545, 175.248 224, 176.303 224 C 177.044 224, 178.708 225.125, 180 226.500 C 181.944 228.569, 182.060 229, 180.674 229 C 179.753 229, 179 229.384, 179 229.853 C 179 230.678, 192.377 240, 193.559 240 C 193.880 240, 194.840 240.697, 195.692 241.549 C 196.544 242.401, 198.463 243.343, 199.956 243.641 C 201.450 243.940, 204.346 245.718, 206.391 247.592 C 208.437 249.466, 211.067 251, 212.235 251 C 214.433 251, 220.283 252.640, 223.127 254.054 C 224.022 254.499, 226.384 255.169, 228.377 255.543 C 231.386 256.107, 232 255.935, 232 254.524 C 232 253.556, 230.711 252.340, 229 251.694 C 227.350 251.071, 226 250.217, 226 249.795 C 226 249.374, 223.188 247.615, 219.750 245.887 C 216.313 244.159, 211.203 241.227, 208.396 239.372 C 205.590 237.518, 202.809 236, 202.218 236 C 201.627 236, 200.548 235.438, 199.821 234.750 C 199.095 234.063, 196.025 231.838, 193 229.806 C 182.558 222.793, 178.490 219.865, 175.547 217.249 C 172.849 214.849, 164.191 209.905, 163 210.083 C 162.725 210.124, 161.938 210.385, 161.250 210.662 M 184.022 230.527 C 185.809 232.679, 193.860 238.003, 195.300 237.984 C 195.960 237.975, 194.925 236.635, 193 235.006 C 191.075 233.377, 188.787 231.359, 187.916 230.522 C 187.045 229.685, 185.527 229, 184.544 229 C 183.053 229, 182.966 229.255, 184.022 230.527 M 198.500 240 C 198.840 240.550, 199.793 241, 200.618 241 C 201.443 241, 201.840 240.550, 201.500 240 C 201.160 239.450, 200.207 239, 199.382 239 C 198.557 239, 198.160 239.450, 198.500 240 M 207 244 C 207.825 244.533, 208.950 244.969, 209.500 244.969 C 210.050 244.969, 209.825 244.533, 209 244 C 208.175 243.467, 207.050 243.031, 206.500 243.031 C 205.950 243.031, 206.175 243.467, 207 244" stroke="none" fill="black" fill-rule="evenodd"/>
</svg>