<svg xmlns="http://www.w3.org/2000/svg" width="300" height="300" viewBox="0 0 300 300" version="1.1">
	<path d="M 87.751 32.689 C 86.789 32.941, 85.769 34.351, 85.485 35.823 C 84.115 42.922, 82.805 47.502, 82.004 47.997 C 80.925 48.665, 75.585 60.455, 74.644 64.250 C 74.269 65.763, 73.520 67, 72.981 67 C 72.441 67, 72 67.638, 72 68.417 C 72 69.196, 71.662 69.983, 71.250 70.167 C 70.522 70.490, 69.557 72.358, 65.034 82.194 C 63.847 84.776, 62.101 87.926, 61.155 89.194 C 60.209 90.462, 58.550 93.259, 57.468 95.408 C 56.385 97.557, 53.572 100.693, 51.214 102.375 C 45.542 106.425, 44.739 109.583, 48.598 112.661 C 51.595 115.051, 53.205 115.014, 58 112.444 C 66.526 107.874, 69 108.217, 69 113.967 C 69 117.017, 68.282 118.518, 65.486 121.314 C 63.553 123.247, 61.356 126.575, 60.602 128.710 C 59.119 132.915, 53.072 143.292, 51.789 143.833 C 51.355 144.017, 51 144.632, 51 145.201 C 51 145.770, 49.634 147.870, 47.965 149.868 C 43.825 154.822, 43.933 154.650, 40.108 162.520 C 38.242 166.359, 36.330 170.281, 35.858 171.236 C 35.386 172.191, 35 174.554, 35 176.486 C 35 179.884, 35.124 179.999, 38.750 179.978 C 42.899 179.954, 51 176.694, 51 175.049 C 51 174.472, 51.634 174, 52.408 174 C 53.183 174, 55.799 172.088, 58.222 169.750 C 60.645 167.412, 64.589 163.925, 66.986 162 C 69.383 160.075, 72.325 157.452, 73.523 156.172 C 75.525 154.031, 75.830 153.973, 77.311 155.454 C 78.197 156.340, 79.199 158.737, 79.538 160.782 C 80.441 166.222, 82.881 170.602, 88.407 176.705 C 91.106 179.685, 94.031 183.558, 94.907 185.312 C 97.074 189.649, 100.594 189.772, 100.278 185.500 C 99.769 178.602, 98.718 173.998, 97.645 173.962 C 95.917 173.905, 91 166.295, 91 163.678 C 91 162.415, 90.339 160.509, 89.532 159.441 C 88.724 158.374, 88.049 156.488, 88.032 155.250 C 88.014 154.012, 87.550 153, 87 153 C 86.450 153, 86 151.719, 86 150.153 C 86 148.587, 85.160 146.337, 84.133 145.153 C 80.540 141.010, 75.911 142.678, 65.044 152.031 C 58.088 158.018, 56 159.101, 56 156.723 C 56 155.393, 58.598 151.235, 60.511 149.500 C 62.733 147.486, 66.728 140.304, 69.927 132.570 C 71.731 128.209, 73.573 123.934, 74.020 123.070 C 79.320 112.823, 79.492 102.539, 74.381 101.489 C 73.071 101.220, 70.875 100.766, 69.500 100.481 C 66.412 99.840, 66.381 99.150, 69.297 95.990 C 70.561 94.620, 72.625 91.365, 73.884 88.756 C 75.143 86.146, 76.584 83.757, 77.087 83.447 C 77.589 83.136, 78 82.160, 78 81.277 C 78 79.075, 81.197 72, 82.192 72 C 82.637 72, 83 71.190, 83 70.200 C 83 69.210, 83.389 67.973, 83.864 67.450 C 84.338 66.928, 85.207 65.150, 85.793 63.500 C 89.777 52.287, 92.190 46.542, 93.962 44.053 C 95.302 42.172, 96 39.617, 96 36.596 C 96 32.054, 95.962 32.001, 92.750 32.116 C 90.963 32.180, 88.713 32.438, 87.751 32.689 M 184.570 39.718 C 182.237 40.940, 182.163 41.373, 181.642 56.736 C 181.349 65.406, 180.848 74.525, 180.530 77 C 179.256 86.927, 176.743 100.760, 175.411 105.188 C 174.635 107.766, 174 111.233, 174 112.891 C 174 114.549, 173.576 116.940, 173.057 118.203 C 172.538 119.466, 171.824 123.571, 171.469 127.323 C 170.916 133.180, 170.590 134.045, 169.163 133.429 C 167.064 132.523, 165.401 132.591, 160.940 133.766 C 157.804 134.592, 154.575 136.085, 143.758 141.712 C 142.250 142.496, 140.450 143.947, 139.758 144.935 C 139.066 145.923, 136.940 147.074, 135.033 147.493 C 133.126 147.912, 130.651 148.717, 129.533 149.283 C 128.415 149.848, 126.825 150.625, 126 151.009 C 123.652 152.102, 122.415 156.590, 123.950 158.440 C 125.346 160.122, 129 160.587, 129 159.083 C 129 158.579, 131.028 158.167, 133.507 158.167 C 136.893 158.167, 138.776 157.525, 141.083 155.583 C 142.772 154.162, 144.756 153, 145.493 153 C 146.230 153, 146.983 152.662, 147.167 152.250 C 147.836 150.745, 156.586 144.343, 159.678 143.097 C 161.426 142.393, 163.077 141.243, 163.346 140.541 C 163.615 139.839, 164.998 139.042, 166.418 138.771 L 169 138.277 169 145.989 C 169 150.231, 168.552 155.006, 168.006 156.601 C 166.815 160.072, 165.388 168.611, 163.510 183.500 C 161.655 198.212, 160.198 206.891, 158.994 210.399 C 158.448 211.994, 158 215.736, 158 218.715 C 158 221.694, 157.535 225, 156.967 226.062 C 155.287 229.201, 155.660 253.941, 157.452 258.230 C 159.283 262.612, 160.358 263.378, 163.557 262.575 C 166.133 261.928, 166.825 259.225, 164.905 257.305 C 163.570 255.970, 163.624 232.681, 164.968 230.195 C 165.472 229.263, 166.400 224.675, 167.029 220 C 167.659 215.325, 168.538 208.800, 168.984 205.500 C 169.430 202.200, 170.280 197.700, 170.873 195.500 C 171.467 193.300, 171.963 189.818, 171.976 187.763 C 171.989 185.707, 173.125 179.695, 174.500 174.403 C 175.875 169.111, 177 162.520, 177 159.757 C 177 156.993, 177.412 153.105, 177.915 151.116 C 178.716 147.946, 180.896 135.538, 182.503 125 C 182.796 123.075, 183.493 116.775, 184.052 111 C 184.610 105.225, 185.502 99.466, 186.033 98.203 C 186.565 96.940, 187.020 94.015, 187.044 91.703 C 187.068 89.391, 187.512 85.475, 188.031 83 C 188.550 80.525, 189.440 73.568, 190.010 67.540 C 190.820 58.965, 191.475 56.124, 193.018 54.481 C 195.435 51.908, 196.958 40.710, 195.051 39.532 C 193.033 38.284, 187.105 38.389, 184.570 39.718 M 211.305 52.772 C 209.173 54.450, 209.089 55.292, 208.401 82 C 207.441 119.324, 207.122 128.394, 205.993 150.500 C 205.459 160.950, 204.639 177.150, 204.171 186.500 C 203.322 203.476, 203.543 242.724, 204.522 248.613 C 205.229 252.870, 208.060 255.274, 211.382 254.440 C 212.822 254.079, 214 253.209, 214 252.508 C 214 250.892, 217.192 250.031, 223.250 250.014 C 225.863 250.006, 227.947 249.663, 227.882 249.250 C 227.501 246.841, 228.703 246.174, 235.250 245.162 C 248.627 243.095, 250.320 243.102, 252.676 245.238 C 254.970 247.317, 257.511 246.774, 256.600 244.399 C 255.855 242.458, 259.713 242.570, 261.689 244.546 C 262.803 245.660, 264.809 246.010, 268.859 245.796 C 273.917 245.530, 274.618 245.215, 275.835 242.668 C 277.798 238.558, 279.340 226.753, 278.578 221.671 C 277.821 216.625, 274.418 212.182, 272.657 213.943 C 271.375 215.225, 269.083 224.364, 268.331 231.191 C 267.759 236.389, 267.156 236.722, 258 236.894 C 252.429 236.999, 238.502 238.913, 234.601 240.110 C 233.006 240.600, 229.124 241, 225.973 241 C 222.822 241, 218.629 241.675, 216.654 242.500 C 214.680 243.325, 212.884 244, 212.664 244 C 212.444 244, 212.246 238.938, 212.226 232.750 C 212.205 226.563, 212.166 214.977, 212.140 207.004 C 212.113 199.031, 212.521 192.079, 213.046 191.554 C 214.330 190.270, 214.265 180.665, 212.963 179.363 C 212.247 178.647, 212.257 177.454, 212.997 175.508 C 213.586 173.958, 214.022 169.497, 213.966 165.595 C 213.909 161.693, 214.344 156.928, 214.931 155.007 C 216.686 149.269, 216.051 141.232, 213.945 142.534 C 213.481 142.821, 212.612 142.143, 212.015 141.028 C 211.144 139.400, 211.232 139, 212.465 139 C 213.309 139, 214.014 139.563, 214.030 140.250 C 214.047 140.938, 214.605 140.600, 215.269 139.500 C 216.084 138.152, 216.563 130.820, 216.740 117 C 216.885 105.725, 217.452 91.809, 218.002 86.076 C 218.551 80.343, 219 72.388, 219 68.398 C 219 63.282, 219.442 60.701, 220.500 59.643 C 222.302 57.841, 222.462 53.862, 220.800 52.200 C 219.056 50.456, 213.848 50.770, 211.305 52.772 M 139.559 97.904 C 139.187 98.507, 137.784 99, 136.441 99 C 134.263 99, 134 99.428, 134 102.966 L 134 106.931 151.250 106.836 C 160.738 106.784, 169.287 106.544, 170.250 106.303 C 172.290 105.793, 172.623 101.746, 170.750 100.241 C 170.063 99.689, 164.550 98.963, 158.500 98.627 C 152.450 98.291, 145.866 97.744, 143.868 97.412 C 141.675 97.048, 139.968 97.243, 139.559 97.904 M 258.817 103.465 C 258.093 104.034, 256.415 106.525, 255.090 109 C 252.847 113.188, 241.736 127.291, 236.182 133 C 231.864 137.439, 225.342 146.436, 224.752 148.768 C 224.410 150.118, 224.777 151.634, 225.658 152.516 C 227.644 154.501, 229.910 153.236, 237.179 146.086 C 240.303 143.014, 243.678 139.786, 244.679 138.912 C 245.681 138.039, 247.437 136.239, 248.582 134.912 C 249.727 133.586, 252.303 131.037, 254.307 129.248 C 256.311 127.460, 258.607 124.760, 259.409 123.248 C 260.211 121.737, 262.247 119.224, 263.934 117.665 C 265.620 116.106, 267 114.242, 267 113.522 C 267 112.803, 267.675 111.955, 268.500 111.638 C 269.528 111.244, 270 109.637, 270 106.531 L 270 102 265.067 102.214 C 262.354 102.333, 259.541 102.895, 258.817 103.465 M 144.754 146.250 C 144.501 146.938, 144.497 148.081, 144.745 148.792 C 145.317 150.436, 148 148.447, 148 146.378 C 148 144.658, 145.378 144.555, 144.754 146.250 M 221.250 157.674 C 219.786 158.696, 219 160.267, 219 162.173 C 219 164.570, 219.630 165.365, 222.468 166.551 C 226.828 168.373, 228 168.375, 228 166.559 C 228 164.245, 229.987 163.659, 232.845 165.130 C 234.305 165.882, 235.735 166.809, 236.023 167.191 C 236.311 167.572, 239.766 169.475, 243.700 171.420 C 247.635 173.364, 251.146 175.427, 251.502 176.004 C 251.859 176.581, 253.636 176.953, 255.451 176.830 C 257.356 176.702, 259.403 177.260, 260.294 178.151 C 261.143 179, 264.011 180.255, 266.669 180.940 C 269.326 181.625, 272.470 182.647, 273.655 183.211 C 275.926 184.291, 278 183.618, 278 181.801 C 278 179.611, 272.587 176.594, 258.570 170.973 C 254.209 169.224, 249.934 167.435, 249.070 166.998 C 242.288 163.566, 236.675 161, 235.952 161 C 235.477 161, 233.431 159.875, 231.405 158.500 C 227.201 155.647, 224.474 155.426, 221.250 157.674 M 99.250 202.491 C 95.002 204.337, 94.654 208.538, 98.624 210.047 C 100.067 210.596, 102.138 212.177, 103.226 213.561 C 105.674 216.673, 114.747 221.978, 117.643 221.991 C 119.592 221.999, 121 220.291, 121 217.918 C 121 217.413, 120.361 217, 119.581 217 C 117.902 217, 107 207.265, 107 205.767 C 107 204.986, 103.126 200.826, 102.597 201.039 C 102.544 201.061, 101.037 201.714, 99.250 202.491 M 24.500 203 C 23.400 203.473, 21.038 203.891, 19.250 203.930 C 16.294 203.994, 16 204.282, 16 207.116 C 16 210.482, 18.360 218.498, 20.912 223.798 C 22.543 227.186, 27.369 233, 28.550 233 C 28.914 233, 30.097 234.125, 31.179 235.500 C 32.260 236.875, 33.900 238.014, 34.823 238.032 C 35.745 238.049, 37.374 238.724, 38.441 239.532 C 40.936 241.419, 44.415 241.410, 45.989 239.513 C 47.687 237.467, 46.593 235.195, 43.278 233.885 C 41.750 233.281, 39.887 232.487, 39.137 232.121 C 37.838 231.486, 33.665 225.185, 32.434 222 C 32.115 221.175, 31.437 219.719, 30.927 218.764 C 30.417 217.809, 30 213.919, 30 210.121 C 30 204.745, 29.649 203.079, 28.418 202.607 C 27.548 202.273, 26.761 202.032, 26.668 202.070 C 26.576 202.109, 25.600 202.527, 24.500 203 M 55.980 216.038 C 54.588 218.639, 55.629 222, 57.828 222 C 58.759 222, 60.641 223.037, 62.010 224.305 C 67.675 229.549, 75.473 231.545, 78.070 228.416 C 79.878 226.237, 78.119 223.643, 74.396 223 C 71.302 222.466, 67 220.006, 67 218.771 C 67 218.359, 66.225 217.118, 65.278 216.011 C 62.935 213.275, 57.450 213.291, 55.980 216.038 M 209 228.559 C 209 230.516, 209.375 231.886, 209.833 231.603 C 210.621 231.116, 210.208 225, 209.387 225 C 209.174 225, 209 226.602, 209 228.559" stroke="none" fill="black" fill-rule="evenodd"/>
</svg>