<svg xmlns="http://www.w3.org/2000/svg" width="300" height="300" viewBox="0 0 300 300" version="1.1">
	<path d="M 185.411 16.500 C 184.719 19.256, 183 19.917, 183 17.427 C 183 16.467, 182.318 15.985, 181.250 16.190 C 180.049 16.422, 179.500 17.465, 179.500 19.514 C 179.500 22.416, 179.649 22.509, 184.817 22.805 C 187.741 22.972, 191.566 23.892, 193.317 24.848 C 195.068 25.805, 199.200 27.449, 202.500 28.502 C 205.800 29.554, 210.435 31.672, 212.800 33.208 C 217.473 36.242, 218.555 36.530, 219.506 34.991 C 221.605 31.594, 213.187 24.801, 201.500 20.462 C 197.650 19.032, 193.012 16.994, 191.193 15.931 C 186.895 13.421, 186.165 13.493, 185.411 16.500 M 232.701 55.738 C 229.751 56.040, 228.689 56.687, 227.948 58.636 C 227.323 60.281, 226.392 61.014, 225.247 60.763 C 224.286 60.553, 223.597 59.893, 223.715 59.295 C 224.046 57.623, 217.544 56.795, 214.604 58.135 C 213.172 58.787, 212 59.747, 212 60.268 C 212 60.788, 211.311 60.950, 210.470 60.627 C 209.471 60.243, 208.547 60.901, 207.809 62.520 C 206.340 65.745, 204.600 65.730, 205.411 62.500 C 205.904 60.536, 205.659 60.003, 204.269 60.015 C 201.679 60.038, 199.519 61.585, 200.893 62.434 C 203.483 64.035, 201.591 65.005, 195.750 65.070 L 189.500 65.141 193.500 66.629 C 195.748 67.465, 198.924 67.872, 200.750 67.558 C 202.537 67.251, 205.688 66.723, 207.750 66.386 C 209.813 66.048, 212.243 65.118, 213.151 64.320 C 214.287 63.322, 215.011 63.209, 215.475 63.959 C 215.895 64.638, 218.095 64.843, 221.324 64.502 C 224.171 64.202, 228.810 63.800, 231.633 63.609 C 234.456 63.419, 237.297 62.934, 237.946 62.533 C 238.595 62.132, 239.968 62.566, 240.998 63.498 C 242.975 65.287, 242.979 65.262, 239.359 73.651 C 238.612 75.384, 238 77.748, 238 78.905 C 238 80.061, 237.100 82.686, 236 84.739 C 234.900 86.791, 234 89.175, 234 90.035 C 234 90.896, 233.566 92.034, 233.036 92.564 C 232.505 93.095, 231.943 95.097, 231.786 97.014 C 231.530 100.130, 231.745 100.474, 233.810 100.251 C 237.798 99.822, 240.859 96.737, 244.489 89.491 C 246.420 85.636, 248 82.072, 248 81.570 C 248 81.068, 248.613 79.947, 249.361 79.079 C 250.110 78.210, 251.522 74.479, 252.500 70.786 C 254.826 61.998, 253.708 59.974, 245.331 57.811 C 242.124 56.983, 238.825 56.090, 238 55.827 C 237.175 55.564, 234.791 55.524, 232.701 55.738 M 102.907 60.613 C 102.170 61.499, 100.320 66.081, 98.795 70.794 C 97.269 75.506, 94.993 80.968, 93.736 82.931 C 89.905 88.913, 89.034 90.410, 88.022 92.750 C 87.487 93.987, 86.639 95, 86.138 95 C 85.637 95, 85.029 96.350, 84.787 98 C 84.545 99.650, 84.718 101, 85.173 101 C 85.628 101, 86 101.900, 86 103 C 86 104.100, 85.550 105, 85 105 C 84.450 105, 84 104.550, 84 104 C 84 101.761, 81.911 103.266, 78.798 107.750 C 74.490 113.955, 73.168 116.124, 72.399 118.250 C 72.051 119.213, 71.381 120, 70.909 120 C 70.437 120, 69.382 121.237, 68.564 122.750 C 67.745 124.263, 65.484 127.295, 63.538 129.489 C 59.441 134.108, 59.043 137.327, 62.304 139.463 C 64.144 140.669, 65.302 140.755, 68.054 139.889 C 69.949 139.293, 73.970 138.269, 76.990 137.614 C 80.814 136.784, 82.798 135.784, 83.528 134.320 C 84.456 132.459, 84.794 132.377, 86.474 133.604 C 88.302 134.942, 88.233 135.254, 84.551 142.246 C 82.450 146.236, 79.173 152.537, 77.268 156.250 C 75.362 159.963, 73.417 163, 72.944 163 C 72.471 163, 70.867 165.137, 69.378 167.750 C 67.890 170.363, 65.696 173.850, 64.501 175.500 C 61.419 179.758, 60.870 182.848, 62.601 186.196 C 65.727 192.240, 72.236 191.885, 79.074 185.298 C 81.590 182.875, 85.025 180.055, 86.708 179.032 C 88.390 178.008, 90.418 176.242, 91.214 175.105 C 92.905 172.690, 101.443 166, 102.833 166 C 104.283 166, 105 168.654, 105 174.023 C 105 176.695, 105.415 179.139, 105.923 179.452 C 106.431 179.766, 107.125 181.255, 107.465 182.761 C 107.806 184.268, 111.399 188.988, 115.451 193.250 C 122.585 200.755, 126.144 202.674, 127.307 199.643 C 127.925 198.032, 127.171 196.639, 120.161 186.454 C 116.120 180.583, 114.551 177.238, 113.707 172.698 C 112.830 167.982, 111.854 165.983, 109.142 163.350 C 107.245 161.507, 105.038 160, 104.236 160 C 102.331 160, 89.477 169.300, 85 173.918 C 81.190 177.847, 74.738 182, 72.443 182 C 69.542 182, 71.669 174.557, 74.859 173.545 C 75.945 173.200, 77.302 171.573, 77.875 169.929 C 78.448 168.285, 79.602 166.255, 80.440 165.417 C 85.734 160.123, 93.375 146.727, 97.171 136.086 C 99.583 129.325, 99.963 127.214, 99.107 125.336 C 97.639 122.114, 94.571 122.380, 89.822 126.141 C 86.677 128.632, 84.815 129.314, 80.821 129.441 C 77.536 129.545, 75.614 129.157, 75.295 128.326 C 74.795 127.023, 78.620 120.001, 79.832 119.998 C 80.199 119.997, 81.779 117.972, 83.342 115.498 C 84.905 113.024, 86.540 111, 86.975 111 C 87.411 111, 88.031 110.213, 88.354 109.250 C 88.678 108.287, 89.368 106.825, 89.888 106 C 95.299 97.421, 103.401 83.231, 104.944 79.630 C 107.565 73.517, 110.313 62.259, 109.624 60.463 C 108.873 58.504, 104.577 58.600, 102.907 60.613 M 216.767 60.167 C 217.631 61.031, 218.530 61.048, 220.217 60.235 C 222.361 59.202, 222.290 59.131, 219.050 59.068 C 216.420 59.016, 215.878 59.278, 216.767 60.167 M 190.500 62 C 188.896 62.689, 189.242 62.873, 192.250 62.930 C 194.313 62.968, 196 62.550, 196 62 C 196 60.806, 193.279 60.806, 190.500 62 M 148.250 63.012 C 146.552 63.709, 146 64.752, 146 67.268 C 146 69.100, 146.396 71.027, 146.879 71.550 C 147.363 72.073, 148.321 74.300, 149.010 76.500 C 149.698 78.700, 150.646 80.989, 151.117 81.586 C 151.588 82.184, 152.619 84.502, 153.407 86.737 C 154.196 88.973, 155.953 93.209, 157.311 96.151 C 158.669 99.093, 160.842 104.345, 162.140 107.822 C 163.438 111.298, 165.305 115.011, 166.289 116.072 C 168.406 118.353, 171.557 118.597, 172.346 116.541 C 173.106 114.561, 166.533 93.834, 162.952 86.919 C 160.748 82.661, 160.340 81.060, 161.231 80.169 C 161.874 79.526, 162.882 79, 163.472 79 C 164.062 79, 166.109 77.720, 168.022 76.156 C 170.327 74.272, 173.186 73.089, 176.500 72.650 C 181.799 71.948, 185.822 68.856, 182.366 68.141 C 181.413 67.944, 180.152 68.410, 179.566 69.178 C 178.980 69.945, 177.665 70.402, 176.644 70.193 C 175.623 69.984, 174.295 70.305, 173.694 70.906 C 171.927 72.673, 170.724 72.165, 171.316 69.901 C 171.821 67.970, 171.573 67.858, 168.209 68.489 C 166.198 68.866, 163.454 70.273, 162.112 71.616 C 158.960 74.767, 157.697 74.260, 156.653 69.424 C 155.121 62.331, 153.298 60.941, 148.250 63.012 M 178.835 64.708 C 177.369 64.933, 175.920 65.765, 175.616 66.558 C 174.910 68.399, 176.965 68.414, 179.574 66.586 C 180.684 65.808, 182.921 64.976, 184.546 64.736 L 187.500 64.300 184.500 64.300 C 182.850 64.300, 180.301 64.483, 178.835 64.708 M 187.500 67 C 187.160 67.550, 187.359 68, 187.941 68 C 188.523 68, 189 67.550, 189 67 C 189 66.450, 188.802 66, 188.559 66 C 188.316 66, 187.840 66.450, 187.500 67 M 246.729 71.604 C 246.328 72.005, 246 73.023, 246 73.867 C 246 74.992, 246.296 75.104, 247.113 74.287 C 247.724 73.676, 248.053 72.657, 247.842 72.025 C 247.631 71.392, 247.130 71.203, 246.729 71.604 M 219.849 100.619 C 217.841 101.453, 215.971 103.005, 215.693 104.067 C 215.126 106.234, 212 106.742, 212 104.667 C 212 103.608, 210.819 103.518, 206.250 104.226 C 199.391 105.288, 200.781 105.262, 188.750 104.549 L 179 103.971 179 106.966 C 179 109.403, 179.513 110.088, 181.750 110.639 C 183.262 111.012, 185.457 111.936, 186.626 112.692 C 189.300 114.422, 200.358 114.209, 202.764 112.382 C 203.719 111.657, 206.582 111.049, 209.128 111.032 C 211.988 111.012, 214.230 110.427, 215 109.500 C 215.685 108.675, 216.833 108, 217.551 108 C 218.269 108, 219.549 107.309, 220.394 106.464 C 221.239 105.619, 223.521 104.263, 225.465 103.450 C 229.749 101.660, 230.228 98.977, 226.250 99.052 C 224.738 99.080, 221.857 99.785, 219.849 100.619 M 235.574 121.880 C 235.275 122.365, 231.198 123.080, 226.515 123.470 C 220.189 123.997, 218 124.542, 218 125.590 C 218 127.148, 215.442 127.524, 214.559 126.096 C 214.252 125.599, 211.648 125.174, 208.773 125.151 C 204.872 125.121, 203.092 125.598, 201.759 127.028 C 200.450 128.434, 199.182 128.786, 197.002 128.350 C 194.838 127.918, 193.868 128.181, 193.430 129.321 C 192.963 130.539, 192.280 130.677, 190.349 129.943 C 187.339 128.798, 183.579 130.460, 184.391 132.577 C 184.711 133.410, 184.328 134, 183.469 134 C 182.661 134, 182 133.352, 182 132.559 C 182 131.766, 181.591 130.865, 181.090 130.556 C 179.537 129.596, 177.029 131.113, 177.300 132.849 C 177.704 135.439, 179.041 137.093, 180.166 136.397 C 180.732 136.048, 183.063 135.640, 185.347 135.492 C 192.456 135.030, 197.451 133.819, 198.702 132.253 C 199.428 131.344, 200.603 131.017, 201.669 131.426 C 203.685 132.200, 220.944 130.069, 222.581 128.844 C 223.176 128.399, 225.643 128.232, 228.065 128.473 C 236.278 129.290, 244.661 125.885, 243.282 122.292 C 242.727 120.846, 236.421 120.509, 235.574 121.880 M 170.290 134 C 169.659 136.413, 168.258 136.543, 165.900 134.410 C 163.422 132.167, 160 133.437, 160 136.599 C 160 137.954, 159.325 139.322, 158.500 139.638 C 156.687 140.334, 156.498 142.954, 158.250 143.115 C 161.036 143.372, 163.290 142.745, 169.154 140.083 C 174.207 137.789, 175.349 136.823, 175.581 134.647 C 175.820 132.409, 175.474 132, 173.338 132 C 171.654 132, 170.639 132.666, 170.290 134 M 205.510 136.984 C 205.165 137.543, 203.366 138, 201.512 138 C 195.833 138, 194.784 139.996, 195.534 149.379 C 195.891 153.846, 196.583 159.090, 197.072 161.034 C 198.263 165.771, 199.817 186.262, 199.868 197.903 C 199.920 209.580, 201.592 221.169, 204.030 226.750 C 205.653 230.463, 206.287 231, 209.050 231 L 212.212 231 211.561 221.750 C 211.203 216.662, 210.509 210.475, 210.018 208 C 209.528 205.525, 208.851 195.934, 208.514 186.686 C 208.178 177.439, 207.463 168.719, 206.928 167.309 C 204.986 162.202, 204.693 150.778, 206.381 146 C 207.255 143.525, 207.977 140.514, 207.985 139.309 C 208.002 136.857, 206.475 135.423, 205.510 136.984 M 183.312 168.729 C 179.329 169.090, 179.043 169.339, 177.468 173.804 C 176.557 176.387, 175.179 179.694, 174.406 181.154 C 173.633 182.614, 173 184.568, 173 185.497 C 173 186.425, 172.100 188.329, 171 189.727 C 169.900 191.126, 169 192.860, 169 193.581 C 169 195.395, 162.441 206.421, 159.428 209.673 C 156.787 212.522, 155.420 216.253, 156.422 217.874 C 156.758 218.417, 156.606 219.125, 156.085 219.447 C 155.564 219.769, 154.830 219.534, 154.453 218.924 C 153.363 217.160, 148.825 225.636, 149.185 228.764 C 149.451 231.079, 150.032 231.551, 152.956 231.829 C 157.093 232.222, 159 230.176, 159 225.344 C 159 223.120, 159.626 221.735, 160.953 221.025 C 162.853 220.008, 167.500 213.720, 173.397 204.185 C 176.368 199.381, 179.439 193.427, 184.838 182 C 186.527 178.425, 188.812 174.166, 189.916 172.535 C 191.881 169.631, 191.267 167.749, 188.500 168.190 C 187.950 168.278, 185.615 168.520, 183.312 168.729 M 225 184.106 C 225 188.397, 237.355 201.689, 244.116 204.671 C 246.252 205.614, 248 206.748, 248 207.192 C 248 207.637, 248.556 208, 249.236 208 C 251.080 208, 261 213.197, 261 214.164 C 261 214.624, 262.514 215, 264.365 215 C 266.216 215, 268.803 215.826, 270.115 216.836 C 271.427 217.846, 274.644 219.729, 277.265 221.021 C 280.998 222.861, 282.293 223.107, 283.243 222.157 C 285.070 220.330, 283.251 218.077, 276.250 213.500 C 256.744 200.746, 256.225 200.441, 255.414 201.252 C 255.030 201.637, 255.279 202.632, 255.969 203.463 C 257.482 205.286, 256.643 208, 254.567 208 C 252.443 208, 250.572 204.220, 251.902 202.618 C 253.329 200.899, 250.837 197.493, 246.714 195.527 C 244.946 194.684, 240.679 191.295, 237.230 187.997 C 232.436 183.412, 230.258 182, 227.980 182 C 225.617 182, 225 182.436, 225 184.106 M 43 207.500 C 42.315 208.325, 41.190 209, 40.500 209 C 37.594 209, 36.636 211.863, 38.063 216.282 C 39.790 221.634, 46.578 235.568, 49.370 239.496 C 50.542 241.144, 52.331 244.069, 53.347 245.996 C 54.363 247.923, 57.063 251.433, 59.347 253.795 C 62.899 257.468, 64.006 258.046, 67 257.795 C 70.348 257.513, 70.596 257.217, 72.700 251 C 75.267 243.416, 75.654 238, 73.630 238 C 72.746 238, 72.078 239.612, 71.748 242.541 C 71.227 247.161, 68.776 251, 66.345 251 C 65.605 251, 65 250.325, 65 249.500 C 65 248.675, 64.630 248, 64.178 248 C 63.726 248, 62.316 245.637, 61.045 242.750 C 59.774 239.863, 56.448 233.675, 53.654 229 C 48.669 220.657, 48.579 220.366, 48.829 213.250 C 49.077 206.178, 49.023 206, 46.664 206 C 45.333 206, 43.685 206.675, 43 207.500 M 82.721 209.895 C 81.775 211.497, 81 213.555, 81 214.468 C 81 216.613, 85.654 226.797, 87.458 228.601 C 88.222 229.365, 89.792 231.191, 90.947 232.660 C 92.580 234.736, 93.956 235.350, 97.123 235.415 C 101.107 235.498, 101.243 235.387, 103.172 230.500 C 104.258 227.750, 105.563 225.350, 106.073 225.167 C 107.561 224.632, 107.140 222, 105.566 222 C 104.747 222, 103.997 223.175, 103.816 224.741 C 103.481 227.652, 101.483 228.591, 97.671 227.630 C 96.239 227.269, 94.711 225.281, 93.182 221.791 C 89.080 212.429, 86.525 207.627, 85.471 207.300 C 84.905 207.124, 83.668 208.292, 82.721 209.895 M 110.028 211.466 C 108.367 213.468, 110.069 218.390, 112.583 218.853 C 113.637 219.048, 115.204 219.829, 116.064 220.590 C 117.270 221.656, 117.899 221.701, 118.814 220.786 C 119.729 219.871, 120 220.083, 120 221.711 C 120 224.042, 126.848 228, 130.881 228 C 134.242 228, 137 226.181, 137 223.965 C 137 222.010, 136.127 221.602, 132.709 221.955 C 131.724 222.056, 128.497 220.533, 125.539 218.570 C 122.581 216.606, 119.753 215, 119.255 215 C 118.756 215, 117.292 213.875, 116 212.500 C 113.315 209.642, 111.765 209.374, 110.028 211.466" stroke="none" fill="black" fill-rule="evenodd"/>
</svg>