<svg xmlns="http://www.w3.org/2000/svg" width="300" height="300" viewBox="0 0 300 300" version="1.1">
	<path d="M 111 17.943 C 110.175 18.397, 108.263 19.346, 106.750 20.053 C 104.628 21.045, 104 22.037, 104 24.403 C 104 26.089, 102.795 29.950, 101.323 32.984 C 99.850 36.018, 98.322 39.400, 97.926 40.500 C 97.531 41.600, 96.035 45.100, 94.603 48.277 C 93.172 51.455, 92 54.723, 92 55.541 C 92 57.039, 91.707 57.769, 88.669 63.831 C 87.751 65.663, 87 67.801, 87 68.581 C 87 69.361, 86.550 70, 86 70 C 85.450 70, 85 70.567, 85 71.260 C 85 71.953, 83.875 73.734, 82.500 75.217 C 81.125 76.699, 80 78.156, 80 78.454 C 80 78.752, 78.425 81.188, 76.500 83.867 C 74.575 86.547, 73 89.038, 73 89.405 C 73 90.309, 59.741 108.415, 58.772 108.833 C 58.347 109.017, 58 109.728, 58 110.414 C 58 111.099, 56.174 113.649, 53.942 116.080 C 49.419 121.007, 48 123.821, 48 127.865 C 48 134.022, 53.040 134.663, 58.874 129.250 C 61.096 127.188, 64.144 124.600, 65.647 123.500 C 67.150 122.400, 69.578 120.375, 71.043 119 C 74.426 115.827, 77.535 114, 79.554 114 C 81.382 114, 81.050 115.498, 77.365 123.874 C 76.064 126.830, 75 130.678, 75 132.424 C 75 134.171, 74.642 136.027, 74.205 136.550 C 73.768 137.072, 72.548 140.200, 71.494 143.500 C 70.439 146.800, 69.274 149.725, 68.904 150 C 68.535 150.275, 67.109 152.750, 65.736 155.500 C 60.402 166.183, 57.470 171.513, 56.750 171.833 C 56.337 172.017, 56 172.922, 56 173.844 C 56 174.767, 54.211 179.117, 52.025 183.511 C 49.839 187.905, 48.039 192.306, 48.025 193.292 C 48.011 194.277, 47.089 196.061, 45.976 197.256 C 42.947 200.507, 41.420 206.432, 42.819 209.503 C 44.754 213.750, 51.284 212.504, 55.462 207.091 C 59.202 202.247, 68.970 193, 70.348 193 C 71.103 193, 73.346 191.466, 75.334 189.592 C 80.184 185.018, 83.596 183.952, 87.365 185.832 C 88.987 186.641, 92.156 187.434, 94.407 187.593 C 99.414 187.948, 105.227 193.415, 104.314 196.909 C 103.730 199.140, 104.206 199.327, 109.697 199.029 C 111.970 198.906, 113.267 199.454, 114.187 200.928 C 115.729 203.398, 119.530 203.667, 120.412 201.369 C 121.040 199.732, 116.726 193, 115.049 193 C 114.582 193, 112.693 191.494, 110.850 189.653 C 109.008 187.812, 106.032 185.548, 104.239 184.622 C 102.445 183.695, 100.424 182.051, 99.748 180.969 C 99.072 179.886, 97.952 179, 97.259 179 C 96.567 179, 96 178.622, 96 178.161 C 96 176.590, 90.921 175, 85.905 175 C 82.950 175, 79.209 175.818, 76.764 177 C 74.487 178.100, 72.227 179, 71.741 179 C 71.255 179, 70.182 179.675, 69.357 180.500 C 67.608 182.249, 65 182.491, 65 180.904 C 65 179.558, 68.216 174, 68.995 174 C 69.306 174, 70.433 171.750, 71.500 169 C 72.567 166.250, 73.791 164, 74.220 164 C 74.649 164, 75 163.100, 75 162 C 75 160.900, 75.450 160, 76 160 C 76.550 160, 77 159.562, 77 159.027 C 77 158.492, 78.080 155.680, 79.400 152.777 C 81.464 148.237, 83.249 142.949, 87.930 127.500 C 88.430 125.850, 89.137 122.475, 89.500 120 C 90.225 115.065, 91.756 109.468, 93.123 106.764 C 94.448 104.141, 94.176 100.033, 92.571 98.429 C 90.744 96.601, 87.048 96.649, 84.559 98.532 C 82.279 100.256, 80 100.452, 80 98.923 C 80 98.331, 81.367 96.479, 83.039 94.808 C 84.710 93.136, 86.965 90.133, 88.049 88.134 C 90.411 83.781, 92.307 80.683, 93.028 80 C 93.318 79.725, 94.435 77.475, 95.510 75 C 96.585 72.525, 98.023 69.917, 98.706 69.205 C 99.388 68.493, 100.498 66.018, 101.172 63.705 C 101.846 61.392, 103.208 58.024, 104.199 56.220 C 105.190 54.415, 106 52.501, 106 51.965 C 106 51.429, 107.125 48.658, 108.500 45.808 C 109.875 42.958, 111 40.141, 111 39.549 C 111 38.958, 112.575 36.135, 114.500 33.276 C 117.002 29.560, 117.991 26.999, 117.968 24.289 C 117.918 18.340, 115.041 15.719, 111 17.943 M 220.613 20.530 C 219.671 21.472, 218.187 21.834, 216.748 21.473 C 213.409 20.635, 210.532 24.008, 211.424 27.715 C 211.793 29.247, 212.298 34.662, 212.546 39.750 C 213.015 49.357, 212.961 49.486, 208.690 49.042 C 207.695 48.939, 206.345 49.284, 205.690 49.809 C 205.036 50.333, 202.925 51.014, 201 51.320 C 190.558 52.984, 186.277 54.158, 183.692 56.069 C 181.535 57.664, 180.003 58.036, 177.511 57.568 C 173.266 56.772, 171.156 58.704, 171.762 62.833 C 172.005 64.488, 173.260 66.835, 174.551 68.048 L 176.899 70.253 183.199 67.802 C 186.665 66.453, 191.525 64.741, 194 63.997 C 196.475 63.253, 199.210 62.050, 200.079 61.322 C 200.947 60.595, 202.902 60, 204.422 60 C 206.346 60, 207.346 59.392, 207.710 58 C 208.556 54.766, 210.823 55.702, 211.947 59.750 C 212.520 61.813, 212.991 64.294, 212.994 65.264 C 212.997 66.234, 213.545 67.900, 214.212 68.967 C 215.160 70.486, 215.160 72.440, 214.212 77.972 C 213.545 81.858, 213 90.911, 213 98.090 C 213 111.128, 212.291 114, 209.071 114 C 208.482 114, 208 114.450, 208 115 C 208 115.550, 207.361 116, 206.581 116 C 205.801 116, 203.888 116.630, 202.331 117.400 C 200.774 118.170, 197.700 119.358, 195.500 120.041 C 193.300 120.723, 191.227 121.703, 190.894 122.217 C 190.561 122.731, 188.477 123.395, 186.263 123.691 C 181.870 124.281, 177 127.784, 177 130.355 C 177 132.823, 180.175 136, 182.641 136 C 184.072 136, 185.590 134.781, 187 132.500 C 189.130 129.054, 191 127.936, 191 130.109 C 191 132.231, 205.258 128.829, 208.500 125.934 C 209.600 124.952, 211.671 123.858, 213.102 123.503 C 215.366 122.941, 215.925 123.322, 217.399 126.429 C 218.489 128.726, 219.790 130, 221.047 130 C 222.720 130, 223 129.294, 223 125.068 C 223 120.636, 223.330 119.906, 226.250 117.866 C 228.037 116.617, 230.279 114.727, 231.231 113.667 C 233.040 111.651, 238.202 110.154, 246.267 109.306 C 249.582 108.957, 251.344 108.225, 252.052 106.902 C 253.285 104.599, 251.855 101.406, 249.215 100.568 C 246.972 99.856, 233.336 101.519, 231.709 102.703 C 230.111 103.866, 222.951 106.284, 222.485 105.819 C 222.285 105.618, 222.558 99.614, 223.094 92.477 C 223.630 85.340, 224.046 74.701, 224.020 68.835 C 223.982 60.179, 224.286 57.856, 225.636 56.506 C 226.551 55.592, 227.264 53.564, 227.219 52.002 C 227.174 50.399, 227.762 48.922, 228.569 48.612 C 229.374 48.303, 230 48.652, 230 49.409 C 230 50.149, 230.675 51.315, 231.500 52 C 232.325 52.685, 233 52.812, 233 52.283 C 233 51.108, 237.425 49, 239.892 49 C 240.880 49, 242.996 47.876, 244.594 46.501 C 246.193 45.127, 248.175 43.999, 249 43.995 C 249.825 43.991, 251.789 43.315, 253.364 42.494 C 254.940 41.672, 257.784 41, 259.686 41 C 263.780 41, 266 39.104, 266 35.607 C 266 29.302, 258.022 29.655, 243.486 36.603 C 240.728 37.921, 237.578 39.002, 236.486 39.004 C 235.394 39.006, 232.277 40.136, 229.560 41.514 C 226.843 42.893, 224.312 43.678, 223.936 43.260 C 223.559 42.842, 223.012 39.124, 222.721 34.999 C 222.241 28.190, 222.409 27.224, 224.548 24.543 C 226.293 22.354, 226.625 21.253, 225.829 20.294 C 224.401 18.573, 222.483 18.659, 220.613 20.530 M 217.667 26.667 C 216.516 27.817, 216.938 29, 218.500 29 C 219.325 29, 220 28.325, 220 27.500 C 220 25.938, 218.817 25.516, 217.667 26.667 M 196 59.622 C 196 60.951, 196.271 61.020, 197.500 60 C 198.325 59.315, 199 58.585, 199 58.378 C 199 58.170, 198.325 58, 197.500 58 C 196.675 58, 196 58.730, 196 59.622 M 82.667 80.667 C 81.595 81.738, 81.900 85, 83.071 85 C 83.661 85, 84.786 84.357, 85.571 83.571 C 86.357 82.786, 87 81.661, 87 81.071 C 87 79.900, 83.738 79.595, 82.667 80.667 M 78.500 91 C 78.160 91.550, 78.359 92, 78.941 92 C 79.523 92, 80 91.550, 80 91 C 80 90.450, 79.802 90, 79.559 90 C 79.316 90, 78.840 90.450, 78.500 91 M 230.500 110 C 230.840 110.550, 231.793 111, 232.618 111 C 233.443 111, 233.840 110.550, 233.500 110 C 233.160 109.450, 232.207 109, 231.382 109 C 230.557 109, 230.160 109.450, 230.500 110 M 216.750 116.112 C 214.278 117.507, 214.482 119.948, 217.016 119.286 C 218.124 118.996, 219.300 118.324, 219.628 117.792 C 220.610 116.204, 218.633 115.050, 216.750 116.112 M 81.851 120.250 C 80.103 123.476, 79.775 131, 81.382 131 C 82.526 131, 85 123.082, 85 119.424 C 85 117.257, 83.220 117.724, 81.851 120.250 M 60.813 120.683 C 61.534 120.972, 62.397 120.936, 62.729 120.604 C 63.061 120.272, 62.471 120.036, 61.417 120.079 C 60.252 120.127, 60.015 120.364, 60.813 120.683 M 176.051 163.928 C 174.297 165.275, 172.634 165.653, 170.199 165.258 L 166.798 164.706 167.331 170.103 C 168.290 179.818, 169.768 188.014, 170.786 189.269 C 171.336 189.946, 172.009 192.525, 172.282 195 C 172.556 197.475, 173.326 201.300, 173.993 203.500 C 174.661 205.700, 175.750 211.325, 176.413 216 C 177.077 220.675, 177.902 225.175, 178.247 226 C 178.591 226.825, 179.089 229.300, 179.353 231.500 C 180.268 239.133, 182.521 245.874, 185.503 249.903 C 188.856 254.434, 191.695 255.099, 194.492 252.009 C 196.238 250.080, 196.215 249.957, 193.753 248.020 C 192.094 246.715, 191.046 244.716, 190.735 242.261 C 190.472 240.192, 189.299 235.351, 188.128 231.503 C 186.958 227.655, 186 222.255, 185.999 219.503 C 185.999 216.751, 185.089 212.106, 183.977 209.180 C 182.865 206.253, 181.674 201.177, 181.332 197.899 C 180.989 194.620, 180.324 191.700, 179.854 191.410 C 178.600 190.635, 178.797 171.603, 180.073 170.327 C 181.363 169.037, 180.914 162.779, 179.500 162.351 C 178.950 162.184, 177.398 162.894, 176.051 163.928 M 220.500 167.066 C 218.850 167.476, 215.025 168.554, 212 169.460 C 208.975 170.367, 205.419 171.375, 204.097 171.700 C 202.776 172.025, 199.176 173.722, 196.097 175.470 C 191.091 178.312, 190.524 178.965, 190.730 181.651 C 190.920 184.129, 190.593 184.641, 188.861 184.577 C 186.014 184.472, 184.346 187.219, 185.579 189.982 C 186.532 192.117, 186.557 192.119, 188.770 190.200 C 189.996 189.136, 191 187.756, 191 187.133 C 191 185.713, 192.273 185.673, 193.648 187.048 C 194.624 188.024, 199.548 186.631, 201 184.968 C 202.154 183.647, 209.098 180.959, 214.110 179.892 C 217.075 179.261, 219.796 178.280, 220.158 177.712 C 220.952 176.467, 233.621 176.727, 236.073 178.039 C 237.020 178.546, 240.401 179.070, 243.587 179.203 C 248.650 179.415, 249.795 179.862, 252.689 182.756 C 254.510 184.577, 256 186.469, 256 186.961 C 256 190.448, 253.673 203.681, 252.925 204.450 C 252.416 204.972, 251.993 206.548, 251.985 207.950 C 251.962 211.962, 248.799 220.986, 245.307 227 C 242.026 232.652, 236.825 239, 235.476 239 C 235.058 239, 231.866 240.800, 228.383 243 C 224.899 245.200, 221.588 247, 221.025 247 C 220.461 247, 220 247.398, 220 247.883 C 220 248.369, 219.213 249.031, 218.250 249.354 C 217.287 249.678, 215.825 250.364, 215 250.880 C 214.175 251.396, 210.800 253.096, 207.500 254.659 C 204.200 256.222, 201.275 257.725, 201 258 C 199.586 259.414, 195.763 261, 193.769 261 C 192.527 261, 188.696 262.909, 185.256 265.242 C 180.055 268.769, 179 269.961, 179 272.313 C 179 275.797, 181.110 278.177, 183.088 276.925 C 183.865 276.433, 185.963 276.024, 187.750 276.015 C 189.537 276.007, 191 275.550, 191 275 C 191 274.450, 192.093 274, 193.429 274 C 194.764 274, 196.452 273.430, 197.179 272.732 C 197.905 272.035, 200.525 270.588, 203 269.517 C 208.532 267.123, 218 261.027, 218 259.858 C 218 259.386, 218.691 259, 219.535 259 C 220.931 259, 225.782 256.379, 227 254.966 C 227.275 254.647, 228.918 253.813, 230.651 253.113 C 232.384 252.412, 234.825 250.750, 236.076 249.420 C 237.326 248.089, 238.864 247, 239.494 247 C 240.124 247, 242.521 245.390, 244.820 243.422 C 247.957 240.737, 249 239.115, 249 236.922 C 249 235.169, 249.528 234, 250.320 234 C 252.285 234, 255.829 229.500, 257.630 224.719 C 258.504 222.398, 259.777 219.150, 260.458 217.500 C 261.140 215.850, 262.259 211.800, 262.944 208.500 C 263.630 205.200, 264.598 201.466, 265.095 200.203 C 266.308 197.124, 266.247 190.271, 265 189.500 C 264.450 189.160, 264 187.126, 264 184.980 C 264 180.861, 261.122 177, 258.051 177 C 257.187 177, 255.339 175.942, 253.945 174.650 C 252.551 173.357, 249.789 171.995, 247.807 171.624 C 245.825 171.252, 243.145 170.125, 241.851 169.120 C 239.214 167.070, 225.704 165.770, 220.500 167.066 M 108.764 226.868 C 107.259 227.216, 103.830 229.637, 101.144 232.250 C 98.457 234.863, 95.820 237, 95.283 237 C 94.746 237, 93.225 236.049, 91.903 234.887 C 85.019 228.832, 83.185 227.831, 81.064 228.966 C 79.021 230.059, 78.340 233.511, 79.765 235.553 C 80.169 236.132, 82.300 237.932, 84.500 239.553 C 86.700 241.174, 89.127 243.095, 89.894 243.822 C 92.053 245.871, 102.533 242.387, 103.743 239.218 C 104.104 238.273, 105.143 236.699, 106.053 235.719 C 107.941 233.686, 111.523 234.523, 114.753 237.753 C 117.039 240.039, 121.269 241.617, 134.134 244.983 C 139.498 246.386, 143 245.194, 143 241.965 C 143 240.022, 142.130 239.605, 138.775 239.944 C 136.634 240.159, 130 237.092, 130 235.886 C 130 235.399, 129.100 235, 128 235 C 126.900 235, 124.991 233.988, 123.757 232.750 C 121.409 230.394, 113.666 225.915, 112.296 226.118 C 111.858 226.183, 110.269 226.521, 108.764 226.868 M 36 231.378 C 36 233.914, 33.386 235.258, 31.160 233.868 C 26.962 231.246, 24.491 236.736, 27.500 242 C 28.286 243.375, 28.945 247.113, 28.965 250.308 C 28.997 255.639, 31.161 261.476, 34.967 266.500 C 35.383 267.050, 36.045 268.850, 36.436 270.500 C 37.875 276.563, 44.003 280.111, 46.935 276.578 C 47.846 275.481, 47.819 274.683, 46.817 273.078 C 46.103 271.935, 45.177 271, 44.759 271 C 44.342 271, 44 269.705, 44 268.122 C 44 266.540, 43.325 264.685, 42.500 264 C 41.475 263.149, 41 260.875, 41 256.812 C 41 253.543, 40.514 249.961, 39.921 248.852 C 38.334 245.886, 38.204 234.773, 39.750 234.253 C 40.438 234.022, 41 232.971, 41 231.917 C 41 230.539, 40.297 230, 38.500 230 C 37.043 230, 36 230.575, 36 231.378 M 33.500 252 C 33.840 252.550, 34.316 253, 34.559 253 C 34.802 253, 35 252.550, 35 252 C 35 251.450, 34.523 251, 33.941 251 C 33.359 251, 33.160 251.450, 33.500 252 M 58 264.843 C 58 265.306, 56.425 266.533, 54.500 267.570 C 50.178 269.898, 49.494 274, 53.429 274 C 54.764 274, 56.532 273.325, 57.357 272.500 C 58.182 271.675, 59.291 271, 59.822 271 C 61.205 271, 62.147 268.038, 61.455 265.859 C 60.876 264.035, 58 263.189, 58 264.843" stroke="none" fill="black" fill-rule="evenodd"/>
</svg>