<svg xmlns="http://www.w3.org/2000/svg" width="300" height="300" viewBox="0 0 300 300" version="1.1">
	<path d="M 185.141 13.878 C 184.181 14.496, 183.969 15.889, 184.419 18.626 C 184.950 21.860, 184.636 22.995, 182.518 25.500 C 179.799 28.716, 179.155 29.538, 172.701 38.021 C 170.390 41.057, 167.600 44.472, 166.500 45.609 C 165.400 46.745, 161.153 51.349, 157.062 55.838 C 152.970 60.327, 149.191 64, 148.663 64 C 148.134 64, 146.276 65.463, 144.533 67.250 C 142.789 69.037, 140.269 71.088, 138.932 71.806 C 134.392 74.244, 132.823 75.845, 133.180 77.674 C 133.394 78.772, 134.417 79.511, 135.748 79.529 C 138.166 79.560, 143 85.254, 143 88.072 C 143 88.998, 143.675 90.315, 144.500 91 C 145.325 91.685, 146 92.827, 146 93.539 C 146 94.251, 146.563 95.023, 147.250 95.254 C 148.220 95.580, 148.187 96.054, 147.103 97.367 C 145.940 98.775, 145.924 99.516, 147.006 101.780 C 147.720 103.276, 148.456 108.100, 148.639 112.500 C 149.562 134.586, 150.032 141.013, 150.733 141.138 C 152.538 141.461, 153.974 135.935, 154.017 128.500 C 154.071 119.247, 155.506 116.130, 158.881 117.936 C 160.972 119.055, 168.960 117.301, 178.500 113.628 C 180.700 112.781, 183.557 112.068, 184.849 112.044 C 187.079 112.002, 192.133 110.132, 196.500 107.733 C 199.653 106.001, 206.889 105.160, 207.913 106.407 C 209.435 108.263, 209.661 119.601, 208.203 120.959 C 207.195 121.897, 206.584 121.900, 205.464 120.970 C 204.545 120.208, 202.657 120.019, 200.261 120.451 C 196.161 121.190, 188.349 124.626, 187.447 126.087 C 187.136 126.589, 186.076 127, 185.091 127 C 184.106 127, 181.502 128.303, 179.304 129.895 C 173.561 134.055, 169.320 136.227, 162.500 138.500 C 157.925 140.025, 156.428 141.007, 156.196 142.633 C 155.805 145.375, 160.844 147.304, 165.932 146.360 C 170.984 145.423, 178.156 142.210, 180.276 139.934 C 183.003 137.007, 183.819 137.550, 184.499 142.750 C 184.841 145.362, 185.544 148.534, 186.060 149.797 C 186.577 151.060, 187.011 155.785, 187.024 160.297 C 187.037 164.809, 187.550 170.300, 188.163 172.500 C 189.392 176.906, 189.498 181.633, 188.491 187.036 C 187.911 190.145, 188.143 190.739, 190.416 191.955 C 192.179 192.899, 192.995 194.158, 192.985 195.919 C 192.972 198.001, 192.769 198.210, 191.932 197 C 191.209 195.955, 191.040 204.068, 191.376 223.750 C 191.810 249.182, 191.698 252, 190.258 252 C 189.378 252, 187.836 251.257, 186.833 250.349 C 185.150 248.825, 174.472 244.015, 172.750 244.005 C 172.338 244.002, 172 245.800, 172 248 C 172 252.554, 174.205 255.352, 179.556 257.588 C 183.496 259.234, 188.610 259.441, 189.507 257.989 C 189.902 257.350, 190.923 257.533, 192.288 258.489 C 194.905 260.322, 197.964 260.460, 198.097 258.750 C 198.429 254.455, 197.841 193.507, 197.464 193.130 C 196.543 192.209, 197.029 191, 198.320 191 C 199.045 191, 200.618 192.125, 201.813 193.500 C 203.248 195.150, 205.029 196, 207.052 196 C 208.842 196, 209.861 195.584, 209.500 195 C 208.415 193.244, 211.638 193.928, 214.294 196.017 C 215.705 197.126, 218.803 198.433, 221.179 198.921 C 223.556 199.409, 226.956 200.398, 228.736 201.118 C 231.160 202.099, 232.258 202.142, 233.113 201.287 C 234.663 199.737, 233.361 195, 231.385 195 C 230.518 195, 228.614 194.161, 227.154 193.136 C 225.694 192.111, 219.817 190.337, 214.094 189.193 C 208.371 188.050, 203.354 186.573, 202.946 185.912 C 202.228 184.751, 203.762 183.459, 216 174.907 C 218.475 173.178, 220.860 171.141, 221.300 170.382 C 221.740 169.622, 222.640 168.990, 223.300 168.978 C 223.960 168.966, 225.625 168.076, 227 167 C 228.375 165.924, 230.081 165.034, 230.792 165.022 C 232.942 164.985, 236.205 161.304, 235.827 159.341 C 235.351 156.866, 231.636 156.937, 231.156 159.429 C 230.283 163.964, 226 164.784, 226 160.417 C 226 159.088, 225.614 158, 225.143 158 C 223.489 158, 200.616 175.832, 198.317 178.914 C 195.798 182.292, 194.689 178.461, 194.227 164.788 C 193.980 157.480, 193.378 151.072, 192.889 150.550 C 191.340 148.895, 191.823 137.391, 193.500 136 C 194.325 135.315, 195 133.965, 195 133 C 195 130.459, 197.336 128.899, 202.093 128.261 C 205.018 127.868, 206.410 127.148, 206.749 125.851 C 207.073 124.612, 208.149 124, 210 124 C 213.129 124, 213.610 122.997, 215.028 113.500 C 215.521 110.200, 216.373 104.466, 216.922 100.759 C 217.471 97.051, 218.450 93.028, 219.097 91.820 C 219.743 90.611, 220.486 85.770, 220.748 81.061 C 221.172 73.421, 220.994 72.212, 219.094 69.820 C 216.975 67.153, 216.917 67.143, 206.329 67.621 C 200.479 67.886, 194.299 68.683, 192.596 69.394 C 190.893 70.105, 187.700 71.022, 185.500 71.433 C 181.601 72.161, 171.512 75.281, 167.500 77 C 166.400 77.471, 163.700 78.152, 161.500 78.513 C 156.681 79.304, 154 81.493, 154 84.636 C 154 86.221, 154.717 87.134, 156.250 87.504 C 158.893 88.140, 170.214 85.886, 175.096 83.752 C 176.968 82.933, 181.200 81.490, 184.500 80.546 C 187.800 79.601, 191.850 78.363, 193.500 77.795 C 195.150 77.227, 199.852 76.359, 203.949 75.866 C 214.143 74.639, 214.396 74.950, 212.659 86.630 C 211.098 97.134, 210.704 98, 207.490 98 C 205.354 98, 202.068 98.780, 190 102.151 C 188.075 102.689, 184.558 103.542, 182.185 104.046 C 179.812 104.551, 175.817 105.872, 173.308 106.982 C 170.799 108.092, 168.197 109, 167.527 109 C 166.856 109, 165.001 109.632, 163.404 110.403 C 161.807 111.175, 159.093 112.099, 157.373 112.456 L 154.246 113.105 153.548 103.302 C 152.728 91.785, 151.378 86.106, 148.937 83.909 C 147.965 83.033, 146.871 80.320, 146.505 77.879 C 145.846 73.488, 145.894 73.394, 151.040 68.971 C 160.293 61.016, 166.282 54.712, 182.289 36.076 C 184.923 33.009, 187.974 29.572, 189.068 28.438 C 190.162 27.304, 191.534 24.651, 192.116 22.543 C 193.021 19.266, 192.892 18.332, 191.231 16.105 C 189.089 13.233, 187.210 12.546, 185.141 13.878 M 101.321 59.189 C 97.826 60.879, 96.553 65.169, 97.929 70.630 C 98.986 74.830, 98.904 75.473, 97.068 77.427 C 95.953 78.615, 94.512 81.142, 93.867 83.043 C 93.222 84.944, 91.916 87.625, 90.964 89 C 89.383 91.285, 86.368 96.404, 83.593 101.513 C 82.992 102.621, 79.912 107.189, 76.750 111.666 C 73.588 116.142, 71 120.066, 71 120.386 C 71 120.706, 69.709 123.632, 68.132 126.889 C 64.816 133.734, 65.275 135.595, 70.042 134.642 C 71.826 134.285, 73.784 134.387, 74.393 134.868 C 75.482 135.729, 85.604 134.895, 89.650 133.611 C 92.926 132.571, 94.371 135.222, 93.684 141.017 C 92.913 147.531, 89.789 154.165, 82.250 165.300 C 80.463 167.940, 79 170.262, 79 170.461 C 79 172.791, 63.592 195.898, 60.950 197.531 C 60.427 197.854, 60 199.441, 60 201.059 C 60 203.254, 60.469 204, 61.851 204 C 65.792 204, 70.525 201.499, 74.923 197.093 C 77.445 194.567, 80.856 191.460, 82.504 190.189 C 84.152 188.918, 87.750 185.739, 90.500 183.124 C 95.773 178.110, 102.250 173, 103.332 173 C 103.686 173, 106.072 177.281, 108.635 182.513 C 113.209 191.851, 116.876 197, 118.952 197 C 120.621 197, 120.105 191.858, 118 187.500 C 116.937 185.300, 116.050 182.825, 116.028 182 C 116.006 181.175, 115.390 179.355, 114.660 177.956 C 113.930 176.557, 113.044 173.971, 112.692 172.210 C 112.340 170.449, 111.299 167.860, 110.380 166.457 C 108.979 164.318, 108.205 164.010, 105.604 164.550 C 103.897 164.904, 101.012 166.050, 99.193 167.097 C 97.374 168.144, 95.325 169, 94.639 169 C 93.953 169, 91.842 170.614, 89.946 172.587 C 88.051 174.560, 85.266 177.063, 83.757 178.150 C 80.240 180.684, 78.112 179.602, 80.796 176.645 C 83.936 173.185, 89.684 164.571, 90.439 162.194 C 90.821 160.987, 91.493 160, 91.931 160 C 92.369 160, 93.939 157.188, 95.420 153.750 C 96.902 150.313, 98.763 146.306, 99.557 144.846 C 100.420 143.258, 101 139.407, 101 135.265 C 101 128.795, 100.825 128.244, 98.350 126.919 C 95.248 125.258, 87.521 125.223, 80.639 126.840 C 77.966 127.467, 75.376 127.733, 74.885 127.429 C 74.394 127.125, 75.067 125.442, 76.380 123.689 C 77.693 121.935, 79.075 119.487, 79.451 118.250 C 79.827 117.013, 80.554 116, 81.067 116 C 81.580 116, 82 115.325, 82 114.500 C 82 113.675, 82.417 113, 82.927 113 C 83.436 113, 84.488 111.763, 85.263 110.250 C 86.039 108.737, 87.720 105.700, 89 103.500 C 90.280 101.300, 92.015 98.155, 92.856 96.510 C 93.697 94.866, 95.424 91.991, 96.693 90.121 C 97.962 88.251, 99 86.100, 99 85.341 C 99 84.581, 100.204 82.057, 101.676 79.730 C 103.148 77.404, 104.703 73.925, 105.131 72 C 105.560 70.075, 106.214 67.230, 106.586 65.678 C 106.988 63.998, 106.735 61.873, 105.961 60.428 C 104.517 57.729, 104.403 57.699, 101.321 59.189 M 97.079 83.583 C 97.127 84.748, 97.364 84.985, 97.683 84.188 C 97.972 83.466, 97.936 82.603, 97.604 82.271 C 97.272 81.939, 97.036 82.529, 97.079 83.583 M 221 166.059 C 221 166.641, 221.450 166.840, 222 166.500 C 222.550 166.160, 223 165.684, 223 165.441 C 223 165.198, 222.550 165, 222 165 C 221.450 165, 221 165.477, 221 166.059 M 162.500 177.645 C 153.683 178.662, 148.892 180.235, 147.323 182.629 C 146.088 184.514, 145.980 185.380, 146.870 186.270 C 148.298 187.698, 161.259 187.467, 164.069 185.963 C 165.607 185.140, 166.164 185.263, 166.651 186.534 C 167.068 187.619, 165.774 189.697, 162.733 192.827 C 157.610 198.100, 150 208.699, 150 210.561 C 150 211.237, 147.504 215.269, 144.453 219.522 C 141.401 223.774, 137.779 229.334, 136.402 231.877 C 135.025 234.420, 132.828 238.275, 131.519 240.445 C 129.707 243.448, 129.377 244.835, 130.137 246.255 C 132.288 250.275, 135.111 247.898, 140.991 237.113 C 144.106 231.400, 147.407 226.175, 148.327 225.503 C 149.247 224.830, 150 224.051, 150 223.772 C 150 223.493, 152.025 220.245, 154.500 216.554 C 156.975 212.863, 159 209.244, 159 208.511 C 159 207.778, 160.238 206.125, 161.750 204.839 C 163.262 203.553, 166.294 200.250, 168.487 197.500 C 170.681 194.750, 173.459 191.540, 174.662 190.368 C 177.767 187.341, 179.698 180.546, 178.026 178.532 C 176.794 177.047, 170.706 176.700, 162.500 177.645 M 204 193.500 C 204 194.530, 204.655 195.020, 205.750 194.810 C 207.858 194.404, 207.725 192.629, 205.553 192.177 C 204.647 191.988, 204 192.539, 204 193.500 M 110.529 211.614 C 108.371 213.772, 108.599 218.269, 110.941 219.731 C 112.009 220.398, 114.048 222.933, 115.473 225.364 C 118.191 230.002, 122.149 232.399, 126.155 231.832 C 127.901 231.585, 128.500 230.862, 128.500 229 C 128.500 226.925, 128.075 226.548, 126 226.780 C 123.500 227.060, 121.194 224.111, 116 213.990 C 114.132 210.349, 112.502 209.641, 110.529 211.614 M 192.252 220.500 C 192.263 222.700, 192.468 223.482, 192.707 222.238 C 192.946 220.994, 192.937 219.194, 192.687 218.238 C 192.437 217.282, 192.241 218.300, 192.252 220.500 M 77.831 220.473 C 76.783 222.773, 77.185 223.399, 83.602 229.440 C 91.788 237.147, 94.984 238.784, 98.616 237.129 C 101.723 235.714, 101.461 232.550, 98.224 232.386 C 96.831 232.315, 93.372 229.558, 89.130 225.136 C 85.366 221.211, 81.537 218, 80.621 218 C 79.706 218, 78.450 219.113, 77.831 220.473 M 45 230.025 C 45 231.233, 44.047 232.412, 42.636 232.948 C 40.465 233.774, 39 235.833, 39 238.059 C 39 238.551, 40.163 239.716, 41.585 240.648 C 43.651 242.001, 44.332 242.081, 44.974 241.043 C 46.031 239.331, 48.301 240.773, 47.566 242.689 C 46.967 244.250, 50.561 247.908, 52.750 247.967 C 53.438 247.985, 54 248.444, 54 248.987 C 54 250.242, 60.529 253, 63.500 253 C 66.232 253, 68.295 250.749, 67.808 248.298 C 67.576 247.129, 66.720 246.601, 65.363 246.790 C 63.344 247.070, 50.352 239.150, 48.783 236.683 C 48.369 236.032, 48.024 233.813, 48.015 231.750 C 48.004 229.090, 47.564 228, 46.500 228 C 45.661 228, 45 228.892, 45 230.025" stroke="none" fill="black" fill-rule="evenodd"/>
</svg>