<svg xmlns="http://www.w3.org/2000/svg" width="300" height="300" viewBox="0 0 300 300" version="1.1">
	<path d="M 211.093 33.162 C 210.487 34.901, 210.202 36.536, 210.460 36.794 C 210.718 37.052, 210.479 38.104, 209.929 39.132 C 209.379 40.160, 208.513 46.824, 208.004 53.941 C 206.817 70.551, 204.660 77.407, 197.228 88.180 C 195.453 90.754, 194 93.304, 194 93.847 C 194 94.389, 193.662 94.983, 193.250 95.167 C 190.826 96.244, 187.917 102.394, 187.999 106.270 C 188.048 108.597, 187.802 111.674, 187.454 113.110 C 186.849 115.602, 187.038 115.744, 191.656 116.265 C 196.719 116.835, 207.078 115.615, 210.500 114.044 C 211.600 113.539, 217 112.629, 222.500 112.021 C 232.290 110.939, 232.538 110.963, 234.316 113.150 C 235.439 114.531, 235.897 116.171, 235.515 117.443 C 235.175 118.574, 234.678 130.897, 234.409 144.828 C 233.982 166.981, 233.688 170.589, 232.068 173.612 C 230.258 176.988, 230.260 177.163, 232.142 181.058 C 233.847 184.588, 233.942 185.762, 232.962 191.273 C 232.354 194.698, 231.400 198.850, 230.843 200.500 C 230.286 202.150, 229.714 204.625, 229.572 206 C 229.185 209.735, 229.083 210, 228.035 210 C 225.845 210, 217.456 203.764, 215.588 200.747 C 213.116 196.756, 211.961 195.902, 209.899 196.543 C 208.546 196.963, 208.203 195.686, 207.677 188.270 C 207.335 183.446, 206.388 177.700, 205.572 175.500 C 203.686 170.417, 203.616 164.259, 205.404 160.832 C 206.170 159.364, 207.107 156.328, 207.486 154.084 C 208.051 150.736, 207.864 149.885, 206.443 149.340 C 204.260 148.502, 202 151.400, 202 155.036 C 202 156.496, 201.100 158.505, 200 159.500 C 197.563 161.706, 197.435 165.801, 199.558 173.701 C 201.589 181.258, 201.535 193.508, 199.438 200.746 C 197.349 207.958, 192.235 222.454, 190.267 226.742 C 187.739 232.251, 191.509 236.529, 194.814 231.902 C 196.770 229.163, 202.854 213.132, 203.885 208 C 204.474 205.065, 204.971 204.543, 206.963 204.768 C 208.270 204.916, 211.175 206.522, 213.419 208.339 C 217.751 211.844, 223.932 215.001, 230.500 217.064 C 232.700 217.754, 239.450 220.724, 245.500 223.663 C 253.836 227.712, 257.593 229.006, 261.015 229.003 C 263.625 229.001, 267.104 229.844, 269.261 231 C 274.815 233.977, 276 233.660, 276 229.201 C 276 225.816, 275.646 225.277, 272.750 224.259 C 270.962 223.631, 266.350 222.810, 262.500 222.435 C 254.970 221.702, 251.579 220.745, 250.538 219.062 C 250.177 218.478, 248.628 218, 247.096 218 C 245.564 218, 243.533 217.141, 242.583 216.091 C 241.633 215.042, 239.538 213.637, 237.928 212.970 C 234.513 211.556, 234.437 211.248, 236.709 208.005 C 237.814 206.428, 238.484 203.336, 238.603 199.263 C 238.704 195.797, 239.337 192.299, 240.009 191.490 C 240.813 190.520, 241.003 188.509, 240.566 185.592 C 239.806 180.526, 239.442 180.776, 250.264 178.938 C 253.983 178.307, 258.155 178.073, 259.534 178.419 C 263.825 179.496, 267.743 176.100, 266.362 172.500 C 265.791 171.012, 260.936 170.398, 259.679 171.655 C 259.319 172.015, 255.220 172.485, 250.571 172.700 C 240.232 173.177, 240.320 173.296, 240.808 159.500 C 241.002 154, 241.139 145.225, 241.113 140 C 241.087 134.775, 241.585 127.350, 242.220 123.500 C 242.855 119.650, 243.257 115.877, 243.113 115.116 C 242.968 114.354, 243.118 112.667, 243.444 111.366 C 243.975 109.253, 244.601 109, 249.297 109 C 252.286 109, 255.454 108.371, 256.637 107.542 C 259.148 105.783, 271.536 103.667, 274.688 104.458 C 275.928 104.769, 277.343 105.806, 277.833 106.762 C 279.335 109.691, 277.409 131.886, 275.078 138.517 C 271.580 148.470, 272.672 151.964, 279.750 153.468 C 282.552 154.064, 283 153.887, 283 152.186 C 283 151.102, 282.325 149.955, 281.500 149.638 C 280.675 149.322, 280 147.909, 280 146.499 C 280 145.089, 280.675 142.320, 281.500 140.346 C 282.325 138.371, 283 135.326, 283 133.578 C 283 131.830, 283.528 129.872, 284.174 129.226 C 285.611 127.789, 285.490 104.419, 284.026 100.568 C 283.179 98.340, 282.459 98, 278.584 98 C 276.128 98, 273.840 97.550, 273.500 97 C 272.735 95.763, 267.319 95.674, 266.570 96.887 C 266.269 97.374, 264.330 98.081, 262.261 98.458 C 260.192 98.834, 256.475 99.758, 254 100.510 C 246.646 102.747, 237.160 104.301, 226 105.098 C 220.225 105.510, 211 106.540, 205.500 107.388 C 200 108.235, 195.162 108.944, 194.750 108.964 C 192.997 109.048, 194.221 105.961, 196.968 103.368 C 198.601 101.827, 200.206 99.340, 200.535 97.841 C 200.864 96.342, 202.463 93.280, 204.089 91.036 C 207.435 86.417, 210.257 79.239, 212.105 70.649 C 212.797 67.431, 213.969 64.565, 214.708 64.282 C 215.448 63.998, 217.145 64.943, 218.479 66.383 C 221.102 69.213, 223.870 69.730, 225.842 67.758 C 226.524 67.076, 228.752 66.050, 230.792 65.480 C 233.460 64.735, 234.590 63.820, 234.820 62.220 C 235.144 59.963, 238.651 57.318, 239.798 58.464 C 240.142 58.809, 239.931 59.880, 239.329 60.845 C 238.358 62.399, 238.590 62.553, 241.367 62.195 C 243.090 61.974, 247.641 61.502, 251.481 61.146 C 257.958 60.547, 258.531 60.301, 259.429 57.734 C 260.188 55.565, 260.036 54.608, 258.725 53.296 C 257.161 51.733, 256.414 51.739, 247.276 53.389 C 241.899 54.359, 235.803 55.794, 233.730 56.577 C 229.124 58.315, 217.859 58.459, 216.200 56.800 C 214.257 54.857, 214.740 45.477, 217 41.261 C 219.564 36.477, 219.591 32.386, 217.066 31.035 C 213.818 29.297, 212.246 29.857, 211.093 33.162 M 71.923 60.077 C 70.659 61.341, 70.094 62.803, 70.481 63.810 C 71.377 66.145, 67.073 80.716, 64.074 85.500 C 62.695 87.700, 60.652 91.105, 59.533 93.068 C 53.935 102.891, 39.895 119.325, 33.691 123.316 C 31.431 124.770, 30.943 125.738, 31.191 128.272 C 31.552 131.955, 34.698 133.261, 39.395 131.679 C 41.403 131.002, 43.395 131.074, 45.895 131.913 C 56.192 135.367, 63 139.147, 63 141.408 C 63 142.108, 60.369 145.340, 57.153 148.590 C 51.578 154.226, 41 168.824, 41 170.883 C 41 171.419, 40.438 172.478, 39.750 173.237 C 39.063 173.996, 36.799 177.862, 34.720 181.830 C 31.007 188.915, 30.971 189.087, 32.720 191.513 C 34.436 193.895, 34.805 193.963, 43 193.419 C 52.501 192.788, 65.297 190.564, 71.785 188.418 C 74.142 187.638, 78.214 187, 80.835 187 C 83.456 187, 86.028 186.588, 86.550 186.085 C 87.073 185.581, 88.590 185.019, 89.922 184.835 C 93.502 184.340, 93.552 182.337, 90.030 180.516 C 87.366 179.138, 85.789 179.070, 78.758 180.033 C 74.262 180.649, 69.753 181.597, 68.737 182.141 C 67.061 183.038, 59.911 184.435, 51.142 185.578 C 49.295 185.818, 47.363 186.276, 46.848 186.594 C 45.498 187.428, 43 185.066, 43 182.954 C 43 181.964, 44.048 179.881, 45.330 178.327 C 46.611 176.772, 47.979 174.825, 48.369 174 C 51.163 168.092, 56.821 160.480, 62.400 155.122 C 65.480 152.164, 68 149.285, 68 148.725 C 68 148.165, 69.575 145.784, 71.500 143.435 C 73.425 141.085, 75 138.907, 75 138.593 C 75 138.279, 77.039 135.341, 79.532 132.063 C 84.295 125.801, 92 111.352, 92 108.683 C 92 107.822, 92.403 106.869, 92.896 106.564 C 94.102 105.819, 98 98.262, 98 96.669 C 98 95.971, 97.483 94.883, 96.851 94.251 C 95.057 92.457, 90.152 95.452, 89.455 98.768 C 89.139 100.271, 88.453 102.175, 87.931 103 C 87.409 103.825, 85.472 107.684, 83.628 111.575 C 80.713 117.722, 73.900 128.766, 69.639 134.250 C 67.758 136.672, 65.762 136.440, 62.976 133.475 C 60.253 130.576, 53.469 126.585, 49.623 125.620 C 45.772 124.654, 46.350 122.517, 52.500 115 C 55.525 111.303, 58 107.765, 58 107.139 C 58 106.512, 58.435 106, 58.968 106 C 60.068 106, 67.503 95.143, 68.453 92.149 C 68.796 91.066, 69.735 89.635, 70.539 88.968 C 71.342 88.301, 72 86.712, 72 85.437 C 72 84.161, 72.399 82.871, 72.887 82.570 C 73.374 82.269, 74.070 80.442, 74.432 78.511 C 74.794 76.580, 75.466 75, 75.924 75 C 78.238 75, 79.174 67.970, 78.088 58.750 C 77.907 57.215, 73.929 58.071, 71.923 60.077 M 114.273 61.731 C 113.042 64.938, 115.418 68.458, 119.852 69.998 C 123.906 71.405, 124.249 71.379, 125.575 69.566 C 126.954 67.681, 127.048 67.693, 129.739 70.069 C 131.254 71.406, 132.649 72.850, 132.839 73.277 C 133.504 74.771, 140.945 78, 143.725 78 C 145.268 78, 148.209 78.900, 150.261 80 C 154.645 82.349, 156 82.501, 156 80.640 C 156 77.788, 149.291 72.735, 142.642 70.581 C 138.972 69.392, 135.190 67.755, 134.235 66.943 C 127.698 61.380, 125.412 60.294, 120.175 60.262 C 116.337 60.238, 114.688 60.649, 114.273 61.731 M 167.636 90.506 C 165.856 91.434, 162 92, 157.451 92 C 153.424 92, 148.863 92.503, 147.315 93.118 C 145.767 93.733, 137.587 94.368, 129.139 94.530 C 112.333 94.851, 110.097 95.541, 113.816 99.261 C 115.733 101.180, 117.338 101.550, 125.027 101.849 C 129.962 102.042, 134 102.532, 134 102.940 C 134 103.347, 133.100 107.199, 132 111.500 C 130.900 115.801, 130 121.257, 130 123.625 C 130 125.993, 129.359 129.858, 128.576 132.215 C 127.792 134.572, 126.848 139.200, 126.478 142.500 C 126.108 145.800, 125.214 150.750, 124.490 153.500 C 123.767 156.250, 123.194 159.175, 123.217 160 C 123.520 170.783, 120.240 201.483, 118.016 208.683 C 116.907 212.273, 116 216.008, 116 216.983 C 116 217.958, 115.375 219.274, 114.611 219.908 C 112.401 221.742, 112.070 225.864, 113.946 228.182 C 115.395 229.971, 115.955 230.094, 117.902 229.053 C 120.423 227.703, 123 222.403, 123 218.566 C 123 217.192, 123.644 214.590, 124.432 212.784 C 126.083 208.996, 128.612 188.758, 129.539 171.916 C 129.890 165.545, 130.544 159.738, 130.993 159.012 C 131.442 158.285, 134.439 157.309, 137.654 156.842 C 151.677 154.806, 167.465 153.132, 167.961 153.628 C 170.269 155.937, 166.684 215.221, 164.054 218.248 C 163.697 218.659, 160.801 218.318, 157.620 217.489 C 151.072 215.784, 150 216.083, 150 219.615 C 150 222.258, 153.730 226.316, 160.159 230.668 C 162.171 232.030, 164.363 234.462, 165.030 236.072 C 166.695 240.091, 170 240.091, 170 236.071 C 170 234.461, 170.730 232.413, 171.623 231.520 C 172.859 230.284, 173.066 229.017, 172.493 226.199 C 171.476 221.197, 171.561 218.240, 172.858 213.500 C 173.460 211.300, 173.979 206.125, 174.011 202 C 174.044 197.875, 174.668 190.274, 175.397 185.110 C 176.265 178.972, 176.419 174.359, 175.842 171.792 C 175.357 169.632, 174.780 162.607, 174.560 156.182 C 174.340 149.757, 174.124 144.162, 174.080 143.750 C 173.916 142.215, 169.179 143.071, 166.597 145.102 C 164.181 147.003, 162.520 147.219, 149.285 147.352 L 134.646 147.500 133.828 144.500 C 133.282 142.498, 133.511 140.003, 134.515 137 C 135.343 134.525, 136.440 128.450, 136.954 123.500 C 139.153 102.309, 140.150 100.435, 149.719 99.511 C 153.448 99.152, 157.625 98.701, 159 98.511 C 160.375 98.320, 163.874 98.127, 166.775 98.082 C 171.482 98.009, 172.154 97.724, 173.025 95.435 C 173.673 93.731, 173.653 92.219, 172.965 90.935 C 171.723 88.614, 171.325 88.582, 167.636 90.506 M 93.250 149.644 C 92.563 149.931, 92 151.368, 92 152.835 C 92 157.071, 97.650 175.700, 99.889 178.843 C 101.007 180.415, 102.366 183.672, 102.907 186.082 C 103.449 188.492, 104.366 190.622, 104.946 190.815 C 105.526 191.009, 106 191.597, 106 192.124 C 106 193.782, 110.316 199, 111.688 199 C 113.483 199, 113.335 197.426, 111.136 193.136 C 108.113 187.237, 106 182.035, 106 180.490 C 106 179.697, 105.102 177.575, 104.004 175.774 C 102.906 173.973, 102.006 170.913, 102.004 168.973 C 102.002 167.032, 101.350 164.516, 100.555 163.381 C 99.760 162.247, 98.972 158.659, 98.805 155.409 C 98.544 150.345, 98.214 149.473, 96.500 149.310 C 95.400 149.206, 93.938 149.356, 93.250 149.644 M 22.636 205.507 C 19.015 209.128, 21.554 224.079, 27.515 234.230 C 28.894 236.579, 30.968 240.415, 32.124 242.756 C 33.280 245.097, 35.505 248.089, 37.068 249.404 C 39.607 251.540, 40.267 251.673, 43.248 250.648 C 46.776 249.435, 47.417 248.712, 46.721 246.725 C 46.413 245.846, 45.734 245.995, 44.317 247.250 C 43.231 248.213, 42.050 249, 41.692 249 C 40.378 249, 37 240.985, 37 237.869 C 37 236.102, 36.371 233.947, 35.601 233.079 C 29.837 226.571, 28.404 217.449, 32.071 210.606 C 33.210 208.481, 33.773 206.396, 33.321 205.974 C 32.869 205.551, 30.649 204.905, 28.386 204.538 C 25.256 204.030, 23.881 204.262, 22.636 205.507 M 76.223 207.944 C 72.068 211.739, 72.157 214.061, 76.617 218.169 C 84.573 225.497, 87.476 228.785, 91.693 235.250 C 94.115 238.963, 96.539 242, 97.080 242 C 100.961 242, 95.981 230.730, 88.318 222.172 C 86.010 219.595, 84.947 217.226, 84.452 213.559 C 83.205 204.315, 81.483 203.140, 76.223 207.944 M 52.250 213.651 C 50.239 214.481, 50.683 226.662, 52.951 232.865 C 55.340 239.403, 60.746 244.922, 65.518 245.697 C 68.581 246.194, 69 246.005, 69 244.131 C 69 242.590, 68.377 241.998, 66.750 241.992 C 63.960 241.983, 59.925 235.388, 59.485 230.117 C 59.318 228.128, 58.576 223.581, 57.836 220.013 C 56.515 213.652, 55.380 212.359, 52.250 213.651" stroke="none" fill="black" fill-rule="evenodd"/>
</svg>