<svg xmlns="http://www.w3.org/2000/svg" width="300" height="300" viewBox="0 0 300 300" version="1.1">
	<path d="M 198 14.355 C 196.075 15.043, 193.748 16.032, 192.828 16.553 C 190.888 17.652, 185.220 24.952, 182.427 29.947 C 180.498 33.397, 178.893 35.491, 173.750 41.270 C 172.238 42.970, 171 44.684, 171 45.079 C 171 45.474, 168.863 48.022, 166.250 50.740 C 163.637 53.458, 159.025 58.489, 156 61.920 C 152.975 65.351, 149.825 68.866, 149 69.731 C 146.907 71.926, 138.340 83.923, 136.468 87.279 C 135.616 88.808, 135.211 90.532, 135.568 91.110 C 136.343 92.363, 141.172 91.340, 142.180 89.709 C 142.635 88.973, 143.632 89.534, 145.034 91.316 C 146.219 92.823, 148.834 94.912, 150.845 95.959 C 152.855 97.006, 155.776 99.244, 157.335 100.931 C 158.894 102.619, 160.614 104, 161.156 104 C 161.699 104, 162.818 104.675, 163.643 105.500 C 164.468 106.325, 166.361 107, 167.849 107 C 169.337 107, 171.443 107.577, 172.527 108.282 C 173.612 108.988, 177.121 110.422, 180.325 111.470 C 185.327 113.106, 186.280 113.173, 187.074 111.938 C 187.958 110.563, 187.383 109.870, 181.336 105.016 C 180.695 104.502, 178.895 103.777, 177.336 103.406 C 173.978 102.607, 171 100.228, 171 98.345 C 171 97.605, 170.311 97, 169.469 97 C 168.626 97, 167.695 96.369, 167.399 95.598 C 167.104 94.827, 165.318 93.907, 163.431 93.553 C 161.544 93.199, 160 92.480, 160 91.955 C 160 91.430, 159.325 91, 158.500 91 C 157.675 91, 157 90.341, 157 89.535 C 157 88.730, 156.195 87.639, 155.210 87.113 C 154.226 86.586, 152.786 84.968, 152.009 83.518 C 150.631 80.942, 150.761 80.723, 157.549 74.190 C 161.372 70.511, 166.525 65.033, 169 62.018 C 171.475 59.002, 175.188 54.787, 177.250 52.650 C 179.313 50.513, 181 48.389, 181 47.929 C 181 47.469, 182.951 45.160, 185.335 42.797 C 187.719 40.433, 191.260 36.250, 193.204 33.500 C 195.148 30.750, 198.592 26.574, 200.858 24.220 C 204.446 20.491, 206.999 15.582, 205.870 14.578 C 204.533 13.388, 200.987 13.288, 198 14.355 M 104.750 43.574 C 102.927 44.562, 102 45.873, 102 47.466 C 102 49.341, 101.398 49.937, 99.256 50.184 C 96.915 50.453, 96.118 51.455, 93.832 57 C 92.358 60.575, 91.118 64.306, 91.076 65.292 C 91.034 66.277, 90.122 68.026, 89.050 69.177 C 87.977 70.328, 86.825 72.520, 86.489 74.048 C 85.857 76.927, 78.668 89.466, 76.275 91.865 C 75.525 92.616, 73.570 95.766, 71.929 98.865 C 70.288 101.964, 67.920 106.300, 66.666 108.500 C 65.413 110.700, 63.191 114.626, 61.728 117.225 C 60.264 119.824, 57.477 124.262, 55.534 127.087 C 51.144 133.469, 50.976 136.333, 54.897 137.957 C 57.259 138.936, 58.335 138.878, 60.720 137.645 C 62.329 136.813, 64.230 135.427, 64.945 134.566 C 65.660 133.705, 67.035 133, 68 133 C 68.965 133, 70.290 132.355, 70.945 131.567 C 72.441 129.764, 81.180 127.807, 82.392 129.003 C 82.913 129.517, 82.601 131.322, 81.642 133.343 C 80.739 135.245, 80 137.409, 79.999 138.151 C 79.999 139.756, 76.162 150.070, 75.034 151.500 C 74.600 152.050, 73.905 153.625, 73.489 155 C 73.074 156.375, 70.094 163.010, 66.867 169.745 C 63.640 176.479, 61 182.876, 61 183.959 C 61 186.134, 63.739 188, 66.931 188 C 68.066 188, 70.738 186.425, 72.868 184.500 C 74.999 182.575, 77.475 181, 78.371 181 C 79.267 181, 80 180.394, 80 179.653 C 80 177.849, 86.729 171, 88.503 171 C 89.276 171, 91.012 169.988, 92.359 168.750 C 98.115 163.465, 105.249 159.498, 107.468 160.349 C 108.365 160.694, 110.273 163.568, 111.709 166.738 C 114.241 172.329, 115.146 176.310, 116.584 188.195 C 117.288 194.011, 119.021 196.058, 121.499 194 C 124.500 191.510, 123.886 171, 120.811 171 C 120.365 171, 120 169.719, 120 168.154 C 120 164.646, 117.608 159.699, 114.324 156.415 C 110.711 152.802, 104.157 152.120, 99.494 154.871 C 97.509 156.042, 95.442 157, 94.900 157 C 94.358 157, 91.464 158.850, 88.469 161.111 C 80.987 166.760, 79.224 165.884, 83.043 158.416 C 86.057 152.522, 89 142.644, 89 138.419 C 89 137.089, 89.388 136, 89.862 136 C 90.940 136, 92.284 121.903, 91.421 119.654 C 90.549 117.381, 86.291 117.558, 81.065 120.083 C 75.813 122.620, 70 123.712, 70 122.162 C 70 121.557, 71.961 118.011, 74.359 114.281 C 76.756 110.552, 79.462 105.925, 80.371 104 C 82.089 100.365, 84.892 96.457, 88.750 92.321 C 89.987 90.995, 91 89.505, 91 89.012 C 91 88.518, 92.013 86.401, 93.250 84.307 C 95.847 79.913, 99.989 70.073, 99.995 68.281 C 100 67.150, 102.997 60.459, 105.049 57 C 107.623 52.660, 110.047 46.327, 109.791 44.609 C 109.407 42.035, 108.091 41.765, 104.750 43.574 M 241.293 61.879 C 239.529 63.490, 237.811 66.089, 237.474 67.654 C 237.137 69.219, 236.271 72.300, 235.549 74.500 C 234.827 76.700, 233.679 81.200, 232.998 84.500 C 232.317 87.800, 231.475 90.725, 231.129 91 C 230.782 91.275, 229.412 93.750, 228.085 96.500 C 226.758 99.250, 224.846 102.573, 223.836 103.885 C 221.593 106.799, 221.490 108.867, 223.549 109.657 C 225.110 110.256, 229.525 106.131, 232.815 101 C 233.697 99.625, 236.285 96.025, 238.567 93 C 243.710 86.182, 247.331 75.195, 247.429 66.111 C 247.513 58.321, 246.189 57.408, 241.293 61.879 M 195.802 69.044 C 193.102 71.744, 192.831 72.539, 193.398 76.085 C 194.032 80.052, 198.345 89.280, 200.757 91.828 C 201.448 92.558, 202.476 94.021, 203.042 95.078 C 203.753 96.406, 205.141 97, 207.535 97 C 209.441 97, 211 96.564, 211 96.031 C 211 95.043, 208.440 89.450, 204.944 82.802 C 203.651 80.342, 203 77.113, 203 73.159 C 203 68.660, 202.615 67.066, 201.418 66.607 C 199.119 65.725, 199.123 65.723, 195.802 69.044 M 176.768 133.768 C 174.373 135.841, 171.353 138.524, 170.058 139.732 C 167.578 142.042, 156.271 150, 155.469 150 C 155.211 150, 153.138 151.862, 150.862 154.138 C 146.892 158.108, 146.685 158.628, 145.787 166.888 C 144.150 181.949, 146.614 225.533, 149.403 230.858 C 151.616 235.081, 150.843 238.572, 147.509 239.408 C 145.021 240.033, 144.467 241.447, 145.575 244.335 C 146.472 246.672, 160.839 245.416, 163.367 242.780 C 164.707 241.382, 165.539 241.139, 166.317 241.917 C 167.910 243.510, 171 243.235, 171 241.500 C 171 240.675, 171.450 240, 172 240 C 172.550 240, 173 240.675, 173 241.500 C 173 243.131, 177.487 243.638, 178.430 242.113 C 179.254 240.780, 185.835 239.633, 191.750 239.791 C 196.418 239.916, 197 239.704, 197 237.886 C 197 235.972, 197.402 235.884, 203.263 236.511 C 208.830 237.108, 209.735 236.950, 211.418 235.091 C 213.653 232.621, 218.259 232.163, 217.362 234.500 C 216.630 236.405, 221.988 236.612, 223.850 234.750 C 224.674 233.926, 228.323 233.500, 234.550 233.500 C 242.730 233.500, 244 233.274, 244 231.821 C 244 229.335, 241.382 227.162, 237.511 226.436 C 233.893 225.757, 210.971 228.168, 197.500 230.645 C 177.651 234.294, 171.440 235.036, 165.942 234.414 C 161.059 233.861, 160.040 233.384, 159.035 231.177 C 157.722 228.295, 154.720 203.228, 155.196 199.121 C 155.472 196.743, 155.848 196.530, 159.257 196.827 C 162.601 197.118, 169.026 194.464, 171 191.975 C 171.275 191.629, 175.342 190.158, 180.037 188.707 C 184.732 187.256, 190.718 184.928, 193.340 183.534 C 195.961 182.140, 198.982 181, 200.053 181 C 204.007 181, 207.913 174.300, 205.006 172.504 C 204.459 172.166, 201.765 173.018, 199.019 174.397 C 196.272 175.776, 192.409 177.208, 190.433 177.579 C 188.457 177.949, 186.627 178.809, 186.366 179.490 C 186.102 180.176, 183.188 181.009, 179.818 181.361 C 169.833 182.405, 166.063 183.995, 160.822 189.376 C 158.168 192.101, 155.731 194.064, 155.407 193.740 C 154.617 192.951, 154.808 184.719, 155.903 172.320 C 156.527 165.246, 157.339 161.431, 158.561 159.820 C 160.417 157.373, 165.640 153.613, 168.688 152.530 C 169.685 152.176, 172.075 149.913, 174 147.500 C 175.925 145.087, 178.179 142.867, 179.009 142.566 C 179.839 142.265, 180.964 141.002, 181.509 139.759 C 182.054 138.517, 183.894 137.049, 185.598 136.499 C 193.358 133.990, 193.576 130, 185.954 130 C 181.803 130, 180.508 130.531, 176.768 133.768 M 240.558 134.433 C 235.167 136.434, 231.500 139.339, 231.500 141.608 C 231.500 143.244, 232.177 143.467, 236.500 143.258 C 239.250 143.125, 243.163 142.280, 245.196 141.381 C 252.684 138.067, 254.956 142.266, 252.466 154.817 C 251.553 159.414, 250.660 166.849, 250.480 171.338 C 250.300 175.827, 250.119 179.783, 250.076 180.130 C 250.034 180.476, 247.412 181.021, 244.250 181.341 C 226.265 183.158, 221.925 183.817, 220.576 184.937 C 219.658 185.699, 217.924 185.923, 216.078 185.517 C 213.440 184.938, 212.995 185.170, 212.429 187.426 C 212.074 188.839, 212.024 190.621, 212.318 191.386 C 213.108 193.445, 220.928 193.971, 224.470 192.203 C 226.103 191.388, 229.928 190.143, 232.970 189.437 C 236.011 188.731, 240.682 187.623, 243.348 186.975 C 246.838 186.126, 248.501 186.101, 249.283 186.883 C 250.065 187.665, 249.889 192.366, 248.657 203.659 C 246.832 220.382, 247.059 221.716, 251.496 220.332 C 257.119 218.578, 258.809 211.601, 260.060 184.987 C 260.641 172.619, 261.362 159.309, 261.662 155.409 C 262.230 148.035, 260.791 138.425, 258.706 135.666 C 256.938 133.326, 245.615 132.556, 240.558 134.433 M 255.336 172.567 C 255.005 173.429, 255.244 174.644, 255.867 175.267 C 256.711 176.111, 257 175.711, 257 173.700 C 257 170.691, 256.251 170.182, 255.336 172.567 M 149.079 193.583 C 149.127 194.748, 149.364 194.985, 149.683 194.188 C 149.972 193.466, 149.936 192.603, 149.604 192.271 C 149.272 191.939, 149.036 192.529, 149.079 193.583 M 113.937 218.340 C 109.540 220.524, 110.274 223.512, 116.840 230.160 C 121.833 235.215, 123.629 236.376, 127.610 237.119 C 132.494 238.032, 136 237.557, 136 235.984 C 136 234.424, 131.323 230, 129.672 230 C 127.810 230, 120 222.195, 120 220.334 C 120 218.123, 116.615 217.010, 113.937 218.340 M 75.073 222.635 C 72.484 225.926, 72.470 227.511, 75 230.727 C 76.100 232.126, 77 233.861, 77 234.585 C 77 236.224, 82.122 243.896, 84.889 246.399 C 86.518 247.874, 87.953 248.153, 91.724 247.728 C 95.668 247.283, 97.062 246.536, 99.748 243.428 C 103.426 239.174, 104.003 236, 101.099 236 C 99.986 236, 98.341 237.451, 97.133 239.500 C 95.997 241.425, 94.531 243, 93.875 243 C 91.615 243, 83.966 233.567, 82.928 229.500 C 80.362 219.452, 78.711 218.009, 75.073 222.635 M 49.545 230.950 C 48.550 232.049, 46.818 233.240, 45.695 233.597 C 44.572 233.953, 42.772 235.066, 41.695 236.070 C 38.823 238.745, 39.749 246.433, 43.591 251.808 C 46.880 256.411, 48.253 256.981, 56 256.953 C 62.394 256.930, 64.497 255.550, 67.780 249.219 C 72.450 240.215, 69.031 236.398, 64 245 C 60.895 250.309, 58.721 251.026, 55.345 247.854 C 53.050 245.698, 52.892 244.948, 53.184 237.615 C 53.523 229.127, 52.647 227.522, 49.545 230.950" stroke="none" fill="black" fill-rule="evenodd"/>
</svg>