<svg xmlns="http://www.w3.org/2000/svg" width="300" height="300" viewBox="0 0 300 300" version="1.1">
	<path d="M 133.113 43.060 C 131.256 45.572, 130.588 45.903, 129.383 44.903 C 127.734 43.534, 127.929 43.362, 122.445 51 C 117.370 58.067, 117.078 58.571, 110.995 70.755 C 105.325 82.112, 104.326 86.500, 107.411 86.500 C 108.625 86.500, 109.719 85.407, 110.411 83.500 C 111.010 81.850, 113.258 78.098, 115.406 75.163 C 119.845 69.098, 119.272 69.159, 131.824 73.408 C 137.060 75.180, 137.183 75.177, 139.324 73.179 C 140.521 72.062, 142.760 70.836, 144.299 70.453 C 146.928 69.801, 147.059 69.918, 146.441 72.379 C 145.863 74.681, 146.086 75, 148.269 75 C 151.789 75, 153.526 77.321, 151.350 79.117 C 150.429 79.878, 148.781 82.525, 147.687 85 C 145.168 90.704, 137.556 101.963, 134.688 104.228 C 133.485 105.178, 131.476 105.966, 130.225 105.978 C 127.772 106.002, 125.212 110.612, 126.781 112.181 C 127.251 112.651, 135.705 113.303, 145.568 113.629 C 165.878 114.301, 172.025 114.843, 173.587 116.100 C 176.014 118.052, 178.127 134.200, 179.725 163 C 180.137 170.425, 180.480 179.425, 180.487 183 L 180.500 189.500 177 189.267 C 175.075 189.139, 171.250 188.364, 168.500 187.545 C 165.750 186.726, 162.348 185.831, 160.940 185.557 C 158.675 185.115, 158.158 184.160, 156.459 177.279 C 154.308 168.569, 154.237 163.335, 156.241 161.331 C 157.037 160.535, 160.147 159.914, 163.846 159.812 C 167.289 159.717, 170.308 159.311, 170.556 158.910 C 171.928 156.690, 169.351 155.175, 162.194 153.993 C 157.962 153.294, 154.050 152.313, 153.500 151.811 C 152.938 151.299, 152.416 144.462, 152.308 136.200 C 152.202 128.115, 152.090 121.162, 152.058 120.750 C 151.888 118.544, 148.796 120.582, 145.991 124.750 L 142.793 129.500 143.402 141.555 L 144.011 153.610 140.255 155.227 C 138.190 156.116, 134.475 157.407, 132 158.097 C 129.525 158.786, 127.009 159.717, 126.408 160.166 C 124.506 161.588, 124.185 160.068, 124.722 152.183 C 125.009 147.957, 124.672 138.200, 123.971 130.500 C 123.270 122.800, 122.600 113.966, 122.481 110.870 C 122.156 102.364, 120.223 100.720, 116.500 105.781 C 114.876 107.989, 114.530 109.909, 114.658 116 C 114.744 120.125, 115.028 141.950, 115.288 164.500 C 116.008 227.030, 117.209 237.345, 124.021 239.507 C 128.312 240.869, 130.436 236.121, 127.524 231.677 C 126.460 230.052, 125.789 224.272, 125.122 210.962 C 124.056 189.716, 123.819 168.102, 124.637 166.778 C 124.946 166.278, 126.054 166.644, 127.099 167.590 C 128.753 169.086, 129.228 169.126, 130.750 167.898 C 131.713 167.121, 134.610 165.389, 137.188 164.048 C 139.826 162.676, 141.594 161.148, 141.231 160.555 C 140.876 159.975, 141.691 160.229, 143.043 161.119 C 144.394 162.010, 145.632 163.585, 145.794 164.619 C 145.956 165.654, 147.237 170.224, 148.641 174.776 C 151.822 185.087, 151.448 186.423, 145.569 185.761 C 140.806 185.224, 132.725 186.875, 130.827 188.773 C 129.149 190.451, 132.444 193.958, 135.057 193.275 C 136.126 192.995, 137 192.369, 137 191.883 C 137 191.398, 137.900 191, 139 191 C 140.175 191, 141 191.667, 141 192.617 C 141 193.805, 141.596 194.074, 143.250 193.630 C 144.488 193.299, 146.357 193.021, 147.405 193.014 C 149.247 193, 149.250 192.933, 147.500 191 C 145.945 189.281, 145.911 189, 147.263 189 C 149.921 189, 152 190.144, 152 191.607 C 152 193.248, 151.214 193.145, 166.908 193.560 C 175.469 193.786, 179.693 194.293, 180.530 195.194 C 182.869 197.710, 188.481 243.720, 186.762 246.280 C 186.176 247.151, 185.143 246.570, 183.148 244.250 C 179.983 240.568, 176.883 239.836, 177.701 242.963 C 177.983 244.043, 180.445 247.014, 183.173 249.565 C 187.873 253.961, 188.207 254.106, 189.581 252.351 C 190.926 250.634, 190.986 250.698, 190.409 253.241 C 189.687 256.427, 192.066 258.020, 194.513 255.989 C 196.291 254.513, 196.559 242.360, 194.999 233.917 C 194.449 230.938, 193.553 222.650, 193.009 215.500 C 192.465 208.350, 191.540 200.250, 190.954 197.500 C 190.367 194.750, 189.461 184.175, 188.941 174 C 187.797 151.638, 188.120 155.582, 185.936 137.332 C 184.938 128.989, 183.646 120.398, 183.065 118.240 C 180.688 109.413, 173.022 106.783, 147.750 106.124 C 142.314 105.982, 141.537 104.379, 145.472 101.424 C 146.831 100.403, 149.361 97.303, 151.093 94.534 C 152.826 91.765, 155.738 87.250, 157.564 84.500 C 162.484 77.092, 165.027 70.918, 163.970 68.943 C 163.214 67.532, 161.041 67.266, 149.397 67.164 C 141.870 67.097, 134.764 66.773, 133.606 66.442 C 128.868 65.090, 125 62.816, 125 61.383 C 125 59.457, 129.684 52.781, 134.947 47.207 C 137.176 44.845, 139 42.258, 139 41.457 C 139 38.918, 135.463 39.882, 133.113 43.060 M 70.691 52.217 C 65.850 57.786, 63.015 62.130, 63.007 63.992 C 63 65.575, 54.393 83.090, 50.698 89.040 C 46.350 96.041, 40.477 104.519, 39.295 105.500 C 37.021 107.387, 35.909 111.958, 37.150 114.315 C 37.782 115.517, 38.795 116.831, 39.400 117.235 C 41.422 118.585, 52.997 118.053, 56.060 116.469 C 57.689 115.627, 60.704 114.839, 62.761 114.719 C 66.217 114.517, 66.475 114.689, 66.173 117 C 65.993 118.375, 64.855 121.075, 63.645 123 C 60.166 128.535, 59 130.873, 59 132.312 C 59 133.049, 57.831 134.742, 56.403 136.076 C 54.974 137.409, 52.936 140.075, 51.874 142 C 50.813 143.925, 49.169 146.675, 48.222 148.111 C 45.790 151.799, 37.617 163.701, 34.027 168.785 C 32.362 171.142, 31 173.479, 31 173.979 C 31 174.478, 30.172 175.475, 29.160 176.193 C 28.149 176.912, 26.176 179.560, 24.776 182.079 C 23.376 184.597, 21.620 187.636, 20.873 188.832 C 19.860 190.454, 19.792 191.451, 20.608 192.753 C 23.076 196.695, 27.744 195.406, 47.849 185.231 C 55.327 181.447, 58.885 178.819, 65.629 172.101 C 73.596 164.165, 74.140 163.806, 75.499 165.601 C 76.289 166.645, 76.951 169.231, 76.968 171.346 C 76.998 174.936, 79.080 183.935, 80.937 188.500 C 81.385 189.600, 82.247 191.738, 82.854 193.250 C 84.069 196.278, 86.445 196.890, 87.393 194.418 C 88.290 192.080, 88.130 183.727, 87.123 180.399 C 86.641 178.805, 85.207 173.900, 83.936 169.500 C 82.665 165.100, 81.204 160.938, 80.690 160.250 C 80.176 159.562, 77.979 159, 75.808 159 C 71.232 159, 65.584 162.478, 59.083 169.299 C 56.587 171.918, 51.564 175.352, 46.590 177.840 C 37.975 182.148, 36 182.730, 36 180.960 C 36 180, 39.738 174.151, 41.086 173 C 41.772 172.415, 48.820 161.870, 51 158.167 C 51.825 156.766, 55.121 151.992, 58.325 147.560 C 61.529 143.127, 65.991 135.675, 68.242 131 C 70.492 126.325, 73.657 120.799, 75.274 118.721 C 78.790 114.202, 82 106.167, 82 101.887 C 82 100.186, 83.350 94.766, 85 89.841 C 89.336 76.897, 88.868 75.164, 82.176 79.389 C 78.439 81.748, 75 87.613, 75 91.627 C 75 92.500, 74.258 96.289, 73.351 100.047 C 71.975 105.746, 71.269 107.047, 69.101 107.878 C 65.537 109.244, 61.596 109.943, 54.349 110.494 C 46.038 111.125, 45.463 109.514, 51.484 102.467 C 53.968 99.560, 56 96.938, 56 96.641 C 56 96.343, 57.462 93.946, 59.250 91.312 C 62.991 85.801, 73 66.253, 73 64.458 C 73 63.795, 74.091 61.283, 75.425 58.876 C 77.784 54.618, 77.804 54.411, 76.132 51.217 L 74.415 47.934 70.691 52.217 M 242 50.613 C 237.325 51.373, 230.125 52.373, 226 52.834 C 218.823 53.637, 212 56.104, 212 57.897 C 212 58.362, 214.171 59.030, 216.824 59.382 C 219.477 59.734, 222.473 60.625, 223.481 61.363 C 225.253 62.658, 225.246 62.884, 223.262 68.102 C 222.133 71.071, 220.767 75.300, 220.228 77.500 C 219.688 79.700, 218.014 85.550, 216.508 90.500 C 215.001 95.450, 213.417 100.850, 212.986 102.500 C 212.556 104.150, 211.028 108.650, 209.590 112.500 C 205.995 122.130, 205.234 129.182, 207.429 132.532 C 208.566 134.267, 209.848 135.020, 211.313 134.811 C 213.169 134.547, 213.592 133.667, 214.109 129 C 214.444 125.975, 215.934 120.125, 217.420 116 C 220.797 106.622, 227.293 84.037, 229.603 73.644 C 230.964 67.520, 231.092 65.377, 230.184 63.924 C 229.225 62.387, 229.358 61.879, 230.944 61.030 C 232.003 60.463, 233.698 60, 234.712 60 C 235.726 60, 237.556 59.299, 238.779 58.442 C 240.003 57.585, 241.389 57.122, 241.859 57.413 C 242.330 57.704, 244.242 57.488, 246.108 56.932 C 251.683 55.272, 259.690 54.917, 260.781 56.281 C 262.161 58.009, 260.713 93.848, 259.145 96.750 C 257.543 99.716, 252.257 99.777, 248.564 96.871 C 245.074 94.126, 243.059 95.634, 245.414 99.228 C 247.747 102.789, 251.402 104.293, 261.056 105.667 C 265.657 106.322, 266.770 104.937, 268.578 96.306 C 270.224 88.447, 269.890 58.353, 268.105 53.732 C 266.184 48.760, 258.812 47.879, 242 50.613 M 248.029 52.961 C 247.220 53.473, 246.818 54.151, 247.136 54.469 C 247.924 55.257, 251 54.002, 251 52.893 C 251 51.753, 249.899 51.778, 248.029 52.961 M 154 78.441 C 154 79.298, 154.450 80, 155 80 C 155.550 80, 156 79.577, 156 79.059 C 156 78.541, 155.550 77.840, 155 77.500 C 154.450 77.160, 154 77.584, 154 78.441 M 229.768 116.562 C 227.564 118.005, 225.762 120.130, 225.366 121.753 C 224.997 123.264, 223.874 125.559, 222.872 126.854 C 221.869 128.149, 220.084 132.424, 218.905 136.354 C 217.726 140.284, 215.418 147.100, 213.776 151.500 C 212.134 155.900, 209.949 163.249, 208.920 167.832 C 207.891 172.414, 206.590 177.814, 206.030 179.832 C 205.470 181.849, 205.009 184.668, 205.006 186.095 C 205.003 187.522, 204.100 189.505, 203 190.500 C 200.355 192.894, 200.475 194, 203.378 194 C 204.685 194, 206.320 194.681, 207.010 195.512 C 208.662 197.502, 210.992 195.686, 210.280 192.963 C 209.876 191.418, 210.271 191.003, 212.133 191.015 C 213.435 191.024, 215.175 191.467, 216 192 C 217.213 192.784, 217.069 192.972, 215.250 192.985 C 214.012 192.993, 213 193.416, 213 193.925 C 213 194.433, 215.363 194.694, 218.250 194.504 C 221.137 194.314, 224.048 194.123, 224.719 194.080 C 225.389 194.036, 225.678 193.325, 225.362 192.500 C 224.670 190.699, 227.071 190.471, 228.776 192.176 C 229.678 193.078, 230.372 192.973, 231.749 191.727 C 232.947 190.643, 234.030 190.401, 235 191 C 235.975 191.603, 237.070 191.342, 238.323 190.208 C 240.087 188.612, 240.292 188.642, 242.002 190.754 C 243.343 192.410, 243.978 195.520, 244.450 202.745 C 244.800 208.110, 245.967 219.946, 247.043 229.047 C 248.120 238.148, 249 246.861, 249 248.411 C 249 251.708, 252.830 259, 254.562 259 C 258.403 259, 258.424 255.342, 254.809 214 C 254.255 207.675, 253.735 199.575, 253.651 196 L 253.500 189.500 259.500 188.818 C 262.800 188.443, 267.075 187.872, 269 187.549 C 270.925 187.226, 275.583 186.439, 279.350 185.801 C 286.434 184.602, 288.200 183.151, 285.920 180.404 C 284.950 179.234, 283.451 178.964, 280.058 179.347 C 264.162 181.141, 253.493 181.886, 252.895 181.243 C 252.178 180.474, 249.861 161.513, 249.631 154.539 C 249.528 151.416, 249.953 150.351, 251.643 149.500 C 252.822 148.907, 254.397 147.934, 255.143 147.337 C 257.350 145.573, 266.813 145.070, 268.122 146.647 C 268.740 147.391, 270.090 148, 271.122 148 C 272.520 148, 273 147.271, 273 145.152 C 273 142.799, 272.308 141.992, 269.022 140.510 C 265.088 138.736, 259.923 138.775, 251.606 140.639 L 248.712 141.288 249.217 131.644 C 249.608 124.163, 249.431 122, 248.428 122 C 247.717 122, 246.827 123.013, 246.451 124.250 C 246.074 125.487, 244.699 127.400, 243.395 128.500 C 241.580 130.031, 240.871 131.908, 240.375 136.500 C 240.019 139.800, 239.348 142.985, 238.884 143.578 C 237.849 144.901, 227.389 145.439, 226.629 144.209 C 225.697 142.700, 228.975 132.880, 233.156 124.658 C 238.527 114.096, 237.453 111.529, 229.768 116.562 M 233 151 C 232.215 152.467, 230.906 153, 228.087 153 C 223.711 153, 222.742 153.896, 221.061 159.500 C 220.401 161.700, 219.466 164.400, 218.985 165.500 C 217.748 168.324, 214 182.700, 214 184.620 C 214 186.003, 215.045 186.131, 221.750 185.569 C 238.155 184.193, 240.929 183.790, 241.880 182.644 C 242.525 181.867, 242.427 176.595, 241.593 167.278 C 240.398 153.920, 239.073 149.219, 236.887 150.570 C 236.399 150.871, 236 150.641, 236 150.059 C 236 148.290, 234.138 148.874, 233 151 M 149 162 C 149 163.650, 149.450 165, 150 165 C 150.550 165, 151 163.650, 151 162 C 151 160.350, 150.550 159, 150 159 C 149.450 159, 149 160.350, 149 162 M 43 184 C 43 184.550, 43.450 185, 44 185 C 44.550 185, 45 184.550, 45 184 C 45 183.450, 44.550 183, 44 183 C 43.450 183, 43 183.450, 43 184 M 220 192 C 220 192.550, 220.450 193, 221 193 C 221.550 193, 222 192.550, 222 192 C 222 191.450, 221.550 191, 221 191 C 220.450 191, 220 191.450, 220 192 M 199.029 196.961 C 196.848 198.340, 198.501 199.342, 201.651 198.551 C 203.799 198.012, 204.081 197.663, 202.948 196.947 C 201.147 195.807, 200.851 195.808, 199.029 196.961 M 47.667 209.667 C 46.499 210.834, 46.949 213.712, 48.500 215 C 49.325 215.685, 50 217.215, 50 218.400 C 50 226.827, 67.783 246.555, 73.428 244.389 C 76.019 243.395, 75.220 240.104, 71.895 238.082 C 70.187 237.044, 68.050 235.064, 67.145 233.684 C 66.240 232.303, 64.136 229.222, 62.469 226.836 C 60.801 224.451, 58.604 220.302, 57.585 217.616 C 56.566 214.930, 54.893 211.893, 53.866 210.866 C 52.002 209.002, 48.926 208.407, 47.667 209.667 M 14.009 212.211 C 12.839 213.298, 12.353 214.758, 12.678 216.211 C 14.110 222.632, 16.634 228.939, 19.409 233.031 C 22.841 238.093, 24.706 241.190, 26.713 245.161 C 28.790 249.270, 36.162 256.179, 39.493 257.138 C 43.877 258.400, 44.534 258.263, 47.984 255.360 C 51.605 252.313, 50.775 250.234, 46.682 252.099 C 44.574 253.059, 43.729 253.020, 42.377 251.898 C 39.966 249.897, 28 233.664, 28 232.394 C 28 232.109, 26.767 229.317, 25.260 226.188 C 23.207 221.925, 22.566 219.186, 22.702 215.255 L 22.884 210.010 19.368 210.255 C 17.434 210.390, 15.022 211.270, 14.009 212.211 M 80.893 214.629 C 78.498 217.515, 79.399 223.771, 82.720 227.322 C 84.355 229.070, 86.984 232.300, 88.563 234.500 C 94.127 242.256, 99.201 248, 100.486 248 C 104.509 248, 101.018 237.917, 94.250 229.989 C 92.463 227.895, 91 225.761, 91 225.246 C 91 224.731, 90.100 223.495, 89 222.500 C 87.900 221.505, 87 219.960, 87 219.068 C 87 217.195, 84.280 213, 83.066 213 C 82.614 213, 81.636 213.733, 80.893 214.629 M 251 231.500 C 251 232.991, 251.431 233.852, 252 233.500 C 252.550 233.160, 253 232.260, 253 231.500 C 253 230.740, 252.550 229.840, 252 229.500 C 251.431 229.148, 251 230.009, 251 231.500" stroke="none" fill="black" fill-rule="evenodd"/>
</svg>