<svg xmlns="http://www.w3.org/2000/svg" width="300" height="300" viewBox="0 0 300 300" version="1.1">
	<path d="M 126.958 34.401 C 129.410 36.930, 131.724 39, 132.099 39 C 132.475 39, 136.971 41.475, 142.090 44.500 C 147.209 47.525, 151.802 50, 152.298 50 C 152.793 50, 154.616 50.633, 156.349 51.406 C 158.082 52.180, 160.791 53.101, 162.368 53.455 C 163.945 53.808, 165.046 54.288, 164.813 54.521 C 164.580 54.753, 160.139 55.220, 154.945 55.557 C 133.145 56.972, 114.411 60.037, 91 66.017 C 88.525 66.649, 85.053 67.401, 83.284 67.689 C 79.632 68.282, 77.970 71.400, 80.147 73.573 C 81.283 74.706, 83.267 74.687, 92.500 73.460 C 98.550 72.656, 105.075 71.582, 107 71.073 C 110.041 70.270, 112.903 69.677, 124.791 67.383 C 126.051 67.140, 126.869 66.598, 126.610 66.178 C 126.350 65.758, 129.022 65.598, 132.548 65.822 C 136.073 66.047, 139.755 65.924, 140.729 65.550 C 142.633 64.819, 169.860 63.523, 174 63.967 C 175.375 64.115, 184.375 64.295, 194 64.368 L 211.500 64.500 211.815 60.105 L 212.129 55.709 206.603 56.359 C 203.564 56.716, 195.547 56.528, 188.789 55.941 C 182.030 55.354, 174.813 54.807, 172.750 54.725 C 169.339 54.589, 169 54.320, 169 51.756 C 169 49.962, 168.364 48.723, 167.250 48.349 C 161.330 46.358, 145.739 37.994, 141.591 34.584 C 137.050 30.850, 136.150 30.519, 129.591 30.175 L 122.500 29.802 126.958 34.401 M 177.302 72.656 C 176.194 75.542, 180.284 77.610, 189.667 78.909 C 200.276 80.378, 212.500 79.370, 212.500 77.028 C 212.500 75.331, 207.274 74.216, 196.332 73.576 C 192.389 73.346, 188.256 72.672, 187.147 72.079 C 183.969 70.378, 178.043 70.725, 177.302 72.656 M 111.096 75.127 C 109.774 76.546, 108.307 77.101, 106.692 76.792 C 103.534 76.188, 101.768 77.574, 99.146 82.714 C 96.597 87.710, 96.315 92, 98.534 92 C 99.806 92, 99.951 92.899, 99.381 97.250 C 99.003 100.138, 98.026 103.527, 97.211 104.782 C 95.811 106.937, 95.624 106.970, 93.864 105.377 C 92.078 103.761, 92 103.840, 92 107.251 C 92 110.313, 91.721 110.740, 90.012 110.293 C 88.747 109.962, 87.797 110.364, 87.400 111.399 C 86.568 113.568, 88.419 115.634, 91.802 116.310 C 93.318 116.614, 95.896 118.115, 97.529 119.647 C 99.163 121.179, 101.287 122.306, 102.250 122.153 C 107.667 121.290, 99.743 130.409, 89.092 137.296 C 87.218 138.508, 84.783 140.717, 83.681 142.204 C 82.021 144.445, 81.898 145.172, 82.962 146.454 C 83.667 147.304, 85.132 148, 86.216 148 C 87.323 148, 88.409 148.847, 88.692 149.931 C 88.970 150.993, 89.936 152.145, 90.838 152.491 C 92.826 153.254, 104.944 150.401, 110.566 147.847 C 112.802 146.831, 115.374 146, 116.282 146 C 120.425 146, 110.083 157.100, 101.852 161.487 C 100.833 162.030, 100 162.945, 100 163.520 C 100 164.755, 88.028 177.544, 86.342 178.111 C 85.010 178.558, 84.716 179.998, 84.882 185.250 C 85.019 189.615, 86.746 190.132, 90.727 187 C 92.126 185.900, 94.076 185, 95.062 185 C 96.808 185, 101 180.639, 101 178.823 C 101 177.745, 102.436 175.975, 106.500 172.041 C 122.150 156.893, 125.332 153.455, 130.314 146.308 C 132.304 143.453, 134.236 139.853, 134.607 138.308 C 135.677 133.849, 137.928 130, 139.467 130 C 141.542 130, 142.158 128.492, 142.448 122.693 C 142.591 119.837, 143.496 115.383, 144.458 112.795 C 146.137 108.279, 146.133 107.928, 144.354 104.073 C 143.334 101.864, 142.050 100.189, 141.500 100.350 C 140.950 100.512, 139.817 102.771, 138.982 105.370 C 138.147 107.969, 136.966 110.412, 136.357 110.798 C 134.776 111.801, 131 119.145, 131 121.216 C 131 122.911, 130.194 123.254, 123.500 124.409 C 121.850 124.694, 119.037 125.219, 117.250 125.577 C 113.247 126.378, 113.141 125.264, 116.857 121.440 C 118.428 119.823, 120.414 117.150, 121.272 115.500 C 122.129 113.850, 124.806 110.631, 127.220 108.346 C 132.534 103.317, 136.248 94.209, 134.060 91.572 C 133.342 90.708, 132.135 90, 131.378 90 C 130.620 90, 130 89.138, 130 88.083 C 130 85.295, 128.013 85.064, 124.016 87.388 C 119.884 89.790, 118.381 91.421, 116.534 95.510 C 114.756 99.445, 114.241 109.593, 115.837 109.250 C 117.816 108.825, 117.117 110.867, 114.873 112.068 C 113.268 112.927, 112.567 112.918, 112.019 112.031 C 111.558 111.285, 110.048 111.085, 107.896 111.483 C 105.692 111.891, 103.844 111.627, 102.629 110.731 C 100.816 109.393, 100.843 109.104, 103.480 101.425 C 106.333 93.118, 110.944 83.891, 113.937 80.500 C 116.585 77.500, 117.068 76.340, 116.396 74.590 C 115.552 72.389, 113.448 72.603, 111.096 75.127 M 157.216 77.750 C 152.083 83.879, 151.065 85.417, 151.032 87.095 C 151.014 87.972, 150.096 89.508, 148.992 90.507 C 147.251 92.083, 147.170 92.536, 148.386 93.912 C 149.309 94.958, 149.738 97.633, 149.644 101.750 C 149.565 105.188, 149.832 108, 150.237 108 C 151.131 108, 155.724 100.855, 157.018 97.451 C 158.257 94.194, 160.228 94.245, 159.407 97.513 C 159.060 98.895, 159.231 100.583, 159.787 101.263 C 161.488 103.345, 162.447 119.756, 160.972 121.534 C 159.995 122.710, 159.968 123.635, 160.853 125.577 C 161.484 126.961, 162 129.773, 162 131.824 C 162 136.401, 165.629 162.347, 166.858 166.558 C 168.649 172.694, 170.946 176, 173.419 176 C 174.721 176, 176.045 175.325, 176.362 174.500 C 177.068 172.659, 187.275 172.437, 195.005 174.094 C 201.039 175.389, 208.566 173.679, 210.190 170.646 C 211.549 168.106, 210.298 167.182, 205 166.813 C 200.552 166.504, 200.496 166.455, 200.180 162.595 C 199.639 155.978, 200.578 154.002, 204.269 153.988 C 208.996 153.971, 217.909 151.393, 220.101 149.409 C 222.499 147.238, 222.650 143, 220.329 143 C 219.410 143, 217.947 143.617, 217.079 144.371 C 216.210 145.125, 212.058 146.040, 207.852 146.404 L 200.204 147.065 199.625 141.282 C 199.307 138.102, 199.379 133.700, 199.787 131.500 L 200.527 127.500 209.013 126.927 C 213.681 126.613, 219.075 125.648, 221 124.783 C 222.925 123.919, 225.750 122.718, 227.278 122.114 C 228.806 121.511, 230.328 120.308, 230.661 119.441 C 231.732 116.650, 229.700 115.918, 223.940 117.023 C 215.745 118.594, 200.487 118.649, 198.638 117.114 C 196.277 115.155, 195.609 108.116, 197.385 103.901 C 198.896 100.314, 198.926 100.300, 206.553 99.655 C 210.761 99.299, 214.608 99.258, 215.102 99.563 C 215.596 99.868, 216 99.684, 216 99.153 C 216 98.622, 216.927 98.430, 218.060 98.726 C 219.960 99.223, 220.096 98.887, 219.810 94.422 C 219.505 89.660, 219.434 89.566, 215.500 88.711 C 211.757 87.898, 195.138 88.285, 176.327 89.623 L 168.153 90.205 167.478 85.701 C 167.106 83.224, 167.109 80.231, 167.484 79.051 C 168.382 76.222, 166.433 74, 163.056 74 C 161.161 74, 159.420 75.118, 157.216 77.750 M 180 95 C 180 95.550, 180.477 96, 181.059 96 C 181.641 96, 181.840 95.550, 181.500 95 C 181.160 94.450, 180.684 94, 180.441 94 C 180.198 94, 180 94.450, 180 95 M 189.035 106.636 C 189.016 108.360, 189.672 111.060, 190.494 112.636 L 191.988 115.500 191.958 112 C 191.942 110.075, 191.286 107.375, 190.500 106 L 189.071 103.500 189.035 106.636 M 179.283 106.104 C 178.852 106.527, 176.475 107.015, 174 107.187 L 169.500 107.500 169.500 112.500 L 169.500 117.500 178 118.136 C 186.764 118.792, 188.700 118.140, 187.319 115 C 186.957 114.175, 186.472 111.662, 186.242 109.417 C 185.861 105.681, 185.580 105.333, 182.946 105.333 C 181.362 105.333, 179.714 105.680, 179.283 106.104 M 179.500 123 C 179.160 123.550, 179.359 124, 179.941 124 C 180.523 124, 181 123.550, 181 123 C 181 122.450, 180.802 122, 180.559 122 C 180.316 122, 179.840 122.450, 179.500 123 M 106.001 125.498 C 105.265 126.873, 104.926 128.259, 105.246 128.580 C 106.149 129.482, 109.833 127.180, 111.012 124.977 C 111.928 123.267, 111.751 123, 109.704 123 C 108.204 123, 106.849 123.915, 106.001 125.498 M 170.436 135.394 C 171.052 142.869, 172.103 150.196, 173.820 158.983 L 174.500 162.466 182.854 163.829 C 187.449 164.578, 191.560 164.811, 191.988 164.346 C 192.417 163.881, 192.483 161.475, 192.134 159 L 191.500 154.500 184.304 154.207 C 178.183 153.958, 177.015 153.622, 176.486 151.957 C 176.145 150.881, 175.430 150, 174.897 150 C 174.312 150, 174.359 149.198, 175.015 147.971 C 175.984 146.161, 176.931 145.973, 183.801 146.221 L 191.500 146.500 191.757 139.500 C 191.912 135.261, 191.506 131.514, 190.727 130 C 189.494 127.602, 189.039 127.496, 179.604 127.394 L 169.767 127.288 170.436 135.394 M 174.500 169 C 174.840 169.550, 175.541 170, 176.059 170 C 176.577 170, 177 169.550, 177 169 C 177 168.450, 176.298 168, 175.441 168 C 174.584 168, 174.160 168.450, 174.500 169 M 127 176.845 C 127 180.365, 124.619 182.546, 119.847 183.401 C 115.502 184.178, 114.683 185.674, 114.535 193.110 C 114.458 196.955, 113.884 199.259, 112.711 200.432 C 111.770 201.373, 111 202.479, 111 202.890 C 111 203.301, 109.426 205.406, 107.502 207.568 C 103.952 211.558, 104.167 213.052, 107.995 211.003 C 110.649 209.582, 121.804 194.629, 122.612 191.408 C 123.049 189.667, 123.910 189, 125.717 189 C 127.855 189, 128.130 189.347, 127.616 191.396 C 126.920 194.168, 127.719 194.629, 134.871 195.577 L 139.767 196.227 140.406 201.363 C 141.983 214.056, 142.222 220.744, 141.123 221.424 C 139.322 222.537, 139.806 223.588, 142.750 224.961 C 145.329 226.164, 145.375 226.294, 143.500 227.052 C 139.646 228.608, 138 228.144, 138 225.500 C 138 223.225, 137.617 223, 133.750 223 C 131.412 223, 126.125 223.626, 122 224.391 C 117.875 225.155, 109.550 226.084, 103.500 226.455 C 93.921 227.043, 92.010 227.466, 88.708 229.730 C 84.775 232.427, 84.292 234.525, 87.185 236.347 C 88.394 237.108, 89.523 237.067, 91.185 236.200 C 92.458 235.536, 94.850 235.044, 96.500 235.107 C 102.050 235.319, 125.467 233.120, 128.993 232.055 C 133.737 230.623, 140.711 230.723, 141.647 232.238 C 142.068 232.919, 142.538 237.306, 142.693 241.988 C 142.848 246.670, 143.337 254.080, 143.781 258.456 C 144.807 268.581, 143.769 269.989, 135.250 270.024 C 132.088 270.037, 127.700 270.473, 125.500 270.992 C 119.571 272.392, 101.376 273.418, 100.741 272.388 C 100.439 271.900, 99.678 266.325, 99.049 260 C 97.870 248.144, 96.640 245.157, 93.441 246.384 C 91.882 246.983, 91.786 248.469, 92.390 262.738 C 93.099 279.495, 94.343 283.990, 97.824 282.384 C 98.746 281.960, 104.900 281.237, 111.500 280.779 C 131.630 279.382, 134.281 279.146, 136.683 278.543 C 140.339 277.626, 144 278.942, 144 281.174 C 144 284.249, 145.860 286.991, 147.515 286.356 C 148.332 286.042, 149 284.795, 149 283.584 C 149 282.373, 149.607 280.553, 150.348 279.539 C 151.463 278.013, 152.454 277.818, 156.098 278.407 C 158.519 278.799, 166.282 279.506, 173.350 279.979 C 184.376 280.717, 186.521 281.140, 188.464 282.966 C 190.556 284.931, 191.049 284.995, 194.906 283.797 C 200.614 282.025, 201.536 278.667, 197.306 275.062 C 192.390 270.871, 187.325 249.998, 190.008 244.985 C 190.978 243.172, 190.899 242.471, 189.574 241.146 C 188.080 239.652, 187.768 239.758, 185.572 242.513 C 184.262 244.156, 182.633 245.500, 181.954 245.500 C 179.121 245.500, 178.495 248.808, 180.398 253.721 C 184.210 263.563, 185 266.094, 185.247 269.255 L 185.500 272.500 178.500 272.209 C 174.650 272.048, 169.475 271.511, 167 271.014 C 164.525 270.517, 159.980 269.837, 156.900 269.502 L 151.299 268.893 150.713 251.197 C 150.042 230.917, 150.193 230.446, 157.238 230.825 C 159.592 230.952, 162.792 230.366, 164.385 229.517 C 166.724 228.270, 167.557 228.217, 168.788 229.239 C 171.170 231.216, 193.869 230.902, 202.500 228.774 C 206.350 227.824, 210.805 226.924, 212.399 226.774 C 216.492 226.387, 217.812 223.888, 215.658 220.601 C 213.609 217.473, 211.339 217.335, 199.882 219.644 C 193.193 220.992, 189.876 221.113, 181.474 220.317 C 174.188 219.627, 168.519 219.688, 161.863 220.531 C 156.713 221.182, 151.924 221.501, 151.220 221.239 C 150.255 220.880, 150.009 217.779, 150.220 208.632 L 150.500 196.500 158.500 195.911 C 162.900 195.588, 169.135 194.769, 172.355 194.091 C 175.576 193.414, 179.962 193.156, 182.103 193.517 C 185.161 194.034, 186.127 193.832, 186.610 192.575 C 187.479 190.308, 185.648 188.511, 181.072 187.140 C 177.954 186.206, 174.734 186.254, 165.810 187.369 C 151.043 189.213, 138.697 188.850, 133.698 186.424 C 130.050 184.655, 129.921 184.424, 130.541 180.755 C 130.952 178.325, 130.744 176.397, 129.971 175.465 C 128.097 173.207, 127 173.716, 127 176.845 M 121 228.500 C 120.315 229.325, 118.685 230, 117.378 230 C 116.070 230, 115 230.360, 115 230.799 C 115 232.106, 122.359 230.895, 124.187 229.288 C 125.115 228.472, 126.311 228.074, 126.845 228.404 C 127.378 228.734, 128.869 228.582, 130.158 228.065 C 132.089 227.292, 131.600 227.116, 127.372 227.063 C 123.971 227.021, 121.826 227.505, 121 228.500 M 101.269 230.693 C 102.242 230.947, 103.592 230.930, 104.269 230.656 C 104.946 230.382, 104.150 230.175, 102.500 230.195 C 100.850 230.215, 100.296 230.439, 101.269 230.693 M 138 275 C 138 275.550, 137.250 276, 136.333 276 C 135.417 276, 134.946 276.279, 135.287 276.620 C 136.203 277.536, 143 276.069, 143 274.955 C 143 274.430, 141.875 274, 140.500 274 C 139.125 274, 138 274.450, 138 275 M 125.500 276 C 125.160 276.550, 125.584 277, 126.441 277 C 127.298 277, 128 276.550, 128 276 C 128 275.450, 127.577 275, 127.059 275 C 126.541 275, 125.840 275.450, 125.500 276 M 107.762 277.707 C 109.006 277.946, 110.806 277.937, 111.762 277.687 C 112.718 277.437, 111.700 277.241, 109.500 277.252 C 107.300 277.263, 106.518 277.468, 107.762 277.707" stroke="none" fill="black" fill-rule="evenodd"/>
</svg>