<svg xmlns="http://www.w3.org/2000/svg" width="300" height="300" viewBox="0 0 300 300" version="1.1">
	<path d="M 171.604 17.405 C 169.646 20.466, 166.733 25.568, 165.130 28.742 C 159.750 39.399, 149.374 51.502, 148.282 48.393 C 147.321 45.662, 145.657 44.681, 139.975 43.495 C 136.517 42.773, 133.172 42.381, 132.541 42.623 C 131.910 42.865, 129.745 42.374, 127.729 41.531 C 125.713 40.689, 122.916 40, 121.513 40 C 119.291 40, 119.043 40.323, 119.589 42.500 C 120.056 44.361, 119.821 45, 118.667 45 C 116.666 45, 115.497 43.103, 116.736 41.864 C 117.353 41.247, 117.124 39.659, 116.099 37.447 C 114.729 34.487, 114.142 34.085, 112 34.638 C 110.625 34.992, 108.535 35.228, 107.356 35.161 C 105.156 35.037, 102.234 37.568, 103.322 38.656 C 103.656 38.990, 103.457 40.147, 102.879 41.227 C 102.046 42.783, 102.243 43.578, 103.830 45.057 C 105.088 46.228, 105.635 47.681, 105.300 48.961 C 104.798 50.881, 105.211 51, 112.383 51 C 117.067 51, 120 50.593, 120 49.943 C 120 49.344, 120.944 49.548, 122.178 50.412 C 124.173 51.809, 124.471 51.772, 125.734 49.969 C 127.400 47.591, 133.482 47.251, 134.721 49.466 C 135.241 50.395, 136.359 50.719, 137.771 50.350 C 140.451 49.649, 140.616 48.493, 138.250 46.981 C 136.661 45.965, 136.684 45.909, 138.500 46.365 C 143.095 47.521, 148.454 49.863, 148.787 50.860 C 148.983 51.449, 147.723 53.996, 145.986 56.520 C 140.402 64.636, 144.605 66.835, 152.022 59.679 C 162.048 50.005, 172.340 36.990, 176.550 28.663 L 179.500 22.827 177.250 21.003 C 174.475 18.754, 174.412 18, 177 18 C 179.533 18, 179.574 15.829, 177.082 13.574 C 175.231 11.899, 175.040 12.033, 171.604 17.405 M 170.459 27.067 C 170.096 27.653, 170.040 28.373, 170.333 28.667 C 171.050 29.383, 173 28.121, 173 26.941 C 173 25.663, 171.274 25.748, 170.459 27.067 M 131.346 46.134 C 132.670 46.903, 133.505 46.895, 134.296 46.104 C 135.101 45.299, 134.601 45.008, 132.450 45.030 C 129.864 45.057, 129.728 45.193, 131.346 46.134 M 187.761 64.537 C 187.617 64.661, 181.875 65.056, 175 65.415 C 156.221 66.395, 141.972 67.700, 137.500 68.849 C 135.300 69.414, 124.063 70.103, 112.529 70.380 C 94.289 70.819, 91.395 71.106, 90.311 72.590 C 88.629 74.889, 89.524 76, 93.059 76 C 96.499 76, 97.042 77.713, 93.750 78.180 C 91.952 78.436, 91.558 79.052, 91.788 81.250 C 92.040 83.658, 91.729 84.002, 89.288 84.015 C 85.811 84.034, 83.619 85.357, 84.196 87.089 C 84.790 88.870, 94.998 89.023, 94.999 87.250 C 95 85.767, 98.612 85.563, 99.498 86.996 C 99.879 87.613, 101.329 87.328, 103.307 86.246 C 105.063 85.286, 108.525 84.429, 111 84.343 C 118.514 84.080, 125.281 83.012, 126.656 81.871 C 127.590 81.095, 128.859 81.104, 131.144 81.900 C 133.716 82.797, 134.651 82.721, 135.994 81.506 C 139.524 78.311, 140 79.563, 140 92.037 L 140 104.074 124.519 103.601 C 108.332 103.107, 106.385 103.558, 109.557 107.063 C 111.204 108.883, 111.206 109, 109.589 109 C 108.643 109, 106.962 108.515, 105.855 107.922 C 104.091 106.978, 103.881 107.121, 104.170 109.070 C 104.695 112.611, 107.179 113.562, 112.071 112.097 C 115.126 111.182, 115.937 110.579, 114.942 109.964 C 113.810 109.265, 113.872 108.986, 115.278 108.447 C 116.225 108.083, 117.732 108.067, 118.627 108.410 C 119.521 108.754, 120.802 108.579, 121.473 108.023 C 122.296 107.339, 124.579 107.360, 128.510 108.087 C 132.965 108.910, 134.875 108.869, 136.663 107.913 C 137.947 107.226, 139.317 106.983, 139.708 107.374 C 140.491 108.158, 140.200 135.243, 139.372 138.612 C 138.908 140.499, 137.893 140.797, 129.838 141.405 C 124.880 141.779, 118.726 142.482, 116.162 142.966 C 113.598 143.451, 103.850 144.121, 94.500 144.455 C 75.843 145.121, 72.632 145.540, 69.265 147.746 C 66.721 149.413, 66.420 151.653, 68.392 154.250 C 70.396 156.889, 74.110 156.365, 79.020 152.750 C 83.748 149.269, 85.446 148.984, 110 147.543 C 115.225 147.236, 121.525 146.755, 124 146.473 C 126.475 146.192, 133 145.739, 138.500 145.469 C 144 145.198, 149.850 144.736, 151.500 144.443 C 153.150 144.150, 156.975 143.468, 160 142.928 C 173.719 140.478, 178.919 140.156, 189.906 141.078 C 196.180 141.605, 202.125 141.778, 203.119 141.462 C 205.826 140.603, 209 142.735, 209 145.413 C 209 148.322, 211.064 150.197, 212.969 149.019 C 214.130 148.302, 214.146 147.881, 213.063 146.576 C 211.920 145.198, 212.148 145, 214.878 145 C 217.333 145, 218 144.573, 218 143 C 218 141.540, 217.333 141, 215.531 141 C 214.173 141, 211.311 140.087, 209.171 138.972 C 206.472 137.565, 203.629 136.997, 199.890 137.118 C 196.926 137.213, 191.350 136.951, 187.500 136.534 C 178.493 135.561, 180.234 135.490, 167 137.373 C 160.675 138.272, 153.745 139.248, 151.600 139.540 L 147.700 140.072 148.383 132.286 C 148.758 128.004, 149.340 120.177, 149.675 114.894 L 150.285 105.288 156.392 104.267 C 159.752 103.706, 164.975 102.554, 168 101.708 C 171.025 100.861, 174.738 100.408, 176.250 100.701 C 178.509 101.138, 179 100.877, 179 99.239 C 179 96.521, 176.489 94.646, 173.756 95.323 C 166.430 97.137, 162.304 98.334, 160.837 99.072 C 159.923 99.532, 156.953 100.203, 154.238 100.563 L 149.301 101.218 148.603 91.090 C 148.220 85.519, 148.179 80.520, 148.512 79.981 C 148.845 79.441, 150.054 79, 151.199 79 C 152.343 79, 153.864 78.213, 154.579 77.250 C 155.644 75.815, 156.228 75.714, 157.824 76.687 C 160.145 78.102, 163.466 77.417, 167.327 74.725 C 169.456 73.241, 170.438 73.038, 171.303 73.903 C 172.168 74.768, 172.866 74.503, 174.130 72.827 C 175.534 70.966, 176.927 70.559, 182.654 70.336 C 186.805 70.174, 188.951 70.409, 188.104 70.934 C 185.420 72.596, 187.656 74.663, 192.328 74.839 C 196.661 75.003, 200 73.301, 200 70.929 C 200 70.418, 200.914 70, 202.031 70 C 204.268 70, 205.785 67.385, 204.369 65.969 C 203.602 65.202, 188.498 63.900, 187.761 64.537 M 179 72.059 C 179 72.641, 179.450 72.840, 180 72.500 C 180.550 72.160, 181 71.684, 181 71.441 C 181 71.198, 180.550 71, 180 71 C 179.450 71, 179 71.477, 179 72.059 M 137.565 74.895 C 137.260 75.388, 137.684 76.048, 138.506 76.364 C 139.413 76.712, 140 76.361, 140 75.469 C 140 73.851, 138.437 73.483, 137.565 74.895 M 102.250 75.731 C 100.799 76.237, 100.580 78.622, 101.910 79.444 C 103.261 80.279, 106 78.978, 106 77.500 C 106 76.012, 104.063 75.098, 102.250 75.731 M 117 76.840 C 117 77.308, 117.787 78.402, 118.750 79.273 C 120.220 80.603, 121.180 80.675, 124.750 79.722 C 130.999 78.053, 130.140 76.287, 123 76.126 C 119.700 76.051, 117 76.373, 117 76.840 M 108 87.941 C 108 89.617, 109.774 90.033, 110.364 88.494 C 110.712 87.587, 110.361 87, 109.469 87 C 108.661 87, 108 87.423, 108 87.941 M 82.667 92.667 C 81.399 93.934, 82.008 95, 84 95 C 85.111 95, 86 94.333, 86 93.500 C 86 91.978, 83.885 91.449, 82.667 92.667 M 125 112 C 125 112.550, 126.323 113, 127.941 113 C 129.559 113, 131.160 112.550, 131.500 112 C 131.868 111.405, 130.677 111, 128.559 111 C 126.602 111, 125 111.450, 125 112 M 201.250 146.250 C 201.479 146.938, 202.267 147.500, 203 147.500 C 203.733 147.500, 204.521 146.938, 204.750 146.250 C 204.998 145.506, 204.289 145, 203 145 C 201.711 145, 201.002 145.506, 201.250 146.250 M 162.916 149.157 C 161.462 151.873, 161.403 168.093, 162.834 171.755 C 163.424 173.265, 164.389 182.375, 164.979 192 C 165.569 201.625, 166.519 214, 167.089 219.500 C 167.659 225, 168.266 238.500, 168.438 249.500 C 168.726 267.928, 169.605 274.778, 171.725 275.128 C 178.666 276.271, 180.794 275.616, 181.188 272.215 C 181.477 269.722, 181.866 269.513, 186.500 269.358 C 189.250 269.265, 198.475 268.216, 207 267.026 C 215.525 265.836, 227.900 264.541, 234.500 264.148 C 241.100 263.755, 247.031 263.104, 247.681 262.700 C 249.388 261.641, 250.388 263.828, 248.974 265.531 C 247.663 267.111, 248.316 270, 249.985 270 C 250.561 270, 251.780 268.432, 252.694 266.516 C 254.003 263.770, 254.117 262.552, 253.230 260.766 C 251.776 257.838, 250.270 249.459, 249.498 240 C 248.776 231.146, 246.146 216.853, 245.022 215.666 C 244.587 215.207, 243.504 215.870, 242.616 217.138 C 241.258 219.077, 241 222.663, 241 239.618 L 241 259.790 232.911 259.843 C 228.462 259.873, 222.499 260.350, 219.661 260.905 C 205.721 263.629, 201.630 264.167, 190.750 264.709 C 184.065 265.042, 178.967 264.908, 178.924 264.397 C 178.882 263.904, 178.420 254.950, 177.897 244.500 C 177.374 234.050, 176.551 221.225, 176.068 216 C 175.585 210.775, 174.693 200.650, 174.084 193.500 C 173.476 186.350, 172.552 178.700, 172.031 176.500 C 171.510 174.300, 170.792 167.550, 170.435 161.500 C 170.078 155.450, 169.369 149.713, 168.858 148.750 C 167.576 146.333, 164.308 146.556, 162.916 149.157 M 77.813 150.683 C 78.534 150.972, 79.397 150.936, 79.729 150.604 C 80.061 150.272, 79.471 150.036, 78.417 150.079 C 77.252 150.127, 77.015 150.364, 77.813 150.683 M 116 156.441 C 116 157.784, 115.543 159.164, 114.985 159.509 C 114.351 159.901, 114.032 166.593, 114.135 177.318 C 114.300 194.455, 114.292 194.522, 111.061 203 C 109.279 207.675, 107.118 213.525, 106.259 216 C 105.399 218.475, 104.171 221.175, 103.529 222 C 102.887 222.825, 100.478 226.733, 98.175 230.684 C 95.873 234.635, 93.429 238.460, 92.745 239.184 C 92.060 239.908, 90.169 242.300, 88.542 244.500 C 86.915 246.700, 84.440 249.668, 83.042 251.095 C 81.644 252.522, 79.551 254.772, 78.390 256.095 C 77.230 257.418, 75.092 259.478, 73.640 260.674 C 70.629 263.154, 70.466 263.888, 72.352 266.467 C 73.666 268.264, 73.776 268.262, 76.222 266.417 C 77.607 265.373, 79.435 263.307, 80.285 261.827 C 81.134 260.346, 83.439 258.310, 85.406 257.300 C 88.708 255.606, 92.487 251.424, 106.460 234 C 112.548 226.408, 113.490 224.767, 116.113 217.172 C 117.190 214.052, 119.269 208.125, 120.733 204 C 123.205 197.034, 123.394 195.326, 123.391 180 C 123.388 164.993, 123.185 163.070, 121.147 158.750 C 118.730 153.625, 116 152.401, 116 156.441 M 118.079 165.583 C 118.127 166.748, 118.364 166.985, 118.683 166.188 C 118.972 165.466, 118.936 164.603, 118.604 164.271 C 118.272 163.939, 118.036 164.529, 118.079 165.583 M 118.667 171.667 C 117.629 172.704, 117.883 176, 119 176 C 119.550 176, 120 174.875, 120 173.500 C 120 170.882, 119.769 170.564, 118.667 171.667 M 118.667 186.667 C 117.629 187.704, 117.883 191, 119 191 C 119.550 191, 120 189.875, 120 188.500 C 120 185.882, 119.769 185.564, 118.667 186.667 M 109.336 217.567 C 109.005 218.429, 109.244 219.644, 109.867 220.267 C 110.694 221.094, 111 221.097, 111 220.282 C 111 219.667, 111.273 218.452, 111.607 217.582 C 111.941 216.710, 111.703 216, 111.076 216 C 110.449 216, 109.667 216.705, 109.336 217.567 M 104.959 227.076 C 103.943 228.975, 104.025 229.057, 105.924 228.041 C 108.058 226.898, 108.752 225, 107.035 225 C 106.505 225, 105.570 225.934, 104.959 227.076 M 171 226.500 C 171 227.325, 171.450 228, 172 228 C 172.550 228, 173 227.325, 173 226.500 C 173 225.675, 172.550 225, 172 225 C 171.450 225, 171 225.675, 171 226.500" stroke="none" fill="black" fill-rule="evenodd"/>
</svg>