<svg xmlns="http://www.w3.org/2000/svg" width="300" height="300" viewBox="0 0 300 300" version="1.1">
	<path d="M 213.942 17.948 C 212.534 18.375, 210.403 19.249, 209.204 19.891 C 205.971 21.621, 192.673 25.004, 183 26.557 C 178.325 27.307, 170.900 28.639, 166.500 29.516 C 162.100 30.393, 156.700 30.877, 154.500 30.591 C 149.568 29.949, 133.335 31.744, 130.185 33.279 C 128.539 34.082, 127.672 34.096, 127.185 33.330 C 125.979 31.432, 95.818 29.803, 89.860 31.313 C 85.872 32.325, 85.589 34.666, 89.048 38.047 C 91.776 40.713, 92.709 41, 98.657 41 C 104.400 41, 105.085 40.808, 104 39.500 C 103.315 38.675, 101.878 38, 100.806 38 C 99.074 38, 99.024 37.833, 100.357 36.500 C 102.176 34.682, 105.955 34.517, 106.115 36.250 C 106.179 36.938, 106.291 38.103, 106.365 38.840 C 106.621 41.390, 113.849 42.819, 126.740 42.869 C 133.657 42.895, 139.761 43.361, 140.303 43.903 C 140.951 44.551, 140.867 45.907, 140.059 47.858 C 139.303 49.682, 139.010 53.463, 139.298 57.663 C 139.887 66.262, 140.645 69.556, 143.096 74.177 C 145.572 78.845, 144.974 79.223, 134.608 79.545 C 121.274 79.958, 113.636 81.019, 111.758 82.719 C 109.704 84.578, 109.331 91.595, 111.250 92.279 C 111.938 92.524, 114.075 92.149, 116 91.447 C 118.024 90.709, 126.853 89.915, 136.936 89.566 C 146.526 89.233, 154.609 88.725, 154.898 88.435 C 155.188 88.146, 154.869 87.019, 154.189 85.932 C 153.172 84.302, 153.222 83.852, 154.477 83.370 C 156.360 82.648, 159 83.581, 159 84.969 C 159 85.536, 158.287 86, 157.417 86 C 156.546 86, 156.012 86.535, 156.230 87.189 C 156.751 88.752, 165.997 90.801, 169.929 90.224 C 171.667 89.969, 173.713 90.347, 174.607 91.089 C 176.806 92.914, 194.235 92.447, 198.076 90.461 C 199.630 89.657, 201.733 89, 202.750 89 C 207.194 89, 208.428 84.102, 204.513 82.007 C 202.542 80.952, 201.220 80.917, 198.147 81.838 C 193.017 83.375, 188.088 83.303, 178.978 81.560 C 174.841 80.769, 170.096 80.159, 168.435 80.207 C 166.774 80.254, 164.485 79.795, 163.348 79.186 C 162.211 78.578, 159.667 78.342, 157.695 78.662 C 155.722 78.982, 152.972 78.959, 151.583 78.610 C 149.369 78.055, 149.174 77.671, 150.001 75.497 C 150.991 72.894, 150.377 69.987, 148.586 68.795 C 148.004 68.407, 147.225 65.032, 146.856 61.295 C 146.093 53.572, 144.021 44.786, 142.756 43.912 C 140.789 42.552, 145.064 41.234, 153.221 40.687 C 158.017 40.365, 162.872 39.604, 164.009 38.995 C 168.570 36.554, 171.650 40.385, 168.798 44.952 C 167.842 46.482, 167.893 47.431, 169.043 49.581 C 170.050 51.462, 170.460 55.285, 170.389 62.142 C 170.289 71.828, 170.328 72, 172.618 72 C 176.617 72, 177.898 67.778, 177.962 54.391 C 177.993 47.851, 177.756 41.363, 177.436 39.973 C 176.884 37.583, 177.170 37.379, 182.676 36.238 C 185.879 35.575, 190.750 34.743, 193.500 34.390 C 196.250 34.037, 198.950 33.449, 199.500 33.084 C 200.050 32.718, 203.200 31.569, 206.500 30.529 C 209.800 29.490, 213.240 28.019, 214.144 27.260 C 215.184 26.388, 217.572 25.995, 220.644 26.191 L 225.500 26.500 225.605 33 C 225.663 36.575, 226.275 41.975, 226.964 45 C 228.549 51.951, 228.314 62.229, 226.443 67.785 C 225.649 70.142, 225 73.573, 225 75.409 C 225 77.246, 224.325 80.662, 223.500 83 C 221.608 88.361, 221.522 94, 223.331 94 C 225.001 94, 226.665 90.655, 227.496 85.627 C 227.849 83.497, 228.538 81.022, 229.028 80.127 C 229.518 79.232, 230.412 76.250, 231.014 73.500 C 231.616 70.750, 232.761 65.800, 233.559 62.500 C 236.642 49.743, 237.149 45.288, 236.830 33.752 C 236.508 22.099, 236.435 21.766, 233.694 19.411 C 231.264 17.323, 229.925 17.012, 223.694 17.086 C 219.737 17.133, 215.349 17.521, 213.942 17.948 M 214.559 21.532 C 212.662 22.967, 212.668 23, 214.809 23 C 216.090 23, 217 22.377, 217 21.500 C 217 19.690, 216.993 19.691, 214.559 21.532 M 208 24 C 208 24.550, 208.423 25, 208.941 25 C 209.459 25, 210.160 24.550, 210.500 24 C 210.840 23.450, 210.416 23, 209.559 23 C 208.702 23, 208 23.450, 208 24 M 193.589 28.856 C 193.298 29.326, 194.172 29.499, 195.530 29.239 C 196.889 28.979, 198 28.594, 198 28.383 C 198 27.610, 194.101 28.027, 193.589 28.856 M 165.261 33.435 L 163.022 34.674 165.415 35.955 C 168.218 37.455, 170 36.672, 170 33.941 C 170 31.761, 168.564 31.607, 165.261 33.435 M 141.500 35.106 C 138.750 35.585, 134.604 35.708, 132.287 35.380 C 127.935 34.764, 124.132 36.787, 125.495 38.992 C 126.343 40.363, 134.712 40.275, 135.571 38.886 C 135.970 38.239, 137.782 37.976, 139.889 38.258 C 142.619 38.624, 144.377 38.157, 146.981 36.373 C 150.815 33.746, 150.168 33.596, 141.500 35.106 M 152.171 36 C 152.773 37.823, 158.157 38.028, 158.750 36.250 C 158.979 35.563, 158.492 35, 157.667 35 C 156.842 35, 155.977 35.563, 155.746 36.250 C 155.425 37.203, 154.891 37.143, 153.500 36 C 151.878 34.667, 151.730 34.667, 152.171 36 M 93.750 37.662 C 94.438 37.940, 95.563 37.940, 96.250 37.662 C 96.938 37.385, 96.375 37.158, 95 37.158 C 93.625 37.158, 93.063 37.385, 93.750 37.662 M 79.161 40.547 C 78.522 41.948, 78.026 44.085, 78.058 45.297 C 78.122 47.771, 81.203 59.956, 82.153 61.500 C 82.492 62.050, 83.102 64.508, 83.508 66.962 C 83.915 69.415, 84.618 72.115, 85.071 72.962 C 85.524 73.808, 86.844 77.724, 88.004 81.665 C 90.101 88.785, 91.516 90.535, 93.956 89.027 C 96.784 87.280, 92.476 59.449, 88.068 50.988 C 87.635 50.156, 86.530 46.894, 85.612 43.738 C 83.748 37.324, 81.203 36.065, 79.161 40.547 M 127 84.500 C 127 85.325, 127.413 86, 127.918 86 C 128.423 86, 129.593 86.290, 130.517 86.645 C 132.006 87.216, 132.045 87.044, 130.858 85.145 C 129.317 82.677, 127 82.289, 127 84.500 M 82.750 123.717 C 81.787 123.953, 81 125.032, 81 126.115 C 81 129.369, 84.177 131.768, 89.500 132.533 C 92.250 132.929, 94.950 133.582, 95.500 133.984 C 97.630 135.544, 106.533 138, 110.056 138 C 112.117 138, 114.304 137.339, 114.994 136.507 C 115.881 135.438, 117.302 135.185, 119.991 135.615 C 124.139 136.278, 125.508 135.177, 124.497 131.991 C 123.955 130.282, 122.978 130, 117.600 130 C 113.467 130, 108.298 129.031, 102.417 127.153 C 93.318 124.248, 85.883 122.949, 82.750 123.717 M 222.754 134.750 C 221.885 138.620, 223.244 162.970, 224.719 169.958 C 225.942 175.749, 226.154 180.636, 225.671 191.820 C 225.272 201.054, 225.421 206.919, 226.086 208.160 C 226.656 209.226, 227.537 214.688, 228.044 220.299 C 228.551 225.909, 229.403 233.875, 229.939 238 C 230.474 242.125, 230.932 248.615, 230.956 252.421 C 230.985 256.909, 231.496 259.898, 232.410 260.921 C 234.793 263.590, 234.849 268, 232.500 268 C 230.758 268, 230.446 272.046, 232.063 273.663 C 232.648 274.248, 233.440 276.926, 233.822 279.613 C 234.379 283.523, 234.934 284.560, 236.596 284.798 C 241.186 285.457, 241.343 283.711, 239.029 257.780 C 237.838 244.426, 236.488 230.350, 236.029 226.500 C 233.286 203.461, 232.835 198.221, 232.543 186 C 232.366 178.575, 231.671 167.775, 230.999 162 C 230.326 156.225, 230.007 148.042, 230.289 143.815 C 230.719 137.374, 230.522 135.878, 229.072 134.565 C 226.754 132.467, 223.243 132.570, 222.754 134.750 M 124 149.060 C 119.325 149.472, 107.109 149.871, 96.852 149.945 C 78.538 150.078, 78.158 150.125, 75.562 152.530 C 73.348 154.582, 73.098 155.314, 74.020 157.038 C 75.924 160.595, 84.196 162.404, 86.773 159.827 C 87.667 158.933, 88.553 158.931, 90.502 159.819 C 92.359 160.665, 94.896 160.711, 99.779 159.987 C 103.476 159.438, 109.875 158.568, 114 158.053 C 128.806 156.206, 138 153.570, 138 151.174 C 138 149.797, 135.643 147.996, 134.050 148.155 C 133.197 148.240, 128.675 148.647, 124 149.060 M 115.813 153.683 C 116.534 153.972, 117.397 153.936, 117.729 153.604 C 118.061 153.272, 117.471 153.036, 116.417 153.079 C 115.252 153.127, 115.015 153.364, 115.813 153.683 M 177.449 167.468 C 175.604 171.883, 175.610 175.102, 177.468 177.559 C 178.276 178.626, 178.951 180.486, 178.968 181.691 C 178.986 182.896, 179.450 184.160, 180 184.500 C 180.550 184.840, 181 186.260, 181 187.655 C 181 189.050, 181.620 191.386, 182.378 192.846 C 183.135 194.306, 184.157 196.850, 184.648 198.500 C 185.576 201.619, 189.893 203.453, 190.107 200.820 C 190.895 191.104, 188.617 174.822, 185.409 167.250 C 183.428 162.573, 179.449 162.682, 177.449 167.468 M 120.833 175.501 C 120.558 175.776, 115.645 176.032, 109.916 176.069 C 104.187 176.107, 97.475 176.591, 95 177.146 C 92.525 177.700, 87.621 178.367, 84.101 178.628 C 75.554 179.262, 72 181.140, 72 185.026 C 72 186.676, 72.556 188.052, 73.250 188.117 C 78.440 188.604, 92.573 187.670, 97.500 186.516 C 100.800 185.743, 106.425 184.825, 110 184.476 C 120.067 183.494, 127 180.506, 127 177.149 C 127 175.582, 122.069 174.264, 120.833 175.501 M 182.079 177.583 C 182.127 178.748, 182.364 178.985, 182.683 178.188 C 182.972 177.466, 182.936 176.603, 182.604 176.271 C 182.272 175.939, 182.036 176.529, 182.079 177.583 M 116.500 203.059 C 97.711 205.979, 93.939 206.019, 79.890 203.445 C 76.907 202.899, 75.907 203.183, 74.140 205.080 C 70.440 209.051, 71.320 210.530, 78.813 212.940 C 84.091 214.637, 86.852 214.981, 91.063 214.466 C 94.053 214.101, 98.550 213.684, 101.056 213.540 C 103.561 213.396, 106.486 212.818, 107.556 212.255 C 108.625 211.693, 111.525 210.925, 114 210.549 C 125.567 208.791, 131.320 205.945, 129.444 202.910 C 128.802 201.870, 123.775 201.928, 116.500 203.059 M 70.250 227.651 C 69.563 227.935, 69 228.707, 69 229.368 C 69 230.028, 67.607 231.392, 65.903 232.398 C 62.958 234.138, 62.839 234.453, 63.458 238.864 C 63.903 242.028, 64.886 244.147, 66.555 245.538 C 68.031 246.768, 69 248.635, 69 250.251 C 69 251.722, 69.900 255.209, 71 258 C 72.100 260.791, 73.002 264.070, 73.005 265.287 C 73.008 266.504, 74.079 268.837, 75.387 270.471 C 77.438 273.034, 77.985 273.258, 79.375 272.104 C 80.599 271.087, 80.835 269.774, 80.357 266.633 C 79.008 257.780, 77.068 249.668, 76.058 248.658 C 74.825 247.425, 74.624 243, 75.800 243 C 76.240 243, 77.101 243.501, 77.713 244.113 C 78.369 244.769, 80.405 244.990, 82.663 244.651 C 96.914 242.513, 100.826 242.251, 105 243.153 C 107.475 243.688, 112.095 244.377, 115.266 244.684 C 118.437 244.991, 121.289 245.658, 121.602 246.165 C 121.916 246.673, 121.352 248.306, 120.348 249.794 C 117.360 254.227, 116.065 256.411, 115.450 258.056 C 115.130 258.911, 113.436 260.211, 111.684 260.943 C 104.992 263.743, 101.447 264.971, 100 264.991 C 99.175 265.003, 97.211 265.685, 95.636 266.506 C 94.060 267.328, 91.463 268, 89.864 268 C 86.036 268, 83.757 272.186, 86.236 274.665 C 87.541 275.969, 88.400 276.056, 91.005 275.148 C 93.588 274.248, 94.471 274.328, 95.720 275.578 C 96.611 276.468, 97.940 276.827, 98.879 276.430 C 99.771 276.053, 102.750 274.874, 105.500 273.810 C 108.250 272.746, 112.525 270.963, 115 269.847 C 122.423 266.503, 123.268 266.188, 129.250 264.534 C 133.904 263.247, 135 262.547, 135 260.859 C 135 259.103, 134.518 258.844, 131.956 259.220 C 128.028 259.796, 127.406 258.654, 129.793 255.243 C 132.264 251.711, 133.374 242.351, 131.715 239.041 C 129.664 234.951, 123.757 233.885, 103 233.860 C 92.217 233.847, 83.339 234.284, 81.717 234.907 C 78.010 236.331, 75.191 234.555, 74.798 230.547 C 74.506 227.581, 72.899 226.557, 70.250 227.651 M 109.079 237.583 C 109.127 238.748, 109.364 238.985, 109.683 238.188 C 109.972 237.466, 109.936 236.603, 109.604 236.271 C 109.272 235.939, 109.036 236.529, 109.079 237.583 M 187 264.326 C 187 267.151, 189.998 270.063, 196 273.068 C 198.475 274.307, 201.850 276.276, 203.500 277.444 C 210.618 282.483, 218.909 284.086, 224.393 281.484 C 226.377 280.542, 227.988 279.261, 227.974 278.636 C 227.945 277.338, 221.211 274, 218.621 274 C 217.672 274, 213.672 272.332, 209.732 270.292 C 202.665 266.635, 190.684 262.013, 188.250 262.004 C 187.563 262.002, 187 263.047, 187 264.326" stroke="none" fill="black" fill-rule="evenodd"/>
</svg>