<svg xmlns="http://www.w3.org/2000/svg" width="300" height="300" viewBox="0 0 300 300" version="1.1">
	<path d="M 57.963 36.350 C 57.304 38.083, 56.143 40.918, 55.383 42.651 C 54.622 44.384, 54 47.620, 54 49.842 C 54 52.064, 53.550 54.160, 53 54.500 C 52.450 54.840, 52 56.467, 52 58.117 C 52 59.766, 50.846 63.183, 49.435 65.710 C 46.173 71.553, 44.947 80, 47.361 80 C 48.502 80, 49 80.879, 49 82.893 C 49 86.744, 46.265 87.828, 44.993 84.481 C 43.251 79.900, 41 82.118, 41 88.415 C 41 90.203, 40.701 91.965, 40.336 92.330 C 39.074 93.592, 36 103.434, 36 106.212 C 36 107.745, 35.487 109, 34.860 109 C 33.097 109, 31.067 112.221, 31.032 115.076 C 31.014 116.498, 29.881 118.703, 28.500 120 C 25.762 122.573, 25.184 126.473, 27.414 127.329 C 29.032 127.949, 36 122.391, 36 120.480 C 36 119.784, 36.575 118.993, 37.277 118.724 C 38.877 118.110, 47 101.714, 47 99.099 C 47 98.494, 47.450 98, 48 98 C 48.550 98, 49 97.381, 49 96.624 C 49 95.868, 50.043 92.830, 51.319 89.874 C 52.594 86.918, 54.437 81.575, 55.413 78 C 56.389 74.425, 57.565 70.768, 58.026 69.873 C 58.486 68.978, 59.182 66.545, 59.572 64.466 C 60.626 58.851, 62.348 55.979, 64.037 57.023 C 64.810 57.501, 65.122 58.212, 64.730 58.604 C 63.679 59.654, 65.964 62, 68.039 62 C 69.026 62, 70.005 61.485, 70.214 60.857 C 70.498 60.005, 71.157 60.014, 72.798 60.892 C 75.081 62.114, 75.852 66.355, 74 67.500 C 73.450 67.840, 72.989 70.004, 72.976 72.309 C 72.963 74.614, 72.476 78.300, 71.894 80.500 C 69.981 87.729, 69.756 90.002, 70.828 91.293 C 71.497 92.099, 71.545 93.105, 70.958 94.034 C 70.328 95.030, 70.026 95.099, 70.015 94.250 C 69.982 91.493, 67.190 93.179, 66.703 96.250 C 66.120 99.927, 64.184 105.944, 59.926 117.314 C 58.317 121.612, 57 125.999, 57 127.064 C 57 130.048, 52.586 129.560, 50.015 126.292 C 47.273 122.806, 44.634 124.145, 44.196 129.245 C 43.939 132.238, 44.374 133.130, 47.002 135.001 C 50.759 137.677, 50.564 139.510, 45.437 149.688 C 43.550 153.435, 42.005 157.301, 42.003 158.281 C 42.001 159.260, 40.200 163.238, 38 167.120 C 35.800 171.003, 34 174.541, 34 174.983 C 34 175.424, 33.325 176.045, 32.500 176.362 C 31.675 176.678, 31 178.095, 31 179.510 C 31 181.516, 29.899 182.767, 26 185.191 C 20.671 188.503, 19.745 190.467, 23.022 191.507 C 25.721 192.364, 31 191.141, 31 189.660 C 31 189.011, 32.125 187.266, 33.500 185.783 C 34.875 184.301, 36 182.821, 36 182.496 C 36 182.171, 37.027 180.913, 38.283 179.702 C 41.541 176.559, 44 172.402, 44 170.035 C 44 168.916, 44.348 168, 44.773 168 C 45.198 168, 46.431 166.313, 47.513 164.250 C 48.595 162.188, 49.745 160.275, 50.069 160 C 50.970 159.234, 54 152.823, 54 151.684 C 54 150.448, 60.165 140.630, 61.232 140.167 C 61.654 139.983, 62.014 138.633, 62.032 137.167 C 62.049 135.700, 62.724 133.626, 63.532 132.559 C 64.339 131.491, 65 129.783, 65 128.763 C 65 127.743, 66.125 124.795, 67.500 122.212 C 68.875 119.629, 70 116.815, 70 115.958 C 70 115.101, 70.358 113.972, 70.795 113.450 C 71.232 112.927, 72.416 109.800, 73.426 106.500 C 74.437 103.200, 75.910 98.925, 76.699 97 C 77.489 95.075, 78.500 92.600, 78.945 91.500 C 79.987 88.928, 81.917 80.569, 83.032 73.801 C 83.513 70.885, 84.424 65.900, 85.057 62.723 C 86.782 54.064, 85.519 52.658, 75.699 52.314 C 71.513 52.168, 67.817 52.487, 67.485 53.024 C 66.502 54.615, 65.180 54.143, 64.484 51.951 C 64.111 50.773, 64.471 48.931, 65.331 47.618 C 67.439 44.400, 68.520 36.331, 67.075 34.591 C 66.441 33.826, 64.400 33.200, 62.540 33.200 C 59.668 33.200, 58.980 33.674, 57.963 36.350 M 253.009 45.607 C 249.989 46.419, 247.086 47.514, 246.559 48.041 C 246.031 48.569, 243.418 49, 240.750 49 C 238.083 49, 234.516 49.716, 232.823 50.592 C 231.130 51.467, 228.099 52.306, 226.087 52.456 C 220.903 52.843, 218 53.921, 218 55.460 C 218 57.197, 220.586 58.142, 223.404 57.435 C 224.810 57.082, 226.147 57.472, 226.984 58.480 C 228.683 60.528, 232.939 59.695, 238.405 56.244 C 241.670 54.183, 242.694 53.952, 244.254 54.927 C 246.212 56.150, 251.961 54.960, 254.737 52.758 C 255.418 52.218, 256.655 52.037, 257.487 52.357 C 258.788 52.856, 259 56.858, 259 80.863 C 259 96.222, 258.566 113.223, 258.036 118.644 C 256.499 134.367, 256.530 139.759, 258.517 203.735 C 259.112 222.886, 259.001 228.294, 257.985 229.518 C 256.855 230.879, 256.368 230.670, 253.943 227.783 L 251.185 224.500 250.544 227.012 C 250.095 228.771, 250.813 231.321, 252.939 235.512 C 254.608 238.806, 255.980 242.457, 255.987 243.628 C 255.994 244.798, 256.675 246.315, 257.500 247 C 258.325 247.685, 259 248.793, 259 249.462 C 259 251.347, 263.741 253.216, 264.708 251.712 C 267.778 246.935, 270.081 227.750, 269.416 212.500 C 269.224 208.100, 269.041 169.850, 269.008 127.500 C 268.970 76.485, 268.595 49.403, 267.897 47.250 C 266.927 44.253, 266.520 44.005, 262.672 44.066 C 260.378 44.102, 256.029 44.796, 253.009 45.607 M 180.500 53.936 C 173.543 55.873, 172.299 56.335, 165.313 59.586 C 162.460 60.914, 159.325 62, 158.346 62 C 156.693 62, 150.151 64.073, 145.500 66.071 C 144.400 66.543, 142.180 67.058, 140.566 67.215 C 138.259 67.439, 137.459 68.141, 136.821 70.500 C 136.375 72.150, 136.303 74.175, 136.662 75 C 137.113 76.036, 137.499 75.572, 137.912 73.500 C 138.384 71.131, 139.103 70.432, 141.329 70.176 C 143.953 69.875, 144.067 70.006, 142.971 72.054 C 140.755 76.194, 145.462 76.794, 153.575 73.404 C 155.384 72.649, 157.146 71.573, 157.491 71.015 C 157.836 70.457, 159.201 70, 160.525 70 C 161.849 70, 164.410 69.363, 166.216 68.583 C 168.022 67.804, 171.143 66.454, 173.151 65.583 C 175.159 64.713, 177.313 64, 177.937 64 C 179.253 64, 178.453 91.792, 177.016 96 C 175.932 99.171, 174.776 115.117, 174.550 130 C 174.176 154.676, 172.841 181.703, 171.792 185.837 C 171.161 188.325, 170.651 200.258, 170.596 213.837 C 170.501 237.302, 170.482 237.503, 168.336 237.808 C 166.887 238.015, 165.964 237.461, 165.542 236.132 C 165.195 235.040, 163.236 232.427, 161.187 230.324 C 159.138 228.221, 156.346 225.042, 154.981 223.259 C 148.944 215.373, 147.998 223.090, 153.936 231.789 C 157.972 237.701, 163.197 243, 164.991 243 C 165.546 243, 166 243.675, 166 244.500 C 166 245.325, 166.450 246, 167 246 C 167.550 246, 168 246.491, 168 247.090 C 168 247.690, 169.238 249.930, 170.750 252.069 C 172.701 254.827, 174.239 255.964, 176.044 255.979 C 178.339 255.998, 178.704 255.439, 179.785 250.250 C 180.444 247.088, 181.177 233.700, 181.413 220.500 C 181.650 207.300, 182.075 193.800, 182.358 190.500 C 183.446 177.808, 185.231 144.486, 186.054 121.500 C 186.849 99.296, 189.021 69.284, 190.556 59.281 C 191.036 56.159, 190.806 54.663, 189.674 53.531 C 187.914 51.771, 188.350 51.752, 180.500 53.936 M 67 56.924 C 67 57.398, 67.675 58.045, 68.500 58.362 C 69.325 58.678, 70 58.549, 70 58.076 C 70 57.602, 69.325 56.955, 68.500 56.638 C 67.675 56.322, 67 56.451, 67 56.924 M 157.500 66 C 157.160 66.550, 155.221 67.045, 153.191 67.100 C 149.962 67.187, 149.813 67.290, 152 67.927 C 154.701 68.712, 160 67.372, 160 65.902 C 160 64.686, 158.270 64.754, 157.500 66 M 96.430 125.667 C 92.836 130.166, 89.790 137.711, 90.331 140.777 C 90.620 142.412, 89.924 143.630, 87.866 145.095 C 86.290 146.218, 85 147.781, 85 148.568 C 85 149.356, 84.563 150, 84.029 150 C 83.112 150, 78 160.095, 78 161.907 C 78 162.374, 77.325 163.315, 76.500 164 C 75.675 164.685, 75 166.255, 75 167.490 C 75 168.725, 73.433 172.796, 71.517 176.536 C 69.099 181.258, 68.339 183.703, 69.030 184.536 C 69.713 185.359, 69.550 186.128, 68.512 186.990 C 67.391 187.921, 67 187.940, 67 187.063 C 67 186.414, 66.550 186.160, 66 186.500 C 65.450 186.840, 65 187.891, 65 188.837 C 65 189.782, 64.124 191.306, 63.054 192.222 C 61.983 193.139, 60.625 195.679, 60.036 197.867 C 59.447 200.055, 58.635 201.992, 58.232 202.173 C 57.830 202.353, 56.744 203.850, 55.821 205.500 C 54.531 207.806, 53.257 208.616, 50.321 209 L 46.500 209.500 46.811 214.358 C 47.060 218.230, 46.603 220.001, 44.561 223.087 C 43.153 225.215, 42 227.379, 42 227.895 C 42 228.410, 40.220 230.242, 38.044 231.965 C 34.453 234.809, 34.191 235.325, 35.204 237.549 C 36.297 239.947, 39 240.980, 39 239 C 39 238.450, 39.510 238, 40.134 238 C 41.823 238, 45.619 233.335, 50.100 225.750 C 54.292 218.656, 55.330 217.889, 56.874 220.750 C 57.915 222.678, 65.528 225.410, 67.119 224.426 C 67.671 224.085, 69.558 223.580, 71.311 223.305 C 76.734 222.451, 77.438 219.026, 72.425 217.886 C 65.043 216.205, 57.968 210.932, 60.705 209.149 C 61.253 208.792, 62.961 206.475, 64.500 204 C 66.039 201.525, 67.573 199.275, 67.909 199 C 68.612 198.424, 73.919 190.465, 75.578 187.500 C 76.193 186.400, 77.712 183.585, 78.952 181.245 C 80.192 178.905, 81.611 176.741, 82.104 176.436 C 82.597 176.131, 83 174.874, 83 173.641 C 83 172.408, 83.358 170.972, 83.795 170.450 C 84.232 169.927, 85.448 166.800, 86.498 163.500 C 87.547 160.200, 89.439 156.108, 90.703 154.406 C 91.966 152.704, 93 150.986, 93 150.589 C 93 150.192, 94.125 148.392, 95.500 146.589 C 96.875 144.786, 98 142.852, 98 142.291 C 98 141.730, 99.343 139.748, 100.985 137.886 C 105.329 132.958, 107.254 128.435, 106.490 124.953 C 105.934 122.423, 105.377 122, 102.600 122 C 100.068 122, 98.719 122.801, 96.430 125.667 M 245.632 135.701 C 245.247 136.087, 242.584 136.725, 239.716 137.121 C 234.505 137.838, 231.666 138.512, 218.500 142.154 C 210.228 144.442, 208.980 145.046, 207.567 147.445 C 206.778 148.785, 206.826 149.376, 207.750 149.712 C 208.438 149.962, 209 150.804, 209 151.583 C 209 152.363, 209.900 153, 211 153 C 212.100 153, 213 153.450, 213 154 C 213 155.601, 217.727 155.153, 218.365 153.491 C 218.683 152.662, 219.969 151.571, 221.222 151.068 C 222.475 150.566, 227.024 148.741, 231.332 147.014 C 235.639 145.287, 240.715 143.003, 242.612 141.937 C 244.509 140.872, 246.667 140, 247.408 140 C 248.149 140, 249.250 139.404, 249.854 138.676 C 251.671 136.487, 247.668 133.665, 245.632 135.701 M 126.673 139.142 C 125.833 142.356, 128.436 146, 131.573 146 C 132.962 146, 135.539 146.759, 137.300 147.686 C 140.589 149.419, 147.818 150.990, 154 151.316 C 157.100 151.479, 157.500 151.219, 157.500 149.045 C 157.500 146.316, 155.182 145.271, 148.750 145.100 C 146.688 145.045, 145 144.623, 145 144.162 C 145 142.954, 135.140 138.304, 130.889 137.507 C 127.682 136.905, 127.210 137.088, 126.673 139.142 M 260.425 142.443 C 259.712 145.284, 260.516 147, 262.559 147 C 263.539 147, 264 145.881, 264 143.500 C 264 139.357, 261.393 138.587, 260.425 142.443 M 159.500 163.532 C 153.133 165.729, 150.351 166.848, 146 168.962 C 145.175 169.363, 142.189 170.243, 139.364 170.918 C 136.540 171.593, 133.237 172.900, 132.024 173.822 C 122.675 180.939, 121.277 182.869, 123.218 185.977 C 125.128 189.036, 128.697 188.464, 132.435 184.500 C 134.251 182.575, 136.444 181, 137.309 181 C 138.174 181, 139.139 180.585, 139.452 180.077 C 139.766 179.569, 141.276 178.879, 142.808 178.542 C 146.348 177.765, 158.868 171.402, 161.500 169.043 C 162.600 168.057, 164.512 166.728, 165.750 166.090 C 167.798 165.034, 169.025 160.920, 167.250 161.059 C 166.838 161.091, 163.350 162.204, 159.500 163.532 M 95.733 164.405 C 94.719 165.174, 94.222 166.414, 94.566 167.312 C 94.937 168.278, 94.368 169.378, 93.084 170.180 C 90.421 171.842, 90.441 173.495, 93.145 175.389 C 95.151 176.794, 95.212 177.204, 94.082 181.696 C 93.417 184.338, 92.421 188.300, 91.868 190.500 C 91.315 192.700, 90.228 196.525, 89.453 199 C 88.678 201.475, 87.752 205.412, 87.394 207.750 C 87.037 210.088, 86.407 212, 85.995 212 C 85.583 212, 83.992 214.588, 82.461 217.750 C 79.384 224.106, 79.380 224.113, 75.052 232.209 C 73.373 235.349, 72 238.612, 72 239.459 C 72 240.307, 71.622 241, 71.161 241 C 69.610 241, 67.860 246.126, 68.958 247.450 C 69.690 248.332, 69.348 249.018, 67.738 249.900 C 65.299 251.234, 57 264.118, 57 266.569 C 57 268.871, 51.740 274.826, 46.640 278.297 C 43.925 280.145, 43.026 283.908, 45.250 284.118 C 47.986 284.378, 49.425 283.729, 51.244 281.417 C 52.290 280.088, 53.820 279, 54.644 279 C 56.538 279, 58.098 277.422, 60.556 273.018 C 61.625 271.103, 63.063 268.934, 63.750 268.197 C 64.438 267.460, 65 266.547, 65 266.168 C 65 265.790, 66.012 264.346, 67.250 262.962 C 69.322 260.643, 71.893 256.481, 74.332 251.500 C 74.870 250.400, 75.704 248.825, 76.184 248 C 76.665 247.175, 77.322 245.713, 77.646 244.750 C 77.969 243.787, 78.631 243, 79.117 243 C 79.602 243, 80 242.551, 80 242.002 C 80 241.454, 81.507 238.866, 83.350 236.252 C 87.092 230.944, 93 219.386, 93 217.374 C 93 216.065, 93.670 214.393, 98.437 203.812 C 99.847 200.683, 101 196.611, 101 194.762 C 101 192.913, 101.461 190.939, 102.025 190.375 C 103.298 189.102, 105.097 173.697, 104.505 169.143 C 104.265 167.297, 103.548 165.160, 102.912 164.393 C 101.460 162.644, 98.046 162.649, 95.733 164.405 M 243.500 167.942 C 240.070 169.017, 235.583 171.411, 233.561 173.243 C 232.495 174.209, 231.292 175, 230.888 175 C 230.484 175, 228.804 176.350, 227.154 178 C 225.504 179.650, 223.717 181, 223.184 181 C 222.650 181, 221.955 181.675, 221.638 182.500 C 221.322 183.325, 220.170 184, 219.078 184 C 214.083 184, 208.986 188.916, 210.336 192.433 C 211.014 194.200, 214.541 194.552, 215.530 192.951 C 215.977 192.229, 216.597 192.250, 217.525 193.021 C 219.117 194.342, 222.165 193.025, 224.199 190.136 C 224.914 189.119, 226.468 187.981, 227.650 187.608 C 228.833 187.234, 233.169 183.682, 237.285 179.714 C 246.995 170.356, 249.215 166.150, 243.500 167.942 M 222.667 184.667 C 221.516 185.817, 221.938 187, 223.500 187 C 224.325 187, 225 186.325, 225 185.500 C 225 183.938, 223.817 183.516, 222.667 184.667 M 175.232 204 C 175.232 205.925, 175.438 206.713, 175.689 205.750 C 175.941 204.787, 175.941 203.213, 175.689 202.250 C 175.438 201.287, 175.232 202.075, 175.232 204" stroke="none" fill="black" fill-rule="evenodd"/>
</svg>