<svg xmlns="http://www.w3.org/2000/svg" width="300" height="300" viewBox="0 0 300 300" version="1.1">
	<path d="M 141.085 14.397 C 139.274 16.580, 140.163 19.449, 142.765 19.820 C 145.891 20.266, 146.797 17.353, 144.307 14.862 C 142.570 13.125, 142.187 13.070, 141.085 14.397 M 182.974 19.327 C 182.685 19.634, 178.727 19.975, 174.178 20.084 C 169.630 20.194, 163.342 20.904, 160.204 21.662 C 157.067 22.420, 150.017 23.962, 144.537 25.089 C 135.534 26.941, 134.464 26.987, 133.427 25.569 C 131.925 23.515, 130.796 23.589, 128.845 25.868 C 126.802 28.254, 119.535 29.355, 114.015 28.115 C 111.659 27.585, 108.779 27.504, 107.615 27.934 C 106.452 28.364, 103.169 29.016, 100.320 29.383 C 91.886 30.470, 82.450 35.422, 79.963 40.069 C 79.214 41.468, 79.350 42.776, 80.470 44.941 C 81.437 46.812, 82 50.610, 82 55.267 C 82 64.860, 83.693 73.795, 86.089 76.840 C 87.140 78.176, 88 80.019, 88 80.935 C 88 83.877, 90.264 85, 96.200 85 C 101.214 85, 102 84.745, 102 83.117 C 102 80.999, 105.902 79.502, 107.433 81.033 C 108.056 81.656, 107.973 82, 107.200 82 C 105.439 82, 105.736 84.961, 107.567 85.664 C 108.429 85.995, 109.644 85.756, 110.267 85.133 C 111.111 84.289, 111.030 83.998, 109.950 83.994 C 109.153 83.990, 109.713 83.355, 111.195 82.582 C 112.932 81.675, 115.408 81.379, 118.162 81.749 C 121.504 82.197, 122.006 82.489, 120.467 83.090 C 119.053 83.643, 119.711 83.879, 122.809 83.930 C 125.434 83.973, 126.877 83.610, 126.502 83.003 C 126.092 82.340, 126.765 82.340, 128.508 83.003 C 133.066 84.736, 137.698 84.261, 138.290 82 C 138.603 80.803, 139.654 80, 140.906 80 C 143.443 80, 143.691 81.673, 141.250 82.311 C 140.287 82.562, 141.214 82.820, 143.309 82.884 C 145.619 82.954, 146.875 82.606, 146.500 82 C 146.111 81.371, 148.038 81.056, 151.691 81.150 L 157.500 81.300 153 82 C 149.532 82.539, 150.680 82.707, 158 82.731 C 169.864 82.771, 173.602 82.030, 173.206 79.718 C 172.964 78.301, 173.665 78.020, 177.206 78.116 C 179.568 78.180, 180.713 78.438, 179.750 78.689 C 178.787 78.941, 178 79.622, 178 80.202 C 178 81.929, 190.274 80.191, 191.750 78.256 C 192.438 77.355, 193 77.096, 193 77.680 C 193 78.349, 195.871 78.697, 200.750 78.621 C 207.920 78.509, 208.523 78.336, 208.812 76.309 C 209.067 74.516, 208.103 73.634, 203.524 71.468 C 199.650 69.635, 197.550 69.126, 196.712 69.816 C 195.517 70.799, 191.304 71.526, 181.500 72.440 C 178.750 72.696, 173.350 73.351, 169.500 73.895 C 160.202 75.209, 137.146 75.567, 136.097 74.414 C 135.640 73.911, 134.564 71.379, 133.706 68.786 C 132.464 65.034, 132.380 63.454, 133.291 61.040 C 134.227 58.561, 134.137 57.502, 132.800 55.238 C 131.900 53.715, 130.974 49.661, 130.741 46.229 C 130.249 38.966, 131.698 36, 135.736 36 C 137.178 36, 139.740 35.572, 141.429 35.049 C 143.118 34.527, 147.425 33.349, 151 32.434 C 154.575 31.518, 157.728 30.409, 158.006 29.969 C 158.285 29.530, 159.364 29.793, 160.405 30.554 C 161.980 31.706, 162.081 32.197, 161.010 33.487 C 159.242 35.618, 160.178 43.538, 163.377 53.500 C 164.789 57.900, 166.214 63.664, 166.543 66.310 C 167.005 70.026, 167.509 71.049, 168.762 70.807 C 169.910 70.586, 170.753 68.490, 171.652 63.621 C 172.726 57.799, 172.697 56.211, 171.460 53.251 C 170.657 51.329, 170 48.712, 170 47.437 C 170 46.162, 169.616 44.881, 169.147 44.591 C 168.123 43.958, 166.945 29.928, 167.679 27.118 C 167.964 26.029, 168.885 24.874, 169.725 24.552 C 171.482 23.878, 174.248 25.790, 173.430 27.113 C 173.129 27.601, 173.557 28, 174.382 28 C 175.207 28, 176.188 27.505, 176.562 26.899 C 176.955 26.263, 178.492 26.048, 180.203 26.391 C 181.831 26.716, 184.027 26.521, 185.082 25.956 C 186.396 25.253, 187.608 25.255, 188.931 25.963 C 190.376 26.736, 191.238 26.620, 192.359 25.498 C 194.288 23.569, 194.991 23.611, 196.579 25.750 C 197.656 27.201, 198.218 27.293, 199.868 26.286 C 201.355 25.379, 201.955 25.364, 202.243 26.228 C 202.472 26.916, 204.831 27.380, 208.064 27.374 C 211.754 27.367, 213.861 27.847, 214.625 28.870 C 216.080 30.821, 216.367 51.878, 215.027 58.492 C 214.469 61.246, 213.898 66.200, 213.757 69.500 C 213.508 75.302, 213.583 75.500, 216 75.500 C 218.151 75.500, 218.475 75.081, 218.320 72.500 C 218.113 69.059, 219.203 64.024, 222.745 52.046 C 225.166 43.862, 225.205 43.266, 223.975 33.296 C 223.227 27.233, 222.144 22.535, 221.342 21.869 C 220.593 21.247, 217.397 20.644, 214.240 20.528 C 211.083 20.413, 202.875 19.969, 196 19.543 C 189.125 19.117, 183.263 19.020, 182.974 19.327 M 99.417 36.831 C 93.236 38.655, 87 42.322, 87 44.134 C 87 44.683, 87.438 45.950, 87.974 46.951 C 88.509 47.952, 89.207 54.772, 89.525 62.108 C 89.901 70.790, 90.521 75.720, 91.301 76.232 C 91.961 76.665, 94.975 77.023, 98 77.028 C 101.025 77.033, 105.300 77.085, 107.500 77.142 C 111.520 77.248, 122.607 76.262, 126.690 75.435 L 128.880 74.992 126.452 70.746 C 125.102 68.385, 124.019 64.864, 124.012 62.815 C 124.005 60.788, 123.514 57.863, 122.920 56.315 C 122.326 54.767, 121.836 50.518, 121.832 46.873 C 121.824 40.616, 121.649 40.117, 118.702 37.938 C 114.607 34.910, 107.341 34.493, 99.417 36.831 M 83 50.122 C 83 52.765, 83.227 53.056, 84.479 52.017 C 85.577 51.106, 85.697 50.302, 84.944 48.895 C 83.508 46.212, 83 46.533, 83 50.122 M 132.500 82 C 132.160 82.550, 132.584 83, 133.441 83 C 134.298 83, 135 82.550, 135 82 C 135 81.450, 134.577 81, 134.059 81 C 133.541 81, 132.840 81.450, 132.500 82 M 221 93.986 C 220.175 94.527, 213.863 94.976, 206.973 94.985 C 198.001 94.996, 193.885 95.390, 192.473 96.372 C 191.388 97.127, 188.925 98.079, 187 98.488 C 185.075 98.896, 183.029 99.608, 182.454 100.069 C 181.879 100.529, 180.529 100.884, 179.454 100.856 C 178.379 100.829, 173.675 101.570, 169 102.503 C 155.534 105.191, 150.273 105.879, 138 106.558 C 131.675 106.908, 124.925 107.580, 123 108.051 C 121.075 108.522, 114.845 109.378, 109.156 109.952 C 98.289 111.050, 93 113.085, 93 116.169 C 93 118.913, 95.190 123, 96.661 123 C 98.461 123, 98.362 125.455, 96.500 127 C 95.260 128.029, 95 127.929, 95 126.422 C 95 125.013, 94.730 124.870, 93.810 125.790 C 93.111 126.489, 92.477 130.937, 92.275 136.558 C 91.952 145.536, 90.915 152.014, 87.481 166.500 C 85.524 174.756, 82.378 185.703, 80.584 190.500 C 79.761 192.700, 79.068 195.275, 79.044 196.223 C 79.004 197.805, 76.237 204.660, 73.686 209.500 C 71.429 213.781, 66.261 224.671, 64.915 227.981 C 60.938 237.766, 51.063 256.183, 47.049 261.303 C 44.547 264.494, 41.290 269.214, 39.810 271.790 C 37.331 276.108, 37.245 276.614, 38.715 278.238 C 39.592 279.207, 40.859 280, 41.529 280 C 42.831 280, 52.179 270.163, 54.834 266 C 55.710 264.625, 57.804 261.700, 59.486 259.500 C 62.433 255.646, 68 245.170, 68 243.479 C 68 243.027, 68.585 241.947, 69.299 241.079 C 70.013 240.210, 71.635 237.025, 72.902 234 C 76.609 225.151, 78.070 221.806, 80.546 216.500 C 84.186 208.698, 87 201.286, 87 199.499 C 87 198.602, 87.555 196.886, 88.234 195.684 C 89.494 193.453, 89.944 191.931, 94.493 174.500 C 98.860 157.764, 100.987 143.535, 101.370 128.500 C 101.454 125.200, 101.894 121.918, 102.348 121.206 C 102.817 120.469, 102.686 119.326, 102.042 118.551 C 101.151 117.477, 101.587 116.854, 104.110 115.595 C 108.079 113.615, 107.800 113.570, 108.180 116.250 C 108.620 119.343, 113.903 120.089, 114.667 117.166 C 115.434 114.231, 122 112.711, 122 115.469 C 122 116.381, 122.584 116.713, 123.543 116.345 C 124.392 116.019, 124.859 115.526, 124.582 115.249 C 123.892 114.558, 130.248 111.399, 133.694 110.719 C 137.525 109.964, 142 110.949, 142 112.547 C 142 113.270, 140.988 114.033, 139.750 114.243 C 138.512 114.454, 140.062 114.586, 143.193 114.537 C 146.324 114.488, 149.235 114.098, 149.662 113.671 C 150.090 113.244, 149.613 113.211, 148.603 113.599 C 146.986 114.219, 146.905 114.046, 147.919 112.152 C 149.246 109.671, 153.491 109.230, 154.355 111.483 C 154.975 113.098, 157.560 112.541, 159.821 110.306 C 160.548 109.588, 162.798 109.045, 164.821 109.100 C 168.130 109.189, 168.249 109.280, 166 110 C 163.564 110.780, 163.559 110.803, 165.782 110.900 C 167.271 110.965, 168.379 110.218, 168.969 108.750 C 169.622 107.126, 169.891 106.969, 169.937 108.187 C 169.988 109.553, 170.714 109.778, 173.750 109.370 C 179.615 108.581, 187.329 106.824, 189.227 105.845 C 190.331 105.275, 191.663 105.397, 192.921 106.183 C 194.551 107.200, 195.227 107.104, 196.863 105.624 C 198.474 104.166, 199.823 103.959, 204.177 104.503 C 208.698 105.068, 209.920 104.851, 212.165 103.085 C 214.118 101.549, 216.255 101, 220.285 101 C 226.741 101, 228.492 99.620, 226.672 95.970 C 225.306 93.230, 223.250 92.511, 221 93.986 M 190.337 111.564 C 189.655 113.343, 191.489 118, 192.872 118 C 194.247 118, 194.857 115.700, 194.280 112.687 C 193.720 109.755, 191.296 109.065, 190.337 111.564 M 116 117 C 116 117.550, 116.702 118, 117.559 118 C 118.416 118, 118.840 117.550, 118.500 117 C 118.160 116.450, 117.459 116, 116.941 116 C 116.423 116, 116 116.450, 116 117 M 145.770 119.772 C 143.338 123.447, 141.495 130.848, 138.990 147 C 137.574 156.133, 134.855 165.412, 132.074 170.600 C 130.933 172.729, 130 174.830, 130 175.269 C 130 176.475, 120.536 190.043, 117.096 193.769 C 114.073 197.043, 113.865 200, 116.657 200 C 120.973 200, 128.152 194.005, 133.975 185.538 C 139.369 177.695, 142.102 175.306, 146.221 174.834 C 148.861 174.532, 150.106 174.833, 150.504 175.871 C 150.932 176.986, 151.343 177.057, 152.233 176.167 C 153.800 174.600, 155 174.694, 155 176.383 C 155 177.901, 155.433 178.042, 168.500 180.773 C 177.655 182.686, 181.378 182.640, 180.711 180.623 C 180.050 178.622, 170.524 174.479, 164.668 173.645 C 159.906 172.967, 152 169.224, 152 167.648 C 152 167.003, 155.437 163.170, 159.637 159.129 C 164.729 154.233, 168.437 149.569, 170.762 145.142 C 172.680 141.489, 174.868 137.790, 175.625 136.921 C 177.362 134.927, 177.367 133.549, 175.641 132.117 C 174.600 131.253, 173.607 131.516, 171.391 133.242 C 167.761 136.070, 162.011 142.236, 162.005 143.308 C 162.002 143.752, 159.188 147.675, 155.750 152.026 C 149.897 159.434, 146.696 162.029, 145.226 160.559 C 144.883 160.216, 145.649 155.113, 146.928 149.218 C 151.075 130.105, 152.003 116, 149.114 116 C 148.647 116, 147.143 117.697, 145.770 119.772 M 228.204 129.750 C 226.477 134.320, 226.006 144.143, 226.962 155.626 C 229.541 186.587, 229.930 215.854, 227.990 233 C 226.093 249.764, 225.138 254.307, 223.075 256.370 C 221.111 258.334, 221.084 258.331, 217.301 255.786 C 215.210 254.381, 212.174 252.923, 210.554 252.547 C 208.933 252.171, 206.151 250.319, 204.371 248.432 C 201.125 244.990, 197.985 243.912, 198.017 246.250 C 198.027 246.938, 199.175 248.582, 200.568 249.904 C 201.962 251.226, 203.720 253.786, 204.474 255.593 C 205.627 258.351, 212.411 264, 214.570 264 C 214.905 264, 215.942 264.942, 216.874 266.093 C 218.001 267.484, 219.811 268.221, 222.273 268.291 C 230.179 268.515, 235 259.178, 236.917 239.930 C 238.681 222.211, 239.284 194.899, 238.119 185.500 C 237.504 180.550, 236.583 166.307, 236.071 153.849 C 235.119 130.678, 234.408 127, 230.881 127 C 229.980 127, 228.775 128.238, 228.204 129.750 M 119.082 132.847 C 116.902 136.920, 118.384 141.553, 124.523 149.859 C 128.173 154.796, 131.216 157.955, 132.338 157.972 C 135.597 158.022, 133.439 150.390, 128.370 143.938 C 125.872 140.758, 124 137.310, 124 135.888 C 124 133.477, 122.396 131, 120.835 131 C 120.415 131, 119.626 131.831, 119.082 132.847 M 229.079 139.583 C 229.127 140.748, 229.364 140.985, 229.683 140.188 C 229.972 139.466, 229.936 138.603, 229.604 138.271 C 229.272 137.939, 229.036 138.529, 229.079 139.583 M 203.667 158.667 C 203.300 159.033, 203 160.425, 203 161.759 C 203 163.093, 202.149 165.267, 201.108 166.590 C 199.104 169.137, 199.094 169.601, 200.564 191.674 C 201.225 201.590, 202.904 204.800, 206.787 203.568 C 208.593 202.994, 208.700 202.018, 208.464 188.228 C 208.325 180.127, 207.898 171.864, 207.516 169.865 C 207.081 167.590, 207.228 165.977, 207.910 165.556 C 208.510 165.185, 209 163.334, 209 161.441 C 209 158.503, 208.659 158, 206.667 158 C 205.383 158, 204.033 158.300, 203.667 158.667 M 232 192 C 232 194.089, 232.425 195.025, 233.250 194.750 C 233.938 194.521, 234.500 193.283, 234.500 192 C 234.500 190.717, 233.938 189.479, 233.250 189.250 C 232.425 188.975, 232 189.911, 232 192 M 137.648 195.415 C 136.742 196.798, 136 198.755, 136 199.765 C 136 200.774, 135.534 202.066, 134.963 202.637 C 134.393 203.207, 132.322 210.159, 130.361 218.087 C 128.399 226.014, 125.858 234.188, 124.713 236.250 C 122.864 239.581, 122.199 240, 118.751 240 C 115.633 240, 113.896 239.166, 109.901 235.750 C 107.168 233.412, 103.591 229.428, 101.954 226.895 C 100.317 224.362, 98.147 221.538, 97.132 220.619 C 94.228 217.991, 92.580 220.711, 93.472 226.660 C 93.997 230.161, 94.423 230.981, 95.167 229.919 C 95.886 228.894, 95.995 229.263, 95.562 231.250 C 94.918 234.200, 95.801 234.765, 97.905 232.750 C 98.971 231.730, 99.102 232.051, 98.620 234.500 C 98.134 236.968, 98.504 237.844, 100.702 239.438 C 102.540 240.771, 103.498 241.005, 103.771 240.188 C 104.424 238.229, 105.435 238.827, 106.840 242 C 108.186 245.040, 109.827 245.604, 116.137 245.194 C 120.715 244.897, 121.244 246.928, 118.464 254.122 C 115.577 261.592, 110.712 268, 107.927 268 C 106.345 268, 106 268.717, 106 272 C 106 275.888, 106.096 276, 109.426 276 C 112.188 276, 113.786 275.065, 117.676 271.169 C 120.329 268.513, 123.244 264.800, 124.154 262.919 C 128.353 254.238, 130.008 250.211, 130.605 247.226 C 131.539 242.555, 134.517 243.018, 142 249 C 145.839 252.069, 149.268 254.014, 150.877 254.035 C 152.320 254.055, 154.625 254.714, 156 255.500 C 158.951 257.187, 172.179 257.510, 175.066 255.965 C 176.130 255.395, 177 254.270, 177 253.465 C 177 252.331, 175.552 252, 170.581 252 C 166.912 252, 162.949 251.374, 161.331 250.540 C 159.774 249.736, 157.292 248.835, 155.815 248.537 C 154.255 248.222, 151.568 246.089, 149.407 243.452 L 145.685 238.910 153.633 231.205 C 165.056 220.131, 168.470 211.648, 162.902 208.171 C 160.209 206.489, 159.118 207.409, 158.388 211.977 C 157.898 215.036, 156.079 217.625, 149.635 224.428 C 144.093 230.279, 140.783 233.014, 139.250 233.008 C 136.115 232.997, 136.264 230.578, 140.389 214.500 C 141.236 211.200, 141.945 207.219, 141.964 205.654 C 141.984 204.089, 142.778 201.491, 143.730 199.880 C 145.043 197.658, 145.199 196.536, 144.378 195.226 C 142.663 192.490, 139.506 192.579, 137.648 195.415" stroke="none" fill="black" fill-rule="evenodd"/>
</svg>