<svg xmlns="http://www.w3.org/2000/svg" width="300" height="300" viewBox="0 0 300 300" version="1.1">
	<path d="M 142.010 35.488 C 141.295 36.349, 139.451 36.876, 137.637 36.738 L 134.500 36.500 134.378 46.133 C 134.178 62.023, 133.068 70.902, 131.164 71.852 C 125.386 74.735, 93.107 75.599, 91.448 72.915 C 90.426 71.262, 85.347 71.959, 83.494 74.006 C 82.496 75.110, 81.864 76.174, 82.089 76.371 C 83.516 77.616, 88.158 79.444, 94.824 81.385 C 102.722 83.686, 113.240 84.075, 125.634 82.527 C 130.751 81.887, 131.040 81.975, 131.980 84.446 C 132.720 86.395, 132.811 119.372, 132.092 125.250 C 132.041 125.662, 128.475 126, 124.167 126 C 119.858 126, 116.010 126.324, 115.614 126.719 C 115.218 127.115, 113.456 127.503, 111.697 127.581 C 108.427 127.726, 101.660 128.409, 87.500 130.020 C 83.100 130.521, 77.025 130.992, 74 131.066 C 70.975 131.140, 65.913 131.425, 62.750 131.699 C 57.484 132.154, 57 132.399, 57 134.598 C 57 136.771, 57.420 137, 61.417 137 C 64.059 137, 66.002 136.498, 66.254 135.750 C 66.586 134.762, 67.007 134.774, 68.257 135.806 C 70.003 137.246, 92.365 137.286, 114.482 135.889 C 121.073 135.472, 126.640 135.307, 126.854 135.521 C 127.068 135.735, 125.873 137.281, 124.198 138.956 C 119.594 143.559, 112.005 155.458, 111.965 158.134 C 111.908 161.931, 111.126 163.054, 98.493 177.500 C 97.050 179.150, 94.454 182.525, 92.726 185 C 89.315 189.884, 89.210 190.024, 85.552 194.601 C 84.189 196.306, 81.296 200.131, 79.124 203.101 C 68.326 217.861, 50.690 236.515, 45.980 238.157 C 41.312 239.784, 36.967 248.625, 39.934 250.459 C 41.853 251.645, 48.852 246.750, 56.315 239.001 C 60.553 234.600, 64.466 231, 65.011 231 C 65.555 231, 66 230.564, 66 230.031 C 66 229.499, 65.325 229.322, 64.500 229.638 C 63.675 229.955, 63 229.764, 63 229.214 C 63 228.664, 63.675 227.955, 64.500 227.638 C 65.325 227.322, 66 227.499, 66 228.031 C 66 230.084, 68.601 228.831, 70.760 225.738 C 72.003 223.957, 75.049 220.025, 77.529 217 C 80.009 213.975, 83.903 208.800, 86.183 205.500 C 88.463 202.200, 91.722 198.121, 93.425 196.435 C 95.128 194.748, 99.997 189.123, 104.246 183.935 C 108.495 178.746, 113.179 173.037, 114.655 171.250 C 116.131 169.463, 117.754 168, 118.261 168 C 118.769 168, 120.329 167.100, 121.727 166 C 123.366 164.711, 125.784 164, 128.530 164 C 132.737 164, 132.794 164.048, 133.154 167.822 C 133.408 170.483, 132.985 172.206, 131.759 173.497 C 130.792 174.516, 130 176.531, 130 177.975 C 130 179.419, 129.576 181.027, 129.057 181.550 C 126.542 184.085, 122.348 208.682, 124.128 210.461 C 124.391 210.725, 127.733 211.023, 131.553 211.125 C 138.724 211.315, 161.763 206.432, 167 203.611 C 168.375 202.871, 170.032 202.458, 170.682 202.693 C 171.332 202.929, 173.273 202.393, 174.995 201.503 C 178.886 199.490, 185.847 199.278, 192.837 200.958 C 197.828 202.158, 198.304 202.542, 200.162 206.871 C 201.467 209.911, 201.934 212.530, 201.523 214.500 C 201.179 216.150, 200.459 221.325, 199.922 226 C 199.386 230.675, 198.482 237.200, 197.914 240.500 C 197.345 243.800, 196.525 249.200, 196.091 252.500 C 194.952 261.178, 189.219 275.304, 186.209 276.853 C 185.269 277.336, 182.144 278.032, 179.263 278.399 C 172.657 279.240, 170.254 278.055, 161.772 269.777 C 154.457 262.637, 152.712 259.151, 153.033 252.310 C 153.345 245.650, 153.209 245, 151.500 245 C 150.382 245, 149.991 246.210, 149.965 249.750 C 149.945 252.363, 149.286 255.625, 148.500 257 C 146.637 260.259, 146.619 263.916, 148.462 264.624 C 149.266 264.932, 150.196 266.043, 150.529 267.092 C 150.862 268.142, 151.743 269, 152.486 269 C 153.229 269, 154.780 270.526, 155.932 272.390 C 157.713 275.272, 165.789 282.299, 170.891 285.406 C 172.991 286.684, 192 287.329, 192 286.122 C 192 285.589, 193.058 283.881, 194.351 282.327 C 195.644 280.772, 197.932 276.575, 199.435 273 C 200.938 269.425, 202.770 265.150, 203.507 263.500 C 207.294 255.011, 210.416 229.737, 209.689 213.455 C 208.917 196.155, 207.523 192.545, 202.039 193.642 C 200.634 193.923, 196.981 193.217, 193.922 192.072 C 187.991 189.853, 178.024 189.732, 173 191.818 C 171.625 192.389, 166.900 193.646, 162.500 194.611 C 158.100 195.576, 154.275 196.681, 154 197.067 C 153.092 198.340, 141.403 201.173, 138.459 200.833 C 136.064 200.557, 135.451 199.908, 134.867 197.032 C 134.480 195.124, 134.570 192.804, 135.067 191.876 C 135.563 190.947, 136.168 187.783, 136.409 184.844 C 136.973 177.997, 138.165 173.524, 140.796 168.385 C 142.734 164.600, 143.302 164.218, 147.899 163.608 C 150.647 163.243, 156.406 161.795, 160.698 160.390 C 166.247 158.573, 170.955 157.786, 177.003 157.665 C 184.446 157.516, 185.795 157.205, 187.835 155.165 C 189.884 153.116, 190.762 152.917, 195.109 153.515 C 198.909 154.038, 200.646 153.807, 202.613 152.518 C 204.022 151.595, 205.439 151.105, 205.763 151.429 C 206.087 151.753, 207.398 151.036, 208.676 149.835 C 211.227 147.438, 211.846 142.262, 209.680 141.431 C 207.310 140.521, 164.706 143.824, 156.539 145.551 C 151.669 146.580, 148.452 146.855, 148.253 146.259 C 148.074 145.722, 147.327 144.462, 146.593 143.459 C 145.317 141.713, 145.116 141.740, 141.992 144.067 C 136.567 148.107, 131.518 153.445, 129.835 156.921 C 127.954 160.806, 127.382 160.106, 127.450 154 C 127.485 150.812, 127.886 149.580, 128.824 149.775 C 129.553 149.926, 129.898 149.643, 129.591 149.147 C 129.284 148.650, 130.825 146.208, 133.016 143.719 C 135.207 141.230, 137 138.700, 137 138.097 C 137 136.581, 140.713 136.712, 141.354 138.250 C 141.724 139.138, 142.323 138.943, 143.425 137.575 C 146.061 134.304, 151.567 133.196, 168.846 132.461 C 181.338 131.930, 186.750 131.284, 190.500 129.877 C 196.017 127.807, 214.365 127.163, 215.500 129 C 217.002 131.430, 224.979 128.672, 224.992 125.719 C 224.996 124.739, 224.213 123.694, 223.250 123.396 C 222.287 123.098, 220.723 122.440, 219.774 121.933 C 216.779 120.336, 198.926 119.795, 190 121.031 C 185.325 121.678, 175.262 122.742, 167.638 123.395 C 152.363 124.703, 151.102 124.316, 154.640 119.400 C 155.663 117.979, 157.186 115.620, 158.024 114.158 C 158.862 112.696, 162.012 107.906, 165.024 103.513 C 168.036 99.121, 171.625 93.620, 173 91.290 C 178.974 81.164, 185 69.934, 185 68.925 C 185 68.324, 187.712 62.825, 191.027 56.707 C 194.341 50.588, 196.831 45.001, 196.558 44.291 C 195.435 41.364, 187.426 44.175, 184.600 48.488 C 183.720 49.831, 183 52.520, 183 54.465 C 183 56.409, 182.550 58, 182 58 C 181.450 58, 181 58.548, 181 59.218 C 181 59.888, 179.880 61.398, 178.512 62.574 C 176.487 64.314, 174.166 64.840, 166.058 65.399 C 160.578 65.776, 153.561 66.745, 150.465 67.551 C 147.369 68.357, 144.360 68.722, 143.777 68.362 C 142.485 67.564, 143.577 44.660, 145.036 41.933 C 145.566 40.942, 146 38.752, 146 37.066 C 146 33.719, 144.101 32.969, 142.010 35.488 M 158.054 75.066 C 156.708 75.624, 154.958 76.620, 154.163 77.280 C 153.369 77.939, 151.349 78.547, 149.675 78.631 C 146.384 78.797, 144.045 81.159, 143.923 84.441 C 143.881 85.574, 143.591 87.400, 143.278 88.500 C 142.439 91.449, 142.123 118, 142.927 118 C 143.770 118, 150 109.274, 150 108.093 C 150 107.627, 150.708 106.657, 151.573 105.939 C 152.438 105.221, 154.025 103.029, 155.099 101.067 C 158.261 95.294, 161.950 88.890, 165.592 82.849 C 169.299 76.703, 169.740 75, 167.625 75 C 166.869 75, 164.956 74.786, 163.375 74.526 C 161.794 74.265, 159.399 74.508, 158.054 75.066 M 135.800 109.078 C 135.052 111.028, 136.002 119.883, 137.028 120.517 C 138.423 121.379, 138.596 118.562, 137.490 113.012 C 136.857 109.833, 136.146 108.178, 135.800 109.078 M 66.667 223.667 C 66.300 224.033, 66 224.798, 66 225.367 C 66 225.993, 66.466 225.934, 67.183 225.217 C 67.834 224.566, 68.134 223.801, 67.850 223.517 C 67.566 223.232, 67.033 223.300, 66.667 223.667 M 162 276 C 162 276.550, 162.450 277, 163 277 C 163.550 277, 164 276.550, 164 276 C 164 275.450, 163.550 275, 163 275 C 162.450 275, 162 275.450, 162 276" stroke="none" fill="black" fill-rule="evenodd"/>
</svg>