<svg xmlns="http://www.w3.org/2000/svg" width="300" height="300" viewBox="0 0 300 300" version="1.1">
	<path d="M 113.819 63.514 C 112.669 64.664, 83.669 65.893, 81.763 64.873 C 80.310 64.096, 79.402 64.231, 78.088 65.420 C 76.176 67.150, 74 67.516, 74 66.107 C 74 64.344, 70.818 64.043, 67.937 65.533 C 66.321 66.368, 65.016 67.377, 65.035 67.776 C 65.054 68.174, 65.697 71.423, 66.462 74.995 C 67.505 79.860, 67.625 83.509, 66.940 89.534 C 66.438 93.958, 66.073 99.810, 66.129 102.539 C 66.185 105.267, 65.757 110.875, 65.178 115 C 64.598 119.125, 63.840 128.913, 63.492 136.752 C 63.144 144.591, 62.450 152.430, 61.951 154.172 C 60.997 157.497, 59.494 176.244, 58.156 201.500 C 57.127 220.934, 58.456 233.331, 61.865 236.092 C 64.898 238.548, 68.643 238.536, 69.965 236.066 C 71.166 233.821, 71.354 229, 70.241 229 C 66.778 229, 64.709 214.910, 66.211 201.564 C 66.772 196.579, 67.354 188.781, 67.505 184.235 C 67.655 179.689, 68.277 171.589, 68.886 166.235 C 70.200 154.693, 72.145 130.532, 71.856 129.338 C 71.745 128.877, 71.959 126.025, 72.332 123 C 73.220 115.803, 73.950 103.479, 74.405 88 C 74.607 81.125, 74.826 75.275, 74.893 75 C 74.959 74.725, 78.498 74.376, 82.756 74.224 C 87.015 74.072, 92.525 73.665, 95 73.319 C 97.475 72.973, 104.849 72.647, 111.386 72.595 C 127.827 72.464, 126.945 70.959, 127.472 100.032 C 127.915 124.508, 129.926 144.989, 133.114 157.500 C 134.235 161.900, 135.537 169.325, 136.007 174 C 136.477 178.675, 137.585 186.325, 138.470 191 C 140.786 203.238, 141.322 213.495, 140.008 220.456 C 139.070 225.428, 139.131 227.338, 140.342 231.013 C 141.156 233.481, 142.135 237.525, 142.519 240 C 143.989 249.472, 150 251.014, 150 241.918 C 150 240.313, 150.364 239, 150.809 239 C 151.254 239, 152.408 238.422, 153.374 237.716 C 155.032 236.503, 154.992 236.099, 152.654 230.466 C 150.616 225.554, 149.979 221.586, 149.046 208 C 148.423 198.925, 147.493 189.250, 146.979 186.500 C 146.465 183.750, 145.576 177.450, 145.004 172.500 C 143.576 160.163, 143.254 158.309, 141.443 152 C 138.493 141.722, 135.494 112.329, 134.638 85.302 C 134.356 76.393, 133.662 68.237, 133.095 67.178 C 132.318 65.726, 130.204 64.976, 124.492 64.126 C 115.983 62.861, 114.554 62.779, 113.819 63.514 M 174.883 91.451 C 174.655 91.678, 170.651 92.090, 165.984 92.364 C 153.779 93.083, 148.870 94.049, 145.750 96.349 C 142.324 98.874, 142.248 101.277, 145.526 103.425 C 147.627 104.802, 148.677 104.890, 151.776 103.951 C 156.254 102.594, 168.385 101.273, 184 100.442 C 198.567 99.667, 199.680 99.663, 201.539 100.376 C 202.897 100.898, 202.882 101.250, 201.409 103.498 C 199.941 105.739, 199.874 107.274, 200.829 116.766 C 201.423 122.670, 202.838 140.325, 203.974 156 C 205.764 180.696, 208.165 198.764, 210.352 204 C 211.739 207.320, 209.739 208.039, 201.943 207.028 C 197.849 206.496, 191.492 206.048, 187.815 206.031 C 184.138 206.014, 179.908 205.535, 178.414 204.967 C 176.151 204.107, 175.324 204.287, 173.449 206.048 C 170.454 208.862, 169.760 214.760, 172.144 217.144 C 173.808 218.808, 174.183 218.821, 177.714 217.339 C 180.672 216.098, 183.742 215.863, 191.757 216.268 C 197.399 216.552, 202.264 216.382, 202.569 215.889 C 203.151 214.947, 210.434 215.532, 212.273 216.669 C 212.862 217.033, 216.979 217.404, 221.422 217.493 C 225.865 217.583, 232.650 218.227, 236.500 218.925 C 240.350 219.622, 246.200 220.310, 249.500 220.454 C 252.800 220.597, 256.560 220.987, 257.855 221.320 C 261.124 222.161, 285.631 222.346, 286.935 221.540 C 288.184 220.768, 288.319 217.051, 287.164 215.232 C 285.733 212.977, 279.782 212.002, 267.007 211.927 C 260.128 211.887, 252.025 211.419, 249 210.888 C 245.975 210.356, 241.250 209.576, 238.500 209.155 C 235.750 208.733, 232.060 207.625, 230.300 206.694 C 228.539 205.762, 225.488 205, 223.518 205 C 221.489 205, 219.800 204.458, 219.620 203.750 C 219.446 203.063, 218.745 200.925, 218.064 199 C 215.723 192.389, 215.087 188.476, 214.487 177 C 213.803 163.881, 212.302 144.898, 210.850 131 C 209.212 115.313, 208.453 100.833, 209.242 100.348 C 209.651 100.097, 213.251 100.343, 217.242 100.895 C 221.234 101.448, 229.802 102.214, 236.283 102.598 C 242.763 102.983, 248.303 103.681, 248.592 104.149 C 249.627 105.823, 254.904 105.048, 255.965 103.066 C 257.402 100.381, 257.259 96.459, 255.676 95.146 C 254.948 94.542, 251.235 94.065, 247.426 94.087 C 243.617 94.109, 235.961 93.434, 230.413 92.587 C 221.195 91.180, 176.077 90.256, 174.883 91.451 M 95.942 124.948 C 90.065 126.732, 89.175 127.723, 89.407 132.233 C 89.643 136.814, 91.718 138.309, 94.565 135.946 C 95.503 135.167, 100.014 134.686, 107.054 134.614 C 115.505 134.526, 118.282 134.162, 118.969 133.051 C 120.226 131.016, 115.672 127, 112.107 127 C 110.573 127, 107.109 126.330, 104.409 125.511 C 101.709 124.692, 99.275 124.055, 99 124.097 C 98.725 124.138, 97.349 124.521, 95.942 124.948 M 124.759 153.574 C 123.564 154.769, 100.047 159.289, 89.391 160.371 C 82.812 161.040, 77.593 162.077, 76.591 162.914 C 74.182 164.928, 75.004 168.845, 78.246 170.801 C 80.824 172.357, 81.203 172.346, 84.411 170.618 C 86.291 169.605, 88.206 169.003, 88.665 169.278 C 89.124 169.554, 91.750 169.358, 94.500 168.843 C 97.250 168.328, 102.168 167.517, 105.429 167.041 C 109.468 166.452, 111.860 165.532, 112.929 164.156 C 113.793 163.046, 116.300 161.821, 118.500 161.435 C 125.979 160.122, 130.297 156.697, 127.722 154.122 C 126.474 152.874, 125.618 152.716, 124.759 153.574 M 139.446 180.087 C 139.077 180.685, 139.275 181.675, 139.887 182.287 C 140.704 183.104, 141 182.815, 141 181.200 C 141 178.785, 140.481 178.413, 139.446 180.087 M 140.500 186 C 140.840 186.550, 141.316 187, 141.559 187 C 141.802 187, 142 186.550, 142 186 C 142 185.450, 141.523 185, 140.941 185 C 140.359 185, 140.160 185.450, 140.500 186" stroke="none" fill="black" fill-rule="evenodd"/>
</svg>