<svg xmlns="http://www.w3.org/2000/svg" width="300" height="300" viewBox="0 0 300 300" version="1.1">
	<path d="M 91.667 14.667 C 91.300 15.033, 91 16.610, 91 18.170 C 91 19.731, 90.100 22.686, 89 24.739 C 86.632 29.157, 86.521 31.121, 88.401 35.349 C 91.237 41.726, 91.679 44.416, 90.578 48.595 C 89.599 52.313, 87.085 56, 85.529 56 C 84.633 56, 82.458 57.932, 77.710 62.947 C 75.395 65.393, 71.525 69.218, 69.112 71.447 C 65.158 75.099, 62 80.214, 62 82.968 C 62 84.891, 64.923 84.014, 66.057 81.750 C 66.678 80.513, 71.717 75.103, 77.257 69.730 L 87.328 59.960 89.673 62.163 C 91.370 63.756, 91.819 64.938, 91.296 66.433 C 90.698 68.145, 90.149 82.083, 89.971 100.120 C 89.936 103.666, 89.807 103.782, 83.717 105.774 C 80.298 106.892, 74.800 108.097, 71.500 108.451 C 68.200 108.805, 61.601 109.837, 56.836 110.744 L 48.173 112.394 47.802 116.277 C 47.290 121.645, 49.193 122.518, 57.265 120.618 C 60.694 119.811, 66.707 118.894, 70.627 118.580 C 74.547 118.266, 79.047 117.335, 80.627 116.511 C 82.207 115.687, 85.352 115.010, 87.616 115.006 L 91.731 115 90.785 119.250 C 89.744 123.925, 89.680 129.959, 90.595 137.262 C 91.117 141.433, 90.900 142.267, 88.846 143.979 C 87.413 145.173, 84.943 145.953, 82.500 145.982 C 80.300 146.009, 74.269 146.924, 69.098 148.016 C 63.927 149.107, 58.455 150, 56.937 150 C 52.574 150, 43.131 154.013, 42.450 156.157 C 41.809 158.177, 45.295 161.904, 47.884 161.967 C 49.252 162, 56.096 160.300, 59 159.207 C 59.825 158.896, 64.775 158.051, 70 157.329 C 75.225 156.607, 81.136 155.744, 83.136 155.412 C 88.299 154.554, 91 156.270, 91 160.410 C 91 163.327, 90.617 163.827, 87.977 164.355 C 85.335 164.883, 84.389 166.120, 80.483 174.144 C 78.025 179.195, 75.394 184.042, 74.637 184.914 C 73.880 185.786, 73.090 187, 72.880 187.611 C 72.449 188.871, 67.677 195.032, 64.129 198.909 C 62.824 200.334, 61.024 202.625, 60.129 204 C 58.235 206.906, 56.379 209.275, 53.277 212.746 C 52.055 214.114, 49.580 217.192, 47.777 219.586 C 45.975 221.980, 43.938 223.952, 43.250 223.969 C 42.563 223.986, 42 224.342, 42 224.760 C 42 225.178, 40.845 226.767, 39.432 228.290 C 36.814 231.114, 36.506 234.003, 38.745 234.749 C 40.351 235.284, 45.719 229.720, 53.941 219 C 54.995 217.625, 57.802 214.061, 60.179 211.080 C 69.130 199.853, 75.997 189.806, 78.612 184.110 C 80.592 179.796, 82.176 177.809, 84.533 176.686 C 87.149 175.438, 87.663 174.690, 87.282 172.693 C 87.023 171.341, 87.305 169.930, 87.908 169.557 C 89.619 168.499, 91.146 173.846, 90.452 178.470 C 89.992 181.542, 90.225 182.942, 91.356 183.880 C 93.010 185.253, 92.513 188, 90.611 188 C 89.965 188, 89.339 189.170, 89.221 190.600 C 88.946 193.920, 89.961 195.670, 91.110 193.857 C 91.713 192.904, 91.974 193.301, 91.985 195.191 C 91.993 196.671, 91.603 198.127, 91.118 198.427 C 90.141 199.031, 90.626 218.766, 91.944 232 C 92.764 240.235, 92.595 248.560, 91.376 260.036 C 90.804 265.419, 91.306 268.204, 94.343 276.500 C 96.073 281.225, 98.591 282.207, 99.932 278.680 C 100.859 276.241, 100.775 275.305, 98.933 267.500 C 98.413 265.300, 97.767 248.650, 97.496 230.500 C 97.225 212.350, 96.815 194.662, 96.586 191.193 C 96.222 185.708, 96.385 184.931, 97.834 185.232 C 99.034 185.481, 99.431 186.463, 99.252 188.744 C 99.031 191.576, 100.270 193.181, 110.996 203.955 C 117.591 210.580, 123.580 216, 124.305 216 C 125.030 216, 126.646 216.953, 127.895 218.117 C 129.669 219.769, 130.956 220.107, 133.753 219.653 C 135.725 219.333, 137.681 218.517, 138.099 217.839 C 139.203 216.054, 137.424 213.323, 134.714 212.643 C 132.490 212.085, 126.188 206.534, 122.303 201.712 C 121.311 200.481, 118.250 197.714, 115.500 195.561 C 112.750 193.409, 109.662 190.715, 108.639 189.574 C 99.567 179.463, 99.794 179.647, 97.863 180.854 C 95.690 182.210, 95.394 180.943, 97.206 178.042 C 98.191 176.465, 98.097 175.764, 96.691 174.211 C 95.242 172.610, 95.053 170.911, 95.493 163.434 C 95.794 158.305, 96.539 154.063, 97.257 153.387 C 97.941 152.744, 101.875 151.215, 106 149.990 C 110.125 148.766, 115.408 146.917, 117.739 145.882 C 120.071 144.847, 122.883 144, 123.989 144 C 125.095 144, 126 143.598, 126 143.107 C 126 141.373, 129.134 141.041, 131.411 142.534 C 134.510 144.564, 137 143.457, 137 140.048 C 137 137.231, 134.970 134.829, 131.556 133.609 C 130.397 133.195, 125.549 134.169, 119.556 136.021 C 114.025 137.729, 106.629 140.015, 103.119 141.100 C 99.610 142.185, 96.460 142.791, 96.119 142.448 C 95.247 141.570, 95.408 120.270, 96.321 115.788 C 96.996 112.469, 97.469 112.013, 100.788 111.478 C 102.830 111.149, 105.625 110.283, 107 109.553 C 108.375 108.824, 111.412 107.911, 113.750 107.525 C 116.088 107.140, 118 106.463, 118 106.021 C 118 105.578, 119.125 104.934, 120.500 104.589 C 123.730 103.779, 123.795 100.567, 120.624 98.489 C 118.440 97.058, 117.822 97.099, 113.020 98.992 C 110.145 100.125, 105.140 101.330, 101.897 101.669 L 96 102.285 96.036 95.892 C 96.097 85.170, 97.823 57.612, 98.551 55.720 C 98.991 54.579, 99.873 54.142, 101.009 54.503 C 103.112 55.170, 113.277 48.553, 115.031 45.375 C 115.913 43.778, 115.921 42.722, 115.067 41.125 C 113.786 38.731, 111.781 38.483, 107.051 40.132 C 104.241 41.112, 103.875 41.625, 104.337 43.935 C 104.829 46.396, 104.630 46.589, 101.800 46.393 C 100.111 46.276, 98.313 45.577, 97.804 44.840 C 97.267 44.062, 97.178 39.093, 97.591 33 C 98.476 19.957, 98.367 17.147, 96.909 15.391 C 95.698 13.931, 92.802 13.531, 91.667 14.667 M 184.870 36.839 C 183.383 38.575, 182.618 40.823, 181.326 47.250 C 180.893 49.401, 181.149 50, 182.498 50 C 183.948 50, 184.111 50.595, 183.522 53.732 C 182.701 58.109, 177.923 68.310, 175.902 70 C 175.085 70.683, 171.047 83.381, 171.502 83.836 C 172.321 84.654, 174 82.756, 174 81.012 C 174 79.984, 174.607 78.536, 175.349 77.794 C 176.091 77.052, 177.255 74.757, 177.936 72.693 C 178.617 70.630, 180.762 66.593, 182.703 63.721 C 190.575 52.073, 194.344 41.379, 192.071 37.133 C 190.664 34.504, 186.997 34.354, 184.870 36.839 M 176.818 54.246 C 173.195 59.318, 171 63.799, 171 66.119 C 171 67.895, 171.247 68.040, 172.500 67 C 173.325 66.315, 174 65.190, 174 64.500 C 174 63.810, 174.697 62.666, 175.550 61.959 C 176.915 60.826, 181 53.028, 181 51.555 C 181 50, 178.873 51.369, 176.818 54.246 M 231.265 59.815 C 229.094 61.194, 229.503 67.661, 232.553 80.177 C 233.133 82.556, 232.752 83.086, 229.143 84.927 C 226.908 86.067, 224.499 87.003, 223.790 87.006 C 223.080 87.010, 221.333 87.621, 219.907 88.365 C 218.481 89.110, 215.714 90.019, 213.758 90.386 C 211.802 90.753, 208.919 91.687, 207.351 92.463 C 204.171 94.035, 182.249 100.266, 174.500 101.800 C 162.089 104.256, 159.506 105.334, 159.401 108.101 C 159.347 109.531, 158.952 111.269, 158.523 111.963 C 158.072 112.692, 158.315 113.577, 159.099 114.061 C 160.563 114.966, 168.246 114.338, 171.500 113.048 C 172.600 112.612, 177.100 111.456, 181.500 110.478 C 185.900 109.500, 190.861 107.943, 192.524 107.017 C 194.188 106.091, 197.583 105.055, 200.069 104.714 C 202.555 104.373, 205.919 103.401, 207.545 102.553 C 209.170 101.706, 211.271 101.010, 212.213 101.006 C 213.964 101, 222.653 97.883, 226.815 95.769 C 230.856 93.716, 232.411 95.751, 233.184 104.106 C 233.958 112.482, 238.265 127.145, 240.494 128.995 C 241.308 129.671, 242.704 129.944, 243.596 129.602 C 245.377 128.918, 245.259 123.665, 243.052 105.500 C 242.451 100.550, 241.573 90.200, 241.101 82.500 C 240.513 72.903, 239.735 67.556, 238.628 65.500 C 237.739 63.850, 237.010 61.712, 237.006 60.750 C 237 58.902, 233.580 58.345, 231.265 59.815 M 159.186 89.717 C 157.984 91.211, 157 92.988, 157 93.664 C 157 94.341, 155.875 97.010, 154.500 99.596 C 151.979 104.337, 151.267 108, 152.867 108 C 153.343 108, 154.692 105.862, 155.865 103.250 C 157.037 100.638, 159.122 96.517, 160.498 94.093 C 164.378 87.258, 163.506 84.349, 159.186 89.717 M 204.813 97.683 C 205.534 97.972, 206.397 97.936, 206.729 97.604 C 207.061 97.272, 206.471 97.036, 205.417 97.079 C 204.252 97.127, 204.015 97.364, 204.813 97.683 M 178.157 104.995 C 172.989 106.217, 171.844 108, 176.229 108 C 178.224 108, 180.460 107.397, 181.196 106.661 C 181.933 105.924, 183.203 105.060, 184.018 104.740 C 186.242 103.866, 182.183 104.043, 178.157 104.995 M 98 106.500 C 98 107.333, 98.889 108, 100 108 C 101.111 108, 102 107.333, 102 106.500 C 102 105.667, 101.111 105, 100 105 C 98.889 105, 98 105.667, 98 106.500 M 77.200 111.200 C 75.466 112.934, 75.724 114, 77.878 114 C 80.591 114, 82.546 111.423, 80.444 110.617 C 78.401 109.833, 78.604 109.796, 77.200 111.200 M 40.200 113.200 C 39.009 114.391, 38.509 118, 39.535 118 C 40.976 118, 45 114.602, 45 113.385 C 45 111.684, 41.838 111.562, 40.200 113.200 M 55.473 115.956 C 55.798 116.482, 56.725 116.659, 57.532 116.349 C 59.599 115.556, 59.356 115, 56.941 115 C 55.809 115, 55.148 115.430, 55.473 115.956 M 162.250 144.718 C 161.563 144.965, 161 146.424, 161 147.961 C 161 149.498, 160.360 152.288, 159.577 154.161 C 158.630 156.427, 158.312 159.731, 158.624 164.033 C 158.883 167.590, 159.298 185.125, 159.546 203 C 159.795 220.875, 160.336 238.425, 160.749 242 C 161.450 248.066, 161.667 248.500, 164 248.500 C 166.926 248.500, 166.860 249.811, 165.093 226.771 C 164.213 215.286, 164.175 208.974, 164.954 203.376 C 165.713 197.920, 165.708 193.229, 164.939 187.105 C 164.133 180.692, 164.162 176.522, 165.054 170.732 C 165.976 164.744, 165.979 161.995, 165.068 158.732 C 164.090 155.228, 164.154 153.861, 165.443 150.782 C 166.299 148.737, 167 146.841, 167 146.567 C 167 145.632, 163.501 144.270, 162.250 144.718 M 218.500 146.042 C 216.300 146.489, 206.625 146.918, 197 146.997 C 187.375 147.076, 177.820 147.574, 175.767 148.104 C 171.825 149.122, 169.610 151.821, 170.600 154.400 C 171.545 156.864, 177.043 157.328, 198.271 156.737 C 216.521 156.229, 218.357 156.013, 220.354 154.138 C 221.894 152.690, 222.965 152.367, 224.015 153.031 C 224.832 153.547, 227.172 153.976, 229.215 153.985 C 233.246 154.001, 235 155.906, 235 160.268 C 235 161.587, 235.330 162.997, 235.733 163.400 C 237.186 164.852, 239.078 172.665, 239.993 180.986 C 240.664 187.095, 241.410 189.827, 242.654 190.736 C 243.611 191.436, 243.844 192, 243.174 192 C 242.303 192, 242.114 193.742, 242.493 198.250 C 242.783 201.688, 243.235 208.325, 243.498 213 C 244.022 222.319, 244.749 226.895, 247.894 240.684 C 250.077 250.254, 249.909 253.008, 247.143 252.988 C 244.663 252.970, 235.053 250.280, 233.694 249.223 C 231.924 247.847, 212.948 248.653, 201.500 250.590 C 196 251.521, 187.225 252.420, 182 252.587 C 161.650 253.238, 158.454 254.207, 159.212 259.493 C 159.617 262.315, 163.629 262.745, 164.481 260.058 C 165.405 257.149, 172.073 257.005, 171.313 259.911 C 170.863 261.631, 171.493 261.855, 177.657 262.161 C 185.973 262.573, 199.867 261.360, 202.207 260.016 C 203.146 259.477, 209.463 258.740, 216.244 258.377 C 227.444 257.778, 229.010 257.911, 233.328 259.821 C 236.893 261.398, 240.136 261.926, 246.291 261.932 C 250.806 261.937, 255.578 261.955, 256.896 261.971 C 260.179 262.013, 262 260.267, 262 257.078 C 262 253.792, 260.341 252, 257.300 252 C 255.192 252, 255 251.561, 254.999 246.750 C 254.997 241.721, 252.798 227.136, 251.568 224 C 251.245 223.175, 250.515 213.950, 249.947 203.500 C 248.213 171.600, 247.373 164.013, 244.798 157 C 241.297 147.465, 241.145 147.302, 234.566 146.092 C 227.912 144.867, 224.340 144.856, 218.500 146.042 M 97 147 C 97 147.550, 98.098 148, 99.441 148 C 100.784 148, 102.160 147.550, 102.500 147 C 102.861 146.417, 101.844 146, 100.059 146 C 98.377 146, 97 146.450, 97 147 M 73 153 C 73 153.550, 73.477 154, 74.059 154 C 74.641 154, 74.840 153.550, 74.500 153 C 74.160 152.450, 73.684 152, 73.441 152 C 73.198 152, 73 152.450, 73 153 M 188 153 C 188 153.550, 188.477 154, 189.059 154 C 189.641 154, 189.840 153.550, 189.500 153 C 189.160 152.450, 188.684 152, 188.441 152 C 188.198 152, 188 152.450, 188 153 M 157.079 154.583 C 157.127 155.748, 157.364 155.985, 157.683 155.188 C 157.972 154.466, 157.936 153.603, 157.604 153.271 C 157.272 152.939, 157.036 153.529, 157.079 154.583 M 46.397 156.167 C 46.114 156.625, 47.484 157, 49.441 157 C 51.398 157, 53 156.625, 53 156.167 C 53 155.708, 51.630 155.333, 49.956 155.333 C 48.282 155.333, 46.680 155.708, 46.397 156.167 M 240.070 167.250 C 240.032 169.313, 240.450 171, 241 171 C 242.194 171, 242.194 168.279, 241 165.500 C 240.311 163.896, 240.127 164.242, 240.070 167.250 M 229.211 254.605 C 227.782 256.151, 228.747 256.447, 230.857 255.110 C 231.603 254.637, 231.828 254.016, 231.357 253.730 C 230.886 253.444, 229.920 253.838, 229.211 254.605 M 176 258 C 173.887 258.677, 174.168 258.816, 177.809 258.900 C 180.449 258.961, 181.879 258.613, 181.500 258 C 180.795 256.860, 179.560 256.860, 176 258" stroke="none" fill="black" fill-rule="evenodd"/>
</svg>