<svg xmlns="http://www.w3.org/2000/svg" width="300" height="300" viewBox="0 0 300 300" version="1.1">
	<path d="M 114 42.751 C 108.775 43.563, 102.700 44.289, 100.500 44.364 C 98.300 44.439, 95.938 44.864, 95.250 45.309 C 93.388 46.514, 93.735 49.819, 96.068 53.096 C 98.468 56.466, 101.856 56.854, 109 54.574 C 121.632 50.543, 123.601 50.405, 135.891 52.685 C 140.105 53.467, 140.348 53.709, 141.901 58.677 C 142.791 61.524, 143.853 64.186, 144.260 64.593 C 144.667 65, 145 66.758, 145 68.500 C 145 70.242, 145.338 72.001, 145.750 72.410 C 146.657 73.308, 148.939 88.736, 149.646 98.750 C 149.928 102.737, 150.572 106, 151.079 106 C 151.586 106, 152 109.627, 152 114.059 C 152 119.218, 152.363 121.894, 153.008 121.495 C 154.434 120.614, 157 123.463, 157 125.929 C 157 127.495, 156.363 128, 154.387 128 C 151.987 128, 151.820 128.266, 152.348 131.250 C 153.457 137.516, 154.895 149.579, 155.537 158 C 156.334 168.459, 157.805 192.079, 157.996 197.500 C 158.772 219.485, 159.303 225, 160.646 225 C 161.828 225, 161.810 225.467, 160.533 227.937 C 159.698 229.552, 159.230 231.464, 159.494 232.187 C 160.043 233.690, 158.634 245.101, 156.985 252.500 C 156.372 255.250, 155.642 259.300, 155.363 261.500 C 155.083 263.700, 154.212 266.918, 153.427 268.651 C 151.323 273.296, 151.630 274.616, 155.502 277.570 C 158.375 279.761, 159.274 280.018, 160.502 278.998 C 161.326 278.314, 162 276.685, 162 275.378 C 162 274.070, 162.450 273, 163 273 C 163.550 273, 164.011 271.313, 164.024 269.250 C 164.037 267.188, 164.509 263.700, 165.073 261.500 C 166.106 257.469, 167.309 249.685, 168.821 237.250 C 169.272 233.537, 169.272 225.100, 168.820 218.500 C 168.368 211.900, 167.555 197.275, 167.012 186 C 166.470 174.725, 165.608 162.800, 165.097 159.500 C 164.587 156.200, 164.131 149.814, 164.084 145.309 C 164.038 140.804, 163.661 136.908, 163.246 136.652 C 162.832 136.396, 162.356 129.732, 162.188 121.843 C 162.020 113.954, 161.455 105.700, 160.931 103.500 C 159.909 99.201, 158.096 85.936, 157.309 77 C 157.042 73.975, 156.414 71.073, 155.912 70.550 C 155.410 70.027, 155 67.862, 155 65.738 C 155 60.889, 152.183 52.117, 149.804 49.561 C 148.812 48.495, 148 47.330, 148 46.971 C 148 46.613, 146.088 45.752, 143.750 45.057 C 141.412 44.362, 137.685 43.165, 135.467 42.397 C 130.645 40.727, 126.601 40.794, 114 42.751 M 223 46.892 C 223 47.382, 221.875 48.066, 220.500 48.411 C 218.459 48.923, 218 49.650, 218 52.370 C 218 54.203, 216.875 57.818, 215.500 60.404 C 214.125 62.990, 212.994 66.770, 212.986 68.803 C 212.976 71.217, 211.241 75.957, 207.986 82.465 C 205.244 87.945, 203 92.930, 203 93.540 C 203 94.151, 201.875 95.708, 200.500 97 C 199.125 98.292, 198 99.945, 198 100.674 C 198 101.403, 197.550 102, 197 102 C 196.450 102, 196 102.852, 196 103.893 C 196 104.934, 195.325 106.045, 194.500 106.362 C 193.675 106.678, 193 107.454, 193 108.087 C 193 108.719, 191.650 110.774, 190 112.653 C 188.350 114.532, 187 116.681, 187 117.429 C 187 118.177, 185.650 120.234, 184 122 C 180.660 125.576, 180.439 126.303, 182.250 127.762 C 184.127 129.275, 187.560 127.554, 189.619 124.068 C 190.616 122.381, 191.746 121, 192.131 121 C 193.255 121, 200.358 113.216, 202.031 110.151 C 202.874 108.608, 204.789 106.120, 206.287 104.622 C 209.505 101.404, 213 94.891, 213 92.112 C 213 91.030, 214.012 89.325, 215.250 88.323 C 216.488 87.320, 218.174 85.150, 218.998 83.500 C 219.823 81.850, 220.760 80.275, 221.081 80 C 221.402 79.725, 222.524 77.025, 223.574 74 C 224.624 70.975, 225.735 68.275, 226.043 68 C 227.778 66.450, 230 57.585, 230 52.217 L 230 46 226.500 46 C 224.575 46, 223 46.401, 223 46.892 M 78.362 49.500 C 78.041 50.337, 76.554 51, 75 51 C 70.576 51, 70.021 54.720, 72.416 68.313 C 73.802 76.173, 75 79.295, 75 75.044 C 75 73.094, 75.229 72.945, 76.544 74.036 C 78.468 75.633, 78.222 87.103, 76.250 87.754 C 75.381 88.041, 75 86.870, 75 83.917 C 75 81.579, 74.755 79.911, 74.456 80.211 C 73.893 80.773, 72.112 121.533, 71.537 147 C 71.357 154.975, 70.654 167.125, 69.975 174 C 69.295 180.875, 68.563 189.875, 68.347 194 C 68.131 198.125, 67.700 203.340, 67.388 205.589 C 66.974 208.573, 67.250 210.107, 68.410 211.267 C 70.417 213.274, 70.415 214.410, 68.404 216.079 C 67.039 217.212, 66.883 219.333, 67.322 230.750 C 67.610 238.260, 68.319 244.680, 68.943 245.431 C 69.775 246.434, 69.685 246.907, 68.580 247.331 C 67.383 247.790, 67.100 250.564, 67.060 262.198 C 67.001 279.231, 67.533 283, 69.996 283 C 70.972 283, 72.470 281.931, 73.326 280.625 C 75.108 277.905, 75.501 270.961, 76.872 218 C 77.363 199.025, 78.272 180.125, 78.892 176 C 80.254 166.946, 81.458 147.215, 81.029 141 C 80.610 134.933, 80.862 126.853, 81.918 112.500 C 82.403 105.900, 83.117 92.400, 83.504 82.500 C 83.891 72.600, 84.836 61.960, 85.604 58.856 C 86.372 55.751, 87 52.039, 87 50.606 C 87 48.229, 86.646 48, 82.969 48 C 80.308 48, 78.742 48.510, 78.362 49.500 M 254.643 90.500 C 253.818 91.325, 252.237 92, 251.130 92 C 250.024 92, 248.758 92.563, 248.317 93.250 C 246.991 95.319, 244.845 101.305, 244.284 104.500 C 243.994 106.150, 243.200 108.175, 242.520 109 C 241.840 109.825, 240.768 112.035, 240.138 113.911 C 239.507 115.787, 237.869 118.795, 236.496 120.594 C 235.123 122.394, 234 124.770, 234 125.874 C 234 126.978, 233.550 128.160, 233 128.500 C 232.450 128.840, 232 129.751, 232 130.526 C 232 131.300, 230.425 133.508, 228.500 135.433 C 226.575 137.358, 225 139.848, 225 140.967 C 225 142.085, 224.600 143, 224.111 143 C 223.623 143, 222.927 144.575, 222.566 146.500 C 222.205 148.425, 221.480 150, 220.955 150 C 220.430 150, 220 150.796, 220 151.768 C 220 153.403, 212.068 162.333, 205.711 167.855 C 204.220 169.150, 203 171.025, 203 172.022 C 203 173.018, 202.498 174.001, 201.885 174.205 C 200.392 174.703, 199.684 181.686, 201.042 182.526 C 202.209 183.247, 210 178.525, 210 177.096 C 210 176.615, 211.565 174.484, 213.477 172.360 C 215.389 170.237, 216.964 168.162, 216.977 167.750 C 216.990 167.338, 217.675 167, 218.500 167 C 219.325 167, 220 166.363, 220 165.583 C 220 164.804, 220.340 164.017, 220.756 163.833 C 222.172 163.209, 230 152.743, 230 151.475 C 230 150.779, 232.700 146.254, 236 141.418 C 239.300 136.582, 242 132.268, 242 131.832 C 242 131.396, 243.575 128.577, 245.500 125.567 C 247.425 122.558, 249 119.772, 249 119.377 C 249 118.981, 249.616 117.947, 250.368 117.079 C 251.120 116.210, 252.748 111.450, 253.985 106.500 C 255.222 101.550, 256.856 96.503, 257.617 95.285 C 260.564 90.566, 258.269 86.874, 254.643 90.500 M 204.211 95.538 C 203.145 96.746, 203.189 97, 204.461 97 C 205.307 97, 206 96.325, 206 95.500 C 206 93.676, 205.850 93.680, 204.211 95.538 M 244.607 108.582 C 243.647 111.084, 243.886 112, 245.500 112 C 246.433 112, 247 111.056, 247 109.500 C 247 106.707, 245.541 106.147, 244.607 108.582 M 87.667 123.667 C 86.616 124.718, 86.890 132.814, 88 133.500 C 88.550 133.840, 89 135.003, 89 136.085 C 89 137.966, 89.135 137.981, 92.133 136.431 C 94.717 135.095, 95.412 135.047, 96.101 136.156 C 96.576 136.921, 96.519 137.644, 95.968 137.833 C 94.166 138.454, 94.953 142.175, 97 142.710 C 98.100 142.998, 99 143.578, 99 144 C 99 144.850, 99.482 145.030, 109.500 147.921 C 118.947 150.648, 142.421 150.951, 143.416 148.359 C 145.318 143.401, 140.975 141.391, 126.219 140.400 C 120.565 140.021, 115.701 139.325, 115.410 138.855 C 115.120 138.385, 113.731 138, 112.325 138 C 108.480 138, 94.081 126.793, 94.016 123.750 C 93.996 122.822, 88.583 122.751, 87.667 123.667 M 101 140.378 C 101 140.585, 101.675 141.315, 102.500 142 C 103.729 143.020, 104 142.951, 104 141.622 C 104 140.730, 103.325 140, 102.500 140 C 101.675 140, 101 140.170, 101 140.378 M 276 151 C 276 151.550, 274.924 152, 273.608 152 C 271.307 152, 270.153 153.976, 269.522 159 C 269.287 160.874, 268.130 164.870, 267.062 167.500 C 266.615 168.600, 265.743 170.759, 265.125 172.297 C 264.506 173.835, 263.986 176.310, 263.968 177.797 C 263.951 179.284, 263.276 181.374, 262.468 182.441 C 261.661 183.509, 261 185.384, 261 186.608 C 261 187.832, 260.663 188.983, 260.250 189.167 C 259.269 189.603, 256 196.689, 256 198.379 C 256 199.100, 255.111 200.494, 254.026 201.477 C 252.940 202.460, 251.756 204.217, 251.394 205.382 C 251.033 206.547, 249.956 208.625, 249 210 C 248.044 211.375, 246.949 213.510, 246.566 214.744 C 246.014 216.521, 246.195 216.863, 247.435 216.387 C 249.555 215.573, 249.494 219.799, 247.346 222.500 C 245.825 224.414, 245.782 224.360, 246.353 221.250 C 246.716 219.274, 246.540 218, 245.904 218 C 244.056 218, 241.992 220.791, 241.324 224.192 C 240.967 226.011, 239.851 228.225, 238.844 229.111 C 237.838 229.997, 236.343 232.329, 235.522 234.293 C 234.702 236.257, 233.573 238.146, 233.015 238.491 C 232.457 238.836, 232 239.922, 232 240.906 C 232 241.889, 230.515 244.225, 228.700 246.097 C 226.884 247.968, 224.522 251.636, 223.450 254.246 C 222.377 256.857, 221.162 258.994, 220.750 258.996 C 220.338 258.998, 220 259.417, 220 259.927 C 220 261.282, 211.762 273, 210.809 273 C 210.364 273, 210 273.675, 210 274.500 C 210 275.325, 209.148 276, 208.107 276 C 206.089 276, 205.014 277.696, 205.731 279.750 C 206.341 281.500, 212.495 281.314, 214 279.500 C 214.685 278.675, 215.865 278, 216.622 278 C 217.380 278, 218 277.406, 218 276.680 C 218 275.955, 219.012 274.411, 220.250 273.250 C 221.488 272.089, 222.950 270.545, 223.500 269.818 C 228.593 263.094, 230 260.984, 230 260.067 C 230 259.480, 230.370 259, 230.822 259 C 231.274 259, 233.548 255.738, 235.875 251.750 C 241.680 241.803, 242.425 240.575, 243 240 C 243.956 239.044, 245.980 235.479, 247.533 232.014 C 248.392 230.096, 249.964 227.603, 251.024 226.474 C 252.085 225.345, 255.187 220.073, 257.917 214.760 C 260.647 209.447, 264.060 202.987, 265.501 200.405 C 266.943 197.823, 268.823 193.638, 269.679 191.105 C 270.535 188.572, 271.543 186.275, 271.919 186 C 272.890 185.289, 277.179 171.179, 277.693 167 C 277.930 165.075, 278.525 162.600, 279.015 161.500 C 279.944 159.414, 281.985 152.051, 281.994 150.750 C 281.997 150.338, 280.650 150, 279 150 C 277.350 150, 276 150.450, 276 151 M 144.783 169.500 C 143.301 170.875, 141.584 172, 140.969 172 C 140.354 172, 136.621 174.103, 132.675 176.672 C 124.636 181.908, 111.167 188.989, 109.236 188.996 C 108.541 188.998, 107.191 189.395, 106.236 189.878 C 100.242 192.909, 96.252 194, 91.166 194 C 87.995 194, 84.860 194.540, 84.200 195.200 C 82.483 196.917, 82.720 200.523, 84.655 202.128 C 86.765 203.878, 100.458 203.942, 102.191 202.209 C 102.856 201.544, 104.331 201, 105.468 201 C 106.605 201, 109.191 199.875, 111.215 198.500 C 113.238 197.125, 115.602 196, 116.467 196 C 117.332 196, 119.822 194.875, 122 193.500 C 124.178 192.125, 126.382 191, 126.897 191 C 127.412 191, 127.983 190.616, 128.167 190.147 C 128.350 189.679, 132.550 186.454, 137.500 182.981 C 148.774 175.072, 150 173.803, 150 170.042 C 150 166.318, 148.395 166.151, 144.783 169.500 M 210 167.969 C 210 168.501, 210.675 168.678, 211.500 168.362 C 212.325 168.045, 213 167.609, 213 167.393 C 213 167.177, 212.325 167, 211.500 167 C 210.675 167, 210 167.436, 210 167.969 M 270.079 168.583 C 270.127 169.748, 270.364 169.985, 270.683 169.188 C 270.972 168.466, 270.936 167.603, 270.604 167.271 C 270.272 166.939, 270.036 167.529, 270.079 168.583 M 70.079 199.583 C 70.127 200.748, 70.364 200.985, 70.683 200.188 C 70.972 199.466, 70.936 198.603, 70.604 198.271 C 70.272 197.939, 70.036 198.529, 70.079 199.583 M 130.528 243.954 C 129.497 245.624, 130.901 250.442, 134.890 258.922 C 137.202 263.836, 144.787 271, 147.678 271 L 150.066 271 147.136 265.437 C 145.525 262.377, 142.810 258.339, 141.103 256.464 C 139.397 254.588, 138 252.628, 138 252.108 C 138 251.588, 137.213 249.663, 136.250 247.832 C 133.845 243.255, 131.812 241.877, 130.528 243.954 M 232.250 245.220 C 231.012 245.817, 230 246.719, 230 247.224 C 230 247.729, 229.325 248.818, 228.500 249.643 C 226.763 251.380, 226.505 254, 228.071 254 C 229.624 254, 231.260 252.019, 233.234 247.750 C 234.187 245.688, 234.862 244.030, 234.734 244.068 C 234.605 244.105, 233.488 244.624, 232.250 245.220 M 159 253.941 C 159 256.356, 159.556 256.599, 160.349 254.532 C 160.659 253.725, 160.482 252.798, 159.956 252.473 C 159.430 252.148, 159 252.809, 159 253.941 M 211.583 274.866 C 211.152 275.563, 211.070 276.403, 211.400 276.733 C 212.295 277.628, 213.271 276.312, 212.787 274.862 C 212.449 273.846, 212.213 273.846, 211.583 274.866" stroke="none" fill="black" fill-rule="evenodd"/>
</svg>