<svg xmlns="http://www.w3.org/2000/svg" width="300" height="300" viewBox="0 0 300 300" version="1.1">
	<path d="M 219.819 45.250 C 218.959 45.938, 218.022 47.486, 217.737 48.691 C 217.096 51.397, 219.331 73.375, 221.474 85.447 C 222.348 90.369, 222.825 95.015, 222.534 95.773 C 222.102 96.897, 217.814 97.108, 199.253 96.922 C 186.739 96.796, 176.050 96.368, 175.500 95.972 C 174.181 95.021, 169.008 94.033, 160.928 93.187 C 156.743 92.750, 153.721 91.864, 152.607 90.750 C 150.387 88.530, 149.819 88.555, 147 91 C 145.732 92.100, 144.313 93, 143.847 93 C 143.381 93, 143 94.125, 143 95.500 C 143 96.875, 143.527 98, 144.171 98 C 144.815 98, 146.053 98.622, 146.921 99.382 C 149.596 101.724, 174.857 106.978, 182.595 106.802 C 187.853 106.683, 213.468 107.391, 223.650 107.938 C 225.064 108.014, 226.673 115.065, 227.513 124.869 C 227.860 128.923, 228.810 135.673, 229.624 139.869 C 230.437 144.066, 231.498 152.753, 231.981 159.172 C 232.463 165.592, 233.561 175.717, 234.420 181.672 C 235.279 187.628, 236.655 202.400, 237.478 214.500 C 238.301 226.600, 239.267 240.213, 239.625 244.750 L 240.275 253 236.197 253 C 233.953 253, 231.840 252.550, 231.500 252 C 231.160 251.450, 230.262 251, 229.504 251 C 228.473 251, 228.277 251.932, 228.725 254.695 C 229.284 258.137, 231.410 262.144, 235.716 267.873 C 238.722 271.872, 240.927 275.381, 242.077 278 C 245.063 284.794, 245.624 285.500, 248.038 285.500 C 250.148 285.500, 250.543 284.979, 250.804 281.856 C 250.973 279.834, 251.974 277.428, 253.054 276.451 C 255.492 274.245, 255.504 272.109, 253.110 266.739 C 251.159 262.361, 250.306 253.172, 247.614 207.500 C 246.966 196.500, 246.096 186.954, 245.681 186.287 C 245.267 185.619, 244.731 182.469, 244.491 179.287 C 243.605 167.547, 242.215 156.276, 240.623 147.908 C 238.791 138.285, 237.797 111.752, 239.134 108.183 C 239.791 106.427, 240.498 106.023, 242.049 106.515 C 243.175 106.873, 244.680 106.680, 245.394 106.088 C 246.302 105.334, 249.009 105.304, 254.390 105.986 C 259.912 106.686, 262.599 106.643, 263.895 105.833 C 265.332 104.936, 266.523 105.166, 269.704 106.954 C 271.905 108.191, 274.551 109.041, 275.582 108.842 C 278.132 108.351, 279.651 103.753, 278.420 100.250 C 277.544 97.755, 276.761 97.388, 269.977 96.294 C 261.626 94.948, 244.785 94.808, 239.323 96.040 C 237.362 96.482, 235.193 96.627, 234.502 96.362 C 233.798 96.092, 232.562 91.848, 231.685 86.690 C 230.826 81.636, 229.377 74.350, 228.464 70.500 C 227.552 66.650, 226.578 59.675, 226.300 55 C 225.803 46.633, 224.910 44, 222.569 44 C 221.916 44, 220.679 44.563, 219.819 45.250 M 106 62.176 C 102.975 62.610, 96.900 62.931, 92.500 62.889 C 88.100 62.848, 80.900 63.365, 76.500 64.039 C 72.100 64.713, 66.947 65.198, 65.050 65.117 C 62.403 65.004, 61.102 65.594, 59.463 67.648 L 57.327 70.327 55.164 68.164 C 52.195 65.195, 51.515 65.400, 49.124 69.986 C 47.286 73.514, 47.171 74.578, 48.126 79.236 C 48.719 82.131, 49.109 86.300, 48.991 88.500 C 48.874 90.700, 48.814 92.950, 48.857 93.500 C 49.365 99.893, 50.051 135.732, 50.407 174.500 C 50.664 202.448, 51.260 223.576, 51.833 225.076 C 52.375 226.493, 52.522 229.086, 52.159 230.839 C 50.999 236.444, 52.456 263.242, 54.058 265.761 C 56.063 268.915, 58.534 269.434, 61.449 267.311 C 64.298 265.237, 64.688 262.816, 62.469 260.974 C 61.155 259.884, 60.953 255.649, 61.043 231.102 C 61.255 172.978, 59.738 103.929, 58.094 96.822 C 57.403 93.836, 57.741 75, 58.485 75 C 58.599 75, 60.040 75.672, 61.687 76.494 C 64.325 77.810, 65.205 77.814, 69.090 76.525 C 74.809 74.629, 101.770 72.916, 104.500 74.275 C 111.205 77.614, 114.732 88.860, 118.056 117.500 C 118.567 121.900, 119.235 126.400, 119.541 127.500 C 119.846 128.600, 120.472 136.700, 120.931 145.500 C 121.390 154.300, 122.262 163.300, 122.868 165.500 C 123.971 169.497, 126.220 191.644, 128.086 216.869 C 128.936 228.356, 128.858 230.567, 127.537 232.583 C 125.581 235.570, 125.541 240.610, 127.468 241.350 C 128.276 241.659, 129.603 243.508, 130.417 245.456 C 132.611 250.707, 137 249.988, 137 244.378 C 137 243.575, 137.953 241.630, 139.118 240.055 C 140.312 238.440, 140.908 236.661, 140.486 235.977 C 140.073 235.310, 139.138 226.829, 138.408 217.132 C 135.986 184.955, 135.032 174.549, 134.045 169.500 C 133.507 166.750, 132.832 160.900, 132.546 156.500 C 132.259 152.100, 131.568 145.125, 131.011 141 C 130.454 136.875, 129.547 129.225, 128.995 124 C 127.931 113.935, 125.529 99.154, 123.875 92.500 C 121.621 83.431, 120.188 78.363, 119.210 76 C 118.641 74.625, 117.197 70.946, 116.002 67.824 C 114.806 64.702, 113.304 61.977, 112.664 61.767 C 112.024 61.558, 109.025 61.741, 106 62.176 M 228.538 108.879 C 228.175 110.023, 228.320 111.750, 228.861 112.716 C 229.722 114.255, 229.931 114.124, 230.549 111.663 C 231.402 108.263, 229.548 105.697, 228.538 108.879 M 75.267 134.232 C 73.489 135.479, 72.030 136.950, 72.024 137.500 C 71.989 140.897, 89.656 146.877, 95.439 145.426 C 96.608 145.133, 98.900 145.589, 100.532 146.440 C 104.451 148.484, 109.881 148.474, 110.668 146.422 C 111.514 144.218, 107.788 139.559, 104.900 139.208 C 103.580 139.048, 101.600 138.537, 100.500 138.072 C 99.400 137.608, 96.475 136.646, 94 135.934 C 91.525 135.222, 89.050 134.328, 88.500 133.946 C 87.950 133.564, 85.475 132.962, 83 132.608 C 79.284 132.076, 77.937 132.359, 75.267 134.232 M 185 150.647 C 176.932 153.277, 174.715 155.433, 176.767 158.657 C 177.172 159.294, 180.653 160.466, 184.502 161.263 C 188.351 162.060, 193.848 163.902, 196.717 165.356 C 199.586 166.810, 202.762 168, 203.776 168 C 204.789 168, 206.491 168.661, 207.559 169.468 C 210.119 171.404, 213.911 171.394, 214.658 169.449 C 215.446 167.395, 211.621 163.419, 206.818 161.300 C 204.718 160.373, 203 159.287, 203 158.887 C 203 158.487, 201.703 157.874, 200.117 157.526 C 198.532 157.178, 195.423 155.342, 193.208 153.446 C 189.269 150.074, 188.041 149.656, 185 150.647 M 87.500 177.663 C 83.075 178.449, 76.888 178.843, 73.655 178.547 C 68.416 178.066, 67.756 178.218, 67.288 180.005 C 67.001 181.102, 66.417 182, 65.990 182 C 63.855 182, 64.376 185.288, 66.960 188.118 C 69.063 190.419, 70.338 191.076, 71.672 190.544 C 75.363 189.070, 83.645 187.161, 89 186.550 C 97.031 185.635, 100 184.948, 100 184.003 C 100 183.543, 102.346 182.663, 105.213 182.048 C 110.593 180.894, 112.190 179.659, 111.300 177.341 C 110.622 175.572, 98.346 175.739, 87.500 177.663 M 239.094 189.500 C 239.123 192.999, 239.244 193.207, 240.064 191.162 C 240.654 189.688, 240.642 188.210, 240.031 187.162 C 239.291 185.895, 239.069 186.450, 239.094 189.500 M 54 214.500 C 54 215.875, 54.413 217, 54.917 217 C 56.088 217, 56.842 214.872, 56.246 213.250 C 55.450 211.085, 54 211.892, 54 214.500" stroke="none" fill="black" fill-rule="evenodd"/>
</svg>