<svg xmlns="http://www.w3.org/2000/svg" width="300" height="300" viewBox="0 0 300 300" version="1.1">
	<path d="M 240 22.035 C 233.081 23.007, 221.448 26.140, 213 29.307 C 209.425 30.648, 203.800 32.063, 200.500 32.453 C 193.664 33.260, 190 35.180, 190 37.956 C 190 40.715, 193.590 41.499, 196.748 39.430 C 198.565 38.239, 199.519 38.056, 199.782 38.847 C 200.252 40.257, 207 40.400, 207 39 C 207 38.450, 205.762 37.980, 204.250 37.955 L 201.500 37.910 204.500 36.584 C 206.224 35.823, 207.904 35.629, 208.450 36.130 C 208.973 36.608, 210.998 36.986, 212.950 36.970 C 215.937 36.944, 216.211 36.771, 214.677 35.879 C 212.947 34.873, 212.942 34.721, 214.582 32.909 C 217.140 30.083, 219.365 30.410, 218.589 33.500 C 217.878 36.334, 218.634 36.591, 221.441 34.468 C 222.509 33.661, 224.259 33, 225.331 33 C 226.403 33, 227.847 32.225, 228.540 31.277 C 229.464 30.013, 231.342 29.528, 235.589 29.459 C 239.193 29.401, 241.532 28.903, 241.786 28.141 C 242.103 27.192, 242.517 27.184, 243.627 28.105 C 244.681 28.980, 245.685 29.009, 247.430 28.214 C 249.217 27.399, 250.245 27.459, 251.608 28.456 C 252.603 29.183, 253.998 29.554, 254.708 29.282 C 256.895 28.443, 256.173 24.344, 253.535 22.615 C 250.913 20.897, 248.758 20.805, 240 22.035 M 101.094 34.387 C 100.442 35.172, 100.355 36.771, 100.865 38.578 C 101.318 40.185, 101.344 46.924, 100.923 53.553 C 100.501 60.183, 100.192 66.258, 100.236 67.053 C 100.279 67.849, 100.244 70.326, 100.158 72.558 C 100.014 76.266, 99.660 76.765, 96.052 78.357 C 93.880 79.315, 91.853 80.864, 91.547 81.800 C 90.915 83.733, 84.756 88, 82.597 88 C 81.811 88, 80.274 89.225, 79.184 90.723 C 77.334 93.261, 77.025 93.351, 74.602 92.054 C 71.394 90.338, 70.127 91.373, 71.921 94.245 C 73.151 96.215, 72.956 96.660, 69.633 99.450 C 64.537 103.728, 64.812 105.451, 70.250 103.314 C 75.693 101.175, 78.599 99.383, 83.253 95.296 C 85.317 93.483, 87.437 92, 87.964 92 C 88.491 92, 91.362 90.013, 94.345 87.583 C 98.337 84.332, 100.061 83.461, 100.883 84.283 C 102.456 85.856, 102.383 107.217, 100.800 108.800 C 100.140 109.460, 98.318 110, 96.750 110 C 95.183 110, 92.618 110.663, 91.050 111.474 C 89.482 112.285, 84.967 113.482, 81.016 114.134 C 75.293 115.080, 73.231 115.922, 70.872 118.282 C 69.243 119.911, 68.152 121.485, 68.447 121.780 C 70.247 123.580, 90.150 120.729, 92.089 118.393 C 92.725 117.627, 94 117, 94.922 117 C 95.845 117, 97.110 116.490, 97.733 115.867 C 98.356 115.244, 99.523 114.987, 100.327 115.295 C 101.496 115.744, 101.706 117.526, 101.374 124.178 C 100.137 148.965, 100.131 148.998, 96.183 149.004 C 94.707 149.006, 92 149.922, 90.168 151.039 C 84.926 154.235, 76.849 156.999, 72.750 156.999 C 69.372 157, 69 157.260, 69 159.617 C 69 161.961, 68.714 162.166, 66.250 161.585 C 61.297 160.418, 60.581 160.480, 60.242 162.110 C 59.750 164.477, 65.022 166.341, 69.885 165.519 C 74.591 164.724, 77.198 162.397, 74.529 161.373 C 72.067 160.428, 74.517 159.185, 77.657 159.785 C 79.581 160.153, 79.864 160.495, 78.842 161.221 C 77.521 162.159, 78.045 162.114, 82.976 160.872 C 83.923 160.633, 84.585 161.397, 84.822 163 C 85.025 164.375, 85.628 166.031, 86.160 166.680 C 87.195 167.940, 84.419 170, 81.686 170 C 80.446 170, 73 177.976, 73 179.304 C 73 179.562, 70.300 182.575, 67 186 C 63.700 189.425, 60.968 192.739, 60.928 193.364 C 60.888 193.989, 58.689 196.300, 56.040 198.500 C 53.392 200.700, 50.766 203.400, 50.205 204.500 C 49.197 206.475, 47.569 208.503, 39.250 218.142 C 36.913 220.851, 35 223.952, 35 225.033 C 35 228.246, 38.483 227.361, 42.017 223.250 C 43.790 221.188, 49.822 214.743, 55.420 208.929 C 61.018 203.115, 68.448 195.015, 71.931 190.929 C 75.413 186.843, 80.327 181.077, 82.849 178.116 C 85.371 175.155, 88.912 171.105, 90.718 169.116 C 93.898 165.612, 94.797 161.226, 92.226 161.750 C 91.552 161.887, 91 161.550, 91 161 C 91 160.450, 91.338 159.950, 91.750 159.888 C 92.162 159.827, 93.963 159.607, 95.750 159.400 L 99 159.024 99 196.512 C 99 217.799, 99.385 234, 99.892 234 C 101.184 234, 101.842 237.299, 104.029 254.729 C 105.104 263.303, 106.100 270.359, 106.242 270.409 C 106.384 270.459, 107.597 271.119, 108.939 271.876 C 111.153 273.126, 111.550 273.039, 113.262 270.925 C 114.577 269.301, 114.980 267.675, 114.593 265.548 C 114.289 263.872, 113.547 257.120, 112.944 250.544 C 112.342 243.967, 111.491 237.892, 111.052 237.044 C 109.289 233.628, 108.676 224.269, 108.543 198.750 C 108.416 174.292, 108.549 172, 110.087 172 C 111.013 172, 112.487 173.095, 113.364 174.433 C 116.014 178.478, 121.903 182.497, 123.232 181.168 C 124.086 180.314, 124.829 180.440, 126.186 181.669 C 128.408 183.679, 128.514 185, 126.453 185 C 125.125 185, 125.161 185.349, 126.703 187.469 C 127.691 188.826, 128.778 189.951, 129.118 189.969 C 129.457 189.986, 132.755 192.025, 136.446 194.500 C 143.412 199.171, 144.559 199.565, 146.896 198.086 C 148.605 197.003, 147.629 194, 145.567 194 C 144.744 194, 143.589 193.100, 143 192 C 142.411 190.900, 141.270 190, 140.465 190 C 139.659 190, 139 189.422, 139 188.716 C 139 188.009, 137.653 186.636, 136.007 185.663 C 134.361 184.691, 132.496 182.927, 131.863 181.743 C 131.229 180.560, 129.569 178.671, 128.173 177.546 C 126.778 176.420, 122.793 172.739, 119.318 169.364 C 114.695 164.874, 113 162.517, 113 160.579 C 113 159.122, 112.327 156.903, 111.505 155.648 C 110.145 153.572, 110.190 153.174, 112.005 151.225 C 113.102 150.047, 114 148.390, 114 147.542 C 114 146.694, 114.638 146, 115.417 146 C 116.196 146, 117.013 145.460, 117.234 144.799 C 117.545 143.865, 117.798 143.865, 118.376 144.799 C 118.784 145.460, 118.641 146, 118.059 146 C 117.477 146, 117 146.427, 117 146.948 C 117 147.885, 122.448 146.464, 124.500 144.993 C 125.050 144.598, 126.655 144.001, 128.066 143.665 C 129.477 143.329, 131.683 142.142, 132.969 141.027 C 134.254 139.912, 136.222 139, 137.341 139 C 139.897 139, 145.984 134.932, 145.993 133.219 C 146.006 130.896, 143.108 130.769, 138.705 132.901 C 136.320 134.055, 133.584 135, 132.625 135 C 131.666 135, 127.109 136.800, 122.500 139 C 117.891 141.200, 113.136 143, 111.934 143 C 109.814 143, 109.768 142.756, 110.372 134.750 C 112.015 112.967, 111.998 113.052, 115.069 111.464 C 116.626 110.659, 118.723 110, 119.728 110 C 120.733 110, 122.443 109.423, 123.527 108.717 C 124.612 108.011, 127.300 106.831, 129.500 106.094 C 131.700 105.357, 134.175 104.175, 135 103.468 C 135.825 102.761, 137.620 102.029, 138.990 101.841 C 141.683 101.472, 143.020 98.248, 140.998 96.999 C 139.440 96.036, 132.868 97.534, 127.702 100.030 C 125.459 101.113, 122.670 102, 121.503 102 C 120.337 102, 118.509 102.661, 117.441 103.468 C 115.133 105.214, 112.379 105.422, 111.451 103.921 C 111.085 103.328, 110.602 96.490, 110.379 88.727 L 109.974 74.611 113.393 71.055 C 119.013 65.210, 128 51.955, 128 49.512 C 128 48.039, 127.258 47.039, 125.904 46.685 C 123.163 45.968, 121 46.845, 121 48.674 C 121 49.477, 119.537 51.567, 117.750 53.318 C 115.963 55.069, 113.513 57.852, 112.306 59.501 L 110.111 62.500 110.050 56 C 109.986 49.165, 108.897 43.953, 106.246 37.790 C 104.470 33.660, 102.679 32.477, 101.094 34.387 M 183 42.500 C 183 43.325, 183.675 44, 184.500 44 C 185.325 44, 186 43.325, 186 42.500 C 186 41.675, 185.325 41, 184.500 41 C 183.675 41, 183 41.675, 183 42.500 M 189.200 51.348 C 187.385 52.006, 185.455 53.209, 184.910 54.022 C 184.279 54.965, 184.023 75.059, 184.203 109.500 C 184.453 157.549, 184.083 175.437, 182.484 192.500 C 181.446 203.579, 180.844 208.444, 180.427 209.118 C 179.475 210.659, 179.984 228.709, 181.072 232 C 182.058 234.979, 183.165 245.626, 184.244 262.500 C 184.474 266.094, 184.748 266.472, 186.947 266.227 C 190.029 265.883, 193.094 263.173, 192.757 261.089 C 192.554 259.836, 193.767 259.378, 198.500 258.924 C 201.800 258.607, 205.252 258.010, 206.172 257.597 C 207.091 257.184, 208.666 257.274, 209.672 257.797 C 210.677 258.321, 212.400 258.412, 213.500 258 C 214.600 257.588, 216.390 257.715, 217.478 258.283 C 219.448 259.310, 219.448 259.317, 217.478 260.087 C 216.138 260.610, 217.214 260.882, 220.809 260.930 C 223.848 260.970, 225.872 260.602, 225.543 260.069 C 225.226 259.557, 225.428 258.854, 225.991 258.506 C 226.554 258.158, 227.284 258.577, 227.614 259.437 C 228.437 261.582, 230.682 261.396, 233.827 258.922 C 235.957 257.246, 237.296 256.967, 240.735 257.483 C 243.477 257.894, 245 257.744, 245 257.061 C 245 256.478, 245.675 256, 246.500 256 C 247.354 256, 248 256.899, 248 258.088 C 248 259.988, 248.383 260.113, 252.250 259.474 C 254.588 259.088, 257.305 257.924, 258.289 256.886 C 260.475 254.582, 264.207 254.298, 263.362 256.500 C 263.045 257.325, 263.085 258, 263.450 258 C 265.184 258, 273.629 255.611, 274.621 254.840 C 275.238 254.361, 278.004 253.297, 280.767 252.476 C 285.606 251.040, 287.694 248.932, 286.382 246.809 C 286.024 246.230, 284.422 246.087, 282.629 246.475 C 280.908 246.848, 278.168 247.385, 276.540 247.669 C 274.911 247.954, 270.861 249.046, 267.540 250.097 C 260.129 252.441, 238.476 254.393, 222 254.202 C 206.063 254.017, 203.410 254.023, 198 254.260 L 192.500 254.500 192.472 248 C 192.456 244.425, 191.832 238.800, 191.085 235.500 C 189.561 228.776, 190.178 192.155, 191.963 183.335 C 193.320 176.627, 193.865 165.678, 193.938 143.642 L 194 124.783 196.250 125.287 C 199.136 125.932, 208.461 122.891, 208.625 121.250 C 208.694 120.563, 208.806 119.495, 208.875 118.878 C 208.963 118.089, 209.443 118.123, 210.489 118.991 C 211.308 119.671, 211.731 120.626, 211.430 121.113 C 211.129 121.601, 212.034 122, 213.441 122 C 215.538 122, 216.021 121.503, 216.116 119.250 C 216.187 117.558, 216.408 117.173, 216.689 118.250 C 217.265 120.454, 224.483 120.733, 225.700 118.598 C 226.593 117.033, 230.688 116.346, 233.020 117.370 C 234.203 117.889, 243.500 117.551, 243.500 116.989 C 243.500 116.919, 244.804 116.692, 246.398 116.484 C 248.617 116.194, 249.957 116.813, 252.119 119.128 C 255.391 122.631, 255.351 123.888, 251.606 135 C 248.369 144.604, 245.815 153.263, 242.963 164.299 L 240.689 173.099 234.964 175.939 C 231.816 177.501, 226.843 179.109, 223.914 179.512 C 220.986 179.915, 215.862 181.271, 212.527 182.526 C 209.193 183.781, 204.410 185.116, 201.898 185.493 C 196.386 186.319, 195.071 187.051, 194.571 189.573 C 194.361 190.633, 194.034 192.175, 193.845 193 C 193.262 195.536, 198.644 195.533, 200.001 192.997 C 200.690 191.711, 201.997 190.943, 203.319 191.048 C 207.835 191.407, 209 190.987, 209 189 C 209 187.449, 209.667 187, 211.969 187 C 213.602 187, 216.782 186.039, 219.034 184.865 C 222.089 183.273, 223.419 183.019, 224.265 183.865 C 226.126 185.726, 228.664 185.162, 230.408 182.500 C 231.388 181.005, 232.993 180, 234.401 180 C 235.696 180, 237.315 179.325, 238 178.500 C 239.608 176.563, 240.987 176.600, 242.466 178.623 C 244.153 180.929, 247.973 179.614, 247.281 176.965 C 246.996 175.878, 247.266 175, 247.883 175 C 248.498 175, 249 175.705, 249 176.567 C 249 177.657, 249.584 177.949, 250.916 177.527 C 251.970 177.192, 253.121 177.387, 253.475 177.959 C 254.459 179.552, 257.987 179.196, 258.663 177.436 C 259.355 175.634, 255.865 172.772, 252.024 171.992 C 249.244 171.428, 247.872 168, 250.427 168 C 251.480 168, 252 167.082, 252 165.223 C 252 163.695, 252.615 161.557, 253.367 160.473 C 254.119 159.388, 255.225 156.025, 255.824 153 C 256.423 149.975, 257.847 144.125, 258.987 140 C 261.427 131.174, 262.526 122.232, 261.617 118.608 C 261.260 117.188, 259.854 115.295, 258.491 114.402 C 255.081 112.168, 240.928 110.673, 235.928 112.019 C 233.782 112.597, 227.633 113.477, 222.263 113.975 C 211.081 115.011, 201.551 116.936, 198.172 118.841 C 196.891 119.563, 195.316 119.952, 194.672 119.704 C 193.802 119.371, 193.548 110.324, 193.687 84.627 C 193.790 65.582, 193.565 50.034, 193.187 50.076 C 192.809 50.118, 191.015 50.690, 189.200 51.348 M 116 59.059 C 116 59.641, 116.450 59.840, 117 59.500 C 117.550 59.160, 118 58.684, 118 58.441 C 118 58.198, 117.550 58, 117 58 C 116.450 58, 116 58.477, 116 59.059 M 105 118.559 C 105 119.416, 105.450 119.840, 106 119.500 C 106.550 119.160, 107 118.459, 107 117.941 C 107 117.423, 106.550 117, 106 117 C 105.450 117, 105 117.702, 105 118.559 M 105 140.382 C 105 141.207, 105.450 142.160, 106 142.500 C 106.550 142.840, 107 142.443, 107 141.618 C 107 140.793, 106.550 139.840, 106 139.500 C 105.450 139.160, 105 139.557, 105 140.382 M 121.500 143 C 119.870 143.701, 119.812 143.872, 121.191 143.930 C 122.121 143.968, 123.160 143.550, 123.500 143 C 124.211 141.850, 124.176 141.850, 121.500 143 M 249 152.500 C 249 153.325, 249.450 154, 250 154 C 250.550 154, 251 153.325, 251 152.500 C 251 151.675, 250.550 151, 250 151 C 249.450 151, 249 151.675, 249 152.500 M 101.693 170.359 C 101.360 171.226, 101.548 172.220, 102.110 172.568 C 103.667 173.530, 104.299 172.356, 103.241 170.466 C 102.399 168.961, 102.233 168.950, 101.693 170.359 M 115.638 173.500 C 115.955 174.325, 116.391 175, 116.607 175 C 116.823 175, 117 174.325, 117 173.500 C 117 172.675, 116.564 172, 116.031 172 C 115.499 172, 115.322 172.675, 115.638 173.500 M 211.667 188.667 C 210.358 189.975, 211.033 190.804, 212.989 190.293 C 214.083 190.007, 214.731 189.374, 214.430 188.886 C 213.780 187.835, 212.593 187.740, 211.667 188.667 M 102.605 222.586 C 102.271 223.458, 102.393 224.880, 102.878 225.746 C 103.637 227.103, 103.919 227.020, 104.925 225.139 C 106.080 222.981, 105.660 221, 104.048 221 C 103.589 221, 102.940 221.714, 102.605 222.586 M 271 253.059 C 271 253.641, 271.450 253.840, 272 253.500 C 272.550 253.160, 273 252.684, 273 252.441 C 273 252.198, 272.550 252, 272 252 C 271.450 252, 271 252.477, 271 253.059" stroke="none" fill="black" fill-rule="evenodd"/>
</svg>