<svg xmlns="http://www.w3.org/2000/svg" width="300" height="300" viewBox="0 0 300 300" version="1.1">
	<path d="M 218.032 30.940 C 216.522 33.762, 220.698 38.548, 223.809 37.561 C 225.574 37, 226 36.101, 226 32.933 C 226 29.112, 225.901 29, 222.535 29 C 220.129 29, 218.753 29.593, 218.032 30.940 M 217.747 40.237 C 216.828 40.931, 215.492 44.200, 214.780 47.500 L 213.484 53.500 206.992 55.655 C 200.010 57.974, 197.668 59.502, 198.279 61.339 C 198.830 62.994, 208.831 63.026, 210.479 61.379 C 211.581 60.276, 211.899 60.294, 212.357 61.487 C 213.145 63.542, 211.030 81.259, 209.823 82.714 C 209.267 83.384, 207.350 83.877, 205.563 83.810 C 203.776 83.743, 201.711 84.061, 200.974 84.516 C 200.236 84.972, 196.903 85.832, 193.567 86.427 C 188.568 87.318, 187.447 87.882, 187.197 89.627 C 187.031 90.792, 187.535 91.991, 188.318 92.292 C 189.789 92.856, 200.781 91.614, 204.750 90.435 C 206.951 89.781, 207 89.939, 207 97.761 C 207 106.955, 206.257 108.074, 200.309 107.841 C 195.392 107.648, 194 108.445, 194 111.452 C 194 114.298, 196.154 115.272, 199.574 113.972 C 204.739 112.008, 205.001 112.361, 204.985 121.250 C 204.976 125.787, 204.586 130.104, 204.118 130.843 C 203.650 131.582, 200.443 132.520, 196.992 132.926 C 190.198 133.727, 186.987 136.075, 189.139 138.668 C 191.168 141.112, 201 139.978, 201 137.300 C 201 136.493, 201.563 136.018, 202.250 136.244 C 203.929 136.796, 205.621 157.852, 204.342 162.275 C 203.412 165.492, 203.394 165.500, 196.747 165.500 C 189.730 165.500, 186.141 167.320, 187.284 170.297 C 188.089 172.396, 201 172.390, 201 170.292 C 201 169.490, 201.530 169.010, 202.179 169.226 C 203.040 169.513, 203.377 176.402, 203.429 194.764 L 203.500 219.908 205.906 220.512 C 210.410 221.643, 211.143 219.525, 210.014 208.634 C 209.457 203.262, 209.376 198.109, 209.834 197.183 C 210.292 196.257, 210.723 191.707, 210.793 187.071 C 210.975 174.916, 211.511 173.246, 215.834 171.343 C 217.850 170.455, 221.525 169.581, 224 169.400 C 226.475 169.219, 230.188 168.380, 232.250 167.536 C 236.896 165.633, 242.929 163.350, 245.250 162.616 C 246.213 162.312, 247 161.096, 247 159.915 C 247 158.074, 246.607 157.864, 244.250 158.445 C 242.738 158.818, 239.475 159.488, 237 159.934 C 234.525 160.381, 230.025 161.292, 227 161.960 C 223.975 162.628, 219.564 163.598, 217.199 164.115 C 214.833 164.632, 212.406 164.751, 211.804 164.379 C 210.362 163.488, 211.423 138.400, 212.982 136.522 C 213.813 135.520, 214.932 135.407, 217.296 136.085 C 221.732 137.357, 232.302 137.229, 235.685 135.862 C 237.233 135.237, 240.075 134.443, 242 134.099 C 244.623 133.630, 245.580 132.912, 245.820 131.237 C 246.198 128.584, 244.802 128.434, 235.579 130.134 C 230.873 131.001, 227.354 130.973, 220.613 130.016 L 211.799 128.765 212.153 120.962 C 212.348 116.670, 212.881 112.786, 213.338 112.330 C 213.795 111.873, 218.683 111.463, 224.201 111.418 C 231.949 111.355, 234.421 111, 235.060 109.858 C 235.515 109.045, 236.365 103.725, 236.948 98.036 C 237.532 92.348, 238.490 87.114, 239.078 86.406 C 239.666 85.698, 241.347 84.980, 242.815 84.809 C 246.456 84.387, 246.944 81.310, 243.573 80.028 C 240.580 78.890, 240.457 77.456, 242.361 65.847 C 244.227 54.467, 244.025 54.220, 232.949 54.304 C 221.849 54.389, 220.771 53.545, 221.215 45.116 C 221.515 39.420, 220.576 38.099, 217.747 40.237 M 221.245 60.750 C 220.196 63.643, 218.552 70.927, 217.519 77.263 C 216.729 82.101, 218.100 82.671, 226.203 80.874 C 233.512 79.252, 235 77.990, 235 73.415 C 235 71.522, 235.514 69.151, 236.141 68.146 C 237.420 66.098, 236.499 59, 234.955 59 C 234.430 59, 234 59.450, 234 60 C 234 61.571, 227.025 61.168, 225.357 59.500 C 223.222 57.365, 222.380 57.621, 221.245 60.750 M 91 68.692 C 85.853 69.734, 69.691 73.975, 69.273 74.394 C 69.034 74.633, 69.324 75.738, 69.919 76.849 C 71.497 79.797, 71.325 80.034, 67.816 79.754 C 64.923 79.523, 64.558 79.820, 63.831 83 C 62.615 88.318, 63.552 91, 66.626 91 C 68.575 91, 69.064 91.391, 68.607 92.582 C 68.273 93.452, 68 94.310, 68 94.488 C 68 94.667, 67.105 94.579, 66.012 94.293 C 63.351 93.597, 63.199 94.225, 62.073 110.548 C 61.540 118.275, 60.582 125.925, 59.945 127.548 C 59.307 129.172, 58.393 136.125, 57.914 143 C 56.621 161.532, 54.999 172.917, 52.885 178.287 C 51.489 181.833, 51 185.636, 51 192.954 C 51 199.922, 50.632 202.982, 49.750 203.338 C 48.750 203.741, 48.750 203.858, 49.750 203.921 C 51.109 204.007, 51.526 208, 50.177 208 C 49.724 208, 48.786 210.813, 48.093 214.250 C 47.399 217.688, 46.378 222.750, 45.823 225.500 C 44.601 231.553, 45.400 253.009, 46.955 255.915 C 47.592 257.106, 49.063 258, 50.383 258 C 52.673 258, 52.691 257.905, 52.238 248.250 C 51.968 242.499, 52.421 233.373, 53.342 226 C 54.200 219.125, 55.209 209.488, 55.583 204.584 C 55.958 199.680, 57.340 191.580, 58.654 186.584 C 59.969 181.588, 61.918 169.850, 62.985 160.500 C 65.200 141.105, 67.647 124.380, 68.463 123.060 C 68.768 122.566, 69.265 115.512, 69.566 107.385 C 70.065 93.938, 70.299 92.479, 72.174 91.166 C 73.910 89.949, 74.139 89.033, 73.632 85.333 C 72.963 80.451, 72.423 80.918, 82.628 77.570 C 85.639 76.582, 89.974 76.014, 93.128 76.194 L 98.500 76.500 98.313 89 C 98.210 95.875, 97.814 110.421, 97.432 121.325 L 96.738 141.149 94.119 142.092 C 90.004 143.573, 83.703 147.213, 81.376 149.454 C 77.772 152.925, 75.020 155, 74.024 155 C 72.859 155, 70.861 158.528, 71.604 159.271 C 71.898 159.565, 71.586 160.689, 70.911 161.770 C 69.074 164.712, 70.453 167.196, 73.712 166.817 C 75.546 166.603, 77.154 165.357, 78.638 163 C 81.438 158.550, 89.040 151, 90.719 151 C 91.424 151, 92 150.373, 92 149.607 C 92 148.297, 94.030 147, 96.082 147 C 96.587 147, 97 150.176, 97 154.057 C 97 157.939, 97.516 163.163, 98.146 165.667 C 99.262 170.099, 99.211 170.297, 96.201 173.110 C 94.500 174.700, 92.554 176, 91.875 176 C 91.197 176, 89.219 177.463, 87.480 179.250 C 85.741 181.037, 83.158 183.281, 81.739 184.236 C 79.147 185.981, 76 191.145, 76 193.654 C 76 194.394, 77.013 194.998, 78.250 194.995 C 80.674 194.990, 85.021 191.325, 91.703 183.651 C 94.015 180.996, 96.365 179.107, 96.924 179.453 C 97.484 179.799, 98.238 182.314, 98.600 185.041 C 98.962 187.768, 99.650 190, 100.129 190 C 100.608 190, 101 195.850, 101 203 C 101 211, 100.615 216, 100 216 C 98.748 216, 98.667 223.712, 99.915 224.167 C 100.418 224.350, 100.966 228.550, 101.133 233.500 C 101.432 242.418, 101.333 242.704, 98.133 242.150 C 97.656 242.068, 96.075 240.200, 94.619 238 C 93.007 235.565, 91.195 234, 89.986 234 C 88.314 234, 88.002 234.672, 88.015 238.250 C 88.023 240.588, 88.691 243.625, 89.499 245 C 90.307 246.375, 91.240 248.239, 91.573 249.143 C 92.359 251.279, 96.575 252.075, 103.048 251.308 L 108.235 250.694 107.450 240.097 C 107.019 234.269, 106.715 227.025, 106.774 224 C 106.834 220.975, 106.985 213.100, 107.110 206.500 C 107.238 199.743, 106.837 192.743, 106.192 190.479 C 104.434 184.310, 103.415 124.103, 104.385 83.757 C 104.624 73.835, 104.477 72.857, 102.465 70.967 C 100.179 68.820, 95.226 67.837, 91 68.692 M 228.437 85.963 C 227.893 86.507, 224.985 87.302, 221.974 87.729 C 217.042 88.429, 216.324 88.853, 214.727 92.003 C 213.567 94.291, 213.049 97.228, 213.227 100.500 L 213.500 105.500 219 106.136 C 222.025 106.485, 225.175 107.043, 226 107.375 C 229.790 108.901, 231.444 104.438, 231.479 92.588 C 231.499 85.908, 230.553 83.847, 228.437 85.963 M 141.562 106.988 C 136.803 107.904, 133.352 111.514, 135.156 113.688 C 136.480 115.283, 142.580 114.696, 147 112.549 C 148.593 111.775, 151.677 111.546, 155.500 111.917 L 161.500 112.500 161.343 115.839 C 161.256 117.676, 160.356 119.983, 159.343 120.967 C 154.809 125.366, 151 131.522, 151 134.450 C 151 135.303, 150.564 136, 150.032 136 C 149.080 136, 141.651 145.231, 139.303 149.331 C 136.988 153.372, 142.211 155.668, 146.441 152.468 C 147.509 151.661, 149.373 151, 150.584 151 C 151.795 151, 153.054 150.302, 153.381 149.449 C 154.127 147.506, 162.651 143.652, 164.573 144.390 C 166.380 145.083, 166.411 149.288, 164.634 152.800 C 163.882 154.285, 162.945 157.278, 162.551 159.450 C 162.157 161.623, 160.532 165.903, 158.940 168.962 C 157.348 172.021, 155.782 176.093, 155.460 178.012 C 153.970 186.890, 148.063 194.652, 145.831 190.663 C 145.350 189.803, 144.291 188.434, 143.478 187.621 C 142.665 186.808, 142 185.701, 142 185.160 C 142 184.315, 140.716 183.120, 134.465 178.147 C 132.797 176.819, 124.200 177.054, 123.035 178.458 C 121.334 180.508, 124.472 182.562, 127.321 181.264 C 129.248 180.385, 130.195 180.770, 133.733 183.867 C 136.016 185.865, 138.747 189.075, 139.801 191 C 141.079 193.332, 142.315 194.391, 143.503 194.173 C 146.732 193.582, 146.847 196.156, 143.836 201.643 C 142.214 204.598, 140.006 209.576, 138.930 212.704 C 137.853 215.833, 136.304 219.414, 135.486 220.661 C 134.669 221.909, 134 223.438, 134 224.060 C 134 224.682, 133.096 226.460, 131.992 228.011 C 130.887 229.563, 129.718 232.159, 129.394 233.781 C 128.872 236.389, 129.117 236.789, 131.518 237.248 C 134.616 237.840, 138 235.171, 138 232.135 C 138 231.109, 138.832 229.197, 139.850 227.885 C 140.867 226.573, 143.158 221.696, 144.941 217.046 C 149.388 205.447, 153.605 201.409, 157 205.500 C 157.685 206.325, 158.849 207, 159.588 207 C 161.445 207, 168 212.900, 168 214.572 C 168 215.404, 168.616 215.701, 169.575 215.333 C 170.576 214.949, 171.079 215.234, 170.957 216.114 C 170.539 219.104, 171.096 219.587, 174.500 219.190 C 176.642 218.940, 178 219.212, 178 219.891 C 178 220.501, 179.068 221, 180.374 221 C 181.680 221, 184.653 221.672, 186.981 222.493 C 189.308 223.314, 191.579 223.760, 192.026 223.484 C 192.473 223.208, 193.543 223.686, 194.404 224.547 C 195.264 225.407, 197.541 226.212, 199.463 226.335 C 201.446 226.462, 203.518 227.326, 204.255 228.334 C 205.829 230.487, 212.989 232.374, 213.022 230.645 C 213.034 230.015, 213.856 230.555, 214.847 231.844 C 216.154 233.542, 217.455 234.103, 219.576 233.881 C 221.185 233.712, 223.026 233.898, 223.667 234.294 C 224.308 234.690, 226.050 234.551, 227.538 233.986 C 230.750 232.764, 232.963 234.119, 233.070 237.372 C 233.139 239.448, 233.162 239.451, 234 237.500 C 234.473 236.400, 234.891 236.005, 234.930 236.621 C 234.968 237.238, 237.248 238.041, 239.996 238.405 C 245.291 239.107, 246.655 238.965, 246.250 237.750 C 245.839 236.517, 254.503 236.903, 255.775 238.175 C 256.478 238.878, 261.277 239.494, 267.725 239.711 C 276.204 239.995, 279.287 239.718, 282.191 238.411 C 286.392 236.520, 287.694 234.266, 285.724 232.295 C 284.591 231.162, 283.812 231.180, 280.877 232.407 C 278.060 233.584, 273.302 233.783, 256.439 233.428 C 244.923 233.186, 234.375 232.797, 233 232.564 C 223.150 230.892, 213.372 228.344, 212.700 227.274 C 212.260 226.573, 210.143 226, 207.996 226 C 205.164 226, 203.404 225.313, 201.591 223.500 C 200.216 222.125, 198.155 221, 197.010 221 C 195.866 221, 193.933 220.388, 192.715 219.639 C 191.497 218.891, 187.238 217.725, 183.250 217.049 C 178.463 216.236, 176 215.362, 176 214.477 C 176 213.739, 174.988 212.820, 173.750 212.435 C 172.512 212.050, 169.901 210.332, 167.948 208.617 C 165.994 206.903, 162.535 204.375, 160.261 203 C 155.664 200.220, 154.098 196.679, 156.340 194.132 C 158.107 192.124, 161.600 184.471, 162.577 180.465 C 162.975 178.834, 164.808 173.524, 166.650 168.664 C 170.424 158.709, 172.658 143.860, 171.027 139.570 C 169.908 136.627, 168.242 136.422, 162.286 138.497 C 157.738 140.082, 154.263 139.593, 155.916 137.601 C 156.448 136.961, 159.592 131.113, 162.904 124.606 C 168.761 113.100, 168.878 112.714, 167.212 110.482 C 166.271 109.219, 163.873 107.694, 161.884 107.093 C 157.862 105.877, 147.607 105.824, 141.562 106.988 M 141 191 C 141 191.550, 141.450 192, 142 192 C 142.550 192, 143 191.550, 143 191 C 143 190.450, 142.550 190, 142 190 C 141.450 190, 141 190.450, 141 191 M 103.015 200.750 C 103.007 201.988, 103.450 203, 104 203 C 105.253 203, 105.253 201.939, 104 200 C 103.216 198.787, 103.028 198.931, 103.015 200.750" stroke="none" fill="black" fill-rule="evenodd"/>
</svg>