<svg xmlns="http://www.w3.org/2000/svg" width="300" height="300" viewBox="0 0 300 300" version="1.1">
	<path d="M 149.797 28.680 C 147.519 29.280, 146.387 32.997, 148.143 34.110 C 148.889 34.582, 150.493 34.976, 151.706 34.985 C 152.919 34.993, 155.460 36.051, 157.353 37.336 C 159.246 38.620, 166.691 41.587, 173.898 43.929 C 183.309 46.987, 187.535 48.865, 188.895 50.594 C 193.197 56.063, 196.790 51.303, 192.837 45.370 C 190.670 42.118, 184.582 38, 181.941 38 C 180.512 38, 173.494 34.963, 160.764 28.836 C 158.975 27.975, 152.809 27.888, 149.797 28.680 M 165 37.031 C 165 37.564, 165.675 38, 166.500 38 C 167.325 38, 168 37.823, 168 37.607 C 168 37.391, 167.325 36.955, 166.500 36.638 C 165.675 36.322, 165 36.499, 165 37.031 M 239 56.369 C 236.525 56.991, 233.870 57.906, 233.101 58.401 C 232.331 58.897, 223.106 59.655, 212.601 60.087 C 185.439 61.201, 162.432 62.815, 158.163 63.905 C 156.148 64.419, 149.550 65.366, 143.500 66.008 C 133.428 67.078, 126 69.293, 126 71.227 C 126 71.652, 125.325 72, 124.500 72 C 123.667 72, 123 72.889, 123 74 C 123 76.512, 126.441 76.702, 128.821 74.321 C 130.320 72.823, 130.533 72.812, 130.804 74.219 C 130.971 75.086, 131.963 76.018, 133.008 76.292 C 135.603 76.970, 156 75.875, 156 75.057 C 156 73.667, 163.690 71.714, 168.538 71.872 C 171.334 71.964, 178.544 71.395, 184.561 70.608 C 190.577 69.822, 202.399 69.120, 210.831 69.048 C 226.318 68.916, 235.993 67.414, 240.715 64.409 C 241.933 63.634, 243.769 63, 244.796 63 C 245.822 63, 247.288 61.830, 248.054 60.399 C 249.304 58.064, 249.250 57.656, 247.532 56.399 C 245.366 54.816, 245.179 54.816, 239 56.369 M 192.250 64.662 C 190.553 65.347, 190.675 66.661, 192.500 67.362 C 194.557 68.151, 197 67.082, 197 65.393 C 197 64.023, 194.707 63.671, 192.250 64.662 M 167.655 77.829 C 166.745 78.835, 166 80.429, 166 81.372 C 166 82.314, 164.373 86.104, 162.385 89.793 C 154.932 103.618, 152.732 107.526, 151.878 108.450 C 151.395 108.973, 151 110.327, 151 111.459 C 151 112.592, 150.155 114.047, 149.122 114.692 C 148.089 115.337, 146.202 118.016, 144.929 120.647 C 143.656 123.277, 141.688 126.487, 140.557 127.780 C 137.593 131.168, 126 152.745, 126 154.874 C 126 155.493, 125.610 156, 125.133 156 C 123.545 156, 119.297 163.467, 117.638 169.174 C 115.629 176.083, 115.556 179.616, 117.406 180.326 C 119.242 181.030, 122 177.936, 122 175.171 C 122 173.977, 122.807 172.193, 123.793 171.207 C 124.779 170.221, 126.225 167.859, 127.006 165.957 C 127.787 164.056, 129.234 161.624, 130.221 160.552 C 131.209 159.481, 133.832 154.803, 136.050 150.157 C 138.268 145.511, 140.964 140.590, 142.041 139.220 C 143.119 137.851, 144 135.918, 144 134.924 C 144 133.028, 145.728 131.395, 146.703 132.370 C 147.017 132.684, 147.409 134.641, 147.573 136.720 C 148.473 148.088, 151 150.918, 151 140.559 C 151 122.616, 155.448 144.125, 156.623 167.750 C 157.104 177.428, 157.623 181, 158.548 181 C 161.288 181, 160.639 151.863, 157.580 137.500 C 154.643 123.707, 154.355 121.373, 155.293 118.930 C 158.194 111.374, 159.395 109.063, 160.676 108.571 C 161.460 108.270, 162.992 106.012, 164.079 103.553 C 165.167 101.095, 166.493 98.813, 167.027 98.484 C 167.560 98.154, 169.170 95.403, 170.605 92.370 C 172.040 89.337, 173.841 86.615, 174.607 86.321 C 175.373 86.027, 176 85.238, 176 84.567 C 176 83.115, 179.785 79.551, 182.250 78.680 C 186.288 77.255, 183.667 76, 176.655 76 C 170.809 76, 168.972 76.373, 167.655 77.829 M 80.500 80.056 C 76.650 80.504, 72.331 80.654, 70.902 80.389 C 69.472 80.124, 64.747 80.822, 60.402 81.940 C 55.955 83.084, 48.413 84.087, 43.151 84.236 C 35.444 84.454, 33.638 84.807, 32.866 86.250 C 31.872 88.108, 33.271 91.896, 35.035 92.125 C 47.631 93.757, 63.419 92.621, 66.450 89.864 C 66.973 89.389, 69.223 88.989, 71.450 88.976 C 73.678 88.963, 77.200 88.558, 79.278 88.075 C 82.137 87.411, 83.404 87.546, 84.488 88.631 C 86.140 90.283, 87.207 95.155, 86.868 99.500 C 86.445 104.924, 86.981 109, 88.117 109 C 88.790 109, 89.029 107.930, 88.717 106.301 C 88.188 103.532, 89.610 98.277, 90.617 99.283 C 90.925 99.592, 91.418 102.467, 91.711 105.672 C 92.005 108.877, 92.670 112.314, 93.189 113.309 C 93.708 114.303, 94.336 118.564, 94.584 122.777 C 95.236 133.824, 97 134.498, 97 123.700 C 97 118.915, 96.647 115, 96.216 115 C 95.785 115, 95.508 110.612, 95.600 105.250 C 95.692 99.888, 95.257 91.900, 94.634 87.500 C 93.511 79.575, 93.472 79.499, 90.500 79.370 C 88.850 79.299, 84.350 79.607, 80.500 80.056 M 192.655 86.829 C 191.745 87.835, 191 89.790, 191 91.174 C 191 92.558, 190.100 94.505, 189 95.500 C 187.900 96.495, 187 97.733, 187 98.250 C 187 98.768, 184.525 102.784, 181.500 107.175 C 178.475 111.567, 176 115.574, 176 116.080 C 176 116.586, 175.100 117.900, 174 119 C 172.900 120.100, 172 122.125, 172 123.500 C 172 124.875, 171.438 126.006, 170.750 126.012 C 169.001 126.030, 165.257 132.102, 164.511 136.134 C 163.833 139.801, 165.870 143.817, 167.803 142.622 C 168.411 142.246, 170.126 139.702, 171.613 136.969 C 173.101 134.236, 174.696 132, 175.159 132 C 175.622 132, 176 131.305, 176 130.455 C 176 129.605, 177.090 127.819, 178.422 126.487 C 179.755 125.154, 181.160 123.072, 181.545 121.859 C 181.930 120.646, 183.125 118.719, 184.200 117.577 C 185.276 116.435, 186.730 114.150, 187.430 112.500 C 189.138 108.481, 197.722 100, 200.082 100 C 200.453 100, 201.328 101.377, 202.025 103.060 L 203.292 106.120 219.209 105.922 C 228.953 105.801, 235.520 106.120, 236.143 106.743 C 236.835 107.435, 236.482 109.096, 235.043 111.915 C 233.878 114.199, 231.644 119.540, 230.079 123.784 C 228.514 128.028, 226.125 134.425, 224.768 138 C 223.412 141.575, 221.978 146.245, 221.582 148.378 C 221.186 150.512, 219.729 154.787, 218.345 157.878 C 216.961 160.970, 215.418 165.975, 214.915 169 C 212.928 180.968, 212.040 185.348, 210.905 188.788 L 209.721 192.374 207.861 190.076 C 206.837 188.812, 206 186.740, 206 185.470 C 206 183.371, 203.345 177.221, 201.912 176.001 C 201.588 175.725, 200.050 172.125, 198.493 168 C 196.936 163.875, 194.623 158.918, 193.353 156.984 C 192.083 155.050, 190.734 151.900, 190.356 149.984 C 189.094 143.590, 187.117 140.068, 184.409 139.388 C 182.694 138.957, 181.306 139.265, 180.265 140.307 C 178.844 141.728, 178.890 142.317, 180.764 146.686 C 181.945 149.440, 182.611 152.627, 182.320 154.133 C 181.772 156.970, 183.149 158.400, 186.490 158.463 C 187.902 158.489, 188.851 159.623, 189.749 162.352 C 190.445 164.470, 191.912 167.344, 193.008 168.737 C 194.103 170.130, 195 172.037, 195 172.975 C 195 174.443, 199.154 183.355, 202.004 188 C 204.262 191.681, 208.161 201.231, 208.626 204.219 C 208.907 206.023, 208.431 209.469, 207.568 211.876 C 206.706 214.282, 205.984 217.882, 205.965 219.876 C 205.945 221.869, 205.286 224.625, 204.500 226 C 203.714 227.375, 203.055 229.515, 203.035 230.755 C 203.016 231.995, 201.863 235.367, 200.473 238.248 C 199.083 241.128, 197.491 245.176, 196.935 247.243 C 196.378 249.309, 195.490 251, 194.961 251 C 194.433 251, 194 251.718, 194 252.596 C 194 253.473, 193.360 255.386, 192.579 256.846 C 189.739 262.149, 185 273.259, 185 274.612 C 185 275.376, 184.598 276, 184.107 276 C 182.428 276, 181.921 279.349, 183.379 280.808 C 184.649 282.077, 185.282 281.823, 188.416 278.779 C 190.387 276.864, 192 274.781, 192 274.149 C 192 273.517, 192.437 273, 192.972 273 C 193.507 273, 194.643 270.595, 195.498 267.656 C 196.352 264.717, 197.700 261.455, 198.494 260.406 C 199.287 259.358, 199.951 257.577, 199.968 256.450 C 199.986 255.322, 200.421 253.972, 200.936 253.450 C 203.201 251.152, 208.202 235.671, 209.557 226.764 C 211.207 215.921, 212.406 212, 214.069 212 C 214.684 212, 215.423 212.900, 215.710 214 C 215.998 215.100, 216.576 216, 216.995 216 C 217.414 216, 220.389 219.938, 223.605 224.750 C 226.821 229.563, 232.951 237.010, 237.227 241.300 C 241.502 245.590, 245 249.527, 245 250.050 C 245 250.572, 246.350 251, 248 251 C 249.885 251, 251 251.513, 251 252.381 C 251 253.141, 252.650 255.021, 254.667 256.560 C 256.685 258.098, 262.156 263.102, 266.827 267.679 C 271.497 272.255, 275.493 276, 275.707 276 C 275.921 276, 277.172 277.237, 278.487 278.750 C 280.474 281.034, 281.185 281.307, 282.689 280.359 C 285.519 278.577, 284.612 274.477, 280.613 270.965 C 278.679 269.267, 276.840 267.117, 276.528 266.188 C 276.216 265.260, 274.089 263.375, 271.801 262 C 269.513 260.625, 266.108 258.038, 264.235 256.250 C 262.361 254.463, 260.417 253, 259.914 253 C 259.411 253, 259 252.550, 259 252 C 259 251.450, 258.325 251, 257.500 251 C 256.675 251, 256 250.585, 256 250.077 C 256 248.674, 250.704 243.691, 247.416 242 C 245.812 241.175, 243.835 239.603, 243.023 238.506 C 242.210 237.410, 239.390 234.260, 236.755 231.506 C 230.422 224.887, 221 211.934, 221 209.848 C 221 208.935, 219.415 206.292, 217.477 203.973 C 213.547 199.268, 213.554 199.663, 217.110 184.500 C 218.142 180.100, 218.992 175.375, 218.999 174 C 219.006 172.625, 219.635 170.307, 220.396 168.848 C 221.157 167.390, 223.263 161.540, 225.077 155.848 C 226.891 150.157, 228.965 144.790, 229.687 143.921 C 230.409 143.053, 231 140.791, 231 138.894 C 231 136.997, 231.603 134.557, 232.341 133.473 C 233.078 132.388, 234.539 129.075, 235.588 126.112 C 237.054 121.968, 238.130 120.502, 240.247 119.764 C 241.899 119.188, 243 118.072, 243 116.974 C 243 115.967, 243.775 114.368, 244.722 113.421 C 249.104 109.039, 250.575 100.908, 247.250 99.443 C 244.682 98.313, 242.463 98.169, 220.742 97.723 C 209.876 97.500, 200.730 97.063, 200.419 96.752 C 200.107 96.441, 200.593 94.753, 201.499 93.003 C 203.417 89.292, 202.879 87, 200.090 87 C 199.006 87, 197.840 86.550, 197.500 86 C 196.547 84.458, 194.481 84.811, 192.655 86.829 M 30 112.061 C 28.625 113.186, 26.771 114.704, 25.879 115.433 C 23.813 117.124, 22.619 127.871, 23.807 134.096 C 24.318 136.773, 24.297 143.872, 23.758 151.096 C 22.778 164.206, 24.174 179.469, 26.431 180.335 C 27.246 180.648, 27.532 173.328, 27.473 153.633 C 27.428 138.710, 27.572 125.949, 27.793 125.276 C 28.100 124.338, 28.507 124.364, 29.529 125.386 C 30.565 126.422, 30.899 132.523, 31.023 152.610 C 31.196 180.932, 31.953 193.194, 33.500 192.772 C 34.783 192.423, 34.256 161.870, 32.944 160.550 C 31.690 159.288, 31.732 153.284, 33 152.500 C 33.592 152.134, 34 145.976, 34 137.401 C 34 124.754, 34.261 122.409, 36.059 118.883 C 37.192 116.663, 37.980 113.869, 37.809 112.673 C 37.391 109.734, 33.240 109.408, 30 112.061 M 30.079 117.583 C 30.127 118.748, 30.364 118.985, 30.683 118.188 C 30.972 117.466, 30.936 116.603, 30.604 116.271 C 30.272 115.939, 30.036 116.529, 30.079 117.583 M 88 118 C 88 119.100, 88.450 120, 89 120 C 89.550 120, 90 119.100, 90 118 C 90 116.900, 89.550 116, 89 116 C 88.450 116, 88 116.900, 88 118 M 184.607 122.582 C 183.390 125.753, 184.062 128.216, 186.923 131.077 C 188.531 132.685, 190.556 134, 191.423 134 C 193.402 134, 196.416 136.970, 198.472 140.947 C 199.341 142.626, 200.715 144, 201.526 144 C 202.337 144, 203 144.450, 203 145 C 203 145.550, 203.642 146, 204.427 146 C 205.213 146, 206.733 147.116, 207.805 148.480 C 210.447 151.838, 216.363 152.450, 216.798 149.410 C 217.004 147.968, 215.812 146.262, 212.953 143.910 C 205.170 137.507, 194 125.916, 194 124.243 C 194 123.399, 188.294 121, 186.286 121 C 185.696 121, 184.941 121.712, 184.607 122.582 M 88 126.500 C 88 128.975, 88.376 131, 88.836 131 C 89.295 131, 89.742 136.287, 89.829 142.750 C 89.915 149.213, 90.470 160.350, 91.061 167.500 C 91.651 174.650, 92.496 185, 92.937 190.500 C 93.378 196, 94.246 203.650, 94.865 207.500 C 95.484 211.350, 96.413 220.125, 96.929 227 C 97.445 233.875, 98.010 240.400, 98.184 241.500 C 98.602 244.143, 94.276 244.711, 90.116 242.560 C 88.457 241.702, 86.402 241, 85.550 241 C 83.353 241, 83.628 244.353, 86 246.500 C 87.100 247.495, 88 248.915, 88 249.655 C 88 250.395, 88.638 251, 89.417 251 C 90.196 251, 90.983 251.369, 91.167 251.820 C 91.843 253.484, 99.282 257.829, 100.593 257.326 C 101.710 256.897, 101.689 256.546, 100.474 255.331 C 97.985 252.842, 98.822 252.175, 102.750 253.518 C 105.300 254.391, 106.605 255.492, 106.827 256.959 C 107.038 258.348, 107.750 259.004, 108.827 258.800 C 111.330 258.326, 111.440 252.958, 109.136 243.631 C 108.032 239.159, 106.848 231.927, 106.505 227.559 C 106.162 223.192, 105.575 219.142, 105.199 218.559 C 104.823 217.977, 104.475 215.700, 104.426 213.500 C 104.199 203.433, 102.607 189.304, 101.366 186.334 C 100.615 184.536, 100 181.475, 100 179.532 C 100 177.059, 99.550 176, 98.500 176 C 97.675 176, 97 176.450, 97 177 C 97 177.550, 97.437 178, 97.972 178 C 98.507 178, 98.923 180.363, 98.898 183.250 C 98.830 190.976, 100.808 211.751, 101.803 213.763 C 102.276 214.718, 102.744 219.325, 102.844 224 C 102.944 228.675, 103.498 235.138, 104.077 238.361 C 105.160 244.398, 104.753 247.583, 103.034 246.521 C 101.101 245.326, 100.003 238.088, 99.736 224.790 C 99.565 216.213, 99.032 210.743, 98.280 209.837 C 96.363 207.527, 92.867 166.719, 92.922 147.292 C 92.934 142.778, 92.507 138.814, 91.972 138.483 C 91.438 138.152, 91 135.020, 91 131.523 C 91 128.025, 90.727 124.452, 90.393 123.582 C 89.226 120.541, 88 122.037, 88 126.500 M 96.660 135.741 C 94.714 138.890, 95.436 155.710, 97.500 155.303 C 99.022 155.003, 99.361 151.841, 97.963 150.977 C 97.012 150.389, 96.989 149.470, 97.865 146.958 C 99.236 143.023, 99.356 136.338, 98.069 135.543 C 97.557 135.226, 96.923 135.316, 96.660 135.741 M 77 147 C 76.175 147.533, 74.520 147.976, 73.321 147.985 C 72.123 147.993, 70.468 148.675, 69.643 149.500 C 68.642 150.501, 66.141 151, 62.130 151 C 58.824 151, 55.840 151.450, 55.500 152 C 55.160 152.550, 53.349 153, 51.476 153 C 49.136 153, 47.747 153.603, 47.039 154.928 C 44.483 159.704, 50.519 162.540, 58.555 160.339 C 61.275 159.594, 65.075 158.727, 67 158.413 C 69.952 157.931, 74.180 156.238, 83 152.005 C 85.012 151.040, 85.524 147.947, 83.848 146.885 C 82.054 145.748, 78.854 145.802, 77 147 M 151.118 158.191 C 151.053 162.421, 151.450 166.160, 152 166.500 C 153.169 167.222, 153.169 158.093, 152 153.500 C 151.438 151.290, 151.205 152.526, 151.118 158.191 M 97 165 C 97 169.489, 97.340 171.053, 98.250 170.750 C 99.042 170.486, 99.500 168.378, 99.500 165 C 99.500 161.622, 99.042 159.514, 98.250 159.250 C 97.340 158.947, 97 160.511, 97 165 M 80.439 173.797 C 79.372 174.785, 76.544 176.374, 74.153 177.328 C 69.075 179.353, 62.861 183.994, 50.359 195.098 C 49.182 196.144, 47.719 197, 47.109 197 C 45.851 197, 45.778 197.569, 46.630 200.750 C 47.056 202.338, 47.984 203, 49.786 203 C 53.184 203, 62.700 197.606, 66.748 193.386 C 68.534 191.524, 70.356 190, 70.796 190 C 71.237 190, 73.378 188.313, 75.555 186.250 C 77.731 184.188, 81.197 181.240, 83.256 179.699 C 87.735 176.348, 88.544 172, 84.689 172 C 83.417 172, 81.505 172.809, 80.439 173.797 M 151.719 173.289 C 150.631 176.126, 150.909 226.630, 152.029 229.576 C 152.945 231.986, 154.121 259.439, 153.945 274.323 C 153.869 280.738, 155.353 283.782, 157.633 281.890 C 158.385 281.266, 159 279.685, 159 278.378 C 159 276.931, 159.587 276, 160.500 276 C 161.325 276, 162 276.863, 162 277.918 C 162 281.072, 163.075 282.908, 164.583 282.330 C 166.587 281.561, 166.450 271.365, 164.383 267.500 C 163.118 265.133, 162.743 260.965, 162.609 247.755 C 162.463 233.402, 162.193 230.764, 160.719 229.291 C 159.094 227.665, 159.001 227.733, 159.020 230.536 C 159.031 232.166, 159.423 236.200, 159.891 239.500 C 160.359 242.800, 160.418 247.957, 160.023 250.959 C 159.628 253.962, 159.651 257.954, 160.075 259.830 C 160.954 263.729, 160.371 266, 158.491 266 C 157.113 266, 155.317 254.914, 156.410 253.146 C 156.937 252.292, 155.842 229.695, 154.414 212 C 154.126 208.425, 153.904 199.194, 153.922 191.486 C 153.953 177.371, 153.042 169.842, 151.719 173.289 M 26.758 184 C 25.561 188.738, 25.081 216.436, 26.126 220.504 C 28.579 230.052, 30.228 245.351, 29.174 248.786 C 28.500 250.981, 28.460 253.081, 29.063 254.665 C 29.578 256.021, 30 258.414, 30 259.983 C 30 261.553, 30.273 263.548, 30.607 264.418 C 31.520 266.797, 33.991 266.319, 34.063 263.750 L 34.127 261.500 35.059 263.824 C 35.642 265.280, 36.647 266.020, 37.745 265.804 C 39.198 265.519, 39.461 264.516, 39.273 259.980 C 39.148 256.966, 38.843 249.550, 38.595 243.500 C 37.921 227.015, 37.044 220.231, 35.512 219.643 C 33.550 218.890, 33.175 220.799, 34.065 227 C 34.499 230.025, 34.887 236.017, 34.927 240.316 C 34.967 244.614, 35.470 249.010, 36.045 250.083 C 36.817 251.527, 36.719 252.563, 35.669 254.062 C 34.423 255.842, 34.172 255.891, 33.624 254.463 C 33.281 253.569, 33 251.823, 33 250.585 C 33 249.347, 32.682 248.015, 32.292 247.626 C 31.903 247.236, 31.459 243.768, 31.306 239.918 C 31.152 236.069, 30.610 232.139, 30.100 231.187 C 29.590 230.234, 29.094 222.940, 28.999 214.977 C 28.779 196.741, 27.613 180.618, 26.758 184 M 157.423 191.750 C 157.723 195.463, 158.249 203.419, 158.592 209.432 C 159.386 223.310, 160.940 221.393, 161.086 206.356 C 161.223 192.329, 160.281 185, 158.343 185 C 157.148 185, 156.979 186.243, 157.423 191.750 M 34.079 202.583 C 34.127 203.748, 34.364 203.985, 34.683 203.188 C 34.972 202.466, 34.936 201.603, 34.604 201.271 C 34.272 200.939, 34.036 201.529, 34.079 202.583" stroke="none" fill="black" fill-rule="evenodd"/>
</svg>