<svg xmlns="http://www.w3.org/2000/svg" width="300" height="300" viewBox="0 0 300 300" version="1.1">
	<path d="M 162.374 14.965 C 159.402 18.300, 157.522 18.803, 156.638 16.500 C 155.427 13.343, 152.824 14.782, 143.069 24 C 140.450 26.475, 135.089 31.160, 131.156 34.411 C 122.990 41.162, 122.544 42.167, 120.877 57.599 C 120.125 64.565, 120.087 72.166, 120.756 82.099 C 121.289 90.020, 121.514 99.975, 121.255 104.221 C 120.985 108.651, 121.262 113.313, 121.905 115.158 C 122.612 117.186, 122.676 118.724, 122.077 119.323 C 121.479 119.921, 121.687 120.830, 122.641 121.784 C 123.764 122.907, 124.070 125.001, 123.827 129.899 L 123.500 136.500 129.250 136.800 C 134.002 137.048, 135 136.819, 135 135.483 C 135 134.310, 135.754 133.954, 137.750 134.184 C 139.639 134.401, 140.417 135.011, 140.233 136.131 C 140.015 137.466, 141.284 137.880, 147.233 138.414 C 156.420 139.238, 188.636 138.843, 190.183 137.887 C 190.821 137.493, 191.659 135.219, 192.046 132.835 C 192.667 129.010, 192.764 128.882, 192.875 131.750 C 192.954 133.804, 193.514 135, 194.395 135 C 196.016 135, 196.574 130.967, 196.883 117 C 196.999 111.775, 197.522 105.878, 198.046 103.897 C 198.623 101.712, 198.680 94.425, 198.191 85.397 C 197.315 69.222, 198.009 71.513, 188.358 52.912 C 186.617 49.557, 184.220 47.429, 180.498 45.937 C 176.195 44.211, 156.072 41.731, 145.329 41.601 C 140.285 41.541, 135.876 41.210, 135.533 40.866 C 135.189 40.522, 136.841 38.754, 139.204 36.937 C 141.567 35.120, 145.442 31.691, 147.817 29.317 C 150.191 26.942, 152.962 25, 153.975 25 C 156.291 25, 167 16.371, 167 14.504 C 167 11.782, 165.035 11.978, 162.374 14.965 M 142 46.889 C 142 49.684, 135.109 50.870, 133.294 48.387 C 131.229 45.563, 130.045 47.844, 129.045 56.574 C 128.546 60.933, 127.863 65.210, 127.528 66.078 C 127.193 66.945, 127.369 68.840, 127.920 70.289 C 128.849 72.734, 129.146 72.845, 132.050 71.833 C 137.226 70.028, 171.137 71.409, 178.500 73.724 C 183.033 75.149, 184.574 76.116, 184.803 77.678 C 185.219 80.521, 183.233 81.026, 175.835 79.956 C 172.351 79.452, 168.926 79.031, 168.225 79.020 C 167.524 79.009, 166.482 77.768, 165.909 76.262 L 164.868 73.523 163.184 75.687 C 161.210 78.223, 154.237 78.693, 152.537 76.404 C 151.653 75.214, 151.078 75.229, 148.636 76.504 C 147.060 77.327, 143.992 78, 141.818 78 C 138.236 78, 137.929 77.799, 138.543 75.864 C 139.157 73.929, 138.952 73.794, 136.361 74.435 C 133.221 75.210, 130.779 77, 132.859 77 C 133.551 77, 133.840 77.450, 133.500 78 C 133.160 78.550, 132.009 79, 130.941 79 C 129.136 79, 129 79.779, 129 90.107 C 129 100.333, 129.139 101.148, 130.750 100.388 C 131.713 99.934, 135.875 99.633, 140 99.719 C 144.125 99.806, 153.800 99.931, 161.500 99.998 C 179.297 100.152, 183.399 100.825, 183.805 103.654 C 184.088 105.624, 183.519 105.834, 176.139 106.488 C 171.386 106.908, 167.461 106.798, 166.418 106.214 C 165.345 105.614, 163.478 105.576, 161.590 106.118 C 159.897 106.603, 152.128 106.768, 144.325 106.483 C 135.434 106.160, 129.909 106.337, 129.525 106.960 C 129.187 107.507, 129.452 109.877, 130.113 112.227 C 130.774 114.577, 131.357 119.625, 131.408 123.445 L 131.500 130.389 138.852 130.684 C 142.896 130.845, 147.846 131.390, 149.852 131.893 C 153.847 132.895, 178.536 132.644, 181.090 131.575 C 182.008 131.190, 183.221 131.562, 183.962 132.454 C 186.295 135.265, 187.775 134.191, 188.380 129.250 C 190.828 109.267, 191.715 93.253, 190.720 87 C 190.048 82.781, 191.108 78.774, 192.521 80.188 C 192.867 80.534, 193.281 85.921, 193.440 92.159 C 193.816 106.873, 193.849 107.211, 194.847 106.595 C 196.027 105.865, 194.989 75.791, 193.729 74.219 C 193.165 73.514, 191.193 69.937, 189.349 66.270 C 183.851 55.344, 178.864 51.272, 169.539 50.094 C 165.505 49.584, 164.559 49.112, 164.794 47.729 C 164.997 46.535, 164.422 46, 162.937 46 C 161.503 46, 160.965 46.467, 161.324 47.401 C 161.983 49.119, 159.494 49.873, 155.228 49.247 C 153.153 48.942, 151.839 48.068, 151.406 46.704 C 150.800 44.794, 150.647 44.763, 149.513 46.313 C 147.984 48.404, 145.407 48.503, 144.638 46.500 C 143.821 44.370, 142 44.639, 142 46.889 M 124.500 95 C 124.160 95.550, 124.359 96, 124.941 96 C 125.523 96, 126 95.550, 126 95 C 126 94.450, 125.802 94, 125.559 94 C 125.316 94, 124.840 94.450, 124.500 95 M 125 105.059 C 125 106.191, 125.450 106.840, 126 106.500 C 126.550 106.160, 127 105.234, 127 104.441 C 127 103.648, 126.550 103, 126 103 C 125.450 103, 125 103.927, 125 105.059 M 193 120.167 C 193 126.352, 193.496 126.208, 194.433 119.750 C 194.885 116.634, 194.757 115, 194.061 115 C 193.450 115, 193 117.190, 193 120.167 M 126 126 C 126 127.100, 126.450 128, 127 128 C 127.550 128, 128 127.100, 128 126 C 128 124.900, 127.550 124, 127 124 C 126.450 124, 126 124.900, 126 126 M 162 144.446 C 160.625 145.197, 158.403 147.316, 157.062 149.156 C 151.223 157.164, 145.179 163.365, 141 165.635 C 138.525 166.979, 134.700 169.352, 132.500 170.908 C 130.300 172.464, 124.225 175.408, 119 177.451 C 108.066 181.726, 107.200 182.331, 108.965 184.458 C 110.736 186.591, 113.373 186.369, 121.500 183.402 C 125.350 181.996, 129.400 180.584, 130.500 180.263 C 134.161 179.196, 143.014 173.818, 144.425 171.804 C 145.194 170.705, 146.639 169.977, 147.658 170.175 C 149.303 170.494, 149.497 171.599, 149.468 180.516 C 149.450 186.007, 148.833 200.625, 148.097 213 C 146.415 241.265, 146.617 283.639, 148.446 286.500 C 149.333 287.887, 151.027 288.587, 153.976 288.782 L 158.226 289.065 157.613 285.282 C 155.981 275.213, 154.477 236.855, 155.309 226.500 C 155.796 220.450, 156.271 210.775, 156.366 205 C 156.461 199.225, 156.902 193.748, 157.346 192.828 C 157.802 191.884, 157.684 190.278, 157.074 189.139 C 156.360 187.805, 156.334 186.911, 156.997 186.502 C 159.081 185.214, 157.369 167.464, 155.021 166.013 C 154.106 165.448, 155.246 163.418, 159.128 158.698 C 162.082 155.104, 164.950 152.115, 165.500 152.055 C 166.050 151.995, 168.035 150.673, 169.912 149.117 C 174.320 145.461, 173.655 142.983, 168.281 143.040 C 166.202 143.062, 163.375 143.695, 162 144.446 M 163.667 148.667 C 163.300 149.033, 163 149.798, 163 150.367 C 163 150.993, 163.466 150.934, 164.183 150.217 C 164.834 149.566, 165.134 148.801, 164.850 148.517 C 164.566 148.232, 164.033 148.300, 163.667 148.667 M 180.505 181.828 C 180.227 182.106, 179.989 184.846, 179.976 187.917 C 179.931 198.159, 175.748 212.054, 166.788 231.722 C 161.033 244.355, 159.997 249.220, 163.476 247.274 C 165.297 246.254, 170.081 238.785, 171.978 234 C 172.741 232.075, 174.204 229.400, 175.229 228.056 C 176.254 226.712, 176.964 224.634, 176.807 223.437 C 176.650 222.240, 177.140 219.965, 177.895 218.381 C 180.096 213.761, 180.801 211.712, 181.411 208.167 C 181.725 206.334, 182.961 204.043, 184.156 203.075 C 185.663 201.855, 186.425 199.965, 186.644 196.908 C 186.818 194.484, 187.435 190.524, 188.017 188.110 C 188.598 185.695, 188.912 183.237, 188.716 182.648 C 188.358 181.573, 181.451 180.882, 180.505 181.828 M 110.648 199.250 C 109.826 202.137, 108.843 207.524, 108.463 211.220 C 107.496 220.640, 99.416 236.501, 90.521 246.440 C 83.489 254.298, 82.192 258, 86.474 258 C 88.339 258, 90.681 255.966, 95.978 249.750 C 99.845 245.213, 103.905 239.597, 105 237.270 C 107.420 232.130, 111.051 230.687, 113.752 233.793 C 116.336 236.765, 124.059 241.997, 125.900 242.022 C 126.780 242.034, 128.625 242.924, 130 244 C 133.072 246.403, 138.540 246.642, 139.396 244.410 C 140.160 242.420, 139.332 241, 137.408 241 C 135.527 241, 126.415 236.400, 122.500 233.474 C 120.850 232.241, 118.600 230.943, 117.500 230.590 C 116.400 230.237, 114.297 228.886, 112.826 227.588 C 110.173 225.245, 110.161 225.175, 111.254 218.114 C 111.860 214.201, 112.695 211, 113.109 211 C 114.171 211, 117.319 196.325, 116.530 195.049 C 116.174 194.472, 115.040 194, 114.012 194 C 112.612 194, 111.766 195.321, 110.648 199.250 M 181.531 200.293 C 181.103 201.279, 181.034 202.367, 181.376 202.710 C 182.392 203.725, 183.211 202.299, 182.743 200.328 C 182.329 198.581, 182.275 198.580, 181.531 200.293 M 180.357 216.513 C 179.566 218.573, 181.757 220.991, 184.171 220.721 C 185.571 220.564, 186.804 221.716, 188.409 224.678 C 190.694 228.897, 198.224 238.270, 203.202 243.095 C 206.033 245.837, 213.433 248.448, 216.630 247.833 C 217.708 247.625, 218.500 246.631, 218.500 245.486 C 218.500 243.950, 217.220 243.095, 212.847 241.710 C 206.685 239.760, 203.848 237.383, 197.674 229 C 188.639 216.731, 182.086 212.006, 180.357 216.513 M 151.459 218.067 C 151.096 218.653, 151.014 219.348, 151.276 219.610 C 151.538 219.872, 152.019 219.392, 152.345 218.543 C 153.021 216.781, 152.445 216.471, 151.459 218.067" stroke="none" fill="black" fill-rule="evenodd"/>
</svg>