<svg xmlns="http://www.w3.org/2000/svg" width="300" height="300" viewBox="0 0 300 300" version="1.1">
	<path d="M 220.006 30.492 C 219.172 31.498, 218.971 33.700, 219.392 37.242 C 220.081 43.046, 218.793 46.708, 217.015 44 C 216.474 43.175, 216.024 42.853, 216.015 43.285 C 216.007 43.717, 216.707 45.149, 217.571 46.468 C 218.683 48.166, 218.863 49.397, 218.186 50.683 C 217.660 51.682, 216.903 55.359, 216.504 58.854 C 215.546 67.251, 214.218 68.325, 204.307 68.718 C 200.055 68.886, 196.131 69.469, 195.588 70.012 C 195.045 70.555, 193.601 71, 192.381 71 C 191.161 71, 188.832 71.763, 187.206 72.696 C 184.500 74.250, 184.115 74.258, 182.654 72.797 C 180.512 70.655, 178.296 49.184, 179.907 46.174 C 181.378 43.426, 181.236 37.894, 179.641 35.795 C 178.431 34.203, 178.149 34.230, 175.369 36.204 C 171.213 39.157, 168.496 46.154, 168.846 53 C 169.001 56.025, 169.549 58.928, 170.064 59.450 C 170.579 59.973, 171 63.460, 171 67.200 C 171 72.578, 171.314 74, 172.500 74 C 173.325 74, 174 74.585, 174 75.300 C 174 76.089, 171.560 77.104, 167.788 77.883 C 164.371 78.589, 160.364 80.029, 158.883 81.083 C 157.403 82.137, 155.716 83, 155.135 83 C 154.554 83, 151.586 83.768, 148.540 84.706 C 143.328 86.310, 143 86.601, 143 89.614 L 143 92.817 152.250 92.659 C 159.350 92.537, 162.455 92.023, 165.607 90.446 C 170.342 88.079, 172.843 88.690, 174.716 92.671 C 175.537 94.415, 175.618 95.845, 174.966 97.063 C 173.707 99.416, 173.726 103.713, 175 104.500 C 175.550 104.840, 176 107.581, 176 110.591 C 176 113.601, 176.675 117.680, 177.500 119.654 C 178.325 121.629, 179 124.881, 179 126.882 C 179 129.436, 179.595 130.891, 181 131.768 C 185.342 134.479, 188.985 128.454, 187.659 120.756 C 187.351 118.965, 186.383 113.502, 185.508 108.615 C 184.633 103.728, 184.049 96.549, 184.209 92.661 L 184.500 85.593 189.500 84.080 C 192.250 83.248, 194.725 82.281, 195 81.933 C 195.275 81.584, 196.625 81.039, 198 80.722 C 199.375 80.406, 202.499 79.587, 204.941 78.903 C 208.970 77.775, 209.481 77.832, 210.441 79.515 C 211.024 80.536, 212.583 82.417, 213.906 83.695 C 216 85.717, 216.162 86.349, 215.156 88.556 C 214.520 89.952, 214 94.283, 214 98.181 C 214 104.846, 212.434 112.884, 210.918 114 C 210.545 114.275, 209.913 118.213, 209.515 122.750 C 208.890 129.880, 209.004 131, 210.358 131 C 211.318 131, 213.296 128.149, 215.462 123.645 C 218.213 117.927, 219 115.047, 219 110.704 C 219 107.632, 219.394 104.875, 219.875 104.577 C 220.725 104.052, 221.513 98.785, 222.578 86.500 C 223.485 76.027, 223.499 76.002, 228.269 75.985 C 236.702 75.955, 247.021 70.627, 246.985 66.321 C 246.964 63.883, 245.991 62.674, 243 61.368 C 240.568 60.305, 239.950 60.423, 235.264 62.845 C 232.336 64.357, 226 64.346, 226 62.829 C 226 62.185, 226.650 60.940, 227.443 60.062 C 228.237 59.185, 229.389 55.325, 230.003 51.484 C 231.102 44.606, 231.080 44.467, 228.559 42.298 C 227.152 41.087, 226 39.094, 226 37.869 C 226 34.541, 223.764 29, 222.422 29 C 221.774 29, 220.688 29.672, 220.006 30.492 M 213.748 37.244 C 213.123 39.101, 214.089 42.063, 215.114 41.430 C 216.276 40.712, 216.256 37.276, 215.085 36.553 C 214.582 36.242, 213.981 36.553, 213.748 37.244 M 30.835 47.708 C 27.671 48.193, 27.063 49.515, 26.314 57.543 C 25.891 62.066, 26.161 64.411, 27.374 66.756 C 28.268 68.485, 29 71.273, 29 72.950 C 29 74.628, 29.360 76, 29.799 76 C 30.991 76, 33 82.184, 33 85.852 C 33 87.784, 33.598 89.292, 34.500 89.638 C 36.111 90.256, 36.554 93.539, 35.145 94.410 C 33.705 95.300, 33.215 109.800, 34.161 123.500 C 34.655 130.650, 35.226 152.934, 35.429 173.020 C 35.666 196.408, 36.216 211.089, 36.959 213.847 C 37.820 217.047, 37.828 218.502, 36.990 219.512 C 36.178 220.490, 36.162 221.433, 36.931 222.870 C 38.315 225.458, 38.311 234.551, 36.923 237.144 C 36.105 238.672, 36.235 239.976, 37.466 242.569 C 38.742 245.259, 38.940 247.578, 38.402 253.519 C 38.026 257.664, 37.332 261.295, 36.860 261.587 C 35.806 262.238, 35.702 274.017, 36.750 273.958 C 37.163 273.934, 38.846 271.205, 40.491 267.893 L 43.482 261.871 43.293 237.686 C 43.190 224.384, 42.814 210.502, 42.460 206.838 L 41.815 200.175 48.644 200.123 C 54.771 200.076, 55.663 199.810, 57.320 197.535 C 58.514 195.896, 60.128 195, 61.887 195 C 64.638 195, 75.218 190.304, 75.833 188.810 C 76.017 188.364, 77.704 188, 79.583 188 C 81.462 188, 83 187.550, 83 187 C 83 186.450, 83.596 186, 84.324 186 C 86.111 186, 101.414 178.056, 101.833 176.910 C 102.017 176.409, 103.146 176, 104.343 176 C 106.864 176, 109.239 172.785, 108.377 170.540 C 108.052 169.693, 106.822 169.005, 105.643 169.011 C 103.368 169.022, 94.846 171.377, 91.500 172.919 C 90.400 173.426, 86.048 175.451, 81.828 177.420 C 77.609 179.389, 73.366 181, 72.399 181 C 71.433 181, 69.260 181.425, 67.571 181.945 C 65.882 182.465, 61.800 183.652, 58.500 184.582 C 53.327 186.041, 45.059 191.203, 42.859 194.348 C 41.545 196.227, 41.164 190.904, 41.007 168.500 C 40.781 136.107, 39.177 69.710, 38.440 62.250 C 38.051 58.312, 38.195 56, 38.829 56 C 40.691 56, 43 57.206, 43 58.178 C 43 58.709, 43.706 59.849, 44.568 60.711 C 45.913 62.055, 48.375 62.195, 61.818 61.687 C 70.443 61.361, 79.300 60.580, 81.500 59.950 C 83.700 59.320, 88.425 58.623, 92 58.401 C 95.575 58.180, 99.759 57.717, 101.298 57.373 C 105.573 56.419, 106.930 59.022, 106.968 68.250 C 106.987 72.729, 107.422 76, 108 76 C 108.550 76, 109 76.620, 109 77.378 C 109 78.135, 109.564 79.223, 110.252 79.794 C 111.040 80.448, 111.663 84.486, 111.930 90.667 C 112.422 102.040, 112.418 101.068, 112.084 128.388 C 111.895 143.814, 112.142 149.470, 113.030 150.019 C 113.865 150.535, 113.933 151.297, 113.252 152.513 C 112.627 153.631, 112.610 155.756, 113.206 158.383 C 113.719 160.647, 113.903 164.975, 113.613 168 C 112.265 182.082, 112.194 185.502, 113.239 186.148 C 113.878 186.543, 114.406 190.852, 114.522 196.613 C 114.648 202.900, 115.126 206.542, 115.859 206.786 C 116.616 207.039, 117 210.669, 117 217.583 C 117 223.861, 117.397 228, 118 228 C 119.428 228, 119.238 235.643, 117.750 238.044 C 116.909 239.402, 116.838 240.296, 117.533 240.781 C 119.539 242.178, 121.379 252.602, 121.277 262 C 121.145 274.167, 123.244 277.502, 126.592 270.447 C 127.949 267.587, 128.143 265.392, 127.584 259.197 C 126.607 248.354, 125.311 238.340, 124.130 232.500 C 123.574 229.750, 123.066 223.675, 123 219 C 122.935 214.325, 122.185 205.550, 121.335 199.500 C 119.827 188.775, 117.835 143.007, 118.136 126 C 119.019 76.120, 117.777 55.762, 113.528 50.432 C 111.468 47.849, 110.845 47.675, 103.814 47.721 C 99.681 47.747, 95.326 48.290, 94.136 48.927 C 92.609 49.744, 90.918 49.795, 88.400 49.100 C 86.196 48.492, 83.911 48.464, 82.428 49.027 C 75.598 51.624, 49.670 53.049, 47.550 50.943 C 47.028 50.424, 45.453 49.986, 44.050 49.968 C 42.648 49.951, 40.626 49.276, 39.559 48.468 C 37.652 47.026, 36.145 46.894, 30.835 47.708 M 50 56 C 50 56.550, 50.477 57, 51.059 57 C 51.641 57, 51.840 56.550, 51.500 56 C 51.160 55.450, 50.684 55, 50.441 55 C 50.198 55, 50 55.450, 50 56 M 59.151 57.069 C 57.920 58.390, 57.378 59.626, 57.947 59.816 C 59.355 60.285, 62.254 57.261, 61.775 55.824 C 61.543 55.129, 60.494 55.626, 59.151 57.069 M 186 79.500 C 184.980 80.729, 185.049 81, 186.378 81 C 187.270 81, 188 80.583, 188 80.073 C 188 79.564, 188.787 78.941, 189.750 78.689 C 191.140 78.326, 191.062 78.208, 189.372 78.116 C 188.202 78.052, 186.685 78.675, 186 79.500 M 169 82.059 C 169 82.641, 169.450 82.840, 170 82.500 C 170.550 82.160, 171 81.684, 171 81.441 C 171 81.198, 170.550 81, 170 81 C 169.450 81, 169 81.477, 169 82.059 M 211.079 98.583 C 211.127 99.748, 211.364 99.985, 211.683 99.188 C 211.972 98.466, 211.936 97.603, 211.604 97.271 C 211.272 96.939, 211.036 97.529, 211.079 98.583 M 249.027 128.749 C 238.774 128.914, 230.119 129.481, 229.577 130.023 C 229.039 130.561, 227.200 131, 225.488 131 C 223.776 131, 220.513 131.900, 218.236 133 C 213.562 135.258, 212 135.488, 212 133.918 C 212 133.314, 210.566 133.682, 208.750 134.752 C 206.963 135.806, 204.713 136.484, 203.750 136.260 C 202.787 136.037, 202 136.282, 202 136.805 C 202 138.994, 195.484 140.042, 178.500 140.584 C 148.139 141.553, 145 141.865, 145 143.912 C 145 145.885, 149.401 148.401, 153.008 148.492 C 158.333 148.625, 159.389 150, 154.167 150 C 151.037 150, 150 150.393, 150 151.579 C 150 152.938, 151.078 153.067, 157.750 152.500 C 162.012 152.138, 172.250 151.744, 180.500 151.625 C 197.776 151.374, 205.163 150.421, 209.763 147.846 C 211.558 146.841, 214.820 145.733, 217.013 145.382 C 219.206 145.031, 221 144.442, 221 144.073 C 221 143.704, 222.688 142.774, 224.750 142.006 C 227.364 141.034, 233.433 140.594, 244.786 140.556 C 257.229 140.513, 261.267 140.185, 261.897 139.167 C 262.350 138.434, 264.021 137.940, 265.610 138.068 C 273.224 138.683, 274 138.310, 274 134.035 C 274 130.027, 271.917 127.693, 268.816 128.226 C 268.092 128.350, 259.187 128.586, 249.027 128.749 M 235.813 131.683 C 236.534 131.972, 237.397 131.936, 237.729 131.604 C 238.061 131.272, 237.471 131.036, 236.417 131.079 C 235.252 131.127, 235.015 131.364, 235.813 131.683 M 240 133.500 C 240 134.610, 238.765 135.023, 235.250 135.090 C 230.594 135.179, 230.565 135.199, 233.758 136.121 C 237.426 137.180, 241 135.869, 241 133.465 C 241 132.659, 240.775 132, 240.500 132 C 240.225 132, 240 132.675, 240 133.500 M 49.004 135.492 C 47.495 138.312, 48.082 139.391, 52.270 141.499 C 54.939 142.843, 58.829 143.108, 74.671 143.031 C 85.216 142.979, 94.092 143.339, 94.396 143.831 C 94.700 144.323, 97.015 145.304, 99.540 146.011 C 103.489 147.117, 104.345 147.084, 105.653 145.775 C 107.676 143.753, 105.928 140.858, 101.628 139.106 C 99.908 138.406, 97.600 137.470, 96.500 137.026 C 89.771 134.314, 84.139 133.600, 67.872 133.396 C 50.360 133.177, 50.236 133.191, 49.004 135.492 M 226.813 135.683 C 227.534 135.972, 228.397 135.936, 228.729 135.604 C 229.061 135.272, 228.471 135.036, 227.417 135.079 C 226.252 135.127, 226.015 135.364, 226.813 135.683 M 61.813 138.683 C 62.534 138.972, 63.397 138.936, 63.729 138.604 C 64.061 138.272, 63.471 138.036, 62.417 138.079 C 61.252 138.127, 61.015 138.364, 61.813 138.683 M 210.667 140.667 C 209.421 141.912, 209.993 143, 211.893 143 C 212.934 143, 214.045 142.325, 214.362 141.500 C 214.949 139.969, 212.024 139.309, 210.667 140.667 M 135.545 144.859 C 134.708 147.497, 135.903 150, 138 150 C 139.884 150, 141 148.110, 141 144.918 C 141 142.312, 136.369 142.262, 135.545 144.859 M 167.815 145.136 C 167.092 145.594, 165.064 145.976, 163.309 145.985 C 158.939 146.006, 158.440 147.396, 162.303 148.790 C 164.807 149.693, 166.359 149.646, 169.465 148.576 C 171.646 147.825, 173.577 146.769, 173.757 146.230 C 174.189 144.934, 169.495 144.070, 167.815 145.136 M 178.573 145.670 C 177.852 147.548, 179.803 149.235, 181.832 148.489 C 182.564 148.220, 183.689 147.985, 184.332 147.967 C 185.591 147.931, 181.295 144, 179.996 144 C 179.566 144, 178.926 144.752, 178.573 145.670 M 189.250 147.689 C 190.213 147.941, 191.787 147.941, 192.750 147.689 C 193.713 147.438, 192.925 147.232, 191 147.232 C 189.075 147.232, 188.287 147.438, 189.250 147.689 M 218 159.707 C 216.075 159.911, 213.825 160.318, 213 160.611 C 212.175 160.905, 207.900 161.355, 203.500 161.611 C 199.100 161.867, 195.350 162.509, 195.167 163.038 C 194.983 163.567, 193.156 164, 191.106 164 C 187.423 164, 175.516 168.084, 173.593 170.007 C 173.047 170.553, 171.903 171.003, 171.050 171.006 C 170.198 171.010, 168.211 171.685, 166.636 172.506 C 165.060 173.328, 162.891 174, 161.814 174 C 160.738 174, 159.230 174.563, 158.463 175.250 C 157.697 175.938, 156.348 177.109, 155.467 177.853 C 154.481 178.685, 154.140 179.838, 154.582 180.853 C 154.976 181.759, 155.202 185.118, 155.084 188.319 C 154.951 191.910, 155.366 194.736, 156.166 195.700 C 158.059 197.981, 158.217 225.640, 156.348 227.509 C 154.471 229.386, 154.666 231.725, 156.898 234.121 C 159.557 236.976, 159.843 240.485, 158.375 252.251 C 157.671 257.888, 157.074 264.413, 157.048 266.750 C 157.004 270.629, 157.218 271, 159.500 271 C 161.922 271, 162 270.787, 162 264.200 C 162 260.460, 162.510 256.890, 163.133 256.267 C 163.838 255.562, 164.310 250.571, 164.383 243.069 C 164.476 233.493, 164.787 231.003, 165.890 231.002 C 166.654 231.001, 167.832 231.756, 168.508 232.680 C 170.975 236.054, 190.502 235.128, 196.504 231.353 C 199.354 229.560, 212.935 228.062, 215.990 229.203 C 218.752 230.235, 225.156 229.366, 226.104 227.831 C 226.439 227.289, 230.861 226.788, 235.932 226.717 C 246.654 226.567, 248.049 225.542, 245.839 219.433 C 244.447 215.582, 241.729 214.329, 237.232 215.462 C 230.860 217.068, 221.685 218.201, 209.500 218.886 C 201.097 219.359, 194.732 220.259, 191.500 221.432 C 186.669 223.186, 176.775 224.844, 168.500 225.286 L 164.500 225.500 164.200 219.750 C 164.033 216.542, 163.430 214, 162.837 214 C 161.688 214, 162.069 211.019, 164.052 204.500 C 164.721 202.300, 165.445 197.575, 165.662 194 C 166.227 184.649, 166.731 183, 169.019 183 C 170.109 183, 171 182.550, 171 182 C 171 181.450, 172.737 181, 174.860 181 C 177.440 181, 180.011 180.098, 182.610 178.282 C 185.643 176.163, 187.712 175.548, 192 175.491 C 195.025 175.451, 198.625 174.938, 200 174.351 C 201.375 173.764, 205.875 172.986, 210 172.622 C 214.125 172.259, 218.850 171.598, 220.500 171.155 C 223.704 170.293, 231 171.660, 231 173.122 C 231 173.605, 231.787 174.033, 232.750 174.073 C 233.713 174.113, 235.850 174.932, 237.500 175.892 C 239.953 177.319, 240.739 178.718, 241.812 183.569 C 242.534 186.831, 243.546 190.281, 244.062 191.236 C 244.578 192.191, 245.014 193.766, 245.032 194.736 C 245.069 196.807, 247.294 200, 248.700 200 C 249.238 200, 250.213 201.172, 250.866 202.605 C 252.330 205.818, 250.453 212.142, 248.154 211.748 C 245.867 211.356, 245.665 213.759, 247.924 214.476 C 249.850 215.087, 249.931 215.705, 249.440 226.098 C 249.155 232.135, 248.417 238.295, 247.800 239.787 C 247.182 241.279, 246.783 242.936, 246.912 243.470 C 247.041 244.003, 247.522 247.786, 247.980 251.876 C 248.788 259.078, 247.919 264, 245.839 264 C 245.378 264, 245 264.936, 245 266.079 C 245 267.903, 245.398 268.072, 248.236 267.448 C 253.556 266.280, 253.933 265.010, 253.968 248.148 C 253.986 239.705, 254.507 226.413, 255.126 218.611 C 255.957 208.148, 255.960 201.548, 255.138 193.463 C 253.925 181.531, 252.894 177.909, 248.708 170.874 C 246.357 166.924, 245.264 166.069, 241.227 165.031 C 235.925 163.667, 232.065 162.030, 230.346 160.418 C 229.174 159.318, 224.327 159.039, 218 159.707 M 210 167.500 C 210 168.325, 210.450 169, 211 169 C 211.550 169, 212 168.325, 212 167.500 C 212 166.675, 211.550 166, 211 166 C 210.450 166, 210 166.675, 210 167.500 M 231 168.393 C 231 168.609, 231.698 169.054, 232.552 169.382 C 233.442 169.723, 233.843 169.555, 233.493 168.989 C 232.906 168.038, 231 167.583, 231 168.393 M 152 207.559 C 152 208.416, 152.457 208.835, 153.016 208.490 C 153.575 208.144, 153.774 207.443, 153.457 206.931 C 152.600 205.544, 152 205.802, 152 207.559 M 193.500 225 C 193.160 225.550, 191.784 226, 190.441 226 C 188.938 226, 188 226.576, 188 227.500 C 188 228.615, 189.175 229, 192.571 229 C 197.587 229, 200.669 227.069, 198.736 225.136 C 197.332 223.732, 194.332 223.654, 193.500 225 M 169 229.310 C 169 230.122, 169.708 231.058, 170.573 231.390 C 171.669 231.810, 172.048 231.489, 171.823 230.329 C 171.412 228.213, 169 227.341, 169 229.310 M 182 230 C 180.865 230.734, 181.305 230.973, 183.809 230.985 C 185.764 230.994, 186.865 230.591, 186.500 230 C 185.724 228.744, 183.944 228.744, 182 230 M 91.395 239.684 C 90.169 240.112, 90.735 244.718, 92.119 245.574 C 92.604 245.873, 93 246.991, 93 248.059 C 93 249.127, 93.353 250, 93.784 250 C 94.216 250, 95.419 251.463, 96.459 253.250 C 97.499 255.037, 98.653 256.725, 99.025 257 C 99.397 257.275, 100.876 259.300, 102.313 261.500 C 106.001 267.149, 107.068 268.256, 110.843 270.360 C 114.764 272.545, 116.856 271.468, 115.093 268.173 C 114.492 267.050, 114 264.731, 114 263.020 C 114 259.675, 112.146 257.385, 105.500 252.525 C 101.459 249.570, 99.548 247.705, 95 242.280 C 93.625 240.640, 92.003 239.471, 91.395 239.684 M 225.733 257.595 C 225.605 257.721, 220.100 258.348, 213.500 258.990 C 206.900 259.632, 197.900 260.797, 193.500 261.580 C 189.100 262.362, 182.366 263.464, 178.536 264.028 C 173.824 264.722, 170.833 265.748, 169.286 267.201 C 166.702 269.629, 166.355 271.538, 168.358 272.307 C 169.105 272.594, 169.993 274.217, 170.333 275.914 C 171.074 279.621, 172.855 279.826, 176.673 276.644 C 179.021 274.686, 180.998 274.196, 188.345 273.748 C 193.210 273.452, 197.688 272.712, 198.295 272.105 C 198.903 271.497, 200.660 271, 202.200 271 C 203.740 271, 205 270.550, 205 270 C 205 269.423, 208.147 269, 212.441 269 C 216.534 269, 220.160 268.550, 220.500 268 C 220.840 267.450, 223.234 267, 225.819 267 C 229.468 267, 231.134 266.431, 233.260 264.460 C 236.146 261.784, 236.743 259.577, 234.890 258.432 C 233.852 257.791, 226.244 257.095, 225.733 257.595 M 28 274 C 28 277.778, 28.367 279, 29.500 279 C 30.633 279, 31 277.778, 31 274 C 31 270.222, 30.633 269, 29.500 269 C 28.367 269, 28 270.222, 28 274 M 34.200 277.200 C 33.540 277.860, 33 279.708, 33 281.307 C 33 283.547, 33.363 284.075, 34.582 283.607 C 35.452 283.273, 36.577 283, 37.082 283 C 37.587 283, 38 281.425, 38 279.500 C 38 275.868, 36.462 274.938, 34.200 277.200" stroke="none" fill="black" fill-rule="evenodd"/>
</svg>