<svg xmlns="http://www.w3.org/2000/svg" width="300" height="300" viewBox="0 0 300 300" version="1.1">
	<path d="M 149.621 19.521 C 148.730 20.413, 148 21.592, 148 22.141 C 148 26.325, 131.250 43.307, 124.874 45.587 C 123.980 45.907, 122.715 47.143, 122.064 48.334 C 121.413 49.525, 118.095 51.913, 114.690 53.641 C 110.251 55.893, 108.404 57.420, 108.161 59.038 C 107.742 61.831, 109.627 68.813, 112.678 75.765 C 114.678 80.325, 115.032 83.004, 115.319 95.765 C 115.501 103.869, 115.036 119.493, 114.285 130.484 C 113.006 149.202, 113.029 150.548, 114.651 151.734 C 116.794 153.301, 117.036 153.287, 119.454 151.459 C 121.107 150.209, 121.464 148.478, 121.769 140.240 C 122.233 127.686, 122.429 127.115, 125.341 129.850 C 128.204 132.540, 131.971 132.597, 135.273 130 C 136.671 128.900, 139.094 127.985, 140.658 127.967 C 142.221 127.949, 145.975 127.020, 149 125.903 C 152.025 124.786, 157.729 123.254, 161.675 122.500 C 165.621 121.746, 170.216 120.423, 171.886 119.559 C 174.699 118.104, 174.985 118.118, 175.765 119.744 C 176.228 120.710, 176.727 125.149, 176.874 129.608 C 177.191 139.242, 176.114 140.959, 169.679 141.077 C 167.380 141.119, 164.600 141.371, 163.500 141.637 C 162.400 141.902, 158.125 142.470, 154 142.897 C 149.875 143.324, 144.925 144.172, 143 144.782 C 141.075 145.392, 136.912 146.632, 133.750 147.538 C 130.588 148.445, 128 149.594, 128 150.093 C 128 150.592, 127.311 151, 126.469 151 C 125.626 151, 124.692 151.639, 124.393 152.419 C 123.938 153.604, 124.516 154.939, 127.590 159.809 C 128.236 160.833, 139.096 156.527, 141.012 154.487 C 142.281 153.136, 144.891 151.736, 146.812 151.376 C 148.732 151.015, 151.114 150.027, 152.104 149.179 C 153.094 148.331, 155.948 147.551, 158.446 147.446 C 160.944 147.341, 163.683 146.678, 164.531 145.974 C 166.311 144.497, 176.942 144.542, 178.433 146.033 C 179.931 147.531, 182.533 147.179, 184.229 145.250 C 185.586 143.706, 185.659 139.846, 184.848 112.500 C 183.847 78.756, 182.060 58.950, 179.584 54.162 C 178.713 52.478, 178 50.435, 178 49.622 C 178 46.886, 173.022 44, 168.303 44 C 162.870 44, 154.910 46.503, 152.142 49.082 C 151.010 50.137, 149.234 51, 148.195 51 C 147.157 51, 144.987 51.658, 143.374 52.463 C 139.729 54.282, 126.968 57.301, 126.195 56.529 C 125.570 55.903, 133.931 48, 135.218 48 C 136.261 48, 151 33.164, 151 32.114 C 151 31.672, 151.921 30.476, 153.047 29.458 C 154.647 28.009, 155.029 26.615, 154.797 23.062 C 154.469 18.036, 152.472 16.671, 149.621 19.521 M 165 50 C 165 50.550, 163.452 51, 161.559 51 C 159.666 51, 157.860 51.417, 157.545 51.927 C 157.230 52.437, 155.291 53.394, 153.236 54.053 C 151.181 54.713, 148.825 55.829, 148 56.533 C 147.175 57.238, 144.640 58.309, 142.366 58.914 C 140.093 59.519, 137.705 60.651, 137.059 61.429 C 136.413 62.207, 134.105 63.144, 131.929 63.512 C 129.471 63.927, 127.568 64.939, 126.901 66.185 C 126.042 67.790, 125.182 68.069, 122.592 67.583 C 118.219 66.763, 117.745 67.580, 120.014 72.028 C 122.550 76.997, 124.366 95.641, 123.817 111.051 L 123.398 122.808 127.065 123.394 C 129.460 123.777, 131.838 123.429, 133.921 122.389 C 136.033 121.336, 138.271 121.016, 140.545 121.442 C 142.677 121.843, 145.757 121.483, 148.673 120.493 C 151.255 119.616, 156.453 118.512, 160.225 118.038 C 163.996 117.564, 167.626 116.727, 168.291 116.177 C 168.956 115.627, 170.850 115.025, 172.500 114.838 C 175.411 114.510, 175.496 114.352, 175.355 109.500 C 174.800 90.317, 174.496 87.500, 173 87.628 C 169.229 87.951, 157.025 91.553, 152.554 93.665 C 149.833 94.949, 146.647 96, 145.473 96 C 144.241 96, 142.793 97.018, 142.050 98.406 C 141.095 100.191, 139.738 100.910, 136.795 101.191 C 133.304 101.524, 132.659 101.242, 131.414 98.834 C 130.636 97.330, 130 95.876, 130 95.602 C 130 94.149, 140.989 89.869, 145.423 89.595 C 148.215 89.422, 151.625 88.818, 153 88.253 C 155.723 87.134, 163.073 85.470, 169.692 84.474 C 175.836 83.550, 176.326 82.518, 174.988 73.321 C 174.362 69.020, 173.459 62.565, 172.981 58.978 C 171.780 49.963, 171.289 49, 167.893 49 C 166.302 49, 165 49.450, 165 50 M 134.667 151.667 C 133.545 152.788, 133.923 154, 135.393 154 C 136.159 154, 137.045 153.325, 137.362 152.500 C 137.939 150.996, 135.951 150.382, 134.667 151.667 M 157.005 158.494 C 156.222 159.438, 156.036 161.004, 156.500 162.744 C 157.679 167.166, 157.471 172.024, 155.791 179.306 C 154.927 183.050, 154.058 186.266, 153.860 186.453 C 153.662 186.640, 148.506 187.050, 142.403 187.364 C 136.299 187.677, 130.224 188.343, 128.903 188.843 C 127.581 189.343, 123.575 190.085, 120 190.491 C 116.425 190.897, 112.754 191.621, 111.842 192.100 C 110.930 192.580, 105.755 193.045, 100.342 193.135 C 93.309 193.251, 90.011 193.718, 88.787 194.770 C 87.845 195.580, 86.438 195.998, 85.659 195.699 C 83.759 194.970, 82.009 196.861, 82.764 198.828 C 84.665 203.782, 91.052 205.805, 94.357 202.500 C 95.208 201.649, 97.651 201, 100 201 C 102.476 201, 104.791 200.352, 105.754 199.389 C 107.235 197.908, 107.471 197.923, 108.682 199.580 C 109.945 201.308, 110.061 201.302, 111.468 199.441 C 112.276 198.374, 112.951 197.893, 112.968 198.372 C 112.986 198.852, 113.563 198.802, 114.250 198.260 C 115.822 197.022, 120.080 195.802, 127 194.608 C 128.375 194.371, 131.525 193.728, 134 193.179 C 136.475 192.630, 141.313 191.871, 144.750 191.492 L 151 190.804 151 194.902 C 151 197.156, 150.610 199, 150.134 199 C 149.246 199, 144.741 208.593, 141.446 217.500 C 140.428 220.250, 138.789 223.850, 137.802 225.500 C 136.815 227.150, 136.006 229.084, 136.004 229.799 C 136.002 230.513, 134.283 233.663, 132.185 236.799 C 130.087 239.934, 125.813 246.325, 122.687 251 C 119.560 255.675, 116.661 259.950, 116.242 260.500 C 109.553 269.300, 108.655 270.130, 106.431 269.572 C 105.029 269.220, 103.537 269.606, 102.572 270.571 C 100.619 272.524, 100.585 272.143, 103.139 277.043 C 104.955 280.526, 105.638 281.057, 107.657 280.550 C 110.741 279.776, 121.226 269.011, 124.651 263.102 C 126.972 259.097, 129.097 256.097, 133.015 251.292 C 133.557 250.628, 134 249.788, 134 249.426 C 134 249.064, 135.575 246.622, 137.500 244 C 139.425 241.378, 141 238.878, 141 238.445 C 141 238.012, 141.603 236.947, 142.340 236.079 C 143.077 235.210, 144.977 231.463, 146.562 227.750 C 148.148 224.037, 149.795 221, 150.223 221 C 150.650 221, 151 219.740, 151 218.200 C 151 216.660, 151.361 214.972, 151.801 214.450 C 152.242 213.927, 154.134 209.675, 156.006 205 C 161.764 190.615, 161.832 190.540, 170.459 189.199 C 174.570 188.560, 178.626 188.303, 179.474 188.628 C 180.322 188.954, 182.121 188.495, 183.473 187.610 C 186.863 185.388, 190.696 185.564, 192 188 C 193.259 190.352, 196.245 190.615, 197.978 188.526 C 199.719 186.428, 205.902 185.458, 208.238 186.916 C 209.713 187.838, 210.485 187.842, 211.578 186.935 C 213.541 185.306, 213.427 179.378, 211.418 178.607 C 208.691 177.561, 204.528 177.942, 202.398 179.434 C 201.229 180.252, 196.524 181.153, 191.426 181.533 C 186.517 181.899, 180.281 182.829, 177.568 183.599 C 174.856 184.370, 170.641 185, 168.201 185 L 163.765 185 164.618 177.250 C 165.708 167.353, 165.453 160.251, 163.943 158.431 C 162.393 156.564, 158.578 156.598, 157.005 158.494 M 208 158.729 C 207.175 159.043, 206.183 159.788, 205.796 160.384 C 204.873 161.806, 208.846 166, 211.115 166 C 212.087 166, 213.160 166.450, 213.500 167 C 213.840 167.550, 215.195 168, 216.512 168 C 217.829 168, 220.064 168.528, 221.480 169.173 C 223.169 169.942, 224.393 170.007, 225.039 169.361 C 225.684 168.716, 223.796 166.592, 219.548 163.189 C 213.362 158.231, 211.349 157.454, 208 158.729 M 155.667 215.667 C 154.110 217.223, 155.236 220.303, 158.587 223.654 C 160.560 225.627, 163.034 229.099, 164.086 231.371 C 166.416 236.405, 174.988 247.563, 182.239 255 C 185.188 258.025, 189.782 263.313, 192.448 266.750 C 195.297 270.423, 198.059 273, 199.148 273 C 200.166 273, 201 273.659, 201 274.465 C 201 275.270, 201.815 276.366, 202.812 276.899 C 203.808 277.433, 206.779 279.650, 209.413 281.826 C 213.733 285.397, 214.930 285.852, 221.641 286.481 C 227.646 287.044, 229.553 286.868, 231.540 285.566 C 235.558 282.933, 234.701 281, 229.514 281 C 220.228 281, 216.630 279.216, 207.243 269.957 C 202.435 265.214, 196.266 259.008, 193.535 256.166 C 190.804 253.325, 188.217 251, 187.785 251 C 187.353 251, 187 250.442, 187 249.761 C 187 249.079, 185.893 247.392, 184.539 246.011 C 178.357 239.703, 170.962 229.788, 168.619 224.666 C 166.774 220.634, 165.359 218.877, 163.598 218.435 C 162.248 218.097, 160.901 217.185, 160.604 216.410 C 160.048 214.960, 156.854 214.480, 155.667 215.667 M 198.813 267.683 C 199.534 267.972, 200.397 267.936, 200.729 267.604 C 201.061 267.272, 200.471 267.036, 199.417 267.079 C 198.252 267.127, 198.015 267.364, 198.813 267.683" stroke="none" fill="black" fill-rule="evenodd"/>
</svg>