<svg xmlns="http://www.w3.org/2000/svg" width="300" height="300" viewBox="0 0 300 300" version="1.1">
	<path d="M 190 17.972 C 182.606 20.774, 181.635 21.251, 178.406 23.676 C 174.618 26.520, 173.380 26.581, 171.768 24 C 170.375 21.770, 166.084 21.316, 164.200 23.200 C 162.570 24.830, 162.683 31.102, 164.385 33.532 C 166.129 36.023, 167.704 46.309, 168.514 60.500 C 168.859 66.550, 169.514 72.400, 169.969 73.500 C 170.424 74.600, 171.517 77.143, 172.398 79.151 C 173.279 81.159, 174 84.229, 174 85.973 C 174 90.212, 176.516 92.784, 179.091 91.176 C 180.126 90.529, 182.517 90, 184.404 90 C 186.292 90, 190.076 88.875, 192.813 87.500 C 198.176 84.806, 200 84.426, 200 86 C 200 86.550, 201.265 87, 202.812 87 C 206.218 87, 208.179 84.470, 212.883 74 C 214.737 69.875, 216.646 65.719, 217.127 64.764 C 217.607 63.809, 218 62.398, 218 61.628 C 218 59.794, 220.803 50.385, 222.591 46.216 C 223.366 44.410, 224 40.499, 224 37.525 C 224 34.551, 224.450 31.840, 225 31.500 C 226.705 30.446, 226.113 27.574, 223.291 23.223 C 221.279 20.119, 219.435 18.655, 216.113 17.523 C 210.106 15.476, 195.946 15.720, 190 17.972 M 208.628 22.526 C 208.191 23.666, 206.679 24.008, 202.654 23.876 C 199.125 23.761, 196.491 24.243, 195.018 25.275 C 192.541 27.010, 190 26.563, 190 24.393 C 190 23.627, 189.325 23, 188.500 23 C 186.793 23, 186.491 24.568, 188.016 25.510 C 188.575 25.856, 188.770 26.564, 188.448 27.084 C 187.811 28.115, 181.619 30.932, 178.648 31.543 C 177.629 31.753, 176.167 32.447, 175.398 33.085 C 173.795 34.415, 173.503 40.575, 175 41.500 C 175.550 41.840, 176 45.016, 176 48.559 L 176 55 178.947 55 C 180.568 55, 184.055 53.830, 186.697 52.401 C 190.491 50.348, 193.030 49.770, 198.781 49.651 C 204.092 49.541, 206.299 49.881, 206.939 50.909 C 208.314 53.121, 207.035 54.999, 204.143 55.015 C 201.207 55.031, 195.089 57.003, 190.500 59.412 C 188.850 60.279, 186.122 60.990, 184.439 60.994 C 181.370 61, 177 64.071, 177 66.221 C 177 67.924, 179.237 85.456, 179.495 85.775 C 179.617 85.926, 181.468 85.198, 183.608 84.155 C 190.614 80.744, 195.040 79, 196.690 79 C 199.938 79, 204.888 74.123, 205.589 70.231 C 205.958 68.179, 207.095 64.743, 208.114 62.596 C 209.133 60.449, 210.232 57.074, 210.555 55.096 C 210.879 53.118, 211.525 50.600, 211.992 49.500 C 212.458 48.400, 214.002 44.337, 215.423 40.470 C 217.813 33.966, 217.914 33.050, 216.767 28.220 C 216.082 25.336, 214.961 23, 214.263 23 C 213.569 23, 213 22.550, 213 22 C 213 20.399, 209.272 20.848, 208.628 22.526 M 46.615 49.465 C 43.932 53.560, 44.956 56.186, 50.315 58.954 C 52.907 60.292, 52.974 60.465, 51.167 61.134 C 50.088 61.533, 48.821 62.454, 48.352 63.180 C 47.884 63.906, 47.209 71.925, 46.854 81 C 46.075 100.912, 44.448 119.240, 43.037 123.993 C 42.467 125.915, 42 134.037, 42 142.043 C 42 150.050, 41.592 157.027, 41.093 157.550 C 37.417 161.399, 34.838 183.573, 34.818 211.500 C 34.809 223.658, 37.177 253.278, 38.611 258.937 C 40.543 266.564, 42.931 267.968, 45.505 262.991 C 46.716 260.649, 46.811 259.516, 45.936 257.880 C 45.317 256.724, 44.698 250.529, 44.561 244.113 C 44.423 237.697, 43.881 231.560, 43.356 230.474 C 42.783 229.289, 42.687 223.104, 43.115 215 C 43.507 207.575, 43.980 195.157, 44.164 187.403 C 44.364 179.015, 44.953 172.739, 45.620 171.903 C 47.038 170.126, 48.926 158.548, 50.007 145 C 51.143 130.762, 52.745 118.331, 53.924 114.594 C 54.461 112.892, 55.089 102.891, 55.318 92.368 C 55.548 81.845, 56.047 72.733, 56.427 72.118 C 56.807 71.503, 57.826 71, 58.692 71 C 59.557 71, 61.109 70.027, 62.140 68.839 C 66.967 63.273, 74.012 60.753, 83.622 61.155 C 97.511 61.737, 99.447 64.882, 99.901 87.599 C 100.031 94.097, 100.375 99.798, 100.666 100.269 C 100.957 100.739, 101.612 112.621, 102.121 126.673 C 102.631 140.724, 103.498 153.061, 104.047 154.088 C 104.814 155.522, 104.577 156.423, 103.023 157.977 C 101.910 159.090, 100.582 160, 100.071 160 C 99.561 160, 98.548 160.569, 97.821 161.264 C 97.095 161.960, 94.475 164.094, 92 166.007 C 89.525 167.920, 87.350 169.826, 87.167 170.243 C 86.983 170.659, 86.468 171, 86.022 171 C 85.576 171, 80.776 175.269, 75.355 180.487 C 69.935 185.705, 65.136 189.980, 64.691 189.987 C 62.859 190.016, 56 196.471, 56 198.167 C 56 199.587, 56.771 200, 59.417 200 C 61.296 200, 63.017 199.448, 63.242 198.774 C 63.476 198.071, 65.019 197.652, 66.857 197.792 C 69.476 197.992, 71.322 196.982, 76.953 192.268 C 80.743 189.096, 83.879 186.112, 83.922 185.638 C 83.965 185.164, 86.968 181.715, 90.596 177.974 C 94.223 174.233, 97.917 170.121, 98.805 168.836 C 101.576 164.824, 103.057 163.657, 104.081 164.681 C 105.414 166.014, 105.356 215.381, 104.022 215.826 C 102.718 216.261, 102.703 221.090, 103.996 224.490 C 105.364 228.087, 105.515 249.885, 104.181 251.219 C 102.937 252.463, 101.057 250.814, 99.372 247 C 97.809 243.461, 90.037 235, 88.350 235 C 85.936 235, 85.712 237.818, 87.904 240.605 C 89.057 242.071, 90 244.109, 90 245.135 C 90 246.161, 90.450 247, 91 247 C 91.550 247, 92 247.973, 92 249.162 C 92 251.951, 95.237 262.398, 96.236 262.833 C 96.656 263.017, 97 263.781, 97 264.532 C 97 265.284, 98.688 267.159, 100.750 268.699 C 102.813 270.240, 105.095 272.063, 105.821 272.750 C 107.289 274.139, 109.916 274.359, 111.600 273.235 C 114.293 271.437, 114.933 268.171, 114.119 260.372 C 113.667 256.042, 113.198 231.367, 113.077 205.539 C 112.956 179.710, 112.555 158.110, 112.185 157.539 C 111.816 156.967, 111.473 154.250, 111.424 151.500 C 111.130 135.181, 109.801 111.765, 108.915 107.312 C 108.348 104.458, 107.998 101.533, 108.137 100.812 C 108.947 96.620, 106.605 73.121, 104.835 67.667 C 102.654 60.949, 98.500 56.333, 93.729 55.326 C 92.205 55.005, 90.716 54.350, 90.420 53.871 C 89.655 52.633, 69 52.757, 69 54 C 69 54.550, 68.325 55, 67.500 55 C 66.675 55, 66 55.444, 66 55.987 C 66 56.778, 59.880 60, 58.378 60 C 58.170 60, 58 57.782, 58 55.071 C 58 49.197, 56.243 47, 51.544 47 C 49.125 47, 47.794 47.666, 46.615 49.465 M 230.459 100.062 C 228.237 101.142, 224.946 103.370, 223.147 105.013 C 221.348 106.656, 219.296 108, 218.587 108 C 217.878 108, 215.294 109.065, 212.845 110.368 C 210.396 111.670, 206.841 112.964, 204.946 113.244 C 203.051 113.524, 199.025 114.714, 196 115.889 C 192.975 117.065, 188.125 118.309, 185.222 118.654 C 182.319 119, 179.705 119.669, 179.413 120.141 C 179.121 120.613, 177.754 121, 176.375 121 C 174.997 121, 172.961 121.486, 171.852 122.079 C 170.743 122.673, 164.360 123.390, 157.668 123.673 C 150.975 123.956, 145.072 124.596, 144.550 125.094 C 144.027 125.592, 139.935 126, 135.455 126 C 126.173 126, 124.262 127.153, 123.782 133.044 L 123.500 136.500 129.500 136.145 C 132.800 135.949, 135.950 135.437, 136.500 135.007 C 137.618 134.133, 144.988 132.995, 149.338 133.025 C 151.316 133.039, 152.329 132.457, 152.683 131.104 C 153.299 128.750, 158.112 126.583, 160.818 127.442 C 161.899 127.785, 163.027 128.996, 163.324 130.132 C 163.804 131.966, 164.350 132.119, 168.182 131.494 C 170.557 131.106, 173.912 129.930, 175.638 128.882 L 178.777 126.975 179.366 129.322 C 180.139 132.402, 178.989 136.082, 174.778 144 C 172.876 147.575, 170.512 152.637, 169.524 155.250 C 168.537 157.863, 167.414 160, 167.030 160 C 166.647 160, 164.628 162.475, 162.544 165.500 C 160.461 168.525, 158.443 171, 158.059 171 C 157.095 171, 147 184.642, 147 185.945 C 147 186.525, 146.649 187, 146.220 187 C 145.791 187, 144.567 189.250, 143.500 192 C 142.433 194.750, 141.209 197, 140.780 197 C 140.351 197, 140 197.525, 140 198.166 C 140 198.807, 137.975 202.581, 135.500 206.552 C 133.025 210.523, 131 214.273, 131 214.886 C 131 215.499, 130.550 216, 130 216 C 129.450 216, 129 216.873, 129 217.941 C 129 219.009, 128.550 220.160, 128 220.500 C 126.691 221.309, 126.714 227.597, 128.035 230.066 C 129.489 232.783, 131.419 232.471, 133.081 229.250 C 133.861 227.738, 135.063 225.905, 135.750 225.179 C 136.437 224.452, 137 223.430, 137 222.909 C 137 222.387, 138.125 220.178, 139.500 218 C 140.875 215.822, 142 213.356, 142 212.520 C 142 211.684, 142.441 211, 142.981 211 C 143.520 211, 144.244 209.875, 144.589 208.500 C 144.934 207.125, 145.582 206, 146.029 206 C 146.476 206, 147.138 204.650, 147.500 203 C 147.862 201.350, 148.573 200, 149.079 200 C 149.586 200, 150 199.338, 150 198.529 C 150 197.065, 154.920 189.353, 158.250 185.597 C 159.213 184.511, 160 183.262, 160 182.820 C 160 182.379, 161.350 180.727, 163 179.150 C 164.650 177.574, 166 175.770, 166 175.142 C 166 174.514, 166.450 174, 167 174 C 167.550 174, 168 173.363, 168 172.583 C 168 171.804, 168.338 171.017, 168.750 170.833 C 169.689 170.416, 176.276 160.519, 178.291 156.498 C 180.850 151.391, 183.669 149.439, 186.800 150.606 C 188.285 151.160, 190.625 151.325, 192 150.974 C 195.750 150.016, 197 150.874, 197 154.407 C 197 158.333, 195.457 160, 191.822 160 C 189.342 160, 188.664 160.809, 185.522 167.522 C 183.585 171.659, 182 175.645, 182 176.380 C 182 177.115, 180.536 180.592, 178.747 184.108 C 176.958 187.624, 173.709 194.325, 171.528 199 C 169.346 203.675, 167.310 207.725, 167.003 208 C 166.696 208.275, 165.565 210.525, 164.489 213 C 163.414 215.475, 161.246 219.598, 159.672 222.163 C 156.390 227.508, 156.709 230.559, 160.707 232.079 C 164.491 233.518, 169.569 230.289, 169.305 226.612 C 169.198 225.120, 170.140 222.010, 171.399 219.700 C 172.659 217.390, 174.546 213.925, 175.594 212 C 176.642 210.075, 177.838 208.350, 178.250 208.167 C 178.662 207.983, 179 207.153, 179 206.321 C 179 205.489, 179.870 203.587, 180.934 202.093 C 181.997 200.600, 183.183 198.055, 183.569 196.439 C 184.225 193.698, 186.846 188.133, 188.016 187 C 188.795 186.246, 195 173.157, 194.999 172.271 C 194.994 169.988, 200.823 159.914, 202.750 158.875 C 204.093 158.151, 205 156.722, 205 155.331 C 205 153.098, 204.101 152.543, 201.144 152.950 C 198.276 153.345, 200.759 150.725, 204.459 149.453 C 207.262 148.489, 208.894 148.408, 210.301 149.161 C 211.700 149.910, 212.995 149.855, 214.876 148.968 C 217.453 147.752, 223.368 147.245, 237.725 147.008 C 241.699 146.942, 245.181 146.516, 245.463 146.060 C 246.177 144.904, 254.295 143.792, 256.326 144.572 C 257.247 144.925, 258 145.847, 258 146.621 C 258 147.394, 258.541 148.893, 259.202 149.952 C 260.111 151.407, 260.127 152.440, 259.267 154.188 C 258.115 156.528, 257.506 161.790, 256.394 179 C 255.100 199.014, 254.104 208.809, 252.479 217.500 C 251.554 222.450, 250.706 228.750, 250.596 231.500 C 250.056 244.954, 250.129 244.620, 247.453 245.839 C 243.383 247.694, 237.267 247.257, 234.055 244.882 C 227.732 240.208, 226.890 247.416, 233.084 253.192 C 236.309 256.199, 237.956 257, 240.917 257 C 242.979 257, 245.007 256.663, 245.424 256.250 C 245.840 255.838, 246.928 255.454, 247.840 255.398 C 248.753 255.342, 250.667 255.229, 252.093 255.148 C 256.698 254.885, 259.610 246.248, 260.403 230.500 C 260.680 225, 261.344 219.150, 261.879 217.500 C 262.414 215.850, 263.096 207.972, 263.393 199.993 C 263.691 192.015, 264.466 183.962, 265.116 182.098 C 265.949 179.709, 266.127 173.093, 265.722 159.664 C 265.165 141.243, 265.070 140.560, 262.823 138.832 C 260.165 136.787, 249.210 136.282, 245.903 138.052 C 244.822 138.630, 236.665 139.302, 227.777 139.544 C 218.885 139.786, 211.163 140.437, 210.608 140.992 C 210.054 141.546, 206.826 142, 203.436 142 C 200.047 142, 194.876 142.455, 191.947 143.010 C 185.894 144.158, 184.430 143.405, 185.378 139.630 C 185.870 137.672, 187.060 136.817, 190.747 135.775 C 195.833 134.339, 197.127 132.269, 194.550 129.693 C 192.436 127.579, 192.603 126, 194.941 126 C 196.009 126, 197.128 125.601, 197.429 125.114 C 197.731 124.627, 201.020 123.464, 204.738 122.529 C 208.457 121.594, 212.190 120.475, 213.033 120.042 C 213.876 119.609, 216.126 118.923, 218.033 118.518 C 219.940 118.112, 222.932 116.705, 224.683 115.390 C 226.434 114.076, 228.169 113, 228.539 113 C 228.909 113, 230.548 111.875, 232.182 110.500 C 234.721 108.364, 236.154 108, 242.030 108 C 245.812 108, 250.013 108.504, 251.366 109.121 C 253.277 109.992, 254.151 109.938, 255.282 108.881 C 258.012 106.332, 255.340 103.358, 247.813 100.568 C 239.605 97.525, 235.904 97.418, 230.459 100.062 M 184 126.021 C 184 129.917, 187.961 132.182, 190.439 129.704 C 192.396 127.747, 192.386 127.474, 190.278 125.011 C 189.331 123.905, 187.531 123, 186.278 123 C 184.410 123, 184 123.544, 184 126.021 M 171.813 128.683 C 172.534 128.972, 173.397 128.936, 173.729 128.604 C 174.061 128.272, 173.471 128.036, 172.417 128.079 C 171.252 128.127, 171.015 128.364, 171.813 128.683 M 85 139.714 C 82.525 139.914, 78.125 141.185, 75.223 142.539 C 72.320 143.893, 69.713 145, 69.429 145 C 69.145 145, 67.699 146.125, 66.217 147.500 C 64.734 148.875, 62.789 150, 61.895 150 C 59.425 150, 55 153.897, 55 156.073 C 55 157.133, 55.675 158, 56.500 158 C 57.606 158, 58 159.155, 58 162.393 C 58 168.170, 60.393 169.339, 62.803 164.739 C 64.505 161.491, 71.467 154.097, 76.052 150.669 C 79.414 148.155, 85.982 145.182, 89 144.809 C 90.888 144.576, 91.577 143.827, 91.816 141.750 C 92.027 139.922, 91.691 139.059, 90.816 139.175 C 90.092 139.271, 87.475 139.513, 85 139.714 M 225.500 155.724 C 222.184 156.539, 221 158.075, 221 161.563 C 221 163.389, 220.500 165.191, 219.888 165.569 C 218.410 166.483, 214.470 175.498, 210.911 186.114 C 209.322 190.852, 207.345 196.027, 206.517 197.614 C 205.690 199.201, 205.010 201.025, 205.006 201.667 C 205.003 202.308, 204.662 202.983, 204.250 203.167 C 203.163 203.650, 200 209.912, 200 211.581 C 200 212.361, 199.586 213, 199.079 213 C 198.573 213, 197.862 214.350, 197.500 216 C 197.138 217.650, 196.539 219.002, 196.171 219.004 C 195.802 219.006, 194.633 221.143, 193.574 223.754 C 192.514 226.364, 191.355 228.725, 190.999 229 C 190.642 229.275, 189.084 232.024, 187.537 235.109 C 185.373 239.426, 184.875 241.500, 185.377 244.109 C 187.083 252.977, 189.503 251.832, 195.497 239.321 C 198.086 233.920, 200.614 228.825, 201.116 228 C 201.618 227.175, 202.516 225.262, 203.112 223.750 C 203.708 222.238, 204.511 221, 204.897 221 C 205.283 221, 206.202 219.313, 206.940 217.250 C 207.678 215.188, 208.560 213.275, 208.900 213 C 210.437 211.758, 214.989 203.892, 215.615 201.398 C 215.997 199.877, 216.912 197.478, 217.648 196.067 C 218.385 194.655, 218.990 192.713, 218.994 191.750 C 218.997 190.787, 219.401 190, 219.891 190 C 220.380 190, 220.999 188.537, 221.265 186.750 C 221.699 183.835, 222.718 180.563, 225.078 174.500 C 225.506 173.400, 226.151 170.721, 226.512 168.547 C 226.872 166.372, 228.005 162.950, 229.029 160.942 C 230.429 158.199, 230.607 157.007, 229.746 156.146 C 229.116 155.516, 228.352 155.052, 228.050 155.116 C 227.748 155.180, 226.600 155.453, 225.500 155.724 M 109 225.559 C 109 226.416, 109.450 226.840, 110 226.500 C 110.550 226.160, 111 225.459, 111 224.941 C 111 224.423, 110.550 224, 110 224 C 109.450 224, 109 224.702, 109 225.559" stroke="none" fill="black" fill-rule="evenodd"/>
</svg>