<svg xmlns="http://www.w3.org/2000/svg" width="300" height="300" viewBox="0 0 300 300" version="1.1">
	<path d="M 227.450 15.812 C 226.928 16.259, 223.242 17.658, 219.260 18.921 C 212.962 20.920, 209.866 21.226, 195.474 21.275 C 177.687 21.336, 174.404 22.105, 176.615 25.691 C 177.383 26.937, 179.016 27.526, 181.863 27.582 C 186.356 27.671, 189.012 29, 184.698 29 C 182.766 29, 182.216 29.401, 182.638 30.500 C 183.663 33.171, 187.934 32.280, 189.797 29.006 C 191.433 26.130, 196 24.653, 196 27 C 196 28.335, 199.321 28.279, 200.678 26.922 C 201.271 26.329, 203.049 25.991, 204.628 26.172 C 207.495 26.499, 207.500 26.512, 207.229 33 C 207.080 36.575, 206.476 41.525, 205.886 44 C 204.714 48.925, 199.292 62.609, 197.566 65 C 196.970 65.825, 195.591 68.300, 194.501 70.500 C 193.411 72.700, 192.244 74.725, 191.908 75 C 191.571 75.275, 190.316 78.425, 189.119 82 C 187.921 85.575, 186.546 89.400, 186.062 90.500 C 185.577 91.600, 184.898 93.175, 184.551 94 C 183.482 96.546, 181.224 100.239, 180.340 100.885 C 179.878 101.223, 178.663 103.300, 177.640 105.500 C 176.617 107.700, 175.392 110.175, 174.918 111 C 170.778 118.201, 170.637 118.910, 172.616 122.616 C 175.631 128.264, 182.098 133, 186.796 133 C 189.095 133, 191.277 132.371, 192 131.500 C 192.685 130.675, 194.536 130, 196.114 130 C 197.900 130, 199.455 129.245, 200.232 128 C 200.919 126.900, 202.246 126, 203.182 126 C 204.117 126, 205.160 125.550, 205.500 125 C 206.494 123.391, 211 123.801, 211 125.500 C 211 127.418, 211.160 127.405, 218.611 124.888 C 224.756 122.813, 227.976 120.652, 229.810 117.375 C 231.142 114.995, 232.665 116.394, 233.471 120.739 C 233.855 122.808, 234.751 125.175, 235.463 126 C 236.174 126.825, 237.015 128.850, 237.331 130.500 C 239.693 142.841, 242.229 150, 244.241 150 C 244.658 150, 245 150.675, 245 151.500 C 245 152.325, 245.406 153, 245.902 153 C 246.398 153, 247.275 154.350, 247.850 156 C 248.425 157.650, 249.337 159, 249.877 159 C 250.813 159, 254 156.275, 254 155.475 C 254 155.264, 252.650 150.927, 251 145.837 C 249.350 140.746, 248 135.352, 248 133.850 C 248 132.347, 247.597 130.869, 247.104 130.564 C 246.611 130.260, 245.244 125.621, 244.066 120.255 C 242.888 114.890, 241.445 108.700, 240.860 106.500 C 240.275 104.300, 239.718 100.564, 239.624 98.199 C 239.344 91.225, 234.853 89.714, 232.332 95.747 C 230.843 99.311, 230.838 100.649, 232.264 112.459 C 232.445 113.966, 231.693 114.584, 229 115.140 C 219.612 117.077, 210.202 119.197, 207.500 119.984 C 205.850 120.464, 200.172 121.163, 194.883 121.538 C 185.718 122.186, 185.194 122.114, 183.723 120.015 C 182.356 118.063, 182.347 117.396, 183.641 114.156 C 186.435 107.162, 188.517 103.505, 191.393 100.542 C 192.984 98.902, 194.917 95.972, 195.688 94.030 C 197.275 90.034, 198.611 86.855, 200.537 82.500 C 201.266 80.850, 202.149 78.487, 202.499 77.250 C 202.849 76.013, 203.554 75, 204.067 75 C 204.580 75, 205 74.248, 205 73.329 C 205 71.896, 209.181 62.718, 211.982 58 C 214.051 54.516, 216 49.560, 216 47.781 C 216 46.729, 216.509 44.918, 217.130 43.757 C 219.138 40.005, 221.058 29.823, 220.409 26.365 C 219.802 23.133, 221.075 21.694, 222.500 24 C 222.840 24.550, 224.216 25, 225.559 25 C 226.902 25, 228 24.550, 228 24 C 228 23.444, 230.667 23, 234 23 C 239.628 23, 240 22.854, 240 20.655 C 240 19.365, 239.177 17.565, 238.171 16.655 C 236.263 14.928, 229.139 14.368, 227.450 15.812 M 210 27 C 210 28.534, 213.813 32, 215.500 32 C 217.294 32, 217.489 28.889, 215.800 27.200 C 214.349 25.749, 210 25.599, 210 27 M 118 28.163 C 108.394 30.902, 101.620 33.162, 97.762 34.913 C 95.418 35.978, 92.037 37.143, 90.250 37.504 C 88.463 37.864, 87 38.573, 87 39.079 C 87 39.586, 86.103 40, 85.007 40 C 81.981 40, 75 43.304, 75 44.736 C 75 45.634, 72.975 46, 68 46 C 63.126 46, 60.966 46.380, 60.889 47.250 C 60.657 49.869, 61.203 53.532, 61.940 54.304 C 63.084 55.502, 69.461 52.130, 70.552 49.750 C 71.909 46.790, 75.222 45.884, 78.489 47.579 C 81.929 49.363, 83.973 49.335, 86.441 47.468 C 87.509 46.661, 89.871 46, 91.691 46 C 94.495 46, 95.749 45.038, 94.750 43.654 C 94.050 42.684, 97.539 40, 99.500 40 C 100.740 40, 102.264 39.386, 102.887 38.636 C 104.165 37.096, 112 36.752, 112 38.235 C 112 38.764, 113.601 38.253, 115.557 37.099 C 120.183 34.370, 126.087 34.308, 127.750 36.972 C 129.170 39.245, 131.639 38.713, 132.517 35.945 C 134.244 30.504, 125.752 25.952, 118 28.163 M 197.039 30.547 C 197.746 31.398, 198.593 31.736, 198.923 31.297 C 199.253 30.859, 199.931 30.163, 200.428 29.750 C 200.926 29.337, 200.078 29, 198.544 29 C 196.140 29, 195.933 29.214, 197.039 30.547 M 85.500 45 C 85.160 45.550, 85.359 46, 85.941 46 C 86.523 46, 87 45.550, 87 45 C 87 44.450, 86.802 44, 86.559 44 C 86.316 44, 85.840 44.450, 85.500 45 M 63 50.059 C 63 50.641, 63.450 50.840, 64 50.500 C 64.550 50.160, 65 49.684, 65 49.441 C 65 49.198, 64.550 49, 64 49 C 63.450 49, 63 49.477, 63 50.059 M 94.638 50.500 C 94.322 51.325, 93.249 52, 92.254 52 C 91.259 52, 89.445 52.701, 88.223 53.557 C 86.430 54.812, 86 56.080, 86 60.106 C 86 62.852, 85.248 66.539, 84.330 68.300 C 83.411 70.060, 81.663 74.200, 80.446 77.500 C 79.228 80.800, 77.242 86.183, 76.032 89.463 C 74.822 92.743, 72.858 96.791, 71.666 98.459 C 68.661 102.667, 66 107.745, 66 109.275 C 66 109.981, 64.662 113.695, 63.027 117.529 C 61.392 121.363, 60.042 125.700, 60.027 127.167 C 60.012 128.633, 59.595 129.983, 59.100 130.167 C 58.606 130.350, 57.883 134.375, 57.494 139.112 C 56.824 147.265, 56.909 147.837, 59.082 149.862 C 60.344 151.038, 61.867 152, 62.465 152 C 63.064 152, 65.949 150.200, 68.877 148 C 71.805 145.800, 75.056 144, 76.100 144 C 77.145 144, 78 143.608, 78 143.128 C 78 142.456, 85.476 140.613, 86.760 140.968 C 87.563 141.190, 93 137.810, 93 137.089 C 93 136.617, 95.362 135.468, 98.250 134.536 C 101.138 133.605, 104.497 132.203, 105.715 131.421 C 106.933 130.640, 109.550 130, 111.531 130 C 114.870 130, 115.110 129.800, 114.816 127.250 C 114.516 124.639, 114.221 124.494, 109 124.377 C 105.975 124.309, 102.375 124.811, 101 125.493 C 99.625 126.175, 96.867 127.028, 94.872 127.389 C 92.876 127.750, 90.128 129.079, 88.764 130.343 C 85.241 133.608, 69.977 138.569, 68.862 136.812 C 67.537 134.724, 69.003 125.968, 71.631 120.266 C 72.958 117.387, 74.315 113.674, 74.647 112.016 C 74.979 110.357, 75.658 109, 76.156 109 C 76.655 109, 77.353 108.213, 77.708 107.250 C 78.063 106.287, 79.354 104.150, 80.578 102.500 C 83.705 98.284, 85.649 93.186, 86.507 86.950 C 87.153 82.251, 91.509 72.262, 94.094 69.550 C 94.592 69.027, 95.014 67.002, 95.032 65.050 C 95.049 63.097, 95.724 60.626, 96.532 59.559 C 98.465 57.003, 98.522 49, 96.607 49 C 95.841 49, 94.955 49.675, 94.638 50.500 M 119.538 98.938 C 118.292 100.955, 120.627 126.346, 122.441 130.500 C 123.162 132.150, 124.022 137.265, 124.353 141.867 C 124.887 149.277, 126.530 156.553, 127.996 158 C 128.275 158.275, 129.160 159.772, 129.962 161.327 C 132.011 165.298, 134.797 166.632, 136.819 164.610 C 138.266 163.163, 138.257 162.609, 136.722 158.262 C 135.796 155.643, 134.352 148.164, 133.512 141.643 C 132.672 135.121, 131.681 129.292, 131.308 128.690 C 130.936 128.087, 130.019 124.423, 129.270 120.547 C 128.522 116.671, 127.552 111.700, 127.115 109.500 C 125.387 100.806, 121.625 95.561, 119.538 98.938 M 209.501 134.999 C 208.184 136.454, 207.957 137.357, 208.717 138.117 C 210.559 139.959, 213.500 138.699, 213.500 136.070 C 213.500 132.908, 211.804 132.454, 209.501 134.999 M 127.079 137.583 C 127.127 138.748, 127.364 138.985, 127.683 138.188 C 127.972 137.466, 127.936 136.603, 127.604 136.271 C 127.272 135.939, 127.036 136.529, 127.079 137.583 M 203.772 143.750 C 202.679 144.993, 202.091 148.540, 201.741 156 C 201.137 168.842, 200.720 169.989, 196.643 170.035 C 194.914 170.055, 192.375 170.714, 191 171.500 C 189.625 172.286, 186.925 172.964, 185 173.006 C 183.075 173.048, 179.475 174.076, 177 175.291 C 173.456 177.031, 172.500 178.031, 172.500 180 C 172.500 182.296, 172.826 182.477, 176.500 182.222 C 179.488 182.014, 181.151 181.191, 183.073 178.972 C 185.783 175.842, 188.336 174.962, 187.365 177.492 C 186.414 179.970, 189.531 180.255, 193.621 178.063 C 195.738 176.928, 197.816 176, 198.238 176 C 199.425 176, 198.689 253.978, 197.500 254.113 C 196.950 254.176, 193.575 254.320, 190 254.434 C 180.252 254.743, 170.763 257.613, 174.566 259.102 C 176.032 259.676, 175.653 259.873, 173 259.914 C 170.468 259.954, 169.907 259.712, 170.971 259.039 C 173.663 257.337, 171.275 256.842, 159.663 256.696 C 149.740 256.572, 147.871 256.807, 146.109 258.402 C 144.587 259.778, 144.305 260.701, 145.004 262.008 C 146.151 264.151, 149.122 265.420, 149.930 264.113 C 150.848 262.628, 156 261.591, 156 262.892 C 156 263.501, 155.325 264, 154.500 264 C 153.667 264, 153 264.889, 153 266 C 153 269.158, 158.239 268.678, 161.186 265.250 C 165.229 260.546, 166.814 259.600, 168.419 260.933 C 170.380 262.560, 180.589 261.937, 180.237 260.211 C 180.043 259.259, 181.482 258.976, 185.737 259.130 C 195.172 259.471, 212.230 258.246, 212.888 257.181 C 213.506 256.181, 219.188 255.503, 224.250 255.825 C 226.451 255.965, 227 256.487, 227 258.441 C 227 261.331, 228.049 262.206, 230.039 260.976 C 231.189 260.265, 231.230 259.830, 230.242 258.842 C 228.108 256.708, 228.873 255.719, 232.250 256.244 C 234.037 256.522, 237.905 256.431, 240.845 256.042 C 244.811 255.517, 246.319 255.667, 246.685 256.622 C 247.052 257.577, 247.723 257.404, 249.278 255.955 C 251.743 253.659, 254.833 253.402, 255.612 255.430 C 255.913 256.217, 257.475 257.318, 259.081 257.879 C 262.887 259.205, 269 256.869, 269 254.088 C 269 251.651, 261.610 247.672, 258.763 248.575 C 257.642 248.931, 255.099 249.363, 253.112 249.534 C 251.125 249.706, 247.025 250.234, 244 250.707 C 240.975 251.181, 231.886 251.391, 223.802 251.174 L 209.104 250.780 208.802 246.640 C 208.636 244.363, 208.877 236.200, 209.337 228.500 C 209.947 218.301, 209.840 213.092, 208.943 209.316 C 207.973 205.232, 207.968 201.412, 208.917 191.316 C 210.643 172.960, 209.873 174.552, 217.724 173.116 C 221.451 172.434, 225.517 171.216, 226.760 170.409 C 228.555 169.243, 229.472 169.182, 231.212 170.114 C 232.845 170.987, 233.502 170.995, 233.785 170.145 C 234.029 169.414, 235.499 169.216, 237.864 169.594 C 241.089 170.110, 241.734 169.866, 242.899 167.688 C 245.412 162.994, 240.196 159.864, 234.424 162.603 C 232.549 163.493, 229.992 163.964, 228.741 163.650 C 227.490 163.336, 223.213 163.887, 219.236 164.876 C 215.259 165.864, 211.779 166.446, 211.503 166.170 C 211.226 165.893, 211 160.342, 211 153.833 L 211 142 208.155 142 C 206.590 142, 204.618 142.787, 203.772 143.750 M 93.689 146.701 C 92.260 147.071, 92.013 147.785, 92.519 150.085 C 93.057 152.535, 92.845 153, 91.189 153 C 89.738 153, 89.084 153.856, 88.708 156.250 C 88.427 158.037, 87.563 161.740, 86.789 164.477 C 85.779 168.047, 85.642 170.594, 86.305 173.489 C 86.850 175.872, 86.871 179.771, 86.355 183.011 C 85.501 188.374, 85.362 188.557, 80.121 191.205 C 75.280 193.650, 73.984 193.868, 66.766 193.445 C 62.369 193.188, 58.396 192.745, 57.937 192.461 C 56.126 191.342, 47.837 194.320, 46.319 196.635 C 44.920 198.772, 44.920 199.229, 46.328 201.377 C 48.796 205.145, 52.583 205.542, 57.160 202.513 C 59.311 201.089, 60.804 199.491, 60.477 198.962 C 60.150 198.433, 60.584 198, 61.441 198 C 62.298 198, 63 198.627, 63 199.394 C 63 200.509, 63.821 200.603, 67.111 199.864 C 69.985 199.218, 71.641 199.287, 72.611 200.092 C 74.111 201.337, 75.827 200.402, 79.203 196.500 C 80.210 195.337, 80.947 195.023, 80.967 195.750 C 80.985 196.438, 81.822 197, 82.827 197 C 84.529 197, 84.623 197.924, 84.199 210.450 C 83.830 221.329, 84.054 224.677, 85.371 227.970 C 87.065 232.202, 87.559 242.571, 86.172 244.756 C 85.733 245.447, 82.739 246.698, 79.517 247.538 C 75.819 248.501, 71.233 250.813, 67.080 253.810 C 56.103 261.730, 51.674 264.630, 47.750 266.470 C 41.670 269.320, 43.243 273.920, 50.390 274.188 C 53.086 274.290, 55.479 273.332, 59.756 270.441 C 66.965 265.568, 74.266 259.862, 75.256 258.328 C 75.671 257.684, 78.259 256.410, 81.006 255.498 C 84.688 254.275, 86 253.335, 86 251.920 C 86 249.549, 86.892 249.470, 88.519 251.695 C 89.613 253.191, 90.252 253.241, 93.977 252.125 C 97.284 251.134, 98.094 250.467, 97.721 249.041 C 96.992 246.254, 98.316 244.941, 102.894 243.912 C 105.711 243.280, 107.736 243.324, 109.089 244.047 C 110.552 244.831, 112.103 244.785, 114.799 243.879 C 116.835 243.194, 119.884 242.744, 121.576 242.879 C 125.245 243.170, 128.321 240.435, 125.964 238.978 C 124.801 238.259, 124.858 237.992, 126.291 237.442 C 127.245 237.076, 128.727 237.358, 129.583 238.069 C 133.229 241.095, 153 227.181, 153 221.589 C 153 218.132, 149.382 218.105, 146.125 221.538 C 143.027 224.804, 131.913 231, 129.154 231 C 127.969 231, 127 231.353, 127 231.784 C 127 233.596, 120.908 235.999, 116.346 235.988 C 113.651 235.982, 108.062 237.168, 103.755 238.660 C 99.495 240.135, 95.755 241.088, 95.444 240.777 C 94.448 239.781, 94.896 202.631, 95.947 199.078 C 96.668 196.640, 96.632 195.261, 95.822 194.285 C 94.967 193.255, 94.995 192.616, 95.938 191.708 C 96.923 190.758, 97.510 190.970, 98.686 192.702 C 99.763 194.289, 100.644 194.669, 101.840 194.063 C 103.454 193.245, 107.913 191.289, 113 189.168 C 114.375 188.595, 116.511 187.842, 117.748 187.496 C 120.423 186.747, 121.747 182.605, 119.989 180.487 C 118.428 178.606, 114.976 178.587, 111.331 180.438 C 104.426 183.946, 97.432 186.727, 96.662 186.270 C 95.698 185.698, 96.481 153.387, 97.523 150.750 C 98.284 148.822, 97.511 145.933, 96.281 146.116 C 95.852 146.180, 94.685 146.443, 93.689 146.701 M 122.166 239.876 C 121.092 240.557, 121.141 240.840, 122.416 241.329 C 123.418 241.714, 124 241.398, 124 240.469 C 124 238.769, 123.942 238.750, 122.166 239.876 M 234 260 C 234 260.550, 234.423 261, 234.941 261 C 235.459 261, 236.160 260.550, 236.500 260 C 236.840 259.450, 236.416 259, 235.559 259 C 234.702 259, 234 259.450, 234 260 M 170 264 C 170 264.550, 170.873 265, 171.941 265 C 173.009 265, 174.160 264.550, 174.500 264 C 174.851 263.433, 174.010 263, 172.559 263 C 171.152 263, 170 263.450, 170 264" stroke="none" fill="black" fill-rule="evenodd"/>
</svg>