<svg xmlns="http://www.w3.org/2000/svg" width="300" height="300" viewBox="0 0 300 300" version="1.1">
	<path d="M 112.494 42.009 C 112.152 42.564, 112.155 43.914, 112.503 45.009 C 113.130 46.986, 111.870 47.569, 108.106 47.042 C 105.720 46.707, 105.189 49.005, 105.754 57.239 C 106.102 62.321, 105.918 65.433, 105.244 65.849 C 104.664 66.208, 99.309 66.410, 93.345 66.298 C 84.850 66.140, 81.796 66.460, 79.250 67.775 C 75.527 69.699, 75.327 70.614, 77.944 73.750 C 79.620 75.760, 80.728 76, 88.327 76 C 93.005 76, 96.983 75.662, 97.167 75.250 C 97.655 74.151, 104.926 70.593, 105.504 71.170 C 106.462 72.129, 110 87.368, 110 90.538 C 110 92.308, 110.700 95.431, 111.556 97.479 C 113.390 101.868, 113.117 107.015, 111 107.988 C 103.387 111.486, 103.527 111.330, 102.874 117.033 C 102.286 122.157, 100.158 129.942, 98.099 134.500 C 97.602 135.600, 96.207 139.425, 95 143 C 93.793 146.575, 92.426 150.400, 91.964 151.500 C 91.501 152.600, 90.103 156.650, 88.856 160.500 C 87.610 164.350, 86.010 168.625, 85.301 170 C 83.740 173.028, 83.650 175.250, 85.033 176.633 C 85.601 177.201, 85.734 178.528, 85.329 179.583 C 84.661 181.320, 84.535 181.266, 83.978 179 L 83.364 176.500 81.701 179.664 C 78.969 184.860, 78.412 193.370, 80.501 198.003 C 82.091 201.528, 85.327 204.006, 86.633 202.700 C 86.899 202.434, 87.328 198.932, 87.586 194.917 C 88.094 187.017, 90.588 177, 92.046 177 C 92.840 177, 97 169.051, 97 167.534 C 97 167.217, 98.407 163.930, 100.126 160.229 C 104.307 151.229, 104.704 150.228, 106.168 145 C 108.087 138.146, 111.226 135.780, 112.368 140.329 C 113.177 143.552, 117.344 145.272, 125 145.542 C 133.443 145.839, 141.177 147.022, 142.744 148.255 C 143.519 148.865, 146.534 148.921, 150.744 148.403 C 155.581 147.808, 156.577 147.473, 154.250 147.223 C 152.463 147.031, 151 146.443, 151 145.918 C 151 145.392, 152.076 145.232, 153.391 145.562 C 154.706 145.892, 156.082 145.676, 156.450 145.081 C 156.817 144.486, 158.195 144, 159.512 144 C 160.829 144, 163.010 143.497, 164.359 142.882 C 166.364 141.969, 167.272 142.105, 169.336 143.632 C 170.724 144.660, 172.075 146.287, 172.336 147.250 C 172.634 148.344, 173.784 149, 175.406 149 C 178.888 149, 178.742 147.031, 175.250 146.884 C 173.558 146.813, 173.173 146.592, 174.250 146.311 C 175.213 146.059, 176 145.436, 176 144.927 C 176 143.550, 180.239 143.865, 182.250 145.392 C 183.213 146.123, 184 147.683, 184 148.860 C 184 151.568, 186.651 151.674, 187.500 149 C 187.849 147.900, 188.442 146.971, 188.817 146.936 C 189.193 146.901, 191.070 146.720, 192.988 146.534 C 194.907 146.347, 197.759 146.858, 199.327 147.669 C 201.864 148.981, 202.551 148.966, 205.571 147.533 C 209.827 145.514, 210.295 145.531, 210.717 147.723 C 212.131 155.058, 212.963 162.444, 212.980 167.803 C 212.991 171.269, 213.632 177.119, 214.404 180.803 C 215.177 184.486, 216.333 191.266, 216.974 195.868 C 218.363 205.841, 219.437 209, 221.440 209 C 224.898 209, 225.246 205.427, 224.592 176.601 C 224.241 161.146, 223.547 146.747, 223.049 144.604 C 222.055 140.322, 220.307 138.636, 218 139.735 C 216.253 140.567, 179.553 140.585, 170 139.758 C 166.425 139.449, 162.228 138.869, 160.673 138.470 C 158.937 138.024, 156.924 138.238, 155.457 139.023 C 153.759 139.932, 152.697 139.995, 151.784 139.243 C 151.078 138.661, 146.466 137.883, 141.535 137.513 C 136.605 137.143, 131.880 136.488, 131.035 136.056 C 130.191 135.625, 127.025 135.030, 124 134.734 C 120.975 134.438, 116.995 133.364, 115.156 132.348 L 111.812 130.500 112.303 122.122 C 112.834 113.067, 113.970 111.165, 117.410 113.575 C 122.124 116.876, 125.486 113.160, 123.151 107.231 C 122.560 105.729, 121.591 101.125, 120.998 97 C 117.571 73.169, 117.502 74, 122.907 74 C 124.938 74, 127.028 73.601, 127.550 73.112 C 128.944 71.810, 133.362 70.605, 132.676 71.714 C 132.361 72.225, 132.985 73.399, 134.063 74.322 C 136.072 76.042, 138.994 76.591, 139.008 75.250 C 139.012 74.838, 140.157 73.970, 141.552 73.323 C 143.848 72.258, 144.030 72.329, 143.477 74.073 C 143.003 75.565, 143.347 76, 145.002 76 C 146.633 76, 147.063 75.480, 146.820 73.803 C 146.530 71.810, 145.314 71.401, 133.735 69.404 C 126.714 68.193, 120.389 66.979, 119.679 66.707 C 118.383 66.210, 116 51.912, 116 44.637 C 116 41.077, 113.998 39.576, 112.494 42.009 M 208.337 45.931 C 200.748 47.171, 199.371 50.224, 200.786 62.673 C 201.717 70.868, 200.956 74, 198.032 74 C 196.915 74, 196 74.450, 196 75 C 196 75.604, 191.746 76.002, 185.250 76.006 C 172.755 76.012, 167 77.238, 167 79.892 C 167 81.792, 169.402 84.309, 172.134 85.272 C 173.032 85.589, 176.999 85.348, 180.949 84.736 C 187.033 83.794, 188.437 83.194, 190.134 80.812 C 191.235 79.266, 192.556 78, 193.068 78 C 194.492 78, 194.178 80.996, 192.750 81.030 C 192.063 81.047, 192.340 81.549, 193.366 82.145 C 194.895 83.033, 195.689 82.737, 197.758 80.506 L 200.283 77.782 201.626 81.641 C 202.365 83.763, 202.977 87.075, 202.985 89 C 202.993 90.926, 203.667 95.651, 204.483 99.500 C 205.298 103.350, 205.973 108.551, 205.983 111.059 C 206.002 116.163, 207.918 119.629, 210.229 118.742 C 212.341 117.932, 212.907 113.604, 212.939 98.053 C 212.959 87.941, 213.310 84.262, 214.354 83.217 C 215.195 82.377, 218.930 81.610, 223.818 81.275 C 229.191 80.907, 232.063 80.277, 232.403 79.393 C 233.218 77.268, 231.097 76.621, 221.867 76.179 L 213.201 75.765 212.529 70.382 C 211.795 64.511, 212.687 54.583, 214.210 51.657 C 215.215 49.727, 214.493 44.909, 213.231 45.125 C 212.829 45.194, 210.626 45.557, 208.337 45.931 M 107.500 71 C 107.160 71.550, 107.610 72, 108.500 72 C 109.390 72, 109.840 71.550, 109.500 71 C 109.160 70.450, 108.710 70, 108.500 70 C 108.290 70, 107.840 70.450, 107.500 71 M 152.607 73.582 C 151.749 75.817, 151.817 76, 153.500 76 C 154.325 76, 155 75.550, 155 75 C 155 74.450, 155.648 74, 156.441 74 C 157.234 74, 158.160 73.550, 158.500 73 C 158.859 72.420, 157.879 72, 156.166 72 C 154.397 72, 152.971 72.634, 152.607 73.582 M 206 80.833 C 206 83.125, 206.422 85, 206.937 85 C 207.456 85, 207.616 83.327, 207.296 81.250 C 206.494 76.057, 206 75.898, 206 80.833 M 182.813 80.683 C 183.534 80.972, 184.397 80.936, 184.729 80.604 C 185.061 80.272, 184.471 80.036, 183.417 80.079 C 182.252 80.127, 182.015 80.364, 182.813 80.683 M 134 141.427 C 134 142.211, 133.213 143.059, 132.250 143.311 C 130.638 143.732, 130.643 143.777, 132.316 143.884 C 134.801 144.043, 138.188 142.114, 137.469 140.950 C 136.559 139.478, 134 139.830, 134 141.427 M 126 142 C 126 142.550, 126.927 143, 128.059 143 C 129.191 143, 129.840 142.550, 129.500 142 C 129.160 141.450, 128.234 141, 127.441 141 C 126.648 141, 126 141.450, 126 142 M 138.500 145 C 138.840 145.550, 139.766 146, 140.559 146 C 141.352 146, 142 145.550, 142 145 C 142 144.450, 141.073 144, 139.941 144 C 138.809 144, 138.160 144.450, 138.500 145 M 145.543 144.931 C 145.226 145.443, 145.425 146.144, 145.984 146.490 C 146.543 146.835, 147 146.416, 147 145.559 C 147 143.802, 146.400 143.544, 145.543 144.931 M 216 156.441 C 216 157.234, 216.450 158.160, 217 158.500 C 217.550 158.840, 218 158.191, 218 157.059 C 218 155.927, 217.550 155, 217 155 C 216.450 155, 216 155.648, 216 156.441 M 152.152 169.848 C 151.068 170.932, 149.369 171.975, 148.375 172.166 C 145.991 172.625, 142.772 179.046, 139.685 189.500 C 138.103 194.858, 134.674 203.719, 132.397 208.331 C 131.629 209.888, 131 212.235, 131 213.547 C 131 214.859, 130.379 217.410, 129.620 219.216 C 127.799 223.549, 126 229.338, 126 230.863 C 126 231.535, 125.557 232.628, 125.015 233.292 C 120.203 239.193, 119 240.989, 119 242.272 C 119 243.088, 118.292 244.343, 117.427 245.061 C 116.562 245.779, 114.934 248.196, 113.810 250.433 C 112.687 252.670, 111.166 255.187, 110.431 256.026 C 108.224 258.547, 99 277.125, 99 279.049 C 99 285.160, 102.928 285.658, 106.500 280 C 107.889 277.800, 109.421 276, 109.904 276 C 110.388 276, 111.045 274.958, 111.364 273.684 C 111.684 272.411, 112.858 270.317, 113.973 269.031 C 115.088 267.746, 116 266.069, 116 265.304 C 116 263.626, 123.876 253, 125.120 253 C 125.604 253, 126 252.178, 126 251.174 C 126 250.170, 127.125 248.292, 128.500 247 C 129.875 245.708, 131 244.250, 131 243.759 C 131 243.268, 132.071 241.434, 133.380 239.683 C 134.688 237.932, 136.321 234.700, 137.007 232.500 C 137.694 230.300, 138.648 227.466, 139.128 226.203 C 139.608 224.940, 140 222.832, 140 221.520 C 140 220.017, 140.736 218.901, 141.991 218.503 C 144.795 217.613, 146.158 218.762, 145.959 221.849 C 145.676 226.241, 145.906 226.997, 148.250 229.355 C 149.488 230.600, 151.815 233.392, 153.423 235.559 C 155.030 237.727, 158.293 241.405, 160.673 243.733 C 163.053 246.061, 165 248.649, 165 249.483 C 165 250.317, 165.591 251, 166.313 251 C 167.035 251, 168.919 252.350, 170.500 254 C 172.081 255.650, 173.965 257, 174.687 257 C 175.409 257, 176 257.413, 176 257.917 C 176 258.422, 178.813 260.670, 182.250 262.913 C 185.688 265.156, 189.044 267.443, 189.708 267.995 C 190.372 268.548, 191.399 269, 191.989 269 C 192.580 269, 193.322 269.675, 193.638 270.500 C 193.955 271.325, 194.756 272, 195.418 272 C 196.081 272, 197.589 272.900, 198.770 274 C 199.950 275.100, 201.408 276, 202.008 276 C 203.317 276, 209.293 278.984, 210 279.991 C 211.128 281.599, 223.338 284.995, 227.754 284.930 C 233.936 284.838, 236.712 283.820, 234.847 282.329 C 233.417 281.185, 227.908 279.930, 224.385 279.946 C 223.221 279.951, 221.464 279.065, 220.480 277.978 C 219.495 276.890, 217.665 276, 216.412 276 C 215.116 276, 213.894 275.241, 213.576 274.240 C 213.095 272.725, 206.453 269, 204.234 269 C 203.820 269, 202.919 268.100, 202.232 267 C 201.545 265.900, 200.424 264.995, 199.742 264.989 C 199.059 264.983, 196.700 263.268, 194.500 261.177 C 192.300 259.086, 187.909 255.834, 184.742 253.949 C 181.575 252.065, 178.732 249.730, 178.424 248.761 C 178.117 247.793, 177.446 247, 176.933 247 C 176.420 247, 176 246.325, 176 245.500 C 176 244.675, 175.428 244, 174.729 244 C 174.030 244, 171.217 241.461, 168.479 238.358 C 165.740 235.254, 162.484 231.630, 161.242 230.304 C 157.612 226.428, 151 217.406, 151 216.328 C 151 215.355, 148.300 213.763, 144.644 212.581 C 143.186 212.110, 142.935 211.396, 143.473 209.251 C 143.850 207.749, 144.512 206.291, 144.945 206.010 C 145.377 205.730, 146.080 204.375, 146.508 203 C 146.936 201.625, 148.122 199.772, 149.143 198.883 C 150.164 197.993, 151 196.188, 151 194.871 C 151 191.594, 155.788 176.749, 157.108 175.933 C 157.695 175.570, 158.248 173.750, 158.338 171.887 C 158.471 169.103, 158.110 168.445, 156.311 168.189 C 155.108 168.017, 153.236 168.764, 152.152 169.848 M 218 181 C 218 181.550, 218.477 182, 219.059 182 C 219.641 182, 219.840 181.550, 219.500 181 C 219.160 180.450, 218.684 180, 218.441 180 C 218.198 180, 218 180.450, 218 181 M 137.667 203.667 C 137.300 204.033, 137 204.798, 137 205.367 C 137 205.993, 137.466 205.934, 138.183 205.217 C 138.834 204.566, 139.134 203.801, 138.850 203.517 C 138.566 203.232, 138.033 203.300, 137.667 203.667 M 148 225.500 C 148 226.325, 148.675 227, 149.500 227 C 150.325 227, 151 226.325, 151 225.500 C 151 224.675, 150.325 224, 149.500 224 C 148.675 224, 148 224.675, 148 225.500 M 177.070 254.061 C 177.221 257.142, 178.483 258.938, 179.888 258.069 C 181.018 257.371, 180.879 256.787, 179.138 254.917 C 177.717 253.393, 177.024 253.105, 177.070 254.061 M 182.500 259 C 182.840 259.550, 183.568 260, 184.118 260 C 184.668 260, 184.840 259.550, 184.500 259 C 184.160 258.450, 183.432 258, 182.882 258 C 182.332 258, 182.160 258.450, 182.500 259" stroke="none" fill="black" fill-rule="evenodd"/>
</svg>