<svg xmlns="http://www.w3.org/2000/svg" width="300" height="300" viewBox="0 0 300 300" version="1.1">
	<path d="M 201.427 36.435 C 201.073 37.846, 200.146 39, 199.367 39 C 197.309 39, 196 43.284, 196 50.018 C 196 59.720, 195.178 60.639, 185.766 61.460 C 176.638 62.256, 173 63.561, 173 66.038 C 173 68.520, 174.894 69.693, 180 70.374 C 182.475 70.705, 183.938 70.718, 183.250 70.404 C 182.563 70.090, 182 69.421, 182 68.917 C 182 67.645, 185.735 67.762, 186.536 69.059 C 186.896 69.642, 188.161 70.042, 189.346 69.948 C 194.940 69.508, 195.062 70.117, 191.563 81 C 189.373 87.814, 188.085 90.974, 181.829 104.894 C 180.743 107.311, 179.212 109.931, 178.427 110.716 C 176.357 112.786, 176.574 117.002, 178.750 116.993 C 181.090 116.984, 184.217 112.193, 188.565 101.959 C 190.541 97.306, 192.750 92.150, 193.474 90.500 C 194.197 88.850, 195.079 85.925, 195.433 84 C 196.569 77.829, 198.273 71.525, 199.040 70.657 C 199.450 70.194, 200.640 70.272, 201.685 70.832 C 203.250 71.669, 203.930 71.336, 205.537 68.944 C 207.650 65.801, 209.155 65.050, 218.909 62.270 C 225.527 60.384, 227.777 58.467, 226.691 55.636 C 225.841 53.421, 218.016 53.447, 211.773 55.684 C 209.173 56.616, 206.788 57.121, 206.472 56.806 C 205.903 56.237, 205.731 41.786, 206.236 37 C 206.439 35.080, 205.986 34.427, 204.285 34.185 C 202.614 33.947, 201.913 34.500, 201.427 36.435 M 107.472 43.396 C 105.720 44.678, 105.663 45.233, 106.786 50.146 C 109.089 60.227, 110.111 69.925, 109.073 71.864 C 108.348 73.217, 106.445 73.878, 101.896 74.353 C 95.727 74.998, 93 76.230, 93 78.372 C 93 79.072, 90.924 79.500, 87.536 79.500 C 80.709 79.500, 78.468 81.304, 79.494 85.973 C 80.119 88.819, 80.482 89.096, 82.813 88.511 C 84.253 88.149, 87.246 87.038, 89.465 86.040 C 91.684 85.043, 95.060 83.893, 96.967 83.486 C 98.874 83.079, 101.237 82.245, 102.217 81.632 C 103.547 80.802, 104.504 80.834, 105.986 81.759 C 107.079 82.442, 108.807 83, 109.826 83 C 113.156 83, 114.847 90.137, 114.980 104.750 C 114.993 106.277, 115.603 107, 116.878 107 C 119.549 107, 120.711 108.815, 121.520 114.250 C 122.614 121.601, 126.932 120.281, 126.986 112.579 C 126.994 111.522, 127.768 109.809, 128.706 108.773 C 130.201 107.121, 130.238 106.617, 129.006 104.694 C 128.233 103.487, 127.295 100.250, 126.920 97.500 C 126.546 94.750, 125.702 89.856, 125.046 86.624 C 124.167 82.301, 124.147 80.453, 124.968 79.632 C 126.281 78.319, 127.708 80.058, 128.554 84 C 128.849 85.375, 129.593 88.300, 130.206 90.500 C 131.249 94.242, 131.366 94.339, 132.007 92 C 132.384 90.625, 132.471 87.994, 132.200 86.154 C 131.789 83.361, 132.185 82.418, 134.604 80.440 C 136.197 79.138, 138.701 78.056, 140.169 78.036 C 141.637 78.016, 144.112 77.353, 145.669 76.563 C 151.012 73.851, 158.872 71, 161.005 71 C 162.646 71, 163.065 70.480, 162.820 68.750 C 162.532 66.727, 161.865 66.470, 156.204 66.201 C 151.699 65.987, 148.191 66.512, 143.869 68.046 C 139.947 69.439, 136.705 69.980, 134.620 69.588 C 131.787 69.057, 131.215 68.370, 129.757 63.743 C 128.061 58.365, 126.715 50.209, 126.878 46.300 C 126.928 45.089, 126.530 43.827, 125.993 43.495 C 124.273 42.433, 122.500 44.410, 122.500 47.391 C 122.500 51.340, 119.443 53.254, 117.441 50.559 C 116.649 49.491, 116 47.669, 116 46.509 C 116 42.267, 111.342 40.567, 107.472 43.396 M 198.922 49.177 C 198.402 57.993, 198.488 58.500, 200.500 58.500 C 202.233 58.500, 202.500 57.833, 202.500 53.514 C 202.500 49.560, 202.138 48.458, 200.750 48.190 C 199.787 48.005, 198.965 48.449, 198.922 49.177 M 120.425 59.335 C 119.701 61.222, 123.218 70.239, 124.897 70.799 C 126.027 71.176, 126.163 70.285, 125.610 66.120 C 125.235 63.291, 124.671 60.306, 124.357 59.488 C 123.647 57.638, 121.114 57.539, 120.425 59.335 M 95.250 77.667 C 93.067 78.540, 93.902 80, 96.583 80 C 98.133 80, 99.008 79.525, 98.771 78.813 C 98.302 77.406, 96.979 76.975, 95.250 77.667 M 74.250 83.662 C 73.563 83.940, 73 85.062, 73 86.157 C 73 88.952, 76.407 88.134, 76.820 85.240 C 77.138 83.011, 76.633 82.701, 74.250 83.662 M 119.011 94 C 118.993 94.825, 118.699 97.188, 118.358 99.250 C 117.626 103.678, 118.909 104.116, 121.208 100.225 C 122.749 97.617, 122.733 97.300, 120.946 94.975 C 119.667 93.311, 119.034 92.991, 119.011 94 M 131.032 99.668 C 130.992 103.591, 131.919 106.168, 133.105 105.435 C 134.489 104.580, 134.163 100.598, 132.532 98.441 C 131.141 96.602, 131.062 96.666, 131.032 99.668 M 139.570 135.204 C 138.257 137.079, 138.228 137.712, 139.378 139.454 C 142.200 143.725, 145.861 144.796, 159.500 145.339 C 174.843 145.950, 179.500 144.940, 179.500 141 C 179.500 138.665, 179.137 138.485, 174 138.265 C 163.630 137.822, 149.499 135.839, 146.596 134.420 C 142.641 132.486, 141.375 132.627, 139.570 135.204 M 206.604 156.831 C 206.322 157.288, 202.808 158.234, 198.795 158.933 C 188.603 160.708, 185.663 161.889, 187.106 163.628 C 188.009 164.716, 187.812 165, 186.154 165 C 184.637 165, 184.234 164.555, 184.684 163.380 C 185.212 162.005, 184.716 161.846, 181.403 162.324 C 175.136 163.228, 170.611 164.105, 169 164.729 C 168.175 165.049, 165.477 165.478, 163.004 165.683 C 160.530 165.888, 156.930 166.465, 155.004 166.965 C 153.077 167.465, 147.225 168.189, 142 168.574 C 136.775 168.958, 130.698 169.809, 128.496 170.465 C 125.393 171.388, 123.142 171.387, 118.496 170.457 C 112.480 169.254, 110 169.444, 110 171.107 C 110 171.598, 109.395 172, 108.655 172 C 107.915 172, 106.483 172.914, 105.472 174.031 C 103.828 175.847, 103.795 176.223, 105.151 177.580 C 106.276 178.705, 109.104 179.123, 116.084 179.198 C 126.110 179.305, 126.500 179.266, 146.500 176.129 C 153.650 175.007, 164.537 173.339, 170.693 172.422 C 177.639 171.387, 182.572 170.136, 183.693 169.123 C 185.815 167.208, 190 167.506, 190 169.573 C 190 172.002, 184.434 180.100, 181.899 181.357 C 180.580 182.012, 178.600 184.223, 177.500 186.271 C 176.400 188.319, 174.989 189.996, 174.365 189.997 C 173.741 189.999, 172.538 191.056, 171.692 192.347 C 170.847 193.637, 168.796 195.256, 167.134 195.944 C 165.405 196.661, 163.982 198.072, 163.807 199.246 C 163.638 200.373, 162.670 201.792, 161.656 202.398 C 160.642 203.004, 157.943 205.188, 155.657 207.250 C 153.371 209.313, 150.554 211, 149.396 211 C 148.239 211, 146.186 212.025, 144.834 213.278 C 143.482 214.531, 140.459 216.188, 138.116 216.962 C 135.773 217.735, 132.876 219.402, 131.678 220.667 C 130.480 221.931, 128.575 222.973, 127.444 222.983 C 126.314 222.992, 123.864 224.125, 122 225.500 C 120.136 226.875, 117.862 228, 116.947 228 C 116.031 228, 112.631 229.344, 109.391 230.987 C 106.151 232.630, 103.025 233.980, 102.444 233.987 C 101.864 233.994, 99.884 235.110, 98.045 236.467 C 96.206 237.824, 94.350 238.716, 93.920 238.450 C 93.490 238.185, 88.304 239.325, 82.396 240.984 C 76.487 242.643, 69.594 244.007, 67.077 244.015 C 62.479 244.029, 54.604 246.254, 52.258 248.201 C 50.626 249.555, 50.706 252.029, 52.457 254.339 C 53.729 256.018, 54.334 256.069, 59.438 254.926 C 63.489 254.020, 65.641 253.970, 67.263 254.745 C 68.493 255.333, 71.750 256.385, 74.500 257.083 C 77.250 257.781, 79.725 258.649, 80 259.011 C 80.275 259.374, 82.300 260.168, 84.500 260.775 C 91.718 262.769, 98.451 265.080, 101.331 266.553 C 102.888 267.349, 105.369 268, 106.845 268 C 108.321 268, 111.997 268.946, 115.014 270.102 C 123.610 273.395, 135.641 275.438, 139.036 274.182 C 140.766 273.542, 139.651 273.095, 133.871 272.107 C 122.555 270.173, 115.672 268.314, 110.764 265.866 C 109.809 265.390, 108.234 264.986, 107.264 264.970 C 105.635 264.942, 105.642 264.856, 107.359 263.859 C 108.726 263.065, 109.918 263.119, 111.859 264.064 C 113.312 264.771, 114.925 265.241, 115.445 265.110 C 116.317 264.889, 118.813 265.856, 123.295 268.153 C 124.283 268.660, 126.645 268.782, 128.545 268.426 C 130.563 268.047, 132 268.182, 132 268.751 C 132 269.287, 134.437 270.011, 137.415 270.361 C 140.393 270.711, 143.543 271.271, 144.415 271.606 C 146.722 272.491, 146.360 274.327, 144 273.710 C 142.900 273.423, 142 273.539, 142 273.969 C 142 274.398, 143.238 275.022, 144.750 275.355 C 146.262 275.688, 150.650 276.676, 154.500 277.550 C 158.350 278.425, 164.200 279.575, 167.500 280.106 C 170.800 280.637, 175.750 281.463, 178.500 281.941 C 181.250 282.420, 188.225 283.521, 194 284.389 C 199.775 285.256, 205.625 286.181, 207 286.443 C 208.375 286.706, 208.938 286.676, 208.250 286.377 C 207.563 286.078, 207 285.227, 207 284.486 C 207 283.745, 206.213 282.946, 205.250 282.709 C 204.287 282.473, 205.007 282.470, 206.848 282.703 C 209.048 282.982, 209.971 282.763, 209.539 282.064 C 209.125 281.393, 210.104 281.006, 212.191 281.015 C 214.695 281.027, 215.135 281.266, 214 282 C 212.870 282.730, 213.343 282.973, 215.917 282.985 C 217.796 282.993, 218.995 283.337, 218.582 283.750 C 218.168 284.163, 216.406 284.500, 214.665 284.500 C 212.924 284.500, 211.387 284.950, 211.248 285.500 C 210.880 286.965, 244.906 287.323, 246.654 285.872 C 247.659 285.038, 248 285.069, 248 285.993 C 248 286.909, 249.493 287.060, 253.750 286.572 C 261.782 285.653, 269.959 284.085, 273.500 282.786 C 280.299 280.291, 287.734 269.794, 285.019 266.523 C 283.261 264.404, 282.096 264.620, 281.090 267.250 C 277.645 276.257, 261.137 279.354, 221 278.523 C 203.352 278.158, 199.082 277.684, 185.500 274.583 C 178.991 273.096, 157.004 268.673, 147 266.837 C 143.975 266.282, 139.030 265.660, 136.010 265.456 C 129.445 265.012, 121.692 263.243, 118.105 261.372 C 116.672 260.624, 114.768 260.010, 113.873 260.006 C 110.879 259.995, 94.080 254.223, 92.530 252.673 C 91.688 251.831, 91 250.933, 91 250.676 C 91 250.150, 98.193 248.984, 102 248.893 C 104.796 248.826, 108 246.398, 108 244.345 C 108 242.799, 106.063 242.685, 100.750 243.919 C 98.562 244.427, 97 244.417, 97 243.895 C 97 243.403, 97.381 243, 97.847 243 C 98.313 243, 99.739 242.094, 101.016 240.986 C 102.367 239.814, 104.088 239.210, 105.131 239.542 C 106.117 239.855, 107.815 239.634, 108.903 239.052 C 110.500 238.197, 111.159 238.390, 112.320 240.047 C 113.705 242.023, 113.784 241.967, 114.425 238.550 C 115.180 234.522, 115.040 234.605, 118.449 236.159 C 120.533 237.108, 121.320 237.020, 122.812 235.671 C 123.812 234.765, 126.030 233.744, 127.740 233.402 C 129.450 233.060, 132.515 231.255, 134.550 229.390 C 136.586 227.526, 138.609 226, 139.046 226 C 139.483 226, 142.961 224.415, 146.775 222.477 C 153.063 219.283, 164.516 210.177, 167.807 205.756 C 168.525 204.790, 169.693 204, 170.402 204 C 172.321 204, 175 200.639, 175 198.230 C 175 195.427, 176.470 194.652, 178.903 196.172 C 181.773 197.964, 185.378 194.639, 184.628 190.891 C 183.983 187.667, 184.821 186.607, 186.748 188.206 C 187.907 189.168, 188.733 188.737, 191.079 185.947 C 192.674 184.051, 194.546 181.849, 195.239 181.054 C 195.933 180.259, 197.400 178.157, 198.500 176.383 C 199.600 174.609, 202.864 171.283, 205.753 168.992 C 211.116 164.738, 212.692 161.755, 211.523 158.072 C 210.875 156.032, 207.608 155.208, 206.604 156.831 M 177.154 165.438 C 177.345 166.355, 177.950 167.082, 178.500 167.053 C 179.984 166.974, 179.712 164.737, 178.154 164.218 C 177.313 163.938, 176.939 164.395, 177.154 165.438 M 169 168 C 167.781 168.788, 167.910 168.972, 169.691 168.985 C 170.896 168.993, 172.160 168.550, 172.500 168 C 173.287 166.727, 170.970 166.727, 169 168 M 151.690 170.436 C 149.422 172.156, 150.999 173.289, 154.454 172.422 C 157.344 171.697, 157.753 170.503, 155.418 169.607 C 153.496 168.869, 153.864 168.787, 151.690 170.436 M 141.500 171.923 L 138.500 172.610 141.697 173.124 C 143.456 173.407, 144.690 173.308, 144.441 172.904 C 144.192 172.501, 144.553 171.943, 145.244 171.664 C 146.972 170.968, 145.113 171.096, 141.500 171.923 M 132.667 173.667 C 131.087 175.246, 132.120 176.700, 134.500 176.245 C 137.370 175.696, 137.924 173, 135.167 173 C 134.158 173, 133.033 173.300, 132.667 173.667 M 82.500 244 C 82.160 244.550, 82.359 245, 82.941 245 C 83.523 245, 84 244.550, 84 244 C 84 243.450, 83.802 243, 83.559 243 C 83.316 243, 82.840 243.450, 82.500 244 M 79.211 256.117 C 79.467 256.878, 80.537 257.527, 81.588 257.559 C 82.640 257.592, 84.767 258.154, 86.315 258.809 C 89.615 260.205, 90.005 260.252, 89.985 259.250 C 89.944 257.244, 88.076 256.132, 83.622 255.465 C 79.690 254.876, 78.835 255.003, 79.211 256.117 M 95.250 258.723 C 91.503 259.188, 90.821 261, 94.393 261 C 95.709 261, 97.045 261.675, 97.362 262.500 C 98.100 264.424, 100.616 264.442, 101.351 262.529 C 101.795 261.372, 99.423 257.493, 98.679 258.160 C 98.580 258.248, 97.037 258.502, 95.250 258.723 M 150 272.996 C 150 274.209, 152.805 275.529, 153.629 274.705 C 153.927 274.406, 153.233 273.660, 152.086 273.046 C 150.639 272.272, 150 272.257, 150 272.996 M 173 278 C 173 278.550, 173.675 279, 174.500 279 C 175.325 279, 176 278.550, 176 278 C 176 277.450, 175.325 277, 174.500 277 C 173.675 277, 173 277.450, 173 278 M 187 281 C 187 281.550, 187.927 282, 189.059 282 C 190.191 282, 190.840 281.550, 190.500 281 C 190.160 280.450, 189.234 280, 188.441 280 C 187.648 280, 187 280.450, 187 281 M 247.813 283.683 C 248.534 283.972, 249.397 283.936, 249.729 283.604 C 250.061 283.272, 249.471 283.036, 248.417 283.079 C 247.252 283.127, 247.015 283.364, 247.813 283.683" stroke="none" fill="black" fill-rule="evenodd"/>
</svg>