<svg xmlns="http://www.w3.org/2000/svg" width="300" height="300" viewBox="0 0 300 300" version="1.1">
	<path d="M 182.848 26.809 C 180.783 28.922, 178.963 33.186, 175.560 43.882 C 173.168 51.401, 171.477 54.524, 163.174 66.765 C 161.894 68.651, 160.665 71.141, 160.443 72.297 C 160.220 73.453, 159.354 74.782, 158.519 75.249 C 157.684 75.717, 157 77.141, 157 78.415 C 157 79.688, 156.213 81.807, 155.250 83.122 C 149.223 91.360, 144.578 106, 147.992 106 C 150.518 106, 152.304 104.233, 154.526 99.537 C 155.887 96.660, 157 93.788, 157 93.154 C 157 91.246, 160.428 91.855, 161.768 94 C 162.455 95.100, 162.611 96, 162.115 96 C 161.620 96, 160.985 96.596, 160.706 97.325 C 160.391 98.145, 161.943 99.573, 164.782 101.075 C 167.304 102.409, 170.141 104.175, 171.088 105 C 172.035 105.825, 173.977 107.309, 175.405 108.297 C 178.940 110.744, 178.640 112.744, 173.973 117.836 C 171.788 120.220, 169.998 122.470, 169.995 122.836 C 169.993 123.201, 168.643 124.938, 166.995 126.696 C 165.348 128.453, 164 130.078, 164 130.306 C 164 130.534, 162.425 132.390, 160.500 134.431 C 158.575 136.472, 157 138.560, 157 139.071 C 157 139.582, 156.573 140, 156.052 140 C 154.626 140, 150.793 143.925, 147.035 149.234 C 144.372 152.996, 142.945 154.083, 140.092 154.526 C 138.116 154.833, 135.302 155.271, 133.837 155.499 C 132.373 155.728, 130.719 155.366, 130.162 154.695 C 129.605 154.024, 128.423 146.281, 127.535 137.488 C 126.647 128.694, 125.507 119.408, 125.001 116.851 C 124.496 114.295, 123.577 107.095, 122.959 100.851 C 122.341 94.608, 121.407 88.432, 120.883 87.126 C 120.012 84.956, 119.524 84.805, 115.215 85.377 C 110.651 85.981, 92.677 84.710, 87.529 83.418 C 86.091 83.057, 85 82.065, 85 81.119 C 85 78.083, 91.233 71.787, 96.580 69.422 C 100.412 67.727, 104.852 64.018, 113.394 55.372 C 125.866 42.748, 126.796 40.877, 123.020 36 C 121.469 33.998, 120.740 33.712, 119.359 34.567 C 116.185 36.530, 115.305 38.972, 117.250 40.419 C 119.614 42.178, 119.497 45, 117.059 45 C 115.991 45, 114.840 44.550, 114.500 44 C 113.059 41.669, 110.731 43.434, 106.258 50.250 C 103.641 54.237, 100.695 58.100, 99.710 58.834 C 98.726 59.568, 96.748 61.256, 95.314 62.584 C 93.881 63.913, 91.670 65, 90.401 65 C 86.591 65, 83.225 67.068, 80.400 71.144 C 78.930 73.265, 77.166 75, 76.479 75 C 75.792 75, 74.600 76.013, 73.829 77.250 C 72.044 80.116, 72.179 116.686, 74.062 140.532 C 74.764 149.412, 75.058 157.407, 74.716 158.297 C 74.197 159.649, 72.980 159.824, 67.348 159.358 C 63.638 159.051, 59.628 158.429, 58.438 157.976 C 55.953 157.032, 48.786 157.673, 44.750 159.201 C 42.870 159.913, 42 160.957, 42 162.499 C 42 166.225, 44.236 167.157, 52.688 166.955 C 67.194 166.609, 73.754 166.998, 74.771 168.264 C 75.318 168.944, 76.507 174, 77.414 179.500 C 78.320 185, 79.499 191.750, 80.034 194.500 C 80.681 197.835, 80.623 205.826, 79.858 218.500 C 79.228 228.950, 78.731 238.539, 78.754 239.808 C 78.805 242.649, 81.692 246, 84.088 246 C 87.194 246, 87.694 242.377, 88.505 214 C 88.795 203.825, 89.378 195.383, 89.799 195.239 C 90.221 195.095, 93.026 197.278, 96.033 200.090 C 99.040 202.901, 103.075 206.276, 105 207.590 C 106.925 208.904, 109.447 210.670, 110.604 211.514 C 112.992 213.257, 116 212.550, 116 210.246 C 116 209.398, 112.175 204.897, 107.500 200.243 C 102.048 194.816, 99 191.004, 99 189.613 C 99 188.421, 98.263 186.392, 97.361 185.106 C 95.934 183.068, 95.162 182.843, 91.375 183.362 C 86.395 184.045, 86.208 183.732, 85.756 174 L 85.500 168.500 90.500 168.282 C 99.525 167.888, 115.012 165.790, 115.571 164.886 C 115.872 164.399, 116.943 164, 117.951 164 C 120.134 164, 120.488 165.272, 121.982 178.500 C 122.603 184, 123.521 189.850, 124.020 191.500 C 124.939 194.533, 127.081 206.432, 129.511 222 C 130.241 226.675, 131.324 232.924, 131.919 235.886 C 132.513 238.849, 133 242.112, 133 243.136 C 133 245.359, 130.183 245.640, 129.362 243.500 C 129.045 242.675, 128.159 242, 127.393 242 C 125.603 242, 125.587 245.958, 127.365 248.527 C 128.116 249.612, 129.054 251.535, 129.449 252.801 C 129.844 254.067, 131.367 256.395, 132.834 257.974 C 134.300 259.554, 136.327 262.030, 137.338 263.477 C 141.649 269.650, 143.363 263.161, 141.823 246.500 C 141.213 239.900, 140.665 232.292, 140.607 229.593 L 140.500 224.686 145.500 222.920 C 148.250 221.949, 152.161 221.120, 154.191 221.078 C 156.221 221.035, 158.160 220.550, 158.500 220 C 158.840 219.450, 161.229 218.993, 163.809 218.985 C 166.389 218.977, 170.300 218.347, 172.500 217.585 C 174.700 216.822, 179.473 215.883, 183.107 215.498 C 189.466 214.824, 189.737 214.886, 190.343 217.149 C 190.689 218.442, 190.979 226.082, 190.986 234.128 C 190.997 245.898, 191.293 248.998, 192.500 250 C 194.422 251.595, 194.422 253, 192.500 253 C 190.855 253, 190.803 253.501, 190.984 267.500 C 191.073 274.323, 191.594 277.528, 193.140 280.750 C 194.261 283.087, 195.588 285.067, 196.089 285.150 C 196.590 285.233, 197.528 285.345, 198.173 285.400 C 199.331 285.499, 200.181 257.517, 199.918 227.914 C 199.803 214.888, 200.607 213.012, 206.321 212.985 C 210.870 212.963, 212.466 211.739, 211.150 209.280 C 210.004 207.139, 211.278 205, 213.700 205 C 215.362 205, 215.402 207.671, 213.750 208.338 C 212.750 208.741, 212.750 208.858, 213.750 208.921 C 214.438 208.964, 215 209.675, 215 210.500 C 215 213.597, 235.283 211.678, 238.984 208.230 C 240.287 207.016, 242.199 205.754, 243.234 205.426 C 246.061 204.528, 245.243 199.605, 242.195 199.173 C 240.927 198.994, 239.287 199.347, 238.550 199.959 C 235.725 202.303, 215.224 204.810, 205.500 204 L 199.500 203.500 199.187 199.142 C 198.844 194.356, 201.041 188.582, 203.577 187.609 C 204.450 187.274, 206.857 187, 208.927 187 C 211.390 187, 213.301 186.325, 214.457 185.047 C 215.725 183.647, 217.014 183.253, 219.020 183.654 C 221.163 184.083, 222.071 183.737, 222.908 182.172 C 224.540 179.123, 224.238 177.198, 221.934 175.965 C 220.302 175.091, 218.360 175.373, 212.684 177.305 C 208.733 178.649, 203.869 180.041, 201.876 180.397 L 198.251 181.043 197.009 173.056 C 196.325 168.663, 196.052 163.928, 196.402 162.534 C 196.963 160.301, 197.599 159.981, 201.769 159.842 C 204.371 159.754, 207.400 159.779, 208.500 159.896 C 209.600 160.013, 212.188 159.562, 214.250 158.894 C 218.496 157.519, 219.105 155.310, 216.010 152.509 C 214.278 150.942, 212.733 150.779, 204.101 151.255 C 192.370 151.901, 193.350 153.161, 192.350 136.141 C 191.779 126.418, 191.382 124.501, 189.591 122.827 C 188.338 121.655, 186.588 121.043, 185.225 121.301 C 183.302 121.666, 183.049 121.405, 183.588 119.616 C 184.916 115.204, 187.611 115.027, 193.500 118.965 C 195.150 120.068, 197.400 121.540, 198.500 122.236 C 199.600 122.931, 200.747 123.831, 201.050 124.235 C 201.352 124.639, 203.040 125.258, 204.800 125.610 C 207.350 126.120, 208 125.920, 208 124.625 C 208 123.712, 207.191 123, 206.155 123 C 205.140 123, 203.519 122.126, 202.551 121.057 C 201.584 119.988, 199.377 118.802, 197.646 118.422 C 195.916 118.042, 193.892 116.863, 193.149 115.803 C 192.406 114.742, 190.656 113.440, 189.260 112.909 C 187.865 112.378, 186.915 111.752, 187.150 111.517 C 187.653 111.014, 193.563 113.036, 196.684 114.780 C 197.886 115.451, 199.461 116.018, 200.184 116.040 C 202.211 116.101, 211.699 125.244, 210.250 125.739 C 207.982 126.515, 208.948 128.786, 211.997 129.849 C 213.646 130.424, 216.501 132.043, 218.342 133.447 C 220.183 134.851, 222.328 136, 223.109 136 C 223.890 136, 226.209 136.900, 228.261 138 C 230.314 139.100, 232.462 140, 233.036 140 C 233.610 140, 236.418 141.575, 239.276 143.500 C 242.135 145.425, 245.147 147, 245.970 147 C 246.793 147, 250.174 148.312, 253.484 149.916 C 266.063 156.012, 269.188 157.089, 270.689 155.843 C 273.463 153.541, 271.625 150.899, 264.500 146.948 C 260.650 144.814, 256.510 143.052, 255.300 143.034 C 254.090 143.015, 252.740 142.438, 252.300 141.750 C 251.860 141.063, 249.475 139.421, 247 138.101 C 244.525 136.782, 241.825 135.203, 241 134.593 C 240.175 133.982, 237.700 132.658, 235.500 131.651 C 233.300 130.643, 230.375 129.200, 229 128.443 C 225.976 126.778, 219.069 123.369, 217 122.520 C 211.998 120.468, 195.210 108.973, 194.491 107.109 C 193.879 105.521, 195.396 103.015, 200.005 98 C 204.471 93.142, 211 84.289, 211 83.092 C 211 82.546, 211.563 81.740, 212.250 81.300 C 216.101 78.836, 223.359 64.278, 222.481 60.779 C 221.613 57.320, 219.360 56.318, 208.371 54.505 C 202.942 53.609, 197.150 52.492, 195.500 52.022 C 193.850 51.553, 190.813 50.885, 188.750 50.539 C 185.693 50.026, 185 49.487, 185 47.621 C 185 46.363, 185.281 45.052, 185.624 44.709 C 186.994 43.339, 190.748 30.505, 190.205 29.052 C 189.524 27.234, 186.932 25.052, 185.500 25.091 C 184.950 25.106, 183.756 25.880, 182.848 26.809 M 190.269 54.693 C 191.242 54.947, 192.592 54.930, 193.269 54.656 C 193.946 54.382, 193.150 54.175, 191.500 54.195 C 189.850 54.215, 189.296 54.439, 190.269 54.693 M 178 58.489 C 178 59.436, 176.868 61.626, 175.485 63.356 C 171.748 68.028, 171.589 68.268, 170.264 71.250 C 169.593 72.763, 168.639 74, 168.145 74 C 167.220 74, 163 83.003, 163 84.974 C 163 88.015, 181.408 102.965, 185.182 102.989 C 186.704 102.999, 191 98.200, 191 96.490 C 191 96.104, 192.065 94.950, 193.367 93.926 C 195.769 92.037, 201.588 82.799, 206.392 73.250 C 207.845 70.362, 209.506 68, 210.083 68 C 210.661 68, 210.990 66.763, 210.816 65.250 C 210.521 62.683, 210.034 62.417, 203.500 61.257 C 199.650 60.573, 193.575 59.590, 190 59.072 C 186.425 58.554, 182.262 57.824, 180.750 57.449 C 178.551 56.903, 178 57.112, 178 58.489 M 81.503 85.991 C 81.155 87.086, 81.117 88.381, 81.418 88.868 C 81.719 89.355, 82.166 100.496, 82.411 113.627 C 82.827 135.953, 83.499 149.405, 84.552 156.500 L 84.997 159.500 97.749 159.383 C 106.564 159.302, 111.735 158.792, 114.500 157.731 C 118.392 156.237, 118.508 156.054, 118.807 150.947 C 118.977 148.060, 118.618 141.828, 118.010 137.099 C 117.401 132.370, 116.500 124.675, 116.006 120 C 114.330 104.121, 113.001 95.601, 112.053 94.653 C 111.116 93.716, 105.222 93.373, 97.500 93.804 C 87.047 94.388, 85 93.775, 85 90.063 C 85 84.545, 82.782 81.962, 81.503 85.991 M 176.733 105.124 C 177.412 105.808, 178.219 106.115, 178.526 105.807 C 178.834 105.499, 178.279 104.940, 177.293 104.564 C 175.868 104.022, 175.753 104.136, 176.733 105.124 M 90.358 115.509 C 89.522 117.688, 96.013 125.931, 98.595 125.969 C 99.747 125.986, 101.505 126.900, 102.500 128 C 104.761 130.498, 108.089 130.559, 111.056 128.156 C 113.988 125.782, 113.105 123.471, 108.948 122.640 C 107.175 122.285, 104.723 120.915, 103.500 119.594 C 98.986 114.723, 91.547 112.411, 90.358 115.509 M 76.683 115.650 C 76.308 116.026, 76 117.646, 76 119.250 C 76 122.718, 78.322 122.559, 78.835 119.056 C 79.189 116.638, 77.836 114.497, 76.683 115.650 M 174.667 121.667 C 173.452 122.881, 173.976 123.947, 175.500 123.362 C 176.325 123.045, 177 122.384, 177 121.893 C 177 120.845, 175.622 120.711, 174.667 121.667 M 176.552 126.838 C 176.231 127.848, 174.583 130.211, 172.889 132.088 C 171.196 133.964, 169.065 136.414, 168.155 137.531 C 167.245 138.647, 164.789 140.856, 162.699 142.438 C 160.608 144.021, 157.297 147.727, 155.341 150.674 C 153.385 153.621, 150.284 157.269, 148.450 158.781 C 145.325 161.357, 144.670 161.496, 137.990 160.999 C 134.070 160.708, 130.669 160.664, 130.432 160.902 C 129.617 161.716, 130 173.027, 130.901 174.764 C 131.396 175.719, 132.314 180.550, 132.940 185.500 C 135.252 203.774, 136.529 210.939, 137.677 212.083 C 138.578 212.979, 142.527 212.862, 154.461 211.583 C 163.044 210.664, 170.668 209.681, 171.402 209.399 C 172.175 209.103, 172.963 209.751, 173.274 210.938 C 173.963 213.573, 176.595 214.581, 178.550 212.958 C 179.871 211.862, 179.643 211.483, 176.839 210.125 L 173.603 208.558 178.052 207.237 C 181.229 206.294, 182.999 206.215, 184.245 206.963 C 187.198 208.736, 190 204.951, 190 199.191 C 190 190.923, 189.361 190.615, 175.967 192.404 C 169.660 193.247, 162.999 194.380, 161.164 194.923 C 156.342 196.349, 152.150 193.379, 153.612 189.570 C 154.523 187.195, 159.840 185.930, 173.500 184.838 C 187.657 183.706, 189.675 182.783, 188.448 178 C 188.095 176.625, 187.427 172.865, 186.964 169.644 C 186.501 166.424, 185.894 163.561, 185.616 163.283 C 185.338 163.004, 181.245 163.352, 176.521 164.054 C 169.980 165.028, 167.654 165.054, 166.766 164.166 C 166.125 163.525, 164.370 163, 162.867 163 C 161.017 163, 159.931 162.357, 159.503 161.009 C 158.646 158.310, 159.811 156.717, 162.186 157.338 C 163.380 157.651, 164.792 157.098, 165.796 155.926 C 167.177 154.313, 168.789 154, 175.722 154 C 181.624 154, 184.029 153.641, 184.101 152.750 C 184.371 149.419, 183.657 143.665, 181.914 135.140 C 180.861 129.992, 180 125.604, 180 125.390 C 180 124.079, 177.031 125.325, 176.552 126.838 M 184.150 126.950 C 184.580 128.239, 185.951 128.471, 186.075 127.275 C 186.116 126.876, 185.610 126.370, 184.950 126.150 C 184.290 125.930, 183.930 126.290, 184.150 126.950 M 218 128.883 C 218 129.369, 218.900 130.002, 220 130.290 C 222.362 130.907, 222.714 129.488, 220.418 128.607 C 218.319 127.801, 218 127.838, 218 128.883 M 163.729 133.604 C 163.328 134.005, 163 135.023, 163 135.867 C 163 136.992, 163.296 137.104, 164.113 136.288 C 164.724 135.676, 165.053 134.657, 164.842 134.025 C 164.631 133.393, 164.130 133.203, 163.729 133.604 M 109.813 160.683 C 110.534 160.972, 111.397 160.936, 111.729 160.604 C 112.061 160.272, 111.471 160.036, 110.417 160.079 C 109.252 160.127, 109.015 160.364, 109.813 160.683 M 170.750 160.662 C 171.438 160.940, 172.563 160.940, 173.250 160.662 C 173.938 160.385, 173.375 160.158, 172 160.158 C 170.625 160.158, 170.063 160.385, 170.750 160.662 M 68 162.500 C 68 163.325, 68.730 164, 69.622 164 C 70.951 164, 71.020 163.729, 70 162.500 C 69.315 161.675, 68.585 161, 68.378 161 C 68.170 161, 68 161.675, 68 162.500 M 125 182.382 C 125 183.757, 125.450 185.160, 126 185.500 C 126.565 185.849, 127 185.030, 127 183.618 C 127 182.243, 126.550 180.840, 126 180.500 C 125.435 180.151, 125 180.970, 125 182.382 M 179.813 187.683 C 180.534 187.972, 181.397 187.936, 181.729 187.604 C 182.061 187.272, 181.471 187.036, 180.417 187.079 C 179.252 187.127, 179.015 187.364, 179.813 187.683 M 165.554 212.913 C 165.184 213.511, 164.035 214, 163 214 C 161.965 214, 160.822 214.479, 160.461 215.064 C 160.013 215.788, 161.031 215.905, 163.652 215.431 C 168.257 214.598, 168.694 214.294, 167.296 212.896 C 166.536 212.136, 166.031 212.140, 165.554 212.913" stroke="none" fill="black" fill-rule="evenodd"/>
</svg>