<svg xmlns="http://www.w3.org/2000/svg" width="300" height="300" viewBox="0 0 300 300" version="1.1">
	<path d="M 121.454 14.260 C 121.188 14.952, 121.390 17.764, 121.903 20.509 C 122.415 23.253, 122.658 25.675, 122.442 25.891 C 122.227 26.107, 121.105 25.207, 119.949 23.892 L 117.848 21.500 118.520 24 C 118.890 25.375, 119.356 29.467, 119.556 33.093 C 119.756 36.719, 120.335 41.534, 120.842 43.794 C 122.070 49.260, 120.232 51, 113.230 51 C 107.578 51, 106.500 51.872, 107.454 55.672 C 108.021 57.931, 108.465 58.157, 111.248 57.600 C 112.982 57.254, 114.648 56.634, 114.950 56.223 C 115.253 55.811, 116.649 55.421, 118.054 55.356 C 120.547 55.239, 120.612 55.405, 120.808 62.368 C 121.160 74.864, 122.097 80.352, 124.291 82.750 C 127.216 85.948, 131.588 85.696, 130.324 82.402 C 130.028 81.631, 128.822 80.964, 127.643 80.921 C 126.464 80.878, 125.988 80.640, 126.585 80.393 C 127.309 80.093, 127.515 76.472, 127.204 69.482 C 126.902 62.696, 127.124 58.555, 127.835 57.699 C 128.438 56.972, 131.085 56.239, 133.716 56.070 C 147.964 55.155, 163.253 51.389, 164.352 48.524 C 165.415 45.755, 165.566 45.755, 145.500 48.552 C 139.450 49.395, 133.150 49.953, 131.500 49.792 C 128.773 49.527, 128.438 49.090, 127.824 45 C 127.452 42.525, 127.115 34.586, 127.074 27.357 C 127.012 16.340, 126.744 14.116, 125.418 13.607 C 123.038 12.694, 121.988 12.867, 121.454 14.260 M 204.250 14.099 C 201.873 14.983, 201.179 18.375, 203.128 19.579 C 203.899 20.056, 203.737 20.567, 202.619 21.193 C 200.712 22.261, 198.325 27.588, 196.896 33.966 C 195.684 39.373, 194.878 39.965, 188.700 39.985 C 182.370 40.005, 178 42.268, 178 45.526 C 178 48.424, 178.676 48.603, 181.153 46.362 C 182.647 45.009, 183.233 44.948, 184.515 46.013 C 185.785 47.066, 186.564 47.055, 188.784 45.948 C 190.278 45.203, 191.764 44.479, 192.088 44.338 C 192.411 44.198, 192.748 45.926, 192.836 48.178 C 193.006 52.529, 188.229 67.803, 184.970 73.327 C 182.982 76.695, 179.794 89.857, 180.635 91.219 C 181.815 93.128, 184.227 91.690, 185.614 88.250 C 186.445 86.188, 189.301 80, 191.961 74.500 C 194.620 69, 197.121 63.375, 197.517 62 C 198.303 59.275, 200.860 53.166, 204.302 45.789 L 206.500 41.078 211.872 41.039 C 216.736 41.004, 217.116 41.155, 215.886 42.637 C 214.433 44.388, 214.714 44.382, 225 42.431 C 230.958 41.302, 236.663 34.143, 232.750 32.708 C 232.063 32.456, 230.039 33.130, 228.253 34.205 C 223.617 36.996, 206.350 38.077, 205.413 35.635 C 204.650 33.645, 206.861 21.204, 208.116 20.429 C 209.461 19.597, 209.171 14.279, 207.750 13.738 C 207.063 13.477, 205.488 13.639, 204.250 14.099 M 99.180 57.172 C 99.652 60.373, 102 60.716, 102 57.583 C 102 55.903, 101.451 55, 100.430 55 C 99.388 55, 98.968 55.729, 99.180 57.172 M 194.559 93.532 C 193.491 94.339, 191.602 95, 190.360 95 C 189.119 95, 184.593 96.088, 180.302 97.417 C 176.011 98.746, 169.575 100.124, 166 100.479 C 159.073 101.167, 148.986 103.171, 140 105.644 C 129.696 108.480, 119.676 109.976, 118.350 108.875 C 117.668 108.310, 116.073 107.994, 114.805 108.173 C 112.641 108.480, 112.515 108.893, 112.750 114.897 C 112.888 118.415, 112.591 121.790, 112.090 122.397 C 111.589 123.004, 110.862 125.300, 110.476 127.500 C 110.089 129.700, 108.640 135.775, 107.256 141 C 105.872 146.225, 104.146 152.975, 103.419 156 C 102.692 159.025, 101.460 163.525, 100.680 166 C 97.810 175.121, 94.788 189.006, 95.354 190.481 C 96.251 192.818, 100.371 192.348, 101.513 189.779 C 102.116 188.421, 103.760 187.305, 105.744 186.907 C 107.528 186.548, 109.553 185.799, 110.244 185.241 C 110.935 184.683, 113.466 183.902, 115.869 183.505 C 119.290 182.940, 120.142 183.073, 119.795 184.114 C 119.551 184.846, 118.260 185.750, 116.926 186.123 C 114.662 186.755, 114.701 186.805, 117.500 186.869 C 119.150 186.907, 122.750 185.831, 125.500 184.478 C 128.250 183.125, 131.232 182.014, 132.128 182.009 C 133.023 182.004, 134.264 181.387, 134.886 180.637 C 135.508 179.888, 138.988 178.970, 142.619 178.598 C 148.630 177.982, 153.167 175.834, 151.653 174.320 C 150.934 173.601, 155.371 170, 156.975 170 C 157.680 170, 157.886 170.785, 157.500 172 C 156.772 174.294, 158.824 174.700, 162.151 172.919 C 164.760 171.523, 164.917 171.738, 165.951 178.124 C 166.978 184.472, 166.084 185.940, 162.587 183.649 C 161.203 182.742, 159.868 182, 159.620 182 C 159.007 182, 151.858 191.687, 150 195.035 C 149.175 196.521, 147.515 199.484, 146.311 201.619 C 143.798 206.072, 126.647 226.858, 123.892 228.788 C 122.880 229.497, 117.778 235.122, 112.554 241.288 C 102.039 253.699, 84.509 271.128, 78.647 275 C 71.677 279.604, 69 282.163, 69 284.221 C 69 286.030, 69.462 286.201, 73.038 285.722 C 75.259 285.424, 78.225 284.352, 79.630 283.340 C 81.035 282.328, 83.526 280.753, 85.167 279.840 C 86.807 278.927, 89.803 276.567, 91.825 274.596 C 105.136 261.618, 108.343 258.356, 115.622 250.390 C 120.089 245.500, 125.558 239.385, 127.775 236.801 C 129.993 234.216, 133.876 230.003, 136.404 227.439 C 138.932 224.874, 141 222.443, 141 222.036 C 141 221.629, 143.363 218.702, 146.250 215.532 C 149.137 212.361, 152.850 207.352, 154.500 204.400 C 157.667 198.735, 165.008 189, 166.114 189 C 167.551 189, 167.850 193.746, 166.894 201.371 C 166.199 206.915, 166.218 211.431, 166.956 215.951 C 167.977 222.209, 167.852 235.832, 166.744 239 C 165.633 242.178, 164 253.963, 164 258.806 C 164 261.598, 163.594 264.133, 163.098 264.439 C 162.602 264.746, 160.622 263.422, 158.698 261.498 C 154.872 257.672, 152.512 257.029, 152.279 259.750 C 152.196 260.712, 151.860 262.625, 151.532 264 C 151.052 266.013, 151.888 267.566, 155.828 271.977 C 160.254 276.933, 161.111 277.455, 164.832 277.455 C 167.095 277.455, 169.462 276.938, 170.094 276.306 C 170.784 275.616, 171.371 270.560, 171.564 263.651 C 171.741 257.323, 172.332 249.525, 172.878 246.323 C 174.745 235.368, 174.944 228.474, 174.169 201.500 C 173.430 175.756, 173.483 174.399, 175.302 172.324 C 176.351 171.127, 176.942 169.716, 176.616 169.188 C 176.290 168.660, 177.030 167.957, 178.261 167.627 C 181.560 166.743, 182.704 166.899, 181 168 C 179.862 168.736, 180.284 168.973, 182.750 168.985 C 186.406 169.002, 186.812 168.314, 184.252 166.442 C 183.290 165.739, 182.864 164.802, 183.306 164.361 C 183.747 163.919, 184.484 164.165, 184.943 164.907 C 185.401 165.649, 186.196 165.997, 186.710 165.679 C 187.223 165.362, 188.386 165.970, 189.294 167.030 C 191.142 169.189, 193.427 168.784, 196.342 165.782 C 198.658 163.398, 202.627 163.755, 202.193 166.308 C 201.885 168.118, 202.811 168.177, 214.171 167.066 C 214.539 167.030, 215.142 165.632, 215.509 163.959 C 216.499 159.453, 214.585 157.679, 209.556 158.443 C 207.325 158.782, 201.442 159.424, 196.483 159.870 C 191.523 160.316, 186.530 161.181, 185.386 161.793 C 183.846 162.618, 183.007 162.607, 182.153 161.753 C 181.281 160.881, 180.113 160.919, 177.376 161.909 C 174.354 163.001, 173.610 162.993, 172.892 161.859 C 172.053 160.536, 171.740 150.429, 171.992 132.845 C 172.060 128.074, 171.672 123.916, 171.127 123.579 C 170.583 123.242, 169.018 124.005, 167.649 125.274 C 165.263 127.486, 165.143 128.177, 164.739 142.040 C 164.508 149.993, 164.668 157.466, 165.095 158.647 C 166.298 161.971, 164.073 163.956, 157.479 165.437 C 154.191 166.176, 147.736 168.180, 143.136 169.890 C 138.535 171.601, 133.891 173, 132.814 173 C 131.737 173, 128.976 174.083, 126.678 175.406 C 124.380 176.729, 119.125 178.788, 115 179.982 C 110.875 181.177, 106.712 182.397, 105.750 182.693 C 103.588 183.360, 103.524 181.936, 105.451 176 C 107.139 170.801, 110.435 157.619, 112.576 147.500 C 113.390 143.650, 114.534 139.378, 115.117 138.008 C 115.701 136.637, 116.614 131.252, 117.147 126.040 C 118.214 115.614, 119.094 113.734, 122.507 114.591 C 123.760 114.905, 126.071 114.505, 127.642 113.702 C 129.550 112.727, 131.252 112.524, 132.760 113.092 C 134.123 113.605, 136.107 113.514, 137.760 112.862 C 139.267 112.268, 142.075 111.640, 144 111.468 C 148.127 111.098, 160.292 108.802, 160.971 108.264 C 161.230 108.059, 160.780 107.473, 159.971 106.961 C 158.855 106.255, 159.164 106.027, 161.250 106.015 C 162.762 106.007, 164 106.497, 164 107.105 C 164 107.833, 165.451 108.004, 168.250 107.608 C 170.588 107.276, 173.400 107, 174.500 106.994 C 175.600 106.987, 177.512 106.536, 178.750 105.991 C 184.065 103.650, 185.708 103.110, 189.331 102.512 C 191.648 102.129, 194.597 100.564, 196.794 98.550 C 199.937 95.670, 200.247 95.003, 199.091 93.610 C 197.473 91.660, 197.043 91.653, 194.559 93.532 M 167.500 106 C 167.160 106.550, 167.332 107, 167.882 107 C 168.432 107, 169.160 106.550, 169.500 106 C 169.840 105.450, 169.668 105, 169.118 105 C 168.568 105, 167.840 105.450, 167.500 106 M 154.813 107.683 C 155.534 107.972, 156.397 107.936, 156.729 107.604 C 157.061 107.272, 156.471 107.036, 155.417 107.079 C 154.252 107.127, 154.015 107.364, 154.813 107.683 M 165.039 115.928 C 163.844 118.161, 164.532 120.607, 166.577 121.391 C 168.721 122.214, 170.603 121.166, 171.834 118.464 C 172.764 116.424, 172.637 115.876, 171.036 115.019 C 168.168 113.484, 166.186 113.785, 165.039 115.928 M 103 168 C 103 168.550, 103.477 169, 104.059 169 C 104.641 169, 104.840 168.550, 104.500 168 C 104.160 167.450, 103.684 167, 103.441 167 C 103.198 167, 103 167.450, 103 168 M 145.008 173.975 C 143.866 174.696, 143.792 175.192, 144.691 176.091 C 146.103 177.503, 149.330 176.491, 148.771 174.812 C 148.225 173.176, 146.782 172.855, 145.008 173.975 M 135.813 177.683 C 136.534 177.972, 137.397 177.936, 137.729 177.604 C 138.061 177.272, 137.471 177.036, 136.417 177.079 C 135.252 177.127, 135.015 177.364, 135.813 177.683 M 150.183 202.217 C 148.783 203.617, 148.638 205, 149.893 205 C 150.809 205, 152.318 201.984, 151.707 201.374 C 151.520 201.186, 150.834 201.566, 150.183 202.217 M 144.604 251.548 C 146.093 253.499, 148.183 255.563, 149.250 256.134 C 150.971 257.055, 151.113 256.908, 150.514 254.836 C 149.707 252.047, 145.492 248, 143.393 248 C 142.294 248, 142.615 248.939, 144.604 251.548" stroke="none" fill="black" fill-rule="evenodd"/>
</svg>