<svg xmlns="http://www.w3.org/2000/svg" width="300" height="300" viewBox="0 0 300 300" version="1.1">
	<path d="M 107.601 15.888 C 105.580 18.121, 105.529 19.164, 106.953 29 C 107.551 33.125, 108.007 38.525, 107.967 41 C 107.928 43.475, 108.194 46.957, 108.559 48.738 C 109.099 51.367, 108.873 52.087, 107.362 52.561 C 106.338 52.883, 104.719 53.563, 103.764 54.073 C 101.452 55.307, 95.713 55.243, 86.549 53.880 C 80.064 52.915, 78.678 52.981, 76.584 54.353 C 73.694 56.246, 72.354 59.754, 73.921 61.321 C 75.574 62.974, 97.078 62.273, 98.887 60.508 C 99.973 59.448, 100.691 59.409, 102.198 60.327 C 103.766 61.283, 104.362 61.177, 105.421 59.750 C 106.136 58.788, 107.206 58, 107.799 58 C 109.381 58, 110.352 66.260, 109.694 74.116 C 108.927 83.263, 109.725 87.778, 112.251 88.580 C 113.414 88.949, 114.577 88.684, 115.032 87.947 C 115.884 86.570, 117.931 70.539, 118.282 62.500 L 118.500 57.500 124.500 55.309 C 129.288 53.561, 132.772 53.107, 141.750 53.059 C 154.744 52.991, 156.522 51.590, 147.241 48.732 C 140.205 46.564, 132.681 46.495, 126.876 48.545 C 119.863 51.021, 118.402 50.123, 117.644 42.870 C 117.290 39.480, 117 33.048, 117 28.576 C 117 22.579, 116.556 19.796, 115.308 17.973 C 112.236 13.483, 110.261 12.949, 107.601 15.888 M 184.756 16.232 C 184.530 16.910, 183.162 17.367, 181.715 17.247 C 178.640 16.993, 178.027 19.008, 177.699 30.438 L 177.500 37.376 174.057 38.267 C 172.163 38.757, 169.700 39.797, 168.584 40.579 C 167.468 41.360, 165.193 42.014, 163.527 42.032 C 161.862 42.049, 159.637 42.717, 158.582 43.515 C 156.958 44.744, 156.840 45.352, 157.810 47.483 C 159.083 50.275, 162 50.909, 162 48.393 C 162 47.375, 162.550 46.997, 163.500 47.362 C 164.325 47.678, 165 47.471, 165 46.901 C 165 46.308, 165.886 46.146, 167.072 46.523 C 168.387 46.940, 169.834 46.556, 171.034 45.469 C 173.949 42.831, 176.358 44.297, 175.623 48.262 C 175.293 50.043, 174.729 58.723, 174.370 67.552 C 173.682 84.473, 174.285 88, 177.866 88 C 179.709 88, 181.885 84.672, 181.790 82 C 181.674 78.752, 182.966 67.383, 183.942 63.063 C 184.508 60.553, 185.236 55.912, 185.558 52.750 C 185.880 49.587, 186.562 47, 187.072 47 C 187.582 47, 188 46.325, 188 45.500 C 188 44.514, 188.986 44, 190.878 44 C 192.460 44, 194.315 43.325, 195 42.500 C 195.685 41.675, 197.090 41, 198.122 41 C 199.155 41, 200 41.675, 200 42.500 C 200 44.792, 212.811 44.657, 213.694 42.355 C 214.656 39.849, 211.273 38.009, 205.559 37.930 C 202.776 37.891, 199.600 37.502, 198.500 37.064 C 197.400 36.627, 195.458 36.659, 194.185 37.135 C 192.773 37.662, 191.114 37.596, 189.935 36.965 C 188.276 36.077, 188.002 34.828, 188.015 28.215 C 188.024 23.972, 188.448 19.840, 188.958 19.034 C 189.546 18.104, 189.496 17.097, 188.820 16.284 C 187.468 14.655, 185.291 14.627, 184.756 16.232 M 134 50 C 133.099 50.582, 132.975 50.975, 133.691 50.985 C 134.346 50.993, 135.160 50.550, 135.500 50 C 136.267 48.758, 135.921 48.758, 134 50 M 110.500 56 C 110.160 56.550, 110.359 57, 110.941 57 C 111.523 57, 112 56.550, 112 56 C 112 55.450, 111.802 55, 111.559 55 C 111.316 55, 110.840 55.450, 110.500 56 M 142.674 107.163 C 141.752 107.678, 136.387 108.022, 130.749 107.926 C 119.038 107.727, 109.577 108.925, 106.129 111.043 C 104.826 111.845, 101.727 114.365, 99.245 116.645 C 95.432 120.145, 94.832 121.195, 95.384 123.395 C 95.932 125.578, 96.603 126, 99.519 126 C 101.687 126, 103 125.515, 103 124.716 C 103 124.009, 104.352 122.633, 106.004 121.657 C 108.385 120.250, 108.887 119.398, 108.423 117.550 C 107.696 114.652, 109.840 113.060, 111.469 115.289 C 113.057 117.461, 118.775 116.499, 121.062 113.675 C 122.867 111.445, 123.156 111.419, 137 112.235 C 139.475 112.381, 142.175 112.939, 143 113.475 C 144.346 114.351, 152.927 115.702, 161.767 116.432 C 163.564 116.580, 165.327 116.993, 165.684 117.351 C 167.037 118.704, 168.213 117.921, 167.710 116 C 167.293 114.404, 167.680 114, 169.625 114 C 173.179 114, 173.490 116.264, 170.571 120.887 C 169.157 123.127, 168 125.554, 168 126.280 C 168 127.006, 167.442 128.158, 166.760 128.840 C 166.079 129.521, 165.001 132.199, 164.367 134.790 C 163.732 137.380, 162.152 142.532, 160.856 146.239 C 158.700 152.406, 158.220 153.031, 155.194 153.610 C 146.411 155.292, 140.746 151.540, 134.645 140 C 130.810 132.745, 128.217 131.357, 126.054 135.400 C 124.272 138.730, 125.227 145.227, 127.890 147.890 C 129.051 149.051, 130.365 150, 130.810 150 C 131.256 150, 133.062 151.409, 134.823 153.132 C 138.611 156.835, 137.743 159, 132.469 159 C 125.952 159, 116.781 171.071, 120.441 174.833 C 121.516 175.939, 122.881 175.384, 128.432 171.583 C 132.114 169.062, 135.962 167, 136.982 167 C 138.003 167, 140.112 166.343, 141.669 165.540 C 143.226 164.736, 145.763 163.821, 147.307 163.506 C 149.493 163.060, 150.046 162.448, 149.807 160.741 C 149.603 159.284, 150.096 158.431, 151.276 158.196 C 152.305 157.992, 152.936 158.368, 152.776 159.090 C 152.624 159.776, 153.550 160.884, 154.834 161.552 C 158.889 163.665, 159.371 164.632, 157.616 167.138 C 155.611 170.001, 155.551 173.385, 157.454 176.290 C 158.254 177.511, 159.042 180.532, 159.204 183.005 L 159.500 187.500 154.500 188.038 C 151.750 188.334, 148.600 189.095, 147.500 189.728 C 146.400 190.362, 142.125 191.844, 138 193.022 C 133.875 194.200, 128.531 196.252, 126.124 197.582 C 123.717 198.912, 120.688 200, 119.393 200 C 116.563 200, 115.246 203.723, 116.950 206.907 C 118.380 209.579, 119.151 209.538, 124.593 206.500 C 127.056 205.125, 129.793 204, 130.676 204 C 131.559 204, 134.240 203.022, 136.633 201.826 C 139.027 200.631, 141.294 199.961, 141.670 200.337 C 142.595 201.262, 142.440 211.259, 141.302 224 C 140.786 229.775, 140.553 235.262, 140.784 236.193 C 141.020 237.144, 142.583 238.153, 144.352 238.497 C 146.083 238.833, 149.666 239.626, 152.314 240.259 C 156.264 241.204, 157.282 241.161, 157.988 240.020 C 158.693 238.879, 159.127 238.860, 160.399 239.916 C 161.466 240.802, 165.278 241.179, 172.598 241.123 C 182.621 241.046, 186.754 240.029, 185.473 237.956 C 184.248 235.974, 187.235 236.069, 188.850 238.063 L 190.645 240.279 197.243 237.640 C 200.872 236.188, 204.327 235, 204.921 235 C 205.514 235, 206 234.130, 206 233.067 C 206 230.614, 202.657 229.516, 199.176 230.826 C 191.685 233.647, 172.699 234.887, 158.825 233.462 C 152.742 232.837, 152.047 232.529, 150.991 229.979 C 150.150 227.947, 150.129 226.627, 150.916 225.156 C 151.512 224.043, 152.006 218.489, 152.014 212.816 C 152.029 201.231, 152.599 198, 154.626 198 C 155.393 198, 156.790 197.100, 157.732 196 C 158.674 194.900, 160.625 194, 162.069 194 C 163.512 194, 166.123 193.287, 167.870 192.415 C 170.988 190.860, 183.599 188.236, 191.500 187.498 C 198.157 186.877, 202.987 185.830, 203.574 184.881 C 204.285 183.729, 203.076 179.836, 202.178 180.386 C 201.805 180.614, 196.550 181.105, 190.500 181.477 C 176.138 182.359, 174.101 182.553, 170.377 183.396 C 166.500 184.274, 166.215 183.652, 165.349 172.382 C 164.569 162.233, 165.741 159, 170.201 159 C 171.776 159, 174.680 158.325, 176.654 157.500 C 178.629 156.675, 182.694 156, 185.689 156 C 191.038 156, 191.127 155.952, 190.816 153.250 C 190.504 150.537, 190.393 150.496, 182.588 150.205 C 178.237 150.043, 173.962 150.223, 173.088 150.606 C 172.215 150.989, 171.050 151.437, 170.500 151.601 C 169.950 151.765, 168.488 152.200, 167.250 152.566 C 165.570 153.064, 165 152.824, 165 151.617 C 165 150.727, 165.450 150, 166 150 C 166.550 150, 167 149.325, 167 148.500 C 167 147.675, 167.413 147, 167.917 147 C 169.789 147, 175.210 133.868, 176.014 127.388 C 177.015 119.313, 179.052 116.630, 183.439 117.604 C 185.123 117.977, 187.175 118.366, 188 118.466 C 188.825 118.567, 191.173 119.403, 193.218 120.325 C 197.616 122.307, 200 122.466, 200 120.777 C 200 120.105, 200.701 120.555, 201.557 121.777 C 202.413 123, 203.664 124, 204.337 124 C 205.561 124, 208.162 133.805, 210.040 145.500 C 210.570 148.800, 210.965 156.900, 210.918 163.500 C 210.779 183.114, 213.956 242.639, 215.516 249.671 C 215.781 250.864, 215.730 252.540, 215.402 253.393 C 214.890 254.729, 214.158 254.601, 210.161 252.473 C 207.606 251.113, 204.275 250, 202.758 250 C 200.378 250, 200 250.400, 200 252.916 C 200 256.650, 206.344 262, 210.772 262 C 212.413 262, 215.371 262.675, 217.346 263.500 C 222.507 265.656, 223.450 265.410, 224.849 261.542 C 225.761 259.019, 225.824 257.057, 225.082 254.292 C 224.523 252.206, 223.823 242.175, 223.526 232 C 223.230 221.825, 222.559 210.350, 222.035 206.500 C 221.511 202.650, 220.845 187.350, 220.557 172.500 C 220.062 147.047, 219.888 145.072, 217.516 138.035 C 216.132 133.929, 215 130.001, 215 129.305 C 215 128.610, 214.319 126.339, 213.487 124.258 C 211.937 120.384, 209.509 118.783, 203.250 117.505 C 201.463 117.140, 200 116.529, 200 116.148 C 200 114.308, 178.466 110.221, 162 108.937 C 155.125 108.401, 148.341 107.571, 146.924 107.094 C 145.407 106.582, 143.660 106.611, 142.674 107.163 M 148 113 C 148 113.550, 148.450 114, 149 114 C 149.550 114, 150 113.550, 150 113 C 150 112.450, 149.550 112, 149 112 C 148.450 112, 148 112.450, 148 113 M 82.021 122.949 C 79.615 124.798, 79.551 125.170, 79.855 135.583 C 80.027 141.485, 80.636 147.480, 81.208 148.906 C 81.779 150.333, 82.556 161.642, 82.934 174.039 C 83.311 186.435, 84.007 197.203, 84.480 197.968 C 84.953 198.732, 85.376 213.801, 85.420 231.453 C 85.499 263.305, 85.517 263.565, 87.751 265.963 C 89.952 268.326, 90.033 268.337, 91.418 266.443 C 92.337 265.186, 93.051 260.473, 93.455 253.004 C 93.796 246.677, 94.396 237.450, 94.788 232.500 C 95.180 227.550, 95.236 221.250, 94.914 218.500 C 94.592 215.750, 94.225 202.442, 94.099 188.927 C 93.973 175.412, 93.448 162.587, 92.934 160.427 C 92.420 158.267, 91.550 149.408, 91.001 140.740 C 89.759 121.112, 88.265 118.151, 82.021 122.949 M 141.750 161.662 C 142.438 161.940, 143.563 161.940, 144.250 161.662 C 144.938 161.385, 144.375 161.158, 143 161.158 C 141.625 161.158, 141.063 161.385, 141.750 161.662 M 132 200 C 132 200.550, 132.675 201, 133.500 201 C 134.325 201, 135 200.550, 135 200 C 135 199.450, 134.325 199, 133.500 199 C 132.675 199, 132 199.450, 132 200 M 146.079 219.583 C 146.127 220.748, 146.364 220.985, 146.683 220.188 C 146.972 219.466, 146.936 218.603, 146.604 218.271 C 146.272 217.939, 146.036 218.529, 146.079 219.583" stroke="none" fill="black" fill-rule="evenodd"/>
</svg>