<svg xmlns="http://www.w3.org/2000/svg" width="300" height="300" viewBox="0 0 300 300" version="1.1">
	<path d="M 185.044 36.447 C 184.383 37.243, 183.973 38.930, 184.131 40.197 C 184.638 44.246, 179.745 63.066, 177.934 64.035 C 177.022 64.523, 171.601 65.645, 165.888 66.527 C 160.175 67.410, 151.111 69.507, 145.746 71.189 C 136.658 74.036, 125.148 76.821, 120.500 77.296 C 118.752 77.474, 118.427 76.735, 117.918 71.427 C 117.598 68.087, 116.994 64.799, 116.574 64.120 C 116.155 63.441, 115.685 61.735, 115.531 60.329 C 115.280 58.043, 113.596 56.057, 111.872 56.015 C 110.235 55.975, 108.818 59.229, 109.379 61.744 C 109.717 63.260, 110.183 66.300, 110.415 68.500 C 110.647 70.700, 111.318 73.754, 111.907 75.286 C 113.097 78.382, 112.902 78.543, 107 79.329 C 99.370 80.346, 87.742 84.095, 84.462 86.596 C 81.925 88.532, 81 90.007, 81 92.119 C 81 94.207, 81.486 95, 82.768 95 C 85.271 95, 92 90.220, 92 88.443 C 92 86.111, 96.725 84.347, 99.061 85.806 C 101.805 87.520, 103.800 87.278, 103.639 85.250 C 103.531 83.892, 104.284 83.497, 107 83.488 C 108.925 83.482, 111.012 83.150, 111.637 82.749 C 112.262 82.349, 113.335 82.699, 114.022 83.527 C 115.632 85.467, 118.215 102.657, 117.437 106.251 C 116.992 108.303, 117.282 109.171, 118.576 109.668 C 120.964 110.584, 123.937 106.728, 123.538 103.232 C 122.258 92.031, 121.812 89.314, 121.052 88.083 C 120.146 86.619, 121.659 82.060, 123.471 80.792 C 124.028 80.402, 125.474 80.332, 126.685 80.636 C 127.896 80.940, 129.466 80.830, 130.176 80.391 C 130.885 79.953, 132.148 79.538, 132.982 79.469 C 137.462 79.100, 143.058 77.556, 147.500 75.464 C 150.689 73.962, 155.216 72.902, 160 72.536 C 169.832 71.784, 170.802 71.598, 172.210 70.190 C 175.849 66.551, 175.966 72.555, 172.415 80.626 C 169.092 88.177, 167.912 90.869, 163.922 100 C 162.120 104.125, 160.075 108.134, 159.378 108.909 C 158.681 109.684, 152.855 111.843, 146.433 113.707 C 135.372 116.916, 131.491 118.619, 112.156 128.750 C 107.695 131.088, 103.867 133, 103.650 133 C 103.433 133, 102.953 131.110, 102.584 128.800 C 101.764 123.669, 100.485 122, 97.378 122 C 95.625 122, 94.959 122.591, 94.844 124.250 C 94.601 127.779, 95.077 131.382, 95.934 132.488 C 96.366 133.045, 98.186 138.225, 99.979 144 C 107.024 166.686, 109.145 172.444, 112.182 177.131 C 113.917 179.809, 115.828 182, 116.429 182 C 117.029 182, 118.738 183.129, 120.227 184.509 L 122.933 187.018 132.123 185.767 C 139.190 184.804, 141.415 184.129, 141.752 182.842 C 142.310 180.707, 147.029 179.429, 148.079 181.128 C 148.636 182.030, 149.212 182.075, 150.174 181.293 C 152.737 179.210, 155.538 179.464, 159.495 182.138 C 164.363 185.428, 166.496 184.445, 165.661 179.296 C 165.220 176.578, 165.445 176, 166.949 176 C 167.951 176, 170.060 175.328, 171.636 174.506 C 173.211 173.685, 175.193 173.010, 176.040 173.006 C 177.832 172.999, 184.899 166.642, 187.164 163 C 190.142 158.211, 194.042 147.455, 195.211 140.809 C 196.848 131.495, 195.196 114.074, 192.310 110.223 C 190.271 107.502, 190.262 107.500, 179.135 107.850 C 168.219 108.193, 166.298 107.657, 169.355 105.121 C 170.100 104.502, 172.633 99.609, 174.983 94.248 C 186.465 68.059, 186.312 68.310, 192.636 65.265 C 199.132 62.137, 202.546 58.295, 201.567 55.213 C 200.474 51.768, 198.014 51.662, 196.847 55.010 C 196.273 56.655, 195.228 58, 194.525 58 C 193.821 58, 192.669 58.694, 191.965 59.542 C 189.626 62.361, 189.114 59.605, 190.030 49.126 C 190.955 38.548, 190.342 35, 187.587 35 C 186.849 35, 185.704 35.651, 185.044 36.447 M 93 88 C 93 88.550, 93.450 89, 94 89 C 94.550 89, 95 88.550, 95 88 C 95 87.450, 94.550 87, 94 87 C 93.450 87, 93 87.450, 93 88 M 165.161 113.575 C 164.276 115.015, 161.230 116.156, 157.149 116.577 C 155.306 116.767, 153.266 117.364, 152.616 117.904 C 151.879 118.515, 150.880 118.536, 149.966 117.958 C 147.742 116.551, 145.714 116.811, 146.332 118.423 C 146.692 119.361, 145.825 120.214, 143.790 120.923 C 139.479 122.426, 138.018 122.205, 141 120.500 C 144.079 118.740, 142.767 118.593, 138.321 120.201 C 136.494 120.861, 135 121.934, 135 122.584 C 135 123.235, 134.213 124.016, 133.250 124.322 C 132.287 124.627, 130.247 125.692, 128.715 126.688 C 126.305 128.256, 125.808 128.302, 125.019 127.028 C 124.254 125.792, 123.989 125.866, 123.367 127.487 C 122.360 130.111, 118.034 133.844, 115.067 134.649 C 113.728 135.012, 111.478 135.913, 110.067 136.650 C 107.830 137.819, 107.339 137.775, 106.250 136.305 C 103.724 132.896, 104.922 139.879, 108.924 151.893 C 111.082 158.372, 113.171 165.434, 113.566 167.587 C 114.687 173.703, 118.737 180.717, 121.556 181.425 C 124.614 182.192, 136.370 180.370, 139.876 178.585 C 141.319 177.850, 146.605 176.293, 151.622 175.125 C 162.562 172.577, 169.050 169.837, 170.768 167.037 C 171.691 165.531, 172.675 165.131, 174.394 165.563 C 176.227 166.023, 177.182 165.524, 178.675 163.327 C 184.323 155.019, 190.356 132.798, 189.325 124.097 C 188.915 120.635, 189.137 118.540, 190.027 117.468 C 191.110 116.163, 191.043 115.614, 189.628 114.200 C 188.232 112.805, 185.943 112.500, 176.874 112.500 C 170.065 112.500, 165.568 112.913, 165.161 113.575 M 192 136.500 C 192 137.325, 192.177 138, 192.393 138 C 192.609 138, 193.045 137.325, 193.362 136.500 C 193.678 135.675, 193.501 135, 192.969 135 C 192.436 135, 192 135.675, 192 136.500 M 169 140.157 C 167.075 140.707, 165.072 141.571, 164.550 142.078 C 164.028 142.585, 162.577 143, 161.327 143 C 158.766 143, 154.776 144.684, 137.353 153.119 C 130.673 156.354, 124.546 159, 123.738 159 C 121.205 159, 117 163.026, 117 165.450 C 117 170.795, 123.032 171.112, 130.500 166.159 C 135.399 162.909, 136.106 161.987, 135.410 159.750 C 134.820 157.855, 136.586 157.259, 137.214 159.141 C 137.643 160.428, 145.793 155.693, 146.565 153.707 C 146.824 153.043, 148.865 152.430, 151.102 152.345 C 153.690 152.246, 155.981 151.427, 157.399 150.095 C 158.818 148.761, 160.950 148, 163.265 148 C 165.561 148, 167.231 147.409, 167.798 146.396 C 168.548 145.056, 169.026 144.999, 170.715 146.054 C 173.903 148.045, 176.182 146.575, 175.814 142.765 C 175.461 139.116, 174.259 138.656, 169 140.157 M 159.571 187.571 C 158.344 188.799, 158 191.424, 158 199.571 L 158 210 155.028 210 C 153.394 210, 147.881 210.896, 142.778 211.992 C 137.675 213.088, 127.875 214.673, 121 215.516 C 114.125 216.358, 106.025 217.486, 103 218.023 C 99.975 218.561, 92.775 219.651, 87 220.446 C 81.225 221.242, 73.575 222.618, 70 223.505 C 66.425 224.392, 61.239 225.684, 58.476 226.375 C 51.781 228.051, 47 230.232, 47 231.612 C 47 233.210, 54.791 234.053, 57.625 232.761 C 58.931 232.166, 60 231.337, 60 230.919 C 60 229.959, 64.064 229.063, 70.500 228.603 C 73.250 228.407, 77.169 227.546, 79.210 226.691 C 81.250 225.835, 84.309 225.311, 86.007 225.526 C 87.825 225.756, 89.285 225.420, 89.559 224.708 C 89.862 223.917, 92.346 223.530, 96.761 223.586 C 101.327 223.644, 104.054 223.201, 105.217 222.211 C 106.216 221.361, 107.874 220.995, 109.180 221.337 C 110.580 221.703, 112.154 221.279, 113.359 220.212 C 114.783 218.951, 115.407 218.829, 115.729 219.750 C 116.242 221.216, 120 221.456, 120 220.023 C 120 219.486, 121.688 219.067, 123.750 219.093 C 131.101 219.185, 141.586 217.452, 143.683 215.799 C 144.334 215.286, 146.584 214.672, 148.683 214.434 C 150.783 214.197, 153.466 213.781, 154.646 213.509 C 157.635 212.820, 158.320 214.893, 158.606 225.500 C 158.740 230.450, 159.092 237.425, 159.390 241 C 159.687 244.575, 160.443 255.825, 161.070 266 C 162.200 284.342, 163.256 289, 166.283 289 C 166.963 289, 168.088 288.089, 168.783 286.977 C 169.790 285.364, 169.809 282.269, 168.878 271.727 C 167.271 253.525, 167.333 254.474, 166.521 235.837 C 166.121 226.672, 166.091 217.419, 166.454 215.274 C 167.090 211.507, 167.237 211.383, 170.738 211.659 C 172.731 211.816, 174.843 211.562, 175.431 211.095 C 176.019 210.628, 179.411 210.379, 182.969 210.541 C 186.527 210.703, 190.352 210.343, 191.469 209.740 C 192.586 209.138, 196.650 208.703, 200.500 208.773 C 204.350 208.844, 208.981 208.377, 210.790 207.736 C 213.334 206.834, 214.526 206.847, 216.044 207.795 C 217.553 208.738, 217.948 208.743, 217.754 207.820 C 217.368 205.995, 220.927 205.629, 222.824 207.299 C 223.752 208.115, 226.398 208.763, 228.750 208.750 C 232.479 208.730, 233 208.452, 233 206.486 C 233 205.253, 232.438 203.805, 231.750 203.267 C 230.299 202.133, 213.827 202.551, 206.500 203.909 C 191.037 206.775, 166.061 208.441, 165.496 206.644 C 165.298 206.015, 164.839 201.113, 164.475 195.750 C 163.786 185.594, 162.947 184.195, 159.571 187.571 M 118 188 C 118 188.550, 118.675 189, 119.500 189 C 120.325 189, 121 188.550, 121 188 C 121 187.450, 120.325 187, 119.500 187 C 118.675 187, 118 187.450, 118 188" stroke="none" fill="black" fill-rule="evenodd"/>
</svg>