<svg xmlns="http://www.w3.org/2000/svg" width="300" height="300" viewBox="0 0 300 300" version="1.1">
	<path d="M 89.422 15.342 C 89.102 16.177, 89.604 18.470, 90.538 20.438 C 91.966 23.447, 92.039 24.493, 90.996 27.009 C 90.154 29.041, 90.080 30.403, 90.763 31.251 C 92.069 32.872, 93.964 41.929, 93.339 43.560 C 93.073 44.252, 93.321 46.504, 93.890 48.565 C 95.657 54.962, 95.063 55.226, 79.277 55.058 C 66.700 54.924, 65.179 55.092, 64.570 56.678 C 64.151 57.771, 64.486 58.882, 65.446 59.584 C 66.301 60.209, 67 61.410, 67 62.253 C 67 64.434, 69.118 64.975, 75.195 64.346 C 78.113 64.044, 82.873 63.865, 85.773 63.947 C 89.362 64.049, 91.541 63.602, 92.595 62.548 C 93.446 61.697, 93.661 61, 93.071 61 C 92.482 61, 92 60.288, 92 59.417 C 92 57.218, 94.432 58.230, 94.802 60.583 C 94.967 61.637, 95.544 63.400, 96.084 64.500 C 97.013 66.395, 97.558 70.452, 97.864 77.750 C 97.952 79.850, 98.510 81, 99.441 81 C 101.672 81, 102.123 79.568, 102.836 70.206 L 103.500 61.500 109 61.273 C 116.191 60.976, 133.152 57.987, 134.750 56.735 C 135.438 56.196, 136 54.849, 136 53.742 C 136 51.900, 135.594 51.793, 131.250 52.483 C 128.637 52.899, 121.617 53.380, 115.650 53.553 C 109.682 53.726, 104.548 54.118, 104.242 54.425 C 102.890 55.777, 101 52.401, 100.996 48.628 C 100.994 46.357, 100.321 40.450, 99.500 35.500 C 98.297 28.245, 98.238 25.578, 99.195 21.741 C 100.588 16.161, 100.114 15.468, 94.252 14.515 C 90.928 13.975, 89.878 14.155, 89.422 15.342 M 177.196 19.298 C 174.259 22.328, 174 23.128, 174 29.181 C 174 34.926, 174.255 35.834, 176 36.290 C 177.100 36.577, 178 37.530, 178 38.406 C 178 39.617, 176.968 40, 173.700 40 C 171.335 40, 168.972 40.375, 168.450 40.833 C 167.927 41.291, 163.900 42.502, 159.500 43.525 C 151.041 45.491, 148 47.211, 148 50.033 C 148 52.915, 150.610 54.245, 155.226 53.713 C 161.501 52.990, 167.188 51.315, 168.038 49.938 C 168.600 49.029, 169.790 49.196, 172.866 50.616 C 177.726 52.859, 177.865 53.834, 175.015 65.720 C 172.454 76.403, 171.155 93.448, 172.948 92.851 C 174.931 92.190, 176.968 85.057, 176.985 78.718 C 176.993 75.538, 177.675 71.320, 178.500 69.346 C 179.325 67.371, 180.003 65.023, 180.006 64.128 C 180.010 63.233, 180.685 61.211, 181.506 59.636 C 182.328 58.060, 183 55.078, 183 53.008 C 183 48.307, 183.931 47.587, 192 46.044 C 199.481 44.614, 202 43.488, 202 41.572 C 202 39.558, 199.671 39, 191.271 39 L 183.706 39 184.270 29.542 C 184.581 24.340, 184.594 19.165, 184.301 18.042 C 183.522 15.065, 180.839 15.539, 177.196 19.298 M 162.250 45.723 C 160.279 45.968, 159 46.692, 159 47.563 C 159 49.687, 167.573 49.555, 168.393 47.418 C 169.430 44.717, 169.719 44.796, 162.250 45.723 M 100.206 97.022 C 97.848 103.116, 97.230 109.590, 97.564 124.705 C 97.923 140.919, 96.324 156.076, 94.012 158.388 C 93.324 159.076, 89.912 159.015, 83.441 158.197 C 76.947 157.377, 73.285 157.312, 72.009 157.995 C 70.976 158.548, 65.411 159, 59.642 159 C 49.781 159, 48.967 159.157, 46.035 161.624 C 44.320 163.067, 43.087 164.755, 43.297 165.374 C 43.506 165.993, 45.888 166.563, 48.589 166.639 C 51.290 166.716, 57.325 167.125, 62 167.547 C 69.823 168.255, 70.392 168.185, 69.138 166.671 C 66.363 163.318, 70.261 160.447, 74 163.091 C 75.129 163.890, 75.191 164.278, 74.250 164.659 C 70.840 166.043, 73.823 166.754, 80.977 166.264 C 90.761 165.594, 92.458 166.546, 91.690 172.273 C 91.186 176.034, 91.226 176.094, 93.337 174.712 C 95.906 173.030, 98.265 168.566, 98.402 165.129 C 98.522 162.106, 101 160.950, 101 163.917 C 101 165.791, 101.588 166, 106.874 166 C 110.105 166, 114.625 165.338, 116.919 164.528 C 119.213 163.719, 123.217 162.775, 125.817 162.430 L 130.544 161.803 130.362 165.151 C 130.154 168.966, 128.404 176.603, 126.378 182.533 C 124.616 187.690, 124.546 193.315, 126.250 192.757 C 126.938 192.532, 127.882 190.582, 128.348 188.424 C 128.815 186.266, 129.665 183.619, 130.237 182.542 C 131.185 180.758, 133.048 174.229, 134.814 166.500 C 135.191 164.850, 135.950 162.803, 136.500 161.950 C 137.858 159.846, 149.827 156.612, 151.406 157.922 C 153.658 159.791, 160.460 160.252, 164.052 158.778 C 165.948 158, 169.975 157.259, 173 157.130 C 176.025 157.002, 179.288 156.665, 180.251 156.381 C 181.214 156.097, 183.382 156.848, 185.069 158.049 C 187.900 160.065, 188.084 160.552, 187.464 164.367 C 187.094 166.640, 186.163 170.957, 185.396 173.960 C 184.628 176.963, 184 181.999, 184 185.151 C 184 188.649, 183.513 191.189, 182.750 191.669 C 181.498 192.458, 170.906 192.280, 167.902 191.419 C 167.023 191.168, 165.795 189.845, 165.173 188.481 C 164.141 186.215, 161.166 185.168, 159.758 186.575 C 159.442 186.892, 159.593 188.579, 160.094 190.325 C 160.831 192.894, 160.616 194.026, 158.969 196.254 C 157.268 198.556, 157.129 199.373, 158.124 201.231 C 158.932 202.741, 159.366 211.012, 159.477 227.033 C 159.568 240.001, 159.944 251.101, 160.315 251.700 C 160.685 252.299, 162.678 253.025, 164.744 253.314 C 166.810 253.603, 169.738 254.153, 171.250 254.536 C 173.727 255.164, 174 254.973, 174 252.617 C 174 249.929, 175.349 249.138, 176.569 251.112 C 176.947 251.723, 176.636 252.607, 175.878 253.076 C 174.720 253.791, 174.740 254.156, 176 255.358 C 177.301 256.599, 178.561 256.593, 185.500 255.315 C 191.246 254.257, 197.304 253.997, 207 254.393 C 225.541 255.151, 226.816 255.464, 227.197 259.364 L 227.504 262.500 231.215 258.595 C 233.256 256.447, 234.666 254.268, 234.347 253.753 C 234.029 253.237, 233.673 245.770, 233.557 237.158 C 233.340 221.116, 231.878 212.704, 227.271 201 C 223.478 191.362, 222.280 190.186, 215.570 189.505 C 212.232 189.167, 205.225 189.293, 200 189.786 C 194.775 190.279, 189.982 190.497, 189.349 190.272 C 187.776 189.712, 186.922 186.030, 187.914 184.088 C 188.361 183.215, 189.024 179.850, 189.388 176.611 C 190.076 170.494, 192.042 163.193, 194.736 156.750 C 196.016 153.688, 196.815 153, 199.093 153 C 200.627 153, 202.177 152.523, 202.537 151.940 C 202.954 151.265, 205.151 151.125, 208.584 151.554 C 214.828 152.334, 216.387 150.765, 213.597 146.508 C 211.528 143.350, 207.910 142.455, 202.351 143.727 C 199.932 144.280, 197.805 144.456, 197.623 144.117 C 197.442 143.777, 197.606 137.425, 197.988 130 C 198.518 119.714, 198.383 116.170, 197.419 115.113 C 195.692 113.219, 193.217 114.375, 191.837 117.722 C 191.207 119.250, 189.830 122.393, 188.778 124.706 C 186.708 129.256, 187.067 136.924, 189.463 139.320 C 191.545 141.402, 192.893 144.557, 192.180 145.681 C 191.433 146.860, 185.016 148.162, 178 148.559 C 163.910 149.355, 157.319 150.434, 154 152.489 C 151.371 154.116, 149.007 154.636, 144.500 154.578 L 138.500 154.500 138.422 137 C 138.328 115.974, 138.446 117, 136.122 117 C 132.433 117, 132.048 119.022, 132.399 136.566 C 132.604 146.791, 132.345 153.995, 131.747 154.750 C 131.163 155.486, 128.442 155.997, 125.128 155.993 C 122.032 155.990, 115.551 156.743, 110.725 157.668 C 104.885 158.787, 101.616 159.016, 100.951 158.351 C 100.287 157.687, 100.534 154.869, 101.689 149.927 C 103.060 144.060, 103.424 137.879, 103.420 120.500 C 103.416 106.054, 103.028 97.821, 102.290 96.522 C 101.204 94.612, 101.132 94.629, 100.206 97.022 M 175.576 152.178 C 174.517 152.792, 172.380 153.258, 170.826 153.214 C 167.764 153.127, 167.030 154.414, 169.582 155.393 C 172.307 156.439, 174.763 156.059, 175.362 154.500 C 175.678 153.675, 176.878 153, 178.028 153 C 179.177 153, 179.840 152.550, 179.500 152 C 178.723 150.743, 177.990 150.776, 175.576 152.178 M 78.500 161 C 78.160 161.550, 78.610 162, 79.500 162 C 80.390 162, 80.840 161.550, 80.500 161 C 80.160 160.450, 79.710 160, 79.500 160 C 79.290 160, 78.840 160.450, 78.500 161 M 103 163 C 103 163.550, 103.423 164, 103.941 164 C 104.459 164, 105.160 163.550, 105.500 163 C 105.840 162.450, 105.416 162, 104.559 162 C 103.702 162, 103 162.450, 103 163 M 62.553 163.915 C 62.231 164.436, 62.394 165.125, 62.915 165.447 C 63.436 165.769, 64.125 165.606, 64.447 165.085 C 64.769 164.564, 64.606 163.875, 64.085 163.553 C 63.564 163.231, 62.875 163.394, 62.553 163.915 M 87.256 183.821 C 86.572 184.255, 85.602 186.611, 85.100 189.055 C 84.597 191.500, 83.515 195.941, 82.694 198.925 C 81.087 204.767, 82.075 209.569, 84.678 208.570 C 85.475 208.264, 86 208.784, 86 209.876 C 86 211.899, 88.975 215, 90.915 215 C 91.607 215, 94.159 216.426, 96.587 218.170 C 100.906 221.271, 102.432 224.997, 100 226.500 C 98.708 227.298, 98.701 231.697, 99.991 232.494 C 100.536 232.831, 101.744 231.508, 102.676 229.553 C 104.558 225.606, 107.464 224.842, 108.309 228.072 C 108.830 230.066, 108.948 230.080, 111.451 228.440 C 113.691 226.972, 114.290 226.929, 115.776 228.127 C 116.724 228.892, 119.215 230.386, 121.311 231.449 C 124.864 233.250, 128.741 236.838, 137.452 246.390 C 139.404 248.529, 141 250.606, 141 251.004 C 141 251.403, 142.343 253.252, 143.984 255.114 C 145.625 256.977, 146.975 258.785, 146.984 259.133 C 147.013 260.286, 150.687 260.755, 152.358 259.820 C 154.590 258.570, 154.426 254.673, 152.022 251.835 C 150.934 250.551, 146.869 245.140, 142.989 239.811 C 138.948 234.262, 134.346 229.148, 132.217 227.843 C 130.173 226.589, 127.665 224.797, 126.645 223.860 C 125.625 222.922, 123.520 221.629, 121.967 220.986 C 118.711 219.638, 117.623 217.575, 118.902 215.178 C 120.041 213.044, 121.447 202, 120.580 202 C 119.669 202, 116 210.781, 116 212.960 C 116 216.384, 113.662 217.122, 109.517 215.009 C 107.412 213.936, 104.748 212.196, 103.595 211.144 C 102.443 210.091, 100.375 208.898, 99 208.492 C 95.230 207.379, 86 201.681, 86 200.466 C 86 199.880, 86.526 198.874, 87.168 198.232 C 88.133 197.267, 89.641 182.966, 88.772 183.015 C 88.623 183.024, 87.940 183.386, 87.256 183.821 M 192 194.500 C 192 195.648, 193.266 196, 197.393 196 C 201.264 196, 202.948 195.577, 203.362 194.500 C 203.834 193.270, 202.863 193, 197.969 193 C 193.330 193, 192 193.334, 192 194.500 M 122.046 196.914 C 121.272 198.361, 121.257 199, 121.996 199 C 123.209 199, 124.529 196.195, 123.705 195.371 C 123.406 195.073, 122.660 195.767, 122.046 196.914 M 172 196 C 170.707 196.835, 170.734 196.971, 172.191 196.985 C 173.121 196.993, 174.160 196.550, 174.500 196 C 175.282 194.734, 173.958 194.734, 172 196 M 165.700 197.682 C 164.434 199.745, 164.635 243.874, 165.919 245.903 C 166.967 247.558, 178.549 248.126, 184 246.791 C 190.446 245.211, 205.033 245.100, 209.280 246.599 C 211.464 247.369, 214.488 248, 216 248 C 217.512 248, 220.602 248.654, 222.867 249.453 C 226.893 250.874, 226.999 250.854, 227.571 248.571 C 228.574 244.577, 226.339 223.040, 224.729 221.181 C 223.339 219.575, 222.512 217.441, 218.457 205 C 217.471 201.975, 216.252 199.225, 215.747 198.888 C 214.322 197.938, 193.828 198.972, 190.810 200.146 C 189.331 200.722, 187.738 200.956, 187.271 200.667 C 186.803 200.378, 183.297 200.529, 179.480 201.002 C 172.697 201.844, 169.249 201.025, 170.570 198.887 C 170.871 198.399, 170.678 198, 170.141 198 C 169.603 198, 168.497 197.744, 167.683 197.432 C 166.869 197.119, 165.976 197.232, 165.700 197.682 M 73.688 202.646 C 72.314 204.020, 73.026 206.142, 74.750 205.810 C 75.713 205.624, 76.500 204.841, 76.500 204.070 C 76.500 202.491, 74.736 201.598, 73.688 202.646 M 91 242.500 C 89.537 244.263, 85.874 244.474, 84.287 242.887 C 82.989 241.589, 81 242.527, 81 244.437 C 81 246.170, 82.904 247.687, 86.080 248.484 C 88.037 248.975, 89.403 248.466, 91.824 246.342 C 95.149 243.424, 95.965 241, 93.622 241 C 92.865 241, 91.685 241.675, 91 242.500 M 197.500 251 C 197.160 251.550, 197.584 252, 198.441 252 C 199.298 252, 200 251.550, 200 251 C 200 250.450, 199.577 250, 199.059 250 C 198.541 250, 197.840 250.450, 197.500 251" stroke="none" fill="black" fill-rule="evenodd"/>
</svg>