<svg xmlns="http://www.w3.org/2000/svg" width="300" height="300" viewBox="0 0 300 300" version="1.1">
	<path d="M 127.943 14.107 C 127.127 15.631, 127.117 16.517, 127.907 17.307 C 129.476 18.876, 129.253 22.545, 127.500 24 C 126.639 24.715, 126 26.896, 126 29.122 C 126 31.342, 125.516 33, 124.868 33 C 124.124 33, 123.921 34.377, 124.276 37.021 C 125.057 42.844, 123.462 44, 114.651 44 C 109.566 44, 106.750 43.513, 105.084 42.346 C 103.218 41.039, 102.335 40.934, 100.875 41.846 C 99.859 42.481, 98.346 43, 97.514 43 C 95.277 43, 95.708 46.194, 98.267 48.593 C 101.386 51.517, 107.907 52.392, 111.866 50.417 C 113.590 49.557, 115 48.436, 115 47.927 C 115 46.216, 119.979 46.979, 122 49 C 123.768 50.768, 124 52.333, 124 62.514 C 124 68.846, 124.417 74.809, 124.927 75.764 C 125.437 76.719, 126.102 78.298, 126.404 79.273 C 126.707 80.248, 127.685 81.326, 128.578 81.668 C 130.493 82.403, 132.228 80.152, 131.405 78 C 130.697 76.147, 130.823 48.844, 131.543 48.124 C 131.830 47.837, 137.006 47.311, 143.045 46.955 C 149.084 46.599, 154.320 46.013, 154.680 45.654 C 155.568 44.765, 155.943 44.814, 143 44.118 L 131.500 43.500 131.201 37.794 C 130.994 33.832, 131.433 31.082, 132.640 28.794 C 134.718 24.853, 134.985 15.891, 133.092 13.611 C 131.259 11.402, 129.289 11.592, 127.943 14.107 M 178.152 19.534 C 176.722 21.351, 176.349 22.836, 176.829 24.784 C 177.198 26.278, 177.500 30.410, 177.500 33.966 L 177.500 40.432 168.250 41.879 C 159.211 43.294, 159 43.389, 159 46.041 C 159 47.534, 159.635 49.282, 160.411 49.926 C 162.655 51.788, 168.854 52.416, 171.423 51.041 C 172.696 50.360, 174.584 49.972, 175.619 50.179 C 177.375 50.531, 177.481 51.546, 177.216 65.488 C 176.917 81.222, 177.848 86.368, 180.890 85.783 C 183.530 85.274, 185.229 78.261, 185.925 65 C 186.584 52.437, 187.563 48.840, 190.793 47.111 C 193.543 45.639, 207.450 43, 212.458 43 C 215.746 43, 217 42.602, 217 41.559 C 217 39.168, 215.609 38.924, 201.499 38.834 C 185.913 38.736, 185.583 38.547, 186.629 30.329 C 187.643 22.360, 187.386 19.755, 185.444 18.335 C 182.702 16.331, 180.370 16.714, 178.152 19.534 M 182.376 43.800 C 181.060 47.304, 182.188 50.212, 184.115 48.285 C 184.951 47.449, 185.039 46.135, 184.407 43.947 L 183.500 40.808 182.376 43.800 M 176.079 46.583 C 176.127 47.748, 176.364 47.985, 176.683 47.188 C 176.972 46.466, 176.936 45.603, 176.604 45.271 C 176.272 44.939, 176.036 45.529, 176.079 46.583 M 107 48.094 C 107 48.592, 107.900 49, 109 49 C 110.100 49, 111 48.827, 111 48.617 C 111 48.406, 110.100 47.998, 109 47.710 C 107.900 47.423, 107 47.595, 107 48.094 M 178.828 90.038 C 177.909 90.574, 176.856 92.377, 176.490 94.045 C 175.953 96.489, 175.442 96.958, 173.863 96.456 C 171.764 95.790, 167.495 99.775, 155.505 113.591 C 152.208 117.391, 148.925 121.115, 148.210 121.866 C 146.644 123.513, 147.018 124.989, 149.367 126.429 C 150.783 127.297, 151.629 126.932, 153.831 124.500 C 157.228 120.749, 164.458 115, 165.779 115 C 167.217 115, 170.214 119.911, 169.630 121.311 C 169.353 121.975, 168.833 121.507, 168.451 120.250 C 167.722 117.854, 166.519 117.352, 165.491 119.015 C 165.146 119.573, 165.424 124.309, 166.108 129.539 C 166.974 136.157, 167.034 139.366, 166.306 140.094 C 165.090 141.310, 146.363 143.885, 143.701 143.202 C 141.005 142.511, 134 145.998, 134 148.031 C 134 151.760, 144.147 152.859, 151.500 149.925 L 153.500 149.127 151.500 149.033 C 148.025 148.870, 151.935 147.333, 157.672 146.607 C 162.188 146.035, 163.154 146.241, 165.275 148.226 C 168.095 150.865, 169.670 155.272, 170.554 163 C 170.901 166.025, 172.092 171.986, 173.201 176.246 C 174.310 180.506, 174.998 184.562, 174.731 185.258 C 173.771 187.760, 153.979 185.739, 151.387 182.875 C 149.406 180.687, 148.067 180.557, 144.457 182.202 C 141.980 183.330, 141.856 183.710, 142.414 188.452 C 142.741 191.228, 143.440 199.350, 143.969 206.500 C 144.675 216.060, 145.620 221.470, 147.540 226.945 C 149.288 231.932, 149.953 235.436, 149.555 237.557 C 148.653 242.364, 150.744 243.476, 160.987 243.634 C 170.011 243.773, 175.739 244.621, 177.568 246.087 C 178.156 246.558, 180.181 247.068, 182.068 247.222 C 184.864 247.448, 185.446 247.176, 185.206 245.750 C 185.028 244.686, 185.544 244, 186.522 244 C 189.145 244, 192.194 246.053, 191.655 247.457 C 190.923 249.365, 201.010 250.282, 202.892 248.478 C 204.072 247.347, 203.805 246.852, 201.139 245.231 C 199.409 244.179, 195.408 242.722, 192.247 241.994 C 189.086 241.266, 185.790 240.069, 184.921 239.335 C 184.053 238.601, 182.343 238, 181.122 238 C 179.900 238, 177.686 237.397, 176.200 236.661 C 174.715 235.924, 170.125 234.753, 166 234.057 C 161.875 233.361, 158.012 232.657, 157.415 232.491 C 155.598 231.986, 152.956 217.120, 152.721 206.086 L 152.500 195.672 162 195.516 C 172.592 195.342, 174.559 194.794, 175.342 191.801 C 175.712 190.386, 176.395 189.938, 177.522 190.370 C 178.425 190.717, 179.788 191, 180.550 191 C 181.372 191, 181.703 191.611, 181.362 192.500 C 180.962 193.541, 181.431 194, 182.893 194 C 184.052 194, 185 193.550, 185 193 C 185 192.450, 184.512 192, 183.917 192 C 183.321 192, 183.030 191.438, 183.270 190.750 C 183.682 189.574, 185.762 189.503, 188.863 190.559 C 189.877 190.905, 189.943 191.363, 189.121 192.354 C 187.793 193.954, 188.639 195, 191.260 195 C 192.346 195, 193.416 194.127, 193.710 193 C 193.998 191.900, 195.028 191, 196 191 C 196.972 191, 198.002 191.900, 198.290 193 C 198.971 195.606, 200.857 195.560, 201.837 192.912 C 202.548 190.989, 202.718 190.955, 203.990 192.488 C 205.168 193.907, 205.160 194.293, 203.936 195.105 C 202.951 195.758, 204.072 195.970, 207.500 195.779 L 212.500 195.500 213.174 202.500 C 213.544 206.350, 213.950 213.228, 214.076 217.785 C 214.201 222.341, 214.685 226.305, 215.152 226.594 C 215.618 226.882, 216 230.496, 216 234.625 C 216 238.753, 216.444 242.961, 216.987 243.976 C 218.526 246.852, 221.571 245.374, 222.842 241.134 C 225.056 233.742, 223.788 202.426, 220.906 193.338 C 219.658 189.405, 218.389 188.894, 208.851 188.487 C 204.644 188.307, 198.569 187.457, 195.351 186.597 C 192.133 185.737, 188.195 184.914, 186.601 184.767 C 185.006 184.620, 183.372 183.825, 182.968 183 C 181.196 179.375, 179.720 170.732, 179.246 161.206 C 178.762 151.472, 178.859 150.779, 181.041 148.456 C 182.355 147.057, 184.479 146, 185.974 146 C 187.418 146, 189.140 145.460, 189.800 144.800 C 190.733 143.867, 191 143.868, 191 144.805 C 191 145.707, 193.705 145.863, 201.750 145.423 C 212.828 144.818, 214.684 144.225, 213.682 141.614 C 213.185 140.318, 210.690 140.146, 196.799 140.456 C 187.835 140.655, 179.488 141.137, 178.250 141.526 C 177.012 141.915, 175.970 141.843, 175.933 141.367 C 175.895 140.890, 175.713 139.150, 175.528 137.500 C 175.343 135.850, 174.889 130.019, 174.520 124.543 C 174.151 119.067, 173.430 113.804, 172.919 112.848 C 172.175 111.458, 172.895 110.351, 176.515 107.325 C 183.263 101.685, 186.242 90.779, 181.429 89.342 C 180.918 89.189, 179.748 89.503, 178.828 90.038 M 99.031 110.943 C 98.310 112.289, 98.314 115.131, 99.041 120.193 C 99.619 124.212, 99.810 129.590, 99.466 132.145 C 98.852 136.709, 98.776 136.791, 95.171 136.817 C 93.152 136.832, 89.475 137.080, 87 137.368 C 84.525 137.655, 81.825 137.918, 81 137.950 C 80.175 137.983, 78.232 139.024, 76.683 140.264 C 74.190 142.259, 73.986 142.833, 74.908 145.259 C 76.091 148.369, 79.256 148.877, 82.441 146.468 C 83.509 145.661, 85.223 145, 86.250 145 C 87.277 145, 87.840 144.550, 87.500 144 C 86.192 141.884, 88.127 141.014, 90.924 142.461 C 93.360 143.720, 93.986 143.724, 95.617 142.489 C 98.185 140.545, 99 140.654, 99 142.941 C 99 144.009, 99.469 145.172, 100.042 145.526 C 100.615 145.880, 101.082 148.044, 101.079 150.335 C 101.077 152.626, 101.474 160.125, 101.963 167 C 102.451 173.875, 102.658 180.193, 102.424 181.040 C 102.064 182.342, 99.594 182.585, 86.511 182.605 C 71.629 182.629, 70.925 182.722, 68.512 184.989 C 65.547 187.775, 65.376 188.833, 67.750 189.708 C 68.713 190.064, 69.781 190.773, 70.125 191.284 C 71.179 192.852, 77.197 190.962, 77.738 188.894 C 78.267 186.870, 79.522 186.417, 80.449 187.917 C 80.768 188.434, 84.610 188.568, 89.258 188.226 C 93.791 187.892, 98.850 187.592, 100.500 187.559 L 103.500 187.500 103.748 199.500 C 103.885 206.100, 103.986 212.790, 103.974 214.368 C 103.961 215.945, 104.366 217.745, 104.875 218.368 C 106.096 219.863, 106.720 245.098, 105.580 246.901 C 104.844 248.067, 104.477 248.006, 103.406 246.540 C 102.697 245.571, 100.373 242.915, 98.242 240.639 C 96.111 238.362, 93.558 235.262, 92.569 233.750 C 90.672 230.851, 89.005 230.151, 88.993 232.250 C 88.989 232.938, 91.108 237.699, 93.702 242.830 C 97.669 250.680, 99.101 252.561, 102.725 254.685 C 105.095 256.074, 107.706 258.170, 108.528 259.343 C 110.680 262.415, 113.271 260.419, 114.297 254.897 C 115.272 249.658, 114.432 220.437, 112.813 203.271 C 111.391 188.190, 112.022 186, 117.787 186 C 119.894 186, 122.491 185.357, 123.559 184.571 C 125.408 183.210, 125.414 183.110, 123.686 182.440 C 122.688 182.053, 119.697 181.994, 117.039 182.309 L 112.207 182.881 111.807 166.691 C 111.297 146.058, 111.408 145.589, 116.898 145.189 C 121.889 144.824, 125.258 146.665, 127.487 150.975 C 129.187 154.261, 132 154.149, 132 150.794 C 132 147.475, 129.053 142.345, 126.470 141.168 C 125.131 140.558, 121.085 139.757, 117.477 139.387 C 112.892 138.918, 110.651 138.217, 110.031 137.058 C 109.543 136.146, 108.821 129.874, 108.426 123.120 C 107.737 111.351, 107.606 110.801, 105.289 109.920 C 101.676 108.546, 100.183 108.790, 99.031 110.943 M 102.600 117.600 C 102.244 118.527, 102.178 119.511, 102.453 119.786 C 102.728 120.061, 103.244 119.527, 103.600 118.600 C 103.956 117.673, 104.022 116.689, 103.747 116.414 C 103.472 116.139, 102.956 116.673, 102.600 117.600 M 103 127.941 C 103 129.073, 103.450 130, 104 130 C 104.550 130, 105 129.352, 105 128.559 C 105 127.766, 104.550 126.840, 104 126.500 C 103.450 126.160, 103 126.809, 103 127.941 M 172.180 152.250 C 172.356 153.488, 172.950 154.500, 173.500 154.500 C 174.050 154.500, 174.644 153.488, 174.820 152.250 C 175.039 150.702, 174.628 150, 173.500 150 C 172.372 150, 171.961 150.702, 172.180 152.250 M 158.428 191.116 C 158.128 191.602, 159.146 192.031, 160.691 192.069 C 162.236 192.107, 164.730 192.300, 166.234 192.499 C 167.738 192.698, 169.227 192.442, 169.543 191.930 C 169.859 191.419, 169.079 190.951, 167.809 190.890 C 166.539 190.830, 164.032 190.657, 162.237 190.507 C 160.443 190.356, 158.728 190.630, 158.428 191.116 M 107 203.500 C 107 204.325, 106.966 205.326, 106.925 205.725 C 106.884 206.124, 107.334 206.611, 107.925 206.808 C 108.516 207.005, 109 206.004, 109 204.583 C 109 203.162, 108.550 202, 108 202 C 107.450 202, 107 202.675, 107 203.500 M 165 240 C 165 240.550, 166.377 241, 168.059 241 C 169.844 241, 170.861 240.583, 170.500 240 C 170.160 239.450, 168.784 239, 167.441 239 C 166.098 239, 165 239.450, 165 240 M 174.500 242 C 174.840 242.550, 176.104 242.993, 177.309 242.985 C 179.090 242.972, 179.219 242.788, 178 242 C 176.030 240.727, 173.713 240.727, 174.500 242 M 187.813 247.683 C 188.534 247.972, 189.397 247.936, 189.729 247.604 C 190.061 247.272, 189.471 247.036, 188.417 247.079 C 187.252 247.127, 187.015 247.364, 187.813 247.683 M 205.336 249.567 C 204.590 251.511, 205.548 252.409, 209.937 253.877 C 214.992 255.567, 216.445 253.613, 212.500 250.430 C 209.051 247.647, 206.204 247.304, 205.336 249.567" stroke="none" fill="black" fill-rule="evenodd"/>
</svg>