<svg xmlns="http://www.w3.org/2000/svg" width="300" height="300" viewBox="0 0 300 300" version="1.1">
	<path d="M 117.714 14.302 C 117.123 15.842, 119.326 21.466, 120.901 22.439 C 121.506 22.812, 121.948 24.779, 121.884 26.809 C 121.820 28.839, 121.562 29.712, 121.311 28.750 C 120.380 25.188, 118.825 27.005, 119.481 30.887 C 119.842 33.025, 119.683 36.513, 119.126 38.637 C 118.570 40.762, 117.931 46.011, 117.705 50.302 C 117.480 54.594, 116.891 58.495, 116.398 58.972 C 115.904 59.448, 112.958 60.301, 109.851 60.866 C 106.744 61.432, 102.099 62.883, 99.529 64.091 C 95.318 66.071, 94.920 66.546, 95.509 68.892 C 95.868 70.324, 96.316 71.649, 96.504 71.837 C 97.094 72.428, 108.066 69.702, 108.605 68.831 C 109.347 67.629, 112.245 67.868, 114.088 69.282 C 115.510 70.373, 115.530 71.219, 114.281 77.380 C 112.709 85.133, 113.116 87.978, 115.512 85.990 C 116.330 85.311, 117 83.971, 117 83.012 C 117 82.054, 117.919 80.101, 119.043 78.673 C 120.168 77.242, 121.354 73.806, 121.684 71.022 C 122.325 65.610, 122.211 65.697, 130.043 64.661 C 135.984 63.876, 148.703 57.967, 153.009 53.991 C 156.781 50.509, 157.714 50.164, 165.789 49.256 C 170.580 48.718, 174.835 48.572, 175.244 48.933 C 176.373 49.927, 176.296 53.783, 174.993 61.342 C 174.345 65.105, 174.039 69.043, 174.314 70.092 C 174.588 71.141, 174.455 72, 174.018 72 C 173.580 72, 172.915 73.688, 172.538 75.750 C 172.161 77.813, 170.986 80.988, 169.927 82.807 C 167.544 86.897, 167.506 88.001, 169.750 87.995 C 172.076 87.988, 177.357 76.569, 178.955 68.090 C 179.620 64.564, 180.751 60.739, 181.470 59.590 C 182.188 58.440, 183.065 55.845, 183.420 53.821 C 183.774 51.798, 184.837 49.258, 185.782 48.176 C 187.322 46.412, 193.452 44.181, 201.315 42.523 C 203.517 42.059, 204.061 41.447, 203.815 39.715 C 203.547 37.827, 202.781 37.454, 198.639 37.191 C 195.966 37.021, 192.466 37.339, 190.861 37.898 C 187.500 39.070, 185 38.417, 185 36.368 C 185 35.588, 185.851 32.528, 186.892 29.567 C 189.460 22.260, 188.144 21.055, 182.232 25.297 L 177.770 28.500 178.365 34.203 C 178.723 37.641, 178.557 40.156, 177.945 40.534 C 177.387 40.879, 172.334 41.581, 166.715 42.095 C 158.752 42.824, 156.280 43.411, 155.500 44.757 C 152.688 49.614, 147.727 52.962, 139.740 55.395 C 135.208 56.775, 129.522 58.219, 127.104 58.603 C 122.749 59.296, 122.713 59.278, 123.360 56.701 C 123.719 55.271, 124.464 49.015, 125.014 42.800 C 125.565 36.585, 126.274 30.348, 126.588 28.939 C 126.963 27.261, 126.616 25.926, 125.580 25.067 C 124.648 24.293, 124 22.199, 124 19.959 C 124 17.872, 123.727 15.452, 123.393 14.582 C 122.662 12.678, 118.418 12.469, 117.714 14.302 M 174 46 C 174 46.550, 174.450 47, 175 47 C 175.550 47, 176 46.550, 176 46 C 176 45.450, 175.550 45, 175 45 C 174.450 45, 174 45.450, 174 46 M 89.500 69 C 88.771 70.180, 89.717 72, 91.059 72 C 91.577 72, 92 71.100, 92 70 C 92 67.891, 90.545 67.309, 89.500 69 M 142.553 79.250 C 141.453 82.828, 141.242 90.842, 142.221 91.821 C 143.013 92.613, 142.973 93.328, 142.075 94.410 C 140.253 96.605, 141.659 99.863, 146.645 105 C 150.664 109.140, 150.872 109.604, 149.256 110.795 C 148.285 111.511, 146.435 111.822, 145.118 111.492 C 143.808 111.164, 137.733 111.366, 131.618 111.941 C 113.866 113.609, 90.052 116.105, 83 117.036 C 79.425 117.508, 75.020 117.639, 73.210 117.328 C 70.892 116.929, 69.360 117.269, 68.023 118.479 C 66.980 119.423, 65.699 119.932, 65.176 119.609 C 63.913 118.828, 61.652 121.627, 62.473 122.956 C 63.266 124.240, 66 124.343, 66 123.088 C 66 121.862, 68.730 122.330, 70.210 123.810 C 70.882 124.482, 74.187 125, 77.807 125 C 83.062 125, 84.112 124.733, 83.644 123.515 C 83.313 122.651, 83.868 121.606, 84.971 121.015 C 87.383 119.725, 89 119.719, 89 121 C 89 121.550, 87.987 122.014, 86.750 122.030 C 84.854 122.056, 84.755 122.210, 86.122 123.009 C 87.015 123.530, 89.715 123.710, 92.122 123.408 C 94.530 123.107, 98.975 122.673, 102 122.446 C 110.149 121.832, 112.276 121.162, 111.608 119.420 C 110.886 117.540, 113.732 116.332, 115.267 117.867 C 116.111 118.711, 116.094 119, 115.200 119 C 114.540 119, 114 119.426, 114 119.947 C 114 120.897, 120.972 121.144, 124.250 120.310 C 125.213 120.066, 126 119.221, 126 118.433 C 126 117.571, 126.997 117, 128.500 117 C 131.603 117, 131.698 117.768, 128.750 119.019 C 126.548 119.953, 130.864 119.863, 152.127 118.529 C 156.322 118.266, 165.322 117.765, 172.127 117.415 C 178.932 117.065, 185.228 116.395, 186.118 115.925 C 187.007 115.456, 193.635 114.595, 200.846 114.012 C 215.525 112.827, 216.630 112.559, 218.083 109.845 C 220.284 105.732, 217.259 102.720, 213.142 104.924 C 212.192 105.432, 206.934 106.114, 201.457 106.439 C 195.981 106.764, 189.025 107.446, 186 107.955 C 182.975 108.463, 175.567 109.139, 169.537 109.456 L 158.574 110.033 154.673 105.766 C 151.167 101.931, 150.743 100.893, 150.485 95.500 C 150.205 89.635, 149.770 87.884, 146.945 81.250 C 145.551 77.976, 143.265 76.935, 142.553 79.250 M 192.016 112.057 C 190.099 113.126, 189.262 114, 190.155 114 C 191.048 114, 192.841 113.115, 194.139 112.033 C 197.102 109.565, 196.474 109.572, 192.016 112.057 M 166 114 C 164.887 114.720, 165.481 114.973, 168.309 114.985 C 170.597 114.994, 171.871 114.601, 171.500 114 C 170.719 112.736, 167.956 112.736, 166 114 M 178.500 114 C 177.713 115.273, 180.030 115.273, 182 114 C 183.219 113.212, 183.090 113.028, 181.309 113.015 C 180.104 113.007, 178.840 113.450, 178.500 114 M 159.500 115 C 159.149 115.567, 159.990 116, 161.441 116 C 162.848 116, 164 115.550, 164 115 C 164 114.450, 163.127 114, 162.059 114 C 160.991 114, 159.840 114.450, 159.500 115 M 140 116 C 140 116.550, 140.900 117, 142 117 C 143.100 117, 144 116.550, 144 116 C 144 115.450, 143.100 115, 142 115 C 140.900 115, 140 115.450, 140 116 M 117.500 118 C 117.160 118.550, 117.557 119, 118.382 119 C 119.207 119, 120.160 118.550, 120.500 118 C 120.840 117.450, 120.443 117, 119.618 117 C 118.793 117, 117.840 117.450, 117.500 118 M 97.500 120 C 97.840 120.550, 99.216 121, 100.559 121 C 101.902 121, 103 120.550, 103 120 C 103 119.450, 101.623 119, 99.941 119 C 98.156 119, 97.139 119.417, 97.500 120 M 76.500 122 C 76.160 122.550, 76.584 123, 77.441 123 C 78.298 123, 79 122.550, 79 122 C 79 121.450, 78.577 121, 78.059 121 C 77.541 121, 76.840 121.450, 76.500 122 M 116.937 129.576 C 116.028 130.671, 115.959 131.358, 116.710 131.826 C 117.304 132.197, 118.035 134.975, 118.333 138 C 118.630 141.025, 119.193 145.975, 119.583 149 C 119.972 152.025, 120.338 156.264, 120.395 158.420 C 120.489 161.941, 120.203 162.420, 117.578 163.129 C 115.970 163.564, 105.644 164.122, 94.630 164.369 C 77.132 164.762, 74.446 165.037, 73.342 166.548 C 72.454 167.762, 72.374 168.831, 73.074 170.138 C 74.338 172.500, 75.111 172.477, 77.770 170 C 80.005 167.918, 83 167.311, 83 168.941 C 83 169.459, 82.550 170.160, 82 170.500 C 80.027 171.720, 80.976 173.241, 83.250 172.504 C 84.487 172.103, 89.213 171.860, 93.750 171.965 C 99.100 172.089, 102 171.777, 102 171.078 C 102 170.485, 101.523 170, 100.941 170 C 100.359 170, 100.148 169.570, 100.473 169.044 C 100.798 168.518, 101.722 168.340, 102.526 168.648 C 103.331 168.957, 103.771 169.561, 103.506 169.991 C 102.864 171.029, 105.372 171.602, 111.750 171.874 C 114.891 172.009, 117 171.677, 117 171.049 C 117 170.472, 115.763 169.984, 114.250 169.965 L 111.500 169.929 113.828 168.637 C 115.109 167.927, 117.134 167.455, 118.328 167.590 C 119.523 167.724, 121.175 167.885, 122 167.948 C 123.165 168.038, 123.067 168.391, 121.559 169.532 C 119.946 170.752, 119.891 171, 121.236 171 C 122.126 171, 123.740 172.125, 124.821 173.500 C 127.433 176.820, 128.698 176.652, 129.527 172.875 C 130.002 170.716, 129.794 169.484, 128.857 168.890 C 127.807 168.225, 127.905 168.027, 129.292 168.015 C 130.277 168.007, 132.062 168.911, 133.257 170.025 C 134.452 171.138, 136.106 171.790, 136.933 171.472 C 142.369 169.386, 169.670 167.656, 170.705 169.332 C 171.045 169.882, 170.076 171.325, 168.553 172.540 C 166.779 173.954, 166.185 174.996, 166.901 175.439 C 168.628 176.506, 172.106 175.075, 176.570 171.459 C 180.052 168.638, 181.425 168.160, 186.070 168.151 C 189.057 168.146, 193.975 167.434, 197 166.570 C 200.025 165.705, 204.669 164.781, 207.320 164.515 C 213.237 163.922, 214 163.480, 214 160.641 C 214 155.330, 209.740 154.798, 197.050 158.521 C 192.403 159.885, 188.228 160.628, 187.772 160.172 C 187.316 159.716, 187.907 158.116, 189.087 156.617 C 190.437 154.900, 191.495 151.653, 191.944 147.844 C 192.984 139.018, 192.374 138.588, 176.500 136.945 C 169.350 136.205, 161.700 135.649, 159.500 135.710 C 139.136 136.274, 128.270 136.734, 127.068 137.083 C 126.151 137.350, 124.805 135.790, 123.328 132.750 C 120.920 127.795, 119.146 126.914, 116.937 129.576 M 170 142 C 170 142.550, 170.450 143, 171 143 C 171.550 143, 172 142.550, 172 142 C 172 141.450, 171.550 141, 171 141 C 170.450 141, 170 141.450, 170 142 M 156 143.083 C 154.075 143.605, 148.450 143.948, 143.500 143.844 C 129.353 143.547, 126.278 143.833, 125.636 145.507 C 125.093 146.922, 126.709 163.043, 127.471 163.804 C 127.664 163.997, 132.025 163.663, 137.161 163.061 C 142.297 162.459, 153.892 161.802, 162.927 161.601 C 177.366 161.280, 179.515 161.017, 180.677 159.427 C 181.405 158.432, 182 156.984, 182 156.210 C 182 155.436, 182.713 153.299, 183.585 151.462 C 186.502 145.316, 185.661 144.576, 174.990 143.893 C 169.770 143.559, 164.150 143.027, 162.500 142.710 C 160.850 142.393, 157.925 142.561, 156 143.083 M 92.750 168.662 C 93.438 168.940, 94.563 168.940, 95.250 168.662 C 95.938 168.385, 95.375 168.158, 94 168.158 C 92.625 168.158, 92.063 168.385, 92.750 168.662 M 161.115 181.548 C 158.824 182.542, 152.909 183.152, 142.806 183.435 C 133.964 183.683, 127.336 184.306, 126.544 184.963 C 125.101 186.161, 125.642 190.340, 127.121 189.425 C 127.613 189.121, 128.719 189.576, 129.579 190.436 C 130.439 191.296, 131.973 192, 132.988 192 C 136.192 192, 135.778 194.283, 131.575 199.792 C 122.689 211.439, 108.046 225.331, 98.634 231.043 C 90.381 236.051, 89.469 236.905, 89.180 239.888 C 88.864 243.141, 88.909 243.180, 92.180 242.499 C 96.326 241.636, 101.820 238.067, 102.569 235.750 C 102.880 234.787, 103.667 233.989, 104.317 233.976 C 106.587 233.929, 118.481 223.229, 122.696 217.443 C 124.194 215.387, 125.164 214.917, 126.827 215.445 C 128.758 216.058, 129 216.844, 129 222.508 C 129 226.014, 128.550 229.160, 128 229.500 C 126.751 230.272, 126.716 236.003, 127.949 237.952 C 128.455 238.751, 128.565 239.876, 128.194 240.452 C 127.153 242.070, 123.215 270.976, 122.683 280.905 C 122.477 284.739, 124.006 285.851, 126.312 283.545 C 127.162 282.695, 128.339 282, 128.929 282 C 130.538 282, 130.217 283.980, 128.500 284.638 C 127.098 285.176, 126.317 288, 127.570 288 C 127.883 288, 130.021 286.749, 132.320 285.219 C 134.619 283.690, 137.746 281.810, 139.268 281.041 C 142.823 279.245, 153 268.603, 153 266.681 C 153 263.518, 150.116 264.442, 143.946 269.584 C 140.401 272.537, 137.050 274.967, 136.500 274.983 C 135.950 274.999, 134.186 275.698, 132.579 276.535 C 128.670 278.574, 127.677 277.280, 129.026 271.909 C 129.635 269.484, 130.532 265.475, 131.019 263 C 132.570 255.111, 134.785 222.763, 134.278 215.388 C 133.803 208.463, 133.885 208.147, 137.394 203.388 C 139.376 200.700, 141.758 197.035, 142.687 195.245 C 144.573 191.609, 148.496 190.050, 156 189.953 C 161.416 189.883, 173.334 184.398, 173.823 181.750 C 174.096 180.276, 173.385 180.006, 169.323 180.039 C 166.670 180.061, 162.977 180.739, 161.115 181.548 M 188.243 204.157 C 187.559 204.841, 187 205.882, 187 206.472 C 187 207.889, 170.777 224, 169.350 224 C 168.358 224, 167.268 221.882, 165.645 216.802 C 164.808 214.181, 159.189 211.598, 157.455 213.038 C 156.254 214.034, 156.263 214.609, 157.521 217.040 C 158.328 218.601, 159.927 220.536, 161.074 221.339 C 162.221 222.143, 163.052 223.633, 162.921 224.650 C 162.517 227.779, 164.131 232, 166.143 233.077 C 167.503 233.804, 167.994 235.026, 167.841 237.300 C 167.630 240.434, 170.364 246, 172.115 246 C 172.602 246, 173 246.839, 173 247.864 C 173 248.890, 174.345 251.252, 175.989 253.114 C 177.633 254.977, 178.818 256.950, 178.621 257.500 C 177.992 259.257, 179.883 263, 181.400 263 C 182.206 263, 183.151 263.900, 183.500 265 C 183.849 266.100, 184.779 267, 185.567 267 C 186.493 267, 187 268.063, 187 270 C 187 272.304, 187.451 273, 188.943 273 C 190.012 273, 191.524 273.910, 192.303 275.022 C 193.155 276.239, 194.342 276.806, 195.283 276.445 C 196.179 276.101, 197.731 276.731, 198.923 277.923 C 200.065 279.065, 201.563 280.007, 202.250 280.015 C 202.938 280.024, 204.175 280.487, 205 281.046 C 206.108 281.795, 205.715 281.904, 203.500 281.462 C 200.619 280.888, 200.579 280.927, 202.481 282.461 C 203.775 283.504, 205.421 283.847, 207.231 283.449 C 209.358 282.982, 210 283.213, 210 284.445 C 210 285.328, 211.154 286.488, 212.565 287.025 C 216.031 288.343, 237.316 288.321, 236.500 287 C 236.160 286.450, 234.831 286, 233.546 286 C 228.010 286, 213.875 280.552, 201.122 273.502 C 197.250 271.362, 186.107 260.108, 183.947 256.157 C 182.847 254.146, 180.212 249.315, 178.091 245.422 C 174.351 238.557, 171.722 228, 173.753 228 C 174.270 228, 176.288 226.537, 178.237 224.750 C 180.185 222.963, 183.877 219.925, 186.439 218 C 194.687 211.805, 197.666 203.870, 191.993 203.207 C 190.614 203.046, 188.927 203.473, 188.243 204.157" stroke="none" fill="black" fill-rule="evenodd"/>
</svg>