<svg xmlns="http://www.w3.org/2000/svg" width="300" height="300" viewBox="0 0 300 300" version="1.1">
	<path d="M 106.750 14.572 C 103.496 16.337, 103.247 17.570, 106 18.290 C 107.100 18.577, 108 19.582, 108 20.523 C 108 21.774, 107.430 22.084, 105.877 21.678 C 103.868 21.153, 103.791 21.376, 104.453 25.811 C 105.141 30.424, 105.207 39.126, 104.559 39.774 C 104.377 39.956, 99.804 40.558, 94.396 41.111 C 88.989 41.664, 83.987 42.596, 83.282 43.181 C 82.577 43.766, 82 45.487, 82 47.006 C 82 50.628, 83.782 51.026, 94.444 49.783 C 107.016 48.318, 107.721 48.646, 108.332 56.248 C 109.087 65.628, 110.504 72.904, 111.835 74.235 C 113.712 76.112, 117.531 71.869, 116.213 69.372 C 114.791 66.680, 113.848 49.212, 115.082 48.449 C 115.633 48.109, 123.395 48.391, 132.330 49.077 C 149.753 50.414, 154.343 50.019, 153.806 47.229 C 153.461 45.437, 151.030 44.767, 138.500 43.008 C 126.056 41.261, 114.519 38.741, 113.768 37.607 C 113.365 36.998, 113.140 31.959, 113.268 26.409 C 113.437 19.047, 113.129 15.870, 112.128 14.659 C 110.482 12.670, 110.262 12.667, 106.750 14.572 M 190.768 21 C 189.876 22.428, 188.436 23, 185.735 23 C 182.593 23, 181.785 23.435, 180.975 25.565 C 180.439 26.976, 180 29.639, 180 31.483 C 180 37.722, 179.599 38, 170.593 38 C 161.834 38, 160 38.818, 160 42.725 C 160 45.795, 163.854 47.239, 171 46.846 C 174.025 46.679, 177.026 46.875, 177.668 47.280 C 178.866 48.036, 178.816 54.898, 177.425 80.339 C 176.967 88.721, 177.115 92.515, 177.931 93.331 C 179.665 95.065, 180.967 92.350, 180.985 86.960 C 180.993 84.463, 181.675 79.829, 182.500 76.661 C 183.325 73.494, 184 69.560, 184 67.919 C 184 66.278, 184.675 63.320, 185.500 61.346 C 186.325 59.371, 187.007 55.898, 187.015 53.628 C 187.040 46.492, 188.670 44.606, 195.527 43.782 C 205.674 42.562, 209.505 42.692, 212.748 44.370 C 216.565 46.344, 219 45.582, 219 42.413 C 219 37.437, 204.486 33.391, 195.519 35.867 C 192.352 36.742, 191.257 36.686, 190.164 35.593 C 189.008 34.437, 189.003 33.633, 190.133 30.509 C 190.871 28.468, 192.545 25.728, 193.853 24.420 C 196.353 21.920, 196.185 19, 193.540 19 C 192.702 19, 191.455 19.900, 190.768 21 M 172.750 42.365 C 170.688 42.908, 169 43.773, 169 44.288 C 169 45.350, 176.036 44.293, 177.337 43.035 C 178.775 41.645, 176.658 41.336, 172.750 42.365 M 167 90.966 C 166.175 91.455, 164.766 92.079, 163.868 92.351 C 162.860 92.657, 161.769 94.882, 161.013 98.173 C 158.955 107.133, 153.816 123.302, 151.855 126.985 C 150.835 128.902, 150 132.107, 150 134.108 C 150 136.109, 149.096 139.789, 147.992 142.286 C 144.502 150.175, 148.484 154.397, 158.306 153.223 C 161.941 152.789, 162.098 152.889, 161.806 155.464 C 161.505 158.114, 163.175 159.487, 171 163.026 C 173.833 164.307, 173.061 167.450, 168.758 172.151 C 166.416 174.709, 163.086 177.644, 161.358 178.674 C 158.069 180.634, 150 190.137, 150 192.050 C 150 192.762, 151.074 192.923, 153 192.500 C 155.626 191.923, 156 192.116, 156 194.048 C 156 196.094, 156.345 196.213, 160.750 195.680 C 163.363 195.364, 168.875 194.407, 173 193.554 C 185.502 190.968, 186.927 191.485, 182.898 197.144 C 181.341 199.330, 180.954 200.943, 181.407 203.358 C 181.744 205.151, 182.068 211.280, 182.127 216.977 C 182.187 222.674, 182.624 228.687, 183.097 230.340 C 183.627 232.187, 183.576 233.806, 182.963 234.544 C 181.309 236.537, 180.469 257.655, 181.972 259.466 C 182.672 260.310, 182.812 261, 182.283 261 C 181.754 261, 180.838 262.061, 180.247 263.357 C 178.738 266.670, 180.750 270.500, 184 270.500 C 187.238 270.500, 189.234 266.654, 188.526 261.777 C 188.228 259.730, 188.421 253.880, 188.954 248.777 C 189.487 243.675, 190.175 228.488, 190.483 215.029 C 190.791 201.569, 191.419 190.181, 191.880 189.720 C 192.340 189.260, 195.488 188.714, 198.874 188.508 L 205.032 188.132 209.766 195.678 C 219.764 211.614, 219.552 211.422, 221.850 206.627 C 223.076 204.068, 222.999 203.249, 221.141 199.127 C 219.994 196.582, 218.311 191.826, 217.401 188.558 C 216.491 185.289, 214.918 181.914, 213.905 181.058 C 212.881 180.192, 211.714 177.326, 211.276 174.606 C 210.212 167.989, 207.782 166.461, 204.439 170.306 C 202.761 172.237, 202 174.314, 202 176.966 L 202 180.820 193.250 181.485 C 188.438 181.851, 183.150 182.527, 181.500 182.987 C 179.850 183.447, 175.472 184.100, 171.772 184.438 C 165.995 184.964, 165.126 184.835, 165.629 183.526 C 165.951 182.687, 166.772 182, 167.454 182 C 168.604 182, 170.455 180.455, 180.173 171.379 C 182.192 169.493, 185.216 165.880, 186.891 163.351 C 191.310 156.680, 199.912 147.163, 202.171 146.446 C 205.077 145.523, 204.193 141.578, 201 141.218 C 197.800 140.858, 189.811 144.886, 188.503 147.521 C 187.092 150.362, 182.800 156.357, 181.548 157.235 C 179.612 158.592, 176.325 158.016, 174.500 156 C 173.505 154.900, 171.938 154, 171.019 154 C 169.496 154, 167.308 152.047, 164.253 147.959 C 163.333 146.727, 163.522 146.155, 165.196 145.110 C 167.017 143.973, 167.210 144.011, 166.676 145.401 C 165.097 149.517, 169.548 146.203, 177.171 137.586 C 181.752 132.409, 186.111 128.134, 186.858 128.086 C 190.168 127.876, 204 110.172, 204 106.146 C 204 104.455, 203.398 104, 201.160 104 C 198.874 104, 197.365 105.208, 193.410 110.207 C 190.710 113.620, 187.591 117.845, 186.480 119.596 C 185.369 121.346, 182.080 124.660, 179.172 126.958 C 176.264 129.257, 173.596 131.894, 173.244 132.819 C 171.534 137.306, 160.598 145.514, 155.201 146.363 L 150.901 147.039 153.451 143.288 C 154.853 141.224, 156 138.128, 156 136.407 C 156 134.687, 157.169 131.556, 158.598 129.451 C 161.884 124.609, 166.433 114.711, 168.541 107.818 C 169.436 104.893, 170.845 100.876, 171.672 98.891 C 174.372 92.415, 171.829 88.102, 167 90.966 M 93.818 101.324 C 89.043 101.971, 84.805 102.838, 84.401 103.250 C 83.997 103.662, 82.440 104, 80.940 104 C 79.439 104, 77.955 104.674, 77.638 105.500 C 77.252 106.506, 77.683 107, 78.948 107 C 79.985 107, 81.010 106.470, 81.226 105.823 C 81.791 104.126, 83.957 105.756, 85.087 108.730 C 86.023 111.190, 86.250 111.247, 92.776 110.647 C 96.474 110.307, 101.852 109.741, 104.727 109.390 C 112.033 108.496, 117 110.832, 117 115.163 C 117 118.217, 110.838 128, 108.915 128 C 108.412 128, 108 128.633, 108 129.407 C 108 130.181, 105.653 132.768, 102.784 135.157 C 92.744 143.517, 90.130 147.730, 93.127 150.727 C 93.839 151.439, 93.962 152.893, 93.463 154.677 C 93.028 156.230, 92.798 157.950, 92.953 158.500 C 93.107 159.050, 94.025 162.875, 94.992 167 C 100.288 189.597, 100.312 189.300, 93.254 188.822 C 85.877 188.322, 59.640 190.081, 58.318 191.164 C 57.563 191.782, 55.892 191.788, 53.692 191.181 C 49.484 190.019, 47.716 190.956, 48.163 194.113 C 48.399 195.782, 49.252 196.603, 51 196.841 C 52.375 197.029, 54.280 197.879, 55.233 198.731 C 56.617 199.967, 58.129 200.121, 62.733 199.492 C 65.905 199.059, 70.001 198.774, 71.836 198.859 C 73.670 198.943, 75.695 198.672, 76.336 198.256 C 78.652 196.752, 97.325 196.568, 100.043 198.023 C 102.329 199.247, 103.146 203.338, 103.680 216.250 C 104.031 224.725, 104.429 227, 105.562 227 C 106.446 227, 107 228.008, 107 229.617 C 107 231.712, 106.614 232.132, 105.065 231.727 C 102.667 231.100, 102 232.684, 102 239.001 C 102 250.532, 95.752 253.334, 85.375 246.456 C 79.857 242.799, 69.782 233.267, 66.445 228.548 C 65.192 226.776, 63.923 225.930, 63.195 226.380 C 61.180 227.625, 61.843 230.305, 65.579 236.023 C 72.863 247.169, 81.310 253.618, 89.703 254.440 C 92.146 254.679, 94.781 255.403, 95.559 256.049 C 98.684 258.643, 104.149 254.530, 108.899 246.009 C 110.675 242.824, 111.659 209.576, 110.168 203.127 C 109.612 200.722, 109.369 198.201, 109.629 197.525 C 109.939 196.716, 113.704 196.092, 120.636 195.699 C 126.431 195.371, 131.718 194.649, 132.385 194.095 C 133.053 193.541, 135.481 192.787, 137.781 192.419 C 142.433 191.675, 144.542 189.856, 143.600 187.399 C 143.148 186.223, 142.356 185.977, 140.738 186.510 C 138.653 187.197, 108.893 188.940, 108.174 188.418 C 107.994 188.287, 106.518 181.560, 104.894 173.468 C 103.269 165.376, 101.503 157.940, 100.970 156.944 C 100.436 155.947, 100 153.177, 100 150.789 C 100 147.406, 100.619 145.788, 102.800 143.473 C 106.163 139.903, 111.778 135, 112.504 135 C 112.791 135, 115.252 132.900, 117.972 130.332 C 123.442 125.169, 125.954 120.055, 126.239 113.500 C 126.392 109.996, 125.956 108.764, 123.964 107.061 C 116.666 100.823, 108.707 99.308, 93.818 101.324 M 179.500 130 C 179.160 130.550, 179.359 131, 179.941 131 C 180.523 131, 181 130.550, 181 130 C 181 129.450, 180.802 129, 180.559 129 C 180.316 129, 179.840 129.450, 179.500 130 M 172.459 138.067 C 172.096 138.653, 172.014 139.348, 172.276 139.610 C 172.538 139.872, 173.019 139.392, 173.345 138.543 C 174.021 136.781, 173.445 136.471, 172.459 138.067 M 179.199 187.050 C 177.384 187.445, 175.584 188.109, 175.199 188.526 C 174.418 189.372, 181.935 188.398, 182.791 187.543 C 183.818 186.515, 182.493 186.334, 179.199 187.050 M 88.599 192.840 C 88.269 193.375, 87.211 193.694, 86.249 193.550 C 85.287 193.405, 85.063 193.480, 85.750 193.717 C 86.438 193.953, 87 194.564, 87 195.073 C 87 196.624, 88.745 196.107, 89.417 194.357 C 90.130 192.496, 89.516 191.356, 88.599 192.840 M 92.500 193 C 92.840 193.550, 93.793 194, 94.618 194 C 95.443 194, 95.840 193.550, 95.500 193 C 95.160 192.450, 94.207 192, 93.382 192 C 92.557 192, 92.160 192.450, 92.500 193 M 77 195 C 77 195.550, 77.675 196, 78.500 196 C 79.325 196, 80 195.550, 80 195 C 80 194.450, 79.325 194, 78.500 194 C 77.675 194, 77 194.450, 77 195 M 69 196 C 67.865 196.734, 68.305 196.973, 70.809 196.985 C 72.764 196.994, 73.865 196.591, 73.500 196 C 72.724 194.744, 70.944 194.744, 69 196 M 155.667 213.816 C 154.763 214.814, 153.719 217.157, 153.346 219.022 C 152.973 220.886, 152.070 223.557, 151.340 224.956 C 150.610 226.355, 150.010 228.114, 150.006 228.864 C 150.003 229.614, 149.161 231.864, 148.136 233.864 C 147.112 235.864, 145.774 239.075, 145.163 241 C 143.999 244.675, 144.599 249.366, 146.114 248.430 C 146.601 248.128, 147 248.610, 147 249.500 C 147 250.390, 146.573 250.854, 146.051 250.531 C 144.629 249.653, 143.525 256.925, 144.875 258.275 C 145.494 258.894, 146 260.620, 146 262.111 C 146 264.914, 150.832 270, 153.495 270 C 156.179 270, 158 268.744, 158 266.893 C 158 265.563, 157.288 265, 155.607 265 C 154.291 265, 152.941 264.288, 152.607 263.418 C 150.720 258.500, 153.071 237.029, 155.866 233.662 C 156.427 232.985, 157.337 229.633, 157.888 226.214 C 158.857 220.200, 161.054 215.387, 162.273 216.606 C 162.600 216.933, 163.376 216.886, 163.999 216.501 C 165.667 215.470, 162.199 212, 159.500 212 C 158.295 212, 156.571 212.817, 155.667 213.816 M 202.025 222.696 C 200.911 224.111, 200 225.868, 200 226.600 C 200 227.697, 203.143 230.108, 204.978 230.419 C 205.241 230.464, 205.537 231.054, 205.637 231.730 C 205.736 232.407, 206.518 233.660, 207.374 234.516 C 208.230 235.372, 209.718 237.407, 210.681 239.038 C 211.645 240.668, 213.132 242.224, 213.986 242.496 C 214.841 242.767, 220.031 247.266, 225.520 252.494 C 231.009 257.722, 236.063 262, 236.750 262 C 237.496 262, 237.996 260.689, 237.990 258.750 C 237.981 255.950, 236.184 253.631, 225.011 242 C 217.691 234.379, 211.576 227.119, 210.970 225.330 C 210.256 223.219, 208.921 221.819, 206.974 221.141 C 204.397 220.242, 203.809 220.427, 202.025 222.696 M 184.158 229 C 184.158 230.375, 184.385 230.938, 184.662 230.250 C 184.940 229.563, 184.940 228.438, 184.662 227.750 C 184.385 227.063, 184.158 227.625, 184.158 229" stroke="none" fill="black" fill-rule="evenodd"/>
</svg>