<svg xmlns="http://www.w3.org/2000/svg" width="300" height="300" viewBox="0 0 300 300" version="1.1">
	<path d="M 115.942 31.284 C 114.511 32.815, 114.048 34.273, 114.443 36 C 115.555 40.853, 114.971 63.441, 113.700 64.720 C 113.033 65.392, 109.230 66.244, 105.247 66.614 C 101.129 66.996, 97.522 67.872, 96.881 68.643 C 96.262 69.389, 95.121 70, 94.346 70 C 92.077 70, 91.608 72.909, 93.534 75.037 C 95.813 77.556, 96.564 77.512, 102.808 74.500 C 105.658 73.125, 108.612 72, 109.373 72 C 110.133 72, 111.315 71.325, 112 70.500 C 114.885 67.024, 115.795 68.822, 116.518 79.423 C 117.330 91.338, 119.403 96.367, 123.276 95.816 C 125.348 95.522, 125.491 95.020, 125.370 88.500 C 125.299 84.650, 124.912 78.054, 124.511 73.841 L 123.782 66.183 130.391 65.475 C 134.026 65.085, 137 64.358, 137 63.859 C 137 62.561, 132.431 61, 128.635 61 C 123.474 61, 123 59.811, 123 46.865 C 123 40.411, 122.584 34.037, 122.077 32.701 C 120.754 29.223, 118.382 28.675, 115.942 31.284 M 189.463 38.903 C 188.933 39.413, 187.375 39.981, 186 40.165 C 183.584 40.489, 183.480 40.816, 182.906 49.915 C 182.260 60.140, 180.976 62.388, 175.124 63.543 C 173.681 63.828, 169.575 64.836, 166 65.783 C 160.672 67.195, 159.443 67.908, 159.182 69.741 C 158.894 71.765, 159.169 71.916, 162.087 71.333 C 164.398 70.870, 165.109 71.015, 164.596 71.844 C 164.203 72.480, 163.009 73, 161.941 73 C 159.894 73, 159.551 73.766, 160.765 75.624 C 161.583 76.875, 166 75.667, 166 74.193 C 166 73.713, 167.125 72.808, 168.500 72.182 C 169.875 71.555, 171 70.358, 171 69.521 C 171 67.730, 172.576 67.505, 173.594 69.151 C 174.087 69.950, 174.715 69.743, 175.642 68.474 C 179.501 63.198, 179.158 74.049, 175.108 85.430 C 170.715 97.771, 169.915 101.684, 171.512 103.010 C 172.493 103.824, 173.888 102.645, 177.384 98.047 C 182.122 91.817, 184.675 85.845, 188.053 73.093 C 190.396 64.247, 191.398 62.811, 194.655 63.628 C 196.133 63.999, 197.748 63.664, 198.790 62.771 C 199.731 61.964, 201.287 61.025, 202.250 60.683 C 203.213 60.342, 204 59.311, 204 58.392 C 204 56.985, 203.245 56.811, 199.219 57.288 C 196.590 57.599, 193.777 57.999, 192.969 58.177 C 191.773 58.440, 191.570 57.386, 191.879 52.500 C 192.583 41.367, 192.504 38.685, 191.463 38.329 C 190.892 38.135, 189.992 38.393, 189.463 38.903 M 178 119.584 C 176.625 120.347, 173.925 121.229, 172 121.543 C 170.075 121.857, 165.107 122.960, 160.961 123.995 C 156.814 125.029, 150.964 126.155, 147.961 126.498 C 139.334 127.482, 138.174 127.875, 137.484 130.050 C 136.400 133.466, 138.804 135.287, 143.422 134.549 C 145.632 134.195, 147.768 133.375, 148.169 132.726 C 148.919 131.512, 159.973 129.219, 165.750 129.079 C 167.537 129.036, 169 128.543, 169 127.984 C 169 127.425, 170.250 127.064, 171.779 127.180 C 173.307 127.296, 175.211 126.987, 176.011 126.493 C 176.811 125.999, 178.148 125.498, 178.982 125.379 C 179.817 125.261, 181.481 124.858, 182.680 124.484 C 184.282 123.984, 185.208 124.360, 186.171 125.902 C 186.891 127.056, 187.823 128, 188.241 128 C 189.362 128, 189.163 122.173, 187.965 119.934 C 186.735 117.636, 181.820 117.464, 178 119.584 M 164.941 135.750 C 162.923 139.104, 162.706 140.661, 162.879 150.500 C 163.099 163.057, 161.165 185.885, 159.722 187.750 C 159.190 188.438, 157.540 189, 156.054 189 C 154.568 189, 149.336 189.637, 144.426 190.415 C 139.517 191.193, 130.402 192.360, 124.171 193.008 C 111.265 194.349, 107.489 195.248, 104.894 197.596 C 103.486 198.870, 103.299 199.690, 104.082 201.154 C 104.663 202.240, 105.599 202.748, 106.262 202.338 C 106.901 201.943, 108.956 201.723, 110.828 201.849 C 115.406 202.157, 120.783 200.273, 122.043 197.920 C 123.250 195.665, 125.828 195.387, 126.611 197.428 C 127.084 198.661, 127.703 198.663, 131.155 197.445 C 133.354 196.670, 136.130 196.029, 137.326 196.022 C 144.323 195.981, 149.022 195.121, 150.539 193.603 C 152.113 192.030, 156.515 192.067, 159.250 193.677 C 160.511 194.419, 160.063 204.179, 158.500 210 C 157.688 213.025, 157.007 219.550, 156.986 224.500 C 156.965 229.450, 156.499 238, 155.949 243.500 C 155.252 250.470, 155.294 258.196, 156.086 269 C 157.314 285.752, 158.565 289.838, 161.915 288.045 C 164.587 286.615, 165.337 278.347, 163.957 265.531 C 162.968 256.346, 163.024 254.209, 164.345 250.653 C 165.399 247.815, 165.957 242.225, 166.107 233 C 166.227 225.575, 166.707 217.700, 167.172 215.500 C 167.637 213.300, 168.598 207, 169.307 201.500 C 170.590 191.553, 170.611 191.502, 173.237 191.813 C 174.689 191.986, 176.956 191.420, 178.275 190.556 C 179.861 189.517, 181.733 189.197, 183.805 189.611 C 185.529 189.956, 187.740 189.918, 188.719 189.527 C 189.699 189.136, 193.016 188.669, 196.090 188.489 C 199.165 188.308, 203.215 187.530, 205.090 186.759 C 209.652 184.885, 216.727 185.621, 218.057 188.107 C 218.615 189.148, 219.755 190, 220.593 190 C 221.765 190, 222.044 189.023, 221.807 185.750 L 221.500 181.500 215.087 181.198 C 211.141 181.012, 205.244 181.686, 199.761 182.948 C 191.170 184.926, 180 185.709, 180 184.334 C 180 183.968, 180.668 182.955, 181.483 182.084 C 185.863 177.408, 192.876 167.940, 194.879 164 C 197.539 158.766, 198.968 146.716, 197.068 145.542 C 196.418 145.140, 194.787 145.088, 193.443 145.425 C 191.643 145.877, 191 146.716, 191 148.615 C 191 150.032, 190.123 152.422, 189.052 153.927 C 187.980 155.432, 186.224 158.877, 185.149 161.582 C 183.194 166.498, 178.490 174.734, 174.250 180.663 C 173.012 182.393, 172 184.302, 172 184.904 C 172 185.507, 171.488 186, 170.862 186 C 170.034 186, 169.962 183.889, 170.599 178.250 C 172.056 165.334, 171.742 135.597, 170.128 133.653 C 168.153 131.275, 167.467 131.553, 164.941 135.750 M 77.643 154.843 C 74.030 158.835, 76.851 161.656, 84.700 161.900 C 86.642 161.961, 88.244 161.387, 88.773 160.441 C 89.693 158.797, 89.797 158.821, 98.651 162.641 C 102.701 164.388, 108.318 164.455, 107.750 162.750 C 107.522 162.063, 106.486 161.336, 105.449 161.135 C 104.413 160.934, 102.044 159.610, 100.187 158.193 C 98.280 156.739, 94.564 155.243, 91.654 154.758 C 79.546 152.739, 79.546 152.739, 77.643 154.843 M 133.234 160.997 C 132.546 162.099, 131.087 163, 129.992 163 C 127.145 163, 127.464 166.153, 130.606 169.076 C 132.040 170.409, 134.610 173.525, 136.318 176 C 140.175 181.589, 142.651 183.734, 146.500 184.824 C 149.543 185.685, 155 184.514, 155 183 C 155 182.558, 153.762 181.754, 152.250 181.214 C 148.466 179.864, 144.561 176.174, 142.497 172 C 141.545 170.075, 139.844 167.491, 138.717 166.258 C 137.589 165.025, 136.594 163.026, 136.505 161.815 C 136.290 158.895, 134.782 158.518, 133.234 160.997 M 189 162.718 C 189 163.333, 188.711 164.661, 188.358 165.668 C 187.747 167.413, 187.804 167.417, 189.565 165.757 C 191.009 164.396, 191.150 163.750, 190.207 162.807 C 189.370 161.970, 189 161.943, 189 162.718 M 164 188.786 C 164 192.222, 165.369 193.087, 166.430 190.322 C 166.794 189.373, 166.406 187.978, 165.537 187.108 C 164.154 185.726, 164 185.894, 164 188.786 M 73.250 197.641 C 68.978 200.216, 67.974 202.574, 70.200 204.800 C 72.013 206.613, 75.802 206.239, 76.927 204.137 C 78.482 201.231, 84.734 200.645, 88.772 203.028 C 95.662 207.093, 96.074 203.883, 89.336 198.634 C 83.637 194.194, 79.400 193.932, 73.250 197.641 M 94 227.067 C 92.625 228.180, 90.375 229.563, 89 230.141 C 85.466 231.626, 76.257 234, 74.028 234 C 72.997 234, 70.881 235.048, 69.327 236.330 C 67.772 237.611, 65.713 238.947, 64.750 239.298 C 62.738 240.033, 62.438 243.038, 64.200 244.800 C 66.051 246.651, 70.489 246.222, 72.501 243.999 C 74.442 241.854, 83.978 237, 86.250 237 C 88.760 237, 99.933 227.988, 99.339 226.442 C 98.585 224.475, 96.970 224.665, 94 227.067 M 159.867 238 C 159.180 252.705, 159.232 255.168, 160.205 254.195 C 161.421 252.979, 161.919 237.472, 160.799 235.710 C 160.346 234.996, 159.964 235.937, 159.867 238" stroke="none" fill="black" fill-rule="evenodd"/>
</svg>