<svg xmlns="http://www.w3.org/2000/svg" width="300" height="300" viewBox="0 0 300 300" version="1.1">
	<path d="M 170.296 15.750 C 169.334 17.262, 168.252 18.725, 167.893 19 C 167.533 19.275, 167.056 25.456, 166.833 32.736 C 166.390 47.199, 165.950 48.340, 160.736 48.573 C 151.564 48.983, 145.908 50.294, 144.474 52.341 C 143.663 53.498, 143 55.235, 143 56.200 C 143 57.774, 143.936 57.912, 152.097 57.547 C 161.647 57.119, 163.642 56.498, 160.721 54.864 C 158.221 53.464, 159.612 51.722, 162.146 53.078 C 163.260 53.674, 163.924 54.410, 163.621 54.712 C 163.318 55.015, 163.720 56.190, 164.514 57.323 C 165.652 58.948, 165.826 61.538, 165.336 69.545 C 164.739 79.301, 165.265 81.787, 167.586 80.184 C 168.883 79.288, 171.806 69.713, 172.527 64 C 173.289 57.957, 176.768 54, 181.321 54 C 184.763 54, 198.319 50.019, 199.737 48.591 C 200.157 48.169, 201.963 47.211, 203.750 46.463 C 207.122 45.051, 207.735 43.242, 205.965 39.934 C 204.738 37.642, 201 37.331, 201 39.521 C 201 40.358, 199.988 41.458, 198.750 41.966 C 196.347 42.951, 185.932 45.413, 179.750 46.457 L 176 47.091 176.018 40.295 C 176.028 36.558, 176.458 29.485, 176.974 24.578 C 177.807 16.657, 177.721 15.511, 176.206 14.360 C 173.623 12.397, 172.220 12.727, 170.296 15.750 M 93.750 18.661 C 90.623 20.308, 90.420 21.164, 92.417 24.285 C 93.905 26.609, 95.992 41.157, 95.997 49.231 C 96 54.475, 96.229 54.324, 86.587 55.439 C 79.215 56.291, 75.664 58.732, 75.574 63.013 C 75.506 66.238, 75.707 66.478, 78.260 66.211 C 81.622 65.858, 88.195 62.124, 87.482 60.971 C 86.475 59.341, 88.866 59.009, 90.419 60.562 C 91.860 62.003, 92 61.960, 92 60.071 C 92 57.668, 93.248 57.389, 94.931 59.416 C 95.864 60.541, 95.734 60.929, 94.303 61.300 C 92.840 61.680, 92.912 61.790, 94.683 61.884 C 97.749 62.047, 98.211 64.433, 97.537 76.621 C 96.899 88.144, 98.007 92, 101.956 92 C 104.621 92, 105.133 89.620, 105.469 75.686 C 105.806 61.706, 106.293 59.803, 109.354 60.509 C 113.623 61.494, 129.305 62.930, 130.142 62.412 C 130.614 62.121, 131 61.338, 131 60.672 C 131 59.221, 114.763 54, 110.252 54 C 108.182 54, 106.725 53.355, 106.082 52.154 C 104.824 49.802, 102.662 34.234, 102.570 26.857 C 102.520 22.784, 101.970 20.628, 100.595 19.107 C 98.420 16.701, 97.575 16.646, 93.750 18.661 M 171.638 18.500 C 170.904 20.414, 171.928 23.162, 173.105 22.435 C 174.270 21.715, 174.272 17, 173.107 17 C 172.616 17, 171.955 17.675, 171.638 18.500 M 96 34.941 C 96 35.459, 96.450 36.160, 97 36.500 C 97.550 36.840, 98 36.416, 98 35.559 C 98 34.702, 97.550 34, 97 34 C 96.450 34, 96 34.423, 96 34.941 M 116.667 95.667 C 116.300 96.033, 116 97.772, 116 99.530 C 116 101.934, 114.821 104.042, 111.250 108.026 C 99.518 121.113, 91.450 129.033, 88.353 130.503 C 84.536 132.314, 84.101 133.532, 87 134.290 C 88.136 134.587, 89 135.654, 89 136.760 C 89 138.548, 90.012 138.764, 101.332 139.393 C 114.173 140.106, 119 139.323, 119 136.525 C 119 135.686, 119.498 135, 120.107 135 C 120.730 135, 120.934 135.730, 120.573 136.670 C 119.784 138.727, 121.838 140.157, 123.955 139.024 C 126.098 137.877, 133.282 137.438, 134.778 138.363 C 136.207 139.246, 136.506 153.569, 135.113 154.430 C 133.676 155.318, 113.576 157.128, 98.836 157.696 L 85.172 158.222 84.478 152.673 C 84.097 149.620, 83.676 144.958, 83.543 142.312 C 83.180 135.083, 83.151 135, 81.005 135 C 79.625 135, 78.421 136.310, 77.097 139.250 C 75.482 142.838, 75.104 146.694, 74.671 164 C 74.218 182.077, 73.270 190.877, 71.223 196 C 70.893 196.825, 70.596 198.400, 70.562 199.500 C 70.509 201.221, 69.906 201.463, 66.250 201.232 C 63.913 201.084, 62 201.332, 62 201.782 C 62 203.395, 64.446 205.001, 66.950 205.032 C 68.352 205.049, 70.325 205.689, 71.333 206.452 C 73.101 207.793, 73.096 207.878, 71.201 208.892 C 69.776 209.655, 68.909 211.804, 68.040 216.722 C 67.382 220.450, 66.036 225.525, 65.050 228 C 64.064 230.475, 62.989 234.589, 62.662 237.142 C 62.154 241.111, 62.337 241.855, 63.923 242.270 C 64.944 242.537, 66.216 242.473, 66.750 242.127 C 69.187 240.553, 72.486 231.799, 76.433 216.432 C 78.759 207.377, 79.167 207.004, 86.785 206.968 C 92.656 206.940, 93.275 206.766, 91.711 205.579 C 90.065 204.331, 90.051 204.092, 91.532 202.611 C 94.028 200.115, 95.985 200.675, 96.666 204.079 L 97.282 207.158 103.891 206.589 C 107.526 206.276, 112.525 205.856, 115 205.656 C 117.475 205.456, 123.370 204.940, 128.100 204.510 C 132.830 204.080, 138.752 204.036, 141.261 204.412 L 145.821 205.096 145.574 229.379 C 145.438 242.735, 145.033 254.137, 144.674 254.718 C 143.809 256.118, 146.376 258.181, 148.123 257.491 C 148.880 257.192, 150.513 254.822, 151.750 252.224 C 153.562 248.419, 154.019 245.652, 154.095 238 C 154.147 232.775, 154.848 223.728, 155.652 217.895 C 156.457 212.063, 156.976 204.863, 156.807 201.895 C 156.518 196.821, 156.351 196.513, 154 196.715 C 152.625 196.834, 148.681 196.219, 145.235 195.350 C 140.568 194.173, 138.272 194.034, 136.235 194.806 C 134.731 195.376, 128.325 196.106, 122 196.428 C 115.675 196.750, 105.775 197.259, 100 197.558 C 81.215 198.532, 81 198.476, 81 192.672 C 81 184.801, 80.756 184.884, 105.550 184.375 C 117.623 184.127, 128.400 183.887, 129.500 183.842 C 130.600 183.796, 133.433 183.069, 135.796 182.226 C 139.042 181.068, 140.375 180.975, 141.246 181.846 C 143.199 183.799, 145.489 183.135, 147.284 180.096 C 149.291 176.699, 149.479 173.879, 147.810 172.210 C 147.036 171.436, 146.359 164.568, 145.872 152.561 C 145.452 142.187, 144.626 133.170, 143.986 131.974 C 142.858 129.867, 142.638 129.854, 119.924 130.567 C 102.216 131.123, 97 131.010, 97 130.072 C 97 129.404, 100.713 125.153, 105.250 120.625 C 120.669 105.239, 124.850 98.889, 121.300 96.250 C 119.440 94.868, 117.686 94.647, 116.667 95.667 M 167.336 99.567 C 167.005 100.429, 167.217 101.617, 167.806 102.206 C 168.569 102.969, 168.272 103.769, 166.778 104.978 C 164.562 106.773, 162.234 116.336, 161.418 127 C 161.187 130.025, 160.548 135.511, 159.999 139.192 C 157.953 152.899, 159.301 164.474, 162.864 163.788 C 163.930 163.582, 164.771 161.915, 165.288 158.987 C 165.723 156.519, 166.736 151.115, 167.539 146.977 C 168.343 142.840, 169 136.059, 169 131.909 C 169 122.943, 171.323 114.171, 174.333 111.772 C 176.203 110.281, 176.260 110.041, 174.750 110.022 C 171.459 109.980, 172.994 107.415, 176.941 106.361 C 180.714 105.354, 184.225 106.108, 182.730 107.604 C 180.868 109.465, 184.564 110.999, 190.872 110.985 C 198.771 110.966, 201.489 109.809, 198.597 107.695 C 196.753 106.346, 196.756 106.297, 198.741 105.778 C 201.942 104.941, 202.863 106.169, 202.285 110.503 C 201.992 112.701, 201.696 121.191, 201.626 129.368 L 201.500 144.236 206 148.175 C 212.347 153.730, 215.547 155.198, 222.328 155.665 C 227.851 156.045, 228.732 155.787, 235.130 151.922 C 239.726 149.144, 242 147.147, 242 145.885 C 242 143.510, 242.130 143.499, 233.629 146.566 C 228.579 148.387, 225.525 148.946, 223.102 148.491 C 218.582 147.643, 212.310 142.327, 210.907 138.156 C 209.464 133.864, 210.562 121.633, 213.103 113.676 C 214.147 110.411, 215 106.728, 215 105.492 C 215 101.135, 213.391 100.836, 193.455 101.500 C 175.449 102.100, 174.692 102.047, 172.843 100.061 C 170.558 97.609, 168.169 97.395, 167.336 99.567 M 187.116 105.360 C 185.388 107.443, 187.119 108.164, 191.978 107.388 C 194.319 107.013, 195.920 106.253, 195.711 105.616 C 195.139 103.871, 188.515 103.674, 187.116 105.360 M 107 136.500 C 107 138.127, 108.552 138.534, 109.417 137.134 C 109.711 136.658, 111.155 136.498, 112.625 136.779 C 114.472 137.132, 115.079 136.936, 114.590 136.145 C 113.498 134.378, 107 134.682, 107 136.500 M 204.079 136.583 C 204.127 137.748, 204.364 137.985, 204.683 137.188 C 204.972 136.466, 204.936 135.603, 204.604 135.271 C 204.272 134.939, 204.036 135.529, 204.079 136.583 M 85.446 163.087 C 85.077 163.685, 85.269 164.669, 85.873 165.273 C 86.672 166.072, 86.547 166.843, 85.416 168.093 C 84.488 169.118, 83.989 171.127, 84.180 173.065 L 84.500 176.318 97.576 176.234 C 117.652 176.106, 136.876 174.854, 137.907 173.609 C 138.960 172.338, 137.742 164.342, 136.272 162.872 C 135.649 162.249, 133.762 162.437, 130.970 163.398 C 128.585 164.220, 126.258 164.659, 125.798 164.375 C 125.337 164.091, 123.507 164.318, 121.730 164.881 C 116.799 166.442, 89.594 167.928, 88.369 166.702 C 88.009 166.343, 88.225 165.434, 88.849 164.682 C 89.472 163.931, 89.687 163.020, 89.325 162.658 C 88.310 161.644, 86.193 161.878, 85.446 163.087 M 104 163 C 104 163.550, 104.900 164, 106 164 C 107.100 164, 108 163.550, 108 163 C 108 162.450, 107.100 162, 106 162 C 104.900 162, 104 162.450, 104 163 M 209 167.158 C 206.525 167.658, 200.225 168.439, 195 168.893 C 189.775 169.348, 183.827 170.458, 181.782 171.360 C 179.457 172.386, 175.337 173.003, 170.782 173.008 C 164.025 173.015, 163.418 173.193, 162.359 175.476 C 161.061 178.274, 162.626 180.465, 165.213 179.472 C 167.532 178.582, 169.472 181.878, 169.581 186.892 C 169.790 196.590, 179.875 221.272, 185.968 227 C 187.153 228.114, 189 232.068, 189 233.492 C 189 234.328, 186.300 237.779, 183 241.162 C 179.700 244.545, 177 247.917, 177 248.656 C 177 249.395, 176.395 250, 175.655 250 C 173.417 250, 170.470 253.870, 171.741 255.141 C 172.532 255.932, 174.032 255.068, 177.167 252.016 C 179.550 249.697, 182.559 247.087, 183.852 246.217 C 185.146 245.347, 187.289 242.918, 188.615 240.818 C 189.941 238.718, 191.619 237, 192.345 237 C 193.071 237, 195.186 238.913, 197.046 241.250 C 198.905 243.588, 200.725 245.632, 201.091 245.793 C 201.457 245.954, 203.723 247.860, 206.128 250.029 C 208.533 252.197, 210.761 253.978, 211.080 253.986 C 211.399 253.994, 213.649 255.815, 216.080 258.033 C 218.511 260.251, 221.738 262.333, 223.250 262.658 C 224.762 262.984, 226 263.635, 226 264.105 C 226 265.588, 234.183 269.225, 242.993 271.656 C 252.281 274.219, 262.345 274.638, 267.925 272.694 C 274.302 270.471, 272.706 269.225, 263.384 269.148 C 258.595 269.108, 254.209 268.609, 253.638 268.038 C 253.067 267.467, 251.971 267, 251.201 267 C 250.432 267, 248.159 266.266, 246.151 265.369 C 232.434 259.243, 227.934 256.593, 222.686 251.551 C 219.509 248.498, 216.573 246, 216.163 246 C 215.179 246, 207 237.650, 207 236.645 C 207 236.217, 205.821 234.321, 204.380 232.431 C 202.050 229.377, 201.891 228.677, 202.948 226.125 C 203.602 224.547, 206.271 221.060, 208.880 218.377 C 213.916 213.198, 216.558 208.839, 226.572 189.184 C 233.205 176.164, 235.035 169.952, 232.971 167.465 C 231.575 165.783, 216.758 165.593, 209 167.158 M 196.500 172.956 L 192.500 173.628 195.500 174.397 C 197.150 174.821, 198.950 175.295, 199.500 175.452 C 200.050 175.609, 201.614 175.323, 202.976 174.817 C 204.993 174.068, 205.179 173.724, 203.976 172.964 C 202.384 171.957, 202.442 171.958, 196.500 172.956 M 184.500 175.090 L 179.500 176.912 183.595 176.956 C 186.460 176.987, 188.234 176.399, 189.500 175 C 191.622 172.655, 191.156 172.664, 184.500 175.090 M 211 175.107 C 208.525 175.577, 202.035 176.409, 196.577 176.954 C 191.119 177.500, 186.192 178.408, 185.627 178.973 C 185.062 179.538, 183.620 180, 182.422 180 C 178.451 180, 177.535 182.365, 179.018 188.785 C 179.745 191.928, 181.388 196.521, 182.670 198.992 C 183.951 201.463, 185 203.931, 185 204.478 C 185 206.485, 190.452 216.168, 193.755 220.027 C 197.408 224.295, 198.734 224.856, 199.632 222.517 C 199.945 221.702, 201.843 219.312, 203.850 217.207 C 208.605 212.222, 212.585 205.352, 212.175 202.842 C 211.958 201.520, 212.530 200.674, 213.878 200.322 C 214.994 200.030, 216.622 198.700, 217.496 197.366 C 218.948 195.149, 218.947 194.804, 217.485 193.342 C 216.605 192.462, 216.070 191.238, 216.297 190.621 C 216.523 190.004, 217.509 187.025, 218.487 184 C 219.465 180.975, 220.644 178.017, 221.109 177.426 C 222.253 175.971, 220.096 173.970, 217.550 174.125 C 216.422 174.194, 213.475 174.636, 211 175.107 M 114.192 181.075 C 114.389 181.666, 114.876 182.116, 115.275 182.075 C 115.674 182.034, 116.787 181.993, 117.750 181.985 C 119.246 181.972, 119.282 181.828, 118 181 C 115.986 179.698, 113.747 179.742, 114.192 181.075 M 93.813 181.683 C 94.534 181.972, 95.397 181.936, 95.729 181.604 C 96.061 181.272, 95.471 181.036, 94.417 181.079 C 93.252 181.127, 93.015 181.364, 93.813 181.683 M 104.500 202.056 L 100.500 203.852 105.750 203.926 C 110.944 203.999, 112.174 203.177, 109.750 201.252 C 108.895 200.574, 107.236 200.828, 104.500 202.056 M 119.668 201.422 C 119.368 202.205, 118.082 203.043, 116.811 203.286 C 115.427 203.551, 116.125 203.782, 118.550 203.864 C 122.304 203.990, 125 202.710, 125 200.800 C 125 199.390, 120.235 199.946, 119.668 201.422 M 177.015 202.115 C 177.037 204.137, 179.505 210.905, 180.631 212.031 C 182.431 213.831, 180.799 205.583, 178.867 203.115 C 177.770 201.714, 177.006 201.301, 177.015 202.115 M 82.500 204.053 C 85.249 205.161, 88 205.185, 88 204.100 C 88 203.605, 86.313 203.210, 84.250 203.223 C 81.350 203.241, 80.953 203.429, 82.500 204.053 M 182.171 216.648 C 182.364 217.654, 183.346 218.636, 184.352 218.829 C 185.673 219.084, 186.084 218.673, 185.829 217.352 C 185.636 216.346, 184.654 215.364, 183.648 215.171 C 182.327 214.916, 181.916 215.327, 182.171 216.648 M 188.459 224.067 C 188.096 224.653, 188.014 225.348, 188.276 225.610 C 188.538 225.872, 189.019 225.392, 189.345 224.543 C 190.021 222.781, 189.445 222.471, 188.459 224.067 M 193.229 230.187 C 193.727 231.682, 196 232.505, 196 231.190 C 196 230.653, 195.287 229.941, 194.416 229.606 C 193.443 229.233, 192.985 229.456, 193.229 230.187 M 197 236.294 C 197 237.098, 197.718 238.351, 198.596 239.080 C 199.990 240.236, 200.148 240.103, 199.846 238.030 C 199.468 235.436, 197 233.931, 197 236.294 M 203 243 C 203 243.550, 203.450 244, 204 244 C 204.550 244, 205 243.550, 205 243 C 205 242.450, 204.550 242, 204 242 C 203.450 242, 203 242.450, 203 243 M 128.250 245.662 C 125.417 246.806, 127.356 248.936, 132.947 250.825 C 138.129 252.575, 139.050 252.645, 140.106 251.372 C 141.091 250.185, 140.870 249.591, 138.930 248.206 C 135.138 245.498, 131.062 244.528, 128.250 245.662 M 208 247.367 C 208 248.775, 215.826 254.508, 216.638 253.695 C 217.309 253.025, 210.456 246, 209.132 246 C 208.509 246, 208 246.615, 208 247.367 M 247 269.393 C 247 269.609, 247.675 270.045, 248.500 270.362 C 249.325 270.678, 250 270.501, 250 269.969 C 250 269.436, 249.325 269, 248.500 269 C 247.675 269, 247 269.177, 247 269.393" stroke="none" fill="black" fill-rule="evenodd"/>
</svg>