<svg xmlns="http://www.w3.org/2000/svg" width="300" height="300" viewBox="0 0 300 300" version="1.1">
	<path d="M 117.250 13.031 C 114.829 14.004, 114.445 15.041, 115.944 16.550 C 116.852 17.463, 115.696 41.680, 114.505 46.710 C 114.139 48.257, 114.592 49.246, 116.015 50.008 C 117.836 50.983, 117.889 51.254, 116.523 52.620 C 115.684 53.459, 115.195 55.125, 115.436 56.322 C 115.677 57.520, 116.123 60.353, 116.428 62.618 C 116.732 64.882, 117.658 68.032, 118.484 69.618 C 119.311 71.203, 119.990 73.187, 119.994 74.027 C 120.004 76.566, 122.981 80, 125.170 80 C 127.396 80, 127.400 80.294, 125.033 69.500 C 124.430 66.750, 123.900 61.350, 123.855 57.500 C 123.297 10.088, 123.369 10.572, 117.250 13.031 M 182.329 26.775 C 180.794 27.752, 180.163 30.843, 179.587 40.197 C 179.207 46.372, 179.379 47.792, 180.458 47.378 C 182.092 46.751, 182.968 43.760, 182.986 38.750 C 182.994 36.688, 183.452 35, 184.004 35 C 185.245 35, 184.154 63.667, 182.813 66.278 C 181.598 68.644, 180.033 67.537, 179.864 64.191 C 179.737 61.690, 179.696 61.666, 179.281 63.852 C 178.727 66.770, 179.778 71.255, 180.860 70.587 C 181.300 70.314, 181.713 72.392, 181.777 75.204 C 181.844 78.141, 182.434 80.650, 183.163 81.101 C 185.336 82.444, 187.083 79.905, 186.952 75.596 C 186.884 73.343, 187.290 67.028, 187.856 61.561 C 188.422 56.095, 188.715 51.348, 188.508 51.014 C 188.301 50.679, 188.511 49.792, 188.974 49.043 C 189.664 47.925, 190.357 47.905, 192.834 48.931 C 194.494 49.619, 196.748 49.897, 197.842 49.550 C 198.936 49.203, 200.103 49.358, 200.435 49.895 C 200.775 50.445, 199.069 51.167, 196.530 51.548 C 189.172 52.651, 192.282 54.329, 200.233 53.546 C 209.125 52.670, 210 52.297, 210 49.393 C 210 47.102, 209.690 46.994, 202.750 46.855 C 198.762 46.775, 194.037 46.810, 192.250 46.933 L 189 47.156 188.820 41.328 C 188.721 38.123, 188.746 34, 188.874 32.167 C 189.226 27.145, 185.968 24.461, 182.329 26.775 M 117 38 C 117 38.550, 117.450 39, 118 39 C 118.550 39, 119 38.550, 119 38 C 119 37.450, 118.550 37, 118 37 C 117.450 37, 117 37.450, 117 38 M 118.500 45 C 118.840 45.550, 119.316 46, 119.559 46 C 119.802 46, 120 45.550, 120 45 C 120 44.450, 119.523 44, 118.941 44 C 118.359 44, 118.160 44.450, 118.500 45 M 165.186 45.610 C 162.440 46.810, 161.926 47.524, 162.186 49.779 C 162.494 52.451, 162.625 52.500, 169.500 52.500 C 175.817 52.500, 176.468 52.315, 176.173 50.606 C 175.993 49.565, 176.436 48.349, 177.157 47.903 C 178.079 47.333, 177.369 46.634, 174.766 45.547 C 170.372 43.711, 169.523 43.716, 165.186 45.610 M 97.223 48.557 C 92.146 52.113, 96.379 56.187, 104.793 55.844 C 109.552 55.650, 110.784 54.649, 108.964 52.456 C 107.996 51.290, 108.057 51, 109.271 51 C 111.362 51, 112.220 48.298, 110.355 47.583 C 107.358 46.433, 99.414 47.022, 97.223 48.557 M 137.500 49 C 137.160 49.550, 135.221 50.007, 133.191 50.015 C 130.789 50.025, 129.966 50.326, 130.835 50.877 C 131.832 51.509, 131.583 51.876, 129.852 52.329 C 128.049 52.800, 127.801 53.201, 128.735 54.135 C 130.302 55.702, 140.646 53.366, 141.453 51.262 C 142.499 48.537, 139.017 46.545, 137.500 49 M 179.667 50.667 C 178.309 52.024, 178.969 54.949, 180.500 54.362 C 181.325 54.045, 182 52.934, 182 51.893 C 182 49.993, 180.912 49.421, 179.667 50.667 M 103.441 52.582 C 101.665 54.029, 101.656 54.114, 103.332 53.582 C 104.339 53.262, 105.577 53, 106.082 53 C 106.587 53, 107 52.550, 107 52 C 107 50.552, 105.664 50.770, 103.441 52.582 M 118.685 59.097 C 118.383 60.251, 118.527 62.163, 119.005 63.347 C 119.704 65.082, 119.886 64.674, 119.937 61.250 C 120.006 56.615, 119.542 55.818, 118.685 59.097 M 136.792 75.750 C 134.525 78.364, 133.885 83.541, 135.215 88.513 C 135.865 90.946, 136.128 93.205, 135.798 93.535 C 134.615 94.719, 123.398 96.929, 118.399 96.964 C 111.718 97.011, 106.802 98.724, 107.207 100.866 C 107.638 103.143, 114.024 103.709, 115.217 101.576 C 115.703 100.709, 116.752 100, 117.550 100 C 119.171 100, 119.537 101.648, 118.032 102.167 C 115.870 102.911, 118.792 105.201, 121.007 104.498 C 122.724 103.953, 122.940 103.581, 121.910 102.944 C 120.820 102.271, 120.882 101.982, 122.230 101.465 C 124.519 100.587, 126.692 101.947, 124.857 103.110 C 123.213 104.151, 126.234 104.312, 129.750 103.370 C 132.395 102.661, 132.798 100.793, 130.250 101.052 C 123.470 101.742, 123.345 99.802, 130.059 98.081 C 135.518 96.682, 136.457 97.008, 136.579 100.339 C 136.877 108.501, 137.104 110.054, 137.923 109.548 C 138.431 109.234, 139.142 107.632, 139.503 105.989 C 140.638 100.819, 142 102.734, 142 109.500 C 142 115.503, 141.061 117.526, 139.470 114.951 C 139.020 114.223, 138.429 114.229, 137.534 114.971 C 136.826 115.559, 133.652 115.919, 130.480 115.770 C 123.585 115.447, 121.731 117.441, 127.949 118.491 C 130.763 118.967, 132.010 119.683, 132.032 120.838 C 132.061 122.345, 132.187 122.337, 133.392 120.750 C 135.547 117.912, 136.494 118.713, 136.595 123.461 C 136.647 125.914, 137.236 128.580, 137.904 129.384 C 139.137 130.870, 138.909 139.896, 137.557 143.135 C 137.017 144.429, 134.706 144.917, 126.482 145.478 C 119.495 145.954, 115.708 146.647, 114.923 147.593 C 114.281 148.367, 112.460 149, 110.878 149 C 109.295 149, 108 149.450, 108 150 C 108 150.596, 104.191 151, 98.573 151 C 88.121 151, 87.083 151.740, 89.795 157.253 C 91.062 159.829, 91.450 159.967, 95.825 159.394 C 98.396 159.057, 102.509 158.553, 104.965 158.273 C 107.421 157.993, 110.349 157.162, 111.473 156.426 C 112.597 155.690, 117.337 154.783, 122.008 154.410 C 126.679 154.038, 131.708 153.039, 133.184 152.190 C 135.213 151.023, 136.202 150.923, 137.234 151.779 C 138.757 153.043, 141.385 168.839, 140.846 173.490 C 140.533 176.195, 140.119 176.508, 136.500 176.769 C 134.300 176.928, 132.050 177.034, 131.500 177.004 C 110.905 175.899, 108.315 175.995, 106.562 177.931 C 102.554 182.361, 107.773 184.162, 125.602 184.502 C 133.781 184.658, 140.605 185.254, 141.852 185.921 C 144.362 187.264, 144.320 187.071, 142.871 190.685 C 141.332 194.526, 141.711 211.678, 143.505 219.283 C 144.311 222.702, 144.997 228.425, 145.029 232 C 145.102 239.982, 147.192 248.396, 149.201 248.793 C 152.435 249.432, 153.355 246.378, 152.143 239.033 C 151.514 235.228, 151 229.427, 151 226.143 L 151 220.171 158.462 219.471 C 162.565 219.087, 167.628 218.972, 169.712 219.217 C 174.493 219.779, 194.044 217.481, 200 215.657 C 202.514 214.887, 204.500 213.666, 204.500 212.890 C 204.500 211.778, 202.201 211.521, 193 211.607 C 170.821 211.814, 159.452 211.831, 154 211.666 L 148.500 211.500 148.624 199.042 C 148.706 190.799, 149.129 186.457, 149.874 186.209 C 150.493 186.002, 151 185.265, 151 184.571 C 151 183.607, 153.956 183.376, 163.524 183.593 C 178.018 183.923, 183.363 182.569, 182.814 178.710 C 182.507 176.549, 182.153 176.495, 167 176.286 C 158.475 176.168, 151.018 176.055, 150.428 176.036 C 149.126 175.992, 146.527 158.067, 147.416 155.265 C 147.970 153.519, 149.198 153.202, 157.274 152.724 C 167.537 152.116, 170.232 152.209, 177.500 153.419 C 183.947 154.493, 185 155.426, 185 160.063 C 185 162.164, 185.478 164.178, 186.063 164.539 C 187.765 165.591, 191 161.940, 191 158.967 C 191 155.688, 193.067 153.751, 196.197 154.098 C 199.619 154.478, 206.244 153.071, 208.330 151.521 C 209.428 150.706, 210.028 149.229, 209.829 147.831 C 209.550 145.869, 209.024 145.564, 206.499 145.908 C 204.850 146.132, 200.800 146.357, 197.500 146.408 L 191.500 146.500 191.276 141 C 191.075 136.069, 189.641 125.031, 188.466 119.377 C 187.802 116.177, 182.782 114.449, 178.169 115.831 C 175.899 116.511, 169.863 116.766, 162.721 116.482 C 152.790 116.088, 151 116.244, 151 117.508 C 151 118.688, 152.462 119, 158 119 C 165.361 119, 166.465 119.819, 162.750 122.526 C 160.619 124.079, 160.924 124.129, 168.500 123.470 C 172.900 123.088, 177.524 122.713, 178.776 122.637 C 180.999 122.503, 181.061 122.766, 181.435 134 L 181.817 145.500 164.191 145.233 C 154.497 145.086, 146.165 144.565, 145.675 144.075 C 145.154 143.554, 145.268 141.718, 145.949 139.654 C 146.590 137.713, 146.823 134.572, 146.467 132.674 C 146.050 130.452, 146.334 128.240, 147.266 126.461 C 148.505 124.098, 148.518 123.048, 147.357 119.191 C 145.873 114.261, 145.678 109.323, 146.648 101.246 L 147.280 95.992 153.390 96.456 C 156.750 96.712, 159.950 96.946, 160.500 96.976 C 163.364 97.133, 157.917 98.972, 154.550 98.985 C 152.074 98.994, 150.954 99.351, 151.550 99.942 C 152.928 101.307, 184.195 102.942, 185.750 101.729 C 186.438 101.194, 187 100.468, 187 100.118 C 187 99.063, 182.671 96.696, 180 96.291 C 169.957 94.765, 159.371 93.945, 153 94.200 L 145.500 94.500 144.445 86.500 C 142.917 74.913, 140.483 71.494, 136.792 75.750 M 137.379 83.750 C 137.662 84.713, 138.220 87.300, 138.619 89.500 L 139.344 93.500 140.179 90.333 C 140.669 88.475, 140.608 86.100, 140.032 84.583 C 138.943 81.721, 136.563 80.973, 137.379 83.750 M 165 98 C 163.865 98.734, 164.305 98.973, 166.809 98.985 C 168.764 98.994, 169.865 98.591, 169.500 98 C 168.724 96.744, 166.944 96.744, 165 98 M 108.719 112.974 C 102.518 114.157, 99.862 116.019, 100.202 118.944 C 100.493 121.439, 100.666 121.494, 107.500 121.264 C 112.506 121.095, 114.829 120.580, 115.654 119.454 C 116.400 118.437, 117.040 118.255, 117.463 118.940 C 117.823 119.523, 117.566 120, 116.892 120 C 116.218 120, 115.964 120.297, 116.327 120.661 C 117.054 121.387, 121 118.184, 121 116.868 C 121 115.825, 117.122 113.357, 114.500 112.730 C 113.400 112.468, 110.799 112.577, 108.719 112.974 M 107.543 117.931 C 107.226 118.443, 107.425 119.144, 107.984 119.490 C 109.177 120.227, 111 119.291, 111 117.941 C 111 116.724, 108.293 116.716, 107.543 117.931 M 153.500 124 C 153.840 124.550, 154.991 125, 156.059 125 C 157.127 125, 158 124.550, 158 124 C 158 123.450, 156.848 123, 155.441 123 C 153.990 123, 153.149 123.433, 153.500 124 M 111.543 151.931 C 110.860 153.036, 112.437 154.230, 113.361 153.306 C 114.311 152.355, 114.134 151, 113.059 151 C 112.541 151, 111.859 151.419, 111.543 151.931 M 193 152.059 C 193 152.641, 193.450 152.840, 194 152.500 C 194.550 152.160, 195 151.684, 195 151.441 C 195 151.198, 194.550 151, 194 151 C 193.450 151, 193 151.477, 193 152.059 M 121 179.393 C 121 179.609, 121.698 180.054, 122.552 180.382 C 123.442 180.723, 123.843 180.555, 123.493 179.989 C 122.906 179.038, 121 178.583, 121 179.393 M 109.311 201.842 C 107.500 203.021, 106.664 211.226, 106.901 225.500 C 107.151 240.634, 106.888 241.751, 99.502 256.871 C 96.730 262.547, 96.725 267.064, 99.496 263.403 C 100.288 262.357, 100.951 260.993, 100.968 260.372 C 100.986 259.752, 101.624 258.727, 102.388 258.093 C 104.331 256.481, 109.744 244.883, 110.544 240.618 C 110.910 238.667, 111.837 236.550, 112.605 235.913 C 113.572 235.111, 114.031 232.261, 114.100 226.628 C 114.155 222.157, 114.494 217.451, 114.855 216.169 C 115.216 214.886, 115.283 211.336, 115.005 208.278 C 114.599 203.811, 114.090 202.568, 112.411 201.951 C 111.262 201.529, 109.867 201.480, 109.311 201.842 M 158 216 C 158 217.253, 159.061 217.253, 161 216 C 162.213 215.216, 162.069 215.028, 160.250 215.015 C 159.012 215.007, 158 215.450, 158 216 M 117.347 233.537 C 117.023 234.383, 117.498 235.893, 118.403 236.893 C 119.333 237.921, 119.771 239.434, 119.410 240.374 C 118.244 243.413, 133.764 256.705, 142.201 259.893 C 143.687 260.454, 146.661 262.024, 148.810 263.380 C 150.959 264.737, 154.604 266.355, 156.910 266.976 C 159.216 267.597, 161.353 268.756, 161.658 269.552 C 161.964 270.349, 163.201 271, 164.407 271 C 165.613 271, 167.028 271.406, 167.550 271.903 C 168.883 273.170, 180.508 276, 184.381 276 C 186.151 276, 188.160 276.560, 188.844 277.244 C 190.414 278.814, 227 279.761, 227 278.232 C 227 276.646, 224.426 274.957, 222.383 275.202 C 218.393 275.681, 204.393 273.727, 202.285 272.397 C 201.067 271.629, 198.067 271, 195.619 271 C 193.170 271, 191.001 270.502, 190.798 269.893 C 190.595 269.284, 187.520 268.464, 183.964 268.071 C 180.104 267.644, 174.726 266.076, 170.612 264.178 C 166.823 262.430, 163.171 261, 162.497 261 C 161.822 261, 160.197 260.162, 158.885 259.138 C 157.573 258.113, 155.410 256.933, 154.077 256.515 C 152.744 256.097, 151.169 255.361, 150.577 254.878 C 149.985 254.396, 146.350 252.376, 142.500 250.391 C 138.650 248.406, 132.800 244.299, 129.500 241.265 C 118.124 230.808, 118.342 230.946, 117.347 233.537 M 124.188 243.063 C 124.428 243.784, 125.216 244.572, 125.938 244.813 C 126.688 245.063, 127.063 244.688, 126.813 243.938 C 126.572 243.216, 125.784 242.428, 125.063 242.188 C 124.313 241.938, 123.938 242.313, 124.188 243.063" stroke="none" fill="black" fill-rule="evenodd"/>
</svg>