<svg xmlns="http://www.w3.org/2000/svg" width="300" height="300" viewBox="0 0 300 300" version="1.1">
	<path d="M 103.609 14.297 C 102.057 15.432, 101.959 16.274, 102.829 21.047 C 103.489 24.668, 103.487 26.905, 102.825 27.706 C 101.500 29.309, 102.647 31, 105.059 31 C 106.657 31, 107 31.707, 107 35 C 107 37.307, 106.522 39, 105.870 39 C 104.690 39, 105.111 45.870, 106.499 49.255 C 107.556 51.835, 101.680 53.951, 90.091 55.162 C 80.118 56.205, 75 57.570, 75 59.189 C 75 59.709, 74.100 59.849, 73 59.500 C 71.355 58.978, 71 59.320, 71 61.433 C 71 64.244, 71.311 64.430, 73.816 63.118 C 74.821 62.592, 76.507 62.643, 78 63.245 C 81.091 64.492, 87.342 64.247, 96.500 62.518 C 100.949 61.679, 103.921 61.542, 104.657 62.143 C 105.293 62.664, 106.001 65.207, 106.230 67.795 C 106.460 70.383, 107.697 77, 108.981 82.500 C 111.269 92.306, 113.710 96.915, 115.899 95.562 C 117.453 94.602, 117.266 90.952, 115.568 89.075 C 114.559 87.960, 113.927 83.490, 113.434 73.979 C 112.628 58.429, 112.525 58.657, 121.047 57.086 C 124.046 56.533, 128.833 55.644, 131.683 55.111 C 137.987 53.932, 141 52.421, 141 50.439 C 141 49.160, 139.111 49.044, 127.648 49.619 C 117.719 50.118, 114.107 49.981, 113.555 49.088 C 113.146 48.428, 112.383 45.325, 111.857 42.194 C 111.332 39.062, 110.656 35.091, 110.356 33.368 C 110.044 31.586, 110.281 29.944, 110.904 29.559 C 112.438 28.611, 112.269 24.268, 110.461 18.182 C 108.835 12.706, 107.117 11.732, 103.609 14.297 M 172.831 20.471 C 172.182 21.896, 170.259 23.419, 168.291 24.069 C 163.812 25.547, 163.130 27.665, 163.130 40.109 C 163.130 52.165, 162.925 52.464, 153.933 53.508 C 149.364 54.038, 147.299 54.853, 144.942 57.054 C 142.296 59.526, 142.038 60.202, 143.030 62.056 C 144.255 64.345, 144.075 64.348, 154.806 61.915 C 158.486 61.081, 160.432 61.032, 161.155 61.755 C 163.548 64.148, 161.596 86.409, 157.557 102.770 C 156.842 105.669, 156.605 108.256, 157.030 108.519 C 159.766 110.209, 167.106 86.898, 168.579 71.839 C 168.974 67.803, 170.094 62.637, 171.067 60.359 C 172.682 56.577, 173.401 56.029, 179.364 54.045 C 184.516 52.331, 186.334 52.108, 187.984 52.992 C 193.055 55.705, 196.498 49.863, 191.777 46.557 C 188.768 44.449, 184.090 44.599, 178 47 C 175.209 48.100, 172.718 49, 172.463 49 C 172.208 49, 172 45.387, 172 40.971 C 172 34.038, 172.409 32.132, 175 27 C 176.650 23.731, 178 20.369, 178 19.529 C 178 17.024, 174.076 17.740, 172.831 20.471 M 164.667 54.667 C 163.492 55.842, 163.954 58.768, 165.402 59.324 C 167.254 60.035, 168 59.175, 168 56.333 C 168 54.133, 166.133 53.200, 164.667 54.667 M 114.948 116.034 C 109.631 119.555, 109.214 120.574, 110.122 127.836 C 110.512 130.951, 110.869 135.620, 110.916 138.211 C 110.999 142.853, 110.944 142.936, 107.250 143.814 C 105.188 144.304, 99.450 145.732, 94.500 146.988 C 89.550 148.244, 83.498 149.663, 81.052 150.143 C 73.767 151.569, 67.839 154.873, 68.196 157.306 C 68.444 158.998, 69.299 159.422, 72.822 159.600 C 76.185 159.769, 77.024 159.505, 76.603 158.409 C 76.302 157.622, 76.664 157, 77.424 157 C 78.173 157, 79.045 157.675, 79.362 158.500 C 80.023 160.224, 83.561 160.519, 84.542 158.932 C 84.905 158.344, 85.831 158.105, 86.600 158.400 C 87.368 158.695, 91.710 157.873, 96.248 156.574 C 109.920 152.661, 110.705 152.580, 111.976 154.955 C 113.652 158.087, 110.498 163, 106.810 163 C 104.734 163, 103.653 163.770, 102.442 166.111 C 101.558 167.822, 97.946 172.068, 94.417 175.545 C 90.888 179.023, 88 182.117, 88 182.421 C 88 182.725, 84.287 187.836, 79.750 193.779 C 75.213 199.722, 70.634 206.141, 69.575 208.043 C 68.517 209.944, 67.392 211.725, 67.075 212 C 64.954 213.844, 61.766 219.669, 61.297 222.557 C 60.809 225.562, 61.005 226, 62.830 226 C 65.156 226, 67.961 223.379, 70.072 219.233 C 70.837 217.730, 73.384 214.201, 75.732 211.392 C 78.079 208.583, 80 205.882, 80 205.391 C 80 204.900, 82.512 201.819, 85.583 198.546 C 88.654 195.273, 92.038 190.886, 93.103 188.798 C 94.169 186.709, 95.482 185, 96.020 185 C 97.447 185, 97.221 182.248, 95.750 181.708 C 94.772 181.350, 94.763 180.971, 95.708 179.967 C 96.689 178.925, 97.224 178.941, 98.562 180.052 C 100.004 181.249, 100.567 180.988, 103.078 177.959 C 104.655 176.057, 105.958 173.488, 105.973 172.250 C 105.993 170.584, 106.590 170, 108.275 170 L 110.550 170 110.704 194.250 C 110.913 227.458, 113.044 250.632, 116.267 254.750 C 116.805 255.437, 118.090 256, 119.122 256 C 121.248 256, 121.564 253.454, 120.082 248.284 C 119.576 246.523, 118.862 240.504, 118.494 234.908 C 117.606 221.413, 117.561 181.520, 118.431 180.111 C 118.809 179.500, 120.336 179, 121.824 179 C 124.395 179, 127.316 180.959, 134.230 187.321 C 140.191 192.806, 150.189 199, 153.081 199 C 157.255 199, 158.604 195.916, 155.647 193.138 C 154.395 191.962, 152.679 191, 151.834 191 C 150.988 191, 147.192 188.246, 143.398 184.880 C 138.840 180.837, 133.494 177.362, 127.639 174.637 L 118.779 170.512 119.204 161.615 C 119.577 153.824, 119.915 152.488, 121.925 150.859 C 123.188 149.837, 125.115 149, 126.206 149 C 127.298 149, 129.386 148.387, 130.846 147.639 C 137.979 143.980, 156.296 138.606, 159.172 139.328 C 161.582 139.933, 161.607 140.062, 161.976 154.219 C 162.341 168.202, 162.915 204.544, 162.834 208.500 C 162.811 209.600, 162.801 211.625, 162.812 213 C 162.950 230.411, 163.252 236.117, 164.215 239.500 C 164.841 241.700, 165.285 243.805, 165.201 244.178 C 165.117 244.550, 165.959 246.913, 167.071 249.428 C 171.100 258.535, 174.335 253.299, 171.522 242.224 C 167.833 227.703, 168.064 226.516, 174.734 225.697 C 177.355 225.375, 181.300 224.249, 183.500 223.195 C 185.700 222.141, 188.998 220.995, 190.830 220.649 C 192.661 220.302, 195.586 219.377, 197.330 218.593 C 199.073 217.810, 202.637 216.878, 205.250 216.523 C 209.420 215.956, 210 215.584, 210 213.474 C 210 209.886, 206.677 208.481, 201.710 209.969 C 199.513 210.627, 195.642 211.541, 193.108 211.999 C 190.574 212.457, 186.700 213.486, 184.500 214.285 C 182.300 215.084, 177.926 216.024, 174.780 216.374 L 169.061 217.010 169.280 203.755 L 169.500 190.500 173 190.179 C 174.925 190.002, 176.928 189.439, 177.450 188.929 C 177.973 188.418, 180.280 188, 182.578 188 C 184.876 188, 188.418 187.306, 190.449 186.457 C 193.091 185.353, 195.831 185.086, 200.071 185.520 C 205.879 186.114, 206 186.076, 206 183.646 C 206 181.630, 205.163 180.846, 201.531 179.459 C 197.593 177.955, 196.077 177.896, 188.781 178.960 C 184.226 179.624, 178.925 180.488, 177 180.880 C 170.044 182.297, 170.290 182.925, 169.506 161.697 C 169.116 151.139, 168.955 141.150, 169.148 139.500 C 169.485 136.629, 169.716 136.496, 174.500 136.400 C 177.929 136.332, 182.606 135.002, 189.386 132.167 C 194.823 129.893, 200.419 127.913, 201.820 127.767 C 205.265 127.406, 205.572 128.848, 206.928 151.719 C 206.968 152.399, 207.685 152.674, 208.551 152.342 C 209.891 151.828, 209.995 152.478, 209.310 157.123 C 208.440 163.035, 208.438 164.650, 209.288 180 C 209.608 185.775, 209.931 192.075, 210.005 194 C 210.115 196.841, 210.295 197.123, 210.959 195.500 C 211.527 194.113, 211.777 195.186, 211.774 199 C 211.771 204.389, 212.539 215.012, 213.002 216 C 213.131 216.275, 213.181 216.845, 213.113 217.266 C 212.779 219.334, 216.332 233.590, 217.342 234.232 C 218.160 234.753, 218.097 234.974, 217.125 234.985 C 216.126 234.996, 215.917 235.837, 216.361 238.056 C 216.762 240.058, 216.422 241.952, 215.378 243.546 C 213.972 245.692, 213.961 246.048, 215.287 246.556 C 216.113 246.874, 218.524 246.991, 220.645 246.817 C 224.200 246.525, 224.525 246.243, 224.818 243.194 C 224.992 241.376, 224.363 236.651, 223.420 232.694 C 222.477 228.737, 221.087 220.775, 220.331 215 C 219.575 209.225, 218.515 201.800, 217.976 198.500 C 216.852 191.621, 216.406 185.078, 214.979 154.552 C 213.816 129.653, 212.462 119.391, 210.229 118.534 C 206.844 117.235, 192.532 121.067, 180.500 126.493 C 178.850 127.237, 176.295 128.146, 174.822 128.513 C 173.350 128.880, 171.901 129.815, 171.604 130.590 C 171.306 131.366, 170.651 132, 170.148 132 C 168.503 132, 168.233 128.352, 169.631 125.027 C 172.393 118.458, 170.601 115.680, 165.077 117.968 C 161.839 119.309, 161.033 121.348, 161.014 128.250 L 161 133 156.718 133 C 154.363 133, 149.975 133.703, 146.968 134.562 C 143.961 135.422, 139.025 136.526, 136 137.016 C 132.975 137.507, 128.531 138.604, 126.124 139.454 C 118.890 142.010, 119 142.135, 119 131.368 C 119 123.411, 119.356 121.161, 121.045 118.427 C 123.028 115.218, 123.034 115.088, 121.221 114.118 C 119.765 113.339, 118.381 113.762, 114.948 116.034 M 125.459 144.067 C 125.096 144.653, 125.050 145.384, 125.357 145.690 C 126.179 146.513, 129 145.229, 129 144.031 C 129 142.674, 126.303 142.701, 125.459 144.067 M 102 150 C 102 150.550, 102.702 151, 103.559 151 C 104.416 151, 104.840 150.550, 104.500 150 C 104.160 149.450, 103.459 149, 102.941 149 C 102.423 149, 102 149.450, 102 150 M 113.810 157.524 C 113.144 158.189, 114.018 162.893, 114.910 163.445 C 115.280 163.673, 115.402 162.316, 115.182 160.430 C 114.765 156.857, 114.672 156.661, 113.810 157.524 M 77.500 203 C 77.160 203.550, 77.584 204, 78.441 204 C 79.298 204, 80 203.550, 80 203 C 80 202.450, 79.577 202, 79.059 202 C 78.541 202, 77.840 202.450, 77.500 203 M 114.195 234.500 C 114.215 236.150, 114.439 236.704, 114.693 235.731 C 114.947 234.758, 114.930 233.408, 114.656 232.731 C 114.382 232.054, 114.175 232.850, 114.195 234.500 M 206.500 255.045 C 203.750 256.075, 200.071 256.936, 198.324 256.958 C 196.576 256.981, 190.581 257.900, 185 259 C 179.419 260.100, 173.559 261, 171.977 261 C 167.759 261, 159.807 266.641, 160.195 269.358 C 160.418 270.921, 161.310 271.578, 163.500 271.789 C 166.445 272.073, 179.651 269.627, 191.500 266.603 C 194.800 265.760, 198.540 265.055, 199.812 265.036 C 203.157 264.984, 212.730 260.224, 214.463 257.750 C 215.553 256.194, 215.655 255.289, 214.849 254.318 C 213.477 252.665, 212.673 252.735, 206.500 255.045" stroke="none" fill="black" fill-rule="evenodd"/>
</svg>