<svg xmlns="http://www.w3.org/2000/svg" width="300" height="300" viewBox="0 0 300 300" version="1.1">
	<path d="M 122.243 27.144 C 119.626 30.550, 119.314 31.567, 120.046 34.307 C 121.482 39.683, 122.759 56.399, 121.868 58.159 C 121.184 59.509, 119.076 59.881, 110.539 60.159 C 101.245 60.461, 99.795 60.756, 97.801 62.753 L 95.551 65.005 98.179 67.634 C 100.561 70.016, 101.112 70.156, 104.053 69.131 C 105.838 68.509, 108.408 68, 109.765 68 C 111.122 68, 114.387 67.235, 117.021 66.299 C 123.125 64.131, 124.150 64.928, 125.889 73.190 C 128.251 84.409, 128.558 85.319, 130.351 86.418 C 131.741 87.270, 132.415 87.099, 133.519 85.613 C 134.725 83.989, 134.717 83.434, 133.461 81.640 C 132.494 80.260, 132 77.010, 132 72.027 C 132 64.601, 132.048 64.462, 135.554 61.664 C 137.509 60.104, 139.726 59.065, 140.481 59.354 C 141.236 59.644, 144.249 58.953, 147.177 57.819 C 150.105 56.685, 155.088 55.034, 158.250 54.150 C 166.328 51.892, 165.807 50.101, 157.250 50.712 C 151.697 51.109, 150.139 51.621, 148.462 53.597 C 146.117 56.363, 144 56.736, 144 54.383 C 144 53.128, 143.385 52.913, 141.250 53.419 C 139.738 53.778, 136.877 54.315, 134.893 54.613 L 131.286 55.153 130.494 48.327 C 130.059 44.572, 129.615 38.575, 129.508 35 C 129.153 23.155, 127.054 20.885, 122.243 27.144 M 196 30 C 195.175 30.533, 193.332 30.976, 191.905 30.985 C 187.804 31.009, 186.332 33.689, 185.634 42.397 C 185.286 46.741, 184.543 50.845, 183.984 51.519 C 183.425 52.192, 180.974 52.968, 178.538 53.243 C 176.101 53.518, 172.269 54.700, 170.023 55.871 C 167.776 57.042, 165.363 58, 164.660 58 C 163.957 58, 162.564 58.598, 161.565 59.329 C 160.058 60.431, 159.946 61.030, 160.909 62.829 C 162.301 65.432, 168.199 65.815, 172.669 63.593 C 181.863 59.022, 182.360 59.040, 182.221 63.946 C 182.077 68.994, 178.945 84.342, 177.433 87.404 C 174.007 94.344, 177.620 96.475, 182.803 90.572 C 185.221 87.817, 186.341 84.821, 188.503 75.322 C 192.123 59.412, 192.707 58, 195.657 58 C 196.984 58, 199.230 57.240, 200.648 56.311 C 202.126 55.343, 204.798 54.715, 206.911 54.840 C 209.709 55.005, 211.154 54.465, 212.904 52.603 C 216.467 48.810, 214.846 47.639, 206.951 48.301 C 203.229 48.613, 199.302 49.419, 198.224 50.092 C 192.558 53.631, 191.934 47.275, 197.104 38.681 C 199.124 35.324, 199.818 33.124, 199.393 31.431 C 198.723 28.761, 198.235 28.555, 196 30 M 174.500 58 C 174.840 58.550, 175.316 59, 175.559 59 C 175.802 59, 176 58.550, 176 58 C 176 57.450, 175.523 57, 174.941 57 C 174.359 57, 174.160 57.450, 174.500 58 M 102.500 65 C 102.160 65.550, 102.557 66, 103.382 66 C 104.207 66, 105.160 65.550, 105.500 65 C 105.840 64.450, 105.443 64, 104.618 64 C 103.793 64, 102.840 64.450, 102.500 65 M 148.018 75.479 C 147.267 76.384, 146.580 81.828, 146.248 89.510 C 145.950 96.415, 145.430 102.234, 145.093 102.443 C 144.755 102.651, 141.650 103.074, 138.192 103.382 C 134.734 103.689, 131.495 104.194, 130.994 104.504 C 130.493 104.814, 126.621 105.270, 122.389 105.519 C 118.158 105.767, 114.446 106.220, 114.141 106.525 C 113.836 106.830, 113.193 112.800, 112.713 119.790 C 112.232 126.781, 111.489 133.175, 111.061 134 C 110.322 135.426, 102.779 137.274, 98.500 137.078 C 91.142 136.740, 84.895 136.899, 83.098 137.469 C 80.211 138.385, 80.471 140.608, 83.713 142.727 C 86 144.221, 88.409 144.466, 99.046 144.285 L 111.667 144.070 112.877 150.636 C 114.548 159.703, 118.054 164.898, 122.550 164.968 C 123.678 164.986, 125.075 165.475, 125.655 166.055 C 126.395 166.795, 129.328 166.027, 135.480 163.480 C 141.871 160.835, 144.549 160.149, 145.352 160.952 C 146.940 162.540, 144.886 165.425, 141.898 165.804 C 136.709 166.463, 120.181 170.927, 114.500 173.205 C 109.493 175.213, 108.448 176.051, 108.187 178.271 C 107.932 180.438, 108.368 181.054, 110.544 181.600 C 112.276 182.035, 113.495 181.817, 114.012 180.981 C 114.450 180.271, 116.707 179.570, 119.028 179.422 C 121.348 179.275, 123.731 178.669, 124.323 178.077 C 124.915 177.485, 126.643 177, 128.162 177 C 129.682 177, 133.459 176.052, 136.556 174.893 C 140.149 173.549, 142.534 173.134, 143.145 173.745 C 144.210 174.810, 142.495 194.933, 141.239 196.120 C 140.592 196.732, 119.250 199.011, 114.328 198.994 C 110.408 198.980, 106 186.518, 106 175.451 C 106 168.541, 106.100 168.650, 100 168.996 C 93.481 169.367, 93.277 173.162, 99.045 186.750 C 101.707 193.021, 102.649 194.779, 105.071 198 C 106.519 199.925, 108.339 202.850, 109.115 204.500 C 110.528 207.502, 111.292 207.773, 119.250 208.090 C 123.256 208.249, 134.450 206.758, 136.265 205.823 C 137.480 205.197, 138.184 205.317, 138.526 206.208 C 139.212 207.996, 133.557 221.109, 131.636 222.184 C 130.778 222.664, 124.344 223.288, 117.340 223.570 C 105.522 224.045, 102 224.866, 102 227.147 C 102 227.643, 103.125 228.477, 104.500 229 C 105.875 229.523, 107 230.421, 107 230.996 C 107 232.157, 122.921 231.762, 126.750 230.505 C 128.385 229.969, 129 230.161, 129 231.209 C 129 233.049, 125.078 236.693, 122.607 237.150 C 121.566 237.343, 120.216 238.315, 119.607 239.311 C 117.826 242.223, 122.854 245.994, 128.279 245.815 C 134.098 245.624, 156 252.592, 156 254.635 C 156 255.472, 154.246 259.430, 152.102 263.430 C 146.639 273.620, 145.734 275.132, 143.750 277.388 C 142.787 278.482, 142 279.749, 142 280.203 C 142 281.786, 135.477 284.993, 132.250 284.996 C 128.836 285, 127.890 286.360, 130.582 287.393 C 133.583 288.545, 138.509 287.987, 141.511 286.156 C 146.571 283.071, 156.549 272.818, 160.292 266.860 C 162.240 263.758, 164.333 260.912, 164.943 260.535 C 166.079 259.833, 168.319 261.454, 179.255 270.888 C 182.690 273.851, 187.029 276.922, 188.897 277.713 C 192.038 279.041, 192.448 278.997, 194.327 277.117 C 196.028 275.417, 196.177 274.685, 195.244 272.636 C 194.590 271.202, 192.948 269.928, 191.281 269.562 C 189.715 269.218, 187.129 267.554, 185.535 265.865 C 182.450 262.597, 173.023 255.156, 169.885 253.513 C 167.750 252.395, 167.473 249.405, 169.125 245.297 C 171.222 240.080, 171.731 238.507, 172.866 233.736 C 173.490 231.115, 174 226.757, 174 224.051 C 174 218.595, 175.379 214, 177.017 214 C 178.913 214, 190.612 208.172, 191.949 206.562 C 193.723 204.424, 191.422 204.444, 187.094 206.603 C 185.326 207.485, 182.107 208.444, 179.940 208.735 C 176.129 209.246, 176 209.167, 176 206.332 C 176 201.695, 174.434 200.931, 169.933 203.374 C 166.703 205.127, 166.015 206.035, 166.008 208.550 C 165.998 212.355, 164.417 214, 160.770 214 C 159.213 214, 155.267 215.125, 152 216.500 C 142.732 220.401, 142.621 220.269, 146.602 210.128 C 148.805 204.517, 149.776 203.231, 152.930 201.750 C 154.979 200.787, 157.308 200, 158.105 200 C 158.903 200, 160.556 199.299, 161.779 198.442 C 163.003 197.585, 164.400 197.129, 164.884 197.428 C 165.369 197.728, 166.830 197.164, 168.132 196.176 C 169.435 195.187, 172.339 193.847, 174.587 193.198 C 179.150 191.880, 182.828 188.630, 181.021 187.513 C 180.411 187.136, 178.895 187.494, 177.652 188.309 C 176.409 189.123, 172.629 190.067, 169.253 190.406 C 165.876 190.745, 161.176 191.821, 158.807 192.797 C 154.224 194.686, 149.998 194.630, 150.004 192.680 C 150.017 188.527, 153.129 173.452, 154.362 171.571 C 155.544 169.767, 157.126 169.167, 162.071 168.650 C 169.909 167.831, 183.471 167.804, 184.273 168.607 C 185.234 169.567, 179.783 179.100, 176.750 181.763 C 173.466 184.647, 173.319 185.589, 176.043 186.301 C 177.939 186.797, 182.474 184.722, 187.671 180.984 C 191.983 177.881, 194.780 165.701, 191.750 163.222 C 191.063 162.660, 187.575 161.473, 184 160.583 C 178.210 159.143, 176.354 159.118, 167 160.350 C 161.225 161.111, 156.112 161.383, 155.638 160.954 C 155.156 160.519, 155.190 158.923, 155.715 157.337 C 156.504 154.956, 157.285 154.448, 160.577 154.176 C 162.735 153.998, 165.175 153.266, 166 152.548 C 166.825 151.831, 169.670 150.932, 172.321 150.550 C 175.343 150.115, 177.770 149.090, 178.821 147.805 C 179.745 146.678, 181.105 145.247, 181.845 144.627 C 186.465 140.756, 187.869 138.887, 189.487 134.457 C 190.484 131.731, 192.078 127.651, 193.031 125.391 L 194.763 121.282 202.131 120.626 C 206.184 120.265, 213.234 119.429, 217.797 118.768 L 226.094 117.566 225.797 114.533 C 225.503 111.532, 225.448 111.505, 220.500 111.942 C 217.750 112.185, 211.225 112.410, 206 112.442 L 196.500 112.500 196 108.500 C 195.567 105.036, 194.973 104.243, 191.571 102.582 C 186.630 100.170, 172.292 98.898, 163.228 100.067 C 159.528 100.544, 156.211 100.949, 155.858 100.967 C 155.505 100.985, 155.053 95.870, 154.854 89.601 C 154.553 80.130, 154.170 77.846, 152.591 76.101 C 150.335 73.608, 149.648 73.515, 148.018 75.479 M 149.473 97.317 C 149.060 98.334, 149.226 99.626, 149.851 100.251 C 151.538 101.938, 152.454 100.321, 151.263 97.760 C 150.298 95.686, 150.151 95.650, 149.473 97.317 M 156 103 C 156 103.550, 156.450 104, 157 104 C 157.550 104, 158 103.550, 158 103 C 158 102.450, 157.550 102, 157 102 C 156.450 102, 156 102.450, 156 103 M 140.459 106.067 C 140.096 106.653, 140.050 107.384, 140.357 107.690 C 141.179 108.513, 144 107.229, 144 106.031 C 144 104.674, 141.303 104.701, 140.459 106.067 M 158.250 107.695 L 155 108.127 155 116.170 C 155 123.439, 155.169 124.145, 156.750 123.493 C 157.713 123.097, 162.100 122.156, 166.500 121.403 C 179.924 119.104, 185.371 117.171, 186.768 114.213 C 188.270 111.030, 188.331 109.322, 186.971 108.482 C 185.729 107.715, 162.825 107.086, 158.250 107.695 M 139.500 111.073 C 137.850 111.551, 132.900 112.799, 128.500 113.847 L 120.500 115.752 120.210 123.876 L 119.919 132 122.710 131.974 C 124.244 131.960, 128.859 130.835, 132.965 129.474 C 137.071 128.113, 141.243 127, 142.238 127 C 143.957 127, 143.962 127.129, 142.336 129.609 C 140.702 132.104, 140.709 132.203, 142.491 131.859 C 145.102 131.356, 145.904 127.354, 145.264 118.024 C 144.687 109.601, 144.666 109.577, 139.500 111.073 M 198 116 C 198 116.550, 198.450 117, 199 117 C 199.550 117, 200 116.550, 200 116 C 200 115.450, 199.550 115, 199 115 C 198.450 115, 198 115.450, 198 116 M 114 119 C 114 119.550, 114.450 120, 115 120 C 115.550 120, 116 119.550, 116 119 C 116 118.450, 115.550 118, 115 118 C 114.450 118, 114 118.450, 114 119 M 176.573 121.895 C 174.849 122.571, 174.823 122.718, 176.323 123.294 C 177.245 123.648, 177.988 124.289, 177.974 124.719 C 177.930 126.046, 170.517 129, 167.231 129 C 165.519 129, 163.840 129.450, 163.500 130 C 163.160 130.550, 161.816 131, 160.512 131 C 156.328 131, 155 133.454, 155 141.188 C 155 148.036, 155.063 148.214, 157.250 147.529 C 158.488 147.142, 163.009 146.518, 167.298 146.143 C 171.587 145.768, 175.412 144.991, 175.798 144.415 C 179.511 138.877, 181.079 135.732, 182.177 131.628 C 183.369 127.170, 183.318 126.700, 181.482 125.292 C 180.110 124.239, 179.885 123.626, 180.750 123.302 C 181.438 123.044, 182 122.421, 182 121.917 C 182 120.838, 179.300 120.827, 176.573 121.895 M 161 124.893 C 161 125.502, 159.875 126, 158.500 126 C 157.058 126, 156 126.576, 156 127.361 C 156 128.274, 156.824 128.565, 158.500 128.245 C 159.875 127.982, 161 127.361, 161 126.864 C 161 126.368, 162.125 126.244, 163.500 126.589 C 165.040 126.976, 166 126.791, 166 126.108 C 166 125.499, 165.587 125, 165.082 125 C 164.577 125, 163.452 124.727, 162.582 124.393 C 161.712 124.059, 161 124.284, 161 124.893 M 142.500 134 C 142.160 134.550, 140.839 135, 139.563 135 C 138.288 135, 136.726 135.625, 136.092 136.389 C 135.458 137.153, 132.816 138.292, 130.220 138.921 C 122.945 140.683, 120.009 142.092, 119.903 143.871 C 119.487 150.868, 121.244 160, 123.006 160 C 123.474 160, 124.499 159.358, 125.283 158.574 C 127.151 156.706, 132.247 154.616, 138.700 153.070 C 141.561 152.385, 144.329 151.301, 144.852 150.662 C 145.712 149.612, 146.423 140.964, 146.119 135.250 C 145.999 132.974, 143.638 132.159, 142.500 134 M 126.554 134.913 C 126.184 135.511, 124.784 136, 123.441 136 C 122.098 136, 121 136.436, 121 136.970 C 121 138.193, 127.885 137.995, 128.655 136.749 C 128.969 136.241, 128.776 135.376, 128.226 134.826 C 127.559 134.159, 127.002 134.188, 126.554 134.913 M 102 140 C 102 140.550, 104.052 141, 106.559 141 C 109.344 141, 110.878 140.611, 110.500 140 C 110.160 139.450, 108.109 139, 105.941 139 C 103.773 139, 102 139.450, 102 140 M 86.813 141.683 C 87.534 141.972, 88.397 141.936, 88.729 141.604 C 89.061 141.272, 88.471 141.036, 87.417 141.079 C 86.252 141.127, 86.015 141.364, 86.813 141.683 M 143.500 155 C 143.160 155.550, 143.359 156, 143.941 156 C 144.523 156, 145 155.550, 145 155 C 145 154.450, 144.802 154, 144.559 154 C 144.316 154, 143.840 154.450, 143.500 155 M 132 202 C 130.793 202.780, 130.951 202.972, 132.809 202.985 C 134.097 202.993, 134.845 202.558, 134.500 202 C 133.757 200.798, 133.861 200.798, 132 202 M 154.693 217.798 C 153.628 218.017, 153.026 218.853, 153.228 219.834 C 153.567 221.484, 149.344 224.745, 144 226.962 C 139.418 228.862, 138.670 229.591, 137.331 233.457 C 135.972 237.382, 136.771 239.957, 139.372 240.033 C 139.993 240.051, 144.500 241.588, 149.390 243.448 C 154.279 245.308, 158.797 246.631, 159.429 246.389 C 160.061 246.146, 161.142 243.822, 161.830 241.224 C 162.519 238.626, 163.739 234.210, 164.541 231.412 C 166.113 225.928, 166.503 218, 165.199 218 C 163.749 218, 159.016 220.484, 159.008 221.250 C 159.004 221.662, 158.045 222, 156.878 222 C 155.126 222, 154.968 221.744, 155.972 220.534 C 157.563 218.617, 156.963 217.333, 154.693 217.798 M 129.500 242 C 129.840 242.550, 131.018 243, 132.118 243 C 133.218 243, 133.840 242.550, 133.500 242 C 133.160 241.450, 131.982 241, 130.882 241 C 129.782 241, 129.160 241.450, 129.500 242" stroke="none" fill="black" fill-rule="evenodd"/>
</svg>