<svg xmlns="http://www.w3.org/2000/svg" width="300" height="300" viewBox="0 0 300 300" version="1.1">
	<path d="M 136.667 12.667 C 136.300 13.033, 136 14.743, 136 16.467 C 136 18.190, 135.585 20.027, 135.077 20.550 C 134.029 21.628, 135.975 30.375, 137.631 32.031 C 138.282 32.682, 138.542 38.114, 138.328 46.588 C 137.866 64.889, 137.484 68.345, 135.869 68.840 C 135.116 69.070, 132.612 70.101, 130.305 71.129 C 127.998 72.158, 124.847 73, 123.304 73 C 121.762 73, 117.349 73.667, 113.500 74.483 C 109.650 75.298, 104.613 75.973, 102.307 75.983 C 97.300 76.003, 90.754 79.482, 91.215 81.878 C 91.465 83.175, 92.928 83.525, 98.514 83.624 L 105.500 83.748 106.162 88.624 C 107.262 96.720, 107.038 107.046, 105.580 115.500 C 102.383 134.030, 100.903 141.666, 99.980 144.399 C 99.441 145.994, 99 148.272, 99 149.462 C 99 151.777, 95.046 160.557, 92.059 164.876 C 91.060 166.319, 89.677 170.875, 88.986 175 C 87.818 181.969, 82.343 194.601, 78.594 198.978 C 77.876 199.815, 75.382 204.288, 73.051 208.918 C 67.896 219.157, 64.939 223.893, 62.130 226.405 C 60.958 227.453, 60 228.732, 60 229.247 C 60 229.763, 59.100 231.329, 58 232.727 C 55.965 235.315, 55.329 239.467, 56.826 240.393 C 59.124 241.813, 62.453 239.196, 66.716 232.620 C 69.254 228.704, 71.882 225.168, 72.554 224.763 C 73.227 224.357, 74.064 222.883, 74.414 221.486 C 74.765 220.089, 76.390 216.771, 78.026 214.112 C 79.662 211.454, 81 208.801, 81 208.216 C 81 207.632, 82.036 205.881, 83.302 204.327 C 87.278 199.444, 92.809 187.725, 95.039 179.455 C 96.219 175.080, 98.718 168.274, 100.591 164.332 C 104.033 157.087, 105.574 151.464, 108.972 133.755 C 110 128.396, 111.311 122.546, 111.885 120.755 C 112.698 118.219, 114.975 94.485, 114.996 88.321 C 114.998 87.673, 114.292 86.434, 113.426 85.569 C 111.993 84.136, 112.016 83.941, 113.676 83.403 C 114.679 83.078, 116.625 82.426, 118 81.953 C 119.375 81.481, 123.200 80.800, 126.500 80.441 C 129.800 80.082, 133.400 79.245, 134.500 78.580 C 137.010 77.064, 144.896 75.379, 156.439 73.891 C 161.356 73.258, 166.756 72.166, 168.439 71.465 C 170.123 70.764, 173.750 69.910, 176.500 69.567 C 185.872 68.400, 191.850 66.773, 191.370 65.521 C 190.737 63.871, 193.633 61.645, 195.487 62.357 C 196.319 62.676, 197 63.626, 197 64.469 C 197 65.618, 198.129 66, 201.531 66 C 207.075 66, 207.780 67.295, 206.091 74.378 C 204.533 80.915, 194.720 103.673, 189.701 112.392 C 187.597 116.046, 187.174 117.565, 188.029 118.392 C 189.793 120.099, 198.158 110.041, 203.480 99.815 C 208.380 90.398, 209.582 85.523, 205.899 90 L 203.842 92.500 204.492 89.500 C 205.355 85.515, 206.807 84.087, 208.042 86.008 C 208.887 87.324, 209.112 87.325, 209.951 86.020 C 210.474 85.207, 211.200 82.732, 211.564 80.520 C 211.928 78.309, 212.660 75.962, 213.191 75.304 C 213.721 74.646, 214.233 71.003, 214.328 67.209 C 214.563 57.800, 213.532 56.654, 205.564 57.461 C 187.445 59.296, 180.473 60.280, 170.500 62.409 C 150.671 66.642, 142.561 67.961, 141.693 67.093 C 141.222 66.622, 141.547 64.155, 142.420 61.585 C 143.289 59.025, 144 54.240, 144 50.951 C 144 47.663, 144.541 44.107, 145.202 43.048 C 146.114 41.587, 146.128 40.566, 145.259 38.812 C 144.629 37.540, 143.888 34.700, 143.612 32.500 C 141.477 15.482, 139.499 9.834, 136.667 12.667 M 176.500 27.026 C 170.194 28.250, 162.786 30.540, 159.300 32.344 C 157.539 33.255, 155.486 34, 154.737 34 C 153.987 34, 152.196 35.237, 150.755 36.750 C 148.452 39.168, 148.301 39.723, 149.501 41.349 C 151.280 43.760, 157.102 42.909, 165.500 39.011 C 175.922 34.174, 181.213 32, 182.560 32 C 184.066 32, 185.429 28.503, 184.506 27.009 C 183.811 25.886, 182.364 25.889, 176.500 27.026 M 161.720 35.588 C 160.192 36.417, 159.206 37.525, 159.531 38.050 C 160.224 39.172, 163.020 37.886, 164.955 35.555 C 166.566 33.613, 165.338 33.626, 161.720 35.588 M 160.231 68.725 C 158.433 68.947, 157.222 69.550, 157.540 70.065 C 158.417 71.484, 162.375 71.183, 164.559 69.532 C 166.625 67.969, 166.508 67.948, 160.231 68.725 M 154.500 71 C 154.160 71.550, 154.359 72, 154.941 72 C 155.523 72, 156 71.550, 156 71 C 156 70.450, 155.802 70, 155.559 70 C 155.316 70, 154.840 70.450, 154.500 71 M 149 72.500 C 149 73.325, 149.177 74, 149.393 74 C 149.609 74, 150.045 73.325, 150.362 72.500 C 150.678 71.675, 150.501 71, 149.969 71 C 149.436 71, 149 71.675, 149 72.500 M 142 73 C 142 73.550, 142.648 74, 143.441 74 C 144.234 74, 145.160 73.550, 145.500 73 C 145.840 72.450, 145.191 72, 144.059 72 C 142.927 72, 142 72.450, 142 73 M 134 75.969 C 134 76.501, 134.675 76.678, 135.500 76.362 C 136.325 76.045, 137 75.609, 137 75.393 C 137 75.177, 136.325 75, 135.500 75 C 134.675 75, 134 75.436, 134 75.969 M 124 77 C 122.884 77.721, 123.461 77.973, 126.250 77.985 C 128.313 77.993, 130 77.550, 130 77 C 130 75.726, 125.971 75.726, 124 77 M 113 80.059 C 113 80.641, 113.450 80.840, 114 80.500 C 114.550 80.160, 115 79.684, 115 79.441 C 115 79.198, 114.550 79, 114 79 C 113.450 79, 113 79.477, 113 80.059 M 149.288 83.250 C 148.279 84.567, 146.566 92.273, 145.506 100.257 C 144.780 105.735, 143.387 106.767, 133.326 109.283 C 122.759 111.926, 117.185 118.080, 124.698 118.809 C 126.447 118.979, 130.879 118.191, 134.545 117.059 C 138.211 115.926, 141.446 115, 141.733 115 C 142.859 115, 140.777 123.784, 138.436 128.908 C 137.077 131.883, 136.229 135.145, 136.550 136.158 C 137.177 138.132, 141.429 138.734, 142.500 137 C 142.840 136.450, 143.793 136, 144.618 136 C 145.443 136, 145.859 136.419, 145.543 136.931 C 145.226 137.443, 145.312 138.069, 145.734 138.323 C 147.187 139.197, 163.808 137.185, 167.150 135.730 C 176.783 131.536, 178.941 130.846, 180.692 131.402 C 181.744 131.736, 183.456 131.387, 184.497 130.626 C 186.301 129.307, 186.309 129.121, 184.671 126.621 C 182.338 123.060, 177.346 123.146, 167.556 126.915 C 160.175 129.758, 145 132.114, 145 130.418 C 145 127.541, 151.575 112.862, 153.369 111.733 C 155.759 110.228, 171.405 104, 172.794 104 C 174.399 104, 177 100.395, 177 98.171 C 177 95.570, 175.277 95.414, 169 97.449 C 160.794 100.109, 154.139 102, 152.983 102 C 151.697 102, 152.238 98.340, 154.644 90.770 C 156.466 85.037, 155.743 82, 152.555 82 C 151.284 82, 149.814 82.563, 149.288 83.250 M 150.813 136.683 C 151.534 136.972, 152.397 136.936, 152.729 136.604 C 153.061 136.272, 152.471 136.036, 151.417 136.079 C 150.252 136.127, 150.015 136.364, 150.813 136.683 M 132.075 146.409 C 131.393 147.231, 131.113 148.780, 131.452 149.850 C 131.852 151.109, 131.045 153.333, 129.168 156.148 C 127.572 158.542, 125.721 162.190, 125.054 164.255 C 124.387 166.320, 122.077 170.358, 119.921 173.228 C 117.764 176.098, 116 178.867, 116 179.382 C 116 179.897, 114.273 182.609, 112.163 185.409 C 110.053 188.209, 107.799 191.490, 107.155 192.699 C 106.511 193.909, 103.935 196.977, 101.431 199.516 C 96.434 204.585, 96.012 207.325, 100.155 207.806 C 102.260 208.051, 103.659 207.106, 107.091 203.122 C 110.882 198.721, 111.841 198.137, 115.206 198.183 C 118.248 198.225, 119.130 198.670, 119.559 200.377 C 119.854 201.555, 121.456 203.299, 123.117 204.253 C 125.425 205.577, 125.988 206.461, 125.502 207.993 C 125.006 209.555, 125.318 210, 126.908 210 C 129.356 210, 128.838 211.876, 124.369 219.203 C 117.196 230.961, 111.145 238.619, 105.647 242.898 C 102.395 245.429, 98.052 248.963, 95.996 250.750 C 93.767 252.688, 91.170 254, 89.562 254 C 87.212 254, 86.908 254.352, 87.184 256.750 C 87.468 259.223, 87.873 259.489, 91.213 259.389 C 93.255 259.328, 95.955 258.539, 97.213 257.636 C 98.471 256.733, 101.750 254.439, 104.500 252.539 C 107.250 250.639, 110.683 248.177, 112.129 247.067 C 114.705 245.089, 127.052 228.608, 129.988 223.227 C 130.807 221.727, 132.310 219.032, 133.328 217.237 L 135.180 213.973 138.167 216.487 C 139.810 217.869, 142.219 219.268, 143.520 219.594 C 144.935 219.949, 146.009 221.055, 146.194 222.344 C 146.432 224.012, 147.124 224.457, 149.251 224.312 C 151.146 224.182, 152 224.604, 152 225.670 C 152 226.824, 152.640 227.056, 154.521 226.584 C 157.213 225.909, 161.399 227.545, 160.539 228.937 C 160.255 229.397, 160.726 230.358, 161.587 231.072 C 162.808 232.085, 163.318 232.103, 163.906 231.152 C 164.321 230.481, 165.409 230.220, 166.324 230.571 C 167.240 230.922, 167.778 231.550, 167.522 231.965 C 166.877 233.008, 174.043 236.014, 176.500 235.731 C 177.714 235.591, 178.500 236.090, 178.500 237 C 178.500 238.918, 180.868 239.954, 183.750 239.297 C 184.988 239.014, 186 239.234, 186 239.785 C 186 241.370, 189.119 242.146, 190.588 240.927 C 192.311 239.497, 198.581 241.440, 199.937 243.825 C 200.758 245.269, 201.188 245.317, 203.062 244.168 C 204.621 243.212, 205.542 243.142, 206.318 243.918 C 207.094 244.694, 206.849 245.004, 205.450 245.015 C 203.825 245.028, 203.750 245.192, 205 246 C 205.825 246.533, 207.400 246.941, 208.500 246.906 C 209.600 246.871, 209.938 246.615, 209.250 246.338 C 205.236 244.718, 209.815 244.200, 221.500 244.952 L 225.500 245.210 221.500 246.528 C 218.220 247.609, 218.112 248.659, 221.340 248.088 C 221.802 248.007, 223.377 247.787, 224.840 247.600 C 235.313 246.260, 237.088 245.684, 239.469 242.854 C 243.529 238.029, 245.380 228.744, 242.502 227.639 C 240.983 227.056, 239.207 229.128, 236.997 234.063 C 234.535 239.562, 222.807 242.136, 211.712 239.614 C 208.296 238.837, 203.025 237.885, 200 237.498 C 196.975 237.111, 193.150 236.206, 191.500 235.485 C 189.850 234.765, 186.087 233.408, 183.137 232.470 C 180.188 231.532, 176.588 230.145, 175.137 229.388 C 173.687 228.632, 171.931 228.010, 171.236 228.006 C 170.541 228.003, 169.191 227.601, 168.236 227.113 C 167.281 226.626, 161.211 223.616, 154.747 220.425 C 141.270 213.772, 137.914 210.976, 139.786 207.958 C 140.454 206.881, 141.377 205.213, 141.838 204.250 C 142.299 203.287, 143.417 201.150, 144.324 199.500 C 145.230 197.850, 147.147 194.025, 148.583 191 C 150.020 187.975, 151.488 185.275, 151.847 185 C 152.206 184.725, 153.999 181.342, 155.831 177.483 C 159.702 169.326, 160.003 163.214, 156.500 163.881 C 155.400 164.090, 150.049 164.205, 144.609 164.136 C 133.861 163.999, 130.872 162.927, 133.376 160.107 C 135.288 157.953, 137.276 150.999, 136.847 147.966 C 136.442 145.108, 133.856 144.264, 132.075 146.409 M 200.087 160.395 C 199.450 161.163, 197.257 162.081, 195.214 162.436 C 189.411 163.444, 186.122 165.041, 185.443 167.181 C 184.856 169.028, 184.707 169.045, 182.967 167.470 C 181.530 166.170, 180.487 166.006, 178.308 166.737 C 175.661 167.626, 175.498 168.019, 175.460 173.590 C 175.437 176.841, 174.131 184.900, 172.557 191.500 C 168.982 206.486, 168.929 207.419, 171.633 207.804 C 174.005 208.143, 173.868 208.435, 179.505 191 C 181.372 185.225, 183.206 178.137, 183.579 175.250 C 184.025 171.799, 184.728 170, 185.629 170 C 186.383 170, 187 170.723, 187 171.607 C 187 172.733, 187.524 173.008, 188.750 172.526 C 189.713 172.148, 192.525 171.156, 195 170.321 C 197.475 169.487, 199.928 168.398, 200.450 167.902 C 200.972 167.406, 202.044 167, 202.830 167 C 204.335 167, 204.201 169.386, 202.076 180.500 C 200.981 186.222, 200.861 203.274, 201.889 207 C 202.417 208.913, 203.346 209.575, 205.847 209.818 C 207.644 209.992, 209.362 210.780, 209.664 211.568 C 210.847 214.649, 221.622 212.302, 229.653 207.213 C 232.487 205.417, 234.992 203.397, 235.220 202.724 C 235.906 200.692, 234.561 179.221, 233.693 178.357 C 232.554 177.222, 227.581 180.222, 227.184 182.284 C 226.957 183.460, 227.506 184, 228.927 184 C 231.201 184, 231.666 185.934, 229.832 187.768 C 228.942 188.658, 228.944 189.869, 229.841 192.863 C 230.488 195.023, 230.783 197.401, 230.497 198.146 C 229.395 201.020, 211.426 206.962, 208.750 205.337 C 207.670 204.682, 207.826 190.095, 208.955 186.158 C 210.267 181.582, 211.395 166.711, 210.654 163.759 C 209.656 159.782, 202.489 157.501, 200.087 160.395 M 128.345 162.543 C 128.019 163.392, 128.004 164.337, 128.310 164.643 C 129.186 165.519, 131 164.034, 131 162.441 C 131 160.522, 129.092 160.596, 128.345 162.543 M 130.842 169.750 C 130.034 170.713, 127.827 174.128, 125.937 177.340 C 124.047 180.552, 121.749 183.585, 120.831 184.081 C 119.913 184.577, 118.861 186.355, 118.493 188.031 C 117.933 190.581, 118.413 191.798, 121.434 195.484 C 123.419 197.907, 126.438 201.285, 128.143 202.990 C 131.066 205.913, 131.349 205.994, 133.087 204.422 C 134.100 203.504, 136.997 198.447, 139.524 193.184 C 142.051 187.921, 145.442 181.654, 147.059 179.257 C 149.920 175.019, 150.775 172.134, 149.250 171.870 C 148.838 171.798, 145.626 171.632, 142.113 171.501 C 137.426 171.325, 135.483 170.828, 134.813 169.631 C 133.645 167.543, 132.669 167.572, 130.842 169.750 M 238 200.917 C 238 202.145, 238.646 203, 239.573 203 C 240.505 203, 241.015 202.320, 240.823 201.333 C 240.337 198.824, 238 198.480, 238 200.917" stroke="none" fill="black" fill-rule="evenodd"/>
</svg>