<svg xmlns="http://www.w3.org/2000/svg" width="300" height="300" viewBox="0 0 300 300" version="1.1">
	<path d="M 143.768 13.815 C 142.462 16.027, 142.184 18.543, 142.472 25.565 C 143.156 42.280, 144.181 54.485, 145.490 61.500 C 146.208 65.350, 146.633 68.768, 146.435 69.095 C 146.236 69.422, 139.226 69.998, 130.856 70.376 C 116.202 71.037, 107.777 72.295, 105.350 74.184 C 103.797 75.392, 104.067 81.812, 105.697 82.437 C 107.447 83.109, 107.345 85.512, 105.487 87.370 C 104.327 88.530, 103.747 93.157, 103.004 107.192 C 102.470 117.261, 101.564 127.458, 100.989 129.851 C 100.415 132.244, 99.541 136.744, 99.049 139.851 C 98.556 142.958, 97.633 147.525, 96.996 150 C 96.359 152.475, 95.474 156.525, 95.027 159 C 94.581 161.475, 93.524 167.100, 92.677 171.500 C 91.831 175.900, 90.826 181.975, 90.445 185 C 90.064 188.025, 89.132 191.388, 88.376 192.473 C 87.619 193.557, 87 195.605, 87 197.023 C 87 198.440, 86.621 200.028, 86.159 200.550 C 85.054 201.798, 81.260 213.397, 80.107 219.048 C 78.069 229.045, 75.610 237.591, 74.344 239.079 C 73.605 239.947, 73 241.410, 73 242.329 C 73 243.248, 72.519 244, 71.930 244 C 71.342 244, 71.005 245.013, 71.180 246.250 C 71.404 247.824, 72.282 248.591, 74.101 248.802 C 76.985 249.137, 79.416 246.338, 80.571 241.354 C 81.651 236.688, 84.748 227.339, 86.385 223.800 C 87.225 221.985, 88.578 217.800, 89.391 214.500 C 90.205 211.200, 91.819 205.350, 92.977 201.500 C 94.136 197.650, 95.464 192.700, 95.927 190.500 C 96.391 188.300, 97.547 183.800, 98.497 180.500 C 101.010 171.766, 105.752 149.124, 107.606 137 C 108.489 131.225, 109.584 124.076, 110.038 121.114 C 110.493 118.151, 110.989 107.503, 111.141 97.451 L 111.417 79.175 127.250 78.458 C 142.557 77.764, 143.072 77.671, 142.791 75.645 C 142.597 74.250, 143.130 73.424, 144.383 73.176 C 145.974 72.860, 146.162 73.219, 145.593 75.485 C 145.223 76.960, 145.276 77.947, 145.712 77.678 C 146.147 77.409, 148.528 77.068, 151.002 76.920 C 153.476 76.772, 156.850 75.943, 158.500 75.077 C 160.986 73.772, 165.561 73.504, 185.209 73.510 C 200.944 73.516, 209.284 73.884, 210.006 74.606 C 211.666 76.266, 206.775 94.940, 201.849 105.753 C 198.687 112.693, 198.321 115, 200.381 115 C 202.746 115, 206.450 108.997, 212.411 95.500 C 215.570 88.350, 218.964 81.600, 219.954 80.500 C 222.223 77.979, 224.242 71.795, 223.461 69.760 C 222.721 67.830, 211.821 66.282, 193.500 65.505 C 183.727 65.091, 160.455 66.762, 157.946 68.058 C 154.210 69.988, 152.339 65.385, 151.874 53.115 C 151.707 48.705, 151.847 44.819, 152.186 44.481 C 152.524 44.143, 154.983 43.733, 157.650 43.570 C 173.868 42.583, 179.970 41.841, 191.750 39.424 C 193.223 39.121, 194 38.236, 194 36.859 C 194 34.771, 193.872 34.762, 174.750 35.468 C 164.162 35.859, 154.375 36.251, 153 36.340 L 150.500 36.500 150.215 25.061 C 149.943 14.098, 149.145 11, 146.593 11 C 145.954 11, 144.683 12.267, 143.768 13.815 M 157 41 C 155.927 41.694, 156.922 41.954, 160.500 41.914 C 164.206 41.874, 164.982 41.637, 163.500 41 C 160.798 39.839, 158.797 39.839, 157 41 M 176.022 69.473 C 175.303 70.339, 175.008 71.341, 175.365 71.699 C 176.274 72.608, 183.110 70.719, 183.324 69.500 C 183.626 67.782, 177.445 67.759, 176.022 69.473 M 194.631 69.702 C 193.118 71.215, 194.351 71.837, 199.501 72.157 C 203.583 72.412, 205.002 72.157, 205.001 71.171 C 205 70.220, 204.163 70.025, 202.059 70.487 C 200.441 70.842, 198.250 70.669, 197.190 70.102 C 196.130 69.534, 194.979 69.355, 194.631 69.702 M 167.750 71.662 C 168.438 71.940, 169.563 71.940, 170.250 71.662 C 170.938 71.385, 170.375 71.158, 169 71.158 C 167.625 71.158, 167.063 71.385, 167.750 71.662 M 153.413 73.140 C 153.168 73.537, 153.475 74.176, 154.095 74.559 C 154.716 74.942, 155.511 74.794, 155.862 74.229 C 156.213 73.664, 157.625 72.982, 159 72.713 C 160.577 72.405, 160.089 72.260, 157.680 72.321 C 155.579 72.375, 153.659 72.743, 153.413 73.140 M 120.566 74.898 C 119.330 75.382, 119.035 75.903, 119.747 76.344 C 120.360 76.723, 121.145 76.574, 121.492 76.014 C 121.915 75.329, 122.736 75.323, 123.995 75.997 C 126.934 77.570, 132 77.256, 132 75.500 C 132 74.367, 130.837 74.017, 127.250 74.070 C 124.638 74.109, 121.630 74.481, 120.566 74.898 M 152.089 88.393 C 151.452 89.160, 150.600 91.747, 150.193 94.143 L 149.454 98.500 144.477 98.761 C 135.532 99.231, 135 99.533, 135 104.146 L 135 108.254 139.999 107.774 C 146.751 107.125, 147.394 108.075, 145.922 116.525 C 144.401 125.263, 145.771 130.640, 149.787 131.689 C 153.292 132.604, 178.659 132.586, 182.250 131.666 C 185.716 130.778, 186.062 127.258, 182.750 126.573 C 181.512 126.317, 174.914 125.920, 168.086 125.690 C 152.737 125.174, 152.632 125.087, 154.740 114.740 C 155.552 110.758, 156.624 106.995, 157.124 106.379 C 158.577 104.584, 170.638 104.735, 174.562 106.597 C 182.014 110.133, 183.552 104.210, 176.228 100.178 C 172.956 98.377, 170.462 97.838, 165.570 97.875 C 158.878 97.927, 156.209 96.504, 157.361 93.501 C 158.105 91.564, 156.069 87, 154.462 87 C 153.793 87, 152.725 87.627, 152.089 88.393 M 165.500 102 C 165.840 102.550, 167.018 103, 168.118 103 C 169.218 103, 169.840 102.550, 169.500 102 C 169.160 101.450, 167.982 101, 166.882 101 C 165.782 101, 165.160 101.450, 165.500 102 M 144.721 103.414 C 143.286 104.502, 143.214 104.868, 144.349 105.304 C 145.757 105.844, 148 104.306, 148 102.800 C 148 101.638, 146.754 101.871, 144.721 103.414 M 148.067 126.580 C 149.486 128.290, 151.321 128.464, 150.779 126.837 C 150.566 126.198, 149.603 125.559, 148.640 125.418 C 147.233 125.211, 147.120 125.440, 148.067 126.580 M 173.701 145.632 C 172.130 147.203, 173.129 149, 175.573 149 C 177.479 149, 178.060 148.549, 177.812 147.261 C 177.461 145.441, 174.905 144.428, 173.701 145.632 M 199.344 148.195 C 198.880 148.913, 198.451 156.700, 198.390 165.500 C 198.329 174.300, 198.103 182.369, 197.889 183.432 C 197.342 186.147, 202.166 188.937, 204.319 187.150 C 206.526 185.319, 207.502 171.030, 206.010 162.418 C 205.350 158.613, 204.516 153.706, 204.155 151.513 C 203.478 147.390, 200.977 145.665, 199.344 148.195 M 100.158 153 C 100.158 154.375, 100.385 154.938, 100.662 154.250 C 100.940 153.563, 100.940 152.438, 100.662 151.750 C 100.385 151.063, 100.158 151.625, 100.158 153 M 176.250 153.863 L 173 156.646 173.087 171.573 C 173.135 179.783, 173.475 190.431, 173.842 195.236 C 174.209 200.041, 174.357 204.428, 174.171 204.986 C 173.985 205.544, 172.596 206, 171.083 206 C 166.886 206, 157 208.171, 157 209.093 C 157 209.542, 158.688 210.190, 160.750 210.533 C 162.813 210.875, 165.175 211.391, 166 211.678 C 168.865 212.675, 163.278 213.940, 160.071 213.020 C 158.256 212.500, 156.796 212.521, 156.454 213.074 C 155.338 214.880, 153.773 213.977, 154.330 211.847 C 154.640 210.663, 154.242 208.435, 153.446 206.896 C 151.704 203.527, 151.547 194.089, 153.173 190.520 C 154.070 188.551, 154.070 187.670, 153.173 186.773 C 151.729 185.329, 151.618 172.287, 152.988 165.064 C 153.776 160.909, 153.669 159.261, 152.462 156.927 C 150.449 153.034, 149 153.223, 149 157.378 C 149 159.615, 148.332 161.220, 147.022 162.128 C 145.362 163.279, 144.997 164.855, 144.755 171.901 C 144.529 178.485, 144.101 180.533, 142.778 181.368 C 141.457 182.201, 140.551 181.927, 138.613 180.106 C 136.372 178.001, 135.394 177.814, 128.318 178.140 L 120.500 178.500 120.216 168.344 C 120.009 160.955, 119.536 157.860, 118.479 156.982 C 116.318 155.189, 114 156.564, 114 159.640 C 114 161.126, 113.373 163.053, 112.607 163.921 C 111.534 165.136, 111.335 167.746, 111.743 175.251 C 112.203 183.723, 112.585 185.339, 114.654 187.572 L 117.035 190.141 120.596 187.941 C 123.501 186.145, 125.017 185.860, 128.828 186.391 C 136.560 187.470, 142.995 188.661, 143.421 189.093 C 143.642 189.317, 143.958 193.775, 144.122 199 L 144.421 208.500 138.960 209.174 C 135.957 209.545, 128.189 210.167, 121.698 210.556 C 112.393 211.114, 109.432 211.654, 107.698 213.111 C 105.905 214.619, 105.757 215.129, 106.896 215.879 C 107.663 216.384, 108.015 217.519, 107.677 218.399 C 107.258 219.492, 107.609 219.985, 108.781 219.953 C 111.264 219.886, 123.738 217.261, 122.250 217.119 C 121.563 217.054, 121 216.606, 121 216.125 C 121 214.940, 126.572 213.898, 128.650 214.696 C 130.050 215.233, 129.930 215.492, 127.910 216.289 L 125.500 217.242 128.212 218.024 C 129.703 218.455, 132.628 218.411, 134.712 217.927 C 139.865 216.731, 146.721 216.780, 149.057 218.030 C 150.466 218.784, 151.754 218.661, 153.862 217.571 C 155.446 216.752, 159.837 215.774, 163.621 215.398 C 167.404 215.022, 171.504 214.342, 172.732 213.889 C 174.471 213.246, 175.205 213.515, 176.059 215.110 C 176.661 216.235, 176.884 217.861, 176.553 218.723 C 175.737 220.849, 179.034 224.550, 180.161 222.774 C 180.606 222.073, 180.976 220.318, 180.985 218.872 C 180.993 217.427, 181.675 215.685, 182.500 215 C 183.325 214.315, 184 212.910, 184 211.878 C 184 210.577, 184.717 210, 186.333 210 C 189.424 210, 190.261 210.979, 188.741 212.820 C 187.645 214.148, 188.624 214.245, 197.097 213.652 C 204.471 213.137, 207.686 213.331, 210.973 214.491 C 216.739 216.525, 216.815 216.501, 217.568 212.489 C 218.725 206.322, 217.826 206, 199.437 206 C 189.720 206, 182.870 205.599, 182.505 205.008 C 181.615 203.568, 181.366 184.311, 182.226 183.446 C 183.136 182.530, 187.613 182.573, 191.337 183.534 C 193.900 184.196, 194.141 184.042, 193.837 181.942 C 193.446 179.248, 187.529 177.071, 185.664 178.936 C 185.079 179.521, 183.790 180, 182.800 180 C 181.239 180, 180.973 178.971, 180.798 172.250 C 180.686 167.988, 180.438 162.475, 180.245 160 C 180.052 157.525, 179.870 154.488, 179.841 153.250 C 179.812 152.012, 179.724 151.018, 179.644 151.041 C 179.565 151.063, 178.037 152.333, 176.250 153.863 M 193 211 C 191.862 211.736, 192.284 211.973, 194.750 211.985 C 196.537 211.993, 198 211.550, 198 211 C 198 209.730, 194.965 209.730, 193 211 M 143 214 C 143 214.550, 143.423 215, 143.941 215 C 144.459 215, 145.160 214.550, 145.500 214 C 145.840 213.450, 145.416 213, 144.559 213 C 143.702 213, 143 213.450, 143 214 M 133.813 215.683 C 134.534 215.972, 135.397 215.936, 135.729 215.604 C 136.061 215.272, 135.471 215.036, 134.417 215.079 C 133.252 215.127, 133.015 215.364, 133.813 215.683 M 113.269 216.693 C 114.242 216.947, 115.592 216.930, 116.269 216.656 C 116.946 216.382, 116.150 216.175, 114.500 216.195 C 112.850 216.215, 112.296 216.439, 113.269 216.693 M 178.345 227.542 C 178.014 228.407, 179.196 231.373, 181.037 234.292 C 182.843 237.157, 184.957 240.739, 185.735 242.254 C 187.569 245.822, 194.066 250.218, 201 252.582 C 206.903 254.595, 220.252 255.148, 221.949 253.451 C 223.805 251.595, 221.147 249.622, 215.824 248.901 C 212.896 248.505, 208.814 247.738, 206.753 247.196 C 201.359 245.779, 193.297 240.319, 192.621 237.625 C 191.653 233.770, 184.143 226, 181.384 226 C 180.038 226, 178.671 226.694, 178.345 227.542 M 136.249 230.524 C 136.806 233.436, 135.513 234.670, 133.583 233.069 C 131.611 231.432, 129.485 232.668, 126.490 237.195 C 124.678 239.932, 123.973 242.079, 124.309 243.836 C 124.864 246.741, 122.321 250.660, 118.720 252.448 C 116.041 253.778, 115.077 258, 117.452 258 C 118.327 258, 119.555 256.875, 120.182 255.500 C 120.860 254.012, 122.167 252.990, 123.411 252.976 C 124.762 252.961, 127.553 250.476, 131.316 245.941 C 139.650 235.893, 142.540 228, 137.883 228 C 136.160 228, 135.856 228.468, 136.249 230.524" stroke="none" fill="black" fill-rule="evenodd"/>
</svg>