<svg xmlns="http://www.w3.org/2000/svg" width="300" height="300" viewBox="0 0 300 300" version="1.1">
	<path d="M 232 39.959 C 222.214 41.324, 214.593 43.150, 210.564 45.097 C 208.397 46.143, 206.085 47, 205.426 47 C 204.768 47, 202.940 47.672, 201.364 48.494 C 199.789 49.315, 197.289 49.990, 195.809 49.994 C 194.329 49.997, 192.840 50.450, 192.500 51 C 192.160 51.550, 190.671 52.003, 189.191 52.006 C 184.698 52.015, 179.146 53.960, 176.432 56.476 C 173.943 58.783, 173.915 58.940, 175.553 61.441 C 178.198 65.477, 184.745 66.112, 188.190 62.667 C 188.921 61.936, 190.838 61.007, 192.449 60.602 C 194.060 60.198, 196.568 59.020, 198.023 57.984 C 199.661 56.817, 201.521 56.324, 202.910 56.687 C 206.079 57.515, 216.204 53.910, 216.772 51.750 C 217.295 49.764, 219.071 49.471, 220.701 51.101 C 221.502 51.902, 222.782 51.902, 225.401 51.101 C 238.736 47.023, 243.517 46.374, 245.515 48.372 C 246.364 49.221, 247.720 49.661, 248.529 49.351 C 250.493 48.597, 250.419 43.276, 248.417 41.274 C 246.557 39.414, 239.792 38.873, 232 39.959 M 109 56.130 C 107.075 57.297, 105.208 58.711, 104.851 59.271 C 104.494 59.832, 104.447 65.605, 104.746 72.100 C 105.187 81.662, 105.001 84.345, 103.770 86.204 C 102.246 88.505, 91.564 93.092, 79.752 96.518 C 76.590 97.435, 73.751 98.593, 73.443 99.092 C 73.134 99.592, 70.996 100.025, 68.691 100.055 C 65.258 100.101, 64.069 100.656, 62.116 103.125 C 59.836 106.008, 59.776 106.476, 60.738 113.820 C 61.291 118.044, 62.533 124.200, 63.498 127.500 C 64.463 130.800, 65.559 135.316, 65.935 137.537 C 66.311 139.757, 66.936 142.088, 67.326 142.718 C 67.715 143.347, 68.078 146.256, 68.133 149.181 C 68.191 152.246, 69.243 157.010, 70.617 160.422 C 73.118 166.638, 73.573 170.546, 72.072 172.918 C 71.490 173.837, 71.712 175.157, 72.702 176.668 C 73.898 178.494, 75.127 178.997, 78.365 178.984 C 81.749 178.972, 83.317 178.248, 87 175 C 96.217 166.871, 97.752 170.206, 96.123 194.812 C 95.479 204.540, 94.888 216.550, 94.809 221.500 C 94.665 230.529, 93.848 234, 91.865 234 C 91.279 234, 89.264 235.536, 87.387 237.413 C 85.510 239.290, 81.055 242.534, 77.487 244.621 C 73.919 246.708, 71 248.772, 71 249.208 C 71 249.643, 70.373 250, 69.607 250 C 66.394 250, 66.653 256.678, 69.945 258.734 C 71.433 259.663, 72.782 259.330, 77.138 256.956 C 80.087 255.349, 83.400 253.629, 84.500 253.134 C 86.796 252.102, 92 247.112, 92 245.943 C 92 245.512, 93.267 244.881, 94.815 244.541 C 97.487 243.954, 107.123 236.818, 107.833 234.900 C 108.017 234.405, 108.599 234, 109.127 234 C 110.225 234, 117.198 227.892, 120.964 223.630 C 122.359 222.052, 125.163 219.190, 127.195 217.271 C 129.227 215.352, 131.175 212.481, 131.524 210.891 C 131.873 209.301, 132.573 208, 133.079 208 C 133.586 208, 134 207.355, 134 206.567 C 134 204.961, 137.437 203.534, 138.991 204.494 C 139.546 204.837, 140.007 206.104, 140.015 207.309 C 140.046 211.820, 144.382 221.226, 147.898 224.407 C 149.054 225.454, 150 226.810, 150 227.421 C 150 228.922, 160.299 235, 162.841 235 C 165.661 235, 170 233.244, 170 232.102 C 170 231.581, 168.533 230.671, 166.741 230.079 C 164.948 229.488, 162.360 227.626, 160.991 225.943 C 159.621 224.260, 157.310 221.532, 155.856 219.880 C 153.308 216.987, 151.786 212.989, 150 204.500 C 147.347 191.892, 144.546 187, 139.979 187 C 137.961 187, 129 195.660, 129 197.610 C 129 198.240, 128.325 199.315, 127.500 200 C 126.675 200.685, 126 202.090, 126 203.122 C 126 204.155, 125.550 205, 125 205 C 124.450 205, 124 205.465, 124 206.034 C 124 207.148, 110.634 221, 109.560 221 C 109.204 221, 107.699 222.125, 106.217 223.500 C 104.734 224.875, 103.156 226, 102.711 226 C 101.728 226, 102.912 214.180, 104.132 211.816 C 104.609 210.889, 105 208.582, 105 206.688 C 105 204.794, 105.675 201.629, 106.500 199.654 C 107.457 197.365, 108.012 192.702, 108.033 186.782 C 108.062 178.470, 109.635 170.706, 112.141 166.500 C 112.469 165.950, 113.258 163.925, 113.894 162 C 114.963 158.765, 122.155 152.414, 129.398 148.309 C 130.554 147.654, 133.277 145.293, 135.448 143.064 C 138.695 139.730, 139.378 138.346, 139.291 135.276 C 139.233 133.223, 139.827 130.301, 140.613 128.782 C 141.636 126.804, 142.097 121.691, 142.241 110.741 C 142.468 93.415, 142.166 92.533, 134.281 87.532 C 130.841 85.350, 128.996 84.884, 124.281 85.010 C 121.102 85.095, 117.910 85.127, 117.189 85.082 C 116.165 85.018, 115.970 82.545, 116.295 73.750 C 116.524 67.563, 117.041 61.334, 117.442 59.908 C 117.959 58.076, 117.687 56.829, 116.515 55.658 C 114.356 53.499, 113.222 53.570, 109 56.130 M 223.200 60.200 C 221.335 62.065, 221.780 65.130, 224 65.710 C 225.100 65.998, 226.016 66.743, 226.035 67.367 C 226.089 69.080, 228.924 63.748, 228.965 61.857 C 229.021 59.254, 225.234 58.166, 223.200 60.200 M 217.200 67.278 C 216.634 67.971, 215.988 78.460, 215.708 91.500 C 215.424 104.759, 214.740 115.776, 214.093 117.513 C 212.785 121.022, 209.693 122.560, 202 123.530 C 198.975 123.912, 196.050 124.555, 195.500 124.959 C 194.276 125.860, 186.851 128.161, 177.500 130.537 C 173.650 131.516, 170.072 132.695, 169.550 133.158 C 168.093 134.450, 163.220 134.157, 162.746 132.750 C 162.127 130.912, 159.360 133.430, 158.579 136.541 C 157.940 139.089, 156.573 139.736, 155.500 138 C 155.160 137.450, 153.832 137, 152.549 137 C 150.916 137, 150.035 137.725, 149.609 139.421 C 148.776 142.741, 149.551 144.304, 153.060 146.376 C 156.085 148.163, 161.318 147.913, 162.548 145.923 C 162.861 145.415, 163.836 145, 164.713 145 C 165.589 145, 168.697 143.869, 171.617 142.488 C 175.384 140.706, 176.762 139.543, 176.357 138.488 C 175.550 136.385, 179.635 136.526, 180.819 138.641 C 181.481 139.823, 182.474 140.098, 184.369 139.622 C 187.233 138.903, 187.880 137.340, 185.526 136.823 C 182.476 136.154, 185.733 134.122, 192.504 132.469 C 196.352 131.530, 200.281 130.366, 201.236 129.881 C 202.191 129.396, 203.599 129, 204.364 129 C 205.129 129, 206.320 128.319, 207.010 127.488 C 207.948 126.357, 208.602 126.255, 209.600 127.083 C 210.686 127.984, 210.920 139.208, 210.858 187.514 C 210.816 220.142, 211.053 247.276, 211.383 247.811 C 211.714 248.346, 212.441 255.173, 212.999 262.982 C 214.073 278.015, 214.779 280.135, 219.528 282.599 C 223.090 284.447, 224.358 284.367, 226.346 282.170 C 227.887 280.467, 227.887 279.652, 226.348 270.420 C 225.116 263.033, 224.593 251.947, 224.298 227 C 224.081 208.575, 223.702 180.675, 223.457 165 L 223.010 136.500 225.495 131.250 C 227.663 126.672, 228.356 126, 230.919 126 C 232.904 126, 235.062 124.864, 237.569 122.500 C 241.754 118.553, 242.255 118.397, 244 120.500 C 245.550 122.367, 248.929 122.431, 251.527 120.642 C 252.612 119.895, 255.213 118.970, 257.306 118.586 C 264.516 117.264, 267.585 110.740, 262.549 107.440 C 260.450 106.065, 259.591 106.019, 256.549 107.118 C 254.597 107.824, 253 108.741, 253 109.156 C 253 109.570, 251.313 110.187, 249.250 110.527 C 247.188 110.866, 244.600 111.558, 243.500 112.065 C 235.170 115.901, 227.610 117.032, 226.671 114.584 C 226.372 113.805, 226.559 110.117, 227.087 106.388 C 227.792 101.410, 227.786 71.748, 227.080 69.215 C 227.036 69.058, 226.130 69.395, 225.066 69.965 C 222.577 71.297, 221 71.283, 221 69.929 C 221 69.339, 220.370 68.227, 219.599 67.456 C 218.506 66.363, 217.980 66.324, 217.200 67.278 M 120.750 92.623 C 119.237 93.415, 117.963 94.612, 117.917 95.282 C 117.871 95.952, 117.691 97.625, 117.518 99 C 117.344 100.375, 117.552 103.156, 117.979 105.180 C 118.406 107.205, 118.361 111.930, 117.878 115.680 C 117.395 119.431, 116.531 127.183, 115.957 132.907 C 114.632 146.117, 115.373 147.163, 121.516 140.752 C 123.982 138.179, 126 135.639, 126 135.108 C 126 134.577, 126.568 133.548, 127.262 132.821 C 129.935 130.021, 131.324 125.148, 132.055 116 C 132.472 110.775, 133.140 103.936, 133.539 100.802 C 134.262 95.113, 134.259 95.103, 131.382 94.486 C 129.797 94.146, 127.375 93.264, 126 92.525 C 123.888 91.391, 123.073 91.406, 120.750 92.623 M 101.222 97.017 C 98.488 101.395, 87 104.958, 87 101.429 C 87 100.032, 86.833 100.024, 85.500 101.357 C 84.675 102.182, 84 103.288, 84 103.814 C 84 105.300, 79.329 108, 76.757 108 C 75.485 108, 73.628 108.953, 72.631 110.118 C 70.581 112.513, 70.716 115.377, 73.503 128.500 C 74.437 132.900, 75.963 142.800, 76.895 150.500 C 78.199 161.286, 78.905 164.429, 79.969 164.192 C 80.728 164.022, 85.502 161.836, 90.577 159.333 C 101.035 154.176, 99.946 156.163, 102.553 137.500 C 104.597 122.876, 104.770 121.234, 105.569 109 C 106.193 99.428, 106.085 98.349, 104.342 96.790 C 102.533 95.172, 102.366 95.184, 101.222 97.017 M 74.446 104.087 C 73.299 105.943, 75.698 107.495, 77.458 106.035 C 78.306 105.331, 79 104.360, 79 103.878 C 79 102.619, 75.247 102.792, 74.446 104.087 M 246.750 118.662 C 247.438 118.940, 248.563 118.940, 249.250 118.662 C 249.938 118.385, 249.375 118.158, 248 118.158 C 246.625 118.158, 246.063 118.385, 246.750 118.662 M 125.558 144.907 C 125.249 145.405, 125.898 145.578, 126.999 145.290 C 129.334 144.679, 129.629 144, 127.559 144 C 126.766 144, 125.866 144.408, 125.558 144.907 M 143.700 206.341 C 143.417 207.078, 143.587 208.316, 144.077 209.091 C 144.727 210.116, 144.974 209.751, 144.985 207.750 C 145.001 204.764, 144.511 204.226, 143.700 206.341 M 215.787 242 C 216.029 243.650, 216.401 245, 216.613 245 C 216.826 245, 217 243.650, 217 242 C 217 240.350, 216.628 239, 216.173 239 C 215.718 239, 215.545 240.350, 215.787 242 M 91.531 241.293 C 91.103 242.279, 91.034 243.367, 91.376 243.710 C 92.392 244.725, 93.211 243.299, 92.743 241.328 C 92.329 239.581, 92.275 239.580, 91.531 241.293 M 219.250 270.149 C 217.730 271.670, 217.643 274.465, 219.035 277.066 C 221.391 281.468, 222.883 277.330, 221.150 271.199 C 220.630 269.358, 220.250 269.148, 219.250 270.149" stroke="none" fill="black" fill-rule="evenodd"/>
</svg>