<svg xmlns="http://www.w3.org/2000/svg" width="300" height="300" viewBox="0 0 300 300" version="1.1">
	<path d="M 203.500 40.498 C 199.650 41.237, 194.318 41.878, 191.651 41.921 C 188.984 41.964, 185.384 42.605, 183.651 43.345 C 181.918 44.085, 178.025 45.407, 175 46.285 C 171.975 47.162, 167.165 48.582, 164.312 49.440 C 161.459 50.298, 158.622 51, 158.009 51 C 157.395 51, 155.386 52.203, 153.544 53.672 C 149.318 57.044, 149.855 59.305, 154.667 58.403 C 157.292 57.910, 158.403 58.169, 159.374 59.497 C 160.558 61.115, 160.860 61.124, 163.773 59.617 C 165.493 58.728, 167.823 58, 168.950 58 C 170.333 58, 171 57.349, 171 56 C 171 54.588, 171.662 54.005, 173.250 54.015 C 175.116 54.028, 175.244 54.213, 174 55.098 C 172.873 55.900, 173.467 56.031, 176.388 55.623 C 178.526 55.325, 181.096 54.200, 182.099 53.124 C 183.230 51.910, 184.692 51.368, 185.949 51.697 C 187.064 51.989, 189.590 51.924, 191.562 51.554 C 194.539 50.996, 194.944 50.638, 193.951 49.441 C 192.975 48.264, 193.139 48, 194.846 48 C 196.294 48, 196.760 48.461, 196.362 49.500 C 195.926 50.635, 196.542 51, 198.893 51 C 200.602 51, 202 50.550, 202 50 C 202 49.450, 203.575 49, 205.500 49 C 209.036 49, 209.496 49.544, 208.393 52.418 C 207.957 53.555, 206.443 54, 203.011 54 C 198.736 54, 197.783 54.446, 193.921 58.250 C 191.548 60.587, 187.499 64.975, 184.924 68 C 177.612 76.589, 168.947 85.182, 163.745 89.005 C 159.544 92.093, 155.675 95.569, 140.750 109.663 C 137.013 113.191, 137 113.195, 137 110.685 C 137 109.300, 136.438 107.966, 135.750 107.721 C 133.558 106.938, 129.052 109.945, 128.375 112.642 C 128.015 114.075, 128.084 122.279, 128.526 130.874 C 128.969 139.468, 129.384 165.270, 129.449 188.211 C 129.565 229.626, 129.581 229.942, 131.783 232.920 C 133.002 234.570, 134 236.371, 134 236.924 C 134 238.631, 137.398 239.916, 139.217 238.899 C 140.377 238.249, 141.127 238.389, 141.691 239.360 C 142.796 241.262, 149.077 240.364, 148.327 238.411 C 147.999 237.556, 148.815 236.641, 150.463 236.014 C 153.889 234.712, 156.026 234.755, 153.750 236.080 C 152.787 236.641, 152 237.527, 152 238.050 C 152 239.529, 155.350 239.172, 159.096 237.294 C 160.968 236.355, 163.780 235.719, 165.344 235.879 C 167.823 236.133, 168.104 235.902, 167.527 234.085 C 167.048 232.577, 167.299 232, 168.433 232 C 169.295 232, 170 232.499, 170 233.109 C 170 233.837, 171.292 234.002, 173.750 233.589 C 175.813 233.243, 178.749 232.788, 180.276 232.578 C 183.978 232.068, 188 229.341, 188 227.341 C 188 226.008, 188.770 225.834, 192.432 226.336 C 196.100 226.838, 196.942 226.646, 197.316 225.222 C 197.660 223.912, 197.796 224.019, 197.884 225.667 C 198.018 228.174, 199.787 229.096, 202.145 227.886 C 203.049 227.422, 207.901 226.816, 212.927 226.539 C 217.953 226.262, 222.960 225.557, 224.053 224.972 C 225.147 224.386, 226.467 224.171, 226.988 224.493 C 227.509 224.814, 230.199 224.777, 232.967 224.410 C 236.980 223.878, 238 223.363, 238 221.871 C 238 219.433, 239.200 219.489, 240.768 222 C 242.309 224.468, 247.761 224.709, 249.461 222.385 C 250.681 220.716, 259.648 220.046, 261.925 221.454 C 264.259 222.896, 261.683 224.075, 257.552 223.456 C 253.924 222.911, 253.215 223.092, 252.839 224.658 C 251.871 228.689, 252.959 230, 257.276 230 C 260.532 230, 262.076 229.350, 264.578 226.925 C 267.581 224.014, 268.170 223.851, 275.565 223.890 C 283.612 223.932, 286 223.042, 286 220 C 286 217.440, 283.898 216.094, 278.919 215.469 C 273.419 214.778, 272.792 214.149, 273.922 210.458 C 274.420 208.831, 275.653 204.800, 276.663 201.500 C 277.672 198.200, 278.389 195.174, 278.257 194.775 C 278.125 194.377, 278.698 191.114, 279.530 187.525 C 280.363 183.935, 281.211 178.187, 281.414 174.749 C 281.618 171.312, 282.274 163.550, 282.871 157.500 C 283.920 146.882, 284.336 121.193, 283.575 114 C 283.036 108.904, 280.005 100.066, 277.318 95.758 C 272.226 87.591, 262.402 84.552, 245.716 85.982 C 240.442 86.433, 235.537 87.171, 234.814 87.620 C 234.091 88.069, 228.325 88.997, 222 89.681 C 209.074 91.080, 197.401 93.045, 188.500 95.321 C 185.200 96.164, 179.455 97.262, 175.733 97.759 C 165.703 99.099, 165.248 97.553, 173.722 90.927 C 181.395 84.928, 186.302 80.600, 189.387 77.110 C 197.425 68.017, 200.690 64.433, 202 63.263 C 210.974 55.251, 213.896 52.194, 214.202 50.500 C 214.573 48.440, 216.402 48.167, 220.738 49.526 C 223.387 50.356, 224.549 48.324, 223.596 44.527 C 222.385 39.700, 215.181 38.256, 203.500 40.498 M 192 68 C 192 68.550, 192.675 69, 193.500 69 C 194.325 69, 195 68.550, 195 68 C 195 67.450, 194.325 67, 193.500 67 C 192.675 67, 192 67.450, 192 68 M 66.228 72.230 C 63.723 73.438, 62.471 76.869, 63.333 80.166 C 63.827 82.054, 61.423 110.826, 60.542 113.575 C 60.184 114.690, 51.188 117.386, 42.500 118.982 C 39.750 119.487, 36.313 120.191, 34.863 120.545 C 32.643 121.088, 31.932 120.693, 30.374 118.057 C 28.107 114.218, 25.213 114.317, 23.033 118.306 C 21.612 120.907, 21.641 121.217, 23.418 122.540 C 25.078 123.774, 25.173 124.324, 24.126 126.624 C 23.077 128.926, 23.191 129.575, 24.986 131.485 C 26.125 132.697, 26.796 134.369, 26.477 135.199 C 26.158 136.030, 26.804 139.095, 27.912 142.010 C 29.020 144.925, 29.680 147.709, 29.379 148.196 C 29.078 148.683, 29.329 153.699, 29.937 159.344 C 30.893 168.225, 30.828 170.038, 29.451 172.797 C 26.772 178.168, 30.109 182.617, 34.896 180.055 C 35.981 179.475, 37.615 179, 38.527 179 C 39.438 179, 41.329 178.100, 42.727 177 C 44.126 175.900, 46.145 175, 47.214 175 C 49.014 175, 49.110 175.504, 48.497 181.750 C 47.472 192.201, 46.175 199.989, 44.459 206 C 43.595 209.025, 42.209 214.200, 41.379 217.500 C 39.105 226.535, 37.666 228.288, 33.147 227.525 C 30.037 226.999, 28.762 227.390, 25.229 229.949 C 22.912 231.627, 20.633 233, 20.164 233 C 17.177 233, 14.687 240.071, 17.140 241.586 C 19.082 242.787, 30.284 242.005, 33.397 240.452 C 35.023 239.641, 37.098 239.214, 38.008 239.502 C 38.918 239.791, 40.707 239.121, 41.984 238.014 C 43.261 236.906, 45.137 236, 46.153 236 C 47.169 236, 48 235.656, 48 235.236 C 48 234.816, 50.250 233.404, 53 232.098 C 55.750 230.793, 58 229.354, 58 228.901 C 58 228.448, 59.762 227.603, 61.915 227.023 C 66.440 225.804, 70.074 223.007, 78.659 214.135 C 84.571 208.025, 87 207.074, 87 210.871 C 87 214.032, 91.035 221.059, 93.494 222.179 C 94.894 222.817, 96.165 224.475, 96.531 226.140 C 97.398 230.090, 103.683 236.350, 109.392 238.951 C 115.008 241.509, 117.382 241.309, 117.820 238.240 C 118.076 236.443, 117.655 236, 115.692 236 C 114.346 236, 112.685 235.325, 112 234.500 C 111.315 233.675, 110.248 232.994, 109.628 232.987 C 107.900 232.967, 99.717 220.127, 97.846 214.500 C 96.932 211.750, 95.230 206.238, 94.063 202.250 C 92.111 195.575, 91.729 195, 89.256 195 C 87.273 195, 85.120 196.539, 81.035 200.880 C 71.650 210.849, 54.346 223, 49.533 223 C 47.567 223, 47.546 219.597, 49.500 217.643 C 50.325 216.818, 51 215.015, 51 213.637 C 51 212.258, 51.481 209.866, 52.069 208.320 C 52.656 206.774, 53.745 202.582, 54.488 199.005 C 57.871 182.710, 60.877 173.425, 63.785 170.287 C 65.044 168.929, 66.783 166.734, 67.652 165.409 C 68.520 164.084, 69.741 162.997, 70.365 162.994 C 70.989 162.990, 72.625 162.386, 74 161.650 C 80.455 158.197, 88.105 153.952, 89.955 152.796 C 92.338 151.308, 92.677 147.474, 90.500 146.638 C 88.257 145.778, 88.671 143.256, 91.923 137.971 C 96.860 129.948, 98.302 124.427, 96.942 118.757 C 95.320 111.997, 93.101 110.735, 84.365 111.603 C 80.589 111.979, 76.522 112.647, 75.327 113.089 C 70.636 114.822, 69.907 109.965, 71.859 90 C 73.555 72.652, 73.457 70.986, 70.750 71.068 C 69.513 71.105, 67.478 71.628, 66.228 72.230 M 236 93.463 C 233.272 94.484, 232.869 94.926, 234.172 95.464 C 236.002 96.219, 240 94.505, 240 92.965 C 240 92.434, 239.887 92.034, 239.750 92.076 C 239.613 92.118, 237.925 92.742, 236 93.463 M 246.812 94.085 C 245.330 94.915, 230.764 98.488, 225 99.435 C 223.075 99.752, 218.463 99.984, 214.750 99.953 C 210.654 99.917, 208 100.308, 208 100.947 C 208 101.526, 207.495 102, 206.878 102 C 206.049 102, 206.048 101.647, 206.874 100.652 C 207.725 99.627, 207.549 98.902, 206.140 97.627 C 204.540 96.179, 204.124 96.146, 203.095 97.386 C 202.282 98.365, 202.237 99.028, 202.951 99.470 C 205.225 100.875, 203.755 101.887, 198.484 102.545 C 195.166 102.960, 192.628 103.842, 192.115 104.759 C 191.035 106.688, 186 105.636, 186 103.481 C 186 102.666, 185.498 102, 184.883 102 C 184.259 102, 183.997 102.882, 184.290 104 C 184.612 105.233, 184.320 106, 183.529 106 C 182.823 106, 181.745 106.602, 181.135 107.338 C 180.278 108.370, 180.592 108.979, 182.512 110.007 C 184.885 111.276, 185.010 111.805, 185.217 121.419 C 185.337 126.964, 185.297 134.594, 185.129 138.377 L 184.823 145.253 188.161 144.576 C 189.998 144.204, 196.225 143.648, 202 143.341 C 207.775 143.034, 213.028 142.355, 213.674 141.832 C 214.477 141.182, 214.880 135.803, 214.948 124.831 C 215.002 116.003, 215.452 108.025, 215.946 107.101 C 216.441 106.177, 218.053 104.774, 219.530 103.984 C 222.025 102.649, 222.352 102.716, 224.148 104.935 C 225.831 107.013, 226.007 108.372, 225.500 115.411 C 224.255 132.705, 224.080 140.284, 224.890 141.860 C 225.655 143.351, 225.337 151.835, 223.493 179 C 223.028 185.865, 222.054 190.580, 219.983 196 C 218.407 200.125, 216.816 204.742, 216.448 206.259 C 215.555 209.938, 214.015 210.725, 212.253 208.403 C 210.677 206.324, 211.058 193.607, 212.838 188.927 C 213.349 187.583, 213.932 183.788, 214.133 180.492 L 214.500 174.500 210.500 174.820 C 208.300 174.995, 204.530 176.008, 202.123 177.070 C 197.419 179.144, 188.534 179.674, 187.465 177.943 C 185.053 174.041, 191.827 169, 199.482 169 C 201.902 169, 204.134 168.592, 204.442 168.094 C 204.750 167.595, 207.251 166.878, 210 166.500 C 212.749 166.122, 215.203 165.480, 215.455 165.073 C 215.706 164.667, 215.641 161.109, 215.311 157.167 L 214.710 150 209.805 150 C 207.108 150, 203.686 150.623, 202.200 151.384 C 200.715 152.145, 196.276 153.086, 192.335 153.477 C 183.722 154.329, 183.948 153.877, 183.354 171.500 C 183.132 178.100, 182.310 187.100, 181.528 191.500 C 180.746 195.900, 180.082 201.652, 180.053 204.281 C 180.014 207.762, 179.553 209.234, 178.355 209.694 C 173.603 211.518, 172.126 199.930, 174.410 178.745 C 175.634 167.394, 175.959 156.988, 175.683 138 C 175.479 123.975, 175.694 111.453, 176.160 110.174 C 176.997 107.878, 176.929 107.853, 170.754 108.174 C 165.299 108.458, 164.518 108.276, 164.639 106.750 C 164.841 104.204, 162.198 104.600, 161.820 107.172 C 161.348 110.373, 159 110.716, 159 107.583 C 159 104.475, 157.018 104.218, 154.500 107 C 153.505 108.100, 152.085 109, 151.345 109 C 150.605 109, 149.990 109.338, 149.978 109.750 C 149.966 110.162, 147.927 111.850, 145.447 113.500 C 141.650 116.026, 140.679 117.369, 139.298 122 C 137.487 128.073, 137.441 129.874, 138.390 158 C 139.189 181.710, 139.197 193.872, 138.415 195.137 C 138.092 195.660, 137.623 203.663, 137.372 212.921 C 137.016 226.092, 137.198 229.856, 138.209 230.224 C 140.117 230.918, 155.743 229.208, 157.865 228.072 C 158.869 227.535, 160.773 226.874, 162.095 226.604 C 171.557 224.670, 178.024 223.103, 178.977 222.514 C 181.067 221.223, 196.458 218.837, 211 217.550 C 218.975 216.845, 228.650 215.759, 232.500 215.138 C 236.350 214.516, 245.116 214.119, 251.980 214.254 L 264.459 214.500 265.709 211.906 C 267.405 208.388, 270.686 190.317, 271.414 180.493 C 271.740 176.089, 272.665 169.325, 273.471 165.461 C 274.575 160.167, 274.878 152.287, 274.702 133.468 C 274.474 109.163, 274.404 108.380, 272.043 104 C 268.841 98.061, 265.711 95.200, 261.747 94.589 C 255.130 93.571, 248.153 93.335, 246.812 94.085 M 225 95.393 C 225 96.342, 227.993 96.820, 228.527 95.956 C 228.852 95.430, 228.191 95, 227.059 95 C 225.927 95, 225 95.177, 225 95.393 M 210.750 96.662 C 211.438 96.940, 212.563 96.940, 213.250 96.662 C 213.938 96.385, 213.375 96.158, 212 96.158 C 210.625 96.158, 210.063 96.385, 210.750 96.662 M 192.813 101.683 C 193.534 101.972, 194.397 101.936, 194.729 101.604 C 195.061 101.272, 194.471 101.036, 193.417 101.079 C 192.252 101.127, 192.015 101.364, 192.813 101.683 M 81.262 121.529 C 79.937 122.457, 78.116 122.816, 76.626 122.442 C 74.938 122.019, 73.582 122.418, 72.277 123.723 C 70.345 125.655, 67.108 136.278, 66.250 143.500 C 65.989 145.700, 65.325 148.057, 64.776 148.737 C 63.381 150.464, 64.570 153, 66.776 153 C 68.961 153, 79.412 142.473, 80.426 139.250 C 80.816 138.012, 81.554 137, 82.067 137 C 82.580 137, 83 136.325, 83 135.500 C 83 134.675, 83.578 134, 84.284 134 C 87.940 134, 90.773 121.894, 87.418 120.607 C 84.974 119.669, 83.631 119.870, 81.262 121.529 M 46.011 123.487 C 45.332 124.305, 45.035 125.648, 45.351 126.472 C 46.023 128.224, 42.559 130.429, 40.422 129.608 C 39.640 129.308, 39 128.374, 39 127.531 C 39 125.876, 37.258 125.550, 35.246 126.827 C 33.782 127.756, 34.176 140.553, 35.762 143.618 C 37.789 147.533, 38.096 152.834, 36.516 156.617 C 34.670 161.034, 34.846 167.004, 36.844 167.771 C 37.626 168.070, 39.099 167.795, 40.119 167.158 C 41.139 166.521, 42.425 166, 42.977 166 C 45.355 166, 54.017 161.496, 54.388 160.067 C 54.611 159.205, 55.259 155.800, 55.828 152.500 C 56.397 149.200, 57.650 142.148, 58.613 136.829 L 60.363 127.159 57.931 124.597 C 55.094 121.607, 48.110 120.957, 46.011 123.487 M 86.369 136.480 C 85.525 138.680, 86.453 139.364, 87.906 137.613 C 88.724 136.628, 88.766 135.974, 88.041 135.526 C 87.461 135.167, 86.708 135.596, 86.369 136.480 M 179.079 143.583 C 179.127 144.748, 179.364 144.985, 179.683 144.188 C 179.972 143.466, 179.936 142.603, 179.604 142.271 C 179.272 141.939, 179.036 142.529, 179.079 143.583 M 277.079 158.583 C 277.127 159.748, 277.364 159.985, 277.683 159.188 C 277.972 158.466, 277.936 157.603, 277.604 157.271 C 277.272 156.939, 277.036 157.529, 277.079 158.583 M 132.009 173.489 C 131.229 174.429, 131.014 176.261, 131.425 178.454 C 132.497 184.168, 134 183.646, 134 177.559 C 134 174.502, 133.830 172, 133.622 172 C 133.415 172, 132.689 172.670, 132.009 173.489 M 217.500 223 C 217.133 223.594, 218.225 223.971, 220.191 223.930 C 222.948 223.871, 223.166 223.716, 221.500 223 C 218.787 221.834, 218.220 221.834, 217.500 223 M 190.762 229.707 C 192.006 229.946, 193.806 229.937, 194.762 229.687 C 195.718 229.437, 194.700 229.241, 192.500 229.252 C 190.300 229.263, 189.518 229.468, 190.762 229.707 M 32 237.059 C 32 237.641, 32.450 237.840, 33 237.500 C 33.550 237.160, 34 236.684, 34 236.441 C 34 236.198, 33.550 236, 33 236 C 32.450 236, 32 236.477, 32 237.059 M 144.813 238.683 C 145.534 238.972, 146.397 238.936, 146.729 238.604 C 147.061 238.272, 146.471 238.036, 145.417 238.079 C 144.252 238.127, 144.015 238.364, 144.813 238.683" stroke="none" fill="black" fill-rule="evenodd"/>
</svg>