<svg xmlns="http://www.w3.org/2000/svg" width="300" height="300" viewBox="0 0 300 300" version="1.1">
	<path d="M 131.917 42.414 C 131.688 42.642, 125.200 43.339, 117.500 43.962 C 97.753 45.561, 94.091 47.128, 98.561 52.068 C 100.203 53.882, 101.323 53.876, 114.912 51.978 C 118.438 51.485, 121.659 51.289, 122.068 51.542 C 122.477 51.795, 122.313 53.628, 121.703 55.616 C 120.759 58.691, 120.848 59.416, 122.297 60.475 C 123.662 61.473, 123.873 62.647, 123.360 66.388 C 123.009 68.954, 122.334 71.294, 121.860 71.586 C 120.661 72.327, 120.780 75, 122.013 75 C 123.223 75, 127.387 65.869, 128.321 61.166 C 128.686 59.332, 129.887 56.563, 130.992 55.011 C 132.096 53.460, 133 51.729, 133 51.163 C 133 49.063, 143.987 47.388, 147.042 49.022 C 148.804 49.966, 149.531 49.898, 150.753 48.676 C 152.112 47.317, 151.979 46.885, 149.490 44.578 C 147.036 42.304, 145.859 42, 139.521 42 C 135.568 42, 132.146 42.186, 131.917 42.414 M 94.871 54.250 C 94.800 54.388, 94.598 55.625, 94.422 57 C 94.245 58.375, 93.651 61.890, 93.101 64.811 C 92.551 67.733, 92.040 73.808, 91.965 78.311 C 91.890 82.815, 90.737 94.758, 89.403 104.851 C 86.923 123.619, 86.193 142.214, 87.733 147.410 L 88.596 150.319 96.548 150.130 C 100.921 150.026, 107.875 149.308, 112 148.536 C 116.125 147.763, 125.457 146.615, 132.738 145.984 C 140.570 145.305, 148.118 144.053, 151.223 142.918 C 154.110 141.863, 156.591 141, 156.736 141 C 156.881 141, 157 139.434, 157 137.519 C 157 133.369, 154.792 132.437, 147.273 133.417 C 144.648 133.759, 138.900 134.438, 134.500 134.926 C 130.100 135.414, 125.538 136.119, 124.363 136.494 C 121.235 137.490, 120.874 136.051, 122.080 127.383 C 123.102 120.030, 125.155 114.134, 126.776 113.892 C 137.904 112.234, 140.500 111.403, 140.500 109.500 C 140.500 107.662, 139.833 107.500, 132.249 107.500 C 127.711 107.500, 123.998 107.357, 123.999 107.183 C 124 107.008, 125.575 105.380, 127.500 103.565 C 130.872 100.384, 131.984 98, 130.095 98 C 128.585 98, 120.550 105.105, 119.782 107.118 C 119.190 108.671, 118.019 109, 113.079 109 C 105.999 109, 102 110.544, 102 113.277 C 102 115.272, 103.907 115.347, 108.250 113.522 C 109.479 113.005, 110 113.246, 110 114.330 C 110 115.340, 111.122 115.981, 113.250 116.187 C 116.299 116.481, 116.493 116.729, 116.390 120.203 C 116.324 122.423, 116.725 123.825, 117.390 123.703 C 118.501 123.500, 118.558 130.061, 117.486 134.726 C 116.875 137.381, 109.878 139.719, 100.468 140.411 C 97.151 140.655, 94.001 140.941, 93.468 141.046 C 89.884 141.753, 89.743 141.222, 90.335 129.250 C 90.654 122.787, 91.638 113.225, 92.520 108 C 93.403 102.775, 94.528 92.200, 95.020 84.500 C 95.513 76.800, 96.224 66.787, 96.601 62.250 C 97.092 56.329, 96.963 54, 96.143 54 C 95.514 54, 94.942 54.112, 94.871 54.250 M 90 56 C 90 56.550, 90.450 57, 91 57 C 91.550 57, 92 56.550, 92 56 C 92 55.450, 91.550 55, 91 55 C 90.450 55, 90 55.450, 90 56 M 187.416 60.970 C 186.270 61.433, 181.796 62.349, 177.475 63.004 C 167.872 64.459, 165 65.489, 165 67.475 C 165 68.314, 164.556 69, 164.013 69 C 163.471 69, 162.335 70.655, 161.490 72.677 C 159.332 77.844, 161.038 79.116, 164.919 75.235 C 167.219 72.935, 169.246 72.024, 173.230 71.498 C 176.129 71.116, 182.230 69.948, 186.789 68.902 C 191.348 67.856, 195.304 67, 195.580 67 C 195.857 67, 195.778 70.375, 195.404 74.500 C 194.810 81.057, 194.930 82, 196.362 82 C 198.273 82, 198.596 86.017, 196.935 89.121 C 196.349 90.216, 196.072 91.648, 196.319 92.305 C 196.586 93.017, 197.095 92.691, 197.578 91.500 C 198.023 90.400, 198.939 88.943, 199.611 88.261 C 202.831 85.001, 205.337 63.737, 202.800 61.200 C 201.436 59.836, 190.618 59.675, 187.416 60.970 M 89 64.059 C 89 65.191, 89.450 65.840, 90 65.500 C 90.550 65.160, 91 64.234, 91 63.441 C 91 62.648, 90.550 62, 90 62 C 89.450 62, 89 62.927, 89 64.059 M 173.750 67.662 C 174.438 67.940, 175.563 67.940, 176.250 67.662 C 176.938 67.385, 176.375 67.158, 175 67.158 C 173.625 67.158, 173.063 67.385, 173.750 67.662 M 130 77.083 C 120.302 78.475, 113.566 79.781, 111 80.767 C 109.625 81.295, 106.402 82.035, 103.839 82.412 C 98.915 83.134, 97.768 84.395, 98.720 88.036 C 99.269 90.135, 99.687 90.231, 105.901 89.689 C 109.531 89.373, 115.200 88.174, 118.500 87.024 C 121.800 85.875, 126.525 84.837, 129 84.718 L 133.500 84.500 133.500 90.700 C 133.501 98.350, 135.007 100.438, 138.212 97.232 C 142.467 92.977, 141.582 75.745, 137.129 76.147 C 136.233 76.228, 133.025 76.649, 130 77.083 M 166.357 78.512 C 165.534 80.656, 166.887 88.733, 168.321 90.238 C 168.982 90.932, 170.071 92.737, 170.740 94.250 C 171.548 96.076, 172.721 97.005, 174.229 97.015 C 175.792 97.026, 176.098 97.285, 175.211 97.848 C 173.786 98.752, 174.974 103.248, 176.964 104.477 C 178.290 105.297, 169.008 113.962, 164.884 115.753 C 161.795 117.095, 161.518 117.690, 162.938 119.934 C 163.694 121.129, 164.495 120.938, 167.737 118.793 C 169.878 117.376, 173.028 114.818, 174.738 113.109 C 176.447 111.399, 178.707 110, 179.759 110 C 180.811 110, 183.393 111.912, 185.497 114.250 C 187.787 116.794, 189.491 117.998, 189.744 117.250 C 190.448 115.167, 192.181 115.853, 191.515 117.951 C 191.032 119.474, 191.840 120.502, 195.198 122.633 C 197.564 124.134, 203.615 129.387, 208.644 134.306 C 213.846 139.394, 218.265 142.954, 218.894 142.566 C 220.333 141.676, 220.306 138.442, 218.836 135.684 C 217.136 132.492, 200.979 117, 199.351 117 C 197.183 117, 186 105.217, 186 102.933 C 186 101.817, 187.495 98.563, 189.322 95.702 C 192.844 90.187, 194.398 86, 192.922 86 C 192.432 86, 190.184 88.925, 187.926 92.500 C 185.668 96.075, 183.299 98.976, 182.660 98.946 C 181.203 98.878, 173.895 88.700, 170.516 82.031 C 167.772 76.617, 167.253 76.177, 166.357 78.512 M 104.583 85.866 C 104.152 86.563, 104.070 87.403, 104.400 87.733 C 105.295 88.628, 106.271 87.312, 105.787 85.862 C 105.449 84.846, 105.213 84.846, 104.583 85.866 M 131.651 141.468 C 131.341 142.275, 131.427 143.146, 131.841 143.402 C 132.831 144.014, 134.435 142.827, 134.750 141.250 C 135.102 139.491, 132.335 139.685, 131.651 141.468 M 112 144 C 112 144.550, 112.450 145, 113 145 C 113.550 145, 114 144.550, 114 144 C 114 143.450, 113.550 143, 113 143 C 112.450 143, 112 143.450, 112 144 M 151.695 155.785 C 149.415 158.304, 149.561 162.461, 152.114 167.736 C 153.277 170.139, 153.968 172.366, 153.648 172.685 C 153.328 173.005, 146.639 174.319, 138.783 175.606 C 121.174 178.491, 118 179.787, 118 184.093 C 118 187.667, 115.809 187.674, 136.500 184.031 C 149.350 181.769, 157.567 181.659, 157.400 183.750 C 157.345 184.438, 157.233 189.941, 157.150 195.981 L 157 206.962 154.250 207.569 C 151.048 208.276, 140.740 211.380, 126.250 216.001 C 118.001 218.631, 116 219.639, 116 221.166 C 116 223.757, 118.980 224.747, 120.505 222.662 C 121.921 220.726, 123.665 220.496, 124.224 222.171 C 124.652 223.455, 127.976 222.887, 142.487 219.055 C 147.025 217.856, 151.666 217.207, 153.237 217.552 C 155.598 218.071, 156.025 218.693, 156.171 221.829 C 156.398 226.696, 156.602 228.207, 157.277 230 C 158.252 232.591, 159.052 253.441, 158.225 254.706 C 157.388 255.986, 149.106 258.392, 140 260 C 136.975 260.535, 131.127 261.652, 127.005 262.483 C 122.883 263.313, 116.379 264.221, 112.552 264.500 C 108.724 264.779, 105.180 265.420, 104.677 265.923 C 104.122 266.478, 104.299 268.055, 105.125 269.919 C 106.216 272.385, 107.089 272.996, 109.494 272.978 C 114.365 272.943, 131.589 270.240, 144.500 267.483 C 151.100 266.075, 159.875 264.494, 164 263.972 C 168.125 263.450, 174.059 262.512, 177.187 261.888 C 180.633 261.201, 185.819 261.029, 190.343 261.453 C 200.166 262.374, 203.126 264.826, 205.495 274.009 C 206.415 277.579, 207.806 281.210, 208.584 282.079 C 209.363 282.947, 210 284.354, 210 285.206 C 210 287.191, 212.595 289.369, 213.956 288.527 C 215.588 287.519, 215.226 285.707, 212.023 278.862 C 208.408 271.134, 204.802 249.316, 205.701 240.605 C 206.421 233.632, 204.861 230.911, 201.754 233.722 C 196.694 238.302, 195.732 244.335, 199.371 248.673 C 202.040 251.857, 203.816 258, 202.066 258 C 201.465 258, 200.191 257.605, 199.236 257.123 C 197.138 256.063, 191.630 254.393, 187.401 253.536 C 185.697 253.190, 181.422 253.419, 177.901 254.045 C 174.381 254.671, 169.700 255.254, 167.500 255.341 L 163.500 255.500 162.761 244.500 C 162.354 238.450, 161.567 231.613, 161.011 229.307 C 159.730 223.994, 159.713 217.405, 160.974 215.048 C 161.601 213.878, 164.490 212.605, 169.068 211.483 C 176.963 209.549, 182.565 209.256, 188.339 210.478 C 191.995 211.252, 192.161 211.177, 191.839 208.905 C 191.635 207.468, 190.373 205.980, 188.665 205.164 C 186.369 204.067, 185.945 203.353, 186.435 201.405 C 187.141 198.590, 186.364 198.361, 183.845 200.640 C 182.824 201.564, 179.735 202.456, 176.767 202.685 C 173.870 202.908, 169.138 203.702, 166.250 204.450 C 163.363 205.198, 160.783 205.458, 160.517 205.027 C 159.604 203.551, 161.307 181.962, 162.460 180.385 C 163.411 179.085, 165.775 178.830, 175.945 178.931 C 182.727 178.998, 188.664 179.293, 189.138 179.585 C 189.612 179.878, 190 182.285, 190 184.934 C 190 195.130, 192.071 198.622, 195.228 193.750 C 198.647 188.476, 197.929 175.064, 194.123 173.095 C 190.317 171.127, 171.139 170.114, 163.840 171.496 L 160.181 172.189 159.123 166.844 C 158.541 163.905, 157.938 159.925, 157.782 158 C 157.449 153.863, 154.428 152.764, 151.695 155.785 M 175.676 175.402 C 175.380 176.173, 175.391 177.058, 175.700 177.367 C 176.595 178.262, 180.119 176.002, 179.469 174.950 C 178.591 173.530, 176.289 173.804, 175.676 175.402 M 150.442 177.094 C 150.070 177.696, 148.707 177.986, 147.413 177.739 C 146.119 177.491, 145.298 177.674, 145.589 178.144 C 145.880 178.615, 147.891 179, 150.059 179 C 152.895 179, 154 178.580, 154 177.500 C 154 175.767, 151.442 175.475, 150.442 177.094 M 106.238 180.162 C 104.430 181.970, 104.718 183.689, 107.108 185.363 C 108.300 186.198, 108.906 187.343, 108.502 187.997 C 108.109 188.633, 108.480 191.032, 109.327 193.327 C 110.175 195.622, 111.833 200.875, 113.014 205 C 115.091 212.260, 116.929 215, 119.723 215 C 122.079 215, 122.336 211.986, 120.176 209.687 C 117.989 207.359, 116.095 201.127, 114.043 189.500 C 113.363 185.650, 112.467 181.825, 112.051 181 C 111.070 179.051, 107.818 178.582, 106.238 180.162 M 135 180 C 135 180.550, 135.477 181, 136.059 181 C 136.641 181, 136.840 180.550, 136.500 180 C 136.160 179.450, 135.684 179, 135.441 179 C 135.198 179, 135 179.450, 135 180 M 121.459 182.067 C 120.539 183.556, 121.606 184.365, 123.520 183.631 C 124.404 183.292, 124.847 182.561, 124.504 182.007 C 123.694 180.696, 122.289 180.723, 121.459 182.067 M 159.802 259.738 C 158.313 261.533, 161.306 262.442, 163.986 261.008 C 165.599 260.144, 166.472 260.147, 167.520 261.017 C 169.056 262.292, 171 261.551, 171 259.691 C 171 258.071, 161.151 258.113, 159.802 259.738 M 147.559 262.532 C 145.690 263.945, 145.713 264, 148.186 264 C 149.599 264, 151.315 263.325, 152 262.500 C 153.032 261.257, 152.924 261.005, 151.372 261.032 C 150.343 261.049, 148.626 261.724, 147.559 262.532 M 139.427 263.973 C 138.598 264.802, 134.192 265.471, 126.750 265.899 C 125.787 265.955, 125 266.361, 125 266.802 C 125 268.034, 137.056 266.460, 141 264.713 C 143.590 263.566, 143.967 263.142, 142.450 263.082 C 141.322 263.037, 139.962 263.438, 139.427 263.973 M 98.500 268 C 98.101 268.646, 98.224 269.624, 98.774 270.174 C 99.441 270.841, 100.016 270.783, 100.500 270 C 100.899 269.354, 100.776 268.376, 100.226 267.826 C 99.559 267.159, 98.984 267.217, 98.500 268 M 113.269 268.693 C 114.242 268.947, 115.592 268.930, 116.269 268.656 C 116.946 268.382, 116.150 268.175, 114.500 268.195 C 112.850 268.215, 112.296 268.439, 113.269 268.693" stroke="none" fill="black" fill-rule="evenodd"/>
</svg>