<svg xmlns="http://www.w3.org/2000/svg" width="300" height="300" viewBox="0 0 300 300" version="1.1">
	<path d="M 201.051 16.208 C 198.093 18.220, 197.456 19.476, 195.830 26.500 C 193.441 36.824, 192.197 39.803, 189.985 40.505 C 187.480 41.300, 186.560 44.205, 188.390 45.543 C 189.642 46.459, 189.691 47.203, 188.686 50.069 C 188.025 51.956, 187.058 54.168, 186.538 54.984 C 184.442 58.274, 181 65.165, 181 66.073 C 181 66.605, 179.875 68.822, 178.500 71 C 177.125 73.178, 176 75.644, 176 76.480 C 176 77.316, 175.355 78, 174.567 78 C 173.779 78, 172.825 79.013, 172.445 80.250 C 172.066 81.487, 170.236 84.376, 168.378 86.668 C 166.520 88.961, 165 91.109, 165 91.442 C 165 92.407, 158.247 102.254, 155.703 105 C 154.428 106.375, 152.773 108.737, 152.024 110.250 C 151.275 111.763, 150.348 113, 149.964 113 C 148.785 113, 144.095 120.699, 142.520 125.221 C 140.615 130.690, 140.608 133.636, 142.500 134.362 C 144.482 135.122, 147 134.103, 147 132.541 C 147 131.857, 148.350 129.884, 150 128.157 C 151.650 126.431, 153 124.639, 153 124.176 C 153 123.712, 154.366 122.021, 156.036 120.417 C 157.706 118.812, 160.356 115.700, 161.924 113.500 C 163.493 111.300, 165.839 108.314, 167.138 106.863 C 168.437 105.413, 170.963 102.586, 172.750 100.580 C 174.537 98.574, 176 96.476, 176 95.918 C 176 95.360, 177.668 92.338, 179.706 89.202 C 186.079 79.397, 193 66.259, 193 63.965 C 193 63.473, 193.900 62.589, 195 62 C 196.287 61.311, 197 61.286, 197 61.930 C 197 63.496, 206.058 71.782, 209.187 73.077 C 210.734 73.718, 212 74.638, 212 75.121 C 212 75.605, 212.675 76, 213.500 76 C 214.325 76, 215 76.450, 215 77 C 215 77.550, 215.689 78, 216.531 78 C 217.374 78, 218.305 78.631, 218.601 79.401 C 218.896 80.172, 219.895 81.079, 220.819 81.417 C 225.682 83.195, 235.730 90.707, 242.552 97.665 C 245.968 101.149, 249.267 104, 249.882 104 C 250.497 104, 251 104.482, 251 105.071 C 251 106.665, 253.633 109, 255.429 109 C 257.658 109, 257.433 104.701, 255.091 102.583 C 254.042 101.633, 252.613 99.480, 251.916 97.798 C 251.220 96.117, 249.716 93.717, 248.575 92.466 C 247.434 91.214, 246.002 89.585, 245.393 88.845 C 242.523 85.356, 235.001 79.751, 229.500 77 C 227.850 76.175, 225.825 74.727, 225 73.783 C 224.175 72.838, 221.006 70.584, 217.958 68.773 C 214.910 66.962, 210.142 62.969, 207.361 59.899 C 201.075 52.957, 200.132 48.846, 203.018 40.951 C 204.108 37.968, 205 34.716, 205 33.724 C 205 32.732, 205.924 30.110, 207.052 27.898 C 209.812 22.488, 209.473 14.639, 206.460 14.208 C 205.338 14.047, 202.904 14.947, 201.051 16.208 M 103.238 45.162 C 101.586 46.814, 101.661 47.303, 103.974 49.970 L 105.948 52.246 102.974 55.024 C 100.640 57.205, 100 58.658, 100 61.779 C 100 63.966, 99.438 66.219, 98.750 66.786 C 96.746 68.437, 85.827 72, 82.769 72 C 79.331 72, 72 74.208, 72 75.243 C 72 75.660, 68.005 76, 63.122 76 C 56.324 76, 53.944 76.363, 52.958 77.550 C 52.251 78.403, 50.683 78.971, 49.475 78.812 C 46.805 78.462, 44 80.608, 44 83 C 44 85.299, 46.569 87.379, 48.496 86.640 C 49.396 86.295, 50.521 86.862, 51.250 88.028 C 51.927 89.113, 53.160 89.990, 53.991 89.978 C 56.455 89.941, 59.823 86.685, 60.174 84 C 60.459 81.811, 61.121 81.423, 65.500 80.884 C 68.250 80.545, 70.927 80.657, 71.450 81.134 C 73.064 82.606, 75.460 82.095, 76.768 80 C 77.673 78.551, 79.100 78, 81.949 78 C 84.112 78, 86.160 77.550, 86.500 77 C 86.840 76.450, 88.179 76, 89.476 76 C 90.772 76, 92.032 75.438, 92.276 74.750 C 92.519 74.063, 93.184 75.147, 93.754 77.161 C 95.072 81.820, 93.713 88.428, 88.159 104.372 C 85.652 111.570, 84.249 117.144, 84.596 118.528 C 85.236 121.076, 84.561 121.416, 76.762 122.475 C 74.156 122.829, 71.376 123.767, 70.583 124.559 C 69.791 125.352, 68.181 126, 67.006 126 C 65.830 126, 64.045 126.441, 63.039 126.979 C 60.504 128.336, 58.751 125.991, 59.165 121.800 C 59.486 118.562, 59.419 118.502, 55.633 118.624 C 53.510 118.692, 51.352 119.367, 50.836 120.124 C 49.677 121.826, 50.485 131.675, 51.927 133.413 C 53.145 134.879, 54.635 143.478, 55.967 156.717 C 56.477 161.787, 57.368 166.820, 57.947 167.902 C 58.526 168.983, 59 171.011, 59 172.408 C 59 173.804, 59.990 176.984, 61.199 179.473 C 62.970 183.118, 63.905 184, 65.999 184 C 67.430 184, 69.168 183.438, 69.862 182.750 C 70.873 181.749, 71.321 181.848, 72.112 183.250 C 73.438 185.599, 74.268 185.490, 81.656 182 C 85.148 180.350, 88.454 179, 89.003 179 C 89.551 179, 89.887 178.494, 89.750 177.875 C 89.612 177.256, 90.034 176.553, 90.686 176.313 C 92.906 175.495, 94.850 180.478, 96.418 191 C 97.278 196.775, 98.386 203.750, 98.880 206.500 C 99.954 212.481, 99.161 214.316, 94.788 215.968 C 92.980 216.652, 89.376 218.070, 86.780 219.120 C 84.183 220.171, 80.026 221.309, 77.540 221.650 C 75.055 221.990, 72.512 222.883, 71.888 223.634 C 71.254 224.398, 68.874 225, 66.485 225 C 63.611 225, 62.026 225.491, 61.638 226.500 C 60.849 228.557, 61.918 231, 63.607 231 C 64.373 231, 65 231.675, 65 232.500 C 65 233.325, 64.550 234, 64 234 C 63.450 234, 63 234.675, 63 235.500 C 63 237.524, 63.942 237.399, 69.101 234.691 C 71.520 233.421, 76.200 231.357, 79.500 230.105 C 82.800 228.854, 86.625 227.254, 88 226.551 C 91.830 224.592, 95.359 223.986, 97.008 225.005 C 98.229 225.759, 98.531 229.155, 98.669 243.713 C 98.866 264.313, 100.182 279.309, 101.984 281.481 C 103.596 283.423, 105.897 283.432, 106.639 281.498 C 106.956 280.672, 107.332 274.034, 107.474 266.748 C 107.616 259.462, 108.075 245.710, 108.495 236.188 C 109.350 216.810, 109.284 216.965, 117.351 215.548 C 119.469 215.176, 122.662 214.175, 124.447 213.324 C 127.133 212.043, 129.141 211.942, 136.096 212.738 C 147.365 214.028, 149.290 213.211, 144.811 209.039 C 143.608 207.918, 141.458 207, 140.034 207 C 138.610 207, 136.431 206.290, 135.192 205.422 C 133.135 203.981, 132.266 203.991, 125.219 205.532 C 120.974 206.461, 115.852 207.897, 113.837 208.723 C 111.822 209.549, 109.723 209.947, 109.172 209.606 C 108.575 209.237, 108.237 203.945, 108.335 196.504 L 108.500 184.021 105.638 183.023 C 103.141 182.153, 102.864 181.674, 103.462 179.263 C 103.839 177.743, 104.565 176.350, 105.074 176.167 C 105.583 175.983, 106 175.226, 106 174.484 C 106 173.647, 107.084 173.165, 108.850 173.215 C 110.418 173.259, 113.187 172.554, 115.004 171.648 C 116.821 170.742, 118.959 170, 119.756 170 C 120.553 170, 123.409 168.762, 126.102 167.250 C 130.503 164.778, 130.999 164.146, 131.005 161 C 131.009 159.075, 131.685 156.211, 132.506 154.636 C 133.328 153.060, 134 150.939, 134 149.921 C 134 148.903, 134.676 146.077, 135.503 143.642 C 136.814 139.780, 138.001 132.208, 139.599 117.500 C 139.882 114.893, 139.512 112.833, 138.535 111.584 C 137.218 109.899, 136.582 109.803, 133.268 110.789 C 131.196 111.405, 125.556 112.105, 120.735 112.345 C 115.914 112.585, 111.414 113.239, 110.735 113.800 C 110.056 114.361, 106.350 115.509, 102.500 116.351 C 98.650 117.193, 94.487 118.186, 93.250 118.558 C 90.194 119.475, 90.306 117.334, 93.488 114.013 C 94.947 112.490, 96.848 108.332, 98.085 103.958 C 99.245 99.856, 100.765 95.375, 101.462 94 C 102.160 92.625, 103.021 89.594, 103.375 87.264 C 104.191 81.897, 106.971 76, 108.685 76 C 109.408 76, 110 75.598, 110 75.107 C 110 73.782, 112.661 72.932, 120.909 71.621 C 129.032 70.330, 131.469 68.475, 128.981 65.477 C 127.547 63.749, 126.370 63.759, 113.250 65.610 L 109 66.210 109 62.548 C 109 60.534, 109.493 56.926, 110.097 54.531 C 110.955 51.123, 110.898 49.558, 109.837 47.338 C 108.359 44.244, 105.198 43.202, 103.238 45.162 M 56 83 C 56 83.550, 56.477 84, 57.059 84 C 57.641 84, 57.840 83.550, 57.500 83 C 57.160 82.450, 56.684 82, 56.441 82 C 56.198 82, 56 82.450, 56 83 M 63.473 84.956 C 63.798 85.482, 64.725 85.659, 65.532 85.349 C 67.599 84.556, 67.356 84, 64.941 84 C 63.809 84, 63.148 84.430, 63.473 84.956 M 191.434 89.877 C 184.754 93.951, 183.604 104.283, 187.417 125.983 C 188.991 134.939, 188.988 135.536, 187.351 136.733 C 186.398 137.430, 185.023 138, 184.295 138 C 183.568 138, 182.191 138.400, 181.236 138.889 C 180.281 139.378, 177.813 140.605, 175.750 141.617 C 173.688 142.628, 172 143.757, 172 144.127 C 172 144.497, 170.425 146.375, 168.500 148.300 C 164.369 152.431, 163.989 155.582, 167.434 157.152 C 169.487 158.087, 170.341 157.888, 172.879 155.881 C 174.535 154.571, 175.914 153.130, 175.945 152.679 C 176.033 151.369, 178.959 148.773, 182.266 147.070 C 183.943 146.207, 185.204 145.090, 185.068 144.590 C 184.669 143.122, 188.049 141.649, 189.193 142.793 C 190.184 143.784, 189.800 160.355, 188.643 166.500 C 188.332 168.150, 187.659 173.627, 187.147 178.671 C 186.635 183.715, 185.945 188.280, 185.613 188.817 C 185.051 189.726, 177.511 194, 176.469 194 C 176.211 194, 176 192.631, 176 190.958 C 176 189.285, 175.100 186.950, 174 185.770 C 172.900 184.589, 172 182.390, 172 180.883 C 172 179.376, 171.401 177.544, 170.669 176.812 C 169.936 176.079, 169.009 174.135, 168.608 172.490 C 168.206 170.846, 167.197 167.925, 166.365 166 C 165.533 164.075, 163.871 160.025, 162.673 157 C 160.650 151.892, 160.239 151.479, 156.912 151.199 C 152.200 150.804, 149.969 153.130, 151.988 156.331 C 153.471 158.684, 154.428 160.601, 158.310 169 C 164.463 182.310, 168.330 192.867, 168.751 197.500 C 169.001 200.250, 169.664 203.063, 170.225 203.750 C 171.662 205.512, 178.605 205.305, 181.491 203.414 C 184.776 201.261, 186.014 202.335, 185.987 207.312 C 185.974 209.615, 186.475 219.242, 187.101 228.705 C 188.439 248.934, 188.156 251, 184.040 251 C 182.433 251, 180.856 251.424, 180.536 251.942 C 180.215 252.460, 177.826 253.164, 175.227 253.506 C 172.627 253.848, 168.923 254.792, 166.996 255.605 C 165.069 256.417, 162.144 257.237, 160.496 257.427 C 158.848 257.617, 157.162 257.823, 156.750 257.886 C 156.338 257.949, 156 259.319, 156 260.932 C 156 263.028, 156.830 264.455, 158.911 265.937 C 161.732 267.946, 161.924 267.955, 165.160 266.255 C 166.996 265.290, 168.724 264.230, 168.999 263.899 C 169.275 263.568, 170.625 263.052, 172 262.750 C 177.399 261.568, 191.095 256.277, 200.236 251.842 C 201.191 251.379, 202.654 251, 203.486 251 C 204.319 251, 205 250.626, 205 250.168 C 205 249.711, 207.363 247.816, 210.250 245.958 C 213.137 244.099, 216.065 242.028, 216.756 241.355 C 217.447 240.682, 218.797 239.879, 219.756 239.572 C 221.676 238.956, 225 231.772, 225 228.239 C 225 224.853, 222.826 225.582, 219.685 230.021 C 218.137 232.210, 216.292 234, 215.585 234 C 214.878 234, 212.545 235.254, 210.400 236.787 C 203.639 241.620, 198.762 244.123, 197.244 243.540 C 195.994 243.060, 195.863 239.977, 196.359 222.738 C 196.679 211.607, 196.954 201.320, 196.970 199.877 C 196.996 197.622, 198.018 196.758, 204.260 193.714 C 208.253 191.767, 212.703 189.078, 214.148 187.739 C 215.593 186.399, 219.188 184.517, 222.138 183.557 C 225.087 182.596, 228.063 181.347, 228.750 180.782 C 230.239 179.558, 230.425 176, 229 176 C 227.072 176, 228.038 174.225, 232.330 169.882 C 239.333 162.796, 243.021 153.430, 242.968 142.866 C 242.933 135.895, 241.816 133.641, 237.603 132.039 C 233.473 130.469, 214.323 130.772, 208.634 132.498 C 205.957 133.310, 203.397 133.745, 202.944 133.465 C 202.491 133.185, 202.379 129.866, 202.696 126.089 C 203.225 119.780, 203.105 119.168, 201.221 118.570 C 199.357 117.979, 199.123 116.897, 198.656 106.710 C 198.041 93.328, 197.182 87.999, 195.641 88.004 C 195.013 88.006, 193.120 88.849, 191.434 89.877 M 159 105.583 C 159 107.349, 161.153 107.042, 161.771 105.188 C 161.989 104.534, 161.454 104, 160.583 104 C 159.713 104, 159 104.713, 159 105.583 M 122.832 119.337 C 120.814 119.977, 118.833 120.832, 118.428 121.237 C 118.023 121.643, 116.070 121.715, 114.088 121.398 C 111.130 120.925, 109.984 121.286, 107.691 123.411 C 105.475 125.464, 103.883 126, 99.996 126 C 97.300 126, 93.916 126.537, 92.475 127.193 C 90.341 128.166, 89.692 128.120, 88.968 126.948 C 88.223 125.743, 87.854 125.818, 86.689 127.411 C 85.924 128.457, 84.444 129.405, 83.399 129.517 C 82.355 129.630, 80.699 130.063, 79.720 130.480 C 78.741 130.896, 76.491 131.359, 74.720 131.509 C 72.949 131.658, 71.010 131.830, 70.411 131.890 C 69.811 131.951, 68.808 133.125, 68.182 134.500 C 67.555 135.875, 66.220 137, 65.215 137 C 63.614 137, 63.395 137.866, 63.444 144 L 63.500 150.999 66.667 151 C 68.408 151, 69.983 150.602, 70.167 150.115 C 70.350 149.628, 76.690 147.125, 84.256 144.552 C 91.821 141.980, 99.246 139.231, 100.756 138.444 C 102.265 137.657, 104.873 137.010, 106.550 137.006 C 108.228 137.003, 110.062 136.538, 110.627 135.973 C 111.191 135.409, 114.094 134.697, 117.077 134.391 C 124.284 133.653, 128 132.159, 128 130.001 C 128 129.035, 128.698 127.666, 129.551 126.958 C 130.554 126.126, 130.995 124.405, 130.801 122.086 C 130.456 117.979, 128.855 117.427, 122.832 119.337 M 208.904 140.284 C 201.800 141.545, 200.912 142.960, 200.353 153.903 C 199.876 163.258, 198.470 176.674, 197.450 181.606 C 197.004 183.763, 197.219 184.870, 198.154 185.229 C 199.782 185.854, 207.528 182.363, 211.469 179.228 C 213.040 177.979, 215.377 176.693, 216.662 176.370 C 217.948 176.047, 219 175.352, 219 174.825 C 219 174.298, 220.094 172.432, 221.431 170.679 C 222.769 168.926, 224.351 166.368, 224.948 164.996 C 227.082 160.088, 231.061 153.474, 232.766 152 C 234.605 150.409, 235.219 142.612, 233.691 140.250 C 232.718 138.747, 217.445 138.768, 208.904 140.284 M 116 142.466 C 111.233 144.912, 103.635 146.895, 102.169 146.075 C 99.862 144.784, 97.031 146.028, 96.381 148.619 C 96.027 150.029, 95.046 151, 93.974 151 C 92.980 151, 90.063 151.901, 87.493 153.003 C 84.922 154.105, 82.456 154.782, 82.011 154.507 C 81.567 154.232, 79.760 155.356, 77.996 157.004 C 74.853 159.940, 70.699 160.940, 69.527 159.044 C 69.202 158.518, 68.236 158.356, 67.381 158.684 C 66.140 159.160, 65.946 160.313, 66.421 164.390 C 66.749 167.201, 67.161 171.185, 67.337 173.245 C 67.733 177.889, 68.548 178.764, 71.032 177.212 C 72.099 176.545, 74.104 176, 75.486 176 C 76.869 176, 78 175.550, 78 175 C 78 174.450, 78.845 174, 79.878 174 C 83.230 174, 93.814 169.508, 97.630 166.465 C 101.879 163.077, 101.585 163.134, 105.317 164.985 C 107.777 166.205, 108.538 166.176, 111.317 164.760 C 113.068 163.867, 115.447 162.872, 116.604 162.548 C 118.658 161.972, 120.634 158.814, 123.048 152.250 C 123.705 150.463, 124.638 149, 125.121 149 C 125.605 149, 126 147.200, 126 145 C 126 141.028, 125.974 141.001, 122.250 141.091 C 120.188 141.142, 117.375 141.760, 116 142.466 M 190.598 180.736 C 190.269 181.064, 190.015 184.521, 190.033 188.417 L 190.065 195.500 192 190 C 193.064 186.975, 193.949 183.761, 193.967 182.857 C 194.001 181.159, 191.653 179.680, 190.598 180.736 M 233.655 200.829 C 231.604 203.095, 231.561 205.706, 233.500 210.346 C 234.325 212.320, 235 215.455, 235 217.311 C 235 220.502, 237.609 229.407, 239.768 233.588 C 242.234 238.362, 244 243.255, 244 245.312 C 244 246.546, 244.900 248.326, 246 249.268 C 247.100 250.210, 248 250.535, 248 249.990 C 248 249.446, 248.675 249, 249.500 249 C 250.690 249, 251 247.556, 251 242 C 251 238.150, 250.605 235, 250.121 235 C 249.638 235, 248.730 233.762, 248.104 232.250 C 247.048 229.698, 246.051 226.047, 241.344 207.500 C 239.107 198.685, 237.140 196.978, 233.655 200.829" stroke="none" fill="black" fill-rule="evenodd"/>
</svg>