<svg xmlns="http://www.w3.org/2000/svg" width="300" height="300" viewBox="0 0 300 300" version="1.1">
	<path d="M 222.500 40.445 C 221.950 40.626, 218.800 41.350, 215.500 42.053 C 212.200 42.755, 208.690 43.734, 207.701 44.227 C 206.711 44.720, 204.011 45.320, 201.701 45.560 C 196.813 46.068, 190.341 47.748, 187.545 49.234 C 186.470 49.805, 183.095 50.834, 180.045 51.519 C 170.303 53.710, 162.614 56.031, 158.434 58.043 C 152.706 60.800, 151 60.607, 151 57.200 C 151 53.799, 149.374 52, 146.300 52 C 143.365 52, 143.126 55.588, 146 56.500 C 148.560 57.313, 148.612 60, 146.067 60 C 145.004 60, 143.887 60.787, 143.584 61.750 C 142.789 64.276, 144.566 74.355, 145.884 74.795 C 146.498 74.999, 147 76.675, 147 78.518 C 147 80.362, 147.475 83.119, 148.056 84.646 C 148.636 86.173, 149.546 93.065, 150.078 99.961 C 151.869 123.186, 152.360 126.455, 154.110 126.787 C 157.387 127.409, 158.340 121.899, 157.584 106.693 C 156.601 86.896, 155.644 77.846, 154.276 75.412 C 152.284 71.867, 153.799 69.424, 159.835 66.448 C 165.169 63.818, 171.263 61.917, 180.500 60.003 C 182.700 59.548, 186.300 58.480, 188.500 57.631 C 190.700 56.782, 193.422 56.068, 194.550 56.044 C 195.677 56.020, 197.075 55.525, 197.655 54.945 C 198.235 54.365, 201.787 53.454, 205.548 52.922 C 209.310 52.389, 213.719 51.289, 215.347 50.477 C 216.975 49.664, 219.122 49, 220.118 49 C 221.976 49, 224.470 52.431, 223.616 53.813 C 223.354 54.237, 222.857 62.344, 222.512 71.828 C 222.115 82.765, 221.358 90.568, 220.443 93.162 C 219.649 95.411, 219 98.320, 219 99.626 C 219 102.804, 217.121 102.577, 213.583 98.972 C 211.979 97.337, 209.729 96, 208.583 95.999 C 206.024 95.998, 199.853 90.483, 198.235 86.750 C 197.406 84.838, 196.307 84, 194.628 84 C 191.706 84, 191.198 85.203, 191.772 90.765 C 192.121 94.143, 192.941 95.630, 195.715 97.917 C 199.282 100.857, 209.872 105, 213.820 105 C 215.576 105, 216 105.584, 216 108 C 216 110.495, 216.402 111, 218.385 111 C 221.297 111, 224.082 107.087, 225.147 101.500 C 227.063 91.447, 228.918 83.173, 230.080 79.500 C 231.988 73.471, 231.924 47.344, 229.993 43.500 C 228.585 40.699, 225.518 39.448, 222.500 40.445 M 206.750 48.662 C 207.438 48.940, 208.563 48.940, 209.250 48.662 C 209.938 48.385, 209.375 48.158, 208 48.158 C 206.625 48.158, 206.063 48.385, 206.750 48.662 M 193.451 61.816 C 192.926 62.192, 191.846 63.850, 191.050 65.500 C 190.253 67.150, 188.136 70.075, 186.344 72 C 184.075 74.437, 182.597 77.474, 181.479 82 C 180.595 85.575, 178.551 91.038, 176.936 94.140 C 175.321 97.242, 174 100.516, 174 101.415 C 174 102.314, 172.425 106.177, 170.500 110 C 168.575 113.823, 167 117.636, 167 118.475 C 167 119.314, 166.550 120, 166 120 C 165.450 120, 165 120.718, 165 121.596 C 165 122.473, 164.228 124.498, 163.284 126.096 C 161.992 128.284, 160.821 129.001, 158.534 129.004 C 156.865 129.006, 154.037 129.899, 152.250 130.989 C 146.458 134.521, 148.625 138, 156.617 138 C 159.517 138, 161.996 137.512, 162.199 136.902 C 162.401 136.298, 164.801 135.580, 167.533 135.306 C 170.265 135.033, 175.875 133.663, 180 132.262 C 184.125 130.861, 190.425 129.090, 194 128.328 C 209.670 124.985, 212.788 124.177, 217.632 122.208 C 220.455 121.061, 224.670 120.148, 226.999 120.181 C 231.754 120.246, 233.408 118.670, 231.658 115.738 C 230.623 114.004, 229.643 113.849, 222.432 114.277 C 217.994 114.540, 213.494 115.217, 212.432 115.781 C 211.369 116.344, 207.350 117.342, 203.500 117.997 C 199.650 118.652, 191.430 120.353, 185.233 121.777 C 171.551 124.920, 170.738 124.544, 174.416 116.769 C 175.837 113.765, 177.014 110.675, 177.032 109.904 C 177.049 109.132, 177.724 107.626, 178.532 106.559 C 179.339 105.491, 180 103.859, 180 102.931 C 180 102.004, 180.675 100.685, 181.500 100 C 182.325 99.315, 183 97.904, 183 96.864 C 183 95.824, 183.414 94.191, 183.920 93.236 C 187.343 86.773, 189 82.607, 189 80.469 C 189 79.111, 189.400 78, 189.889 78 C 190.377 78, 191.090 76.336, 191.471 74.303 C 191.852 72.270, 193.027 69.509, 194.082 68.168 C 196.848 64.652, 196.359 59.730, 193.451 61.816 M 74.882 64.750 C 74.816 65.162, 74.807 65.808, 74.860 66.184 C 75.562 71.170, 75.045 96.355, 74.222 97.178 C 73.639 97.761, 71.437 98.591, 69.330 99.021 C 64.764 99.954, 59.556 101.704, 55.669 103.611 C 54.112 104.375, 52.254 105, 51.541 105 C 50.828 105, 49.707 105.648, 49.049 106.441 C 48.392 107.233, 46.649 108.020, 45.177 108.191 C 43.229 108.416, 42.408 109.150, 42.163 110.887 C 41.977 112.200, 42.340 113.592, 42.970 113.981 C 44.644 115.016, 51.929 114.088, 55.132 112.432 C 56.655 111.644, 58.535 111, 59.310 111 C 60.084 111, 63.216 109.667, 66.269 108.038 C 74.516 103.637, 75.164 105.307, 73.039 125.500 C 70.674 147.977, 71.152 146.759, 63.882 148.858 C 61.472 149.554, 58.150 150.617, 56.500 151.221 C 54.850 151.825, 51.700 152.360, 49.500 152.409 L 45.500 152.500 44.900 148 C 44.281 143.362, 42.779 136.990, 40.377 128.812 C 39.620 126.234, 39 123.296, 39 122.285 C 39 121.273, 38.381 119.557, 37.625 118.473 C 36.869 117.388, 35.934 114.614, 35.547 112.308 C 34.790 107.793, 30.896 103, 27.986 103 C 23.353 103, 22.571 110.277, 27.147 110.807 C 29.582 111.088, 29.755 111.410, 29.307 114.807 C 29.023 116.962, 29.512 120.374, 30.481 123 C 31.394 125.475, 32.516 131.147, 32.972 135.605 C 33.616 141.889, 34.703 145.598, 37.807 152.105 C 40.010 156.722, 42.086 161.440, 42.422 162.590 C 43.315 165.644, 47.480 167.677, 49.466 166.028 C 50.310 165.328, 51 163.926, 51 162.913 C 51 160.756, 53.840 159, 57.327 159 C 58.680 159, 60.045 158.325, 60.362 157.500 C 61.159 155.423, 65.346 155.620, 67.345 157.829 C 68.528 159.136, 69 161.513, 69 166.162 C 69 169.740, 68.662 173.001, 68.250 173.411 C 67.838 173.820, 66.740 182.557, 65.811 192.827 C 64.035 212.464, 62.854 219.660, 60.891 222.803 C 59.742 224.643, 58.670 225.291, 49 229.997 C 42.144 233.334, 39.790 234.722, 39.102 235.835 C 38.036 237.560, 39.108 246, 40.392 246 C 41.048 246, 43.571 243.975, 46 241.500 C 48.429 239.025, 51.168 237, 52.086 237 C 53.004 237, 54.315 236.325, 55 235.500 C 55.685 234.675, 56.849 234, 57.587 234 C 58.325 234, 62.265 231.975, 66.341 229.500 C 70.418 227.025, 74.527 225, 75.472 225 C 77.311 225, 82.596 222.309, 84.803 220.250 C 85.540 219.563, 86.675 219, 87.325 219 C 88.617 219, 96.788 213.417, 99.073 210.973 C 103.123 206.641, 107.387 198, 105.475 198 C 105.166 198, 102.554 200.416, 99.670 203.369 C 96.787 206.323, 91.969 209.965, 88.964 211.464 C 85.959 212.963, 81.475 215.267, 79 216.584 C 73.956 219.269, 71.449 219.614, 70.724 217.722 C 70.187 216.323, 71.329 207.369, 73.048 199.500 C 73.649 196.750, 74.535 188.875, 75.017 182 C 76.055 167.192, 77.345 158.092, 78.789 155.395 C 79.365 154.317, 81.937 152.325, 84.504 150.968 C 96.129 144.820, 102 140.285, 102 137.455 C 102 136.774, 103.136 135.932, 104.525 135.583 C 107.225 134.905, 111 131.650, 111 130 C 111 129.450, 111.441 129, 111.981 129 C 112.520 129, 113.265 127.763, 113.635 126.250 C 114.005 124.737, 114.701 123.241, 115.182 122.924 C 115.663 122.607, 116.987 119.057, 118.125 115.036 C 120.820 105.513, 120.519 92.685, 117.520 89.250 C 115.194 86.586, 110.283 86.280, 103.785 88.394 C 101.428 89.160, 97.098 90.081, 94.163 90.440 C 91.227 90.799, 87.985 91.617, 86.958 92.258 C 84.345 93.890, 83.614 92.713, 83.837 87.238 C 84.140 79.828, 81.527 66.859, 79.422 65.319 C 77.441 63.870, 75.067 63.573, 74.882 64.750 M 102 96.650 C 98.975 97.464, 94.475 98.464, 92 98.873 C 89.525 99.282, 86.543 100.227, 85.372 100.972 C 82.651 102.707, 81.137 109.770, 81.079 121 C 81.055 125.675, 80.655 131.533, 80.190 134.018 C 78.987 140.451, 79.397 141, 85.417 141 C 89.918 141, 91.082 140.576, 93.583 138.028 C 95.188 136.393, 97.412 135.043, 98.528 135.028 C 99.643 135.012, 101.393 133.988, 102.417 132.750 C 103.441 131.512, 104.966 129.707, 105.806 128.737 C 106.646 127.767, 107.908 123.042, 108.610 118.237 C 109.311 113.432, 110.329 106.865, 110.871 103.644 C 112.426 94.401, 111.900 93.986, 102 96.650 M 185.500 126 C 185.160 126.550, 185.809 127, 186.941 127 C 188.073 127, 189 126.550, 189 126 C 189 125.450, 188.352 125, 187.559 125 C 186.766 125, 185.840 125.450, 185.500 126 M 174.250 127.794 C 171.817 128.043, 171 128.613, 171 130.063 C 171 132.539, 173.622 132.565, 177.320 130.127 C 180.471 128.050, 179.436 127.263, 174.250 127.794 M 38.079 142.583 C 38.127 143.748, 38.364 143.985, 38.683 143.188 C 38.972 142.466, 38.936 141.603, 38.604 141.271 C 38.272 140.939, 38.036 141.529, 38.079 142.583 M 224 148.500 C 222.075 149.241, 218.966 149.882, 217.092 149.924 C 213.613 150.002, 196.148 154.965, 190.216 157.562 C 188.410 158.353, 186.133 159, 185.157 159 C 184.181 159, 182.509 159.661, 181.441 160.468 C 180.374 161.276, 178.349 161.951, 176.941 161.968 C 175.534 161.986, 173.509 162.661, 172.441 163.468 C 171.374 164.276, 169.635 164.951, 168.579 164.968 C 167.522 164.986, 165.851 165.730, 164.866 166.621 C 163.881 167.513, 162.383 167.977, 161.537 167.653 C 159.820 166.994, 159.451 163.457, 161 162.500 C 162.362 161.658, 162.273 157, 160.894 157 C 160.286 157, 158.452 158.125, 156.818 159.500 C 155.184 160.875, 152.936 162, 151.823 162 C 149.579 162, 149.579 162.220, 151.855 178.500 C 154.150 194.920, 155.981 212.848, 156.492 223.916 C 156.782 230.195, 157.526 237.024, 158.146 239.091 C 159.586 243.900, 158.757 246, 155.418 246 C 153.963 246, 148.925 246.930, 144.222 248.067 C 139.519 249.204, 134.703 249.891, 133.519 249.594 C 132.336 249.297, 130.384 249.743, 129.182 250.585 C 127.473 251.782, 127.088 252.861, 127.418 255.525 C 128.021 260.388, 128.728 261.216, 131.162 259.913 C 132.284 259.313, 137.545 258.192, 142.851 257.423 C 159.580 254.999, 164.604 254.101, 167.406 253.036 C 168.904 252.466, 172.126 252, 174.565 252 C 177.004 252, 179 251.550, 179 251 C 179 250.450, 179.986 250, 181.191 250 C 182.396 250, 186.896 248.993, 191.191 247.761 C 198.912 245.548, 201.114 243.546, 196.750 242.706 C 195.091 242.386, 195.339 242.237, 197.691 242.136 C 199.446 242.061, 201.194 242.506, 201.576 243.123 C 202.411 244.475, 221.552 243.663, 230 241.919 C 233.025 241.294, 241.089 240.494, 247.920 240.141 C 256.490 239.699, 260.468 239.113, 260.753 238.250 C 260.981 237.563, 260.454 237, 259.583 237 C 258.712 237, 258 236.325, 258 235.500 C 258 234.461, 259.044 234, 261.393 234 C 263.487 234, 265.006 234.574, 265.362 235.500 C 265.760 236.539, 265.294 237, 263.846 237 C 262.135 237, 261.973 237.263, 262.956 238.447 C 264.376 240.158, 281.683 240.418, 283.750 238.758 C 285.514 237.343, 285.303 231.993, 283.401 229.891 C 282.161 228.521, 281.250 228.335, 279.339 229.061 C 277.984 229.576, 270.266 230.199, 262.188 230.445 C 254.109 230.690, 244.125 231.356, 240 231.923 C 235.875 232.490, 228.900 233.199, 224.500 233.498 C 217.608 233.965, 198.673 236.822, 192.500 238.326 C 190.178 238.892, 176.005 241.614, 171.262 242.405 C 166.071 243.271, 165 240.003, 164.999 223.300 C 164.998 215.710, 164.372 205.900, 163.607 201.500 C 162.843 197.100, 161.910 189.900, 161.534 185.500 L 160.851 177.500 164.175 175.876 C 171.427 172.333, 184.434 168, 187.815 168 C 188.882 168, 190.339 167.297, 191.052 166.437 C 192.228 165.021, 192.433 165.023, 193.240 166.464 C 193.855 167.564, 193.235 169.843, 191.225 173.865 L 188.321 179.677 188.618 197.418 C 188.782 207.176, 189.177 215.982, 189.496 216.987 C 190.615 220.513, 196.387 220.686, 197.173 217.217 C 197.387 216.273, 197.281 208.300, 196.937 199.500 C 196.411 186.069, 197.229 168.104, 198.587 163.250 C 198.791 162.523, 200.572 162, 202.846 162 C 205.101 162, 207.282 161.365, 208 160.500 C 208.685 159.675, 210.090 159, 211.122 159 C 212.155 159, 213 158.523, 213 157.941 C 213 157.344, 213.545 157.223, 214.250 157.663 C 214.938 158.092, 216.104 158.535, 216.842 158.647 C 217.580 158.759, 218.291 158.996, 218.424 159.175 C 218.556 159.354, 217.895 164.900, 216.956 171.500 C 216.016 178.100, 214.672 190.025, 213.969 198 C 213.267 205.975, 212.086 213.715, 211.346 215.200 C 209.487 218.930, 209.586 225.627, 211.512 226.366 C 214.594 227.549, 217.597 224.972, 219.314 219.672 C 221.369 213.325, 222.475 204.498, 224.535 178 C 225.412 166.725, 226.549 157.073, 227.063 156.552 C 227.964 155.637, 234.708 155.374, 235.554 156.221 C 235.783 156.449, 236.483 160.206, 237.111 164.568 C 239.390 180.401, 238.322 204.897, 235.267 206.859 C 234.718 207.212, 233.954 208.512, 233.568 209.749 C 232.995 211.584, 233.363 212.188, 235.565 213.025 C 239.261 214.430, 241.869 213.385, 242.652 210.183 C 243.013 208.708, 243.753 207.209, 244.297 206.853 C 246.711 205.273, 249.176 182.025, 247.933 172.569 C 246.016 157.991, 244.809 154.160, 240.586 149.250 C 238.991 147.395, 237.674 147.013, 233.076 147.076 C 230.009 147.118, 225.925 147.759, 224 148.500 M 210.750 155.662 C 211.438 155.940, 212.563 155.940, 213.250 155.662 C 213.938 155.385, 213.375 155.158, 212 155.158 C 210.625 155.158, 210.063 155.385, 210.750 155.662 M 177 166 C 177 166.550, 175.677 167, 174.059 167 C 172.441 167, 170.899 167.355, 170.631 167.788 C 170.363 168.221, 172.213 168.334, 174.742 168.038 C 178.980 167.542, 182.195 165, 178.583 165 C 177.713 165, 177 165.450, 177 166 M 110.552 186.750 C 108.913 198.744, 109.658 201.871, 116.500 211.705 C 122.015 219.632, 126.891 223.188, 129.765 221.378 C 132.727 219.513, 132.413 216.894, 128.833 213.601 C 121.448 206.807, 116.185 195.988, 117.454 190.210 C 118.393 185.933, 116.559 182, 113.625 182 C 111.491 182, 111.124 182.568, 110.552 186.750 M 231.750 237.662 C 232.438 237.940, 233.563 237.940, 234.250 237.662 C 234.938 237.385, 234.375 237.158, 233 237.158 C 231.625 237.158, 231.063 237.385, 231.750 237.662 M 243.750 237.706 C 244.988 237.944, 247.012 237.944, 248.250 237.706 C 249.488 237.467, 248.475 237.272, 246 237.272 C 243.525 237.272, 242.512 237.467, 243.750 237.706 M 219 238.774 C 219 240.054, 224.879 240.770, 228.071 239.878 C 230.171 239.291, 230.027 239.184, 227 239.086 C 225.075 239.024, 222.488 238.701, 221.250 238.370 C 220.007 238.037, 219 238.217, 219 238.774 M 207 240.969 C 207 241.501, 207.675 241.678, 208.500 241.362 C 209.325 241.045, 210 240.609, 210 240.393 C 210 240.177, 209.325 240, 208.500 240 C 207.675 240, 207 240.436, 207 240.969 M 214.500 241 C 214.840 241.550, 215.316 242, 215.559 242 C 215.802 242, 216 241.550, 216 241 C 216 240.450, 215.523 240, 214.941 240 C 214.359 240, 214.160 240.450, 214.500 241 M 180.395 245.970 C 178.687 246.975, 176.437 248.016, 175.395 248.283 C 174.342 248.552, 175.087 248.820, 177.071 248.884 C 181.529 249.029, 189.110 245.640, 186.537 244.653 C 184.278 243.786, 184.006 243.844, 180.395 245.970 M 191.500 245 C 191.160 245.550, 191.359 246, 191.941 246 C 192.523 246, 193 245.550, 193 245 C 193 244.450, 192.802 244, 192.559 244 C 192.316 244, 191.840 244.450, 191.500 245 M 160 250.500 C 158.960 251.753, 159.104 252, 160.878 252 C 162.098 252, 163 251.362, 163 250.500 C 163 249.675, 162.605 249, 162.122 249 C 161.640 249, 160.685 249.675, 160 250.500 M 143.500 251.983 C 141.300 252.386, 138.375 253.201, 137 253.794 C 134.817 254.736, 135.230 254.881, 140.250 254.937 C 143.459 254.972, 146 254.558, 146 254 C 146 253.450, 147.463 252.993, 149.250 252.985 C 151.716 252.973, 152.138 252.736, 151 252 C 149.348 250.932, 149.238 250.932, 143.500 251.983" stroke="none" fill="black" fill-rule="evenodd"/>
</svg>