<svg xmlns="http://www.w3.org/2000/svg" width="300" height="300" viewBox="0 0 300 300" version="1.1">
	<path d="M 173 42.987 C 173 43.529, 171.537 44.592, 169.750 45.349 C 165.394 47.192, 163.388 49.734, 162.692 54.290 C 162.373 56.374, 159.500 62.899, 156.306 68.790 C 153.113 74.680, 150.339 80.143, 150.142 80.929 C 149.945 81.715, 149.158 82.985, 148.392 83.751 C 147.626 84.516, 147 86.209, 147 87.512 C 147 88.816, 146.579 90.142, 146.065 90.460 C 145.550 90.778, 143.975 93.559, 142.565 96.640 C 139.508 103.316, 138.918 113, 141.567 113 C 143.405 113, 150 106.306, 150 104.441 C 150 103.738, 150.620 101.888, 151.378 100.331 C 152.135 98.774, 153.441 95.925, 154.279 94 C 157.487 86.628, 163.390 74.403, 164.790 72.233 C 165.932 70.462, 166.554 70.215, 167.626 71.105 C 168.382 71.732, 169 73.104, 169 74.154 C 169 76.960, 171.069 77.296, 176.586 75.386 C 179.289 74.450, 183.008 73.773, 184.852 73.880 C 189.002 74.123, 191.539 72.354, 189.890 70.367 C 188.968 69.256, 189.396 69, 192.178 69 C 194.060 69, 196.074 68.526, 196.654 67.946 C 198.053 66.547, 212.347 65.629, 211.504 66.993 C 211.162 67.547, 209.839 68, 208.563 68 C 207.288 68, 205.685 68.675, 205 69.500 C 203.940 70.778, 204.207 71, 206.806 71 C 208.484 71, 210.468 70.389, 211.215 69.642 C 211.962 68.895, 215.144 67.963, 218.287 67.570 C 222.865 66.998, 224 66.497, 224 65.050 C 224 64.057, 224.650 62.706, 225.444 62.046 C 226.604 61.084, 227.143 61.256, 228.185 62.924 C 229.920 65.703, 231.842 65.545, 232.989 62.528 C 233.567 61.009, 235.003 59.821, 236.715 59.447 C 238.247 59.112, 240.710 58.381, 242.190 57.822 C 245.505 56.571, 247.190 57.491, 246.798 60.339 C 246.529 62.287, 246.939 62.490, 250.950 62.399 C 253.398 62.343, 255.573 61.781, 255.784 61.149 C 256.381 59.358, 258.552 59.800, 258.739 61.750 C 259.787 72.664, 259.882 85.834, 259.030 102 C 258.465 112.725, 257.820 147.277, 257.597 178.782 C 257.293 221.845, 256.890 236.428, 255.974 237.532 C 254.418 239.406, 249.654 239.402, 243.409 237.522 C 240.709 236.709, 235.800 235.747, 232.500 235.385 C 229.200 235.023, 224.570 233.830, 222.212 232.735 C 217.808 230.690, 216.349 230.860, 217.288 233.309 C 217.759 234.535, 235.736 241, 238.674 241 C 239.288 241, 240.850 242.117, 242.145 243.483 C 244.855 246.339, 247.470 246.673, 249.698 244.445 C 251.105 243.038, 251.456 243.073, 253.377 244.820 C 258.489 249.468, 263.942 249.845, 266.158 245.705 C 266.918 244.285, 267.369 225.317, 267.599 185.070 C 267.784 152.856, 268.241 118.175, 268.614 108 C 269.432 85.702, 269.403 78.655, 268.435 65.231 C 267.762 55.884, 267.504 54.914, 265.557 54.425 C 262.338 53.617, 237.210 54.625, 231.500 55.791 C 228.750 56.353, 222.578 57.763, 217.785 58.925 C 212.992 60.087, 206.917 61.245, 204.285 61.499 C 201.653 61.753, 197.700 62.383, 195.500 62.899 C 188.261 64.598, 180.590 65.919, 174.750 66.472 C 167.801 67.131, 167.610 66.527, 171.945 57.579 C 176.194 48.808, 177.127 45.975, 176.458 43.868 C 175.849 41.947, 173 41.221, 173 42.987 M 239.638 62.500 C 239.247 63.520, 239.692 64, 241.031 64 C 242.115 64, 243 63.325, 243 62.500 C 243 61.675, 242.373 61, 241.607 61 C 240.841 61, 239.955 61.675, 239.638 62.500 M 73.182 69.981 C 71.432 71.579, 70 73.588, 70 74.444 C 70 75.300, 69.600 76, 69.111 76 C 68.621 76, 67.897 81.400, 67.500 88 C 67.103 94.600, 66.491 100.031, 66.139 100.068 C 59.531 100.776, 46.131 99.096, 41.795 97.017 C 39.681 96.003, 38.472 95.976, 36.262 96.892 C 33.976 97.839, 32.840 97.767, 30.335 96.517 C 27.280 94.993, 24 95.322, 24 97.152 C 24 97.669, 22.911 99.180, 21.579 100.512 L 19.158 102.933 19.500 130.280 C 19.746 149.924, 20.278 159.721, 21.389 165.063 C 23.614 175.764, 28.080 183.812, 31.842 183.901 C 35.947 183.998, 40 185.345, 40 186.613 C 40 188.433, 43.962 188.343, 46.441 186.468 C 47.509 185.661, 49.335 185, 50.500 185 C 51.665 185, 53.491 184.339, 54.559 183.532 C 55.626 182.724, 57.625 182.029, 59 181.987 C 61.432 181.912, 61.419 181.875, 58.500 180.625 L 55.500 179.340 58.200 178.818 C 59.959 178.478, 61.084 178.776, 61.428 179.673 C 61.781 180.593, 62.791 180.839, 64.478 180.416 C 66.950 179.796, 67 179.895, 67 185.398 C 67 188.486, 67.645 195.398, 68.433 200.757 C 69.642 208.971, 70.488 222.724, 70.103 227.888 C 70.020 229.002, 68.549 229.144, 62.641 228.609 C 57.962 228.185, 54.230 228.353, 52.391 229.072 C 50.653 229.751, 43.835 230.144, 35.299 230.057 C 21.668 229.918, 20.936 230.015, 17.049 232.469 C 10.272 236.747, 12.064 239.953, 21.250 239.986 C 24.842 239.999, 26.134 238.819, 23.984 237.490 C 22.498 236.572, 23.808 235, 26.059 235 C 28.128 235, 28.669 236.468, 26.984 237.510 C 25.360 238.513, 26.898 240, 29.559 240 C 32.047 240, 32.952 237.706, 30.951 236.470 C 30.235 236.027, 30.273 235.376, 31.074 234.411 C 32.390 232.825, 38 232.469, 38 233.971 C 38 234.506, 39.463 235.365, 41.250 235.881 L 44.500 236.820 41.441 236.910 C 39.759 236.959, 37.545 237.612, 36.521 238.361 C 34.912 239.538, 35.729 239.656, 42.580 239.235 C 50.374 238.756, 52.713 238.159, 50.250 237.280 C 48.132 236.523, 48.850 235.299, 52.401 233.614 C 57.142 231.364, 60 231.510, 60 234 C 60 235.305, 59.333 236, 58.082 236 C 55.359 236, 53 237.039, 53 238.238 C 53 238.884, 54.383 238.992, 56.750 238.531 C 58.813 238.129, 62.750 237.646, 65.500 237.458 C 73.538 236.907, 83.225 235.368, 87 234.041 C 88.925 233.365, 91.850 232.345, 93.500 231.775 C 95.150 231.205, 99.388 230.216, 102.918 229.577 C 112.221 227.893, 113.768 224.381, 106.103 222.346 C 104.784 221.996, 98.559 222.302, 92.268 223.027 C 82.455 224.157, 80.703 224.142, 79.931 222.922 C 79.436 222.140, 79.024 217.030, 79.015 211.568 C 79.007 206.105, 78.495 197.694, 77.877 192.877 C 76.370 181.129, 76.857 179.577, 82.673 177.596 C 85.249 176.718, 88.289 175.947, 89.428 175.882 C 90.864 175.800, 90.579 175.545, 88.500 175.051 C 85.630 174.369, 85.705 174.305, 90.238 173.558 C 95.670 172.662, 99.424 173.488, 96.972 175.038 C 95.910 175.710, 96.544 175.974, 99.250 175.985 C 101.313 175.993, 103 176.420, 103 176.933 C 103 178.296, 106.676 179.238, 109.053 178.483 C 110.764 177.940, 111.056 177.136, 110.803 173.666 L 110.500 169.500 105.305 168.618 C 102.201 168.092, 95.760 168.129, 89.305 168.710 C 83.245 169.255, 78.074 169.304, 77.529 168.820 C 76.935 168.293, 76.644 157.015, 76.778 139.729 C 76.972 114.831, 77.193 111.356, 78.647 110.282 C 79.553 109.612, 80.680 109.302, 81.150 109.593 C 81.621 109.884, 83.989 109.824, 86.412 109.461 C 89.682 108.971, 90.956 108.276, 91.350 106.768 C 91.759 105.206, 92.416 104.879, 94.191 105.354 C 95.461 105.694, 97.737 105.979, 99.250 105.986 C 103.480 106.007, 102.509 107.651, 97.750 108.525 L 93.500 109.305 97.731 109.967 C 100.059 110.332, 102.309 110.976, 102.731 111.399 C 103.154 111.823, 103.601 114.494, 103.723 117.335 C 104.074 125.447, 106.656 147.035, 107.869 152 C 108.473 154.475, 109.209 157.738, 109.503 159.250 C 110.286 163.273, 113.488 162.881, 115.563 158.508 C 116.475 156.588, 116.931 154.262, 116.577 153.340 C 116.223 152.418, 115.506 144.955, 114.984 136.756 C 113.809 118.292, 112.025 104.905, 110.517 103.221 C 109.721 102.333, 104.652 101.787, 93.949 101.434 C 85.466 101.155, 78.107 100.507, 77.595 99.995 C 77.020 99.420, 77.063 93.601, 77.708 84.782 C 78.975 67.461, 78.312 65.295, 73.182 69.981 M 181 71 C 182.957 72.264, 185 72.264, 185 71 C 185 70.450, 183.762 70.007, 182.250 70.015 C 180.107 70.027, 179.831 70.245, 181 71 M 194 71 C 194 71.550, 194.423 72, 194.941 72 C 195.459 72, 196.160 71.550, 196.500 71 C 196.840 70.450, 196.416 70, 195.559 70 C 194.702 70, 194 70.450, 194 71 M 171.139 97.332 C 170.319 98.320, 170.408 99.159, 171.485 100.582 C 172.283 101.637, 172.951 103.737, 172.968 105.250 C 173.009 108.800, 176.292 109.011, 178.523 105.606 C 182.045 100.230, 175.148 92.502, 171.139 97.332 M 45.813 101.683 C 46.534 101.972, 47.397 101.936, 47.729 101.604 C 48.061 101.272, 47.471 101.036, 46.417 101.079 C 45.252 101.127, 45.015 101.364, 45.813 101.683 M 40 103.500 C 40 104.325, 40.395 105, 40.878 105 C 41.360 105, 42.315 104.325, 43 103.500 C 44.040 102.247, 43.896 102, 42.122 102 C 40.902 102, 40 102.638, 40 103.500 M 55.575 102.758 C 54.626 103.707, 54.925 105, 56.092 105 C 56.693 105, 58.268 105.852, 59.591 106.893 C 63.050 109.614, 60.930 109.972, 51 108.347 C 46.325 107.582, 39.222 106.853, 35.216 106.728 L 27.933 106.500 28.573 134 C 29.194 160.687, 29.578 164.206, 33.194 176.250 C 34.471 180.504, 36.517 181.034, 41.500 178.405 C 44.966 176.576, 58.250 173, 61.578 173 C 67.127 173, 66.908 174.285, 66.954 141.468 C 66.980 122.312, 66.627 110.888, 65.998 110.499 C 65.449 110.159, 65 108.832, 65 107.548 C 65 106.263, 64.214 104.894, 63.250 104.503 C 59.487 102.974, 56.124 102.209, 55.575 102.758 M 46.565 103.895 C 45.870 105.019, 48.826 106.226, 50.197 105.378 C 50.835 104.984, 50.708 104.430, 49.857 103.890 C 48.109 102.783, 47.251 102.784, 46.565 103.895 M 162.989 110.714 C 162.444 112.246, 161.548 114.284, 160.996 115.242 C 156.758 122.602, 151.706 133.588, 149.610 140 C 146.946 148.149, 146.675 151.574, 148.476 154.322 C 150.108 156.814, 150.090 156.859, 147.326 157.177 C 143.073 157.666, 143.515 160.171, 148.398 163.250 C 153.253 166.311, 156 166.763, 156 164.500 C 156 163.675, 155.325 163, 154.500 163 C 153.675 163, 153 162.662, 153.001 162.250 C 153.002 161.609, 156.874 161.489, 164.309 161.900 C 165.423 161.962, 165.840 162.450, 165.395 163.170 C 164.885 163.995, 165.237 164.108, 166.586 163.555 C 172.443 161.152, 178.791 160.912, 177.410 163.145 C 177.077 163.685, 177.860 163.822, 179.264 163.470 C 181.545 162.897, 181.769 163.221, 182.873 168.680 C 183.521 171.881, 184.334 177.800, 184.679 181.832 C 185.375 189.952, 186.655 192, 191.036 192 C 195.402 192, 196.064 189.771, 194.923 178.900 C 194.381 173.730, 194.176 168.522, 194.468 167.328 C 195.226 164.227, 200.634 162.761, 210.314 163.031 C 220.957 163.328, 221 163.321, 221 161.122 C 221 157.252, 218.364 156.486, 205.961 156.750 C 192.025 157.048, 192.726 157.863, 193.666 142.446 C 194.095 135.428, 193.915 131.709, 193.071 130.132 C 191.557 127.303, 193.294 124.611, 195.855 125.816 C 197.562 126.619, 209.994 126.495, 213.500 125.641 C 214.600 125.372, 215.838 125.119, 216.250 125.077 C 216.662 125.034, 217 124.100, 217 123 C 217 121.121, 216.333 121, 206 121 C 199.104 121, 195 120.615, 195 119.968 C 195 118.375, 190.807 117.195, 188.004 117.999 C 186.536 118.420, 182.788 118.031, 178.995 117.064 C 172.584 115.430, 172.500 115.364, 172.500 111.974 C 172.500 108.648, 172.367 108.531, 168.239 108.234 C 164.361 107.955, 163.889 108.178, 162.989 110.714 M 201.813 124.683 C 202.534 124.972, 203.397 124.936, 203.729 124.604 C 204.061 124.272, 203.471 124.036, 202.417 124.079 C 201.252 124.127, 201.015 124.364, 201.813 124.683 M 165.369 127.906 C 165.028 129.608, 164.356 131, 163.875 131 C 163.394 131, 163 131.469, 163 132.042 C 163 132.615, 161.637 135.999, 159.971 139.562 C 158.305 143.126, 156.676 147.372, 156.350 148.998 C 156.025 150.624, 155.138 152.470, 154.379 153.100 C 151.176 155.759, 154.702 158.865, 158.507 156.736 C 159.616 156.116, 164.417 155.995, 171.117 156.419 C 184.103 157.240, 183.183 158.610, 182.778 139.059 L 182.500 125.618 174.244 125.215 L 165.988 124.812 165.369 127.906 M 170.813 159.683 C 171.534 159.972, 172.397 159.936, 172.729 159.604 C 173.061 159.272, 172.471 159.036, 171.417 159.079 C 170.252 159.127, 170.015 159.364, 170.813 159.683 M 233 173.427 C 233 175.753, 232.531 177, 231.655 177 C 230.915 177, 229.609 177.787, 228.752 178.750 C 227.340 180.337, 227.375 181.427, 229.126 190.459 C 230.947 199.848, 231.950 201.948, 234.628 201.985 C 237.515 202.024, 238.002 199.285, 237.133 187.896 C 236.655 181.628, 236.317 175.162, 236.382 173.527 C 236.465 171.437, 235.981 170.451, 234.750 170.204 C 233.344 169.922, 233 170.557, 233 173.427 M 64 177.500 C 64 178.325, 64.675 179, 65.500 179 C 66.325 179, 67 178.325, 67 177.500 C 67 176.675, 66.325 176, 65.500 176 C 64.675 176, 64 176.675, 64 177.500 M 51.441 180.468 C 49.539 181.907, 49.544 181.937, 51.643 181.968 C 52.822 181.986, 54.045 181.325, 54.362 180.500 C 55.092 178.597, 53.932 178.584, 51.441 180.468 M 129.512 183.986 C 127.908 185.759, 127.831 186.700, 128.798 192.736 C 131.222 207.866, 131.881 210.161, 134.506 212.593 C 137.306 215.188, 139.334 215.389, 148 213.925 C 157.544 212.314, 170.391 210.790, 173.338 210.920 C 175.438 211.013, 176.318 210.500, 176.724 208.946 C 177.477 206.068, 180.950 204.970, 187.025 205.689 C 192.022 206.281, 192.229 207.950, 187.309 207.985 C 186.104 207.993, 184.847 208.439, 184.515 208.975 C 184.134 209.593, 187.079 209.781, 192.550 209.490 C 197.301 209.237, 201.957 209.442, 202.898 209.945 C 204.808 210.967, 206.413 210.253, 207.271 208 C 207.751 206.739, 207.855 206.759, 207.921 208.123 C 207.978 209.297, 209.312 209.899, 212.750 210.300 C 215.363 210.605, 220.507 211.368, 224.182 211.995 C 230.013 212.990, 231.191 212.921, 233.432 211.453 C 239.265 207.631, 235.364 204.508, 223.500 203.501 C 208.344 202.214, 206.782 202.073, 197.890 201.175 C 189.030 200.280, 186.446 200.386, 177 202.027 C 173.975 202.553, 165.260 203.424, 157.634 203.964 C 142.554 205.032, 140 204.543, 140 200.591 C 140 199.304, 139.325 196.338, 138.500 194 C 137.675 191.662, 137 188.278, 137 186.481 C 137 181.766, 132.791 180.364, 129.512 183.986 M 198.565 205.895 C 198.260 206.388, 198.721 207.063, 199.588 207.395 C 202.341 208.452, 203.319 208.089, 202 206.500 C 200.588 204.798, 199.375 204.585, 198.565 205.895 M 117.184 206.866 C 116.049 207.585, 115.377 209.301, 115.077 212.250 C 115.034 212.662, 114.325 213, 113.500 213 C 111.560 213, 111.574 218.073, 113.529 223.500 C 114.321 225.700, 114.977 228.218, 114.985 229.096 C 115.013 232.056, 117.896 236.473, 122.920 241.250 C 125.667 243.863, 128.561 246, 129.350 246 C 132.279 246, 131.968 242.750, 128.504 237.138 C 126.577 234.015, 124.980 230.794, 124.956 229.980 C 124.932 229.166, 124.195 226.700, 123.319 224.500 C 122.442 222.300, 121.449 217.385, 121.113 213.579 C 120.502 206.682, 119.683 205.283, 117.184 206.866 M 149.715 209.301 C 149.238 210.542, 150.460 210.667, 158.250 210.174 C 163.084 209.868, 161.195 208.508, 155.600 208.267 C 151.981 208.110, 150.041 208.451, 149.715 209.301 M 64 232.960 C 64 234.168, 66.762 235.028, 68.500 234.362 C 70.972 233.413, 70.200 232.310, 67 232.219 C 65.350 232.172, 64 232.506, 64 232.960 M 257.269 242.693 C 258.242 242.947, 259.592 242.930, 260.269 242.656 C 260.946 242.382, 260.150 242.175, 258.500 242.195 C 256.850 242.215, 256.296 242.439, 257.269 242.693" stroke="none" fill="black" fill-rule="evenodd"/>
</svg>