<svg xmlns="http://www.w3.org/2000/svg" width="300" height="300" viewBox="0 0 300 300" version="1.1">
	<path d="M 203.477 43.396 C 201.814 44.120, 195.739 45.512, 189.977 46.489 C 177.842 48.547, 175.800 49.536, 175.385 53.559 C 173.343 73.308, 171.867 84.779, 170.568 91 C 169.706 95.125, 169.001 99.963, 169.001 101.750 C 169 104.473, 169.372 105, 171.296 105 C 173.389 105, 173.701 104.313, 174.810 97.250 C 175.479 92.987, 176.929 85.675, 178.031 81 C 179.134 76.325, 180.491 68.900, 181.048 64.500 C 181.605 60.100, 182.280 55.487, 182.549 54.250 C 183.087 51.774, 185.029 51.376, 187.881 53.158 C 188.993 53.853, 190.488 53.987, 191.618 53.494 C 192.653 53.042, 194.625 52.559, 196 52.419 C 197.375 52.279, 199.738 51.851, 201.250 51.466 C 203.844 50.807, 204 50.958, 203.999 54.133 C 203.998 55.985, 203.309 60.875, 202.468 65 C 200.210 76.073, 199.086 85.042, 199.728 86.879 C 200.435 88.905, 205.081 94, 206.222 94 C 206.689 94, 208.193 94.736, 209.565 95.635 C 211.889 97.157, 211.938 97.350, 210.280 98.450 C 207.547 100.263, 200.979 101.927, 192.340 102.997 C 188.028 103.531, 182.338 104.476, 179.695 105.097 C 175.633 106.051, 174.938 106.556, 175.195 108.363 C 175.468 110.278, 176.209 110.526, 182.315 110.750 C 188.225 110.966, 197.129 109.647, 204.738 107.426 C 207.808 106.530, 208.764 109.368, 206.743 113.381 C 205.879 115.096, 203.956 119.797, 202.470 123.826 C 199.530 131.794, 198.166 133.011, 194.742 130.719 C 192.014 128.893, 183.336 120.525, 180.257 116.750 C 179.023 115.237, 177.351 114, 176.542 114 C 174.333 114, 172.723 117.614, 173.929 119.867 C 175.587 122.965, 186.033 132, 187.958 132 C 190.170 132, 191.513 133.619, 192.410 137.367 C 193.002 139.839, 192.380 141.079, 187.893 146.367 C 185.031 149.740, 181.297 153.714, 179.595 155.199 C 177.035 157.431, 176.691 158.209, 177.602 159.699 C 179.524 162.840, 182.272 162.279, 187 157.779 C 192.670 152.383, 200 143.964, 200 142.848 C 200 142.382, 200.900 142, 202 142 C 203.100 142, 204 142.642, 204 143.427 C 204 144.211, 206.465 146.264, 209.479 147.988 C 212.492 149.712, 215.219 151.545, 215.538 152.061 C 216.661 153.878, 220 153.084, 220 151 C 220 149.900, 219.626 149, 219.169 149 C 218.434 149, 210.710 142.500, 205.831 137.775 C 203.859 135.865, 203.508 137.137, 210.185 122 C 213.396 114.722, 215.352 106.141, 214.827 101.641 L 214.402 98 218.451 97.985 C 223.376 97.966, 225.313 96.873, 224.839 94.380 C 224.559 92.911, 223.280 92.362, 218.990 91.869 C 208.172 90.627, 206.014 89.906, 205.364 87.314 C 204.522 83.959, 205.734 75.776, 208.076 69.008 C 209.158 65.883, 210.051 61.340, 210.061 58.913 C 210.070 56.486, 210.170 52.119, 210.281 49.208 C 210.425 45.436, 210.055 43.646, 208.992 42.974 C 207.134 41.799, 207.142 41.798, 203.477 43.396 M 114.441 47.439 C 112.900 48.582, 112.723 49.251, 113.585 50.689 C 114.267 51.827, 114.358 53.614, 113.828 55.500 C 113.365 57.150, 113.271 62.151, 113.619 66.613 C 114.093 72.679, 113.930 74.925, 112.975 75.516 C 111.575 76.381, 111.088 76.436, 93.191 77.776 C 80.153 78.752, 75.848 80.393, 75.210 84.628 C 74.962 86.271, 75.522 86.546, 79.013 86.500 C 81.286 86.470, 83.472 85.854, 83.928 85.116 C 84.513 84.170, 84.950 84.111, 85.444 84.910 C 85.826 85.527, 86.564 85.769, 87.085 85.447 C 87.606 85.125, 87.774 84.443, 87.457 83.931 C 87.141 83.419, 88.371 83.007, 90.191 83.015 C 92.695 83.027, 93.135 83.266, 92 84 C 90.912 84.703, 91.770 84.974, 95.125 84.985 C 102.090 85.008, 105.947 84.026, 105.319 82.390 C 105.026 81.625, 105.284 81, 105.893 81 C 106.502 81, 107 81.470, 107 82.044 C 107 82.618, 107.787 82.955, 108.750 82.794 C 110.170 82.555, 110.675 83.606, 111.428 88.356 C 112.764 96.789, 112.188 97.335, 100.895 98.318 C 91.277 99.156, 88.214 100.508, 89.332 103.422 C 90.003 105.172, 92.710 105.469, 94.966 104.042 C 95.881 103.463, 96.881 103.486, 97.623 104.102 C 98.408 104.754, 103.183 104.702, 111.656 103.952 C 118.720 103.326, 126.075 102.739, 128 102.649 C 130.768 102.519, 131.565 102.030, 131.811 100.310 C 132.254 97.204, 129.078 95.882, 122.481 96.427 C 118.106 96.788, 116.768 96.559, 116.311 95.369 C 115.387 92.961, 117.911 85.998, 120.730 83.179 C 122.277 81.632, 122.843 80.448, 122.147 80.216 C 121.509 80.003, 121.242 79.418, 121.553 78.915 C 122.318 77.677, 126 77.747, 126 79 C 126 80.529, 127.809 80.278, 136.500 77.544 C 140.900 76.160, 145.684 74.801, 147.131 74.524 C 149.795 74.015, 150.911 71.935, 150.228 68.750 C 149.774 66.628, 145.876 66.422, 142.715 68.352 C 141.497 69.096, 136.765 70.525, 132.201 71.527 C 127.637 72.529, 123.673 73.721, 123.392 74.175 C 123.111 74.629, 121.731 75, 120.324 75 C 118.136 75, 117.866 74.675, 118.451 72.750 C 120.475 66.093, 120.934 62.705, 120.887 54.750 C 120.839 46.385, 120.739 46, 118.609 46 C 117.384 46, 115.509 46.648, 114.441 47.439 M 196 107 C 196 107.550, 196.450 108, 197 108 C 197.550 108, 198 107.550, 198 107 C 198 106.450, 197.550 106, 197 106 C 196.450 106, 196 106.450, 196 107 M 70.500 117 C 69.505 118.100, 67.810 119, 66.734 119 C 64.891 119, 64.800 119.622, 65.149 129.808 C 65.427 137.925, 65.952 141.278, 67.259 143.273 C 68.217 144.734, 69 146.565, 69 147.342 C 69 148.119, 69.648 149.293, 70.440 149.950 C 71.232 150.607, 72.019 152.090, 72.190 153.244 C 72.546 155.657, 73.903 156.345, 75.859 155.107 C 77.829 153.861, 76.401 146.725, 73.571 143.671 C 70.954 140.847, 69.436 134.080, 71.304 133.568 C 71.962 133.387, 76.059 132.694, 80.409 132.028 C 84.759 131.361, 89.709 130.210, 91.409 129.469 C 93.109 128.728, 95.756 127.856, 97.291 127.532 C 98.826 127.207, 99.881 126.617, 99.636 126.221 C 99.390 125.824, 101.734 125.472, 104.845 125.437 C 123.006 125.236, 130.972 124.764, 130.451 123.920 C 130.093 123.342, 130.755 123.343, 132.186 123.923 C 133.459 124.439, 135.702 125.117, 137.170 125.430 C 140.389 126.115, 141.670 130.315, 140.164 135.247 C 138.416 140.970, 138.125 147.859, 139.581 149.067 C 141.448 150.617, 142.628 149.586, 143.353 145.774 C 143.695 143.973, 144.655 140.039, 145.487 137.032 C 147.360 130.263, 147.466 121.632, 145.695 120.162 C 144.977 119.566, 139.123 118.544, 132.687 117.892 C 118.684 116.472, 102.343 117.774, 93.319 121.028 C 90.118 122.182, 85.219 123.713, 82.432 124.430 C 79.644 125.148, 76.357 126.274, 75.126 126.932 C 70.632 129.338, 70.587 127.350, 74.980 120.382 C 76.486 117.995, 75.766 115, 73.686 115 C 72.929 115, 71.495 115.900, 70.500 117 M 113.500 122.464 L 110.500 123.838 113.500 123.905 C 118.052 124.008, 121.470 122.913, 119.835 121.877 C 118.051 120.746, 117.048 120.839, 113.500 122.464 M 79.500 130 C 79.160 130.550, 79.584 131, 80.441 131 C 81.298 131, 82 130.550, 82 130 C 82 129.450, 81.577 129, 81.059 129 C 80.541 129, 79.840 129.450, 79.500 130 M 99.137 148.035 C 95.638 149.654, 92.416 150.757, 91.978 150.486 C 90.364 149.489, 88 151.280, 88 153.500 C 88 156.372, 90.212 157.269, 93.759 155.836 C 95.266 155.227, 97.752 154.797, 99.282 154.882 C 100.811 154.967, 103.061 154.468, 104.282 153.773 C 105.502 153.078, 106.950 152.466, 107.500 152.413 C 108.050 152.360, 109.745 151.970, 111.267 151.546 C 113.011 151.060, 115.692 151.320, 118.515 152.249 C 122.136 153.441, 123.324 153.484, 124.710 152.470 C 126.190 151.388, 126.234 150.987, 125.035 149.542 C 120.486 144.061, 109.154 143.401, 99.137 148.035 M 141.864 159.664 C 141.053 160.641, 141.198 161.897, 142.419 164.471 C 143.685 167.137, 144.006 170.252, 143.786 177.728 L 143.500 187.500 134 188.621 C 122.778 189.946, 116.645 191.498, 114.616 193.526 C 112.169 195.974, 111.131 195.217, 110.807 190.750 C 110.560 187.324, 110.095 186.442, 108.412 186.202 C 107.264 186.038, 105.792 186.546, 105.140 187.332 C 103.441 189.378, 104.801 199.465, 107.138 202.160 C 108.162 203.340, 109 204.655, 109 205.082 C 109 205.508, 109.593 206.452, 110.319 207.179 C 111.044 207.905, 112.740 211.390, 114.088 214.923 C 117.456 223.747, 119 223.939, 119 215.534 C 119 209.424, 117.217 203.477, 114.940 201.990 C 114.510 201.709, 113.831 200.173, 113.430 198.576 C 112.778 195.979, 112.902 195.761, 114.600 196.514 C 116.721 197.455, 119.577 197.501, 125.500 196.689 C 138.704 194.879, 142.964 194.743, 143.485 196.115 C 143.774 196.877, 143.671 202.900, 143.255 209.500 L 142.500 221.500 135 222.136 C 121.192 223.307, 114.510 224.267, 113.250 225.260 C 109.805 227.975, 113.996 233.143, 117.934 231.035 C 118.998 230.466, 122.781 230, 126.341 230 C 132.320 230, 132.773 229.848, 132.290 228 C 131.926 226.609, 132.259 226, 133.383 226 C 134.333 226, 135 226.825, 135 228 C 135 229.100, 135.450 230, 136 230 C 136.550 230, 137 229.550, 137 229 C 137 227.775, 139.677 227.669, 140.416 228.864 C 140.710 229.340, 141.373 235.977, 141.890 243.614 C 142.406 251.251, 143.141 258.288, 143.521 259.250 C 144.362 261.374, 147.310 261.536, 148.960 259.548 C 150.277 257.962, 149.482 254, 147.847 254 C 146.636 254, 147.067 231.593, 148.301 230.363 C 148.742 229.924, 152.651 229.259, 156.989 228.887 C 161.326 228.514, 166.243 227.526, 167.915 226.692 C 169.587 225.858, 171.821 225.402, 172.879 225.679 C 174.357 226.065, 175.714 224.829, 178.739 220.341 C 186.958 208.148, 188 205.763, 188 199.141 C 188 193.656, 187.746 192.857, 185.750 192.074 C 180.862 190.155, 157.830 186.711, 153.500 187.251 C 151.603 187.487, 151.486 186.836, 151.219 174.565 C 151.064 167.450, 150.487 161.087, 149.937 160.424 C 148.441 158.622, 143.142 158.123, 141.864 159.664 M 157.985 193.750 C 157.972 195.248, 157.828 195.284, 156.985 194 C 156.322 192.991, 155.755 192.851, 155.250 193.573 C 154.838 194.163, 153.777 194.912, 152.893 195.237 C 150.953 195.950, 149.879 201.899, 150.010 211.219 C 150.061 214.914, 149.621 218.841, 149.030 219.944 C 148.105 221.672, 148.314 222.041, 150.533 222.598 C 151.951 222.953, 156.702 222.786, 161.092 222.226 C 165.482 221.665, 169.952 221.436, 171.024 221.717 C 172.580 222.124, 173.373 221.295, 174.952 217.611 C 176.040 215.073, 178.071 211.317, 179.465 209.266 C 182.166 205.291, 182.827 199.653, 180.750 198.310 C 179.156 197.279, 167.729 195.207, 162.500 195 C 160.300 194.913, 159.063 194.615, 159.750 194.338 C 161.491 193.635, 161.316 192, 159.500 192 C 158.675 192, 157.993 192.787, 157.985 193.750 M 190.293 244.845 C 189.120 246.912, 187.982 247.804, 187 247.427 C 186.175 247.111, 185.050 246.773, 184.500 246.676 C 183.509 246.502, 183.261 253.160, 184.078 258 C 184.497 260.485, 184.443 260.504, 175 261.148 C 169.775 261.505, 163.475 262.081, 161 262.428 C 158.525 262.775, 150.200 263.272, 142.500 263.533 C 128.466 264.008, 114.548 264.862, 108 265.648 C 106.075 265.880, 103.020 266.206, 101.210 266.374 C 97.134 266.753, 95.732 268.075, 96.165 271.135 C 96.464 273.243, 97.088 273.533, 101.921 273.808 C 106.671 274.078, 107.186 273.929, 106.082 272.599 C 104.192 270.321, 108.839 269.491, 115.732 270.875 C 123.513 272.438, 127.943 272.311, 128.636 270.507 C 129.014 269.521, 129.985 269.209, 131.495 269.588 C 132.753 269.904, 134.082 269.676, 134.450 269.081 C 135.531 267.333, 138.775 267.840, 140.283 269.994 C 141.781 272.133, 143.213 271.718, 142.324 269.402 C 142 268.558, 142.425 268, 143.393 268 C 144.277 268, 145 268.675, 145 269.500 C 145 271.571, 148.654 271.389, 150.008 269.250 C 150.802 267.997, 151.265 267.855, 151.641 268.750 C 151.930 269.438, 153.056 270, 154.142 270 C 155.229 270, 155.859 269.581, 155.543 269.069 C 154.618 267.573, 157.002 266.668, 162.434 266.455 C 165.220 266.345, 168.588 265.901, 169.919 265.467 C 171.911 264.817, 172.227 264.965, 171.712 266.307 C 170.837 268.589, 172.233 269.146, 176.939 268.394 C 179.399 268, 181 267.203, 181 266.372 C 181 265.575, 182.048 265, 183.500 265 C 185.056 265, 186 265.567, 186 266.500 C 186 267.325, 186.900 268.900, 188 270 C 189.100 271.100, 190 272.981, 190 274.179 C 190 277.997, 193.499 288, 194.834 288 C 196.598 288, 196.954 275.266, 195.384 268.298 C 191.916 252.906, 191.781 251.695, 193.084 247.746 C 194.015 244.923, 194.049 243.649, 193.213 242.813 C 192.378 241.978, 191.623 242.503, 190.293 244.845 M 163.762 268.707 C 165.006 268.946, 166.806 268.937, 167.762 268.687 C 168.718 268.437, 167.700 268.241, 165.500 268.252 C 163.300 268.263, 162.518 268.468, 163.762 268.707 M 109.500 272 C 109.160 272.550, 109.610 273, 110.500 273 C 111.390 273, 111.840 272.550, 111.500 272 C 111.160 271.450, 110.710 271, 110.500 271 C 110.290 271, 109.840 271.450, 109.500 272" stroke="none" fill="black" fill-rule="evenodd"/>
</svg>