<svg xmlns="http://www.w3.org/2000/svg" width="300" height="300" viewBox="0 0 300 300" version="1.1">
	<path d="M 206.500 45.652 C 203.200 46.428, 197.125 47.522, 193 48.083 C 188.875 48.645, 183.925 49.724, 182 50.481 C 180.075 51.238, 175.800 52.606, 172.500 53.520 C 169.200 54.434, 165.466 55.590, 164.203 56.091 C 160.925 57.389, 159 57.215, 159 55.622 C 159 54.865, 158.394 53.742, 157.654 53.128 C 156.599 52.252, 155.898 52.776, 154.404 55.562 C 152.531 59.055, 152.423 59.102, 147.691 58.454 C 143.867 57.931, 142.485 58.156, 140.941 59.553 C 138.325 61.921, 138.492 66.203, 141.313 69.114 C 144.308 72.203, 149.982 80.752, 150.064 82.300 C 150.186 84.604, 155.819 100.485, 155.909 98.781 C 156.035 96.396, 159 97.667, 159 100.107 C 159 101.148, 158.325 102, 157.500 102 C 156.675 102, 156 102.395, 156 102.878 C 156 103.360, 156.675 104.315, 157.500 105 C 158.325 105.685, 159 106.810, 159 107.500 C 159 108.190, 159.648 109.293, 160.440 109.950 C 161.570 110.888, 161.972 115.175, 162.304 129.823 C 162.737 148.918, 163.203 153.643, 164.981 156.965 C 166.478 159.762, 165.279 161.732, 160.905 163.662 C 156.732 165.503, 156.291 166.483, 158.392 169.250 C 160.374 171.861, 165.335 171.389, 170.735 168.076 C 173.356 166.468, 176.773 164.835, 178.328 164.448 C 179.884 164.061, 183.369 162.677, 186.073 161.372 C 188.778 160.067, 191.217 159, 191.495 159 C 191.773 159, 192 160.486, 192 162.303 C 192 164.443, 193.122 167.132, 195.188 169.941 L 198.377 174.277 196.241 176.006 C 194.895 177.096, 192.147 177.791, 188.803 177.888 C 185.886 177.972, 180.800 178.534, 177.500 179.137 C 174.200 179.739, 169.355 180.211, 166.733 180.185 C 164.112 180.159, 162.184 180.488, 162.449 180.917 C 162.714 181.346, 160.359 182.264, 157.215 182.958 C 154.072 183.651, 150.927 184.384, 150.227 184.586 C 148.144 185.189, 147.614 188.042, 149.277 189.705 C 150.548 190.977, 151.409 191.053, 154.063 190.128 C 155.842 189.508, 158.716 189, 160.449 189 C 162.182 189, 164.028 188.600, 164.550 188.111 C 165.073 187.622, 169.100 186.955, 173.500 186.629 C 182.236 185.981, 187.365 184.945, 190.713 183.154 C 192.232 182.341, 193.076 182.313, 193.538 183.062 C 193.901 183.649, 195.391 184.019, 196.849 183.884 C 198.307 183.748, 200.424 183.946, 201.552 184.323 C 202.811 184.744, 205.210 184.234, 207.754 183.005 C 210.036 181.902, 213.388 180.980, 215.202 180.956 C 217.016 180.932, 220.300 180.499, 222.500 179.993 C 224.700 179.487, 229.779 178.389, 233.788 177.552 C 243.067 175.614, 245.208 174.474, 244.811 171.682 C 244.587 170.110, 243.689 169.407, 241.598 169.169 C 238.927 168.864, 235.976 169.387, 216.857 173.553 C 208.244 175.429, 205 175.415, 205 173.500 C 205 170.796, 204.918 170.523, 203.402 168.211 C 201.424 165.191, 201.852 155.014, 204 153.996 C 204.825 153.604, 206.919 152.545, 208.654 151.642 C 210.389 150.739, 213.102 150, 214.682 150 C 218.018 150, 222 147.528, 222 145.457 C 222 144.670, 220.372 143.347, 218.383 142.516 C 215.122 141.153, 214.837 140.734, 215.491 138.252 C 215.890 136.738, 216.280 134.037, 216.358 132.250 C 216.436 130.463, 216.817 129, 217.205 129 C 217.592 129, 218.194 127.480, 218.543 125.623 C 218.935 123.532, 220.286 121.425, 222.088 120.093 C 225.433 117.620, 225.778 115.212, 223.187 112.431 C 222.038 111.198, 220.968 107.591, 220.265 102.586 C 218.578 90.560, 216.245 88.484, 203.076 87.287 C 197.711 86.800, 190.972 88.235, 188 90.497 C 187.175 91.125, 183.912 92.489, 180.750 93.527 C 177.588 94.565, 174.952 95.883, 174.894 96.457 C 174.609 99.267, 175.302 103.563, 176.124 104.073 C 177.692 105.048, 183.129 103.827, 183.686 102.375 C 183.977 101.619, 185.445 101, 186.950 101 C 188.454 101, 191.669 99.881, 194.093 98.513 C 200.900 94.672, 200.963 94.656, 202.866 96.379 C 205.150 98.445, 206.658 98.434, 207.830 96.340 C 208.663 94.851, 208.875 94.898, 209.890 96.794 C 210.512 97.957, 211.299 101.563, 211.638 104.808 C 212.204 110.222, 212.061 110.844, 209.905 112.354 C 208.612 113.259, 205.886 114, 203.845 114 C 201.437 114, 197.005 115.579, 191.213 118.500 C 186.306 120.975, 181.813 123, 181.229 123 C 180.644 123, 180.017 123.395, 179.833 123.878 C 179.235 125.455, 171.912 129.903, 170.690 129.432 C 168.874 128.731, 169.144 102.386, 171.006 98.633 C 172.329 95.966, 172.265 95.633, 170.103 93.883 C 167.598 91.854, 163.502 91.378, 162.500 93 C 162.160 93.550, 161.009 94, 159.941 94 C 158.419 94, 157.998 93.298, 157.992 90.750 C 157.988 88.963, 157.092 84.575, 156 81 C 152.968 71.071, 153.039 70.864, 160.587 67.576 C 164.594 65.830, 167.506 63.883, 168.023 62.603 C 168.714 60.895, 168.885 60.828, 168.937 62.250 C 169 64.005, 173 64.868, 173 63.127 C 173 62.647, 175.298 62.034, 178.107 61.764 C 180.915 61.494, 183.503 60.831, 183.857 60.290 C 184.210 59.750, 186.732 59.009, 189.460 58.644 C 192.187 58.279, 194.865 57.535, 195.410 56.990 C 195.954 56.446, 197.885 56, 199.700 56 C 202.333 56, 203 55.596, 203 54 C 203 52.004, 205.853 51.187, 207.405 52.739 C 207.812 53.145, 210.699 53.483, 213.822 53.489 C 217.914 53.497, 219.990 53.010, 221.255 51.745 C 222.719 50.281, 223.341 50.196, 225.005 51.235 C 226.102 51.921, 227 53.106, 227 53.870 C 227 54.976, 228.221 55.120, 233 54.580 C 236.542 54.179, 239 54.284, 239 54.836 C 239 55.351, 240.598 56.531, 242.552 57.458 C 247.596 59.851, 248.135 62.161, 245.960 72.067 C 242.914 85.939, 240.593 94.480, 239.773 94.833 C 239.348 95.017, 239 95.943, 239 96.892 C 239 97.841, 238.339 99.491, 237.532 100.559 C 236.724 101.626, 236.049 103.232, 236.032 104.128 C 236.014 105.023, 235.325 106.315, 234.500 107 C 233.675 107.685, 233 109.123, 233 110.196 C 233 113.594, 236.281 111.791, 239.751 106.487 C 241.545 103.744, 243.460 101.350, 244.007 101.167 C 244.553 100.983, 245 100.119, 245 99.245 C 245 98.372, 245.594 96.947, 246.320 96.079 C 247.045 95.210, 248.451 91.800, 249.444 88.500 C 250.437 85.200, 251.677 81.664, 252.201 80.641 C 252.725 79.619, 253.980 75.633, 254.990 71.784 L 256.828 64.785 254.534 58.682 C 253.272 55.326, 251.623 52.391, 250.870 52.159 C 250.116 51.928, 248.825 51.208, 248 50.559 C 245.293 48.431, 235.664 46.183, 226.500 45.541 C 221.550 45.195, 216.375 44.761, 215 44.577 C 213.625 44.393, 209.800 44.877, 206.500 45.652 M 190.667 52.667 C 189.141 54.192, 190.222 54.998, 193.750 54.965 L 197.500 54.929 195 53.500 C 192.121 51.854, 191.583 51.751, 190.667 52.667 M 182.638 56.500 C 181.900 58.424, 184.034 58.441, 186.559 56.532 C 188.424 55.121, 188.397 55.062, 185.857 55.032 C 184.403 55.014, 182.955 55.675, 182.638 56.500 M 171 60 C 171 60.550, 171.702 61, 172.559 61 C 173.416 61, 173.840 60.550, 173.500 60 C 173.160 59.450, 172.459 59, 171.941 59 C 171.423 59, 171 59.450, 171 60 M 66.398 90.334 C 63.420 92.896, 62.207 98.317, 62.073 109.668 C 61.965 118.790, 61.797 119, 54.584 119 C 50.679 119, 47.663 119.544, 46.441 120.468 C 45.374 121.276, 43.770 121.951, 42.877 121.968 C 41.985 121.986, 39.176 122.919, 36.635 124.043 C 31.378 126.369, 30.036 129.259, 32.005 134.012 C 32.682 135.647, 33.028 138.071, 32.775 139.399 C 32.521 140.726, 32.926 145.567, 33.675 150.156 C 34.423 154.745, 35.060 159.175, 35.090 160 C 35.527 172.064, 37.432 186.773, 38.749 188.250 C 40.729 190.469, 42.226 190.469, 43.613 188.250 C 44.469 186.880, 46.094 186.500, 51.103 186.500 L 57.500 186.500 58.026 200 C 58.316 207.425, 58.174 214.992, 57.711 216.816 C 57.248 218.639, 56.789 223.046, 56.690 226.608 C 56.522 232.653, 56.343 233.120, 54.005 233.603 C 52.627 233.888, 50.764 234.515, 49.865 234.997 C 48.966 235.479, 47.336 235.639, 46.243 235.353 C 45.151 235.068, 41.386 235.925, 37.878 237.259 C 34.370 238.592, 30.150 240.100, 28.500 240.610 C 26.124 241.343, 25.437 242.182, 25.196 244.640 C 24.787 248.821, 27.711 250.076, 30.328 246.843 C 32.125 244.625, 32.255 244.610, 35.168 246.282 C 38.857 248.399, 41.876 248.487, 42.638 246.500 C 42.966 245.645, 44.458 245, 46.107 245 C 47.698 245, 49.892 244.108, 50.982 243.018 C 52.565 241.435, 53.471 241.229, 55.482 241.993 C 56.903 242.533, 58 243.746, 58 244.775 C 58 249.474, 62.940 249.648, 64.690 245.010 C 65.589 242.629, 66.891 241.805, 72.490 240.076 C 76.186 238.934, 80.079 238, 81.141 238 C 83.029 238, 87.262 235.706, 89.750 233.334 C 91.436 231.727, 91.325 229.515, 89.481 227.984 C 88.243 226.957, 87.628 227.027, 86.153 228.362 C 85.157 229.263, 82.987 230, 81.330 230 C 79.673 230, 76.109 230.670, 73.409 231.489 C 63.594 234.467, 64 235.008, 64 218.942 C 64 206.857, 64.872 196.219, 66.495 188.490 C 67.197 185.148, 72.114 183.003, 79.154 182.968 C 83.142 182.948, 86.221 182.391, 87.441 181.468 C 88.509 180.661, 90.075 180, 90.922 180 C 91.769 180, 94.334 177.989, 96.624 175.531 C 102.176 169.569, 104.412 160.310, 104.176 144.256 C 103.981 130.967, 102.468 127.132, 95.778 122.973 C 89.534 119.093, 84.829 117.824, 77.768 118.118 L 71.500 118.379 71.203 114.401 C 71.039 112.214, 71.408 107.741, 72.022 104.462 C 74.224 92.699, 74.267 91.410, 72.518 89.661 C 70.336 87.479, 69.626 87.557, 66.398 90.334 M 244.079 93.583 C 244.127 94.748, 244.364 94.985, 244.683 94.188 C 244.972 93.466, 244.936 92.603, 244.604 92.271 C 244.272 91.939, 244.036 92.529, 244.079 93.583 M 203.500 123 C 202.400 123.473, 200.440 123.891, 199.144 123.930 C 197.848 123.968, 195.903 125.125, 194.821 126.500 C 193.740 127.875, 192.197 129, 191.392 129 C 189.625 129, 184.810 131.958, 183.700 133.726 C 183.260 134.427, 182.303 135, 181.573 135 C 180.842 135, 179.724 135.628, 179.087 136.395 C 178.450 137.163, 176.415 138.075, 174.565 138.422 C 170.039 139.271, 168.619 141.269, 168.967 146.298 C 169.127 148.609, 169.218 151.738, 169.169 153.250 C 169.101 155.362, 169.544 156, 171.077 156 C 173.491 156, 200.106 147.136, 201.450 145.885 C 201.972 145.398, 203.124 145, 204.009 145 C 206.908 145, 209.182 142.464, 209.437 138.945 C 209.574 137.050, 210.040 133.140, 210.471 130.257 C 211.571 122.905, 209.278 120.517, 203.500 123 M 41.513 128.622 C 39.693 132.979, 39.524 143.280, 41.222 146.316 C 42.082 147.852, 42.361 153.356, 42.164 164.861 L 41.882 181.221 46.191 180.572 C 48.561 180.215, 52.617 179.673, 55.205 179.368 C 57.793 179.063, 60.296 178.293, 60.767 177.657 C 62.630 175.142, 64.187 165.538, 63.919 158.217 C 63.764 153.972, 64 148.779, 64.444 146.675 C 64.976 144.153, 64.867 142.467, 64.125 141.725 C 63.506 141.106, 63 138.440, 63 135.800 C 63 130.310, 60.133 126.271, 57.173 127.591 C 53.655 129.158, 47.928 128.733, 46.909 126.829 C 45.366 123.947, 43.161 124.680, 41.513 128.622 M 74.399 127.976 C 72.123 128.896, 72.001 129.906, 70.369 161.282 C 69.755 173.088, 69.848 174.169, 71.591 175.443 C 72.629 176.202, 73.812 176.616, 74.220 176.364 C 74.629 176.111, 77.337 175.732, 80.239 175.521 C 83.141 175.309, 87.593 174.246, 90.132 173.158 L 94.748 171.179 95.465 163.528 C 95.860 159.320, 95.882 153.289, 95.514 150.125 C 94.981 145.529, 95.164 144.109, 96.423 143.064 C 98.414 141.412, 98.449 138.618, 96.500 137 C 95.675 136.315, 95 134.887, 95 133.827 C 95 132.527, 93.777 131.417, 91.250 130.424 C 89.188 129.613, 86.719 128.511, 85.764 127.975 C 83.671 126.800, 77.306 126.801, 74.399 127.976 M 96.510 145.984 C 96.165 146.543, 96.326 147, 96.868 147 C 97.410 147, 98.059 147.787, 98.311 148.750 C 98.664 150.101, 98.794 150.001, 98.884 148.309 C 99.012 145.883, 97.492 144.394, 96.510 145.984 M 195.930 189.065 C 194.593 190.226, 192.037 191.789, 190.250 192.537 C 188.320 193.345, 186.987 194.629, 186.968 195.699 C 186.951 196.690, 186.276 198.374, 185.468 199.441 C 184.661 200.509, 184 202.466, 184 203.790 C 184 206.293, 183.101 208.604, 177.402 220.753 C 175.531 224.742, 174 228.439, 174 228.969 C 174 229.898, 171.688 235.656, 169.877 239.237 C 168.191 242.571, 166.029 249.516, 166.015 251.643 C 165.995 254.474, 168.515 255.342, 170.626 253.231 C 172.512 251.345, 177 241.707, 177 239.543 C 177 238.773, 177.687 237.456, 178.527 236.616 C 180.576 234.567, 193.057 209.743, 195.232 203.390 C 196.185 200.608, 198.148 196.587, 199.595 194.456 C 201.456 191.713, 201.952 190.147, 201.291 189.099 C 199.834 186.790, 198.558 186.782, 195.930 189.065 M 98.500 189.713 C 97.400 189.978, 96.090 190.583, 95.588 191.059 C 94.159 192.414, 94.838 216.012, 96.406 219.500 C 104.389 237.252, 106.675 240.010, 113.385 239.985 C 117.936 239.968, 119.344 239.321, 120.264 236.823 C 121.148 234.421, 118.782 232.894, 115.265 233.597 C 110.460 234.558, 108.209 232.708, 107.540 227.247 C 107.221 224.636, 106.268 220.250, 105.424 217.500 C 104.314 213.885, 104.002 209.591, 104.297 202 C 104.521 196.225, 104.498 190.938, 104.246 190.250 C 103.781 188.987, 102.152 188.835, 98.500 189.713 M 204.685 220.096 C 203.899 223.101, 204.836 224.864, 208.121 226.563 C 209.705 227.381, 211 228.856, 211 229.840 C 211 231.902, 216.761 235, 220.593 235 C 221.982 235, 222.882 235.382, 222.593 235.849 C 222.304 236.316, 223.290 237.779, 224.784 239.099 C 226.982 241.042, 228.666 241.519, 233.614 241.598 C 237.544 241.661, 240.571 242.287, 242.087 243.348 C 243.384 244.257, 245.052 245, 245.794 245 C 246.536 245, 247.818 245.675, 248.643 246.500 C 249.764 247.621, 249.816 248, 248.849 248 C 248.137 248, 248.509 248.668, 249.675 249.485 C 250.841 250.301, 253.528 250.923, 255.647 250.865 C 257.766 250.808, 263.775 250.886, 269 251.038 C 279.441 251.341, 284.281 249.840, 285.528 245.910 C 286.488 242.887, 284.619 241.343, 281.770 242.807 C 278.607 244.433, 272.243 244.936, 268.579 243.849 C 266.885 243.348, 261.914 242.475, 257.532 241.910 C 253.150 241.345, 249.100 240.505, 248.532 240.044 C 247.964 239.582, 245.220 238.532, 242.432 237.710 C 233.430 235.056, 218.496 226.962, 214.500 222.571 C 212.811 220.715, 208.149 218, 206.652 218 C 205.872 218, 204.987 218.943, 204.685 220.096 M 43 243.059 C 43 243.641, 43.450 243.840, 44 243.500 C 44.550 243.160, 45 242.684, 45 242.441 C 45 242.198, 44.550 242, 44 242 C 43.450 242, 43 242.477, 43 243.059 M 240.909 247.077 C 239.884 247.727, 240.249 247.974, 242.250 247.985 C 245.236 248.001, 245.774 247.511, 243.659 246.700 C 242.922 246.417, 241.684 246.587, 240.909 247.077" stroke="none" fill="black" fill-rule="evenodd"/>
</svg>