<svg xmlns="http://www.w3.org/2000/svg" width="300" height="300" viewBox="0 0 300 300" version="1.1">
	<path d="M 76.450 16.157 C 75.947 17.741, 76.369 18.770, 78.039 20.029 C 79.329 21.003, 80.072 22.371, 79.756 23.194 C 79.450 23.991, 79.995 25.140, 80.967 25.748 C 82.822 26.906, 90.084 29.110, 93.500 29.552 C 101.610 30.600, 108.042 32.009, 109.836 33.129 C 111.678 34.280, 112.145 34.196, 113.457 32.475 C 114.851 30.649, 114.722 30.291, 111.754 27.736 C 107.801 24.334, 99.640 21.196, 92.040 20.157 C 87.927 19.595, 85.501 18.618, 83.418 16.687 C 79.918 13.441, 77.373 13.248, 76.450 16.157 M 223.557 26.223 C 222.701 27.445, 222 29.231, 222 30.191 C 222 31.360, 221.486 31.740, 220.444 31.340 C 218.996 30.785, 215 33.942, 215 35.640 C 215 36.039, 209.970 41.248, 203.823 47.216 C 192.377 58.327, 184.052 65, 181.633 65 C 180.883 65, 179.126 65.900, 177.727 67 C 176.329 68.100, 174.777 69, 174.279 69 C 173.782 69, 172.146 70.282, 170.645 71.849 L 167.916 74.697 169.078 90.599 C 170.273 106.952, 169.902 131.428, 168.110 154.500 C 167.554 161.650, 166.901 173.201, 166.658 180.170 C 166.416 187.138, 165.831 193.438, 165.359 194.170 C 164.886 194.901, 164.173 208.550, 163.774 224.500 C 163.374 240.450, 162.772 258.824, 162.436 265.331 C 162.099 271.838, 162.097 278.251, 162.431 279.581 C 163.291 283.008, 166 282.718, 166 279.200 C 166 276.554, 167.533 274, 169.121 274 C 169.517 274, 170.138 275.350, 170.500 277 C 170.862 278.650, 171.526 280, 171.975 280 C 172.423 280, 174.020 277.638, 175.524 274.750 C 177.027 271.863, 178.598 269.275, 179.015 269 C 179.432 268.725, 182.311 263.486, 185.414 257.358 C 189.275 249.731, 192.811 244.367, 196.621 240.358 C 205.056 231.482, 214 219.159, 214 216.413 C 214 211.615, 213.109 212.286, 192.966 232.259 C 184.087 241.063, 181.393 244.461, 178.142 250.956 C 173.013 261.204, 168.034 268.434, 166.893 267.293 C 166.376 266.776, 166.394 263.082, 166.935 258.453 C 167.446 254.079, 167.811 240.600, 167.746 228.500 C 167.666 213.562, 168.018 205.341, 168.845 202.890 C 169.515 200.905, 170.510 189.205, 171.057 176.890 C 171.604 164.576, 172.457 148.200, 172.951 140.500 C 173.916 125.486, 173.312 106.237, 171.817 104.339 C 171.253 103.622, 171.304 102.930, 171.951 102.530 C 172.528 102.174, 173 98.669, 173 94.741 C 173 85.754, 174.897 86.780, 175.499 96.092 C 177.132 121.318, 177.324 123, 178.578 123 C 179.580 123, 179.935 117.949, 180.182 100.151 C 180.424 82.786, 180.825 76.912, 181.853 75.674 C 182.598 74.779, 185.653 72.849, 188.643 71.386 C 191.634 69.923, 195.371 67.160, 196.948 65.247 L 199.816 61.768 202.412 63.634 C 204.256 64.960, 204.838 66.079, 204.421 67.500 C 202.423 74.304, 203.094 85.847, 205.515 86.311 C 206.057 86.415, 206.751 84.475, 207.057 82 C 207.581 77.765, 207.676 77.647, 208.668 80 C 209.248 81.375, 210.232 84.750, 210.855 87.500 C 211.478 90.250, 213.092 97.225, 214.441 103 C 217.007 113.986, 216.695 116.539, 213.064 114.272 C 211.585 113.348, 211.070 113.376, 210.676 114.402 C 210.400 115.121, 208.589 115.967, 206.652 116.282 C 203.115 116.856, 193.382 121.406, 185 126.404 C 182.525 127.880, 179.713 129.346, 178.750 129.661 C 177.437 130.090, 177 131.327, 177 134.617 C 177 138.960, 177.032 139, 180.500 139 C 182.425 139, 184 138.585, 184 138.078 C 184 137.570, 185.575 136.635, 187.500 136 C 189.425 135.365, 191 134.430, 191 133.922 C 191 133.415, 192.093 133, 193.429 133 C 194.764 133, 196.452 132.431, 197.179 131.735 C 198.293 130.669, 202.241 128.591, 210.012 124.982 C 210.844 124.596, 212.615 124.683, 213.947 125.176 C 215.279 125.669, 216.928 125.858, 217.612 125.596 C 218.295 125.333, 219.314 125.674, 219.877 126.352 C 221.089 127.812, 223.831 139.230, 224.835 147 C 225.226 150.025, 225.878 153.028, 226.284 153.673 C 226.690 154.318, 227.469 157.243, 228.015 160.173 C 228.996 165.437, 230.046 169.310, 233.930 182 C 237.339 193.138, 239.107 197.471, 240.579 198.300 C 241.380 198.750, 242 200.612, 242 202.563 C 242 204.468, 242.433 206.809, 242.962 207.764 C 245.067 211.560, 249 221.141, 249 222.471 C 249 223.247, 249.456 224.164, 250.014 224.509 C 250.572 224.854, 251.987 227.018, 253.159 229.318 C 254.330 231.618, 256.435 235.006, 257.837 236.847 C 259.239 238.688, 260.452 241.092, 260.532 242.189 C 260.613 243.286, 261.139 244.480, 261.700 244.842 C 262.262 245.204, 263.418 246.861, 264.270 248.525 C 265.657 251.234, 271.006 259.701, 274.170 264.196 C 274.827 265.129, 275.700 265.685, 276.111 265.432 C 276.521 265.178, 277.002 265.990, 277.179 267.235 C 277.415 268.899, 278.164 269.500, 280 269.500 C 282.490 269.500, 282.503 269.452, 283.180 257.500 C 284.002 242.995, 284.239 211.906, 283.533 211.200 C 282.445 210.112, 280.054 218.082, 279.506 224.619 C 279.189 228.404, 278.410 233.919, 277.775 236.875 C 276.759 241.605, 276.823 242.398, 278.310 243.485 C 280.604 245.162, 280.442 247, 278 247 C 276.533 247, 276 247.667, 276 249.500 C 276 253.195, 272.746 252.734, 270.707 248.750 C 269.792 246.963, 267.911 243.700, 266.528 241.500 C 265.144 239.300, 263.456 236.375, 262.777 235 C 262.097 233.625, 261.281 232.275, 260.965 232 C 259.761 230.955, 252 216.768, 252 215.612 C 252 214.945, 251.585 213.972, 251.079 213.450 C 250.572 212.927, 249.184 209.575, 247.995 206 C 246.806 202.425, 245.135 197.925, 244.284 196 C 239.390 184.942, 237.012 177.860, 233.536 164 C 232.640 160.425, 231.252 155.415, 230.453 152.866 C 229.654 150.317, 229 147.214, 229 145.970 C 229 144.726, 227.998 139.676, 226.774 134.746 L 224.548 125.784 226.737 124.012 C 227.941 123.037, 231.530 121.940, 234.713 121.573 C 244.681 120.424, 247.866 118.304, 246.428 113.774 C 245.986 112.381, 245.201 111.982, 243.656 112.365 C 239.806 113.320, 222.892 113.292, 221.929 112.329 C 220.680 111.080, 217.892 100.840, 216.939 94 C 216.517 90.975, 215.436 85.350, 214.536 81.500 C 213.044 75.123, 213.065 71.979, 214.641 65.394 C 215.300 62.640, 212.421 59.731, 209.847 60.549 C 208.778 60.888, 207.226 60.603, 206.398 59.915 C 205.095 58.834, 205.435 58.115, 208.916 54.583 C 217.258 46.118, 223.990 38.440, 224.553 36.750 C 224.928 35.621, 226.161 35, 228.028 35 C 231.033 35, 235 31.726, 235 29.246 C 235 28.488, 234.534 26.998, 233.965 25.934 C 232.427 23.060, 225.640 23.248, 223.557 26.223 M 110.823 64.510 C 109.189 66.145, 75.772 67.026, 67.270 65.659 C 62.229 64.848, 61.997 64.913, 60.831 67.471 C 59.731 69.887, 59.885 70.339, 62.561 72.526 C 66.945 76.110, 72.145 75.712, 68.750 72.053 C 67.727 70.951, 67.833 70.823, 69.332 71.353 C 70.339 71.709, 72.117 72, 73.282 72 C 74.929 72, 75.133 72.267, 74.200 73.200 C 71.770 75.630, 73.211 76.066, 82.750 75.786 C 91.999 75.515, 92.516 75.384, 92.820 73.250 C 93.094 71.320, 93.735 71.004, 97.320 71.030 C 100.645 71.055, 101.142 71.269, 99.750 72.080 C 98.712 72.685, 98 74.294, 98 76.036 C 98 80.254, 85.873 103.030, 78.585 112.500 C 70.816 122.594, 66.968 128.383, 64.791 133.250 C 64.115 134.762, 63.210 136, 62.781 136 C 62.351 136, 62 136.614, 62 137.365 C 62 138.116, 61.184 139.803, 60.186 141.115 C 59.188 142.427, 57.350 145.975, 56.101 149 C 53.014 156.480, 49.763 163.394, 49.049 164 C 48.724 164.275, 47.923 165.625, 47.267 167 C 46.612 168.375, 44.493 172.200, 42.559 175.500 C 40.625 178.800, 38.775 182.175, 38.448 183 C 38.121 183.825, 36.438 187.425, 34.708 191 C 29.949 200.835, 28.966 204.067, 30.093 206.174 C 30.631 207.178, 31.603 208, 32.253 208 C 33.705 208, 38 203.138, 38 201.494 C 38 200.838, 39.263 198.545, 40.808 196.400 C 42.352 194.255, 45.554 188.450, 47.923 183.500 C 50.293 178.550, 53.328 173.036, 54.669 171.247 C 56.009 169.458, 57.609 166.533, 58.223 164.747 C 58.838 162.961, 60.342 159.925, 61.566 158 C 62.790 156.075, 64.321 152.819, 64.968 150.764 C 65.616 148.709, 66.563 146.770, 67.073 146.455 C 67.583 146.140, 68 145.058, 68 144.052 C 68 143.045, 68.842 141.182, 69.871 139.911 L 71.742 137.600 73.371 140.751 C 74.267 142.483, 74.997 146.061, 74.993 148.700 C 74.990 151.340, 75.429 156.875, 75.969 161 C 78.263 178.508, 80.089 200.795, 79.442 203.373 C 79.059 204.903, 79.200 207.132, 79.757 208.327 C 81.229 211.487, 83 228.808, 82.340 233.604 C 81.859 237.106, 82.064 237.784, 83.743 238.222 C 85.486 238.678, 85.792 239.970, 86.436 249.586 C 87.234 261.496, 88.047 264, 91.115 264 C 92.866 264, 93.064 263.570, 92.500 261 C 91.704 257.376, 92.471 257.120, 94.218 260.426 L 95.500 262.852 98.750 259.940 C 102.518 256.564, 102.662 255.909, 100.135 253.622 C 98.882 252.488, 98.055 249.891, 97.618 245.717 C 97.260 242.298, 96.055 235.900, 94.940 231.500 C 92.874 223.350, 90.734 210.514, 90.687 206 C 90.673 204.625, 90.717 201.250, 90.786 198.500 C 90.855 195.750, 90.409 187.271, 89.796 179.657 C 88.527 163.895, 88.762 163.282, 95.120 165.779 C 99.372 167.450, 101.010 166.923, 99.020 164.524 C 97.991 163.285, 98.011 163.001, 99.128 163.004 C 101.388 163.010, 107 166.862, 107 168.408 C 107 170.200, 125.182 176.090, 132.849 176.781 C 137.676 177.217, 138.163 177.081, 137.845 175.382 C 137.411 173.068, 124.774 166.638, 110.500 161.467 C 107.750 160.471, 105.050 159.353, 104.500 158.983 C 103.950 158.613, 101.250 157.712, 98.500 156.981 C 88.967 154.446, 86.440 150.880, 91.750 147.458 C 93.263 146.483, 94.860 145.081, 95.300 144.343 C 95.740 143.604, 96.752 143, 97.550 143 C 98.347 143, 99 142.626, 99 142.168 C 99 141.461, 105.161 136.955, 110.853 133.500 C 111.759 132.950, 112.860 131.938, 113.300 131.250 C 113.740 130.563, 114.653 130, 115.329 130 C 116.005 130, 119.438 127.094, 122.958 123.542 C 128.976 117.471, 129.289 116.929, 128.180 114.495 C 127.531 113.071, 127 110.802, 127 109.453 C 127 108.104, 126.627 107, 126.170 107 C 125.714 107, 123.124 109.138, 120.415 111.750 C 108.935 122.821, 96.455 133, 94.361 133 C 93.999 133, 92.172 134.575, 90.303 136.500 C 86.347 140.573, 84.704 140.844, 82.557 137.777 C 80.593 134.974, 80.582 131.325, 82.525 127.598 C 83.358 126.003, 83.810 123.976, 83.530 123.094 C 83.250 122.211, 84.811 118.800, 87.007 115.496 C 89.200 112.198, 90.995 108.919, 90.997 108.208 C 90.999 107.497, 91.455 106.372, 92.012 105.708 C 95.850 101.127, 99.725 95.594, 103.013 90 C 105.114 86.425, 107.764 82.600, 108.901 81.500 C 116.976 73.690, 117.017 73.628, 116.420 70 C 116.103 68.075, 115.668 65.938, 115.453 65.250 C 115.070 64.024, 111.828 63.506, 110.823 64.510 M 54.187 73.242 C 54.544 76.938, 58 78.673, 58 75.155 C 58 72.068, 56.929 70, 55.330 70 C 54.290 70, 53.963 70.927, 54.187 73.242 M 207.079 93.583 C 207.127 94.748, 207.364 94.985, 207.683 94.188 C 207.972 93.466, 207.936 92.603, 207.604 92.271 C 207.272 91.939, 207.036 92.529, 207.079 93.583 M 208.040 100.583 C 208.018 102.829, 208.338 104.999, 208.750 105.405 C 209.162 105.811, 210.066 107.574, 210.758 109.322 C 211.945 112.321, 211.984 112.195, 211.451 107.080 C 211.140 104.100, 210.255 100.500, 209.483 99.080 C 208.085 96.509, 208.080 96.514, 208.040 100.583 M 131.377 105.744 C 129.568 106.963, 130.910 113, 132.991 113 C 135.423 113, 137.218 110.568, 136.827 107.805 C 136.491 105.435, 133.511 104.308, 131.377 105.744 M 215 131.819 C 215 133.503, 215.457 135.165, 216.016 135.510 C 216.575 135.856, 216.774 136.556, 216.458 137.067 C 216.143 137.578, 216.632 139.010, 217.547 140.248 C 219.208 142.498, 219.209 142.498, 218.520 139.500 C 218.140 137.850, 217.847 135.300, 217.868 133.834 C 217.889 132.367, 217.252 130.624, 216.453 129.961 C 215.236 128.951, 215 129.253, 215 131.819 M 219.583 147.866 C 219.152 148.563, 219.070 149.403, 219.400 149.733 C 220.295 150.628, 221.271 149.312, 220.787 147.862 C 220.449 146.846, 220.213 146.846, 219.583 147.866 M 59.082 153.327 C 57.527 156.255, 57.835 157.338, 59.866 156.083 C 60.586 155.638, 61.023 154.235, 60.837 152.965 C 60.502 150.668, 60.493 150.669, 59.082 153.327 M 221.070 156.191 C 221.032 158.221, 221.450 160.160, 222 160.500 C 223.207 161.246, 223.207 157.308, 222 154.500 C 221.307 152.888, 221.127 153.216, 221.070 156.191 M 89 160.378 C 89 160.585, 89.675 161.315, 90.500 162 C 91.729 163.020, 92 162.951, 92 161.622 C 92 160.730, 91.325 160, 90.500 160 C 89.675 160, 89 160.170, 89 160.378 M 81.015 166.191 C 81.007 168.221, 81.450 170.160, 82 170.500 C 83.290 171.297, 83.290 165.996, 82 164 C 81.277 162.882, 81.027 163.440, 81.015 166.191 M 224.503 169.350 C 225.011 174.875, 227.868 182.693, 227.960 178.809 C 227.982 177.879, 227.550 176.840, 227 176.500 C 226.450 176.160, 225.968 173.996, 225.930 171.691 C 225.891 169.386, 225.433 166.600, 224.913 165.500 C 224.253 164.106, 224.129 165.272, 224.503 169.350 M 116 170 C 116 170.550, 116.477 171, 117.059 171 C 117.641 171, 117.840 170.550, 117.500 170 C 117.160 169.450, 116.684 169, 116.441 169 C 116.198 169, 116 169.450, 116 170 M 82.039 176.816 C 82.018 179.189, 82.462 181.994, 83.026 183.048 C 83.590 184.102, 84.355 189.360, 84.725 194.732 C 85.298 203.022, 85.511 203.895, 86.134 200.500 C 86.989 195.846, 85.212 179.871, 83.354 175.500 L 82.078 172.500 82.039 176.816 M 85.512 215.962 C 85.169 217.041, 85.342 218.770, 85.894 219.803 C 86.447 220.836, 86.898 222.540, 86.895 223.591 C 86.889 226.228, 88.609 233.942, 89.373 234.706 C 90.836 236.169, 90.882 233.938, 89.525 227.449 C 88.261 221.406, 88.261 220.433, 89.532 219.722 C 90.791 219.018, 90.770 218.578, 89.378 216.454 C 87.435 213.489, 86.341 213.349, 85.512 215.962 M 89.311 240.529 C 90.251 246.324, 92.199 247.529, 91.813 242.078 C 91.623 239.393, 90.949 237.474, 90.097 237.194 C 88.992 236.829, 88.825 237.536, 89.311 240.529 M 178 258 C 178 259.867, 178.267 260.133, 179.200 259.200 C 180.133 258.267, 180.133 257.733, 179.200 256.800 C 178.267 255.867, 178 256.133, 178 258 M 234 257.204 C 229.875 257.688, 222.513 258.324, 217.640 258.616 L 208.780 259.148 209.336 261.928 C 209.641 263.457, 209.415 265.185, 208.833 265.767 C 207.619 266.981, 208.542 269.001, 210.309 268.997 C 210.964 268.996, 212.400 267.647, 213.500 266 C 215.118 263.577, 216.168 263.025, 219 263.105 L 222.500 263.204 219.218 264.256 C 213.707 266.022, 215.985 267.538, 223.543 267.133 C 232.801 266.638, 245.383 262.873, 245.859 260.455 C 246.180 258.820, 243.467 255.754, 242.059 256.162 C 241.751 256.251, 238.125 256.720, 234 257.204 M 201 264.427 C 201 265.354, 201.855 266, 203.083 266 C 205.520 266, 205.176 263.663, 202.667 263.177 C 201.680 262.985, 201 263.495, 201 264.427" stroke="none" fill="black" fill-rule="evenodd"/>
</svg>