<svg xmlns="http://www.w3.org/2000/svg" width="300" height="300" viewBox="0 0 300 300" version="1.1">
	<path d="M 91.797 18.680 C 90.041 19.143, 89.637 20.028, 88.459 26 C 88.080 27.925, 87.259 30.132, 86.635 30.904 C 86.011 31.676, 85.471 34.826, 85.436 37.904 C 85.376 43.202, 83.957 47.908, 76.967 66 C 75.798 69.025, 74.390 73.022, 73.838 74.881 C 73.285 76.741, 71.971 79.188, 70.917 80.320 C 69.863 81.451, 69 82.805, 69 83.329 C 69 84.352, 65.893 91.313, 62.897 97 C 61.883 98.925, 59.354 103.875, 57.277 108 C 55.200 112.125, 52.913 115.962, 52.196 116.526 C 50.644 117.747, 51.521 120.602, 53.704 121.440 C 55.494 122.127, 57.796 120.478, 59.147 117.541 C 60.270 115.099, 61.343 113.318, 66.261 105.731 C 68.317 102.557, 69.996 99.632, 69.991 99.231 C 69.986 98.829, 71.990 94.450, 74.445 89.500 C 79.278 79.754, 85 65.592, 85 63.377 C 85 60.190, 87.959 62.390, 90.544 67.500 C 92.737 71.835, 93.829 73, 95.695 73 C 98.839 73, 99.631 70.546, 97.756 66.614 C 96.915 64.851, 95.449 59.908, 94.497 55.630 C 92.861 48.276, 92.860 47.458, 94.477 40.675 C 95.418 36.729, 96.772 32.577, 97.487 31.448 C 98.622 29.656, 99.530 22.933, 99.134 19.250 C 99.004 18.039, 95.319 17.753, 91.797 18.680 M 264 30.021 C 263.175 30.543, 261.113 30.976, 259.417 30.985 C 257.721 30.993, 256.023 31.311, 255.643 31.691 C 255.263 32.070, 253.726 32.433, 252.226 32.496 C 250.727 32.559, 246.800 32.705, 243.500 32.821 C 236.918 33.051, 233.546 34.384, 235.824 35.855 C 236.884 36.539, 236.788 37.069, 235.343 38.514 C 233.603 40.254, 233.736 40.294, 239.019 39.620 C 251.029 38.088, 265.198 34.684, 267.457 32.789 C 269.021 31.477, 265.789 28.889, 264 30.021 M 227.517 35.611 C 225.846 36.833, 225.821 37, 227.309 37 C 228.239 37, 229 37.505, 229 38.122 C 229 38.898, 229.464 38.860, 230.500 38 C 233.561 35.460, 230.775 33.229, 227.517 35.611 M 218 40.417 C 218 41.288, 218.713 42, 219.583 42 C 220.454 42, 220.989 41.466, 220.771 40.813 C 220.153 38.958, 218 38.651, 218 40.417 M 223.533 39.947 C 222.653 41.370, 223.775 43, 225.632 43 C 226.508 43, 227.010 42.297, 226.823 41.333 C 226.434 39.324, 224.437 38.484, 223.533 39.947 M 160.886 48.187 C 160.823 48.359, 160.598 52.759, 160.387 57.964 C 160.114 64.656, 159.559 67.869, 158.492 68.936 C 156.880 70.548, 147.615 72.830, 142.250 72.936 C 140.406 72.972, 139 73.524, 139 74.212 C 139 74.879, 137.802 76.380, 136.339 77.547 C 131.978 81.024, 135.959 83.858, 140.441 80.468 C 141.509 79.661, 143.196 79, 144.191 79 C 145.186 79, 146 78.550, 146 78 C 146 77.450, 145.287 77, 144.417 77 C 141.998 77, 143.340 74.546, 145.969 74.162 C 147.739 73.903, 148.139 74.197, 147.672 75.412 C 146.728 77.872, 152.522 77.520, 154.280 75.011 C 155.651 73.053, 155.694 73.060, 156.962 75.429 C 157.763 76.925, 157.992 79.100, 157.568 81.169 C 157.192 83.001, 156.348 87.726, 155.692 91.669 C 155.036 95.612, 154.162 99.174, 153.750 99.586 C 153.338 99.997, 153 103.665, 153 107.738 C 153 112.777, 152.549 115.593, 151.590 116.553 C 150.627 117.516, 146.263 118.207, 137.840 118.732 L 125.500 119.500 125.500 123 C 125.500 125.993, 125.862 126.540, 128 126.776 C 129.375 126.928, 132.485 126.470, 134.911 125.758 C 138.993 124.560, 139.199 124.342, 137.686 122.829 C 136.289 121.432, 136.264 121.113, 137.510 120.634 C 138.334 120.318, 139.395 120.869, 139.947 121.901 C 140.812 123.517, 141.505 123.612, 145.962 122.731 C 148.733 122.183, 151 121.387, 151 120.961 C 151 120.535, 151.902 120.423, 153.005 120.712 C 154.108 121, 155.571 120.784, 156.255 120.231 C 156.940 119.678, 159.508 118.895, 161.962 118.489 C 164.415 118.084, 167.115 117.385, 167.962 116.936 C 168.808 116.487, 171.493 115.530, 173.928 114.809 C 183.199 112.068, 178.714 108.148, 168.367 109.950 C 164.824 110.567, 161.483 110.798, 160.942 110.464 C 159.425 109.527, 160.975 97.369, 163.550 90 C 164.800 86.425, 166.138 81.475, 166.525 79 C 166.911 76.525, 167.990 73.825, 168.923 73 C 171.908 70.358, 177.080 68, 179.890 68 C 181.390 68, 183.491 67.339, 184.559 66.532 C 185.626 65.724, 187.239 65.049, 188.143 65.032 C 190.411 64.988, 191.198 62.409, 189.398 60.915 C 188.275 59.983, 187.634 59.966, 186.758 60.842 C 186.121 61.479, 184.170 62, 182.422 62 C 180.675 62, 178.685 62.675, 178 63.500 C 177.315 64.325, 175.712 65, 174.437 65 C 173.161 65, 171.826 65.472, 171.470 66.049 C 171.027 66.766, 170.378 66.728, 169.416 65.930 C 168.397 65.085, 168.159 63.351, 168.551 59.632 C 169.364 51.924, 168.084 48.570, 164.184 48.187 C 162.433 48.014, 160.949 48.014, 160.886 48.187 M 279.576 54.877 C 278.896 55.978, 260.562 65, 259.006 65 C 258.374 65, 257.182 65.675, 256.357 66.500 C 255.024 67.833, 255.136 68, 257.370 68 C 258.751 68, 260.160 67.550, 260.500 67 C 260.840 66.450, 261.541 66, 262.059 66 C 262.577 66, 263 66.450, 263 67 C 263 67.550, 262.325 68, 261.500 68 C 260.675 68, 260 68.724, 260 69.608 C 260 70.862, 260.607 71.066, 262.750 70.534 C 264.262 70.159, 265.650 69.435, 265.833 68.926 C 266.017 68.417, 266.804 68, 267.583 68 C 268.363 68, 269 67.586, 269 67.079 C 269 66.573, 270.462 65.840, 272.250 65.450 C 277.222 64.365, 285.211 57.714, 284.323 55.399 C 283.731 53.855, 280.432 53.493, 279.576 54.877 M 248 69.500 C 247.315 70.325, 245.270 71, 243.454 71 C 241.392 71, 239.038 71.938, 237.182 73.500 C 235.548 74.875, 233.376 76.010, 232.356 76.022 C 231.335 76.034, 229.375 76.924, 228 78 C 226.625 79.076, 224.288 79.966, 222.807 79.978 C 221.270 79.990, 219.514 80.855, 218.718 81.993 C 217.950 83.089, 215.787 84.248, 213.911 84.569 C 207.777 85.617, 203.101 88.150, 201.777 91.143 C 200.420 94.207, 197.581 94.957, 196.638 92.500 C 196.322 91.675, 195.149 91, 194.031 91 C 192.547 91, 192 91.654, 192 93.429 C 192 100.422, 201.041 100.915, 207.821 94.291 C 208.548 93.581, 209.963 93, 210.966 93 C 211.969 93, 213.850 91.883, 215.145 90.517 C 216.440 89.152, 218.085 88.027, 218.800 88.017 C 220.483 87.995, 226.011 85.132, 227.773 83.370 C 228.526 82.617, 229.786 82, 230.571 82 C 231.357 82, 232 81.292, 232 80.427 C 232 78.124, 234.996 79.069, 236.985 82 C 238.818 84.699, 238.623 92.553, 236.145 116 C 235.534 121.775, 234.812 152.825, 234.541 185 C 234.269 217.175, 233.921 245.525, 233.768 248 C 233.465 252.874, 232.541 255, 230.726 255 C 230.090 255, 225.346 250.637, 220.184 245.304 C 215.022 239.971, 209.620 234.997, 208.181 234.250 C 204.843 232.519, 201.460 233.369, 199.444 236.446 C 197.994 238.658, 198.003 239.075, 199.546 241.430 C 201.562 244.507, 203 244.744, 203 242 C 203 240.900, 203.486 240, 204.079 240 C 204.758 240, 204.915 241.111, 204.503 242.987 C 203.942 245.538, 204.222 246.144, 206.423 247.147 C 207.841 247.793, 209 248.725, 209 249.220 C 209 249.714, 209.472 249.826, 210.049 249.470 C 210.765 249.027, 210.727 248.376, 209.926 247.411 C 209.011 246.309, 209.066 246, 210.178 246 C 212.628 246, 214.015 248.103, 212.918 250.153 C 212.190 251.514, 212.276 252, 213.244 252 C 213.967 252, 215.220 252.944, 216.029 254.098 C 217.932 256.811, 222.077 258.493, 223.036 256.941 C 223.494 256.201, 224.991 257.058, 227.336 259.403 C 229.314 261.381, 231.290 263, 231.726 263 C 232.162 263, 233.050 263.851, 233.700 264.891 C 234.725 266.532, 234.624 266.714, 232.940 266.274 C 230.015 265.509, 230.516 268.270, 233.974 271.973 C 237.883 276.157, 240.257 275.668, 241.182 270.489 C 242.343 263.987, 244.027 192.743, 243.893 155.779 C 243.818 134.924, 244.194 119.150, 244.853 115.500 C 245.450 112.200, 246.099 103.313, 246.296 95.750 L 246.655 82 243.827 82 C 242.192 82, 241 81.459, 241 80.716 C 241 79.051, 246.176 76, 249 76 C 250.205 76, 252.524 75.051, 254.152 73.891 C 256.975 71.881, 257.034 71.695, 255.402 69.891 C 253.347 67.622, 249.718 67.430, 248 69.500 M 117.493 75.208 C 115.874 77.143, 113.495 78.706, 111.723 79 C 108.590 79.519, 108.281 79.889, 105.459 86.500 C 104.519 88.700, 102.682 91.932, 101.375 93.683 C 100.069 95.434, 99 97.599, 99 98.493 C 99 100.347, 92.931 110, 91.766 110 C 91.345 110, 91 110.659, 91 111.465 C 91 112.271, 89.763 114.409, 88.250 116.215 C 86.737 118.022, 84.604 121.300, 83.510 123.500 C 82.415 125.700, 81.289 127.725, 81.007 128 C 79.943 129.038, 73 139.998, 73 140.639 C 73 141.008, 71.313 142.987, 69.250 145.036 C 67.188 147.086, 64.026 150.391, 62.224 152.381 C 60.423 154.372, 58.756 156, 58.521 156 C 58.286 156, 56.122 157.912, 53.712 160.250 C 51.303 162.588, 47.682 166.026, 45.666 167.890 C 43.650 169.755, 42 171.668, 42 172.140 C 42 172.613, 41.399 173, 40.665 173 C 39.931 173, 38.177 174.238, 36.767 175.750 C 35.357 177.262, 32.070 180.300, 29.462 182.500 C 26.854 184.700, 23.679 187.400, 22.408 188.500 C 21.136 189.600, 19.393 192.188, 18.535 194.250 L 16.973 198 19.748 198 C 21.664 198, 23.292 197.028, 25.011 194.857 C 29.340 189.390, 37.691 181.344, 42.651 177.861 C 45.283 176.012, 52.372 169.643, 58.402 163.706 C 64.433 157.769, 70.297 152.819, 71.434 152.706 C 73.195 152.530, 73.603 153.238, 74.196 157.500 C 74.579 160.250, 75.603 166.100, 76.472 170.500 C 79.155 184.088, 82.613 211.845, 85.068 239.500 C 85.654 246.100, 86.666 255.325, 87.317 260 L 88.500 268.500 91.654 268.806 C 94.488 269.081, 94.928 268.748, 95.994 265.517 C 96.848 262.930, 96.898 260.601, 96.172 257.211 C 95.618 254.620, 94.653 245.975, 94.029 238 C 93.405 230.025, 92.492 220.800, 92 217.500 C 91.508 214.200, 90.832 207.675, 90.498 203 C 89.845 193.871, 88.406 184.342, 84.456 163 C 81.178 145.290, 81.188 139.253, 84.504 135.406 C 87.860 131.511, 96 118.263, 96 116.696 C 96 116.008, 97.350 113.968, 99 112.161 C 100.650 110.355, 102 108.448, 102 107.925 C 102 106.662, 104.205 102.800, 105.657 101.520 C 106.293 100.959, 108.136 98.025, 109.753 95 C 115.201 84.808, 116.489 82.780, 119.789 79.203 C 123.007 75.714, 123.621 73.039, 121.374 72.291 C 120.755 72.085, 119.009 73.397, 117.493 75.208 M 206 91.500 C 206 92.325, 206.627 93, 207.393 93 C 208.159 93, 209.045 92.325, 209.362 91.500 C 209.753 90.480, 209.308 90, 207.969 90 C 206.885 90, 206 90.675, 206 91.500 M 158.030 126.298 C 158.012 128.019, 157.025 129.944, 155.468 131.298 C 153.204 133.266, 152.836 134.614, 152.001 144 C 151.488 149.775, 151.049 155.400, 151.026 156.500 C 150.985 158.484, 147.162 160.968, 144.051 161.032 C 143.198 161.049, 141.669 161.693, 140.654 162.463 C 139.638 163.232, 135.867 164.176, 132.273 164.561 C 128.471 164.968, 125.020 165.938, 124.020 166.880 C 123.074 167.771, 121.255 169.349, 119.978 170.388 C 117.710 172.231, 117.701 172.309, 119.578 173.696 C 120.729 174.547, 122.503 174.869, 124 174.498 C 125.375 174.157, 127.850 173.626, 129.500 173.318 C 131.150 173.009, 133.175 172.189, 134 171.496 C 134.825 170.804, 136.501 169.932, 137.724 169.559 C 138.947 169.187, 140.812 167.783, 141.868 166.441 C 143.906 163.849, 146.223 163.163, 145.886 165.250 C 145.775 165.938, 146.028 167.286, 146.448 168.246 C 146.867 169.206, 146.947 171.906, 146.625 174.246 C 144.559 189.261, 143.878 198.274, 143.800 211.658 C 143.715 226.280, 143.633 226.859, 141.477 228.012 C 139.942 228.834, 139.404 229.829, 139.760 231.189 C 140.369 233.521, 142.376 234.506, 144.202 233.370 C 144.916 232.926, 147.975 232.448, 151 232.307 C 158.553 231.956, 165.538 229.674, 165.361 227.617 C 165.267 226.520, 166.030 226, 167.734 226 C 169.758 226, 170.022 226.268, 169.097 227.383 C 166.709 230.260, 172.857 230.826, 180.818 228.461 C 184.490 227.371, 186 226.415, 186 225.180 C 186 223.696, 184.997 223.435, 179.250 223.424 C 175.537 223.417, 168.300 223.219, 163.167 222.985 C 155.143 222.618, 153.685 222.280, 152.775 220.580 C 151.483 218.165, 152.636 183.984, 154.058 182.550 C 154.576 182.028, 155 179.906, 155 177.835 C 155 172.724, 157.692 164.886, 160.182 162.750 C 161.304 161.787, 163.184 160.985, 164.361 160.967 C 168.420 160.904, 177.543 153.209, 175.720 151.386 C 174.875 150.542, 167 152.981, 167 154.087 C 167 154.509, 165.669 155.518, 164.042 156.329 C 161.471 157.612, 160.927 157.617, 159.890 156.368 C 158.964 155.252, 158.987 153.721, 159.993 149.527 C 161.446 143.473, 160.919 128.421, 159.149 125.373 C 158.176 123.699, 158.058 123.797, 158.030 126.298 M 129.024 230.738 C 128.212 231.057, 125.062 231.812, 122.024 232.417 C 116.593 233.497, 116.503 233.572, 116.659 236.867 C 116.871 241.321, 118.672 243.127, 120.471 240.690 C 121.315 239.548, 122.050 239.271, 122.463 239.940 C 123.415 241.481, 126.971 241.239, 127.604 239.590 C 127.901 238.815, 129.313 237.887, 130.741 237.529 C 135.231 236.402, 136.828 234.766, 135.897 232.250 C 135.073 230.023, 132.363 229.426, 129.024 230.738" stroke="none" fill="black" fill-rule="evenodd"/>
</svg>