<svg xmlns="http://www.w3.org/2000/svg" width="300" height="300" viewBox="0 0 300 300" version="1.1">
	<path d="M 64.667 17.667 C 64.300 18.033, 64 20.246, 64 22.583 C 64 24.921, 63.485 27.005, 62.857 27.214 C 60.713 27.929, 63.843 32, 66.535 32 C 67.891 32, 69 31.550, 69 31 C 69 29.818, 74.658 29.638, 75.375 30.798 C 75.646 31.237, 75.489 32.208, 75.027 32.957 C 73.858 34.848, 74.873 37, 76.933 37 C 77.878 37, 79.708 38.125, 81 39.500 C 82.292 40.875, 84.369 42, 85.615 42 C 86.862 42, 88.160 42.450, 88.500 43 C 88.840 43.550, 90.456 44, 92.090 44 C 93.810 44, 95.305 44.632, 95.638 45.500 C 96.521 47.799, 104.243 47.494, 106.433 45.074 C 109.173 42.047, 108.057 39.620, 103.489 38.673 C 99.286 37.802, 87.508 32.375, 85.209 30.250 C 84.466 29.563, 83.256 29, 82.521 29 C 81.098 29, 72 19.394, 72 17.892 C 72 16.863, 65.665 16.668, 64.667 17.667 M 184.750 29.984 C 182.574 32.270, 182 33.824, 182 37.436 C 182 39.946, 182.450 42, 183 42 C 184.783 42, 184.057 44.752, 182.141 45.253 C 181.117 45.521, 179.981 47.032, 179.610 48.619 C 179.240 50.204, 178.115 53.300, 177.109 55.500 C 173.057 64.366, 172 67.153, 172 68.975 C 172 70.024, 171.550 71.160, 171 71.500 C 170.450 71.840, 169.997 73.104, 169.994 74.309 C 169.990 75.514, 169.315 77.789, 168.494 79.364 C 167.672 80.940, 167 83.077, 167 84.114 C 167 85.151, 166.601 86, 166.113 86 C 165.626 86, 165.002 87.237, 164.728 88.750 C 164.175 91.797, 161.808 98.220, 160.951 99 C 160.648 99.275, 159.636 101.914, 158.701 104.865 C 155.342 115.459, 157.284 126.144, 161.755 121.673 C 162.790 120.639, 163.321 118.704, 163.174 116.509 C 163.044 114.579, 163.401 113, 163.969 113 C 164.536 113, 165 111.425, 165 109.500 C 165 107.575, 165.450 106, 166 106 C 166.550 106, 167 105.301, 167 104.446 C 167 103.096, 171.899 93.344, 174.006 90.500 C 174.413 89.950, 175.459 86.645, 176.330 83.156 C 177.201 79.666, 178.833 75.253, 179.957 73.348 C 181.081 71.444, 182 69.209, 182 68.381 C 182 67.553, 183.079 64.542, 184.397 61.688 C 185.716 58.835, 187.348 54.700, 188.024 52.500 C 188.700 50.300, 189.866 46.698, 190.616 44.495 C 192.494 38.975, 192.744 30.601, 191.090 28.609 C 189.230 26.367, 187.925 26.650, 184.750 29.984 M 230.147 44.057 C 227.031 45.952, 226.666 48, 229.444 48 C 230.173 48, 231.566 49.237, 232.538 50.750 C 233.510 52.263, 235.812 54.984, 237.653 56.798 C 239.499 58.617, 241 61.115, 241 62.368 C 241 63.745, 242.674 66.220, 245.250 68.651 C 247.588 70.857, 250.730 74.088, 252.234 75.831 C 255.268 79.348, 256.217 79.648, 257.899 77.622 C 259.417 75.792, 258.079 72.474, 254.018 68 C 252.270 66.075, 250.248 63.150, 249.523 61.500 C 248.242 58.585, 246.106 55.928, 237.526 46.584 L 233.394 42.082 230.147 44.057 M 59.472 60.185 C 58.357 60.693, 56.557 62.432, 55.472 64.051 C 53.992 66.259, 52.719 66.995, 50.372 66.997 C 46.515 67.001, 44.151 69.431, 45.667 71.834 C 46.472 73.110, 48.269 73.507, 53.337 73.528 C 57.182 73.544, 60.468 74.068, 61.178 74.778 C 62.947 76.547, 71.375 76.419, 70.690 74.634 C 70.340 73.721, 71.427 72.889, 73.960 72.130 C 77 71.219, 78.425 71.284, 81.127 72.458 C 84.475 73.911, 84.479 73.922, 81.750 73.961 C 80.237 73.982, 79 74.450, 79 75 C 79 76.819, 100.779 76.724, 104.207 74.889 C 105.394 74.254, 106 74.279, 106 74.965 C 106 75.534, 106.675 76, 107.500 76 C 110.382 76, 108.958 78.880, 103.500 84.089 C 100.475 86.976, 98 90.162, 98 91.169 C 98 92.176, 97.550 93, 97 93 C 96.450 93, 96 93.462, 96 94.027 C 96 94.591, 94.537 96.660, 92.750 98.623 C 90.962 100.587, 88.600 103.837, 87.500 105.847 C 86.400 107.856, 85.230 109.725, 84.899 110 C 84.569 110.275, 83.146 112.300, 81.736 114.500 C 80.327 116.700, 78.122 119.625, 76.837 121 C 72.897 125.215, 69.542 130.223, 66.453 136.500 C 64.829 139.800, 63.260 142.725, 62.967 143 C 62.120 143.795, 56.433 153.022, 53.334 158.629 C 51.775 161.449, 48.757 165.724, 46.627 168.129 C 44.497 170.533, 42.287 173.512, 41.716 174.750 C 41.146 175.988, 40.301 177, 39.839 177 C 39.378 177, 39 177.675, 39 178.500 C 39 179.325, 38.647 180, 38.216 180 C 37.784 180, 36.650 181.323, 35.695 182.939 C 34.740 184.556, 33.068 186.161, 31.979 186.507 C 30.410 187.005, 30 188.028, 30 191.445 C 30 193.816, 30.563 196.220, 31.250 196.789 C 32.865 198.124, 38.008 197.142, 38.689 195.368 C 38.978 194.615, 39.648 194, 40.178 194 C 41.958 194, 44 191.165, 44 188.694 C 44 187.347, 44.675 185.685, 45.500 185 C 46.325 184.315, 47 182.910, 47 181.878 C 47 180.845, 47.450 180, 48 180 C 48.550 180, 49 179.325, 49 178.500 C 49 177.675, 49.420 177, 49.933 177 C 50.446 177, 51.133 176.156, 51.460 175.125 C 51.788 174.093, 53.618 171.641, 55.528 169.674 C 57.438 167.708, 59 165.735, 59 165.289 C 59 164.844, 60.125 163.266, 61.500 161.783 C 62.875 160.301, 64 158.419, 64 157.603 C 64 156.786, 64.527 155.792, 65.171 155.394 C 65.947 154.915, 65.609 154.400, 64.171 153.868 C 62.977 153.426, 62 152.423, 62 151.639 C 62 149.655, 64.950 148.706, 65.628 150.472 C 66.452 152.620, 69.868 148.718, 73.500 141.479 C 75.150 138.191, 77.063 134.905, 77.750 134.179 C 79.385 132.450, 79.336 130.392, 77.622 128.791 C 76.461 127.707, 76.627 127.149, 78.673 125.252 C 81.707 122.440, 85.010 122.322, 85.710 125 C 85.998 126.100, 86.856 127, 87.617 127 C 89.461 127, 89.396 130.634, 87.538 131.347 C 86.384 131.790, 86.096 133.970, 86.171 141.704 C 86.223 147.092, 86.697 152.625, 87.225 154 C 88.512 157.353, 88.226 173.410, 86.824 176.486 C 86.086 178.106, 86.039 179.376, 86.685 180.220 C 87.224 180.924, 87.766 183.750, 87.889 186.500 C 88.012 189.250, 88.634 194.425, 89.271 198 C 89.908 201.575, 90.328 207.200, 90.205 210.500 C 89.683 224.424, 89.781 227.995, 90.944 237.500 C 91.617 243, 92.361 252.225, 92.597 258 C 93.181 272.264, 93.395 273, 96.960 273 C 98.567 273, 100.202 272.482, 100.593 271.850 C 101.730 270.010, 101.283 242.397, 100.080 240.149 C 99.465 239, 98.977 232.183, 98.946 224.316 C 98.916 216.717, 98.401 206.900, 97.802 202.500 C 96.698 194.400, 96.305 183.216, 96.837 175 C 96.997 172.525, 96.828 168.025, 96.461 165 C 95.849 159.957, 96.006 159.302, 98.346 157.123 C 101.200 154.466, 103.883 154.838, 104.712 158.005 C 105.008 159.138, 106.076 160, 107.184 160 C 108.593 160, 108.979 160.490, 108.575 161.764 C 107.872 163.977, 111.359 166.338, 114.063 165.480 C 115.309 165.085, 116.002 165.335, 116.006 166.183 C 116.018 168.551, 131.014 177, 135.206 177 C 137.623 177, 138 176.608, 138 174.099 C 138 171.834, 137.219 170.737, 134.443 169.099 C 132.486 167.944, 130.196 167, 129.352 167 C 128.509 167, 125.663 164.863, 123.027 162.250 C 117.723 156.992, 115.380 155, 114.499 155 C 114.176 155, 112.699 153.875, 111.217 152.500 C 109.734 151.125, 108.119 150, 107.628 150 C 107.136 150, 105.881 149.016, 104.838 147.813 C 102.945 145.630, 102.951 145.617, 108.383 140.313 C 111.376 137.391, 114.110 135, 114.458 135 C 114.806 135, 116.216 133.875, 117.591 132.500 C 118.966 131.125, 120.408 129.988, 120.795 129.973 C 121.995 129.928, 129.566 122.595, 130.241 120.826 C 130.592 119.905, 132.490 118.387, 134.459 117.452 C 138.418 115.574, 142 111.224, 142 108.295 C 142 101.334, 136.025 98.610, 131.994 103.735 C 130.244 105.960, 129.962 107.263, 130.483 110.735 C 131.004 114.207, 130.832 115, 129.561 115 C 128.667 115, 128 114.146, 128 113 C 128 111.644, 127.333 111, 125.929 111 C 124.015 111, 121 113.097, 121 114.429 C 121 114.743, 120.213 115.820, 119.250 116.822 C 118.287 117.824, 116.027 120.299, 114.226 122.322 C 112.425 124.345, 110.574 126, 110.112 126 C 109.650 126, 106.639 128.489, 103.421 131.532 C 95.963 138.585, 94.502 138.404, 94.494 130.426 C 94.489 126.381, 93.913 123.516, 92.744 121.732 C 90.449 118.229, 90.533 117.301, 93.500 113.411 C 94.875 111.608, 96 109.653, 96 109.067 C 96 108.480, 96.348 108, 96.773 108 C 97.198 108, 98.435 106.338, 99.523 104.306 C 100.610 102.274, 102.400 99.664, 103.500 98.507 C 104.600 97.350, 106.667 95.075, 108.094 93.451 C 109.520 91.828, 111.770 89.519, 113.094 88.319 C 116.401 85.322, 118 83.276, 118 82.042 C 118 81.469, 118.369 81, 118.820 81 C 119.271 81, 121.521 79.390, 123.820 77.422 C 127.653 74.142, 128 73.444, 128 69.029 C 128 63.426, 126.973 62.680, 121.738 64.479 C 119.105 65.384, 110.512 65.706, 91.296 65.620 L 64.522 65.500 63.011 62.382 C 61.745 59.769, 61.171 59.413, 59.472 60.185 M 216.877 96.229 C 215.184 99.393, 213.392 101, 211.558 101 C 210.686 101, 208.966 101.520, 207.736 102.155 C 206.506 102.791, 204.825 103.616, 204 103.989 C 203.175 104.363, 201.600 106.430, 200.500 108.584 C 199.400 110.738, 198.162 112.650, 197.750 112.833 C 197.338 113.017, 197 113.749, 197 114.461 C 197 115.173, 196.325 116.315, 195.500 117 C 194.675 117.685, 194 119.339, 194 120.675 C 194 122.012, 192.875 124.762, 191.500 126.785 C 190.125 128.809, 189 130.997, 189 131.649 C 189 132.300, 188.662 132.983, 188.250 133.167 C 187.838 133.350, 186.707 135.075, 185.738 137 C 184.769 138.925, 183.115 141.850, 182.061 143.500 C 181.008 145.150, 180.113 147.175, 180.072 148 C 180.031 148.825, 178.198 151.525, 176 154 C 173.802 156.475, 171.998 158.950, 171.993 159.500 C 171.987 160.050, 170.515 162.075, 168.720 164 C 166.926 165.925, 164.580 169.525, 163.507 172 C 162.433 174.475, 161.318 176.725, 161.028 177 C 159.822 178.143, 155 188.657, 155 190.143 C 155 191.030, 154.325 192.315, 153.500 193 C 152.675 193.685, 152 194.865, 152 195.622 C 152 196.380, 151.550 197, 151 197 C 150.450 197, 150 197.763, 150 198.695 C 150 199.628, 148.914 201.540, 147.587 202.945 C 144.068 206.671, 143.647 213, 146.918 213 C 150.054 213, 159.208 207.921, 159.740 205.885 C 160.011 204.848, 160.559 204, 160.956 204 C 162.359 204, 164.209 198.437, 164.530 193.251 C 164.712 190.316, 165.516 187.341, 166.354 186.503 C 167.179 185.678, 169.244 182.061, 170.943 178.464 C 172.643 174.867, 174.701 171.668, 175.517 171.355 C 176.332 171.042, 177 170.296, 177 169.698 C 177 169.099, 178.045 167.460, 179.323 166.055 C 181.670 163.473, 189 151.440, 189 150.168 C 189 149.789, 190.019 148.359, 191.264 146.990 C 192.509 145.620, 194.410 142.475, 195.487 140 C 196.564 137.525, 197.723 135.275, 198.064 135 C 198.405 134.725, 199.510 132.250, 200.521 129.500 C 201.531 126.750, 203.085 123.375, 203.974 122 C 204.863 120.625, 206.437 117.700, 207.472 115.500 C 208.507 113.300, 211.412 109.893, 213.927 107.929 C 217.403 105.215, 218.781 103.303, 219.671 99.956 C 220.315 97.534, 220.626 95.203, 220.362 94.776 C 219.496 93.375, 218.091 93.961, 216.877 96.229 M 228.250 134.674 C 225.696 136.456, 225.496 137.963, 227.190 142.650 C 228.159 145.328, 228.789 145.840, 230.566 145.394 C 232.329 144.952, 232.959 145.445, 233.834 147.952 C 234.765 150.626, 235.271 150.970, 237.460 150.421 C 240.744 149.596, 244.349 153.480, 242.868 156.247 C 242.111 157.661, 242.476 158.251, 244.712 159.234 C 246.246 159.908, 247.725 160.717, 248 161.032 C 248.275 161.348, 250.109 162.583, 252.076 163.777 C 254.043 164.971, 256.807 166.972, 258.220 168.224 C 259.632 169.476, 263.049 172.075, 265.813 174 C 268.578 175.925, 271.401 178.512, 272.089 179.750 C 272.829 181.083, 274.288 182, 275.669 182 C 277.645 182, 278 181.491, 278 178.664 C 278 175.247, 276.898 173.980, 266.550 165.500 C 264.537 163.850, 257.787 157.438, 251.551 151.250 C 244.311 144.066, 239.451 140, 238.106 140 C 236.710 140, 236 139.365, 236 138.115 C 236 137.078, 234.891 135.503, 233.535 134.615 C 230.634 132.714, 231.067 132.709, 228.250 134.674 M 90.334 179.573 C 89.704 180.908, 89.566 182, 90.027 182 C 90.896 182, 92.451 178.118, 91.831 177.497 C 91.637 177.304, 90.964 178.238, 90.334 179.573 M 185.674 197.469 C 184.832 198.311, 183.526 199, 182.771 199 C 181.038 199, 179 200.999, 179 202.700 C 179 203.524, 180.308 204, 182.571 204 C 184.536 204, 186.818 204.675, 187.643 205.500 C 189.604 207.462, 191.240 207.394, 193.710 205.250 C 195.244 203.918, 197.072 203.582, 201.363 203.843 C 204.463 204.031, 207 204.626, 207 205.164 C 207 205.702, 207.643 206.786, 208.429 207.571 C 210.342 209.485, 230.617 209.644, 231.254 207.750 C 231.584 206.770, 231.991 206.761, 233.139 207.708 C 233.945 208.373, 235.550 208.669, 236.706 208.367 C 239.044 207.755, 244.424 212.589, 245.609 216.366 C 245.977 217.540, 247.340 219.491, 248.639 220.702 C 251.302 223.187, 251.760 226, 249.500 226 C 248.325 226, 248.003 227.354, 248.015 232.250 C 248.030 238.347, 249.557 242.967, 250.659 240.250 C 251.521 238.126, 253 238.870, 253 241.429 C 253 242.764, 252.298 244.560, 251.439 245.418 C 250.139 246.718, 249.993 248.554, 250.569 256.393 L 251.260 265.807 239.193 265.269 C 231.401 264.921, 225.450 265.153, 222.395 265.922 C 215.990 267.535, 199.541 269.279, 188.162 269.552 C 182.952 269.677, 178.332 270.268, 177.712 270.888 C 175.931 272.669, 174.407 272.188, 173.161 269.453 C 171.780 266.423, 171.617 257.798, 172.915 256.450 C 173.418 255.927, 173.972 245.321, 174.146 232.881 C 174.486 208.567, 174.202 207, 169.445 207 C 168.111 207, 166.913 207.740, 166.610 208.750 C 166.042 210.646, 166.640 218.289, 167.591 221.286 C 168.007 222.599, 167.585 223.296, 166.145 223.672 C 164.257 224.166, 164.090 225.107, 163.806 236.852 C 163.442 251.917, 164.300 265.800, 165.765 268.529 C 166.347 269.613, 167.584 272.663, 168.515 275.306 C 169.904 279.247, 170.594 280.057, 172.354 279.806 C 173.697 279.615, 174.620 278.658, 174.820 277.250 C 175.174 274.756, 177 274.128, 177 276.500 C 177 277.415, 177.933 278, 179.393 278 C 180.709 278, 182.045 277.325, 182.362 276.500 C 183.484 273.576, 188.434 275.193, 188.485 278.500 C 188.507 279.969, 206.864 280.357, 208.590 278.926 C 210.877 277.028, 209.185 276, 203.774 276 C 200.965 276, 198.937 275.730, 199.267 275.400 C 199.597 275.070, 201.472 274.800, 203.433 274.800 C 205.395 274.800, 207 274.395, 207 273.900 C 207 273.405, 208.855 273, 211.122 273 C 214.430 273, 215.028 273.262, 214.146 274.324 C 213.344 275.290, 213.365 275.965, 214.224 276.824 C 215.591 278.191, 218.645 278.384, 219.407 277.151 C 219.988 276.210, 233.351 274.699, 242.159 274.578 C 245.271 274.535, 248.158 274.163, 248.575 273.750 C 249.688 272.649, 253 272.836, 253 274 C 253 275.536, 254.954 275.189, 256.821 273.321 C 258.450 271.692, 259.007 265.363, 259.270 245.500 C 259.372 237.814, 257.789 221, 256.963 221 C 256.558 221, 255.914 218.909, 255.530 216.353 C 254.753 211.172, 253.668 208.953, 250 205.043 C 248.625 203.578, 246.606 201.169, 245.513 199.689 C 243.599 197.100, 243.173 197, 234.084 197 C 228.891 197, 223.164 197.535, 221.357 198.188 C 218.918 199.070, 217.482 199.089, 215.786 198.264 C 214.529 197.652, 207.584 196.879, 200.353 196.545 C 189.316 196.035, 186.960 196.183, 185.674 197.469 M 230.510 205.016 C 230.856 205.575, 231.557 205.774, 232.069 205.457 C 233.456 204.600, 233.198 204, 231.441 204 C 230.584 204, 230.165 204.457, 230.510 205.016 M 200.750 205.689 C 197.743 206.475, 198.697 209, 202 209 C 203.650 209, 205 208.812, 205 208.582 C 205 207.429, 203.706 205.014, 203.143 205.116 C 202.789 205.180, 201.713 205.438, 200.750 205.689 M 166.667 243.667 C 165.608 244.725, 165.894 251, 167 251 C 167.550 251, 168 249.200, 168 247 C 168 242.913, 167.834 242.499, 166.667 243.667 M 227.624 271.800 C 227.352 272.240, 227.960 273.119, 228.976 273.753 C 230.418 274.654, 230.936 274.609, 231.342 273.551 C 231.628 272.805, 231.593 271.927, 231.264 271.598 C 230.406 270.739, 228.204 270.861, 227.624 271.800 M 218.244 272.664 C 216.141 273.512, 217.935 275, 221.059 275 C 224.216 275, 225.010 273.602, 222.418 272.607 C 220.646 271.927, 220.052 271.935, 218.244 272.664" stroke="none" fill="black" fill-rule="evenodd"/>
</svg>