<svg xmlns="http://www.w3.org/2000/svg" width="300" height="300" viewBox="0 0 300 300" version="1.1">
	<path d="M 212.750 25.393 C 210.528 27.615, 210.353 39.092, 212.420 47.040 C 214.832 56.315, 216.163 75.545, 216.335 103.604 L 216.500 130.500 210.579 130.226 C 206.694 130.046, 203.487 129.228, 201.256 127.849 C 196.522 124.923, 195.031 126.524, 197.464 131.921 C 199.485 136.401, 205.577 141, 209.492 141 C 212.330 141, 216.068 139.181, 217.339 137.180 C 218.017 136.113, 218.400 136.158, 219.339 137.412 C 221.311 140.046, 223.331 137.593, 223.939 131.824 C 224.764 123.994, 223.362 74.261, 221.957 61.500 C 221.290 55.450, 219.910 46.507, 218.890 41.626 C 217.870 36.746, 217.296 32.330, 217.615 31.813 C 217.935 31.297, 217.523 30.115, 216.701 29.187 C 215.879 28.259, 215.048 26.632, 214.853 25.571 C 214.517 23.735, 214.417 23.726, 212.750 25.393 M 95.192 29.075 C 95.389 29.666, 95.977 30.150, 96.500 30.150 C 97.023 30.150, 97.611 29.666, 97.808 29.075 C 98.005 28.484, 97.417 28, 96.500 28 C 95.583 28, 94.995 28.484, 95.192 29.075 M 124.750 29.060 C 123.787 29.632, 123 30.851, 123 31.770 C 123 32.689, 122.460 35.763, 121.801 38.600 L 120.601 43.758 114.551 44.366 C 105.123 45.313, 102.831 45.769, 101.674 46.926 C 101.083 47.517, 99.734 48, 98.675 48 C 97.067 48, 96.849 47.503, 97.353 44.983 C 97.685 43.323, 97.680 39.948, 97.343 37.483 C 96.869 34.030, 96.308 33, 94.899 33 C 91.969 33, 90.669 36.814, 89.959 47.500 C 89.309 57.281, 89.171 57.722, 83.647 67.673 C 80.541 73.268, 78 78.315, 78 78.888 C 78 79.994, 81.164 82, 82.909 82 C 83.481 82, 84.653 80.763, 85.514 79.250 C 86.375 77.737, 88.163 74.700, 89.489 72.500 C 93.106 66.494, 95.674 60.988, 97.074 56.236 C 98.694 50.733, 100.582 49.046, 102.376 51.499 C 103.402 52.902, 104.324 53.117, 106.594 52.483 C 108.192 52.037, 109.864 51.754, 110.308 51.855 C 110.753 51.956, 112.725 51.275, 114.692 50.342 C 118.113 48.719, 118.327 48.727, 119.656 50.544 C 120.419 51.588, 120.741 53.131, 120.370 53.971 C 119.999 54.812, 119.427 59.651, 119.098 64.724 C 118.617 72.150, 118.110 74.317, 116.500 75.844 C 114.087 78.132, 102.887 81, 96.365 81 C 93.768 81, 90.148 81.540, 88.321 82.201 C 85.637 83.172, 85 83.938, 85 86.201 C 85 89.033, 87.202 90.100, 88.549 87.921 C 88.978 87.227, 90.998 87.087, 94.209 87.529 C 98.968 88.183, 99.172 88.116, 98.534 86.108 C 97.755 83.654, 99.737 83.150, 100.664 85.567 C 101.101 86.705, 102.391 87.061, 105.383 86.866 C 107.647 86.718, 109.725 86.285, 110 85.902 C 110.275 85.519, 111.625 85.047, 113 84.853 C 115.468 84.504, 115.504 84.601, 115.787 92.509 C 116.157 102.855, 115.550 103.633, 106 105.057 C 101.875 105.672, 97.503 106.811, 96.285 107.588 C 95.067 108.365, 92.930 109, 91.535 109 C 89.667 109, 89 109.526, 89 111 C 89 113.377, 90.288 113.569, 92.357 111.500 C 94.260 109.597, 95.428 109.606, 97.028 111.533 C 98.157 112.894, 98.559 112.823, 100.599 110.907 C 102.190 109.413, 103.453 108.988, 104.699 109.531 C 106.207 110.187, 106.012 110.426, 103.500 111 C 101.046 111.561, 100.819 111.825, 102.250 112.450 C 103.213 112.870, 104.787 112.889, 105.750 112.492 C 109.656 110.879, 114.032 110.243, 114.624 111.201 C 114.962 111.747, 115.406 117.637, 115.611 124.289 C 115.998 136.857, 116.765 139.266, 119.778 137.373 C 121.190 136.486, 121.595 134.210, 122.028 124.720 C 122.439 115.701, 122.935 112.729, 124.278 111.246 C 125.225 110.199, 126 108.575, 126 107.636 C 126 106.278, 126.383 106.134, 127.872 106.932 C 129.125 107.602, 130.862 107.599, 133.122 106.922 C 134.980 106.365, 139.194 105.678, 142.488 105.395 C 145.781 105.112, 149.156 104.291, 149.988 103.571 C 152.384 101.498, 159.774 100.916, 161.521 102.664 C 163.467 104.610, 163.405 105.500, 160.750 113.619 C 157.721 122.881, 150.968 131.918, 147.030 131.978 C 146.222 131.990, 144.353 130.585, 142.877 128.856 C 139.632 125.054, 137 125.520, 137 129.897 C 137 133.787, 142.711 140, 146.285 140 C 151.296 140, 157.657 136.359, 160.912 131.628 C 165.995 124.240, 167.649 119.208, 168.404 108.839 C 169.073 99.658, 168.996 99.074, 166.865 97.089 C 163.710 94.149, 161.385 94.266, 139 98.489 C 134.325 99.371, 128.748 100.364, 126.608 100.697 L 122.715 101.302 123.431 92.901 C 124.415 81.346, 125.006 80.653, 135.680 78.528 C 140.531 77.562, 146.221 76.548, 148.324 76.274 C 152.935 75.673, 154.019 73.575, 151.184 70.740 C 149.110 68.666, 149.035 68.663, 143.295 70.447 C 140.108 71.437, 134.845 72.460, 131.601 72.720 L 125.701 73.193 126.243 65.346 C 126.541 61.031, 127.561 55.876, 128.511 53.890 L 130.237 50.280 138.781 49.677 C 147.965 49.029, 150.127 48.063, 148.035 45.542 C 147.055 44.361, 144.644 44, 137.742 44 L 128.728 44 129.500 39.250 C 130.900 30.639, 130.707 28.525, 128.500 28.260 C 127.400 28.128, 125.713 28.488, 124.750 29.060 M 177.250 59.708 C 176.563 59.960, 176 60.939, 176 61.883 C 176 62.827, 175.438 64.162, 174.750 64.850 C 172.747 66.853, 173.153 85.693, 175.285 89.687 C 177.460 93.762, 178.844 94.585, 180.589 92.839 C 181.665 91.763, 181.758 90.644, 180.994 87.977 C 180.447 86.072, 179.973 82.035, 179.940 79.007 C 179.908 75.978, 179.534 71.395, 179.110 68.823 C 178.674 66.175, 178.745 63.421, 179.273 62.476 C 180.321 60.604, 179.156 59.009, 177.250 59.708 M 76.513 84.979 C 75.792 86.146, 77.683 90, 78.976 90 C 80.612 90, 81.112 88.078, 80.011 86.021 C 78.840 83.832, 77.473 83.426, 76.513 84.979 M 81.641 104.844 C 81.295 107.010, 80.334 109.042, 79.506 109.359 C 76.476 110.522, 78.341 124.878, 83.419 139.487 C 84.804 143.472, 87.306 146.027, 88.578 144.756 C 89.332 144.001, 87.273 128.875, 85.888 125 C 84.896 122.228, 84.213 105.327, 85 103.059 C 85.279 102.255, 84.787 101.461, 83.885 101.262 C 82.685 100.997, 82.109 101.916, 81.641 104.844 M 146 145.980 C 146 146.596, 146.714 148.480, 147.586 150.166 C 148.458 151.853, 148.930 154.160, 148.634 155.292 C 148.093 157.359, 150.295 159.904, 152.680 159.968 C 153.329 159.986, 156.796 161.359, 160.384 163.019 C 165.687 165.474, 167.673 165.916, 171.001 165.384 C 176.651 164.480, 176.094 161.828, 170.037 160.793 C 167.591 160.376, 163.199 158.864, 160.276 157.434 C 155.951 155.318, 154.546 153.964, 152.731 150.167 C 151.195 146.954, 149.799 145.400, 148.250 145.180 C 147.012 145.005, 146 145.365, 146 145.980 M 140.884 176.116 C 139.772 177.228, 137.902 177.639, 134.884 177.435 C 130.663 177.149, 126.382 177.664, 113.500 180.007 C 110.200 180.608, 104.395 181.317, 100.601 181.583 C 96.806 181.849, 93.319 182.303, 92.851 182.592 C 91.256 183.578, 91.996 184.947, 94.950 186.474 C 98.834 188.483, 103.886 188.413, 106.201 186.318 C 107.909 184.772, 108.447 184.761, 112.896 186.184 C 117.160 187.548, 118.136 187.559, 121.117 186.278 C 124.525 184.814, 133.501 184.167, 134.638 185.304 C 134.974 185.641, 133.549 188.479, 131.471 191.610 C 129.392 194.742, 126.973 199.148, 126.096 201.402 C 123.753 207.418, 110.072 227.538, 103.238 235.018 C 95.860 243.092, 94.423 245.600, 96.053 247.564 C 96.709 248.354, 98.315 249, 99.622 249 C 102.109 249, 103.243 248.037, 109 241.039 C 110.925 238.698, 112.992 236.260, 113.594 235.619 C 115.003 234.120, 120.307 225.953, 121.140 224 C 121.629 222.853, 122.011 223.089, 122.762 225 C 123.759 227.534, 123.019 247.619, 121.068 271 C 120.067 283.001, 120.450 288.016, 122.367 287.976 C 128.280 287.852, 136.969 282.712, 143.500 275.476 C 148.798 269.605, 154 262.232, 154 260.593 C 154 257.028, 149.948 259.530, 139.571 269.500 C 129.447 279.228, 126 281.624, 126 278.934 C 126 278.348, 126.509 276.918, 127.131 275.756 C 128.183 273.790, 128.915 263.584, 130.520 228.500 C 130.996 218.110, 131.551 214.066, 132.675 212.817 C 133.670 211.711, 133.975 210.164, 133.567 208.304 C 133.164 206.471, 133.485 204.774, 134.477 203.487 C 137.384 199.714, 141.964 192.497, 141.982 191.660 C 141.992 191.198, 143.238 189.070, 144.750 186.931 C 147.440 183.127, 147.635 183.042, 153.750 183.021 C 157.188 183.010, 160 182.605, 160 182.121 C 160 180.807, 165.738 178.685, 167.482 179.355 C 169.749 180.225, 169.314 182, 166.833 182 C 165.642 182, 164.910 182.243, 165.207 182.541 C 165.505 182.838, 168.730 182.776, 172.374 182.403 C 176.966 181.932, 179 181.306, 179 180.362 C 179 178.573, 180.519 178.639, 183.443 180.554 C 184.858 181.482, 186.056 181.719, 186.412 181.143 C 186.788 180.534, 188.133 180.601, 190.049 181.325 C 192.527 182.260, 193.257 182.202, 193.990 181.016 C 194.741 179.801, 195.453 179.762, 198.266 180.779 C 200.123 181.451, 204 182, 206.881 182 L 212.121 182 211.810 178.373 L 211.500 174.747 194 174.623 C 184.375 174.556, 170.875 174.638, 164 174.807 C 157.125 174.977, 149.475 174.977, 146.999 174.807 C 143.866 174.593, 142.008 174.991, 140.884 176.116 M 172.500 179 C 172.160 179.550, 172.332 180, 172.882 180 C 173.432 180, 174.160 179.550, 174.500 179 C 174.840 178.450, 174.668 178, 174.118 178 C 173.568 178, 172.840 178.450, 172.500 179 M 201.755 204.750 C 200.899 205.713, 199.467 208.075, 198.573 210 C 196.281 214.931, 194.870 217.190, 191.976 220.561 C 188.830 224.223, 180.076 231, 178.491 231 C 176.392 231, 174 227.424, 174 224.286 C 174 222.604, 173.328 219.940, 172.506 218.364 C 171.685 216.789, 171.010 214.768, 171.006 213.872 C 171.003 212.977, 170.369 211.721, 169.598 211.081 C 168.477 210.151, 167.748 210.545, 165.973 213.038 C 164.112 215.652, 163.934 216.559, 164.876 218.626 C 165.494 219.984, 166 222.261, 166 223.688 C 166 226.402, 169.843 235, 171.056 235 C 171.442 235, 172.331 236.463, 173.032 238.250 C 174.670 242.424, 182.996 255.122, 185.157 256.741 C 186.886 258.037, 191 265.799, 191 267.766 C 191 269.702, 196.662 277.388, 199.783 279.689 C 201.560 280.998, 203.572 281.663, 204.792 281.344 C 206.225 280.969, 207.317 281.554, 208.470 283.314 C 209.801 285.345, 211.235 285.947, 216.080 286.509 C 219.549 286.912, 222.564 286.797, 223.276 286.236 C 223.949 285.705, 226.383 285.031, 228.685 284.739 C 233.286 284.155, 241.127 278.419, 243.366 274 C 244.062 272.625, 245.236 270.547, 245.974 269.382 C 247.461 267.035, 246.772 263.962, 244.781 264.068 C 244.077 264.106, 241.250 266.795, 238.500 270.044 C 232.728 276.864, 227.817 279.581, 219.816 280.383 C 209.953 281.371, 203.121 276.738, 197.923 265.535 C 195.302 259.885, 193.856 257.533, 186.664 247.212 C 185.105 244.974, 183.583 241.311, 183.283 239.072 C 182.812 235.565, 182.998 234.996, 184.618 234.972 C 187.255 234.932, 197.985 227.618, 199.512 224.819 C 206.251 212.470, 209.028 205.739, 207.929 204.415 C 206.331 202.489, 203.634 202.636, 201.755 204.750" stroke="none" fill="black" fill-rule="evenodd"/>
</svg>