<svg xmlns="http://www.w3.org/2000/svg" width="300" height="300" viewBox="0 0 300 300" version="1.1">
	<path d="M 177.478 23.393 C 176.539 24.827, 174.922 26, 173.885 26 C 172.399 26, 172 26.737, 172 29.481 C 172 32.477, 171.617 33.039, 169.250 33.519 C 164.138 34.554, 159.500 37.400, 159.500 39.502 C 159.500 41.263, 160.122 41.484, 164.750 41.362 C 169.836 41.229, 170 41.310, 170 43.957 C 170 45.460, 169.111 49.347, 168.025 52.595 C 165.505 60.128, 165.485 62, 167.925 62 C 169.898 62, 175.421 53.187, 176.699 48 C 177.038 46.625, 178.118 43.613, 179.098 41.306 C 180.849 37.187, 180.988 37.101, 186.923 36.429 C 193.554 35.679, 196.061 33.896, 194.323 31.166 C 193.530 29.920, 191.778 29.500, 187.381 29.500 L 181.500 29.500 181.500 26.304 C 181.500 21.545, 179.593 20.165, 177.478 23.393 M 117.750 24.392 C 116.343 25.460, 116 27.270, 116 33.633 L 116 41.545 111.250 42.800 C 108.638 43.489, 105.153 44.397, 103.506 44.817 C 100.317 45.629, 99.029 48.432, 100.960 50.356 C 101.822 51.215, 102.569 50.890, 103.960 49.049 C 105.478 47.040, 106.079 46.820, 107.294 47.829 C 108.238 48.612, 110.198 48.832, 112.686 48.434 C 117.638 47.642, 118.313 48.497, 119.986 57.679 C 121.529 66.146, 122.527 68.230, 123.973 66 C 124.844 64.656, 124.572 57.001, 123.453 51.390 C 122.866 48.445, 125.680 46.345, 131 45.758 C 133.475 45.485, 139.438 44.050, 144.250 42.570 C 151.194 40.434, 153 39.491, 153 37.999 C 153 35.367, 152.029 35.027, 147.474 36.059 C 128.472 40.367, 124.884 41.046, 124.005 40.503 C 123.452 40.161, 122.994 37.096, 122.986 33.691 C 122.964 23.475, 121.764 21.345, 117.750 24.392 M 118.079 30.583 C 118.127 31.748, 118.364 31.985, 118.683 31.188 C 118.972 30.466, 118.936 29.603, 118.604 29.271 C 118.272 28.939, 118.036 29.529, 118.079 30.583 M 116.849 72.677 C 115.279 76.508, 115.314 92.293, 116.907 98.756 C 117.914 102.843, 118.712 104.141, 120.492 104.587 C 122.043 104.977, 122.979 106.145, 123.391 108.206 C 124.295 112.724, 124.130 116, 123 116 C 122.450 116, 122 116.880, 122 117.955 C 122 120.663, 126.771 121.400, 135.377 120.022 C 139.160 119.417, 142.361 119.051, 142.491 119.210 C 142.621 119.370, 142.977 122.963, 143.282 127.195 C 143.929 136.155, 143.711 136.475, 135.932 138.026 C 132.944 138.622, 128.925 139.747, 127 140.525 C 123.803 141.818, 110.572 144, 105.928 144 C 104.185 144, 104 143.233, 104 136 C 104 127.335, 103.033 126.095, 99.405 130.106 C 97.935 131.732, 97.500 133.727, 97.500 138.841 L 97.500 145.470 92.514 146.186 C 84.367 147.356, 83 147.897, 83 149.952 C 83 152.522, 85.454 153.133, 91.751 152.133 C 95.315 151.566, 97.288 151.652, 97.891 152.399 C 98.379 153.005, 99.100 157.213, 99.493 161.750 C 100.099 168.740, 100.481 170, 101.996 170 C 104.364 170, 105.183 166.406, 104.376 159.544 C 103.748 154.203, 105.028 150.281, 107 151.500 C 108.296 152.301, 126.006 148.996, 134.426 146.382 C 138.786 145.029, 142.948 144.150, 143.676 144.429 C 144.404 144.709, 145 146.234, 145 147.819 C 145 149.405, 145.503 152.143, 146.117 153.905 C 147.093 156.706, 147.628 157.071, 150.367 156.805 C 152.925 156.556, 153.414 156.133, 153.031 154.500 C 152.774 153.400, 152.549 150.046, 152.531 147.047 C 152.501 141.795, 152.611 141.568, 155.500 140.912 C 157.150 140.538, 161.200 139.440, 164.500 138.474 C 167.800 137.507, 175.900 136.195, 182.500 135.560 C 189.100 134.924, 195.400 133.975, 196.500 133.452 C 197.600 132.928, 202.198 132.507, 206.718 132.515 C 213.734 132.527, 215.155 132.819, 216.436 134.515 C 218.151 136.784, 218.484 142.116, 217.003 143.597 C 216.454 144.146, 214.957 147.723, 213.675 151.547 C 211.876 156.917, 210.632 158.955, 208.211 160.500 C 204.657 162.768, 204.202 164.673, 206.750 166.608 C 209.464 168.668, 211.635 168.259, 215.365 164.984 C 225.426 156.150, 227.386 128.729, 218.131 126.283 C 213.441 125.043, 196.678 125.485, 194.082 126.916 C 192.682 127.689, 187.631 128.376, 182.082 128.550 C 176.812 128.716, 168.900 129.752, 164.500 130.854 C 150.561 134.344, 151.500 134.689, 151.500 126.079 L 151.500 118.658 157 117.468 C 164.170 115.917, 170.279 112.749, 172.429 109.469 C 173.509 107.820, 174.714 107.060, 175.669 107.426 C 177.612 108.172, 182.831 102.689, 183.562 99.133 C 183.859 97.685, 184.980 94.241, 186.052 91.481 C 188.161 86.046, 188.564 79.613, 187.044 75.615 C 185.517 71.599, 180.117 70.715, 162.071 71.528 C 153.507 71.914, 145.150 72.371, 143.500 72.543 C 136.813 73.244, 125.989 75.765, 124.553 76.956 C 122.854 78.366, 122.357 77.655, 121.799 73.010 C 121.365 69.397, 118.278 69.189, 116.849 72.677 M 169.530 76.613 C 167.352 78.791, 154.871 79.499, 155.677 77.398 C 156.048 76.431, 155.446 76, 153.724 76 C 150.557 76, 149.562 79.252, 151.551 83.099 C 152.346 84.635, 152.925 86.704, 152.839 87.696 C 152.401 92.758, 152.823 93.292, 156.750 92.653 C 158.813 92.317, 162.300 91.620, 164.500 91.104 C 166.700 90.588, 171.342 89.594, 174.816 88.894 C 182.304 87.386, 183.856 85.557, 181.505 81.009 C 180.083 78.261, 179.507 78, 174.852 78 C 170.435 78, 169.921 77.800, 171 76.500 C 172.664 74.495, 171.563 74.580, 169.530 76.613 M 141 79.919 C 140.175 80.360, 136.575 81.275, 133 81.954 C 124.668 83.536, 123.030 84.760, 126.123 87.093 C 127.847 88.393, 128.375 89.746, 128.293 92.650 C 128.149 97.712, 128.530 98.127, 131.767 96.438 C 133.270 95.654, 136.152 95.010, 138.170 95.006 L 141.841 95 142.521 88.644 C 143.361 80.805, 143.019 78.841, 141 79.919 M 168 97.137 C 164.425 98.193, 159.912 99.316, 157.971 99.631 C 152.731 100.482, 151.135 102.090, 150.857 106.796 C 150.722 109.078, 150.916 111.249, 151.287 111.620 C 152.124 112.457, 164.222 108.556, 167.551 106.374 C 168.900 105.491, 170.892 105, 171.978 105.284 C 173.446 105.668, 174.344 105.016, 175.477 102.747 C 177.320 99.051, 177.467 94.960, 175.750 95.109 C 175.063 95.168, 171.575 96.081, 168 97.137 M 137.697 100.445 C 136.375 101.437, 136.241 101.914, 137.195 102.232 C 137.910 102.470, 136.592 102.970, 134.264 103.342 C 129.769 104.061, 128.450 106.081, 129.167 111.148 C 129.481 113.365, 129.845 113.480, 135.500 113.155 C 138.800 112.966, 141.841 112.490, 142.257 112.098 C 143.268 111.147, 142.023 102.397, 140.615 100.553 C 139.671 99.317, 139.223 99.300, 137.697 100.445 M 176.961 141.024 C 176.092 141.561, 175.891 143.188, 176.312 146.262 C 176.704 149.121, 176.489 151.265, 175.712 152.233 C 174.635 153.575, 164.859 156.751, 155 158.960 C 153.075 159.391, 150.316 160.220, 148.869 160.802 C 147.202 161.472, 144.088 161.564, 140.369 161.051 C 135.612 160.396, 133.514 160.609, 129.298 162.175 C 122.998 164.516, 117.148 169.548, 118.803 171.203 C 119.619 172.019, 120.367 171.941, 121.611 170.908 C 122.544 170.133, 124.476 169.426, 125.904 169.335 C 127.332 169.244, 133.225 168.883, 139 168.531 C 144.775 168.180, 151.525 167.419, 154 166.840 C 160.569 165.304, 170.309 161.989, 171.737 160.803 C 173.922 158.990, 175.731 160.723, 176.416 165.285 C 177.197 170.496, 179.363 173.995, 180.881 172.500 C 181.697 171.697, 182.349 155.466, 182.052 143.367 C 181.996 141.074, 179.063 139.725, 176.961 141.024 M 136 143 C 136 143.550, 136.675 144, 137.500 144 C 138.325 144, 139 143.550, 139 143 C 139 142.450, 138.325 142, 137.500 142 C 136.675 142, 136 142.450, 136 143 M 108.500 149 C 106.592 149.820, 106.603 149.863, 108.750 149.930 C 109.987 149.968, 111 149.550, 111 149 C 111 148.450, 110.888 148.032, 110.750 148.070 C 110.612 148.109, 109.600 148.527, 108.500 149 M 119.702 181.631 C 119.355 181.979, 119.539 183.138, 120.111 184.207 C 121.015 185.897, 120.850 186.109, 118.853 185.826 C 116.874 185.545, 116.460 186.054, 115.864 189.500 C 114.549 197.109, 117.806 215.605, 120.653 216.697 C 122.658 217.467, 124.073 215.138, 123.350 212.258 C 122.550 209.069, 125.301 209.296, 127.927 212.635 C 130.510 215.918, 130.579 218, 128.107 218 C 127.066 218, 125.933 218.732, 125.590 219.627 C 124.814 221.648, 126.656 224, 129.015 224 C 129.989 224, 131.045 224.675, 131.362 225.500 C 132.170 227.608, 135 227.375, 135 225.200 C 135 224.210, 135.510 222.890, 136.133 222.267 C 136.757 221.643, 137.319 220.091, 137.383 218.817 C 137.461 217.268, 138.201 216.400, 139.615 216.198 C 142.016 215.855, 143 218.918, 143 226.734 C 143 233.679, 145.918 262.053, 147.066 266.271 C 148.767 272.519, 147.735 272.632, 136.349 267.438 C 134.616 266.647, 132.618 266, 131.909 266 C 131.200 266, 127.780 264.573, 124.310 262.829 C 119.565 260.445, 118 259.136, 118 257.553 C 118 255.496, 119.454 242.227, 120.500 234.750 C 120.937 231.618, 120.729 231, 119.234 231 C 118.250 231, 116.738 231.787, 115.875 232.750 C 115.012 233.713, 113.503 234.965, 112.523 235.533 C 110.949 236.445, 110.865 237.146, 111.804 241.533 C 113.502 249.464, 111.217 259.062, 105.475 268.124 C 101.305 274.706, 91.724 284.985, 89.750 284.996 C 89.338 284.998, 89 285.689, 89 286.531 C 89 289.209, 91.870 289.287, 94.952 286.693 C 96.593 285.313, 100.312 282.821, 103.217 281.154 C 107.182 278.880, 109.122 276.924, 110.994 273.312 C 114.827 265.915, 114.867 265.877, 117.342 267.417 C 118.529 268.156, 121.646 269.032, 124.268 269.364 C 126.890 269.695, 130.348 270.936, 131.951 272.122 C 134.094 273.706, 135.676 274.115, 137.927 273.665 C 140.449 273.160, 141.273 273.488, 142.609 275.526 C 143.501 276.887, 145.052 278, 146.056 278 C 147.060 278, 148.154 278.441, 148.487 278.980 C 148.868 279.596, 149.834 279.503, 151.091 278.730 C 152.789 277.685, 153.345 277.819, 154.794 279.625 C 156.724 282.029, 161.559 283.522, 162.498 282.004 C 163.827 279.852, 171.976 282.210, 171.992 284.750 C 172.002 286.375, 179.179 286.421, 180.794 284.806 C 181.720 283.880, 182.449 284.104, 184.033 285.806 C 186.467 288.418, 188.688 288.592, 191.150 286.364 C 192.824 284.849, 193.005 284.849, 193.586 286.364 C 194.285 288.184, 198.629 288.614, 199.194 286.919 C 199.426 286.223, 200.629 286.454, 202.563 287.564 C 207.760 290.547, 219.219 287.620, 217.713 283.694 C 217.217 282.401, 215.437 282.100, 208.300 282.104 C 199.364 282.109, 175.383 279.677, 169 278.118 C 159.483 275.794, 153.905 273.690, 153.057 272.106 C 152.542 271.144, 152.145 268.545, 152.176 266.330 C 152.207 264.115, 151.907 259.503, 151.509 256.080 C 150.854 250.437, 151 249.629, 153.068 247.428 C 155.699 244.627, 158.261 244.156, 157.305 246.648 C 156.773 248.033, 157.136 248.182, 159.586 247.579 C 161.189 247.185, 164.750 246.534, 167.500 246.133 C 170.250 245.732, 173.850 244.662, 175.500 243.754 C 177.150 242.846, 179.416 241.678, 180.536 241.158 C 181.656 240.638, 184.806 238.173, 187.536 235.682 C 192.212 231.414, 192.402 231.051, 190.810 229.421 C 189.208 227.782, 188.979 227.791, 186.420 229.596 C 182.358 232.460, 182.007 232.653, 175 235.866 C 171.425 237.506, 166.423 239.125, 163.885 239.465 C 161.347 239.804, 158.422 240.724, 157.385 241.509 C 156.348 242.294, 154.262 242.951, 152.750 242.968 C 150.150 242.998, 149.993 242.741, 149.866 238.250 C 149.491 225.008, 150.799 219.286, 154.377 218.519 C 155.544 218.269, 159.200 217.647, 162.500 217.138 C 170.188 215.951, 178.855 213.545, 180.165 212.235 C 180.859 211.541, 180.821 210.533, 180.046 209.086 C 179.083 207.286, 179.375 206.303, 181.934 202.728 C 185.548 197.682, 186.652 193.144, 184.812 190.900 C 182.178 187.689, 141.581 184.411, 128.500 186.353 C 125.045 186.866, 123 185.574, 123 182.878 C 123 181.072, 121.012 180.321, 119.702 181.631 M 136.500 192 C 136.160 192.550, 133.924 193, 131.532 193 L 127.181 193 127.574 199.250 C 127.910 204.587, 128.346 205.776, 130.562 207.390 C 131.989 208.430, 133.577 210.388, 134.092 211.742 C 134.783 213.559, 135.483 214.015, 136.764 213.485 C 138.327 212.839, 163.318 210.142, 168.683 210.041 C 169.924 210.018, 171.125 209.181, 171.468 208.101 C 171.799 207.057, 173.148 205.125, 174.464 203.809 C 178.082 200.191, 178.703 196.447, 175.933 194.964 C 173.757 193.800, 161.315 192.602, 153.793 192.834 C 151.754 192.896, 149.815 192.510, 149.484 191.974 C 148.692 190.692, 145 190.714, 145 192 C 145 192.550, 144.127 193, 143.059 193 C 141.991 193, 140.840 192.550, 140.500 192 C 140.160 191.450, 139.260 191, 138.500 191 C 137.740 191, 136.840 191.450, 136.500 192 M 163.750 191.662 C 164.438 191.940, 165.563 191.940, 166.250 191.662 C 166.938 191.385, 166.375 191.158, 165 191.158 C 163.625 191.158, 163.063 191.385, 163.750 191.662" stroke="none" fill="black" fill-rule="evenodd"/>
</svg>