<svg xmlns="http://www.w3.org/2000/svg" width="300" height="300" viewBox="0 0 300 300" version="1.1">
	<path d="M 101.695 20.873 C 99.938 22.366, 97.274 24.358, 95.777 25.300 C 93.395 26.796, 88 36.040, 88 38.624 C 88 39.135, 86.610 41.076, 84.911 42.936 C 83.213 44.796, 81.577 47.832, 81.277 49.683 C 80.976 51.534, 80.341 53.289, 79.865 53.583 C 79.389 53.877, 79 54.991, 79 56.059 C 79 57.127, 78.592 58, 78.093 58 C 77.593 58, 73.238 61.825, 68.413 66.500 C 63.588 71.175, 59.272 75, 58.820 75 C 58.369 75, 58 75.900, 58 77 C 58 78.100, 58.601 79, 59.336 79 C 61.113 79, 69.245 72.651, 75.028 66.750 C 80.568 61.096, 82.890 60.619, 82.102 65.298 C 82.029 65.737, 82.499 68.977, 83.148 72.498 C 84.075 77.530, 84.062 79.220, 83.090 80.392 C 81.766 81.987, 73.563 86.108, 63 90.482 C 59.425 91.963, 55.150 93.760, 53.500 94.476 C 51.850 95.192, 49.375 96.099, 48 96.493 C 43.688 97.726, 37.158 101.926, 36.544 103.862 C 35.120 108.347, 39.938 110.919, 43.357 107.500 C 44.182 106.675, 45.988 106, 47.370 106 C 48.751 106, 50.164 105.543, 50.509 104.985 C 50.854 104.427, 52.568 103.289, 54.318 102.458 C 60.346 99.594, 62.207 98.246, 61.088 97.555 C 59.503 96.575, 59.757 95, 61.500 95 C 62.325 95, 63 95.509, 63 96.131 C 63 97.870, 69.610 96.452, 72.650 94.060 C 74.091 92.927, 75.947 92, 76.775 92 C 77.602 92, 78.864 91.213, 79.578 90.250 C 80.806 88.595, 80.955 88.606, 82.323 90.452 C 83.567 92.132, 83.576 92.950, 82.384 96.328 C 80.203 102.510, 80.545 103.768, 83.633 100.924 L 86.266 98.500 85.563 102.500 C 85.176 104.700, 83.991 107.388, 82.930 108.472 C 81.010 110.434, 81 110.433, 81 108.306 C 81 107.129, 80.442 105.981, 79.760 105.753 C 78.172 105.224, 75.847 108.202, 72.926 114.505 C 71.653 117.252, 70.312 119.725, 69.945 120 C 69.579 120.275, 68.580 121.850, 67.726 123.500 C 66.871 125.150, 63.866 128.698, 61.048 131.384 C 55.811 136.374, 55.172 138.288, 58.578 138.775 C 59.763 138.945, 61.215 137.986, 62.363 136.275 C 63.388 134.749, 66.538 131.751, 69.363 129.614 C 72.188 127.476, 75.742 123.728, 77.261 121.284 C 81.371 114.670, 82.291 115.955, 82.102 128.044 C 81.848 144.335, 81.181 147.981, 78.249 149.095 C 76.232 149.862, 75.921 150.447, 76.561 152.268 C 76.993 153.496, 77.523 159.157, 77.739 164.848 C 78.233 177.830, 77.790 178.476, 67.820 179.312 C 63.899 179.641, 60.265 180.335, 59.744 180.856 C 59.224 181.376, 59.094 183.154, 59.457 184.805 C 60.053 187.517, 60.547 187.842, 64.558 188.161 C 67.001 188.355, 69 188.174, 69 187.757 C 69 187.341, 68.100 187, 67 187 C 65.900 187, 65 186.550, 65 186 C 65 185.450, 66.377 185, 68.059 185 C 69.844 185, 70.861 184.583, 70.500 184 C 70.160 183.450, 70.610 183, 71.500 183 C 72.390 183, 72.862 183.414, 72.550 183.919 C 72.237 184.425, 72.661 185.518, 73.491 186.348 C 76.302 189.159, 74.590 202.294, 69.863 214.185 C 68.838 216.762, 68 219.777, 68 220.886 C 68 221.994, 67.350 223.265, 66.555 223.709 C 64.958 224.603, 64.160 231.832, 65.431 233.888 C 65.962 234.748, 67.336 234.972, 69.544 234.558 C 73.849 233.750, 81.396 235.675, 83.639 238.153 C 85.196 239.874, 85.245 240.472, 84.057 243.300 C 83.318 245.060, 82.508 248.412, 82.256 250.750 C 82.004 253.087, 81.460 255, 81.045 255 C 79.469 255, 74.245 260.881, 72.387 264.750 C 71.371 266.865, 72.817 269, 75.266 269 C 77.603 269, 83.258 263.742, 85.751 259.250 C 88.812 253.735, 89.562 252.508, 90.526 251.441 C 91.091 250.816, 93.292 248.024, 95.417 245.237 C 97.743 242.187, 99.822 240.378, 100.640 240.692 C 101.388 240.979, 102 241.630, 102 242.139 C 102 242.648, 103.012 243.471, 104.250 243.969 C 106.496 244.872, 106.496 244.873, 104 245.013 C 101.568 245.148, 101.582 245.184, 104.500 246.326 C 106.150 246.972, 109.261 249.146, 111.414 251.158 C 113.567 253.170, 116.642 255.078, 118.248 255.400 C 119.854 255.721, 122.368 256.813, 123.834 257.826 C 127.375 260.274, 134.482 263, 137.320 263 C 138.574 263, 140.140 262.460, 140.800 261.800 C 142.211 260.389, 142.356 256.110, 141.061 254.064 C 140.271 252.817, 139.926 252.817, 138.423 254.064 C 136.427 255.720, 133.199 255.438, 130.921 253.407 C 130.053 252.633, 128.703 251.982, 127.921 251.959 C 127.140 251.937, 124.942 250.587, 123.038 248.959 C 121.134 247.332, 119.018 246, 118.337 246 C 117.657 246, 116.740 245.423, 116.300 244.718 C 115.093 242.784, 103.132 236, 100.928 236 C 98.621 236, 98.475 234.170, 100.474 230.331 C 103.545 224.435, 109 212.010, 109 210.913 C 109 210.283, 109.677 207.683, 110.503 205.134 C 112.769 198.149, 116 184.365, 116 181.681 C 116 179.003, 118.816 176, 121.329 176 C 122.248 176, 123.002 175.662, 123.004 175.250 C 123.006 174.838, 124.918 173.711, 127.254 172.747 C 129.589 171.783, 132.850 169.904, 134.500 168.572 C 136.908 166.627, 137.254 165.898, 136.252 164.876 C 135.242 163.847, 133.999 163.964, 129.752 165.488 C 126.863 166.524, 123.068 168.215, 121.317 169.245 C 118.184 171.089, 118.117 171.087, 117.067 169.125 C 116.480 168.029, 116 161.927, 116 155.566 C 116 144.826, 115.863 144, 114.079 144 C 112.759 144, 111.953 144.937, 111.500 147 C 110.989 149.326, 110.297 150, 108.421 150 C 105.619 150, 105.392 152.014, 106.966 162.908 C 108.339 172.406, 107.293 173.142, 92 173.433 L 88.500 173.500 88.448 166.103 C 88.420 162.035, 88.772 156.410, 89.231 153.603 C 90.118 148.176, 93.007 106.307, 93.316 94.404 C 93.493 87.576, 95.119 83.337, 97.093 84.557 C 98.836 85.635, 102.001 82.909, 102.136 80.215 C 102.254 77.857, 102.329 77.796, 102.706 79.750 C 103.203 82.329, 105.049 82.592, 108.846 80.624 C 114.170 77.864, 120.745 75, 121.755 75 C 122.324 75, 124.897 73.010, 127.472 70.578 C 131.568 66.709, 132.014 65.896, 131.042 64.078 C 129.614 61.411, 129.175 61.458, 125.859 64.635 C 123.307 67.080, 117.493 69.651, 109 72.089 C 107.075 72.642, 104.600 73.492, 103.500 73.977 C 99.292 75.836, 93.997 77.116, 93.020 76.512 C 92.408 76.134, 92 70.459, 92 62.328 C 92 49.235, 92.088 48.668, 94.581 45.637 C 96 43.912, 99.197 39.229, 101.685 35.231 C 105.157 29.651, 106.076 27.328, 105.643 25.231 C 105.333 23.729, 105.316 23.037, 105.604 23.694 C 106.454 25.625, 109 23.987, 109 21.510 C 109 17.964, 105.479 17.657, 101.695 20.873 M 179.333 22.390 C 176.863 24.514, 176.581 25.373, 176.790 30.140 C 176.919 33.088, 176.579 38.875, 176.034 43 C 175.068 50.307, 173.020 93.383, 172.584 115.549 C 172.464 121.626, 172.026 127.149, 171.610 127.822 C 171.194 128.495, 170.889 138.024, 170.932 148.997 L 171.010 168.948 168.453 170.623 C 165.391 172.629, 165.340 177.263, 168.373 177.838 C 170.321 178.208, 191 168.337, 191 167.037 C 191 166.630, 194.037 165.506, 197.750 164.540 C 210.501 161.221, 217.423 158.933, 218.119 157.808 C 219.234 156.004, 217.963 154, 215.703 154 C 208.713 154, 189.448 159.131, 184.846 162.219 C 180.061 165.429, 178.918 164.690, 179.477 158.750 C 179.749 155.863, 180.241 148.318, 180.570 141.984 C 181.151 130.801, 181.244 130.433, 183.783 129.234 C 185.222 128.555, 187.214 128, 188.210 128 C 189.207 128, 191.929 127.144, 194.261 126.097 C 200.278 123.396, 207.968 121, 210.619 121 C 211.864 121, 213.173 120.528, 213.530 119.952 C 213.886 119.376, 214.925 118.978, 215.839 119.067 C 220.278 119.503, 222 118.942, 222 117.059 C 222 112.308, 217.598 112.590, 190 119.107 C 182.136 120.964, 182.520 121.252, 182.313 113.323 C 182.144 106.819, 182.368 105.905, 184.700 103.573 C 186.115 102.158, 188.384 101, 189.742 101 C 193.138 101, 203.773 98.169, 207.376 96.305 C 209.007 95.462, 212.729 94.699, 215.648 94.609 C 221.341 94.434, 223.423 93.265, 222.469 90.779 C 221.646 88.636, 217.364 87.973, 212 89.159 C 204.012 90.925, 187.561 93.888, 185.423 93.945 C 183.364 94, 183.350 93.790, 183.790 69.750 C 184.034 56.412, 184.581 44.859, 185.004 44.076 C 185.831 42.547, 193.779 40.116, 198.191 40.044 C 199.671 40.020, 201.160 39.550, 201.500 39 C 201.840 38.450, 203.566 38, 205.337 38 C 207.107 38, 209.443 37.378, 210.529 36.617 C 211.615 35.857, 215.170 35.069, 218.429 34.867 L 224.355 34.500 226.208 41.500 C 228.473 50.058, 229.830 80.284, 228.811 99.500 C 227.618 122.013, 227.951 168.267, 229.326 171.040 C 230.905 174.222, 235.441 174.913, 236.897 172.192 C 237.861 170.391, 238.239 145.107, 238.337 75.838 C 238.365 56.131, 238.073 51.117, 236.592 45.838 C 235.614 42.352, 234.419 38.825, 233.937 38 C 233.456 37.175, 232.173 34.587, 231.087 32.250 L 229.112 28 220.007 28 C 214.228 28, 209.914 28.505, 208.200 29.382 C 206.715 30.142, 203.590 31.081, 201.255 31.469 C 198.921 31.857, 196.757 32.585, 196.446 33.087 C 196.136 33.589, 194.832 34, 193.548 34 C 192.264 34, 190.955 34.675, 190.638 35.500 C 189.855 37.542, 187.384 37.394, 186.458 35.250 C 186.043 34.288, 185.810 30.462, 185.941 26.750 C 186.160 20.551, 186.014 20, 184.146 20 C 183.027 20, 180.861 21.075, 179.333 22.390 M 98.667 29.667 C 97.711 30.622, 97.845 32, 98.893 32 C 99.384 32, 100.045 31.325, 100.362 30.500 C 100.947 28.976, 99.881 28.452, 98.667 29.667 M 203.813 34.683 C 204.534 34.972, 205.397 34.936, 205.729 34.604 C 206.061 34.272, 205.471 34.036, 204.417 34.079 C 203.252 34.127, 203.015 34.364, 203.813 34.683 M 191.750 37.662 C 192.438 37.940, 193.563 37.940, 194.250 37.662 C 194.938 37.385, 194.375 37.158, 193 37.158 C 191.625 37.158, 191.063 37.385, 191.750 37.662 M 104.670 101.451 C 102.305 103.243, 102.840 107.122, 105.643 108.514 C 106.822 109.099, 108.497 110.168, 109.365 110.888 C 110.233 111.608, 112.419 112.573, 114.222 113.030 C 116.025 113.488, 119.525 114.610, 122 115.523 C 124.475 116.435, 127.963 117.186, 129.750 117.191 C 131.537 117.196, 133 117.605, 133 118.100 C 133 118.595, 135.700 119, 139 119 C 143.721 119, 145 118.674, 145 117.469 C 145 116.626, 144.213 115.678, 143.250 115.362 C 142.287 115.045, 140.082 114.159, 138.349 113.393 C 136.616 112.627, 134.740 112, 134.180 112 C 133.022 112, 126.761 108.831, 126.001 107.861 C 125.725 107.509, 123.475 106.623, 121 105.892 C 118.525 105.160, 114.975 103.536, 113.110 102.281 C 109.236 99.674, 107.270 99.480, 104.670 101.451 M 109.568 107.889 C 108.889 108.989, 113.906 112, 116.419 112 C 118.399 112, 117.402 109.353, 115.181 108.712 C 114.256 108.445, 112.758 107.920, 111.851 107.545 C 110.944 107.170, 109.917 107.325, 109.568 107.889 M 120.245 112.250 C 120.734 113.736, 125 114.567, 125 113.177 C 125 112.207, 122.691 111, 120.835 111 C 120.284 111, 120.019 111.563, 120.245 112.250 M 177.232 119 C 177.232 120.925, 177.438 121.713, 177.689 120.750 C 177.941 119.787, 177.941 118.213, 177.689 117.250 C 177.438 116.287, 177.232 117.075, 177.232 119 M 196.557 121.582 C 194.935 122.768, 194.885 123, 196.250 123 C 197.148 123, 198.179 122.520, 198.541 121.933 C 199.601 120.218, 198.652 120.050, 196.557 121.582 M 190.143 122.890 C 189.197 123.490, 189.122 123.957, 189.893 124.434 C 190.502 124.810, 191 124.674, 191 124.132 C 191 123.590, 191.787 122.941, 192.750 122.689 C 193.990 122.365, 194.063 122.203, 193 122.131 C 192.175 122.076, 190.889 122.417, 190.143 122.890 M 231 159.059 C 231 160.191, 231.430 160.852, 231.956 160.527 C 232.482 160.202, 232.659 159.275, 232.349 158.468 C 231.556 156.401, 231 156.644, 231 159.059 M 192.744 174.589 C 192.420 174.913, 192.377 176.601, 192.649 178.339 C 192.958 180.320, 192.568 182.247, 191.603 183.500 C 190.134 185.408, 190.062 185.327, 190.032 181.750 C 190.009 179.119, 189.558 178, 188.519 178 C 186.864 178, 186.609 178.926, 184.948 191 C 184.304 195.675, 182.928 201.608, 181.889 204.185 C 180.850 206.762, 180 209.970, 180 211.313 C 180 212.656, 179.342 214.301, 178.539 214.968 C 177.735 215.635, 176.786 217.152, 176.429 218.340 C 175.622 221.029, 170.243 232.973, 168.926 235 C 168.390 235.825, 166.799 238.975, 165.391 242 C 163.982 245.025, 162.095 249.075, 161.196 251 C 160.298 252.925, 158.284 256.405, 156.721 258.734 C 153.153 264.051, 152.040 269.695, 154.382 270.593 C 156.375 271.358, 162.764 266.728, 163.962 263.652 C 164.423 262.468, 165.914 259.876, 167.275 257.890 C 170.145 253.704, 181 231.836, 181 230.240 C 181 229.647, 181.632 227.888, 182.405 226.331 C 183.177 224.774, 184.781 221.250, 185.967 218.500 C 187.154 215.750, 188.565 212.690, 189.102 211.700 C 189.639 210.711, 190.482 208.011, 190.975 205.700 C 191.467 203.390, 193.024 197.047, 194.435 191.605 C 197.577 179.485, 197.804 174, 195.167 174 C 194.158 174, 193.068 174.265, 192.744 174.589 M 99 176.653 C 96.602 177.917, 96.590 177.971, 98.691 177.985 C 99.896 177.993, 101.179 177.520, 101.541 176.933 C 102.553 175.296, 101.745 175.207, 99 176.653 M 209.070 179.742 C 205.389 182.723, 204.035 188.385, 203.984 201 C 203.959 207.325, 203.461 215.875, 202.877 220 C 202.293 224.125, 201.871 233.854, 201.939 241.619 C 202.107 260.790, 205.149 274.012, 211 281 C 214.675 285.389, 215.393 285.786, 220.749 286.392 C 225.559 286.936, 227.788 286.598, 234.015 284.378 C 238.132 282.911, 242.388 281.101, 243.473 280.355 C 244.557 279.610, 245.991 279, 246.657 279 C 247.324 279, 249.073 278.543, 250.544 277.983 C 252.847 277.107, 253.035 276.747, 251.896 275.375 C 250.780 274.030, 250.871 273.568, 252.479 272.392 C 254.737 270.741, 255.666 270.650, 256.500 272 C 256.840 272.550, 256.641 273, 256.059 273 C 255.477 273, 255 273.478, 255 274.061 C 255 276.010, 274.266 272.590, 276.162 270.305 C 278.289 267.741, 276.706 236.830, 274.347 234.873 C 271.801 232.760, 269.258 237.282, 268.559 245.167 C 268.527 245.533, 268.163 246.171, 267.750 246.583 C 266.648 247.685, 266.837 254.234, 268.073 257.780 C 269.698 262.440, 268.064 264.584, 262.291 265.368 C 255.580 266.279, 238.611 271.874, 235.337 274.255 C 233.900 275.300, 231.043 275.835, 224.202 276.342 C 219.235 276.710, 218.825 276.562, 217.449 273.901 C 213.434 266.138, 210.341 237.840, 212.322 227 C 213.433 220.925, 213.374 181.491, 212.252 179.486 C 211.446 178.046, 211.133 178.071, 209.070 179.742 M 51.667 179.667 C 51.300 180.033, 51 181.158, 51 182.167 C 51 183.537, 51.758 184, 54 184 C 57.475 184, 58.104 181.661, 55.066 180.035 C 52.788 178.816, 52.544 178.789, 51.667 179.667 M 88.449 181.250 C 88.072 182.488, 87.201 184.175, 86.514 185 C 85.828 185.825, 84.971 189.650, 84.612 193.500 C 84.252 197.350, 83.034 203.650, 81.903 207.500 C 76.358 226.390, 76.393 226, 80.255 226 C 81.431 226, 84.100 227.183, 86.187 228.630 C 90.580 231.674, 92.413 230.950, 93.563 225.714 C 93.943 223.982, 94.644 221.876, 95.120 221.033 C 95.596 220.190, 96.615 217.700, 97.384 215.500 C 98.154 213.300, 100.156 207.675, 101.834 203 C 103.947 197.109, 104.978 192.213, 105.192 187.050 L 105.500 179.600 100 179.684 C 96.975 179.731, 93.713 180.094, 92.750 180.492 C 91.702 180.924, 91 180.770, 91 180.107 C 91 178.117, 89.151 178.945, 88.449 181.250 M 105.079 202.583 C 105.127 203.748, 105.364 203.985, 105.683 203.188 C 105.972 202.466, 105.936 201.603, 105.604 201.271 C 105.272 200.939, 105.036 201.529, 105.079 202.583 M 206.531 219.293 C 206.103 220.279, 206.034 221.367, 206.376 221.710 C 207.392 222.725, 208.211 221.299, 207.743 219.328 C 207.329 217.581, 207.275 217.580, 206.531 219.293 M 99 243.441 C 99 244.298, 99.450 245, 100 245 C 100.550 245, 101 244.577, 101 244.059 C 101 243.541, 100.550 242.840, 100 242.500 C 99.450 242.160, 99 242.584, 99 243.441 M 246.500 276 C 246.840 276.550, 247.541 277, 248.059 277 C 248.577 277, 249 276.550, 249 276 C 249 275.450, 248.298 275, 247.441 275 C 246.584 275, 246.160 275.450, 246.500 276 M 242 276.969 C 242 277.501, 242.675 277.678, 243.500 277.362 C 244.325 277.045, 245 276.609, 245 276.393 C 245 276.177, 244.325 276, 243.500 276 C 242.675 276, 242 276.436, 242 276.969 M 234.512 278.631 C 233.525 279.618, 231.185 280.404, 229.133 280.439 C 225.092 280.507, 222.666 281.650, 223.544 283.071 C 224.626 284.822, 235.314 282.855, 238.327 280.350 C 239.881 279.057, 240.706 278, 240.159 278 C 239.611 278, 238.510 277.749, 237.711 277.442 C 236.912 277.136, 235.472 277.671, 234.512 278.631" stroke="none" fill="black" fill-rule="evenodd"/>
</svg>