<svg xmlns="http://www.w3.org/2000/svg" width="300" height="300" viewBox="0 0 300 300" version="1.1">
	<path d="M 80.900 25.750 C 77.885 33.640, 75 42.534, 75 43.939 C 75 44.814, 74.160 47.098, 73.133 49.015 C 72.107 50.932, 70.938 54.075, 70.535 56 C 70.133 57.925, 68.978 61.300, 67.969 63.500 C 66.959 65.700, 65.389 70.200, 64.479 73.500 C 62.846 79.419, 59.171 91.915, 55.090 105.418 C 52.611 113.625, 52.483 116.326, 54.495 117.996 C 56.573 119.721, 60.770 116.894, 61.559 113.237 C 61.884 111.732, 62.978 108.925, 63.989 107 C 66.142 102.901, 69.508 93, 70.449 88 C 70.811 86.075, 71.737 82.925, 72.506 81 C 73.275 79.075, 74.402 74.940, 75.011 71.810 C 76.070 66.360, 76.321 66.019, 80.990 63.692 C 84.618 61.885, 85.574 60.974, 84.732 60.132 C 82.497 57.897, 85.301 57.001, 91.025 58.121 C 94.036 58.710, 98.075 59.164, 100 59.131 C 102.173 59.093, 103.983 59.711, 104.775 60.760 C 105.830 62.158, 106.388 62.239, 108.011 61.225 C 110.665 59.568, 111 59.663, 111 62.077 C 111 63.219, 109.681 65.473, 108.069 67.085 C 106.457 68.697, 103.953 72.600, 102.504 75.758 C 98.410 84.684, 96.625 88.296, 95 90.941 C 94.175 92.284, 93.050 95.209, 92.500 97.441 C 91.537 101.350, 91.337 101.512, 87.075 101.816 C 84.641 101.990, 81.728 102.777, 80.602 103.566 C 79.476 104.355, 77.755 105, 76.777 105 C 75.542 105, 75 105.772, 75 107.531 C 75 110.161, 78.063 112.311, 78.773 110.180 C 79.321 108.538, 81 108.699, 81 110.393 C 81 111.982, 83.703 113.302, 85.139 112.414 C 85.738 112.044, 85.706 111.350, 85.052 110.563 C 83.538 108.738, 87.546 105.146, 89.224 106.824 C 90.046 107.646, 90.084 108.316, 89.349 109.051 C 87.709 110.691, 88.947 115, 91.058 115 C 92.061 115, 93.184 114.511, 93.554 113.913 C 93.923 113.315, 94.998 113.028, 95.942 113.275 C 96.886 113.521, 98.496 113.111, 99.520 112.362 C 100.544 111.613, 102.759 110.964, 104.441 110.921 L 107.500 110.842 104.750 109.838 C 102.051 108.852, 101.408 107.925, 102.600 106.734 C 103.223 106.110, 108.123 107.950, 109.003 109.138 C 109.279 109.512, 110.754 109.578, 112.281 109.287 C 114.516 108.859, 114.933 108.365, 114.422 106.753 C 113.305 103.235, 118.481 101.624, 121.429 104.571 C 122.293 105.436, 123 105.661, 123 105.071 C 123 103.072, 125.615 103.988, 128.500 107 C 130.081 108.650, 130.860 110, 130.232 110 C 128.056 110, 127.827 116.863, 129.377 135.636 C 132.356 171.708, 132.459 174.985, 130.629 175.125 C 124.730 175.578, 114.004 177.260, 108.668 178.570 L 105.836 179.265 106.116 170.882 C 106.270 166.272, 106.982 161.285, 107.698 159.800 C 108.414 158.314, 109 156.042, 109 154.750 C 109 153.457, 109.540 151.860, 110.200 151.200 C 112.089 149.311, 117.905 149.796, 121.161 152.114 C 123.649 153.886, 124.079 154.803, 123.815 157.770 C 123.622 159.945, 123.980 161.475, 124.744 161.737 C 127.778 162.775, 129.329 149.348, 126.452 146.960 C 124.409 145.265, 110.527 145.317, 108.466 147.028 C 107.633 147.719, 106.689 148.022, 106.367 147.701 C 106.046 147.379, 105.838 141.353, 105.906 134.308 C 106.046 119.679, 105.274 115.500, 102.428 115.500 C 100.899 115.500, 100.550 116.121, 100.741 118.500 C 101.085 122.790, 100.309 124.501, 98.646 123.121 C 97.915 122.514, 97.111 122.222, 96.860 122.473 C 96.610 122.723, 96.526 128.232, 96.675 134.714 C 96.824 141.196, 96.718 147.239, 96.440 148.141 C 96.162 149.044, 94.712 150.009, 93.217 150.285 C 91.723 150.562, 87.934 151.567, 84.798 152.519 C 75.933 155.212, 76 155.316, 76 138.852 C 76 130.200, 76.476 123.326, 77.217 121.277 C 78.761 117.005, 77.430 114.614, 73.275 114.196 C 66.632 113.528, 66.808 112.055, 66.630 170 C 66.541 199.082, 67.812 240.680, 68.870 243.315 C 69.491 244.863, 70.007 247.788, 70.015 249.815 C 70.024 251.842, 70.361 253.951, 70.765 254.502 C 72.042 256.242, 76.764 258.264, 77.905 257.559 C 79.400 256.635, 79.279 250.117, 77.530 237.284 C 75.805 224.626, 76.015 199.891, 77.867 197.660 C 78.524 196.869, 81.072 195.716, 83.530 195.097 C 87.939 193.987, 89.191 192.650, 86.750 191.659 C 85.809 191.278, 85.871 190.890, 87 190.091 C 89.250 188.500, 92 188.786, 92 190.611 C 92 191.923, 92.698 192.101, 95.750 191.569 C 102.469 190.399, 109.861 186.969, 110.193 184.868 C 110.523 182.777, 112.593 182.664, 112.361 184.750 C 112.166 186.507, 113.997 186.299, 117.500 184.166 C 120.803 182.155, 131.795 178.462, 132.470 179.137 C 132.704 179.371, 133.159 183.148, 133.480 187.531 C 133.802 191.914, 134.280 196.625, 134.542 198 C 134.805 199.375, 135.678 208.060, 136.482 217.301 C 137.287 226.541, 138.222 234.550, 138.560 235.097 C 138.898 235.644, 140.007 240.153, 141.024 245.117 C 142.041 250.081, 143.290 254.673, 143.800 255.321 C 144.310 255.969, 145.035 258.525, 145.412 261 C 145.789 263.475, 146.699 267.300, 147.435 269.500 C 148.170 271.700, 149.088 275.413, 149.474 277.750 C 150.088 281.468, 149.945 282, 148.331 282 C 145.805 282, 137.082 274.621, 132.078 268.250 C 128.076 263.156, 126.981 262.352, 125.739 263.594 C 125.070 264.263, 131.089 274.177, 134.486 278 C 135.707 279.375, 136.962 281.231, 137.274 282.125 C 137.683 283.297, 139.697 283.949, 144.495 284.463 C 150.096 285.062, 151.456 284.897, 153.090 283.418 C 154.946 281.739, 155.095 281.746, 156.449 283.581 C 157.503 285.009, 158.158 285.212, 159.011 284.372 C 159.870 283.526, 159.649 281.603, 158.126 276.672 C 157.010 273.058, 155.425 266.590, 154.605 262.300 C 153.784 258.010, 152.413 252.531, 151.557 250.124 C 149.485 244.300, 149.586 243.115, 152.250 242.053 C 153.488 241.559, 155.753 239.963, 157.284 238.506 C 158.815 237.049, 164.440 231.988, 169.784 227.259 C 185.712 213.164, 197.320 201.774, 200.438 197.179 L 203.370 192.859 204.734 195.461 C 206.782 199.371, 208.140 213.797, 207.936 229.500 C 207.837 237.200, 208.008 246.650, 208.317 250.500 C 208.625 254.350, 208.905 260.762, 208.939 264.750 L 209 272 211.878 272 C 215.962 272, 216.915 270.293, 217.226 262.426 C 217.602 252.913, 216.117 216.790, 214.824 204 C 213.550 191.394, 213.404 183.452, 214.451 183.634 C 214.874 183.707, 216.706 185.170, 218.524 186.884 C 220.341 188.598, 222.384 190, 223.064 190 C 223.743 190, 226.457 192.250, 229.093 195 C 231.730 197.750, 234.533 200, 235.321 200 C 236.110 200, 237.315 200.675, 238 201.500 C 238.685 202.325, 239.902 203, 240.704 203 C 243.138 203, 250.774 209.913, 251.896 213.132 C 252.739 215.550, 253.355 216.022, 254.989 215.503 C 258.057 214.530, 269.713 222.037, 268.409 224.147 C 268.118 224.618, 269.143 225.484, 270.688 226.071 C 272.233 226.659, 274.272 227.841, 275.219 228.699 C 277.491 230.754, 285.115 232.145, 286.739 230.799 C 288.427 229.401, 287.367 228, 284.621 228 C 283.377 228, 280.591 226.521, 278.430 224.714 C 276.268 222.907, 273.195 220.545, 271.601 219.464 C 270.006 218.384, 267.716 216.825, 266.510 216 C 265.305 215.175, 261.660 212.718, 258.409 210.540 C 255.159 208.363, 250.178 204.650, 247.341 202.290 C 244.503 199.931, 241.935 198, 241.635 198 C 240.757 198, 233.824 193.125, 232.610 191.655 C 232 190.915, 228.575 188.102, 225 185.405 C 216.195 178.760, 215 177.435, 215 174.321 C 215 172.848, 214.470 170.177, 213.823 168.387 C 212.881 165.783, 212.917 164.805, 214 163.500 C 216.270 160.765, 221.293 158.684, 225.249 158.839 C 228.816 158.978, 230.161 157.835, 228 156.500 C 225.583 155.006, 227.417 154, 232.559 154 C 235.735 154, 237.871 154.399, 237.543 154.931 C 236.564 156.514, 238.792 157.131, 242.733 156.367 C 246.184 155.699, 246.290 155.585, 244 155.007 L 241.500 154.377 243.771 153.142 C 246.345 151.742, 248.400 152.516, 247.605 154.586 C 247.311 155.352, 247.992 156.461, 249.132 157.070 C 250.803 157.965, 251.605 157.780, 253.409 156.086 C 254.630 154.939, 256.105 154, 256.687 154 C 260.457 154, 271.097 137.146, 274.445 125.873 C 276.316 119.573, 276.477 109.998, 274.750 107.768 C 273.846 106.601, 269.924 105.727, 260.596 104.613 C 253.498 103.766, 247.275 103.330, 246.767 103.644 C 246.259 103.958, 237.986 104.374, 228.382 104.569 C 207.751 104.986, 209.378 106.208, 208.978 89.997 C 208.610 75.055, 208.522 75.455, 212.575 73.531 C 214.767 72.491, 215.952 71.318, 215.638 70.500 C 215.357 69.766, 215.790 68.911, 216.601 68.600 C 217.442 68.277, 218.347 68.740, 218.706 69.677 C 219.242 71.072, 219.458 70.993, 220.136 69.160 C 221.041 66.715, 224 66.209, 224 68.500 C 224 70.491, 227.318 70.410, 231.300 68.321 C 233.060 67.398, 235.617 66.611, 236.982 66.571 C 238.478 66.528, 239.595 65.828, 239.794 64.808 C 240.471 61.341, 229.932 58.499, 225.236 60.881 C 223.187 61.921, 210.824 65, 208.698 65 C 206.531 65, 205.286 39.549, 207.064 31.603 C 208.177 26.632, 208.139 25.710, 206.765 24.337 C 204.645 22.217, 203 23.453, 203 27.165 C 203 29.260, 202.183 30.855, 200.386 32.268 L 197.773 34.324 198.136 50.412 L 198.500 66.500 193.500 67.091 C 188.845 67.640, 182.853 66.414, 177.764 63.868 C 173.308 61.640, 167.506 63.562, 166.822 67.492 C 166.632 68.588, 165.301 70.048, 163.866 70.736 C 159.412 72.870, 158.518 74.616, 160.405 77.495 C 161.308 78.873, 162.486 80, 163.023 80 C 163.560 80, 164 80.873, 164 81.941 C 164 86.697, 169.208 84.929, 170.976 79.573 C 172.046 76.330, 172.442 76.087, 177.806 75.390 C 182.440 74.788, 183.035 74.515, 181 73.925 C 178.711 73.261, 178.784 73.191, 181.857 73.100 C 184.445 73.023, 185.083 73.342, 184.641 74.492 C 184.265 75.472, 185.129 76.533, 187.159 77.582 C 189.997 79.050, 190.381 79.047, 191.874 77.554 C 193.239 76.188, 193.276 75.789, 192.104 75.065 C 190.225 73.903, 191.526 70.762, 193.712 71.183 C 197.569 71.926, 199.578 77.234, 200.881 90.123 C 201.570 96.930, 201.849 103.237, 201.502 104.139 C 201.071 105.259, 198.757 106.114, 194.186 106.843 C 190.509 107.429, 183.152 108.830, 177.838 109.957 C 167.404 112.169, 159.390 112.842, 157 111.708 C 155.983 111.226, 154.946 111.883, 153.779 113.748 C 152.832 115.262, 151.518 117.234, 150.858 118.132 C 149.907 119.426, 150.004 120.490, 151.330 123.283 C 152.248 125.218, 153 127.319, 153 127.951 C 153 128.582, 153.687 130.427, 154.526 132.050 C 155.365 133.673, 156.485 137.284, 157.014 140.074 C 157.543 142.865, 158.588 146.577, 159.336 148.324 C 162.385 155.444, 164.195 162.218, 163.789 164.987 C 163.268 168.536, 165.233 169.651, 168.265 167.527 C 169.462 166.688, 171.365 166.305, 172.684 166.635 C 174.386 167.063, 175 166.791, 175 165.608 C 175 164.724, 175.450 164, 176 164 C 176.550 164, 177 164.675, 177 165.500 C 177 166.584, 178.039 166.972, 180.750 166.900 C 183.863 166.818, 184.088 166.685, 182.074 166.123 C 178.260 165.057, 178.516 163.275, 182.552 162.804 C 185.638 162.444, 186.328 162.732, 187.072 164.690 C 188.071 167.318, 188.368 167.408, 191.130 165.930 C 192.656 165.114, 192.867 164.544, 192.021 163.525 C 191.138 162.461, 191.784 162.026, 195.207 161.379 C 200.997 160.285, 201.500 160.310, 201.500 161.700 C 201.500 162.360, 202.063 163.463, 202.750 164.150 C 206.253 167.653, 202.742 179.562, 195.781 187.785 C 194.251 189.591, 193 191.391, 192.999 191.785 C 192.996 193.522, 149.841 235.109, 148.500 234.667 C 147.950 234.486, 147.157 230.774, 146.738 226.419 C 146.319 222.064, 145.108 211.525, 144.048 203 C 142.988 194.475, 141.632 178.275, 141.035 167 C 140.437 155.725, 139.049 138.400, 137.949 128.500 C 136.850 118.600, 135.962 109.023, 135.975 107.218 C 136.011 102.517, 133.481 96.996, 131.301 97.017 C 127.939 97.050, 112.523 99.923, 107.841 101.390 C 105.279 102.193, 102.917 102.583, 102.591 102.258 C 101.178 100.844, 102.263 97.502, 105.859 92.195 C 107.982 89.063, 110.061 85.375, 110.479 84 C 110.897 82.625, 113.435 77.288, 116.119 72.139 C 123.372 58.229, 122.855 55.935, 112.381 55.555 C 108.596 55.418, 101 54.803, 95.500 54.188 C 90 53.574, 84.898 53.055, 84.162 53.036 C 82.763 52.998, 83.137 47.934, 85.016 41.500 C 85.497 39.850, 86.134 35.475, 86.430 31.777 C 86.904 25.855, 86.740 24.931, 85.050 24.027 C 82.330 22.571, 82.074 22.678, 80.900 25.750 M 76.250 48.731 C 74.591 49.309, 74.635 54, 76.300 54 C 77.928 54, 80 51.987, 80 50.407 C 80 48.999, 78.019 48.114, 76.250 48.731 M 210.750 70.662 C 211.438 70.940, 212.563 70.940, 213.250 70.662 C 213.938 70.385, 213.375 70.158, 212 70.158 C 210.625 70.158, 210.063 70.385, 210.750 70.662 M 203.015 80.750 C 203.007 81.987, 203.450 83, 204 83 C 205.253 83, 205.253 81.939, 204 80 C 203.216 78.787, 203.028 78.931, 203.015 80.750 M 236.666 110.607 C 234.081 113.192, 233.907 113.226, 232.027 111.525 C 230.870 110.477, 229.379 110.024, 228.367 110.413 C 227.428 110.773, 226.348 110.562, 225.966 109.945 C 225.497 109.187, 223.422 109.053, 219.576 109.534 C 215.060 110.098, 214.001 110.560, 214.462 111.763 C 214.809 112.666, 214.168 113.895, 212.879 114.797 C 210.749 116.289, 210.725 116.611, 211.414 133.907 C 211.800 143.583, 212.491 151.879, 212.950 152.343 C 213.410 152.806, 214.846 152.606, 216.143 151.899 C 221.648 148.895, 248.180 147.245, 251.163 149.721 C 251.935 150.361, 253.041 150.574, 253.620 150.193 C 255.358 149.050, 259.581 140.965, 262.447 133.296 C 263.928 129.334, 266.057 124.926, 267.178 123.501 C 268.454 121.878, 269.010 120.086, 268.664 118.705 C 268.360 117.492, 267.741 114.976, 267.288 113.112 C 266.573 110.174, 266.002 109.678, 262.982 109.375 C 261.067 109.182, 258.523 108.795, 257.329 108.513 C 254.339 107.808, 251.342 108.968, 253.166 110.124 C 253.900 110.589, 255.602 110.976, 256.950 110.985 C 258.521 110.995, 259.054 111.346, 258.437 111.963 C 257.819 112.581, 256.043 112.418, 253.487 111.507 C 248.799 109.838, 244 109.581, 244 111 C 244 111.550, 243.600 112, 243.111 112 C 242.622 112, 242.285 111.230, 242.361 110.288 C 242.585 107.533, 239.572 107.701, 236.666 110.607 M 195.500 112 C 195.160 112.550, 195.191 113.500, 195.569 114.112 C 196.434 115.512, 194.154 116.996, 192.257 116.268 C 191.086 115.819, 191.070 115.571, 192.166 114.876 C 193.830 113.822, 190.878 113.886, 186.500 115 C 183.787 115.690, 183.734 115.775, 185.950 115.882 C 189.540 116.055, 187.261 117.734, 182.500 118.424 C 180.300 118.742, 179.063 118.740, 179.750 118.418 C 181.991 117.370, 181.124 115, 178.500 115 C 176.174 115, 175.568 115.840, 175.894 118.612 C 175.966 119.224, 173.931 120.012, 171.373 120.362 C 164.549 121.298, 163.711 121.195, 164.362 119.500 C 164.715 118.579, 164.360 118, 163.444 118 C 162.623 118, 161.523 119.125, 161 120.500 C 160.477 121.875, 159.578 123, 159.002 123 C 158.390 123, 158.557 123.937, 159.403 125.250 C 161.562 128.603, 166.316 146.665, 166.777 153.266 L 167.179 159.032 175.340 158.438 C 179.828 158.111, 187.438 157.204, 192.250 156.422 C 197.063 155.640, 201.352 155, 201.781 155 C 202.698 155, 202.369 118.999, 201.408 114.250 C 200.893 111.708, 200.245 111, 198.434 111 C 197.160 111, 195.840 111.450, 195.500 112 M 206 112.500 C 206 113.325, 206.436 114, 206.969 114 C 207.501 114, 207.678 113.325, 207.362 112.500 C 207.045 111.675, 206.609 111, 206.393 111 C 206.177 111, 206 111.675, 206 112.500 M 168.710 115.623 C 167.762 116.571, 169.910 119, 171.696 119 C 173.620 119, 172.941 115.612, 170.940 115.227 C 170.094 115.064, 169.091 115.243, 168.710 115.623 M 69.638 122.500 C 69.322 123.325, 69.499 124, 70.031 124 C 70.564 124, 71 123.325, 71 122.500 C 71 121.675, 70.823 121, 70.607 121 C 70.391 121, 69.955 121.675, 69.638 122.500 M 132.473 129.250 C 132.218 129.938, 132.419 131.850, 132.919 133.500 C 133.801 136.411, 133.831 136.373, 133.914 132.250 C 133.999 128.070, 133.385 126.792, 132.473 129.250 M 267.583 130.866 C 267.152 131.563, 267.070 132.403, 267.400 132.733 C 268.295 133.628, 269.271 132.312, 268.787 130.862 C 268.449 129.846, 268.213 129.846, 267.583 130.866 M 70 133.059 C 70 133.641, 70.450 133.840, 71 133.500 C 71.550 133.160, 72 132.684, 72 132.441 C 72 132.198, 71.550 132, 71 132 C 70.450 132, 70 132.477, 70 133.059 M 100.195 139.500 C 100.215 141.150, 100.439 141.704, 100.693 140.731 C 100.947 139.758, 100.930 138.408, 100.656 137.731 C 100.382 137.054, 100.175 137.850, 100.195 139.500 M 206.158 143 C 206.158 144.375, 206.385 144.938, 206.662 144.250 C 206.940 143.563, 206.940 142.438, 206.662 141.750 C 206.385 141.063, 206.158 141.625, 206.158 143 M 134.192 146.075 C 134.389 146.666, 134.978 147.150, 135.500 147.150 C 136.022 147.150, 136.611 146.666, 136.808 146.075 C 137.005 145.484, 136.417 145, 135.500 145 C 134.583 145, 133.995 145.484, 134.192 146.075 M 93.458 155.068 C 93.095 155.656, 92.076 155.859, 91.194 155.521 C 89.544 154.888, 83 157.848, 83 159.227 C 83 159.652, 83.900 160, 85 160 C 87.976 160, 87.419 161.876, 84.250 162.524 C 77.475 163.910, 76.548 165.034, 75.860 172.703 C 75.507 176.626, 75.533 181.335, 75.916 183.168 C 76.562 186.257, 76.864 186.475, 80.057 186.162 C 84.541 185.722, 93.296 183.447, 95.929 182.038 C 98.369 180.732, 98.683 175.227, 96.871 165.500 C 96.256 162.200, 95.790 158.262, 95.836 156.750 C 95.920 153.975, 94.677 153.096, 93.458 155.068 M 231.951 156.441 C 232.608 157.233, 233.788 157.635, 234.573 157.334 C 236.922 156.432, 236.188 155, 233.378 155 C 231.208 155, 230.962 155.249, 231.951 156.441 M 202.543 185.931 C 202.226 186.443, 202.425 187.144, 202.984 187.490 C 203.543 187.835, 204 187.416, 204 186.559 C 204 184.802, 203.400 184.544, 202.543 185.931 M 96 189 C 96 190.253, 97.061 190.253, 99 189 C 100.213 188.216, 100.069 188.028, 98.250 188.015 C 97.013 188.007, 96 188.450, 96 189 M 201 190.500 C 201 191.325, 201.450 192, 202 192 C 202.550 192, 203 191.325, 203 190.500 C 203 189.675, 202.550 189, 202 189 C 201.450 189, 201 189.675, 201 190.500 M 224.500 195 C 224.840 195.550, 225.316 196, 225.559 196 C 225.802 196, 226 195.550, 226 195 C 226 194.450, 225.523 194, 224.941 194 C 224.359 194, 224.160 194.450, 224.500 195 M 188 204 C 188 204.550, 188.450 205, 189 205 C 189.550 205, 190 204.550, 190 204 C 190 203.450, 189.550 203, 189 203 C 188.450 203, 188 203.450, 188 204 M 71 220 C 71 222.171, 71.738 222.452, 73.878 221.096 C 75.492 220.075, 74.529 218, 72.441 218 C 71.648 218, 71 218.900, 71 220 M 70.227 227.281 C 70.377 228.811, 70.939 230.082, 71.475 230.106 C 73.106 230.180, 73.113 228.529, 71.491 226.460 C 70.014 224.576, 69.965 224.607, 70.227 227.281 M 164 226.059 C 164 226.641, 164.450 226.840, 165 226.500 C 165.550 226.160, 166 225.684, 166 225.441 C 166 225.198, 165.550 225, 165 225 C 164.450 225, 164 225.477, 164 226.059" stroke="none" fill="black" fill-rule="evenodd"/>
</svg>