<svg xmlns="http://www.w3.org/2000/svg" width="300" height="300" viewBox="0 0 300 300" version="1.1">
	<path d="M 231.527 35.033 C 229.342 37.215, 227.204 39, 226.777 39 C 226.350 39, 226 39.862, 226 40.917 C 226 41.971, 225.587 42.983, 225.082 43.167 C 224.290 43.454, 223.705 45.917, 221.404 58.640 C 221.086 60.399, 219.844 61.013, 214.427 62.089 C 208.303 63.307, 207.700 63.668, 205.898 67.200 C 203.929 71.060, 201 72.350, 201 69.358 C 201 68.455, 199.669 66.445, 198.043 64.891 C 195.289 62.259, 195.128 61.704, 195.698 56.783 C 196.127 53.069, 197.005 50.846, 198.654 49.298 C 199.945 48.087, 201 46.624, 201 46.048 C 201 45.471, 201.418 45, 201.929 45 C 205.380 45, 207.273 38.301, 204.477 35.981 C 201.630 33.618, 192.908 39.043, 187.608 46.473 C 186.339 48.252, 185.946 48.309, 183.601 47.054 C 182.170 46.288, 181 44.888, 181 43.942 C 181 42.996, 180.139 41.159, 179.086 39.861 L 177.173 37.500 174.981 40 C 170.704 44.877, 170.065 51, 173.831 51 C 175.712 51, 179 57.563, 179 61.316 C 179 62.582, 178.339 64.491, 177.532 65.559 C 176.724 66.626, 176.049 68.057, 176.032 68.739 C 176.002 69.893, 175.424 70.713, 170.727 76.264 C 168.392 79.023, 168.984 80.433, 172.632 80.799 C 174.966 81.033, 175.905 80.547, 176.974 78.549 C 177.724 77.147, 178.847 76, 179.470 76 C 180.092 76, 181.585 73.975, 182.788 71.500 C 184.762 67.437, 188 65.328, 188 68.106 C 188 68.714, 189.125 70.097, 190.500 71.179 C 192.850 73.027, 193.921 76, 192.237 76 C 191.818 76, 191.030 76.873, 190.487 77.941 C 185.666 87.420, 178.728 99, 177.871 99 C 177.289 99, 176.577 98.100, 176.290 97 C 176.002 95.900, 175.032 95.006, 174.133 95.014 C 168.018 95.065, 165.524 98.499, 168.940 102.166 C 171.531 104.947, 171.520 105.651, 168.867 107.071 C 166.276 108.458, 159.467 107.532, 156.115 105.338 C 153.778 103.808, 153.744 103.571, 154.424 93.697 C 154.805 88.154, 155.374 83.203, 155.688 82.696 C 156.002 82.188, 158.166 80.930, 160.497 79.898 C 162.828 78.867, 165.209 77.453, 165.787 76.756 C 167.749 74.393, 168.137 70.565, 166.625 68.500 C 165.163 66.503, 165.158 66.503, 162.831 68.559 C 161.549 69.692, 159.247 71.151, 157.716 71.803 C 155.430 72.776, 154.833 72.729, 154.376 71.538 C 153.850 70.166, 155.148 59.423, 156.496 54 C 156.886 52.430, 156.537 50.756, 155.558 49.500 L 154 47.500 152.546 49.500 C 151.746 50.600, 150.166 52.421, 149.034 53.546 C 146.483 56.083, 145 61.064, 145 67.094 C 145 71.696, 143.385 77.928, 142.152 78.081 C 123.492 80.406, 117 83.260, 117 89.139 C 117 93.902, 119.833 94.460, 128.619 91.427 C 137.962 88.202, 139.221 89.132, 134.639 95.879 C 132.912 98.420, 131.150 100.654, 130.723 100.842 C 130.296 101.030, 129.065 102.913, 127.987 105.026 C 126.909 107.139, 124.842 110.135, 123.395 111.684 C 114.354 121.359, 110.090 128.690, 112.249 130.849 C 114.075 132.675, 117.863 132.190, 119.760 129.888 C 120.717 128.727, 122.063 127.184, 122.750 126.460 C 123.438 125.735, 124 124.889, 124 124.579 C 124 124.005, 124.626 123.222, 131.969 114.609 C 134.262 111.919, 136.834 108.657, 137.684 107.359 C 141.831 101.030, 144.287 107.956, 144.413 126.330 C 144.491 137.819, 144.703 139.309, 146.441 140.580 C 151.241 144.091, 152.925 140.981, 152.982 128.500 C 153.049 113.792, 152.637 114.428, 162.059 114.467 C 166.426 114.485, 169.999 114.576, 169.999 114.668 C 170.001 115.195, 164.586 125.584, 164.093 126 C 162.415 127.415, 160.978 131.357, 161.520 133.063 C 162.434 135.943, 166.631 135.517, 169.538 132.250 C 175.338 125.731, 176 124.878, 176 123.924 C 176 122.277, 180.277 117, 181.611 117 C 182.291 117, 184.184 118.125, 185.818 119.500 C 187.452 120.875, 189.430 122, 190.214 122 C 190.998 122, 192.546 123.043, 193.655 124.318 C 195.256 126.159, 196.426 126.549, 199.335 126.209 C 201.732 125.929, 203 125.263, 203 124.284 C 203 123.461, 204.350 121.083, 206 119 C 207.650 116.917, 209 114.918, 209 114.558 C 209 114.198, 210.473 111.563, 212.273 108.702 C 214.073 105.841, 216.088 102.263, 216.751 100.750 C 218.113 97.645, 219.914 97.118, 220.171 99.750 C 220.265 100.713, 220.378 110.540, 220.421 121.588 C 220.505 143.028, 221.021 145.426, 225.412 144.798 C 227.295 144.529, 227.520 143.764, 227.708 137 C 228.010 126.149, 230.190 107.001, 231.195 106.380 C 232.488 105.580, 240.533 109.761, 244.084 113.079 C 245.804 114.686, 248.064 116, 249.106 116 C 250.704 116, 250.994 115.258, 250.963 111.250 C 250.929 106.749, 250.699 106.356, 246.584 103.750 C 244.195 102.237, 241.286 101, 240.120 101 C 238.954 101, 237.100 100.100, 236 99 C 234.900 97.900, 233.334 97, 232.519 97 C 230.174 97, 229.563 92.140, 230.950 84.525 C 231.654 80.661, 232.457 75.154, 232.736 72.288 C 233.210 67.399, 233.455 67.005, 236.680 65.940 C 238.572 65.316, 240.655 64.686, 241.310 64.540 C 245.004 63.717, 251.079 60.197, 252.109 58.284 C 254.554 53.740, 247.862 51.079, 242.623 54.512 C 241.354 55.343, 238.583 56.131, 236.465 56.262 L 232.615 56.500 232.853 51.500 C 232.991 48.591, 234.117 44.475, 235.545 41.658 C 238.185 36.450, 238.805 30.979, 236.750 31.033 C 236.063 31.051, 233.712 32.851, 231.527 35.033 M 214.768 74 C 213.919 75.359, 212.436 76, 210.137 76 C 207.330 76, 205.801 76.985, 201.128 81.807 C 195.570 87.541, 194.837 88.645, 191.370 96.500 C 190.399 98.700, 189.187 100.787, 188.676 101.137 C 188.166 101.487, 187.692 103.483, 187.624 105.571 C 187.512 108.988, 187.935 109.664, 191.835 112.308 C 197.367 116.058, 199.521 115.105, 202.975 107.382 C 204.337 104.338, 205.912 101.544, 206.475 101.174 C 207.039 100.803, 208.113 98.925, 208.862 97 C 214.700 82.005, 217.661 76.020, 219.250 76.006 C 219.662 76.003, 220 75.100, 220 74 C 220 72.670, 219.333 72, 218.008 72 C 216.913 72, 215.455 72.900, 214.768 74 M 50.910 96.759 C 48.374 99.774, 47.787 104.645, 49.726 106.584 C 51.049 107.906, 52.549 108.123, 57.089 107.648 C 60.225 107.321, 63.850 106.580, 65.145 106.002 C 66.440 105.425, 70.200 104.625, 73.500 104.225 C 78.633 103.603, 79.545 103.183, 79.811 101.317 C 80.242 98.286, 77.955 97.374, 68 96.609 C 63.325 96.250, 57.925 95.711, 56 95.412 C 53.341 94.999, 52.118 95.322, 50.910 96.759 M 80.322 114.078 C 77.933 116.467, 40.363 123.960, 38.023 122.514 C 36.813 121.766, 31 127.518, 31 129.463 C 31 132.304, 34.103 134.156, 37.886 133.573 C 39.874 133.267, 43.750 132.739, 46.500 132.400 C 49.250 132.061, 52.175 131.426, 53 130.990 C 53.825 130.554, 56.750 129.873, 59.500 129.476 C 62.250 129.079, 66.017 128.134, 67.872 127.377 C 72.870 125.336, 76 125.576, 76 128 C 76 129.100, 75.583 130, 75.074 130 C 74.564 130, 72.932 132.484, 71.447 135.519 C 69.962 138.555, 68.388 141.260, 67.950 141.531 C 67.512 141.801, 66.872 143.307, 66.527 144.876 C 66.182 146.446, 65.121 148.578, 64.168 149.615 C 62.683 151.230, 54.602 163.441, 51.500 168.756 C 50.950 169.698, 49.712 171.064, 48.750 171.791 C 47.788 172.519, 47 173.655, 47 174.316 C 47 174.978, 46.189 176.026, 45.197 176.645 C 44.206 177.264, 41.197 181.085, 38.511 185.135 C 35.824 189.186, 32.649 193.625, 31.455 195 C 30.260 196.375, 28.432 199.075, 27.392 201 C 26.351 202.925, 25.275 204.725, 25 205 C 24.725 205.275, 23.956 206.400, 23.290 207.500 C 16.472 218.773, 15.817 221.149, 19.341 221.827 C 20.340 222.020, 22.248 221.904, 23.579 221.570 C 25.434 221.104, 26 220.294, 26 218.103 C 26 216.531, 26.635 214.718, 27.410 214.074 C 28.186 213.431, 30.527 210.226, 32.612 206.952 C 34.698 203.678, 36.763 201, 37.202 201 C 37.641 201, 38 200.537, 38 199.971 C 38 198.871, 47.426 186.187, 49.516 184.475 C 50.204 183.911, 50.937 182.567, 51.145 181.487 C 51.353 180.407, 52.305 179.372, 53.261 179.188 C 54.840 178.884, 55.018 180.168, 55.192 193.177 C 55.298 201.055, 55.333 208.625, 55.271 210 C 55.209 211.375, 55.626 217.675, 56.196 224 C 56.767 230.325, 57.154 238.875, 57.057 243.001 C 56.778 254.839, 58.878 275.676, 60.743 279.588 C 63.548 285.469, 69.746 285.503, 68.559 279.632 C 66.612 269.995, 65.956 261.020, 65.556 238.500 C 64.843 198.384, 64.748 169.918, 65.327 169.340 C 66.223 168.444, 70.935 172.390, 70.969 174.066 C 70.986 174.927, 72.795 176.641, 74.989 177.874 C 77.184 179.107, 80.894 182.387, 83.234 185.163 C 85.574 187.938, 89.152 191.057, 91.184 192.094 C 94.572 193.823, 95.011 193.846, 96.480 192.377 C 97.950 190.907, 97.949 190.572, 96.475 188.321 C 94.245 184.918, 92.195 182.449, 87.162 177.106 C 83.329 173.035, 82.880 172.078, 83.301 168.870 C 83.616 166.474, 85.598 162.906, 89.136 158.370 C 92.084 154.592, 94.834 151.350, 95.248 151.167 C 95.661 150.983, 96 150.196, 96 149.417 C 96 148.637, 96.415 148, 96.923 148 C 97.431 148, 99.231 146.615, 100.923 144.923 C 104.719 141.127, 105.210 135.718, 101.918 133.956 C 100.195 133.034, 99.160 133.310, 95.918 135.557 C 93.763 137.050, 92 138.566, 92 138.926 C 92 139.286, 90.200 141.569, 88 144 C 85.800 146.431, 84 149, 84 149.710 C 84 150.419, 83.660 151, 83.244 151 C 82.506 151, 81.140 153.702, 79.074 159.250 C 78.032 162.047, 76 163.032, 76 160.741 C 76 160.048, 75.100 158.919, 74 158.232 C 72.900 157.545, 72 156.397, 72 155.680 C 72 154.963, 72.900 153.411, 74 152.230 C 75.100 151.050, 76 149.639, 76 149.095 C 76 148.551, 77.187 145.945, 78.638 143.303 C 86.891 128.280, 87.217 127.479, 87.527 121.505 C 87.698 118.208, 87.370 114.945, 86.797 114.255 C 85.520 112.716, 81.786 112.614, 80.322 114.078 M 176.458 136.384 C 174.038 138.839, 170.266 144.557, 167.885 149.384 C 164.195 156.862, 163.295 158, 161.067 158.001 C 159.655 158.002, 155.125 158.697, 151 159.546 C 144.400 160.904, 140.006 161.526, 122.467 163.584 C 120.250 163.844, 116.987 164.938, 115.217 166.014 C 112.477 167.681, 112 168.550, 112 171.878 C 112 174.517, 112.513 175.983, 113.580 176.392 C 115.568 177.155, 126 175.979, 126 174.992 C 126 174.123, 131.967 172.579, 141.115 171.082 C 147.972 169.960, 154 169.666, 154 170.453 C 154 172.093, 151.332 176.208, 149.482 177.420 C 147.636 178.629, 139.648 189.524, 134.081 198.424 C 133.301 199.672, 131.163 201.720, 129.331 202.975 C 127.499 204.231, 126 205.809, 126 206.483 C 126 207.157, 123.862 208.388, 121.250 209.219 C 117.667 210.358, 116.418 211.282, 116.165 212.980 C 115.660 216.377, 117.302 217.332, 122.346 216.575 C 125.211 216.146, 128.050 214.836, 130.171 212.967 C 132.002 211.353, 133.813 210.025, 134.195 210.016 C 135.112 209.995, 143.386 201.180, 143.902 199.673 C 144.124 199.028, 145.699 197.127, 147.402 195.450 C 150.533 192.367, 151.161 191.511, 155.240 184.758 C 156.483 182.699, 157.872 181.012, 158.327 181.008 C 159.988 180.992, 165 175.098, 165 173.159 C 165 169.689, 166.094 167.833, 167.467 168.973 C 168.326 169.686, 169.658 169.518, 171.858 168.421 C 173.594 167.555, 177.599 166.425, 180.758 165.910 C 183.916 165.396, 187.963 164.705, 189.750 164.374 C 192.866 163.798, 193 163.905, 193 166.982 C 193 171.263, 195.890 175.942, 198.990 176.679 C 200.370 177.007, 201.950 177.604, 202.500 178.006 C 203.050 178.407, 205.975 179.528, 209 180.496 C 212.025 181.465, 215.175 182.842, 216 183.557 C 221.022 187.909, 238.987 192.148, 243.095 189.949 C 245.259 188.791, 245.617 185.706, 243.750 184.311 C 243.063 183.797, 240.025 182.808, 237 182.115 C 229.933 180.494, 226 178.983, 226 177.890 C 226 177.414, 224.200 176.736, 222 176.384 C 219.800 176.032, 218 175.361, 218 174.893 C 218 173.796, 210.586 170, 208.444 170 C 205.892 170, 201 166.737, 200.999 165.034 C 200.999 163.822, 202.309 163.494, 207.249 163.473 C 218.981 163.424, 235.164 162.236, 235.951 161.367 C 237.215 159.970, 237.940 154.521, 237.053 153.085 C 235.954 151.308, 225.895 150.550, 221.715 151.929 C 219.869 152.538, 214.115 153.209, 208.929 153.420 C 193.381 154.052, 180.971 155.238, 180.410 156.146 C 179.403 157.775, 176 157.054, 176 155.211 C 176 152.823, 179.108 146.849, 182.363 142.980 C 185.614 139.116, 186.626 135.459, 184.989 133.487 C 182.988 131.075, 181.039 131.737, 176.458 136.384 M 186.703 187.032 C 185.164 188.647, 183.528 189.863, 183.067 189.734 C 182.027 189.443, 174.718 194.561, 170.914 198.243 C 168.084 200.983, 153.578 210, 152.001 210 C 151.542 210, 151.017 210.338, 150.833 210.750 C 150.650 211.162, 149.150 212.192, 147.500 213.038 C 143.563 215.057, 143.423 218.376, 147.256 218.817 C 149.038 219.022, 151.532 218.108, 154.316 216.229 C 156.684 214.631, 160.286 213.053, 162.321 212.723 C 164.356 212.393, 166.723 211.420, 167.582 210.561 C 170.579 207.564, 171.695 208.719, 172.394 215.546 C 173.223 223.628, 171.721 227.611, 167.966 227.288 C 165.368 227.065, 160.024 228.316, 153.730 230.620 C 151.656 231.379, 148.668 232, 147.091 232 C 145.513 232, 143.209 232.820, 141.971 233.822 C 139.781 235.596, 139.768 235.716, 141.483 238.334 C 144.477 242.904, 147.464 242.981, 162.785 238.885 C 171.736 236.492, 174.154 236.976, 172.131 240.755 C 171.231 242.438, 169.290 242.895, 158.789 243.901 C 146.612 245.068, 134.103 245.930, 128.695 245.976 C 125.976 245.999, 125.900 246.145, 126.195 250.750 L 126.500 255.500 136 255.243 C 141.225 255.101, 150.225 254.471, 156 253.843 C 172.497 252.048, 171.147 251.735, 172.499 257.667 C 173.940 263.991, 173.501 275.044, 171.762 276.223 C 170.361 277.173, 160.836 276.292, 160.019 275.137 C 158.851 273.487, 153.229 270.104, 152.637 270.696 C 150.949 272.385, 152.217 276.056, 155.250 278.258 C 158.689 280.755, 170.368 285, 173.798 285 C 174.917 285, 176.020 285.560, 176.248 286.245 C 176.512 287.036, 177.818 286.335, 179.832 284.322 C 182.607 281.546, 183.019 280.432, 183.157 275.327 C 183.243 272.122, 183.410 266.050, 183.527 261.834 C 183.824 251.195, 184.492 249, 187.436 249 C 188.755 249, 191.934 248.100, 194.500 247 C 197.066 245.900, 199.916 244.998, 200.833 244.996 C 202.798 244.991, 210.530 241.183, 214.914 238.061 C 217.427 236.272, 218 235.164, 218 232.099 C 218 230.028, 217.718 228.051, 217.373 227.707 C 216.585 226.918, 211.777 229.359, 210.072 231.413 C 208.205 233.663, 203.335 235.905, 196.500 237.662 C 184.169 240.832, 182.536 240.604, 184.972 236.053 C 185.650 234.785, 187.664 234.023, 191.651 233.524 C 197.122 232.841, 198.455 232.279, 205.743 227.588 C 209.241 225.336, 210.013 222.086, 207.538 220.032 C 206.366 219.059, 204.991 219.332, 200.600 221.409 C 197.588 222.834, 194.196 224, 193.062 224 C 191.928 224, 191 224.450, 191 225 C 191 225.550, 189.200 226, 187 226 L 183 226 183 215.034 C 183 203.042, 184.413 198.187, 188.547 195.975 C 189.793 195.308, 191.620 193.263, 192.607 191.431 C 194.338 188.216, 194.336 188.029, 192.545 186.050 C 190.207 183.466, 190.080 183.488, 186.703 187.032" stroke="none" fill="black" fill-rule="evenodd"/>
</svg>