<svg xmlns="http://www.w3.org/2000/svg" width="300" height="300" viewBox="0 0 300 300" version="1.1">
	<path d="M 155.960 12.649 C 152.369 13.621, 150.907 19.075, 150.854 31.706 L 150.802 43.820 146.151 44.295 C 138.541 45.073, 128 49.210, 126.436 52.034 C 123.938 56.547, 125.116 62, 128.590 62 C 129.244 62, 132.642 59.874, 136.140 57.275 C 143.724 51.642, 148.555 48.888, 149.390 49.724 C 149.726 50.059, 150 54.875, 150 60.427 C 150 69.903, 150.158 70.691, 152.592 73.316 C 157.128 78.208, 158.415 76.766, 159.128 65.990 C 159.474 60.770, 160.233 52.868, 160.814 48.428 C 162.845 32.928, 162.347 16.526, 159.747 13.250 C 158.727 11.964, 158.577 11.941, 155.960 12.649 M 191.667 14.816 C 190.570 16.027, 189.678 19.939, 188.985 26.566 C 188.415 32.030, 187.517 40.550, 186.991 45.500 C 185.576 58.819, 185.736 64.593, 187.571 66.429 C 189.498 68.355, 190.102 68.377, 192.521 66.609 C 194.037 65.500, 194.445 63.870, 194.531 58.589 C 194.591 54.943, 195.169 51.431, 195.816 50.784 C 196.463 50.137, 200.037 49.557, 203.758 49.496 C 207.741 49.430, 211.841 48.727, 213.728 47.786 C 215.490 46.907, 218.860 45.880, 221.216 45.504 C 227.147 44.558, 233 40.629, 233 37.593 C 233 33.518, 228.565 32.879, 222.461 36.074 C 220.281 37.216, 215.803 38.353, 212.500 38.604 C 209.200 38.855, 204.547 39.221, 202.160 39.417 L 197.820 39.775 198.396 36.637 C 198.713 34.912, 199.034 29.989, 199.111 25.697 C 199.233 18.825, 198.976 17.603, 196.951 15.447 C 194.199 12.518, 193.790 12.470, 191.667 14.816 M 48.986 62.820 C 44.644 64.770, 41 68.517, 41 71.033 C 41 75.247, 46.652 78.990, 48.500 76 C 50.009 73.558, 63.643 75.179, 74.879 79.136 C 78.963 80.575, 80.588 80.757, 81.629 79.893 C 83.578 78.275, 83.361 77.424, 80.250 74.473 C 75.961 70.405, 70.558 68.028, 64.057 67.348 C 59.597 66.882, 57.529 66.128, 55.871 64.362 C 53.636 61.984, 51.777 61.567, 48.986 62.820 M 86.559 82.558 C 85.491 83.351, 83.004 84, 81.031 84 C 79.059 84, 76.377 84.748, 75.073 85.662 C 73.768 86.576, 70.968 87.701, 68.850 88.162 C 66.733 88.623, 63.313 89.429, 61.250 89.954 C 59.188 90.479, 55.700 91.325, 53.500 91.834 C 49.613 92.733, 45.666 94.385, 39.500 97.692 C 37.850 98.577, 35.262 99.942, 33.750 100.724 C 30.600 102.354, 30.294 104.540, 32.772 107.710 L 34.500 109.921 43 107.116 C 47.675 105.573, 53.399 103.338, 55.720 102.150 C 58.040 100.962, 62.496 99.324, 65.622 98.510 C 68.748 97.696, 72.374 96.329, 73.681 95.473 C 76.298 93.759, 78 94.251, 78 96.721 C 78 99.409, 68.907 114.019, 64.255 118.805 C 61.847 121.283, 58.766 125.379, 57.410 127.906 C 49.865 141.959, 45.936 147.621, 37.032 157.275 C 28.778 166.225, 26.802 169.100, 20.515 181.308 C 14.050 193.861, 14.026 194.652, 20.086 195.615 C 24.278 196.281, 27.978 193.303, 28.044 189.211 C 28.141 183.215, 33.697 173.786, 42.747 164.263 C 46.899 159.893, 51.334 154.164, 52.882 151.172 C 53.642 149.702, 54.992 147.790, 55.882 146.922 C 56.772 146.054, 59.750 142.071, 62.500 138.072 C 65.250 134.073, 69.075 128.869, 71 126.509 C 80.788 114.506, 89.155 99.387, 91.044 90.289 C 92.076 85.317, 92.005 84.563, 90.347 82.932 C 88.712 81.324, 88.277 81.281, 86.559 82.558 M 204.416 86.421 C 202.720 87.159, 197.995 88.096, 193.916 88.502 C 189.837 88.908, 184.700 90.059, 182.500 91.059 C 176.761 93.669, 161.148 98.222, 159.714 97.704 C 159.046 97.463, 157.375 97.834, 156 98.530 C 154.625 99.226, 151.475 100.324, 149 100.970 C 146.525 101.617, 142.925 102.901, 141 103.825 C 137.691 105.412, 137.500 105.776, 137.500 110.502 C 137.500 114.912, 137.763 115.537, 139.733 115.817 C 140.961 115.992, 144.111 115.027, 146.733 113.673 C 157.664 108.030, 159.709 107.180, 164 106.498 C 166.475 106.104, 169.243 105.126, 170.152 104.325 C 171.157 103.438, 173.294 102.991, 175.609 103.184 L 179.415 103.500 179.248 157.219 C 179.157 186.765, 178.590 216.649, 177.989 223.629 C 176.352 242.635, 177.797 249.723, 183.608 251.202 C 188.396 252.421, 190.454 248.521, 187.358 244.100 C 185.937 242.072, 185.804 239.779, 186.370 227.128 C 186.730 219.083, 187.253 199.281, 187.531 183.124 C 187.810 166.967, 188.317 153.297, 188.657 152.745 C 189.800 150.896, 190.904 154.549, 192.049 163.967 C 192.671 169.076, 193.814 175.054, 194.589 177.253 C 195.365 179.452, 196 182.304, 196 183.591 C 196 186.058, 198.888 188.210, 202.458 188.403 C 204.327 188.505, 204.474 189.063, 204.187 195.007 C 203.671 205.706, 201.040 211.407, 192.491 220.354 C 188.042 225.010, 188.831 226.415, 195.837 226.309 C 202.004 226.216, 204.491 224.860, 207.009 220.217 C 208.117 218.172, 210.481 214.421, 212.262 211.879 C 214.043 209.338, 216.267 205.851, 217.203 204.129 C 218.140 202.408, 219.346 201, 219.882 201 C 220.997 201, 230 212.535, 230 213.963 C 230 214.480, 231.563 216.422, 233.473 218.277 C 235.945 220.677, 236.926 222.494, 236.876 224.575 C 236.836 226.184, 236.902 229.449, 237.021 231.831 C 237.140 234.213, 236.745 236.655, 236.143 237.257 C 235.540 237.860, 232.824 238.386, 230.107 238.426 C 226.078 238.486, 224.317 237.901, 220.554 235.250 C 215.105 231.411, 215 231.389, 215 234.096 C 215 238.598, 218.677 241.746, 227.138 244.485 C 237.217 247.747, 242.351 247.589, 242.841 244 C 243.029 242.625, 243.880 240.720, 244.732 239.766 C 246.053 238.287, 246.182 235.787, 245.611 222.766 C 245.243 214.370, 244.511 203.225, 243.985 198 C 243.459 192.775, 242.339 180.175, 241.496 170 C 237.672 123.838, 237.172 119.677, 234.639 113 C 229.353 99.061, 223.724 91.759, 215.063 87.607 C 208.855 84.631, 208.595 84.602, 204.416 86.421 M 126.238 96.250 C 123.793 99.284, 122.221 137.670, 121.888 202.500 C 121.734 232.336, 124.338 249, 129.154 249 C 130.810 249, 138.524 245.653, 140 244.294 C 140.275 244.040, 140.515 240.383, 140.532 236.167 C 140.556 230.418, 141.048 227.687, 142.498 225.250 C 145.470 220.254, 146.977 221.066, 147.140 227.750 C 147.365 236.985, 147.714 240.059, 149.435 247.960 C 151.366 256.822, 153.306 258.752, 157.267 255.750 C 158.706 254.660, 158.800 253.413, 158.006 246 C 157.505 241.325, 156.961 236.600, 156.798 235.500 C 156.548 233.824, 156.986 233.551, 159.500 233.816 C 161.150 233.989, 163.674 234.710, 165.108 235.418 C 167.266 236.483, 168.182 236.461, 170.419 235.289 C 173.548 233.649, 173.516 231.066, 170.348 229.486 C 169.174 228.901, 167.603 227.936, 166.857 227.341 C 166.110 226.747, 163.863 225.966, 161.862 225.606 C 158.325 224.970, 158.209 224.807, 157.653 219.726 C 156.748 211.444, 158.269 188.500, 159.724 188.500 C 160.397 188.500, 163.189 190.674, 165.928 193.332 C 171.806 199.034, 174.359 199.224, 174.783 193.992 C 174.997 191.347, 174.180 189.166, 171.413 185 C 169.404 181.975, 167.531 177.819, 167.251 175.765 C 166.970 173.710, 166.146 171.536, 165.418 170.932 C 163.593 169.417, 160.495 170.596, 158.566 173.539 C 157.680 174.893, 156.514 176, 155.977 176 C 154.394 176, 154.855 173.125, 156.905 170.210 C 159.539 166.464, 161.553 154.901, 160.058 152.108 C 159.437 150.949, 158.045 150, 156.965 150 C 154.380 150, 154.467 149.557, 157.915 145.191 C 159.518 143.161, 162.480 138.350, 164.496 134.500 C 166.513 130.650, 168.861 126.724, 169.713 125.776 C 171.116 124.215, 171.103 123.806, 169.574 121.472 C 167.046 117.614, 165.238 117.398, 161.940 120.557 C 160.323 122.107, 159 123.697, 159 124.092 C 159 125.718, 148.599 141.649, 143.712 147.508 C 141.827 149.768, 140.734 152.453, 140.338 155.794 L 139.753 160.736 144.376 161.429 C 148.070 161.983, 149 162.518, 149 164.087 C 149 165.901, 143.249 177.562, 136.810 188.804 C 135.331 191.387, 133.612 194.625, 132.990 196 C 131.953 198.294, 131.776 198.352, 130.852 196.701 C 130.299 195.711, 130.035 191.661, 130.267 187.701 C 130.499 183.740, 131.234 170.375, 131.899 158 C 132.565 145.625, 133.424 130.511, 133.808 124.414 C 134.192 118.316, 134.216 111.566, 133.862 109.414 C 133.507 107.261, 133.657 104.671, 134.194 103.657 C 135.640 100.927, 134.396 97.501, 131.477 96.171 C 128.229 94.691, 127.484 94.703, 126.238 96.250 M 195.500 97.374 L 189.500 98.500 189.285 118 C 189.167 128.725, 188.983 138.175, 188.877 139 C 188.772 139.825, 188.756 141.349, 188.842 142.386 C 188.983 144.074, 189.277 143.996, 191.636 141.636 C 193.086 140.186, 194.629 139, 195.065 139 C 197.080 139, 199 142.466, 199 146.103 C 199 148.715, 199.515 150.260, 200.513 150.643 C 202.580 151.437, 205.236 149.049, 204.466 147.090 C 204.122 146.215, 203.472 141.902, 203.021 137.505 C 202.390 131.346, 202.522 128.892, 203.594 126.818 C 205.353 123.416, 206.510 122.710, 209.020 123.506 C 212.068 124.474, 214 129.243, 214 135.801 C 214 141.487, 215.497 147.932, 216.848 148.064 C 217.207 148.099, 219.010 148.275, 220.856 148.456 C 222.702 148.636, 224.865 149.437, 225.662 150.234 C 228.734 153.306, 226.792 168.068, 222.847 171.639 C 221.831 172.558, 221 173.760, 221 174.311 C 221 174.861, 219.968 176.704, 218.708 178.406 C 216.379 181.549, 213.309 191.642, 214.361 192.695 C 215.120 193.453, 220 190.236, 220 188.977 C 220 188.440, 221.266 188, 222.813 188 C 225.209 188, 226.125 188.889, 229 194 C 232.086 199.486, 233.735 200.932, 235.217 199.450 C 235.519 199.147, 235.358 197.235, 234.858 195.200 C 234.359 193.165, 233.764 187.225, 233.537 182 C 232.695 162.615, 229.512 132.658, 227.056 121 C 225.082 111.631, 224.700 110.448, 223.022 108.500 C 222.074 107.400, 221.040 105.765, 220.725 104.867 C 219.900 102.513, 210.191 97.336, 205.500 96.750 C 203.300 96.474, 198.800 96.755, 195.500 97.374 M 98.408 125.500 C 97.507 126.875, 96.394 128, 95.935 128 C 94.201 128, 85.202 134.653, 77.262 141.805 C 71.893 146.640, 68.874 148.750, 68.595 147.862 C 68.360 147.113, 67.896 145.262, 67.564 143.750 C 67.233 142.238, 66.543 141, 66.032 141 C 64.637 141, 59.013 147.144, 57.794 150 C 55.638 155.049, 54.978 234.847, 56.999 245.995 C 58.188 252.552, 59.508 255.642, 62 257.698 C 65.883 260.904, 70.453 256.915, 67.746 252.683 C 64.241 247.206, 63.687 241.496, 64.393 218.188 C 64.771 205.710, 65.306 186.729, 65.582 176.008 C 65.858 165.288, 66.511 156.089, 67.033 155.567 C 67.631 154.969, 69.306 156.166, 71.569 158.809 C 73.542 161.114, 75.717 163, 76.404 163 C 77.090 163, 78.708 164.125, 80 165.500 C 81.292 166.875, 83.358 168, 84.591 168 C 85.824 168, 86.983 168.402, 87.167 168.893 C 87.864 170.761, 98.032 175.882, 102.321 176.525 C 106.329 177.126, 106.875 176.971, 107.484 175.051 C 108.384 172.215, 106.914 170.621, 101.486 168.548 C 99.019 167.606, 97 166.431, 97 165.938 C 97 165.444, 95.313 164.171, 93.250 163.108 C 87.914 160.357, 80.989 154.143, 81.063 152.172 C 81.150 149.844, 94.186 138.776, 98.682 137.213 C 103.585 135.508, 104.745 134.436, 105.524 130.890 C 106.256 127.558, 103.931 123, 101.500 123 C 100.700 123, 99.309 124.125, 98.408 125.500 M 216 161 C 216 165.671, 216.373 165.886, 218.595 162.495 C 219.918 160.476, 219.996 159.700, 218.996 158.495 C 216.933 156.010, 216 156.790, 216 161 M 202.258 161.238 C 200.910 162.928, 201.305 176.268, 202.718 176.739 C 204.466 177.322, 205.102 175.437, 205.483 168.548 C 205.853 161.838, 204.403 158.549, 202.258 161.238 M 130.228 212.361 C 130.210 217.510, 130.520 223.247, 130.917 225.111 L 131.637 228.500 133.718 224.487 C 136.058 219.975, 140.653 215, 142.481 215 C 144.483 215, 146.789 211.724, 147.505 207.865 C 148.278 203.698, 146.686 201.849, 145.015 204.972 C 144.418 206.087, 143.229 207, 142.373 207 C 141.516 207, 139.684 207.890, 138.301 208.978 C 134.972 211.596, 132 210.175, 132 205.965 C 132 204.334, 131.608 203, 131.130 203 C 130.651 203, 130.245 207.213, 130.228 212.361" stroke="none" fill="black" fill-rule="evenodd"/>
</svg>