<svg xmlns="http://www.w3.org/2000/svg" width="300" height="300" viewBox="0 0 300 300" version="1.1">
	<path d="M 168.608 22.578 C 167.898 24.429, 173.014 30, 175.423 30 C 176.290 30, 177 30.543, 177 31.207 C 177 32.880, 191.642 47, 193.377 47 C 194.152 47, 195.059 46.289, 195.392 45.421 C 196.144 43.460, 195.100 39, 193.888 39 C 192.771 39, 183 29.653, 183 28.585 C 183 28.154, 182.274 26.272, 181.386 24.401 C 179.851 21.166, 179.514 21, 174.493 21 C 170.607 21, 169.054 21.416, 168.608 22.578 M 60 48 C 60 50, 60.500 51, 61.500 51 C 62.325 51, 63 51.631, 63 52.401 C 63 54.149, 69.482 58.086, 70.645 57.044 C 72.218 55.635, 77.840 57.918, 78.571 60.262 C 79.446 63.067, 80.788 63.965, 84.131 63.985 C 86.879 64.001, 93 69.294, 93 71.655 C 93 73.596, 89.603 75, 84.904 75 C 82.578 75, 78.386 75.646, 75.588 76.435 C 69.193 78.240, 61.543 79.993, 57 80.696 C 52.257 81.429, 51 82.654, 51 86.546 L 51 89.846 53.923 86.923 C 58.302 82.544, 60.582 83.038, 60.052 88.250 C 59.836 90.381, 60.891 90.425, 66.866 88.532 C 74.061 86.252, 83.417 84, 85.693 84 C 88.604 84, 90.879 81.163, 88.936 79.956 C 88.068 79.417, 87.368 79.447, 87.167 80.032 C 86.983 80.564, 85.985 81, 84.948 81 C 83.683 81, 83.252 80.506, 83.638 79.500 C 84.455 77.373, 93 77.386, 93 79.514 C 93 80.346, 93.532 81.878, 94.181 82.919 C 95.171 84.504, 94.915 85.352, 92.602 88.155 C 86.214 95.894, 76.782 108.521, 75.418 111.159 C 74.610 112.722, 73.510 114, 72.974 114 C 72.438 114, 72 114.447, 72 114.994 C 72 115.541, 70.088 117.968, 67.750 120.387 C 65.412 122.807, 57.425 131.228, 50 139.100 C 42.575 146.973, 35.037 154.911, 33.250 156.741 C 31.462 158.570, 30 160.502, 30 161.033 C 30 161.565, 29.662 162, 29.248 162 C 28.248 162, 24.345 169.764, 23.550 173.335 C 22.708 177.120, 23.730 180, 25.914 180 C 28.788 180, 31.645 176.786, 32.404 172.697 C 32.793 170.606, 33.761 168.645, 34.555 168.340 C 35.350 168.036, 36 167.429, 36 166.993 C 36 166.230, 42.831 159, 43.552 159 C 44.226 159, 54 148.900, 54.002 148.202 C 54.004 147.504, 62.214 142, 63.254 142 C 63.554 142, 64.055 143.912, 64.368 146.250 C 64.680 148.588, 65.215 152.325, 65.555 154.556 C 66.019 157.598, 65.777 158.940, 64.587 159.928 C 63.214 161.067, 62.996 160.924, 62.968 158.872 C 62.951 157.568, 62.227 155.600, 61.361 154.500 C 59.864 152.601, 59.818 152.676, 60.432 156 C 62.750 168.556, 63.085 173.727, 62.323 185.161 C 61.870 191.947, 61.861 201.550, 62.302 206.500 C 62.743 211.450, 62.841 220.225, 62.520 226 C 61.780 239.342, 61.777 237.965, 62.580 261.300 C 63.162 278.228, 63.522 281.420, 65.060 283.300 C 66.498 285.059, 67.111 285.251, 68.123 284.256 C 69.143 283.253, 69.068 281.701, 67.739 276.256 C 66.330 270.488, 66.082 262.729, 66.047 223.189 C 66.019 192.362, 65.648 176.210, 64.937 174.883 C 64.351 173.786, 64.064 172.352, 64.300 171.695 C 64.536 171.038, 64.325 169.714, 63.831 168.753 C 63.241 167.605, 63.417 166.083, 64.345 164.311 L 65.757 161.616 66.494 165.058 C 66.899 166.951, 67.584 168.950, 68.015 169.500 C 68.950 170.692, 70.384 218.194, 69.763 227.407 C 69.617 229.575, 69.988 231.480, 70.596 231.689 C 71.774 232.092, 73.479 211.584, 72.411 209.856 C 72.091 209.338, 71.909 203.196, 72.008 196.207 C 72.107 189.218, 72.144 182.825, 72.091 182 C 72.038 181.175, 71.997 177.633, 72.001 174.129 C 72.004 170.625, 71.330 163.233, 70.503 157.703 C 69.677 152.172, 69 145.956, 69 143.889 C 69 141.822, 68.530 138.894, 67.956 137.384 C 67.066 135.042, 67.250 134.310, 69.206 132.419 C 70.468 131.198, 73.075 128.275, 75 125.922 C 76.925 123.569, 79.625 120.448, 81 118.987 C 82.375 117.525, 84.343 114.709, 85.373 112.729 C 86.403 110.748, 88.480 107.862, 89.989 106.314 C 91.498 104.766, 93.686 101.475, 94.852 99 C 97.640 93.080, 99.133 91.280, 102.230 90.103 C 105.248 88.955, 108.324 81.074, 107.816 75.792 C 107.520 72.710, 107.236 72.481, 103.375 72.199 C 99.404 71.908, 99.230 71.752, 98.727 68.004 C 98.099 63.322, 94.179 59.008, 88.500 56.752 C 86.300 55.878, 81.800 54.116, 78.500 52.836 C 75.200 51.556, 71.228 49.270, 69.673 47.755 C 67.704 45.835, 65.808 45, 63.423 45 C 60.286 45, 60 45.251, 60 48 M 201.690 50.970 C 198.495 52.636, 195.093 54, 194.131 54 C 193.169 54, 191.509 54.661, 190.441 55.468 C 189.374 56.276, 187.375 56.965, 186 57 C 184.625 57.035, 182.626 57.724, 181.559 58.532 C 180.491 59.339, 178.634 60, 177.431 60 C 176.228 60, 173.629 60.675, 171.654 61.500 C 169.680 62.325, 166.812 63.010, 165.282 63.022 C 161.625 63.051, 154.132 66.492, 153.363 68.495 C 153.027 69.372, 153.589 70.994, 154.627 72.141 C 156.579 74.297, 157.165 74.309, 170 72.463 C 174.538 71.810, 179.189 70.154, 184.252 67.388 C 188.835 64.884, 190.309 67.262, 187.506 72.636 C 186.685 74.211, 186.010 76.187, 186.006 77.027 C 186.003 77.867, 184.650 80.032, 183 81.839 C 181.350 83.645, 180 85.546, 180 86.062 C 180 86.578, 179.569 87, 179.042 87 C 178.515 87, 176.898 89.025, 175.447 91.500 C 172.709 96.173, 171.086 96.943, 168.799 94.656 C 168.059 93.917, 165.054 92.515, 162.121 91.540 C 156.890 89.803, 156.748 89.808, 154.762 91.793 C 153.295 93.261, 152.916 94.531, 153.388 96.409 C 154.114 99.301, 156.113 99.774, 158 97.500 C 158.685 96.675, 159.886 96, 160.670 96 C 162.537 96, 166.928 101.022, 166.968 103.203 C 167.007 105.293, 164.968 110.034, 163.262 111.821 C 162.568 112.548, 162 113.565, 162 114.080 C 162 114.596, 160.650 116.881, 159 119.159 C 155.305 124.259, 154.930 129, 158.220 129 C 160.502 129, 164.769 124.750, 167.165 120.090 C 167.897 118.666, 168.727 117.275, 169.007 117 C 169.288 116.725, 170.639 114.816, 172.009 112.757 C 173.379 110.698, 175.106 109.011, 175.846 109.007 C 177.479 108.999, 183 112.163, 183 113.107 C 183 113.479, 184.025 114.040, 185.277 114.355 C 186.529 114.669, 189.505 116.596, 191.889 118.637 C 196.652 122.714, 199.235 122.473, 199.792 117.899 C 200.125 115.158, 194.564 108.608, 189.250 105.481 C 187.463 104.429, 186 103.216, 186 102.784 C 186 102.353, 185.325 102, 184.500 102 C 182.874 102, 182.359 97.514, 183.877 96.576 C 184.359 96.278, 185.266 94.001, 185.891 91.517 C 186.517 89.033, 187.472 87, 188.014 87 C 188.556 87, 189 86.397, 189 85.659 C 189 84.922, 191.025 82.174, 193.500 79.554 C 195.975 76.934, 198 74.211, 198 73.502 C 198 72.794, 198.578 71.992, 199.283 71.721 C 199.989 71.451, 201.452 69.383, 202.533 67.126 C 203.615 64.869, 204.862 63.018, 205.304 63.011 C 205.747 63.005, 207.547 61.651, 209.304 60.002 C 211.062 58.353, 213.988 56.510, 215.806 55.906 C 218.729 54.935, 219.077 54.443, 218.806 51.654 C 218.507 48.574, 218.370 48.493, 213 48.220 C 208.485 47.990, 206.460 48.483, 201.690 50.970 M 186.813 62.683 C 187.534 62.972, 188.397 62.936, 188.729 62.604 C 189.061 62.272, 188.471 62.036, 187.417 62.079 C 186.252 62.127, 186.015 62.364, 186.813 62.683 M 232.030 82.960 C 231.035 83.590, 230.603 85.440, 230.693 88.695 L 230.826 93.500 229.387 90.500 C 228.010 87.629, 227.969 87.779, 228.438 94 C 228.707 97.575, 229.220 103.026, 229.576 106.113 C 230.088 110.538, 229.859 112.286, 228.497 114.363 C 227.547 115.814, 226.384 117, 225.912 117 C 225.441 117, 222.680 118.059, 219.777 119.352 C 216.875 120.646, 211.800 122.713, 208.500 123.946 C 202.179 126.307, 197.362 128.338, 192.669 130.622 C 188.258 132.769, 186.324 132.372, 185.688 129.189 C 184.998 125.742, 180.837 123.482, 177.987 125.007 C 176.073 126.031, 174.016 131.583, 174.006 135.750 C 174.001 137.425, 173.416 138, 171.715 138 C 170.459 138, 166.870 138.900, 163.740 140 C 155.728 142.816, 147 142.494, 147 139.383 C 147 138.623, 146.438 137.988, 145.750 137.974 C 144.205 137.942, 141.008 131.210, 140.976 127.922 C 140.948 124.958, 137.518 111.837, 136.060 109.112 C 135.477 108.023, 135 106.257, 135 105.188 C 135 104.119, 134.325 102.685, 133.500 102 C 132.675 101.315, 131.990 99.798, 131.978 98.628 C 131.942 95.207, 128.667 91.653, 126.257 92.419 C 123.531 93.284, 122.459 97.602, 124.470 99.613 C 125.312 100.455, 126 101.772, 126 102.541 C 126 104.231, 129.848 111.788, 131.104 112.564 C 131.597 112.869, 132.007 114.554, 132.015 116.309 C 132.024 118.064, 132.422 120.117, 132.899 120.871 C 133.442 121.728, 133.184 123.259, 132.212 124.953 C 131.231 126.662, 130.948 128.372, 131.445 129.582 C 131.958 130.832, 132.396 131.064, 132.700 130.250 C 133.833 127.215, 137.910 130.652, 137.968 134.691 C 138.009 137.519, 136.005 138.760, 134.819 136.640 C 133.670 134.588, 132 134.505, 132 136.500 C 132 137.325, 132.627 138, 133.393 138 C 134.159 138, 135.053 138.696, 135.380 139.547 C 135.706 140.398, 136.542 141.019, 137.237 140.928 C 139.643 140.613, 141 141.005, 141 142.014 C 141 143.970, 145.515 149.975, 147 149.994 C 147.825 150.004, 149.789 150.685, 151.364 151.506 C 155.083 153.446, 162.415 153.442, 164.357 151.500 C 165.182 150.675, 166.819 150, 167.994 150 C 169.170 150, 170.975 149.548, 172.007 148.996 C 173.492 148.201, 174.205 148.455, 175.441 150.219 C 177.493 153.149, 177.764 185.158, 175.750 186.733 C 175.063 187.270, 172.250 188.208, 169.500 188.818 C 155.119 192.003, 150.580 193.155, 148.938 194.033 C 144.947 196.169, 144.110 195.309, 143.798 188.750 C 143.518 182.880, 143.359 182.515, 141.179 182.751 C 139.903 182.889, 138.184 182.327, 137.360 181.503 C 136.215 180.358, 135.389 180.257, 133.865 181.073 C 132.082 182.026, 131.896 183.023, 132.125 190.357 C 132.267 194.875, 132.109 199.006, 131.774 199.536 C 131.107 200.592, 126.715 202.926, 120.500 205.526 C 118.300 206.446, 114.864 208.054, 112.864 209.099 C 110.864 210.145, 108.346 211, 107.269 211 C 106.191 211, 104.483 211.914, 103.473 213.030 C 102.019 214.637, 101.834 215.628, 102.588 217.780 C 103.783 221.194, 108 222.226, 108 219.105 C 108 217.986, 108.870 216.605, 109.933 216.036 C 111.503 215.196, 111.985 215.377, 112.500 217.001 C 112.849 218.100, 113.862 219, 114.752 219 C 116.965 219, 125.033 215.117, 127.600 212.816 C 130.722 210.017, 132.452 212.498, 131.554 218.488 C 130.672 224.367, 129.571 251.410, 129.822 261 C 130.096 271.462, 131.206 274.265, 135.891 276.332 C 139.801 278.057, 143.394 277.686, 142.710 275.627 C 142.504 275.007, 141.112 274.454, 139.616 274.398 C 134.628 274.212, 134.482 273.502, 134.738 250.698 C 135.049 222.910, 135.475 212.659, 136.378 211.197 C 136.785 210.539, 138.039 210, 139.165 210 C 140.290 210, 142.548 208.875, 144.182 207.500 C 145.816 206.125, 148.049 205, 149.142 205 C 150.236 205, 152.114 204.474, 153.315 203.832 C 154.515 203.189, 156.623 202.574, 157.999 202.465 C 159.374 202.355, 163.313 201.242, 166.750 199.990 C 171.613 198.219, 173.026 197.247, 173.116 195.607 C 173.227 193.588, 173.253 193.584, 173.732 195.500 C 174.007 196.600, 174.706 197.799, 175.286 198.164 C 176.022 198.628, 175.942 203.646, 175.020 214.758 L 173.699 230.688 168.600 232.299 C 165.795 233.185, 161.813 234.176, 159.750 234.501 C 157.688 234.825, 156 235.520, 156 236.045 C 156 236.570, 153.975 237, 151.500 237 C 147.024 237, 147 237.019, 147 240.500 C 147 244.504, 149.185 245.278, 151.232 242 C 152.824 239.451, 155.193 239.451, 157.500 242 C 158.673 243.296, 160.575 243.998, 162.905 243.994 C 167.170 243.988, 174 242.228, 174 241.136 C 174 240.712, 176.503 239.576, 179.563 238.612 C 185.743 236.664, 192 233.287, 192 231.901 C 192 231.406, 192.468 231, 193.040 231 C 193.612 231, 196.629 228.300, 199.743 225 C 202.857 221.700, 205.877 219.014, 206.453 219.031 C 207.029 219.048, 209.015 221.073, 210.867 223.531 C 212.719 225.989, 214.784 228, 215.456 228 C 216.129 228, 217.192 229.125, 217.818 230.500 C 218.445 231.875, 219.409 233, 219.962 233 C 220.514 233, 222.061 235.161, 223.399 237.801 C 226.116 243.163, 229.728 245.587, 231.760 243.412 C 233.537 241.510, 233.343 240.707, 230.134 236.669 C 228.558 234.686, 226.684 231.587, 225.970 229.782 C 225.255 227.977, 224.154 225.825, 223.523 225 C 222.892 224.175, 221.534 221.475, 220.507 219 C 219.479 216.525, 218.074 214.022, 217.386 213.439 C 216.697 212.855, 215.991 210.384, 215.817 207.947 C 215.577 204.589, 215.055 203.433, 213.661 203.168 C 211.769 202.809, 207 206.541, 207 208.381 C 207 209.893, 200.087 215.629, 195.761 217.705 C 193.705 218.692, 192.018 220.063, 192.011 220.750 C 192.005 221.438, 191.380 222, 190.622 222 C 189.865 222, 188.685 222.675, 188 223.500 C 187.315 224.325, 186.103 225, 185.306 225 C 184.509 225, 183.162 225.695, 182.312 226.545 C 180.204 228.653, 178.427 227.810, 178.843 224.899 C 179.032 223.579, 179.482 217.248, 179.843 210.829 C 180.509 199, 180.960 197.239, 183.004 198.502 C 183.740 198.957, 183.903 200.612, 183.467 203.196 C 182.870 206.728, 183.005 207.145, 184.646 206.825 C 185.835 206.593, 186.520 205.573, 186.556 203.982 C 186.704 197.452, 191.878 195.124, 206.500 195.008 C 213.207 194.955, 217.323 194.458, 219 193.500 C 220.375 192.714, 222.313 192.055, 223.306 192.035 C 224.299 192.016, 227.833 190.650, 231.159 189 C 234.484 187.350, 237.722 186.003, 238.353 186.007 C 239.609 186.015, 243 195.375, 243 198.837 C 243 200.333, 243.616 201, 245 201 C 246.647 201, 246.997 201.662, 246.985 204.750 C 246.975 207.232, 246.679 208.041, 246.110 207.143 C 244.500 204.602, 243.904 207.785, 243.942 218.732 C 243.994 234.099, 242.993 244.761, 241.369 246.108 C 240.616 246.733, 240 247.842, 240 248.572 C 240 249.301, 238.495 251.046, 236.656 252.449 C 232.081 255.938, 226.564 255.915, 222.886 252.391 C 219.547 249.192, 217.557 250.036, 218.408 254.290 C 219.141 257.956, 224.113 262.646, 228.222 263.549 C 234.125 264.845, 243.839 260.373, 240.117 258.072 C 239.365 257.608, 240.228 256.654, 242.514 255.423 C 244.591 254.305, 246.362 252.453, 246.743 251 C 247.738 247.211, 247.624 218.040, 246.596 213.616 C 245.863 210.456, 245.956 209.818, 247.097 210.195 C 248.454 210.643, 249.266 216.672, 250.193 233.172 C 250.563 239.760, 251.424 241.115, 253.532 238.427 C 254.607 237.056, 254.837 235.490, 254.328 233 C 253.934 231.075, 253.477 224.100, 253.312 217.500 C 252.780 196.167, 250.325 184.333, 245.274 178.750 C 243.285 176.552, 235.209 176.375, 232.441 178.468 C 231.374 179.276, 229.375 179.965, 228 180 C 226.625 180.035, 224.626 180.724, 223.559 181.532 C 222.491 182.339, 219.878 183, 217.752 183 C 215.625 183, 211.999 183.451, 209.693 184.003 C 206.321 184.809, 180.908 187.077, 180.351 186.622 C 180.270 186.555, 179.923 179.159, 179.580 170.187 C 179.238 161.215, 178.894 153.565, 178.815 153.187 C 178.736 152.809, 179.037 151.191, 179.484 149.592 C 180.191 147.060, 180.448 146.893, 181.475 148.296 C 182.221 149.317, 182.736 155.151, 182.879 164.204 C 183.003 172.067, 183.483 178.634, 183.946 178.798 C 184.409 178.962, 184.558 179.974, 184.277 181.048 C 183.946 182.315, 184.271 183, 185.204 183 C 186.416 183, 186.584 179.971, 186.277 163.634 L 185.915 144.268 189.707 142.586 C 191.793 141.660, 194.232 140.506, 195.127 140.020 C 196.022 139.534, 198.384 138.831, 200.377 138.457 C 202.370 138.083, 204 137.426, 204 136.997 C 204 136.568, 205.162 135.925, 206.583 135.569 C 208.004 135.212, 210.853 133.855, 212.915 132.553 C 214.978 131.252, 218.287 129.739, 220.269 129.191 C 222.251 128.644, 224.878 127.260, 226.106 126.116 C 228.848 123.561, 230.253 124.469, 233.047 130.603 C 235.551 136.099, 237 136.988, 237 133.027 C 237 131.327, 237.717 128.263, 238.593 126.218 C 239.919 123.126, 240.075 120.145, 239.522 108.500 C 239.156 100.800, 238.438 94.073, 237.928 93.550 C 236.649 92.241, 236.766 89.348, 238.190 87.068 C 240.377 83.565, 235.848 80.546, 232.030 82.960 M 64.565 83.895 C 64.260 84.388, 64.640 85.032, 65.408 85.326 C 66.874 85.889, 68 85.241, 68 83.833 C 68 82.717, 65.263 82.766, 64.565 83.895 M 231.667 98.667 C 230.476 99.857, 230.963 107.567, 232.347 109.460 C 234.200 111.994, 234.689 110.501, 234.217 103.750 C 233.838 98.332, 233.224 97.109, 231.667 98.667 M 104.807 125.713 C 103.943 126.696, 102.918 128.544, 102.529 129.819 C 101.879 131.950, 101.719 131.999, 100.566 130.422 C 98.510 127.609, 94.491 129.435, 89.901 135.266 C 87.636 138.145, 85.381 140.650, 84.891 140.833 C 84.401 141.017, 84 141.564, 84 142.049 C 84 142.534, 82.650 144.312, 81 146 C 77.470 149.611, 77.071 153.760, 80.011 156.278 C 81.118 157.225, 82.398 158, 82.856 158 C 83.315 158, 84.505 158.900, 85.500 160 C 86.495 161.100, 87.720 162, 88.222 162 C 88.723 162, 90.608 163.125, 92.411 164.500 C 94.214 165.875, 96.434 167, 97.344 167 C 98.255 167, 99 167.639, 99 168.421 C 99 169.202, 100.350 170.138, 102 170.500 C 103.650 170.862, 105 171.537, 105 172 C 105 172.463, 106.312 173.129, 107.916 173.482 C 111.565 174.283, 112.888 176.950, 109.719 177.116 C 107.681 177.223, 107.663 177.273, 109.500 177.732 C 110.600 178.007, 111.796 178.701, 112.158 179.276 C 113.110 180.786, 128.552 181.534, 129.431 180.112 C 130.912 177.715, 128.929 175.076, 125.194 174.475 C 123.162 174.148, 120.306 173.232, 118.846 172.440 C 117.386 171.648, 115.528 171, 114.718 171 C 113.908 171, 112.685 170.325, 112 169.500 C 111.315 168.675, 109.994 168, 109.065 168 C 108.135 168, 106.081 166.650, 104.500 165 C 102.919 163.350, 101.260 162, 100.813 162 C 99.660 162, 96 158.198, 96 157 C 96 156.450, 95.487 156, 94.860 156 C 93.372 156, 91.072 152.938, 91.032 150.903 C 91.014 150.025, 91.787 148.370, 92.750 147.225 C 93.713 146.081, 95.850 143.448, 97.500 141.373 C 99.150 139.299, 101.400 136.788, 102.500 135.793 C 103.600 134.798, 105.768 132.853, 107.317 131.471 C 109.145 129.840, 110.022 128.179, 109.817 126.739 C 109.414 123.920, 106.845 123.394, 104.807 125.713 M 178.500 133 C 178.840 133.550, 179.316 134, 179.559 134 C 179.802 134, 180 133.550, 180 133 C 180 132.450, 179.523 132, 178.941 132 C 178.359 132, 178.160 132.450, 178.500 133 M 195.562 134.072 C 194.206 135.438, 193.940 136.340, 194.676 137.076 C 195.413 137.813, 196.198 137.659, 197.293 136.564 C 198.153 135.704, 199.339 135, 199.929 135 C 200.518 135, 201 134.325, 201 133.500 C 201 131.406, 197.882 131.733, 195.562 134.072 M 186.813 138.683 C 187.534 138.972, 188.397 138.936, 188.729 138.604 C 189.061 138.272, 188.471 138.036, 187.417 138.079 C 186.252 138.127, 186.015 138.364, 186.813 138.683 M 158.438 148.050 C 155.900 149.723, 155.780 149.988, 157.559 149.993 C 160.078 150.001, 163.671 147.533, 162.339 146.710 C 161.809 146.382, 160.053 146.985, 158.438 148.050 M 60.079 150.583 C 60.127 151.748, 60.364 151.985, 60.683 151.188 C 60.972 150.466, 60.936 149.603, 60.604 149.271 C 60.272 148.939, 60.036 149.529, 60.079 150.583 M 137.693 185.358 C 136.801 187.683, 138.101 194.447, 139.128 192.827 C 140.212 191.117, 140.210 186.880, 139.124 185.166 C 138.438 184.085, 138.168 184.121, 137.693 185.358 M 224.813 186.683 C 225.534 186.972, 226.397 186.936, 226.729 186.604 C 227.061 186.272, 226.471 186.036, 225.417 186.079 C 224.252 186.127, 224.015 186.364, 224.813 186.683 M 214.074 188.385 C 209.623 189.506, 207.234 192.023, 210.667 191.974 C 213.302 191.936, 220.615 188.491, 219.466 187.828 C 218.935 187.521, 216.508 187.772, 214.074 188.385 M 165.597 194.795 C 164.001 194.997, 162.056 195.801, 161.276 196.581 C 160.051 197.806, 160.354 198, 163.500 198 C 165.504 198, 167.789 197.354, 168.579 196.564 C 170.320 194.823, 169.453 194.308, 165.597 194.795 M 152.455 198.409 C 151.121 199.385, 149.983 199.526, 148.755 198.869 C 146.780 197.812, 142.087 200.520, 142.031 202.750 C 141.988 204.488, 145.826 204.317, 147.643 202.500 C 148.468 201.675, 150.573 200.986, 152.321 200.968 C 155.291 200.938, 159 199.090, 159 197.640 C 159 196.449, 154.395 196.991, 152.455 198.409 M 213 221.340 C 213 223.003, 215.676 226.658, 216.379 225.955 C 216.677 225.657, 216.669 224.451, 216.362 223.276 C 215.742 220.904, 213 219.326, 213 221.340 M 163.029 239.961 C 162.220 240.473, 161.853 241.187, 162.214 241.548 C 162.575 241.909, 163.900 241.483, 165.158 240.602 C 167.623 238.875, 165.674 238.288, 163.029 239.961 M 69.667 267.667 C 68.315 269.018, 68.971 274, 70.500 274 C 71.548 274, 72 272.944, 72 270.500 C 72 267.191, 71.161 266.172, 69.667 267.667 M 72 282 C 72 283.898, 72.512 285, 73.393 285 C 75.082 285, 76.151 282.557, 75.362 280.500 C 74.318 277.780, 72 278.814, 72 282" stroke="none" fill="black" fill-rule="evenodd"/>
</svg>