<svg xmlns="http://www.w3.org/2000/svg" width="300" height="300" viewBox="0 0 300 300" version="1.1">
	<path d="M 227.998 16.800 C 224.851 19.349, 224.644 28.484, 227.678 30.940 C 230.383 33.130, 231.481 36.715, 229.996 38.505 C 229.353 39.280, 228.942 41.846, 229.083 44.207 C 229.224 46.568, 229.263 50.590, 229.170 53.145 L 229 57.790 224.750 58.424 C 216.580 59.644, 201.421 60.958, 191.750 61.285 L 182 61.615 182.035 58.057 C 182.055 56.101, 182.714 53.375, 183.500 52 C 184.286 50.625, 184.945 47.517, 184.965 45.094 C 184.990 41.974, 185.729 39.732, 187.500 37.411 C 188.875 35.608, 190 33.684, 190 33.134 C 190 31.588, 186.902 31.060, 182.500 31.855 C 178.946 32.496, 178.530 32.866, 178.769 35.167 C 178.960 37.012, 178.489 37.900, 177.129 38.256 C 175.705 38.628, 175.047 40.021, 174.535 43.747 C 174.157 46.492, 173.207 49.974, 172.424 51.484 C 171.641 52.993, 171 55.265, 171 56.533 C 171 61.617, 170.332 62, 161.452 62 C 156.497 62, 152.844 62.444, 152.442 63.094 C 152.070 63.696, 150.696 63.984, 149.389 63.734 C 144.651 62.828, 143.346 68.823, 148.005 70.092 C 149.377 70.465, 154.388 70.534, 159.139 70.244 C 167.312 69.745, 167.842 69.836, 168.968 71.940 C 169.923 73.725, 169.877 74.394, 168.735 75.332 C 166.779 76.936, 165.156 85.255, 164.019 99.500 C 162.746 115.460, 161.146 126.859, 159.837 129.304 C 159.250 130.402, 158.762 134.720, 158.753 138.900 C 158.743 143.583, 158.248 147.076, 157.463 148 C 156.222 149.462, 155.488 155.503, 155.830 161.450 C 156.103 166.185, 157.981 163.091, 158.578 156.923 C 158.867 153.941, 159.743 149.250, 160.524 146.500 C 161.305 143.750, 162.295 137.710, 162.722 133.077 C 163.194 127.973, 163.978 124.497, 164.713 124.256 C 166.401 123.702, 167.397 128.389, 166.105 130.804 C 165.519 131.899, 164.870 138.287, 164.662 145.001 C 164.439 152.208, 163.844 157.478, 163.210 157.870 C 161.916 158.670, 160.469 179.356, 161.371 184.164 C 161.810 186.503, 162.950 188.130, 164.999 189.340 C 167.945 191.080, 168.022 191.069, 170.560 188.531 C 173.932 185.158, 173.592 181.430, 169.933 181.663 C 167.700 181.805, 167.215 181.254, 166.184 177.399 C 164.279 170.277, 164.636 160.640, 166.878 158.610 C 168.502 157.141, 169.379 157.067, 173.340 158.064 C 176.852 158.948, 180.562 158.925, 189.212 157.963 C 195.420 157.273, 204.325 156.396, 209 156.014 C 218.660 155.224, 224 153.382, 224 150.840 C 224 149.893, 223.654 148.904, 223.231 148.643 C 221.173 147.371, 182.540 148.125, 172.250 149.638 L 168 150.263 168 146.942 C 168 142.799, 169.932 132.188, 171.184 129.453 C 172.851 125.811, 175.572 124.792, 180.047 126.132 C 183.006 127.019, 184.599 127.038, 186.263 126.207 C 187.493 125.592, 190.975 124.901, 194 124.671 C 199.440 124.256, 205.062 123.034, 218.329 119.381 C 227.937 116.735, 227.737 116.278, 227.938 141.288 C 228.128 164.880, 228.865 186.199, 229.514 186.847 C 230.762 188.095, 225.897 189.940, 221.285 189.968 C 218.417 189.986, 214.142 190.628, 211.785 191.396 C 209.428 192.164, 204.575 193.088, 201 193.449 C 197.425 193.811, 193.150 194.506, 191.500 194.995 C 188.444 195.900, 181.269 197.299, 170.500 199.088 C 167.200 199.637, 163.600 200.270, 162.500 200.496 C 161.400 200.721, 158.700 201.171, 156.500 201.494 C 154.300 201.818, 149.350 203.002, 145.500 204.126 C 137.902 206.343, 137.644 206.301, 129.093 201.483 C 126.669 200.117, 123.496 199, 122.043 199 C 120.589 199, 118.892 198.492, 118.271 197.871 C 115.021 194.621, 71.840 196.593, 67.309 200.199 C 66.513 200.833, 65.160 200.439, 63.230 199.012 C 59.950 196.587, 56.501 196.953, 53.141 200.084 C 52.009 201.138, 49.995 202, 48.664 202 C 45.531 202, 43.944 203.999, 43.307 208.747 C 42.682 213.406, 45.305 220.481, 47.364 219.690 C 48.402 219.292, 48.896 220.676, 49.379 225.331 C 49.730 228.724, 50.488 234.425, 51.062 238 C 51.637 241.575, 52.225 245.295, 52.369 246.266 C 52.513 247.237, 53.164 248.564, 53.816 249.216 C 54.467 249.867, 55 251.457, 55 252.750 C 55 255.315, 57.351 260.485, 59.776 263.250 C 61.884 265.655, 66 265.574, 66 263.127 C 66 261.440, 63.328 254.877, 61.062 251 C 60.580 250.175, 59.426 245.900, 58.497 241.500 C 57.568 237.100, 56.293 231.703, 55.663 229.506 C 53.904 223.368, 54.136 207.165, 56 205.983 C 58.047 204.686, 59.283 205.226, 60.696 208.037 C 62.483 211.591, 65.393 212.265, 68.477 209.840 C 73.743 205.698, 109.898 203.096, 114.441 206.532 C 115.509 207.339, 117.492 208, 118.849 208 C 120.206 208, 123.924 209.238, 127.112 210.750 C 133.793 213.920, 134.972 216.458, 133.012 223.457 C 132.105 226.697, 130.895 228.282, 127.937 230.106 C 125.801 231.422, 124.042 232.838, 124.027 233.250 C 124.012 233.662, 123.362 234, 122.583 234 C 121.804 234, 121.017 234.345, 120.833 234.767 C 120.396 235.775, 108.107 240.553, 100.500 242.674 C 97.018 243.645, 88.763 244.589, 80.831 244.923 C 73.313 245.241, 66.962 245.725, 66.717 246 C 66.471 246.275, 65.774 247.456, 65.168 248.624 C 63.276 252.266, 66.246 253.763, 76 254.086 C 85.762 254.409, 98 253.184, 98 251.884 C 98 251.398, 99.118 251, 100.485 251 C 102.809 251, 105.512 249.823, 121.890 241.678 C 125.405 239.930, 129.212 237.248, 130.351 235.719 C 131.490 234.189, 134.542 231.578, 137.132 229.915 C 142.093 226.732, 144 223.281, 144 217.489 C 144 214.370, 144.169 214.244, 149.750 213.190 C 152.912 212.592, 158.650 211.373, 162.500 210.479 C 166.350 209.585, 172.875 208.449, 177 207.953 C 181.125 207.458, 186.075 206.609, 188 206.067 C 191.598 205.054, 195.870 204.313, 202 203.638 C 212.231 202.511, 220.815 201.089, 223.315 200.106 C 224.863 199.498, 227.791 199, 229.822 199 C 231.852 199, 235.085 198.541, 237.007 197.979 C 238.928 197.417, 243.650 196.504, 247.500 195.950 C 264.044 193.568, 271.049 189.370, 267.333 184.065 C 265.714 181.754, 263.966 181.556, 257.764 182.978 C 250.750 184.588, 234.537 188.015, 234 188.002 C 233.725 187.995, 233.424 173.929, 233.330 156.745 C 233.237 139.560, 232.614 115.483, 231.945 103.241 C 230.965 85.283, 230.979 79.776, 232.015 74.741 C 233.515 67.451, 234.428 66, 237.513 66 C 238.761 66, 241.743 65.110, 244.141 64.022 C 246.538 62.934, 249.512 62.034, 250.750 62.022 C 253.295 61.997, 257 58.745, 257 56.535 C 257 55.730, 256.049 54.561, 254.886 53.939 C 253.204 53.039, 252.029 53.185, 249.136 54.654 C 247.136 55.669, 245.275 56.790, 245 57.145 C 244.725 57.500, 242.250 57.950, 239.500 58.145 L 234.500 58.500 234.513 52 C 234.537 40.438, 235.839 24.585, 237.040 21.229 C 237.948 18.692, 237.935 17.626, 236.983 16.479 C 235.303 14.455, 230.691 14.620, 227.998 16.800 M 69.611 34.145 C 66.228 38.975, 69.243 42.651, 75.189 40.946 C 77.078 40.404, 78.251 40.597, 79.070 41.585 C 79.904 42.589, 82.564 43, 88.228 43 C 95.995 43, 107.534 45.217, 109.450 47.077 C 110.919 48.504, 114.615 48.168, 116.016 46.481 C 117.045 45.241, 116.962 44.616, 115.563 43.069 C 111.874 38.994, 91.916 33.298, 77.861 32.311 C 71.795 31.885, 71.083 32.043, 69.611 34.145 M 176.169 53.019 C 174.869 55.873, 174.129 58.880, 174.496 59.818 C 175.447 62.253, 179.169 54.352, 178.790 50.701 C 178.523 48.119, 178.319 48.299, 176.169 53.019 M 208.750 63.662 C 209.438 63.940, 210.563 63.940, 211.250 63.662 C 211.938 63.385, 211.375 63.158, 210 63.158 C 208.625 63.158, 208.063 63.385, 208.750 63.662 M 216.585 67.449 C 214.981 68.156, 209.806 68.800, 205.085 68.878 C 200.363 68.957, 193.451 69.301, 189.724 69.642 C 183.814 70.184, 182.696 70.618, 180.974 73.036 C 179.888 74.561, 179 76.695, 179 77.779 C 179 78.862, 178.325 81.662, 177.500 84 C 176.675 86.338, 176 89.638, 176 91.332 C 176 93.026, 175.261 98.846, 174.359 104.265 C 173.401 110.012, 173.089 114.473, 173.609 114.971 C 175.053 116.353, 215.603 112.803, 222.369 110.702 L 226.238 109.500 226.547 102 C 226.717 97.875, 227.125 88.547, 227.455 81.271 C 227.936 70.649, 227.798 68.140, 226.755 68.540 C 223.838 69.660, 222.975 72.740, 224.151 77.835 C 225.100 81.946, 225.019 83.256, 223.641 86.019 C 222.738 87.827, 222 90.213, 222 91.320 C 222 92.427, 221.792 93.126, 221.539 92.872 C 221.285 92.618, 221.445 87.031, 221.895 80.455 C 222.344 73.880, 222.503 67.938, 222.249 67.250 C 221.684 65.725, 220.389 65.770, 216.585 67.449 M 98 72.994 C 94.425 73.426, 90.150 74.020, 88.500 74.314 C 86.850 74.607, 80.100 74.928, 73.500 75.027 C 66.203 75.136, 60.243 75.726, 58.293 76.534 C 55.280 77.782, 55.102 78.137, 55.350 82.405 C 55.495 84.903, 55.926 87.259, 56.307 87.640 C 56.688 88.021, 57 89.189, 57 90.234 C 57 91.666, 57.483 91.982, 58.959 91.513 C 60.036 91.171, 64.199 90.867, 68.209 90.837 C 72.219 90.807, 75.985 90.390, 76.578 89.911 C 77.171 89.432, 80.546 88.601, 84.078 88.063 C 90.404 87.100, 97.307 85.026, 98.648 83.685 C 99.025 83.308, 101.021 83, 103.083 83 C 105.146 83, 107.002 82.495, 107.207 81.879 C 107.438 81.186, 110.716 80.711, 115.790 80.636 C 123.863 80.517, 124 80.473, 124 77.998 C 124 76.614, 123.165 74.959, 122.144 74.322 C 119.657 72.769, 106.057 72.021, 98 72.994 M 172.165 75.147 C 171.583 76.991, 170.834 80.750, 170.499 83.500 C 169.564 91.192, 167.017 103.253, 165.817 105.678 C 165.224 106.876, 164.963 109.024, 165.236 110.452 C 165.508 111.880, 165.342 113.289, 164.866 113.583 C 164.390 113.877, 164 115.502, 164 117.195 L 164 120.271 166.984 116.886 C 169.168 114.408, 169.972 112.480, 169.984 109.697 C 169.993 107.606, 170.634 102.881, 171.408 99.197 C 175.557 79.467, 176.151 74.722, 174.658 73.230 C 173.411 71.983, 173.084 72.234, 172.165 75.147 M 116 83.393 C 116 83.609, 116.675 84.045, 117.500 84.362 C 118.325 84.678, 119 84.501, 119 83.969 C 119 83.436, 118.325 83, 117.500 83 C 116.675 83, 116 83.177, 116 83.393 M 117 122.979 C 116.175 123.524, 110.550 123.983, 104.500 124 C 98.437 124.017, 90.807 124.682, 87.500 125.480 C 84.200 126.277, 79.539 126.945, 77.143 126.964 C 74.401 126.987, 70.395 128.141, 66.334 130.079 C 60.545 132.842, 59.914 133.433, 60.191 135.829 L 60.500 138.500 71.477 138.184 C 77.515 138.010, 82.961 137.447, 83.580 136.933 C 84.199 136.420, 88.259 135.713, 92.603 135.363 C 96.946 135.013, 100.954 134.372, 101.510 133.940 C 102.065 133.507, 105.350 132.833, 108.809 132.442 C 120.442 131.126, 125.812 128.109, 123.393 124.250 C 122.097 122.183, 119.106 121.588, 117 122.979 M 77 133.059 C 77 133.641, 77.450 133.840, 78 133.500 C 78.550 133.160, 79 132.684, 79 132.441 C 79 132.198, 78.550 132, 78 132 C 77.450 132, 77 132.477, 77 133.059 M 108.339 163.057 C 107.327 163.424, 101.100 164.017, 94.500 164.374 C 87.900 164.731, 79.800 165.686, 76.500 166.496 C 73.200 167.306, 68.994 167.976, 67.154 167.984 C 62.668 168.005, 53.452 170.751, 52.001 172.499 C 50.059 174.839, 51.772 177.867, 55.427 178.552 C 62.170 179.817, 71.166 178.606, 100.500 172.481 C 104.900 171.562, 112.201 170.516, 116.725 170.155 C 123.313 169.630, 125.386 169.063, 127.142 167.305 C 129.016 165.428, 129.140 164.874, 127.993 163.492 C 126.920 162.198, 125.002 161.926, 118.414 162.132 C 113.884 162.274, 109.350 162.690, 108.339 163.057 M 204.149 197.604 C 202.374 199.612, 202.540 199.665, 209.177 199.211 C 212.905 198.957, 215.043 198.331, 215.404 197.389 C 215.858 196.206, 215.572 196.159, 213.775 197.120 C 212.148 197.991, 211.499 197.997, 211.214 197.143 C 210.663 195.489, 205.735 195.810, 204.149 197.604 M 191 200.500 C 189.980 201.729, 190.049 202, 191.378 202 C 192.270 202, 193 201.325, 193 200.500 C 193 199.675, 192.830 199, 192.622 199 C 192.415 199, 191.685 199.675, 191 200.500 M 196.767 200.167 C 197.631 201.031, 198.530 201.048, 200.217 200.235 C 202.361 199.202, 202.290 199.131, 199.050 199.068 C 196.420 199.016, 195.878 199.278, 196.767 200.167 M 175.079 205.583 C 175.127 206.748, 175.364 206.985, 175.683 206.188 C 175.972 205.466, 175.936 204.603, 175.604 204.271 C 175.272 203.939, 175.036 204.529, 175.079 205.583 M 203.510 213.101 C 201.866 214.776, 199.271 216.396, 197.743 216.701 C 196.115 217.027, 192.965 219.447, 190.130 222.548 C 184.545 228.659, 184 230.918, 184 247.940 C 184 254.898, 183.583 259.017, 182.800 259.800 C 181.050 261.550, 183.130 263.230, 186.551 262.828 C 190.269 262.392, 191.053 260, 187.478 260 C 184.949 260, 184.820 259.778, 185.290 256.250 C 187.350 240.819, 189.271 233, 191.002 233 C 191.420 233, 194.987 229.850, 198.930 226 C 202.873 222.150, 206.302 219, 206.549 219 C 207.999 219, 211 214.617, 211 212.500 C 211 208.942, 207.302 209.238, 203.510 213.101 M 201.158 239.881 C 200.035 240.593, 200.035 241.121, 201.158 243.116 C 202.756 245.954, 204.113 247.048, 205.200 246.376 C 205.638 246.106, 207.010 246.631, 208.248 247.543 C 210.455 249.169, 210.423 249.189, 206.652 248.537 C 202.249 247.777, 202.392 249.117, 206.965 251.482 C 213.774 255.003, 263.524 258.537, 267.304 255.769 C 268.380 254.981, 268.859 253.796, 268.490 252.836 C 267.814 251.072, 261.596 249.921, 242.500 248.022 C 227.222 246.503, 213.378 243.593, 206.349 240.422 C 202.675 238.764, 202.886 238.786, 201.158 239.881 M 191.413 244.492 C 190.515 245.863, 190.040 247.663, 190.359 248.492 C 191.420 251.257, 192.786 250.046, 193.171 246 C 193.381 243.800, 193.439 242, 193.299 242 C 193.160 242, 192.311 243.122, 191.413 244.492" stroke="none" fill="black" fill-rule="evenodd"/>
</svg>