<svg xmlns="http://www.w3.org/2000/svg" width="300" height="300" viewBox="0 0 300 300" version="1.1">
	<path d="M 197.203 18.003 C 196.267 19.654, 194.600 21.281, 193.500 21.617 C 188.538 23.136, 184.366 30.680, 185.202 36.622 C 185.534 38.986, 180.307 45.469, 167.712 58.314 C 163.429 62.683, 160.093 66.426, 160.300 66.633 C 161.829 68.162, 184 49.224, 184 46.389 C 184 45.841, 185.532 43.907, 187.405 42.092 C 190.478 39.114, 191.201 38.858, 194.816 39.469 C 197.019 39.841, 199.607 41.013, 200.566 42.073 C 201.525 43.133, 202.803 44.011, 203.405 44.025 C 204.007 44.038, 206.750 45.707, 209.500 47.733 C 215.518 52.166, 223.981 56.617, 228.116 57.525 C 229.777 57.890, 231.378 58.821, 231.675 59.594 C 231.971 60.367, 233.201 61, 234.407 61 C 235.613 61, 237.088 61.488, 237.685 62.085 C 239.254 63.654, 243.424 62.791, 243.800 60.819 C 244.127 59.103, 237.418 52.077, 235.406 52.027 C 234.804 52.012, 233.004 50.863, 231.406 49.474 C 229.807 48.085, 227.375 46.666, 226 46.321 C 224.625 45.976, 220.486 43.738, 216.803 41.347 C 213.120 38.956, 209.792 37, 209.407 37 C 208.282 37, 197.999 29.962, 198.006 29.197 C 198.028 26.375, 200.446 20.801, 202.170 19.593 C 204.697 17.823, 203.969 15, 200.985 15 C 199.721 15, 198.240 16.176, 197.203 18.003 M 50.250 33.662 C 48.417 34.402, 48.638 40, 50.500 40 C 52.118 40, 52.174 39.877, 52.425 35.750 C 52.597 32.941, 52.431 32.782, 50.250 33.662 M 61.809 35.591 C 59.438 36.879, 57.194 40.527, 58.171 41.505 C 58.366 41.699, 60.585 41.419, 63.103 40.882 C 67.159 40.017, 96.662 40.203, 104.473 41.142 C 108.383 41.613, 109.096 38.764, 105.636 36.497 C 102.060 34.154, 65.835 33.405, 61.809 35.591 M 66.813 36.683 C 67.534 36.972, 68.397 36.936, 68.729 36.604 C 69.061 36.272, 68.471 36.036, 67.417 36.079 C 66.252 36.127, 66.015 36.364, 66.813 36.683 M 175.674 41.361 C 174.264 43.210, 171.285 46.621, 169.055 48.943 C 166.825 51.264, 165 53.450, 165 53.800 C 165 54.150, 163.762 55.518, 162.250 56.839 C 159.526 59.220, 159.523 59.236, 161.944 58.492 C 164.282 57.775, 167.897 54.328, 167.967 52.750 C 167.985 52.337, 168.675 52, 169.500 52 C 170.325 52, 171.009 51.663, 171.020 51.250 C 171.030 50.837, 173.280 48.131, 176.020 45.235 C 178.759 42.339, 181 39.527, 181 38.985 C 181 36.874, 178.114 38.162, 175.674 41.361 M 95.627 65.507 C 90.165 66.299, 84.605 66.502, 81.166 66.036 C 77.974 65.603, 74.061 65.699, 72.039 66.261 C 69.940 66.845, 65.244 66.933, 60.500 66.478 C 52.381 65.700, 47.909 65.663, 42.500 66.329 C 40.850 66.532, 38.938 66.766, 38.250 66.849 C 36.467 67.064, 36.703 70.509, 38.609 72.091 C 40.546 73.698, 58.178 73.900, 79.990 72.565 C 96.165 71.575, 108.241 68.703, 108.817 65.709 C 109.207 63.687, 108.265 63.673, 95.627 65.507 M 193.263 69.027 C 192.032 69.521, 186.857 70.240, 181.763 70.624 C 176.668 71.008, 169.458 72.077, 165.739 73.001 C 160.231 74.368, 158.779 74.439, 157.903 73.383 C 157.312 72.671, 157.118 71.618, 157.473 71.044 C 158.419 69.513, 156.772 69.771, 154.230 71.551 C 150.018 74.502, 149.881 76.221, 153.534 80.326 C 156.866 84.070, 156.925 84.090, 159.933 82.535 C 163.502 80.689, 166.554 80.169, 177.928 79.468 C 182.563 79.183, 186.854 78.536, 187.462 78.031 C 189.341 76.472, 200.168 75.225, 207 75.782 C 218.511 76.719, 220.434 76.610, 220.726 75 C 221.207 72.346, 219.501 71.021, 213.639 69.494 C 207.346 67.855, 196.779 67.613, 193.263 69.027 M 196.750 70.662 C 197.438 70.940, 198.563 70.940, 199.250 70.662 C 199.938 70.385, 199.375 70.158, 198 70.158 C 196.625 70.158, 196.063 70.385, 196.750 70.662 M 175.250 73.716 C 176.762 73.945, 179.238 73.945, 180.750 73.716 C 182.262 73.487, 181.025 73.300, 178 73.300 C 174.975 73.300, 173.738 73.487, 175.250 73.716 M 187.813 73.683 C 188.534 73.972, 189.397 73.936, 189.729 73.604 C 190.061 73.272, 189.471 73.036, 188.417 73.079 C 187.252 73.127, 187.015 73.364, 187.813 73.683 M 174.813 76.683 C 175.534 76.972, 176.397 76.936, 176.729 76.604 C 177.061 76.272, 176.471 76.036, 175.417 76.079 C 174.252 76.127, 174.015 76.364, 174.813 76.683 M 144 81 C 144 81.550, 143.213 82.036, 142.250 82.079 C 141.248 82.124, 141.023 82.370, 141.724 82.654 C 142.398 82.926, 143.960 82.441, 145.197 81.575 C 147.034 80.288, 147.130 80, 145.723 80 C 144.775 80, 144 80.450, 144 81 M 43.615 92.702 C 41.460 94.045, 40.616 94.184, 40.281 93.250 C 39.730 91.713, 36.785 91.615, 35.316 93.084 C 33.795 94.605, 34.849 97.817, 37.102 98.532 C 38.139 98.862, 41.803 99.133, 45.244 99.136 C 64.754 99.154, 90.749 101.369, 95.352 103.407 C 100.116 105.516, 103.500 105.184, 103.500 102.609 C 103.500 100.295, 102.393 99.692, 93.500 97.161 C 84.796 94.683, 68.506 92.210, 56 91.468 C 47.943 90.989, 46.062 91.177, 43.615 92.702 M 130.283 102.917 C 128.123 104.720, 128.057 105.407, 127.661 130.133 C 127.438 144.085, 126.727 162.202, 126.080 170.393 C 125.069 183.193, 125.117 186.004, 126.422 190.393 C 127.257 193.202, 128.377 197.075, 128.910 199 C 131.035 206.676, 132.890 210.472, 134.970 211.400 C 139.331 213.346, 139.657 208.135, 136.301 190.143 C 135.055 183.464, 134.896 178.546, 135.509 165.643 C 135.931 156.764, 136.407 138.588, 136.567 125.250 L 136.857 101 134.679 101.033 C 133.480 101.052, 131.503 101.899, 130.283 102.917 M 247.834 108.499 C 247.222 109.112, 238.757 111.011, 234 111.603 C 227.988 112.351, 216.696 112.146, 171.292 110.468 C 154.606 109.852, 149.756 109.957, 148.542 110.965 C 147.694 111.669, 147 111.949, 147 111.587 C 147 111.226, 146.100 111.411, 145 112 C 142.549 113.312, 142.469 115.293, 144.716 119.096 C 146.596 122.279, 149.066 122.831, 151 120.500 C 151.754 119.591, 153.944 119, 156.557 119 C 158.929 119, 162.114 118.527, 163.635 117.949 C 165.644 117.185, 167.559 117.239, 170.638 118.149 L 174.877 119.400 173.197 122.243 C 172.274 123.806, 170.502 125.752, 169.259 126.566 C 167.510 127.712, 166.995 129.001, 166.980 132.273 C 166.955 137.560, 162.471 161.929, 161.310 163.090 C 160.831 163.569, 156.324 163.489, 151.127 162.908 C 142.801 161.979, 141.601 162.051, 139.902 163.589 C 138.856 164.535, 138 165.753, 138 166.295 C 138 167.858, 141.285 169.933, 143.816 169.968 C 145.089 169.986, 147.035 170.484, 148.140 171.075 C 149.817 171.972, 150.238 171.807, 150.691 170.075 C 150.989 168.934, 151.646 168, 152.150 168 C 153.469 168, 158.993 173.841, 159.039 175.284 C 159.061 175.953, 159.058 185.050, 159.034 195.500 C 159.009 205.950, 159.380 215.102, 159.857 215.837 C 160.335 216.573, 161.800 217.023, 163.113 216.837 C 166.069 216.419, 166.760 212.807, 167.826 192.193 C 168.315 182.749, 168.980 177.630, 169.783 177.134 C 171.345 176.169, 184.531 177.563, 188.197 179.081 C 190.353 179.975, 191.688 179.958, 193.982 179.007 C 199.717 176.632, 200.038 177.417, 199.800 193.222 C 199.559 209.147, 201.212 225.641, 203.253 227.681 C 204.334 228.763, 204.904 228.778, 206.222 227.760 C 208.169 226.255, 210.244 211.107, 209.382 204.684 C 209.073 202.383, 209.280 195.597, 209.842 189.604 C 210.972 177.546, 211.916 175.735, 217.224 175.440 C 219.026 175.340, 223.705 174.916, 227.623 174.497 C 233.670 173.851, 235.221 174.018, 237.897 175.598 C 240.304 177.020, 241.456 177.204, 242.774 176.378 C 244.742 175.144, 245.418 172.125, 244.159 170.189 C 242.764 168.044, 229.364 165.677, 225.749 166.938 C 224.073 167.522, 220.332 168, 217.436 168 L 212.171 168 211.782 161.250 C 211.568 157.537, 211.786 151.717, 212.265 148.314 C 213.394 140.297, 212.921 135.965, 210.769 134.618 C 206.656 132.043, 203.578 141.147, 202.350 159.517 C 201.564 171.277, 201.607 171.246, 188.410 169.504 C 169.976 167.070, 171 167.512, 171 162.001 C 171 159.389, 171.619 155.497, 172.376 153.352 C 173.133 151.207, 174.088 145.649, 174.500 141.002 C 174.911 136.354, 175.918 131.528, 176.738 130.277 C 177.813 128.636, 178.038 126.741, 177.547 123.466 L 176.867 118.928 179.665 119.631 C 181.205 120.017, 182.922 120.273, 183.482 120.198 C 184.042 120.124, 189.152 119.826, 194.838 119.536 C 200.524 119.246, 205.535 118.787, 205.973 118.516 C 206.412 118.246, 208.059 118.472, 209.635 119.019 C 214.254 120.623, 245 117.903, 245 115.891 C 245 115.401, 245.666 115, 246.481 115 C 248.360 115, 248.602 116.219, 250.447 135 C 252.195 152.778, 252.227 154.713, 251.414 192.500 C 250.940 214.484, 250.484 221.198, 249.292 223.750 C 247.466 227.655, 246.672 227.738, 242.012 224.508 C 234.999 219.648, 222.113 218.816, 225.977 223.473 C 227.939 225.836, 237.135 230.162, 238.822 229.515 C 239.779 229.148, 242.311 231.074, 245.927 234.922 C 249.116 238.316, 252.015 240.597, 252.633 240.200 C 254.187 239.200, 257 233.436, 257 231.250 C 257 230.232, 257.402 228.973, 257.893 228.450 C 259.858 226.360, 261.004 216.049, 261.088 199.701 C 261.137 190.240, 261.481 175.300, 261.852 166.500 C 262.510 150.927, 262.371 147.879, 260.106 128 C 258.584 114.646, 257.480 111.300, 254.003 109.502 C 251.051 107.975, 248.735 107.598, 247.834 108.499 M 148.250 114.250 C 148.880 116.142, 152 116.411, 152 114.573 C 152 113.646, 151.145 113, 149.917 113 C 148.695 113, 148.005 113.517, 148.250 114.250 M 206 116 C 206 116.550, 206.450 117, 207 117 C 207.550 117, 208 116.550, 208 116 C 208 115.450, 207.550 115, 207 115 C 206.450 115, 206 115.450, 206 116 M 27.752 126.841 C 24.225 128.970, 24.261 131.132, 27.856 133.256 C 29.920 134.475, 31.515 134.716, 33.606 134.123 C 35.198 133.672, 40.325 133.405, 45 133.529 C 49.675 133.654, 59.800 133.803, 67.500 133.862 C 75.200 133.921, 83.750 134.053, 86.500 134.156 C 97.838 134.581, 99.246 134.199, 97.362 131.212 C 95.976 129.015, 91.209 128.258, 74.328 127.556 C 66.723 127.239, 56 126.557, 50.500 126.039 C 36.487 124.719, 30.944 124.915, 27.752 126.841 M 22.020 149.743 C 19.555 149.960, 16.968 150.612, 16.270 151.191 C 14.704 152.491, 14.588 181.839, 16.118 189.500 C 16.668 192.250, 17.492 197.875, 17.951 202 C 19.085 212.206, 22.594 222.688, 25.517 224.603 C 27.451 225.870, 28.177 225.906, 29.917 224.820 C 31.968 223.539, 32.657 220.990, 31.315 219.648 C 29.777 218.110, 28.028 211.191, 27.991 206.500 C 27.970 203.750, 27.519 199.700, 26.990 197.500 C 23.345 182.351, 23.768 176.846, 28.730 174.875 C 30.253 174.270, 32.675 173.162, 34.111 172.413 C 35.547 171.664, 40.047 170.853, 44.111 170.612 C 48.175 170.370, 53.092 169.493, 55.038 168.662 C 58.763 167.071, 70.236 166.471, 75.769 167.578 C 79.051 168.235, 83 172.088, 83 174.632 C 83 175.382, 84.350 178.852, 86 182.344 C 87.650 185.836, 89.005 190, 89.012 191.597 C 89.018 193.194, 89.688 196.975, 90.500 200 C 91.536 203.860, 91.980 210.776, 91.988 223.191 C 91.995 233.998, 92.393 241.125, 93.009 241.506 C 94.743 242.577, 97.620 241.078, 99.090 238.335 C 101.202 234.393, 101.031 202.378, 98.834 190.468 C 97.056 180.832, 93.482 171.632, 89.475 166.379 C 85.288 160.889, 81.896 159.789, 69.605 159.933 C 63.613 160.003, 58.312 160.307, 57.824 160.609 C 57.336 160.910, 52.729 161.555, 47.586 162.042 C 42.443 162.528, 35.469 163.695, 32.089 164.635 C 24.626 166.710, 23.207 165.933, 24.930 160.713 C 25.560 158.804, 26.958 156.443, 28.038 155.466 C 30.553 153.190, 30.697 148.930, 28.250 149.175 C 27.288 149.271, 24.484 149.527, 22.020 149.743 M 205.079 162.583 C 205.127 163.748, 205.364 163.985, 205.683 163.188 C 205.972 162.466, 205.936 161.603, 205.604 161.271 C 205.272 160.939, 205.036 161.529, 205.079 162.583 M 32.813 168.683 C 33.534 168.972, 34.397 168.936, 34.729 168.604 C 35.061 168.272, 34.471 168.036, 33.417 168.079 C 32.252 168.127, 32.015 168.364, 32.813 168.683 M 18.693 232.181 C 16.442 233.002, 15.948 233.728, 16.193 235.852 C 16.468 238.221, 16.974 238.534, 20.998 238.820 C 23.472 238.995, 26.268 239.837, 27.211 240.691 C 28.154 241.544, 29.583 241.990, 30.388 241.681 C 31.192 241.373, 35.596 241.544, 40.175 242.062 C 62.010 244.530, 74.938 243.405, 83.390 238.299 C 85.925 236.768, 88 235.160, 88 234.726 C 88 233.254, 84.875 232.729, 82.683 233.834 C 78.891 235.743, 65.958 236.788, 58 235.827 C 53.875 235.329, 48.700 234.827, 46.500 234.711 C 44.300 234.595, 42.050 234.245, 41.500 233.933 C 40.950 233.621, 38.700 233.245, 36.500 233.097 C 34.300 232.949, 30.301 232.417, 27.614 231.914 C 21.972 230.859, 22.351 230.847, 18.693 232.181 M 43.667 236.667 C 42.492 237.841, 42.954 241, 44.300 241 C 46.221 241, 47.921 238.957, 47.315 237.378 C 46.757 235.925, 44.792 235.542, 43.667 236.667" stroke="none" fill="black" fill-rule="evenodd"/>
</svg>