<svg xmlns="http://www.w3.org/2000/svg" width="300" height="300" viewBox="0 0 300 300" version="1.1">
	<path d="M 177.557 15.223 C 176.701 16.445, 176 18.068, 176 18.830 C 176 19.591, 174.683 22.978, 173.073 26.357 C 171.463 29.736, 169.597 34.750, 168.926 37.500 C 168.255 40.250, 165.220 47.225, 162.180 53 C 151.905 72.523, 150.164 76.475, 146.933 87.604 C 143.516 99.377, 143.470 104.441, 146.786 103.803 C 148.092 103.551, 148.686 101.928, 149.280 96.986 C 149.961 91.321, 155.627 77.164, 160.081 70 C 161.919 67.044, 167.790 54.434, 168.897 51.065 C 169.517 49.176, 170.659 46.926, 171.434 46.065 C 172.209 45.204, 172.991 42.925, 173.172 41 C 173.424 38.306, 173.996 37.429, 175.655 37.193 C 177.479 36.933, 183 30.345, 183 28.429 C 183 28.092, 183.900 26.671, 185 25.273 C 187.235 22.431, 187.693 16.093, 185.800 14.200 C 183.811 12.211, 179.272 12.774, 177.557 15.223 M 210.649 25.233 C 209.914 28.046, 211.689 30.107, 213.026 27.992 C 214.425 25.779, 214.197 23, 212.617 23 C 211.856 23, 210.971 24.005, 210.649 25.233 M 217.588 25.250 C 215.072 34.268, 214.995 33.560, 218.874 37.220 C 220.869 39.101, 224.011 42.281, 225.858 44.287 C 227.705 46.293, 230.114 48.219, 231.211 48.567 C 234.039 49.465, 239.354 53.200, 243.022 56.868 C 246.459 60.305, 249.438 60.906, 250.416 58.359 C 251.570 55.350, 244.103 46.808, 237 43.014 C 235.075 41.986, 232.375 39.975, 231 38.547 C 229.625 37.119, 227.202 34.724, 225.615 33.225 C 224.029 31.726, 222.110 29.038, 221.352 27.250 C 219.943 23.930, 218.213 23.010, 217.588 25.250 M 85.585 43.496 C 82.332 44.207, 73.107 44.845, 65.085 44.915 C 48.587 45.059, 48.257 45.088, 41.750 47.024 C 38.365 48.031, 37 48.954, 37 50.237 C 37 51.622, 37.536 51.903, 39.324 51.455 C 40.799 51.084, 42.123 51.443, 42.947 52.436 C 44.834 54.710, 48 54.437, 48 52 C 48 49.696, 50.782 49.268, 51.617 51.444 C 51.980 52.390, 53.469 52.835, 55.938 52.737 C 59.032 52.614, 59.621 52.267, 59.236 50.793 C 58.637 48.503, 62.190 48.319, 64.038 50.546 C 64.743 51.396, 65.980 51.838, 66.787 51.528 C 67.594 51.219, 68.879 51.485, 69.644 52.119 C 71.297 53.492, 81.345 52.666, 89.806 50.462 C 92.894 49.658, 97.764 49, 100.628 49 C 103.493 49, 106.548 48.727, 107.418 48.393 C 109.290 47.675, 109.494 44.894, 107.800 43.200 C 106.231 41.631, 93.342 41.803, 85.585 43.496 M 173.250 64.732 C 169.132 65.103, 169 65.224, 169 68.618 C 169 72.054, 169.071 72.115, 172.750 71.810 C 175.233 71.605, 177.057 72.057, 178.147 73.147 C 179.378 74.378, 182.534 74.954, 190.647 75.430 C 208.208 76.461, 209.965 76.470, 221.691 75.590 C 233.399 74.712, 234.781 74.037, 233.453 69.851 C 232.932 68.210, 231.813 67.994, 224.180 68.060 C 205.400 68.222, 201.800 67.993, 192.411 66.032 C 187.060 64.914, 181.516 64.079, 180.091 64.175 C 178.666 64.271, 175.588 64.522, 173.250 64.732 M 197.667 72.667 C 196.516 73.817, 196.938 75, 198.500 75 C 199.325 75, 200 74.325, 200 73.500 C 200 71.938, 198.817 71.516, 197.667 72.667 M 203.269 74.693 C 204.242 74.947, 205.592 74.930, 206.269 74.656 C 206.946 74.382, 206.150 74.175, 204.500 74.195 C 202.850 74.215, 202.296 74.439, 203.269 74.693 M 81.500 78.089 C 78.750 78.462, 70.425 79.298, 63 79.948 C 43.327 81.669, 40.586 82.195, 40.175 84.332 C 39.577 87.433, 42.600 89.677, 47.473 89.751 C 51.009 89.804, 52.047 89.426, 52.529 87.909 C 53.301 85.476, 56.830 85.340, 56.639 87.750 C 56.537 89.037, 57.162 89.444, 59 89.288 C 70.694 88.294, 74.394 87.875, 75.049 87.470 C 75.467 87.211, 80.690 86.723, 86.655 86.384 C 92.620 86.045, 97.803 85.287, 98.174 84.698 C 98.639 83.960, 99.324 84.024, 100.384 84.903 C 102.496 86.656, 116.640 85.379, 117.413 83.366 C 118.068 81.660, 114.684 78.054, 112.250 77.862 C 106.064 77.374, 85.664 77.525, 81.500 78.089 M 185.802 81.500 C 183.907 83.812, 174 98.953, 174 99.537 C 174 99.887, 172.729 102.047, 171.176 104.337 C 162.167 117.622, 161.084 119.604, 161.651 121.773 C 162.273 124.150, 166.305 124.933, 167.550 122.919 C 168.417 121.516, 173.040 122.672, 174.490 124.656 C 175.738 126.363, 184.898 126.116, 195 124.104 C 198.025 123.501, 205 122.345, 210.500 121.534 C 223.387 119.634, 223.133 119.350, 222.429 134.909 C 221.547 154.384, 220.029 157.172, 210.256 157.264 C 203.662 157.326, 197.429 154.363, 191.335 148.268 C 186.333 143.266, 184.312 145.640, 187.626 152.624 C 189.865 157.342, 197.608 164.755, 201.097 165.521 C 202.681 165.869, 204.234 166.569, 204.548 167.077 C 205.481 168.588, 213.853 168.125, 217.300 166.373 C 221.612 164.180, 221.562 164.278, 219.524 162.027 C 217.828 160.152, 217.825 160.005, 219.465 159.375 C 220.441 159, 221.536 159.249, 221.964 159.942 C 222.383 160.620, 223.800 161.023, 225.113 160.837 C 227.075 160.560, 227.555 159.833, 227.810 156.750 C 228.047 153.886, 227.752 153, 226.560 153 C 225.443 153, 225.033 152.078, 225.116 149.750 C 225.180 147.963, 225.430 147.249, 225.673 148.165 C 225.915 149.081, 226.700 150.055, 227.417 150.330 C 229.890 151.279, 232 140.155, 232 126.170 C 232 114.820, 231.778 113.109, 230.106 111.596 C 228.363 110.019, 227.786 110.002, 222.856 111.391 C 219.910 112.221, 213.114 113.158, 207.754 113.473 C 202.394 113.788, 196.967 114.442, 195.694 114.926 C 192.266 116.230, 175.457 118.113, 173.603 117.401 C 171.350 116.537, 171.610 113.656, 174.145 111.405 C 175.325 110.357, 177.146 107.588, 178.192 105.250 C 179.238 102.912, 180.508 101, 181.014 101 C 181.521 101, 183.725 98.638, 185.913 95.750 C 188.101 92.862, 191.715 89.381, 193.945 88.014 C 200.448 84.027, 198.770 79.702, 190.919 80.218 C 188.555 80.373, 186.252 80.950, 185.802 81.500 M 75.750 82.662 C 76.438 82.940, 77.563 82.940, 78.250 82.662 C 78.938 82.385, 78.375 82.158, 77 82.158 C 75.625 82.158, 75.063 82.385, 75.750 82.662 M 87.813 83.683 C 88.534 83.972, 89.397 83.936, 89.729 83.604 C 90.061 83.272, 89.471 83.036, 88.417 83.079 C 87.252 83.127, 87.015 83.364, 87.813 83.683 M 61.609 84.824 C 61.256 85.395, 61.455 86.163, 62.050 86.531 C 63.536 87.449, 64.062 86.719, 63.071 85.114 C 62.539 84.255, 62.024 84.152, 61.609 84.824 M 93.500 110.240 C 92.038 111.161, 84.776 111.519, 66.500 111.571 C 52.750 111.610, 40.926 111.723, 40.225 111.821 C 37.866 112.152, 36.778 117.013, 38.482 119.613 C 39.902 121.780, 40.484 121.910, 46.258 121.355 C 49.691 121.024, 54.750 120.789, 57.500 120.832 C 60.250 120.876, 61.938 120.668, 61.250 120.372 C 59.855 119.771, 59.523 117, 60.845 117 C 61.310 117, 62.547 117.960, 63.595 119.133 C 65.433 121.192, 66.042 121.245, 80.884 120.645 C 89.345 120.303, 96.807 119.575, 97.467 119.027 C 98.127 118.480, 103.252 117.731, 108.857 117.364 C 118.607 116.725, 119.155 116.797, 121.524 119.022 C 122.886 120.302, 124 121.945, 124 122.674 C 124 124.586, 127.048 124.305, 128.608 122.250 C 130.822 119.333, 130.180 116.567, 126.447 112.946 L 122.895 109.500 109.197 109.240 C 99.510 109.056, 94.914 109.349, 93.500 110.240 M 90.333 116.500 C 90.333 117.175, 91.308 117.473, 92.667 117.213 C 93.950 116.968, 95 116.647, 95 116.500 C 95 116.353, 93.950 116.032, 92.667 115.787 C 91.308 115.527, 90.333 115.825, 90.333 116.500 M 70.813 116.683 C 71.534 116.972, 72.397 116.936, 72.729 116.604 C 73.061 116.272, 72.471 116.036, 71.417 116.079 C 70.252 116.127, 70.015 116.364, 70.813 116.683 M 83.750 117.662 C 84.438 117.940, 85.563 117.940, 86.250 117.662 C 86.938 117.385, 86.375 117.158, 85 117.158 C 83.625 117.158, 83.063 117.385, 83.750 117.662 M 64.412 146.906 C 63.264 147.406, 59.664 148.110, 56.412 148.469 C 48.925 149.296, 40.870 151.099, 39.250 152.311 C 38.563 152.824, 38 154.315, 38 155.622 C 38 157.642, 38.493 158, 41.277 158 C 43.080 158, 45.559 157.297, 46.785 156.438 C 48.807 155.022, 49.071 155.022, 49.615 156.438 C 49.944 157.297, 51.346 158, 52.729 158 C 54.781 158, 55.029 157.740, 54.074 156.589 C 53.175 155.506, 53.191 155, 54.142 154.412 C 54.824 153.991, 55.528 154.063, 55.707 154.573 C 56.674 157.330, 57.886 158.171, 59.947 157.517 C 61.170 157.129, 61.926 156.250, 61.652 155.536 C 60.871 153.499, 65.315 151.691, 69.073 152.516 L 72.383 153.243 69.442 154.522 C 66.756 155.690, 67.284 155.809, 75.500 155.891 C 100.354 156.138, 107.861 156.794, 111.910 159.070 C 116.424 161.606, 119 161.104, 119 157.686 C 119 152.148, 108.848 148.662, 89.500 147.558 C 84.550 147.275, 77.350 146.808, 73.500 146.520 C 69.650 146.232, 65.560 146.405, 64.412 146.906 M 34.063 174.162 C 30.809 177.656, 30.500 179.964, 30.506 200.720 C 30.511 217.663, 30.718 220.147, 32.256 221.684 C 33.915 223.343, 34 223.284, 34.006 220.464 L 34.012 217.500 35.495 220.343 C 36.311 221.907, 36.914 224.839, 36.834 226.859 C 36.755 228.879, 37.157 231.424, 37.728 232.516 C 38.298 233.607, 39.155 235.803, 39.632 237.396 C 40.742 241.102, 43.676 243.111, 44.963 241.047 C 45.994 239.393, 45.397 235.324, 43.269 229.500 C 41.189 223.805, 40.126 217.228, 39.068 203.500 C 38.298 193.496, 38.406 190.668, 39.721 186.500 C 41.635 180.434, 43.585 178, 46.533 178 C 49.227 178, 51.439 175.586, 50.643 173.513 C 49.978 171.778, 45.450 171.463, 44.450 173.081 C 43.833 174.079, 41.362 173.843, 37.695 172.436 C 36.852 172.113, 35.274 172.863, 34.063 174.162 M 142.400 172.765 C 138.659 175.263, 138.388 178.033, 137.875 219 C 137.815 223.833, 139.390 233.966, 140.633 236.741 C 143.332 242.765, 148.004 246.700, 153.243 247.361 C 156.601 247.785, 157.916 247.618, 157.743 246.789 C 157.609 246.146, 158.353 245.434, 159.396 245.208 C 160.773 244.910, 161.130 245.218, 160.702 246.334 C 159.912 248.393, 160.694 248.555, 169.572 248.168 C 176.415 247.869, 177.141 247.647, 176.706 245.982 C 176.131 243.783, 177.653 243.020, 181.242 243.706 C 183.102 244.062, 183.686 244.655, 183.262 245.760 C 182.747 247.103, 183.465 247.221, 188.531 246.625 C 194.959 245.870, 196.141 245.323, 194.089 244.055 C 193.050 243.413, 193.229 243.062, 194.859 242.545 C 197.789 241.615, 199.441 242.764, 197.879 244.646 C 196.823 245.918, 197.383 246.023, 202.080 245.433 C 205.061 245.058, 207.928 244.357, 208.450 243.876 C 208.973 243.394, 209.030 243, 208.578 243 C 208.125 243, 208.273 242.375, 208.907 241.612 C 210.192 240.063, 216.768 241.007, 217.943 242.908 C 218.926 244.498, 233.423 244.814, 233.605 243.250 C 233.685 242.563, 233.806 241.550, 233.875 241 C 234.105 239.162, 237.857 239.973, 238.500 242 C 239.081 243.831, 240.013 244, 249.502 244 C 255.204 244, 261.036 243.557, 262.461 243.015 C 265.463 241.874, 266.862 239.151, 265.029 238.018 C 263.021 236.777, 250.019 235.986, 229.381 235.850 L 210.262 235.724 210.143 220.112 C 210.051 208.117, 210.366 203.842, 211.499 201.660 C 214.181 196.499, 210.261 192.844, 206.500 197 C 205.505 198.100, 203.846 199, 202.814 199 C 201.782 199, 200.659 199.724, 200.320 200.609 C 199.980 201.494, 200.929 209.634, 202.428 218.698 C 203.927 227.763, 205.007 235.300, 204.827 235.448 C 204.267 235.907, 181.027 237.960, 170 238.524 C 164.225 238.820, 157.326 239.552, 154.669 240.150 C 151.281 240.913, 149.523 240.923, 148.783 240.183 C 147.430 238.830, 146.314 209.163, 147.089 195.148 C 147.418 189.206, 148.440 182.305, 149.401 179.532 C 151.038 174.813, 151.036 174.500, 149.371 173.282 C 147.440 171.870, 144.110 171.623, 142.400 172.765 M 199 176.556 C 197.234 177.024, 180.413 178.807, 167.176 179.930 C 157.479 180.752, 154.136 182.307, 155.338 185.437 C 156.348 188.071, 160.342 188.902, 169.239 188.330 L 177.681 187.787 179.805 194.644 C 180.973 198.415, 182.471 203.525, 183.134 206 C 183.797 208.475, 185.104 211.400, 186.039 212.500 C 186.973 213.600, 187.999 216.850, 188.319 219.721 C 189.030 226.123, 190.472 229, 192.969 229 C 195.498 229, 195.936 225.091, 194.203 218 C 191.891 208.545, 189.817 196.687, 189.655 192 C 189.505 187.640, 189.602 187.484, 192.789 187 C 194.598 186.725, 196.061 186.162, 196.039 185.750 C 196.018 185.338, 196 184.550, 196 184 C 196 183.450, 195.213 182.982, 194.250 182.961 C 193.262 182.939, 193.954 182.290, 195.837 181.472 C 198.246 180.426, 199.707 180.308, 201.087 181.047 C 203.142 182.147, 203.678 184, 201.941 184 C 201.359 184, 201.158 184.446, 201.494 184.991 C 201.844 185.557, 204.980 185.802, 208.803 185.563 C 218.785 184.939, 236.076 186.759, 238.170 188.654 C 239.338 189.711, 240.004 192.071, 240.203 195.863 C 240.448 200.517, 240.805 201.476, 242.250 201.361 C 243.213 201.285, 244 201.810, 244 202.529 C 244 203.248, 244.261 204.515, 244.579 205.345 C 245.014 206.478, 244.640 206.719, 243.079 206.310 C 241.143 205.804, 241 206.183, 241 211.800 C 241 215.672, 241.439 217.980, 242.225 218.242 C 243.023 218.508, 243.372 220.456, 243.225 223.825 C 243.015 228.653, 243.157 229, 245.348 229 C 247.095 229, 248.128 228.040, 249.384 225.250 C 250.951 221.767, 250.962 220.260, 249.539 204.079 C 248.475 191.992, 247.520 185.916, 246.419 184.235 C 244.264 180.947, 237.695 178.214, 229.394 177.151 C 222.330 176.247, 201.691 175.843, 199 176.556 M 93 181.097 C 89.975 181.618, 80.271 182.635, 71.435 183.357 C 54.712 184.722, 49.701 186.211, 48.680 190.117 C 47.627 194.143, 54.435 196.485, 58.636 193.542 C 59.781 192.741, 61.793 192.148, 63.109 192.226 C 64.424 192.303, 70.112 192.284, 75.750 192.183 C 85.272 192.013, 86 191.858, 86 190 C 86 188.900, 86.413 188, 86.918 188 C 87.423 188, 88.661 187.738, 89.668 187.418 C 91.402 186.868, 91.406 186.914, 89.750 188.279 C 87.363 190.246, 87.552 191, 90.435 191 C 94.262 191, 98.026 189.233, 97.442 187.710 C 96.868 186.214, 100.743 184.042, 102.750 184.735 C 104.498 185.339, 104.315 187, 102.500 187 C 101.675 187, 101 187.450, 101 188 C 101 188.556, 103.681 189, 107.044 189 C 112.245 189, 113.047 188.756, 112.794 187.250 C 112.595 186.069, 113.150 185.500, 114.500 185.500 C 116.034 185.500, 116.441 186.082, 116.247 188 C 116.050 189.950, 116.211 190.170, 116.982 189 C 117.671 187.954, 118.012 187.878, 118.110 188.750 C 118.370 191.071, 119.717 194.814, 121.079 197 C 121.592 197.825, 122.289 199.175, 122.627 200 C 122.965 200.825, 124.113 203.383, 125.178 205.685 C 126.561 208.672, 126.924 210.889, 126.446 213.435 C 125.904 216.323, 126.083 217, 127.389 217 C 128.275 217, 129 217.477, 129 218.059 C 129 218.641, 128.550 218.840, 128 218.500 C 126.576 217.620, 126.724 226.324, 128.158 227.758 C 128.953 228.553, 128.997 229.319, 128.298 230.208 C 126.849 232.049, 125.991 237.367, 126.904 238.844 C 127.849 240.374, 128.697 239.406, 131.832 233.219 C 134.642 227.671, 134.703 218.243, 132.010 205.739 C 130.268 197.656, 129.103 194.192, 126.059 188.045 C 125.663 187.245, 123.736 185.292, 121.776 183.707 C 118.478 181.037, 117.483 180.798, 108.357 180.486 C 102.936 180.301, 96.025 180.576, 93 181.097 M 214 182.531 C 214 183.339, 214.675 184, 215.500 184 C 216.325 184, 217 183.598, 217 183.107 C 217 182.616, 216.325 181.955, 215.500 181.638 C 214.586 181.288, 214 181.637, 214 182.531 M 206.813 183.683 C 207.534 183.972, 208.397 183.936, 208.729 183.604 C 209.061 183.272, 208.471 183.036, 207.417 183.079 C 206.252 183.127, 206.015 183.364, 206.813 183.683 M 44.180 193.172 C 44.356 194.366, 45.062 195.529, 45.749 195.755 C 47.563 196.352, 48.571 192.975, 46.896 191.914 C 44.640 190.486, 43.840 190.856, 44.180 193.172 M 33.926 193.250 C 33.885 193.387, 33.611 197.662, 33.317 202.750 C 32.945 209.177, 33.121 212, 33.891 212 C 34.625 212, 35 208.789, 35 202.500 C 35 197.275, 34.775 193, 34.500 193 C 34.225 193, 33.967 193.113, 33.926 193.250 M 141.607 197.582 C 140.655 200.062, 140.896 204, 142 204 C 142.550 204, 143 202.200, 143 200 C 143 195.737, 142.589 195.023, 141.607 197.582 M 141.068 213.950 C 141.016 216.580, 141.278 217.122, 142.167 216.233 C 143.031 215.369, 143.048 214.470, 142.235 212.783 C 141.202 210.639, 141.131 210.710, 141.068 213.950 M 140.630 220.250 C 139.338 225.071, 140.278 231.564, 142.105 230.435 C 143.266 229.717, 143.277 218, 142.117 218 C 141.631 218, 140.962 219.012, 140.630 220.250 M 102.823 238.508 C 102.450 238.882, 91.296 239.258, 78.036 239.344 C 53.077 239.505, 52.067 239.674, 52.015 243.679 C 51.968 247.309, 54.411 247.719, 76.181 247.740 C 87.907 247.751, 98.175 247.415, 99 246.993 C 99.825 246.571, 105 245.934, 110.500 245.577 C 122.484 244.800, 124 244.406, 124 242.071 C 124 240.589, 122.823 240.158, 117.250 239.597 C 113.537 239.224, 108.925 238.673, 107 238.373 C 105.075 238.073, 103.195 238.134, 102.823 238.508 M 189.510 244.016 C 189.856 244.575, 190.557 244.774, 191.069 244.457 C 192.456 243.600, 192.198 243, 190.441 243 C 189.584 243, 189.165 243.457, 189.510 244.016 M 66.930 245.585 C 65.945 246.772, 66.528 247, 70.544 247 C 75.770 247, 75.960 246.423, 71.188 245.054 C 68.899 244.397, 67.802 244.534, 66.930 245.585 M 169.750 244.662 C 170.438 244.940, 171.563 244.940, 172.250 244.662 C 172.938 244.385, 172.375 244.158, 171 244.158 C 169.625 244.158, 169.063 244.385, 169.750 244.662" stroke="none" fill="black" fill-rule="evenodd"/>
</svg>