<svg xmlns="http://www.w3.org/2000/svg" width="300" height="300" viewBox="0 0 300 300" version="1.1">
	<path d="M 209.500 26.656 C 196.375 29.442, 189.084 33.171, 190.344 36.455 C 190.636 37.214, 190.227 38.083, 189.437 38.386 C 188.647 38.689, 188 39.701, 188 40.635 C 188 44.019, 186.569 40.801, 186.041 36.229 C 185.577 32.212, 185.099 31.402, 182.691 30.558 C 180.516 29.795, 179.673 29.903, 178.956 31.036 C 178.447 31.841, 178.024 38.658, 178.015 46.185 C 177.998 61.959, 177.313 64.718, 173.302 65.179 C 169.640 65.599, 168.657 69.836, 172.018 70.715 C 174.203 71.286, 174.237 71.596, 172.812 78.039 C 172.632 78.855, 173.423 79.594, 174.686 79.787 C 176.201 80.019, 177.275 79.357, 178.186 77.629 C 178.909 76.257, 181.347 73.800, 183.604 72.167 C 187.131 69.616, 188.811 69.140, 195.537 68.784 C 201.605 68.462, 203.605 67.977, 204.432 66.626 C 205.264 65.269, 205.093 64.580, 203.661 63.516 C 201.729 62.080, 197.443 62.177, 190.244 63.819 C 187.903 64.353, 185.813 64.500, 185.599 64.145 C 185.385 63.790, 185.445 59.411, 185.734 54.413 C 186.242 45.620, 186.332 45.341, 188.531 45.761 C 190.158 46.072, 190.984 45.625, 191.441 44.187 C 192.628 40.447, 204.404 33, 209.131 33 C 210.186 33, 211.437 34.008, 211.924 35.250 C 213.167 38.426, 214.931 52.128, 215.239 61 C 215.383 65.125, 215.864 68.768, 216.309 69.095 C 216.754 69.423, 217.504 82.923, 217.976 99.095 C 218.742 125.370, 218.402 141.997, 216.503 171 C 216.232 175.125, 215.540 187.047, 214.964 197.494 C 214.388 207.941, 213.499 220.991, 212.989 226.494 C 208.698 272.833, 207.402 279.356, 202.966 276.982 C 201.885 276.403, 201 275.340, 201 274.620 C 201 273.048, 197.815 270, 196.171 270 C 195.527 270, 195 270.969, 195 272.154 C 195 274.463, 202.399 282, 204.666 282 C 205.400 282, 206 282.460, 206 283.021 C 206 284.844, 210.763 286.442, 212.326 285.144 C 214.063 283.703, 216.496 271.852, 218.003 257.500 C 218.638 251.450, 219.776 241.550, 220.531 235.500 C 221.286 229.450, 222.393 215.050, 222.991 203.500 C 223.589 191.950, 224.564 180.035, 225.157 177.023 C 225.826 173.626, 226.286 153.119, 226.368 123.023 C 226.482 81.136, 226.258 72.927, 224.729 63 C 223.755 56.675, 222.487 48.230, 221.911 44.233 C 221.335 40.236, 220.222 35.736, 219.438 34.233 C 218.654 32.730, 218.010 30.989, 218.006 30.365 C 218 29.168, 213.624 25.918, 212.285 26.116 C 211.853 26.180, 210.600 26.423, 209.500 26.656 M 125.699 36.634 C 125.351 36.983, 124.038 37.412, 122.783 37.589 C 119.020 38.118, 108.618 40.969, 106.873 41.949 C 105.978 42.452, 103.503 43.172, 101.373 43.550 C 92.339 45.153, 82.595 48.229, 76.250 51.481 C 73.934 52.668, 73 53.844, 73 55.573 C 73 56.908, 73.563 58.048, 74.250 58.106 C 74.938 58.165, 76.400 58.277, 77.500 58.356 C 79.276 58.484, 79.573 59.452, 80.151 67 C 80.509 71.675, 80.878 82.475, 80.972 91 C 81.066 99.525, 81.492 110.100, 81.919 114.500 C 82.347 118.900, 82.315 122.928, 81.848 123.450 C 80.572 124.879, 80.820 127.332, 82.601 130.902 C 84.422 134.553, 84.445 136.014, 83.507 190 C 83.168 209.525, 82.684 226.114, 82.433 226.864 C 82.181 227.615, 81.969 239.189, 81.962 252.584 C 81.947 278.377, 82.400 281.430, 86.825 285.371 C 90.422 288.575, 94.888 284.789, 91.730 281.213 C 89.207 278.355, 88.900 272.521, 89.980 248 C 91.012 224.568, 91.543 204.489, 92.476 153.680 C 92.747 138.928, 93.207 126.474, 93.498 126.003 C 94.511 124.365, 105.787 117.303, 110.129 115.588 C 112.533 114.638, 116.878 111.530, 119.785 108.681 C 122.691 105.831, 125.378 103.640, 125.755 103.811 C 126.509 104.154, 127.888 98.943, 130.467 86 C 131.399 81.325, 132.614 75.259, 133.168 72.520 C 133.721 69.781, 134.023 60.877, 133.837 52.732 C 133.568 40.922, 133.196 37.733, 132 36.978 C 130.283 35.894, 126.639 35.695, 125.699 36.634 M 109.813 44.683 C 110.534 44.972, 111.397 44.936, 111.729 44.604 C 112.061 44.272, 111.471 44.036, 110.417 44.079 C 109.252 44.127, 109.015 44.364, 109.813 44.683 M 120 44.630 C 119.175 44.914, 117.600 45.508, 116.500 45.951 C 111.099 48.124, 97.190 52.008, 94.821 52.004 C 88.691 51.995, 87.384 56.263, 88.736 71.862 C 89.291 78.263, 89.715 85.525, 89.679 88 C 89.642 90.475, 89.784 98.059, 89.995 104.854 C 90.416 118.423, 90.999 119.587, 95.758 116.360 C 97.266 115.337, 100.358 113.600, 102.628 112.500 C 110.991 108.449, 122 93.288, 122 85.823 C 122 83.792, 122.463 80.913, 123.028 79.426 C 123.593 77.939, 123.831 76.498, 123.556 76.222 C 123.002 75.668, 102.380 81.091, 97.254 83.139 C 94.442 84.262, 93.787 84.215, 92.361 82.789 C 90.864 81.293, 90.857 81, 92.286 79.571 C 93.150 78.707, 94.609 78, 95.527 78 C 96.446 78, 98.616 77.360, 100.349 76.578 C 102.082 75.796, 105.075 74.936, 107 74.668 C 110.772 74.141, 112.645 73.670, 115 72.656 C 115.825 72.301, 118.053 71.846, 119.950 71.646 C 121.939 71.437, 123.912 70.481, 124.607 69.391 C 125.307 68.294, 125.958 62.672, 126.157 56 L 126.500 44.500 124 44.307 C 122.625 44.201, 120.825 44.347, 120 44.630 M 94 49.059 C 94 49.641, 94.450 49.840, 95 49.500 C 95.550 49.160, 96 48.684, 96 48.441 C 96 48.198, 95.550 48, 95 48 C 94.450 48, 94 48.477, 94 49.059 M 218.574 54.667 C 218.222 55.584, 218.399 56.799, 218.967 57.367 C 219.678 58.078, 220 57.557, 220 55.700 C 220 52.615, 219.501 52.253, 218.574 54.667 M 191.166 81.234 C 190.681 81.719, 187.746 82.377, 184.642 82.697 C 181.539 83.018, 179 83.675, 179 84.159 C 179 84.642, 177.954 84.776, 176.676 84.455 C 173.465 83.649, 171.031 86.460, 173.126 88.555 C 174.332 89.761, 175.599 89.821, 180.540 88.908 C 183.818 88.303, 186.944 87.513, 187.486 87.154 C 188.028 86.794, 190.471 85.825, 192.914 85 C 195.357 84.175, 197.520 82.991, 197.721 82.370 C 198.166 80.996, 192.403 79.997, 191.166 81.234 M 135.500 126.249 C 123.271 127.383, 118.625 128.929, 118.163 132.019 C 117.826 134.264, 119.683 136.314, 121.202 135.375 C 121.641 135.104, 122 134.051, 122 133.035 C 122 131.435, 122.322 131.340, 124.415 132.328 C 125.743 132.954, 126.616 133.812, 126.356 134.234 C 125.275 135.983, 143.310 133.704, 145.709 131.789 C 146.374 131.258, 148.174 131.080, 149.709 131.394 C 156.541 132.790, 163.841 133.067, 164.527 131.956 C 166.317 129.061, 157.095 124.900, 149.500 125.176 C 147.300 125.256, 141 125.738, 135.500 126.249 M 132 130 C 132 130.550, 133.238 130.968, 134.750 130.930 C 137.187 130.867, 137.272 130.762, 135.500 130 C 132.769 128.826, 132 128.826, 132 130 M 159 143.528 C 151.855 144.719, 144.987 146.034, 127.829 149.495 C 117.730 151.532, 110.771 154.604, 111.224 156.823 C 111.504 158.190, 112.670 158.470, 117.534 158.335 C 124.096 158.154, 133.644 155.016, 133.250 153.171 C 132.914 151.597, 134.201 151.695, 136.559 153.423 C 138.812 155.074, 143.632 154.478, 146.231 152.225 C 147.305 151.294, 150.340 150.651, 154.231 150.530 C 157.679 150.423, 163.650 149.562, 167.500 148.617 C 171.350 147.672, 175.512 146.689, 176.750 146.431 C 178.168 146.135, 179 145.230, 179 143.981 C 179 142.203, 178.360 142.014, 172.750 142.139 C 169.313 142.216, 163.125 142.841, 159 143.528 M 160.269 168.007 C 154.091 169.603, 148.188 171.364, 147.150 171.920 C 146.112 172.475, 145.046 172.713, 144.781 172.447 C 144.258 171.925, 132.637 174.717, 130.070 175.981 C 129.207 176.406, 126.703 177.329, 124.506 178.030 C 116.228 180.674, 114 181.968, 114 184.130 C 114 185.871, 114.461 186.145, 116.676 185.722 C 118.198 185.431, 119.916 185.773, 120.659 186.516 C 122.750 188.608, 126.265 187.164, 125.742 184.428 C 125.368 182.474, 125.944 181.926, 129.652 180.706 C 134.164 179.220, 135.462 180.170, 132.250 182.608 C 130.246 184.129, 132.022 184.501, 134.764 183.134 C 137.334 181.852, 142.962 179.918, 147.500 178.757 C 151.667 177.691, 155.279 176.388, 158.236 174.883 C 159.191 174.397, 160.683 174, 161.551 174 C 162.419 174, 165.238 173.135, 167.815 172.077 C 170.392 171.020, 174.188 169.874, 176.250 169.532 C 179.092 169.060, 180 168.436, 180 166.955 C 180 164.123, 174.070 164.439, 160.269 168.007 M 122 183.559 C 122 184.416, 122.450 184.840, 123 184.500 C 123.550 184.160, 124 183.459, 124 182.941 C 124 182.423, 123.550 182, 123 182 C 122.450 182, 122 182.702, 122 183.559 M 159 197.624 C 154.875 198.394, 147.225 200.356, 142 201.984 C 136.775 203.612, 129.699 205.765, 126.275 206.770 C 119.146 208.861, 114.724 212.118, 115.670 214.581 C 116.159 215.857, 117.083 216.071, 119.898 215.560 C 121.879 215.200, 124.592 214.755, 125.927 214.571 C 127.262 214.387, 128.887 213.508, 129.537 212.618 C 130.188 211.728, 131.399 211, 132.228 211 C 133.866 211, 149.350 206.019, 155 203.674 C 156.925 202.876, 160.975 201.893, 164 201.490 C 169.358 200.777, 170.953 199.808, 170.985 197.250 C 171.003 195.732, 168.760 195.801, 159 197.624 M 149 225.464 C 147.625 226.169, 144.252 227.816, 141.504 229.123 C 138.756 230.430, 134.185 233.171, 131.346 235.213 C 125.437 239.465, 125.321 239.406, 122.476 230.750 C 121.436 227.588, 120.013 225, 119.312 225 C 118.152 225, 117.772 226.012, 116.449 232.629 C 116.214 233.800, 116.906 237.400, 117.987 240.629 C 119.067 243.858, 119.994 248.300, 120.046 250.500 C 120.141 254.514, 121.757 259.998, 121.962 257 C 122.041 255.838, 122.394 255.937, 123.532 257.441 C 125.458 259.988, 125.389 261.995, 123.323 263.506 C 121.861 264.575, 121.813 265.133, 122.944 267.866 C 124.928 272.655, 130 271.529, 130 266.300 C 130 263.682, 132.136 263.254, 134 265.500 C 134.685 266.325, 135.922 267, 136.750 267 C 137.958 267, 138.123 266.171, 137.584 262.800 C 136.742 257.531, 135.267 255.533, 133.379 257.100 C 132.356 257.950, 131.933 257.891, 131.653 256.863 C 131.449 256.113, 130.769 253.893, 130.141 251.929 C 128.186 245.809, 128.647 244.507, 134.272 240.260 C 137.172 238.071, 140.659 235.940, 142.022 235.525 C 143.385 235.110, 146.075 233.971, 148 232.993 C 152.044 230.940, 161.752 228.729, 163.090 229.556 C 163.591 229.865, 164 232.029, 164 234.364 C 164 237.488, 162.678 241.200, 159 248.401 C 156.250 253.786, 154 259.161, 154 260.346 C 154 262.387, 148.262 268, 146.176 268 C 145.664 268, 144.685 268.675, 144 269.500 C 142.032 271.871, 148.200 271.447, 153.290 268.861 C 158.455 266.237, 160.938 263.633, 166.163 255.360 C 170.083 249.152, 170.236 248.588, 170.754 238.457 C 171.460 224.619, 170.950 223.963, 159.595 224.091 C 155.143 224.142, 150.375 224.760, 149 225.464" stroke="none" fill="black" fill-rule="evenodd"/>
</svg>