<svg xmlns="http://www.w3.org/2000/svg" width="300" height="300" viewBox="0 0 300 300" version="1.1">
	<path d="M 191.848 16.400 C 189.590 18.388, 189.091 19.850, 188.493 26.228 C 188.107 30.348, 187.405 34.344, 186.933 35.108 C 186.318 36.103, 183.515 36.547, 177.038 36.676 C 167.660 36.862, 160 39.106, 160 41.667 C 160 44.511, 165.722 46.062, 175.162 45.777 C 184.183 45.504, 184.328 45.537, 184.990 48 C 185.360 49.375, 185.364 55.225, 185 61 C 184.571 67.782, 184.711 72.111, 185.393 73.225 C 186.089 74.360, 186.112 75.288, 185.463 75.937 C 183.828 77.572, 167.345 79.396, 153.328 79.494 C 140.614 79.582, 140.085 79.671, 138.111 82.043 C 136.987 83.394, 136.052 84.831, 136.033 85.237 C 135.990 86.197, 143.200 89.402, 144.500 88.999 C 145.916 88.561, 169.502 87.116, 175.520 87.098 C 178.281 87.091, 183.456 86.397, 187.020 85.557 C 190.584 84.717, 195.141 84.023, 197.146 84.015 C 200.862 84, 222.310 79.111, 227.189 77.167 C 229.988 76.052, 232 73.278, 232 70.534 C 232 68.165, 227.920 66.964, 225.527 68.628 C 224.443 69.383, 222.620 70, 221.477 70 C 220.335 70, 218.973 70.395, 218.450 70.878 C 217.201 72.032, 193.332 75.341, 191.454 74.621 C 189.793 73.983, 189.575 71.770, 190.925 69.236 C 191.433 68.281, 192.317 63.279, 192.888 58.119 C 194.046 47.654, 195.319 45.406, 200.648 44.406 C 202.504 44.058, 204.269 43.374, 204.570 42.887 C 204.871 42.399, 206.464 42, 208.109 42 C 211.552 42, 216.521 39.692, 217.268 37.745 C 217.548 37.014, 217.161 35.573, 216.407 34.542 C 215.213 32.909, 214.553 32.808, 211.268 33.756 C 205.111 35.534, 197.591 36.865, 196.726 36.331 C 195.355 35.483, 197.115 23.687, 199.142 20.140 C 200.623 17.548, 200.799 16.462, 199.909 15.390 C 198.202 13.334, 194.851 13.754, 191.848 16.400 M 61.250 65.408 C 57.750 69.100, 58.375 71.390, 63.838 74.896 C 66.498 76.603, 69.536 78.014, 70.588 78.032 C 71.639 78.049, 73.374 78.724, 74.441 79.532 C 75.509 80.339, 77.366 81, 78.569 81 C 79.772 81, 82.450 81.708, 84.521 82.573 C 88.821 84.370, 102.546 84.854, 104.135 83.265 C 104.704 82.696, 105.019 81.166, 104.835 79.865 C 104.530 77.711, 103.876 77.442, 97.500 76.845 C 86.657 75.831, 79.078 72.860, 69.553 65.889 C 64.793 62.405, 64.133 62.367, 61.250 65.408 M 227.421 88.910 C 220.087 94.454, 220.001 94.590, 219.985 100.750 C 219.976 103.912, 219.601 107.081, 219.151 107.790 C 218.700 108.500, 215.220 109.537, 211.416 110.095 C 203.045 111.322, 199.224 112.714, 198.013 114.976 C 197.283 116.340, 197.793 117.008, 200.585 118.339 C 204.956 120.424, 209.891 120.465, 212.779 118.442 C 216.332 115.954, 217.263 117.465, 216.425 124.362 C 215.599 131.152, 215.608 133.941, 216.457 134.790 C 217.599 135.933, 222.554 129.926, 224.298 125.285 C 225.286 122.653, 226.974 118.836, 228.048 116.802 C 229.121 114.768, 230 112.501, 230 111.765 C 230 110.251, 238.734 103.432, 242.515 101.994 C 244.535 101.226, 245 100.367, 245 97.400 C 245 93.816, 244.941 93.762, 241.750 94.398 C 239.963 94.754, 238.342 95.508, 238.150 96.073 C 237.816 97.052, 230.612 102, 229.520 102 C 229.234 102, 229 100.728, 229 99.174 C 229 97.440, 229.983 95.425, 231.545 93.957 C 233.208 92.395, 233.989 90.715, 233.795 89.110 C 233.372 85.590, 231.876 85.543, 227.421 88.910 M 94.846 100.442 C 92.888 101.115, 88.409 102.216, 84.893 102.889 C 81.377 103.562, 76.713 104.585, 74.529 105.162 C 72.345 105.740, 66.525 106.341, 61.595 106.498 C 54.334 106.730, 52.381 107.126, 51.315 108.583 C 49.208 111.466, 49.749 113.948, 52.750 115.165 C 55.873 116.431, 66.831 116.371, 68.438 115.079 C 69.022 114.609, 71.300 113.999, 73.500 113.723 C 80.249 112.877, 88.633 110.414, 92.466 108.152 C 94.473 106.969, 96.933 106, 97.935 106 C 100.300 106, 102.197 103.676, 101.440 101.704 C 100.559 99.409, 98.820 99.076, 94.846 100.442 M 152.078 105.083 C 150.175 106.667, 149.560 108.319, 149.206 112.799 C 148.668 119.608, 147.736 121, 143.716 121 C 139.635 121, 133.616 127.414, 135.098 130.182 C 136.264 132.361, 137.828 132.445, 140.441 130.468 C 142.786 128.695, 146.681 128.542, 147.234 130.201 C 147.454 130.862, 147.239 133.899, 146.756 136.951 C 146.273 140.003, 146.018 145.985, 146.189 150.244 L 146.500 157.988 143 159.360 C 141.075 160.114, 137.818 161.036, 135.762 161.408 C 131.450 162.190, 129.120 165.235, 131.053 167.564 C 133.291 170.261, 140.124 169.278, 148.878 165 C 153.380 162.800, 157.266 161, 157.512 161 C 158.434 161, 168.971 153.930, 171.289 151.757 C 172.613 150.516, 173.502 148.938, 173.265 148.250 C 172.661 146.502, 169.058 146.686, 168.362 148.500 C 168.045 149.325, 167.365 150, 166.851 150 C 166.337 150, 162.955 151.385, 159.335 153.077 C 152.372 156.333, 149.846 156.025, 151.907 152.173 C 152.508 151.050, 153 148.958, 153 147.524 C 153 143.062, 156.072 129.617, 157.652 127.166 C 158.479 125.883, 160.808 124.184, 162.828 123.391 C 164.848 122.598, 167.400 121.426, 168.500 120.785 C 169.600 120.145, 172.133 118.822, 174.130 117.845 C 178.511 115.702, 179.647 113.417, 177.029 112.015 C 174.273 110.541, 173.517 110.688, 166.841 114 C 157.568 118.601, 156.221 117.912, 160 110.500 C 163.062 104.494, 162.710 102.994, 158.250 103.033 C 155.998 103.053, 153.533 103.872, 152.078 105.083 M 80.500 133.060 C 73.900 134.054, 66.468 134.897, 63.985 134.933 C 59.660 134.997, 53.129 137.635, 50.086 140.547 C 47.467 143.053, 50.339 144.744, 56.754 144.472 C 68.183 143.989, 82.211 141.966, 84.305 140.499 C 85.690 139.529, 88.811 139, 93.151 139 C 99.858 139, 103 137.606, 103 134.629 C 103 130.571, 98.923 130.287, 80.500 133.060 M 226.226 134.515 C 222.775 135.769, 219.400 137.232, 218.726 137.765 C 218.052 138.298, 215.036 139.048, 212.025 139.431 C 209.014 139.815, 206.089 140.487, 205.525 140.926 C 204.961 141.364, 201.286 142.683, 197.359 143.857 C 190.523 145.900, 189 147.147, 189 150.698 C 189 151.832, 189.716 152.096, 191.739 151.709 C 193.246 151.421, 195.180 151.561, 196.036 152.019 C 196.971 152.520, 198.774 152.308, 200.547 151.490 C 204.710 149.569, 211.862 147.304, 216.530 146.429 C 220.286 145.725, 233.578 139.425, 236.600 136.917 C 237.370 136.278, 238 134.910, 238 133.878 C 238 131.362, 234.360 131.559, 226.226 134.515 M 96.636 155.506 C 95.060 156.328, 93.243 157, 92.597 157 C 91.951 157, 89.640 157.917, 87.461 159.037 C 85.283 160.157, 81.925 161.484, 80 161.985 C 78.075 162.486, 73.350 163.861, 69.500 165.041 C 65.650 166.220, 59.832 167.693, 56.571 168.313 C 52.574 169.073, 49.653 170.343, 47.610 172.209 C 43.872 175.623, 44.776 176.831, 51.676 177.648 C 55.716 178.127, 58.638 177.610, 66.600 175.011 C 72.045 173.233, 77.625 171.221, 79 170.541 C 80.375 169.860, 83.629 168.729, 86.231 168.027 C 88.833 167.325, 91.476 166.132, 92.103 165.375 C 92.731 164.619, 93.810 164, 94.500 164 C 95.190 164, 96.315 163.325, 97 162.500 C 97.685 161.675, 98.977 160.990, 99.872 160.978 C 100.768 160.966, 102.603 160.108, 103.951 159.072 C 106.043 157.464, 106.208 156.955, 105.078 155.594 C 103.424 153.601, 100.351 153.569, 96.636 155.506 M 237.797 164.945 C 236.412 166.034, 232.281 167.377, 228.412 167.995 C 224.610 168.602, 218.350 169.718, 214.500 170.475 C 210.650 171.233, 203.225 172.587, 198 173.486 C 192.775 174.384, 186.564 175.555, 184.199 176.087 C 181.833 176.619, 179.542 176.835, 179.108 176.566 C 178.673 176.298, 173.417 177.186, 167.427 178.539 C 161.437 179.893, 155.043 181, 153.219 181 C 149.745 181, 144 183.436, 144 184.909 C 144 185.381, 143.100 186.002, 142 186.290 C 139.008 187.072, 139.455 190, 142.566 190 C 143.977 190, 145.998 190.464, 147.057 191.030 C 148.437 191.769, 150.472 191.647, 154.241 190.598 C 157.134 189.794, 161.412 188.840, 163.750 188.480 C 167.909 187.838, 167.999 187.885, 167.976 190.662 C 167.946 194.381, 164.569 206.999, 162.571 210.863 C 161.707 212.534, 161 215.021, 161 216.391 C 161 217.761, 160.558 219.155, 160.019 219.488 C 159.479 219.822, 157.731 222.661, 156.133 225.797 C 150.823 236.225, 148.280 240.798, 146.057 243.920 C 144.846 245.620, 144.005 247.796, 144.188 248.756 C 144.524 250.518, 149 251.902, 149 250.244 C 149 249.752, 151.475 246.082, 154.500 242.089 C 157.525 238.096, 160 234.151, 160 233.322 C 160 232.494, 160.900 230.671, 162 229.273 C 163.100 227.874, 164 225.952, 164 225 C 164 224.048, 164.787 222.193, 165.750 220.878 C 167.549 218.419, 169.371 215.325, 170.831 212.250 C 171.288 211.287, 172.413 209.001, 173.331 207.169 C 174.249 205.337, 175.008 203.087, 175.018 202.169 C 175.028 201.251, 177.047 197.049, 179.505 192.832 C 184.688 183.938, 185.608 183.459, 199.500 182.443 C 204.450 182.081, 209.175 181.431, 210 180.999 C 210.825 180.567, 215.100 179.678, 219.500 179.023 C 223.900 178.369, 228.400 177.457, 229.500 176.997 C 230.600 176.536, 233.175 175.929, 235.223 175.647 C 240.941 174.860, 243.931 172.196, 243.969 167.857 C 243.989 165.436, 243.469 164.010, 242.418 163.607 C 240.336 162.808, 240.617 162.726, 237.797 164.945 M 215.079 173.583 C 215.127 174.748, 215.364 174.985, 215.683 174.188 C 215.972 173.466, 215.936 172.603, 215.604 172.271 C 215.272 171.939, 215.036 172.529, 215.079 173.583 M 190 178.500 C 190 180.182, 190.184 180.250, 192.412 179.395 C 194.243 178.693, 193.557 177, 191.441 177 C 190.648 177, 190 177.675, 190 178.500 M 179 181.059 C 179 181.641, 179.450 181.840, 180 181.500 C 180.550 181.160, 181 180.684, 181 180.441 C 181 180.198, 180.550 180, 180 180 C 179.450 180, 179 180.477, 179 181.059 M 171.500 182 C 171.160 182.550, 171.610 183, 172.500 183 C 173.390 183, 173.840 182.550, 173.500 182 C 173.160 181.450, 172.710 181, 172.500 181 C 172.290 181, 171.840 181.450, 171.500 182 M 190.557 189.223 C 189.509 190.718, 189 193.725, 189 198.412 C 189 202.244, 188.565 207.882, 188.033 210.940 C 187.501 213.998, 186.590 219.200, 186.008 222.500 C 185.427 225.800, 184.432 232.442, 183.798 237.260 C 182.270 248.880, 182.559 249.125, 197 248.470 C 202.775 248.208, 210.959 247.497, 215.186 246.891 C 219.414 246.285, 225.039 246.063, 227.686 246.398 C 230.334 246.734, 236.937 247.277, 242.361 247.606 C 250.514 248.101, 252.895 247.900, 256.111 246.450 L 260 244.696 260 238.383 C 260 234.911, 259.230 229.917, 258.289 227.285 C 257.167 224.150, 256.524 219.053, 256.422 212.500 C 256.232 200.230, 256.249 200.351, 254.941 201.659 C 253.409 203.191, 250 217.527, 250 222.436 C 250 224.736, 250.661 227.491, 251.468 228.559 C 252.276 229.626, 252.951 230.107, 252.968 229.628 C 253.018 228.273, 256 231.085, 256 232.486 C 256 233.169, 254.313 234.849, 252.250 236.219 C 248.552 238.676, 248.334 238.698, 236.500 237.805 C 229.900 237.307, 222.025 237.165, 219 237.490 C 206.682 238.814, 193.216 239.159, 192.604 238.168 C 192.259 237.609, 192.687 233.181, 193.556 228.326 C 197.473 206.446, 198.003 202.139, 197.516 196.103 C 196.799 187.194, 193.950 184.377, 190.557 189.223 M 172.750 189.577 C 172.338 189.993, 172 191.248, 172 192.367 C 172 193.838, 172.302 194.098, 173.094 193.306 C 173.695 192.705, 174.033 191.449, 173.844 190.517 C 173.655 189.584, 173.162 189.161, 172.750 189.577 M 68.267 193.951 C 62.639 194.387, 56.671 195.308, 55.005 195.998 C 53.214 196.740, 49.837 197.046, 46.738 196.747 C 42.073 196.297, 41.035 196.575, 37.250 199.290 C 34.595 201.195, 33 203.118, 33 204.414 C 33 206.798, 38.209 225.645, 41.299 234.440 C 43.793 241.538, 50.503 249, 54.392 249 C 55.772 249, 57.342 249.787, 57.882 250.750 C 60.748 255.857, 85.733 249.064, 94.233 240.867 C 97.080 238.121, 98.013 236.412, 98.053 233.867 C 98.101 230.829, 98.613 230.245, 103.303 227.892 C 107.667 225.703, 108.981 224.351, 111.500 219.457 C 114.024 214.554, 114.500 212.475, 114.500 206.357 C 114.500 198.586, 113.780 197.315, 108 194.878 C 104.720 193.495, 81.231 192.947, 68.267 193.951 M 72.426 202.112 C 65.786 202.458, 59.403 203.249, 58.242 203.870 C 57.081 204.492, 53.402 205, 50.066 205 L 44 205 44 210.596 C 44 219.027, 49.092 236.729, 52.609 240.523 C 54.653 242.729, 54.909 242.759, 60.569 241.443 C 63.785 240.695, 66.623 240.290, 66.875 240.542 C 67.127 240.794, 66.808 241, 66.167 241 C 65.525 241, 65 241.727, 65 242.615 C 65 245.596, 81.176 242.662, 88.015 238.441 C 95.113 234.060, 95.391 231.225, 88.536 233.118 C 86.037 233.808, 84.425 233.825, 83.767 233.167 C 82.471 231.871, 83.659 230.009, 85.809 229.968 C 86.739 229.951, 88.374 229.276, 89.441 228.468 C 90.509 227.661, 92.041 227, 92.846 227 C 94.997 227, 101.621 219.649, 102.445 216.348 C 102.836 214.781, 103.829 212.752, 104.653 211.838 C 106.887 209.359, 105.985 204.738, 103 203.365 C 99.691 201.844, 87.316 201.337, 72.426 202.112 M 213 242 L 210.500 242.801 213 242.801 C 214.375 242.801, 216.625 242.440, 218 242 L 220.500 241.199 218 241.199 C 216.625 241.199, 214.375 241.560, 213 242 M 240.496 242.007 C 240.153 242.561, 240.534 243.268, 241.341 243.578 C 243.716 244.489, 249.311 243.606, 249.756 242.250 C 250.263 240.707, 241.442 240.475, 240.496 242.007" stroke="none" fill="black" fill-rule="evenodd"/>
</svg>