<svg xmlns="http://www.w3.org/2000/svg" width="300" height="300" viewBox="0 0 300 300" version="1.1">
	<path d="M 142.280 37.998 C 141.021 38.517, 139.806 40.123, 139.475 41.707 C 139.153 43.243, 137.985 48.100, 136.879 52.500 C 135.773 56.900, 134.495 62.075, 134.039 64 C 131.713 73.820, 128.819 85.027, 127.490 89.365 C 126.671 92.040, 126 95.333, 126 96.681 C 126 98.029, 125.517 100.033, 124.928 101.135 C 124.338 102.237, 123.833 106.370, 123.806 110.320 C 123.731 121.281, 127.728 129.193, 132.428 127.389 C 134.363 126.647, 134.435 124.633, 132.630 121.715 C 130.767 118.704, 132.093 104.900, 135.365 93.247 C 136.715 88.436, 138.346 81.575, 138.987 78 C 140.264 70.886, 140.459 70.539, 143.750 69.545 C 145.655 68.969, 146 69.240, 146 71.311 C 146 72.733, 146.936 74.377, 148.236 75.241 C 149.957 76.384, 150.219 77.045, 149.370 78.113 C 147.490 80.480, 147.279 84.440, 148.625 92.113 C 150.015 100.035, 150.494 126.908, 149.250 127.140 C 148.838 127.217, 146.925 127.380, 145 127.501 C 143.075 127.623, 139.700 128.576, 137.500 129.619 C 134.411 131.084, 133.500 132.083, 133.500 134.008 C 133.500 135.388, 134.058 136.455, 134.750 136.400 C 135.438 136.345, 137.575 136.233, 139.500 136.150 C 141.811 136.051, 143 135.511, 143 134.559 C 143 130.725, 148.382 131.719, 149.642 135.786 C 150.104 137.279, 150.487 144.878, 150.491 152.672 C 150.499 165.498, 150.700 167.113, 152.600 169.672 C 154.930 172.809, 158.345 173.789, 160.555 171.954 C 162.510 170.332, 162.375 169.298, 159.943 167.240 C 157.988 165.586, 157.920 164.833, 158.565 152 C 159.416 135.064, 159.524 133.961, 160.337 133.983 C 160.701 133.992, 161.900 134, 163 134 C 164.100 134, 165 134.637, 165 135.417 C 165 136.196, 165.563 137.030, 166.250 137.269 C 168.304 137.986, 170 136.911, 170 134.893 C 170 132.961, 171.322 132.607, 174 133.820 C 175.814 134.642, 175.916 135.377, 176.978 155.232 C 177.897 172.435, 179.597 178.500, 183.500 178.500 C 185.451 178.500, 185.491 177.959, 185.124 156.250 C 184.918 144.012, 184.979 134, 185.260 134 C 185.541 134, 187.060 134.672, 188.636 135.494 C 191.931 137.213, 195 137.457, 195 136 C 195 135.450, 193.650 135, 192 135 C 190.350 135, 189 134.493, 189 133.873 C 189 132.696, 198.444 133.111, 199.675 134.341 C 200.021 134.688, 200.361 144.199, 200.428 155.476 C 200.534 173.072, 200.785 176.214, 202.198 177.627 C 204.787 180.216, 206.969 178.667, 206.902 174.289 C 206.870 172.205, 207.308 166, 207.874 160.500 C 208.440 155, 208.925 146.814, 208.951 142.309 C 208.978 137.804, 209.379 133.884, 209.843 133.597 C 211.030 132.864, 223.921 132.587, 224.614 133.280 C 224.928 133.595, 225.411 144.393, 225.688 157.276 L 226.190 180.701 215.845 181.488 C 191.806 183.318, 181.061 183.740, 138 184.545 C 126.175 184.766, 116.162 184.959, 115.750 184.974 C 114.634 185.013, 114.842 188.785, 116 189.500 C 117.472 190.410, 117.217 193, 115.655 193 C 114.915 193, 113.495 192.100, 112.500 191 C 110.216 188.476, 108 188.424, 108 190.893 C 108 193.185, 109.874 194, 115.148 194 C 119.115 194, 122.909 192.608, 124.155 190.695 C 124.515 190.142, 128.736 189.633, 133.534 189.564 C 140.901 189.459, 142.430 189.716, 143.369 191.220 C 144.963 193.772, 148.390 193.599, 147.710 191 C 147.294 189.409, 147.680 189, 149.594 189 C 151.207 189, 152.010 189.577, 152.032 190.750 C 152.062 192.417, 152.127 192.417, 153.392 190.750 C 155.044 188.574, 155.949 188.548, 157.475 190.635 C 158.560 192.118, 158.866 192.060, 160.780 190.006 C 162.774 187.865, 163.644 187.741, 176.695 187.735 C 184.288 187.732, 191.038 187.305, 191.695 186.788 C 193.664 185.237, 197.431 186.343, 198.500 188.786 C 199.620 191.346, 203.485 191.511, 203.522 189 C 203.535 188.147, 204.279 187.624, 205.249 187.788 C 206.186 187.947, 208.058 187.353, 209.408 186.468 C 211.775 184.917, 214.931 184.852, 233.471 185.972 C 234.556 186.037, 236.131 186.694, 236.971 187.431 C 237.812 188.168, 240.300 189.051, 242.500 189.393 C 247.691 190.201, 249.022 190.489, 251.798 191.406 C 253.202 191.870, 254.661 191.696, 255.548 190.960 C 257.501 189.340, 257.404 186, 255.404 186 C 254.527 186, 252.401 184.998, 250.680 183.772 C 248.315 182.088, 246.124 181.539, 241.695 181.522 C 237.508 181.506, 235.506 181.045, 234.670 179.904 C 233.823 178.748, 233.638 172.139, 234 155.940 L 234.500 133.572 237.855 132.611 C 240.208 131.937, 241.772 132.001, 243.092 132.825 C 245.886 134.570, 248.795 134.251, 249.962 132.071 C 250.805 130.496, 250.511 129.760, 248.363 128.071 C 246.327 126.469, 244.288 126, 239.365 126 L 233 126 233 120.730 C 233 117.831, 232.100 112.212, 231 108.243 C 229.900 104.273, 228.957 98.657, 228.904 95.763 C 228.745 87.127, 226.796 79.571, 224.620 79.159 C 222.219 78.705, 221.035 80.598, 221.015 84.921 C 221.007 86.803, 220.281 89.137, 219.402 90.109 C 218.110 91.536, 218.005 92.509, 218.853 95.187 C 219.430 97.009, 220.411 101.406, 221.033 104.958 C 221.655 108.509, 222.802 112.649, 223.582 114.158 C 225.227 117.340, 225.488 126.580, 223.959 127.525 C 222.283 128.561, 212.018 128.418, 210.944 127.344 C 210.299 126.699, 210.300 122.420, 210.945 114.930 C 211.487 108.644, 211.574 100.933, 211.138 97.794 C 210.703 94.656, 210.722 89.031, 211.181 85.294 C 211.640 81.558, 211.757 77.289, 211.441 75.809 C 211.125 74.328, 211.363 72.191, 211.969 71.059 C 213.049 69.040, 216.413 68.242, 217.364 69.779 C 217.628 70.208, 220.242 70.661, 223.173 70.786 C 226.103 70.911, 230.929 71.717, 233.897 72.577 C 238.331 73.862, 239.444 73.906, 240.131 72.821 C 241.511 70.641, 240.650 69.647, 234.550 66.373 C 226.984 62.313, 222.617 61.884, 201.240 63.105 C 180.170 64.307, 172.685 64.405, 160 63.644 C 154.775 63.331, 148.979 63.058, 147.120 63.037 L 143.740 63 144.325 58.750 C 146.080 46.002, 146.234 45.476, 148.853 43.262 C 151.009 41.438, 151.296 40.696, 150.399 39.262 C 149.132 37.235, 145.501 36.670, 142.280 37.998 M 147.533 67.947 C 146.653 69.370, 147.775 71, 149.632 71 C 150.508 71, 151.010 70.297, 150.823 69.333 C 150.434 67.324, 148.437 66.484, 147.533 67.947 M 193 69.500 C 191.745 72.802, 187.551 72.963, 186.490 69.750 L 185.746 67.500 185.303 69.750 C 185.060 70.987, 184.217 72, 183.430 72 C 182.644 72, 181.938 72.563, 181.862 73.250 C 181.391 77.505, 182.277 103.431, 183.049 108 C 183.561 111.025, 184.132 116.576, 184.319 120.335 C 184.543 124.850, 185.141 127.476, 186.079 128.070 C 186.861 128.565, 190.502 128.976, 194.171 128.985 L 200.841 129 201.573 125.750 C 202.429 121.955, 202.326 88.602, 201.450 85.844 C 201.104 84.752, 201.782 82.470, 203.075 80.378 C 204.985 77.288, 205.170 76.148, 204.398 72.218 C 203.476 67.528, 201 65.122, 201 68.917 C 201 71.549, 199.846 71.584, 198.232 69 C 196.522 66.262, 194.145 66.489, 193 69.500 M 159.667 68.667 C 158.353 69.981, 159.045 70.875, 161.750 71.359 C 163.262 71.629, 162.137 71.725, 159.250 71.572 L 154 71.294 154 77.147 C 154 81.303, 154.379 83, 155.309 83 C 156.029 83, 157.485 83.634, 158.546 84.410 C 160.316 85.705, 160.345 85.969, 158.891 87.660 C 157.531 89.241, 157.374 92.138, 157.777 108.281 C 158.313 129.775, 157.979 129.059, 167.590 129.284 C 175.723 129.475, 176.055 128.831, 174.947 115 C 174.441 108.675, 173.516 100.282, 172.892 96.350 C 171.854 89.805, 171.942 87.617, 173.616 78.444 C 174 76.341, 173.679 74.978, 172.587 74.072 C 171.714 73.348, 171 72.151, 171 71.413 C 171 70.674, 170.130 69.605, 169.066 69.035 C 166.906 67.879, 160.698 67.636, 159.667 68.667 M 45.327 72.478 C 41.440 74.272, 40.482 75.671, 41.938 77.426 C 43.266 79.025, 47.474 78.850, 51.192 77.042 C 53.452 75.942, 54.656 75.978, 58.692 77.266 C 64.441 79.100, 85.891 80.472, 87.896 79.134 C 90.499 77.395, 88.333 75, 84.157 75 C 82.009 75, 78.282 74.301, 75.876 73.447 C 69.548 71.200, 49.472 70.564, 45.327 72.478 M 134.079 77.583 C 134.127 78.748, 134.364 78.985, 134.683 78.188 C 134.972 77.466, 134.936 76.603, 134.604 76.271 C 134.272 75.939, 134.036 76.529, 134.079 77.583 M 34.559 101.532 C 33.491 102.339, 31.354 103, 29.809 103 C 27.558 103, 27.003 103.447, 27.015 105.250 C 27.040 108.856, 28.251 109.838, 32.506 109.703 C 34.703 109.633, 37.164 109.784, 37.976 110.038 C 38.924 110.335, 39.575 109.695, 39.796 108.250 C 39.985 107.013, 40.468 106, 40.870 106 C 42.267 106, 46.984 108.504, 46.992 109.250 C 46.996 109.662, 47.765 110, 48.700 110 C 50.022 110, 50.133 109.733, 49.200 108.800 C 47.246 106.846, 47.808 106, 51.059 106 C 52.844 106, 53.861 106.417, 53.500 107 C 53.160 107.550, 53.824 108, 54.976 108 C 56.128 108, 58.159 108.713, 59.489 109.585 C 61.713 111.042, 63.015 110.998, 75.694 109.042 C 83.276 107.872, 90.497 106.249, 91.740 105.435 C 96.293 102.451, 93.586 100.625, 86.873 102.151 C 84.468 102.698, 73.931 103.225, 63.457 103.323 C 46.813 103.478, 44.077 103.280, 41.742 101.750 C 38.524 99.642, 37.114 99.599, 34.559 101.532 M 62.500 108 C 62.840 108.550, 63.541 109, 64.059 109 C 64.577 109, 65 108.550, 65 108 C 65 107.450, 64.298 107, 63.441 107 C 62.584 107, 62.160 107.450, 62.500 108 M 206.136 118.168 C 206.061 119.086, 205.709 120.661, 205.353 121.668 C 204.853 123.082, 204.987 123.241, 205.937 122.365 C 206.615 121.741, 206.968 120.166, 206.721 118.865 C 206.474 117.564, 206.211 117.251, 206.136 118.168 M 86.500 131.130 C 82.667 132.408, 70.416 133.076, 46.500 133.312 C 36.050 133.416, 26.937 133.864, 26.250 134.309 C 24.173 135.653, 24.842 137.922, 27.513 138.593 C 28.906 138.942, 30.650 138.705, 31.427 138.061 C 32.526 137.148, 33.256 137.358, 34.818 139.035 C 36.689 141.043, 36.956 141.075, 39.256 139.568 C 41.344 138.200, 42.077 138.159, 44.256 139.289 C 47.445 140.943, 61.810 139.829, 63.226 137.817 C 63.954 136.782, 64.261 136.768, 64.659 137.750 C 65.262 139.236, 72.069 139.289, 80 137.870 C 83.025 137.329, 87.200 136.763, 89.279 136.614 C 93.632 136.301, 95.336 134.995, 94.835 132.356 C 94.422 130.177, 90.908 129.660, 86.500 131.130 M 153 134.500 C 153 135.417, 153.484 136.005, 154.075 135.808 C 154.666 135.611, 155.150 135.022, 155.150 134.500 C 155.150 133.978, 154.666 133.389, 154.075 133.192 C 153.484 132.995, 153 133.583, 153 134.500 M 92.469 162.986 C 91.353 163.419, 86.178 164.322, 80.969 164.992 C 75.761 165.662, 71.050 166.521, 70.500 166.902 C 69.950 167.282, 64.100 167.425, 57.500 167.219 C 50.900 167.014, 42.083 166.768, 37.906 166.673 C 33.565 166.574, 29.668 165.966, 28.808 165.254 C 27.576 164.233, 26.970 164.376, 25.463 166.041 C 24.116 167.530, 22.889 167.915, 20.895 167.477 C 18.926 167.045, 17.902 167.352, 17.215 168.581 C 16.087 170.597, 16.711 173.675, 18.378 174.315 C 19.028 174.564, 25.846 174.469, 33.530 174.104 C 41.896 173.706, 47.763 173.815, 48.156 174.376 C 49.453 176.230, 72.887 174.293, 82.265 171.557 C 87.086 170.151, 91.629 169, 92.360 169 C 93.092 169, 94.517 168.086, 95.528 166.969 C 97.120 165.210, 97.174 164.754, 95.933 163.568 C 95.011 162.687, 93.776 162.479, 92.469 162.986 M 51.813 173.683 C 52.534 173.972, 53.397 173.936, 53.729 173.604 C 54.061 173.272, 53.471 173.036, 52.417 173.079 C 51.252 173.127, 51.015 173.364, 51.813 173.683 M 64.500 188.083 C 59.550 188.473, 50.100 188.909, 43.500 189.052 C 33.763 189.262, 30.887 189.674, 28.250 191.237 C 22.419 194.692, 24.404 196.370, 34.703 196.692 C 40.959 196.888, 41.824 196.706, 41.289 195.311 C 40.748 193.901, 41.415 193.789, 46.752 194.392 C 50.621 194.830, 53.066 194.702, 53.475 194.040 C 53.829 193.468, 55.693 193, 57.618 193 C 59.697 193, 60.867 193.406, 60.500 194 C 59.739 195.232, 64.480 195.334, 66.816 194.136 C 67.742 193.661, 71.757 193.013, 75.738 192.696 C 81.467 192.239, 83.295 192.437, 84.506 193.649 C 85.348 194.491, 87.174 195.305, 88.563 195.457 C 89.952 195.610, 92.126 196.709, 93.394 197.901 C 95.343 199.731, 95.629 200.806, 95.241 204.839 C 94.989 207.463, 95.239 212.539, 95.796 216.117 C 96.933 223.419, 95.584 240.021, 93.762 241.147 C 91.915 242.288, 57.828 240.950, 52.202 239.516 C 48.353 238.534, 45.178 238.409, 40.598 239.057 C 32.721 240.173, 31.766 240.544, 30.160 243.115 C 29.061 244.876, 29.127 245.483, 30.594 247.104 C 32.172 248.848, 32.529 248.884, 34.627 247.508 C 35.894 246.679, 37.530 246, 38.265 246 C 38.999 246, 40.120 245.480, 40.756 244.844 C 42.497 243.103, 53.268 243.017, 54.536 244.734 C 55.181 245.606, 57.449 246.141, 60.536 246.148 C 63.266 246.155, 70.325 246.652, 76.222 247.253 C 84.482 248.095, 87.560 248.066, 89.624 247.125 C 91.493 246.274, 92.622 246.222, 93.352 246.952 C 95.096 248.696, 98.530 248.134, 100.699 245.750 C 103.364 242.821, 104.347 229.839, 103.065 214.500 C 101.600 196.957, 98.138 189.819, 90.500 188.588 C 84.430 187.610, 73.262 187.393, 64.500 188.083 M 13.762 198.929 C 12.669 200.490, 12.490 202.136, 13.072 205.268 C 15.585 218.799, 16 222.605, 16 232.130 C 16 242.262, 16.102 242.754, 18.839 245.820 C 20.401 247.569, 22.440 249, 23.371 249 C 25.593 249, 26.548 246.365, 25.001 244.501 C 24.233 243.576, 23.621 238.269, 23.358 230.263 C 23.127 223.244, 22.448 214.670, 21.849 211.212 C 20.911 205.800, 20.985 204.674, 22.380 203.133 C 25.377 199.820, 24.602 198.579, 18.861 197.502 C 15.855 196.938, 14.987 197.181, 13.762 198.929 M 142.499 209.004 C 142.071 210.951, 140.953 212.448, 139.517 212.993 C 137.358 213.814, 137.249 214.278, 137.709 220.683 C 137.978 224.433, 138.828 230.040, 139.599 233.144 C 140.370 236.249, 141.011 240.524, 141.024 242.644 C 141.086 252.316, 144.939 259.946, 149.781 259.983 C 152.749 260.005, 153.693 257.423, 151.573 255.081 C 149.942 253.279, 149.151 248.859, 147.032 229.717 C 146.497 224.887, 145.567 219.107, 144.966 216.874 C 144.034 213.413, 144.119 212.633, 145.545 211.591 C 147.571 210.109, 147.112 206.645, 144.830 206.206 C 143.687 205.986, 142.974 206.842, 142.499 209.004 M 169.250 207.944 C 166.459 210.272, 166.463 210.424, 169.444 216.300 C 170.783 218.940, 172.382 223.665, 172.996 226.800 C 175.195 238.021, 179.548 245.854, 185.287 248.917 C 190.120 251.497, 192.203 251.539, 194.410 249.099 C 196.265 247.049, 195.320 245.726, 191.816 245.468 C 188.412 245.217, 184.279 237.802, 182.082 228 C 180.944 222.922, 175.927 208.713, 174.755 207.250 C 173.388 205.541, 171.906 205.728, 169.250 207.944 M 201.332 211.577 C 200.999 212.444, 199.652 213.562, 198.338 214.062 C 194.787 215.412, 194.542 217.433, 197.419 221.665 C 198.838 223.755, 200 225.815, 200 226.243 C 200 227.065, 202.334 232.403, 207.217 242.750 C 209.801 248.226, 210.513 249, 212.967 249 C 216.038 249, 217.925 245.569, 215.389 244.596 C 214.625 244.303, 213.986 243.486, 213.969 242.781 C 213.952 242.077, 212.831 239.250, 211.478 236.500 C 210.125 233.750, 209.014 230.711, 209.009 229.746 C 209.004 228.782, 208.100 226.314, 207 224.261 C 205.726 221.884, 205 218.619, 205 215.265 C 205 211.204, 204.650 210, 203.469 210 C 202.626 210, 201.665 210.709, 201.332 211.577 M 238.924 212.185 C 238.255 213.458, 237.099 214.860, 236.354 215.300 C 234.283 216.523, 234.719 220.043, 237.895 227.744 C 239.487 231.605, 241.087 236.120, 241.451 237.778 C 242.371 241.967, 245.469 244.685, 247.449 243.042 C 248.543 242.135, 248.788 240.579, 248.378 237.154 C 247.903 233.187, 245.220 223.118, 243.273 218 C 242.959 217.175, 242.792 215.561, 242.901 214.414 C 243.011 213.267, 242.434 211.775, 241.620 211.099 C 240.405 210.091, 239.922 210.286, 238.924 212.185 M 176 226.941 C 176 227.459, 176.445 228.157, 176.989 228.493 C 177.555 228.843, 177.723 228.442, 177.382 227.552 C 176.717 225.820, 176 225.503, 176 226.941" stroke="none" fill="black" fill-rule="evenodd"/>
</svg>