<svg xmlns="http://www.w3.org/2000/svg" width="300" height="300" viewBox="0 0 300 300" version="1.1">
	<path d="M 202.605 13.831 C 200.628 17.030, 199.318 24.732, 199.402 32.665 C 199.456 37.705, 199.105 41.755, 198.622 41.665 C 198.140 41.574, 196.833 44.333, 195.719 47.797 C 191.949 59.515, 197.323 57.663, 203.241 45.204 C 205.746 39.930, 206.372 37.023, 207.099 27.286 C 207.710 19.089, 207.640 15.271, 206.861 14.332 C 205.619 12.836, 203.382 12.572, 202.605 13.831 M 161.457 26.070 C 161.093 26.658, 162.121 29.696, 163.741 32.820 C 165.360 35.944, 167.947 42.550, 169.489 47.500 C 171.031 52.450, 172.677 56.928, 173.146 57.450 C 173.616 57.973, 174 59.210, 174 60.200 C 174 61.771, 173.016 62.010, 166.250 62.082 C 161.988 62.127, 155.917 62.095, 152.761 62.012 C 147.634 61.876, 146.907 62.110, 145.951 64.208 C 145.212 65.830, 145.197 67.388, 145.902 69.242 C 146.869 71.785, 147.267 71.924, 153.461 71.876 C 158.529 71.837, 160 71.495, 160 70.354 C 160 69.544, 159.581 69.141, 159.069 69.457 C 157.678 70.317, 156.997 68.615, 158.066 66.952 C 158.879 65.688, 159.126 65.695, 159.969 67 C 160.750 68.207, 161.314 68.268, 162.862 67.309 C 165.165 65.882, 166.441 66.764, 164.849 68.682 C 164.225 69.434, 163.892 70.195, 164.107 70.374 C 165.062 71.166, 205.767 69.198, 207.532 68.275 C 208.614 67.708, 212.974 67.362, 217.220 67.505 C 224.267 67.741, 224.997 67.584, 225.597 65.694 C 226.068 64.211, 225.584 63.082, 223.891 61.711 C 221.667 59.909, 220.335 59.839, 201.264 60.520 L 181 61.244 180.996 58.872 C 180.994 57.567, 180.169 55.150, 179.163 53.500 C 178.157 51.850, 177.032 47.929, 176.663 44.788 C 176.036 39.459, 175.441 37.404, 172.669 31 C 170.766 26.606, 168.822 25, 165.404 25 C 163.597 25, 161.821 25.481, 161.457 26.070 M 48.962 54.545 C 48.429 55.188, 48.280 57.151, 48.631 58.907 L 49.270 62.100 74.673 61.800 C 95.938 61.549, 100.229 61.256, 101.021 60 C 102.646 57.424, 101.507 56.507, 96.419 56.294 C 93.713 56.180, 88.800 55.608, 85.500 55.021 C 76.608 53.439, 50.166 53.095, 48.962 54.545 M 65.694 57.639 C 64.651 58.682, 65.972 60, 68.059 60 C 69.127 60, 70 59.325, 70 58.500 C 70 57.017, 66.930 56.403, 65.694 57.639 M 198.333 65.500 C 198.333 66.196, 199.125 66.518, 200.167 66.246 C 201.175 65.982, 202 65.647, 202 65.500 C 202 65.353, 201.175 65.018, 200.167 64.754 C 199.125 64.482, 198.333 64.804, 198.333 65.500 M 184 66 C 184 66.550, 184.450 67, 185 67 C 185.550 67, 186 66.550, 186 66 C 186 65.450, 185.550 65, 185 65 C 184.450 65, 184 65.450, 184 66 M 103.603 80.649 C 102.010 81.512, 95.710 82.848, 89.603 83.619 C 83.496 84.389, 76.250 85.438, 73.500 85.950 C 66.437 87.265, 56.551 87.208, 53.539 85.836 C 51.723 85.008, 50.334 84.972, 48.741 85.711 C 47.509 86.283, 45.263 87.247, 43.750 87.854 C 40.599 89.118, 40.323 90.588, 42.619 93.866 C 44.207 96.134, 44.482 96.167, 57.596 95.635 C 64.944 95.338, 71.836 94.623, 72.912 94.047 C 73.988 93.471, 76.414 93, 78.304 93 C 80.193 93, 84.557 92.100, 88 91 C 91.443 89.900, 94.789 89, 95.434 89 C 96.079 89, 98.833 87.930, 101.554 86.623 C 104.274 85.315, 107.287 83.979, 108.250 83.654 C 109.213 83.329, 110 82.149, 110 81.031 C 110 78.577, 107.685 78.439, 103.603 80.649 M 168.944 85.056 C 167.619 86.381, 166.059 86.987, 164.811 86.661 C 160.299 85.481, 157.191 89.693, 156.642 97.732 C 156.463 100.354, 155.570 104.242, 154.658 106.372 C 153.746 108.502, 153 111.020, 153 111.968 C 153 113.849, 150.650 119.051, 148.017 123 C 147.099 124.375, 145.736 127.075, 144.986 129 C 144.236 130.925, 142.528 133.965, 141.189 135.754 C 137.749 140.355, 132.823 151.096, 133.429 152.674 C 134.730 156.065, 140 151.279, 140 146.706 C 140 145.940, 141.912 142.518, 144.250 139.102 C 152.014 127.756, 157.560 117.218, 160.423 108.367 C 161.336 105.543, 164.539 99.500, 167.542 94.937 C 170.544 90.374, 173 86.073, 173 85.379 C 173 83.058, 171.094 82.906, 168.944 85.056 M 195.667 94.667 C 195.300 95.033, 195 96.650, 195 98.260 C 195 100.346, 195.575 101.338, 197 101.710 C 198.100 101.998, 199 102.619, 199 103.091 C 199 103.563, 200.350 104.647, 202 105.500 C 203.650 106.353, 205 107.490, 205 108.026 C 205 109.740, 203.461 109.079, 200.334 106.022 C 197.556 103.306, 196 102.998, 196 105.164 C 196 106.874, 203.304 114, 205.057 114 C 206.061 114, 207.160 114.450, 207.500 115 C 207.840 115.550, 208.746 116, 209.515 116 C 210.283 116, 212.473 117.013, 214.381 118.250 C 216.290 119.487, 220.472 122.146, 223.676 124.158 C 226.879 126.170, 232.114 130.108, 235.308 132.908 C 238.503 135.709, 241.554 138, 242.090 138 C 243.515 138, 244.300 135.333, 243.645 132.721 C 242.598 128.552, 231.859 118.624, 223.133 113.759 C 212.038 107.574, 208.019 104.819, 203.704 100.442 C 201.117 97.818, 199 95.295, 199 94.835 C 199 93.840, 196.614 93.719, 195.667 94.667 M 106.786 112.548 C 106.484 112.849, 99.322 113.326, 90.869 113.608 C 77.158 114.065, 71.455 114.569, 56.282 116.669 C 51.736 117.298, 48.329 120.810, 49.445 123.718 C 49.935 124.995, 50.979 125.135, 55.271 124.501 C 60.485 123.731, 63.143 123.478, 74.500 122.671 C 77.800 122.436, 81.175 121.965, 82 121.623 C 82.825 121.281, 87.325 120.566, 92 120.033 C 107.841 118.227, 111.642 116.837, 110.300 113.341 C 109.781 111.986, 107.795 111.538, 106.786 112.548 M 95.678 136.080 C 91.926 136.590, 88.021 137.454, 87 138 C 85.980 138.546, 84.442 138.723, 83.583 138.394 C 82.724 138.064, 78.754 138.520, 74.761 139.407 C 70.767 140.295, 64.575 141.192, 61 141.401 C 52.515 141.897, 53 141.763, 53 143.607 C 53 144.680, 52.460 145.007, 51.373 144.590 C 49.488 143.866, 47 145.606, 47 147.647 C 47 150.315, 51.611 150.986, 62.715 149.934 C 68.761 149.361, 74.101 148.341, 74.966 147.593 C 75.810 146.864, 78.895 146, 81.822 145.672 C 84.750 145.345, 88.575 144.636, 90.322 144.097 C 96.012 142.342, 105.453 140.542, 107.500 140.823 C 111.764 141.407, 116 139.978, 116 137.955 C 116 136.567, 115.315 136, 113.640 136 C 112.341 136, 109.304 135.810, 106.890 135.577 C 104.475 135.344, 99.430 135.571, 95.678 136.080 M 69.250 144.084 C 66.793 145.014, 66.270 146.009, 68.250 145.985 C 69.838 145.965, 72.595 144.251, 71.971 143.671 C 71.712 143.430, 70.487 143.616, 69.250 144.084 M 183 148.497 C 171.129 150.238, 164.180 152.089, 163.573 153.670 C 162.842 155.576, 164.701 160.003, 166.225 159.985 C 166.926 159.977, 170.298 159.311, 173.718 158.504 C 179.608 157.115, 183 157.286, 183 158.972 C 183 159.389, 182.051 160.936, 180.892 162.411 C 178.852 165.003, 178.804 165.750, 179.436 185.205 C 179.796 196.267, 180.547 207.452, 181.106 210.060 C 182.323 215.732, 185.274 218.944, 187.809 217.356 C 189.797 216.109, 190.565 212.399, 189.187 210.695 C 187.840 209.029, 186.644 191.055, 186.823 175.176 C 186.994 160.063, 188.302 156, 192.993 156 C 196.819 156, 200 158.659, 200 161.857 C 200 163.366, 200.491 165.091, 201.092 165.692 C 202.121 166.721, 201.975 178.858, 200.596 207.084 C 200.150 216.207, 200.806 218.672, 203.414 217.671 C 205.687 216.799, 206.737 213.465, 207.429 204.909 C 207.759 200.834, 208.534 195.958, 209.151 194.072 C 209.883 191.835, 210.098 185.169, 209.769 174.878 C 209.349 161.711, 209.505 159.020, 210.714 158.556 C 211.510 158.251, 215.968 158.293, 220.620 158.651 C 232.470 159.562, 232.620 159.810, 235.085 182.500 C 235.682 188, 236.158 193.625, 236.143 195 C 236.128 196.375, 236.098 199.876, 236.077 202.779 C 236.056 205.683, 235.549 208.974, 234.950 210.093 C 234.149 211.591, 234.176 212.507, 235.053 213.564 C 236.697 215.545, 238.639 215.361, 241 213 C 242.693 211.307, 243 209.667, 243 202.310 C 243 197.531, 243.510 191.118, 244.134 188.060 C 246.165 178.099, 241.167 157.694, 235.899 154.438 C 233.022 152.659, 223.338 150.825, 212.500 150.007 C 205.900 149.508, 199.600 148.895, 198.500 148.644 C 192.897 147.366, 190.838 147.346, 183 148.497 M 170 155.969 C 170 156.501, 170.675 156.678, 171.500 156.362 C 172.325 156.045, 173 155.609, 173 155.393 C 173 155.177, 172.325 155, 171.500 155 C 170.675 155, 170 155.436, 170 155.969 M 154.312 158.564 C 149.716 160.570, 149.076 162.336, 150.579 168.871 C 151.291 171.967, 152.599 180.800, 153.486 188.500 C 157.245 221.154, 157.713 223.092, 161.487 221.643 C 163.496 220.872, 163.504 209.198, 161.510 187.624 C 160.690 178.756, 159.902 168.386, 159.760 164.580 C 159.617 160.774, 159.050 157.550, 158.500 157.416 C 157.950 157.282, 156.066 157.798, 154.312 158.564 M 236.500 165 C 236.840 165.550, 237.316 166, 237.559 166 C 237.802 166, 238 165.550, 238 165 C 238 164.450, 237.523 164, 236.941 164 C 236.359 164, 236.160 164.450, 236.500 165 M 81 170.025 C 68.092 172.088, 56.280 174.441, 53.950 175.414 C 52.841 175.876, 51.902 175.018, 50.653 172.399 L 48.908 168.738 46.639 170.869 C 45.392 172.041, 43.373 173, 42.154 173 C 39.013 173, 38.676 174.748, 39.896 184.707 C 40.489 189.543, 41.223 201.150, 41.527 210.500 C 41.989 224.699, 42.352 227.706, 43.731 228.750 C 44.639 229.438, 45.906 230, 46.545 230 C 47.961 230, 50.151 212.989, 50.666 198 C 51.130 184.500, 51.438 183.224, 54.243 183.156 C 55.484 183.126, 58.750 182.656, 61.500 182.113 C 75.313 179.383, 89.772 177.115, 97.445 176.476 C 108.868 175.525, 110.998 176.749, 111.006 184.273 C 111.009 187.148, 111.427 191.075, 111.936 193 C 112.444 194.925, 113.092 199.650, 113.376 203.500 C 113.660 207.350, 114.206 213.762, 114.590 217.750 C 115.154 223.616, 115.021 224.999, 113.894 224.997 C 92.508 224.945, 55.132 225.801, 54.223 226.362 C 51.900 227.798, 53.016 228.880, 57.512 229.554 C 59.994 229.926, 62.314 230.699, 62.668 231.271 C 63.090 231.954, 62.230 232.096, 60.166 231.683 C 56.733 230.997, 54 231.660, 54 233.181 C 54 234.161, 79.045 233.787, 92 232.614 C 110.957 230.897, 114.220 230.889, 116.059 232.553 C 117.045 233.445, 118.627 234.023, 119.576 233.838 C 121.892 233.384, 124.295 226.420, 122.982 223.966 C 122.442 222.957, 121.991 215.464, 121.980 207.316 C 121.969 199.167, 121.339 188.682, 120.581 184.016 C 119.380 176.629, 118.811 175.207, 116.177 173.016 C 109.700 167.630, 100.744 166.869, 81 170.025 M 88.500 174 C 88.160 174.550, 88.359 175, 88.941 175 C 89.523 175, 90 174.550, 90 174 C 90 173.450, 89.802 173, 89.559 173 C 89.316 173, 88.840 173.450, 88.500 174 M 43.015 179.750 C 43.024 181.262, 43.425 183.123, 43.908 183.885 C 44.610 184.993, 45.011 184.848, 45.915 183.158 C 46.773 181.555, 46.741 180.559, 45.782 179.023 C 44.033 176.223, 42.997 176.495, 43.015 179.750 M 209.500 220.996 C 191.287 222.209, 175.099 223.821, 173.939 224.538 C 172.736 225.281, 151.943 225.228, 147.500 224.470 C 142.800 223.667, 141.681 224.982, 142.696 230.112 L 143.565 234.500 158.364 234.138 C 166.504 233.939, 175.453 233.172, 178.251 232.434 C 181.050 231.696, 183.646 231.281, 184.021 231.513 C 184.395 231.744, 191.857 231.276, 200.601 230.471 C 209.345 229.666, 221.353 229.006, 227.285 229.004 C 237.760 229, 238.040 228.942, 237 227 C 236.060 225.244, 236.240 225, 238.465 225 C 241.219 225, 241.671 225.929, 239.817 227.783 C 239.166 228.434, 238.859 229.192, 239.134 229.468 C 240.024 230.357, 260.015 232.213, 262.362 231.624 C 263.611 231.311, 265.257 229.888, 266.020 228.462 C 267.743 225.243, 266.290 223.982, 261 224.106 C 259.075 224.151, 254.125 223.463, 250 222.576 C 240.626 220.561, 225.111 219.956, 209.500 220.996 M 214.250 224.706 C 213.012 224.944, 212 225.614, 212 226.195 C 212 226.822, 213.158 227.018, 214.854 226.679 C 216.480 226.354, 218.219 226.619, 218.896 227.296 C 219.812 228.212, 220.277 228.169, 220.934 227.106 C 221.508 226.178, 222.667 225.951, 224.488 226.408 C 225.975 226.781, 227.711 226.660, 228.346 226.139 C 228.981 225.618, 230.625 224.985, 232 224.732 C 233.375 224.479, 230.450 224.272, 225.500 224.272 C 220.550 224.272, 215.488 224.467, 214.250 224.706 M 243.750 227.662 C 244.438 227.940, 245.563 227.940, 246.250 227.662 C 246.938 227.385, 246.375 227.158, 245 227.158 C 243.625 227.158, 243.063 227.385, 243.750 227.662 M 254.075 227.953 C 253.117 228.546, 253.158 228.847, 254.257 229.268 C 255.040 229.569, 256.241 229.469, 256.925 229.047 C 257.883 228.454, 257.842 228.153, 256.743 227.732 C 255.960 227.431, 254.759 227.531, 254.075 227.953 M 82 229 C 80.900 229.711, 81.566 229.955, 84.500 229.914 C 87.643 229.871, 88.071 229.675, 86.500 229 C 83.869 227.869, 83.750 227.869, 82 229 M 155.750 228.728 C 153.688 228.944, 152 229.579, 152 230.140 C 152 231.173, 156.550 230.527, 160.500 228.934 C 162.577 228.096, 162.027 228.072, 155.750 228.728 M 173.813 229.683 C 174.534 229.972, 175.397 229.936, 175.729 229.604 C 176.061 229.272, 175.471 229.036, 174.417 229.079 C 173.252 229.127, 173.015 229.364, 173.813 229.683 M 73.262 231.690 C 74.192 232.620, 75.233 233.100, 75.576 232.757 C 76.561 231.773, 75.050 230, 73.227 230 C 71.700 230, 71.703 230.132, 73.262 231.690" stroke="none" fill="black" fill-rule="evenodd"/>
</svg>