<svg xmlns="http://www.w3.org/2000/svg" width="300" height="300" viewBox="0 0 300 300" version="1.1">
	<path d="M 187.362 30.496 C 183.563 33.491, 182.435 37.176, 184.376 40.254 C 185.154 41.489, 186.772 49.475, 187.971 58 C 189.169 66.525, 190.771 75.975, 191.531 79 C 192.290 82.025, 193.138 86.075, 193.416 88 C 194.396 94.794, 195.773 100.173, 196.795 101.195 C 197.416 101.816, 197.623 105.075, 197.313 109.364 C 196.845 115.831, 197.013 116.728, 199.106 118.931 C 200.376 120.268, 200.951 121.516, 200.384 121.705 C 199.105 122.132, 199.856 127.804, 201.548 130.500 C 202.239 131.600, 203.106 134.075, 203.476 136 C 204.628 141.988, 205.008 142.769, 207.033 143.298 C 208.511 143.685, 209 144.673, 209 147.276 C 209 150.513, 208.721 150.812, 204.750 151.834 C 202.412 152.435, 196.489 153.420, 191.586 154.023 C 186.684 154.625, 181.418 155.767, 179.886 156.559 C 178.353 157.352, 176.132 158, 174.951 158 C 173.769 158, 171.384 158.622, 169.651 159.383 C 167.918 160.143, 164.925 161.339, 163 162.041 C 156.777 164.308, 151.136 166.972, 150.550 167.919 C 150.029 168.761, 146.459 170.576, 132.750 176.965 C 128.041 179.159, 127.182 180.705, 128.607 184.418 C 129.417 186.529, 137.265 186.591, 139 184.500 C 139.685 183.675, 140.752 182.994, 141.372 182.987 C 141.993 182.980, 145.200 181.570, 148.500 179.853 C 160.413 173.656, 162.080 172.932, 163.048 173.530 C 163.893 174.052, 161.749 179.283, 159.987 181 C 159.704 181.275, 157.699 183.863, 155.531 186.750 C 153.363 189.638, 151.231 192, 150.795 192 C 150.358 192, 150 192.474, 150 193.054 C 150 193.634, 148.652 195.547, 147.005 197.304 C 145.357 199.062, 144.007 201.078, 144.005 201.785 C 143.997 203.916, 137.377 213.069, 127.286 224.904 C 126.068 226.332, 125.056 227.862, 125.036 228.305 C 125.016 228.748, 123.200 231.760, 121 235 C 116.692 241.344, 115.861 245.022, 118.750 244.967 C 120.642 244.931, 124.997 241.709, 125.004 240.340 C 125.009 239.375, 129.818 231.974, 132.948 228.112 C 137.727 222.217, 142 216.055, 142 215.060 C 142 214.477, 142.398 214, 142.883 214 C 143.369 214, 144.031 213.213, 144.354 212.250 C 145.129 209.944, 146.671 207.579, 151.500 201.294 C 153.700 198.430, 157.070 193.930, 158.988 191.294 C 163.619 184.930, 165.848 183, 168.564 183 C 170.656 183, 173.204 180.617, 176.973 175.136 C 177.784 173.957, 179.134 172.767, 179.973 172.491 C 180.813 172.215, 183.485 170.142, 185.910 167.886 C 190.420 163.692, 190.868 163.544, 205.645 161.373 C 209.651 160.784, 209.812 160.868, 210.474 163.882 C 210.851 165.597, 211.798 167, 212.579 167 C 213.618 167, 214 168.349, 214 172.021 C 214 175.652, 214.674 178.075, 216.433 180.771 C 217.771 182.822, 219.172 186.192, 219.546 188.261 C 219.920 190.330, 220.626 192.269, 221.113 192.570 C 221.601 192.871, 222 194.634, 222 196.488 C 222 198.341, 222.675 200.532, 223.500 201.357 C 224.325 202.182, 225 203.684, 225 204.694 C 225 207.182, 218.722 217.713, 211.241 227.778 C 203.726 237.886, 202.635 239.006, 200.321 238.978 C 197.359 238.941, 181.019 230.289, 181.006 228.750 C 181.003 228.338, 180.363 228, 179.583 228 C 178.804 228, 178.017 227.647, 177.833 227.216 C 177.650 226.785, 174.800 224.370, 171.500 221.849 C 168.200 219.328, 164.420 215.856, 163.100 214.133 C 160.464 210.691, 158.541 210.147, 157.608 212.579 C 156.675 215.009, 158.067 221.812, 159.618 222.407 C 160.378 222.699, 161 224.076, 161 225.469 C 161 228.359, 162.705 228.785, 164.492 226.342 C 165.565 224.875, 165.786 225.011, 166.419 227.533 C 167.186 230.589, 169.835 233.325, 174.250 235.621 C 175.762 236.408, 177 237.490, 177 238.026 C 177 238.562, 177.677 239, 178.505 239 C 179.333 239, 182.370 240.144, 185.255 241.543 C 188.140 242.942, 192.521 244.368, 194.990 244.712 C 197.460 245.056, 200.080 245.937, 200.812 246.669 C 202.271 248.128, 204.876 248.383, 206.609 247.235 C 207.219 246.831, 209.074 243.575, 210.732 240 C 212.390 236.425, 215.505 231.475, 217.655 229 C 219.805 226.525, 222.102 223.262, 222.761 221.750 C 223.666 219.669, 224.654 219, 226.820 219 C 229.451 219, 229.831 219.487, 231.498 224.994 C 232.554 228.481, 234.712 232.560, 236.656 234.744 C 238.494 236.810, 239.999 239.286, 239.999 240.247 C 240 241.208, 241.575 243.738, 243.500 245.868 C 245.425 247.999, 247 249.979, 247 250.268 C 247 251.668, 252.651 257, 254.135 257 C 256.733 257, 260.934 244.948, 261.475 235.943 C 262.514 218.625, 262.798 200.190, 262.090 196 C 261.127 190.309, 260.456 192.046, 259.039 203.894 C 258.422 209.061, 257.552 214.011, 257.106 214.894 C 256.660 215.777, 255.465 221.582, 254.450 227.794 C 252.788 237.973, 252.410 239.058, 250.628 238.794 C 248.874 238.533, 246.360 235.420, 244.335 231 C 243.957 230.175, 242.651 228.150, 241.433 226.500 C 240.215 224.850, 238.910 222.043, 238.533 220.261 C 238.155 218.480, 237.431 216.766, 236.923 216.452 C 234.638 215.040, 236.099 211.450, 239.753 209.500 C 244.428 207.005, 245.047 204.091, 241.376 201.868 C 239.019 200.441, 238.268 200.408, 235.394 201.609 C 233.586 202.364, 231.917 202.649, 231.685 202.241 C 231.453 201.833, 230.239 198.125, 228.986 194 C 227.734 189.875, 226.387 186.275, 225.993 186 C 225.599 185.725, 225.022 184.150, 224.711 182.500 C 223.351 175.290, 221.745 169.266, 220.373 166.239 C 218.696 162.538, 219.212 161, 222.130 161 C 223.237 161, 224.846 160.296, 225.706 159.436 C 228.010 157.133, 225.634 153, 222.005 153 C 218.706 153, 215.100 149.312, 214.034 144.847 C 213.594 143.006, 212.272 137.985, 211.096 133.689 C 209.920 129.393, 209.184 125.511, 209.462 125.062 C 209.739 124.613, 211.420 124.543, 213.196 124.906 C 215.529 125.383, 216.587 126.250, 217.007 128.028 C 218.211 133.128, 225.549 131.739, 233 125.001 C 236.025 122.265, 238.816 120.021, 239.202 120.013 C 239.589 120.006, 242.155 122.250, 244.905 125 C 249.703 129.798, 250.129 130, 255.452 130 L 261 130 261 126.539 C 261 123.370, 260.675 122.989, 257.160 122.043 C 254.208 121.248, 252.530 119.851, 249.910 116.006 C 248.034 113.255, 245.975 111.003, 245.333 111.002 C 244.692 111.001, 243.996 110.488, 243.787 109.862 C 243.353 108.558, 236.614 110.501, 233.921 112.707 C 233.053 113.418, 231.982 114, 231.542 114 C 231.102 114, 229.010 115.565, 226.894 117.477 C 222.356 121.577, 219.544 121.353, 220.507 116.968 C 220.848 115.416, 220.650 113.902, 220.059 113.536 C 218.984 112.872, 218.625 114.078, 218.949 117.257 C 219.139 119.119, 216.825 122, 215.139 122 C 212.598 122, 212.931 117.583, 215.932 111.487 C 218.579 106.110, 219.542 105.046, 222.276 104.478 C 225.753 103.757, 231.348 98.345, 238.280 89 C 240.524 85.975, 242.765 83.226, 243.260 82.891 C 243.755 82.557, 244.012 80.982, 243.830 79.391 C 243.554 76.974, 242.990 76.450, 240.390 76.197 C 237.953 75.960, 236.490 76.662, 233.622 79.447 C 231.610 81.401, 229.522 83, 228.982 83 C 228.442 83, 228 83.406, 228 83.901 C 228 86.253, 220.754 89, 214.550 89 C 207.597 89, 206.972 89.528, 207.746 94.750 C 208.158 97.537, 208.630 98, 211.054 98 C 214.973 98, 215.507 99.475, 213.079 103.590 C 211.936 105.528, 210.980 108.326, 210.956 109.807 C 210.932 111.288, 210.329 114.713, 209.616 117.417 C 208.452 121.838, 208.240 122.090, 207.524 119.917 C 207.086 118.588, 206.142 114.575, 205.425 111 C 204.708 107.425, 203.603 101.930, 202.968 98.789 C 201.992 93.958, 202.060 92.586, 203.407 89.885 C 204.283 88.129, 205 85.949, 205 85.041 C 205 84.132, 206.131 81.855, 207.514 79.981 C 208.897 78.107, 211.003 74.532, 212.195 72.037 C 213.387 69.541, 214.629 67.275, 214.954 67 C 216.143 65.996, 219 61.040, 219 59.982 C 219 57.720, 224.473 52.016, 226.137 52.544 C 228.001 53.135, 231 50.597, 231 48.429 C 231 47.643, 231.468 47, 232.040 47 C 234.010 47, 239 42.621, 239 40.894 C 239 37.871, 237.843 36, 235.975 36 C 232.646 36, 231 37.193, 231 39.607 C 231 41.590, 230.495 42, 228.051 42 C 224.925 42, 222.086 44.973, 218.501 52 C 217.519 53.925, 216.348 56.175, 215.899 57 C 215.450 57.825, 213.974 60.750, 212.618 63.500 C 211.262 66.250, 209.331 69.412, 208.326 70.527 C 207.322 71.642, 205.601 74.342, 204.502 76.527 C 202.556 80.398, 200.617 83, 199.678 83 C 198.661 83, 197.768 79.099, 196.933 71 C 196.450 66.325, 195.620 60.250, 195.087 57.500 C 193.496 49.279, 193.738 35.462, 195.500 34 C 197.377 32.442, 197.395 31.252, 195.571 29.429 C 193.496 27.353, 190.925 27.687, 187.362 30.496 M 147.531 35.967 C 146.139 37.421, 145 39.143, 145 39.796 C 145 40.449, 143.466 42.992, 141.592 45.447 C 139.718 47.903, 137.628 51.596, 136.949 53.654 C 136.270 55.711, 134.654 58.539, 133.357 59.937 C 132.061 61.336, 131 62.849, 131 63.300 C 131 63.751, 129.449 66.151, 127.553 68.634 C 125.657 71.117, 123.597 74.690, 122.975 76.574 C 122.354 78.458, 121.430 80, 120.922 80 C 120.415 80, 120 80.494, 120 81.099 C 120 82.206, 118.488 85.911, 114.836 93.755 C 112.717 98.305, 112.713 101.500, 114.827 101.500 C 116.337 101.500, 118.163 98.376, 120.432 91.910 C 121.318 89.385, 124.846 82.686, 128.272 77.023 C 131.697 71.359, 136.423 63.075, 138.774 58.613 C 141.124 54.151, 143.379 50.386, 143.785 50.246 C 144.191 50.107, 144.967 50.978, 145.511 52.182 C 146.897 55.249, 148.702 55.528, 149.541 52.805 C 149.932 51.537, 151.545 48.564, 153.127 46.198 C 160.256 35.533, 160.444 32.919, 154.065 33.169 C 151.175 33.282, 149.359 34.060, 147.531 35.967 M 37.667 58.667 C 35.905 60.428, 37.176 63.724, 40.250 65.361 C 42.038 66.314, 45.308 68.124, 47.518 69.385 C 49.728 70.646, 52.653 71.944, 54.018 72.269 C 57.820 73.175, 66.292 76.038, 68.236 77.074 C 70.758 78.419, 86.363 78.237, 87.753 76.847 C 89.463 75.137, 87.415 72, 84.589 72 C 83.302 72, 79.705 70.875, 76.596 69.500 C 73.487 68.125, 69.863 67, 68.543 67 C 67.223 67, 65.468 66.325, 64.643 65.500 C 63.818 64.675, 62.482 64, 61.674 64 C 60.866 64, 57.484 62.650, 54.159 61 C 48.366 58.126, 39.466 56.867, 37.667 58.667 M 50 67 C 50 69.160, 51.607 69.556, 54 67.985 C 55.333 67.109, 55.333 66.891, 54 66.015 C 51.607 64.444, 50 64.840, 50 67 M 33.655 90.829 C 31.501 93.209, 31.545 95.901, 33.750 96.683 C 34.712 97.025, 36.304 97.995, 37.286 98.840 C 38.803 100.144, 39.602 100.184, 42.585 99.106 C 45.143 98.180, 46.455 98.133, 47.415 98.930 C 48.257 99.628, 57.031 100.147, 71.684 100.366 C 96.138 100.730, 101.009 100.442, 100.985 98.637 C 100.928 94.397, 96.234 93.157, 75.613 91.934 C 67.425 91.448, 58.230 90.589, 55.179 90.025 C 52.129 89.461, 46.410 89, 42.471 89 C 36.804 89, 34.965 89.381, 33.655 90.829 M 148.359 91.923 C 146.632 92.976, 144.914 94.331, 144.541 94.933 C 141.963 99.105, 126.684 101.947, 125.362 98.500 C 125.045 97.675, 124.159 97, 123.393 97 C 121.541 97, 121.597 101.319, 123.496 104.992 C 124.736 107.390, 125.718 107.937, 129.237 108.192 C 133.919 108.532, 135.258 110.599, 132.550 113.307 C 131.697 114.160, 131 115.387, 131 116.034 C 131 116.681, 129.716 119.113, 128.146 121.438 C 126.577 123.764, 124.474 127.879, 123.474 130.583 C 122.474 133.287, 121.303 135.972, 120.872 136.550 C 120.440 137.127, 119.785 139.489, 119.416 141.800 C 118.822 145.513, 118.968 146, 120.672 146 C 123.603 146, 125 143.998, 125 139.800 C 125 137.710, 125.401 136, 125.892 136 C 126.382 136, 127.065 134.878, 127.409 133.507 C 128.237 130.207, 136.893 116, 138.075 116 C 138.584 116, 139 116.886, 139 117.969 C 139 119.308, 139.480 119.753, 140.500 119.362 C 141.325 119.045, 142 118.159, 142 117.393 C 142 116.627, 142.401 116, 142.892 116 C 143.382 116, 144.066 114.875, 144.411 113.500 C 144.756 112.125, 145.480 111, 146.019 111 C 146.559 111, 147 110.502, 147 109.894 C 147 108.820, 152.627 101.088, 154.260 99.919 C 155.879 98.760, 156.368 91.847, 154.897 90.915 C 152.868 89.631, 151.864 89.785, 148.359 91.923 M 64 96 C 64 96.550, 64.900 97, 66 97 C 67.100 97, 68 96.550, 68 96 C 68 95.450, 67.100 95, 66 95 C 64.900 95, 64 95.450, 64 96 M 158.869 118.250 C 155.869 122.549, 142.908 136, 141.764 136 C 141.271 136, 139.397 137.121, 137.600 138.492 C 135.803 139.862, 132.886 141.273, 131.117 141.627 C 127.995 142.251, 127.910 142.404, 128.201 146.885 C 128.492 151.373, 128.597 151.508, 132 151.784 C 134.844 152.015, 136.411 151.312, 140.359 148.034 C 143.031 145.815, 145.506 143.993, 145.859 143.985 C 146.211 143.977, 148.525 141.071, 151 137.528 C 156.233 130.036, 158.319 129.397, 160.074 134.750 C 162.593 142.434, 169.775 148.395, 172.191 144.808 C 173.348 143.091, 172.410 136.871, 170.849 135.907 C 170.126 135.460, 169.398 131.718, 169.064 126.729 C 168.737 121.845, 167.923 117.611, 167.128 116.653 C 164.889 113.957, 161.392 114.634, 158.869 118.250 M 28.686 125.017 C 24.699 126.214, 23 127.882, 23 130.603 C 23 134.089, 26.472 134.505, 64 135.521 C 75.825 135.840, 88.351 136.587, 91.835 137.180 C 97.169 138.088, 98.410 138.019, 99.688 136.741 C 100.576 135.853, 100.950 134.416, 100.588 133.279 C 99.538 129.969, 81.147 126.712, 54 125.027 C 35.101 123.854, 32.561 123.853, 28.686 125.017 M 45.250 130.689 C 46.212 130.941, 47.788 130.941, 48.750 130.689 C 49.712 130.438, 48.925 130.232, 47 130.232 C 45.075 130.232, 44.288 130.438, 45.250 130.689 M 237.200 146.200 C 236.540 146.860, 236 148.837, 236 150.593 C 236 153.832, 237.328 155, 241.014 155 C 242.914 155, 247 159.822, 247 162.065 C 247 163.540, 252.864 169, 254.448 169 C 255.046 169, 257.187 170.122, 259.204 171.493 C 262.823 173.952, 266 173.977, 266 171.547 C 266 169.374, 262.899 164, 261.645 164 C 260.141 164, 251.119 155.438, 248.727 151.741 C 247.752 150.233, 246.350 149, 245.612 149 C 244.874 149, 243.126 148.100, 241.727 147 C 238.738 144.649, 238.749 144.651, 237.200 146.200 M 57.500 160.538 C 50.900 161.220, 40.351 162.295, 34.058 162.926 C 27.765 163.557, 22.028 164.562, 21.308 165.159 C 20.589 165.756, 20 167.496, 20 169.025 C 20 171.159, 20.639 172.026, 22.750 172.759 C 25.952 173.871, 44.178 173.297, 48.348 171.953 C 49.915 171.449, 53.965 170.797, 57.348 170.504 C 60.732 170.212, 66.200 169.709, 69.500 169.386 C 77.087 168.644, 79.868 168.583, 88.350 168.977 C 93.399 169.212, 95.432 168.928, 96.084 167.898 C 99.004 163.286, 95.541 162.070, 72.500 159.616 C 70.850 159.440, 64.100 159.855, 57.500 160.538 M 44 168 C 44 168.550, 44.675 169, 45.500 169 C 46.325 169, 47 168.550, 47 168 C 47 167.450, 46.325 167, 45.500 167 C 44.675 167, 44 167.450, 44 168 M 121.272 184.128 C 120.444 184.956, 120.438 185.729, 121.250 187.029 C 122.721 189.385, 125 188.391, 125 185.393 C 125 182.863, 123.160 182.240, 121.272 184.128 M 24.447 188.798 C 23.339 189.830, 21.323 190.956, 19.967 191.300 C 16.123 192.275, 14.569 195.526, 16.113 199.359 C 16.809 201.086, 18.418 203.491, 19.689 204.702 C 20.960 205.913, 22 207.771, 22 208.830 C 22 209.889, 22.714 211.348, 23.586 212.072 C 24.590 212.904, 24.988 214.327, 24.670 215.944 C 24.393 217.350, 24.792 220.300, 25.556 222.500 C 26.320 224.700, 27.194 228.525, 27.498 231 C 27.802 233.475, 28.717 238.650, 29.532 242.500 C 30.346 246.350, 31.492 252.088, 32.077 255.250 C 32.663 258.413, 33.608 261, 34.177 261 C 34.746 261, 36.097 259.875, 37.179 258.500 C 38.639 256.643, 40.092 256, 42.823 255.999 C 50.249 255.998, 62.119 249.439, 63.634 244.500 C 64.471 241.775, 67.531 239.001, 69.708 238.995 C 73.126 238.985, 77.178 235.563, 78.585 231.500 C 80.365 226.358, 80.352 223.582, 78.530 220.058 C 76.961 217.025, 69.987 211, 68.044 211 C 67.402 211, 64.542 209.947, 61.688 208.659 C 49.477 203.150, 36.681 201.270, 33.932 204.582 C 31.927 206.998, 38.044 212.316, 44.500 213.766 C 51.107 215.251, 63.693 219.752, 66.647 221.688 C 70.466 224.191, 69.070 234.135, 64.627 236.069 C 62.009 237.209, 59.029 239.092, 57.221 240.750 C 56.471 241.438, 55.214 242, 54.429 242 C 53.643 242, 53 242.450, 53 243 C 53 243.550, 52.212 244.012, 51.250 244.027 C 50.288 244.042, 46.511 245.330, 42.858 246.888 L 36.215 249.723 35.700 243.611 C 34.952 234.740, 32.298 219.355, 30.420 213 C 27.845 204.288, 27.505 198.205, 29.470 196.033 C 31.837 193.418, 31.184 187.598, 28.481 187.211 C 27.370 187.052, 25.555 187.766, 24.447 188.798 M 150 212.393 C 150 213.974, 151.888 214.919, 153.750 214.269 C 156.042 213.470, 155.097 211, 152.500 211 C 151.030 211, 150 211.574, 150 212.393" stroke="none" fill="black" fill-rule="evenodd"/>
</svg>