<svg xmlns="http://www.w3.org/2000/svg" width="300" height="300" viewBox="0 0 300 300" version="1.1">
	<path d="M 143.418 16.159 C 142.140 18.630, 141.796 22.170, 141.840 32.409 C 141.871 39.609, 142.203 48.376, 142.579 51.891 C 143.261 58.263, 143.256 58.281, 140.875 57.683 C 139.341 57.298, 137.057 57.884, 134.493 59.319 C 130.592 61.502, 130.494 61.692, 130.248 67.527 C 130.110 70.812, 129.314 78.686, 128.480 85.025 C 127.646 91.364, 126.529 100.139, 125.998 104.525 C 125.467 108.911, 124.570 115.425, 124.005 119 C 122.670 127.453, 122.673 173.016, 124.009 183.429 C 124.578 187.868, 125.398 200.575, 125.831 211.667 C 126.671 233.217, 127.125 235, 131.774 235 L 134.302 235 133.576 215.250 C 133.176 204.388, 132.679 192.350, 132.470 188.500 C 131.454 169.706, 131.580 128.055, 132.673 122 C 134.161 113.751, 135.634 103.826, 136.977 93 C 138.049 84.354, 139.523 75.178, 140.443 71.421 C 141.141 68.573, 145.067 67, 151.482 67 C 154.445 67, 158.040 66.555, 159.471 66.011 C 163.565 64.454, 163.940 67.435, 160.142 71.354 C 158.050 73.512, 156.723 76.160, 156.122 79.375 C 155.629 82.015, 154.729 84.671, 154.122 85.278 C 153.515 85.885, 150.651 86.342, 147.759 86.293 C 141.725 86.191, 140.385 86.970, 139.476 91.110 C 138.534 95.400, 140.474 97.332, 144.944 96.557 C 153.622 95.052, 153.237 94.816, 153.430 101.774 C 153.639 109.316, 155.615 111.870, 161.891 112.712 C 166.596 113.343, 166.842 114.951, 162.435 116.267 C 154.432 118.657, 152.380 118.906, 149.187 117.874 C 146.433 116.984, 145.548 117.099, 143.937 118.557 C 141.665 120.613, 141.385 125.245, 143.431 126.942 C 144.218 127.596, 146.130 128.157, 147.681 128.191 C 151.280 128.269, 158.732 126.243, 159.517 124.973 C 159.847 124.438, 161.035 124, 162.157 124 C 165.283 124, 180.958 115.997, 182.503 113.612 C 183.431 112.180, 183.634 110.373, 183.134 108 C 182.481 104.907, 182.053 104.518, 179.448 104.653 C 177.826 104.737, 174.600 105.390, 172.277 106.103 C 168.285 107.328, 167.910 107.265, 165.427 104.949 C 163.049 102.731, 162.858 102.012, 163.399 97.335 C 164.271 89.804, 164.762 89, 168.485 89 C 170.283 89, 172.315 88.325, 173 87.500 C 173.685 86.675, 175.304 86, 176.599 86 C 178.022 86, 179.618 84.987, 180.631 83.440 C 182.164 81.101, 182.171 80.743, 180.720 79.291 C 179.381 77.952, 178.664 77.896, 176.151 78.938 C 174.511 79.617, 171.527 80.543, 169.519 80.996 C 164.898 82.038, 164.378 80.902, 166.549 74.506 C 167.450 71.854, 167.937 68.435, 167.632 66.910 L 167.077 64.136 176.289 64.318 L 185.500 64.500 185.003 70 C 184.327 77.481, 184.534 98.804, 185.318 102.500 C 185.668 104.150, 186.234 106.850, 186.575 108.500 C 187.552 113.219, 189.765 116, 192.544 116 C 196.351 116, 197.858 111.933, 195.401 108.291 C 192.633 104.187, 192.219 82.384, 194.719 72.359 C 195.699 68.431, 196.346 62.945, 196.157 60.168 C 195.842 55.517, 195.586 55.068, 192.911 54.480 C 191.314 54.130, 188.504 54.339, 186.666 54.945 C 182.435 56.342, 156.534 57.968, 153.087 57.053 C 150.878 56.467, 150.454 55.731, 150.184 52.014 C 149.622 44.266, 150.258 43.335, 156.740 42.415 C 159.908 41.965, 164.750 41.521, 167.500 41.428 C 187.733 40.746, 195 39.273, 195 35.854 C 195 32.858, 190.494 31.655, 184 32.917 C 175.624 34.545, 151.940 34.483, 150.798 32.830 C 150.293 32.098, 150.080 27.900, 150.326 23.500 C 150.855 14.008, 150.579 13, 147.442 13 C 145.770 13, 144.560 13.950, 143.418 16.159 M 267.383 41.130 C 264.980 43.785, 265.417 46.867, 269.192 53.895 C 272.689 60.404, 274.797 63, 276.588 63 C 279.217 63, 279.032 58.983, 276.050 51.318 C 274.378 47.018, 273.007 42.953, 273.005 42.285 C 273.002 41.617, 272.157 40.619, 271.126 40.067 C 269.672 39.289, 268.833 39.528, 267.383 41.130 M 236.571 53.571 C 235.707 54.436, 235 55.784, 235 56.567 C 235 57.351, 234.114 60.581, 233.031 63.746 C 231.653 67.774, 230.757 74.430, 230.045 85.933 C 229.401 96.323, 228.599 102.630, 227.864 103.084 C 227.224 103.480, 222.326 103.584, 216.980 103.316 L 207.259 102.828 205.129 105.818 C 201.136 111.427, 203.394 115.041, 209.782 113.262 C 214.342 111.993, 225.019 111.754, 226.823 112.881 C 227.904 113.557, 227.948 116.695, 227.061 130.104 C 225.869 148.140, 224.546 159.636, 223.047 165 C 222.509 166.925, 221.837 173.900, 221.553 180.500 C 221.270 187.100, 220.583 195.200, 220.027 198.500 C 219.471 201.800, 218.551 210.245, 217.982 217.267 C 216.876 230.912, 217.312 233.325, 221.056 234.304 C 222.844 234.772, 223.568 234.001, 225.686 229.374 C 227.852 224.643, 228.034 223.496, 227.010 221.025 C 225.825 218.162, 226.115 211.769, 228.032 198.500 C 228.509 195.200, 229.413 185.975, 230.042 178 C 231.363 161.256, 233.761 149.001, 235.310 151.083 C 235.704 151.612, 241.675 164.220, 244.032 169.500 C 245.015 171.700, 247.587 177.325, 249.749 182 C 251.910 186.675, 253.997 191.787, 254.386 193.360 C 255.113 196.300, 258.458 204.333, 260.066 207 C 260.563 207.825, 261.644 209.850, 262.467 211.500 C 266.842 220.272, 269.849 224.656, 272.902 226.713 C 276.755 229.309, 278.852 229.560, 281.363 227.724 C 283.604 226.085, 282.731 223.863, 278.976 221.645 C 276.834 220.380, 274.749 217.209, 271.446 210.198 C 268.934 204.864, 266.243 199.326, 265.466 197.892 C 264.690 196.458, 261.975 189.708, 259.433 182.892 C 256.892 176.076, 254.179 169.790, 253.406 168.921 C 252.633 168.053, 251.977 166.703, 251.948 165.921 C 251.919 165.140, 249.901 160.900, 247.463 156.500 C 245.026 152.100, 242.142 146.676, 241.056 144.447 C 239.184 140.605, 236.926 129.019, 236.781 122.500 C 236.676 117.850, 239.453 111.749, 242.135 110.736 C 246.079 109.245, 258.904 107, 263.471 107 C 268.215 107, 269.419 105.366, 267.835 101.083 C 267.052 98.967, 266.559 98.806, 262.734 99.412 C 239.689 103.062, 237.437 103.160, 237.691 100.500 C 237.797 99.400, 238.169 91.975, 238.518 84 C 238.867 76.025, 239.516 68.375, 239.960 67 C 243.346 56.519, 243.397 56.096, 241.504 54.004 C 239.318 51.588, 238.616 51.527, 236.571 53.571 M 36.667 60.667 C 36.300 61.033, 36 63.228, 36 65.544 C 36 69.954, 37.694 72.425, 39.817 71.113 C 40.505 70.688, 49.331 70.547, 59.432 70.801 C 80.399 71.326, 85 70.826, 85 68.022 C 85 65.338, 83.136 64.999, 65.884 64.547 C 53.963 64.235, 49.037 63.681, 44 62.085 C 40.425 60.953, 37.462 60.020, 37.417 60.013 C 37.371 60.006, 37.033 60.300, 36.667 60.667 M 77.857 94.477 C 77.595 94.739, 74.707 95.018, 71.440 95.097 C 68.173 95.177, 64.150 95.607, 62.500 96.055 C 60.850 96.502, 54.713 97.117, 48.863 97.422 C 36.469 98.068, 35.180 98.434, 34.403 101.531 C 33.182 106.394, 34.148 107.506, 39.520 107.424 C 42.259 107.382, 45.850 106.844, 47.500 106.228 C 49.150 105.612, 53.200 104.615, 56.500 104.013 C 59.800 103.411, 64.419 102.487, 66.764 101.959 C 69.110 101.432, 73.622 101, 76.792 101 C 82.250 101, 87 99.158, 87 97.041 C 87 95.519, 79.045 93.288, 77.857 94.477 M 74 121.993 C 70.975 122.405, 63.100 123.321, 56.500 124.029 C 49.900 124.737, 42.544 125.890, 40.153 126.590 C 37.762 127.290, 35.210 127.634, 34.481 127.354 C 32.563 126.619, 29.241 128.665, 28.485 131.048 C 27.674 133.602, 30.406 138.012, 32.773 137.968 C 33.723 137.951, 35.348 137.294, 36.385 136.509 C 37.422 135.724, 40.240 134.787, 42.647 134.426 C 45.055 134.065, 47.275 133.364, 47.581 132.868 C 47.888 132.373, 48.555 132.225, 49.065 132.540 C 49.575 132.855, 55.506 132.145, 62.246 130.961 C 68.986 129.778, 78.095 128.282, 82.490 127.638 C 88.438 126.765, 90.559 126.053, 90.791 124.849 C 90.995 123.790, 89.997 122.846, 87.902 122.116 C 84.390 120.891, 82.229 120.872, 74 121.993 M 172.500 135.178 C 169.750 135.674, 165.700 136.589, 163.500 137.212 C 161.300 137.834, 156.258 138.418, 152.296 138.511 C 144.362 138.696, 142.449 139.681, 141.483 144.079 C 140.540 148.371, 144.771 167.483, 147.138 169.625 C 148.944 171.259, 149.173 171.209, 151.916 168.581 C 154.312 166.285, 155.139 166.004, 156.833 166.910 C 159.316 168.240, 163.421 168.320, 165.764 167.084 C 166.719 166.580, 169.193 165.432, 171.262 164.532 C 174.390 163.171, 174.989 162.440, 174.819 160.197 C 174.707 158.714, 176.023 154.730, 177.744 151.344 C 181.508 143.941, 182.589 138.969, 181.056 136.105 C 179.840 133.833, 179.910 133.840, 172.500 135.178 M 163.500 145.261 C 161.850 145.837, 158.250 147.042, 155.500 147.938 L 150.500 149.567 150.197 154.795 C 149.793 161.774, 151.168 162.138, 160.238 157.453 C 168.193 153.344, 171.997 149.721, 171.999 146.250 C 172 144.436, 171.467 144.021, 169.250 144.106 C 167.738 144.165, 165.150 144.684, 163.500 145.261 M 44.867 159.072 C 36.819 159.438, 29.731 160.048, 29.117 160.428 C 27.904 161.178, 27.670 165.168, 28.630 168.750 C 29.337 171.386, 31.508 171.701, 32.819 169.358 C 33.447 168.237, 34.580 167.878, 36.394 168.225 C 37.855 168.504, 41.177 168.289, 43.775 167.747 C 46.374 167.206, 52.100 166.635, 56.500 166.478 C 69.461 166.017, 85.093 164.994, 91 164.220 C 95.516 163.629, 96.500 163.155, 96.500 161.572 C 96.500 160.290, 95.529 159.384, 93.601 158.869 C 90.305 157.987, 66.561 158.086, 44.867 159.072 M 181.884 172.450 C 181.656 172.677, 177.427 173.392, 172.485 174.039 C 167.543 174.686, 159.704 176.521, 155.064 178.116 C 146.556 181.043, 145.060 180.914, 145.015 177.250 C 144.997 175.763, 143.966 175.682, 140.721 176.916 C 136.489 178.525, 135.657 182.571, 136.434 197.779 C 137.962 227.706, 140.390 242.027, 144.824 247.250 C 147.460 250.355, 153 248.908, 153 245.116 C 153 244.299, 152.107 241.786, 151.015 239.531 C 147.675 232.631, 145.583 217, 148 217 C 148.550 217, 149 217.450, 149 218 C 149 220.159, 155.383 219.110, 162.655 215.758 C 166.642 213.919, 166.932 215.218, 166.367 232.358 C 165.751 251.088, 166.648 256.623, 170.457 257.578 C 173.869 258.435, 176.582 257.640, 176.044 255.941 C 175.060 252.838, 174.831 239.798, 175.504 225.259 L 176.210 210.017 179.913 208.908 C 181.949 208.298, 184.693 206.986, 186.011 205.992 C 188.130 204.394, 188.270 203.887, 187.224 201.593 C 185.824 198.520, 183.419 198.297, 176.624 200.612 C 174.021 201.499, 171.622 201.956, 171.294 201.627 C 170.419 200.752, 178.597 182.670, 180.380 181.538 C 181.351 180.922, 182.888 180.926, 184.664 181.551 C 187.055 182.392, 187.804 183.717, 190.137 191.238 C 191.624 196.031, 193.084 202.550, 193.381 205.726 C 193.678 208.902, 194.414 215.980, 195.018 221.455 C 196.202 232.212, 195.802 236, 193.481 236 C 189.738 236, 194.023 242.018, 198.798 243.468 C 202.796 244.681, 204 242.546, 204 234.239 C 204 230.105, 203.511 221.498, 202.913 215.112 C 200.728 191.775, 196.294 177.706, 190.150 174.614 C 187.050 173.054, 182.477 171.857, 181.884 172.450 M 87 182.315 C 86.725 182.584, 80.875 183.049, 74 183.346 C 38.001 184.905, 32.833 185.705, 31.739 189.892 C 31.412 191.140, 31.908 192.900, 32.948 194.185 C 34.504 196.106, 35.052 196.224, 37.606 195.190 C 41.075 193.785, 53.730 191.935, 60 191.917 C 69.926 191.888, 83.615 191.147, 85.519 190.536 C 88.378 189.618, 94.161 193.778, 95.199 197.500 C 96.620 202.601, 98.231 234.169, 97.126 235.274 C 96.583 235.817, 92.395 236.433, 87.819 236.643 C 83.244 236.852, 75.450 237.432, 70.500 237.930 C 61.380 238.848, 51.511 239.306, 38.123 239.431 L 30.745 239.500 30.623 218.516 C 30.509 199.055, 30.368 197.506, 28.676 197.178 C 25.572 196.577, 23.168 199.805, 22.453 205.533 C 20.856 218.310, 21.688 244.665, 23.811 248.578 C 24.385 249.635, 25.093 251.274, 25.384 252.220 C 25.676 253.166, 27.058 254.227, 28.455 254.578 C 30.468 255.083, 31.600 254.570, 33.899 252.108 C 35.916 249.949, 37.731 249, 39.842 249 C 41.514 249, 43.160 248.550, 43.500 248 C 43.850 247.434, 48.774 247, 54.849 247 C 60.751 247, 68.037 246.374, 71.040 245.608 C 74.043 244.842, 78.300 244.223, 80.500 244.231 C 82.700 244.240, 87.579 243.468, 91.343 242.516 C 96.346 241.252, 98.484 241.084, 99.293 241.893 C 101.130 243.730, 103.328 243.152, 106.769 239.927 L 110.038 236.863 108.019 234.297 C 106.499 232.365, 105.996 230.218, 105.984 225.615 C 105.954 214.550, 104.130 197.586, 102.447 192.722 C 100.559 187.268, 95.998 183.197, 90.843 182.364 C 89.004 182.067, 87.275 182.045, 87 182.315 M 162.500 184.243 C 160.850 184.809, 158.938 185.422, 158.250 185.605 C 156.749 186.004, 156.613 189.355, 158 191.764 C 158.549 192.719, 159.438 194.738, 159.975 196.250 C 161.684 201.068, 163.389 199.658, 166.436 190.909 C 169.170 183.056, 168.628 182.139, 162.500 184.243 M 146.035 193.934 C 145.466 194.998, 145 199.450, 145 203.827 C 145 213.771, 146.363 214.758, 151.316 208.401 L 154.800 203.929 152.164 197.964 C 149.414 191.743, 147.782 190.670, 146.035 193.934" stroke="none" fill="black" fill-rule="evenodd"/>
</svg>