<svg xmlns="http://www.w3.org/2000/svg" width="300" height="300" viewBox="0 0 300 300" version="1.1">
	<path d="M 161.809 39.687 C 158.965 41.489, 157.598 44.790, 158.608 47.421 C 159.410 49.512, 160.742 49.428, 161.311 47.250 C 161.638 45.997, 161.801 46.172, 161.884 47.867 C 161.982 49.860, 162.355 50.115, 164.250 49.486 C 168.597 48.042, 181.496 49.333, 185.950 51.657 C 187.352 52.389, 189.717 52.990, 191.205 52.994 C 193.485 52.999, 193.988 53.510, 194.411 56.250 C 194.687 58.038, 195.178 61.075, 195.503 63 C 195.828 64.925, 196.342 70.606, 196.646 75.623 L 197.200 84.747 188.850 85.300 C 184.257 85.605, 179.600 85.871, 178.500 85.893 C 177.400 85.914, 174.475 86.285, 172 86.716 C 167.841 87.441, 167.500 87.727, 167.500 90.500 C 167.500 93.154, 167.875 93.536, 170.750 93.813 C 172.763 94.007, 174 94.673, 174 95.563 C 174 97.339, 174.765 97.333, 183.500 95.483 C 194.254 93.205, 196.839 93.438, 197.562 96.750 C 197.892 98.263, 198.544 100.625, 199.010 102 C 199.476 103.375, 200.109 107.875, 200.417 112 C 200.725 116.125, 201.094 120.625, 201.238 122 C 201.457 124.090, 201.115 124.458, 199.150 124.244 C 197.858 124.103, 194.805 124.666, 192.365 125.494 C 189.926 126.322, 185.358 127.013, 182.215 127.028 C 175.511 127.061, 167.672 130.492, 167.211 133.594 C 166.541 138.098, 184.986 139.728, 193.996 135.961 C 196.473 134.925, 200.300 134.086, 202.500 134.096 C 207.192 134.118, 224.823 131.673, 227 130.699 C 227.825 130.329, 233.670 129.909, 239.988 129.764 C 249.705 129.541, 251.524 129.247, 251.790 127.862 C 252.260 125.407, 244.434 123.100, 231.144 121.774 C 222.583 120.920, 219.033 120.926, 216.721 121.799 C 214.652 122.580, 213.259 122.630, 212.443 121.952 C 211.179 120.903, 209.367 105.698, 209.886 100.500 C 210.386 95.491, 211.567 94.843, 219.097 95.446 C 226.825 96.064, 229 95.530, 229 93.015 C 229 90.075, 226.667 89.031, 218.565 88.346 C 214.021 87.962, 210.251 87.108, 209.418 86.275 C 208.615 85.473, 208 82.910, 208 80.370 C 208 77.902, 207.506 72.701, 206.903 68.811 C 206.290 64.860, 206.188 61.465, 206.673 61.119 C 207.150 60.779, 208.062 59.313, 208.698 57.861 L 209.856 55.223 222.678 55.737 C 230.611 56.054, 236.530 56.775, 238.200 57.625 C 239.686 58.381, 241.537 59, 242.314 59 C 243.682 59, 247 66.082, 247 69 C 247 69.788, 247.624 72.248, 248.386 74.467 C 252.247 85.699, 253.017 89.306, 255.545 108 C 255.880 110.475, 256.529 113.400, 256.988 114.500 C 258.940 119.174, 260.397 128.566, 261.490 143.500 C 261.852 148.450, 262.543 155.200, 263.026 158.500 C 263.509 161.800, 264.178 168.100, 264.512 172.500 C 264.846 176.900, 265.513 182.975, 265.995 186 C 266.477 189.025, 267.176 195.325, 267.550 200 C 267.923 204.675, 268.616 209.238, 269.091 210.140 C 269.565 211.043, 270.001 215.318, 270.059 219.640 C 270.117 223.963, 271.052 231.263, 272.137 235.863 C 274.671 246.609, 274.427 248.500, 270.500 248.500 C 267.738 248.500, 267.344 248.998, 267.850 251.843 C 267.933 252.306, 269.688 253.543, 271.750 254.593 C 273.813 255.642, 276.291 257.272, 277.257 258.216 C 278.983 259.901, 281.147 259.736, 283.750 257.722 C 285.321 256.507, 285.463 240.734, 283.929 237.867 C 283.340 236.767, 282.449 231.509, 281.950 226.183 C 281.451 220.857, 280.400 211.325, 279.614 205 C 274.263 161.894, 272.994 149.931, 272.997 142.624 C 273 135.408, 270.506 117.920, 268.986 114.500 C 268.498 113.400, 267.609 109.350, 267.011 105.500 C 265.325 94.646, 263.368 85.068, 261.495 78.500 C 260.554 75.200, 259.405 70.920, 258.941 68.988 C 257.543 63.172, 253.770 55.627, 250.746 52.603 C 248.171 50.028, 244.095 49.120, 227.601 47.446 C 219.406 46.614, 212.263 45.662, 211.727 45.331 C 211.191 45, 206.491 44.566, 201.283 44.367 C 196.075 44.168, 190.393 43.382, 188.657 42.620 C 182.353 39.853, 179.364 39.125, 172 38.559 C 165.948 38.094, 163.980 38.311, 161.809 39.687 M 218 50 C 216.703 50.838, 216.725 50.971, 218.167 50.985 C 219.083 50.993, 220.017 51.551, 220.241 52.224 C 220.466 52.898, 220.911 52.448, 221.231 51.224 C 221.855 48.838, 220.558 48.347, 218 50 M 156.636 51.506 C 155.060 52.328, 153.178 53, 152.453 53 C 151.728 53, 150.895 53.788, 150.602 54.750 C 150.309 55.712, 149.814 80.350, 149.503 109.500 C 149.191 138.650, 148.524 164.525, 148.020 167 C 147.515 169.475, 146.660 173.750, 146.119 176.500 C 144.513 184.653, 146.352 226.524, 148.465 229.944 C 148.757 230.416, 149.415 234.852, 149.927 239.801 C 150.936 249.554, 152.056 252.348, 157.250 258.072 C 159.414 260.456, 163.576 260.580, 164.853 258.298 C 165.550 257.052, 165.055 255.192, 163.002 251.344 C 160.618 246.877, 160.103 244.474, 159.558 235.295 C 159.206 229.358, 158.246 220.890, 157.425 216.478 C 155.399 205.588, 155.384 182.826, 157.400 176.387 C 159.318 170.258, 160.846 144.280, 159.951 133 C 159.580 128.325, 159.645 118.650, 160.095 111.500 C 160.545 104.350, 160.951 92.650, 160.996 85.500 C 161.042 78.350, 161.655 69.217, 162.359 65.205 C 163.509 58.654, 163.459 57.507, 161.869 53.955 C 160.895 51.780, 159.963 50.003, 159.799 50.006 C 159.635 50.010, 158.211 50.685, 156.636 51.506 M 63.500 64.955 C 49.468 67.121, 41 70.586, 41 74.162 C 41 74.679, 42.526 75.739, 44.390 76.519 C 47.906 77.988, 54.085 77.276, 67.238 73.889 C 71.367 72.825, 72.213 72.883, 73.817 74.334 C 74.829 75.250, 76.652 76, 77.869 76 C 80.970 76, 88 79.760, 88 81.419 C 88 82.177, 89.409 85.430, 91.131 88.648 C 93.679 93.412, 94.240 95.576, 94.143 100.286 C 94.058 104.472, 94.422 106.225, 95.460 106.623 C 97.079 107.244, 99.506 117.372, 98.447 119.086 C 98.015 119.785, 96.590 119.935, 94.629 119.488 C 92.908 119.095, 82.950 118.620, 72.500 118.432 C 62.050 118.244, 52.084 117.833, 50.354 117.519 C 48.623 117.205, 46.034 117.483, 44.600 118.137 C 43.165 118.790, 41.701 119.034, 41.346 118.679 C 40.990 118.324, 40.780 115.347, 40.879 112.065 C 41.122 103.970, 38.275 79.583, 36.421 73.868 C 35.594 71.320, 34.066 68.465, 33.026 67.523 C 31.233 65.900, 31.067 65.920, 29.827 67.906 C 29.107 69.058, 27.915 70, 27.177 70 C 25.593 70, 26.009 80.289, 27.925 88.500 C 29.380 94.731, 29.540 142.631, 28.128 149 C 26.153 157.910, 24.831 201.905, 26.399 206.564 C 27.529 209.922, 31.509 212.137, 34.422 211.030 C 35.824 210.497, 41.222 209.869, 46.418 209.635 C 57.249 209.147, 57.978 209.659, 54.936 215.626 C 53.871 217.714, 53 221.331, 53 223.662 C 53 225.994, 52.553 230.061, 52.007 232.701 C 50.588 239.557, 49.065 257.533, 49.698 259.954 C 50.393 262.612, 51.863 262.497, 55.244 259.522 C 58.974 256.238, 61.829 246.548, 63.500 231.500 C 64.300 224.294, 65.540 221.278, 69.082 217.934 C 71.986 215.190, 72.932 213.460, 73.179 210.434 L 73.500 206.500 80.500 206 C 84.350 205.725, 88.019 205.163, 88.653 204.751 C 89.288 204.339, 95.138 203.957, 101.653 203.904 C 108.169 203.850, 114.287 203.594, 115.250 203.335 C 117.240 202.801, 117.655 199.079, 115.750 198.849 C 115.063 198.766, 113.150 198.560, 111.500 198.390 C 109.850 198.221, 105.044 197.653, 100.819 197.129 C 91.327 195.950, 72.038 196.374, 69.334 197.821 C 68.233 198.410, 63.545 198.885, 58.916 198.876 C 54.287 198.868, 47.601 198.891, 44.058 198.929 C 39.932 198.973, 37.331 198.549, 36.823 197.749 C 36.387 197.062, 36.024 190.593, 36.015 183.372 C 35.997 168.075, 36.349 167.375, 43.513 168.450 C 46.474 168.894, 49.855 168.607, 53.272 167.622 C 60.577 165.515, 98.069 164.402, 100.957 166.205 C 102.780 167.344, 103 168.498, 103 176.913 C 103 187.919, 105.002 193.931, 108.683 193.974 C 110.051 193.990, 111.170 193.161, 111.683 191.750 C 112.823 188.610, 112.108 123.393, 110.879 118.500 C 110.326 116.300, 109.284 110.837, 108.562 106.361 C 107.332 98.732, 105.691 94.310, 99.204 81.144 C 96.326 75.302, 89.178 68.314, 85.083 67.339 C 83.662 67.001, 82.046 66.371, 81.490 65.939 C 79.899 64.702, 69.001 64.105, 63.500 64.955 M 199.079 65.583 C 199.127 66.748, 199.364 66.985, 199.683 66.188 C 199.972 65.466, 199.936 64.603, 199.604 64.271 C 199.272 63.939, 199.036 64.529, 199.079 65.583 M 57.750 70.662 C 58.438 70.940, 59.563 70.940, 60.250 70.662 C 60.938 70.385, 60.375 70.158, 59 70.158 C 57.625 70.158, 57.063 70.385, 57.750 70.662 M 200.195 74.500 C 200.215 76.150, 200.439 76.704, 200.693 75.731 C 200.947 74.758, 200.930 73.408, 200.656 72.731 C 200.382 72.054, 200.175 72.850, 200.195 74.500 M 189.909 90.077 C 188.884 90.727, 189.249 90.974, 191.250 90.985 C 194.236 91.001, 194.774 90.511, 192.659 89.700 C 191.922 89.417, 190.684 89.587, 189.909 90.077 M 258 93 C 258 93.550, 258.477 94, 259.059 94 C 259.641 94, 259.840 93.550, 259.500 93 C 259.160 92.450, 258.684 92, 258.441 92 C 258.198 92, 258 92.450, 258 93 M 99.446 100.087 C 99.077 100.685, 99.275 101.675, 99.887 102.287 C 100.704 103.104, 101 102.815, 101 101.200 C 101 98.785, 100.481 98.413, 99.446 100.087 M 153.195 105.500 C 153.215 107.150, 153.439 107.704, 153.693 106.731 C 153.947 105.758, 153.930 104.408, 153.656 103.731 C 153.382 103.054, 153.175 103.850, 153.195 105.500 M 261.645 113 C 262.436 117.313, 263.005 118.126, 262.985 114.917 C 262.976 113.588, 262.527 111.825, 261.986 111 C 261.294 109.945, 261.193 110.538, 261.645 113 M 41.750 125.470 C 40.395 127.333, 40 129.883, 40 136.771 C 40 141.664, 39.479 148.259, 38.843 151.427 C 37.577 157.729, 38.430 159.374, 42.492 158.469 C 45.832 157.725, 54.669 157.103, 71.519 156.428 C 84.693 155.899, 88.499 156.071, 92.950 157.393 C 102.800 160.318, 102.270 161.137, 101.458 144.250 C 101.068 136.137, 100.305 128.649, 99.763 127.608 C 98.843 125.841, 97.975 125.768, 86.639 126.504 C 79.962 126.938, 69.325 127.466, 63 127.678 C 56.675 127.890, 49.925 128.162, 48 128.282 C 44.735 128.485, 44.519 128.315, 44.788 125.750 C 45.140 122.381, 44.068 122.282, 41.750 125.470 M 181.750 131.662 C 182.438 131.940, 183.563 131.940, 184.250 131.662 C 184.938 131.385, 184.375 131.158, 183 131.158 C 181.625 131.158, 181.063 131.385, 181.750 131.662 M 181.500 134 C 181.160 134.550, 181.332 135, 181.882 135 C 182.432 135, 183.160 134.550, 183.500 134 C 183.840 133.450, 183.668 133, 183.118 133 C 182.568 133, 181.840 133.450, 181.500 134 M 178.405 159.115 C 177.357 160.278, 175.466 161.625, 174.202 162.108 C 169.035 164.084, 168.058 172.225, 170.973 189 C 171.499 192.025, 172.354 197.200, 172.873 200.500 C 175.116 214.754, 177.062 220.193, 181.467 224.513 C 183.573 226.578, 187.982 229, 189.636 229 C 190.575 229, 192.214 229.788, 193.278 230.750 C 194.972 232.281, 197.091 232.466, 210.213 232.228 C 218.462 232.079, 225.952 231.580, 226.856 231.119 C 227.760 230.659, 230.032 229.991, 231.905 229.635 C 235.783 228.898, 238 227.365, 238 225.420 C 238 224.446, 235.902 224.005, 230.250 223.792 C 222.033 223.482, 220.629 222.392, 225.528 220.124 C 229.564 218.256, 238.417 212.427, 239.671 210.812 C 241.696 208.204, 243.212 200.216, 242.491 195.950 C 241.220 188.422, 230.137 178.923, 217.500 174.527 C 214.750 173.571, 211.419 172.274, 210.099 171.644 C 208.698 170.977, 202.553 170.500, 195.349 170.500 C 186.463 170.500, 183 170.166, 183 169.309 C 183 168.654, 183.450 167.840, 184 167.500 C 185.401 166.634, 185.251 159.651, 183.800 158.200 C 182.062 156.462, 180.566 156.716, 178.405 159.115 M 29 166.122 C 29 167.896, 29.247 168.040, 30.500 167 C 31.325 166.315, 32 165.360, 32 164.878 C 32 164.395, 31.325 164, 30.500 164 C 29.638 164, 29 164.902, 29 166.122 M 106 168.969 C 106 170.308, 106.480 170.753, 107.500 170.362 C 108.325 170.045, 109 169.159, 109 168.393 C 109 167.627, 108.325 167, 107.500 167 C 106.675 167, 106 167.885, 106 168.969 M 268 170.559 C 268 171.416, 268.457 171.835, 269.016 171.490 C 269.575 171.144, 269.774 170.443, 269.457 169.931 C 268.600 168.544, 268 168.802, 268 170.559 M 181.261 178.817 C 179.974 179.635, 180.217 181.758, 183.517 198.500 C 184.275 202.350, 185.177 208.208, 185.519 211.519 C 185.865 214.860, 186.934 218.586, 187.921 219.895 C 189.602 222.123, 190.264 222.244, 200.099 222.115 C 209.981 221.985, 210.874 221.792, 217.992 218.239 C 226.347 214.069, 227.747 212.888, 230.205 207.935 C 232.615 203.078, 232.970 194.004, 230.750 193.995 C 230.063 193.993, 228.150 192.755, 226.500 191.245 C 224.850 189.735, 222.150 187.896, 220.500 187.157 C 218.850 186.419, 216.226 185.182, 214.669 184.407 C 213.112 183.633, 210.930 183, 209.820 183 C 208.710 183, 206.253 182.265, 204.360 181.366 C 201.844 180.172, 199.223 179.869, 194.621 180.238 C 190.382 180.579, 187.536 180.307, 185.912 179.407 C 183.053 177.823, 182.864 177.799, 181.261 178.817 M 29 180.583 C 29 182.349, 31.153 182.042, 31.771 180.188 C 31.989 179.534, 31.454 179, 30.583 179 C 29.712 179, 29 179.713, 29 180.583 M 269 186.941 C 269 188.073, 269.450 189, 270 189 C 270.550 189, 271 188.352, 271 187.559 C 271 186.766, 270.550 185.840, 270 185.500 C 269.450 185.160, 269 185.809, 269 186.941 M 28.638 192.500 C 28.322 193.325, 28.499 194, 29.031 194 C 29.564 194, 30 193.325, 30 192.500 C 30 191.675, 29.823 191, 29.607 191 C 29.391 191, 28.955 191.675, 28.638 192.500 M 269 193 C 269 193.550, 269.675 194, 270.500 194 C 271.325 194, 272 193.550, 272 193 C 272 192.450, 271.325 192, 270.500 192 C 269.675 192, 269 192.450, 269 193 M 37.146 203.579 C 36.140 205.786, 36.262 206, 38.521 206 C 40.287 206, 41 205.455, 41 204.107 C 41 201.178, 38.402 200.822, 37.146 203.579 M 66.137 201.894 C 64.986 202.623, 64.986 202.829, 66.137 203.216 C 68.079 203.869, 71.081 202.940, 70.430 201.886 C 69.740 200.770, 67.906 200.774, 66.137 201.894 M 273 223.441 C 273 224.298, 273.450 225, 274 225 C 274.550 225, 275 224.577, 275 224.059 C 275 223.541, 274.550 222.840, 274 222.500 C 273.450 222.160, 273 222.584, 273 223.441 M 73.571 224.571 C 72.707 225.436, 72 226.348, 72 226.598 C 72 228.189, 90.929 247, 92.529 247 C 92.867 247, 93.818 247.675, 94.643 248.500 C 95.468 249.325, 97.204 250, 98.500 250 C 99.796 250, 101.452 250.594, 102.179 251.321 C 103.864 253.006, 112.565 255.989, 115.928 256.035 C 117.343 256.055, 119.506 256.630, 120.736 257.313 C 123.749 258.987, 130.013 258.269, 133.037 255.903 C 135.343 254.098, 135.389 253.889, 133.749 252.626 C 132.786 251.885, 130.926 251.483, 129.616 251.733 C 128.306 251.983, 126.930 251.696, 126.558 251.094 C 126.186 250.492, 124.515 250, 122.845 250 C 121.175 250, 118.614 249.388, 117.154 248.639 C 115.694 247.891, 111.350 245.778, 107.500 243.944 C 99.374 240.074, 94.869 236.853, 86.337 228.810 C 79.849 222.694, 76.545 221.597, 73.571 224.571 M 276.158 237 C 276.158 238.375, 276.385 238.938, 276.662 238.250 C 276.940 237.563, 276.940 236.438, 276.662 235.750 C 276.385 235.063, 276.158 235.625, 276.158 237 M 275.250 250.718 C 274.563 250.965, 274 251.981, 274 252.976 C 274 254.921, 275.725 255.976, 277.750 255.269 C 278.438 255.030, 279 254.251, 279 253.539 C 279 251.810, 276.806 250.159, 275.250 250.718" stroke="none" fill="black" fill-rule="evenodd"/>
</svg>