<svg xmlns="http://www.w3.org/2000/svg" width="300" height="300" viewBox="0 0 300 300" version="1.1">
	<path d="M 96.500 25.417 C 94.850 26.154, 92.305 28.049, 90.845 29.628 C 88.462 32.205, 86.916 34.770, 80.373 47 C 79.343 48.925, 78.162 50.650, 77.750 50.833 C 77.338 51.017, 77 51.766, 77 52.498 C 77 53.231, 75.052 55.556, 72.670 57.665 C 70.289 59.774, 67.476 62.843, 66.420 64.483 C 65.364 66.124, 62.813 69.162, 60.750 71.233 C 58.688 73.305, 57 75.517, 57 76.149 C 57 76.781, 55.463 78.791, 53.585 80.615 C 51.183 82.947, 50.327 84.536, 50.701 85.966 C 50.994 87.085, 51.674 88, 52.212 88 C 53.575 88, 59 84.717, 59 83.893 C 59 83.521, 60.171 82.923, 61.602 82.564 C 63.033 82.205, 65.621 80.583, 67.352 78.960 C 70.292 76.204, 76 74.800, 76 76.832 C 76 77.763, 84.599 83.538, 87.760 84.730 C 91.136 86.003, 99 93.088, 98.996 94.853 C 98.989 97.946, 95.083 102.917, 91.038 104.980 C 87.797 106.634, 84.084 107.199, 72.249 107.838 C 64.137 108.276, 56.444 108.261, 55.153 107.805 C 52.103 106.727, 45.824 108.432, 43.538 110.959 C 41.016 113.745, 42.237 116, 46.269 116 C 48.101 116, 50.028 116.418, 50.550 116.928 C 53.221 119.537, 78.692 117.869, 82.164 114.857 C 83.785 113.452, 84.626 113.275, 85.650 114.125 C 87.544 115.696, 87.333 117.602, 84.963 120.327 C 82.453 123.215, 74 136.710, 74 137.831 C 74 138.280, 72.425 140.863, 70.500 143.571 C 68.575 146.278, 67 149.020, 67 149.663 C 67 150.307, 66.639 150.983, 66.197 151.167 C 64.993 151.666, 51.816 171.906, 49.721 176.472 C 48.719 178.657, 47.550 180.682, 47.124 180.972 C 46.698 181.263, 44.474 184.284, 42.181 187.686 C 38.727 192.811, 37.469 193.926, 34.848 194.186 C 32.156 194.453, 31.244 195.321, 28.736 200 C 27.115 203.025, 24.898 206.341, 23.809 207.369 C 22.519 208.586, 22.028 209.980, 22.401 211.369 C 22.715 212.541, 22.979 213.838, 22.986 214.250 C 22.994 214.662, 24.764 215, 26.921 215 C 30.327 215, 31.750 214.179, 37.755 208.750 C 41.557 205.313, 45.679 201.069, 46.915 199.320 C 48.150 197.571, 50.590 194.646, 52.337 192.820 C 54.083 190.994, 56.079 188.375, 56.772 187 C 57.465 185.625, 59.341 182.475, 60.941 180 C 62.542 177.525, 64.731 173.901, 65.807 171.947 C 68.614 166.848, 80.264 151, 81.206 151 C 81.643 151, 82 150.100, 82 149 C 82 147.900, 82.450 147, 83 147 C 83.550 147, 84 146.487, 84 145.860 C 84 144.097, 88.251 136, 89.177 136 C 89.630 136, 90 135.350, 90 134.556 C 90 133.761, 91.043 131.899, 92.317 130.418 C 94.499 127.881, 94.848 127.795, 98.317 128.940 C 100.343 129.608, 102 130.795, 102 131.578 C 102 133.542, 100.330 133.361, 98.983 131.250 C 98.083 129.839, 97.979 130.178, 98.447 133 C 98.796 135.100, 100.022 137.233, 101.514 138.333 C 104.647 140.644, 104.644 142.202, 101.500 145.595 C 100.125 147.078, 99 149.145, 99 150.188 C 99 151.231, 98.542 152.628, 97.981 153.292 C 93.915 158.114, 93 159.466, 93 160.653 C 93 161.394, 92.550 162, 92 162 C 91.450 162, 91 162.643, 91 163.429 C 91 164.214, 90.432 165.452, 89.738 166.179 C 89.044 166.905, 87.912 168.625, 87.221 170 C 86.531 171.375, 84.633 174.300, 83.005 176.500 C 81.377 178.700, 79.085 182.300, 77.913 184.500 C 76.741 186.700, 75.432 188.725, 75.004 189 C 74.577 189.275, 71.486 193.202, 68.135 197.726 C 60.307 208.298, 55.522 217.958, 56.393 221.431 C 57.306 225.067, 60.392 224.720, 62.875 220.702 C 63.996 218.889, 66.722 215.951, 68.933 214.174 C 74.526 209.680, 87.431 192.943, 90.657 186 C 91.040 185.175, 91.618 184.275, 91.941 184 C 92.263 183.725, 93.760 181.025, 95.266 178 C 98.470 171.564, 102.270 164.728, 103.042 164.006 C 103.340 163.728, 104.915 160.693, 106.542 157.263 C 108.225 153.714, 110.146 151.023, 111 151.019 C 112.836 151.011, 116 156.330, 116 159.426 C 116 161.959, 113.159 165, 110.794 165 C 108.709 165, 107.509 166.646, 105.686 172 C 104.843 174.475, 102.994 178.661, 101.577 181.303 C 100.160 183.945, 99 186.702, 99 187.430 C 99 188.159, 98.325 189.315, 97.500 190 C 96.675 190.685, 96 191.886, 96 192.670 C 96 193.454, 94.973 195.087, 93.717 196.298 C 91.267 198.662, 88.689 202.401, 85.649 208 C 84.604 209.925, 83.468 211.725, 83.123 212 C 82.779 212.275, 81.863 213.730, 81.088 215.233 C 80.314 216.736, 78.906 218.797, 77.961 219.812 C 77.015 220.827, 75.006 223.647, 73.497 226.079 C 71.987 228.510, 69.456 231.714, 67.871 233.198 C 66.286 234.682, 64.544 237.068, 64 238.501 C 63.155 240.721, 63.398 241.465, 65.651 243.552 C 68.943 246.603, 71.990 246.671, 74.451 243.750 C 75.493 242.512, 78.293 239.258, 80.673 236.517 C 83.053 233.777, 85 231.141, 85 230.661 C 85 229.928, 90.286 222.606, 91.974 221 C 92.263 220.725, 93.396 218.700, 94.490 216.500 C 95.585 214.300, 96.858 212.227, 97.318 211.893 C 98.845 210.786, 114 180.916, 114 179.014 C 114 176.484, 117.162 172, 118.946 172 C 121.388 172, 122.108 175.266, 121.851 185.190 C 121.720 190.277, 122.091 193.405, 122.949 194.438 C 124.892 196.779, 123.770 212.701, 120.304 231.979 C 118.833 240.163, 117.952 242.436, 113.856 248.620 C 111.247 252.560, 107.716 256.778, 106.009 257.994 C 103.204 259.991, 102.597 260.077, 99.703 258.885 C 96.138 257.418, 93.096 254.288, 93.011 252 C 92.981 251.175, 92.069 249.375, 90.985 248 C 89.512 246.131, 88.805 245.821, 88.184 246.773 C 87.197 248.287, 87.854 253.792, 89.115 254.571 C 89.602 254.872, 90 256.184, 90 257.486 C 90 261.627, 96.059 265.574, 104.507 266.937 C 113.212 268.341, 115.750 267.455, 120.500 261.353 C 125.136 255.398, 130 244.626, 130 240.312 C 130 238.968, 130.502 236.931, 131.116 235.784 C 132.477 233.241, 134.232 221.895, 134.067 216.710 C 134 214.625, 134.394 212.150, 134.942 211.210 C 135.642 210.009, 135.948 209.912, 135.970 210.883 C 136.065 215.204, 144.766 217.960, 150.608 215.519 C 152.651 214.666, 155.077 214.207, 156 214.500 C 156.923 214.793, 159.311 214.350, 161.307 213.516 C 163.303 212.682, 166.075 212, 167.468 212 C 168.861 212, 170 211.612, 170 211.137 C 170 210.161, 182.651 208.929, 184.681 209.708 C 185.406 209.986, 186 211.231, 186 212.475 C 186 215.168, 179.883 227.431, 177.019 230.480 C 175.909 231.662, 175 233.162, 175 233.814 C 175 234.467, 174.550 235, 174 235 C 173.450 235, 173 235.606, 173 236.347 C 173 237.087, 171.537 239.257, 169.750 241.168 C 167.962 243.080, 164.700 246.765, 162.500 249.357 C 160.300 251.950, 156.925 255.041, 155 256.228 C 151.195 258.573, 147 262.611, 147 263.929 C 147 265.624, 149.685 266.897, 152.052 266.323 C 153.398 265.996, 155.641 264.673, 157.036 263.382 C 158.431 262.091, 161.121 260.726, 163.014 260.347 C 164.907 259.969, 168.266 258.055, 170.478 256.095 C 177.418 249.944, 184 242.826, 184 241.470 C 184 240.753, 184.352 240.017, 184.782 239.833 C 186.263 239.202, 194.032 226.722, 194.567 224.113 C 195.411 220.003, 198.187 215, 199.622 215 C 201.473 215, 202.660 217.687, 203.475 223.723 C 204.066 228.097, 204.857 229.594, 208.340 232.931 C 217.529 241.732, 220.282 243.897, 225.772 246.639 C 228.923 248.213, 231.747 249.830, 232.049 250.234 C 232.351 250.638, 234.574 251.216, 236.990 251.520 C 239.405 251.823, 241.858 252.434, 242.441 252.878 C 243.023 253.321, 246.650 254.657, 250.500 255.846 C 259.607 258.659, 269.362 259.025, 273.904 256.724 C 275.776 255.776, 278.293 255, 279.499 255 C 280.704 255, 282.446 254.165, 283.370 253.143 C 284.814 251.548, 284.850 251.120, 283.625 250.104 C 282.534 249.198, 281.117 249.193, 277.586 250.083 C 275.048 250.722, 271.516 250.924, 269.736 250.532 C 267.956 250.140, 264.789 249.645, 262.698 249.433 C 260.607 249.221, 256.837 248.137, 254.321 247.024 C 251.805 245.911, 248.705 245, 247.432 245 C 246.159 245, 244.840 244.550, 244.500 244 C 244.160 243.450, 242.596 243, 241.024 243 C 239.453 243, 238.017 242.662, 237.833 242.250 C 237.650 241.838, 235.250 240.421, 232.500 239.102 C 229.750 237.783, 225.760 235.083, 223.633 233.102 C 216.547 226.501, 212.025 221.513, 212.012 220.284 C 212.006 219.615, 211.242 217.478, 210.315 215.534 C 208.982 212.739, 208.048 212, 205.846 212 C 203.783 212, 203.212 211.612, 203.638 210.500 C 204.057 209.410, 205.758 209.002, 209.857 209.008 C 215.371 209.017, 227.777 206.618, 231.236 204.875 C 232.191 204.394, 234.597 204, 236.582 204 C 238.567 204, 241.386 203.382, 242.846 202.627 C 244.306 201.872, 247.251 200.499, 249.392 199.576 C 253.242 197.915, 253.311 197.924, 255.946 200.449 C 259.249 203.612, 260.529 203.649, 262.504 200.635 C 265.670 195.802, 260.122 189.261, 253.757 190.323 C 251.966 190.621, 247.125 191.731, 243 192.788 C 228.173 196.587, 224.357 197.251, 214.860 197.686 L 205.220 198.128 205.702 191.314 C 206.477 180.349, 208.572 169.379, 210.309 167.187 C 211.154 166.121, 211.518 166.174, 212.243 167.469 C 213.381 169.502, 219.297 168.659, 223.210 165.907 C 224.700 164.858, 226.982 164, 228.281 164 C 231.961 164, 240 160.953, 240 159.559 C 240 157.270, 235.938 156.359, 229.604 157.227 C 214.337 159.321, 205.229 161.651, 198.674 165.140 C 197.669 165.675, 194.519 166.375, 191.674 166.696 C 188.828 167.017, 185.285 167.892, 183.800 168.640 C 182.314 169.388, 179.123 170, 176.708 170 C 172.476 170, 172.274 169.859, 171.158 166.134 C 170.521 164.008, 170 159.733, 170 156.634 C 170 151.249, 170.114 151, 172.571 151 C 173.986 151, 175.864 150.279, 176.745 149.397 C 177.871 148.271, 179.379 147.962, 181.815 148.357 C 183.721 148.667, 186.229 148.412, 187.388 147.792 C 188.547 147.172, 191.521 146.554, 193.997 146.420 C 201.238 146.025, 221.321 143.353, 223.500 142.493 C 224.600 142.059, 226.963 140.623, 228.750 139.301 C 230.563 137.961, 232 137.421, 232 138.081 C 232 139.911, 239.957 138.487, 242.186 136.259 C 243.329 135.116, 243.822 133.700, 243.432 132.683 C 242.574 130.448, 232.010 130.374, 225.876 132.559 C 222.761 133.669, 218.618 134.038, 211.500 133.842 C 206 133.690, 200.929 133.920, 200.231 134.354 C 199.534 134.787, 196.384 135.347, 193.231 135.598 C 190.079 135.849, 184.062 136.397, 179.860 136.814 C 175.659 137.232, 171.721 137.407, 171.110 137.203 C 170.421 136.974, 170 133.824, 170 128.895 C 170 121.167, 170.073 120.928, 172.750 119.866 C 174.262 119.266, 176.625 118.201, 178 117.501 C 179.375 116.800, 182.525 115.900, 185 115.500 C 187.475 115.101, 189.950 114.435, 190.500 114.020 C 191.050 113.605, 193.975 112.958, 197 112.581 C 203.719 111.745, 209.670 110.231, 213 108.512 C 215.291 107.330, 223.675 106.908, 242.460 107.030 C 249.915 107.079, 252.004 108.696, 251.989 114.405 C 251.970 121.306, 248.423 139.245, 246.150 143.938 C 244.967 146.379, 244 148.818, 244 149.359 C 244 149.900, 243.281 151.137, 242.402 152.108 C 240.091 154.661, 241.495 156, 246.482 156 C 249.943 156, 251.431 155.413, 253.673 153.165 C 258.393 148.432, 261.871 135.125, 262.699 118.638 C 263.326 106.162, 262.085 103.389, 254.060 99.319 C 248.779 96.642, 247.847 96.504, 235.500 96.570 C 228.350 96.609, 220.700 96.895, 218.500 97.207 C 213.182 97.961, 204.221 99.811, 200.500 100.924 C 198.850 101.417, 195.004 102.079, 191.953 102.395 L 186.406 102.970 185.284 97.235 C 183.354 87.376, 181.817 73.152, 182.461 71.122 C 183.369 68.261, 186.651 66.479, 195.549 64.017 C 204.295 61.596, 207.166 59.766, 205.239 57.839 C 204.341 56.941, 203.146 56.939, 200.166 57.832 C 194.789 59.443, 182.037 59.386, 181.879 57.750 C 181.729 56.193, 181.803 54.732, 182.612 43.390 C 183.429 31.931, 182.079 30.401, 178.346 38.555 C 176.911 41.691, 174.950 44.462, 173.990 44.713 C 172.592 45.078, 172.105 46.756, 171.551 53.112 C 170.627 63.704, 169.299 65, 159.370 65 C 155.382 65, 151.876 65.392, 151.580 65.871 C 151.284 66.350, 149.739 67.002, 148.147 67.321 C 144.286 68.093, 143.642 70.272, 146.345 73.418 C 148.273 75.662, 149.345 75.998, 154.532 75.985 C 159.953 75.971, 165.668 74.662, 168.637 72.753 C 170.464 71.578, 171.702 74.075, 172.477 80.500 C 172.874 83.800, 173.492 86.950, 173.850 87.500 C 174.624 88.691, 177.027 99.458, 177.305 102.979 C 177.475 105.143, 176.928 105.594, 173 106.524 C 164.333 108.577, 158.873 112.290, 157.706 116.925 C 157.370 118.258, 157.532 125.233, 158.066 132.425 C 158.600 139.616, 159.260 148.644, 159.533 152.488 C 159.806 156.331, 160.743 162.016, 161.614 165.122 C 163.077 170.335, 163.070 170.963, 161.528 173.317 C 158.991 177.189, 160.801 179.659, 166.734 180.417 C 173.127 181.235, 180.913 180.950, 181.579 179.873 C 181.875 179.393, 182.879 178.997, 183.809 178.994 C 184.739 178.990, 186.789 178.315, 188.364 177.494 C 189.940 176.672, 191.668 176, 192.205 176 C 193.327 176, 192.920 196.419, 191.776 197.560 C 191.377 197.957, 186.427 198.642, 180.776 199.082 C 175.124 199.522, 168.475 200.385, 166 201.001 C 163.525 201.617, 157.049 202.762, 151.610 203.545 C 145.831 204.376, 140.323 205.792, 138.360 206.950 C 136.512 208.040, 134.990 208.610, 134.979 208.216 C 134.245 183.362, 131.370 166.493, 125.738 154 C 123.388 148.786, 117.538 139.413, 115.315 137.298 C 114.042 136.087, 112.979 134.737, 112.954 134.298 C 112.928 133.859, 111.149 132.150, 109 130.500 C 106.851 128.850, 105.072 127.119, 105.046 126.654 C 105.021 126.189, 104.056 124.483, 102.902 122.863 C 100.530 119.531, 100.885 116.233, 104.049 112.210 C 105.108 110.864, 107.603 106.328, 109.594 102.131 C 116.875 86.779, 117.507 85.491, 118.001 85 C 118.277 84.725, 119.112 83.150, 119.857 81.500 C 123.677 73.033, 124.665 71.226, 127.223 68.022 C 129.258 65.474, 130 63.431, 130 60.379 C 130 55.872, 129.021 55, 123.959 55 C 121.199 55, 116 59.188, 116 61.411 C 116 61.923, 115.392 63.053, 114.649 63.921 C 113.906 64.790, 112.539 67.975, 111.611 71 C 108.620 80.744, 105.988 85, 102.952 85 C 101.996 85, 100.962 84.344, 100.655 83.543 C 100.347 82.741, 98.387 80.998, 96.298 79.669 C 90.410 75.923, 82 67.650, 82 65.605 C 82 64.593, 83.351 62.226, 85.002 60.345 C 86.653 58.465, 89.173 54.618, 90.602 51.798 C 92.032 48.977, 95.631 43.441, 98.601 39.496 C 104.098 32.192, 105.391 27.791, 102.800 25.200 C 101.300 23.700, 100.268 23.735, 96.500 25.417 M 240.964 37.008 C 239.573 38.021, 237.774 38.813, 236.967 38.768 C 232.471 38.514, 232 38.940, 232 43.259 C 232 48.357, 230.658 49.447, 223.101 50.486 C 216.562 51.386, 213.688 53.853, 214.623 57.765 C 214.982 59.269, 215.466 60.837, 215.697 61.250 C 216.369 62.448, 224.841 62.116, 226.932 60.810 C 229.835 58.998, 232.319 61.466, 231.589 65.436 C 231.280 67.121, 230.745 72.166, 230.401 76.647 C 229.824 84.169, 229.927 84.842, 231.747 85.420 C 232.831 85.764, 234.344 85.803, 235.109 85.507 C 237.629 84.532, 240.050 78.836, 240.587 72.618 C 241.784 58.767, 244.281 54, 250.336 54 C 252.216 54, 254.291 53.354, 254.947 52.564 C 255.602 51.775, 257.570 50.841, 259.319 50.490 C 264.246 49.500, 268.774 47.160, 270.483 44.720 C 271.895 42.705, 271.889 42.392, 270.419 41.317 C 269.333 40.523, 268.093 40.440, 266.650 41.063 C 265.468 41.574, 261.350 42.401, 257.500 42.902 C 253.650 43.402, 249.488 44.131, 248.250 44.522 C 246.174 45.178, 246 44.925, 246 41.239 C 246 36.008, 244.299 34.579, 240.964 37.008 M 217.250 103.250 C 217.479 103.938, 218.492 104.500, 219.500 104.500 C 220.508 104.500, 221.521 103.938, 221.750 103.250 C 222.014 102.458, 221.189 102, 219.500 102 C 217.811 102, 216.986 102.458, 217.250 103.250 M 230.473 102.956 C 230.798 103.482, 231.725 103.659, 232.532 103.349 C 234.599 102.556, 234.356 102, 231.941 102 C 230.809 102, 230.148 102.430, 230.473 102.956 M 202.500 105 C 202.160 105.550, 201.009 106, 199.941 106 C 198.873 106, 198 106.450, 198 107 C 198 107.550, 199.125 108, 200.500 108 C 201.875 108, 203 107.561, 203 107.025 C 203 106.478, 204.298 106.310, 205.955 106.641 C 207.972 107.044, 209.424 106.719, 210.527 105.616 C 212.015 104.128, 211.786 104, 207.630 104 C 205.149 104, 202.840 104.450, 202.500 105 M 187.750 107.689 C 184.235 108.608, 185.986 110.564, 190.500 110.761 C 194.383 110.930, 195 110.685, 195 108.978 C 195 106.988, 192.282 106.505, 187.750 107.689 M 178 111.559 C 178 112.416, 178.457 112.835, 179.016 112.490 C 179.575 112.144, 179.774 111.443, 179.457 110.931 C 178.600 109.544, 178 109.802, 178 111.559 M 83.638 131.500 C 83.322 132.325, 83.499 133, 84.031 133 C 84.564 133, 85 132.325, 85 131.500 C 85 130.675, 84.823 130, 84.607 130 C 84.391 130, 83.955 130.675, 83.638 131.500 M 254 133.059 C 254 133.641, 254.450 133.840, 255 133.500 C 255.550 133.160, 256 132.684, 256 132.441 C 256 132.198, 255.550 132, 255 132 C 254.450 132, 254 132.477, 254 133.059 M 195.446 139.087 C 194.411 140.761, 196.552 142.277, 198.899 141.532 C 201.834 140.601, 201.583 138, 198.559 138 C 197.216 138, 195.816 138.489, 195.446 139.087 M 171.500 144 C 171.160 144.550, 171.359 145, 171.941 145 C 172.523 145, 173 144.550, 173 144 C 173 143.450, 172.802 143, 172.559 143 C 172.316 143, 171.840 143.450, 171.500 144 M 71 152 C 71 152.550, 71.423 153, 71.941 153 C 72.459 153, 73.160 152.550, 73.500 152 C 73.840 151.450, 73.416 151, 72.559 151 C 71.702 151, 71 151.450, 71 152 M 63.609 162.473 C 62.724 163.824, 62 165.395, 62 165.965 C 62 166.534, 61.401 167, 60.669 167 C 59.261 167, 57.554 169.851, 56.477 174 C 56.014 175.784, 56.855 175.089, 59.414 171.574 C 61.386 168.865, 63 166.052, 63 165.324 C 63 164.596, 63.627 164, 64.393 164 C 66.013 164, 67.313 161.312, 66.066 160.541 C 65.600 160.253, 64.495 161.122, 63.609 162.473 M 198 169.500 C 198 170.417, 198.484 171.005, 199.075 170.808 C 199.666 170.611, 200.150 170.022, 200.150 169.500 C 200.150 168.978, 199.666 168.389, 199.075 168.192 C 198.484 167.995, 198 168.583, 198 169.500 M 49.211 185.601 C 48.501 186.370, 48.362 187, 48.902 187 C 49.940 187, 51.443 185.098, 50.850 184.534 C 50.658 184.351, 49.920 184.831, 49.211 185.601 M 77.694 191.639 C 76.895 192.438, 77.798 194, 79.059 194 C 79.577 194, 80 193.325, 80 192.500 C 80 190.954, 78.820 190.513, 77.694 191.639 M 207 202.378 C 207 206.408, 214.256 207.218, 214.820 203.250 C 215.106 201.233, 214.718 201, 211.070 201 C 208.280 201, 207 201.433, 207 202.378 M 174.250 203.662 C 173.563 203.940, 173 204.610, 173 205.153 C 173 206.560, 177.261 205.751, 177.755 204.250 C 178.169 202.993, 176.572 202.725, 174.250 203.662 M 165.442 206.906 C 165.750 207.404, 166.902 207.577, 168.001 207.289 C 170.753 206.570, 170.505 206, 167.441 206 C 166.034 206, 165.134 206.408, 165.442 206.906 M 75.980 231.250 C 75.055 233.159, 75.088 233.259, 76.195 231.912 C 76.913 231.039, 78.175 230.062, 79 229.741 C 80.216 229.268, 80.175 229.143, 78.785 229.079 C 77.842 229.036, 76.580 230.012, 75.980 231.250 M 119 249.969 C 119 250.501, 119.675 250.678, 120.500 250.362 C 121.325 250.045, 122 249.609, 122 249.393 C 122 249.177, 121.325 249, 120.500 249 C 119.675 249, 119 249.436, 119 249.969 M 116.667 252.667 C 115.449 253.885, 115.978 256, 117.500 256 C 118.333 256, 119 255.111, 119 254 C 119 252.008, 117.934 251.399, 116.667 252.667" stroke="none" fill="black" fill-rule="evenodd"/>
</svg>