<svg xmlns="http://www.w3.org/2000/svg" width="300" height="300" viewBox="0 0 300 300" version="1.1">
	<path d="M 201.907 17.260 C 199.248 19.331, 198.024 25.030, 198.156 34.728 C 198.296 44.997, 197.442 47, 192.925 47 C 187.404 47, 182.688 51.068, 184.607 54.174 C 185.338 55.355, 192 55.199, 192 54 C 192 53.450, 193.188 53, 194.641 53 L 197.282 53 196.631 61.250 C 196.274 65.787, 195.546 71.975, 195.015 75 C 194.483 78.025, 193.751 82.975, 193.388 86 C 192.502 93.383, 191.536 95, 188.012 95 C 186.407 95, 184.060 95.398, 182.797 95.885 C 178.945 97.370, 166.767 100.073, 162 100.502 C 147.048 101.847, 140 103.709, 140 106.312 C 140 106.769, 139.325 107.818, 138.500 108.643 C 137.675 109.468, 137 110.786, 137 111.571 C 137 113.406, 140.401 113.427, 141.916 111.601 C 142.554 110.832, 144.747 109.961, 146.788 109.666 C 148.830 109.371, 152.750 108.627, 155.500 108.014 C 158.250 107.400, 164.100 106.472, 168.500 105.952 C 180.535 104.530, 186.680 102.248, 182.750 100.662 C 182.003 100.361, 182.205 100.126, 183.250 100.079 C 184.213 100.036, 185 100.675, 185 101.500 C 185 102.325, 185.450 103, 186 103 C 188.298 103, 186.875 108.424, 183.750 111.575 C 176.168 119.221, 174 122.073, 174 124.400 C 174 125.806, 172.965 127.669, 171.579 128.759 C 170.247 129.807, 167.719 133.327, 165.961 136.582 C 164.203 139.837, 161.355 144.117, 159.633 146.093 C 157.910 148.069, 155.825 150.546, 155 151.597 C 154.175 152.647, 152.037 155.370, 150.250 157.647 C 148.463 159.925, 146.992 162.173, 146.982 162.644 C 146.958 163.784, 142.071 170.939, 139.250 173.964 C 138.012 175.291, 137 176.757, 137 177.221 C 137 178.587, 126.138 193.686, 122.345 197.592 C 118.842 201.199, 118.560 203.510, 121.485 204.633 C 125.650 206.231, 137.392 196.286, 144.485 185.152 C 146.641 181.768, 148.763 179, 149.202 179 C 149.641 179, 150 178.325, 150 177.500 C 150 176.675, 150.420 176, 150.933 176 C 151.446 176, 152.135 175.150, 152.465 174.111 C 152.794 173.073, 154.062 171.120, 155.282 169.772 C 156.502 168.424, 158.366 165.787, 159.425 163.911 C 160.483 162.035, 161.639 160.275, 161.994 160 C 162.348 159.725, 163.660 157.363, 164.908 154.750 C 167.433 149.467, 167.983 149.143, 169.714 151.913 C 170.570 153.285, 170.777 158.737, 170.444 171.163 C 169.733 197.731, 169.762 233.181, 170.507 246.368 C 170.944 254.093, 170.783 259.804, 170.047 262.727 C 169.211 266.047, 169.208 268.101, 170.036 270.609 C 171.040 273.650, 171.534 273.998, 174.828 273.985 C 176.847 273.976, 179.029 273.633, 179.676 273.221 C 180.555 272.662, 180.861 257.451, 180.888 212.987 C 180.908 180.269, 180.867 151.925, 180.796 150 C 180.582 144.127, 182.086 131.649, 183.328 129 C 184.561 126.370, 185.512 124.998, 188.038 122.202 C 188.884 121.266, 190.865 118.700, 192.441 116.500 C 196.223 111.220, 210.022 98, 211.751 98 C 214.657 98, 237.306 86.931, 238.564 84.896 C 238.869 84.403, 239.922 84, 240.904 84 C 242.924 84, 246.282 80.689, 246.623 78.360 C 246.949 76.142, 248 75.358, 248 77.333 C 248 79.374, 249.847 79.430, 252.441 77.468 C 253.509 76.661, 255.127 76, 256.036 76 C 257.606 76, 261 73.065, 261 71.706 C 261 68.209, 247.365 69.653, 243.106 73.602 C 241.785 74.827, 238.858 76.592, 236.602 77.523 C 234.346 78.454, 231.245 79.878, 229.712 80.687 C 228.178 81.496, 225.748 82.768, 224.311 83.514 C 222.875 84.259, 221.362 85.414, 220.951 86.080 C 220.160 87.359, 217 86.664, 217 85.211 C 217 84.743, 218.350 82.848, 220 81 C 221.650 79.152, 223 77.334, 223 76.960 C 223 76.586, 224.463 74.706, 226.250 72.782 C 231.219 67.433, 234 63.692, 234 62.356 C 234 61.690, 235.064 60.308, 236.365 59.285 C 237.666 58.261, 239.021 56.508, 239.377 55.388 C 239.732 54.269, 240.805 52.486, 241.761 51.426 C 242.718 50.367, 245.223 46.866, 247.329 43.647 C 250.781 38.369, 251.044 37.519, 249.999 34.997 C 249.362 33.459, 248.978 31.368, 249.145 30.350 C 249.595 27.622, 248.273 26.116, 245.960 26.721 C 243.172 27.450, 238.317 34.769, 237.442 39.563 C 236.743 43.392, 234.194 47.950, 231.047 51 C 230.196 51.825, 227.253 55.425, 224.506 59 C 219.295 65.782, 217.182 68.448, 215.499 70.362 C 214.948 70.988, 213.373 73.184, 211.999 75.243 C 210.624 77.302, 209.162 78.989, 208.750 78.993 C 208.338 78.997, 208 79.675, 208 80.500 C 208 81.365, 207.096 82, 205.864 82 C 203.882 82, 203.780 81.657, 204.443 77.250 C 205.380 71.028, 207.022 59.535, 207.692 54.500 C 208.360 49.486, 209.542 48.002, 212.872 47.994 C 214.318 47.990, 216.655 47.385, 218.067 46.648 C 219.478 45.912, 221.803 45.015, 223.233 44.656 C 226.272 43.894, 234 37.252, 234 35.403 C 234 34.706, 233.163 33.869, 232.141 33.545 C 230.030 32.875, 227 33.780, 227 35.081 C 227 37.265, 213.384 41.574, 209.938 40.480 C 208.267 39.950, 208.032 38.609, 207.781 28.193 C 207.521 17.354, 207.354 16.482, 205.500 16.260 C 204.400 16.128, 202.783 16.578, 201.907 17.260 M 255.813 26.683 C 256.534 26.972, 257.397 26.936, 257.729 26.604 C 258.061 26.272, 257.471 26.036, 256.417 26.079 C 255.252 26.127, 255.015 26.364, 255.813 26.683 M 73.750 47.716 C 72.237 47.945, 71 48.553, 71 49.066 C 71 49.580, 70.362 50, 69.583 50 C 68.804 50, 68.017 50.358, 67.833 50.795 C 67.352 51.943, 59.218 56, 57.398 56 C 56.550 56, 55.227 56.630, 54.456 57.401 C 53.256 58.602, 53.266 58.976, 54.528 60.023 C 55.338 60.695, 56 61.838, 56 62.563 C 56 63.289, 56.453 64.162, 57.006 64.504 C 58.904 65.677, 71.931 60.573, 75.903 57.101 C 80.331 53.230, 85.349 54.606, 89.161 60.737 C 94.672 69.602, 95.950 77.136, 96.280 102.726 L 96.529 121.953 94.014 122.895 C 83.449 126.855, 81.827 127.228, 77.895 126.599 C 74.740 126.095, 72.723 126.440, 69.385 128.055 C 61.427 131.908, 62.839 133.453, 75.199 134.417 C 82.751 135.007, 84.492 134.826, 88.395 133.048 C 90.867 131.922, 93.406 131, 94.036 131 C 94.864 131, 95.012 133.982, 94.571 141.750 C 94.234 147.662, 93.992 155.321, 94.033 158.768 C 94.116 165.797, 92.990 167.652, 88.037 168.643 C 86.344 168.981, 84.716 169.650, 84.420 170.129 C 84.124 170.608, 82.832 171, 81.548 171 C 80.264 171, 78.981 171.608, 78.695 172.352 C 78.410 173.096, 76.131 173.984, 73.631 174.327 C 71.131 174.670, 66.290 175.892, 62.875 177.042 C 56.957 179.036, 56.516 179.055, 53.521 177.441 C 51.791 176.510, 49.887 174.567, 49.288 173.124 C 47.611 169.084, 46.870 146.593, 48.081 136.500 C 48.675 131.550, 49.552 124.125, 50.029 120 C 50.506 115.875, 51.399 109.125, 52.014 105 C 53.591 94.407, 52.967 77.819, 50.914 75.768 C 46.174 71.036, 35.836 72.607, 35.193 78.157 C 34.866 80.980, 37.926 84, 41.116 84 C 42.034 84, 43.109 84.787, 43.503 85.750 C 44.353 87.826, 44.978 116.087, 44.203 117.423 C 43.909 117.931, 43.573 119.506, 43.456 120.923 C 43.340 122.341, 42.749 127.325, 42.144 132 C 41.538 136.675, 41.262 145.900, 41.530 152.500 C 41.798 159.100, 42.018 171.165, 42.019 179.310 C 42.021 191.514, 41.742 194.401, 40.433 195.710 C 38.980 197.163, 39.059 197.499, 41.346 199.620 C 43.215 201.353, 44.026 203.405, 44.548 207.720 C 44.932 210.899, 45.571 213.950, 45.968 214.500 C 47.866 217.131, 47.727 219.006, 45.438 221.668 C 42.581 224.989, 42.517 225.354, 44.500 227 C 45.537 227.860, 46.386 227.930, 47.250 227.224 C 47.938 226.663, 52.046 225.923, 56.379 225.581 C 60.712 225.239, 64.676 224.701, 65.186 224.385 C 67.062 223.226, 71 225.010, 71 227.019 C 71 228.109, 70.647 229, 70.216 229 C 69.784 229, 68.685 230.238, 67.772 231.750 C 66.860 233.262, 64.963 235.718, 63.557 237.206 C 62.151 238.695, 61 240.234, 61 240.628 C 61 241.021, 60.406 242.053, 59.680 242.921 C 58.955 243.790, 57.511 247.088, 56.473 250.250 C 55.435 253.412, 54.229 256, 53.793 256 C 53.357 256, 53 256.527, 53 257.171 C 53 257.815, 52.270 259.149, 51.379 260.134 C 49.483 262.229, 50.195 265, 52.629 265 C 54.538 265, 60 259.329, 60 257.347 C 60 255.409, 64.989 245.254, 66.597 243.919 C 67.369 243.279, 68 242.060, 68 241.211 C 68 239.713, 70.573 236.610, 76.250 231.261 C 78.321 229.309, 79 227.723, 79 224.835 C 79 221.537, 79.315 220.994, 81.250 220.957 C 82.487 220.933, 85.300 219.831, 87.500 218.508 C 94.815 214.110, 97.460 212.830, 102.250 211.370 C 107.397 209.802, 108.493 207.350, 105.422 204.279 C 104.519 203.376, 104.075 201.822, 104.383 200.644 C 104.717 199.365, 104.023 197.408, 102.550 195.476 C 100.697 193.047, 100.076 190.743, 99.709 184.934 C 98.726 169.368, 98.826 159.227, 100.040 151.500 C 101.378 142.986, 101.470 141.261, 102.523 104.933 C 103.008 88.173, 102.866 80.219, 102.023 77 C 101.375 74.525, 100.482 70.250, 100.039 67.500 C 99.201 62.297, 92.421 50.031, 90.372 50.011 C 89.752 50.005, 88.685 49.325, 88 48.500 C 86.784 47.035, 80.522 46.690, 73.750 47.716 M 178.527 48.956 C 178.166 49.540, 178.148 50.891, 178.487 51.958 C 179.302 54.526, 182.206 53.425, 181.803 50.701 C 181.460 48.389, 179.517 47.354, 178.527 48.956 M 44.718 62.292 C 44.425 63.056, 44.548 64.269, 44.992 64.986 C 46.113 66.801, 49.224 65.400, 48.812 63.265 C 48.397 61.106, 45.443 60.404, 44.718 62.292 M 224.500 66 C 224.160 66.550, 224.332 67, 224.882 67 C 225.432 67, 226.160 66.550, 226.500 66 C 226.840 65.450, 226.668 65, 226.118 65 C 225.568 65, 224.840 65.450, 224.500 66 M 99.079 99.583 C 99.127 100.748, 99.364 100.985, 99.683 100.188 C 99.972 99.466, 99.936 98.603, 99.604 98.271 C 99.272 97.939, 99.036 98.529, 99.079 99.583 M 161.349 104.250 C 161.092 104.662, 162.484 105, 164.441 105 C 166.398 105, 168 104.615, 168 104.144 C 168 103.101, 162.005 103.197, 161.349 104.250 M 132.177 106.553 C 132.629 108.725, 134.404 108.858, 134.810 106.750 C 135.020 105.655, 134.530 105, 133.500 105 C 132.539 105, 131.988 105.647, 132.177 106.553 M 216.500 146.975 C 212.650 147.333, 208.233 148.160, 206.685 148.813 C 203.310 150.236, 196.554 150.367, 194.106 149.057 C 191.429 147.624, 185.981 151.212, 186.694 153.938 C 187.453 156.839, 193.583 156.888, 194.500 154 C 195.393 151.187, 197 151.509, 197 154.500 C 197 157.469, 197.779 157.542, 207.500 155.483 C 211.349 154.667, 215.751 154, 217.282 154 C 218.812 154, 221.512 153.398, 223.282 152.661 C 226.911 151.151, 229 151.488, 229 153.583 C 229 154.363, 229.450 155, 230 155 C 230.550 155, 231 155.873, 231 156.941 C 231 158.009, 230.550 159.160, 230 159.500 C 228.696 160.306, 228.712 164.312, 230.023 165.623 C 231.085 166.685, 233.388 185.864, 233.190 192 C 232.997 197.991, 231.838 205.997, 231.153 206.068 C 229.686 206.220, 221.950 206.946, 213 207.770 C 207.775 208.251, 202.825 208.912, 202 209.239 C 201.175 209.566, 199.262 210.104, 197.750 210.436 C 196.238 210.767, 195 211.488, 195 212.038 C 195 212.603, 196.195 212.785, 197.750 212.456 C 200.042 211.971, 200.209 212.059, 198.750 212.987 C 195.492 215.058, 196.976 216, 203.500 216 C 209.767 216, 210 215.910, 210 213.500 C 210 211.019, 210.978 210.311, 212.416 211.750 C 212.829 212.162, 214.141 212.570, 215.333 212.656 C 216.525 212.742, 219.179 213.137, 221.231 213.534 C 223.899 214.050, 225.631 213.817, 227.313 212.715 C 231.778 209.789, 232.132 211.249, 232.046 232.259 C 231.985 247.214, 232.265 251.922, 233.233 252.247 C 235.495 253.007, 232.054 258, 229.269 258 C 227.116 258, 218.706 261.330, 213.500 264.243 C 212.400 264.859, 207.675 265.732, 203 266.184 C 198.325 266.636, 192.604 267.275, 190.286 267.604 C 183.929 268.508, 178.575 274.358, 182.813 275.771 C 183.466 275.989, 183.999 275.567, 183.998 274.833 C 183.996 273.824, 185.578 273.582, 190.498 273.835 C 194.832 274.059, 197 273.797, 197 273.050 C 197 272.223, 197.548 272.223, 199.091 273.049 C 200.656 273.886, 201.930 273.858, 204.158 272.934 C 205.997 272.173, 206.698 271.431, 205.991 270.995 C 205.277 270.553, 206.215 269.481, 208.485 268.141 C 212.612 265.706, 216 266.569, 216 270.054 C 216 271.704, 216.449 271.925, 218.665 271.369 C 220.130 271.002, 222.289 269.866, 223.463 268.845 C 226.165 266.495, 232.976 263, 234.851 263 C 236.764 263, 238.929 260.013, 238.968 257.320 C 238.990 255.832, 239.715 255.038, 241.250 254.820 C 243.498 254.500, 243.500 254.475, 243.835 231.500 C 244.568 181.086, 244.468 179.159, 240.333 164 C 237.799 154.712, 235.975 150.711, 233.181 148.308 C 230.339 145.864, 229.315 145.782, 216.500 146.975 M 163.813 147.683 C 164.534 147.972, 165.397 147.936, 165.729 147.604 C 166.061 147.272, 165.471 147.036, 164.417 147.079 C 163.252 147.127, 163.015 147.364, 163.813 147.683 M 233.775 164.558 C 232.760 165.573, 234.207 169, 235.652 169 C 236.803 169, 236.850 168.576, 235.900 166.750 C 234.399 163.866, 234.433 163.901, 233.775 164.558 M 84.750 178.716 C 83.237 178.945, 82 179.564, 82 180.091 C 82 182.723, 64.567 185.311, 55.250 184.062 C 50.685 183.450, 50 183.582, 50 185.072 C 50 186.015, 50.607 187.019, 51.348 187.303 C 52.347 187.687, 52.707 190.363, 52.741 197.660 C 52.787 207.614, 54.214 213.273, 57.330 215.859 C 59.266 217.466, 70.580 216.620, 74.500 214.576 C 76.150 213.716, 78.026 213.010, 78.669 213.006 C 80.152 212.998, 86.390 209.746, 86.833 208.750 C 87.017 208.338, 88.003 208, 89.024 208 C 90.046 208, 91.139 207.585, 91.452 207.077 C 91.766 206.569, 93.412 205.849, 95.110 205.476 C 98.153 204.808, 98.187 204.731, 97.510 200.149 C 97.132 197.592, 96.081 194.672, 95.175 193.660 C 94.067 192.423, 93.515 189.964, 93.491 186.160 C 93.439 177.907, 92.933 177.477, 84.750 178.716 M 174 191.083 C 174 193.520, 176.337 193.176, 176.823 190.667 C 177.015 189.680, 176.505 189, 175.573 189 C 174.646 189, 174 189.855, 174 191.083 M 188.309 212.636 C 187.461 214.848, 189.226 217.429, 191.857 217.820 C 194.768 218.253, 195.703 215.434, 193.466 212.963 C 191.303 210.572, 189.154 210.436, 188.309 212.636 M 76.007 241.250 C 76.018 245.152, 82.461 253, 85.653 253 C 86.394 253, 87 253.450, 87 254 C 87 254.550, 87.597 255, 88.326 255 C 89.055 255, 90.672 256.087, 91.921 257.415 C 93.169 258.744, 95.354 260.123, 96.777 260.480 C 98.201 260.837, 101.152 261.993, 103.336 263.048 C 105.520 264.104, 108.926 265.259, 110.904 265.615 C 112.882 265.972, 115.262 266.656, 116.193 267.136 C 118.240 268.192, 123 266.264, 123 264.380 C 123 263.665, 121.088 262.571, 118.750 261.949 C 112.351 260.246, 101.083 255.943, 100.483 254.973 C 100.193 254.502, 97.827 253.092, 95.227 251.838 C 92.627 250.585, 89.768 248.871, 88.873 248.030 C 84.923 244.318, 77.852 239, 76.865 239 C 76.389 239, 76.003 240.012, 76.007 241.250 M 237 248.417 C 237 251.899, 237.374 253, 238.557 253 C 239.768 253, 240.046 252.070, 239.807 248.828 C 239.368 242.861, 237 242.515, 237 248.417 M 219.500 267 C 219.840 267.550, 220.541 268, 221.059 268 C 221.577 268, 222 267.550, 222 267 C 222 266.450, 221.298 266, 220.441 266 C 219.584 266, 219.160 266.450, 219.500 267 M 190.460 270.065 C 189.620 271.423, 191.701 272.046, 194.106 271.156 C 196.375 270.317, 196.371 270.304, 193.675 269.789 C 192.177 269.502, 190.731 269.627, 190.460 270.065" stroke="none" fill="black" fill-rule="evenodd"/>
</svg>