<svg xmlns="http://www.w3.org/2000/svg" width="300" height="300" viewBox="0 0 300 300" version="1.1">
	<path d="M 151.195 13.265 C 150.618 13.960, 149.775 19.473, 149.323 25.515 C 148.548 35.856, 148.368 36.519, 146.250 36.820 C 143.889 37.155, 143.069 39, 145.282 39 C 145.987 39, 147.090 40.913, 147.734 43.250 C 149.277 48.854, 150.265 61.213, 149.279 62.577 C 148.850 63.170, 146.560 64.070, 144.190 64.577 C 141.819 65.085, 139.925 65.950, 139.981 66.500 C 140.095 67.626, 142.235 67.693, 146.142 66.693 C 148.551 66.076, 148.815 66.302, 149.142 69.258 C 149.339 71.041, 149.348 77.293, 149.162 83.151 L 148.824 93.802 140.162 94.381 C 135.398 94.699, 128.209 94.937, 124.187 94.909 C 116.202 94.855, 114 95.879, 114 99.647 C 114 102.325, 117.104 104, 122.065 104 C 124.333 104, 125 103.546, 125 102 C 125 99.534, 126.699 99.437, 129.341 101.750 C 131.044 103.241, 131.253 103.264, 130.760 101.903 C 130.282 100.587, 131.752 100.003, 139.087 98.592 C 143.986 97.649, 148.445 97.157, 148.997 97.498 C 150.106 98.184, 150.317 106.452, 149.370 112.178 C 148.625 116.680, 146.594 117.633, 135.750 118.567 C 130.483 119.021, 128 119.644, 128 120.510 C 128 122.465, 130.590 123.021, 132.653 121.509 C 133.669 120.764, 135.625 120.378, 137 120.650 C 138.375 120.923, 140.850 120.591, 142.500 119.912 C 147.421 117.890, 150.273 119.239, 149.261 123.111 C 148.830 124.759, 149.348 125, 153.324 125 C 158.306 125, 159.875 123.759, 157.900 121.380 C 156.869 120.137, 156.877 119.694, 157.942 119.036 C 159.518 118.062, 167.361 118.945, 167.833 120.150 C 168.419 121.645, 172 121.059, 172 119.469 C 172 117.147, 175.090 116.403, 176.534 118.377 C 177.365 119.514, 178.664 119.919, 180.445 119.596 C 182.401 119.241, 183.668 119.754, 185.206 121.522 C 186.359 122.847, 187.684 123.696, 188.151 123.407 C 189.514 122.565, 189.128 116.351, 187.637 115.113 C 186.770 114.394, 181.122 113.965, 172.137 113.937 L 158 113.892 158 108.601 C 158 102.829, 159.898 100, 163.770 100 C 164.931 100, 166.141 99.581, 166.457 99.069 C 167.394 97.554, 165.198 96.824, 163.093 97.950 C 160.890 99.129, 157.732 98.304, 158.270 96.689 C 158.465 96.104, 160.585 94.972, 162.982 94.173 C 167.035 92.822, 167.207 92.624, 165.448 91.338 C 164.408 90.578, 162.869 90.242, 162.029 90.591 C 156.486 92.896, 156.661 93.256, 157.445 81.164 C 158.457 65.551, 158.780 64.639, 163.570 63.866 C 177.252 61.657, 177.034 61.664, 178.287 63.365 C 179.244 64.666, 180.157 64.824, 182.616 64.115 C 187.161 62.805, 188.031 63.782, 186.518 68.500 C 185.812 70.700, 184.419 76.227, 183.422 80.782 C 182.230 86.223, 181.201 88.907, 180.420 88.608 C 179.766 88.357, 176.816 88.895, 173.865 89.803 C 169.149 91.255, 168.847 91.497, 171.364 91.805 C 173.200 92.029, 174.414 92.868, 174.748 94.143 C 175.199 95.870, 175.802 96.040, 179.345 95.442 C 183.663 94.712, 187 93.073, 187 91.681 C 187 91.221, 188.533 87.616, 190.406 83.672 C 192.279 79.727, 194.122 74.572, 194.500 72.215 C 194.878 69.859, 196.320 66.585, 197.704 64.940 C 199.570 62.722, 200.102 61.146, 199.763 58.837 C 199.511 57.124, 199.896 52.973, 200.618 49.611 C 202.412 41.256, 202.407 29.583, 200.610 28.091 C 199.536 27.200, 197.066 27.627, 189.755 29.969 C 184.549 31.637, 176.737 33.298, 172.395 33.662 C 168.053 34.025, 163.150 34.910, 161.500 35.629 C 158.689 36.853, 158.910 36.915, 165 36.626 C 168.575 36.456, 172.175 36.058, 173 35.741 C 173.825 35.425, 177.084 34.936, 180.241 34.656 C 184.786 34.253, 186.165 34.473, 186.860 35.714 C 187.342 36.576, 188.253 36.962, 188.885 36.571 C 189.516 36.181, 189.793 35.474, 189.500 34.999 C 189.206 34.525, 189.979 33.427, 191.217 32.560 C 193.290 31.109, 193.523 31.123, 194.164 32.742 C 195.875 37.066, 195.085 42.193, 191.043 53 C 189.421 57.335, 189.179 57.523, 184.430 58.121 C 181.718 58.462, 174.866 59.488, 169.201 60.400 C 163.537 61.312, 158.445 61.775, 157.887 61.430 C 157.280 61.055, 156.897 55.707, 156.935 48.151 C 157.016 31.866, 156.302 14.297, 155.505 13.008 C 154.644 11.615, 152.456 11.746, 151.195 13.265 M 151.407 29.047 C 151.900 36.087, 153 36.515, 153 29.667 C 153 26.550, 152.562 24, 152.027 24 C 151.477 24, 151.207 26.199, 151.407 29.047 M 128 37.029 C 118.336 37.995, 106.792 40.729, 105.803 42.285 C 104.467 44.387, 104.901 45.061, 108.584 46.600 C 111.901 47.986, 112.483 47.945, 116.400 46.049 C 119.108 44.737, 122.767 43.972, 126.566 43.921 C 129.830 43.878, 131.938 43.615, 131.250 43.338 C 130.563 43.060, 130 41.971, 130 40.917 C 130 38.710, 130.371 38.596, 132.764 40.068 C 134.803 41.321, 142.484 38.592, 141.481 36.970 C 140.824 35.906, 139.161 35.914, 128 37.029 M 175.500 39 C 173.814 39.724, 174.001 39.870, 176.691 39.930 C 178.446 39.968, 180.160 39.550, 180.500 39 C 181.241 37.801, 178.291 37.801, 175.500 39 M 151.801 41.652 C 151.531 42.686, 151.623 44.425, 152.007 45.516 C 152.677 47.423, 152.731 47.414, 153.413 45.270 C 153.803 44.044, 153.710 42.305, 153.207 41.406 C 152.387 39.941, 152.242 39.966, 151.801 41.652 M 194.369 53.607 C 193.997 54.648, 193.509 55.837, 193.287 56.250 C 193.064 56.663, 193.328 57, 193.874 57 C 195.025 57, 196.456 53.122, 195.615 52.282 C 195.303 51.969, 194.742 52.566, 194.369 53.607 M 208 58.175 C 202.853 59.321, 200.397 61, 203.867 61 C 205.682 61, 206.008 61.401, 205.498 63.005 C 204.603 65.827, 207.509 66.691, 211.381 64.754 C 213.096 63.896, 215.319 62.927, 216.320 62.601 C 217.518 62.211, 218.031 61.239, 217.820 59.754 C 217.443 57.096, 214.773 56.666, 208 58.175 M 153.079 60.583 C 153.127 61.748, 153.364 61.985, 153.683 61.188 C 153.972 60.466, 153.936 59.603, 153.604 59.271 C 153.272 58.939, 153.036 59.529, 153.079 60.583 M 131.036 67.456 C 130.372 68.257, 130.169 69.495, 130.586 70.206 C 131.003 70.918, 130.412 70.684, 129.274 69.687 C 127.417 68.061, 126.554 67.993, 120.859 69.026 C 117.370 69.658, 112.994 70.811, 111.135 71.588 C 109.276 72.365, 106.037 73, 103.937 73 C 101.837 73, 99.852 73.430, 99.527 73.956 C 99.202 74.482, 98.294 74.666, 97.509 74.365 C 95.289 73.513, 89.170 75.919, 87.503 78.299 C 85.484 81.182, 85.611 82.742, 87.923 83.476 C 90.423 84.269, 97.288 80.688, 95.910 79.310 C 94.849 78.249, 102.229 75.906, 118.500 72.136 C 127.057 70.154, 127.574 70.137, 129 71.802 C 130.405 73.442, 130.744 73.314, 134.371 69.776 L 138.241 66 135.243 66 C 133.594 66, 131.701 66.655, 131.036 67.456 M 153.232 69 C 153.232 70.925, 153.438 71.713, 153.689 70.750 C 153.941 69.787, 153.941 68.213, 153.689 67.250 C 153.438 66.287, 153.232 67.075, 153.232 69 M 163 67.059 C 163 67.641, 163.450 67.840, 164 67.500 C 164.550 67.160, 165 66.684, 165 66.441 C 165 66.198, 164.550 66, 164 66 C 163.450 66, 163 66.477, 163 67.059 M 189.729 68.604 C 189.328 69.005, 189 70.023, 189 70.867 C 189 71.992, 189.296 72.104, 190.113 71.287 C 190.724 70.676, 191.053 69.657, 190.842 69.025 C 190.631 68.392, 190.130 68.203, 189.729 68.604 M 152 88.441 C 152 90.334, 152.450 92.160, 153 92.500 C 153.604 92.873, 154 91.510, 154 89.059 C 154 86.827, 153.550 85, 153 85 C 152.450 85, 152 86.548, 152 88.441 M 174.079 103.583 C 174.127 104.748, 174.364 104.985, 174.683 104.188 C 174.972 103.466, 174.936 102.603, 174.604 102.271 C 174.272 101.939, 174.036 102.529, 174.079 103.583 M 153.720 105.332 C 152.606 108.165, 152.788 109.612, 154.094 108.306 C 154.695 107.705, 155.020 106.377, 154.814 105.356 C 154.454 103.566, 154.415 103.565, 153.720 105.332 M 100.229 120.171 C 98.457 121.943, 98.718 124.785, 100.750 125.830 C 102.896 126.933, 105 126.287, 105 124.524 C 105 122.423, 107.946 121.672, 116.751 121.526 C 129.333 121.319, 126.615 119.538, 113.232 119.221 C 104.927 119.024, 101.096 119.304, 100.229 120.171 M 121.500 126 C 121.160 126.550, 121.584 127, 122.441 127 C 123.298 127, 124 126.550, 124 126 C 124 125.450, 123.577 125, 123.059 125 C 122.541 125, 121.840 125.450, 121.500 126 M 97.500 133.157 C 96.400 133.783, 95.353 134.413, 95.174 134.557 C 94.031 135.475, 94.154 149.796, 95.361 156.500 C 97.383 167.728, 98.482 170.213, 101.252 169.819 C 103.745 169.465, 103.580 171.355, 103.067 149 C 102.922 142.675, 102.960 136.375, 103.152 135 C 103.553 132.117, 100.868 131.242, 97.500 133.157 M 97.158 142 C 97.158 143.375, 97.385 143.938, 97.662 143.250 C 97.940 142.563, 97.940 141.438, 97.662 140.750 C 97.385 140.063, 97.158 140.625, 97.158 142 M 117.160 142.330 C 115.310 144.299, 115.105 145.145, 115.943 147.349 C 116.497 148.807, 117.471 150, 118.107 150 C 118.743 150, 120.749 151.575, 122.565 153.500 C 126.208 157.363, 127.685 158.069, 125.796 155.045 C 125.125 153.970, 124.901 152.766, 125.298 152.368 C 126.336 151.330, 129.040 155.231, 128.443 156.906 C 127.850 158.573, 137.270 168, 139.528 168 C 142.363 168, 142.489 164.818, 139.747 162.459 C 138.324 161.235, 136.231 158.493, 135.097 156.367 C 133.962 154.240, 131.331 151.176, 129.251 149.558 C 127.170 147.941, 124.575 145.272, 123.484 143.629 C 120.877 139.702, 119.830 139.487, 117.160 142.330 M 190.771 143.603 C 189.662 146.038, 189.917 146.523, 194.718 151.103 C 197.541 153.796, 200.349 156, 200.957 156 C 203.133 156, 203.232 152.876, 201.127 150.635 C 199.957 149.390, 199 147.457, 199 146.341 C 199 143.944, 196.051 141, 193.650 141 C 192.719 141, 191.423 142.171, 190.771 143.603 M 151.626 144.448 C 149.846 147.164, 150.402 150, 152.715 150 C 153.540 150, 156.664 152.363, 159.655 155.250 C 165.023 160.431, 167.340 161.705, 171.750 161.900 C 175.260 162.056, 174.689 158.436, 171 157.150 C 169.350 156.575, 168 155.518, 167.999 154.802 C 167.999 153.375, 155.724 142, 154.185 142 C 153.660 142, 152.508 143.101, 151.626 144.448 M 162.372 173.207 C 162.120 173.614, 160.246 173.893, 158.207 173.827 C 153.218 173.663, 141.508 175.562, 137 177.264 C 136.175 177.576, 133.025 178.125, 130 178.484 C 126.975 178.844, 121.800 179.458, 118.500 179.849 C 115.200 180.241, 111.934 180.913, 111.243 181.344 C 107.349 183.769, 105.515 195.989, 107.943 203.333 C 108.732 205.720, 109.031 210.061, 108.737 214.833 C 108.130 224.655, 109.781 237.093, 111.907 238.718 C 113.935 240.269, 116.235 240.306, 119.453 238.839 C 122.604 237.404, 122.763 235.247, 119.750 234.820 C 117.797 234.542, 117.500 233.905, 117.500 230 L 117.500 225.500 126.966 225.210 C 133.068 225.022, 136.977 224.444, 137.966 223.581 C 139.520 222.225, 142.673 222.062, 144.577 223.239 C 145.150 223.593, 147.617 223.695, 150.060 223.466 C 165.136 222.052, 168.108 221.634, 168.586 220.861 C 168.879 220.387, 172.026 220, 175.580 220 C 182.721 220, 182.783 220.056, 184.966 228.500 C 185.534 230.700, 186.433 233.175, 186.964 234 C 187.821 235.333, 188.080 235.333, 189.302 234 C 190.399 232.804, 190.529 230.072, 189.943 220.500 C 188.245 192.741, 185.866 182.108, 180.579 178.643 C 179.240 177.767, 178 176.026, 177.823 174.775 C 177.521 172.646, 177.028 172.499, 170.165 172.483 C 166.131 172.474, 162.624 172.799, 162.372 173.207 M 161.852 176.750 C 161.771 177.162, 161.658 178.360, 161.602 179.412 C 161.444 182.371, 159.163 182.451, 157.838 179.544 C 156.736 177.125, 156.307 176.976, 152.074 177.549 C 145.116 178.491, 144 178.972, 144 181.032 C 144 182.076, 143.130 183.395, 142.066 183.965 C 139.107 185.548, 138.505 185.205, 140.457 183.047 C 142.167 181.158, 142.132 181.074, 139.362 180.464 C 137.788 180.117, 135.989 179.679, 135.365 179.492 C 134.740 179.304, 133.257 179.832, 132.068 180.665 C 130.880 181.497, 129.268 181.933, 128.486 181.633 C 127.704 181.333, 126.835 181.458, 126.554 181.912 C 126.274 182.365, 123.521 182.759, 120.437 182.787 C 114.072 182.844, 113.172 183.298, 115.016 185.519 C 115.862 186.538, 116.239 189.488, 116.095 193.945 C 115.972 197.717, 116.281 201.055, 116.780 201.364 C 117.279 201.673, 119.220 201.510, 121.094 201.003 C 122.967 200.496, 130.048 199.877, 136.829 199.628 C 143.610 199.379, 149.401 198.933, 149.697 198.636 C 150.722 197.612, 163.505 199.272, 165.079 200.633 C 167.070 202.357, 167.995 202.354, 169.390 200.620 C 171.043 198.566, 180.676 197.712, 181.384 199.557 C 182.435 202.298, 184.130 201.037, 183.813 197.750 C 183.578 195.311, 182.964 194.424, 181.353 194.194 C 179.576 193.941, 179.002 192.818, 178.031 187.694 C 176.753 180.958, 175.661 178.945, 172.316 177.163 C 169.899 175.876, 162.085 175.567, 161.852 176.750 M 148.800 182.200 C 149.733 183.133, 150.267 183.133, 151.200 182.200 C 152.133 181.267, 151.867 181, 150 181 C 148.133 181, 147.867 181.267, 148.800 182.200 M 180.070 185.691 C 180.032 186.896, 180.450 188.160, 181 188.500 C 182.183 189.231, 182.183 188.252, 181 185.500 C 180.171 183.572, 180.138 183.579, 180.070 185.691 M 134.813 185.683 C 135.534 185.972, 136.397 185.936, 136.729 185.604 C 137.061 185.272, 136.471 185.036, 135.417 185.079 C 134.252 185.127, 134.015 185.364, 134.813 185.683 M 126.269 186.693 C 127.242 186.947, 128.592 186.930, 129.269 186.656 C 129.946 186.382, 129.150 186.175, 127.500 186.195 C 125.850 186.215, 125.296 186.439, 126.269 186.693 M 171.500 203.895 C 170.400 204.353, 163.130 204.676, 155.345 204.614 C 147.560 204.551, 141.623 204.767, 142.152 205.094 C 142.681 205.421, 137.816 205.991, 131.340 206.361 C 124.865 206.731, 119.260 207.364, 118.885 207.767 C 118.510 208.170, 117.889 210.877, 117.504 213.782 L 116.804 219.063 124.652 218.467 C 128.968 218.139, 136.325 217.732, 141 217.563 C 145.675 217.394, 155.039 216.734, 161.809 216.097 C 168.578 215.460, 175.952 215.160, 178.194 215.430 L 182.272 215.922 181.697 210.355 C 181.381 207.294, 180.983 204.652, 180.811 204.484 C 179.909 203.598, 173.227 203.175, 171.500 203.895 M 130 223 C 130 223.550, 130.450 224, 131 224 C 131.550 224, 132 223.550, 132 223 C 132 222.450, 131.550 222, 131 222 C 130.450 222, 130 222.450, 130 223 M 157 241.212 C 155.625 241.747, 151.760 241.942, 148.410 241.645 C 138.982 240.809, 119.938 243.345, 115.063 246.085 C 110.584 248.602, 109.766 250.303, 113.250 249.852 C 114.487 249.693, 116.063 249.912, 116.750 250.340 C 117.438 250.768, 118.498 250.810, 119.107 250.434 C 119.878 249.957, 119.803 249.490, 118.857 248.890 C 117.866 248.262, 118.107 248.026, 119.750 248.015 C 120.987 248.007, 122 248.500, 122 249.111 C 122 249.855, 123.241 249.988, 125.750 249.513 C 127.813 249.123, 130.784 248.638, 132.354 248.436 C 133.924 248.234, 136.121 247.779, 137.236 247.425 C 139.088 246.837, 139.206 247.090, 138.595 250.348 C 136.985 258.930, 127.063 276.139, 120.113 282.405 C 117.867 284.430, 117.327 287.466, 119.025 288.516 C 119.589 288.864, 121.715 287.485, 123.749 285.451 C 125.782 283.418, 128.473 281.081, 129.729 280.258 C 133.066 278.071, 140.619 266.840, 145.112 257.383 C 149.141 248.904, 151.060 247.324, 157.500 247.188 C 167.122 246.983, 182.687 245.600, 183.457 244.880 C 184.058 244.319, 183.841 243.413, 182.874 242.445 C 181.026 240.598, 161.025 239.644, 157 241.212 M 153.720 254.613 C 153.100 255.233, 156.659 260.896, 158.500 262.218 C 159.050 262.613, 159.651 262.498, 159.835 261.962 C 160.020 261.426, 160.563 261.230, 161.042 261.526 C 161.521 261.822, 161.682 262.665, 161.400 263.400 C 160.700 265.225, 169.601 271, 173.112 271 C 174.636 271, 176.160 271.450, 176.500 272 C 176.840 272.550, 177.943 273, 178.952 273 C 179.961 273, 181.045 273.675, 181.362 274.500 C 181.678 275.325, 182.874 276, 184.018 276 C 185.163 276, 187.420 276.683, 189.035 277.518 C 191.449 278.767, 192.335 278.811, 194.029 277.768 C 195.811 276.671, 196.319 276.796, 197.794 278.691 C 199.328 280.661, 200.282 280.854, 207.254 280.604 C 215.484 280.309, 216.571 279.930, 215.700 277.660 C 215.331 276.700, 212.923 276.057, 208.326 275.691 C 199.350 274.976, 195.540 273.986, 183.115 269.138 C 176.813 266.679, 170.916 263.583, 168.115 261.264 C 160.071 254.602, 155.735 252.599, 153.720 254.613" stroke="none" fill="black" fill-rule="evenodd"/>
</svg>