<svg xmlns="http://www.w3.org/2000/svg" width="300" height="300" viewBox="0 0 300 300" version="1.1">
	<path d="M 241.185 14.684 C 239.084 15.524, 238.012 19.556, 238.987 22.953 C 239.690 25.407, 239.502 26.396, 238.071 27.771 C 236.573 29.209, 236.176 31.775, 235.715 43 C 235.410 50.425, 234.856 57.275, 234.484 58.223 C 234.089 59.228, 232.286 60.188, 230.153 60.527 C 228.144 60.847, 225.810 61.477, 224.967 61.927 C 224.124 62.377, 221.992 63.063, 220.229 63.450 C 218.466 63.837, 216.766 64.569, 216.452 65.077 C 216.139 65.585, 214.870 66, 213.632 66 C 212.395 66, 210.509 66.653, 209.441 67.452 C 208.374 68.250, 203 70.314, 197.500 72.039 C 183.550 76.413, 182.594 76.819, 181.272 78.936 C 180.373 80.375, 180.380 81.416, 181.300 83.399 C 182.992 87.044, 185.691 86.801, 196.500 82.027 C 197.600 81.541, 200.210 80.862, 202.300 80.517 C 204.390 80.173, 207.990 78.891, 210.300 77.669 C 212.610 76.447, 216.525 74.858, 219 74.137 C 221.475 73.417, 224.400 72.262, 225.500 71.572 C 229.403 69.122, 233.106 68.768, 234.575 70.704 C 236.530 73.283, 236.307 77.795, 234.083 80.622 C 233.029 81.962, 231.853 84.958, 231.470 87.279 C 230.551 92.849, 229.375 94.271, 226.817 92.902 C 225.732 92.321, 224.289 92.059, 223.612 92.319 C 222.369 92.796, 219.542 101.535, 218.539 108 C 218.241 109.925, 216.519 113.975, 214.714 117 C 212.908 120.025, 209.939 125.867, 208.115 129.982 C 206.292 134.097, 203.591 139.047, 202.113 140.982 C 200.636 142.917, 198.543 146.293, 197.463 148.485 C 196.384 150.676, 194.938 153.071, 194.250 153.806 C 193.563 154.541, 193 155.679, 193 156.334 C 193 156.989, 190.705 160.894, 187.900 165.012 C 185.094 169.131, 182.387 173.562, 181.882 174.861 C 181.378 176.159, 179.696 179.084, 178.144 181.361 C 172.468 189.688, 170 193.624, 170 194.347 C 170 194.754, 168.987 196.180, 167.748 197.516 C 166.509 198.852, 163.077 204.232, 160.120 209.472 C 157.163 214.713, 154.461 219, 154.116 219 C 153.771 219, 152.928 220.265, 152.243 221.812 C 151.559 223.359, 150.211 225.509, 149.249 226.589 C 148.287 227.670, 146.654 230.206, 145.621 232.224 C 143.723 235.932, 138 239.284, 138 236.688 C 138 236.023, 136.931 234.326, 135.624 232.917 C 134.316 231.507, 132.940 229.387, 132.565 228.206 C 132.191 227.025, 129.382 223.458, 126.324 220.280 C 120.174 213.887, 115.012 206.854, 114.978 204.820 C 114.966 204.094, 114.076 202.375, 113 201 C 111.924 199.625, 111.034 197.978, 111.022 197.340 C 111.010 196.702, 113.647 193.380, 116.883 189.959 C 122.777 183.727, 125 183.017, 125 187.368 C 125 190.865, 127.200 193.052, 131.220 193.550 C 133.824 193.873, 135.144 193.565, 135.744 192.493 C 136.245 191.597, 135.780 186.103, 134.603 179.034 C 132.797 168.175, 132.733 166.107, 133.903 156.294 C 134.611 150.357, 135.541 137.400, 135.969 127.500 C 136.397 117.600, 137.572 103.425, 138.581 96 C 140.983 78.320, 141.078 47.398, 138.758 38.203 C 137.017 31.303, 134.793 27.241, 132.214 26.252 C 131.295 25.899, 129.555 24.543, 128.345 23.238 C 126.372 21.110, 125.762 20.972, 122.417 21.895 C 120.366 22.462, 118.402 22.749, 118.054 22.533 C 117.078 21.930, 101.709 24.006, 100.537 24.899 C 99.563 25.641, 94.346 27.087, 87.500 28.511 C 77.356 30.622, 77.745 38, 88 38 C 92.936 38, 96.664 35.883, 95.381 33.808 C 94.680 32.673, 96.718 31.039, 98.867 31.015 C 99.743 31.005, 100.046 31.717, 99.710 33 C 99.287 34.618, 99.680 35, 101.765 35 C 103.183 35, 105.099 34.316, 106.023 33.479 C 106.947 32.643, 110.808 31.576, 114.602 31.108 C 122.269 30.162, 124.531 30.858, 129.978 35.833 L 133.111 38.695 133.008 55.097 C 132.888 74.110, 132.107 82.487, 128.124 107.500 C 127.599 110.800, 127.131 118.267, 127.084 124.094 L 127 134.688 115.750 135.713 C 108.497 136.374, 101.657 137.700, 96.500 139.445 C 80.923 144.714, 76.180 146.006, 74.618 145.407 C 73.422 144.948, 73.278 144.350, 74.024 142.954 C 74.568 141.939, 75.108 137.913, 75.226 134.007 C 75.477 125.674, 77.205 123, 82.339 123 C 84.133 123, 86.028 122.589, 86.550 122.086 C 87.073 121.584, 93.350 120.419, 100.500 119.498 C 107.650 118.576, 114.534 117.412, 115.797 116.911 C 117.060 116.410, 119.662 116, 121.578 116 C 125.637 116, 127.010 113.867, 124.540 111.397 C 123.124 109.981, 121.416 109.837, 112.693 110.394 C 107.087 110.752, 99.350 111.459, 95.500 111.965 C 84.814 113.368, 84.810 113.368, 79.851 113.178 L 75.202 113 75.351 73.999 C 75.433 52.549, 75.315 35.553, 75.089 36.231 C 74.587 37.740, 72.399 40, 71.441 40 C 70.664 40, 71.400 34.589, 72.585 31.586 C 74.224 27.430, 70.784 31.337, 68.821 35.860 C 66.983 40.096, 66.830 42.328, 67.061 61.500 C 67.201 73.050, 66.971 87.675, 66.550 94 C 66.110 100.622, 66.212 109.963, 66.790 116.023 C 67.404 122.455, 67.456 129.842, 66.925 135.023 C 65.874 145.263, 65.589 190.291, 66.542 195.375 C 67.167 198.705, 67.030 199.003, 64.861 199.033 C 62.123 199.072, 58 202.183, 58 204.210 C 58 205.960, 59.992 208, 61.700 208 C 62.415 208, 63 207.395, 63 206.655 C 63 205.915, 63.847 204.544, 64.881 203.608 C 66.579 202.071, 66.913 202.056, 68.310 203.453 C 70.584 205.727, 77.277 205.456, 79.500 203 C 80.495 201.900, 82.120 201, 83.111 201 C 84.101 201, 86.569 199.875, 88.595 198.500 C 93.063 195.468, 96 195.242, 96 197.929 C 96 198.989, 95.357 200.500, 94.571 201.286 C 93.786 202.071, 91.173 206.266, 88.766 210.607 C 84.954 217.481, 77.607 228.429, 73.757 232.970 C 73.072 233.778, 70.725 236.703, 68.543 239.470 C 64.824 244.184, 60.465 249.273, 57 252.945 C 49.683 260.701, 47.050 267.038, 50.582 268.393 C 53.965 269.691, 55.927 268.831, 59.642 264.421 C 61.764 261.902, 64.850 258.391, 66.500 256.619 C 70.265 252.574, 75 246.353, 75 245.451 C 75 245.075, 77.630 241.782, 80.843 238.134 C 84.057 234.485, 87.534 230.150, 88.570 228.500 C 89.606 226.850, 90.689 225.275, 90.977 225 C 91.265 224.725, 92.372 222.925, 93.439 221 C 97.343 213.951, 102.085 207, 102.990 207 C 104.375 207, 108.889 212.077, 110.547 215.500 C 111.517 217.502, 113.498 219.115, 116.500 220.349 C 118.975 221.366, 121 222.829, 121 223.599 C 121 224.370, 121.700 225, 122.556 225 C 123.436 225, 124.967 226.932, 126.079 229.445 C 128.074 233.955, 131.511 237.393, 135.194 238.562 C 136.937 239.115, 137.134 239.762, 136.591 243.154 C 136.244 245.326, 134.844 248.871, 133.480 251.032 C 132.116 253.192, 131 255.674, 131 256.546 C 131 259.301, 132.997 262, 135.035 262 C 137.003 262, 138.125 261.216, 144.547 255.353 L 147.993 252.207 150.427 254.121 C 154.229 257.112, 161.179 259.954, 164.750 259.978 C 167.341 259.996, 168 259.594, 168 258 C 168 256.546, 167.333 256, 165.559 256 C 164.216 256, 162.876 255.608, 162.580 255.129 C 162.284 254.650, 160.784 254.007, 159.246 253.699 C 155.232 252.896, 149.027 246.613, 149.701 244.034 C 150.074 242.608, 149.750 242, 148.617 242 C 147.727 242, 147 241.297, 147 240.437 C 147 239.470, 147.706 238.993, 148.854 239.187 C 150.542 239.472, 156 234.356, 156 232.488 C 156 232.090, 157.238 230.306, 158.750 228.525 C 163.988 222.355, 165 220.973, 165 219.989 C 165 219.445, 165.387 219, 165.861 219 C 166.335 219, 167.796 216.975, 169.109 214.500 C 170.422 212.025, 171.733 210, 172.021 210 C 172.309 210, 173.426 208.313, 174.501 206.250 C 175.577 204.188, 178.163 200.146, 180.246 197.269 C 182.330 194.392, 184.429 191.002, 184.910 189.736 C 185.392 188.470, 187.409 185.308, 189.393 182.709 C 191.377 180.109, 193 177.174, 193 176.186 C 193 175.197, 194.164 172.839, 195.586 170.944 C 197.009 169.050, 198.583 166.600, 199.084 165.500 C 199.585 164.400, 200.559 162.611, 201.248 161.524 C 205.703 154.495, 209 148.865, 209 148.284 C 209 147.586, 214.040 139.888, 215.079 139 C 215.401 138.725, 216.506 136.025, 217.535 133 C 218.563 129.975, 220.122 126.600, 220.998 125.500 C 221.874 124.400, 223.087 122.375, 223.694 121 C 224.300 119.625, 225.517 116.857, 226.398 114.849 C 227.279 112.841, 228 110.266, 228 109.126 C 228 106.077, 233.086 95.861, 234.385 96.301 C 235.809 96.783, 235.693 104.607, 234.073 117.500 C 233.381 123, 232.656 137.742, 232.461 150.259 C 232.266 162.777, 231.749 173.577, 231.312 174.259 C 230.584 175.394, 229.623 224.478, 230.122 235 C 230.629 245.684, 230.461 248.331, 229.255 248.741 C 227.605 249.301, 220.767 242.411, 218.595 238 C 216.210 233.157, 213 223.915, 213 221.892 C 213 219.784, 210.610 218.790, 209.122 220.278 C 207.594 221.806, 207.712 224.043, 209.562 228.628 C 212.586 236.121, 214.333 239.532, 216.840 242.838 C 218.948 245.617, 219.173 246.493, 218.186 248.074 C 216.402 250.930, 216.742 253.032, 219.383 255.479 C 220.694 256.694, 222.074 258.658, 222.450 259.844 C 222.827 261.030, 223.554 262, 224.067 262 C 224.580 262, 225 262.450, 225 263 C 225 265.620, 232.908 271.293, 234.870 270.080 C 235.613 269.621, 237.003 269.449, 237.958 269.699 C 240.871 270.461, 242.462 265.094, 241.058 259.241 C 239.160 251.328, 238.455 227.336, 239.215 196.500 C 239.608 180.550, 240.002 161.200, 240.090 153.500 C 240.178 145.800, 240.869 134.113, 241.625 127.530 C 242.381 120.946, 243 106.010, 243 94.339 C 243 81.270, 243.384 72.881, 244 72.500 C 244.550 72.160, 245 70.994, 245 69.910 C 245 66.921, 247.109 66.665, 256.454 68.519 C 267.635 70.738, 271.942 69.690, 271.985 64.741 C 271.997 63.313, 271.198 63.008, 267.750 63.122 C 263.855 63.251, 256.019 61.194, 251.764 58.926 C 250.809 58.417, 248.446 58, 246.514 58 C 243.385 58, 242.983 57.698, 242.842 55.250 C 242.756 53.737, 242.781 51.825, 242.897 51 C 243.014 50.175, 243.276 45.675, 243.480 41 C 243.683 36.325, 244.313 29.170, 244.880 25.100 C 246.156 15.934, 245.150 13.098, 241.185 14.684 M 74.736 24.598 C 74.407 24.927, 74.369 25.798, 74.652 26.535 C 75.293 28.206, 78 27.283, 78 25.393 C 78 23.997, 75.858 23.475, 74.736 24.598 M 110.500 144.477 C 106.100 145.702, 99.125 147.963, 95 149.502 C 88.025 152.104, 83.868 152.628, 76.598 151.822 L 73.696 151.500 73.467 169.500 C 73.341 179.400, 72.910 189.188, 72.509 191.250 C 71.865 194.570, 72.009 195, 73.768 195 C 76.249 195, 82.649 192.377, 83.491 191.015 C 83.836 190.457, 85.190 190, 86.500 190 C 87.810 190, 89.160 189.550, 89.500 189 C 89.840 188.450, 91.201 188, 92.525 188 C 94.770 188, 99.066 186.452, 105 183.504 C 108.989 181.523, 119.828 178, 121.937 178 C 124.377 178, 125.014 175.703, 124.156 170 C 123.351 164.656, 124.672 148.928, 126.041 147.559 C 126.568 147.032, 127 145.565, 127 144.300 C 127 142.241, 126.554 142.013, 122.750 142.125 C 120.412 142.193, 114.900 143.252, 110.500 144.477 M 68.638 174.500 C 68.322 175.325, 68.326 176.686, 68.648 177.526 C 69.428 179.558, 72 177.527, 72 174.878 C 72 172.643, 69.461 172.358, 68.638 174.500 M 233.079 197.583 C 233.127 198.748, 233.364 198.985, 233.683 198.188 C 233.972 197.466, 233.936 196.603, 233.604 196.271 C 233.272 195.939, 233.036 196.529, 233.079 197.583 M 233.607 226.582 C 232.579 229.262, 232.930 231, 234.500 231 C 235.500 231, 236 230, 236 228 C 236 224.794, 234.609 223.970, 233.607 226.582" stroke="none" fill="black" fill-rule="evenodd"/>
</svg>