<svg xmlns="http://www.w3.org/2000/svg" width="300" height="300" viewBox="0 0 300 300" version="1.1">
	<path d="M 129.759 18.384 C 128.870 19.273, 127.211 20, 126.071 20 C 124.727 20, 124 20.646, 124 21.840 C 124 23.330, 125.285 23.901, 130.750 24.845 C 143.831 27.103, 165.167 27.900, 171 26.349 C 174.146 25.512, 174.500 25.068, 174.500 21.959 C 174.500 18.853, 174.245 18.532, 172 18.812 C 166.014 19.558, 148.763 18.886, 136.937 17.446 C 132.506 16.906, 131.046 17.097, 129.759 18.384 M 199.917 36.413 C 199.688 36.640, 196.158 37.132, 192.073 37.505 C 187.988 37.879, 183.488 38.635, 182.073 39.186 C 180.658 39.736, 176.860 40.380, 173.632 40.616 C 170.405 40.851, 165.905 41.450, 163.632 41.945 C 157.194 43.349, 129.278 45.529, 121.500 45.236 C 117.650 45.090, 113.150 44.983, 111.500 44.997 C 109.850 45.011, 106.855 45.031, 104.845 45.041 C 100.940 45.061, 99.480 46.788, 100.542 50.133 C 100.965 51.466, 100.412 52.311, 98.565 53.152 C 96.975 53.877, 96 55.134, 96 56.461 C 96 57.637, 95.475 59.125, 94.833 59.767 C 93.945 60.655, 93.946 62.191, 94.840 66.217 C 95.771 70.410, 95.729 73.151, 94.636 79.500 C 93.878 83.900, 93.201 88.175, 93.131 89 C 92.633 94.874, 90.941 106.093, 90.115 109 C 89.568 110.925, 88.567 115.425, 87.891 119 C 87.216 122.575, 86.283 125.755, 85.818 126.067 C 85.354 126.379, 84.308 130.116, 83.493 134.371 C 82.679 138.625, 81.547 142.978, 80.977 144.042 C 78.616 148.454, 75.134 162.870, 75.415 167.071 C 75.834 173.348, 76.970 176.657, 78.094 174.882 C 78.838 173.708, 78.972 173.709, 78.985 174.890 C 78.993 175.654, 78.219 176.851, 77.264 177.549 C 75.952 178.508, 75.522 180.304, 75.501 184.909 C 75.486 188.259, 75.817 191, 76.237 191 C 76.656 191, 76.968 192.012, 76.930 193.250 C 76.863 195.387, 76.819 195.400, 76.044 193.500 C 75.291 191.652, 75.175 191.704, 74.520 194.193 C 73.666 197.439, 74.513 199.124, 76.596 198.325 C 77.854 197.842, 78.072 198.519, 77.814 202.118 C 77.574 205.461, 76.992 206.723, 75.358 207.441 C 73.648 208.191, 73.080 209.575, 72.547 214.284 C 72.180 217.530, 71.418 221.382, 70.854 222.843 C 69.759 225.679, 68.801 230.419, 66.578 244 C 65.812 248.675, 64.019 255.806, 62.593 259.846 C 59.215 269.414, 59.245 270.101, 63 269.350 C 66.271 268.696, 67.136 270.265, 64.360 271.819 C 62.385 272.924, 63.403 275, 65.920 275 C 68.044 275, 71.261 265.703, 73.013 254.500 C 73.615 250.650, 74.534 245.328, 75.054 242.674 C 75.574 240.019, 76.006 236.419, 76.013 234.674 C 76.020 232.928, 76.945 228.575, 78.069 225 C 79.192 221.425, 80.282 215.800, 80.490 212.500 C 80.698 209.200, 81.385 202.450, 82.016 197.500 C 82.647 192.550, 83.299 184.185, 83.466 178.911 C 83.814 167.866, 84.818 159.584, 86.242 156 C 87.272 153.408, 88.529 149.026, 89.970 143 C 90.430 141.075, 91.477 137.025, 92.296 134 C 93.114 130.975, 94.971 122.200, 96.421 114.500 C 97.871 106.800, 99.485 98.250, 100.007 95.500 C 100.530 92.750, 101.473 84.875, 102.105 78 C 102.736 71.125, 103.461 63.408, 103.716 60.852 C 103.971 58.295, 103.673 55.258, 103.054 54.102 C 101.696 51.563, 102.818 51.428, 111.223 53.116 C 115.372 53.949, 120.291 53.926, 130.640 53.026 C 138.263 52.363, 147.875 51.627, 152 51.390 C 156.125 51.154, 160.805 50.519, 162.399 49.980 C 163.994 49.441, 167.144 48.998, 169.399 48.996 C 171.655 48.994, 177.550 48.276, 182.500 47.401 C 187.450 46.526, 194.215 45.471, 197.532 45.056 C 200.850 44.642, 204.563 43.769, 205.782 43.116 C 208.211 41.817, 208.681 39.081, 206.800 37.200 C 205.669 36.069, 200.822 35.515, 199.917 36.413 M 161.500 45.961 C 159.108 46.539, 158.843 46.836, 160.192 47.427 C 162.424 48.406, 165.230 47.812, 165.750 46.250 C 166.202 44.894, 165.980 44.879, 161.500 45.961 M 175.200 56.200 C 174.540 56.860, 174 58.242, 174 59.271 C 174 60.301, 173.325 61.818, 172.500 62.643 C 171.675 63.468, 171 65.284, 171 66.678 C 171 68.521, 171.410 69.057, 172.500 68.638 C 174.589 67.837, 174.461 71.575, 172.248 75.984 L 170.500 79.468 154 79.484 C 140.192 79.497, 136.978 79.786, 134.300 81.250 C 132.539 82.213, 130.013 83, 128.685 83 C 125.920 83, 121 86.499, 121 88.466 C 121 90.744, 123.964 91.065, 125.750 88.979 C 127.805 86.579, 129 86.446, 129 88.617 C 129 89.793, 129.603 90.076, 131.215 89.654 C 144.303 86.231, 149.290 85.692, 156.339 86.938 C 160.277 87.634, 164.963 88.158, 166.750 88.102 C 170.205 87.995, 170.527 88.555, 169.104 92.203 C 168.611 93.466, 167.676 96.300, 167.026 98.500 C 165.850 102.477, 165.813 102.501, 160.671 102.604 C 157.827 102.661, 151.675 103.726, 147 104.970 C 142.325 106.215, 136.250 107.595, 133.500 108.037 C 126.394 109.179, 122.118 110.911, 120.933 113.126 C 119.561 115.689, 120.546 117.006, 123.809 116.970 C 126.452 116.940, 140.629 114.161, 148.499 112.130 C 154.617 110.551, 155.278 112.315, 151.070 119 C 150.551 119.825, 148.704 123.713, 146.966 127.640 L 143.805 134.780 135.153 135.617 C 130.394 136.077, 125.505 136.464, 124.289 136.477 C 121.334 136.508, 117.680 139.722, 118.417 141.643 C 118.737 142.479, 119 143.625, 119 144.188 C 119 144.865, 122.086 144.968, 128.096 144.492 C 137.036 143.785, 137.173 143.807, 136.103 145.808 C 135.503 146.928, 134.438 148.442, 133.736 149.172 C 133.034 149.902, 130.684 152.975, 128.515 156 C 122.011 165.068, 107.776 180.062, 103.500 182.347 C 101.300 183.523, 97.475 185.164, 95 185.993 C 91.632 187.121, 90.418 188.077, 90.175 189.794 C 89.860 192.010, 90.030 192.065, 95.105 191.392 C 102.793 190.372, 108.545 186.160, 119.010 173.889 C 127.426 164.020, 133.934 155.619, 137.516 150 C 141.305 144.057, 142.947 142.711, 144.668 144.139 C 145.646 144.951, 146.385 144.926, 147.449 144.042 C 148.246 143.381, 150.833 142.636, 153.199 142.387 C 163.555 141.295, 165.061 141.080, 165.874 140.578 C 166.347 140.285, 169.157 139.993, 172.117 139.928 C 175.078 139.863, 180.363 139.386, 183.863 138.868 C 189.470 138.037, 190.390 138.138, 191.613 139.713 C 192.932 141.410, 193.097 141.387, 194.911 139.250 C 195.961 138.012, 197.369 137, 198.040 137 C 198.947 137, 199.083 135.222, 198.573 130.040 C 197.922 123.436, 199.881 110.967, 201.918 108.745 C 202.299 108.329, 205.930 107.743, 209.987 107.441 C 214.044 107.140, 217.678 106.699, 218.061 106.462 C 219.326 105.681, 219.716 102.465, 218.835 100.083 C 217.917 97.602, 217.977 97.604, 207.250 99.617 L 204 100.227 204 88.236 C 204 74.192, 203.373 72.954, 197.218 74.841 C 191.501 76.593, 177.971 79.100, 177.109 78.568 C 176.686 78.306, 177.138 75.034, 178.113 71.296 C 180.211 63.249, 180.457 57.857, 178.800 56.200 C 178.140 55.540, 177.330 55, 177 55 C 176.670 55, 175.860 55.540, 175.200 56.200 M 198 84.559 C 198 85.416, 198.450 85.840, 199 85.500 C 199.550 85.160, 200 84.459, 200 83.941 C 200 83.423, 199.550 83, 199 83 C 198.450 83, 198 83.702, 198 84.559 M 186.500 85.512 C 184.850 86.281, 181.422 86.930, 178.882 86.955 L 174.264 87 172.525 93.197 C 171.568 96.606, 170.555 99.997, 170.272 100.732 C 169.853 101.825, 172.028 101.958, 182.130 101.458 C 194.113 100.866, 200.366 99.462, 197.876 97.924 C 197.237 97.529, 196.441 94.347, 196.107 90.853 C 195.515 84.652, 195.428 84.495, 192.500 84.307 C 190.850 84.202, 188.150 84.744, 186.500 85.512 M 177.294 109.354 C 167.890 110.316, 165.759 110.855, 164.044 112.708 C 162.920 113.923, 162 115.385, 162 115.958 C 162 116.531, 161.548 117, 160.996 117 C 160.444 117, 160.107 115.763, 160.246 114.250 C 160.386 112.737, 160.050 111.316, 159.500 111.091 C 158.412 110.646, 156.846 113.407, 151.495 125.204 C 148.009 132.888, 147.245 136, 148.845 136 C 150.231 136, 153 132.467, 153 130.699 C 153 128.504, 158.012 118, 159.060 118 C 160.213 118, 159.532 120.892, 156.985 126.814 C 155.787 129.599, 155.041 132.257, 155.328 132.721 C 155.810 133.502, 168.020 132.284, 184.273 129.833 C 187.998 129.271, 191.689 128.168, 192.476 127.381 C 193.263 126.595, 194.212 123.252, 194.585 119.953 C 194.958 116.654, 195.654 113.714, 196.132 113.419 C 197.534 112.552, 197.126 109, 195.625 109 C 194.869 109, 192.956 108.822, 191.375 108.604 C 189.794 108.386, 183.457 108.723, 177.294 109.354 M 113.574 112.667 C 112.723 114.886, 114.603 116.797, 116.133 115.267 C 117.357 114.043, 116.648 111, 115.138 111 C 114.630 111, 113.926 111.750, 113.574 112.667 M 130.813 112.683 C 131.534 112.972, 132.397 112.936, 132.729 112.604 C 133.061 112.272, 132.471 112.036, 131.417 112.079 C 130.252 112.127, 130.015 112.364, 130.813 112.683 M 148.510 138.016 C 148.856 138.575, 149.557 138.774, 150.069 138.457 C 151.456 137.600, 151.198 137, 149.441 137 C 148.584 137, 148.165 137.457, 148.510 138.016 M 111.356 141.514 C 111.001 142.441, 111.439 143.868, 112.363 144.792 C 113.879 146.307, 114 146.232, 114 143.773 C 114 140.645, 112.260 139.158, 111.356 141.514 M 170.938 146.115 C 169.973 147.918, 170.227 148.644, 172.653 151.034 C 175.407 153.746, 180 159.454, 180 160.165 C 180 160.356, 176.512 160.580, 172.250 160.661 C 167.988 160.743, 158.875 160.965, 152 161.155 L 139.500 161.500 139.184 164.250 C 139.010 165.762, 139.347 167.056, 139.934 167.125 C 141.209 167.274, 140.901 167.212, 148.866 168.941 C 154.152 170.088, 156.567 170.106, 163.099 169.045 C 167.425 168.343, 172.902 168.058, 175.269 168.413 C 179.083 168.985, 179.814 169.539, 181.680 173.279 C 184.487 178.907, 187.447 187.162, 189.288 194.500 C 190.116 197.800, 191.087 201.400, 191.446 202.500 C 192.007 204.224, 191.603 204.535, 188.519 204.752 C 186.550 204.890, 182.366 205.960, 179.220 207.129 C 176.074 208.298, 169.757 209.630, 165.183 210.088 C 160.608 210.546, 152.629 211.838, 147.450 212.960 C 142.272 214.082, 136.677 215, 135.017 215 L 132 215 132 207.194 C 132 200.476, 132.342 198.925, 134.456 196.060 C 136.716 192.996, 136.799 192.512, 135.491 189.982 C 134.709 188.471, 134.277 186.169, 134.531 184.867 C 134.785 183.565, 134.711 180.363, 134.367 177.750 C 133.811 173.524, 133.468 173, 131.255 173 C 129.131 173, 128.871 173.329, 129.478 175.250 C 130.683 179.064, 130.820 182.580, 129.946 187.262 C 128.976 192.451, 128.296 201.205, 127.444 219.476 C 127.111 226.612, 126.617 232.811, 126.345 233.250 C 126.074 233.689, 126.146 235.388, 126.505 237.024 C 127.011 239.326, 127.707 240, 129.579 240 C 132.311 240, 132.420 239.562, 132.038 230.127 C 131.733 222.629, 132.291 222.037, 139.685 222.015 C 142.536 222.007, 148.161 221.307, 152.185 220.460 C 156.208 219.613, 162.650 218.775, 166.500 218.599 C 170.714 218.405, 175.311 217.475, 178.050 216.260 C 180.552 215.151, 185.010 213.911, 187.956 213.506 L 193.313 212.769 192.663 220.462 C 192.305 224.693, 192.428 228.932, 192.936 229.881 C 193.445 230.831, 193.530 232.142, 193.127 232.794 C 192.390 233.987, 168.189 236.990, 159.143 237.011 C 156.589 237.017, 152.291 237.692, 149.591 238.511 C 146.891 239.330, 143.265 240, 141.532 240 C 139.800 240, 137.509 240.661, 136.441 241.468 C 135.374 242.276, 133.695 242.951, 132.710 242.968 C 129.858 243.019, 122.830 246.989, 123.265 248.304 C 123.482 248.962, 124.854 250.173, 126.313 250.996 C 128.755 252.373, 129.976 252.232, 141.669 249.232 C 150.476 246.971, 154.691 246.291, 155.413 247.013 C 156.857 248.457, 154.885 251.412, 152.213 251.811 C 150.976 251.996, 148.800 254.230, 146.855 257.311 C 145.054 260.165, 140.974 266.001, 137.790 270.279 C 131.854 278.255, 130.223 283.278, 133.878 282.322 C 134.911 282.052, 136.301 280.631, 136.966 279.165 C 137.632 277.699, 140.950 272.338, 144.338 267.252 C 149.374 259.694, 150.877 258.090, 152.562 258.474 C 155.238 259.084, 162 251.264, 162 247.560 C 162 245.717, 162.560 244.958, 164 244.850 C 165.100 244.767, 166.563 244.655, 167.250 244.600 C 168.041 244.537, 168.382 245.510, 168.178 247.250 C 168.002 248.762, 168.339 250, 168.928 250 C 169.987 250, 170.390 248.681, 170.075 246.250 C 169.985 245.563, 170.045 244.984, 170.206 244.964 C 170.368 244.945, 174.775 244.536, 180 244.055 C 185.225 243.575, 190.281 242.870, 191.236 242.489 C 192.511 241.981, 193.225 242.462, 193.924 244.301 C 195.222 247.713, 196.703 248.424, 197.890 246.205 C 198.851 244.410, 197.795 211.731, 196.478 202.500 C 195.002 192.158, 190.296 172.474, 188.442 168.889 C 187.649 167.355, 187 165.852, 187 165.550 C 187 164.400, 190.937 165.062, 191.700 166.340 C 193.092 168.671, 201.174 172.730, 210.950 176.007 C 219.894 179.005, 220.469 179.080, 221.700 177.396 C 223.108 175.470, 223.155 174.767, 222.120 171.062 C 221.534 168.964, 220.817 168.612, 216.970 168.533 C 212.797 168.447, 207.256 166.264, 200.858 162.184 C 199.404 161.258, 195.579 158.953, 192.358 157.063 C 185.703 153.158, 176.457 146.549, 175.514 145.022 C 174.461 143.318, 172.138 143.873, 170.938 146.115 M 130.992 165.509 C 130.048 166.647, 129.988 167.388, 130.775 168.175 C 132.292 169.692, 135.217 168.363, 134.824 166.336 C 134.375 164.020, 132.554 163.627, 130.992 165.509 M 135.570 168.887 C 134.889 169.988, 137.438 172.229, 138.342 171.325 C 138.704 170.963, 139 170.067, 139 169.333 C 139 167.844, 136.422 167.508, 135.570 168.887 M 77 188.059 C 77 189.191, 77.450 189.840, 78 189.500 C 78.550 189.160, 79 188.234, 79 187.441 C 79 186.648, 78.550 186, 78 186 C 77.450 186, 77 186.927, 77 188.059 M 165 187.542 C 158.675 188.261, 151.108 188.883, 148.184 188.925 C 141.251 189.023, 139 190.275, 139 194.035 L 139 197 146.250 196.982 C 150.238 196.972, 157.775 196.269, 163 195.420 C 168.225 194.571, 174.970 193.567, 177.988 193.188 C 183.782 192.462, 185.486 190.496, 182.960 187.452 C 181.569 185.776, 180.492 185.781, 165 187.542 M 71.079 232.583 C 71.127 233.748, 71.364 233.985, 71.683 233.188 C 71.972 232.466, 71.936 231.603, 71.604 231.271 C 71.272 230.939, 71.036 231.529, 71.079 232.583 M 144.667 243.667 C 143.516 244.817, 143.938 246, 145.500 246 C 146.325 246, 147 245.325, 147 244.500 C 147 242.938, 145.817 242.516, 144.667 243.667 M 134.250 245.706 C 133.012 245.944, 132 246.558, 132 247.070 C 132 248.416, 133.335 248.214, 135.559 246.532 C 136.626 245.724, 137.275 245.111, 137 245.168 C 136.725 245.225, 135.488 245.467, 134.250 245.706 M 68.053 250.750 C 66.760 255.403, 66.752 256, 67.981 256 C 68.520 256, 69.237 254.762, 69.574 253.250 C 69.910 251.738, 70.399 249.713, 70.660 248.750 C 70.921 247.787, 70.676 247, 70.114 247 C 69.553 247, 68.625 248.688, 68.053 250.750 M 173.639 249.694 C 173.288 250.046, 173 251.571, 173 253.083 C 173 254.596, 172.488 256.004, 171.862 256.213 C 171.030 256.490, 171.079 257.576, 172.043 260.243 C 172.769 262.251, 173.690 263.692, 174.088 263.445 C 174.487 263.199, 174.583 263.880, 174.301 264.959 C 173.597 267.650, 176.910 272.679, 183.480 278.892 C 190.621 285.646, 196.487 288.237, 204.819 288.315 C 210.895 288.372, 211.449 288.181, 214.225 285.075 C 217.976 280.876, 216.759 278.962, 211.539 280.850 C 205.908 282.886, 195.423 279.159, 188.868 272.790 C 183.364 267.443, 180.369 262.889, 177.969 256.219 C 175.683 249.866, 174.800 248.534, 173.639 249.694 M 64.229 264.188 C 64.847 266.042, 67 266.349, 67 264.583 C 67 263.712, 66.287 263, 65.417 263 C 64.546 263, 64.011 263.534, 64.229 264.188" stroke="none" fill="black" fill-rule="evenodd"/>
</svg>