<svg xmlns="http://www.w3.org/2000/svg" width="300" height="300" viewBox="0 0 300 300" version="1.1">
	<path d="M 87.658 23.726 C 83.931 28.002, 79.446 33.383, 77.691 35.684 C 75.936 37.986, 71.785 43.161, 68.466 47.184 C 65.148 51.208, 61.605 56.261, 60.592 58.413 C 59.013 61.770, 44.023 80.853, 38.750 86.219 C 36.637 88.370, 36.482 90.864, 38.416 91.606 C 39.195 91.905, 42.623 90.653, 46.034 88.825 C 51.936 85.661, 53.148 84.557, 59 77.013 C 62.129 72.980, 63.753 71.257, 65.353 70.272 C 66.670 69.462, 70 62.937, 70 61.166 C 70 59.819, 73.298 58.793, 75.236 59.537 C 76.134 59.882, 76.948 61.831, 77.230 64.310 C 77.767 69.040, 84.399 79.312, 90.501 84.864 C 94.027 88.073, 94.163 88.434, 93.516 92.862 C 92.337 100.929, 89.934 106.733, 86.243 110.423 C 82.760 113.907, 82.466 114, 74.958 114 C 68.909 114, 66.031 113.462, 61.596 111.500 C 51.637 107.096, 41.843 109.171, 41.187 115.824 L 40.873 119 47.353 119 C 51.054 119, 53.986 119.457, 54.189 120.067 C 54.389 120.668, 58.767 121.385, 64.228 121.711 C 72.211 122.187, 74.351 122, 76.420 120.644 C 79.715 118.486, 82 118.558, 82 120.820 C 82 122.383, 76.861 129.379, 73.420 132.500 C 72.814 133.050, 70.232 137.100, 67.683 141.500 C 65.134 145.900, 61.800 150.871, 60.274 152.547 C 56.997 156.147, 55.162 158.844, 54.354 161.250 C 54.031 162.213, 53.369 163, 52.883 163 C 52.398 163, 52 164.125, 52 165.500 C 52 168.372, 53.567 168.643, 59.069 166.726 C 62.862 165.404, 75 153.824, 75 151.527 C 75 150.779, 75.356 150.017, 75.790 149.833 C 76.225 149.650, 78.137 147.261, 80.040 144.524 C 81.943 141.787, 83.882 139.087, 84.349 138.524 C 84.815 137.961, 87.987 133.002, 91.396 127.505 C 94.805 122.007, 98.265 117.380, 99.085 117.222 C 100.729 116.906, 103 122.052, 103 126.094 C 103 127.859, 102.042 129.061, 99.580 130.387 C 97.698 131.400, 95.916 133.199, 95.618 134.384 C 95.321 135.570, 94.272 137.431, 93.289 138.520 C 92.305 139.609, 90.183 142.525, 88.573 145 C 86.963 147.475, 84.361 150.787, 82.790 152.360 C 81.220 153.933, 78.712 156.858, 77.217 158.860 C 75.723 160.862, 73.938 163.095, 73.250 163.821 C 72.563 164.548, 72 165.786, 72 166.571 C 72 167.357, 71.550 168, 71 168 C 70.450 168, 70 168.563, 69.999 169.250 C 69.999 169.938, 68.536 172.155, 66.749 174.178 C 61.395 180.239, 56.646 186.118, 54.073 189.873 C 51.117 194.186, 47.711 198.153, 42.750 203.058 C 37.309 208.438, 38.111 212, 44.765 212 C 47.523 212, 49.111 211.003, 53.565 206.478 C 56.554 203.440, 59 200.515, 59 199.978 C 59 199.440, 59.563 198.978, 60.250 198.952 C 60.938 198.926, 63.187 196.563, 65.249 193.702 C 67.312 190.841, 70.724 186.700, 72.832 184.500 C 74.941 182.300, 77.869 178.700, 79.340 176.500 C 83.373 170.468, 87.662 164.811, 90.477 161.814 C 91.865 160.336, 93.007 158.761, 93.016 158.314 C 93.024 157.866, 94.814 155.475, 96.994 153 C 99.173 150.525, 101.978 146.588, 103.226 144.250 C 106.545 138.037, 109 138.934, 109 146.359 C 109 149.820, 107.605 152.279, 102.076 158.564 C 100.109 160.800, 97.825 163.662, 97 164.925 C 96.175 166.188, 94.199 168.634, 92.609 170.361 C 91.019 172.087, 88.675 175.150, 87.400 177.166 C 86.124 179.182, 84.613 181.121, 84.041 181.475 C 83.468 181.829, 83 182.991, 83 184.059 C 83 185.127, 82.580 186, 82.067 186 C 81.554 186, 80.875 186.787, 80.558 187.750 C 80.240 188.712, 78.584 191.075, 76.877 193 C 73.283 197.054, 68 204.534, 68 205.570 C 68 205.960, 66.650 208.473, 65 211.154 C 61.659 216.584, 60.986 222.397, 63.582 223.393 C 67.793 225.009, 75 221.944, 75 218.537 C 75 216.805, 86.704 199, 87.843 199 C 88.326 199, 89.797 196.862, 91.111 194.250 C 92.425 191.637, 94.513 188.228, 95.750 186.673 C 96.987 185.119, 98 183.444, 98 182.953 C 98 181.642, 104.245 173, 105.193 173 C 105.637 173, 106 172.375, 106 171.611 C 106 170.847, 106.891 169.159, 107.980 167.861 C 110.947 164.323, 111.976 166.832, 111.933 177.500 C 111.864 194.827, 108.924 210.446, 103.463 222.500 C 102.218 225.250, 99.965 230.875, 98.458 235 C 93.861 247.584, 86.746 258.524, 82.458 259.600 C 74.622 261.567, 62.487 253.126, 59.998 243.976 C 58.314 237.789, 56.885 235, 55.398 235 C 51.873 235, 53.336 246.486, 57.719 253.225 C 62.009 259.819, 65.996 263.450, 72 266.227 C 76.811 268.453, 78.437 268.708, 84.983 268.263 C 92.412 267.758, 92.499 267.720, 97.171 262.821 C 99.759 260.108, 102.885 255.775, 104.119 253.194 C 105.353 250.612, 106.670 248.275, 107.046 248 C 107.423 247.725, 108.044 246.375, 108.428 245 C 108.812 243.625, 109.494 241.600, 109.943 240.500 C 110.836 238.315, 113.797 230.683, 114.987 227.500 C 120.632 212.395, 123.271 196.958, 123.363 178.500 C 123.456 159.646, 120.571 135.643, 117.839 132.550 C 117.378 132.027, 117 130.687, 117 129.570 C 117 127.116, 108.324 109.725, 105.688 106.895 C 103.699 104.760, 103.721 104.617, 107.467 95.500 C 108.145 93.850, 109.311 90.925, 110.058 89 C 110.805 87.075, 111.997 84.905, 112.708 84.179 C 113.418 83.452, 114 82.252, 114 81.512 C 114 80.772, 114.352 80.017, 114.782 79.833 C 116.302 79.185, 122 63.998, 122 60.594 C 122 57.223, 119.936 54, 117.778 54 C 116.376 54, 108.845 61.984, 107.316 65.093 C 106.664 66.417, 104.883 70.313, 103.358 73.750 C 100.311 80.614, 97.805 81.861, 95.818 77.500 C 95.192 76.125, 94.301 75, 93.839 75 C 93.378 75, 93 73.875, 93 72.500 C 93 71.125, 92.550 70, 92 70 C 91.450 70, 91 68.897, 91 67.550 C 91 66.202, 90.438 64.740, 89.750 64.300 C 87.658 62.961, 85 57.364, 85 54.296 C 85 52.703, 84.508 50.908, 83.907 50.307 C 83.116 49.516, 83.286 48.493, 84.522 46.607 C 85.461 45.173, 86.628 44, 87.115 44 C 87.602 44, 88 43.325, 88 42.500 C 88 41.675, 88.438 41, 88.974 41 C 89.510 41, 90.649 39.646, 91.504 37.992 C 92.360 36.338, 95.521 32.483, 98.530 29.426 C 105.278 22.569, 105.732 18.971, 100 17.778 C 98.625 17.491, 96.810 16.964, 95.967 16.605 C 94.888 16.146, 92.426 18.256, 87.658 23.726 M 229 22 C 228.175 22.533, 223.847 22.976, 219.383 22.985 L 211.265 23 211.600 26.943 C 212 31.664, 210.880 32.255, 202.265 31.863 C 199.094 31.719, 195.600 32.087, 194.500 32.681 C 193.400 33.275, 190.025 33.775, 187 33.792 L 181.500 33.823 184.635 32.456 C 186.360 31.703, 191.760 30.729, 196.635 30.291 C 204.276 29.604, 205.459 29.253, 205.206 27.747 C 204.977 26.383, 205.624 26, 208.156 26 C 210.303 26, 211.064 25.664, 210.407 25.007 C 209.431 24.031, 202.284 24.636, 185.500 27.115 C 181.650 27.684, 174.375 28.741, 169.333 29.464 C 158.788 30.977, 158 31.317, 158 34.359 C 158 37.234, 156.212 39, 153.300 39 C 150.802 39, 150.763 39.128, 151.028 46.500 C 151.126 49.250, 151.314 65.675, 151.445 83 C 151.831 134.167, 152.972 182.887, 153.998 192 C 155.430 204.721, 155.549 224.007, 154.279 237.500 C 153.148 249.518, 152.423 253, 151.054 253 C 149.932 253, 148 257.791, 148 260.572 C 148 262.337, 148.768 263.342, 150.672 264.066 C 152.142 264.624, 153.928 264.858, 154.640 264.584 C 155.353 264.311, 156.202 264.518, 156.527 265.044 C 157.593 266.769, 162.227 266.045, 164.124 263.857 C 165.839 261.880, 166.927 261.718, 178.241 261.756 C 184.984 261.779, 192.127 261.392, 194.115 260.896 C 197.158 260.138, 216.635 258.353, 231.500 257.469 C 233.700 257.339, 237.525 257.110, 240 256.961 C 242.475 256.813, 245.963 257.021, 247.750 257.425 C 249.863 257.902, 251 257.781, 251 257.079 C 251 256.486, 251.627 256, 252.393 256 C 254.120 256, 255.145 253.542, 254.317 251.385 C 253.822 250.093, 254.138 249.909, 255.897 250.467 C 257.182 250.875, 258.717 250.650, 259.590 249.925 C 260.722 248.986, 261.366 248.966, 262.242 249.842 C 262.879 250.479, 264.155 251, 265.078 251 C 266 251, 267.315 251.675, 268 252.500 C 269.034 253.746, 268.914 254, 267.289 254 C 266.213 254, 265.035 253.702, 264.671 253.337 C 263.277 251.944, 258.178 252.080, 256.963 253.544 C 256.277 254.371, 255.929 255.262, 256.190 255.523 C 256.451 255.784, 260.228 256.232, 264.582 256.517 C 268.937 256.803, 273.309 257.290, 274.298 257.601 C 277.382 258.569, 279 256.167, 279 250.618 C 279 246.500, 278.588 245.224, 276.922 244.183 C 275.243 243.135, 274.550 243.129, 273.318 244.151 C 272.204 245.076, 265.184 245.500, 247.227 245.726 C 233.097 245.904, 222.159 246.453, 221.477 247.019 C 220.826 247.559, 219.214 247.931, 217.896 247.845 C 216.578 247.759, 211.450 248.051, 206.500 248.494 C 190.599 249.917, 182.034 250.249, 170.289 249.896 C 165.670 249.758, 164.433 247.842, 166.408 243.883 C 168.250 240.191, 168.541 226.422, 166.997 216 C 166.467 212.425, 165.767 193.975, 165.441 175 C 165.114 156.025, 164.459 138.925, 163.985 137 C 162.759 132.026, 162.797 52, 164.026 52 C 164.562 52, 165.007 50.313, 165.015 48.250 C 165.024 46.188, 165.361 43.998, 165.765 43.385 C 166.169 42.772, 169.200 41.939, 172.500 41.534 C 175.800 41.129, 179.304 40.368, 180.287 39.844 C 181.270 39.319, 186.317 38.253, 191.503 37.474 C 196.689 36.696, 201.735 35.617, 202.716 35.076 C 204.576 34.051, 218.296 32.469, 223.500 32.680 C 225.150 32.747, 229.088 33.134, 232.250 33.541 L 238 34.280 238 29 C 238 25.145, 237.528 23.362, 236.250 22.392 C 234.176 20.818, 231.088 20.651, 229 22 M 214.079 27.583 C 214.127 28.748, 214.364 28.985, 214.683 28.188 C 214.972 27.466, 214.936 26.603, 214.604 26.271 C 214.272 25.939, 214.036 26.529, 214.079 27.583 M 220 27 C 220 27.550, 220.477 28, 221.059 28 C 221.641 28, 221.840 27.550, 221.500 27 C 221.160 26.450, 220.684 26, 220.441 26 C 220.198 26, 220 26.450, 220 27 M 172.250 33.031 C 169.437 34.162, 169.380 35.598, 172.091 37.049 C 173.651 37.883, 174.920 37.862, 177.091 36.962 C 180.485 35.556, 180.754 34.474, 178.066 33.035 C 175.803 31.824, 175.254 31.824, 172.250 33.031 M 165 37.500 C 165 38.325, 165.675 39, 166.500 39 C 167.325 39, 168 38.325, 168 37.500 C 168 36.675, 167.325 36, 166.500 36 C 165.675 36, 165 36.675, 165 37.500 M 191.653 74.826 C 189.243 75.102, 188.909 75.485, 189.476 77.326 C 189.844 78.522, 190.149 81.750, 190.153 84.500 C 190.158 87.250, 190.621 94.900, 191.183 101.500 C 191.745 108.100, 192.133 115.676, 192.047 118.334 C 191.921 122.182, 192.335 123.556, 194.073 125.064 C 195.275 126.106, 196.598 126.749, 197.013 126.492 C 197.428 126.236, 201.073 125.557, 205.112 124.984 C 209.152 124.411, 212.895 123.505, 213.429 122.971 C 213.963 122.437, 216.050 122, 218.066 122 C 220.278 122, 224.596 120.567, 228.956 118.386 C 236.083 114.820, 236.172 114.728, 235.563 111.484 C 235.172 109.399, 235.417 107.704, 236.232 106.848 C 237.599 105.415, 240 97.262, 240 94.053 C 240 92.966, 237.940 90.479, 235.250 88.317 C 232.637 86.218, 230.275 84.223, 230 83.885 C 229.725 83.546, 228.488 82.954, 227.250 82.567 C 226.012 82.181, 225 81.446, 225 80.933 C 225 80.420, 224.127 80, 223.059 80 C 221.991 80, 220.872 79.602, 220.571 79.115 C 220.271 78.629, 217.882 77.912, 215.262 77.522 C 212.643 77.132, 210.050 76.455, 209.500 76.018 C 208.391 75.136, 196.110 74.316, 191.653 74.826 M 106 78.500 C 106 79.325, 106.675 80, 107.500 80 C 108.325 80, 109 79.325, 109 78.500 C 109 77.675, 108.325 77, 107.500 77 C 106.675 77, 106 77.675, 106 78.500 M 204 81 C 204 81.550, 204.423 82, 204.941 82 C 205.459 82, 206.160 81.550, 206.500 81 C 206.840 80.450, 206.416 80, 205.559 80 C 204.702 80, 204 80.450, 204 81 M 157.310 90.500 C 157.315 93.800, 157.502 95.029, 157.725 93.232 C 157.947 91.435, 157.943 88.735, 157.715 87.232 C 157.486 85.729, 157.304 87.200, 157.310 90.500 M 200.959 86.550 C 199.934 87.785, 199.909 89.382, 200.836 94.415 C 201.476 97.889, 202 103.211, 202 106.243 C 202 113.401, 203.136 114.379, 209.796 112.950 C 212.574 112.354, 215.723 111.109, 216.793 110.184 C 217.862 109.258, 220.076 107.375, 221.711 106 C 226.200 102.225, 227.967 98.915, 226.927 96.228 C 226.444 94.978, 225.250 93.661, 224.274 93.301 C 223.298 92.942, 221.108 91.602, 219.406 90.324 C 217.704 89.046, 215.173 88, 213.781 88 C 212.390 88, 209.338 87.325, 207 86.500 C 201.865 84.688, 202.508 84.683, 200.959 86.550 M 101 92.559 C 101 93.416, 101.450 93.840, 102 93.500 C 102.550 93.160, 103 92.459, 103 91.941 C 103 91.423, 102.550 91, 102 91 C 101.450 91, 101 91.702, 101 92.559 M 215.459 117.067 C 214.293 118.953, 215.802 119.252, 218.158 117.602 L 220.445 116 218.282 116 C 217.092 116, 215.821 116.480, 215.459 117.067 M 157.079 135.583 C 157.127 136.748, 157.364 136.985, 157.683 136.188 C 157.972 135.466, 157.936 134.603, 157.604 134.271 C 157.272 133.939, 157.036 134.529, 157.079 135.583 M 73.583 140.866 C 73.152 141.563, 73.070 142.403, 73.400 142.733 C 74.295 143.628, 75.271 142.312, 74.787 140.862 C 74.449 139.846, 74.213 139.846, 73.583 140.866 M 199.668 146.126 C 198.661 146.711, 197.016 146.976, 196.013 146.714 C 195.009 146.451, 192.908 147.080, 191.344 148.112 C 189.780 149.143, 186.813 149.990, 184.750 149.993 C 182.048 149.998, 181 150.429, 181 151.535 C 181 152.380, 180.315 154.115, 179.479 155.392 C 178.425 157, 178.107 159.219, 178.446 162.607 C 178.715 165.298, 178.946 177.434, 178.960 189.576 C 178.989 215.456, 179.739 219.307, 184.852 219.814 C 186.752 220.002, 188.640 219.503, 189.579 218.564 C 190.439 217.704, 192.020 217, 193.091 217 C 194.163 217, 196.822 215.875, 199 214.500 C 201.178 213.125, 203.352 212, 203.831 212 C 204.310 212, 206.818 210.875, 209.404 209.500 C 211.990 208.125, 214.687 207, 215.398 207 C 217.598 207, 219.672 203.794, 222.388 196.190 C 223.965 191.777, 224.988 186.824, 224.969 183.690 C 224.920 175.348, 223.137 163.858, 221.507 161.370 C 220.678 160.105, 220 158.535, 220 157.880 C 220 155.708, 214.930 150, 213.002 150 C 211.959 150, 208.990 148.875, 206.404 147.500 C 203.818 146.125, 201.657 145.014, 201.601 145.030 C 201.545 145.047, 200.676 145.540, 199.668 146.126 M 234.200 146.200 C 232.893 147.507, 232.523 159.193, 233.750 160.412 C 234.162 160.822, 235.029 165.284, 235.675 170.328 C 236.322 175.373, 237.333 181.750, 237.922 184.500 C 240.350 195.832, 240.301 198.278, 237.561 202.316 C 233.462 208.355, 234.461 212.200, 240.127 212.200 C 243.881 212.200, 253.723 209.257, 254.574 207.880 C 254.873 207.396, 256.329 206.993, 257.809 206.985 C 264.016 206.951, 278.971 200.385, 278.993 197.683 C 278.997 197.234, 280.068 195.434, 281.373 193.683 C 284.500 189.489, 285.605 181.136, 283.617 176.729 C 282.815 174.953, 281.893 172.567, 281.568 171.426 C 281.243 170.286, 280.195 168.472, 279.239 167.396 C 278.282 166.320, 276.639 163.879, 275.586 161.970 C 274.533 160.062, 271.260 156.137, 268.313 153.250 L 262.954 148 256.177 148 C 252.450 148, 248.904 148.496, 248.298 149.102 C 247.494 149.906, 246.156 149.498, 243.365 147.602 C 239.219 144.785, 236.094 144.306, 234.200 146.200 M 157.545 151.611 C 157.174 153.587, 157.150 155.483, 157.490 155.823 C 158.388 156.721, 159.967 153.865, 159.985 151.309 C 160.011 147.595, 158.258 147.812, 157.545 151.611 M 257.250 153.667 C 256.563 153.942, 256 155.029, 256 156.083 C 256 157.137, 255.325 158, 254.500 158 C 253.675 158, 253 158.450, 253 159 C 253 159.550, 252.170 160, 251.155 160 C 247.964 160, 245.675 163.491, 246.426 167.211 C 246.791 169.020, 247.942 176.350, 248.983 183.500 C 250.024 190.650, 250.903 196.613, 250.938 196.750 C 250.972 196.887, 253.813 196.982, 257.250 196.959 C 263.032 196.921, 263.806 196.640, 267.591 193.209 C 271.063 190.061, 271.786 188.706, 272.375 184.249 C 273.013 179.423, 272.155 175.631, 270.057 174 C 269.703 173.725, 268.096 170.861, 266.486 167.636 C 264.688 164.037, 262.194 160.841, 260.029 159.364 C 256.631 157.046, 256.585 156.935, 258.791 156.351 C 260.051 156.018, 260.923 155.268, 260.728 154.685 C 260.299 153.396, 258.929 152.995, 257.250 153.667 M 194 158.269 L 191.500 159.558 191.230 181.958 C 190.941 206.003, 191.080 206.684, 195.917 204.838 C 197.337 204.296, 200.684 203.688, 203.353 203.488 C 210.883 202.922, 211.481 201.900, 213 186.995 C 214.016 177.037, 214.054 173.413, 213.162 171.457 C 212.523 170.054, 211.986 167.915, 211.968 166.703 C 211.878 160.477, 200.278 155.032, 194 158.269 M 116 169.393 C 116 170.159, 116.675 171.045, 117.500 171.362 C 118.520 171.753, 119 171.308, 119 169.969 C 119 168.885, 118.325 168, 117.500 168 C 116.675 168, 116 168.627, 116 169.393 M 92.385 177.765 C 91.771 178.169, 90.954 179.512, 90.567 180.750 C 90.181 181.988, 89.498 183, 89.049 183 C 88.600 183, 87.990 183.931, 87.692 185.069 C 87.240 186.800, 87.612 186.656, 89.970 184.189 C 91.521 182.566, 93.092 180.285, 93.462 179.119 C 94.194 176.815, 94.068 176.656, 92.385 177.765 M 70.230 212.551 C 69.012 213.404, 67.570 214.935, 67.025 215.953 C 66.194 217.506, 66.348 217.722, 67.985 217.294 C 70.119 216.736, 71.355 215.438, 72.313 212.750 C 73.074 210.617, 73.002 210.610, 70.230 212.551 M 107.200 225.200 C 106.540 225.860, 106 227.917, 106 229.771 C 106 232.636, 106.207 232.936, 107.378 231.765 C 109.031 230.112, 110.527 224, 109.279 224 C 108.796 224, 107.860 224.540, 107.200 225.200 M 231.250 249.651 C 230.563 249.935, 230 250.771, 230 251.510 C 230 252.249, 229.213 253.059, 228.250 253.311 C 227.287 253.562, 227.963 253.820, 229.750 253.884 C 232.024 253.965, 233 253.549, 233 252.500 C 233 251.675, 233.450 251, 234 251 C 234.550 251, 235 251.675, 235 252.500 C 235 253.325, 235.435 254, 235.968 254 C 236.551 254, 236.605 253.106, 236.105 251.750 C 235.263 249.468, 233.519 248.714, 231.250 249.651 M 207.500 253 C 203.648 253.690, 203.620 253.721, 206.750 253.858 C 208.537 253.936, 210 254.450, 210 255 C 210 255.550, 211.575 256, 213.500 256 C 215.425 256, 217 255.566, 217 255.035 C 217 253.988, 213.639 251.912, 212.316 252.142 C 211.867 252.220, 209.700 252.606, 207.500 253 M 95.079 254.583 C 95.127 255.748, 95.364 255.985, 95.683 255.188 C 95.972 254.466, 95.936 253.603, 95.604 253.271 C 95.272 252.939, 95.036 253.529, 95.079 254.583 M 190.527 253.956 C 190.202 254.482, 189.245 254.648, 188.401 254.323 C 187.556 253.999, 185.776 254.317, 184.445 255.030 C 182.579 256.028, 182.279 256.631, 183.135 257.662 C 184.420 259.211, 190 259.486, 190 258 C 190 257.450, 191.688 256.948, 193.750 256.884 C 195.813 256.820, 196.713 256.562, 195.750 256.311 C 192.752 255.527, 193.828 254.139, 197.750 253.728 C 200.874 253.402, 200.633 253.308, 196.309 253.168 C 193.454 253.076, 190.852 253.430, 190.527 253.956 M 172.710 257 C 173.310 259.293, 176.518 259.698, 177.330 257.583 C 177.865 256.188, 176.109 255, 173.512 255 C 172.680 255, 172.382 255.743, 172.710 257 M 166.559 257.468 C 169.106 259.395, 170.560 259.417, 168.643 257.500 C 167.818 256.675, 166.575 256, 165.880 256 C 165.172 256, 165.469 256.644, 166.559 257.468" stroke="none" fill="black" fill-rule="evenodd"/>
</svg>