<svg xmlns="http://www.w3.org/2000/svg" width="300" height="300" viewBox="0 0 300 300" version="1.1">
	<path d="M 226.189 30.039 C 224.985 31.160, 223.966 32.398, 223.923 32.789 C 223.881 33.180, 223.717 37.325, 223.559 42 C 223.294 49.840, 223.455 50.671, 225.636 52.702 C 228.727 55.581, 228.712 57.396, 225.604 56.616 C 223.982 56.208, 223.023 56.496, 222.636 57.507 C 222.203 58.635, 220.344 59, 215.031 59 C 211.010 59, 208 59.428, 208 60 C 208 60.550, 205.924 61, 203.387 61 C 198.505 61, 182.959 64.417, 179.557 66.237 C 175.082 68.632, 173.746 71.715, 176.275 73.813 C 176.976 74.395, 179.893 75.182, 182.757 75.562 C 186.957 76.119, 188.501 75.894, 190.732 74.400 C 192.424 73.267, 197.192 72.066, 203 71.310 C 208.225 70.630, 213.967 69.780, 215.759 69.422 C 220.321 68.510, 221.636 70.049, 222.270 77.045 C 222.571 80.361, 223.289 83.643, 223.865 84.337 C 224.441 85.031, 225.188 87.377, 225.526 89.550 C 226.564 96.227, 225.416 96.876, 209.635 98.539 C 202.028 99.341, 195.414 99.756, 194.938 99.462 C 193.848 98.788, 190 102.558, 190 104.300 C 190 105.015, 190.540 106.140, 191.200 106.800 C 192.651 108.251, 197 108.401, 197 107 C 197 106.450, 197.675 106, 198.500 106 C 199.325 106, 200 106.627, 200 107.393 C 200 109.617, 201.787 109.738, 214.500 108.373 C 221.100 107.665, 229.527 106.808, 233.226 106.469 C 241.068 105.750, 254.852 101.222, 256.311 98.886 C 256.865 97.998, 257.011 96.472, 256.636 95.494 C 256.035 93.928, 255.098 93.797, 248.727 94.388 C 244.752 94.757, 239.750 95.530, 237.612 96.105 C 232.425 97.501, 231.128 96.090, 231.085 89 C 230.992 73.865, 232.680 67.514, 237.028 66.644 C 238.651 66.320, 240.646 66.311, 241.463 66.624 C 242.280 66.938, 243.581 66.562, 244.354 65.789 C 245.365 64.778, 247.826 64.463, 253.129 64.666 C 264.866 65.115, 265.184 65.111, 271.750 64.460 C 277.789 63.862, 278 63.746, 278 61.027 C 278 59.315, 277.315 57.905, 276.250 57.425 C 272.285 55.636, 257.265 54.429, 248.518 55.196 C 243.558 55.631, 238.150 56.102, 236.500 56.244 L 233.500 56.500 233.220 43.040 C 232.945 29.858, 232.492 28.059, 229.439 28.015 C 228.855 28.007, 227.392 28.918, 226.189 30.039 M 78 71.508 C 73.772 72.562, 69.701 74.310, 64.099 77.478 C 62.432 78.420, 60.959 78.555, 59.283 77.918 C 56.266 76.771, 53 78.348, 53 80.952 C 53 81.987, 53.463 82.988, 54.029 83.176 C 54.595 83.365, 55.157 84.865, 55.279 86.510 C 55.450 88.818, 55.101 89.468, 53.750 89.361 C 51.383 89.173, 51.534 91.228, 54 92.768 C 55.135 93.477, 56 95.100, 56 96.522 C 56 97.900, 56.552 99.911, 57.227 100.992 C 58.111 102.408, 58.172 103.732, 57.444 105.729 C 56.727 107.696, 56.789 109.516, 57.660 112 C 60.184 119.199, 58.414 125, 53.694 125 C 51.490 125, 48.765 129.322, 49.173 132.172 C 49.555 134.845, 55.030 137.407, 55.749 135.250 C 56.546 132.862, 60.446 133.917, 62.197 136.995 C 64.109 140.355, 66.137 140.190, 67.800 136.539 C 68.439 135.137, 70.106 133.916, 71.924 133.517 C 73.603 133.148, 75.234 132.431, 75.548 131.923 C 76.465 130.439, 82.723 130.836, 83.330 132.417 C 83.629 133.197, 83.330 134.043, 82.665 134.298 C 79.835 135.384, 77.934 163.668, 77.548 210.428 C 77.358 233.399, 77.646 238.337, 79.122 237.425 C 79.605 237.126, 80.006 230.271, 80.014 222.191 C 80.021 214.111, 80.299 206.488, 80.630 205.250 C 81.456 202.171, 84 202.359, 84 205.500 C 84 206.875, 83.662 208, 83.250 207.999 C 82.838 207.999, 82.609 215.625, 82.741 224.945 C 82.890 235.415, 82.601 242.129, 81.984 242.510 C 81.435 242.849, 80.716 242.423, 80.386 241.563 C 79.329 238.810, 78 239.888, 78 243.500 C 78 246.870, 79.213 248.083, 80.500 246 C 81.434 244.489, 83 244.802, 83 246.500 C 83 247.399, 82.078 248, 80.700 248 C 79.435 248, 77.970 248.430, 77.445 248.955 C 76.920 249.480, 69.968 250.042, 61.995 250.205 L 47.500 250.500 47.203 248 C 47.040 246.625, 46.440 244.304, 45.870 242.842 C 45.070 240.790, 45.187 239.644, 46.384 237.817 C 47.712 235.790, 47.805 233.512, 47.031 221.975 C 45.410 197.813, 41.992 189.838, 34.157 191.933 C 30.567 192.893, 30.384 195.063, 33.479 199.967 C 35.662 203.425, 36.147 205.553, 36.515 213.291 C 36.756 218.356, 37.441 226.100, 38.037 230.500 C 39.140 238.637, 38.608 248.995, 36.926 252.138 C 36.415 253.092, 34.230 254.867, 32.071 256.080 C 28.145 258.287, 26.462 261.433, 27.608 264.421 C 28.320 266.275, 28.211 266.268, 34 264.845 C 36.475 264.237, 40.750 263.585, 43.500 263.396 C 46.250 263.208, 50.750 262.651, 53.500 262.160 L 58.500 261.267 54 261.127 L 49.500 260.988 52.364 259.494 C 53.940 258.672, 56.838 258, 58.805 258 C 62.116 258, 62.240 258.104, 60.468 259.400 C 58.720 260.678, 59.045 260.862, 64.207 261.507 C 67.317 261.895, 70.455 261.976, 71.180 261.685 C 71.906 261.395, 71.300 261.122, 69.833 261.079 C 66.288 260.974, 65.781 258.960, 68.719 256.649 C 70.964 254.883, 71.203 254.874, 72.981 256.483 C 74.017 257.421, 74.622 258.821, 74.326 259.594 C 73.915 260.663, 74.782 261, 77.945 261 C 81.667 261, 82.214 261.315, 83.150 264 C 84.949 269.161, 89 267.515, 89 261.624 C 89 259.493, 89.559 259.365, 104.250 258.149 C 112.638 257.454, 120.287 256.901, 121.250 256.919 C 124.824 256.987, 125.691 256.935, 134.544 256.122 C 139.518 255.665, 144.493 254.807, 145.598 254.215 C 146.850 253.545, 148.153 253.484, 149.054 254.054 C 151.110 255.355, 161.430 255.217, 164.434 253.848 C 166.980 252.688, 168.752 249.425, 167.515 248.175 C 166.381 247.028, 144.699 245.342, 141.102 246.120 C 139.233 246.525, 128.208 246.890, 116.602 246.932 C 104.996 246.973, 93.297 247.297, 90.604 247.652 L 85.709 248.296 86.604 245.398 C 87.350 242.984, 87.414 233.954, 86.844 211.500 C 86.802 209.850, 87.178 206.925, 87.679 205 C 88.454 202.027, 89.036 201.487, 91.546 201.416 C 93.171 201.370, 95.562 200.987, 96.859 200.564 C 99.981 199.547, 107.628 198.843, 117.710 198.643 C 128.936 198.421, 131.224 195.546, 123.784 191.009 C 119.646 188.487, 111.132 188.357, 99.515 190.640 C 94.925 191.541, 90.426 191.994, 89.517 191.645 C 88.027 191.073, 87.928 189.107, 88.509 171.755 C 89.202 151.039, 90.112 143.486, 92.489 138.721 C 94.276 135.138, 94.432 131.832, 92.887 130.287 C 91.084 128.484, 92.547 127.421, 98.703 126.063 C 101.892 125.360, 105.805 124.383, 107.399 123.892 C 108.994 123.401, 111.750 123, 113.524 123 C 118.755 123, 123 121.847, 123 120.427 C 123 119.699, 121.919 117.937, 120.598 116.511 L 118.195 113.919 107.094 115.123 C 100.989 115.785, 95.690 116.023, 95.318 115.652 C 94.947 115.280, 96.180 113.744, 98.059 112.238 C 101.429 109.536, 104.455 106.579, 108.642 101.896 C 109.820 100.578, 112.070 98.321, 113.642 96.880 C 117.866 93.008, 118.530 91.924, 119.823 86.789 C 121.345 80.743, 121.318 76.489, 119.750 75.286 C 117.964 73.917, 103.740 71.986, 95.493 71.993 C 91.640 71.997, 87.140 71.637, 85.493 71.193 C 83.732 70.718, 80.648 70.848, 78 71.508 M 225.032 75.167 C 225.062 79.244, 225.153 79.382, 226.570 77.507 C 228.283 75.240, 228.111 71.858, 226.250 71.245 C 225.376 70.957, 225.010 72.137, 225.032 75.167 M 102.269 78.693 C 103.242 78.947, 104.592 78.930, 105.269 78.656 C 105.946 78.382, 105.150 78.175, 103.500 78.195 C 101.850 78.215, 101.296 78.439, 102.269 78.693 M 77.509 81.985 C 77.164 82.543, 75.809 83, 74.498 83 C 72.909 83, 71.522 84.001, 70.341 86 C 68.303 89.450, 65.065 89.963, 64.279 86.959 L 63.745 84.918 62.296 86.988 C 61.150 88.624, 61.055 90.045, 61.842 93.779 C 62.389 96.375, 63.155 103.086, 63.543 108.691 C 64.047 115.957, 64.648 119.035, 65.638 119.415 C 66.900 119.899, 74.870 115.887, 82.500 110.927 C 84.150 109.854, 86.287 108.704, 87.250 108.372 C 88.213 108.039, 89 107.369, 89 106.883 C 89 106.398, 89.523 106, 90.162 106 C 91.815 106, 101.321 99.859, 102.409 98.088 C 102.909 97.275, 105.076 94.886, 107.223 92.781 C 110.201 89.862, 111.054 88.306, 110.814 86.227 C 110.539 83.840, 109.939 83.409, 106 82.771 C 97.838 81.448, 78.177 80.905, 77.509 81.985 M 216.813 105.683 C 217.534 105.972, 218.397 105.936, 218.729 105.604 C 219.061 105.272, 218.471 105.036, 217.417 105.079 C 216.252 105.127, 216.015 105.364, 216.813 105.683 M 238.621 113.311 C 237.083 114.633, 236 116.604, 236 118.082 C 236 119.467, 235.526 121.074, 234.946 121.654 C 234.366 122.234, 234.028 125.362, 234.196 128.604 C 234.454 133.604, 234.842 134.650, 236.750 135.487 C 238.569 136.285, 238.985 137.243, 238.921 140.487 C 238.878 142.694, 238.592 143.825, 238.287 143 C 237.020 139.579, 235.884 138.968, 233.670 140.518 C 232.507 141.333, 230.332 142, 228.837 142 C 227.341 142, 225.872 142.397, 225.572 142.883 C 225.272 143.369, 222.433 144.087, 219.263 144.479 C 216.093 144.872, 213.050 145.560, 212.500 146.008 C 211.950 146.456, 209.250 147.279, 206.500 147.835 C 203.750 148.392, 199.025 149.531, 196 150.366 C 192.975 151.201, 186.675 152.851, 182 154.032 C 177.325 155.214, 172.719 156.590, 171.764 157.090 C 170.809 157.591, 169.211 158, 168.214 158 C 165.613 158, 164 159.975, 164 163.161 C 164 165.557, 164.554 166.072, 168.179 167.048 C 172.547 168.224, 180.534 167.563, 181.536 165.942 C 181.856 165.424, 183.104 164.997, 184.309 164.994 C 185.514 164.990, 187.625 164.411, 189 163.705 C 193.203 161.549, 201.094 158.760, 201.589 159.256 C 201.847 159.514, 204.632 159.066, 207.779 158.261 C 210.925 157.457, 216.429 156.243, 220.010 155.563 C 227.936 154.059, 231.359 152.379, 230.589 150.371 C 229.944 148.690, 231.356 149.296, 234.500 152.049 C 235.600 153.012, 237.400 153.963, 238.500 154.162 C 240.288 154.485, 240.578 155.615, 241.239 164.849 C 241.709 171.422, 241.605 175.869, 240.953 177.087 C 240.237 178.426, 240.277 179.650, 241.088 181.164 C 241.818 182.529, 242.011 185.391, 241.609 188.914 C 241.258 191.986, 241.003 202.375, 241.041 212 C 241.124 232.872, 240.971 241.458, 240.375 249.500 C 239.939 255.378, 239.914 256.556, 240.022 266.285 C 240.081 271.601, 239.222 273.977, 237.972 271.954 C 237.543 271.261, 237.445 265.476, 237.753 259.097 C 238.060 252.719, 238.270 244.575, 238.219 241 C 238.167 237.425, 238.109 232.794, 238.090 230.710 C 238.070 228.625, 237.661 226.217, 237.181 225.359 C 236.311 223.805, 234.659 244.709, 234.483 259.500 C 234.437 263.350, 234.310 267.063, 234.200 267.750 C 233.842 269.991, 230.391 269.068, 227.658 266 C 224.511 262.468, 222 262.091, 222 265.150 C 222 268.805, 227.090 277.928, 230.865 281.040 C 235.200 284.614, 236.410 284.768, 235.627 281.648 C 235.302 280.355, 235.297 279.036, 235.616 278.717 C 236.729 277.605, 239 279.229, 239 281.138 C 239 283.389, 241.671 284.729, 243.170 283.230 C 244.627 281.773, 245.778 252.284, 246.493 198.135 C 247.189 145.384, 246.934 147, 254.556 147 C 256.935 147, 259.137 146.588, 259.448 146.085 C 259.759 145.581, 263.498 144.843, 267.757 144.444 C 272.016 144.045, 276.512 143.055, 277.750 142.244 C 280.571 140.396, 280.654 136.890, 277.918 135.181 C 275.803 133.860, 268.664 134.463, 255.500 137.074 C 245.241 139.109, 245.663 139.307, 244.704 132 C 244.124 127.584, 244.237 123.855, 245.057 120.367 C 246.331 114.944, 246.013 113.613, 243.065 112.035 C 241.678 111.292, 240.616 111.597, 238.621 113.311 M 231.500 147 C 231.160 147.550, 231.584 148, 232.441 148 C 233.298 148, 234 147.550, 234 147 C 234 146.450, 233.577 146, 233.059 146 C 232.541 146, 231.840 146.450, 231.500 147 M 224 147.933 C 224 148.446, 223.041 149.170, 221.868 149.542 C 220.226 150.063, 220.048 150.412, 221.095 151.059 C 221.932 151.576, 223.070 151.341, 224.056 150.449 C 224.937 149.652, 226.158 149, 226.770 149 C 227.381 149, 228.160 148.550, 228.500 148 C 228.851 147.433, 228.010 147, 226.559 147 C 225.152 147, 224 147.420, 224 147.933 M 82.487 160.728 C 82.046 166.653, 81.748 174.641, 81.826 178.479 C 81.904 182.318, 81.576 186.875, 81.098 188.606 C 80.167 191.978, 81.102 194.673, 82.833 193.603 C 83.431 193.234, 83.850 189.817, 83.800 185.725 C 83.752 181.751, 83.785 172.246, 83.875 164.602 C 83.965 156.959, 83.870 150.536, 83.664 150.331 C 83.458 150.125, 82.928 154.804, 82.487 160.728 M 187.992 157.026 C 187.171 157.545, 185.543 157.976, 184.372 157.985 C 181.490 158.005, 179.276 160.676, 180.842 162.242 C 181.719 163.119, 182.291 163.109, 183.200 162.200 C 183.860 161.540, 185.674 161, 187.231 161 C 188.880 161, 190.314 160.345, 190.664 159.433 C 191.480 157.306, 189.858 155.846, 187.992 157.026 M 236.204 171 L 236.282 178.500 236.977 173 C 237.359 169.975, 237.324 166.600, 236.899 165.500 C 236.435 164.298, 236.158 166.492, 236.204 171 M 235.840 193.182 C 235.409 207.539, 235.971 222, 236.961 222 C 238.373 222, 239.110 209.335, 237.858 206.588 C 236.960 204.618, 236.956 203.392, 237.839 201.453 C 239.461 197.895, 239.272 185.942, 237.558 183.682 C 236.357 182.097, 236.137 183.313, 235.840 193.182 M 193.629 214.704 C 193.241 215.092, 191.704 215.566, 190.212 215.759 C 188.720 215.951, 186.628 216.968, 185.562 218.020 C 183.866 219.693, 183.788 220.236, 184.939 222.386 C 186.217 224.774, 186.577 224.843, 198.239 224.931 C 204.831 224.980, 210.729 225.332, 211.345 225.713 C 211.961 226.094, 215.848 226.435, 219.982 226.472 C 226.078 226.526, 227.819 226.189, 229.188 224.688 C 231.352 222.315, 230.498 220.129, 227.140 219.446 C 225.688 219.151, 222.925 218.507, 221 218.015 C 219.075 217.524, 214.228 216.810, 210.228 216.430 C 206.228 216.049, 202.714 215.346, 202.419 214.869 C 201.778 213.831, 194.635 213.698, 193.629 214.704 M 194 221 C 194 222.635, 194.667 223, 197.655 223 C 201.247 223, 201.279 222.965, 199.500 221 C 198.505 219.900, 196.860 219, 195.845 219 C 194.667 219, 194 219.723, 194 221 M 39 228.500 C 39 232.722, 39.348 234, 40.500 234 C 41.652 234, 42 232.722, 42 228.500 C 42 224.278, 41.652 223, 40.500 223 C 39.348 223, 39 224.278, 39 228.500 M 93.250 252.662 C 92.563 252.940, 92 253.804, 92 254.583 C 92 255.689, 93.591 255.967, 99.250 255.850 C 103.237 255.768, 105.150 255.504, 103.500 255.263 C 101.850 255.023, 100.140 254.191, 99.700 253.413 C 98.918 252.030, 95.735 251.659, 93.250 252.662 M 116 254 C 116 256.252, 116.751 256.425, 120.435 255.025 C 124.104 253.630, 123.600 252, 119.500 252 C 116.667 252, 116 252.381, 116 254 M 127.250 253.250 C 127.880 255.142, 131 255.411, 131 253.573 C 131 252.646, 130.145 252, 128.917 252 C 127.695 252, 127.005 252.517, 127.250 253.250 M 47.813 258.683 C 48.534 258.972, 49.397 258.936, 49.729 258.604 C 50.061 258.272, 49.471 258.036, 48.417 258.079 C 47.252 258.127, 47.015 258.364, 47.813 258.683 M 77.813 258.683 C 78.534 258.972, 79.397 258.936, 79.729 258.604 C 80.061 258.272, 79.471 258.036, 78.417 258.079 C 77.252 258.127, 77.015 258.364, 77.813 258.683" stroke="none" fill="black" fill-rule="evenodd"/>
</svg>