<svg xmlns="http://www.w3.org/2000/svg" width="300" height="300" viewBox="0 0 300 300" version="1.1">
	<path d="M 196.706 14.772 C 194.680 17.011, 192.825 25.871, 193.158 31.717 C 193.290 34.037, 193.105 36.228, 192.747 36.586 C 192.389 36.945, 187.133 37.323, 181.067 37.426 C 171.050 37.597, 169.813 37.827, 167.571 39.933 C 164.513 42.806, 163.337 47.497, 165.133 49.660 C 166.904 51.794, 177.867 50.960, 184.566 48.181 C 186.792 47.258, 188.375 47.192, 190.342 47.940 C 193.316 49.071, 193.261 48.954, 194.852 57.419 C 196.284 65.032, 195.523 66, 188.100 66 C 181.821 66, 178.438 67.718, 176.935 71.670 C 174.654 77.671, 179.379 81.947, 184.548 78.560 C 185.942 77.647, 188.976 76.777, 191.291 76.627 C 193.606 76.476, 196.654 75.866, 198.064 75.272 C 199.778 74.549, 203.095 74.476, 208.064 75.051 C 219.839 76.414, 223.969 76.244, 224.691 74.364 C 225.036 73.464, 224.894 72.055, 224.375 71.233 C 223.327 69.571, 215.894 66.383, 209 64.639 L 204.500 63.500 204.198 57.102 C 204.033 53.582, 204.310 50.290, 204.814 49.786 C 205.318 49.282, 208.379 48.676, 211.616 48.440 C 222.582 47.640, 229.089 45.900, 230.196 43.470 C 231.678 40.217, 229.550 36.595, 226.664 37.460 C 225.474 37.817, 219.609 38.376, 213.630 38.702 L 202.760 39.295 203.130 26.397 L 203.500 13.500 200.948 13.203 C 199.422 13.025, 197.716 13.656, 196.706 14.772 M 70.750 62.080 C 69.752 62.661, 69 64.286, 69 65.861 C 69 70.902, 52.751 87.442, 42.138 93.203 C 39.279 94.755, 38.983 95.378, 38.812 100.203 C 38.709 103.117, 38.502 107.075, 38.352 109 C 37.566 119.113, 38.204 203.513, 39.080 205.149 C 40.527 207.853, 44.374 207.412, 47.644 204.165 C 54.472 197.388, 60.992 189.918, 62.352 187.314 C 64.339 183.509, 69.628 178.589, 70.396 179.832 C 70.734 180.379, 70.371 183.679, 69.588 187.164 C 68.806 190.649, 67.869 196.425, 67.506 200 C 67.144 203.575, 65.753 212.125, 64.416 219 C 63.079 225.875, 61.490 234.200, 60.886 237.500 C 60.281 240.800, 58.665 247.897, 57.295 253.271 C 54.643 263.669, 54.756 266, 57.913 266 C 63.876 266, 67.327 256.802, 71.044 231 C 72.193 223.025, 73.582 214.700, 74.130 212.500 C 75.550 206.801, 78.964 185.990, 80.097 176.130 C 80.625 171.526, 81.495 166.943, 82.029 165.946 C 82.563 164.948, 83 162.781, 83 161.131 C 83 159.480, 83.427 157.008, 83.948 155.637 C 84.469 154.266, 84.963 148.949, 85.045 143.822 C 85.128 138.695, 85.826 128.950, 86.598 122.167 C 89.189 99.394, 89.476 90.640, 87.683 89.152 C 83.685 85.834, 79.542 90.496, 78.043 100 C 77.479 103.575, 76.720 112.013, 76.356 118.750 C 75.926 126.733, 75.305 131, 74.575 131 C 73.412 131, 70.608 126.164, 69.501 122.249 C 68.547 118.875, 65.770 117.773, 63.040 119.685 C 58.520 122.851, 61.767 131.969, 70.920 141.812 C 74.388 145.541, 74.469 146.298, 72.833 159.617 C 71.702 168.817, 71.578 169.134, 68.910 169.668 C 66.410 170.168, 59.690 176.756, 53.016 185.250 C 51.827 186.763, 49.988 188, 48.927 188 C 47.187 188, 46.992 187.200, 46.914 179.750 C 46.867 175.213, 46.645 165.425, 46.421 158 C 46.197 150.575, 46.475 138.875, 47.038 132 C 47.601 125.125, 48.081 118.825, 48.104 118 C 48.258 112.525, 50.617 101.188, 51.927 99.628 C 52.792 98.599, 55.975 96.066, 59 93.998 C 62.025 91.931, 66.220 88.611, 68.321 86.620 C 70.423 84.629, 72.546 83, 73.039 83 C 74.598 83, 82 72.413, 82 70.182 C 82 69.007, 80.875 67.309, 79.500 66.408 C 78.125 65.507, 77 64.195, 77 63.492 C 77 62.789, 76.288 61.941, 75.418 61.607 C 73.349 60.813, 72.837 60.865, 70.750 62.080 M 161.633 92.108 C 151.806 100.743, 152.625 98.838, 153.356 111.352 C 154.061 123.439, 156.724 134.933, 159.539 138.043 C 161.645 140.370, 166.812 140.654, 167.643 138.489 C 167.962 137.657, 167.409 134.620, 166.414 131.739 C 164.984 127.600, 164.650 123.885, 164.820 114.048 C 164.969 105.480, 165.421 101.351, 166.268 100.813 C 166.946 100.383, 171.887 100.024, 177.250 100.015 C 188.050 99.998, 187.519 99.600, 187.042 107.369 C 186.738 112.326, 189.018 130.937, 190.221 133.314 C 191.849 136.532, 189.396 138, 182.392 138 C 173.733 138, 167.287 139.810, 166.581 142.439 C 165.844 145.183, 165.857 149.462, 166.607 151.418 C 167.351 153.358, 171.864 153.518, 172.588 151.631 C 172.899 150.820, 175.416 149.991, 178.765 149.598 C 181.873 149.233, 185.110 148.347, 185.958 147.630 C 187.769 146.100, 216.312 142.922, 223 143.506 C 230.306 144.145, 239.247 146.076, 242.368 147.691 C 245.915 149.524, 250 148.125, 250 145.077 C 250 139.353, 240.347 134.868, 228.087 134.895 C 223.674 134.904, 219.806 134.495, 219.490 133.984 C 219.175 133.474, 219.678 131.895, 220.608 130.476 C 222.078 128.232, 222.211 126.135, 221.623 114.426 C 221.096 103.928, 221.229 100.850, 222.224 100.469 C 222.926 100.201, 225.750 100.548, 228.500 101.240 C 231.664 102.038, 236.254 102.275, 241 101.887 C 245.408 101.527, 249.015 101.680, 249.750 102.259 C 250.650 102.969, 251.004 107.478, 251.015 118.372 C 251.030 134.020, 251.882 138.161, 255.217 138.803 C 256.250 139.002, 257.479 137.975, 258.447 136.102 C 260.652 131.838, 261.156 99.056, 259.092 94.162 C 257.716 90.898, 257.583 90.838, 253.092 91.489 C 247.328 92.324, 226.668 92.236, 222 91.356 C 220.075 90.994, 215.575 90.626, 212 90.540 C 208.425 90.453, 196.499 90.007, 185.497 89.549 L 165.493 88.715 161.633 92.108 M 119 96.734 C 117.625 96.957, 114.281 97.784, 111.568 98.570 C 108.856 99.357, 105.447 100, 103.993 100 C 97.587 100, 94.530 110.650, 94.950 131.500 C 95.323 150.067, 95.416 195.288, 95.126 218 C 94.982 229.275, 95.270 245.342, 95.766 253.705 C 96.616 268.033, 96.807 269.025, 99.084 270.891 C 101.163 272.595, 101.779 272.686, 103.500 271.548 C 105.015 270.546, 105.401 269.411, 105.090 266.863 C 104.865 265.013, 104.608 241.225, 104.520 214 C 104.348 160.936, 105.202 144.777, 108.209 144.198 C 109.124 144.022, 112.880 145.328, 116.556 147.101 L 123.240 150.325 122.629 155.412 C 122.292 158.211, 122.013 162.412, 122.009 164.750 C 122 168.909, 121.928 169, 118.622 169 C 116.765 169, 114.667 168.303, 113.960 167.452 C 112.106 165.218, 108.567 166.025, 108.178 168.771 C 107.919 170.597, 108.604 171.336, 111.678 172.545 C 113.780 173.372, 116.175 174.489, 117 175.027 C 117.825 175.565, 119.485 176.432, 120.689 176.955 C 121.893 177.477, 123.372 178.826, 123.974 179.952 C 124.577 181.078, 125.899 182, 126.913 182 C 130.371 182, 131.316 179.280, 131.707 168.199 C 131.914 162.315, 132.740 152.248, 133.542 145.830 C 135.239 132.245, 135.461 107.199, 133.932 101.695 C 133.351 99.602, 132.341 97.728, 131.688 97.530 C 129.377 96.830, 121.466 96.334, 119 96.734 M 201.899 99.720 L 198.298 100.103 197.726 115.762 C 197.365 125.661, 197.531 132.124, 198.179 133.335 C 199.086 135.030, 200.058 135.195, 206.620 134.774 C 210.698 134.512, 214.258 134.075, 214.531 133.803 C 214.803 133.530, 214.350 131.688, 213.523 129.709 C 212.696 127.731, 212.275 125.446, 212.587 124.633 C 212.900 123.819, 212.445 120.383, 211.578 116.996 C 210.710 113.609, 210 108.448, 210 105.526 C 210 101.605, 209.586 100.055, 208.418 99.607 C 207.548 99.273, 206.536 99.076, 206.168 99.168 C 205.801 99.261, 203.879 99.509, 201.899 99.720 M 115.997 107.892 C 110.040 108.926, 108.407 110.806, 107.143 118.082 C 106.514 121.702, 106 126.487, 106 128.715 C 106 132.978, 107.247 133.953, 112.747 133.986 C 113.983 133.994, 116.742 135.579, 118.878 137.509 C 122.693 140.955, 122.773 140.978, 123.367 138.759 C 123.700 137.517, 123.979 131.858, 123.986 126.184 C 123.994 120.511, 124.482 114.968, 125.071 113.867 C 125.888 112.340, 125.765 111.290, 124.548 109.433 C 122.925 106.955, 122.172 106.820, 115.997 107.892 M 201.500 163.055 C 197.650 163.474, 190 164.268, 184.500 164.820 C 175.017 165.773, 167.053 167.291, 162.403 169.032 C 161.250 169.464, 159.315 171.925, 158.104 174.501 C 156.017 178.941, 155.957 179.764, 156.942 190.312 C 157.513 196.432, 158.699 205.348, 159.577 210.124 C 161.841 222.443, 166.191 226.441, 170.436 220.104 C 172.074 217.660, 173.233 217.125, 177.936 216.643 C 180.996 216.330, 186.200 215.568, 189.500 214.950 C 192.800 214.333, 196.850 213.710, 198.500 213.565 C 200.150 213.420, 203.975 212.781, 207 212.145 C 210.117 211.489, 217.123 211.172, 223.167 211.414 C 232.835 211.801, 234.002 211.656, 235.625 209.862 C 236.989 208.354, 237.163 207.480, 236.354 206.191 C 234.844 203.788, 218.512 202.928, 199.500 204.250 C 191.250 204.823, 183.093 205.231, 181.374 205.157 C 179.655 205.082, 176.192 205.640, 173.677 206.397 C 171.163 207.153, 168.857 207.524, 168.553 207.220 C 167.432 206.098, 168.040 199.922, 169.320 199.431 C 170.046 199.152, 173.084 198.811, 176.070 198.672 C 179.057 198.534, 182.559 197.835, 183.852 197.120 C 185.146 196.405, 187.171 196.099, 188.352 196.440 C 193.273 197.859, 208.285 198.131, 215.223 196.927 C 219.225 196.232, 224.256 195.719, 226.403 195.785 C 228.550 195.852, 231.108 195.477, 232.088 194.953 C 233.171 194.373, 234.798 194.353, 236.239 194.901 C 238.395 195.721, 238.717 196.721, 239.802 205.971 C 241.432 219.862, 241.287 220.077, 230.732 219.430 C 226.205 219.153, 220.202 218.436, 217.392 217.837 C 214.518 217.225, 209.271 217.029, 205.392 217.389 C 201.602 217.741, 197.600 218.069, 196.500 218.119 C 190.803 218.376, 172.267 222.449, 170.750 223.778 C 168.504 225.744, 168.337 232.808, 170.516 233.645 C 171.350 233.965, 174.153 233.528, 176.745 232.675 C 179.820 231.663, 181.676 231.476, 182.085 232.138 C 182.739 233.195, 181.318 237.929, 179.220 241.684 C 178.549 242.886, 178 244.376, 178 244.996 C 178 245.616, 176.879 248.493, 175.510 251.388 C 172.523 257.701, 171.616 262.003, 172.872 263.896 C 173.835 265.348, 174.554 265.162, 179.426 262.198 C 181.601 260.876, 183.225 258.247, 185.749 251.959 C 187.617 247.307, 189.694 242.825, 190.365 242 C 192.483 239.394, 196 231.368, 196 229.140 C 196 227.202, 196.590 226.982, 202.250 226.808 C 205.688 226.702, 209.625 226.667, 211 226.729 C 212.375 226.792, 219.222 226.925, 226.215 227.026 C 235.694 227.163, 239.224 227.565, 240.087 228.605 C 241.877 230.762, 245.761 230.296, 247.215 227.750 C 248.869 224.854, 248.789 204.830, 247.074 192.500 C 245.854 183.722, 242.417 173.137, 239.132 168.035 C 235.139 161.835, 235.598 161.988, 221.528 162.147 C 214.362 162.227, 205.350 162.636, 201.500 163.055 M 204.252 172.407 C 203.352 172.906, 200.115 173.395, 197.058 173.495 C 191.113 173.689, 179.414 176.412, 177.420 178.066 C 176.756 178.618, 173.922 179.340, 171.124 179.672 L 166.037 180.274 166.268 184.387 C 166.527 188.987, 166.854 189.085, 175 187 C 178.410 186.128, 182.704 186.136, 192.721 187.034 C 200.648 187.745, 209.659 187.921, 215.221 187.475 C 220.325 187.066, 226.525 186.676, 229 186.610 C 235.110 186.446, 236.281 185.540, 235.408 181.655 C 235.017 179.920, 234.691 177.914, 234.682 177.199 C 234.674 176.483, 233.365 174.802, 231.774 173.463 C 229.033 171.157, 228.278 171.042, 217.384 171.265 C 211.061 171.394, 205.151 171.908, 204.252 172.407 M 205.490 233.384 C 204.182 234.340, 203.629 235.906, 203.701 238.453 C 203.816 242.478, 205.208 244.011, 211.250 246.763 C 213.313 247.703, 215 248.816, 215 249.236 C 215 249.656, 215.787 250.003, 216.750 250.006 C 217.713 250.010, 219.789 250.685, 221.364 251.506 C 222.940 252.328, 225.235 253, 226.465 253 C 227.696 253, 230.860 254.148, 233.498 255.550 C 238.744 258.340, 241.721 258.417, 243.356 255.808 C 244.208 254.449, 243.851 253.662, 241.542 251.808 C 237.320 248.419, 234.757 247.075, 232.439 247.035 C 231.305 247.016, 229.474 246.159, 228.370 245.130 C 227.267 244.102, 224.594 242.673, 222.432 241.953 C 220.269 241.234, 217.509 239.600, 216.298 238.323 C 215.087 237.045, 213.694 236, 213.203 236 C 212.712 236, 211.495 235.100, 210.500 234 C 208.351 231.626, 207.960 231.578, 205.490 233.384" stroke="none" fill="black" fill-rule="evenodd"/>
</svg>