<svg xmlns="http://www.w3.org/2000/svg" width="300" height="300" viewBox="0 0 300 300" version="1.1">
	<path d="M 189 29.054 C 183.775 29.464, 177.928 30.295, 176.007 30.900 C 174.085 31.505, 171.048 32, 169.257 32 C 167.465 32, 166 32.450, 166 33 C 166 33.550, 165.325 34, 164.500 34 C 163.567 34, 163 34.944, 163 36.500 C 163 38.435, 163.515 39, 165.277 39 C 166.530 39, 168.592 39.727, 169.860 40.615 C 171.976 42.097, 172.466 42.098, 175.833 40.629 C 181.824 38.015, 187.908 37.050, 198.572 37.024 C 209.736 36.997, 216.182 38.616, 222 42.907 C 226.716 46.386, 226.672 46.295, 227.439 54.079 C 228.402 63.852, 227.543 65.055, 219.709 64.898 C 212.475 64.753, 202.370 65.778, 199.500 66.948 C 196.555 68.149, 181.629 70.275, 172.885 70.739 C 163.703 71.227, 164.134 71.876, 163.300 56.311 C 162.609 43.420, 162.139 42.611, 154.786 41.659 C 148.753 40.877, 147.141 42.873, 150.029 47.546 C 152.164 51.002, 158 67.015, 158 69.420 C 158 70.597, 156.979 71, 154 71 L 150 71 150 75.878 C 150 81.379, 151.674 83.555, 155.077 82.476 C 158.214 81.480, 158.967 83.366, 158.985 92.260 C 158.998 98.794, 158.684 100.290, 157 101.732 C 154.214 104.118, 154.506 106.649, 157.750 108.238 C 160.112 109.396, 160.467 110.123, 160.268 113.393 C 159.946 118.693, 161.481 121.195, 164.817 120.810 C 167.305 120.523, 167.522 120.115, 167.804 115.214 L 168.107 109.927 172.304 109.948 C 174.612 109.959, 177.850 109.977, 179.500 109.987 C 186.327 110.031, 213.235 107.789, 223.066 106.357 C 231.443 105.137, 233.887 104.411, 234.859 102.854 C 235.900 101.187, 235.712 100.446, 233.611 97.950 C 231.447 95.378, 231.267 94.601, 232.171 91.755 C 233.384 87.936, 234.609 77.542, 235.961 59.581 C 236.785 48.641, 236.700 46.169, 235.405 43.442 C 232.432 37.176, 226.691 33.486, 214.483 29.995 C 207.208 27.915, 204.689 27.822, 189 29.054 M 91.317 33.425 C 90.666 34.166, 89.828 36.399, 89.455 38.386 C 89.082 40.374, 88.377 42, 87.889 42 C 87.400 42, 87 43.077, 87 44.393 C 87 45.734, 86.231 47.099, 85.250 47.498 C 82.506 48.614, 61.962 54.059, 57.303 54.905 C 52.295 55.814, 49.427 57.827, 50.958 59.358 C 51.531 59.931, 52 61.660, 52 63.200 C 52 65.348, 52.473 66, 54.032 66 C 56.297 66, 66.037 62.862, 72.368 60.091 C 80.763 56.418, 81.432 56.254, 83.752 57.296 C 85.494 58.079, 86.432 57.919, 87.902 56.588 C 90.570 54.174, 91.286 55.944, 90.188 62.240 C 89.628 65.450, 89.633 70.033, 90.201 74 C 91.256 81.375, 91.300 84.928, 90.442 93.588 C 90.110 96.936, 90.326 102.313, 90.922 105.535 C 91.609 109.252, 91.656 111.744, 91.051 112.349 C 90.527 112.873, 87.938 113.682, 85.299 114.147 C 71.783 116.525, 69.072 117.096, 64 118.630 C 60.975 119.545, 55.125 120.636, 51 121.055 C 33.557 122.826, 30.974 123.716, 31.015 127.941 C 31.047 131.150, 32.790 132.403, 36.885 132.162 C 39.097 132.031, 41.811 132.489, 42.916 133.180 C 44.512 134.176, 45.863 134.184, 49.477 133.217 C 51.981 132.548, 55.020 132, 56.231 132 C 57.442 132, 60.248 131.365, 62.467 130.589 C 64.685 129.813, 70.100 128.440, 74.500 127.537 C 85.485 125.283, 90.221 123.878, 92.079 122.322 C 92.947 121.595, 94.866 121, 96.342 121 C 97.819 121, 99.910 120.449, 100.989 119.775 C 103.673 118.099, 105.972 120.124, 104.035 122.458 C 103.331 123.306, 102.248 124.011, 101.628 124.024 C 99.392 124.072, 95 135.388, 95 141.099 C 95 144.077, 94.521 148.085, 93.935 150.007 C 92.552 154.540, 90.765 166.679, 90.930 170.423 C 91 172.031, 90.529 173.673, 89.882 174.073 C 89.236 174.472, 88.632 176.982, 88.542 179.650 C 88.452 182.317, 88.031 185.400, 87.607 186.500 C 87.184 187.600, 86.424 189.534, 85.919 190.797 C 85.413 192.060, 85 194.678, 85 196.614 C 85 199.758, 85.229 200.062, 87.142 199.455 C 89.245 198.788, 89.270 198.912, 88.511 206.137 C 88.086 210.187, 87.684 219.238, 87.619 226.250 C 87.546 234.062, 87.110 239, 86.493 239 C 85.940 239, 83.240 236.979, 80.493 234.509 C 77.747 232.039, 74.638 229.735, 73.584 229.389 C 71.645 228.752, 66 223.144, 66 221.854 C 66 221.469, 64.903 219.850, 63.562 218.256 C 61.858 216.231, 61.030 213.874, 60.812 210.429 C 60.591 206.930, 60.065 205.461, 59 205.365 C 58.175 205.291, 56.938 205.179, 56.250 205.115 C 54.525 204.956, 54.679 199.913, 56.611 193.267 C 57.770 189.280, 58.106 185.030, 57.810 178.113 C 57.216 164.220, 53.605 158.912, 46.582 161.607 C 44.473 162.416, 44.545 167.256, 46.726 171.300 C 49.335 176.136, 49.218 192.502, 46.546 196.544 C 42.334 202.916, 41.566 220.871, 45.571 219.334 C 46.351 219.035, 46.723 218.361, 46.399 217.836 C 45.275 216.018, 47.125 203, 48.506 203 C 50.194 203, 49.968 214.551, 48.219 217.684 C 47.549 218.886, 47 220.579, 47 221.448 C 47 222.316, 46.459 223.893, 45.798 224.952 C 44.847 226.475, 44.884 227.416, 45.978 229.458 C 47.039 231.442, 47.086 232.314, 46.180 233.220 C 45.531 233.869, 45 235.837, 45 237.593 C 45 239.516, 44.400 241.016, 43.493 241.364 C 42.259 241.838, 42.077 241.223, 42.493 237.971 C 42.772 235.787, 43.230 232.200, 43.512 230 C 44.120 225.248, 42.438 224.539, 41.731 229.250 C 41.463 231.037, 40.482 234.975, 39.550 238 C 38.619 241.025, 37.440 246.779, 36.930 250.786 C 36.421 254.793, 35.077 259.890, 33.943 262.112 C 32.809 264.335, 32.020 267.131, 32.191 268.327 C 32.456 270.188, 33.143 270.500, 36.972 270.500 L 41.445 270.500 42.201 266.072 C 42.616 263.636, 43.416 261.184, 43.978 260.622 C 44.540 260.060, 45 257.045, 45 253.922 C 45 250.799, 45.675 246.629, 46.500 244.654 C 47.325 242.680, 48 238.800, 48 236.032 C 48 233.264, 48.450 231, 49 231 C 49.550 231, 50 229.075, 50 226.722 C 50 220.157, 55.738 216.438, 57.704 221.727 C 58.675 224.339, 65.924 234, 66.913 234 C 67.380 234, 69.166 235.435, 70.881 237.190 C 73.217 239.579, 74 239.956, 74 238.690 C 74 236.598, 75.350 236.512, 77 238.500 C 77.860 239.536, 77.898 240, 77.122 240 C 74.789 240, 76.140 242.868, 79.750 245.578 C 81.813 247.127, 83.725 248.643, 84 248.947 C 84.275 249.251, 88.325 251.469, 93 253.877 C 97.675 256.284, 102.388 258.871, 103.473 259.627 C 104.557 260.382, 106.540 261, 107.878 261 L 110.311 261 107.449 258.540 C 103.827 255.428, 104.857 254.293, 109.648 256.117 C 113.497 257.582, 115.325 260, 112.583 260 C 109.876 260, 110.849 262.931, 113.750 263.516 C 115.263 263.820, 117.882 264.504, 119.571 265.035 C 121.260 265.566, 123.880 266, 125.392 266 C 126.905 266, 128.818 266.675, 129.643 267.500 C 130.468 268.325, 132.911 269, 135.071 269 C 137.232 269, 139 269.450, 139 270 C 139 270.550, 139.930 271, 141.066 271 C 142.202 271, 143.973 271.450, 145.002 272.001 C 146.031 272.552, 151.289 273.454, 156.686 274.006 C 162.084 274.558, 170.100 275.446, 174.500 275.979 C 204.405 279.602, 223.951 280.060, 235.458 277.408 C 242.171 275.861, 248.925 273.397, 250 272.102 C 250.275 271.771, 252.075 270.628, 254 269.563 C 258.045 267.324, 259.923 265.202, 259.968 262.817 C 260.027 259.692, 256.260 259.683, 251.647 262.796 C 249.257 264.409, 245.996 265.978, 244.401 266.282 C 242.805 266.586, 239.700 267.317, 237.500 267.906 C 232.493 269.246, 201.519 269.279, 189.500 267.957 C 166.316 265.407, 151.535 263.121, 147.600 261.477 C 145.655 260.665, 142.919 260, 141.519 260 C 140.118 260, 138.191 259.603, 137.236 259.118 C 135.535 258.253, 128.960 256.389, 124 255.365 C 121.318 254.812, 119.638 254.203, 113.716 251.639 C 111.635 250.737, 109.103 250, 108.089 250 C 107.075 250, 105.685 249.325, 105 248.500 C 104.315 247.675, 102.985 247, 102.043 247 C 98.944 247, 94.872 241.182, 93.747 235.146 C 91.498 223.075, 92.888 199.828, 96.486 189.364 C 98.454 183.639, 106.572 179.751, 120.038 178.086 C 125.792 177.374, 132.075 176.298, 134 175.693 C 135.925 175.089, 138.012 174.694, 138.638 174.815 C 141.409 175.353, 145 173.001, 145 170.647 C 145 166.677, 142.862 165.777, 134.796 166.354 C 130.783 166.641, 125.592 166.883, 123.259 166.892 C 120.926 166.901, 116.201 167.385, 112.759 167.967 C 98.208 170.427, 99.693 170.564, 100.323 166.817 C 100.629 164.993, 101.972 156.750, 103.306 148.500 C 105.971 132.029, 107.367 127.523, 110.750 124.468 C 112.290 123.078, 113 121.301, 113 118.839 C 113 115.695, 113.409 115.091, 116.250 114.038 C 118.037 113.375, 120.193 112.476, 121.040 112.039 C 121.887 111.603, 124.956 110.919, 127.860 110.519 C 131.939 109.958, 133.319 109.313, 133.921 107.684 C 136.351 101.116, 130.192 99.189, 120.500 103.484 C 118.850 104.215, 115.627 105.079, 113.338 105.404 C 111.049 105.729, 107.152 106.863, 104.678 107.924 C 98.963 110.373, 97.387 109.319, 96.570 102.500 C 95.875 96.693, 95.876 96.069, 96.611 85.656 C 96.963 80.669, 96.736 76.776, 95.987 74.969 C 94.758 72.001, 95.486 56.449, 96.967 54.053 C 97.381 53.383, 102.396 51.987, 108.110 50.951 C 113.825 49.915, 120.750 48.568, 123.500 47.957 C 126.250 47.347, 130.475 46.769, 132.889 46.674 C 138.036 46.470, 140.255 44.217, 137.993 41.492 C 136.821 40.080, 135.256 39.899, 128.051 40.344 C 117.484 40.996, 110.215 42.225, 107.201 43.869 C 105.936 44.559, 103.686 44.983, 102.201 44.812 C 99.604 44.512, 99.513 44.301, 99.836 39.331 C 100.119 34.970, 99.856 33.993, 98.152 33.081 C 95.458 31.639, 92.765 31.775, 91.317 33.425 M 42.075 58.409 C 40.638 60.141, 41.441 63.571, 43.465 64.348 C 45.375 65.081, 47.222 62.591, 46.827 59.815 C 46.438 57.085, 43.818 56.310, 42.075 58.409 M 217.500 73.929 C 215.850 74.327, 213.517 75.181, 212.316 75.826 C 211.114 76.472, 208.527 77, 206.566 77 C 204.605 77, 203 77.450, 203 78 C 203 78.550, 201.515 79, 199.700 79 C 197.885 79, 195.973 79.415, 195.450 79.922 C 194.029 81.302, 179.061 84.155, 177.690 83.308 C 176.465 82.551, 172.568 82.673, 167.750 83.619 C 165.077 84.144, 165 84.345, 165.015 90.829 C 165.024 94.498, 165.414 98.105, 165.882 98.844 C 166.573 99.934, 171.242 100.081, 190.617 99.621 C 203.753 99.309, 216.864 98.774, 219.754 98.430 L 225.009 97.806 224.848 93.560 C 224.669 88.820, 225.421 87, 227.559 87 C 228.561 87, 229 85.841, 229 83.196 C 229 80.206, 228.294 78.708, 225.702 76.196 C 222.212 72.813, 222.171 72.802, 217.500 73.929 M 226 129.899 C 223.205 131.462, 205.930 132.167, 201.054 130.917 C 196.974 129.872, 195.961 129.972, 192.181 131.798 C 186.661 134.466, 181.499 135.534, 168.500 136.699 C 165.200 136.995, 162.050 137.582, 161.500 138.003 C 160.950 138.424, 158.925 139.096, 157 139.496 C 149.881 140.974, 147.931 145.347, 153.044 148.367 C 155.586 149.869, 156.616 149.977, 159.294 149.023 C 164.112 147.306, 185.663 143.934, 187.445 144.617 C 188.968 145.202, 189.394 146.271, 189.080 148.726 C 188.994 149.400, 189.594 151.248, 190.413 152.832 C 192.507 156.880, 194.287 175.539, 193.005 179.993 C 192.452 181.915, 192.014 191.815, 192.032 201.993 C 192.057 216.680, 192.367 220.901, 193.532 222.441 C 194.339 223.509, 195 224.971, 195 225.691 C 195 228.528, 192.016 226.668, 184.666 219.250 C 179.332 213.867, 175.996 209.446, 173.743 204.775 C 170.906 198.892, 170.153 198.047, 167.727 198.025 L 164.954 198 165.624 183.153 C 166.454 164.743, 166.110 163, 161.636 163 C 155.866 163, 154.940 165.108, 155.870 176.125 C 156.312 181.372, 157.016 186.217, 157.434 186.893 C 157.851 187.568, 157.635 189.467, 156.954 191.112 C 155.968 193.492, 155.968 194.950, 156.955 198.244 C 157.984 201.679, 157.958 202.564, 156.801 203.442 C 154.897 204.887, 153.264 209.511, 152.543 215.500 C 152.212 218.250, 150.992 223.555, 149.832 227.289 C 147.771 233.928, 147.766 234.109, 149.612 235.507 C 152.295 237.538, 155.753 237.330, 156.965 235.066 C 157.534 234.002, 158 230.682, 158 227.688 C 158 224.218, 158.512 221.820, 159.413 221.072 C 160.190 220.427, 161.133 217.560, 161.508 214.700 C 162.373 208.106, 164.644 204.160, 166.439 206.134 C 167.121 206.886, 168.432 209.554, 169.352 212.065 C 170.279 214.595, 173.164 218.829, 175.827 221.565 C 178.468 224.279, 180.952 227.363, 181.347 228.417 C 181.895 229.878, 182.343 230.057, 183.233 229.167 C 184.873 227.527, 187 227.715, 187 229.500 C 187 230.325, 186.339 231, 185.531 231 C 183.161 231, 184.782 233.442, 188.275 235.133 C 201.805 241.684, 210.177 244.916, 213.750 244.967 C 214.988 244.985, 216 245.501, 216 246.113 C 216 246.799, 217.238 247.045, 219.219 246.755 C 220.989 246.495, 223.802 246.651, 225.469 247.101 C 227.136 247.551, 232.046 248.095, 236.379 248.309 C 243.656 248.669, 247.756 248.092, 260 244.985 C 262.475 244.357, 265.400 243.728, 266.500 243.587 C 267.600 243.446, 271.988 242.270, 276.250 240.974 C 283.444 238.786, 284 238.422, 284 235.892 C 284 232.718, 282.671 232.043, 278.506 233.101 C 276.853 233.521, 271.675 234.607, 267 235.514 C 262.325 236.422, 256.700 237.552, 254.500 238.027 C 240.563 241.031, 229.191 239.826, 206.429 232.930 C 204.740 232.419, 202.617 232, 201.711 232 C 200.374 232, 200.089 231.012, 200.195 226.750 C 200.272 223.691, 199.674 220.245, 198.763 218.493 C 197.471 216.008, 197.282 212.716, 197.673 199.541 C 198.199 181.812, 198.834 179.289, 202.292 181.184 C 207.922 184.269, 237.098 183.045, 240.564 179.579 C 242.172 177.971, 241.722 174, 239.933 174 C 239.420 174, 239 173.325, 239 172.500 C 239 170.763, 232.391 170.326, 231.825 172.025 C 231.591 172.726, 227.768 172.725, 219.762 172.023 C 210.311 171.194, 207.263 171.264, 204.021 172.381 C 201.171 173.363, 199.995 173.436, 199.984 172.633 C 199.975 172.010, 199.791 165.650, 199.576 158.500 C 199.039 140.648, 198.698 141.455, 206.803 141.366 C 210.486 141.325, 218 140.739, 223.500 140.064 C 229 139.388, 234.790 138.883, 236.368 138.942 C 242.069 139.156, 244.164 133.648, 239.535 130.615 C 236.918 128.900, 228.577 128.459, 226 129.899 M 95.791 156 C 95.438 156.825, 94.846 159.750, 94.476 162.500 C 94.106 165.250, 93.405 168.243, 92.920 169.150 C 92.305 170.298, 92.487 170.973, 93.518 171.369 C 94.587 171.779, 95 171.231, 95 169.403 C 95 168.009, 95.475 165.981, 96.056 164.896 C 96.636 163.811, 96.959 161.028, 96.772 158.712 C 96.580 156.323, 96.156 155.149, 95.791 156 M 89.986 187.750 C 89.979 189.262, 89.676 191.625, 89.313 193 C 88.721 195.245, 88.824 195.360, 90.327 194.128 C 92.154 192.629, 92.717 185, 91 185 C 90.450 185, 89.994 186.238, 89.986 187.750 M 84 204.654 C 84 207.733, 84.214 208.067, 85.500 207 C 86.325 206.315, 87 204.958, 87 203.985 C 87 203.011, 86.325 201.955, 85.500 201.638 C 84.338 201.193, 84 201.873, 84 204.654 M 96 251.500 C 96.685 252.325, 97.951 253, 98.814 253 C 100.069 253, 99.995 252.707, 98.441 251.532 C 95.902 249.611, 94.416 249.592, 96 251.500 M 41.079 254.583 C 41.127 255.748, 41.364 255.985, 41.683 255.188 C 41.972 254.466, 41.936 253.603, 41.604 253.271 C 41.272 252.939, 41.036 253.529, 41.079 254.583 M 123.573 261.670 C 122.873 263.495, 124.499 264.961, 127.250 264.985 C 129.463 265.004, 129.600 261.444, 127.418 260.607 C 124.973 259.669, 124.266 259.864, 123.573 261.670 M 139.800 267.200 C 140.733 268.133, 141.267 268.133, 142.200 267.200 C 143.133 266.267, 142.867 266, 141 266 C 139.133 266, 138.867 266.267, 139.800 267.200 M 206.481 274.031 C 206.092 274.660, 206.231 275.631, 206.788 276.188 C 208.118 277.518, 214.222 276.172, 213.726 274.659 C 213.215 273.100, 207.370 272.593, 206.481 274.031" stroke="none" fill="black" fill-rule="evenodd"/>
</svg>