<svg xmlns="http://www.w3.org/2000/svg" width="300" height="300" viewBox="0 0 300 300" version="1.1">
	<path d="M 176.750 38.767 C 172.545 41.647, 172.044 44.317, 174.144 52.659 C 175.601 58.446, 174.897 58.939, 165 59.063 C 158.688 59.142, 156.787 59.591, 153.001 61.894 C 148.407 64.689, 146.793 67.636, 149.083 69.051 C 149.786 69.486, 155.231 69.585, 161.181 69.271 C 167.131 68.957, 172.057 68.880, 172.127 69.100 C 172.197 69.320, 172.535 74.399, 172.877 80.386 L 173.500 91.272 177 93.089 C 178.925 94.088, 181.086 95.416, 181.801 96.040 C 183.430 97.461, 191.928 95.676, 196.807 92.889 C 201.037 90.473, 202.467 90.512, 204.884 93.106 C 207.491 95.904, 209 94.757, 209 89.975 C 209 87.826, 209.636 84.590, 210.412 82.784 C 211.189 80.978, 212.554 77.420, 213.446 74.878 C 215.035 70.350, 215.154 70.257, 219.284 70.319 C 221.603 70.353, 224.850 69.884, 226.500 69.275 C 232.395 67.101, 237.285 65.781, 240.194 65.580 C 245.649 65.202, 245.795 59.740, 240.387 58.382 C 237.635 57.691, 227.072 59.071, 220.358 60.999 C 216.770 62.029, 215.851 61.949, 213.479 60.394 C 210.807 58.644, 210.756 58.428, 211.364 51.550 C 211.707 47.672, 212.274 42.813, 212.625 40.750 C 213.198 37.373, 213.046 37, 211.091 37 C 207.289 37, 201.084 40.817, 200.390 43.583 C 199.765 46.074, 200.329 52.203, 201.603 56.750 C 202.225 58.971, 202.109 59, 192.617 59 L 183 59 183.035 52.750 C 183.055 49.229, 183.695 45.408, 184.500 44 C 185.286 42.625, 185.945 40.263, 185.965 38.750 C 185.995 36.385, 185.615 36.014, 183.250 36.100 C 181.738 36.154, 178.813 37.355, 176.750 38.767 M 76.970 48.306 C 75.579 49.607, 73.216 50.980, 71.720 51.355 C 69.071 52.020, 69.001 52.226, 69.024 59.269 C 69.038 63.246, 69.496 68.437, 70.042 70.804 C 71.625 77.667, 70.675 78.091, 53.773 78.063 C 41.206 78.042, 39.129 78.276, 36.495 80.013 C 34.848 81.099, 32.681 81.990, 31.680 81.993 C 30.367 81.998, 29.950 82.626, 30.180 84.250 C 30.553 86.870, 30.912 86.935, 48.870 87.637 C 58.570 88.017, 62.074 87.788, 65.104 86.575 L 68.969 85.029 69.566 87.764 C 69.894 89.269, 70.589 91.638, 71.111 93.028 C 71.632 94.419, 72.113 102.475, 72.180 110.932 C 72.283 124.096, 72.065 126.479, 70.667 127.502 C 69.768 128.159, 63.281 129.222, 56.251 129.864 C 49.221 130.506, 41.901 131.420, 39.984 131.894 C 38.068 132.368, 33.919 133.332, 30.763 134.035 C 21.606 136.075, 18.818 141.235, 26.585 141.770 C 36.022 142.419, 40.233 142.165, 52 140.232 C 58.875 139.103, 68.213 137.856, 72.750 137.460 C 79.778 136.848, 81 136.967, 81 138.261 C 81 139.096, 78.975 140.732, 76.500 141.895 C 71.338 144.321, 70.954 145.927, 73.603 154.025 C 74.973 158.214, 75.117 162.529, 74.595 183.713 C 74.259 197.346, 73.929 209.625, 73.862 211 C 73.795 212.375, 74.060 214.450, 74.451 215.612 C 75.445 218.567, 72.944 219.283, 68.275 217.381 C 60.035 214.024, 49.782 208.596, 49.298 207.334 C 49.016 206.600, 48.307 206, 47.722 206 C 47.136 206, 45.872 205.289, 44.912 204.420 C 43.627 203.257, 42.676 203.103, 41.305 203.837 C 39.526 204.789, 39.449 204.182, 39.584 190.167 C 39.729 175.070, 41.021 167.313, 43.552 166.342 C 44.349 166.036, 45 164.943, 45 163.912 C 45 161.670, 40.419 160.181, 38.727 161.873 C 38.107 162.493, 36.868 163, 35.974 163 C 33.646 163, 30 167.224, 30 169.921 C 30 171.182, 30.728 176.192, 31.618 181.055 C 32.958 188.383, 33.036 191.063, 32.074 196.699 C 29.108 214.076, 28.711 218.307, 29.871 220.165 C 30.501 221.174, 30.634 222, 30.166 222 C 28.982 222, 25 238.709, 25 243.676 C 25 248.040, 26.941 250.620, 29.487 249.643 C 30.409 249.289, 31.004 247.781, 31.009 245.781 C 31.014 243.977, 32.139 238.100, 33.509 232.722 C 34.879 227.344, 36 220.572, 36 217.672 C 36 214.773, 36.487 211.913, 37.082 211.318 C 38.542 209.858, 43.801 212.492, 45.148 215.359 C 46.086 217.354, 60.058 225, 62.767 225 C 63.418 225, 65.425 225.898, 67.226 226.996 C 69.027 228.094, 71.625 228.942, 73 228.880 C 74.539 228.811, 74.860 228.598, 73.835 228.327 C 71.749 227.775, 70.567 225, 72.417 225 C 75.027 225, 79.481 227.979, 79.490 229.731 C 79.498 231.064, 80.775 231.747, 84.669 232.500 C 87.513 233.050, 90.175 233.838, 90.586 234.250 C 91.587 235.255, 97 235.213, 97 234.200 C 97 233.760, 96.460 232.860, 95.800 232.200 C 94.867 231.267, 95.367 231.018, 98.050 231.079 C 99.947 231.122, 100.938 231.385, 100.250 231.662 C 99.563 231.940, 99 232.931, 99 233.865 C 99 235.807, 103.802 237.420, 114 238.903 C 120.688 239.875, 131.951 242.065, 142.500 244.444 C 145.800 245.188, 148.708 245.597, 148.962 245.353 C 149.216 245.109, 148.879 244.036, 148.212 242.968 C 145.600 238.785, 146.748 238.161, 152.576 240.596 L 156.396 242.192 154.062 243.953 C 150.746 246.454, 152.295 247.066, 165.893 248.627 C 172.277 249.359, 182.675 250.650, 189 251.494 C 210.379 254.348, 221.442 255.155, 238.397 255.096 C 251.932 255.050, 255.766 254.728, 257.668 253.482 C 259.279 252.426, 260.572 252.221, 261.685 252.843 C 262.757 253.443, 264.472 253.283, 266.631 252.381 C 268.449 251.621, 271.286 251, 272.937 251 C 276.105 251, 283.076 247.818, 285.009 245.490 C 285.638 244.731, 286.006 243.073, 285.827 241.805 C 285.434 239.034, 284.940 239.039, 269 241.969 C 262.675 243.132, 254.125 244.558, 250 245.138 C 235.030 247.242, 197.733 244.319, 166.500 238.594 C 162.100 237.787, 155.125 236.624, 151 236.010 C 146.875 235.396, 141.250 234.444, 138.500 233.895 C 135.750 233.346, 126.525 231.576, 118 229.960 C 95.243 225.649, 84.199 222.689, 80.116 219.807 L 77.731 218.123 79.935 205.812 C 82.928 189.088, 84.289 183.729, 85.660 183.277 C 86.298 183.066, 87.882 184.038, 89.179 185.437 C 91.424 187.859, 91.826 187.937, 97.519 187.056 C 100.809 186.546, 108.631 185.630, 114.903 185.018 C 127.804 183.761, 130 182.956, 130 179.484 C 130 175.948, 127.516 175.652, 108.821 176.965 C 99.845 177.595, 90.588 177.973, 88.251 177.805 L 84.003 177.500 83.996 171 C 83.992 167.425, 83.522 162.819, 82.951 160.764 C 81.696 156.245, 83.857 147.714, 86.998 144.788 C 88.110 143.752, 89 141.635, 89 140.028 C 89 136.047, 90.728 135.674, 108.435 135.838 C 121.014 135.954, 123.656 135.717, 125.185 134.333 C 126.183 133.429, 127 132.101, 127 131.380 C 127 128.341, 122.548 127.706, 99.042 127.393 C 86.094 127.221, 75.407 127.062, 75.294 127.040 C 75.181 127.018, 75.713 125.230, 76.477 123.066 C 77.292 120.754, 78.021 113.640, 78.242 105.816 C 78.654 91.280, 80.102 86.419, 84.268 85.579 C 85.496 85.332, 91.146 84.648, 96.824 84.060 C 102.502 83.472, 108.014 82.527, 109.074 81.960 C 111.258 80.791, 111.619 77.743, 109.750 76.238 C 108.701 75.394, 93.323 75.432, 82.010 76.307 C 79.651 76.490, 79.476 76.138, 78.680 69.604 C 77.763 62.073, 79.169 56.417, 83.079 51.909 C 84.175 50.645, 84.939 48.911, 84.777 48.056 C 84.299 45.526, 79.786 45.671, 76.970 48.306 M 166.570 63.886 C 166.269 64.374, 166.891 65, 167.953 65.278 C 170.094 65.837, 171.231 65.183, 170.414 63.861 C 169.719 62.737, 167.270 62.754, 166.570 63.886 M 183.005 64.894 C 181.633 65.275, 180.362 66.357, 180.181 67.297 C 179.908 68.719, 180.459 68.929, 183.453 68.546 C 187.823 67.986, 189 67.327, 189 65.441 C 189 63.919, 187.123 63.748, 183.005 64.894 M 183.437 71.475 C 182.315 72.339, 181.519 80.363, 181.921 86.750 C 182.040 88.630, 187.570 88.165, 195.500 85.609 L 202.500 83.352 202.622 77.595 C 202.696 74.119, 202.300 71.697, 201.622 71.479 C 198.758 70.561, 184.627 70.558, 183.437 71.475 M 72.032 74.250 C 72.014 75.763, 72.423 77, 72.941 77 C 74.684 77, 74.946 75.308, 73.500 73.397 C 72.139 71.600, 72.062 71.644, 72.032 74.250 M 73.667 81.667 C 72.693 82.640, 72.852 86.790, 73.887 87.430 C 75.632 88.509, 77.220 85.280, 76.034 83.064 C 74.820 80.795, 74.643 80.691, 73.667 81.667 M 34.417 84.134 C 34.123 84.610, 35.259 85, 36.941 85 C 38.623 85, 40 84.827, 40 84.617 C 40 83.768, 34.915 83.329, 34.417 84.134 M 59.813 84.683 C 60.534 84.972, 61.397 84.936, 61.729 84.604 C 62.061 84.272, 61.471 84.036, 60.417 84.079 C 59.252 84.127, 59.015 84.364, 59.813 84.683 M 162 111.008 C 154 111.634, 149.755 114.100, 150.198 117.864 C 150.436 119.884, 151.243 120.596, 154 121.216 C 155.925 121.648, 159.300 121.772, 161.500 121.490 C 163.700 121.208, 174.725 120.750, 186 120.473 C 209.778 119.888, 230.530 118.322, 233.163 116.913 C 235.575 115.622, 235.642 111.020, 233.250 110.945 C 221.513 110.576, 166.908 110.625, 162 111.008 M 171.069 116.416 C 170.135 117.542, 170.264 117.909, 171.697 118.205 C 172.689 118.410, 174.522 118.393, 175.772 118.168 C 177.576 117.843, 177.808 117.474, 176.900 116.379 C 175.420 114.596, 172.565 114.614, 171.069 116.416 M 190 132.702 C 186.975 132.885, 180.503 133.460, 175.617 133.981 C 169.516 134.632, 166.113 134.596, 164.748 133.865 C 163.190 133.031, 162.187 133.225, 160.111 134.760 C 158.654 135.837, 156.418 137.050, 155.144 137.454 C 153.028 138.126, 152.866 138.640, 153.283 143.345 C 153.535 146.180, 154.474 151.650, 155.370 155.500 C 156.267 159.349, 157 164.455, 157 166.846 C 157 174.823, 161.398 185.935, 163.661 183.673 C 164.645 182.688, 164.744 163.138, 163.803 155.418 C 163.310 151.366, 163.318 147.315, 163.823 145.950 C 164.695 143.593, 164.879 143.563, 179.778 143.388 C 188.068 143.290, 195.222 142.994, 195.676 142.730 C 196.129 142.466, 197.354 142.561, 198.397 142.940 C 200.136 143.572, 200.029 143.902, 197.105 146.893 C 195.152 148.890, 194.116 150.805, 194.435 151.828 C 195.519 155.316, 193.435 156.344, 183.828 157.058 C 165.470 158.423, 160.441 162.911, 173.918 165.900 C 178.393 166.893, 181.919 166.998, 187.543 166.307 C 196.147 165.249, 197 165.799, 197 172.415 C 197 176.503, 197.871 176.164, 181.571 178.418 C 170.624 179.932, 167.190 181.447, 168.278 184.283 C 169.102 186.431, 175.517 186.788, 195 185.774 C 204.625 185.272, 215.875 184.896, 220 184.938 C 228.837 185.028, 230.347 184.150, 232.003 177.959 C 232.659 175.507, 233.529 173.050, 233.937 172.500 C 234.345 171.950, 235.485 167.984, 236.471 163.687 C 239.465 150.635, 236.882 139.603, 230.070 136.355 C 226.963 134.874, 201.832 131.730, 197 132.218 C 196.175 132.302, 193.025 132.519, 190 132.702 M 183 139 C 183 139.550, 183.927 140, 185.059 140 C 186.191 140, 186.840 139.550, 186.500 139 C 186.160 138.450, 185.234 138, 184.441 138 C 183.648 138, 183 138.450, 183 139 M 207.683 145.692 C 207.374 147.236, 206.807 149.785, 206.424 151.356 C 205.943 153.323, 206.158 154.486, 207.113 155.091 C 209.103 156.351, 214.805 156.200, 218.723 154.783 C 222.609 153.378, 225.318 154.491, 225.798 157.690 C 226.272 160.840, 223.511 162.232, 215.735 162.763 C 206.852 163.370, 205 164.245, 205 167.835 C 205 169.356, 204.535 171.065, 203.967 171.633 C 203.399 172.201, 203.198 173.353, 203.521 174.194 C 204.072 175.631, 211.821 176.825, 224 177.349 L 227.500 177.500 228 171 C 228.275 167.425, 228.841 163.975, 229.258 163.332 C 230.545 161.350, 228.137 147.777, 226.175 145.948 C 225 144.853, 221.663 144.054, 216.321 143.588 L 208.244 142.884 207.683 145.692 M 85 186 C 85 186.550, 85.675 187, 86.500 187 C 87.325 187, 88 186.550, 88 186 C 88 185.450, 87.325 185, 86.500 185 C 85.675 185, 85 185.450, 85 186 M 179.283 195.523 C 176.360 196.752, 172 203.692, 172 207.116 C 172 207.932, 171.598 209.028, 171.107 209.550 C 168.126 212.720, 168.070 228.969, 171.027 232.533 C 172.936 234.833, 175 233.075, 175.006 229.143 C 175.013 224.119, 176.735 218.379, 179.593 213.852 C 180.917 211.755, 182 209.432, 182 208.689 C 182 207.947, 183.126 205.125, 184.501 202.419 C 185.877 199.714, 186.815 197, 186.586 196.389 C 185.906 194.576, 182.496 194.172, 179.283 195.523 M 205.372 196.472 C 205.057 197.294, 206.174 199.601, 207.904 201.700 C 209.607 203.765, 211 205.949, 211 206.552 C 211 207.734, 224.535 220.382, 228.863 223.243 C 230.313 224.202, 232.542 224.990, 233.816 224.993 C 235.089 224.997, 236.889 225.387, 237.816 225.861 C 241.754 227.874, 246.896 227.906, 249.222 225.933 C 251.445 224.048, 251.454 223.965, 249.594 222.526 C 248.545 221.715, 245.342 220.369, 242.475 219.536 C 239.607 218.702, 236.743 217.395, 236.108 216.631 C 235.474 215.866, 233.728 214.995, 232.228 214.694 C 230.727 214.393, 228.725 213.327, 227.778 212.324 C 222.553 206.789, 219.934 203.772, 217.368 200.330 C 215.797 198.224, 214.059 196.169, 213.506 195.765 C 211.683 194.434, 205.964 194.930, 205.372 196.472 M 84.425 228.879 C 85.159 230.066, 89 231.018, 89 230.013 C 89 229.184, 86.565 228, 84.859 228 C 84.322 228, 84.127 228.396, 84.425 228.879 M 114.500 236 C 117.231 237.174, 118 237.174, 118 236 C 118 235.450, 116.763 235.032, 115.250 235.070 C 112.813 235.133, 112.728 235.238, 114.500 236 M 138 239.500 C 138 240.362, 138.902 241, 140.122 241 C 141.896 241, 142.040 240.753, 141 239.500 C 140.315 238.675, 139.360 238, 138.878 238 C 138.395 238, 138 238.675, 138 239.500 M 160 243.893 C 160 245.049, 162.520 246, 165.582 246 C 169.052 246, 168.565 244.363, 164.875 243.625 C 160.722 242.794, 160 242.834, 160 243.893 M 193.122 247.904 C 191.146 249.155, 192.671 251, 195.681 251 C 197.713 251, 198.014 250.721, 197.131 249.658 C 196.519 248.920, 196.313 248.020, 196.675 247.658 C 197.647 246.686, 194.725 246.888, 193.122 247.904 M 207 251.142 C 211.551 252.361, 211.566 252.362, 218 252.039 C 222.751 251.801, 223.092 251.659, 220.500 251 C 218.850 250.580, 214.350 250.229, 210.500 250.221 C 204.339 250.207, 203.919 250.317, 207 251.142 M 249.573 250.950 C 247.999 251.522, 247.924 251.757, 249.164 252.233 C 250.845 252.878, 253.717 251.544, 252.357 250.750 C 251.886 250.475, 250.633 250.565, 249.573 250.950 M 234.250 251.689 C 235.213 251.941, 236.787 251.941, 237.750 251.689 C 238.713 251.438, 237.925 251.232, 236 251.232 C 234.075 251.232, 233.287 251.438, 234.250 251.689" stroke="none" fill="black" fill-rule="evenodd"/>
</svg>