<svg xmlns="http://www.w3.org/2000/svg" width="300" height="300" viewBox="0 0 300 300" version="1.1">
	<path d="M 108.392 28.750 C 104.884 29.336, 103.650 32.941, 104.841 39.118 C 106.158 45.945, 106.053 52.721, 104.614 53.872 C 103.282 54.937, 98.559 55.753, 86.601 56.982 C 77.446 57.924, 74.239 59.275, 77.008 61.026 C 77.829 61.545, 79.850 62.044, 81.500 62.136 C 92.713 62.757, 94 62.578, 94 60.393 C 94 59.627, 94.450 59, 95 59 C 95.550 59, 96 59.675, 96 60.500 C 96 61.325, 96.675 62, 97.500 62 C 98.325 62, 99 61.298, 99 60.441 C 99 59.552, 99.478 59.177, 100.112 59.569 C 100.723 59.947, 101.616 59.636, 102.096 58.878 C 103.644 56.435, 103.085 73.262, 101.410 79.540 C 99.090 88.233, 96.848 99.732, 96.295 105.773 C 95.878 110.332, 95.425 111.246, 92.956 112.523 C 91.385 113.335, 88.961 114, 87.571 114 C 86.180 114, 82.094 114.968, 78.491 116.150 C 72.124 118.241, 71.902 118.249, 70.578 116.438 C 69.538 115.015, 68.896 114.840, 67.858 115.695 C 67.111 116.311, 63.886 117.296, 60.692 117.884 C 57.498 118.472, 54.460 119.216, 53.942 119.536 C 52.434 120.468, 52.855 125.635, 54.553 127.044 C 56.817 128.923, 67.915 126.763, 70.178 124.003 C 71.298 122.637, 72.086 122.330, 72.549 123.079 C 73.485 124.594, 82.346 123.436, 88.916 120.940 C 91.724 119.873, 95.105 119, 96.429 119 C 99.871 119, 102 118.004, 102 116.393 C 102 114.687, 103.681 114.543, 104.234 116.201 C 104.454 116.862, 105.954 117.424, 107.567 117.451 C 111.181 117.511, 111.416 119.610, 108 121.312 C 103.555 123.528, 103.174 125.904, 102.436 156 C 102.051 171.675, 101.364 185.224, 100.908 186.109 C 100.453 186.994, 99.767 194.348, 99.384 202.451 C 98.637 218.264, 98.044 219.746, 93.736 216.584 C 92.506 215.682, 88.350 212.860, 84.500 210.314 C 80.650 207.768, 75.993 204.211, 74.150 202.409 C 71.047 199.375, 70.878 198.890, 71.854 195.817 C 73.230 191.486, 77.178 171.695, 77.753 166.250 C 78.145 162.531, 77.954 162, 76.223 162 C 72.530 162, 71.494 164.586, 68.008 182.500 C 67.366 185.800, 65.576 191.200, 64.030 194.500 C 62.483 197.800, 60.680 202.975, 60.022 206 C 59.364 209.025, 58.023 213.300, 57.042 215.500 C 56.061 217.700, 54.218 222.425, 52.946 226 C 51.674 229.575, 49.816 233.573, 48.816 234.885 C 46.180 238.346, 46.404 242.004, 49.250 241.985 C 50.487 241.976, 52.005 241.639, 52.621 241.235 C 54.252 240.166, 58.245 231.999, 63.004 220 C 65.294 214.225, 67.500 208.852, 67.905 208.060 C 68.965 205.991, 71 205.555, 71 207.398 C 71 208.267, 72.212 209.266, 73.728 209.647 C 76.321 210.297, 85.792 216.437, 87.129 218.334 C 87.475 218.825, 87.964 218.613, 88.216 217.863 C 88.603 216.712, 88.932 216.712, 90.326 217.863 C 91.235 218.613, 91.731 219.626, 91.430 220.113 C 91.129 220.601, 91.730 221, 92.767 221 C 96.483 221, 99 225.141, 99 231.255 C 99 237.298, 99.810 238.513, 103.136 237.457 C 105.020 236.859, 105.190 236.256, 104.683 231.968 C 103.961 225.879, 105.755 223.755, 108.933 226.933 C 110.070 228.070, 111.360 229, 111.800 229 C 112.240 229, 113.157 229.557, 113.838 230.238 C 114.520 230.920, 117.312 231.523, 120.043 231.580 C 124.754 231.677, 132.964 234.639, 132.989 236.250 C 132.995 236.662, 134.260 237, 135.800 237 C 137.340 237, 139.110 237.510, 139.733 238.133 C 140.356 238.756, 143.394 239.329, 146.483 239.405 C 149.957 239.492, 152.415 240.054, 152.925 240.879 C 153.502 241.812, 153.956 241.881, 154.434 241.107 C 154.810 240.498, 156.247 240, 157.626 240 C 159.717 240, 160.024 240.349, 159.471 242.092 C 158.832 244.103, 159.092 244.173, 166.153 243.878 C 170.194 243.710, 174.015 243.891, 174.645 244.280 C 176.053 245.151, 185.830 243.386, 187.562 241.949 C 188.444 241.216, 189.028 241.237, 189.511 242.018 C 190.282 243.265, 190.279 243.270, 187.500 244.822 C 185.770 245.788, 186.063 245.943, 189.667 245.970 C 191.958 245.986, 193.983 245.602, 194.167 245.115 C 194.350 244.629, 197.762 244.052, 201.750 243.833 C 207.486 243.518, 209 243.727, 209 244.834 C 209 245.835, 209.641 246.025, 211.250 245.504 C 212.488 245.102, 214.533 244.778, 215.794 244.784 C 217.120 244.790, 218.752 243.782, 219.659 242.397 C 220.867 240.554, 222.121 240, 225.084 240 C 228.107 240, 228.813 240.325, 228.359 241.508 C 228.040 242.337, 228.514 244.136, 229.412 245.505 C 231.808 249.164, 237.047 248.597, 239.949 244.366 C 242.163 241.138, 242.640 240.951, 257.500 237.488 C 269.448 234.704, 272.301 233.802, 278.763 230.764 C 285.566 227.567, 287.930 224.826, 285.947 222.436 C 284.337 220.496, 280.973 220.627, 277.973 222.747 C 274.822 224.972, 263.847 228.934, 258 229.955 C 255.525 230.388, 250.661 231.507, 247.190 232.444 C 239.255 234.585, 237.814 233.774, 239.132 227.907 C 239.631 225.688, 239.774 223.443, 239.450 222.918 C 239.126 222.394, 238.651 212.860, 238.395 201.733 C 238.139 190.605, 237.663 179.475, 237.338 177 C 236.124 167.772, 236.009 164.751, 235.610 131.500 C 235.125 91.116, 236.503 40.516, 238.176 37.260 C 239.121 35.422, 239 34.658, 237.509 33.010 C 234.292 29.455, 232.673 30.403, 233.248 35.506 C 233.691 39.438, 233.445 40.237, 231.317 41.787 L 228.879 43.564 228.689 82.921 L 228.500 122.279 219 122.464 C 209.439 122.649, 203.799 124.047, 191.720 129.224 C 189.090 130.351, 186.750 131.083, 186.519 130.852 C 186.288 130.621, 186.565 125.771, 187.136 120.074 C 188.302 108.433, 187.901 93.863, 186.047 80.556 C 184.325 68.196, 180.559 63.647, 176.036 68.462 C 173.746 70.899, 174.545 72.422, 178.500 73.156 C 180.428 73.514, 180.511 74.444, 180.814 99.121 C 181.074 120.293, 180.847 125.804, 179.497 131.012 C 177.909 137.139, 177.920 137.365, 179.906 139.350 L 181.946 141.391 185.910 137.097 C 189.674 133.021, 192.616 132.230, 191.305 135.647 C 190.813 136.929, 191.156 137.089, 193.099 136.489 C 194.419 136.081, 196.647 135.164, 198.049 134.452 C 202.264 132.310, 213.043 128.909, 213.913 129.446 C 214.359 129.722, 216.483 129.256, 218.634 128.412 C 224.512 126.103, 227.989 127.699, 228.032 132.725 C 228.170 149.025, 229.427 170.130, 230.436 173.095 C 231.108 175.072, 231.357 177.547, 230.988 178.595 C 230.620 179.643, 230.622 183.425, 230.993 187 C 231.364 190.575, 231.387 194.625, 231.045 196 C 230.703 197.375, 230.848 206.100, 231.368 215.390 C 231.995 226.587, 231.976 232.815, 231.311 233.868 C 230.021 235.914, 211.856 238.953, 199.500 239.191 C 187.996 239.412, 170.348 238.348, 162 236.931 C 158.425 236.324, 154.375 235.716, 153 235.580 C 151.625 235.444, 149.233 234.808, 147.685 234.166 C 146.137 233.525, 143.807 233, 142.507 233 C 141.208 233, 136.400 231.624, 131.822 229.942 C 127.245 228.259, 119.948 226.044, 115.606 225.018 C 111.265 223.992, 107.334 222.556, 106.871 221.826 C 105.741 220.043, 105.825 210.055, 107.093 195.500 C 107.667 188.900, 108.318 177.650, 108.538 170.500 C 109.540 137.898, 109.862 132.119, 110.997 126.387 C 111.662 123.025, 113.182 119.051, 114.374 117.556 C 116.310 115.127, 117.284 114.809, 123.521 114.570 C 132.684 114.219, 138.704 113.061, 140.097 111.383 C 142.877 108.034, 137.182 104.208, 132.250 106.110 C 130.738 106.694, 127.025 107.341, 124 107.549 C 120.975 107.757, 116.700 108.382, 114.500 108.939 C 112.300 109.496, 108.813 109.963, 106.750 109.976 L 103 110 103 104.627 C 103 101.524, 103.809 97.405, 104.915 94.877 C 105.968 92.470, 107.153 87.800, 107.549 84.500 C 109.116 71.429, 111.742 60.889, 113.943 58.838 C 115.131 57.731, 116.722 57.063, 117.479 57.353 C 118.235 57.644, 119.392 57.233, 120.049 56.441 C 120.707 55.648, 122.075 55, 123.089 55 C 124.103 55, 126.410 54.352, 128.216 53.561 C 130.022 52.770, 132.738 51.861, 134.250 51.542 C 137.199 50.920, 138.006 48.063, 135.750 46.228 C 134.380 45.114, 124.403 47.401, 117.782 50.346 C 111.294 53.232, 110.659 52.825, 111.399 46.250 C 112.362 37.695, 112.347 29.927, 111.367 29.116 C 110.890 28.721, 109.551 28.556, 108.392 28.750 M 65.500 122 C 65.160 122.550, 65.610 123, 66.500 123 C 67.390 123, 67.840 122.550, 67.500 122 C 67.160 121.450, 66.710 121, 66.500 121 C 66.290 121, 65.840 121.450, 65.500 122 M 77.250 153.731 C 75.600 154.306, 75.717 156.041, 77.571 158.495 C 78.865 160.207, 79.213 160.278, 80.024 158.995 C 82.110 155.695, 80.481 152.604, 77.250 153.731 M 152 165.522 C 148.425 166.800, 142.575 168.386, 139 169.046 C 135.425 169.707, 131.600 170.605, 130.500 171.044 C 129.400 171.482, 126.283 172.104, 123.573 172.426 C 118.763 172.996, 114.968 175.209, 115.032 177.405 C 115.049 178.007, 115.673 179.303, 116.417 180.285 C 117.685 181.956, 118.048 181.968, 122.135 180.481 C 126.157 179.017, 134.446 176.878, 147.797 173.857 C 150.710 173.198, 153.324 172.285, 153.606 171.829 C 153.887 171.373, 155.651 171, 157.524 171 C 159.868 171, 161.252 170.397, 161.965 169.066 C 163.304 166.564, 163.288 166.431, 161.429 164.571 C 159.547 162.690, 160.063 162.638, 152 165.522 M 105.079 172.583 C 105.127 173.748, 105.364 173.985, 105.683 173.188 C 105.972 172.466, 105.936 171.603, 105.604 171.271 C 105.272 170.939, 105.036 171.529, 105.079 172.583 M 111.694 181.639 C 110.895 182.438, 111.798 184, 113.059 184 C 113.577 184, 114 183.325, 114 182.500 C 114 180.954, 112.820 180.513, 111.694 181.639 M 197.813 245.683 C 198.534 245.972, 199.397 245.936, 199.729 245.604 C 200.061 245.272, 199.471 245.036, 198.417 245.079 C 197.252 245.127, 197.015 245.364, 197.813 245.683" stroke="none" fill="black" fill-rule="evenodd"/>
</svg>