<svg xmlns="http://www.w3.org/2000/svg" width="300" height="300" viewBox="0 0 300 300" version="1.1">
	<path d="M 208.420 28.463 C 207.764 31.077, 208.157 35.854, 210.028 48 C 211.543 57.835, 210.688 74.622, 208.472 78.552 C 206.127 82.710, 207.784 87, 211.735 87 C 213.460 87, 215.007 86.219, 215.802 84.946 C 216.603 83.662, 217.732 83.098, 218.811 83.440 C 219.760 83.741, 224.354 83.240, 229.019 82.326 C 238.896 80.390, 247.587 80.444, 249.596 82.454 C 251.147 84.004, 251.516 88, 250.109 88 C 249.619 88, 248.495 91.899, 247.611 96.665 C 246.726 101.431, 245.890 105.430, 245.752 105.552 C 245.613 105.674, 240.173 106.287, 233.662 106.915 C 224.647 107.784, 220.660 108.645, 216.945 110.528 C 214.262 111.888, 211.489 113.016, 210.783 113.036 C 208.990 113.086, 204.496 117.038, 203.045 119.840 C 201.580 122.670, 200.637 216.089, 202.010 222.480 C 204.952 236.184, 205.843 238, 209.622 238 C 210.930 238, 212 238.406, 212 238.902 C 212 240.348, 217.540 241.906, 219.106 240.901 C 219.873 240.410, 226.800 240.247, 234.500 240.539 C 242.200 240.832, 255.250 241.056, 263.500 241.036 C 271.750 241.016, 279.680 241.003, 281.122 241.006 C 282.565 241.010, 284.292 240.353, 284.960 239.548 C 286.862 237.256, 286.924 224.437, 285.084 214 C 283.513 205.090, 283.251 204.481, 280.869 204.199 C 276.585 203.693, 276.152 205.385, 277.254 218.320 C 278.012 227.221, 277.969 230.431, 277.080 231.320 C 276.354 232.047, 272.942 232.453, 268.200 232.377 C 263.965 232.309, 252.198 232.178, 242.051 232.084 C 231.904 231.991, 223.129 231.545, 222.551 231.095 C 221.973 230.644, 220.150 229.954, 218.500 229.560 C 214.622 228.635, 212.003 226.235, 211.989 223.595 C 211.983 222.443, 211.308 219.291, 210.489 216.591 C 208.115 208.764, 208.481 206.628, 212.750 203.414 C 214.813 201.861, 217.063 199.818, 217.751 198.874 C 218.439 197.931, 220.464 196.870, 222.251 196.517 C 225.890 195.798, 229.963 194.440, 234.651 192.383 C 236.384 191.622, 238.647 191, 239.679 191 C 240.711 191, 242.499 190.339, 243.653 189.530 C 244.807 188.722, 247.045 188.101, 248.626 188.150 C 253.739 188.309, 261.956 186.758, 263.062 185.426 C 265.102 182.968, 262.407 180, 258.134 180 C 253.072 180, 233.769 183.518, 231.155 184.917 C 230.014 185.527, 228.725 185.948, 228.291 185.852 C 227.856 185.756, 226.233 186.200, 224.685 186.839 C 223.137 187.477, 221.431 188, 220.895 188 C 220.359 188, 218.095 188.931, 215.863 190.070 C 209.855 193.135, 209.167 192.432, 209.765 183.830 C 210.606 171.723, 210.179 172.064, 227.500 169.671 C 230.728 169.225, 241.158 166.661, 247.250 164.816 C 250.089 163.956, 251 163.150, 251 161.500 C 251 158.312, 247.353 156.981, 241.927 158.190 C 239.492 158.732, 233.900 159.316, 229.500 159.486 C 225.100 159.657, 219.250 159.942, 216.500 160.119 L 211.500 160.442 211.195 155.721 C 210.914 151.365, 211.069 151, 213.205 151 C 214.477 151, 216.081 150.100, 216.768 149 C 217.461 147.890, 219.100 147, 220.449 147 C 221.787 147, 223.160 146.550, 223.500 146 C 223.840 145.450, 225.805 145, 227.868 145 C 229.930 145, 232.491 144.339, 233.559 143.532 C 234.626 142.724, 236.711 142.049, 238.191 142.032 C 239.671 142.014, 241.163 141.546, 241.506 140.991 C 242.621 139.187, 240.924 136.019, 238.520 135.416 C 236.554 134.922, 222.388 136.747, 214.250 138.542 C 212.125 139.010, 212 138.726, 212 133.433 C 212 128.488, 212.383 127.419, 215.250 124.357 C 217.037 122.448, 219.850 120.054, 221.500 119.036 C 225.408 116.625, 240.255 113.894, 247.608 114.233 L 253.384 114.500 254.602 105.500 C 255.271 100.550, 256.310 94.928, 256.910 93.007 C 258.582 87.650, 258.347 76, 256.567 76 C 255.779 76, 254.828 75.033, 254.453 73.851 C 253.787 71.753, 253.462 71.717, 240.637 72.330 C 230.573 72.812, 227.244 73.314, 226.392 74.479 C 225.184 76.131, 223 76.541, 223 75.117 C 223 74.631, 222.081 73.993, 220.958 73.699 C 219.022 73.193, 218.951 72.678, 219.594 63.833 C 219.967 58.700, 220.457 54.291, 220.684 54.035 C 222.139 52.395, 232.437 51.082, 244.143 51.044 C 258.600 50.997, 259 50.861, 259 45.977 C 259 43.363, 258.247 43.092, 248.851 42.324 C 239.595 41.566, 238.621 41.550, 228.271 41.980 C 223.728 42.168, 220.509 41.838, 219.608 41.090 C 218.819 40.435, 217.877 37.560, 217.515 34.700 C 216.459 26.373, 216.242 26, 212.452 26 C 209.658 26, 208.926 26.447, 208.420 28.463 M 134.650 37.758 C 134.392 38.174, 133.878 40.135, 133.506 42.115 C 132.949 45.083, 133.250 46.167, 135.221 48.293 C 137.464 50.713, 138.317 50.900, 149.056 51.316 C 155.350 51.561, 161.876 52.078, 163.557 52.465 C 165.820 52.987, 166.973 52.737, 167.999 51.501 C 169.975 49.120, 168.263 46.915, 162.914 44.953 C 160.486 44.062, 157.150 42.776, 155.500 42.094 C 153.850 41.412, 151.150 40.594, 149.500 40.275 C 147.850 39.957, 145.612 39.090, 144.527 38.348 C 142.424 36.911, 135.432 36.493, 134.650 37.758 M 163.216 64.471 C 158.359 65.988, 135.411 67.912, 126.779 67.526 C 119.945 67.221, 117 68.840, 117 72.902 C 117 77.835, 123.679 81.314, 127.719 78.484 C 129.027 77.568, 133.665 76.776, 140.153 76.360 C 145.844 75.996, 150.831 75.203, 151.235 74.599 C 151.742 73.840, 151.974 73.886, 151.985 74.750 C 151.993 75.438, 152.675 76, 153.500 76 C 154.325 76, 155 75.636, 155 75.191 C 155 74.512, 161.881 72.941, 176.250 70.339 C 178.342 69.960, 179 69.271, 179 67.456 C 179 63.048, 172.009 61.726, 163.216 64.471 M 57 77.131 C 55.625 77.696, 51.825 78.596, 48.556 79.132 C 43.526 79.956, 42.107 79.834, 39.324 78.335 C 34.833 75.917, 33.313 77.389, 35.005 82.516 C 35.677 84.551, 35.979 87.739, 35.677 89.601 C 35.289 91.997, 35.618 93.475, 36.805 94.662 C 38.023 95.880, 38.142 96.453, 37.242 96.753 C 35.584 97.305, 36.509 110.823, 39.203 125.437 C 40.897 134.621, 41.671 136.825, 44.033 139.187 C 47.050 142.204, 49.839 142.761, 51.850 140.750 C 52.537 140.063, 54.089 139.427, 55.300 139.337 C 58.983 139.065, 75.151 136.101, 78.425 135.097 C 80.116 134.579, 84.537 133.859, 88.250 133.498 C 94.359 132.903, 95 132.630, 95 130.620 C 95 127.623, 93.174 126, 89.800 126 C 86.513 126, 86.076 123.765, 88.646 120.096 C 91.381 116.190, 96.232 90.545, 95.800 82.266 L 95.500 76.500 77.500 76.302 C 66.984 76.186, 58.461 76.531, 57 77.131 M 161.500 79.949 C 160.400 80.402, 158.262 81.927, 156.750 83.338 C 154.499 85.439, 153.996 86.774, 153.976 90.702 C 153.963 93.341, 153.471 97.300, 152.883 99.500 C 152.295 101.700, 151.571 105.055, 151.274 106.955 C 150.977 108.855, 150.118 111.024, 149.367 111.776 C 147.814 113.329, 147.532 117.593, 148.925 118.454 C 151.381 119.971, 154.875 116.484, 158.362 109.033 C 160.363 104.759, 161.992 100.640, 161.983 99.881 C 161.973 99.121, 163.170 94.850, 164.643 90.389 C 168.046 80.079, 167.290 77.568, 161.500 79.949 M 128.250 82.031 C 126.512 82.730, 126 83.739, 126 86.468 C 126 88.410, 125.550 90, 125 90 C 124.436 90, 124 92.833, 124 96.500 C 124 100.167, 124.436 103, 125 103 C 125.575 103, 126 106.092, 126 110.277 C 126 114.797, 126.517 118.302, 127.365 119.527 C 128.116 120.612, 129.033 122.470, 129.403 123.656 C 129.993 125.549, 129.600 125.892, 126.179 126.470 C 124.037 126.832, 119.272 127.276, 115.590 127.456 C 107.888 127.834, 104.720 129.811, 105.203 133.941 C 105.462 136.163, 106.116 136.573, 110.361 137.176 C 113.035 137.555, 116.327 137.446, 117.676 136.933 C 119.026 136.420, 122.605 136, 125.631 136 C 128.656 136, 132.055 135.506, 133.183 134.902 C 135.205 133.820, 149.177 131.182, 156 130.594 C 157.925 130.428, 161.525 129.787, 164 129.170 C 166.475 128.554, 170.263 128.038, 172.418 128.024 C 174.573 128.011, 179.189 127.503, 182.675 126.896 C 188.221 125.930, 189.094 125.473, 189.654 123.241 C 190.891 118.314, 186.726 115.688, 181.155 117.882 C 178.692 118.852, 171.524 119.807, 150 122.034 C 145.325 122.518, 140.342 123.195, 138.928 123.539 C 136.486 124.133, 136.287 123.869, 135.002 118.333 C 134.115 114.508, 133.739 107.579, 133.911 98.207 C 134.219 81.470, 133.655 79.859, 128.250 82.031 M 78 82.674 C 69.857 83.262, 54.569 86.082, 50.772 87.698 C 43.167 90.933, 42.321 96.186, 45.651 119.500 C 47.214 130.444, 48.139 132.502, 51 131.403 C 51.825 131.086, 54.075 130.625, 56 130.378 C 57.925 130.132, 61.075 129.526, 63 129.032 C 64.925 128.538, 69.111 127.824, 72.302 127.445 C 77.912 126.779, 78.165 126.620, 79.952 122.628 C 82.767 116.339, 84 112.030, 84 108.477 C 84 106.703, 84.607 103.507, 85.348 101.376 C 87.651 94.758, 88.210 85.353, 86.408 83.551 C 85.555 82.698, 84.327 82.079, 83.679 82.175 C 83.030 82.271, 80.475 82.496, 78 82.674 M 147.500 135.641 C 145.300 136.495, 141.107 137.681, 138.183 138.276 C 133.915 139.145, 132.578 139.915, 131.407 142.179 C 130.605 143.731, 129.385 145, 128.697 145 C 127.283 145, 124 148.503, 124 150.011 C 124 150.555, 123.605 151, 123.121 151 C 121.109 151, 119.135 161.018, 118.491 174.500 C 118.030 184.145, 116.003 213.989, 115.468 219 C 114.484 228.219, 116.086 227.468, 96.762 227.764 C 87.268 227.909, 77.700 228.134, 75.500 228.264 L 71.500 228.500 71.562 212 C 71.637 192.038, 72.482 188.645, 77.808 186.923 C 79.839 186.267, 83.300 184.713, 85.500 183.471 C 87.700 182.228, 91.975 180.913, 95 180.548 C 101.049 179.819, 106 176.491, 106 173.155 C 106 169.688, 103.071 169.642, 90.500 172.912 C 88.300 173.484, 85.037 173.963, 83.250 173.976 C 81.463 173.989, 80 174.450, 80 175 C 80 175.550, 79.052 176, 77.894 176 C 75.887 176, 75.814 175.638, 76.339 168.250 C 76.985 159.172, 78.148 152.179, 80.003 146.218 C 82.216 139.108, 78.081 137.938, 71.287 143.751 C 67.764 146.766, 67.950 145.709, 66.501 171 C 66.171 176.775, 65.237 187.125, 64.426 194 C 63.615 200.875, 62.850 212.125, 62.726 219 L 62.500 231.500 58 232.247 C 55.525 232.658, 51.138 233.223, 48.250 233.503 L 43 234.012 42.837 229.756 C 42.747 227.415, 42.614 221, 42.540 215.500 C 42.378 203.286, 41.408 197.518, 38.791 193.215 C 37.213 190.619, 36.344 190.065, 34.647 190.573 C 30.252 191.887, 29.558 193.443, 30.800 199.206 C 33.473 211.617, 33.919 215.064, 34.202 225.500 L 34.500 236.500 31.814 236.547 C 27.064 236.629, 24 238.963, 24 242.500 C 24 246.445, 27.359 248.578, 32.083 247.633 C 33.903 247.269, 35.852 247.462, 36.596 248.080 C 37.554 248.875, 40.117 248.607, 46.143 247.083 C 50.674 245.937, 55.365 245, 56.568 245 C 57.771 245, 59.267 244.383, 59.892 243.630 C 60.518 242.876, 62.710 241.992, 64.765 241.665 C 66.819 241.338, 74.800 239.868, 82.500 238.398 C 99.194 235.211, 113.962 234.173, 114.073 236.179 C 114.113 236.906, 114.086 240.679, 114.013 244.565 C 113.907 250.198, 114.273 252.116, 115.817 254.023 C 117.450 256.039, 118.124 256.250, 120.105 255.366 C 122.439 254.325, 122.456 254.200, 122.555 236.409 C 122.682 213.605, 123.364 209.185, 126.888 208.349 C 128.325 208.007, 130.625 207.157, 132 206.459 C 137.705 203.564, 145.477 201, 148.550 201 C 150.356 201, 151.983 200.662, 152.167 200.250 C 152.676 199.104, 158.615 196, 160.297 196 C 162.346 196, 163.297 193.063, 161.823 191.287 C 160.396 189.568, 158.395 189.796, 144.500 193.262 C 139 194.634, 132.528 196.002, 130.119 196.301 L 125.737 196.845 126.438 187.306 C 126.823 182.060, 127.557 176.666, 128.069 175.319 C 128.581 173.972, 129 171.774, 129 170.435 C 129 167.437, 129.716 167.385, 132.677 170.166 C 134.163 171.562, 137.023 172.609, 140.723 173.111 C 143.880 173.540, 146.622 174.365, 146.815 174.945 C 147.025 175.574, 150.590 176, 155.653 176 C 163.854 176, 164.128 175.925, 163.820 173.775 C 163.644 172.551, 162.535 171.071, 161.357 170.486 C 160.178 169.901, 158.533 168.857, 157.701 168.167 C 156.869 167.476, 154.234 166.678, 151.844 166.393 C 149.455 166.108, 144.959 164.737, 141.853 163.347 C 137.361 161.336, 135.789 161.042, 134.169 161.910 C 130.415 163.918, 129.706 163.302, 130.247 158.501 C 130.850 153.151, 132.392 151, 135.622 151 C 137.056 151, 138 150.412, 138 149.519 C 138 147.392, 142.221 146.516, 152.500 146.507 L 161.500 146.500 163.369 152 C 164.396 155.025, 165.651 159.075, 166.156 161 C 167.617 166.568, 169.397 195.920, 169.430 215 C 169.454 229.537, 169.164 233.162, 167.714 236.411 C 165.600 241.145, 166.207 243.539, 170.021 245.511 C 174.597 247.877, 175.661 247.403, 176.912 242.435 C 178.031 237.990, 178.570 199.732, 177.537 198.060 C 177.264 197.619, 176.765 188.537, 176.427 177.879 C 176.089 167.220, 175.405 158.350, 174.907 158.167 C 174.408 157.983, 174 156.296, 174 154.417 C 174 152.537, 173.550 151, 173 151 C 172.450 151, 172 149.754, 172 148.232 C 172 144.672, 167.483 138, 165.073 138 C 164.053 138, 161.257 137.110, 158.859 136.022 C 153.651 133.659, 152.689 133.626, 147.500 135.641" stroke="none" fill="black" fill-rule="evenodd"/>
</svg>