<svg xmlns="http://www.w3.org/2000/svg" width="300" height="300" viewBox="0 0 300 300" version="1.1">
	<path d="M 195.500 14 C 195.160 14.550, 193.291 15, 191.347 15 C 188.654 15, 187.688 15.476, 187.290 17 C 187.002 18.100, 186.437 19, 186.033 19 C 185.630 19, 184.031 22.038, 182.479 25.750 C 180.928 29.462, 178.835 33.694, 177.829 35.154 C 176.823 36.614, 176 38.118, 176 38.497 C 176 38.876, 173.525 42.371, 170.500 46.264 C 167.475 50.157, 165 53.672, 165 54.075 C 165 54.836, 161.518 58.983, 154.250 66.879 C 151.912 69.418, 150 71.873, 150 72.334 C 150 73.547, 144.896 79.158, 133.770 90.174 C 124.264 99.587, 122.137 103, 125.777 103 C 128.189 103, 133.186 98.720, 147.705 84.220 C 156.714 75.222, 160 71.289, 160 69.502 C 160 67.831, 160.438 67.231, 161.389 67.596 C 162.240 67.922, 163.885 66.529, 165.639 63.994 C 167.213 61.719, 170.188 57.998, 172.250 55.723 C 174.313 53.449, 176 51.231, 176 50.794 C 176 49.403, 180.302 49.934, 187 52.152 C 196.780 55.389, 201 57.207, 201 58.183 C 201 58.667, 201.787 59.361, 202.750 59.725 C 203.713 60.089, 206.579 61.875, 209.119 63.694 C 211.660 65.512, 214.176 67, 214.710 67 C 215.245 67, 217.881 69.078, 220.569 71.617 C 227.571 78.230, 231.001 79.242, 230.999 74.691 C 230.997 71.772, 224.797 65.052, 218 60.602 C 214.975 58.621, 211.375 56.157, 210 55.126 C 204.664 51.125, 197.219 47.412, 190.506 45.405 C 182.899 43.130, 181.459 41.300, 184.935 38.323 C 186.071 37.351, 187 36.044, 187 35.419 C 187 34.793, 188.800 32.237, 191 29.737 C 193.200 27.238, 195 24.758, 195 24.225 C 195 23.693, 196.550 22.196, 198.444 20.898 C 201.754 18.630, 203.466 15.563, 202.393 13.826 C 201.672 12.659, 196.244 12.796, 195.500 14 M 68.727 50 C 67.329 51.100, 65.457 52, 64.568 52 C 62.673 52, 61 55.844, 61 60.199 C 61 63.747, 62.896 70.902, 64.338 72.798 C 64.881 73.512, 65.408 75.312, 65.510 76.798 C 65.612 78.284, 66.427 82.425, 67.322 86 C 72.025 104.781, 72.422 111.395, 68.901 112.316 C 67.550 112.669, 67 113.707, 67 115.906 C 67 118.987, 67.023 119, 72.466 119 C 75.533 119, 79.487 118.258, 81.476 117.310 C 84.290 115.968, 85.275 115.875, 86.256 116.856 C 87.237 117.837, 87.050 118.859, 85.350 121.812 C 82.795 126.252, 82.247 131.443, 81.426 158.995 C 81.090 170.267, 80.621 179.804, 80.384 180.188 C 79.340 181.878, 77.307 208.137, 77.747 214.250 L 78.233 221 74.753 221 C 72.839 221, 68.849 221.481, 65.886 222.070 C 61.223 222.996, 51.758 224.692, 40.250 226.662 C 36.361 227.328, 36.361 227.334, 39.021 216.917 C 41.008 209.134, 41.320 206.488, 42.604 186.500 C 43.179 177.560, 44.621 169.469, 46.452 164.910 C 47.549 162.180, 44.856 160.929, 41.441 162.583 C 35.644 165.391, 34.738 168.858, 34.480 189.225 C 34.226 209.171, 33.458 217.054, 31.364 221.200 C 30.614 222.686, 30 225.218, 30 226.828 C 30 228.438, 29.295 230.340, 28.434 231.055 C 27.573 231.770, 26.182 233.681, 25.344 235.301 C 24.028 237.847, 24.014 238.442, 25.239 239.668 C 26.845 241.274, 30.458 240.656, 40.134 237.122 C 43.232 235.990, 48.182 234.627, 51.134 234.092 C 54.085 233.558, 59.956 232.461, 64.179 231.656 C 68.402 230.850, 75.728 229.869, 80.458 229.475 C 88.262 228.825, 89.003 228.585, 88.462 226.879 C 88.055 225.597, 88.353 225, 89.401 225 C 90.326 225, 90.718 225.572, 90.386 226.437 C 89.927 227.633, 91.653 227.871, 100.667 227.855 C 112.673 227.834, 116.122 227.325, 113.882 225.906 C 112.775 225.205, 112.837 225.028, 114.191 225.015 C 115.121 225.007, 116.195 225.506, 116.577 226.125 C 117.034 226.864, 119.650 227.079, 124.216 226.752 C 128.871 226.419, 131.279 226.626, 131.520 227.378 C 131.717 227.995, 132.100 233.450, 132.371 239.500 C 132.642 245.550, 132.894 250.564, 132.932 250.643 C 132.969 250.722, 133.732 251.067, 134.627 251.410 C 137.135 252.373, 138.998 250.131, 139.017 246.128 C 139.027 244.132, 139.700 238.450, 140.514 233.500 C 141.327 228.550, 141.994 221.180, 141.996 217.121 L 142 209.742 146.915 210.394 C 150.887 210.921, 153.578 210.466, 160.930 208.023 C 165.935 206.360, 170.539 205, 171.162 205 C 172.491 205, 171.654 218.150, 170.056 222.352 C 169.512 223.784, 168.771 229.579, 168.410 235.228 C 167.800 244.784, 167.898 245.629, 169.814 247.348 C 172.645 249.887, 174.330 248.573, 173.553 244.431 C 173.208 242.594, 173.356 240.283, 173.880 239.295 C 174.405 238.308, 175.581 233.004, 176.494 227.509 C 177.408 222.014, 178.476 217.064, 178.868 216.509 C 179.260 215.954, 180.433 212.884, 181.474 209.687 C 182.689 205.959, 184.288 203.244, 185.934 202.118 C 189.052 199.982, 197.558 198, 203.601 198 C 207.313 198, 208.181 198.372, 208.841 200.250 C 209.276 201.488, 209.235 209.700, 208.748 218.500 C 207.907 233.715, 208.548 242.276, 210.874 246.885 C 212.282 249.675, 213.504 247.872, 213.677 242.752 C 213.774 239.863, 214.365 232.100, 214.990 225.500 C 215.615 218.900, 216.435 209.809, 216.813 205.297 C 217.191 200.786, 218.004 196.592, 218.621 195.977 C 219.504 195.096, 226.182 194.305, 235.143 194.020 C 236.175 193.988, 236.985 191.126, 236.397 189.592 C 235.285 186.695, 224.352 184.206, 220.887 186.061 C 218.073 187.567, 217.400 186.418, 217.125 179.641 C 217.008 176.731, 216.262 171.909, 215.468 168.925 C 214.673 165.941, 214.018 161.123, 214.012 158.219 C 214.003 154.190, 213.599 152.783, 212.310 152.289 C 211.366 151.927, 210.446 152.161, 210.227 152.820 C 210.010 153.469, 209.196 154, 208.417 154 C 206.580 154, 206.621 155.491, 208.536 158.414 C 209.917 160.522, 209.917 160.818, 208.536 161.348 C 207.441 161.768, 207 163.358, 207 166.885 C 207 169.607, 207.407 171.983, 207.906 172.167 C 208.657 172.443, 209.517 182.719, 209.115 186.614 C 209.052 187.227, 207.088 188.003, 204.750 188.338 C 202.412 188.674, 197.279 189.575, 193.343 190.340 C 189.406 191.106, 185.599 191.370, 184.883 190.928 C 183.823 190.273, 183.890 188.395, 185.241 180.812 C 186.153 175.690, 187.318 168.350, 187.829 164.500 C 188.341 160.650, 189.376 155.251, 190.130 152.503 C 191.456 147.666, 191.644 147.479, 196 146.676 C 198.475 146.219, 204.550 145.010, 209.500 143.988 C 214.450 142.967, 223.408 141.562, 229.406 140.867 C 241.825 139.428, 240.294 138.690, 246.357 149.041 C 249.467 154.351, 251.673 160.535, 254.414 171.629 C 255.737 176.982, 255.059 202.478, 253.528 204.955 C 253.118 205.619, 252.188 208.488, 251.463 211.331 C 250.737 214.174, 249.186 219.200, 248.015 222.500 C 246.845 225.800, 245.423 230.952, 244.856 233.948 C 243.444 241.410, 241.075 247, 239.325 247 C 238.523 247, 236.343 245.838, 234.481 244.418 C 227.698 239.244, 224.322 244.012, 230.517 250.016 C 233.585 252.990, 234.766 253.486, 238.578 253.404 C 245.230 253.260, 250.081 247.935, 251.563 239.149 C 251.901 237.142, 252.778 233.700, 253.510 231.500 C 254.839 227.510, 257.239 219.310, 260.682 207 C 262.141 201.783, 262.477 197.144, 262.385 183.500 C 262.274 167.257, 262.136 166.137, 259.280 158.339 C 257.637 153.851, 254.780 147.551, 252.933 144.339 C 251.086 141.128, 248.986 137.418, 248.266 136.095 C 247.546 134.772, 246.180 133.099, 245.229 132.376 C 243.190 130.828, 234.018 130.645, 225.500 131.983 C 222.200 132.501, 215.076 133.623, 209.668 134.476 C 204.260 135.329, 197.960 136.504, 195.668 137.088 C 193.376 137.672, 189.700 138.508, 187.500 138.945 C 185.300 139.382, 181.925 140.424, 180 141.260 C 178.075 142.095, 173.575 143.087, 170 143.463 C 162.047 144.300, 155.167 146.641, 152.500 149.418 C 150.158 151.856, 145.656 152.169, 145.224 149.924 C 145.061 149.078, 146.069 146.704, 147.464 144.648 C 150.491 140.187, 150.587 139.321, 148.141 138.545 C 144.095 137.261, 138.711 141.781, 137.015 147.886 C 135.704 152.604, 135.709 172.104, 137.021 175.557 C 137.773 177.532, 137.706 178.648, 136.771 179.774 C 135.874 180.854, 135.397 186.765, 135.151 199.864 C 134.748 221.325, 134.807 221.187, 126.622 219.781 C 123.805 219.297, 113.602 219.190, 103.949 219.543 C 89.342 220.077, 86.198 219.943, 85.205 218.747 C 84.278 217.630, 84.364 213.200, 85.588 198.905 C 86.454 188.782, 87.101 178.088, 87.026 175.140 C 86.848 168.213, 88.443 166.299, 93.951 166.824 C 96.172 167.036, 97.772 167.560, 97.507 167.989 C 97.241 168.419, 102.163 168.777, 108.443 168.786 C 120.454 168.803, 121.445 168.419, 120.336 164.178 C 119.882 162.441, 118.687 162.072, 111.655 161.500 C 95.466 160.182, 94.054 160.278, 92.130 162.828 C 89.262 166.630, 88.163 163.802, 89.088 155 C 89.522 150.875, 89.904 143.578, 89.938 138.784 C 89.975 133.609, 90.576 128.734, 91.417 126.784 C 92.197 124.978, 93.344 122.116, 93.966 120.425 C 94.588 118.734, 97.101 115.168, 99.549 112.502 C 101.997 109.835, 104 106.859, 104 105.888 C 104 104.918, 105.379 102.633, 107.066 100.812 C 110.112 97.521, 116 89.347, 116 88.409 C 116 88.140, 116.912 86.686, 118.026 85.179 C 119.697 82.919, 120.067 80.821, 120.139 73.221 C 120.219 64.696, 120.048 63.856, 117.863 62.047 C 111.911 57.121, 96.641 57.273, 78.815 62.436 C 69.639 65.094, 67.551 64.639, 68.659 60.224 C 69.010 58.824, 70.806 56.353, 72.649 54.735 C 76.654 51.219, 77.125 48, 73.635 48 C 72.334 48, 70.126 48.900, 68.727 50 M 93 67.692 C 91.625 67.923, 88.925 68.619, 87 69.239 C 82.421 70.714, 80.275 71.120, 75.808 71.356 C 73.777 71.463, 71.799 71.867, 71.413 72.253 C 71.027 72.640, 71.416 74.878, 72.277 77.228 C 73.138 79.577, 74.395 87.688, 75.071 95.250 C 76.271 108.674, 76.356 109, 78.654 109 C 79.948 109, 82.686 108.100, 84.739 107 C 86.791 105.900, 89.255 105, 90.215 105 C 97.662 105, 107.514 94.915, 111.034 83.688 C 113.239 76.656, 113.569 69.969, 111.800 68.200 C 110.646 67.046, 98.760 66.725, 93 67.692 M 198.500 93.072 C 195.750 93.518, 190.350 94.339, 186.500 94.898 C 160.942 98.606, 150.172 100.984, 147.116 103.592 C 141.062 108.760, 148.427 110.813, 163.500 108.159 C 171.681 106.718, 173.475 106.089, 173.361 104.699 C 173.285 103.765, 173.847 103, 174.611 103 C 175.375 103, 176 103.711, 176 104.579 C 176 105.763, 176.689 106.027, 178.750 105.633 C 180.262 105.344, 183.525 104.807, 186 104.440 C 188.475 104.074, 190.950 103.434, 191.500 103.019 C 193.430 101.563, 207.646 100.881, 210.355 102.116 C 215.639 104.524, 217.984 98.893, 213.545 94.455 C 210.898 91.807, 207.974 91.538, 198.500 93.072 M 234.500 137 C 234.160 137.550, 234.610 138, 235.500 138 C 236.390 138, 236.840 137.550, 236.500 137 C 236.160 136.450, 235.710 136, 235.500 136 C 235.290 136, 234.840 136.450, 234.500 137 M 219.750 139.662 C 220.438 139.940, 221.563 139.940, 222.250 139.662 C 222.938 139.385, 222.375 139.158, 221 139.158 C 219.625 139.158, 219.063 139.385, 219.750 139.662 M 200.825 141.378 C 197.703 141.995, 194.778 142.902, 194.325 143.394 C 193.844 143.915, 194.959 144.003, 197 143.604 C 198.925 143.229, 202.412 142.653, 204.750 142.325 C 207.088 141.997, 209 141.339, 209 140.864 C 209 139.850, 208.346 139.891, 200.825 141.378 M 168 150.864 C 168 152.147, 166.674 153.213, 163.750 154.283 C 156.323 157, 154.960 157.212, 153.376 155.897 C 152.131 154.864, 151.682 154.895, 150.956 156.064 C 150.465 156.854, 148.812 157.500, 147.282 157.500 C 144.634 157.500, 144.491 157.741, 144.322 162.500 C 144.224 165.250, 143.751 175.375, 143.270 185 C 142.790 194.625, 142.529 202.685, 142.692 202.910 C 142.854 203.136, 145.578 202.559, 148.744 201.629 C 151.910 200.698, 156.525 199.521, 159 199.013 C 164.743 197.834, 175.362 194.919, 175.952 194.359 C 176.564 193.777, 177.784 182.559, 178.491 171 C 178.810 165.775, 179.544 159.391, 180.121 156.813 C 180.854 153.533, 180.853 151.581, 180.115 150.313 C 179.535 149.316, 179.047 148.990, 179.030 149.590 C 178.990 151.027, 171.546 153.456, 170.038 152.524 C 169.392 152.124, 169.105 151.168, 169.400 150.399 C 169.696 149.629, 169.501 149, 168.969 149 C 168.436 149, 168 149.839, 168 150.864 M 206.079 159.583 C 206.127 160.748, 206.364 160.985, 206.683 160.188 C 206.972 159.466, 206.936 158.603, 206.604 158.271 C 206.272 157.939, 206.036 158.529, 206.079 159.583 M 136.583 208.866 C 136.152 209.563, 136.070 210.403, 136.400 210.733 C 137.295 211.628, 138.271 210.312, 137.787 208.862 C 137.449 207.846, 137.213 207.846, 136.583 208.866 M 62.800 229.200 C 63.733 230.133, 64.267 230.133, 65.200 229.200 C 66.133 228.267, 65.867 228, 64 228 C 62.133 228, 61.867 228.267, 62.800 229.200" stroke="none" fill="black" fill-rule="evenodd"/>
</svg>