<svg xmlns="http://www.w3.org/2000/svg" width="300" height="300" viewBox="0 0 300 300" version="1.1">
	<path d="M 156 27.578 L 152.500 31.093 152.274 48.690 C 152.149 58.368, 151.838 66.495, 151.583 66.750 C 151.328 67.006, 145.579 67.148, 138.809 67.067 C 131.659 66.982, 122.099 67.599, 116 68.542 C 110.225 69.434, 103.700 70.292, 101.500 70.449 C 99.300 70.606, 93.675 71.461, 89 72.349 C 84.325 73.237, 77.982 73.971, 74.906 73.982 C 70.421 73.996, 68.743 74.488, 66.449 76.460 C 64.874 77.813, 63.928 79.261, 64.346 79.680 C 64.764 80.098, 67.799 80.549, 71.090 80.684 C 74.381 80.818, 77.504 81.193, 78.030 81.518 C 79.685 82.541, 96.523 82.132, 99.510 80.996 C 102.254 79.953, 113.836 78.853, 120.885 78.966 C 122.747 78.996, 124.862 78.529, 125.585 77.929 C 127.069 76.698, 142.322 76.590, 148.500 77.768 L 152.500 78.530 152.783 89.212 C 153.033 98.615, 152.853 100.007, 151.283 100.840 C 150.302 101.360, 140.275 101.787, 129 101.788 C 117.725 101.788, 104 102.376, 98.500 103.094 C 93 103.811, 86.700 104.318, 84.500 104.220 C 80.562 104.044, 80.457 104.132, 77.707 109.852 C 75.187 115.096, 75.018 116.094, 75.975 120.082 C 76.559 122.512, 77.447 133.639, 77.948 144.808 C 78.911 166.276, 82.196 187.754, 84.662 188.701 C 85.370 188.972, 86.667 188.476, 87.546 187.597 C 89.820 185.322, 90.821 185.612, 91.184 188.649 C 91.644 192.506, 94.199 193.765, 98.225 192.117 C 100.245 191.291, 106.482 190.683, 114.500 190.532 C 128.772 190.262, 137.866 189.288, 139.666 187.836 C 140.307 187.318, 143.457 187.031, 146.666 187.198 L 152.500 187.500 153 200.264 C 153.622 216.154, 155.539 215.133, 125.500 214.922 C 116.700 214.860, 108.600 214.819, 107.500 214.830 C 106.400 214.842, 98.750 215.839, 90.500 217.047 C 82.250 218.255, 74.375 219.207, 73 219.162 C 69.358 219.044, 65.153 220.944, 64.499 223.002 C 64.187 223.985, 64.688 226.678, 65.611 228.987 C 67.103 232.714, 67.583 233.122, 69.895 232.629 C 71.328 232.323, 74.075 231.777, 76 231.415 C 77.925 231.053, 80.297 230.058, 81.270 229.205 C 82.525 228.105, 84.762 227.724, 88.959 227.895 C 92.213 228.028, 95.884 227.597, 97.116 226.938 C 100.337 225.214, 149.132 224.626, 150.231 226.298 C 150.666 226.959, 150.726 237.449, 150.363 249.609 L 149.705 271.717 152.593 277.421 C 156.586 285.307, 158.278 286.724, 161.586 284.954 C 164.375 283.461, 164.376 283.775, 161.548 273.212 C 159.147 264.244, 160.676 239.083, 164.098 231.259 C 166.858 224.947, 165.238 225.327, 193 224.483 C 216.635 223.765, 219.231 223.593, 220.754 222.652 C 221.369 222.272, 223.739 222.381, 226.022 222.894 C 230.232 223.839, 236.029 222.381, 237.496 220.006 C 239.662 216.502, 232.367 211.364, 226.653 212.368 C 224.919 212.673, 215.175 213.172, 205 213.478 C 194.825 213.784, 181.267 214.267, 174.870 214.551 C 164.755 215.001, 163.159 214.856, 162.617 213.444 C 162.274 212.550, 162.322 211.298, 162.724 210.660 C 163.126 210.022, 163.568 207.025, 163.707 204 C 163.970 198.274, 164.765 191.041, 165.537 187.355 C 165.937 185.443, 166.885 185.134, 174.243 184.515 C 178.784 184.133, 184.263 183.442, 186.417 182.979 C 189.187 182.384, 191.621 182.574, 194.725 183.628 C 197.139 184.447, 200.551 184.979, 202.307 184.809 C 205.209 184.528, 205.500 184.191, 205.500 181.109 C 205.500 178.754, 204.889 177.379, 203.500 176.609 C 202.400 175.999, 201.197 175.079, 200.827 174.565 C 200.090 173.542, 182.623 173.206, 171.500 174 L 164.500 174.500 164.560 168 C 164.594 164.425, 165.049 159.025, 165.573 156 L 166.526 150.500 178.369 150.228 C 184.883 150.079, 190.952 149.568, 191.856 149.093 C 194.263 147.827, 212.765 149.012, 214.010 150.512 C 214.723 151.371, 214.604 153.423, 213.622 157.193 C 212.843 160.185, 211.900 166.203, 211.527 170.567 C 211.155 174.930, 210.148 180.712, 209.290 183.415 C 207.823 188.037, 207.839 188.409, 209.556 189.665 C 211.674 191.213, 213.898 191.350, 215.942 190.057 C 217.766 188.903, 219.753 182.737, 221.601 172.500 C 222.395 168.100, 223.452 162.250, 223.949 159.500 C 225.228 152.431, 225.208 131.951, 223.918 127.899 C 222.473 123.363, 220.822 119.927, 219 117.668 C 215.464 113.283, 210.413 108.724, 208.049 107.784 C 200.853 104.922, 189.385 102.798, 178.343 102.284 C 163.374 101.586, 163.364 101.576, 164.943 88.985 C 165.524 84.347, 166 80.168, 166 79.697 C 166 78.249, 188.250 80.358, 194.754 82.422 C 197.370 83.252, 201 81.511, 201 79.424 C 201 78.596, 200.015 76.587, 198.812 74.960 C 197.059 72.589, 195.873 72, 192.847 72 C 190.770 72, 187.142 71.357, 184.785 70.572 C 182.428 69.786, 177.250 68.877, 173.278 68.551 C 169.305 68.225, 165.428 67.718, 164.660 67.423 C 162.069 66.429, 161.159 48.592, 163.037 35.601 C 163.865 29.874, 163.772 28.301, 162.494 26.351 C 161.647 25.058, 160.627 24.014, 160.227 24.032 C 159.827 24.049, 157.925 25.645, 156 27.578 M 69.500 78 C 69.160 78.550, 69.610 79, 70.500 79 C 71.390 79, 71.840 78.550, 71.500 78 C 71.160 77.450, 70.710 77, 70.500 77 C 70.290 77, 69.840 77.450, 69.500 78 M 99 107 C 99 107.550, 100.152 108, 101.559 108 C 103.010 108, 103.851 107.567, 103.500 107 C 103.160 106.450, 102.009 106, 100.941 106 C 99.873 106, 99 106.450, 99 107 M 170 107.383 C 170 109.205, 174.203 110.279, 175.199 108.712 C 176.550 106.587, 176.074 106, 173 106 C 171.112 106, 170 106.513, 170 107.383 M 126.694 111.639 C 125.727 112.606, 112.565 113.333, 100.897 113.065 C 92.026 112.860, 91.080 113.027, 88.493 115.252 L 85.693 117.661 87 136.580 C 87.719 146.986, 88.378 161.243, 88.466 168.262 C 88.646 182.767, 89.484 184.875, 93.302 180.436 C 95.610 177.752, 95.939 177.665, 99.618 178.766 C 104.021 180.083, 127.583 179.569, 134.342 178.009 C 136.629 177.481, 140.435 177.038, 142.800 177.024 C 145.164 177.011, 148.441 176.306, 150.080 175.459 L 153.061 173.917 152.780 161.709 L 152.500 149.500 146 149.777 C 142.425 149.929, 129.606 150.076, 117.513 150.102 L 95.526 150.150 92.252 146.578 C 89.471 143.543, 89.157 142.722, 90.161 141.114 C 91.536 138.912, 99.455 137.638, 102.300 139.160 C 103.334 139.714, 108.276 139.890, 113.806 139.571 C 119.138 139.264, 130.427 138.714, 138.894 138.350 L 154.287 137.688 153.630 126.180 C 152.962 114.491, 151.996 111.559, 149.109 112.453 C 145.720 113.504, 137.231 113.088, 130.103 111.523 C 128.618 111.197, 127.084 111.249, 126.694 111.639 M 166.658 114.213 C 165.020 115.222, 164.707 137.688, 166.316 138.732 C 167.467 139.478, 212.841 140.066, 214.159 139.352 C 215.182 138.797, 212.519 129.909, 210.132 125.907 C 207.304 121.168, 196.187 115.661, 186.500 114.202 C 178.924 113.061, 168.521 113.066, 166.658 114.213 M 158 126.941 C 158 127.459, 158.450 128.160, 159 128.500 C 159.550 128.840, 160 128.416, 160 127.559 C 160 126.702, 159.550 126, 159 126 C 158.450 126, 158 126.423, 158 126.941" stroke="none" fill="black" fill-rule="evenodd"/>
</svg>