<svg xmlns="http://www.w3.org/2000/svg" width="300" height="300" viewBox="0 0 300 300" version="1.1">
	<path d="M 183.500 14.612 C 181.300 15.450, 178.150 16.518, 176.500 16.985 C 169.015 19.103, 166.816 20, 164.360 21.932 C 162.723 23.219, 160.259 24, 157.834 24 C 152.968 24, 152.444 25.237, 154.392 32.133 C 156.148 38.351, 156.635 46.079, 155.568 50.791 C 155.153 52.625, 155.246 54.617, 155.779 55.291 C 156.305 55.956, 157.302 60.226, 157.995 64.781 C 159.136 72.284, 159.093 73.240, 157.539 74.956 C 156.596 75.999, 155.992 77.672, 156.195 78.676 C 156.970 82.489, 173.041 79.271, 176.990 74.512 C 177.680 73.680, 179.267 73, 180.515 73 C 181.764 73, 183.045 72.325, 183.362 71.500 C 183.689 70.648, 185.179 70, 186.814 70 C 188.420 70, 190.489 69.117, 191.500 68 C 192.495 66.900, 194.295 66, 195.500 66 C 196.705 66, 198.505 65.100, 199.500 64 C 200.495 62.900, 202.310 62, 203.533 62 C 206.538 62, 208.874 59.273, 206.613 58.405 C 204.485 57.588, 204.579 55.815, 207.034 50.426 C 209.329 45.387, 210.820 39.278, 211.887 30.534 C 213.571 16.738, 210.642 13.469, 196.385 13.235 C 190.521 13.139, 186.140 13.607, 183.500 14.612 M 190 22.394 C 183.223 23.648, 173.817 27.733, 168.250 31.840 C 165.283 34.029, 165 34.706, 165 39.619 C 165 45.672, 165.602 46.025, 171.015 43.147 C 172.932 42.128, 176.300 40.719, 178.500 40.015 C 180.700 39.312, 183.400 38.247, 184.500 37.648 C 188.614 35.409, 193.630 34.030, 197.715 34.015 C 202.640 33.997, 204 32.301, 204 26.173 C 204 20.568, 202.321 20.115, 190 22.394 M 195.750 39.080 C 194.787 39.641, 194 39.827, 194 39.493 C 194 39.159, 193 39.587, 191.777 40.443 C 190.555 41.299, 188.959 42, 188.230 42 C 187.501 42, 185.862 43.125, 184.588 44.500 C 183.313 45.875, 181.855 47, 181.347 47 C 179.171 47, 172.620 51.123, 169.442 54.493 C 166.503 57.609, 166 58.845, 166 62.949 C 166 70.555, 167.015 70.697, 180.083 64.918 C 186.362 62.141, 193.075 59.536, 195 59.129 C 197.938 58.509, 198.446 58.015, 198.163 56.055 C 197.978 54.771, 198.635 50.605, 199.622 46.798 C 201.183 40.781, 201.227 39.756, 199.959 38.953 C 198.152 37.811, 197.917 37.818, 195.750 39.080 M 40.671 60.410 C 39.202 61.995, 38 63.708, 38 64.216 C 38 65.606, 44.131 80.213, 45.663 82.473 C 46.398 83.557, 47 85.633, 47 87.085 C 47 88.537, 48.348 91.422, 49.996 93.495 C 53.289 97.639, 63 117.008, 63 119.432 C 63 120.269, 61.851 121.706, 60.448 122.626 C 57.229 124.735, 57.264 130.258, 60.500 130.849 C 63.918 131.475, 65 133.088, 65 137.563 C 65 142.793, 66.194 143.781, 68.946 140.828 C 72.226 137.306, 72.977 139.110, 76.093 158 C 77.514 166.609, 76.464 222.235, 74.762 228.601 C 73.643 232.786, 73.705 233.311, 75.477 234.607 C 77.882 236.366, 78.864 236.063, 81.287 232.818 C 82.839 230.739, 83.445 227.026, 84.533 212.937 C 85.269 203.409, 85.847 195.362, 85.817 195.056 C 85.599 192.808, 86.576 191.591, 90.696 188.978 C 93.278 187.340, 95.958 186, 96.651 186 C 97.344 186, 99.569 184.875, 101.595 183.500 C 103.621 182.125, 105.870 181, 106.592 181 C 109.165 181, 122 171.690, 122 169.824 C 122 167.647, 119.724 167.423, 118.053 169.436 C 117.398 170.225, 115.432 171.185, 113.685 171.569 C 111.938 171.953, 109.156 172.844, 107.504 173.550 C 105.852 174.256, 102.925 175.509, 101 176.335 C 91.587 180.374, 86.974 181.767, 86.350 180.758 C 85.993 180.180, 85.778 176.511, 85.871 172.604 C 85.965 168.697, 85.194 160.628, 84.158 154.673 C 82.756 146.609, 82.513 142.734, 83.205 139.485 C 84.517 133.336, 83.906 128.593, 81.750 128.185 C 80.698 127.986, 80 128.467, 80 129.391 C 80 131.314, 76.960 133, 73.496 133 C 69.680 133, 70.526 129.210, 75 126.264 C 76.925 124.996, 79.997 122.731, 81.826 121.230 C 83.655 119.728, 86.355 118.050, 87.826 117.500 C 89.297 116.950, 91.625 115.757, 93 114.848 C 94.375 113.940, 96.931 112.898, 98.681 112.534 C 102.204 111.800, 104.522 109.653, 103.527 108.044 C 102.756 106.796, 99.781 106.669, 98.450 107.826 C 96.809 109.253, 89.263 111.280, 88.150 110.593 C 86.876 109.806, 87.717 107.283, 90.021 104.979 C 90.942 104.058, 92.474 100.199, 93.425 96.402 C 94.377 92.606, 95.795 86.995, 96.578 83.934 C 98.382 76.873, 98.399 70.576, 96.616 69.096 C 94.802 67.591, 89.228 67.484, 85.685 68.886 C 84.137 69.499, 81.508 70, 79.843 70 C 78.178 70, 75.671 70.900, 74.273 72 C 72.874 73.100, 70.837 74, 69.746 74 C 68.655 74, 65.169 75.575, 62 77.500 C 58.831 79.425, 55.843 81, 55.360 81 C 54.245 81, 50 69.265, 50 66.184 C 50 62.807, 48.206 60, 46.048 60 C 45.013 60, 43.981 59.444, 43.755 58.764 C 43.494 57.983, 42.357 58.591, 40.671 60.410 M 83.750 76.801 C 81.688 76.977, 80 77.549, 80 78.073 C 80 79.116, 70.138 85.778, 65.751 87.699 C 64.239 88.361, 62.465 90.081, 61.809 91.520 C 60.797 93.740, 60.949 94.771, 62.807 98.318 C 65.310 103.094, 67.948 110.217, 68.708 114.250 C 69.830 120.198, 74.227 116.777, 79.314 106 C 84.572 94.860, 89.759 78.213, 88.317 77.108 C 87.868 76.764, 85.813 76.626, 83.750 76.801 M 66.065 80.421 C 65.097 81.588, 65.257 81.746, 66.958 81.301 C 69.460 80.646, 70.693 79, 68.681 79 C 67.891 79, 66.714 79.640, 66.065 80.421 M 239 86.013 C 237.075 86.457, 231.225 87.578, 226 88.504 C 220.775 89.431, 211.243 91.920, 204.817 94.037 C 198.391 96.153, 191.416 98.159, 189.317 98.495 C 184.068 99.336, 175.169 101.825, 171.216 103.559 C 169.410 104.352, 166.796 105, 165.407 105 C 164.018 105, 158.939 106.332, 154.119 107.960 C 149.300 109.587, 143.364 111.224, 140.928 111.596 C 138.493 111.968, 136.050 112.618, 135.500 113.041 C 134.950 113.463, 133.375 113.964, 132 114.154 C 130.117 114.415, 129.421 115.185, 129.181 117.272 C 128.911 119.629, 129.397 120.268, 132.426 121.534 C 135.791 122.940, 136.505 122.853, 145.245 119.976 C 150.335 118.300, 156.330 116.045, 158.566 114.965 C 160.802 113.884, 164.529 113, 166.848 113 C 169.167 113, 172.680 112.325, 174.654 111.500 C 176.629 110.675, 179.806 110, 181.714 110 C 183.670 110, 186.294 109.127, 187.727 108 C 189.126 106.900, 191.691 106, 193.428 106 C 196.637 106, 213.229 101.675, 216.038 100.106 C 216.885 99.634, 219.579 98.909, 222.025 98.496 C 224.472 98.082, 228.280 97.094, 230.487 96.300 C 232.694 95.506, 236.886 94.700, 239.802 94.508 C 247.825 93.980, 250.345 90.777, 245.750 86.944 C 244.512 85.911, 243.275 85.098, 243 85.137 C 242.725 85.175, 240.925 85.570, 239 86.013 M 213 95 C 213 95.550, 213.675 96, 214.500 96 C 215.325 96, 216 95.550, 216 95 C 216 94.450, 215.325 94, 214.500 94 C 213.675 94, 213 94.450, 213 95 M 199.459 99.067 C 199.096 99.653, 199.040 100.373, 199.333 100.667 C 200.050 101.383, 202 100.121, 202 98.941 C 202 97.663, 200.274 97.748, 199.459 99.067 M 191.500 102 C 189.870 102.701, 189.812 102.872, 191.191 102.930 C 192.121 102.968, 193.160 102.550, 193.500 102 C 194.211 100.850, 194.176 100.850, 191.500 102 M 178.166 104.876 C 177.054 105.581, 177.054 105.804, 178.166 106.214 C 179.859 106.838, 182 106.113, 182 104.917 C 182 103.775, 179.938 103.753, 178.166 104.876 M 168.607 118.750 C 168.316 119.713, 167.391 123.854, 166.551 127.953 C 164.160 139.617, 160.116 149.353, 153.377 159.669 C 151.520 162.513, 150 165.169, 150 165.573 C 150 166.600, 145.934 175.282, 138.326 190.500 C 131.471 204.211, 128.798 213.846, 131.084 216.602 C 133.160 219.102, 134.985 218.091, 137.137 213.250 C 141.245 204.007, 145.497 195.546, 147.565 192.499 C 148.717 190.802, 150.908 186.733, 152.435 183.457 C 157.244 173.139, 161.146 165.554, 162.443 164 C 163.132 163.175, 163.975 161.713, 164.317 160.750 C 165.073 158.617, 166.801 158.510, 168.958 160.462 C 170.577 161.927, 175 161.546, 175 159.941 C 175 159.487, 178.262 158.133, 182.250 156.932 C 186.238 155.731, 191.075 154.162, 193 153.447 C 196.442 152.167, 200.708 151.408, 210.392 150.353 C 213.082 150.060, 216.907 148.997, 218.892 147.991 C 222.266 146.280, 226.721 145.678, 234.933 145.823 C 239.211 145.898, 243.189 148.754, 244.501 152.692 C 245.052 154.344, 246.177 156.512, 247.001 157.509 C 248.262 159.034, 248.454 163.250, 248.210 184.038 C 247.921 208.741, 247.381 216.954, 244.564 239.500 C 243.739 246.100, 242.790 253.750, 242.455 256.500 C 241.204 266.784, 239.275 268.577, 232.315 265.929 C 230.767 265.339, 226.044 264.463, 221.819 263.980 C 217.595 263.498, 213.320 262.633, 212.319 262.059 C 209.512 260.448, 201.721 258.055, 200.911 258.555 C 199.179 259.625, 201.445 262.757, 204.821 263.960 C 206.844 264.682, 209.625 266.027, 211 266.951 C 216.071 270.357, 228.966 275, 233.355 275 C 236.046 275, 238.239 275.583, 239 276.500 C 241.093 279.022, 244.320 278.251, 246.777 274.641 C 249.887 270.074, 250.782 266.535, 252.500 252 C 253.313 245.125, 254.425 237.956, 254.971 236.069 C 255.517 234.182, 256.204 227.657, 256.497 221.569 C 256.791 215.481, 257.490 202.688, 258.052 193.139 C 258.614 183.591, 258.786 173.016, 258.433 169.639 C 257.799 163.570, 255.619 155.510, 254.073 153.525 C 253.635 152.961, 252.959 151.177, 252.571 149.561 C 251.401 144.676, 248.055 140.998, 242.449 138.434 C 236.254 135.600, 234.237 135.456, 229.346 137.500 C 227.371 138.325, 223.673 139.003, 221.128 139.006 C 218.583 139.010, 215.170 139.706, 213.545 140.553 C 211.919 141.401, 208.544 142.360, 206.045 142.685 C 203.545 143.010, 200.968 143.694, 200.318 144.204 C 199.668 144.714, 196.084 145.564, 192.352 146.092 C 188.621 146.621, 184.556 147.716, 183.319 148.527 C 182.082 149.337, 179.805 150, 178.258 150 C 176.711 150, 174.441 150.703, 173.215 151.562 C 169.889 153.891, 169.334 151.255, 172.012 145.846 C 173.196 143.456, 174.834 139.314, 175.653 136.641 C 176.472 133.969, 178.486 129.298, 180.129 126.262 C 183.765 119.541, 183.351 117.519, 178.501 118.306 C 176.595 118.615, 174.777 118.448, 174.459 117.934 C 173.449 116.300, 169.166 116.897, 168.607 118.750 M 158.996 158.504 C 157.707 159.877, 157.110 161, 157.671 161 C 158.948 161, 162.495 157.162, 161.831 156.498 C 161.562 156.228, 160.286 157.131, 158.996 158.504 M 190.667 160.667 C 189.284 162.049, 190.082 163.877, 192.250 164.294 C 194.179 164.666, 194.108 164.747, 191.750 164.864 C 190.238 164.939, 189 165.475, 189 166.055 C 189 166.635, 188.075 169.223, 186.945 171.805 C 183.661 179.310, 183.448 179.898, 179.427 192.500 C 177.322 199.100, 175.058 205.400, 174.398 206.500 C 173.737 207.600, 172.867 210.075, 172.465 212 C 172.063 213.925, 170.893 217.068, 169.867 218.985 C 168.840 220.902, 168 223.297, 168 224.307 C 168 225.317, 167.325 226.818, 166.500 227.643 C 165.675 228.468, 165 230.355, 165 231.836 C 165 233.318, 164.100 236.209, 163 238.261 C 161.900 240.314, 161 242.644, 161 243.440 C 161 245.057, 164.725 248, 166.771 248 C 168.314 248, 171.946 240.528, 171.978 237.288 C 171.990 236.072, 173.501 231.797, 175.335 227.788 C 179.841 217.943, 182.412 211.564, 184.519 205 C 186.312 199.417, 189.950 190.075, 192.562 184.349 C 193.353 182.616, 194 180.317, 194 179.240 C 194 178.163, 195.350 174.752, 197 171.660 C 200.243 165.583, 200.674 163.074, 198.800 161.200 C 197.524 159.924, 191.785 159.548, 190.667 160.667 M 209.398 169.680 C 209.071 170.681, 208.195 173.143, 207.450 175.151 C 206.705 177.160, 205.825 181.210, 205.494 184.151 C 204.466 193.315, 199.997 212.138, 196.866 220.500 C 192.164 233.056, 190.861 236.372, 189.897 238.236 C 188.739 240.477, 188.746 243.725, 189.910 244.444 C 191.053 245.151, 194 244.070, 194 242.945 C 194 242.482, 195.035 240.986, 196.300 239.621 C 198.400 237.355, 203.422 227.967, 206.528 220.500 C 211.850 207.708, 214.261 195.151, 214.401 179.500 C 214.497 168.813, 214.436 168.491, 212.246 168.180 C 210.762 167.969, 209.788 168.482, 209.398 169.680 M 147.200 179.200 C 146.540 179.860, 146.015 181.322, 146.033 182.450 C 146.065 184.415, 146.148 184.402, 148.033 182.139 C 150.932 178.660, 150.227 176.173, 147.200 179.200 M 41.224 188.759 C 39.755 189.248, 39.576 195.620, 41.007 196.504 C 42.797 197.611, 45.106 203.020, 46.053 208.325 C 46.562 211.171, 47.649 217.100, 48.469 221.500 C 50.031 229.880, 50.321 240.594, 49.176 247.689 C 48.644 250.984, 47.754 252.380, 45.007 254.225 C 43.086 255.515, 41.364 257.351, 41.180 258.304 C 40.736 260.609, 47.263 263.369, 51.430 262.639 C 64.067 260.423, 71.396 258.984, 74.677 258.073 C 76.780 257.489, 79.668 257.009, 81.095 257.006 C 82.522 257.003, 84.505 256.100, 85.500 255 C 86.495 253.900, 88.310 253, 89.533 253 C 90.755 253, 92.315 252.325, 93 251.500 C 93.685 250.675, 94.908 250, 95.718 250 C 96.528 250, 98.386 249.166, 99.846 248.146 C 101.306 247.126, 103.706 246, 105.180 245.644 C 106.654 245.288, 108.534 244.323, 109.359 243.498 C 110.183 242.674, 111.088 242, 111.369 242 C 111.651 242, 115.762 240.174, 120.505 237.941 C 125.594 235.546, 128.948 233.394, 128.689 232.691 C 128.447 232.036, 127.856 231.592, 127.375 231.704 C 125.083 232.239, 119.235 234.412, 116.939 235.583 C 115.531 236.302, 111.256 237.859, 107.439 239.044 C 103.623 240.228, 98.250 242.227, 95.500 243.484 C 91.168 245.465, 83.738 247.666, 69.971 251.045 C 68.030 251.521, 65.105 251.737, 63.471 251.524 C 61.837 251.312, 59.803 251.107, 58.951 251.069 C 57.626 251.010, 57.408 248.938, 57.441 236.750 C 57.470 225.756, 56.943 219.758, 55.133 210.500 C 53.843 203.900, 52.562 196.810, 52.288 194.744 C 52.013 192.678, 51.308 190.691, 50.721 190.328 C 49.156 189.361, 42.646 188.285, 41.224 188.759 M 80.158 198 C 80.158 199.375, 80.385 199.938, 80.662 199.250 C 80.940 198.563, 80.940 197.438, 80.662 196.750 C 80.385 196.063, 80.158 196.625, 80.158 198" stroke="none" fill="black" fill-rule="evenodd"/>
</svg>