<svg xmlns="http://www.w3.org/2000/svg" width="300" height="300" viewBox="0 0 300 300" version="1.1">
	<path d="M 217.959 14.741 C 215.092 16.750, 213 21.952, 213 27.075 C 213 30.342, 213.316 31.093, 214.499 30.639 C 215.748 30.160, 215.956 31.103, 215.747 36.282 L 215.497 42.500 211.294 42.805 C 208.983 42.973, 203.133 42.613, 198.296 42.005 C 171.995 38.701, 170.845 38.608, 169.178 39.660 C 168.255 40.242, 167.500 41.794, 167.500 43.109 C 167.500 45.257, 167.880 45.470, 171.250 45.207 C 174.390 44.961, 175 45.228, 175 46.844 C 175 48.508, 175.930 48.847, 181.750 49.302 C 189.039 49.871, 202.049 51.611, 205.855 52.525 C 207.715 52.972, 208.081 53.553, 207.597 55.295 C 205.776 61.849, 205.771 62, 207.392 62 C 208.388 62, 209.006 61.144, 209.015 59.750 C 209.024 58.513, 209.449 56.838, 209.961 56.029 C 211.608 53.425, 212.361 55.866, 211.417 60.751 C 210.618 64.889, 210.211 65.460, 208.250 65.187 C 207.012 65.015, 206 65.274, 206 65.762 C 206 66.251, 200.402 66.533, 193.561 66.389 C 183.433 66.176, 180.228 66.470, 176.311 67.971 C 173.665 68.985, 169.925 70.419, 168 71.157 C 163.751 72.787, 162.858 73.886, 163.658 76.500 C 164.495 79.235, 165.868 79.967, 170.200 79.985 C 172.608 79.995, 174.222 79.425, 174.822 78.353 C 175.524 77.100, 177.603 76.620, 183.531 76.344 C 187.814 76.144, 191.900 75.498, 192.611 74.908 C 193.368 74.280, 194.857 74.156, 196.202 74.609 C 197.466 75.035, 199.287 75.269, 200.250 75.129 C 202.412 74.814, 202.545 77.439, 200.604 82.128 C 199.837 83.983, 198.921 87.750, 198.569 90.500 C 197.657 97.629, 194.903 103.981, 192.500 104.498 C 191.400 104.735, 186.225 105.426, 181 106.034 C 164.106 107.999, 160.565 108.579, 156.750 110.002 C 152.084 111.744, 151.841 114.349, 156.138 116.571 C 159.037 118.070, 160.123 118.067, 170.388 116.524 C 176.500 115.605, 182.827 114.442, 184.448 113.939 C 188.012 112.833, 189.151 114.117, 187.949 117.884 C 185.494 125.574, 183.123 131.037, 175.527 146.500 C 170.934 155.850, 166.204 166.425, 165.014 170 C 163.825 173.575, 161.980 177.997, 160.914 179.827 C 158.832 183.401, 159.112 185.010, 161.809 184.983 C 162.919 184.972, 164.311 182.997, 165.860 179.233 C 167.159 176.080, 168.827 172.150, 169.568 170.500 C 175.123 158.134, 177.643 153.015, 179.753 149.813 C 181.089 147.785, 182.552 144.635, 183.005 142.813 C 184.226 137.892, 191.308 120.564, 193.758 116.500 C 194.693 114.948, 195.157 114.793, 195.826 115.808 C 196.515 116.851, 197.380 116.708, 200.104 115.101 C 202.349 113.776, 206.293 112.856, 211.629 112.411 C 218.522 111.836, 220.211 112.012, 222.871 113.583 C 224.592 114.599, 226 115.880, 226 116.428 C 226 116.976, 227.186 118.370, 228.635 119.526 C 230.884 121.319, 231.104 121.936, 230.139 123.741 C 228.736 126.362, 229.527 128.643, 232.069 129.308 C 233.174 129.597, 234 130.678, 234 131.835 C 234 132.947, 234.726 134.583, 235.614 135.471 C 236.505 136.362, 237.538 139.710, 237.919 142.942 C 238.600 148.719, 242.312 155.415, 245.514 156.644 C 246.231 156.919, 247.383 158.574, 248.076 160.322 C 249.595 164.155, 256.505 171, 258.856 171 C 259.785 171, 262.235 172.393, 264.300 174.096 C 266.399 175.826, 268.706 176.943, 269.528 176.628 C 271.009 176.059, 271.653 171, 270.245 171 C 269.829 171, 267.675 169.313, 265.457 167.250 C 263.240 165.188, 260.192 162.600, 258.686 161.500 C 256.248 159.721, 248 148.816, 248 147.373 C 248 147.063, 247.159 145.614, 246.131 144.154 C 245.103 142.694, 243.919 140.375, 243.500 139 C 243.081 137.625, 241.947 135.375, 240.982 134 C 240.016 132.625, 238.642 129.475, 237.928 127 C 237.214 124.525, 236.039 121.612, 235.315 120.527 C 234.592 119.443, 234 116.662, 234 114.348 L 234 110.142 239.750 108.461 C 242.912 107.537, 247.525 106.489, 250 106.133 C 254.026 105.554, 254.535 105.184, 254.828 102.621 C 255.470 97.018, 254.515 96.990, 234 102.017 C 229.875 103.028, 221.661 104.012, 215.746 104.203 C 203.576 104.597, 202.801 104.115, 205.439 97.801 C 206.248 95.864, 207.109 93.204, 207.351 91.889 C 208.238 87.074, 212.049 77.469, 213.498 76.394 C 215.148 75.170, 230.879 73.506, 238.141 73.788 C 243.292 73.987, 245.560 72.340, 244.544 69.138 C 244.009 67.452, 242.645 67.087, 234.711 66.502 C 229.645 66.129, 223.250 65.976, 220.500 66.162 L 215.500 66.500 215.816 61 C 216.201 54.297, 218.564 50.577, 222.608 50.307 C 226.470 50.048, 234.193 47.947, 235.750 46.731 C 237.391 45.450, 237.354 42.073, 235.692 41.435 C 234.973 41.159, 231.493 41.608, 227.958 42.433 C 223.905 43.378, 221.181 43.581, 220.583 42.983 C 219.420 41.820, 221.463 27.367, 223.660 21.218 C 224.501 18.863, 224.960 16.338, 224.679 15.607 C 223.880 13.525, 220.346 13.069, 217.959 14.741 M 178.496 44.007 C 177.711 45.276, 180.511 46.420, 182.059 45.464 C 182.901 44.943, 182.847 44.518, 181.857 43.890 C 180.069 42.758, 179.250 42.786, 178.496 44.007 M 88.750 45.080 C 87.787 45.641, 87 47.202, 87 48.550 C 87 49.969, 86.418 51, 85.617 51 C 83.253 51, 81.832 61.160, 84.007 62.505 C 85.268 63.283, 84.925 82.928, 83.638 83.724 C 83.131 84.037, 72.655 84.231, 60.358 84.154 L 38 84.014 38 86.507 C 38 88.782, 38.380 89, 42.346 89 C 44.737 89, 48.190 89.747, 50.021 90.660 C 52.371 91.833, 56.989 92.461, 65.740 92.798 C 74.653 93.141, 78.535 93.678, 79.566 94.709 C 80.360 95.503, 81 95.665, 81 95.071 C 81 94.482, 81.678 94, 82.506 94 C 83.781 94, 83.913 95.338, 83.367 102.750 C 83.012 107.563, 82.570 111.678, 82.383 111.895 C 82.197 112.112, 79.672 112.456, 76.772 112.660 C 67.757 113.294, 54.553 115.273, 53.389 116.164 C 52.746 116.656, 50.714 116.361, 48.566 115.463 C 46.524 114.610, 44.035 114.172, 43.035 114.489 C 39.460 115.623, 38.884 124.425, 42.154 127.935 C 45.019 131.010, 46.898 143.667, 46.875 159.730 C 46.858 171.719, 47.202 174, 49.024 174 C 51.103 174, 52.381 169.006, 52.439 160.663 L 52.500 151.826 56.500 150.428 C 61.610 148.642, 61.805 148.654, 61.639 150.750 C 61.516 152.297, 62.633 152.518, 71.279 152.654 C 76.657 152.739, 81.720 153.062, 82.529 153.373 C 84.090 153.972, 84.590 162.798, 83.401 168.746 C 82.631 172.596, 79.027 173.639, 65.639 173.885 C 53.899 174.101, 48.318 175.857, 49.911 178.833 C 51.178 181.201, 55.659 181.975, 68.185 181.989 C 73.512 181.995, 79.032 182.442, 80.453 182.982 C 82.871 183.902, 83.038 184.394, 83.083 190.732 C 83.109 194.454, 83.213 199.300, 83.315 201.500 L 83.500 205.500 77.500 206.141 C 74.200 206.494, 67.900 206.843, 63.500 206.916 C 59.100 206.989, 53.700 207.463, 51.500 207.969 C 49.300 208.475, 43.450 209.372, 38.500 209.962 C 28.470 211.158, 25 212.481, 25 215.110 C 25 217.323, 26.320 218.181, 31.984 219.648 C 35.641 220.596, 36.984 220.542, 39.272 219.359 C 44.499 216.656, 76.966 214.896, 82.537 217.014 C 84.123 217.617, 84.997 218.566, 84.693 219.357 C 84.413 220.089, 83.902 227.395, 83.559 235.593 C 82.632 257.753, 82.181 261.108, 80.175 260.777 C 78.886 260.564, 78.550 261.182, 78.717 263.458 C 78.836 265.085, 78.237 267.185, 77.386 268.126 C 75.071 270.684, 75.971 274.429, 79 274.838 C 80.375 275.023, 82.496 276.099, 83.713 277.227 C 85.815 279.176, 86.054 279.195, 88.480 277.605 C 90.594 276.220, 90.853 275.593, 89.982 273.966 C 89.403 272.885, 88.434 272, 87.829 272 C 85.999 272, 88.264 217.212, 90.163 215.545 C 90.348 215.382, 94.325 214.962, 99 214.612 C 111.451 213.679, 125.102 212.269, 128.250 211.592 C 129.762 211.266, 132.125 210.766, 133.500 210.481 C 135.344 210.098, 136 209.320, 136 207.516 C 136 204.261, 133.400 203.040, 127.427 203.493 C 124.717 203.699, 115.439 204.424, 106.810 205.105 C 93.895 206.125, 90.838 206.110, 89.528 205.023 C 88.215 203.933, 87.986 201.768, 88.219 192.602 L 88.500 181.500 100.938 181.218 C 107.779 181.062, 114.529 181.315, 115.938 181.778 C 119.747 183.031, 122 182.201, 122 179.543 C 122 178.076, 121.272 177.043, 120.005 176.711 C 118.154 176.228, 118.055 175.621, 118.642 168.345 C 118.989 164.030, 119.738 159.913, 120.305 159.195 C 120.921 158.415, 121.369 150.529, 121.418 139.617 C 121.509 119.228, 120.670 115.448, 116.241 116.294 C 114.954 116.540, 109.986 116.348, 105.201 115.866 C 100.415 115.385, 95.133 114.854, 93.463 114.686 C 91.793 114.519, 89.881 114.044, 89.213 113.632 C 87.504 112.576, 87.537 93.603, 89.250 92.277 C 90.654 91.191, 96.473 89.144, 109 85.332 C 118.147 82.548, 120 81.540, 120 79.346 C 120 77, 117.147 76.649, 111.175 78.261 C 104.362 80.100, 91.798 83.020, 90.750 83.008 C 90.338 83.004, 90 78.039, 90 71.975 C 90 63.513, 90.465 59.627, 92 55.260 C 94.412 48.398, 94.529 45.417, 92.418 44.607 C 90.527 43.881, 90.888 43.835, 88.750 45.080 M 183.750 69.758 C 182.787 69.972, 182 70.819, 182 71.640 C 182 73.409, 187.126 73.170, 187.715 71.373 C 188.157 70.025, 186.177 69.219, 183.750 69.758 M 204.145 82.750 C 197.635 100.581, 196.429 108.171, 200.800 103.800 C 201.460 103.140, 202 101.310, 202 99.734 C 202 98.158, 202.520 95.896, 203.156 94.708 C 203.792 93.519, 204.649 91.186, 205.061 89.524 C 205.472 87.861, 206.482 84.362, 207.306 81.750 C 209.558 74.611, 206.797 75.484, 204.145 82.750 M 173.813 111.683 C 174.534 111.972, 175.397 111.936, 175.729 111.604 C 176.061 111.272, 175.471 111.036, 174.417 111.079 C 173.252 111.127, 173.015 111.364, 173.813 111.683 M 51.018 121.956 C 50.190 123.955, 50.032 126.951, 50.528 131.206 C 50.932 134.668, 51.372 138.850, 51.506 140.500 L 51.749 143.500 66.616 143.172 C 74.793 142.992, 82 142.415, 82.632 141.891 C 84.212 140.580, 83.823 125.423, 82.167 123.767 C 80.506 122.106, 65.460 121.428, 62.641 122.887 C 61.464 123.496, 59.375 124.109, 58 124.248 C 55.841 124.466, 55.526 124.125, 55.688 121.750 C 55.954 117.875, 52.648 118.022, 51.018 121.956 M 88.743 123.590 C 87.771 124.562, 87.807 139.149, 88.786 140.687 C 89.338 141.556, 93.103 141.716, 102.819 141.284 C 114.498 140.765, 116.008 140.501, 115.359 139.097 C 114.953 138.219, 114.441 134.911, 114.221 131.747 C 113.767 125.206, 114.199 125.469, 102.500 124.616 C 98.650 124.335, 94.147 123.822, 92.493 123.476 C 90.839 123.130, 89.152 123.182, 88.743 123.590 M 82 148 C 82.589 149.100, 83.280 150, 83.535 150 C 83.791 150, 84 149.100, 84 148 C 84 146.869, 83.333 146, 82.465 146 C 81.240 146, 81.146 146.404, 82 148 M 99.293 149.401 C 94.779 150.006, 90.549 151.040, 89.893 151.700 C 89.204 152.393, 88.496 157.142, 88.217 162.950 L 87.733 173 96.616 173.011 C 101.502 173.017, 107.126 173.291, 109.114 173.620 C 112.500 174.180, 112.800 174.011, 113.864 170.960 C 114.489 169.168, 115 163.733, 115 158.882 C 115 151.454, 114.763 150.154, 113.500 150.638 C 112.550 151.003, 112 150.625, 112 149.607 C 112 147.791, 111.394 147.781, 99.293 149.401 M 63.813 149.683 C 64.534 149.972, 65.397 149.936, 65.729 149.604 C 66.061 149.272, 65.471 149.036, 64.417 149.079 C 63.252 149.127, 63.015 149.364, 63.813 149.683 M 209.500 169.051 C 207.300 169.514, 203.108 170.344, 200.185 170.896 C 190.750 172.678, 178.561 176.084, 176.250 177.585 C 175.012 178.389, 174 179.680, 174 180.456 C 174 182.390, 177.498 183.339, 179.896 182.055 C 180.981 181.475, 183.447 181, 185.375 181 C 187.304 181, 189.160 180.550, 189.500 180 C 189.840 179.450, 191.247 179, 192.628 179 L 195.137 179 194.459 187.250 C 194.085 191.787, 193.478 197.044, 193.110 198.931 C 192.399 202.568, 192.139 202.688, 178 205.887 C 176.075 206.323, 172.707 207.651, 170.515 208.840 C 168.323 210.028, 165.960 211, 165.265 211 C 164.569 211, 164 211.450, 164 212 C 164 212.550, 163.487 213, 162.860 213 C 162.233 213, 161.160 213.767, 160.475 214.704 C 158.966 216.767, 160.419 220.715, 162.889 221.267 C 164.474 221.621, 170.579 219.914, 174.500 218.020 C 177.429 216.605, 185.301 214.031, 186.750 214.015 C 188.191 213.998, 188.382 216.243, 187.154 218.764 C 186.689 219.719, 184.619 223.875, 182.556 228 C 180.492 232.125, 176.108 240.900, 172.813 247.500 C 169.519 254.100, 166.412 260.175, 165.909 261 C 165.406 261.825, 164.596 263.412, 164.107 264.527 C 163.619 265.641, 161.119 269.621, 158.552 273.370 C 153.400 280.896, 152.730 285.248, 156.639 285.805 C 159.536 286.218, 163.093 282.644, 166.394 276 C 167.897 272.975, 169.516 269.825, 169.991 269 C 170.467 268.175, 171.131 266.825, 171.467 266 C 172.114 264.412, 172.988 262.935, 177.091 256.500 C 178.493 254.300, 180.664 250.250, 181.915 247.500 C 183.166 244.750, 185.876 238.900, 187.937 234.500 C 189.998 230.100, 192.933 223.497, 194.460 219.827 C 196.919 213.913, 197.763 212.888, 201.867 210.827 C 207.280 208.108, 208.264 207.023, 206.857 205.327 C 205.512 203.707, 206.647 201.927, 208.558 202.660 C 209.701 203.099, 209.784 203.555, 208.913 204.605 C 206.836 207.107, 210.698 207.344, 217.776 205.149 C 221.474 204.001, 226.525 202.555, 229 201.934 C 231.475 201.313, 233.950 200.463, 234.500 200.047 C 235.050 199.630, 237.705 198.750, 240.401 198.092 C 248.441 196.129, 251.172 194.319, 250.811 191.193 C 250.537 188.818, 250.017 188.465, 246.409 188.200 C 244.158 188.035, 240.333 188.633, 237.909 189.529 C 235.484 190.425, 231.925 191.514, 230 191.951 C 228.075 192.387, 225.375 193.190, 224 193.736 C 222.625 194.281, 219.256 195.057, 216.513 195.460 C 213.770 195.864, 210.380 196.786, 208.979 197.511 C 205.432 199.345, 199.345 200.368, 198.652 199.246 C 198.335 198.733, 198.336 196.702, 198.656 194.733 C 199.071 192.173, 199.644 191.310, 200.666 191.702 C 202.666 192.470, 204.562 189.494, 206.064 183.231 C 206.793 180.196, 208.098 177.483, 209.084 176.955 C 210.039 176.444, 214.686 175.728, 219.410 175.365 C 225.051 174.932, 228.416 174.203, 229.212 173.244 C 231.035 171.048, 227.599 169.003, 222.059 168.986 C 219.551 168.979, 216.600 168.801, 215.500 168.591 C 214.400 168.381, 211.700 168.588, 209.500 169.051 M 199.500 176 C 199.160 176.550, 199.332 177, 199.882 177 C 200.432 177, 201.160 176.550, 201.500 176 C 201.840 175.450, 201.668 175, 201.118 175 C 200.568 175, 199.840 175.450, 199.500 176 M 185.558 177.907 C 185.249 178.405, 185.898 178.578, 186.999 178.290 C 189.334 177.679, 189.629 177, 187.559 177 C 186.766 177, 185.866 177.408, 185.558 177.907 M 211.459 201.067 C 210.486 202.641, 211.565 203.273, 213.939 202.519 C 215.089 202.154, 215.771 201.438, 215.456 200.928 C 214.678 199.670, 212.270 199.754, 211.459 201.067 M 52 210.567 C 52 211.657, 51.416 211.949, 50.084 211.527 C 49.030 211.192, 47.897 211.358, 47.565 211.895 C 46.855 213.044, 54.584 214.388, 58.093 213.726 C 59.607 213.441, 58.957 213.222, 56.344 213.136 C 52.709 213.017, 52.253 212.749, 52.710 211 C 52.998 209.900, 52.956 209, 52.617 209 C 52.277 209, 52 209.705, 52 210.567 M 100.079 210.583 C 100.127 211.748, 100.364 211.985, 100.683 211.188 C 100.972 210.466, 100.936 209.603, 100.604 209.271 C 100.272 208.939, 100.036 209.529, 100.079 210.583 M 79.624 226.539 C 79.281 227.432, 79.039 228.914, 79.086 229.832 C 79.133 230.749, 79.568 230.173, 80.053 228.550 C 80.996 225.394, 80.662 223.832, 79.624 226.539 M 200.035 231.934 C 198.492 234.818, 198.778 237.489, 200.829 239.345 C 201.835 240.255, 202.954 241, 203.315 241 C 204.538 241, 207.037 233.692, 206.449 231.839 C 205.667 229.375, 201.371 229.439, 200.035 231.934 M 208.428 236.328 C 207.738 238.125, 209.354 242.022, 211.904 244.708 C 213.057 245.923, 214 247.835, 214 248.958 C 214 250.081, 214.649 251, 215.443 251 C 216.237 251, 217.475 251.817, 218.193 252.816 C 219.550 254.701, 222.854 256.465, 224.375 256.117 C 225.461 255.868, 229 258.990, 229 260.197 C 229 262.014, 232.640 264.669, 237 266.033 C 239.475 266.806, 242.095 268.016, 242.821 268.720 C 243.548 269.424, 245.452 270, 247.051 270 C 248.651 270, 251.735 270.711, 253.906 271.579 C 256.209 272.501, 261.317 273.229, 266.176 273.329 C 273.958 273.489, 274.520 273.362, 274.802 271.380 C 275.127 269.103, 272.898 268.039, 267.750 268.014 C 266.238 268.006, 265 267.633, 265 267.183 C 265 266.734, 262.039 265.778, 258.421 265.059 C 242.081 261.811, 230.446 255.322, 217.741 242.371 C 213.764 238.317, 210.157 235, 209.724 235 C 209.291 235, 208.708 235.597, 208.428 236.328 M 225 259 C 225 259.550, 225.450 260, 226 260 C 226.550 260, 227 259.550, 227 259 C 227 258.450, 226.550 258, 226 258 C 225.450 258, 225 258.450, 225 259 M 80.079 266.583 C 80.127 267.748, 80.364 267.985, 80.683 267.188 C 80.972 266.466, 80.936 265.603, 80.604 265.271 C 80.272 264.939, 80.036 265.529, 80.079 266.583" stroke="none" fill="black" fill-rule="evenodd"/>
</svg>