<svg xmlns="http://www.w3.org/2000/svg" width="300" height="300" viewBox="0 0 300 300" version="1.1">
	<path d="M 190.083 18.250 C 185.634 28.536, 183.502 32.222, 178.128 38.914 C 174.853 42.992, 170.068 50.079, 167.495 54.664 C 164.210 60.516, 162.253 63, 160.928 63 C 159.889 63, 156.218 64.087, 152.770 65.416 C 149.321 66.745, 141.550 68.518, 135.500 69.357 C 121.496 71.298, 115.165 72.501, 114.276 73.391 C 113.187 74.480, 115.382 77.352, 118.455 78.859 C 120.706 79.963, 121.667 79.981, 123.579 78.958 C 124.873 78.265, 125.727 77.368, 125.477 76.963 C 125.227 76.558, 125.945 75.986, 127.072 75.691 C 128.295 75.371, 129.334 75.706, 129.646 76.520 C 130.037 77.540, 131.479 77.738, 135.335 77.305 C 141.426 76.620, 144 75.479, 144 73.465 C 144 72.569, 144.971 72, 146.500 72 C 147.875 72, 149 72.450, 149 73 C 149 73.550, 149.450 74, 150 74 C 150.550 74, 151 73.067, 151 71.927 C 151 70.482, 151.530 69.962, 152.750 70.213 C 153.713 70.411, 154.382 71.282, 154.237 72.150 C 153.814 74.694, 158.581 73.215, 159.861 70.406 C 160.932 68.056, 164 67.014, 164 69 C 164 70.500, 167.940 70.203, 169.563 68.580 C 170.647 67.496, 170.689 67.056, 169.741 66.717 C 166.841 65.681, 170.506 64.694, 177.732 64.565 C 185.752 64.421, 192.298 62.272, 193.391 59.423 C 193.753 58.479, 195.479 58, 198.518 58 C 204.038 58, 209.184 55.643, 208.359 53.492 C 208.044 52.671, 208.284 52, 208.893 52 C 209.502 52, 210 52.675, 210 53.500 C 210 55.485, 210.899 55.385, 214.500 53 C 216.234 51.852, 219.192 51.010, 221.509 51.007 C 224.395 51.002, 225.860 50.454, 226.735 49.053 C 227.640 47.603, 229.297 47.029, 233.225 46.803 C 237.864 46.537, 238.539 46.222, 238.827 44.195 C 239.598 38.757, 234.260 37.559, 224.986 41.087 C 221.969 42.235, 217.802 43.589, 215.728 44.097 C 213.653 44.605, 210.284 45.916, 208.242 47.010 C 206.200 48.105, 203.960 49, 203.265 49 C 202.569 49, 202 49.450, 202 50 C 202 50.550, 200.924 51, 199.609 51 C 198.294 51, 195.257 51.890, 192.859 52.978 C 190.462 54.066, 187.363 54.966, 185.973 54.978 C 184.582 54.990, 182.555 55.623, 181.467 56.386 C 178.535 58.439, 172.133 60.024, 171.421 58.873 C 171.095 58.344, 172.554 55.941, 174.664 53.533 C 183.716 43.203, 187 39.124, 187 38.214 C 187 37.681, 187.746 36.627, 188.658 35.872 C 189.569 35.118, 192.022 30.910, 194.107 26.522 C 197.616 19.139, 197.779 18.413, 196.294 16.772 C 193.876 14.101, 191.648 14.631, 190.083 18.250 M 146.200 20.200 C 144.506 21.894, 144.710 24.675, 146.582 25.393 C 150.001 26.705, 151 26.051, 151 22.500 C 151 19.796, 150.590 19, 149.200 19 C 148.210 19, 146.860 19.540, 146.200 20.200 M 151 29.962 C 151 33.786, 154.755 43.821, 157.146 46.387 C 158.166 47.482, 159 48.967, 159 49.689 C 159 50.410, 159.188 51, 159.418 51 C 159.648 51, 160.548 51.273, 161.418 51.607 C 163.675 52.473, 163.432 50.826, 159.863 41.072 C 155.292 28.583, 151 23.202, 151 29.962 M 55.667 51.667 C 54.475 52.859, 54.962 56.500, 56.632 58.884 C 57.529 60.166, 60.342 62.180, 62.882 63.362 C 65.422 64.543, 69.220 66.577, 71.323 67.882 C 76.410 71.038, 78.229 69.413, 74.096 65.404 C 70.512 61.928, 67.974 59.876, 65.465 58.424 C 64.442 57.832, 62.906 55.930, 62.052 54.197 C 60.586 51.220, 57.383 49.951, 55.667 51.667 M 135.553 73.915 C 135.231 74.436, 135.394 75.125, 135.915 75.447 C 136.436 75.769, 137.125 75.606, 137.447 75.085 C 137.769 74.564, 137.606 73.875, 137.085 73.553 C 136.564 73.231, 135.875 73.394, 135.553 73.915 M 180.465 78.020 C 177.507 79.120, 175.800 81.562, 176.145 84.200 C 176.311 85.468, 175.933 87.855, 175.305 89.503 C 174.677 91.151, 173.914 97.450, 173.610 103.500 C 173.297 109.721, 172.169 117.759, 171.013 122 C 169.890 126.125, 168.507 134.892, 167.940 141.483 C 166.609 156.969, 165.826 158, 155.385 158 C 147.151 158, 146.450 157.463, 146.939 151.528 C 147.122 149.313, 147.381 145.925, 147.514 144 C 148.007 136.912, 149.303 130, 150.139 130 C 150.613 130, 151 122.195, 151 112.655 C 151 96.580, 151.146 95.177, 153 93.500 C 154.940 91.744, 155.816 87, 154.200 87 C 152.516 87, 151 89.518, 151 92.313 C 151 94.991, 150.754 95.191, 147.956 94.780 C 146.282 94.535, 144.637 94.779, 144.300 95.324 C 143.963 95.868, 143.783 101.981, 143.899 108.907 C 144.064 118.720, 143.659 123.376, 142.062 130 C 140.936 134.675, 140.011 141.258, 140.007 144.628 C 140.003 147.998, 139.325 152.371, 138.500 154.346 C 136.445 159.265, 136.601 162.716, 138.934 163.965 C 141.698 165.444, 142.671 165.270, 144.875 162.904 L 146.827 160.808 147.949 162.904 C 149.299 165.427, 153.568 165.701, 156.083 163.425 C 157.040 162.559, 158.888 161.996, 160.189 162.175 L 162.555 162.500 159.917 179 C 158.467 188.075, 156.020 199.325, 154.479 204 C 152.939 208.675, 151.479 214.975, 151.235 218 C 150.991 221.025, 150.454 223.725, 150.043 224 C 149.150 224.597, 146.654 232.361, 144.899 240 C 144.204 243.025, 143.267 245.927, 142.817 246.450 C 142.368 246.972, 142 248.162, 142 249.093 C 142 250.024, 141.325 251.045, 140.500 251.362 C 138.473 252.139, 123 250.897, 123 249.957 C 123 249.546, 121.312 248.977, 119.250 248.693 C 117.188 248.409, 111.900 247.483, 107.500 246.636 C 103.100 245.790, 96.350 244.667, 92.500 244.142 C 85.717 243.217, 82.139 242.501, 69.500 239.536 C 66.200 238.762, 62.312 237.879, 60.860 237.573 C 59.408 237.267, 57.969 236.360, 57.660 235.558 C 56.916 233.616, 60.585 224.775, 67.678 211.422 C 78.131 191.743, 82.339 177.029, 82.435 159.823 C 82.492 149.506, 82.259 147.823, 80.425 145.367 C 79.284 143.839, 76.978 142.233, 75.301 141.798 C 69.328 140.251, 69.252 138.599, 74.866 132.456 C 81.032 125.710, 84 119.367, 84 112.938 C 84 103.939, 81.277 100.224, 70.779 94.901 C 65.298 92.122, 58 90.990, 58 92.918 C 58 95.343, 59.431 97, 61.525 97 C 64.876 97, 67 98.011, 67 99.607 C 67 100.410, 68.014 101, 69.394 101 C 70.711 101, 73.186 102.306, 74.894 103.901 C 77.573 106.404, 78 107.494, 78 111.836 C 78 118.955, 77.172 120.457, 67.991 130 C 63.494 134.675, 59.408 139.255, 58.911 140.178 C 57.415 142.955, 58.905 145, 62.425 145 C 66.611 145, 75.707 147.716, 76.654 149.249 C 77.926 151.307, 76.985 166.321, 75.435 168.715 C 74.646 169.933, 73.985 172.183, 73.967 173.715 C 73.949 175.247, 73.110 178.750, 72.103 181.500 C 71.095 184.250, 69.369 188.975, 68.267 192 C 66.303 197.392, 64.405 201.460, 58.234 213.500 C 52.307 225.064, 51 228.080, 50.957 230.281 C 50.929 231.736, 49.189 233.831, 45.903 236.366 C 41.293 239.922, 40.945 240.482, 41.561 243.366 C 42.389 247.241, 43.750 249.010, 45.872 248.968 C 47.932 248.928, 51 246.638, 51 245.140 C 51 244.513, 52.462 243.970, 54.250 243.933 C 56.038 243.895, 59.035 243.666, 60.911 243.423 C 63.020 243.150, 64.929 243.528, 65.911 244.413 C 68.263 246.531, 72.797 247.414, 74.417 246.069 C 75.981 244.771, 81.305 245.697, 80.429 247.114 C 80.123 247.610, 80.544 248.687, 81.365 249.508 C 83.304 251.447, 98.529 251.652, 99.417 249.750 C 99.883 248.750, 100.117 248.750, 100.583 249.750 C 100.904 250.437, 101.992 251, 103 251 C 104.008 251, 105.096 251.563, 105.417 252.250 C 105.883 253.250, 106.117 253.250, 106.583 252.250 C 107.471 250.349, 110.358 250.753, 112.917 253.138 C 114.523 254.633, 115.427 254.927, 115.929 254.114 C 117.001 252.380, 126.859 254.869, 128.100 257.187 C 129.432 259.676, 132.447 259.462, 134.259 256.750 C 135.706 254.584, 135.836 254.566, 137.736 256.274 C 138.822 257.250, 140.393 257.786, 141.226 257.467 C 142.060 257.147, 143.465 257.607, 144.347 258.490 C 145.628 259.771, 146.381 259.866, 148.072 258.962 C 149.828 258.022, 150.524 258.185, 152.134 259.914 C 154.369 262.313, 155.294 262.458, 157.915 260.821 C 159.441 259.868, 160.349 259.999, 162.637 261.498 C 165.897 263.634, 171.732 265.148, 177.500 265.356 C 180.647 265.469, 181.470 265.873, 181.361 267.250 C 181.212 269.124, 182.989 269.589, 184.550 268.084 C 185.895 266.788, 191.225 266.403, 192.963 267.477 C 193.767 267.974, 195.904 268.281, 197.712 268.159 C 200.094 267.998, 201 268.359, 201 269.469 C 201 271.226, 202.345 271.421, 204.928 270.038 C 205.916 269.510, 213.424 268.825, 221.612 268.517 C 229.801 268.209, 237.234 267.729, 238.132 267.449 C 239.063 267.159, 240.025 267.624, 240.375 268.534 C 241.142 270.534, 242.842 269.545, 244.037 266.403 C 244.757 264.508, 245.678 264, 248.392 264 C 250.285 264, 251.983 264.361, 252.167 264.802 C 252.350 265.243, 255.200 265.356, 258.500 265.052 C 263.496 264.592, 264.451 264.207, 264.206 262.750 C 263.871 260.754, 265.063 260.463, 266.733 262.133 C 267.422 262.822, 268.578 262.942, 269.683 262.440 C 270.682 261.986, 272.036 261.583, 272.692 261.545 C 277.203 261.282, 287 251.259, 287 246.907 C 287 243.608, 283.922 243.878, 280.305 247.495 C 278.377 249.423, 276.269 251, 275.620 251 C 274.970 251, 270.704 252.575, 266.139 254.501 C 261.573 256.426, 255.287 258.266, 252.169 258.589 C 249.051 258.912, 243.800 260.009, 240.500 261.027 C 237.200 262.046, 231.575 262.875, 228 262.871 C 224.425 262.867, 219.475 263.305, 217 263.845 C 212.550 264.816, 211.183 264.792, 197.500 263.493 C 186.741 262.471, 181.707 261.706, 170.685 259.416 C 166.936 258.637, 162.635 258, 161.126 258 C 159.617 258, 157.509 257.339, 156.441 256.532 C 155.374 255.724, 153.713 255.049, 152.750 255.032 C 151.477 255.009, 151 254.177, 151 251.979 C 151 248.698, 158.139 226.214, 160.598 221.750 C 161.949 219.297, 161.950 218.767, 160.604 216.845 C 159.422 215.158, 159.341 214.236, 160.229 212.595 C 161.488 210.268, 166.715 189.300, 167.981 181.500 C 169.205 173.961, 173.037 163.797, 175.401 161.821 C 176.556 160.856, 178.400 160.045, 179.500 160.019 C 180.600 159.992, 182.625 159.355, 184 158.602 C 189.349 155.675, 198.774 151, 199.327 151 C 199.647 151, 201.034 149.875, 202.409 148.500 C 203.784 147.125, 205.662 146, 206.583 146 C 208.048 146, 208.199 147.003, 207.792 154.032 C 207.070 166.506, 210.297 168.696, 212.901 157.500 C 214.942 148.731, 215.517 137.009, 214.855 117.729 C 214.426 105.232, 213.800 98.464, 212.983 97.479 C 211.277 95.424, 208.642 95.633, 206.506 97.993 C 204.855 99.818, 204.812 100.560, 205.995 106.743 C 206.705 110.459, 207.560 118.225, 207.894 124 L 208.500 134.500 205.283 137.750 C 203.514 139.537, 201.372 141, 200.523 141 C 199.674 141, 196.821 142.517, 194.183 144.371 C 191.545 146.225, 188.400 148.056, 187.194 148.439 C 185.987 148.821, 185 149.554, 185 150.067 C 185 150.580, 184.084 151, 182.965 151 C 181.845 151, 179.797 151.742, 178.413 152.649 C 174.573 155.165, 173.848 153.492, 175.075 144.952 C 175.665 140.853, 176.549 134.664, 177.041 131.197 C 177.533 127.730, 178.415 123.230, 179.001 121.197 C 179.587 119.164, 180.521 110.577, 181.076 102.116 C 181.662 93.183, 182.696 85.269, 183.543 83.244 C 184.344 81.325, 185 79.409, 185 78.985 C 185 77.715, 182.637 77.212, 180.465 78.020 M 154.500 219 C 154.160 219.550, 154.359 220, 154.941 220 C 155.523 220, 156 219.550, 156 219 C 156 218.450, 155.802 218, 155.559 218 C 155.316 218, 154.840 218.450, 154.500 219 M 271 259 C 271 259.550, 271.450 260, 272 260 C 272.550 260, 273 259.550, 273 259 C 273 258.450, 272.550 258, 272 258 C 271.450 258, 271 258.450, 271 259" stroke="none" fill="black" fill-rule="evenodd"/>
</svg>