<svg xmlns="http://www.w3.org/2000/svg" width="300" height="300" viewBox="0 0 300 300" version="1.1">
	<path d="M 216.987 21.017 C 216.188 22.127, 214.976 22.821, 214.296 22.560 C 212.154 21.738, 210.182 24.796, 209.012 30.751 C 208.391 33.913, 207.459 37.805, 206.942 39.399 C 206.424 40.994, 206 43.780, 206 45.590 C 206 47.401, 205.550 49.160, 205 49.500 C 204.450 49.840, 204 50.907, 204 51.872 C 204 52.836, 202.875 55.958, 201.500 58.808 C 200.125 61.658, 199 64.866, 199 65.936 C 199 67.006, 198.600 68.129, 198.110 68.432 C 197.621 68.734, 196.971 70.448, 196.665 72.241 C 194.540 84.691, 193.694 88.561, 193.005 89 C 192.573 89.275, 192.003 91.750, 191.738 94.500 C 191.474 97.250, 190.923 100.507, 190.515 101.738 C 189.960 103.413, 190.227 104.150, 191.577 104.668 C 192.645 105.078, 193.543 104.871, 193.779 104.162 C 193.999 103.503, 194.813 102.329, 195.589 101.554 C 196.365 100.778, 197 99.211, 197 98.071 C 197 96.932, 197.450 96, 198 96 C 198.550 96, 199 95.297, 199 94.438 C 199 92.534, 201.791 83.161, 203.072 80.764 C 203.582 79.809, 204 77.923, 204 76.573 C 204 75.223, 204.450 73.840, 205 73.500 C 205.550 73.160, 206 71.993, 206 70.906 C 206 69.200, 208.355 64.530, 209.987 63 C 210.819 62.219, 215.762 51.759, 216.489 49.239 C 217.159 46.918, 221.634 44, 224.524 44 C 227.365 44, 225.744 40.530, 222.741 40.184 C 220.611 39.938, 220 39.338, 220 37.493 C 220 36.187, 220.450 34.840, 221 34.500 C 221.550 34.160, 222 32.805, 222 31.488 C 222 30.171, 222.507 27.981, 223.127 26.621 C 224.772 23.011, 223.495 19, 220.702 19 C 219.459 19, 217.787 19.908, 216.987 21.017 M 238.500 32.393 C 233.076 33.604, 231.241 34.555, 229.128 37.250 C 228.049 38.625, 228.013 39.311, 228.960 40.452 C 229.623 41.251, 229.885 42.788, 229.542 43.868 C 228.748 46.369, 230.566 47.517, 233.345 46.267 C 242.396 42.200, 251.187 40.776, 255.235 42.721 C 257.443 43.782, 258.358 43.793, 259.985 42.777 C 262.052 41.486, 262.793 38, 261 38 C 260.450 38, 260 37.490, 260 36.866 C 260 36.243, 258.762 34.668, 257.250 33.368 C 255.019 31.448, 253.463 31.028, 249 31.139 C 245.975 31.215, 241.250 31.779, 238.500 32.393 M 119.500 47.060 C 108.940 47.716, 106.294 48.499, 105.430 51.219 C 103.818 56.298, 113.018 58.236, 132.571 56.935 C 140.232 56.425, 150.053 55.894, 154.395 55.754 C 160.440 55.560, 162.532 55.115, 163.323 53.856 C 164.526 51.941, 162.215 49, 159.506 49 C 158.605 49, 157.111 48.596, 156.184 48.103 C 154.053 46.969, 131.352 46.323, 119.500 47.060 M 183 56.632 C 174.081 57.914, 166.836 59.457, 166.396 60.169 C 166.113 60.626, 164.634 61, 163.108 61 C 161.582 61, 160.035 61.299, 159.670 61.664 C 158.218 63.115, 148.358 66, 144.847 66 C 142.796 66, 140.840 66.450, 140.500 67 C 140.160 67.550, 138.810 68, 137.500 68 C 136.190 68, 134.888 68.372, 134.607 68.827 C 134.326 69.282, 131.374 70.478, 128.048 71.486 C 124.721 72.493, 122 73.695, 122 74.158 C 122 74.621, 120.677 75, 119.059 75 C 117.441 75, 115.840 75.450, 115.500 76 C 115.160 76.550, 114.168 77, 113.296 77 C 112.423 77, 109.751 78.237, 107.357 79.750 C 104.012 81.863, 103.003 83.113, 103.002 85.143 C 103 88.059, 105.126 89.474, 106.878 87.722 C 107.707 86.893, 108 86.913, 108 87.800 C 108 88.556, 109.667 89, 112.500 89 C 114.975 89, 117 88.603, 117 88.118 C 117 87.633, 119.696 86.395, 122.991 85.368 C 126.287 84.341, 128.987 83.162, 128.991 82.750 C 128.996 82.338, 130.070 82, 131.378 82 C 132.685 82, 134.315 81.325, 135 80.500 C 135.685 79.675, 137.367 79, 138.739 79 C 140.849 79, 141.135 79.347, 140.593 81.250 C 140.240 82.487, 139.483 85.750, 138.911 88.500 C 138.338 91.250, 137.448 94.882, 136.934 96.571 C 136.421 98.260, 136 101.046, 136 102.762 C 136 104.478, 135.550 106.160, 135 106.500 C 134.450 106.840, 134 108.865, 134 111 C 134 113.135, 133.578 115.142, 133.063 115.461 C 131.545 116.399, 129 122.120, 129 124.595 C 129 125.853, 128.550 127.160, 128 127.500 C 127.450 127.840, 127 129.160, 127 130.435 C 127 132.408, 125.300 136.986, 121.036 146.500 C 120.543 147.600, 119.600 150.300, 118.941 152.500 C 118.281 154.700, 117.174 157.625, 116.479 159 C 115.784 160.375, 114.392 163.525, 113.385 166 C 112.379 168.475, 111.314 170.725, 111.018 171 C 110.438 171.540, 103.798 184.990, 100.898 191.500 C 99.918 193.700, 97.792 198.425, 96.173 202 C 94.554 205.575, 92.652 211.783, 91.947 215.795 C 91.241 219.807, 90.289 223.321, 89.832 223.604 C 89.374 223.887, 89 226.289, 89 228.942 C 89 234.394, 89.750 234.916, 96.591 234.230 C 100.491 233.839, 100.837 233.519, 103.979 227.394 C 105.799 223.844, 107.325 219.296, 107.387 217.234 C 107.482 214.082, 107.149 213.450, 105.250 213.180 C 104.013 213.005, 103 213.342, 103 213.930 C 103 214.519, 102.550 215, 102 215 C 100.354 215, 100.909 211.674, 103 209 C 104.076 207.625, 104.968 206.050, 104.984 205.500 C 105 204.950, 105.702 203.178, 106.544 201.562 C 107.507 199.716, 107.837 197.533, 107.431 195.687 C 106.967 193.572, 107.115 192.953, 107.960 193.475 C 108.615 193.880, 109.771 193.383, 110.577 192.350 C 113.140 189.066, 119.185 176.643, 120.723 171.500 C 121.545 168.750, 122.528 166.275, 122.908 166 C 123.287 165.725, 124.555 163.250, 125.725 160.500 C 127.549 156.215, 128.328 155.419, 131.176 154.935 C 135.643 154.176, 138.282 152.640, 142.394 148.407 C 147.195 143.463, 150.941 143.855, 152.859 149.500 C 153.606 151.700, 154.197 156.425, 154.172 160 C 154.147 163.575, 154.102 171.675, 154.071 178 C 154.014 189.795, 152.319 204, 150.968 204 C 150.551 204, 149.984 205.687, 149.707 207.750 C 148.950 213.395, 147.291 219.109, 146.048 220.352 C 145.239 221.161, 144.287 220.658, 142.506 218.479 C 141.167 216.841, 140.056 214.938, 140.036 214.250 C 140.016 213.563, 139.550 213, 139 213 C 138.450 213, 137.986 212.213, 137.968 211.250 C 137.951 210.287, 137.283 208.636, 136.484 207.581 C 135.077 205.721, 134.969 205.718, 133.016 207.486 C 128.696 211.395, 132.064 225.823, 138.043 229.023 C 140.484 230.330, 145 230.268, 145 228.929 C 145 228.339, 145.575 227.282, 146.278 226.579 C 147.682 225.175, 149.067 226.103, 150.269 229.250 C 150.637 230.213, 151.514 230.993, 152.219 230.985 C 154.924 230.952, 156.365 228.999, 157.122 224.337 C 158.328 216.917, 159.660 210.667, 160.409 208.916 C 162.061 205.053, 163.291 190.909, 163.667 171.440 C 164.182 144.772, 163.246 140.319, 155.561 132.877 C 153.230 130.620, 151.050 130.495, 148.441 132.468 C 147.374 133.276, 145.588 133.951, 144.473 133.968 C 143.358 133.986, 140.968 135.350, 139.161 137 C 137.355 138.650, 135.454 140, 134.938 140 C 134.422 140, 133.986 140.787, 133.968 141.750 C 133.939 143.333, 133.797 143.315, 132.468 141.559 C 130.756 139.296, 130.521 136, 132.071 136 C 133.642 136, 136 133.377, 136 131.630 C 136 130.799, 136.450 129.840, 137 129.500 C 137.550 129.160, 138 127.810, 138 126.500 C 138 125.190, 138.457 123.836, 139.015 123.491 C 140.458 122.599, 143 116.186, 143 113.437 C 143 112.162, 143.450 110.840, 144 110.500 C 144.550 110.160, 144.998 108.896, 144.995 107.691 C 144.990 105.465, 147.519 96.926, 149.121 93.764 C 149.604 92.809, 150 91.535, 150 90.933 C 150 90.331, 151.575 87.466, 153.500 84.566 C 155.425 81.666, 157 78.327, 157 77.146 C 157 75.966, 157.567 75, 158.259 75 C 158.952 75, 160.041 74.164, 160.679 73.142 C 161.392 72.001, 163.499 71.062, 166.148 70.707 C 168.518 70.389, 170.617 69.650, 170.812 69.065 C 171.007 68.479, 172.678 68, 174.524 68 C 176.371 68, 178.160 67.550, 178.500 67 C 178.840 66.450, 181.908 66, 185.318 66 C 190.394 66, 191.741 65.644, 192.743 64.040 C 193.417 62.961, 193.712 61.413, 193.400 60.600 C 192.698 58.770, 188.522 55.952, 186.785 56.136 C 186.078 56.211, 184.375 56.434, 183 56.632 M 30 66.756 C 30 67.172, 28.650 68.109, 27 68.840 C 22.118 71.001, 23.049 76.252, 28.500 77.301 C 34.983 78.549, 37.519 79.376, 38.804 80.661 C 39.923 81.780, 39.880 82, 38.546 82 C 37.099 82, 37.106 82.305, 38.622 85.250 C 39.543 87.037, 41.059 89.175, 41.991 90 C 42.923 90.825, 44.223 92.513, 44.878 93.750 C 46.260 96.358, 49.778 96.743, 50.683 94.384 C 51.311 92.748, 42.374 73.849, 40.628 73.119 C 40.127 72.910, 38.038 71.223, 35.987 69.369 C 32.444 66.169, 30 65.102, 30 66.756 M 150 72 C 150 72.550, 150.477 73, 151.059 73 C 151.641 73, 151.840 72.550, 151.500 72 C 151.160 71.450, 150.684 71, 150.441 71 C 150.198 71, 150 71.450, 150 72 M 147.015 78.750 C 147.024 79.749, 147.351 80.071, 147.777 79.500 C 148.187 78.950, 148.931 78.162, 149.428 77.750 C 149.926 77.338, 149.583 77, 148.667 77 C 147.740 77, 147.007 77.777, 147.015 78.750 M 225.250 81.360 C 224.012 81.973, 223 82.818, 223 83.237 C 223 83.657, 222.531 84, 221.958 84 C 221.385 84, 219.980 84.873, 218.835 85.939 C 217.283 87.385, 216.922 88.554, 217.418 90.530 C 217.817 92.120, 218.598 92.985, 219.368 92.689 C 220.074 92.418, 223.613 91.879, 227.233 91.492 C 233.276 90.845, 233.908 90.959, 234.939 92.886 C 235.836 94.562, 235.629 95.993, 233.908 99.992 C 232.723 102.747, 231.430 105, 231.034 105 C 230.639 105, 229.467 106.575, 228.430 108.500 C 227.393 110.425, 226.198 112, 225.773 112 C 225.348 112, 225 112.591, 225 113.313 C 225 114.035, 223.875 116.958, 222.500 119.808 C 219.278 126.487, 219.246 131.620, 222.404 135.292 C 223.916 137.051, 224.958 137.625, 225.219 136.843 C 225.493 136.021, 225.853 136.176, 226.285 137.301 C 226.644 138.235, 226.501 139, 225.969 139 C 225.436 139, 225 141.475, 225 144.500 C 225 147.525, 225.450 150, 226 150 C 226.550 150, 227 150.787, 227.001 151.750 C 227.002 153.708, 230.182 162.516, 231.287 163.621 C 233.043 165.377, 231.916 168.789, 229.250 169.786 C 223.482 171.943, 209.424 176.009, 207.750 176.004 C 206.787 176.002, 206 176.450, 206 177 C 206 177.550, 205.297 178, 204.438 178 C 201.679 178, 192 183.097, 192 184.550 C 192 187.625, 196.683 189.293, 203.268 188.563 C 209.690 187.852, 219.244 185.076, 219.833 183.750 C 220.017 183.338, 221.556 183, 223.255 183 C 224.953 183, 227.078 182.334, 227.978 181.520 C 229.422 180.213, 229.868 180.219, 231.806 181.577 C 233.679 182.889, 234 184.057, 234 189.570 C 234 195.987, 233.100 198.654, 229.750 202.166 C 228.787 203.175, 228 204.450, 228 205 C 228 205.550, 227.325 206, 226.500 206 C 225.675 206, 225 206.417, 225 206.927 C 225 208.534, 218.852 211, 214.846 211 C 212.731 211, 211 210.586, 211 210.079 C 211 208.287, 204.875 207.696, 203.241 209.331 C 201.945 210.627, 201.900 211.345, 202.959 213.901 C 203.650 215.569, 205.179 217.234, 206.358 217.602 C 207.536 217.969, 208.821 218.771, 209.214 219.385 C 210.129 220.815, 223.825 220.867, 224.786 219.443 C 225.179 218.862, 226.963 217.795, 228.750 217.072 C 230.537 216.349, 232 215.383, 232 214.925 C 232 214.468, 233.954 212.160, 236.342 209.797 C 242.904 203.302, 243.426 201.845, 243.465 189.929 C 243.493 181.398, 243.824 179.034, 245.179 177.679 C 246.102 176.756, 247.538 176, 248.370 176 C 249.201 176, 250.129 175.601, 250.430 175.113 C 250.731 174.626, 252.558 173.930, 254.489 173.568 C 256.420 173.206, 258 172.480, 258 171.955 C 258 171.430, 258.900 171, 260 171 C 261.100 171, 262 170.550, 262 170 C 262 169.450, 262.581 169, 263.292 169 C 264.792 169, 272 162.447, 272 161.084 C 272 158.450, 270.542 157, 267.893 157 C 266.302 157, 265 157.397, 265 157.882 C 265 158.367, 262.304 159.605, 259.009 160.632 C 255.713 161.659, 253.013 162.838, 253.009 163.250 C 253.004 163.662, 251.912 164, 250.583 164 C 249.254 164, 248.017 164.395, 247.833 164.878 C 247.650 165.361, 246.090 166.061, 244.366 166.432 C 241.417 167.068, 241.198 166.912, 240.671 163.804 C 238.538 151.222, 234.101 136.906, 231.229 133.336 C 228.670 130.156, 228.329 125.269, 230.468 122.441 C 231.276 121.374, 231.951 119.713, 231.968 118.750 C 231.986 117.787, 232.450 117, 233 117 C 233.550 117, 234 116.520, 234 115.933 C 234 115.347, 235.125 113.392, 236.500 111.589 C 237.875 109.786, 239 107.791, 239 107.156 C 239 106.520, 239.386 106, 239.858 106 C 240.330 106, 241.879 103.758, 243.301 101.018 C 245.523 96.735, 245.777 95.354, 245.115 91.165 C 244.692 88.486, 243.337 84.877, 242.104 83.147 C 239.984 80.168, 239.533 80.007, 233.682 80.123 C 230.282 80.190, 226.488 80.747, 225.250 81.360 M 228 88 C 228 88.550, 228.900 89, 230 89 C 231.100 89, 232 88.550, 232 88 C 232 87.450, 231.100 87, 230 87 C 228.900 87, 228 87.450, 228 88 M 32.011 104.882 C 27.306 105.716, 26.357 109.157, 30.929 108.809 C 33.132 108.641, 34.446 109.192, 35.529 110.738 C 36.362 111.928, 37.710 113.567, 38.522 114.379 C 39.335 115.192, 40 116.789, 40 117.929 C 40 119.068, 40.450 120, 41 120 C 41.602 120, 42 124.107, 42 130.320 L 42 140.640 38.265 145.070 C 36.211 147.507, 33.624 150.174, 32.515 150.999 C 29.870 152.966, 21.926 157, 20.698 157 C 20.168 157, 18.903 157.958, 17.887 159.130 C 16.125 161.161, 16.120 161.395, 17.770 164.198 C 18.974 166.242, 20.793 167.483, 23.750 168.275 C 26.087 168.902, 28 169.802, 28 170.275 C 28 170.748, 28.922 170.842, 30.049 170.484 C 32.271 169.779, 36.326 171.949, 39.265 175.417 C 40.236 176.563, 41.854 178.400, 42.860 179.500 C 46.231 183.186, 47.345 186.635, 48.674 197.500 C 49.560 204.739, 49.116 224.284, 48.041 225.359 C 47.469 225.931, 47 226.965, 47 227.655 C 47 230.418, 38.769 237, 35.313 237 C 32.716 237, 24.071 241.588, 22.282 243.915 C 20.708 245.963, 20.663 250.263, 22.200 251.800 C 22.938 252.538, 26.552 253, 31.583 253 C 38.926 253, 39.820 252.794, 40.290 251 C 40.976 248.378, 44 248.378, 44 251 C 44 252.649, 44.667 253, 47.800 253 C 49.890 253, 52.028 253.394, 52.550 253.876 C 53.073 254.357, 55.975 255.012, 59 255.331 C 62.025 255.650, 63.833 255.634, 63.018 255.295 C 59.557 253.856, 58.361 251.258, 61.500 251.999 C 63.557 252.485, 66.653 252.748, 71.750 252.872 C 76.585 252.990, 77 253.189, 77 255.393 C 77 258.286, 79.129 259.254, 83.634 258.409 C 85.815 258, 87 258.169, 87 258.889 C 87 259.539, 88.866 260, 91.500 260 C 95.729 260, 97.530 258.730, 94.750 257.707 C 91.720 256.592, 99.481 255.901, 105.195 256.778 L 111.500 257.745 104.750 257.873 C 101.037 257.943, 98 258.388, 98 258.863 C 98 259.338, 100.813 260.013, 104.250 260.363 C 107.688 260.713, 111.963 261.275, 113.750 261.613 C 116.512 262.135, 117 261.935, 117 260.284 C 117 258.638, 117.753 258.324, 121.926 258.229 C 126.879 258.116, 129.860 259.800, 128.527 261.956 C 128.104 262.641, 130.139 263, 134.441 263 C 138.337 263, 141 262.576, 141 261.955 C 141 261.308, 139.708 261.152, 137.615 261.544 C 135.648 261.913, 133.960 261.744, 133.587 261.140 C 132.772 259.822, 136.660 257.672, 138.170 258.605 C 139.315 259.313, 141.379 259.562, 148.417 259.843 C 152.476 260.006, 152.694 261.146, 148.750 261.584 C 147.512 261.721, 146.332 261.871, 146.128 261.917 C 145.923 261.962, 146.315 262.675, 147 263.500 C 148.400 265.187, 155.534 265.563, 156.500 264 C 156.840 263.450, 159.131 263, 161.590 263 C 164.643 263, 166.245 262.524, 166.638 261.500 C 167.275 259.840, 171 259.413, 171 261 C 171 261.550, 170.450 262, 169.777 262 C 169.105 262, 169.594 262.728, 170.863 263.617 C 172.475 264.746, 174.278 265.050, 176.836 264.626 C 178.851 264.292, 184.685 264.726, 189.801 265.590 C 195.730 266.591, 199.536 266.819, 200.301 266.217 C 200.960 265.698, 203.956 265.200, 206.957 265.111 C 209.958 265.022, 212.658 264.578, 212.957 264.126 C 213.256 263.673, 217.478 263.004, 222.339 262.639 C 227.201 262.273, 232.009 261.530, 233.024 260.987 C 234.038 260.444, 236.608 260, 238.734 260 C 240.860 260, 243.072 259.528, 243.650 258.950 C 244.227 258.373, 247.664 257.729, 251.288 257.519 C 254.911 257.309, 258.803 256.640, 259.938 256.033 C 262.805 254.499, 262.688 250.194, 259.750 249.155 C 257.248 248.270, 240.353 248.665, 238 249.663 C 235.995 250.513, 227.303 251.902, 217.500 252.938 C 213.100 253.403, 205.975 254.276, 201.666 254.878 C 196.202 255.641, 192.571 255.660, 189.666 254.940 C 187.375 254.372, 174.700 253.698, 161.500 253.441 C 148.300 253.184, 136.825 252.720, 136 252.411 C 135.175 252.101, 128.200 251.633, 120.500 251.369 C 112.800 251.106, 105.375 250.499, 104 250.021 C 102.625 249.542, 97.004 248.857, 91.508 248.497 C 86.013 248.138, 81.060 247.465, 80.503 247.002 C 79.945 246.539, 75.666 245.950, 70.994 245.692 C 59.127 245.038, 50.429 243.041, 48.801 240.596 C 48.416 240.018, 48.804 238.769, 49.663 237.820 C 50.521 236.872, 52.334 233.936, 53.691 231.298 C 56.029 226.752, 56.158 225.609, 56.158 209.526 C 56.157 198.277, 55.793 192.431, 55.078 192.193 C 54.485 191.995, 53.986 189.958, 53.968 187.667 C 53.951 185.375, 53.276 182.626, 52.468 181.559 C 51.661 180.491, 51 178.846, 51 177.903 C 51 176.961, 49.538 174.405, 47.750 172.225 C 45.962 170.044, 43.838 167.302, 43.029 166.130 C 42.160 164.871, 40.485 164, 38.934 164 C 37.491 164, 35.481 163.084, 34.468 161.964 C 32.655 159.961, 32.715 159.844, 38.130 154.714 C 41.157 151.846, 44.784 147.475, 46.188 145 C 49.335 139.454, 51.460 129.458, 50.581 124.333 C 50.219 122.225, 49.661 118.734, 49.340 116.575 C 49.019 114.416, 47.799 111.647, 46.628 110.421 C 44.121 107.795, 37.930 103.952, 36.500 104.135 C 35.950 104.206, 33.930 104.542, 32.011 104.882 M 129 143.059 C 129 143.641, 129.450 143.840, 130 143.500 C 130.550 143.160, 131 142.684, 131 142.441 C 131 142.198, 130.550 142, 130 142 C 129.450 142, 129 142.477, 129 143.059 M 125.079 147.951 C 123.899 148.680, 123.941 149.083, 125.341 150.484 C 126.880 152.023, 127.053 152.025, 127.636 150.507 C 128.452 148.379, 126.899 146.826, 125.079 147.951 M 156.775 179.250 C 156.533 179.938, 156.665 181.625, 157.068 183 C 157.705 185.175, 157.814 185.013, 157.900 181.750 C 158.002 177.942, 157.571 176.985, 156.775 179.250 M 217.118 179.906 C 216.038 180.590, 216.218 180.934, 217.943 181.482 C 220.423 182.269, 221.530 181.666, 220.541 180.067 C 219.748 178.783, 218.951 178.745, 217.118 179.906 M 209.667 181.667 C 208.424 182.909, 208.992 185, 210.571 185 C 212.087 185, 215 182.745, 215 181.571 C 215 180.773, 210.479 180.854, 209.667 181.667 M 156.079 205.583 C 156.127 206.748, 156.364 206.985, 156.683 206.188 C 156.972 205.466, 156.936 204.603, 156.604 204.271 C 156.272 203.939, 156.036 204.529, 156.079 205.583 M 232 205.500 C 232 206.325, 232.675 207, 233.500 207 C 234.325 207, 235 206.325, 235 205.500 C 235 204.675, 234.325 204, 233.500 204 C 232.675 204, 232 204.675, 232 205.500 M 94 226.500 C 94 227.325, 94.450 228, 95 228 C 95.550 228, 96 227.325, 96 226.500 C 96 225.675, 95.550 225, 95 225 C 94.450 225, 94 225.675, 94 226.500 M 83.353 256.137 C 84.646 256.889, 85.853 256.900, 87.353 256.175 C 89.226 255.268, 88.990 255.131, 85.500 255.098 C 82.172 255.067, 81.811 255.242, 83.353 256.137 M 157 260.393 C 157 261.342, 159.993 261.820, 160.527 260.956 C 160.852 260.430, 160.191 260, 159.059 260 C 157.927 260, 157 260.177, 157 260.393 M 176.121 260.454 C 176.903 261.236, 183.894 261.440, 184.631 260.702 C 185.017 260.316, 183.158 260, 180.500 260 C 177.842 260, 175.871 260.204, 176.121 260.454 M 203.211 261.538 C 202.129 262.764, 202.250 263, 203.961 263 C 205.107 263, 206 262.343, 206 261.500 C 206 259.621, 204.888 259.637, 203.211 261.538" stroke="none" fill="black" fill-rule="evenodd"/>
</svg>