<svg xmlns="http://www.w3.org/2000/svg" width="300" height="300" viewBox="0 0 300 300" version="1.1">
	<path d="M 160.362 14.500 C 160.045 15.325, 160.064 16.723, 160.403 17.607 C 160.801 18.646, 159.777 20.494, 157.510 22.828 C 155.579 24.816, 154 26.935, 154 27.538 C 154 29.204, 148.415 39.768, 145.543 43.533 C 144.144 45.367, 143 47.147, 143 47.490 C 143 48.350, 137.304 53.617, 132.600 57.107 C 130.455 58.698, 127.448 60, 125.918 60 C 123.983 60, 122.501 60.892, 121.050 62.930 C 119.903 64.541, 119.358 66.103, 119.839 66.401 C 122.278 67.908, 125.155 97.858, 125.382 124.098 C 125.529 140.991, 123.751 167.274, 121.568 180.500 C 119.741 191.565, 115.269 209.118, 113.288 213 C 111.784 215.948, 111.599 220.634, 112.954 221.472 C 113.479 221.796, 115.072 221.769, 116.494 221.412 C 119.426 220.676, 122.325 215.727, 123.451 209.535 C 123.847 207.354, 124.757 204.429, 125.474 203.035 C 126.844 200.367, 129.125 188.548, 131.654 171 C 133.725 156.636, 133.844 118.189, 131.881 97.500 C 130.990 88.110, 130.708 80.467, 131.197 79 C 132.171 76.080, 137.707 72, 140.695 72 C 141.835 72, 142.973 71.213, 143.226 70.250 C 143.833 67.937, 149.166 65.020, 149.728 66.694 C 149.949 67.350, 150.747 67.651, 151.501 67.361 C 152.256 67.071, 152.629 66.197, 152.330 65.417 C 152.031 64.638, 152.247 64, 152.810 64 C 153.373 64, 153.994 64.482, 154.190 65.071 C 154.731 66.692, 164.227 64.043, 165.807 61.831 C 167.567 59.365, 170 59.509, 170 62.079 C 170 63.899, 170.406 64.073, 173.250 63.474 C 176.965 62.691, 179.324 61, 176.700 61 C 175.765 61, 175 60.550, 175 60 C 175 58.658, 180.738 58.714, 181.187 60.060 C 181.381 60.642, 183.395 61.145, 185.662 61.176 C 189.061 61.223, 189.985 61.672, 190.924 63.733 C 191.939 65.961, 191.623 66.818, 188.032 71.574 C 185.814 74.511, 183.989 77.496, 183.977 78.207 C 183.964 78.918, 182.726 81.732, 181.227 84.461 C 178.387 89.627, 174.780 91.693, 165.592 93.417 C 163.631 93.785, 158.984 95.807, 155.264 97.910 C 151.544 100.014, 146.605 102.582, 144.288 103.617 C 139.442 105.783, 138.049 107.939, 140.996 108.709 C 143.579 109.385, 143.582 111.681, 141 112.500 C 138.741 113.217, 138.379 114.550, 140.250 115.262 C 142.075 115.956, 145.148 114.585, 148 111.804 C 149.375 110.464, 151.978 108.774, 153.784 108.048 C 155.590 107.323, 157.905 105.665, 158.928 104.365 C 159.951 103.064, 161.623 101.997, 162.644 101.994 C 163.665 101.990, 165.787 101.317, 167.359 100.497 C 170.992 98.602, 180.732 95.768, 184 95.655 C 185.375 95.608, 187.515 95.922, 188.755 96.354 C 190.401 96.926, 191.174 96.711, 191.617 95.556 C 192.453 93.376, 190.242 91, 187.378 91 C 184.507 91, 184.393 90.041, 186.886 86.872 C 192.605 79.601, 197.962 67.757, 197.989 62.323 C 197.995 61.125, 196.814 59.212, 195.365 58.073 C 190.902 54.562, 167.095 55.277, 157 59.224 C 155.625 59.762, 151.575 60.996, 148 61.965 C 144.425 62.935, 139.189 64.757, 136.363 66.015 C 133.538 67.272, 130.501 68.022, 129.613 67.682 C 126.793 66.599, 127.851 63.959, 131.750 62.354 C 146.572 56.250, 151.535 51.499, 159.806 35.500 C 164.382 26.646, 166.270 17.235, 164.013 14.516 C 162.416 12.591, 161.096 12.585, 160.362 14.500 M 67.035 84.934 C 65.563 87.684, 65.750 89.548, 67.655 91.128 C 68.565 91.882, 69.937 93.850, 70.704 95.500 C 71.470 97.150, 74.097 101.200, 76.540 104.500 C 78.984 107.800, 81.498 111.488, 82.127 112.695 C 83.531 115.390, 86 116.502, 86 114.440 C 86 112.722, 75.502 92.297, 73.398 89.921 C 72.629 89.053, 72 87.680, 72 86.871 C 72 85.309, 70.113 83, 68.835 83 C 68.415 83, 67.605 83.870, 67.035 84.934 M 160.636 99.506 C 160.321 100.328, 160.472 101, 160.972 101 C 162.328 101, 163.170 99.223, 162.121 98.575 C 161.620 98.265, 160.952 98.684, 160.636 99.506 M 63.509 119.370 C 61.865 120.572, 61.775 121.024, 62.910 122.392 C 63.644 123.276, 65.023 124, 65.975 124 C 69.636 124, 74.208 128.440, 76.701 134.417 C 78.869 139.613, 79.084 141.197, 78.468 147.417 C 77.453 157.676, 72.769 166, 68.012 166 C 63.735 166, 62.915 167.714, 65.357 171.550 C 66.536 173.401, 67.978 174.934, 68.563 174.958 C 69.954 175.013, 74.070 179.665, 76.276 183.674 C 78.865 188.378, 80.074 196.357, 79.360 204.033 C 78.741 210.699, 78.608 210.958, 72.614 217.180 C 69.251 220.670, 65.013 224.581, 63.195 225.871 C 58.577 229.146, 59.108 232.197, 64.500 233.370 C 66.700 233.849, 70.197 234.861, 72.270 235.620 C 77.172 237.414, 78.352 237.361, 77.592 235.379 C 77.091 234.072, 77.408 233.897, 79.235 234.474 C 80.481 234.867, 83.525 235.531, 86 235.950 C 88.475 236.368, 91.850 237.288, 93.500 237.995 L 96.500 239.281 94 239.947 C 91.510 240.610, 91.509 240.615, 93.749 241.213 C 94.986 241.542, 96.250 241.404, 96.558 240.906 C 97.337 239.646, 101 239.766, 101 241.051 C 101 242.365, 107.776 245.273, 109.343 244.631 C 110.157 244.298, 110.129 244.134, 109.250 244.079 C 107.850 243.991, 107.496 241, 108.885 241 C 109.372 241, 110.507 242.125, 111.408 243.500 C 112.979 245.898, 116 246.959, 116 245.113 C 116 244.626, 117.389 244.023, 119.086 243.774 C 121.542 243.414, 122.336 243.752, 122.975 245.433 C 123.611 247.106, 124.542 247.509, 127.456 247.372 C 129.562 247.273, 131.652 246.490, 132.347 245.541 C 133.631 243.785, 135.267 244.168, 141 247.569 C 143.852 249.261, 148.378 248.765, 150.629 246.513 C 152.372 244.771, 153.875 244.627, 156 246 C 157.255 246.811, 157.187 246.972, 155.583 246.985 C 154.529 246.993, 153.965 247.299, 154.331 247.664 C 155.096 248.430, 162.575 248.270, 165.216 247.431 C 166.197 247.120, 167 246.276, 167 245.555 C 167 243.748, 169.342 241.964, 170.606 242.807 C 171.178 243.188, 171.935 244.285, 172.289 245.244 C 172.843 246.745, 173.321 246.822, 175.716 245.801 C 177.247 245.148, 179.210 244.025, 180.079 243.307 C 181.952 241.756, 184 241.596, 184 243 C 184 244.553, 187.608 244.177, 189.019 242.477 C 190.148 241.117, 190.542 241.125, 192.733 242.561 C 194.719 243.862, 195.707 243.950, 197.944 243.023 C 199.462 242.394, 205.290 241.738, 210.895 241.564 C 216.499 241.391, 221.365 240.968, 221.709 240.624 C 223.049 239.284, 225 240.100, 225 242 C 225 243.570, 225.667 244, 228.099 244 C 229.803 244, 232.755 244.739, 234.657 245.642 C 237.283 246.888, 238.396 247.004, 239.278 246.122 C 241.068 244.332, 236.586 240.819, 229.003 238.069 C 220.739 235.071, 207.382 235.071, 185 238.066 C 176.475 239.207, 167.925 240.320, 166 240.539 C 164.075 240.759, 160.310 241.460, 157.633 242.097 C 154.482 242.847, 150.779 242.966, 147.133 242.433 C 144.035 241.981, 136.775 241.486, 131 241.334 C 120.266 241.051, 112.874 239.751, 100.500 235.969 C 96.650 234.793, 92.037 233.419, 90.250 232.915 C 88.463 232.412, 85.313 231.519, 83.250 230.930 C 81.188 230.342, 78.501 229.617, 77.281 229.320 C 76.060 229.022, 74.495 228.097, 73.804 227.263 C 72.745 225.988, 73.296 225.095, 77.278 221.624 C 86.237 213.815, 88.662 205.029, 85.500 191.842 C 84.531 187.804, 82.717 182.475, 81.467 180 C 76.446 170.055, 76.524 170.506, 79.109 166.326 C 84.716 157.259, 86.901 141.873, 83.506 135.364 C 82.685 133.789, 82.004 131.825, 81.994 131 C 81.966 128.745, 74.319 120.957, 71.217 120.025 C 69.723 119.576, 67.812 118.927, 66.971 118.582 C 66.131 118.238, 64.573 118.592, 63.509 119.370 M 209.500 119 C 209.160 119.550, 205.940 120, 202.345 120 C 198.488 120, 194.721 120.599, 193.154 121.462 C 191.694 122.266, 187.800 123.615, 184.500 124.460 C 181.200 125.305, 176.025 126.717, 173 127.598 C 169.975 128.478, 165.219 129.770, 162.432 130.467 C 159.644 131.164, 156.327 132.290, 155.061 132.968 C 153.794 133.645, 151.278 134.200, 149.469 134.200 C 147.329 134.200, 145.966 134.776, 145.566 135.850 C 145.227 136.757, 144.202 138.850, 143.286 140.500 C 141.853 143.085, 141.645 146.751, 141.783 167 C 141.871 179.925, 142.245 194.887, 142.614 200.250 C 143.251 209.496, 143.402 210, 145.536 210 C 146.773 210, 148.095 209.213, 148.472 208.250 C 149.677 205.180, 150.247 145.769, 149.101 142.760 C 148.446 141.042, 148.396 139.177, 148.965 137.760 C 149.658 136.035, 149.888 135.914, 149.937 137.250 C 150.008 139.229, 153.451 139.605, 157.203 138.044 C 158.466 137.519, 162.063 136.592, 165.196 135.985 C 169.478 135.155, 170.754 134.523, 170.339 133.440 C 169.683 131.731, 174.487 131.361, 175.525 133.041 C 176.171 134.086, 178.137 133.772, 183.266 131.805 C 185.458 130.964, 185.796 130.459, 184.894 129.372 C 183.428 127.605, 186.026 127.426, 187.773 129.173 C 188.670 130.070, 189.586 130.054, 191.671 129.104 C 193.858 128.108, 194.110 127.679, 192.948 126.933 C 191.978 126.310, 192.572 126.209, 194.750 126.626 C 197.339 127.123, 198 126.920, 198 125.625 C 198 123.584, 199.594 123.499, 200.362 125.500 C 201.091 127.401, 204.908 127.384, 207.441 125.468 C 212.252 121.829, 218 125.976, 218 133.086 C 218 135.184, 218.460 139.061, 219.021 141.701 C 220.515 148.722, 221.798 186.562, 220.725 191.950 C 220.226 194.453, 219.645 197.435, 219.433 198.579 C 219.016 200.830, 215.231 202.997, 211.703 203.005 C 210.491 203.008, 208.150 204.102, 206.500 205.438 C 204.017 207.447, 203.690 208.176, 204.600 209.669 C 206.353 212.542, 212.500 213.557, 215.649 211.494 C 217.696 210.153, 217.964 209.595, 216.882 208.927 C 215.736 208.219, 215.793 207.779, 217.213 206.359 C 218.994 204.578, 219.073 204.644, 220.209 208.864 C 220.476 209.858, 221.411 209.525, 223.653 207.639 C 226.044 205.627, 226.993 203.714, 227.909 199.059 C 230.039 188.230, 228.583 149.747, 225.458 134.292 C 224.656 130.328, 224 126.823, 224 126.503 C 224 126.183, 222.182 124.139, 219.960 121.960 C 215.949 118.030, 210.971 116.620, 209.500 119 M 176 139.878 C 176 140.910, 175.255 142.373, 174.345 143.128 C 171.971 145.097, 170.002 150.329, 169.985 154.718 C 169.963 160.015, 169.047 160.970, 163.342 161.646 C 160.588 161.972, 157.247 163.091, 155.917 164.132 C 153.601 165.946, 153.577 166.084, 155.341 167.439 C 156.588 168.397, 156.969 169.522, 156.523 170.927 C 156.006 172.557, 156.296 173, 157.883 173 C 158.993 173, 160.260 172.386, 160.700 171.635 C 161.751 169.842, 167.755 166.795, 168.348 167.754 C 168.602 168.164, 168.740 174.819, 168.655 182.543 C 168.522 194.574, 168.759 196.981, 170.308 199.346 C 173.670 204.480, 177.711 203.572, 176.265 198.008 C 175.477 194.974, 175.475 195.328, 176.332 180.785 C 177.207 165.949, 177.753 164.464, 182.629 163.673 C 187.098 162.948, 187.926 163.834, 188.073 169.500 C 188.130 171.700, 188.460 176.200, 188.806 179.500 C 189.153 182.800, 189.321 188.200, 189.179 191.500 C 188.442 208.663, 188.347 207.500, 190.487 207.500 C 191.698 207.500, 193.022 206.355, 193.880 204.565 C 195.787 200.585, 197.266 177.151, 195.974 171.384 C 195.180 167.842, 195.298 166.324, 196.556 163.892 C 197.925 161.245, 198.621 160.870, 201.817 161.060 C 207.121 161.376, 208 161.168, 208 159.598 C 208 158.178, 203.142 156, 199.973 156 C 196.847 156, 196.203 153.873, 197.112 146.537 C 197.586 142.707, 197.595 139.195, 197.132 138.732 C 195.744 137.344, 191.342 138.993, 190.065 141.379 C 189.409 142.604, 188.564 146.732, 188.186 150.553 L 187.500 157.500 182.517 157.500 L 177.534 157.500 177.517 147.750 C 177.508 142.388, 177.162 138, 176.750 138 C 176.338 138, 176 138.845, 176 139.878 M 69.500 232 C 72.252 233.183, 73.231 233.183, 72.500 232 C 72.160 231.450, 70.896 231.032, 69.691 231.070 C 67.579 231.138, 67.572 231.171, 69.500 232" stroke="none" fill="black" fill-rule="evenodd"/>
</svg>