<svg xmlns="http://www.w3.org/2000/svg" width="300" height="300" viewBox="0 0 300 300" version="1.1">
	<path d="M 208.500 25.523 C 205.750 26.287, 202.593 26.932, 201.485 26.956 C 200.377 26.980, 196.664 28.369, 193.235 30.042 C 186.687 33.237, 185.025 36, 189.652 36 L 192.304 36 191.635 48.250 C 190.135 75.723, 189.826 79.647, 188.903 83 C 188.374 84.925, 187.662 93.511, 187.322 102.079 C 186.786 115.601, 186.940 118.275, 188.488 122.329 L 190.272 127 195.886 126.985 C 203.096 126.965, 205.067 125.861, 201.879 123.628 L 199.555 122 202.777 122 C 205.333 122, 206 122.414, 206 124 C 206 125.100, 206.588 126, 207.306 126 C 210.057 126, 221.596 121.647, 223.564 119.867 C 224.700 118.840, 226.171 118, 226.833 118 C 228.454 118, 238.604 112.539, 240.492 110.651 C 241.321 109.821, 242 108.436, 242 107.571 C 242 105.370, 238.174 105.568, 232.335 108.071 C 223.321 111.934, 220.509 113.164, 214.896 115.698 C 210.184 117.825, 208.471 118.115, 204.130 117.518 C 200.651 117.039, 198.647 116.209, 197.984 114.970 C 196.246 111.723, 196.756 99.375, 199.625 75.209 C 200.133 70.934, 200.166 70.903, 208.526 66.931 C 213.140 64.739, 217.187 62.507, 217.517 61.972 C 217.848 61.438, 219.147 61, 220.404 61 C 222.748 61, 226 58.223, 226 56.221 C 226 55.604, 225.213 54.650, 224.250 54.101 C 222.602 53.161, 222.598 52.939, 224.183 50.301 C 229.411 41.597, 232.627 31.797, 231.348 28.465 C 229.769 24.350, 218.124 22.851, 208.500 25.523 M 207.219 32.348 C 202.315 33.550, 202.532 33.003, 201.023 47.934 C 200.336 54.734, 200.309 58.709, 200.946 59.346 C 203.099 61.499, 212.975 52.263, 217.356 44.001 C 218.377 42.075, 220.340 39.579, 221.719 38.454 C 228.339 33.051, 219.515 29.334, 207.219 32.348 M 146.253 37.066 C 142.817 37.513, 139.564 38.151, 139.024 38.485 C 138.483 38.819, 134.677 39.470, 130.565 39.931 C 126.189 40.422, 122.455 41.402, 121.562 42.295 C 120.722 43.135, 119.465 44.040, 118.768 44.307 C 117.505 44.791, 117.621 44.915, 123.500 49.344 C 125.432 50.800, 125.440 50.953, 123.750 53.830 C 122.310 56.281, 122 59.273, 122 70.728 C 122 78.384, 121.334 89.114, 120.520 94.574 C 117.865 112.385, 115.807 143.766, 117.130 146.279 C 119.789 151.329, 122.277 151.163, 128.414 145.528 C 131.093 143.069, 135.358 140.288, 137.892 139.349 C 140.427 138.410, 143.694 136.823, 145.154 135.821 C 146.614 134.819, 148.302 134, 148.904 134 C 149.507 134, 150 133.325, 150 132.500 C 150 131.675, 150.482 131, 151.071 131 C 152.611 131, 163.956 121.248, 169.748 114.946 C 170.984 113.601, 172.896 111.713, 173.998 110.750 C 176.387 108.662, 176.623 105.176, 174.433 104.336 C 172.254 103.500, 168.460 105.685, 162.477 111.223 C 159.670 113.821, 155.377 117.364, 152.937 119.097 C 150.497 120.829, 146.925 123.714, 145 125.507 C 141.103 129.138, 130.458 134.995, 127.750 134.998 C 125.608 135, 125.588 134, 127.422 119 C 128.195 112.675, 129.146 102.213, 129.534 95.752 C 130.218 84.361, 130.333 83.912, 133.310 81.002 C 134.998 79.351, 136.952 78, 137.651 78 C 138.350 78, 139.860 76.994, 141.006 75.763 C 142.754 73.887, 143.235 73.762, 143.994 74.991 C 144.598 75.967, 144.376 77.032, 143.328 78.190 C 141.339 80.388, 142.284 83, 145.067 83 C 147.721 83, 152.644 77.839, 154.841 72.755 C 155.881 70.348, 157.364 68.698, 158.817 68.333 C 160.868 67.817, 161.063 67.330, 160.515 64.088 C 160.175 62.074, 160.363 58.341, 160.934 55.793 C 162.552 48.576, 162.522 37.945, 160.881 36.905 C 159.271 35.885, 154.970 35.933, 146.253 37.066 M 136.768 43 C 136.081 44.100, 134.889 45, 134.120 45 C 130.925 45, 130.064 48.317, 130.032 60.750 C 130.011 68.781, 130.367 73, 131.067 73 C 131.653 73, 133.566 71.925, 135.317 70.612 C 137.068 69.298, 140.818 67.063, 143.651 65.645 C 149.451 62.742, 153 58.857, 153 55.412 C 153 54.137, 153.507 51.982, 154.126 50.624 C 155.576 47.441, 154.436 41, 152.423 41 C 151.606 41, 150.678 41.675, 150.362 42.500 C 149.615 44.446, 143.999 44.466, 141.441 42.532 C 138.857 40.577, 138.242 40.639, 136.768 43 M 48.035 95.934 C 46.692 98.444, 46.730 98.994, 48.250 99.027 C 48.938 99.042, 51.075 100.421, 53 102.091 C 55.029 103.852, 55.582 104.681, 54.316 104.064 C 53.114 103.479, 51.067 103, 49.766 103 C 48.465 103, 46.860 102.460, 46.200 101.800 C 45.267 100.867, 45 100.951, 45 102.178 C 45 104.835, 47.857 106.320, 52.793 106.229 C 55.382 106.181, 58.497 106.785, 59.715 107.571 C 60.933 108.357, 62.544 109, 63.295 109 C 64.046 109, 66.875 110.123, 69.581 111.496 C 75.372 114.434, 75 114.357, 75 112.618 C 75 111.278, 64.383 102.862, 56.750 98.151 C 54.688 96.878, 53 95.424, 53 94.918 C 53 93.192, 49.073 93.996, 48.035 95.934 M 190 106.941 C 190 107.459, 190.450 108.160, 191 108.500 C 191.550 108.840, 192 108.416, 192 107.559 C 192 106.702, 191.550 106, 191 106 C 190.450 106, 190 106.423, 190 106.941 M 121.195 124.500 C 121.215 126.150, 121.439 126.704, 121.693 125.731 C 121.947 124.758, 121.930 123.408, 121.656 122.731 C 121.382 122.054, 121.175 122.850, 121.195 124.500 M 168.289 125.531 C 167.106 126.395, 166.754 129.362, 166.622 139.564 C 166.530 146.679, 166.101 153.063, 165.669 153.750 C 165.236 154.438, 163.671 155.011, 162.191 155.024 C 158.723 155.054, 145.472 158.564, 141.191 160.587 C 138.489 161.863, 137.938 162.641, 138.191 164.825 C 138.424 166.843, 138.991 167.435, 140.500 167.233 C 141.600 167.087, 144.210 166.801, 146.301 166.599 C 151.087 166.136, 151.867 165.368, 149.427 163.521 C 147.627 162.160, 147.748 162.062, 151.250 162.032 C 153.313 162.014, 155 162.450, 155 163 C 155 164.995, 158.696 163.935, 161.007 161.277 L 163.375 158.553 164.729 161.872 C 165.555 163.895, 165.970 167.955, 165.792 172.270 L 165.500 179.350 156.500 181.072 C 146.353 183.013, 137.221 186.051, 125.500 191.383 C 111.655 197.681, 110.518 198.377, 110.180 200.754 C 109.716 204.018, 112.811 204.902, 114.919 202.107 C 116.009 200.662, 117.168 200.127, 118.283 200.555 C 119.366 200.971, 120.206 200.626, 120.599 199.604 C 121.440 197.411, 124.996 197.528, 125.015 199.750 C 125.024 200.738, 125.350 201.065, 125.765 200.500 C 126.169 199.950, 127.166 199.500, 127.981 199.500 C 128.889 199.500, 129.470 198.533, 129.481 197 C 129.498 194.819, 129.998 194.459, 133.398 194.181 C 135.672 193.995, 137.605 194.360, 138.036 195.059 C 138.443 195.717, 139.325 195.917, 139.995 195.503 C 140.893 194.948, 140.914 194.565, 140.073 194.045 C 138.862 193.297, 139.647 190, 141.036 190 C 141.487 190, 142.558 190.701, 143.415 191.557 C 144.548 192.691, 145.452 192.846, 146.736 192.128 C 147.706 191.585, 148.385 190.772, 148.245 190.320 C 148.105 189.869, 149.343 189.150, 150.995 188.721 C 152.648 188.293, 154 187.526, 154 187.017 C 154 184.999, 160.929 184.773, 165.466 186.643 C 170.707 188.803, 171.631 190.388, 169.523 193.606 C 168.685 194.884, 168 196.812, 168 197.891 C 168 199.656, 159.211 223.232, 155.285 232 C 154.423 233.925, 151.306 239.618, 148.359 244.651 C 142.741 254.245, 142.237 255.837, 144.200 257.800 C 146.580 260.180, 148.699 258.878, 154.053 251.750 C 157.047 247.762, 159.775 244.275, 160.114 244 C 162.021 242.455, 169.322 224.967, 170.546 219.015 C 170.940 217.098, 171.962 214.462, 172.817 213.157 C 174.253 210.965, 175.632 201.736, 176.356 189.471 C 176.520 186.705, 177.127 183.596, 177.706 182.561 C 178.715 180.758, 178.807 180.770, 179.929 182.868 C 181.194 185.231, 183.277 184.886, 182.349 182.468 C 181.688 180.746, 185.489 180.364, 186.530 182.049 C 186.969 182.759, 187.658 182.699, 188.665 181.863 C 189.846 180.883, 190.312 180.886, 190.924 181.878 C 191.498 182.806, 192.460 182.484, 194.669 180.625 C 196.458 179.120, 198.810 178.157, 200.576 178.207 C 202.189 178.253, 204.542 177.963, 205.804 177.562 C 207.273 177.096, 208.946 177.390, 210.457 178.380 C 212.560 179.758, 212.953 179.762, 214.071 178.415 C 215.559 176.621, 224.629 176.803, 224.294 178.619 C 224.007 180.175, 234.069 180.250, 236.104 178.708 C 238.200 177.120, 239.181 173.860, 238.087 172.118 C 237.443 171.093, 236.222 170.937, 233.360 171.514 C 231.237 171.941, 225.900 172.429, 221.500 172.597 C 217.100 172.765, 210.688 173.080, 207.250 173.297 C 203.200 173.553, 200.948 173.306, 200.852 172.596 C 200.771 171.993, 200.636 170.825, 200.552 170 C 200.469 169.175, 200.034 165.909, 199.584 162.742 C 198.443 154.693, 199.497 153.606, 207.600 154.474 C 213.940 155.153, 215.515 154.505, 214.426 151.668 C 213.658 149.667, 211.620 148.902, 205 148.130 L 199.500 147.488 199.780 140.476 C 200.130 131.703, 198.667 129.030, 194.347 130.543 C 191.560 131.519, 191.489 131.729, 191 140.520 L 190.500 149.500 183.552 150.187 C 179.730 150.564, 176.243 150.650, 175.802 150.378 C 174.350 149.480, 174.898 134.424, 176.494 131.364 C 178.318 127.866, 178.429 125.054, 176.750 124.844 C 172.612 124.327, 169.601 124.571, 168.289 125.531 M 121.158 131 C 121.158 132.375, 121.385 132.938, 121.662 132.250 C 121.940 131.563, 121.940 130.438, 121.662 129.750 C 121.385 129.063, 121.158 129.625, 121.158 131 M 49.049 139.441 C 48.392 140.233, 46.649 141.020, 45.177 141.191 C 41.657 141.597, 40.934 145.359, 44.054 147.029 C 46.443 148.307, 54.555 147.529, 55.546 145.926 C 56.557 144.290, 57.743 145.817, 58.469 149.688 C 58.852 151.728, 59.803 154.308, 60.583 155.421 C 62.249 157.801, 62.466 168.587, 61.023 177.396 C 59.881 184.367, 56.452 189.983, 53.332 189.993 C 49.534 190.005, 47.999 191.120, 48.015 193.857 C 48.044 198.822, 49.915 199.915, 56.236 198.658 C 60.353 197.839, 64 199.181, 64 201.516 C 64 202.311, 65.908 206.908, 68.241 211.731 C 72.140 219.793, 72.483 221.145, 72.491 228.500 C 72.499 235.384, 72.084 237.337, 69.515 242.500 C 64.313 252.956, 53.755 266, 50.494 266 C 49.618 266, 47.573 266.687, 45.950 267.526 C 42.898 269.104, 42.267 271.661, 43.653 276.835 C 44.197 278.867, 44.709 279.090, 47.597 278.548 C 49.422 278.205, 52.172 277.270, 53.708 276.469 C 55.243 275.668, 57.261 275.010, 58.191 275.006 C 60.169 274.999, 61.747 273.014, 59.809 272.971 C 59.089 272.955, 59.998 271.579, 61.829 269.914 C 65.495 266.581, 67.629 266.560, 67.262 269.860 C 67.066 271.622, 67.551 272, 70.012 272 C 71.655 272, 73 271.564, 73 271.031 C 73 270.499, 73.675 270.322, 74.500 270.638 C 75.433 270.996, 76 270.632, 76 269.674 C 76 268.828, 76.932 267.839, 78.072 267.477 C 80.968 266.558, 85 267.746, 85 269.519 C 85 270.334, 85.900 271, 87 271 C 88.175 271, 89 270.333, 89 269.383 C 89 268.165, 89.555 267.940, 91.250 268.470 C 92.487 268.856, 94.257 269.164, 95.183 269.153 C 96.109 269.143, 97.385 269.759, 98.019 270.522 C 98.934 271.626, 99.563 271.665, 101.085 270.715 C 102.590 269.775, 103.454 269.802, 105.118 270.842 C 106.637 271.790, 107.542 271.858, 108.318 271.082 C 109.768 269.632, 110.574 269.717, 112.363 271.506 C 113.359 272.501, 118.098 273.478, 126.336 274.386 C 133.193 275.142, 139.410 276.152, 140.152 276.630 C 140.893 277.109, 145.550 278.442, 150.500 279.594 C 157.949 281.326, 159.445 281.991, 159.182 283.450 C 158.981 284.564, 159.348 285.035, 160.182 284.731 C 160.907 284.466, 161.403 283.790, 161.284 283.228 C 161.052 282.128, 163.595 282.288, 174 284.028 C 188.716 286.489, 193.710 287.126, 197.750 287.055 C 200.088 287.014, 202 287.347, 202 287.793 C 202 288.240, 204.398 288.341, 207.329 288.019 C 213.562 287.333, 222.293 281.792, 222.820 278.188 C 223.222 275.431, 221.243 275.344, 216.807 277.923 C 211.546 280.981, 202.323 283.253, 197.670 282.637 C 184.015 280.829, 177.894 279.946, 173 279.078 C 169.975 278.542, 163.675 277.447, 159 276.645 C 154.325 275.844, 147.575 274.182, 144 272.952 C 140.425 271.722, 135.025 270.387, 132 269.984 C 124.388 268.971, 114.988 267.094, 112 265.990 C 108.341 264.639, 90.730 262.938, 79.366 262.839 C 73.940 262.792, 69.126 262.534, 68.668 262.267 C 68.210 261.999, 68.925 260.592, 70.257 259.140 C 75.700 253.203, 80.412 243.553, 81.429 236.259 C 82.133 231.211, 80.349 218.326, 78.554 215.500 C 76.688 212.562, 71 198.762, 71 197.173 C 71 196.423, 70.030 194.446, 68.844 192.781 C 66.936 190.101, 66.827 189.367, 67.898 186.405 C 68.564 184.563, 69.376 178.347, 69.702 172.590 C 70.275 162.468, 69.671 157.751, 66.745 149.500 C 63.901 141.481, 52.660 135.091, 49.049 139.441 M 185.500 157 C 185.160 157.550, 183.164 158, 181.063 158 C 175.682 158, 174.863 159.491, 175.206 168.655 L 175.500 176.500 178.777 176.815 C 182.864 177.209, 192.161 175.334, 194.460 173.653 C 195.961 172.556, 196.037 171.819, 195.054 167.947 C 192.960 159.700, 190.902 156, 188.407 156 C 187.148 156, 185.840 156.450, 185.500 157 M 133.500 196 C 132.718 197.266, 134.042 197.266, 136 196 C 137.293 195.165, 137.266 195.029, 135.809 195.015 C 134.879 195.007, 133.840 195.450, 133.500 196 M 189.556 212.335 C 187.808 213.614, 187.803 213.891, 189.445 218.835 C 190.389 221.676, 191.563 224, 192.055 224 C 192.546 224, 193.618 225.295, 194.437 226.878 C 195.256 228.461, 198.500 232.271, 201.648 235.343 C 206.056 239.647, 208.648 241.300, 212.935 242.539 C 215.996 243.424, 219.850 244.763, 221.500 245.516 C 223.150 246.269, 226.525 247.104, 229 247.372 C 231.475 247.640, 235.863 248.173, 238.750 248.557 C 243.218 249.151, 244 249.012, 244 247.627 C 244 246.642, 243.173 246, 241.904 246 C 236.111 246, 223.938 241.353, 221 238.021 C 220.175 237.085, 217.965 235.712, 216.088 234.971 C 211.902 233.317, 204.486 226.073, 203.676 222.846 C 202.871 219.639, 195.119 211, 193.046 211 C 192.131 211, 190.560 211.601, 189.556 212.335 M 195 222.262 C 195 223.783, 198.709 227.624, 199.456 226.877 C 200.167 226.167, 197.623 221.698, 196.250 221.246 C 195.563 221.019, 195 221.476, 195 222.262 M 204 233.531 C 204 235.044, 206.637 236.697, 207.567 235.767 C 207.831 235.502, 207.763 234.547, 207.417 233.643 C 206.621 231.570, 204 231.484, 204 233.531 M 213.473 239.044 C 213.148 239.570, 213.097 240, 213.359 240 C 213.622 240, 214.548 240.273, 215.418 240.607 C 216.288 240.941, 217 240.764, 217 240.214 C 217 238.815, 214.191 237.883, 213.473 239.044 M 223 245 C 223 245.550, 224.152 246, 225.559 246 C 227.010 246, 227.851 245.567, 227.500 245 C 227.160 244.450, 226.009 244, 224.941 244 C 223.873 244, 223 244.450, 223 245" stroke="none" fill="black" fill-rule="evenodd"/>
</svg>