<svg xmlns="http://www.w3.org/2000/svg" width="300" height="300" viewBox="0 0 300 300" version="1.1">
	<path d="M 226 52.975 C 223.525 53.403, 219.250 54.083, 216.500 54.488 C 208.837 55.614, 200.268 59.167, 199.101 61.702 C 198.543 62.913, 196.772 64.584, 195.165 65.415 C 193.557 66.246, 192.011 67.530, 191.727 68.268 C 191.444 69.007, 191.592 74.536, 192.055 80.555 C 192.519 86.575, 192.921 96.012, 192.949 101.528 C 192.994 110.281, 193.254 111.773, 195 113.268 C 197.548 115.449, 197.596 117.324, 195.083 116.526 C 193.273 115.952, 193.165 116.544, 193.133 127.209 C 193.115 133.419, 192.702 144.350, 192.216 151.500 C 191.730 158.650, 191.521 168.775, 191.753 174 C 191.984 179.225, 192.247 200.468, 192.337 221.207 C 192.495 257.653, 192.567 258.963, 194.500 260.396 C 196.207 261.661, 196.317 262.178, 195.250 263.926 C 193.592 266.642, 193.673 268.510, 195.631 272.635 C 196.528 274.525, 197.008 276.325, 196.699 276.635 C 196.004 277.330, 199.639 284.456, 201.460 285.966 C 203.186 287.399, 206.290 284.507, 205.560 282.145 C 202.206 271.290, 201.788 264.856, 201.458 219 C 201.274 193.425, 201.379 169.463, 201.691 165.750 C 202.246 159.152, 202.322 159, 205.070 159 C 206.617 159, 208.165 158.543, 208.510 157.984 C 208.856 157.425, 209.564 157.231, 210.085 157.553 C 210.606 157.875, 210.805 158.506, 210.528 158.955 C 209.942 159.903, 213.358 160.967, 217.050 160.986 C 218.453 160.994, 220.088 161.488, 220.685 162.085 C 221.465 162.865, 222.632 162.725, 224.835 161.585 C 226.521 160.713, 228.442 160, 229.104 160 C 231.298 160, 240.488 155.203, 243.318 152.581 C 244.850 151.162, 246.530 150, 247.052 150 C 247.573 150, 248 149.325, 248 148.500 C 248 147.675, 248.396 147, 248.881 147 C 250.009 147, 254.450 137.742, 255.892 132.384 C 257.346 126.982, 257.230 120.389, 255.600 115.825 C 252.700 107.707, 241.953 98, 235.863 98 C 232.317 98, 231.492 96.563, 233.442 93.779 C 234.299 92.556, 235 90.755, 235 89.777 C 235 88.800, 235.441 88, 235.980 88 C 238.070 88, 240.739 80.281, 241.338 72.500 C 242.613 55.958, 238.566 50.806, 226 52.975 M 215 57.559 C 215 58.416, 215.457 58.835, 216.016 58.490 C 216.575 58.144, 216.774 57.443, 216.457 56.931 C 215.600 55.544, 215 55.802, 215 57.559 M 101.323 60.250 C 98.717 63.146, 97.908 65.508, 99.111 66.711 C 100.301 67.901, 99.204 71, 97.593 71 C 96.937 71, 95.936 70.536, 95.368 69.968 C 94.659 69.259, 93.267 70.236, 90.918 73.091 C 89.038 75.375, 86.645 77.977, 85.600 78.872 C 84.555 79.768, 82.918 81.237, 81.963 82.137 C 81.007 83.038, 79.544 84.163, 78.710 84.637 C 75.930 86.219, 65.537 96.351, 62.744 100.201 C 61.228 102.290, 59.365 104, 58.605 104 C 57.844 104, 56.204 104.824, 54.960 105.831 C 52.125 108.127, 52.844 113, 56.019 113 C 57.663 113, 58 113.679, 58 117 C 58 119.729, 57.563 121, 56.624 121 C 55.489 121, 55.317 124.537, 55.642 141.250 C 55.859 152.387, 56.179 164.668, 56.354 168.541 C 56.564 173.178, 56.255 175.972, 55.449 176.725 C 53.287 178.745, 51.804 193.933, 52.385 208.103 C 53.180 227.500, 53.751 230.139, 56.972 229.297 C 59.639 228.600, 60.046 226.270, 60.559 208.775 C 60.813 200.126, 61.469 190.226, 62.017 186.775 C 64.882 168.728, 65.209 162.425, 64.668 135.721 L 64.105 107.942 70.302 101.598 C 73.711 98.108, 78.536 93.702, 81.024 91.806 C 83.512 89.910, 88.012 85.728, 91.024 82.512 C 97.689 75.396, 101.072 72.099, 104.275 69.594 C 107.428 67.129, 110.423 61.545, 109.659 59.555 C 108.756 57.202, 103.686 57.625, 101.323 60.250 M 222.500 62.937 C 221.400 63.383, 217.587 64.086, 214.026 64.498 C 208.496 65.139, 207.053 65.747, 204.135 68.665 L 200.719 72.081 201.492 81.290 C 201.917 86.356, 202.385 103.407, 202.531 119.182 C 202.678 134.957, 203.095 148.344, 203.458 148.932 C 203.821 149.519, 204.935 150, 205.933 150 C 206.931 150, 209.901 151.203, 212.531 152.673 C 216.959 155.148, 217.693 155.267, 222.407 154.271 C 228.860 152.908, 236.589 147.915, 240.711 142.447 C 244.610 137.275, 247.479 126.390, 245.982 122.452 C 245.442 121.032, 244.986 118.887, 244.968 117.685 C 244.922 114.498, 240.828 110.355, 236.167 108.780 C 233.935 108.025, 231.153 106.193, 229.986 104.709 C 228.370 102.654, 227.114 102.069, 224.720 102.255 C 220.533 102.581, 219.916 99.741, 223.387 96.118 C 224.801 94.642, 226.801 90.974, 227.830 87.967 C 230.245 80.913, 231.576 65.399, 229.936 63.423 C 228.645 61.867, 225.626 61.670, 222.500 62.937 M 84.638 83.500 C 84.288 84.414, 84.637 85, 85.531 85 C 86.339 85, 87 84.325, 87 83.500 C 87 82.675, 86.598 82, 86.107 82 C 85.616 82, 84.955 82.675, 84.638 83.500 M 232.813 103.683 C 233.534 103.972, 234.397 103.936, 234.729 103.604 C 235.061 103.272, 234.471 103.036, 233.417 103.079 C 232.252 103.127, 232.015 103.364, 232.813 103.683 M 147 111.686 C 145.625 111.914, 141.350 113.169, 137.500 114.476 C 133.650 115.782, 126.933 117.831, 122.573 119.027 C 118.214 120.224, 113.939 121.542, 113.073 121.956 C 105.199 125.724, 95.877 127.656, 81.828 128.433 C 71.222 129.020, 68.118 130.259, 69.332 133.422 C 69.665 134.290, 70.703 135, 71.640 135 C 72.576 135, 74.142 135.724, 75.120 136.608 C 76.361 137.732, 78.690 138.191, 82.846 138.133 C 86.613 138.080, 89.193 138.528, 89.879 139.355 C 90.595 140.217, 90.913 148.100, 90.817 162.580 C 90.608 193.883, 90.761 197.189, 92.500 198.929 C 95.133 201.561, 96.673 198.297, 98.599 186 C 100.206 175.748, 100.838 164.167, 100.961 142.725 C 100.998 136.247, 101.121 135.909, 103.750 134.995 C 105.263 134.470, 107.774 133.356, 109.331 132.520 C 110.888 131.684, 113.021 131, 114.070 131 C 115.120 131, 118.346 130.100, 121.239 129.001 C 124.133 127.901, 127.198 127.001, 128.050 127.001 C 128.903 127, 130.142 126.458, 130.804 125.796 C 131.902 124.698, 136.887 123.068, 144.385 121.355 L 147.269 120.696 146.669 143.098 C 146.138 162.905, 144.352 180.064, 142.308 185 C 141.665 186.551, 141.905 206.196, 142.574 206.893 C 143.561 207.919, 146.016 204.411, 146.592 201.150 C 147.636 195.246, 151.041 181.023, 152.040 178.395 C 154.461 172.027, 159.310 131.745, 158.824 122.035 C 158.519 115.946, 158.302 115.436, 155.102 113.285 C 153.233 112.028, 151.208 111.061, 150.602 111.136 C 149.996 111.211, 148.375 111.459, 147 111.686 M 130.813 120.683 C 131.534 120.972, 132.397 120.936, 132.729 120.604 C 133.061 120.272, 132.471 120.036, 131.417 120.079 C 130.252 120.127, 130.015 120.364, 130.813 120.683 M 58.079 126.583 C 58.127 127.748, 58.364 127.985, 58.683 127.188 C 58.972 126.466, 58.936 125.603, 58.604 125.271 C 58.272 124.939, 58.036 125.529, 58.079 126.583 M 78.638 135.500 C 78.955 136.325, 79.648 137, 80.178 137 C 80.709 137, 81.818 136.325, 82.643 135.500 C 83.976 134.167, 83.805 134, 81.103 134 C 78.811 134, 78.205 134.369, 78.638 135.500 M 116.223 143.557 C 113.141 145.715, 112.970 153, 116 153 C 117.571 153, 118 153.667, 118 156.111 L 118 159.222 116.150 156.937 C 114.317 154.673, 114.294 154.754, 113.728 165.576 C 113.161 176.416, 109.826 195.904, 107.968 199.236 C 107.436 200.191, 107 201.804, 107 202.820 C 107 203.836, 106.692 204.975, 106.315 205.352 C 105.938 205.729, 105.054 207.710, 104.351 209.755 C 102.936 213.871, 104.002 216.104, 106.133 213.489 C 106.885 212.566, 108.450 210.842, 109.611 209.656 C 113.218 205.972, 119.640 189.693, 118.834 186.275 C 118.733 185.849, 119.385 183.025, 120.283 180 C 123.850 167.971, 124.924 144.827, 122 142.979 C 119.904 141.654, 118.779 141.766, 116.223 143.557 M 239.813 149.683 C 240.534 149.972, 241.397 149.936, 241.729 149.604 C 242.061 149.272, 241.471 149.036, 240.417 149.079 C 239.252 149.127, 239.015 149.364, 239.813 149.683 M 234 154.500 C 233.282 155.365, 233.185 156, 233.771 156 C 234.329 156, 235.045 155.325, 235.362 154.500 C 235.678 153.675, 235.781 153, 235.591 153 C 235.401 153, 234.685 153.675, 234 154.500 M 195 159.559 C 195 161.677, 195.405 162.868, 196 162.500 C 196.550 162.160, 197 160.559, 197 158.941 C 197 157.323, 196.550 156, 196 156 C 195.450 156, 195 157.602, 195 159.559 M 228.079 157.583 C 228.127 158.748, 228.364 158.985, 228.683 158.188 C 228.972 157.466, 228.936 156.603, 228.604 156.271 C 228.272 155.939, 228.036 156.529, 228.079 157.583 M 149 220.274 C 147.625 220.927, 145.998 222.112, 145.384 222.908 C 144.453 224.115, 143.765 224.145, 141.225 223.093 C 139.180 222.246, 137.577 222.146, 136.341 222.788 C 135.328 223.314, 132.296 224.064, 129.603 224.455 C 126.910 224.847, 123.985 225.535, 123.103 225.986 C 122.221 226.437, 118.575 227.308, 115 227.923 C 111.425 228.538, 106.700 229.457, 104.500 229.967 C 102.300 230.476, 99.150 231.165, 97.500 231.497 C 93.003 232.404, 81.325 236.003, 74.132 238.699 C 70.630 240.012, 67.030 240.985, 66.132 240.862 C 64.661 240.661, 61.322 241.060, 50.123 242.778 C 48.130 243.084, 42.225 243.407, 37 243.496 C 26.517 243.674, 19.624 245.890, 20.234 248.886 C 20.488 250.134, 21.536 250.426, 24.855 250.174 C 28.505 249.897, 29.229 250.159, 29.690 251.924 C 30.159 253.716, 31.004 253.999, 35.867 253.996 C 41.597 253.992, 54.590 250.924, 53.499 249.832 C 53.169 249.503, 51.293 249.596, 49.329 250.039 C 45.304 250.946, 43 250.394, 43 248.521 C 43 247.186, 48.708 245.795, 55.634 245.442 C 57.907 245.327, 61.413 244.689, 63.425 244.025 C 65.437 243.361, 67.851 243.117, 68.791 243.484 C 70.157 244.016, 69.824 244.436, 67.135 245.575 C 65.285 246.359, 62.787 247, 61.585 247 C 59.343 247, 57 248.691, 57 250.309 C 57 250.810, 58.462 250.997, 60.250 250.726 C 66.797 249.732, 79.555 246.973, 81.500 246.131 C 85.065 244.587, 98.892 241, 101.279 241 C 102.556 241, 104.028 240.597, 104.550 240.105 C 105.658 239.062, 112.971 237.232, 121.500 235.863 C 124.800 235.334, 129.300 234.442, 131.500 233.882 C 133.700 233.322, 137.750 232.489, 140.500 232.030 C 143.250 231.571, 147.547 230.306, 150.050 229.219 C 152.552 228.132, 156.849 226.933, 159.598 226.555 C 165.562 225.735, 167.486 224.709, 166.734 222.749 C 166.393 221.860, 164.105 221.043, 160.838 220.645 C 157.902 220.287, 154.600 219.789, 153.500 219.540 C 152.400 219.290, 150.375 219.621, 149 220.274 M 193 228.417 C 193 230.097, 193.549 231, 194.570 231 C 195.612 231, 196.032 230.271, 195.820 228.828 C 195.348 225.627, 193 225.284, 193 228.417 M 128 227.996 C 124.975 228.297, 121.606 229.061, 120.514 229.693 C 118.602 230.801, 118.620 230.866, 121.014 231.448 C 124.802 232.369, 129.231 231.690, 131.940 229.773 C 133.281 228.823, 134.181 227.912, 133.940 227.747 C 133.698 227.583, 131.025 227.695, 128 227.996 M 111.370 230.444 C 109.251 231.559, 109.253 231.572, 111.819 232.783 C 114.950 234.260, 117 234.346, 117 233 C 117 232.450, 116.298 232, 115.441 232 C 114.584 232, 114.141 231.581, 114.457 231.069 C 115.382 229.573, 113.679 229.228, 111.370 230.444 M 135.500 230 C 135.840 230.550, 136.316 231, 136.559 231 C 136.802 231, 137 230.550, 137 230 C 137 229.450, 136.523 229, 135.941 229 C 135.359 229, 135.160 229.450, 135.500 230 M 95.606 235.853 C 97.811 238.428, 104 238.905, 104 236.500 C 104 235.534, 103.022 234.995, 101.250 234.986 C 99.737 234.979, 97.435 234.688, 96.134 234.339 C 93.802 233.715, 93.794 233.737, 95.606 235.853 M 107.250 234.689 C 108.213 234.941, 109.787 234.941, 110.750 234.689 C 111.713 234.438, 110.925 234.232, 109 234.232 C 107.075 234.232, 106.287 234.438, 107.250 234.689 M 91.429 237.114 C 91.018 237.780, 89.183 238.020, 86.870 237.709 C 84.742 237.424, 83 237.567, 83 238.028 C 83 239.499, 86.836 240.147, 91.450 239.455 C 95.275 238.882, 95.724 238.581, 94.535 237.392 C 92.852 235.709, 92.327 235.662, 91.429 237.114 M 80.228 239.757 C 79.553 239.982, 79 240.804, 79 241.583 C 79 243.106, 80.791 243.427, 82.639 242.235 C 84.106 241.289, 82.031 239.156, 80.228 239.757 M 71.500 242 C 74.249 243.181, 75.828 243.181, 74 242 C 73.175 241.467, 71.825 241.055, 71 241.086 C 70.011 241.122, 70.181 241.433, 71.500 242 M 35.216 250.025 C 34.201 251.651, 34.239 252, 35.433 252 C 37.298 252, 38.488 250.088, 37.338 248.938 C 36.821 248.421, 35.935 248.874, 35.216 250.025" stroke="none" fill="black" fill-rule="evenodd"/>
</svg>