<svg xmlns="http://www.w3.org/2000/svg" width="300" height="300" viewBox="0 0 300 300" version="1.1">
	<path d="M 113 61.100 C 108.875 61.562, 103.700 62.378, 101.500 62.913 C 99.300 63.448, 95.487 64.158, 93.026 64.491 C 87.852 65.190, 85 67.351, 85 70.572 C 85 73.308, 82.917 74.242, 81.402 72.185 C 80.311 70.705, 78 71.281, 78 73.033 C 78 73.537, 79.446 74.696, 81.212 75.610 C 84.263 77.187, 84.629 77.168, 88.462 75.240 C 90.683 74.122, 93.330 72.934, 94.345 72.599 C 95.360 72.264, 96.425 71.092, 96.712 69.995 C 97.853 65.630, 104 68.899, 104 73.871 C 104 75.372, 104.392 77.028, 104.872 77.550 C 105.351 78.073, 106.011 82.196, 106.338 86.713 C 106.993 95.779, 106.233 97.522, 101.180 98.533 C 99.706 98.828, 97.150 99.469, 95.500 99.957 C 93.850 100.445, 89.125 101.588, 85 102.497 C 80.875 103.406, 76.022 104.791, 74.216 105.575 C 68.695 107.971, 67.340 107.532, 67.810 103.500 C 68.124 100.809, 67.855 100, 66.645 100 C 65.779 100, 64.589 100.900, 64 101.999 C 63.217 103.463, 62.070 103.932, 59.715 103.749 C 56.632 103.510, 56.507 103.644, 56.667 107 C 56.759 108.925, 57.567 113.425, 58.462 117 C 59.432 120.871, 60.421 130.984, 60.908 142 C 61.823 162.681, 63.223 169.304, 66.790 169.820 L 69 170.139 68.956 147.820 C 68.932 135.544, 68.523 123.481, 68.048 121.014 C 66.853 114.822, 67.892 113.401, 74.214 112.583 C 77.742 112.126, 80.014 111.232, 81.045 109.896 C 82.374 108.172, 82.995 108.048, 85.505 109.002 C 89.088 110.364, 96.580 107.900, 97.480 105.063 C 97.869 103.838, 99.407 103.075, 102.258 102.692 C 104.570 102.382, 106.695 102.362, 106.981 102.648 C 107.266 102.933, 107.523 108.417, 107.551 114.833 C 107.587 123.167, 108.010 127.138, 109.031 128.734 C 111.132 132.017, 108.380 134.524, 103.094 134.143 C 100.944 133.987, 96.330 134.542, 92.842 135.374 C 89.354 136.207, 84.475 137.189, 82 137.557 C 76.931 138.311, 72 140.820, 72 142.644 C 72 145.309, 75.249 147.190, 78.911 146.646 C 86.669 145.494, 89.093 144.695, 90.007 142.988 C 91.566 140.073, 96.885 138.695, 99.631 140.494 C 102.563 142.415, 104.097 142.417, 103.362 140.500 C 102.941 139.405, 103.484 139, 105.374 139 C 107.336 139, 108.122 139.637, 108.623 141.635 C 109.324 144.429, 108.318 165.677, 107.415 167.138 C 107.122 167.612, 105.446 168.015, 103.691 168.034 C 101.936 168.053, 96.675 169.441, 92 171.118 C 87.325 172.794, 81.643 174.604, 79.373 175.138 C 74.517 176.281, 71.483 179.235, 70.528 183.751 C 69.637 187.963, 71.902 189.009, 75.605 186.096 C 77.071 184.943, 78.869 184, 79.601 184 C 82.250 184, 97 177.024, 97 175.771 C 97 174.318, 103.769 174.955, 104.347 176.461 C 104.655 177.265, 104.481 180.528, 103.960 183.711 C 103.438 186.895, 103.009 192.245, 103.006 195.601 C 103 202.096, 101.613 207.564, 99.360 209.973 C 98.151 211.266, 97.527 211.210, 94.241 209.508 C 92.184 208.443, 88.700 205.966, 86.500 204.005 C 81.232 199.307, 76.582 197.406, 73.260 198.590 C 69.798 199.824, 68 202.745, 69.952 203.962 C 70.751 204.461, 71.712 204.678, 72.089 204.445 C 72.465 204.213, 72.995 204.873, 73.267 205.912 C 73.540 206.956, 75.837 208.719, 78.408 209.856 C 80.963 210.987, 83.749 212.607, 84.599 213.456 C 85.448 214.305, 86.630 215, 87.226 215 C 89.013 215, 84.851 211.023, 81.303 209.339 C 79.486 208.477, 78 207.148, 78 206.386 C 78 203.993, 80.478 204.867, 84 208.500 C 85.866 210.425, 88.178 212, 89.137 212 C 91.048 212, 92.432 213.660, 92.474 216 C 92.492 217.020, 93.401 217.437, 95.318 217.302 C 97.975 217.116, 98.097 217.282, 97.455 220.207 C 94.861 232.013, 90.269 239.152, 80.540 246.500 C 78.130 248.321, 78.023 248.677, 79.349 250.477 C 80.701 252.313, 81.216 252.368, 86.582 251.242 C 92.211 250.061, 98 246.133, 98 243.493 C 98 242.870, 99.125 241.382, 100.500 240.187 C 101.875 238.991, 103 237.576, 103 237.042 C 103 236.508, 104.313 234.146, 105.917 231.793 C 107.942 228.823, 108.480 227.296, 107.675 226.799 C 106.809 226.264, 106.833 225.767, 107.769 224.831 C 108.773 223.827, 109.462 224.017, 111.233 225.789 C 112.449 227.005, 112.894 228, 112.222 228 C 110.012 228, 110.945 230.583, 113.960 232.812 C 117.334 235.307, 118.636 235.536, 119.293 233.750 C 119.640 232.805, 120.534 232.927, 122.957 234.250 C 124.720 235.213, 126.849 236, 127.688 236 C 128.618 236, 128.994 236.573, 128.651 237.466 C 128.207 238.625, 128.715 238.807, 131.072 238.336 C 133.024 237.945, 134.649 238.259, 135.777 239.243 C 136.725 240.070, 140.364 241.057, 143.864 241.436 C 147.364 241.815, 150.964 242.494, 151.864 242.945 C 152.764 243.396, 155.410 244.204, 157.744 244.742 C 162.220 245.772, 164.633 244.642, 163.134 242.217 C 161.993 240.370, 150.092 236.006, 146.060 235.956 C 141.940 235.905, 134.518 234.013, 131.229 232.176 C 129.980 231.478, 128.532 231.171, 128.011 231.493 C 127.490 231.815, 125.647 230.725, 123.915 229.070 C 122.184 227.415, 119.807 225.759, 118.634 225.390 C 117.460 225.021, 114.956 223.225, 113.069 221.399 L 109.639 218.078 110.865 212.789 C 111.539 209.880, 112.583 201.200, 113.184 193.500 C 113.951 183.673, 114.825 178.407, 116.117 175.832 C 118.095 171.889, 117.389 172.096, 133.500 170.751 C 135.750 170.563, 136.500 170, 136.500 168.500 C 136.500 166.958, 135.780 166.464, 133.355 166.341 C 131.624 166.254, 129.255 165.672, 128.090 165.048 C 126.581 164.240, 124.904 164.209, 122.266 164.937 C 120.228 165.500, 118.191 165.591, 117.739 165.139 C 117.288 164.688, 117.376 162.334, 117.935 159.909 C 118.494 157.484, 118.965 152.800, 118.981 149.500 C 119.023 141.154, 120.575 136, 123.047 136 C 124.121 136, 125 136.513, 125 137.139 C 125 137.916, 126.565 138.093, 129.924 137.695 C 133.554 137.265, 135.163 137.492, 136.047 138.556 C 138.837 141.919, 141.702 139.041, 139.654 134.932 C 138.204 132.025, 133.755 130.906, 125 131.247 L 118.500 131.500 117.828 121 C 117.175 110.803, 118.332 101, 120.189 101 C 120.635 101, 121 101.479, 121 102.063 C 121 102.777, 123.438 102.915, 128.407 102.484 C 135.290 101.887, 135.861 101.986, 136.466 103.892 C 137.024 105.652, 137.397 105.770, 139.089 104.722 C 140.697 103.726, 141.238 103.777, 142.020 105 C 142.547 105.825, 142.790 107.019, 142.558 107.653 C 142.327 108.287, 142.767 109.637, 143.537 110.653 C 144.535 111.970, 144.945 115.657, 144.965 123.500 C 144.989 132.567, 144.455 136.609, 141.926 146.500 C 140.239 153.100, 138.613 159.513, 138.312 160.750 C 137.417 164.442, 142.224 163.762, 145.375 159.750 C 146.778 157.963, 148.559 155.772, 149.330 154.883 C 150.102 153.994, 150.992 151.969, 151.307 150.383 C 151.622 148.797, 152.402 145.025, 153.040 142 C 154.486 135.143, 153.757 111.719, 151.964 107.403 C 149.303 100.999, 135.691 95.001, 123.817 95.001 C 117.373 95, 116.048 94.718, 115.596 93.250 C 115.125 91.721, 113.003 71.388, 113.001 68.387 C 113 67.642, 115.952 67.318, 121.920 67.409 C 128.803 67.514, 131.272 67.937, 132.734 69.259 C 134.079 70.477, 134.937 70.663, 135.698 69.902 C 137.863 67.737, 135.750 64.779, 130.323 62.379 C 124.568 59.834, 124.405 59.822, 113 61.100 M 227.500 65.093 C 225.850 65.600, 221.575 66.092, 218 66.186 C 213.257 66.311, 211.027 66.839, 209.750 68.137 C 207.464 70.461, 207.539 71.218, 210.314 73.826 C 212.842 76.200, 215.016 76.584, 216.653 74.947 C 217.232 74.368, 219.685 73.702, 222.103 73.468 C 224.918 73.196, 227.097 72.315, 228.160 71.021 C 230.291 68.428, 234.258 68.447, 238.864 71.073 C 243.210 73.551, 248 79.500, 248 82.419 C 248 83.640, 245.703 86.769, 242.500 89.910 C 239.475 92.877, 237 95.705, 237 96.195 C 237 97.573, 227.877 107, 226.543 107 C 224.334 107, 218.808 112.768, 219.196 114.669 C 219.503 116.170, 220.441 116.469, 224.408 116.328 C 231.084 116.090, 234 115.224, 234 113.481 C 234 111.704, 235.590 111.528, 236.618 113.191 C 237.023 113.846, 236.822 114.559, 236.171 114.776 C 234.476 115.341, 235.781 117, 237.920 117 C 240.613 117, 244.186 129.306, 244.781 140.627 C 245.215 148.913, 245.019 150.279, 242.645 155.464 C 241.207 158.605, 238.843 162.598, 237.392 164.338 C 233.208 169.352, 222.674 177.971, 220.710 177.986 C 215.854 178.024, 206.184 170.763, 200.420 162.750 C 198.541 160.137, 196.388 158, 195.637 158 C 194.885 158, 193.084 157.067, 191.635 155.927 C 189.133 153.960, 188.999 153.390, 188.980 144.677 C 188.969 139.630, 188.558 132.575, 188.067 129 C 187.214 122.796, 185.607 95.506, 185.534 86 C 185.515 83.525, 185.838 80.295, 186.251 78.822 C 187.208 75.408, 185.079 73.071, 181.615 73.733 C 176.956 74.624, 175.884 83.743, 177.349 110 C 177.764 117.425, 178.589 127.550, 179.183 132.500 C 179.777 137.450, 180.373 161.525, 180.507 186 C 180.669 215.622, 181.146 232.339, 181.934 236 C 182.586 239.025, 183.545 245.325, 184.066 250 C 184.587 254.675, 185.461 260.660, 186.007 263.299 C 186.553 265.939, 187.007 270.889, 187.015 274.299 C 187.023 277.710, 187.595 281.618, 188.286 282.983 C 189.573 285.527, 194.399 287.934, 195.668 286.665 C 197.549 284.785, 195.144 256.636, 191.341 236 C 190.327 230.500, 189.806 222.206, 189.864 212.500 C 190.075 177.237, 189.971 165.483, 189.433 163.790 C 188.513 160.891, 191.755 160.421, 194.551 163.048 C 195.898 164.313, 197 165.923, 197 166.625 C 197 168.205, 208.567 179.430, 213.138 182.286 C 218.062 185.363, 228.431 185.377, 230.805 182.311 C 231.737 181.106, 233.674 179.836, 235.110 179.487 C 237.699 178.859, 246.148 171.046, 248.352 167.243 C 252.413 160.233, 253.180 158.394, 254.088 153.484 C 255.329 146.771, 253.739 133.513, 250.926 127.123 C 249.867 124.715, 249 121.733, 249 120.495 C 249 119.258, 248.325 117.685, 247.500 117 C 246.675 116.315, 246 115.168, 246 114.450 C 246 113.732, 244.599 112.049, 242.887 110.709 C 239.852 108.333, 239.816 108.211, 241.440 105.732 C 242.356 104.334, 244.094 102.929, 245.303 102.609 C 246.548 102.280, 248.800 99.819, 250.500 96.930 C 252.150 94.127, 254.158 91.132, 254.961 90.276 C 256.677 88.449, 256.625 80.458, 254.884 78.360 C 254.252 77.599, 253.007 75.531, 252.118 73.765 C 251.228 71.999, 248.553 69.079, 246.172 67.277 C 242.409 64.428, 241.104 64.011, 236.172 64.086 C 233.053 64.133, 229.150 64.586, 227.500 65.093 M 183.015 135.250 C 183.007 136.762, 183.450 138, 184 138 C 185.264 138, 185.264 135.957, 184 134 C 183.245 132.831, 183.027 133.107, 183.015 135.250 M 249 145 C 249 146.867, 249.267 147.133, 250.200 146.200 C 251.133 145.267, 251.133 144.733, 250.200 143.800 C 249.267 142.867, 249 143.133, 249 145 M 244 164 C 244 164.550, 244.477 165, 245.059 165 C 245.641 165, 245.840 164.550, 245.500 164 C 245.160 163.450, 244.684 163, 244.441 163 C 244.198 163, 244 163.450, 244 164 M 111 170.539 C 111 173.771, 111.198 174.081, 112.548 172.960 C 114.313 171.496, 114.123 167.862, 112.250 167.245 C 111.401 166.965, 111 168.022, 111 170.539 M 80.813 180.683 C 81.534 180.972, 82.397 180.936, 82.729 180.604 C 83.061 180.272, 82.471 180.036, 81.417 180.079 C 80.252 180.127, 80.015 180.364, 80.813 180.683 M 182.538 205.348 C 180.565 206.791, 181.182 209, 183.559 209 C 184.429 209, 185 208.010, 185 206.500 C 185 203.592, 184.964 203.575, 182.538 205.348 M 104.200 211.200 C 102.844 212.556, 102.586 215, 103.800 215 C 105.046 215, 107 212.741, 107 211.300 C 107 209.674, 105.770 209.630, 104.200 211.200 M 100.667 227.667 C 100.300 228.033, 100 228.798, 100 229.367 C 100 229.993, 100.466 229.934, 101.183 229.217 C 101.834 228.566, 102.134 227.801, 101.850 227.517 C 101.566 227.232, 101.033 227.300, 100.667 227.667 M 115 229.819 C 115 231.027, 116.897 232.436, 117.591 231.743 C 117.842 231.491, 117.362 230.716, 116.524 230.020 C 115.574 229.231, 115 229.155, 115 229.819 M 121 237 C 122.939 238.253, 124 238.253, 124 237 C 124 236.450, 122.987 236.007, 121.750 236.015 C 119.931 236.028, 119.787 236.216, 121 237 M 188.158 255 C 188.158 256.375, 188.385 256.938, 188.662 256.250 C 188.940 255.563, 188.940 254.438, 188.662 253.750 C 188.385 253.063, 188.158 253.625, 188.158 255" stroke="none" fill="black" fill-rule="evenodd"/>
</svg>