<svg xmlns="http://www.w3.org/2000/svg" width="300" height="300" viewBox="0 0 300 300" version="1.1">
	<path d="M 86.358 18.750 C 86.699 20.813, 86.983 23.500, 86.989 24.722 C 86.998 26.446, 88.400 27.639, 93.242 30.041 C 98.675 32.737, 100.391 33.107, 106.492 32.898 C 110.346 32.766, 116.610 32.746, 120.411 32.852 C 126.310 33.017, 127.665 32.724, 129.661 30.849 C 130.948 29.640, 132 28.332, 132 27.942 C 132 26.481, 128.169 26.309, 125.027 27.631 C 119.689 29.875, 111.030 28.759, 106.847 25.288 C 106.084 24.655, 103.445 23.994, 100.980 23.819 C 97.054 23.539, 96.462 23.191, 96.190 21 C 95.981 19.309, 94.754 17.934, 92.399 16.750 C 86.834 13.953, 85.631 14.351, 86.358 18.750 M 220.986 27.515 C 219.016 29.612, 218.784 30.483, 219.586 32.765 C 220.515 35.408, 220.806 35.505, 228.287 35.639 C 233.151 35.726, 236.642 36.283, 237.684 37.139 C 240.559 39.500, 245 47.286, 244.989 49.946 C 244.972 53.982, 242.348 61.595, 239.557 65.701 C 238.151 67.771, 237 69.810, 237 70.232 C 237 71.019, 233.323 75, 232.596 75 C 230.933 75, 225 81.779, 225 83.679 C 225 87.141, 232.561 90.469, 238.559 89.647 C 242.211 89.146, 243.398 89.398, 245.017 91.017 C 246.108 92.108, 247.225 93, 247.500 93 C 248.625 93, 251.609 96.796, 253.250 100.315 C 255.527 105.198, 255.587 118.174, 253.367 125.808 C 252.470 128.897, 250.349 133.518, 248.656 136.077 C 245.441 140.935, 242.796 142.249, 230.807 144.945 C 222.933 146.715, 219.782 146.307, 216.223 143.056 C 214.450 141.437, 213 139.686, 213 139.163 C 213 138.641, 212.267 137.933, 211.371 137.589 C 208.662 136.549, 210.502 142.655, 213.931 146.084 C 217.870 150.024, 233.432 153.546, 236.317 151.152 C 237.016 150.572, 240.609 149.788, 244.303 149.410 C 250.592 148.766, 251.240 148.461, 254.507 144.611 C 256.426 142.350, 258.648 139.736, 259.445 138.803 C 263.542 134.005, 264.259 130.825, 264.380 116.904 C 264.478 105.730, 264.208 102.871, 262.915 101.356 C 262.043 100.335, 260.710 97.940, 259.954 96.034 C 258.539 92.469, 251.985 85, 250.272 85 C 249.743 85, 248.495 84.100, 247.500 83 C 246.498 81.893, 244.420 81, 242.845 81 C 239.090 81, 239.170 78.752, 242.977 77.315 C 244.615 76.696, 246.910 74.573, 248.076 72.595 C 249.243 70.618, 250.513 69, 250.899 69 C 251.926 69, 254 58.125, 254 52.737 C 254 50.183, 253.465 46.835, 252.810 45.297 C 250.748 40.450, 245.712 33, 244.497 33 C 243.855 33, 242.107 31.627, 240.612 29.949 C 238.712 27.817, 237.323 27.080, 235.997 27.501 C 234.954 27.832, 232.750 27.405, 231.100 26.552 C 226.809 24.333, 223.697 24.629, 220.986 27.515 M 107 31 C 107 31.550, 107.900 32, 109 32 C 110.100 32, 111 31.550, 111 31 C 111 30.450, 110.100 30, 109 30 C 107.900 30, 107 30.450, 107 31 M 210 32.864 C 210 34.595, 208.998 36.729, 207.467 38.260 C 205.369 40.359, 204.765 42.275, 203.953 49.420 C 203.414 54.164, 203.236 59.093, 203.558 60.374 C 203.879 61.654, 203.678 65.357, 203.112 68.601 C 202.545 71.845, 201.610 79.900, 201.033 86.500 C 199.924 99.205, 198.829 107.554, 196.248 123 C 194.174 135.412, 194.306 186.292, 196.444 198.500 C 197.215 202.900, 198.113 211.553, 198.439 217.728 C 198.766 223.904, 199.475 230.120, 200.016 231.543 C 200.557 232.966, 201.007 238.038, 201.016 242.815 C 201.040 255.729, 202.745 273.988, 204.077 275.593 C 205.416 277.206, 208.802 277.413, 211 276.016 C 213.531 274.407, 212.652 251.093, 208.944 221.500 C 208.076 214.569, 206.255 169.389, 205.801 143.500 C 205.693 137.385, 207.195 121.402, 208.150 118.500 C 208.693 116.850, 209.542 108.300, 210.038 99.500 C 210.533 90.700, 211.402 81.076, 211.969 78.114 C 212.536 75.151, 213 63.113, 213 51.364 C 213 33.040, 212.787 30, 211.500 30 C 210.516 30, 210 30.985, 210 32.864 M 158.874 40.460 C 158.196 41.137, 150.131 42.693, 143 43.522 C 140.525 43.810, 123.390 44.147, 104.922 44.273 C 73.020 44.489, 71.156 44.400, 67.596 42.500 L 63.848 40.500 62.014 42.750 C 60.838 44.192, 59.082 45, 57.125 45 C 53.364 45, 51.269 48.100, 52.783 51.424 C 53.801 53.658, 60.535 56.405, 62.307 55.310 C 63.438 54.611, 69.631 54.132, 79.250 53.998 C 85.396 53.913, 87.921 52.864, 84.750 51.713 C 84.063 51.464, 88.129 51.314, 93.787 51.380 C 101.453 51.469, 104.295 51.859, 104.944 52.908 C 105.683 54.105, 106.338 54.067, 109.308 52.658 C 111.230 51.746, 113.303 51, 113.915 51 C 114.527 51, 115.980 50.438, 117.144 49.750 C 118.838 48.750, 119.352 48.750, 119.714 49.750 C 120.354 51.517, 122.060 51.300, 123.549 49.263 C 124.724 47.657, 124.958 47.649, 126.660 49.150 C 128.872 51.102, 136.622 51.346, 139.500 49.554 C 140.600 48.869, 145.550 47.993, 150.500 47.607 C 155.450 47.222, 161.075 46.732, 163 46.520 C 164.925 46.308, 168.075 46.464, 170 46.867 C 175.013 47.918, 177 47.251, 177 44.519 C 177 42.438, 176.432 42.127, 171.750 41.652 C 168.863 41.359, 164.924 40.831, 162.997 40.479 C 161.071 40.127, 159.215 40.118, 158.874 40.460 M 64.500 51 C 64.840 51.550, 65.316 52, 65.559 52 C 65.802 52, 66 51.550, 66 51 C 66 50.450, 65.523 50, 64.941 50 C 64.359 50, 64.160 50.450, 64.500 51 M 73.245 51.250 C 73.878 53.173, 78 53.450, 78 51.570 C 78 50.549, 77.097 50, 75.417 50 C 73.797 50, 72.987 50.466, 73.245 51.250 M 86.200 81.200 C 85.540 81.860, 84.964 83.098, 84.921 83.950 C 84.873 84.893, 84.652 85.033, 84.356 84.306 C 84.089 83.650, 83.225 83.360, 82.435 83.663 C 80.580 84.375, 80.548 90.380, 82.391 91.910 C 83.156 92.545, 84.024 94.287, 84.319 95.782 C 84.837 98.403, 85.775 102.246, 88.095 111.250 C 88.698 113.588, 89.531 118.875, 89.946 123 C 90.901 132.480, 92.401 135.709, 96.239 136.553 C 99.353 137.236, 108 135.314, 108 133.937 C 108 133.496, 109.013 132.824, 110.250 132.444 C 118.044 130.053, 128 123.657, 128 121.042 C 128 119.431, 123.401 119.812, 121.965 121.542 C 121.108 122.575, 120.353 122.753, 119.680 122.080 C 119.007 121.407, 120.013 119.624, 122.725 116.682 C 128.325 110.608, 129.058 108.905, 129.181 101.700 C 129.322 93.438, 126.034 87, 121.674 87 C 120.565 87, 118.789 86.214, 117.728 85.253 C 116.146 83.822, 113.876 83.506, 105.149 83.503 C 96.620 83.501, 94.008 83.152, 92.027 81.750 C 89.116 79.689, 87.832 79.568, 86.200 81.200 M 232.638 85.500 C 232.955 86.325, 233.391 87, 233.607 87 C 233.823 87, 234 86.325, 234 85.500 C 234 84.675, 233.564 84, 233.031 84 C 232.499 84, 232.322 84.675, 232.638 85.500 M 98.648 92.343 L 94.795 94.263 95.432 100.881 C 96.356 110.476, 98.288 126.446, 98.571 126.824 C 99.858 128.540, 111 118.259, 111 115.355 C 111 114.702, 111.364 114.017, 111.808 113.833 C 113.031 113.329, 118.848 104.531, 120.051 101.365 C 121.673 97.099, 120.451 94.224, 116.232 92.385 C 110.867 90.046, 103.293 90.028, 98.648 92.343 M 204.079 92.583 C 204.127 93.748, 204.364 93.985, 204.683 93.188 C 204.972 92.466, 204.936 91.603, 204.604 91.271 C 204.272 90.939, 204.036 91.529, 204.079 92.583 M 203.750 98.575 C 203.338 98.992, 203.014 102.071, 203.030 105.417 C 203.054 110.046, 203.305 111.081, 204.083 109.746 C 205.229 107.776, 204.920 97.391, 203.750 98.575 M 200.158 127 C 200.158 128.375, 200.385 128.938, 200.662 128.250 C 200.940 127.563, 200.940 126.438, 200.662 125.750 C 200.385 125.063, 200.158 125.625, 200.158 127 M 199.176 140.882 C 198.403 141.365, 197.987 143.008, 198.176 144.828 C 198.414 147.123, 198.849 147.727, 199.824 147.118 C 200.597 146.635, 201.013 144.992, 200.824 143.172 C 200.586 140.877, 200.151 140.273, 199.176 140.882 M 124 151.951 C 123.175 152.511, 120.869 152.976, 118.876 152.985 C 116.882 152.993, 113.338 153.675, 111 154.500 C 108.662 155.325, 105.343 156.016, 103.624 156.035 C 101.906 156.055, 99.375 156.714, 98 157.500 C 96.625 158.286, 93.194 158.945, 90.376 158.965 C 87.557 158.984, 83.338 159.675, 81 160.500 C 78.662 161.325, 74.893 162.003, 72.624 162.007 C 68.630 162.013, 65.090 163.685, 61.635 167.195 C 60.076 168.780, 60.111 169.025, 62.172 170.945 C 64.748 173.345, 67.198 173.547, 70.285 171.613 C 71.503 170.849, 74.975 169.659, 78 168.967 C 81.025 168.275, 84.504 166.929, 85.731 165.975 C 87.374 164.699, 89.137 164.374, 92.415 164.743 C 95.759 165.120, 97.692 164.744, 100.184 163.232 C 102.433 161.867, 104.547 161.381, 106.752 161.723 C 108.808 162.042, 110.909 161.634, 112.467 160.614 C 113.821 159.726, 116.430 159, 118.265 159 C 120.099 159, 122.128 158.472, 122.773 157.827 C 123.616 156.984, 124.587 156.946, 126.223 157.692 C 127.514 158.280, 129.438 158.382, 130.664 157.928 C 133.767 156.781, 145.235 158.601, 146.592 160.457 C 147.213 161.306, 148.409 162, 149.250 162 C 151.842 162, 156.433 173.561, 159.090 186.778 C 160.664 194.608, 161.140 215.247, 159.821 218.433 C 158.879 220.707, 158.875 221.458, 159.802 221.767 C 162.166 222.555, 160.068 255.275, 157.484 257.915 C 155.734 259.702, 140.969 259.646, 136.288 257.834 C 134.522 257.150, 132.722 256.945, 132.289 257.378 C 131.314 258.353, 137.477 264, 139.516 264 C 140.332 264, 141 264.444, 141 264.987 C 141 266.869, 148.300 269.125, 152.237 268.460 C 154.671 268.049, 156 268.208, 156 268.912 C 156 269.510, 157.491 270, 159.313 270 C 163.512 270, 167.174 266.203, 168.960 260 C 170.780 253.678, 172.056 228.117, 171.381 211.500 C 170.720 195.209, 167.810 176.333, 165.271 171.865 C 164.297 170.150, 162.825 167.493, 162 165.959 C 159.663 161.615, 154.137 156, 152.198 156 C 151.234 156, 149.557 155.387, 148.473 154.638 C 145.210 152.385, 126.403 150.320, 124 151.951 M 51 158.820 C 45.109 161.490, 43.835 163.892, 46.384 167.530 C 48.907 171.133, 50.214 184.183, 50.936 213 C 51.339 229.116, 52.123 242.804, 52.740 244.500 C 53.339 246.150, 54.558 251.100, 55.449 255.500 C 58.049 268.344, 60.091 276.438, 60.958 277.332 C 61.401 277.790, 62.748 277.565, 63.951 276.832 C 65.940 275.620, 66.070 275.004, 65.391 270 C 64.981 266.975, 64.589 261.575, 64.522 258 C 64.454 254.425, 63.447 247, 62.284 241.500 C 60.623 233.648, 60.317 229.835, 60.861 223.750 C 61.670 214.698, 60.451 188.947, 58.838 181 C 58.224 177.975, 57.515 171.563, 57.261 166.750 C 56.831 158.577, 56.659 158.005, 54.651 158.070 C 53.468 158.109, 51.825 158.446, 51 158.820 M 199.651 184.468 C 199.341 185.275, 199.518 186.202, 200.044 186.527 C 200.570 186.852, 201 186.191, 201 185.059 C 201 182.644, 200.444 182.401, 199.651 184.468 M 88.300 199.263 C 87.860 199.958, 86.150 200.980, 84.500 201.534 C 81.596 202.509, 81.490 202.762, 81.199 209.495 C 81.004 213.996, 81.419 217.692, 82.375 219.974 C 83.187 221.913, 84.089 225.235, 84.380 227.356 C 85.110 232.678, 87.581 236.200, 90.313 235.811 C 92.427 235.510, 92.489 235.152, 92.180 225 C 91.747 210.752, 93.731 206, 100.115 206 C 102.663 206, 108.282 211.673, 110.989 216.978 C 114.735 224.320, 112.309 235.245, 106.458 237.386 C 101.948 239.037, 95.109 243.307, 94.512 244.844 C 94.225 245.584, 95.390 247.496, 97.101 249.094 C 102.593 254.224, 111.560 252.802, 117.283 245.894 C 118.778 244.090, 120 241.513, 120 240.167 C 120 238.821, 121 235.718, 122.221 233.271 L 124.443 228.823 122.221 224.964 C 121 222.841, 120 220.121, 120 218.920 C 120 216.455, 116.323 210, 114.918 210 C 114.413 210, 114 209.578, 114 209.062 C 114 206.971, 107.798 201.533, 103.591 199.936 C 99.642 198.437, 98.776 198.403, 96.364 199.655 C 93.958 200.903, 93.517 200.889, 92.762 199.539 C 91.719 197.676, 89.395 197.532, 88.300 199.263 M 164.495 210.176 C 164.118 212.183, 164.118 214.796, 164.494 215.982 C 165.147 218.039, 165.242 218.054, 166.557 216.319 C 168.346 213.959, 168.359 210.873, 166.590 208.454 C 165.264 206.641, 165.139 206.744, 164.495 210.176 M 204 253.500 C 204 254.325, 204.675 255, 205.500 255 C 206.325 255, 207 254.325, 207 253.500 C 207 252.675, 206.325 252, 205.500 252 C 204.675 252, 204 252.675, 204 253.500" stroke="none" fill="black" fill-rule="evenodd"/>
</svg>