<svg xmlns="http://www.w3.org/2000/svg" width="300" height="300" viewBox="0 0 300 300" version="1.1">
	<path d="M 140.042 42.115 C 136.919 44.019, 136.750 44.344, 138.292 45.472 C 140.492 47.080, 140.451 48.237, 138.144 49.678 C 137.123 50.315, 136.031 52.421, 135.717 54.358 C 135.403 56.294, 133.333 60.607, 131.117 63.943 C 128.902 67.278, 126.792 71.591, 126.429 73.527 C 126.066 75.464, 124.808 78.454, 123.634 80.172 C 121.759 82.918, 120.349 83.566, 112 85.527 C 106.775 86.754, 98.118 88.341, 92.761 89.055 C 84.747 90.123, 82.916 90.688, 82.421 92.248 C 82.073 93.345, 82.507 94.903, 83.451 95.946 C 85.386 98.083, 90.646 98.007, 104.432 95.641 C 113.816 94.030, 115.874 94.242, 113.904 96.615 C 113.248 97.406, 112.197 100.629, 111.569 103.776 L 110.427 109.500 105.243 109.801 C 102.392 109.967, 99.195 109.639, 98.137 109.073 C 96.653 108.279, 95.639 108.496, 93.699 110.022 C 92.316 111.110, 90.401 112, 89.444 112 C 87.869 112, 87.776 112.784, 88.468 120.250 C 88.889 124.787, 89.356 129.884, 89.505 131.575 C 89.655 133.266, 89.464 137.679, 89.081 141.382 C 88.507 146.926, 88.660 148.279, 89.942 149.040 C 91.190 149.780, 91.240 150.135, 90.192 150.826 C 88.633 151.855, 88.773 160.053, 90.498 168.689 C 91.528 173.851, 91.929 174.500, 94.079 174.500 C 95.828 174.500, 96.589 173.876, 96.820 172.250 C 96.995 171.012, 96.647 170, 96.045 170 C 95.274 170, 95.133 165.639, 95.567 155.250 C 95.905 147.137, 96.293 135.078, 96.429 128.451 C 96.565 121.824, 97.147 115.560, 97.723 114.531 C 98.727 112.736, 98.826 112.749, 100.126 114.830 C 101.699 117.349, 103 117.652, 103 115.500 C 103 114.675, 103.723 114, 104.607 114 C 105.692 114, 106.007 114.538, 105.579 115.655 C 105.194 116.657, 105.778 118.200, 107.057 119.561 C 108.714 121.324, 108.949 122.227, 108.143 123.733 C 107.577 124.789, 106.803 129.093, 106.422 133.296 C 105.855 139.552, 106.031 141.398, 107.388 143.469 C 109.125 146.120, 111.413 146.759, 112.554 144.913 C 112.923 144.315, 112.725 143.325, 112.113 142.713 C 110.575 141.175, 110.720 134.171, 112.427 127.620 C 114.510 119.623, 115.436 118.355, 119.712 117.648 C 125.689 116.660, 126.855 116.861, 128.045 119.083 C 128.928 120.734, 128.816 121.546, 127.505 122.995 C 126.255 124.376, 125.899 126.495, 126.049 131.661 C 126.158 135.423, 125.933 139.441, 125.549 140.590 C 125.012 142.196, 125.776 143.644, 128.839 146.833 C 132.386 150.524, 133.198 150.916, 136.164 150.370 C 141.205 149.443, 144.174 147.236, 143.811 144.687 C 143.534 142.741, 142.895 142.500, 138 142.500 L 132.500 142.500 132.208 134.762 C 131.887 126.252, 133.079 120.359, 135.802 116.996 C 137.197 115.273, 138.986 114.691, 144.152 114.276 C 148.509 113.926, 150.963 114.131, 151.428 114.884 C 152.424 116.495, 152.541 143.200, 151.587 151.145 C 150.859 157.209, 150.979 157.979, 152.957 159.957 C 155.131 162.131, 155.232 164.718, 153.125 164.250 C 152.490 164.109, 152 165.281, 152 166.941 C 152 170.355, 151.051 171.114, 145.537 172.113 C 143.316 172.515, 136.100 174.025, 129.500 175.470 C 122.900 176.914, 113.727 178.737, 109.115 179.522 C 100.019 181.068, 95.694 183.170, 96.200 185.798 C 96.846 189.157, 108.206 189.206, 116.797 185.887 C 120.401 184.495, 121.646 184.810, 123.455 187.571 C 125.077 190.047, 125.050 190.224, 122.732 192.372 C 121.036 193.944, 120.146 196.121, 119.716 199.748 C 119.381 202.577, 118.424 206.213, 117.590 207.826 C 116.263 210.393, 115.348 210.849, 110.286 211.465 C 107.104 211.853, 102.634 212.986, 100.354 213.983 C 98.074 214.980, 94.817 216.101, 93.116 216.475 C 91.415 216.848, 89.766 217.569, 89.452 218.077 C 89.139 218.585, 87.889 219, 86.676 219 C 83.471 219, 75.771 223.386, 74.916 225.698 C 73.807 228.695, 75.339 230.344, 78.639 229.707 C 81.842 229.088, 99.447 222.883, 102.518 221.291 C 103.608 220.726, 106.188 219.959, 108.250 219.586 C 111.710 218.962, 112 219.091, 112 221.255 C 112 222.545, 111.577 224.028, 111.059 224.550 C 110.542 225.073, 108.832 228.425, 107.259 232 C 103.356 240.872, 100.854 244.805, 98.763 245.352 C 96.173 246.029, 96.352 251.660, 98.991 252.497 C 101.635 253.336, 102.662 252.580, 104.851 248.186 C 105.861 246.159, 107.545 242.982, 108.594 241.126 C 110.015 238.610, 110.182 237.636, 109.250 237.293 C 108.563 237.040, 108 236.141, 108 235.294 C 108 234.117, 108.317 234.018, 109.348 234.874 C 110.902 236.164, 112.829 234.339, 114.807 229.703 C 116.321 226.153, 116.308 226, 114.500 226 C 113.675 226, 113 225.550, 113 225 C 113 223.705, 114.701 223.707, 115.502 225.003 C 115.912 225.666, 116.799 225.643, 118.125 224.933 C 120.551 223.635, 123.190 225.342, 122.308 227.639 C 121.647 229.363, 127.087 235.430, 131.250 237.611 C 132.762 238.403, 134 239.684, 134 240.458 C 134 241.232, 134.792 242.116, 135.759 242.423 C 136.726 242.731, 137.964 243.947, 138.509 245.127 C 139.394 247.043, 141.868 247.605, 141.250 245.750 C 140.892 244.675, 142.805 244.825, 145.096 246.051 C 146.443 246.772, 146.972 247.950, 146.780 249.801 C 146.524 252.271, 147.221 252.857, 155 256.708 C 164.401 261.363, 170 262.255, 170 259.099 C 170 257.381, 165.539 253.846, 160.842 251.840 C 154 248.919, 122 220.940, 122 217.879 C 122 217.395, 122.805 217, 123.790 217 C 125.931 217, 145.072 211.124, 146.500 210.028 C 147.050 209.606, 149.300 208.937, 151.500 208.541 C 153.700 208.145, 156.063 207.356, 156.750 206.788 C 158.459 205.375, 158.321 202.511, 156.469 200.974 C 155.211 199.930, 153.506 200.175, 146.900 202.352 C 142.479 203.808, 138.068 205, 137.097 205 C 136.127 205, 135.025 205.308, 134.648 205.685 C 133.585 206.748, 126.716 208.942, 125.944 208.465 C 125.565 208.231, 126.140 205.443, 127.222 202.270 C 128.304 199.096, 129.429 193.505, 129.722 189.845 C 130.246 183.301, 130.308 183.181, 133.378 182.718 C 135.095 182.460, 138.975 181.247, 142 180.024 C 149.997 176.791, 151.614 176.553, 152.362 178.501 C 152.716 179.425, 152.737 180.617, 152.407 181.151 C 152.077 181.684, 152.338 183.403, 152.987 184.970 C 153.798 186.926, 153.855 188.403, 153.169 189.685 C 152.023 191.825, 153.345 195, 155.381 195 C 158.546 195, 159.109 190.648, 158.941 167.465 C 158.850 154.834, 159.101 136.802, 159.500 127.394 C 160.458 104.760, 160.973 105.663, 147.406 106.165 L 137 106.551 137 101.847 C 137 99.260, 137.592 96.548, 138.317 95.821 C 139.041 95.095, 140.400 93.327, 141.338 91.893 C 142.889 89.521, 143.993 89.173, 153.567 88.039 C 162.937 86.928, 164.267 86.522, 165.700 84.336 C 167.161 82.106, 167.165 81.736, 165.741 80.312 C 164.385 78.956, 163.114 78.895, 156.337 79.857 C 142.196 81.865, 127 82.462, 127 81.009 C 127 80.302, 129.448 76.074, 132.440 71.612 C 135.432 67.150, 138.377 62.375, 138.983 61 C 139.590 59.625, 140.735 57.375, 141.528 56 C 142.321 54.625, 142.977 52.247, 142.985 50.715 C 142.993 49.183, 143.724 46.824, 144.610 45.473 C 146.142 43.135, 145.953 39.996, 144.281 40.004 C 143.852 40.006, 141.944 40.956, 140.042 42.115 M 102.607 55.582 C 101.256 59.102, 103.318 68.962, 106.793 75.605 C 107.339 76.647, 108.274 78.737, 108.871 80.250 C 110.080 83.310, 111.746 83.825, 112.668 81.423 C 113.264 79.869, 110.341 69.399, 108.795 67.550 C 108.358 67.028, 108 64.635, 108 62.234 C 108 57.340, 106.609 54, 104.572 54 C 103.825 54, 102.941 54.712, 102.607 55.582 M 207.690 76.097 C 205.595 76.590, 202.979 77.476, 201.876 78.066 C 200.593 78.753, 199.446 78.796, 198.686 78.185 C 198.034 77.660, 196.069 76.925, 194.320 76.551 C 191.709 75.993, 190.937 76.248, 190.014 77.974 C 189.395 79.130, 189.182 80.997, 189.539 82.123 C 189.896 83.249, 190.187 91.557, 190.184 100.585 C 190.180 114.047, 190.433 117, 191.590 117 C 192.434 117, 193 118.021, 193 119.544 C 193 121.280, 192.518 121.994, 191.484 121.794 C 190.220 121.549, 189.879 123.497, 189.433 133.500 C 188.339 158.062, 189.002 190.754, 190.615 191.786 C 191.774 192.528, 193.510 197, 192.639 197 C 192.366 197, 191.436 196.293, 190.571 195.429 C 189.143 194, 188.993 194.023, 188.921 195.679 C 188.649 201.980, 189.279 210.645, 190.069 211.450 C 190.581 211.973, 190.993 212.873, 190.985 213.450 C 190.976 214.028, 190.533 213.825, 190 213 C 189.316 211.941, 189.033 213.263, 189.038 217.500 C 189.043 221.928, 189.557 224.155, 191 226 C 193.304 228.945, 193.814 232.920, 191.658 231.131 C 189.696 229.503, 188.956 230.823, 189.543 234.904 C 190.215 239.564, 192.115 262.828, 192.063 265.746 C 192.041 267.013, 192.563 267.885, 193.262 267.746 C 193.977 267.604, 194.391 268.344, 194.243 269.500 C 193.142 278.065, 193.215 280.021, 194.667 280.833 C 195.503 281.302, 196.502 283.218, 196.885 285.092 C 197.703 289.094, 198.939 289.288, 200.960 285.731 C 202.169 283.603, 202.215 282.331, 201.227 278.331 C 200.053 273.576, 198.970 262.285, 197.005 234.316 C 196.159 222.273, 195.996 204.354, 196.417 169.673 L 196.500 162.846 200.700 163.477 C 204.963 164.117, 209.095 163.174, 219.941 159.084 C 229.304 155.554, 236.751 146.566, 238.901 136.201 C 240.642 127.809, 240.285 121.279, 237.849 116.945 C 235.205 112.241, 231.720 110.707, 223.410 110.590 C 216.920 110.499, 215.509 109.483, 218.464 107.029 C 221.919 104.163, 227.464 94.266, 228.279 89.515 C 230.389 77.206, 228.795 74.939, 218.139 75.100 C 214.488 75.156, 209.786 75.604, 207.690 76.097 M 212.930 82.954 C 211.045 84.087, 204.544 84.347, 200.796 83.439 C 198.512 82.886, 197.998 83.158, 197.488 85.190 C 196.995 87.154, 196.363 110.054, 195.758 147.872 C 195.685 152.428, 196.038 153.526, 198.086 155.100 C 206.671 161.699, 228.297 150.437, 231.881 137.500 C 233.083 133.159, 233.325 125.813, 232.381 122.293 C 231.481 118.937, 226.519 117.710, 218.863 118.952 C 215.364 119.520, 210.764 119.988, 208.643 119.992 C 205.505 119.999, 204.901 119.699, 205.404 118.389 C 205.879 117.153, 205.612 116.946, 204.261 117.500 C 201.149 118.776, 199.585 118.543, 199.214 116.747 C 199.003 115.725, 199.613 114.723, 200.676 114.345 C 201.679 113.988, 203.176 113.121, 204.002 112.417 C 204.828 111.714, 206.682 110.527, 208.122 109.780 C 213.209 107.141, 218.610 99.622, 220.540 92.491 C 221.841 87.685, 222.063 85.321, 221.327 84.143 C 220.145 82.256, 215.246 81.562, 212.930 82.954 M 125.015 90.874 C 123.648 91.264, 122.012 92.689, 121.379 94.042 C 119.426 98.216, 117.772 103.347, 117.255 106.837 L 116.761 110.174 122.630 109.473 C 125.859 109.087, 128.869 108.432, 129.320 108.016 C 129.771 107.600, 130.446 104.164, 130.820 100.380 C 131.396 94.551, 131.844 93.349, 133.750 92.513 C 134.988 91.970, 136 91.267, 136 90.950 C 136 90.105, 127.908 90.049, 125.015 90.874 M 76.364 92.493 C 76.018 93.396, 76.214 94.614, 76.800 95.200 C 78.324 96.724, 81.210 95.331, 80.812 93.265 C 80.369 90.963, 77.165 90.407, 76.364 92.493 M 86.500 95 C 86.160 95.550, 86.584 96, 87.441 96 C 88.298 96, 89 95.550, 89 95 C 89 94.450, 88.577 94, 88.059 94 C 87.541 94, 86.840 94.450, 86.500 95 M 122 114 C 122 114.550, 122.477 115, 123.059 115 C 123.641 115, 123.840 114.550, 123.500 114 C 123.160 113.450, 122.684 113, 122.441 113 C 122.198 113, 122 113.450, 122 114 M 223.500 115 C 223.840 115.550, 225.329 115.993, 226.809 115.985 C 228.914 115.973, 229.173 115.758, 228 115 C 226.024 113.723, 222.711 113.723, 223.500 115 M 210.500 116 C 210.160 116.550, 210.557 117, 211.382 117 C 212.207 117, 213.160 116.550, 213.500 116 C 213.840 115.450, 213.443 115, 212.618 115 C 211.793 115, 210.840 115.450, 210.500 116 M 217 115.906 C 217 116.405, 217.900 116.577, 219 116.290 C 220.100 116.002, 221 115.594, 221 115.383 C 221 115.173, 220.100 115, 219 115 C 217.900 115, 217 115.408, 217 115.906 M 91.079 117.583 C 91.127 118.748, 91.364 118.985, 91.683 118.188 C 91.972 117.466, 91.936 116.603, 91.604 116.271 C 91.272 115.939, 91.036 116.529, 91.079 117.583 M 230.655 143.829 C 228.554 146.150, 228.341 148.792, 230.392 147.090 C 231.571 146.111, 233.323 142, 232.561 142 C 232.423 142, 231.565 142.823, 230.655 143.829 M 123.500 155.586 C 120.750 156.393, 116.700 157.553, 114.500 158.162 C 106.248 160.448, 104 161.440, 104 162.795 C 104 163.561, 104.900 164.423, 106 164.710 C 107.100 164.998, 108 165.631, 108 166.117 C 108 167.321, 115.732 167.243, 116.481 166.030 C 117.253 164.782, 129.914 161, 133.323 161 C 136.549 161, 138.657 157.790, 136.568 156.057 C 134.334 154.202, 128.883 154.006, 123.500 155.586 M 122 182 C 122 182.550, 122.450 183, 123 183 C 123.550 183, 124 182.550, 124 182 C 124 181.450, 123.550 181, 123 181 C 122.450 181, 122 181.450, 122 182 M 190.667 202.667 C 190.300 203.033, 190 203.798, 190 204.367 C 190 204.993, 190.466 204.934, 191.183 204.217 C 191.834 203.566, 192.134 202.801, 191.850 202.517 C 191.566 202.232, 191.033 202.300, 190.667 202.667 M 191 218 C 191 219.867, 191.267 220.133, 192.200 219.200 C 193.133 218.267, 193.133 217.733, 192.200 216.800 C 191.267 215.867, 191 216.133, 191 218 M 82.813 224.683 C 83.534 224.972, 84.397 224.936, 84.729 224.604 C 85.061 224.272, 84.471 224.036, 83.417 224.079 C 82.252 224.127, 82.015 224.364, 82.813 224.683 M 191.667 234.667 C 191.300 235.033, 191 235.798, 191 236.367 C 191 236.993, 191.466 236.934, 192.183 236.217 C 192.834 235.566, 193.134 234.801, 192.850 234.517 C 192.566 234.232, 192.033 234.300, 191.667 234.667 M 149.733 251.124 C 150.412 251.808, 151.219 252.115, 151.526 251.807 C 151.834 251.499, 151.279 250.940, 150.293 250.564 C 148.868 250.022, 148.753 250.136, 149.733 251.124 M 193.079 252.583 C 193.127 253.748, 193.364 253.985, 193.683 253.188 C 193.972 252.466, 193.936 251.603, 193.604 251.271 C 193.272 250.939, 193.036 251.529, 193.079 252.583" stroke="none" fill="black" fill-rule="evenodd"/>
</svg>