<svg xmlns="http://www.w3.org/2000/svg" width="300" height="300" viewBox="0 0 300 300" version="1.1">
	<path d="M 197 23.417 C 197 24.196, 196.444 25.019, 195.765 25.245 C 194.784 25.572, 194.784 26.891, 195.765 31.639 C 196.444 34.929, 197 38.741, 197 40.110 C 197 41.480, 197.487 43.087, 198.082 43.682 C 198.678 44.278, 199.576 47.630, 200.078 51.132 C 200.581 54.635, 201.417 59.750, 201.936 62.500 C 202.456 65.250, 202.908 72.533, 202.940 78.685 C 202.973 84.837, 203.446 91.044, 203.992 92.479 C 204.538 93.915, 204.969 98.781, 204.950 103.294 C 204.868 122.878, 204.908 125.042, 205.364 125.780 C 205.628 126.207, 205.231 129.469, 204.481 133.029 C 203.642 137.011, 202.841 150.621, 202.400 168.408 L 201.683 197.316 203.842 196.752 C 205.320 196.365, 206 196.644, 206 197.637 C 206 198.464, 205.247 198.961, 204.250 198.794 C 202.722 198.537, 202.417 199.705, 201.849 208 C 201.491 213.225, 201.423 218.496, 201.698 219.713 C 202.340 222.552, 202.635 227.356, 202.838 238.238 C 202.994 246.662, 203.081 246.968, 205.250 246.738 C 207.238 246.528, 207.517 246.979, 207.643 250.616 C 207.722 252.880, 208.284 255.663, 208.893 256.800 C 210.324 259.473, 210.422 265.201, 209 263 C 208.467 262.175, 208.024 260.262, 208.015 258.750 C 208.007 257.238, 207.484 256, 206.852 256 C 206.029 256, 205.888 258.375, 206.352 264.417 C 207.124 274.466, 207.622 276, 210.107 276 C 211.148 276, 212 276.675, 212 277.500 C 212 278.325, 211.521 279, 210.937 279 C 210.339 279, 210.011 280.424, 210.187 282.250 C 210.442 284.902, 210.976 285.555, 213.086 285.801 C 217.206 286.279, 218.613 283.742, 217.187 278.408 C 216.534 275.968, 215.973 271.165, 215.940 267.736 C 215.908 264.306, 215.428 259.250, 214.875 256.500 C 212.391 244.148, 211.116 218.955, 211.561 191 C 212.011 162.706, 212.711 146.956, 213.556 146.111 C 213.798 145.869, 216.719 146.428, 220.047 147.353 C 225.885 148.976, 226.420 148.961, 235.169 146.907 C 243.721 144.899, 247.244 143.230, 253.045 138.441 C 259.376 133.214, 261.933 122.484, 260.023 109.157 C 259.301 104.121, 258.438 99.999, 258.105 99.999 C 257.772 99.998, 255.925 96.962, 254 93.253 C 252.075 89.543, 249.713 85.918, 248.750 85.197 C 246.222 83.304, 246.449 78.310, 249.101 77.468 C 250.384 77.061, 252.208 74.601, 253.785 71.151 C 255.206 68.043, 256.915 64.951, 257.583 64.280 C 261.021 60.826, 260.316 39.468, 256.535 32.563 C 252.842 25.817, 247.426 23.761, 231.872 23.199 C 222.678 22.867, 219 23.058, 219 23.867 C 219 24.490, 218.438 25.015, 217.750 25.033 C 215.874 25.083, 212 28.615, 212 30.275 C 212 32.334, 215.867 37, 217.573 37 C 218.358 37, 219 36.600, 219 36.111 C 219 35.622, 221.899 34.437, 225.442 33.478 C 232.760 31.497, 239.973 31.810, 244.509 34.305 C 246.154 35.210, 248.287 36.239, 249.250 36.592 C 250.770 37.149, 251 38.663, 251 48.117 C 251 54.102, 250.599 59, 250.109 59 C 249.618 59, 248.471 60.687, 247.558 62.750 C 243.490 71.948, 239.448 76.533, 234.152 77.959 C 227.369 79.786, 225.941 84.138, 231.744 85.299 C 234.576 85.865, 241 90.665, 241 92.214 C 241 92.637, 242.542 95.003, 244.426 97.471 C 246.311 99.940, 248.171 102.981, 248.561 104.230 C 248.951 105.478, 249.746 106.805, 250.328 107.178 C 250.965 107.587, 251.354 111.801, 251.306 117.767 L 251.225 127.678 246.362 132.343 C 243.688 134.908, 240.375 137.261, 239 137.570 C 237.625 137.879, 235.306 138.777, 233.846 139.566 C 232.386 140.355, 228.527 141, 225.270 141 C 220.199 141, 219.001 140.630, 216.924 138.421 C 214.547 135.892, 214.497 135.471, 214.326 116.671 C 214.122 94.282, 212.391 68.534, 210.401 58.292 C 209.630 54.328, 208.995 49.828, 208.989 48.292 C 208.983 46.756, 208.308 43.291, 207.489 40.591 C 206.670 37.891, 206 33.279, 206 30.341 C 206 26.471, 205.621 25, 204.622 25 C 203.865 25, 202.685 24.325, 202 23.500 C 200.423 21.600, 197 21.543, 197 23.417 M 224.667 25.667 C 223.224 27.110, 224.141 28, 227.071 28 C 229.802 28, 229.976 27.833, 228.643 26.500 C 227.025 24.882, 225.724 24.609, 224.667 25.667 M 235 28 C 235 28.550, 235.675 29, 236.500 29 C 237.325 29, 238 28.550, 238 28 C 238 27.450, 237.325 27, 236.500 27 C 235.675 27, 235 27.450, 235 28 M 199 33.059 C 199 34.191, 199.450 34.840, 200 34.500 C 200.550 34.160, 201 33.234, 201 32.441 C 201 31.648, 200.550 31, 200 31 C 199.450 31, 199 31.927, 199 33.059 M 99.642 46.714 C 98.517 48.861, 97.457 49.454, 94.566 49.554 C 92.080 49.641, 90.439 50.356, 89.434 51.791 C 88.621 52.952, 87.313 54.544, 86.527 55.330 C 85.742 56.116, 84.802 57.942, 84.439 59.389 C 84.076 60.835, 83.378 62.266, 82.889 62.568 C 82.400 62.871, 82 63.886, 82 64.824 C 82 65.762, 81.100 68.209, 80 70.261 C 78.764 72.568, 78 75.903, 78 78.996 C 78 81.748, 77.550 84, 77 84 C 76.450 84, 76 84.627, 76 85.393 C 76 86.159, 75.417 87.010, 74.705 87.283 C 73.992 87.557, 71.405 91.767, 68.955 96.640 C 66.505 101.513, 64.275 105.725, 64 106 C 63.725 106.275, 62.629 108.075, 61.564 110 C 58.623 115.319, 51.097 125.433, 44.029 133.567 C 43.079 134.660, 46.424 135.844, 48.032 134.983 C 50.693 133.559, 64.739 118.861, 68.516 113.548 C 70.432 110.853, 72 107.827, 72 106.824 C 72 105.821, 72.900 104.100, 74 103 C 75.100 101.900, 76 100.640, 76 100.199 C 76 98.725, 78.491 94.016, 79.275 94.008 C 79.701 94.004, 80.487 92.987, 81.022 91.750 C 81.557 90.513, 82.431 88.825, 82.964 88 C 84.196 86.090, 87.823 77.752, 89.550 72.859 C 91.548 67.196, 97.696 58.096, 100.337 56.893 C 103.386 55.503, 106 50.982, 106 47.096 C 106 44.471, 105.625 44, 103.532 44 C 101.863 44, 100.603 44.879, 99.642 46.714 M 106 57.545 C 106 61.457, 109.570 65.976, 112.705 66.032 C 113.692 66.049, 115.374 66.724, 116.441 67.532 C 117.509 68.339, 119.148 69, 120.084 69 C 121.020 69, 122.045 69.675, 122.362 70.500 C 122.678 71.325, 123.626 72, 124.469 72 C 125.311 72, 126 72.450, 126 73 C 126 73.550, 126.900 74, 128 74 C 129.100 74, 130 74.340, 130 74.756 C 130 75.172, 131.463 76.101, 133.250 76.820 C 135.037 77.540, 137.175 78.556, 138 79.077 C 140.831 80.867, 148.166 84, 149.524 84 C 150.271 84, 151.152 84.437, 151.482 84.972 C 152.320 86.326, 160.850 90, 163.159 90 C 165.764 90, 166.529 87.452, 164.737 84.742 C 163.204 82.423, 151.959 76, 149.432 76 C 148.644 76, 148 75.583, 148 75.073 C 148 74.564, 145.637 72.974, 142.750 71.540 C 132.890 66.645, 126.500 62.962, 126.167 61.980 C 125.983 61.441, 125.025 61, 124.037 61 C 123.049 61, 119.149 59.433, 115.370 57.519 C 111.592 55.604, 107.938 54.029, 107.250 54.019 C 106.482 54.007, 106 55.366, 106 57.545 M 88.643 96.028 C 85.343 97.017, 82 99.771, 82 101.500 C 82 102.155, 82.840 103.450, 83.866 104.379 C 85.511 105.867, 87.619 106.002, 101.616 105.517 C 110.352 105.215, 118.625 104.987, 120 105.012 C 121.375 105.037, 125.537 104.554, 129.250 103.938 C 134.749 103.027, 136 102.476, 136 100.969 C 136 99.951, 135.495 98.806, 134.878 98.424 C 134.261 98.043, 128.298 97.553, 121.628 97.336 C 114.958 97.119, 105.912 96.504, 101.526 95.971 C 92.473 94.869, 92.513 94.868, 88.643 96.028 M 206.587 121.750 C 207.340 125.912, 207.706 126.627, 208.620 125.713 C 209.558 124.775, 208.055 118, 206.909 118 C 206.300 118, 206.174 119.465, 206.587 121.750 M 130 119.536 C 129.175 119.703, 125.033 120.386, 120.795 121.054 C 116.019 121.806, 112.328 122.977, 111.087 124.134 C 109.985 125.160, 107.934 126, 106.528 126 C 105.123 126, 103.191 126.422, 102.236 126.939 C 98.385 129.021, 88.676 133, 87.446 133 C 86.724 133, 85.990 131.762, 85.816 130.250 C 85.401 126.642, 80.954 125.863, 78.321 128.938 C 77.350 130.072, 76.041 131, 75.413 131 C 74.784 131, 73.084 131.933, 71.635 133.073 C 69.568 134.698, 69 136.013, 69 139.168 C 69 141.381, 69.625 144.386, 70.390 145.846 C 71.154 147.306, 72.257 151.643, 72.840 155.483 C 73.423 159.324, 74.373 162.624, 74.950 162.817 C 75.593 163.031, 76 167.185, 76 173.536 C 76 186.984, 77.574 190.914, 83 191.016 C 84.375 191.042, 86.343 191.702, 87.373 192.482 C 88.404 193.262, 90.429 193.707, 91.873 193.471 C 93.318 193.234, 99 192.317, 104.500 191.433 C 110 190.548, 114.950 189.479, 115.500 189.056 C 116.493 188.293, 132.846 183.507, 140.500 181.740 C 142.700 181.233, 148.775 180.289, 154 179.643 L 163.500 178.469 163.561 175.315 C 163.595 173.580, 164.107 171.562, 164.699 170.830 C 167.158 167.792, 167.936 154.304, 166.286 143.331 C 165.126 135.619, 160.481 127.200, 156.863 126.254 C 155.838 125.986, 155 125.421, 155 125 C 155 122.541, 135.831 118.352, 130 119.536 M 133.802 128.531 C 133.624 128.709, 128.463 129.555, 122.333 130.410 C 112.551 131.774, 110.108 132.536, 102.344 136.641 C 97.480 139.213, 92.482 142.102, 91.238 143.062 C 88.787 144.952, 85.162 144.586, 84.308 142.361 C 84.021 141.613, 83.093 141, 82.246 141 C 80.899 141, 80.807 142.535, 81.517 153.250 C 81.964 159.988, 82.414 169.148, 82.517 173.607 C 82.716 182.183, 83.393 184.516, 85.319 183.266 C 85.969 182.845, 91 182.225, 96.500 181.889 C 106.697 181.266, 119.699 178.836, 123.750 176.795 C 126.697 175.311, 126.987 170.552, 124.074 171.476 C 121.848 172.183, 120.005 169.697, 120.722 166.954 C 121.327 164.643, 117.786 163.492, 115.145 165.142 C 113.532 166.149, 112.454 166.074, 109.332 164.740 C 107.225 163.839, 102.205 162.805, 98.177 162.442 C 93.331 162.006, 90.673 161.312, 90.320 160.391 C 90.026 159.626, 89.235 159, 88.562 159 C 86.870 159, 84.602 154.479, 85.336 152.567 C 85.970 150.914, 89.939 150.433, 91.550 151.815 C 92.073 152.263, 95.875 153.414, 100 154.372 C 104.125 155.331, 109.113 156.587, 111.084 157.163 C 118.089 159.211, 118.540 158.640, 118.190 148.174 C 117.889 139.181, 119.171 132, 121.078 132 C 121.585 132, 122 132.450, 122 133 C 122 134.373, 125.338 134.262, 126.758 132.842 C 127.634 131.966, 128.283 131.990, 129.431 132.943 C 130.743 134.031, 130.761 134.562, 129.567 136.871 C 127.926 140.043, 126.448 156.687, 127.510 160.031 C 128.224 162.281, 128.308 162.299, 129.627 160.496 C 130.382 159.463, 131 156.904, 131 154.809 C 131 152.714, 131.420 151, 131.933 151 C 132.446 151, 133.130 150.166, 133.454 149.146 C 133.777 148.127, 135.606 146.450, 137.518 145.421 C 140.971 143.561, 141.008 143.563, 143.203 145.759 C 145.260 147.815, 145.319 148.230, 144.061 151.734 C 142.690 155.555, 140.170 159.389, 136.443 163.327 C 134.023 165.884, 130.588 172.922, 131.376 173.710 C 131.677 174.011, 133.940 173.749, 136.405 173.128 C 138.869 172.508, 144.275 172, 148.417 172 C 155.746 172, 155.990 171.921, 157.474 169.050 C 159.375 165.374, 159.423 159.075, 157.604 151.960 C 156.837 148.957, 155.912 144.672, 155.548 142.439 C 154.762 137.602, 151.945 134.120, 146.500 131.254 C 142.992 129.407, 134.703 127.630, 133.802 128.531 M 208.079 141.583 C 208.127 142.748, 208.364 142.985, 208.683 142.188 C 208.972 141.466, 208.936 140.603, 208.604 140.271 C 208.272 139.939, 208.036 140.529, 208.079 141.583 M 83.743 203.750 C 81.800 205.262, 79.472 206.950, 78.569 207.500 C 77.077 208.409, 77.030 210.101, 78.047 226 C 78.662 235.625, 79.508 244.850, 79.926 246.500 C 80.344 248.150, 80.322 252.869, 79.878 256.986 C 79.382 261.595, 79.442 264.842, 80.036 265.436 C 80.566 265.966, 81 268.528, 81 271.129 C 81 273.998, 81.590 276.447, 82.500 277.357 C 83.325 278.182, 84 279.313, 84 279.870 C 84 280.426, 84.338 281.079, 84.750 281.320 C 86.061 282.085, 107.191 280.139, 115.500 278.487 C 119.900 277.613, 124.850 276.633, 126.500 276.310 C 128.150 275.988, 129.725 275.439, 130 275.091 C 131.038 273.779, 136.204 272, 138.976 272 C 142.290 272, 145.252 269.510, 144.771 267.129 C 144.501 265.794, 143.363 265.562, 138.471 265.843 C 135.187 266.032, 130.043 266.820, 127.040 267.593 C 124.037 268.367, 120.292 269, 118.718 269 C 117.145 269, 115.182 269.675, 114.357 270.500 C 112.586 272.271, 105.460 271.565, 102.921 269.367 C 100.715 267.457, 98.287 267.660, 94.368 270.082 C 91.790 271.675, 90.909 271.851, 90.614 270.832 C 88.508 263.562, 88.002 260.164, 88.014 253.384 C 88.030 244.130, 88.624 241.358, 90.769 240.535 C 92.396 239.911, 94.242 241.799, 93.375 243.202 C 92.510 244.601, 104.988 244.057, 107.863 242.571 C 110.248 241.337, 119.500 239.789, 132 238.531 C 133.925 238.337, 137.714 237.669, 140.420 237.047 C 145.563 235.864, 150.504 236.389, 151.649 238.241 C 153.312 240.932, 154.693 256.120, 153.995 264.052 C 153.227 272.794, 154.040 276.030, 156.991 275.969 C 157.821 275.951, 159.377 274.736, 160.448 273.268 C 162.216 270.845, 162.397 268.841, 162.405 251.549 C 162.411 239.298, 161.966 230.894, 161.159 228 C 158.859 219.753, 155.656 212.524, 153.315 210.298 C 152.042 209.087, 151 207.724, 151 207.269 C 151 206.815, 148.214 205.616, 144.809 204.605 C 139.426 203.007, 137.903 202.927, 133.144 203.992 C 130.133 204.666, 125.157 205.615, 122.085 206.101 C 119.013 206.587, 115.375 207.176, 114 207.409 C 109.249 208.215, 104.488 209.689, 101.300 211.341 C 99.539 212.254, 97.396 213, 96.536 213 C 95.676 213, 94.065 213.563, 92.956 214.250 C 91.318 215.265, 90.780 215.244, 90.092 214.139 C 89.037 212.444, 89.769 209.437, 91.608 207.910 C 93.666 206.202, 93.308 204.432, 90.535 202.615 C 87.439 200.586, 87.907 200.508, 83.743 203.750 M 133.902 213.431 C 133.665 213.669, 129.427 214.387, 124.485 215.027 C 110.464 216.844, 101.176 219.918, 96.810 224.186 C 93.609 227.314, 91.506 227.762, 90.638 225.500 C 89.342 222.122, 88.001 224.295, 88.015 229.750 C 88.034 236.795, 89.102 239.041, 91.359 236.784 C 92.207 235.936, 95.510 234.937, 98.700 234.563 C 101.890 234.189, 105.850 233.278, 107.500 232.538 C 111.791 230.614, 127.552 228.619, 142 228.171 C 148.306 227.975, 152.900 226.420, 150.306 225.359 C 149.650 225.091, 148.569 223.212, 147.905 221.185 C 146.039 215.491, 143.190 213.037, 138.417 213.017 C 136.171 213.008, 134.139 213.194, 133.902 213.431 M 81.197 232.320 C 81.318 234.421, 81.774 236.360, 82.209 236.629 C 83.352 237.336, 83.153 231.777, 81.972 230 C 81.234 228.890, 81.033 229.494, 81.197 232.320 M 113 234.668 C 113.825 235.015, 114.872 235.795, 115.326 236.400 C 115.857 237.107, 116.006 236.965, 115.743 236 C 115.518 235.175, 114.472 234.395, 113.417 234.268 C 112.070 234.104, 111.946 234.223, 113 234.668 M 121.667 234.667 C 121.300 235.033, 121 235.798, 121 236.367 C 121 236.993, 121.466 236.934, 122.183 236.217 C 122.834 235.566, 123.134 234.801, 122.850 234.517 C 122.566 234.232, 122.033 234.300, 121.667 234.667 M 205 240.500 C 205 242.425, 205.450 244, 206 244 C 206.550 244, 207 242.425, 207 240.500 C 207 238.575, 206.550 237, 206 237 C 205.450 237, 205 238.575, 205 240.500 M 82 255.941 C 82 257.073, 82.450 258, 83 258 C 83.550 258, 84 257.352, 84 256.559 C 84 255.766, 83.550 254.840, 83 254.500 C 82.450 254.160, 82 254.809, 82 255.941 M 83 266.441 C 83 267.298, 83.450 268, 84 268 C 84.550 268, 85 267.577, 85 267.059 C 85 266.541, 84.550 265.840, 84 265.500 C 83.450 265.160, 83 265.584, 83 266.441 M 111 275 C 111 275.550, 111.900 276, 113 276 C 114.100 276, 115 275.550, 115 275 C 115 274.450, 114.100 274, 113 274 C 111.900 274, 111 274.450, 111 275" stroke="none" fill="black" fill-rule="evenodd"/>
</svg>