<svg xmlns="http://www.w3.org/2000/svg" width="300" height="300" viewBox="0 0 300 300" version="1.1">
	<path d="M 229.631 14.512 C 228.799 15.344, 227.835 18.156, 227.487 20.762 C 227.140 23.368, 226.465 26.625, 225.989 28 C 225.512 29.375, 224.830 32.412, 224.473 34.749 C 223.618 40.348, 217.444 55.162, 215.303 56.750 C 212.735 58.655, 211 58.248, 211 55.741 C 211 54.498, 210.156 52.954, 209.125 52.310 C 206.189 50.476, 200.414 39.193, 198.548 31.643 C 196.882 24.903, 196.888 24.748, 198.926 22.578 C 201.076 20.290, 201.637 17.511, 200.136 16.584 C 198.742 15.722, 191 19.908, 191 21.523 C 191 22.336, 191.675 23, 192.500 23 C 194.589 23, 194.374 23.876, 191.766 25.988 C 189.668 27.687, 189.610 28.061, 190.813 32.148 C 191.517 34.542, 192.538 38.300, 193.081 40.500 C 193.625 42.700, 194.954 45.719, 196.035 47.210 C 197.116 48.700, 198 50.384, 198 50.952 C 198 51.520, 199.337 53.176, 200.972 54.633 C 202.607 56.089, 203.732 57.625, 203.472 58.046 C 203.212 58.467, 199.416 58.565, 195.038 58.265 C 188.806 57.838, 186.558 58.060, 184.687 59.285 C 183.373 60.146, 180.768 60.997, 178.899 61.176 C 176.027 61.450, 175.500 61.887, 175.500 64 C 175.500 66.195, 176.049 66.583, 180 67.183 C 182.475 67.558, 189.597 67.856, 195.827 67.843 C 202.057 67.831, 207.352 68.018, 207.592 68.259 C 209.804 70.471, 212.341 90.503, 210.584 91.882 C 209.988 92.349, 204.463 92.386, 198.307 91.964 C 190.223 91.410, 186.111 91.541, 183.503 92.438 C 178.692 94.092, 176.631 96.263, 177.444 98.824 C 178.220 101.268, 180.277 101.838, 185 100.920 C 190.189 99.911, 208.752 100.344, 209.853 101.500 C 210.895 102.594, 210.182 125.087, 209.047 126.923 C 208.595 127.655, 202.695 128.036, 191.538 128.055 C 182.283 128.071, 173.876 128.531, 172.856 129.077 C 169.910 130.654, 170.561 133, 173.943 133 C 175.771 133, 177.427 133.772, 178.314 135.037 C 179.654 136.950, 180.761 137.074, 196.446 137.055 C 205.634 137.045, 214.805 136.604, 216.826 136.076 C 218.847 135.548, 229.275 134.927, 240 134.695 C 261.339 134.233, 267 133.050, 267 129.051 C 267 126.783, 270.700 127.049, 231.500 126.498 L 216.500 126.287 216.750 118.893 C 216.887 114.827, 217.630 109.700, 218.402 107.500 C 219.798 103.522, 219.837 103.498, 225.541 103.196 C 228.695 103.029, 232.001 103.206, 232.888 103.589 C 236.976 105.359, 248.381 101.492, 249.277 98.034 C 250.183 94.537, 246.914 92.486, 244.416 94.984 C 242.892 96.508, 237.278 96.544, 228.250 95.087 C 219.388 93.657, 219.531 93.795, 219.922 86.998 C 220.033 85.072, 219.661 80.625, 219.096 77.117 C 217.920 69.813, 218.911 66.394, 221.792 67.820 C 222.731 68.285, 228.564 68.752, 234.754 68.857 C 246.460 69.055, 252 67.666, 252 64.533 C 252 62.017, 251.468 61.916, 230.561 60.495 C 222.463 59.944, 221.128 59.082, 223.384 55.862 C 224.273 54.593, 225 52.939, 225 52.185 C 225 51.432, 225.888 49.686, 226.974 48.306 C 228.059 46.926, 229.243 44.155, 229.604 42.149 C 229.965 40.142, 230.711 37.933, 231.261 37.240 C 231.812 36.546, 232.654 33.846, 233.133 31.240 C 233.611 28.633, 234.737 24.143, 235.634 21.263 C 236.953 17.031, 237.025 15.735, 236.010 14.513 C 234.404 12.578, 231.566 12.577, 229.631 14.512 M 201.377 63.460 C 201.034 64.354, 200.969 65.302, 201.233 65.567 C 202.080 66.414, 205.098 64.793, 204.730 63.689 C 204.129 61.887, 202.035 61.744, 201.377 63.460 M 196 64 C 196 64.550, 196.675 65, 197.500 65 C 198.325 65, 199 64.550, 199 64 C 199 63.450, 198.325 63, 197.500 63 C 196.675 63, 196 63.450, 196 64 M 183.500 65 C 183.840 65.550, 184.316 66, 184.559 66 C 184.802 66, 185 65.550, 185 65 C 185 64.450, 184.523 64, 183.941 64 C 183.359 64, 183.160 64.450, 183.500 65 M 93.829 80.498 C 93.279 81.053, 79.824 82.212, 61.215 83.307 C 58.101 83.490, 55.605 85.552, 56.583 87.134 C 56.831 87.535, 56.032 88.565, 54.807 89.422 C 51.290 91.886, 53.770 93.428, 59.675 92.450 C 62.329 92.011, 66.878 91.772, 69.784 91.920 C 72.690 92.068, 75.667 91.691, 76.401 91.082 C 78.996 88.929, 79.932 92.009, 78.964 99.520 C 78.470 103.359, 78.051 111.127, 78.033 116.781 C 78.009 124.133, 77.644 127.161, 76.750 127.407 C 76.063 127.596, 72.156 128.269, 68.069 128.903 C 59.748 130.194, 58 131.183, 58 134.603 C 58 137.467, 61.350 138.582, 66.804 137.534 C 75.073 135.944, 74.468 135.112, 74.776 148.500 C 74.927 155.100, 74.436 164.972, 73.685 170.438 L 72.319 180.377 75.505 183.854 C 77.655 186.200, 79.231 187.125, 80.346 186.697 C 82.463 185.885, 82.478 182.642, 80.373 180.895 C 79.022 179.774, 78.843 178.184, 79.318 171.522 C 80.194 159.232, 81.859 145.960, 83.113 141.279 C 84.449 136.291, 86.090 135.531, 93.512 136.458 C 99.917 137.258, 100.301 137.988, 101.939 152.458 C 103.203 163.630, 104.885 169.607, 109.348 178.785 C 112.684 185.647, 117.731 190.321, 121.261 189.817 C 123.905 189.439, 124.855 186.058, 122.663 184.831 C 120.274 183.494, 115.284 175.578, 114.481 171.850 C 114.084 170.008, 113.126 167.262, 112.353 165.748 C 110.481 162.085, 108.415 141.185, 109.789 139.811 C 112.109 137.491, 124.374 149.326, 128.039 157.423 C 132.257 166.741, 136.001 178.440, 136.011 182.335 C 136.017 184.626, 136.292 188.132, 136.622 190.127 C 137.134 193.225, 137.534 193.674, 139.361 193.204 C 141.150 192.743, 141.302 192.895, 140.293 194.127 C 139.388 195.232, 139.188 203.234, 139.493 226.051 C 139.873 254.528, 140.016 256.500, 141.695 256.500 C 144.995 256.500, 146.249 249.862, 146.702 230 C 147.481 195.828, 143.566 170.373, 134.628 151.500 C 130.005 141.739, 121.847 133.593, 114.577 131.479 C 108.341 129.666, 108.027 129.017, 107.803 117.471 C 107.709 112.637, 108.176 109.580, 109.328 107.500 C 112.639 101.517, 110.036 97.739, 105.523 101.978 C 104.217 103.205, 102.660 103.908, 102.063 103.539 C 100.365 102.489, 100.952 90.285, 102.773 88.773 C 104.796 87.095, 118.748 87.239, 122.955 88.982 C 125.556 90.059, 126.338 90.072, 126.970 89.049 C 127.964 87.440, 127.107 84, 125.712 84 C 125.132 84, 123.788 83.213, 122.725 82.250 C 121.138 80.813, 118.443 80.439, 107.646 80.161 C 100.416 79.974, 94.198 80.126, 93.829 80.498 M 93 86 C 93 86.550, 93.648 87, 94.441 87 C 95.234 87, 96.160 86.550, 96.500 86 C 96.840 85.450, 96.191 85, 95.059 85 C 93.927 85, 93 85.450, 93 86 M 67.191 86.828 C 63.321 87.955, 65.217 89.522, 70 89.150 C 74.866 88.772, 79.181 87.098, 75.500 87.017 C 74.400 86.993, 72.600 86.789, 71.500 86.564 C 70.400 86.339, 68.461 86.458, 67.191 86.828 M 86.750 86.662 C 87.438 86.940, 88.563 86.940, 89.250 86.662 C 89.938 86.385, 89.375 86.158, 88 86.158 C 86.625 86.158, 86.063 86.385, 86.750 86.662 M 88.319 91.250 C 87.179 93.034, 85.038 125.330, 85.993 126.343 C 86.429 126.807, 89.760 127.386, 93.393 127.630 C 99.519 128.042, 100 127.926, 100 126.037 C 100 124.687, 99.345 124, 98.059 124 C 96.991 124, 95.851 123.568, 95.525 123.040 C 95.198 122.512, 94.917 115.890, 94.900 108.325 C 94.874 96.970, 95.141 94.370, 96.434 93.425 C 97.295 92.795, 98 91.767, 98 91.140 C 98 89.567, 89.332 89.666, 88.319 91.250 M 48.053 130.436 C 47.398 131.225, 45.563 132.157, 43.976 132.505 C 40.010 133.376, 39.624 135.530, 41.705 145.179 C 44.349 157.437, 44.026 189.136, 41.047 209.696 C 38.623 226.426, 38.395 250.966, 40.656 251.719 C 41.292 251.931, 43.187 253.418, 44.867 255.023 C 48.553 258.546, 52.104 259.579, 55.769 258.196 C 62.928 255.493, 81.862 254.916, 87.500 257.229 C 90.831 258.595, 116.512 258.809, 123.824 257.531 C 128.540 256.707, 129.975 254.880, 127.884 252.360 C 126.775 251.024, 125.158 250.843, 118.522 251.312 C 112.785 251.718, 106.513 251.256, 96.500 249.690 C 78.552 246.882, 59.730 246.785, 52.728 249.464 C 50.103 250.467, 47.719 251.052, 47.430 250.763 C 45.965 249.298, 45.589 236.340, 46.712 226 C 47.398 219.675, 48.654 207.075, 49.501 198 C 50.349 188.925, 51.474 177.900, 52.002 173.500 C 52.619 168.353, 52.614 163.360, 51.988 159.500 C 50.599 150.933, 50.773 140.893, 52.391 136.308 C 54.420 130.559, 51.373 126.436, 48.053 130.436 M 90.500 132 C 90.840 132.550, 92.329 132.968, 93.809 132.930 C 96.212 132.867, 96.286 132.767, 94.500 132 C 91.722 130.806, 89.762 130.806, 90.500 132 M 186.500 133 C 186.140 133.582, 187.137 134, 188.882 134 C 190.532 134, 192.160 133.550, 192.500 133 C 192.860 132.418, 191.863 132, 190.118 132 C 188.468 132, 186.840 132.450, 186.500 133 M 200.214 133.060 C 201.315 133.702, 203.637 133.731, 206.714 133.141 L 211.500 132.224 205 132.142 C 200.224 132.082, 198.954 132.326, 200.214 133.060 M 193.462 142.062 C 193.101 142.646, 191.724 143.534, 190.403 144.037 C 188.042 144.935, 188 145.170, 188 157.490 C 188 170.456, 187.899 171.032, 180.462 200.500 C 177.716 211.384, 175.127 223.620, 175.068 226 C 174.945 230.942, 179.505 230.663, 180.523 225.666 C 180.878 223.925, 182.102 219.350, 183.242 215.500 C 184.383 211.650, 185.657 206.700, 186.075 204.500 C 186.493 202.300, 188.433 196, 190.386 190.500 C 192.339 185, 193.944 179.375, 193.953 178 C 193.973 174.624, 196.823 156.987, 198.607 149.195 C 199.401 145.727, 199.787 142.465, 199.466 141.945 C 198.672 140.660, 194.275 140.746, 193.462 142.062 M 218 166.247 C 214.425 166.691, 209.756 166.802, 207.623 166.495 C 203.544 165.907, 199 167.903, 199 170.283 C 199 173.070, 203.555 174.503, 214 175 C 224.924 175.520, 227.104 176.653, 221 178.639 C 217.597 179.746, 217.505 179.911, 217.678 184.639 C 217.776 187.312, 218.135 197.600, 218.474 207.500 C 218.814 217.400, 219.514 227.906, 220.030 230.846 C 221.693 240.325, 222.072 240.161, 199.144 239.870 C 188.298 239.733, 178.878 239.957, 178.212 240.369 C 177.545 240.781, 177 242.044, 177 243.176 C 177 244.843, 177.484 245.141, 179.556 244.744 C 181.031 244.463, 182.714 244.857, 183.534 245.677 C 185.650 247.792, 193.895 248.685, 209 248.433 C 245.033 247.832, 263.737 247.845, 266.141 248.473 C 269.141 249.256, 270.438 247.955, 269.524 245.076 C 269.109 243.767, 266.771 242.518, 262.054 241.085 C 256.450 239.383, 252.526 239, 240.675 239 L 226.161 239 226.609 214.750 C 227.174 184.124, 227.290 182.310, 228.776 180.824 C 229.449 180.151, 230 178.304, 230 176.721 L 230 173.841 241.250 174.043 C 247.438 174.154, 255.364 174.695, 258.865 175.245 C 263.992 176.051, 265.399 175.978, 266.100 174.873 C 267.314 172.956, 267.245 172.640, 265.107 170.345 C 261.720 166.710, 233.819 164.282, 218 166.247 M 233.682 169.652 C 232.259 171.075, 233.099 171.997, 235.750 171.921 C 237.354 171.875, 237.875 171.604, 237 171.271 C 236.175 170.957, 235.244 170.311, 234.932 169.835 C 234.619 169.359, 234.057 169.277, 233.682 169.652 M 245.500 171 C 245.840 171.550, 246.316 172, 246.559 172 C 246.802 172, 247 171.550, 247 171 C 247 170.450, 246.523 170, 245.941 170 C 245.359 170, 245.160 170.450, 245.500 171 M 73 210.442 C 68.878 211.983, 67.903 215.118, 70.893 217.213 C 72.509 218.344, 77.433 218.562, 96.133 218.326 C 109.040 218.164, 119.788 217.612, 120.316 217.084 C 122.280 215.120, 120.087 213.136, 115.308 212.554 C 112.664 212.232, 108.475 211.545, 106 211.027 C 98.033 209.361, 76.893 208.986, 73 210.442 M 75.701 213.632 C 74.334 214.999, 75.028 216.135, 77.040 215.820 C 78.161 215.644, 79.085 215.050, 79.092 214.500 C 79.109 213.283, 76.674 212.660, 75.701 213.632 M 225.694 243.639 C 224.809 244.525, 225.855 246, 227.368 246 C 228.055 246, 229.491 245.339, 230.559 244.532 C 232.402 243.138, 232.344 243.062, 229.417 243.032 C 227.721 243.014, 226.046 243.288, 225.694 243.639 M 208.565 244.895 C 207.545 246.544, 211.324 247.105, 212.892 245.537 C 214.274 244.154, 214.162 244, 211.773 244 C 210.313 244, 208.869 244.403, 208.565 244.895 M 217 245 C 217 245.550, 218.125 246, 219.500 246 C 220.875 246, 222 245.550, 222 245 C 222 244.450, 220.875 244, 219.500 244 C 218.125 244, 217 244.450, 217 245 M 79.500 252 C 79.840 252.550, 80.541 253, 81.059 253 C 81.577 253, 82 252.550, 82 252 C 82 251.450, 81.298 251, 80.441 251 C 79.584 251, 79.160 251.450, 79.500 252 M 56.667 253.667 C 56.300 254.033, 56 254.798, 56 255.367 C 56 255.993, 56.466 255.934, 57.183 255.217 C 57.834 254.566, 58.134 253.801, 57.850 253.517 C 57.566 253.232, 57.033 253.300, 56.667 253.667 M 91.500 254 C 91.160 254.550, 91.835 255, 93 255 C 94.165 255, 94.840 254.550, 94.500 254 C 94.160 253.450, 93.485 253, 93 253 C 92.515 253, 91.840 253.450, 91.500 254" stroke="none" fill="black" fill-rule="evenodd"/>
</svg>