<svg xmlns="http://www.w3.org/2000/svg" width="300" height="300" viewBox="0 0 300 300" version="1.1">
	<path d="M 274.751 27.689 C 273.059 28.131, 272.212 30.342, 272.143 34.500 C 272.125 35.600, 271.690 49.325, 271.176 65 C 270.662 80.675, 270.456 93.866, 270.719 94.313 C 271.702 95.987, 271.245 137.155, 270.233 138.167 C 269.541 138.859, 268.457 138.691, 266.857 137.644 C 259.888 133.084, 235.027 130.970, 232.250 134.702 C 229.018 139.045, 231.147 140.029, 244.800 140.504 C 250.135 140.690, 257.850 141.285, 261.944 141.826 C 271.373 143.074, 272.380 144.214, 271.503 152.646 C 270.843 158.983, 272.474 181.189, 273.989 186.500 C 274.460 188.150, 275.115 200.417, 275.444 213.761 C 275.986 235.699, 276.243 238.404, 278.123 242.011 C 280.418 246.415, 281.861 246.916, 284.345 244.171 C 286.496 241.794, 286.573 231.622, 284.470 227.589 C 283.448 225.630, 283.024 222.358, 283.172 217.589 C 283.498 207.088, 282.990 195.322, 281.902 188.182 C 279.512 172.489, 279.008 157.810, 278.945 102.040 C 278.901 62.297, 279.232 41.521, 279.939 39.660 C 281.360 35.922, 281.285 29.685, 279.800 28.200 C 278.570 26.970, 277.800 26.892, 274.751 27.689 M 72.252 61.626 C 71.650 63.207, 70.195 69.225, 69.017 75 C 67.839 80.775, 65.986 88.650, 64.899 92.500 C 63.812 96.350, 62.533 101.525, 62.057 104 C 61.581 106.475, 60.722 109.850, 60.147 111.500 C 59.573 113.150, 58.203 117.476, 57.103 121.113 C 56.003 124.751, 53.983 130.151, 52.612 133.113 C 51.242 136.076, 48.935 141.425, 47.485 145 C 43.323 155.261, 40.928 160.105, 37.197 165.812 C 34.769 169.524, 34.040 171.440, 34.774 172.174 C 36.039 173.439, 40.632 170.440, 41.540 167.756 C 41.865 166.797, 42.664 165.445, 43.316 164.752 C 43.967 164.059, 47.200 157.991, 50.500 151.267 C 55.676 140.721, 56.775 139.119, 58.500 139.607 C 59.600 139.918, 61.719 140.128, 63.209 140.073 C 66.221 139.963, 87.766 133.412, 89.438 132.098 C 90.022 131.639, 94.100 130.696, 98.500 130.003 C 104.504 129.058, 107.490 129.020, 110.470 129.852 C 115.350 131.214, 116.798 130.172, 115.430 126.280 C 114.235 122.883, 108.822 121.640, 98.500 122.393 C 88.581 123.117, 65.242 130.891, 62.912 134.247 C 62.588 134.713, 61.821 134.489, 61.206 133.748 C 60.360 132.729, 60.675 131.198, 62.504 127.451 C 63.832 124.728, 65.470 120.025, 66.143 117 C 66.816 113.975, 67.925 110.600, 68.606 109.500 C 69.287 108.400, 70.156 105.357, 70.537 102.738 C 70.919 100.118, 71.629 97.729, 72.115 97.429 C 72.602 97.128, 73 96.067, 73 95.071 C 73 94.075, 73.900 90.443, 75 87 C 76.100 83.557, 77 79.028, 77 76.937 C 77 74.019, 77.463 72.988, 78.991 72.503 C 80.086 72.155, 81.549 72.226, 82.241 72.660 C 82.933 73.095, 84.350 73.310, 85.389 73.139 C 86.851 72.898, 87.159 73.285, 86.749 74.852 C 86.340 76.415, 86.992 77.243, 89.610 78.485 C 91.474 79.370, 93 80.729, 93 81.505 C 93 82.281, 95.025 84.102, 97.500 85.553 C 99.975 87.003, 102 88.555, 102 89 C 102 89.445, 104.112 91.048, 106.693 92.561 C 111.627 95.452, 116.957 100.627, 119.762 105.250 C 121.762 108.545, 125 108.958, 125 105.919 C 125 102.838, 118.805 94.130, 112.963 89 C 110.144 86.525, 107.082 83.825, 106.157 83 C 105.233 82.175, 102.232 79.725, 99.488 77.556 C 90.038 70.083, 87 66.750, 87 63.856 C 87 60.418, 86.496 60.126, 79.258 59.369 C 73.441 58.761, 73.328 58.798, 72.252 61.626 M 220 95.815 C 220 96.263, 218.420 97.383, 216.490 98.303 C 213.076 99.931, 212.986 100.122, 213.217 105.239 C 213.347 108.132, 213.352 118.083, 213.227 127.351 L 213 144.202 199.264 143.851 C 186.679 143.529, 185.499 143.651, 185.181 145.298 C 184.991 146.287, 185.377 147.749, 186.040 148.548 C 187.756 150.616, 193.663 150.417, 194.897 148.250 C 195.702 146.835, 196.239 146.722, 197.697 147.657 C 198.688 148.293, 199.367 149.366, 199.205 150.041 C 198.946 151.123, 204.987 150.956, 212.473 149.675 C 213.080 149.571, 213.745 153.602, 214.111 159.602 C 215.065 175.213, 215.809 179, 217.921 179 C 220.380 179, 221.351 171.768, 221.548 152 C 221.715 135.172, 222.705 111.202, 223.643 101.250 C 224.198 95.366, 224.109 95, 222.116 95 C 220.952 95, 220 95.367, 220 95.815 M 173.440 101.451 C 172.533 102.836, 172.105 104.757, 172.458 105.867 C 172.801 106.948, 172.636 108.107, 172.091 108.444 C 171.525 108.794, 171.300 111.718, 171.566 115.278 C 171.821 118.700, 171.742 126.148, 171.390 131.829 C 170.720 142.641, 169.679 144.686, 166.114 142.187 C 165.226 141.564, 163 140.299, 161.167 139.374 C 159.334 138.450, 157.432 136.637, 156.942 135.347 C 155.882 132.558, 155.765 132.543, 151.401 134.614 C 149.010 135.749, 148 136.900, 148 138.491 C 148 141.247, 148.959 142.020, 156 144.939 C 159.025 146.194, 162.222 147.856, 163.105 148.634 C 164.032 149.450, 165.468 149.758, 166.501 149.361 C 168.158 148.726, 168.237 149.215, 167.572 155.964 C 167.177 159.974, 166.451 164.314, 165.959 165.608 C 165.467 166.903, 164.849 171.311, 164.587 175.404 C 164.217 181.168, 164.441 183.121, 165.579 184.066 C 166.387 184.736, 167.163 185.108, 167.304 184.893 C 168.898 182.443, 171 176.350, 171 174.178 C 171 172.662, 171.900 169.658, 173 167.500 C 174.100 165.342, 175.003 162.660, 175.006 161.539 C 175.010 160.417, 175.694 158.193, 176.527 156.596 C 177.377 154.966, 177.983 151.458, 177.908 148.596 C 177.835 145.793, 178.487 138.775, 179.357 133 C 180.892 122.803, 181.011 102.444, 179.548 100.077 C 178.377 98.183, 175.098 98.921, 173.440 101.451 M 92.655 137.829 C 91.745 138.835, 91 140.357, 91 141.212 C 91 142.067, 90.105 143.001, 89.012 143.287 C 86.042 144.063, 84.711 148.618, 85.444 155.500 C 86.757 167.833, 87.991 166.328, 75.500 167.630 C 63.731 168.857, 58 170.433, 58 172.443 C 58 174.102, 61.641 177.340, 62.742 176.659 C 63.220 176.364, 65.386 176.523, 67.555 177.013 C 70.518 177.681, 72.051 177.541, 73.715 176.451 C 76.823 174.415, 83.327 174.584, 85.218 176.750 C 87.347 179.187, 88.139 188.284, 87.876 207.258 C 87.751 216.191, 87.616 226.160, 87.575 229.412 C 87.494 235.772, 86.479 236.981, 82.651 235.272 C 78.315 233.337, 70.168 231.001, 67.866 231.033 C 65.316 231.068, 56.869 233.832, 53.316 235.794 C 52.114 236.457, 50.257 237, 49.188 237 C 46.594 237, 44.771 239.359, 45.173 242.195 C 45.467 244.264, 45.991 244.483, 50.297 244.334 C 52.936 244.243, 56.182 243.455, 57.512 242.584 C 58.842 241.713, 61.113 241, 62.558 241 C 64.346 241, 65.355 240.360, 65.710 239 C 66.239 236.978, 68.212 236.085, 67.750 238.077 C 67.479 239.244, 78.082 242.961, 81.750 242.985 C 82.987 242.993, 84 243.450, 84 244 C 84 244.550, 84.922 245, 86.050 245 C 87.177 245, 89.420 245.683, 91.033 246.517 C 92.647 247.352, 95.280 247.934, 96.884 247.812 C 98.488 247.690, 100.463 248.139, 101.272 248.810 C 102.262 249.633, 105.805 249.933, 112.121 249.730 C 120.608 249.458, 122.166 249.089, 128.500 245.843 C 134.199 242.923, 135.500 241.814, 135.500 239.878 C 135.500 237.258, 135.600 237.263, 128.500 239.586 C 118.547 242.842, 117.314 243.003, 108.920 242.142 C 99.021 241.126, 92.416 238.414, 92.671 235.471 C 92.765 234.387, 93.373 230.350, 94.023 226.500 C 94.686 222.574, 95.193 210.059, 95.177 198 C 95.156 180.811, 95.439 176.106, 96.593 174.535 C 97.825 172.857, 99.531 172.510, 108.268 172.165 C 118.022 171.780, 119.946 171.163, 119.985 168.410 C 120.013 166.419, 111.788 164.571, 102.900 164.571 L 94.129 164.571 93.471 159.786 C 92.582 153.326, 93.766 145.567, 96.091 142.611 C 99.997 137.646, 96.821 133.225, 92.655 137.829 M 168 172.500 C 168 173.325, 168.450 174, 169 174 C 169.550 174, 170 173.325, 170 172.500 C 170 171.675, 169.550 171, 169 171 C 168.450 171, 168 171.675, 168 172.500 M 116.483 186.028 C 116.133 186.594, 114.194 187.832, 112.174 188.781 C 108.625 190.447, 108.478 190.727, 107.856 197.003 C 107.502 200.576, 106.403 206.541, 105.413 210.257 C 104.108 215.158, 103.915 217.315, 104.710 218.110 C 106.088 219.488, 111.934 210.579, 113.968 204 C 114.734 201.525, 115.732 199.001, 116.186 198.391 C 117.148 197.097, 119.973 188.080, 119.989 186.250 C 120.002 184.746, 117.378 184.580, 116.483 186.028 M 51.250 204.940 C 50.013 205.974, 49 207.510, 49 208.354 C 49 210.588, 53.002 213.038, 55.591 212.388 C 57.671 211.866, 61.875 213.372, 63 215.042 C 64.018 216.554, 78.915 224, 80.921 224 C 86.102 224, 81.184 218.162, 70.521 211.656 C 68.860 210.642, 66.788 208.908, 65.918 207.803 C 65.047 206.697, 62.572 205.446, 60.418 205.022 C 58.263 204.598, 55.825 203.983, 55 203.655 C 54.175 203.327, 52.487 203.906, 51.250 204.940" stroke="none" fill="black" fill-rule="evenodd"/>
</svg>