<svg xmlns="http://www.w3.org/2000/svg" width="300" height="300" viewBox="0 0 300 300" version="1.1">
	<path d="M 77.293 53.321 C 75.351 55.521, 74.849 56.638, 68.893 72 C 67.080 76.675, 65.013 81.210, 64.298 82.079 C 63.584 82.947, 63 84.808, 63 86.214 C 63 87.837, 62.087 89.368, 60.500 90.408 C 59.125 91.309, 58 92.529, 58 93.119 C 58 93.709, 57.140 95.399, 56.090 96.874 C 50.664 104.494, 42.147 121.848, 42.734 124.090 C 43.008 125.140, 42.742 126, 42.142 126 C 41.542 126, 39.577 127.655, 37.776 129.679 C 35.974 131.702, 32.772 135.098, 30.660 137.224 C 28.384 139.516, 27.048 141.683, 27.379 142.545 C 28.064 144.331, 29.709 144.413, 31.454 142.750 C 32.175 142.063, 34.704 139.925, 37.075 138 C 42.427 133.653, 44.378 131.608, 48.184 126.356 C 50.129 123.671, 52.216 122.007, 54.112 121.628 C 55.721 121.306, 57.998 120.148, 59.170 119.056 C 60.892 117.452, 61.069 116.788, 60.087 115.604 C 59.099 114.415, 59.264 113.929, 60.961 113.021 C 62.111 112.405, 64.649 111.697, 66.601 111.447 C 69.759 111.043, 69.984 111.159, 68.646 112.497 C 67.819 113.323, 66.462 114, 65.630 114 C 64.799 114, 63.796 114.521, 63.403 115.158 C 62.895 115.979, 63.386 116.102, 65.094 115.580 C 66.417 115.176, 69.075 114.455, 71 113.979 C 72.925 113.502, 76.344 112.562, 78.597 111.890 C 80.850 111.218, 83.438 110.954, 84.347 111.303 C 86.692 112.203, 86.396 115.718, 83.861 117.075 C 81.834 118.159, 81.750 118.744, 82.268 128.147 C 82.890 139.436, 82.719 139.724, 74.029 142.017 C 71.570 142.665, 68.657 143.827, 67.557 144.598 C 66.456 145.369, 64.933 146, 64.172 146 C 63.411 146, 61.452 147.125, 59.818 148.500 C 58.184 149.875, 55.621 151, 54.123 151 C 48.821 151, 46.966 156.276, 51.644 158.055 C 54.738 159.231, 60.825 157.620, 61.677 155.399 C 61.972 154.630, 63.236 154, 64.485 154 C 65.733 154, 67.295 153.350, 67.955 152.555 C 68.614 151.760, 71.344 150.382, 74.022 149.493 C 77.405 148.369, 78.726 147.450, 78.353 146.478 C 77.968 145.473, 78.444 145.200, 80.044 145.508 C 81.268 145.744, 82.547 146.215, 82.885 146.555 C 83.708 147.382, 83.566 168.089, 82.689 175 C 82.306 178.025, 81.608 183.171, 81.138 186.436 C 80.669 189.700, 80.467 193.075, 80.690 193.936 C 80.913 194.796, 80.486 196.331, 79.740 197.348 C 78.569 198.943, 77.845 199.055, 74.442 198.168 C 72.274 197.603, 67.800 196.587, 64.500 195.910 C 60.952 195.182, 57.456 193.723, 55.945 192.340 C 51.735 188.483, 45.785 189.895, 49.402 193.892 C 50.281 194.863, 51 196.208, 51 196.880 C 51 199.459, 58.189 201.182, 69.617 201.342 L 80.856 201.500 81.229 209 C 81.758 219.634, 80.810 221.350, 73.988 222.117 C 70.970 222.457, 66.700 223.203, 64.500 223.776 C 62.300 224.349, 58.424 225.102, 55.886 225.450 C 52.934 225.854, 50.588 226.877, 49.373 228.291 C 46.800 231.284, 43.689 237.022, 44.305 237.639 C 44.908 238.241, 53.030 236.003, 54.647 234.788 C 55.277 234.314, 55.564 233.048, 55.283 231.975 C 54.727 229.850, 55.343 229.507, 61.500 228.506 C 65.208 227.903, 65.354 227.964, 63.502 229.346 C 62.402 230.166, 61.806 231.139, 62.176 231.510 C 63.238 232.571, 67.104 230.978, 66.366 229.783 C 65.933 229.082, 66.611 228.884, 68.321 229.211 C 69.761 229.486, 70.715 229.349, 70.442 228.906 C 69.289 227.041, 73.987 225.919, 78.201 227.054 C 81.868 228.042, 82.556 227.960, 83.695 226.402 C 84.933 224.709, 85.094 224.724, 86.939 226.704 C 88.006 227.850, 88.607 229.060, 88.273 229.394 C 87.940 229.727, 90.329 229.955, 93.583 229.900 C 98.057 229.825, 98.890 229.605, 97 229 C 94.650 228.247, 94.698 228.193, 97.809 228.100 C 99.781 228.040, 100.868 228.404, 100.500 229 C 100.143 229.577, 101.070 229.994, 102.691 229.985 C 104.611 229.974, 105.078 229.702, 104.165 229.123 C 103.169 228.492, 103.422 228.119, 105.165 227.652 C 108.630 226.725, 108.998 226.840, 108.309 228.638 C 107.758 230.073, 108.281 230.185, 112.548 229.545 C 115.225 229.144, 119.248 227.954, 121.488 226.901 C 126.062 224.751, 133 219.343, 133 217.927 C 133 216.498, 128.386 216.830, 127.124 218.350 C 125.443 220.376, 111.327 223.488, 104.500 223.338 C 91.946 223.063, 89.764 222.593, 88.782 219.950 C 88.225 218.451, 88.273 212.840, 88.907 205.500 C 89.476 198.900, 90.459 186.525, 91.090 178 C 91.721 169.475, 92.752 158.049, 93.380 152.608 L 94.522 142.716 99.511 141.108 C 105.678 139.120, 107.217 138.160, 106.387 136.816 C 105.980 136.159, 103.613 136.012, 100.010 136.419 L 94.279 137.068 92.971 132.398 C 91.997 128.919, 91.940 126.998, 92.745 124.864 C 93.613 122.565, 93.551 122, 92.432 122 C 90.609 122, 89.800 118.553, 90.188 112.434 L 90.500 107.500 95.059 106.375 C 103.673 104.248, 108.279 100.812, 104.474 99.351 C 102.637 98.647, 84.058 102.773, 82.164 104.306 C 81.430 104.901, 78.280 105.707, 75.164 106.098 C 72.049 106.489, 67.588 107.135, 65.250 107.532 C 62.600 107.983, 61 107.879, 61 107.255 C 61 106.015, 64.390 98.837, 67.497 93.500 C 72.114 85.569, 79 70.671, 79 68.614 C 79 67.881, 80.800 65.237, 83 62.737 C 88.447 56.550, 88.278 54.999, 81.858 52.266 C 79.585 51.298, 78.947 51.446, 77.293 53.321 M 87.035 61.934 C 86.466 62.998, 86 64.536, 86 65.351 C 86 66.166, 85.449 67.017, 84.775 67.242 C 83.229 67.757, 95.471 74.581, 99.500 75.450 C 101.150 75.806, 104.300 77.428, 106.500 79.055 C 108.700 80.682, 111.246 82.277, 112.158 82.599 C 113.069 82.921, 114.040 84.043, 114.314 85.092 C 115.102 88.106, 118 87.473, 118 84.287 C 118 79.694, 102.899 67, 97.435 67 C 96.609 67, 95.003 65.425, 93.867 63.500 C 91.570 59.605, 88.641 58.934, 87.035 61.934 M 161.460 87.291 C 162.144 108.330, 161.080 128.230, 159.169 130.184 C 158.801 130.560, 154.097 131.513, 148.715 132.302 C 143.333 133.091, 138.637 134.030, 138.279 134.388 C 137.190 135.477, 139.446 140.500, 141.024 140.500 C 141.836 140.500, 142.391 139.947, 142.257 139.272 C 141.915 137.540, 147.673 134.662, 148.571 136.115 C 148.948 136.725, 148.636 137.616, 147.878 138.096 C 145.742 139.450, 151.408 139.227, 154.457 137.838 C 155.860 137.198, 157.321 136.988, 157.704 137.371 C 158.086 137.753, 157.364 143.564, 156.099 150.283 C 152.254 170.698, 150.193 178.005, 147.772 179.800 C 146.557 180.701, 146.066 182.314, 146.173 185.050 C 146.322 188.860, 146.451 189, 149.792 189 C 153.953 189, 163.087 193.975, 165.824 197.733 C 167.630 200.212, 167.655 200.661, 166.225 204.939 C 165.387 207.447, 163.868 210.694, 162.850 212.154 C 161.833 213.614, 160.998 215.189, 160.996 215.654 C 160.986 217.489, 149.892 228.810, 147.521 229.405 C 144.521 230.158, 144.123 233, 147.018 233 C 151.031 233, 159.032 227.699, 165.845 220.526 C 169.671 216.499, 173.087 212.300, 173.438 211.194 C 174.391 208.192, 177.037 207.651, 180.013 209.851 C 181.455 210.917, 184.929 212.989, 187.734 214.456 C 190.538 215.922, 193.072 217.745, 193.364 218.505 C 193.655 219.266, 195.723 220.436, 197.959 221.106 C 200.195 221.776, 202.524 222.926, 203.134 223.662 C 204.879 225.764, 209 225.364, 209 223.093 C 209 221.171, 200.185 213, 198.111 213 C 197.500 213, 197 212.614, 197 212.142 C 197 211.670, 194.412 209.665, 191.250 207.687 C 188.088 205.708, 184.239 203.056, 182.697 201.794 L 179.894 199.500 182.821 190.500 C 189.054 171.329, 190.921 163.002, 192.331 148.082 L 193.521 135.500 198.011 134.824 C 200.480 134.452, 205.511 134.115, 209.191 134.074 C 221.879 133.934, 218.022 130.239, 204.221 129.313 C 199.424 128.992, 194.999 128.335, 194.387 127.856 C 193.775 127.376, 192.982 124.174, 192.624 120.741 C 192.266 117.309, 191.310 112.025, 190.499 109 C 189.688 105.975, 189.018 102.248, 189.012 100.719 C 188.997 97.320, 186.934 96.371, 183.054 97.978 C 179.984 99.249, 178.552 101.466, 179.651 103.244 C 180.510 104.635, 183.976 121.835, 183.990 124.775 C 184.002 127.468, 181.488 128.641, 174.622 129.147 L 169.831 129.500 169.635 99.137 L 169.438 68.773 167.108 66.887 C 165.827 65.849, 163.869 65, 162.757 65 C 160.768 65, 160.748 65.350, 161.460 87.291 M 261 104.058 C 259.075 104.527, 256.685 104.667, 255.689 104.369 C 254.693 104.070, 250.485 104.581, 246.339 105.504 C 242.192 106.426, 237.856 106.934, 236.702 106.632 C 235.548 106.331, 234.018 106.570, 233.302 107.164 C 229.027 110.712, 235.720 115.730, 243.071 114.488 L 247.223 113.786 244.408 111.940 C 241.441 109.993, 241.786 109.598, 247.215 108.726 C 248.708 108.487, 250.067 108.702, 250.235 109.205 C 250.403 109.708, 251.881 109.421, 253.520 108.566 C 256.306 107.112, 263.341 107.146, 267.972 108.634 C 269.268 109.051, 269.268 109.223, 267.972 110.072 C 266.679 110.919, 266.683 111.146, 268 111.931 C 270.704 113.543, 273.632 116.448, 275.583 119.456 C 277.339 122.164, 277.518 124.720, 277.719 149.956 C 277.840 165.105, 278.065 178.599, 278.219 179.942 C 278.454 181.987, 277.932 182.525, 275 183.256 C 264.759 185.811, 257.330 186.915, 246.500 187.491 C 239.900 187.843, 233.488 188.627, 232.250 189.234 C 229.880 190.397, 229.154 193, 231.200 193 C 232.133 193, 232.133 193.267, 231.200 194.200 C 228.796 196.604, 230.123 197.147, 236.750 196.468 C 243.202 195.807, 247.924 194, 243.200 194 C 241.990 194, 241 193.598, 241 193.107 C 241 191.660, 243.664 191.064, 244.846 192.246 C 245.632 193.032, 247.021 193.011, 249.834 192.168 C 254.792 190.682, 255 190.696, 255 192.500 C 255 193.561, 253.903 194.009, 251.250 194.030 C 248.691 194.051, 247.976 194.328, 249 194.901 C 250.510 195.747, 262.546 194.120, 264.581 192.795 C 265.175 192.408, 267.875 191.345, 270.581 190.432 C 273.286 189.520, 275.860 188.149, 276.300 187.387 C 277.340 185.583, 278.933 185.630, 281.028 187.525 C 282.427 188.791, 282.902 188.823, 283.824 187.712 C 286.433 184.569, 287.584 127.080, 285.196 119.193 C 283.278 112.856, 278.094 107.667, 271.154 105.137 C 267.932 103.961, 265.116 103.046, 264.897 103.102 C 264.679 103.159, 262.925 103.589, 261 104.058 M 76.500 109 C 74.592 109.820, 74.603 109.863, 76.750 109.930 C 77.987 109.968, 79 109.550, 79 109 C 79 108.450, 78.888 108.032, 78.750 108.070 C 78.612 108.109, 77.600 108.527, 76.500 109 M 250.308 111.642 C 251.316 112.649, 262.971 112.857, 263.576 111.878 C 263.874 111.395, 260.866 111, 256.892 111 C 252.918 111, 249.955 111.289, 250.308 111.642 M 277.079 116.583 C 277.127 117.748, 277.364 117.985, 277.683 117.188 C 277.972 116.466, 277.936 115.603, 277.604 115.271 C 277.272 114.939, 277.036 115.529, 277.079 116.583 M 223.316 121.871 C 218.083 123.951, 217.428 124.606, 218.858 126.329 C 220.742 128.599, 221.367 150.261, 219.902 162.500 C 217.976 178.585, 218.156 193.687, 220.320 197.750 C 221.272 199.537, 222.663 201, 223.411 201 C 226.233 201, 230.103 191.800, 227.863 190.415 C 227.043 189.908, 226.934 186.844, 227.479 179.604 C 227.898 174.047, 228.523 165.675, 228.870 161 C 229.640 150.613, 229.124 119.960, 228.181 120.104 C 227.807 120.161, 225.617 120.956, 223.316 121.871 M 187.476 131.039 C 186.468 132.669, 188.707 134.693, 190.042 133.358 C 190.766 132.634, 190.640 131.946, 189.631 131.109 C 188.557 130.218, 187.995 130.199, 187.476 131.039 M 169.068 133.550 C 169.030 134.678, 168.511 136.089, 167.913 136.687 C 166.935 137.665, 164.445 149.586, 161.946 165.248 C 161.441 168.410, 160.415 172.463, 159.666 174.256 C 157.948 178.368, 158.488 179.708, 163.763 184.436 C 166.108 186.537, 168.294 189.324, 168.622 190.628 C 169.321 193.414, 171.543 193.742, 172.841 191.250 C 173.631 189.733, 175.687 183.496, 179.021 172.500 C 180.619 167.228, 182.827 151.799, 183.363 142.156 L 183.882 132.813 181.524 133.405 C 180.093 133.764, 178.951 133.506, 178.621 132.748 C 178.248 131.893, 177.554 132.209, 176.416 133.750 C 175.503 134.988, 173.980 136, 173.031 136 C 172.082 136, 170.817 134.988, 170.220 133.750 C 169.185 131.604, 169.132 131.595, 169.068 133.550 M 113.750 168.288 C 110.555 171.025, 110 172.103, 110 175.578 C 110 179.153, 106.757 188.955, 103.962 193.826 C 103.433 194.747, 102.554 196.625, 102.007 198 C 101.460 199.375, 98.760 203.650, 96.006 207.499 C 90.543 215.136, 89.954 217, 93 217 C 94.100 217, 95 216.543, 95 215.984 C 95 215.426, 97.299 212.838, 100.109 210.234 C 107.798 203.108, 116.219 189.066, 117.582 181.097 C 117.920 179.119, 118.779 175.445, 119.490 172.933 C 120.336 169.946, 120.458 167.783, 119.842 166.683 C 118.581 164.428, 118.111 164.552, 113.750 168.288 M 223.583 167.866 C 223.152 168.563, 223.070 169.403, 223.400 169.733 C 224.295 170.628, 225.271 169.312, 224.787 167.862 C 224.449 166.846, 224.213 166.846, 223.583 167.866 M 147.980 183.524 C 146.413 185.413, 147.085 186.148, 150.695 186.490 C 152.238 186.636, 154.800 187.274, 156.389 187.906 C 159.626 189.195, 160.528 188.819, 159.655 186.543 C 159.329 185.694, 157.979 185, 156.654 185 C 155.329 185, 153.685 184.325, 153 183.500 C 151.409 181.583, 149.584 181.591, 147.980 183.524 M 83.430 190.322 C 82.682 192.270, 83.518 195, 84.862 195 C 86.596 195, 87.086 191.657, 85.573 190.145 C 84.240 188.812, 84.002 188.831, 83.430 190.322 M 163 190.893 C 163 191.384, 163.652 192.036, 164.449 192.342 C 165.418 192.714, 165.714 192.418, 165.342 191.449 C 164.735 189.867, 163 189.455, 163 190.893 M 72.750 229.662 C 73.438 229.940, 74.563 229.940, 75.250 229.662 C 75.938 229.385, 75.375 229.158, 74 229.158 C 72.625 229.158, 72.063 229.385, 72.750 229.662 M 80.813 229.683 C 81.534 229.972, 82.397 229.936, 82.729 229.604 C 83.061 229.272, 82.471 229.036, 81.417 229.079 C 80.252 229.127, 80.015 229.364, 80.813 229.683" stroke="none" fill="black" fill-rule="evenodd"/>
</svg>