<svg xmlns="http://www.w3.org/2000/svg" width="300" height="300" viewBox="0 0 300 300" version="1.1">
	<path d="M 90.629 45.481 C 89.275 46.506, 88.935 47.604, 89.398 49.449 C 90.087 52.195, 92 52.968, 92 50.500 C 92 48.419, 97.590 48.490, 98.393 50.582 C 99.430 53.285, 99.090 53.857, 96.250 54.184 L 93.500 54.500 96.329 57.188 C 97.885 58.666, 100.437 60.157, 102 60.500 C 103.563 60.843, 105.988 62.186, 107.389 63.484 C 108.789 64.783, 110.882 66.145, 112.040 66.513 C 113.197 66.880, 116.580 69.165, 119.558 71.590 C 122.535 74.016, 125.653 76, 126.486 76 C 128.570 76, 128.583 69.161, 126.500 68.362 C 125.675 68.045, 125 67.350, 125 66.816 C 125 65.758, 119.538 60, 118.535 60 C 117.853 60, 116.917 59.294, 112.604 55.528 C 111.011 54.138, 109.377 53, 108.972 53 C 108.567 53, 106.046 50.980, 103.368 48.511 C 98.148 43.697, 94.219 42.762, 90.629 45.481 M 67.998 48.642 C 66.267 49.113, 61.820 57.633, 53.097 77.189 C 51.947 79.769, 50.554 82.158, 50.003 82.498 C 49.451 82.839, 49 83.954, 49 84.976 C 49 85.997, 48.651 86.983, 48.224 87.167 C 47.797 87.350, 45.223 92, 42.505 97.500 C 39.786 103, 36.581 109.075, 35.382 111 C 31.607 117.058, 28.731 126.629, 29.982 128.966 C 31.875 132.503, 32.904 131.512, 36.086 123.091 C 36.795 121.215, 39.019 117.900, 41.029 115.723 C 43.898 112.616, 45.148 111.912, 46.842 112.450 C 48.029 112.827, 49 113.554, 49 114.067 C 49 115.792, 50.594 115.457, 68.771 109.913 C 72.220 108.861, 75.982 108, 77.130 108 C 78.995 108, 79.148 108.401, 78.553 111.750 C 78.187 113.813, 77.646 119.775, 77.351 125 C 76.722 136.125, 75.790 137.656, 69.135 138.499 C 65.107 139.009, 59.539 140.740, 51.250 144.057 C 49.626 144.707, 49 145.781, 49 147.920 C 49 151.529, 49.587 151.927, 56.046 152.692 C 60.517 153.221, 61.927 152.887, 67.581 149.958 C 71.759 147.794, 74.364 146.964, 74.995 147.595 C 75.559 148.159, 76.252 162.485, 76.642 181.626 C 77.314 214.592, 77.310 214.690, 75.158 216.842 C 73.971 218.029, 73 219.297, 73 219.661 C 73 220.483, 66.884 226, 65.973 226 C 65.606 226, 64.225 226.927, 62.903 228.061 C 61.581 229.194, 59.458 231.016, 58.185 232.111 C 56.912 233.205, 53.987 235.057, 51.685 236.226 C 49.383 237.395, 46.375 239.118, 45 240.054 C 43.625 240.990, 40.485 242.093, 38.022 242.505 C 33.691 243.228, 29.281 245.366, 27.765 247.477 C 26.704 248.955, 26.832 254, 27.930 254 C 28.442 254, 29.056 252.988, 29.294 251.750 L 29.728 249.500 29.864 251.750 C 30.020 254.331, 33.073 254.733, 39.007 252.951 C 44.814 251.208, 70.236 246.925, 74.500 246.972 C 75.600 246.984, 78.525 246.548, 81 246.003 C 83.475 245.458, 87.975 244.813, 91 244.570 C 94.025 244.326, 101.675 243.605, 108 242.966 C 114.325 242.328, 121.343 241.737, 123.596 241.653 C 125.849 241.569, 128.324 240.989, 129.096 240.365 C 129.868 239.741, 131.963 238.918, 133.750 238.536 C 135.744 238.110, 137 237.233, 137 236.268 C 137 234.874, 135.443 234.791, 123.250 235.534 C 115.688 235.995, 107.475 236.354, 105 236.331 C 101.253 236.298, 83.257 237.223, 64.250 238.425 C 60.687 238.651, 60 238.396, 60 236.847 C 60 235.831, 60.625 235, 61.390 235 C 62.154 235, 65.585 232.935, 69.013 230.412 C 74.416 226.434, 75.693 225.907, 78.611 226.455 C 81.634 227.022, 82.179 226.754, 83.955 223.834 C 85.043 222.045, 86.199 219.438, 86.524 218.040 C 87.028 215.872, 95.516 208.692, 99.475 207.084 C 100.683 206.593, 109 198.154, 109 197.419 C 109 197.142, 109.434 196.372, 109.965 195.708 C 117.352 186.465, 117.622 186.064, 121.211 179 C 122.469 176.525, 123.734 174.275, 124.022 174 C 124.310 173.725, 125.387 172.181, 126.414 170.570 L 128.282 167.640 125.500 165.247 C 119.545 160.124, 112.707 165.885, 109.174 179 C 108.512 181.456, 103.712 189.224, 101.252 191.821 C 99.682 193.479, 99.635 195.712, 101.160 196.220 C 102.033 196.511, 102.037 197.087, 101.176 198.553 C 100.067 200.440, 100.012 200.430, 99.399 198.250 C 98.493 195.026, 97.541 195.420, 93.867 200.536 C 87.837 208.932, 87.540 207.905, 87.190 177.534 C 86.910 153.289, 87.060 150.189, 88.688 146.547 C 90.789 141.845, 93.838 138.724, 98.027 136.989 C 99.662 136.311, 101 135.362, 101 134.879 C 101 134.395, 101.620 134, 102.378 134 C 103.135 134, 104.315 133.325, 105 132.500 C 105.685 131.675, 107.471 131, 108.969 131 C 110.468 131, 112.575 130.213, 113.653 129.250 C 120.634 123.014, 119.585 117.510, 112.154 121.384 C 110.694 122.145, 107.925 123.462, 106 124.310 C 101.005 126.511, 95.934 128.932, 92.746 130.639 C 89.358 132.453, 88 131.729, 88 128.108 C 88 123.908, 90.031 113.899, 91.604 110.349 C 92.372 108.616, 93 105.411, 93 103.226 L 93 99.254 98.208 98.754 C 101.072 98.479, 103.584 97.747, 103.791 97.127 C 103.998 96.507, 105.199 96, 106.461 96 C 107.723 96, 109.293 95.352, 109.951 94.559 C 110.608 93.767, 112.351 92.980, 113.823 92.809 C 115.905 92.569, 116.570 91.889, 116.816 89.750 C 117.107 87.221, 116.856 87, 113.689 87 C 111.795 87, 109.685 87.675, 109 88.500 C 108.245 89.410, 106.055 90, 103.430 90 C 100.738 90, 97.331 90.944, 94.404 92.500 C 91.818 93.875, 89.275 95, 88.752 95 C 88.230 95, 86.384 95.627, 84.651 96.393 C 79.837 98.520, 68.056 101.006, 62.797 101.003 C 60.210 101.001, 56.936 101.528, 55.520 102.173 C 53.620 103.038, 52.652 103.052, 51.826 102.226 C 51 101.400, 51.736 99.324, 54.634 94.303 C 59.569 85.754, 61.173 82.878, 64.872 75.940 C 66.503 72.882, 68.549 69.790, 69.418 69.068 C 70.288 68.346, 71 66.942, 71 65.949 C 71 63.924, 76.557 57.698, 79.250 56.707 C 81.589 55.846, 81.567 52, 79.222 52 C 78.244 52, 76.674 51.100, 75.732 50 C 74.132 48.131, 71.540 47.676, 67.998 48.642 M 250.203 50.011 C 248.939 50.539, 238.589 51.199, 227.203 51.478 C 200.586 52.130, 192.496 53.091, 184.500 56.554 C 182.850 57.268, 180.034 58.392, 178.242 59.051 C 175.534 60.047, 174.879 60.904, 174.364 64.125 C 174.023 66.256, 173.239 68.044, 172.622 68.099 C 172.005 68.153, 170.375 68.265, 169 68.349 L 166.500 68.500 166.861 80.476 C 167.059 87.063, 167.653 93.587, 168.180 94.973 C 169.232 97.741, 169.035 125.860, 167.959 126.526 C 167.591 126.753, 166.961 136.962, 166.560 149.213 C 166.159 161.463, 165.473 171.714, 165.035 171.993 C 163.315 173.089, 160.652 218.262, 160.931 241.617 C 161.106 256.360, 160.917 258.818, 159.567 259.336 C 157.006 260.319, 157.776 263.908, 161.223 267.056 C 164.472 270.024, 166.067 270.600, 167.384 269.283 C 167.779 268.888, 176.516 268.446, 186.801 268.300 C 197.085 268.154, 207.750 267.869, 210.500 267.667 C 213.250 267.465, 223.825 267.003, 234 266.640 C 262.740 265.613, 282.350 264.062, 283.714 262.707 C 286.260 260.175, 283.443 259.013, 273.444 258.469 C 267.975 258.172, 262.150 257.533, 260.500 257.050 C 255.750 255.660, 251 255.918, 251 257.567 C 251 258.355, 251.675 259, 252.500 259 C 256.010 259, 252.433 263.899, 248.872 263.968 C 246.116 264.022, 244.680 261.463, 246.465 259.677 C 247.309 258.833, 248 257.706, 248 257.173 C 248 255.748, 193.323 257.064, 190.924 258.547 C 190.394 258.874, 188.326 258.603, 186.328 257.943 C 184.330 257.284, 180.402 256.464, 177.598 256.122 L 172.500 255.500 171.798 245.500 C 170.771 230.853, 173.599 182.854, 175.952 175.007 C 176.529 173.085, 177 164.967, 177 156.966 C 177 148.966, 177.727 137.263, 178.616 130.960 C 179.876 122.022, 180.061 116.309, 179.458 105 C 178.307 83.426, 178.198 72.692, 179.112 70.882 C 179.636 69.844, 180.775 69.425, 182.287 69.715 C 183.658 69.977, 187.376 68.875, 191.169 67.083 C 194.758 65.387, 199 63.975, 200.597 63.944 C 202.194 63.913, 205.075 63.327, 207 62.643 C 209.350 61.808, 211.610 61.689, 213.878 62.282 C 215.736 62.768, 220.011 62.907, 223.378 62.592 C 244.313 60.634, 245.094 60.642, 245.664 62.822 C 246.445 65.809, 248.746 66.262, 253.642 64.393 C 259.756 62.058, 263.328 54.177, 259.655 51.128 C 257.674 49.485, 252.832 48.912, 250.203 50.011 M 227.954 55.028 C 227.164 55.517, 225.598 55.686, 224.476 55.405 C 223.354 55.123, 221.305 55.479, 219.924 56.196 C 217.673 57.365, 218.246 57.494, 225.456 57.440 C 237.075 57.352, 239 57.131, 239 55.887 C 239 55.196, 237.766 54.960, 235.750 55.267 C 233.963 55.538, 231.801 55.396, 230.946 54.950 C 230.091 54.504, 228.745 54.539, 227.954 55.028 M 188 59.500 C 185.783 60.767, 185.726 60.932, 187.500 60.951 C 190.738 60.986, 194.021 59.843, 193.430 58.886 C 192.659 57.640, 190.908 57.838, 188 59.500 M 218.344 69.194 C 217.880 69.912, 217.629 82.813, 217.786 97.863 C 218.108 128.607, 218.273 127.905, 210.736 127.968 C 208.666 127.986, 206.052 128.563, 204.926 129.250 C 202.677 130.623, 202.201 130.220, 198.787 124.058 C 196.462 119.863, 194.130 119.121, 191.905 121.869 C 190.422 123.701, 190.219 125.282, 190.698 131.285 C 191.014 135.253, 191.720 139.367, 192.266 140.427 C 193.431 142.685, 194.756 150.910, 195.983 163.500 C 197.133 175.298, 199.023 180.500, 202.157 180.500 L 204.500 180.500 204.579 161.596 L 204.657 142.691 207.329 140.394 C 208.798 139.130, 210 137.568, 210 136.923 C 210 135.544, 215.841 136.440, 217.469 138.069 C 218.146 138.747, 218.427 150.973, 218.286 173.659 C 218.058 210.659, 218.233 212.575, 223.585 231.500 C 226.309 241.133, 230.055 248, 232.586 248 C 233.442 248, 234.865 247.278, 235.747 246.396 C 237.126 245.017, 237.160 244.490, 235.993 242.646 C 235.245 241.466, 234.310 238.700, 233.914 236.500 C 233.518 234.300, 232.393 228.675, 231.414 224 C 228.862 211.821, 228.319 146.366, 230.700 138 C 231.561 134.975, 232.712 132.214, 233.258 131.864 C 234.887 130.819, 252.856 130.957, 253.512 132.020 C 253.845 132.559, 255.597 133, 257.404 133 C 262.206 133, 264.347 135.800, 263.670 141.195 C 262.533 150.248, 261.751 151.982, 256.101 157.976 C 250.802 163.596, 250.122 164, 245.950 164 C 242.527 164, 240.826 163.394, 238.689 161.412 C 236.023 158.940, 233 158.729, 233 161.014 C 233 161.998, 235.529 164.679, 239.288 167.680 C 241.781 169.670, 248.608 171.097, 251.153 170.160 C 252.444 169.684, 255.148 169.244, 257.162 169.181 C 259.583 169.106, 261.751 168.209, 263.558 166.534 C 265.062 165.140, 266.579 164, 266.930 164 C 267.881 164, 271.260 158.118, 273.249 153 C 275.291 147.748, 275.443 139.573, 273.631 132.500 C 272.492 128.055, 271.858 127.258, 267.925 125.320 C 262.703 122.748, 252.045 121.316, 249.350 122.824 C 247.670 123.764, 247.775 123.964, 250.500 125 C 253.121 125.997, 253.281 126.263, 251.763 127.113 C 249.954 128.125, 246.843 126.985, 244.199 124.342 C 243.356 123.498, 240.476 123, 236.448 123 C 228.897 123, 229.385 123.959, 228.567 107.500 C 228.267 101.450, 227.733 92.416, 227.382 87.425 C 226.933 81.053, 227.109 77.665, 227.973 76.050 C 229.014 74.105, 228.903 73.345, 227.253 71.125 C 225.081 68.202, 219.733 67.043, 218.344 69.194 M 66 105 C 66 105.550, 66.450 106, 67 106 C 67.550 106, 68 105.550, 68 105 C 68 104.450, 67.550 104, 67 104 C 66.450 104, 66 104.450, 66 105 M 222.730 112.250 C 222.456 114.037, 222.617 116.175, 223.086 117 C 223.650 117.992, 223.949 116.890, 223.970 113.750 C 224.005 108.250, 223.445 107.573, 222.730 112.250 M 223.158 128 C 223.158 129.375, 223.385 129.938, 223.662 129.250 C 223.940 128.563, 223.940 127.438, 223.662 126.750 C 223.385 126.063, 223.158 126.625, 223.158 128 M 73 140.500 C 73 141.325, 73.450 142, 74 142 C 74.550 142, 75 141.325, 75 140.500 C 75 139.675, 74.550 139, 74 139 C 73.450 139, 73 139.675, 73 140.500 M 168.855 172 C 168.238 175.496, 168.494 176.840, 169.571 175.763 C 169.884 175.449, 169.991 173.687, 169.807 171.846 L 169.473 168.500 168.855 172 M 38.264 195.485 C 35.308 196.770, 35.084 197.177, 35.671 200.196 C 36.496 204.432, 37.391 204.966, 43.691 204.985 C 46.546 204.993, 49.160 205.450, 49.500 206 C 49.848 206.563, 54.655 207, 60.492 207 C 70.263 207, 70.905 206.874, 71.555 204.826 C 72.410 202.132, 70.111 200.241, 65.076 199.497 C 54.210 197.893, 44.439 195.839, 43.580 194.980 C 42.356 193.756, 42.209 193.770, 38.264 195.485 M 32.079 200.583 C 32.127 201.748, 32.364 201.985, 32.683 201.188 C 32.972 200.466, 32.936 199.603, 32.604 199.271 C 32.272 198.939, 32.036 199.529, 32.079 200.583 M 165.204 212.452 C 163.495 216.202, 163.624 223, 165.403 223 C 166.377 223, 166.913 221.455, 167.153 217.959 C 167.617 211.215, 166.808 208.931, 165.204 212.452 M 73.250 239.434 C 70.476 240.716, 70.296 243, 72.969 243 C 74.259 243, 74.749 242.510, 74.392 241.580 C 74.034 240.647, 74.645 240.043, 76.174 239.821 C 77.781 239.587, 78.037 239.314, 77 238.938 C 76.175 238.638, 74.487 238.862, 73.250 239.434 M 83.269 239.693 C 84.242 239.947, 85.592 239.930, 86.269 239.656 C 86.946 239.382, 86.150 239.175, 84.500 239.195 C 82.850 239.215, 82.296 239.439, 83.269 239.693 M 56.750 242.794 C 53.753 243.163, 52.910 245.010, 55.750 244.985 C 57.616 244.968, 60.759 243.328, 59.971 242.782 C 59.712 242.603, 58.263 242.608, 56.750 242.794 M 224 260.500 C 224 261.452, 224.958 262, 226.622 262 C 228.840 262, 229.053 261.768, 228 260.500 C 227.315 259.675, 226.135 259, 225.378 259 C 224.620 259, 224 259.675, 224 260.500 M 230.638 260.500 C 230.322 261.325, 230.444 262, 230.909 262 C 231.374 262, 232.315 261.325, 233 260.500 C 234.013 259.279, 233.963 259, 232.729 259 C 231.896 259, 230.955 259.675, 230.638 260.500 M 256.079 260.583 C 256.127 261.748, 256.364 261.985, 256.683 261.188 C 256.972 260.466, 256.936 259.603, 256.604 259.271 C 256.272 258.939, 256.036 259.529, 256.079 260.583 M 204.145 260.889 C 203.130 261.532, 203.609 262.157, 206.048 263.374 C 210.122 265.407, 213 265.459, 213 263.500 C 213 262.500, 214.083 261.958, 216.250 261.875 C 219.094 261.765, 218.938 261.650, 215 260.949 C 208.961 259.874, 205.774 259.857, 204.145 260.889 M 188 263 C 188 263.550, 189.125 264, 190.500 264 C 191.875 264, 193 263.550, 193 263 C 193 262.450, 191.875 262, 190.500 262 C 189.125 262, 188 262.450, 188 263 M 194 263.427 C 194 264.354, 194.855 265, 196.083 265 C 198.520 265, 198.176 262.663, 195.667 262.177 C 194.680 261.985, 194 262.495, 194 263.427 M 174.500 265 C 173.769 266.183, 174.748 266.183, 177.500 265 C 179.428 264.171, 179.421 264.138, 177.309 264.070 C 176.104 264.032, 174.840 264.450, 174.500 265" stroke="none" fill="black" fill-rule="evenodd"/>
</svg>