<svg xmlns="http://www.w3.org/2000/svg" width="300" height="300" viewBox="0 0 300 300" version="1.1">
	<path d="M 195.853 25.738 C 194.124 26.125, 193.037 28.865, 193.014 32.890 C 193.006 34.204, 192.213 35.870, 191.250 36.592 C 189.599 37.831, 189.629 38.133, 191.783 41.957 C 195.520 48.592, 194.272 49.564, 181.049 50.321 C 164.240 51.283, 151.720 53.068, 149.750 54.785 C 148.787 55.624, 148 57.357, 148 58.636 C 148 62.402, 149.836 62.546, 171.500 60.480 C 189.771 58.738, 193.240 58.530, 194.191 59.118 C 194.888 59.549, 195.016 62.031, 194.559 66.296 C 193.713 74.196, 193.478 74.329, 177.500 75.966 C 171.450 76.585, 163.125 77.937, 159 78.969 C 144.454 82.607, 137.461 84.005, 133.821 84.003 C 129.386 83.999, 127 86.122, 127 90.071 C 127 92.225, 127.476 93, 128.800 93 C 129.790 93, 131.107 92.493, 131.727 91.873 C 132.439 91.161, 133.893 91.038, 135.677 91.537 C 137.230 91.972, 138.734 92.289, 139.020 92.241 C 140.085 92.062, 149.633 90.884, 153.297 90.479 C 155.386 90.248, 157.634 89.726, 158.293 89.319 C 158.952 88.912, 161.518 88.253, 163.996 87.855 C 166.473 87.457, 170.740 86.646, 173.478 86.053 C 176.216 85.460, 182.291 84.868, 186.978 84.738 L 195.500 84.500 195.175 89.488 C 194.744 96.098, 193.691 97.219, 188.596 96.492 C 184.542 95.913, 181.632 96.363, 169 99.519 C 165.425 100.412, 160.289 101.490, 157.588 101.913 C 152.659 102.686, 149 105.553, 149 108.643 C 149 110.590, 152.949 111.893, 155.995 110.950 C 157.373 110.524, 162.100 109.665, 166.500 109.040 C 170.900 108.416, 175.400 107.537, 176.500 107.086 C 179.342 105.923, 187.684 104, 189.892 104 C 193.690 104, 194.163 106.244, 194.365 125.205 C 194.472 135.267, 194.849 143.964, 195.203 144.531 C 195.557 145.098, 196.166 149.902, 196.555 155.207 L 197.263 164.852 193.382 165.852 C 191.247 166.402, 186.800 167.570, 183.500 168.447 C 180.200 169.324, 173.675 170.888, 169 171.922 C 158.182 174.316, 157 174.819, 157 177.025 C 157 181.858, 159.047 183.172, 162.171 180.345 C 163.842 178.833, 164.152 178.827, 165.751 180.274 C 166.853 181.272, 168.056 181.556, 169.001 181.041 C 169.825 180.591, 172.975 179.898, 176 179.500 C 179.025 179.102, 181.950 178.441, 182.500 178.031 C 184.147 176.805, 195.933 174.841, 197.146 175.590 C 198.360 176.340, 197.749 212.471, 196.450 216.750 C 195.681 219.282, 194 219.797, 194 217.500 C 194 216.673, 193.114 216, 192.025 216 C 189.946 216, 189.940 214.140, 191.991 206.500 C 193.300 201.623, 192.589 193.160, 190.712 191.283 C 188.824 189.395, 184.437 189.908, 169.500 193.762 C 165.100 194.898, 158.912 196.387, 155.750 197.073 C 152.562 197.764, 150 198.865, 150 199.543 C 150 200.216, 149.100 201.002, 148 201.290 C 143.308 202.517, 147.763 207.708, 153 207.116 C 154.375 206.960, 158.650 205.941, 162.500 204.851 C 173.186 201.826, 180.358 200.033, 181.841 200.016 C 182.899 200.003, 183.110 202.196, 182.841 210.409 C 182.653 216.134, 182.813 220.309, 183.196 219.688 C 183.578 219.066, 184.072 218.770, 184.292 219.029 C 184.939 219.790, 183.336 230.957, 181.559 238.075 C 179.691 245.554, 180.605 250.433, 183.753 249.787 C 185.200 249.490, 185.450 248.508, 185.207 244.079 C 184.776 236.214, 188.917 218, 191.137 218 C 192.998 218, 194.391 222.893, 193.203 225.259 C 191.526 228.599, 191.226 234.555, 192.750 234.250 C 194.387 233.923, 194.469 244.131, 192.842 245.758 C 191.966 246.634, 192.004 247.299, 193 248.499 C 193.764 249.420, 194.240 252.170, 194.138 255.066 C 193.948 260.435, 195.657 262.359, 198.513 259.989 C 199.670 259.029, 200.007 256.172, 200.029 247.128 C 200.045 240.732, 200.738 228.300, 201.569 219.500 C 202.400 210.700, 203.345 196.750, 203.668 188.500 C 203.992 180.250, 204.704 172.938, 205.251 172.250 C 205.798 171.563, 207.288 171, 208.563 171 C 209.839 171, 211.129 170.600, 211.432 170.110 C 212.110 169.013, 217.887 167.932, 224.384 167.685 C 227.634 167.562, 229.611 166.960, 230.293 165.886 C 231.791 163.527, 230.426 161, 227.654 161 C 226.329 161, 224.691 160.332, 224.014 159.517 C 222.989 158.282, 223.263 157.858, 225.641 156.990 C 232.420 154.516, 233.889 153.732, 234.440 152.295 C 234.799 151.359, 235.785 150.972, 237 151.290 C 238.629 151.716, 239.162 151.079, 240.041 147.653 C 240.628 145.369, 241.298 143.050, 241.531 142.500 C 241.764 141.950, 241.685 148.475, 241.355 157 C 241.026 165.525, 240.377 173.228, 239.913 174.119 C 239.450 175.009, 239.294 175.960, 239.567 176.234 C 239.840 176.507, 239.523 180.003, 238.862 184.003 C 237.939 189.596, 237.239 191.386, 235.831 191.755 C 234.824 192.018, 234 192.631, 234 193.117 C 234 194.917, 230.215 193.932, 229.710 192 C 229.012 189.330, 225.913 189.434, 218.710 192.368 C 209.847 195.978, 208 198.175, 208 205.107 C 208 209.712, 208.351 210.977, 209.750 211.423 C 211.226 211.894, 211.524 213.363, 211.654 220.797 C 211.852 232.089, 215.251 241.311, 219.403 241.816 C 222.193 242.156, 222.804 240.484, 221.077 237.236 C 219.104 233.526, 217.053 223.054, 216.409 213.403 L 215.735 203.307 220.183 201.153 C 222.630 199.969, 225.299 199, 226.116 199 C 226.932 199, 228.096 198.504, 228.702 197.898 C 229.504 197.096, 230.578 197.171, 232.652 198.175 C 235.023 199.323, 235.478 200.135, 235.368 203.027 C 235.171 208.198, 234.793 237.305, 234.904 238.750 C 234.957 239.438, 235.643 240, 236.429 240 C 238.440 240, 241.022 230.448, 240.349 225.500 C 239.603 220.017, 241.660 188.024, 242.982 184.547 C 244.070 181.686, 246.628 159.066, 247.511 144.500 C 248.384 130.101, 249.012 122.543, 249.555 119.909 C 250.282 116.380, 247.812 114.309, 244.614 115.766 C 241.072 117.380, 238.784 125.435, 239.601 133.411 C 240.240 139.642, 240.189 139.829, 237.377 141.630 C 235.795 142.643, 234.050 143.970, 233.500 144.578 C 231.519 146.769, 222.034 150, 217.584 150 C 213.596 150, 212.963 149.700, 212.424 147.555 C 212.087 146.210, 212.303 142.813, 212.905 140.006 C 214.694 131.666, 214.379 129.095, 211.435 127.975 C 206.467 126.086, 204.600 128.989, 203.704 140 C 203.361 144.204, 208.300 155.965, 210.972 157.309 C 214.813 159.239, 214.478 160.794, 209.960 162.011 C 207.667 162.628, 205.237 162.921, 204.560 162.661 C 203.865 162.395, 202.825 158.556, 202.170 153.845 C 200.679 143.118, 199.491 111.526, 200.397 106.697 C 201.001 103.477, 201.390 103.060, 203.336 103.548 C 204.569 103.858, 206.798 103.647, 208.289 103.080 C 210.698 102.164, 211 101.534, 211 97.419 C 211 93.939, 211.621 92.051, 213.500 89.818 C 215.083 87.937, 216 85.612, 216 83.482 C 216 79.808, 217.020 78.766, 220.932 78.448 C 222.344 78.333, 226.200 77.754, 229.500 77.162 C 232.800 76.569, 238.167 75.626, 241.426 75.066 C 248.397 73.868, 249.266 73.200, 248.828 69.372 C 248.513 66.616, 248.265 66.488, 242.661 66.197 C 239.148 66.015, 233.498 66.713, 228.483 67.947 C 223.898 69.076, 219.888 70, 219.573 70 C 218.423 70, 219.040 60.187, 220.489 55.409 C 223.101 46.801, 222.148 42, 217.829 42 C 216.854 42, 213.513 43.125, 210.404 44.500 C 207.295 45.875, 203.655 47, 202.315 47 C 199.910 47, 199.881 46.890, 200.006 38.250 C 200.075 33.438, 200.102 28.761, 200.066 27.857 C 199.992 26.019, 198.330 25.183, 195.853 25.738 M 73.228 49.039 C 70.959 49.951, 69.267 52.601, 70.297 53.631 C 70.597 53.930, 72.536 54.557, 74.607 55.024 C 77.457 55.667, 78.631 55.529, 79.436 54.455 C 80.183 53.459, 80.946 53.329, 82 54.019 C 83.310 54.876, 83.315 55.119, 82.040 55.939 C 80.793 56.741, 80.863 57.191, 82.519 59.022 C 83.586 60.200, 85.819 61.755, 87.480 62.475 C 89.141 63.195, 92.906 66.115, 95.847 68.962 C 106.034 78.827, 106.963 70.979, 96.867 60.333 C 86.960 49.885, 79.726 46.429, 73.228 49.039 M 204.250 55.119 L 201 56.057 201 64.060 C 201 72.815, 201.678 73.833, 206.328 72.066 C 208.552 71.220, 209 70.436, 209 67.391 C 209 65.378, 209.532 61.957, 210.182 59.787 C 211.159 56.524, 211.116 55.686, 209.932 54.937 C 208.286 53.895, 208.514 53.888, 204.250 55.119 M 165 56.893 C 165 57.384, 165.563 57.993, 166.250 58.246 C 168.008 58.892, 170.125 58.011, 169.447 56.915 C 168.719 55.737, 165 55.719, 165 56.893 M 159.473 58.956 C 159.798 59.482, 160.725 59.659, 161.532 59.349 C 163.599 58.556, 163.356 58, 160.941 58 C 159.809 58, 159.148 58.430, 159.473 58.956 M 74.527 61.264 C 73.687 62.464, 73 64.865, 73 66.600 C 73 68.335, 72.375 70.274, 71.611 70.908 C 70.847 71.542, 70.021 73.111, 69.776 74.394 C 69.418 76.264, 69.693 76.631, 71.165 76.247 C 72.174 75.983, 73 75.199, 73 74.506 C 73 73.812, 73.708 72.657, 74.573 71.939 C 76.933 69.981, 80.061 63.322, 79.413 61.635 C 78.457 59.143, 76.136 58.967, 74.527 61.264 M 65.483 66.660 C 63.152 68.991, 59.439 75.031, 58.511 78 C 58.082 79.375, 57.451 80.725, 57.110 81 C 56.076 81.832, 51 88.827, 51 89.418 C 51 89.933, 41.518 102.729, 38.748 105.952 C 25.270 121.636, 22 125.635, 22 126.435 C 22 126.961, 20.817 128.626, 19.370 130.136 C 17.797 131.777, 16.981 133.508, 17.339 134.440 C 18.595 137.715, 19.918 136.664, 28.548 125.533 C 32.372 120.602, 38.087 113.986, 41.250 110.833 C 44.413 107.679, 47 104.579, 47 103.944 C 47 103.308, 48.013 101.527, 49.250 99.984 C 53.958 94.115, 55 92.557, 55 91.380 C 55 90.713, 55.392 90.017, 55.871 89.833 C 57.045 89.384, 63.318 79.297, 64.940 75.250 C 65.656 73.463, 66.854 72, 67.602 72 C 69.133 72, 70.538 67.679, 69.535 66.057 C 68.611 64.562, 67.401 64.742, 65.483 66.660 M 211 66.941 C 211 69.895, 212.707 70.311, 213.247 67.488 C 213.565 65.823, 213.272 65, 212.361 65 C 211.613 65, 211 65.873, 211 66.941 M 176 81 C 174.707 81.835, 174.734 81.971, 176.191 81.985 C 177.121 81.993, 178.160 81.550, 178.500 81 C 179.282 79.734, 177.958 79.734, 176 81 M 202.031 82.463 C 201.363 83.267, 200.571 86.642, 200.270 89.963 L 199.722 96 202.802 96 C 204.496 96, 206.157 95.555, 206.493 95.012 C 207.691 93.072, 210.007 82.820, 209.450 81.918 C 208.553 80.468, 203.370 80.849, 202.031 82.463 M 140.750 88.662 C 141.438 88.940, 142.563 88.940, 143.250 88.662 C 143.938 88.385, 143.375 88.158, 142 88.158 C 140.625 88.158, 140.063 88.385, 140.750 88.662 M 58 112.042 C 46.780 114.004, 38.589 117.022, 37.618 119.554 C 36.748 121.820, 40.937 127, 43.638 127 C 44.883 127, 46.260 126.418, 46.700 125.707 C 48.294 123.129, 69.947 118.085, 81 117.717 C 86.844 117.522, 87.531 117.279, 87.811 115.313 C 88.580 109.912, 77.277 108.672, 58 112.042 M 170.945 117.566 C 169.917 118.805, 169.892 119.812, 170.825 122.392 C 171.593 124.518, 171.775 128.357, 171.347 133.422 C 170.908 138.614, 171.051 141.414, 171.779 141.863 C 172.548 142.338, 172.401 144.658, 171.280 149.768 C 169.839 156.337, 169.469 157, 167.251 157 C 165.908 157, 163.614 157.806, 162.154 158.792 C 157.024 162.255, 152.245 164.308, 150.697 163.714 C 148.922 163.033, 149.139 157.789, 151.544 143.216 C 152.296 138.660, 152.669 134.300, 152.372 133.527 C 152.076 132.754, 152.357 129.597, 152.998 126.511 C 153.898 122.176, 153.889 120.571, 152.959 119.450 C 151.425 117.602, 147.278 117.579, 145.449 119.408 C 143.638 121.219, 143.202 134.640, 144.854 137.727 C 146.749 141.268, 146.446 150.718, 144.070 162.161 C 143.052 167.064, 142.488 167.919, 138.963 169.901 C 136.443 171.317, 135 172.844, 135 174.095 C 135 176.649, 137.718 177.657, 140.283 176.055 C 142.236 174.836, 142.281 174.967, 141.691 180.148 C 139.664 197.944, 138.845 203.488, 138.103 204.436 C 137.645 205.021, 136.970 209.325, 136.604 214 C 135.959 222.238, 133.065 240.600, 130.899 250.206 C 129.759 255.260, 130.288 258.513, 132.379 259.315 C 135.379 260.467, 136.498 258.144, 136.718 250.306 C 136.837 246.033, 137.623 238.254, 138.463 233.019 C 139.303 227.783, 140.437 220.350, 140.984 216.500 C 141.530 212.650, 143.147 202.300, 144.576 193.500 C 146.849 179.503, 147.504 177.151, 149.809 174.713 C 151.259 173.181, 153.582 171.654, 154.972 171.322 C 156.363 170.989, 160.649 168.868, 164.498 166.608 C 169.092 163.912, 172.699 162.500, 174.998 162.500 C 178.075 162.500, 178.538 162.166, 178.816 159.750 C 179.069 157.558, 178.725 157, 177.125 157 C 174.668 157, 173.489 155.335, 174.793 153.706 C 178.290 149.336, 180.174 130.765, 178.048 121.604 C 176.792 116.189, 173.596 114.372, 170.945 117.566 M 67.174 131.314 C 65.919 132.651, 65 134.923, 65 136.692 C 65 141.137, 63.052 142.188, 54.783 142.208 C 48.907 142.223, 47.077 142.613, 45.311 144.230 C 43.741 145.668, 42.139 146.118, 39.638 145.826 C 36.683 145.481, 36.089 145.753, 35.733 147.614 C 34.930 151.818, 36.601 153.002, 43.300 152.976 C 46.710 152.962, 51.464 152.498, 53.865 151.945 C 59.146 150.727, 62 151.472, 62 154.067 C 62 156.272, 63.053 156.547, 64.800 154.800 C 66.420 153.180, 66.389 153.873, 64.014 172.732 C 62.135 187.653, 61.436 195.778, 60.562 212.879 C 60.096 221.999, 58.031 225.051, 41 241.797 C 32.455 250.199, 30.067 251.381, 21.500 251.447 L 14.500 251.500 14.500 255.997 L 14.500 260.493 25.500 260.173 C 31.550 259.996, 40.325 259.208, 45 258.420 C 49.675 257.632, 57.325 256.524, 62 255.958 C 66.675 255.392, 72.300 254.702, 74.500 254.426 C 76.700 254.149, 84.073 253.246, 90.885 252.418 C 103.737 250.855, 109 249.090, 109 246.344 C 109 244.903, 107.088 244.812, 90.250 245.451 C 65.021 246.408, 56.083 247.209, 43.750 249.621 C 39.502 250.452, 40.374 248.419, 46.726 242.676 C 49.876 239.829, 53.907 236.071, 55.686 234.324 C 57.464 232.577, 60.157 230.552, 61.670 229.824 C 63.468 228.959, 64.639 227.436, 65.048 225.431 C 65.720 222.135, 69.003 216, 70.095 216 C 70.941 216, 79.263 205.122, 80.218 202.769 C 80.711 201.553, 82.025 201, 84.420 201 C 87.435 201, 88.330 200.381, 91.068 196.402 C 93.804 192.424, 94.080 191.471, 93.109 189.339 C 92.198 187.340, 91.377 186.933, 88.761 187.187 C 86.262 187.430, 85.315 188.132, 84.554 190.309 C 83.820 192.408, 83.906 193.324, 84.893 193.934 C 85.818 194.506, 85.882 194.955, 85.107 195.434 C 84.498 195.810, 84 195.641, 84 195.059 C 84 192.670, 79.901 194.191, 77.765 197.373 C 70.876 207.633, 66.816 213, 65.943 213 C 64.568 213, 65.631 197.470, 68.579 174.500 C 69.921 164.050, 71.253 154.362, 71.540 152.971 C 72.256 149.499, 75.496 147.659, 82 147.031 C 87.326 146.517, 87.500 146.405, 87.500 143.500 C 87.500 140.533, 87.438 140.499, 81.839 140.391 C 73.654 140.234, 72.652 139.667, 73.411 135.624 C 74.634 129.102, 71.371 126.847, 67.174 131.314 M 25 185.878 C 25 189.373, 27.502 191.898, 29.242 190.158 C 31.118 188.282, 32.999 188.828, 33.010 191.250 C 33.019 193.266, 35.514 198.954, 39.479 206 C 40.253 207.375, 42.895 210.465, 45.350 212.867 C 49.540 216.966, 52 217.594, 52 214.564 C 52 213.419, 41.803 194.153, 38.998 190 C 38.441 189.175, 37.487 187.533, 36.879 186.352 C 35.803 184.265, 32.218 183, 27.375 183 C 25.425 183, 25 183.515, 25 185.878 M 135.079 200.583 C 135.127 201.748, 135.364 201.985, 135.683 201.188 C 135.972 200.466, 135.936 199.603, 135.604 199.271 C 135.272 198.939, 135.036 199.529, 135.079 200.583 M 190 255.417 C 190 256.288, 190.713 257, 191.583 257 C 192.454 257, 192.989 256.466, 192.771 255.813 C 192.153 253.958, 190 253.651, 190 255.417" stroke="none" fill="black" fill-rule="evenodd"/>
</svg>