<svg xmlns="http://www.w3.org/2000/svg" width="300" height="300" viewBox="0 0 300 300" version="1.1">
	<path d="M 195 17.500 C 193.708 18.875, 191.992 20, 191.186 20 C 187.844 20, 185.774 26.735, 187.862 30.816 C 189.426 33.873, 189.931 37.494, 189.003 38.995 C 188.421 39.937, 185.627 40.714, 181.295 41.137 C 168.738 42.364, 166.203 43.053, 165.614 45.401 C 164.696 49.059, 165.999 51.841, 168.932 52.485 C 171.656 53.083, 178.376 51.948, 183.387 50.043 C 187.489 48.483, 189.988 51.564, 190.044 58.250 C 190.068 61.138, 190.467 65.465, 190.931 67.867 C 191.410 70.348, 191.384 73.648, 190.870 75.509 C 190.128 78.197, 189.341 78.901, 186.483 79.437 C 182.609 80.164, 181.947 81.531, 185 82.500 C 187.464 83.282, 187.638 85.006, 185.250 84.985 C 182.390 84.960, 180.869 83.504, 181.631 81.519 C 182.267 79.861, 181.890 79.757, 177.414 80.351 C 174.710 80.709, 170.131 81.902, 167.238 83.001 C 164.346 84.101, 161.278 85, 160.423 85 C 159.567 85, 157.209 86.219, 155.183 87.710 C 153.157 89.200, 151.377 90.485, 151.226 90.566 C 150.170 91.135, 152.569 93.776, 154.964 94.680 C 157.287 95.557, 159.248 95.383, 164.687 93.818 C 172.740 91.501, 177.627 90.446, 188.730 88.626 C 193.257 87.885, 197.532 86.816, 198.230 86.252 C 198.929 85.687, 205.125 85.037, 212 84.806 C 224.507 84.387, 229 83.255, 229 80.524 C 229 78.212, 227.683 77.956, 213.392 77.483 C 205.860 77.234, 199.452 76.786, 199.154 76.487 C 198.235 75.568, 199.062 56.719, 200.190 52.852 C 201.375 48.796, 203.659 47.298, 211.500 45.436 C 221.936 42.958, 228 40.192, 228 37.910 C 228 35.327, 223.220 34.658, 217.976 36.508 C 215.525 37.373, 211.113 38.285, 208.172 38.536 C 205.231 38.786, 202.505 39.188, 202.114 39.429 C 198.749 41.509, 197.105 28.752, 200.285 25.238 C 201.215 24.210, 202.255 21.977, 202.595 20.277 C 203.088 17.808, 202.801 16.964, 201.172 16.092 C 198.278 14.543, 197.641 14.689, 195 17.500 M 70.191 38.769 C 69.101 39.721, 67.442 43.200, 66.504 46.500 C 65.567 49.800, 64.455 53.400, 64.034 54.500 C 60.452 63.850, 59.052 67.994, 58.463 71 C 58.086 72.925, 57.210 75.175, 56.517 76 C 55.824 76.825, 53.782 80.200, 51.979 83.500 C 50.177 86.800, 47.869 90.573, 46.851 91.885 C 45.833 93.197, 45 94.903, 45 95.677 C 45 96.450, 44.158 97.988, 43.128 99.092 C 41.444 100.901, 38.624 107.101, 34.301 118.500 C 33.467 120.700, 32.158 123.694, 31.392 125.154 C 30.626 126.614, 30 128.511, 30 129.369 C 30 130.227, 29.100 131.411, 28 132 C 26.900 132.589, 26 133.744, 26 134.567 C 26 135.389, 25.325 136.322, 24.500 136.638 C 22.403 137.443, 22.491 143, 24.600 143 C 27.627 143, 38.246 129.780, 40.631 123.042 C 41.321 121.094, 42.811 117.717, 43.943 115.539 C 45.074 113.360, 46 110.820, 46 109.896 C 46 108.971, 46.617 107.977, 47.372 107.688 C 48.126 107.398, 49.780 104.987, 51.048 102.331 C 52.315 99.674, 55.298 94.690, 57.676 91.255 C 60.054 87.820, 62 84.705, 62 84.333 C 62 83.962, 62.597 82.947, 63.327 82.079 C 64.058 81.210, 65.217 78.475, 65.903 76 C 66.590 73.525, 67.977 69.700, 68.985 67.500 C 69.993 65.300, 71.573 60.800, 72.497 57.500 C 73.421 54.200, 75.037 50.097, 76.088 48.382 C 78.932 43.743, 78.588 40.355, 75.087 38.545 C 72.441 37.177, 71.992 37.198, 70.191 38.769 M 83.404 49.765 C 82.801 50.169, 82.025 51.660, 81.678 53.077 C 81.175 55.138, 81.695 56.254, 84.274 58.646 C 86.048 60.292, 89.525 62.488, 92 63.527 C 94.475 64.566, 97.600 66.474, 98.945 67.767 C 100.290 69.060, 102.652 70.863, 104.195 71.774 C 105.738 72.686, 107 73.784, 107 74.216 C 107 74.647, 107.490 75, 108.090 75 C 109.066 75, 111.292 76.785, 117.130 82.250 C 118.159 83.213, 120.125 84, 121.500 84 C 125.162 84, 124.810 79.874, 120.750 75.223 C 110.711 63.722, 104.189 58.283, 94.923 53.684 C 84.654 48.588, 84.990 48.702, 83.404 49.765 M 96.313 60.718 C 95.480 61.003, 95.621 61.702, 96.785 63.062 C 98.466 65.026, 102 65.739, 102 64.115 C 102 62.815, 97.695 60.244, 96.313 60.718 M 104 65.941 C 104 66.459, 104.445 67.157, 104.989 67.493 C 105.555 67.843, 105.723 67.442, 105.382 66.552 C 104.717 64.820, 104 64.503, 104 65.941 M 169.250 85.007 C 168.012 85.518, 167 86.625, 167 87.468 C 167 89.762, 173.186 89.440, 176 87 C 177.494 85.704, 177.812 84.995, 176.903 84.986 C 176.131 84.979, 174.600 84.771, 173.500 84.526 C 172.400 84.280, 170.488 84.496, 169.250 85.007 M 199 89.995 C 198.175 90.531, 195.700 90.983, 193.500 91 C 191.300 91.017, 188.925 91.395, 188.223 91.841 C 186.422 92.984, 180 103.143, 180 104.848 C 180 106.971, 175.911 113.186, 172.770 115.839 C 171.246 117.125, 170 118.813, 170 119.589 C 170 120.365, 169.622 121, 169.161 121 C 168.699 121, 167.859 122.013, 167.293 123.250 C 166.728 124.487, 165.117 126.850, 163.714 128.500 C 162.310 130.150, 159.359 133.625, 157.157 136.223 C 152.509 141.705, 151.474 144.265, 152.909 146.730 C 153.847 148.341, 153.942 148.348, 153.970 146.809 C 154.010 144.584, 155.153 143.966, 157.901 144.684 C 159.641 145.139, 160.021 145.780, 159.584 147.522 C 158.564 151.586, 161.088 152.485, 169.801 151.159 C 174.036 150.514, 179.075 149.988, 181 149.990 C 182.925 149.991, 185.973 149.094, 187.774 147.996 C 189.575 146.898, 191.825 145.989, 192.774 145.975 C 195.678 145.934, 205.679 142.273, 210.325 139.550 C 212.742 138.133, 216.336 135.405, 218.310 133.487 C 220.285 131.569, 222.511 130, 223.258 130 C 224.110 130, 225.282 132.694, 226.410 137.250 C 227.397 141.238, 228.834 145.918, 229.602 147.651 C 230.371 149.384, 231.003 151.184, 231.006 151.651 C 231.009 152.118, 231.480 154.188, 232.053 156.250 C 232.910 159.336, 233.547 160, 235.655 160 L 238.216 160 237.549 149.824 C 237.183 144.228, 236.516 138.940, 236.069 138.074 C 235.622 137.209, 234.929 134.250, 234.529 131.500 C 234.130 128.750, 233.384 125.717, 232.872 124.760 C 232.360 123.804, 231.086 118.939, 230.042 113.949 C 227.417 101.410, 225.582 99.443, 221.923 105.250 C 220.160 108.047, 219.959 109.515, 220.482 115.783 L 221.089 123.066 216.960 126.773 C 214.690 128.811, 210.958 131.171, 208.668 132.017 C 205.729 133.103, 204.504 134.130, 204.502 135.511 C 204.501 136.587, 203.713 137.620, 202.750 137.807 C 201.787 137.994, 201 137.617, 201 136.970 C 201 135.493, 192.341 136.413, 187.602 138.393 C 185.804 139.144, 180.556 139.926, 175.940 140.129 C 165.591 140.586, 165.125 139.737, 171.482 132.007 C 173.967 128.986, 176 126.192, 176 125.797 C 176 125.114, 186.351 110.912, 191.573 104.431 C 192.933 102.743, 196.505 99.818, 199.510 97.931 C 203.478 95.440, 204.978 93.884, 204.987 92.250 C 204.994 91.013, 204.587 90, 204.082 90 C 203.577 90, 202.564 89.780, 201.832 89.511 C 201.099 89.241, 199.825 89.459, 199 89.995 M 48.459 95.067 C 48.096 95.653, 48.014 96.348, 48.276 96.610 C 48.538 96.872, 49.019 96.392, 49.345 95.543 C 50.021 93.781, 49.445 93.471, 48.459 95.067 M 90.500 108.146 C 83.350 108.618, 76.195 109.454, 74.601 110.002 C 73.006 110.551, 68.236 111, 64 111 C 56.287 111, 50.143 112.377, 48.765 114.414 C 47.389 116.448, 47.995 119.927, 49.902 120.948 C 52.361 122.264, 66.605 121.479, 75 119.564 C 81.376 118.110, 84.343 117.628, 106.473 114.451 C 117.372 112.886, 120 111.921, 120 109.485 C 120 106.762, 114.935 106.532, 90.500 108.146 M 81.500 113 C 81.160 113.550, 81.584 114, 82.441 114 C 83.298 114, 84 113.550, 84 113 C 84 112.450, 83.577 112, 83.059 112 C 82.541 112, 81.840 112.450, 81.500 113 M 67.250 114.662 C 66.563 114.940, 66 115.579, 66 116.083 C 66 117.534, 68.631 117.150, 70 115.500 C 71.004 114.290, 70.980 114.015, 69.872 114.079 C 69.118 114.122, 67.938 114.385, 67.250 114.662 M 90.396 125.528 C 88.803 126.919, 86.938 128.512, 86.250 129.068 C 85.096 130.001, 84.748 132.957, 84.553 143.500 C 84.455 148.815, 83.533 150, 79.500 150 C 77.640 150, 75.840 150.450, 75.500 151 C 75.160 151.550, 72.939 152, 70.564 152 C 65.030 152, 46.888 157.529, 45.250 159.714 C 43.604 161.910, 43.658 162.356, 45.900 165.125 L 47.800 167.471 54.650 165.589 C 58.418 164.554, 63.956 163.349, 66.958 162.911 C 69.960 162.474, 74.098 161.357, 76.154 160.430 C 78.210 159.503, 80.512 158.982, 81.269 159.273 C 82.679 159.814, 83.498 168.722, 83.313 181.500 C 83.025 201.436, 82.996 213.875, 83.231 216.500 C 83.475 219.223, 83.199 219.529, 80.229 219.815 C 78.430 219.988, 74.564 219.434, 71.637 218.583 C 66.607 217.121, 65.489 216.260, 57.802 207.942 C 56.184 206.190, 55.915 206.184, 52.062 207.802 C 47.779 209.602, 46.624 212, 50.040 212 C 51.163 212, 53.525 213.011, 55.290 214.247 C 57.056 215.482, 58.687 216.607, 58.917 216.747 C 59.146 216.886, 59.036 217.297, 58.673 217.661 C 58.310 218.024, 57.110 217.504, 56.006 216.506 C 54.385 215.039, 54 214.974, 54 216.171 C 54 221.326, 75.947 230.131, 78.500 226 C 79.126 224.987, 83 224.568, 83 225.514 C 83 226.597, 80.432 230.528, 79 231.637 C 78.175 232.275, 76.150 233.971, 74.500 235.405 C 72.850 236.839, 70.713 238.265, 69.750 238.573 C 68.787 238.882, 68 239.554, 68 240.067 C 68 240.580, 67.132 241, 66.071 241 C 63.796 241, 61 243.534, 61 245.596 C 61 246.396, 62.125 247.477, 63.500 248 C 64.875 248.523, 66 249.412, 66 249.975 C 66 251.345, 73.700 251.295, 74.550 249.919 C 74.918 249.324, 76.288 249.107, 77.596 249.435 C 80.462 250.154, 102.373 247.406, 105.005 245.997 C 106.030 245.449, 108.361 244.997, 110.184 244.993 C 113.749 244.986, 127.515 240.647, 129.683 238.848 C 130.407 238.247, 131 237.135, 131 236.378 C 131 234.703, 125.116 234.518, 119.993 236.032 C 115.089 237.482, 92.691 239.010, 91.606 237.969 C 90.017 236.445, 93.254 230.680, 98.965 224.862 C 102.009 221.761, 106.630 216.361, 109.234 212.862 C 111.837 209.363, 116.674 203.125, 119.982 199 C 123.290 194.875, 125.998 190.905, 125.998 190.179 C 126.001 187.921, 123.201 185.924, 120.674 186.383 C 117.938 186.879, 114 189.125, 114 190.189 C 114 190.578, 112.875 192.110, 111.501 193.593 C 108.522 196.808, 103.240 204.762, 99.942 211 C 92.859 224.399, 90.548 221.281, 92.156 200.500 C 92.624 194.450, 93.214 185.450, 93.466 180.500 C 93.999 170.073, 94.934 160.245, 95.627 157.788 C 96.027 156.371, 97.607 156.027, 104.805 155.788 C 113.308 155.506, 113.500 155.445, 113.500 153.030 C 113.500 150.032, 110.067 148.036, 104.875 148.015 C 102.881 148.007, 99.844 147.719, 98.125 147.375 C 94.286 146.607, 94.173 145.139, 97.083 133.911 C 98.229 129.491, 98.918 125.228, 98.614 124.438 C 97.753 122.192, 93.583 122.746, 90.396 125.528 M 185 142.500 C 183.963 143.750, 184.095 144, 185.796 144 C 188.518 144, 191 142.995, 191 141.893 C 191 140.416, 186.338 140.888, 185 142.500 M 176.323 143.765 C 175.125 143.961, 173.607 144.768, 172.950 145.560 C 171.957 146.757, 172.239 146.995, 174.628 146.968 C 177.898 146.932, 181.880 144.502, 179.779 143.824 C 179.076 143.597, 177.520 143.570, 176.323 143.765 M 169.079 145.583 C 169.127 146.748, 169.364 146.985, 169.683 146.188 C 169.972 145.466, 169.936 144.603, 169.604 144.271 C 169.272 143.939, 169.036 144.529, 169.079 145.583 M 163.500 147 C 163.840 147.550, 164.541 148, 165.059 148 C 165.577 148, 166 147.550, 166 147 C 166 146.450, 165.298 146, 164.441 146 C 163.584 146, 163.160 146.450, 163.500 147 M 73.583 153.866 C 73.152 154.563, 73.070 155.403, 73.400 155.733 C 74.295 156.628, 75.271 155.312, 74.787 153.862 C 74.449 152.846, 74.213 152.846, 73.583 153.866 M 88.015 156.750 C 88.027 158.893, 88.245 159.169, 89 158 C 90.264 156.043, 90.264 154, 89 154 C 88.450 154, 88.007 155.238, 88.015 156.750 M 66 157 C 66 157.550, 66.423 158, 66.941 158 C 67.459 158, 68.160 157.550, 68.500 157 C 68.840 156.450, 68.416 156, 67.559 156 C 66.702 156, 66 156.450, 66 157 M 231 164.095 C 228.525 164.550, 223.679 165.341, 220.231 165.854 C 216.783 166.367, 213.393 167.259, 212.696 167.837 C 212 168.415, 209.871 168.859, 207.965 168.825 C 203.584 168.745, 196.111 169.885, 193.500 171.032 C 192.400 171.515, 189.250 172.577, 186.500 173.392 C 175.323 176.706, 157.381 185.156, 155.500 187.992 C 154.050 190.179, 154.227 192.325, 155.973 193.718 C 157.832 195.201, 163 195.395, 163 193.982 C 163 193.422, 166.262 191.468, 170.250 189.640 C 181.581 184.446, 183.251 183.849, 184.064 184.702 C 184.481 185.141, 185.494 191.350, 186.313 198.500 C 188.040 213.558, 189.023 217.793, 191.620 221.364 C 194.080 224.747, 196.812 225.616, 198.785 223.644 C 200.358 222.071, 199.904 218.992, 196.976 211.378 C 196.018 208.889, 194.722 195.079, 194.640 186.500 L 194.582 180.500 198.541 179.666 C 200.718 179.208, 204.222 178.337, 206.326 177.731 C 211.151 176.342, 211.987 177.428, 211.922 185 C 211.829 195.720, 208.475 220.860, 206.926 222.450 C 205.627 223.783, 205.773 227.373, 207.183 228.783 C 209.038 230.638, 207.582 231.262, 199.254 232.183 C 182.980 233.983, 169.771 234.264, 164.205 232.929 C 159.131 231.712, 158.634 231.320, 156.758 227.062 C 155.537 224.290, 154.204 217.595, 153.361 210 C 152.598 203.125, 151.478 195.875, 150.872 193.888 C 149.389 189.023, 151.251 184.014, 156.270 179.370 C 160.272 175.668, 160.811 172.780, 157.615 172.164 C 156.592 171.967, 154.477 172.750, 152.917 173.903 C 151.357 175.056, 149.195 176, 148.113 176 C 147.031 176, 145.159 177.238, 143.954 178.750 C 141.865 181.371, 141.796 182.088, 142.467 194 C 143.472 211.819, 144.144 215.567, 146.270 215.206 C 147.222 215.045, 148 215.409, 148 216.015 C 148 216.622, 147.582 216.860, 147.072 216.544 C 145.116 215.336, 144.831 220.274, 146.649 223.855 C 147.667 225.860, 148.831 227.747, 149.235 228.050 C 149.639 228.352, 150.260 230.048, 150.614 231.819 C 151.221 234.856, 151.024 235.136, 147.118 236.769 C 142.290 238.788, 141.985 241.327, 146.509 241.838 C 148.154 242.025, 149.950 242.534, 150.500 242.970 C 151.050 243.406, 160.050 243.654, 170.500 243.521 C 188.709 243.289, 201.069 242.081, 207.500 239.904 C 209.150 239.345, 218.825 238.451, 229 237.916 C 239.175 237.381, 248.850 236.546, 250.500 236.060 C 252.150 235.573, 256.648 234.421, 260.496 233.500 C 267.108 231.915, 268.969 230.817, 268.969 228.500 C 268.969 225.591, 267.085 224.932, 258.670 224.901 C 249.784 224.868, 248.606 224.250, 251.382 221.079 C 254.329 217.712, 258.399 193.046, 257.713 182.712 C 257.342 177.133, 256.687 175.086, 254.033 171.212 C 248.798 163.574, 243.216 161.849, 231 164.095 M 87 167.667 C 87 171.952, 87.464 171.807, 88.331 167.250 C 88.687 165.383, 88.535 164, 87.975 164 C 87.439 164, 87 165.650, 87 167.667 M 223.542 167.932 C 222.358 169.848, 223.775 170.574, 227.925 170.179 C 232.281 169.763, 233.622 168, 229.582 168 C 228.252 168, 226.497 167.744, 225.683 167.432 C 224.869 167.119, 223.905 167.344, 223.542 167.932 M 231.062 173.387 C 222.448 174.691, 222.833 174.072, 221.054 189.500 C 220.002 198.630, 217.922 210.462, 216.184 217.212 C 215.658 219.254, 213.780 222.752, 212.012 224.985 L 208.796 229.045 221.148 228.451 C 241.636 227.465, 241.967 227.276, 244.147 215.257 C 244.722 212.090, 245.580 207.925, 246.055 206 C 246.530 204.075, 247.094 197.067, 247.309 190.426 C 247.678 179.027, 247.573 178.204, 245.432 175.716 C 242.551 172.367, 240.254 171.994, 231.062 173.387 M 199 174 C 199 174.550, 199.648 175, 200.441 175 C 201.234 175, 202.160 174.550, 202.500 174 C 202.840 173.450, 202.191 173, 201.059 173 C 199.927 173, 199 173.450, 199 174 M 185.543 176.931 C 184.543 178.548, 186.390 178.770, 189.500 177.406 L 192.500 176.090 189.309 176.045 C 187.554 176.020, 185.859 176.419, 185.543 176.931 M 176.362 180.500 C 176.045 181.325, 174.822 182.007, 173.643 182.015 C 171.041 182.034, 168.298 183.631, 169.243 184.577 C 169.940 185.273, 175.889 182.819, 179.473 180.356 C 181.398 179.032, 181.391 179, 179.191 179 C 177.951 179, 176.678 179.675, 176.362 180.500 M 214.649 181.233 C 214.328 182.461, 214.501 183.901, 215.033 184.433 C 215.656 185.056, 216 184.261, 216 182.200 C 216 178.460, 215.473 178.083, 214.649 181.233 M 251 188.500 C 251 189.991, 251.431 190.852, 252 190.500 C 252.550 190.160, 253 189.260, 253 188.500 C 253 187.740, 252.550 186.840, 252 186.500 C 251.431 186.148, 251 187.009, 251 188.500 M 85 202.559 C 85 203.416, 85.450 203.840, 86 203.500 C 86.550 203.160, 87 202.459, 87 201.941 C 87 201.423, 86.550 201, 86 201 C 85.450 201, 85 201.702, 85 202.559 M 239 231.576 C 235.598 232.476, 234.930 232.944, 236.263 233.495 C 237.232 233.896, 238.582 233.767, 239.263 233.208 C 239.943 232.649, 241.625 232.035, 243 231.845 C 244.375 231.654, 245.050 231.248, 244.500 230.942 C 243.950 230.637, 241.475 230.922, 239 231.576 M 215.500 233.645 C 212.565 236.230, 212.555 236.273, 215 235.657 C 216.375 235.311, 219.975 234.993, 223 234.950 C 227.139 234.892, 227.969 234.659, 226.352 234.007 C 225.171 233.530, 223.907 232.659, 223.543 232.070 C 222.377 230.183, 218.588 230.925, 215.500 233.645 M 208.458 233.068 C 208.095 233.656, 207.262 233.931, 206.607 233.679 C 205.952 233.428, 204.657 233.778, 203.728 234.457 C 202.302 235.500, 202.734 235.676, 206.520 235.595 C 210.083 235.520, 211 235.142, 211 233.750 C 211 231.811, 209.486 231.405, 208.458 233.068 M 192.098 237.122 L 189.778 239 193.330 239 C 197.438 239, 198.624 237.871, 196.144 236.322 C 194.813 235.491, 193.886 235.674, 192.098 237.122 M 183.803 236.530 C 183.239 237.094, 179.649 237.663, 175.250 237.886 C 174.012 237.949, 173 238.490, 173 239.088 C 173 239.798, 174.352 239.947, 176.897 239.517 C 179.114 239.143, 181.055 239.280, 181.398 239.835 C 182.150 241.052, 187.117 238.915, 186.679 237.563 C 186.299 236.391, 184.565 235.768, 183.803 236.530 M 155.574 237.880 C 155.094 238.656, 153.839 238.925, 152.391 238.562 C 150.656 238.126, 150 238.378, 150 239.481 C 150 240.394, 150.897 240.994, 152.250 240.985 C 155.239 240.964, 157.348 239.543, 156.805 237.915 C 156.451 236.852, 156.214 236.845, 155.574 237.880 M 160.813 238.683 C 161.534 238.972, 162.397 238.936, 162.729 238.604 C 163.061 238.272, 162.471 238.036, 161.417 238.079 C 160.252 238.127, 160.015 238.364, 160.813 238.683 M 165.500 239 C 165.840 239.550, 166.793 240, 167.618 240 C 168.443 240, 168.840 239.550, 168.500 239 C 168.160 238.450, 167.207 238, 166.382 238 C 165.557 238, 165.160 238.450, 165.500 239" stroke="none" fill="black" fill-rule="evenodd"/>
</svg>