<svg xmlns="http://www.w3.org/2000/svg" width="300" height="300" viewBox="0 0 300 300" version="1.1">
	<path d="M 209.168 18.185 C 205.647 21.671, 204.968 22.966, 205.101 25.935 C 205.189 27.896, 204.046 32.650, 202.560 36.500 C 201.075 40.350, 199.359 45.075, 198.747 47 C 198.135 48.925, 196.458 52.300, 195.022 54.500 C 192.990 57.613, 191.755 58.519, 189.455 58.587 C 185.811 58.693, 183 57.378, 183 55.566 C 183 54.817, 180.740 49.818, 177.978 44.458 C 175.216 39.098, 172.488 32.865, 171.916 30.606 C 170.747 25.991, 165.837 19.365, 164.293 20.319 C 163.007 21.113, 162.799 32.758, 164.057 33.535 C 164.576 33.856, 165 35, 165 36.079 C 165 37.706, 168.390 45.655, 174.229 57.716 C 176.329 62.055, 173.697 63.169, 158.075 64.549 C 150.562 65.213, 148 66.341, 148 68.985 C 148 70.039, 147.213 71.345, 146.250 71.888 C 144.867 72.668, 144.757 73.135, 145.725 74.113 C 146.617 75.014, 147.841 75.086, 150.225 74.376 C 156.227 72.591, 167.596 72.689, 170.437 74.551 C 173.482 76.546, 173.747 78, 171.067 78 C 168.342 78, 167.758 80.767, 168.154 91.806 L 168.500 101.435 164.500 102.641 C 162.300 103.304, 158.219 103.881, 155.432 103.923 C 149.197 104.018, 140.396 106.526, 139.671 108.414 C 138.825 110.619, 142.120 112.906, 145.265 112.297 C 146.785 112.002, 148.274 111.365, 148.574 110.881 C 148.873 110.396, 150.272 110, 151.681 110 C 153.847 110, 154.052 110.233, 153 111.500 C 151.938 112.780, 152.223 113, 154.943 113 C 159.115 113, 162.081 111.374, 161.356 109.485 C 160.571 107.439, 164.652 107.510, 166.721 109.578 C 168.061 110.918, 168.201 112.977, 167.650 123.225 C 167.293 129.863, 166.543 135.846, 165.983 136.520 C 165.423 137.195, 162.610 138.045, 159.733 138.410 C 156.855 138.775, 152.250 139.810, 149.500 140.711 C 146.750 141.612, 141.802 142.836, 138.505 143.431 C 132.914 144.441, 132.386 144.775, 130.685 148.388 C 128.075 153.930, 129.352 154.718, 137.721 152.734 C 141.449 151.851, 146.300 150.841, 148.500 150.492 C 153.038 149.771, 157 148.064, 157 146.831 C 157 146.374, 156.339 146, 155.531 146 C 153.199 146, 154.860 143.252, 157.610 142.562 C 158.966 142.221, 160.846 142.376, 161.788 142.904 C 163.360 143.787, 163.337 143.930, 161.500 144.655 C 159.732 145.354, 159.848 145.509, 162.500 146 C 164.955 146.454, 165.462 147.004, 165.293 149.027 C 165.179 150.387, 164.769 155.960, 164.382 161.411 C 163.840 169.048, 163.256 171.744, 161.839 173.161 C 160.828 174.172, 159.471 175, 158.825 175 C 158.179 175, 154.242 176.169, 150.075 177.598 C 139.358 181.274, 136.935 183.821, 140.814 187.331 C 142.029 188.431, 142.959 188.641, 143.632 187.968 C 144.772 186.828, 157.575 183, 160.247 183 C 161.682 183, 161.987 183.863, 161.930 187.750 C 161.829 194.564, 160.834 196.500, 157.435 196.500 C 154.967 196.500, 154.430 197.033, 153.467 200.441 C 152.200 204.920, 150.059 206.350, 149.884 202.833 C 149.782 200.776, 149.708 200.737, 149.265 202.500 C 148.989 203.600, 147.578 205.638, 146.131 207.028 C 143.616 209.445, 142.796 210.721, 139.399 217.500 C 137.594 221.104, 137.327 221.550, 133.500 227.364 C 131.850 229.871, 129.091 232.610, 127.369 233.451 C 123.231 235.473, 121.939 240, 125.500 240 C 126.142 240, 127.979 238.663, 129.583 237.028 C 131.187 235.393, 132.806 234.043, 133.179 234.028 C 134.444 233.976, 145.622 222.517, 146.863 220 C 147.541 218.625, 149.195 215.475, 150.538 213 C 151.881 210.525, 152.984 207.938, 152.990 207.250 C 152.995 206.563, 153.450 206, 154 206 C 154.550 206, 155 205.190, 155 204.200 C 155 202.094, 156.845 200, 158.700 200 C 160.237 200, 160.499 207.557, 159.091 211.261 C 158.591 212.576, 157.894 219.797, 157.542 227.308 C 157.190 234.819, 156.279 245.135, 155.517 250.232 C 153.797 261.739, 154.659 264.500, 159.969 264.500 C 163.187 264.500, 163.498 264.206, 164.734 260 C 165.471 257.490, 165.785 253.851, 165.443 251.771 C 165.107 249.720, 165.292 246.570, 165.855 244.771 C 166.418 242.972, 167.146 235.895, 167.473 229.045 C 167.800 222.194, 168.694 211.619, 169.461 205.545 C 170.227 199.470, 171.152 191.721, 171.517 188.324 C 171.962 184.172, 172.798 181.588, 174.066 180.440 C 175.104 179.501, 175.681 178.293, 175.348 177.755 C 174.686 176.683, 176.748 175.040, 178.785 175.015 C 179.761 175.004, 179.813 175.482, 179 177 C 177.707 179.415, 177.563 179.408, 185.092 177.315 C 190.322 175.861, 191.278 175.826, 192.061 177.065 C 192.561 177.854, 193.015 185.700, 193.072 194.500 C 193.128 203.300, 193.527 214.325, 193.958 219 C 194.389 223.675, 195.498 236.459, 196.424 247.409 C 198.274 269.308, 199.492 274, 203.327 274 C 208.574 274, 209.041 270.268, 206.641 247.500 C 204.397 226.218, 202.947 207.550, 202.368 192.500 C 201.936 181.256, 202.113 179.027, 203.684 176 C 204.989 173.484, 206.344 172.357, 208.500 171.990 C 210.658 171.624, 211.500 170.922, 211.500 169.490 C 211.500 167.811, 210.923 167.545, 207.805 167.786 C 202.977 168.161, 202.330 166.852, 201.457 154.957 C 200.899 147.343, 201.079 144.746, 202.382 141.628 C 203.272 139.498, 204 136.402, 204 134.747 C 204 131.870, 204.152 131.763, 207.482 132.303 C 209.397 132.614, 211.223 132.448, 211.541 131.934 C 211.858 131.420, 213.674 131, 215.577 131 L 219.036 131 218.620 138.469 C 218.246 145.200, 217.754 146.688, 213.649 153.519 C 210.078 159.460, 209.409 161.220, 210.554 161.659 C 214.630 163.223, 224.520 150.526, 227.815 139.500 L 229.907 132.500 235.195 130.623 C 238.104 129.590, 242.446 128.622, 244.844 128.471 C 250.078 128.142, 251.262 127.146, 250.828 123.438 C 250.390 119.688, 246.697 118.731, 239.758 120.570 C 231.578 122.738, 231.102 122.302, 231.713 113.213 C 232.331 104.029, 230.980 98.267, 227.425 94.935 C 225.055 92.712, 224.015 92.501, 215.498 92.512 L 206.168 92.524 205.473 81.400 C 205.090 75.282, 205.067 69.363, 205.422 68.246 C 206.076 66.185, 208.676 65.038, 212.750 65.014 C 214.190 65.005, 215.028 64.370, 215.079 63.250 C 215.126 62.205, 215.361 62.003, 215.662 62.750 C 215.940 63.437, 217.176 64, 218.409 64 C 221.454 64, 235.165 59.180, 236.887 57.505 C 238.796 55.646, 237.522 52.565, 235.242 53.527 C 232.436 54.711, 224.246 55.767, 213.241 56.362 L 202.983 56.917 203.602 54.209 C 203.943 52.719, 205.975 48.492, 208.116 44.816 C 210.817 40.181, 212.788 34.843, 214.547 27.397 C 218.040 12.617, 216.850 10.579, 209.168 18.185 M 68.237 42.052 C 63.890 46.221, 62.987 47.757, 61.973 52.711 C 60.178 61.475, 56.842 71.104, 54.289 74.887 C 51.569 78.918, 49.735 85.145, 50.602 87.404 C 51.045 88.560, 50.794 88.858, 49.725 88.448 C 47.151 87.460, 41.797 96.638, 44.112 98.069 C 45.898 99.173, 44.314 102.223, 42.255 101.646 C 40.899 101.267, 39.759 102.672, 37.241 107.827 C 35.449 111.497, 33.986 115.318, 33.991 116.317 C 33.998 117.652, 33.493 117.974, 32.090 117.529 C 30.557 117.042, 29.937 117.659, 28.947 120.660 C 27.572 124.826, 22.710 133.433, 20.461 135.682 C 18.577 137.566, 18.515 143, 20.378 143 C 22.047 143, 23.700 141.124, 27 135.484 C 28.375 133.134, 30.971 129.103, 32.770 126.526 C 34.568 123.949, 36.699 120.414, 37.506 118.671 C 38.312 116.927, 40.553 113.475, 42.486 111 C 44.419 108.525, 46.294 105.825, 46.652 105 C 47.011 104.175, 47.844 102.825, 48.503 102 C 49.163 101.175, 50.761 98.475, 52.054 96 C 53.347 93.525, 55.837 89.250, 57.587 86.500 C 59.337 83.750, 61.997 78.575, 63.497 75 C 64.997 71.425, 66.531 68.275, 66.904 68 C 67.278 67.725, 68.218 65.475, 68.992 63 C 69.767 60.525, 71.940 55.392, 73.820 51.593 C 77.927 43.297, 78.413 39.124, 75.408 37.979 C 73.721 37.336, 72.335 38.123, 68.237 42.052 M 73 64.500 C 73 65.325, 72.550 66, 72 66 C 71.450 66, 71 66.900, 71 68 C 71 69.100, 71.450 70, 72 70 C 72.550 70, 73 69.348, 73 68.552 C 73 66.627, 78.067 68.311, 80.558 71.064 C 82.252 72.936, 82.215 73, 79.405 73.006 L 76.500 73.012 79.354 74.501 C 80.924 75.320, 82.611 75.740, 83.104 75.436 C 83.597 75.131, 84 75.306, 84 75.824 C 84 76.343, 85.013 77, 86.250 77.285 C 90.385 78.237, 105.486 85.319, 106.605 86.832 C 107.272 87.732, 108.406 88.058, 109.461 87.653 C 111.691 86.798, 110.801 82.517, 107.703 79.198 C 105.484 76.821, 84.216 66, 81.764 66 C 81.004 66, 79.509 65.339, 78.441 64.532 C 75.909 62.616, 73 62.599, 73 64.500 M 187.500 65 C 187.160 65.550, 187.835 66, 189 66 C 190.165 66, 190.840 65.550, 190.500 65 C 190.160 64.450, 189.485 64, 189 64 C 188.515 64, 187.840 64.450, 187.500 65 M 159.208 68.745 C 158.216 69.090, 158.186 69.520, 159.081 70.597 C 160.563 72.384, 161.641 72.379, 162.330 70.583 C 162.926 69.028, 161.242 68.036, 159.208 68.745 M 164.496 69.007 C 163.741 70.228, 166.484 71.437, 167.952 70.530 C 168.528 70.173, 169 69.459, 169 68.941 C 169 67.680, 165.282 67.734, 164.496 69.007 M 181.500 69.833 C 176.862 71.384, 176.520 71.722, 176.772 74.503 C 176.921 76.151, 177.311 82.147, 177.638 87.826 C 178.285 99.071, 179.111 100.468, 183.437 97.633 C 184.769 96.760, 187.803 95.742, 190.180 95.371 C 192.556 95, 194.831 94.202, 195.235 93.598 C 195.639 92.994, 195.976 88.556, 195.985 83.736 C 195.994 78.633, 196.506 74.162, 197.212 73.032 C 198.784 70.514, 197.743 69.581, 193.193 69.427 C 191.162 69.358, 188.825 69.046, 188 68.732 C 187.175 68.418, 184.250 68.914, 181.500 69.833 M 93.500 77 C 93.840 77.550, 94.316 78, 94.559 78 C 94.802 78, 95 77.550, 95 77 C 95 76.450, 94.523 76, 93.941 76 C 93.359 76, 93.160 76.450, 93.500 77 M 213.443 97.717 C 212.782 99.941, 210.312 101.316, 207.935 100.785 C 205.248 100.183, 204.030 105.335, 204.015 117.367 C 204 129.191, 204.008 129.231, 206.250 128.620 C 207.488 128.282, 210.847 127.720, 213.716 127.369 C 216.585 127.019, 219.563 126.005, 220.333 125.116 C 222.101 123.077, 223.366 107.093, 222.036 103.595 C 221.475 102.119, 219.976 100.781, 218.456 100.400 C 217.017 100.039, 215.449 98.788, 214.971 97.622 L 214.102 95.500 213.443 97.717 M 191.010 99.308 C 189.677 99.972, 188.326 101.621, 188.007 102.971 C 187.563 104.852, 186.516 105.615, 183.523 106.237 C 181.376 106.683, 179.440 107.226, 179.222 107.444 C 177.594 109.073, 175.695 134.694, 177.137 135.585 C 178.750 136.582, 191.985 131.897, 193.020 129.962 C 193.949 128.228, 194.732 99.398, 193.874 98.540 C 193.631 98.298, 192.343 98.643, 191.010 99.308 M 93.500 112.473 C 91.300 113.197, 85 114.588, 79.500 115.565 C 74 116.541, 67.700 118.154, 65.500 119.148 C 63.300 120.143, 60.150 120.968, 58.500 120.984 C 50.187 121.060, 42.586 125.701, 43.714 130.013 C 44.265 132.122, 44.653 132.209, 50.703 131.589 C 54.226 131.229, 60.697 129.799, 65.084 128.414 C 72.627 126.031, 73.044 125.748, 72.780 123.197 C 72.541 120.896, 72.917 120.452, 75.341 120.175 C 77.819 119.891, 78.098 120.115, 77.524 121.925 C 77.007 123.555, 77.296 124, 78.874 124 C 79.978 124, 81.129 123.601, 81.430 123.113 C 81.731 122.626, 83.512 121.939, 85.388 121.587 C 87.263 121.235, 89.855 120.129, 91.149 119.129 C 92.442 118.129, 95.032 117.013, 96.905 116.649 C 100.816 115.890, 103 114.359, 103 112.378 C 103 110.653, 98.911 110.694, 93.500 112.473 M 148.813 113.683 C 149.534 113.972, 150.397 113.936, 150.729 113.604 C 151.061 113.272, 150.471 113.036, 149.417 113.079 C 148.252 113.127, 148.015 113.364, 148.813 113.683 M 64.500 124 C 64.160 124.550, 64.782 125, 65.882 125 C 66.982 125, 68.160 124.550, 68.500 124 C 68.840 123.450, 68.218 123, 67.118 123 C 66.018 123, 64.840 123.450, 64.500 124 M 231.894 126.106 C 230.761 127.239, 230.010 128.343, 230.226 128.559 C 230.441 128.775, 232.963 128.673, 235.829 128.334 C 240.281 127.807, 240.782 127.543, 239.270 126.524 C 235.691 124.114, 233.983 124.017, 231.894 126.106 M 55.500 126 C 55.160 126.550, 55.584 127, 56.441 127 C 57.298 127, 58 126.550, 58 126 C 58 125.450, 57.577 125, 57.059 125 C 56.541 125, 55.840 125.450, 55.500 126 M 221.750 131.662 C 222.438 131.940, 223.563 131.940, 224.250 131.662 C 224.938 131.385, 224.375 131.158, 223 131.158 C 221.625 131.158, 221.063 131.385, 221.750 131.662 M 81.820 135.846 C 81.067 136.922, 79.337 137.959, 77.975 138.151 C 75.544 138.494, 75.500 138.664, 75.500 147.819 C 75.500 155.509, 75.196 157.362, 73.763 158.420 C 72.713 159.194, 67.418 159.928, 60.382 160.275 C 51.099 160.732, 47.752 161.317, 43.869 163.160 C 41.191 164.432, 39 165.951, 39 166.536 C 39 169.428, 44.224 171.003, 48.444 169.383 C 49.702 168.900, 49.797 168.461, 48.883 167.359 C 47.393 165.564, 47.662 165.359, 52.500 164.604 C 57.470 163.827, 59.989 165.104, 58.063 167.424 C 56.951 168.764, 57.036 168.995, 58.628 168.964 C 59.657 168.945, 63.185 168.288, 66.466 167.504 C 71.102 166.397, 72.619 166.350, 73.273 167.290 C 73.736 167.956, 73.781 173, 73.373 178.500 C 72.965 184, 72.602 195.340, 72.566 203.700 C 72.523 213.651, 72.107 219.293, 71.361 220.039 C 70.735 220.665, 68.127 221.209, 65.566 221.248 C 61.462 221.310, 60.432 220.855, 56.878 217.409 C 52.826 213.481, 47 205.615, 47 204.072 C 47 203.617, 46.325 202.685, 45.500 202 C 44.675 201.315, 44 199.235, 44 197.378 C 44 194.089, 43.306 193.500, 40 193.981 C 36.708 194.461, 35.962 200.580, 38.466 206.572 C 40.327 211.028, 46.819 219, 48.585 219 C 49.325 219, 50.388 219.856, 50.947 220.901 C 51.515 221.962, 54.422 223.576, 57.518 224.550 C 62.328 226.062, 63.604 226.121, 67.041 224.986 C 69.224 224.266, 71.317 223.984, 71.693 224.359 C 72.068 224.735, 72.551 227.620, 72.766 230.771 L 73.157 236.500 67.829 240.556 C 64.898 242.787, 59.808 245.624, 56.518 246.861 C 49.337 249.560, 47.041 251.441, 47.727 254.062 C 48.007 255.134, 47.737 256.612, 47.127 257.347 C 45.915 258.807, 46.591 260, 48.629 260 C 49.341 260, 53.242 258.425, 57.297 256.500 C 61.353 254.575, 65.295 253, 66.058 253 C 66.821 253, 72.857 251.673, 79.472 250.050 C 86.088 248.428, 94.650 246.418, 98.500 245.583 C 108.783 243.354, 116.251 241.149, 117.394 240.006 C 119.721 237.679, 116.370 237.084, 106.986 238.159 C 101.769 238.756, 95.700 239.376, 93.500 239.535 C 91.300 239.695, 86.125 240.757, 82 241.896 C 73.467 244.251, 72 244.411, 72 242.987 C 72 242.430, 74.475 240.880, 77.500 239.542 C 81.445 237.798, 83 236.561, 83 235.167 C 83 234.098, 84.930 231.261, 87.288 228.862 C 89.647 226.463, 93.584 221.800, 96.038 218.500 C 98.492 215.200, 101.513 211.380, 102.750 210.010 C 103.987 208.641, 105 207.014, 105 206.395 C 105 205.776, 105.824 204.197, 106.832 202.885 C 110.399 198.240, 117 184.147, 117 181.176 C 117 180.018, 116.105 178.591, 115.011 178.006 C 113.309 177.095, 112.371 177.621, 108.498 181.664 C 105.676 184.609, 103.584 187.912, 102.938 190.443 C 101.687 195.351, 98.178 203.996, 96.691 205.837 C 96.097 206.572, 95.361 209.047, 95.056 211.337 C 94.650 214.376, 94.038 215.503, 92.788 215.512 C 90.562 215.527, 89.594 216.562, 86.718 222.002 C 85.410 224.476, 83.590 226.645, 82.673 226.823 C 81.152 227.117, 81.044 225.385, 81.431 206.823 C 81.664 195.645, 82.310 184.250, 82.867 181.500 C 83.424 178.750, 84.158 173.963, 84.498 170.862 C 85.385 162.766, 86.261 161.974, 95.474 160.941 C 102.656 160.136, 105.607 158.791, 104.417 156.865 C 103.725 155.746, 93.994 154.072, 89.500 154.299 L 85.500 154.500 85.536 149 C 85.556 145.975, 85.781 141.489, 86.036 139.031 C 86.409 135.439, 86.176 134.497, 84.845 134.226 C 83.935 134.041, 82.574 134.770, 81.820 135.846 M 185.450 137.903 C 184.928 138.400, 183.632 138.962, 182.571 139.153 C 180.733 139.484, 180.725 139.582, 182.396 141.253 C 183.923 142.780, 183.952 143.081, 182.622 143.591 C 180.766 144.304, 178.748 143.216, 179.543 141.931 C 179.859 141.419, 179.641 141, 179.059 141 C 178.477 141, 178 141.810, 178 142.800 C 178 143.790, 177.543 145.057, 176.985 145.615 C 175.918 146.682, 173.286 158.279, 172.333 166.120 C 171.682 171.467, 172.632 172.505, 176.666 170.856 C 178.225 170.218, 181.937 169.556, 184.916 169.383 C 187.894 169.210, 190.780 168.620, 191.328 168.072 C 192.786 166.614, 192.171 145.246, 190.580 142.090 C 189.862 140.666, 189.475 138.938, 189.721 138.250 C 190.235 136.808, 186.888 136.536, 185.450 137.903 M 146.971 145.647 C 146.131 145.875, 144.889 146.948, 144.213 148.031 C 143.143 149.744, 143.244 150, 144.992 150 C 146.096 150, 147 149.602, 147 149.117 C 147 148.631, 147.900 147.998, 149 147.710 C 150.100 147.423, 151 146.695, 151 146.094 C 151 144.999, 149.836 144.870, 146.971 145.647 M 68 164 C 68 164.550, 68.675 165, 69.500 165 C 70.325 165, 71 164.550, 71 164 C 71 163.450, 70.325 163, 69.500 163 C 68.675 163, 68 163.450, 68 164 M 187.150 172.950 C 187.370 173.610, 187.876 174.116, 188.275 174.075 C 189.471 173.951, 189.239 172.580, 187.950 172.150 C 187.290 171.930, 186.930 172.290, 187.150 172.950 M 158.015 180.750 C 158.024 181.749, 158.351 182.071, 158.777 181.500 C 159.187 180.950, 159.931 180.162, 160.428 179.750 C 160.926 179.338, 160.583 179, 159.667 179 C 158.740 179, 158.007 179.777, 158.015 180.750 M 151.500 182 C 151.148 182.569, 152.009 183, 153.500 183 C 154.991 183, 155.852 182.569, 155.500 182 C 155.160 181.450, 154.260 181, 153.500 181 C 152.740 181, 151.840 181.450, 151.500 182 M 205.667 187.667 C 204.297 189.036, 205.067 192.205, 206.884 192.680 C 208.131 193.006, 208.605 193.796, 208.285 195.018 C 207.982 196.178, 209.882 199.865, 213.401 204.945 C 216.481 209.390, 219 213.371, 219 213.793 C 219 214.214, 220.471 216.120, 222.269 218.029 C 224.067 219.938, 226.863 223.464, 228.484 225.864 C 230.104 228.264, 232.008 230.450, 232.715 230.721 C 233.422 230.992, 234 231.610, 234 232.094 C 234 233.578, 239.433 240.922, 240.561 240.962 C 241.145 240.983, 242.589 241.900, 243.770 243 C 244.950 244.100, 246.524 245, 247.267 245 C 248.010 245, 249.491 245.661, 250.559 246.468 C 252.853 248.203, 256.368 248.408, 259.066 246.965 C 262.193 245.291, 261.333 243.167, 257.065 242.017 C 252.669 240.834, 243.995 232.663, 239.925 225.871 C 238.591 223.646, 236.013 220.178, 234.195 218.163 C 232.378 216.148, 229.703 212.475, 228.251 210 C 225.362 205.077, 221.952 200.202, 218.032 195.394 C 216.639 193.686, 214.649 191.099, 213.610 189.644 C 211.802 187.115, 207.332 186.002, 205.667 187.667 M 211.250 197.392 C 212.213 198.123, 213 199.233, 213 199.860 C 213 200.487, 213.450 201, 214 201 C 214.550 201, 215 201.675, 215 202.500 C 215 203.325, 215.450 204, 216 204 C 216.550 204, 217 203.585, 217 203.077 C 217 201.615, 211.945 195.997, 210.661 196.032 C 210.022 196.049, 210.287 196.661, 211.250 197.392 M 199 247.382 C 199 248.207, 199.450 249.160, 200 249.500 C 200.550 249.840, 201 249.443, 201 248.618 C 201 247.793, 200.550 246.840, 200 246.500 C 199.450 246.160, 199 246.557, 199 247.382 M 75 248 C 73.707 248.835, 73.734 248.971, 75.191 248.985 C 76.121 248.993, 77.160 248.550, 77.500 248 C 78.282 246.734, 76.958 246.734, 75 248 M 158.192 249.075 C 158.389 249.666, 158.978 250.150, 159.500 250.150 C 160.022 250.150, 160.611 249.666, 160.808 249.075 C 161.005 248.484, 160.417 248, 159.500 248 C 158.583 248, 157.995 248.484, 158.192 249.075 M 64.554 249.913 C 64.243 250.415, 62.149 251.137, 59.899 251.517 C 57.033 252.001, 56.124 252.524, 56.862 253.262 C 57.600 254, 58.303 253.993, 59.212 253.239 C 59.925 252.648, 62.047 252.014, 63.927 251.832 C 65.807 251.649, 67.531 250.938, 67.756 250.250 C 68.225 248.822, 65.411 248.526, 64.554 249.913" stroke="none" fill="black" fill-rule="evenodd"/>
</svg>