<svg xmlns="http://www.w3.org/2000/svg" width="300" height="300" viewBox="0 0 300 300" version="1.1">
	<path d="M 176.250 36.662 C 175.563 36.940, 175 38.263, 175 39.603 C 175 40.943, 173.875 44.808, 172.500 48.192 C 171.125 51.576, 170 55.177, 170 56.194 C 170 58.725, 166.114 60.375, 162.972 59.177 C 161.091 58.460, 159.562 55.996, 156.575 48.868 C 151.920 37.757, 150.678 36.083, 148.231 37.625 C 145.755 39.186, 145.670 45.799, 148.083 49.210 C 149.137 50.700, 150 52.586, 150 53.400 C 150 54.215, 150.396 55.127, 150.879 55.425 C 151.363 55.724, 151.968 56.769, 152.223 57.746 C 152.644 59.355, 151.983 59.488, 145.240 59.147 C 137.801 58.771, 137.793 58.774, 138.531 61.135 C 138.937 62.436, 139.771 63.831, 140.385 64.235 C 141.994 65.295, 144 65.165, 144 64 C 144 63.450, 143.494 63.112, 142.875 63.250 C 142.256 63.387, 141.523 62.874, 141.245 62.109 C 140.853 61.031, 141.388 60.877, 143.620 61.427 C 147.138 62.292, 151 64.698, 151 66.023 C 151 66.560, 151.914 67, 153.031 67 C 156.462 67, 156.254 69.334, 152.010 78.478 C 149.765 83.316, 147.873 88, 147.806 88.887 C 147.348 94.918, 149.178 96.679, 152.476 93.381 C 153.367 92.490, 154.340 92.007, 154.639 92.306 C 155.534 93.200, 154.225 96.204, 150.427 101.972 C 147.726 106.073, 146.972 108.108, 147.386 110.180 C 147.718 111.841, 147.443 113.247, 146.693 113.718 C 144.926 114.829, 137 125.066, 137 126.238 C 137 126.775, 136.272 126.934, 135.381 126.593 C 133.566 125.896, 126.735 131.842, 124.574 136 C 122.001 140.949, 125.053 142.665, 129.466 138.750 C 136.431 132.572, 141.198 127.384, 142.575 124.484 C 143.413 122.716, 144.977 120.328, 146.050 119.177 C 147.122 118.026, 148 116.460, 148 115.697 C 148 114.099, 151.134 111, 152.751 111 C 153.353 111, 154.377 109.313, 155.027 107.250 C 155.677 105.188, 157.223 101.919, 158.462 99.987 C 159.701 98.055, 161.027 95.580, 161.408 94.487 C 161.790 93.394, 163.486 91.406, 165.178 90.068 L 168.255 87.637 171.085 91.068 C 175.050 95.877, 175.789 99.759, 173.099 101.644 C 171.944 102.452, 171 103.988, 171 105.057 C 171 106.126, 170.550 107, 170 107 C 169.450 107, 169 107.870, 169 108.933 C 169 109.996, 168.101 111.150, 167.003 111.499 C 165.905 111.848, 163.861 114.087, 162.462 116.475 C 161.062 118.864, 159.294 121.057, 158.534 121.349 C 157.773 121.640, 156.366 123.594, 155.406 125.690 C 154.446 127.785, 152.162 131.376, 150.330 133.668 C 143.397 142.346, 148.071 141.299, 156.840 132.209 C 159.777 129.165, 163.271 124.948, 164.603 122.837 C 165.935 120.727, 167.452 119, 167.973 119 C 168.494 119, 170.626 116.084, 172.710 112.519 C 174.795 108.955, 176.825 106.030, 177.222 106.019 C 179.005 105.972, 181.379 117.862, 181.232 126.110 C 181.072 135.122, 177.448 148.695, 174.382 151.761 C 172.163 153.980, 173.238 155.465, 177.314 155.810 C 180.880 156.111, 181.035 155.977, 183.440 150.540 C 188.860 138.283, 190.675 114.214, 186.797 106 C 185.888 104.075, 184.246 100.462, 183.148 97.970 C 180.548 92.073, 169.338 77, 167.551 77 C 165.257 77, 165.200 74.688, 167.411 71.303 C 169.305 68.405, 170.108 68.045, 176 67.455 C 179.575 67.097, 184.300 66.409, 186.500 65.926 C 188.700 65.444, 191.963 65.038, 193.750 65.024 C 197.075 64.999, 201.552 61.703, 200.523 60.037 C 200.221 59.548, 194.354 59.384, 187.487 59.672 C 180.619 59.961, 175.002 59.816, 175.004 59.349 C 175.006 58.882, 176.144 56.261, 177.532 53.525 C 180.050 48.563, 183 39.818, 183 37.318 C 183 36.019, 178.845 35.615, 176.250 36.662 M 97.250 59.662 C 95.370 60.421, 95.747 62.794, 97.934 63.965 C 98.998 64.534, 105.898 65, 113.268 65 C 120.637 65, 126.949 65.282, 127.293 65.627 C 129.356 67.690, 118.667 80.349, 111.933 83.819 C 104.388 87.706, 105.195 89.584, 114.770 90.420 C 124.609 91.278, 125.472 91.821, 125.264 97.026 C 124.845 107.544, 121.218 111, 110.596 111 C 106.968 111, 104 110.581, 104 110.070 C 104 109.558, 102.987 108.995, 101.750 108.820 C 99.853 108.550, 99.370 107.638, 98.668 103 C 98.210 99.975, 97.743 90.868, 97.631 82.763 C 97.513 74.318, 96.988 67.588, 96.400 67 C 95.823 66.423, 93.933 66.263, 92.075 66.635 L 88.776 67.295 89.528 84.397 C 89.942 93.804, 90.394 115.037, 90.534 131.583 L 90.786 161.666 93.330 164.411 C 95.004 166.218, 96.664 167.044, 98.187 166.828 C 100.258 166.534, 100.474 166.030, 100.248 162 C 99.522 149.014, 99.616 121.110, 100.395 118.500 C 101.625 114.377, 103.114 112.566, 104.040 114.065 C 105.360 116.201, 112.744 116.810, 119.684 115.355 C 125.697 114.094, 126.477 114.122, 128.173 115.657 C 129.947 117.262, 130.209 117.163, 133.405 113.673 C 135.256 111.653, 137.219 110, 137.767 110 C 138.744 110, 147 98.057, 147 96.645 C 147 95.645, 143.944 97.418, 141.184 100.019 C 139.910 101.219, 138.573 101.906, 138.213 101.546 C 137.853 101.186, 138.080 100.568, 138.719 100.174 C 140.563 99.034, 145.163 91.829, 144.481 91.148 C 144.141 90.808, 142.964 91.648, 141.865 93.015 C 138.986 96.596, 135.923 103.443, 137.028 103.828 C 138.462 104.328, 135.164 110, 133.439 110 C 132.255 110, 132.154 109.582, 132.968 108.061 C 133.624 106.834, 133.652 105.903, 133.043 105.527 C 132.486 105.182, 132.333 102.243, 132.680 98.528 C 133.259 92.325, 133.178 92.024, 130.107 88.954 C 127.921 86.768, 126.307 85.948, 124.907 86.314 C 120.791 87.390, 121.620 83.950, 126.748 78.671 C 132.762 72.480, 134 70.252, 134 65.622 C 134 59.655, 131.965 58.988, 114.027 59.079 C 105.487 59.122, 97.938 59.385, 97.250 59.662 M 90.355 79.730 C 90.698 81.803, 91.015 85.075, 91.059 87 C 91.183 92.308, 92.841 87.750, 92.930 81.857 C 92.981 78.438, 92.569 77.049, 91.366 76.587 C 89.971 76.052, 89.823 76.513, 90.355 79.730 M 158.073 84.053 C 156.119 88.595, 155.989 93.118, 157.817 92.930 C 162.296 92.469, 165.960 85.352, 163.830 81.250 C 162.025 77.774, 160.442 78.544, 158.073 84.053 M 204.428 88.469 C 203.494 89.895, 202.503 90.837, 202.227 90.561 C 201.228 89.561, 196 94.185, 196 96.068 C 196 97.131, 195.403 98, 194.674 98 C 190.474 98, 187.164 107.232, 190.402 109.919 C 191.173 110.558, 192.070 112.142, 192.395 113.438 C 192.720 114.734, 194.525 116.702, 196.405 117.811 C 201.037 120.545, 211.897 124.437, 212.686 123.647 C 214.050 122.284, 210.891 117.985, 207.108 116.055 C 204.923 114.940, 202.836 113.544, 202.471 112.953 C 202.105 112.361, 200.780 111.487, 199.526 111.010 C 198.272 110.533, 196.757 108.743, 196.161 107.032 C 195.167 104.179, 195.364 103.603, 198.538 100.089 C 200.442 97.982, 202 95.494, 202 94.561 C 202 93.363, 202.546 93.038, 203.861 93.456 C 204.963 93.806, 206.694 93.248, 208.111 92.086 C 210.022 90.517, 210.286 89.775, 209.429 88.372 C 207.752 85.628, 206.271 85.657, 204.428 88.469 M 92.156 95.329 C 93.533 101.659, 93.835 101.921, 93.921 96.857 C 93.973 93.780, 93.536 92.036, 92.624 91.686 C 91.506 91.257, 91.418 91.941, 92.156 95.329 M 93 104.727 C 93 107.220, 94.543 108.548, 95.549 106.920 C 95.927 106.309, 95.508 105.080, 94.618 104.190 C 93.127 102.699, 93 102.741, 93 104.727 M 139.572 116.886 C 138.157 119.127, 137 121.382, 137 121.897 C 137 122.412, 136.482 123.006, 135.850 123.217 C 135.218 123.427, 134.894 124.182, 135.131 124.893 C 135.389 125.666, 136.154 125.042, 137.031 123.343 C 137.839 121.779, 139.065 119.902, 139.757 119.172 C 141.597 117.227, 143.240 113.907, 142.653 113.320 C 142.373 113.040, 140.987 114.645, 139.572 116.886 M 93.504 118.750 C 92.395 126.028, 92.083 132.256, 92.697 134.823 C 93.809 139.468, 94.952 135.220, 95.412 124.729 C 95.894 113.723, 94.794 110.276, 93.504 118.750 M 159.008 146.750 C 159.016 148.732, 165.805 153, 168.948 153 C 172.864 153, 170.505 149.763, 164.300 146.621 C 160.205 144.547, 158.998 144.576, 159.008 146.750 M 93 152.941 C 93 154.559, 93.450 156.160, 94 156.500 C 94.595 156.868, 95 155.677, 95 153.559 C 95 151.602, 94.550 150, 94 150 C 93.450 150, 93 151.323, 93 152.941 M 143.732 161.411 C 143.003 162.140, 141.419 163.050, 140.211 163.433 C 136.815 164.511, 128.513 171.366, 117 182.599 C 111.225 188.233, 103.125 195.527, 99 198.808 C 89.718 206.190, 87.488 208.566, 88.979 209.487 C 90.361 210.341, 95 207.407, 95 205.678 C 95 204.976, 96.791 203.299, 98.980 201.951 C 101.169 200.603, 103.217 198.735, 103.531 197.801 C 103.891 196.731, 104.699 196.331, 105.715 196.721 C 106.789 197.133, 107.087 196.949, 106.605 196.170 C 106.194 195.505, 106.447 194.997, 107.191 194.994 C 107.911 194.990, 109.267 193.640, 110.203 191.994 C 111.225 190.199, 112.727 189, 113.953 189 C 115.079 189, 116.007 188.438, 116.015 187.750 C 116.026 186.845, 116.271 186.880, 116.904 187.878 C 118.181 189.895, 120.254 188.149, 119.613 185.596 C 118.873 182.646, 123.390 177.672, 126.044 178.514 C 127.978 179.128, 131.862 176.881, 137.500 171.886 C 140.196 169.498, 147.599 167.221, 146.409 169.147 C 145.815 170.109, 152.793 175.257, 158.671 178.193 C 161.052 179.382, 163 180.725, 163 181.177 C 163 181.630, 163.538 182, 164.195 182 C 164.853 182, 166.540 183.082, 167.945 184.404 C 170.658 186.958, 175.731 190.060, 185.500 195.139 C 188.800 196.854, 193.075 199.479, 195 200.971 C 203.843 207.827, 215.102 211.895, 213.763 207.749 C 213.419 206.685, 198.704 194.821, 192.500 190.606 C 175.056 178.754, 163.988 171.899, 155.750 167.845 C 151.488 165.747, 148 163.397, 148 162.623 C 148 160.612, 145.298 159.845, 143.732 161.411 M 155.405 172.854 C 157.521 175.238, 158 175.456, 158 174.035 C 158 173.505, 156.988 172.539, 155.750 171.890 C 153.512 170.715, 153.510 170.720, 155.405 172.854 M 168.229 181.188 C 168.447 181.841, 169.160 182.553, 169.813 182.771 C 170.544 183.015, 170.767 182.557, 170.394 181.584 C 169.696 179.766, 167.629 179.388, 168.229 181.188 M 187 193 C 187 193.550, 187.675 194, 188.500 194 C 189.325 194, 190 193.550, 190 193 C 190 192.450, 189.325 192, 188.500 192 C 187.675 192, 187 192.450, 187 193 M 109 198 C 109 198.550, 108.373 199, 107.607 199 C 106.841 199, 105.953 199.679, 105.635 200.509 C 105.316 201.339, 104.706 201.925, 104.278 201.811 C 102.605 201.365, 99 203.208, 99 204.508 C 99 207.301, 100.833 206.845, 105.111 202.987 C 107.525 200.810, 109.838 199.022, 110.250 199.014 C 111.392 198.993, 111.145 197, 110 197 C 109.450 197, 109 197.450, 109 198 M 126.500 201.669 C 122.742 202.110, 112.918 205.114, 111.250 206.332 C 109.047 207.941, 109.838 210.987, 112.750 212.113 C 116.151 213.427, 120.612 212.071, 120.237 209.836 C 119.779 207.105, 122.225 206.266, 132.750 205.543 C 142.691 204.861, 143 204.903, 143 206.920 C 143 208.064, 142.645 209, 142.212 209 C 141.779 209, 141.799 213.330, 142.257 218.621 C 142.716 223.913, 142.954 228.380, 142.786 228.547 C 142.618 228.715, 139.561 229.309, 135.991 229.867 C 126.683 231.322, 112.708 234.568, 110.439 235.800 C 109.373 236.380, 107.713 237.098, 106.750 237.396 C 104.202 238.184, 104.609 240.865, 107.475 242.170 C 109.470 243.079, 111.218 242.881, 116.496 241.149 C 120.096 239.967, 124.238 239, 125.700 239 C 127.162 239, 129.965 238.512, 131.929 237.916 C 133.893 237.319, 136.827 236.425, 138.448 235.928 C 141.909 234.867, 142.698 235.687, 143.639 241.317 C 143.990 243.417, 144.861 245.718, 145.574 246.431 C 146.445 247.302, 146.540 248.060, 145.865 248.735 C 145.189 249.411, 145.517 252.334, 146.861 257.621 C 149.627 268.506, 151.263 279.152, 150.302 280.025 C 149.410 280.837, 118.612 279.497, 117.132 278.582 C 116.617 278.263, 111.426 277.801, 105.598 277.554 L 95 277.105 95 279.571 C 95 282.131, 95.461 282.180, 102.250 280.340 C 103.511 279.998, 104 280.451, 104 281.964 C 104 283.118, 104.563 284.221, 105.250 284.414 C 113.886 286.843, 142 288.920, 142 287.129 C 142 286.508, 140.875 286, 139.500 286 C 138.125 286, 137 285.587, 137 285.082 C 137 283.307, 138.224 281, 139.166 281 C 139.690 281, 139.849 281.435, 139.520 281.967 C 139.191 282.499, 139.840 283.508, 140.961 284.208 C 142.083 284.908, 143 286.009, 143 286.655 C 143 287.391, 145.706 288.053, 150.250 288.427 C 159.208 289.166, 198.052 288.572, 211.250 287.495 C 219.831 286.794, 221 286.474, 221 284.824 C 221 281.305, 216.656 280.833, 185.376 280.951 L 155.252 281.064 155.161 270.782 C 155.107 264.646, 154.239 256.472, 153.009 250.510 C 151.850 244.898, 151.226 239.246, 151.585 237.613 L 152.223 234.706 163.624 235.317 C 169.894 235.653, 175.694 235.671, 176.512 235.357 C 178.141 234.732, 178.540 231.452, 177.096 230.559 C 176.599 230.252, 170.524 229.467, 163.596 228.814 C 149.123 227.450, 149.608 227.975, 152.664 216.985 C 154.266 211.223, 154.450 211, 157.615 211 C 161.960 211, 171.175 209.028, 172.750 207.761 C 173.438 207.208, 174 205.858, 174 204.762 C 174 202.949, 173.528 202.824, 168.750 203.371 C 159.849 204.390, 146.114 204.337, 144.774 203.278 C 143.377 202.175, 131.270 201.109, 126.500 201.669 M 144 206.441 C 144 207.298, 144.450 208, 145 208 C 145.550 208, 146 207.577, 146 207.059 C 146 206.541, 145.550 205.840, 145 205.500 C 144.450 205.160, 144 205.584, 144 206.441 M 94.549 208.920 C 94.073 209.691, 88.326 213, 87.463 213 C 87.337 213, 86.989 212.066, 86.691 210.925 C 86.223 209.136, 85.849 209.010, 83.979 210.011 C 82.130 211.001, 81.911 211.713, 82.496 214.836 C 83.758 221.572, 84.228 221.665, 90.260 216.369 C 93.310 213.691, 96.055 210.952, 96.359 210.282 C 97.029 208.809, 95.383 207.571, 94.549 208.920 M 125 210 C 125 211.186, 129.913 211.213, 135.500 210.057 C 139.102 209.312, 138.779 209.219, 132.250 209.115 C 128.007 209.048, 125 209.415, 125 210 M 160 232 C 160 232.550, 160.927 233, 162.059 233 C 163.191 233, 163.840 232.550, 163.500 232 C 163.160 231.450, 162.234 231, 161.441 231 C 160.648 231, 160 231.450, 160 232 M 133.500 234 C 132.718 235.266, 134.042 235.266, 136 234 C 137.293 233.165, 137.266 233.029, 135.809 233.015 C 134.879 233.007, 133.840 233.450, 133.500 234 M 180 242.648 C 178.075 244.009, 176.047 246.333, 175.494 247.812 C 173.350 253.541, 169.942 258.861, 165.707 263.091 C 161.346 267.447, 157.224 273, 158.352 273 C 158.672 273, 162.160 271.265, 166.104 269.145 C 171.091 266.464, 173.943 264.181, 175.470 261.652 C 176.677 259.652, 179.203 256.345, 181.082 254.305 C 185.306 249.720, 189 244.854, 189 243.877 C 189 242.671, 185.948 239.993, 184.679 240.086 C 184.030 240.133, 181.925 241.286, 180 242.648 M 105.166 257.062 C 102.498 258.132, 102.738 260.327, 105.583 260.858 C 106.637 261.055, 108.301 262.062, 109.279 263.097 C 112.204 266.191, 116.949 268.295, 127.500 271.176 C 135.926 273.477, 137.715 273.693, 138.868 272.549 C 140.848 270.586, 139.705 269.460, 133.765 267.524 C 130.869 266.580, 126.250 264.764, 123.500 263.487 C 120.750 262.210, 116.813 260.476, 114.750 259.634 C 112.688 258.791, 111 257.629, 111 257.051 C 111 255.781, 108.349 255.786, 105.166 257.062 M 118.638 283.500 C 119.026 284.510, 120.566 284.986, 123.357 284.956 L 127.500 284.912 123.500 283.471 C 118.451 281.652, 117.930 281.655, 118.638 283.500 M 144 282.540 C 144 284.405, 146.348 287, 148.035 287 C 150.935 287, 150.423 285.270, 147 283.500 C 145.350 282.647, 144 282.215, 144 282.540 M 165 285 C 165 286.618, 165.621 286.974, 168.250 286.864 C 170.502 286.769, 170.826 286.597, 169.305 286.302 C 167.892 286.027, 167.307 285.363, 167.662 284.438 C 168.001 283.555, 167.594 283, 166.607 283 C 165.667 283, 165 283.830, 165 285" stroke="none" fill="black" fill-rule="evenodd"/>
</svg>