<svg xmlns="http://www.w3.org/2000/svg" width="300" height="300" viewBox="0 0 300 300" version="1.1">
	<path d="M 150.992 40.509 C 150.048 41.647, 149.988 42.388, 150.775 43.175 C 152.292 44.692, 155.217 43.363, 154.824 41.336 C 154.375 39.020, 152.554 38.627, 150.992 40.509 M 136.500 50.759 C 128.071 57.881, 106.590 73.411, 101.500 76.063 L 98.500 77.627 98.975 85.563 C 100.134 104.943, 98.550 150.107, 95.990 170.636 C 94.557 182.126, 96.064 184.755, 101.043 179.455 C 103.037 177.332, 104.270 176.931, 108.467 177.042 C 120.649 177.363, 141.439 175.943, 143.428 174.654 C 146.264 172.815, 148.291 173.588, 146.993 176.014 C 146.204 177.487, 146.410 177.995, 148.001 178.500 C 150.467 179.283, 150.593 181.845, 148.250 183.560 C 146.954 184.509, 146.519 186.180, 146.575 190.003 C 146.616 192.842, 147.112 195.466, 147.677 195.833 C 149.364 196.928, 150.243 206.557, 148.766 207.760 C 148.070 208.328, 142.842 209.065, 137.150 209.399 C 131.457 209.733, 126.284 210.324, 125.654 210.714 C 125.024 211.103, 122.257 211.772, 119.504 212.201 C 116.752 212.630, 111.575 213.476, 108 214.082 C 104.425 214.687, 96.100 215.585, 89.500 216.076 C 77.957 216.935, 68.324 217.710, 66.750 217.906 C 66.338 217.958, 66 218.911, 66 220.025 C 66 222.565, 70.584 224.590, 72.581 222.933 C 73.357 222.289, 75.194 222.103, 76.960 222.491 C 79.071 222.955, 80.158 222.751, 80.514 221.824 C 81.242 219.926, 99 219.798, 99 221.691 C 99 223.124, 99.986 223.326, 102.418 222.393 C 103.288 222.059, 104 221.073, 104 220.202 C 104 218.859, 104.199 218.890, 105.306 220.404 C 107.091 222.845, 111.500 222.202, 111.500 219.500 C 111.500 217.922, 112.167 217.500, 114.663 217.500 C 116.403 217.500, 118.157 217.171, 118.562 216.768 C 118.966 216.366, 120.361 216.303, 121.661 216.630 C 122.962 216.956, 124.631 216.721, 125.370 216.108 C 126.935 214.809, 133 215.741, 133 217.280 C 133 217.846, 133.883 217.511, 134.963 216.534 C 136.042 215.557, 137.603 215.017, 138.431 215.335 C 139.259 215.653, 140.202 215.482, 140.527 214.956 C 140.852 214.430, 142.554 214.012, 144.309 214.026 C 147.018 214.048, 147.751 214.614, 149.160 217.776 C 150.074 219.824, 151.114 222.925, 151.472 224.666 C 151.829 226.408, 152.770 228.081, 153.561 228.385 C 155.381 229.083, 155.446 231, 153.649 231 C 152.593 231, 152.191 234.435, 151.804 246.750 C 151.532 255.412, 151.588 265.549, 151.929 269.276 C 152.271 273.004, 152.234 276.617, 151.848 277.307 C 151.462 277.997, 151.001 280.797, 150.823 283.530 C 150.520 288.195, 150.653 288.516, 153 288.759 C 158.377 289.316, 158.350 289.462, 158.675 258.015 C 158.907 235.518, 158.674 228.152, 157.649 225.689 C 156.691 223.386, 156.597 221.681, 157.311 219.550 C 158.019 217.439, 157.973 216.491, 157.150 216.217 C 155.684 215.728, 155.638 213, 157.096 213 C 157.698 213, 159.532 213.788, 161.170 214.750 C 164.021 216.425, 164.206 216.422, 165.492 214.671 C 166.570 213.204, 167.237 213.057, 168.861 213.926 C 170.338 214.716, 171.590 214.688, 173.492 213.822 C 175.476 212.918, 176.864 212.909, 179.299 213.786 C 181.805 214.688, 184.002 214.623, 189.418 213.486 C 193.223 212.688, 196.823 212.392, 197.418 212.828 C 198.611 213.704, 203.649 213.657, 206 212.747 C 211.564 210.595, 216 211.029, 216 213.724 C 216 214.801, 216.644 215.061, 218.250 214.630 C 219.488 214.299, 222.439 214.021, 224.809 214.014 C 227.179 214.006, 228.871 213.601, 228.570 213.113 C 228.269 212.626, 228.735 211.635, 229.605 210.913 C 230.946 209.800, 231.443 209.929, 232.844 211.753 C 234.239 213.568, 235.173 213.814, 238.774 213.319 C 243.766 212.631, 244.370 211.961, 243.513 208.059 C 242.785 204.744, 240.677 203.567, 238.017 204.991 C 237.005 205.532, 229.051 206.145, 220.339 206.352 C 211.628 206.560, 193.812 207.315, 180.748 208.030 C 167.685 208.745, 156.823 209.143, 156.611 208.915 C 156.400 208.687, 155.468 203.211, 154.542 196.747 C 152.885 185.189, 153.167 174, 155.115 174 C 155.602 174, 156 174.450, 156 175 C 156 175.550, 156.675 176, 157.500 176 C 158.325 176, 159 175.330, 159 174.511 C 159 172.807, 163.651 172.719, 165.844 174.382 C 166.834 175.132, 167.655 174.783, 168.957 173.057 C 170.762 170.664, 173 170.942, 173 173.559 C 173 175.332, 175.138 175.436, 176.925 173.750 C 177.985 172.750, 178.342 172.750, 178.708 173.750 C 179.252 175.234, 182.622 175.421, 183.491 174.015 C 183.825 173.474, 185.089 173.085, 186.300 173.151 C 187.510 173.217, 189.287 172.937, 190.250 172.528 C 191.499 171.999, 192 172.246, 192 173.393 C 192 175.346, 195.840 175.581, 196.572 173.672 C 196.852 172.942, 196.647 171.202, 196.116 169.804 L 195.150 167.263 178.325 167.592 C 169.071 167.773, 157.450 168.436, 152.500 169.065 C 140.570 170.581, 134.309 170.968, 117 171.257 L 102.500 171.500 102.871 160.500 C 103.097 153.826, 103.686 149.211, 104.371 148.765 C 106.040 147.679, 110 147.844, 110 149 C 110 150.766, 113.750 150.066, 114.235 148.209 C 114.830 145.935, 123.147 142.942, 123.760 144.781 C 123.985 145.454, 125.868 146, 127.967 146 C 130.910 146, 131.883 145.555, 132.283 144.025 C 132.713 142.382, 133.450 142.124, 136.650 142.491 C 138.767 142.734, 141.625 143.212, 143 143.553 C 144.782 143.995, 145.103 143.893, 144.119 143.197 C 143.096 142.473, 143.873 142.021, 147.119 141.452 C 153.352 140.360, 161 140.333, 161 141.402 C 161 141.901, 161.787 141.609, 162.750 140.752 C 164.191 139.470, 165.536 139.360, 170.360 140.129 C 174.552 140.796, 176.616 140.734, 177.610 139.909 C 178.665 139.033, 179.363 139.057, 180.510 140.008 C 181.446 140.785, 183.538 141.057, 186.019 140.724 C 189.329 140.280, 190.276 140.557, 191.518 142.329 C 192.765 144.110, 193.333 144.273, 194.894 143.299 C 197.412 141.726, 200.563 142.684, 202.476 145.604 C 203.899 147.776, 203.900 148.223, 202.486 150.381 C 201.240 152.282, 200.984 155.252, 201.213 165.131 C 201.487 176.947, 201.597 177.514, 203.664 177.808 C 206.466 178.207, 206.712 177.303, 208.093 161.500 C 208.718 154.350, 209.442 146.433, 209.701 143.907 C 210.380 137.288, 208.840 136.083, 200.560 136.747 C 196.973 137.035, 192.117 136.763, 189.769 136.144 C 177.700 132.957, 147.092 135.025, 116.260 141.109 C 110.628 142.221, 105.662 142.909, 105.226 142.640 C 104.790 142.370, 104.613 140.260, 104.833 137.951 C 105.126 134.884, 105.742 133.619, 107.117 133.259 C 109.298 132.689, 109.387 132.140, 107.920 128.315 C 106.868 125.570, 105.866 85.814, 106.784 83.220 C 107.048 82.475, 108.023 82.190, 109.118 82.538 C 110.871 83.094, 111.531 82.111, 111.077 79.625 C 110.989 79.145, 112.173 79.064, 113.708 79.447 C 118.615 80.672, 121.517 80.584, 121.240 79.221 C 121.033 78.203, 121.442 78.213, 123.240 79.273 C 126.193 81.014, 133.500 80.107, 133.500 78 C 133.500 76.807, 135.033 76.485, 141 76.426 C 145.125 76.385, 149.268 76.007, 150.206 75.586 C 151.145 75.164, 153.906 75.244, 156.341 75.764 C 159.011 76.333, 161.414 76.348, 162.393 75.800 C 163.285 75.301, 164.417 75.140, 164.907 75.442 C 165.397 75.745, 167.729 76.236, 170.089 76.532 C 172.450 76.829, 174.920 77.519, 175.579 78.065 C 176.381 78.731, 177.666 78.654, 179.476 77.829 C 181.971 76.692, 182.395 76.851, 185.087 79.935 C 188.420 83.753, 188.830 86.550, 186.159 87.248 C 184.625 87.649, 184.208 89.133, 183.665 96.115 C 183.306 100.727, 183.009 107.763, 183.006 111.750 C 183.003 115.737, 182.662 119.049, 182.250 119.110 C 180.282 119.397, 173.370 119.838, 161.500 120.432 C 126.153 122.200, 112.947 123.659, 111.530 125.952 C 111.224 126.446, 111.503 128.009, 112.148 129.425 C 113.406 132.187, 117 132.983, 117 130.500 C 117 129.667, 117.889 129, 119 129 C 120.111 129, 121 129.667, 121 130.500 C 121 132.756, 122.688 132.302, 123.322 129.876 C 123.775 128.144, 124.367 127.875, 126.534 128.419 C 127.996 128.786, 129.744 128.627, 130.419 128.067 C 131.256 127.373, 133.540 127.398, 137.574 128.145 C 145.204 129.558, 151.010 129.301, 153.044 127.460 C 154.859 125.818, 163.490 125.398, 162.500 127 C 162.109 127.633, 164.692 128, 169.548 128 C 175.951 128, 177.119 127.753, 176.638 126.500 C 175.710 124.080, 177.863 124.770, 181.304 127.995 C 183.062 129.643, 184.753 130.993, 185.062 130.995 C 185.371 130.998, 186.622 129.650, 187.842 128 C 189.457 125.816, 190.883 125, 193.087 125 C 196.031 125, 196.106 124.882, 195.807 120.750 C 195.519 116.761, 195.301 116.481, 192.250 116.187 L 189 115.873 189.060 108.687 C 189.092 104.734, 189.550 99.250, 190.077 96.500 C 192.802 82.270, 193.387 76.837, 192.368 75.222 C 190.589 72.402, 174.299 70.877, 152 71.445 C 141.275 71.718, 130.137 72.223, 127.250 72.567 C 122.966 73.078, 122 72.916, 122 71.689 C 122 70.861, 123.298 69.355, 124.884 68.342 C 132.058 63.759, 143.807 54.835, 146.925 51.599 C 150.272 48.125, 150.308 47.998, 148.520 46.022 C 147.513 44.910, 146.197 44, 145.595 44 C 144.993 44, 140.900 47.042, 136.500 50.759 M 125.813 78.683 C 126.534 78.972, 127.397 78.936, 127.729 78.604 C 128.061 78.272, 127.471 78.036, 126.417 78.079 C 125.252 78.127, 125.015 78.364, 125.813 78.683 M 189.694 121.639 C 188.928 122.406, 189.778 124, 190.952 124 C 191.411 124, 192.045 123.325, 192.362 122.500 C 192.932 121.013, 190.957 120.376, 189.694 121.639 M 166.626 125.796 C 166.004 126.802, 170.574 126.760, 171.584 125.750 C 171.996 125.338, 171.160 125, 169.726 125 C 168.291 125, 166.897 125.358, 166.626 125.796 M 120 147 C 120 147.550, 120.450 148, 121 148 C 121.550 148, 122 147.550, 122 147 C 122 146.450, 121.550 146, 121 146 C 120.450 146, 120 146.450, 120 147 M 149.079 188.583 C 149.127 189.748, 149.364 189.985, 149.683 189.188 C 149.972 188.466, 149.936 187.603, 149.604 187.271 C 149.272 186.939, 149.036 187.529, 149.079 188.583 M 221.750 212.662 C 222.438 212.940, 223.563 212.940, 224.250 212.662 C 224.938 212.385, 224.375 212.158, 223 212.158 C 221.625 212.158, 221.063 212.385, 221.750 212.662 M 153.079 222.583 C 153.127 223.748, 153.364 223.985, 153.683 223.188 C 153.972 222.466, 153.936 221.603, 153.604 221.271 C 153.272 220.939, 153.036 221.529, 153.079 222.583 M 155.079 237.583 C 155.127 238.748, 155.364 238.985, 155.683 238.188 C 155.972 237.466, 155.936 236.603, 155.604 236.271 C 155.272 235.939, 155.036 236.529, 155.079 237.583" stroke="none" fill="black" fill-rule="evenodd"/>
</svg>