<svg xmlns="http://www.w3.org/2000/svg" width="300" height="300" viewBox="0 0 300 300" version="1.1">
	<path d="M 168.500 20.015 C 160.294 21.056, 136.747 21.946, 117.758 21.933 C 100.473 21.920, 97.991 22.530, 98.015 26.785 C 98.046 32.233, 98.710 32.473, 114.712 32.831 C 123.693 33.031, 130.966 32.723, 133.232 32.046 C 136.266 31.139, 137.534 31.225, 140.006 32.503 C 143.041 34.073, 143.047 34.091, 142.462 40.788 C 141.478 52.064, 141.921 51.435, 134.015 52.791 C 130.136 53.456, 123.626 54, 119.547 54 C 115.468 54, 110.925 54.458, 109.453 55.018 C 107.980 55.578, 104.238 56.225, 101.138 56.456 C 98.037 56.687, 91 58.079, 85.500 59.550 C 80 61.021, 73.025 62.527, 70 62.896 C 64.953 63.512, 59.528 65.984, 57.800 68.454 C 56.768 69.931, 57.631 76.307, 62.611 104 C 64.912 116.794, 66.081 120.080, 68.768 121.304 C 72.183 122.860, 73.107 120.821, 72.535 113 C 72.273 109.425, 71.523 99.476, 70.868 90.892 C 70.213 82.308, 69.960 74.545, 70.307 73.642 C 70.681 72.666, 72.066 71.997, 73.719 71.994 C 75.248 71.990, 77.647 71.389, 79.049 70.657 C 80.451 69.926, 84.455 69.028, 87.947 68.663 C 91.439 68.298, 94.795 67.585, 95.406 67.078 C 96.017 66.571, 101.013 65.838, 106.508 65.449 C 112.004 65.060, 116.950 64.407, 117.500 63.997 C 118.808 63.023, 141.501 62.074, 142.895 62.935 C 143.547 63.338, 144.010 68.088, 144.076 75.037 C 144.136 81.329, 144.609 87.269, 145.128 88.238 C 145.733 89.370, 145.696 90.699, 145.024 91.954 C 143.601 94.613, 143.563 125.963, 144.981 127.381 C 146.690 129.090, 149.405 126.750, 150.192 122.891 C 150.572 121.026, 151.300 117.475, 151.808 115 C 154.533 101.749, 155.763 71.347, 153.870 64.082 C 153.053 60.948, 158.022 60.028, 175.500 60.077 C 184.850 60.102, 195.875 60.573, 200 61.123 C 204.125 61.672, 210.374 62.361, 213.887 62.652 L 220.273 63.183 219.579 73.265 C 219.197 78.810, 218.387 84.276, 217.780 85.411 C 217.126 86.633, 216.606 94.116, 216.507 103.738 L 216.338 120 219.101 120 C 222.138 120, 221.421 122.183, 226.658 97 C 227.516 92.875, 228.617 88.149, 229.105 86.499 C 229.864 83.927, 232.969 61.519, 232.992 58.441 C 232.996 57.859, 232.362 56.509, 231.582 55.441 C 230.447 53.887, 228.402 53.359, 221.332 52.792 C 194.576 50.647, 179.065 49.959, 166.821 50.375 L 153.142 50.840 152.436 44.250 C 152.048 40.625, 152.129 36.048, 152.615 34.080 L 153.500 30.500 164.500 28.835 C 177.381 26.885, 184.415 26.617, 186.961 27.979 C 188.296 28.693, 189.129 28.549, 190.046 27.445 C 192.337 24.684, 189.450 21.262, 183.810 20.053 C 178.428 18.898, 177.321 18.896, 168.500 20.015 M 150 24.500 C 150 25.325, 150.675 26, 151.500 26 C 152.325 26, 153 25.325, 153 24.500 C 153 23.675, 152.325 23, 151.500 23 C 150.675 23, 150 23.675, 150 24.500 M 133.496 26.193 C 133.669 28.545, 135.434 29.725, 136.412 28.143 C 137.257 26.775, 136.017 24, 134.560 24 C 133.886 24, 133.407 24.987, 133.496 26.193 M 141.667 24.667 C 140.516 25.817, 140.938 27, 142.500 27 C 143.325 27, 144 26.325, 144 25.500 C 144 23.938, 142.817 23.516, 141.667 24.667 M 116 29 C 114.787 29.784, 114.931 29.972, 116.750 29.985 C 117.987 29.993, 119 29.550, 119 29 C 119 27.747, 117.939 27.747, 116 29 M 162.724 53.134 C 160.737 54.247, 160.394 57.017, 162.250 56.965 C 162.938 56.945, 164.588 56.326, 165.918 55.590 C 168.243 54.301, 168.261 54.210, 166.392 53.210 C 165.122 52.530, 163.850 52.504, 162.724 53.134 M 174 53.935 C 167.683 54.584, 169.030 55.634, 177.451 56.623 C 180.904 57.029, 182.971 56.856, 183.425 56.122 C 184.274 54.748, 188.706 54.629, 189.167 55.968 C 189.372 56.565, 190.064 56.585, 190.971 56.022 C 191.780 55.520, 192.230 54.922, 191.971 54.694 C 191.038 53.874, 179.384 53.381, 174 53.935 M 154 55.500 C 154 56.325, 154.885 57, 155.969 57 C 157.308 57, 157.753 56.520, 157.362 55.500 C 157.045 54.675, 156.159 54, 155.393 54 C 154.627 54, 154 54.675, 154 55.500 M 203.500 56 C 203.132 56.595, 204.323 57, 206.441 57 C 208.398 57, 210 56.550, 210 56 C 210 55.450, 208.677 55, 207.059 55 C 205.441 55, 203.840 55.450, 203.500 56 M 132 56.914 L 128.500 57.564 133.045 58.235 C 135.545 58.604, 138.358 59.200, 139.295 59.560 C 140.569 60.049, 141 59.682, 141 58.107 C 141 55.837, 139.128 55.589, 132 56.914 M 198.813 56.683 C 199.534 56.972, 200.397 56.936, 200.729 56.604 C 201.061 56.272, 200.471 56.036, 199.417 56.079 C 198.252 56.127, 198.015 56.364, 198.813 56.683 M 116.500 59 C 113.702 59.712, 113.791 59.771, 117.809 59.882 C 120.453 59.954, 121.879 59.614, 121.500 59 C 120.822 57.902, 120.813 57.902, 116.500 59 M 225 64.191 C 225 68.091, 225.102 68.247, 226.468 66.441 C 228.412 63.871, 228.431 60, 226.500 60 C 225.405 60, 225 61.132, 225 64.191 M 146.792 67.750 C 147.281 75.349, 147.759 76.005, 147.884 69.250 C 147.948 65.813, 147.659 63, 147.243 63 C 146.826 63, 146.623 65.138, 146.792 67.750 M 188.500 85.677 C 186.850 86.570, 184.825 87.684, 184 88.153 C 183.175 88.621, 181.600 89.429, 180.500 89.947 C 175.150 92.468, 165 105.357, 165 109.630 C 165 112.377, 167.268 113.270, 169.653 111.463 C 170.669 110.693, 172.447 110.049, 173.604 110.032 C 174.761 110.014, 176.922 108.875, 178.405 107.500 C 179.889 106.125, 182.154 105, 183.438 105 C 185.110 105, 186.230 104.035, 187.386 101.599 C 188.274 99.728, 189.021 97.816, 189.047 97.349 C 189.072 96.882, 190.985 95.573, 193.297 94.440 C 196.500 92.870, 197.577 91.725, 197.822 89.629 C 198.450 84.270, 194.328 82.522, 188.500 85.677 M 220.497 87.148 C 220.184 87.963, 220.324 89.700, 220.807 91.008 L 221.687 93.385 222.399 90.548 C 223.169 87.478, 221.509 84.510, 220.497 87.148 M 106.935 92.006 C 98.216 92.835, 95.291 95.698, 95.889 102.817 C 95.959 103.646, 96.710 103.909, 97.915 103.527 C 99.180 103.126, 100.300 103.590, 101.213 104.894 C 102.190 106.288, 103.022 106.598, 104.048 105.949 C 104.847 105.444, 106.949 105.024, 108.719 105.015 C 111.832 105.001, 120.154 101.414, 120.833 99.795 C 121.017 99.358, 123.154 99, 125.583 99 C 129.739 99, 129.999 98.837, 129.985 96.250 C 129.976 94.737, 129.631 92.968, 129.217 92.318 C 128.409 91.047, 118.475 90.908, 106.935 92.006 M 145.607 104.582 C 144.672 107.019, 144.887 110.812, 146 111.500 C 146.611 111.878, 147 110.344, 147 107.559 C 147 102.770, 146.617 101.951, 145.607 104.582 M 122 125.782 C 119.525 126.624, 117.350 127.692, 117.167 128.156 C 116.983 128.620, 115.351 129, 113.539 129 C 111.727 129, 109.685 129.675, 109 130.500 C 108.253 131.400, 106.066 132, 103.533 132 C 98.213 132, 95.726 134.421, 96.180 139.156 C 96.482 142.316, 96.734 142.517, 100.750 142.807 C 103.265 142.989, 105 142.683, 105 142.057 C 105 141.476, 105.675 141, 106.500 141 C 107.325 141, 108 140.559, 108 140.019 C 108 139.480, 109.107 138.760, 110.459 138.421 C 111.811 138.081, 113.442 137.173, 114.081 136.402 C 114.721 135.631, 116.202 134.982, 117.372 134.959 C 118.543 134.937, 121.058 133.587, 122.962 131.959 C 124.866 130.332, 127.004 129, 127.712 129 C 128.421 129, 129 127.875, 129 126.500 C 129 123.681, 128.370 123.616, 122 125.782 M 172.655 127.829 C 169.632 131.169, 170.569 133.749, 175.750 136.359 C 178.363 137.675, 182.969 139.275, 185.987 139.916 C 189.005 140.556, 192.380 141.667, 193.487 142.384 C 194.594 143.101, 199.438 143.986, 204.250 144.350 L 213 145.012 213 142.136 C 213 139.578, 212.499 139.120, 208.474 137.993 C 205.985 137.296, 203.709 136.337, 203.415 135.863 C 203.122 135.388, 202.031 135, 200.991 135 C 199.950 135, 198.740 134.420, 198.300 133.710 C 197.546 132.494, 194.115 131.283, 180.912 127.571 C 174.062 125.645, 174.648 125.627, 172.655 127.829 M 182.557 143.223 C 181.701 144.445, 181 146.004, 181 146.687 C 181 147.371, 180.053 148.436, 178.896 149.056 C 176.877 150.136, 176.811 150.737, 177.262 163.841 C 177.520 171.353, 177.502 180.113, 177.222 183.306 L 176.712 189.112 169.106 188.523 C 164.923 188.199, 153.625 188.331, 144 188.816 C 128.482 189.599, 126.352 189.518, 125.192 188.100 C 124.461 187.206, 124.131 185.396, 124.445 184 C 124.754 182.625, 125.296 177.225, 125.648 172 C 126.007 166.678, 126.885 161.633, 127.644 160.527 C 129.472 157.867, 129.358 154.351, 127.418 153.607 C 124.792 152.599, 124.185 152.877, 122.391 155.916 C 121.131 158.049, 119.975 158.787, 118.084 158.666 C 115.590 158.506, 115.478 158.743, 114.874 165.500 C 114.530 169.350, 114.193 176.887, 114.124 182.250 L 114 192 109.434 192 C 106.923 192, 104.027 192.450, 102.999 193.001 C 101.970 193.551, 96.877 194.442, 91.681 194.981 C 86.484 195.520, 81.038 196.415, 79.577 196.971 C 77.775 197.656, 74.762 197.641, 70.210 196.926 C 62.916 195.780, 63.269 195.795, 57.576 196.363 C 52.536 196.866, 50.274 199.540, 52.660 202.177 C 54.555 204.271, 56.960 203.053, 56.540 200.213 C 56.401 199.271, 56.480 199.063, 56.717 199.750 C 56.953 200.438, 57.564 201, 58.073 201 C 58.583 201, 59 201.810, 59 202.800 C 59 206.207, 61.109 207.002, 69.950 206.929 C 82.746 206.822, 98.367 204.778, 107.318 202.037 C 113.636 200.103, 114 200.969, 114 217.944 C 114 227.880, 113.541 234.079, 112.583 237.072 C 111.046 241.873, 109.628 258.307, 109.549 272.223 C 109.506 279.866, 109.767 281.213, 111.661 283.106 C 113.455 284.899, 114.896 285.244, 120.161 285.139 C 147.242 284.601, 166.795 284.079, 167.574 283.874 C 168.083 283.740, 172.196 283.984, 176.714 284.416 C 184.215 285.134, 185.160 285.019, 187.599 283.101 C 189.068 281.945, 191.141 281, 192.206 281 C 194.876 281, 197 278.631, 197 275.653 C 197 269.995, 194.559 268.520, 190.223 271.557 C 188.174 272.992, 187.988 272.972, 187.842 271.307 C 187.756 270.313, 187.770 268.825, 187.873 268 C 187.977 267.175, 188.298 252.786, 188.587 236.025 C 188.964 214.095, 189.444 205.344, 190.297 204.816 C 190.950 204.413, 192.604 204.364, 193.974 204.708 C 195.344 205.052, 196.922 205.250, 197.482 205.149 C 198.042 205.047, 202.358 204.580, 207.074 204.111 C 211.790 203.642, 216.598 202.750, 217.758 202.129 C 218.919 201.508, 221.698 201, 223.934 201 C 227.309 201, 228 200.666, 228 199.035 C 228 196.165, 224.981 195, 217.541 195 C 211.380 195, 210.887 194.832, 209.971 192.425 C 209.433 191.008, 208.351 189.208, 207.568 188.425 C 205.924 186.781, 202.406 186.535, 201.500 188 C 201.160 188.550, 198.269 189, 195.075 189 L 189.268 189 188.601 173.750 C 188.234 165.363, 187.997 155.523, 188.074 151.885 C 188.209 145.532, 186.938 141, 185.022 141 C 184.522 141, 183.413 142, 182.557 143.223 M 136.559 193.532 C 134.754 194.897, 134.918 195, 138.880 195 C 142.669 195, 142.976 194.833, 141.643 193.500 C 139.798 191.656, 139.033 191.660, 136.559 193.532 M 149 193.500 C 149 194.333, 149.889 195, 151 195 C 152.111 195, 153 194.333, 153 193.500 C 153 192.667, 152.111 192, 151 192 C 149.889 192, 149 192.667, 149 193.500 M 197 193 C 197 193.550, 197.450 194, 198 194 C 198.550 194, 199 193.550, 199 193 C 199 192.450, 198.550 192, 198 192 C 197.450 192, 197 192.450, 197 193 M 101 196.500 C 101 197.557, 99.931 198, 97.378 198 C 94.271 198, 93.932 198.214, 95 199.500 C 95.769 200.427, 97.965 201, 100.745 201 C 104.824 201, 105.117 200.845, 103.872 199.337 C 102.802 198.041, 102.775 197.582, 103.750 197.254 C 105.730 196.587, 105.202 195, 103 195 C 101.889 195, 101 195.667, 101 196.500 M 111.158 197 C 111.158 198.375, 111.385 198.938, 111.662 198.250 C 111.940 197.563, 111.940 196.438, 111.662 195.750 C 111.385 195.063, 111.158 195.625, 111.158 197 M 156.813 195.683 C 157.534 195.972, 158.397 195.936, 158.729 195.604 C 159.061 195.272, 158.471 195.036, 157.417 195.079 C 156.252 195.127, 156.015 195.364, 156.813 195.683 M 105.813 198.683 C 106.534 198.972, 107.397 198.936, 107.729 198.604 C 108.061 198.272, 107.471 198.036, 106.417 198.079 C 105.252 198.127, 105.015 198.364, 105.813 198.683 M 137.500 198.945 C 136.400 199.448, 133.925 199.898, 132 199.945 C 125.671 200.100, 125.569 200.352, 124.810 217.711 C 124.095 234.086, 123.789 237.428, 122.079 247.500 C 121.519 250.800, 120.757 257.877, 120.386 263.226 C 119.840 271.107, 119.976 273.029, 121.106 273.359 C 121.873 273.583, 125.514 274.313, 129.197 274.981 C 134.950 276.025, 136.587 275.966, 140.810 274.563 C 144.760 273.251, 146.647 273.137, 150.411 273.980 C 152.988 274.558, 158.734 274.792, 163.179 274.501 C 168.078 274.181, 171.753 274.380, 172.508 275.006 C 173.433 275.775, 174.170 275.162, 175.377 272.619 C 176.777 269.667, 177 264.456, 177 234.658 C 177 211.615, 176.651 199.902, 175.950 199.469 C 174.248 198.417, 139.685 197.946, 137.500 198.945 M 76.835 200.673 C 75.003 201.158, 73.474 204, 75.045 204 C 75.585 204, 76.809 203.551, 77.764 203.002 C 78.719 202.452, 81.750 201.603, 84.500 201.113 L 89.500 200.224 84 200.228 C 80.975 200.230, 77.751 200.430, 76.835 200.673 M 157.500 231.913 C 154.369 233.212, 138.973 235.333, 134.101 235.137 C 131.188 235.019, 129.077 235.525, 127.851 236.635 C 125.744 238.542, 125.394 242.507, 127.233 243.644 C 130.612 245.733, 144.336 244.399, 150 241.431 C 151.375 240.711, 155.875 239.602, 160 238.967 C 164.125 238.333, 168.987 237.578, 170.805 237.291 C 173.682 236.836, 174.071 236.427, 173.805 234.134 C 173.492 231.429, 173.407 231.405, 166.500 232.085 C 165.400 232.194, 163.375 232.013, 162 231.683 C 160.625 231.353, 158.600 231.457, 157.500 231.913 M 135.813 240.683 C 136.534 240.972, 137.397 240.936, 137.729 240.604 C 138.061 240.272, 137.471 240.036, 136.417 240.079 C 135.252 240.127, 135.015 240.364, 135.813 240.683 M 113 262.417 C 113 263.196, 112.438 264.042, 111.750 264.297 C 110.834 264.636, 110.968 265.251, 112.250 266.594 C 113.932 268.357, 114 268.284, 114 264.714 C 114 262.671, 113.775 261, 113.500 261 C 113.225 261, 113 261.637, 113 262.417 M 137 278 C 134.233 280.164, 134.325 280.198, 142.861 280.144 C 145.810 280.126, 148.473 279.861, 148.778 279.555 C 149.083 279.250, 147.472 279, 145.198 279 C 141.933 279, 141.184 278.684, 141.638 277.500 C 142.449 275.387, 140.004 275.650, 137 278 M 161.269 276.693 C 162.242 276.947, 163.592 276.930, 164.269 276.656 C 164.946 276.382, 164.150 276.175, 162.500 276.195 C 160.850 276.215, 160.296 276.439, 161.269 276.693 M 120.667 279.667 C 119.545 280.788, 119.923 282, 121.393 282 C 122.159 282, 123.045 281.325, 123.362 280.500 C 123.939 278.996, 121.951 278.382, 120.667 279.667" stroke="none" fill="black" fill-rule="evenodd"/>
</svg>