<svg xmlns="http://www.w3.org/2000/svg" width="300" height="300" viewBox="0 0 300 300" version="1.1">
	<path d="M 218.250 14.684 C 215.912 16.069, 214 17.592, 214 18.067 C 214 18.542, 212.734 20.227, 211.186 21.810 C 209.638 23.393, 207.751 26.221, 206.993 28.094 C 206.234 29.968, 205.362 31.725, 205.054 32 C 204.746 32.275, 202.853 34.975, 200.846 38 C 197.228 43.454, 181.887 60, 180.448 60 C 180.036 60, 177.741 61.913, 175.348 64.250 C 164.051 75.284, 148.004 88.229, 144.079 89.475 C 141.299 90.357, 141.731 93.387, 144.699 93.811 C 145.897 93.983, 147.781 93.219, 148.885 92.115 C 150.837 90.163, 152.281 89.264, 161.956 83.980 C 166.352 81.579, 173.910 75.963, 182.395 68.792 C 190.581 61.874, 209.856 42.027, 210.536 39.815 C 210.928 38.542, 212.125 36.665, 213.196 35.644 C 215.097 33.832, 215.204 33.843, 217.572 36.068 C 218.908 37.322, 220 38.867, 220 39.500 C 220 41.463, 224.791 45.294, 226.449 44.658 C 228.643 43.816, 230.970 44.915, 230.359 46.506 C 229.784 48.004, 233.511 50.420, 234.988 49.507 C 235.509 49.185, 237.834 49.840, 240.155 50.961 C 245.173 53.385, 246.595 53.497, 247.351 51.527 C 247.922 50.039, 244.598 47, 242.400 47 C 241.765 47, 240.730 46.379, 240.100 45.621 C 239.470 44.862, 237.724 43.995, 236.220 43.694 C 234.716 43.393, 230.226 40.133, 226.242 36.449 C 218.220 29.031, 217.550 27.082, 221.065 21.394 C 222.268 19.448, 222.999 16.823, 222.815 15.108 L 222.500 12.164 218.250 14.684 M 101.764 64.789 C 94.401 65.032, 92.870 65.374, 92.018 66.966 C 91.462 68.005, 91.289 69.591, 91.634 70.489 C 92.167 71.877, 93.413 72.037, 99.881 71.552 C 112.690 70.591, 118.020 69.841, 117.542 69.068 C 117.291 68.661, 118.749 68.599, 120.782 68.930 C 125.144 69.639, 126.009 71.889, 123.678 76.461 C 122.826 78.132, 120.315 83.325, 118.099 88 C 113.778 97.112, 105.683 106.480, 96.686 112.782 C 88.723 118.359, 90.832 120.942, 104.285 122.088 C 109.353 122.519, 115.300 123.463, 117.500 124.186 C 121.059 125.355, 121.533 125.890, 121.798 129.034 C 121.961 130.978, 121.736 133.515, 121.298 134.672 C 120.221 137.511, 109.315 149.768, 100.465 158.087 C 99.345 159.139, 97.748 160, 96.915 160 C 96.082 160, 94.881 160.519, 94.247 161.153 C 92.512 162.888, 94.601 166, 97.501 166 C 100.567 166, 107 162.985, 107 161.548 C 107 160.953, 109.060 158.111, 111.577 155.233 C 115.386 150.879, 116.561 150.103, 118.577 150.609 C 119.910 150.943, 121 150.803, 121 150.297 C 121 149.791, 121.819 148.498, 122.820 147.423 C 126.030 143.978, 130 136.405, 130 133.727 C 130 128.888, 126.124 122, 123.400 122 C 122.765 122, 121.745 121.398, 121.135 120.663 C 120.525 119.927, 116.825 118.722, 112.912 117.983 C 109 117.245, 105.592 116.100, 105.338 115.439 C 104.858 114.189, 109.086 109, 110.584 109 C 112.528 109, 124.362 95.116, 126.512 90.313 C 129.618 83.374, 131.661 70.745, 130.196 67.531 C 128.968 64.835, 124.156 63.753, 115.500 64.227 C 112.750 64.377, 106.569 64.630, 101.764 64.789 M 205.500 71.071 C 202.750 71.439, 198.025 72.498, 195 73.426 C 191.975 74.353, 188.825 75.232, 188 75.379 C 187.175 75.526, 185.464 75.989, 184.197 76.407 C 182.329 77.025, 182.120 77.440, 183.090 78.608 C 183.747 79.400, 183.971 80.362, 183.588 80.745 C 183.205 81.128, 182.511 80.827, 182.047 80.075 C 180.868 78.169, 178 79.511, 178 81.969 C 178 83.333, 178.656 84, 180 84 C 181.100 84, 182 83.628, 182 83.173 C 182 82.718, 184.993 81.794, 188.652 81.120 C 192.310 80.446, 196.538 79.256, 198.047 78.476 C 199.556 77.696, 202.750 76.784, 205.145 76.451 C 209.888 75.791, 214 74.126, 214 72.866 C 214 71.206, 210.317 70.428, 205.500 71.071 M 78.563 72.899 C 78.218 73.456, 78.640 75.595, 79.500 77.653 C 81.193 81.707, 80.885 84, 78.645 84 C 76.979 84, 76.328 88.402, 76.058 101.500 C 75.956 106.450, 75.449 113.425, 74.932 117 C 74.415 120.575, 73.740 134.750, 73.432 148.500 C 73.125 162.250, 72.413 177.100, 71.849 181.500 C 69.653 198.662, 69.124 206.040, 69.063 220.303 C 69.021 230.211, 68.458 237.485, 67.362 242.303 C 66.061 248.016, 65.860 252.228, 66.386 262.732 C 67.120 277.384, 67.384 278.600, 70.155 280.083 C 74.392 282.351, 78.801 278.237, 77.055 273.646 C 75.721 270.137, 75.655 251.823, 76.921 236.500 C 77.512 229.350, 78.232 218.775, 78.521 213 C 78.809 207.225, 79.475 198.450, 80 193.500 C 82.245 172.335, 83.080 160.412, 83.535 143 C 83.801 132.825, 84.404 113.925, 84.875 101 C 85.790 75.904, 85.405 72.775, 81.335 72.193 C 80.155 72.024, 78.907 72.342, 78.563 72.899 M 188.500 79 C 188.840 79.550, 189.766 80, 190.559 80 C 191.352 80, 192 79.550, 192 79 C 192 78.450, 191.073 78, 189.941 78 C 188.809 78, 188.160 78.450, 188.500 79 M 221.500 93.982 C 218.200 94.355, 213.827 95.412, 211.782 96.330 C 209.737 97.249, 206.487 98, 204.560 98 C 202.632 98, 196.656 99.171, 191.278 100.601 C 185.900 102.032, 179.700 103.494, 177.500 103.851 C 175.300 104.208, 173.563 104.850, 173.641 105.279 C 174.499 110.025, 174.643 110.115, 180.168 109.409 C 185.455 108.734, 190.928 106.606, 192.119 104.763 C 192.835 103.655, 196.036 103.590, 200.932 104.584 C 203.926 105.191, 204.655 104.917, 206.634 102.434 C 208.589 99.983, 208.995 99.824, 209.559 101.294 C 210.420 103.536, 212.903 103.422, 216 101 C 218.784 98.823, 225.896 98.296, 227.732 100.132 C 228.575 100.975, 227.965 103.083, 225.344 108.382 C 223.409 112.297, 221.077 117.075, 220.162 119 C 217.840 123.889, 204.024 137.426, 200.966 137.808 C 199.610 137.977, 195.575 138.479, 192 138.922 C 170.939 141.535, 168.628 142.105, 165.828 145.369 C 163.995 147.507, 163.462 148.852, 164.130 149.657 C 165.353 151.130, 170.453 149.805, 173.228 147.294 C 175.080 145.618, 175.246 145.616, 176.451 147.263 C 177.953 149.318, 180 149.554, 180 147.673 C 180 145.863, 190.815 144.128, 198.773 144.661 C 203.348 144.968, 205.641 144.665, 207.245 143.541 C 208.455 142.693, 210.865 142, 212.600 142 C 214.335 142, 216.320 141.319, 217.010 140.488 C 217.968 139.333, 218.591 139.245, 219.639 140.116 C 220.656 140.959, 222.118 140.969, 225.257 140.155 C 227.591 139.549, 233.701 138.853, 238.835 138.608 C 243.970 138.363, 248.413 137.921, 248.709 137.625 C 250.066 136.268, 247.823 134.232, 244.337 133.656 C 238.310 132.660, 227 132.885, 227 134 C 227 134.550, 225.200 135, 223 135 C 218.498 135, 217.613 133.085, 221.014 130.703 C 230.744 123.887, 238.865 99.808, 233.171 94.655 C 231.250 92.916, 231.049 92.904, 221.500 93.982 M 167 109.917 C 167 111.145, 167.646 112, 168.573 112 C 169.505 112, 170.015 111.320, 169.823 110.333 C 169.337 107.824, 167 107.480, 167 109.917 M 77.015 145.750 C 77.027 147.893, 77.245 148.169, 78 147 C 79.264 145.043, 79.264 143, 78 143 C 77.450 143, 77.007 144.238, 77.015 145.750 M 220.500 152.386 C 213.431 154.740, 207.919 157.024, 207 157.980 C 206.725 158.266, 204.925 159.356, 203 160.403 C 201.075 161.450, 197.565 163.587, 195.200 165.153 C 192.835 166.719, 190.016 168, 188.936 168 C 187.856 168, 186.191 168.447, 185.236 168.993 C 181.776 170.971, 174.364 173.205, 168.126 174.151 C 164.620 174.682, 160.795 175.721, 159.626 176.460 C 158.457 177.199, 156.007 178.115, 154.182 178.496 C 150.260 179.315, 149.085 181.513, 151.356 183.785 C 152.629 185.058, 153.250 185.150, 154.193 184.207 C 154.857 183.543, 156.676 183, 158.235 183 C 159.795 183, 162.220 182.246, 163.626 181.325 C 165.268 180.249, 167.859 179.727, 170.874 179.865 C 175.772 180.088, 183 177.737, 183 175.920 C 183 175.341, 184.234 175.010, 185.741 175.184 C 189.728 175.644, 189.727 178.404, 185.741 184.355 C 183.846 187.185, 180.440 192.425, 178.173 196 C 173.375 203.566, 171.703 205.805, 167.182 210.711 C 160.740 217.703, 157.265 223.057, 150.769 236 C 150.079 237.375, 148.724 239.372, 147.757 240.439 C 146.791 241.505, 146 242.760, 146 243.229 C 146 243.698, 145.061 245.351, 143.913 246.904 C 142.762 248.461, 141.977 250.798, 142.163 252.114 C 142.468 254.273, 143.024 254.517, 148 254.675 C 151.394 254.783, 153.883 254.372, 154.500 253.601 C 155.785 251.995, 162 249.825, 162 250.982 C 162 251.466, 161.023 252.005, 159.828 252.180 C 158.634 252.356, 157.471 253.063, 157.245 253.750 C 156.681 255.464, 161.996 255.385, 164.527 253.642 C 165.612 252.895, 168.263 251.960, 170.418 251.565 C 172.572 251.170, 176.735 249.949, 179.669 248.851 C 184.639 246.991, 184.958 246.673, 184.363 244.178 C 184.011 242.705, 183.534 241.162, 183.303 240.750 C 182.629 239.548, 179.793 239.883, 178.079 241.366 C 177.210 242.117, 173.800 243.514, 170.500 244.470 C 167.200 245.425, 163.250 246.592, 161.722 247.061 C 158.912 247.925, 156 247.407, 156 246.042 C 156 244.242, 158.276 239, 159.058 239 C 159.532 239, 160.459 237.200, 161.118 235 C 161.777 232.800, 162.686 231, 163.138 231 C 163.590 231, 164.878 229.200, 166 227 C 167.122 224.800, 168.482 223, 169.020 223 C 169.559 223, 170 222.351, 170 221.558 C 170 220.765, 172.291 217.503, 175.091 214.308 C 180.803 207.791, 185.763 200.752, 187.076 197.301 C 187.557 196.036, 188.423 195, 189 195 C 189.577 195, 190.480 193.988, 191.006 192.750 C 191.532 191.512, 193.331 188.250, 195.004 185.500 C 198.172 180.294, 200.504 175.652, 201.347 172.876 C 201.618 171.983, 203.382 170.963, 205.266 170.610 C 211.553 169.431, 219.991 164.440, 220.010 161.890 C 220.016 161.125, 222.790 159.211, 226.173 157.636 C 231.198 155.298, 233.148 154.886, 236.812 155.388 C 239.279 155.726, 241.900 156.502, 242.636 157.113 C 244.999 159.074, 247.159 157.338, 246.814 153.757 L 246.500 150.500 237 150.277 C 229.306 150.097, 226.170 150.498, 220.500 152.386 M 76.787 172 C 76.545 173.650, 76.718 175, 77.173 175 C 77.628 175, 78 173.650, 78 172 C 78 170.350, 77.826 169, 77.613 169 C 77.401 169, 77.029 170.350, 76.787 172 M 190.079 172.583 C 190.127 173.748, 190.364 173.985, 190.683 173.188 C 190.972 172.466, 190.936 171.603, 190.604 171.271 C 190.272 170.939, 190.036 171.529, 190.079 172.583 M 230.174 210.314 C 228.978 211.587, 228 213.162, 228 213.814 C 228 214.467, 227.508 215, 226.908 215 C 226.307 215, 224.671 215.900, 223.273 217 C 221.390 218.481, 221.155 219, 222.365 219 C 223.264 219, 224 219.675, 224 220.500 C 224 222.282, 225.162 222.438, 226.733 220.867 C 229.142 218.458, 231 220.738, 231 226.103 C 231 232.797, 232.771 238.579, 235.661 241.317 C 236.928 242.517, 237.973 243.911, 237.983 244.412 C 238.010 245.836, 244.110 255, 245.031 255 C 245.483 255, 246.046 254.438, 246.281 253.750 C 246.516 253.063, 246.558 253.443, 246.374 254.594 C 245.899 257.570, 254.124 264, 258.404 264 C 260.329 264, 260.544 261.146, 258.674 260.428 C 257.014 259.791, 247 244.724, 247 242.864 C 247 242.110, 245.474 239.348, 243.610 236.725 C 240.667 232.586, 240.052 230.636, 238.943 221.939 C 237.267 208.788, 234.747 205.447, 230.174 210.314 M 214 222.801 C 210.975 224.889, 205.940 227.397, 202.811 228.373 C 199.682 229.349, 196.532 230.863, 195.811 231.736 C 195.090 232.610, 192.647 234.147, 190.382 235.151 C 184.947 237.561, 183.479 239.323, 185.506 241.005 C 186.761 242.046, 187.365 241.980, 188.847 240.638 C 191.151 238.553, 194 238.523, 194 240.583 C 194 242.370, 194.090 242.346, 199.250 239.135 C 201.313 237.852, 203 236.397, 203 235.901 C 203 235.406, 203.630 235, 204.401 235 C 207.897 235, 222 226.836, 222 224.812 C 222 224.365, 221.273 224, 220.383 224 C 219.198 224, 218.894 223.333, 219.245 221.500 C 219.508 220.125, 219.673 219.001, 219.611 219.001 C 219.550 219.002, 217.025 220.712, 214 222.801 M 238.446 240.087 C 238.077 240.685, 238.275 241.675, 238.887 242.287 C 239.704 243.104, 240 242.815, 240 241.200 C 240 238.785, 239.481 238.413, 238.446 240.087 M 187.813 244.683 C 188.534 244.972, 189.397 244.936, 189.729 244.604 C 190.061 244.272, 189.471 244.036, 188.417 244.079 C 187.252 244.127, 187.015 244.364, 187.813 244.683" stroke="none" fill="black" fill-rule="evenodd"/>
</svg>