<svg xmlns="http://www.w3.org/2000/svg" width="300" height="300" viewBox="0 0 300 300" version="1.1">
	<path d="M 167 28.538 C 155.505 30.470, 148.210 31.968, 140 34.085 C 135.875 35.148, 129.140 36.477, 125.033 37.036 C 120.926 37.596, 116.539 38.727, 115.283 39.550 C 112.397 41.441, 112.212 45, 115 45 C 116.340 45, 117 45.667, 117 47.019 C 117 48.714, 117.441 48.933, 119.750 48.381 C 121.263 48.019, 123.175 47.381, 124 46.963 C 124.825 46.545, 128.200 45.878, 131.500 45.481 C 134.800 45.084, 139.388 43.914, 141.695 42.880 C 144.045 41.827, 148.224 40.986, 151.195 40.968 C 154.312 40.950, 157.317 40.319, 158.481 39.439 C 159.730 38.495, 161.484 38.167, 163.231 38.551 C 164.841 38.904, 166 38.733, 166 38.141 C 166 37.581, 168.137 36.843, 170.750 36.501 C 173.363 36.158, 177.315 35.231, 179.533 34.439 C 181.752 33.648, 184.509 33, 185.661 33 C 186.813 33, 188.356 32.276, 189.090 31.392 C 192.563 27.206, 182.593 25.918, 167 28.538 M 159.813 35.683 C 160.534 35.972, 161.397 35.936, 161.729 35.604 C 162.061 35.272, 161.471 35.036, 160.417 35.079 C 159.252 35.127, 159.015 35.364, 159.813 35.683 M 134.750 40.662 C 135.438 40.940, 136.563 40.940, 137.250 40.662 C 137.938 40.385, 137.375 40.158, 136 40.158 C 134.625 40.158, 134.063 40.385, 134.750 40.662 M 166.030 41.279 C 164.672 41.967, 162.873 43.754, 162.032 45.252 C 160.718 47.594, 160.697 48.286, 161.888 50.192 C 162.871 51.767, 162.943 52.519, 162.136 52.788 C 161.511 52.996, 161 53.783, 161 54.536 C 161 58.624, 158.766 60.773, 153.839 61.427 C 151.119 61.788, 147.455 62.692, 145.697 63.437 C 143.939 64.182, 140.250 65.243, 137.500 65.794 C 134.750 66.346, 130.025 67.564, 127 68.502 C 123.975 69.440, 119.250 70.553, 116.500 70.976 C 113.750 71.399, 106.325 72.554, 100 73.543 C 93.675 74.533, 85.464 75.234, 81.753 75.101 C 76.214 74.903, 74.468 75.242, 72.002 76.998 C 69.254 78.956, 69.051 79.493, 69.615 83.319 C 69.953 85.618, 70.854 88.807, 71.615 90.404 C 72.377 92.001, 73 94.263, 73 95.431 C 73 96.599, 73.659 98.496, 74.465 99.646 C 75.270 100.796, 75.666 102, 75.345 102.322 C 75.023 102.644, 75.061 104.106, 75.429 105.571 C 75.796 107.037, 76.393 107.940, 76.754 107.579 C 77.115 107.218, 77.976 109.692, 78.666 113.077 C 80.145 120.325, 82.283 124, 85.023 124 C 86.452 124, 87 123.324, 87 121.559 C 87 120.216, 86.613 118.879, 86.141 118.587 C 85.669 118.295, 84.980 115.006, 84.612 111.278 C 84.243 107.550, 83.251 102.385, 82.407 99.801 C 81.564 97.217, 81.014 93.421, 81.187 91.367 C 81.454 88.184, 81.943 87.507, 84.500 86.787 C 90.307 85.150, 96.570 83.859, 103.303 82.911 C 107.044 82.385, 111.994 81.296, 114.303 80.491 C 116.611 79.687, 119.786 79.023, 121.357 79.015 C 125.419 78.994, 138 75.835, 138 74.836 C 138 74.376, 138.787 73.997, 139.750 73.992 C 141.393 73.985, 151.481 71.073, 155.173 69.540 C 158.290 68.246, 158.950 71.825, 157.385 81.528 C 156.590 86.462, 155.502 91.281, 154.969 92.236 C 154.436 93.191, 154 96.454, 154 99.486 C 154 104.333, 154.242 105, 156 105 C 157.232 105, 158.006 104.328, 158.015 103.250 C 158.023 102.287, 159.148 97.900, 160.515 93.500 C 161.882 89.100, 163.003 84.600, 163.006 83.500 C 163.009 82.400, 163.685 80.211, 164.506 78.636 C 165.328 77.060, 166.003 75.035, 166.006 74.136 C 166.010 73.236, 166.737 71.150, 167.622 69.500 C 168.508 67.850, 169.293 65.375, 169.366 64 C 169.509 61.326, 172.500 60.372, 172.500 63 C 172.500 65.614, 174.940 66.214, 180.313 64.922 C 185.720 63.622, 201.217 63.451, 216.310 64.524 C 226.092 65.219, 227.098 65.993, 225.222 71.376 C 224.623 73.094, 223.642 76.392, 223.040 78.705 C 222.439 81.018, 221.397 83.493, 220.724 84.205 C 218.973 86.057, 215.775 94.840, 215.242 99.259 C 214.874 102.308, 215.073 102.909, 216.296 102.440 C 217.125 102.122, 218.085 100.363, 218.428 98.531 C 218.772 96.700, 219.742 94.629, 220.584 93.930 C 221.426 93.231, 222.742 91.161, 223.507 89.330 C 224.272 87.498, 225.371 86, 225.949 86 C 226.527 86, 227 85.513, 227 84.918 C 227 84.323, 228.575 81.915, 230.500 79.565 C 232.425 77.216, 234 74.993, 234 74.626 C 234 74.258, 235.120 72.264, 236.489 70.195 C 237.859 68.126, 239.263 64.364, 239.609 61.834 C 240.236 57.259, 240.221 57.228, 236.670 56.056 C 234.157 55.227, 232.035 55.172, 229.500 55.872 C 227.047 56.550, 223.126 56.507, 217.200 55.738 C 200.770 53.608, 178.188 54.688, 172.203 57.891 C 170.711 58.690, 170.078 58.646, 169.722 57.719 C 169.032 55.921, 170.417 47.895, 171.885 45.186 C 172.858 43.391, 172.872 42.550, 171.947 41.436 C 170.494 39.685, 169.246 39.652, 166.030 41.279 M 129.500 42 C 129.840 42.550, 130.766 43, 131.559 43 C 132.352 43, 133 42.550, 133 42 C 133 41.450, 132.073 41, 130.941 41 C 129.809 41, 129.160 41.450, 129.500 42 M 120.813 44.683 C 121.534 44.972, 122.397 44.936, 122.729 44.604 C 123.061 44.272, 122.471 44.036, 121.417 44.079 C 120.252 44.127, 120.015 44.364, 120.813 44.683 M 186 60.333 C 186 61.260, 186.777 61.993, 187.750 61.985 C 188.749 61.976, 189.071 61.649, 188.500 61.223 C 187.950 60.813, 187.162 60.069, 186.750 59.572 C 186.338 59.074, 186 59.417, 186 60.333 M 209.522 59.956 C 207.593 60.668, 207.597 60.714, 209.712 61.846 C 211.263 62.676, 212.070 62.696, 212.552 61.916 C 213.561 60.284, 211.771 59.127, 209.522 59.956 M 181.813 60.683 C 182.534 60.972, 183.397 60.936, 183.729 60.604 C 184.061 60.272, 183.471 60.036, 182.417 60.079 C 181.252 60.127, 181.015 60.364, 181.813 60.683 M 149.813 65.683 C 150.534 65.972, 151.397 65.936, 151.729 65.604 C 152.061 65.272, 151.471 65.036, 150.417 65.079 C 149.252 65.127, 149.015 65.364, 149.813 65.683 M 147 68.560 C 147 70.156, 148.474 70.300, 151.500 69 C 153.755 68.031, 153.612 67.904, 149.750 67.446 C 147.872 67.223, 147 67.577, 147 68.560 M 139.250 69.220 C 136.253 70.666, 136.412 71.650, 139.750 72.311 C 143.224 72.999, 146.408 70.502, 144 68.979 C 142.199 67.840, 142.102 67.845, 139.250 69.220 M 131.813 72.683 C 132.534 72.972, 133.397 72.936, 133.729 72.604 C 134.061 72.272, 133.471 72.036, 132.417 72.079 C 131.252 72.127, 131.015 72.364, 131.813 72.683 M 126.980 74.524 C 125.110 76.778, 126.195 77.038, 128.425 74.871 C 129.484 73.842, 129.876 73, 129.297 73 C 128.719 73, 127.676 73.686, 126.980 74.524 M 116.033 76.728 C 114.722 78.204, 114.758 78.307, 116.365 77.690 C 117.354 77.311, 118.802 77, 119.582 77 C 120.362 77, 121 76.550, 121 76 C 121 74.418, 117.648 74.910, 116.033 76.728 M 194.135 81.539 C 192.285 82.343, 189.585 83.007, 188.135 83.015 C 186.686 83.024, 184.922 83.398, 184.215 83.846 C 182.995 84.620, 179 91.319, 179 92.590 C 179 93.550, 189.176 91.911, 193 90.336 C 196.928 88.718, 202 84.256, 202 82.420 C 202 81.317, 199.790 79.944, 198.168 80.039 C 197.801 80.061, 195.986 80.736, 194.135 81.539 M 84 81.882 C 84 82.432, 84.450 83.160, 85 83.500 C 85.550 83.840, 86 83.668, 86 83.118 C 86 82.568, 85.550 81.840, 85 81.500 C 84.450 81.160, 84 81.332, 84 81.882 M 127.500 85.649 C 118.216 86.838, 111.348 88.286, 108.840 89.583 C 105.883 91.112, 104.829 93.387, 107.564 92.337 C 108.518 91.971, 109.710 92.568, 110.620 93.869 C 112.479 96.522, 114.957 96.542, 124.768 93.984 C 133.632 91.673, 137.007 90.371, 136.985 89.271 C 136.928 86.421, 133.046 84.938, 127.500 85.649 M 158.079 91.583 C 158.127 92.748, 158.364 92.985, 158.683 92.188 C 158.972 91.466, 158.936 90.603, 158.604 90.271 C 158.272 89.939, 158.036 90.529, 158.079 91.583 M 126 100.435 C 107.974 109.622, 101.561 114.001, 101.172 117.390 C 100.401 124.094, 105.002 123.317, 115.347 114.994 C 119.445 111.697, 123.105 109, 123.481 109 C 123.856 109, 126.039 107.484, 128.332 105.632 C 130.624 103.780, 133.512 101.739, 134.750 101.097 C 135.988 100.455, 137 99.270, 137 98.465 C 137 96.128, 133.070 96.832, 126 100.435 M 175.250 108.717 C 170.387 109.076, 170 109.293, 170 111.661 C 170 113.919, 170.305 114.140, 172.618 113.560 C 174.435 113.104, 175.837 113.448, 177.206 114.686 C 178.612 115.959, 181.264 116.575, 186.462 116.838 C 194.866 117.262, 198 116.080, 198 112.484 C 198 109.895, 195.856 108.893, 191 109.213 C 189.625 109.303, 186.700 109.142, 184.500 108.854 C 182.300 108.566, 178.137 108.504, 175.250 108.717 M 193.616 143.463 C 192.124 145.740, 189.079 147.299, 190.447 145.085 C 191.676 143.098, 188.265 143.404, 184 145.665 C 173.914 151.010, 170.301 153.455, 166.250 157.674 C 161.639 162.477, 160.687 166, 164 166 C 165.100 166, 166 165.410, 166 164.688 C 166 163.048, 171.707 158.736, 173.213 159.238 C 174.877 159.792, 174.899 180.823, 173.235 181.463 C 172.539 181.730, 171.564 183.015, 171.069 184.319 C 170.291 186.365, 168.783 186.984, 160.046 188.845 C 154.479 190.030, 148.289 191, 146.291 191 C 141.677 191, 138.653 193.484, 140.062 196.116 C 140.872 197.629, 141.403 197.765, 142.882 196.842 C 144.360 195.919, 145.109 196.109, 146.852 197.852 C 149.401 200.401, 150.748 200.477, 158.339 198.500 C 165.501 196.634, 167.440 196.620, 168.934 198.421 C 170.126 199.857, 170.071 200.263, 165.838 221.423 C 164.260 229.314, 162.360 231.148, 156.586 230.357 C 152.615 229.812, 151.864 230.044, 149.569 232.520 C 148.156 234.044, 147 235.655, 147 236.099 C 147 236.543, 148.563 237.648, 150.473 238.554 C 153.173 239.835, 155.345 240.044, 160.223 239.492 C 166.028 238.835, 180.187 234.692, 182.500 232.974 C 183.050 232.565, 185.075 231.907, 187 231.510 C 188.925 231.113, 191.850 230.231, 193.500 229.548 C 196.824 228.173, 211.056 223.761, 217.900 221.984 C 223.634 220.496, 225.198 218.991, 223.470 216.628 C 222.310 215.042, 221.313 214.966, 213.342 215.858 C 205.026 216.788, 181.081 223.281, 176.066 225.965 C 172.765 227.731, 171.498 226.051, 172.908 221.777 C 173.527 219.904, 174.433 215.475, 174.922 211.935 C 175.998 204.152, 178.029 198.479, 180.594 196.099 C 182.124 194.679, 191.355 191.262, 198.773 189.370 C 200.701 188.878, 201.378 186.161, 199.989 184.487 C 198.358 182.522, 190.045 182.537, 185.314 184.513 C 183.323 185.345, 181.511 185.845, 181.289 185.623 C 181.067 185.400, 181.678 180.332, 182.647 174.359 C 183.616 168.387, 184.417 161.578, 184.427 159.229 C 184.445 155.148, 184.612 154.912, 188.177 153.952 C 193.993 152.386, 198.170 148.369, 197.803 144.693 C 197.411 140.764, 195.712 140.265, 193.616 143.463 M 95.350 154.055 C 91.968 154.496, 86.568 156.152, 83.350 157.735 C 78.634 160.056, 77.439 161.136, 77.184 163.307 C 76.915 165.593, 77.242 166, 79.352 166 C 80.718 166, 82.548 166.273, 83.418 166.607 C 84.427 166.994, 85 166.671, 85 165.714 C 85 164.889, 84.325 163.955, 83.500 163.638 C 81.180 162.748, 81.722 161.286, 84.645 160.553 C 88.248 159.649, 90.181 161.632, 87.573 163.557 C 84.645 165.718, 86.653 166.636, 89.993 164.663 C 92.997 162.889, 106 161.105, 106 162.468 C 106 163.886, 98.517 175.061, 93.500 181.135 C 86.395 189.739, 85.283 191.683, 86.671 193.071 C 87.769 194.169, 95.695 194.541, 103 193.837 C 106.213 193.528, 106.478 193.705, 106.233 196 C 105.828 199.786, 103.964 206.179, 102.398 209.154 C 101.629 210.614, 100.986 212.414, 100.969 213.154 C 100.952 213.894, 99.831 216.750, 98.478 219.500 C 97.125 222.250, 96.014 225.047, 96.009 225.715 C 95.990 228.209, 92.462 228.984, 89.239 227.201 C 80.954 222.620, 79.208 221.515, 75.458 218.479 C 72.368 215.977, 70.247 215.123, 66.458 214.853 C 62.049 214.539, 61.500 214.721, 61.500 216.500 C 61.500 217.785, 62.215 218.551, 63.500 218.644 C 64.600 218.723, 66.006 218.835, 66.625 218.894 C 67.244 218.952, 68 220.238, 68.306 221.750 C 68.702 223.704, 71.084 226.164, 76.539 230.250 C 80.761 233.412, 84.812 236, 85.540 236 C 88.335 236, 88.236 240.050, 85.339 244.214 C 83.777 246.458, 82.050 248.963, 81.500 249.780 C 80.950 250.598, 79.263 252.657, 77.750 254.356 C 76.237 256.056, 75 258.079, 75 258.854 C 75 261.073, 82.176 259.538, 84 256.929 C 84.825 255.749, 86.432 253.819, 87.571 252.641 C 88.710 251.464, 90.663 248.363, 91.910 245.750 C 93.994 241.386, 94.999 240.494, 97.355 240.917 C 97.826 241.001, 98.838 240.549, 99.605 239.913 C 101.473 238.362, 104 240.425, 104 243.500 C 104 246.260, 105.501 247.555, 109.750 248.464 C 113.488 249.263, 114.059 248.400, 110.750 246.950 C 108.944 246.158, 109.246 246.076, 112.281 246.533 C 116.520 247.171, 123.614 251.502, 122.028 252.483 C 120.286 253.559, 120.872 254.513, 124 255.694 C 126.839 256.765, 128.407 255.794, 125.750 254.610 C 125.063 254.303, 125.625 254.153, 127 254.276 C 128.508 254.411, 129.500 255.122, 129.500 256.067 C 129.500 258.685, 132.829 261.266, 135.538 260.748 C 137.041 260.461, 138 260.742, 138 261.470 C 138 262.125, 139.238 263.240, 140.750 263.947 C 142.262 264.654, 144.175 265.619, 145 266.092 C 145.825 266.565, 149.162 268.298, 152.415 269.942 C 157.306 272.414, 158.518 272.694, 159.415 271.562 C 160.145 270.640, 161.645 270.382, 164 270.773 C 167.168 271.299, 167.270 271.411, 165.074 271.955 C 162.340 272.632, 161.139 274.795, 163.167 275.391 C 163.900 275.607, 168.100 276.903, 172.500 278.272 C 189.200 283.466, 191.636 284.097, 197.271 284.686 C 200.456 285.019, 203.300 285.676, 203.590 286.146 C 204.481 287.587, 212.225 287.105, 217.500 285.280 C 222.623 283.507, 231 276.283, 231 273.638 C 231 272.872, 231.675 271.685, 232.500 271 C 234.570 269.282, 234.442 264.107, 232.310 263.289 C 231.343 262.918, 230.444 263.169, 230.208 263.876 C 229.106 267.182, 222.934 273.750, 218.972 275.832 C 215.485 277.665, 213.568 278.043, 210.018 277.597 C 207.533 277.285, 203.475 276.811, 201 276.544 C 193.246 275.708, 163.297 265.803, 157 261.992 C 156.175 261.492, 150.775 258.763, 145 255.927 C 139.225 253.090, 129 248.009, 122.278 244.635 C 115.556 241.261, 108.244 237.600, 106.030 236.500 C 103.764 235.374, 101.743 233.543, 101.409 232.312 C 100.834 230.198, 103.827 223.089, 109.955 212.011 C 113.651 205.329, 116.895 195.300, 117.632 188.273 C 118.428 180.681, 117.354 179.893, 109.554 182.351 C 98.964 185.690, 98.509 184.132, 107.383 174.919 C 112.748 169.349, 113.830 167.618, 114.424 163.656 C 115.954 153.454, 112.664 151.798, 95.350 154.055 M 92 160 C 92 160.550, 92.450 161, 93 161 C 93.550 161, 94 160.550, 94 160 C 94 159.450, 93.550 159, 93 159 C 92.450 159, 92 159.450, 92 160 M 184 227.969 C 184 228.501, 184.675 228.678, 185.500 228.362 C 186.325 228.045, 187 227.609, 187 227.393 C 187 227.177, 186.325 227, 185.500 227 C 184.675 227, 184 227.436, 184 227.969 M 83.500 232 C 83.840 232.550, 84.316 233, 84.559 233 C 84.802 233, 85 232.550, 85 232 C 85 231.450, 84.523 231, 83.941 231 C 83.359 231, 83.160 231.450, 83.500 232 M 159.866 235.261 C 159.115 236.004, 157.600 236.994, 156.500 237.461 C 154.731 238.212, 154.699 238.357, 156.222 238.723 C 158.315 239.225, 163.501 236.881, 163.297 235.525 C 163.058 233.942, 161.335 233.809, 159.866 235.261 M 90 242 C 90 242.550, 90.450 243, 91 243 C 91.550 243, 92 242.550, 92 242 C 92 241.450, 91.550 241, 91 241 C 90.450 241, 90 241.450, 90 242 M 84.564 250.707 C 84.022 252.132, 84.136 252.247, 85.124 251.267 C 85.808 250.588, 86.115 249.781, 85.807 249.474 C 85.499 249.166, 84.940 249.721, 84.564 250.707 M 114.813 251.683 C 115.534 251.972, 116.397 251.936, 116.729 251.604 C 117.061 251.272, 116.471 251.036, 115.417 251.079 C 114.252 251.127, 114.015 251.364, 114.813 251.683 M 81.500 255 C 81.160 255.550, 81.359 256, 81.941 256 C 82.523 256, 83 255.550, 83 255 C 83 254.450, 82.802 254, 82.559 254 C 82.316 254, 81.840 254.450, 81.500 255 M 145.232 264 C 145.919 265.100, 147.498 266, 148.741 266 C 152.011 266, 151.513 264.374, 147.851 263.098 C 143.756 261.671, 143.774 261.665, 145.232 264 M 168 274 C 168 274.550, 168.450 275, 169 275 C 169.550 275, 170 274.550, 170 274 C 170 273.450, 169.550 273, 169 273 C 168.450 273, 168 273.450, 168 274 M 173.750 275.662 C 174.438 275.940, 175.563 275.940, 176.250 275.662 C 176.938 275.385, 176.375 275.158, 175 275.158 C 173.625 275.158, 173.063 275.385, 173.750 275.662" stroke="none" fill="black" fill-rule="evenodd"/>
</svg>