<svg xmlns="http://www.w3.org/2000/svg" width="300" height="300" viewBox="0 0 300 300" version="1.1">
	<path d="M 162.607 20.582 C 162.273 21.452, 161.993 23.589, 161.985 25.332 C 161.974 27.442, 161.688 28.055, 161.126 27.169 C 160.192 25.696, 157.810 30.775, 156.516 37 C 155.840 40.256, 155.128 42.181, 151.417 50.784 C 150.637 52.590, 150 54.586, 150 55.218 C 150 55.851, 149.176 58.198, 148.169 60.434 C 143.712 70.327, 143 72.168, 143 73.799 C 143 74.751, 142.100 77.209, 141 79.261 C 138.635 83.674, 138.499 85, 140.411 85 C 141.187 85, 142.719 83.088, 143.815 80.750 C 147.321 73.277, 149.642 67.579, 150.376 64.645 C 150.978 62.241, 151.439 61.908, 153.295 62.535 C 156.593 63.649, 161.564 63.315, 166.287 61.664 C 170.105 60.330, 181.468 57.857, 189.711 56.568 C 191.477 56.292, 193.205 56.523, 193.551 57.083 C 194.106 57.980, 192.164 63.507, 190.202 66.613 C 187.546 70.821, 176.878 86, 176.578 86 C 176.374 86, 172.898 84.614, 168.854 82.921 C 164.809 81.227, 160.600 79.578, 159.500 79.256 C 158.400 78.935, 156.485 78.017, 155.245 77.217 C 153.402 76.029, 152.708 75.997, 151.447 77.044 C 148.695 79.328, 150.229 82.212, 155.993 85.590 C 160.327 88.130, 161.890 88.594, 163.395 87.789 C 164.971 86.945, 165.193 87.054, 164.671 88.416 C 164.227 89.572, 164.778 90.345, 166.519 91.007 C 171.439 92.878, 169.612 96.678, 156.903 111 C 153.243 115.125, 148.991 119.936, 147.454 121.691 C 145.176 124.291, 144.135 124.777, 141.829 124.316 C 139.441 123.838, 139 124.078, 139 125.852 C 139 128.717, 143.095 131.265, 146.377 130.442 C 149.430 129.675, 167.583 110.913, 172.711 103.224 C 176.422 97.658, 178.534 95.996, 181 96.697 C 183.119 97.299, 191.363 100.762, 199 104.257 C 202.575 105.893, 207.128 107.814, 209.118 108.525 C 213.020 109.919, 214.190 110.457, 220.867 113.926 C 224.639 115.885, 225.428 116.001, 226.654 114.775 C 228.022 113.407, 227.579 110, 226.033 110 C 225.618 110, 223.529 108.795, 221.390 107.321 C 216.449 103.918, 192.015 91.472, 188.587 90.611 C 184.965 89.702, 185.331 87.736, 190.500 80.341 C 192.975 76.801, 195.002 73.588, 195.005 73.202 C 195.007 72.816, 196.254 71.150, 197.775 69.500 C 199.296 67.850, 202.181 64.250, 204.187 61.500 C 206.297 58.608, 209.767 55.455, 212.417 54.021 C 217.424 51.312, 218.169 49.211, 214.857 47.143 C 213.227 46.125, 210.353 45.974, 202.849 46.511 C 197.423 46.899, 192.736 47.618, 192.433 48.108 C 192.130 48.599, 190.109 49, 187.941 49 C 182.979 49, 166.696 51.777, 161.812 53.456 C 156.033 55.442, 155.705 53.822, 160.105 45.029 C 162.247 40.750, 164 36.727, 164 36.091 C 164 35.454, 165.125 32.713, 166.500 30 C 167.875 27.287, 169 23.702, 169 22.033 C 169 19.355, 168.662 19, 166.107 19 C 164.391 19, 162.967 19.644, 162.607 20.582 M 99.500 63.956 C 98.400 64.432, 96.600 66.215, 95.500 67.917 C 94.400 69.619, 92.821 71.230, 91.991 71.497 C 91.161 71.763, 90.036 72.849, 89.491 73.910 C 84.870 82.899, 81.581 88.578, 78.556 92.789 C 76.600 95.512, 75 98.284, 75 98.951 C 75 101.479, 67.799 109, 65.380 109 C 63.560 109, 63 109.544, 63 111.312 C 63 114.697, 59.454 121.473, 56.757 123.240 C 55.472 124.082, 52.447 127.410, 50.037 130.635 C 47.626 133.861, 44.944 137.175, 44.077 138 C 43.210 138.825, 40.370 142.650, 37.766 146.500 C 35.162 150.350, 29.856 156.875, 25.974 161 C 18.364 169.087, 16.819 172.247, 19.275 174.703 C 20.654 176.082, 21.069 176.048, 23.379 174.369 C 24.793 173.341, 26.194 171.783, 26.493 170.907 C 26.791 170.030, 30.065 166.192, 33.768 162.378 C 37.470 158.563, 42.300 152.855, 44.500 149.693 C 46.700 146.531, 50.413 141.512, 52.750 138.539 C 55.088 135.567, 57 132.710, 57 132.190 C 57 130.409, 60.010 128.610, 61.124 129.724 C 62.643 131.243, 65.019 152.096, 63.910 154.168 C 62.679 156.468, 62.750 165, 64 165 C 64.550 165, 65 165.927, 65 167.059 C 65 168.191, 64.609 168.876, 64.130 168.580 C 62.980 167.870, 62.055 182.706, 63.037 186.127 C 63.458 187.596, 63.339 192.330, 62.773 196.648 C 61.304 207.858, 61.229 228.243, 62.654 228.718 C 63.494 228.998, 63.501 229.861, 62.682 232.031 C 61.796 234.379, 61.935 236.028, 63.379 240.275 C 64.371 243.195, 65.030 246.440, 64.842 247.486 C 64.462 249.602, 68.373 252.178, 70.643 251.307 C 72.407 250.630, 72.355 249.094, 70.408 244.435 C 68.391 239.607, 67.730 221.613, 69.142 210 C 69.710 205.325, 70.300 182.981, 70.452 160.346 C 70.718 120.764, 70.809 119.025, 72.847 114.815 C 74.013 112.407, 76.535 108.877, 78.452 106.969 C 80.368 105.061, 81.951 103.208, 81.968 102.850 C 81.998 102.245, 85.940 95.991, 91.236 88.147 C 92.481 86.302, 95.845 82.252, 98.712 79.147 C 105.504 71.788, 107.838 67.555, 106.383 65.235 C 105.125 63.228, 102.364 62.715, 99.500 63.956 M 176 116.839 C 176 117.922, 171.447 120, 169.075 120 C 166.154 120, 164.989 122.308, 164.326 129.417 C 163.984 133.073, 163.220 136.364, 162.627 136.730 C 161.410 137.483, 160.522 137.558, 149.821 137.815 C 141.484 138.016, 139 139.307, 139 143.440 C 139 145.367, 139.683 145.847, 143.250 146.425 C 145.588 146.803, 150.650 147.200, 154.500 147.307 L 161.500 147.500 161.819 150.824 C 162.062 153.363, 162.928 154.615, 165.480 156.120 C 167.318 157.205, 169.065 158.726, 169.362 159.501 C 169.659 160.276, 171.837 161.932, 174.201 163.182 C 179.529 165.998, 191.874 166.324, 194.759 163.725 C 195.716 162.862, 197.726 161.850, 199.224 161.476 C 201.389 160.936, 202.077 160.048, 202.577 157.148 C 204.593 145.453, 207.650 139.628, 212.394 138.437 C 214.879 137.814, 217 135.385, 217 133.164 C 217 132.631, 215.715 131.748, 214.146 131.201 C 212.089 130.484, 211.118 129.339, 210.671 127.103 C 209.764 122.569, 205.832 122.838, 201.200 127.749 C 197.945 131.201, 196.902 131.633, 188.082 133.185 C 174.970 135.493, 173 135.473, 173 133.034 C 173 129.954, 176.171 124.081, 178.178 123.443 C 180.126 122.825, 181.612 118.799, 180.535 117.057 C 179.762 115.806, 176 115.626, 176 116.839 M 96.513 123.980 C 93.600 128.594, 93.444 129.573, 95.500 130.362 C 97.526 131.139, 97.413 134, 95.356 134 C 93.922 134, 93.798 134.916, 94.382 141.199 C 94.750 145.159, 95.660 149.097, 96.404 149.949 C 97.257 150.927, 97.936 155.129, 98.243 161.329 C 98.603 168.607, 99.154 171.583, 100.365 172.793 C 101.798 174.227, 102.170 174.248, 103.374 172.964 C 104.499 171.765, 104.564 169.507, 103.729 160.500 C 102.500 147.250, 102.383 131.245, 103.467 124.750 C 104.245 120.091, 104.210 120, 101.643 120 C 99.679 120, 98.398 120.994, 96.513 123.980 M 192.450 140.859 C 191.332 141.870, 180.846 144, 176.988 144 C 173.555 144, 170.599 147.162, 171.470 149.904 C 171.827 151.030, 174.791 153.457, 178.056 155.297 C 183.294 158.249, 184.565 158.569, 188.862 158.018 C 195.914 157.113, 199.428 153.173, 198.598 147.101 C 197.761 140.969, 195.201 138.371, 192.450 140.859 M 153.534 169.945 C 153.175 170.525, 151.874 171, 150.641 171 C 149.408 171, 147.860 171.540, 147.200 172.200 C 145.729 173.671, 145.630 180.896, 147.030 184.579 C 147.596 186.069, 148.280 191.836, 148.549 197.394 C 149.092 208.595, 151.209 214.780, 155.452 217.561 C 157.451 218.870, 159.345 219.045, 165.400 218.477 L 172.879 217.776 174.365 223.138 C 176.655 231.404, 177.418 241.623, 175.819 242.615 C 175.093 243.066, 170.225 243.541, 165 243.673 C 142.206 244.246, 135.546 245.602, 132.602 250.270 C 131.793 251.552, 131.928 252.357, 133.160 253.588 C 134.652 255.081, 135.594 255.087, 144.643 253.662 C 160.646 251.141, 175.024 250.427, 176.083 252.100 C 176.571 252.870, 176.976 260.167, 176.985 268.316 C 176.994 277.540, 177.434 283.942, 178.150 285.280 C 179.225 287.288, 179.385 287.141, 180.598 283.035 C 181.311 280.617, 181.685 278.300, 181.428 277.884 C 181.171 277.468, 181.429 275.187, 182 272.814 C 182.572 270.441, 183.459 264.735, 183.970 260.133 C 185.104 249.942, 186.240 248.461, 193.499 247.712 C 196.489 247.404, 200.188 246.482, 201.718 245.664 C 203.248 244.847, 206.075 243.612, 208 242.921 C 212.643 241.254, 214 240.125, 214 237.927 C 214 234.682, 211.166 234.125, 205.628 236.284 C 199.481 238.681, 185.867 241.269, 184.842 240.236 C 184.440 239.831, 184.012 234.641, 183.889 228.702 C 183.706 219.795, 183.956 217.615, 185.318 216.253 C 187.361 214.210, 194.956 211.946, 201.176 211.526 C 207.479 211.100, 208.330 210.420, 207.667 206.334 C 207.126 203, 209.078 198.186, 212.722 193.865 C 213.660 192.754, 214.005 190.199, 213.801 185.885 L 213.500 179.539 208 178.233 C 202.038 176.818, 181.291 177.196, 175 178.835 C 161.501 182.352, 155.930 183.330, 154.953 182.353 C 154.222 181.622, 154.393 179.971, 155.517 176.902 C 156.404 174.481, 157.213 171.842, 157.315 171.038 C 157.534 169.307, 154.475 168.422, 153.534 169.945 M 192.418 185.485 C 191.363 186.283, 188.868 186.951, 186.872 186.968 C 181.063 187.019, 179.893 189.859, 181.355 200.357 L 182.171 206.215 188.835 205.559 C 197.877 204.668, 200.598 203.450, 202 199.664 C 202.645 197.924, 204.019 194.701, 205.053 192.503 C 206.676 189.054, 206.740 188.311, 205.518 187.089 C 204.735 186.307, 202.431 185.735, 200.374 185.812 C 198.324 185.889, 196.127 185.521, 195.492 184.993 C 194.732 184.362, 193.679 184.531, 192.418 185.485 M 156.245 192.664 C 154.345 194.564, 153.908 195.832, 154.300 198.307 C 154.801 201.465, 157.070 210.208, 157.546 210.813 C 158.047 211.448, 170.543 208.789, 171.750 207.790 C 173.442 206.389, 173.223 202.590, 171.073 196 L 169.278 190.500 163.986 190.357 C 159.593 190.239, 158.279 190.630, 156.245 192.664 M 176.079 219.583 C 176.127 220.748, 176.364 220.985, 176.683 220.188 C 176.972 219.466, 176.936 218.603, 176.604 218.271 C 176.272 217.939, 176.036 218.529, 176.079 219.583 M 177.015 225.691 C 177.024 226.136, 177.467 227.175, 178 228 C 178.835 229.293, 178.971 229.266, 178.985 227.809 C 178.993 226.879, 178.550 225.840, 178 225.500 C 177.450 225.160, 177.007 225.246, 177.015 225.691" stroke="none" fill="black" fill-rule="evenodd"/>
</svg>