<svg xmlns="http://www.w3.org/2000/svg" width="300" height="300" viewBox="0 0 300 300" version="1.1">
	<path d="M 160 19.071 C 158.075 19.521, 154.700 20.302, 152.500 20.806 C 150.300 21.310, 145.800 22.631, 142.500 23.742 C 139.200 24.853, 132.969 26.063, 128.654 26.431 C 120.439 27.132, 117.874 28.463, 116.573 32.699 C 116.117 34.185, 115.382 34.700, 114.309 34.288 C 112.868 33.735, 112.873 33.566, 114.360 32.479 C 117.141 30.445, 116.214 29.845, 110.686 30.101 C 107.763 30.237, 104.950 30.100, 104.436 29.799 C 103.921 29.497, 100.800 28.923, 97.500 28.524 C 94.200 28.124, 90.675 27.357, 89.667 26.819 C 88.310 26.095, 87.331 26.295, 85.900 27.591 C 84.046 29.268, 83.852 29.234, 81.233 26.775 C 79.087 24.760, 78.017 24.394, 76.250 25.072 C 72.833 26.383, 73.045 32.608, 76.561 34.210 C 78.505 35.095, 78.990 35.902, 78.575 37.557 C 78.090 39.489, 80.475 45.075, 85.735 54.327 C 86.415 55.522, 86.977 57.406, 86.985 58.514 C 86.993 59.622, 87.941 62.997, 89.090 66.014 C 90.240 69.031, 91.570 73.075, 92.046 75 C 95.112 87.392, 96 92.153, 96 96.191 C 96 101.027, 97.650 103.412, 100.595 102.833 C 103.945 102.174, 104.459 99.626, 103.220 89.822 C 101.474 76.008, 100.506 70.728, 99.309 68.500 C 97.920 65.913, 94 55.700, 94 54.667 C 94 53.831, 90.279 45.213, 87.065 38.608 C 84.212 32.743, 85.272 31.529, 90.634 34.523 C 94.662 36.772, 96.167 37, 106.976 37 C 113.524 37, 119.113 36.627, 119.394 36.171 C 119.676 35.715, 122.515 34.802, 125.703 34.142 C 134.933 32.231, 142.081 30.318, 148 28.173 C 151.025 27.077, 155.289 26.028, 157.475 25.840 C 162.418 25.417, 163.093 27.290, 160.081 33.070 C 158.936 35.265, 158 37.931, 158 38.993 C 158 41.475, 153.872 54.489, 151.403 59.789 C 150.029 62.741, 148.807 63.963, 147.009 64.188 C 143.834 64.585, 143.369 67.001, 145.873 70.087 L 147.830 72.500 150.464 70.030 C 155.833 64.994, 159.788 57.848, 166.851 40.420 C 169.493 33.899, 170.561 23.108, 168.782 20.896 C 167.013 18.695, 164.151 18.100, 160 19.071 M 153.500 22.491 C 152.950 22.675, 151.262 23.098, 149.750 23.432 C 146.862 24.068, 145.922 26, 148.500 26 C 149.325 26, 150 25.550, 150 25 C 150 24.450, 151.012 23.993, 152.250 23.985 C 153.488 23.976, 155.175 23.533, 156 23 C 157.333 22.138, 157.333 22.038, 156 22.094 C 155.175 22.129, 154.050 22.308, 153.500 22.491 M 132.951 28.559 C 131.962 29.751, 132.208 30, 134.378 30 C 137.188 30, 137.922 28.568, 135.573 27.666 C 134.788 27.365, 133.608 27.767, 132.951 28.559 M 121 31.019 C 121 31.624, 122.117 31.770, 123.750 31.378 C 127.676 30.437, 127.808 30, 124.167 30 C 122.425 30, 121 30.459, 121 31.019 M 92 33 C 92 33.550, 92.450 34, 93 34 C 93.550 34, 94 33.550, 94 33 C 94 32.450, 93.550 32, 93 32 C 92.450 32, 92 32.450, 92 33 M 145.872 41.669 C 144.082 43.846, 132.713 49, 129.702 49 C 128.414 49, 126.366 50.143, 125.151 51.541 C 122.761 54.290, 121 54.036, 121 50.941 C 121 49.873, 120.352 49, 119.559 49 C 117.022 49, 116.847 50.875, 119.100 53.922 C 121.073 56.590, 121.178 57.316, 120.154 61.193 C 118.988 65.603, 119.015 89.348, 120.186 90.520 C 121.367 91.701, 124.711 89.111, 125.989 86.027 C 126.804 84.060, 127.020 81.117, 126.597 77.738 C 126.237 74.857, 125.675 69.060, 125.349 64.856 C 124.697 56.459, 124.345 56.983, 131.627 55.522 C 133.346 55.177, 137.800 52.894, 141.525 50.448 C 145.249 48.001, 148.664 46, 149.113 46 C 150.339 46, 152.181 42.103, 151.487 40.979 C 150.538 39.444, 147.384 39.831, 145.872 41.669 M 234.543 45.931 C 234.226 46.443, 234.425 47.144, 234.984 47.490 C 235.543 47.835, 236 47.416, 236 46.559 C 236 44.802, 235.400 44.544, 234.543 45.931 M 228.253 51.250 C 227.708 51.938, 227.001 54.525, 226.683 57 C 226.365 59.475, 225.648 64.650, 225.090 68.500 C 224.532 72.350, 223.904 78.661, 223.694 82.525 C 223.223 91.163, 221.873 93.995, 218.215 94.015 C 216.722 94.023, 212.800 94.864, 209.500 95.883 C 205.028 97.265, 203.168 98.407, 202.195 100.369 C 200.907 102.967, 199 103.941, 199 102 C 199 100.250, 192.003 100.828, 191.309 102.636 C 190.523 104.685, 192.159 107.391, 194.457 107.843 C 197.731 108.486, 202.991 106.913, 205.576 104.517 C 206.996 103.201, 209.467 101.837, 211.068 101.485 C 212.668 101.134, 214.234 100.431, 214.548 99.923 C 215.266 98.761, 220.701 98.707, 221.410 99.854 C 221.700 100.324, 221.275 106.688, 220.463 113.995 C 218.946 127.667, 219.271 130, 222.694 130 C 225.386 130, 227.136 127.030, 227.525 121.801 C 228.033 114.985, 231.087 96.434, 231.880 95.348 C 233.153 93.606, 238.821 91.052, 242.841 90.409 C 245.129 90.044, 247 89.406, 247 88.994 C 247 88.129, 252.224 85.806, 253.588 86.064 C 258.134 86.924, 259.548 83.711, 256.026 80.523 C 254.940 79.540, 253.784 77.896, 253.458 76.868 C 252.551 74.010, 251 74.647, 251 77.878 C 251 79.460, 250.325 81.315, 249.500 82 C 248.675 82.685, 247.993 83.977, 247.985 84.872 C 247.973 86.139, 247.783 86.206, 247.128 85.173 C 246.449 84.102, 245.443 84.073, 241.922 85.021 C 239.522 85.667, 236.657 86.827, 235.557 87.598 C 234.456 88.369, 233.205 89, 232.777 89 C 231.665 89, 231.818 76.154, 233.079 63.622 C 233.907 55.404, 233.878 52.558, 232.957 51.448 C 231.480 49.669, 229.571 49.588, 228.253 51.250 M 236.750 89.662 C 237.438 89.940, 238.563 89.940, 239.250 89.662 C 239.938 89.385, 239.375 89.158, 238 89.158 C 236.625 89.158, 236.063 89.385, 236.750 89.662 M 210 98 C 210 98.550, 210.927 99, 212.059 99 C 213.191 99, 213.840 98.550, 213.500 98 C 213.160 97.450, 212.234 97, 211.441 97 C 210.648 97, 210 97.450, 210 98 M 149 99.406 C 147.075 100.126, 142.800 101.039, 139.500 101.435 C 131.905 102.348, 121.305 104.892, 117.813 106.641 C 116.335 107.381, 109.477 109.352, 102.571 111.022 C 91.392 113.725, 83.208 116.726, 73.384 121.725 C 71.178 122.847, 70.408 123.844, 70.746 125.137 C 71.087 126.439, 70.433 127.265, 68.473 128.010 C 65.104 129.291, 64.216 128.641, 66.381 126.476 C 68.128 124.729, 68.515 123, 67.160 123 C 65.846 123, 61.616 107.562, 61.543 102.500 C 61.510 100.181, 61.046 99.500, 59.500 99.500 C 57.648 99.500, 57.509 100.128, 57.615 108 C 57.799 121.602, 58.606 130.006, 59.847 131.247 C 60.481 131.881, 61.011 134.222, 61.024 136.450 C 61.037 138.677, 61.511 142.300, 62.077 144.500 C 62.643 146.700, 63.507 152.036, 63.996 156.358 C 64.918 164.496, 66.742 168, 70.057 168 C 73.690 168, 74.080 162.906, 71.454 149.747 C 70.109 143.011, 68.821 136.698, 68.590 135.718 C 67.917 132.860, 73.161 127.976, 78.091 126.868 C 80.489 126.329, 82.687 125.576, 82.975 125.194 C 84.374 123.343, 97.162 117.962, 102.295 117.065 C 105.482 116.507, 109.532 115.398, 111.295 114.599 C 113.058 113.800, 116.525 112.837, 119 112.460 C 121.475 112.083, 124.013 111.361, 124.640 110.856 C 125.266 110.351, 129.741 109.247, 134.584 108.402 C 139.426 107.556, 144.887 106.239, 146.718 105.473 C 153.257 102.741, 154.483 105.358, 150.478 113.500 C 149.125 116.250, 148.014 119.025, 148.009 119.667 C 147.990 122.122, 143.822 130.436, 141.955 131.744 C 138.434 134.210, 140.114 139, 144.499 139 C 145.867 139, 147.451 137.617, 149.049 135.027 C 150.397 132.842, 151.838 131.042, 152.250 131.027 C 152.662 131.012, 153.003 130.438, 153.006 129.750 C 153.010 129.063, 153.633 127.311, 154.391 125.857 C 159.211 116.619, 161.595 102.569, 158.744 100.203 C 156.547 98.379, 152.610 98.058, 149 99.406 M 206.500 100 C 206.160 100.550, 206.332 101, 206.882 101 C 207.432 101, 208.160 100.550, 208.500 100 C 208.840 99.450, 208.668 99, 208.118 99 C 207.568 99, 206.840 99.450, 206.500 100 M 143.750 101.716 C 142.238 101.945, 141 102.553, 141 103.066 C 141 104.475, 144.412 104.187, 147.636 102.506 C 150.628 100.946, 149.863 100.790, 143.750 101.716 M 127 105.927 C 127 106.436, 126.213 107.059, 125.250 107.311 C 124.087 107.615, 124.355 107.807, 126.050 107.884 C 127.453 107.948, 129.028 107.578, 129.550 107.063 C 130.072 106.548, 132.525 105.951, 135 105.738 C 138.841 105.406, 138.584 105.324, 133.250 105.175 C 129.813 105.079, 127 105.417, 127 105.927 M 111 112 C 110.099 112.582, 109.975 112.975, 110.691 112.985 C 111.346 112.993, 112.160 112.550, 112.500 112 C 113.267 110.758, 112.921 110.758, 111 112 M 94.813 116.683 C 95.534 116.972, 96.397 116.936, 96.729 116.604 C 97.061 116.272, 96.471 116.036, 95.417 116.079 C 94.252 116.127, 94.015 116.364, 94.813 116.683 M 81.352 120.993 C 80.171 121.470, 78.893 122.364, 78.512 122.981 C 77.891 123.985, 84.662 121.671, 85.865 120.468 C 86.622 119.711, 83.682 120.053, 81.352 120.993 M 200.526 133.592 C 196.572 143.056, 194.831 157.796, 196.996 163.490 C 197.944 165.982, 199.206 175.261, 202.575 204.500 C 203.398 211.650, 203.854 219.494, 203.587 221.932 C 203.073 226.623, 205.265 232, 207.690 232 C 210.006 232, 212.001 226.306, 211.964 219.800 C 211.924 212.696, 210.680 198.655, 208.969 186 C 207.299 173.646, 207.277 173.470, 205.862 162 C 204.508 151.010, 204.168 139.911, 205.006 134.030 C 205.393 131.310, 205.130 130.485, 203.791 130.214 C 202.609 129.976, 201.602 131.017, 200.526 133.592 M 101.314 136.905 C 100.896 138.504, 99.976 139, 97.429 139 C 94.439 139, 94.035 139.339, 93.556 142.250 C 92.618 147.956, 91.003 185.495, 90.908 203.805 C 90.828 219.275, 89.614 244.611, 88.671 250.500 C 88.495 251.600, 87.422 254.975, 86.286 258 C 84.976 261.491, 83.955 267.422, 83.492 274.236 C 82.833 283.945, 82.931 285.036, 84.517 285.645 C 87.086 286.631, 89.460 284.715, 89.779 281.399 C 89.933 279.805, 90.689 276.700, 91.459 274.500 C 95.895 261.831, 100.281 223.987, 99.387 206.099 C 98.497 188.313, 100.493 146.078, 102.309 144.263 C 103.239 143.332, 105.704 142.826, 109.133 142.861 C 112.085 142.891, 116.075 142.501, 118 141.996 C 119.925 141.490, 123.750 141.401, 126.500 141.797 L 131.500 142.518 132.256 148.009 C 133.999 160.666, 135.941 194.079, 135.356 201.348 C 134.771 208.615, 134.438 209.527, 130.862 213.659 C 128.738 216.113, 127 218.474, 127 218.905 C 127 219.335, 124.731 222.055, 121.957 224.947 C 117.401 229.700, 116.603 230.148, 113.682 229.600 C 111.322 229.157, 110.004 229.467, 108.795 230.747 C 107.885 231.711, 106.398 233.114, 105.491 233.864 C 102.509 236.328, 105.371 243, 109.409 243 C 113.375 243, 125.284 229.763, 131.665 218.262 C 137.030 208.591, 137.081 208.679, 139.579 232 C 143.022 264.141, 143.030 264.344, 140.907 265.872 C 139.858 266.627, 139 267.825, 139 268.536 C 139 270.246, 145.602 277, 147.274 277 C 147.994 277, 149.326 275.362, 150.233 273.361 C 151.741 270.034, 151.760 268.339, 150.455 253.611 C 149.670 244.750, 148.108 229.625, 146.984 220 C 145.860 210.375, 144.502 196.650, 143.967 189.500 C 140.477 142.895, 140.259 141.565, 135.508 137.827 C 132.891 135.769, 131.711 135.558, 124.538 135.867 C 109.928 136.496, 108.528 136.479, 105.181 135.642 C 102.289 134.918, 101.792 135.080, 101.314 136.905 M 221.610 136.759 C 219.470 136.967, 216.657 137.834, 215.358 138.685 C 214.059 139.536, 212.097 139.997, 210.998 139.710 C 209.430 139.300, 209 139.680, 209 141.477 C 209 144.663, 210.916 144.929, 224.898 143.686 C 238.444 142.483, 241.177 142.993, 244.398 147.331 C 246.120 149.650, 246.492 151.556, 246.456 157.888 C 246.396 168.458, 242.040 186.884, 238.204 192.791 C 237.386 194.051, 236.357 196.751, 235.918 198.791 C 234.884 203.598, 231.641 212.504, 230.313 214.186 C 229.743 214.909, 228.980 216.738, 228.619 218.250 C 228.258 219.762, 227.520 221, 226.981 221 C 226.441 221, 225.996 221.787, 225.990 222.750 C 225.985 223.713, 224.906 226.808, 223.592 229.629 C 221.681 233.735, 220.336 235.167, 216.852 236.810 C 214.458 237.939, 211.253 239.130, 209.728 239.456 C 207.301 239.975, 207.091 240.302, 208.043 242.080 C 208.951 243.776, 208.708 244.442, 206.565 246.128 C 205.154 247.237, 204 248.562, 204 249.073 C 204 250.476, 207.418 250.184, 210.636 248.506 C 212.211 247.685, 214.246 247.010, 215.158 247.006 C 217.923 246.996, 226.956 241.842, 229.494 238.825 C 230.844 237.220, 232.186 233.942, 232.587 231.269 C 232.976 228.672, 234.804 223.400, 236.647 219.552 C 238.491 215.704, 240 211.968, 240 211.248 C 240 210.528, 241.192 207.141, 242.649 203.720 C 248.412 190.191, 251.322 181.426, 254.011 169.500 C 254.507 167.300, 254.932 161.278, 254.956 156.118 L 255 146.736 251.403 143.343 C 249.424 141.477, 246.527 139.290, 244.965 138.482 C 242.107 137.004, 229.017 136.038, 221.610 136.759 M 104 139.406 C 104 140.318, 104.700 140.630, 105.989 140.293 C 107.083 140.007, 107.731 139.374, 107.430 138.886 C 106.557 137.474, 104 137.861, 104 139.406 M 121.813 138.683 C 122.534 138.972, 123.397 138.936, 123.729 138.604 C 124.061 138.272, 123.471 138.036, 122.417 138.079 C 121.252 138.127, 121.015 138.364, 121.813 138.683 M 229.250 138.689 C 230.213 138.941, 231.787 138.941, 232.750 138.689 C 233.713 138.438, 232.925 138.232, 231 138.232 C 229.075 138.232, 228.287 138.438, 229.250 138.689 M 126.166 201.697 C 123.170 202.473, 119.846 204.142, 118.583 205.505 C 117.259 206.933, 115.956 207.569, 115.416 207.049 C 114.912 206.562, 112.362 205.851, 109.750 205.469 C 105.222 204.805, 105 204.884, 105 207.146 C 105 211.148, 107.748 212.020, 115.982 210.633 C 120.544 209.864, 123.686 208.782, 124.470 207.710 C 125.155 206.773, 127.242 205.710, 129.108 205.346 C 132.215 204.741, 133.945 203.503, 133.985 201.857 C 134.018 200.442, 131.236 200.385, 126.166 201.697 M 93.114 232.857 C 92.199 234.518, 92.128 235.528, 92.875 236.275 C 94.158 237.558, 95.366 235.059, 94.791 232.308 C 94.460 230.725, 94.251 230.794, 93.114 232.857 M 202.500 241 C 202.160 241.550, 202.359 242, 202.941 242 C 203.523 242, 204 241.550, 204 241 C 204 240.450, 203.802 240, 203.559 240 C 203.316 240, 202.840 240.450, 202.500 241 M 210.813 243.683 C 211.534 243.972, 212.397 243.936, 212.729 243.604 C 213.061 243.272, 212.471 243.036, 211.417 243.079 C 210.252 243.127, 210.015 243.364, 210.813 243.683 M 133.160 252.240 C 131.485 253.915, 131.734 261.176, 133.557 263.777 C 135.833 267.027, 138.190 266.708, 137.454 263.250 C 137.132 261.738, 136.613 258.577, 136.301 256.227 C 135.674 251.493, 134.895 250.505, 133.160 252.240 M 90.079 253.583 C 90.127 254.748, 90.364 254.985, 90.683 254.188 C 90.972 253.466, 90.936 252.603, 90.604 252.271 C 90.272 251.939, 90.036 252.529, 90.079 253.583" stroke="none" fill="black" fill-rule="evenodd"/>
</svg>