<svg xmlns="http://www.w3.org/2000/svg" width="300" height="300" viewBox="0 0 300 300" version="1.1">
	<path d="M 160.075 14.859 C 158.585 17.645, 158.730 23.249, 160.351 25.465 C 161.462 26.985, 162.519 27.201, 166.307 26.681 C 168.961 26.318, 171.170 26.466, 171.519 27.030 C 171.852 27.569, 174.009 27.996, 176.312 27.978 C 178.615 27.961, 184.325 28.418, 189 28.994 C 207.716 31.300, 207.671 31.299, 208.372 29.472 C 209.092 27.597, 205.559 21.106, 203.668 20.829 C 201.336 20.488, 195.391 20.127, 190.543 20.032 C 187.817 19.979, 184.892 19.333, 184.043 18.597 C 183.194 17.861, 180.036 16.947, 177.025 16.565 C 174.014 16.184, 171.089 15.501, 170.525 15.049 C 169.961 14.596, 167.621 13.916, 165.325 13.538 C 161.763 12.951, 160.993 13.144, 160.075 14.859 M 237.500 37.705 C 232.550 38.439, 224.900 39.503, 220.500 40.069 C 207.954 41.684, 188.947 45.052, 183.964 46.543 C 181.470 47.290, 176.295 48.204, 172.464 48.575 C 166.940 49.111, 164.931 49.780, 162.750 51.812 C 159.730 54.626, 159.454 56.135, 161.098 60.851 C 162.293 64.278, 164.916 65.011, 167 62.500 C 167.685 61.675, 168.654 61, 169.155 61 C 169.655 61, 171.737 60.258, 173.782 59.351 C 175.827 58.443, 178.208 57.783, 179.072 57.883 C 179.937 57.984, 181.962 57.379, 183.572 56.539 C 185.183 55.699, 188.386 55.010, 190.691 55.006 C 192.996 55.003, 195.136 54.589, 195.446 54.087 C 196.101 53.028, 203.145 51.689, 207.471 51.802 C 209.104 51.844, 210.929 51.474, 211.525 50.979 C 212.121 50.484, 216.410 49.803, 221.055 49.465 C 225.700 49.127, 231.750 48.436, 234.500 47.929 C 245.296 45.939, 247.139 45.963, 250.186 48.132 C 253.075 50.190, 253.095 50.270, 252.397 57.351 C 252.010 61.279, 250.717 67.658, 249.523 71.526 C 248.330 75.394, 247.536 79.108, 247.760 79.780 C 248.824 82.972, 254.047 79.801, 256.930 74.212 C 258.637 70.905, 261 57.709, 261 51.489 C 261 47.198, 260.489 45.547, 258.392 43.054 C 253.322 37.029, 249.194 35.972, 237.500 37.705 M 146.192 57.161 C 143.511 59.869, 142 62.298, 142 63.901 C 142 66.675, 146.945 83.465, 150.256 91.931 C 152.975 98.886, 157.341 103.985, 159.985 103.294 C 162.940 102.521, 164.269 100.459, 163.183 98.328 C 159.096 90.308, 158.158 88.009, 157.539 84.500 C 157.152 82.300, 156.175 79.099, 155.368 77.387 C 154.430 75.394, 153.830 70.545, 153.701 63.900 C 153.462 51.544, 152.557 50.732, 146.192 57.161 M 63.462 55.062 C 63.101 55.646, 61.716 56.538, 60.385 57.044 C 59.053 57.550, 57.582 58.985, 57.115 60.232 C 56.067 63.035, 53.441 93.769, 51.967 120.500 C 51.361 131.500, 50.458 142.750, 49.961 145.500 C 49.464 148.250, 48.831 152.975, 48.553 156 C 45.311 191.379, 45.383 194.556, 49.449 195.576 C 50.882 195.936, 53.322 195.387, 55.655 194.179 C 57.770 193.084, 62.200 191.287, 65.500 190.184 C 68.800 189.082, 75.325 186.795, 80 185.103 C 84.675 183.411, 89.182 182.021, 90.015 182.013 C 90.848 182.006, 93.209 181.100, 95.261 180 C 97.314 178.900, 100.064 178, 101.374 178 C 102.684 178, 104.291 177.354, 104.947 176.564 C 105.602 175.775, 107.555 174.817, 109.286 174.437 C 111.018 174.057, 113.124 173.408, 113.967 172.995 C 118.278 170.884, 123.222 169, 124.453 169 C 125.215 169, 127.149 168.248, 128.751 167.328 C 132.921 164.935, 134.689 166.121, 136.565 172.575 C 138.180 178.131, 138.188 178.870, 136.902 202.500 C 136.842 203.600, 135.896 209.189, 134.800 214.920 C 132.857 225.071, 131.661 228.806, 128.049 236 C 127.082 237.925, 125.965 240.849, 125.565 242.497 C 124.508 246.854, 114.456 262.286, 111.020 264.827 C 109.215 266.161, 106.618 266.999, 104.290 266.996 C 98.582 266.991, 94.610 264.185, 84.626 253.106 C 81.585 249.732, 79.272 249.467, 79.841 252.557 C 80.365 255.403, 87.496 264.877, 92.048 268.773 C 95.666 271.870, 97.094 272.382, 104.673 273.301 C 112.189 274.213, 113.596 274.127, 116.359 272.586 C 120.549 270.249, 128 261.160, 128 258.385 C 128 257.167, 128.995 255.053, 130.212 253.687 C 132.305 251.337, 138.521 235.390, 141.589 224.500 C 142.364 221.750, 143.734 215.225, 144.635 210 L 146.272 200.500 154.386 192.412 C 167.873 178.968, 179.065 166.859, 181.738 162.820 C 183.128 160.719, 184.881 159, 185.633 159 C 187.237 159, 187.319 163.054, 186.048 179.500 C 184.889 194.513, 186.206 212.366, 188.911 218.305 C 190.060 220.827, 191 224.233, 191 225.874 C 191 228.969, 193.193 232, 195.432 232 C 196.141 232, 198.383 230.872, 200.413 229.494 C 202.983 227.750, 204.850 227.175, 206.553 227.603 C 207.899 227.940, 209 228.552, 209 228.962 C 209 230.217, 204.172 235, 202.906 235 C 200.610 235, 190.879 244.283, 188.131 249.094 C 186.605 251.766, 181.869 257.581, 177.608 262.015 C 173.346 266.450, 170.051 270.623, 170.286 271.289 C 171.080 273.541, 177.256 272.369, 179.287 269.580 C 180.321 268.161, 181.709 267, 182.371 267 C 183.998 267, 191.956 258.658, 196.205 252.500 C 200.291 246.577, 207.288 239, 208.672 239 C 209.211 239, 210.742 240.169, 212.076 241.597 C 213.409 243.026, 216.300 245.105, 218.500 246.218 C 220.700 247.331, 224.507 249.874, 226.961 251.871 C 231.958 255.937, 232.627 256.372, 239.867 260.270 C 242.697 261.793, 247.372 264.829, 250.256 267.016 C 253.140 269.202, 256.347 270.993, 257.382 270.996 C 258.417 270.998, 260.775 271.934, 262.622 273.076 C 267.282 275.956, 278.257 276.362, 278.804 273.676 C 279.288 271.297, 276.263 268, 273.595 267.999 C 270.146 267.998, 252.630 258.615, 247.500 254.021 C 246.400 253.036, 244.547 251.942, 243.382 251.589 C 242.217 251.237, 240.460 250.060, 239.477 248.974 C 238.494 247.889, 237.226 247, 236.659 247 C 236.093 247, 233.494 245.200, 230.885 243 C 228.276 240.800, 225.720 239, 225.205 239 C 222.063 239, 215.102 229.644, 215.022 225.312 C 215.010 224.659, 217.285 222.881, 220.079 221.361 C 225.716 218.292, 228.404 214.473, 226.863 211.719 C 225.535 209.347, 223.804 209.546, 216.539 212.909 C 213.083 214.509, 207.712 216.619, 204.603 217.599 C 199.400 219.239, 198.824 219.252, 197.336 217.765 C 196.447 216.876, 195.495 213.802, 195.219 210.931 C 194.722 205.753, 194.738 205.717, 197.258 206.350 C 199.144 206.823, 201.946 205.848, 208.149 202.559 C 216.199 198.289, 230.183 193, 233.419 193 C 234.768 193, 234.951 194.695, 234.742 205.250 L 234.500 217.500 237.684 217.808 C 239.964 218.029, 241.123 217.604, 241.768 216.308 C 242.264 215.314, 242.775 201.675, 242.905 186 C 243.140 157.517, 242.518 150.573, 239.166 144.310 C 235.955 138.310, 233.881 138.081, 214.235 141.555 C 200.819 143.927, 200.116 143.219, 207.694 134.970 C 210.887 131.494, 214.301 127.941, 215.280 127.075 C 216.260 126.209, 222.897 119.701, 230.030 112.612 C 240.401 102.308, 243 99.173, 243 96.969 C 243 94.159, 241.500 93, 237.862 93 C 236.700 93, 231.728 97.126, 225.776 103.027 C 220.215 108.542, 215.177 112.894, 214.582 112.697 C 213.058 112.194, 212.676 98.746, 213.973 91.261 C 215.450 82.739, 218.225 78.288, 222.840 77.036 C 224.853 76.490, 228.197 74.571, 230.270 72.771 C 233.876 69.643, 233.972 69.402, 232.463 67.250 C 230.656 64.670, 227.964 64.393, 224.154 66.394 C 220.843 68.134, 207.681 71.022, 203 71.037 C 197.502 71.054, 191.678 72.721, 190.221 74.695 C 188.570 76.931, 189.470 82.995, 191.707 84.716 C 192.981 85.695, 193.795 85.573, 195.894 84.090 C 197.327 83.077, 199.963 81.932, 201.751 81.545 C 206 80.624, 206.630 82.268, 204.682 89.197 C 203.491 93.435, 203.351 97.202, 203.987 107.951 C 204.652 119.204, 204.536 121.779, 203.276 123.701 C 202.448 124.966, 201.397 126, 200.942 126 C 200.486 126, 197.845 129.038, 195.073 132.750 C 189.542 140.157, 187.513 142.771, 184.500 146.368 C 183.400 147.681, 181.375 150.234, 180 152.043 C 178.625 153.851, 176.545 156.268, 175.379 157.415 C 174.212 158.562, 171.703 161.539, 169.803 164.030 C 167.903 166.522, 165.258 169.681, 163.925 171.051 C 162.591 172.422, 159.625 175.783, 157.334 178.521 C 155.042 181.260, 152.036 184.850, 150.653 186.500 C 149.002 188.471, 147.810 189.157, 147.179 188.500 C 146.650 187.950, 146.020 182.550, 145.778 176.500 C 145.419 167.533, 144.910 164.669, 143.023 161.003 C 141.749 158.530, 139.986 155.940, 139.104 155.247 C 136.861 153.486, 131.287 154.601, 126.726 157.722 C 124.650 159.143, 120.825 160.877, 118.226 161.576 C 115.627 162.276, 109 164.490, 103.500 166.499 C 87.902 172.193, 88.593 172.198, 89.462 166.406 C 89.864 163.722, 90.771 160.395, 91.476 159.013 C 92.182 157.631, 93.084 154.992, 93.481 153.148 C 94.091 150.317, 95.040 149.413, 99.583 147.333 C 102.541 145.979, 105.186 144.508, 105.460 144.065 C 105.733 143.622, 108.554 142.035, 111.729 140.538 C 114.903 139.041, 118.625 137.278, 120 136.621 C 124.871 134.295, 126.222 127, 121.782 127 C 120.039 127, 107.264 132.525, 103 135.124 C 98.980 137.573, 95.423 138.781, 94.598 137.976 C 94.064 137.455, 94.676 133.315, 96.098 127.829 C 98.449 118.759, 98.575 118.542, 102 117.646 C 118.946 113.212, 121.506 112.260, 121.803 110.273 C 122.307 106.910, 119.253 104.733, 115.096 105.492 C 113.118 105.853, 110.464 106.815, 109.198 107.631 C 107.907 108.463, 105.271 108.980, 103.198 108.807 L 99.500 108.500 99.719 102.500 C 99.840 99.200, 100.034 93.800, 100.151 90.500 L 100.364 84.500 109.982 84.476 C 118.566 84.455, 123.938 83.544, 130.611 80.981 C 136.485 78.724, 132.303 72.173, 125.754 73.372 C 121.497 74.151, 110.283 75.152, 101.500 75.537 C 95.793 75.787, 75.074 77.597, 74.289 77.915 C 74.173 77.962, 73.160 78.985, 72.039 80.189 C 69.748 82.648, 69.344 87.210, 71.274 88.813 C 72.648 89.953, 81 89.242, 81 87.985 C 81 86.686, 84.780 86.180, 85.925 87.325 C 86.718 88.118, 87.845 87.932, 90.012 86.652 C 91.658 85.680, 93.453 85.162, 94.002 85.501 C 95.549 86.458, 95.181 88.799, 93.319 89.842 C 91.220 91.016, 89.035 98.111, 89.015 103.816 C 88.995 109.559, 87.574 111.992, 84.215 112.036 C 82.722 112.055, 78.800 112.791, 75.500 113.670 C 72.200 114.549, 67.700 115.321, 65.500 115.384 C 61.555 115.498, 61.501 115.452, 61.603 112 C 61.773 106.217, 63.927 90.934, 65.549 84 C 66.386 80.425, 67.468 74.928, 67.954 71.784 C 68.441 68.641, 69.550 65.053, 70.419 63.812 C 72.514 60.821, 72.419 57.689, 70.171 55.655 C 68.106 53.786, 64.450 53.463, 63.462 55.062 M 186 103.908 C 186 104.487, 184.880 105.243, 183.511 105.587 C 182.142 105.930, 179.667 107.754, 178.011 109.640 C 175.390 112.625, 175 113.835, 175 118.976 C 175 122.224, 175.392 125.124, 175.871 125.420 C 176.350 125.716, 177.010 127.298, 177.337 128.936 C 177.926 131.880, 182.066 135, 185.383 135 C 187.796 135, 188.268 131.269, 186.455 126.521 C 184.521 121.456, 184.955 117.420, 188.058 111.630 C 190.418 107.228, 190.288 103.671, 187.750 103.187 C 186.787 103.003, 186 103.328, 186 103.908 M 80 122.722 C 78.625 122.980, 76.929 123.660, 76.232 124.233 C 74.995 125.249, 69.024 126.811, 64 127.433 C 62.625 127.603, 61.244 127.800, 60.930 127.871 C 60.426 127.985, 57.980 146.325, 57.994 149.882 C 58.002 151.738, 64.081 150.913, 70.032 148.248 C 72.489 147.147, 76.251 145.628, 78.390 144.873 C 83.716 142.993, 84.758 140.859, 85.157 131.020 C 85.527 121.882, 85.416 121.705, 80 122.722 M 211.520 151.937 C 211.219 152.884, 208.591 154.095, 204.869 155.001 C 198.825 156.473, 198.690 156.581, 197.351 161 C 196.602 163.475, 195.696 171.912, 195.339 179.750 C 194.690 193.972, 194.693 194, 196.894 194 C 198.107 194, 200.314 193.393, 201.800 192.651 C 203.285 191.909, 207.425 190.716, 211 190 C 214.575 189.284, 218.625 188.144, 220 187.466 C 221.375 186.788, 225.333 185.909, 228.795 185.513 L 235.090 184.793 234.795 178.647 L 234.500 172.500 230.020 172.843 C 227.556 173.032, 224.406 173.827, 223.020 174.610 C 221.634 175.392, 216.675 178.114, 212 180.657 C 207.325 183.201, 203.239 185.684, 202.920 186.175 C 201.807 187.888, 199.220 185.848, 198.604 182.772 C 197.827 178.887, 199.834 175.626, 204.239 173.617 C 216.164 168.176, 221.481 165.996, 222.888 165.968 C 223.775 165.951, 225.343 165.298, 226.373 164.518 C 227.517 163.652, 229.367 163.323, 231.123 163.675 C 233.840 164.218, 234 164.061, 234 160.859 C 234 158.995, 233.159 155.901, 232.131 153.984 L 230.262 150.500 221.140 150.436 C 213.701 150.383, 211.925 150.660, 211.520 151.937 M 78.578 154.873 C 77.762 156.194, 68.089 160.669, 63 162.080 C 60.525 162.766, 57.872 163.898, 57.104 164.595 C 55.501 166.052, 54.243 180.414, 55.643 181.279 C 56.594 181.867, 71.486 177.847, 72.643 176.691 C 73.023 176.311, 74.328 176, 75.544 176 C 78.630 176, 79.634 174.343, 80.389 168 C 80.749 164.975, 81.310 160.588, 81.636 158.250 C 82.113 154.819, 81.928 154, 80.673 154 C 79.818 154, 78.875 154.393, 78.578 154.873 M 24.261 203.981 C 18.020 207.364, 17.728 207.877, 18.443 214.200 C 19.458 223.172, 21.907 229.550, 27.538 237.884 C 29.167 240.296, 31.247 243.388, 32.159 244.755 C 33.958 247.450, 38.782 250.983, 40.679 250.993 C 42.662 251.004, 45 247.993, 45 245.429 C 45 244.090, 44.411 243, 43.687 243 C 42.073 243, 37 237.838, 37 236.195 C 37 235.538, 36.594 235, 36.098 235 C 35.602 235, 34.734 233.762, 34.170 232.250 C 33.606 230.738, 32.161 227.025, 30.958 224 C 29.451 220.211, 28.729 216.115, 28.635 210.834 C 28.561 206.617, 28.275 202.955, 28 202.696 C 27.725 202.437, 26.043 203.015, 24.261 203.981 M 107.459 205.703 C 105.789 208.251, 105.255 214.985, 106.555 217.090 C 106.865 217.590, 107.965 218, 109 218 C 110.035 218, 111.164 218.457, 111.509 219.015 C 112.540 220.683, 119.002 223, 122.622 223 C 125.235 223, 126 222.583, 126 221.161 C 126 218.756, 121.126 212.440, 118.221 211.082 C 116.968 210.496, 115.011 208.438, 113.872 206.508 C 111.387 202.296, 109.820 202.099, 107.459 205.703 M 85.206 211.281 C 79.812 217.023, 85.955 230, 94.068 230 C 97.021 230, 100 227.256, 100 224.536 C 100 223.542, 98.763 221.603, 97.250 220.227 C 95.737 218.851, 93.597 215.880, 92.492 213.625 C 90.097 208.733, 88.179 208.116, 85.206 211.281 M 50.630 215.028 C 47.099 219.224, 46.897 226.072, 50.250 227.866 C 51.487 228.529, 55.634 232.205, 59.464 236.035 C 65.149 241.720, 67.010 243, 69.593 243 C 72.199 243, 72.987 242.445, 74.060 239.855 C 75.293 236.879, 75.204 236.579, 72.432 234.299 C 62.968 226.519, 58.076 220.605, 57.081 215.742 C 56.205 211.459, 53.852 211.198, 50.630 215.028" stroke="none" fill="black" fill-rule="evenodd"/>
</svg>