<svg xmlns="http://www.w3.org/2000/svg" width="300" height="300" viewBox="0 0 300 300" version="1.1">
	<path d="M 203 44.531 C 203 45.924, 202.325 47.322, 201.500 47.638 C 198.210 48.901, 200.319 50, 206.032 50 C 209.350 50, 213.512 50.604, 215.282 51.343 C 220.068 53.341, 231.484 55.412, 233.483 54.645 C 235.043 54.046, 235.074 53.745, 233.778 51.793 C 232.981 50.592, 231.017 49.215, 229.414 48.732 C 227.811 48.249, 225.600 47.430, 224.500 46.911 C 220.950 45.238, 208.589 42, 205.753 42 C 203.474 42, 203 42.436, 203 44.531 M 205.485 47.025 C 204.698 48.297, 206.264 48.835, 208.446 48.043 C 210.298 47.370, 210.286 47.308, 208.197 46.762 C 206.990 46.446, 205.769 46.564, 205.485 47.025 M 142.500 47.692 C 138.759 48.181, 124.012 52.529, 118 54.915 C 115.525 55.897, 109 57.969, 103.500 59.520 C 97.168 61.305, 92.675 63.177, 91.250 64.626 C 88.437 67.485, 88.443 68.129, 91.314 70.826 C 93.691 73.058, 97 73.759, 97 72.029 C 97 70.889, 106.963 66, 109.287 66 C 110.164 66, 111.160 65.550, 111.500 65 C 111.840 64.450, 112.955 64, 113.978 64 C 115.001 64, 117.112 63.369, 118.669 62.598 C 123.448 60.232, 141.194 55, 144.442 55 C 146.736 55, 146.889 57.363, 145.356 69.122 C 144.299 77.226, 143.343 81.076, 142.036 82.500 C 141.026 83.600, 139.223 88.100, 138.029 92.500 C 136.835 96.900, 134.990 101.719, 133.929 103.210 C 131.656 106.402, 131.426 109, 133.416 109 C 135.491 109, 140.414 102.316, 142.992 96 C 144.226 92.975, 146.357 88.025, 147.727 85 C 152.359 74.775, 153.750 70.523, 154.922 63 C 155.564 58.875, 156.301 54.494, 156.560 53.265 C 156.854 51.869, 156.274 50.274, 155.015 49.015 C 153.024 47.024, 150.032 46.707, 142.500 47.692 M 75.314 57.102 C 71.412 58.231, 70.254 61.212, 72.428 64.530 C 74.744 68.065, 78.101 82.137, 79.056 92.309 C 79.511 97.154, 80.344 103.454, 80.907 106.309 C 81.471 109.164, 82.231 114.762, 82.595 118.750 L 83.258 126 79.688 126 C 77.725 126, 75.840 126.450, 75.500 127 C 75.160 127.550, 73.570 128, 71.967 128 C 69.742 128, 68.686 127.293, 67.507 125.014 C 65.776 121.666, 61.742 120.139, 59.513 121.989 C 58.246 123.040, 58.240 123.564, 59.469 125.940 C 60.248 127.446, 61.561 134.713, 62.387 142.089 C 64.273 158.934, 68.280 171.319, 72.252 172.580 C 75.837 173.718, 76.271 171.626, 74.019 164.065 C 72.779 159.901, 71.646 152.606, 71.320 146.693 L 70.759 136.500 73.630 134.844 C 75.208 133.934, 78.975 132.688, 82 132.076 C 85.025 131.464, 90.425 130.306, 94 129.502 C 97.575 128.699, 102.107 128.032, 104.071 128.021 C 106.034 128.009, 111.823 127.106, 116.935 126.014 C 122.047 124.921, 129.778 123.732, 134.115 123.370 L 142 122.712 142 127.279 C 142 130.692, 141.368 132.598, 139.500 134.818 C 136.875 137.937, 136.147 142, 138.213 142 C 138.880 142, 141.693 139.592, 144.463 136.649 C 149.654 131.135, 152 125.835, 152 119.623 C 152 117.748, 151.438 116.017, 150.750 115.776 C 148.858 115.114, 127.625 117.509, 118 119.471 C 107.353 121.641, 93.405 123.748, 90.617 123.607 C 88.587 123.504, 88.491 122.966, 88.281 110.500 C 88.161 103.350, 87.175 91.875, 86.089 85 C 85.003 78.125, 83.808 69.593, 83.435 66.040 C 82.745 59.487, 81.341 55.927, 79.509 56.090 C 78.954 56.140, 77.066 56.595, 75.314 57.102 M 243.856 68.478 C 243.593 68.740, 237.106 70.078, 229.439 71.451 C 221.773 72.823, 213.475 74.438, 211 75.040 C 200.543 77.580, 197.533 78.006, 189.236 78.118 C 177.557 78.276, 174.576 78.978, 174.193 81.660 C 173.430 86.997, 184.572 88.620, 199.482 85.344 C 203.628 84.432, 207.328 83.995, 207.705 84.371 C 208.081 84.748, 207.167 87.547, 205.674 90.592 C 202.769 96.516, 202.662 96.673, 197.952 102 C 196.250 103.925, 194.203 106.737, 193.403 108.250 C 192.603 109.763, 191.360 111, 190.640 111 C 189.920 111, 187.243 113.138, 184.692 115.750 C 182.140 118.362, 178.266 121.850, 176.084 123.500 C 171.750 126.778, 170.976 127.994, 170.357 132.500 C 169.722 137.131, 170.810 139.977, 173.625 141.047 C 175.038 141.585, 176.400 142.806, 176.653 143.762 C 177.394 146.568, 187.891 149.378, 195.167 148.719 C 198.503 148.416, 201.719 147.681, 202.316 147.084 C 204.503 144.897, 205.794 145.955, 205.599 149.777 C 205.413 153.421, 197.756 170.378, 195.343 172.488 C 194.707 173.045, 192.790 176.159, 191.083 179.410 C 189.376 182.660, 187.610 185.810, 187.157 186.410 C 186.705 187.009, 185.739 189.075, 185.010 191 C 184.281 192.925, 182.818 196.470, 181.759 198.878 C 180.700 201.286, 180.060 204.123, 180.338 205.183 C 180.697 206.559, 180.149 207.373, 178.421 208.030 C 176.655 208.702, 176 209.708, 176 211.753 C 176 213.294, 175.345 215.490, 174.545 216.632 C 173.745 217.775, 172.359 221.923, 171.466 225.850 C 169.496 234.513, 170.550 239.490, 174.517 240.248 C 177.877 240.890, 180.929 237.597, 179.202 235.191 C 176.894 231.977, 176.678 230.693, 177.923 227.603 C 178.610 225.896, 179.848 222.025, 180.674 219 C 181.499 215.975, 182.772 212.825, 183.503 212 C 184.233 211.175, 185.144 208.813, 185.527 206.750 C 185.909 204.687, 186.546 203, 186.942 203 C 187.748 203, 188.376 201.815, 193.446 190.728 C 195.401 186.454, 197 182.516, 197 181.978 C 197 181.440, 197.446 181, 197.991 181 C 198.537 181, 200.357 178.637, 202.036 175.750 C 203.716 172.863, 205.491 169.825, 205.982 169 C 206.472 168.175, 207.640 165.925, 208.577 164 C 209.515 162.075, 211.554 158.025, 213.109 155 C 214.665 151.975, 215.951 148.323, 215.969 146.885 C 215.986 145.447, 216.900 143.126, 218 141.727 C 219.100 140.329, 220 138.887, 220 138.522 C 220 137.544, 226.014 128.958, 229.121 125.500 C 230.604 123.850, 234.183 118.949, 237.075 114.609 C 242.053 107.139, 242.235 106.645, 240.476 105.359 C 238.159 103.665, 234.036 103.656, 231.820 105.341 C 230.897 106.043, 228.914 109.605, 227.414 113.257 C 225.915 116.909, 223.520 121.246, 222.094 122.895 C 218.012 127.615, 213 134.814, 213 135.958 C 213 136.531, 211.313 137.011, 209.250 137.024 C 207.188 137.037, 203.700 137.483, 201.500 138.016 C 195.734 139.412, 183.530 137.361, 180.122 134.424 L 177.500 132.163 179.596 129.331 C 180.748 127.774, 183.278 125.375, 185.218 124 C 190.333 120.373, 209.670 99.482, 213.890 93.022 C 218.629 85.769, 225.373 79.168, 228.775 78.452 C 230.274 78.137, 232.193 77.512, 233.040 77.062 C 233.887 76.613, 236.927 75.923, 239.796 75.528 C 245.781 74.705, 249.655 72.149, 248.698 69.656 C 248.112 68.129, 244.969 67.364, 243.856 68.478 M 126 76.477 C 124.625 77.288, 121.588 78.430, 119.250 79.014 C 116.912 79.599, 115 80.455, 115 80.917 C 115 81.379, 113.665 82.310, 112.033 82.986 C 107.731 84.768, 106.631 90, 110.559 90 C 112.209 90, 112.488 91.580, 111 92.500 C 109.549 93.397, 109.724 110.324, 111.200 111.800 C 111.860 112.460, 112.709 113, 113.086 113 C 114.761 113, 116.840 105.787, 117.481 97.750 C 118.335 87.055, 119.446 85.466, 128.061 82.624 C 133.696 80.765, 134.500 80.188, 134.500 78 C 134.500 75.944, 133.967 75.456, 131.500 75.251 C 129.850 75.114, 127.375 75.666, 126 76.477 M 197.951 80.441 C 198.608 81.233, 199.786 81.636, 200.567 81.336 C 202.524 80.585, 201.338 79, 198.819 79 C 197.136 79, 196.976 79.266, 197.951 80.441 M 196.813 83.683 C 197.534 83.972, 198.397 83.936, 198.729 83.604 C 199.061 83.272, 198.471 83.036, 197.417 83.079 C 196.252 83.127, 196.015 83.364, 196.813 83.683 M 113 140.647 C 112.175 140.916, 109.811 141.849, 107.748 142.721 C 104.300 144.177, 103.848 144.172, 102.178 142.661 C 100.632 141.262, 100.085 141.217, 98.524 142.358 C 97.313 143.244, 96.881 144.436, 97.253 145.861 C 97.964 148.579, 95.984 154, 94.281 154 C 92.731 154, 92.574 151.381, 94.068 150.458 C 94.656 150.095, 94.873 149.111, 94.551 148.272 C 94.229 147.433, 94.416 146.204, 94.966 145.541 C 96.506 143.685, 93.568 140.073, 91.875 141.742 C 90.324 143.272, 90.140 145.211, 89.521 166.500 C 88.960 185.821, 88.541 191.243, 86.472 206 C 85.662 211.775, 84.825 218.750, 84.612 221.500 C 84.399 224.250, 83.710 229.200, 83.081 232.500 C 80.403 246.555, 79.578 280.719, 81.819 284.750 C 83.263 287.346, 86.504 287.736, 87.392 285.420 C 87.726 284.551, 87.729 281.513, 87.400 278.670 C 87.071 275.826, 87.295 266.750, 87.897 258.500 L 88.993 243.500 92.747 240.024 C 94.811 238.112, 98.012 234.737, 99.861 232.524 C 107.393 223.506, 114.568 216, 115.655 216 C 116.290 216, 118.040 213.902, 119.543 211.337 C 122.024 207.102, 122.125 206.564, 120.638 205.477 C 119.737 204.818, 119 203.176, 119 201.828 C 119 197.416, 114.340 195.082, 105.076 194.854 L 97 194.656 97 177.828 C 97 163.843, 97.243 161, 98.441 161 C 99.234 161, 100.160 161.450, 100.500 162 C 101.699 163.940, 104.122 162.956, 107.885 159 C 109.978 156.800, 112.417 155, 113.305 155 C 117.727 155, 122.988 166.696, 124.550 180 C 124.905 183.025, 125.356 185.761, 125.552 186.081 C 126.252 187.220, 125.966 228.631, 125.210 235.656 C 124.786 239.592, 124.775 244.066, 125.184 245.597 C 125.609 247.184, 125.493 248.907, 124.914 249.604 C 124.356 250.276, 123.980 252.778, 124.079 255.163 C 124.178 257.549, 123.939 260.689, 123.548 262.143 C 122.982 264.245, 123.440 265.461, 125.782 268.082 L 128.727 271.378 130.073 268.939 C 131.302 266.713, 133.504 235.133, 134.391 207 C 134.797 194.119, 132.209 168.264, 130.037 163.500 C 129.033 161.300, 127.945 157.658, 127.619 155.407 C 126.814 149.844, 123.334 142.249, 121.025 141.013 C 119.059 139.961, 115.590 139.803, 113 140.647 M 244.275 140.809 C 243.602 141.237, 242.635 144.492, 242.128 148.043 C 241.621 151.595, 240.260 157.298, 239.103 160.718 C 237.946 164.139, 237 167.825, 237 168.909 C 237 169.994, 236.580 171.142, 236.066 171.459 C 235.552 171.777, 234.385 174.604, 233.473 177.742 C 232.561 180.880, 230.506 185.098, 228.907 187.117 C 227.308 189.136, 226 191.316, 226 191.961 C 226 192.606, 224.884 194.597, 223.519 196.386 C 221.705 198.765, 221.336 199.936, 222.146 200.746 C 223.789 202.389, 222.305 207.152, 220.217 206.942 C 217.110 206.630, 216 206.982, 216 208.280 C 216 208.984, 213.978 212.697, 211.507 216.530 C 209.035 220.364, 207.010 223.868, 207.007 224.317 C 207.003 224.766, 205.875 226.608, 204.500 228.411 C 203.125 230.214, 202 232.413, 202 233.299 C 202 234.185, 200.988 236.012, 199.750 237.359 C 195.417 242.078, 193 245.864, 193 247.934 C 193 249.874, 195.928 249.040, 197.491 246.654 C 198.336 245.364, 200.034 243.844, 201.264 243.276 C 204.067 241.983, 213.967 227.291, 226.044 206.500 C 237.943 186.017, 243 176.079, 243 173.181 C 243 172.561, 244.606 167.305, 246.570 161.499 C 250.436 150.065, 251.522 143.334, 249.829 141.294 C 248.629 139.848, 246.131 139.630, 244.275 140.809 M 91 161.559 C 91 163.010, 91.433 163.851, 92 163.500 C 92.550 163.160, 93 162.009, 93 160.941 C 93 159.873, 92.550 159, 92 159 C 91.450 159, 91 160.152, 91 161.559 M 123.015 162.191 C 123.007 163.121, 123.450 164.160, 124 164.500 C 125.266 165.282, 125.266 163.958, 124 162 C 123.165 160.707, 123.029 160.734, 123.015 162.191 M 91.729 183.604 C 91.328 184.005, 91 185.023, 91 185.867 C 91 186.992, 91.296 187.104, 92.112 186.288 C 92.724 185.676, 93.052 184.657, 92.842 184.025 C 92.631 183.393, 92.130 183.203, 91.729 183.604 M 90 191.941 C 90 192.459, 90.450 193.160, 91 193.500 C 91.550 193.840, 92 193.416, 92 192.559 C 92 191.702, 91.550 191, 91 191 C 90.450 191, 90 191.423, 90 191.941 M 94.600 200.250 C 93.649 205.130, 91.846 225.179, 92.315 225.648 C 93.318 226.651, 104.236 219.747, 109.750 214.624 C 114.318 210.379, 115.176 206.986, 112.577 203.441 C 111.420 201.863, 110.017 201.521, 105.077 201.611 C 99.779 201.707, 99 201.483, 99 199.861 C 99 197.087, 95.150 197.428, 94.600 200.250 M 128.158 203 C 128.158 204.375, 128.385 204.938, 128.662 204.250 C 128.940 203.563, 128.940 202.438, 128.662 201.750 C 128.385 201.063, 128.158 201.625, 128.158 203 M 232 213.895 C 229.617 214.558, 228.401 217.043, 230.500 216.961 C 231.050 216.939, 231.725 218.402, 232 220.211 C 232.330 222.379, 233.275 223.840, 234.775 224.498 C 236.574 225.287, 236.930 226.044, 236.475 228.116 C 236.001 230.272, 236.641 231.423, 240.093 234.618 C 242.400 236.753, 245.203 239.512, 246.324 240.750 C 247.444 241.988, 248.772 243, 249.274 243 C 249.777 243, 252.941 245.093, 256.305 247.652 C 266.676 255.540, 276 258.753, 276 254.440 C 276 253.700, 274.536 252.399, 272.747 251.550 C 270.958 250.701, 267.245 247.987, 264.497 245.519 C 261.749 243.051, 259.215 241.024, 258.866 241.016 C 257.765 240.988, 244.253 226.670, 241.521 222.635 C 240.082 220.509, 238.644 217.471, 238.327 215.885 C 237.730 212.900, 236.719 212.582, 232 213.895 M 127.079 248.583 C 127.127 249.748, 127.364 249.985, 127.683 249.188 C 127.972 248.466, 127.936 247.603, 127.604 247.271 C 127.272 246.939, 127.036 247.529, 127.079 248.583" stroke="none" fill="black" fill-rule="evenodd"/>
</svg>