<svg xmlns="http://www.w3.org/2000/svg" width="300" height="300" viewBox="0 0 300 300" version="1.1">
	<path d="M 184.400 20.512 C 181.046 25.631, 185.294 32.876, 192.886 34.985 C 199.249 36.753, 208.477 36.241, 212.443 33.901 C 218.831 30.132, 216.119 26, 207.256 26 C 201.370 26, 194.071 23.399, 194.026 21.285 C 193.994 19.769, 190.797 18, 188.089 18 C 186.965 18, 185.306 19.130, 184.400 20.512 M 245 38.500 C 244.315 39.325, 242.444 40, 240.842 40 C 239.240 40, 236.933 40.626, 235.715 41.392 C 234.497 42.157, 231.250 43.099, 228.500 43.485 C 225.750 43.871, 223.050 44.534, 222.500 44.957 C 221.950 45.380, 217.840 45.995, 213.366 46.323 C 208.892 46.651, 202.367 47.569, 198.866 48.363 C 195.365 49.157, 190.250 50.267, 187.500 50.830 C 184.750 51.393, 180.025 52.612, 177 53.540 C 173.975 54.468, 168.992 55.567, 165.927 55.983 C 159.481 56.859, 156.722 58.132, 154.551 61.230 C 151.442 65.670, 153.942 70.733, 158.406 69.036 C 159.692 68.547, 164.407 67.611, 168.885 66.956 C 173.363 66.302, 177.272 65.369, 177.572 64.883 C 177.872 64.397, 179.519 64, 181.230 64 C 182.942 64, 185.077 63.335, 185.975 62.522 C 186.961 61.630, 191.551 60.614, 197.554 59.957 C 203.024 59.359, 208.850 58.403, 210.500 57.833 C 212.150 57.262, 216.650 56.199, 220.500 55.471 C 224.350 54.743, 230.425 53.219, 234 52.086 C 237.575 50.953, 241.347 50.020, 242.382 50.013 C 243.417 50.006, 245.780 49.063, 247.632 47.918 C 251.015 45.827, 251.955 42.651, 250.393 38.582 C 249.625 36.581, 246.630 36.536, 245 38.500 M 229.437 68.242 C 224.984 70.613, 223 73.327, 223 77.052 C 223 82.797, 225.132 83.840, 230.121 80.538 C 234.574 77.592, 239.586 77.591, 242.030 80.536 C 244.058 82.980, 242.595 89.573, 239.324 92.729 C 235.823 96.108, 230.401 100, 229.195 100 C 228.708 100, 227.469 100.929, 226.441 102.065 C 224.674 104.018, 224.533 104.031, 223.856 102.315 C 223.463 101.317, 223.109 97.724, 223.070 94.331 C 223.032 90.938, 222.342 86.888, 221.538 85.331 C 220.734 83.774, 219.497 80.475, 218.788 78 C 217.168 72.342, 214.575 71.970, 211.822 77 C 209.797 80.701, 209.858 82.194, 212.393 91 C 213.264 94.025, 213.982 99.763, 213.988 103.750 C 213.999 110.135, 213.780 111, 212.155 111 C 209.791 111, 207.950 113.226, 204.981 119.676 C 202.812 124.388, 202.189 124.954, 198.049 125.982 C 195.547 126.603, 191.943 127.523, 190.041 128.026 C 185.789 129.151, 185.046 128.215, 186.010 122.947 C 186.853 118.334, 188.199 116.531, 193.116 113.427 C 203.265 107.020, 207.202 100.155, 207.378 88.556 C 207.460 83.109, 207.007 79.529, 205.977 77.500 C 204.637 74.861, 203.975 74.522, 200.477 74.687 C 194.585 74.963, 179.726 76.960, 178 77.708 C 177.175 78.065, 174.776 78.840, 172.669 79.429 C 168.064 80.716, 165.404 84.489, 166.375 88.356 C 166.981 90.772, 167.468 91, 172.019 91 C 174.759 91, 177 90.660, 177 90.243 C 177 89.336, 184.158 87, 186.937 87 C 188.020 87, 190.019 86.493, 191.379 85.873 C 192.740 85.253, 195.011 85.037, 196.426 85.392 C 199.532 86.172, 199.863 89.670, 197.397 95.628 C 194.284 103.147, 186 112.140, 186 108 C 186 103.796, 184.219 101.849, 180.686 102.192 C 176.611 102.587, 174.409 106.859, 173.439 116.250 C 172.742 122.993, 171 125.672, 171 120 C 171 118.350, 170.605 117, 170.121 117 C 168.801 117, 165.695 107.282, 163.339 95.782 C 163.033 94.287, 162.156 92.545, 161.391 91.910 C 159.173 90.068, 159.580 81.420, 162 79 C 164.839 76.161, 164.640 73, 161.622 73 C 160.315 73, 158.709 73.646, 158.053 74.436 C 157.398 75.225, 155.528 76.164, 153.897 76.523 C 149.331 77.525, 147.872 80.530, 149.295 86 C 149.939 88.475, 150.742 90.725, 151.081 91 C 151.419 91.275, 151.995 93.411, 152.359 95.746 C 152.724 98.082, 153.882 101.907, 154.933 104.246 C 155.983 106.586, 157.821 111.650, 159.017 115.500 C 160.213 119.350, 162.307 124.227, 163.669 126.339 C 167.077 131.620, 166.266 133, 159.754 133 C 155.294 133, 153.939 133.463, 151.272 135.899 C 148.319 138.596, 148.179 139.015, 149.268 141.899 C 150.322 144.692, 150.857 145, 154.660 145 C 156.982 145, 159.103 144.642, 159.374 144.204 C 159.644 143.766, 162.934 143.429, 166.683 143.454 L 173.500 143.500 173.144 149 C 172.713 155.651, 172.530 156, 169.462 156 C 168.131 156, 164.108 156.963, 160.521 158.141 C 154.022 160.274, 154 160.294, 154 164.059 C 154 169.855, 154.775 171, 158.697 171 C 160.993 171, 162.745 170.305, 163.840 168.960 C 164.997 167.538, 166.857 166.856, 169.982 166.710 L 174.464 166.500 175.220 173 C 176.141 180.925, 175.803 182, 172.397 182 C 170.931 182, 168.105 182.430, 166.116 182.955 C 164.127 183.481, 159.125 184.669, 155 185.596 C 144.235 188.015, 140 190.337, 140 193.820 C 140 195.349, 140.540 197.140, 141.200 197.800 C 142.815 199.415, 148.475 199.319, 151.800 197.620 C 153.285 196.862, 156.029 195.911, 157.897 195.509 L 161.295 194.776 160.635 198.073 C 160.273 199.885, 159.360 202.073, 158.606 202.934 C 157.853 203.795, 156.898 205.625, 156.485 207 C 156.071 208.375, 154.443 211.140, 152.866 213.144 C 151.290 215.148, 150 217.327, 150 217.986 C 150 218.645, 149.190 220.215, 148.199 221.474 C 145.820 224.498, 143.573 231.445, 144.333 233.426 C 144.665 234.292, 145.562 235, 146.326 235 C 147.677 235, 154.282 225.293, 156.702 219.752 C 157.363 218.238, 158.375 217, 158.952 217 C 159.528 217, 160 216.165, 160 215.145 C 160 214.125, 162.475 210.949, 165.500 208.088 C 168.525 205.228, 171.016 202.575, 171.036 202.193 C 171.197 199.087, 181.910 191.820, 190.450 189.025 C 194.132 187.820, 208.698 185.245, 219 183.978 C 239.644 181.440, 243.526 180.809, 243.833 179.941 C 244.017 179.424, 245.413 179, 246.937 179 C 253.684 179, 258.168 168.922, 251.750 168.184 C 249.841 167.964, 249 168.322, 249 169.355 C 249 170.490, 247.282 170.958, 241.750 171.330 C 233.336 171.895, 211.598 174.402, 201.594 175.960 C 197.796 176.552, 193.837 176.766, 192.795 176.435 C 191.754 176.105, 189.860 176.517, 188.586 177.352 C 186.858 178.484, 185.981 178.581, 185.135 177.735 C 183.696 176.296, 183.664 168.263, 185.081 164.198 C 186.027 161.484, 186.742 161.021, 190.831 160.475 C 193.399 160.133, 196.805 159.435, 198.399 158.926 C 202.262 157.692, 203 157.755, 203 159.318 C 203 160.044, 203.692 162.969, 204.539 165.818 C 205.759 169.928, 206.512 171, 208.178 171 C 211.166 171, 212.931 168.167, 212.968 163.315 C 213.025 155.876, 213.993 154.696, 221.631 152.752 C 225.409 151.791, 230.838 150.570, 233.696 150.038 C 239.681 148.926, 243 146.526, 243 143.313 C 243 141.252, 239.882 138.452, 238.796 139.538 C 238.167 140.166, 223.677 143.009, 217.750 143.666 L 213 144.193 213 140.987 C 213 136.058, 216.456 133.038, 222.124 133.017 C 224.668 133.008, 228.662 132.325, 231 131.500 C 233.338 130.675, 236.095 130, 237.126 130 C 241.573 130, 245.303 122.071, 241.875 119.903 C 240.189 118.837, 235.340 119.624, 227.784 122.190 C 221.284 124.398, 215.500 124.309, 215.500 122 C 215.500 120.992, 216.715 120.399, 219.203 120.192 C 222.677 119.904, 222.956 119.627, 223.731 115.708 C 224.654 111.039, 227.327 109.040, 232.677 109.015 C 235.234 109.003, 237.027 107.808, 241.861 102.899 C 249.015 95.633, 251.032 91.744, 251.750 83.825 C 252.386 76.802, 250.669 70.678, 247.623 69.108 C 244.692 67.597, 231.802 66.983, 229.437 68.242 M 99.482 72.944 C 95.623 73.302, 91.819 73.994, 91.029 74.482 C 90.240 74.970, 86.423 75.989, 82.547 76.746 C 78.671 77.504, 72.350 78.753, 68.500 79.522 C 64.650 80.291, 60.116 80.938, 58.424 80.960 C 56.503 80.985, 54.497 81.906, 53.079 83.415 C 51.831 84.744, 49.659 86.120, 48.251 86.473 L 45.692 87.115 46.577 105.308 C 47.995 134.431, 47.329 163.373, 45.109 169.214 C 44.332 171.256, 44.437 172.610, 45.533 174.712 C 46.333 176.245, 46.990 179.601, 46.994 182.168 C 47.002 188.611, 47.721 190, 51.048 190 C 54.551 190, 55.431 188.670, 55.144 183.807 C 54.875 179.263, 56.418 176, 58.835 176 C 59.806 176, 61.028 175.597, 61.550 175.105 C 62.686 174.035, 70.832 171.995, 76.750 171.299 C 79.088 171.024, 81 170.414, 81 169.945 C 81 169.475, 82.536 168.802, 84.413 168.450 C 86.291 168.098, 88.848 166.859, 90.096 165.696 C 91.644 164.254, 93.404 163.671, 95.630 163.863 C 97.425 164.018, 100.380 163.500, 102.197 162.713 C 109.467 159.562, 111.030 159.074, 112.299 159.561 C 114.902 160.560, 117.380 188.407, 116.312 204.661 C 115.769 212.918, 115.481 214, 113.818 214 C 112.783 214, 111.675 213.213, 111.355 212.250 C 111.035 211.287, 109.042 206.869, 106.927 202.431 C 104.812 197.993, 102.810 192.368, 102.478 189.931 C 101.344 181.612, 101.085 181, 98.697 181 C 96.288 181, 93.770 184.405, 92.627 189.209 C 91.050 195.837, 105.559 221.367, 111.375 222.197 C 114.368 222.624, 114.803 229.536, 112.197 235.273 C 110 240.112, 108.246 244.946, 106.841 250.038 C 106.130 252.613, 104.659 254.338, 101.433 256.379 C 97.049 259.153, 96.929 259.169, 89.996 257.930 C 84.055 256.868, 82.394 256.094, 79.073 252.839 C 76.919 250.728, 74.698 249, 74.138 249 C 69.727 249, 75.870 258.536, 82.656 262.222 C 89.109 265.727, 97.388 266.771, 101.500 264.598 C 103.150 263.726, 105.718 263.010, 107.207 263.006 C 111.385 262.997, 114.865 257.685, 118.773 245.355 C 123.367 230.865, 124.986 222.052, 125.914 206.500 C 127.768 175.412, 123.051 147, 116.035 147 C 114.238 147, 108.869 148.734, 103.500 151.048 C 99.153 152.922, 86.254 157, 84.675 157 C 82.420 157, 82.483 153.107, 84.750 152.363 C 85.713 152.048, 88.864 150.717, 91.754 149.406 C 94.643 148.095, 98.759 146.742, 100.901 146.400 C 103.773 145.941, 106.028 144.525, 109.493 141.007 C 114.770 135.650, 115.046 133.268, 110.635 131.154 C 107.916 129.851, 107.669 129.946, 104.825 133.396 C 102.371 136.373, 101.198 137, 98.082 137 C 95.580 137, 93.701 137.673, 92.500 139 C 91.278 140.350, 89.420 141, 86.784 141 L 82.877 141 83.530 136.250 C 83.889 133.637, 84.592 130.150, 85.091 128.500 C 85.590 126.850, 86.442 123.679, 86.983 121.453 C 87.947 117.490, 88.096 117.378, 94.234 115.987 C 97.680 115.205, 102.029 114.326, 103.898 114.033 C 108.551 113.303, 109.972 110.841, 107.807 107.261 C 106.374 104.891, 105.385 104.454, 100.819 104.175 C 97.202 103.954, 94.478 104.395, 92.305 105.553 C 87.640 108.039, 85.591 106.893, 86.361 102.232 C 86.700 100.180, 86.983 97.572, 86.989 96.439 C 86.995 95.305, 87.861 93.453, 88.913 92.324 C 89.965 91.195, 90.977 89.214, 91.163 87.923 C 91.534 85.338, 94.155 84.368, 104.075 83.147 C 110.082 82.407, 115 79.855, 115 77.477 C 115 75.184, 111.248 71.984, 108.750 72.147 C 107.513 72.227, 103.342 72.586, 99.482 72.944 M 72.696 89.446 C 71.853 90.289, 68.799 91.019, 65.375 91.196 L 59.500 91.500 59.216 102.250 L 58.932 113 61.407 113 C 62.768 113, 64.123 112.610, 64.418 112.133 C 64.713 111.656, 67.012 111.033, 69.526 110.750 C 72.041 110.466, 74.379 109.955, 74.721 109.612 C 75.063 109.270, 75.454 107.080, 75.590 104.745 C 75.726 102.410, 76.163 97.688, 76.561 94.250 C 77.177 88.928, 77.052 88, 75.714 88 C 74.850 88, 73.492 88.651, 72.696 89.446 M 69 123.050 C 67.075 123.513, 64.276 124.191, 62.781 124.556 C 58.476 125.609, 57.786 127.306, 57.638 137.209 C 57.483 147.605, 58.210 148.538, 64.154 145.573 C 65.888 144.708, 68.781 144, 70.583 144 L 73.858 144 74.288 135.250 C 74.525 130.438, 74.894 125.617, 75.109 124.538 C 75.568 122.235, 73.990 121.851, 69 123.050 M 171 128.500 C 171 130.189, 171.458 131.014, 172.250 130.750 C 172.938 130.521, 173.500 129.508, 173.500 128.500 C 173.500 127.492, 172.938 126.479, 172.250 126.250 C 171.458 125.986, 171 126.811, 171 128.500 M 191.329 137.706 C 187.717 138.053, 187.014 138.522, 186.079 141.203 C 184.031 147.079, 185.019 152.595, 187.850 151.080 C 188.757 150.595, 191.750 149.870, 194.500 149.471 C 202.345 148.331, 203.153 147.623, 202.802 142.187 C 202.505 137.576, 202.443 137.498, 199 137.402 C 197.075 137.349, 193.623 137.485, 191.329 137.706 M 67.500 156.004 C 66.400 156.474, 64.031 156.891, 62.235 156.930 C 59.667 156.985, 58.552 157.688, 57.010 160.224 C 54.454 164.428, 55.695 165.708, 60.834 164.168 C 62.978 163.526, 65.862 163, 67.244 163 C 70.332 163, 72.262 160.846, 71.827 157.883 C 71.448 155.303, 70.302 154.805, 67.500 156.004 M 68.535 188.949 C 66.099 192.464, 65.875 193.456, 66.496 197.970 C 66.999 201.627, 68.143 204.179, 70.597 207.116 C 72.469 209.356, 74 211.957, 74 212.895 C 74 213.833, 74.502 215.102, 75.116 215.716 C 75.730 216.330, 76.751 217.873, 77.386 219.146 C 78.716 221.815, 82.656 224.069, 84.652 223.303 C 87.671 222.145, 87.357 217.905, 83.711 210.625 C 78.846 200.910, 77.353 197.047, 76.493 191.956 C 75.778 187.727, 74.098 185, 72.207 185 C 71.693 185, 70.040 186.777, 68.535 188.949 M 40.549 192.285 C 37.386 197.113, 37.567 200.296, 41.395 207.110 C 43.370 210.625, 45.427 214.512, 45.968 215.750 C 46.508 216.988, 47.421 218, 47.997 218 C 48.572 218, 49.571 219.159, 50.216 220.575 C 53.451 227.674, 66 227.706, 66 220.615 C 66 218.443, 65.435 217.837, 62.944 217.339 C 61.263 217.003, 59.126 215.663, 58.194 214.362 C 57.262 213.062, 55.038 210.310, 53.251 208.249 C 51.464 206.187, 50.001 203.770, 50.001 202.877 C 49.999 200.008, 45.980 192.060, 43.993 190.996 C 42.434 190.162, 41.780 190.407, 40.549 192.285 M 233.503 191.991 C 233.155 193.086, 230.087 196.093, 226.685 198.671 C 215.117 207.441, 200 222.786, 200 225.759 C 200 226.459, 201.575 227.783, 203.500 228.701 C 205.425 229.619, 207 230.683, 207 231.065 C 207 232.007, 217.658 240, 218.914 240 C 220.051 240, 237.962 249.202, 245.500 253.659 C 248.250 255.284, 252.750 257.682, 255.500 258.987 C 258.250 260.292, 262.075 262.335, 264 263.526 C 265.925 264.718, 269.300 266.266, 271.500 266.967 C 273.700 267.668, 275.928 268.637, 276.450 269.121 C 277.840 270.408, 283.406 270.194, 284.800 268.800 C 285.460 268.140, 286 266.834, 286 265.899 C 286 263.839, 279.813 260, 276.493 260 C 275.176 260, 273.740 259.438, 273.300 258.750 C 272.445 257.413, 271.801 257.014, 259.500 250.191 C 255.100 247.750, 249.860 244.459, 247.856 242.877 C 245.852 241.295, 243.827 239.998, 243.356 239.996 C 242.885 239.993, 240.475 238.645, 238 237 C 235.525 235.355, 232.768 234.007, 231.872 234.004 C 230.977 234.002, 229.694 233.336, 229.020 232.524 C 228.346 231.712, 225.367 229.819, 222.399 228.316 C 212.242 223.173, 214.133 219.005, 231.316 208.670 C 232.989 207.664, 236.302 205.247, 238.679 203.300 C 242.410 200.242, 243 199.234, 243 195.915 C 243 193.137, 242.463 191.783, 241.066 191.035 C 237.857 189.318, 234.205 189.779, 233.503 191.991 M 22.024 199.474 C 19.861 201.777, 19.746 202.487, 20.365 209.724 C 20.950 216.565, 25.865 233.798, 28.374 237.812 C 29.485 239.588, 33.636 241.077, 35.491 240.365 C 37.635 239.542, 37.370 234.772, 34.920 230.071 C 31.664 223.824, 30.025 216.215, 30.012 207.285 C 30.002 200.194, 29.735 198.929, 28.066 198.035 C 25.290 196.550, 24.622 196.709, 22.024 199.474 M 167.500 216 C 165.424 217.650, 163.299 219, 162.779 219 C 162.259 219, 162.030 219.563, 162.270 220.250 C 162.511 220.938, 163.490 221.358, 164.446 221.185 C 168.001 220.541, 168.935 223.858, 168.968 237.250 C 168.988 245.062, 169.387 250, 170 250 C 170.550 250, 171 251.730, 171 253.844 C 171 259.192, 174.678 263.466, 178.643 262.724 C 184.975 261.539, 189.563 259.143, 191.775 255.868 C 193.027 254.016, 194.979 251.720, 196.115 250.767 C 201.871 245.936, 206.624 234, 202.792 234 C 202.128 234, 197.440 238.275, 192.374 243.500 C 187.308 248.725, 182.869 253, 182.510 253 C 179.917 253, 179.224 249.558, 178.774 234.446 C 178.513 225.676, 177.793 217.262, 177.174 215.750 C 175.669 212.070, 172.337 212.156, 167.500 216" stroke="none" fill="black" fill-rule="evenodd"/>
</svg>