<svg xmlns="http://www.w3.org/2000/svg" width="300" height="300" viewBox="0 0 300 300" version="1.1">
	<path d="M 113.121 36.884 C 110.305 39.571, 108 42.314, 108 42.980 C 108 43.646, 107.153 45.386, 106.117 46.846 C 105.081 48.306, 102.785 52.184, 101.013 55.465 C 98.182 60.707, 93.653 66.460, 83.720 77.430 C 80.621 80.852, 72.362 92.892, 71.408 95.380 C 71.019 96.393, 71.452 97.236, 72.586 97.671 C 73.730 98.110, 74.552 97.845, 74.853 96.940 C 75.114 96.158, 76.597 94.250, 78.148 92.698 C 79.700 91.146, 81.325 89.242, 81.758 88.468 C 82.192 87.693, 84.541 84.966, 86.979 82.409 C 89.416 79.851, 92.705 76.125, 94.286 74.129 C 95.868 72.133, 99.199 68.343, 101.690 65.707 C 105.688 61.475, 106.357 61.106, 107.414 62.552 C 108.505 64.043, 109.303 64.060, 116.392 62.739 C 122.312 61.636, 124.283 61.573, 124.629 62.476 C 125.349 64.353, 119.442 75.028, 114.653 80.506 C 108.866 87.123, 104.411 95.831, 106.025 97.372 C 106.910 98.217, 107.495 98.040, 108.354 96.665 C 110.066 93.925, 112.458 91.197, 119.576 83.868 C 131.918 71.160, 137.956 61.178, 136.827 55.350 C 136.504 53.688, 135.456 53.512, 126.484 53.621 C 120.993 53.688, 115.037 54.076, 113.250 54.485 C 109.344 55.377, 109.221 54.710, 112.500 50.411 C 113.875 48.608, 115 46.871, 115 46.551 C 115 46.231, 116.635 43.507, 118.633 40.497 C 121.643 35.963, 122.051 34.766, 121.011 33.513 C 119.191 31.320, 118.764 31.502, 113.121 36.884 M 236.667 33.667 C 235.423 34.911, 235.992 40.849, 237.500 42.357 C 238.325 43.182, 239 44.538, 239 45.370 C 239 46.202, 241.303 49.271, 244.117 52.191 C 246.932 55.111, 250.360 58.962, 251.736 60.750 C 254.448 64.273, 255.508 64.724, 256.290 62.687 C 257.363 59.891, 255.580 55.765, 251.379 51.318 C 248.971 48.768, 247 46.367, 247 45.982 C 247 45.597, 245.200 43.237, 243 40.737 C 240.800 38.238, 239 35.475, 239 34.597 C 239 32.952, 237.842 32.491, 236.667 33.667 M 204.112 60.750 L 201.101 63.501 201.881 75.978 C 202.859 91.637, 204.881 89.514, 180 98.944 C 174.183 101.148, 173.793 104.078, 179.141 105.400 C 182.107 106.133, 184.285 105.776, 190.886 103.478 C 195.344 101.927, 199.235 100.901, 199.533 101.200 C 200.512 102.179, 200.295 110.367, 199.100 117.500 C 198.455 121.350, 197.581 127.049, 197.157 130.164 C 196.734 133.280, 195.892 136.430, 195.287 137.164 C 194.682 137.899, 193.859 140.750, 193.457 143.500 C 193.056 146.250, 192.339 149.542, 191.863 150.816 C 190.586 154.240, 188.002 167.109, 188.001 170.050 C 188 171.452, 187.604 173.027, 187.121 173.550 C 186.637 174.072, 185.708 176.300, 185.056 178.500 C 184.404 180.700, 183.273 184.075, 182.543 186 C 181.813 187.925, 180.614 191.525, 179.880 194 C 179.146 196.475, 177.537 200.605, 176.305 203.177 C 175.073 205.750, 173.532 210.025, 172.880 212.677 C 172.228 215.330, 169.738 221.946, 167.347 227.379 C 164.956 232.812, 163 237.755, 163 238.363 C 163 238.971, 161.792 241.950, 160.316 244.984 C 155.047 255.814, 154.693 256.759, 155.312 258.369 C 156.187 260.650, 162.830 260.565, 164.670 258.250 C 166.982 255.342, 171.937 244.574, 172.643 240.924 C 173.291 237.572, 173.264 237.537, 171.322 239.252 C 168.560 241.692, 167.648 240.263, 170.033 237.231 C 171.115 235.856, 172 234.273, 172 233.715 C 172 233.156, 173.061 230.404, 174.359 227.600 C 178.070 219.575, 179 217.047, 179 214.983 C 179 213.926, 179.900 211.458, 181 209.500 C 182.100 207.542, 183 205.278, 183 204.470 C 183 203.661, 183.450 203, 184 203 C 184.550 203, 185 201.931, 185 200.624 C 185 199.318, 186.125 195.705, 187.500 192.596 C 188.875 189.487, 189.999 186.393, 189.997 185.721 C 189.996 185.050, 191.063 181.800, 192.370 178.500 C 195.675 170.152, 196.575 166.883, 198.567 156 C 199.524 150.775, 200.637 146.050, 201.042 145.500 C 201.446 144.950, 202.094 141.575, 202.482 138 C 202.869 134.425, 203.820 130.193, 204.593 128.596 C 205.367 126.999, 206 123.884, 206 121.674 C 206 113.338, 210.865 92.972, 211.047 100.550 C 211.072 101.623, 211.131 115.775, 211.177 132 C 211.223 148.225, 211.620 160.600, 212.060 159.500 C 212.718 157.854, 212.872 158.065, 212.930 160.691 C 213.007 164.215, 211.417 166.043, 210.692 163.262 C 210.439 162.293, 210.127 164.650, 209.998 168.500 C 209.869 172.350, 209.653 176.850, 209.518 178.500 C 209.382 180.150, 209.185 187.788, 209.081 195.474 C 208.923 207.108, 209.152 209.638, 210.446 210.584 C 211.301 211.209, 211.993 212.571, 211.985 213.610 C 211.973 215.043, 211.763 215.174, 211.115 214.151 C 210.513 213.201, 210.067 213.830, 209.608 216.278 C 208.856 220.284, 210.442 225.463, 212.106 224.435 C 212.884 223.953, 213.108 225.501, 212.858 229.625 C 212.521 235.151, 212.629 235.487, 214.670 235.276 C 215.899 235.149, 217.850 236.117, 219.170 237.509 C 221.894 240.381, 225.292 240.923, 224.295 238.326 C 223.800 237.036, 224.055 236.807, 225.408 237.326 C 226.374 237.697, 227.577 238, 228.082 238 C 228.587 238, 229 238.900, 229 240 C 229 241.729, 229.711 242.018, 234.250 242.132 C 245.655 242.418, 255.597 241.982, 257.500 241.112 C 258.600 240.609, 263.100 239.453, 267.500 238.544 C 276.281 236.729, 280.832 234.812, 284.557 231.360 C 289.040 227.205, 287.111 218.864, 280.394 213.359 C 277.901 211.317, 275.216 208.262, 274.428 206.573 C 273.061 203.640, 273.022 203.796, 273.575 210 C 273.915 213.815, 275.029 218.057, 276.272 220.269 C 278.193 223.689, 278.245 224.184, 276.826 225.603 C 273.849 228.580, 258.539 232.922, 248.541 233.625 C 239.437 234.264, 225.813 232.876, 221.924 230.912 C 220.555 230.220, 219.353 226.322, 217.359 216.113 C 216.517 211.800, 216.992 176.152, 217.924 173.700 C 218.612 171.890, 219.488 135.394, 219.093 125 C 219.062 124.175, 219.440 119.450, 219.934 114.500 C 220.760 106.228, 220.673 105.328, 218.864 103.380 C 217.486 101.895, 217.086 100.507, 217.528 98.743 C 218.012 96.815, 217.621 95.848, 215.858 94.613 C 214.361 93.565, 214.070 92.998, 215.027 92.994 C 215.837 92.990, 217.800 92.310, 219.388 91.481 C 220.977 90.653, 225.477 89.481, 229.388 88.876 C 238.236 87.509, 240.204 85.491, 235.619 82.486 C 233.480 81.085, 232.286 81.076, 223.869 82.404 C 218.716 83.217, 213.488 84.186, 212.250 84.557 C 210.030 85.224, 209.998 85.100, 209.832 75.367 C 209.569 59.861, 209.379 58, 208.062 58 C 207.546 58, 205.768 59.238, 204.112 60.750 M 214 88 C 214 88.550, 214.450 89, 215 89 C 215.550 89, 216 88.550, 216 88 C 216 87.450, 215.550 87, 215 87 C 214.450 87, 214 87.450, 214 88 M 130.500 97.021 C 127.200 97.433, 120.675 99.169, 116 100.880 C 111.325 102.590, 106.949 103.992, 106.275 103.995 C 105.601 103.998, 102.103 105.350, 98.500 107 C 94.897 108.650, 91.692 110, 91.376 110 C 91.060 110, 89.384 110.612, 87.651 111.359 C 85.918 112.107, 83.319 113.197, 81.875 113.781 C 79.185 114.870, 77.562 119.673, 79.063 122.102 C 80.378 124.229, 85.016 123.272, 90.275 119.790 C 93.149 117.886, 96.835 115.997, 98.468 115.591 C 100.100 115.185, 103.807 113.731, 106.705 112.360 C 109.604 110.988, 112.426 110.145, 112.976 110.485 C 113.527 110.826, 115.445 110.455, 117.239 109.661 C 121.717 107.678, 128.707 105.985, 133.500 105.720 L 137.500 105.500 137.380 115 C 137.209 128.568, 133.218 145.771, 128.732 152.285 C 126.719 155.208, 127.010 158.335, 129.212 157.447 C 132.542 156.103, 141.376 139.529, 144.375 129 C 146.726 120.743, 147.951 110.442, 147.020 106.762 C 146.566 104.968, 145.922 102.283, 145.589 100.795 C 145.126 98.725, 144.106 97.846, 141.242 97.050 C 139.184 96.479, 137.275 96.070, 137 96.142 C 136.725 96.215, 133.800 96.610, 130.500 97.021 M 202.493 98.250 C 201.549 100.588, 202.732 103.668, 204.063 102.337 C 204.700 101.700, 204.724 100.464, 204.131 98.920 C 203.319 96.808, 203.110 96.723, 202.493 98.250 M 66.250 113.706 C 63.700 114.197, 63.389 115.613, 65.322 117.921 C 66.050 118.790, 67.230 121.525, 67.945 124 C 71.356 135.804, 72.366 138.625, 73.748 140.211 C 74.847 141.472, 75.062 143.102, 74.565 146.413 C 73.978 150.332, 75.054 163.065, 76.539 169.750 C 76.813 170.988, 77.689 172, 78.484 172 C 80.880 172, 82.210 168.185, 81.563 163.163 C 80.993 158.734, 82.125 154.792, 83.557 156.223 C 84.199 156.866, 91.460 154.578, 99.283 151.267 C 104.687 148.981, 105.322 150.268, 102.864 158.521 C 100.398 166.798, 99.790 167.668, 95.864 168.530 C 94.214 168.892, 91.658 169.818, 90.183 170.588 C 88.707 171.358, 86.960 171.990, 86.300 171.994 C 84.232 172.004, 83.103 175.168, 84.357 177.435 C 85.914 180.248, 87.297 181.103, 88.442 179.958 C 88.969 179.431, 90.398 179, 91.617 179 C 92.836 179, 95.849 178.136, 98.311 177.081 C 100.773 176.026, 106.435 174.342, 110.894 173.340 C 115.352 172.338, 119 171.177, 119 170.759 C 119 170.342, 120.237 169.993, 121.750 169.985 C 124.999 169.967, 131.602 167.798, 133.165 166.235 C 133.770 165.630, 133.995 164.429, 133.664 163.567 C 132.866 161.487, 122.854 161.475, 114.078 163.543 C 106.954 165.222, 105.453 164.655, 107.286 160.976 C 108.499 158.540, 112.236 149.176, 113.362 145.750 C 113.754 144.557, 114.982 143.998, 117.219 143.995 C 122.004 143.988, 132 137.345, 132 134.173 C 132 131.994, 131.695 131.835, 128.627 132.410 C 126.772 132.758, 123.085 134.141, 120.434 135.483 C 113.846 138.818, 113 137.917, 113 127.569 C 113 115.650, 110.225 113.039, 105.271 120.297 C 103.382 123.065, 103.136 124.395, 103.659 129.031 C 103.998 132.039, 104.662 135.255, 105.134 136.178 C 106.323 138.500, 105.280 140.691, 102.683 141.326 C 97.685 142.549, 85.683 147.018, 84.288 148.176 C 82.105 149.988, 80 146.706, 80 141.490 C 80 134.378, 74.655 119.751, 71.306 117.700 C 70.588 117.260, 70 116.023, 70 114.950 C 70 113.878, 69.662 113.061, 69.250 113.136 C 68.838 113.211, 67.487 113.467, 66.250 113.706 M 98 172.500 C 97.315 173.325, 97.067 174, 97.449 174 C 97.831 174, 98.818 173.325, 99.643 172.500 C 100.468 171.675, 100.716 171, 100.194 171 C 99.672 171, 98.685 171.675, 98 172.500 M 78.430 175.322 C 78.076 176.245, 78.076 177.755, 78.430 178.678 C 79.032 180.248, 79.181 180.248, 80.751 178.678 C 82.321 177.107, 82.321 176.893, 80.751 175.322 C 79.181 173.752, 79.032 173.752, 78.430 175.322 M 268 187.226 C 268 188.541, 268.661 190.491, 269.468 191.559 C 270.276 192.626, 270.958 195.075, 270.984 197 C 271.009 198.925, 271.443 201.152, 271.947 201.948 C 273.695 204.711, 274.304 198.451, 272.639 194.835 C 271.794 193.001, 270.968 190.185, 270.802 188.577 C 270.430 184.979, 268 183.807, 268 187.226 M 52.922 196.961 C 49.018 200.904, 49 200.960, 48.899 209.211 C 48.843 213.770, 48.506 220.650, 48.149 224.500 C 47.792 228.350, 47.520 237.350, 47.544 244.500 C 47.590 258.195, 48.543 262, 51.928 262 C 54.255 262, 55.309 259.447, 53.996 256.993 C 52.740 254.646, 52.807 244.062, 54.119 237.500 C 54.670 234.750, 55.720 224.953, 56.454 215.730 C 57.231 205.958, 58.296 198.348, 59.006 197.493 C 60.356 195.866, 59.685 193, 57.953 193 C 57.343 193, 55.078 194.782, 52.922 196.961 M 126.040 200.452 C 124.749 202.008, 125.506 206, 127.092 206 C 127.619 206, 128.484 207.144, 129.016 208.541 C 129.547 209.939, 131.333 211.852, 132.985 212.791 C 136.076 214.551, 136.897 216.534, 134.820 217.227 C 132.866 217.878, 134.764 221.022, 137.737 222.058 C 139.257 222.588, 141.400 224.381, 142.500 226.041 C 144.609 229.224, 147.255 230.384, 151.148 229.833 C 154.172 229.405, 154.307 225.961, 151.357 224.490 C 147.753 222.694, 146.349 221.169, 141.420 213.697 C 138.809 209.739, 135.560 204.813, 134.200 202.750 C 131.561 198.747, 128.233 197.810, 126.040 200.452 M 94.975 206.565 C 93.687 209.953, 93.737 210.537, 95.436 211.947 C 96.225 212.602, 97.173 214.513, 97.542 216.193 C 98.330 219.778, 101.431 225.470, 104.521 229 C 105.724 230.375, 107.562 233.684, 108.604 236.353 C 110.352 240.827, 113.320 243.462, 115.298 242.294 C 116.560 241.549, 114.910 232.757, 112.991 230 C 112.034 228.625, 109.614 224.238, 107.613 220.250 C 105.612 216.262, 103.587 213, 103.112 213 C 102.638 213, 101.966 211.580, 101.619 209.845 C 100.415 203.825, 96.712 201.997, 94.975 206.565 M 70.431 210.517 C 70.068 212.451, 70.245 215.263, 70.823 216.767 C 71.402 218.270, 72.182 221.045, 72.557 222.934 C 73.317 226.755, 79.479 239.560, 81.016 240.510 C 81.557 240.844, 82 241.957, 82 242.982 C 82 245.605, 86.792 251, 89.120 251 C 91.828 251, 92.626 248.177, 90.792 245.093 C 89.943 243.667, 87.123 238.225, 84.524 233 C 81.924 227.775, 79.393 222.719, 78.899 221.764 C 78.405 220.809, 78 218.899, 78 217.520 C 78 216.142, 77.219 213.211, 76.264 211.007 C 74.032 205.854, 71.348 205.628, 70.431 210.517 M 51.336 212.567 C 51.005 213.429, 51.244 214.644, 51.867 215.267 C 52.711 216.111, 53 215.711, 53 213.700 C 53 210.691, 52.251 210.182, 51.336 212.567 M 243.667 237.667 C 242.190 239.143, 243.152 240.043, 245.750 239.616 C 247.262 239.368, 248.950 239.096, 249.500 239.012 C 250.614 238.842, 247.120 237.181, 245.417 237.070 C 244.821 237.032, 244.033 237.300, 243.667 237.667 M 230.441 238.904 C 230.748 239.401, 233.260 239.826, 236.023 239.847 C 238.925 239.869, 240.801 239.487, 240.465 238.943 C 240.144 238.424, 237.632 238, 234.882 238 C 232.132 238, 230.133 238.407, 230.441 238.904 M 160 251.059 C 160 251.641, 160.450 251.840, 161 251.500 C 161.550 251.160, 162 250.684, 162 250.441 C 162 250.198, 161.550 250, 161 250 C 160.450 250, 160 250.477, 160 251.059" stroke="none" fill="black" fill-rule="evenodd"/>
</svg>