<svg xmlns="http://www.w3.org/2000/svg" width="300" height="300" viewBox="0 0 300 300" version="1.1">
	<path d="M 152.500 26.914 C 147.906 28.347, 143.172 32.276, 141.037 36.428 C 137.243 43.805, 130.140 49.951, 117.855 56.487 C 115.636 57.668, 115.566 58.375, 117.381 61.285 C 118.141 62.503, 119.028 66.902, 119.353 71.061 C 119.729 75.881, 120.855 80.684, 122.460 84.313 C 125.566 91.337, 125.897 93.714, 126.395 112.560 C 126.736 125.478, 127.091 128.177, 128.896 131.545 C 130.053 133.704, 131 136.040, 131 136.735 C 131 138.343, 137.172 138.428, 138.758 136.842 C 139.568 136.032, 140.302 135.997, 141.208 136.727 C 141.918 137.300, 143.960 138.081, 145.745 138.463 C 148.534 139.059, 149.126 138.829, 149.961 136.828 C 150.495 135.548, 151.510 133.811, 152.216 132.969 C 153.657 131.250, 160.878 128.806, 162.165 129.602 C 164.449 131.013, 162.544 138.940, 157.503 149 C 155.712 152.575, 153.959 156.728, 153.609 158.230 C 153.259 159.731, 151.628 163.238, 149.986 166.024 C 148.344 168.809, 147 171.431, 147 171.850 C 147 172.269, 145.875 174.136, 144.500 176 C 143.125 177.864, 142 179.985, 142 180.714 C 142 181.442, 140.388 184.168, 138.417 186.769 C 133.134 193.745, 123.066 210.266, 123.031 212.018 C 123.014 212.853, 121.875 215.191, 120.500 217.215 C 119.125 219.238, 118 221.175, 118 221.518 C 118 221.862, 117.325 222.818, 116.500 223.643 C 114.704 225.439, 114.518 231.118, 116.200 232.800 C 118.808 235.408, 121.436 234.114, 124.421 228.749 C 126.027 225.862, 127.654 223.275, 128.036 223 C 128.719 222.509, 133.213 213.079, 134.302 209.853 C 134.608 208.947, 137.035 205.122, 139.696 201.353 C 142.357 197.584, 145.086 193.375, 145.760 192 C 147.139 189.188, 147.763 188.155, 153.615 179 C 158.362 171.574, 164 159.974, 164 157.634 C 164 156.765, 164.855 154.129, 165.900 151.777 C 166.944 149.425, 168.285 146.262, 168.878 144.750 C 169.472 143.238, 170.424 142, 170.994 142 C 171.565 142, 171.985 143.238, 171.927 144.750 C 171.870 146.262, 172.105 156.319, 172.449 167.099 C 172.846 179.486, 172.690 188.419, 172.028 191.376 C 171.451 193.948, 170.535 200.342, 169.991 205.584 C 169.448 210.826, 168.272 217.351, 167.378 220.085 C 165.635 225.412, 165.770 241.220, 167.572 242.919 C 168.104 243.420, 170.845 243.272, 174 242.569 C 179.917 241.253, 181.313 240.770, 187.566 237.880 C 189.802 236.846, 193.569 236, 195.938 236 C 199.477 236, 200.042 235.755, 199.105 234.626 C 198.183 233.515, 198.775 233.047, 202.200 232.177 C 206.842 230.999, 207.528 231.183, 206.685 233.379 C 206.335 234.290, 205.342 234.641, 204.061 234.306 C 201.777 233.708, 201.349 234.949, 203.200 236.800 C 204.609 238.209, 208.301 238.367, 210.764 237.123 C 213.664 235.657, 219.514 234, 221.786 234 C 222.965 234, 224.411 233.100, 225 232 C 226.206 229.746, 229.241 229.209, 228.400 231.399 C 228.105 232.168, 228.395 233.126, 229.044 233.527 C 230.467 234.407, 232.020 232.215, 231.300 230.341 C 230.540 228.358, 233.730 228.695, 234.861 230.717 C 235.722 232.254, 236.119 232.285, 238.661 231.014 C 240.222 230.233, 241.757 229.484, 242.072 229.348 C 242.386 229.213, 243.894 229.751, 245.423 230.545 C 246.953 231.338, 249.241 231.727, 250.509 231.408 C 251.776 231.090, 253.770 231.342, 254.939 231.967 C 256.107 232.593, 259.901 233.310, 263.368 233.560 C 269.356 233.993, 269.730 233.888, 270.836 231.461 C 271.558 229.877, 272 223.155, 272 213.774 C 272 197.028, 270.916 191.719, 267.595 192.209 C 264.632 192.646, 262.136 203.585, 261.482 219 C 261.307 223.125, 261.127 226.645, 261.082 226.823 C 261.037 227, 259.814 226.212, 258.365 225.073 C 255.347 222.698, 246.641 222.237, 239.616 224.079 C 237.352 224.673, 233.925 225.581, 232 226.098 C 230.075 226.614, 224.151 227.167, 218.835 227.325 C 212.684 227.509, 208.592 228.094, 207.579 228.935 C 206.497 229.833, 204.468 230.067, 201.243 229.665 C 198.635 229.340, 191.887 229.643, 186.250 230.338 L 176 231.602 176.006 228.551 C 176.009 226.873, 176.733 221, 177.614 215.500 C 178.495 210, 179.377 203.700, 179.574 201.500 C 179.770 199.300, 180.200 195.700, 180.529 193.500 C 180.858 191.300, 181.034 178.700, 180.921 165.500 C 180.609 129.120, 180.723 130.986, 178.750 129.881 C 174.729 127.628, 178.490 123.764, 187.382 121.011 C 193.209 119.208, 193.179 117.366, 187.330 117.833 C 182.195 118.244, 180.986 116.513, 181.032 108.816 C 181.071 102.253, 183.531 99.049, 190.002 97.134 C 192.476 96.402, 195.175 95.241, 196 94.553 C 199.616 91.541, 203.146 92.061, 203.046 95.590 C 203.016 96.640, 202.604 103.125, 202.131 110 C 201.238 122.968, 201.743 126, 204.799 126 C 207.015 126, 210 119.248, 209.999 114.243 C 209.998 112.184, 211.090 104.200, 212.426 96.500 C 216.209 74.697, 216.634 70.616, 215.927 62.907 C 215.218 55.167, 214.052 53.461, 207.454 50.507 C 202.704 48.381, 182.133 49.168, 174.500 51.769 C 171.200 52.893, 166.372 54.070, 163.772 54.385 C 161.171 54.699, 158.246 55.364, 157.272 55.863 C 156.297 56.362, 151.900 57.494, 147.500 58.379 C 135.840 60.723, 130.605 62.298, 129.700 63.732 C 128.237 66.053, 125.999 65.154, 126.011 62.250 C 126.023 59.106, 130.504 54.282, 136 51.496 C 140.014 49.461, 150.206 41.117, 154.223 36.577 C 155.721 34.885, 156.958 32.574, 156.973 31.441 C 157.013 28.383, 154.840 26.184, 152.500 26.914 M 200 52 C 200 52.550, 200.477 53, 201.059 53 C 201.641 53, 201.840 52.550, 201.500 52 C 201.160 51.450, 200.684 51, 200.441 51 C 200.198 51, 200 51.450, 200 52 M 178.459 55.066 C 178.094 55.657, 176.974 56.446, 175.971 56.820 C 174.211 57.476, 174.213 57.642, 176.039 61.500 C 177.504 64.595, 177.962 67.988, 178.066 76.500 C 178.139 82.550, 178.510 88.625, 178.889 90 C 179.742 93.092, 183.703 93.794, 188.052 91.624 C 189.717 90.793, 194.212 89.805, 198.040 89.427 L 205 88.742 205.158 84.621 C 205.244 82.354, 205.261 79.825, 205.194 79 C 205.127 78.175, 205.732 75.181, 206.536 72.346 C 207.341 69.511, 208 65.326, 208 63.044 C 208 59.334, 207.683 58.785, 205 57.850 C 203.350 57.275, 202 56.173, 202 55.402 C 202 54.631, 201.550 54, 201 54 C 200.450 54, 200 54.392, 200 54.872 C 200 56.365, 192.108 57.128, 189.746 55.864 C 186.771 54.272, 179.278 53.742, 178.459 55.066 M 163 58.727 C 162.175 59.040, 160.519 60.261, 159.321 61.441 C 158.122 62.620, 154.747 64.197, 151.821 64.945 C 148.894 65.692, 144.523 67.810, 142.106 69.652 C 137.024 73.525, 132.484 74.102, 131.500 71 C 130.627 68.251, 129.361 68.485, 125.789 72.057 C 123.022 74.824, 122.846 75.366, 123.934 77.755 C 124.797 79.648, 125.361 80.033, 125.928 79.116 C 126.499 78.193, 127.595 78.899, 129.856 81.642 C 132.855 85.280, 133.279 86.534, 134.494 95.367 C 134.787 97.493, 135.272 99.631, 135.572 100.117 C 136.564 101.721, 140.260 101.038, 144.715 98.427 C 148.326 96.311, 150.919 95.733, 159.303 95.177 L 169.500 94.500 170.054 81.500 C 170.387 73.708, 171.173 67.204, 172.018 65.264 C 173.130 62.712, 173.169 61.769, 172.204 60.804 C 171.239 59.839, 170.348 59.954, 167.990 61.347 C 165.674 62.715, 165 62.807, 165 61.757 C 165 61.010, 165.540 59.860, 166.200 59.200 C 167.133 58.267, 167.078 58.018, 165.950 58.079 C 165.153 58.122, 163.825 58.414, 163 58.727 M 69.500 89.974 C 66.200 90.984, 59.675 92.837, 55 94.092 C 50.325 95.346, 45.571 97.189, 44.436 98.186 C 43.300 99.184, 41.668 100, 40.808 100 C 39.948 100, 38.699 100.658, 38.032 101.461 C 37.365 102.265, 35.848 103.217, 34.660 103.577 C 31.417 104.561, 26 108.907, 26 110.525 C 26 111.719, 30.711 115, 32.425 115 C 32.713 115, 33.647 113.650, 34.500 112 C 35.669 109.740, 36.749 109, 38.877 109 C 40.653 109, 42.870 107.885, 44.843 106 C 46.569 104.350, 48.738 103, 49.662 103 C 50.586 103, 52.128 102.289, 53.088 101.420 C 54.493 100.149, 55.258 100.068, 57.010 101.005 C 59.548 102.364, 63.186 101.672, 65.460 99.397 C 66.339 98.518, 70.279 97.024, 74.215 96.079 C 81.888 94.236, 84.285 92.254, 82.070 89.584 C 80.394 87.565, 77.028 87.670, 69.500 89.974 M 166.356 104.492 C 164.642 105.213, 162.935 106.297, 162.561 106.901 C 162.188 107.506, 159.575 108, 156.755 108 C 152.820 108, 151.074 107.479, 149.241 105.756 C 147.175 103.816, 146.736 103.721, 145.988 105.056 C 145.513 105.905, 142.847 107.667, 140.062 108.971 L 135 111.342 135.006 116.921 C 135.012 123.626, 136.630 130, 138.324 130 C 139.001 130, 140.443 129.394, 141.527 128.654 C 144.070 126.918, 159.086 123.005, 163.276 122.985 C 167.754 122.964, 174.509 120.462, 174.456 118.843 C 174.432 118.104, 174.035 114.671, 173.573 111.214 C 172.598 103.917, 171.083 102.505, 166.356 104.492 M 131.079 113.583 C 131.127 114.748, 131.364 114.985, 131.683 114.188 C 131.972 113.466, 131.936 112.603, 131.604 112.271 C 131.272 111.939, 131.036 112.529, 131.079 113.583 M 76 128.009 C 75.175 128.537, 73.398 128.976, 72.050 128.985 C 69.169 129.003, 55.246 133.904, 46 138.155 C 42.001 139.993, 36.037 141.647, 30.500 142.453 C 21.012 143.834, 13 147.061, 13 149.500 C 13 152.716, 17.451 154.175, 24.994 153.432 C 31.039 152.836, 32.376 152.355, 33.729 150.290 C 34.748 148.736, 35.979 148.023, 37.127 148.323 C 39.499 148.943, 41.059 146.942, 40.342 144.198 C 39.873 142.405, 40.190 142, 42.062 142 C 44.403 142, 49.118 140.662, 54.500 138.471 C 59.373 136.488, 62.834 135.923, 63.502 137.003 C 63.846 137.559, 63.311 138.339, 62.313 138.736 C 61.001 139.259, 61.744 139.642, 65 140.121 C 68.306 140.608, 70.275 140.345, 72.420 139.133 C 75.753 137.248, 76.930 135, 74.583 135 C 72.248 135, 72.659 133.476, 75.323 132.263 C 77.232 131.393, 77.858 131.543, 78.832 133.102 C 80.222 135.329, 83.402 135.464, 90.500 133.597 C 95.983 132.155, 97.803 129.412, 93.816 128.599 C 88.373 127.489, 77.382 127.125, 76 128.009 M 51.441 142.468 C 49.767 143.735, 49.729 143.941, 51.168 143.968 C 53.521 144.013, 56 142.948, 56 141.893 C 56 140.527, 53.608 140.829, 51.441 142.468 M 56.362 146.250 C 53.739 149.965, 52.182 154.273, 51.032 161 C 49.462 170.186, 47.087 178.149, 42.977 188 C 39.029 197.463, 35 209.669, 35 212.167 C 35 213.219, 34.171 215.749, 33.157 217.790 C 27.997 228.178, 28.284 235, 33.881 235 C 35.986 235, 38.364 233.377, 43.346 228.540 C 47.006 224.987, 50 221.781, 50 221.416 C 50 221.051, 51.969 219.019, 54.375 216.901 C 56.781 214.783, 61.353 209.651, 64.536 205.496 C 67.719 201.341, 70.727 198.076, 71.221 198.240 C 72.029 198.510, 76.984 209.580, 76.995 211.143 C 76.998 211.496, 79.381 215.321, 82.291 219.643 C 85.734 224.755, 88.791 228.111, 91.041 229.248 C 95.496 231.500, 102.559 231.592, 103.396 229.410 C 104.208 227.294, 103.302 226, 101.009 226 C 99.103 226, 90.180 219.196, 90.064 217.654 C 90.029 217.189, 89.162 215.614, 88.138 214.154 C 87.114 212.694, 84.125 206.438, 81.495 200.250 C 77.116 189.944, 76.492 189, 74.061 189 C 72.601 189, 70.366 189.787, 69.095 190.750 C 62.802 195.513, 59.550 198.789, 56.511 203.425 C 52.696 209.244, 46.571 216, 45.110 216 C 43.194 216, 42.933 214.030, 44.459 211.079 C 45.307 209.440, 46 206.759, 46 205.121 C 46 203.483, 46.599 201.544, 47.331 200.812 C 48.064 200.079, 48.999 198.135, 49.409 196.490 C 49.820 194.846, 50.833 192.748, 51.661 191.829 C 53.781 189.477, 57.376 174.779, 59.527 159.669 C 61.101 148.617, 61.156 146.712, 59.927 145.934 C 58.011 144.721, 57.404 144.775, 56.362 146.250 M 209.655 154.829 C 208.524 156.079, 208 158.456, 208 162.339 C 208 165.464, 207.127 171.954, 206.059 176.761 C 204.991 181.567, 203.819 188.875, 203.453 193 C 202.854 199.762, 203.003 200.771, 204.967 203.250 C 206.670 205.401, 207.988 206, 211.014 206 C 213.141 206, 215.160 205.550, 215.500 205 C 215.840 204.450, 216.981 204, 218.036 204 C 219.091 204, 220.691 202.875, 221.592 201.500 C 222.493 200.125, 223.735 199, 224.353 199 C 224.970 199, 227.625 196.637, 230.253 193.750 C 235.337 188.165, 236.950 188.255, 236.985 194.128 C 237 196.738, 239.621 204.043, 240.885 205 C 241.249 205.275, 242.334 206.738, 243.296 208.250 C 244.259 209.762, 245.905 211, 246.956 211 C 249.714 211, 250.579 207.297, 248.386 204.875 C 246.397 202.677, 245.113 194.619, 244.518 180.606 C 244.079 170.272, 242.905 168.200, 238.348 169.715 C 235.958 170.510, 235.406 171.357, 234.914 174.975 C 234.591 177.347, 233.579 179.835, 232.664 180.504 C 231.749 181.173, 231 182.041, 231 182.432 C 231 182.824, 228.958 185.301, 226.462 187.938 C 221.329 193.359, 214.584 196.984, 212.852 195.252 C 211.703 194.103, 211.942 192.635, 216.066 175.500 C 221.110 154.541, 221.046 153, 215.136 153 C 212.699 153, 210.709 153.664, 209.655 154.829 M 53.195 168.500 C 53.215 170.150, 53.439 170.704, 53.693 169.731 C 53.947 168.758, 53.930 167.408, 53.656 166.731 C 53.382 166.054, 53.175 166.850, 53.195 168.500 M 44.531 194.293 C 44.103 195.279, 44.034 196.367, 44.376 196.710 C 45.392 197.725, 46.211 196.299, 45.743 194.328 C 45.329 192.581, 45.275 192.580, 44.531 194.293 M 36.750 216.823 C 34.610 220.473, 34.500 223, 36.481 223 C 38.126 223, 39.345 219.382, 38.833 216.020 C 38.522 213.982, 38.384 214.035, 36.750 216.823 M 121.250 219.735 C 118.880 222.195, 118.340 224, 119.974 224 C 120.905 224, 124.495 218.037, 123.824 217.607 C 123.646 217.492, 122.487 218.450, 121.250 219.735 M 88.221 222.164 C 88.435 222.805, 89.679 224.039, 90.987 224.907 L 93.365 226.486 91.567 223.743 C 89.783 221.020, 87.477 219.932, 88.221 222.164 M 216.250 231.689 C 217.213 231.941, 218.787 231.941, 219.750 231.689 C 220.713 231.438, 219.925 231.232, 218 231.232 C 216.075 231.232, 215.287 231.438, 216.250 231.689" stroke="none" fill="black" fill-rule="evenodd"/>
</svg>