<svg xmlns="http://www.w3.org/2000/svg" width="300" height="300" viewBox="0 0 300 300" version="1.1">
	<path d="M 245.812 55.521 C 244.602 56.731, 227.846 58.999, 220 59.014 C 210.743 59.032, 208.605 59.744, 209.177 62.620 C 209.478 64.136, 210.449 64.500, 214.185 64.500 C 216.734 64.500, 219.160 64.838, 219.576 65.250 C 220.822 66.484, 221.975 66.099, 221.414 64.636 C 221.032 63.641, 222.190 63.124, 225.695 62.722 C 228.338 62.420, 230.650 62.583, 230.833 63.086 C 231.303 64.375, 238.373 64.227, 239.699 62.901 C 241.070 61.530, 245 62.674, 245 64.445 C 245 65.166, 244.325 66.315, 243.500 67 C 242.675 67.685, 242 69.033, 242 69.996 C 242 70.959, 241.131 75.223, 240.069 79.472 C 239.008 83.722, 238.328 87.716, 238.559 88.349 C 239.511 90.957, 237.040 91.968, 227.462 92.892 C 215.313 94.064, 193.720 97.437, 192.147 98.409 C 191.516 98.799, 191 100.441, 191 102.059 C 191 104.510, 191.406 105, 193.441 105 C 194.784 105, 196.160 104.550, 196.500 104 C 196.840 103.450, 198.180 103, 199.477 103 C 203.048 103, 204.935 101.995, 204.330 100.417 C 204.028 99.630, 204.389 98.983, 205.143 98.962 C 205.889 98.941, 208.241 98.673, 210.369 98.365 C 213.041 97.978, 214.029 98.144, 213.560 98.902 C 213.187 99.506, 211.810 100, 210.500 100 C 209.190 100, 207.840 100.450, 207.500 101 C 206.557 102.526, 212.337 102.206, 214.517 100.611 C 215.562 99.847, 216.994 99.444, 217.700 99.715 C 218.406 99.986, 219.275 99.448, 219.631 98.520 C 220.134 97.208, 220.458 97.122, 221.084 98.136 C 222.010 99.634, 230.024 99.593, 232.859 98.075 C 233.852 97.544, 237.102 97.357, 240.082 97.658 C 247.923 98.452, 266 94.523, 266 92.025 C 266 90.746, 265.561 90.706, 254.250 90.977 C 247.041 91.149, 245.003 90.900, 245.012 89.849 C 245.018 89.107, 246.143 82.912, 247.512 76.081 C 250.590 60.718, 250.768 55, 248.167 55 C 247.158 55, 246.099 55.235, 245.812 55.521 M 170.954 58.250 C 168.321 61.039, 166.491 64.483, 164.455 70.482 C 162.742 75.525, 158.675 84.778, 153.678 95 C 151.930 98.575, 150.327 101.906, 150.116 102.402 C 149.905 102.898, 150.692 103.052, 151.866 102.745 C 154.360 102.093, 154.650 103.493, 152.472 105.671 C 151.312 106.831, 150.616 106.926, 149.578 106.065 C 148.479 105.152, 147.900 105.844, 146.620 109.603 C 145.744 112.172, 143.897 115.758, 142.514 117.571 C 139.411 121.639, 139.185 125, 142.014 125 C 144.841 125, 149.320 119.747, 153.734 111.254 C 157.397 104.206, 159.848 101.701, 158.631 106.250 C 158.300 107.487, 158.762 115.925, 159.658 125 C 161.040 139.002, 161.112 144.074, 160.133 158.500 C 157.161 202.284, 157.417 205.841, 164.266 216.040 C 168.522 222.378, 172.292 226, 174.635 226 C 176.731 226, 176.272 224.043, 173.250 220.102 C 165.574 210.091, 164.227 201.500, 166.046 174.147 C 166.800 162.791, 167.250 146.975, 167.045 139 C 166.391 113.537, 166.478 102.572, 167.356 99.759 C 168.662 95.577, 165.510 94.829, 162.492 98.606 C 159.224 102.695, 158.552 101.142, 161.326 95.911 C 162.612 93.485, 165.514 86.775, 167.774 81 C 171.953 70.322, 173.927 65.743, 176.546 60.661 C 177.350 59.100, 177.755 57.413, 177.445 56.911 C 176.432 55.271, 173.121 55.954, 170.954 58.250 M 85.115 71.885 C 84.078 72.922, 82.242 76.410, 81.035 79.635 C 78.679 85.933, 72.165 98.989, 68.130 105.500 C 65.132 110.338, 62 118.633, 62 121.736 C 62 126.080, 64.837 123.960, 69.341 116.250 C 80.681 96.841, 79.681 98, 85.078 98 C 88.616 98, 90.172 97.534, 90.920 96.250 C 91.486 95.279, 91.953 95.056, 91.970 95.750 C 92.012 97.480, 93.996 97.313, 96.108 95.402 C 97.863 93.814, 100 94.207, 100 96.118 C 100 96.668, 99.581 96.859, 99.069 96.543 C 98.557 96.226, 97.856 96.425, 97.510 96.984 C 97.126 97.605, 98.362 97.994, 100.691 97.985 C 103.519 97.973, 104.113 97.720, 103 97 C 101.935 96.312, 101.875 96.026, 102.792 96.015 C 103.502 96.007, 105.040 96.891, 106.209 97.980 C 108.117 99.757, 108.216 100.344, 107.181 103.730 C 106.547 105.803, 105.076 110.769, 103.912 114.765 C 102.748 118.761, 101.054 122.872, 100.148 123.900 C 98.989 125.216, 94.494 126.564, 85 128.445 C 73.568 130.710, 71.159 131.514, 69.272 133.690 C 68.046 135.104, 67.308 136.689, 67.631 137.211 C 68.472 138.573, 72.709 137.291, 75.025 134.975 C 77.391 132.609, 79.902 132.208, 78 134.500 C 76.958 135.756, 77.112 136, 78.943 136 C 81.843 136, 85.207 134.143, 84.469 132.950 C 84.146 132.427, 84.809 132, 85.941 132 C 87.073 132, 88 132.398, 88 132.883 C 88 133.369, 88.920 134.007, 90.045 134.302 C 91.907 134.789, 92.064 135.494, 91.795 142.168 L 91.500 149.500 83.500 151.542 C 79.100 152.665, 74.684 153.899, 73.687 154.285 C 70.760 155.416, 72.839 157.194, 76.220 156.452 C 78.318 155.991, 79.040 156.127, 78.566 156.893 C 78.190 157.502, 77.035 158, 76 158 C 74.965 158, 73.840 158.450, 73.500 159 C 72.500 160.618, 76.016 160.113, 83.494 157.566 C 87.341 156.256, 90.828 155.394, 91.244 155.651 C 91.660 155.908, 92 159.839, 92 164.387 L 92 172.655 80.750 173.686 C 68.733 174.788, 68.457 174.711, 67.445 170 C 67.150 168.625, 65.754 164.013, 64.343 159.751 C 62.521 154.250, 61.968 150.986, 62.434 148.501 C 62.961 145.690, 62.777 145, 61.498 145 C 59.455 145, 55 149.778, 55 151.968 C 55 153.935, 57.941 163.050, 59.044 164.500 C 59.462 165.050, 60.332 167.525, 60.977 170 C 63.386 179.249, 69.053 184.547, 72.669 180.931 C 73.257 180.343, 76.668 179.673, 80.248 179.443 C 83.828 179.213, 87.822 178.631, 89.123 178.150 C 91.119 177.412, 91.761 177.723, 93.230 180.137 C 95.242 183.447, 96.973 183.820, 97.684 181.099 C 98.369 178.479, 103.782 177.556, 120.750 177.167 C 126.647 177.031, 128 176.703, 128 175.406 C 128 174.530, 127.100 173.577, 126 173.290 C 123.518 172.641, 123.508 172.159, 125.917 169.564 C 130.372 164.767, 135.635 143.240, 134.525 134.358 C 133.592 126.888, 132.381 126.180, 119.156 125.377 C 109.381 124.783, 107.994 124.484, 108.588 123.097 C 110.289 119.128, 114 102.725, 114 99.177 C 114 94.294, 112.255 93.234, 102.281 92.056 C 97.210 91.457, 91.178 91.268, 88.875 91.636 L 84.689 92.305 85.291 89.294 C 85.622 87.638, 87.291 83.231, 89 79.501 C 90.708 75.770, 91.871 72.107, 91.584 71.359 C 90.833 69.401, 87.312 69.688, 85.115 71.885 M 225 97 C 224.099 97.582, 223.975 97.975, 224.691 97.985 C 225.346 97.993, 226.160 97.550, 226.500 97 C 227.267 95.758, 226.921 95.758, 225 97 M 200 100 C 200 100.550, 200.450 101, 201 101 C 201.550 101, 202 100.550, 202 100 C 202 99.450, 201.550 99, 201 99 C 200.450 99, 200 99.450, 200 100 M 109 106.059 C 109 107.191, 109.450 107.840, 110 107.500 C 110.550 107.160, 111 106.234, 111 105.441 C 111 104.648, 110.550 104, 110 104 C 109.450 104, 109 104.927, 109 106.059 M 208 115.500 C 207.179 116.489, 207.126 117, 207.846 117 C 208.446 117, 208.678 117.675, 208.362 118.500 C 207.496 120.755, 210.734 120.365, 211.965 118.066 C 212.534 117.002, 213 115.652, 213 115.066 C 213 113.471, 209.426 113.781, 208 115.500 M 204.200 118.200 C 203.540 118.860, 202.996 120.098, 202.990 120.950 C 202.985 121.802, 200.704 129.025, 197.922 137 C 189.465 161.245, 188.876 163.276, 189.983 164.383 C 191.245 165.645, 203.142 163.372, 204.231 161.660 C 204.774 160.807, 204.973 160.831, 204.985 161.750 C 205.009 163.748, 206.716 163.193, 207.290 161 C 207.898 158.676, 210 158.288, 210 160.500 C 210 161.500, 211 162, 213 162 C 216.167 162, 216.745 161.145, 214.856 159.256 C 213.997 158.397, 214.247 158.252, 215.856 158.673 C 217.035 158.981, 218 159.683, 218 160.233 C 218 160.783, 219.122 161.019, 220.494 160.756 C 225.754 159.751, 225.455 162.174, 218.563 176.408 C 214.953 183.862, 212 190.318, 212 190.755 C 212 192.055, 198.029 216.364, 196.870 217.080 C 194.931 218.279, 196.400 221.486, 199.029 221.794 C 200.733 221.994, 202.393 221.190, 204.190 219.294 C 206.721 216.624, 219 194.819, 219 192.994 C 219 192.512, 219.449 191.840, 219.998 191.501 C 221.149 190.790, 228.955 196.953, 228.982 198.595 C 229.010 200.322, 232.714 203.273, 233.419 202.130 C 233.777 201.551, 235.131 202.144, 236.634 203.537 C 238.540 205.303, 239.074 206.569, 238.641 208.293 C 238.160 210.211, 239.193 211.773, 244.276 216.811 C 253.409 225.863, 257.351 228.440, 254.890 223.750 C 253.726 221.533, 253.739 221.527, 255.787 223.344 C 256.930 224.358, 257.642 225.770, 257.369 226.481 C 256.257 229.378, 274.817 238.670, 287.189 241.412 C 291.916 242.459, 291.301 240.055, 286.314 237.993 C 283.666 236.898, 280.825 235.555, 280 235.009 C 279.175 234.463, 275.824 232.611, 272.554 230.894 C 264.930 226.893, 257.492 221.383, 250.769 214.756 C 242.430 206.537, 226.065 185.573, 225.402 182.262 C 224.967 180.084, 225.641 177.595, 227.903 173.037 C 229.606 169.604, 231 166.198, 231 165.469 C 231 163.179, 234.020 161, 237.194 161 C 239.707 161, 240.038 160.751, 239.074 159.589 C 238.319 158.679, 238.257 157.959, 238.901 157.561 C 239.450 157.222, 240.374 157.830, 240.954 158.913 C 241.824 160.540, 242.839 160.820, 246.793 160.526 C 254.333 159.965, 259.305 158.898, 261.857 157.295 C 266.215 154.557, 262.882 153.941, 248.436 154.817 C 240.771 155.281, 234.117 155.332, 233.649 154.929 C 233.180 154.527, 233.908 150.343, 235.266 145.632 C 236.624 140.922, 237.494 136.828, 237.201 136.534 C 235.896 135.229, 235 136.233, 235 139 C 235 142.358, 234.772 142.499, 232.068 140.810 C 228.960 138.869, 227 141.336, 227 147.188 C 227 154.905, 226.303 155.560, 217.823 155.813 C 213.796 155.933, 208.102 156.513, 205.171 157.103 C 202.240 157.692, 199.588 157.921, 199.278 157.611 C 198.968 157.301, 199.847 153.775, 201.232 149.774 C 208.256 129.479, 210.250 121, 208 121 C 207.450 121, 207 120.100, 207 119 C 207 116.733, 205.963 116.437, 204.200 118.200 M 250 123.015 C 245.325 123.400, 236.550 124.026, 230.500 124.408 C 215.597 125.349, 213 125.814, 213 127.545 C 213 128.345, 213.675 129, 214.500 129 C 215.325 129, 215.888 129.563, 215.750 130.250 C 215.444 131.781, 222.902 131.769, 223.863 130.237 C 224.213 129.679, 226.300 128.724, 228.500 128.115 C 231.801 127.200, 232.694 127.268, 233.610 128.503 C 234.830 130.148, 237 130.527, 237 129.095 C 237 128.597, 238.796 128.431, 240.990 128.726 C 243.463 129.057, 245.555 128.784, 246.490 128.008 C 247.474 127.192, 248.436 127.085, 249.250 127.702 C 250.596 128.723, 251.790 128.636, 262.490 126.739 C 267.745 125.808, 269.563 125.066, 269.814 123.750 C 270.103 122.232, 269.376 122.021, 264.323 122.158 C 261.120 122.246, 254.675 122.631, 250 123.015 M 102.260 131.763 C 98.881 135.659, 97.606 139.658, 98.168 144.592 C 98.426 146.850, 98.947 147.433, 100.500 147.200 C 108.362 146.022, 116.936 145.895, 118.867 146.929 C 122.066 148.641, 120.755 149.675, 114.377 150.472 C 110.154 151, 108.486 150.840, 107.770 149.839 C 107.036 148.814, 106.936 148.891, 107.343 150.167 C 107.929 152.008, 106.195 153, 102.393 153 C 100.664 153, 99.653 153.783, 98.932 155.678 C 97.662 159.020, 98.809 171.986, 100.379 172.034 C 100.996 172.053, 105.066 172.165, 109.423 172.284 L 117.347 172.500 120.673 167.298 C 122.503 164.437, 124 161.370, 124 160.482 C 124 159.595, 124.455 158.019, 125.010 156.981 C 125.566 155.943, 126.222 152.935, 126.470 150.297 C 126.717 147.659, 127.208 143.186, 127.561 140.358 C 127.914 137.530, 127.938 134.380, 127.613 133.357 C 126.811 130.829, 121.229 128.371, 119.719 129.881 C 118.081 131.519, 115.964 131.258, 116.638 129.500 C 116.995 128.571, 116.634 128, 115.689 128 C 113.207 128, 110.970 129.142, 111.565 130.105 C 112.495 131.610, 110.327 131.099, 109 129.500 C 107.117 127.231, 105.809 127.671, 102.260 131.763 M 94 130 C 94 130.550, 94.450 131, 95 131 C 95.550 131, 96 130.550, 96 130 C 96 129.450, 95.550 129, 95 129 C 94.450 129, 94 129.450, 94 130 M 221.015 185.691 C 221.024 186.136, 221.467 187.175, 222 188 C 222.835 189.293, 222.971 189.266, 222.985 187.809 C 222.993 186.879, 222.550 185.840, 222 185.500 C 221.450 185.160, 221.007 185.246, 221.015 185.691 M 55.341 190.412 C 53.914 193.404, 53.846 195.401, 54.788 206.662 C 56.137 222.780, 57.221 226.556, 61.192 228.971 C 64.423 230.935, 67 230.701, 67 228.443 C 67 227.704, 66.327 226.723, 65.505 226.263 C 63.657 225.228, 62.402 218.311, 61.041 201.648 C 60.464 194.579, 59.742 188.392, 59.437 187.898 C 58.366 186.165, 56.952 187.032, 55.341 190.412 M 67.993 191.508 C 65.958 193.960, 67.450 199.047, 73.155 209.106 C 78.882 219.204, 79.523 220.126, 85.286 226.569 C 89.028 230.752, 93.505 232.895, 95.124 231.276 C 95.583 230.817, 93.362 227.671, 90.190 224.285 C 86.616 220.471, 83.511 215.916, 82.028 212.314 C 80.712 209.116, 78.342 204.385, 76.763 201.801 C 75.183 199.216, 73.631 195.503, 73.314 193.551 C 72.688 189.691, 70.271 188.763, 67.993 191.508 M 93.794 196.553 C 92.843 198.640, 93.029 200.460, 94.810 206.516 C 98.205 218.052, 101.612 224.476, 105.426 226.530 C 107.456 227.623, 109.467 228.031, 110.619 227.583 C 112.395 226.892, 112.371 226.746, 110.174 224.954 C 107.730 222.960, 105.805 218.487, 100.835 203.250 C 97.664 193.528, 95.926 191.875, 93.794 196.553 M 112.602 198.159 C 111.228 200.120, 111.272 200.574, 113.087 203.122 C 114.186 204.665, 116.009 208.756, 117.138 212.214 C 119.750 220.210, 127.604 234.718, 130.022 236.012 C 132.977 237.593, 135 237.182, 135 235 C 135 233.900, 134.592 233, 134.094 233 C 132.860 233, 127.196 220.862, 124.995 213.500 C 122.787 206.116, 119.095 197.751, 117.608 196.765 C 115.697 195.498, 114.166 195.925, 112.602 198.159 M 234 204.755 C 234 205.305, 234.675 206.315, 235.500 207 C 236.337 207.694, 237 207.803, 237 207.245 C 237 206.695, 236.325 205.685, 235.500 205 C 234.663 204.306, 234 204.197, 234 204.755 M 247 218 C 247 218.550, 247.702 219, 248.559 219 C 249.416 219, 249.840 218.550, 249.500 218 C 249.160 217.450, 248.459 217, 247.941 217 C 247.423 217, 247 217.450, 247 218" stroke="none" fill="black" fill-rule="evenodd"/>
</svg>