<svg xmlns="http://www.w3.org/2000/svg" width="300" height="300" viewBox="0 0 300 300" version="1.1">
	<path d="M 176 14.489 C 176 17.024, 172.688 20, 169.867 20 C 168.107 20, 166.306 21.036, 164.653 23 C 163.265 24.650, 161.809 26, 161.418 26 C 160.735 26, 152.031 32.748, 151 34.077 C 150.725 34.431, 148.925 35.513, 147 36.481 C 145.075 37.449, 142.779 38.871, 141.898 39.642 C 141.017 40.412, 137.901 41.820, 134.973 42.771 C 129.287 44.618, 128.113 45.947, 130.238 48.134 C 130.987 48.904, 131.561 51.682, 131.555 54.500 C 131.548 57.250, 132.546 65.858, 133.772 73.630 C 136.107 88.438, 136.420 99.360, 135.070 119 C 134.335 129.699, 135.186 145.061, 136.843 151 C 137.696 154.059, 141.406 154.913, 142.504 152.303 C 142.921 151.311, 143.541 147.611, 143.881 144.080 C 144.466 138.015, 144.666 137.611, 147.500 136.783 C 149.150 136.301, 151.940 135.194, 153.701 134.322 C 156.372 133, 157.663 132.930, 161.502 133.896 C 164.032 134.533, 166.435 134.849, 166.841 134.598 C 167.247 134.347, 170.711 133.885, 174.540 133.572 C 189.666 132.332, 192.648 131.958, 196.500 130.823 C 202.117 129.168, 204.200 127.242, 202.933 124.874 C 201.736 122.638, 199.679 122.464, 197.710 124.433 C 196.704 125.439, 193.258 125.960, 186.139 126.183 C 180.563 126.357, 176.001 126.838, 176 127.250 C 176 127.662, 176.975 128, 178.167 128 C 180.867 128, 180.335 128.518, 176.750 129.378 C 174.667 129.878, 174 129.669, 174 128.519 C 174 127.684, 173.502 127, 172.893 127 C 172.284 127, 172.031 127.638, 172.330 128.417 C 173.102 130.429, 170.342 131.199, 168.600 129.458 C 167.799 128.656, 166.462 128, 165.630 128 C 164.799 128, 163.840 127.550, 163.500 127 C 162.726 125.748, 152.736 125.677, 151.450 126.914 C 150.927 127.417, 149.150 127.979, 147.500 128.164 L 144.500 128.500 144.500 123.028 L 144.500 117.555 148.880 116.808 C 151.289 116.396, 154.215 115.434, 155.384 114.668 C 156.552 113.903, 159.081 113.010, 161.004 112.686 C 168.807 111.367, 170.988 110.719, 172.090 109.391 C 172.996 108.300, 172.895 108, 171.622 108 C 170.730 108, 170 107.572, 170 107.050 C 170 106.112, 158.186 106.428, 150.921 107.560 C 146.015 108.325, 144.821 106.608, 145.198 99.334 L 145.500 93.500 149 93.321 C 154.560 93.038, 161.192 91.512, 165.189 89.597 C 167.218 88.625, 170.368 87.940, 172.189 88.075 C 177.053 88.436, 181.930 86.999, 183.071 84.868 C 183.621 83.841, 184.899 83, 185.913 83 C 186.926 83, 188.344 82.291, 189.063 81.424 C 191.198 78.851, 188.377 77.950, 183.599 79.677 C 181.345 80.492, 175.225 81.563, 170 82.057 C 159.042 83.093, 148.132 84.472, 146.088 85.080 C 144.239 85.630, 141.199 70.401, 142.832 68.768 C 143.409 68.191, 148.587 66.917, 154.340 65.937 C 160.092 64.957, 166.081 63.495, 167.649 62.687 C 170.103 61.423, 170.682 61.416, 171.810 62.632 C 172.530 63.408, 173.430 63.856, 173.810 63.627 C 174.189 63.398, 179.076 62.900, 184.670 62.521 C 197.508 61.651, 197.656 61.817, 196.022 75.261 C 195.410 80.289, 194.542 84.875, 194.092 85.452 C 193.642 86.028, 192.004 90.450, 190.452 95.277 C 187.353 104.916, 186.268 105.836, 179.493 104.565 C 176.727 104.046, 176 104.231, 176 105.455 C 176 106.305, 175.550 107, 175 107 C 174.450 107, 174 107.645, 174 108.433 C 174 110.124, 177.063 111.297, 179.269 110.450 C 180.122 110.123, 182.188 110.563, 183.860 111.428 C 185.532 112.292, 187.911 113, 189.146 113 C 192.379 113, 197 108.211, 197 104.860 C 197 102.307, 198.736 97.174, 199.996 96 C 201.922 94.206, 204.824 78.252, 204.927 68.885 C 204.986 63.555, 204.575 61.709, 202.814 59.385 C 201.612 57.798, 200.598 56.424, 200.562 56.331 C 200.526 56.238, 199.210 55.840, 197.637 55.445 C 195.006 54.785, 194.836 54.908, 195.497 56.989 C 195.986 58.531, 195.862 59.033, 195.107 58.566 C 194.498 58.190, 194 57.234, 194 56.441 C 194 54.504, 189.684 54.582, 185.439 56.596 C 183.589 57.474, 181.496 57.959, 180.788 57.675 C 180.080 57.391, 180.512 57.122, 181.750 57.079 C 184.967 56.966, 184.539 55.035, 181.250 54.822 C 174.458 54.381, 160.770 56.677, 159.415 58.484 C 158.629 59.533, 158.029 59.629, 157.234 58.834 C 156.441 58.041, 154.117 58.038, 148.824 58.824 C 144.801 59.421, 141.221 59.592, 140.868 59.205 C 139.789 58.017, 137.325 48.526, 137.759 47.224 C 137.983 46.551, 139.053 46, 140.135 46 C 142.216 46, 150.023 42.153, 151.174 40.560 C 151.547 40.043, 153.181 38.918, 154.805 38.060 C 160.039 35.294, 169.476 28.784, 170.300 27.372 C 170.740 26.617, 171.546 26, 172.092 26 C 172.638 26, 173.628 25.523, 174.292 24.941 C 174.956 24.358, 176.978 23.006, 178.784 21.935 C 183.198 19.318, 183.895 17.143, 181.056 14.844 C 178.307 12.618, 176 12.456, 176 14.489 M 172.559 58.532 C 171.469 59.356, 171.172 60, 171.880 60 C 172.575 60, 173.818 59.325, 174.643 58.500 C 176.560 56.583, 175.106 56.605, 172.559 58.532 M 70.836 76.111 C 69.672 77.568, 68.984 81.095, 68.545 87.847 C 67.092 110.209, 61.226 132.217, 58.075 127.121 C 57.357 125.960, 56.731 125.988, 54.111 127.295 C 52.400 128.148, 51 128.431, 51 127.923 C 51 126.594, 38.567 126.784, 35.547 128.161 C 32.276 129.651, 32.296 132.309, 35.594 134.470 C 37.387 135.645, 39.008 135.940, 40.844 135.426 C 42.305 135.017, 45.300 134.593, 47.500 134.484 C 49.700 134.376, 53.125 133.959, 55.110 133.558 C 59.849 132.602, 60.591 134.455, 57.944 140.630 C 55.677 145.919, 51 164.117, 51 167.649 C 51 168.942, 50.550 170, 50 170 C 49.450 170, 49 170.494, 49 171.099 C 49 171.703, 48.373 173.616, 47.607 175.349 C 42.996 185.778, 38.619 197.207, 37.474 201.809 C 36.747 204.728, 35.444 208.200, 34.577 209.524 C 32.401 212.844, 32.604 215.609, 35.155 217.396 C 36.660 218.450, 37.843 218.619, 39.080 217.957 C 41.115 216.868, 46 207.102, 46 204.121 C 46 203.019, 46.450 201.840, 47 201.500 C 47.550 201.160, 48 200.041, 48 199.012 C 48 197.984, 48.675 196.468, 49.500 195.643 C 50.325 194.818, 51 193.578, 51 192.888 C 51 191.119, 55.058 179.745, 56.202 178.306 C 57.351 176.861, 59.580 169.285, 62.029 158.500 C 63.824 150.599, 65.430 145.503, 69.357 135.250 C 70.982 131.007, 71.812 130, 73.684 130 C 74.958 130, 76 129.568, 76 129.040 C 76 128.512, 77.800 127.541, 80 126.882 C 84.253 125.608, 85.122 123.753, 82.250 122.080 C 80.583 121.109, 80.583 121.059, 82.250 121.030 C 83.213 121.014, 84 121.502, 84 122.117 C 84 122.731, 84.871 123.006, 85.935 122.727 C 87 122.449, 88.040 122.734, 88.247 123.361 C 88.454 123.987, 88.218 130.350, 87.721 137.500 C 86.658 152.818, 86.826 179.463, 88.025 185.942 C 90.102 197.156, 95.056 206.474, 99.539 207.599 C 102.576 208.361, 107.124 206.606, 109.721 203.670 C 115.394 197.254, 123 174.298, 123 163.589 C 123 158.963, 121.348 154, 119.808 154 C 118.648 154, 118.435 154.909, 117.002 166 C 116.327 171.225, 115.428 175.725, 115.005 176 C 114.582 176.275, 113.515 178.632, 112.634 181.238 C 110.715 186.914, 106.018 196.209, 104.551 197.235 C 102.796 198.461, 101.839 198.099, 101.290 196 C 101.002 194.900, 100.462 194, 100.090 194 C 96.778 194, 94.135 162.929, 96.072 146.750 C 98.638 125.318, 99.093 122.475, 100.010 122.167 C 100.554 121.983, 101 119.337, 101 116.285 L 101 110.737 96.772 111.304 C 94.446 111.616, 92.383 112.350, 92.188 112.935 C 91.993 113.521, 90.833 114, 89.611 114 C 87.664 114, 81.642 117.623, 80.062 119.746 C 79.753 120.160, 78.430 121.102, 77.123 121.838 C 75.121 122.965, 74.524 122.952, 73.332 121.761 C 72.245 120.673, 72.158 119.714, 72.959 117.608 C 73.532 116.102, 74 113.774, 74 112.435 C 74 111.096, 74.398 110, 74.884 110 C 75.730 110, 76.364 105.205, 77.644 89.117 C 78.608 77.009, 75.246 70.587, 70.836 76.111 M 45.692 129.359 C 45.388 130.153, 45.670 130.725, 46.319 130.629 C 47.817 130.410, 48.461 128.654, 47.198 128.233 C 46.675 128.058, 45.997 128.565, 45.692 129.359 M 144.510 133.016 C 144.856 133.575, 145.557 133.774, 146.069 133.457 C 147.456 132.600, 147.198 132, 145.441 132 C 144.584 132, 144.165 132.457, 144.510 133.016 M 228.500 152.483 C 226.850 153.210, 225.725 154.186, 226 154.652 C 226.731 155.892, 222.349 156.294, 220.343 155.172 C 219.218 154.543, 217.799 154.590, 216.218 155.310 C 214.242 156.211, 213.636 156.101, 212.854 154.704 C 211.517 152.314, 207.934 152.535, 207.277 155.048 C 206.713 157.206, 203.298 157.344, 203.750 155.191 C 203.912 154.421, 202.322 153.937, 199.250 153.820 C 188.826 153.426, 184.519 154.584, 185.632 157.483 C 186.295 159.211, 182.165 160.565, 180.699 159.099 C 179.900 158.300, 180.201 158, 181.800 158 C 183.010 158, 184 157.550, 184 157 C 184 156.450, 182.452 156, 180.559 156 C 178.666 156, 176.840 156.450, 176.500 157 C 176.160 157.550, 176.359 158, 176.941 158 C 179.105 158, 177.902 159.838, 175.099 160.816 C 172.859 161.596, 171.698 161.477, 170.006 160.292 C 168.801 159.447, 165.268 158.578, 162.157 158.360 C 159.046 158.141, 154.250 157.753, 151.500 157.496 C 137.798 156.216, 137.529 156.249, 137.183 159.256 C 136.956 161.227, 137.383 162.167, 138.683 162.557 C 139.682 162.857, 141.774 163.754, 143.331 164.551 C 148.220 167.053, 165.678 166.392, 184.500 162.992 C 196.981 160.737, 203.860 160.076, 215.500 160.011 C 223.606 159.966, 229.079 159.428, 232.367 158.353 C 238.079 156.485, 238.402 156.757, 239.543 164.378 C 240.628 171.635, 240.757 181.434, 239.866 188.927 C 239.445 192.462, 239.374 195.795, 239.707 196.335 C 240.587 197.759, 240.084 228.498, 239.029 237.744 C 238.133 245.604, 236.427 251, 234.839 251 C 234.378 251, 234 251.625, 234 252.389 C 234 255.361, 230.448 258.008, 225.135 258.995 C 220.514 259.854, 219.127 259.708, 215.135 257.943 C 209.039 255.248, 204.893 250.617, 204.244 245.781 C 203.652 241.372, 202.729 240.477, 200.258 241.915 C 199.287 242.481, 199.060 242.953, 199.750 242.970 C 200.579 242.990, 201 244.684, 201 248.003 C 201 252.666, 201.329 253.329, 205.846 257.753 C 208.511 260.364, 212.020 263.471, 213.644 264.658 C 216.923 267.056, 225.410 268.763, 226.366 267.217 C 226.697 266.681, 228.910 266.461, 231.284 266.728 C 235.279 267.179, 235.795 266.957, 238.250 263.739 C 243.497 256.860, 249 242.642, 249 235.965 C 249 233.784, 249.450 232, 250 232 C 250.646 232, 251 220.333, 251 199 C 251 177.667, 250.646 166, 250 166 C 249.450 166, 248.998 164.988, 248.996 163.750 C 248.991 160.462, 245.501 155.276, 241.759 152.995 C 238.061 150.740, 232.910 150.541, 228.500 152.483 M 56.035 154.934 C 54.765 157.308, 54.633 162.797, 55.879 161.450 C 56.877 160.371, 58.361 153, 57.580 153 C 57.300 153, 56.605 153.870, 56.035 154.934 M 170.813 158.683 C 171.534 158.972, 172.397 158.936, 172.729 158.604 C 173.061 158.272, 172.471 158.036, 171.417 158.079 C 170.252 158.127, 170.015 158.364, 170.813 158.683 M 160 162 C 160 162.550, 160.423 163, 160.941 163 C 161.459 163, 162.160 162.550, 162.500 162 C 162.840 161.450, 162.416 161, 161.559 161 C 160.702 161, 160 161.450, 160 162 M 52.632 170.099 C 50.803 176.679, 50.867 177.372, 53.224 176.467 C 54.904 175.823, 56.503 166.103, 55.151 164.751 C 54.707 164.307, 53.573 166.713, 52.632 170.099 M 131.466 185.037 C 129.056 187.701, 128.420 196.517, 129.987 205.566 C 130.647 209.380, 131.552 215.142, 131.999 218.372 C 133.092 226.276, 136.581 233, 139.590 233 C 142.054 233, 143.681 229.905, 142.345 227.759 C 141.914 227.067, 141.230 223.800, 140.826 220.500 C 140.422 217.200, 139.414 210.004, 138.586 204.509 C 137.717 198.742, 137.336 192.083, 137.683 188.759 C 138.271 183.129, 138.229 183, 135.797 183 C 134.429 183, 132.480 183.917, 131.466 185.037 M 205.750 185.080 C 203.226 186.550, 203.495 187.952, 208.500 199.447 C 210.975 205.131, 213 210.704, 213 211.832 C 213 212.959, 213.487 214.183, 214.083 214.551 C 214.678 214.919, 216.012 217.196, 217.047 219.610 C 218.420 222.812, 219.499 224, 221.036 224 C 223.579 224, 226.786 221.119, 225.312 220.159 C 223.713 219.118, 222.366 215.942, 221.003 210 C 220.309 206.975, 219.165 203.375, 218.461 202 C 217.758 200.625, 216.198 197.025, 214.995 194 C 211.110 184.231, 209.641 182.814, 205.750 185.080 M 154.667 188.667 C 153.442 189.891, 153.979 193.590, 156.393 200.576 C 157.710 204.384, 159.099 209.412, 159.481 211.749 C 159.863 214.087, 160.703 216.337, 161.349 216.749 C 161.994 217.162, 163.596 219.840, 164.908 222.700 C 167.363 228.049, 168.893 229.362, 171.500 228.362 C 173.137 227.733, 173.582 222.478, 172.077 221.548 C 171.569 221.234, 170.861 219.520, 170.502 217.739 C 170.144 215.957, 169.034 212.250, 168.036 209.500 C 167.038 206.750, 165.392 201.800, 164.378 198.500 C 161.973 190.666, 157.349 185.984, 154.667 188.667 M 178.923 192.077 C 177.578 193.422, 177.098 194.745, 177.563 195.827 C 178.814 198.745, 184.173 216.319, 185.238 221 C 186.346 225.872, 190.145 230.266, 192.474 229.371 C 194.248 228.691, 195.390 225.439, 194.411 223.856 C 194.016 223.217, 192.686 218.600, 191.455 213.597 C 187.941 199.316, 184.346 190, 182.348 190 C 181.607 190, 180.065 190.935, 178.923 192.077 M 132.015 198.691 C 132.007 199.896, 132.450 201.160, 133 201.500 C 134.273 202.287, 134.273 199.970, 133 198 C 132.212 196.781, 132.028 196.910, 132.015 198.691" stroke="none" fill="black" fill-rule="evenodd"/>
</svg>