<svg xmlns="http://www.w3.org/2000/svg" width="300" height="300" viewBox="0 0 300 300" version="1.1">
	<path d="M 191.128 13.344 C 190.373 14.255, 188.451 15, 186.857 15 C 184.368 15, 183.322 15.986, 179.430 22.002 C 173.678 30.894, 167.516 37.258, 157.819 44.319 C 150.217 49.855, 150.147 49.947, 151.044 53.206 C 151.543 55.018, 152.142 60.325, 152.375 65 C 152.608 69.675, 153.314 78.450, 153.945 84.500 C 155.121 95.786, 154.874 110.054, 153.003 139 C 152.417 148.075, 151.557 164.275, 151.094 175 C 150.297 193.448, 150.356 194.648, 152.194 197.250 C 154.700 200.799, 157.186 200.728, 161 197 C 162.688 195.350, 164.953 194, 166.034 194 C 168.189 194, 168.755 191.422, 166.750 190.745 C 165.437 190.301, 169.707 187.798, 174 186.494 C 176.489 185.738, 176.492 185.744, 174.595 187.867 C 172.706 189.982, 172.711 190, 175.123 190 C 176.460 190, 178.443 189.386, 179.527 188.635 C 180.612 187.884, 182.625 186.926, 184 186.507 C 185.375 186.088, 189.648 184.227, 193.497 182.373 C 197.345 180.518, 201.256 179, 202.188 179 C 203.119 179, 204.124 178.608, 204.420 178.129 C 205.038 177.130, 209.896 175.951, 215 175.563 C 216.925 175.417, 221.200 174.783, 224.500 174.154 C 227.800 173.526, 232.439 173.009, 234.809 173.006 C 237.843 173.002, 238.904 172.654, 238.395 171.830 C 237.883 171.002, 238.232 170.896, 239.586 171.465 C 240.639 171.908, 242.546 172.212, 243.825 172.140 C 250.257 171.780, 252.023 176.661, 251.551 193.500 C 250.988 213.619, 250.174 218.680, 244.864 235.087 L 239.820 250.673 234.382 253.427 C 231.392 254.941, 226.465 256.517, 223.435 256.928 C 216.763 257.833, 214.989 259.197, 217.193 261.726 C 218.043 262.702, 218.535 264.063, 218.286 264.750 C 217.975 265.609, 219.011 266, 221.596 266 C 225.255 266, 227.726 265.391, 236.945 262.216 C 241.641 260.599, 247.363 255.207, 248.839 251.008 C 250.862 245.253, 252 241.272, 252.006 239.929 C 252.010 239.143, 252.718 237.150, 253.580 235.500 C 254.442 233.850, 255.402 230.250, 255.712 227.500 C 256.022 224.750, 256.625 221.815, 257.051 220.978 C 260.003 215.182, 259.914 185.748, 256.917 176.470 C 253.991 167.414, 252.295 166.497, 238.500 166.513 C 227.341 166.525, 210.620 168.386, 205.925 170.137 C 204.508 170.666, 202.258 171.134, 200.925 171.178 C 198.231 171.268, 189.782 174.021, 189 175.065 C 188.725 175.432, 182.875 178.061, 176 180.907 C 169.125 183.753, 162.719 186.513, 161.764 187.041 C 160.809 187.568, 159.571 188, 159.014 188 C 157.607 188, 157.710 169.039, 159.147 163.330 C 160.101 159.541, 160.876 158.532, 163.755 157.329 C 167.790 155.643, 168.590 156.028, 167.046 158.914 C 166.134 160.618, 166.218 161, 167.505 161 C 170.385 161, 177.192 156.941, 176.655 155.544 C 176.098 154.091, 179.905 150, 181.814 150 C 183.705 150, 183.190 151.753, 180.810 153.420 C 179.606 154.264, 178.888 155.222, 179.216 155.549 C 179.772 156.105, 187.010 154.056, 191.500 152.070 C 192.600 151.583, 195.750 150.624, 198.500 149.938 C 201.250 149.251, 204.058 148.258, 204.741 147.730 C 205.423 147.202, 207.955 147.066, 210.368 147.428 C 215.718 148.230, 216.941 146.466, 213.801 142.474 C 212.003 140.188, 211.147 139.885, 207.607 140.282 C 202.939 140.805, 200.582 141.348, 194.086 143.391 C 191.564 144.185, 187.701 145.137, 185.501 145.509 C 181.519 146.181, 174.008 149.043, 164.500 153.511 C 161.750 154.804, 159.172 155.541, 158.770 155.151 C 158.369 154.760, 158.509 151.531, 159.081 147.975 C 159.654 144.420, 160.432 134.101, 160.811 125.044 L 161.500 108.578 164.500 107.937 C 166.150 107.584, 171.100 105.616, 175.500 103.562 C 187.527 97.949, 197.947 94.547, 199.218 95.818 C 200.640 97.240, 198.131 108.564, 195.711 111.640 C 194.027 113.781, 190.163 115.251, 178.844 118.054 C 173.220 119.447, 168 122.469, 168 124.332 C 168 128.459, 176.855 127.432, 192.500 121.490 C 201.839 117.942, 205.841 117.018, 209.067 117.663 C 214.816 118.813, 213.407 113.905, 207.250 111.332 C 205.463 110.584, 204 109.825, 204 109.643 C 204 109.462, 204.900 106.697, 206 103.500 C 207.100 100.303, 208 96.964, 208 96.081 C 208 95.197, 209.012 94.025, 210.250 93.476 C 211.725 92.822, 212.383 91.793, 212.160 90.489 C 210.966 83.514, 210.895 80.705, 211.887 79.713 C 213.368 78.232, 213.310 66.500, 211.801 62.325 C 210.378 58.392, 209.621 58.098, 200.500 57.944 C 193.218 57.822, 188.939 58.500, 175.500 61.905 C 171.100 63.020, 165.813 63.947, 163.750 63.966 L 160 64 160 57.089 L 160 50.178 164.415 48.041 C 169.700 45.483, 178.618 37.187, 182.614 31.113 C 190.719 18.791, 193.079 14.651, 192.803 13.238 C 192.536 11.872, 192.337 11.885, 191.128 13.344 M 99.362 64.500 C 99.045 65.325, 99.028 66.631, 99.324 67.403 C 99.620 68.174, 99.233 69.637, 98.463 70.653 C 97.433 72.013, 97.055 75.964, 97.032 85.628 C 97.009 94.943, 96.637 99.021, 95.750 99.671 C 95.063 100.175, 92.090 101.417, 89.145 102.432 C 83.539 104.363, 82.073 103.864, 82.004 100 C 81.989 99.175, 81.829 91.975, 81.647 84 C 81.440 74.892, 81.713 68.858, 82.383 67.775 C 83.149 66.537, 83.128 65.728, 82.312 64.912 C 80.823 63.423, 79 64.604, 79 67.059 C 79 68.437, 78.309 69, 76.619 69 L 74.237 69 74.257 92.250 C 74.273 110.419, 73.923 116.920, 72.654 122 C 70.210 131.786, 63.342 147.634, 58.361 154.982 C 57.062 156.897, 56 159.118, 56 159.918 C 56 160.717, 55.061 162.370, 53.914 163.591 C 52.204 165.412, 52.030 166.188, 52.950 167.906 C 53.566 169.058, 54.922 170, 55.964 170 C 57.942 170, 61 167.528, 61 165.929 C 61 165.418, 61.436 165, 61.969 165 C 62.501 165, 62.696 165.629, 62.400 166.399 C 61.590 168.510, 63.403 169.104, 66.918 167.879 C 69.357 167.028, 69.930 166.356, 69.465 164.891 C 69.040 163.550, 69.353 163, 70.540 163 C 71.617 163, 72.009 163.535, 71.638 164.500 C 70.789 166.714, 73.688 166.337, 79.500 163.478 C 84.065 161.232, 84.246 161.017, 81.583 161.009 C 78.173 160.998, 78.407 160.348, 82 159.848 C 83.375 159.657, 84.837 159.050, 85.249 158.500 C 85.660 157.950, 85.785 158.850, 85.526 160.500 C 85.266 162.150, 84.563 167.527, 83.964 172.448 C 83.364 177.370, 82.657 181.745, 82.394 182.171 C 82.131 182.597, 81.011 186.445, 79.906 190.723 C 78.006 198.079, 75.038 207.074, 73.051 211.500 C 72.557 212.600, 71.364 216.200, 70.399 219.500 C 69.435 222.800, 66.763 229.570, 64.462 234.543 C 60.009 244.171, 57.206 247, 52.119 247 C 48.627 247, 47.982 248.332, 49.336 252.744 C 51.371 259.375, 59.495 255.976, 66.508 245.559 C 71.914 237.531, 76.703 225.352, 87.009 193.429 C 87.554 191.740, 88 189.602, 88 188.679 C 88 184.422, 93.136 188.772, 96.939 196.250 C 98.627 199.568, 100 199.808, 100 196.786 C 100 194.710, 100.106 194.677, 101.683 196.255 C 103.261 197.832, 103.246 198.071, 101.449 200.056 C 99.542 202.164, 99.553 202.193, 103.661 206.025 C 105.932 208.143, 107.574 210.093, 107.309 210.357 C 107.045 210.622, 107.767 211.340, 108.914 211.954 C 110.163 212.622, 111 214.060, 111 215.535 C 111 216.891, 111.460 218, 112.022 218 C 112.584 218, 114.334 220.035, 115.911 222.521 C 119.405 228.030, 125.441 233, 128.638 233 C 131.656 233, 131.700 230.689, 128.720 228.736 C 127.466 227.914, 125.127 225.275, 123.522 222.871 C 121.917 220.467, 119.758 217.600, 118.724 216.500 C 116.131 213.741, 106.016 197.752, 106.007 196.398 C 106.003 195.792, 104.749 193.987, 103.220 192.387 C 99.606 188.605, 92.781 176.380, 92.752 173.636 C 92.707 169.370, 95.058 160.592, 96.758 158.682 C 97.716 157.605, 99.982 156.097, 101.794 155.330 C 103.605 154.564, 105.341 153.276, 105.650 152.468 C 105.960 151.661, 106.986 151, 107.929 151 C 108.873 151, 112.312 149.550, 115.572 147.778 C 118.833 146.006, 123.975 144.058, 127 143.449 C 132.620 142.318, 134.834 139.777, 131.848 137.885 C 127.821 135.333, 119.201 137.827, 101.794 146.583 C 99.205 147.885, 96.873 148.603, 96.611 148.179 C 96.349 147.755, 97.004 144.771, 98.067 141.549 C 100.204 135.072, 100.775 125.613, 98.780 129.750 C 97.249 132.923, 96.267 132.544, 96.789 128.983 C 97.097 126.887, 97.729 126.047, 98.861 126.233 C 100.209 126.454, 100.632 125.031, 101.311 118 C 101.762 113.325, 102.721 108.587, 103.444 107.471 C 104.968 105.116, 114.020 102, 119.338 102 C 123.053 102, 123.505 101.479, 122.364 98.505 C 121.276 95.671, 117.665 95.023, 111.357 96.530 C 108.136 97.299, 105.162 97.945, 104.750 97.964 C 104.338 97.984, 104 90.125, 104 80.500 C 104 63.577, 103.933 63, 101.969 63 C 100.851 63, 99.678 63.675, 99.362 64.500 M 187.372 64.685 C 187.459 65.737, 185.898 66.663, 182.500 67.573 C 176.448 69.194, 173.671 69.342, 174.500 68 C 174.861 67.415, 173.828 67, 172.011 67 C 169.945 67, 168.092 67.876, 166.479 69.617 C 165.005 71.208, 163.444 72.001, 162.499 71.638 C 161.131 71.113, 160.979 72.742, 161.223 85.258 C 161.553 102.215, 161.367 102.039, 172.773 96.201 C 181.219 91.878, 188.594 89.493, 196.835 88.416 C 202.896 87.625, 202.897 87.624, 205.484 76.248 C 208.064 64.902, 206.260 62.568, 196.304 64.373 C 192.414 65.078, 190.298 65.043, 189.031 64.252 C 187.599 63.357, 187.270 63.443, 187.372 64.685 M 169.446 69.087 C 169.077 69.685, 169.294 70.694, 169.929 71.329 C 170.801 72.201, 171.301 72.131, 171.976 71.039 C 172.929 69.497, 172.448 68, 171 68 C 170.515 68, 169.816 68.489, 169.446 69.087 M 184 96.500 C 183.306 97.337, 183.197 98, 183.755 98 C 184.305 98, 185.315 97.325, 186 96.500 C 186.694 95.663, 186.803 95, 186.245 95 C 185.695 95, 184.685 95.675, 184 96.500 M 89.813 106.683 C 90.534 106.972, 91.397 106.936, 91.729 106.604 C 92.061 106.272, 91.471 106.036, 90.417 106.079 C 89.252 106.127, 89.015 106.364, 89.813 106.683 M 90 110 C 89.175 110.533, 87.023 110.976, 85.219 110.985 C 83.414 110.993, 81.789 111.563, 81.608 112.250 C 81.427 112.938, 80.517 117.505, 79.585 122.399 C 78.653 127.294, 76.790 133.365, 75.445 135.891 C 74.100 138.417, 73 140.873, 73 141.348 C 73 141.823, 70.975 145.813, 68.500 150.214 C 64.041 158.143, 63.104 161, 64.962 161 C 65.492 161, 68.304 160.123, 71.212 159.050 C 74.121 157.978, 78.624 156.578, 81.220 155.939 C 83.816 155.301, 86.509 154.092, 87.205 153.253 C 89.842 150.075, 93.786 128.620, 93.916 116.750 C 94.002 108.800, 93.417 107.792, 90 110 M 196.500 147 C 196.160 147.550, 196.557 148, 197.382 148 C 198.207 148, 199.160 147.550, 199.500 147 C 199.840 146.450, 199.443 146, 198.618 146 C 197.793 146, 196.840 146.450, 196.500 147 M 99.500 152 C 99.160 152.550, 99.359 153, 99.941 153 C 100.523 153, 101 152.550, 101 152 C 101 151.450, 100.802 151, 100.559 151 C 100.316 151, 99.840 151.450, 99.500 152 M 75.813 161.683 C 76.534 161.972, 77.397 161.936, 77.729 161.604 C 78.061 161.272, 77.471 161.036, 76.417 161.079 C 75.252 161.127, 75.015 161.364, 75.813 161.683 M 88.697 164.393 C 88.288 165.434, 88.189 166.522, 88.476 166.810 C 89.389 167.722, 90.191 166.227, 89.809 164.328 C 89.459 162.588, 89.405 162.591, 88.697 164.393 M 219 172 C 216.876 172.680, 217.140 172.816, 220.750 172.900 C 223.088 172.955, 225 172.550, 225 172 C 225 170.847, 222.599 170.847, 219 172 M 192.438 177.705 C 191.412 178.731, 191.162 179.554, 191.811 179.770 C 193.225 180.242, 197 178.201, 197 176.965 C 197 175.414, 194.289 175.854, 192.438 177.705 M 180 184 C 180 184.550, 180.450 185, 181 185 C 181.550 185, 182 184.550, 182 184 C 182 183.450, 181.550 183, 181 183 C 180.450 183, 180 183.450, 180 184 M 154 186.941 C 154 188.073, 154.450 189, 155 189 C 155.550 189, 156 188.352, 156 187.559 C 156 186.766, 155.550 185.840, 155 185.500 C 154.450 185.160, 154 185.809, 154 186.941 M 192.459 204.812 C 192.843 206.562, 192.676 208.082, 192.059 208.464 C 190.397 209.490, 190.751 210.337, 194.590 214.529 C 196.565 216.685, 198.820 219.684, 199.601 221.195 C 201.290 224.461, 204.785 226.615, 206.163 225.237 C 207.359 224.041, 206.256 219.457, 204.402 217.919 C 203.631 217.279, 203 216.196, 203 215.512 C 203 214.829, 202.003 213.002, 200.784 211.452 C 199.565 209.902, 197.877 207.255, 197.034 205.570 C 196.190 203.885, 194.668 202.350, 193.650 202.160 C 192.075 201.866, 191.898 202.260, 192.459 204.812 M 215.036 203.938 C 212.767 205.682, 212.681 206.036, 213.955 208.416 C 215.487 211.278, 217 211.817, 217 209.500 C 217 208.675, 217.423 208, 217.941 208 C 219.584 208, 220.215 210.036, 219.019 211.477 C 218.121 212.559, 218.323 213.323, 219.933 214.933 C 222.327 217.327, 224.472 217.672, 223.651 215.532 C 223.341 214.725, 223.467 213.830, 223.930 213.543 C 225.030 212.863, 227.466 215.820, 227.485 217.859 C 227.505 219.930, 232.596 221.804, 234.104 220.296 C 236.046 218.354, 234.115 215.464, 228.525 211.941 C 225.522 210.049, 222.272 207.037, 221.305 205.250 C 219.278 201.507, 218.430 201.330, 215.036 203.938 M 170.300 210.271 C 169.860 210.970, 168.262 212.085, 166.750 212.750 C 165.238 213.414, 164.033 214.529, 164.073 215.229 C 164.204 217.508, 173.545 231.329, 177.355 234.882 C 180.576 237.885, 187.242 238.440, 187.790 235.750 C 188.030 234.572, 187.525 234, 186.248 234 C 182.058 234, 174.056 221.938, 173.284 214.459 C 172.725 209.051, 171.845 207.815, 170.300 210.271 M 133.547 212.924 C 132.615 214.432, 134.803 221.730, 137.436 225.891 C 139.773 229.585, 148.338 238.012, 149.728 237.985 C 152.920 237.921, 153.957 233.009, 150.781 232.994 C 149.577 232.988, 147.597 230.171, 144.259 223.717 C 143.468 222.186, 142.748 219.036, 142.660 216.717 C 142.501 212.515, 142.485 212.499, 138.342 212.197 C 136.055 212.030, 133.897 212.357, 133.547 212.924 M 206.193 261.091 C 207.255 264.308, 217 266.599, 217 263.632 C 217 262.812, 215.497 262.050, 213.250 261.730 C 211.188 261.437, 208.651 260.856, 207.614 260.439 C 206.229 259.883, 205.851 260.056, 206.193 261.091" stroke="none" fill="black" fill-rule="evenodd"/>
</svg>