<svg xmlns="http://www.w3.org/2000/svg" width="300" height="300" viewBox="0 0 300 300" version="1.1">
	<path d="M 190.250 21.175 C 188.148 22.475, 187 23.976, 187 25.425 C 187 28.403, 186.006 29.250, 184.237 27.782 C 183.059 26.804, 182.259 27.222, 179.922 30.041 C 178.345 31.943, 177.042 33.941, 177.027 34.481 C 176.992 35.767, 156.305 55.606, 152.750 57.763 C 149.927 59.476, 148.839 64, 151.250 64 C 152.171 64, 152.557 67.257, 152.717 76.372 C 152.837 83.177, 153.431 90.939, 154.038 93.622 C 154.694 96.519, 155.310 114.138, 155.557 137 C 155.785 158.175, 155.978 175.838, 155.986 176.250 C 156.013 177.689, 169.531 177.066, 171.559 175.532 C 172.626 174.724, 174.218 174.049, 175.096 174.032 C 175.974 174.014, 177.999 173.354, 179.596 172.565 C 181.193 171.776, 185.650 171.050, 189.500 170.951 C 197.047 170.758, 206.837 169.170, 208.574 167.859 C 209.164 167.413, 211.189 167.077, 213.074 167.112 C 216.460 167.176, 220.331 166.476, 233 163.509 C 236.575 162.672, 242.875 161.528, 247 160.967 C 251.125 160.407, 255.778 159.519, 257.340 158.995 C 259.425 158.295, 260.940 158.435, 263.040 159.521 C 264.613 160.334, 266.589 161, 267.430 161 C 271.709 161, 274.934 177.169, 272.914 188.500 C 271.603 195.856, 271.449 197.407, 270.504 212.695 L 269.750 224.891 266.178 226.586 C 264.213 227.518, 259.972 231.006, 256.752 234.338 L 250.899 240.394 246.200 238.591 C 239.158 235.891, 235.081 235.049, 229 235.039 C 222.082 235.028, 220.371 235.956, 221.932 238.873 C 222.830 240.551, 224.006 241, 227.501 241 C 231.692 241, 235.647 242.266, 242.500 245.802 C 244.150 246.653, 245.725 247.608, 246 247.925 C 247.398 249.533, 252.853 250.664, 254.618 249.712 C 259.729 246.954, 274.926 234.807, 275.491 233.028 C 275.845 231.913, 276.503 231, 276.953 231 C 278.649 231, 281.001 223.998, 281.035 218.849 C 281.054 215.907, 281.720 209.900, 282.515 205.500 C 284.188 196.242, 284.546 167.455, 283 166.500 C 282.450 166.160, 282 164.760, 282 163.389 C 282 159.307, 277.875 153.235, 274 151.614 C 267.398 148.851, 262.850 148.446, 253 149.744 C 245.552 150.725, 241.599 152.512, 242.379 154.545 C 242.672 155.310, 242.482 156.202, 241.956 156.527 C 241.430 156.852, 241 156.148, 241 154.963 C 241 152.985, 240.607 152.850, 236.250 153.324 C 233.637 153.608, 229.250 154.348, 226.500 154.969 C 223.750 155.589, 220.375 156.211, 219 156.351 C 217.625 156.491, 215.825 156.890, 215 157.236 C 214.175 157.583, 209.225 158.140, 204 158.473 C 193.466 159.146, 191.514 159.352, 185.038 160.474 C 180.481 161.264, 179.834 161.499, 174.346 164.357 C 170.611 166.302, 166.046 166.514, 165.889 164.750 C 165.412 159.362, 168.215 155, 172.153 155 C 173.169 155, 174 154.570, 174 154.045 C 174 153.520, 175.580 152.794, 177.511 152.432 C 179.442 152.070, 181.269 151.374, 181.570 150.887 C 181.871 150.399, 183.014 150, 184.109 150 C 185.204 150, 187.381 149.337, 188.947 148.527 C 190.514 147.717, 194.687 146.845, 198.222 146.590 C 201.757 146.334, 207.090 145.197, 210.074 144.063 C 213.059 142.929, 216.850 142.001, 218.500 142 C 220.150 141.999, 223.975 141.047, 227 139.884 C 230.025 138.720, 234.520 137.258, 236.989 136.634 C 240.342 135.787, 241.819 134.786, 242.828 132.677 C 244.015 130.197, 243.965 129.619, 242.422 127.914 C 240.419 125.700, 236.410 126.032, 229.500 128.982 C 222.703 131.885, 218.764 132.894, 211.500 133.594 C 207.650 133.965, 204.050 134.597, 203.500 134.999 C 202.950 135.401, 200.700 135.999, 198.500 136.328 C 196.300 136.657, 191.350 137.865, 187.500 139.012 C 183.650 140.158, 178.475 141.333, 176 141.621 C 173.525 141.910, 170.488 142.639, 169.252 143.241 C 168.015 143.844, 166.824 144.148, 166.605 143.918 C 166.063 143.348, 165.636 134.651, 165.836 128.250 C 165.959 124.323, 166.378 123, 167.500 123 C 168.325 123, 169 123.441, 169 123.981 C 169 126.989, 183.131 125.313, 194 121.015 C 196.475 120.037, 200.654 118.928, 203.286 118.551 C 207.480 117.951, 208.293 118.141, 209.867 120.084 C 212.240 123.015, 216.403 122.055, 218.445 118.107 C 220.046 115.010, 221.802 114, 225.582 114 C 227.618 114, 228 113.512, 228 110.908 C 228 109.207, 227.136 106.717, 226.079 105.374 C 224.491 103.355, 224.334 102.376, 225.170 99.716 C 229.545 85.802, 231.242 69.745, 228.828 65.111 C 225.277 58.292, 221.353 56.770, 206 56.255 C 194.010 55.853, 187.150 56.535, 178.500 58.991 C 176.300 59.615, 172.587 60.584, 170.250 61.144 C 167.912 61.704, 165.350 63.090, 164.555 64.225 C 163.134 66.254, 163.099 66.242, 162.410 63.497 C 161.775 60.967, 162.355 60.139, 168.605 54.650 C 181.484 43.340, 191.244 32.626, 194.475 26.251 C 196.204 22.842, 196.572 21.189, 195.809 20.270 C 194.488 18.678, 194.219 18.721, 190.250 21.175 M 171.638 44.500 C 171.288 45.414, 171.637 46, 172.531 46 C 173.339 46, 174 45.325, 174 44.500 C 174 43.675, 173.598 43, 173.107 43 C 172.616 43, 171.955 43.675, 171.638 44.500 M 100.679 46.244 C 99.447 47.146, 98.583 49.665, 98.006 54.038 C 96.838 62.894, 95.901 66.943, 94.871 67.580 C 94.392 67.876, 94 70.286, 94 72.937 C 94 76, 93.454 78.209, 92.500 79 C 91.675 79.685, 91 81.728, 91 83.541 C 91 85.354, 90.348 88.112, 89.551 89.669 C 88.754 91.226, 87.893 93.223, 87.637 94.107 C 87.074 96.054, 79.453 97.313, 76.805 95.896 C 75.812 95.364, 75 93.872, 75 92.579 C 75 91.286, 74.328 88.940, 73.506 87.364 C 72.685 85.789, 72.010 83.008, 72.006 81.184 C 72.003 79.361, 71.452 76.886, 70.782 75.684 C 70.111 74.483, 69.324 69.225, 69.032 64 L 68.500 54.500 63.862 54.200 L 59.224 53.900 58.006 58.977 C 56.782 64.079, 56.946 66.896, 58.928 74.750 C 59.517 77.088, 60.384 80.688, 60.854 82.750 C 61.323 84.813, 62.898 88.705, 64.354 91.399 C 65.809 94.093, 67 96.862, 67 97.551 C 67 99.757, 61.157 100.987, 53.659 100.360 C 47.211 99.821, 46.311 99.972, 44.595 101.881 C 43.547 103.046, 42.085 104, 41.345 104 C 40.517 104, 40 105.154, 40 107 C 40 109, 40.500 110, 41.500 110 C 42.325 110, 43 110.502, 43 111.116 C 43 111.889, 45.081 112.044, 49.750 111.620 C 53.462 111.283, 60.100 110.726, 64.500 110.382 C 68.900 110.038, 72.965 109.388, 73.534 108.936 C 74.102 108.484, 75.191 108.500, 75.954 108.971 C 77.670 110.032, 78.341 134.671, 76.681 135.697 C 74.896 136.800, 58.333 140.207, 55.266 140.102 C 52.225 139.997, 51.967 141.557, 51.809 161 C 51.683 176.492, 53.193 193.618, 54.982 197 C 55.572 198.113, 57.223 198.433, 61.388 198.241 C 66.445 198.007, 67 198.182, 67 200.011 C 67 202.256, 63.189 208.768, 60.636 210.887 C 59.736 211.634, 59 212.670, 59 213.189 C 59 214.161, 54.450 220.721, 52.542 222.500 C 51.952 223.050, 49.911 225.525, 48.007 228 C 46.104 230.475, 42.853 234.300, 40.784 236.500 C 36.012 241.574, 35.747 245.088, 40.014 246.699 C 42.840 247.766, 43.298 247.577, 47.371 243.668 C 49.759 241.376, 52.641 237.700, 53.775 235.500 C 55.859 231.458, 59.195 228, 61.011 228 C 61.555 228, 62 227.528, 62 226.950 C 62 226.373, 63.562 224.292, 65.472 222.326 C 67.382 220.359, 69.212 217.907, 69.540 216.875 C 69.867 215.844, 70.506 215, 70.959 215 C 71.412 215, 72.093 213.767, 72.471 212.260 C 72.849 210.753, 73.460 209.291, 73.829 209.010 C 74.198 208.730, 75.344 206.839, 76.376 204.809 C 78.105 201.406, 80.650 199.316, 81.738 200.405 C 82.480 201.147, 82.551 238.372, 81.840 254.141 L 81.181 268.783 84.549 272.048 C 87.383 274.794, 88.163 275.110, 89.459 274.034 C 90.307 273.331, 91 271.775, 91 270.578 C 91 269.380, 91.499 267.901, 92.108 267.292 C 92.805 266.595, 93.154 262.163, 93.047 255.342 C 92.749 236.254, 91.988 204.723, 91.652 197.500 C 91.185 187.469, 92.282 185.982, 103.500 181.435 C 107.237 179.920, 121.465 178.235, 122.500 179.185 C 123.837 180.411, 123.564 212.516, 122.192 215.341 C 121.616 216.529, 120.875 219.142, 120.546 221.150 C 119.760 225.938, 117.864 227.557, 115.078 225.817 C 113.935 225.103, 113 224.177, 113 223.759 C 113 223.342, 112.405 223, 111.678 223 C 110.951 223, 108.589 221.663, 106.428 220.028 C 102.299 216.904, 99.079 216.145, 98.885 218.250 C 98.571 221.658, 99.501 223.736, 102.680 226.734 C 107.848 231.609, 109.806 232.442, 112.591 230.951 C 115.354 229.473, 117.684 230.833, 118.190 234.220 C 118.360 235.362, 119.271 236.779, 120.213 237.369 C 121.604 238.241, 122.474 237.829, 124.846 235.173 C 128.187 231.431, 130.056 226.703, 132.467 215.900 C 134.587 206.399, 134.388 172.371, 132.197 169.734 C 129.794 166.844, 105.833 169.226, 98.764 173.059 C 97.809 173.576, 95.671 174, 94.014 174 L 91 174 91 159.200 C 91 149.022, 91.375 144.025, 92.200 143.200 C 92.958 142.442, 96.758 142, 102.511 142 C 110.355 142, 111.933 141.711, 113.854 139.921 C 115.292 138.582, 115.874 137.178, 115.491 135.973 C 115.075 134.662, 116.036 132.957, 118.699 130.277 C 120.789 128.173, 123.354 124.662, 124.397 122.476 C 125.441 120.289, 126.628 117.798, 127.037 116.940 C 128.492 113.882, 130.128 103.979, 129.503 102.009 C 129.153 100.907, 127.659 99.717, 126.183 99.364 C 124.708 99.012, 122.898 98.248, 122.162 97.667 C 121.361 97.033, 116.061 96.678, 108.961 96.782 C 95.206 96.983, 93.345 96.197, 95.302 91.011 C 95.927 89.355, 96.905 88, 97.475 88 C 99.017 88, 101.078 82.698, 101.905 76.603 C 102.307 73.643, 103.351 70.506, 104.226 69.631 C 105.101 68.756, 106.139 66.118, 106.531 63.770 C 106.924 61.421, 107.701 59.210, 108.259 58.857 C 109.946 57.786, 110.417 48.591, 108.851 47.292 C 106.495 45.336, 102.602 44.836, 100.679 46.244 M 188.469 66.051 C 188.146 66.573, 186.446 67.014, 184.691 67.032 C 182.936 67.049, 180.626 67.724, 179.559 68.532 C 178.491 69.339, 176.873 70, 175.963 70 C 175.052 70, 172.855 70.725, 171.079 71.610 C 169.304 72.496, 166.718 73.284, 165.334 73.360 C 162.820 73.500, 162.818 73.509, 163.335 81.500 C 163.620 85.900, 164.309 91.750, 164.867 94.500 C 165.424 97.250, 165.908 103.662, 165.940 108.750 C 165.987 116.036, 166.301 118, 167.417 118 C 168.196 118, 168.997 117.510, 169.196 116.912 C 169.395 116.314, 171.570 115.431, 174.029 114.951 C 176.488 114.470, 181.650 113.358, 185.500 112.479 C 189.350 111.601, 196.751 110.016, 201.947 108.958 C 207.143 107.900, 211.923 106.464, 212.570 105.767 C 213.970 104.256, 217 95.404, 217 92.822 C 217 90.564, 214.255 90.449, 209.346 92.500 C 207.371 93.325, 204.830 94, 203.699 94 C 202.568 94, 200.260 94.435, 198.571 94.967 C 196.882 95.499, 192.800 96.698, 189.500 97.631 C 186.200 98.564, 182.288 99.927, 180.806 100.660 C 177.800 102.148, 175.165 101.447, 171 98.053 C 168.882 96.326, 168.729 95.865, 170 95.034 C 171.084 94.325, 171.590 94.462, 171.823 95.526 C 172.001 96.337, 172.747 97, 173.480 97 C 174.276 97, 174.621 96.268, 174.337 95.180 C 174.075 94.179, 174.455 92.905, 175.180 92.348 C 177.426 90.626, 189.770 87.025, 196.890 86.016 C 207.444 84.519, 216.180 82.249, 217.862 80.566 C 219.658 78.771, 219.730 72.732, 217.994 69.490 C 217.016 67.661, 215.592 67.124, 210.149 66.531 C 198.648 65.277, 189.078 65.065, 188.469 66.051 M 157.510 73.016 C 157.856 73.575, 158.557 73.774, 159.069 73.457 C 160.456 72.600, 160.198 72, 158.441 72 C 157.584 72, 157.165 72.457, 157.510 73.016 M 104 100.500 C 104 101.325, 104.675 102, 105.500 102 C 106.325 102, 107 101.325, 107 100.500 C 107 99.675, 106.325 99, 105.500 99 C 104.675 99, 104 99.675, 104 100.500 M 65 106 C 65 106.550, 65.900 107, 67 107 C 68.100 107, 69 106.550, 69 106 C 69 105.450, 68.100 105, 67 105 C 65.900 105, 65 105.450, 65 106 M 103 107.151 C 99.425 107.641, 94.597 107.782, 92.272 107.463 L 88.043 106.884 88.272 120.192 L 88.500 133.500 91 133.333 C 102.924 132.535, 110 130.203, 110 127.071 C 110 126.482, 110.441 126, 110.981 126 C 111.520 126, 112.254 124.835, 112.612 123.411 C 112.969 121.988, 114.326 118.725, 115.626 116.161 C 118.033 111.418, 118.600 108.460, 117.250 107.690 C 115.312 106.585, 108.896 106.342, 103 107.151 M 78 118.941 C 78 120.073, 78.450 121, 79 121 C 79.550 121, 80 120.352, 80 119.559 C 80 118.766, 79.550 117.840, 79 117.500 C 78.450 117.160, 78 117.809, 78 118.941 M 81.548 119.250 C 81.129 120.213, 81.129 121.787, 81.548 122.750 C 82.273 124.417, 82.329 124.417, 82.728 122.750 C 82.958 121.787, 82.958 120.213, 82.728 119.250 C 82.329 117.583, 82.273 117.583, 81.548 119.250 M 69.823 147.709 C 66.414 148.231, 65.378 149.524, 63.949 155.039 C 60.972 166.529, 61.013 183.654, 64.022 185.513 C 65.055 186.152, 76.603 182.350, 78.838 180.636 C 79.876 179.839, 80.100 176.326, 79.838 164.956 C 79.417 146.719, 79.162 146.280, 69.823 147.709 M 82.124 149.768 C 80.990 151.887, 81.534 155, 83.040 155 C 84.409 155, 85.187 151.157, 84.182 149.360 C 83.330 147.839, 83.136 147.878, 82.124 149.768 M 214.667 160.667 C 212.285 163.048, 215.585 163.781, 218.559 161.532 C 220.428 160.118, 220.404 160.062, 217.917 160.032 C 216.496 160.014, 215.033 160.300, 214.667 160.667 M 193 165.617 C 193 166.805, 193.596 167.074, 195.250 166.630 C 196.488 166.299, 198.287 166.021, 199.250 166.014 C 200.213 166.006, 201 165.550, 201 165 C 201 164.450, 199.200 164, 197 164 C 193.983 164, 193 164.397, 193 165.617 M 231.750 181.680 C 227.571 182.795, 232.376 193, 237.080 193 C 238.018 193, 239.045 193.675, 239.362 194.500 C 239.678 195.325, 240.616 196, 241.446 196 C 242.275 196, 243.691 197.125, 244.592 198.500 C 246.538 201.470, 248.100 201.652, 250.345 199.171 C 253.664 195.504, 251.645 191.099, 244.136 185.621 C 239.487 182.230, 235.019 180.808, 231.750 181.680 M 146.994 191.315 C 144.671 192.474, 144.604 192.824, 144.886 202.486 C 145.045 207.972, 145.527 213.144, 145.956 213.980 C 146.386 214.816, 147.033 217.143, 147.395 219.152 C 148.289 224.106, 154.279 235.429, 156.203 235.800 C 160.137 236.559, 162.392 230.222, 159.532 226.441 C 158.724 225.374, 158.030 222.925, 157.988 221 C 157.946 219.075, 157.264 215.700, 156.471 213.500 C 155.675 211.290, 155.023 205.904, 155.015 201.466 C 155.001 193.731, 154.895 193.369, 152.197 191.775 C 149.904 190.421, 148.957 190.337, 146.994 191.315 M 200.249 192.972 C 199.005 194.965, 199.798 198.129, 202.493 201.915 C 204.411 204.610, 212.282 212, 213.234 212 C 213.761 212, 215.499 212.931, 217.097 214.069 C 220.921 216.792, 224.409 216.307, 224.783 213 C 225.003 211.053, 223.300 208.649, 217.087 202.135 C 206.646 191.186, 202.704 189.041, 200.249 192.972 M 172.571 196.571 C 170.626 198.517, 170.573 201.658, 172.427 205.212 C 175.720 211.524, 177.631 214.590, 179.750 216.962 C 180.988 218.346, 182 219.962, 182 220.551 C 182 221.719, 184.227 224.238, 188.364 227.750 C 193.003 231.687, 198 230.245, 198 224.969 C 198 223.265, 197.207 221.913, 195.750 221.131 C 194.512 220.468, 191.948 217.017, 190.052 213.462 C 188.155 209.908, 186.236 207, 185.786 207 C 185.336 207, 184.192 205.313, 183.245 203.250 C 181.283 198.980, 177.556 195, 175.520 195 C 174.763 195, 173.436 195.707, 172.571 196.571 M 84.340 205.555 C 84.012 206.411, 84.221 208.098, 84.804 209.305 C 85.758 211.280, 85.871 211.124, 85.932 207.750 C 86.003 203.821, 85.351 202.922, 84.340 205.555 M 64 210.514 C 64 211.346, 63.455 212.901, 62.788 213.968 C 61.292 216.364, 62.499 217.803, 64.798 216.364 C 67.092 214.928, 67.708 209, 65.563 209 C 64.704 209, 64 209.681, 64 210.514" stroke="none" fill="black" fill-rule="evenodd"/>
</svg>