<svg xmlns="http://www.w3.org/2000/svg" width="300" height="300" viewBox="0 0 300 300" version="1.1">
	<path d="M 162 28.874 C 161.175 29.814, 158.700 34.386, 156.500 39.035 C 152.401 47.697, 144.226 61.047, 139.598 66.637 C 135.508 71.576, 136.818 73.917, 141.741 70.469 C 143.781 69.040, 156.357 53.219, 160.232 47.205 C 161.587 45.104, 162.616 44.586, 164.955 44.831 C 167.143 45.061, 168.677 44.414, 170.672 42.419 C 172.276 40.815, 173.556 40.168, 173.782 40.847 C 173.994 41.481, 175.479 42, 177.083 42 C 180.314 42, 180.975 43.946, 178.456 46.037 C 177.607 46.741, 174.825 51.065, 172.275 55.645 C 169.725 60.225, 166.410 65.149, 164.908 66.588 L 162.179 69.203 160.817 66.851 C 160.068 65.558, 158.983 63.627, 158.406 62.560 C 156.662 59.333, 155.277 59.710, 154.545 63.610 C 154 66.519, 154.294 67.906, 155.926 70.114 C 158.340 73.379, 158.567 75.575, 156.607 76.700 C 154.271 78.042, 137 99.879, 137 101.491 C 137 103.673, 141.635 103.398, 143.750 101.091 C 153.483 90.473, 158.615 84.440, 159.194 82.935 C 159.575 81.943, 160.817 80.633, 161.954 80.025 C 163.696 79.092, 164.423 79.354, 166.591 81.692 C 168.004 83.218, 170.278 84.923, 171.644 85.483 C 173.010 86.042, 175.561 87.775, 177.314 89.333 C 184.981 96.150, 198.252 106.003, 199.805 106.031 C 200.737 106.048, 203.300 107.171, 205.500 108.526 C 207.700 109.881, 210.077 110.992, 210.781 110.995 C 212.976 111.004, 213.372 107.996, 211.375 106.484 C 209.187 104.826, 207.611 104.561, 208.500 106 C 209.819 108.134, 204.163 106.868, 201.406 104.411 C 198.537 101.856, 198.532 101.832, 201 102.544 C 202.375 102.940, 203.650 103.655, 203.833 104.132 C 204.256 105.231, 206 105.273, 206 104.184 C 206 103.735, 204.209 102.362, 202.020 101.131 C 199.830 99.901, 197.468 98.103, 196.770 97.136 C 195.365 95.191, 182.153 84.729, 174.768 79.714 C 169 75.797, 168.789 73.874, 173.453 67.766 C 180.075 59.093, 188 44.700, 188 41.346 C 188 37.495, 187.344 37.255, 176.598 37.180 C 168.665 37.125, 166.591 36.228, 167.702 33.333 C 168.246 31.917, 165.478 26.940, 164.227 27.083 C 163.827 27.129, 162.825 27.935, 162 28.874 M 97.577 49.660 C 97.124 50.840, 97.620 51.959, 99.087 53.066 C 100.547 54.167, 100.895 54.947, 100.136 55.416 C 98.552 56.395, 98.712 66.599, 100.353 69.285 C 101.097 70.503, 102.268 74.200, 102.954 77.500 C 103.640 80.800, 105.067 86.530, 106.125 90.234 C 107.804 96.114, 108.330 96.938, 110.272 96.734 C 112.389 96.511, 112.530 96.957, 113.189 106 C 113.570 111.225, 114.390 117.750, 115.011 120.500 C 115.631 123.250, 115.995 129.775, 115.819 135 L 115.500 144.500 109.500 145.089 C 106.200 145.413, 101.509 146.647, 99.076 147.832 C 96.643 149.017, 94.423 149.756, 94.142 149.475 C 93.861 149.194, 94.155 146.835, 94.795 144.232 C 97.016 135.199, 97.200 129.726, 95.508 123 C 94.609 119.425, 93.789 115.381, 93.687 114.013 C 93.480 111.253, 90 109.756, 90 112.427 C 90 113.333, 89.153 114, 88 114 C 85.452 114, 85.458 116.210, 88.022 121.859 C 89.635 125.414, 90 128.398, 90 138.027 C 90 150.534, 89.584 153, 87.476 153 C 85.725 153, 85.064 155.099, 86.150 157.213 C 87.202 159.260, 87.628 159.136, 99.709 153.289 C 104.774 150.837, 109.406 149.133, 110.003 149.502 C 110.599 149.870, 111.674 149.686, 112.390 149.091 C 113.107 148.496, 115.675 148.215, 118.097 148.465 C 120.518 148.716, 123.971 148.451, 125.769 147.877 C 128.837 146.897, 134.101 146.312, 141.833 146.094 C 144 146.033, 145.023 145.569, 144.756 144.768 C 144.469 143.908, 141.203 143.502, 133.923 143.423 L 123.500 143.308 122.829 131.904 C 122.460 125.632, 122.351 119.797, 122.587 118.938 C 122.950 117.615, 132.064 112.810, 138.333 110.635 C 139.341 110.285, 139.982 109.437, 139.756 108.749 C 139.297 107.351, 132 106.394, 132 107.733 C 132 108.843, 121.189 112.523, 120.361 111.695 C 120.013 111.347, 119.678 107.111, 119.615 102.281 C 119.521 94.986, 119.851 92.957, 121.566 90.289 C 123.745 86.900, 127.331 83.767, 130.250 82.702 C 132.380 81.924, 132.557 79.151, 130.525 78.371 C 129.356 77.923, 129.178 76.591, 129.664 71.939 C 130.137 67.415, 129.903 65.501, 128.641 63.575 C 126.715 60.636, 119.934 58.430, 117.247 59.868 C 116.278 60.386, 113.517 60.966, 111.111 61.155 C 106.817 61.494, 106.712 61.428, 105.351 57.548 C 104.589 55.375, 103.575 53.350, 103.098 53.048 C 102.621 52.747, 102.062 51.605, 101.854 50.511 C 101.369 47.953, 98.455 47.372, 97.577 49.660 M 113.028 66.609 C 108.400 69.929, 108.162 70.458, 109.104 75.321 C 109.549 77.619, 109.932 81.412, 109.956 83.750 C 109.980 86.088, 110.434 88, 110.965 88 C 115.015 88, 123.740 74.613, 124.268 67.590 C 124.489 64.641, 124.318 64.491, 120.500 64.309 C 117.619 64.171, 115.529 64.815, 113.028 66.609 M 152.425 104.336 C 152.143 105.070, 152.551 107.658, 153.332 110.086 C 155.095 115.567, 156.595 121.711, 158.071 129.500 C 159.455 136.803, 161.217 139, 165.687 139 C 171.340 139, 175.283 136.608, 182.294 128.927 C 188.369 122.270, 190.327 119, 188.237 119 C 187.817 119, 186.926 116.694, 186.256 113.876 C 184.750 107.534, 183.757 106.307, 178.970 104.873 C 175.676 103.886, 174.583 104.024, 170.670 105.918 C 168.192 107.118, 164.552 108.361, 162.582 108.680 C 159.427 109.192, 159 109.012, 159 107.166 C 159 103.914, 153.496 101.545, 152.425 104.336 M 168.668 111.361 L 162.836 114.500 163.565 122.500 C 163.965 126.900, 164.302 131.063, 164.313 131.750 C 164.344 133.668, 165.746 133.271, 170.503 129.998 C 176.487 125.881, 179.048 121.921, 179.930 115.418 C 180.572 110.684, 180.426 109.763, 178.905 108.949 C 176.351 107.582, 175.176 107.859, 168.668 111.361 M 151.551 151.344 C 150.148 153.184, 148.967 155.096, 148.926 155.594 C 148.885 156.092, 146.972 159.136, 144.676 162.358 C 140.584 168.098, 139.191 169.180, 131.892 172.294 C 129.130 173.471, 128.134 174.582, 127.645 177.026 C 126.840 181.050, 127.977 206.745, 129.092 209.713 C 129.549 210.931, 130.233 216.033, 130.611 221.052 C 131.331 230.590, 132.478 232.576, 135.886 230.187 C 136.774 229.564, 138.963 228.317, 140.750 227.414 C 142.537 226.511, 144 225.428, 144 225.007 C 144 224.066, 156.523 221.907, 164 221.559 C 167.025 221.419, 170.233 220.983, 171.130 220.591 C 172.253 220.100, 173.442 220.746, 174.958 222.674 C 176.919 225.166, 177.261 225.285, 178.110 223.768 C 178.841 222.462, 180.114 222.149, 183.588 222.423 C 186.076 222.619, 188.387 223.054, 188.723 223.390 C 189.843 224.510, 192.322 224.018, 194.221 222.300 C 195.779 220.890, 196.610 220.792, 199.080 221.724 C 200.752 222.355, 204.423 222.605, 207.441 222.294 C 210.401 221.988, 214.093 222.058, 215.647 222.448 C 218.101 223.064, 218.244 223.284, 216.736 224.128 C 215.243 224.963, 215 226.730, 215 236.739 C 215 252.059, 212.907 263.275, 207.837 275.129 C 205.074 281.591, 199.429 284.534, 191.662 283.563 C 185.831 282.835, 184.181 283.713, 185.833 286.666 C 187.010 288.770, 194.725 290.808, 198.027 289.888 C 199.387 289.509, 201.871 289.155, 203.547 289.100 C 210.080 288.886, 217.658 276.395, 219.985 262.005 C 220.475 258.977, 221.605 254.025, 222.498 251 C 224.929 242.758, 224.188 228.981, 220.964 222.473 L 218.500 217.500 206.500 217.997 C 199.900 218.271, 190.900 218.426, 186.500 218.342 C 156.551 217.771, 154.228 217.830, 148 219.308 C 144.425 220.157, 140.488 221.162, 139.250 221.542 C 137.273 222.149, 137 221.879, 137 219.317 C 137 216.059, 138.567 214, 141.046 214 C 141.952 214, 144.224 213.217, 146.096 212.260 C 148.073 211.250, 152.015 210.465, 155.500 210.388 C 166.850 210.138, 180 208.786, 180 207.869 C 180 205.604, 174.539 205.276, 157.463 206.518 C 147.584 207.236, 138.600 207.976, 137.500 208.162 C 135.744 208.459, 135.531 208.011, 135.755 204.500 C 135.895 202.300, 135.332 196.562, 134.505 191.750 C 132.075 177.620, 132.793 174.236, 137.672 176.811 C 139.056 177.541, 141.394 176.870, 147.303 174.045 C 152.543 171.541, 156.580 170.293, 159.593 170.247 C 162.060 170.210, 164.624 169.738, 165.289 169.198 C 165.955 168.658, 168.434 168.195, 170.798 168.170 C 174.485 168.131, 175.232 168.480, 176.048 170.627 C 176.572 172.004, 177 174.037, 177 175.145 C 177 176.816, 176.532 177.060, 174.250 176.577 C 164.485 174.511, 152.901 176.515, 141 182.329 C 136.216 184.665, 135.114 187.408, 138.180 189.342 C 140.289 190.672, 149.620 186.422, 150.548 183.708 C 150.961 182.503, 151.774 182.111, 153.031 182.510 C 154.059 182.836, 156.250 182.405, 157.900 181.552 C 161.947 179.459, 175 179.370, 175 181.435 C 175 185.331, 172.824 188.146, 168.323 190.076 C 161.788 192.877, 150.093 195.905, 144.366 196.279 C 140.252 196.547, 139.471 196.941, 138.884 199.046 C 137.466 204.129, 138.564 205.277, 142.764 203.100 C 143.719 202.604, 147.200 201.378, 150.500 200.374 C 153.800 199.370, 157.493 197.936, 158.706 197.188 C 159.919 196.440, 161.294 196.064, 161.761 196.352 C 162.228 196.641, 164.333 196.489, 166.439 196.014 C 168.826 195.475, 170.876 195.529, 171.884 196.156 C 173.147 196.943, 174.397 196.325, 177.604 193.331 C 181.840 189.377, 182.150 188.477, 183.685 175.722 C 184.347 170.216, 182.961 168.043, 176.768 164.883 C 172.636 162.773, 165.011 163.079, 157.624 165.651 C 155.493 166.393, 153.355 167, 152.874 167 C 151.702 167, 151.753 163.271, 152.934 162.541 C 153.448 162.223, 154.601 159.444, 155.496 156.364 C 158.003 147.743, 156.123 145.351, 151.551 151.344 M 94.987 239.515 C 92.541 242.463, 97.511 260.904, 102.059 265.755 C 104.585 268.449, 105.447 268.831, 107.056 267.970 C 109.402 266.714, 109.458 266.163, 107.463 263.959 C 105.786 262.106, 101 245.377, 101 241.369 C 101 240.001, 100.581 239.141, 100.069 239.457 C 99.557 239.774, 98.856 239.575, 98.510 239.016 C 97.626 237.586, 96.451 237.752, 94.987 239.515 M 120.655 239.829 C 117.844 242.935, 118.759 245.526, 125.650 253.961 C 132.153 261.922, 132.387 262.094, 136.322 261.800 C 140.390 261.497, 142.921 259, 139.161 259 C 136.531 259, 128.962 250.302, 125.579 243.392 C 124.127 240.427, 122.797 238, 122.624 238 C 122.451 238, 121.565 238.823, 120.655 239.829 M 152 245.437 C 152 247.207, 153.796 249.398, 158.557 253.437 C 165.085 258.975, 170 260.720, 170 257.500 C 170 256.675, 169.315 256, 168.479 256 C 167.642 256, 166.445 254.875, 165.818 253.500 C 165.192 252.125, 163.851 251, 162.839 251 C 161.828 251, 161 250.525, 161 249.944 C 161 248.511, 154.870 243, 153.277 243 C 152.575 243, 152 244.097, 152 245.437 M 186.465 244.057 C 185.091 246.280, 187.051 249.796, 190.605 251.483 C 195.136 253.633, 204.850 255.052, 205.694 253.686 C 206.501 252.380, 203.166 249.996, 200.559 250.015 C 198.900 250.028, 198.786 250.211, 199.971 250.961 C 202.342 252.460, 200.251 253.435, 197.426 252.148 C 196.005 251.501, 195.026 250.423, 195.249 249.752 C 195.473 249.082, 193.937 247.288, 191.836 245.767 C 187.529 242.646, 187.368 242.595, 186.465 244.057" stroke="none" fill="black" fill-rule="evenodd"/>
</svg>