<svg xmlns="http://www.w3.org/2000/svg" width="300" height="300" viewBox="0 0 300 300" version="1.1">
	<path d="M 203.559 14.510 C 202.491 15.330, 200.388 16, 198.886 16 C 195.868 16, 190 20.362, 190 22.605 C 190 24.512, 169.010 45.465, 161.689 50.866 C 158.493 53.224, 155.649 55.751, 155.368 56.483 C 155.087 57.215, 155.565 59.896, 156.429 62.442 C 157.295 64.995, 158 70.369, 158 74.428 C 158 79.782, 158.378 81.931, 159.388 82.319 C 161.227 83.024, 162.043 91, 160.276 91 C 159.374 91, 159 92.879, 159 97.418 C 159 104.355, 159.690 107.310, 161.105 106.435 C 161.597 106.131, 161.993 106.921, 161.985 108.191 C 161.972 110.049, 161.780 110.207, 161 109 C 160.322 107.950, 160.026 109.544, 160.015 114.309 C 160.006 118.597, 160.370 120.889, 161 120.500 C 161.550 120.160, 162 120.569, 162 121.410 C 162 122.250, 161.418 122.714, 160.708 122.441 C 158.209 121.482, 155.678 142.711, 155.633 165 C 155.586 188.096, 155.941 193.277, 157.702 195.223 C 159.791 197.532, 163.738 197.493, 165.840 195.143 C 168.791 191.843, 193.768 184.435, 208.500 182.492 C 215.966 181.507, 217.130 181.027, 216.799 179.070 C 216.492 177.257, 216.840 177, 219.607 177 C 220.575 177, 221 177.558, 220.676 178.402 C 219.853 180.546, 221.143 181.180, 222.968 179.529 C 224.413 178.221, 225.078 178.290, 228.800 180.131 C 231.110 181.274, 233.023 182.274, 233.051 182.355 C 233.079 182.435, 233.525 187.225, 234.043 193 C 234.560 198.775, 235.266 205.821, 235.610 208.657 C 236.041 212.200, 235.749 215.173, 234.677 218.157 C 233.819 220.546, 232.824 225.200, 232.464 228.500 C 231.031 241.673, 227.656 250.246, 220.687 258.414 L 217.347 262.328 211.144 261.108 C 203.818 259.667, 195.676 255.803, 193.540 252.753 C 192.404 251.132, 191.731 250.869, 190.882 251.718 C 188.427 254.173, 197.824 265.468, 204.874 268.534 C 209.825 270.688, 216.916 271.011, 221.250 269.280 C 223.313 268.457, 225.002 267.494, 225.004 267.141 C 225.007 266.789, 226.807 264.128, 229.004 261.230 C 231.202 258.331, 233 255.441, 233 254.808 C 233 254.175, 233.678 252.908, 234.506 251.993 C 236.396 249.905, 239.606 237.570, 240.489 229 C 240.857 225.425, 241.620 220.703, 242.183 218.508 C 243.524 213.283, 243.371 189.736, 241.966 185.109 C 239.400 176.654, 237.794 174.087, 234.362 172.955 C 229.276 171.276, 204.868 173.172, 197.500 175.819 C 195.850 176.411, 189.775 177.872, 184 179.066 C 178.225 180.260, 171.524 182.086, 169.110 183.124 C 162.892 185.797, 162 184.735, 162 174.659 C 162 167.137, 162.188 166.402, 164.656 164.282 C 166.116 163.027, 168.501 162, 169.956 162 C 171.410 162, 173.028 161.602, 173.550 161.116 C 174.073 160.630, 179.770 159.485, 186.212 158.571 C 192.654 157.658, 200.304 156.303, 203.212 155.560 C 206.120 154.817, 210.368 153.905, 212.652 153.533 C 219.270 152.456, 219.459 146.884, 212.882 146.731 C 207.764 146.613, 183.591 149.971, 174.171 152.109 C 169.590 153.149, 165.203 154, 164.421 154 C 162.680 154, 162.645 147.836, 164.346 140.570 C 165.651 134.995, 166.465 134.544, 178 133.004 C 181.575 132.527, 188.100 131.406, 192.500 130.512 C 196.900 129.619, 203.200 128.400, 206.500 127.804 C 214.752 126.314, 216.027 125.025, 215.303 118.907 C 214.984 116.217, 215.217 111.425, 215.820 108.258 C 218.244 95.539, 219.399 77.249, 218.190 70.746 C 217.184 65.331, 216.461 63.988, 212.765 60.657 C 204.999 53.660, 202.591 52.910, 192.054 54.207 C 184.096 55.187, 181.988 55.884, 176.188 59.450 C 169.607 63.497, 169.500 63.632, 169.500 67.876 C 169.500 70.248, 169.875 72.421, 170.333 72.705 C 170.791 72.988, 173.114 71.821, 175.496 70.110 C 177.878 68.400, 180.168 67, 180.585 67 C 181.002 67, 182.053 66.392, 182.921 65.649 C 184.897 63.959, 194.059 61, 197.315 61 C 198.657 61, 200.281 61.634, 200.924 62.408 C 201.566 63.182, 203.633 64.547, 205.516 65.441 C 210.101 67.616, 211.428 72.516, 210.670 84.477 C 209.974 95.456, 209.414 96.027, 199.539 95.839 C 189.615 95.651, 174.278 98.828, 173.658 101.201 C 173.369 102.303, 173.732 103, 174.594 103 C 176.291 103, 176.448 104.605, 174.848 105.594 C 174.215 105.985, 173.138 105.541, 172.455 104.607 C 171.602 103.441, 170.445 103.101, 168.766 103.523 L 166.319 104.137 165.470 84.318 C 164.253 55.892, 164.231 56.199, 167.630 53.419 C 169.209 52.128, 170.874 51.056, 171.332 51.036 C 171.790 51.016, 177.444 46.162, 183.897 40.250 C 190.350 34.337, 198.891 26.888, 202.877 23.695 C 208.468 19.216, 210.053 17.388, 209.812 15.695 C 209.432 13.024, 206.274 12.426, 203.559 14.510 M 104 59.667 C 101.078 60.170, 96.402 61.632, 82 66.544 C 76.225 68.513, 67.675 70.816, 63 71.661 C 50.066 73.999, 44.323 79.358, 52.541 81.421 C 57.523 82.671, 70.179 79.783, 93 72.189 C 97.125 70.817, 102.975 69.182, 106 68.556 C 111.653 67.386, 113.233 65.746, 109.250 65.180 C 106.015 64.721, 106.465 62.805, 109.718 63.184 C 112.288 63.483, 112.931 64.278, 115.983 70.940 C 116.926 72.999, 118.215 73.147, 120.458 71.454 C 121.952 70.325, 122.426 68.735, 122.458 64.738 L 122.500 59.500 114.500 59.368 C 110.100 59.295, 105.375 59.430, 104 59.667 M 86.269 70.693 C 87.242 70.947, 88.592 70.930, 89.269 70.656 C 89.946 70.382, 89.150 70.175, 87.500 70.195 C 85.850 70.215, 85.296 70.439, 86.269 70.693 M 95.250 90.639 C 94.563 90.929, 94 91.555, 94 92.030 C 94 92.504, 92.432 95.568, 90.515 98.838 C 87.138 104.601, 85.298 109.993, 82.441 122.500 C 80.608 130.523, 80.654 131.304, 83.127 134.097 C 84.297 135.419, 85.834 137.859, 86.544 139.520 C 88.802 144.803, 92.145 146.698, 98.250 146.156 C 101.116 145.901, 100.244 143.314, 96.515 141.009 C 91.690 138.027, 88.640 131.046, 89.529 125.022 C 90.718 116.975, 95.903 105.654, 102.017 97.757 C 103.185 96.248, 103.997 93.998, 103.820 92.757 C 103.564 90.952, 102.799 90.461, 100 90.305 C 98.075 90.198, 95.938 90.348, 95.250 90.639 M 70.492 92.486 C 68.837 93.213, 66.744 94.639, 65.841 95.654 C 64.098 97.612, 55 123.871, 55 126.943 C 55 127.940, 54.370 130.273, 53.599 132.128 C 52.829 133.983, 51.912 138.650, 51.561 142.500 C 51.211 146.350, 50.412 151.210, 49.785 153.301 C 48.733 156.812, 48.843 157.297, 51.221 159.676 C 52.789 161.244, 54.910 162.248, 56.648 162.244 C 58.216 162.240, 59.725 162.589, 60 163.019 C 60.275 163.448, 61.175 163.928, 62 164.084 C 64.173 164.496, 76.321 162.906, 77.500 162.056 C 78.050 161.660, 80.075 160.714, 82 159.954 C 87.034 157.968, 92 152.850, 92 149.649 C 92 146.235, 90.743 146.309, 86.164 149.989 C 82.132 153.229, 76.068 154.966, 66.208 155.703 C 58.380 156.289, 56.544 155.113, 57.367 150.041 C 59.234 138.522, 61.016 130.584, 61.941 129.659 C 62.524 129.076, 63 127.176, 63 125.435 C 63 123.694, 63.900 121.126, 65 119.727 C 66.100 118.329, 67 116.574, 67 115.827 C 67 115.081, 67.900 112.791, 69 110.739 C 70.100 108.686, 71 106.322, 71 105.485 C 71 104.648, 72.137 101.789, 73.526 99.132 C 74.943 96.422, 75.774 93.576, 75.419 92.650 C 74.684 90.734, 74.490 90.728, 70.492 92.486 M 115.802 104.080 C 113.948 106.938, 112.671 111.055, 111.538 117.830 C 110.647 123.148, 109.441 130.015, 108.857 133.089 C 107.909 138.078, 108.025 139.129, 109.941 142.884 C 112.810 148.509, 118.282 154.431, 122.425 156.397 C 127.263 158.693, 134.644 158.534, 135.944 156.105 C 137.224 153.713, 135.121 151.710, 131.788 152.147 C 128.095 152.631, 122.547 149.396, 119.482 144.974 C 116.247 140.306, 115.076 132.156, 116.778 126.162 C 117.350 124.148, 118.378 120.025, 119.062 117 C 119.746 113.975, 120.658 110.825, 121.088 110 C 122.522 107.252, 123.699 102.516, 123.264 101.250 C 122.325 98.522, 118.453 99.990, 115.802 104.080 M 190 101.559 C 190 102.416, 190.450 102.840, 191 102.500 C 191.550 102.160, 192 101.459, 192 100.941 C 192 100.423, 191.550 100, 191 100 C 190.450 100, 190 100.702, 190 101.559 M 199.500 103.738 C 197.850 103.980, 195.943 104.637, 195.263 105.200 C 194.582 105.763, 193.357 105.967, 192.540 105.654 C 191.723 105.340, 187.430 105.721, 183 106.500 C 178.570 107.279, 174.304 107.670, 173.520 107.369 C 172.737 107.069, 171.512 107.188, 170.798 107.635 C 170.084 108.082, 168.850 108.459, 168.056 108.474 C 166.923 108.494, 166.571 110.389, 166.426 117.250 L 166.240 126 169.801 126 C 174.122 126, 194.472 122.408, 201.808 120.350 C 204.727 119.531, 207.278 118.330, 207.476 117.681 C 207.674 117.031, 208.111 113.463, 208.446 109.750 L 209.056 103 205.778 103.150 C 203.975 103.232, 201.150 103.497, 199.500 103.738 M 180.500 156 C 180.160 156.550, 180.359 157, 180.941 157 C 181.523 157, 182 156.550, 182 156 C 182 155.450, 181.802 155, 181.559 155 C 181.316 155, 180.840 155.450, 180.500 156 M 106.299 171.688 C 102.732 175.228, 91.132 178.847, 76 181.141 C 64.819 182.836, 54.316 189.267, 57.151 192.682 C 58.701 194.549, 63.232 194.316, 68.223 192.111 C 73.392 189.828, 82.043 187.709, 82.860 188.527 C 84.265 189.931, 85.844 210.606, 84.881 214.969 C 84.338 217.427, 84.143 220.434, 84.448 221.650 C 85.336 225.189, 83.314 228.974, 79.756 230.429 C 77.965 231.162, 73.350 232.058, 69.500 232.421 C 65.650 232.783, 60.790 233.815, 58.700 234.714 C 55.341 236.159, 54.934 236.706, 55.200 239.425 C 55.494 242.443, 55.592 242.496, 60.500 242.275 C 63.250 242.151, 70.900 241.329, 77.500 240.448 C 84.100 239.567, 93.100 238.475, 97.500 238.022 C 118.193 235.891, 125.538 233.528, 136.736 225.398 C 139.642 223.288, 142 224.256, 142 227.559 C 142 229.220, 143.099 231.145, 145 232.813 C 146.650 234.261, 148 235.967, 148 236.604 C 148 238.648, 154.366 244.093, 156.402 243.789 C 159.181 243.375, 159.450 241.450, 157.063 239.063 C 155.928 237.928, 155 236.613, 155 236.140 C 155 235.666, 153.865 233.607, 152.478 231.563 C 150.879 229.206, 149.485 225.056, 148.668 220.218 L 147.379 212.588 142.750 212.286 L 138.122 211.984 137.811 215.651 C 137.512 219.176, 137.229 219.428, 130.500 222.168 C 126.650 223.736, 121.700 225.526, 119.500 226.147 C 114.344 227.601, 93.266 229.783, 91.990 228.994 C 91.357 228.602, 91.354 224.903, 91.981 218.445 C 92.513 212.975, 92.960 204.952, 92.974 200.616 C 92.988 196.280, 93.510 191.031, 94.133 188.952 C 95.139 185.592, 95.890 184.941, 100.883 183.102 C 103.972 181.965, 107.842 179.950, 109.482 178.626 C 112.115 176.500, 112.349 175.895, 111.482 173.441 C 110.240 169.928, 108.623 169.381, 106.299 171.688 M 206 179 C 206 179.550, 206.873 180, 207.941 180 C 209.009 180, 210.160 179.550, 210.500 179 C 210.851 178.433, 210.010 178, 208.559 178 C 207.152 178, 206 178.450, 206 179 M 188 184 C 186.793 184.780, 186.951 184.972, 188.809 184.985 C 190.097 184.993, 190.845 184.558, 190.500 184 C 189.757 182.798, 189.861 182.798, 188 184 M 176.813 186.683 C 177.534 186.972, 178.397 186.936, 178.729 186.604 C 179.061 186.272, 178.471 186.036, 177.417 186.079 C 176.252 186.127, 176.015 186.364, 176.813 186.683 M 162.625 210.518 C 160.488 212.655, 160.573 215.415, 162.911 219.864 C 163.962 221.864, 166.021 226.650, 167.488 230.500 C 171.503 241.041, 177.663 246.520, 180.991 242.511 C 182.007 241.287, 181.680 240.400, 179.156 237.525 C 177.468 235.602, 175.393 231.695, 174.546 228.844 C 173.699 225.992, 172.285 222.558, 171.404 221.213 C 170.522 219.867, 169.504 216.681, 169.141 214.133 C 168.615 210.435, 168.055 209.439, 166.366 209.197 C 165.202 209.030, 163.518 209.625, 162.625 210.518 M 187.282 210.652 C 186.612 210.923, 185.791 212.596, 185.459 214.369 C 184.975 216.949, 185.803 219.481, 189.609 227.047 C 195.106 237.975, 196.603 240, 199.186 240 C 201.911 240, 202.429 237.552, 200.499 233.788 C 199.572 231.980, 197.997 228.250, 197 225.500 C 191.219 209.556, 190.960 209.161, 187.282 210.652 M 208.648 212.415 C 205.754 216.832, 207.068 221.948, 213.599 231.681 C 219.742 240.836, 221.614 243, 223.394 243 C 226.129 243, 225.234 239.099, 220.315 229.572 C 217.366 223.861, 215.420 218.647, 215.065 215.500 C 214.602 211.401, 214.121 210.446, 212.398 210.200 C 211.041 210.006, 209.712 210.791, 208.648 212.415 M 99.676 233.658 C 99.314 234.019, 97.139 234.357, 94.842 234.408 C 92.339 234.463, 90.490 235.029, 90.226 235.821 C 89.874 236.877, 91.262 237.002, 97.143 236.441 C 105.240 235.669, 106.150 235.339, 103.971 233.961 C 102.232 232.861, 100.588 232.745, 99.676 233.658 M 82 236.500 C 82 237.325, 82.436 238, 82.969 238 C 83.501 238, 83.678 237.325, 83.362 236.500 C 83.045 235.675, 82.609 235, 82.393 235 C 82.177 235, 82 235.675, 82 236.500 M 213.496 267.007 C 213.153 267.561, 213.596 268.292, 214.480 268.631 C 216.394 269.365, 217.461 268.556, 216.541 267.067 C 215.711 265.723, 214.306 265.696, 213.496 267.007" stroke="none" fill="black" fill-rule="evenodd"/>
</svg>