<svg xmlns="http://www.w3.org/2000/svg" width="300" height="300" viewBox="0 0 300 300" version="1.1">
	<path d="M 217.009 16.193 C 215.814 17.462, 212.824 21.200, 210.365 24.500 C 207.907 27.800, 204.225 32.300, 202.183 34.500 C 200.141 36.700, 197.532 39.712, 196.386 41.193 C 195.240 42.674, 193.103 44.187, 191.638 44.555 C 190.173 44.922, 188.643 45.773, 188.237 46.445 C 187.832 47.117, 185.344 48.731, 182.710 50.031 C 174.069 54.295, 173.691 55.620, 173.327 82.908 C 173.154 95.883, 172.698 115.275, 172.313 126 C 171.379 152.028, 171.735 181.301, 173.044 186.164 C 174.248 190.635, 176.056 191.751, 179.528 190.169 C 181.039 189.481, 182.149 189.432, 182.523 190.038 C 183.427 191.500, 186.991 191.187, 187.603 189.592 C 187.900 188.817, 189.574 187.633, 191.322 186.961 C 193.070 186.288, 196.975 184.498, 200 182.983 C 204.701 180.627, 213.094 177.579, 227.845 172.870 C 229.685 172.282, 233.510 171.412, 236.345 170.936 C 239.180 170.460, 244.273 169.549, 247.663 168.912 C 253.120 167.885, 254.284 167.967, 257.819 169.626 C 262.152 171.659, 262.011 171.301, 264.053 185.500 C 265.222 193.624, 264.545 217.437, 263.032 221.415 C 262.465 222.908, 262 227.446, 262 231.500 C 262 242.333, 258.358 258, 255.839 258 C 255.378 258, 255 258.581, 255 259.292 C 255 261.049, 247.160 268.353, 243.703 269.816 C 239.291 271.684, 231.556 271.270, 227.280 268.938 C 225.201 267.804, 221.650 264.879, 219.388 262.438 C 214.889 257.582, 213 256.882, 213 260.072 C 213 263.612, 217.941 270.786, 222.872 274.406 C 227.360 277.700, 228.112 277.900, 238.553 278.560 L 249.520 279.254 253.408 275.877 C 260.939 269.336, 261.684 268.451, 264.244 263 C 265.665 259.975, 267.293 255.250, 267.863 252.500 C 268.433 249.750, 269.565 244.350, 270.378 240.500 C 271.191 236.650, 272.423 224.406, 273.116 213.292 C 274.384 192.941, 273.768 180.230, 271.067 170.996 C 269.937 167.134, 265.584 161.850, 262.487 160.583 C 259.207 159.240, 247.872 158.957, 242 160.072 C 238.975 160.646, 234.025 161.594, 231 162.178 C 225.268 163.285, 211.882 167.320, 206.216 169.650 C 204.410 170.392, 202.133 171, 201.157 171 C 200.181 171, 198.509 171.661, 197.441 172.468 C 196.374 173.276, 194.910 173.951, 194.188 173.968 C 193.467 173.986, 190.400 175.171, 187.374 176.603 C 184.348 178.034, 181.645 178.978, 181.367 178.700 C 180.963 178.296, 180.624 163.517, 180.927 159.550 C 180.967 159.027, 181.540 159.140, 182.200 159.800 C 184.007 161.607, 187.874 161.245, 190.727 159 C 192.126 157.900, 193.884 157, 194.635 157 C 195.386 157, 196 156.582, 196 156.071 C 196 155.031, 205.635 152, 208.939 152 C 210.111 152, 212.102 151.324, 213.363 150.498 C 214.624 149.672, 218.206 148.524, 221.324 147.948 C 224.442 147.372, 229.582 146.034, 232.746 144.975 C 235.911 143.916, 239.232 143.038, 240.128 143.025 C 241.023 143.011, 242.315 142.325, 243 141.500 C 243.685 140.675, 245.042 140, 246.015 140 C 248.126 140, 249.071 137.986, 248.315 135.096 C 247.584 132.301, 244.875 132.385, 232.498 135.586 C 226.999 137.008, 219.575 138.726, 216 139.405 C 208.761 140.778, 193.994 145.175, 186.815 148.095 C 184.238 149.143, 181.875 150, 181.565 150 C 180.812 150, 180.862 141.796, 181.654 135.201 C 182.206 130.600, 182.691 129.694, 185.333 128.328 C 187.672 127.118, 188.793 127.014, 190.175 127.877 C 192.373 129.250, 195.442 129.320, 197.764 128.050 C 198.719 127.528, 202.200 126.443, 205.500 125.640 C 215.037 123.319, 236.085 117.068, 238.892 115.723 C 240.301 115.048, 241.883 113.275, 242.407 111.784 C 243.230 109.443, 242.994 108.783, 240.680 106.963 C 238.489 105.239, 238 104.041, 238 100.392 C 238 96.340, 239.982 91.543, 242.350 89.865 C 242.843 89.516, 242.947 87.491, 242.583 85.365 C 242.218 83.239, 241.545 77.540, 241.087 72.700 C 239.806 59.159, 236.137 56.691, 223.060 60.575 C 220.143 61.441, 214.098 62.807, 209.628 63.610 C 205.158 64.414, 199.250 65.472, 196.500 65.962 C 193.750 66.453, 189.969 67.182, 188.097 67.582 L 184.695 68.311 185.370 64.090 C 186.143 59.256, 188.318 56.565, 192.208 55.632 C 196.450 54.615, 224.463 25.990, 225.582 21.528 C 225.903 20.250, 226.016 18.145, 225.833 16.852 C 225.350 13.437, 219.984 13.037, 217.009 16.193 M 112.370 53.125 C 111.341 53.529, 107.800 53.896, 104.500 53.941 C 101.200 53.985, 96.291 54.692, 93.591 55.511 C 90.891 56.330, 87.249 57, 85.496 57 C 81.945 57, 70.788 60.610, 60.261 65.166 C 57.929 66.175, 55.792 67, 55.511 67 C 55.230 67, 55 65.255, 55 63.122 C 55 56.118, 50.102 55.147, 44.472 61.035 C 41.652 63.985, 41.513 64.529, 41.758 71.645 C 41.926 76.532, 42.710 80.669, 44.008 83.518 C 45.359 86.484, 46.009 90.079, 46.028 94.695 C 46.062 103.071, 49.226 124.686, 50.866 127.750 C 52.525 130.849, 56.968 130.728, 60 127.500 C 61.292 126.125, 62.959 125, 63.706 125 C 64.452 125, 65.322 124.325, 65.638 123.500 C 66.390 121.542, 71 121.512, 71 123.465 C 71 124.720, 67.766 129.044, 63.260 133.811 C 62.578 134.532, 61.311 137.683, 60.444 140.811 C 59.577 143.940, 58.484 147.625, 58.015 149 C 57.546 150.375, 56.875 152.850, 56.524 154.500 C 55.840 157.709, 51.524 169.005, 49.674 172.429 C 49.058 173.568, 47.604 176.075, 46.442 178 C 45.280 179.925, 42.163 185.325, 39.515 190 C 36.868 194.675, 33.155 200.393, 31.265 202.707 C 27.515 207.299, 27.662 209.001, 31.809 208.998 C 33.916 208.997, 35.239 207.912, 37.907 203.998 C 39.780 201.249, 41.675 199, 42.118 199 C 44.499 199, 54.996 182.189, 58.500 172.764 C 59.469 170.159, 60.877 167.517, 61.630 166.892 C 62.384 166.267, 63 164.985, 63 164.044 C 63 163.103, 63.337 161.997, 63.750 161.585 C 64.162 161.173, 64.967 159.186, 65.537 157.168 C 66.435 153.991, 66.928 153.542, 69.225 153.813 C 70.683 153.986, 72.951 153.423, 74.264 152.563 C 75.577 151.702, 79.992 150.363, 84.076 149.586 C 88.159 148.809, 94.875 147.479, 99 146.629 C 103.125 145.780, 112.998 144.166, 120.941 143.042 C 132.173 141.454, 135.550 141.272, 136.138 142.224 C 137.924 145.112, 139.297 158.637, 139.315 173.500 C 139.351 204.129, 136.141 249.635, 133.725 252.750 C 132.349 254.523, 124.528 254.341, 123 252.500 C 122.315 251.675, 121.360 251, 120.878 251 C 120.395 251, 119.100 250.100, 118 249 C 115.783 246.783, 115.127 246.633, 113.147 247.888 C 112.084 248.562, 112.041 249.209, 112.949 250.904 C 114.584 253.960, 121.860 259, 124.635 259 C 125.919 259, 129.164 260.350, 131.846 262 C 137.449 265.448, 138.267 265.588, 140.073 263.412 C 144.195 258.445, 145.001 252.388, 147.113 210.500 C 149.675 159.673, 148.990 143.362, 143.954 135.299 C 142.428 132.855, 138.327 130.680, 136.903 131.560 C 135.998 132.119, 120.007 134.263, 104 135.972 C 94.908 136.942, 76.372 140.731, 73.689 142.166 C 71.077 143.564, 69.508 141.201, 71.551 138.944 C 72.348 138.063, 73 136.798, 73 136.131 C 73 135.465, 73.900 133.156, 75 131 C 76.100 128.844, 77 125.279, 77 123.078 C 77 119.221, 77.152 119.036, 81.221 117.941 C 83.542 117.315, 86.343 116.173, 87.443 115.402 C 88.544 114.631, 90.570 114, 91.944 114 C 93.319 114, 97.381 113.131, 100.972 112.070 C 109.920 109.423, 123.840 106.701, 127.636 106.854 C 132.057 107.033, 133.394 104.972, 132.693 99.058 C 132.319 95.901, 132.763 91.360, 133.937 86.326 C 134.941 82.022, 136.311 74.852, 136.981 70.394 C 138.049 63.289, 137.999 61.899, 136.574 59.144 C 135.680 57.415, 134.466 56, 133.875 56 C 133.285 56, 131.384 55.360, 129.651 54.578 C 126.040 52.949, 115.149 52.033, 112.370 53.125 M 109.318 63.046 C 103.168 63.460, 97.645 64.102, 97.045 64.472 C 96.444 64.843, 93.871 65.376, 91.325 65.656 C 83.997 66.462, 81.856 67.578, 82.526 70.246 C 82.840 71.498, 82.398 74.197, 81.543 76.244 C 80.232 79.380, 80.142 81.722, 80.970 91.159 C 81.511 97.315, 82.329 102.729, 82.788 103.188 C 83.805 104.205, 95.787 102.685, 96.811 101.410 C 97.213 100.910, 97.307 94.729, 97.021 87.675 C 96.688 79.493, 96.886 74.131, 97.567 72.865 C 98.867 70.449, 103.891 67.016, 106.142 67.007 C 107.782 67, 109.537 71.322, 108.545 72.926 C 108.262 73.385, 107.597 78.693, 107.068 84.721 C 106.539 90.749, 105.970 96.276, 105.803 97.003 C 105.426 98.648, 112.760 100.442, 114.383 99.102 C 114.997 98.594, 117.180 97.865, 119.233 97.481 C 123.573 96.670, 124.363 94.827, 126.082 81.500 C 126.649 77.100, 127.488 71.823, 127.945 69.774 C 128.942 65.308, 126.687 61.912, 122.883 62.147 C 121.572 62.228, 115.468 62.633, 109.318 63.046 M 223.587 70.531 C 221.483 71.254, 219.135 71.605, 218.368 71.311 C 217.602 71.017, 216.418 71.231, 215.737 71.786 C 215.057 72.342, 209.775 73.768, 204 74.956 C 198.225 76.143, 192.503 77.764, 191.285 78.557 C 190.067 79.351, 187.978 80, 186.642 80 C 183.694 80, 183.181 81.206, 182.356 90.084 C 181.797 96.094, 181.928 97, 183.356 97 C 184.260 97, 185 96.586, 185 96.081 C 185 95.125, 193.083 92.858, 196.398 92.883 C 197.442 92.891, 199.557 92.246, 201.099 91.449 C 202.640 90.652, 205.970 90, 208.500 90 C 211.030 90, 214.539 89.237, 216.300 88.303 C 218.060 87.370, 221.955 86.101, 224.955 85.483 C 229.928 84.459, 230.484 84.071, 231.259 81.080 C 231.726 79.277, 231.972 76.207, 231.804 74.259 C 231.425 69.840, 228.912 68.701, 223.587 70.531 M 63.961 74.609 C 55.405 78.574, 54.999 79.176, 55.005 87.905 C 55.008 92.082, 55.301 99.888, 55.656 105.250 C 56.280 114.677, 56.381 115, 58.686 115 C 59.997 115, 62.067 114.376, 63.285 113.612 C 64.503 112.849, 67.142 111.937, 69.150 111.586 C 74.314 110.682, 75.570 108.847, 74.194 104.218 C 73.586 102.173, 72.795 98.700, 72.437 96.500 C 72.078 94.300, 71.532 90.925, 71.223 89 C 70.914 87.075, 70.620 82.720, 70.571 79.323 C 70.521 75.926, 70.241 72.907, 69.948 72.614 C 69.655 72.322, 66.961 73.220, 63.961 74.609 M 221.500 95.955 C 220.400 96.405, 215.900 97.786, 211.500 99.023 C 207.100 100.261, 202.150 101.832, 200.500 102.517 C 195.992 104.386, 187.824 106.851, 185 107.195 C 182.159 107.542, 181.050 111.150, 183.046 113.555 C 184.473 115.275, 191.119 115.481, 192.744 113.856 C 193.604 112.996, 194.661 113.031, 196.988 113.995 C 200.425 115.419, 213.719 114.681, 215.428 112.972 C 215.963 112.437, 217.998 111.986, 219.950 111.968 C 221.903 111.951, 224.196 111.388, 225.047 110.718 C 227.700 108.628, 229.476 102.524, 229.111 96.750 C 228.990 94.850, 225.172 94.451, 221.500 95.955 M 97.869 151.510 C 94.846 153.152, 94.421 154.012, 93.459 160.422 C 92.668 165.703, 90.896 168, 87.616 168 C 85.111 168, 77.468 171.434, 76.505 172.993 C 75.408 174.767, 73 174.070, 73 171.979 C 73 168.791, 68.844 167.401, 65.624 169.511 C 63.400 170.968, 63 171.956, 63 175.991 C 63 178.810, 63.963 182.943, 65.361 186.126 C 67.459 190.902, 69.178 196.539, 72.030 208 C 73.155 212.521, 76.071 214.891, 79.701 214.236 C 81.240 213.959, 83.057 213.292, 83.737 212.754 C 85.852 211.083, 88 212.727, 88 216.016 C 88 218.955, 84.082 224, 81.800 224 C 81.300 224, 79.453 225.348, 77.696 226.995 C 75.938 228.643, 74.083 229.993, 73.573 229.995 C 73.063 229.998, 68.901 231.813, 64.323 234.029 L 56 238.057 56 242.560 C 56 248.205, 57.788 249.100, 63.405 246.267 C 65.657 245.131, 70.079 243.177, 73.232 241.924 C 76.385 240.672, 80.142 238.418, 81.581 236.916 C 84.096 234.290, 84.331 234.240, 87.643 235.624 C 89.538 236.416, 91.460 236.834, 91.914 236.553 C 92.368 236.272, 93.941 233.671, 95.408 230.771 C 96.876 227.872, 99.579 223.711, 101.415 221.526 C 104.324 218.063, 104.963 217.725, 106.377 218.898 C 107.270 219.639, 108 221.260, 108 222.500 C 108 223.740, 108.675 225.315, 109.500 226 C 110.325 226.685, 111 227.894, 111 228.687 C 111 229.481, 113.280 232.351, 116.067 235.065 C 120.144 239.036, 121.804 240, 124.567 240 C 127.732 240, 132.052 237.228, 131.968 235.250 C 131.912 233.918, 129.587 231.557, 125.881 229.070 C 121.101 225.861, 118.899 221.522, 118.091 213.716 C 117.392 206.956, 114.991 202, 112.417 202 C 111.572 202, 108.817 203.575, 106.296 205.500 C 101.522 209.146, 100 209.734, 100 207.934 C 100 206.145, 102.005 203, 103.145 203 C 105.114 203, 113.725 196.863, 115.917 193.898 C 117.376 191.925, 118.055 189.598, 118.006 186.737 C 117.967 184.407, 118.450 179.350, 119.080 175.500 C 119.927 170.320, 119.934 167.764, 119.106 165.668 C 118.007 162.885, 117.866 162.842, 110.991 163.168 C 107.143 163.351, 103.855 163.078, 103.685 162.561 C 103.514 162.045, 103.674 159.649, 104.040 157.236 C 104.523 154.056, 104.314 152.457, 103.282 151.424 C 101.551 149.694, 101.200 149.699, 97.869 151.510 M 104 174 C 101.843 176.157, 101.074 185, 103.044 185 C 104.600 185, 108.470 180.870, 109.748 177.846 C 110.678 175.645, 110.569 174.920, 109.106 173.596 C 106.846 171.551, 106.415 171.585, 104 174 M 80.548 182.373 L 75.596 186.705 76.864 191.603 C 77.562 194.296, 78.379 197.738, 78.680 199.250 C 79.413 202.936, 81.805 202.778, 86.264 198.750 C 89.732 195.617, 89.885 195.184, 90.521 186.750 L 91.180 178 88.340 178.021 C 86.438 178.034, 83.864 179.472, 80.548 182.373 M 240.531 199.750 C 238.549 201.888, 238 203.528, 238 207.311 C 238 211.704, 237.857 212, 236.429 210.571 C 235.564 209.707, 234.476 209, 234.010 209 C 232.176 209, 229.999 210.273, 229.978 211.357 C 229.936 213.516, 226.543 216.974, 225.256 216.169 C 223.845 215.285, 221.926 206.356, 222.709 204.316 C 223.331 202.694, 221.274 200, 219.414 200 C 217.152 200, 213 207.143, 213 211.033 C 213 214.742, 219.986 227, 222.099 227 C 222.673 227, 223.842 227.699, 224.696 228.553 C 228.388 232.245, 233.358 227.906, 234.881 219.663 C 236.166 212.705, 237.591 211.768, 239.577 216.573 C 241.920 222.243, 243.830 224, 247.655 224 C 251.400 224, 252.068 221.996, 249.468 218.559 C 248.528 217.316, 247.995 214.259, 247.986 210.059 C 247.969 201.960, 247.402 199.732, 244.966 198.211 C 243.350 197.202, 242.677 197.436, 240.531 199.750 M 163.608 208.474 C 162.568 209.274, 161.288 210.071, 160.764 210.245 C 160.240 210.420, 159.462 212.475, 159.034 214.812 C 157.405 223.721, 163.544 241.092, 169.286 243.820 C 170.921 244.597, 173.295 244.874, 175.036 244.492 C 179.417 243.530, 179.187 238.981, 174.553 234.912 C 170.665 231.499, 169.737 227.777, 169.588 215 C 169.509 208.281, 169.292 207.475, 167.500 207.260 C 166.400 207.128, 164.649 207.674, 163.608 208.474 M 186.073 212.635 C 182.051 217.748, 183.836 224.932, 191.449 234.278 C 196.402 240.359, 198.497 241.489, 202.983 240.504 C 205.313 239.992, 206.452 238.736, 208.481 234.448 C 210.652 229.860, 210.849 228.731, 209.780 227.019 C 208.187 224.468, 206.493 224.463, 203.770 227 C 200.634 229.922, 199.708 229.526, 197.341 224.250 C 196.168 221.637, 194.260 217.363, 193.099 214.750 C 190.703 209.354, 189.046 208.855, 186.073 212.635" stroke="none" fill="black" fill-rule="evenodd"/>
</svg>