<svg xmlns="http://www.w3.org/2000/svg" width="300" height="300" viewBox="0 0 300 300" version="1.1">
	<path d="M 209.876 17.927 C 209.286 19.617, 208.191 21, 207.441 21 C 205.850 21, 202.795 24.075, 201.215 27.267 C 199.270 31.196, 196.288 38.378, 194.889 42.500 C 193.650 46.153, 190.427 51.771, 188.865 53 C 188.261 53.475, 186.100 57.216, 178.898 70.250 C 177.151 73.412, 175.367 76, 174.934 76 C 174.501 76, 172.678 78.588, 170.882 81.750 C 169.087 84.912, 167.254 87.650, 166.809 87.833 C 166.364 88.017, 166 88.749, 166 89.461 C 166 90.173, 165.354 91.291, 164.565 91.946 C 163.776 92.600, 162.192 94.937, 161.045 97.138 C 159.898 99.339, 157.168 103.512, 154.980 106.411 C 152.791 109.310, 151 112.203, 151 112.841 C 151 113.478, 150.568 114, 150.040 114 C 148.495 114, 144 119.326, 144 121.158 C 144 123.914, 145.123 126, 146.607 126 C 147.373 126, 148 125.550, 148 125 C 148 124.450, 148.592 124, 149.316 124 C 150.040 124, 151.669 122.155, 152.936 119.901 C 154.203 117.646, 157.672 113.330, 160.645 110.309 C 163.617 107.288, 167.855 102.158, 170.062 98.909 C 172.269 95.659, 174.508 93, 175.037 93 C 175.567 93, 176 92.100, 176 91 C 176 87.878, 177.737 88.644, 179.611 92.592 C 181.766 97.135, 183.011 97.585, 187.160 95.325 C 188.997 94.324, 191.400 93.423, 192.500 93.322 C 193.600 93.222, 197.342 92.643, 200.815 92.037 C 205.322 91.251, 208.802 91.239, 212.970 91.995 C 218.186 92.940, 222.996 92.780, 229.677 91.436 C 232.384 90.892, 233.045 88.314, 231.360 84.871 C 230.170 82.439, 229.419 82.183, 221.287 81.443 C 210.540 80.466, 196.814 80.776, 191.701 82.111 C 184.976 83.868, 181.801 81.300, 186 77.500 C 187.100 76.505, 188 75.274, 188 74.764 C 188 73.661, 194.723 63.315, 197.222 60.574 C 198.187 59.514, 199.260 57.714, 199.605 56.574 C 199.950 55.433, 201.332 53.032, 202.676 51.238 C 204.658 48.593, 205.366 48.215, 206.423 49.238 C 212.809 55.419, 225.497 62.878, 229.783 62.972 C 230.489 62.987, 233.287 64.125, 236 65.500 C 238.713 66.875, 241.748 68, 242.744 68 C 243.740 68, 245.443 68.611, 246.527 69.358 C 247.612 70.104, 250.188 71.264, 252.250 71.935 C 254.313 72.606, 256 73.795, 256 74.578 C 256 75.618, 257.343 76, 261 76 C 265.796 76, 265.999 75.888, 265.967 73.250 C 265.922 69.546, 263.526 67.054, 256.712 63.627 C 253.570 62.047, 251 60.360, 251 59.877 C 251 59.395, 250.213 58.986, 249.250 58.968 C 248.287 58.951, 246.626 58.276, 245.559 57.468 C 244.491 56.661, 242.867 56, 241.950 56 C 241.032 56, 237.752 54.650, 234.660 53 C 231.568 51.350, 228.129 50, 227.019 50 C 225.909 50, 225 49.580, 225 49.067 C 225 48.554, 224.146 47.864, 223.103 47.533 C 220.824 46.810, 214.160 40.698, 211.820 37.186 C 210.205 34.762, 210.255 34.437, 213.126 28.751 C 216.803 21.467, 216.844 15.691, 213.223 15.177 C 211.449 14.925, 210.711 15.531, 209.876 17.927 M 103 58.667 C 99.425 59.512, 94.700 60.302, 92.500 60.423 C 90.300 60.544, 87.825 60.907, 87 61.231 C 78.438 64.589, 75.064 65.298, 73.563 64.052 C 72.703 63.339, 72 62.151, 72 61.413 C 72 60.674, 71.044 59.559, 69.875 58.933 C 67.218 57.511, 63.815 59.108, 61.908 62.673 C 60.262 65.748, 60.153 81.011, 61.738 86.500 C 62.374 88.700, 63.100 92.750, 63.353 95.500 C 63.605 98.250, 64.068 101.850, 64.381 103.500 C 64.695 105.150, 65.152 111, 65.398 116.500 C 65.644 122, 66.410 130.655, 67.101 135.733 C 68.131 143.312, 68.119 145.410, 67.033 147.438 C 64.481 152.207, 70.662 157.699, 75.299 154.781 C 78.562 152.728, 85.901 150.567, 86.745 151.411 C 87.149 151.815, 87.764 155.826, 88.112 160.323 C 88.858 169.971, 88.020 171.536, 81.681 172.340 C 74.670 173.230, 71 174.183, 71 175.113 C 71 175.601, 69.418 176, 67.484 176 C 61.435 176, 56.679 178.067, 54.237 181.759 L 51.973 185.179 54.487 188.166 C 55.869 189.809, 57 191.569, 57 192.077 C 57 193.944, 59.701 192.927, 60.953 190.588 C 61.755 189.089, 63.485 187.944, 65.525 187.561 C 67.330 187.223, 69.038 186.344, 69.320 185.608 C 69.602 184.872, 72.008 184.004, 74.667 183.678 C 77.325 183.352, 81.525 182.650, 84 182.118 C 86.475 181.586, 88.863 181.503, 89.307 181.933 C 89.751 182.363, 89.976 185.141, 89.807 188.107 L 89.500 193.500 84 194.161 C 80.975 194.525, 74.954 195.297, 70.621 195.877 C 65.680 196.539, 62.090 196.584, 60.996 195.998 C 56.436 193.557, 53.904 204.904, 58.077 209.077 C 59.416 210.416, 60.750 210.902, 61.827 210.444 C 62.747 210.054, 65.300 209.360, 67.500 208.903 C 73.010 207.759, 81.989 206.003, 85 205.480 C 97.486 203.314, 108.577 200.823, 109.399 200.001 C 109.950 199.450, 111.633 199, 113.141 199 C 114.649 199, 116.160 198.550, 116.500 198 C 116.840 197.450, 119.030 197, 121.368 197 C 123.705 197, 126.491 196.339, 127.559 195.532 C 128.626 194.724, 131.087 194.049, 133.027 194.032 C 137.878 193.988, 141 191.604, 141 187.943 C 141 185.018, 140.964 185, 135.250 185.073 C 126.870 185.179, 111.717 188.066, 104.578 190.915 C 99.931 192.770, 98.852 191.750, 99.197 185.829 C 99.477 181.027, 99.722 180.576, 102.440 179.853 C 104.058 179.423, 105.767 178.380, 106.240 177.536 C 106.893 176.369, 108.890 176, 114.550 176 C 118.647 176, 122 175.660, 122 175.245 C 122 174.428, 127.844 172.177, 132.190 171.321 C 135.823 170.605, 138.062 167.953, 137.345 165.213 C 137.027 163.996, 136.257 162.956, 135.633 162.903 C 132.511 162.636, 126.441 163.276, 126.001 163.919 C 125.018 165.350, 108.030 169, 102.349 169 L 98.797 169 99.494 161.750 C 100.187 154.538, 102.569 145.384, 103.979 144.513 C 104.385 144.262, 107.819 143.937, 111.609 143.791 C 115.438 143.643, 119.087 142.964, 119.821 142.263 C 120.548 141.568, 122.236 141, 123.571 141 C 125 141, 126 140.417, 126 139.583 C 126 138.804, 126.526 137.991, 127.169 137.777 C 127.868 137.544, 128.270 135.567, 128.168 132.863 C 128.020 128.960, 128.343 128.154, 130.525 126.986 C 131.916 126.242, 133.304 124.478, 133.610 123.067 C 133.916 121.655, 134.827 118.475, 135.633 116 C 137.531 110.178, 138.451 89.217, 137.148 81.500 C 133.965 62.643, 132.271 60.338, 120.500 58.834 C 117.200 58.412, 113.375 57.857, 112 57.599 C 110.625 57.342, 106.575 57.822, 103 58.667 M 104.974 68.531 C 104.113 69.568, 103.340 74.866, 102.813 83.323 C 102.363 90.571, 101.545 98.387, 100.997 100.693 C 99.516 106.921, 99.698 118, 101.281 118 C 101.985 118, 103.092 116.763, 103.740 115.250 C 107.722 105.959, 109.065 101.990, 109.607 97.901 C 110.089 94.268, 110.805 92.956, 113.013 91.651 C 114.551 90.743, 116.454 90, 117.244 90 C 119.922 90, 122.271 98.096, 120 99.500 C 119.450 99.840, 119 101.362, 119 102.883 C 119 104.404, 117.129 109.215, 114.842 113.574 C 112.555 117.933, 110.193 122.509, 109.592 123.742 C 108.991 124.975, 108.035 125.988, 107.466 125.992 C 106.216 126.002, 103 131.232, 103 133.254 C 103 134.430, 104.447 134.614, 110.750 134.243 C 119.098 133.751, 123 132.089, 123 129.027 C 123 127.967, 123.630 126.740, 124.400 126.300 C 127.025 124.800, 128.731 96.096, 127.019 82.238 C 125.825 72.583, 125.786 72.485, 122.366 70.750 C 120.381 69.742, 116.687 69, 113.659 69 C 110.767 69, 107.931 68.531, 107.358 67.958 C 106.634 67.234, 105.905 67.410, 104.974 68.531 M 83.304 73.944 C 82.962 75.253, 81.767 75.988, 79.648 76.194 L 76.500 76.500 76.227 94.250 C 76.062 104.951, 75.566 112, 74.977 112 C 74.440 112, 74 112.900, 74 114 C 74 115.100, 74.436 116, 74.969 116 C 75.527 116, 76.058 121.202, 76.219 128.250 C 76.453 138.437, 76.753 140.472, 78 140.334 C 80.297 140.080, 86.423 137.606, 87.121 136.650 C 87.462 136.183, 88.052 131.972, 88.432 127.292 C 89.084 119.251, 88.981 118.570, 86.561 114.913 C 85.152 112.784, 84 110.223, 84 109.221 C 84 108.220, 83.530 106.930, 82.955 106.355 C 82.380 105.780, 81.635 102.032, 81.299 98.027 C 80.723 91.161, 80.826 90.638, 83.094 88.894 C 84.417 87.877, 86.985 87.034, 88.799 87.022 L 92.099 87 91.879 82.180 C 91.758 79.530, 91.962 76.870, 92.333 76.271 C 93.812 73.877, 91.820 72, 87.799 72 C 84.692 72, 83.701 72.429, 83.304 73.944 M 215.713 107.621 C 215.283 108.051, 211.089 109.180, 206.393 110.131 C 198.412 111.747, 191.323 113.590, 183 116.213 C 181.075 116.819, 178.150 117.474, 176.500 117.666 C 173.517 118.015, 170.688 120.632, 169.054 124.554 C 167.889 127.351, 168.950 139.873, 170.633 143.200 C 171.385 144.686, 172 147.333, 172 149.083 C 172 153.214, 175.320 156.203, 179.458 155.798 C 182.248 155.525, 182.486 155.210, 182.337 152 C 182.247 150.075, 181.484 145.125, 180.640 141 C 179.796 136.875, 179.082 132.939, 179.053 132.252 C 178.978 130.477, 188.741 126, 192.687 126 C 194.509 126, 196 125.566, 196 125.035 C 196 123.118, 200.597 121.681, 207.823 121.339 C 211.877 121.148, 215.914 120.588, 216.794 120.095 C 217.715 119.580, 219.367 119.569, 220.682 120.069 C 222.056 120.592, 225.146 120.502, 228.416 119.845 C 231.411 119.244, 235.468 119.053, 237.431 119.421 C 241.334 120.153, 241.823 121.636, 240.072 127.429 C 239.561 129.118, 238.649 134.432, 238.045 139.239 C 237.441 144.045, 236.707 148.601, 236.414 149.364 C 236.036 150.348, 232.974 150.957, 225.876 151.460 C 219.537 151.910, 214.274 152.876, 211.513 154.097 C 208.461 155.447, 204.169 156.141, 197.200 156.412 C 188.593 156.747, 186.892 157.107, 184.623 159.080 C 181.282 161.985, 181.300 164.305, 184.684 166.966 C 186.618 168.488, 188.156 168.905, 190.185 168.459 C 193.469 167.738, 193.604 168.002, 194.398 176.728 C 194.900 182.241, 194.716 183.187, 192.794 184.978 C 191.600 186.090, 189.929 187, 189.081 187 C 188.233 187, 185.280 187.862, 182.519 188.916 C 179.759 189.970, 172.775 192.275, 167 194.039 C 161.225 195.803, 155.719 197.641, 154.764 198.123 C 153.809 198.606, 152.171 199, 151.124 199 C 145.668 199, 142.578 207.435, 146.571 211.429 C 148.657 213.514, 150.221 213.410, 153 211 C 154.268 209.900, 156.276 209, 157.462 209 C 158.648 209, 160.491 208.339, 161.559 207.532 C 162.626 206.724, 164.556 206.049, 165.846 206.032 C 167.136 206.014, 169.386 205.352, 170.846 204.560 C 172.306 203.768, 175.188 202.848, 177.250 202.515 C 179.313 202.182, 181 201.570, 181 201.156 C 181 200.041, 187.197 198, 190.580 198 C 194.403 198, 196.365 200.909, 194.988 204.532 C 194.445 205.961, 194 208.822, 194 210.889 C 194 218.206, 190.739 233.613, 187.392 242.108 C 184.882 248.476, 184 252.261, 184 256.658 C 184 263.055, 185.089 265, 188.672 265 C 190.589 265, 191.190 264.102, 192.516 259.250 C 193.380 256.087, 194.518 252.719, 195.044 251.764 C 195.570 250.809, 196.015 249.459, 196.034 248.764 C 196.053 248.069, 196.937 245.700, 198 243.500 C 199.063 241.300, 199.947 238.233, 199.966 236.684 C 199.985 235.136, 200.461 233.007, 201.025 231.953 C 201.589 230.900, 202.460 226.992, 202.962 223.269 C 205.025 207.955, 208.589 194, 210.437 194 C 211.077 194, 212.056 194.456, 212.613 195.013 C 213.297 195.697, 214.678 195.660, 216.864 194.898 C 218.645 194.277, 220.380 194.047, 220.720 194.387 C 221.060 194.726, 222.124 194.293, 223.086 193.422 C 224.437 192.199, 225.291 192.086, 226.851 192.920 C 227.961 193.514, 230.907 194, 233.399 194 C 239.114 194, 240.412 196.016, 239.760 203.879 C 239.505 206.955, 239.655 213.078, 240.094 217.486 C 240.533 221.894, 241.123 228.002, 241.405 231.061 C 241.687 234.120, 242.159 237.270, 242.453 238.061 C 242.747 238.852, 243.409 242.875, 243.922 247 C 245.064 256.167, 247.548 265.154, 249.313 266.500 C 250.034 267.050, 250.919 268.288, 251.281 269.250 C 252.017 271.213, 252.833 271.391, 254.950 270.052 C 256.646 268.979, 256.705 263.676, 255.088 257.627 C 252.154 246.646, 249.787 196.166, 252.077 193.407 C 252.719 192.633, 254.652 191.998, 256.372 191.996 C 258.093 191.994, 260.962 191.101, 262.750 190.011 C 268.728 186.366, 266.327 183.112, 257.037 182.270 L 251 181.722 251 171.478 C 251 162.074, 250.836 161.190, 249 160.710 C 247.900 160.423, 247 160.595, 247 161.094 C 247 161.592, 246.325 162, 245.500 162 C 243.841 162, 243.333 156.530, 244.902 155.561 C 245.397 155.254, 246.099 152.190, 246.462 148.752 C 247.175 141.976, 248.725 137, 250.121 137 C 250.605 137, 251 131.609, 251 125.019 L 251 113.038 248.250 112.459 C 246.738 112.140, 244.600 111.353, 243.500 110.710 C 242.400 110.067, 237.450 109.208, 232.500 108.800 C 227.550 108.392, 221.924 107.784, 219.997 107.449 C 218.071 107.113, 216.143 107.191, 215.713 107.621 M 227.673 160.449 C 226.668 161.210, 223.518 162.149, 220.673 162.534 C 215.342 163.256, 210.807 165.095, 207.750 167.776 C 205.950 169.354, 205.344 176.950, 206.634 181.763 C 207.213 183.926, 207.579 184.003, 214.870 183.494 C 219.067 183.202, 226.011 182.812, 230.302 182.629 C 234.594 182.445, 238.474 181.891, 238.925 181.398 C 239.376 180.904, 240.006 176.563, 240.324 171.750 L 240.903 163 238.174 163 C 236.673 163, 234.674 162.100, 233.732 161 C 231.735 158.668, 230.205 158.529, 227.673 160.449 M 51.203 219.639 L 46.500 224.278 46.598 238.889 C 46.677 250.660, 47.115 254.958, 48.853 261 C 50.039 265.125, 51.458 268.650, 52.005 268.833 C 52.552 269.017, 53 269.756, 53 270.476 C 53 272.142, 55.238 273, 59.582 273 C 62.125 273, 63.030 272.552, 63.118 271.250 C 63.333 268.082, 62.850 266.526, 61.025 264.500 C 58.737 261.961, 58.030 257.595, 57.349 241.810 C 56.891 231.185, 57.062 228.749, 58.401 226.838 C 60.444 223.921, 60.458 218.601, 58.429 216.571 C 57.564 215.707, 56.643 215, 56.381 215 C 56.120 215, 53.789 217.088, 51.203 219.639 M 136.235 219.667 C 134.374 220.417, 131 228.398, 131 232.051 C 131 233.967, 132.095 236.648, 133.780 238.856 C 135.308 240.860, 137.578 244.614, 138.824 247.198 C 141.634 253.028, 146.194 257, 150.077 257 C 152.513 257, 153 256.592, 153 254.547 C 153 251.416, 151.051 246.961, 148.773 244.883 C 147.798 243.993, 147 242.563, 147 241.704 C 147 240.845, 146.353 239.496, 145.562 238.705 C 143.871 237.014, 141 226.566, 141 222.106 C 141 219.007, 139.624 218.303, 136.235 219.667 M 74.288 224.484 C 71.318 227.721, 71.130 228.344, 71.646 233.234 C 72.407 240.444, 73.883 246, 75.039 246 C 75.567 246, 76 246.930, 76 248.066 C 76 251.224, 77.798 254.092, 82.698 258.750 C 87.523 263.337, 89.937 263.889, 95.328 261.636 C 99.910 259.722, 102.442 255.688, 100.766 252.973 C 99.844 251.480, 98.853 251.083, 97.122 251.513 C 92.272 252.715, 89.443 251.198, 87.229 246.205 C 84.303 239.609, 82.725 233.305, 82.600 227.711 C 82.498 223.160, 81.208 221.057, 78.493 221.015 C 77.939 221.007, 76.047 222.568, 74.288 224.484 M 102.648 228.574 L 99.797 232.148 102.031 239.097 C 103.260 242.919, 104.656 246.287, 105.133 246.582 C 105.610 246.877, 106 247.991, 106 249.059 C 106 250.127, 106.475 251, 107.056 251 C 107.637 251, 110.270 253.250, 112.907 256 C 116.029 259.257, 118.537 261.005, 120.100 261.014 C 121.420 261.021, 123.478 261.290, 124.674 261.610 C 126.393 262.071, 127.194 261.526, 128.497 259.007 C 130.615 254.910, 129.835 253, 126.046 253 C 123.595 253, 122.511 252.202, 120.274 248.750 C 118.758 246.412, 117.244 244.275, 116.907 244 C 115.881 243.161, 113.238 236.816, 111.388 230.750 C 109.253 223.748, 106.955 223.176, 102.648 228.574" stroke="none" fill="black" fill-rule="evenodd"/>
</svg>