<svg xmlns="http://www.w3.org/2000/svg" width="300" height="300" viewBox="0 0 300 300" version="1.1">
	<path d="M 184.618 27.525 C 182.596 29.547, 182.224 31.391, 181.677 42.122 C 181.348 48.572, 180.338 53.358, 177.668 61.122 C 173.248 73.972, 171.647 83.132, 173.218 86.579 C 174.662 89.748, 178.492 90.769, 180.869 88.619 C 181.853 87.728, 183.200 87, 183.864 87 C 185.422 87, 190.265 83.922, 191.300 82.274 C 191.740 81.573, 192.884 81, 193.843 81 C 194.802 81, 198.281 78.380, 201.575 75.177 C 204.868 71.974, 208.111 69.537, 208.781 69.760 C 209.452 69.984, 210 71.695, 210 73.563 C 210 75.431, 210.630 78.656, 211.400 80.730 C 212.171 82.803, 213.365 86.677, 214.055 89.338 C 214.745 92, 216.337 95.691, 217.592 97.541 C 219.752 100.724, 219.776 100.936, 218.028 101.491 C 215.328 102.348, 214.114 104.160, 211.526 111.196 C 207.528 122.067, 200.840 137.432, 199.390 139.079 C 198.626 139.947, 198 141.185, 198 141.829 C 198 144.993, 195.046 142.339, 192.550 136.931 C 190.353 132.174, 189.753 129.420, 189.769 124.181 C 189.804 113.223, 189.152 112.318, 184.209 116.477 C 181.969 118.363, 181.141 120.057, 180.745 123.569 C 180.070 129.555, 176.274 134.809, 166.887 142.747 C 155.196 152.634, 154.328 151.283, 162.457 135.856 C 175.648 110.822, 180.802 99.534, 179.857 97.750 C 179.347 96.787, 178.240 96, 177.398 96 C 174.323 96, 169.117 101.126, 167.416 105.828 C 164.874 112.856, 159.783 124.302, 158.444 126 C 157.793 126.825, 155.599 131.325, 153.570 136 C 151.540 140.675, 149.007 146.349, 147.940 148.610 C 144.238 156.452, 146.379 162.126, 152.464 160.598 C 155.791 159.763, 172.325 149.179, 173.403 147.194 C 173.909 146.262, 174.928 145.138, 175.668 144.696 C 176.408 144.254, 177.928 142.101, 179.045 139.911 C 180.163 137.721, 181.451 136.161, 181.908 136.443 C 182.366 136.726, 184.024 139.496, 185.594 142.599 C 187.164 145.702, 190.035 149.421, 191.974 150.865 C 197.041 154.636, 197.266 155.275, 194.296 157.468 C 192.831 158.550, 190.201 160.800, 188.454 162.468 C 186.706 164.135, 183.112 167.300, 180.466 169.500 C 177.821 171.700, 171.973 176.916, 167.471 181.090 C 162.969 185.265, 157.653 189.925, 155.658 191.447 C 153.663 192.969, 151.074 195.762, 149.904 197.655 C 147.889 200.916, 147.867 201.196, 149.492 202.992 C 151.608 205.329, 156.806 206.594, 158.272 205.128 C 159.037 204.363, 159.030 203.361, 158.247 201.643 C 157.248 199.451, 157.528 198.955, 161.324 196.185 C 163.621 194.509, 166.625 192.084, 168 190.795 C 169.375 189.507, 174.550 185.108, 179.500 181.020 C 184.450 176.932, 188.735 173.257, 189.022 172.854 C 189.309 172.450, 191.265 170.952, 193.370 169.524 C 197.521 166.707, 199.980 166.842, 203.531 170.083 C 204.728 171.176, 206.780 171.847, 208.531 171.718 C 211.095 171.530, 211.466 171.817, 211.249 173.824 C 211.097 175.230, 211.887 176.909, 213.249 178.071 C 218.892 182.890, 220.358 184, 221.080 184 C 221.505 184, 225.374 186.337, 229.677 189.193 C 233.979 192.050, 239.296 195.010, 241.492 195.772 C 243.688 196.534, 245.972 197.562, 246.569 198.057 C 247.165 198.552, 249.238 199.619, 251.175 200.429 C 254.306 201.737, 254.944 201.728, 256.912 200.349 C 259.051 198.851, 259.065 198.730, 257.334 196.816 C 256.348 195.727, 253.993 194.188, 252.101 193.398 C 241.101 188.802, 209 164.283, 209 160.477 C 209 159.800, 209.649 158.706, 210.442 158.048 C 211.235 157.390, 212.023 155.491, 212.192 153.829 C 212.474 151.061, 213.069 150.616, 219.279 148.533 C 223.007 147.282, 226.867 145.525, 227.857 144.629 C 228.847 143.733, 230.195 143, 230.851 143 C 231.508 143, 233.997 141.200, 236.384 139 C 238.771 136.800, 241.247 135, 241.887 135 C 242.526 135, 243.498 136.238, 244.045 137.750 C 244.593 139.262, 245.446 141.400, 245.940 142.500 C 246.435 143.600, 247.908 147.425, 249.214 151 C 251.051 156.028, 252.089 157.572, 253.795 157.820 C 255.810 158.112, 255.998 157.724, 255.976 153.320 C 255.952 148.501, 255.508 146.317, 252.454 136 C 251.558 132.975, 249.935 127.125, 248.846 123 C 246.655 114.700, 244.328 111.444, 241.278 112.412 C 237.801 113.515, 236.539 117.283, 237.954 122.336 C 239.280 127.071, 238.230 131, 235.639 131 C 234.929 131, 233.285 132.133, 231.984 133.517 C 230.684 134.901, 227.793 136.535, 225.560 137.147 C 223.327 137.759, 218.868 139.147, 215.650 140.231 C 211.966 141.472, 209.450 141.850, 208.853 141.253 C 208.017 140.417, 211.936 131.337, 218.242 119.500 C 221.847 112.734, 223.258 108.039, 222.630 104.898 C 222.263 103.065, 222.466 101.144, 223.107 100.371 C 224.457 98.744, 223.965 95.383, 220.584 83.139 C 218.658 76.160, 218 71.402, 218 64.436 C 218 53.309, 216.775 49.769, 213.074 50.201 C 210.964 50.447, 210.168 51.469, 208.554 56 C 206.288 62.364, 206.261 62.397, 199 67.130 C 188.853 73.746, 185.046 76, 184.020 76 C 182.398 76, 182.851 73.019, 185.617 65.500 C 190.973 50.939, 192.942 35.348, 190.124 29.810 C 188.166 25.962, 186.763 25.380, 184.618 27.525 M 69.200 63.200 C 67.795 64.605, 67.580 69, 68.917 69 C 69.421 69, 70.060 68.438, 70.338 67.750 C 70.661 66.949, 70.870 67.080, 70.921 68.115 C 70.964 69.003, 70.024 70.970, 68.832 72.486 C 66.227 75.798, 66.081 82.271, 68.446 89.630 C 69.307 92.309, 70.426 97.200, 70.933 100.500 C 75.169 128.072, 78.094 141.843, 80.466 145.372 C 83.968 150.582, 88.946 149.927, 88.985 144.250 C 88.995 142.750, 89.604 142, 90.811 142 C 91.808 142, 93.589 141.100, 94.770 140 C 96.975 137.945, 99.509 137.396, 100.368 138.786 C 100.635 139.218, 100.971 143.977, 101.114 149.361 C 101.414 160.590, 101.432 160.563, 93.009 161.584 C 74.383 163.841, 67.424 167.724, 69.975 174.435 C 71.276 177.856, 75.251 177.940, 76.782 174.579 C 77.589 172.808, 78.440 172.302, 79.948 172.697 C 81.082 172.993, 82.571 172.786, 83.255 172.235 C 84.619 171.138, 97.692 168, 100.897 168 C 102.547 168, 103.108 169.059, 104.085 174.024 C 104.736 177.338, 105.659 180.289, 106.135 180.583 C 107.611 181.495, 107.085 185.753, 105.418 186.393 C 104.548 186.727, 102.163 187, 100.118 187 C 98.073 187, 95.972 187.410, 95.450 187.912 C 94.927 188.414, 92.025 189.064, 89 189.357 C 83.211 189.918, 69.071 191.846, 65.250 192.596 C 63.382 192.963, 63 193.693, 63 196.897 C 63 199.040, 63.642 201.288, 64.444 201.954 C 65.691 202.988, 65.606 203.694, 63.824 207.114 C 61.858 210.884, 61.813 211.710, 62.870 224.287 C 63.953 237.164, 64.653 240.551, 69.010 254 C 72.583 265.029, 73.700 267, 76.377 267 C 79.850 267, 80.368 264.383, 78.150 258.048 C 72.209 241.075, 70.764 231.702, 71.205 213 L 71.500 200.500 75.500 199.939 C 77.700 199.630, 80.912 198.632, 82.637 197.722 C 84.408 196.787, 89.416 195.800, 94.137 195.456 C 98.737 195.121, 103.518 194.352, 104.762 193.748 C 106.682 192.815, 107.447 193.054, 109.817 195.325 C 113.288 198.650, 116.282 198.732, 118.667 195.568 C 120.854 192.666, 123.520 192.309, 135 193.378 C 144.032 194.219, 149 193.227, 149 190.584 C 149 188.393, 147.610 187.893, 140.225 187.424 C 136.526 187.190, 129.234 186.661, 124.021 186.249 L 114.542 185.500 112.763 178 C 111.785 173.875, 111.101 169.150, 111.242 167.500 C 111.459 164.980, 111.980 164.446, 114.500 164.162 C 116.150 163.975, 118.044 163.373, 118.709 162.823 C 120.011 161.746, 125.147 162.450, 128.683 164.191 C 131.481 165.569, 134 164.601, 134 162.148 C 134 159.126, 124.246 155.553, 118.206 156.362 C 115.618 156.708, 112.600 157.106, 111.500 157.246 C 109.743 157.469, 109.462 156.832, 109.187 152 C 108.852 146.096, 109.488 141.354, 110.919 139.095 C 111.797 137.710, 123.242 136.020, 134.709 135.583 C 142.208 135.297, 143.626 133.637, 144.433 124.197 C 144.796 119.964, 145.543 114.185, 146.095 111.356 C 148.489 99.078, 149.780 70.325, 148.080 67.149 C 147.473 66.015, 145.294 64.620, 143.238 64.049 C 138.490 62.731, 116.082 62.689, 108.934 63.986 C 103.391 64.991, 92.497 66.023, 83.474 66.397 C 80.710 66.511, 77.916 66.934, 77.267 67.335 C 76.533 67.789, 75.491 66.916, 74.517 65.033 C 72.854 61.817, 71.165 61.235, 69.200 63.200 M 119 71.328 L 113.500 72.157 113.360 81.328 C 113.283 86.373, 112.923 91.850, 112.559 93.500 C 112.195 95.150, 111.488 101.450, 110.988 107.500 C 110.488 113.550, 109.803 120.864, 109.467 123.754 C 108.769 129.746, 108.627 129.625, 117.300 130.421 C 123.605 131, 134.483 128.960, 136.607 126.800 C 137.396 125.997, 138.279 120.336, 138.913 112 C 139.478 104.575, 140.492 93.442, 141.167 87.259 C 141.967 79.922, 142.064 75.106, 141.446 73.390 C 140.538 70.866, 140.180 70.756, 132.500 70.631 C 128.100 70.559, 122.025 70.873, 119 71.328 M 100.104 73.375 C 99.477 74.131, 96.834 75.010, 94.232 75.329 C 87.387 76.167, 80.278 77.781, 77.958 79.023 C 75.710 80.225, 75.767 81.996, 78.616 99.479 C 79.420 104.417, 80.274 110.942, 80.513 113.979 C 81.109 121.560, 82.835 130.235, 83.974 131.374 C 84.560 131.960, 87.867 131.974, 92.709 131.409 L 100.500 130.500 100.810 125.627 C 101.076 121.434, 100.623 120.005, 97.560 115.392 C 95.602 112.443, 94 109.539, 94 108.937 C 94 108.335, 92.200 106.061, 90 103.883 C 85.288 99.218, 84.801 95.832, 88.492 93.413 C 89.863 92.515, 91.659 92.039, 92.483 92.355 C 93.307 92.671, 95.660 96.321, 97.710 100.465 C 101.710 108.548, 103.662 109.961, 103.630 104.750 C 103.619 102.962, 103.986 95.547, 104.445 88.271 C 105.088 78.082, 104.990 74.692, 104.017 73.521 C 102.457 71.641, 101.571 71.607, 100.104 73.375 M 119.834 85.240 C 117.426 87.282, 117.108 88.368, 116.542 96.500 C 116.198 101.450, 115.412 109.911, 114.797 115.303 C 113.841 123.675, 113.894 125.323, 115.161 126.590 C 115.977 127.406, 117.365 127.797, 118.245 127.459 C 120.743 126.501, 120.720 126.587, 124.206 105 C 124.872 100.875, 125.436 94.358, 125.459 90.518 C 125.506 82.557, 124.316 81.440, 119.834 85.240 M 198.321 181.556 C 194.353 183.294, 191.596 186.984, 185.428 198.820 C 182.757 203.947, 179.137 209.816, 177.385 211.864 C 170.679 219.698, 168.350 226.386, 171.436 228.947 C 173.316 230.507, 176.605 228.820, 177.562 225.806 C 177.945 224.598, 180.341 220.885, 182.886 217.555 C 187.281 211.804, 189.188 209.003, 195.307 199.307 C 196.763 197, 199.539 193.528, 201.477 191.590 C 205.159 187.907, 206.137 183.537, 203.800 181.200 C 202.377 179.777, 202.382 179.777, 198.321 181.556 M 198 188 C 198 188.550, 198.450 189, 199 189 C 199.550 189, 200 188.550, 200 188 C 200 187.450, 199.550 187, 199 187 C 198.450 187, 198 187.450, 198 188 M 213.500 194 C 212.505 195.100, 210.819 196, 209.755 196 C 207.513 196, 204.082 199.718, 204.033 202.200 C 204.015 203.135, 203.389 204.260, 202.641 204.700 C 201.894 205.140, 200.711 207.300, 200.011 209.500 C 199.312 211.700, 198.394 213.950, 197.972 214.500 C 196.589 216.304, 190.181 229.369, 187.555 235.740 C 182.720 247.471, 181.835 250.823, 182.997 252.995 C 183.587 254.098, 184.392 254.986, 184.785 254.968 C 186.620 254.887, 188.806 252.162, 189.472 249.126 C 190.652 243.753, 197.709 229.742, 202.151 223.954 C 203.609 222.054, 206.509 216.980, 208.597 212.677 C 210.684 208.375, 213.590 203.650, 215.054 202.177 C 217.872 199.343, 219.218 195.732, 218.325 193.404 C 217.564 191.421, 215.616 191.662, 213.500 194 M 126.965 212.250 C 123.552 217.779, 123.625 219.206, 127.749 227.594 C 134.597 241.525, 141.448 252.972, 143.298 253.577 C 147.385 254.914, 149.449 249.514, 146.475 245.267 C 139.265 234.973, 132.589 219.286, 133.667 215.166 C 134.235 212.993, 131.751 209, 129.830 209 C 129.357 209, 128.068 210.463, 126.965 212.250 M 99.571 211.571 C 97.897 213.246, 97.455 217.973, 98.826 219.550 C 99.694 220.548, 100.759 224.096, 103.534 235.231 C 105.468 242.991, 111.231 252.006, 115.136 253.379 C 118.635 254.609, 123.007 253.411, 122.973 251.231 C 122.958 250.279, 121.179 248.410, 119.020 247.078 C 114.725 244.430, 112.557 239.990, 109.702 228 C 106 212.455, 105.011 210, 102.449 210 C 101.731 210, 100.436 210.707, 99.571 211.571 M 81.174 214.314 C 78.562 217.095, 78.380 221.374, 80.548 229.032 C 81.399 232.039, 82.553 236.377, 83.112 238.670 C 84.606 244.803, 89.108 253.041, 92.221 255.339 C 94.501 257.022, 95.352 257.160, 97.471 256.195 C 100.756 254.698, 100.663 252.991, 97.093 249.255 C 93.702 245.707, 89.806 233.730, 88.079 221.544 C 86.692 211.762, 85.119 210.115, 81.174 214.314 M 225.851 223.637 C 220.609 226.556, 219.531 228.511, 215.457 242.500 C 210.806 258.467, 204.839 275.360, 201.882 280.928 C 198.502 287.292, 198.396 288, 200.816 288 C 201.867 288, 203.534 286.420, 204.774 284.250 C 205.952 282.188, 207.972 279.295, 209.262 277.823 C 210.552 276.350, 213.776 269.600, 216.425 262.823 C 225.951 238.455, 228.319 232.957, 230.641 229.809 C 233.158 226.398, 233.841 220.984, 231.750 221.024 C 231.063 221.038, 228.408 222.213, 225.851 223.637" stroke="none" fill="black" fill-rule="evenodd"/>
</svg>