<svg xmlns="http://www.w3.org/2000/svg" width="300" height="300" viewBox="0 0 300 300" version="1.1">
	<path d="M 127.380 19.452 C 127.074 20.251, 127.188 21.488, 127.635 22.202 C 128.082 22.916, 128.503 23.950, 128.571 24.500 C 128.640 25.050, 128.764 26.067, 128.848 26.759 C 128.947 27.578, 130.487 27.966, 133.250 27.867 C 135.588 27.783, 142.450 28.513, 148.500 29.488 C 165.556 32.239, 170.875 32.489, 171.609 30.576 C 172.627 27.923, 170.253 26.259, 165.312 26.160 C 162.753 26.108, 160.381 25.617, 160.042 25.068 C 159.194 23.696, 148.108 21.319, 138.757 20.505 C 134.498 20.134, 130.759 19.419, 130.448 18.915 C 129.596 17.537, 128.008 17.815, 127.380 19.452 M 136 25 C 136 25.550, 136.450 26, 137 26 C 137.550 26, 138 25.550, 138 25 C 138 24.450, 137.550 24, 137 24 C 136.450 24, 136 24.450, 136 25 M 195 38.018 C 192.140 39.897, 180.117 43.043, 172.328 43.950 C 168.022 44.451, 162.475 45.343, 160 45.933 C 157.525 46.523, 152.800 47.517, 149.500 48.141 C 146.200 48.766, 143.275 49.597, 143 49.987 C 142.725 50.377, 138.400 50.980, 133.389 51.327 C 127.326 51.747, 121.400 52.938, 115.671 54.886 C 110.938 56.496, 105.356 58.102, 103.269 58.455 C 98.803 59.209, 94.227 64.692, 95.529 67.730 C 95.946 68.703, 96.199 70.640, 96.091 72.034 C 95.983 73.428, 96.591 75.903, 97.441 77.534 C 98.292 79.165, 98.990 81.063, 98.994 81.750 C 98.997 82.438, 99.450 83, 100 83 C 100.550 83, 101 83.900, 101 85 C 101 86.100, 101.450 87, 102 87 C 102.550 87, 103 87.477, 103 88.059 C 103 88.641, 102.550 88.840, 102 88.500 C 101.345 88.095, 101 95.156, 101 108.941 C 101 120.961, 100.608 130, 100.088 130 C 99.586 130, 98.872 131.912, 98.500 134.250 C 96.076 149.483, 90.581 173.838, 88.156 180.095 C 86.578 184.168, 84.714 189.975, 84.015 193 C 83.317 196.025, 82.188 199.625, 81.507 201 C 78.787 206.495, 76 213.109, 76 214.069 C 76 214.627, 75.100 216.050, 74 217.230 C 71.444 219.974, 71.444 222, 74 222 C 75.229 222, 76.009 221.326, 76.023 220.250 C 76.035 219.287, 77.610 215.596, 79.523 212.046 C 81.435 208.497, 83 205.042, 83 204.368 C 83 203.694, 83.580 202.548, 84.288 201.821 C 84.996 201.095, 87.064 195.775, 88.883 190 C 90.702 184.225, 93.035 177.475, 94.067 175 C 95.711 171.060, 96.608 167.352, 98.725 155.750 C 99.001 154.238, 99.626 153, 100.113 153 C 100.601 153, 101.045 150.863, 101.100 148.250 C 101.275 139.914, 102.046 138.517, 106.546 138.380 C 111.030 138.244, 119.209 135.466, 126.311 131.667 C 129.255 130.092, 133.031 129.006, 136.040 128.869 C 142.034 128.595, 142.766 128.172, 142.617 125.062 C 142.489 122.402, 144.321 121.726, 154.500 120.678 C 160.823 120.027, 174.884 116.341, 176.657 114.870 C 177.395 114.257, 178 112.885, 178 111.821 C 178 110.098, 177.374 109.920, 172.250 110.194 C 167.514 110.446, 166.580 110.235, 166.956 109 C 167.208 108.175, 167.580 104.350, 167.784 100.500 C 167.989 96.650, 168.568 93.075, 169.073 92.555 C 169.577 92.036, 172.804 91.467, 176.245 91.291 C 179.685 91.115, 183.850 90.865, 185.500 90.735 L 188.500 90.500 189.228 99.500 C 189.628 104.450, 189.943 110.638, 189.928 113.250 C 189.913 115.862, 190.337 118, 190.869 118 C 191.401 118, 192.810 116.426, 193.999 114.502 C 195.731 111.699, 196.378 108.318, 197.254 97.476 C 197.937 89.031, 197.994 83.594, 197.408 83.008 C 196.130 81.730, 192.377 81.624, 179.903 82.517 C 170.010 83.224, 169.272 83.149, 168.813 81.387 C 168.158 78.873, 168.884 66.475, 169.970 61.638 C 170.448 59.514, 170.590 56.251, 170.288 54.388 L 169.738 51 175.869 51 C 179.290 51, 182 50.558, 182 50 C 182 49.450, 183.238 49, 184.750 49 C 188.262 49, 199.219 41.371, 198.801 39.218 C 198.417 37.236, 196.912 36.762, 195 38.018 M 161.250 50.250 C 161.479 50.938, 162.267 51.500, 163 51.500 C 163.733 51.500, 164.521 50.938, 164.750 50.250 C 164.998 49.506, 164.289 49, 163 49 C 161.711 49, 161.002 49.506, 161.250 50.250 M 136.500 54 C 136.160 54.550, 135.009 55, 133.941 55 C 132.873 55, 132 55.450, 132 56 C 132 57.271, 132.346 57.255, 135.453 55.839 C 136.854 55.201, 138 54.301, 138 53.839 C 138 52.701, 137.253 52.781, 136.500 54 M 147.500 54 C 147.840 54.550, 148.316 55, 148.559 55 C 148.802 55, 149 54.550, 149 54 C 149 53.450, 148.523 53, 147.941 53 C 147.359 53, 147.160 53.450, 147.500 54 M 161 53.691 C 159.625 53.921, 156.333 54.806, 153.685 55.657 C 151.037 56.508, 148.603 56.937, 148.277 56.611 C 147.951 56.284, 147.112 56.492, 146.414 57.072 C 145.715 57.651, 140.010 58.722, 133.736 59.452 C 127.462 60.181, 121.467 61.252, 120.414 61.830 C 119.361 62.409, 115.800 63.655, 112.500 64.598 C 109.200 65.542, 106.115 66.650, 105.645 67.062 C 105.174 67.474, 105.512 72.371, 106.395 77.945 C 107.278 83.519, 108 89.637, 108 91.540 C 108 95.070, 109.542 96.058, 111.693 93.907 C 112.294 93.306, 116.771 92.151, 121.643 91.341 C 126.514 90.531, 131.994 89.620, 133.819 89.316 C 137.772 88.660, 138.870 86.368, 138.221 80.126 C 137.919 77.222, 138.552 73.275, 140.105 68.376 C 143.631 57.254, 144.828 58.669, 144.650 73.750 C 144.480 88.229, 143.356 86.918, 154.350 85.065 C 157.567 84.523, 160.810 83.572, 161.556 82.953 C 162.302 82.334, 163.382 82.118, 163.956 82.473 C 165.598 83.487, 165.175 80.849, 163.497 79.610 C 162.162 78.624, 162.174 77.662, 163.610 71 C 164.498 66.875, 165.441 61.138, 165.705 58.250 C 166.213 52.689, 166.327 52.799, 161 53.691 M 124 58 C 124 58.550, 124.450 59, 125 59 C 125.550 59, 126 58.550, 126 58 C 126 57.450, 125.550 57, 125 57 C 124.450 57, 124 57.450, 124 58 M 120.813 58.683 C 121.534 58.972, 122.397 58.936, 122.729 58.604 C 123.061 58.272, 122.471 58.036, 121.417 58.079 C 120.252 58.127, 120.015 58.364, 120.813 58.683 M 108.250 61.031 C 107.013 61.529, 106 62.448, 106 63.075 C 106 63.706, 106.710 63.941, 107.593 63.603 C 108.469 63.267, 110.269 62.720, 111.593 62.387 C 112.917 62.055, 114 61.382, 114 60.892 C 114 59.775, 111.207 59.843, 108.250 61.031 M 145 91 C 145 91.550, 145.423 92, 145.941 92 C 146.459 92, 147.160 91.550, 147.500 91 C 147.840 90.450, 147.416 90, 146.559 90 C 145.702 90, 145 90.450, 145 91 M 156.003 92.998 C 155.334 93.412, 152.734 93.792, 150.226 93.842 C 147.718 93.893, 145.179 94.421, 144.583 95.016 C 143.987 95.611, 143.343 100.115, 143.151 105.025 L 142.803 113.953 151.151 113.348 C 155.743 113.016, 159.882 112.396, 160.350 111.972 C 160.817 111.547, 161.185 109.468, 161.166 107.350 C 161.147 105.233, 161.578 101.778, 162.125 99.674 C 162.817 97.009, 162.787 95.448, 162.026 94.532 C 160.607 92.822, 157.548 92.043, 156.003 92.998 M 128 94 C 128 94.550, 128.423 95, 128.941 95 C 129.459 95, 130.160 94.550, 130.500 94 C 130.840 93.450, 130.416 93, 129.559 93 C 128.702 93, 128 93.450, 128 94 M 109.681 98.241 C 108.254 99.286, 107.754 101.398, 107.358 108.037 C 106.872 116.189, 105.879 123.907, 104.436 130.750 C 103.491 135.229, 105.447 135.028, 111.763 130 C 114.526 127.800, 117.284 126, 117.893 126 C 118.502 126, 119 125.589, 119 125.086 C 119 123.949, 130.568 117.492, 134.111 116.651 C 136.605 116.060, 136.754 115.640, 137.426 107.365 C 138.198 97.840, 137.572 96.452, 133 97.557 C 131.625 97.889, 128.813 98.397, 126.750 98.686 C 124.688 98.974, 123 99.613, 123 100.105 C 123 100.597, 121.160 101, 118.910 101 C 115.998 101, 114.343 100.411, 113.160 98.954 C 111.729 97.190, 111.250 97.092, 109.681 98.241 M 161.858 124.853 C 160.961 125.900, 159.730 126.925, 159.122 127.129 C 158.515 127.333, 157.845 128.981, 157.635 130.790 C 157.425 132.600, 157.084 134.193, 156.876 134.330 C 154.764 135.730, 148.443 138.045, 144 139.044 C 140.975 139.725, 136.065 141.351, 133.089 142.657 C 130.113 143.964, 126.850 144.770, 125.839 144.449 C 123.721 143.777, 123.429 142.397, 125.250 141.662 C 126.250 141.259, 126.250 141.142, 125.250 141.079 C 124.563 141.036, 124 140.127, 124 139.059 C 124 136.322, 121.843 135.287, 120.562 137.409 C 119.978 138.377, 118.713 140.100, 117.750 141.238 C 116.787 142.375, 116 144.062, 116 144.986 C 116 149.209, 118.416 158.620, 119.782 159.719 C 120.989 160.690, 121.050 161.235, 120.078 162.406 C 118.815 163.928, 119.123 174.459, 120.470 175.800 C 120.857 176.185, 123.663 176.411, 126.705 176.303 C 131.011 176.149, 132.557 175.650, 133.676 174.053 C 134.466 172.924, 135.687 172, 136.387 172 C 137.088 172, 139.875 170.877, 142.581 169.504 C 145.286 168.131, 148.209 167.006, 149.076 167.004 C 150.882 166.999, 155 162.955, 155 161.186 C 155 160.533, 154.502 160, 153.894 160 C 152.238 160, 141.048 162.984, 139.152 163.931 C 134.456 166.276, 129.718 168, 127.966 168 C 126.202 168, 126 167.294, 126 161.122 C 126 153.640, 126.593 152.638, 131.666 151.554 C 133.408 151.182, 135.064 150.275, 135.347 149.539 C 135.629 148.802, 137.732 147.883, 140.019 147.497 C 142.306 147.110, 146.950 145.556, 150.339 144.042 C 157.473 140.856, 161 139.849, 161 140.999 C 161 141.446, 160.034 143.622, 158.852 145.835 C 156.846 149.594, 156.805 150.076, 158.237 153.179 C 159.080 155.006, 160.068 158.750, 160.432 161.500 C 161.526 169.767, 164.020 175.771, 166.561 176.256 C 169.945 176.903, 180 175.871, 180 174.876 C 180 174.394, 180.675 174, 181.500 174 C 182.325 174, 183.007 174.563, 183.015 175.250 C 183.026 176.150, 183.237 176.181, 183.765 175.361 C 184.739 173.853, 191.506 172.031, 196.500 171.932 C 201.145 171.841, 205.491 169.562, 208.367 165.711 C 210.745 162.525, 211.390 151.967, 209.250 151.251 C 208.563 151.021, 208 150.222, 208 149.476 C 208 147.557, 205.924 146.504, 205.022 147.965 C 204.606 148.637, 204.489 151.161, 204.761 153.574 C 205.333 158.646, 203.347 162.538, 199.424 164.029 C 198.064 164.546, 190.614 165.485, 182.866 166.116 C 171.059 167.077, 168.639 167.039, 167.905 165.881 C 167.424 165.122, 167.024 161.003, 167.015 156.729 C 167.001 149.596, 167.185 148.883, 169.250 148.057 C 170.488 147.562, 174.200 146.109, 177.500 144.828 C 180.800 143.548, 183.650 142.162, 183.833 141.750 C 184.017 141.338, 185.272 141, 186.623 141 C 190.579 141, 197 137.255, 197 134.948 C 197 133.842, 196.254 132.651, 195.342 132.301 C 192.815 131.331, 182.370 133.812, 175.098 137.110 C 171.521 138.731, 168.035 139.844, 167.351 139.581 C 166.488 139.250, 166.151 136.714, 166.251 131.305 C 166.407 122.890, 165.136 121.024, 161.858 124.853 M 160.785 149.713 C 160.164 152.088, 161.396 154.786, 162.377 153.199 C 162.722 152.641, 162.626 151.164, 162.165 149.916 C 161.345 147.700, 161.313 147.695, 160.785 149.713 M 157 174.902 C 157 175.398, 155.650 176.275, 154 176.850 C 151.981 177.554, 151 178.567, 151 179.948 C 151 181.077, 150.615 182, 150.145 182 C 149.674 182, 148.875 183.445, 148.368 185.211 C 147.345 188.780, 145.283 189.719, 138 189.933 C 135.525 190.006, 131.025 190.936, 128 192 C 124.975 193.064, 121.730 193.949, 120.789 193.967 C 118.520 194.011, 115 197.878, 115 200.326 C 115 202.109, 115.487 202.218, 120.712 201.604 C 123.853 201.235, 126.666 200.572, 126.962 200.130 C 127.757 198.944, 133.305 197.239, 134.750 197.736 C 135.438 197.973, 136 199.270, 136 200.619 C 136 202.760, 136.253 202.935, 138 202 C 139.100 201.411, 140 200.270, 140 199.465 C 140 198.659, 140.450 198, 141 198 C 143.382 198, 141.842 203.358, 138.500 206.700 C 135.294 209.906, 133.913 213.052, 135.750 212.964 C 137.551 212.878, 142.020 208.208, 143.372 205 C 144.183 203.075, 145.844 200.825, 147.063 200 C 148.281 199.175, 150.453 197.588, 151.889 196.473 C 153.325 195.358, 157.875 193.613, 162 192.596 C 166.125 191.579, 170.751 190.110, 172.279 189.332 C 173.808 188.555, 175.498 188.190, 176.035 188.522 C 178.043 189.763, 185.281 189.177, 189.073 187.467 C 191.923 186.182, 193 185.090, 193 183.487 C 193 181.330, 192.774 181.289, 183.250 181.719 C 177.887 181.962, 170.876 182.799, 167.669 183.580 C 159.714 185.518, 159.791 185.546, 160.044 180.750 C 160.168 178.412, 160.208 175.938, 160.134 175.250 C 159.983 173.837, 157 173.506, 157 174.902 M 182.498 193.250 C 182.256 193.938, 181.707 196.690, 181.278 199.366 C 180.510 204.163, 180.442 204.236, 176.499 204.584 C 174.300 204.778, 170.925 205.587, 169 206.383 C 160.922 209.720, 139.614 216.121, 134.373 216.784 C 128.477 217.530, 126.158 219.362, 127.309 222.364 C 127.785 223.603, 129.266 224, 133.410 224 C 136.419 224, 139.160 223.550, 139.500 223 C 139.840 222.450, 141.190 222, 142.500 222 C 143.810 222, 145.160 221.550, 145.500 221 C 145.840 220.450, 146.895 220, 147.845 220 C 148.796 220, 153.607 218.633, 158.536 216.962 C 163.466 215.291, 169.300 213.417, 171.500 212.797 C 173.700 212.178, 175.762 211.277, 176.083 210.796 C 176.404 210.316, 177.979 209.827, 179.583 209.711 C 182.457 209.503, 182.520 209.609, 183.861 217 C 185.963 228.582, 189.076 234.307, 192.216 232.367 C 193.861 231.350, 190.378 199.973, 187.984 194.250 C 186.972 191.830, 183.237 191.149, 182.498 193.250 M 127.250 211.662 C 126.563 211.940, 125.990 212.692, 125.978 213.333 C 125.966 213.975, 124.504 215.175, 122.728 216 C 118.988 217.738, 117.680 222.279, 120.597 223.399 C 122.530 224.140, 126 221.012, 126 218.528 C 126 217.672, 127.463 215.641, 129.250 214.015 C 132.017 211.498, 132.203 211.066, 130.500 211.108 C 129.400 211.136, 127.938 211.385, 127.250 211.662 M 65.710 233.944 C 61.637 242.664, 61.537 243, 63.021 243 C 63.583 243, 64.574 241.762, 65.223 240.250 C 65.872 238.738, 67.244 236.261, 68.272 234.746 C 70.888 230.893, 72.213 226, 70.640 226 C 69.969 226, 67.750 229.575, 65.710 233.944 M 115.919 233.177 C 115.874 234.455, 115.677 236.625, 115.481 238 C 115.285 239.375, 114.929 243.239, 114.690 246.587 C 114.451 249.935, 113.127 256.235, 111.747 260.587 C 110.368 264.939, 108.945 269.850, 108.585 271.500 C 108.225 273.150, 107.201 275.904, 106.308 277.619 C 104.556 280.989, 105.096 284.284, 107.264 283.452 C 108.001 283.170, 109.100 281.265, 109.707 279.219 C 110.314 277.174, 111.703 273.025, 112.793 270 C 119.121 252.437, 121.712 239.998, 120.188 234.500 C 119.154 230.771, 116.037 229.805, 115.919 233.177 M 175.250 233.534 C 174.563 234.294, 174 235.670, 174 236.592 C 174 238.154, 173.252 241.369, 170.880 250 C 170.351 251.925, 169.784 256.200, 169.620 259.500 C 169.456 262.800, 168.829 266.689, 168.226 268.143 C 167.624 269.596, 167.371 271.704, 167.665 272.827 C 167.959 273.949, 167.672 276.464, 167.028 278.414 C 166.385 280.365, 166.215 282.532, 166.652 283.230 C 167.090 283.929, 167.459 285.175, 167.474 286 C 167.493 287.098, 168.437 287.424, 171 287.214 C 178.698 286.586, 192.214 286.538, 192.584 287.137 C 193.976 289.389, 215.831 288.454, 221.500 285.901 C 222.600 285.405, 224.850 285.112, 226.500 285.250 C 229.362 285.488, 229.514 285.303, 229.808 281.241 C 230.042 278.005, 229.717 276.829, 228.457 276.345 C 227.545 275.995, 226.506 276.145, 226.149 276.677 C 224.318 279.410, 201.579 280.575, 188.500 278.606 C 186.850 278.357, 182.664 278.119, 179.198 278.077 L 172.896 278 173.592 269.250 C 173.975 264.438, 174.605 260.275, 174.992 260 C 175.379 259.725, 175.984 256.008, 176.336 251.740 C 176.688 247.472, 177.494 241.925, 178.126 239.414 C 179.061 235.700, 179.017 234.596, 177.888 233.500 C 176.724 232.370, 176.298 232.375, 175.250 233.534 M 142.676 237.750 C 141.803 239.230, 142.049 248.529, 142.924 247.118 C 143.591 246.043, 143.937 246.226, 144.482 247.943 C 145.339 250.642, 144.270 251.991, 142.876 249.971 C 142.172 248.952, 142.053 250.955, 142.488 256.500 C 143.223 265.853, 143.224 265.999, 142.606 276.732 C 142.346 281.259, 142.541 285.216, 143.041 285.525 C 143.540 285.834, 144.973 283.930, 146.225 281.293 C 148.331 276.855, 148.500 275.159, 148.500 258.403 C 148.500 244.534, 148.179 239.920, 147.128 238.653 C 145.693 236.925, 143.433 236.466, 142.676 237.750 M 50.250 247.662 C 48.492 248.372, 48.688 251, 50.500 251 C 51.333 251, 52 250.111, 52 249 C 52 247.900, 51.888 247.036, 51.750 247.079 C 51.612 247.122, 50.938 247.385, 50.250 247.662 M 187.500 284 C 187.840 284.550, 188.965 285, 190 285 C 191.035 285, 192.160 284.550, 192.500 284 C 192.862 283.415, 191.824 283, 190 283 C 188.176 283, 187.138 283.415, 187.500 284 M 202 284.175 C 202 284.629, 202.900 285.067, 204 285.150 C 205.100 285.233, 206.525 285.345, 207.167 285.400 C 207.808 285.455, 208.482 285.050, 208.663 284.500 C 208.845 283.950, 207.420 283.466, 205.497 283.425 C 203.574 283.384, 202 283.721, 202 284.175" stroke="none" fill="black" fill-rule="evenodd"/>
</svg>