<svg xmlns="http://www.w3.org/2000/svg" width="300" height="300" viewBox="0 0 300 300" version="1.1">
	<path d="M 115.250 12.662 C 113.475 13.378, 113.696 16, 115.531 16 C 116.374 16, 117.322 16.675, 117.638 17.500 C 118.362 19.385, 121 19.477, 121 17.617 C 121 16.856, 122.013 16.040, 123.250 15.803 C 125.900 15.296, 132 16.714, 132 17.836 C 132 18.265, 134.212 18.615, 136.916 18.615 C 139.620 18.615, 142.525 19.191, 143.372 19.894 C 144.219 20.597, 145.369 20.890, 145.928 20.545 C 146.487 20.199, 148.040 20.635, 149.379 21.513 C 150.843 22.472, 152.055 22.720, 152.417 22.135 C 153.175 20.909, 150.345 18, 148.393 18 C 147.588 18, 145.933 17.374, 144.715 16.608 C 143.497 15.842, 137.325 14.489, 131 13.601 C 119.049 11.923, 117.336 11.821, 115.250 12.662 M 86.641 39.771 C 86.301 40.322, 86.692 41.329, 87.511 42.009 C 88.330 42.689, 89 43.917, 89 44.739 C 89 45.816, 89.628 46.050, 91.250 45.578 C 92.487 45.217, 94.963 44.656, 96.750 44.330 C 98.537 44.005, 100 43.257, 100 42.669 C 100 41.983, 100.430 42.030, 101.200 42.800 C 102.550 44.150, 111.667 44.364, 120 43.241 C 125.312 42.525, 125.141 42.476, 115 41.786 C 103.302 40.991, 98.670 40.529, 91.880 39.482 C 89.079 39.050, 87.017 39.164, 86.641 39.771 M 163.892 39.441 C 163.591 39.742, 155.280 40.138, 145.423 40.321 C 131.544 40.578, 127.500 40.947, 127.500 41.955 C 127.500 42.670, 128.442 43.881, 129.593 44.646 C 131.438 45.871, 131.993 45.793, 134.284 43.991 C 136.530 42.224, 138.282 41.953, 147.191 41.992 C 161.725 42.055, 163.543 42.277, 165.724 44.250 C 168.217 46.506, 169.234 46.456, 170.768 44 C 172.356 41.457, 174.060 41.473, 177.351 44.061 C 179.618 45.845, 181.543 46.148, 191.651 46.311 C 203.663 46.505, 205.700 45.842, 202.604 42.747 C 201.477 41.620, 197.178 41.090, 184.809 40.554 C 175.839 40.164, 167.586 39.632, 166.470 39.370 C 165.353 39.108, 164.193 39.140, 163.892 39.441 M 121.247 57.153 C 120.536 57.864, 120.423 58.921, 120.952 59.910 C 121.424 60.791, 122.062 63.760, 122.370 66.506 C 123.003 72.154, 127.001 81.164, 129.763 83.167 C 132.626 85.243, 133.804 89.635, 134.521 100.906 C 135.327 113.584, 135.568 114.325, 138.636 113.555 C 140.786 113.016, 141 113.280, 141 116.481 C 141 120.453, 139.394 121.140, 138.031 117.750 C 137.180 115.632, 137.116 115.676, 136.945 118.500 C 136.845 120.150, 136.836 121.897, 136.926 122.383 C 137.015 122.868, 137.198 126.082, 137.332 129.525 C 137.466 132.967, 138.058 136.395, 138.647 137.142 C 139.236 137.889, 139.995 139.961, 140.333 141.746 C 141.117 145.881, 143.798 150, 145.706 150 C 146.946 150, 147.091 148.439, 146.609 140.250 C 146.294 134.887, 145.609 127.575, 145.085 124 C 144.562 120.425, 144.106 113.450, 144.071 108.500 C 144.037 103.550, 143.590 95.675, 143.079 91 L 142.149 82.500 148.864 75.500 C 159.143 64.786, 159.489 64.294, 158.016 62.519 C 157.322 61.683, 155.536 61, 154.046 61 C 151.916 61, 150.675 62.015, 148.238 65.750 C 146.533 68.362, 142.874 72.936, 140.107 75.914 L 135.075 81.329 133.964 78.414 C 132.275 73.988, 130 64.842, 130 62.478 C 130 58.007, 124.027 54.373, 121.247 57.153 M 124 64.867 C 124 67.515, 128.078 77, 129.217 77 C 129.739 77, 129.926 76.438, 129.632 75.750 C 129.338 75.063, 128.327 71.912, 127.385 68.750 C 125.708 63.119, 124 61.160, 124 64.867 M 145.551 72.344 C 144.148 74.184, 143 76.075, 143 76.546 C 143 77.577, 149.923 70.825, 149.968 69.750 C 150.043 67.993, 147.919 69.240, 145.551 72.344 M 184.255 75.255 C 182.470 77.040, 179.378 80.521, 177.383 82.991 C 173.472 87.833, 168.023 92, 165.603 92 C 162.888 92, 162.043 95.124, 163.997 97.935 C 165.018 99.404, 166.715 105.842, 167.967 113 C 171.619 133.869, 172.761 136.212, 178.836 135.291 C 183.920 134.520, 188.881 130.524, 191.166 125.358 C 193.159 120.852, 195.601 119.698, 196.684 122.750 C 197.025 123.713, 198.811 126.639, 200.652 129.252 C 202.494 131.866, 204 134.238, 204 134.524 C 204 135.649, 209.318 143, 210.133 143 C 213.080 143, 208.706 126.568, 202.567 114.581 C 198.738 107.104, 198 104.751, 198 100.023 C 198 96.920, 197.423 93.593, 196.718 92.629 C 195.543 91.023, 195.164 91.212, 192.218 94.879 C 188.621 99.354, 188.366 101.340, 190.489 108.335 C 191.777 112.581, 191.777 113.556, 190.492 116.335 C 188.240 121.204, 182.497 128.500, 180.916 128.500 C 179.349 128.500, 178.235 122.343, 178.088 112.865 C 178.039 109.765, 177.273 104.977, 176.383 102.224 L 174.767 97.218 179.174 92.859 C 186.859 85.258, 192 78.064, 192 74.910 C 192 70.860, 188.494 71.016, 184.255 75.255 M 112.500 75.856 C 110.088 77.178, 106.519 77.500, 94.301 77.500 C 78.721 77.500, 76.063 78.116, 77.336 81.433 C 77.667 82.295, 79.040 83, 80.387 83 C 81.734 83, 83.542 83.271, 84.404 83.602 C 85.481 84.015, 86.289 83.369, 86.984 81.541 C 87.543 80.071, 88.470 79.173, 89.055 79.534 C 89.638 79.894, 91.223 80.310, 92.579 80.459 C 93.935 80.608, 95.928 81.529, 97.008 82.507 C 98.828 84.154, 99.412 84.176, 105.003 82.810 C 112.641 80.944, 113.292 81.575, 111.981 89.574 C 111.434 92.912, 111.291 102.093, 111.653 110.599 C 112.119 121.507, 111.979 125.895, 111.149 126.408 C 109.298 127.552, 109.815 130.747, 112.552 135.083 C 114.459 138.103, 115.657 139.046, 117.289 138.813 C 120.361 138.373, 120.547 136.075, 120.206 102.750 L 119.912 74 117.706 74.106 C 116.493 74.164, 114.150 74.952, 112.500 75.856 M 184.222 78.367 C 180.373 81.781, 173 90.162, 173 91.124 C 173 93.027, 174.905 91.779, 179.327 86.979 C 183.776 82.149, 186.525 78.155, 185.831 77.531 C 185.649 77.367, 184.925 77.743, 184.222 78.367 M 93.891 89.117 C 92.290 90.831, 90.732 93.418, 90.430 94.867 C 90.128 96.315, 89.462 98.175, 88.951 99 C 83.648 107.553, 81.525 115.695, 83.105 121.417 C 83.995 124.640, 84.473 125.080, 86.796 124.810 C 89.155 124.536, 89.560 123.921, 90.296 119.508 C 90.753 116.763, 91.721 113.838, 92.447 113.008 C 93.173 112.179, 94.482 108.998, 95.356 105.939 C 96.380 102.358, 98.009 99.432, 99.933 97.718 C 101.575 96.254, 103.666 93.614, 104.577 91.851 C 106.140 88.828, 106.132 88.569, 104.426 87.322 C 101.256 85.004, 97.066 85.718, 93.891 89.117 M 92.745 96.123 C 91.803 96.650, 90.299 99.651, 89.404 102.791 C 88.508 105.931, 86.950 109.863, 85.942 111.530 C 84.721 113.548, 84.411 115.047, 85.013 116.021 C 85.597 116.967, 86.232 117.133, 86.808 116.492 C 88.121 115.031, 91 107.244, 91 105.154 C 91 104.161, 92.125 102.292, 93.500 101 C 97.150 97.571, 96.592 93.970, 92.745 96.123 M 114 104.441 C 114 111.389, 115.695 112.611, 116.154 105.993 C 116.537 100.452, 116.280 99, 114.917 99 C 114.412 99, 114 101.448, 114 104.441 M 137.397 100.408 C 137.029 101.366, 137.349 104.029, 138.107 106.325 L 139.486 110.500 139.804 105.610 C 140.135 100.498, 138.620 97.221, 137.397 100.408 M 194.605 112.750 C 194.959 114.263, 195.867 116.159, 196.624 116.964 C 197.816 118.232, 197.996 118.098, 197.968 115.964 C 197.937 113.561, 195.939 110, 194.621 110 C 194.258 110, 194.251 111.237, 194.605 112.750 M 139.929 124.500 C 139.645 128.521, 140.200 132.244, 141.545 135.336 L 142.922 138.500 142.925 133 C 142.929 127.574, 140.250 119.972, 139.929 124.500 M 101.500 155.724 C 97.382 156.736, 97.230 157.454, 97.560 174.272 C 97.735 183.197, 97.913 206.563, 97.955 226.195 C 98.022 257.086, 98.241 262.098, 99.587 263.445 C 101.517 265.374, 103.059 265.409, 105.559 263.581 C 107.359 262.265, 107.517 260.650, 107.730 241.331 C 107.857 229.874, 107.514 215.159, 106.969 208.631 C 105.298 188.630, 104.613 163, 105.748 163 C 106.932 163, 108.030 158.241, 107.290 156.313 C 106.781 154.988, 105.164 154.823, 101.500 155.724 M 206.750 163.521 C 202.821 167.179, 202.953 171.998, 207.926 206.500 C 208.481 210.350, 208.949 219.436, 208.967 226.691 C 208.985 233.946, 209.398 240.128, 209.885 240.429 C 210.371 240.729, 211.071 242.991, 211.441 245.453 C 212.271 250.990, 216.113 260.604, 219.475 265.559 C 220.864 267.605, 222 269.618, 222 270.033 C 222 270.447, 222.752 271.074, 223.670 271.427 C 226.216 272.404, 227.025 269.995, 225.431 266.181 C 224.644 264.297, 224 261.911, 224 260.878 C 224 259.845, 223.550 259, 223 259 C 222.450 259, 222 257.732, 222 256.182 C 222 254.631, 221.356 251.144, 220.568 248.432 C 219.781 245.719, 218.839 241.250, 218.477 238.500 C 218.114 235.750, 217.428 231.925, 216.953 230 C 216.478 228.075, 215.879 221.775, 215.622 216 C 215.365 210.225, 214.694 203.475, 214.130 201 C 212.003 191.663, 211.364 179.253, 212.277 165.025 C 212.561 160.597, 210.495 160.035, 206.750 163.521 M 100.158 169 C 100.158 170.375, 100.385 170.938, 100.662 170.250 C 100.940 169.563, 100.940 168.438, 100.662 167.750 C 100.385 167.063, 100.158 167.625, 100.158 169 M 100.336 175.567 C 100.005 176.429, 100.244 177.644, 100.867 178.267 C 101.711 179.111, 102 178.711, 102 176.700 C 102 173.691, 101.251 173.182, 100.336 175.567 M 133.361 174.773 C 127.324 175.154, 123.816 177.868, 125.984 180.481 C 127.504 182.312, 132.650 182.501, 133.292 180.750 C 133.658 179.750, 134.015 179.750, 135.075 180.750 C 137.085 182.646, 138 182.261, 138 179.519 C 138 177.701, 138.674 176.869, 140.523 176.405 C 144.522 175.401, 156.047 176.958, 156.672 178.587 C 157.490 180.720, 170.839 180.583, 171.664 178.433 C 172.892 175.234, 170.295 174.654, 154.276 174.550 C 145.599 174.494, 136.188 174.594, 133.361 174.773 M 101.158 185 C 101.158 186.375, 101.385 186.938, 101.662 186.250 C 101.940 185.563, 101.940 184.438, 101.662 183.750 C 101.385 183.063, 101.158 183.625, 101.158 185 M 100.891 190.050 C 100.637 193.431, 101.179 214.829, 101.612 218.492 C 101.872 220.688, 102.553 222.938, 103.125 223.492 C 104.435 224.760, 103.201 190.958, 101.887 189.550 C 101.341 188.965, 100.958 189.157, 100.891 190.050 M 180.974 193.993 C 179.177 194.998, 167.493 195.369, 147.424 195.061 C 129.140 194.780, 120.844 196.544, 122.323 200.399 C 123.095 202.411, 125.400 202.457, 127.357 200.500 C 129.179 198.679, 132.666 198.531, 133.279 200.250 C 133.589 201.116, 134.490 200.798, 136.212 199.217 C 138.634 196.994, 139.063 196.952, 152.600 197.599 C 162.429 198.068, 166.982 198.682, 168.147 199.693 C 169.404 200.785, 171.294 200.959, 176.147 200.430 C 183.325 199.647, 186 198.580, 186 196.500 C 186 194.569, 182.800 192.973, 180.974 193.993 M 151.223 204.410 C 149.712 207.727, 151.085 212.491, 153.555 212.496 C 154.607 212.498, 155.620 213.287, 155.807 214.250 C 156.174 216.142, 153.563 216.719, 152.490 214.984 C 152.144 214.425, 151.424 214.238, 150.888 214.569 C 150.353 214.900, 147.435 215.322, 144.404 215.507 C 141.373 215.692, 138.236 216.389, 137.433 217.056 C 136.630 217.722, 133.728 222.885, 130.986 228.529 C 127.057 236.614, 126.007 239.819, 126.032 243.645 C 126.068 249.188, 127.640 251.853, 131.099 252.235 C 133.200 252.467, 133.472 252.125, 133.274 249.500 C 132.880 244.278, 139.601 228.741, 144.496 223.558 C 146.891 221.023, 149.048 218.398, 149.288 217.724 C 150.087 215.491, 151.325 217.932, 152.092 223.251 C 154.827 242.223, 158.535 259.278, 160.950 264 C 161.373 264.825, 162.344 265.500, 163.109 265.500 C 165.327 265.500, 164.686 250.844, 161.666 232.500 C 160.217 223.700, 159.025 213.238, 159.016 209.250 L 159 202 155.661 202 C 153.102 202, 152.064 202.564, 151.223 204.410 M 168.200 227.200 C 166.155 229.245, 166.838 231.988, 169.658 233.060 C 171.120 233.616, 173.836 235.405, 175.693 237.035 C 177.550 238.666, 179.526 240, 180.083 240 C 180.641 240, 182.963 240.902, 185.244 242.004 C 191.588 245.069, 192.660 242.861, 187.080 238.225 C 184.649 236.205, 182.294 234.090, 181.845 233.526 C 176.112 226.310, 175.732 226, 172.611 226 C 170.845 226, 168.860 226.540, 168.200 227.200 M 134.313 227.786 C 132.801 228.747, 130.988 233.472, 131.040 236.315 C 131.072 238.061, 131.443 237.774, 132.889 234.882 C 134.447 231.766, 136.135 226.968, 135.656 227.015 C 135.570 227.024, 134.966 227.370, 134.313 227.786 M 101 236.441 C 101 241.084, 101.403 245.131, 101.895 245.435 C 103.223 246.256, 103.619 244.335, 103.890 235.750 C 104.095 229.275, 103.878 228, 102.568 228 C 101.268 228, 101 229.443, 101 236.441" stroke="none" fill="black" fill-rule="evenodd"/>
</svg>