<svg xmlns="http://www.w3.org/2000/svg" width="300" height="300" viewBox="0 0 300 300" version="1.1">
	<path d="M 205.500 15.178 C 204.400 15.792, 203.331 16.436, 203.123 16.607 C 202.916 16.779, 202.544 18.678, 202.296 20.826 C 201.915 24.125, 202.246 25.048, 204.428 26.765 C 207.286 29.013, 218.238 31.292, 221.735 30.366 C 222.964 30.041, 224.764 30.118, 225.735 30.538 C 226.706 30.958, 231.172 31.442, 235.659 31.613 C 241.894 31.851, 244.105 31.578, 245.034 30.459 C 246.208 29.044, 246.719 24.386, 245.801 23.468 C 245.147 22.814, 222.988 19.023, 219.750 19.010 C 218.238 19.005, 217 18.647, 217 18.216 C 217 17.031, 211.448 13.996, 209.346 14.030 C 208.331 14.047, 206.600 14.563, 205.500 15.178 M 88.009 36.489 C 87.058 37.634, 86.920 44.605, 87.409 66.739 C 88.150 100.271, 88.681 107.490, 90.519 109.016 C 91.549 109.870, 92.387 109.613, 94.076 107.924 C 96.159 105.841, 96.251 105.119, 95.696 95.304 C 95.052 83.940, 94.686 84.915, 101.644 79.463 C 103.374 78.109, 105.421 77, 106.194 77 C 106.967 77, 108.027 76.585, 108.550 76.079 C 109.072 75.572, 112.360 74.201, 115.856 73.033 C 119.351 71.864, 123.176 70.304, 124.356 69.566 C 125.535 68.828, 128.080 67.949, 130.011 67.612 C 134.060 66.905, 139 62.767, 139 60.082 C 139 59.072, 138.325 57.685, 137.501 57.001 C 135.787 55.579, 132.864 56.220, 121.500 60.514 C 117.650 61.969, 112.754 63.588, 110.620 64.114 C 108.487 64.639, 106.012 65.444, 105.120 65.903 C 104.229 66.361, 101.804 67.043, 99.732 67.417 L 95.963 68.097 96.232 52.972 C 96.480 38.981, 96.354 37.739, 94.559 36.423 C 92.056 34.588, 89.566 34.613, 88.009 36.489 M 265 35.695 C 263.625 35.928, 260.700 36.924, 258.500 37.908 C 256.300 38.892, 250.900 40.281, 246.500 40.995 C 242.100 41.709, 238.050 42.564, 237.500 42.896 C 235.286 44.231, 216.766 47.170, 202.500 48.450 C 197.153 48.930, 195.087 49.568, 193.750 51.150 C 191.958 53.271, 191.453 57.619, 192.765 59.620 C 194.048 61.575, 203.722 61.962, 210.824 60.342 C 214.496 59.504, 220.096 58.458, 223.269 58.016 C 226.442 57.575, 229.657 56.700, 230.413 56.072 C 231.169 55.444, 234.106 54.656, 236.939 54.321 L 242.089 53.711 240.850 56.605 C 239.521 59.709, 234.344 66.656, 229.795 71.440 C 228.258 73.057, 227 74.692, 227 75.075 C 227 75.457, 225.881 76.503, 224.513 77.400 C 222.190 78.921, 221.609 78.895, 215.763 77 C 212.318 75.883, 208.719 74.527, 207.764 73.985 C 204.996 72.415, 201.480 72.834, 198.635 75.073 C 193.325 79.249, 196.227 84.434, 204.343 85.272 C 207.331 85.580, 211.163 86.550, 212.859 87.427 C 215.664 88.878, 215.849 89.266, 214.911 91.734 C 214.344 93.226, 213.230 95.133, 212.437 95.973 C 211.643 96.813, 209.405 99.525, 207.462 102 C 205.520 104.475, 202.857 107.793, 201.545 109.374 C 199.135 112.275, 199.120 115, 201.512 115 C 203.786 115, 217 103.709, 217 101.766 C 217 101.346, 219.460 98.442, 222.467 95.312 L 227.934 89.623 241.217 91.392 C 262.652 94.248, 267.063 93.934, 265.426 89.667 C 264.408 87.014, 256.847 84.256, 247.440 83.105 C 239.332 82.113, 236 80.899, 236 78.936 C 236 78.486, 238.305 75.729, 241.122 72.809 C 243.939 69.889, 247.329 65.797, 248.656 63.716 C 249.982 61.635, 252.913 58.035, 255.168 55.716 C 257.423 53.397, 259.932 50.492, 260.743 49.259 C 261.554 48.027, 263.989 46.542, 266.153 45.959 C 271.251 44.586, 273.033 41.226, 270.619 37.541 C 269.703 36.143, 268.627 35.061, 268.227 35.136 C 267.827 35.211, 266.375 35.463, 265 35.695 M 59.581 74.911 C 57.361 77.364, 57.293 86.800, 59.426 96.500 C 60.273 100.350, 60.973 106.723, 60.983 110.662 L 61 117.824 57.003 118.500 C 51.496 119.430, 48.667 121.939, 48.667 125.892 C 48.667 127.654, 49.399 129.828, 50.295 130.723 C 52.014 132.443, 53.333 132.187, 67.500 127.389 C 69.700 126.644, 73.075 126.078, 75 126.131 C 76.925 126.185, 79.850 125.669, 81.500 124.986 C 83.150 124.303, 85.850 123.602, 87.500 123.429 C 92.571 122.896, 101.763 121.041, 104.516 119.994 C 105.954 119.447, 109.110 119, 111.530 119 C 113.950 119, 117.858 118.374, 120.215 117.609 C 122.572 116.844, 126.406 115.940, 128.736 115.599 C 131.066 115.259, 134.441 114.348, 136.236 113.575 C 138.031 112.802, 142.425 111.534, 146 110.757 L 152.500 109.344 152.500 105.531 C 152.500 99.618, 150.665 99.069, 140.254 101.868 C 135.439 103.162, 129.684 104.535, 127.463 104.919 C 125.243 105.304, 122.939 105.920, 122.342 106.289 C 121.745 106.658, 116.586 107.649, 110.878 108.492 C 105.170 109.335, 99.375 110.443, 98 110.955 C 96.625 111.467, 93.700 112.120, 91.500 112.406 C 89.300 112.692, 85.475 113.373, 83 113.919 C 77.618 115.108, 70.037 115.299, 69.906 114.250 C 69.855 113.838, 69.727 106.194, 69.621 97.265 C 69.489 86.091, 69.050 80.650, 68.215 79.815 C 67.547 79.147, 67 77.806, 67 76.835 C 67 75.186, 64.276 73, 62.221 73 C 61.720 73, 60.532 73.860, 59.581 74.911 M 270.500 109.158 C 268.300 109.679, 261.775 110.992, 256 112.077 C 250.225 113.162, 243.250 114.506, 240.500 115.064 C 233.694 116.444, 230.746 116.838, 222 117.534 C 217.875 117.862, 212.925 118.762, 211 119.534 C 209.075 120.307, 205.250 121.381, 202.500 121.923 C 199.750 122.464, 195.479 123.337, 193.009 123.863 C 187.658 125.003, 187.430 124.901, 186.654 121.021 C 185.838 116.940, 183.263 117.102, 179 121.500 C 176.073 124.520, 174.965 125, 170.919 125 C 167.039 125, 165.951 125.425, 164.615 127.465 C 163.727 128.820, 163 131.010, 163 132.330 C 163 135.747, 166.630 140.007, 169.306 139.728 C 171.936 139.455, 171.946 140.019, 169.620 157.500 C 167.241 175.380, 165.236 186.690, 164.054 188.899 C 163.474 189.982, 162.993 191.911, 162.985 193.184 C 162.977 194.458, 162.305 197.410, 161.492 199.745 C 160.094 203.760, 158.374 214.375, 157.318 225.515 C 156.931 229.595, 157.243 231.040, 158.994 233.265 C 161.256 236.141, 164.768 236.832, 166.800 234.800 C 168.076 233.524, 168.251 227.112, 167.119 223.060 C 166.745 221.718, 166.982 218.118, 167.647 215.060 C 168.312 212.002, 169.638 205.675, 170.594 201 C 171.549 196.325, 172.697 191.760, 173.145 190.855 C 173.592 189.950, 174.616 185.675, 175.420 181.355 C 178.986 162.198, 179.918 158.263, 181.785 154.500 C 182.877 152.300, 184.078 148.475, 184.455 146 C 184.831 143.525, 185.607 139.994, 186.179 138.154 C 187.081 135.250, 187.566 134.875, 189.853 135.312 C 191.302 135.589, 196.540 134.711, 201.494 133.361 C 215.881 129.438, 217.430 129.049, 218.750 129.024 C 220.292 128.994, 220.490 138.501, 218.985 140.292 C 215.294 144.685, 211 151.088, 211 152.198 C 211 154.370, 203.466 165.221, 197.553 171.565 C 194.511 174.829, 191.743 178.516, 191.401 179.757 C 190.598 182.675, 193.397 187, 196.089 187 C 198.858 187, 202 185.216, 202 183.645 C 202 182.371, 202.725 181.477, 213.786 169.113 C 216.929 165.600, 219.678 162.225, 219.895 161.613 C 220.113 161.001, 221.505 158.925, 222.990 157 C 224.475 155.075, 226.997 151.323, 228.595 148.662 C 230.193 146.001, 232.255 142.626, 233.177 141.162 C 235.689 137.174, 235.340 134.337, 231.895 130.741 L 228.791 127.500 233.145 126.832 C 235.540 126.465, 240.425 125.421, 244 124.511 C 247.575 123.602, 254.550 122.259, 259.500 121.527 C 272.218 119.646, 276.238 118.116, 277.439 114.697 C 278.098 112.821, 278.082 111.353, 277.390 110.257 C 276.054 108.138, 275.312 108.020, 270.500 109.158 M 113.099 132.750 C 110.223 135.121, 105.983 142.860, 100.543 155.663 C 98.470 160.544, 97.371 160.956, 88.313 160.246 C 81.209 159.690, 79.589 158.762, 81.057 156.089 C 83.244 152.107, 85.997 144.942, 85.968 143.305 C 85.925 140.859, 83.631 138, 81.713 138 C 79.863 138, 74.014 144.781, 73.968 146.978 C 73.951 147.815, 73.276 149.374, 72.468 150.441 C 71.661 151.509, 71 153.034, 71 153.832 C 71 154.629, 70.158 157.130, 69.129 159.390 C 65.245 167.923, 61.103 179.624, 60.807 182.899 C 60.449 186.867, 57.504 189.400, 56.019 187.017 C 55.510 186.202, 55.185 178.327, 55.296 169.517 C 55.455 156.935, 55.175 152.857, 53.991 150.500 C 52.174 146.881, 47.688 145.843, 46.169 148.690 C 45.613 149.731, 45.191 162.825, 45.176 179.500 C 45.161 195.450, 44.605 215.925, 43.941 225 C 42.199 248.804, 42.224 251.124, 44.260 253.898 L 46.020 256.295 66.270 256.150 C 77.407 256.071, 89.870 255.585, 93.965 255.071 C 98.060 254.556, 101.702 254.316, 102.058 254.536 C 102.414 254.756, 103.559 254.290, 104.603 253.500 C 105.646 252.710, 108.667 252.049, 111.316 252.032 C 113.964 252.014, 117.114 251.459, 118.316 250.798 C 119.517 250.136, 124.550 249.281, 129.500 248.897 C 140.309 248.057, 148.017 246.145, 150.452 243.699 C 151.917 242.227, 152.124 240.948, 151.586 236.699 C 151.224 233.840, 150.557 227.171, 150.103 221.879 C 149.649 216.588, 148.887 211.638, 148.410 210.879 C 147.467 209.381, 145.802 174.008, 145.616 151.500 C 145.498 137.254, 145.054 135, 142.370 135 C 139.590 135, 137.816 137.994, 136.282 145.277 C 134.971 151.504, 134.928 154.913, 135.977 170 C 138.028 199.511, 138.804 206.310, 142.411 226.411 C 143.291 231.313, 143.837 235.497, 143.624 235.709 C 143.412 235.922, 140.921 236.290, 138.089 236.529 C 135.258 236.767, 132.084 237.420, 131.036 237.981 C 129.989 238.541, 127.414 239.011, 125.316 239.024 C 123.217 239.037, 119.700 239.522, 117.500 240.101 C 115.300 240.680, 109.675 241.874, 105 242.754 C 89.607 245.650, 58.454 245.792, 55.593 242.978 C 55.056 242.450, 55.941 241.367, 57.764 240.321 C 59.954 239.064, 61.878 236.340, 64.434 230.879 C 66.410 226.658, 68.692 222.948, 69.505 222.636 C 71.388 221.914, 75.925 226.648, 76.644 230.086 C 77.760 235.424, 91.013 240.736, 92.639 236.498 C 93.648 233.868, 92.078 230.160, 89.244 228.478 C 87.735 227.583, 84.980 224.296, 83.123 221.175 C 80.447 216.680, 79.720 214.338, 79.623 209.909 C 79.546 206.411, 80.027 203.681, 80.908 202.616 C 81.682 201.681, 82.357 198.797, 82.408 196.208 C 82.495 191.731, 82.647 191.486, 85.500 191.214 C 90.422 190.744, 101.457 187.857, 102.069 186.878 C 102.381 186.378, 105.978 185.714, 110.061 185.402 C 114.144 185.089, 117.737 184.425, 118.047 183.925 C 118.356 183.425, 120.834 182.713, 123.554 182.344 C 133.497 180.993, 137.554 174.229, 130.651 170.512 C 127.559 168.846, 127.080 168.829, 124.401 170.289 C 119.745 172.826, 112.985 174.940, 106 176.043 C 90 178.571, 88.142 178.968, 75.242 182.619 C 72.349 183.438, 69.537 183.832, 68.992 183.495 C 67.430 182.529, 67.827 180.467, 69.943 178.551 C 71.012 177.584, 72.187 175.377, 72.555 173.646 C 73.521 169.092, 75.787 166.816, 78.113 168.060 C 79.137 168.608, 83.233 169.306, 87.215 169.610 C 91.198 169.915, 94.763 170.353, 95.138 170.585 C 96.370 171.347, 99 169.816, 99 168.337 C 99 167.541, 101.957 163.932, 105.571 160.317 L 112.143 153.746 115.321 156.792 C 118.522 159.859, 127.346 165, 129.408 165 C 130.019 165, 131.085 164.093, 131.777 162.985 C 132.802 161.345, 132.771 160.461, 131.613 158.235 C 129.072 153.351, 121.352 148, 116.846 148 C 114.066 148, 114.625 145.653, 118 143.158 C 120.633 141.211, 121 140.333, 121 135.970 C 121 131.157, 120.909 131, 118.111 131 C 116.522 131, 114.267 131.787, 113.099 132.750 M 240.947 147.058 C 238.887 149.289, 236.921 152.605, 236.580 154.426 C 236.238 156.247, 234.819 159.034, 233.425 160.618 C 232.032 162.203, 228.487 167.119, 225.548 171.543 C 222.608 175.967, 219.483 180.185, 218.602 180.916 C 217.721 181.647, 217 182.676, 217 183.203 C 217 183.730, 215.460 186.487, 213.577 189.331 C 211.694 192.174, 208.945 196.913, 207.468 199.862 C 205.111 204.568, 204.940 205.520, 206.074 207.639 C 207.458 210.225, 210.353 211.370, 214.148 210.833 C 216.231 210.538, 216.500 209.970, 216.500 205.862 C 216.500 203.051, 217.131 200.492, 218.102 199.362 C 218.983 198.338, 220.783 195.664, 222.102 193.420 C 223.421 191.175, 226.620 186.900, 229.211 183.920 C 234.917 177.356, 238.209 172.807, 241.094 167.500 C 242.290 165.300, 243.598 163.275, 244 163 C 245.527 161.956, 248.974 154.016, 249.600 150.097 C 250.297 145.740, 248.994 143, 246.224 143 C 245.382 143, 243.007 144.826, 240.947 147.058 M 255.857 171.857 C 252.723 174.991, 251 177.573, 251 179.135 C 251 180.466, 250.295 182.561, 249.433 183.792 C 248.572 185.022, 245.828 189.959, 243.336 194.764 C 240.844 199.569, 238.504 203.725, 238.137 204 C 237.149 204.740, 226 222.641, 226 223.487 C 226 224.111, 220.536 231.564, 219.026 233 C 217.960 234.013, 214 239.938, 214 240.519 C 214 240.850, 212.425 243.183, 210.500 245.704 C 208.575 248.225, 207 250.709, 207 251.224 C 207 251.740, 205.392 254.584, 203.426 257.546 C 201.285 260.770, 199.982 263.847, 200.176 265.215 C 200.451 267.153, 201.098 267.500, 204.434 267.500 C 208.089 267.500, 208.549 267.168, 210.934 262.805 C 212.345 260.223, 215.150 255.723, 217.166 252.805 C 219.183 249.887, 222.783 244.294, 225.166 240.375 C 227.550 236.457, 232.200 229.323, 235.500 224.523 C 238.800 219.723, 242.625 214.119, 244 212.069 C 245.375 210.019, 247.400 207.401, 248.500 206.250 C 249.600 205.100, 252.669 199.960, 255.319 194.829 C 257.970 189.698, 260.494 184.825, 260.927 184 C 261.361 183.175, 262.455 181.081, 263.358 179.346 C 266.005 174.262, 265.353 167, 262.250 167 C 261.405 167, 258.529 169.186, 255.857 171.857 M 103.500 206.954 C 95.519 217.711, 92.500 222.564, 92.500 224.639 C 92.500 226.377, 93.031 227.500, 93.853 227.500 C 95.851 227.500, 101.795 222.773, 102.341 220.750 C 103.083 218, 104.759 218.689, 106.560 222.484 C 108.373 226.306, 112.714 229.407, 117.739 230.469 C 119.520 230.846, 121.234 231.569, 121.548 232.077 C 121.861 232.585, 123.441 233, 125.059 233 C 127.652 233, 128 232.649, 128 230.039 C 128 226.598, 125.131 223.528, 120.480 221.993 C 118.723 221.414, 115.889 219.200, 114.181 217.075 L 111.075 213.211 113.288 210.781 C 120.514 202.843, 121.685 200.613, 121.027 196.044 C 120.766 194.228, 117.995 192.053, 116 192.097 C 115.175 192.115, 109.550 198.801, 103.500 206.954 M 66.136 196.618 C 65.282 197.583, 63.903 197.941, 62.446 197.576 C 60.844 197.174, 59.271 197.723, 57.391 199.340 C 54.809 201.561, 54.592 202.437, 53.369 215.582 C 52.541 224.479, 52.422 229.822, 53.038 230.438 C 54.510 231.910, 55.667 230.214, 58.466 222.480 C 59.855 218.641, 61.669 215, 62.496 214.390 C 63.323 213.779, 64 212.767, 64 212.140 C 64 211.513, 64.413 211, 64.917 211 C 66.051 211, 72 198.965, 72 196.671 C 72 194.533, 68.012 194.497, 66.136 196.618" stroke="none" fill="black" fill-rule="evenodd"/>
</svg>