<svg xmlns="http://www.w3.org/2000/svg" width="300" height="300" viewBox="0 0 300 300" version="1.1">
	<path d="M 112 17.421 C 112 18.289, 112.658 19, 113.461 19 C 114.775 19, 116.179 22.561, 117.174 28.417 C 117.353 29.472, 118.063 30.522, 118.750 30.750 C 119.665 31.055, 120 29.417, 120 24.642 C 120 17.549, 120.005 17.558, 115.250 16.538 C 112.661 15.983, 112 16.162, 112 17.421 M 111.334 42.803 C 111.247 53.500, 110.767 58.919, 109.607 62.338 C 106.604 71.182, 107.916 78, 112.621 78 L 115.172 78 115.031 68.750 C 114.786 52.695, 115.529 47.198, 118.324 44.404 C 120.630 42.097, 120.902 42.045, 122.463 43.606 C 125.172 46.315, 135.717 44.877, 142.825 40.829 C 145.946 39.052, 149.063 37.045, 149.750 36.370 C 153.113 33.068, 148.968 29.705, 144.796 32.349 C 142.095 34.061, 126.827 38, 122.893 38 C 121.393 38, 119.995 38.515, 119.786 39.143 C 119.502 39.995, 118.843 39.986, 117.202 39.108 C 115.387 38.137, 115 37.058, 115 32.965 C 115 28.879, 114.686 28, 113.227 28 C 111.616 28, 111.444 29.345, 111.334 42.803 M 112.079 32.583 C 112.127 33.748, 112.364 33.985, 112.683 33.188 C 112.972 32.466, 112.936 31.603, 112.604 31.271 C 112.272 30.939, 112.036 31.529, 112.079 32.583 M 209.174 37.314 C 207.944 38.624, 207 40.925, 207 42.614 C 207 44.257, 206.582 46.028, 206.071 46.550 C 203.440 49.241, 202.418 72.110, 203.302 108.500 C 203.409 112.900, 203.333 127.075, 203.132 140 C 202.932 152.925, 202.811 174.300, 202.864 187.500 C 202.917 200.700, 202.727 214.963, 202.443 219.195 C 201.966 226.287, 202.091 226.979, 204.045 228.024 C 205.781 228.953, 206.414 228.828, 207.550 227.329 C 208.313 226.323, 208.951 224.938, 208.968 224.250 C 208.998 223.060, 210.270 222.856, 219.249 222.605 C 222.994 222.500, 224.334 223.646, 221.500 224.531 C 220.675 224.789, 219.250 225.240, 218.333 225.533 C 217.292 225.866, 217.019 226.419, 217.606 227.006 C 218.194 227.594, 221.917 227.373, 227.523 226.418 C 232.461 225.577, 238.044 224.654, 239.931 224.365 C 242.471 223.978, 242.990 223.607, 241.931 222.936 C 240.994 222.344, 242.573 222.074, 246.500 222.157 C 252.133 222.276, 252.255 222.328, 248.500 223 C 245.182 223.594, 245.826 223.740, 252.282 223.858 C 256.562 223.936, 261.512 224.602, 263.282 225.337 C 266.980 226.873, 276.894 226.163, 279.269 224.191 C 280.082 223.517, 281.366 223.194, 282.123 223.472 C 285.511 224.719, 286.155 222.480, 286.876 206.931 C 287.577 191.835, 287.039 182.380, 284.918 172.500 C 283.183 164.418, 283.067 164.215, 281.461 166.397 C 280.693 167.441, 280.257 168.606, 280.492 168.987 C 280.862 169.586, 279.759 186.970, 278.461 201 C 278.233 203.475, 277.244 207.975, 276.265 211 L 274.484 216.500 270.492 216.251 C 251.120 215.043, 236.483 214.935, 230.421 215.955 C 226.614 216.595, 220.931 217.330, 217.791 217.587 C 212.670 218.006, 211.935 217.820, 210.656 215.777 C 209.229 213.499, 207.609 200.640, 208.845 201.404 C 209.205 201.627, 209.208 196.790, 208.852 190.655 C 208.496 184.520, 208.428 179.133, 208.702 178.685 C 209.314 177.680, 209.376 169.641, 208.907 152 C 208.709 144.575, 208.932 137.887, 209.402 137.138 C 209.918 136.316, 209.809 135.500, 209.127 135.078 C 208.299 134.567, 208.281 132.845, 209.063 128.620 C 209.864 124.286, 209.832 122.502, 208.934 121.421 C 208.222 120.563, 207.974 118.546, 208.319 116.421 C 208.637 114.462, 208.454 111.693, 207.911 110.267 C 207.217 108.442, 207.270 107.352, 208.088 106.587 C 208.878 105.848, 209.374 105.833, 209.638 106.540 C 209.852 107.112, 212.158 107.472, 214.763 107.340 C 217.368 107.209, 220.963 107.078, 222.750 107.051 C 225.545 107.007, 226 106.647, 226 104.475 C 226 101.683, 227.748 100.716, 234.750 99.633 C 239.487 98.901, 240.774 100.567, 236.250 101.574 C 230.994 102.744, 230 103.140, 230 104.067 C 230 105.248, 232.486 105.258, 236.429 104.092 C 238.118 103.593, 242.200 102.388, 245.500 101.415 C 248.800 100.443, 251.928 99.276, 252.450 98.823 C 252.972 98.370, 254.374 98, 255.565 98 C 256.756 98, 258.874 97.100, 260.273 96 C 261.671 94.900, 263.384 94, 264.079 94 C 264.774 94, 266.151 93.268, 267.139 92.374 C 268.506 91.137, 268.696 90.300, 267.933 88.874 C 266.580 86.347, 262.070 86.457, 256.195 89.161 C 253.613 90.350, 249.925 91.667, 248 92.088 C 246.075 92.510, 241.350 93.590, 237.500 94.489 C 233.650 95.388, 226.013 96.958, 220.529 97.976 C 215.044 98.995, 210.394 100.317, 210.195 100.914 C 209.996 101.511, 209.133 102, 208.277 102 C 206.966 102, 206.832 101.091, 207.429 96.250 C 207.819 93.088, 208.271 85.550, 208.434 79.500 C 208.828 64.864, 209.719 58.316, 211.971 53.500 C 214.331 48.452, 216.471 38.669, 215.671 36.585 C 214.791 34.291, 211.687 34.640, 209.174 37.314 M 79.532 42.965 C 78.204 44.432, 77.955 45.635, 78.549 47.715 C 79.434 50.812, 79.180 73.278, 78.157 82.310 L 77.500 88.120 71.500 90.310 C 68.200 91.515, 63.346 93.850, 60.714 95.500 C 56.821 97.940, 55.982 98.966, 56.214 101 C 56.631 104.643, 60.082 104.788, 62.075 101.246 C 63.634 98.477, 75.008 92, 78.314 92 C 80.582 92, 81.259 93.647, 79.977 96.043 C 78.510 98.783, 80.498 101.662, 82.633 99.890 C 84.232 98.563, 84.474 95, 82.965 95 C 82.281 95, 82.254 94.394, 82.885 93.215 C 83.646 91.792, 84.874 91.489, 88.920 91.722 C 91.714 91.883, 94 91.611, 94 91.117 C 94 90.623, 95.463 89.984, 97.250 89.696 C 99.037 89.409, 103.027 88.249, 106.116 87.120 C 112.063 84.946, 119.500 83.946, 119.500 85.320 C 119.500 88.166, 128.252 87.476, 142.500 83.508 C 146.153 82.490, 150.306 82.039, 153.117 82.355 C 160.489 83.184, 164.324 79.414, 160.047 75.542 C 158.291 73.953, 157.256 73.884, 149.797 74.859 C 140.325 76.097, 133.247 77.407, 124.162 79.604 C 120.677 80.448, 115.809 81.302, 113.345 81.502 C 110.881 81.703, 108.302 82.334, 107.614 82.905 C 106.926 83.476, 103.919 84.421, 100.932 85.005 C 97.944 85.590, 94.036 86.799, 92.247 87.693 C 88.207 89.711, 83.327 88.160, 84.486 85.227 C 84.862 84.277, 85.527 78.402, 85.964 72.170 C 86.401 65.939, 87.263 60.337, 87.880 59.720 C 88.496 59.104, 89 56.466, 89 53.857 C 89 50.285, 88.518 48.776, 87.047 47.745 C 85.973 46.993, 84.634 45.168, 84.072 43.689 C 82.854 40.487, 81.911 40.336, 79.532 42.965 M 132.813 42.683 C 133.534 42.972, 134.397 42.936, 134.729 42.604 C 135.061 42.272, 134.471 42.036, 133.417 42.079 C 132.252 42.127, 132.015 42.364, 132.813 42.683 M 83.079 59.583 C 83.127 60.748, 83.364 60.985, 83.683 60.188 C 83.972 59.466, 83.936 58.603, 83.604 58.271 C 83.272 57.939, 83.036 58.529, 83.079 59.583 M 114 89 C 112.718 89.828, 112.754 89.972, 114.250 89.985 C 115.213 89.993, 116 89.550, 116 89 C 116 87.780, 115.887 87.780, 114 89 M 97.273 91.888 C 95.498 92.775, 94.035 93.760, 94.023 94.077 C 93.993 94.821, 99.902 94.107, 102.500 93.052 C 109.893 90.050, 109.791 90.166, 105 90.223 C 102.525 90.252, 99.048 91.002, 97.273 91.888 M 87.177 95.667 C 87.663 98.176, 90 98.520, 90 96.083 C 90 94.855, 89.354 94, 88.427 94 C 87.495 94, 86.985 94.680, 87.177 95.667 M 66 100.500 C 66 101.325, 66.620 102, 67.378 102 C 68.135 102, 69.315 101.325, 70 100.500 C 71.053 99.232, 70.840 99, 68.622 99 C 66.958 99, 66 99.548, 66 100.500 M 139.316 106.250 C 138.199 107.487, 136.143 110.975, 134.748 114 C 133.353 117.025, 130.436 123.325, 128.266 128 C 126.096 132.675, 124.006 137.769, 123.623 139.321 C 122.830 142.532, 120.661 142.437, 120.180 139.172 C 120.005 137.977, 119.465 137, 118.982 137 C 118.499 137, 117.004 135.988, 115.661 134.750 C 114.318 133.512, 111.796 131.238, 110.057 129.695 C 106.733 126.747, 106.620 125.554, 108.644 114.750 C 108.947 113.130, 108.715 112, 108.079 112 C 107.486 112, 107 111.555, 107 111.012 C 107 110.468, 108.013 110.131, 109.250 110.262 C 111.047 110.452, 111.500 109.997, 111.500 108 C 111.500 106.142, 110.901 105.415, 109.168 105.170 C 105.995 104.720, 103 107.673, 103 111.251 C 103 112.868, 102.166 115.386, 101.146 116.846 C 100.126 118.306, 98.968 120.850, 98.572 122.500 C 98.176 124.150, 97.047 126.400, 96.064 127.500 C 94.098 129.701, 93.067 132.388, 89.385 144.920 C 87.354 151.830, 87.144 153.572, 88.211 154.640 C 91.127 157.556, 96 153.041, 96 147.423 C 96 146.225, 96.631 144.721, 97.402 144.081 C 98.173 143.442, 99.109 141.701, 99.482 140.215 C 100.908 134.533, 102.775 133.879, 107.935 137.254 C 109.824 138.489, 112.524 140.255, 113.935 141.177 C 115.346 142.099, 117.287 142.887, 118.250 142.927 C 119.604 142.983, 120 143.880, 120 146.893 C 120 150.805, 121.578 152.496, 124.250 151.446 C 126.127 150.709, 133.894 136.821, 134.614 132.913 C 135.214 129.658, 135.170 129.593, 133.654 131.500 C 132.094 133.462, 132.063 133.451, 132.032 130.917 C 132.014 129.496, 132.248 128.086, 132.550 127.783 C 133.405 126.928, 140.422 128.765, 140.816 129.947 C 141.355 131.566, 143.711 131.195, 144.407 129.383 C 144.919 128.047, 145.414 128.266, 147.245 130.633 C 148.465 132.210, 149.809 133.650, 150.232 133.833 C 150.654 134.017, 151.003 134.692, 151.006 135.333 C 151.014 136.803, 156.533 140, 159.062 140 C 160.230 140, 161.138 140.866, 161.418 142.250 C 162.418 147.178, 162.711 155.611, 161.948 157.500 C 161.249 159.232, 161.131 159.262, 161.070 157.725 C 160.930 154.192, 156.599 153.851, 146.216 156.552 C 131.016 160.508, 123.945 162.014, 118 162.560 C 114.975 162.838, 111.211 163.495, 109.635 164.021 C 108.059 164.546, 106.346 164.714, 105.828 164.394 C 103.672 163.061, 100.131 165.016, 99.816 167.713 C 99.595 169.611, 98.753 170.627, 97 171.111 C 95.428 171.544, 95.150 171.838, 96.250 171.900 C 99.872 172.107, 97.721 186.992, 92.885 195.196 C 91.298 197.886, 90 200.338, 90 200.643 C 90 200.948, 89.378 202.616, 88.617 204.349 C 84.313 214.158, 84.164 217, 87.956 217 C 90.147 217, 93.298 212.559, 96.469 205 C 99.760 197.157, 100.149 197.055, 106.565 202.336 C 109.680 204.901, 112.876 207, 113.666 207 C 114.456 207, 115.760 208.575, 116.564 210.500 C 118.186 214.382, 119.458 214.768, 122.832 212.405 C 124.090 211.524, 126.091 211.050, 127.304 211.346 C 128.512 211.641, 130.327 211.268, 131.338 210.517 C 133.880 208.628, 133.089 205.500, 130.070 205.500 C 126.745 205.500, 126.549 203.943, 129.353 199.812 C 130.674 197.865, 132.293 194.642, 132.951 192.650 C 134.332 188.463, 135.861 187.153, 137.069 189.122 C 139.668 193.358, 141.255 194.746, 142.983 194.294 C 144.295 193.951, 145.287 194.651, 146.327 196.653 C 147.887 199.657, 152.180 203.229, 158 206.365 C 162.323 208.694, 163.165 209.883, 162.498 212.721 C 162.211 213.942, 162.387 216.766, 162.888 218.997 C 164.384 225.656, 163.662 226.634, 155.962 228.372 C 149.813 229.761, 147.901 229.765, 137.305 228.411 C 116.767 225.788, 86.694 228.042, 72.718 233.254 C 67.974 235.023, 66.763 236.219, 67.574 238.333 C 68.414 240.521, 70.162 240.437, 74.500 238 C 76.458 236.900, 78.835 236.015, 79.780 236.033 C 81.198 236.061, 81.086 236.412, 79.139 238.033 L 76.778 240 80.267 240 C 82.185 240, 84.309 239.332, 84.987 238.516 C 85.758 237.586, 87.950 237.042, 90.859 237.057 C 93.412 237.071, 98.875 236.934, 103 236.754 C 107.125 236.573, 113.957 236.330, 118.183 236.213 C 124.959 236.025, 125.942 235.757, 126.518 233.943 C 127.024 232.350, 127.867 231.955, 130.258 232.193 C 134.105 232.575, 135.250 235, 131.583 235 C 127.799 235, 128.423 236.919, 132.250 237.051 C 152.258 237.738, 164.996 236.543, 169.564 233.550 C 172.339 231.732, 172.717 228.469, 170.516 225.326 C 169.339 223.645, 169.258 222.559, 170.124 220.073 C 170.889 217.879, 170.906 216.122, 170.181 214.219 C 168.399 209.543, 167.722 201.919, 168.032 190 C 168.405 175.602, 168.434 177.307, 167.513 159.500 C 166.254 135.146, 166.295 128, 167.696 128 C 168.374 128, 169.395 127.130, 169.965 126.066 C 171.142 123.865, 171.349 111.077, 170.235 109.385 C 168.760 107.146, 165.335 106.908, 162.906 108.875 C 160.557 110.777, 160.551 110.834, 162.280 114.460 C 163.852 117.757, 163.875 118.340, 162.513 120.284 C 161.591 121.602, 161 124.676, 161 128.163 C 161 131.309, 160.530 134.172, 159.956 134.527 C 159.381 134.882, 156.417 132.659, 153.369 129.586 C 150.321 126.514, 146.998 124, 145.985 124 C 143.457 124, 141 121.327, 141 118.578 C 141 117.324, 142.148 114.139, 143.550 111.501 C 144.953 108.863, 145.867 106.096, 145.582 105.352 C 144.787 103.282, 141.582 103.742, 139.316 106.250 M 73.999 125.800 C 71.875 127.520, 71.622 128.631, 71.317 137.599 C 71.132 143.045, 70.914 148.175, 70.833 149 C 70.751 149.825, 70.756 153.988, 70.842 158.250 C 70.956 163.852, 71.346 165.931, 72.250 165.750 C 73.977 165.405, 74.780 162.466, 74.916 156 C 74.989 152.489, 75.343 150.993, 75.894 151.863 C 76.623 153.014, 76.842 153.014, 77.300 151.863 C 77.678 150.913, 77.866 151.030, 77.921 152.250 C 77.964 153.213, 77.529 154, 76.953 154 C 76.289 154, 76.061 156.364, 76.330 160.480 C 76.776 167.296, 75.716 169.596, 72.669 168.426 C 71.006 167.788, 69.862 170.538, 70.141 174.500 C 70.219 175.600, 69.954 188.088, 69.552 202.250 C 68.824 227.931, 68.828 228, 70.911 228 C 72.490 228, 73.033 227.329, 73.136 225.250 C 73.257 222.805, 73.321 222.756, 73.714 224.809 C 74.038 226.511, 74.727 227.037, 76.327 226.809 C 78.149 226.549, 78.454 225.937, 78.215 223.021 C 78.059 221.108, 77.271 218.536, 76.465 217.307 C 75.602 215.989, 75.003 212.694, 75.008 209.285 C 75.018 201.325, 76.761 186.839, 77.838 185.762 C 78.326 185.274, 78.509 181.864, 78.245 178.182 L 77.766 171.488 81.633 169.817 C 83.760 168.898, 88.093 167.836, 91.263 167.456 C 97.029 166.766, 99.013 165.613, 97.330 163.930 C 96.514 163.114, 89.689 163.836, 81.599 165.595 L 78.697 166.225 79.297 161.850 C 79.627 159.444, 79.494 155.690, 79.002 153.507 C 78.294 150.368, 78.440 149.171, 79.702 147.777 C 82.051 145.181, 80.931 128.487, 78.226 125.782 C 76.384 123.940, 76.296 123.940, 73.999 125.800 M 73.380 133.452 C 73.074 134.251, 73.114 135.376, 73.470 135.952 C 74.635 137.837, 76 137.053, 76 134.500 C 76 131.789, 74.282 131.102, 73.380 133.452 M 74 147 C 74 147.550, 74.450 148, 75 148 C 75.550 148, 76 147.550, 76 147 C 76 146.450, 75.550 146, 75 146 C 74.450 146, 74 146.450, 74 147 M 160.092 161.390 C 159.402 162.220, 156.492 162.999, 153.199 163.234 C 150.065 163.457, 145.475 164.362, 143 165.244 C 136.170 167.678, 126.763 169.163, 125.591 167.991 C 124.936 167.336, 125.027 167, 125.859 167 C 126.551 167, 126.879 166.613, 126.586 166.139 C 126.081 165.323, 113.982 165.755, 113.067 166.623 C 111.963 167.668, 115.352 169.400, 118.500 169.400 C 120.425 169.400, 122 169.760, 122 170.200 C 122 170.640, 119.750 171, 117 171 C 113.389 171, 111.462 171.538, 110.065 172.935 C 108.278 174.722, 106.019 180.761, 106.006 183.785 C 106.003 184.492, 105.236 186.237, 104.301 187.663 C 102.627 190.218, 102.653 190.297, 106.051 193.098 C 107.948 194.662, 111.130 197.304, 113.122 198.970 C 117.603 202.719, 119.458 202.783, 121.243 199.250 C 122.007 197.738, 123.128 195.600, 123.734 194.500 C 125.577 191.157, 129 183.082, 129 182.079 C 129 181.560, 130.321 180.196, 131.935 179.046 C 134.057 177.535, 134.819 176.220, 134.685 174.298 C 134.445 170.857, 138.984 167.857, 141.741 169.633 C 143.797 170.957, 143.607 172.997, 140.917 178.500 C 139.085 182.248, 139.070 182.563, 140.677 183.500 C 141.621 184.050, 145.981 188.213, 150.366 192.750 C 155.336 197.892, 159.124 200.999, 160.420 200.997 C 162.457 200.994, 162.500 200.582, 162.500 181.082 C 162.500 170.130, 162.227 160.895, 161.893 160.561 C 161.558 160.226, 160.748 160.599, 160.092 161.390 M 88 172 C 88 172.550, 89.098 173, 90.441 173 C 91.784 173, 93.160 172.550, 93.500 172 C 93.861 171.417, 92.844 171, 91.059 171 C 89.377 171, 88 171.450, 88 172 M 81 173 C 81 173.550, 82.125 174, 83.500 174 C 84.875 174, 86 173.550, 86 173 C 86 172.450, 84.875 172, 83.500 172 C 82.125 172, 81 172.450, 81 173 M 72.768 174.663 C 72.516 175.123, 72.578 177.975, 72.905 181 C 73.585 187.285, 75.268 186.372, 75.177 179.768 C 75.124 175.884, 73.723 172.916, 72.768 174.663 M 100.384 179.321 C 99.020 182.181, 98.890 183.290, 99.810 184.210 C 100.554 184.954, 101.326 185.044, 101.871 184.450 C 103.304 182.887, 103.979 178.585, 103.032 177.052 C 102.353 175.954, 101.738 176.481, 100.384 179.321 M 131.639 184.694 C 130.444 185.889, 130.994 188, 132.500 188 C 133.325 188, 134 187.352, 134 186.559 C 134 184.888, 132.573 183.761, 131.639 184.694 M 232.667 220.667 C 231.288 222.046, 232.087 223, 234.622 223 C 236.840 223, 237.053 222.768, 236 221.500 C 234.645 219.868, 233.702 219.632, 232.667 220.667 M 255.676 222.222 C 255.029 222.633, 256.376 222.976, 258.668 222.985 C 260.961 222.993, 263.548 223.273, 264.418 223.607 C 265.288 223.941, 266 223.761, 266 223.208 C 266 221.993, 257.336 221.165, 255.676 222.222 M 100 233.500 C 98.980 234.729, 99.049 235, 100.378 235 C 101.270 235, 102 234.325, 102 233.500 C 102 232.675, 101.830 232, 101.622 232 C 101.415 232, 100.685 232.675, 100 233.500 M 112.218 233.154 C 112.737 234.712, 114.974 234.984, 115.053 233.500 C 115.082 232.950, 114.355 232.345, 113.438 232.154 C 112.395 231.939, 111.938 232.313, 112.218 233.154 M 84 235 C 82.793 235.780, 82.951 235.972, 84.809 235.985 C 86.097 235.993, 86.845 235.558, 86.500 235 C 85.757 233.798, 85.861 233.798, 84 235" stroke="none" fill="black" fill-rule="evenodd"/>
</svg>