<svg xmlns="http://www.w3.org/2000/svg" width="300" height="300" viewBox="0 0 300 300" version="1.1">
	<path d="M 197.360 40.195 C 196.905 40.913, 196.301 45.550, 196.017 50.500 L 195.500 59.500 190.500 60.174 C 187.750 60.544, 183.025 61.789, 180 62.939 C 176.060 64.437, 173.327 64.856, 170.364 64.419 C 161.993 63.181, 159.021 68.256, 166.778 70.544 C 172.144 72.126, 180.173 71.678, 187.430 69.391 C 190.873 68.305, 193.358 67.987, 193.888 68.563 C 194.362 69.078, 195.047 76.529, 195.410 85.120 L 196.069 100.740 191.785 102.276 C 189.428 103.120, 185.700 104.509, 183.500 105.362 C 181.300 106.215, 178.064 106.932, 176.309 106.956 C 174.554 106.980, 172.829 107.468, 172.475 108.041 C 172.121 108.613, 170.967 108.807, 169.911 108.472 C 167.735 107.781, 166.403 110.003, 167.414 112.636 C 167.982 114.116, 168.239 114.093, 170.111 112.399 C 172.136 110.567, 172.213 110.569, 173.705 112.513 C 174.760 113.888, 175.374 114.115, 175.698 113.250 C 176.371 111.455, 178 111.708, 178 113.608 C 178 114.770, 178.625 115.067, 180.250 114.677 C 181.488 114.380, 184.300 113.817, 186.500 113.426 C 188.700 113.036, 191.388 112.105, 192.473 111.358 C 194.998 109.619, 198.565 109.619, 200.189 111.358 C 201.247 112.490, 201.631 112.368, 202.502 110.621 C 203.664 108.290, 208.229 107.151, 216.782 107.058 C 219.687 107.026, 223.737 106.245, 225.782 105.322 C 227.827 104.400, 230.610 103.612, 231.967 103.572 C 235.348 103.473, 237.161 98.733, 234.744 96.315 C 233.206 94.777, 232.537 94.813, 225.175 96.831 C 220.821 98.024, 214.726 99, 211.630 99 C 208.533 99, 206 99.450, 206 100 C 206 101.717, 203.163 101.092, 202.600 99.250 C 202.306 98.287, 202.541 94.800, 203.122 91.500 C 203.703 88.200, 204.285 82.350, 204.416 78.500 C 204.745 68.833, 205.736 67.328, 212.233 66.628 C 215.130 66.317, 219.139 66.063, 221.142 66.065 C 224.856 66.068, 233.996 61.512, 234.737 59.288 C 234.950 58.650, 233.971 57.372, 232.562 56.449 C 230.289 54.959, 229.746 54.935, 227.750 56.230 C 226.423 57.091, 221.552 57.963, 215.882 58.356 C 205.298 59.089, 203.219 58.248, 204.361 53.697 C 204.688 52.394, 204.328 50.486, 203.544 49.367 C 202.773 48.266, 201.998 45.599, 201.821 43.441 C 201.488 39.364, 199.022 37.570, 197.360 40.195 M 92.750 48.696 C 91.787 48.944, 91 49.564, 91 50.073 C 91 50.583, 90.567 51, 90.039 51 C 89.207 51, 83.220 56.449, 66.688 72.250 C 64.530 74.313, 62.428 76, 62.017 76 C 61.606 76, 58.959 77.880, 56.135 80.177 C 52.724 82.951, 51 85.106, 51 86.596 C 51 89.747, 54.211 95.011, 55.964 94.733 C 56.769 94.605, 57.600 95.341, 57.810 96.368 C 58.030 97.442, 57.764 97.972, 57.185 97.615 C 56.083 96.934, 58.057 106.665, 59.491 108.986 C 59.954 109.734, 60.438 111.506, 60.567 112.923 C 62.480 133.972, 65.943 148.500, 69.049 148.500 C 69.925 148.500, 70.391 147.708, 70.224 146.500 C 70.073 145.400, 69.785 138.200, 69.584 130.500 C 69.383 122.800, 68.785 115.150, 68.255 113.500 C 66.951 109.442, 67.915 107.563, 71.500 107.178 C 73.150 107.001, 77.875 105.799, 82 104.507 C 86.125 103.215, 92.088 101.865, 95.250 101.507 C 100.767 100.883, 101 100.739, 101 97.979 L 101 95.102 92.342 95.526 C 87.580 95.759, 82.149 96.456, 80.274 97.075 C 78.398 97.694, 73.920 98.268, 70.321 98.350 L 63.779 98.500 62.221 93.679 C 60.266 87.629, 61.243 84.540, 66.031 81.639 C 74.545 76.481, 75.988 75.440, 75.994 74.456 C 75.997 73.882, 78.496 70.732, 81.548 67.456 C 84.599 64.180, 87.358 60.247, 87.680 58.714 C 88.342 55.557, 90.781 53.883, 94.184 54.250 C 96.133 54.460, 96.500 54.038, 96.500 51.583 C 96.500 48.548, 95.703 47.934, 92.750 48.696 M 208.208 62.676 C 207.243 63.063, 207.199 63.535, 208.034 64.541 C 208.898 65.582, 209.703 65.637, 211.576 64.783 C 212.909 64.176, 214 63.301, 214 62.839 C 214 61.934, 210.316 61.830, 208.208 62.676 M 110.750 70.068 C 108.437 71.289, 107 72.772, 107 73.939 C 107 75.568, 107.912 75.876, 113.602 76.165 C 120.706 76.525, 123.560 75.696, 121 74.015 C 119.782 73.216, 119.923 73.028, 121.750 73.015 C 123.014 73.007, 124 73.611, 124 74.393 C 124 75.892, 126.091 77, 128.921 77 C 131.347 77, 133.135 81.342, 133.751 88.729 C 134.148 93.489, 133.944 95.075, 132.885 95.452 C 132.123 95.723, 127.007 96.389, 121.516 96.932 C 114.002 97.675, 111.219 98.348, 110.266 99.651 C 107.231 103.801, 110.604 106.660, 114.365 103.127 C 117.110 100.548, 119.193 100.370, 118.794 102.749 C 118.562 104.128, 119.294 104.543, 122.250 104.707 C 125.785 104.904, 126 104.746, 126 101.958 C 126 99.667, 126.451 99, 128 99 C 129.100 99, 130 99.450, 130 100 C 130 100.550, 129.550 101, 129 101 C 128.450 101, 128 101.450, 128 102 C 128 103.377, 131.340 103.260, 132.767 101.833 C 134.914 99.686, 135.390 103.944, 134.060 113.410 C 133.358 118.410, 132.580 122.838, 132.333 123.250 C 132.085 123.662, 130.559 124, 128.941 124 C 127.323 124, 126 124.450, 126 125 C 126 125.550, 123.927 126, 121.393 126 C 118.859 126, 113.797 126.658, 110.143 127.462 C 106.489 128.266, 97.504 129.616, 90.176 130.464 C 76.874 132.002, 74 133.058, 74 136.410 C 74 138.738, 78.715 139.568, 80.869 137.619 C 83.188 135.520, 86.791 135.342, 85.074 137.411 C 83.176 139.697, 85.590 140.342, 90.556 138.875 C 93 138.154, 95 136.987, 95 136.282 C 95 135.577, 95.675 135, 96.500 135 C 97.325 135, 98 135.691, 98 136.535 C 98 137.674, 98.451 137.838, 99.750 137.168 C 100.713 136.672, 103.071 136.233, 104.991 136.193 C 108.507 136.120, 120.374 133.769, 127.156 131.802 C 129.166 131.219, 132.368 131.034, 134.270 131.391 C 136.892 131.883, 138.307 131.569, 140.115 130.096 C 142.483 128.165, 142.487 128.128, 140.696 124.769 C 139.043 121.667, 139.016 121.016, 140.377 116.943 C 141.194 114.499, 141.972 110.250, 142.108 107.500 C 142.243 104.750, 142.949 101.612, 143.677 100.527 C 145.434 97.907, 145.352 94.978, 143.482 93.610 C 142.619 92.978, 141.691 90.130, 141.330 87 C 140.706 81.584, 136.734 71.572, 134.714 70.323 C 134.146 69.972, 131.953 69.752, 129.840 69.835 C 127.728 69.918, 126 69.539, 126 68.993 C 126 67.168, 114.741 67.961, 110.750 70.068 M 209.624 112.286 L 205.749 114.326 206.435 124.567 C 206.940 132.108, 206.803 135.004, 205.916 135.552 C 205.254 135.961, 202.189 136.408, 199.106 136.544 C 196.023 136.680, 191.445 137.503, 188.932 138.373 C 186.420 139.243, 181.117 140.416, 177.147 140.979 C 167.661 142.325, 163 144.291, 163 146.949 C 163 148.105, 163.654 149, 164.500 149 C 165.325 149, 166 149.450, 166 150 C 166 150.550, 166.675 151, 167.500 151 C 168.325 151, 169 150.325, 169 149.500 C 169 148.675, 169.436 148, 169.969 148 C 170.501 148, 170.678 148.675, 170.362 149.500 C 169.926 150.635, 170.542 151, 172.893 151 C 174.602 151, 176 150.579, 176 150.063 C 176 149.548, 177.463 148.986, 179.250 148.813 C 181.702 148.577, 182.428 148.070, 182.206 146.750 C 182.045 145.787, 182.512 145, 183.245 145 C 183.978 145, 186.223 144.161, 188.234 143.136 C 191.060 141.695, 192.002 141.564, 192.384 142.558 C 192.713 143.416, 191.566 144.067, 188.944 144.509 C 186.781 144.875, 184.786 145.538, 184.511 145.982 C 183.722 147.258, 186.899 148.063, 188.790 147.066 C 191.086 145.855, 205.959 142.626, 206.544 143.211 C 207.370 144.037, 208.899 154.275, 209.573 163.500 C 210.462 175.672, 210.657 206.917, 209.852 208.231 C 209.400 208.968, 207.763 208.926, 204.454 208.093 C 200.950 207.211, 199.414 207.190, 198.602 208.016 C 197.798 208.832, 197.922 209.454, 199.062 210.317 C 199.921 210.968, 200.914 212.274, 201.269 213.220 C 202.143 215.550, 205.884 216.338, 211.140 215.300 C 217.689 214.005, 218.880 210.857, 217.626 198.149 C 217.390 195.755, 216.737 193.337, 216.175 192.775 C 215.478 192.078, 215.786 191.075, 217.138 189.626 C 219.322 187.287, 219.048 182.359, 216.513 178.418 C 215.662 177.094, 215.501 175.820, 216.072 174.918 C 216.565 174.138, 216.976 172.432, 216.985 171.128 C 216.996 169.309, 216.700 169.004, 215.716 169.820 C 213.523 171.640, 212.473 169.705, 213.100 165 C 213.430 162.525, 213.767 161.287, 213.850 162.250 C 213.932 163.213, 214.402 164, 214.893 164 C 216.430 164, 216.917 161.268, 215.681 159.579 C 214.020 157.308, 215.017 143.225, 216.923 142.047 C 217.705 141.564, 222.981 140.853, 228.648 140.467 C 240.331 139.670, 242.501 138.501, 238.925 134.925 C 236.832 132.832, 236.125 132.746, 225.358 133.276 L 214 133.836 214 125.977 C 214 121.654, 214.450 117.840, 215 117.500 C 216.411 116.628, 216.244 112.440, 214.750 111.246 C 213.883 110.553, 212.311 110.872, 209.624 112.286 M 63.032 115.750 C 63.049 116.162, 63.724 117.374, 64.532 118.441 C 66.029 120.421, 66.487 119.433, 65.393 116.582 C 64.782 114.990, 62.973 114.353, 63.032 115.750 M 65.031 124.500 C 65.031 125.050, 65.467 126.175, 66 127 C 66.533 127.825, 66.969 128.050, 66.969 127.500 C 66.969 126.950, 66.533 125.825, 66 125 C 65.467 124.175, 65.031 123.950, 65.031 124.500 M 66.015 134.191 C 66.007 135.671, 66.450 137.160, 67 137.500 C 68.277 138.289, 68.277 134.976, 67 133 C 66.242 131.827, 66.027 132.086, 66.015 134.191 M 105 134 C 105 134.550, 105.423 135, 105.941 135 C 106.459 135, 107.160 134.550, 107.500 134 C 107.840 133.450, 107.416 133, 106.559 133 C 105.702 133, 105 133.450, 105 134 M 110.813 133.683 C 111.534 133.972, 112.397 133.936, 112.729 133.604 C 113.061 133.272, 112.471 133.036, 111.417 133.079 C 110.252 133.127, 110.015 133.364, 110.813 133.683 M 203.500 140 C 203.160 140.550, 203.835 141, 205 141 C 206.165 141, 206.840 140.550, 206.500 140 C 206.160 139.450, 205.485 139, 205 139 C 204.515 139, 203.840 139.450, 203.500 140 M 200.250 140.662 C 198.820 141.239, 198.551 143, 199.893 143 C 200.384 143, 201.045 142.325, 201.362 141.500 C 201.678 140.675, 201.839 140.036, 201.719 140.079 C 201.598 140.122, 200.938 140.385, 200.250 140.662 M 173.500 147 C 173.160 147.550, 173.782 148, 174.882 148 C 175.982 148, 177.160 147.550, 177.500 147 C 177.840 146.450, 177.218 146, 176.118 146 C 175.018 146, 173.840 146.450, 173.500 147 M 99.658 152.132 C 98.251 152.949, 97.952 153.948, 98.391 156.351 C 99.175 160.635, 98.385 161.430, 91.948 162.839 C 85.814 164.182, 74.750 167.924, 71.250 169.839 C 68.666 171.253, 68.188 175.475, 70.511 176.366 C 72.297 177.051, 78 176.055, 78 175.058 C 78 173.958, 96.936 166.603, 97.728 167.395 C 98.121 167.788, 98.516 170.560, 98.607 173.555 C 98.747 178.221, 98.509 179, 96.944 179 C 95.940 179, 94.808 179.501, 94.430 180.113 C 94.052 180.726, 91.662 182.133, 89.121 183.241 C 81.913 186.383, 71.831 193.904, 72.230 195.840 C 73.068 199.906, 82.986 195.638, 95 186.041 C 99.816 182.194, 100.636 183.097, 101.341 193.019 C 101.693 197.980, 102.448 204.167, 103.019 206.769 C 103.590 209.371, 104.528 213.750, 105.104 216.500 C 106.305 222.236, 109.090 231.114, 110.064 232.312 C 110.428 232.759, 112.434 233.284, 114.524 233.478 C 118.281 233.827, 120.236 232.534, 124.531 226.861 C 126.149 224.724, 128.210 212.686, 127.466 209.719 C 126.898 207.459, 126.497 207.199, 124.897 208.055 C 123.853 208.614, 123 209.736, 123 210.549 C 123 211.362, 122.565 212.809, 122.034 213.764 C 121.503 214.719, 120.098 217.863, 118.911 220.750 C 117.725 223.637, 116.435 226, 116.046 226 C 115.096 226, 113.457 222.384, 112.193 217.500 C 111.624 215.300, 110.673 211.648, 110.079 209.384 C 108.249 202.405, 108.655 198.244, 111.246 197.422 C 113.487 196.711, 123.868 188.294, 127.185 184.500 C 128.147 183.400, 128.948 181.739, 128.967 180.809 C 129.007 178.772, 126.780 177.159, 126.226 178.823 C 126.010 179.470, 125.308 180.005, 124.667 180.011 C 124.025 180.017, 120.608 182.042, 117.072 184.511 C 113.537 186.980, 109.915 189, 109.022 189 C 108.130 189, 106.867 189.533, 106.217 190.183 C 104.383 192.017, 103.878 190.648, 105.098 187.150 C 105.706 185.404, 105.960 183.339, 105.662 182.562 C 104.951 180.710, 106.820 174, 108.047 174 C 108.571 174, 109 174.450, 109 175 C 109 176.211, 115.695 176.353, 116.167 175.152 C 116.864 173.378, 130.096 165.823, 131.537 166.376 C 132.364 166.693, 133.300 168.248, 133.616 169.830 C 133.933 171.413, 135.257 174.011, 136.560 175.604 L 138.928 178.500 138.964 176.027 L 139 173.555 140.654 175.916 C 142.012 177.855, 142.087 178.632, 141.072 180.257 C 140.185 181.676, 140.142 182.542, 140.918 183.318 C 141.694 184.094, 142 184.063, 142 183.207 C 142 182.544, 143.111 182.979, 144.500 184.187 C 145.875 185.382, 147 187.176, 147 188.172 C 147 189.168, 147.900 190.545, 149 191.232 C 150.406 192.110, 151 193.564, 151 196.129 C 151 199.042, 151.855 200.689, 155.250 204.310 C 157.588 206.803, 160.547 210.229, 161.826 211.922 C 163.105 213.615, 164.700 215, 165.370 215 C 166.040 215, 168.294 216.800, 170.378 219 C 172.625 221.371, 175.090 223, 176.431 223 C 177.676 223, 179.732 223.900, 181 225 C 182.268 226.100, 184.111 227, 185.094 227 C 186.077 227, 187.138 227.414, 187.450 227.920 C 188.869 230.214, 197.314 233.959, 199.713 233.357 C 201.618 232.879, 202.726 233.337, 204.412 235.299 C 205.625 236.711, 207.805 238.164, 209.256 238.528 C 210.707 238.892, 212.604 240.273, 213.470 241.595 C 214.337 242.918, 215.695 244, 216.489 244 C 218.661 244, 225.285 247.259, 227.092 249.217 C 227.968 250.166, 230.218 251.141, 232.092 251.384 C 233.966 251.627, 236.293 252.141, 237.263 252.525 C 238.256 252.919, 239.722 252.645, 240.621 251.900 C 241.967 250.782, 242.422 250.856, 243.533 252.376 C 245.012 254.399, 251.554 256.228, 254.298 255.387 C 255.287 255.083, 256.803 255.422, 257.668 256.140 C 258.815 257.091, 262.989 257.405, 273.094 257.298 C 280.713 257.217, 287.427 256.854, 288.014 256.492 C 289.485 255.582, 288.225 244.567, 286.070 239.500 C 285.134 237.300, 283.777 233.363, 283.054 230.750 C 282.070 227.194, 281.259 226, 279.824 226 C 278.020 226, 277.948 226.574, 278.590 235.892 C 278.964 241.333, 278.976 246.958, 278.616 248.392 C 277.972 250.960, 277.826 251, 268.981 251 C 264.041 251, 260 250.599, 260 250.109 C 260 249.620, 258.538 249.003, 256.750 248.739 C 245.341 247.054, 235.442 244.340, 228.231 240.921 C 223.683 238.764, 219.633 236.998, 219.231 236.995 C 218.537 236.990, 210.171 232.813, 201.515 228.148 C 199.323 226.966, 196.717 226, 195.723 226 C 194.729 226, 193.066 225.208, 192.028 224.240 C 190.989 223.273, 187.070 220.920, 183.319 219.014 C 179.569 217.107, 175.949 215.017, 175.277 214.371 C 174.604 213.725, 172.525 212.252, 170.657 211.097 C 164.736 207.437, 158.474 200.324, 154.677 192.943 C 152.655 189.011, 151 185.166, 151 184.397 C 151 183.629, 150.589 183, 150.087 183 C 148.117 183, 140.934 166.405, 139.692 158.984 L 138.439 151.500 134.469 151.500 L 130.500 151.500 130.742 156.250 C 130.952 160.363, 130.726 161, 129.051 161 C 126.869 161, 110.325 168.665, 109.449 170.082 C 109.137 170.587, 108.176 171, 107.312 171 C 105.943 171, 105.833 169.721, 106.451 161 L 107.160 151 104.330 151.030 C 102.774 151.047, 100.671 151.543, 99.658 152.132 M 56.561 156.806 C 56.246 157.800, 56.452 160.837, 57.020 163.556 C 57.587 166.275, 58.458 176.375, 58.954 186 C 59.820 202.814, 60.280 206.920, 63.661 228 C 65.946 242.250, 66.070 242.527, 70.088 242.349 C 71.965 242.267, 73.950 242.150, 74.500 242.092 C 75.939 241.937, 87.029 224.538, 91.250 215.811 C 94.368 209.364, 94.592 207.736, 92.588 206.073 C 90.878 204.654, 88.413 207.695, 82.114 219 C 74.738 232.235, 73.346 234, 70.278 234 C 67.855 234, 67.158 232.461, 69.250 231.729 C 70.153 231.414, 69.982 230.709, 68.635 229.190 C 66.917 227.255, 66.898 226.959, 68.385 225.472 C 70.419 223.438, 70.534 220.581, 68.551 221.342 C 67.005 221.935, 66.539 220.934, 65.415 214.605 C 64.918 211.806, 65.043 210.909, 65.862 211.414 C 66.488 211.801, 67 212.991, 67 214.059 C 67 215.127, 67.486 216, 68.079 216 C 69.728 216, 68.086 209.803, 65.884 207.711 C 63.573 205.516, 63.265 200.781, 65.489 201.634 C 67.684 202.476, 66.870 185.619, 64.594 183.104 C 62.799 181.120, 62.492 179, 64 179 C 64.571 179, 65 176.022, 65 172.065 C 65 168.251, 65.475 163.881, 66.055 162.354 C 66.636 160.827, 66.852 158.548, 66.536 157.289 C 66.046 155.336, 65.314 155, 61.548 155 C 58.171 155, 57 155.424, 56.561 156.806 M 182.835 173.673 C 180.387 174.321, 179.723 177.037, 181.526 179.029 C 183.540 181.254, 203.477 182.934, 205.347 181.036 C 207.086 179.271, 203.800 177.298, 197.731 176.463 C 194.918 176.076, 191.996 175.139, 191.237 174.380 C 189.909 173.052, 186.321 172.750, 182.835 173.673 M 105.707 199.989 C 105.993 201.083, 106.626 201.731, 107.114 201.430 C 108.526 200.557, 108.139 198, 106.594 198 C 105.682 198, 105.370 198.700, 105.707 199.989 M 108.232 212 C 108.232 213.925, 108.438 214.713, 108.689 213.750 C 108.941 212.787, 108.941 211.213, 108.689 210.250 C 108.438 209.287, 108.232 210.075, 108.232 212 M 109.070 219.191 C 109.032 220.671, 109.450 222.160, 110 222.500 C 111.194 223.238, 111.194 221.278, 110 218.500 C 109.233 216.714, 109.133 216.788, 109.070 219.191" stroke="none" fill="black" fill-rule="evenodd"/>
</svg>