<svg xmlns="http://www.w3.org/2000/svg" width="300" height="300" viewBox="0 0 300 300" version="1.1">
	<path d="M 155.203 14.256 C 153.347 16.492, 152.705 20.940, 154.011 22.513 C 155.361 24.140, 164.492 24.631, 165.422 23.126 C 165.900 22.353, 176.099 21.223, 187.447 20.687 C 190.886 20.524, 191.469 20.817, 191.983 22.964 C 192.308 24.319, 192.003 28.144, 191.307 31.464 C 190.611 34.784, 189.987 41.100, 189.921 45.500 C 189.733 58.014, 189.633 58.179, 181.985 58.621 C 178.418 58.827, 173.250 59.606, 170.500 60.352 C 166.346 61.479, 165.449 62.135, 165.196 64.227 C 165.021 65.671, 165.475 66.968, 166.259 67.269 C 168.729 68.217, 173.247 66.770, 173.744 64.872 C 174.087 63.558, 174.664 63.272, 175.747 63.878 C 176.583 64.346, 178.895 64.351, 180.884 63.888 C 182.873 63.426, 185.010 63.037, 185.634 63.024 C 186.912 62.997, 187.905 70.663, 188.485 85.050 L 188.870 94.601 181.021 96.373 C 176.704 97.347, 168.105 98.321, 161.912 98.537 C 155.719 98.754, 148.368 99.385, 145.576 99.942 C 142.784 100.498, 137.800 101.154, 134.500 101.401 C 131.200 101.647, 125.452 103.007, 121.727 104.424 C 117.219 106.139, 112.976 107, 109.036 107 C 105.781 107, 102.919 107.337, 102.677 107.750 C 101.471 109.798, 100.929 115, 101.921 115 C 102.514 115, 103 114.373, 103 113.607 C 103 112.297, 105.030 111, 107.082 111 C 107.587 111, 108 111.648, 108 112.441 C 108 114.696, 109.322 114.990, 113.657 113.698 C 116.083 112.974, 117.507 112.005, 117.254 111.250 C 117.022 110.562, 117.605 110, 118.549 110 C 119.492 110, 121.780 109.063, 123.632 107.918 C 126.492 106.151, 127 106.075, 127 107.418 C 127 108.288, 126.325 109, 125.500 109 C 124.675 109, 124 109.450, 124 110 C 124 110.550, 124.575 111, 125.277 111 C 127.140 111, 131.120 108.003, 130.528 107.046 C 129.733 105.758, 135.175 105.092, 137.029 106.250 C 138.016 106.866, 139.884 106.971, 141.599 106.507 C 143.195 106.074, 146.211 105.820, 148.303 105.941 C 150.523 106.069, 153.176 105.459, 154.677 104.476 C 156.590 103.222, 157.797 103.042, 159.398 103.772 C 160.581 104.311, 163.563 104.568, 166.024 104.344 C 168.486 104.120, 172.588 103.754, 175.141 103.532 C 182.299 102.908, 192.375 100.928, 193.617 99.900 C 194.231 99.392, 195.804 99.094, 197.113 99.238 C 200.753 99.639, 200.943 95.430, 197.433 92.175 L 194.690 89.632 195.337 66.066 C 195.693 53.105, 196.436 38.624, 196.988 33.886 C 197.902 26.033, 197.257 16.924, 195.675 15.342 C 194.955 14.622, 187.125 14.701, 174.979 15.552 C 167.364 16.085, 164.688 15.896, 161.607 14.609 C 156.971 12.672, 156.537 12.648, 155.203 14.256 M 115.583 26.866 C 115.152 27.563, 115.070 28.403, 115.400 28.733 C 116.295 29.628, 117.271 28.312, 116.787 26.862 C 116.449 25.846, 116.213 25.846, 115.583 26.866 M 108.430 30.761 C 107.842 31.167, 105.525 34.006, 103.283 37.068 C 101.040 40.131, 97.732 43.956, 95.931 45.568 C 88.863 51.897, 85 55.719, 85 56.384 C 85 56.768, 85.923 58.329, 87.051 59.855 C 89.973 63.808, 91.910 76.253, 92.053 92 C 92.216 110.045, 92.960 115.374, 95.380 115.837 C 97.528 116.248, 99.175 114.219, 98.495 112 C 98.033 110.493, 97.953 101.405, 98.309 90.807 C 98.568 83.083, 100.849 80.847, 107.668 81.629 C 111.531 82.072, 114.255 81.544, 121.250 78.997 C 131.812 75.151, 132.888 73, 124.250 73 C 118.354 73, 108.089 74.876, 102.174 77.035 C 100.279 77.726, 98.478 77.872, 97.987 77.374 C 97.514 76.893, 96.814 71.530, 96.434 65.456 L 95.741 54.412 100.776 50.573 C 105.775 46.760, 116 34.397, 116 32.165 C 116 31.524, 115.137 31, 114.082 31 C 113.027 31, 111.564 30.780, 110.832 30.511 C 110.099 30.241, 109.019 30.354, 108.430 30.761 M 160 66.573 C 160 67.505, 160.680 68.015, 161.667 67.823 C 164.176 67.337, 164.520 65, 162.083 65 C 160.855 65, 160 65.646, 160 66.573 M 186.667 131.667 C 185.292 133.041, 186.083 135.810, 188.558 138.285 C 190.716 140.444, 190.929 141.141, 189.921 142.756 C 188.391 145.204, 190.273 169.484, 192.475 175.713 C 193.294 178.030, 194.242 181.855, 194.581 184.213 C 194.920 186.571, 196.053 190.879, 197.099 193.788 C 198.144 196.696, 199 199.985, 199 201.096 C 199 204.001, 204.696 220.453, 207.023 224.269 C 208.106 226.046, 208.994 228.243, 208.996 229.151 C 209.009 234.557, 219.505 249.609, 225.268 252.484 C 229.164 254.427, 230.797 253.504, 232.056 248.647 C 232.647 246.366, 233.761 242.250, 234.530 239.500 C 235.300 236.750, 236.628 229.325, 237.481 223 C 238.334 216.675, 239.693 207.225, 240.502 202 C 243.528 182.451, 243.795 179.881, 243.084 177.223 C 242.628 175.517, 241.673 174.500, 240.527 174.500 C 239.086 174.500, 238.294 176.092, 236.797 182 C 235.752 186.125, 234.252 191.975, 233.464 195 C 232.676 198.025, 232.024 202.120, 232.016 204.101 C 232.007 206.081, 231.562 209.006, 231.026 210.601 C 230.095 213.371, 227.437 228.988, 226.121 239.421 C 225.779 242.127, 225.050 244.475, 224.500 244.638 C 223.289 244.996, 214.233 226.472, 213.343 221.816 C 212.994 219.992, 211.717 216.475, 210.505 214 C 209.292 211.525, 206.868 203.650, 205.118 196.500 C 203.367 189.350, 201.295 181.025, 200.513 178 C 198.671 170.870, 197.950 167.372, 197.429 163.033 C 197.195 161.090, 196.522 156.233, 195.932 152.239 C 195.342 148.245, 194.972 143.970, 195.109 142.739 C 195.426 139.900, 194.080 133.886, 192.762 132.250 C 191.693 130.923, 187.784 130.549, 186.667 131.667 M 141.571 139.250 C 140.615 141.475, 139.655 152.595, 138.529 174.500 C 135.473 233.941, 136.120 244, 143.006 244 C 147.799 244, 170.448 208.557, 167.768 205.250 C 166.131 203.230, 165.386 203.717, 161.644 209.250 C 159.691 212.137, 156.277 216.750, 154.057 219.500 C 151.837 222.250, 150.016 224.984, 150.011 225.576 C 149.995 227.184, 145.289 231.297, 144.220 230.636 C 143.246 230.034, 143.329 226.042, 144.987 193.500 C 145.548 182.500, 146.102 167.062, 146.218 159.194 C 146.369 148.979, 146.797 144.583, 147.715 143.822 C 149.645 142.219, 149.262 138.211, 147.066 137.035 C 144.006 135.398, 143.063 135.778, 141.571 139.250 M 87 140.008 C 87 141.260, 87.669 142, 88.800 142 C 89.790 142, 91.069 142.469, 91.642 143.042 C 92.366 143.766, 93.088 143.599, 94 142.500 C 95.715 140.434, 94.157 138.800, 90.041 138.350 C 87.559 138.078, 87 138.383, 87 140.008 M 87.750 146.689 C 85.757 147.210, 85.646 147.858, 85.892 157.557 C 85.990 161.439, 85.382 168.864, 84.539 174.057 C 83.697 179.251, 83.006 186.048, 83.004 189.162 C 83.002 192.276, 82.282 198.351, 81.403 202.662 C 80.452 207.334, 79.696 216.868, 79.534 226.264 C 79.261 242.005, 79.264 242.028, 81.574 242.608 C 84.359 243.307, 86.323 242.285, 85.636 240.493 C 85.360 239.775, 85.927 238.471, 86.896 237.594 C 89.576 235.169, 90.434 235.689, 88.535 238.587 C 86.027 242.415, 87.501 242.753, 91.741 239.322 C 95.746 236.081, 102.072 227.490, 105.232 221 C 105.902 219.625, 108.373 215.458, 110.725 211.740 C 115.178 204.698, 115.615 203.498, 114.075 202.546 C 111.035 200.668, 103.080 209.492, 94.058 224.750 C 87.688 235.522, 86.545 234.741, 87.368 220.181 C 87.735 213.680, 88.478 206.821, 89.018 204.937 C 90.319 200.402, 92.724 155.338, 92.097 147.250 C 91.999 145.988, 90.950 145.853, 87.750 146.689 M 110.500 153 C 106.650 154.592, 102.782 155.919, 101.905 155.948 C 97.813 156.082, 95.249 163.309, 98.884 164.463 C 100.477 164.969, 108.857 161.542, 117.210 156.969 C 118.151 156.454, 119.619 156.300, 120.473 156.628 C 122.027 157.225, 125 155.465, 125 153.949 C 125 152.340, 121.806 150.001, 119.679 150.052 C 118.480 150.081, 114.350 151.408, 110.500 153 M 177 151.693 C 176.175 151.942, 174.600 152.534, 173.500 153.009 C 156.365 160.396, 151.035 164.328, 153.050 168.093 C 154.651 171.085, 158.757 170.431, 163.379 166.450 C 170.062 160.692, 170.255 160.567, 174.888 158.964 C 180.214 157.121, 182.166 154.698, 179.983 152.639 C 179.167 151.869, 177.825 151.444, 177 151.693 M 119.413 173.503 C 115.516 175.392, 110.389 178.658, 108.020 180.760 L 103.713 184.582 106.529 186.427 C 108.308 187.593, 109.794 187.946, 110.565 187.386 C 122.006 179.078, 129.997 172.490, 129.703 171.608 C 129.028 169.581, 126.566 170.035, 119.413 173.503 M 178.531 180.538 C 177.448 181.365, 174.973 182.473, 173.031 183.001 C 168.279 184.293, 159.606 190.092, 159.189 192.256 C 158.721 194.685, 162.987 194.562, 168.048 192 C 170.222 190.900, 173.688 189.137, 175.750 188.081 C 180.476 185.664, 184.225 182.174, 183.721 180.661 C 183.138 178.909, 180.739 178.852, 178.531 180.538 M 204.734 211.600 C 203.966 212.367, 206.048 217, 207.161 217 C 208.147 217, 208.186 216.298, 207.370 213.250 C 206.770 211.012, 205.879 210.454, 204.734 211.600 M 82.639 213.694 C 81.686 214.647, 81.867 217, 82.893 217 C 84.120 217, 85.105 214.183, 84.096 213.559 C 83.647 213.282, 82.991 213.342, 82.639 213.694 M 216 239.559 C 216 240.416, 216.450 240.840, 217 240.500 C 217.550 240.160, 218 239.459, 218 238.941 C 218 238.423, 217.550 238, 217 238 C 216.450 238, 216 238.702, 216 239.559" stroke="none" fill="black" fill-rule="evenodd"/>
</svg>