<svg xmlns="http://www.w3.org/2000/svg" width="300" height="300" viewBox="0 0 300 300" version="1.1">
	<path d="M 55.400 22.316 C 54.443 22.851, 50.700 23.234, 47.080 23.166 C 41.065 23.052, 30.008 24.684, 22.500 26.792 C 17.563 28.178, 17.938 31.491, 23.318 34.019 C 28.009 36.225, 34.770 36.304, 56.839 34.412 C 66.178 33.612, 66.909 32.976, 65.169 27.175 C 64.293 24.254, 63.356 23.279, 60.603 22.421 C 58.321 21.710, 56.547 21.674, 55.400 22.316 M 145.388 23.980 C 144.227 24.449, 137.536 24.860, 130.520 24.894 C 115.291 24.966, 112.216 25.455, 108.528 28.396 C 105.864 30.520, 105.785 30.817, 106.939 34.317 C 108.339 38.556, 111.737 40.014, 115.511 37.994 C 116.808 37.300, 118.846 36.988, 120.042 37.301 C 121.237 37.613, 123.404 37.416, 124.857 36.863 C 128.309 35.550, 146.139 35.113, 147.737 36.303 C 149.444 37.573, 151.577 36.576, 153.531 33.593 C 155.069 31.246, 155.060 30.807, 153.397 27.039 C 151.545 22.842, 149.828 22.186, 145.388 23.980 M 225.829 25.504 C 225.062 26.271, 210.295 28.115, 203.285 28.319 C 193.918 28.592, 191.544 32.510, 196.807 39.010 C 198.450 41.039, 198.996 41.159, 202.070 40.168 C 205.860 38.946, 221.401 37.454, 227.207 37.755 C 229.246 37.861, 231.185 37.510, 231.516 36.974 C 231.847 36.438, 232.991 36, 234.059 36 C 236.709 36, 236.642 31.710, 233.932 27.904 C 232.033 25.238, 227.452 23.881, 225.829 25.504 M 212 33 C 212 33.550, 212.675 34, 213.500 34 C 214.325 34, 215 33.550, 215 33 C 215 32.450, 214.325 32, 213.500 32 C 212.675 32, 212 32.450, 212 33 M 205 34 C 205 34.550, 205.423 35, 205.941 35 C 206.459 35, 207.160 34.550, 207.500 34 C 207.840 33.450, 207.416 33, 206.559 33 C 205.702 33, 205 33.450, 205 34" stroke="none" fill="black" fill-rule="evenodd"/>
</svg>