<svg xmlns="http://www.w3.org/2000/svg" width="300" height="300" viewBox="0 0 300 300" version="1.1">
	<path d="M 34.743 96.084 C 31.258 98.114, 29.017 104.325, 29.672 110.143 C 30.399 116.601, 31.144 117.663, 35.956 119.105 C 41.064 120.635, 45.380 118.410, 47.036 113.390 C 48.044 110.335, 47.948 108.782, 46.441 103.804 C 44.052 95.914, 39.825 93.125, 34.743 96.084 M 134.694 121.639 C 133.761 122.573, 134.888 124, 136.559 124 C 137.352 124, 138 123.325, 138 122.500 C 138 120.994, 135.889 120.444, 134.694 121.639 M 137 142.059 C 137 142.641, 137.450 142.840, 138 142.500 C 138.550 142.160, 139 141.684, 139 141.441 C 139 141.198, 138.550 141, 138 141 C 137.450 141, 137 141.477, 137 142.059 M 33.783 182.021 C 29.034 185.166, 28.037 187.079, 28.014 193.081 C 28.003 195.813, 28.533 196.920, 30.250 197.751 C 34.494 199.806, 39.523 199.893, 43.781 197.987 C 47.164 196.472, 47.997 195.531, 48.546 192.608 C 49.391 188.102, 45.974 180.495, 42.713 179.620 C 39.185 178.675, 38.594 178.834, 33.783 182.021" stroke="none" fill="black" fill-rule="evenodd"/>
</svg>