<svg xmlns="http://www.w3.org/2000/svg" width="300" height="300" viewBox="0 0 300 300" version="1.1">
	<path d="M 145 191.682 C 136.898 192.281, 117.662 195.177, 115.053 196.191 C 113.649 196.737, 109.800 197.580, 106.500 198.066 C 103.200 198.551, 97.125 200.110, 93 201.531 C 88.875 202.951, 83.773 204.549, 81.661 205.082 C 72.867 207.300, 63.546 213.659, 51.735 225.500 C 39.465 237.801, 21 261.045, 21 264.190 C 21 265.124, 22.139 267.151, 23.531 268.694 L 26.062 271.500 27.778 269 C 28.722 267.625, 31.316 264.475, 33.542 262 C 35.768 259.525, 38.245 256.545, 39.045 255.378 C 49.730 239.792, 68.316 221.852, 79 216.810 C 80.925 215.902, 86.550 213.971, 91.500 212.520 C 96.450 211.069, 101.400 209.479, 102.500 208.988 C 104.907 207.914, 125.672 204.001, 128.500 204.088 C 129.600 204.122, 132.300 203.677, 134.500 203.099 C 140.595 201.497, 155.976 201.766, 162.135 203.582 C 165.086 204.451, 170.650 206.094, 174.500 207.232 C 178.350 208.369, 183.975 210.323, 187 211.574 C 190.025 212.825, 195.506 214.811, 199.181 215.989 C 202.856 217.166, 206.398 218.775, 207.053 219.564 C 207.709 220.354, 208.781 221, 209.435 221 C 212.888 221, 221.096 226.310, 224.635 230.834 C 226.761 233.551, 229.736 236.613, 231.247 237.637 C 232.758 238.662, 233.996 239.993, 233.997 240.595 C 233.999 241.197, 234.889 242.494, 235.974 243.477 C 237.060 244.460, 238.244 246.217, 238.606 247.382 C 238.967 248.547, 240.073 250.652, 241.065 252.061 C 242.056 253.470, 243.172 255.837, 243.545 257.322 C 244.323 260.423, 248.814 264, 251.929 264 C 253.321 264, 254.410 263.055, 255.099 261.250 C 256.502 257.573, 254.822 252.615, 250.026 246.278 C 247.982 243.578, 246.019 240.212, 245.665 238.800 C 245.310 237.387, 240.403 231.554, 234.760 225.838 C 224.766 215.715, 216.819 210, 212.734 210 C 211.626 210, 208.870 209.124, 206.610 208.053 C 200.103 204.970, 184.397 199, 182.793 199 C 181.990 199, 180.996 198.663, 180.584 198.251 C 179.429 197.095, 152.856 190.875, 150.500 191.208 C 149.950 191.286, 147.475 191.499, 145 191.682" stroke="none" fill="black" fill-rule="evenodd"/>
</svg>