<svg xmlns="http://www.w3.org/2000/svg" width="300" height="300" viewBox="0 0 300 300" version="1.1">
	<path d="M 128.941 135.859 C 125.987 138.729, 125.073 140.489, 124.627 144.169 C 124.081 148.666, 124.188 148.913, 127.513 150.875 C 130.646 152.724, 131.275 152.783, 134.312 151.514 C 138.891 149.601, 139.643 148.382, 140.284 141.831 C 140.918 135.358, 139.953 133.485, 135.594 132.725 C 133.240 132.314, 131.979 132.908, 128.941 135.859 M 125.196 188.149 C 122.451 189.907, 121.944 190.790, 122.196 193.374 C 122.410 195.562, 123.093 196.590, 124.500 196.842 C 125.600 197.039, 127.400 198.253, 128.500 199.541 C 130.714 202.131, 133.142 202.698, 137.184 201.567 C 140.071 200.760, 142 196.878, 142 191.876 C 142 186.322, 131.639 184.024, 125.196 188.149" stroke="none" fill="black" fill-rule="evenodd"/>
</svg>