<svg xmlns="http://www.w3.org/2000/svg" width="300" height="300" viewBox="0 0 300 300" version="1.1">
	<path d="M 125.500 154.787 C 121.898 157.884, 118 163.819, 118 166.205 C 118 169.365, 123.385 175.696, 127.858 177.795 C 130.742 179.147, 131.563 180.148, 131.802 182.604 C 132.423 188.971, 123.335 204, 118.865 204 C 116.455 204, 115.230 206.880, 117.104 208.141 C 117.872 208.657, 120.697 208.813, 123.382 208.488 C 127.158 208.030, 129.374 206.960, 133.164 203.765 C 139.202 198.673, 141.469 195.098, 143.509 187.443 C 147.054 174.143, 146.386 167.288, 140.866 160.318 C 135.631 153.709, 129.373 151.456, 125.500 154.787" stroke="none" fill="black" fill-rule="evenodd"/>
</svg>