<svg xmlns="http://www.w3.org/2000/svg" width="300" height="300" viewBox="0 0 300 300" version="1.1">
	<path d="M 247.500 76.754 C 243.594 77.507, 236.465 80.400, 234.115 82.187 C 232.803 83.184, 231.263 84, 230.693 84 C 228.812 84, 213.845 100.351, 211.859 104.576 C 210.789 106.853, 209.033 109.661, 207.957 110.816 C 206.880 111.971, 206 113.190, 206 113.525 C 206 113.860, 204.830 115.667, 203.400 117.542 C 200.541 121.291, 199.603 124.336, 197.410 137 C 196.601 141.675, 195.485 146.308, 194.932 147.297 C 194.378 148.285, 193.920 153.524, 193.913 158.940 C 193.901 169.576, 196.279 179.068, 202.074 191.500 C 203.612 194.800, 205.162 198.695, 205.520 200.155 C 205.877 201.616, 207.256 203.831, 208.585 205.079 C 209.913 206.328, 211 207.910, 211 208.597 C 211 210.149, 220.996 219, 222.748 219 C 223.453 219, 226.386 220.321, 229.265 221.935 C 232.954 224.004, 236.420 225.036, 241 225.430 C 244.575 225.738, 249.638 226.173, 252.251 226.398 C 257.073 226.812, 259.626 225.519, 256.313 224.341 C 255.316 223.986, 253.825 223.148, 253 222.479 C 252.175 221.809, 250.375 221.028, 249 220.743 C 235.393 217.926, 231.364 216.659, 227.447 213.964 C 221.616 209.952, 211.903 198.245, 209.909 192.825 C 205.626 181.186, 204.586 177.872, 202.747 170 C 200.945 162.283, 200.867 160.400, 201.898 149.559 C 202.523 142.991, 203.512 135.791, 204.096 133.559 C 206.596 124.006, 207.452 121.390, 208.690 119.527 C 209.410 118.443, 210 116.927, 210 116.160 C 210 115.392, 211.350 113.226, 213 111.347 C 214.868 109.220, 216 106.829, 216 105.012 C 216 102.999, 216.805 101.536, 218.594 100.297 C 220.021 99.309, 223.613 96.475, 226.576 94 C 238.420 84.107, 238.860 83.821, 241.137 84.543 C 243.088 85.163, 243.143 85.340, 241.642 86.181 C 237.988 88.225, 241.221 88.600, 245.384 86.615 C 252.998 82.983, 254.629 75.381, 247.500 76.754" stroke="none" fill="black" fill-rule="evenodd"/>
</svg>