<svg xmlns="http://www.w3.org/2000/svg" width="300" height="300" viewBox="0 0 300 300" version="1.1">
	<path d="M 40.676 98.452 C 38.572 99.202, 36.772 99.970, 36.676 100.158 C 36.579 100.346, 35.938 101.506, 35.250 102.736 C 33.530 105.813, 33.680 108.158, 35.884 112.655 C 36.920 114.770, 38.252 117.720, 38.845 119.211 C 40.951 124.514, 50.125 124.371, 53.005 118.991 C 54.245 116.674, 53.340 108.080, 51.356 103.317 C 50.194 100.531, 46.549 96.917, 45.027 97.044 C 44.737 97.068, 42.779 97.702, 40.676 98.452 M 43.240 169.252 C 40.141 172.449, 38.698 178, 40.965 178 C 41.496 178, 43.491 179.370, 45.399 181.045 C 48.267 183.563, 48.983 185.015, 49.534 189.424 C 50.248 195.140, 49.011 199, 46.465 199 C 43.801 199, 44.817 203.668, 48.077 206.411 C 51.458 209.257, 54.171 209.704, 55.840 207.693 C 57.788 205.346, 60.051 194.656, 60.152 187.326 C 60.242 180.723, 59.938 179.607, 56.337 173.326 C 53.029 167.557, 51.962 166.454, 49.452 166.205 C 47.174 165.978, 45.724 166.690, 43.240 169.252" stroke="none" fill="black" fill-rule="evenodd"/>
</svg>