<svg xmlns="http://www.w3.org/2000/svg" width="300" height="300" viewBox="0 0 300 300" version="1.1">
	<path d="M 58.575 142.879 C 58.276 143.363, 53.637 143.830, 48.266 143.917 C 42.894 144.003, 35.575 144.511, 32 145.045 C 25.222 146.057, 17.429 146.724, 10.333 146.898 C 6.720 146.986, 6.043 147.365, 5.239 149.750 C 4.359 152.358, 5.764 156.276, 8.217 158.053 C 8.983 158.608, 14.638 158.084, 29.500 156.080 C 33.900 155.487, 42.900 155.057, 49.500 155.124 C 56.100 155.192, 62.063 155.192, 62.750 155.124 C 64.395 154.961, 64.438 144.838, 62.800 143.200 C 61.390 141.790, 59.344 141.634, 58.575 142.879" stroke="none" fill="black" fill-rule="evenodd"/>
</svg>