<svg xmlns="http://www.w3.org/2000/svg" width="300" height="300" viewBox="0 0 300 300" version="1.1">
	<path d="M 108.500 132.050 C 106.850 132.442, 102.575 132.836, 99 132.925 C 95.425 133.014, 90.475 133.507, 88 134.019 C 85.525 134.532, 76.975 135.400, 69 135.949 C 49.003 137.324, 45.459 137.924, 42.819 140.379 C 41.565 141.546, 40.192 142.387, 39.769 142.250 C 38.692 141.900, 38.836 145.192, 39.978 147 C 40.719 148.175, 43.155 148.500, 51.212 148.500 C 63.786 148.500, 80.275 147.330, 89 145.820 C 97.288 144.385, 101.173 143.913, 108 143.511 L 113.500 143.187 114.406 139.027 C 115.572 133.677, 113.240 130.922, 108.500 132.050 M 97 139 C 97 139.550, 98.013 139.993, 99.250 139.985 C 101.069 139.972, 101.213 139.784, 100 139 C 98.061 137.747, 97 137.747, 97 139 M 84.500 141 C 84.160 141.550, 84.332 142, 84.882 142 C 85.432 142, 86.160 141.550, 86.500 141 C 86.840 140.450, 86.668 140, 86.118 140 C 85.568 140, 84.840 140.450, 84.500 141 M 62.813 142.683 C 63.534 142.972, 64.397 142.936, 64.729 142.604 C 65.061 142.272, 64.471 142.036, 63.417 142.079 C 62.252 142.127, 62.015 142.364, 62.813 142.683 M 46.863 185.021 C 44.313 185.321, 41.501 186.169, 40.613 186.906 C 38.700 188.494, 38.477 193.331, 40.250 194.767 C 41.733 195.968, 118.096 197.176, 119.953 196.029 C 120.625 195.614, 121.023 194.204, 120.837 192.896 C 120.440 190.097, 116.586 187.986, 110.632 187.307 C 108.360 187.047, 105.825 186.605, 105 186.324 C 101.210 185.031, 55.481 184.006, 46.863 185.021 M 76.114 189.929 C 75.255 190.461, 75.152 190.976, 75.824 191.391 C 76.395 191.744, 77.163 191.545, 77.531 190.950 C 78.449 189.464, 77.719 188.938, 76.114 189.929 M 81.909 190.077 C 80.884 190.727, 81.249 190.974, 83.250 190.985 C 86.236 191.001, 86.774 190.511, 84.659 189.700 C 83.922 189.417, 82.684 189.587, 81.909 190.077 M 59 191 C 59 191.550, 59.675 192, 60.500 192 C 61.325 192, 62 191.550, 62 191 C 62 190.450, 61.325 190, 60.500 190 C 59.675 190, 59 190.450, 59 191" stroke="none" fill="black" fill-rule="evenodd"/>
</svg>