<svg xmlns="http://www.w3.org/2000/svg" width="300" height="300" viewBox="0 0 300 300" version="1.1">
	<path d="M 123.121 118.710 C 115.881 122.277, 113.925 130.259, 119.106 135.099 C 121.675 137.499, 123.075 138, 127.206 138 C 131.552 138, 132.641 137.559, 135.600 134.600 C 138.544 131.656, 139 130.541, 139 126.288 C 139 122.005, 138.621 121.096, 136.040 119.188 C 132.519 116.584, 127.792 116.409, 123.121 118.710 M 147.028 156.467 C 145.938 157.780, 146.143 158, 148.461 158 C 150.105 158, 151.011 157.534, 150.771 156.813 C 150.150 154.949, 148.420 154.789, 147.028 156.467 M 128.239 173.666 C 125.895 174.496, 123.505 176.057, 122.927 177.136 C 121.281 180.213, 123.449 185.130, 127.651 187.852 L 131.283 190.204 130.697 198.500 C 130.091 207.090, 128.431 212.570, 125.767 214.779 C 124.578 215.766, 123.138 215.815, 119.479 214.995 C 116.870 214.411, 114.457 214.217, 114.117 214.566 C 113.242 215.464, 120.944 221.948, 123.710 222.642 C 127.954 223.707, 132.721 222.082, 135.869 218.496 C 139.693 214.141, 140.804 210.061, 141.625 197.350 C 142.321 186.592, 140.966 179.592, 137.178 174.375 C 135.235 171.698, 134.061 171.605, 128.239 173.666" stroke="none" fill="black" fill-rule="evenodd"/>
</svg>