<svg xmlns="http://www.w3.org/2000/svg" width="300" height="300" viewBox="0 0 300 300" version="1.1">
	<path d="M 126 132.612 C 118.515 133.924, 113.682 135.509, 106.227 139.098 C 99.265 142.448, 97.480 143.826, 94.962 147.790 C 88.846 157.419, 85.090 166.530, 83.048 176.692 C 80.445 189.644, 80.427 199.940, 82.989 209.263 C 84.719 215.557, 85.623 217.086, 89.924 221 C 96.128 226.644, 104.083 232.247, 111.649 236.303 C 117.144 239.249, 118.081 239.428, 127.051 239.254 C 135.592 239.088, 137.388 238.706, 144.051 235.646 C 148.148 233.764, 152.651 230.936, 154.057 229.362 C 165.708 216.319, 169.074 206.178, 169.073 184.129 C 169.073 172.818, 168.631 167.835, 167.126 162.157 C 165.345 155.437, 164.557 154.157, 157.840 147.077 C 153.803 142.822, 149.600 138.855, 148.500 138.261 C 139.587 133.445, 132.045 131.552, 126 132.612 M 124 141.126 C 122.625 141.675, 120.072 141.858, 118.327 141.532 C 115.750 141.050, 115.037 141.308, 114.529 142.907 C 114.152 144.097, 112.834 145, 111.202 145.188 C 109.070 145.434, 108.394 146.137, 108 148.518 C 107.379 152.265, 102.328 158.998, 100.131 159.007 C 97.646 159.017, 94.035 165.107, 92.949 171.120 C 90.053 187.152, 89.763 189.950, 90.441 195.370 C 91.385 202.931, 97.464 214.976, 101.251 216.792 C 102.754 217.512, 104.454 218.979, 105.028 220.052 C 105.602 221.125, 107.518 222.694, 109.286 223.538 C 111.054 224.382, 113.850 225.834, 115.500 226.765 C 120.295 229.472, 133.863 229.121, 141.869 226.084 C 147.418 223.978, 148.650 223.013, 151.441 218.584 C 158.199 207.860, 161.040 196.597, 160.919 181 C 160.790 164.245, 160.456 163.325, 150.964 153.582 C 139.593 141.911, 131.449 138.149, 124 141.126 M 87 169.500 C 87 170.325, 87.450 171, 88 171 C 88.550 171, 89 170.325, 89 169.500 C 89 168.675, 88.550 168, 88 168 C 87.450 168, 87 168.675, 87 169.500" stroke="none" fill="black" fill-rule="evenodd"/>
</svg>