<svg xmlns="http://www.w3.org/2000/svg" width="300" height="300" viewBox="0 0 300 300" version="1.1">
	<path d="M 107.796 89.397 C 105.209 90.004, 102.532 91.063, 101.846 91.750 C 101.161 92.438, 99.986 93, 99.236 93 C 98.486 93, 95.446 94.110, 92.481 95.466 C 87.712 97.647, 86.796 98.574, 84.545 103.496 C 81.508 110.135, 81.226 115.989, 83.829 118.345 C 87.063 121.272, 92 120.132, 92 116.458 C 92 113.160, 93.782 108.887, 95.789 107.372 C 100.672 103.685, 109.233 99.947, 113.174 99.780 C 118.389 99.559, 125.478 102.835, 130.094 107.597 C 132.576 110.158, 133.389 111.995, 133.764 115.891 L 134.244 120.895 125.684 128.998 C 118.999 135.325, 116.351 138.678, 113.597 144.300 L 110.070 151.500 111.147 159.500 C 111.740 163.900, 112.580 167.950, 113.015 168.500 C 113.449 169.050, 114.295 171.334, 114.894 173.576 C 115.920 177.415, 116.280 177.721, 121.068 178.826 C 130.337 180.966, 132.165 180.312, 131.189 175.209 C 130.913 173.765, 129.454 172.230, 127.448 171.274 C 122.022 168.687, 119.135 157.035, 122.032 149.416 C 123.497 145.562, 130.489 137.479, 134.503 134.998 C 136.373 133.843, 139.275 131.032, 140.951 128.751 C 143.507 125.276, 143.993 123.709, 143.956 119.053 C 143.869 108.069, 140.796 101.418, 133.191 95.749 C 124.765 89.469, 116.406 87.378, 107.796 89.397 M 113.946 220.054 C 111.595 222.405, 111.474 224.804, 113.557 227.777 C 115.670 230.794, 119.528 230.613, 122.548 227.354 C 126.695 222.879, 125.629 219.645, 119.696 218.709 C 116.723 218.239, 115.467 218.533, 113.946 220.054" stroke="none" fill="black" fill-rule="evenodd"/>
</svg>