<svg xmlns="http://www.w3.org/2000/svg" width="300" height="300" viewBox="0 0 300 300" version="1.1">
	<path d="M 115.541 138.624 C 110.768 142.269, 108 146.919, 108 151.294 C 108 153.911, 111.293 157.404, 114.748 158.452 C 117.636 159.328, 118.379 162.458, 117.758 171.135 C 117.371 176.548, 116.782 178.554, 115.130 180.094 C 113.958 181.185, 113 182.705, 113 183.472 C 113 184.238, 112.112 185.147, 111.026 185.492 C 108.356 186.339, 104.982 190.789, 105.663 192.564 C 106.470 194.667, 109.226 194.326, 114.148 191.512 C 116.542 190.144, 119.707 189.019, 121.182 189.012 C 127.109 188.985, 129.411 181.606, 130.311 159.756 C 130.464 156.046, 131.131 152.469, 131.794 151.806 C 135.108 148.492, 131.526 137.911, 126.434 135.975 C 122.261 134.388, 120.541 134.807, 115.541 138.624" stroke="none" fill="black" fill-rule="evenodd"/>
</svg>