<svg xmlns="http://www.w3.org/2000/svg" width="300" height="300" viewBox="0 0 300 300" version="1.1">
	<path d="M 171.618 140.716 C 169.312 143.021, 145.296 143.830, 124 142.319 C 118.775 141.948, 105.801 141.612, 95.169 141.573 C 76.971 141.504, 75.753 141.617, 74.381 143.493 C 72.069 146.656, 73.093 149.040, 77.500 150.755 C 80.447 151.902, 85.974 152.376, 98.500 152.557 C 125.526 152.946, 139.512 153.690, 144.688 155.014 C 148.750 156.052, 150.980 155.967, 159 154.463 C 164.225 153.484, 170.230 152.746, 172.345 152.825 C 179.910 153.107, 181.876 149.771, 177.918 143.368 C 175.970 140.215, 173.259 139.074, 171.618 140.716" stroke="none" fill="black" fill-rule="evenodd"/>
</svg>