<svg xmlns="http://www.w3.org/2000/svg" width="300" height="300" viewBox="0 0 300 300" version="1.1">
	<path d="M 134.500 113.945 C 133.400 114.395, 130.498 116.546, 128.050 118.723 C 124.371 121.996, 123.600 123.295, 123.600 126.213 C 123.600 131.542, 125.860 133.220, 131.950 132.412 C 134.708 132.046, 137.478 131.129, 138.105 130.373 C 138.732 129.618, 140.101 129, 141.147 129 C 144.405 129, 147.474 117.481, 145.008 114.510 C 143.664 112.890, 137.843 112.577, 134.500 113.945 M 129.225 176.004 C 126.122 177.896, 124 181.379, 124 184.580 C 124 186.769, 130.026 189.992, 134.128 189.996 C 138.448 190.001, 139.701 188.722, 140.544 183.447 C 141.050 180.286, 140.744 178.944, 139.016 176.747 C 136.455 173.491, 133.690 173.282, 129.225 176.004" stroke="none" fill="black" fill-rule="evenodd"/>
</svg>