<?xml version="1.0" standalone="no"?>
<!DOCTYPE svg PUBLIC "-//W3C//DTD SVG 1.1//EN" "http://www.w3.org/Graphics/SVG/1.1/DTD/svg11.dtd" >
<svg xmlns="http://www.w3.org/2000/svg" xmlns:svg="http://www.w3.org/2000/svg" xmlns:xlink="http://www.w3.org/1999/xlink" viewBox="0 0 1024 1024"><path d="M436.96 875.79Q453.01 833.35 443.19 810.84Q501.08 696.53 541.68 671.53Q546.91 641.55 540.38 657.57Q547.04 629.44 576.82 644.44Q592.89 655.52 587.5 650.09Q587.64 691.16 586.03 705.22Q605.43 711.75 596.58 691.14L601.46 728.99L602.68 777.07Q618.85 768.99 642.83 751.7Q653.17 781.98 653.23 752.4Q670.84 766.69 664.09 759.51Q651.52 770.29 663.63 758.78V670.11L666.04 564.85H610.33Q552.87 574.02 533.77 561.99Q551.79 554.98 515.54 553.92Q517.32 552.67 520.57 551.55Q539.74 533.12 548.13 507.22Q548.64 521.19 610.82 520.83L653.66 508.49L655.55 505.59L660.72 447.24L589.07 463.13Q503.11 449.37 488.46 461.12Q464.5 450.06 475.19 444.69Q452.97 443.88 466.52 414.11Q463.1 417.66 482.04 396.43Q450.75 390.72 457.17 389.64Q497.36 387.07 494.16 392.43Q528.32 398.34 555.05 381.41H657.78L646.44 359.08Q678.15 393.81 659.67 356.45Q660.78 364.73 669.61 358.47Q663.11 340.09 625.53 366.56Q632.22 374.93 585.8 342.36Q560.88 364.49 553.22 379.3Q534.18 368.17 543.5 343.91Q503.94 343.05 516.63 326.4Q507.6 290.12 532.35 319.32Q564.8 279.47 601.72 276.56Q622.86 295.45 644.88 295.27Q662.89 274.38 661.93 292.51Q678.17 293.39 668.86 284.98Q656.08 255.17 651.5 246.16Q660.73 244.27 631.31 258.41Q620.25 241.97 595.13 226.76Q558.56 234.89 572.97 226.52Q519.64 257.27 513.8 220.69Q506.91 228.87 480.58 226.89Q509.21 201.87 501.28 190.1Q484.84 206.98 512.45 205.99Q494.43 193.15 526.78 157.55Q542 174.3 613.09 175.11L672.48 182.31V145.75Q658 127.5 689.14 110.95Q674.12 133.26 664.87 128.46Q703.31 98.24 705.18 90Q705.42 89.68 720.22 110.97Q732.69 84.33 751.12 98.24Q743.49 111.07 736.11 136.36Q756.98 131.61 741.15 159.32V174.25H801.13Q887.06 184.11 878.69 172.9Q927.95 180.28 899.13 187.25Q932.96 204.79 902.21 210.05Q913.38 225.13 932.98 226.88Q901.9 217.4 922.17 233.79Q914.75 256.86 871.74 262.26Q862.89 254.84 812.68 244.11H728.02V288.84H797.86Q845.97 308.04 852.92 312.22Q885.08 282.91 885.8 281.14Q906.43 321.39 899.71 316.35Q901.03 347.08 908.76 356.5Q915.23 397.52 915.05 402.3Q921.53 394.6 900.27 379.15Q952.03 390.15 965.14 410.4Q939.53 421.64 932.37 430.49Q931.91 444.69 881.84 474.23Q912.96 456.7 912.85 463.51Q904.99 483.17 910.96 514.07Q905.81 528.43 904.43 515.29Q905.25 566.12 882.25 582.87Q847.94 594.42 800.04 567.1Q828.34 580.88 782.66 579.21H717.6L737.75 596.25L730.73 655.62L799.73 656.29Q814.27 638.54 858.05 644.69Q859.74 670.54 894.45 644.4Q878.82 648.88 896.68 672.41Q868.91 691.36 871.55 681.89Q889.21 670.6 866.85 692.81Q895.44 723.51 856.02 705.14Q829.91 725.59 795.63 715.53H742.65V760.68Q730.08 769.87 731.99 777.53Q719.06 800.6 748.97 797.59Q763.19 803.22 770.35 829.27Q805.88 827.18 831.74 856.54Q903.47 835.78 916.03 853.24Q953.19 864.05 946.33 884.41Q947.35 882.22 953.13 893.27Q930.5 904.53 945.92 909.84Q936.16 905.06 920.38 937.27Q918.56 945.37 887.32 915.48Q899.03 912.7 901.52 927.4Q888.02 936.31 855.83 934.41Q811.91 916.08 803.21 900.18Q765.53 879.83 752.58 891.06Q704.43 889.84 705.34 864.28Q666.81 879.33 681.92 869.62Q663.71 845.6 674.98 850.61Q630.09 863.84 642.15 834.83Q624.49 861.26 616.18 833.63Q592.85 822.14 554.16 806.9Q550.73 829.2 547.87 833.59Q525.4 803.58 555.03 837.16Q543.04 819.91 547.94 842.66Q530.69 868.05 521.39 911.22Q479.57 908.66 471.46 919.66Q451.4 914.06 457.45 892.12Q431.06 908.88 430.19 895.1Q422.97 863.78 433.99 865.24ZM68.97 274.15Q108.02 244.48 129.65 269.94L172.46 247.22L200.43 193.47Q185.76 180.09 208.61 164.47Q214.91 130.92 208.98 130.54Q203.67 99.93 200.7 90.42Q226.32 106.1 235.57 127.85Q240.06 120.96 253.25 120.83Q262.66 125.56 287.98 131.73Q268.96 158.09 259.35 167.42Q268.71 150.52 286.61 191.01L282.73 233.65L340.11 254.54L343.33 204.59Q341.19 201.96 379.86 187.72Q366.38 174.55 392.92 180.71Q403.2 174.64 433.36 185.6Q430.12 193.15 443.48 233.64L433.38 257.84H447.5Q485.03 249.17 480.56 251.9Q489.1 261.23 508.08 275.56Q490.64 292.49 472.04 314.04Q456.82 312.21 453.48 334.45Q442.71 328.03 427.58 319.72Q439.1 336.3 424.67 343.98Q426.72 340.32 416.1 396.66Q418.5 404.86 414.01 488.95Q384.47 523.47 392.69 560.64Q382.69 619.12 375.24 628.51Q363 662.52 358.46 674.26Q333.4 723.7 330.72 708.27Q346.17 708.2 337.41 745.86Q358.95 736.16 353.51 727.9Q374.26 740.62 382.45 756.47Q387.88 790.1 419.43 780.19Q420.44 803.23 436.39 810.36Q402.24 834.39 398.83 829.52Q417.87 846.5 384.82 848.59Q379.5 844.83 321.16 816.42Q311.12 802.76 312.99 811.87Q328.49 811.54 296.29 817.75Q317.16 793.79 288.4 810.72Q276.82 843.65 283.52 822.09Q281.9 877.14 222.1 885.03Q205.43 915.03 207.8 915.3Q198.8 940.45 173.63 926.33Q175.17 937.26 158.75 917.38Q134.12 929.84 140.96 902.7Q162.67 905.05 144.06 892.71Q164.3 851.22 163.04 842.96Q179.9 816.88 193.26 808.49Q227.43 793.73 223.75 784.37L240.02 760.51L191.42 680.79Q117.2 648.76 119.56 621.26Q124.67 635.31 120.53 597.5Q130.89 592.36 151.09 529.49Q140.45 467.5 163.31 426.84Q163.44 374.5 176.99 334.64Q183.5 338.49 181.65 320.91Q148.8 316.62 162.16 333.37Q141.12 316.03 142.42 345.01Q130.58 315.09 82.1 320.92Q83.43 314.01 62.26 313.99Q61.09 284.48 79.96 303.84Q74.03 261.11 78.66 257.07ZM187.07 599.01Q206.08 591.55 190.97 594.29Q224.27 637.32 238.56 622.44L286.52 689.93L289.43 648.17Q307.45 592.12 334.35 526.81Q334.69 412.76 367.6 343.84L350.29 331.35L309.15 339Q268.68 317.21 280.38 313.37Q249.42 343.21 229.44 355.23Q256.73 346.56 222.43 430.5Q248.92 439.32 220.84 459.32Q209.94 490.64 199.89 524.59Q200.22 568.87 186.81 592.05Q209.59 578.91 197.99 602.6ZM734.91 499.65Q745.58 504.67 773.56 520.27H792.52Q801.08 521.79 818.37 506.91Q828.16 505.85 828.71 488.34L828.71 470.26H734.36V484.95Q748.2 473.11 745.17 489.49Q764.78 521.56 749.95 509.42ZM751.62 373.57V403.61H762.08Q789.58 382.57 806.37 413.96Q830.15 394.45 833.08 400.95Q798.13 376.57 801.48 377.25Q824.29 352.73 800.46 350.5Q778.72 363.09 769 366.15Q777.45 354.83 763.26 355.62Q764.68 343.98 745.35 358.74Q750.97 345.63 750.51 344.13Q760.84 346.83 764.64 358.91Z" fill="black"></path></svg>