<?xml version="1.0" standalone="no"?>
<!DOCTYPE svg PUBLIC "-//W3C//DTD SVG 1.1//EN" "http://www.w3.org/Graphics/SVG/1.1/DTD/svg11.dtd" >
<svg xmlns="http://www.w3.org/2000/svg" xmlns:svg="http://www.w3.org/2000/svg" xmlns:xlink="http://www.w3.org/1999/xlink" viewBox="0 0 1024 1024"><path d="M409.23 562.3Q395.68 579.26 396.4 542.34Q431.29 540.74 438.15 558.75Q471.5 523.44 504.35 524.73H636.13L624.7 509.95Q621.11 493.99 620.74 456.51Q609.01 466.79 620.4 431.39Q623.34 435.61 611.88 449.21Q582.84 428.61 590.34 434.64Q564.22 439.79 548.7 433.33Q536.68 444.99 553.54 451.26Q532.62 416.81 518.6 419.05Q501.05 425.89 523.52 393.65Q495.78 399.22 526.83 391.45Q522.74 359.45 525.46 373.28Q566.48 377.86 579.2 371.42Q609.9 371.63 635.13 368.23Q754.39 357.52 773.6 389.28Q764 379.01 790.87 407.22Q797.86 406.92 802.03 403.11Q807.42 413.38 778.17 437.13Q777.8 458.86 748.74 431.31L688.26 456.3V526.98L763.17 526.38Q831.95 527.16 848.92 539.65Q854.46 566.15 849.57 585.02Q859.6 604.51 859.91 603.45Q866.75 582.91 843.81 615.1Q838.67 623.24 822.62 631.87Q825.68 635.5 787.6 605.52Q805.48 618.63 760.61 632.99L678.16 627.5L705.17 755.56Q684.82 881.65 676.05 898.75Q686.02 942.34 671.12 943.23L678.63 935.63L642.8 940.05Q565.61 907.14 559.01 890.98Q566.22 876.93 556.63 867.48Q538.57 850.37 548.95 841.97Q555.03 799.39 572.36 809.62Q582.86 799.01 596.74 801.52Q596.82 807.19 603.59 812.4Q612.37 823.71 605.54 827.95Q617.99 803.56 613.48 795.4Q609.09 813.41 622.74 788.72Q604.81 766.4 610.63 705.78L603.17 593.85L528.52 614.45Q472.64 593.45 412.82 596.01Q401.53 610.04 382.73 594.32Q404.94 589.48 381.65 566.94Q419.44 577.67 402.17 551.52ZM117.91 498.97Q129.12 454.89 191.49 404.6Q230.05 352.9 298.46 278.78Q316.05 231.67 317.88 223.78Q339.62 201.54 334.22 193.8Q344.19 187.28 350.44 191.63Q348.19 183.03 359.78 183.11Q380.72 209.04 383.36 219.04Q395.48 205.14 423.65 247.91Q386.07 257.8 369.06 263.16Q378.85 318 322.53 351Q329.68 355.84 307.54 400.75Q319.03 448.85 281.47 551.78Q317.25 592.89 290.59 653.18Q300.4 830.46 299.94 902.56Q287.88 944.88 302.35 943.16Q298.38 923.77 294.22 930.19Q284.13 954.48 269.71 958.81Q247.97 932.64 233.72 916.55L235.84 939.81L219.83 708.92Q213.78 606.81 215.27 548.15Q230.34 489.84 207.93 491.52Q216.66 489.16 224.96 497.57Q231.64 505.24 192.63 507.65Q204.69 515.39 187.79 533.75Q167.32 544.52 165.25 569.74Q149.99 574.66 138.09 567.06Q115.98 589.58 137.82 586.07Q101.14 577.88 121.74 568.82Q90.7 580.38 73.36 565.99Q109.25 533.62 125.58 508.19ZM384.05 405Q373.53 400.93 384.18 392.05Q381.98 385.02 400.75 341.58Q439.22 333.24 464 319.24Q478.55 273.51 515.73 256.2Q586.61 153.37 577.6 123.34Q637.19 82.2 635.08 87.55Q627.63 71.64 650.47 96.03Q672.66 67.22 652.27 72.32Q680.87 107.87 687.67 110.09Q704.01 133.62 741.92 141.45Q756.15 172.88 772.14 195.73Q751.42 196.32 772.32 203.12Q796.91 218.53 776.96 237.96Q791.05 253.94 810.03 270.66Q846.86 298.03 842.36 315.86Q905.57 358.51 905.02 389.98Q928.7 388.92 938.19 411.88Q947.18 418.91 928.95 430.1Q915.93 448.16 897.5 459.58Q869.47 461.82 855.52 440.34Q852.95 424.45 862.94 411.57Q831.35 430.73 827.7 379.81Q797.86 379.94 812.5 351.53Q738.29 319.07 694.53 268.56Q661.74 205.14 651.11 177.32Q652.14 169.8 662.23 186.45Q632.87 200.8 653.15 185.86Q616.32 212.51 589.18 263.93Q532.22 331.08 492.71 387.33Q464.18 415.96 424.59 446.11Q437.16 420.12 405.35 432.83Q400.13 437.8 400.87 440.34Q371.56 407.51 357.53 409.03ZM180.3 194.75Q219.58 137.26 253.36 70.89Q253.48 96 263.72 90.08Q276.11 93.57 284.01 88.58Q294.07 73.41 296.98 101.26Q342.76 108.31 332.9 93.29Q306.52 112.33 327.64 122.27Q342.15 123.67 280.8 148.92Q276.97 230.84 180.57 295.97Q175.66 336.13 189.57 325.37Q166.97 351.11 172.07 371.51Q139.17 354.65 116.9 350.42Q128.31 384.82 114.6 367.25Q81.96 348.13 95.96 345.93Q118.3 307.93 163.48 212.05ZM381.1 771.25Q413.56 762.29 413.37 734.62L440.64 663.35L467.85 658.68Q505.91 687.21 493.65 677.67Q496.92 663.18 487.47 683.22Q508.2 694.59 501.75 678.51Q523.67 693.21 485.24 702.91Q497.23 716.83 499.6 784.07Q475.11 809.44 478.67 804.49Q438.7 837.35 442.97 859.24Q445.76 862.91 444.08 846.68Q439.47 844.18 427.02 834.16Q416.86 825.18 374.54 825.38Q382.41 795.21 391.46 816.69Q397.85 792.37 387.67 809.75ZM742.36 702.05Q758.26 698.68 771.73 701.49Q741.74 704.83 780.44 667.06Q761.32 698.14 783.13 660.34Q780.2 666.98 786.89 690.52Q816.48 694.5 822.23 709.39Q875.37 756.95 882.56 778.68Q867.67 787.12 873.2 809.02Q884.01 832.07 860.86 832.75Q868.43 860.16 840.44 845.92Q821.14 846.48 829.17 811.75Q811.85 818.35 792.68 746.17Q750.1 712.13 741.43 721.9Z" fill="black"></path></svg>